<?xml version="1.0" encoding="UTF-8" standalone="no"?>
<!-- Created with Inkscape (http://www.inkscape.org/) -->

<svg
   xmlns:dc="http://purl.org/dc/elements/1.1/"
   xmlns:cc="http://creativecommons.org/ns#"
   xmlns:rdf="http://www.w3.org/1999/02/22-rdf-syntax-ns#"
   xmlns:svg="http://www.w3.org/2000/svg"
   xmlns="http://www.w3.org/2000/svg"
   xmlns:sodipodi="http://sodipodi.sourceforge.net/DTD/sodipodi-0.dtd"
   xmlns:inkscape="http://www.inkscape.org/namespaces/inkscape"
   width="240"
   height="234"
   viewBox="0 0 240 234"
   id="svg2"
   version="1.1"
   inkscape:version="0.91 r13725"
   sodipodi:docname="patched-fonts-resized-white-paths.svg">
  <defs
     id="defs4" />
  <sodipodi:namedview
     id="base"
     pagecolor="#ffffff"
     bordercolor="#666666"
     borderopacity="1.0"
     inkscape:pageopacity="0.0"
     inkscape:pageshadow="2"
     inkscape:zoom="0.98994949"
     inkscape:cx="158.06559"
     inkscape:cy="147.96886"
     inkscape:document-units="px"
     inkscape:current-layer="layer1"
     showgrid="false"
     inkscape:window-width="1861"
     inkscape:window-height="1056"
     inkscape:window-x="59"
     inkscape:window-y="24"
     inkscape:window-maximized="1"
     units="px" />
  <metadata
     id="metadata7">
    <rdf:RDF>
      <cc:Work
         rdf:about="">
        <dc:format>image/svg+xml</dc:format>
        <dc:type
           rdf:resource="http://purl.org/dc/dcmitype/StillImage" />
        <dc:title></dc:title>
      </cc:Work>
    </rdf:RDF>
  </metadata>
  <g
     inkscape:label="Layer 1"
     inkscape:groupmode="layer"
     id="layer1"
     transform="translate(0,-818.36216)">
    <g
       style="font-style:normal;font-weight:normal;font-size:40px;line-height:125%;font-family:sans-serif;letter-spacing:0px;word-spacing:0px;fill:#f9f9f9;fill-opacity:1;stroke:none;stroke-width:1px;stroke-linecap:butt;stroke-linejoin:miter;stroke-opacity:1"
       id="text4155"
       transform="translate(0,4)">
      <path
         d="m 77.282059,821.466 3.452148,0 0,10.45899 12.543945,0 0,-10.45899 3.452149,0 0,25.51514 -3.452149,0 0,-12.15088 -12.543945,0 0,12.15088 -3.452148,0 0,-25.51514 z"
         style="font-size:35px;fill:#f9f9f9"
         id="path4333"
         inkscape:connector-curvature="0" />
      <path
         d="m 112.16243,837.35956 q -3.81104,0 -5.28076,0.87158 -1.46973,0.87158 -1.46973,2.97363 0,1.67481 1.09375,2.66602 1.11084,0.97412 3.00781,0.97412 2.61475,0 4.18702,-1.8457 1.58935,-1.8628 1.58935,-4.93897 l 0,-0.70068 -3.12744,0 z m 6.27197,-1.29883 0,10.92041 -3.14453,0 0,-2.90527 q -1.07666,1.74316 -2.6831,2.58056 -1.60645,0.82032 -3.93067,0.82032 -2.93945,0 -4.68262,-1.64063 -1.72607,-1.65771 -1.72607,-4.42627 0,-3.22998 2.15332,-4.8706 2.17041,-1.64063 6.45996,-1.64063 l 4.40918,0 0,-0.30762 q 0,-2.17041 -1.43555,-3.34961 -1.41845,-1.19629 -3.99902,-1.19629 -1.64062,0 -3.1958,0.39307 -1.55518,0.39307 -2.99072,1.1792 l 0,-2.90527 q 1.72607,-0.66651 3.34961,-0.99121 1.62353,-0.3418 3.16162,-0.3418 4.15283,0 6.20361,2.15332 2.05078,2.15332 2.05078,6.52832 z"
         style="font-size:35px;fill:#f9f9f9"
         id="path4335"
         inkscape:connector-curvature="0" />
      <path
         d="m 138.70296,828.57538 0,2.93945 q -1.33301,-0.73486 -2.68311,-1.09375 -1.33301,-0.37598 -2.70019,-0.37598 -3.05909,0 -4.75098,1.94825 -1.69189,1.93115 -1.69189,5.43457 0,3.50342 1.69189,5.45166 1.69189,1.93115 4.75098,1.93115 1.36718,0 2.70019,-0.35889 1.3501,-0.37597 2.68311,-1.11084 l 0,2.90528 q -1.31592,0.61523 -2.73438,0.92285 -1.40137,0.30762 -2.99072,0.30762 -4.32373,0 -6.87012,-2.71729 -2.54638,-2.71728 -2.54638,-7.33154 0,-4.68262 2.56347,-7.36573 2.58057,-2.6831 7.05811,-2.6831 1.45263,0 2.83691,0.30762 1.38428,0.29052 2.68311,0.88867 z"
         style="font-size:35px;fill:#f9f9f9"
         id="path4337"
         inkscape:connector-curvature="0" />
      <path
         d="m 144.08626,820.38934 3.16162,0 0,15.70557 9.38232,-8.25439 4.01612,0 -10.15137,8.95507 10.57861,10.18555 -4.10156,0 -9.72412,-9.34814 0,9.34814 -3.16162,0 0,-26.5918 z"
         style="font-size:35px;fill:#f9f9f9"
         id="path4339"
         inkscape:connector-curvature="0" />
    </g>
    <g
       style="font-style:normal;font-weight:normal;font-size:40px;line-height:125%;font-family:sans-serif;letter-spacing:0px;word-spacing:0px;fill:#f9f9f9;fill-opacity:1;stroke:none;stroke-width:1px;stroke-linecap:butt;stroke-linejoin:miter;stroke-opacity:1"
       id="text4155-3"
       transform="translate(39.48227,33.822356)">
      <path
         d="m 50.749292,922.71432 0,-2.205 13.16,0 0,2.205 -5.495,0 0,19.705 -2.17,0 0,-19.705 -5.495,0 z"
         style="font-style:normal;font-variant:normal;font-weight:500;font-stretch:normal;font-size:35px;font-family:'TerminessTTF Nerd Font';-inkscape-font-specification:'TerminessTTF Nerd Font Medium';fill:#f9f9f9"
         id="path4342"
         inkscape:connector-curvature="0" />
      <path
         d="m 68.249292,929.71432 2.66,-2.625 7.84,0 2.66,2.625 0,6.125 -11.06,0 0.77,3.815 10.29,-0.105 -0.77,2.31 -9.205,0.665 -3.185,-2.52 0,-10.29 z m 11.06,3.955 -0.665,-3.85 -6.65,-0.665 -1.54,1.54 0,2.975 8.855,0 z"
         style="font-style:normal;font-variant:normal;font-weight:500;font-stretch:normal;font-size:35px;font-family:'TerminessTTF Nerd Font';-inkscape-font-specification:'TerminessTTF Nerd Font Medium';fill:#f9f9f9"
         id="path4344"
         inkscape:connector-curvature="0" />
      <path
         d="m 85.749292,942.41932 0,-15.33 2.205,0 0,2.625 2.625,-2.625 8.33,0 0,2.17 -6.895,0 -4.06,3.64 0,9.52 -2.205,0 z"
         style="font-style:normal;font-variant:normal;font-weight:500;font-stretch:normal;font-size:35px;font-family:'TerminessTTF Nerd Font';-inkscape-font-specification:'TerminessTTF Nerd Font Medium';fill:#f9f9f9"
         id="path4346"
         inkscape:connector-curvature="0" />
      <path
         d="m 103.24929,942.41932 0,-15.33 10.5,0 2.66,2.625 0,12.705 -2.1,0 -0.665,-12.39 -2.73,-0.98 0,13.37 -2.17,0 0,-13.16 -3.29,0 0,13.16 -2.205,0 z"
         style="font-style:normal;font-variant:normal;font-weight:500;font-stretch:normal;font-size:35px;font-family:'TerminessTTF Nerd Font';-inkscape-font-specification:'TerminessTTF Nerd Font Medium';fill:#f9f9f9"
         id="path4348"
         inkscape:connector-curvature="0" />
      <path
         d="m 124.03929,929.25932 0,-2.17 4.375,0 0,13.125 2.205,0 0,2.205 -6.58,0 0,-2.205 2.205,0 0,-10.955 -2.205,0 z m 2.205,-4.34 0,-4.41 2.17,0 0,4.41 -2.17,0 z"
         style="font-style:normal;font-variant:normal;font-weight:500;font-stretch:normal;font-size:35px;font-family:'TerminessTTF Nerd Font';-inkscape-font-specification:'TerminessTTF Nerd Font Medium';fill:#f9f9f9"
         id="path4350"
         inkscape:connector-curvature="0" />
      <path
         d="m 138.24929,942.41932 0,-15.33 10.5,0 2.66,2.625 0,12.705 -2.1,0 -0.665,-12.6 -8.19,-0.665 0,13.265 -2.205,0 z"
         style="font-style:normal;font-variant:normal;font-weight:500;font-stretch:normal;font-size:35px;font-family:'TerminessTTF Nerd Font';-inkscape-font-specification:'TerminessTTF Nerd Font Medium';fill:#f9f9f9"
         id="path4352"
         inkscape:connector-curvature="0" />
      <path
         d="m 155.74929,939.75932 0,-12.67 2.1,0 0.665,12.565 8.19,0.665 0,-13.23 2.205,0 0,15.33 -10.5,0 -2.66,-2.66 z"
         style="font-style:normal;font-variant:normal;font-weight:500;font-stretch:normal;font-size:35px;font-family:'TerminessTTF Nerd Font';-inkscape-font-specification:'TerminessTTF Nerd Font Medium';fill:#f9f9f9"
         id="path4354"
         inkscape:connector-curvature="0" />
      <path
         d="m 173.24929,929.71432 2.66,-2.625 8.085,0 2.52,3.08 -10.5,-0.35 0,3.29 8.505,1.085 2.415,3.815 -2.415,3.85 -8.75,0.665 -2.625,-3.185 10.5,0.315 0,-3.255 -7.63,-0.77 -2.765,-2.205 0,-3.71 z"
         style="font-style:normal;font-variant:normal;font-weight:500;font-stretch:normal;font-size:35px;font-family:'TerminessTTF Nerd Font';-inkscape-font-specification:'TerminessTTF Nerd Font Medium';fill:#f9f9f9"
         id="path4356"
         inkscape:connector-curvature="0" />
    </g>
    <g
       style="font-style:normal;font-weight:normal;font-size:40px;line-height:125%;font-family:sans-serif;letter-spacing:0px;word-spacing:0px;fill:#f9f9f9;fill-opacity:1;stroke:none;stroke-width:1px;stroke-linecap:butt;stroke-linejoin:miter;stroke-opacity:1"
       id="text4155-3-1"
       transform="translate(0,36)">
      <path
         d="m 12.112891,879.43086 q -2.1600004,0 -3.9900004,-0.78 -1.8,-0.78 -3.15,-2.13 l 1.5,-1.74 q 1.11,1.11 2.58,1.8 1.4700004,0.66 3.1800004,0.66 2.04,0 3.15,-0.87 1.14,-0.87 1.14,-2.25 0,-0.78 -0.27,-1.32 -0.27,-0.54 -0.75,-0.93 -0.48,-0.39 -1.14,-0.69 -0.63,-0.3 -1.38,-0.63 l -2.82,-1.23 q -0.7500004,-0.3 -1.5000004,-0.72 -0.75,-0.42 -1.38,-1.02 -0.6,-0.6 -0.99,-1.41 -0.39,-0.84 -0.39,-1.92 0,-1.11 0.48,-2.07 0.48,-0.96 1.32,-1.65 0.87,-0.72 2.04,-1.11 1.2000004,-0.39 2.6100004,-0.39 1.86,0 3.42,0.69 1.56,0.66 2.64,1.74 l -1.32,1.62 q -0.96,-0.87 -2.13,-1.35 -1.17,-0.51 -2.7,-0.51 -1.71,0 -2.7600004,0.78 -1.05,0.75 -1.05,2.1 0,0.72 0.3,1.23 0.33,0.48 0.81,0.87 0.5100004,0.36 1.1400004,0.63 0.63,0.27 1.26,0.54 l 2.76,1.2 q 0.9,0.36 1.68,0.84 0.81,0.45 1.38,1.08 0.6,0.6 0.93,1.44 0.36,0.81 0.36,1.89 0,1.17 -0.48,2.19 -0.48,1.02 -1.38,1.8 -0.9,0.75 -2.19,1.2 -1.29,0.42 -2.91,0.42 z"
         style="font-style:normal;font-variant:normal;font-weight:normal;font-stretch:normal;font-size:30px;font-family:'SauceCodePro Nerd Font';-inkscape-font-specification:'SauceCodePro Nerd Font';fill:#f9f9f9"
         id="path4359"
         inkscape:connector-curvature="0" />
      <path
         d="m 29.951172,879.43086 q -1.44,0 -2.76,-0.51 -1.29,-0.51 -2.28,-1.47 -0.99,-0.99 -1.59,-2.4 -0.57,-1.44 -0.57,-3.24 0,-1.83 0.57,-3.24 0.6,-1.44 1.59,-2.43 0.99,-0.99 2.28,-1.5 1.32,-0.51 2.76,-0.51 1.44,0 2.73,0.51 1.32,0.51 2.31,1.5 0.99,0.99 1.56,2.43 0.6,1.41 0.6,3.24 0,1.8 -0.6,3.24 -0.57,1.41 -1.56,2.4 -0.99,0.96 -2.31,1.47 -1.29,0.51 -2.73,0.51 z m 0,-2.04 q 1.05,0 1.89,-0.39 0.87,-0.42 1.47,-1.14 0.63,-0.75 0.96,-1.77 0.33,-1.02 0.33,-2.28 0,-1.26 -0.33,-2.28 -0.33,-1.05 -0.96,-1.8 -0.6,-0.75 -1.47,-1.14 -0.84,-0.42 -1.89,-0.42 -1.05,0 -1.92,0.42 -0.84,0.39 -1.47,1.14 -0.6,0.75 -0.93,1.8 -0.33,1.02 -0.33,2.28 0,1.26 0.33,2.28 0.33,1.02 0.93,1.77 0.63,0.72 1.47,1.14 0.87,0.39 1.92,0.39 z"
         style="font-style:normal;font-variant:normal;font-weight:normal;font-stretch:normal;font-size:30px;font-family:'SauceCodePro Nerd Font';-inkscape-font-specification:'SauceCodePro Nerd Font';fill:#f9f9f9"
         id="path4361"
         inkscape:connector-curvature="0" />
      <path
         d="m 46.319453,879.43086 q -2.64,0 -3.87,-1.47 -1.2,-1.5 -1.2,-4.41 l 0,-9.06 2.49,0 0,8.73 q 0,2.07 0.75,3.09 0.78,0.99 2.61,0.99 1.26,0 2.28,-0.63 1.02,-0.66 2.25,-2.07 l 0,-10.11 2.46,0 0,14.58 -2.01,0 -0.21,-2.55 -0.12,0 q -1.11,1.29 -2.43,2.1 -1.29,0.81 -3,0.81 z"
         style="font-style:normal;font-variant:normal;font-weight:normal;font-stretch:normal;font-size:30px;font-family:'SauceCodePro Nerd Font';-inkscape-font-specification:'SauceCodePro Nerd Font';fill:#f9f9f9"
         id="path4363"
         inkscape:connector-curvature="0" />
      <path
         d="m 61.307734,879.07086 0,-14.58 2.04,0 0.21,3.45 0.09,0 q 1.14,-1.77 2.79,-2.79 1.68,-1.02 3.72,-1.02 0.81,0 1.5,0.15 0.69,0.12 1.38,0.45 l -0.57,2.13 q -0.78,-0.27 -1.32,-0.39 -0.51,-0.12 -1.38,-0.12 -1.65,0 -3.18,0.96 -1.5,0.93 -2.82,3.21 l 0,8.55 -2.46,0 z"
         style="font-style:normal;font-variant:normal;font-weight:normal;font-stretch:normal;font-size:30px;font-family:'SauceCodePro Nerd Font';-inkscape-font-specification:'SauceCodePro Nerd Font';fill:#f9f9f9"
         id="path4365"
         inkscape:connector-curvature="0" />
      <path
         d="m 85.296016,879.43086 q -1.71,0 -3.18,-0.51 -1.44,-0.51 -2.52,-1.47 -1.08,-0.99 -1.68,-2.4 -0.6,-1.44 -0.6,-3.24 0,-1.83 0.63,-3.24 0.66,-1.44 1.77,-2.43 1.11,-0.99 2.58,-1.5 1.5,-0.51 3.15,-0.51 1.8,0 3.09,0.63 1.32,0.63 2.22,1.5 l -1.23,1.59 q -0.9,-0.78 -1.89,-1.23 -0.96,-0.45 -2.1,-0.45 -1.26,0 -2.31,0.42 -1.05,0.39 -1.8,1.14 -0.72,0.75 -1.14,1.8 -0.42,1.02 -0.42,2.28 0,1.26 0.39,2.28 0.42,1.02 1.14,1.77 0.75,0.72 1.77,1.14 1.05,0.39 2.31,0.39 1.35,0 2.46,-0.51 1.14,-0.54 2.04,-1.32 l 1.11,1.59 q -1.23,1.08 -2.7,1.68 -1.47,0.6 -3.09,0.6 z"
         style="font-style:normal;font-variant:normal;font-weight:normal;font-stretch:normal;font-size:30px;font-family:'SauceCodePro Nerd Font';-inkscape-font-specification:'SauceCodePro Nerd Font';fill:#f9f9f9"
         id="path4367"
         inkscape:connector-curvature="0" />
      <path
         d="m 102.8043,879.43086 q -1.65,0 -3.090003,-0.51 -1.41,-0.51 -2.49,-1.5 -1.05,-0.99 -1.68,-2.4 -0.6,-1.44 -0.6,-3.27 0,-1.77 0.6,-3.18 0.63,-1.41 1.65,-2.4 1.05,-0.99 2.37,-1.5 1.350003,-0.54 2.820003,-0.54 1.56,0 2.79,0.51 1.26,0.48 2.1,1.38 0.87,0.9 1.32,2.16 0.45,1.26 0.45,2.79 0,0.42 -0.03,0.81 -0.03,0.39 -0.09,0.69 l -11.490003,0 q 0.24,2.49 1.8,3.75 1.590003,1.23 3.870003,1.23 1.32,0 2.37,-0.36 1.08,-0.39 2.07,-1.02 l 0.9,1.62 q -1.08,0.72 -2.49,1.23 -1.38,0.51 -3.15,0.51 z m -0.36,-13.35 q -0.9,0 -1.74,0.3 -0.810003,0.3 -1.470003,0.87 -0.66,0.54 -1.11,1.38 -0.45,0.84 -0.63,1.92 l 9.300003,0 q -0.15,-2.25 -1.32,-3.36 -1.14,-1.11 -3.03,-1.11 z"
         style="font-style:normal;font-variant:normal;font-weight:normal;font-stretch:normal;font-size:30px;font-family:'SauceCodePro Nerd Font';-inkscape-font-specification:'SauceCodePro Nerd Font';fill:#f9f9f9"
         id="path4369"
         inkscape:connector-curvature="0" />
      <path
         d="m 121.42258,879.43086 q -1.83,0 -3.39,-0.69 -1.56,-0.69 -2.73,-1.98 -1.14,-1.32 -1.8,-3.21 -0.66,-1.92 -0.66,-4.32 0,-2.37 0.66,-4.26 0.66,-1.89 1.83,-3.21 1.17,-1.32 2.79,-2.01 1.62,-0.72 3.54,-0.72 1.77,0 3.12,0.72 1.38,0.72 2.25,1.68 l -1.41,1.59 q -0.78,-0.81 -1.74,-1.29 -0.96,-0.51 -2.22,-0.51 -1.41,0 -2.58,0.57 -1.14,0.54 -1.95,1.59 -0.81,1.02 -1.26,2.49 -0.45,1.47 -0.45,3.3 0,1.86 0.45,3.36 0.45,1.47 1.26,2.52 0.81,1.05 1.95,1.62 1.17,0.57 2.58,0.57 1.35,0 2.4,-0.57 1.08,-0.57 2.04,-1.62 l 1.41,1.53 q -1.17,1.35 -2.64,2.1 -1.47,0.75 -3.45,0.75 z"
         style="font-style:normal;font-variant:normal;font-weight:normal;font-stretch:normal;font-size:30px;font-family:'SauceCodePro Nerd Font';-inkscape-font-specification:'SauceCodePro Nerd Font';fill:#f9f9f9"
         id="path4371"
         inkscape:connector-curvature="0" />
      <path
         d="m 137.88086,879.43086 q -1.44,0 -2.76,-0.51 -1.29,-0.51 -2.28,-1.47 -0.99,-0.99 -1.59,-2.4 -0.57,-1.44 -0.57,-3.24 0,-1.83 0.57,-3.24 0.6,-1.44 1.59,-2.43 0.99,-0.99 2.28,-1.5 1.32,-0.51 2.76,-0.51 1.44,0 2.73,0.51 1.32,0.51 2.31,1.5 0.99,0.99 1.56,2.43 0.6,1.41 0.6,3.24 0,1.8 -0.6,3.24 -0.57,1.41 -1.56,2.4 -0.99,0.96 -2.31,1.47 -1.29,0.51 -2.73,0.51 z m 0,-2.04 q 1.05,0 1.89,-0.39 0.87,-0.42 1.47,-1.14 0.63,-0.75 0.96,-1.77 0.33,-1.02 0.33,-2.28 0,-1.26 -0.33,-2.28 -0.33,-1.05 -0.96,-1.8 -0.6,-0.75 -1.47,-1.14 -0.84,-0.42 -1.89,-0.42 -1.05,0 -1.92,0.42 -0.84,0.39 -1.47,1.14 -0.6,0.75 -0.93,1.8 -0.33,1.02 -0.33,2.28 0,1.26 0.33,2.28 0.33,1.02 0.93,1.77 0.63,0.72 1.47,1.14 0.87,0.39 1.92,0.39 z"
         style="font-style:normal;font-variant:normal;font-weight:normal;font-stretch:normal;font-size:30px;font-family:'SauceCodePro Nerd Font';-inkscape-font-specification:'SauceCodePro Nerd Font';fill:#f9f9f9"
         id="path4373"
         inkscape:connector-curvature="0" />
      <path
         d="m 154.99914,879.43086 q -1.44,0 -2.61,-0.51 -1.14,-0.51 -1.98,-1.47 -0.84,-0.99 -1.29,-2.4 -0.45,-1.41 -0.45,-3.24 0,-1.77 0.54,-3.18 0.57,-1.44 1.47,-2.43 0.93,-0.99 2.13,-1.53 1.2,-0.54 2.49,-0.54 1.32,0 2.34,0.51 1.05,0.48 2.01,1.38 l 0.09,0 -0.12,-2.7 0,-5.61 2.46,0 0,21.36 -2.04,0 -0.21,-1.92 -0.09,0 q -0.9,0.93 -2.16,1.62 -1.23,0.66 -2.58,0.66 z m 0.51,-2.07 q 2.16,0 4.11,-2.19 l 0,-7.26 q -0.99,-0.93 -1.95,-1.32 -0.93,-0.39 -1.89,-0.39 -0.96,0 -1.8,0.42 -0.81,0.39 -1.44,1.14 -0.6,0.72 -0.96,1.74 -0.36,1.02 -0.36,2.28 0,2.64 1.11,4.11 1.14,1.47 3.18,1.47 z"
         style="font-style:normal;font-variant:normal;font-weight:normal;font-stretch:normal;font-size:30px;font-family:'SauceCodePro Nerd Font';-inkscape-font-specification:'SauceCodePro Nerd Font';fill:#f9f9f9"
         id="path4375"
         inkscape:connector-curvature="0" />
      <path
         d="m 174.75742,879.43086 q -1.65,0 -3.09,-0.51 -1.41,-0.51 -2.49,-1.5 -1.05,-0.99 -1.68,-2.4 -0.6,-1.44 -0.6,-3.27 0,-1.77 0.6,-3.18 0.63,-1.41 1.65,-2.4 1.05,-0.99 2.37,-1.5 1.35,-0.54 2.82,-0.54 1.56,0 2.79,0.51 1.26,0.48 2.1,1.38 0.87,0.9 1.32,2.16 0.45,1.26 0.45,2.79 0,0.42 -0.03,0.81 -0.03,0.39 -0.09,0.69 l -11.49,0 q 0.24,2.49 1.8,3.75 1.59,1.23 3.87,1.23 1.32,0 2.37,-0.36 1.08,-0.39 2.07,-1.02 l 0.9,1.62 q -1.08,0.72 -2.49,1.23 -1.38,0.51 -3.15,0.51 z m -0.36,-13.35 q -0.9,0 -1.74,0.3 -0.81,0.3 -1.47,0.87 -0.66,0.54 -1.11,1.38 -0.45,0.84 -0.63,1.92 l 9.3,0 q -0.15,-2.25 -1.32,-3.36 -1.14,-1.11 -3.03,-1.11 z"
         style="font-style:normal;font-variant:normal;font-weight:normal;font-stretch:normal;font-size:30px;font-family:'SauceCodePro Nerd Font';-inkscape-font-specification:'SauceCodePro Nerd Font';fill:#f9f9f9"
         id="path4377"
         inkscape:connector-curvature="0" />
      <path
         d="m 185.9057,879.07086 0,-19.68 5.94,0 q 1.62,0 2.97,0.3 1.35,0.3 2.31,0.99 0.96,0.66 1.47,1.77 0.54,1.11 0.54,2.73 0,1.56 -0.54,2.7 -0.51,1.14 -1.5,1.89 -0.96,0.75 -2.31,1.14 -1.32,0.36 -2.94,0.36 l -3.45,0 0,7.8 -2.49,0 z m 2.49,-9.84 3.15,0 q 2.61,0 3.84,-0.96 1.23,-0.99 1.23,-3.09 0,-2.13 -1.26,-2.94 -1.26,-0.84 -3.81,-0.84 l -3.15,0 0,7.83 z"
         style="font-style:normal;font-variant:normal;font-weight:normal;font-stretch:normal;font-size:30px;font-family:'SauceCodePro Nerd Font';-inkscape-font-specification:'SauceCodePro Nerd Font';fill:#f9f9f9"
         id="path4379"
         inkscape:connector-curvature="0" />
      <path
         d="m 205.21398,879.07086 0,-14.58 2.04,0 0.21,3.45 0.09,0 q 1.14,-1.77 2.79,-2.79 1.68,-1.02 3.72,-1.02 0.81,0 1.5,0.15 0.69,0.12 1.38,0.45 l -0.57,2.13 q -0.78,-0.27 -1.32,-0.39 -0.51,-0.12 -1.38,-0.12 -1.65,0 -3.18,0.96 -1.5,0.93 -2.82,3.21 l 0,8.55 -2.46,0 z"
         style="font-style:normal;font-variant:normal;font-weight:normal;font-stretch:normal;font-size:30px;font-family:'SauceCodePro Nerd Font';-inkscape-font-specification:'SauceCodePro Nerd Font';fill:#f9f9f9"
         id="path4381"
         inkscape:connector-curvature="0" />
      <path
         d="m 227.82227,879.43086 q -1.44,0 -2.76,-0.51 -1.29,-0.51 -2.28,-1.47 -0.99,-0.99 -1.59,-2.4 -0.57,-1.44 -0.57,-3.24 0,-1.83 0.57,-3.24 0.6,-1.44 1.59,-2.43 0.99,-0.99 2.28,-1.5 1.32,-0.51 2.76,-0.51 1.44,0 2.73,0.51 1.32,0.51 2.31,1.5 0.99,0.99 1.56,2.43 0.6,1.41 0.6,3.24 0,1.8 -0.6,3.24 -0.57,1.41 -1.56,2.4 -0.99,0.96 -2.31,1.47 -1.29,0.51 -2.73,0.51 z m 0,-2.04 q 1.05,0 1.89,-0.39 0.87,-0.42 1.47,-1.14 0.63,-0.75 0.96,-1.77 0.33,-1.02 0.33,-2.28 0,-1.26 -0.33,-2.28 -0.33,-1.05 -0.96,-1.8 -0.6,-0.75 -1.47,-1.14 -0.84,-0.42 -1.89,-0.42 -1.05,0 -1.92,0.42 -0.84,0.39 -1.47,1.14 -0.6,0.75 -0.93,1.8 -0.33,1.02 -0.33,2.28 0,1.26 0.33,2.28 0.33,1.02 0.93,1.77 0.63,0.72 1.47,1.14 0.87,0.39 1.92,0.39 z"
         style="font-style:normal;font-variant:normal;font-weight:normal;font-stretch:normal;font-size:30px;font-family:'SauceCodePro Nerd Font';-inkscape-font-specification:'SauceCodePro Nerd Font';fill:#f9f9f9"
         id="path4383"
         inkscape:connector-curvature="0" />
    </g>
    <g
       style="font-style:normal;font-weight:normal;font-size:40px;line-height:125%;font-family:sans-serif;letter-spacing:0px;word-spacing:0px;fill:#f9f9f9;fill-opacity:1;stroke:none;stroke-width:1px;stroke-linecap:butt;stroke-linejoin:miter;stroke-opacity:1"
       id="text4155-3-1-6"
       transform="translate(-38,-30)">
      <path
         d="m 56.653458,955.15872 10.815,0 0.35,-2.52 -14.21,0 0,24.115 3.045,0 0,-10.71 9.45,0 0,-2.45 -9.45,0 0,-8.435 z"
         style="font-style:normal;font-variant:normal;font-weight:normal;font-stretch:normal;font-size:35px;font-family:'Fira Code';-inkscape-font-specification:'Fira Code';fill:#f9f9f9"
         id="path4386"
         inkscape:connector-curvature="0" />
      <path
         d="m 80.264786,949.69872 c -1.26,0 -2.1,0.875 -2.1,2.065 0,1.19 0.84,2.065 2.1,2.065 1.295,0 2.17,-0.875 2.17,-2.065 0,-1.19 -0.875,-2.065 -2.17,-2.065 z m 2.345,8.61 -8.435,0 0,2.345 5.495,0 0,13.755 -5.67,0 0,2.345 13.79,0 0,-2.345 -5.18,0 0,-16.1 z"
         style="font-style:normal;font-variant:normal;font-weight:normal;font-stretch:normal;font-size:35px;font-family:'Fira Code';-inkscape-font-specification:'Fira Code';fill:#f9f9f9"
         id="path4388"
         inkscape:connector-curvature="0" />
      <path
         d="m 106.71111,957.92372 c -3.325,0 -5.215,1.75 -6.615,4.76 l -0.559996,-4.375 -5.11,0 0,2.275 2.905,0 0,13.895 -2.905,0 0,2.275 9.589996,0 0,-2.275 -3.745,0 0,-7.77 c 1.19,-4.06 3.22,-6.09 6.055,-6.09 l 0.175,0 0,3.955 2.38,0 0.42,-6.265 c -0.805,-0.21 -1.575,-0.385 -2.59,-0.385 z"
         style="font-style:normal;font-variant:normal;font-weight:normal;font-stretch:normal;font-size:35px;font-family:'Fira Code';-inkscape-font-specification:'Fira Code';fill:#f9f9f9"
         id="path4390"
         inkscape:connector-curvature="0" />
      <path
         d="m 128.46744,972.72872 0,-8.855 c 0,-3.64 -2.31,-5.95 -6.895,-5.95 -1.82,0 -3.78,0.35 -6.055,1.155 l 0.805,2.24 c 1.89,-0.665 3.57,-0.945 4.795,-0.945 2.73,0 4.375,0.98 4.375,3.675 l 0,1.505 -2.73,0 c -5.565,0 -8.61,2.135 -8.61,5.915 0,3.43 2.24,5.67 5.95,5.67 2.38,0 4.445,-0.875 5.775,-2.59 0.49,1.68 1.785,2.415 3.36,2.625 l 0.735,-2.1 c -1.05,-0.315 -1.505,-0.875 -1.505,-2.345 z m -7.63,2.205 c -2.415,0 -3.535,-1.19 -3.535,-3.5 0,-2.38 1.47,-3.85 5.53,-3.85 l 2.66,0 0,4.725 c -1.085,1.645 -2.835,2.625 -4.655,2.625 z"
         style="font-style:normal;font-variant:normal;font-weight:normal;font-stretch:normal;font-size:35px;font-family:'Fira Code';-inkscape-font-specification:'Fira Code';fill:#f9f9f9"
         id="path4392"
         inkscape:connector-curvature="0" />
      <path
         d="m 166.2401,952.25372 c -5.565,0 -10.325,4.305 -10.325,12.425 0,8.12 4.585,12.46 10.465,12.46 3.43,0 5.74,-1.19 7.21,-2.625 l -1.575,-1.96 c -1.295,1.015 -2.905,1.995 -5.6,1.995 -4.13,0 -7.315,-2.695 -7.315,-9.87 0,-7.35 3.43,-9.87 7.35,-9.87 1.855,0 3.535,0.49 5.075,1.785 l 1.715,-1.995 c -1.925,-1.505 -3.85,-2.345 -7,-2.345 z"
         style="font-style:normal;font-variant:normal;font-weight:normal;font-stretch:normal;font-size:35px;font-family:'Fira Code';-inkscape-font-specification:'Fira Code';fill:#f9f9f9"
         id="path4394"
         inkscape:connector-curvature="0" />
      <path
         d="m 185.23143,957.92372 c -5.18,0 -7.98,3.955 -7.98,9.625 0,5.81 2.765,9.59 7.945,9.59 5.145,0 7.945,-3.955 7.945,-9.625 0,-5.81 -2.73,-9.59 -7.91,-9.59 z m 0,2.415 c 3.15,0 4.725,2.31 4.725,7.175 0,4.935 -1.575,7.21 -4.76,7.21 -3.185,0 -4.76,-2.275 -4.76,-7.175 0,-4.9 1.61,-7.21 4.795,-7.21 z"
         style="font-style:normal;font-variant:normal;font-weight:normal;font-stretch:normal;font-size:35px;font-family:'Fira Code';-inkscape-font-specification:'Fira Code';fill:#f9f9f9"
         id="path4396"
         inkscape:connector-curvature="0" />
      <path
         d="m 210.24275,950.53872 0,9.59 c -1.26,-1.435 -2.835,-2.205 -4.97,-2.205 -4.515,0 -7.21,4.095 -7.21,9.625 0,5.74 2.205,9.59 7.035,9.59 1.995,0 3.85,-0.875 5.215,-2.8 l 0.28,2.415 2.59,0 0,-25.865 -2.94,-0.35 z m -4.2,9.765 c 1.715,0 3.185,0.875 4.2,2.38 l 0,9.17 c -1.015,1.54 -2.45,2.94 -4.55,2.94 -2.905,0 -4.445,-2.45 -4.445,-7.245 0,-4.865 1.75,-7.245 4.795,-7.245 z"
         style="font-style:normal;font-variant:normal;font-weight:normal;font-stretch:normal;font-size:35px;font-family:'Fira Code';-inkscape-font-specification:'Fira Code';fill:#f9f9f9"
         id="path4398"
         inkscape:connector-curvature="0" />
      <path
         d="m 222.51408,968.56372 12.39,0 c 0.035,-0.385 0.07,-0.945 0.07,-1.575 0,-5.6 -2.87,-9.065 -7.525,-9.065 -4.9,0 -8.015,4.06 -8.015,9.625 0,5.74 3.045,9.59 8.435,9.59 2.275,0 4.585,-0.805 6.3,-2.135 l -1.365,-1.96 c -1.645,1.085 -3.045,1.645 -4.935,1.645 -2.835,0 -5.215,-1.855 -5.355,-6.125 z m 4.97,-8.225 c 2.8,0 4.55,2.03 4.62,5.985 l -9.59,0 c 0.245,-4.06 2.24,-5.985 4.97,-5.985 z"
         style="font-style:normal;font-variant:normal;font-weight:normal;font-stretch:normal;font-size:35px;font-family:'Fira Code';-inkscape-font-specification:'Fira Code';fill:#f9f9f9"
         id="path4400"
         inkscape:connector-curvature="0" />
    </g>
    <g
       style="font-style:normal;font-weight:normal;font-size:40px;line-height:125%;font-family:sans-serif;letter-spacing:0px;word-spacing:0px;fill:#f9f9f9;fill-opacity:1;stroke:none;stroke-width:1px;stroke-linecap:butt;stroke-linejoin:miter;stroke-opacity:1"
       id="text4155-3-1-6-0"
       transform="translate(20,-28)">
      <path
         d="m 8.6853638,890.83569 3.9550782,0 3.779297,11.10352 3.808594,-11.10352 3.969726,0 0,21.79688 -2.739258,0 0,-19.2627 -3.896484,11.48438 -2.241211,0 -3.911133,-11.48438 0,19.2627 -2.7246092,0 0,-21.79688 z"
         style="font-style:normal;font-variant:normal;font-weight:normal;font-stretch:normal;font-size:30px;font-family:'MesloLGM Nerd Font Mono';-inkscape-font-specification:'MesloLGM Nerd Font Mono';fill:#f9f9f9"
         id="path4403"
         inkscape:connector-curvature="0" />
      <path
         d="m 42.611145,903.08179 0,1.31836 -11.674805,0 0,0.0879 q -0.117187,3.35449 1.274414,4.81933 1.40625,1.46485 3.955079,1.46485 1.289062,0 2.695312,-0.41016 1.40625,-0.41016 3.00293,-1.24512 l 0,2.68067 q -1.538086,0.62988 -2.973633,0.9375 -1.420899,0.32226 -2.753906,0.32226 -3.823243,0 -5.976563,-2.28515 -2.15332,-2.29981 -2.15332,-6.32813 0,-3.92578 2.109375,-6.26953 2.109375,-2.34375 5.625,-2.34375 3.134765,0 4.936523,2.12402 1.816407,2.12403 1.933594,5.12696 z m -2.695312,-0.79102 q -0.175782,-1.69922 -1.245118,-2.92969 -1.054687,-1.24511 -3.046875,-1.24511 -1.948242,0 -3.208007,1.28906 -1.259766,1.28906 -1.376954,2.90039 l 8.876954,-0.0147 z"
         style="font-style:normal;font-variant:normal;font-weight:normal;font-stretch:normal;font-size:30px;font-family:'MesloLGM Nerd Font Mono';-inkscape-font-specification:'MesloLGM Nerd Font Mono';fill:#f9f9f9"
         id="path4405"
         inkscape:connector-curvature="0" />
      <path
         d="m 58.5047,896.79761 0,2.63672 q -1.157227,-0.67383 -2.329102,-1.01075 -1.171875,-0.33691 -2.387695,-0.33691 -1.831055,0 -2.739258,0.60059 -0.893555,0.58593 -0.893555,1.80175 0,1.09864 0.673828,1.64063 0.673829,0.54199 3.354493,1.05469 l 1.083984,0.20507 q 2.006836,0.38086 3.032227,1.52344 1.040039,1.14258 1.040039,2.97363 0,2.43165 -1.728516,3.8086 -1.728516,1.3623 -4.804687,1.3623 -1.215821,0 -2.548829,-0.26367 -1.333007,-0.24902 -2.885742,-0.76172 l 0,-2.7832 q 1.508789,0.77637 2.885742,1.17187 1.376954,0.38086 2.607422,0.38086 1.78711,0 2.768555,-0.71777 0.981445,-0.73242 0.981445,-2.03613 0,-1.875 -3.588867,-2.59278 l -0.117187,-0.0293 -1.010743,-0.20508 q -2.329101,-0.4541 -3.398437,-1.52344 -1.069336,-1.08398 -1.069336,-2.94433 0,-2.3584 1.59668,-3.63282 1.596679,-1.28906 4.555664,-1.28906 1.318359,0 2.534179,0.24902 1.215821,0.23438 2.387696,0.71778 z"
         style="font-style:normal;font-variant:normal;font-weight:normal;font-stretch:normal;font-size:30px;font-family:'MesloLGM Nerd Font Mono';-inkscape-font-specification:'MesloLGM Nerd Font Mono';fill:#f9f9f9"
         id="path4407"
         inkscape:connector-curvature="0" />
      <path
         d="m 72.830872,906.69995 q 0,1.81641 0.659179,2.73926 0.673828,0.92285 1.977539,0.92285 l 3.149414,0 0,2.27051 -3.413086,0 q -2.416992,0 -3.75,-1.53809 -1.318359,-1.55273 -1.318359,-4.39453 l 0,-14.83887 -4.321289,0 0,-2.10937 7.016602,0 0,16.94824 z"
         style="font-style:normal;font-variant:normal;font-weight:normal;font-stretch:normal;font-size:30px;font-family:'MesloLGM Nerd Font Mono';-inkscape-font-specification:'MesloLGM Nerd Font Mono';fill:#f9f9f9"
         id="path4409"
         inkscape:connector-curvature="0" />
      <path
         d="m 89.368958,898.11597 q -2.050782,0 -3.105469,1.59668 -1.054688,1.59668 -1.054688,4.73144 0,3.12012 1.054688,4.73145 1.054687,1.59668 3.105469,1.59668 2.065429,0 3.120117,-1.59668 1.054687,-1.61133 1.054687,-4.73145 0,-3.13476 -1.054687,-4.73144 -1.054688,-1.59668 -3.120117,-1.59668 z m -5.214844,-0.0732 q 1.801758,-2.21191 5.214844,-2.21191 3.413085,0 5.214843,2.21191 1.816407,2.21192 1.816407,6.40137 0,4.2041 -1.801758,6.41602 -1.801758,2.19726 -5.229492,2.19726 -3.413086,0 -5.214844,-2.19726 -1.801758,-2.21192 -1.801758,-6.41602 0,-4.18945 1.801758,-6.40137 z"
         style="font-style:normal;font-variant:normal;font-weight:normal;font-stretch:normal;font-size:30px;font-family:'MesloLGM Nerd Font Mono';-inkscape-font-specification:'MesloLGM Nerd Font Mono';fill:#f9f9f9"
         id="path4411"
         inkscape:connector-curvature="0" />
    </g>
    <g
       style="font-style:normal;font-weight:normal;font-size:40px;line-height:125%;font-family:sans-serif;letter-spacing:0px;word-spacing:0px;fill:#f9f9f9;fill-opacity:1;stroke:none;stroke-width:1px;stroke-linecap:butt;stroke-linejoin:miter;stroke-opacity:1"
       id="text4155-3-1-6-0-7"
       transform="translate(2,-4)">
      <path
         d="m 67.264526,1041.7728 -2.5,0 0,-27.5 2.5,0 6.152344,12.2657 0.214844,0 6.132812,-12.2657 2.5,0 0,27.5 -2.5,0 0,-22.4609 -0.195312,0 -4.980469,9.9609 -2.148437,0 -4.980469,-9.9609 -0.195313,0 0,22.4609 z"
         style="font-style:normal;font-variant:normal;font-weight:normal;font-stretch:semi-condensed;font-size:30px;font-family:Monoid;-inkscape-font-specification:'Monoid Semi-Condensed';fill:#f9f9f9"
         id="path4414"
         inkscape:connector-curvature="0" />
      <path
         d="m 90.233276,1022.3002 q 1.445313,-0.8399 3.261719,-0.8399 1.816406,0 3.242188,0.8399 1.445312,0.8203 2.363281,2.2851 0.761719,1.25 1.015626,2.9688 0.25391,1.6992 0.25391,4.2187 0,2.5196 -0.25391,4.2383 -0.253907,1.6992 -1.015626,2.9492 -0.917969,1.4649 -2.363281,2.3047 -1.425782,0.8203 -3.242188,0.8203 -1.816406,0 -3.261719,-0.8203 -1.425781,-0.8398 -2.34375,-2.3047 -0.761718,-1.25 -1.015625,-2.9492 -0.253906,-1.7187 -0.253906,-4.2383 0,-2.5195 0.253906,-4.2187 0.253907,-1.7188 1.015625,-2.9688 0.917969,-1.4648 2.34375,-2.2851 z m 6.699219,3.4179 q -1.132812,-1.914 -3.4375,-1.914 -2.304687,0 -3.4375,1.914 -0.429687,0.7227 -0.644531,1.8164 -0.214844,1.0743 -0.253906,1.9336 -0.03906,0.8594 -0.03906,2.3047 0,1.4453 0.03906,2.3047 0.03906,0.8594 0.253906,1.9531 0.214844,1.0743 0.644531,1.7969 1.132813,1.9141 3.4375,1.9141 2.304688,0 3.4375,-1.9141 0.429688,-0.7226 0.644531,-1.7969 0.214844,-1.0937 0.253907,-1.9531 0.03906,-0.8594 0.03906,-2.3047 0,-1.4453 -0.03906,-2.3047 -0.03906,-0.8593 -0.253907,-1.9336 -0.214843,-1.0937 -0.644531,-1.8164 z"
         style="font-style:normal;font-variant:normal;font-weight:normal;font-stretch:semi-condensed;font-size:30px;font-family:Monoid;-inkscape-font-specification:'Monoid Semi-Condensed';fill:#f9f9f9"
         id="path4416"
         inkscape:connector-curvature="0" />
      <path
         d="m 113.86609,1021.4603 q 1.40625,0 2.57812,0.5664 1.17188,0.5664 1.9336,1.5235 0.48828,0.6054 0.78125,1.25 0.29297,0.6445 0.39062,1.4258 0.11719,0.7812 0.13672,1.289 0.0391,0.5078 0.0391,1.4258 l 0,12.832 -2.5,0 0,-12.832 q 0,-1.0742 -0.0391,-1.6016 -0.0195,-0.5273 -0.23437,-1.1718 -0.19532,-0.6641 -0.60547,-1.1524 -1.05469,-1.2109 -2.8711,-1.2109 -1.8164,0 -2.87109,1.2109 -0.41016,0.4883 -0.625,1.1524 -0.19531,0.6445 -0.23437,1.1718 -0.0195,0.5274 -0.0195,1.6016 l 0,12.832 -2.5,0 0,-20 2.5,0 0,2.1875 0.19532,0 q 0.72265,-1.1328 1.77734,-1.8164 1.07422,-0.6836 2.16797,-0.6836 z"
         style="font-style:normal;font-variant:normal;font-weight:normal;font-stretch:semi-condensed;font-size:30px;font-family:Monoid;-inkscape-font-specification:'Monoid Semi-Condensed';fill:#f9f9f9"
         id="path4418"
         inkscape:connector-curvature="0" />
      <path
         d="m 130.19421,1022.3002 q 1.44532,-0.8399 3.26172,-0.8399 1.81641,0 3.24219,0.8399 1.44531,0.8203 2.36328,2.2851 0.76172,1.25 1.01563,2.9688 0.2539,1.6992 0.2539,4.2187 0,2.5196 -0.2539,4.2383 -0.25391,1.6992 -1.01563,2.9492 -0.91797,1.4649 -2.36328,2.3047 -1.42578,0.8203 -3.24219,0.8203 -1.8164,0 -3.26172,-0.8203 -1.42578,-0.8398 -2.34375,-2.3047 -0.76171,-1.25 -1.01562,-2.9492 -0.25391,-1.7187 -0.25391,-4.2383 0,-2.5195 0.25391,-4.2187 0.25391,-1.7188 1.01562,-2.9688 0.91797,-1.4648 2.34375,-2.2851 z m 6.69922,3.4179 q -1.13281,-1.914 -3.4375,-1.914 -2.30468,0 -3.4375,1.914 -0.42968,0.7227 -0.64453,1.8164 -0.21484,1.0743 -0.2539,1.9336 -0.0391,0.8594 -0.0391,2.3047 0,1.4453 0.0391,2.3047 0.0391,0.8594 0.2539,1.9531 0.21485,1.0743 0.64453,1.7969 1.13282,1.9141 3.4375,1.9141 2.30469,0 3.4375,-1.9141 0.42969,-0.7226 0.64453,-1.7969 0.21485,-1.0937 0.25391,-1.9531 0.0391,-0.8594 0.0391,-2.3047 0,-1.4453 -0.0391,-2.3047 -0.0391,-0.8593 -0.25391,-1.9336 -0.21484,-1.0937 -0.64453,-1.8164 z"
         style="font-style:normal;font-variant:normal;font-weight:normal;font-stretch:semi-condensed;font-size:30px;font-family:Monoid;-inkscape-font-specification:'Monoid Semi-Condensed';fill:#f9f9f9"
         id="path4420"
         inkscape:connector-curvature="0" />
      <path
         d="m 151.22937,1014.5658 q 0.60547,-0.6055 1.58203,-0.6055 0.97656,0 1.58203,0.6055 0.60547,0.6055 0.60547,1.582 0,0.9766 -0.60547,1.5821 -0.60547,0.6054 -1.58203,0.6054 -0.97656,0 -1.58203,-0.6054 -0.60547,-0.6055 -0.60547,-1.5821 0,-0.9765 0.60547,-1.582 z m 0.95703,27.207 0,-17.6562 -5,0 0,-2.3438 7.5,0 0,20 -2.5,0 z"
         style="font-style:normal;font-variant:normal;font-weight:normal;font-stretch:semi-condensed;font-size:30px;font-family:Monoid;-inkscape-font-specification:'Monoid Semi-Condensed';fill:#f9f9f9"
         id="path4422"
         inkscape:connector-curvature="0" />
      <path
         d="m 172.71375,1021.4603 q 1.30859,0 2.4414,0.6836 1.13281,0.6641 1.81641,2.0703 l 0.19531,0 0,-9.9414 2.5,0 0,27.5 -2.5,0 0,-2.4414 -0.19531,0 q -0.6836,1.4063 -1.81641,2.0899 -1.13281,0.664 -2.4414,0.664 -1.9336,0 -3.4375,-1.2109 -1.50391,-1.2305 -2.1875,-3.418 -0.25391,-0.8203 -0.39063,-1.8359 -0.11719,-1.0156 -0.13672,-1.7188 -0.0195,-0.7226 -0.0195,-2.1289 0,-1.4062 0.0195,-2.1093 0.0195,-0.7227 0.13672,-1.7383 0.13672,-1.0157 0.39063,-1.836 0.68359,-2.1875 2.1875,-3.3984 1.5039,-1.2305 3.4375,-1.2305 z m 2.59765,3.2032 q -0.89844,-0.8594 -2.20703,-0.8594 -1.30859,0 -2.22656,0.8594 -0.89844,0.8398 -1.32813,2.1093 -0.50781,1.543 -0.50781,5 0,3.4571 0.50781,5 0.42969,1.2696 1.32813,2.1289 0.91797,0.8399 2.22656,0.8399 1.30859,0 2.20703,-0.8399 0.91797,-0.8593 1.34766,-2.1289 0.50781,-1.5429 0.50781,-5 0,-3.457 -0.50781,-5 -0.42969,-1.2695 -1.34766,-2.1093 z"
         style="font-style:normal;font-variant:normal;font-weight:normal;font-stretch:semi-condensed;font-size:30px;font-family:Monoid;-inkscape-font-specification:'Monoid Semi-Condensed';fill:#f9f9f9"
         id="path4424"
         inkscape:connector-curvature="0" />
    </g>
    <g
       style="font-style:normal;font-weight:normal;font-size:40px;line-height:125%;font-family:sans-serif;letter-spacing:0px;word-spacing:0px;fill:#f9f9f9;fill-opacity:1;stroke:none;stroke-width:1px;stroke-linecap:butt;stroke-linejoin:miter;stroke-opacity:1"
       id="text4155-3-1-6-0-7-5"
       transform="translate(-24,-28)">
      <path
         d="m 165.04805,913.367 2.73,0 0,-13.475 c 0,-2.625 -0.245,-5.46 -0.385,-8.05 l 0.14,0 1.785,5.635 5.565,15.89 3.325,0 0,-25.725 -2.73,0 0,13.475 c 0,2.625 0.245,5.53 0.385,8.05 l -0.14,0 -1.715,-5.565 -5.635,-15.96 -3.325,0 0,25.725 z"
         style="font-style:normal;font-variant:normal;font-weight:normal;font-stretch:normal;font-size:35px;font-family:'Noto Sans Mono CJK JP';-inkscape-font-specification:'Noto Sans Mono CJK JP';fill:#f9f9f9"
         id="path4427"
         inkscape:connector-curvature="0" />
      <path
         d="m 189.12805,913.787 c 3.885,0 7.21,-3.255 7.21,-9.905 0,-6.72 -3.325,-9.975 -7.21,-9.975 -3.885,0 -7.21,3.255 -7.21,9.975 0,6.65 3.325,9.905 7.21,9.905 z m 0,-2.66 c -2.31,0 -3.92,-2.52 -3.92,-7.245 0,-4.76 1.61,-7.35 3.92,-7.35 2.275,0 3.92,2.59 3.92,7.35 0,4.725 -1.645,7.245 -3.92,7.245 z"
         style="font-style:normal;font-variant:normal;font-weight:normal;font-stretch:normal;font-size:35px;font-family:'Noto Sans Mono CJK JP';-inkscape-font-specification:'Noto Sans Mono CJK JP';fill:#f9f9f9"
         id="path4429"
         inkscape:connector-curvature="0" />
      <path
         d="m 209.42805,913.787 c 1.435,0 3.045,-0.35 4.41,-0.945 l -0.665,-2.345 c -0.98,0.49 -1.96,0.735 -3.01,0.735 -2.59,0 -3.5,-1.575 -3.5,-4.305 l 0,-10.01 6.65,0 0,-2.59 -6.65,0 0,-5.355 -2.66,0 -0.385,5.355 -4.06,0.175 0,2.415 3.92,0 0,9.94 c 0,4.165 1.47,6.93 5.95,6.93 z"
         style="font-style:normal;font-variant:normal;font-weight:normal;font-stretch:normal;font-size:35px;font-family:'Noto Sans Mono CJK JP';-inkscape-font-specification:'Noto Sans Mono CJK JP';fill:#f9f9f9"
         id="path4431"
         inkscape:connector-curvature="0" />
      <path
         d="m 224.12805,913.787 c 3.885,0 7.21,-3.255 7.21,-9.905 0,-6.72 -3.325,-9.975 -7.21,-9.975 -3.885,0 -7.21,3.255 -7.21,9.975 0,6.65 3.325,9.905 7.21,9.905 z m 0,-2.66 c -2.31,0 -3.92,-2.52 -3.92,-7.245 0,-4.76 1.61,-7.35 3.92,-7.35 2.275,0 3.92,2.59 3.92,7.35 0,4.725 -1.645,7.245 -3.92,7.245 z"
         style="font-style:normal;font-variant:normal;font-weight:normal;font-stretch:normal;font-size:35px;font-family:'Noto Sans Mono CJK JP';-inkscape-font-specification:'Noto Sans Mono CJK JP';fill:#f9f9f9"
         id="path4433"
         inkscape:connector-curvature="0" />
    </g>
    <g
       style="font-style:normal;font-weight:normal;font-size:40px;line-height:125%;font-family:sans-serif;letter-spacing:0px;word-spacing:0px;fill:#f9f9f9;fill-opacity:1;stroke:none;stroke-width:1px;stroke-linecap:butt;stroke-linejoin:miter;stroke-opacity:1"
       id="text4155-3-1-6-0-7-4"
       transform="translate(8,-4)">
      <path
         d="m 15.959042,983.58405 3.452148,0 0,25.51515 -3.452148,0 0,-25.51515 z"
         style="font-style:normal;font-variant:normal;font-weight:normal;font-stretch:normal;font-size:35px;font-family:KacstQurn;-inkscape-font-specification:KacstQurn;fill:#f9f9f9"
         id="path4436"
         inkscape:connector-curvature="0" />
      <path
         d="m 33.561581,992.16315 q -2.529297,0 -3.999024,1.98242 -1.469726,1.96533 -1.469726,5.40039 0,3.43504 1.452636,5.41744 1.469727,1.9654 4.016114,1.9654 2.512207,0 3.981933,-1.9824 1.469727,-1.9825 1.469727,-5.40044 0,-3.40088 -1.469727,-5.3833 -1.469726,-1.99951 -3.981933,-1.99951 z m 0,-2.66602 q 4.101562,0 6.442871,2.66602 2.341308,2.66601 2.341308,7.38281 0,4.69974 -2.341308,7.38284 -2.341309,2.666 -6.442871,2.666 -4.118653,0 -6.459961,-2.666 -2.324219,-2.6831 -2.324219,-7.38284 0,-4.7168 2.324219,-7.38281 2.341308,-2.66602 6.459961,-2.66602 z"
         style="font-style:normal;font-variant:normal;font-weight:normal;font-stretch:normal;font-size:35px;font-family:KacstQurn;-inkscape-font-specification:KacstQurn;fill:#f9f9f9"
         id="path4438"
         inkscape:connector-curvature="0" />
      <path
         d="m 59.743221,990.52252 0,2.97363 q -1.333008,-0.68359 -2.768554,-1.02539 -1.435547,-0.34179 -2.973633,-0.34179 -2.341309,0 -3.520508,0.71777 -1.162109,0.71777 -1.162109,2.15332 0,1.09375 0.837402,1.72608 0.837402,0.61523 3.366699,1.17919 l 1.07666,0.23926 q 3.34961,0.71778 4.750977,2.03371 1.418457,1.2988 1.418457,3.6401 0,2.666 -2.119141,4.2212 -2.10205,1.5552 -5.793457,1.5552 -1.538086,0 -3.21289,-0.3076 -1.657715,-0.2906 -3.503418,-0.8887 l 0,-3.2471 q 1.743164,0.9058 3.435058,1.3672 1.691895,0.4444 3.34961,0.4444 2.221679,0 3.417968,-0.752 1.196289,-0.769 1.196289,-2.1533 0,-1.2818 -0.871582,-1.9654 -0.854492,-0.6835 -3.776855,-1.3159 l -1.09375,-0.2563 q -2.922363,-0.61525 -4.221191,-1.8799 -1.298829,-1.28174 -1.298829,-3.50342 0,-2.7002 1.914063,-4.16992 1.914062,-1.46973 5.43457,-1.46973 1.743164,0 3.28125,0.25635 1.538086,0.25635 2.836914,0.76904 z"
         style="font-style:normal;font-variant:normal;font-weight:normal;font-stretch:normal;font-size:35px;font-family:KacstQurn;-inkscape-font-specification:KacstQurn;fill:#f9f9f9"
         id="path4440"
         inkscape:connector-curvature="0" />
      <path
         d="m 82.165096,998.74274 0,1.53806 -14.458008,0 q 0.205079,3.2471 1.948243,4.9561 1.760254,1.6919 4.887695,1.6919 1.811523,0 3.503418,-0.4444 1.708984,-0.4443 3.383789,-1.333 l 0,2.9737 q -1.691895,0.7177 -3.469238,1.0937 -1.777344,0.376 -3.605957,0.376 -4.580078,0 -7.263184,-2.666 -2.666016,-2.666 -2.666016,-7.21194 0,-4.69971 2.529297,-7.45117 2.546387,-2.76856 6.853028,-2.76856 3.862304,0 6.101074,2.49512 2.255859,2.47803 2.255859,6.75049 z m -3.144531,-0.92285 q -0.03418,-2.58057 -1.452637,-4.11866 -1.401367,-1.53808 -3.725586,-1.53808 -2.631836,0 -4.221191,1.48681 -1.572266,1.48682 -1.811523,4.18702 l 11.210937,-0.0171 z"
         style="font-style:normal;font-variant:normal;font-weight:normal;font-stretch:normal;font-size:35px;font-family:KacstQurn;-inkscape-font-specification:KacstQurn;fill:#f9f9f9"
         id="path4442"
         inkscape:connector-curvature="0" />
      <path
         d="m 85.07037,989.95856 3.332519,0 5.981446,16.06444 5.981445,-16.06444 3.33252,0 -7.177735,19.14064 -4.272461,0 -7.177734,-19.14064 z"
         style="font-style:normal;font-variant:normal;font-weight:normal;font-stretch:normal;font-size:35px;font-family:KacstQurn;-inkscape-font-specification:KacstQurn;fill:#f9f9f9"
         id="path4444"
         inkscape:connector-curvature="0" />
      <path
         d="m 107.91949,982.50739 3.16162,0 0,15.70556 9.38233,-8.25439 4.01611,0 -10.15137,8.95508 10.57862,10.18556 -4.10157,0 -9.72412,-9.34816 0,9.34816 -3.16162,0 0,-26.59181 z"
         style="font-style:normal;font-variant:normal;font-weight:normal;font-stretch:normal;font-size:35px;font-family:KacstQurn;-inkscape-font-specification:KacstQurn;fill:#f9f9f9"
         id="path4446"
         inkscape:connector-curvature="0" />
      <path
         d="m 136.42535,999.4776 q -3.81103,0 -5.28076,0.8716 -1.46973,0.8716 -1.46973,2.9736 0,1.6748 1.09375,2.666 1.11084,0.9742 3.00781,0.9742 2.61475,0 4.18702,-1.8458 1.58935,-1.8627 1.58935,-4.9389 l 0,-0.7007 -3.12744,0 z m 6.27197,-1.29883 0,10.92043 -3.14453,0 0,-2.9053 q -1.07666,1.7432 -2.6831,2.5806 -1.60645,0.8203 -3.93067,0.8203 -2.93945,0 -4.68262,-1.6406 -1.72607,-1.6578 -1.72607,-4.4263 0,-3.23 2.15332,-4.87061 2.17041,-1.64063 6.45996,-1.64063 l 4.40918,0 0,-0.30761 q 0,-2.17041 -1.43555,-3.34961 -1.41845,-1.19629 -3.99902,-1.19629 -1.64062,0 -3.1958,0.39306 -1.55518,0.39307 -2.99072,1.1792 l 0,-2.90527 q 1.72607,-0.6665 3.34961,-0.99121 1.62353,-0.3418 3.16162,-0.3418 4.15283,0 6.20361,2.15332 2.05078,2.15332 2.05078,6.52832 z"
         style="font-style:normal;font-variant:normal;font-weight:normal;font-stretch:normal;font-size:35px;font-family:KacstQurn;-inkscape-font-specification:KacstQurn;fill:#f9f9f9"
         id="path4448"
         inkscape:connector-curvature="0" />
    </g>
  </g>
</svg>
