<svg xmlns="http://www.w3.org/2000/svg" width="240" height="234"><g letter-spacing="0" word-spacing="0" fill="#f9f9f9"><g style="line-height:125%" font-weight="400" font-size="35" font-family="sans-serif"><path d="M77.282 7.104h3.452v10.459h12.544V7.103h3.452V32.62h-3.452v-12.15H80.734v12.15h-3.452V7.104zM112.162 22.997q-3.81 0-5.28.872-1.47.872-1.47 2.974 0 1.674 1.094 2.666 1.11.974 3.008.974 2.614 0 4.187-1.846 1.589-1.863 1.589-4.939v-.7h-3.128zm6.272-1.298v10.92h-3.144v-2.905q-1.077 1.743-2.683 2.58-1.607.82-3.93.82-2.94 0-4.684-1.64-1.726-1.658-1.726-4.426 0-3.23 2.154-4.87 2.17-1.642 6.46-1.642h4.409v-.307q0-2.17-1.436-3.35-1.418-1.196-3.999-1.196-1.64 0-3.196.393-1.555.393-2.99 1.18V14.35q1.726-.667 3.35-.991 1.623-.342 3.161-.342 4.153 0 6.204 2.153 2.05 2.154 2.05 6.529zM138.703 14.213v2.94q-1.333-.735-2.683-1.094-1.333-.376-2.7-.376-3.06 0-4.751 1.948-1.692 1.931-1.692 5.435 0 3.503 1.692 5.451 1.692 1.932 4.75 1.932 1.368 0 2.7-.36 1.35-.375 2.684-1.11v2.905q-1.316.615-2.734.923-1.402.308-2.991.308-4.324 0-6.87-2.718-2.547-2.717-2.547-7.331 0-4.683 2.564-7.366 2.58-2.683 7.058-2.683 1.453 0 2.837.308 1.384.29 2.683.888zM144.086 6.027h3.162v15.706l9.382-8.255h4.016l-10.151 8.955 10.579 10.186h-4.102l-9.724-9.348v9.348h-3.162V6.027z"/></g><g style="line-height:125%" font-weight="500" font-size="35" font-family="TerminessTTF Nerd Font"><path d="M90.232 138.175v-2.205h13.16v2.205h-5.495v19.705h-2.17v-19.705h-5.495zM107.732 145.175l2.66-2.625h7.84l2.66 2.625v6.125h-11.06l.77 3.815 10.29-.105-.77 2.31-9.205.665-3.185-2.52v-10.29zm11.06 3.955l-.665-3.85-6.65-.665-1.54 1.54v2.975h8.855zM125.232 157.88v-15.33h2.205v2.625l2.625-2.625h8.33v2.17h-6.895l-4.06 3.64v9.52h-2.205zM142.732 157.88v-15.33h10.5l2.66 2.625v12.705h-2.1l-.665-12.39-2.73-.98v13.37h-2.17v-13.16h-3.29v13.16h-2.205zM163.522 144.72v-2.17h4.375v13.125h2.205v2.205h-6.58v-2.205h2.205V144.72h-2.205zm2.205-4.34v-4.41h2.17v4.41h-2.17zM177.732 157.88v-15.33h10.5l2.66 2.625v12.705h-2.1l-.665-12.6-8.19-.665v13.265h-2.205zM195.232 155.22v-12.67h2.1l.665 12.565 8.19.665v-13.23h2.205v15.33h-10.5l-2.66-2.66zM212.732 145.175l2.66-2.625h8.085l2.52 3.08-10.5-.35v3.29l8.505 1.085 2.415 3.815-2.415 3.85-8.75.665-2.625-3.185 10.5.315v-3.255l-7.63-.77-2.765-2.205v-3.71z" style="-inkscape-font-specification:'TerminessTTF Nerd Font Medium'"/></g><g style="line-height:125%" font-weight="400" font-size="30" font-family="SauceCodePro Nerd Font"><path d="M12.113 97.069q-2.16 0-3.99-.78-1.8-.78-3.15-2.13l1.5-1.74q1.11 1.11 2.58 1.8 1.47.66 3.18.66 2.04 0 3.15-.87 1.14-.87 1.14-2.25 0-.78-.27-1.32t-.75-.93q-.48-.39-1.14-.69-.63-.3-1.38-.63l-2.82-1.23q-.75-.3-1.5-.72t-1.38-1.02q-.6-.6-.99-1.41-.39-.84-.39-1.92 0-1.11.48-2.07.48-.96 1.32-1.65.87-.72 2.04-1.11 1.2-.39 2.61-.39 1.86 0 3.42.69 1.56.66 2.64 1.74l-1.32 1.62q-.96-.87-2.13-1.35-1.17-.51-2.7-.51-1.71 0-2.76.78-1.05.75-1.05 2.1 0 .72.3 1.23.33.48.81.87.51.36 1.14.63l1.26.54 2.76 1.2q.9.36 1.68.84.81.45 1.38 1.08.6.6.93 1.44.36.81.36 1.89 0 1.17-.48 2.19t-1.38 1.8q-.9.75-2.19 1.2-1.29.42-2.91.42zM29.951 97.069q-1.44 0-2.76-.51-1.29-.51-2.28-1.47-.99-.99-1.59-2.4-.57-1.44-.57-3.24 0-1.83.57-3.24.6-1.44 1.59-2.43.99-.99 2.28-1.5 1.32-.51 2.76-.51 1.44 0 2.73.51 1.32.51 2.31 1.5t1.56 2.43q.6 1.41.6 3.24 0 1.8-.6 3.24-.57 1.41-1.56 2.4-.99.96-2.31 1.47-1.29.51-2.73.51zm0-2.04q1.05 0 1.89-.39.87-.42 1.47-1.14.63-.75.96-1.77.33-1.02.33-2.28 0-1.26-.33-2.28-.33-1.05-.96-1.8-.6-.75-1.47-1.14-.84-.42-1.89-.42-1.05 0-1.92.42-.84.39-1.47 1.14-.6.75-.93 1.8-.33 1.02-.33 2.28 0 1.26.33 2.28.33 1.02.93 1.77.63.72 1.47 1.14.87.39 1.92.39zM46.32 97.069q-2.64 0-3.87-1.47-1.2-1.5-1.2-4.41v-9.06h2.49v8.73q0 2.07.75 3.09.78.99 2.61.99 1.26 0 2.28-.63 1.02-.66 2.25-2.07v-10.11h2.46v14.58h-2.01l-.21-2.55h-.12q-1.11 1.29-2.43 2.1-1.29.81-3 .81zM61.308 96.709v-14.58h2.04l.21 3.45h.09q1.14-1.77 2.79-2.79 1.68-1.02 3.72-1.02.81 0 1.5.15.69.12 1.38.45l-.57 2.13q-.78-.27-1.32-.39-.51-.12-1.38-.12-1.65 0-3.18.96-1.5.93-2.82 3.21v8.55h-2.46zM85.296 97.069q-1.71 0-3.18-.51-1.44-.51-2.52-1.47-1.08-.99-1.68-2.4-.6-1.44-.6-3.24 0-1.83.63-3.24.66-1.44 1.77-2.43 1.11-.99 2.58-1.5 1.5-.51 3.15-.51 1.8 0 3.09.63 1.32.63 2.22 1.5l-1.23 1.59q-.9-.78-1.89-1.23-.96-.45-2.1-.45-1.26 0-2.31.42-1.05.39-1.8 1.14-.72.75-1.14 1.8-.42 1.02-.42 2.28 0 1.26.39 2.28.42 1.02 1.14 1.77.75.72 1.77 1.14 1.05.39 2.31.39 1.35 0 2.46-.51 1.14-.54 2.04-1.32l1.11 1.59q-1.23 1.08-2.7 1.68-1.47.6-3.09.6zM102.804 97.069q-1.65 0-3.09-.51-1.41-.51-2.49-1.5-1.05-.99-1.68-2.4-.6-1.44-.6-3.27 0-1.77.6-3.18.63-1.41 1.65-2.4 1.05-.99 2.37-1.5 1.35-.54 2.82-.54 1.56 0 2.79.51 1.26.48 2.1 1.38.87.9 1.32 2.16.45 1.26.45 2.79 0 .42-.03.81-.03.39-.09.69h-11.49q.24 2.49 1.8 3.75 1.59 1.23 3.87 1.23 1.32 0 2.37-.36 1.08-.39 2.07-1.02l.9 1.62q-1.08.72-2.49 1.23-1.38.51-3.15.51zm-.36-13.35q-.9 0-1.74.3-.81.3-1.47.87-.66.54-1.11 1.38-.45.84-.63 1.92h9.3q-.15-2.25-1.32-3.36-1.14-1.11-3.03-1.11zM121.423 97.069q-1.83 0-3.39-.69t-2.73-1.98q-1.14-1.32-1.8-3.21-.66-1.92-.66-4.32 0-2.37.66-4.26.66-1.89 1.83-3.21t2.79-2.01q1.62-.72 3.54-.72 1.77 0 3.12.72 1.38.72 2.25 1.68l-1.41 1.59q-.78-.81-1.74-1.29-.96-.51-2.22-.51-1.41 0-2.58.57-1.14.54-1.95 1.59-.81 1.02-1.26 2.49-.45 1.47-.45 3.3 0 1.86.45 3.36.45 1.47 1.26 2.52t1.95 1.62q1.17.57 2.58.57 1.35 0 2.4-.57 1.08-.57 2.04-1.62l1.41 1.53q-1.17 1.35-2.64 2.1-1.47.75-3.45.75zM137.88 97.069q-1.44 0-2.76-.51-1.29-.51-2.28-1.47-.99-.99-1.59-2.4-.57-1.44-.57-3.24 0-1.83.57-3.24.6-1.44 1.59-2.43.99-.99 2.28-1.5 1.32-.51 2.76-.51 1.44 0 2.73.51 1.32.51 2.31 1.5t1.56 2.43q.6 1.41.6 3.24 0 1.8-.6 3.24-.57 1.41-1.56 2.4-.99.96-2.31 1.47-1.29.51-2.73.51zm0-2.04q1.05 0 1.89-.39.87-.42 1.47-1.14.63-.75.96-1.77.33-1.02.33-2.28 0-1.26-.33-2.28-.33-1.05-.96-1.8-.6-.75-1.47-1.14-.84-.42-1.89-.42-1.05 0-1.92.42-.84.39-1.47 1.14-.6.75-.93 1.8-.33 1.02-.33 2.28 0 1.26.33 2.28.33 1.02.93 1.77.63.72 1.47 1.14.87.39 1.92.39zM155 97.069q-1.44 0-2.61-.51-1.14-.51-1.98-1.47-.84-.99-1.29-2.4-.45-1.41-.45-3.24 0-1.77.54-3.18.57-1.44 1.47-2.43.93-.99 2.13-1.53 1.2-.54 2.49-.54 1.32 0 2.34.51 1.05.48 2.01 1.38h.09l-.12-2.7v-5.61h2.46v21.36h-2.04l-.21-1.92h-.09q-.9.93-2.16 1.62-1.23.66-2.58.66zm.51-2.07q2.16 0 4.11-2.19v-7.26q-.99-.93-1.95-1.32-.93-.39-1.89-.39-.96 0-1.8.42-.81.39-1.44 1.14-.6.72-.96 1.74t-.36 2.28q0 2.64 1.11 4.11 1.14 1.47 3.18 1.47zM174.757 97.069q-1.65 0-3.09-.51-1.41-.51-2.49-1.5-1.05-.99-1.68-2.4-.6-1.44-.6-3.27 0-1.77.6-3.18.63-1.41 1.65-2.4 1.05-.99 2.37-1.5 1.35-.54 2.82-.54 1.56 0 2.79.51 1.26.48 2.1 1.38.87.9 1.32 2.16.45 1.26.45 2.79 0 .42-.03.81-.03.39-.09.69h-11.49q.24 2.49 1.8 3.75 1.59 1.23 3.87 1.23 1.32 0 2.37-.36 1.08-.39 2.07-1.02l.9 1.62q-1.08.72-2.49 1.23-1.38.51-3.15.51zm-.36-13.35q-.9 0-1.74.3-.81.3-1.47.87-.66.54-1.11 1.38-.45.84-.63 1.92h9.3q-.15-2.25-1.32-3.36-1.14-1.11-3.03-1.11zM185.906 96.709v-19.68h5.94q1.62 0 2.97.3t2.31.99q.96.66 1.47 1.77.54 1.11.54 2.73 0 1.56-.54 2.7-.51 1.14-1.5 1.89-.96.75-2.31 1.14-1.32.36-2.94.36h-3.45v7.8h-2.49zm2.49-9.84h3.15q2.61 0 3.84-.96 1.23-.99 1.23-3.09 0-2.13-1.26-2.94-1.26-.84-3.81-.84h-3.15v7.83zM205.214 96.709v-14.58h2.04l.21 3.45h.09q1.14-1.77 2.79-2.79 1.68-1.02 3.72-1.02.81 0 1.5.15.69.12 1.38.45l-.57 2.13q-.78-.27-1.32-.39-.51-.12-1.38-.12-1.65 0-3.18.96-1.5.93-2.82 3.21v8.55h-2.46zM227.822 97.069q-1.44 0-2.76-.51-1.29-.51-2.28-1.47-.99-.99-1.59-2.4-.57-1.44-.57-3.24 0-1.83.57-3.24.6-1.44 1.59-2.43.99-.99 2.28-1.5 1.32-.51 2.76-.51 1.44 0 2.73.51 1.32.51 2.31 1.5t1.56 2.43q.6 1.41.6 3.24 0 1.8-.6 3.24-.57 1.41-1.56 2.4-.99.96-2.31 1.47-1.29.51-2.73.51zm0-2.04q1.05 0 1.89-.39.87-.42 1.47-1.14.63-.75.96-1.77.33-1.02.33-2.28 0-1.26-.33-2.28-.33-1.05-.96-1.8-.6-.75-1.47-1.14-.84-.42-1.89-.42-1.05 0-1.92.42-.84.39-1.47 1.14-.6.75-.93 1.8-.33 1.02-.33 2.28 0 1.26.33 2.28.33 1.02.93 1.77.63.72 1.47 1.14.87.39 1.92.39z" style="-inkscape-font-specification:'SauceCodePro Nerd Font'"/></g><g style="line-height:125%" font-weight="400" font-size="35" font-family="Fira Code"><path d="M18.653 106.797h10.815l.35-2.52h-14.21v24.115h3.045v-10.71h9.45v-2.45h-9.45v-8.435zM42.265 101.337c-1.26 0-2.1.875-2.1 2.065s.84 2.065 2.1 2.065c1.295 0 2.17-.875 2.17-2.065s-.875-2.065-2.17-2.065zm2.345 8.61h-8.435v2.345h5.495v13.755H36v2.345h13.79v-2.345h-5.18v-16.1zM68.711 109.562c-3.325 0-5.215 1.75-6.615 4.76l-.56-4.375h-5.11v2.275h2.905v13.895h-2.905v2.275h9.59v-2.275h-3.745v-7.77c1.19-4.06 3.22-6.09 6.055-6.09h.175v3.955h2.38l.42-6.265c-.805-.21-1.575-.385-2.59-.385zM90.467 124.367v-8.855c0-3.64-2.31-5.95-6.895-5.95-1.82 0-3.78.35-6.055 1.155l.805 2.24c1.89-.665 3.57-.945 4.795-.945 2.73 0 4.375.98 4.375 3.675v1.505h-2.73c-5.565 0-8.61 2.135-8.61 5.915 0 3.43 2.24 5.67 5.95 5.67 2.38 0 4.445-.875 5.775-2.59.49 1.68 1.785 2.415 3.36 2.625l.735-2.1c-1.05-.315-1.505-.875-1.505-2.345zm-7.63 2.205c-2.415 0-3.535-1.19-3.535-3.5 0-2.38 1.47-3.85 5.53-3.85h2.66v4.725c-1.085 1.645-2.835 2.625-4.655 2.625zM128.24 103.892c-5.565 0-10.325 4.305-10.325 12.425 0 8.12 4.585 12.46 10.465 12.46 3.43 0 5.74-1.19 7.21-2.625l-1.575-1.96c-1.295 1.015-2.905 1.995-5.6 1.995-4.13 0-7.315-2.695-7.315-9.87 0-7.35 3.43-9.87 7.35-9.87 1.855 0 3.535.49 5.075 1.785l1.715-1.995c-1.925-1.505-3.85-2.345-7-2.345zM147.231 109.562c-5.18 0-7.98 3.955-7.98 9.625 0 5.81 2.765 9.59 7.945 9.59 5.145 0 7.945-3.955 7.945-9.625 0-5.81-2.73-9.59-7.91-9.59zm0 2.415c3.15 0 4.725 2.31 4.725 7.175 0 4.935-1.575 7.21-4.76 7.21-3.185 0-4.76-2.275-4.76-7.175s1.61-7.21 4.795-7.21zM172.243 102.177v9.59c-1.26-1.435-2.835-2.205-4.97-2.205-4.515 0-7.21 4.095-7.21 9.625 0 5.74 2.205 9.59 7.035 9.59 1.995 0 3.85-.875 5.215-2.8l.28 2.415h2.59v-25.865l-2.94-.35zm-4.2 9.765c1.715 0 3.185.875 4.2 2.38v9.17c-1.015 1.54-2.45 2.94-4.55 2.94-2.905 0-4.445-2.45-4.445-7.245 0-4.865 1.75-7.245 4.795-7.245zM184.514 120.202h12.39c.035-.385.07-.945.07-1.575 0-5.6-2.87-9.065-7.525-9.065-4.9 0-8.015 4.06-8.015 9.625 0 5.74 3.045 9.59 8.435 9.59 2.275 0 4.585-.805 6.3-2.135l-1.365-1.96c-1.645 1.085-3.045 1.645-4.935 1.645-2.835 0-5.215-1.855-5.355-6.125zm4.97-8.225c2.8 0 4.55 2.03 4.62 5.985h-9.59c.245-4.06 2.24-5.985 4.97-5.985z" style="-inkscape-font-specification:'Fira Code'"/></g><g style="line-height:125%" font-weight="400" font-size="30" font-family="MesloLGM Nerd Font Mono"><path d="M28.685 44.474h3.955l3.78 11.103 3.808-11.103h3.97V66.27h-2.74V47.008l-3.896 11.484h-2.24L31.41 47.008V66.27h-2.725V44.474zM62.611 56.72v1.318H50.936v.088q-.117 3.354 1.275 4.82 1.406 1.464 3.955 1.464 1.289 0 2.695-.41t3.003-1.245v2.68q-1.538.63-2.974.938-1.42.322-2.753.322-3.824 0-5.977-2.285-2.153-2.3-2.153-6.328 0-3.926 2.109-6.27 2.11-2.343 5.625-2.343 3.135 0 4.937 2.124 1.816 2.124 1.933 5.127zm-2.695-.791q-.176-1.7-1.245-2.93-1.055-1.245-3.047-1.245-1.948 0-3.208 1.289-1.26 1.289-1.377 2.9l8.877-.014zM78.505 50.435v2.637q-1.158-.674-2.33-1.01-1.171-.337-2.387-.337-1.831 0-2.74.6-.893.586-.893 1.802 0 1.098.674 1.64.674.542 3.354 1.055l1.084.205q2.007.381 3.033 1.524 1.04 1.142 1.04 2.973 0 2.432-1.729 3.809-1.728 1.362-4.805 1.362-1.215 0-2.548-.263-1.333-.25-2.886-.762v-2.783q1.509.776 2.886 1.171 1.377.381 2.607.381 1.787 0 2.769-.717.981-.733.981-2.037 0-1.875-3.589-2.592l-.117-.03-1.01-.205q-2.33-.454-3.4-1.523-1.069-1.084-1.069-2.944 0-2.359 1.597-3.633 1.597-1.29 4.556-1.29 1.318 0 2.534.25 1.216.234 2.388.717zM92.83 60.338q0 1.816.66 2.739.674.923 1.978.923h3.149v2.27h-3.413q-2.417 0-3.75-1.538-1.318-1.552-1.318-4.394v-14.84h-4.322V43.39h7.017v16.948zM109.369 51.754q-2.05 0-3.106 1.596-1.054 1.597-1.054 4.732 0 3.12 1.054 4.731 1.055 1.597 3.106 1.597 2.065 0 3.12-1.597 1.055-1.611 1.055-4.731 0-3.135-1.055-4.732-1.055-1.596-3.12-1.596zm-5.215-.073q1.802-2.212 5.215-2.212t5.215 2.212q1.816 2.212 1.816 6.401 0 4.204-1.802 6.416-1.801 2.197-5.229 2.197-3.413 0-5.215-2.197-1.802-2.212-1.802-6.416 0-4.19 1.802-6.401z" style="-inkscape-font-specification:'MesloLGM Nerd Font Mono'"/></g><g style="line-height:125%" font-weight="400" font-size="30" font-family="Monoid" font-stretch="semi-condensed"><path d="M69.265 219.41h-2.5v-27.5h2.5l6.152 12.266h.215l6.133-12.265h2.5v27.5h-2.5V196.95h-.196l-4.98 9.96H74.44l-4.98-9.96h-.195v22.46zM92.233 199.938q1.446-.84 3.262-.84t3.242.84q1.445.82 2.363 2.285.762 1.25 1.016 2.969.254 1.7.254 4.219 0 2.52-.254 4.238-.254 1.7-1.016 2.95-.918 1.464-2.363 2.304-1.426.82-3.242.82t-3.262-.82q-1.426-.84-2.343-2.305-.762-1.25-1.016-2.95-.254-1.718-.254-4.237 0-2.52.254-4.22.254-1.718 1.016-2.968.917-1.465 2.343-2.285zm6.7 3.418q-1.133-1.914-3.438-1.914t-3.438 1.914q-.43.723-.644 1.816-.215 1.075-.254 1.934-.039.86-.039 2.305 0 1.445.04 2.304.038.86.253 1.953.215 1.075.644 1.797 1.133 1.914 3.438 1.914t3.437-1.914q.43-.722.645-1.797.215-1.093.254-1.953.039-.86.039-2.304 0-1.446-.04-2.305-.038-.86-.253-1.934-.215-1.093-.645-1.816zM115.866 199.098q1.406 0 2.578.567 1.172.566 1.934 1.523.488.605.781 1.25.293.645.39 1.426.118.781.137 1.289.04.508.04 1.426v12.832h-2.5v-12.832q0-1.075-.04-1.602-.02-.527-.234-1.172-.195-.664-.605-1.152-1.055-1.211-2.872-1.211-1.816 0-2.87 1.21-.41.49-.626 1.153-.195.645-.234 1.172-.02.527-.02 1.602v12.832h-2.5v-20h2.5v2.187h.196q.722-1.133 1.777-1.816 1.074-.684 2.168-.684zM132.194 199.938q1.446-.84 3.262-.84t3.242.84q1.445.82 2.363 2.285.762 1.25 1.016 2.969.254 1.7.254 4.219 0 2.52-.254 4.238-.254 1.7-1.016 2.95-.918 1.464-2.363 2.304-1.426.82-3.242.82t-3.262-.82q-1.426-.84-2.344-2.305-.761-1.25-1.015-2.95-.254-1.718-.254-4.237 0-2.52.254-4.22.254-1.718 1.015-2.968.918-1.465 2.344-2.285zm6.7 3.418q-1.133-1.914-3.438-1.914t-3.438 1.914q-.43.723-.644 1.816-.215 1.075-.254 1.934-.04.86-.04 2.305 0 1.445.04 2.304.04.86.254 1.953.215 1.075.644 1.797 1.133 1.914 3.438 1.914t3.437-1.914q.43-.722.645-1.797.215-1.093.254-1.953.039-.86.039-2.304 0-1.446-.04-2.305-.038-.86-.253-1.934-.215-1.093-.645-1.816zM153.23 192.204q.605-.606 1.581-.606.977 0 1.582.606.606.605.606 1.582 0 .976-.606 1.582-.605.605-1.582.605-.976 0-1.582-.605-.605-.606-.605-1.582 0-.977.605-1.582zm.956 27.207v-17.657h-5v-2.343h7.5v20h-2.5zM174.714 199.098q1.308 0 2.441.684 1.133.664 1.817 2.07h.195v-9.941h2.5v27.5h-2.5v-2.442h-.195q-.684 1.407-1.817 2.09-1.133.664-2.441.664-1.934 0-3.438-1.21-1.504-1.231-2.187-3.419-.254-.82-.39-1.836-.118-1.015-.138-1.718-.02-.723-.02-2.13 0-1.406.02-2.109.02-.722.137-1.738.137-1.016.39-1.836.684-2.187 2.188-3.398 1.504-1.23 3.438-1.23zm2.597 3.203q-.898-.86-2.207-.86-1.308 0-2.226.86-.899.84-1.328 2.11-.508 1.543-.508 5t.508 5q.43 1.27 1.328 2.129.918.84 2.226.84 1.309 0 2.207-.84.918-.86 1.348-2.13.508-1.542.508-5 0-3.456-.508-5-.43-1.269-1.348-2.109z" style="-inkscape-font-specification:'Monoid Semi-Condensed'"/></g><g style="line-height:125%" font-weight="400" font-size="35" font-family="Noto Sans Mono CJK JP"><path d="M141.048 67.005h2.73V53.53c0-2.625-.245-5.46-.385-8.05h.14l1.785 5.635 5.565 15.89h3.325V41.28h-2.73v13.475c0 2.625.245 5.53.385 8.05h-.14l-1.715-5.565-5.635-15.96h-3.325v25.725zM165.128 67.425c3.885 0 7.21-3.255 7.21-9.905 0-6.72-3.325-9.975-7.21-9.975s-7.21 3.255-7.21 9.975c0 6.65 3.325 9.905 7.21 9.905zm0-2.66c-2.31 0-3.92-2.52-3.92-7.245 0-4.76 1.61-7.35 3.92-7.35 2.275 0 3.92 2.59 3.92 7.35 0 4.725-1.645 7.245-3.92 7.245zM185.428 67.425c1.435 0 3.045-.35 4.41-.945l-.665-2.345c-.98.49-1.96.735-3.01.735-2.59 0-3.5-1.575-3.5-4.305v-10.01h6.65v-2.59h-6.65V42.61h-2.66l-.385 5.355-4.06.175v2.415h3.92v9.94c0 4.165 1.47 6.93 5.95 6.93zM200.128 67.425c3.885 0 7.21-3.255 7.21-9.905 0-6.72-3.325-9.975-7.21-9.975s-7.21 3.255-7.21 9.975c0 6.65 3.325 9.905 7.21 9.905zm0-2.66c-2.31 0-3.92-2.52-3.92-7.245 0-4.76 1.61-7.35 3.92-7.35 2.275 0 3.92 2.59 3.92 7.35 0 4.725-1.645 7.245-3.92 7.245z" style="-inkscape-font-specification:'Noto Sans Mono CJK JP'"/></g><g style="line-height:125%" font-weight="400" font-size="35" font-family="KacstQurn"><path d="M23.959 161.222h3.452v25.515H23.96v-25.515zM41.562 169.801q-2.53 0-4 1.982-1.47 1.966-1.47 5.4 0 3.436 1.453 5.418 1.47 1.966 4.017 1.966 2.512 0 3.982-1.983 1.47-1.982 1.47-5.4 0-3.401-1.47-5.384-1.47-1.999-3.982-1.999zm0-2.666q4.101 0 6.442 2.666 2.342 2.666 2.342 7.383 0 4.7-2.342 7.383-2.34 2.666-6.442 2.666-4.12 0-6.46-2.666-2.325-2.683-2.325-7.383 0-4.717 2.325-7.383 2.34-2.666 6.46-2.666zM67.743 168.16v2.974q-1.333-.684-2.768-1.025-1.436-.342-2.974-.342-2.341 0-3.52.718-1.163.717-1.163 2.153 0 1.094.838 1.726.837.615 3.367 1.18l1.076.238q3.35.718 4.751 2.034 1.419 1.299 1.419 3.64 0 2.666-2.12 4.221-2.102 1.556-5.793 1.556-1.538 0-3.213-.308-1.658-.29-3.503-.889v-3.247q1.743.906 3.435 1.367 1.692.445 3.35.445 2.221 0 3.417-.752 1.197-.77 1.197-2.153 0-1.282-.872-1.966-.854-.683-3.777-1.316l-1.094-.256q-2.922-.615-4.22-1.88-1.3-1.282-1.3-3.503 0-2.7 1.914-4.17 1.915-1.47 5.435-1.47 1.743 0 3.281.256 1.538.257 2.837.77zM90.165 176.38v1.539H75.707q.205 3.247 1.948 4.956 1.76 1.692 4.888 1.692 1.812 0 3.503-.445 1.71-.444 3.384-1.333v2.974q-1.692.718-3.469 1.094-1.777.376-3.606.376-4.58 0-7.263-2.666-2.666-2.666-2.666-7.212 0-4.7 2.53-7.451 2.546-2.769 6.852-2.769 3.862 0 6.101 2.495 2.256 2.478 2.256 6.75zm-3.144-.922q-.035-2.58-1.453-4.119-1.401-1.538-3.726-1.538-2.631 0-4.22 1.487-1.573 1.487-1.812 4.187l11.21-.017zM93.07 167.596h3.333l5.981 16.065 5.982-16.065h3.332l-7.177 19.141h-4.273l-7.178-19.14zM115.92 160.145h3.161v15.706l9.382-8.255h4.017l-10.152 8.955 10.579 10.186h-4.102l-9.724-9.348v9.348h-3.162v-26.592zM144.425 177.115q-3.81 0-5.28.872-1.47.872-1.47 2.974 0 1.674 1.094 2.666 1.11.974 3.007.974 2.615 0 4.187-1.846 1.59-1.863 1.59-4.939v-.7h-3.128zm6.272-1.298v10.92h-3.144v-2.905q-1.077 1.743-2.683 2.58-1.607.82-3.931.82-2.94 0-4.683-1.64-1.726-1.658-1.726-4.426 0-3.23 2.154-4.87 2.17-1.641 6.46-1.641h4.409v-.308q0-2.17-1.436-3.35-1.418-1.196-3.999-1.196-1.64 0-3.196.393-1.555.393-2.99 1.18v-2.906q1.726-.667 3.35-.991 1.623-.342 3.16-.342 4.154 0 6.205 2.153 2.05 2.154 2.05 6.529z" style="-inkscape-font-specification:KacstQurn"/></g></g></svg>