<svg xmlns="http://www.w3.org/2000/svg" width="400" height="203.141" display="block"><path d="M0 6.805c0 6.751.003 6.806.421 6.806.394 0 4.28-.723 8.721-1.622 1.061-.215 2.638-.532 3.504-.705 4.044-.807 4.969-1.005 8.583-1.84 2.123-.49 4.18-.947 4.571-1.014.391-.067 1.945-.398 3.453-.735 6.389-1.428 7.11-1.58 11.478-2.419 2.037-.392 4.77-.936 7.618-1.517 3.598-.734 8.584-1.559 10.543-1.744 1.163-.111 2.175-.238 2.248-.284.276-.17 4.06-.703 6.664-.939 1.548-.14 2.845-.358 3.047-.512.292-.221-5.765-.268-35.249-.274L0 0v6.805M96.3.282c.202.191 1.337.358 3.548.522 1.787.132 4.164.361 5.282.509 1.117.148 2.899.372 3.961.496 3.367.396 9.935 1.256 13.509 1.767 1.9.272 4.779.676 6.399.897 6.855.936 8.895 1.279 13.307 2.238 1.005.219 2.637.537 3.625.708.989.17 3.274.662 5.079 1.093 1.805.43 3.647.843 4.094.918.447.074 2.504.537 4.571 1.028 3.633.865 5.771 1.318 10.056 2.133 1.117.213 2.671.527 3.453.698 2.872.629 4.718.642 6.209.045 2.074-.829 3.128-.942 8.801-.94 5.854.002 12.54.531 20.338 1.609 6.136.848 6.622.889 9.105.755 2.749-.147 6.072-.569 13.038-1.653 4.352-.677 6.233-1.009 10.361-1.828.894-.177 3.088-.587 4.876-.91 3.223-.583 4.327-.799 8.837-1.724 1.285-.264 3.57-.725 5.078-1.025 1.509-.3 3.794-.762 5.079-1.027 5.294-1.093 16.833-3.182 20.112-3.641 1.061-.149 2.798-.41 3.86-.581 1.061-.17 2.661-.406 3.555-.524.894-.118 2.448-.349 3.453-.515 1.006-.165 2.971-.407 4.368-.536 8.32-.774 7.855-.777-100.348-.786C111.339.001 96.046.042 96.3.282m233.621.013c.192.191 1.123.375 2.634.522 1.285.124 3.113.354 4.063.511 3.131.517 9.076 1.442 10.36 1.612 5.14.681 13.78 2.229 17.026 3.052 5.912 1.497 9.285 2.402 12.126 3.253 2.07.62 6.416 1.726 10.739 2.734.991.231 2.753.554 3.916.717 4.437.623 7.311 2.113 8.525 4.419.638 1.211.69.581.69-8.278V0h-35.188c-30.773 0-35.151.037-34.891.295M95.48 13.345c-7.311.438-11.843.852-19.502 1.78-1.397.169-3.728.451-5.181.625-3.553.426-7.264 1.042-9.867 1.636-1.181.27-2.287.491-2.458.491-.401 0-3.789 1.008-7.279 2.164-8.73 2.894-15.229 8.346-17.945 15.055-3.318 8.199-1.819 27.801 3.656 47.789 3.445 12.576 5.972 19.026 9.712 24.789 1.979 3.049 2.23 3.133 4.745 1.592 3.499-2.147 6.561-2.587 12.628-1.818 3.637.46 9.15.57 11.265.224 7.534-1.234 9.626-9.406 3.88-15.158-2.859-2.862-6.642-4.278-12.672-4.744-3.37-.261-3.821-.704-2.25-2.214 2.149-2.064 4.68-2.776 9.274-2.605 4.308.159 4.45-.012 2.786-3.386-2.958-5.999-6.73-8.45-13.017-8.459-3.24-.005-3.844-.702-1.924-2.223 2.966-2.349 6.9-2.665 12.584-1.01 3.219.937 3.65.556 2.61-2.31-2.2-6.061-7.089-9.997-13.572-10.927-3.119-.447-3.276-1.318-.485-2.694 2.917-1.437 5.932-1.621 10.363-.631 5.131 1.146 4.838 1.426 4.975-4.76.073-3.301.178-4.735.373-5.076.307-.54 3.457-2.591 9.073-5.909.894-.528 2.403-1.448 3.352-2.045.95-.596 2.687-1.652 3.86-2.345a433.525 433.525 0 0 0 4.876-2.945c12.772-7.842 11.194-7.398 17.471-4.92 14.153 5.588 22.495 14.901 23.597 26.346.293 3.035.088 8.095-.412 10.17-.215.894-.457 2.037-.537 2.54-.299 1.873-1.887 6.284-3.634 10.099-.626 1.365-1.137 2.54-1.137 2.611 0 .944-8.163 13.822-11.568 18.249-3.069 3.992-2.943 4.284 1.551 3.586 3.662-.569 7.018-.544 11.885.092 5.187.676 4.818.713 6.277-.628 1.347-1.238 1.928-1.338 2.672-.459.682.806.449 1.342-3.594 8.298-4.618 7.943-4.468 7.785-6.869 7.234a26.526 26.526 0 0 0-2.487-.426 52.014 52.014 0 0 1-2.844-.43c-7.566-1.369-13.76.438-19.013 5.547-2.794 2.718-3.497 2.765-3.051.201.219-1.258.403-1.93 1.677-6.133 1.397-4.608 5.246-14.397 7.036-17.894.234-.457 1.382-3.062 2.551-5.79a575.063 575.063 0 0 1 2.755-6.35c1.069-2.36.861-3.116-1.257-4.573-2.124-1.461-4.857-2.39-8.169-2.779-2.548-.298-7.496 1.108-10.769 3.06-2.969 1.772-2.74.93-2.746 10.081-.007 10.536-.304 12.897-2.229 17.744-2.585 6.507-8.147 12.324-13.91 14.549-6.321 2.441-11.552 2.174-22.713-1.158-2.677-.8-4.454-.894-4.577-.245-.307 1.615 9.598 7.303 15.298 8.787.782.204 1.582.451 1.777.551 1.024.523 10.903 2.283 15.085 2.688 1.899.184 4.291.423 5.316.532 2.422.257 7.845.253 10.37-.007 1.093-.113 3.388-.343 5.1-.51 1.711-.167 3.677-.435 4.367-.597.691-.161 2.258-.486 3.482-.72 19.026-3.648 36.043-17.191 45.562-36.262 1.985-3.978 6.757-14.601 6.757-15.043 0-.058.511-1.405 1.135-2.993 6.283-15.995 7.224-27.57 2.935-36.138-3.967-7.926-14.552-14.711-29.123-18.668a518.11 518.11 0 0 1-4.302-1.192 87.285 87.285 0 0 0-3.961-1.005c-5.145-1.147-6.484-1.422-7.517-1.544a112.53 112.53 0 0 1-3.453-.511c-4.445-.72-7.276-.868-17.369-.912-5.475-.024-10.549-.008-11.275.036m190.046.08c-9.039.817-17.005 2.344-26.003 4.984-24.891 7.302-34.104 18.025-31.486 36.644.597 4.24 3.608 15.024 4.885 17.493.161.312.608 1.418.993 2.457 5.427 14.649 13.316 28.37 19.689 34.244 1.15 1.06 1.71 1.095 3.077.187 5.143-3.413 10.322-2.613 20.418 3.154 6.628 3.785 7.04 3.919 8.742 2.835 2.451-1.561 4.253-5.041 5.226-10.09.524-2.718.618-45.356.102-45.994-.473-.584-1.873-.766-7.269-.948-7.646-.258-11.417.878-15.806 4.76-1.341 1.186-1.422 1.212-1.856.593-1.077-1.538.664-6.469 3.425-9.706 4.006-4.697 9.703-7.002 19.85-8.033 1.996-.203 1.965-.108 2.042-6.309.082-6.667-.181-6.246 4.098-6.576 7.154-.55 13.133-2.135 17.023-4.513.933-.57 2.108-1.283 2.611-1.584.808-.483 3.903-2.695 9.671-6.911 2.238-1.636 2.672-1.668 5.667-.416 5.428 2.269 11.363 3.187 16.583 2.564 4.066-.485 5.549-1.111 4.567-1.926-.846-.702-8.182-2.79-11.501-3.274-.838-.122-2.803-.441-4.367-.708-14.379-2.461-39.435-3.917-50.381-2.927m-101.26 3.225c-1.45.366-1.465.938-.099 3.677 2.156 4.323 4.62 11.823 7.091 21.583 1.174 4.637 2.028 7.626 2.25 7.871 1.403 1.55 19.255 1.341 20.953-.245 1.498-1.399 2.093-8.918 1.493-18.861-.131-2.178-.313-5.292-.403-6.92-.271-4.891.373-4.52-10.066-5.786-1.341-.162-3.58-.438-4.977-.613-4.586-.572-14.981-1.025-16.242-.706m172.822 6.864c-.172.196-.609.95-.97 1.676-4.76 9.561-15.39 13.329-26.611 9.433-4.466-1.55-4.266-1.791-4.266 5.109v5.338l.536.421c.519.409.756.421 8.278.425 10.86.007 10.391-.217 8.981 4.294a744.734 744.734 0 0 0-1.452 4.705c-.503 1.65-.913 2.604-1.309 3.048l-.576.645-6.67.102c-6.89.105-7.433.173-7.659.965-.056.195-.157 5.109-.224 10.919-.143 12.333-.35 16.346-1.059 20.518-2.529 14.885-9.618 21.355-29.928 27.317a426.46 426.46 0 0 0-6.703 2.037 180.914 180.914 0 0 1-5.485 1.632c-5.232 1.428-5.807 1.794-4.255 2.712 1.512.893 10.624 3.339 14.107 3.787 6.624.852 13.893 1.189 17.868.83 1.458-.132 3.793-.336 5.19-.454 28.153-2.372 42.274-14.39 49.977-42.533.244-.894.709-2.475 1.033-3.515.324-1.039.589-2.056.589-2.259 0-.204.142-.771.314-1.26.173-.489.533-1.94.799-3.225.267-1.285.805-3.89 1.197-5.79 3.206-15.538 3.208-30.538.005-36.918-2.764-5.507-10.117-11.762-11.707-9.959M0 118.797v84.352h15.236c8.38 0 15.233-.069 15.23-.153-.004-.083-.141-.329-.305-.546-.86-1.137-.196-2.729 1.329-3.186 1.724-.516 1.623.296 1.623-13.091 0-13.264.117-12.292-1.522-12.705-2.246-.565-2.505-3.474-.357-4.015 1.021-.257 6.276-.285 8.176-.043 1.756.223 1.822.281 3.228 2.792 1.098 1.963 4.568 7.513 9.287 14.854 2.957 4.601 2.902 4.699 2.902-5.136 0-8.107.033-7.949-1.77-8.566-2.246-.769-2.602-2.914-.621-3.735 1.108-.458 9.077-.4 9.798.073 1.513.991 1.14 2.732-.77 3.589-1.76.789-1.626-.341-1.738 14.657l-.102 13.534-.56.788-.561.787 6.331.054c6.82.058 6.748.065 6.115-.613-.946-1.014-.669-2.511.55-2.967 2.45-.918 2.244.316 2.244-13.45 0-12.901.03-12.582-1.189-12.582-2.044 0-2.972-2.245-1.454-3.522 1.052-.885 21.911-1.141 23.218-.284 1.988 1.303 1.856 7.611-.18 8.577-1.97.934-3.464-.077-3.826-2.591-.081-.561-.34-1.202-.617-1.523l-.477-.555-3.433-.064c-3.17-.059-3.471-.033-3.928.338l-.496.401v4.277c0 5.227-.114 5.002 2.526 5.002 2.147 0 2.399-.16 3.045-1.932.909-2.494 3.846-2.922 4.476-.652.26.935.271 8.177.015 9.288-.581 2.514-3.505 2.345-4.478-.259-.681-1.823-.764-1.874-3.051-1.874-2.632 0-2.516-.189-2.604 4.218-.135 6.712-.415 6.346 4.846 6.346 5.22 0 5.252-.015 5.59-2.535.327-2.434 1.859-3.609 3.849-2.952 1.303.429 1.429.85 1.429 4.766 0 3.191-.036 3.531-.454 4.326l-.454.864h9.824l-.649-.67c-1.203-1.242-.673-2.691 1.166-3.187 1.918-.516 1.89-.295 1.805-14.122-.074-11.95.023-11.276-1.698-11.776-2.188-.636-2.596-2.971-.662-3.787 1.29-.544 15.387-.397 18.037.188 8.662 1.914 10.666 11.84 3.272 16.209-.931.549-.907.785.209 2.058 1.157 1.32 2.622 4.213 3.128 6.172.793 3.077 2.132 4.56 4.544 5.034 2.209.435 2.986 1.853 1.749 3.189-.28.301-.508.58-.508.62 0 .039 1.609.072 3.576.072h3.576l-.63-.718c-1.11-1.265-.701-2.388 1.164-3.197 2.01-.872 1.862.173 1.862-13.103v-11.645l-.499-.498c-.274-.275-.694-.499-.934-.499-1.907 0-2.869-2.179-1.522-3.445 1.059-.995 13.519-1.149 18.394-.228 9.534 1.802 14.597 9.559 13.017 19.942-1.047 6.887-6.361 12.317-12.685 12.962-1.102.112-2.054.255-2.116.317-.061.061 9.754.109 21.811.105 20.945-.006 21.904-.023 21.496-.364-1.497-1.252-1.116-2.8.842-3.417 1.978-.623 1.82.515 1.82-13.113v-11.982l-.445-.361c-.245-.198-.823-.421-1.284-.494-2.076-.332-2.563-2.74-.754-3.729.81-.442 20.725-.677 22.266-.262 1.362.366 1.536.825 1.618 4.253.102 4.242-.361 5.301-2.317 5.301-1.363 0-2.003-.671-2.645-2.777-.786-2.575-.653-2.505-4.751-2.505-4.24 0-3.867-.487-3.867 5.043 0 5.228-.026 5.168 2.264 5.278 2.476.118 3.025-.172 3.576-1.89.806-2.51 3.23-3.022 4.137-.873.515 1.222.399 9.727-.144 10.457-1.219 1.643-3.434.963-3.956-1.215-.413-1.722-.818-1.97-3.222-1.97-2.814 0-2.695-.244-2.615 5.358.071 5.023.006 4.842 1.908 5.336 1.995.518 2.56 1.533 1.734 3.117l-.425.816 14.573-.005 14.572-.006-2.122-1.032c-6.663-3.242-9.861-10.437-8.657-19.475 1.222-9.173 9.194-15.051 18.736-13.816 16.336 2.116 19.803 25.826 4.894 33.466l-1.677.86 9.904.004 9.903.004-.406-.759c-.773-1.442-.292-2.672 1.222-3.126.437-.131 1.003-.46 1.259-.732l.464-.494.062-11.005c.077-13.658.12-13.317-1.743-13.615-1.078-.172-1.671-.898-1.671-2.044 0-1.944.764-2.193 6.407-2.091 5.041.092 4.708-.074 6.65 3.308a116.554 116.554 0 0 0 2.572 4.25c.649 1.006 2.01 3.154 3.024 4.774 3.425 5.473 5.607 8.735 5.844 8.735.423 0 .49-1.164.487-8.405-.003-8.214.043-7.971-1.625-8.513-2.052-.666-2.621-2.032-1.368-3.284 1.024-1.023 9.566-1.288 10.744-.334 1.195.968.639 2.671-1.13 3.465-1.744.782-1.629-.195-1.742 14.853l-.102 13.525-.569.746-.569.746h19.131l-.616-.603c-1.237-1.208-.707-2.643 1.17-3.17 2.028-.569 1.87.547 1.87-13.201v-12.053l-.452-.317c-.527-.369-2.424-.425-3.358-.1-.717.25-.973.775-1.25 2.56-.349 2.253-1.142 3.115-2.863 3.115-2.108 0-2.438-.698-2.437-5.159.001-3.644.224-4.42 1.364-4.739.311-.086 6.191-.157 13.068-.157 15.434 0 14.258-.374 14.382 4.572.109 4.354-.416 5.483-2.552 5.483-1.604 0-2.084-.544-2.683-3.047-.606-2.533-.921-2.844-2.879-2.844-1.242 0-1.484.064-1.925.505l-.505.505.057 11.769.057 11.77.483.513c.265.283.768.575 1.117.65 1.858.4 2.857 2.632 1.541 3.445-.709.438.536.501 9.505.482 8.781-.019 9.604-.049 8.685-.313-3.032-.869-3.147-1.085-3.148-5.902-.001-4.451.115-4.728 2.053-4.888 2.374-.197 3.132.576 3.397 3.469.269 2.923 1.208 3.59 4.684 3.325 2.929-.224 4.395-1.114 4.895-2.974.68-2.524-.824-4.122-6.695-7.117-5.998-3.06-8.165-6.404-7.42-11.45.886-5.999 6.506-9.251 14.504-8.395 5.974.639 6.789 1.26 6.897 5.245.118 4.338-.236 5.367-1.927 5.593-2.025.272-2.98-.639-3.471-3.311-.474-2.583-.717-2.8-3.225-2.891-3.078-.111-4.595.714-5.158 2.806-.707 2.622.403 3.88 5.81 6.591 3.939 1.975 6.215 3.532 7.278 4.979 3.849 5.244.803 12.949-5.879 14.874-1.18.34-.696.351 15.389.365l16.607.015v-82.066c0-85.652.022-83.395-.782-81.173-.324.897-1.414 1.966-3.179 3.117-4.778 3.117-7.782 8.036-10.384 17.003-.519 1.788-1.118 3.845-1.33 4.571-.213.727-1.386 5.252-2.608 10.056-1.222 4.805-2.504 9.787-2.85 11.072a898.416 898.416 0 0 0-1.003 3.758c-1.51 5.726-5.35 15.015-8.228 19.906-9.432 16.027-28.106 28.012-48.255 30.971-.726.106-2.554.388-4.063.627-5.275.833-20.534.773-25.674-.102-.907-.154-2.38-.386-3.274-.515-3.093-.446-10.153-2.209-14.221-3.552-12.121-4.001-21.347-9.698-29.93-18.48-6.956-7.117-13.488-17.541-18.783-29.972-1.653-3.883-5.603-15.329-7.149-20.721-1.509-5.263-4.113-10.643-5.863-12.115l-.64-.539-3.962.126c-3.51.111-8.428-.025-14.433-.398-3.636-.226-5.179 2.742-9.041 17.395-2.402 9.113-3.135 11.203-5.884 16.76-6.387 12.912-12.754 22.825-18.771 29.224-1.072 1.14-2.308 2.51-2.745 3.044-7.004 8.547-23.646 17.44-35.973 19.223a114.4 114.4 0 0 0-3.25.527c-1.683.303-6.554.756-12.189 1.133-3.619.242-14.113.101-16.049-.217-.67-.11-2.407-.3-3.86-.424-9.796-.831-21.508-4.113-30.371-8.511-13.693-6.795-18.578-12.515-25.431-29.779a525.473 525.473 0 0 0-1.892-4.672c-3.3-8.03-8.38-24.04-11.314-35.653-1.992-7.885-3.188-10.165-8.307-15.846C3.48 41.565 1.655 38.939.834 36.162-.036 33.222 0 29.626 0 118.797m309.091-83.654c-.782.202-1.858.428-2.391.502-.568.079-1.198.333-1.524.612l-.554.478-.106 25.157c-.095 22.665-.141 25.429-.47 27.9-.731 5.5-1.613 8.881-3.349 12.836-.768 1.752-3.692 5.848-5.938 8.321-3.255 3.582-2.834 4.113 1.586 2.004 9.516-4.541 14.215-11.138 15.689-22.027.608-4.491.642-55.304.037-55.851-.461-.418-1.16-.402-2.98.068m-209.927.178c-.428.428-.434.532-.434 8.654v8.22l.628.715c2.267 2.582 9.123 5.394 13.151 5.394 4.5 0 10.911-2.952 12.318-5.672 1.012-1.959-3.52-8.424-8.11-11.568-5.794-3.969-15.991-7.306-17.553-5.743m-6.707 1.363c-2.394 1.198-2.141-2.106-2.268 29.543-.062 15.139-.172 27.709-.245 27.932-.074.224-.331 1.321-.571 2.438-.898 4.167-3.029 7.722-6.101 10.173-2.485 1.982-1.819 2.86 1.713 2.257 5.724-.977 9.43-5.551 10.398-12.836.37-2.785.455-59.159.09-59.841-.324-.605-1.371-.489-3.016.334m32.327 20.094c-.363.158-1.048.553-1.523.879-5.511 3.778-13.322 4.064-20.239.741-4.177-2.007-3.987-2.336-3.987 6.914 0 8.984-.068 8.827 3.185 7.399 6.488-2.847 12.864-2.745 19.75.317 2.298 1.022 2.755.519 3.874-4.275 1.021-4.376 1.267-7.168.858-9.733-.399-2.507-.646-2.795-1.918-2.242m-8.075 116.873c-.859.16-.914.494-.914 5.534 0 5.69-.084 5.477 2.149 5.477 4.373 0 6.896-4.347 4.846-8.349-.772-1.509-4.205-3.011-6.081-2.662m37.379.107c-.594.45-.643 24.264-.05 24.856.942.942 6.66-.447 8.432-2.048 4.629-4.181 4.705-16.613.127-20.632-1.926-1.692-7.325-3.072-8.509-2.176m94.819.132c-7.638 3.467-7.652 21.525-.02 24.989 4.866 2.208 9.55-2.273 10.336-9.886 1.054-10.216-4.185-17.885-10.316-15.103M38.44 181.361c-.081.196-.146 3.967-.146 8.38 0 9.014-.048 8.716 1.487 9.372 1.944.832 2.442 2.1 1.339 3.411l-.526.625h13.12l-.736-.762c-.405-.419-1.46-1.95-2.345-3.403a280.04 280.04 0 0 0-3.046-4.875c-.79-1.229-2.048-3.195-2.795-4.368-5.763-9.054-5.966-9.322-6.352-8.38m246.104-.22c-.266.266-.143 16.8.127 17.156.138.18.809.61 1.492.955.683.344 1.299.776 1.369.958.25.653.12 1.674-.28 2.182-.223.284-.406.57-.406.636 0 .067 2.891.121 6.425.121h6.425l-.787-.866c-.434-.476-1.108-1.434-1.499-2.128-.391-.695-1.778-2.933-3.083-4.975a2515.477 2515.477 0 0 1-3.758-5.9c-4.96-7.827-5.546-8.619-6.025-8.139m-168.298 8.307c-.441.309-.451.407-.451 4.482 0 4.466.06 4.773 1.008 5.128l1.236.463c1.203.45 1.473 1.937.539 2.967-.613.674-.626.672 4.957.614 5.025-.053 5.141-.064 4.43-.4-1.935-.914-4.108-3.575-4.831-5.916-1.819-5.89-4.65-8.906-6.888-7.338" fill="none"/><path d="M70.851.28c-.202.154-1.499.372-3.047.512-2.604.236-6.388.769-6.664.939-.073.046-1.085.173-2.248.284-1.959.185-6.945 1.01-10.543 1.744a740.814 740.814 0 0 1-7.618 1.517c-4.368.839-5.089.991-11.478 2.419-1.508.337-3.062.668-3.453.735-.391.067-2.448.524-4.571 1.014-2.123.49-4.545 1.03-5.383 1.198l-3.149.632c-.894.178-2.494.5-3.555.715-4.441.899-8.327 1.622-8.721 1.622-.544 0-.678 20.467-.139 21.236.155.222.403.813.552 1.315.821 2.777 2.646 5.403 7.478 10.765 5.119 5.681 6.315 7.961 8.307 15.846 2.593 10.263 4.092 15.16 9.112 29.761a129.952 129.952 0 0 0 2.202 5.892 525.473 525.473 0 0 1 1.892 4.672c6.853 17.264 11.738 22.984 25.431 29.779 8.863 4.398 20.575 7.68 30.371 8.511 1.453.124 3.19.314 3.86.424 1.936.318 12.43.459 16.049.217 5.635-.377 10.506-.83 12.189-1.133a114.4 114.4 0 0 1 3.25-.527c6.54-.946 15.097-4.032 21.485-7.747 4.4-2.559 12.325-8.837 14.488-11.476.437-.534 1.673-1.904 2.745-3.044 6.017-6.399 12.384-16.312 18.771-29.224 2.749-5.557 3.482-7.647 5.884-16.76 2.135-8.099 2.892-10.399 4.631-14.056 1.545-3.25 1.871-3.497 4.41-3.339 6.005.373 10.923.509 14.433.398l3.962-.126.64.539c1.75 1.472 4.354 6.852 5.863 12.115 1.546 5.392 5.496 16.838 7.149 20.721 5.295 12.431 11.827 22.855 18.783 29.972 8.583 8.782 17.809 14.479 29.93 18.48 4.068 1.343 11.128 3.106 14.221 3.552.894.129 2.367.361 3.274.515 5.14.875 20.399.935 25.674.102 1.509-.239 3.337-.521 4.063-.627 20.149-2.959 38.823-14.944 48.255-30.971 2.878-4.891 6.718-14.18 8.228-19.906.206-.782.657-2.473 1.003-3.758.346-1.285 1.628-6.267 2.85-11.072 1.222-4.804 2.395-9.329 2.608-10.056.212-.726.811-2.783 1.33-4.571 2.602-8.967 5.606-13.886 10.384-17.003 1.721-1.123 2.804-2.169 3.162-3.056.147-.364.387-.735.533-.824.42-.257.388-21.125-.033-21.625-2.901-3.451-4.224-4.167-8.916-4.826a53.954 53.954 0 0 1-3.916-.717c-4.323-1.008-8.669-2.114-10.739-2.734-2.841-.851-6.214-1.756-12.126-3.253-3.246-.823-11.886-2.371-17.026-3.052-1.284-.17-7.229-1.095-10.36-1.612a75.73 75.73 0 0 0-4.059-.512c-1.47-.143-2.451-.336-2.657-.522-.472-.427-25.72-.442-26.56-.016-.302.154-1.691.385-3.088.515s-3.362.372-4.368.537c-1.005.166-2.559.397-3.453.515-.894.118-2.494.354-3.555.524-1.062.171-2.799.432-3.86.581-3.279.459-14.818 2.548-20.112 3.641-1.285.265-3.57.727-5.079 1.027-1.508.3-3.793.761-5.078 1.025-4.51.925-5.614 1.141-8.837 1.724-1.788.323-3.982.733-4.876.91-4.128.819-6.009 1.151-10.361 1.828-6.966 1.084-10.289 1.506-13.038 1.653-2.483.134-2.969.093-9.105-.755-7.798-1.078-14.484-1.607-20.338-1.609-5.673-.002-6.727.111-8.801.94-1.491.597-3.337.584-6.209-.045-.782-.171-2.336-.485-3.453-.698-4.285-.815-6.423-1.268-10.056-2.133-2.067-.491-4.124-.954-4.571-1.028-.447-.075-2.289-.488-4.094-.918-1.805-.431-4.09-.923-5.079-1.093-.988-.171-2.62-.489-3.625-.708-4.412-.959-6.452-1.302-13.307-2.238-1.62-.221-4.499-.625-6.399-.897a709.602 709.602 0 0 0-13.509-1.767 312.792 312.792 0 0 1-3.961-.496c-1.118-.148-3.495-.378-5.282-.512C97.683.64 96.49.466 96.277.28c-.464-.405-24.893-.404-25.426 0m48.397 13.317c1.397.135 3.591.416 4.876.624 1.285.208 2.839.438 3.453.511 1.033.122 2.372.397 7.517 1.544 1.061.236 2.844.689 3.961 1.005 1.118.316 3.053.853 4.302 1.192 30.715 8.342 38.248 24.107 26.188 54.806-.624 1.588-1.135 2.935-1.135 2.993 0 .442-4.772 11.065-6.757 15.043-7.467 14.959-18.819 26.06-32.881 32.152-3.224 1.397-10.021 3.6-12.681 4.11-1.224.234-2.791.559-3.482.72-.69.162-2.656.43-4.367.597-1.712.167-4.007.397-5.1.51-2.525.26-7.948.264-10.37.007a755.419 755.419 0 0 0-5.316-.532c-4.182-.405-14.061-2.165-15.085-2.688-.195-.1-.995-.347-1.777-.551-5.7-1.484-15.605-7.172-15.298-8.787.123-.649 1.9-.555 4.577.245 11.161 3.332 16.392 3.599 22.713 1.158 5.763-2.225 11.325-8.042 13.91-14.549 1.925-4.847 2.222-7.208 2.229-17.744.006-9.151-.223-8.309 2.746-10.081 3.273-1.952 8.221-3.358 10.769-3.06 3.312.389 6.045 1.318 8.169 2.779 2.118 1.457 2.326 2.213 1.257 4.573-.346.765-1.586 3.622-2.755 6.35-1.169 2.728-2.317 5.333-2.551 5.79-1.79 3.497-5.639 13.286-7.036 17.894-1.274 4.203-1.458 4.875-1.677 6.133-.446 2.564.257 2.517 3.051-.201 5.253-5.109 11.447-6.916 19.013-5.547.893.162 2.173.355 2.844.43.67.074 1.789.266 2.487.426 2.401.551 2.251.709 6.869-7.234 4.043-6.956 4.276-7.492 3.594-8.298-.744-.879-1.325-.779-2.672.459-1.459 1.341-1.09 1.304-6.277.628-4.867-.636-8.223-.661-11.885-.092-4.494.698-4.62.406-1.551-3.586 3.405-4.427 11.568-17.305 11.568-18.249 0-.071.511-1.246 1.137-2.611 1.747-3.815 3.335-8.226 3.634-10.099.08-.503.322-1.646.537-2.54.5-2.075.705-7.135.412-10.17-1.102-11.445-9.444-20.758-23.597-26.346-6.277-2.478-4.699-2.922-17.471 4.92a433.525 433.525 0 0 1-4.876 2.945c-1.173.693-2.91 1.749-3.86 2.345-.949.597-2.458 1.517-3.352 2.045-5.616 3.318-8.766 5.369-9.073 5.909-.195.341-.3 1.775-.373 5.076-.137 6.186.156 5.906-4.975 4.76-4.431-.99-7.446-.806-10.363.631-2.791 1.376-2.634 2.247.485 2.694 6.483.93 11.372 4.866 13.572 10.927 1.04 2.866.609 3.247-2.61 2.31-5.684-1.655-9.618-1.339-12.584 1.01-1.92 1.521-1.316 2.218 1.924 2.223 6.287.009 10.059 2.46 13.017 8.459 1.664 3.374 1.522 3.545-2.786 3.386-4.594-.171-7.125.541-9.274 2.605-1.571 1.51-1.12 1.953 2.25 2.214 6.03.466 9.813 1.882 12.672 4.744 5.746 5.752 3.654 13.924-3.88 15.158-2.115.346-7.628.236-11.265-.224-6.067-.769-9.129-.329-12.628 1.818-2.515 1.541-2.766 1.457-4.745-1.592-6.43-9.909-13.018-32.866-14.75-51.402-2.135-22.852 3.478-31.618 24.183-37.767 1.162-.346 2.252-.628 2.423-.628.171 0 1.277-.221 2.458-.491 2.603-.594 6.314-1.21 9.867-1.636 1.453-.174 3.784-.456 5.181-.625 7.659-.928 12.191-1.342 19.502-1.78 2.942-.177 21.351.019 23.768.252m190.859-.086c7.392.437 19.619 1.783 25.8 2.841 1.564.267 3.529.586 4.367.708 3.319.484 10.655 2.572 11.501 3.274.982.815-.501 1.441-4.567 1.926-5.22.623-11.155-.295-16.583-2.564-2.995-1.252-3.429-1.22-5.667.416-5.768 4.216-8.863 6.428-9.671 6.911-.503.301-1.678 1.014-2.611 1.584-3.89 2.378-9.869 3.963-17.023 4.513-4.279.33-4.016-.091-4.098 6.576-.077 6.201-.046 6.106-2.042 6.309-10.147 1.031-15.844 3.336-19.85 8.033-2.761 3.237-4.502 8.168-3.425 9.706.434.619.515.593 1.856-.593 4.389-3.882 8.16-5.018 15.806-4.76 5.396.182 6.796.364 7.269.948.516.638.422 43.276-.102 45.994-.973 5.049-2.775 8.529-5.226 10.09-1.702 1.084-2.114.95-8.742-2.835-10.096-5.767-15.275-6.567-20.418-3.154-1.367.908-1.927.873-3.077-.187-6.373-5.874-14.262-19.595-19.689-34.244-.385-1.039-.832-2.145-.993-2.457-1.277-2.469-4.288-13.253-4.885-17.493-2.618-18.619 6.595-29.342 31.486-36.644 8.998-2.64 16.964-4.167 26.003-4.984 3.238-.293 19.108-.237 24.581.086m-115.592 3.331c1.899.109 4.596.34 5.993.514 1.397.175 3.636.451 4.977.613 10.439 1.266 9.795.895 10.066 5.786.09 1.628.272 4.742.403 6.92.6 9.943.005 17.462-1.493 18.861-1.698 1.586-19.55 1.795-20.953.245-.222-.245-1.076-3.234-2.25-7.871-2.471-9.76-4.935-17.26-7.091-21.583-2.042-4.094-1.793-4.177 10.348-3.485m166.071 7.556c4.972 3.325 8.213 7.687 9.538 12.833 1.822 7.077 1.283 20.48-1.334 33.16-.392 1.9-.93 4.505-1.197 5.79-.266 1.285-.626 2.736-.799 3.225-.172.489-.314 1.056-.314 1.26 0 .203-.265 1.22-.589 2.259-.324 1.04-.789 2.621-1.033 3.515-7.703 28.143-21.824 40.161-49.977 42.533-1.397.118-3.732.322-5.19.454-3.975.359-11.244.022-17.868-.83-3.483-.448-12.595-2.894-14.107-3.787-1.552-.918-.977-1.284 4.255-2.712a180.914 180.914 0 0 0 5.485-1.632 426.46 426.46 0 0 1 6.703-2.037c20.31-5.962 27.399-12.432 29.928-27.317.709-4.172.916-8.185 1.059-20.518.067-5.81.168-10.724.224-10.919.226-.792.769-.86 7.659-.965l6.67-.102.576-.645c.396-.444.806-1.398 1.309-3.048.402-1.32 1.055-3.438 1.452-4.705 1.41-4.511 1.879-4.287-8.981-4.294-7.522-.004-7.759-.016-8.278-.425l-.536-.421v-5.338c0-6.9-.2-6.659 4.266-5.109 11.221 3.896 21.851.128 26.611-9.433 1.267-2.545 1.726-2.626 4.468-.792m-48.515 10.677c.605.547.571 51.36-.037 55.851-1.474 10.889-6.173 17.486-15.689 22.027-4.42 2.109-4.841 1.578-1.586-2.004 2.246-2.473 5.17-6.569 5.938-8.321 1.736-3.955 2.618-7.336 3.349-12.836.329-2.471.375-5.235.47-27.9l.106-25.157.554-.478c.326-.279.956-.533 1.524-.612.533-.074 1.609-.3 2.391-.502 1.82-.47 2.519-.486 2.98-.068m-206.593.867c8.653 2.214 15.653 7.326 18.775 13.713 1.256 2.569 1.172 2.861-1.405 4.899-4.274 3.379-9.449 4.572-14.184 3.27-3.13-.861-8.01-3.438-9.306-4.914l-.628-.715v-8.22c0-10.491-.506-9.888 6.748-8.033m-10.005.408c.365.682.28 57.056-.09 59.841-.968 7.285-4.674 11.859-10.398 12.836-3.532.603-4.198-.275-1.713-2.257 3.072-2.451 5.203-6.006 6.101-10.173.24-1.117.497-2.214.571-2.438.073-.223.183-12.793.245-27.932.127-31.649-.126-28.345 2.268-29.543 1.645-.823 2.692-.939 3.016-.334m30.552 20.384c1.194.873 1.109 6.49-.181 12.019-1.119 4.794-1.576 5.297-3.874 4.275-2.686-1.194-4.349-1.725-6.326-2.021-4.915-.735-9.068-.208-13.424 1.704-3.253 1.428-3.185 1.585-3.185-7.399 0-9.25-.19-8.921 3.987-6.914 6.917 3.323 14.728 3.037 20.239-.741.771-.529 1.992-1.152 2.297-1.174.062-.004.273.109.467.251" fill="#ffce3e" fill-rule="evenodd"/><g style="line-height:248.00000191%;-inkscape-font-specification:'Bitstream Charter, Bold';text-align:start" font-weight="700" font-size="47.5" font-family="Bitstream Charter" letter-spacing="5.91" word-spacing="0" fill="#6b6666" text-anchor="middle"><path d="M27.895 202.381h10.83v-2.28l-2.945-.38-.76-.855v-21.992l16.435 25.507h5.32v-28.357l.808-.903 2.802-.38v-2.232h-10.83v2.232l2.898.38.855.903v20.33L38.773 171.79v-1.282H27.848v2.327l3.04.238.665.665v25.127l-.855.855-2.803.38v2.28zM68.46 202.381h25.507v-8.502h-3.23l-.807 5.035-.618.76h-11.02v-12.35h6.175l.665.665.475 3.42h2.803v-11.02h-2.803l-.475 3.42-.665.665h-6.175v-11.305h9.453l.617.617.713 4.18H92.4v-7.457H68.46v2.327l2.897.238.76.665v25.317l-.76.76-2.897.238v2.327zM102.76 170.509v2.327l2.803.238.76.665v25.317l-.76.76-2.802.238v2.327h13.395v-2.327l-2.898-.238-.76-.76V188.37h.808c4.797 0 6.032 2.042 7.505 6.555.76 2.28 1.187 4.417 3.657 6.317 1.14.903 2.898 1.473 4.94 1.473 1.473 0 3.088-.143 4.75-.38v-2.28h-.617c-3.183 0-4.608-.713-5.605-3.325-.903-2.375-1.283-4.94-2.755-7.03-1.093-1.52-2.708-2.423-4.988-2.945 5.368-.998 8.17-3.753 8.17-8.123 0-5.272-3.8-8.122-11.162-8.122h-14.44zm9.738 2.707h2.185c4.608 0 7.03 2.185 7.03 6.08 0 4.37-2.422 6.365-7.505 6.365-.522 0-1.092 0-1.71-.047v-12.398zM154.36 170.509h-13.87v2.327l2.897.238.76.76v25.222l-.76.76-2.897.238v2.327h13.87c4.75 0 8.312-.712 11.257-2.992 3.848-2.945 5.843-7.315 5.843-12.92 0-9.975-6.08-15.96-17.1-15.96zm-3.943 2.66h2.755c7.553 0 11.21 4.322 11.21 13.252s-3.657 13.3-11.21 13.3h-2.755V173.17zM200.228 202.381h14.013v-2.327l-3.325-.238-.808-.76V187.99h6.365l.665.617.475 3.468h2.803v-11.068h-2.803l-.475 3.468-.665.617h-6.365v-11.827h9.168l.617.617.713 4.608h3.277v-7.98h-23.845v2.327l3.04.238.76.665v25.317l-.76.76-2.85.238v2.327zM232.916 186.279c0 10.117 6.507 16.862 16.34 16.862 3.99 0 7.79-1.472 10.687-4.18 3.325-3.087 5.083-7.362 5.083-12.397 0-5.368-1.995-9.928-5.653-13.063-2.897-2.47-6.365-3.705-10.45-3.705-4.417 0-8.122 1.378-11.115 4.133-3.23 2.992-4.892 7.172-4.892 12.35zm16.102-13.443c5.178 0 8.883 5.083 8.883 13.87 0 8.408-3.753 13.538-8.978 13.538-5.082 0-8.93-5.13-8.93-13.87 0-8.503 3.753-13.538 9.025-13.538zM273.83 202.381h10.83v-2.28l-2.944-.38-.76-.855v-21.992l16.435 25.507h5.32v-28.357l.807-.903 2.803-.38v-2.232h-10.83v2.232l2.897.38.855.903v20.33l-14.535-22.563v-1.282h-10.925v2.327l3.04.238.665.665v25.127l-.855.855-2.802.38v2.28zM313.778 170.509v8.407h3.277l.76-5.082.76-.618h5.7v25.84l-.807.76-3.088.238v2.327h14.203v-2.327l-3.088-.238-.807-.76v-25.84h5.7l.712.618.808 5.082h3.277v-8.407h-27.407zM350.397 201.336a27.759 27.759 0 0 0 9.168 1.568c7.79 0 12.587-4.085 12.587-9.738 0-2.802-1.52-5.367-4.275-7.125-2.802-1.805-5.32-2.517-6.792-3.42-2.518-1.52-3.848-2.945-3.848-5.13 0-2.612 2.138-4.512 5.605-4.512 1.52 0 2.613.237 3.468.665l.665.665.807 4.94h3.42v-7.695c-2.992-1.045-5.985-1.615-8.93-1.615-6.792 0-11.21 4.085-11.21 9.357 0 2.328 1.14 4.655 3.325 6.508 2.09 1.757 4.323 2.565 6.223 3.515 3.372 1.71 5.082 3.42 5.082 5.985 0 2.612-2.28 4.512-6.127 4.512-1.473 0-2.85-.237-4.18-.665l-.618-.712-.76-5.7h-3.61v8.597z" style="line-height:248.00000191%;-inkscape-font-specification:'Bitstream Charter, Bold';text-align:center"/></g></svg>