<?xml version="1.0" encoding="utf-8"?>
<!-- Generator: Adobe Illustrator 20.1.0, SVG Export Plug-In . SVG Version: 6.00 Build 0)  -->
<svg version="1.1" id="Layer_1" xmlns="http://www.w3.org/2000/svg" xmlns:xlink="http://www.w3.org/1999/xlink" x="0px" y="0px"
	 width="841.8900146px" height="450.7078857px" viewBox="0 0 841.8900146 450.7078857"
	 style="enable-background:new 0 0 841.8900146 450.7078857;" xml:space="preserve">
<style type="text/css">
	.st0{fill:url(#SVGID_1_);}
	.st1{fill:#FFFFFF;}
	.st2{fill:#F1F1F1;}
	.st3{fill:none;}
	.st4{opacity:0.18;fill:#4D4D4D;}
	.st5{fill:url(#SVGID_2_);}
	.st6{fill:#0F324B;}
	.st7{fill:url(#SVGID_3_);}
</style>
<linearGradient id="SVGID_1_" gradientUnits="userSpaceOnUse" x1="42.8056412" y1="225.3539429" x2="799.0843506" y2="225.3539429">
	<stop  offset="0" style="stop-color:#60C7D0"/>
	<stop  offset="1" style="stop-color:#5A85C0"/>
</linearGradient>
<polygon class="st0" points="685.2388916,52.5112686 685.2388916,52.5815849 42.8519669,52.5815849 156.6512146,225.3187866 
	42.8056412,398.1263123 42.8056412,398.1966248 685.2388916,398.1966248 685.2388916,398.1263123 799.0843506,225.3187866 "/>
<g>
	<polygon class="st1" points="561.5447388,341.3577881 623.2905273,341.3577881 559.3942261,206.712738 517.5202026,248.5867615 	
		"/>
	<polygon class="st1" points="622.9202881,109.6432114 544.0310669,109.6432114 493.482605,160.1915436 493.482605,239.0809174 	"/>
	<rect x="413.9806519" y="109.6432114" class="st1" width="55.7831268" height="231.7145844"/>
</g>
<path class="st2" d="M685.2388306,52.5113068l113.845459,172.807373l-113.845459,172.8076324v0.0702515H42.8057213v-0.0702515
	l113.8454742-172.8076324L42.8519135,52.581543h642.3869019V52.5113068 M685.2376709,32.1793671
	c-0.5670776,0-1.1363525,0.0238419-1.7058716,0.0719452H42.8519135c-7.4778595,0-14.3519058,4.1049957-17.8983345,10.6883316
	c-3.5464287,6.5833282-3.1928577,14.5821457,0.9211903,20.8264236l106.4309235,161.5526428L25.8285789,386.941803
	c-2.1873817,3.3200073-3.353096,7.2085571-3.353096,11.1845093v0.0702515c0,11.2280884,9.1021442,20.3302307,20.3302383,20.3302307
	h642.4331055c7.5643921,0,14.1635132-4.1305542,17.664917-10.2599182l113.1577148-171.7636566
	c4.4709473-6.7861938,4.4709473-15.5828552,0-22.3690491l-113.84552-172.8073883
	C698.3849487,35.5115509,691.9465942,32.1793671,685.2376709,32.1793671L685.2376709,32.1793671z"/>
<g>
	<polygon class="st3" points="685.2388916,52.5112686 685.2388916,52.5815849 42.8519669,52.5815849 156.6512146,225.3187866 
		42.8056412,398.1263123 42.8056412,398.1966248 685.2388916,398.1966248 685.2388916,398.1263123 799.0843506,225.3187866 	"/>
</g>
<polygon class="st4" points="685.2390137,398.1262512 761.2462769,282.7536316 738.2677612,253.9195251 623.2905884,110.4412003 
	521.6287842,174.3646545 469.7637939,109.6431961 445.4653931,183.2999878 386.440033,109.6431961 283.5547485,140.08078 
	227.8250732,254.7182617 342.8023682,398.1965942 685.2390137,398.1965942 "/>
<g>
	<path class="st1" d="M386.440094,341.2336121h-55.7295532v-86.5153046H227.8251801V109.6432114H386.440094V341.2336121z
		 M283.5547485,198.9880524h47.1557922v-33.6152802h-47.1557922V198.9880524z"/>
	<g>
		<polygon class="st1" points="556.5059814,201.4270782 514.6693115,243.2546692 561.2241821,341.3577881 622.9105835,341.3577881 
					"/>
		<polygon class="st1" points="469.5222778,109.8656921 413.8018188,109.8656921 413.8018188,239.7911682 413.8018188,317.7799377 
			413.8018188,341.3577881 469.5222778,341.3577881 		"/>
		<polygon class="st1" points="548.2908325,184.1156311 622.5405884,109.8656921 543.7272949,109.8656921 487.5762939,166.0167084 
			487.5762939,244.8182983 548.2909546,184.1159058 		"/>
	</g>
</g>
</svg>
