<svg xmlns="http://www.w3.org/2000/svg" height="252.654" width="633.638" xmlns:xlink="http://www.w3.org/1999/xlink" viewBox="0 0 594.02 236.863"><defs><linearGradient id="a"><stop offset="0"/></linearGradient><linearGradient id="b" y2="61.183" xlink:href="#a" gradientUnits="userSpaceOnUse" x2="167.34" gradientTransform="translate(606.09 -168.29) scale(3.5433)" y1="61.183" x1="24.679"/></defs><path d="M1.166 118.435l117.27-117.27 117.26 117.27-117.26 117.26z" stroke="#000" stroke-width="1.65" fill="#19953f"/><path d="M698.95-104.45q-.94-1.41-2.585-2.115-1.645-.94-3.29-.94h44.415q1.41 0 2.585.705 1.41.705 1.645 1.645 0 .235.235.94l.47.94v.705q.235.47.235.94.235.47.235.94l3.76 122.67 68.15-119.14q.705-1.175.94-2.115.235-1.175.235-2.115 0-.705-.235-1.175 0-.47-.235-.94 0-.235-.235-.47v-.47q-.235-.94-1.645-1.645-1.175-.94-3.055-1.41H853.345q.47 0 .94.235 1.41.235 2.585.94 1.41.705 1.88 1.88.235.47.235 1.41.235.705 0 1.88v1.645q0 .705-.235 1.175L755.59 80.505h-38.54q-3.055 0-4.935-.705-1.645-.705-2.82-1.645h-.47v-.47q-.705-.47-1.175-1.175l-.94-1.88-.47-.94v-1.175l-5.405-172.02q0-.94-.47-1.88-.235-1.175-.705-1.88l-.47-.47q0-.47-.235-.705z" fill="#d0d0cf" transform="translate(-664.657 124.705)" stroke="url(#b)" stroke-width="2.711"/><g stroke-linejoin="round" stroke-width="2.282" stroke="#000" fill="#d0d0cf"><g stroke-linecap="square"><path d="M117.523 145.036q-.08-.16-.24-.32-.16-.24-.32-.4t-.32-.24q-.08-.16-.16-.24-.16-.16-.32-.24-.16-.16-.32-.16h13.36q.16 0 .32.08.24 0 .48.16.24.08.48.24t.4.4q.08 0 .08.08.08 0 .08.08.32.32.4.8.08.4.08.8v.48l-9.84 43.68q-.08.56-.16 1.04v1.12q0 .16.08.24v.32q.08.08.08.24v.16h.16q.4.56.88.96.56.4 1.2.4h-12.88q-.16-.08-.4-.16-.4-.08-.8-.32-.32-.24-.56-.56-.16-.32-.32-.88-.16-.64-.16-1.2v-.24-.16l9.52-42.56q0-.88-.16-1.6-.08-.72-.4-1.44-.08-.16-.16-.24 0-.16-.08-.32zm2.4-6.4l1.28-7.28h9.6q1.12 0 1.52.08t.64.32q.08.08.08.16l.16.16q0 .16.08.4.08.16.16.4.08.08.08.16l.08.08q.08.24.08.48.08.16.08.32l-1.52 6.64H121.363q-.4-.08-.72-.48h-.08v-.16q0-.16-.08-.24-.08-.16-.24-.4h-.08v-.08l-.16-.32q-.08-.16-.08-.24zM145.983 145.036q0-.08-.16-.24l-.32-.48-.16-.16-.16-.16q-.16-.16-.4-.24l-.24-.24h12.24q.16 0 .4.08t.56.24l.08.08h.16q.24.16.4.24.24.08.4.16.64.4.96 1.04.4.56.4 1.36l-.4 3.36 2.56-4q.16-.24.32-.4l.32-.48q.24-.32.48-.56.32-.32.72-.48.16-.08.24-.08l.32-.16q.4-.16.8-.24.48-.16 1.12-.16h9.84q1.6 0 2.96.56 1.44.48 2.64 1.36 1.36 1.04 2.08 2.64t.72 3.44l3.6-5.44q.32-.64.88-1.04t1.12-.72q.32-.16.64-.24l.64-.32.64-.16q.32-.08.64-.08h8.56q2.08 0 3.76.56t3.04 2q1.2 1.36 1.84 2.88t.64 3.36q0 .56-.08 1.2t-.24 1.28l-8.4 35.92q-.08.16-.08.4v.32q0 .4.08.8.16.4.24.72v.16l.08.08q.24.48.64.96.48.4 1.2.56h-12.96q-.64 0-1.28-.24-.56-.32-1.04-.8-.4-.4-.72-1.04-.24-.72-.24-1.52l7.84-30.64q.32-1.12.48-1.92.24-.88.24-1.44-.08-.56-.24-.96-.08-.48-.48-.88-.32-.56-1.6-.8t-2.88-.24h-.96q-1.36.08-2.64.32t-1.92.56q-.08.08-.24.16-.08 0-.24.08-.48.4-.96 1.04-.4.64-.64 1.36-.16.32-.24.64-.08.24-.16.56l-8 32.16v.4q0 .24.08.48.08.4.24.8t.32.72v.16h.16q.24.32.56.64.4.24.8.32.16.08.24.08t.16 0h-13.92l-.32-.16q-.24-.08-.48-.24t-.4-.24l-.24-.24q-.08-.08-.08-.16-.08-.16-.16-.4t-.08-.56q0-.24.08-.56l.16-.8 7.68-32.96v-.56-.48-.24-.32q-.08-.4-.24-.8-.08-.4-.4-.88-.32-.64-1.76-.88-1.44-.32-3.2-.32-1.28 0-2.56.24-1.2.16-2.08.64-.8.24-1.36.96t-.88 2l-8.24 33.36v.48q0 .56.08.88l.32.48v.08h.08v.16l.16.16q.16.32.48.56.4.24.88.48.16.08.24.16l.32.16h-13.6q-.16-.08-.4-.08-.4-.16-.88-.4-.4-.24-.64-.56-.48-.4-.72-.88-.16-.56-.16-1.36v-.48q0-.32.08-.64l10.64-42.64q0-.56-.08-1.04t-.16-.96l-.16-.32v-.32zM227.743 132.155q-.32-.64-.96-1.04-.56-.4-1.68-.4h32.56q4.72 0 6.72.8 2.08.8 3.6 2.16l.8.8q.4.32.8.72 1.84 1.6 2.72 5.44.96 3.76.96 8.96 0 4.4-.72 9.44t-2.16 10.24q-1.36 4.8-3.44 9.44-2 4.64-4.72 8.8-1.36 2.16-3.52 3.76-2.16 1.52-4.56 2.32-1.44.56-2.88.8-1.36.24-2.56.24h-20.24l2.4-10.8h10.4q.24-.08.48-.08h.32q1.84-.16 3.6-.48 1.76-.4 2.8-1.76 2.64-3.2 4.4-7.36 1.84-4.16 2.88-8.48 1.52-5.92 1.92-11.28.48-5.44.48-8.48 0-2.96-1.76-4.24-1.76-1.36-4.8-1.36h-10.08l-12.88 54.32h-12.16q-.08 0-.16.08h-.4q-.56 0-1.12-.24-.56-.32-.96-.64l-.16-.32q-.16-.24-.16-.48-.08-.08-.08-.16v-.24q0-.32.08-.64t.16-.64q.08-.24.08-.56.08-.32.08-.64l14.56-56.16q0-.16-.08-.24v-.32q-.08-.24-.16-.4l-.16-.48-.16-.16q0-.16-.08-.24zM310.643 181.596q.96-.56 1.84-1.28t1.52-1.68l-2.96 12q-.48 1.04-1.12 1.68t-1.28 1.12l-.48.32q-.16.08-.4.24-.56.24-1.2.4t-1.68.24q-.16 0-.32.08h-17.84l-.8-.16q-2.16-.16-4.24-.64-2.08-.56-3.36-1.68-1.84-1.76-2.72-4.96-.8-3.28-.8-7.28 0-2.56.24-5.28.32-2.72.88-5.52 1.6-8.32 4.96-15.52 3.44-7.2 7.28-8.88 1.76-.8 5.52-1.12 3.84-.4 8-.4h.72q4.4 0 8.32.4t5.52 1.12q2.72 1.28 3.68 4.24t.96 6.32v.88q-.08 2.32-.48 4.64-.32 2.24-.72 4.08-.32 1.36-.64 2.4-.24 1.04-.4 1.52-.08.8-1.04 1.28-.96.4-2.8.4h-26.24l.16-.72.4-1.6v-.16l.08-.08.16-.8q.08-.4.16-.72t.16-.64q.16-.4.24-.8v-.16q.08-.08.08-.16.24-.96.48-1.68t.24-.72h17.92q.32-1.12.48-2.16t.16-2q0-2.48-1.6-4.16t-6.08-1.68q-5.04 0-7.12 2.4-2 2.4-3.36 6.64-.4 1.2-.8 2.56t-.88 2.8q-.8 3.92-1.36 6.96-.56 2.96-.56 4.96 0 .88.16 1.6.16.64.48 1.04.48.72 1.44 1.04 1.04.32 2.24.4.4.08.8.08t.8 0h12.64q1.2-.08 2.24-.32l1.12-.32q.56-.24 1.2-.56zM327.043 143.916q-.08-.24-.4-.4-.24-.24-.48-.32-.08-.08-.24-.08h-.16 12.24q.08 0 .16.08.16 0 .32.08h.16q.16.08.24.16l.16.08q.08 0 .16.24.16.24.16.56.08.16.08.32t0 .24l1.28 33.84 18.32-32.4q.16-.08.32-.4t.24-.72v-.48q.08-.24.08-.4v-.08-.08q-.08-.32-.4-.56-.32-.32-.72-.4-.08-.08-.16-.08t-.16 0h11.84q.24 0 .4.08.4.08.72.24.4.08.48.32.08.08.08.24V144.476q0 .32-.08.72-.08.32-.24.48l-28.56 49.04h-10.56q-.8 0-1.44-.4-.56-.4-.88-.96l-.16-.16q0-.16-.08-.32t-.16-.32q0-.24-.08-.4l-.16-.48v-.4l-1.68-45.2q0-.64-.16-1.2-.08-.56-.48-.96zM386.143 131.595q-.32-.24-.8-.4-.48-.24-.96-.32-.08-.08-.24-.08h-.24 15.2q.16-.08.32-.08h.32q.64 0 .96.24.4.24.64.64.16.32.24.64t.08.72v.4q0 .16-.08.24v.24l-13.6 57.2q-.08.4-.08.8v.48q0 .4.08.56t.16.24.16.16.16.24.16.24l.24.24.32.32q.24.08.48.24l.32.16h.32H374.943l-.48-.16q-.32-.08-.72-.24-.32-.24-.48-.4t-.24-.24-.24-.16q-.16-.16-.24-.32-.08-.24-.08-.64v-.56q.08-.32.16-.8l13.76-57.36q.08-.4.08-.64.08-.32.08-.56 0-.4-.16-.64-.08-.24-.24-.4zM427.043 143.196h20.48l-1.36 7.6q0 .16-.16.4-.08.24-.24.48l-.16.32-.16.16-.32.32-.24.24-.16.16h-.08q-.64.4-1.36.72t-1.52.32h-11.84q-1.84 0-3.52.24-1.6.24-2.72 1.6-1.28 1.92-2.4 4.48-1.04 2.56-1.84 5.28-.96 3.36-1.52 6.4-.48 3.04-.48 4.88v.64q0 .24.08.48.72 4.08 2.4 5.12 1.68.96 3.84.96h.8q.4 0 .8-.08H427.043q8.8 0 11.44-.96t3.52-3.12l-2.48 10.96q-.16.8-.56 1.44t-.88.96l-.16.16h-.08q-.64.56-1.36.96t-1.68.4H416.243q-1.6 0-2.88-.24t-2.24-.56l-.64-.16q-.32-.16-.56-.24-3.68-1.6-4.96-5.04-1.2-3.44-1.2-7.2v-.64-.64-.64q.08-.32.08-.64.24-2.56.64-5.44t1.04-5.76q1.44-7.04 4.16-13.2 2.72-6.24 7.04-8.64.4-.24.8-.4t.8-.32q2.08-.88 4.16-1.28 2.08-.48 4.56-.48zM482.643 188.876q-2.72 2.16-5.92 3.44-3.12 1.28-6.32 1.84-1.44.24-2.88.4-1.36.08-2.72.08-5.12 0-9.36-1.44-4.16-1.52-5.84-3.92-1.12-1.76-1.68-4.56t-.56-6.24q0-2.8.32-5.92.4-3.2 1.28-6.32 1.12-4.24 2.96-8.24 1.92-4.08 4.64-7.44 3.76-4.48 7.76-6 4.08-1.6 8.96-1.52h1.52v8.88q-.8 0-1.68.08-.88 0-1.76.16-1.36.32-2.72 1.04t-2.48 2.24q-1.44 2.16-2.72 5.12-1.2 2.88-2.16 5.92-1.12 3.6-1.76 6.96-.56 3.28-.56 5.36v.4q0 3.6 2.48 5.28 2.56 1.6 5.52 1.68h.24q2.32 0 4.32-.8 2-.88 2.8-2.4.24-.32.4-.64.24-.4.4-.72 1.36-2.4 2.64-5.6t2.32-6.48q.8-2.8 1.28-5.52.48-2.8.48-5.04 0-1.28-.16-2.32-.16-1.12-.56-1.92-.56-1.36-2.16-2.08t-3.6-.72h-.56v-8.88h.48q6.64.24 12.24 2.16 5.68 1.92 6.24 11.04v.56q0 2.64-.56 6.8-.56 4.08-1.76 8.56-1.36 5.12-3.6 9.76-2.16 4.56-5.2 6.96z"/></g><path d="M507.143 144.556q0-.08-.16-.24l-.32-.48-.16-.16-.16-.16q-.16-.16-.4-.24l-.24-.24h12.4q.16 0 .4.08.32.08.56.24.08 0 .08.08h.16q.24.16.4.24.24.08.4.16.64.4 1.04 1.04.4.56.4 1.36l-.4 3.36 2.56-4q.08-.16.16-.24l.16-.32q.16-.24.4-.4.24-.24.48-.4.16-.16.32-.24t.32-.16q.32-.16.64-.24.4-.16.72-.32.4-.08.72-.16t.64-.08h9.76q1.6 0 2.96.48 1.44.48 2.72 1.44 1.28 1.12 1.84 2.56.64 1.44.64 3.2 0 .8-.16 1.76t-.4 1.92l-8.48 35.84q0 .8.16 1.44t.48 1.28l.16.32q.16.16.32.4.16.16.32.4.24.16.4.32.16.08.24.16l.32.16h-14q-.08-.08-.24-.08-.24-.08-.48-.24t-.4-.32q-.08-.16-.16-.24t-.16-.16q-.16-.16-.24-.56t-.08-.8v-.16-.16q.08-.16.08-.32.08-.24.08-.32l7.76-33.36v-.32-.24q-.08-.88-.24-1.6-.16-.8-.4-1.12-.32-.64-1.76-.88-1.44-.32-3.2-.32h-.56q-1.2.08-2.32.32-1.12.16-1.84.56-.8.24-1.28.96t-.8 2l-8.48 34q0 1.12.16 1.52.16.32.4.56.08.08.08.16.08 0 .16.08t.16.16.16.24q.16.08.32.24l.32.16q.24.08.4.16.24.08.4.08h-13.84q-.48-.08-.96-.24t-.8-.4q-.48-.4-.72-.88t-.16-1.2v-.24-.24l10.64-44.32q0-.72-.16-1.36-.08-.72-.24-1.28h0z" stroke-linecap="round"/><path d="M592.343 143.116l-1.36 5.92q-.16.48-.48.8-.24.32-.48.56-.08 0-.16.08t-.16.08q-.4.32-.96.48t-1.52.16h-10.4q-.48.08-1.04.08-.48 0-.96.08-1.76 0-3.28.48t-2.24 3.04l-.16.64q-.08.24-.16.56l-.32 1.28q-.08.56-.08 1.12 0 1.04.72 2t2.96 1.6q.16 0 .24.08.16 0 .32.08 1.44.32 3.2.72 1.76.32 3.52.88 2.24.72 4.32 1.76t3.6 2.8q.8.8 1.12 2.4.4 1.6.4 3.52 0 1.28-.16 2.64t-.4 2.72q-.72 3.44-2.08 6.56t-3.28 4.64q-2.24 1.84-4.72 2.88-2.48.96-5.6.96h-24.56q-.24-.08-.4-.16-.4-.08-.8-.32t-.56-.56q-.08-.08-.08-.16t0-.16q-.08-.16-.08-.32-.08-.16-.08-.32t0-.32q-.08-.08-.08-.24t0-.32v-.4q0-.24.08-.32l2.48-8.8h.64q-.08.24-.08.48v.96q.08.32.24.64 0 .16.08.32t.16.32q.4.8 1.28.96.96.08 2.56.08h.8q2.08.08 3.92.16h3.52q2.8 0 5.04-.24 2.32-.24 3.92-.8t2.48-1.92q.88-1.44 1.36-3.04.16-.48.24-.96t.16-.96v-.16q0-.08.08-.16v-.16-.16q0-2.16-2.4-3.2-2.32-1.04-5.52-1.76-.56-.16-1.12-.24l-1.12-.32q-3.84-.96-7.04-2.64-3.12-1.76-3.12-5.76v-.16-.16-.16-.16l.32-3.84q.24-1.92.8-3.84t1.6-3.84 2.8-3.84q.24-.4.56-.8l.88-.88q1.28-1.12 3.2-2 2-.96 4.64-.96H592.343z" stroke-linecap="square"/></g><g fill="#19953f"><path d="M49.133 25.587q1.35-.87 3-1.14 1.68-.27 3.24.15 1.02.27 1.92.81.93.51 1.65 1.26.75.72 1.26 1.62.06.09.03.24-.03.12-.15.18-1.38.81-3.27 1.89-.09.06-.24.03-.12-.03-.18-.12-.42-.63-.99-1.05-.57-.45-1.26-.6-.96-.24-1.95.12t-1.59 1.17q-.63.81-.69 1.89-.06 1.05.48 1.92.39.66 1.05 1.11t1.44.57q1.02.15 1.98-.3.96-.48 1.5-1.41.06-.09.18-.12.15-.03.27.03 1.53.87 3.3 1.89.09.06.12.18t-.03.24q-.75 1.32-2.01 2.31-1.26.96-2.76 1.35-1.5.42-3.09.21-1.56-.21-2.88-.99-1.86-1.05-2.91-2.85-.75-1.29-.99-2.79-.21-1.53.15-3t1.26-2.73 2.16-2.07zm.33.54q-1.2.75-2.04 1.92-.81 1.14-1.11 2.49-.33 1.32-.12 2.73t.9 2.58q.99 1.68 2.67 2.64 1.23.72 2.67.93 1.47.18 2.85-.21 1.29-.36 2.4-1.17t1.83-1.92q-1.47-.84-2.76-1.62-.66.96-1.77 1.44-1.08.48-2.22.33-.9-.12-1.68-.66t-1.23-1.32q-.63-1.05-.57-2.31.09-1.26.84-2.22.72-.96 1.86-1.38t2.31-.15q1.5.33 2.46 1.71 1.56-.9 2.76-1.62-.72-1.14-1.86-1.95-1.11-.81-2.43-1.14-1.44-.39-2.97-.15t-2.79 1.05zm2.94-6.42q.51-.27 1.08-.24.6.03 1.05.33l9.21 5.31q.39.24.69.72-.45.27-2.07 1.2-1.59.9-2.43 1.41-.72-1.29-1.95-2.22t-2.67-1.29q-1.5-.42-3.12-.15-1.59.24-2.91 1.08-1.23.78-2.1 1.98-.84 1.2-1.17 2.64-.33 1.38-.12 2.85.21 1.44.93 2.67-.87.48-2.43 1.38-1.53.9-2.07 1.23-.3-.51-.3-.96v-10.68q-.03-.54.24-1.05t.75-.81q1.35-.78 4.5-2.58 3.18-1.83 4.89-2.82zm-2.79 12.3q.09-1.17.75-2.04t1.71-1.26q1.08-.42 2.13-.15.75.15 1.38.63.66.48 1.08 1.14-1.17.63-3.27 1.89l-1.05.63-1.2.66q-.57.33-1.02.6-.6-.96-.51-2.1zm10.32-3.57q.84-.51 2.43-1.41 1.62-.93 2.07-1.2.3.54.3.96v10.86q0 .42-.3.96-.51-.3-1.44-.81-.9-.54-1.65-.96-.75-.45-1.41-.84-1.77-1.02-3.3-1.89-2.01-1.14-3.24-1.89 2.1-1.26 3.27-1.89 1.89-1.08 3.27-1.89zm-9.81 5.67q.45-.27 1.02-.6l1.2-.66 1.05-.63q1.26.75 3.24 1.89-.57.99-1.65 1.5-1.05.51-2.16.33-.57-.09-1.08-.33-.48-.24-.93-.63-.42-.39-.69-.87zm-7.8 4.5l1.41-.81q.87-.51 1.65-.96t1.44-.84q1.02 1.77 2.76 2.79 1.29.75 2.79.93 1.53.18 2.97-.21t2.64-1.29q1.23-.93 1.95-2.22.66.39 1.41.84.75.42 1.65.96.93.51 1.44.81-.3.51-.69.72-1.02.6-2.91 1.68-1.86 1.05-3.39 1.92l-2.91 1.71q-.54.33-1.2.33-.63 0-1.14-.36-1.05-.6-9.21-5.28-.36-.21-.66-.72zM74.503 60.316l-.36-.18q-.18-.12-.42-.21-.21-.09-.39-.12-.15-.03-.33-.09v-.72q0-.36-.06-.72t-.06-.72v-.72q0-.03.06-.06l.06-.06h.06l.36-.18.36-.18q.18-.06.39-.15t.39-.18.36-.27.21-.36.03-.36-.06-.42q-.18-.36-.33-.72-.12-.36-.27-.66l-.36-.72q-.18-.36-.3-.72-.18-.18-.3-.36t-.3-.21-.39-.03-.39.09-.39.18-.39.15l-.36.18-.36.18h-.18q-.06 0-.12-.06h-.06q-.18-.18-.27-.33-.06-.15-.21-.27l-.24-.24-.24-.24q-.18-.06-.27-.21-.06-.15-.21-.21l-.24-.18-.3-.24.18-.36q.06-.18.18-.42l.18-.42q.06-.24.18-.42.06-.24.06-.45 0-.24-.09-.45-.09-.24-.27-.36t-.42-.24q-.33-.18-.72-.3-.36-.12-.66-.24t-.66-.21-.6-.27q-.36-.06-.57-.06t-.45.09q-.21.09-.36.27-.12.15-.18.42-.12.18-.21.39-.06.21-.15.39l-.12.36q-.06.18-.12.3-.36.12-.72.12h-.72q-.36 0-.72.03-.33.03-.66.03h-.06q-.03 0-.09-.03-.03-.03-.03-.09v-.06l-.18-.3q-.06-.18-.15-.42t-.21-.42l-.18-.3q-.06-.24-.24-.39t-.36-.18q-.18-.06-.36-.03-.18 0-.42.06-.36.18-.72.3t-.69.3-.69.3q-.36.12-.72.3-.18.12-.36.3-.15.18-.21.36-.03.15-.03.33 0 .15.12.45l.18.36q.06.18.15.39t.15.39l.18.3v.24q0 .06-.03.06t-.03.06q-.12.12-.24.21t-.18.15l-.18.18-.18.18-.3.3q-.15.15-.3.33-.12.15-.24.27l-.3.3q-.18-.06-.42-.09-.24-.06-.39-.12-.18-.09-.39-.18-.24-.09-.42-.21-.24-.06-.45-.06-.24 0-.45.09-.24.09-.36.27t-.18.42l-.33.66q-.15.3-.24.63t-.21.66-.3.69q-.06.24-.06.51t.09.45q.06.18.24.36.15.18.45.24.18.06.39.15t.39.15.36.12l.36.18q.06.33.06.72v.66q0 .36.06.69t.06.63v.18q0 .03-.06.03-.06-.03-.12.03v.06l-.36.18q-.18.06-.39.15-.24.09-.39.21l-.36.18q-.3.06-.42.21-.12.12-.18.33t-.06.39q0 .15.12.45.18.36.3.69t.3.69.33.72.27.66q.12.18.3.33t.36.24.36.09q.15 0 .42-.12l.36-.18q.18-.06.39-.15t.39-.21l.36-.18h.24l.06.12.24.24.24.24.3.24q.09.12.24.3.06.12.18.21.15.09.27.21.15.12.27.21t.24.21q-.12.24-.15.42t-.12.39-.18.39-.18.45-.09.48.09.39.27.36.42.24q.36.12.63.24.3.12.66.24.39.12.69.27t.66.21q.24.18.51.18t.45-.09.33-.27q.18-.18.27-.48l.18-.36q.06-.18.12-.42t.12-.42l.18-.3h.72q.36 0 .69-.06.36-.06.69-.06h.78q.03 0 .03.06t.03.06q.06 0 .06.06l.18.36q.06.18.15.39t.21.39l.12.36.24.36q.12.18.3.21t.39.03q.24 0 .39-.06.48-.18.81-.33.36-.15.69-.27l.72-.36q.36-.18.72-.3.18-.06.3-.24t.21-.36.09-.39-.09-.39-.21-.42q-.06-.21-.18-.36l-.12-.36-.18-.36v-.3l.06-.06q.12-.18.24-.27t.24-.21l.3-.24q.12-.15.3-.24.06-.18.18-.24l.18-.24q.15-.12.21-.24.09-.12.21-.24h.06q.18.12.36.15t.39.12q.24.09.39.18.18.09.45.18t.48.09.39-.09.36-.27.24-.42q.12-.36.24-.66.15-.33.27-.66.15-.36.27-.66t.18-.66q.18-.3.18-.54t-.09-.45q-.09-.24-.27-.36-.15-.15-.48-.21zm-9.84 2.88q-.93.42-1.95.48t-1.98-.36q-.93-.42-1.71-1.08-.75-.69-1.2-1.65-.42-.96-.42-1.95 0-1.02.36-1.95.36-.96 1.05-1.74.72-.81 1.65-1.23 1.05-.42 2.04-.42 1.02 0 1.92.36.93.36 1.68 1.08.78.69 1.2 1.62.45 1.05.48 2.07.06.99-.36 1.92-.39.9-1.05 1.65-.66.72-1.71 1.2zM63.323 77.398q-.36-.36-.78-.66l-.87-.6q-.45-.3-.9-.54l-.93-.42q-.54-.18-1.14-.36-.63-.18-1.2-.27t-1.17-.09-1.23.09q-.6.06-1.23.21-.6.15-1.17.36t-1.11.51q-.51.27-1.05.63-.51.36-.96.78-.42.39-.87.84-.45.42-.84.93t-.75.99q-.18.36-.36.66-.15.3-.39.66-.21.36-.39.66l-.33.66-.54 1.08q-.24.54-.51 1.08t-.51 1.11q-.21.57-.36 1.17-.27.6-.45 1.26l-.36 1.32q-.18.69-.3 1.32t-.21 1.38q-.09.42-.18.9-.09.45-.09.9 0 .42-.03.93-.06.48-.06.99l.03.12.06.18v.36h11.64v-.12q-.27-.54-.45-1.11-.15-.57-.33-1.17t-.36-1.17q-.18-.6-.33-1.17-.09-.48-.15-.84-.03-.39-.12-.84t-.15-.87q-.03-.45-.03-.87-.09-.3-.09-.54V86.158q.09-.36.09-.75t.09-.75l.18-.66q.09-.36.18-.6.36-1.05.81-1.89.48-.87 1.08-1.56.63-.72 1.41-1.29.81-.6 1.77-.96.36-.18.69-.3.36-.15.75-.24t.78-.06q.42 0 .84.06.36 0 .69.09.36.06.66.27.3.18.57.36t.54.42h.09q0-.06.09-.15t.12-.18q.06-.09.12-.21l.18-.18-.09-.06-.03-.06-.06-.06zm-23.55 13.26q0 .24-.03.51-.06.27-.06.54t-.06.57-.12.54q.36 0 .63.06l.54.06q.27.06.54.06.24 0 .51.12.09-.3.15-.6.03-.3.09-.57.03-.27.06-.57t.12-.54q-.33 0-.6-.06t-.57-.06-.57-.03-.63-.03zm4.29-6.6l-.51-.18q-.27-.06-.54-.21t-.51-.21q-.27-.09-.45-.18-.09.3-.15.48l-.18.42q-.09.24-.18.51t-.18.45l.54.18.51.18.51.18.54.18q0-.3.09-.54l.18-.42q.09-.21.15-.36.09-.18.18-.48zm10.86 8.76h-.03q-.03 0-.06-.06h-1.92v.06h.09q0 .18.06.36l.09.36.09.36q.03.18.12.3v.06q0 .06.03.06t.03.03.09.03h.99q.27 0 .51.06.27.06.54.06h.18v-.12h-.09l-.18-.36q-.09-.21-.18-.39t-.18-.39q-.09-.24-.18-.42zm-7.44-14.34q-.27-.12-.45-.24l-.33-.24q-.18-.15-.42-.27-.21-.15-.39-.21l-.3.36q-.12.18-.3.36l-.3.36q-.12.15-.3.3.18.12.39.24t.39.24.39.27.39.33q.18-.18.3-.42.15-.24.3-.36.18-.12.3-.33.15-.21.33-.33v-.06zm4.83 10.32v.12h.03q.03.06.03.03.03-.06.03.03.27 0 .42.15.18.12.39.18.21.03.42.15.24.12.42.12 0 .06.03.06t.06.06v-1.08q0-.18-.09-.24v-.12q0 .03-.09-.06-.18 0-.36-.18t-.36-.21q-.15-.06-.39-.18-.21-.15-.36-.15v-.06-.03q0-.09-.06-.03-.03.06-.03-.06v.84q0 .24-.06.36-.03.12-.03.42v-.12zm-.45-13.92q-.09 0-.24-.21-.12-.21-.24-.3t-.27-.27q-.12-.18-.21-.24 0-.12-.06-.06-.03.06-.03 0 0 .03-.09-.06-.09.18-.27.24t-.36.18q-.15.12-.33.15t-.24.21q-.09-.06-.09 0v-.06q.09.24.21.39t.24.33q.15.15.27.3.12.12.3.36.18-.18.36-.27t.36-.21.33-.15q.18-.03.36-.33zm.63 9.72q.18 0 .33.24.18.21.33.36.18.12.39.3.24.18.42.24v.12q0-.3.03-.42.06-.12.09-.36l.09-.36.15-.36q0 .06-.06-.03-.03-.09-.03.03 0-.12-.06-.06-.03.06-.03-.03t-.06-.06q-.03.03-.03-.03l-.21-.24q-.12-.12-.27-.15-.15-.06-.27-.18-.12-.15-.3-.15-.09 0-.15.21-.03.21-.12.3t-.12.27-.12.3v.06zm4.11-10.26v-.18q0-.06-.06-.18-.03-.15-.03-.21 0-.09-.06-.24-.03-.15-.03-.21v-.12q0-.06-.06 0-.03.03-.12-.06-.09.06-.24.03-.12-.03-.3-.03-.15 0-.3-.06-.12-.06-.3.06 0-.12-.09-.06t-.18 0-.18 0-.15-.06q.09.3.06.39 0 .09.03.3.06.21.09.36.06.12.06.27.27-.06.48-.03.24.03.45 0t.42 0q.24.03.51-.03v.06zm-.96 6.84v-.24q-.09 0-.24-.24-.12-.24-.21-.33t-.18-.24q-.09-.18-.18-.27v-.06.06-.06l-.03-.06q-.03 0-.06-.06-.09.18-.21.27t-.21.24q-.09.12-.24.18-.12.03-.21.27.18.12.3.33.15.21.3.36.18.15.36.36t.27.27q.09-.06.12-.21.06-.15.15-.21.09-.09.12-.21.06-.15.15-.15zm2.16-3.12q-.18.06-.3.06t-.3.09-.3.09-.3.12q.09.06.12.24.06.18.15.27t.15.27q.09.18.09.24.18 0 .27-.12t.18-.18.15-.18q.09-.12.18-.12.09-.12.09-.06v-.06l-.03-.12q-.03-.12-.06-.15 0-.03-.03-.21l-.06-.12v-.06zm2.82-2.82q.15.18.27.18.15 0 .27.12.15.12.33.18t.36.18q0-.12.03-.12.06 0 .06-.09t.03-.09.12-.18q-.27 0-.45-.18-.15-.18-.33-.27t-.36-.27-.33-.18v-.06.78-.06.06zm.87 2.88q-.09-.06-.24-.06-.12 0-.21-.06t-.21-.06-.21-.06q0 .06-.06-.03-.03-.09-.09-.03-.03.06-.09 0-.03-.06-.03.06v.6q.18.06.3.03t.24 0q.15.03.33.03t.36.12v-.54q0 .12-.06.03l-.03-.09v.06zM53.743 102.491l8.22-7.62v3.6l-6.24 5.46v.06l6.24 5.4v3.72l-8.22-7.62v-3zm21.84 3.06l-8.22 7.56v-3.72l6.42-5.4v-.06l-6.42-5.46v-3.6l8.22 7.56v3.12zM46.583 138.395l1.14-5.58h-3.48v-2.88h4.2l.66-3.54h-3.66v-2.88h4.32l1.02-5.4h3.96l-1.14 5.4h3.96l1.14-5.4h3.84l-1.14 5.4h3.48v2.88h-4.02l-.72 3.54h3.6v2.88h-4.26l-1.08 5.58h-3.96l1.08-5.58h-3.96l-1.02 5.58h-3.96zm9.66-8.46l.66-3.54h-3.9l-.72 3.54h3.96zM50.953 160.489l5.94-9-5.94-9h4.5l5.94 9-5.94 9h-4.5zm5.94 0l6.06-9-6.06-9h4.5l12.06 18h-4.56l-3.72-5.64-3.78 5.64h-4.5zm14.52-5.25l-1.98-3h6.96v3h-4.98zm-3-4.5l-1.98-3h9.96v3h-7.98zM55.683 175.463q.15.025.225.15.075.1.025.25-.025.125-.15.2-.1.075-.25.05-2.25-.425-3.9 0-1.625.4-2.25 1.475-.5.825-.35 1.95.15 1.1.9 2.375.05.1.025.25-.025.125-.15.2t-.25.05q-.125-.05-.225-.175-.8-1.425-.95-2.7t.45-2.275q.775-1.325 2.575-1.8t4.275 0zm-4.65 9.075q-.075-.1-.075-.225 0-.15.1-.25t.25-.075q.125 0 .225.1 1.95 2.15 4.85 3.825 2.2 1.275 4.475 1.95 2.3.675 4.125.625 1.85-.05 2.95-.8.1-.075.25-.05t.225.15q.075.1.025.25-.025.125-.1.2-1.9 1.275-5.325.775-3.4-.5-6.975-2.525-2.95-1.7-5-3.95zm16.5-.4q-.1.1-.25.125-.15 0-.25-.075-.1-.1-.1-.225 0-.15.1-.25 1.45-1.75 1.925-3.375.5-1.625-.175-2.725-.475-.8-1.475-1.225-1-.45-2.425-.45-.1 0-.2-.1t-.1-.225q0-.15.1-.25t.2-.1q1.625.025 2.775.55 1.175.5 1.725 1.475.75 1.35.25 3.15t-2.1 3.7zm-5.5-8.575q.1-.025.225.05t.175.2q.025.125-.05.25t-.2.15q-2.85.625-5.8 2.3-2.275 1.35-4.025 3.025-1.75 1.65-2.6 3.325-.875 1.65-.675 2.975 0 .1-.025.175l-.1.15q-.075.05-.175.05t-.225-.075-.125-.2q-.25-1.5.65-3.3t2.725-3.55q1.85-1.775 4.275-3.175 2.95-1.7 5.95-2.35zm-7.95 14.475q-.025-.125.025-.25.075-.15.175-.2.075-.025.175 0 .1 0 .175.075.075.05.1.125.55 1.45 1.225 2.475.675 1.05 1.5 1.575.825.55 1.625.55.95 0 1.8-.65.875-.625 1.65-1.825.025-.125.175-.175.15-.025.275.05.1.05.125.2.05.15-.025.25-.55.925-1.175 1.55t-1.35.95-1.475.325q-1.525 0-2.85-1.325-1.3-1.325-2.15-3.7zm10.25-.6q-.05.125-.175.2-.125.05-.25 0t-.2-.15q-.075-.125-.025-.275.85-2.775.85-6 0-2.625-.55-4.925-.55-2.325-1.55-3.9-.975-1.575-2.2-2.125-.125-.05-.175-.175-.05-.15-.025-.25.05-.125.2-.175t.25 0q1.4.6 2.475 2.275t1.675 4.1.6 5.175q0 3.425-.9 6.225zm6.3-.35q0 .675-.5 1.15-.475.45-1.15.45-.65 0-1.125-.45-.45-.475-.475-1.125 0-.675.475-1.15.5-.475 1.15-.475.675 0 1.15.475t.475 1.125zm-.975.675q.275-.275.275-.675t-.275-.675q-.25-.275-.675-.275-.25 0-.475.15-.2.125-.325.35-.1.2-.1.45 0 .4.25.675.275.275.65.275.4 0 .675-.275zm-19.35.475q-.5.45-1.15.45-.675 0-1.15-.45-.475-.475-.475-1.125 0-.675.5-1.15.475-.475 1.15-.475.65 0 1.125.475t.475 1.15q0 .65-.475 1.125zm-1.8-.475q.25.275.65.275.375 0 .65-.275t.275-.675-.25-.675q-.275-.275-.65-.275-.4 0-.675.275t-.275.675.275.675zm11.725-16.95q-.475.475-1.15.475-.65 0-1.125-.475t-.475-1.125q0-.675.475-1.15.5-.475 1.15-.475.675 0 1.15.475t.475 1.15q0 .65-.5 1.125zm-1.15-.2q.4 0 .675-.275.3-.275.275-.65 0-.4-.275-.675-.25-.275-.65-.275-.375 0-.65.275t-.275.675q0 .375.25.65t.65.275zm.975 11.25q-.25.375-.725.475t-.875-.15q-.4-.275-.5-.725-.1-.475.15-.875.275-.4.725-.5.475-.1.875.175.425.25.525.725t-.175.875zM78.453 162.222h3.84l-.09 10.68q.09 1.86-.36 3.09-.42 1.2-1.17 2.01-.75.78-1.95 1.08-1.17.3-2.46.3h-.72q-.36 0-.75-.03-.39-.06-.69-.15t-.75-.15l.54-3.18q.18.09.45.15.24.03.42.09.18.03.48.09.3.03.57.03.69 0 1.11-.18.45-.18.81-.51.36-.36.54-.99.18-.66.24-1.74l-.06-10.59zm7.17 12.96q.27.15.78.39.54.21 1.05.36.51.12 1.11.21.63.09 1.17.09.78 0 1.23-.12.45-.15.84-.36t.51-.54q.12-.36.21-.81l-.18-.69q-.09-.36-.48-.63-.36-.27-.9-.51-.54-.27-1.32-.54-.96-.36-1.89-.81-.9-.48-1.47-1.08-.57-.63-.93-1.41-.36-.81-.27-1.68-.09-1.05.39-2.01.51-.99 1.29-1.62.78-.66 2.01-1.05t2.64-.39q.78 0 1.35.03t1.17.18q.63.12 1.02.3t.81.27l-.96 3.15q-.09-.18-.51-.3-.45-.12-.84-.27-.39-.12-.96-.15-.57-.06-1.08-.06-.69 0-1.14.12t-.81.36q-.33.21-.42.48t-.18.6q.09.45.21.75t.57.57l.96.51q.54.27 1.5.54 1.05.45 1.86.99.84.51 1.35 1.11.54.6.84 1.35.33.75.24 1.62.09 1.05-.42 2.01-.48.96-1.26 1.68-.78.69-2.1 1.14-1.29.42-2.97.42-.78 0-1.5-.09-.69-.09-1.35-.21t-1.14-.3-.9-.45l.87-3.15zM100.263 134.748h.48l.06.06h.21q.03 0 .06.06.03.03.09 0l.18.06h.12q.06 0 .06.03l.03.03h.15l.06.06h.06l.06.06h.06q.03.06.06.06.06 0 .12.06h.12l.06.06.06.06h.06l.18.09q.09.03.12-.03l.06-.06q0-.06.03-.06t.03-.06l.06-.06h.09l.03-.06h.06l.12-.06q.12-.06.15-.09.06-.03.15-.03h.06q.09 0 .12-.06h.24l.06.06h.21l.09.06q.12.03.21.03t.09.09q.06 0 .06.03l.06.03h.06v.06l.12.06q.06 0 .06.03v.03l.06.06h.06l.06.06.06.06v.06h.06q.03.06.03.12.03.06.03.12v.06q0 .03.03.09l.03.03v.48l-.03.06q0 .09-.03.12 0 .03-.03.09 0 .03-.03.03v.18l-.06.06v.06l-.06.12v.06l-.06.06v.06q-.06.12-.06.15t0 .03 0 .06v.06l.06.06.06.03.06.03q0 .06.03.09t.03.03l.03.06h.03v.06h.06v.06q.06 0 .06.06v.06h.06q.03.06.06.15.06.06.06.09t.03.09.06.09.03.03 0 .03v.06h.06v.06l.06.12v.12l.06.06h.06v.06q0 .06.03.06h.03v.06l.06.06v.18h.06v.03q0 .03.03.09.03.03.03.06h.06v.18h.03v.06q.03 0 .03.06v.12h.06v.12q0 .06.03.06l.03.12q0 .03.03.03l.03.03q-.06 0-.03.03l.03.03.06.12v.12l.06.12.06.06v.18q0 .03.06 0 .03.06.03.15.03.06.03.09v.06h.06v.12h.06v.09q.03 0 .06.03h.06v.06l.06.06v.06l.06.06v.06h.09l.03.06v.06q.03 0 .06.09.06.06.12.15l.03.03.03.03v.06l.06.06q.03 0 .06.12l.06.12.06.06q0 .06.06.12v.18l.06.06v.18h.03q0 .03.03.09.06.03.06.06t.06.03l.06-.06h.63q.09-.03.09-.06h.12q.12 0 .12.06l.12.03q.03.03.06.03 0 .03.03.03.06-.03.03.03h.06q0 .06.06.09.09.03.12.09v.03q0 .03.06.09.03.03 0 .09v.15l-.06.06v.12h-.06v.18q0 .03-.03.03 0-.03-.03.03v.06q0 .03-.06 0v.06q0 .03-.03.03-.03-.03-.09.03l-.06.06h-.12v.06h-.24v-.06h-.12q-.03 0-.09-.03l-.03-.03h-.24l-.03.03q.03 0 .03.03v.12q.03 0 .06.06v.12q0 .06.06.06v.3l.03.03.03.15v.06h.06v.48l.06.06V146.928l.06.06v.48q.03 0 .03.03.03.03.03.18v.33l-.06.06v.3l.06.06v.06l-.06.06v.9l.06.06v.12h-.06v.06l.03.09q0 .09-.03.09v.06h.06v.18q0 .12-.06.12v.18l-.03.06q.03 0 .03.06h.03q0 .06-.03.06v.24l-.06.06v.54q0 .03-.03.06h.03l-.03.06-.03.06v.54h-.06v.18h-.06v.36l-.06.06v.3q0 .03-.06 0v.3h-.03q0 .03-.03.06v.06l-.06.06v.12q-.06.03-.06.12v.12h.06q.06 0 .18.06h.24l.06.06h.09q.06.06.09.06h.06l.06.06.06.06.06.06.06.06q0 .06.03.06.06 0 .03.06h.06v.03q0 .03.03.09l.03.06v.12q.03.03.03.09 0 .03-.03.15v.12q0 .03-.06.06v.03q-.06 0-.06.06 0 .03-.06.12-.03.06-.12.09 0 .03-.09.09-.06.03-.09.03h-.06v.06h-.18q-.06 0-.12-.06l-.09-.06-.09-.06-.18-.18q-.03-.06-.12-.06v-.06l-.06-.06h-.18v-.06h-.12l-.06.06h-.06l-.18.18-.18.18-.06.06h-.06v.12h-.06l-.06.06-.06.06h-.06v.06q-.06 0-.09.06-.03.03-.15.12l-.03.03q-.03.03-.09.03l-.15.15q-.09.06-.09.09h-.09q-.03 0-.03.06-.06 0-.06.06 0 .03-.06 0l-.06.06q-.06.03-.06.06-.03 0-.09.03l-.03.03-.09.09q-.09.09-.15.09t-.12.03-.06.06-.06.03h-.06q-.06 0-.06.06-.06.06-.09.06t-.09 0q-.03.06-.06.06t-.06 0l-.06.06-.06.06h-.06l-.06.06h-.06l-.06.06h-.06l-.06.06q-.12.03-.18.06h-.06l-.12.06-.18.12q-.06.03-.18.06h-.06q-.03 0 0 .06-.06.03-.09 0h-.09v.06h-.06l-.06.06h-.06l-.18.06-.06.06h-.06l-.06.06h-.12q-.03 0-.12.06h-.18l-.12.06h-.12l-.06.06h-.06l-.06.06h-.06l-.06.03v.03H101.523l-.06.06h-.12l-.06.06q-.12.03-.15 0l-.06.03-.03.03h-.36l-.06.03q-.03 0-.06.03H99.723l-.06.06-.06.06-.03.03-.03.09-.03.03q-.03.03-.09.03v.06h-.06l-.06.06-.12.12v.12l-.06.12-.06.06v.18h-.06v.06l-.06.06v.12l-.06.06-.06.06-.03.03-.03.03h-.06q-.03 0 0 .06h-.66l-.18-.06h-.06q-.03 0-.06-.06l-.06-.06h-.12v-.12h-.06v-.06-.12h-.06v-.12l.03-.06q0-.03.03-.06v-.06h.06v-.12h.06v-.12q.06 0 .06-.03t0-.06v-.03l.06-.06q.06-.15.12-.21l.06-.03q0-.06.03-.15.06-.09.09-.15.03-.03 0-.06v-.09q0-.03-.03-.03h-.15l-.06-.06h-.06l-.06-.06h-.06v-.03l-.06-.03q-.06-.06-.12-.06l-.06-.06v-.06h-.06l-.06-.06-.06-.06-.06-.12q-.09-.03-.15-.06-.03-.03-.03-.06-.03-.03-.03-.06t-.06-.03-.09-.03v-.06l-.06-.12-.12-.06-.06-.06v-.06l-.06-.06q-.03-.06-.06-.06h-.3l-.06.06h-.12l-.06-.06-.12-.06q-.03-.03-.09-.06-.03-.06-.03-.12v-.18l.06-.06v-.03l.06-.09.03-.06.03-.06.06-.06h.06v-.06l-.06-.12v-.12l-.06-.06v-.24h-.06v-.18l-.06-.06v-.18q0-.03-.06-.06V154.068v-.12q0-.12.06-.18v-.12-.15V152.508l-.06-.06V151.668q0-.06-.06-.12v-.18h-.06v-.12-.06-.24q-.06 0-.06-.03t0-.03q0-.03-.03-.06 0-.06-.03-.12v-.12h-.06v-.12-.03-.15h-.06v-.3q0-.03-.06-.06v-.06-.36q-.03-.12-.09-.24-.06-.15-.09-.18t-.06-.06v-.12l-.06-.06v-.06l-.06-.06v-.03-.03h-.06v-.06l-.06-.09q-.09-.09-.12-.21-.06-.06-.12-.15-.03-.09-.06-.15l-.06-.06v-.06h-.06v-.12h-.06v-.06h-.03l-.03-.06v-.06l-.03-.03-.03-.09q-.06-.03-.06-.06t0-.06h-.03q0-.03-.03-.06l-.06-.06v-.06h-.06v-.06l-.06-.06q-.06-.03-.06-.06l-.12-.24-.06-.06h-.06v-.06q0-.03-.06-.06l-.03-.06q0-.03-.03-.03v-.09h-.06v-.06q-.03-.06-.09-.15-.03-.12-.09-.15v-.18h-.06v-.06q0-.06-.03-.09t-.03-.06 0-.06l-.06-.03v-.06l-.06-.06q-.03-.09-.06-.12v-.12l-.03-.03q0-.03-.03-.09l-.06-.12-.06-.06v-.06q0-.03-.06-.12l-.06-.06q-.03 0-.03-.06t-.03-.12q-.03 0-.03-.06l-.03-.06v-.06h-.03l-.03-.06q-.03 0-.03-.09.03-.09-.03-.21v-.12l-.06-.12v-.06l-.03-.03-.03-.03v-.06l-.06-.06v-.06q-.06 0-.12-.03-.03-.03-.06-.03l-.09-.03q-.09-.06-.09-.09h-.06q-.03 0-.09-.03-.03-.03-.09-.03h-.03-.09l-.06-.06h-.12l-.06-.06h-.06q-.03 0-.12-.03l-.18-.09-.06-.06v-.06l-.06-.12-.06-.06-.03-.06q0-.03-.03 0v-.06q-.03 0-.03-.06-.03-.06-.03-.09v-.09l-.06-.06v-.12-.03q-.03-.06-.03-.09 0-.06-.03-.06v-.12-.24-.03q0-.06.06-.15v-.18l.06-.06v-.06-.06l.06-.06v-.06h.06v-.06l.06-.06q.06 0 .06-.06l.12-.12q.06-.06.12-.06v-.06h.06q0-.06.06-.06l.06-.06h.06l.06-.06q.03-.03.09-.06.09-.06.15-.06h.15q.03-.03.09-.12h.06l.03-.06q.03 0 .09.06.03 0 .03-.03l.03-.03v-.06l.06-.06v-.06q0-.03.03-.06l.03-.06v-.12q.06-.03.12-.18t.12-.18q.06-.06.06-.18.03 0 .06-.06l.06-.06.06-.06.06-.06v-.06q0-.06.06-.06t.06-.06l.06-.06.06-.06v-.03-.03h.06v-.06h.06v-.06h.06l.03-.06h.03l.12-.12q.06-.06.18-.12 0-.06.06-.12l.12-.06q.03-.03.03 0l.03-.06h.06l.06-.06.06-.06v-.06l.06-.06h.06q.06 0 .06-.06h.06v-.06h.06l.06-.06.06-.06q.06-.03.09-.06h.03q0-.06.03-.06h.09l.06-.06h.06l.06-.06h.06v-.06h.06l.06-.06.06-.06h.06v-.06h.15q.06-.03.03-.06.06 0 .09-.03.03-.06.09-.03v-.03q.03 0 .06-.03l.06-.06v-.06q.06 0 .09-.03t.09-.09l.06-.03.06-.03h.06l.12-.12.12-.06.06-.06h.06l.06-.06h.06v-.06q.03 0 .06-.03l.06-.03.12-.06.12-.06h.03q.03-.03.09-.06v-.06h.06l.06-.06h.06l.06-.03q.06 0 .06-.03l.12-.06.18-.12h.12l.06-.06h.06l.06-.06h.12l.03-.06h.15l.06-.06h.18l.06-.06h.12l.12-.06h.12l.03-.03q.06-.03.09-.03l.18-.03q.03 0 .06-.03h.24v-.06h.18l.06-.03q.03 0 .06-.03H100.263zM111.643 109.023q.69 0 1.14-.21.45-.24.66-.48.21-.27.24-.57.06-.33.06-.66v-.54q0-.27-.03-.51l-.09-.54q-.03-.27-.06-.51 0-.27-.06-.57-.03-.3-.03-.57v-1.05q0-.96.27-1.65.27-.72.84-1.14.57-.45 1.32-.66.75-.24 1.71-.24h.96v2.28h-.45q-.54 0-.84.18-.3.15-.51.39-.21.21-.3.6t-.09.84q0 .18.03.36.06.18.06.39t.03.39q.06.18.06.42 0 .18.03.42.03.21.03.45 0 .21.03.48.06.24.06.51 0 .78-.18 1.32-.15.51-.45.9t-.75.63q-.45.21-.96.3v.09q.54.09.96.36.45.24.75.6t.45.93q.18.54.18 1.35 0 .27-.06.54-.03.24-.03.48 0 .21-.03.42t-.03.48q0 .18-.06.39-.03.21-.03.39t-.06.36q-.03.18-.03.33 0 .54.09.9.09.33.3.6t.51.42q.33.12.84.12h.45v2.28h-.96q-.96 0-1.71-.18t-1.32-.6q-.57-.45-.84-1.2t-.27-1.71V116.223q0-.3.03-.54.06-.27.06-.54t.03-.57q.06-.3.09-.57.06-.27.06-.51v-.54q0-.27-.06-.57-.03-.3-.24-.6t-.63-.48q-.45-.18-1.17-.18v-2.1zm21.18 2.1q-.69 0-1.14.18-.42.18-.63.48t-.27.6q-.03.3-.03.57v.54q0 .27.03.51t.09.57q.03.3.03.57t.03.54q.06.24.06.57 0 .3.03.57.06.24.06.51 0 .96-.3 1.71t-.87 1.2q-.57.42-1.32.6t-1.71.18h-.96v-2.28h.45q.54 0 .84-.12.3-.15.51-.42t.3-.6q.09-.36.09-.9 0-.18-.06-.33-.03-.18-.03-.36t-.06-.39q-.03-.21-.03-.39 0-.27-.06-.48-.03-.21-.03-.42 0-.24-.06-.48-.03-.27-.03-.54 0-.78.18-1.35t.48-.93.75-.6q.45-.27.96-.36v-.09q-.54-.09-.99-.3-.42-.24-.72-.63t-.48-.9q-.18-.54-.18-1.32 0-.27.03-.51.06-.27.06-.48 0-.24.03-.45.06-.24.06-.42 0-.27.03-.42.06-.18.06-.39t.03-.39q.06-.18.06-.36 0-.45-.09-.84t-.3-.6q-.21-.24-.54-.36-.3-.12-.81-.21h-.45v-2.28h.96q.96 0 1.74.24.81.21 1.32.66.54.42.84 1.11t.3 1.68q0 .27-.06.54-.03.24-.03.51t-.06.57q-.03.3-.03.57 0 .24-.03.51l-.09.54q-.03.27-.03.51v.54q0 .36.03.66.06.3.27.57.21.24.63.48.45.21 1.14.21v2.1zM129.253 86.079q.09-.3.21-.81.15-.54.42-1.05.63-1.26 1.41-2.37.81-1.11 1.77-2.01t2.1-1.65 2.43-1.32q.51-.21 1.05-.27.57-.09 1.14-.09.66 0 1.11.45.45.42.51 1.11.03.36 0 .75 0 .39-.15.72-.63 1.65-1.5 3.03-.87 1.35-2.01 2.46t-2.52 1.98-3.03 1.47q-.12.03-.27.06-.12.03-.27.03-1.11.18-1.77-.45t-.63-2.04zm11.34-3.24q1.83-.12 3.6-.24 1.77-.15 3.63-.27-.15-.12-.24-.21-.06-.12-.15-.18l-3.24-2.58q-1.59-1.29-3.21-2.58-.15-.12-.3-.33-.12-.21-.33-.48h1.26q.6-.03 1.17 0h1.32q.69-.03 1.35.09 1.41.27 2.13 1.14.75.87.72 2.31-.03 1.35-.15 2.7t-.21 2.7q-.15 2.01-.3 4.11-.15 2.01-.3 4.11-.03.36-.09.75-.03.36-.06.78-.72-.66-1.44-1.29-.72-.66-1.47-1.29l-.18-.18q-.06-.09-.15-.15-.87-.57-1.32-1.38-.42-.81-.6-1.8-.27-1.29-.63-2.55l-.66-2.58q-.06-.15-.09-.27-.03-.15-.06-.33zm-9 10.5q.42-.06.78-.09.36-.06.69-.15.15-.03.27-.15.15-.12.18-.27.33-1.02.63-2.04l.6-2.1.06-.18q.06-.09.12-.24 1.86.63 3.72 1.23t3.78 1.2q-.99 1.02-2.07 1.86t-2.25 1.62l4.2.3q2.13.15 4.23.33v.12l-.93.06q-.42.03-.87.06l-2.7.18q-1.35.09-2.67.18l-2.67.18q-1.35.09-2.67.15-.45.03-.87.06t-.84.03q-1.83-.03-2.82-.99-.96-.96-.99-2.79-.03-1.02.06-2.01.09-1.02.15-2.04 0-.06.09-.12.09-.09.15-.18.09.09.21.18.09.06.12.15.57 1.26 1.08 2.52.54 1.26 1.08 2.49.03.12.06.21t.09.24z"/><path d="M165.163 55.125q-.06-.12-.18-.06t-.06.18q.54 1.02.9 2.58.39 1.56.39 2.73 0 1.59-.42 3.12-.42 1.5-1.17 2.79-.75 1.26-1.86 2.34-1.08 1.08-2.37 1.83-1.26.75-2.79 1.17-1.5.42-3.06.42-2.37 0-4.53-.93t-3.72-2.49-2.49-3.72-.93-4.53.93-4.53 2.49-3.72 3.72-2.49 4.53-.93q1.41 0 3.27.57 1.89.54 3.09 1.32.12.06.18-.06t-.06-.18q-1.23-.81-3.12-1.35-1.89-.57-3.36-.57-2.43 0-4.65.96-2.22.93-3.81 2.52t-2.52 3.81q-.96 2.22-.96 4.65t.96 4.65q.93 2.19 2.52 3.81 1.59 1.59 3.81 2.52 2.22.96 4.65.96t4.62-.96q2.22-.93 3.81-2.52 1.62-1.62 2.55-3.81.96-2.22.96-4.65 0-1.2-.39-2.79-.36-1.59-.93-2.64zm-19.77 5.43q0-1.26.33-2.43t.93-2.16q.6-1.02 1.44-1.86t1.83-1.44q1.02-.6 2.19-.9 1.17-.33 2.43-.33 1.86 0 3.54.72t2.91 1.95q1.23 1.2 1.95 2.91.72 1.68.72 3.54t-.72 3.57q-.72 1.68-1.95 2.91-1.23 1.2-2.91 1.92t-3.54.72-3.57-.72q-1.68-.72-2.91-1.92-1.23-1.23-1.95-2.91-.72-1.71-.72-3.57zm11.04-5.67q-.78.78-.78 1.89t.78 1.89 1.89.78 1.89-.78.78-1.89-.78-1.89-1.89-.78-1.89.78zm4.56-3.45q0-.72.36-1.35t.96-.99q.63-.36 1.35-.36 1.11 0 1.89.81.78.78.78 1.89 0 1.08-.78 1.89-.78.78-1.89.78t-1.89-.78-.78-1.89z" stroke="#000" stroke-width=".177"/><path d="M168.083 33.69H165.293q-.78 0-1.38.24-.57.21-1.02.66-.42.42-.69 1.05-.24.6-.24 1.29v2.67q0 .03-.06.09-.03.06-.12.09t-.18.03q-.18 0-.33-.03-.12-.03-.3-.03-.15 0-.33.03t-.27.03q-.54 0-.9-.12-.39-.12-.75-.33-.36-.24-.66-.54t-.48-.75q-.18-.27-.3-.57-.15-.3-.24-.6-.09-.33-.12-.66-.06-.36-.15-.72 0-.54-.03-1.08-.06-.57 0-1.17.03-.63.18-1.2.12-.57.3-1.08.18-.45.45-.87.27-.45.57-.75.3-.33.75-.54.42-.21.93-.3h6.24q.96 0 1.92-.09h.21q.03 0 .09-.03.06-.06.15-.06v-.51q0-.09-.09-.18h-.06q-.03 0-.09-.03-.03-.06-.12-.06h-5.1q-.09 0-.18-.09-.06-.09-.06-.18v-2.1q0-.33.03-.63.06-.33.21-.54.18-.24.39-.45.24-.21.6-.3.27-.18.48-.27t.51-.18q.33-.09.57-.12.27-.06.54-.15.6-.09 1.2-.12.63-.06 1.29-.06t1.26.09 1.32.27q.27 0 .51.09.27.09.48.24.24.12.48.27.27.12.45.27.27.18.45.42.18.21.27.45.09.21.18.48.09.24.09.48-.09.69-.09 1.32v1.23q0 .6.03 1.26.06.66.06 1.29 0 .69-.24 1.26-.21.57-.66 1.02-.42.42-.99.66-.57.21-1.29.21h-2.88zm-3.87-8.91q-.06.15-.06.42 0 .24.06.42.09.18.21.33.15.12.36.21.24.09.42.09.27 0 .42-.09.18-.09.36-.21.18-.15.27-.36t.09-.39q0-.24-.09-.42t-.27-.3q-.18-.15-.36-.24t-.42-.09q-.18 0-.42.09-.21.09-.36.24-.12.12-.21.3zm5.1 10.14H172.103q.78 0 1.35-.21.6-.24 1.02-.66.42-.45.69-1.05.27-.63.27-1.32v-2.67q0-.03.03-.09.06-.06.15-.09.09-.06.18-.06.18 0 .3.06.12.03.3.03t.36-.03q.18-.06.27-.06.54 0 .9.15.39.12.75.36.36.21.66.51t.48.75q.18.27.3.57.15.3.24.63.09.3.12.66.03.33.12.66 0 .54.03 1.11.06.57 0 1.2-.03.6-.15 1.17t-.3 1.08q-.18.45-.42.9-.21.42-.57.75-.33.3-.78.51-.42.21-.96.3h-6.21q-.96 0-1.92.09h-.21q-.03 0-.09.06-.06.03-.15.03v.51q0 .09.09.18h.06q.03 0 .06.06.06.03.15.03h5.07q.09 0 .18.09t.09.18v2.1q0 .33-.06.66-.03.3-.21.54-.15.21-.39.42-.21.21-.57.3-.27.18-.48.27t-.54.18q-.3.09-.57.12-.24.06-.51.15-.63.09-1.29.12-.63.03-1.26.03-.6 0-1.23-.09-.6-.06-1.29-.24-.27 0-.54-.09-.24-.09-.48-.24-.21-.12-.48-.27-.27-.12-.45-.3-.27-.18-.45-.39-.15-.21-.24-.42l-.18-.48q-.09-.27-.09-.54.09-.69.09-1.32v-1.23q0-.6-.06-1.26-.03-.66-.03-1.26 0-.69.21-1.26.24-.57.66-.99.45-.45 1.02-.66.57-.24 1.29-.24h2.88zm3.84 8.91q.09-.18.09-.42 0-.27-.09-.42-.09-.18-.21-.3-.12-.15-.36-.24-.21-.09-.39-.09-.27 0-.45.09-.15.09-.33.24-.18.12-.27.33t-.09.39q0 .27.09.45.09.15.27.3.18.12.33.21.18.09.45.09.18 0 .39-.09.24-.09.36-.21.12-.15.21-.33z"/><path fill="#d0d0cf" d="M119.423 198.419q-.05 1.625.675 4.775.2.875.65 1.675t1.075 1.575 1.3 1.575 1.525 2.05q.875 1.225 1.575 2.575.4.725.5 1.75.125 1.025-.075 2.15-.175 1.125-.625 2.2t-1.275 1.975q-.8.925-1.85 1.45-1.3.65-2.575.925-1.25.3-2.3.2-1.05-.075-2.025-.45-.95-.375-1.725-.95-.75-.55-1.4-1.325-.725-.85-1.225-1.8-.475-.95-.725-1.85t-.275-1.925.075-1.925.4-1.95q.275-1.05.575-1.875t.775-1.85.825-1.725q.375-.7.875-1.625 2.525-4.65 5.25-5.625zm0-.075q-.05 1.625.675 4.8.225 1 .725 1.825.5.8 1.35 1.85.025.025.1.125-.175 2.95.35 5.4.175.8.3 1.75.125.925.1 2.225 0 1.275-.25 2.25-.225.9-.625 1.6-.375.7-.8 1.15t-1.125.975q-.925.7-2.25.725t-2.7-.65-2.4-1.85q-.725-.85-1.225-1.8-.475-.95-.725-1.85-.25-.925-.275-1.95t.075-1.925.4-1.95q.275-1.05.575-1.85.3-.825.775-1.85t.825-1.725q.375-.725.875-1.65 2.525-4.65 5.25-5.625zm-1.525.825q-.075 2.225 1.1 5.075.2.45.575.975.4.525.875 1.05.5.525 1.075 1.1.6.55 1.2 1.125t1.175 1.175q.6.575 1.125 1.175t.9 1.175q.4.575.625 1.175.25.6.25 1.15.025 1.25-.2 2.4-.2 1.15-.65 2.175-.45 1-1.225 1.8-.775.825-1.775 1.35-1.325.675-2.675.875-1.325.225-2.475-.05t-2.1-.95-1.6-1.8-.9-2.575q-.175-.975-.225-2.225-.025-1.275.05-2.75.1-1.5.375-3.225t.725-3.45q1.225-4.725 3.775-6.75zm4.325 8.875q2.425 2.2 3.55 3.75 1.125 1.525 1.025 3.225.125 1.15-2.15 2.3-1.725.875-4.175 1.1t-5.175-.25q-3.625-.625-4.55-2.525-.325-2.525.425-4.85t1.85-4.575q-.65 6.125 1.975 7.95.75.525 1.725.8.975.25 1.925.225t1.875-.25q.95-.225 1.725-.6t1.3-.85q1.725-1.525-1.325-5.45zm-7.975-2.6q-.025 2.825 1.475 5.375 1.275 2.2 2.625 3.975 1.375 1.75 3.175 3.175 2.6 2.075 4.125 1.35-1.275 2.275-2.7 2.225-.6-.025-1.175-.2-.55-.15-1.3-.55-.725-.4-1.625-1.225-.875-.825-1.875-2.05-2.8-3.35-3.825-6.35.15-1.175.325-2.35.2-1.2.775-3.375zm4.375 2.575q-.15-1.55.5-2.475l2.65.8.45.55q-.45 1.625-.25 3.95.075.825.275 2.25.2 1.4.3 2.425t.025 1.625q-.15 1.15-.8 2.425-.625 1.275-1.65 2.1-.45.375-.975.625-.5.25-1.075.35-.55.1-1.05-.025t-.95-.575-.725-1.175q-.2-.475-.175-1 .05-.525.175-1 .15-.475.425-1t.575-.975.65-.925q.375-.475.675-.85.3-.4.55-.775.275-.4.4-.7.225-.475.3-1.025.1-.575.075-1.225t-.075-1.15q-.05-.525-.175-1.225-.1-.7-.125-1zm.95-7.6q.1.875.25 1.55.15.65.35 1.475l-3.725 10.8q-.2-2.675-.625-5.875-.125-.95-.125-1.675 0-.75.05-1.275.075-.525.3-1.05.25-.525.45-.85.225-.35.65-.925 1.125-1.65 2.425-2.175zm.6 3q-.6.625-1.35 1.9-.25.45-.45 1.05t-.3 1.1q-.075.5-.2 1.225-.1.7-.175 1.05-.275 1.3-1.15 4.225.65-4.6 1.425-7.15.775-2.575 2.2-3.4zm-4.375 18.3q.525.775 1.375.925.425.075.675.025.25-.025.35-.125.1-.075.025-.225-.1-.275-2.425-.6zm.775-21.3q-1.425 1.9-2.375 4.7-.925 2.775-1.1 5.7-.2-1.5-.225-2.725 0-1.225.125-1.85.4-.85 1.325-2.575.95-1.725 2.25-3.25zM104.233 87.479q.24-.09.42-.21.21-.12.42-.18.21-.09.39-.24.21-.18.36-.18.48-.39.69-.72.24-.36.24-.81t-.24-.75q-.21-.3-.69-.63-.09 0-.18-.12-.06-.12-.15-.15-.06-.03-.12-.18l-.03-.18q0-.33-.03-.54-.03-.24 0-.51.03-.3.15-.48t.27-.6q.33-.33.36-.78.03-.48-.12-.78-.15-.33-.6-.57-.42-.24-.96-.24 0-.06-.06-.03-.03.03-.03 0v-.03q-.09.06-.09 0 0-.09-.03-.03-.03.03-.03-.03v-.03l-.12-.48q-.03-.15 0-.39t.18-.39l.42-.39q.15 0 .27-.06.12-.09.27-.12.15-.06.27-.12.12-.09.27 0 .09-.15.15-.12.09.03.21-.03.12-.09.21-.06t.15-.03l-.03-.06-.03-.03v-.06.06q-.39-.48-.81-.66-.39-.21-.84-.36-.42-.15-.9-.15-.45 0-.93-.09-.57.15-1.05.27-.45.12-.9.45-.42.3-.78.6-.36.27-.66.66-.09 0-.18.09-.06.06-.15.06h-.15q-.06 0-.15-.09-.09.09-.12.03-.03-.09-.09-.12-.03-.06-.03-.15v-.06q.09-.15.09-.24v-.21q0-.12.03-.18.03-.09.03-.24.09 0 .12-.12l.09-.18q.03-.09.06-.21.06-.12.12-.21-.3-.06-.54.06t-.48.15-.45.24q-.18.18-.42.18-.06-.06-.15-.33-.06-.3-.06-.48 0-.21.03-.48t.12-.42q-.48.06-.84.27-.36.18-.63.42t-.48.6q-.18.36-.27.66-.15-.06-.24-.27t-.12-.36-.03-.33q0-.21-.06-.3 0-.06-.06-.03-.03.03-.03 0t-.06 0q-.03.03-.03-.03 0 .15-.03.12-.03-.06-.09-.03l-.03.06v.06q-.3.06-.51.36-.21.27-.33.48-.09.21-.24.54-.12.3-.12.45t-.03.15-.03.09q0 .06-.06.06-.03 0-.03.18l-.06-.09q0-.03-.03-.03 0-.03 0 0-.03.03-.12-.03-.09-.09-.15-.06-.03.03-.12-.12-.15-.09-.36-.27-.18-.21-.39-.33-.18-.12-.39-.3-.18-.21-.33-.27-.54-.39-1.11-.51t-1.17-.21q-.57-.09-1.14.12-.54.21-1.17.42-.06.15-.18.21-.12.03-.24.15t-.24.21q-.12.06-.21.24.15 0 .36.09.21.06.42.06.18 0 .33.12t.39.12q.33.24.51.36.21.12.33.36.12.21.12.51 0 .27-.15.66-.06 0-.21.03-.12.03-.21 0-.06-.03-.18.06-.12.06-.21-.03l-.54.3q-.24.12-.39.39t-.18.48q-.06.18.03.57.06.06.12.27.03.21.12.3.06.06.15.27.06.18.15.18 0 .15.06.18.03 0 .06.09.03.06.03.09v1.29q0 .24-.03.3-.03.03-.12.15t-.15.15q-.09.03-.18.21-.15 0-.21.15-.09.15-.21.24-.12.06-.18.21-.09.12-.18.18-.06.3-.09.51-.06.18.06.48.12.27.27.48.15.18.48.48.15 0 .36.18.18.15.39.24.18.09.42.24t.39.15q.33.24.51.36.21.12.33.36t.15.39.03.54v1.02q0 .24-.03.54-.03.27-.03.48v.24q0 .09-.06.24-.03.15-.03.24v.33q-.3-.33-.54-.51-.24-.21-.42-.51-.15-.33-.27-.6-.09-.27-.18-.69l-.51.51q-.21.18-.33.51t-.21.57q-.12.24-.12.63-.06.54 0 1.17t.36 1.14q.27.51.78.99t1.29.72q.06.06.09.06.06 0 .09.09.06.09.09.09t.03.06q.33.39.69.84t.78.66q.42.24.93.48.54.24 1.14.24.09.06.12.03.06-.03.09.03.03.09.03.06t.09.03q.48.3 1.02.51t1.11.27q.57.09 1.11.12.54.06 1.17-.09.33.06.63-.06.33-.12.63-.15.33-.03.6-.21.27-.15.6-.21 0-.15.06-.18.09 0 .15-.03.09-.03.15-.03.09 0 .18-.09.57 0 1.02-.24.48-.24.9-.48.45-.24.78-.63.36-.39.6-.78.09-.15.12-.15.06 0 .12-.09.09-.09.12-.09t.12-.06q.24-.06.51-.24.27-.15.48-.27.18-.12.39-.36t.36-.39q.3-.39.42-.75t.18-.75q.09-.39.09-.75t-.06-.84q-.06-.24-.15-.51t-.24-.45-.36-.42q-.21-.27-.45-.42l-.18.6q-.12.36-.3.6-.15.21-.39.45-.21.24-.54.39 0-.3-.03-.78t-.09-.87q-.03-.39-.03-.81v-.84q0-.24.06-.36.09-.12.21-.3.12-.21.27-.27.15-.09.39-.24zm-10.8 6.75q.33-.06.63-.03.33.03.63 0 .33-.03.63 0 .33.03.66-.03.48.06.87.03t.81 0q.45.03.87 0 .45-.03.84.03-.39-.06-.84-.03-.42.03-.87 0-.42-.03-.81 0t-.87-.03q-.33.06-.66.03-.3-.03-.63 0-.3.03-.63 0-.3-.03-.63.03z"/><g stroke="#000" stroke-width=".177"><path fill="#d0d0cf" d="M116.623 20.315q0 .06-.03.06h-.15q-.09 0-.12-.03 0-.06-.06-.15l-.03-.06q-.06-.03-.06-.12v-.09q.03-.03.09-.03l.18.12q.06.06.12.15t.06.15zm-1.71-.96q0-.39-.15-.57-.12-.18-.33-.21v.06q-.03.06-.09.06v.18h.3q0 .15.03.24.06.09.06.24h.18zm3.36-.48q.12 0 .21.12t.18.36h.18q-.06-.09-.09-.15v-.15q0-.06-.03-.12 0-.09-.06-.18l-.18-.12q-.06-.06-.12-.06l-.06.06q-.06.06-.15.06 0 .03.06.09.06.03.06.09zm-2.88 1.5h-.12v-.06-.15q.03-.09.12-.15.15 0 .21-.06l.06-.06q.09 0 .09.06l.03.06q0 .06-.09.15-.06.09-.21.21h-.09zm-1.05-.06q-.3-.15-.39-.36-.09-.24-.09-.6 0-.21.03-.36.03-.18.15-.3.06-.15.18-.21.15-.06.3-.09.15 0 .24.09.12.09.27.21.06.21.12.45.06.21.06.39v.24h.06v-.12q.09 0 .09-.15.03-.15.03-.45 0-.24-.03-.42-.03-.21-.15-.42-.15-.24-.33-.36-.15-.12-.45-.12-.21 0-.39.12t-.27.36q-.15.3-.21.54-.03.21-.03.6 0 .3.12.57t.39.57q.06-.06.12-.06.09-.03.18-.12zm11.97 13.44q.06 0 .06-.03l.03-.03q0-.18-.09-.36t-.3-.42q-.21-.21-.57-.33-.33-.15-.78-.21h-.3-.27q-.12-.03-.18-.06.21-.66.27-1.23.09-.6.09-1.17 0-.66-.15-1.2t-.39-.96q-.3-.48-.63-.69-.3-.21-.63-.27l-.09.09v.09q.36.15.69.45.33.27.54.69.24.51.3.99.06.45.06.93 0 .39-.09.99-.06.57-.36 1.35-.3.15-.57.42-.24.24-.48.66v.09q.03.03.09.03l.09-.06q.06-.03.09-.18.15-.12.24-.24t.24-.24q.24-.15.39-.18.18-.06.36-.06.39 0 .72.03t.54.15q.3.12.45.21t.24.21q.06.12.12.21.09.09.15.21 0 .06.06.12h.06zm-8.82-13.86q-.06-.06-.09-.18v-.24q0-.33.03-.48.03-.18.18-.42.15-.09.27-.18t.27-.06q.24 0 .39.12l.3.24q.09.21.12.39.06.15.06.39 0 .36-.15.57-.12.21-.42.27l.06.03q.06.03.15.03.15 0 .21.06.09.06.24.18.06-.45.12-.75.06-.33.06-.69 0-.48-.06-.75t-.21-.51q-.24-.21-.45-.3t-.51-.06q-.21 0-.42.06-.21.03-.42.18-.15.24-.24.42-.06.15-.06.36 0 .42.06.69.09.27.24.57.06 0 .12.06.09.03.15 0zm1.17 1.56q-.93.6-1.68.93-.72.33-1.32.33-.51 0-.99-.18-.48-.21-.9-.6.09.15.15.27t.12.21l.6.6q.27.24.6.39.36.15.72.15.51 0 1.08-.27.6-.27 1.32-.81l.84-.54q.15-.12.27-.3.12-.15.12-.36 0-.12-.03-.15 0-.03-.06-.03-.06-.15-.45-.36-.36-.21-1.08-.42-.63-.33-1.14-.45-.48-.12-.75-.09-.24 0-.6.12-.33.12-.84.42-.45.3-.72.57-.24.27-.24.57l.06.06q.06.09.12.24.45.36.87.54.45.18.84.18.6 0 1.32-.3.75-.3 1.65-1.02v.18q.09 0 .09.06l.03.06zm2.19 19.32q.27.54.75.81t1.08.27q.15 0 .27-.03.12 0 .27-.09.15 0 .27-.06.15-.03.24-.12.06-.03.12-.09.09-.03.12-.09.15-.06.18-.09.06-.03.12-.09l1.65-1.38q.27-.21.57-.45.3-.21.66-.39.3-.18.54-.3.27-.09.42-.12.21-.06.36-.15.18-.09.33-.21.06-.12.09-.24.06-.15.06-.3 0-.24-.12-.36-.09-.15-.24-.27t-.3-.21-.3-.12q-.12-.06-.27-.18l-.36-.36q-.15-.18-.3-.42-.12-.27-.21-.6l-.09-.54q-.06-.21-.09-.33-.03-.15-.12-.21v-.06h-.09q-.06 0-.18.09-.09.06-.18.15l-.3.3q-.15.12-.27.24-.09.15-.27.3l-.3.24-.42.18q-.21.09-.36.06-.6 0-.93-.15-.3-.18-.51-.51-.15-.21-.24-.45-.06-.27-.12-.57-.15-.12-.27-.18-.09-.06-.21-.06-.39 0-.54.36-.12.36-.12 1.14v2.94q0 .12-.06.24t-.06.36q-.06.27-.09.48v.54l-.18 1.08zm-13.89-.54q.66.15 1.44.36t1.65.54q.87.3 1.38.42.54.15.75.18.51 0 .9-.24.42-.24.78-.6.09-.15.09-.33v-.39q0-.66-.42-1.5t-1.2-1.92l-.69-.84q-.09-.12-.21-.33-.12-.24-.27-.51-.15-.3-.3-.51-.12-.21-.24-.33-.09-.18-.24-.36t-.33-.3q-.18-.15-.42-.27-.21-.15-.45-.21-.3.06-.51.18-.18.09-.3.24-.09.15-.15.3t-.06.3q-.03.15-.09.27-.03.09-.12.15-.06 0-.15.06-.12.06-.3.06h-.54q-.39 0-.63.06-.24.03-.39.12-.18.21-.27.45-.09.21-.09.45 0 .15.03.33l.09.45q.06.3.09.51t.03.33q0 .33-.09.6t-.27.6q-.21.3-.27.54-.09.24-.09.36.09.33.57.48.45.18 1.29.3zm3.21-8.7q0-.48.12-1.02t.39-1.2q.27-.6.51-1.05t.51-.75q0-.12-.03-.12h-.12l-.09-.06q-.21.21-.45.72l-.57 1.14q-.3.69-.45 1.29-.15.57-.15.99 0 .33.09.6t.21.48q.18.24.54.6.39.36.96.78l1.05.66q.81.69 1.2 1.2.42.48.42.78 0 .18-.09.33-.06.12-.27.33-.15.18-.33.24-.18.03-.33.06h-.03v.06l.09.18.21.42q.3.39.93.57.63.21 1.47.21 1.59 0 2.82-.63t2.16-1.95q0-.36-.03-.57 0-.21-.09-.33v-.36q0-.48.06-.81.09-.36.24-.57t.3-.3q.15-.12.36-.12.15 0 .3.06.15.03.3.12.06-.57.06-1.05.03-.48.03-.87 0-.69-.03-1.2-.03-.54-.18-1.08-.06-.42-.21-.75-.12-.36-.27-.69-.15-.24-.3-.42-.12-.18-.27-.42-.12-.24-.24-.45-.09-.21-.24-.39-.06-.3-.12-.57t-.06-.63q-.24-.36-.39-.72t-.39-.66q-.12-.36-.27-.72t-.3-.66l-.84.66q-.72.51-1.32.75-.6.21-1.08.21-.45 0-.78-.09t-.57-.39l-.57-.48q0 .24-.06.51t-.21.57l-.63 1.14q-.21.48-.33.81-.09.3-.12.51-.03.15-.03.3 0 .12-.03.12l-.72 1.44q-.6 1.08-.9 2.07-.27.96-.27 1.77v.33q.03.18.06.33-.33-.21-.48-.51-.15-.33-.15-.75zm6.84 9.06q-.93 0-1.65.15t-1.23.39v-.06q-.36.48-.78.69t-.96.21q-.36 0-.93-.15-.54-.15-1.26-.45-.75-.24-1.44-.42-.66-.18-1.23-.3-.06-.03-.18-.06-.15-.03-.36-.09-.21-.03-.39-.06t-.33-.06-.33-.09-.39-.12q-.18-.03-.3-.12t-.24-.12q-.09-.12-.15-.21t-.06-.21q0-.15.03-.27t.09-.27q.03-.03.09-.12.03-.09.09-.18.06-.06.09-.12l.06-.12q.03-.06.06-.15t.06-.12l.06-.12q.03-.09.06-.21 0-.03.03-.12v-.12q0-.12-.03-.33t-.09-.57l-.09-.63q-.03-.21-.03-.33 0-.3.09-.57.06-.27.21-.39.18-.18.33-.27t.33-.09h1.08q.06 0 .18-.06.09-.06.24-.12.03-.15.09-.21.03-.09.06-.21.03-.09.06-.12.03-.06.03-.12l.06-.06v-.06q.03-.09.06-.12.06-.06.09-.12-.06-.06-.09-.15t-.03-.21v-.18q0-.06.03-.12 0-.24.12-.6t.39-.84l.33-.6q.21-.42.36-.69.18-.3.3-.63.12-.24.24-.69.15-.45.3-.99.09-.54.36-1.02.27-.51.72-1.02l.69-.84q.39-.42.63-.78t.36-.66q.15-.3.21-.6.09-.33.09-.66 0-.12-.06-.54-.03-.42-.09-1.14-.09-.72-.12-1.44-.03-.69-.03-1.38 0-.48.03-.84.06-.39.15-.75.09-.39.27-.69.18-.33.42-.66.21-.3.51-.57t.72-.39q.45-.12.93-.21.51-.09 1.08-.09.21 0 .42.03.24 0 .42.09.24 0 .51.06.3.06.63.24.3.12.57.27.3.15.51.39.3.21.51.54.24.3.45.72.15.39.27.87.15.45.18.99.09.36.09.78.03.39.12.84 0 .48.03.75.06.27.06.51.06.24.09.54t.12.6q.06.33.15.6t.24.48q.12.3.27.57t.36.57q.24.36.51.75.3.39.54.75.63.72 1.14 1.5t.81 1.62q.36.66.54 1.59.21.9.21 1.89 0 .51-.09 1.02-.06.48-.21.9.15 0 .24.06t.15.18q.06.06.12.3.09.24.18.6l.09.66q.06.15.15.33.12.15.3.27.15.15.3.24.18.09.39.18.15.06.33.18.21.09.33.24.15.12.21.27.09.15.09.33 0 .21-.09.42-.06.18-.21.3-.15.18-.3.27-.12.12-.36.15-.15.06-.42.21t-.72.33l-.72.48-.72.54-.96.84q-.27.3-.57.48l-.45.3q-.24.18-.54.21-.27.06-.54.09l-.66-.12q-.6-.12-.96-.45-.36-.3-.57-.69-1.17-.12-2.07-.21t-1.47-.09zM107.103 45.069q-1.92-.84-4.08-.84t-4.08.84q-1.92.81-3.36 2.25t-2.25 3.36q-.84 1.92-.84 4.08 0 1.74.57 3.33.54 1.56 1.47 2.88.96 1.32 2.28 2.31 1.32.96 2.91 1.47.39.06.54-.12.15-.21.15-.39v-1.95q-2.19.48-2.85-.39l-.69-.87q-.39-.9-.78-1.23l-.39-.3q-.72-.51-.33-.57l.39-.06q.78.06 1.2.57l.42.51q.69 1.2 1.62 1.14.96-.06 1.44-.27.06-.54.24-.87.21-.36.42-.54-1.74-.21-3.27-1.2t-1.53-3.99q0-.84.3-1.56t.78-1.26q-.09-.21-.21-.96-.09-.75.3-1.83l.69.03q.72.03 2.22 1.05.63-.18 1.29-.27.69-.09 1.35-.09t1.32.09 1.32.27q1.5-1.02 2.22-1.05l.69-.03q.42 1.08.27 1.83-.12.75-.18.96.51.57.78 1.26.3.69.3 1.56 0 3.06-1.53 4.05-1.53.96-3.3 1.11.3.27.51.75t.21 1.23v2.88q0 .24.15.42.18.15.57.09 1.56-.54 2.88-1.5 1.32-.99 2.25-2.28.96-1.32 1.5-2.88.57-1.59.57-3.33 0-2.16-.84-4.08-.81-1.92-2.25-3.36t-3.36-2.25zM182.293 101.174q-1.65.21-3.51.24-1.86 0-3.51-.24t-2.88-.66-1.95-.96-.72-1.2v-3q0-.18.09-.36l.24-.36q.39.48 1.2.9.81.39 1.95.72 1.17.3 2.58.48 1.41.15 3 .12 1.59 0 3-.15 1.41-.18 2.55-.48 1.17-.3 1.98-.69.81-.42 1.2-.9.12.18.21.36.12.18.12.36v3q0 .66-.72 1.2t-1.95.96-2.88.66zm0-6.06q-1.65.24-3.51.24t-3.51-.21q-1.65-.24-2.88-.63-1.23-.42-1.95-.96t-.72-1.2v-3q0-.15.06-.24.03-.09.09-.24.03-.06.09-.15t.09-.15q.39.51 1.2.93.81.39 1.95.72 1.17.3 2.58.48 1.41.15 3 .15t3-.18 2.55-.48q1.17-.3 1.98-.69t1.2-.93q.03.06.09.15t.09.15q.06.15.09.27.06.12.06.21v3q0 .66-.72 1.2t-1.95.93-2.88.63zm0-6q-1.65.24-3.51.24t-3.51-.24-2.88-.63-1.95-.96q-.72-.6-.72-1.17V83.294q0-.6.72-1.14t1.95-.96 2.88-.66 3.51-.24 3.51.24 2.88.66q1.23.39 1.95.96.72.54.72 1.14v3.06q0 .6-.72 1.17-.72.54-1.95.96-1.23.39-2.88.63zm.75-6.84q-1.77-.42-4.26-.42t-4.26.45q-1.77.42-1.77.99 0 .66 1.77 1.11 1.77.42 4.26.39 2.49 0 4.26-.42 1.77-.45 1.77-1.08 0-.6-1.77-1.02zM152.023 123.869q0 .87-.51 1.53-.54.63-1.29.63-.72 0-1.23-.63-.54-.63-.54-1.53v-6.84q0-.84.54-1.47.51-.63 1.23-.63t1.26.63q.54.6.54 1.47v6.84zm20.79 0q0 .87-.54 1.53-.51.63-1.23.63t-1.26-.63-.54-1.53v-6.84q0-.84.51-1.47.54-.63 1.29-.63.72 0 1.23.63.54.6.54 1.47v6.84zm-8.28-15.54l1.14-2.1q.09-.12.06-.24 0-.12-.12-.18-.09-.03-.21.03-.12.03-.18.15l-1.17 2.1q-.78-.3-1.68-.48-.87-.18-1.77-.18-.93 0-1.83.18-.87.18-1.65.48l-1.17-2.1q-.09-.12-.21-.15-.12-.06-.21-.03-.09.06-.12.18 0 .12.06.24l1.14 2.1q-1.8.84-2.91 2.34-1.11 1.47-1.11 3.3v.39q.03.15.06.33h15.87q.03-.18.03-.36.03-.18.03-.36 0-1.86-1.14-3.33-1.11-1.47-2.91-2.31zm-7.08 3.36q-.18.21-.48.21-.3-.03-.51-.24t-.21-.51q0-.24.21-.42.21-.21.51-.24.3 0 .48.24.21.21.21.42 0 .33-.21.54zm6.81.18q-.3 0-.51-.21-.18-.21-.18-.51 0-.24.18-.42.21-.21.51-.24.27 0 .48.24.21.21.21.42 0 .33-.21.54t-.48.18zm-11.67 3.54v11.7h.03q.06.72.66 1.23.6.48 1.44.51h11.73q.81 0 1.44-.51t.69-1.23v-11.7h-15.99zm6.87 13.38v3.6q0 .87-.54 1.47-.51.63-1.26.63-.72 0-1.26-.63-.51-.6-.51-1.47v-3.6h3.57zm5.94 0v3.6q0 .87-.54 1.47-.51.63-1.23.63t-1.26-.63q-.54-.6-.54-1.47v-3.6h3.57zM194.923 118.659h-8.49v-7.32l8.49-1.2v8.52zm12.57 0h-11.43v-8.64l11.43-1.68v10.32zm-12.57.96h-8.49v7.26l8.49 1.2v-8.46zm12.57 0h-11.43v8.64l11.43 1.68v-10.32zM30.863 116.858q-.03-2.28 1.23-3.42 1.29-1.14 1.38-1.2-1.08-1.56-2.46-1.95-1.38-.42-1.98-.42-1.41-.15-2.67.48-1.23.6-1.95.6-.69 0-1.77-.51-1.05-.54-2.19-.54-1.56.03-2.91.87-1.32.81-2.1 2.19t-.93 3.03.15 3.3q.27 1.62.9 3.15t1.41 2.67q.75 1.08 1.68 2.07.96 1.02 2.13.99 1.17-.06 1.86-.54.72-.48 2.1-.48 1.41 0 2.07.48.69.51 1.89.51 1.23-.03 2.07-.96.87-.93 1.62-2.01.87-1.29 1.26-2.31.39-1.05.42-1.14-.03 0-1.62-1.05-1.56-1.08-1.59-3.81zm-4.65-7.71q.96-.51 1.59-1.26t.99-1.77q.39-1.02.27-2.07-.9.03-1.92.54-.99.51-1.62 1.26-.6.66-1.02 1.68t-.27 2.04q1.02.09 1.98-.42z"/></g></g><g stroke-linejoin="round" stroke="#000" stroke-linecap="round" stroke-width=".939" fill="#d0d0cf"><path d="M170.433 222.305h-8.003l-1.987 3.652h-5.304l11.333-20.048h5.908l3.545 20.048h-4.915l-.577-3.652zm-6.056-3.639h5.385l-1.209-7.72-4.176 7.72zM186.703 222.855q1.853 0 3.008-1.705 1.168-1.706 1.168-4.458 0-1.25-.658-1.947-.644-.699-1.813-.699-1.826 0-3.007 1.692-1.182 1.679-1.182 4.31 0 1.37.631 2.095.645.712 1.853.712zm5.062-9.735l1.558-8.057h4.847l-4.068 20.894h-4.848l.443-2.175q-1.1 1.316-2.31 1.947-1.208.618-2.645.618-2.537 0-4.014-1.612-1.477-1.61-1.477-4.39 0-1.733.51-3.37.523-1.64 1.49-2.982 1.222-1.692 2.753-2.565 1.544-.872 3.303-.872 1.544 0 2.619.63 1.087.618 1.84 1.934zM207.333 222.855q1.853 0 3.008-1.705 1.168-1.706 1.168-4.458 0-1.25-.658-1.947-.644-.699-1.813-.699-1.826 0-3.007 1.692-1.182 1.679-1.182 4.31 0 1.37.631 2.095.645.712 1.853.712zm5.062-9.735l1.558-8.057h4.847l-4.068 20.894h-4.848l.443-2.175q-1.1 1.316-2.31 1.947-1.208.618-2.644.618-2.538 0-4.015-1.612-1.477-1.61-1.477-4.39 0-1.733.51-3.37.524-1.64 1.49-2.982 1.222-1.692 2.753-2.565 1.544-.872 3.303-.872 1.544 0 2.619.63 1.087.618 1.84 1.934zM234.923 211.385l-.712 3.733q-1.41-.671-2.806-1.02-1.397-.35-2.645-.35-1.424 0-2.203.376-.765.363-.765 1.048 0 .402.43.644t1.692.51l.872.162q2.914.617 4.082 1.597 1.169.967 1.169 2.7 0 2.618-2.055 4.095-2.054 1.464-5.747 1.464-1.544 0-3.155-.242t-3.29-.725l.725-3.773q1.302.765 2.78 1.154 1.49.39 3.048.39 1.517 0 2.282-.363.766-.362.766-1.06 0-.484-.43-.753-.43-.268-1.773-.55l-.872-.161q-2.578-.537-3.68-1.585t-1.1-2.9q0-2.511 1.893-3.867 1.906-1.356 5.438-1.356 1.544 0 3.035.214 1.503.202 3.02.618zM251.783 205.915h5.17l-3.908 20.048h-5.17l3.908-20.048zM274.453 211.385l-.765 3.92q-.967-.644-1.907-.98-.94-.335-1.84-.335-2.35 0-3.84 1.584-1.49 1.571-1.49 4.029 0 1.57.926 2.444.927.859 2.618.859 1.128 0 2.216-.336 1.088-.335 2.068-.993l-.739 3.934q-1.195.416-2.403.618-1.209.214-2.43.214-3.545 0-5.466-1.584-1.906-1.598-1.906-4.525 0-1.84.698-3.572.712-1.732 2.027-3.115 1.464-1.517 3.357-2.256 1.894-.739 4.364-.739 1.142 0 2.27.215 1.128.202 2.242.618zM286.033 213.995q-1.867 0-3.075 1.692t-1.208 4.31q0 1.424.644 2.176.658.738 1.907.738 1.866 0 3.075-1.692 1.208-1.705 1.208-4.337 0-1.41-.658-2.148-.644-.739-1.893-.739zm.39-3.438q3.356 0 5.277 1.706t1.92 4.646q0 1.705-.605 3.316-.604 1.598-1.759 2.928-1.37 1.584-3.236 2.39-1.866.805-4.162.805-3.317 0-5.237-1.705-1.907-1.705-1.907-4.646 0-1.692.618-3.303.618-1.625 1.772-2.968 1.343-1.557 3.196-2.363 1.867-.806 4.123-.806zM313.283 216.805l-1.786 9.158h-4.82l1.517-7.842q.16-.765.241-1.29.094-.536.094-.845 0-.86-.483-1.33-.47-.47-1.343-.47-1.49 0-2.564 1.169-1.061 1.154-1.477 3.209l-1.45 7.399h-4.821l2.927-15.04h4.834l-.443 2.203q1.33-1.303 2.672-1.934t2.806-.63q2.082 0 3.21 1.087t1.127 3.061q0 .43-.067.954-.053.523-.174 1.141zM331.473 211.385l-.712 3.733q-1.41-.671-2.806-1.02-1.397-.35-2.645-.35-1.424 0-2.202.376-.766.363-.766 1.048 0 .402.43.644t1.692.51l.873.162q2.913.617 4.082 1.597 1.168.967 1.168 2.7 0 2.618-2.055 4.095-2.054 1.464-5.747 1.464-1.544 0-3.155-.242t-3.29-.725l.725-3.773q1.303.765 2.78 1.154 1.49.39 3.048.39 1.517 0 2.282-.363.766-.362.766-1.06 0-.484-.43-.753-.43-.268-1.772-.55l-.873-.161q-2.578-.537-3.68-1.585t-1.1-2.9q0-2.511 1.893-3.867 1.906-1.356 5.438-1.356 1.544 0 3.035.214 1.504.202 3.02.618zM353.743 206.645l-.82 4.27h4.916l-.685 3.438h-4.915l-1.235 6.364q-.054.215-.08.363-.014.148-.014.282 0 .618.403.886.416.269 1.383.269h2.484l-.685 3.437h-4.042q-2.175 0-3.316-.913-1.142-.913-1.142-2.632 0-.376.04-.805.04-.43.121-.873l1.236-6.378h-2.364l.658-3.438h2.39l.833-4.27h4.834zM368.243 213.995q-1.866 0-3.075 1.692t-1.208 4.31q0 1.424.644 2.176.658.738 1.907.738 1.866 0 3.075-1.692 1.208-1.705 1.208-4.337 0-1.41-.658-2.148-.644-.739-1.893-.739zm.39-3.438q3.356 0 5.277 1.706t1.92 4.646q0 1.705-.605 3.316-.604 1.598-1.759 2.928-1.37 1.584-3.236 2.39-1.866.805-4.162.805-3.317 0-5.237-1.705-1.907-1.705-1.907-4.646 0-1.692.618-3.303.618-1.625 1.772-2.968 1.343-1.557 3.196-2.363 1.867-.806 4.123-.806zM389.963 205.915h5.17l3.41 7.426 5.962-7.426h5.976l-9.897 11.682-1.625 8.365h-5.17l1.626-8.365-5.452-11.682zM415.843 213.995q-1.867 0-3.075 1.692t-1.208 4.31q0 1.424.644 2.176.658.738 1.907.738 1.866 0 3.075-1.692 1.208-1.705 1.208-4.337 0-1.41-.658-2.148-.644-.739-1.893-.739zm.39-3.438q3.356 0 5.277 1.706t1.92 4.646q0 1.705-.605 3.316-.604 1.598-1.759 2.928-1.37 1.584-3.236 2.39-1.866.805-4.162.805-3.317 0-5.237-1.705-1.907-1.705-1.907-4.646 0-1.692.618-3.303.618-1.625 1.772-2.968 1.343-1.557 3.196-2.363 1.867-.806 4.123-.806zM427.223 220.105l1.759-9.185h4.82l-1.517 7.829q-.16.765-.241 1.302-.081.537-.081.846 0 .846.47 1.316.47.47 1.343.47 1.49 0 2.564-1.155t1.478-3.209l1.45-7.399h4.82l-2.913 15.04h-4.848l.443-2.203q-1.235 1.303-2.591 1.947-1.357.645-2.86.645-2.055 0-3.183-1.088-1.128-1.087-1.128-3.075 0-.47.054-.993t.161-1.088zM460.023 215.015q-.497-.282-1.101-.43-.604-.147-1.303-.147-1.84 0-3.061 1.181-1.209 1.182-1.638 3.41l-1.37 6.93h-4.82l2.927-15.04h4.834l-.524 2.579q.953-1.424 2.377-2.176 1.437-.765 3.182-.765.255 0 .578.027.322.027.765.08l-.846 4.351zM475.353 205.915h8.58q3.156 0 4.928 1.45 1.786 1.437 1.786 4.002 0 1.57-.59 2.994-.591 1.41-1.693 2.47-1.195 1.142-2.846 1.666-1.652.51-4.15.51h-3.41l-1.343 6.956h-5.17l3.908-20.048zm4.458 3.746l-1.101 5.6h2.86q1.826 0 2.793-.86.967-.86.967-2.497 0-1.088-.698-1.665-.685-.578-1.988-.578h-2.833zM496.833 205.065h4.834l-4.069 20.894h-4.82l4.055-20.894zM504.163 220.105l1.759-9.185h4.82l-1.517 7.829q-.16.765-.241 1.302-.081.537-.081.846 0 .846.47 1.316.47.47 1.343.47 1.49 0 2.564-1.155t1.477-3.209l1.45-7.399h4.821l-2.914 15.04h-4.847l.443-2.203q-1.235 1.303-2.591 1.947-1.357.645-2.86.645-2.055 0-3.183-1.088-1.128-1.087-1.128-3.075 0-.47.054-.993t.161-1.088zM534.313 223.405q-1.155 1.316-2.35 1.934-1.195.617-2.605.617-2.551 0-4.042-1.638-1.477-1.652-1.477-4.498 0-1.518.51-3.035.524-1.53 1.491-2.873 1.182-1.625 2.713-2.471 1.53-.86 3.29-.86 1.584 0 2.658.618 1.088.618 1.826 1.947l.403-2.229h4.847l-2.537 13.065q-.78 4.042-3.33 5.975t-7.09 1.934q-1.397 0-2.7-.215-1.288-.215-2.55-.658l.711-3.746q1.142.725 2.283 1.074 1.141.363 2.336.363 2.39 0 3.666-1.02 1.29-1.021 1.732-3.25l.215-1.034zm-1.343-9.36q-1.772 0-2.954 1.599-1.168 1.598-1.168 4.015 0 1.37.631 2.094.631.712 1.84.712 1.759 0 2.94-1.584 1.182-1.598 1.182-3.975 0-1.397-.631-2.122-.631-.738-1.84-.738zM547.223 210.915h4.834l-2.94 15.039h-4.821l2.927-15.039zm1.128-5.854h4.834l-.765 3.92h-4.848l.779-3.92zM571.563 216.805l-1.786 9.158h-4.82l1.517-7.842q.16-.765.241-1.29.094-.536.094-.845 0-.86-.483-1.33-.47-.47-1.343-.47-1.49 0-2.564 1.169-1.061 1.154-1.477 3.209l-1.45 7.399h-4.821l2.927-15.04h4.834l-.443 2.203q1.33-1.303 2.672-1.934 1.343-.63 2.806-.63 2.082 0 3.21 1.087t1.127 3.061q0 .43-.067.954-.053.523-.174 1.141zM589.753 211.385l-.712 3.733q-1.41-.671-2.806-1.02-1.397-.35-2.645-.35-1.424 0-2.203.376-.765.363-.765 1.048 0 .402.43.644t1.692.51l.872.162q2.914.617 4.082 1.597 1.169.967 1.169 2.7 0 2.618-2.055 4.095-2.054 1.464-5.747 1.464-1.544 0-3.155-.242t-3.29-.725l.725-3.773q1.302.765 2.78 1.154 1.49.39 3.048.39 1.517 0 2.282-.363.766-.362.766-1.06 0-.484-.43-.753-.43-.268-1.773-.55l-.872-.161q-2.578-.537-3.68-1.585t-1.1-2.9q0-2.511 1.893-3.867 1.906-1.356 5.438-1.356 1.544 0 3.035.214 1.503.202 3.02.618z"/></g></svg>