<?xml version="1.0" encoding="utf-8"?>
<!-- Generated by IcoMoon.io -->
<!DOCTYPE svg PUBLIC "-//W3C//DTD SVG 1.1//EN" "http://www.w3.org/Graphics/SVG/1.1/DTD/svg11.dtd">
<svg version="1.1" xmlns="http://www.w3.org/2000/svg" xmlns:xlink="http://www.w3.org/1999/xlink" width="34" height="32" viewBox="0 0 34 32">
<path fill="#444444" d="M16.008 13.294c0-0.003 0-0.008 0-0.011-0.327-0.254-0.708-0.458-1.145-0.624-0.441-0.17-0.857-0.28-1.237-0.332-0.375-0.051-1.035-0.080-1.964-0.078l-1.987 0.003 0.010 7.491 2.045-0.003c0.96-0.001 1.698-0.057 2.183-0.154 0.515-0.108 0.923-0.234 1.236-0.379 0.331-0.156 0.631-0.345 0.9-0.568 0.877-0.733 1.287-1.608 1.284-2.73-0.001-1.097-0.426-1.925-1.326-2.614z"></path>
<path fill="#444444" d="M26.011 7.612h-18.177c-1.185 0-2.145 1.066-2.145 2.382v12.013c0 1.315 0.96 2.382 2.145 2.382h18.177c1.185 0 2.145-1.067 2.145-2.382v-12.013c0-1.316-0.96-2.382-2.145-2.382zM24.666 13.857c0.001 1.643-1.45 2.976-3.243 2.977-0.066 0-0.132-0.002-0.197-0.006-0.086 0.516-0.252 1.019-0.499 1.503-0.379 0.743-0.918 1.402-1.615 1.96-0.711 0.575-1.538 1.006-2.471 1.298-0.536 0.174-1.030 0.293-1.496 0.358-0.003 0-0.009 0-0.011 0-0.487 0.061-1.304 0.082-2.524 0.084l-4.315 0.017c-0.029 0-0.059-0.006-0.087-0.011-0.017-0.001-0.035-0.002-0.052-0.005-0.012-0.005-0.024-0.010-0.035-0.016-0.003 0-0.003 0-0.006 0-0.012-0.005-0.024-0.011-0.035-0.016-0.003 0-0.009 0-0.012 0-0.024-0.014-0.048-0.031-0.069-0.049-0.003 0-0.003 0-0.006 0-0.009-0.007-0.015-0.013-0.023-0.021-0.003-0.003-0.009-0.008-0.012-0.011-0.009-0.008-0.015-0.013-0.023-0.021 0-0.003 0-0.008 0-0.011-0.012-0.007-0.024-0.013-0.035-0.021 0-0.003 0-0.008 0-0.011-0.006-0.010-0.012-0.021-0.017-0.033 0-0.003 0-0.003 0-0.005-0.009-0.010-0.021-0.021-0.029-0.032 0-0.003 0-0.003 0-0.005-0.006-0.011-0.012-0.022-0.017-0.032 0-0.003 0-0.008 0-0.011-0.003-0.011-0.003-0.022-0.006-0.033 0-0.003 0-0.003 0-0.005-0.003-0.011-0.009-0.022-0.012-0.032 0-0.003 0-0.008 0-0.011-0.003-0.026-0.003-0.049-0-0.076-0.001-0.016-0.001-0.032 0-0.048l-0.014-11.146c0.001-0.218 0.178-0.399 0.404-0.427 0.019-0.002 0.038 0 0.058-0l4.61-0.007c1.899-0.003 3.431 0.223 4.605 0.721 0.637 0.267 1.208 0.609 1.707 1.023 0.581-0.504 1.365-0.815 2.228-0.816 1.792-0.001 3.246 1.33 3.248 2.973 0 0.001 0 0.003 0 0.004zM26.162 10.588c0 0.528-0.466 0.956-1.042 0.957s-1.043-0.427-1.044-0.955c0-0.001 0-0.001 0-0.001-0-0.528 0.466-0.956 1.042-0.957s1.043 0.427 1.044 0.955c-0 0-0 0.001-0 0.001z"></path>
</svg>
