<?xml version="1.0" encoding="utf-8"?>
<!-- Generated by IcoMoon.io -->
<!DOCTYPE svg PUBLIC "-//W3C//DTD SVG 1.1//EN" "http://www.w3.org/Graphics/SVG/1.1/DTD/svg11.dtd">
<svg version="1.1" xmlns="http://www.w3.org/2000/svg" xmlns:xlink="http://www.w3.org/1999/xlink" width="32" height="32" viewBox="0 0 32 32">
<path fill="#444444" d="M23.308 14.459c-1.36 0-2.53 0.751-3.158 1.853-0.164-0.012-0.325-0.026-0.496-0.026-3.742 0-7.292-2.85-8.588-6.379 0.779-0.67 1.279-1.651 1.279-2.757 0-2.017-1.637-3.654-3.654-3.654s-3.654 1.637-3.654 3.654c0 1.348 0.738 2.514 1.827 3.148v11.975c-1.089 0.633-1.827 1.799-1.827 3.147 0 2.016 1.637 3.654 3.654 3.654s3.654-1.638 3.654-3.654c0-1.349-0.738-2.514-1.827-3.147v-6.574c2.403 2.542 5.72 4.24 9.135 4.24 0.182 0 0.332-0.012 0.496-0.018 0.632 1.097 1.802 1.845 3.158 1.845 2.016 0 3.654-1.638 3.654-3.654s-1.638-3.654-3.654-3.654zM8.692 27.248c-1.008 0-1.827-0.817-1.827-1.827 0-1.008 0.819-1.827 1.827-1.827 1.011 0 1.827 0.819 1.827 1.827 0 1.010-0.816 1.827-1.827 1.827zM8.692 8.977c-1.008 0-1.827-0.816-1.827-1.827s0.819-1.827 1.827-1.827c1.011 0 1.827 0.816 1.827 1.827s-0.816 1.827-1.827 1.827zM23.308 19.94c-1.008 0-1.827-0.817-1.827-1.827s0.819-1.827 1.827-1.827c1.010 0 1.827 0.816 1.827 1.827s-0.817 1.827-1.827 1.827z"></path>
</svg>
