<?xml version="1.0" encoding="utf-8"?>
<!-- Generated by IcoMoon.io -->
<!DOCTYPE svg PUBLIC "-//W3C//DTD SVG 1.1//EN" "http://www.w3.org/Graphics/SVG/1.1/DTD/svg11.dtd">
<svg version="1.1" xmlns="http://www.w3.org/2000/svg" xmlns:xlink="http://www.w3.org/1999/xlink" width="32" height="32" viewBox="0 0 32 32">
<path fill="#444444" d="M21.5 7.119c-2.023 0-3.667 1.643-3.667 3.667 0 1.353 0.741 2.523 1.833 3.159v0.508c0 0 0 3.667-3.667 3.667-1.52 0-2.711 0.326-3.667 0.825v-8.666c1.093-0.636 1.833-1.806 1.833-3.159 0-2.024-1.643-3.667-3.667-3.667s-3.667 1.643-3.667 3.667c0 1.353 0.74 2.523 1.833 3.159v12.016c-1.093 0.636-1.833 1.805-1.833 3.158 0 2.023 1.643 3.667 3.667 3.667s3.667-1.644 3.667-3.667c0-0.96-0.378-1.826-0.981-2.482 0.534-0.655 1.401-1.185 2.815-1.185 7.276 0 7.333-7.333 7.333-7.333v-0.508c1.092-0.636 1.833-1.806 1.833-3.159 0-2.024-1.644-3.667-3.667-3.667zM10.5 5.286c1.014 0 1.833 0.819 1.833 1.833s-0.819 1.833-1.833 1.833c-1.014 0-1.833-0.819-1.833-1.833s0.819-1.833 1.833-1.833zM10.5 27.286c-1.014 0-1.833-0.82-1.833-1.833 0-1.012 0.819-1.833 1.833-1.833s1.833 0.822 1.833 1.833c0 1.013-0.819 1.833-1.833 1.833zM21.5 12.619c-1.013 0-1.833-0.819-1.833-1.833s0.82-1.833 1.833-1.833 1.833 0.819 1.833 1.833c0 1.014-0.82 1.833-1.833 1.833z"></path>
</svg>
