<?xml version="1.0" encoding="utf-8"?>
<!-- Generated by IcoMoon.io -->
<!DOCTYPE svg PUBLIC "-//W3C//DTD SVG 1.1//EN" "http://www.w3.org/Graphics/SVG/1.1/DTD/svg11.dtd">
<svg version="1.1" xmlns="http://www.w3.org/2000/svg" xmlns:xlink="http://www.w3.org/1999/xlink" width="32" height="32" viewBox="0 0 32 32">
<path fill="#444444" d="M9.726 18.222c-0.149 0.010-0.344 0.077-0.474 0.311-0.106 0.191-0.356 0.221-0.472 0.183-0.194-0.064-0.442-0.108-0.682 0.063s-0.499 0.042-0.454-0.27c0.046-0.312 0.158-0.589 0.457-0.761 0.653-0.376 0.199-0.637 0.557-1.014s0.28-0.493 0.268-1.006c-1.213-0.182-1.901-0.532-2.669-1.491s-1.066-1.749-1.145-2.952-0.011-1.982 0.509-2.981c0.52-0.998 1.067-1.479 2.015-1.978s1.877-0.618 2.736-0.603c0.859 0.014 1.431 0.077 1.916 0.354s0.929 0.625 1.212 0.628c0.283 0.003 0.476-0.072 0.613-0.177 0.037 0.932-0.802 1.013-1.553 1.033s-1.212-0.291-1.904-0.175c-0.691 0.116-1.824 0.43-2.375 1.39s-0.57 1.299-0.525 2.104c0.046 0.805 0.739 1.406 1.13 1.412s0.478-0.107 0.821-0.33c0.342-0.223 2.090-2.387 2.687-2.873s1.185-0.636 1.821-0.644c0.636-0.008 0.798 0.014 1.31 0.224s0.828 0.597 1.241 0.833c0.211-0.124 0.342-0.31 0.536-0.452 0.693-0.507 1.053-0.643 1.877-0.563 0.474 0.046 1.071 0.317 1.427 0.626 0.634 0.552 1.158 1.319 1.582 1.903 0.33 0.454 0.718 0.998 1.272 1.168 0.605 0.185 1.060-0.598 1.127-1.033 0.038-0.246 0.087-0.462 0.088-0.733s-0.027-0.6-0.105-0.882c-0.078-0.283-0.212-0.564-0.357-0.797-0.236-0.379-0.622-0.776-1.023-0.98-0.225-0.115-0.755-0.323-1.090-0.33-0.409-0.009-0.721 0.129-1.1 0.154-0.458 0.031-1.277 0.134-1.636-0.22-0.229-0.225-0.257-0.375-0.296-0.669 0.101 0.083 0.242 0.138 0.368 0.149 0.287 0.024 0.556-0.21 0.787-0.346 0.191-0.112 0.461-0.312 0.712-0.413 0.644-0.26 1.435-0.252 2.114-0.183 0.545 0.056 1.251 0.298 1.729 0.568 0.48 0.272 0.943 0.729 1.282 1.161 0.426 0.543 0.659 1.009 0.814 1.687 0.197 0.865 0.252 2.164 0.014 3.017-0.188 0.672-0.812 1.705-1.344 2.211-0.524 0.499-1.129 0.74-1.818 0.872 0.027 0.139 0.031 0.268 0.067 0.382 0.051 0.162 0.147 0.342 0.346 0.285 0.079-0.023 0.122-0.042 0.226 0.049s0.050 0.445-0.244 0.603c-0.149 0.080-0.306 0.098-0.545 0.103s-0.611 0.006-0.87-0.040c-0.259-0.045-0.414-0.251-0.701-0.283-0.444-0.050-0.783-0.37-1.139-0.599-0.148-0.096-0.198-0.097-0.284-0.145 0.046 0.141 0.108 0.288 0.139 0.424s0.018 0.262 0.034 0.371c0.016 0.109 0.046 0.193 0.064 0.282 0.071 0.064 0.094 0.16 0.213 0.191s0.306-0.017 0.429-0.033 0.204-0.083 0.3-0.065c0.096 0.018 0.187 0.087 0.267 0.151s0.149 0.074 0.215 0.234c0.065 0.161 0.125 0.49 0.134 0.709s-0.016 0.418-0.081 0.593c-0.065 0.174-0.122 0.252-0.299 0.424s-0.464 0.426-0.75 0.603c0.053 0.078 0.076 0.15 0.159 0.235s0.254 0.18 0.33 0.269c0.076 0.089 0.115 0.154 0.116 0.254s-0.004 0.231-0.085 0.34c-0.203 0.272-0.443 0.321-0.735 0.449 0.049 0.306 0.089 0.525 0.018 0.831-0.029 0.125-0.093 0.408-0.247 0.48s-0.45 0.037-0.638 0.067c-0.188 0.030-0.293 0.058-0.439 0.087-0.089 0.129-0.221 0.27-0.267 0.386s-0.032 0.157 0.006 0.274c0.038 0.118 0.168 0.289 0.205 0.427s0.044 0.286 0.010 0.424c-0.034 0.138-0.093 0.238-0.211 0.361s-0.349 0.219-0.465 0.319c-0.116 0.099-0.23 0.111-0.199 0.276 0.043 0.226 0.374 0.593 0.613 0.68 0.143 0.052 0.335 0.036 0.509-0.038-0.012 0.193-0.179 0.323-0.288 0.452 0.296-0.085 0.583-0.247 0.781-0.461-0.062 0.186-0.273 0.486-0.59 0.748s-0.315 0.209-0.472 0.313c0.287 0.058 0.554 0.042 0.777 0.002-0.122 0.067-0.322 0.162-0.587 0.19s-0.428 0.008-0.667-0.050c-0.239-0.058-0.456-0.275-0.746-0.424 0.028 0.107 0.048 0.236 0.17 0.346s0.306 0.166 0.501 0.262c-0.249-0.028-0.511-0.037-0.755-0.091-0.181-0.040-0.303-0.082-0.435-0.148s-0.235-0.161-0.352-0.242c0.056 0.107 0.073 0.234 0.169 0.322s0.251 0.121 0.377 0.182c-0.131-0.003-0.257 0.026-0.393-0.009s-0.264-0.088-0.405-0.192c-0.142-0.104-0.287-0.233-0.408-0.364s-0.27-0.301-0.315-0.422c-0.045-0.121 0.027-0.206 0.041-0.309-0.083 0.055-0.186 0.085-0.25 0.165s-0.121 0.152-0.092 0.291c0.028 0.139 0.156 0.308 0.247 0.462-0.27-0.221-0.42-0.305-0.485-0.572-0.060-0.249 0.095-0.475 0.214-0.664 0.059-0.093 0.146-0.181 0.201-0.271-0.122-0.119-0.261-0.222-0.366-0.358s-0.148-0.32-0.255-0.45c-0.107-0.13-0.25-0.212-0.375-0.319 0.11 0.236 0.29 0.525 0.329 0.708s-0.044 0.294-0.109 0.393c-0.065 0.099-0.169 0.121-0.268 0.181s-0.253 0.013-0.313 0.103c-0.059 0.090-0.075 0.225-0.018 0.314l0.232 0.366c-0.085-0.043-0.232-0.168-0.299-0.257s-0.168-0.171-0.182-0.291c-0.014-0.12-0.021-0.224 0.057-0.331s0.291-0.143 0.386-0.225c0.095-0.082 0.149-0.136 0.143-0.242s-0.109-0.182-0.199-0.249c-0.273-0.204-0.622-0.393-0.854-0.639-0.131-0.139-0.194-0.252-0.22-0.348s0.002-0.171 0.066-0.289c0.065-0.118 0.288-0.276 0.315-0.404s-0.085-0.156-0.187-0.201c-0.102-0.045-0.294 0.023-0.389-0.056s0.028-0.244-0.079-0.335-0.349-0.040-0.474-0.138c-0.125-0.098-0.177-0.219-0.22-0.36s-0.048-0.297-0.019-0.399 0.117-0.121 0.17-0.174c0.053-0.053 0.099-0.097 0.028-0.177s-0.303 0.005-0.436-0.097c-0.133-0.102-0.052-0.345-0.146-0.448s-0.263-0.063-0.352-0.095c-0.089-0.033-0.124 0.083-0.179-0.1s-0.056-0.729-0.13-0.933c-0.074-0.204-0.218-0.014-0.285-0.216s-0.003-0.526-0.034-0.832l-0.137-0.832c-0.478 0.321-0.793 0.422-1.307 0.512-0.043 1.256-0.161 1.996 0.265 3.389s1.289 2.215 2.453 3.395c-1.536-1.151-2.269-2.086-2.728-3.285s-0.371-2.201-0.325-3.355zM17.887 17.718c0.118 0.005 0.262 0.035 0.345 0.089s0.171 0.098 0.246 0.175c0.188 0.191 0.329 0.422 0.391 0.687 0.040 0.169 0.046 0.386 0.060 0.585-0.057-0.183-0.095-0.375-0.176-0.539-0.128-0.259-0.345-0.512-0.614-0.629-0.089-0.038-0.148-0.031-0.197-0.024 0.022 0.037 0.059 0.068 0.060 0.121s-0.011 0.159-0.102 0.203c-0.147 0.072-0.311 0.021-0.424-0.079s-0.154-0.272-0.094-0.42c0.072-0.175 0.344-0.176 0.505-0.169zM16.406 17.468c0.015-0.302 0.124-0.556 0.394-0.704 0.14-0.076 0.355-0.175 0.553-0.199 0.19-0.022 0.653-0.006 0.931 0.121 0.214 0.098 0.359 0.249 0.547 0.36s0.321 0.185 0.5 0.31c0.274 0.191 0.435 0.401 0.625 0.527 0.091 0.061 0.22 0.052 0.341 0.089-0.094 0.028-0.218 0.059-0.319 0.026-0.127-0.041-0.304-0.157-0.403-0.24-0.174-0.147-0.264-0.219-0.454-0.329-0.113-0.066-0.3-0.144-0.425-0.225s-0.341-0.26-0.461-0.32c-0.152-0.077-0.426-0.119-0.596-0.114-0.234 0.007-0.572 0.045-0.752 0.209-0.18 0.163-0.248 0.306-0.207 0.518 0.068-0.078 0.113-0.176 0.18-0.234 0.14-0.12 0.301-0.126 0.476-0.103 0.196 0.026 0.295 0.139 0.36 0.325-0.044-0.032-0.124-0.102-0.187-0.124-0.148-0.051-0.261-0.035-0.4 0.039-0.164 0.088-0.12 0.219-0.143 0.363-0.011 0.067-0.036 0.121-0.054 0.181-0.062-0.016-0.119-0.042-0.166-0.088 0.002 0.068-0.008 0.127 0.006 0.203s0.051 0.167 0.076 0.25c-0.114-0.114-0.231-0.221-0.305-0.369s-0.124-0.312-0.116-0.474zM16.604 15.272c0.084-0.125 0.109-0.317 0.161-0.473-0.021 0.198 0.019 0.415-0.077 0.558s-0.266 0.118-0.407 0.16c0.109-0.083 0.238-0.12 0.323-0.245zM14.585 18.203c0.108-0.088 0.4-0.017 0.619-0.002-0.157 0.040-0.314 0.080-0.471 0.121-0.015 0.053-0.008 0.115-0.044 0.16s-0.104 0.063-0.156 0.094c0.005-0.14-0.056-0.285 0.052-0.373zM16.125 12.116c0.131 0.070 0.296 0.163 0.411 0.166s0.145-0.075 0.213-0.12c0.107 0.348 0.229 0.73 0.41 1.045 0.076 0.132 0.125 0.071 0.182 0.204s0.083 0.403 0.138 0.573 0.126 0.294 0.19 0.442c-0.161-0.227-0.368-0.517-0.457-0.707s-0.032-0.206-0.105-0.386-0.219-0.461-0.328-0.692c-0.078 0.010-0.175 0.025-0.235 0.006s-0.048-0.082-0.101-0.123c-0.054-0.041-0.144-0.025-0.22-0.090s-0.093-0.199-0.099-0.318zM15.422 13.831c0.123-0.011 0.275 0.022 0.39 0.016s0.197-0.036 0.296-0.055c-0.018-0.173-0.001-0.491-0.161-0.607-0.103-0.075-0.527-0.018-0.641 0.006-0.255 0.055-0.552 0.207-0.798 0.302 0.236-0.165 0.44-0.318 0.724-0.403 0.17-0.051 0.568-0.118 0.744-0.070 0.080 0.022 0.096 0.055 0.145 0.123 0.167 0.234 0.167 0.435 0.21 0.708 0.043 0.067 0.088 0.111 0.123 0.179s0.054 0.177 0.064 0.265c-0.044-0.063-0.017-0.143-0.138-0.19s-0.307-0.003-0.471 0.014c0.119 0.086 0.178 0.169 0.183 0.351 0.005 0.213-0.175 0.367-0.364 0.382-0.262 0.020-0.397-0.037-0.503-0.261-0.046-0.098-0.013-0.216-0.017-0.312-0.315 0.022-0.31 0.012-0.54 0.203 0.125 0.183 0.204 0.289 0.41 0.398 0.116 0.062 0.247 0.121 0.391 0.146s0.379 0.048 0.53 0.025 0.236-0.066 0.348-0.17c0.112-0.104 0.122-0.252 0.166-0.369-0.010 0.113-0.023 0.256-0.065 0.338-0.127 0.249-0.348 0.322-0.61 0.323-0.252 0.001-0.565-0.057-0.799-0.155-0.188-0.078-0.499-0.298-0.573-0.489-0.050-0.131-0.011-0.291-0.016-0.437 0.26-0.173 0.324-0.13 0.632-0.181 0.129-0.021 0.217-0.069 0.34-0.080zM13.908 12.661c0.007-0.104 0.019-0.101 0.028-0.152-0.237-0.063-0.332 0.090-0.47 0.376-0.052 0.107-0.001 0.17-0.056 0.241s-0.145 0.060-0.236 0.128-0.18 0.197-0.264 0.267c-0.174 0.143-0.408 0.231-0.609 0.327 0.137-0.101 0.404-0.255 0.49-0.402 0.046-0.078 0.039-0.225 0.11-0.296s0.096-0.119 0.188-0.137c0.092-0.018 0.055-0.124 0.085-0.209s0.089-0.145 0.152-0.229c0.063-0.085 0.142-0.212 0.266-0.258s0.318 0.004 0.411-0.023c0.094-0.027 0.040-0.095 0.108-0.136s0.201-0.023 0.292-0.067c0.162-0.078 0.239-0.208 0.336-0.346 0.014 0.299 0.011 0.514-0.097 0.796-0.121 0.317-0.244 0.503-0.587 0.698-0.118 0.067-0.236 0.090-0.334 0.126 0.057-0.078 0.139-0.112 0.172-0.234s0.008-0.365 0.016-0.468zM19.454 14.119c-0.163 0.011-0.202-0.011-0.333 0.081 0.071 0.11 0.142 0.22 0.212 0.331-0.006-0.218 0.015-0.261 0.12-0.412zM19.027 13.961c0.226-0.096 0.423-0.174 0.669-0.19 0.099-0.006 0.252 0.009 0.351 0.014 0.085-0.125 0.193-0.223 0.233-0.366 0.026-0.095 0.013-0.534-0.033-0.648-0.135-0.332-0.267-0.346-0.453-0.536-0.135-0.138-0.141-0.348-0.181-0.583-0.015-0.086-0.057-0.196-0.077-0.285-0.244-0.041-0.505-0.055-0.785-0.041 0.136-0.13 0.267-0.249 0.306-0.445s0.007-0.436-0.104-0.611c-0.111-0.175-0.289-0.328-0.452-0.471s-0.397-0.261-0.551-0.378c0.201-0.072 0.406-0.178 0.603-0.216 0.513-0.1 0.955 0.053 1.449 0.352 0.288 0.174 0.525 0.339 0.826 0.654s0.673 0.892 0.964 1.234c0.291 0.342 0.526 0.613 0.78 0.817s0.484 0.262 0.725 0.393l0.377 0.4 0.305-0.377 0.491 0.056 0.101-0.551 0.451-0.123-0.074-0.743 0.324-0.23-0.243-0.462 0.247-0.505-0.322-0.577 0.124-0.556-0.373-0.318-0.049-0.59-0.521-0.199-0.209-0.514-0.585-0.007-0.287-0.381-0.394 0.028-0.439-0.048-0.249-0.183-0.36 0.239-0.436-0.228-0.867 0.329 0.565-0.492 0.586-0.094 0.449-0.114 0.606 0.199 0.533-0.135 0.514 0.304 0.544-0.030 0.267 0.48 0.542 0.063 0.293 0.533 0.341 0.186 0.090 0.683 0.303 0.288-0.134 0.598 0.358 0.453-0.335 0.485 0.359 0.303-0.458 0.406 0.464 0.483-0.561 0.181 0.365 0.518-0.458 0.079 0.3 0.57-0.516-0.007 0.26 0.427-0.566-0.068 0.135 0.614-0.428-0.376-0.147 0.745-0.295-0.535-0.16 0.667-0.364-0.492 0.010 0.699-0.403-0.629c0.085 0.357 0.068 0.747 0.302 1.084 0.726-0.098 1.201-0.281 1.757-0.816 0.506-0.487 1.112-1.504 1.276-2.148 0.187-0.736 0.193-2.088 0.009-2.837-0.177-0.721-0.408-1.066-0.82-1.654-0.394-0.418-0.781-0.86-1.28-1.158-0.733-0.438-1.674-0.556-2.509-0.544-0.463 0.006-0.773 0.095-1.050 0.196-0.484 0.176-0.871 0.56-1.363 0.749-0.16 0.062-0.289 0.064-0.415-0.004 0.124 0.247 0.258 0.359 0.567 0.449 0.223 0.065 0.756 0.024 1.122-0.010 0.394-0.036 0.599-0.153 1.134-0.146 0.523 0.007 0.938 0.206 1.164 0.335 0.468 0.267 0.803 0.564 1.094 1.034 0.16 0.258 0.272 0.549 0.351 0.846s0.113 0.63 0.119 0.921c0.005 0.291-0.017 0.55-0.088 0.812-0.166 0.613-0.533 1.236-1.287 1.14-0.461-0.059-1.157-0.925-1.39-1.243-0.47-0.641-0.954-1.351-1.544-1.885-0.36-0.325-0.853-0.55-1.337-0.594-0.908-0.083-1.178 0.089-1.861 0.653 0.139 0.044 0.275 0.069 0.417 0.133 0.316 0.143 0.606 0.327 0.858 0.563 0.264 0.248 0.383 0.405 0.393 0.759 0.006 0.236-0.188 0.424-0.365 0.594-0.109 0.104-0.252 0.199-0.34 0.28-0.117 0.107-0.261 0.224-0.115 0.395 0.055 0.064 0.151 0.113 0.232 0.172 0.128 0.095 0.069 0.448-0.099 0.542-0.216 0.12-0.474 0.106-0.652-0.054 0.225-0.034 0.367-0.063 0.362-0.247-0.003-0.107-0.139-0.195-0.272-0.256-0.321-0.146-0.563-0.125-0.882-0.354-0.322-0.232-0.329-0.359-0.417-0.723-0.155 0.016-0.299 0.020-0.506 0.089s-0.438 0.233-0.626 0.273c-0.475 0.102-0.57 0.072-0.83 0.005-0.458-0.118-1.054 0.084-1.646 0.274-0.098 0.031-0.497 0.001-0.765 0.095-0.414 0.145-0.995 0.497-1.331 0.78-0.509 0.428-1.177 1.71-1.555 3.181-0.040 0.447 0.088 0.749-0.194 0.967s-0.274 0.778-0.37 0.935c-0.096 0.157-0.206 0.087-0.412 0.308s-0.31 0.184-0.305 0.6c0.177-0.116 0.436-0.252 0.662-0.26 0.201-0.007 0.203 0.257 0.719-0.253 0.276-0.273 0.806-0.281 1.173-0.401s1.030-0.368 1.694-1.11c0.664-0.742 0.981-1.523 1.11-2.652 0.021 0.2 0.056 0.426-0.030 0.978s-0.27 1.172 0.119 1.915l0.242 0.463c-0.144-0.197-0.426-0.518-0.511-0.747l-0.196-0.528c-0.438 0.688-0.539 0.811-1.147 1.304-0.024 0.306-0.030 0.625 0.070 0.917s-0.059 0.63 0.017 0.822c0.076 0.193 0.252 0.083 0.309 0.278s-0.030 0.581 0.059 0.771c0.089 0.19 0.307 0.075 0.413 0.136s0.14 0.145 0.197 0.226c0.057 0.081-0.022 0.272 0.093 0.334s0.295 0.009 0.415 0.069c0.12 0.060 0.138 0.203 0.109 0.331s-0.157 0.187-0.213 0.317c-0.056 0.13-0.050 0.221 0.018 0.341s0.217 0.186 0.366 0.246c0.149 0.060 0.358 0.026 0.512 0.11s0.292 0.25 0.373 0.371c0.081 0.121 0.104 0.206 0.1 0.333s-0.056 0.274-0.124 0.396c-0.068 0.123-0.218 0.272 0.016 0.507s0.225 0.134 0.359 0.286c-0.015-0.263-0.123-0.478-0.044-0.676s0.318-0.233 0.444-0.322c0.126-0.089 0.198-0.212 0.297-0.317-0.001 0.136 0.013 0.283-0.002 0.385-0.031 0.208-0.093 0.393 0.217 0.427 0.14 0.015 0.273-0.076 0.42-0.13-0.077 0.138-0.211 0.249-0.231 0.415s0.004 0.347 0.119 0.511c0.114 0.164 0.312 0.286 0.457 0.382s0.222 0.104 0.334 0.156c0.005 0.163-0.027 0.334-0.008 0.488s0.067 0.288 0.155 0.415c0.089 0.126 0.23 0.199 0.364 0.293-0.073-0.171-0.222-0.333-0.22-0.512s0.056-0.307 0.231-0.466c0.175-0.159 0.585-0.297 0.778-0.452s0.256-0.25 0.325-0.4c0.069-0.15 0.050-0.393 0.063-0.528 0.064 0.189 0.073 0.248 0.093 0.446s-0.116 0.476-0.173 0.623c0.239-0.116 0.391-0.3 0.467-0.48 0.051 0.030 0.025 0.114 0.044 0.274 0.085-0.085 0.182-0.15 0.268-0.23s0.18-0.15 0.223-0.262c0.043-0.112 0.025-0.23-0.007-0.36s-0.177-0.28-0.255-0.422c-0.078-0.142 0.014-0.281 0.009-0.452-0.156-0.027-0.289-0.106-0.468-0.080s-0.385 0.227-0.569 0.23-0.287-0.169-0.437-0.217-0.303-0.042-0.454-0.063c0.192-0.183 0.935-0.271 1.444-0.354 0.447-0.073 0.891-0.115 1.345-0.121 0.202-0.003 0.463 0.064 0.603 0.023s0.111-0.136 0.152-0.241c0.117-0.292 0.059-0.552-0.004-0.846-0.407-0.048-0.831-0.106-1.241-0.075-0.401 0.031-0.876 0.221-1.289 0.234-0.359 0.011-0.892-0.069-1.201-0.257-0.377-0.23-0.669-0.724-0.773-0.882-0.169-0.258-0.382-0.765-0.511-0.997s-0.158-0.297-0.266-0.393c-0.108-0.097-0.255-0.104-0.383-0.156 0.147 0.015 0.308-0.032 0.441 0.045 0.201 0.115 0.426 0.593 0.551 0.8 0.132-0.444 0.101-0.618 0.485-0.868-0.309 0.346-0.316 0.608-0.392 1.015 0.257 0.421 0.613 1.092 1.081 1.278 0.169 0.067 0.458 0.11 0.641 0.132 0.567 0.070 1.115-0.11 1.672-0.247 0.408-0.101 0.821-0.060 1.316-0.031 0.168 0.010 0.565-0.091 0.647-0.262 0.044-0.092 0.041-0.202-0.023-0.3s-0.234-0.145-0.325-0.233c-0.091-0.088-0.143-0.192-0.215-0.289-0.378 0.073-0.69 0.1-0.971 0.108 0.202-0.083 0.395-0.13 0.605-0.212s0.448-0.217 0.617-0.328 0.277-0.177 0.4-0.307c0.122-0.13 0.279-0.264 0.37-0.423s0.104-0.337 0.109-0.534c0.005-0.197-0.004-0.473-0.079-0.631s-0.222-0.207-0.34-0.244-0.198 0.057-0.32 0.070c-0.122 0.013-0.236 0.090-0.413 0.007s-0.386-0.252-0.565-0.503c-0.179-0.251-0.306-0.662-0.488-0.978-0.314-0.544-0.705-1.053-1.079-1.557-0.031-0.124-0.077-0.296-0.092-0.465-0.027-0.294-0.032-0.6 0.059-0.886 0.070-0.22 0.172-0.452 0.402-0.542 0.092-0.036 0.208-0.050 0.291-0.020s0.163 0.123 0.131 0.231c-0.035 0.118-0.117 0.121-0.173 0.181-0.094 0.101-0.132 0.175-0.168 0.301 0.102-0.002 0.24-0.009 0.323 0.013 0.109 0.029 0.211 0.101 0.266 0.256-0.13-0.116-0.195-0.169-0.358-0.173-0.075-0.002-0.165 0.025-0.247 0.037-0.031 0.1-0.049 0.223-0.092 0.301s-0.128 0.059-0.16 0.15c-0.032 0.090-0.033 0.238-0.017 0.357zM20.165 13.825c0.050 0.020 0.069 0.024 0.132 0.072s0.15 0.096 0.201 0.211c0.050 0.115 0.048 0.293 0.037 0.365-0.044-0.013-0.104-0.004-0.149-0.043s-0.073-0.127-0.131-0.165c-0.058-0.038-0.107-0.030-0.172-0.038 0.033 0.094 0.049 0.189 0.034 0.274-0.034 0.187-0.143 0.281-0.321 0.304-0.078 0.010-0.201-0.016-0.268-0.028 0.031 0.070 0.084 0.131 0.116 0.201 0.15-0.022 0.262-0.019 0.342-0.056s0.167-0.122 0.271-0.158c0.104-0.036 0.196-0.035 0.31-0.053-0.090 0.077-0.148 0.154-0.237 0.231 0.065 0.19 0.131 0.381 0.196 0.571 0.139 0.087 0.269 0.133 0.444 0.24s0.385 0.299 0.613 0.404c0.228 0.105 0.363 0.162 0.602 0.207s0.427 0.238 0.662 0.269c0.234 0.031 0.672 0.038 0.852 0.020 0.205-0.020 0.471-0.126 0.495-0.35-0.172 0.042-0.434 0.004-0.567-0.319-0.059-0.144-0.030-0.408-0.12-0.577s-0.215-0.224-0.365-0.434c-0.15-0.209-0.395-0.539-0.533-0.819s-0.17-0.598-0.286-0.849-0.292-0.454-0.428-0.648c-0.297-0.423-0.537-0.712-1.026-0.925-0.235-0.103-0.503-0.13-0.755-0.195-0.102 0.046-0.243 0.097-0.268 0.216s0.023 0.297 0.11 0.387c0.145 0.15 0.361 0.313 0.446 0.552 0.054 0.153 0.070 0.668 0.023 0.807-0.049 0.145-0.163 0.232-0.257 0.329zM20.212 15.042c-0.046 0.039-0.080 0.079-0.153 0.112s-0.173 0.041-0.27 0.065c0.136 0.212 0.279 0.426 0.409 0.648s0.243 0.466 0.368 0.699c-0.006-0.134 0.002-0.276-0.017-0.401s-0.076-0.234-0.132-0.421c-0.056-0.187-0.125-0.442-0.204-0.703zM16.553 10.388c-0.019 0.208 0.016 0.534 0.059 0.738 0.052 0.244 0.101 0.371 0.299 0.518 0.363 0.269 0.594 0.224 0.873 0.38 0.133 0.074 0.301 0.199 0.35 0.33s-0.032 0.275-0.133 0.331c0.176 0.026 0.374-0.172 0.291-0.376-0.041-0.1-0.234-0.145-0.293-0.246s-0.059-0.205-0.031-0.308c0.050-0.185 0.417-0.354 0.546-0.5 0.199-0.225 0.276-0.414 0.163-0.704-0.158-0.408-0.771-0.735-1.137-0.895-0.168-0.073-0.262-0.078-0.393-0.118 0.268 0.157 0.55 0.282 0.686 0.633 0.113 0.293 0.015 0.404 0.019 0.659 0.002 0.118 0.158 0.178 0.227 0.252 0.060 0.065 0.055 0.113 0.007 0.203-0.005-0.081-0.040-0.141-0.102-0.185-0.103-0.073-0.213-0.057-0.268-0.206-0.083-0.227 0.082-0.441-0.103-0.696-0.138-0.19-0.322-0.404-0.571-0.409-0.117-0.003-0.206 0.015-0.331 0.052l-0.167-0.201-0.004-0.003c-0.34-0.311-0.573-0.567-1.051-0.78s-0.713-0.246-1.26-0.234c-0.547 0.012-1.091 0.058-1.725 0.605s-2.268 2.64-2.664 2.905c-0.396 0.265-0.484 0.355-0.979 0.355s-1.268-0.7-1.298-1.575c-0.030-0.875-0.043-1.186 0.566-2.241s1.711-1.378 2.529-1.488c0.818-0.109 1.309 0.179 1.915 0.18s1.203-0.103 1.379-0.584c-0.086 0.051-0.202 0.109-0.527 0.092s-0.776-0.393-1.283-0.646c-0.507-0.252-1.071-0.282-1.795-0.295s-1.627 0.042-2.522 0.525c-0.895 0.483-1.505 0.996-2.024 1.941s-0.596 1.717-0.513 2.862 0.437 1.996 1.116 2.834c0.68 0.838 1.359 1.248 2.584 1.4l0.258-1.137-0.46 0.661 0.011-0.735-0.416 0.517-0.183-0.701-0.337 0.562-0.168-0.782-0.489 0.395 0.155-0.646-0.647 0.072 0.297-0.449-0.59 0.007 0.343-0.599-0.523-0.083 0.417-0.545-0.641-0.19 0.531-0.508-0.524-0.427 0.41-0.319-0.383-0.51 0.409-0.476-0.153-0.628 0.347-0.303 0.103-0.718 0.389-0.196 0.335-0.561 0.619-0.066 0.306-0.504 0.622 0.032 0.588-0.319 0.61 0.142 0.692-0.209 0.513 0.12 0.669 0.098 0.646 0.517-0.991-0.346-0.499 0.239-0.412-0.252-0.284 0.193-0.502 0.050-0.45-0.029-0.328 0.401-0.669 0.007-0.239 0.54-0.595 0.209-0.056 0.62-0.427 0.334 0.142 0.584-0.369 0.606 0.283 0.53-0.278 0.485 0.37 0.241-0.084 0.78 0.515 0.13 0.116 0.579 0.561-0.058 0.348 0.397 0.431-0.421c0.785-0.391 1.108-0.61 1.72-1.272 0.697-0.753 1.096-1.45 2.024-1.966 0.665-0.37 1.208-0.503 1.956-0.374 0.702 0.121 0.937 0.542 1.454 0.986 0.055-0.099 0.066-0.125 0.156-0.198-0.028 0.129-0.073 0.262-0.085 0.386z"></path>
</svg>
