<?xml version="1.0" encoding="utf-8"?>
<!-- Generated by IcoMoon.io -->
<!DOCTYPE svg PUBLIC "-//W3C//DTD SVG 1.1//EN" "http://www.w3.org/Graphics/SVG/1.1/DTD/svg11.dtd">
<svg version="1.1" xmlns="http://www.w3.org/2000/svg" xmlns:xlink="http://www.w3.org/1999/xlink" width="32" height="32" viewBox="0 0 32 32">
<path fill="#444444" d="M12.040 9.495c-0.359 0.42-0.72 0.838-0.804 1.402l0.080 0.096c0.241-0.29 0.599-0.532 0.931-0.699-0 0.595 0.384 1.178 0.895 1.464l0.087 0.007c-0.109-0.628-0.036-1.395 0.21-1.961 0.391-0.329 0.905-0.459 1.236-0.805-0.827-0.194-1.616-0.031-2.323 0.24l-0.312 0.255zM15.44 11.315c-0.534 0.040-1.032 0.135-1.534 0.266 0.222 0.205 0.502 0.274 0.712 0.465-0.658 0.249-1.347 0.405-1.921 0.913l0.12 0.071c1.063-0.221 2.321-0.203 3.429 0.034l0.065-0.046-0.642-1.169 0.987-0.215c-0.525-0.491-1.125-0.973-1.813-1.182 0.103 0.285 0.393 0.571 0.597 0.861v0 0zM19.301 12.488c0.525 0.097 1.104 0.109 1.604 0.015-0.825-0.422-1.879-0.339-2.537-1.077 0.122 0.388 0.391 1.012 0.932 1.062zM11.455 15.46c0.205 0.66-0.487 1.463 0.068 2.067 0.471 0.55 1.048 1.006 1.604 1.409l-0.048-0.206c-0.494-0.578-0.949-1.214-1.176-1.9 0.578 0.203 1.19 0.483 1.853 0.576-0.746-1.112-2.11-2.176-1.595-3.699 0.027-0.252 0.36-0.445 0.277-0.678-0.781 0.597-1.107 1.475-0.982 2.431v0zM28.411 13.543c-1.055-1.462-4.87-1.692-6.595-3.617 0.294-0.957-0.323-1.742-0.951-2.34-0.945-0.695-2.249-0.375-3.254-0.087-1.146-0.24-2.205-0.651-3.32-0.976-2.481-0.259-4.925 1.554-4.925 1.554-1.76 1.164-4.52 3.575-5.839 4.981 0.325 0.044 0.67-0.209 1.036-0.258l2.536-0.696c-1.053 0.906-3.27 2.499-3.912 3.757 0.791-0.285 2.453-1.243 3.28-1.321-0.721 0.662-2.227 1.919-2.699 2.719 0.057 0.028 0.017 0.096 0.027 0.147 0.621-0.357 2.128-1.288 2.813-1.35-0.704 0.761-1.998 2.221-2.283 3.201 0.612-0.417 2.149-1.262 2.821-1.52-0.153 0.386-0.493 0.674-0.713 1.061-0.304 0.535-1.027 1.143-1.053 1.779 0.536-0.519 1.2-0.974 1.868-1.341-0.298 0.643-0.845 1.174-0.995 1.939 0.437-0.441 1.268-0.67 1.832-0.872l-0.068 0.067c-0.049 0.041-0.683 0.509-1.116 1.031 0.383-0.025 0.101-0.073 0.584 0.038l-0.799 0.324c0.585 0.767 1.219 1.428 1.898 1.984-0.030-0.168-0.026-0.356-0.126-0.388l1.972-1.113c-0.671 0.113-2.503 0.679-2.614 0.586 0.401-0.451 2.484-1.047 2.878-1.834 0 0 0.064-0.028-0.14 0.049l-1.571 0.088c-0.307-1.111 0.999-1.696 0.33-2.58-0.998-1.32-1.813-2.681-1.639-4.353 0.093 0.198 0.185 0.42 0.351 0.577 0.069-0.37 0.085-0.787 0.187-1.118 0.144 0.503 0.295 1.077 0.816 1.389l0.026-0.034c-0.428-1.58-0.158-3.473 1.392-4.443-0.413 0.14-1.024 0.101-1.63 0.363 0.104-0.144 0.286-0.895 0.704-1.271 0.343-0.23 0.513-0.505 0.865-0.698 0.697-0.554 1.404-1.015 2.617-1.207 1.133-0.18 2.139 0.343 3.202 0.514-0.047 0.161-0.249 0.238-0.32 0.371-0.098 0.183-0.344 0.369-0.245 0.567l0.823-0.315c1.155-0.291 2.253-0.877 3.513-0.745l0.63 0.801c-1.352-1.076-2.759 0.3-4.098 0.593-0.512 0.093-1.017 0.275-1.505 0.382 0.555 0.415 1.215 0.509 1.935 0.431 0.078 0.525 0.719 1.359 1.192 1.478-0.068-0.485-0.61-1.15-0.262-1.747 0.447-0.25 1.086-0.802 1.593-0.389-0.323 0.030-0.595 0.252-0.876 0.399-0.208 0.151-0.26 0.616-0.217 0.722 0.208 0.631 1.354 1.227 3.298 1.207-0.167-0.289-1.131-1.133-1.074-1.457 1.96 1.944 5.57 2.401 6.406 3.25 0.072 0.284-0.778 0.91-0.613 1.159-0.096 0.3 0.366 0.83 0.838 1.403-0.371-2.313 0.855-0.786 0.222 0.87l-0.892-0.197c-2.891-0.203-4.018-1.192-6.297-2.682-0.847-0.562-1.8-1.367-2.38-1.834l-1.271-0.485c1.686 2.048 2.124 1.86 1.286 3.378l-0.441-0.774-0.172-1.419c-0.495 1.698-0.767 3.488 1.484 4.529l1.28 0.181c-0.596-0.49-1.127-0.964-0.995-1.54 0.699 1.35 3.94 2.017 5.311 2.395 0.228 0.087 0.466 0.222 0.619 0.39-0.36 0.325-0.57 0.276-1.050 0.448-1.045-0.357-2.474-0.643-2.946-1.323 0.262 0.377-4.188 0.901-3.329 0.974-1.262-0.059-2.525-0.875-3.411-1.883l-0.23-0.079c0.024 0.99 0.957 1.683 1.447 2.526l0.972 0.431c-0.464 0.299-1.048 0.576-1.34 1.102-0.102 0.26-0.307 0.587-0.176 0.861 0.436-0.464 1.006-0.692 1.569-0.834l-0.423 0.643c0.091 0.716-0.5 1.978-0.9 2.722-0.474 1.161-3.489 0.070-6.195-0.736 2.179 1.622 4.812 2.24 7.839 1.979l-0.326-0.708c0.711-1.401 0.332-3.646 2.189-4.614 1.257-0.669 1.399-1.034 2.849-0.762 0.783 0.148 2.497 0.739 3.319 0.553 0.744-0.431 1.116-0.627 1.758-1.125 0.807 0.143 1.067 0.057 1.36-0.383 0.15-0.411 0.511-1.499 0.841-2.209l0.024-0.384c-0.323-0.965-0.244-2.611-0.406-2.848zM19.209 10.785c-0.016 0.068-0.017 0.136-0.006 0.199-0.173-0.138-0.285-0.32-0.288-0.538 0.177-0.015 0.343 0.006 0.499 0.054-0.098 0.059-0.174 0.161-0.205 0.286zM19.792 11.242c0.080-0.060 0.141-0.15 0.169-0.261 0.013-0.053 0.017-0.105 0.012-0.157 0.141 0.122 0.265 0.265 0.377 0.418-0.18 0.034-0.374 0.032-0.558-0.001zM21.595 16.793c0.022-0.159-0.005-0.346 0.069-0.473 0.113 0.047 0.321 0.048 0.367 0.144-0.159 0.068-0.273 0.247-0.435 0.329zM22.608 17.304l0.026-0.436c0.133-0.030 0.23 0.054 0.303 0.114l-0.33 0.322zM23.389 17.654c0.030-0.065-0.018-0.513 0.070-0.508l0.263 0.155c-0.079-0.006-0.257 0.357-0.334 0.353zM24.11 18.025l0.083-0.207c-0.014-0.403-0.002-0.319 0.3-0.26-0.108 0.1-0.201 0.452-0.384 0.467zM25.058 18.296l0.022-0.629 0.304 0.070-0.326 0.559zM25.892 18.199c-0.023-0.488-0.002-0.433 0.375-0.287l-0.375 0.287zM26.786 18.504c0.011-0.172 0.061-0.368 0.007-0.53 0.103 0.008 0.222-0.025 0.309 0.048-0.024 0.196-0.226 0.316-0.316 0.483zM23.389 17.654c0.079 0.006 0.257-0.357 0.334-0.353l-0.263-0.155c-0.091-0.007-0.041 0.444-0.070 0.508zM15.56 24.222c0.12 0.224 0.124 0.498 0.244 0.722 0.282-0.609 0.251-1.34-0.116-1.887-0.637-0.281-1.252-0.573-1.802-1.017 0.227 0.777 0.974 1.634 1.673 2.182v0zM15.331 25.777l0.618-0.504c-0.601-0.391-1.618-1.090-2.17-1.609 0.433 0.9 0.447 1.894 1.551 2.113z"></path>
</svg>
