<?xml version="1.0" encoding="utf-8"?>
<!-- Generated by IcoMoon.io -->
<!DOCTYPE svg PUBLIC "-//W3C//DTD SVG 1.1//EN" "http://www.w3.org/Graphics/SVG/1.1/DTD/svg11.dtd">
<svg version="1.1" xmlns="http://www.w3.org/2000/svg" xmlns:xlink="http://www.w3.org/1999/xlink" width="32" height="32" viewBox="0 0 32 32">
<path fill="#444444" d="M16 4.567c-5.377 0-9.736 4.359-9.736 9.736s4.358 9.736 9.736 9.736c5.377 0 9.736-4.359 9.736-9.736s-4.359-9.736-9.736-9.736zM16 21.695c-4.074 0-7.392-3.314-7.392-7.392s3.317-7.392 7.392-7.392c4.077 0 7.392 3.314 7.392 7.392s-3.315 7.392-7.392 7.392zM16 11.057c-1.792 0-3.245 1.452-3.245 3.245 0 1.791 1.453 3.245 3.245 3.245s3.245-1.454 3.245-3.245c0-1.793-1.453-3.245-3.245-3.245zM16 7.812c-3.584 0-6.49 2.906-6.49 6.49s2.906 6.491 6.49 6.491c3.584 0 6.49-2.906 6.49-6.491s-2.907-6.49-6.49-6.49zM16 18.449c-2.285 0-4.147-1.86-4.147-4.147s1.862-4.147 4.147-4.147c2.286 0 4.147 1.86 4.147 4.147s-1.861 4.147-4.147 4.147zM21.95 26.562l-2.524-1.082v0.721h-4.973l-1.029-1.029c-0.070-0.070-0.185-0.070-0.255 0s-0.070 0.184 0 0.255l0.774 0.774h-0.392l-1.029-1.029c-0.070-0.070-0.185-0.070-0.255 0s-0.070 0.184 0 0.255l0.774 0.774h-0.392l-1.029-1.029c-0.070-0.070-0.185-0.070-0.255 0s-0.070 0.184 0 0.255l0.774 0.774h-0.392l-1.029-1.029c-0.070-0.070-0.185-0.070-0.255 0s-0.070 0.184 0 0.255l0.774 0.774h-0.827c-0.203 0-0.361 0.211-0.361 0.361s0.163 0.361 0.361 0.361h0.827l-0.774 0.774c-0.070 0.070-0.070 0.184 0 0.255s0.185 0.070 0.255 0l1.029-1.029h0.392l-0.774 0.774c-0.070 0.070-0.070 0.184 0 0.255s0.185 0.070 0.255 0l1.029-1.029h0.392l-0.774 0.774c-0.070 0.070-0.070 0.184 0 0.255s0.185 0.070 0.255 0l1.029-1.029h0.392l-0.774 0.774c-0.070 0.070-0.070 0.184 0 0.255s0.185 0.070 0.255 0l1.029-1.029h4.973v0.721l2.524-1.082z"></path>
</svg>
