<?xml version="1.0" encoding="utf-8"?>
<!-- Generated by IcoMoon.io -->
<!DOCTYPE svg PUBLIC "-//W3C//DTD SVG 1.1//EN" "http://www.w3.org/Graphics/SVG/1.1/DTD/svg11.dtd">
<svg version="1.1" xmlns="http://www.w3.org/2000/svg" xmlns:xlink="http://www.w3.org/1999/xlink" width="32" height="32" viewBox="0 0 32 32">
<path fill="#444444" d="M6.248 16.554c0.132-0.413 0.289-1.255 0.655-1.995 1.781-3.594 4.536-6.208 8.215-7.796 0.71-0.306 1.555-0.404 2.339-0.408 0.98-0.005 1.637 0.677 1.723 1.666 0.045 0.515 0.039 1.087-0.138 1.561-1.743 4.662-5.032 7.784-9.656 9.538-0.18 0.068-0.381 0.086-0.575 0.112-1.574 0.216-2.587-0.676-2.563-2.678zM18.349 13.099c2.556-0.179 5.069-0.355 7.702-0.54-0.192-0.183-0.3-0.303-0.425-0.403-2.292-1.838-4.59-3.668-6.873-5.517-0.226-0.183-0.366-0.471-0.668-0.871 0.981 0 1.774-0.009 2.567 0.002 0.957 0.014 1.937-0.079 2.867 0.093 2.011 0.372 3.084 1.669 3.046 3.713-0.035 1.916-0.233 3.829-0.375 5.742-0.217 2.929-0.445 5.858-0.671 8.786-0.039 0.505-0.086 1.010-0.137 1.61-1.063-0.947-2.080-1.852-3.095-2.758-0.131-0.117-0.24-0.268-0.385-0.361-1.241-0.79-1.759-1.968-2.041-3.376-0.368-1.84-0.907-3.646-1.371-5.467-0.052-0.204-0.090-0.412-0.142-0.655zM8.765 24.301c0.547-0.076 1.059-0.108 1.547-0.234 0.192-0.049 0.415-0.283 0.477-0.479 0.46-1.455 0.882-2.923 1.317-4.385 0.038-0.128 0.091-0.252 0.161-0.443 2.662 0.852 5.303 1.698 8.022 2.568-1.415 1.428-2.92 2.625-4.602 3.701 2.997 0.229 5.994 0.458 8.991 0.687 0 0.038 0 0.077 0.001 0.115-0.646 0.046-1.292 0.094-1.938 0.137-3.812 0.251-7.623 0.501-11.435 0.75-0.606 0.040-1.213 0.106-1.818 0.095-2.566-0.047-4.020-1.453-4.053-4.027-0.019-1.446 0.13-2.894 0.222-4.34 0.007-0.109 0.163-0.209 0.25-0.313 0.129 0.115 0.317 0.205 0.38 0.349 0.766 1.776 1.514 3.56 2.267 5.341 0.061 0.143 0.126 0.284 0.211 0.478z"></path>
</svg>
