<?xml version="1.0" encoding="UTF-8"?>
<svg version="1.1" viewBox="0 0 128 128" xmlns="http://www.w3.org/2000/svg">
 <path d="m74.351 122.47c0.73001-2.9361-2.0129-5.7059-3.8379-3.8809-2.2437 2.2652-3.7735 1.3419-3.124-1.8626 0.37574-1.9324 0.18787-3.022-0.54751-3.022-1.9324 0-1.2346-2.8288 1.1111-4.4874 1.2346-0.85882 4.2995-1.5727 6.817-1.5942 2.5174 0 5.2603-0.48309 6.0816-1.0896 1.1702-0.81589 0.90177-0.94471-1.1809-0.48309-1.4815 0.33816-3.9399 0.12883-5.4214-0.44016-2.0397-0.77295-3.4622-0.64412-5.7703 0.50456-3.8379 1.9055-3.7735 1.9324-3.7735-0.41867 0-1.3419-0.82126-2.0558-2.6033-2.2652l-2.5765-0.33816 2.2008-2.3457c2.3511-2.5174 4.9061-2.5765 11.809-0.35426 4.5089 1.4493 4.1278 0.0214-0.7139-2.7053-4.5733-2.5604-7.6973-6.1031-19.313-21.847-12.373-16.736-13.253-18.894-13.795-33.027l-0.46162-11.825-6.4198-7.5255c-3.5212-4.1331-6.8707-7.8046-7.4396-8.1589-0.56898-0.3328-3.3172-0.90177-6.1031-1.2346-5.7273-0.67096-6.0816-1.4922-2.9361-6.817 2.4691-4.2351 5.7434-4.7182 10.483-1.5727 1.6801 1.1111 3.7144 1.9699 4.5518 1.9485 0.94471-0.037579 0.64412-0.48309-0.75148-1.1702-1.2614-0.59045-2.2705-1.4063-2.2705-1.8035 0-1.1326 13.296-2.0129 17.177-1.1111 8.0515 1.8411 10.628 4.6699 11.991 13.124 0.92324 5.722 1.5298 6.876 5.679 10.778 2.5389 2.4101 7.2142 5.62 10.381 7.1283 3.1669 1.5083 7.5899 4.2351 9.8551 6.0387 5.3248 4.2351 13.672 16.436 16.522 24.112 1.2346 3.3333 2.7483 6.6452 3.3548 7.4021 1.6586 1.9914-1.0038 3.3548-5.3033 2.6838-2.8446-0.37541-5.7087-0.5851-8.5776-0.62802-2.7912-0.042988-5.6629-0.56898-6.3929-1.154-1.868-1.5083-6.7955-12.684-7.6973-17.402-1.5727-8.3897-4.5894-11.487-15.201-15.62-7.6114-2.9576-8.175-3.4192-12.265-9.796-3.7574-5.8508-4.4659-10.252-1.6103-10.038 2.9308 0.22544 2.1363-3.693-1.0306-5.2067-2.1632-1.0467-3.5856-1.0896-6.189-0.22544-2.2437 0.73001-4.7558 0.79442-7.547 0.16103-2.2866-0.52067-4.1707-0.70854-4.1707-0.41331 0 0.26838 2.3457 3.0596 5.2228 6.1836 8.3843 9.1841 9.0553 10.671 8.2985 18.578-0.44015 4.5733-0.26838 7.2571 0.52603 8.2179 0.64949 0.77832 1.0896 1.8035 0.98766 2.2652-0.10735 0.48309 0.56361 2.5604 1.4654 4.6323 0.92324 2.0558 1.6801 4.4445 1.6801 5.2872 0 0.85883 0.70854 1.5513 1.5888 1.5513 1.1809 0 1.3849 0.59045 0.85883 2.2652-0.60655 1.8841-0.48309 2.0719 0.7139 1.0682 1.1809-0.96618 1.6801-0.59044 2.7483 2.0344 0.7139 1.7606 1.7391 4.2781 2.2652 5.5985 0.52603 1.299 1.825 2.598 2.8986 2.8717 1.0843 0.26838 2.2008 1.7391 2.555 3.2904 0.3328 1.5298 1.4493 3.693 2.453 4.7772 1.0038 1.095 2.1578 2.963 2.5336 4.1546 0.94472 2.9576 5.4965 5.9957 9.6887 6.4788 2.6409 0.31669 3.4997 0.8803 3.4997 2.3725 0 1.0682 0.52603 1.8411 1.1541 1.7177 0.64949-0.12341 1.7177 0.46162 2.4155 1.256 0.66559 0.82126 1.6962 1.4922 2.2813 1.4922 0.59045 0 0-1.1326-1.299-2.5174-1.299-1.3849-2.0934-2.8073-1.7391-3.167 0.35427-0.3328 1.8465 0.7998 3.3119 2.5604 2.9361 3.4783 6.3124 5.6576 7.3001 4.6699 0.35427-0.3328-1.4063-2.3618-3.8808-4.525-2.4745-2.1364-4.1546-4.2351-3.7574-4.6538 0.42405-0.41868 1.8894 0.3328 3.2743 1.6747 6.6667 6.4574 12.077 10.005 15.325 10.005 1.5298 0 1.5137-0.18787-0.1074-1.9753-0.96083-1.0682-1.4868-2.3886-1.1487-2.9522 0.34729-0.5491 0.17821-1.2762-0.37574-1.6157-0.54751-0.33817-3.1025-4.6967-5.6844-9.6887-2.5765-4.992-5.5341-9.5169-6.5862-10.086-3.752-2.0129-1.7391-2.6409 7.8261-2.453l9.7477 0.21471 8.3843 8.9265c4.6162 4.9276 8.2233 9.1036 8.014 9.313-0.19322 0.20934-1.2829-0.1074-2.4155-0.71391-2.7912-1.5083-3.0596-1.4063-2.453 0.92324 0.59045 2.2437-0.69244 2.6624-2.5121 0.81589-0.67095-0.64412-1.5566-0.83736-1.9753-0.41869-0.41869 0.44016 1.9324 3.2528 5.2442 6.248 3.5427 3.2314 5.62 5.8078 5.0349 6.3124-1.3258 1.1272-22.797-0.29522-25.438-1.7177-1.1755-0.63338-3.9828-1.1326-6.248-1.1326-3.4192 0-4.1063 0.3328-4.1063 1.986 0 4.0526-3.2958 10.048-7.6973 14.074-2.496 2.2652-4.7611 4.1331-5.0134 4.1331-0.25228 0-0.18787-1.0735 0.1503-2.351zm4.8417-6.5647c-0.44015-1.3419-0.3328-1.401 0.44015-0.28985 0.81589 1.1111 1.299 0.91788 2.5604-1.0306 0.83736-1.3205 1.6747-3.3119 1.8626-4.4015 0.27375-1.7177-0.14493-1.97-2.7053-1.6801-3.6017 0.41867-6.4359 1.8035-8.8245 4.278-2.1632 2.2652-2.2222 2.9361-0.23081 2.9361 0.83736 0 2.2866 0.90177 3.2099 1.9914 1.9699 2.2866 4.5894 1.0091 3.6876-1.8036zm-3.5212-3.2474c2.5174-2.0934 4.1707-2.5389 4.1707-1.1326 0 0.81589-4.4445 3.226-5.8508 3.167-0.37574-0.0214 0.35964-0.94471 1.6801-2.0397zm34.971-14.09c-0.35426-0.56898-1.0896-1.0091-1.6318-1.0091-0.56897 0-0.73537 0.44015-0.37573 1.0091 0.3328 0.54214 1.0682 1.0038 1.6103 1.0038 0.56897 0 0.73538-0.46162 0.3972-1.0038zm-3.124-12.727c2.7483-1.0521 1.766-2.4155-1.299-1.7821-1.6532 0.31132-3.2045 0.08055-3.5856-0.54751-0.94471-1.5083-2.8717-1.4063-2.3457 0.12341 0.23081 0.6978 1.5083 1.5566 2.8502 1.9324 1.3634 0.37575 2.5389 0.73538 2.6194 0.77295 0.10741 0.06442 0.90178-0.16103 1.7606-0.4992zm-9.5008-5.3462c0-0.48309-0.70854-1.1809-1.5888-1.5137-2.4745-0.93935-2.8073-0.73-1.4278 0.90178 1.3849 1.6801 3.022 2.0129 3.022 0.61191zm-12.936-12.437c-0.73001-0.73538-1.1916-0.79442-1.1916-0.14493 0 1.3419 1.197 2.5336 1.868 1.8626 0.28986-0.28985-0.02147-1.0682-0.67096-1.7177zm2.7268-3.2743c-1.7391-1.7177-8.2985-5.5931-8.7386-5.1315-0.31669 0.28986-0.37574 0.69243-0.1503 0.85883 0.23081 0.1664 1.7391 1.3205 3.3333 2.5389 2.394 1.7982 7.1122 3.2904 5.5556 1.7391zm7.1927-2.555c0-1.2131-3.7091-3.6071-7.0854-4.5464-2.2652-0.65486-2.1578-0.42405 1.0252 2.3672 3.5427 3.124 6.0655 4.0258 6.0655 2.1793zm-9.9141-16.371c-0.73537-0.73537-1.197-0.79979-1.197-0.17177 0 1.3634 1.197 2.5389 1.868 1.868 0.28986-0.26838-0.02147-1.0467-0.67096-1.7016zm-7.2571-5.2872c0-0.25228-0.46162-0.73537-1.0038-1.0735-0.56898-0.3328-1.0091-0.13956-1.0091 0.44552 0 0.59045 0.44015 1.0735 1.0091 1.0735 0.54214 0 1.0038-0.19324 1.0038-0.44552zm-13.564-4.1331c-2.0773-1.5513-3.2314-1.299-2.1202 0.46162 0.35964 0.61192 1.4278 1.0735 2.3725 1.0521 1.4869-0.02147 1.4654-0.21471-0.25228-1.5083zm-22.77-26.71c-0.0161-0.57898-0.49436-1.0372-1.0735-1.0252-0.58508 0-0.79442 0.45625-0.46162 1.0252 0.35963 0.5475 0.84273 1.0038 1.0735 1.0038 0.25228 0 0.46162-0.45625 0.46162-1.0038zm-19.19-1.0252c0-0.54751-1.0252-0.98766-2.2813-0.98766-1.825 0.021468-1.9753 0.20934-0.75685 0.98766 1.9699 1.2775 3.0381 1.2775 3.0381 0zm57.204 82.126c-0.35964-0.37574-0.67096-1.3419-0.67096-2.1578 0-1.1755 0.28986-1.2185 1.503-0.21471 0.84273 0.69781 1.5352 1.664 1.5352 2.1471 0 1.0467-1.4063 1.1702-2.3672 0.22545zm-13.843-15.389c-1.9055-1.6103-3.1025-3.3119-2.6624-3.7735 0.46162-0.46162 1.3044-0.04299 1.868 0.96618 0.5475 1.0038 2.0934 2.2222 3.4353 2.7429 1.3419 0.50457 2.4584 1.3849 2.4584 1.9539 0 1.7177-1.4063 1.1916-5.0993-1.8894zm-57.22-64.037-3.2475-1.1702 2.555-3.2958c1.8894-2.4101 3.3978-3.2689 5.62-3.2689 1.6801 0 2.8556 0.33817 2.6463 0.75148-0.21471 0.42405-1.1541 2.4584-2.1202 4.5303-0.94471 2.0988-1.825 3.7574-1.9699 3.7144-1.1629-0.41573-2.3242-0.8362-3.4836-1.2614z" stroke-width="5.3677"/>
</svg>
