<svg width="128" height="128" version="1.1" viewBox="0 0 128 128" xmlns="http://www.w3.org/2000/svg"><path d="m96.455 24.018-0.7793 0.089844c-1.027 0.121-3.3083 1.5391-4.6133 2.8711-0.555 0.563-1.2925 1.5438-1.6445 2.1758-0.352 0.632-0.88092 1.4333-1.1699 1.7773-0.3445 0.41122-0.55868 0.91575-0.61524 1.4492-0.089998 0.793-0.058185 0.85342 0.75781 1.6074 0.727 0.664 0.949 1.0526 1.5 2.5996 0.652 1.821 1.7659 5.9065 2.4219 8.8945 0.344 1.546 0.34362 1.6014 0.015625 1.8984-0.187 0.168-0.48034 0.67748-0.65234 1.1465-0.172 0.469-0.32375 0.87348-0.34375 0.89648l-2.832 0.51562-2.8008 0.46484-0.43359-0.46875c-0.238-0.258-0.45738-0.46875-0.48438-0.46875-1.304 0-12.496-1.9047-12.781-2.1777-0.078-0.069998 0.17559-1.2339 0.55859-2.5859 0.524-1.836 0.76594-2.4417 0.96094-2.3867 1.27 0.34 1.3399 0.21481 0.62891-1.1172-0.465-0.871-0.54666-1.4744-0.34766-2.4824l0.11328-0.55664 0.73438 0.25977c1.77 0.625 1.8439 0.16951 0.25391-1.5215-1.043-1.106-1.1798-1.3398-1.3008-2.2148l-0.13281-0.97656 1.2266 0.13281c1.211 0.129 1.2232 0.12531 1.1602-0.30469-0.051-0.351-0.45322-0.62841-2.0742-1.4414-2.106-1.046-3.0156-1.5974-3.0156-1.8164 0-0.071 0.43375-0.26569 0.96875-0.42969 1.188-0.379 1.6949-0.72616 1.5039-1.0352-0.14-0.231-0.25347-0.22275-2.1055 0.15625-0.453 0.094-1.0701 0.12069-1.3711 0.054688l-0.55078-0.11328 0.55078-0.12109c0.527-0.122 0.53141-0.12453 0.066406-0.14453-0.262-0.016-0.82781 0.102-1.2578 0.25-0.813 0.289-2.1448 0.33547-2.9258 0.10547-0.414-0.125-0.32406-0.20266 0.96094-0.84766 0.781-0.391 1.418-0.80859 1.418-0.93359-1e-6 -0.625-3.0041-0.383-4.6641 0.375-0.63034 0.31302-1.2216 0.69914-1.7617 1.1504-0.629 0.543-1.1681 0.81597-2.0781 1.043-0.679 0.172-1.2694 0.27552-1.3164 0.22852-0.172-0.172 2.3278-2.6098 3.2148-3.1328 1.914-1.129 0.83602-1.5375-2.168-0.81445-3.309 0.793-7.1135 2.6758-8.4375 4.1758-0.648 0.731-0.71094 0.8967-0.71094 1.8457 0 0.844-0.074156 1.1091-0.41016 1.4141-0.57 0.52-1.0433 0.74266-2.0703 0.97266-0.488 0.11-0.99209 0.28553-1.1211 0.39453-0.39 0.32-0.28931 1.6684 0.17969 2.3594 0.437 0.652 0.76538 0.85147 2.2344 1.3555 2.285 0.786 2.9417 0.69556 2.0117-0.27344-0.578-0.606-0.56687-0.62491 0.20312-0.37891 1.254 0.395 1.5352 0.40187 1.5352 0.046875 0-0.188-0.16428-0.48797-0.36328-0.66797-0.492-0.449-0.30484-0.65222 0.41016-0.44922 0.863 0.246 1.4141 0.21134 1.4141-0.097656 0-0.144-0.14431-0.34331-0.32031-0.44531-0.426-0.238-0.10172-0.57009 0.61328-0.62109 0.5-0.035 0.52747-3.42e-4 0.48047 0.59766-0.082 0.965-0.82013 2.051-2.3281 3.418-0.754 0.683-1.3711 1.3902-1.3711 1.5742 0 0.418 1.1636 0.93325 1.7656 0.78125 0.239-0.057998 1.1636-0.80144 2.0586-1.6484 0.895-0.847 2.0466-1.8042 2.5586-2.1172 0.512-0.313 1.1738-0.86375 1.4668-1.2188 0.449-0.543 0.75385-0.6991 1.9648-0.99609 0.99498-0.2185 2.0074-0.34792 3.0254-0.38672 1.446-0.039 1.6387-4e-3 2.0137 0.375 0.363 0.363 0.41797 0.60203 0.41797 1.832 0 2.285-0.57426 3.2382-4.1562 6.9102-2.168 2.219-3.0432 3-3.3672 3-0.239 0-2.1406 0.28481-4.2266 0.63281-3.503 0.582-6.1715 0.98397-8.6055 1.293-0.785 0.101-1.0119 0.2075-1.1719 0.5625-0.11 0.242-0.24959 0.43555-0.30859 0.43555l-4.0078-0.64062c-1.3249-0.22107-2.6511-0.43461-3.9785-0.64062-0.043 0-0.078126-0.11391-0.078126-0.25391 0-0.14-0.2496-0.73431-0.55859-1.3203-0.648-1.234-0.664-1.0193 0.375-5.1953 0.75-3.016 1.8792-6.6876 2.3242-7.5586 0.148-0.293 0.59338-0.83203 0.98437-1.207 0.938-0.891 0.99187-1.805 0.17188-2.832-0.297-0.375-0.84013-1.2113-1.2031-1.8633-0.363-0.652-1.1253-1.6564-1.6953-2.2344-1.078-1.09-3.4063-2.6502-4.2812-2.8652-0.801-0.195-0.66 0.49585 0.25 1.2148 0.969 0.769 3.2385 3.3712 3.7695 4.3242l0.41406 0.73633-3.7969-1.0117c-3.277-0.871-4.0509-1.0117-5.7109-1.0547-1.058-0.023-2.7032-0.13709-3.6602-0.24609-2.234-0.258-8.461-0.26572-10.75-0.011719-2.843 0.316-3.9553 0.58947-4.0293 0.98047-0.058 0.301 0.01972 0.32375 0.63672 0.21875 1.258-0.211 7.1209-0.35888 6.9219-0.17188l-1.8242 1.4375c-3.375 2.597-6.7615 6.2165-9.1445 9.7715-2.113 3.16-4.316 8.4571-5.207 12.539-0.317 1.461-0.35752 2.3615-0.35352 8.3965 4e-3 6.305 0.035032 6.9379 0.45703 9.5039 0.925 5.644 2.9804 12.896 3.6484 12.896 0.351 0 0.34016-0.1206-0.21484-2.5586-0.605-2.676-0.531-4.2269 0.375-7.7539 1.121-4.352 2.3473-7.0355 4.0703-8.8945 1.93-2.082 3.7618-2.4223 6.2578-1.1523l1.3867 0.70312 0.058594 1.3398c0.042998 1.144 0.097281 1.3304 0.36328 1.2754 0.231-0.043 0.37469-0.40578 0.55469-1.4258 0.219-1.222 0.33566-1.4613 1.0977-2.2812 1.406-1.511 2.6098-2.4554 4.0078-3.1504 1.199-0.59 1.4689-0.65625 2.8359-0.65625 1.16 1e-6 1.727 0.093346 2.418 0.40234 1.058 0.468 1.1874 0.62342 1.1914 1.4824 0.006998 0.89 0.1915 1.4882 0.4375 1.4062 0.113-0.035 0.30106-0.59328 0.41406-1.2383 0.261-1.449 0.85355-2.0191 2.6855-2.5781 2.433-0.742 5.4922-0.019996 9.5352 2.25 8.437 4.734 11.449 6.0394 14.57 6.3164 1.039 0.094 1.2342 0.16809 1.3242 0.49609 0.152 0.578 0.12903 1.5742-0.042968 1.5742-0.083 0-0.5035 0.30478-0.9375 0.67578-0.93 0.797-1.4608 1.8597-1.4688 2.9297-4e-3 0.723-0.65669 2.4297-0.92969 2.4297-0.066 0-0.62519-0.59527-1.2422-1.3223-2.813-3.34-2.7309-3.2945-6.0039-3.3965-2.211-0.07-2.4839-0.042875-3.2539 0.32812-0.816 0.394-1.7383 1.4531-1.7383 1.9961 0 0.144-0.25546 0.78106-0.56445 1.4141-0.914 1.879-0.90666 3.8863 0.027344 5.0703 0.562 0.715 0.8165 0.598 1.0625-0.5 0.118-0.539 0.33166-1.1362 0.47266-1.3242 0.277-0.382 0.25019-0.4254 0.61719 0.93359 0.246 0.899 1.2105 2.1035 1.6875 2.1035 0.305 0 0.35156-0.133 0.35156-1 0-0.55 0.13297-1.3323 0.29297-1.7383 0.301-0.754 0.62109-0.97278 0.62109-0.42578 0 0.633 0.80463 1.9372 1.5156 2.4492 1.109 0.805 1.2305 0.73223 1.1055-0.63477-0.062-0.641-0.054375-1.4727 0.015625-1.8477l0.12891-0.67969 1.9609 1.9141c1.93 1.879 3.5938 3.0546 4.3398 3.0586 0.473 0 0.82658-0.38663 2.2676-2.5156 0.628-0.933 1.2055-1.7304 1.2715-1.7734s0.68309 1.5434 1.3711 3.5234c0.688 1.98 1.6437 4.6211 2.1367 5.8711 0.493 1.25 0.87261 2.2894 0.84961 2.3164l-5.3535 2.6758c-5.457 2.711-7.8556 3.6483-11.891 4.6523-1.703 0.426-2.3747 0.50019-4.4727 0.49219-3.777-0.016-5.8904-0.56678-7.8594-2.0508-1.171-0.887-1.6484-0.96906-1.6484-0.28906-1e-6 1.043 1.0311 2.4744 2.4531 3.4004 2.238 1.461 5.4529 2.0784 10.09 1.9414 2.293-0.067 3.3687-0.19184 5.0957-0.58984 4.004-0.918 9.8533-2.9881 14.361-5.0781l1.5566-0.71875 0.72852 0.86328c2.191 2.586 3.7541 4.2495 4.8281 5.1445 2.242 1.863 5.7628 3.5872 8.1523 4.0859s3.4487 0.5133 4.3167 0.51989 3.0396-0.04185 3.9817-0.24862c0.94211-0.20677 3.7084-0.88927 5.1137-1.7947 2.539-1.656 4.3047-3.8804 4.8867-6.1504 0.41-1.618 0.28352-4.2866-0.27148-5.7246-1.277-3.293-3.9702-5.4535-8.2832-6.6445-2.129-0.59-6.5903-0.80122-9.4062-0.44922-2.188 0.273-5.477 1.0974-6.918 1.7344-0.586 0.262-1.1052 0.42991-1.1562 0.37891-0.137-0.133-1.5055-7.1015-1.4395-7.3125 0.031-0.098 0.48586 0.43741 1.0059 1.1914 1.531 2.199 1.8453 2.5508 2.2793 2.5508 0.758-4e-3 2.336-1.1091 4.332-3.0391l1.9922-1.9219 0.125 0.67188c0.071 0.371 0.080485 1.2028 0.021485 1.8438-0.129 1.367-0.004342 1.4377 1.0977 0.63672 0.691-0.5 1.5215-1.8554 1.5215-2.4844 0-0.52 0.32419-0.27697 0.61719 0.45703 0.164 0.406 0.29688 1.1483 0.29688 1.6523 0 0.687 0.076642 0.94516 0.30664 1.0352 0.461 0.175 1.4762-1.1097 1.8242-2.3047 0.265-0.906 0.3142-0.97297 0.5332-0.66797 0.137 0.179 0.3458 0.7735 0.4668 1.3125 0.246 1.102 0.51197 1.2226 1.043 0.47656 0.879-1.235 0.93762-3.3398 0.14062-4.8398-0.25431-0.48719-0.47235-0.99246-0.65234-1.5117-0.356-1.093-0.82791-1.6604-1.7539-2.1094-0.758-0.367-1.0392-0.39422-3.2422-0.32422-3.274 0.102-3.1948 0.054539-6.0078 3.3945-0.613 0.726-1.1762 1.3242-1.2422 1.3242-0.261 0-0.78922-1.4178-0.94922-2.5508-0.235-1.652-0.83553-2.6014-2.0195-3.1914-0.523-0.262-1.2654-0.47656-1.6484-0.47656-0.668 0-0.69531-0.023002-0.69531-0.625 0-1.058 0.12847-1.2031 1.1055-1.2031 0.988 0 2.9329-0.37512 4.2969-0.82812s6.3866-2.9571 9.6836-4.8281c5.453-3.094 8.3868-3.832 11.301-2.832 1.34 0.461 2.0589 1.2419 2.2109 2.4219 0.101 0.781 0.1875 0.96116 0.4375 0.91016 0.211-0.039 0.32828-0.26531 0.36328-0.69531 0.098-1.262 0.1876-1.398 1.1836-1.832 0.739-0.32 1.3088-0.41406 2.4688-0.41406 1.379-4e-3 1.6332 0.058408 2.9102 0.69141 1 0.492 1.8481 1.1168 2.9531 2.1758 1.688 1.617 1.9456 2.0508 2.1406 3.6328 0.106 0.852 0.19575 1.0508 0.46875 1.0508 0.289 0 0.34567-0.18013 0.38867-1.3281l0.05469-1.3223 1.0976-0.58594c2.464-1.32 4.2694-1.1619 6.0664 0.53711 2.305 2.183 3.7776 5.6253 5.1016 11.945l0.48047 2.293-0.57031 2.5039c-0.645 2.848-0.6566 2.9609-0.3086 2.9609 0.679 0 2.6292-6.8128 3.6562-12.801 0.441-2.567 0.4553-2.8749 0.4043-9.9648-0.059-8.188 0.02311-7.5667-1.6719-12.637-2.227-6.664-6.586-12.632-12.793-17.523-1.008-0.793-1.9097-1.5192-2.0117-1.6172-0.196-0.187 5.6133-0.043032 6.9023 0.16797 0.551 0.094 0.6836 0.058219 0.6836-0.17578 0-1.019-9.703-1.6133-15.418-0.94531-1.289 0.152-2.77 0.23283-3.293 0.17383-0.774-0.082-1.6957 0.095423-5.0977 0.98242l-4.1523 1.082 0.26953-0.52148c0.484-0.93 1.8983-2.5941 3.6133-4.2461zm-14.994 64.68c3.75-8e-3 3.8753 4e-3 5.2812 0.5 2.422 0.855 3.9531 2.2224 3.9531 3.5234 0 1.325-2.1443 3.4377-4.0703 4.0117-2.207 0.652-4.8163 0.21506-7.1953-1.2109-1.289-0.769-3.4848-2.7973-4.5898-4.2383-0.805-1.043-0.82809-1.1057-0.49609-1.3477 0.191-0.14 1.0075-0.47228 1.8125-0.73828 1.395-0.465 1.6527-0.488 5.3047-0.5z" fill-rule="evenodd"/></svg>
