<svg width="52.57" height="59.76" version="1.1" viewBox="0 0 52.57 59.76" xmlns="http://www.w3.org/2000/svg"><path class="cls-2" d="m24.75 0.4199-23.2 13.4c-0.9608 0.544-1.551 1.566-1.543 2.67v26.79c0.07194 1.32 0.6075 2.13 1.543 2.67l23.2 13.4c0.9519 0.5593 2.132 0.5593 3.084 0l23.2-13.4c0.9598-0.5447 1.55-1.566 1.541-2.67v-26.79c0.007892-1.104-0.5826-2.126-1.543-2.67l-23.2-13.4c-1.241-0.5845-2.051-0.5958-3.082 0zm14.94 19.26-0.003907 20.48c-0.1115 1.748-1.643 3.059-3.387 2.9-1.557 0.02071-3.045-0.6441-4.068-1.818l-13.37-16c0.002437 4.944-0.004301 9.902 0.001953 14.84-0.07022 3.906-5.894 3.908-5.967 0.001953l0.001953-20.48c0.1126-1.748 1.645-3.058 3.389-2.898 1.556-0.01971 3.043 0.645 4.066 1.818l13.37 16-0.001953-14.83c0-1.648 1.336-2.984 2.985-2.988 1.649-0.004471 2.984 1.331 2.984 2.978z" fill-rule="evenodd"/></svg>
