<?xml version="1.0" encoding="UTF-8"?>
<!-- Created with Inkscape (http://www.inkscape.org/) -->
<svg id="svg2" width="208.4mm" height="9.5123mm" version="1.1" viewBox="0 0 738.41 33.705" xmlns="http://www.w3.org/2000/svg" xmlns:cc="http://creativecommons.org/ns#" xmlns:dc="http://purl.org/dc/elements/1.1/" xmlns:rdf="http://www.w3.org/1999/02/22-rdf-syntax-ns#">
 <metadata id="metadata7">
  <rdf:RDF>
   <cc:Work rdf:about="">
    <dc:format>image/svg+xml</dc:format>
    <dc:type rdf:resource="http://purl.org/dc/dcmitype/StillImage"/>
    <dc:title/>
   </cc:Work>
  </rdf:RDF>
 </metadata>
 <g id="layer1" transform="translate(-171.69 -512.18)">
  <g id="g3340">
   <g id="text3336" fill="#4d4d4d" stroke-width="1px">
    <path id="path4245" d="m171.69 538.08v-24.85h2.45v24.85h-2.45z"/>
    <path id="path4247" d="m178.34 528.91q0-1.925 0.665-3.64t1.855-2.975q1.225-1.295 2.905-2.03t3.71-0.735q2.59 0 4.515 1.19 1.925 1.155 2.905 3.15l-2.31 0.735q-0.77-1.4-2.17-2.17-1.365-0.805-3.045-0.805-1.4 0-2.625 0.56-1.19 0.56-2.1 1.54-0.875 0.945-1.4 2.275-0.49 1.33-0.49 2.905 0 1.54 0.525 2.905t1.435 2.38q0.91 0.98 2.1 1.575 1.225 0.56 2.59 0.56 0.875 0 1.715-0.245 0.875-0.245 1.61-0.665 0.735-0.455 1.26-1.015t0.735-1.19l2.345 0.7q-0.385 0.98-1.12 1.82-0.735 0.805-1.75 1.435-0.98 0.595-2.205 0.91-1.19 0.35-2.485 0.35-1.995 0-3.675-0.735-1.68-0.77-2.905-2.065-1.225-1.33-1.925-3.045-0.665-1.715-0.665-3.675z"/>
    <path id="path4249" d="m206.38 538.43q-1.995 0-3.64-0.735-1.645-0.77-2.87-2.065-1.19-1.295-1.855-3.01t-0.665-3.605q0-1.925 0.665-3.64 0.7-1.715 1.89-3.01 1.225-1.295 2.87-2.065t3.605-0.77 3.605 0.77q1.68 0.77 2.87 2.065 1.225 1.295 1.89 3.01 0.7 1.715 0.7 3.64 0 1.89-0.665 3.605t-1.89 3.01q-1.19 1.295-2.87 2.065-1.645 0.735-3.64 0.735zm-6.615-9.38q0 1.54 0.525 2.87 0.525 1.295 1.4 2.31 0.91 0.98 2.1 1.54 1.225 0.56 2.59 0.56t2.555-0.56q1.225-0.595 2.135-1.575 0.91-1.015 1.435-2.345t0.525-2.87q0-1.505-0.525-2.835-0.525-1.365-1.435-2.345-0.91-1.015-2.135-1.575-1.19-0.595-2.555-0.595t-2.555 0.595q-1.19 0.56-2.1 1.575t-1.435 2.38q-0.525 1.33-0.525 2.87z"/>
    <path id="path4251" d="m234.79 538.08h-2.38v-10.185q0-3.255-0.98-4.725-0.945-1.47-2.94-1.47-1.05 0-2.1 0.385t-1.96 1.085q-0.875 0.7-1.575 1.68-0.7 0.945-1.015 2.065v11.165h-2.38v-18.235h2.17v4.13q1.12-1.995 3.185-3.22 2.1-1.225 4.55-1.225 1.505 0 2.555 0.56t1.68 1.575 0.91 2.485 0.28 3.255v10.675z"/>
    <path id="path4253" d="m239.9 538.08v-18.235h2.38v18.235h-2.38zm0-22.05v-3.5h2.38v3.5h-2.38z"/>
    <path id="path4255" d="m246.29 528.91q0-1.925 0.665-3.64t1.855-2.975q1.225-1.295 2.905-2.03t3.71-0.735q2.59 0 4.515 1.19 1.925 1.155 2.905 3.15l-2.31 0.735q-0.77-1.4-2.17-2.17-1.365-0.805-3.045-0.805-1.4 0-2.625 0.56-1.19 0.56-2.1 1.54-0.875 0.945-1.4 2.275-0.49 1.33-0.49 2.905 0 1.54 0.525 2.905t1.435 2.38q0.91 0.98 2.1 1.575 1.225 0.56 2.59 0.56 0.875 0 1.715-0.245 0.875-0.245 1.61-0.665 0.735-0.455 1.26-1.015t0.735-1.19l2.345 0.7q-0.385 0.98-1.12 1.82-0.735 0.805-1.75 1.435-0.98 0.595-2.205 0.91-1.19 0.35-2.485 0.35-1.995 0-3.675-0.735-1.68-0.77-2.905-2.065-1.225-1.33-1.925-3.045-0.665-1.715-0.665-3.675z"/>
    <path id="path4257" d="m276.59 538.08v-16.345h-2.52v-1.89h2.52v-0.49q0-3.36 1.435-5.25 1.435-1.925 3.92-1.925 1.085 0 2.1 0.315t1.75 0.84l-0.735 1.715q-0.49-0.385-1.225-0.595-0.7-0.21-1.435-0.21-1.68 0-2.555 1.295t-0.875 3.745v0.56h5.04v1.89h-5.04v16.345h-2.38z"/>
    <path id="path4259" d="m294.15 538.43q-1.995 0-3.64-0.735-1.645-0.77-2.87-2.065-1.19-1.295-1.855-3.01t-0.665-3.605q0-1.925 0.665-3.64 0.7-1.715 1.89-3.01 1.225-1.295 2.87-2.065t3.605-0.77 3.605 0.77q1.68 0.77 2.87 2.065 1.225 1.295 1.89 3.01 0.7 1.715 0.7 3.64 0 1.89-0.665 3.605t-1.89 3.01q-1.19 1.295-2.87 2.065-1.645 0.735-3.64 0.735zm-6.615-9.38q0 1.54 0.525 2.87 0.525 1.295 1.4 2.31 0.91 0.98 2.1 1.54 1.225 0.56 2.59 0.56t2.555-0.56q1.225-0.595 2.135-1.575 0.91-1.015 1.435-2.345t0.525-2.87q0-1.505-0.525-2.835-0.525-1.365-1.435-2.345-0.91-1.015-2.135-1.575-1.19-0.595-2.555-0.595t-2.555 0.595q-1.19 0.56-2.1 1.575t-1.435 2.38q-0.525 1.33-0.525 2.87z"/>
    <path id="path4261" d="m322.56 538.08h-2.38v-10.185q0-3.255-0.98-4.725-0.945-1.47-2.94-1.47-1.05 0-2.1 0.385t-1.96 1.085q-0.875 0.7-1.575 1.68-0.7 0.945-1.015 2.065v11.165h-2.38v-18.235h2.17v4.13q1.12-1.995 3.185-3.22 2.1-1.225 4.55-1.225 1.505 0 2.555 0.56t1.68 1.575 0.91 2.485 0.28 3.255v10.675z"/>
    <path id="path4263" d="m336.22 537.2q-0.21 0.105-0.63 0.28-0.385 0.175-0.91 0.35t-1.19 0.315-1.4 0.14q-0.77 0-1.47-0.21t-1.225-0.63q-0.525-0.455-0.84-1.12t-0.315-1.54v-13.055h-2.52v-1.89h2.52v-6.16h2.38v6.16h4.2v1.89h-4.2v12.39q0.07 1.015 0.7 1.505 0.665 0.455 1.505 0.455 1.015 0 1.785-0.315 0.77-0.35 0.98-0.49l0.63 1.925z"/>
    <path id="path4265" d="m352.76 538.43q-1.295 0-2.415-0.42-1.085-0.455-1.925-1.225-0.805-0.77-1.26-1.785-0.455-1.05-0.455-2.24t0.56-2.205 1.575-1.75 2.415-1.12q1.4-0.42 3.08-0.42 1.4 0 2.835 0.245t2.555 0.7v-1.645q0-2.415-1.365-3.815-1.365-1.435-3.78-1.435-1.4 0-2.87 0.56t-2.975 1.61l-0.84-1.575q3.535-2.38 6.86-2.38 3.43 0 5.39 1.925t1.96 5.32v8.225q0 0.98 0.875 0.98v2.1q-0.595 0.105-0.91 0.105-0.91 0-1.435-0.455-0.49-0.455-0.525-1.26l-0.07-1.435q-1.26 1.645-3.185 2.52-1.89 0.875-4.095 0.875zm0.56-1.82q1.855 0 3.395-0.7 1.575-0.7 2.38-1.855 0.315-0.315 0.455-0.665 0.175-0.385 0.175-0.7v-2.975q-1.19-0.455-2.485-0.7-1.26-0.245-2.59-0.245-2.52 0-4.095 1.05t-1.575 2.765q0 0.84 0.315 1.575 0.35 0.735 0.91 1.295 0.595 0.525 1.4 0.84t1.715 0.315z"/>
    <path id="path4267" d="m374.57 538.32q-1.89 0-3.465-0.77-1.54-0.805-2.695-2.1-1.12-1.295-1.75-2.975t-0.63-3.465q0-1.89 0.595-3.605 0.63-1.75 1.75-3.045t2.66-2.065q1.575-0.77 3.465-0.77 2.345 0 4.06 1.19 1.715 1.155 2.94 2.94v-3.815h2.135v18.305q0 1.89-0.735 3.325-0.7 1.47-1.925 2.45-1.19 0.98-2.835 1.47-1.61 0.49-3.43 0.49-3.15 0-5.075-1.12t-3.115-3.01l1.47-1.155q1.085 1.75 2.87 2.555 1.785 0.84 3.85 0.84 1.33 0 2.52-0.385 1.19-0.35 2.065-1.085 0.91-0.7 1.435-1.82 0.525-1.085 0.525-2.555v-3.605q-1.05 1.75-2.87 2.765t-3.815 1.015zm0.665-1.995q1.05 0 2.065-0.385t1.82-1.015q0.84-0.665 1.4-1.47t0.735-1.645v-5.635q-0.385-0.98-1.05-1.82t-1.505-1.435-1.82-0.945q-0.945-0.35-1.925-0.35-1.54 0-2.765 0.665-1.19 0.63-2.03 1.68t-1.295 2.38q-0.42 1.33-0.42 2.695 0 1.47 0.525 2.8t1.435 2.345q0.945 0.98 2.17 1.575 1.225 0.56 2.66 0.56z"/>
    <path id="path4269" d="m396.17 538.32q-1.89 0-3.465-0.77-1.54-0.805-2.695-2.1-1.12-1.295-1.75-2.975t-0.63-3.465q0-1.89 0.595-3.605 0.63-1.75 1.75-3.045t2.66-2.065q1.575-0.77 3.465-0.77 2.345 0 4.06 1.19 1.715 1.155 2.94 2.94v-3.815h2.135v18.305q0 1.89-0.735 3.325-0.7 1.47-1.925 2.45-1.19 0.98-2.835 1.47-1.61 0.49-3.43 0.49-3.15 0-5.075-1.12t-3.115-3.01l1.47-1.155q1.085 1.75 2.87 2.555 1.785 0.84 3.85 0.84 1.33 0 2.52-0.385 1.19-0.35 2.065-1.085 0.91-0.7 1.435-1.82 0.525-1.085 0.525-2.555v-3.605q-1.05 1.75-2.87 2.765t-3.815 1.015zm0.665-1.995q1.05 0 2.065-0.385t1.82-1.015q0.84-0.665 1.4-1.47t0.735-1.645v-5.635q-0.385-0.98-1.05-1.82t-1.505-1.435-1.82-0.945q-0.945-0.35-1.925-0.35-1.54 0-2.765 0.665-1.19 0.63-2.03 1.68t-1.295 2.38q-0.42 1.33-0.42 2.695 0 1.47 0.525 2.8t1.435 2.345q0.945 0.98 2.17 1.575 1.225 0.56 2.66 0.56z"/>
    <path id="path4271" d="m419.55 521.94q-2.415 0.07-4.2 1.33t-2.52 3.465v11.34h-2.38v-18.235h2.24v4.375q1.015-2.1 2.73-3.29t3.675-1.19q0.28 0 0.455 0.035v2.17z"/>
    <path id="path4273" d="m429.75 538.43q-1.995 0-3.675-0.735-1.645-0.77-2.87-2.065-1.225-1.33-1.925-3.045-0.665-1.715-0.665-3.675 0-1.925 0.665-3.605 0.7-1.715 1.89-2.975 1.225-1.295 2.905-2.03 1.68-0.77 3.64-0.77 1.995 0 3.64 0.77 1.68 0.735 2.87 2.03t1.855 2.975 0.665 3.57q0 0.28 0 0.56t-0.035 0.385h-15.61q0.105 1.47 0.665 2.73 0.595 1.225 1.505 2.135t2.065 1.435q1.19 0.49 2.52 0.49 0.875 0 1.75-0.245t1.61-0.665 1.33-1.015q0.595-0.63 0.91-1.365l2.065 0.56q-0.42 1.015-1.19 1.855-0.77 0.805-1.785 1.435-1.015 0.595-2.24 0.91-1.225 0.35-2.555 0.35zm6.72-10.43q-0.105-1.47-0.7-2.66-0.56-1.225-1.47-2.1-0.875-0.875-2.065-1.365-1.155-0.49-2.485-0.49t-2.52 0.49-2.1 1.365q-0.875 0.875-1.435 2.1-0.525 1.225-0.63 2.66h13.405z"/>
    <path id="path4275" d="m449.76 538.32q-1.89 0-3.465-0.77-1.54-0.805-2.695-2.1-1.12-1.295-1.75-2.975t-0.63-3.465q0-1.89 0.595-3.605 0.63-1.75 1.75-3.045t2.66-2.065q1.575-0.77 3.465-0.77 2.345 0 4.06 1.19 1.715 1.155 2.94 2.94v-3.815h2.135v18.305q0 1.89-0.735 3.325-0.7 1.47-1.925 2.45-1.19 0.98-2.835 1.47-1.61 0.49-3.43 0.49-3.15 0-5.075-1.12t-3.115-3.01l1.47-1.155q1.085 1.75 2.87 2.555 1.785 0.84 3.85 0.84 1.33 0 2.52-0.385 1.19-0.35 2.065-1.085 0.91-0.7 1.435-1.82 0.525-1.085 0.525-2.555v-3.605q-1.05 1.75-2.87 2.765t-3.815 1.015zm0.665-1.995q1.05 0 2.065-0.385t1.82-1.015q0.84-0.665 1.4-1.47t0.735-1.645v-5.635q-0.385-0.98-1.05-1.82t-1.505-1.435-1.82-0.945q-0.945-0.35-1.925-0.35-1.54 0-2.765 0.665-1.19 0.63-2.03 1.68t-1.295 2.38q-0.42 1.33-0.42 2.695 0 1.47 0.525 2.8t1.435 2.345q0.945 0.98 2.17 1.575 1.225 0.56 2.66 0.56z"/>
    <path id="path4277" d="m468.63 538.43q-1.295 0-2.415-0.42-1.085-0.455-1.925-1.225-0.805-0.77-1.26-1.785-0.455-1.05-0.455-2.24t0.56-2.205 1.575-1.75 2.415-1.12q1.4-0.42 3.08-0.42 1.4 0 2.835 0.245t2.555 0.7v-1.645q0-2.415-1.365-3.815-1.365-1.435-3.78-1.435-1.4 0-2.87 0.56t-2.975 1.61l-0.84-1.575q3.535-2.38 6.86-2.38 3.43 0 5.39 1.925t1.96 5.32v8.225q0 0.98 0.875 0.98v2.1q-0.595 0.105-0.91 0.105-0.91 0-1.435-0.455-0.49-0.455-0.525-1.26l-0.07-1.435q-1.26 1.645-3.185 2.52-1.89 0.875-4.095 0.875zm0.56-1.82q1.855 0 3.395-0.7 1.575-0.7 2.38-1.855 0.315-0.315 0.455-0.665 0.175-0.385 0.175-0.7v-2.975q-1.19-0.455-2.485-0.7-1.26-0.245-2.59-0.245-2.52 0-4.095 1.05t-1.575 2.765q0 0.84 0.315 1.575 0.35 0.735 0.91 1.295 0.595 0.525 1.4 0.84t1.715 0.315z"/>
    <path id="path4279" d="m491.73 537.2q-0.21 0.105-0.63 0.28-0.385 0.175-0.91 0.35t-1.19 0.315-1.4 0.14q-0.77 0-1.47-0.21t-1.225-0.63q-0.525-0.455-0.84-1.12t-0.315-1.54v-13.055h-2.52v-1.89h2.52v-6.16h2.38v6.16h4.2v1.89h-4.2v12.39q0.07 1.015 0.7 1.505 0.665 0.455 1.505 0.455 1.015 0 1.785-0.315 0.77-0.35 0.98-0.49l0.63 1.925z"/>
    <path id="path4281" d="m502.03 538.43q-1.995 0-3.64-0.735-1.645-0.77-2.87-2.065-1.19-1.295-1.855-3.01t-0.665-3.605q0-1.925 0.665-3.64 0.7-1.715 1.89-3.01 1.225-1.295 2.87-2.065t3.605-0.77 3.605 0.77q1.68 0.77 2.87 2.065 1.225 1.295 1.89 3.01 0.7 1.715 0.7 3.64 0 1.89-0.665 3.605t-1.89 3.01q-1.19 1.295-2.87 2.065-1.645 0.735-3.64 0.735zm-6.615-9.38q0 1.54 0.525 2.87 0.525 1.295 1.4 2.31 0.91 0.98 2.1 1.54 1.225 0.56 2.59 0.56t2.555-0.56q1.225-0.595 2.135-1.575 0.91-1.015 1.435-2.345t0.525-2.87q0-1.505-0.525-2.835-0.525-1.365-1.435-2.345-0.91-1.015-2.135-1.575-1.19-0.595-2.555-0.595t-2.555 0.595q-1.19 0.56-2.1 1.575t-1.435 2.38q-0.525 1.33-0.525 2.87z"/>
    <path id="path4283" d="m524.21 521.94q-2.415 0.07-4.2 1.33t-2.52 3.465v11.34h-2.38v-18.235h2.24v4.375q1.015-2.1 2.73-3.29t3.675-1.19q0.28 0 0.455 0.035v2.17z"/>
    <path id="path4285" d="m526.16 540.91 0.595-2.94h-0.805v-3.325h2.31v3.325l-0.875 2.94h-1.225z"/>
    <path id="path4287" d="m541.33 528.91q0-1.925 0.665-3.64t1.855-2.975q1.225-1.295 2.905-2.03t3.71-0.735q2.59 0 4.515 1.19 1.925 1.155 2.905 3.15l-2.31 0.735q-0.77-1.4-2.17-2.17-1.365-0.805-3.045-0.805-1.4 0-2.625 0.56-1.19 0.56-2.1 1.54-0.875 0.945-1.4 2.275-0.49 1.33-0.49 2.905 0 1.54 0.525 2.905t1.435 2.38q0.91 0.98 2.1 1.575 1.225 0.56 2.59 0.56 0.875 0 1.715-0.245 0.875-0.245 1.61-0.665 0.735-0.455 1.26-1.015t0.735-1.19l2.345 0.7q-0.385 0.98-1.12 1.82-0.735 0.805-1.75 1.435-0.98 0.595-2.205 0.91-1.19 0.35-2.485 0.35-1.995 0-3.675-0.735-1.68-0.77-2.905-2.065-1.225-1.33-1.925-3.045-0.665-1.715-0.665-3.675z"/>
    <path id="path4289" d="m569.37 538.43q-1.995 0-3.64-0.735-1.645-0.77-2.87-2.065-1.19-1.295-1.855-3.01t-0.665-3.605q0-1.925 0.665-3.64 0.7-1.715 1.89-3.01 1.225-1.295 2.87-2.065t3.605-0.77 3.605 0.77q1.68 0.77 2.87 2.065 1.225 1.295 1.89 3.01 0.7 1.715 0.7 3.64 0 1.89-0.665 3.605t-1.89 3.01q-1.19 1.295-2.87 2.065-1.645 0.735-3.64 0.735zm-6.615-9.38q0 1.54 0.525 2.87 0.525 1.295 1.4 2.31 0.91 0.98 2.1 1.54 1.225 0.56 2.59 0.56t2.555-0.56q1.225-0.595 2.135-1.575 0.91-1.015 1.435-2.345t0.525-2.87q0-1.505-0.525-2.835-0.525-1.365-1.435-2.345-0.91-1.015-2.135-1.575-1.19-0.595-2.555-0.595t-2.555 0.595q-1.19 0.56-2.1 1.575t-1.435 2.38q-0.525 1.33-0.525 2.87z"/>
    <path id="path4291" d="m582.55 512.53h2.38v21.42q0 1.015 0.56 1.61 0.56 0.56 1.575 0.56 0.385 0 0.91-0.105t0.98-0.28l0.42 1.925q-0.665 0.28-1.645 0.455-0.945 0.175-1.645 0.175-1.645 0-2.59-0.91-0.945-0.945-0.945-2.625v-22.225z"/>
    <path id="path4293" d="m592.05 512.53h2.38v21.42q0 1.015 0.56 1.61 0.56 0.56 1.575 0.56 0.385 0 0.91-0.105t0.98-0.28l0.42 1.925q-0.665 0.28-1.645 0.455-0.945 0.175-1.645 0.175-1.645 0-2.59-0.91-0.945-0.945-0.945-2.625v-22.225z"/>
    <path id="path4295" d="m609.33 538.43q-1.995 0-3.675-0.735-1.645-0.77-2.87-2.065-1.225-1.33-1.925-3.045-0.665-1.715-0.665-3.675 0-1.925 0.665-3.605 0.7-1.715 1.89-2.975 1.225-1.295 2.905-2.03 1.68-0.77 3.64-0.77 1.995 0 3.64 0.77 1.68 0.735 2.87 2.03t1.855 2.975 0.665 3.57q0 0.28 0 0.56t-0.035 0.385h-15.61q0.105 1.47 0.665 2.73 0.595 1.225 1.505 2.135t2.065 1.435q1.19 0.49 2.52 0.49 0.875 0 1.75-0.245t1.61-0.665 1.33-1.015q0.595-0.63 0.91-1.365l2.065 0.56q-0.42 1.015-1.19 1.855-0.77 0.805-1.785 1.435-1.015 0.595-2.24 0.91-1.225 0.35-2.555 0.35zm6.72-10.43q-0.105-1.47-0.7-2.66-0.56-1.225-1.47-2.1-0.875-0.875-2.065-1.365-1.155-0.49-2.485-0.49t-2.52 0.49-2.1 1.365q-0.875 0.875-1.435 2.1-0.525 1.225-0.63 2.66h13.405z"/>
    <path id="path4297" d="m620.77 528.91q0-1.925 0.665-3.64t1.855-2.975q1.225-1.295 2.905-2.03t3.71-0.735q2.59 0 4.515 1.19 1.925 1.155 2.905 3.15l-2.31 0.735q-0.77-1.4-2.17-2.17-1.365-0.805-3.045-0.805-1.4 0-2.625 0.56-1.19 0.56-2.1 1.54-0.875 0.945-1.4 2.275-0.49 1.33-0.49 2.905 0 1.54 0.525 2.905t1.435 2.38q0.91 0.98 2.1 1.575 1.225 0.56 2.59 0.56 0.875 0 1.715-0.245 0.875-0.245 1.61-0.665 0.735-0.455 1.26-1.015t0.735-1.19l2.345 0.7q-0.385 0.98-1.12 1.82-0.735 0.805-1.75 1.435-0.98 0.595-2.205 0.91-1.19 0.35-2.485 0.35-1.995 0-3.675-0.735-1.68-0.77-2.905-2.065-1.225-1.33-1.925-3.045-0.665-1.715-0.665-3.675z"/>
    <path id="path4299" d="m649.99 537.2q-0.21 0.105-0.63 0.28-0.385 0.175-0.91 0.35t-1.19 0.315-1.4 0.14q-0.77 0-1.47-0.21t-1.225-0.63q-0.525-0.455-0.84-1.12t-0.315-1.54v-13.055h-2.52v-1.89h2.52v-6.16h2.38v6.16h4.2v1.89h-4.2v12.39q0.07 1.015 0.7 1.505 0.665 0.455 1.505 0.455 1.015 0 1.785-0.315 0.77-0.35 0.98-0.49l0.63 1.925z"/>
    <path id="path4301" d="m652.99 538.08v-18.235h2.38v18.235h-2.38zm0-22.05v-3.5h2.38v3.5h-2.38z"/>
    <path id="path4303" d="m668.42 538.43q-1.995 0-3.64-0.735-1.645-0.77-2.87-2.065-1.19-1.295-1.855-3.01t-0.665-3.605q0-1.925 0.665-3.64 0.7-1.715 1.89-3.01 1.225-1.295 2.87-2.065t3.605-0.77 3.605 0.77q1.68 0.77 2.87 2.065 1.225 1.295 1.89 3.01 0.7 1.715 0.7 3.64 0 1.89-0.665 3.605t-1.89 3.01q-1.19 1.295-2.87 2.065-1.645 0.735-3.64 0.735zm-6.615-9.38q0 1.54 0.525 2.87 0.525 1.295 1.4 2.31 0.91 0.98 2.1 1.54 1.225 0.56 2.59 0.56t2.555-0.56q1.225-0.595 2.135-1.575 0.91-1.015 1.435-2.345t0.525-2.87q0-1.505-0.525-2.835-0.525-1.365-1.435-2.345-0.91-1.015-2.135-1.575-1.19-0.595-2.555-0.595t-2.555 0.595q-1.19 0.56-2.1 1.575t-1.435 2.38q-0.525 1.33-0.525 2.87z"/>
    <path id="path4305" d="m696.83 538.08h-2.38v-10.185q0-3.255-0.98-4.725-0.945-1.47-2.94-1.47-1.05 0-2.1 0.385t-1.96 1.085q-0.875 0.7-1.575 1.68-0.7 0.945-1.015 2.065v11.165h-2.38v-18.235h2.17v4.13q1.12-1.995 3.185-3.22 2.1-1.225 4.55-1.225 1.505 0 2.555 0.56t1.68 1.575 0.91 2.485 0.28 3.255v10.675z"/>
    <path id="path4307" d="m702.32 540.91 0.595-2.94h-0.805v-3.325h2.31v3.325l-0.875 2.94h-1.225z"/>
    <path id="path4309" d="m723.34 538.43q-1.295 0-2.415-0.42-1.085-0.455-1.925-1.225-0.805-0.77-1.26-1.785-0.455-1.05-0.455-2.24t0.56-2.205 1.575-1.75 2.415-1.12q1.4-0.42 3.08-0.42 1.4 0 2.835 0.245t2.555 0.7v-1.645q0-2.415-1.365-3.815-1.365-1.435-3.78-1.435-1.4 0-2.87 0.56t-2.975 1.61l-0.84-1.575q3.535-2.38 6.86-2.38 3.43 0 5.39 1.925t1.96 5.32v8.225q0 0.98 0.875 0.98v2.1q-0.595 0.105-0.91 0.105-0.91 0-1.435-0.455-0.49-0.455-0.525-1.26l-0.07-1.435q-1.26 1.645-3.185 2.52-1.89 0.875-4.095 0.875zm0.56-1.82q1.855 0 3.395-0.7 1.575-0.7 2.38-1.855 0.315-0.315 0.455-0.665 0.175-0.385 0.175-0.7v-2.975q-1.19-0.455-2.485-0.7-1.26-0.245-2.59-0.245-2.52 0-4.095 1.05t-1.575 2.765q0 0.84 0.315 1.575 0.35 0.735 0.91 1.295 0.595 0.525 1.4 0.84t1.715 0.315z"/>
    <path id="path4311" d="m753.16 538.08h-2.38v-10.185q0-3.255-0.98-4.725-0.945-1.47-2.94-1.47-1.05 0-2.1 0.385t-1.96 1.085q-0.875 0.7-1.575 1.68-0.7 0.945-1.015 2.065v11.165h-2.38v-18.235h2.17v4.13q1.12-1.995 3.185-3.22 2.1-1.225 4.55-1.225 1.505 0 2.555 0.56t1.68 1.575 0.91 2.485 0.28 3.255v10.675z"/>
    <path id="path4313" d="m765.76 538.43q-1.89 0-3.5-0.77-1.61-0.805-2.765-2.1t-1.82-2.975q-0.63-1.715-0.63-3.57 0-1.925 0.63-3.64 0.63-1.75 1.715-3.045 1.12-1.295 2.625-2.03 1.54-0.77 3.36-0.77 2.31 0 4.095 1.225 1.785 1.19 2.8 2.905v-11.13h2.38v22.47q0 0.98 0.84 0.98v2.1q-0.525 0.105-0.84 0.105-0.84 0-1.47-0.525-0.63-0.56-0.63-1.33v-1.785q-1.085 1.785-2.94 2.835t-3.85 1.05zm0.525-2.1q0.875 0 1.855-0.35 1.015-0.35 1.89-0.945 0.875-0.63 1.47-1.435 0.63-0.84 0.77-1.785v-5.635q-0.35-0.945-1.015-1.75-0.665-0.84-1.54-1.47-0.84-0.63-1.82-0.98t-1.925-0.35q-1.47 0-2.66 0.63t-2.065 1.68q-0.84 1.015-1.295 2.345t-0.455 2.73q0 1.47 0.525 2.8t1.435 2.345q0.91 0.98 2.135 1.575 1.26 0.595 2.695 0.595z"/>
    <path id="path4315" d="m798.27 538.43q-2.31 0-4.095-1.155-1.75-1.19-2.835-2.975v11.235h-2.38v-25.69h2.135v3.535q1.12-1.715 2.905-2.765 1.785-1.085 3.885-1.085 1.89 0 3.465 0.805 1.575 0.77 2.73 2.1 1.155 1.295 1.785 3.01 0.665 1.715 0.665 3.535 0 1.925-0.595 3.64t-1.715 3.01q-1.085 1.295-2.625 2.065-1.505 0.735-3.325 0.735zm-0.665-2.1q1.47 0 2.66-0.63 1.225-0.63 2.065-1.645 0.875-1.05 1.33-2.345 0.455-1.33 0.455-2.73 0-1.47-0.525-2.8t-1.435-2.345-2.17-1.61q-1.225-0.595-2.66-0.595-0.91 0-1.925 0.385-0.98 0.35-1.855 0.98-0.84 0.595-1.47 1.435-0.595 0.805-0.735 1.715v5.6q0.42 0.98 1.05 1.82 0.665 0.84 1.47 1.47 0.84 0.595 1.785 0.945t1.96 0.35z"/>
    <path id="path4317" d="m815.15 538.43q-1.295 0-2.415-0.42-1.085-0.455-1.925-1.225-0.805-0.77-1.26-1.785-0.455-1.05-0.455-2.24t0.56-2.205 1.575-1.75 2.415-1.12q1.4-0.42 3.08-0.42 1.4 0 2.835 0.245t2.555 0.7v-1.645q0-2.415-1.365-3.815-1.365-1.435-3.78-1.435-1.4 0-2.87 0.56t-2.975 1.61l-0.84-1.575q3.535-2.38 6.86-2.38 3.43 0 5.39 1.925t1.96 5.32v8.225q0 0.98 0.875 0.98v2.1q-0.595 0.105-0.91 0.105-0.91 0-1.435-0.455-0.49-0.455-0.525-1.26l-0.07-1.435q-1.26 1.645-3.185 2.52-1.89 0.875-4.095 0.875zm0.56-1.82q1.855 0 3.395-0.7 1.575-0.7 2.38-1.855 0.315-0.315 0.455-0.665 0.175-0.385 0.175-0.7v-2.975q-1.19-0.455-2.485-0.7-1.26-0.245-2.59-0.245-2.52 0-4.095 1.05t-1.575 2.765q0 0.84 0.315 1.575 0.35 0.735 0.91 1.295 0.595 0.525 1.4 0.84t1.715 0.315z"/>
    <path id="path4319" d="m838.25 537.2q-0.21 0.105-0.63 0.28-0.385 0.175-0.91 0.35t-1.19 0.315-1.4 0.14q-0.77 0-1.47-0.21t-1.225-0.63q-0.525-0.455-0.84-1.12t-0.315-1.54v-13.055h-2.52v-1.89h2.52v-6.16h2.38v6.16h4.2v1.89h-4.2v12.39q0.07 1.015 0.7 1.505 0.665 0.455 1.505 0.455 1.015 0 1.785-0.315 0.77-0.35 0.98-0.49l0.63 1.925z"/>
    <path id="path4321" d="m839.52 528.91q0-1.925 0.665-3.64t1.855-2.975q1.225-1.295 2.905-2.03t3.71-0.735q2.59 0 4.515 1.19 1.925 1.155 2.905 3.15l-2.31 0.735q-0.77-1.4-2.17-2.17-1.365-0.805-3.045-0.805-1.4 0-2.625 0.56-1.19 0.56-2.1 1.54-0.875 0.945-1.4 2.275-0.49 1.33-0.49 2.905 0 1.54 0.525 2.905t1.435 2.38q0.91 0.98 2.1 1.575 1.225 0.56 2.59 0.56 0.875 0 1.715-0.245 0.875-0.245 1.61-0.665 0.735-0.455 1.26-1.015t0.735-1.19l2.345 0.7q-0.385 0.98-1.12 1.82-0.735 0.805-1.75 1.435-0.98 0.595-2.205 0.91-1.19 0.35-2.485 0.35-1.995 0-3.675-0.735-1.68-0.77-2.905-2.065-1.225-1.33-1.925-3.045-0.665-1.715-0.665-3.675z"/>
    <path id="path4323" d="m875.32 538.08h-2.38v-10.185q0-3.115-1.085-4.655-1.05-1.54-3.115-1.54-1.015 0-2.03 0.42-0.98 0.385-1.855 1.085t-1.54 1.645q-0.63 0.945-0.945 2.065v11.165h-2.38v-25.55h2.38v11.445q1.085-2.065 3.01-3.255t4.165-1.19q1.575 0 2.66 0.595 1.085 0.56 1.785 1.61 0.7 1.015 1.015 2.485 0.315 1.435 0.315 3.185v10.675z"/>
    <path id="path4325" d="m888.3 538.43q-1.995 0-3.675-0.735-1.645-0.77-2.87-2.065-1.225-1.33-1.925-3.045-0.665-1.715-0.665-3.675 0-1.925 0.665-3.605 0.7-1.715 1.89-2.975 1.225-1.295 2.905-2.03 1.68-0.77 3.64-0.77 1.995 0 3.64 0.77 1.68 0.735 2.87 2.03t1.855 2.975 0.665 3.57q0 0.28 0 0.56t-0.035 0.385h-15.61q0.105 1.47 0.665 2.73 0.595 1.225 1.505 2.135t2.065 1.435q1.19 0.49 2.52 0.49 0.875 0 1.75-0.245t1.61-0.665 1.33-1.015q0.595-0.63 0.91-1.365l2.065 0.56q-0.42 1.015-1.19 1.855-0.77 0.805-1.785 1.435-1.015 0.595-2.24 0.91-1.225 0.35-2.555 0.35zm6.72-10.43q-0.105-1.47-0.7-2.66-0.56-1.225-1.47-2.1-0.875-0.875-2.065-1.365-1.155-0.49-2.485-0.49t-2.52 0.49-2.1 1.365q-0.875 0.875-1.435 2.1-0.525 1.225-0.63 2.66h13.405z"/>
    <path id="path4327" d="m910.1 521.94q-2.415 0.07-4.2 1.33t-2.52 3.465v11.34h-2.38v-18.235h2.24v4.375q1.015-2.1 2.73-3.29t3.675-1.19q0.28 0 0.455 0.035v2.17z"/>
   </g>
  </g>
 </g>
</svg>
