<?xml version="1.0" encoding="UTF-8" standalone="no"?>
<!-- Created with Inkscape (http://www.inkscape.org/) -->

<svg
   xmlns:dc="http://purl.org/dc/elements/1.1/"
   xmlns:cc="http://creativecommons.org/ns#"
   xmlns:rdf="http://www.w3.org/1999/02/22-rdf-syntax-ns#"
   xmlns:svg="http://www.w3.org/2000/svg"
   xmlns="http://www.w3.org/2000/svg"
   xmlns:sodipodi="http://sodipodi.sourceforge.net/DTD/sodipodi-0.dtd"
   xmlns:inkscape="http://www.inkscape.org/namespaces/inkscape"
   id="svg2"
   width="740"
   height="36"
   version="1.1"
   inkscape:version="0.91 r13725"
   sodipodi:docname="project-subtitle-phrase-2.svg"
   display="block"
   style="display:block">
  <defs
     id="defs51" />
  <sodipodi:namedview
     pagecolor="#ffffff"
     bordercolor="#666666"
     borderopacity="1"
     objecttolerance="10"
     gridtolerance="10"
     guidetolerance="10"
     inkscape:pageopacity="0"
     inkscape:pageshadow="2"
     inkscape:window-width="1920"
     inkscape:window-height="1056"
     id="namedview49"
     showgrid="false"
     inkscape:zoom="1.6142462"
     inkscape:cx="307.44878"
     inkscape:cy="-70.638178"
     inkscape:window-x="0"
     inkscape:window-y="24"
     inkscape:window-maximized="1"
     inkscape:current-layer="svg2" />
  <metadata
     id="metadata7">
    <rdf:RDF>
      <cc:Work
         rdf:about="">
        <dc:format>image/svg+xml</dc:format>
        <dc:type
           rdf:resource="http://purl.org/dc/dcmitype/StillImage" />
        <dc:title></dc:title>
      </cc:Work>
    </rdf:RDF>
  </metadata>
  <g
     id="layer1"
     transform="translate(-171.69,-512.18)">
    <g
       id="g3340">
      <g
         id="text3336"
         style="fill:#4d4d4d;stroke-width:1px">
        <path
           id="path4245"
           d="m 171.69,538.08 0,-24.85 2.45,0 0,24.85 -2.45,0 z"
           inkscape:connector-curvature="0" />
        <path
           id="path4247"
           d="m 178.34,528.91 q 0,-1.925 0.665,-3.64 0.665,-1.715 1.855,-2.975 1.225,-1.295 2.905,-2.03 1.68,-0.735 3.71,-0.735 2.59,0 4.515,1.19 1.925,1.155 2.905,3.15 l -2.31,0.735 q -0.77,-1.4 -2.17,-2.17 -1.365,-0.805 -3.045,-0.805 -1.4,0 -2.625,0.56 -1.19,0.56 -2.1,1.54 -0.875,0.945 -1.4,2.275 -0.49,1.33 -0.49,2.905 0,1.54 0.525,2.905 0.525,1.365 1.435,2.38 0.91,0.98 2.1,1.575 1.225,0.56 2.59,0.56 0.875,0 1.715,-0.245 0.875,-0.245 1.61,-0.665 0.735,-0.455 1.26,-1.015 0.525,-0.56 0.735,-1.19 l 2.345,0.7 q -0.385,0.98 -1.12,1.82 -0.735,0.805 -1.75,1.435 -0.98,0.595 -2.205,0.91 -1.19,0.35 -2.485,0.35 -1.995,0 -3.675,-0.735 -1.68,-0.77 -2.905,-2.065 -1.225,-1.33 -1.925,-3.045 -0.665,-1.715 -0.665,-3.675 z"
           inkscape:connector-curvature="0" />
        <path
           id="path4249"
           d="m 206.38,538.43 q -1.995,0 -3.64,-0.735 -1.645,-0.77 -2.87,-2.065 -1.19,-1.295 -1.855,-3.01 -0.665,-1.715 -0.665,-3.605 0,-1.925 0.665,-3.64 0.7,-1.715 1.89,-3.01 1.225,-1.295 2.87,-2.065 1.645,-0.77 3.605,-0.77 1.96,0 3.605,0.77 1.68,0.77 2.87,2.065 1.225,1.295 1.89,3.01 0.7,1.715 0.7,3.64 0,1.89 -0.665,3.605 -0.665,1.715 -1.89,3.01 -1.19,1.295 -2.87,2.065 -1.645,0.735 -3.64,0.735 z m -6.615,-9.38 q 0,1.54 0.525,2.87 0.525,1.295 1.4,2.31 0.91,0.98 2.1,1.54 1.225,0.56 2.59,0.56 1.365,0 2.555,-0.56 1.225,-0.595 2.135,-1.575 0.91,-1.015 1.435,-2.345 0.525,-1.33 0.525,-2.87 0,-1.505 -0.525,-2.835 -0.525,-1.365 -1.435,-2.345 -0.91,-1.015 -2.135,-1.575 -1.19,-0.595 -2.555,-0.595 -1.365,0 -2.555,0.595 -1.19,0.56 -2.1,1.575 -0.91,1.015 -1.435,2.38 -0.525,1.33 -0.525,2.87 z"
           inkscape:connector-curvature="0" />
        <path
           id="path4251"
           d="m 234.79,538.08 -2.38,0 0,-10.185 q 0,-3.255 -0.98,-4.725 -0.945,-1.47 -2.94,-1.47 -1.05,0 -2.1,0.385 -1.05,0.385 -1.96,1.085 -0.875,0.7 -1.575,1.68 -0.7,0.945 -1.015,2.065 l 0,11.165 -2.38,0 0,-18.235 2.17,0 0,4.13 q 1.12,-1.995 3.185,-3.22 2.1,-1.225 4.55,-1.225 1.505,0 2.555,0.56 1.05,0.56 1.68,1.575 0.63,1.015 0.91,2.485 0.28,1.47 0.28,3.255 l 0,10.675 z"
           inkscape:connector-curvature="0" />
        <path
           id="path4253"
           d="m 239.9,538.08 0,-18.235 2.38,0 0,18.235 -2.38,0 z m 0,-22.05 0,-3.5 2.38,0 0,3.5 -2.38,0 z"
           inkscape:connector-curvature="0" />
        <path
           id="path4255"
           d="m 246.29,528.91 q 0,-1.925 0.665,-3.64 0.665,-1.715 1.855,-2.975 1.225,-1.295 2.905,-2.03 1.68,-0.735 3.71,-0.735 2.59,0 4.515,1.19 1.925,1.155 2.905,3.15 l -2.31,0.735 q -0.77,-1.4 -2.17,-2.17 -1.365,-0.805 -3.045,-0.805 -1.4,0 -2.625,0.56 -1.19,0.56 -2.1,1.54 -0.875,0.945 -1.4,2.275 -0.49,1.33 -0.49,2.905 0,1.54 0.525,2.905 0.525,1.365 1.435,2.38 0.91,0.98 2.1,1.575 1.225,0.56 2.59,0.56 0.875,0 1.715,-0.245 0.875,-0.245 1.61,-0.665 0.735,-0.455 1.26,-1.015 0.525,-0.56 0.735,-1.19 l 2.345,0.7 q -0.385,0.98 -1.12,1.82 -0.735,0.805 -1.75,1.435 -0.98,0.595 -2.205,0.91 -1.19,0.35 -2.485,0.35 -1.995,0 -3.675,-0.735 -1.68,-0.77 -2.905,-2.065 -1.225,-1.33 -1.925,-3.045 -0.665,-1.715 -0.665,-3.675 z"
           inkscape:connector-curvature="0" />
        <path
           id="path4257"
           d="m 276.59,538.08 0,-16.345 -2.52,0 0,-1.89 2.52,0 0,-0.49 q 0,-3.36 1.435,-5.25 1.435,-1.925 3.92,-1.925 1.085,0 2.1,0.315 1.015,0.315 1.75,0.84 l -0.735,1.715 q -0.49,-0.385 -1.225,-0.595 -0.7,-0.21 -1.435,-0.21 -1.68,0 -2.555,1.295 -0.875,1.295 -0.875,3.745 l 0,0.56 5.04,0 0,1.89 -5.04,0 0,16.345 -2.38,0 z"
           inkscape:connector-curvature="0" />
        <path
           id="path4259"
           d="m 294.15,538.43 q -1.995,0 -3.64,-0.735 -1.645,-0.77 -2.87,-2.065 -1.19,-1.295 -1.855,-3.01 -0.665,-1.715 -0.665,-3.605 0,-1.925 0.665,-3.64 0.7,-1.715 1.89,-3.01 1.225,-1.295 2.87,-2.065 1.645,-0.77 3.605,-0.77 1.96,0 3.605,0.77 1.68,0.77 2.87,2.065 1.225,1.295 1.89,3.01 0.7,1.715 0.7,3.64 0,1.89 -0.665,3.605 -0.665,1.715 -1.89,3.01 -1.19,1.295 -2.87,2.065 -1.645,0.735 -3.64,0.735 z m -6.615,-9.38 q 0,1.54 0.525,2.87 0.525,1.295 1.4,2.31 0.91,0.98 2.1,1.54 1.225,0.56 2.59,0.56 1.365,0 2.555,-0.56 1.225,-0.595 2.135,-1.575 0.91,-1.015 1.435,-2.345 0.525,-1.33 0.525,-2.87 0,-1.505 -0.525,-2.835 -0.525,-1.365 -1.435,-2.345 -0.91,-1.015 -2.135,-1.575 -1.19,-0.595 -2.555,-0.595 -1.365,0 -2.555,0.595 -1.19,0.56 -2.1,1.575 -0.91,1.015 -1.435,2.38 -0.525,1.33 -0.525,2.87 z"
           inkscape:connector-curvature="0" />
        <path
           id="path4261"
           d="m 322.56,538.08 -2.38,0 0,-10.185 q 0,-3.255 -0.98,-4.725 -0.945,-1.47 -2.94,-1.47 -1.05,0 -2.1,0.385 -1.05,0.385 -1.96,1.085 -0.875,0.7 -1.575,1.68 -0.7,0.945 -1.015,2.065 l 0,11.165 -2.38,0 0,-18.235 2.17,0 0,4.13 q 1.12,-1.995 3.185,-3.22 2.1,-1.225 4.55,-1.225 1.505,0 2.555,0.56 1.05,0.56 1.68,1.575 0.63,1.015 0.91,2.485 0.28,1.47 0.28,3.255 l 0,10.675 z"
           inkscape:connector-curvature="0" />
        <path
           id="path4263"
           d="m 336.22,537.2 q -0.21,0.105 -0.63,0.28 -0.385,0.175 -0.91,0.35 -0.525,0.175 -1.19,0.315 -0.665,0.14 -1.4,0.14 -0.77,0 -1.47,-0.21 -0.7,-0.21 -1.225,-0.63 -0.525,-0.455 -0.84,-1.12 -0.315,-0.665 -0.315,-1.54 l 0,-13.055 -2.52,0 0,-1.89 2.52,0 0,-6.16 2.38,0 0,6.16 4.2,0 0,1.89 -4.2,0 0,12.39 q 0.07,1.015 0.7,1.505 0.665,0.455 1.505,0.455 1.015,0 1.785,-0.315 0.77,-0.35 0.98,-0.49 l 0.63,1.925 z"
           inkscape:connector-curvature="0" />
        <path
           id="path4265"
           d="m 352.76,538.43 q -1.295,0 -2.415,-0.42 -1.085,-0.455 -1.925,-1.225 -0.805,-0.77 -1.26,-1.785 -0.455,-1.05 -0.455,-2.24 0,-1.19 0.56,-2.205 0.56,-1.015 1.575,-1.75 1.015,-0.735 2.415,-1.12 1.4,-0.42 3.08,-0.42 1.4,0 2.835,0.245 1.435,0.245 2.555,0.7 l 0,-1.645 q 0,-2.415 -1.365,-3.815 -1.365,-1.435 -3.78,-1.435 -1.4,0 -2.87,0.56 -1.47,0.56 -2.975,1.61 l -0.84,-1.575 q 3.535,-2.38 6.86,-2.38 3.43,0 5.39,1.925 1.96,1.925 1.96,5.32 l 0,8.225 q 0,0.98 0.875,0.98 l 0,2.1 q -0.595,0.105 -0.91,0.105 -0.91,0 -1.435,-0.455 -0.49,-0.455 -0.525,-1.26 l -0.07,-1.435 q -1.26,1.645 -3.185,2.52 -1.89,0.875 -4.095,0.875 z m 0.56,-1.82 q 1.855,0 3.395,-0.7 1.575,-0.7 2.38,-1.855 0.315,-0.315 0.455,-0.665 0.175,-0.385 0.175,-0.7 l 0,-2.975 q -1.19,-0.455 -2.485,-0.7 -1.26,-0.245 -2.59,-0.245 -2.52,0 -4.095,1.05 -1.575,1.05 -1.575,2.765 0,0.84 0.315,1.575 0.35,0.735 0.91,1.295 0.595,0.525 1.4,0.84 0.805,0.315 1.715,0.315 z"
           inkscape:connector-curvature="0" />
        <path
           id="path4267"
           d="m 374.57,538.32 q -1.89,0 -3.465,-0.77 -1.54,-0.805 -2.695,-2.1 -1.12,-1.295 -1.75,-2.975 -0.63,-1.68 -0.63,-3.465 0,-1.89 0.595,-3.605 0.63,-1.75 1.75,-3.045 1.12,-1.295 2.66,-2.065 1.575,-0.77 3.465,-0.77 2.345,0 4.06,1.19 1.715,1.155 2.94,2.94 l 0,-3.815 2.135,0 0,18.305 q 0,1.89 -0.735,3.325 -0.7,1.47 -1.925,2.45 -1.19,0.98 -2.835,1.47 -1.61,0.49 -3.43,0.49 -3.15,0 -5.075,-1.12 -1.925,-1.12 -3.115,-3.01 l 1.47,-1.155 q 1.085,1.75 2.87,2.555 1.785,0.84 3.85,0.84 1.33,0 2.52,-0.385 1.19,-0.35 2.065,-1.085 0.91,-0.7 1.435,-1.82 0.525,-1.085 0.525,-2.555 l 0,-3.605 q -1.05,1.75 -2.87,2.765 -1.82,1.015 -3.815,1.015 z m 0.665,-1.995 q 1.05,0 2.065,-0.385 1.015,-0.385 1.82,-1.015 0.84,-0.665 1.4,-1.47 0.56,-0.805 0.735,-1.645 l 0,-5.635 q -0.385,-0.98 -1.05,-1.82 -0.665,-0.84 -1.505,-1.435 -0.84,-0.595 -1.82,-0.945 -0.945,-0.35 -1.925,-0.35 -1.54,0 -2.765,0.665 -1.19,0.63 -2.03,1.68 -0.84,1.05 -1.295,2.38 -0.42,1.33 -0.42,2.695 0,1.47 0.525,2.8 0.525,1.33 1.435,2.345 0.945,0.98 2.17,1.575 1.225,0.56 2.66,0.56 z"
           inkscape:connector-curvature="0" />
        <path
           id="path4269"
           d="m 396.17,538.32 q -1.89,0 -3.465,-0.77 -1.54,-0.805 -2.695,-2.1 -1.12,-1.295 -1.75,-2.975 -0.63,-1.68 -0.63,-3.465 0,-1.89 0.595,-3.605 0.63,-1.75 1.75,-3.045 1.12,-1.295 2.66,-2.065 1.575,-0.77 3.465,-0.77 2.345,0 4.06,1.19 1.715,1.155 2.94,2.94 l 0,-3.815 2.135,0 0,18.305 q 0,1.89 -0.735,3.325 -0.7,1.47 -1.925,2.45 -1.19,0.98 -2.835,1.47 -1.61,0.49 -3.43,0.49 -3.15,0 -5.075,-1.12 -1.925,-1.12 -3.115,-3.01 l 1.47,-1.155 q 1.085,1.75 2.87,2.555 1.785,0.84 3.85,0.84 1.33,0 2.52,-0.385 1.19,-0.35 2.065,-1.085 0.91,-0.7 1.435,-1.82 0.525,-1.085 0.525,-2.555 l 0,-3.605 q -1.05,1.75 -2.87,2.765 -1.82,1.015 -3.815,1.015 z m 0.665,-1.995 q 1.05,0 2.065,-0.385 1.015,-0.385 1.82,-1.015 0.84,-0.665 1.4,-1.47 0.56,-0.805 0.735,-1.645 l 0,-5.635 q -0.385,-0.98 -1.05,-1.82 -0.665,-0.84 -1.505,-1.435 -0.84,-0.595 -1.82,-0.945 -0.945,-0.35 -1.925,-0.35 -1.54,0 -2.765,0.665 -1.19,0.63 -2.03,1.68 -0.84,1.05 -1.295,2.38 -0.42,1.33 -0.42,2.695 0,1.47 0.525,2.8 0.525,1.33 1.435,2.345 0.945,0.98 2.17,1.575 1.225,0.56 2.66,0.56 z"
           inkscape:connector-curvature="0" />
        <path
           id="path4271"
           d="m 419.55,521.94 q -2.415,0.07 -4.2,1.33 -1.785,1.26 -2.52,3.465 l 0,11.34 -2.38,0 0,-18.235 2.24,0 0,4.375 q 1.015,-2.1 2.73,-3.29 1.715,-1.19 3.675,-1.19 0.28,0 0.455,0.035 l 0,2.17 z"
           inkscape:connector-curvature="0" />
        <path
           id="path4273"
           d="m 429.75,538.43 q -1.995,0 -3.675,-0.735 -1.645,-0.77 -2.87,-2.065 -1.225,-1.33 -1.925,-3.045 -0.665,-1.715 -0.665,-3.675 0,-1.925 0.665,-3.605 0.7,-1.715 1.89,-2.975 1.225,-1.295 2.905,-2.03 1.68,-0.77 3.64,-0.77 1.995,0 3.64,0.77 1.68,0.735 2.87,2.03 1.19,1.295 1.855,2.975 0.665,1.68 0.665,3.57 0,0.28 0,0.56 0,0.28 -0.035,0.385 l -15.61,0 q 0.105,1.47 0.665,2.73 0.595,1.225 1.505,2.135 0.91,0.91 2.065,1.435 1.19,0.49 2.52,0.49 0.875,0 1.75,-0.245 0.875,-0.245 1.61,-0.665 0.735,-0.42 1.33,-1.015 0.595,-0.63 0.91,-1.365 l 2.065,0.56 q -0.42,1.015 -1.19,1.855 -0.77,0.805 -1.785,1.435 -1.015,0.595 -2.24,0.91 -1.225,0.35 -2.555,0.35 z M 436.47,528 q -0.105,-1.47 -0.7,-2.66 -0.56,-1.225 -1.47,-2.1 -0.875,-0.875 -2.065,-1.365 -1.155,-0.49 -2.485,-0.49 -1.33,0 -2.52,0.49 -1.19,0.49 -2.1,1.365 -0.875,0.875 -1.435,2.1 -0.525,1.225 -0.63,2.66 l 13.405,0 z"
           inkscape:connector-curvature="0" />
        <path
           id="path4275"
           d="m 449.76,538.32 q -1.89,0 -3.465,-0.77 -1.54,-0.805 -2.695,-2.1 -1.12,-1.295 -1.75,-2.975 -0.63,-1.68 -0.63,-3.465 0,-1.89 0.595,-3.605 0.63,-1.75 1.75,-3.045 1.12,-1.295 2.66,-2.065 1.575,-0.77 3.465,-0.77 2.345,0 4.06,1.19 1.715,1.155 2.94,2.94 l 0,-3.815 2.135,0 0,18.305 q 0,1.89 -0.735,3.325 -0.7,1.47 -1.925,2.45 -1.19,0.98 -2.835,1.47 -1.61,0.49 -3.43,0.49 -3.15,0 -5.075,-1.12 -1.925,-1.12 -3.115,-3.01 l 1.47,-1.155 q 1.085,1.75 2.87,2.555 1.785,0.84 3.85,0.84 1.33,0 2.52,-0.385 1.19,-0.35 2.065,-1.085 0.91,-0.7 1.435,-1.82 0.525,-1.085 0.525,-2.555 l 0,-3.605 q -1.05,1.75 -2.87,2.765 -1.82,1.015 -3.815,1.015 z m 0.665,-1.995 q 1.05,0 2.065,-0.385 1.015,-0.385 1.82,-1.015 0.84,-0.665 1.4,-1.47 0.56,-0.805 0.735,-1.645 l 0,-5.635 q -0.385,-0.98 -1.05,-1.82 -0.665,-0.84 -1.505,-1.435 -0.84,-0.595 -1.82,-0.945 -0.945,-0.35 -1.925,-0.35 -1.54,0 -2.765,0.665 -1.19,0.63 -2.03,1.68 -0.84,1.05 -1.295,2.38 -0.42,1.33 -0.42,2.695 0,1.47 0.525,2.8 0.525,1.33 1.435,2.345 0.945,0.98 2.17,1.575 1.225,0.56 2.66,0.56 z"
           inkscape:connector-curvature="0" />
        <path
           id="path4277"
           d="m 468.63,538.43 q -1.295,0 -2.415,-0.42 -1.085,-0.455 -1.925,-1.225 -0.805,-0.77 -1.26,-1.785 -0.455,-1.05 -0.455,-2.24 0,-1.19 0.56,-2.205 0.56,-1.015 1.575,-1.75 1.015,-0.735 2.415,-1.12 1.4,-0.42 3.08,-0.42 1.4,0 2.835,0.245 1.435,0.245 2.555,0.7 l 0,-1.645 q 0,-2.415 -1.365,-3.815 -1.365,-1.435 -3.78,-1.435 -1.4,0 -2.87,0.56 -1.47,0.56 -2.975,1.61 l -0.84,-1.575 q 3.535,-2.38 6.86,-2.38 3.43,0 5.39,1.925 1.96,1.925 1.96,5.32 l 0,8.225 q 0,0.98 0.875,0.98 l 0,2.1 q -0.595,0.105 -0.91,0.105 -0.91,0 -1.435,-0.455 -0.49,-0.455 -0.525,-1.26 l -0.07,-1.435 q -1.26,1.645 -3.185,2.52 -1.89,0.875 -4.095,0.875 z m 0.56,-1.82 q 1.855,0 3.395,-0.7 1.575,-0.7 2.38,-1.855 0.315,-0.315 0.455,-0.665 0.175,-0.385 0.175,-0.7 l 0,-2.975 q -1.19,-0.455 -2.485,-0.7 -1.26,-0.245 -2.59,-0.245 -2.52,0 -4.095,1.05 -1.575,1.05 -1.575,2.765 0,0.84 0.315,1.575 0.35,0.735 0.91,1.295 0.595,0.525 1.4,0.84 0.805,0.315 1.715,0.315 z"
           inkscape:connector-curvature="0" />
        <path
           id="path4279"
           d="m 491.73,537.2 q -0.21,0.105 -0.63,0.28 -0.385,0.175 -0.91,0.35 -0.525,0.175 -1.19,0.315 -0.665,0.14 -1.4,0.14 -0.77,0 -1.47,-0.21 -0.7,-0.21 -1.225,-0.63 -0.525,-0.455 -0.84,-1.12 -0.315,-0.665 -0.315,-1.54 l 0,-13.055 -2.52,0 0,-1.89 2.52,0 0,-6.16 2.38,0 0,6.16 4.2,0 0,1.89 -4.2,0 0,12.39 q 0.07,1.015 0.7,1.505 0.665,0.455 1.505,0.455 1.015,0 1.785,-0.315 0.77,-0.35 0.98,-0.49 l 0.63,1.925 z"
           inkscape:connector-curvature="0" />
        <path
           id="path4281"
           d="m 502.03,538.43 q -1.995,0 -3.64,-0.735 -1.645,-0.77 -2.87,-2.065 -1.19,-1.295 -1.855,-3.01 -0.665,-1.715 -0.665,-3.605 0,-1.925 0.665,-3.64 0.7,-1.715 1.89,-3.01 1.225,-1.295 2.87,-2.065 1.645,-0.77 3.605,-0.77 1.96,0 3.605,0.77 1.68,0.77 2.87,2.065 1.225,1.295 1.89,3.01 0.7,1.715 0.7,3.64 0,1.89 -0.665,3.605 -0.665,1.715 -1.89,3.01 -1.19,1.295 -2.87,2.065 -1.645,0.735 -3.64,0.735 z m -6.615,-9.38 q 0,1.54 0.525,2.87 0.525,1.295 1.4,2.31 0.91,0.98 2.1,1.54 1.225,0.56 2.59,0.56 1.365,0 2.555,-0.56 1.225,-0.595 2.135,-1.575 0.91,-1.015 1.435,-2.345 0.525,-1.33 0.525,-2.87 0,-1.505 -0.525,-2.835 -0.525,-1.365 -1.435,-2.345 -0.91,-1.015 -2.135,-1.575 -1.19,-0.595 -2.555,-0.595 -1.365,0 -2.555,0.595 -1.19,0.56 -2.1,1.575 -0.91,1.015 -1.435,2.38 -0.525,1.33 -0.525,2.87 z"
           inkscape:connector-curvature="0" />
        <path
           id="path4283"
           d="m 524.21,521.94 q -2.415,0.07 -4.2,1.33 -1.785,1.26 -2.52,3.465 l 0,11.34 -2.38,0 0,-18.235 2.24,0 0,4.375 q 1.015,-2.1 2.73,-3.29 1.715,-1.19 3.675,-1.19 0.28,0 0.455,0.035 l 0,2.17 z"
           inkscape:connector-curvature="0" />
        <path
           id="path4285"
           d="m 526.16,540.91 0.595,-2.94 -0.805,0 0,-3.325 2.31,0 0,3.325 -0.875,2.94 -1.225,0 z"
           inkscape:connector-curvature="0" />
        <path
           id="path4287"
           d="m 541.33,528.91 q 0,-1.925 0.665,-3.64 0.665,-1.715 1.855,-2.975 1.225,-1.295 2.905,-2.03 1.68,-0.735 3.71,-0.735 2.59,0 4.515,1.19 1.925,1.155 2.905,3.15 l -2.31,0.735 q -0.77,-1.4 -2.17,-2.17 -1.365,-0.805 -3.045,-0.805 -1.4,0 -2.625,0.56 -1.19,0.56 -2.1,1.54 -0.875,0.945 -1.4,2.275 -0.49,1.33 -0.49,2.905 0,1.54 0.525,2.905 0.525,1.365 1.435,2.38 0.91,0.98 2.1,1.575 1.225,0.56 2.59,0.56 0.875,0 1.715,-0.245 0.875,-0.245 1.61,-0.665 0.735,-0.455 1.26,-1.015 0.525,-0.56 0.735,-1.19 l 2.345,0.7 q -0.385,0.98 -1.12,1.82 -0.735,0.805 -1.75,1.435 -0.98,0.595 -2.205,0.91 -1.19,0.35 -2.485,0.35 -1.995,0 -3.675,-0.735 -1.68,-0.77 -2.905,-2.065 -1.225,-1.33 -1.925,-3.045 -0.665,-1.715 -0.665,-3.675 z"
           inkscape:connector-curvature="0" />
        <path
           id="path4289"
           d="m 569.37,538.43 q -1.995,0 -3.64,-0.735 -1.645,-0.77 -2.87,-2.065 -1.19,-1.295 -1.855,-3.01 -0.665,-1.715 -0.665,-3.605 0,-1.925 0.665,-3.64 0.7,-1.715 1.89,-3.01 1.225,-1.295 2.87,-2.065 1.645,-0.77 3.605,-0.77 1.96,0 3.605,0.77 1.68,0.77 2.87,2.065 1.225,1.295 1.89,3.01 0.7,1.715 0.7,3.64 0,1.89 -0.665,3.605 -0.665,1.715 -1.89,3.01 -1.19,1.295 -2.87,2.065 -1.645,0.735 -3.64,0.735 z m -6.615,-9.38 q 0,1.54 0.525,2.87 0.525,1.295 1.4,2.31 0.91,0.98 2.1,1.54 1.225,0.56 2.59,0.56 1.365,0 2.555,-0.56 1.225,-0.595 2.135,-1.575 0.91,-1.015 1.435,-2.345 0.525,-1.33 0.525,-2.87 0,-1.505 -0.525,-2.835 -0.525,-1.365 -1.435,-2.345 -0.91,-1.015 -2.135,-1.575 -1.19,-0.595 -2.555,-0.595 -1.365,0 -2.555,0.595 -1.19,0.56 -2.1,1.575 -0.91,1.015 -1.435,2.38 -0.525,1.33 -0.525,2.87 z"
           inkscape:connector-curvature="0" />
        <path
           id="path4291"
           d="m 582.55,512.53 2.38,0 0,21.42 q 0,1.015 0.56,1.61 0.56,0.56 1.575,0.56 0.385,0 0.91,-0.105 0.525,-0.105 0.98,-0.28 l 0.42,1.925 q -0.665,0.28 -1.645,0.455 -0.945,0.175 -1.645,0.175 -1.645,0 -2.59,-0.91 -0.945,-0.945 -0.945,-2.625 l 0,-22.225 z"
           inkscape:connector-curvature="0" />
        <path
           id="path4293"
           d="m 592.05,512.53 2.38,0 0,21.42 q 0,1.015 0.56,1.61 0.56,0.56 1.575,0.56 0.385,0 0.91,-0.105 0.525,-0.105 0.98,-0.28 l 0.42,1.925 q -0.665,0.28 -1.645,0.455 -0.945,0.175 -1.645,0.175 -1.645,0 -2.59,-0.91 -0.945,-0.945 -0.945,-2.625 l 0,-22.225 z"
           inkscape:connector-curvature="0" />
        <path
           id="path4295"
           d="m 609.33,538.43 q -1.995,0 -3.675,-0.735 -1.645,-0.77 -2.87,-2.065 -1.225,-1.33 -1.925,-3.045 -0.665,-1.715 -0.665,-3.675 0,-1.925 0.665,-3.605 0.7,-1.715 1.89,-2.975 1.225,-1.295 2.905,-2.03 1.68,-0.77 3.64,-0.77 1.995,0 3.64,0.77 1.68,0.735 2.87,2.03 1.19,1.295 1.855,2.975 0.665,1.68 0.665,3.57 0,0.28 0,0.56 0,0.28 -0.035,0.385 l -15.61,0 q 0.105,1.47 0.665,2.73 0.595,1.225 1.505,2.135 0.91,0.91 2.065,1.435 1.19,0.49 2.52,0.49 0.875,0 1.75,-0.245 0.875,-0.245 1.61,-0.665 0.735,-0.42 1.33,-1.015 0.595,-0.63 0.91,-1.365 l 2.065,0.56 q -0.42,1.015 -1.19,1.855 -0.77,0.805 -1.785,1.435 -1.015,0.595 -2.24,0.91 -1.225,0.35 -2.555,0.35 z M 616.05,528 q -0.105,-1.47 -0.7,-2.66 -0.56,-1.225 -1.47,-2.1 -0.875,-0.875 -2.065,-1.365 -1.155,-0.49 -2.485,-0.49 -1.33,0 -2.52,0.49 -1.19,0.49 -2.1,1.365 -0.875,0.875 -1.435,2.1 -0.525,1.225 -0.63,2.66 l 13.405,0 z"
           inkscape:connector-curvature="0" />
        <path
           id="path4297"
           d="m 620.77,528.91 q 0,-1.925 0.665,-3.64 0.665,-1.715 1.855,-2.975 1.225,-1.295 2.905,-2.03 1.68,-0.735 3.71,-0.735 2.59,0 4.515,1.19 1.925,1.155 2.905,3.15 l -2.31,0.735 q -0.77,-1.4 -2.17,-2.17 -1.365,-0.805 -3.045,-0.805 -1.4,0 -2.625,0.56 -1.19,0.56 -2.1,1.54 -0.875,0.945 -1.4,2.275 -0.49,1.33 -0.49,2.905 0,1.54 0.525,2.905 0.525,1.365 1.435,2.38 0.91,0.98 2.1,1.575 1.225,0.56 2.59,0.56 0.875,0 1.715,-0.245 0.875,-0.245 1.61,-0.665 0.735,-0.455 1.26,-1.015 0.525,-0.56 0.735,-1.19 l 2.345,0.7 q -0.385,0.98 -1.12,1.82 -0.735,0.805 -1.75,1.435 -0.98,0.595 -2.205,0.91 -1.19,0.35 -2.485,0.35 -1.995,0 -3.675,-0.735 -1.68,-0.77 -2.905,-2.065 -1.225,-1.33 -1.925,-3.045 -0.665,-1.715 -0.665,-3.675 z"
           inkscape:connector-curvature="0" />
        <path
           id="path4299"
           d="m 649.99,537.2 q -0.21,0.105 -0.63,0.28 -0.385,0.175 -0.91,0.35 -0.525,0.175 -1.19,0.315 -0.665,0.14 -1.4,0.14 -0.77,0 -1.47,-0.21 -0.7,-0.21 -1.225,-0.63 -0.525,-0.455 -0.84,-1.12 -0.315,-0.665 -0.315,-1.54 l 0,-13.055 -2.52,0 0,-1.89 2.52,0 0,-6.16 2.38,0 0,6.16 4.2,0 0,1.89 -4.2,0 0,12.39 q 0.07,1.015 0.7,1.505 0.665,0.455 1.505,0.455 1.015,0 1.785,-0.315 0.77,-0.35 0.98,-0.49 l 0.63,1.925 z"
           inkscape:connector-curvature="0" />
        <path
           id="path4301"
           d="m 652.99,538.08 0,-18.235 2.38,0 0,18.235 -2.38,0 z m 0,-22.05 0,-3.5 2.38,0 0,3.5 -2.38,0 z"
           inkscape:connector-curvature="0" />
        <path
           id="path4303"
           d="m 668.42,538.43 q -1.995,0 -3.64,-0.735 -1.645,-0.77 -2.87,-2.065 -1.19,-1.295 -1.855,-3.01 -0.665,-1.715 -0.665,-3.605 0,-1.925 0.665,-3.64 0.7,-1.715 1.89,-3.01 1.225,-1.295 2.87,-2.065 1.645,-0.77 3.605,-0.77 1.96,0 3.605,0.77 1.68,0.77 2.87,2.065 1.225,1.295 1.89,3.01 0.7,1.715 0.7,3.64 0,1.89 -0.665,3.605 -0.665,1.715 -1.89,3.01 -1.19,1.295 -2.87,2.065 -1.645,0.735 -3.64,0.735 z m -6.615,-9.38 q 0,1.54 0.525,2.87 0.525,1.295 1.4,2.31 0.91,0.98 2.1,1.54 1.225,0.56 2.59,0.56 1.365,0 2.555,-0.56 1.225,-0.595 2.135,-1.575 0.91,-1.015 1.435,-2.345 0.525,-1.33 0.525,-2.87 0,-1.505 -0.525,-2.835 -0.525,-1.365 -1.435,-2.345 -0.91,-1.015 -2.135,-1.575 -1.19,-0.595 -2.555,-0.595 -1.365,0 -2.555,0.595 -1.19,0.56 -2.1,1.575 -0.91,1.015 -1.435,2.38 -0.525,1.33 -0.525,2.87 z"
           inkscape:connector-curvature="0" />
        <path
           id="path4305"
           d="m 696.83,538.08 -2.38,0 0,-10.185 q 0,-3.255 -0.98,-4.725 -0.945,-1.47 -2.94,-1.47 -1.05,0 -2.1,0.385 -1.05,0.385 -1.96,1.085 -0.875,0.7 -1.575,1.68 -0.7,0.945 -1.015,2.065 l 0,11.165 -2.38,0 0,-18.235 2.17,0 0,4.13 q 1.12,-1.995 3.185,-3.22 2.1,-1.225 4.55,-1.225 1.505,0 2.555,0.56 1.05,0.56 1.68,1.575 0.63,1.015 0.91,2.485 0.28,1.47 0.28,3.255 l 0,10.675 z"
           inkscape:connector-curvature="0" />
        <path
           id="path4307"
           d="m 702.32,540.91 0.595,-2.94 -0.805,0 0,-3.325 2.31,0 0,3.325 -0.875,2.94 -1.225,0 z"
           inkscape:connector-curvature="0" />
        <path
           id="path4309"
           d="m 723.34,538.43 q -1.295,0 -2.415,-0.42 -1.085,-0.455 -1.925,-1.225 -0.805,-0.77 -1.26,-1.785 -0.455,-1.05 -0.455,-2.24 0,-1.19 0.56,-2.205 0.56,-1.015 1.575,-1.75 1.015,-0.735 2.415,-1.12 1.4,-0.42 3.08,-0.42 1.4,0 2.835,0.245 1.435,0.245 2.555,0.7 l 0,-1.645 q 0,-2.415 -1.365,-3.815 -1.365,-1.435 -3.78,-1.435 -1.4,0 -2.87,0.56 -1.47,0.56 -2.975,1.61 l -0.84,-1.575 q 3.535,-2.38 6.86,-2.38 3.43,0 5.39,1.925 1.96,1.925 1.96,5.32 l 0,8.225 q 0,0.98 0.875,0.98 l 0,2.1 q -0.595,0.105 -0.91,0.105 -0.91,0 -1.435,-0.455 -0.49,-0.455 -0.525,-1.26 l -0.07,-1.435 q -1.26,1.645 -3.185,2.52 -1.89,0.875 -4.095,0.875 z m 0.56,-1.82 q 1.855,0 3.395,-0.7 1.575,-0.7 2.38,-1.855 0.315,-0.315 0.455,-0.665 0.175,-0.385 0.175,-0.7 l 0,-2.975 q -1.19,-0.455 -2.485,-0.7 -1.26,-0.245 -2.59,-0.245 -2.52,0 -4.095,1.05 -1.575,1.05 -1.575,2.765 0,0.84 0.315,1.575 0.35,0.735 0.91,1.295 0.595,0.525 1.4,0.84 0.805,0.315 1.715,0.315 z"
           inkscape:connector-curvature="0" />
        <path
           id="path4311"
           d="m 753.16,538.08 -2.38,0 0,-10.185 q 0,-3.255 -0.98,-4.725 -0.945,-1.47 -2.94,-1.47 -1.05,0 -2.1,0.385 -1.05,0.385 -1.96,1.085 -0.875,0.7 -1.575,1.68 -0.7,0.945 -1.015,2.065 l 0,11.165 -2.38,0 0,-18.235 2.17,0 0,4.13 q 1.12,-1.995 3.185,-3.22 2.1,-1.225 4.55,-1.225 1.505,0 2.555,0.56 1.05,0.56 1.68,1.575 0.63,1.015 0.91,2.485 0.28,1.47 0.28,3.255 l 0,10.675 z"
           inkscape:connector-curvature="0" />
        <path
           id="path4313"
           d="m 765.76,538.43 q -1.89,0 -3.5,-0.77 -1.61,-0.805 -2.765,-2.1 -1.155,-1.295 -1.82,-2.975 -0.63,-1.715 -0.63,-3.57 0,-1.925 0.63,-3.64 0.63,-1.75 1.715,-3.045 1.12,-1.295 2.625,-2.03 1.54,-0.77 3.36,-0.77 2.31,0 4.095,1.225 1.785,1.19 2.8,2.905 l 0,-11.13 2.38,0 0,22.47 q 0,0.98 0.84,0.98 l 0,2.1 q -0.525,0.105 -0.84,0.105 -0.84,0 -1.47,-0.525 -0.63,-0.56 -0.63,-1.33 l 0,-1.785 q -1.085,1.785 -2.94,2.835 -1.855,1.05 -3.85,1.05 z m 0.525,-2.1 q 0.875,0 1.855,-0.35 1.015,-0.35 1.89,-0.945 0.875,-0.63 1.47,-1.435 0.63,-0.84 0.77,-1.785 l 0,-5.635 q -0.35,-0.945 -1.015,-1.75 -0.665,-0.84 -1.54,-1.47 -0.84,-0.63 -1.82,-0.98 -0.98,-0.35 -1.925,-0.35 -1.47,0 -2.66,0.63 -1.19,0.63 -2.065,1.68 -0.84,1.015 -1.295,2.345 -0.455,1.33 -0.455,2.73 0,1.47 0.525,2.8 0.525,1.33 1.435,2.345 0.91,0.98 2.135,1.575 1.26,0.595 2.695,0.595 z"
           inkscape:connector-curvature="0" />
        <path
           id="path4315"
           d="m 798.27,538.43 q -2.31,0 -4.095,-1.155 -1.75,-1.19 -2.835,-2.975 l 0,11.235 -2.38,0 0,-25.69 2.135,0 0,3.535 q 1.12,-1.715 2.905,-2.765 1.785,-1.085 3.885,-1.085 1.89,0 3.465,0.805 1.575,0.77 2.73,2.1 1.155,1.295 1.785,3.01 0.665,1.715 0.665,3.535 0,1.925 -0.595,3.64 -0.595,1.715 -1.715,3.01 -1.085,1.295 -2.625,2.065 -1.505,0.735 -3.325,0.735 z m -0.665,-2.1 q 1.47,0 2.66,-0.63 1.225,-0.63 2.065,-1.645 0.875,-1.05 1.33,-2.345 0.455,-1.33 0.455,-2.73 0,-1.47 -0.525,-2.8 -0.525,-1.33 -1.435,-2.345 -0.91,-1.015 -2.17,-1.61 -1.225,-0.595 -2.66,-0.595 -0.91,0 -1.925,0.385 -0.98,0.35 -1.855,0.98 -0.84,0.595 -1.47,1.435 -0.595,0.805 -0.735,1.715 l 0,5.6 q 0.42,0.98 1.05,1.82 0.665,0.84 1.47,1.47 0.84,0.595 1.785,0.945 0.945,0.35 1.96,0.35 z"
           inkscape:connector-curvature="0" />
        <path
           id="path4317"
           d="m 815.15,538.43 q -1.295,0 -2.415,-0.42 -1.085,-0.455 -1.925,-1.225 -0.805,-0.77 -1.26,-1.785 -0.455,-1.05 -0.455,-2.24 0,-1.19 0.56,-2.205 0.56,-1.015 1.575,-1.75 1.015,-0.735 2.415,-1.12 1.4,-0.42 3.08,-0.42 1.4,0 2.835,0.245 1.435,0.245 2.555,0.7 l 0,-1.645 q 0,-2.415 -1.365,-3.815 -1.365,-1.435 -3.78,-1.435 -1.4,0 -2.87,0.56 -1.47,0.56 -2.975,1.61 l -0.84,-1.575 q 3.535,-2.38 6.86,-2.38 3.43,0 5.39,1.925 1.96,1.925 1.96,5.32 l 0,8.225 q 0,0.98 0.875,0.98 l 0,2.1 q -0.595,0.105 -0.91,0.105 -0.91,0 -1.435,-0.455 -0.49,-0.455 -0.525,-1.26 l -0.07,-1.435 q -1.26,1.645 -3.185,2.52 -1.89,0.875 -4.095,0.875 z m 0.56,-1.82 q 1.855,0 3.395,-0.7 1.575,-0.7 2.38,-1.855 0.315,-0.315 0.455,-0.665 0.175,-0.385 0.175,-0.7 l 0,-2.975 q -1.19,-0.455 -2.485,-0.7 -1.26,-0.245 -2.59,-0.245 -2.52,0 -4.095,1.05 -1.575,1.05 -1.575,2.765 0,0.84 0.315,1.575 0.35,0.735 0.91,1.295 0.595,0.525 1.4,0.84 0.805,0.315 1.715,0.315 z"
           inkscape:connector-curvature="0" />
        <path
           id="path4319"
           d="m 838.25,537.2 q -0.21,0.105 -0.63,0.28 -0.385,0.175 -0.91,0.35 -0.525,0.175 -1.19,0.315 -0.665,0.14 -1.4,0.14 -0.77,0 -1.47,-0.21 -0.7,-0.21 -1.225,-0.63 -0.525,-0.455 -0.84,-1.12 -0.315,-0.665 -0.315,-1.54 l 0,-13.055 -2.52,0 0,-1.89 2.52,0 0,-6.16 2.38,0 0,6.16 4.2,0 0,1.89 -4.2,0 0,12.39 q 0.07,1.015 0.7,1.505 0.665,0.455 1.505,0.455 1.015,0 1.785,-0.315 0.77,-0.35 0.98,-0.49 l 0.63,1.925 z"
           inkscape:connector-curvature="0" />
        <path
           id="path4321"
           d="m 839.52,528.91 q 0,-1.925 0.665,-3.64 0.665,-1.715 1.855,-2.975 1.225,-1.295 2.905,-2.03 1.68,-0.735 3.71,-0.735 2.59,0 4.515,1.19 1.925,1.155 2.905,3.15 l -2.31,0.735 q -0.77,-1.4 -2.17,-2.17 -1.365,-0.805 -3.045,-0.805 -1.4,0 -2.625,0.56 -1.19,0.56 -2.1,1.54 -0.875,0.945 -1.4,2.275 -0.49,1.33 -0.49,2.905 0,1.54 0.525,2.905 0.525,1.365 1.435,2.38 0.91,0.98 2.1,1.575 1.225,0.56 2.59,0.56 0.875,0 1.715,-0.245 0.875,-0.245 1.61,-0.665 0.735,-0.455 1.26,-1.015 0.525,-0.56 0.735,-1.19 l 2.345,0.7 q -0.385,0.98 -1.12,1.82 -0.735,0.805 -1.75,1.435 -0.98,0.595 -2.205,0.91 -1.19,0.35 -2.485,0.35 -1.995,0 -3.675,-0.735 -1.68,-0.77 -2.905,-2.065 -1.225,-1.33 -1.925,-3.045 -0.665,-1.715 -0.665,-3.675 z"
           inkscape:connector-curvature="0" />
        <path
           id="path4323"
           d="m 875.32,538.08 -2.38,0 0,-10.185 q 0,-3.115 -1.085,-4.655 -1.05,-1.54 -3.115,-1.54 -1.015,0 -2.03,0.42 -0.98,0.385 -1.855,1.085 -0.875,0.7 -1.54,1.645 -0.63,0.945 -0.945,2.065 l 0,11.165 -2.38,0 0,-25.55 2.38,0 0,11.445 q 1.085,-2.065 3.01,-3.255 1.925,-1.19 4.165,-1.19 1.575,0 2.66,0.595 1.085,0.56 1.785,1.61 0.7,1.015 1.015,2.485 0.315,1.435 0.315,3.185 l 0,10.675 z"
           inkscape:connector-curvature="0" />
        <path
           id="path4325"
           d="m 888.3,538.43 q -1.995,0 -3.675,-0.735 -1.645,-0.77 -2.87,-2.065 -1.225,-1.33 -1.925,-3.045 -0.665,-1.715 -0.665,-3.675 0,-1.925 0.665,-3.605 0.7,-1.715 1.89,-2.975 1.225,-1.295 2.905,-2.03 1.68,-0.77 3.64,-0.77 1.995,0 3.64,0.77 1.68,0.735 2.87,2.03 1.19,1.295 1.855,2.975 0.665,1.68 0.665,3.57 0,0.28 0,0.56 0,0.28 -0.035,0.385 l -15.61,0 q 0.105,1.47 0.665,2.73 0.595,1.225 1.505,2.135 0.91,0.91 2.065,1.435 1.19,0.49 2.52,0.49 0.875,0 1.75,-0.245 0.875,-0.245 1.61,-0.665 0.735,-0.42 1.33,-1.015 0.595,-0.63 0.91,-1.365 l 2.065,0.56 q -0.42,1.015 -1.19,1.855 -0.77,0.805 -1.785,1.435 -1.015,0.595 -2.24,0.91 -1.225,0.35 -2.555,0.35 z M 895.02,528 q -0.105,-1.47 -0.7,-2.66 -0.56,-1.225 -1.47,-2.1 -0.875,-0.875 -2.065,-1.365 -1.155,-0.49 -2.485,-0.49 -1.33,0 -2.52,0.49 -1.19,0.49 -2.1,1.365 -0.875,0.875 -1.435,2.1 -0.525,1.225 -0.63,2.66 l 13.405,0 z"
           inkscape:connector-curvature="0" />
        <path
           id="path4327"
           d="m 910.1,521.94 q -2.415,0.07 -4.2,1.33 -1.785,1.26 -2.52,3.465 l 0,11.34 -2.38,0 0,-18.235 2.24,0 0,4.375 q 1.015,-2.1 2.73,-3.29 1.715,-1.19 3.675,-1.19 0.28,0 0.455,0.035 l 0,2.17 z"
           inkscape:connector-curvature="0" />
      </g>
    </g>
  </g>
</svg>
