<?xml version="1.0" encoding="UTF-8"?>
<!-- Created with Inkscape (http://www.inkscape.org/) -->
<svg id="svg2" width="163.74mm" height="7.4739mm" version="1.1" viewBox="0 0 580.18 26.482" xmlns="http://www.w3.org/2000/svg" xmlns:cc="http://creativecommons.org/ns#" xmlns:dc="http://purl.org/dc/elements/1.1/" xmlns:rdf="http://www.w3.org/1999/02/22-rdf-syntax-ns#">
 <metadata id="metadata7">
  <rdf:RDF>
   <cc:Work rdf:about="">
    <dc:format>image/svg+xml</dc:format>
    <dc:type rdf:resource="http://purl.org/dc/dcmitype/StillImage"/>
    <dc:title/>
   </cc:Work>
  </rdf:RDF>
 </metadata>
 <g id="layer1" transform="translate(-171.02 -517.73)">
  <g id="g3340">
   <g id="text3336" fill="#4d4d4d" stroke-width="1px">
    <path id="path8308" d="m171.02 538.08v-19.525h1.925v19.525h-1.925z"/>
    <path id="path8310" d="m176.25 530.87q0-1.5125 0.5225-2.86t1.4575-2.3375q0.9625-1.0175 2.2825-1.595t2.915-0.5775q2.035 0 3.5475 0.935 1.5125 0.9075 2.2825 2.475l-1.815 0.5775q-0.605-1.1-1.705-1.705-1.0725-0.6325-2.3925-0.6325-1.1 0-2.0625 0.44-0.935 0.44-1.65 1.21-0.6875 0.7425-1.1 1.7875-0.385 1.045-0.385 2.2825 0 1.21 0.4125 2.2825t1.1275 1.87q0.715 0.77 1.65 1.2375 0.9625 0.44 2.035 0.44 0.6875 0 1.3475-0.1925 0.6875-0.1925 1.265-0.5225 0.5775-0.3575 0.99-0.7975t0.5775-0.935l1.8425 0.55q-0.3025 0.77-0.88 1.43-0.5775 0.6325-1.375 1.1275-0.77 0.4675-1.7325 0.715-0.935 0.275-1.9525 0.275-1.5675 0-2.8875-0.5775-1.32-0.605-2.2825-1.6225-0.9625-1.045-1.5125-2.3925-0.5225-1.3475-0.5225-2.8875z"/>
    <path id="path8312" d="m198.28 538.35q-1.5675 0-2.86-0.5775-1.2925-0.605-2.255-1.6225-0.935-1.0175-1.4575-2.365t-0.5225-2.8325q0-1.5125 0.5225-2.86 0.55-1.3475 1.485-2.365 0.9625-1.0175 2.255-1.6225t2.8325-0.605 2.8325 0.605q1.32 0.605 2.255 1.6225 0.9625 1.0175 1.485 2.365 0.55 1.3475 0.55 2.86 0 1.485-0.5225 2.8325t-1.485 2.365q-0.935 1.0175-2.255 1.6225-1.2925 0.5775-2.86 0.5775zm-5.1975-7.37q0 1.21 0.4125 2.255 0.4125 1.0175 1.1 1.815 0.715 0.77 1.65 1.21 0.9625 0.44 2.035 0.44t2.0075-0.44q0.9625-0.4675 1.6775-1.2375 0.715-0.7975 1.1275-1.8425t0.4125-2.255q0-1.1825-0.4125-2.2275-0.4125-1.0725-1.1275-1.8425-0.715-0.7975-1.6775-1.2375-0.935-0.4675-2.0075-0.4675t-2.0075 0.4675q-0.935 0.44-1.65 1.2375t-1.1275 1.87q-0.4125 1.045-0.4125 2.255z"/>
    <path id="path8314" d="m220.6 538.08h-1.87v-8.0025q0-2.5575-0.77-3.7125-0.7425-1.155-2.31-1.155-0.825 0-1.65 0.3025t-1.54 0.8525q-0.6875 0.55-1.2375 1.32-0.55 0.7425-0.7975 1.6225v8.7725h-1.87v-14.328h1.705v3.245q0.88-1.5675 2.5025-2.53 1.65-0.9625 3.575-0.9625 1.1825 0 2.0075 0.44t1.32 1.2375 0.715 1.9525 0.22 2.5575v8.3875z"/>
    <path id="path8316" d="m224.61 538.08v-14.328h1.87v14.328h-1.87zm0-17.325v-2.75h1.87v2.75h-1.87z"/>
    <path id="path8318" d="m229.64 530.87q0-1.5125 0.5225-2.86t1.4575-2.3375q0.9625-1.0175 2.2825-1.595t2.915-0.5775q2.035 0 3.5475 0.935 1.5125 0.9075 2.2825 2.475l-1.815 0.5775q-0.605-1.1-1.705-1.705-1.0725-0.6325-2.3925-0.6325-1.1 0-2.0625 0.44-0.935 0.44-1.65 1.21-0.6875 0.7425-1.1 1.7875-0.385 1.045-0.385 2.2825 0 1.21 0.4125 2.2825t1.1275 1.87q0.715 0.77 1.65 1.2375 0.9625 0.44 2.035 0.44 0.6875 0 1.3475-0.1925 0.6875-0.1925 1.265-0.5225 0.5775-0.3575 0.99-0.7975t0.5775-0.935l1.8425 0.55q-0.3025 0.77-0.88 1.43-0.5775 0.6325-1.375 1.1275-0.77 0.4675-1.7325 0.715-0.935 0.275-1.9525 0.275-1.5675 0-2.8875-0.5775-1.32-0.605-2.2825-1.6225-0.9625-1.045-1.5125-2.3925-0.5225-1.3475-0.5225-2.8875z"/>
    <path id="path8320" d="m253.45 538.08v-12.842h-1.98v-1.485h1.98v-0.385q0-2.64 1.1275-4.125 1.1275-1.5125 3.08-1.5125 0.8525 0 1.65 0.2475t1.375 0.66l-0.5775 1.3475q-0.385-0.3025-0.9625-0.4675-0.55-0.165-1.1275-0.165-1.32 0-2.0075 1.0175t-0.6875 2.9425v0.44h3.96v1.485h-3.96v12.842h-1.87z"/>
    <path id="path8322" d="m267.24 538.35q-1.5675 0-2.86-0.5775-1.2925-0.605-2.255-1.6225-0.935-1.0175-1.4575-2.365t-0.5225-2.8325q0-1.5125 0.5225-2.86 0.55-1.3475 1.485-2.365 0.9625-1.0175 2.255-1.6225t2.8325-0.605 2.8325 0.605q1.32 0.605 2.255 1.6225 0.9625 1.0175 1.485 2.365 0.55 1.3475 0.55 2.86 0 1.485-0.5225 2.8325t-1.485 2.365q-0.935 1.0175-2.255 1.6225-1.2925 0.5775-2.86 0.5775zm-5.1975-7.37q0 1.21 0.4125 2.255 0.4125 1.0175 1.1 1.815 0.715 0.77 1.65 1.21 0.9625 0.44 2.035 0.44t2.0075-0.44q0.9625-0.4675 1.6775-1.2375 0.715-0.7975 1.1275-1.8425t0.4125-2.255q0-1.1825-0.4125-2.2275-0.4125-1.0725-1.1275-1.8425-0.715-0.7975-1.6775-1.2375-0.935-0.4675-2.0075-0.4675t-2.0075 0.4675q-0.935 0.44-1.65 1.2375t-1.1275 1.87q-0.4125 1.045-0.4125 2.255z"/>
    <path id="path8324" d="m289.56 538.08h-1.87v-8.0025q0-2.5575-0.77-3.7125-0.7425-1.155-2.31-1.155-0.825 0-1.65 0.3025t-1.54 0.8525q-0.6875 0.55-1.2375 1.32-0.55 0.7425-0.7975 1.6225v8.7725h-1.87v-14.328h1.705v3.245q0.88-1.5675 2.5025-2.53 1.65-0.9625 3.575-0.9625 1.1825 0 2.0075 0.44t1.32 1.2375 0.715 1.9525 0.22 2.5575v8.3875z"/>
    <path id="path8326" d="m300.29 537.39q-0.165 0.0825-0.495 0.22-0.3025 0.1375-0.715 0.275t-0.935 0.2475-1.1 0.11q-0.605 0-1.155-0.165t-0.9625-0.495q-0.4125-0.3575-0.66-0.88t-0.2475-1.21v-10.258h-1.98v-1.485h1.98v-4.84h1.87v4.84h3.3v1.485h-3.3v9.735q0.055 0.7975 0.55 1.1825 0.5225 0.3575 1.1825 0.3575 0.7975 0 1.4025-0.2475 0.605-0.275 0.77-0.385l0.495 1.5125z"/>
    <path id="path8328" d="m313.29 538.35q-1.0175 0-1.8975-0.33-0.8525-0.3575-1.5125-0.9625-0.6325-0.605-0.99-1.4025-0.3575-0.825-0.3575-1.76t0.44-1.7325 1.2375-1.375 1.8975-0.88q1.1-0.33 2.42-0.33 1.1 0 2.2275 0.1925t2.0075 0.55v-1.2925q0-1.8975-1.0725-2.9975-1.0725-1.1275-2.97-1.1275-1.1 0-2.255 0.44t-2.3375 1.265l-0.66-1.2375q2.7775-1.87 5.39-1.87 2.695 0 4.235 1.5125t1.54 4.18v6.4625q0 0.77 0.6875 0.77v1.65q-0.4675 0.0825-0.715 0.0825-0.715 0-1.1275-0.3575-0.385-0.3575-0.4125-0.99l-0.055-1.1275q-0.99 1.2925-2.5025 1.98-1.485 0.6875-3.2175 0.6875zm0.44-1.43q1.4575 0 2.6675-0.55 1.2375-0.55 1.87-1.4575 0.2475-0.2475 0.3575-0.5225 0.1375-0.3025 0.1375-0.55v-2.3375q-0.935-0.3575-1.9525-0.55-0.99-0.1925-2.035-0.1925-1.98 0-3.2175 0.825t-1.2375 2.1725q0 0.66 0.2475 1.2375 0.275 0.5775 0.715 1.0175 0.4675 0.4125 1.1 0.66t1.3475 0.2475z"/>
    <path id="path8330" d="m330.42 538.27q-1.485 0-2.7225-0.605-1.21-0.6325-2.1175-1.65-0.88-1.0175-1.375-2.3375t-0.495-2.7225q0-1.485 0.4675-2.8325 0.495-1.375 1.375-2.3925t2.09-1.6225q1.2375-0.605 2.7225-0.605 1.8425 0 3.19 0.935 1.3475 0.9075 2.31 2.31v-2.9975h1.6775v14.382q0 1.485-0.5775 2.6125-0.55 1.155-1.5125 1.925-0.935 0.77-2.2275 1.155-1.265 0.385-2.695 0.385-2.475 0-3.9875-0.88t-2.4475-2.365l1.155-0.9075q0.8525 1.375 2.255 2.0075 1.4025 0.66 3.025 0.66 1.045 0 1.98-0.3025 0.935-0.275 1.6225-0.8525 0.715-0.55 1.1275-1.43 0.4125-0.8525 0.4125-2.0075v-2.8325q-0.825 1.375-2.255 2.1725t-2.9975 0.7975zm0.5225-1.5675q0.825 0 1.6225-0.3025t1.43-0.7975q0.66-0.5225 1.1-1.155t0.5775-1.2925v-4.4275q-0.3025-0.77-0.825-1.43t-1.1825-1.1275-1.43-0.7425q-0.7425-0.275-1.5125-0.275-1.21 0-2.1725 0.5225-0.935 0.495-1.595 1.32t-1.0175 1.87q-0.33 1.045-0.33 2.1175 0 1.155 0.4125 2.2t1.1275 1.8425q0.7425 0.77 1.705 1.2375 0.9625 0.44 2.09 0.44z"/>
    <path id="path8332" d="m347.4 538.27q-1.485 0-2.7225-0.605-1.21-0.6325-2.1175-1.65-0.88-1.0175-1.375-2.3375t-0.495-2.7225q0-1.485 0.4675-2.8325 0.495-1.375 1.375-2.3925t2.09-1.6225q1.2375-0.605 2.7225-0.605 1.8425 0 3.19 0.935 1.3475 0.9075 2.31 2.31v-2.9975h1.6775v14.382q0 1.485-0.5775 2.6125-0.55 1.155-1.5125 1.925-0.935 0.77-2.2275 1.155-1.265 0.385-2.695 0.385-2.475 0-3.9875-0.88t-2.4475-2.365l1.155-0.9075q0.8525 1.375 2.255 2.0075 1.4025 0.66 3.025 0.66 1.045 0 1.98-0.3025 0.935-0.275 1.6225-0.8525 0.715-0.55 1.1275-1.43 0.4125-0.8525 0.4125-2.0075v-2.8325q-0.825 1.375-2.255 2.1725t-2.9975 0.7975zm0.5225-1.5675q0.825 0 1.6225-0.3025t1.43-0.7975q0.66-0.5225 1.1-1.155t0.5775-1.2925v-4.4275q-0.3025-0.77-0.825-1.43t-1.1825-1.1275-1.43-0.7425q-0.7425-0.275-1.5125-0.275-1.21 0-2.1725 0.5225-0.935 0.495-1.595 1.32t-1.0175 1.87q-0.33 1.045-0.33 2.1175 0 1.155 0.4125 2.2t1.1275 1.8425q0.7425 0.77 1.705 1.2375 0.9625 0.44 2.09 0.44z"/>
    <path id="path8334" d="m365.77 525.4q-1.8975 0.055-3.3 1.045t-1.98 2.7225v8.91h-1.87v-14.328h1.76v3.4375q0.7975-1.65 2.145-2.585t2.8875-0.935q0.22 0 0.3575 0.0275v1.705z"/>
    <path id="path8336" d="m373.78 538.35q-1.5675 0-2.8875-0.5775-1.2925-0.605-2.255-1.6225-0.9625-1.045-1.5125-2.3925-0.5225-1.3475-0.5225-2.8875 0-1.5125 0.5225-2.8325 0.55-1.3475 1.485-2.3375 0.9625-1.0175 2.2825-1.595 1.32-0.605 2.86-0.605 1.5675 0 2.86 0.605 1.32 0.5775 2.255 1.595t1.4575 2.3375 0.5225 2.805q0 0.22 0 0.44t-0.0275 0.3025h-12.265q0.0825 1.155 0.5225 2.145 0.4675 0.9625 1.1825 1.6775t1.6225 1.1275q0.935 0.385 1.98 0.385 0.6875 0 1.375-0.1925t1.265-0.5225 1.045-0.7975q0.4675-0.495 0.715-1.0725l1.6225 0.44q-0.33 0.7975-0.935 1.4575-0.605 0.6325-1.4025 1.1275-0.7975 0.4675-1.76 0.715-0.9625 0.275-2.0075 0.275zm5.28-8.195q-0.0825-1.155-0.55-2.09-0.44-0.9625-1.155-1.65-0.6875-0.6875-1.6225-1.0725-0.9075-0.385-1.9525-0.385t-1.98 0.385-1.65 1.0725q-0.6875 0.6875-1.1275 1.65-0.4125 0.9625-0.495 2.09h10.532z"/>
    <path id="path8338" d="m389.51 538.27q-1.485 0-2.7225-0.605-1.21-0.6325-2.1175-1.65-0.88-1.0175-1.375-2.3375t-0.495-2.7225q0-1.485 0.4675-2.8325 0.495-1.375 1.375-2.3925t2.09-1.6225q1.2375-0.605 2.7225-0.605 1.8425 0 3.19 0.935 1.3475 0.9075 2.31 2.31v-2.9975h1.6775v14.382q0 1.485-0.5775 2.6125-0.55 1.155-1.5125 1.925-0.935 0.77-2.2275 1.155-1.265 0.385-2.695 0.385-2.475 0-3.9875-0.88t-2.4475-2.365l1.155-0.9075q0.8525 1.375 2.255 2.0075 1.4025 0.66 3.025 0.66 1.045 0 1.98-0.3025 0.935-0.275 1.6225-0.8525 0.715-0.55 1.1275-1.43 0.4125-0.8525 0.4125-2.0075v-2.8325q-0.825 1.375-2.255 2.1725t-2.9975 0.7975zm0.5225-1.5675q0.825 0 1.6225-0.3025t1.43-0.7975q0.66-0.5225 1.1-1.155t0.5775-1.2925v-4.4275q-0.3025-0.77-0.825-1.43t-1.1825-1.1275-1.43-0.7425q-0.7425-0.275-1.5125-0.275-1.21 0-2.1725 0.5225-0.935 0.495-1.595 1.32t-1.0175 1.87q-0.33 1.045-0.33 2.1175 0 1.155 0.4125 2.2t1.1275 1.8425q0.7425 0.77 1.705 1.2375 0.9625 0.44 2.09 0.44z"/>
    <path id="path8340" d="m404.33 538.35q-1.0175 0-1.8975-0.33-0.8525-0.3575-1.5125-0.9625-0.6325-0.605-0.99-1.4025-0.3575-0.825-0.3575-1.76t0.44-1.7325 1.2375-1.375 1.8975-0.88q1.1-0.33 2.42-0.33 1.1 0 2.2275 0.1925t2.0075 0.55v-1.2925q0-1.8975-1.0725-2.9975-1.0725-1.1275-2.97-1.1275-1.1 0-2.255 0.44t-2.3375 1.265l-0.66-1.2375q2.7775-1.87 5.39-1.87 2.695 0 4.235 1.5125t1.54 4.18v6.4625q0 0.77 0.6875 0.77v1.65q-0.4675 0.0825-0.715 0.0825-0.715 0-1.1275-0.3575-0.385-0.3575-0.4125-0.99l-0.055-1.1275q-0.99 1.2925-2.5025 1.98-1.485 0.6875-3.2175 0.6875zm0.44-1.43q1.4575 0 2.6675-0.55 1.2375-0.55 1.87-1.4575 0.2475-0.2475 0.3575-0.5225 0.1375-0.3025 0.1375-0.55v-2.3375q-0.935-0.3575-1.9525-0.55-0.99-0.1925-2.035-0.1925-1.98 0-3.2175 0.825t-1.2375 2.1725q0 0.66 0.2475 1.2375 0.275 0.5775 0.715 1.0175 0.4675 0.4125 1.1 0.66t1.3475 0.2475z"/>
    <path id="path8342" d="m422.48 537.39q-0.165 0.0825-0.495 0.22-0.3025 0.1375-0.715 0.275t-0.935 0.2475-1.1 0.11q-0.605 0-1.155-0.165t-0.9625-0.495q-0.4125-0.3575-0.66-0.88t-0.2475-1.21v-10.258h-1.98v-1.485h1.98v-4.84h1.87v4.84h3.3v1.485h-3.3v9.735q0.055 0.7975 0.55 1.1825 0.5225 0.3575 1.1825 0.3575 0.7975 0 1.4025-0.2475 0.605-0.275 0.77-0.385l0.495 1.5125z"/>
    <path id="path8344" d="m430.58 538.35q-1.5675 0-2.86-0.5775-1.2925-0.605-2.255-1.6225-0.935-1.0175-1.4575-2.365t-0.5225-2.8325q0-1.5125 0.5225-2.86 0.55-1.3475 1.485-2.365 0.9625-1.0175 2.255-1.6225t2.8325-0.605 2.8325 0.605q1.32 0.605 2.255 1.6225 0.9625 1.0175 1.485 2.365 0.55 1.3475 0.55 2.86 0 1.485-0.5225 2.8325t-1.485 2.365q-0.935 1.0175-2.255 1.6225-1.2925 0.5775-2.86 0.5775zm-5.1975-7.37q0 1.21 0.4125 2.255 0.4125 1.0175 1.1 1.815 0.715 0.77 1.65 1.21 0.9625 0.44 2.035 0.44t2.0075-0.44q0.9625-0.4675 1.6775-1.2375 0.715-0.7975 1.1275-1.8425t0.4125-2.255q0-1.1825-0.4125-2.2275-0.4125-1.0725-1.1275-1.8425-0.715-0.7975-1.6775-1.2375-0.935-0.4675-2.0075-0.4675t-2.0075 0.4675q-0.935 0.44-1.65 1.2375t-1.1275 1.87q-0.4125 1.045-0.4125 2.255z"/>
    <path id="path8346" d="m448 525.4q-1.8975 0.055-3.3 1.045t-1.98 2.7225v8.91h-1.87v-14.328h1.76v3.4375q0.7975-1.65 2.145-2.585t2.8875-0.935q0.22 0 0.3575 0.0275v1.705z"/>
    <path id="path8348" d="m449.54 540.3 0.4675-2.31h-0.6325v-2.6125h1.815v2.6125l-0.6875 2.31h-0.9625z"/>
    <path id="path8350" d="m461.46 530.87q0-1.5125 0.5225-2.86t1.4575-2.3375q0.9625-1.0175 2.2825-1.595t2.915-0.5775q2.035 0 3.5475 0.935 1.5125 0.9075 2.2825 2.475l-1.815 0.5775q-0.605-1.1-1.705-1.705-1.0725-0.6325-2.3925-0.6325-1.1 0-2.0625 0.44-0.935 0.44-1.65 1.21-0.6875 0.7425-1.1 1.7875-0.385 1.045-0.385 2.2825 0 1.21 0.4125 2.2825t1.1275 1.87q0.715 0.77 1.65 1.2375 0.9625 0.44 2.035 0.44 0.6875 0 1.3475-0.1925 0.6875-0.1925 1.265-0.5225 0.5775-0.3575 0.99-0.7975t0.5775-0.935l1.8425 0.55q-0.3025 0.77-0.88 1.43-0.5775 0.6325-1.375 1.1275-0.77 0.4675-1.7325 0.715-0.935 0.275-1.9525 0.275-1.5675 0-2.8875-0.5775-1.32-0.605-2.2825-1.6225-0.9625-1.045-1.5125-2.3925-0.5225-1.3475-0.5225-2.8875z"/>
    <path id="path8352" d="m483.48 538.35q-1.5675 0-2.86-0.5775-1.2925-0.605-2.255-1.6225-0.935-1.0175-1.4575-2.365t-0.5225-2.8325q0-1.5125 0.5225-2.86 0.55-1.3475 1.485-2.365 0.9625-1.0175 2.255-1.6225t2.8325-0.605 2.8325 0.605q1.32 0.605 2.255 1.6225 0.9625 1.0175 1.485 2.365 0.55 1.3475 0.55 2.86 0 1.485-0.5225 2.8325t-1.485 2.365q-0.935 1.0175-2.255 1.6225-1.2925 0.5775-2.86 0.5775zm-5.1975-7.37q0 1.21 0.4125 2.255 0.4125 1.0175 1.1 1.815 0.715 0.77 1.65 1.21 0.9625 0.44 2.035 0.44t2.0075-0.44q0.9625-0.4675 1.6775-1.2375 0.715-0.7975 1.1275-1.8425t0.4125-2.255q0-1.1825-0.4125-2.2275-0.4125-1.0725-1.1275-1.8425-0.715-0.7975-1.6775-1.2375-0.935-0.4675-2.0075-0.4675t-2.0075 0.4675q-0.935 0.44-1.65 1.2375t-1.1275 1.87q-0.4125 1.045-0.4125 2.255z"/>
    <path id="path8354" d="m493.84 518h1.87v16.83q0 0.7975 0.44 1.265 0.44 0.44 1.2375 0.44 0.3025 0 0.715-0.0825t0.77-0.22l0.33 1.5125q-0.5225 0.22-1.2925 0.3575-0.7425 0.1375-1.2925 0.1375-1.2925 0-2.035-0.715-0.7425-0.7425-0.7425-2.0625v-17.462z"/>
    <path id="path8356" d="m501.31 518h1.87v16.83q0 0.7975 0.44 1.265 0.44 0.44 1.2375 0.44 0.3025 0 0.715-0.0825t0.77-0.22l0.33 1.5125q-0.5225 0.22-1.2925 0.3575-0.7425 0.1375-1.2925 0.1375-1.2925 0-2.035-0.715-0.7425-0.7425-0.7425-2.0625v-17.462z"/>
    <path id="path8358" d="m514.88 538.35q-1.5675 0-2.8875-0.5775-1.2925-0.605-2.255-1.6225-0.9625-1.045-1.5125-2.3925-0.5225-1.3475-0.5225-2.8875 0-1.5125 0.5225-2.8325 0.55-1.3475 1.485-2.3375 0.9625-1.0175 2.2825-1.595 1.32-0.605 2.86-0.605 1.5675 0 2.86 0.605 1.32 0.5775 2.255 1.595t1.4575 2.3375 0.5225 2.805q0 0.22 0 0.44t-0.0275 0.3025h-12.265q0.0825 1.155 0.5225 2.145 0.4675 0.9625 1.1825 1.6775t1.6225 1.1275q0.935 0.385 1.98 0.385 0.6875 0 1.375-0.1925t1.265-0.5225 1.045-0.7975q0.4675-0.495 0.715-1.0725l1.6225 0.44q-0.33 0.7975-0.935 1.4575-0.605 0.6325-1.4025 1.1275-0.7975 0.4675-1.76 0.715-0.9625 0.275-2.0075 0.275zm5.28-8.195q-0.0825-1.155-0.55-2.09-0.44-0.9625-1.155-1.65-0.6875-0.6875-1.6225-1.0725-0.9075-0.385-1.9525-0.385t-1.98 0.385-1.65 1.0725q-0.6875 0.6875-1.1275 1.65-0.4125 0.9625-0.495 2.09h10.532z"/>
    <path id="path8360" d="m523.87 530.87q0-1.5125 0.5225-2.86t1.4575-2.3375q0.9625-1.0175 2.2825-1.595t2.915-0.5775q2.035 0 3.5475 0.935 1.5125 0.9075 2.2825 2.475l-1.815 0.5775q-0.605-1.1-1.705-1.705-1.0725-0.6325-2.3925-0.6325-1.1 0-2.0625 0.44-0.935 0.44-1.65 1.21-0.6875 0.7425-1.1 1.7875-0.385 1.045-0.385 2.2825 0 1.21 0.4125 2.2825t1.1275 1.87q0.715 0.77 1.65 1.2375 0.9625 0.44 2.035 0.44 0.6875 0 1.3475-0.1925 0.6875-0.1925 1.265-0.5225 0.5775-0.3575 0.99-0.7975t0.5775-0.935l1.8425 0.55q-0.3025 0.77-0.88 1.43-0.5775 0.6325-1.375 1.1275-0.77 0.4675-1.7325 0.715-0.935 0.275-1.9525 0.275-1.5675 0-2.8875-0.5775-1.32-0.605-2.2825-1.6225-0.9625-1.045-1.5125-2.3925-0.5225-1.3475-0.5225-2.8875z"/>
    <path id="path8362" d="m546.83 537.39q-0.165 0.0825-0.495 0.22-0.3025 0.1375-0.715 0.275t-0.935 0.2475-1.1 0.11q-0.605 0-1.155-0.165t-0.9625-0.495q-0.4125-0.3575-0.66-0.88t-0.2475-1.21v-10.258h-1.98v-1.485h1.98v-4.84h1.87v4.84h3.3v1.485h-3.3v9.735q0.055 0.7975 0.55 1.1825 0.5225 0.3575 1.1825 0.3575 0.7975 0 1.4025-0.2475 0.605-0.275 0.77-0.385l0.495 1.5125z"/>
    <path id="path8364" d="m549.19 538.08v-14.328h1.87v14.328h-1.87zm0-17.325v-2.75h1.87v2.75h-1.87z"/>
    <path id="path8366" d="m561.31 538.35q-1.5675 0-2.86-0.5775-1.2925-0.605-2.255-1.6225-0.935-1.0175-1.4575-2.365t-0.5225-2.8325q0-1.5125 0.5225-2.86 0.55-1.3475 1.485-2.365 0.9625-1.0175 2.255-1.6225t2.8325-0.605 2.8325 0.605q1.32 0.605 2.255 1.6225 0.9625 1.0175 1.485 2.365 0.55 1.3475 0.55 2.86 0 1.485-0.5225 2.8325t-1.485 2.365q-0.935 1.0175-2.255 1.6225-1.2925 0.5775-2.86 0.5775zm-5.1975-7.37q0 1.21 0.4125 2.255 0.4125 1.0175 1.1 1.815 0.715 0.77 1.65 1.21 0.9625 0.44 2.035 0.44t2.0075-0.44q0.9625-0.4675 1.6775-1.2375 0.715-0.7975 1.1275-1.8425t0.4125-2.255q0-1.1825-0.4125-2.2275-0.4125-1.0725-1.1275-1.8425-0.715-0.7975-1.6775-1.2375-0.935-0.4675-2.0075-0.4675t-2.0075 0.4675q-0.935 0.44-1.65 1.2375t-1.1275 1.87q-0.4125 1.045-0.4125 2.255z"/>
    <path id="path8368" d="m583.63 538.08h-1.87v-8.0025q0-2.5575-0.77-3.7125-0.7425-1.155-2.31-1.155-0.825 0-1.65 0.3025t-1.54 0.8525q-0.6875 0.55-1.2375 1.32-0.55 0.7425-0.7975 1.6225v8.7725h-1.87v-14.328h1.705v3.245q0.88-1.5675 2.5025-2.53 1.65-0.9625 3.575-0.9625 1.1825 0 2.0075 0.44t1.32 1.2375 0.715 1.9525 0.22 2.5575v8.3875z"/>
    <path id="path8370" d="m587.95 540.3 0.4675-2.31h-0.6325v-2.6125h1.815v2.6125l-0.6875 2.31h-0.9625z"/>
    <path id="path8372" d="m604.46 538.35q-1.0175 0-1.8975-0.33-0.8525-0.3575-1.5125-0.9625-0.6325-0.605-0.99-1.4025-0.3575-0.825-0.3575-1.76t0.44-1.7325 1.2375-1.375 1.8975-0.88q1.1-0.33 2.42-0.33 1.1 0 2.2275 0.1925t2.0075 0.55v-1.2925q0-1.8975-1.0725-2.9975-1.0725-1.1275-2.97-1.1275-1.1 0-2.255 0.44t-2.3375 1.265l-0.66-1.2375q2.7775-1.87 5.39-1.87 2.695 0 4.235 1.5125t1.54 4.18v6.4625q0 0.77 0.6875 0.77v1.65q-0.4675 0.0825-0.715 0.0825-0.715 0-1.1275-0.3575-0.385-0.3575-0.4125-0.99l-0.055-1.1275q-0.99 1.2925-2.5025 1.98-1.485 0.6875-3.2175 0.6875zm0.44-1.43q1.4575 0 2.6675-0.55 1.2375-0.55 1.87-1.4575 0.2475-0.2475 0.3575-0.5225 0.1375-0.3025 0.1375-0.55v-2.3375q-0.935-0.3575-1.9525-0.55-0.99-0.1925-2.035-0.1925-1.98 0-3.2175 0.825t-1.2375 2.1725q0 0.66 0.2475 1.2375 0.275 0.5775 0.715 1.0175 0.4675 0.4125 1.1 0.66t1.3475 0.2475z"/>
    <path id="path8374" d="m627.89 538.08h-1.87v-8.0025q0-2.5575-0.77-3.7125-0.7425-1.155-2.31-1.155-0.825 0-1.65 0.3025t-1.54 0.8525q-0.6875 0.55-1.2375 1.32-0.55 0.7425-0.7975 1.6225v8.7725h-1.87v-14.328h1.705v3.245q0.88-1.5675 2.5025-2.53 1.65-0.9625 3.575-0.9625 1.1825 0 2.0075 0.44t1.32 1.2375 0.715 1.9525 0.22 2.5575v8.3875z"/>
    <path id="path8376" d="m637.79 538.35q-1.485 0-2.75-0.605-1.265-0.6325-2.1725-1.65t-1.43-2.3375q-0.495-1.3475-0.495-2.805 0-1.5125 0.495-2.86 0.495-1.375 1.3475-2.3925 0.88-1.0175 2.0625-1.595 1.21-0.605 2.64-0.605 1.815 0 3.2175 0.9625 1.4025 0.935 2.2 2.2825v-8.745h1.87v17.655q0 0.77 0.66 0.77v1.65q-0.4125 0.0825-0.66 0.0825-0.66 0-1.155-0.4125-0.495-0.44-0.495-1.045v-1.4025q-0.8525 1.4025-2.31 2.2275t-3.025 0.825zm0.4125-1.65q0.6875 0 1.4575-0.275 0.7975-0.275 1.485-0.7425 0.6875-0.495 1.155-1.1275 0.495-0.66 0.605-1.4025v-4.4275q-0.275-0.7425-0.7975-1.375-0.5225-0.66-1.21-1.155-0.66-0.495-1.43-0.77t-1.5125-0.275q-1.155 0-2.09 0.495t-1.6225 1.32q-0.66 0.7975-1.0175 1.8425t-0.3575 2.145q0 1.155 0.4125 2.2t1.1275 1.8425q0.715 0.77 1.6775 1.2375 0.99 0.4675 2.1175 0.4675z"/>
    <path id="path8378" d="m663.33 538.35q-1.815 0-3.2175-0.9075-1.375-0.935-2.2275-2.3375v8.8275h-1.87v-20.185h1.6775v2.7775q0.88-1.3475 2.2825-2.1725 1.4025-0.8525 3.0525-0.8525 1.485 0 2.7225 0.6325 1.2375 0.605 2.145 1.65 0.9075 1.0175 1.4025 2.365 0.5225 1.3475 0.5225 2.7775 0 1.5125-0.4675 2.86t-1.3475 2.365q-0.8525 1.0175-2.0625 1.6225-1.1825 0.5775-2.6125 0.5775zm-0.5225-1.65q1.155 0 2.09-0.495 0.9625-0.495 1.6225-1.2925 0.6875-0.825 1.045-1.8425 0.3575-1.045 0.3575-2.145 0-1.155-0.4125-2.2t-1.1275-1.8425-1.705-1.265q-0.9625-0.4675-2.09-0.4675-0.715 0-1.5125 0.3025-0.77 0.275-1.4575 0.77-0.66 0.4675-1.155 1.1275-0.4675 0.6325-0.5775 1.3475v4.4q0.33 0.77 0.825 1.43 0.5225 0.66 1.155 1.155 0.66 0.4675 1.4025 0.7425t1.54 0.275z"/>
    <path id="path8380" d="m676.59 538.35q-1.0175 0-1.8975-0.33-0.8525-0.3575-1.5125-0.9625-0.6325-0.605-0.99-1.4025-0.3575-0.825-0.3575-1.76t0.44-1.7325 1.2375-1.375 1.8975-0.88q1.1-0.33 2.42-0.33 1.1 0 2.2275 0.1925t2.0075 0.55v-1.2925q0-1.8975-1.0725-2.9975-1.0725-1.1275-2.97-1.1275-1.1 0-2.255 0.44t-2.3375 1.265l-0.66-1.2375q2.7775-1.87 5.39-1.87 2.695 0 4.235 1.5125t1.54 4.18v6.4625q0 0.77 0.6875 0.77v1.65q-0.4675 0.0825-0.715 0.0825-0.715 0-1.1275-0.3575-0.385-0.3575-0.4125-0.99l-0.055-1.1275q-0.99 1.2925-2.5025 1.98-1.485 0.6875-3.2175 0.6875zm0.44-1.43q1.4575 0 2.6675-0.55 1.2375-0.55 1.87-1.4575 0.2475-0.2475 0.3575-0.5225 0.1375-0.3025 0.1375-0.55v-2.3375q-0.935-0.3575-1.9525-0.55-0.99-0.1925-2.035-0.1925-1.98 0-3.2175 0.825t-1.2375 2.1725q0 0.66 0.2475 1.2375 0.275 0.5775 0.715 1.0175 0.4675 0.4125 1.1 0.66t1.3475 0.2475z"/>
    <path id="path8382" d="m694.75 537.39q-0.165 0.0825-0.495 0.22-0.3025 0.1375-0.715 0.275t-0.935 0.2475-1.1 0.11q-0.605 0-1.155-0.165t-0.9625-0.495q-0.4125-0.3575-0.66-0.88t-0.2475-1.21v-10.258h-1.98v-1.485h1.98v-4.84h1.87v4.84h3.3v1.485h-3.3v9.735q0.055 0.7975 0.55 1.1825 0.5225 0.3575 1.1825 0.3575 0.7975 0 1.4025-0.2475 0.605-0.275 0.77-0.385l0.495 1.5125z"/>
    <path id="path8384" d="m695.74 530.87q0-1.5125 0.5225-2.86t1.4575-2.3375q0.9625-1.0175 2.2825-1.595t2.915-0.5775q2.035 0 3.5475 0.935 1.5125 0.9075 2.2825 2.475l-1.815 0.5775q-0.605-1.1-1.705-1.705-1.0725-0.6325-2.3925-0.6325-1.1 0-2.0625 0.44-0.935 0.44-1.65 1.21-0.6875 0.7425-1.1 1.7875-0.385 1.045-0.385 2.2825 0 1.21 0.4125 2.2825t1.1275 1.87q0.715 0.77 1.65 1.2375 0.9625 0.44 2.035 0.44 0.6875 0 1.3475-0.1925 0.6875-0.1925 1.265-0.5225 0.5775-0.3575 0.99-0.7975t0.5775-0.935l1.8425 0.55q-0.3025 0.77-0.88 1.43-0.5775 0.6325-1.375 1.1275-0.77 0.4675-1.7325 0.715-0.935 0.275-1.9525 0.275-1.5675 0-2.8875-0.5775-1.32-0.605-2.2825-1.6225-0.9625-1.045-1.5125-2.3925-0.5225-1.3475-0.5225-2.8875z"/>
    <path id="path8386" d="m723.87 538.08h-1.87v-8.0025q0-2.4475-0.8525-3.6575-0.825-1.21-2.4475-1.21-0.7975 0-1.595 0.33-0.77 0.3025-1.4575 0.8525t-1.21 1.2925q-0.495 0.7425-0.7425 1.6225v8.7725h-1.87v-20.075h1.87v8.9925q0.8525-1.6225 2.365-2.5575t3.2725-0.935q1.2375 0 2.09 0.4675 0.8525 0.44 1.4025 1.265 0.55 0.7975 0.7975 1.9525 0.2475 1.1275 0.2475 2.5025v8.3875z"/>
    <path id="path8388" d="m734.07 538.35q-1.5675 0-2.8875-0.5775-1.2925-0.605-2.255-1.6225-0.9625-1.045-1.5125-2.3925-0.5225-1.3475-0.5225-2.8875 0-1.5125 0.5225-2.8325 0.55-1.3475 1.485-2.3375 0.9625-1.0175 2.2825-1.595 1.32-0.605 2.86-0.605 1.5675 0 2.86 0.605 1.32 0.5775 2.255 1.595t1.4575 2.3375 0.5225 2.805q0 0.22 0 0.44t-0.0275 0.3025h-12.265q0.0825 1.155 0.5225 2.145 0.4675 0.9625 1.1825 1.6775t1.6225 1.1275q0.935 0.385 1.98 0.385 0.6875 0 1.375-0.1925t1.265-0.5225 1.045-0.7975q0.4675-0.495 0.715-1.0725l1.6225 0.44q-0.33 0.7975-0.935 1.4575-0.605 0.6325-1.4025 1.1275-0.7975 0.4675-1.76 0.715-0.9625 0.275-2.0075 0.275zm5.28-8.195q-0.0825-1.155-0.55-2.09-0.44-0.9625-1.155-1.65-0.6875-0.6875-1.6225-1.0725-0.9075-0.385-1.9525-0.385t-1.98 0.385-1.65 1.0725q-0.6875 0.6875-1.1275 1.65-0.4125 0.9625-0.495 2.09h10.532z"/>
    <path id="path8390" d="m751.2 525.4q-1.8975 0.055-3.3 1.045t-1.98 2.7225v8.91h-1.87v-14.328h1.76v3.4375q0.7975-1.65 2.145-2.585t2.8875-0.935q0.22 0 0.3575 0.0275v1.705z"/>
   </g>
  </g>
 </g>
</svg>
