<svg width="512px" height="583px" version="1.1" xmlns="http://www.w3.org/2000/svg"><style type="text/css">.st0{fill:#181816;}.st1{fill:#181816;stroke:#000000;stroke-width:1.00256;}.st2{fill:#181816;stroke:#000000;stroke-width:0.966017;}.st3{fill:#181816;stroke:#000000;stroke-width:1.163039;}.st4{fill:#181816;stroke:#000000;stroke-width:1.058273;}.st5{fill:#181816;stroke:#000000;stroke-width:0.960815;}.st6{fill:#181816;stroke:#000000;stroke-width:0.936644;}.st7{fill:#181816;stroke:#000000;stroke-width:1.454299;}.st8{fill:#181816;stroke:#000000;stroke-width:4.5599999;stroke-linecap:round;stroke-dasharray:4.5599999,9.1199999;}</style><path class="st0" d="m386.4 0.005859c-1.909-0.2461-4.289 6.588-7.104 27.99-11.33 86.14 42.56 157.3 88.4 209.4 35.65 24.06 36.53 62.83 34.13 114.8 1.179-5.742 2.284-11.28 3.299-16.65 15.22-80.5 10.15-121.1-69.62-191.5-33.4-28.51-43.53-117.3-43.53-117.3s-1.935-26.28-5.58-26.75zm-27.65 61.65c-2.691 0.3502-4.063 16.44 1.324 54.6 5.055 35.8 37.49 69.04 37.49 69.04 25.88 12.09 52.09 51.78 52.09 51.78 9.696-2.952 12.88-0.07227 12.88-0.07227-28.67-35.89-20.19-27.21-54.42-66.41-32.58-37.31-44.84-97.43-44.84-97.43-1.353-7.548-3.126-11.68-4.535-11.5zm-352.4 39.39c-3.084-0.381-4.961 14.08-6.145 29.87-1.894 25.26 8.093 68.67 21.92 86.99 27.12 55.47 102.3 120.9 206 101.2 32.22-9.194 60.27 5.776 80.39 22.94 19.35 19.71 26.13 23.1 39.38 15.29-13.74-13.31-28.44-28.86-28.14-49.36 0.9652-14.89 6.391-29.48 15.94-37.43-9.429-33.09-62.26-34.68-85.8-32.32-30.49 2.06-61.1 17.79-88.32 20.79-75.6-6.192-130.4-58.23-148.2-138.3-2.83-13.84-5.114-19.41-6.965-19.64zm346.5 24.04c-0.9344-0.00643-1.633 2.54-2.291 8.105-0.8978 7.602 4.618 42.66 20.03 44.27 10.23 1.063 20.52 4.385 20.52 4.385s-1.826-2.048-4.609-5.262c-8.35-9.641-25.32-29.77-27.45-36.55-2.975-9.473-4.843-14.94-6.209-14.95zm10.84 56.17c-48.53 1.709-50.74 26.29-50.74 26.29s0.2496-0.4174 0.7676-1.072c3.626-4.584 20.43-20.86 57.29 12.22 36.53 40.82 71.99 17.31 71.99 17.31-9.727-12.67-38.39-52.31-79.31-54.74zm-108.7 18.29c-29.47-0.2932-61.71 5.415-96.44 19.89 3.577-0.8527 7.134-1.665 10.67-2.434 53.07-11.52 101.7-13.27 142.8 3.355-5.771-6.629-7.485-9.757-6.158-9.441 3.769 0.8962 5.66-3.23 5.66-3.23-17.49-4.932-36.36-7.942-56.53-8.143zm75.21 2.725c-4.675 0.1402-10.54 2.848-15.31 13.12 0 0 12.25 11.74 23.47-10.83 0 0-3.483-2.429-8.158-2.289zm17.21 7.463c-4.787-0.06652-9.895 2.042-14.84 8.037-1e-5 0-5.568 6.531-20.1 3.072 0 0-4.145 18 19.92 31.92 16.79 9.71 7.348 12.38 7.348 12.38s7.795 1.41 20.89-10.51c18.61-16.93 9.148-30.35 9.148-30.35s-10.13-14.37-22.37-14.54zm29.29 19.8s2.588 26.71-34.16 38c0 0 37.67-14.25 78.73 20.83 0 0 4.298-32.18 23.85-48.69-2.225 0.6441-32.78 20.79-68.42-10.14zm80.19 10.82c-12.34 0.8611-20.95 13.81-25.92 25.6-5.681 13.47-7.219 24.49-7.219 24.49 46.38-92.04 53.2 103.7 50.86 110.6 0.4279-0.5911 15.23-21.12 21.45-43.12 12.37-70.04-10.64-108.1-33.65-117.1-1.915-0.4092-3.755-0.5332-5.518-0.4102zm17.72 160.7c-0.00624 0.00861-0.1426 0.209-0.1426 0.209 0.0514 0.00961 0.0977-0.07673 0.1426-0.209zm-449.1-140.9c-7.017 0.02749 0.3384 33.66 32.13 66.18 44.8 45.82 113.6 60.26 135.5 61.06 60.66 2.23 124.1-31.5 124.1-31.5-56.52-51.51-96.88-26.99-96.88-26.99-44.2 16.38-97.79 5.922-151.2-25.87 0 0-16.62-7.116-34.62-34.25-3.997-6.024-7.088-8.65-9.053-8.643zm335.6 8.855c-7.985-0.1559-15.69 0.5869-24.39 7.324-37.61 46.21 11.32 102.7 128.8 126.2-12.48-1.075-147.9-135.8-45.62-110.3 0 0-9.456-9.251-24.47-16.07-7.508-3.41-17.17-6.745-26.21-6.951-2.772-0.06301-5.465-0.2137-8.127-0.2656zm82.81 6.574c-5.344 0.4136-11.66 6.948-19.11 22.05-41.97-15.36-57.52 19 47.91 108.1-1.773-39.16-7.831-131.7-28.79-130.1zm57.12 80.08s-14.35 40.27-27.54 51.45c0 0 8.429 2.006 11.43 19.94 8.592-21.05 16.11-71.39 16.11-71.39zm-150.3 3.682c-10.36 8.526-20.93 4.977-20.93 4.977 14.71 29.73 26.66 36.06 67.68 53.99 25.01 11.44 33.21 18.01 27.38 28.42 0 0 0.4866-0.26 1.365-0.7578 6.15-3.485 31.54-18.62 44.25-37.75 0 0-78.79-13.96-119.7-48.88zm-29.65 2.029c-33.9 15.76-80.39 42.47-158.3 35.11-16.12-3.235-29.81-5.412-48.99-14.53-29.62-18.25-11.09 5.375-8.387 8.191 28.06 29.22 73.22 36.33 105.5 37.9 48.25 4.352 115.9-26.14 110.2-66.67zm5.568 5.893s1.277 34.79-48.29 57.62c-35.67 16.43 9.227 10.24 32.12-0.8848 23.54-11.44 28.67-27.52 25.29-40.72-2.577-10.08-6.542-13.22-9.123-16.01zm145.7 44.83c-8.938 50.28-73.91 105.4-173.8 112.2-35.49 2.416-49.17-5.67-49.17-5.67 15.26 47.21 81.94 36.27 81.94 36.27 33.68-6.738 62.88-18.03 91.04-41.42 64.09-53.24 50.03-101.3 50.03-101.3zm4.994 2.35c4.434 34.7-14.1 66.82-44.74 98.11-27.53 28.11-96.68 58.64-143.4 52.8 35.54 27.82 82.35 12.86 82.35 12.86 117.3-30.07 121.6-148.4 105.8-163.8zm-11.32 4.744s-41.05 48.78-115.9 66.29c-48.61 11.37-64 8.92-64 8.92s8.872 21.39 37.13 20.95c48.84-0.7513 128.1-44.06 142.8-96.16z"/></svg>
