<?xml version="1.0" encoding="UTF-8" standalone="no"?>
<svg
   viewBox="0 0 32 32"
   version="1.1"
   id="svg6"
   sodipodi:docname="apple.svg"
   xmlns:inkscape="http://www.inkscape.org/namespaces/inkscape"
   xmlns:sodipodi="http://sodipodi.sourceforge.net/DTD/sodipodi-0.dtd"
   xmlns="http://www.w3.org/2000/svg"
   xmlns:svg="http://www.w3.org/2000/svg">
  <sodipodi:namedview
     id="namedview5"
     pagecolor="#ffffff"
     bordercolor="#666666"
     borderopacity="1.0"
     inkscape:pageshadow="2"
     inkscape:pageopacity="0.0"
     inkscape:pagecheckerboard="0" />
  <defs
     id="defs10" />
  <path
     id="path2"
     d="M 19.599609,5.9003906 C 18.142886,6.2328823 16.896977,7.2734172 16.186081,8.5743942 15.850359,9.2310505 15.903516,9.9838035 15.900391,10.699219 17.272605,10.773679 18.567948,9.9211431 19.300781,8.8007812 19.826647,8.0732641 20.060197,7.1782948 20,6.2887001 20.082105,5.8651881 19.873019,6.0923459 19.599609,5.9003906 Z M 12.699219,10.699219 C 11.321237,10.731555 9.9397244,11.323361 9.0890713,12.432067 8.2924283,13.339993 7.9245509,14.535189 7.7677063,15.707667 7.654013,16.26978 7.7024142,16.853826 7.7150879,17.42428 7.8316345,18.13856 7.8033588,18.872438 8.0386763,19.567994 8.3646749,20.89393 8.9479791,22.152084 9.6603373,23.311646 10.119115,23.943571 10.522791,24.627094 11.142517,25.123645 11.620565,25.466312 12.09611,25.895395 12.688443,25.995279 13.494724,26.083403 14.255433,25.763231 14.974881,25.438264 15.85768,25.124463 16.886652,24.894446 17.766016,25.340833 18.297181,25.535513 18.834407,25.727619 19.376355,25.88302 20.005988,25.927866 20.718715,25.956355 21.20588,25.474342 22.046205,24.902086 22.759746,24.164745 23.305346,23.30625 23.860492,22.47247 24.360129,21.570057 24.599609,20.599609 24.503232,20.353539 23.747406,20.012227 23.400391,19.599609 22.710465,18.941858 22.202013,18.067158 22.131126,17.10627 22.065343,16.38917 22.051286,15.631509 22.388782,14.971276 22.751409,14.028495 23.530543,13.315788 24.300781,12.699219 23.79559,12.028048 23.115031,11.527789 22.374058,11.151806 21.309157,10.626229 20.056473,10.623112 18.904994,10.794604 18.143867,10.962484 17.430923,11.306607 16.678956,11.495541 15.527258,11.604097 14.616073,10.609178 13.462874,10.699219 13.208322,10.699219 12.953771,10.699219 12.699219,10.699219 Z" />
</svg>
