<?xml version="1.0" encoding="UTF-8" standalone="no"?>
<svg
   viewBox="0 0 32 32"
   version="1.1"
   id="svg6"
   xmlns="http://www.w3.org/2000/svg"
   xmlns:svg="http://www.w3.org/2000/svg">
  <defs
     id="defs10" />
  <path
     id="path2"
     d="M 19.599609 5.9003906 C 18.999609 6.0003906 18.5 6.2996094 18 6.5996094 C 17.5 6.8996094 17.099219 7.3007812 16.699219 7.8007812 C 16.399219 8.2007812 16.1 8.5996094 16 9.0996094 C 15.9 9.4996094 15.900391 9.7992187 15.900391 10.199219 L 15.900391 10.699219 L 16.400391 10.699219 C 16.900391 10.599219 17.400781 10.499219 17.800781 10.199219 C 18.400781 9.8992188 18.900781 9.4007812 19.300781 8.8007812 C 19.700781 8.2007812 20 7.5007813 20 6.8007812 L 20 6 C 19.8 6 19.699609 6.0003906 19.599609 5.9003906 z M 12.699219 10.699219 C 12.299219 10.699219 11.800391 10.800391 11.400391 10.900391 C 10.600391 11.100391 9.7992187 11.600781 9.1992188 12.300781 C 8.5992187 13.000781 8.2 13.699609 8 14.599609 C 7.9 14.899609 7.8007812 15.299609 7.8007812 15.599609 C 7.7007813 15.899609 7.6992188 16.100781 7.6992188 16.300781 L 7.6992188 17.199219 C 7.6992188 17.499219 7.8007812 17.799609 7.8007812 18.099609 C 7.8007812 18.599609 7.9 19.000391 8 19.400391 C 8.2 20.300391 8.5003906 21.100391 8.9003906 21.900391 C 9.2003906 22.600391 9.5996094 23.300391 10.099609 23.900391 C 10.299609 24.300391 10.600391 24.600391 10.900391 24.900391 C 11.200391 25.200391 11.6 25.499219 12 25.699219 C 12.2 25.899219 12.500781 26 12.800781 26 L 13.199219 26 C 13.499219 26 13.799609 25.900781 14.099609 25.800781 C 14.299609 25.700781 14.399609 25.699609 14.599609 25.599609 C 14.999609 25.399609 15.400781 25.299219 15.800781 25.199219 C 16.100781 25.099219 16.399219 25.099609 16.699219 25.099609 C 16.899219 25.099609 17.200391 25.099219 17.400391 25.199219 C 17.600391 25.299219 17.700391 25.300391 17.900391 25.400391 L 18.800781 25.699219 C 19.000781 25.799219 19.299609 25.900391 19.599609 25.900391 L 20.199219 25.900391 C 20.399219 25.900391 20.700391 25.799219 20.900391 25.699219 C 21.200391 25.499219 21.399219 25.299609 21.699219 25.099609 C 22.099219 24.799609 22.500781 24.4 22.800781 24 C 23.500781 23.1 24.1 22.1 24.5 21 C 24.5 20.9 24.499609 20.799609 24.599609 20.599609 C 24.499609 20.499609 24.399609 20.5 24.599609 20.5 C 24.099609 20.2 23.700391 19.899609 23.400391 19.599609 C 22.800391 18.999609 22.399219 18.399609 22.199219 17.599609 C 22.199219 17.299609 22.099609 17.100781 22.099609 16.800781 L 22.099609 16.099609 C 22.099609 15.599609 22.3 15.199219 22.5 14.699219 C 22.7 14.299219 23.000391 13.9 23.400391 13.5 C 23.700391 13.2 24.000781 12.899219 24.300781 12.699219 C 23.800781 12.099219 23.299609 11.600781 22.599609 11.300781 C 22.199609 11.000781 21.800781 10.900781 21.300781 10.800781 C 20.900781 10.700781 20.400391 10.699219 19.900391 10.699219 C 19.300391 10.699219 18.699219 10.8 18.199219 11 L 17.300781 11.300781 C 17.100781 11.400781 16.799609 11.5 16.599609 11.5 C 16.399609 11.5 16.100391 11.500391 15.900391 11.400391 C 15.700391 11.400391 15.500781 11.299219 15.300781 11.199219 C 15.100781 11.099219 14.799609 11.000391 14.599609 10.900391 C 14.299609 10.800391 13.999219 10.699219 13.699219 10.699219 L 12.699219 10.699219 z " />
</svg>
