<svg xmlns="http://www.w3.org/2000/svg" viewBox="0 0 32 32"><path d="M5.998 19.625l2.623-7.28h1.37l2.623 7.28h-1.43l-.716-1.95H7.727l-.715 1.95H5.998zm2.027-2.86h2.086L9.098 13.84l-1.073 2.925zm4.947 2.795v-1.235c.953.325 1.728.52 2.384.52.536 0 .894-.13 1.132-.26.298-.195.417-.39.417-.715 0-.26-.06-.455-.238-.585-.179-.195-.477-.39-.954-.585l-.596-.26c-.775-.39-1.311-.78-1.669-1.105-.298-.325-.476-.715-.476-1.17 0-.585.238-1.105.774-1.43.537-.39 1.252-.585 2.146-.585.715 0 1.49.065 2.324.26v1.17c-.894-.26-1.609-.39-2.145-.39-.417 0-.715.065-.954.195-.238.195-.357.39-.357.585 0 .195.06.39.238.52.179.13.477.325.954.585l.596.26c.834.39 1.43.78 1.728 1.105.298.325.477.715.477 1.235 0 .65-.298 1.235-.894 1.56-.537.39-1.371.585-2.444.585-.655 0-1.49-.065-2.443-.26zm6.318.065V12.41h1.847l1.609 5.135 1.669-5.135h1.609v7.215h-1.311V14.1l-1.61 5.005h-1.132l-1.609-5.07v5.59h-1.073z"/></svg>