<?xml version="1.0" encoding="UTF-8" standalone="no"?>
<!-- Created with Inkscape (http://www.inkscape.org/) -->

<svg
   version="1.1"
   id="svg2282"
   width="800"
   height="800"
   viewBox="0 0 800 800"
   sodipodi:docname="asm_nf.svg"
   inkscape:version="1.2.1 (9c6d41e410, 2022-07-14)"
   inkscape:export-filename="asm.png"
   inkscape:export-xdpi="96"
   inkscape:export-ydpi="96"
   xmlns:inkscape="http://www.inkscape.org/namespaces/inkscape"
   xmlns:sodipodi="http://sodipodi.sourceforge.net/DTD/sodipodi-0.dtd"
   xmlns="http://www.w3.org/2000/svg"
   xmlns:svg="http://www.w3.org/2000/svg">
  <defs
     id="defs2286" />
  <sodipodi:namedview
     id="namedview2284"
     pagecolor="#505050"
     bordercolor="#eeeeee"
     borderopacity="1"
     inkscape:showpageshadow="0"
     inkscape:pageopacity="0"
     inkscape:pagecheckerboard="0"
     inkscape:deskcolor="#505050"
     showgrid="false"
     inkscape:zoom="1.125"
     inkscape:cx="321.33333"
     inkscape:cy="401.33333"
     inkscape:window-width="1920"
     inkscape:window-height="1055"
     inkscape:window-x="0"
     inkscape:window-y="0"
     inkscape:window-maximized="1"
     inkscape:current-layer="g2288"
     inkscape:pageshadow="2" />
  <g
     inkscape:groupmode="layer"
     inkscape:label="Image"
     id="g2288">
    <path
       style="fill:#000000;stroke-width:1.33333"
       d="M 150.22173,544 C 122.38743,496 94.553129,448 66.718828,400 122.38743,304 178.05604,208 233.72465,112 c 111.31613,0 222.63225,0 333.94838,0 55.34723,95.75402 111.29742,191.16533 165.92064,287.33333 C 679.08352,496.04714 622.80691,591.76016 567.33333,687.92617 456.13044,687.95079 344.92754,687.9754 233.72465,688 205.89034,640 178.05604,592 150.22173,544 Z m 261.50115,-51.44152 c 37.68761,-4.07781 65.74089,-49.11673 44.1847,-82.90155 -21.21957,-29.07083 -62.64247,-30.03899 -89.24368,-52.35534 -16.67738,-37.50336 44.73934,-40.09851 64.87742,-21.89275 12.14282,10.1608 39.19076,-24.55328 11.37947,-27.77721 -36.31486,-25.34889 -101.20311,-17.4583 -114.89856,29.58905 -8.09851,31.48517 18.27311,56.51275 45.91003,64.95771 28.0624,4.20488 79.65916,41.51416 32.56471,59.92643 -26.60567,13.822 -53.70285,-21.74827 -73.4394,-13.78144 -32.85998,22.08017 15.24826,38.972 35.05307,43.80878 14.30298,3.08965 29.25891,3.35163 43.61224,0.42632 z M 185.23091,464.31023 c 4.91864,-7.57367 1.45758,-26.36735 12.58258,-25.63099 19.6062,0.21803 39.2124,0.43606 58.8186,0.65409 4.81548,17.11111 9.63096,34.22223 14.44643,51.33334 15.34598,-1.57018 48.33031,7.44063 31.65479,-17.95228 C 284.0043,414.20237 264.93059,355.80154 246,297.3546 c -13.927,-0.007 -27.85401,-0.0143 -41.78101,-0.0214 -20.35046,64.11922 -42.79638,128.59581 -61.70481,192.51864 10.6191,-3.17139 34.46614,7.96814 37.34684,-6.6332 1.78996,-6.30281 3.57993,-12.60561 5.36989,-18.90841 z m 16.10242,-54.85435 c 7.61704,-27.9015 15.01069,-55.89017 23.09062,-83.65761 2.5655,25.49249 28.99344,69.20556 16.72188,84.69463 -13.25863,0.0321 -26.64677,0.8801 -39.8125,-1.03702 z M 515.98829,443 c 0.26526,-35.04865 -1.10586,-70.07151 -3.97217,-105 9.93558,34.01078 20.13183,68.04327 33.12853,101.01132 14.94787,4.80083 25.0215,-0.95952 26.35747,-16.33997 10.29607,-28.89384 19.13217,-58.26854 27.902,-87.64848 -4.75459,51.73625 -4.11489,103.74521 -5.06285,155.6438 10.77513,0 21.55027,0 32.3254,0 0,-64.44445 0,-128.88889 0,-193.33334 -15.08045,3.00057 -41.921,-9.04877 -43.54121,12.36882 -9.34016,29.66298 -17.90023,59.60225 -26.97525,89.31708 -12.00728,-33.2452 -20.72498,-67.86549 -31.48354,-101.65682 -13.11111,-0.01 -26.22223,-0.0194 -39.33334,-0.0291 0,64.44445 0,128.88889 0,193.33334 9.59512,-1.21426 24.01043,2.39046 30.66623,-1.76238 -0.004,-15.30134 -0.008,-30.60344 -0.0113,-45.90429 z"
       id="path2409" />
  </g>
</svg>
