<svg xmlns="http://www.w3.org/2000/svg" viewBox="0 0 32 32"><path d="M16.3 23.8c-.2 0-.4-.2-.6-.3-1.5-1.3-3-2.6-4.6-3.9-.1-.1-.1-.1-.2-.1H6.7c-.4 0-.6-.2-.7-.5v-5.7c0-.5.3-.8.8-.8H11c.1 0 .2 0 .2-.1 1.5-1.3 3.1-2.7 4.6-4 .4-.3.8-.3 1.1.1.1.1.1.3.1.4V23c0 .3-.1.6-.4.7-.1 0-.1 0-.2.1h-.1zm9.7-7.7c0 .3 0 .6-.1.9-.1 1.2-.4 2.4-.9 3.6-.4 1-.9 1.9-1.6 2.7-.1.2-.3.3-.6.4-.3 0-.5-.1-.7-.3-.2-.2-.2-.5 0-.7.1-.2.3-.4.4-.6 1-1.4 1.6-2.9 1.8-4.5.4-3-.3-5.7-2.2-8.1-.2-.3-.3-.6 0-.9.3-.4.8-.4 1.2 0 .7.9 1.3 1.8 1.7 2.9.5 1.2.8 2.5.9 3.8v.7c.1 0 .1.1.1.1z"/><path d="M23.3 15.9c0 2.1-.6 3.9-1.7 5.5-.1.2-.3.3-.6.4-.3 0-.5-.1-.7-.3-.2-.2-.2-.5 0-.8 0-.1.1-.1.1-.2.8-1.1 1.2-2.2 1.4-3.5.3-2.1-.2-4-1.5-5.8-.1-.2-.2-.4-.2-.6.1-.3.2-.5.5-.6.3-.1.6 0 .8.3.3.4.6.9.9 1.4.5 1.1.9 2.3.9 3.5.1.4.1.6.1.7z"/><path d="M20.5 16c0 1.2-.3 2.4-1 3.4-.2.4-.6.5-1 .3-.3-.2-.5-.6-.2-1 .4-.6.6-1.3.7-2 .2-1.2-.1-2.4-.7-3.4-.2-.4-.1-.8.2-1 .3-.2.8-.1 1 .2.4.6.6 1.2.8 1.9.1.6.2 1.1.2 1.6z"/></svg>