<?xml version="1.0" encoding="UTF-8" standalone="no"?>
<svg
   height="32"
   width="32"
   version="1.1"
   id="svg4"
   xmlns="http://www.w3.org/2000/svg"
   xmlns:svg="http://www.w3.org/2000/svg">
  <defs
     id="defs8" />
  <path
     d="M22.36 12.38l1.876-1.687A4.99 4.99 0 0025 8.023v-.211c0-.211-.07-.422-.139-.563-.347-.703-.973-1.195-1.737-1.476-.695-.492-1.946-.703-3.753-.773-2.016.281-3.962.773-5.769 1.546-.695.492-1.46.984-2.224 1.406v.14c.07 0 .14-.07.209-.07s.139 0 .139.07l.139-.07h.07v.07s-.07.141-.348.282c-.278.14-.695.492-1.251.914l.208.14-.139-.07c0 .07-.07.07-.208.07v.07l.139.211c-.07 0-.14 0-.209-.07-.417.07-.764.351-.973.703v.281c.14-.14.278-.281.487-.422v.211h-.07l-.139.07v.07l.14.212v.07a.97.97 0 01.208-.281l.208-.211.14-.14.138-.141.07-.07.347-.211c.209.07.278.14.278.21h.14c1.042-.773 2.154-1.405 3.335-1.827v.14c-.07.141-.208.282-.278.352s-.07.07-.139.07c0 .07.07.211.14.281-.418 1.336-.904 2.601-1.53 3.796A97.162 97.162 0 017 25.032c0 .07.07.14.07.21l.208-.07c.208-.07.347-.14.486-.21h.07v.14h.139l.139-.07h.139v.281c-.07.14-.139.352-.209.492-.208.352-.417.703-.486 1.125V27h.208l.209-.281c.486-.562.903-1.125 1.181-1.757l.695-.211c.487-.14.904-.281 1.251-.422l.14-.07c.694-.281 1.39-.563 2.084-.914.765 0 1.599-.281 2.224-.773v-.07l-.347.14h-.07v-.14c.556-.07 1.043-.211 1.46-.492a130.306 130.306 0 013.127-2.32c2.155-1.617 3.197-3.163 3.128-4.639-.348-.562-.765-1.124-1.251-1.546l-.209-.281c0-.14.278-.422.973-.844zm-3.337 5.342l-1.946 1.546c-.764.492-1.529.984-2.293 1.406a20.566 20.566 0 01-3.962 1.898c-.07 0-.208.07-.278.07h-.07c.07-.281 1.113-2.32 3.059-6.255a15.72 15.72 0 004.03-1.195l.487-.07c.765-.141 1.53.07 2.085.562v.28c-.347.985-.695 1.547-1.112 1.758zm1.182-6.396a7.49 7.49 0 01-1.668 1.265c-1.112.351-2.224.773-3.267 1.336-.07 0-.07 0-.139-.07h-.208v-.141c0-.352.139-.774.347-1.055.14-.773.278-1.265.487-1.335l1.598-3.585c0-.21.348-.422 1.043-.492h.208v.211c.695-.14 1.112-.14 1.251-.14 1.182-.141 1.807.14 1.946.632v.14h.14v-.491h.138c.278.14.487.351.556.632v.14c0 .282-.139.563-.347.774-.07 0-.14-.07-.14-.21h-.138v.42c-.626.985-1.112 1.477-1.39 1.477a4.194 4.194 0 01-.417.492z"
     id="path2" />
</svg>
