<?xml version="1.0" encoding="UTF-8"?>
<svg width="32px" height="32px" viewBox="0 0 32 32" version="1.1" xmlns="http://www.w3.org/2000/svg" xmlns:xlink="http://www.w3.org/1999/xlink">
    <!-- Generator: Sketch 49.1 (51147) - http://www.bohemiancoding.com/sketch -->
    <title>bower</title>
    <desc>Created with Sketch.</desc>
    <defs></defs>
    <g id="bower" stroke="none" stroke-width="1" fill="none" fill-rule="evenodd">
        <path d="M13.7221565,4 C8.65748509,4.00012193 3.13750661,8.17843721 3.13750661,15.2512406 C3.13750661,21.1967906 7.19666739,26.4071716 9.49000857,26.4071716 C10.4916674,26.4071716 11.3531747,25.6572374 11.5554749,24.9848644 C11.7250385,25.4459508 12.2453887,26.8789711 12.4162374,27.2437754 C12.668711,27.7832786 13.8368302,28.2501299 14.347983,27.6901952 C15.0051641,28.0553192 16.2111608,28.2753738 16.8684495,27.3015295 C18.1341363,27.5693016 19.2531666,26.8145503 19.2776641,25.9138894 C19.8987933,25.8807251 20.2034628,25.0086182 20.0678115,24.3141014 C19.9677842,23.8027339 18.8997994,21.968021 18.4832164,21.3346965 C19.3078221,22.0054649 21.396721,22.1953567 21.6504796,21.3351206 C22.9800337,22.3787149 25.0521434,21.8309754 25.2164647,20.9821918 C26.8320851,21.4019836 28.6850922,20.4800223 28.380947,19.363359 C30.9762944,19.1839533 30.6441131,16.4224731 29.9158965,15.7226069 L29.9158965,15.7225009 C28.5116704,14.3733724 21.4903424,13.5310127 19.274775,13.2859204 C19.3828471,13.0301871 19.4744285,12.7677942 19.5489567,12.5003532 C19.8634449,12.3624095 20.1856817,12.2428532 20.5140383,12.1422887 C20.5551183,12.2634977 20.7486451,12.7277838 20.8588357,12.9480564 C25.3139327,13.0709771 25.5426462,9.63732957 25.7238707,8.6966495 C25.9010308,7.77693781 25.8920571,6.88826355 27.4201667,5.26355015 C25.1436205,4.60016369 21.8695769,6.29184769 20.773026,8.80974144 C20.3609373,8.65526156 19.9478854,8.54122234 19.5394348,8.47072225 C19.2466287,7.28987104 17.722266,4 13.7221565,4 Z M26.1234482,5.87204333 C24.7594469,7.10905926 25.2437411,9.68012708 24.1222649,11.0413474 C23.8013225,10.718908 23.0644381,10.0969269 22.6891513,9.83311255 C23.2482315,8.72393859 23.9506688,7.51291172 24.8378579,6.76372695 C23.8613402,7.15720136 22.8972281,8.33377267 22.327128,9.59122205 C22.0425017,9.40991643 21.747675,9.24514493 21.4441108,9.09772515 C22.2392969,7.40037208 24.0870739,5.98276818 26.1234482,5.87204333 Z M13.6901658,7.7843377 C15.0036729,7.7843377 16.0685661,8.84910276 16.0685661,10.1626098 C16.0685661,11.4760098 15.0036729,12.5407965 13.6901658,12.5407965 C12.3767658,12.5407965 11.3120004,11.4760098 11.3120004,10.1626098 L11.3120004,10.1625038 C11.3120004,8.84910382 12.3767658,7.7843386 13.6901658,7.7843386 L13.6901658,7.7843377 Z M13.6901658,8.73859088 C12.9038585,8.73859088 12.2662539,9.37619601 12.2662539,10.1625028 L12.26636,10.1626088 C12.26636,10.9489161 12.9039656,11.5864141 13.6901647,11.5864141 C14.4765791,11.5864141 15.1140766,10.948809 15.1140766,10.1625017 C15.1140766,9.37619495 14.4766862,8.73858982 13.6901647,8.73858982 L13.6901658,8.73859088 Z M13.6901658,9.0149339 C14.1484151,9.01493632 14.519898,9.2458928 14.5198998,9.53079196 C14.5198985,9.81569132 14.1484155,10.0466481 13.6901658,10.0466506 C13.2319159,10.0466483 12.8604326,9.81569145 12.8604312,9.53079196 C12.860433,9.24589268 13.2319163,9.01493613 13.6901658,9.0149339 Z M18.5720212,9.09943741 C20.8042771,9.10478624 22.6072173,10.6376154 23.1569903,11.1455589 C22.4734923,10.8771448 21.6063033,10.7074634 20.9986542,10.7074634 C19.9787024,10.7074634 19.2858845,11.4992287 17.8983473,11.0805067 C18.5559562,11.7583357 19.7037647,11.266444 20.312484,11.1207364 C20.3194299,11.2246317 20.3303153,11.3282261 20.3451166,11.431296 C19.4171677,11.6531732 18.4433165,12.2433948 18.1616363,12.3966978 L18.1615303,12.3965918 C17.5349632,11.0126021 18.0736182,9.70368206 18.5720398,9.09945597 L18.5720212,9.09943741 Z M21.0604107,11.0120953 C21.3194158,11.0122543 21.7780897,11.1020547 21.8537462,11.1198803 C21.8240048,11.2693325 21.8080595,11.5966914 21.8075247,11.6391623 C21.8557733,11.5562529 21.9893986,11.2700858 22.0437456,11.1577562 C22.5302928,11.2507224 23.1702383,11.4060446 23.545313,11.5808511 C23.1047663,11.8661683 22.3563403,12.1764221 21.3202343,12.1981391 C21.1697123,11.8721697 21.0175941,11.3306193 21.0359948,11.0123519 C21.0439152,11.0121398 21.0520556,11.0120868 21.0604107,11.0120868 L21.0604107,11.0120953 Z M18.511676,14.3791368 C21.2026343,14.5531857 25.0991335,15.2593046 27.007771,15.7432823 C27.0078771,15.7432722 27.0079831,15.7432706 27.0080361,15.7432606 C28.1040521,16.0376713 28.4524845,16.2254099 28.580006,16.8823779 C26.5615119,16.5999036 23.3013551,16.3059927 21.3291444,16.1544793 C21.3287204,16.1544772 21.3282326,16.154482 21.3277927,16.1544793 C20.7278462,16.1083708 20.2469739,16.0754307 19.9570568,16.0600256 C20.4352605,16.1279584 22.543096,16.5167206 24.55187,16.90399 C26.2510424,17.2316711 27.8792789,17.5583996 28.3904317,17.6892365 C28.0508761,18.2428608 27.2775157,18.6338701 26.1117492,18.3621396 C26.7417578,19.2201233 25.5187567,20.2495859 23.8153058,19.6825891 C24.1902729,20.524954 22.6736042,21.283448 20.9498283,20.4053513 C20.971759,21.2481441 18.8112888,21.3451736 17.9572629,20.4139116 L17.9583284,20.4189423 C17.9322443,20.3627775 17.9056931,20.3034469 17.8788111,20.2421458 C17.9589699,20.4379224 18.0299083,20.6116252 18.0603797,20.6965692 C18.3700842,21.558832 16.9549648,24.8177653 13.7635211,24.8177653 C9.9741633,24.8177653 6.55078458,22.510418 5.07455971,19.0538771 C6.9355932,19.9673836 9.22924609,19.5306988 9.76714355,18.9543942 C10.6297281,19.2300836 11.399348,19.3461399 12.0872331,19.3461399 C14.4476514,19.3461399 16.5809514,17.6902002 17.7582722,15.1990516 C18.1575243,14.8705143 18.3868983,14.5614343 18.5116341,14.3791395 L18.511676,14.3791368 Z M24.3705,17.4578311 C24.36223,17.4659411 24.35358,17.4739821 24.34511,17.4820511 C24.35358,17.4739811 24.362234,17.4659421 24.3705,17.4578311 Z M17.5209427,19.3443189 C17.5361777,19.3766216 17.5524537,19.4104274 17.5687777,19.4443189 C17.5529307,19.4109783 17.5374967,19.3789502 17.5213877,19.344795 C17.5211877,19.3446377 17.5210877,19.3444803 17.5208877,19.3443229 L17.5209427,19.3443189 Z" id="path4791" fill="#444444" fill-rule="nonzero"></path>
    </g>
</svg>