<?xml version="1.0" encoding="UTF-8" standalone="no"?>
<svg
   viewBox="0 0 32 32"
   version="1.1"
   id="svg1086"
   xmlns="http://www.w3.org/2000/svg"
   xmlns:svg="http://www.w3.org/2000/svg">
  <defs
     id="defs1090" />
  <path
     id="path1082"
     d="M 7 10 L 7 11 L 5 11 L 5 14 L 7 14 L 7 22 L 10 22 L 10 10 L 7 10 z M 17 10 C 13.7 10 11 12.7 11 16 C 11 19.232995 13.592505 21.88757 16.800781 21.994141 L 16.800781 22 L 17 22 L 27 22 L 27 19 L 22.199219 19 L 17 19 C 15.3 19 14 17.7 14 16 C 14 14.3 15.3 13 17 13 C 18.3 13 19.400781 13.8 19.800781 15 L 22.900391 15 C 22.400391 12.2 20 10 17 10 z " />
</svg>
