<?xml version="1.0" encoding="UTF-8" standalone="no"?>
<svg
   width="32px"
   height="32px"
   viewBox="0 0 32 32"
   version="1.1"
   id="svg10"
   sodipodi:docname="c++.svg"
   xmlns:inkscape="http://www.inkscape.org/namespaces/inkscape"
   xmlns:sodipodi="http://sodipodi.sourceforge.net/DTD/sodipodi-0.dtd"
   xmlns="http://www.w3.org/2000/svg"
   xmlns:svg="http://www.w3.org/2000/svg">
  <sodipodi:namedview
     id="namedview12"
     pagecolor="#ffffff"
     bordercolor="#666666"
     borderopacity="1.0"
     inkscape:pageshadow="2"
     inkscape:pageopacity="0.0"
     inkscape:pagecheckerboard="0" />
  <!-- Generator: Sketch 49.1 (51147) - http://www.bohemiancoding.com/sketch -->
  <title
     id="title2">c++</title>
  <desc
     id="desc4">Created with Sketch.</desc>
  <defs
     id="defs6" />
  <g
     id="c++"
     stroke="none"
     stroke-width="1"
     fill="none"
     fill-rule="evenodd">
    <path
       d="M 16.122621,2.5044247 C 14.903861,2.4885117 13.989695,3.4768253 12.932993,3.9531824 10.230574,5.5198586 7.4921497,7.0371348 4.8146584,8.6386521 3.8160263,9.3930346 4.0208957,10.697489 4.0050365,11.794577 c 0.013293,3.383444 -0.026572,6.769056 0.020003,10.151144 0.1847878,1.331101 1.5110734,1.852429 2.5328949,2.439487 2.9248497,1.649871 5.8314287,3.348486 8.7646397,4.973798 1.432081,0.45658 2.59196,-0.770201 3.781485,-1.340308 2.666324,-1.581431 5.396408,-3.057837 8.051195,-4.655696 C 28.20644,22.563719 27.98174,21.192078 28,20.040461 c -0.01323,-3.335345 0.02653,-6.67299 -0.02,-10.006889 C 27.696089,8.3889035 25.862801,7.9669989 24.669557,7.148549 22.011827,5.6542379 19.403798,4.057424 16.722312,2.6145973 16.528282,2.5520233 16.325911,2.5170616 16.122621,2.5044247 Z m 0.319975,5.4995852 c 2.634358,0.1400024 5.161341,1.694764 6.478209,3.9784881 -1.150532,0.560849 -2.480389,1.761705 -3.552718,1.832137 -1.122964,-1.73946 -3.629094,-2.380347 -5.386117,-1.22975 -1.995328,1.084756 -2.641955,3.99068 -1.186656,5.769638 1.373673,1.95422 4.548894,2.159983 6.123045,0.339133 0.73697,-1.517084 2.200379,0.633904 3.307422,0.887874 1.490829,0.588766 -0.685643,2.062259 -1.344912,2.71885 -3.095808,2.485101 -8.052131,2.157365 -10.707094,-0.827943 C 7.525486,18.723286 7.2514981,14.042527 9.6796839,11.069855 11.266751,9.0290999 13.869456,7.8820356 16.442596,8.0040099 Z m 4.15865,5.9780641 c 0.440084,0 0.880169,0 1.320253,0 0,0.440085 0,0.88017 0,1.320255 0.453211,0 0.906422,0 1.359633,0 0,0.453213 0,0.906425 0,1.359638 -0.453211,0 -0.906422,0 -1.359633,0 0,0.439757 0,0.879513 0,1.31927 -0.440084,0 -0.880169,0 -1.320253,0 0,-0.439757 0,-0.879513 0,-1.31927 -0.453211,0 -0.906422,0 -1.359633,0 0,-0.453213 0,-0.906425 0,-1.359638 0.453211,0 0.906422,0 1.359633,0 0,-0.440085 0,-0.88017 0,-1.320255 z m 4.518996,0 c 0.440084,0 0.880168,0 1.320252,0 0,0.440085 0,0.88017 0,1.320255 0.439761,0 0.879521,0 1.319282,0 0,0.453213 0,0.906425 0,1.359638 -0.439761,0 -0.879521,0 -1.319282,0 0,0.439757 0,0.879513 0,1.31927 -0.440084,0 -0.880168,0 -1.320252,0 0,-0.439757 0,-0.879513 0,-1.31927 -0.439754,0 -0.879509,0 -1.319263,0 0,-0.453213 0,-0.906425 0,-1.359638 0.439754,0 0.879509,0 1.319263,0 0,-0.440085 0,-0.88017 0,-1.320255 z"
       id="path4020"
       fill="#444444"
       fill-rule="nonzero" />
  </g>
</svg>
