<?xml version="1.0" encoding="UTF-8" standalone="no"?>
<svg
   viewBox="0 0 32 32"
   version="1.1"
   id="svg965"
   xmlns="http://www.w3.org/2000/svg"
   xmlns:svg="http://www.w3.org/2000/svg">
  <defs
     id="defs969" />
  <path
     id="path959"
     style="fill:#529bba"
     d="M 14.599609 7.9003906 C 13.599609 7.9003906 12.599219 8.0003906 11.699219 8.4003906 C 10.799219 8.8003906 10.000781 9.3 9.3007812 10 C 8.6007813 10.7 8.0992187 11.5 7.6992188 12.5 C 7.2992187 13.5 7.0996094 14.600391 7.0996094 15.900391 C 7.0996094 17.200391 7.3007812 18.400781 7.8007812 19.300781 C 8.2007812 20.300781 8.6007812 21.3 9.3007812 22 C 10.000781 22.7 10.799219 23.2 11.699219 23.5 C 12.599219 23.8 13.599609 24 14.599609 24 C 15.599609 24 16.500781 23.800391 17.300781 23.400391 C 18.100781 23.000391 18.8 22.499219 19.5 21.699219 L 17.300781 19.199219 C 17.000781 19.599219 16.599219 19.899609 16.199219 20.099609 C 15.799219 20.299609 15.300781 20.400391 14.800781 20.400391 C 13.700781 20.400391 12.899219 19.999219 12.199219 19.199219 C 11.499219 18.499219 11.199219 17.400391 11.199219 15.900391 C 11.199219 15.200391 11.3 14.6 11.5 14 C 11.7 13.4 11.899219 12.999609 12.199219 12.599609 C 12.499219 12.199609 12.900781 11.899219 13.300781 11.699219 C 13.700781 11.499219 14.099609 11.400391 14.599609 11.400391 C 15.199609 11.400391 15.6 11.599219 16 11.699219 C 16.4 11.799219 16.699609 12.100391 17.099609 12.400391 L 19.300781 9.9003906 C 18.800781 9.4003906 18.100781 8.9 17.300781 8.5 C 16.500781 8.1 15.599609 7.9003906 14.599609 7.9003906 z M 20.699219 10.900391 L 20.300781 13.300781 L 18.800781 13.300781 L 18.800781 14.400391 L 20.099609 14.400391 L 19.900391 16 L 18.400391 16 L 18.400391 17.099609 L 19.599609 17.099609 L 19.199219 19.5 L 20.400391 19.5 L 20.800781 17.099609 L 21.800781 17.099609 C 21.800781 17.099609 21.300781 19.6 21.300781 19.5 L 22.5 19.5 L 22.900391 17.099609 L 24.5 17.099609 L 24.5 16 L 23.199219 16 L 23.400391 14.400391 L 25 14.400391 L 25 13.300781 L 23.699219 13.300781 L 24.099609 10.900391 L 22.900391 10.900391 L 22.5 13.300781 L 21.5 13.300781 L 21.900391 10.900391 L 20.699219 10.900391 z M 21.199219 14.5 L 22.199219 14.5 L 22 16.099609 L 21 16.099609 L 21.199219 14.5 z " />
</svg>
