<?xml version="1.0" encoding="UTF-8"?>
<svg width="32px" height="32px" viewBox="0 0 32 32" version="1.1" xmlns="http://www.w3.org/2000/svg" xmlns:xlink="http://www.w3.org/1999/xlink">
    <!-- Generator: Sketch 49.1 (51147) - http://www.bohemiancoding.com/sketch -->
    <title>c</title>
    <desc>Created with Sketch.</desc>
    <defs></defs>
    <g id="c" stroke="none" stroke-width="1" fill="none" fill-rule="evenodd">
        <path d="M16.1410918,2.50443147 C15.7405649,2.47771823 15.3533566,2.57182514 14.979543,2.7854509 C13.7779435,3.47970692 12.055703,4.46776656 9.81274516,5.74946574 C7.59646242,7.03115918 6.00752096,7.93884633 5.04626423,8.47288591 C4.72585805,8.68650212 4.45922178,8.97958066 4.24559222,9.35341142 C4.05859956,9.70053466 3.97828813,10.0612588 4.00500136,10.4350895 L4.00500136,16.0830805 L4.00500136,21.7300812 C4.00500136,22.0505084 4.11185431,22.3975057 4.32546479,22.7713307 C4.3407295,22.792377 4.35828391,22.8163616 4.37297619,22.8363966 C4.57305833,23.1460602 4.7839975,23.3838576 5.00699578,23.5325359 C10.7746506,26.8168767 14.03191,28.6724373 14.7795563,29.0996716 C15.1266948,29.3666895 15.5276032,29.5 15.9815374,29.5 C16.4354525,29.5 16.861853,29.3804201 17.2623989,29.1400983 C18.2236748,28.5793531 19.2391975,27.9922 20.307269,27.378057 C21.4020538,26.7372083 22.6028137,26.0422291 23.911209,25.2945734 C25.2463175,24.5469176 26.2745672,23.9597587 26.9955192,23.5325359 C27.262518,23.3723328 27.50267,23.1184444 27.7162996,22.7713155 C27.9299292,22.3974904 28.036763,22.0504874 28.036763,21.730066 L28.036763,10.2753348 C28.036763,9.98161324 27.9299101,9.63461593 27.7162996,9.2340853 C27.5026891,8.91364667 27.2625371,8.65977361 26.9955192,8.47286873 C22.2959741,5.77596336 19.0514416,3.90667793 17.2623989,2.8653063 C16.9419737,2.65168436 16.5685035,2.53111799 16.1412635,2.5044162 L16.1410918,2.50443147 Z M16.4615552,8.01240695 C17.0089476,8.03912019 17.5431551,8.12586188 18.0638533,8.2727179 C19.0785174,8.53973769 20.0126793,9.00631871 20.8671403,9.67386912 C21.7483146,10.3147178 22.4423054,11.0890906 22.949647,11.9969647 C21.9883711,12.584406 20.8405415,13.2519354 19.5054331,13.9995912 C19.211721,13.5456627 18.8382509,13.1457369 18.3843167,12.798608 C17.9303825,12.4514733 17.4363403,12.2240597 16.9023045,12.1172583 C16.1546392,11.9303419 15.4067449,11.9842645 14.6590796,12.2779765 C13.9114143,12.5716981 13.2978112,13.0255407 12.8171828,13.6396838 C12.3632868,14.2538325 12.0956774,14.9742904 12.0155377,15.8020554 C11.9621112,16.603109 12.1492947,17.3372937 12.576592,18.0048498 C12.7635846,18.351975 13.0036603,18.6597706 13.2973724,18.9267904 C13.6177976,19.1938197 13.9510834,19.420243 14.2982028,19.6071479 C14.6453223,19.7673701 15.0197846,19.8741982 15.4203114,19.9276113 C16.221365,20.0611203 16.9957245,19.9542673 17.7433898,19.6071479 C18.4910552,19.2333191 19.0654661,18.6990982 19.4659929,18.0048498 C20.5340644,18.6189928 21.69464,19.2865242 22.949647,20.0074782 C22.4422863,20.9153523 21.7620337,21.6897232 20.9075727,22.3305738 C20.0531117,22.9714224 19.1179767,23.438988 18.1032935,23.7327077 C17.0886293,23.9997427 16.0476336,24.0663923 14.979543,23.93287 C13.9114524,23.799361 12.9234061,23.4788308 12.0155377,22.971493 C10.787244,22.250539 9.8128978,21.2624756 9.09194572,20.0074782 C8.58460412,19.1263154 8.25034521,18.1784382 8.09014211,17.1637626 C7.95657593,16.1490889 7.99683659,15.1482813 8.21035167,14.1603095 C8.4506754,13.1456339 8.86432986,12.2242257 9.45177301,11.3964607 C10.0659103,10.5419959 10.8138237,9.83427829 11.694998,9.27353312 C12.6295605,8.68608615 13.6578293,8.29889878 14.7793082,8.11198817 C15.3533947,8.01853001 15.9140865,7.98571089 16.4614789,8.01240505 L16.4615552,8.01240695 Z" id="path4049" fill="#444444" fill-rule="nonzero"></path>
    </g>
</svg>