<svg id="Layer_1" xmlns="http://www.w3.org/2000/svg" viewBox="0 0 32 32"><style/><path d="M21.1 17c.5 1.7 1.7 6.3 1.7 6.3l4.1-.5v-6.5l-5.8.7zm-7 .7l-7.4.8v6.8l8.7-1.1zm6.2-6.6c-.2.4-.4.8-.7 1.1.2.7.4 1.3.6 2l6.6-.8s-1.6-2.7-3.8-4.1c-.8-.5-1.7-.9-2.4-1.1.2.7.2 1.7-.3 2.9zm-7.2 3.2c-1.2-.1-2.1-.6-2.8-1.4l-3.6 2.8 6.6-.8c-.1-.2-.1-.4-.2-.6zm4.7-2c-.1-.3-.1-.5.1-.7.2-.3.4-.6.6-1 .4-.9.5-1.9-.1-2.8-.6-1-1.5-1.3-2.6-1.1-.3 0-.4.3-.2.6l.9 1.8c0 .1.1.2-.1.2-.6.4-1.2.8-1.7 1.1-.1.1-.2.1-.3 0-.4-.4-.7-.8-1-1.2-.2-.2-.5-.4-.5-.4s-.3-.1-.4.1c-.5.8-.8 2.2-.2 3.1.5.8 1.2 1.2 2.1 1.2.2 0 .4 0 .5.3.2.9 2.3 9.6 2.5 10.9.1.6.5 1.1 1 1 .7-.1 1.5-.1 2.1-.7.4-.4.5-.8.4-1.3-.3-.6-2.7-9.7-3.1-11.1z" fill="#d33c45"/></svg>