<?xml version="1.0" encoding="UTF-8" standalone="no"?>
<svg
   viewBox="0 0 32 32"
   version="1.1"
   id="svg894"
   xmlns="http://www.w3.org/2000/svg"
   xmlns:svg="http://www.w3.org/2000/svg">
  <defs
     id="defs898" />
  <path
     id="path890"
     d="M 15.5 7 C 15.2 7 14.999219 7.0996094 14.699219 7.0996094 C 13.499219 7.1996094 12.400391 7.5992188 11.400391 8.1992188 C 10.400391 8.7992188 9.3992187 9.5996094 8.6992188 10.599609 C 7.9992188 11.599609 7.4992187 12.700391 7.1992188 13.900391 C 7.0992187 14.400391 7.1 14.800781 7 15.300781 L 7 16.5 C 7 16.8 7.1 16.999609 7 17.099609 C 7.1 18.399609 7.5992188 19.499609 8.1992188 20.599609 C 8.8992187 21.699609 9.6992188 22.600781 10.699219 23.300781 C 11.699219 24.000781 12.899609 24.500781 14.099609 24.800781 C 14.399609 24.900781 14.799219 24.9 15.199219 25 L 16.5 25 C 16.7 25 16.899609 24.900391 17.099609 24.900391 C 18.399609 24.800391 19.499609 24.299219 20.599609 23.699219 C 21.699609 22.999219 22.600781 22.199219 23.300781 21.199219 C 24.000781 20.199219 24.500781 19.000781 24.800781 17.800781 C 24.900781 17.500781 24.9 17.099219 25 16.699219 L 25 15.400391 C 25 15.100391 24.900391 14.899219 24.900391 14.699219 C 24.700391 13.199219 24.200781 11.899219 23.300781 10.699219 C 22.800781 9.8992188 22.200391 9.2992187 21.400391 8.6992188 C 20.400391 7.9992187 19.299609 7.4992187 18.099609 7.1992188 C 17.599609 7.0992187 17.199219 7.1 16.699219 7 L 15.5 7 z M 15.800781 8.5 C 20.100781 8.4 23.499609 11.800781 23.599609 15.800781 C 23.699609 20.100781 20.299609 23.599609 16.099609 23.599609 C 11.999609 23.599609 8.6 20.299219 8.5 16.199219 C 8.4 11.899219 11.800781 8.6 15.800781 8.5 z M 16.019531 10.074219 C 15.977637 10.073193 15.937891 10.080859 15.900391 10.099609 C 15.600391 10.099609 15.5 10.299609 15.5 10.599609 L 15.5 17.099609 C 15.5 17.399609 15.899219 17.600391 16.199219 17.400391 C 16.599219 17.100391 16.900781 16.899609 17.300781 16.599609 C 18.000781 15.999609 18.8 15.5 19.5 15 C 19.8 14.8 20.2 14.500781 20.5 14.300781 C 20.7 14.100781 20.799609 13.799609 20.599609 13.599609 C 20.399609 13.399609 20.100391 13.3 19.900391 13.5 C 19.900391 13.6 19.799219 13.599219 19.699219 13.699219 C 18.899219 14.299219 17.999609 14.9 17.099609 15.5 C 16.899609 15.7 16.600391 15.8 16.400391 16 L 16.400391 10.5 C 16.400391 10.25625 16.201074 10.078662 16.019531 10.074219 z " />
</svg>
