<svg id="svg2" xmlns="http://www.w3.org/2000/svg" viewBox="0 0 32 32"><style>.st0{fill:#231f20}</style><path id="path10" class="st0" d="M15.7 16.4l-.3.6c-.4.8-.8 1.8-.9 2.5-.1.2-.1.5-.1.8v.4c.5.2 1.1.3 1.6.3s1-.1 1.5-.2l-.3-.3c-.5-.9-.9-2.1-1.5-4.1"/><path id="path12" class="st0" d="M13.4 12.3c-1.2.9-2 2.3-2 3.9s.8 3 2 3.9c.3-1.2 1-2.3 2.1-4.6-.1-.2-.1-.4-.2-.6-.3-.8-.7-1.6-1.1-2.1-.3-.1-.6-.3-.8-.5"/><path id="path14" class="st0" d="M20.3 21.7c-.6-.1-1.2-.2-1.6-.3-.8.4-1.6.6-2.5.6-3.2 0-5.7-2.6-5.7-5.7 0-1.7.8-3.2 1.9-4.3-.3-.1-.7-.1-1-.1-1.7 0-3.4.9-4.2 3.5-.1.4-.1.6-.1 1 0 5 4 9 9 9 3 0 5.7-1.5 7.4-3.8-.9.2-1.7.3-2.5.3-.3-.2-.5-.2-.7-.2"/><path id="path18" class="st0" d="M16.1 7.2c-3 0-5.7 1.5-7.3 3.8.8-.5 1.7-.7 2.5-.7 1 0 1.9.3 2.3.5.1.1.2.1.3.2.7-.3 1.5-.5 2.3-.5 3.2 0 5.7 2.6 5.7 5.7 0 1.6-.7 3-1.7 4.1h.8c1 0 2.1-.2 2.9-.9.5-.4 1-1.1 1.2-2.1 0-.4.1-.8.1-1.1-.1-5-4.1-9-9.1-9"/></svg>