<svg xmlns="http://www.w3.org/2000/svg" viewBox="0 0 1200 1000"><path d="M723.4 621.3c-26.8 25.7-53 50.8-79 76.1-6.3 6.1-9.5 1.7-13.6-2.3-48.1-46.2-96.3-92.4-144.4-138.6-3.7-3.5-7.4-6.9-11.9-11.2-20.9 19.9-41.3 39.2-61.6 58.7-31.1 29.9-62.4 59.8-93.2 90-6.9 6.8-11.4 7.4-18.7.1-24.5-24.4-49.7-48.1-79-76.3 6.7-4.7 13.7-8.2 19.2-13.4 75.1-71.7 150.1-143.6 224.9-215.8 6.3-6 10-6.7 16.6-.3 77.8 75.1 155.9 149.9 233.9 224.9 2.4 2.3 4.3 5 6.8 8.1zm4.9-321.7C812.1 380 894.7 459.2 978 539.2c-28.6 27.6-56.6 54.4-85.4 82.2-55-52.6-109.5-104.8-164.3-157.4-19.5 18.6-38.2 36.5-57.9 55.3-28.8-27.6-56.7-54.3-85.5-81.9 48.2-46.4 95.2-91.6 143.4-137.8z"/></svg>