<?xml version="1.0" encoding="UTF-8"?>
<svg width="32px" height="32px" viewBox="0 0 32 32" version="1.1" xmlns="http://www.w3.org/2000/svg" xmlns:xlink="http://www.w3.org/1999/xlink">
    <!-- Generator: Sketch 49.1 (51147) - http://www.bohemiancoding.com/sketch -->
    <title>coffeescript</title>
    <desc>Created with Sketch.</desc>
    <defs></defs>
    <g id="coffeescript" stroke="none" stroke-width="1" fill="none" fill-rule="evenodd">
        <path d="M19.0451517,5.00006281 C18.705552,4.99886441 18.3446131,5.01479304 17.96258,5.04980648 C14.040286,5.4063696 14.0657671,7.21466634 11.3915504,7.44391573 C10.2963754,7.54585363 9.68508515,7.29109736 9.58325365,6.85808193 C9.50680023,6.42517515 10.0416449,6.22143151 10.6784253,6.17046256 C11.2641303,6.11949473 11.977364,6.22143151 12.3084416,6.39971307 C12.563069,6.27240046 12.6395224,6.14497808 12.6140346,5.99218212 C12.5122087,5.58465004 11.6971434,5.4063696 10.6784253,5.4828219 C8.69185032,5.66110347 8.69184808,6.55251016 8.76819174,6.93455664 C8.97195442,7.95316618 10.5001459,8.64102524 12.3847852,8.46274367 C15.0336283,8.23349428 15.7976115,6.52702568 18.9048459,6.24691598 C20.4330352,6.11949473 21.4008942,6.42519755 21.5027201,6.96004111 C21.6045516,7.4694002 20.840565,7.80047773 19.9236739,7.87693116 C18.6502229,8.00424377 18.115376,7.54583123 18.0134403,7.1128158 C17.0710658,7.21464394 16.918271,7.62219729 16.9692366,7.90241563 C17.0710681,8.4372592 18.2172064,8.97210277 20.1782991,8.7938212 C22.394129,8.61554076 23.1327341,7.74948751 22.9544548,6.85808193 C22.7538606,5.85530471 21.4223523,5.00845608 19.0451517,5.00006281 Z M5.15170803,7.06186925 C3.72535025,7.62219729 2.96125505,8.0806972 2.96125505,8.7938212 C3.03770848,9.58329 4.31116389,10.3728686 6.90892606,10.9841655 C9.35400314,11.5953539 12.4867242,11.9264303 16.2561126,11.9264303 C20.1019532,11.9264303 23.1582209,11.5953539 25.6032979,10.9841655 C28.2010612,10.3728686 29.4490311,9.55791528 29.4490311,8.7938212 C29.4490311,8.23349316 28.888703,7.6986496 27.8699848,7.29111864 C28.0992353,7.44391573 28.2775158,7.6986496 28.2775158,7.9787593 C28.2775158,8.76833785 27.1058896,9.40500956 24.7372671,9.93985312 C22.5469239,10.4238375 19.7453934,10.754915 16.3325649,10.754915 C13.0469414,10.754915 10.1180972,10.4238375 8.00409879,9.9653376 C5.7374119,9.40500956 4.5403024,8.79382232 4.5403024,8.00424377 C4.5403024,7.67316512 4.69320701,7.39294678 5.15170803,7.06186925 Z M3.16502109,11.1369615 C3.3762564,12.5627212 3.73123585,13.947368 4.19793639,15.269717 C3.64414019,15.604187 3.14108781,16.0565145 2.68114647,16.6382827 C1.81522537,17.7334544 1.43317778,19.006819 1.50952144,20.2548975 C1.58597486,21.5028662 2.19716321,22.5215844 3.16502109,23.3111629 C4.18373927,24.1006295 5.27891088,24.3298598 6.52698934,24.1006093 C7.01086284,24.0242657 7.54570864,23.7695531 8.02958214,23.616756 C7.01086508,23.616756 6.14494286,23.2856785 5.27891088,22.5980378 C4.33664724,21.9102863 3.69986466,20.9425382 3.54706757,19.7709131 C3.31781706,18.6757415 3.54706757,17.6570211 4.15836456,16.7656166 C4.29360341,16.5953151 4.4367573,16.4398367 4.58833919,16.2986955 C4.93709031,17.1572828 5.33173791,17.9857242 5.76289526,18.7776794 C6.70526978,20.2039274 7.64753566,21.451876 8.58991018,22.8017814 C8.99744114,23.5912536 9.2775486,24.3808501 9.4558324,25.1704275 C10.0671294,26.0363486 10.9586458,26.5966554 12.0537066,26.9022495 C13.403612,27.386123 14.8043745,27.5899115 16.2307367,27.5135678 L16.3834241,27.5135678 C17.8096732,27.5899115 19.3124855,27.3606397 20.6877679,26.9022495 C21.706485,26.571172 22.5724083,26.0363486 23.2091887,25.1704275 L23.2855324,25.1704275 C23.4383294,24.3807403 23.6930678,23.5912536 24.0751109,22.8017814 C25.0174854,21.451876 25.9598611,20.2039274 26.9021258,18.7776794 C28.1500934,16.5108828 29.0161265,13.913115 29.5,11.1369615 C28.9906431,11.8500855 27.8190192,12.4613847 25.7051261,12.9452582 C23.260049,13.5055852 20.1274421,13.8876328 16.3579407,13.8876328 C12.5122087,13.8876328 9.37949097,13.4801029 6.93441053,12.9452582 C4.74406843,12.3849313 3.5726618,11.7736321 3.16502109,11.1369615 Z" id="path4828" fill="#444444" fill-rule="nonzero"></path>
    </g>
</svg>