<?xml version="1.0" encoding="UTF-8" standalone="no"?>
<svg
   width="32px"
   height="32px"
   viewBox="0 0 32 32"
   version="1.1"
   id="svg10"
   sodipodi:docname="coffeescript.svg"
   xmlns:inkscape="http://www.inkscape.org/namespaces/inkscape"
   xmlns:sodipodi="http://sodipodi.sourceforge.net/DTD/sodipodi-0.dtd"
   xmlns="http://www.w3.org/2000/svg"
   xmlns:svg="http://www.w3.org/2000/svg">
  <sodipodi:namedview
     id="namedview12"
     pagecolor="#ffffff"
     bordercolor="#666666"
     borderopacity="1.0"
     inkscape:pageshadow="2"
     inkscape:pageopacity="0.0"
     inkscape:pagecheckerboard="0" />
  <!-- Generator: Sketch 49.1 (51147) - http://www.bohemiancoding.com/sketch -->
  <title
     id="title2">coffeescript</title>
  <desc
     id="desc4">Created with Sketch.</desc>
  <defs
     id="defs6" />
  <g
     id="coffeescript"
     stroke="none"
     stroke-width="1"
     fill="none"
     fill-rule="evenodd">
    <path
       d="M 19.045152,5.0000628 C 17.107993,4.9585235 15.163841,5.4993212 13.611659,6.6796759 12.543721,7.3579141 11.125651,7.731022 9.9113933,7.2606115 8.8368791,6.0253871 11.590387,5.9291229 12.308442,6.3997131 13.232788,5.3659716 10.691469,5.3317002 10.022849,5.5807176 8.1873303,5.6724459 8.6174906,8.0801836 10.196934,8.2442177 12.114335,8.8887221 14.165923,8.2152129 15.818077,7.1904557 17.386087,6.3658136 19.314748,5.88824 21.038929,6.4657678 22.440558,7.5559242 19.784231,8.1604579 18.936873,7.8433376 18.226605,7.5484399 17.587506,6.5874011 16.978371,7.6751431 17.23926,8.9939374 19.100006,8.8312884 20.178299,8.7938212 21.267474,8.7034578 22.957561,8.3988067 22.977001,7.0247616 22.697263,5.3097866 20.444326,5.0214725 19.045152,5.0000628 Z M 5.151708,7.0618692 C 4.048969,7.2896852 2.0209818,8.6017356 3.5589636,9.6726127 5.4469941,10.903049 7.7702863,11.183713 9.9470493,11.550893 14.49242,12.090722 19.124155,12.086971 23.652105,11.38924 25.510888,10.993877 27.552142,10.741795 29.080307,9.5172925 30.328369,8.6652092 28.167561,7.1855789 28.030377,7.4236333 28.873211,8.6155831 27.025543,9.3072392 26.120107,9.5737095 21.62848,10.829667 16.889138,10.928104 12.263412,10.581858 9.8137249,10.295905 7.19698,10.129936 5.0386076,8.8239861 4.311078,8.3828316 4.4477365,7.4522696 5.151708,7.0618692 Z M 3.1650211,11.136962 c 0.030416,1.422401 0.9807727,3.079836 0.8276054,4.263728 -2.1802846,1.418172 -3.34718592,4.667676 -1.7565853,6.925523 1.094878,1.696439 3.4097812,2.333689 5.2330553,1.490656 C 8.7060605,23.4867 5.9784131,23.569094 5.6039664,22.839239 3.5316867,21.64281 2.7243857,18.559977 4.2612858,16.640662 c 0.6832342,-0.693866 0.8666198,1.482467 1.4211976,1.988099 0.9492103,1.598375 2.2249968,2.993065 3.1233925,4.617111 0.5109917,0.931155 0.4436721,2.171834 1.4518401,2.77247 1.566209,1.096369 3.556626,1.469467 5.439385,1.510724 2.23591,0.03301 4.638695,-0.119612 6.551129,-1.401575 0.969761,-0.539151 1.191997,-1.442031 1.449449,-2.437537 0.531733,-1.458041 1.684253,-2.570125 2.497726,-3.871641 1.818924,-2.549461 2.732805,-5.634386 3.304592,-8.681351 -1.239935,1.412542 -3.256727,1.660234 -4.991167,2.057114 C 18.944053,14.165189 13.193008,14.128957 7.6402384,13.092095 6.1105752,12.728483 4.4064982,12.402028 3.2504664,11.256034 Z"
       id="path4828"
       fill="#444444"
       fill-rule="nonzero" />
  </g>
</svg>
