<?xml version="1.0" encoding="UTF-8"?>
<svg width="512" height="512" version="1.1" xmlns="http://www.w3.org/2000/svg">
 <path d="m376.84 245.46c-22.732 60.5-60.908 124.54-60.908 124.54h-43.398c9.9885-15.667 85.763-143.5 67.298-198.32-6.5235-19.367-22.669-42.845-41.121-68.681l43.412 0.7146c52.305 73.683 88.756 166.42 120.54 266.29h-40.298c-13.866-45.084-28.229-88.81-45.521-124.54zm135.16 10.536c0 141.38-114.62 256-256 256s-256-114.62-256-256 114.62-256 256-256 256 114.62 256 256zm-324.58-110.33s-39.916 62.834-61.913 124.33c-17.292-35.726-31.655-79.452-45.521-124.54h-40.298c31.78 99.866 68.231 193.6 120.54 267.29l43.412 0.7146c-18.452-25.836-33.641-50.641-41.121-69.681-17.593-44.781 53.274-175.02 69.388-198.12m267.46 110.34c0-134.4-108.96-243.36-243.36-243.36-40.287 0-78.286 9.7918-111.75 27.122 139.8-11.352 190.45 144.68 106.71 223.69-30.305 28.593-48.95 84.301-30.512 134.17 15.774 42.664 64.767 89.329 130.52 82.414 87.258-36.978 148.39-123.36 148.39-224.03z" stroke-width="1.0165"/>
</svg>
