<?xml version="1.0" encoding="UTF-8"?>
<svg width="32px" height="32px" viewBox="0 0 32 32" version="1.1" xmlns="http://www.w3.org/2000/svg" xmlns:xlink="http://www.w3.org/1999/xlink">
    <!-- Generator: Sketch 49.1 (51147) - http://www.bohemiancoding.com/sketch -->
    <title>config</title>
    <desc>Created with Sketch.</desc>
    <defs></defs>
    <g id="config" stroke="none" stroke-width="1" fill="none" fill-rule="evenodd">
        <path d="M27.6822837,17.4638377 L27.3150063,17.3005272 C27.2062105,17.2460774 27.0836563,17.1916406 26.9473438,17.1372168 C26.8112867,17.0555485 26.6751914,17.0011182 26.5390578,16.9739257 C26.430262,16.9467203 26.3213397,16.9194954 26.212291,16.892251 L26.212291,16.1981406 C26.212291,15.953162 26.1986559,15.7217931 26.1713856,15.5040341 C26.1441153,15.2862661 26.1304802,15.0685071 26.1304802,14.8507572 L26.1304802,14.1566468 C26.1304802,14.1294414 26.1441153,14.1022165 26.1713856,14.0749721 L26.212291,13.9932974 L26.2940824,13.9932974 L26.661743,13.8707951 L26.9885137,13.6666317 C27.0973096,13.612182 27.2197347,13.5577451 27.3557892,13.5033213 C27.491845,13.4488715 27.6143985,13.3944346 27.7234498,13.3400108 C27.8595068,13.285561 27.9819327,13.2039012 28.0907272,13.0950315 C28.1995231,12.9589225 28.2675516,12.8500385 28.2948128,12.7683794 C28.3220831,12.6595057 28.3357182,12.5506217 28.3357182,12.4417273 C28.3357182,12.3056184 28.3084544,12.155908 28.2539268,11.9925962 C28.1178698,11.7476175 28.0089468,11.5162487 27.927158,11.2984897 C27.8726304,11.0807217 27.7909707,10.8629614 27.6821787,10.6452089 L27.3149013,9.95110436 C27.2061054,9.73333631 27.1244457,9.51557538 27.0699219,9.29782159 C26.9338662,9.18896091 26.8249439,9.08007688 26.7431551,8.97116951 C26.6886275,8.83506188 26.5933365,8.7534021 26.457282,8.72619017 C26.3484862,8.69898473 26.2259313,8.68538201 26.0896175,8.68538201 C25.9535618,8.68538201 25.8311366,8.7126069 25.7223421,8.7670567 C25.6135462,8.82150649 25.4911211,8.88956095 25.3550666,8.97122008 C25.2190108,9.02566988 25.096585,9.0801067 24.9877892,9.13453056 L24.6205137,9.29784104 L24.2937469,9.46115152 L24.1714585,9.46115152 L24.0896671,9.46115152 C24.0623968,9.46115152 24.035133,9.4475488 24.0078757,9.42034336 L23.9260843,9.37951574 C23.8172885,9.27064208 23.7356287,9.17537634 23.681105,9.0937185 C23.6538347,9.0120503 23.5858068,8.93039052 23.4770214,8.84873917 L23.2320128,8.56296722 L23.0279273,8.35880578 C22.8918715,8.30435599 22.7965805,8.23630153 22.7420542,8.1546424 C22.7147839,8.07297419 22.6467554,8.00491973 22.5379686,7.95047901 L22.2929893,7.78716853 C22.2111914,7.70550032 22.1159003,7.62384054 22.0071162,7.54218919 L22.1703099,7.17472116 C22.2248375,7.06584751 22.2792355,6.94335752 22.3335037,6.80725119 L22.5375893,6.39895359 C22.5921169,6.26284596 22.6465148,6.12674547 22.7007831,5.9906521 C22.7553107,5.82733254 22.7689458,5.67762349 22.7416885,5.54152494 C22.7416885,5.40541731 22.7144247,5.26931682 22.6598971,5.13322345 C22.6326268,4.99711453 22.550967,4.8882305 22.4149178,4.80657137 C22.3061219,4.69771069 22.1700272,4.61605091 22.0066338,4.56159204 C21.7887879,4.45271838 21.5574139,4.35745329 21.3125117,4.27579675 C21.0946659,4.19412854 20.8905161,4.11246812 20.7000624,4.03081547 C20.5094803,3.94914726 20.2917253,3.88109345 20.0467971,3.82665403 C19.8289513,3.77220423 19.6520128,3.69054445 19.5159817,3.58167469 C19.2711314,3.5272249 19.0669822,3.5 18.9035343,3.5 C18.7674773,3.5 18.6313819,3.5272249 18.4952484,3.58167469 C18.3864525,3.63612449 18.2775296,3.71778426 18.1684796,3.82665403 C18.086954,3.93552768 18.0189255,4.07162688 17.964394,4.23495162 C17.9098664,4.37105925 17.8554685,4.50715845 17.8012002,4.64324922 C17.7466726,4.77935685 17.6922747,4.90184684 17.6380065,5.0107192 C17.5834789,5.11957988 17.5425864,5.22846391 17.5153291,5.33737128 C17.4880588,5.44624493 17.447296,5.55512896 17.3930407,5.66402336 C17.1481891,5.71847316 16.9304334,5.74569805 16.7397735,5.74569805 L16.0456379,5.74569805 C15.8007863,5.74569805 15.5694122,5.75930726 15.3515158,5.78652567 C15.1336699,5.81374409 14.9023089,5.82735329 14.6574326,5.82735329 C14.6301753,5.82735329 14.6029115,5.81374409 14.5756412,5.78652567 C14.548371,5.75930726 14.5347358,5.73208236 14.5347358,5.70485098 L14.5347358,5.66404281 L14.3715421,5.33739073 C14.3170145,5.22851708 14.2489859,5.10602773 14.1674565,4.9699227 C14.1129289,4.80660314 14.0585309,4.67050329 14.0042627,4.56162316 L13.8410689,4.23497107 C13.7865413,4.09886345 13.7048809,3.98997942 13.5960876,3.90831899 C13.4872918,3.79944534 13.3783695,3.73139153 13.2693208,3.70415755 C13.1605249,3.67693914 13.0379708,3.66332993 12.9016583,3.66332993 C12.7928624,3.66332993 12.6567671,3.69055483 12.4933723,3.74500462 C12.2755265,3.85386531 12.0441531,3.9491304 11.7992522,4.03079991 C11.5814064,4.11246812 11.3636513,4.20773386 11.145987,4.31659714 C10.9281411,4.42547079 10.7103854,4.52073589 10.4927197,4.60239242 C10.2748752,4.68406063 10.0435018,4.79294466 9.79859963,4.92904451 C9.68980378,4.9834943 9.58088085,5.06515408 9.47183084,5.17402384 C9.36303499,5.2828975 9.29500647,5.39178152 9.26774526,5.50067592 C9.24047498,5.60954958 9.22683984,5.7184336 9.22683984,5.82732801 C9.22683984,5.93620166 9.25410364,6.08591201 9.30863123,6.27645906 L9.47182501,6.60311114 C9.52635261,6.73922006 9.58075053,6.87532056 9.63501878,7.01141263 C9.68954638,7.12028628 9.74394431,7.24277627 9.79821256,7.3788826 L9.96140633,7.66467983 L9.96140633,7.82799031 L9.96140633,7.90966501 C9.96140633,7.93687045 9.94777119,7.95047317 9.92050091,7.95047317 C9.89323063,7.95047317 9.87959548,7.97769807 9.87959548,8.03214787 C9.82506789,8.08659766 9.75703871,8.14103449 9.67550796,8.19545835 C9.59372304,8.24990814 9.52569452,8.30434497 9.47142237,8.35876883 L9.3082286,8.56293027 L9.14503483,8.68543258 L8.85915979,9.01208466 C8.77737488,9.09375287 8.68208385,9.18901796 8.5732867,9.29787995 C8.49176113,9.4067536 8.41010136,9.50201934 8.32830737,9.58367718 L8.04243428,9.86947246 C7.93363843,9.81502267 7.79753015,9.78779777 7.63410945,9.78779777 C7.49805239,9.76059232 7.37549821,9.71975822 7.26644691,9.66529546 C7.15765106,9.58362725 7.0352259,9.51557279 6.89917144,9.46113207 C6.76311438,9.40668228 6.62701908,9.35224545 6.49088551,9.29782159 C6.32756466,9.2433718 6.17785042,9.2161469 6.04174279,9.2161469 C5.90568574,9.2161469 5.76959043,9.2433718 5.63345687,9.29782159 C5.49739981,9.35227139 5.38847753,9.44753713 5.30669002,9.58361882 C5.22490511,9.69249248 5.15687658,9.81498182 5.10260444,9.95108686 C4.99380859,10.1960668 4.88488566,10.4274357 4.77583565,10.6451934 C4.69431008,10.8357248 4.62628156,11.0398746 4.57175007,11.2576427 C4.51722247,11.4481729 4.44919394,11.652322 4.36766449,11.87009 C4.28613892,12.0606202 4.19084789,12.2647693 4.0817914,12.4825374 C4.0272638,12.6730689 4,12.8499996 4,13.0133295 C4,13.1766504 4.0272638,13.3127496 4.0817914,13.4216271 C4.136319,13.5305008 4.21797877,13.6529908 4.32677073,13.7890971 C4.43556658,13.8979708 4.57167486,13.9660252 4.73509556,13.9932605 C4.87115262,14.0477103 5.00724857,14.1157641 5.14338343,14.1974219 C5.27943919,14.2518717 5.40199272,14.2926993 5.51104403,14.3199048 C5.61983988,14.3471102 5.72876281,14.3879443 5.83781282,14.4424071 L6.20508828,14.6057176 C6.25961588,14.8234856 6.28687968,15.0412446 6.28687968,15.2589945 L6.28687968,15.953101 C6.28687968,16.1708691 6.30051482,16.3886293 6.3277851,16.6063818 C6.35505539,16.796912 6.36869053,17.0010611 6.36869053,17.2188292 L6.36869053,17.3413315 C6.36869053,17.3685499 6.35505539,17.3821591 6.3277851,17.3821591 C6.30051482,17.3821591 6.25962236,17.3957619 6.20510773,17.4229673 L6.20510773,17.4637755 L5.83783227,17.627086 C5.72903642,17.6815357 5.60661126,17.7495902 5.4705568,17.8312493 C5.33449975,17.8856991 5.21207394,17.940136 5.10327939,17.9945598 L4.73561685,18.1578703 C4.57229729,18.2123201 4.44987213,18.2803746 4.36834138,18.3620337 C4.28681581,18.4437019 4.23241789,18.5525859 4.20514761,18.6886858 C4.17787732,18.8247934 4.16424218,18.9472827 4.16424218,19.0561538 C4.16424218,19.1650275 4.19150598,19.3147365 4.24603358,19.505281 C4.35482943,19.723049 4.45012046,19.9408093 4.53190667,20.1585618 C4.61369158,20.3763298 4.70898261,20.6076987 4.81777976,20.8526683 C4.95383681,21.0704363 5.06275909,21.2881966 5.1445466,21.5059491 C5.22633151,21.7237172 5.32162254,21.9414761 5.43041969,22.159226 C5.48494729,22.2680997 5.56660772,22.3769837 5.67540097,22.4858781 C5.78419682,22.5675463 5.89311975,22.6356001 6.00216976,22.6900396 C6.13822552,22.7444894 6.2471478,22.7717143 6.3289366,22.7717143 C6.43773245,22.7717143 6.58743373,22.7444894 6.77804042,22.6900396 L7.10480727,22.5267291 C7.24086432,22.4722793 7.36328948,22.4178425 7.47208273,22.3634186 C7.60813979,22.2817504 7.74423574,22.2136959 7.8803706,22.1592552 L8.20713745,21.9959447 L8.3294258,21.9959447 L8.41121719,21.9959447 L8.45212262,21.9959447 L8.53391401,22.0776194 L8.7788953,22.3225988 L8.98297893,22.5267621 L9.26885202,22.8125574 C9.32337962,22.8942256 9.39140815,22.9894914 9.47293761,23.0983547 C9.5274652,23.1528045 9.59549373,23.2072413 9.67702319,23.2616651 C9.75854876,23.3161149 9.84020853,23.3977747 9.92200252,23.5066445 C10.0035281,23.5883127 10.0851879,23.6563665 10.1669819,23.7108059 C10.2757777,23.7652557 10.3574375,23.8196925 10.4119612,23.8741164 C10.3574336,24.037436 10.3166708,24.1735352 10.2896728,24.282414 C10.2624026,24.3912876 10.2080046,24.5273881 10.1264791,24.6907155 C10.0719515,24.8268244 10.0175535,24.9493144 9.9632853,25.0581855 C9.9087577,25.1670591 9.85435977,25.3031583 9.80009152,25.4664831 C9.74556393,25.6298026 9.71830013,25.7795123 9.71830013,25.9156122 C9.71830013,26.0517198 9.74556393,26.187819 9.80009152,26.3239098 C9.85461912,26.4327834 9.9362789,26.5416674 10.0450709,26.6505618 C10.1811266,26.7594355 10.3308402,26.8410959 10.4942116,26.8955431 C10.7120562,26.9499929 10.9162053,27.0180467 11.106659,27.0997046 C11.2972411,27.1813728 11.5013908,27.2630326 11.7191083,27.3446839 C11.9639599,27.4263521 12.181715,27.5216172 12.3723736,27.6304792 C12.5629569,27.7121474 12.7671067,27.7802019 12.9848229,27.8346426 C13.175405,27.9435162 13.3523298,27.9979531 13.5155975,27.9979531 C13.6789184,27.9979531 13.8150266,27.9707282 13.9239223,27.9162784 C14.0327182,27.8618286 14.1416411,27.7801681 14.2506911,27.6712971 C14.359487,27.5351895 14.4411474,27.3718699 14.4956724,27.1813384 L14.6588662,26.8138704 C14.7403918,26.7049967 14.7947897,26.5825067 14.82206,26.4464004 C14.8493302,26.2830795 14.8902292,26.1469803 14.9447568,26.0381028 L15.1079506,25.7114507 L15.7612547,25.7114507 C16.0061063,25.7114507 16.2374674,25.697848 16.4553379,25.6706426 C16.6731837,25.6434371 16.8909518,25.6298344 17.108642,25.6298344 L17.7210914,25.6298344 L17.8437882,25.6298344 C17.8710585,25.6298344 17.8846936,25.6434371 17.8846936,25.6706426 C17.9119639,25.697848 17.925599,25.7114507 17.925599,25.7114507 C17.9528693,25.7114507 17.9665044,25.7386756 17.9665044,25.7931254 L18.1296982,26.1197775 C18.1842258,26.2286382 18.2386237,26.3647387 18.292892,26.528079 C18.3744176,26.6641866 18.4424454,26.7866766 18.4969756,26.895549 L18.619264,27.222201 C18.6737916,27.3310747 18.7418208,27.453564 18.8233515,27.5896691 C18.9321474,27.6985427 19.0410696,27.7665972 19.1501184,27.7938325 C19.2589142,27.8210379 19.3813394,27.8346406 19.5173938,27.8346406 C19.6534509,27.8346406 19.7758767,27.8074157 19.8846712,27.7529659 C20.1840997,27.616857 20.442698,27.507973 20.660466,27.4263139 C20.8783106,27.3446456 21.109671,27.2629852 21.3545472,27.1813326 L22.0078534,26.8138645 C22.2256979,26.7049909 22.4570583,26.6233311 22.7019346,26.5688852 C22.8107304,26.5144354 22.9060221,26.4327756 22.9878096,26.3239059 C23.0695945,26.1877969 23.1376224,26.065307 23.1918932,25.9564359 C23.2464208,25.8475622 23.2736846,25.7250722 23.2736846,25.5889659 C23.2736846,25.4528583 23.2464208,25.3303689 23.1918932,25.2214979 C23.1373656,25.1126242 23.0829677,24.976525 23.0286995,24.8132003 C22.9741719,24.6770914 22.9061433,24.554602 22.8246139,24.4457323 L22.7023255,24.1190802 L22.5391318,23.7924281 L22.5391318,23.6291176 L22.5391318,23.5474429 L22.5391318,23.5066348 C22.5391318,23.4794163 22.5663956,23.4521914 22.6209232,23.4249601 C22.6754508,23.3160864 22.7434793,23.2344273 22.8250087,23.1799827 C22.9067936,23.1255329 22.9884534,23.0574784 23.0699881,22.9758193 L23.3149674,22.7308399 C23.396493,22.6491717 23.5054159,22.5811179 23.6417362,22.5266785 C23.6962638,22.3905696 23.7506617,22.2953038 23.80493,22.2408813 L24.0090156,22.0367198 C24.0908134,21.98227 24.158842,21.9142156 24.2131011,21.8325564 C24.2676287,21.7236828 24.3220267,21.642023 24.3762949,21.5875771 L24.4580863,21.5875771 C24.5668822,21.6420269 24.6758051,21.682861 24.7848551,21.7100794 C24.9209109,21.7372849 25.0570191,21.7917217 25.1931799,21.8733899 C25.3292357,21.9278397 25.4516608,21.9822765 25.5604554,22.0367004 C25.6692512,22.0639188 25.8053472,22.1047529 25.9687433,22.1592027 C26.1320615,22.2136525 26.2817751,22.2408774 26.417884,22.2408774 C26.5812036,22.2408774 26.7172989,22.2272747 26.82617,22.2000692 C26.9349658,22.1456194 27.0438887,22.0639596 27.1529388,21.9550899 C27.2617346,21.818981 27.3433944,21.6692719 27.3979181,21.5059627 C27.4524457,21.2881947 27.5204736,21.0840455 27.6020017,20.8935154 C27.7107976,20.6757473 27.8060893,20.457987 27.8878768,20.2402345 C27.9694023,20.0224665 28.0510615,19.8183161 28.1328542,19.6277833 C28.2143797,19.4100152 28.2824082,19.1922569 28.3369397,18.9745083 C28.4457356,18.7839768 28.5001335,18.6070474 28.5001335,18.44372 C28.5001335,18.2804005 28.4728697,18.1443 28.4183421,18.0354186 C28.3638145,17.8993096 28.2821547,17.7904256 28.1733628,17.7087665 C28.0645669,17.5998928 27.9012467,17.518233 27.6834022,17.4637871 L27.6822837,17.4638377 Z M18.2097585,20.2402695 C17.6109028,20.5124705 16.9848352,20.6757901 16.3315557,20.7302282 C15.6782775,20.7574337 15.0386175,20.6485496 14.4125759,20.4035761 C13.8137202,20.1313751 13.269313,19.7775157 12.7793543,19.3419977 C12.3166322,18.8792575 11.9355576,18.3484686 11.6361304,17.7496311 C11.3639398,17.1235725 11.2278445,16.4839035 11.2278445,15.830624 C11.2278445,15.1773484 11.3367668,14.5649016 11.5546113,13.9932838 C11.7994616,13.3944437 12.1397197,12.8364338 12.5753855,12.3192542 C13.0381063,11.8020771 13.5688945,11.407388 14.1677502,11.135187 C14.8482403,10.8629886 15.5151252,10.7268894 16.1684047,10.7268894 C16.8216829,10.7268894 17.434131,10.8493788 18.0057488,11.0943575 C18.6045785,11.3121255 19.135368,11.6523745 19.5981174,12.1151044 C20.0880747,12.5506249 20.4827677,13.067804 20.7821961,13.6666415 C21.0543868,14.3471394 21.204088,15.0140275 21.2313,15.6673057 C21.2585702,16.320584 21.1360161,16.9466418 20.8636374,17.5454793 C20.6187858,18.1170984 20.2785407,18.6342781 19.8429022,19.0970184 C19.4346026,19.5597586 18.8902078,19.9408372 18.2097176,20.240254 L18.2097585,20.2402695 Z" id="path138" fill="#444444" fill-rule="nonzero"></path>
    </g>
</svg>