<?xml version="1.0" encoding="UTF-8" standalone="no"?>
<svg
   width="32px"
   height="32px"
   viewBox="0 0 32 32"
   version="1.1"
   id="svg10"
   sodipodi:docname="config.svg"
   xmlns:inkscape="http://www.inkscape.org/namespaces/inkscape"
   xmlns:sodipodi="http://sodipodi.sourceforge.net/DTD/sodipodi-0.dtd"
   xmlns="http://www.w3.org/2000/svg"
   xmlns:svg="http://www.w3.org/2000/svg">
  <sodipodi:namedview
     id="namedview12"
     pagecolor="#ffffff"
     bordercolor="#666666"
     borderopacity="1.0"
     inkscape:pageshadow="2"
     inkscape:pageopacity="0.0"
     inkscape:pagecheckerboard="0" />
  <!-- Generator: Sketch 49.1 (51147) - http://www.bohemiancoding.com/sketch -->
  <title
     id="title2">config</title>
  <desc
     id="desc4">Created with Sketch.</desc>
  <defs
     id="defs6" />
  <g
     id="config"
     stroke="none"
     stroke-width="1"
     fill="none"
     fill-rule="evenodd">
    <path
       d="m 27.682284,17.463838 c -0.499267,-0.39772 -1.650054,-0.251561 -1.469993,-1.056638 0.04831,-0.790807 -0.225072,-1.630631 -0.0099,-2.394175 0.592622,-0.144571 1.1291,-0.55837 1.714898,-0.775091 0.963948,-0.776752 -0.08544,-1.956321 -0.36477,-2.837713 C 27.137117,9.7056315 26.948028,8.4998974 25.895757,8.7058007 25.314798,8.9211553 24.768825,9.3167948 24.171458,9.4611515 23.650801,9.3314772 23.460754,8.6807339 23.036057,8.3669386 22.655285,7.9555937 21.66844,7.6586754 22.252005,7.0011984 22.759551,6.1792299 23.119024,4.7943615 21.840713,4.4824884 20.736071,4.1629137 19.661704,3.3628972 18.495248,3.581675 17.524942,4.0760384 17.947067,6.0719511 16.531892,5.7456987 15.88245,5.6341071 15.005197,6.039128 14.534743,5.6640428 14.108636,5.0127132 14.018129,4.0757795 13.269321,3.7041576 12.091894,3.6246331 11.067782,4.4639544 9.9797397,4.8320726 8.7327265,5.255553 9.4019826,6.5859709 9.7982122,7.3788826 10.275022,7.8886013 9.6175906,8.2115187 9.3082286,8.5629303 8.8443623,8.951777 8.4869508,9.4556688 8.0424343,9.8694725 6.905368,9.419157 5.1804625,8.6268509 4.8575994,10.479323 4.6486059,11.509219 3.6722916,12.546429 4.1839317,13.59515 c 0.4654237,0.849773 2.2817236,0.424854 2.1029472,1.663845 -0.031522,0.696783 0.063526,1.387754 0.08181,2.082336 -0.5863451,0.384017 -1.3616378,0.647604 -2.0003487,1.020709 -0.593825,1.124282 0.5202049,2.247805 0.8400763,3.307239 0.2051312,1.157808 1.4561754,1.302239 2.263665,0.694146 0.3815864,-0.191277 0.9589631,-0.648797 1.257823,-0.08981 0.5715258,0.531176 1.0096654,1.188068 1.6820545,1.600505 -0.4891217,1.082507 -1.3288924,2.962719 0.549289,3.166896 1.027829,0.247124 2.069393,1.257618 3.125961,0.773178 0.554503,-0.571616 0.65039,-1.416844 1.02074,-2.102744 0.922116,0.05859 1.885538,-0.181241 2.776747,-0.04081 0.427207,0.628348 0.564944,1.491263 1.101946,2.05172 0.938377,0.299397 1.866782,-0.418521 2.730279,-0.744862 0.952091,-0.272202 2.061188,-1.065973 1.31178,-2.164307 -0.164854,-0.426855 -0.519877,-0.829613 -0.489569,-1.306551 0.450281,-0.550218 1.047346,-0.914274 1.469883,-1.46992 0.662114,-1.198166 1.996087,0.844953 2.980442,0.06126 0.643127,-0.905512 0.964533,-2.064815 1.347481,-3.123479 0.395334,-0.584175 0.03616,-1.393823 -0.654654,-1.510662 z m -9.472526,2.776431 c -1.855285,0.956579 -4.207163,0.444478 -5.600098,-1.074988 -1.791571,-1.743412 -1.80288,-4.785985 -0.193177,-6.650171 1.712724,-2.313601 5.473725,-2.340799 7.360903,-0.232858 1.821217,1.696423 1.945803,4.824339 0.224409,6.638687 -0.477647,0.581744 -1.102506,1.023489 -1.792037,1.31933 z"
       id="path138"
       fill="#444444"
       fill-rule="nonzero" />
  </g>
</svg>
