<?xml version="1.0" encoding="UTF-8" standalone="no"?>
<svg
   width="32px"
   height="32px"
   viewBox="0 0 32 32"
   version="1.1"
   id="svg10"
   sodipodi:docname="config-folder.svg"
   xmlns:inkscape="http://www.inkscape.org/namespaces/inkscape"
   xmlns:sodipodi="http://sodipodi.sourceforge.net/DTD/sodipodi-0.dtd"
   xmlns="http://www.w3.org/2000/svg"
   xmlns:svg="http://www.w3.org/2000/svg">
  <sodipodi:namedview
     id="namedview12"
     pagecolor="#ffffff"
     bordercolor="#666666"
     borderopacity="1.0"
     inkscape:pageshadow="2"
     inkscape:pageopacity="0.0"
     inkscape:pagecheckerboard="0" />
  <!-- Generator: Sketch 49.1 (51147) - http://www.bohemiancoding.com/sketch -->
  <title
     id="title2">config-folder</title>
  <desc
     id="desc4">Created with Sketch.</desc>
  <defs
     id="defs6" />
  <g
     id="config-folder"
     stroke="none"
     stroke-width="1"
     fill="none"
     fill-rule="evenodd">
    <path
       d="m 22.536889,18.383195 c -0.70993,-0.127979 -1.032529,-0.508345 -0.903665,-1.252036 0.02067,-0.363956 -0.147684,-0.851989 0.36075,-0.88641 1.308142,-0.211804 0.841961,-1.407335 0.348967,-2.169809 -0.151962,-1.076732 -1.152309,-0.703408 -1.785635,-0.339339 -0.481871,-0.120256 -0.671831,-0.710571 -1.11893,-0.989844 -0.379523,-0.415599 0.869572,-1.499301 -0.172129,-1.807359 -0.919499,-0.526472 -2.449588,-1.1352302 -2.6251,0.430308 -0.284708,0.438505 -0.976158,0.193004 -1.447662,0.258181 -0.616613,0.04067 -0.416527,-1.075697 -1.005219,-1.204949 -0.730974,0.127155 -2.572569,0.437709 -2.25103,1.522576 0.334844,0.514557 0.550665,1.033764 -0.115817,1.360568 -0.450494,0.78012 -1.069383,0.741382 -1.80745,0.301134 -0.7609767,0.394089 -1.4032203,1.775069 -0.9897715,2.625024 0.8161211,0.176614 1.3054995,0.595957 1.1188825,1.447694 0.346738,0.809375 -0.4922848,0.839564 -1.0112989,1.134388 -0.4889718,0.790404 0.3438599,2.21992 1.0542669,2.624932 0.461917,-0.0175 1.001253,-0.700638 1.420133,-0.30125 0.351643,0.587184 1.280538,0.898415 0.688529,1.635302 -0.595616,1.179529 1.451926,1.559607 2.280744,1.635304 0.601939,-0.233211 0.287242,-1.481949 1.075819,-1.291037 0.423886,0.01661 0.867283,-0.03121 1.280232,0.02152 0.172668,0.706259 0.662785,1.709721 1.516978,1.011352 0.768062,-0.318257 2.060603,-0.736513 1.290924,-1.764426 -0.483274,-0.537309 0.22253,-0.868116 0.516366,-1.247948 0.462883,-0.973368 1.473481,0.610556 2.044143,-0.311952 0.03974,-0.711471 1.335448,-2.055693 0.236973,-2.441923 z m -5.465165,1.592212 c -1.651816,0.896354 -3.918129,-0.420189 -4.031649,-2.278074 -0.27041,-1.874266 1.656568,-3.677761 3.509177,-3.146093 1.937265,0.397554 2.921759,3.034472 1.609031,4.558116 -0.278074,0.380498 -0.657848,0.674056 -1.086559,0.866051 z M 14.317624,5 c 1.07582,1.0758198 2.151639,2.1516397 3.227459,3.2274595 3.758198,0 7.516397,0 11.274595,0 0,5.9241805 0,11.8483605 0,17.7725405 C 20.213119,26 11.606559,26 3,26 3,19 3,12 3,5 6.7725413,5 10.545083,5 14.317624,5 Z"
       id="path88"
       fill="#444444"
       fill-rule="nonzero" />
  </g>
</svg>
