<svg xmlns="http://www.w3.org/2000/svg" viewBox="0 0 32 32"><path fill="#41535B" d="M24.5 17.3c-.4-.1-.8-.3-1.1-.4 0-.7-.1-1.3-.1-2 0-.1.1-.1.1-.2.4-.2.7-.3 1.1-.5.4-.2.5-.6.4-1-.3-.7-.6-1.3-.9-2-.2-.4-.6-.6-1-.4-.4.2-.7.3-1.1.5-.1 0-.2 0-.2-.1-.2-.3-.5-.5-.7-.7-.2-.2-.5-.4-.7-.6.2-.4.3-.8.5-1.2.2-.5 0-.9-.5-1.1-.6-.1-1.3-.4-1.9-.6-.5-.2-.9 0-1.1.5-.1.4-.3.8-.4 1.1-.7 0-1.3.1-2 .1-.1 0-.1-.1-.2-.1-.2-.4-.3-.7-.5-1.1-.2-.4-.6-.5-1-.4-.7.3-1.3.6-2 .9-.4.2-.6.6-.4 1 .2.4.3.7.5 1.1 0 .1 0 .2-.1.2-.2.2-.4.3-.5.5-.3.3-.5.6-.8.9-.4-.1-.8-.3-1.1-.4-.5-.2-.9 0-1.1.5-.2.5-.5 1.2-.7 1.8-.2.6-.1.9.5 1.1.4.1.8.3 1.1.4 0 .7.1 1.3.1 2 0 .1-.1.1-.1.2-.4.2-.7.3-1.1.5-.4.2-.5.6-.4 1 .3.7.6 1.3.9 2 .2.4.6.6 1 .4.4-.2.7-.3 1.1-.5.1 0 .2 0 .2.1.2.3.5.5.7.7.2.2.5.4.7.6-.2.4-.3.8-.5 1.2-.2.5 0 .9.5 1.1.6.2 1.2.5 1.9.7.6.2.9.1 1.1-.5.1-.4.3-.8.4-1.1.7 0 1.3-.1 2-.1.1 0 .1.1.2.1.2.4.3.7.5 1.1.2.4.6.5 1 .4.7-.3 1.3-.6 2-.9.4-.2.6-.6.4-1-.2-.4-.3-.7-.5-1.1 0-.1 0-.2.1-.2.3-.2.5-.5.7-.7.2-.2.4-.5.6-.7.4.1.8.3 1.1.4.5.2.9 0 1.1-.5.2-.6.5-1.2.7-1.9.2-.5.1-.9-.5-1.1zm-7 2.1c-1.9.8-4 0-4.9-1.9-.8-1.9 0-4 1.9-4.9 1.9-.8 4 0 4.9 1.9.8 1.9 0 4-1.9 4.9z"/></svg>