<?xml version="1.0" encoding="UTF-8"?>
<svg width="32px" height="32px" viewBox="0 0 32 32" version="1.1" xmlns="http://www.w3.org/2000/svg" xmlns:xlink="http://www.w3.org/1999/xlink">
    <!-- Generator: Sketch 49.1 (51147) - http://www.bohemiancoding.com/sketch -->
    <title>config-folder</title>
    <desc>Created with Sketch.</desc>
    <defs></defs>
    <g id="config-folder" stroke="none" stroke-width="1" fill="none" fill-rule="evenodd">
        <path d="M22.5368889,18.3831949 L22.3217103,18.2971136 C22.2356359,18.2684404 22.1495703,18.2397466 22.0635136,18.2110323 C22.0061261,18.1536448 21.9343999,18.1249511 21.848335,18.1249511 C21.7909475,18.0962641 21.7335805,18.0675704 21.676234,18.0388698 L21.676234,17.6515737 C21.676234,17.5081227 21.6618974,17.3790247 21.6332241,17.2642797 C21.6332241,17.1208273 21.6332241,16.9917287 21.6332241,16.8769837 L21.6332241,16.4466573 C21.6332241,16.4466573 21.6332241,16.4323138 21.6332241,16.4036269 L21.676234,16.3605965 L21.7192644,16.3605965 L21.9344409,16.2745152 L22.1065625,16.1884339 C22.16395,16.159747 22.2356755,16.1310533 22.321739,16.1023527 C22.4078135,16.0449651 22.4795397,16.0019279 22.5369176,15.973241 C22.622992,15.9445677 22.6947182,15.9015305 22.7520962,15.8441293 C22.8094837,15.7867418 22.8525209,15.729368 22.8812079,15.6720078 C22.9098811,15.5859333 22.9242177,15.5142071 22.9242177,15.4568292 C22.9242177,15.3707547 22.895524,15.2846899 22.8381365,15.1986346 C22.780749,15.0838869 22.7233751,14.9547882 22.6660149,14.8113385 C22.6373417,14.6678875 22.5943044,14.5387895 22.5369033,14.4240445 L22.3217247,14.0367485 C22.2356502,13.8932961 22.192613,13.7641974 22.192613,13.6494524 C22.1352255,13.5920649 22.0778516,13.5346979 22.0204914,13.4773514 C21.9631039,13.3912769 21.8913784,13.3482397 21.8053149,13.3482397 C21.7479274,13.3195665 21.6762012,13.3052298 21.5901363,13.3052298 C21.5327488,13.3052298 21.4610233,13.3195665 21.3749598,13.3482397 C21.3175723,13.3769266 21.2458461,13.4056204 21.1597812,13.434321 C21.0737067,13.4630079 21.0163329,13.5060451 20.9876596,13.5634327 L20.7724831,13.6495139 L20.5573045,13.7355952 L20.4712232,13.7355952 C20.44255,13.7355952 20.4138562,13.7212517 20.3851419,13.6925648 L20.342132,13.6925648 C20.2847445,13.6351773 20.2417073,13.5921401 20.2130204,13.5634532 C20.1843471,13.5060656 20.1556534,13.4343401 20.1269391,13.3482766 L19.9548176,13.2621953 L19.8257059,13.1330837 C19.7683184,13.1044104 19.7252812,13.0613732 19.6965942,13.003972 C19.667921,12.9465845 19.6248837,12.9035473 19.5674826,12.8748603 L19.4383709,12.7457487 C19.3809834,12.7170618 19.3236095,12.6740245 19.2662493,12.616637 L19.3523306,12.444536 C19.3523306,12.3871484 19.3953678,12.3010829 19.4814423,12.1863393 L19.5675236,11.9281406 C19.5675236,11.870753 19.5962173,11.813386 19.6536048,11.7560395 C19.6822781,11.6699651 19.6966147,11.5838995 19.6966147,11.4978428 C19.6966147,11.4117684 19.667921,11.3257028 19.6105334,11.2396461 C19.5818465,11.1535717 19.5388093,11.0818462 19.4814218,11.0244696 C19.4240343,10.9670821 19.3523088,10.9383883 19.2662452,10.9383883 C19.1227928,10.8810008 18.9793493,10.823627 18.8359147,10.7662668 C18.721167,10.7088793 18.6064084,10.6515054 18.4916388,10.5941452 C18.3769048,10.5367577 18.2478061,10.4937205 18.1043428,10.4650336 C17.9895951,10.4363466 17.8891901,10.3933094 17.803128,10.3359219 C17.659677,10.3072486 17.5449183,10.292912 17.4588521,10.292912 C17.4014646,10.292912 17.3297391,10.3072486 17.2436755,10.3359219 C17.1576011,10.3646088 17.0858749,10.4219758 17.028497,10.5080229 C16.9711094,10.5654105 16.9424157,10.6371367 16.9424157,10.7232015 C16.8850282,10.780589 16.8419909,10.8523146 16.813304,10.9383781 C16.7846171,11.0244525 16.7559233,11.1105181 16.7272227,11.1965748 C16.6985495,11.2539623 16.6698557,11.3113361 16.6411415,11.3686963 C16.6411415,11.4260838 16.6124477,11.4834508 16.5550602,11.5407974 C16.4403125,11.5694706 16.3112145,11.5981644 16.1677662,11.6268786 L15.7804701,11.6268786 C15.6657224,11.6268786 15.5366238,11.6268786 15.3931741,11.6268786 C15.2784401,11.6268786 15.1493421,11.6268786 15.0058801,11.6268786 L14.9628702,11.6268786 C14.9628702,11.6268786 14.9628702,11.6268786 14.9628702,11.6268786 C14.9341833,11.6268786 14.9198398,11.6125352 14.9198398,11.5838482 L14.9198398,11.5408384 L14.8337586,11.3687168 C14.8050853,11.3113293 14.7620481,11.2396038 14.7046469,11.1535403 C14.67596,11.0674658 14.6472662,10.9957396 14.6185656,10.9383617 L14.5324843,10.7231851 C14.5037974,10.6084511 14.4464304,10.5367256 14.3603833,10.5080086 C14.3029958,10.4506211 14.2456219,10.4219273 14.1882617,10.4219273 C14.1308742,10.3932541 14.059148,10.3789174 13.9730831,10.3789174 C13.9156956,10.3789174 13.8439701,10.3932541 13.7579066,10.4219273 C13.6144542,10.4793148 13.4710121,10.5366818 13.3275802,10.5940284 C13.2128461,10.6514159 13.0837481,10.7087897 12.9402862,10.7661499 C12.8255385,10.8235374 12.6964398,10.8809045 12.5529901,10.938251 C12.4382424,10.9956385 12.3234838,11.0530123 12.2087142,11.1103725 C12.1513267,11.1390594 12.0796012,11.1964333 11.9935377,11.2824941 C11.9361502,11.3398816 11.8931129,11.3972554 11.864426,11.4546156 C11.864426,11.5120031 11.864426,11.5837287 11.864426,11.6697922 C11.864426,11.7271797 11.8787695,11.7989059 11.9074564,11.8849708 L11.9935377,12.0570718 C12.0222109,12.1144593 12.0509047,12.2005249 12.079619,12.3152685 C12.1082922,12.4013429 12.1513294,12.4730691 12.2087306,12.5304471 L12.2948119,12.7025686 L12.2948119,12.7886499 L12.2948119,12.8316803 C12.2948119,12.8603536 12.2804753,12.8746902 12.251802,12.8746902 C12.251802,12.8746902 12.251802,12.8890337 12.251802,12.9177206 C12.2231288,12.9177206 12.1800915,12.9464143 12.1226903,13.0038019 C12.0653028,13.0324888 12.0222656,13.075526 11.9935787,13.1329135 L11.9074974,13.2189948 L11.8214161,13.3050761 L11.6062375,13.4771976 C11.5775643,13.5058845 11.5345271,13.5632516 11.4771259,13.6492987 C11.4197384,13.7066862 11.3767011,13.76406 11.3480142,13.8214202 L11.1758927,13.9935213 C11.1185051,13.9648344 11.0467789,13.9504909 10.9607141,13.9504909 C10.8746396,13.9218176 10.7885741,13.8931239 10.7025174,13.8644096 C10.6451299,13.8357364 10.5734044,13.8070426 10.4873408,13.7783283 C10.4299533,13.7209408 10.3582271,13.6779036 10.2721623,13.6492167 C10.1860878,13.6205434 10.1000222,13.6062068 10.0139656,13.6062068 C9.95657805,13.6062068 9.88485254,13.6205434 9.79878903,13.6492167 C9.71271459,13.6779036 9.64098839,13.7352775 9.58361044,13.8213382 C9.52622292,13.8787257 9.4831857,13.9504519 9.45449877,14.0365168 C9.39711126,14.1512509 9.33974424,14.2660095 9.28239772,14.3807927 C9.25372446,14.4955268 9.21068724,14.6246248 9.15328606,14.7680867 C9.12459913,14.9115391 9.08156191,15.0406371 9.02417439,15.1553807 C8.99550113,15.2414552 8.93812728,15.3562138 8.85205284,15.4996566 C8.85205284,15.6144043 8.85205284,15.7148106 8.85205284,15.8008755 C8.85205284,15.8869499 8.8663963,15.9586754 8.89508323,16.016052 C8.92377015,16.0734395 8.96680737,16.1451657 9.02419489,16.2312306 C9.08158241,16.2886181 9.16764797,16.3316554 9.28239157,16.3603423 C9.33977909,16.3890155 9.41150529,16.4320528 9.49757016,16.4894539 C9.58364461,16.5181409 9.65537012,16.5324843 9.7127467,16.5324843 C9.77013422,16.5324843 9.84186042,16.5611781 9.9279253,16.6185656 L10.1000468,16.7046469 C10.1287338,16.8193946 10.1430772,16.9484933 10.1430772,17.0919429 L10.1430772,17.479239 C10.1430772,17.593973 10.1430772,17.723071 10.1430772,17.866533 C10.1717505,17.9812807 10.1860871,18.0960393 10.1860871,18.2108089 L10.1860871,18.2968902 C10.1574139,18.2968902 10.1287201,18.3112268 10.1000058,18.3399 L10.1000058,18.3829304 L9.92788429,18.4690117 C9.87049678,18.4976986 9.78443053,18.5263924 9.66968557,18.555093 C9.58361112,18.5837662 9.51188561,18.61246 9.45450902,18.6411743 L9.28238747,18.7272555 C9.16763977,18.7846431 9.08157421,18.8420101 9.02419079,18.8993566 C8.99551753,18.9280298 8.96682377,18.9854037 8.93810952,19.0714781 C8.93810952,19.1288657 8.93810952,19.2005912 8.93810952,19.2866547 C8.93810952,19.3440422 8.95244614,19.4301078 8.9811194,19.5448514 C9.03850692,19.6595991 9.09588077,19.7886971 9.15324096,19.9321454 C9.21062847,20.0755978 9.26799549,20.2046964 9.32534201,20.3194414 C9.38272953,20.4341891 9.42576675,20.5632878 9.45445367,20.7067374 C9.51184119,20.8501898 9.58356739,20.9792878 9.66963226,21.0940314 C9.69830552,21.151419 9.74134274,21.2087928 9.79874393,21.266153 C9.88481837,21.3235405 9.95654457,21.3665709 10.0139225,21.3952442 C10.07131,21.4239174 10.1286839,21.438254 10.1860441,21.438254 C10.2434316,21.438254 10.3294972,21.4239174 10.4442408,21.3952442 L10.6163418,21.266153 C10.6737293,21.2374661 10.7454555,21.2087723 10.8315204,21.1800717 C10.9175948,21.1513985 10.9893204,21.1227047 11.0466969,21.0939904 L11.2618755,21.0079092 L11.3479568,21.0079092 L11.3909872,21.0079092 L11.4770685,21.0079092 L11.6061801,21.1370003 L11.7352918,21.3091219 L11.9074134,21.4812229 C11.9074134,21.5098962 11.9361071,21.5529334 11.9934946,21.6103346 C12.0221816,21.6390215 12.0652188,21.6820587 12.1226063,21.7394463 C12.1799938,21.7681195 12.223031,21.8111567 12.251718,21.8685579 C12.3091055,21.8972449 12.3521427,21.9259386 12.3808296,21.9546392 C12.4382171,21.9833261 12.495591,22.0263633 12.5529512,22.0837509 C12.5242779,22.1698253 12.4955842,22.2415508 12.4668699,22.2989274 C12.4668699,22.3563149 12.4381761,22.4423805 12.3807886,22.5571241 C12.3521154,22.6431985 12.3234216,22.7149247 12.2947073,22.7723027 C12.2660204,22.8296902 12.22299,22.9014157 12.1656162,22.9874792 C12.1369293,23.0735537 12.1225858,23.1596192 12.1225858,23.2456759 C12.1225858,23.3317503 12.1369293,23.4034765 12.1656162,23.4608545 C12.2230037,23.518242 12.2803707,23.5899675 12.3377172,23.676031 C12.4237917,23.7334186 12.4955179,23.7764558 12.5528958,23.8051427 C12.6963469,23.833816 12.8254449,23.8768532 12.9401898,23.9342544 C13.0549375,23.9916419 13.1696962,24.0490089 13.2844657,24.1063554 C13.4279181,24.1637429 13.5570168,24.2211168 13.6717618,24.278477 C13.7865095,24.3071639 13.9012681,24.3358577 14.0160377,24.3645582 C14.1307717,24.4219458 14.2311773,24.4506395 14.3172545,24.4506395 C14.4320022,24.4506395 14.5180678,24.4362961 14.5754512,24.4076091 C14.6328387,24.3789359 14.6902125,24.3358987 14.7475727,24.2784975 C14.8336472,24.2211099 14.891021,24.120705 14.9196943,23.9772827 L15.0057756,23.7621041 C15.0344488,23.7047166 15.0487854,23.6329911 15.0487854,23.5469276 C15.0774724,23.4608531 15.1205096,23.3891269 15.1778971,23.331749 L15.2639784,23.1165724 L15.6512724,23.1165724 C15.7947248,23.1165724 15.9238235,23.1165724 16.0385684,23.1165724 C16.1533161,23.1165724 16.2680748,23.1165724 16.3828443,23.1165724 L16.7701404,23.1165724 L16.8562216,23.1165724 C16.8562216,23.1165724 16.8705583,23.1165724 16.8992315,23.1165724 C16.9279185,23.1165724 16.9422619,23.1452662 16.9422619,23.2026537 L17.0283432,23.3747753 C17.0570165,23.4321628 17.0857102,23.5038883 17.1144245,23.5899518 C17.1430977,23.6760262 17.1717915,23.7477524 17.2005058,23.8051304 L17.286587,24.0203069 C17.3439745,24.0776945 17.3870118,24.1494207 17.4156987,24.2354855 C17.4730862,24.292873 17.5304601,24.3359103 17.5878202,24.3645972 C17.6738947,24.3645972 17.7456202,24.3645972 17.8029968,24.3645972 C17.8890712,24.3645972 17.9751375,24.3502537 18.0611955,24.3215668 C18.2046465,24.2354924 18.3337445,24.1781185 18.4484895,24.1494453 C18.5919419,24.0920577 18.7353854,24.0346839 18.87882,23.9773237 L19.2661161,23.7621472 C19.3808638,23.7047596 19.5099618,23.6617224 19.6534101,23.6330355 C19.7107976,23.6043486 19.7681715,23.5613113 19.8255316,23.5039238 C19.8829192,23.4178631 19.9259564,23.3461375 19.9546433,23.2887473 C19.9833166,23.2313598 19.9976532,23.1596343 19.9976532,23.0735707 C19.9976532,22.9874963 19.9689594,22.9157701 19.9115719,22.8583922 C19.8828987,22.8010046 19.8542049,22.7292791 19.8254906,22.6432156 C19.7968037,22.5571412 19.76811,22.4710756 19.7394094,22.3850189 L19.6533281,22.2128974 L19.5672468,21.9977188 L19.5672468,21.9547089 L19.5672468,21.911699 L19.5672468,21.8256177 C19.5959201,21.7682302 19.6389573,21.725193 19.6963585,21.6965061 C19.753746,21.6391186 19.8111198,21.5960813 19.86848,21.5673944 L19.9975917,21.3952934 C20.0549792,21.3666064 20.1123462,21.3235692 20.1696927,21.2661817 C20.1983797,21.2087942 20.2270734,21.165757 20.255774,21.13707 L20.3848857,21.0079584 C20.4422732,20.9505708 20.4853104,20.9075336 20.5139973,20.8788467 C20.5426843,20.8214592 20.571378,20.778422 20.6000786,20.749735 L20.6861599,20.749735 C20.7435474,20.7784083 20.8009213,20.807102 20.8582815,20.8358163 C20.9443559,20.8358163 21.0160821,20.8645101 21.07346,20.9218976 C21.1595345,20.9505708 21.23126,20.9792646 21.2886366,21.0079789 C21.374711,21.0079789 21.4607773,21.0366726 21.5468353,21.0940601 C21.6328961,21.1227471 21.7189617,21.1370905 21.805032,21.1370905 C21.8911064,21.1370905 21.9628326,21.1227471 22.0202106,21.0940601 C22.0775981,21.0366726 22.134972,20.9793056 22.1923321,20.9219591 C22.2784066,20.8645716 22.3357804,20.7928454 22.3644537,20.7067805 C22.393127,20.5633281 22.4218207,20.4342294 22.450535,20.3194845 C22.5079225,20.2047367 22.5652963,20.0899781 22.6226565,19.9752085 C22.680044,19.8317562 22.7230813,19.7169975 22.7517682,19.6309326 C22.8091557,19.5161986 22.8665296,19.3870999 22.9238897,19.2436366 C22.9812773,19.1289026 22.9956207,19.0284976 22.9669201,18.9424218 C22.9669201,18.8563474 22.9525767,18.7702818 22.9238897,18.6842251 C22.9238897,18.5981507 22.8808525,18.5264252 22.7947781,18.4690486 C22.7373906,18.4116611 22.651325,18.3829673 22.5365814,18.3829673 L22.5368889,18.3831949 Z M17.0717241,19.9754074 C16.6987709,20.1475385 16.3258197,20.2479434 15.9528705,20.2766222 C15.6086083,20.2766222 15.2500019,20.2048967 14.8770513,20.0614456 C14.5040995,19.8893145 14.1741814,19.6884944 13.8872971,19.4589853 C13.6290983,19.200788 13.4139341,18.8852147 13.2418043,18.5122655 C13.098352,18.139315 13.0266258,17.7807086 13.0266258,17.4364464 C13.0266258,17.0634945 13.0839996,16.7048874 13.1987473,16.3606252 C13.3421983,16.0163616 13.5430171,15.7007876 13.8012035,15.4139033 C14.0593995,15.1270191 14.3606286,14.8975114 14.7048908,14.7253802 C15.1065324,14.5532491 15.4938278,14.4671836 15.8667769,14.4671836 C16.2397302,14.4671836 16.5983373,14.5389098 16.9425981,14.6823621 C17.2868617,14.7971099 17.5880915,14.9979286 17.8462875,15.2848183 C18.1331732,15.5430143 18.3483374,15.8442434 18.4917803,16.1885057 C18.6639127,16.5614562 18.749979,16.9344074 18.749979,17.3073593 C18.7786522,17.6803099 18.7212784,18.0389169 18.5778574,18.3831805 C18.434405,18.7274414 18.2335856,19.043014 17.9753992,19.3298983 C17.7458833,19.5880956 17.4446542,19.8032606 17.0717118,19.975393 L17.0717241,19.9754074 Z M14.3176235,5 L17.545083,8.22745952 L28.8196782,8.22745952 L28.8196782,26 L3,26 L3,5 L14.3176235,5 Z" id="path88" fill="#444444" fill-rule="nonzero"></path>
    </g>
</svg>