<?xml version="1.0" encoding="UTF-8" standalone="no"?>
<svg
   width="32px"
   height="32px"
   viewBox="0 0 32 32"
   version="1.1"
   id="svg10"
   xmlns="http://www.w3.org/2000/svg"
   xmlns:svg="http://www.w3.org/2000/svg"
   xmlns:rdf="http://www.w3.org/1999/02/22-rdf-syntax-ns#"
   xmlns:cc="http://creativecommons.org/ns#"
   xmlns:dc="http://purl.org/dc/elements/1.1/">
  <!-- Generator: Sketch 49.1 (51147) - http://www.bohemiancoding.com/sketch -->
  <title
     id="title2">c++</title>
  <desc
     id="desc4">Created with Sketch.</desc>
  <defs
     id="defs6" />
  <path
     d="M 16.122621,2.5044247 C 14.903861,2.4885117 13.989695,3.4768253 12.932993,3.9531824 10.230574,5.5198586 7.4921497,7.0371348 4.8146584,8.6386521 3.8160263,9.3930346 4.0208957,10.697489 4.0050365,11.794577 4.0183295,15.178021 3.9784645,18.563633 4.0250395,21.945721 4.2098273,23.276822 5.5361129,23.79815 6.5579344,24.385208 9.4827841,26.035079 12.389363,27.733694 15.322574,29.359006 16.754655,29.815586 17.914534,28.588805 19.104059,28.018698 21.770383,26.437267 24.500467,24.960861 27.155254,23.363002 28.20644,22.563719 27.98174,21.192078 28,20.040461 27.98677,16.705116 28.02653,13.367471 27.98,10.033572 27.696089,8.3889035 25.862801,7.9669989 24.669557,7.148549 22.011827,5.6542379 19.403798,4.057424 16.722312,2.6145973 16.528282,2.5520233 16.325911,2.5170616 16.122621,2.5044247 Z M 16.442596,8.0040099 C 19.076954,8.1440123 21.603937,9.6987739 22.920805,11.982498 21.770273,12.543347 20.440416,13.744203 19.368087,13.814635 18.245123,12.075175 15.738993,11.434288 13.98197,12.584885 11.986642,13.669641 11.340015,16.575565 12.795314,18.354523 14.168987,20.308743 17.344208,20.514506 18.918359,18.693656 19.655329,17.176572 21.118738,19.32756 22.225781,19.58153 23.71661,20.170296 21.540138,21.643789 20.880869,22.30038 17.785061,24.785481 12.828738,24.457745 10.173775,21.472437 7.525486,18.723286 7.2514981,14.042527 9.6796839,11.069855 11.266751,9.0290999 13.869456,7.8820356 16.442596,8.0040099 Z M 20.601246,13.982074 C 21.04133,13.982074 21.481415,13.982074 21.921499,13.982074 21.921499,14.422159 21.921499,14.862244 21.921499,15.302329 22.37471,15.302329 22.827921,15.302329 23.281132,15.302329 23.281132,15.755542 23.281132,16.208754 23.281132,16.661967 22.827921,16.661967 22.37471,16.661967 21.921499,16.661967 21.921499,17.101724 21.921499,17.54148 21.921499,17.981237 21.481415,17.981237 21.04133,17.981237 20.601246,17.981237 20.601246,17.54148 20.601246,17.101724 20.601246,16.661967 20.148035,16.661967 19.694824,16.661967 19.241613,16.661967 19.241613,16.208754 19.241613,15.755542 19.241613,15.302329 19.694824,15.302329 20.148035,15.302329 20.601246,15.302329 20.601246,14.862244 20.601246,14.422159 20.601246,13.982074 Z M 25.120242,13.982074 C 25.560326,13.982074 26.00041,13.982074 26.440494,13.982074 26.440494,14.422159 26.440494,14.862244 26.440494,15.302329 26.880255,15.302329 27.320015,15.302329 27.759776,15.302329 27.759776,15.755542 27.759776,16.208754 27.759776,16.661967 27.320015,16.661967 26.880255,16.661967 26.440494,16.661967 26.440494,17.101724 26.440494,17.54148 26.440494,17.981237 26.00041,17.981237 25.560326,17.981237 25.120242,17.981237 25.120242,17.54148 25.120242,17.101724 25.120242,16.661967 24.680488,16.661967 24.240733,16.661967 23.800979,16.661967 23.800979,16.208754 23.800979,15.755542 23.800979,15.302329 24.240733,15.302329 24.680488,15.302329 25.120242,15.302329 25.120242,14.862244 25.120242,14.422159 25.120242,13.982074 Z"
     id="path4020"
     fill="#444444"
     fill-rule="nonzero"
     style="stroke:none;stroke-width:1" />
  <metadata
     id="metadata1346">
    <rdf:RDF>
      <cc:Work
         rdf:about="">
        <dc:title>c++</dc:title>
      </cc:Work>
    </rdf:RDF>
  </metadata>
</svg>
