<?xml version="1.0" encoding="UTF-8"?>
<svg width="32px" height="32px" viewBox="0 0 32 32" version="1.1" xmlns="http://www.w3.org/2000/svg" xmlns:xlink="http://www.w3.org/1999/xlink">
    <!-- Generator: Sketch 49.1 (51147) - http://www.bohemiancoding.com/sketch -->
    <title>css</title>
    <desc>Created with Sketch.</desc>
    <defs></defs>
    <g id="css" stroke="none" stroke-width="1" fill="none" fill-rule="evenodd">
        <path d="M7.91499725,26.2333255 L9.06999883,20.5283286 L5.5,20.5283286 L5.5,17.5883293 L9.77000939,17.5883293 L10.47002,14.0183321 L6.75999566,14.0183321 L6.75999566,11.1133308 L11.1000178,11.1133308 L12.1850066,5.58333578 L16.1749985,5.58333578 L15.0199969,11.1133308 L19.0449867,11.1133308 L20.1999883,5.58333578 L24.0850028,5.58333578 L22.9300012,11.1133308 L26.5,11.1133308 L26.5,14.0183321 L22.3699994,14.0183321 L21.6700055,17.5883293 L25.3449984,17.5883293 L25.3449984,20.5283286 L20.9700116,20.5283286 L19.9200208,26.2333255 L15.8949976,26.2333255 L16.9800198,20.5283286 L12.9549966,20.5283286 L11.9049891,26.2333255 L7.91499725,26.2333255 Z M17.6799803,17.5883293 L18.3800076,14.0183321 L14.3900157,14.0183321 L13.6899885,17.5883293 L17.6799803,17.5883293 Z" id="path136" fill="#444444" fill-rule="nonzero"></path>
    </g>
</svg>