<?xml version="1.0" encoding="UTF-8" standalone="no"?>
<svg
   viewBox="0 0 32 32"
   version="1.1"
   id="svg1227"
   xmlns="http://www.w3.org/2000/svg"
   xmlns:svg="http://www.w3.org/2000/svg">
  <defs
     id="defs1231" />
  <path
     id="path1223"
     d="M 15.632812 7.5 C 11.89292 7.6498535 8.3007812 11.03125 8.3007812 15.5 C 8.3007812 22.2 16.099219 26.600781 20.699219 21.300781 L 18.5 18.800781 C 10.9 25.000781 10.200781 6.6 18.300781 12 L 20.5 9.5 C 19.0625 8.03125 17.332764 7.4318848 15.632812 7.5 z M 23.900391 13.5 L 22.5 17.800781 L 23.300781 17.800781 L 23.599609 16.800781 L 25 16.800781 L 25.300781 17.800781 L 26.099609 17.800781 L 24.699219 13.5 L 23.900391 13.5 z M 15.759766 13.509766 L 15.759766 15.800781 C 15.759766 16.440781 15.810391 16.879141 15.900391 17.119141 C 15.990391 17.359141 16.139609 17.549688 16.349609 17.679688 C 16.559609 17.809687 16.840937 17.880859 17.210938 17.880859 C 17.560938 17.880859 17.840547 17.800625 18.060547 17.640625 C 18.280547 17.480625 18.420469 17.279531 18.480469 17.019531 C 18.540469 16.759531 18.570312 16.349531 18.570312 15.769531 L 18.570312 13.509766 L 17.859375 13.509766 L 17.859375 15.890625 C 17.859375 16.320625 17.840781 16.600469 17.800781 16.730469 C 17.760781 16.860469 17.689844 16.959297 17.589844 17.029297 A 0.7 0.7 0 0 1 17.189453 17.140625 C 16.989453 17.140625 16.840703 17.090234 16.720703 16.990234 C 16.610703 16.890234 16.53 16.740781 16.5 16.550781 C 16.48 16.440781 16.470703 16.199844 16.470703 15.839844 L 16.470703 13.509766 L 15.759766 13.509766 z M 19.310547 13.509766 L 19.310547 17.800781 L 20.640625 17.800781 C 20.920625 17.800781 21.159844 17.759687 21.339844 17.679688 C 21.519844 17.599688 21.680547 17.480313 21.810547 17.320312 C 21.940547 17.160312 22.040859 16.949922 22.130859 16.669922 C 22.220859 16.389922 22.259766 16.069219 22.259766 15.699219 C 22.259766 15.289219 22.220625 14.949922 22.140625 14.669922 C 22.060625 14.389922 21.950547 14.160234 21.810547 13.990234 C 21.670547 13.820234 21.519609 13.689141 21.349609 13.619141 C 21.189609 13.549141 20.939375 13.509766 20.609375 13.509766 L 19.310547 13.509766 z M 20.019531 14.240234 L 20.320312 14.240234 C 20.610312 14.240234 20.800391 14.249297 20.900391 14.279297 A 0.676 0.676 0 0 1 21.240234 14.490234 A 0.87 0.87 0 0 1 21.449219 14.919922 C 21.499219 15.099922 21.519531 15.349922 21.519531 15.669922 C 21.519531 15.979922 21.500937 16.220156 21.460938 16.410156 C 21.420938 16.600156 21.370781 16.730313 21.300781 16.820312 C 21.240781 16.900313 21.150781 16.969766 21.050781 17.009766 C 20.940781 17.049766 20.780781 17.070312 20.550781 17.070312 L 20.019531 17.070312 L 20.019531 14.240234 z M 24.300781 14.5 L 24.800781 16.099609 L 23.800781 16.099609 L 24.300781 14.5 z " />
</svg>
