<svg xmlns="http://www.w3.org/2000/svg" viewBox="0 0 32 32"><path fill="#76b900" d="M8.3 15.5c0-6.5 7.6-10.7 12.2-6L18.3 12c-8.1-5.4-7.4 13 .2 6.8l2.2 2.5c-4.6 5.3-12.4.9-12.4-5.8zm17.8 2.3h-.8l-.3-1h-1.4l-.3 1h-.8l1.4-4.3h.8l1.4 4.3zm-1.3-1.7l-.5-1.6-.5 1.6h1z"/><path fill="#76b900" d="M15.76 13.51h.71v2.33c0 .36.01.6.03.71.03.19.11.34.22.44.12.1.27.15.47.15a.7.7 0 00.4-.11c.1-.07.17-.17.21-.3s.06-.41.06-.84v-2.38h.71v2.26c0 .58-.03.99-.09 1.25s-.2.46-.42.62-.5.24-.85.24c-.37 0-.65-.07-.86-.2s-.36-.32-.45-.56-.14-.68-.14-1.32v-2.29zm3.55 0h1.3c.33 0 .58.04.74.11.17.07.32.2.46.37s.25.4.33.68.12.62.12 1.03c0 .37-.04.69-.13.97s-.19.49-.32.65-.29.28-.47.36c-.18.08-.42.12-.7.12h-1.33v-4.29zm.71.72v2.84h.53c.23 0 .39-.02.5-.06.1-.04.19-.11.25-.19.07-.09.12-.22.16-.41.04-.19.06-.43.06-.74 0-.32-.02-.57-.07-.75a.87.87 0 00-.21-.43.676.676 0 00-.34-.21c-.1-.03-.29-.04-.58-.04h-.3z"/></svg>