<?xml version="1.0" encoding="UTF-8" standalone="no"?>
<svg
   data-name="Layer 1"
   viewBox="-60 -60 320 320"
   version="1.1"
   id="svg4"
   xmlns="http://www.w3.org/2000/svg"
   xmlns:svg="http://www.w3.org/2000/svg">
  <defs
     id="defs8" />
  <path
     d="M194.42 83.82L154.8 44.2l-.08-.09-31.63-31.62c-3.25-3.25-9.56-6.71-14.87-6.71-4.75 0-9.13 1-11.91 2.66L40.77 36.22l-3.68 2-1.65 3.41-27.86 58c-.27.57-2.64 5.7-2.64 9.41a23.64 23.64 0 006.7 16.09l31.71 31.71 38.4 38.41h79.75v-32.91h32.92zM98.29 12.06c2.26-1.35 6-2.15 9.93-2.15s9.32 2.85 12 5.49l22.44 22.44h-.76a48.2 48.2 0 00-5.59-.31H47.43zm59.08 179.08H83.46l-37.2-37.2c-4.52-4.53-5.49-6.38-5.49-15.61v-93.8l116.6 116.6z"
     id="path2" />
</svg>
