<?xml version="1.0" encoding="UTF-8" standalone="no"?>
<svg
   data-name="Layer 1"
   viewBox="-60 -60 320 320"
   version="1.1"
   id="svg4"
   xmlns="http://www.w3.org/2000/svg"
   xmlns:svg="http://www.w3.org/2000/svg">
  <defs
     id="defs8" />
  <path
     d="M 194.42,83.82 C 170.16743,59.661742 146.09959,35.308526 121.73574,11.268574 114.29027,4.635523 102.86529,4.1598684 94.512612,9.3390177 75.391607,19.004095 56.101888,28.345742 37.09,38.22 26.949269,59.445471 16.577364,80.568723 6.6260352,101.87965 1.9998308,111.64642 7.8250016,122.26162 15.334763,128.82476 37.476032,150.96365 59.613107,173.10673 81.75,195.25 108.33333,195.25 134.91667,195.25 161.5,195.25 161.5,184.28 161.5,173.31 161.5,162.34 172.47333,162.34 183.44667,162.34 194.42,162.34 194.42,136.16667 194.42,109.99333 194.42,83.82 Z M 98.29,12.06 C 106.1833,7.6601914 116.28643,10.365139 121.92528,17.105275 128.83685,24.01685 135.74843,30.928425 142.66,37.84 124.34692,37.193221 106.00239,37.681835 87.675602,37.53 74.260401,37.53 60.845201,37.53 47.43,37.53 64.383333,29.04 81.336667,20.55 98.29,12.06 Z M 157.37,191.14 C 132.73333,191.14 108.09667,191.14 83.46,191.14 70.353289,177.9421 57.057688,164.92427 44.074907,151.60822 39.082127,145.52888 41.23942,137.15392 40.77,129.88932 40.77,101.43621 40.77,72.983106 40.77,44.53 79.636667,83.396667 118.50333,122.26333 157.37,161.13 157.37,171.13333 157.37,181.13667 157.37,191.14 Z"
     id="path2" />
</svg>
