<svg xmlns="http://www.w3.org/2000/svg" viewBox="0 0 32 32"><path d="M25 13.6v.3c-.1.1-.1.2-.2.3-.3.4-.7.8-1 1.2-.3.3-.6.7-.6 1.2 0 .1-.1.1-.2.2-2.1.5-4.2.8-6.3.9-1.5 0-3 0-4.5-.3-1.1-.2-2.1-.4-3.2-.6-.1 0-.2-.1-.2-.1 0-.6-.3-1-.7-1.3-.3-.3-.6-.5-.9-.8-.5-.6-.3-1.3.5-1.6.7-.3 1.5-.5 2.2-.9 1.2-.6 2.4-1.4 3.6-2.1.8-.6 1.5-1 2.4-1.2h.3c.8.2 1.6.6 2.3 1 .6.3 1.2.7 1.7 1.1 1.3.7 2.5 1.4 3.9 1.9.5.1.8.3.9.8zm-8.9-1.2c-.7 0-1.3.4-1.7.8 0 0-.1.1-.1.2.1.8.4 1.5.9 2.1.1.2.3.3.5.4.5.2.9 0 1.2-.4.5-.6.8-1.3.9-2.1 0-.1 0-.1-.1-.2-.4-.4-.9-.8-1.6-.8zm-.3 10.8c-.5-.1-.9-.1-1.4-.2-1.6-.3-2.8-1.1-3.9-2.3-.6-.7-1.1-1.4-1.5-2.2 0-.1-.1-.1-.1-.2v-.1c4.8 1.2 9.5 1.2 14.3 0v.2c-.9 1.8-2.2 3.3-4.1 4.1-.8.4-1.7.6-2.6.6h-.2c-.2.1-.4.1-.5.1z"/></svg>