<?xml version="1.0" encoding="UTF-8" standalone="no"?>
<svg
   viewBox="0 0 32 32"
   version="1.1"
   id="svg961"
   xmlns="http://www.w3.org/2000/svg"
   xmlns:svg="http://www.w3.org/2000/svg">
  <defs
     id="defs965" />
  <path
     id="path955"
     style="fill:#519aba"
     d="M 14.5 8.5996094 L 14.5 10.599609 L 16.5 10.599609 L 16.5 8.5996094 L 14.5 8.5996094 z M 9.8007812 10.900391 L 9.8007812 12.900391 L 11.800781 12.900391 L 11.800781 10.900391 L 9.8007812 10.900391 z M 12.199219 10.900391 L 12.199219 12.900391 L 14.199219 12.900391 L 14.199219 10.900391 L 12.199219 10.900391 z M 14.5 10.900391 L 14.5 12.900391 L 16.5 12.900391 L 16.5 10.900391 L 14.5 10.900391 z M 23.136719 11.173828 C 22.831519 11.190747 22.569141 11.450391 22.400391 11.900391 C 22.200391 12.600391 22.200781 13.399609 22.300781 14.099609 C 22.500781 14.999609 22.4 15.200391 21.5 15.400391 C 20.4 15.700391 5.1992187 15.599609 5.1992188 15.599609 C 4.9992187 15.599609 4.9003906 16.099609 4.9003906 16.599609 C 4.9003906 17.099609 5.0007812 18.600781 5.3007812 19.300781 C 6.3007812 21.500781 8 23.100781 10.5 23.300781 L 15 23.300781 C 17.9 23.200781 20.199219 21.799219 22.199219 19.699219 C 22.999219 18.799219 23.699219 17.799219 24.199219 16.699219 C 24.399219 16.299219 24.699609 16.1 25.099609 16 C 25.799609 15.9 26.400391 15.800391 26.900391 15.400391 C 27.000391 15.200391 27.200781 15.000391 27.300781 14.900391 C 28.000781 14.400391 27.899609 13.799609 27.099609 13.599609 C 26.699609 13.499609 26.200781 13.400391 25.800781 13.400391 C 25.300781 13.500391 25.000781 13.300781 24.800781 12.800781 C 24.600781 12.300781 24.300391 11.899609 23.900391 11.599609 C 23.637891 11.293359 23.374097 11.160669 23.136719 11.173828 z M 7.5 13.300781 L 7.5 15.300781 L 9.5 15.300781 L 9.5 13.300781 L 7.5 13.300781 z M 9.8007812 13.300781 L 9.8007812 15.300781 L 11.800781 15.300781 L 11.800781 13.300781 L 9.8007812 13.300781 z M 12.199219 13.300781 L 12.199219 15.300781 L 14.199219 15.300781 L 14.199219 13.300781 L 12.199219 13.300781 z M 14.5 13.300781 L 14.5 15.300781 L 16.5 15.300781 L 16.5 13.300781 L 14.5 13.300781 z M 16.900391 13.300781 L 16.900391 15.300781 L 18.900391 15.300781 L 18.900391 13.300781 L 16.900391 13.300781 z M 12.199219 18.699219 C 12.599219 18.699219 13 19 13 19.5 C 13 20 12.699219 20.300781 12.199219 20.300781 C 11.799219 20.300781 11.400391 20 11.400391 19.5 C 11.400391 19 11.799219 18.699219 12.199219 18.699219 z M 10.384766 20.650391 C 10.917578 20.649585 11.355469 20.912109 11.699219 21.599609 C 11.999219 22.199609 12.700391 22.500391 13.400391 22.900391 C 11.200391 23.200391 8.8007813 22.400391 7.3007812 20.900391 C 8.1007813 20.800391 8.8996094 21.000781 9.5996094 20.800781 C 9.8808594 20.707031 10.142578 20.650757 10.384766 20.650391 z " />
</svg>
