<?xml version="1.0" encoding="UTF-8" standalone="no"?>
<svg
   width="32px"
   height="32px"
   viewBox="0 0 32 32"
   version="1.1"
   id="svg10"
   sodipodi:docname="electron.svg"
   xmlns:inkscape="http://www.inkscape.org/namespaces/inkscape"
   xmlns:sodipodi="http://sodipodi.sourceforge.net/DTD/sodipodi-0.dtd"
   xmlns="http://www.w3.org/2000/svg"
   xmlns:svg="http://www.w3.org/2000/svg">
  <sodipodi:namedview
     id="namedview12"
     pagecolor="#ffffff"
     bordercolor="#666666"
     borderopacity="1.0"
     inkscape:pageshadow="2"
     inkscape:pageopacity="0.0"
     inkscape:pagecheckerboard="0" />
  <!-- Generator: Sketch 49.1 (51147) - http://www.bohemiancoding.com/sketch -->
  <title
     id="title2">electron</title>
  <desc
     id="desc4">Created with Sketch.</desc>
  <defs
     id="defs6" />
  <g
     id="electron"
     stroke="none"
     stroke-width="1"
     fill="none"
     fill-rule="evenodd">
    <path
       d="m 16.028396,2 c -1.464337,-0.08022 -2.396973,1.8624574 -1.398564,2.9453941 0.893567,1.3128049 2.577739,0.2333773 3.247608,-0.1663723 2.33689,1.7023153 3.265873,4.6638646 3.842858,7.3713992 0.72661,3.792139 0.517285,7.753737 -0.549481,11.456988 1.025555,0.98661 1.082119,-1.692622 1.336826,-2.377857 C 23.300421,16.483498 22.989829,11.36588 20.751407,7.0354973 20.057378,5.7792007 19.131465,4.5750207 17.836175,3.8981436 17.921598,2.8945246 17.029847,1.9740073 16.028396,2 Z m 0,0.7501733 c 1.812729,-0.00637 0.907317,2.9307384 -0.591764,1.9213534 C 14.571905,4.1400394 15.016024,2.7066698 16.028396,2.7501733 Z M 9.5750474,7.7907667 c -2.0956399,-0.033629 -4.6331229,0.6930525 -5.432672,2.8521543 -0.6089709,1.72498 0.026079,3.63507 0.973446,5.106824 C 6.5006737,15.745547 4.7316489,14.02745 4.8056494,13.223196 4.3266061,11.710345 4.9076429,9.8673027 6.41623,9.1963403 8.1993246,8.3000838 10.269178,8.4979734 12.17544,8.7682012 13.08443,7.7721641 10.828408,7.8966537 10.193231,7.8045417 9.9873279,7.7948071 9.7811822,7.7900217 9.5750474,7.7907667 Z m 12.9863546,0.023077 c -1.145871,1.0013778 1.374875,0.7047476 1.995664,0.9968503 1.586248,0.3211338 2.979784,1.742795 2.81076,3.432681 -0.111377,1.976091 -1.317041,3.651473 -2.498466,5.149576 0.398175,1.278356 1.435924,-0.722074 1.827098,-1.228429 1.225591,-1.839369 2.125544,-4.520441 0.642184,-6.4745702 C 26.22189,8.258559 24.284124,7.843749 22.561402,7.8138437 Z M 19.390599,8.1449749 C 14.575599,9.209667 10.081779,11.804856 6.750243,15.441868 5.2436954,17.182861 3.8121405,19.32987 3.9330232,21.731244 2.5447248,22.397396 2.7957269,24.653708 4.2736895,25.024225 5.657899,25.535036 7.1306788,23.938678 6.4826588,22.604211 6.158483,21.290628 3.9560759,21.956148 4.7963092,20.341402 5.6102341,17.25564 8.0660939,14.930939 10.519314,13.051633 13.227521,11.047334 16.344044,9.5916645 19.623375,8.825514 19.933814,8.6189089 19.739413,8.1397619 19.390599,8.1449749 Z M 16.0059,15.43682 c -2.245227,0.02527 -1.068635,3.63956 0.767184,2.354423 1.048198,-0.691077 0.472539,-2.399698 -0.767184,-2.354423 z m -8.7693109,2.138434 c -1.0626749,0.708532 1.103531,1.752267 1.5630573,2.408759 3.6578206,3.015124 8.1540406,5.24195 12.9281856,5.606972 1.500272,0.07575 3.078899,-0.06877 4.409667,-0.820588 1.176527,0.937513 3.083604,-0.171673 2.853139,-1.649569 -0.08018,-1.462952 -2.102347,-2.169846 -3.084772,-1.088892 -1.15522,0.832117 0.417791,2.610089 -1.393809,2.589071 C 21.204265,25.362554 17.792628,24.27896 14.788225,22.928358 12.016026,21.634712 9.4777917,19.831532 7.3766163,17.609869 Z M 4.8125727,22.25468 c 1.8117898,-0.0057 0.9125815,2.936358 -0.5917642,1.921354 C 3.3560816,23.644546 3.8002004,22.211176 4.8125727,22.25468 Z m 22.3748543,0 c 1.738155,-0.0218 1.004795,2.816778 -0.504723,1.973156 -0.942337,-0.500883 -0.590875,-1.982932 0.504723,-1.973156 z M 10.7629,23.84477 c -0.9487228,0.503901 0.341651,1.837822 0.558309,2.599652 1.015114,1.928795 2.961414,3.910457 5.337027,3.502478 1.753261,-0.319511 3.080153,-1.753347 3.898701,-3.253265 -0.656078,-1.203296 -1.302946,1.11972 -2.021331,1.445601 -1.176286,1.27249 -3.277579,1.496418 -4.604165,0.334228 -1.499288,-1.124376 -2.204569,-2.925395 -2.964972,-4.554337 z"
       id="path4416"
       fill="#444444"
       fill-rule="nonzero" />
  </g>
</svg>
