<?xml version="1.0" encoding="UTF-8" standalone="no"?>
<svg
   viewBox="0 0 32 32"
   version="1.1"
   id="svg4"
   xmlns="http://www.w3.org/2000/svg"
   xmlns:svg="http://www.w3.org/2000/svg">
  <defs
     id="defs8" />
  <path
     fill="#634272"
     d="M 19.182,12.632 C 20.592881,14.161986 22.30205,15.650653 22.746741,17.783266 23.063153,19.432421 22.748472,21.168883 22.079042,22.693918 21.135938,24.834962 18.94287,26.29733 16.623386,26.462212 14.264427,26.648732 11.735875,25.707814 10.373365,23.710915 8.982094,21.715395 8.6653348,19.133754 9.1351115,16.782936 9.7444587,13.593461 11.2032,10.600515 13.117101,7.9938191 14.048387,6.8058121 15.061702,5.5659138 16.467,4.928 16.374694,6.5929379 16.619041,8.2931565 17.241,9.844 15.577814,9.6614032 13.703749,10.149461 12.698289,11.574475 12.022961,12.54 11.818667,13.890792 12.319109,14.974406 12.861218,15.892529 13.947103,16.23935 14.869981,16.652245 15.554717,16.926699 16.406659,17.243396 16.513938,18.081812 16.67771,18.921651 16.0413,19.72379 15.231875,19.896875 13.758047,20.275759 12.172246,19.680601 11.054,18.714 10.900667,19.508333 10.747333,20.302667 10.594,21.097 12.591171,21.960479 15.127129,22.359619 17.106518,21.21088 18.278306,20.541171 18.949085,19.186375 18.864938,17.851339 18.881975,16.747796 18.168092,15.757605 17.20375,15.270172 16.2816,14.7308 15.127355,14.53385 14.413363,13.686102 13.999039,13.008275 14.584307,12.164559 15.246273,11.915441 16.273588,11.526966 17.46439,11.701289 18.43699,12.170881 18.694745,12.265278 19.024104,12.610012 19.182,12.632 Z M 14.515,24.616 C 15.30323,24.743634 16.118903,25.034914 16.917438,24.841562 17.68242,24.349104 16.567964,23.776923 16.07054,23.687493 14.677691,23.270103 13.225718,23.103682 11.786,22.936 12.553295,23.675216 13.485904,24.313462 14.515,24.616 Z"
     id="path2" />
</svg>
