<?xml version="1.0" encoding="UTF-8" standalone="no"?>
<svg
   viewBox="0 0 32 32"
   version="1.1"
   id="svg4"
   xmlns="http://www.w3.org/2000/svg"
   xmlns:svg="http://www.w3.org/2000/svg">
  <defs
     id="defs8" />
  <path
     fill="#634272"
     d="M19.182 12.632c1.828 1.993 3.947 3.683 3.67 6.975-.456 5.412-4.305 6.772-6.433 6.868-2.128.097-6.191-.653-7.304-5.755-1.249-5.731 4.208-14.534 7.352-15.792-.116 1.373.162 3.491.774 4.916a7.65 7.65 0 00-.663-.028c-1.339 0-2.428.364-3.27 1.094-.841.729-1.261 1.666-1.261 2.812 0 .656.161 1.18.484 1.57.323.391.984.795 1.984 1.211l.93.391c.359.151.63.345.813.582.182.237.273.517.273.84 0 .521-.198.934-.594 1.238-.396.305-.94.457-1.633.457-.557 0-1.112-.11-1.664-.332a5.906 5.906 0 01-1.586-.965l-.46 2.383a10.82 10.82 0 001.863.617 7.869 7.869 0 001.754.203c1.427 0 2.56-.356 3.398-1.07.839-.713 1.258-1.669 1.258-2.867 0-.693-.176-1.277-.527-1.754-.352-.476-.908-.884-1.668-1.223l-.907-.398-.054-.023c-.959-.433-1.438-.868-1.438-1.305 0-.458.193-.835.578-1.129.386-.294.886-.441 1.5-.441.578 0 1.105.082 1.578.246.474.164.888.407 1.243.73l.01-.051zm-4.667 11.984c1.439.299 2.542.507 2.673-.072.197-.873-3.159-1.365-5.402-1.608.673.71 2.032 1.535 2.729 1.68z"
     id="path2" />
</svg>
