<?xml version="1.0" encoding="UTF-8" standalone="no"?>
<!-- Created with Inkscape (http://www.inkscape.org/) -->

<svg
   width="74mm"
   height="98mm"
   viewBox="0 0 74 98"
   version="1.1"
   id="svg3957"
   sodipodi:docname="fennel-logo.svg"
   inkscape:version="1.2.2 (b0a8486, 2022-12-01)"
   inkscape:export-filename="/home/m455/fennel-logo-squareoutline.png"
   inkscape:export-xdpi="96"
   inkscape:export-ydpi="96"
   xmlns:inkscape="http://www.inkscape.org/namespaces/inkscape"
   xmlns:sodipodi="http://sodipodi.sourceforge.net/DTD/sodipodi-0.dtd"
   xmlns="http://www.w3.org/2000/svg"
   xmlns:svg="http://www.w3.org/2000/svg"
   xmlns:rdf="http://www.w3.org/1999/02/22-rdf-syntax-ns#"
   xmlns:cc="http://creativecommons.org/ns#"
   xmlns:dc="http://purl.org/dc/elements/1.1/">
  <defs
     id="defs3951">
    <inkscape:perspective
       sodipodi:type="inkscape:persp3d"
       inkscape:vp_x="0 : 49 : 1"
       inkscape:vp_y="0 : 1000 : 0"
       inkscape:vp_z="74 : 49 : 1"
       inkscape:persp3d-origin="37 : 32.666667 : 1"
       id="perspective1208" />
  </defs>
  <sodipodi:namedview
     id="base"
     pagecolor="#ffffff"
     bordercolor="#666666"
     borderopacity="1.0"
     inkscape:pageopacity="0.0"
     inkscape:pageshadow="2"
     inkscape:zoom="2.6085382"
     inkscape:cx="-15.909294"
     inkscape:cy="141.26686"
     inkscape:document-units="mm"
     inkscape:current-layer="layer1"
     showgrid="true"
     inkscape:snap-grids="true"
     units="mm"
     showguides="true"
     inkscape:snap-object-midpoints="true"
     inkscape:snap-midpoints="true"
     inkscape:snap-smooth-nodes="true"
     inkscape:snap-intersection-paths="true"
     inkscape:object-paths="true"
     inkscape:snap-bbox="true"
     inkscape:snap-global="true"
     inkscape:window-width="2550"
     inkscape:window-height="1377"
     inkscape:window-x="5"
     inkscape:window-y="30"
     inkscape:window-maximized="0"
     inkscape:showpageshadow="2"
     inkscape:pagecheckerboard="0"
     inkscape:deskcolor="#d1d1d1">
    <inkscape:grid
       type="xygrid"
       id="grid3961" />
  </sodipodi:namedview>
  <metadata
     id="metadata3954">
    <rdf:RDF>
      <cc:Work
         rdf:about="">
        <dc:format>image/svg+xml</dc:format>
        <dc:type
           rdf:resource="http://purl.org/dc/dcmitype/StillImage" />
        <dc:title />
      </cc:Work>
    </rdf:RDF>
  </metadata>
  <g
     inkscape:label="Layer 1"
     inkscape:groupmode="layer"
     id="layer1"
     transform="translate(0,-199.00002)">
    <path
       id="path1214"
       style="color:#000000;fill:#000000;stroke-width:3;-inkscape-stroke:none"
       d="m 61.201431,209.39835 -14.303219,24.52082 1.20303,0.90331 5.17e-4,5.1e-4 1.203546,0.90331 0.133842,-0.22944 8.655803,4.36097 1.203538,0.9033 13.308237,-22.80067 z" />
    <path
       id="path1222"
       style="color:#000000;fill:#000000;stroke-width:3;-inkscape-stroke:none"
       d="m 41.56077,212.70513 -2.541963,20.63285 1.492932,0.14262 0.0015,5.1e-4 9.60458,2.29651 -0.02584,0.20929 2.988446,0.28526 2.735751,-22.20485 z" />
    <path
       id="path1229"
       style="color:#000000;fill:#000000;stroke-width:3.0008;-inkscape-stroke:none"
       d="M -3.6425203 202.83575 L -22.165894 202.83616 L -22.166277 237.55478 L -19.163874 237.55473 L -19.163718 237.44495 L -5.1583706 236.42585 L -3.6425563 236.42592 L -3.6425203 202.83575 z "
       transform="matrix(0.98898665,-0.14800473,0.18027534,0.98361619,0,-4.1666624e-8)" />
    <ellipse
       style="fill:none;fill-opacity:1;stroke-width:3;stroke:#000000;stroke-opacity:1;stroke-miterlimit:4;stroke-dasharray:none"
       id="path3973"
       cx="37.041664"
       cy="263.92712"
       rx="34.395836"
       ry="30.427088" />
    <path
       id="path4788-7-3-6-0"
       style="fill:#000000;fill-opacity:1;stroke-width:0.56126553"
       d="M 21.088118 252.02159 A 7.9374976 11.906248 0 0 0 20.53208 252.0588 A 7.9374976 11.906248 0 0 0 13.240535 264.56243 A 7.9374976 11.906248 0 0 0 21.37854 275.82892 A 7.9374976 11.906248 0 0 0 29.104167 263.92681 L 29.059208 262.65867 A 7.9374976 11.906248 0 0 0 21.088118 252.02159 z M 18.494478 257.31274 A 2.6458333 3.9687524 0 0 1 21.151681 260.85826 L 21.166667 261.28097 A 2.6458333 3.9687524 0 0 1 18.59163 265.24869 A 2.6458333 3.9687524 0 0 1 15.878617 261.49285 A 2.6458333 3.9687524 0 0 1 18.309477 257.32514 A 2.6458333 3.9687524 0 0 1 18.494478 257.31274 z " />
    <path
       id="path4788-7-3-6-0-6"
       style="fill:#000000;fill-opacity:1;stroke-width:0.56126553"
       d="M 52.838118 252.02159 A 7.9374976 11.906248 0 0 0 52.28208 252.0588 A 7.9374976 11.906248 0 0 0 44.990535 264.56243 A 7.9374976 11.906248 0 0 0 53.12854 275.82892 A 7.9374976 11.906248 0 0 0 60.854167 263.92681 L 60.809208 262.65867 A 7.9374976 11.906248 0 0 0 52.838118 252.02159 z M 50.244478 257.31274 A 2.6458333 3.9687526 0 0 1 52.901681 260.85826 L 52.916667 261.28097 A 2.6458333 3.9687526 0 0 1 50.34163 265.24869 A 2.6458333 3.9687526 0 0 1 47.628617 261.49285 A 2.6458333 3.9687526 0 0 1 50.059477 257.32514 A 2.6458333 3.9687526 0 0 1 50.244478 257.31274 z " />
  </g>
</svg>
