<?xml version="1.0" encoding="UTF-8" standalone="no"?>
<svg
   viewBox="0 0 1200 1000"
   version="1.1"
   id="svg6"
   sodipodi:docname="firefox.svg"
   xmlns:inkscape="http://www.inkscape.org/namespaces/inkscape"
   xmlns:sodipodi="http://sodipodi.sourceforge.net/DTD/sodipodi-0.dtd"
   xmlns="http://www.w3.org/2000/svg"
   xmlns:svg="http://www.w3.org/2000/svg">
  <sodipodi:namedview
     id="namedview5"
     pagecolor="#ffffff"
     bordercolor="#666666"
     borderopacity="1.0"
     inkscape:pageshadow="2"
     inkscape:pageopacity="0.0"
     inkscape:pagecheckerboard="0" />
  <defs
     id="defs10" />
  <path
     id="path2"
     d="M 598.49219,222.82422 C 524.60919,222.03141 449.7839,251.30472 399.30078,305.90039 412.88685,323.13122 426.33154,288.65741 441.30095,284.5837 498.93168,240.94066 575.27734,225.37655 645.76118,240.16342 678.91965,246.42897 710.8106,257.68492 743.19922,266.90039 700.84189,238.05345 649.60337,223.18323 598.49219,222.82422 Z M 699.69922,262 C 727.68987,285.50186 760.10968,307.43537 776.09961,341.40039 764.78746,330.31088 738.535,316.60095 729.61399,320.74002 767.01143,353.40796 788.05558,403.50042 783.58049,453.12863 782.64846,454.00516 754.08945,414.09711 761.1623,442.66309 763.52808,470.29292 769.80099,498.51051 761.25,525.7623 759.99617,537.04568 757.85495,542.29104 753.12845,528.75027 747.72037,526.93542 745.9423,553.95713 741.63632,563.62527 736.1051,585.14708 725.61026,609.09473 704.41231,618.82559 697.20795,599.44686 683.32081,634.74181 668.69922,637.80078 674.81299,621.20719 645.70022,639.6178 635.34854,637.86911 614.26859,641.89122 588.5109,643.95827 571.69922,628 580.05673,628.33958 598.40151,628.72553 579.26735,623.22915 557.37876,618.27244 532.96882,614.54535 517.8418,596.0491 491.96711,574.47343 483.05951,538.52891 489.77987,506.32125 488.47184,492.73263 502.50341,477.92751 503.63832,470.34063 475.23602,452.58278 438.26685,478.49969 433.49243,508.77881 426.82716,534.44274 437.87106,560.94128 454.30078,580.5 421.6168,553.10035 415.77876,495.86478 450.39285,467.52311 473.5904,447.06973 512.60228,453.82668 529.59961,478.90039 536.88119,462.27433 530.94006,443.66332 520.0119,430.22423 495.30018,391.49001 510.71061,341.02031 539.79204,309.42829 549.42487,301.49708 553.8933,294.11818 537.49329,296.70989 504.731,299.65435 480.6397,326.23877 462.09961,351 465.6817,337.08066 469.45284,321.05012 449.26189,324.72988 401.80071,320.63579 359.39362,354.51859 339.93625,395.75942 328.64174,418.51355 323.36821,443.5421 316,467.69922 321.28229,464.47954 326.84224,449.39629 323.2993,464.82832 319.73622,490.52102 316.81777,516.5362 318.30078,542.5 321.49449,532.07577 324.84272,518.21426 325.72522,536.40432 336.47882,607.53883 374.92731,674.73446 434.20006,716.32617 467.38611,739.64769 502.79529,763.07956 543.21425,770.92468 560.43087,774.43539 526.56963,759.09127 545.16589,764.94381 568.2039,771.05467 591.48255,779.05635 615.59961,777.59961 595.17437,762.46023 643.45819,771.99507 655.70715,766.47657 685.27586,761.89581 715.62165,756.4952 742.52208,742.96114 762.53095,732.43209 769.24256,707.59596 790.10037,698.52478 819.40203,679.50532 845.30643,652.29967 857.2984,619.09509 863.83566,601.11559 850.73684,581.56895 862.65723,565.0332 872.91384,543.96241 880.2228,521.18166 884.40039,498.32617 885.07073,481.40841 883.86637,464.68695 879.83731,448.1748 878.08617,437.5344 877.09281,421.15554 871.63691,440.21289 861.07387,465.01096 868.53667,423.7907 866.10227,414.1238 864.37004,372.52718 844.94715,332.20052 813.09961,305.30078 808.12993,313.78521 794.60614,287.93911 783.88616,284.77703 766.88118,272.05983 782.35768,303.99663 791.83866,306.24246 806.94595,321.8441 820.98539,338.92886 830.80078,358.40039 811.78118,334.05624 790.16116,311.29372 765.9877,292.01208 746.23079,277.50056 723.09557,268.69263 699.69922,262 Z M 379.5,276.90039 C 359.92195,298.04001 352.63472,327.29204 351.5,355.40039 362.59696,339.29438 390.61571,327.76928 398.08777,317.84935 386.53339,307.44144 380.44615,292.23482 379.5,276.90039 Z M 522.5,366.19922 C 514.49678,388.83963 520.6655,416.72144 537.30078,434 553.24161,423.58132 571.87484,416.91046 586.32236,404.62225 598.40006,390.71288 591.49981,369.51785 570.84295,375.46582 554.94676,373.21161 534.90378,379.24035 522.5,366.19922 Z M 500.09961,517.40039 C 494.67078,546.73647 509.5476,578.80578 535.30078,593.80078 566.2463,599.54536 599.08412,589.1659 622.62481,568.52519 631.31398,551.95466 668.63065,567.95485 655.03152,542.16255 638.88291,522.64156 606.99163,520.53525 585.90039,533.30078 562.15588,548.92839 532.15779,539.35149 511.00169,524.05007 507.3797,521.81397 503.76968,519.55744 500.09961,517.40039 Z" />
</svg>
