<?xml version="1.0" encoding="UTF-8" standalone="no"?>
<svg
   height="512"
   version="1.2"
   width="512"
   id="svg10"
   xmlns="http://www.w3.org/2000/svg"
   xmlns:svg="http://www.w3.org/2000/svg">
  <defs
     id="defs14" />
  <path
     id="path2"
     d="M 175.70508 74.476562 C 173.33094 74.27513 171.32639 76.722781 170.38477 81.699219 L 124.92578 365.68359 L 124.91992 365.68945 L 124.92383 365.69141 L 124.92383 365.69727 L 124.92773 365.69336 L 241.22852 434.18555 C 245.00552 436.28155 254.91602 437.4668 254.91602 437.4668 C 254.91602 437.4668 265.77305 436.4847 269.87305 434.2207 L 387.0293 364.00586 L 351.6875 158.63086 C 349.9775 149.79086 343.26639 147.66139 336.77539 153.90039 L 293.05859 197.60547 L 260.46875 132.27344 C 256.05275 124.41844 248.84764 124.43344 244.43164 132.27344 L 226.98633 171.38086 L 181.58789 79.808594 C 179.6222 76.392156 177.55163 74.633232 175.70508 74.476562 z " />
</svg>
