<?xml version="1.0" encoding="UTF-8" standalone="no"?>
<svg
   viewBox="0 0 32 32"
   version="1.1"
   id="svg6"
   xmlns="http://www.w3.org/2000/svg"
   xmlns:svg="http://www.w3.org/2000/svg">
  <defs
     id="defs10" />
  <path
     id="path2"
     d="M 13.099609 9.0996094 L 8.6992188 20 C 8.3992188 20.9 8.1003906 21.399219 7.9003906 21.699219 C 7.6003906 22.099219 7.1992188 22.400391 6.6992188 22.400391 L 6.6992188 22.900391 L 10.699219 22.900391 L 10.699219 22.400391 C 10.299219 22.400391 9.8992187 22.400781 9.6992188 22.300781 C 9.2992187 22.200781 9.0996094 21.999219 9.0996094 21.699219 C 9.0996094 21.499219 9.2003906 21.099609 9.4003906 20.599609 C 9.5003906 20.299609 9.7 19.8 10 19 L 14.5 19 L 15 20.199219 C 15.1 20.499219 15.200781 20.700391 15.300781 20.900391 L 15.300781 21 L 15.335938 21 C 15.421617 21.240379 15.5 21.425362 15.5 21.599609 C 15.5 21.899609 15.399219 22.099219 15.199219 22.199219 C 14.999219 22.299219 14.600391 22.400391 13.900391 22.400391 L 13.900391 22.900391 L 20.400391 22.900391 L 20.400391 22.400391 C 19.900391 22.400391 19.500781 22.300391 19.300781 21.900391 C 19.100781 21.500391 18.699219 20.799609 18.199219 19.599609 L 17.720703 18.482422 L 17.800781 18.300781 L 21.099609 18.300781 L 21.800781 19.400391 C 21.900781 19.700391 22 19.900391 22 19.900391 L 22 20.199219 C 22 20.299219 21.900781 20.4 21.800781 20.5 C 21.600781 20.6 21.4 20.699219 21 20.699219 L 20.599609 20.699219 L 20.599609 21 L 25.099609 21 L 25.099609 20.699219 C 24.799609 20.699219 24.600391 20.6 24.400391 20.5 C 24.200391 20.3 23.899609 19.799609 23.599609 19.099609 L 20.300781 11.5 L 20.199219 11.5 L 17.410156 17.757812 L 13.699219 9.0996094 L 13.099609 9.0996094 z M 12.099609 13.599609 L 12.300781 13.599609 L 14.199219 18.199219 L 10.300781 18.199219 L 12.099609 13.599609 z M 19.5 14.5 L 20.900391 17.699219 L 18.099609 17.699219 L 19.5 14.5 z " />
</svg>
