<svg xmlns="http://www.w3.org/2000/svg" viewBox="0 0 32 32"><path fill="#FFF" d="M17.8 20.6c.4-.1.8-.1 1.2-.2 1.2-.3 2.2-.9 2.7-2 .6-1.2.7-2.4.4-3.7-.1-.6-.4-1-.8-1.5-.1-.1-.1-.2-.1-.3.2-.8.2-1.5-.1-2.3 0-.1-.1-.2-.3-.2-.5 0-.9.2-1.3.4s-.7.4-1 .6c-.1.1-.2.1-.3.1-1.6-.4-3.1-.4-4.7 0-.1 0-.2 0-.3-.1-.7-.4-1.3-.8-2.1-.9-.5-.1-.5-.1-.6.4-.2.7-.2 1.4 0 2.1v.2c-.9 1-1.1 2.3-.9 3.5.1.4.1.7.2 1.1.5 1.4 1.5 2.2 3 2.6.4.1.8.2 1.3.3-.3.3-.5.8-.6 1.2 0 .1-.1.1-.1.1-1 .4-2.1.3-2.8-.8-.3-.5-.7-.9-1.4-1h-.5c-.2 0-.2.2-.1.3l.2.2c.5.3.9.8 1.1 1.4.4.9 1.1 1.3 2.1 1.4.4 0 .9 0 1.4-.1v1.9c0 .3-.3.5-.7.4-.8-.3-1.6-.7-2.4-1.2-3-2.1-4.6-5-4.4-8.7.2-4.6 3.6-8.3 8.1-9.2 5.2-1 10.2 2.2 11.6 7.3 1.3 5-1.6 10.2-6.4 11.8-.5.2-.8 0-.8-.6v-2.4c.1-.8 0-1.5-.6-2.1z"/></svg>