<?xml version="1.0" encoding="UTF-8" standalone="no"?>
<svg
   width="32px"
   height="32px"
   viewBox="0 0 32 32"
   version="1.1"
   id="svg10"
   sodipodi:docname="go.svg"
   xmlns:inkscape="http://www.inkscape.org/namespaces/inkscape"
   xmlns:sodipodi="http://sodipodi.sourceforge.net/DTD/sodipodi-0.dtd"
   xmlns="http://www.w3.org/2000/svg"
   xmlns:svg="http://www.w3.org/2000/svg">
  <sodipodi:namedview
     id="namedview12"
     pagecolor="#ffffff"
     bordercolor="#666666"
     borderopacity="1.0"
     inkscape:pageshadow="2"
     inkscape:pageopacity="0.0"
     inkscape:pagecheckerboard="0" />
  <!-- Generator: Sketch 49.1 (51147) - http://www.bohemiancoding.com/sketch -->
  <title
     id="title2">go</title>
  <desc
     id="desc4">Created with Sketch.</desc>
  <defs
     id="defs6" />
  <g
     id="go"
     stroke="none"
     stroke-width="1"
     fill="none"
     fill-rule="evenodd">
    <path
       d="m 16.880311,1.5022238 c -2.62725,0.044798 -5.622052,0.2739959 -7.4955497,2.370091 -1.8412294,2.5269874 -1.8595841,5.8424573 -1.5890042,8.8281272 0.115817,1.116392 0.3684184,2.222161 0.2431392,3.349779 -0.040369,2.831786 -0.3159965,5.675595 -0.011374,8.498779 0.2916903,1.278397 1.0509859,2.829639 2.421667,3.146365 0.992438,0.919938 2.221629,1.509181 3.599228,1.60581 2.325847,0.217704 4.775276,0.150507 6.969356,-0.723652 0.943905,-0.579852 1.990337,-1.07688 2.627327,-2.006207 1.213779,-1.700925 1.521924,-3.870597 1.53183,-5.914515 -0.07891,-2.758862 -0.197337,-5.517722 -0.227175,-8.279076 -0.08915,-2.8546903 0.0677,-5.9705293 -1.702121,-8.4050282 C 21.838225,1.973738 19.180367,1.4518103 16.880311,1.5022238 Z M 19.307929,2.615355 C 20.919014,2.5541028 22.544526,3.9909091 22.216013,5.6732 22.19062,7.1287154 20.714998,8.066515 19.361209,7.9513935 17.408423,8.0371704 15.990742,5.441171 17.199572,3.8545402 17.65037,3.139305 18.467437,2.667156 19.307929,2.615355 Z m 4.452525,0.027023 c -1.681786,0.046105 -0.08381,1.4543533 0.734606,1.3270598 0.385447,0.5868937 -0.607984,0.93217 -0.09741,1.4963009 0.40099,1.4728564 2.054842,-1.0554903 1.280347,-1.8460512 C 25.365268,2.8761825 24.502994,2.617729 23.760454,2.642378 Z M 19.704542,2.92306 C 18.174305,2.7816495 16.664169,4.2351888 17.060674,5.7920722 17.448864,7.5030747 19.695409,8.2333598 21.068276,7.1886 22.507389,6.2213558 22.126064,3.8841326 20.614167,3.1992437 20.334846,3.0441777 20.025306,2.9393326 19.704542,2.92306 Z m -6.955983,0.028764 c 1.61339,-0.072656 3.096298,1.5062909 2.731515,3.1205576 C 15.18344,7.77274 13.123384,8.7595593 11.589181,7.9931859 10.475411,7.5467404 9.8574648,6.3256768 10.066261,5.1559504 10.141974,3.8645359 11.516883,2.8896114 12.748559,2.951824 Z M 8.2515779,3.058168 C 6.8475826,2.9768174 5.8247461,4.7435075 6.7644976,5.8553801 7.287995,6.8523607 8.3041871,6.1090559 8.018192,5.3227147 7.1904181,4.6417972 8.2424538,4.151954 8.8185974,4.0847722 9.6834916,3.2555226 9.3049016,3.1078041 8.2515779,3.058168 Z M 12.850547,3.2647551 C 11.346398,3.0927898 9.9729676,4.6036528 10.353998,6.0876582 10.676725,7.9946348 13.424282,8.5802884 14.632308,7.143508 15.798201,5.968387 15.180232,3.626908 13.486,3.3649983 13.279501,3.3023134 13.064289,3.2826415 12.850547,3.2647551 Z m 5.268416,1.3519724 c 2.022908,-0.037531 0.443622,2.8542038 -0.659861,1.309257 -0.424235,-0.5261659 0.09523,-1.2160839 0.659861,-1.309257 z m -6.891479,0.2118178 c 1.233144,-0.2603558 1.554847,1.8084466 0.212688,1.7346376 -1.080986,0.078204 -1.187116,-1.4606019 -0.212688,-1.7346376 z m 4.919745,2.2925109 c 1.112847,-0.050106 1.447504,1.0793188 2.262466,1.6118861 0.586996,0.8958365 -0.615854,1.072109 -0.910335,1.3004417 0.171907,0.754917 -0.0173,2.21034 -1.072383,1.393352 -0.292684,-0.231074 -1.326004,0.845088 -1.37719,-0.366568 -0.03231,-0.679102 0.422955,-1.431824 -0.637192,-1.274393 -1.006876,-0.9516648 0.674072,-1.9927843 1.26328,-2.5782377 0.152012,-0.051644 0.312064,-0.073401 0.471354,-0.086481 z m 1.06083,1.0259601 c -0.850678,1.0447427 -2.84589,-0.7890829 -2.801905,1.1690169 0.780679,0.8359458 2.080717,-0.4494503 3.031158,0.3738501 1.408438,0.093136 0.572642,-1.3733696 -0.229253,-1.542867 z m -1.063445,1.5036425 c -0.899135,-0.066028 -0.990596,0.7594272 -0.867036,1.4488602 0.632252,0.970742 1.042513,-0.500078 0.90016,-1.1244215 -0.01893,-0.1019017 0.04716,-0.2443194 -0.03312,-0.3244387 z m 0.407073,0.031384 c -0.538503,0.6692522 0.255416,2.6170592 0.806944,1.2989312 0.104677,-0.622457 -0.08842,-1.2867354 -0.806944,-1.2989312 z m 8.943405,5.6624132 c -0.281017,0.222937 -0.420257,1.201619 0.09294,1.346783 0.479147,0.619403 1.656028,0.101712 0.667766,-0.311368 0.422565,0.177151 1.070007,0.330064 0.585166,-0.43309 -0.343894,-0.379839 -0.866536,-0.499101 -1.345867,-0.602325 z M 7.5193715,15.587653 C 6.8946573,15.455253 5.4030209,16.609196 6.3042521,16.725188 7.2136227,16.267696 5.497421,17.422806 6.728758,17.362381 7.4204827,17.250203 8.2980826,16.008238 7.5193715,15.587653 Z M 23.129361,27.628999 c -0.954204,0.0043 -1.586351,1.054229 -0.395693,1.420462 0.188321,0.732495 1.780642,1.096561 1.026791,0.03345 -0.54143,-1.288546 0.758163,1.282854 0.646194,-0.141887 -0.211804,-0.573147 -0.593917,-1.25677 -1.277292,-1.312027 z m -13.107406,0.108085 c -0.7454128,0.09264 -2.0584805,1.245098 -1.3183523,1.805917 0.1431789,-0.596143 1.0905261,-1.199889 0.3272571,-0.283098 -0.3266019,1.513545 1.5066872,-0.110139 2.0850052,-0.412055 0.637778,-0.166494 -0.736839,-1.175264 -1.09391,-1.110764 z"
       id="path4194"
       fill="#444444"
       fill-rule="nonzero" />
  </g>
</svg>
