<?xml version="1.0" encoding="UTF-8" standalone="no"?>
<svg
   viewBox="0 0 254.5 225"
   id="Layer_1"
   version="1.1"
   xmlns="http://www.w3.org/2000/svg"
   xmlns:svg="http://www.w3.org/2000/svg">
  <defs
     id="defs1105" />
  <style
     id="style74">.st4{fill:#00acd7}</style>
  <path
     id="path76"
     class="st4"
     d="M 102.9668 79.875 C 100.67461 79.925 98.35 80.174609 96 80.599609 C 84.5 82.699609 75.1 88.600391 68 97.900391 C 61.4 106.50039 58.2 116.29922 59.5 127.19922 C 60.6 136.39922 64.799219 143.80039 72.199219 149.40039 C 80.199219 155.40039 89.299609 157.3 99.099609 156 C 110.99961 154.4 120.39961 148.5 127.59961 139 C 129.23503 136.84422 130.63385 134.57749 131.80469 132.21094 C 133.48895 138.30431 136.87486 143.54278 141.80078 147.80078 C 148.80078 153.80078 157.09922 156.39961 166.19922 156.59961 C 168.79922 156.29961 171.49922 156.19922 174.19922 155.69922 C 183.49922 153.79922 191.59922 149.60039 198.19922 142.90039 C 207.49922 133.50039 211.39922 122.5 209.69922 109 C 208.39922 99.4 203.49961 92.099219 195.59961 86.699219 C 186.89961 80.799219 177.29961 79.799609 167.09961 81.599609 C 155.19961 83.699609 146.39961 88.700781 139.09961 98.300781 C 135.97199 102.39428 133.63876 106.72241 132.19336 111.30078 L 100 111.30078 C 98.5 111.30078 97.8 112.30039 97.5 112.90039 C 96.1 115.50039 93.700391 120.70078 92.400391 123.80078 C 91.700391 125.50078 92.200781 126.80078 94.300781 126.80078 L 113.59961 126.80078 C 112.59961 128.20078 111.80039 129.4 110.90039 130.5 C 106.40039 135.6 100.70039 137.99961 93.900391 137.09961 C 86.000391 135.99961 80.500391 129.40039 80.400391 121.40039 C 80.300391 113.30039 83.799609 106.80039 90.599609 102.40039 C 96.299609 98.700391 102.39922 97.800391 108.69922 100.90039 C 110.79922 101.90039 111.90039 102.99922 113.40039 104.69922 C 114.70039 106.19922 114.80078 106.09922 116.30078 105.69922 C 122.50078 104.09922 126.79961 102.90078 133.09961 101.30078 C 134.29961 101.00078 134.69961 100.49961 134.09961 99.599609 C 131.59961 93.799609 127.8 89 122.5 85.5 C 116.425 81.375 109.84336 79.725 102.9668 79.875 z M 172.83008 99.132812 C 180.96074 98.866211 188.12422 104.23789 189.69922 112.90039 C 189.89922 113.90039 189.9 114.89922 190 116.19922 C 189.5 124.79922 185.20078 131.20078 177.30078 135.30078 C 172.00078 138.00078 166.5 138.30039 161 135.90039 C 153.8 132.70039 150.00078 124.8 151.80078 117 C 154.00078 107.6 160.00078 101.69961 169.30078 99.599609 C 170.48828 99.324609 171.66855 99.170898 172.83008 99.132812 z M 23.099609 99.400391 C 22.699609 99.400391 22.2 99.600391 22 99.900391 L 19.900391 102.59961 C 19.700391 102.89961 19.799219 103.09961 20.199219 103.09961 L 56.400391 103.19922 C 56.700391 103.19922 57.200391 102.89961 57.400391 102.59961 L 59.099609 100 C 59.299609 99.7 59.200781 99.400391 58.800781 99.400391 L 23.099609 99.400391 z M 8 108.59961 C 7.6 108.59961 7.1003906 108.79961 6.9003906 109.09961 L 4.8007812 111.80078 C 4.6007813 112.10078 4.6996094 112.30078 5.0996094 112.30078 L 52.400391 112.19922 C 52.800391 112.19922 53.200781 111.99961 53.300781 111.59961 L 54.099609 109.19922 C 54.199609 108.89922 53.999609 108.59961 53.599609 108.59961 L 8 108.59961 z M 31.400391 117.80078 C 31.000391 117.80078 30.600391 118.10039 30.400391 118.40039 L 29 120.90039 C 28.8 121.20039 28.900781 121.5 29.300781 121.5 L 51.099609 121.59961 C 51.399609 121.59961 51.800781 121.30039 51.800781 120.90039 L 52 118.5 C 52 118.1 51.800391 117.80078 51.400391 117.80078 L 31.400391 117.80078 z " />
</svg>
