<?xml version="1.0" encoding="UTF-8" standalone="no"?>
<svg
   viewBox="0 0 254.5 225"
   id="Layer_1"
   version="1.1"
   sodipodi:docname="go2.svg"
   xmlns:inkscape="http://www.inkscape.org/namespaces/inkscape"
   xmlns:sodipodi="http://sodipodi.sourceforge.net/DTD/sodipodi-0.dtd"
   xmlns="http://www.w3.org/2000/svg"
   xmlns:svg="http://www.w3.org/2000/svg">
  <sodipodi:namedview
     id="namedview6"
     pagecolor="#ffffff"
     bordercolor="#666666"
     borderopacity="1.0"
     inkscape:pageshadow="2"
     inkscape:pageopacity="0.0"
     inkscape:pagecheckerboard="0" />
  <defs
     id="defs1105" />
  <style
     id="style74">.st4{fill:#00acd7}</style>
  <path
     id="path76"
     class="st4"
     d="m 102.9668,79.875 c -22.81337,0.0368 -44.110232,20.18844 -43.745511,43.28853 -0.563866,17.05273 14.113576,32.09613 30.908015,33.09034 17.201656,1.68542 34.249976,-8.60138 41.675386,-24.04293 4.58319,17.39566 24.34049,27.23498 41.38223,23.65822 20.34284,-3.07463 38.55756,-21.86673 36.84293,-43.13745 0.11887,-17.62556 -16.31142,-32.221877 -33.55268,-31.935292 -15.23291,-0.286067 -30.84662,6.632435 -39.05245,19.831802 -3.67719,2.77332 -2.70119,11.22927 -7.86239,10.67256 -10.17662,0.10976 -20.39006,-0.21995 -30.54358,0.16556 -2.407655,3.43167 -11.427606,15.3199 -2.963948,15.33444 5.848268,0 11.696538,0 17.544808,0 -4.79805,9.14096 -17.364755,13.8761 -26.310791,7.78155 -11.211135,-7.68708 -7.770843,-26.02271 3.31079,-32.18194 7.139763,-5.298516 18.279791,-4.260967 23.591471,3.14414 6.18101,0.0801 12.62079,-3.13704 18.90853,-4.24375 2.48875,-4.672658 -5.62043,-11.795235 -9.62339,-15.129373 C 117.59465,81.826453 110.26168,79.637993 102.9668,79.875 Z m 69.86328,19.257812 c 11.18214,-0.904441 19.87295,11.269158 16.48928,21.671358 -2.8447,13.31237 -20.81127,22.11136 -31.99619,12.83212 -11.10568,-8.93623 -5.1905,-27.77035 7.0977,-32.45659 2.66266,-1.11741 5.50797,-1.94135 8.40921,-2.046888 z M 23.099609,99.400391 c -2.923302,1.217709 -4.414808,4.987009 0.169135,3.707669 11.212386,-0.0956 22.509628,0.31443 33.669147,-0.0962 2.960572,-2.42799 2.196028,-4.534776 -1.645152,-3.611509 -10.731043,0 -21.462087,0 -32.19313,0 z M 8,108.59961 c -2.9225428,1.21742 -4.4153919,4.99475 0.1691391,3.69458 14.9247939,-0.13103 29.9018139,0.13382 44.7939469,-0.24478 2.827835,-3.46846 -0.824478,-3.9168 -3.74853,-3.4498 -13.738185,0 -27.476371,0 -41.214556,0 z m 23.400391,9.20117 c -3.258535,1.84591 -2.550743,4.91319 1.408395,3.71525 6.23739,-0.1069 12.585231,0.32774 18.753909,-0.11604 1.962915,-3.72401 -1.722595,-4.02503 -4.547357,-3.59921 -5.204982,0 -10.409965,0 -15.614947,0 z" />
</svg>
