<svg width="32" height="32" xmlns="http://www.w3.org/2000/svg"><g fill="#478cbf" stroke-width=".32"><path d="M14.17 7.512c-.823.183-1.636.437-2.399.82.018.674.06 1.32.149 1.975-.297.19-.607.352-.883.574-.281.216-.57.423-.824.676a15.73 15.73 0 00-1.6-.932c-.597.644-1.157 1.339-1.613 2.116.359.563.743 1.129 1.1 1.57v4.765l.025.002 2.923.281a.314.314 0 01.284.291l.09 1.291 2.548.182.176-1.191a.315.315 0 01.312-.268h3.082c.156 0 .29.113.313.268l.176 1.191 2.548-.182.09-1.29a.314.314 0 01.283-.292l2.922-.28a.115.115 0 01.026-.003v-.38h.002V14.31c.411-.518.8-1.09 1.1-1.57-.457-.777-1.017-1.473-1.614-2.116a15.75 15.75 0 00-1.6.932c-.254-.253-.542-.46-.824-.676-.276-.222-.587-.384-.883-.574a18.37 18.37 0 00.149-1.975c-.763-.383-1.576-.637-2.399-.82a17.044 17.044 0 00-.89 1.733 6.085 6.085 0 00-.934-.075h-.011a6.08 6.08 0 00-.934.075 16.914 16.914 0 00-.89-1.733zm-2.313 6.973a1.76 1.76 0 11-1.762 1.76c0-.973.79-1.76 1.762-1.76zm8.285 0a1.76 1.76 0 11.002 3.521 1.76 1.76 0 01-.002-3.521zM16 15.514c.313 0 .566.231.566.516v1.62c0 .285-.253.516-.566.516s-.567-.23-.567-.515V16.03c0-.285.253-.516.567-.516z"/><path d="M21.277 19.96l-.09 1.297a.315.315 0 01-.292.292l-3.113.222h-.023a.315.315 0 01-.31-.268l-.18-1.21h-2.54l-.178 1.21a.314.314 0 01-.333.268l-3.113-.222a.315.315 0 01-.292-.292l-.09-1.297-2.628-.253c.001.282.005.591.005.653 0 2.775 3.52 4.11 7.894 4.125h.011c4.374-.016 7.894-1.35 7.894-4.125 0-.063.004-.37.005-.653zm-8.082-3.61a1.169 1.169 0 11-2.337 0 1.169 1.169 0 012.337 0m5.611 0a1.168 1.168 0 102.337 0 1.168 1.168 0 00-2.337 0"/></g></svg>