<?xml version="1.0" encoding="UTF-8" standalone="no"?>
<svg
   width="43"
   height="43"
   version="1.1"
   id="svg1238"
   xmlns="http://www.w3.org/2000/svg"
   xmlns:svg="http://www.w3.org/2000/svg">
  <defs
     id="defs1234">
    <path
       d="M27.22 20.842l-1.571-.791v-.004c0-.546.441-.988.986-.988a.987.987 0 01.584 1.783m8.404-9.334a5.124 5.124 0 00-7.137-.12.49.49 0 00-.011.705l.647.648a.488.488 0 00.639.046 2.921 2.921 0 011.762-.588 2.947 2.947 0 012.943 2.95c0 .815-.33 1.553-.862 2.087-4.075 4.088-9.518-7.367-21.864-1.474a1.68 1.68 0 00-.732 2.358l2.118 3.672a1.672 1.672 0 002.268.625l.053-.03-.042.03.939-.527s1.614-.98 2.957-2.212a.517.517 0 01.674-.021l.003.001.003.003a.486.486 0 01.022.738 22.053 22.053 0 01-3.137 2.352l-.031.018-.94.527a2.688 2.688 0 01-3.628-1l-2.003-3.465C6.42 21.553 4.088 26.799 5.34 33.435a.49.49 0 00.48.399h2.278a.489.489 0 00.484-.428 3.344 3.344 0 013.314-2.923c1.7 0 3.104 1.274 3.313 2.923a.49.49 0 00.485.428h2.221a.488.488 0 00.484-.428 3.345 3.345 0 013.314-2.923c1.7 0 3.104 1.274 3.314 2.923a.489.489 0 00.484.428h2.193a.489.489 0 00.488-.482c.052-3.105.885-6.67 3.265-8.455 8.238-6.181 6.07-11.478 4.166-13.389"
       id="a" />
  </defs>
  <path
     id="use1236"
     style="fill:#02303a;fill-rule:evenodd"
     d="M 32.078125 10 A 5.124 5.124 0 0 0 28.486328 11.388672 A 0.49 0.49 0 0 0 28.474609 12.09375 L 29.121094 12.740234 A 0.488 0.488 0 0 0 29.761719 12.787109 A 2.921 2.921 0 0 1 31.523438 12.199219 A 2.947 2.947 0 0 1 34.466797 15.148438 C 34.466797 15.963438 34.135516 16.702328 33.603516 17.236328 C 29.528516 21.324328 24.086234 9.8687187 11.740234 15.761719 A 1.68 1.68 0 0 0 11.007812 18.119141 L 13.126953 21.792969 A 1.672 1.672 0 0 0 15.394531 22.417969 L 15.447266 22.386719 L 15.404297 22.417969 L 16.34375 21.890625 C 16.34375 21.890625 17.957781 20.909734 19.300781 19.677734 A 0.517 0.517 0 0 1 19.974609 19.65625 L 19.978516 19.658203 L 19.980469 19.660156 A 0.486 0.486 0 0 1 20.003906 20.398438 A 22.053 22.053 0 0 1 16.865234 22.751953 L 16.835938 22.769531 L 15.894531 23.296875 A 2.688 2.688 0 0 1 12.267578 22.296875 L 10.263672 18.830078 C 6.4196719 21.552078 4.0878438 26.799547 5.3398438 33.435547 A 0.49 0.49 0 0 0 5.8203125 33.833984 L 8.0976562 33.833984 A 0.489 0.489 0 0 0 8.5820312 33.40625 A 3.344 3.344 0 0 1 11.896484 30.482422 C 13.596484 30.482422 14.999984 31.75725 15.208984 33.40625 A 0.49 0.49 0 0 0 15.693359 33.833984 L 17.914062 33.833984 A 0.488 0.488 0 0 0 18.398438 33.40625 A 3.345 3.345 0 0 1 21.712891 30.482422 C 23.412891 30.482422 24.817344 31.75725 25.027344 33.40625 A 0.489 0.489 0 0 0 25.511719 33.833984 L 27.703125 33.833984 A 0.489 0.489 0 0 0 28.191406 33.351562 C 28.243406 30.246563 29.077031 26.681484 31.457031 24.896484 C 39.695031 18.715484 37.527047 13.418813 35.623047 11.507812 A 5.124 5.124 0 0 0 32.078125 10 z M 26.634766 19.058594 A 0.987 0.987 0 0 1 27.21875 20.841797 L 25.648438 20.050781 L 25.648438 20.046875 C 25.648438 19.500875 26.089766 19.058594 26.634766 19.058594 z " />
</svg>
