<?xml version="1.0" encoding="UTF-8"?>
<svg width="43" height="43" version="1.1" xmlns="http://www.w3.org/2000/svg">
 <path d="m35.605 11.488c1.9 1.9 4.0701 7.2204-4.1699 13.4-2.384 1.79-3.2175 5.3609-3.2695 8.4609-0.0038 0.26694-0.22131 0.47995-0.48828 0.48047h-2.1895c-0.24603-5.94e-4 -0.45368-0.18362-0.48438-0.42773-0.21-1.65-1.6105-2.9199-3.3105-2.9199-1.6809 0.0018-3.0972 1.2524-3.3086 2.9199-0.03027 0.24433-0.23818 0.42758-0.48438 0.42773h-2.2207c-0.24586-1e-3 -0.45327-0.18384-0.48438-0.42773-0.21-1.65-1.6086-2.9199-3.3086-2.9199-1.6809 0.0018-3.0992 1.2524-3.3105 2.9199-0.03069 0.24411-0.23834 0.42714-0.48438 0.42773h-2.2793c-0.23466-6.16e-4 -0.43641-0.166-0.48047-0.39648-1.26-6.63 1.0799-11.882 4.92-14.601l2 3.4707c0.73616 1.2657 2.3504 1.7102 3.6309 1l0.93945-0.52734 0.0293-0.01758c1.1142-0.68873 2.1657-1.4748 3.1406-2.3496 0.22031-0.20106 0.20917-0.55158-0.02344-0.73828l-2e-3 -2e-3 -0.0039-2e-3c-0.19907-0.16051-0.4854-0.15138-0.67383 0.02148-1.35 1.229-2.9609 2.2109-2.9609 2.2109l-0.9375 0.52734 0.04297-0.03125-0.05274 0.03125c-0.79981 0.45122-1.8154 0.17202-2.2715-0.625l-2.1191-3.6699c-0.49255-0.84942-0.15436-1.9397 0.73242-2.3613 12.38-5.9 17.82 5.5607 21.9 1.4707 0.532-0.54 0.86133-1.2748 0.86133-2.0898 9e-6 -1.6253-1.3141-2.9457-2.9395-2.9512-0.63499-5.82e-4 -1.2526 0.20574-1.7598 0.58789-0.19525 0.14715-0.46887 0.12712-0.64062-0.04687l-0.64648-0.64453c-0.19636-0.19594-0.19104-0.51576 0.01172-0.70508 0.97028-0.9127 2.2579-1.4119 3.5898-1.3906l-0.0332-0.021484c1.3315 0.023814 2.6003 0.56522 3.5391 1.5098zm-8.9473 7.5684c-0.545 0-0.98438 0.44228-0.98438 0.98828v0.0039l1.5684 0.79102c0.76293-0.56534 0.36558-1.7758-0.58398-1.7793z"/>
</svg>
