<svg xmlns="http://www.w3.org/2000/svg" viewBox="0 0 32 32"><path d="M15.5 22.8h-.3c-.1-.1-.3-.1-.4-.1-.3-.1-.7-.2-1-.3-.3-.2-.4-.4-.2-.7.2-.3.3-.6.4-.9.5-1.1.9-2.2.7-3.5-.1-1-.6-1.8-1.6-2.2-.8-.3-1.6-.7-2.2-1.3-1.4-1.3-2.4-2.7-2.3-4.7h14.8c0 1-.2 1.9-.7 2.7-.9 1.6-2.2 2.6-3.8 3.3-1 .5-1.6 1.3-1.7 2.4-.1 1.4.5 2.7 1.1 3.9.3.6.2.7-.4 1-.2.1-.3.1-.5.2-.3.1-.7.1-1 .2H16c-.1-.1-.3-.1-.5 0zM28 13.9c-.2.2-.2.5-.3.7-.5 1.1-1.3 1.9-2.4 2.2-.8.2-1 .8-1 1.5-.1.8.2 1.5.5 2.2.3.6.2.8-.5.9-.7.1-1.3.1-2-.1-.3-.1-.4-.3-.2-.6.4-.7.7-1.4.6-2.3-.1-1-.3-1.3-1-1.4-.2 0-.4-.1-.5-.3.1 0 .1-.1.2-.1 1.6-.6 2.7-1.7 3.5-3.1.1-.2.3-.2.5-.2H28v.6zm-24-.7h2.5c.2 0 .3 0 .4.2.9 1.5 2.2 2.5 3.8 3.2-.1.1-.2.1-.3.2-.8.3-1.1.8-1.1 1.7 0 .6.2 1.2.5 1.8.1.2.2.4.3.5.1.2.1.4-.1.4-.9.4-1.8.4-2.7 0-.3 0-.3-.2-.2-.5.4-.8.8-1.6.7-2.5-.1-.8-.3-1-1-1.2-1.3-.4-2.1-1.4-2.6-2.6-.1-.1 0-.3-.2-.3v-.9z"/></svg>