<?xml version="1.0" encoding="UTF-8"?>
<svg width="32px" height="32px" viewBox="0 0 32 32" version="1.1" xmlns="http://www.w3.org/2000/svg" xmlns:xlink="http://www.w3.org/1999/xlink">
    <!-- Generator: Sketch 49.1 (51147) - http://www.bohemiancoding.com/sketch -->
    <title>grunt</title>
    <desc>Created with Sketch.</desc>
    <defs></defs>
    <g id="grunt" stroke="none" stroke-width="1" fill="none" fill-rule="evenodd">
        <path d="M17.3686151,1.5 C15.7198975,2.08235231 15.302407,2.97135678 15.1789205,3.77762592 C14.7548106,3.47408438 14.8019199,2.48691398 14.7785239,2.23383665 C14.3569739,2.28422655 13.1458962,3.45882068 13.200103,4.93871964 C13.0896293,4.96875634 12.9802421,5.00062848 12.8719633,5.0342865 C12.5086056,4.54316216 11.4653422,3.27355531 10.1089293,2.83623617 C9.65767246,2.69043937 9.20408172,2.61675733 8.76126106,2.61675733 C7.13710866,2.61675733 6.1780891,3.58477542 6.16973555,3.59480185 L5.71489743,4.12660997 L6.40100542,4.26121337 C6.41228401,4.26355167 7.55427323,4.5025101 8.0267529,5.24862282 C8.10512501,5.37252916 8.12609581,5.61807177 8.14790109,5.8783348 C8.16127025,6.03315535 8.12834284,6.18406338 8.09709743,6.33002708 C8.07356233,6.43842633 8.04979253,6.54805818 8.04476389,6.65870793 C7.61639895,6.67445189 7.24889061,6.75912524 6.95186154,6.91120285 C6.5485616,7.11749074 6.27551965,7.44659144 6.16205568,7.8626764 C5.88399812,8.88258689 6.78961929,10.018138 6.82044745,10.0544833 C6.92605768,10.2429745 6.97082436,11.612135 6.72685467,12.1600648 C6.69343178,12.2357626 6.60136889,12.3100301 6.48498423,12.4040262 C6.44847114,12.4335188 6.40770738,12.4641905 6.36450971,12.4969423 C6.02036263,12.7567029 5.5,13.1491497 5.5,14.0537591 C5.5,15.2914881 6.75442746,15.9625741 7.76255563,16.5021481 C7.92798805,16.5911304 8.08582753,16.6753495 8.22853326,16.7575633 C8.37909272,16.8445411 8.91015155,17.3945601 8.91048621,18.2170387 C8.91048621,18.6026354 8.87459464,20.4382873 8.70311219,21.7101107 C8.05645538,21.1557302 7.46064134,20.261721 7.32685417,19.2608455 C7.32685417,19.2608455 5.69057565,20.5234613 6.17133064,23.2260942 C6.46513042,24.8780024 7.46766058,25.8049981 8.79966913,26.2895965 C9.29206345,27.357821 10.4440926,28.8510589 12.5676498,29.0690465 C13.376136,29.7305953 14.4951899,30.159012 16.1252055,30.1603564 L16.1252055,30.1606954 C16.1265528,30.1606954 16.1277263,30.1603564 16.129204,30.1603564 C16.1304645,30.1603564 16.1317249,30.1606954 16.1332026,30.1606954 L16.1332026,30.1603564 C17.7629965,30.1589374 18.8819461,29.7305518 19.6903975,29.0690689 C21.8138461,28.8512309 22.9660273,27.357959 23.458426,26.2896413 C24.7904345,25.8050577 25.7930038,24.8780632 26.087034,23.2260942 C26.5677889,20.5234613 24.9315104,19.2608455 24.9315104,19.2608455 C24.7976798,20.2615971 24.2019701,21.1555124 23.5554306,21.7099082 C23.3837526,20.4380926 23.3477393,18.6026158 23.3481479,18.2170387 C23.3481479,17.3945601 23.8794414,16.8445411 24.0301703,16.7575633 C24.1724588,16.6753495 24.3305417,16.5911304 24.4960567,16.5021481 C25.5038502,15.9625741 26.7582777,15.2914881 26.7582777,14.0537591 C26.7582777,13.1491497 26.2381845,12.7567029 25.8939462,12.4969423 C25.8504225,12.4641905 25.8099674,12.4335188 25.7735412,12.4040262 C25.6568219,12.3100301 25.5648285,12.2357626 25.5312405,12.1600648 C25.2876924,11.612135 25.3323938,10.2429745 25.4379215,10.0544833 C25.4688322,10.018138 26.3745316,8.88258689 26.0964697,7.8626764 C25.9828406,7.44659144 25.7099595,7.11749074 25.3065726,6.91120285 C25.0092523,6.75916522 24.6422308,6.67448406 24.2140266,6.65870793 C24.2089763,6.54818683 24.1852586,6.43867016 24.1617844,6.33043172 C24.1301217,6.18455103 24.0976029,6.03366473 24.1105548,5.87876117 C24.1327773,5.61833168 24.1533309,5.37301681 24.231703,5.24902659 C24.7045173,4.50274698 25.8464283,4.26388807 25.8577851,4.26154891 L26.5441669,4.12703678 L26.0892158,3.59522822 C26.0810274,3.58545257 25.1219557,2.6171624 23.4977989,2.6171624 C23.0546436,2.6171624 22.6010355,2.69077664 22.1497744,2.83657344 C20.793305,3.27397647 19.7501762,4.54362808 19.3869663,5.03469114 C19.2110463,4.97999017 19.0322013,4.93010532 18.8505312,4.88497181 C18.6163797,4.00044183 19.3517267,2.73155039 19.3517267,2.73155039 C19.3517267,2.73155039 18.5931662,2.56277306 17.4673973,3.58460505 C17.3215971,3.22099011 17.0157103,2.43652626 17.3687976,1.5 L17.3686151,1.5 Z M8.77503007,3.45586434 C9.11525246,3.45586434 9.44812965,3.50740079 9.76403461,3.60933364 C10.7619403,3.93120908 11.5326399,4.90552059 11.8764437,5.40858242 C11.7868234,5.44854993 11.6980506,5.48981829 11.6102688,5.53260697 C11.4692103,5.6013938 11.3379788,5.67133064 11.2154702,5.74170994 C11.0682617,5.43680324 10.7487537,4.97492458 10.0593165,4.49048525 C9.5946036,4.16413314 9.03831028,3.99142287 8.44994142,3.99142287 C8.24658771,3.99142287 8.07089372,4.01189993 7.93608083,4.03519816 C7.75224191,3.91261657 7.56556921,3.81424506 7.39310885,3.73659226 C7.65905333,3.62379762 8.1587581,3.45586434 8.77503007,3.45586434 Z M23.483491,3.45621205 C24.0998455,3.45621205 24.5996459,3.62413359 24.8655904,3.73676003 C24.6933256,3.81445324 24.5067833,3.91280172 24.3230444,4.03529943 C24.1881141,4.0120025 24.0121637,3.99152414 23.8084188,3.99152414 C23.2200543,3.99152414 22.6636045,4.16414488 22.1992263,4.49049699 C21.5096935,4.97521231 21.1902463,5.43723135 21.0430508,5.74210328 C20.9204206,5.67164836 20.7890586,5.60165414 20.647848,5.53279821 C20.5602531,5.49010862 20.4716759,5.44892545 20.3822556,5.40904356 C20.7258594,4.90601041 21.4965894,3.93157939 22.4948255,3.60968221 C22.8108956,3.50766547 23.1431034,3.45621205 23.483491,3.45621205 Z M23.670155,4.62927673 C23.6247798,4.68736432 23.5816082,4.74805185 23.5413009,4.81165226 C23.3559016,5.10441545 23.3257515,5.4625154 23.2965097,5.8085844 C23.2660119,6.16784611 23.2372482,6.50919462 23.05264,6.75790306 C22.8185146,6.80172182 22.6005226,6.8548842 22.4094515,6.90773365 C22.2827966,6.73221873 22.0946548,6.51509165 21.8211131,6.2829634 C21.9012628,6.01493227 22.129512,5.38010864 22.5792041,5.02246158 C22.8869077,4.77736533 23.253625,4.64531146 23.670155,4.62927673 Z M8.58881374,4.62929976 C9.00520467,4.64545401 9.37191329,4.77763654 9.6794734,5.02246158 C10.1289134,5.379827 10.3571061,6.01423643 10.437408,6.28253659 C10.1636533,6.51482697 9.97540721,6.7320853 9.84868709,6.90768889 C9.65782458,6.85490159 9.44007599,6.80180005 9.20624182,6.75801433 C9.02142933,6.50926938 8.99253527,6.16772659 8.96236775,5.80824757 C8.93296082,5.46226244 8.90288022,5.10424638 8.71739841,4.81131542 C8.6771649,4.74784279 8.63408458,4.68727782 8.58881374,4.62929976 Z M16.1288911,5.50052361 C17.6896313,5.50102343 19.0891028,5.79789343 20.2893191,6.38333681 C21.0852532,6.77141478 21.3848249,7.06479428 21.4974196,7.22653063 C19.5915718,8.07282161 18.5341568,9.81153671 18.5227,9.83034393 L18.3282866,10.1556773 L18.639428,9.9394538 C18.6409058,9.93845415 18.6489377,9.9321803 18.6628067,9.92148715 C19.1490727,9.53865514 20.8440956,8.25497287 22.2488434,7.80972829 C22.6416167,7.68523651 23.4040193,7.47610746 24.0905619,7.47610746 C24.4407242,7.47610746 24.7243841,7.53066673 24.9347658,7.63844751 C25.1334559,7.74021346 25.2555907,7.88392666 25.3087284,8.07776637 C25.4473399,8.58567387 24.964929,9.34148314 24.7849582,9.56623662 C24.7584851,9.59933571 24.7342676,9.63974264 24.7121668,9.6861735 C24.6933865,9.42739256 24.68472,9.15476524 24.6939732,8.88201449 C24.4693879,9.37195881 24.3291944,10.6455329 24.4082358,11.2913009 C24.609512,12.9305771 25.2885355,13.7731098 25.2885355,13.7731098 C25.2447555,13.6854593 25.1902488,13.3417946 25.1382542,12.9380244 C25.1794135,12.9734244 25.2206423,13.0068226 25.2606194,13.0391167 L25.2878619,13.0614201 C25.5433622,13.2672903 25.7849936,13.4614773 25.7849936,14.0824297 C25.7849936,14.8760838 24.925004,15.3409514 24.0934174,15.7902897 C23.9330832,15.8767651 23.7741788,15.962741 23.6221156,16.0502194 C23.1366796,16.3300329 22.6133094,16.9862593 22.5549041,17.9640609 C22.5056694,18.7833424 22.6039432,20.7579709 22.7462186,22.2110033 C22.0494231,22.4807112 21.2507465,22.5690489 20.524518,22.5898137 C20.4109845,22.3586534 20.3047571,22.1114657 20.2170622,21.8541134 C20.1796321,21.7445776 19.1210305,18.9959045 18.7402052,18.3696883 C19.0458095,20.5530538 19.7209084,22.4940287 20.0559109,23.3855722 C19.862684,23.3592581 19.6457699,23.3441561 19.4006875,23.3441561 L16.1334025,23.3421568 L16.125388,23.3421568 C15.1837666,23.3428262 12.8576988,23.3441561 12.8576988,23.3441561 C12.612586,23.3441561 12.3956285,23.3592599 12.2023842,23.3855948 C12.5375258,22.4940643 13.2126377,20.5530769 13.5182507,18.3696883 C13.1370907,18.9959045 12.0784892,21.7445776 12.0411416,21.8541134 C11.953451,22.1114657 11.8472236,22.3586534 11.7336901,22.5898137 C11.0075094,22.5690433 10.2090154,22.4807138 9.51230246,22.2110707 C9.65455618,20.7580322 9.75254305,18.7833554 9.70370825,17.9640609 C9.64522037,16.9862593 9.12161107,16.3300329 8.63609256,16.0502194 C8.48402929,15.962741 8.32519452,15.8767651 8.16519494,15.7902897 C7.33360829,15.3409514 6.47361871,14.8760838 6.47361871,14.0824297 C6.47361871,13.4614773 6.71509364,13.2672903 6.97059401,13.0614201 L6.99814942,13.0391167 C7.03795699,13.0069595 7.07899456,12.9737061 7.11994955,12.9384738 C7.06792459,13.3420454 7.01337443,13.6854928 6.96949005,13.7731098 C6.96949005,13.7731098 7.64885696,12.9305771 7.85012881,11.2913009 C7.9291659,10.6455329 7.78872023,9.37195881 7.56405236,8.88201449 C7.57330124,9.15462355 7.56466084,9.42710831 7.54592838,9.68576843 C7.52386666,9.63951185 7.49972743,9.59923792 7.47331509,9.56623662 C7.29334436,9.34148314 6.81125072,8.58567387 6.94986226,8.07776637 C7.0026652,7.88392666 7.12473915,7.74021346 7.32350754,7.63844751 C7.5338066,7.53066673 7.81796634,7.47610746 8.16771143,7.47610746 C8.85467129,7.47610746 9.61666097,7.68523651 10.0097689,7.80972829 C11.4145168,8.25497287 13.1095961,9.53865514 13.5954449,9.92148715 C13.6094008,9.9321803 13.6175892,9.93845241 13.619093,9.9394538 L13.9299867,10.1556773 L13.7355733,9.83034393 C13.7244295,9.81153541 12.6666755,8.07260169 10.7604974,7.22637416 C10.8731138,7.06457001 11.1725159,6.77127005 11.9680372,6.38333681 C13.1684186,5.79789343 14.5684899,5.50102517 16.1288911,5.50052361 Z M14.6006437,11.0088206 C14.6006437,11.0088206 15.4116768,11.9984875 16.1252055,12.0060909 L16.1252055,12.0066733 C16.1264659,12.0066733 16.1277263,12.0063256 16.129204,12.0063256 C16.1304645,12.0063256 16.1317249,12.0066733 16.1332026,12.0066733 L16.1332026,12.0060909 C16.8465096,11.9984884 17.6578078,11.008984 17.6579252,11.0088436 C17.1010712,11.3458693 16.6036873,11.4626643 16.1292953,11.4730245 C15.6547251,11.4626643 15.1575977,11.3458672 14.6006437,11.0088206 Z M9.40885232,11.0865781 C9.10240486,11.0857393 8.78207539,11.1209133 8.44945029,11.2015733 C8.69255073,11.2550425 8.94740785,11.3337719 9.20727189,11.4321252 C9.20501182,11.433077 9.20281261,11.4339419 9.20055689,11.4349329 C8.97137758,11.5358635 8.84288418,11.8203639 8.81096511,12.097504 C8.74688357,12.6586339 9.10330454,13.1688692 9.10330454,13.1688692 C9.13970463,12.7515786 9.22708223,12.4539019 9.32862435,12.2419448 C9.35264624,12.8182219 9.50623505,13.5593516 10.0430092,14.1532689 C10.4284634,14.5800648 12.0354827,15.4611899 13.1140815,14.4949764 C13.1703745,14.6316921 13.2297055,14.7931581 13.2797008,14.969062 C13.4426254,15.5433103 13.1307451,16.3825842 13.1307451,16.3825842 C13.1307451,16.3825842 13.9735973,15.4280643 13.9088073,14.5625363 C14.5135138,14.5358997 15.1075981,14.0910119 15.0908562,13.4699912 C15.0908562,13.4699912 14.0356013,14.0523448 13.1032549,12.9800477 C12.6354648,12.4421079 11.2815858,11.0917089 9.40885232,11.086579 L9.40885232,11.0865781 Z M22.8496253,11.0865781 C20.9769092,11.0917081 19.6227607,12.442107 19.1550402,12.9800469 C18.2226937,14.0523439 17.1677562,13.4699903 17.1677562,13.4699903 C17.1509578,14.0910732 17.7449855,14.5359783 18.3496225,14.5625354 C18.2847151,15.42806 19.1276369,16.3825833 19.1276369,16.3825833 C19.1276369,16.3825833 18.8157392,15.5433094 18.9786638,14.9690612 C19.02862,14.7932907 19.0878554,14.631942 19.1440571,14.4952898 C20.2224429,15.4612812 21.8293362,14.5802195 22.2147686,14.1535153 C22.7519166,13.5593394 22.9055271,12.8178702 22.9295142,12.2414945 C23.0311607,12.4534799 23.1186295,12.7512844 23.1550557,13.1688684 C23.1550557,13.1688684 23.511481,12.658633 23.4470605,12.0975031 C23.4154804,11.8203631 23.2870652,11.5358626 23.0577164,11.434932 C23.0554998,11.4339541 23.0533006,11.4331109 23.0510884,11.4321721 C23.3109915,11.3337984 23.5658834,11.2550517 23.8090056,11.2015755 C23.4764022,11.1209155 23.1560684,11.0857406 22.8496253,11.0865803 L22.8496253,11.0865781 Z M10.3982176,11.9959163 C11.4912634,12.6104071 12.4949974,13.4329757 12.9127488,14.0688872 C12.9127488,14.0688872 12.9135746,14.0704214 12.9136615,14.0705257 C12.5921716,14.2571402 11.6993719,14.6546856 10.7883831,13.9776544 C10.2064033,13.5447589 10.2323419,12.5038103 10.3982306,11.9959163 L10.3982176,11.9959163 Z M21.859921,11.9960901 C22.0260445,12.5040498 22.0518875,13.5448041 21.4696555,13.9776479 C20.5583321,14.6548804 19.6655889,14.2568842 19.3444684,14.0703397 C19.3444684,14.0702528 19.3452942,14.0688794 19.3452942,14.0688794 C19.7632672,13.43303 20.7669752,12.6105592 21.8599384,11.9960888 L21.859921,11.9960901 Z M7.11714185,20.8437204 C7.72770716,22.7702856 9.75975787,23.3213056 11.2815467,23.3880366 C11.1305309,23.6232863 10.9924452,23.8137916 10.8897296,23.9486384 C10.861205,23.97594 10.8345536,24.0030925 10.8098407,24.0297864 C10.4052629,24.466591 10.3281599,25.0673115 10.5802311,25.8144148 C9.3174718,25.794069 7.99752852,25.2539269 7.32685417,24.1503518 C6.64716564,23.0322684 6.83782822,21.1234499 7.11714185,20.8437204 Z M25.140975,20.8437204 C25.4203712,21.1234499 25.610873,23.0322684 24.9316017,24.1503518 C24.2605666,25.2539004 22.9405538,25.7940446 21.6781074,25.8144148 C21.9301699,25.0673115 21.8529061,24.466591 21.4485674,24.0297864 L21.4485891,24.0297864 C21.4235546,24.0027174 21.3965642,23.9751802 21.3676006,23.9474931 C21.2649675,23.8127011 21.1272557,23.6226361 20.9766614,23.3880366 C22.4985328,23.3212747 24.5306487,22.7702191 25.140975,20.8437204 Z M16.1292258,24.0642629 C17.098672,24.0646975 17.9179674,24.0653581 18.5700006,24.0659449 L19.4537382,24.0662926 C20.3001935,24.0662926 20.6714092,24.2863677 20.8331647,24.4709325 C21.0695284,24.7409699 21.0852271,25.1751049 20.8807782,25.7621369 C20.5114835,26.8201464 19.5188064,29.381004 16.1290432,29.3854323 C12.7388715,29.381004 11.746629,26.8202303 11.3772474,25.7621369 C11.172881,25.1751049 11.1884016,24.7407195 11.4250174,24.4709325 C11.5866903,24.2864512 11.9580146,24.0662926 12.8042222,24.0662926 L13.6882684,24.0659449 C14.3404711,24.0653581 15.1593579,24.0646845 16.1291345,24.0642629 L16.1292258,24.0642629 Z M13.9735147,24.9262561 C13.5997086,24.9262561 13.1624034,24.9262674 12.9026437,24.9266038 L12.6846691,24.9269515 C12.3782825,24.9269515 12.2272971,25.0146094 12.1546099,25.0879677 C12.0490822,25.194997 12.0327837,25.3437197 12.1054709,25.5296214 C12.3003146,26.0267514 12.7421399,26.4325465 12.8728152,26.5451738 C13.0434283,26.6928926 13.2896407,26.7804649 13.5309374,26.7804649 L13.5309374,26.7804214 C13.7782538,26.7804214 13.9974931,26.6915378 14.1481395,26.5302839 C14.5689028,26.0804436 14.8174709,25.5965897 14.8774626,25.4478683 C14.9120503,25.3629802 14.9515666,25.2017346 14.8281627,25.0749871 C14.7321621,24.9767307 14.5650607,24.926257 14.3319524,24.926257 L13.9735147,24.9262561 Z M17.9264992,24.9262783 C17.6934734,24.9262783 17.5267936,24.9767459 17.4306278,25.0749188 C17.3073021,25.2017498 17.3463882,25.3631689 17.3808108,25.4478896 C17.4409676,25.5965275 17.689879,26.0805492 18.1105597,26.5303056 L18.1105597,26.5303278 C18.2612061,26.6915817 18.4803586,26.7804879 18.7276705,26.7804879 C18.9689673,26.7804879 19.2146146,26.6929152 19.3857276,26.5451964 C19.516316,26.4326526 19.9582891,26.0268583 20.1529633,25.5296444 C20.2257374,25.3434924 20.2092954,25.1948522 20.1036852,25.0879903 C20.0310806,25.0145486 19.8801865,24.9269745 19.5740563,24.9269745 L19.3559687,24.9266268 C19.0960394,24.9262791 18.658995,24.9262791 18.2851889,24.9262791 L17.9264992,24.9262783 Z M9.88976812,26.5811328 C10.2263961,26.6438252 10.5750025,26.6874297 10.9312366,26.715039 C11.1246591,27.1659751 11.3463236,27.6054576 11.6190961,28.0113419 C10.809619,27.6843517 10.2528911,27.115484 9.88976812,26.5811328 Z M22.3679923,26.5812632 C22.0049259,27.1155272 21.4483023,27.6842687 20.6391555,28.011203 C20.9119106,27.6053611 21.1335665,27.1659454 21.327015,26.7150573 C21.6830839,26.6874632 22.0315121,26.6439083 22.3679923,26.5812632 Z" id="path4855" fill="#333333" fill-rule="nonzero"></path>
    </g>
</svg>