<svg xmlns="http://www.w3.org/2000/svg" viewBox="0 0 32 32"><path fill="#CD3F45" d="M20.1 22.8c-.2.3-.3.5-.4.7-.1.2-.2.5-.2.7-.1 1-.2 2.1-.3 3.1 0 .4-.2.6-.5.7-.7.2-1.5.5-2.2.7h-1.1c-.1 0-.3-.1-.4-.1-.6-.2-1.2-.4-1.7-.7-.1-.1-.3-.3-.3-.5-.1-.8-.1-1.5-.1-2.3 0-.8 0-1.6-.6-2.2v-.1c2.5.7 5.1.7 7.8 0zm1.5-12.7c-.1 1.4-.3 2.8-.4 4.2l-.4 4.1c-.1 1-.2 2.1-.3 3.2 0 .7-.4 1-1 1.1-1 .2-1.9.3-2.9.4-1.4.1-2.8 0-4.2-.4-.5-.1-.6-.5-.7-.9 0-.5-.1-1-.2-1.4-.1-.9-.2-1.8-.3-2.8l-.1-.9c0-.1-.1-.2-.1-.3-.1-1.6-.4-3.1-.6-4.7-.1-.5-.1-1-.1-1.5 3.8.8 7.6.8 11.3-.1zm-11.3-.6c.2-.1.4-.2.6-.2.9-.1 1.9-.2 2.8-.3.1 0 .4-.2.4-.2-.3-.9-.3-1.8-1-2.5-.8-.8-1.5-1.7-2.3-2.5.6-.6.6-.6 1.1-.1.4.4.7.8 1.1 1.1 1.1.9 1.8 2.1 2 3.5.2.6.5.7 1 .7 1.7.1 3.3.2 5 .3.2 0 .4.1.7.2-1.7 1.3-10.4 1.2-11.4 0z"/></svg>