<?xml version="1.0" encoding="UTF-8"?>
<svg width="32px" height="32px" viewBox="0 0 32 32" version="1.1" xmlns="http://www.w3.org/2000/svg" xmlns:xlink="http://www.w3.org/1999/xlink">
    <!-- Generator: Sketch 49.1 (51147) - http://www.bohemiancoding.com/sketch -->
    <title>gulp</title>
    <desc>Created with Sketch.</desc>
    <defs></defs>
    <g id="gulp" stroke="none" stroke-width="1" fill="none" fill-rule="evenodd">
        <path d="M19.4223451,29.5956138 L19.7101766,24.799482 L20.5049354,23.4427967 C20.5049354,23.4427967 18.696057,24.1827683 15.6676999,24.1827683 C12.6392898,24.1827683 10.8578315,23.4564802 10.8578315,23.4564802 L11.7485341,24.9364234 L12.0636267,29.5956138 C12.0636267,30.0951159 13.7109015,30.5 15.7430124,30.5 C17.7750172,30.5 19.4223451,30.0951159 19.4223451,29.5956138 M21.5823811,0.538946777 C21.6666569,0.441783075 21.9307809,0.532688416 22.1724703,0.741919204 C22.4080406,0.946045684 22.5352881,1.18743967 22.4634859,1.28941736 L22.4641735,1.2900031 L22.4578545,1.29665224 C22.4577689,1.29675196 22.457683,1.29685153 22.457597,1.29695094 C22.4555714,1.2992905 22.4534415,1.30152106 22.4512102,1.30364357 L19.1185494,4.81038402 L18.5144054,7.19837292 C20.8688219,7.34671729 22.5089367,7.67904685 22.5089367,8.06515588 C22.5089367,8.58953225 19.4848756,9.01462345 15.7545214,9.01462345 C12.0241141,9.01462345 9,8.58953225 9,8.06515588 C9,7.54083254 12.0241141,7.11568831 15.7545214,7.11568831 C16.2827563,7.11557038 16.8109557,7.12435808 17.3388944,7.14204768 L18.0403611,4.28903076 L21.5823811,0.538946777 Z M18.1629826,8.53569974 C18.2767468,8.52026599 18.452087,8.49931639 18.4528295,8.36152638 C18.4529886,8.28048592 18.3848362,8.23365428 18.3067658,8.2094164 L18.2487433,8.30021566 C18.2966357,8.31167165 18.3241619,8.32620377 18.3241619,8.34163753 C18.3238437,8.39265908 17.959798,8.41748037 17.6584951,8.42119296 C17.3572452,8.42501162 16.9633927,8.38958293 16.9636049,8.33781886 C16.9636579,8.32678718 16.978137,8.31644497 17.0034887,8.30769387 L16.945201,8.21625816 C16.8835721,8.24139768 16.8352024,8.28154666 16.8348842,8.34969914 C16.8347251,8.38549909 16.8507422,8.43837693 16.8800186,8.46500148 C16.9889035,8.56418059 17.262256,8.56826443 17.6472512,8.56667333 C18.0321404,8.56502918 18.1629826,8.53569974 18.1629826,8.53569974 Z M19.2614309,17.8805991 C19.3600797,18.8294832 20.9008032,17.9876807 21.3876294,17.5136364 L20.7926078,22.8627846 C20.7926078,22.8627846 19.4718816,23.8533558 15.6353474,23.8533558 C11.7988132,23.8533558 10.5252368,22.8470856 10.5252368,22.8470856 L10.0460479,18.2287336 C10.9685727,18.6812449 11.6896631,17.7669939 12.0810758,17.4058653 C12.1056319,17.6516385 11.4272893,19.0543599 11.8437355,19.1861037 C12.2601286,19.3179536 12.4347793,18.171772 12.7670028,17.0852039 C13.0627368,16.1175446 13.5063379,15.023074 13.0983246,14.9118025 C12.6903644,14.8005309 12.5643486,15.8610579 12.3778176,16.2190043 C12.112951,16.7271514 10.5475653,18.4387069 10.3601857,17.1685249 C10.2131143,16.1722257 11.3262008,14.1738463 11.8437355,13.6673434 C12.1032453,13.4132963 12.5047881,13.17882 12.793203,13.2519049 C13.1928895,13.3531524 13.2271514,14.0425798 13.5646786,14.0233804 C14.3620892,13.9778747 13.4311846,12.6351381 12.7338547,12.5991791 C11.2008745,12.520154 10.2283359,14.8745705 9.81878451,16.0385726 L9.04720289,8.60151861 C9.04720289,8.60151861 9.86482059,9.34053554 15.6667983,9.34053554 C21.4687229,9.34053554 22.3806934,8.58581967 22.3806934,8.58581967 L21.4743979,16.7336749 C21.1451445,17.1777533 20.3739872,17.6661707 19.8979805,17.7280648 C19.4097753,17.79155 21.3678467,16.5467197 21.0416694,15.6849222 C20.7663015,14.95699 19.6256888,15.6919761 19.3207263,16.0409592 C19.3958796,15.8221818 19.4479089,15.5348806 19.1379609,15.5157873 C18.828119,15.4967471 18.849546,16.3928064 18.384677,16.9368065 C17.9198081,17.4808065 17.6726029,17.4906714 17.1978691,17.6587985 C16.7231353,17.8269787 17.7297767,15.6054198 18.3119103,14.2607208 C18.4359638,13.9742152 18.7209844,13.2056567 18.3751834,13.0916272 C18.0293825,12.9775447 17.5800004,14.4749901 17.075778,15.6773909 C16.5715557,16.8798448 16.623585,17.2422463 16.4723236,17.4058653 C16.2385367,17.6587985 15.8542309,17.7735175 15.7603024,17.702554 C15.2945849,17.350972 16.5401578,15.5793786 16.1836964,15.4253063 C15.8272351,15.2712339 15.3849599,16.6130158 15.2297207,16.8181098 C15.2112639,16.8425067 14.3812355,17.9520929 14.07622,17.7201092 C13.8981749,17.5847059 14.1646856,16.923229 14.3953964,16.3970494 C14.5003035,16.1579588 14.9008386,15.5422528 14.5675544,15.4059478 C14.2343232,15.2695898 12.8941854,17.972406 13.7426706,18.2959845 C14.3887668,18.5424472 14.9270388,17.949335 15.1668719,17.524509 C15.0581992,18.5302487 16.0215094,18.3228212 16.4723236,17.9399474 C16.7527299,18.7316301 17.8407831,17.886274 18.1374718,17.6687164 C17.8803486,18.529188 16.9629684,19.9781046 17.3624428,20.1949196 C17.7620232,20.4118408 18.3712587,18.6498471 18.5493038,18.2366361 C19.0351753,17.1091766 19.5157962,16.0326855 20.4814931,15.977474 C20.9300796,16.0128497 19.1821407,17.1177155 19.2614309,17.8805991 Z" id="Combined-Shape" fill="#444444" fill-rule="nonzero"></path>
    </g>
</svg>