<?xml version="1.0" encoding="UTF-8" standalone="no"?>
<svg
   width="32px"
   height="32px"
   viewBox="0 0 32 32"
   version="1.1"
   id="svg10"
   sodipodi:docname="handlebars.svg"
   xmlns:inkscape="http://www.inkscape.org/namespaces/inkscape"
   xmlns:sodipodi="http://sodipodi.sourceforge.net/DTD/sodipodi-0.dtd"
   xmlns="http://www.w3.org/2000/svg"
   xmlns:svg="http://www.w3.org/2000/svg">
  <sodipodi:namedview
     id="namedview12"
     pagecolor="#ffffff"
     bordercolor="#666666"
     borderopacity="1.0"
     inkscape:pageshadow="2"
     inkscape:pageopacity="0.0"
     inkscape:pagecheckerboard="0" />
  <!-- Generator: Sketch 49.1 (51147) - http://www.bohemiancoding.com/sketch -->
  <title
     id="title2">handlebars</title>
  <desc
     id="desc4">Created with Sketch.</desc>
  <defs
     id="defs6" />
  <g
     id="handlebars"
     stroke="none"
     stroke-width="1"
     fill="none"
     fill-rule="evenodd">
    <path
       d="m 12.304917,12.500048 c 1.502021,-0.04884 2.97208,0.774567 3.694897,2.096396 0.887643,-1.653478 2.931068,-2.448638 4.722852,-1.96859 2.139885,0.484363 3.449642,2.366248 5.082374,3.654072 0.820931,0.902281 2.781053,0.232859 2.277364,-1.096389 -0.260324,-0.887372 -1.545621,-0.207148 -0.959772,0.513775 -1.037283,-0.537396 -0.606016,-2.163943 0.557189,-2.14294 1.225054,-0.18943 2.268806,0.923606 2.298004,2.101793 0.200584,1.318097 -0.397181,2.77366 -1.660627,3.332222 -2.179977,1.044153 -4.702383,0.331639 -6.730971,-0.731479 -1.882891,-0.901 -3.828758,-2.00973 -5.991588,-1.840135 -2.432804,0.148559 -4.471548,1.655574 -6.6854523,2.513078 -1.8793681,0.723364 -4.256753,0.928891 -5.920449,-0.40209 -1.1335038,-0.978953 -1.2806828,-2.802323 -0.5806048,-4.069827 0.5787201,-1.044738 2.4330046,-1.332733 3.0140968,-0.156476 0.4028897,0.549706 -0.7846224,2.011475 -0.4281073,0.859941 -0.550364,-1.190744 -1.7631549,0.555626 -0.8607767,1.147458 0.9295517,0.900686 2.1803603,0.02824 2.8795081,-0.73141 1.4752484,-1.42355 3.0787632,-3.088589 5.2920632,-3.079399 z"
       id="Shape"
       fill="#444444"
       fill-rule="nonzero" />
  </g>
</svg>
