<?xml version="1.0" encoding="UTF-8"?>
<svg width="32px" height="32px" viewBox="0 0 32 32" version="1.1" xmlns="http://www.w3.org/2000/svg" xmlns:xlink="http://www.w3.org/1999/xlink">
    <!-- Generator: Sketch 49.1 (51147) - http://www.bohemiancoding.com/sketch -->
    <title>handlebars</title>
    <desc>Created with Sketch.</desc>
    <defs></defs>
    <g id="handlebars" stroke="none" stroke-width="1" fill="none" fill-rule="evenodd">
        <path d="M12.304917,12.5000484 C13.2782975,12.495702 14.276506,12.7839782 15.0330511,13.433517 C15.4207298,13.7574115 15.7338697,14.1637755 15.9998144,14.5964438 C16.4783289,13.7980535 17.1772881,13.1196702 18.0392157,12.7926711 C19.0895413,12.3856862 20.2767494,12.413797 21.3252703,12.8127099 C22.2411197,13.1578285 23.0419068,13.7592743 23.7681551,14.4207235 C24.3363022,14.9384014 24.8620665,15.5048499 25.4471667,16.0031664 C25.7554941,16.2613563 26.0867901,16.5032893 26.4659923,16.6370694 C26.9699364,16.8146525 27.5659741,16.647117 27.9263638,16.2463413 C28.2601208,15.8712492 28.2395037,15.2228957 27.8718405,14.8803172 C27.638052,14.6720832 27.2382874,14.7139671 27.0728581,14.9915183 C26.9281553,15.2116627 27.0093114,15.4861094 27.1226236,15.6993107 C26.8215149,15.4723927 26.5199141,15.1560057 26.5210625,14.7433761 C26.4587189,14.2663402 26.801554,13.8455257 27.2122015,13.6786111 C28.0135902,13.3478301 29.0184706,13.6330017 29.5242741,14.3613409 C30.0106635,15.0409661 30.0493822,15.9343572 29.9646167,16.7439805 C29.862242,17.5130182 29.4455242,18.2308018 28.8276664,18.675945 C27.9603247,19.3149282 26.8608898,19.5130582 25.8148299,19.4993415 C24.8093479,19.4711743 23.8141472,19.2367487 22.8825478,18.8490688 C21.3246688,18.2026346 19.8667035,17.3091871 18.2579105,16.7928074 C17.7242712,16.5789851 17.1567257,16.4633246 16.5861177,16.42765 C16.1318297,16.4245454 15.7011667,16.4026438 15.2723083,16.4326738 C14.7489502,16.4846053 14.2286546,16.5952419 13.7386558,16.7933719 C12.1026285,17.3186138 10.6228429,18.2345273 9.03526864,18.8822598 C7.69477187,19.4205411 6.20957231,19.670659 4.78677105,19.3717706 C3.99085109,19.2054769 3.19854049,18.8422387 2.66129178,18.1951271 C2.20153508,17.6449355 1.98109029,16.9084679 2.00280118,16.1869588 C1.97737155,15.5060917 2.12212902,14.7827199 2.55826078,14.2525106 C2.96404106,13.749904 3.61766448,13.4948188 4.24520204,13.5510967 C4.64917763,13.5704581 5.05867664,13.7523877 5.30821511,14.0881361 C5.50448807,14.3538334 5.51657398,14.717749 5.43055075,15.0284349 C5.32576975,15.3079053 5.1095359,15.5261305 4.87454427,15.693666 C4.99447367,15.4848111 5.06715319,15.2091226 4.92540353,14.9908974 C4.75095082,14.7001939 4.32149092,14.6708413 4.09437428,14.9096133 C3.81453901,15.2066389 3.75575009,15.6918033 3.94354651,16.0556624 C4.14703821,16.4370767 4.56807626,16.6546245 4.97566122,16.698992 C5.59231599,16.7540281 6.12715845,16.3595181 6.57964174,15.9769185 C7.51605355,15.1447162 8.35916871,14.1925636 9.39800996,13.4885531 C10.2545235,12.8958567 11.2636148,12.495081 12.3048623,12.5001048 L12.304917,12.5000484 Z" id="Shape" fill="#444444" fill-rule="nonzero"></path>
    </g>
</svg>