<?xml version="1.0" encoding="UTF-8" standalone="no"?>
<svg
   viewBox="0 0 32 32"
   version="1.1"
   id="svg910"
   xmlns="http://www.w3.org/2000/svg"
   xmlns:svg="http://www.w3.org/2000/svg">
  <defs
     id="defs914" />
  <path
     id="path890"
     style="fill:#0055d4"
     d="M 11.359375 4.1503906 L 11.359375 10.599609 L 28.730469 10.599609 L 28.730469 4.1503906 L 11.359375 4.1503906 z M 5.8632812 4.5898438 A 2.638 2.7850001 0 0 0 3.2265625 7.375 A 2.638 2.7850001 0 0 0 5.8632812 10.160156 A 2.638 2.7850001 0 0 0 8.5019531 7.375 A 2.638 2.7850001 0 0 0 5.8632812 4.5898438 z M 11.433594 12.945312 L 11.433594 19.394531 L 28.802734 19.394531 L 28.802734 12.945312 L 11.433594 12.945312 z M 5.9375 13.384766 A 2.638 2.7850001 0 0 0 3.2988281 16.169922 A 2.638 2.7850001 0 0 0 5.9375 18.955078 A 2.638 2.7850001 0 0 0 8.5742188 16.169922 A 2.638 2.7850001 0 0 0 5.9375 13.384766 z M 11.433594 21.740234 L 11.433594 28.189453 L 28.802734 28.189453 L 28.802734 21.740234 L 11.433594 21.740234 z M 5.9375 22.179688 A 2.638 2.7850001 0 0 0 3.2988281 24.964844 A 2.638 2.7850001 0 0 0 5.9375 27.75 A 2.638 2.7850001 0 0 0 8.5742188 24.964844 A 2.638 2.7850001 0 0 0 5.9375 22.179688 z " />
</svg>
