<?xml version="1.0" encoding="UTF-8"?>
<svg width="32px" height="32px" viewBox="0 0 32 32" version="1.1" xmlns="http://www.w3.org/2000/svg" xmlns:xlink="http://www.w3.org/1999/xlink">
    <!-- Generator: Sketch 49.1 (51147) - http://www.bohemiancoding.com/sketch -->
    <title>heroku</title>
    <desc>Created with Sketch.</desc>
    <defs></defs>
    <g id="heroku" stroke="none" stroke-width="1" fill="none" fill-rule="evenodd">
        <path d="M19.5078973,30.490052 L19.5078973,14.9094392 C19.5078973,14.9094392 20.521336,11.1809252 7.02473316,16.4347286 C7,16.5013847 7,2.02720625 7,2.02720625 L11.4099109,2 L11.4099109,11.2737974 C11.4099109,11.2737974 23.7574139,6.41065272 23.7574139,14.9619971 L23.7574139,30.490052 L19.5080207,30.490052 L19.5078973,30.490052 Z M22.0207795,7.61268135 L17.3432565,7.61268135 C19.0269621,5.55414571 20.5511395,2.02708286 20.5511395,2.02708286 L25.3876957,2.02708286 C25.3876957,2.02708286 24.5596318,4.32565269 22.0209037,7.61268135 L22.0207795,7.61268135 Z M7.08013579,30.4630933 L7.08013579,21.5903428 L11.5170054,26.027089 L7.08013579,30.4630933 Z" id="path5017" fill="#444444" fill-rule="nonzero"></path>
    </g>
</svg>