<?xml version="1.0" encoding="UTF-8"?>
<svg width="32px" height="32px" viewBox="0 0 32 32" version="1.1" xmlns="http://www.w3.org/2000/svg" xmlns:xlink="http://www.w3.org/1999/xlink">
    <!-- Generator: Sketch 49.1 (51147) - http://www.bohemiancoding.com/sketch -->
    <title>home</title>
    <desc>Created with Sketch.</desc>
    <defs></defs>
    <g id="home" stroke="none" stroke-width="1" fill="none" fill-rule="evenodd">
        <path d="M18.4400032,5.1815394 C17.2584638,4.39384647 16.4707703,4 16.0769227,4 C15.6830774,4 14.883078,4.39384647 13.6769246,5.1815394 C12.4953875,5.94461598 11.2523102,6.80615388 9.94769251,7.76615311 C8.66769237,8.72615351 7.53538392,9.599999 6.55076717,10.3876896 L5,11.532308 L5.07385962,28 L12.5692501,24.8984621 L12.6061535,16.6276934 L13.0492339,16.2215375 C13.3200021,15.9261542 13.6400012,15.5938468 14.0092314,15.2246155 C14.3784626,14.8307702 14.7600009,14.4861553 15.1538462,14.1907708 C15.5476915,13.8953862 15.8553831,13.7476939 16.0769209,13.7476939 C16.3230763,13.7476939 16.6430772,13.8953862 17.0369237,14.1907708 C17.430769,14.4861553 17.8123072,14.8307702 18.1815385,15.2246155 C18.5507698,15.5938468 18.8584625,15.9261542 19.1046167,16.2215375 L19.5476953,16.6276934 L19.5845988,24.8984621 L27.0799857,28 L27.1538453,11.532308 L25.6400009,10.3876896 C24.6307807,9.599999 23.4738624,8.72615351 22.1692459,7.76615311 C20.8892469,6.80615388 19.6461696,5.94461598 18.4400138,5.1815394 L18.4400032,5.1815394 Z" id="path41" fill="#444444" fill-rule="nonzero"></path>
    </g>
</svg>