<svg xmlns="http://www.w3.org/2000/svg" viewBox="0 0 32 32"><path d="M22.9 10.3c.1-.2.2-.4.2-.6-.1-.4-.3-.6-.6-.7-.3-.1-.6 0-.9.2l-2 2c-.1.1-.2.1-.4.1-2.3-.9-4.5-.9-6.8.1s-4 2.7-5.3 4.7c-.2.4-.2.7.1 1 .5.6 1.1 1.2 1.7 1.7.6.5 1.2.9 1.8 1.3-.1 0-.1.1-.2.1-.5.5-1 .9-1.4 1.4-.2.2-.3.5-.2.9.1.3.3.5.7.6.3 0 .6-.1.8-.3l12.4-12.4.1-.1zm-10.8 8.4h-.2c-1.1-.6-2.1-1.3-3-2.3 1-1.3 2.2-2.5 3.7-3.3-1 1.7-.9 3.3.2 4.9l-.7.7zm4.5-5.5c-.1.3-.3.5-.7.5-.9 0-1.6.6-1.7 1.5v.3c0 .4-.3.6-.6.6-.4 0-.6-.3-.6-.7 0-1.6 1.3-3 2.9-3 .5 0 .8.4.7.8zm8.2 2.8c-.5-.6-1-1.3-1.5-1.9-.4-.5-1-.9-1.4-1.4l-1.2 1.2c.9.7 1.7 1.5 2.4 2.5-.1.1-.2.2-.3.2-.3.3-.6.6-.9.8-2 1.6-4.2 2.4-6.7 2.1-.2 0-.3 0-.4.1-.2.2-.4.4-.6.7l-.6.6h.1c1.4.3 2.9.4 4.3.1 2.8-.5 5-2 6.8-4.1.3-.2.3-.5 0-.9z" fill="#41535B"/></svg>