<?xml version="1.0" encoding="UTF-8"?>
<svg width="32px" height="32px" viewBox="0 0 32 32" version="1.1" xmlns="http://www.w3.org/2000/svg" xmlns:xlink="http://www.w3.org/1999/xlink">
    <!-- Generator: Sketch 49.1 (51147) - http://www.bohemiancoding.com/sketch -->
    <title>image</title>
    <desc>Created with Sketch.</desc>
    <defs></defs>
    <g id="image" stroke="none" stroke-width="1" fill="none" fill-rule="evenodd">
        <path d="M21.2799944,17.7066648 C21.5488647,17.8044371 21.8177514,17.8533232 22.0866543,17.8533232 C22.3799874,17.8533232 22.648874,17.8044371 22.8933141,17.7066648 C23.1622053,17.5844343 23.3944343,17.4255444 23.590001,17.2299952 C23.7856318,17.034432 23.9322984,16.8144315 24.0300008,16.5699938 C24.1521777,16.3011072 24.2132662,16.0322194 24.2132662,15.7633305 C24.2132662,15.4699962 24.1521777,15.2011072 24.0300008,14.9566637 C23.9323449,14.6877748 23.7856784,14.4677749 23.590001,14.2966641 C23.3943703,14.1011009 23.1621413,13.9544343 22.8933141,13.8566643 C22.648874,13.734435 22.3799874,13.6733203 22.0866543,13.6733203 C21.8177514,13.6733203 21.5488647,13.734435 21.2799944,13.8566643 C21.0355346,13.9544366 20.8277528,14.1011032 20.6566489,14.2966641 C20.4855032,14.4677667 20.3388366,14.6877666 20.2166492,14.9566637 C20.0944723,15.2011072 20.0333838,15.4699962 20.0333838,15.7633305 C20.0333838,16.0322194 20.0944723,16.3011072 20.2166492,16.5699938 C20.3388366,16.8144408 20.4855032,17.0344413 20.6566489,17.2299952 C20.8278063,17.4255584 21.0355882,17.5844483 21.2799944,17.7066648 Z M9.36331024,11.4733303 L9.36331024,25.7733276 L27,25.7733276 L27,11.4733303 L9.36331024,11.4733303 Z M10.0966566,12.1333299 L26.1933087,12.1333299 L26.1933087,24.6733282 L22.0866543,19.9433282 L19.4833151,22.9133274 L14.46,17.4499951 L10.0966566,22.8033283 L10.0966566,12.1333299 Z M21.4266459,7 L5,7 L5,19.5033284 L7.12665559,19.5033284 L7.12665559,8.9799989 L21.4266459,8.9799989 L21.4266459,7 Z" id="path122" fill="#444444" fill-rule="nonzero"></path>
    </g>
</svg>