<?xml version="1.0" encoding="UTF-8"?>
<svg width="32px" height="32px" viewBox="0 0 32 32" version="1.1" xmlns="http://www.w3.org/2000/svg" xmlns:xlink="http://www.w3.org/1999/xlink">
    <!-- Generator: Sketch 49.1 (51147) - http://www.bohemiancoding.com/sketch -->
    <title>javascript</title>
    <desc>Created with Sketch.</desc>
    <defs></defs>
    <g id="javascript" stroke="none" stroke-width="1" fill="none" fill-rule="evenodd">
        <path d="M9.29647422,7.23892258 L13.2787595,7.23892258 L13.1594869,18.3097086 C13.2390019,19.5840433 13.1194695,20.6459893 12.8008896,21.4955466 C12.5088468,22.3185543 12.0973474,23.0088191 11.5663915,23.5663412 C11.0619498,24.123862 10.3982296,24.5088174 9.57523083,24.7212073 C8.75223079,24.90704 7.90267789,24.9999564 7.02657214,24.9999564 L6.26991156,24.9999564 C6.03084796,24.9999564 5.76536936,24.9866828 5.47347576,24.9601356 C5.2079725,24.9336011 4.96903474,24.893774 4.75666248,24.8406544 C4.57078048,24.7610003 4.31855965,24.7079059 4,24.6813714 L4.55753409,21.3760673 C4.69023702,21.4291743 4.83625971,21.4822686 4.99560214,21.5353503 C5.18148414,21.5618975 5.32749292,21.588451 5.43362845,21.6150108 C5.56632886,21.6415453 5.73890314,21.6680988 5.95135128,21.6946712 C6.16382471,21.7212184 6.36293983,21.734492 6.54869662,21.734492 C7.02657214,21.734492 7.41151931,21.6813977 7.70353811,21.575209 C8.02212179,21.442458 8.30088283,21.2566184 8.53982122,21.0176901 C8.77888482,20.778753 8.96472952,20.4468944 9.09735531,20.0221145 C9.23005572,19.5707887 9.30970164,18.9601698 9.33629307,18.1902577 L9.29647422,7.23892258 Z M16.7035467,20.6592635 C16.8894299,20.7654396 17.1681916,20.898183 17.5398317,21.0574938 C17.9114945,21.2167843 18.2699002,21.3495271 18.6150487,21.4557221 C18.9601745,21.5353762 19.3451223,21.6017517 19.7698921,21.6548486 C20.1946872,21.7079556 20.5929168,21.7345091 20.9645809,21.7345091 C21.4955621,21.7345091 21.9203446,21.694682 22.2389283,21.6150279 C22.5575132,21.5088392 22.849544,21.3893706 23.1150207,21.2566222 C23.380524,21.0973303 23.5530989,20.8982146 23.6327455,20.6592749 C23.7125134,20.4203378 23.7921594,20.154851 23.8716832,19.8628145 L23.6726307,19.1460031 C23.6194479,18.8805175 23.460156,18.654854 23.1947552,18.4690124 C22.9292772,18.2831798 22.6106935,18.1106137 22.2390042,17.9513143 C21.8673148,17.7654829 21.4159921,17.579642 20.8850362,17.3937916 C20.2213027,17.1548532 19.5708523,16.8760928 18.9336849,16.5575104 C18.2965163,16.2389254 17.7788175,15.8672443 17.3805885,15.4424669 C17.0089244,15.0176895 16.6903407,14.5265397 16.4248375,13.9690177 C16.1860256,13.4114969 16.0930846,12.8407012 16.1460145,12.2566307 C16.0928316,11.5132671 16.238853,10.809728 16.5840787,10.1460135 C16.9292032,9.45574803 17.3672561,8.89822596 17.8982373,8.4734473 C18.4291933,8.02212021 19.1194543,7.66371389 19.9690205,7.39822833 C20.8185842,7.13274278 21.7345125,7 22.7168057,7 C23.2477857,7 23.7123908,7.01326726 24.110621,7.03980178 C24.5088512,7.03980178 24.9203512,7.0928961 25.345121,7.19908476 C25.7698908,7.2787389 26.1150274,7.38493768 26.3805306,7.51768109 C26.6460086,7.65043209 26.9247696,7.74334779 27.2168138,7.79642821 L26.2212135,11.0619153 C26.1680307,10.9291631 25.995469,10.8229643 25.7035286,10.743319 C25.3849437,10.6636649 25.0929122,10.5707492 24.8274343,10.4645719 C24.561931,10.3849178 24.2300649,10.3318234 23.8318359,10.3052889 C23.4336057,10.2787544 23.0619289,10.2654871 22.7168057,10.2654871 C22.2389289,10.2654871 21.8406987,10.3053142 21.522115,10.3849683 C21.2300722,10.4646225 20.9645815,10.5840917 20.7256432,10.7433759 C20.48683,10.9026678 20.3275381,11.0752338 20.2477676,11.2610741 C20.1945848,11.4469055 20.1415284,11.64602 20.0885985,11.8584175 C20.1417813,12.1770025 20.2081322,12.4424893 20.287651,12.654878 C20.367166,12.8672756 20.5662811,13.0663907 20.8849963,13.2522234 C21.20358,13.4115152 21.5354335,13.5840813 21.8805567,13.7699215 C22.2522474,13.9557529 22.7699468,14.1415932 23.433655,14.3274423 C24.1504677,14.6460273 24.787635,14.9911594 25.3451571,15.3628386 C25.9292187,15.707972 26.3938245,16.092928 26.7389743,16.5177067 C27.1106384,16.9159357 27.4026692,17.380537 27.6150667,17.9115106 C27.8538787,18.4159346 27.9335246,18.9734566 27.8540045,19.5840768 C27.9335195,20.3008907 27.8007799,20.991155 27.4557857,21.6548695 C27.1106371,22.3185853 26.6593024,22.9026564 26.1017816,23.4070829 C25.5708244,23.8849571 24.8540105,24.2699112 23.9513399,24.5619452 C23.0752341,24.8539817 22.0531196,25 20.8849963,25 C20.3540138,25 19.836315,24.9734465 19.3318999,24.9203395 C18.8540244,24.8672326 18.3894193,24.8008564 17.9380847,24.7212111 C17.4867474,24.6150225 17.0885172,24.5088237 16.743394,24.4026148 C16.424809,24.2698638 16.1194951,24.110572 15.8274523,23.9247393 L16.7035467,20.6592635 Z" id="path120" fill="#444444" fill-rule="nonzero"></path>
    </g>
</svg>