<?xml version="1.0" encoding="UTF-8" standalone="no"?>
<svg
   width="32px"
   height="32px"
   viewBox="0 0 32 32"
   version="1.1"
   id="svg10"
   sodipodi:docname="javascript.svg"
   xmlns:inkscape="http://www.inkscape.org/namespaces/inkscape"
   xmlns:sodipodi="http://sodipodi.sourceforge.net/DTD/sodipodi-0.dtd"
   xmlns="http://www.w3.org/2000/svg"
   xmlns:svg="http://www.w3.org/2000/svg">
  <sodipodi:namedview
     id="namedview12"
     pagecolor="#ffffff"
     bordercolor="#666666"
     borderopacity="1.0"
     inkscape:pageshadow="2"
     inkscape:pageopacity="0.0"
     inkscape:pagecheckerboard="0" />
  <!-- Generator: Sketch 49.1 (51147) - http://www.bohemiancoding.com/sketch -->
  <title
     id="title2">javascript</title>
  <desc
     id="desc4">Created with Sketch.</desc>
  <defs
     id="defs6" />
  <g
     id="javascript"
     stroke="none"
     stroke-width="1"
     fill="none"
     fill-rule="evenodd">
    <path
       d="m 9.2964742,7.2389226 c 1.3274288,0 2.6548568,0 3.9822858,0 -0.04378,4.2069014 -0.09555,8.4166384 -0.129209,12.6213924 -0.161467,2.133786 -1.475619,4.471394 -3.7289439,4.894647 -1.5298041,0.293512 -3.127649,0.347582 -4.6639446,0.08569 -0.7381349,0.0064 -0.8310048,-0.312307 -0.6273275,-0.926037 0.142733,-0.846183 0.2854661,-1.692367 0.4281991,-2.53855 1.0978085,0.357467 2.4190745,0.595233 3.4876105,0.0274 1.2750521,-0.738393 1.2837973,-2.386586 1.2894086,-3.69172 C 9.3218602,14.220806 9.3091672,10.729864 9.2964742,7.2389226 Z M 16.703547,20.659264 c 1.665862,0.930745 3.655628,1.281161 5.535381,0.955764 0.949121,-0.157829 1.805736,-1.05533 1.552734,-2.040381 -0.08897,-0.780164 -0.7069,-1.303816 -1.415764,-1.562974 -1.848729,-0.896161 -4.146503,-1.27264 -5.391038,-3.075082 -0.925105,-1.163751 -1.044539,-2.765043 -0.66607,-4.156678 0.57943,-1.8455524 2.281866,-3.1314028 4.135109,-3.5170201 1.597647,-0.3592907 3.284539,-0.3493581 4.891222,-0.063808 0.531338,0.2389333 1.905101,0.2721086 1.784474,0.8834141 -0.302794,0.9931387 -0.605588,1.9862779 -0.908382,2.9794159 -0.775465,-0.568126 -1.856841,-0.741615 -2.826184,-0.780882 -1.093919,-0.04827 -2.497767,-0.07433 -3.147261,0.980043 -0.50745,1.074549 0.380578,2.066132 1.376434,2.371956 1.022556,0.549475 2.20576,0.721293 3.174945,1.389137 1.546503,0.829797 3.014535,2.259883 3.084654,4.113901 0.02954,0.993179 -0.03575,2.040087 -0.633361,2.883741 -1.02169,1.828382 -3.100866,2.740936 -5.112902,2.918588 -1.924971,0.140676 -3.942548,0.03577 -5.746953,-0.696325 -0.706292,-0.116967 -0.514409,-0.636832 -0.346141,-1.126131 0.219701,-0.818893 0.439402,-1.637786 0.659103,-2.456679 z"
       id="path120"
       fill="#444444"
       fill-rule="nonzero" />
  </g>
</svg>
