<?xml version="1.0" encoding="UTF-8" standalone="no"?>
<svg
   viewBox="0 0 1200 1000"
   version="1.1"
   id="svg961"
   sodipodi:docname="jenkins.svg"
   xmlns:inkscape="http://www.inkscape.org/namespaces/inkscape"
   xmlns:sodipodi="http://sodipodi.sourceforge.net/DTD/sodipodi-0.dtd"
   xmlns="http://www.w3.org/2000/svg"
   xmlns:svg="http://www.w3.org/2000/svg">
  <sodipodi:namedview
     id="namedview5"
     pagecolor="#ffffff"
     bordercolor="#666666"
     borderopacity="1.0"
     inkscape:pageshadow="2"
     inkscape:pageopacity="0.0"
     inkscape:pagecheckerboard="0" />
  <defs
     id="defs965" />
  <path
     id="path955"
     d="M 592.90039,128 C 542.45036,132.48488 493.94024,152.40944 454.16617,183.54581 438.94474,198.42901 432.97083,219.11841 416.02956,232.36568 398.31262,259.03977 417.31637,293.24845 402.23828,320.52559 390.65568,354.16236 405.89704,400.99944 442.5,411.40039 452.30912,425.13093 457.90051,446.27 464.94429,462.63281 445.49648,484.94585 413.3675,495.94865 389.19922,514.09961 370.49611,517.90376 354.15696,537.10898 367.89551,555.17956 384.80839,597.08149 399.93456,640.43466 401.84611,686.0119 407.69747,710.28021 391.93623,750.00266 425.17495,757.40756 453.60122,768.14066 480.6898,787.59591 512.35235,785.22167 525.06868,808.53165 528.69578,837.77463 540.08769,862.3877 562.00854,867.71098 584.69961,872.92746 607.54291,871.80078 631.67653,871.7298 657.4289,872.54267 679.33573,861.24934 687.25532,847.16511 680.80443,829.21909 704.01394,828.62603 724.11504,811.4064 700.86053,783.0267 705.37611,760.85853 716.58347,746.29911 738.99678,729.37512 757.58862,742.18297 776.04138,751.68651 807.03094,754.11949 824.01309,738.57578 837.75307,720.41197 840.5844,695.08159 832.1377,674 829.54686,648.20615 811.98949,616.51973 781.28298,626.28035 768.07671,625.63065 741.74542,645.45356 738.51192,637.9125 751.22139,598.44178 765.81866,559.46413 777.09982,519.60088 780.57489,493.09809 751.52749,482.93614 736.28692,467.17559 708.65303,450.01782 745.40241,424.72608 745.34556,402.15217 758.26176,348.90494 764.82779,292.13494 752.29783,238.17116 735.78464,173.5215 671.39969,125.58235 604.71748,128 600.77845,128 596.83942,128 592.90039,128 Z M 601.64258,143.69727 C 642.51746,145.54822 686.72773,159.52189 711.11365,194.51094 716.64079,202.41264 730.89226,214.40277 712.26394,209.69363 696.97961,206.95281 684.24679,237.56693 706.21436,223.72574 729.41531,225.55906 741.80181,252.13614 745.00315,272.64433 749.70607,306.48839 747.52845,341.5203 740.01767,374.81716 729.37331,411.9181 709.68116,447.12828 683.04775,474.92497 653.72768,493.10096 614.2976,500.82725 583.51931,481.57257 557.82982,468.06587 540.633,443.8546 523.90039,421 524.72424,444.54353 545.37629,460.90841 560.49961,476.7916 571.23646,485.36541 583.60944,493.39493 561.71725,491.20035 539.81632,490.66931 514.41425,498.66829 495.40678,484.40945 477.24476,465.27393 468.84144,438.66638 463,413.40039 460.51911,404.12716 485.29569,381.27009 463.47578,388.7627 438.29774,410.56137 411.67789,373.51907 411.22397,349.36139 405.74143,324.54168 439.35884,298.00693 459.24236,317.80904 466.29223,331.22637 468.88955,351.89267 488.90925,339.36809 498.47755,320.71598 478.13908,297.1103 487.79098,276.03755 499.15562,251.40902 484.52095,222.54304 497.972,200.47446 516.29985,176.34701 544.74267,162.97618 570.67765,148.70608 580.4084,144.53301 591.1462,143.4113 601.64258,143.69727 Z M 576.98828,216.03516 C 556.95217,212.35985 526.61502,254.36255 544.38711,258.43731 551.57302,239.04716 571.64541,227.0308 591.7375,230.8875 596.79791,222.03518 584.6537,215.01251 576.98828,216.03516 Z M 708.74219,263.27734 C 704.8462,279.67139 725.00736,306.50859 692.32434,298.84381 677.43796,321.7684 738.30598,315.00899 723.84313,293.15851 718.80655,283.41111 716.96297,270.85407 708.74219,263.27734 Z M 589.95117,264.2832 C 579.64474,275.1974 612.56691,310.07704 583.80318,305.82981 566.51361,297.86054 560.66355,318.35772 579.6972,320.49576 607.44589,331.39116 624.40704,297.73708 603.43049,278.8034 599.52645,273.57042 595.88811,267.40462 589.95117,264.2832 Z M 648.80078,272.90039 C 644.51682,293.54185 659.27705,312.83566 671.30998,328.42848 684.00041,340.21297 706.37114,367.05724 676.7623,373.5625 659.39895,387.10289 627.25081,387.84323 624.91406,368.43091 611.68349,398.27356 652.23298,397.89311 669.68864,387.94404 691.80491,383.431 722.28867,356.68675 694.89867,337.44956 676.62526,319.4148 661.82014,297.87496 651.12539,274.78789 Z M 711.09961,397.40039 C 696.11161,405.6127 678.0719,411.66875 663.69922,418.30078 659.86799,450.29729 705.37066,418.66901 709.36206,401.1652 Z M 585.59961,408.80078 C 599.59957,431.72033 630.1126,434.19268 654.44128,434.15588 665.02356,425.13498 650.94403,409.24389 636.51074,415.98588 619.21955,416.01763 602.26889,413.20575 585.59961,408.80078 Z M 654.73828,553.17578 C 684.47385,556.8697 676.57204,584.96691 674.9824,606.83361 674.10099,618.73456 670.13939,653.71508 662.57475,625.35139 658.3733,602.06477 627.56785,577.59393 635.78906,556.89492 642.76644,558.94078 647.90075,552.20722 654.73828,553.17578 Z M 697.48828,561.4043 C 720.75227,559.95156 724.06685,582.63369 707.58475,595.59875 699.97879,605.56122 685.6459,635.3532 681.61395,634.3208 684.20666,611.3878 688.10125,588.53284 689.06491,565.47194 690.29552,562.19515 694.52217,561.7069 697.48828,561.4043 Z M 614.90039,570.5 C 633.02776,590.61667 644.03299,615.97664 655.09961,640.40039 629.76726,634.07658 606.21976,622.14933 582.23425,612.14147 581.98398,594.81117 602.1938,580.65993 614.90039,570.5 Z M 792.70312,645.38281 C 812.038,651.98431 810.54142,678.34047 815.83189,695.23914 821.13433,715.92602 800.15507,731.99605 780.7623,728.06211 747.52392,726.49773 813.04792,720.08664 785.59961,717.40039 768.12417,718.08128 743.16382,724.91791 747.85602,698.4697 745.21601,681.33052 736.88145,658.65235 761.81166,656.01992 772.02856,652.64374 781.75618,645.42731 792.70312,645.38281 Z M 603.41016,678.36914 C 619.24798,682.31886 657.61412,669.89357 653.27963,697.20905 657.72999,746.43341 656.88599,796.12079 663.69922,845.09961 627.11531,853.6382 587.66035,854.37919 551.95039,842.06289 534.53377,792.44337 525.81371,739.68146 519.69922,687.40039 547.25738,681.94036 575.3155,678.82949 603.41016,678.36914 Z M 687.19922,761 C 697.71614,773.36398 695.19345,796.41375 699.12155,813.11256 692.08464,822.3212 668.8544,826.42263 675.64116,807.11778 679.09594,792.15774 662.60341,758.96512 687.19922,761 Z" />
</svg>
