<svg xmlns="http://www.w3.org/2000/svg" viewBox="0 0 32 32"><path fill="#DBCD68" d="M7.5 15.1c1.5 0 1.7-.8 1.7-1.5 0-.6-.1-1.1-.1-1.7S9 10.7 9 10.2c0-2.1 1.3-3 3.4-3h.8v1.9h-.4c-1 0-1.3.6-1.3 1.6 0 .4.1.8.1 1.3 0 .4.1.9.1 1.5 0 1.7-.7 2.3-1.9 2.6 1.2.3 1.9.9 1.9 2.6 0 .6-.1 1.1-.1 1.5 0 .4-.1.9-.1 1.2 0 1 .3 1.6 1.3 1.6h.4v1.9h-.8c-2 0-3.3-.8-3.3-3 0-.6 0-1.1.1-1.7.1-.6.1-1.2.1-1.7 0-.6-.2-1.5-1.7-1.5l-.1-1.9zm17 1.7c-1.5 0-1.7.9-1.7 1.5s.1 1.1.1 1.7c.1.6.1 1.2.1 1.7 0 2.2-1.4 3-3.4 3h-.8V23h.4c1 0 1.3-.6 1.3-1.6 0-.4 0-.8-.1-1.2 0-.5-.1-1-.1-1.5 0-1.7.7-2.3 1.9-2.6-1.2-.3-1.9-.9-1.9-2.6 0-.6.1-1.1.1-1.5.1-.5.1-.9.1-1.3 0-1-.4-1.5-1.3-1.6h-.4V7.2h.8c2.1 0 3.4.9 3.4 3 0 .6-.1 1.1-.1 1.7-.1.6-.1 1.2-.1 1.7 0 .7.2 1.5 1.7 1.5v1.7z"/></svg>