<?xml version="1.0" encoding="UTF-8"?>
<svg width="32px" height="32px" viewBox="0 0 32 32" version="1.1" xmlns="http://www.w3.org/2000/svg" xmlns:xlink="http://www.w3.org/1999/xlink">
    <!-- Generator: Sketch 49.1 (51147) - http://www.bohemiancoding.com/sketch -->
    <title>julia</title>
    <desc>Created with Sketch.</desc>
    <defs></defs>
    <g id="julia" stroke="none" stroke-width="1" fill="none" fill-rule="evenodd">
        <path d="M14.9499996,20.5499946 C14.9499996,21.8333317 14.4833262,22.9416674 13.5499796,23.8750019 C12.6399783,24.7850065 11.5433152,25.2400088 10.2599903,25.2400088 C8.9299903,25.2400088 7.79832751,24.7850065 6.86500196,23.8750019 C5.95500065,22.9416674 5.5,21.8333317 5.5,20.5499946 C5.5,19.2199968 5.95500065,18.0999961 6.86500196,17.1899926 C7.79832751,16.2566681 8.9299903,15.7900059 10.2599903,15.7900059 C11.5433152,15.7900059 12.6399783,16.2566681 13.5499796,17.1899926 C14.4833262,18.0999961 14.9499996,19.2199968 14.9499996,20.5499946 Z M26.5,20.5499946 C26.5,21.8333317 26.0333261,22.9416674 25.0999783,23.8750019 C24.1899781,24.7850065 23.0816524,25.2400088 21.775001,25.2400088 C20.4449999,25.2400088 19.3249998,24.7850065 18.4150007,23.8750019 C17.5050005,22.9416674 17.0500004,21.8333317 17.0500004,20.5499946 C17.0500004,19.2199968 17.5050005,18.0999961 18.4150007,17.1899926 C19.3249998,16.2566681 20.4449999,15.7900059 21.775001,15.7900059 C23.058327,15.7900059 24.1666528,16.2566681 25.0999783,17.1899926 C26.0333261,18.0999961 26.5,19.2199968 26.5,20.5499946 Z M19.2899884,6.90000333 C20.223314,7.81000242 20.6899767,8.91833485 20.6899767,10.2250006 C20.6899767,11.5316675 20.223314,12.6516676 19.2899884,13.585001 C18.3566629,14.4950034 17.2366633,14.9500046 15.9299897,14.9500046 C14.6233162,14.9500046 13.5033161,14.4950034 12.5699894,13.585001 C11.6599892,12.6516676 11.2049891,11.5316675 11.2049891,10.2250006 C11.2049891,8.91833485 11.6599892,7.81000242 12.5699894,6.90000333 C13.5033161,5.96666778 14.6233162,5.5 15.9299897,5.5 C17.2366633,5.5 18.3566629,5.96666778 19.2899884,6.90000333 Z" id="path67" fill="#444444" fill-rule="nonzero"></path>
    </g>
</svg>