<?xml version="1.0" encoding="UTF-8" standalone="no"?>
<svg
   width="32px"
   height="32px"
   viewBox="0 0 32 32"
   version="1.1"
   id="svg10"
   sodipodi:docname="less.svg"
   xmlns:inkscape="http://www.inkscape.org/namespaces/inkscape"
   xmlns:sodipodi="http://sodipodi.sourceforge.net/DTD/sodipodi-0.dtd"
   xmlns="http://www.w3.org/2000/svg"
   xmlns:svg="http://www.w3.org/2000/svg">
  <sodipodi:namedview
     id="namedview12"
     pagecolor="#ffffff"
     bordercolor="#666666"
     borderopacity="1.0"
     inkscape:pageshadow="2"
     inkscape:pageopacity="0.0"
     inkscape:pagecheckerboard="0" />
  <!-- Generator: Sketch 49.1 (51147) - http://www.bohemiancoding.com/sketch -->
  <title
     id="title2">less</title>
  <desc
     id="desc4">Created with Sketch.</desc>
  <defs
     id="defs6" />
  <g
     id="less"
     stroke="none"
     stroke-width="1"
     fill="none"
     fill-rule="evenodd">
    <path
       d="m 5,14.766656 c 1.0461117,0.0776 2.3354217,-0.610141 2.161164,-1.815 C 7.1934195,12.19868 7.1552823,11.454801 6.9985491,10.717277 6.9071769,9.3490179 6.7645608,7.9245373 7.1634446,6.5899896 7.8608273,4.8609109 9.9674724,4.4359319 11.639653,4.5 c 0.536289,-0.1430185 0.627508,0.1590335 0.547102,0.6327101 0,0.5713188 0,1.1426375 0,1.7139562 -0.903535,-0.1022998 -1.999588,0.2442176 -2.199826,1.2466755 -0.1861513,1.2962441 0.223586,2.5828452 0.220405,3.8866692 0.363382,1.558252 -0.5171074,3.554301 -2.247355,3.756047 -0.1771187,0.290983 1.4671441,0.450459 1.6242197,1.12064 0.8099513,0.951657 0.7438253,2.288117 0.5864053,3.446664 0.03529,1.240817 -0.5441536,2.523323 -0.04631,3.721668 0.296711,0.897286 1.449203,0.788912 2.06246,0.924926 0,0.761131 0,1.522263 0,2.283394 -1.572964,4.69e-4 -3.4226994,0.101419 -4.54207,-1.205426 C 6.707596,24.8383 6.916433,23.246126 6.9273928,21.827297 6.9522121,20.787213 7.2244483,19.770999 7.1615241,18.72667 7.3434484,17.461412 5.914413,16.930257 5.0003393,16.903379 5.0002262,16.191138 5.0001131,15.478897 5,14.766656 Z m 22,2.199999 c -1.117889,-0.143012 -2.332627,0.692887 -2.163524,1.906681 -0.05403,0.951856 0.223346,1.873132 0.220369,2.823332 0.03104,1.097544 0.337697,2.224285 -0.105879,3.287395 -0.437346,1.561997 -2.139786,2.238032 -3.629479,2.237823 -0.44787,-0.04363 -1.121223,0.106681 -1.471253,-0.05181 1e-6,-0.761131 2e-6,-1.522263 3e-6,-2.283394 0.828017,0.07102 1.837874,-0.106196 2.101567,-1.031244 0.431013,-1.208567 -0.186578,-2.443546 -0.12631,-3.68041 -0.347451,-1.533447 0.07625,-3.532147 1.728822,-4.11354 0.586082,-0.118188 0.916548,-0.349589 0.108843,-0.414806 -1.62205,-0.46825 -2.209194,-2.438096 -1.85143,-3.94167 -0.04737,-1.282913 0.555235,-2.5614543 0.140077,-3.8179122 C 21.654315,7.0570933 20.6437,6.8302514 19.850243,6.8466925 c 0,-0.7822215 0,-1.5644431 0,-2.3466646 1.589388,-0.030479 3.416354,0.025063 4.556407,1.2879056 0.785476,0.9710308 0.914139,2.2929383 0.689226,3.481037 -0.01448,0.9533785 -0.127064,1.8963265 -0.257106,2.8370925 -0.0075,0.836593 -0.128331,1.897222 0.781642,2.328324 0.519442,0.470079 1.664542,-0.0054 1.379593,0.965005 -2e-6,0.522421 -3e-6,1.044842 -5e-6,1.567263 z"
       id="path118"
       fill="#444444"
       fill-rule="nonzero" />
  </g>
</svg>
