<svg xmlns="http://www.w3.org/2000/svg" width="1em" height="1em" viewBox="0 0 24 24">
	<path fill="currentColor" d="M17 13h-1v-1h1zm0 1h-1v1h1zm0 2h-1v1h1zm-.6-16H15l7 7V0zM13 0l9 9v12c0 1.662-1.338 3-3 3H5c-1.662 0-3-1.338-3-3V3c0-1.662 1.338-3 3-3zM6 11c0 .552 1.343 1 3 1s3-.448 3-1v-1c0-.552-1.343-1-3-1s-3 .448-3 1zm0 2c0 .552 1.343 1 3 1s3-.448 3-1v-1c0 .552-1.343 1-3 1s-3-.448-3-1zm0 2c0 .552 1.343 1 3 1s3-.448 3-1v-1c0 .552-1.343 1-3 1s-3-.448-3-1zm0 2c0 .552 1.343 1 3 1s3-.448 3-1v-1c0 .552-1.343 1-3 1s-3-.448-3-1zm12-6h-5v7h5zm-3 1h-1v1h1zm0 4h-1v1h1zm0-2h-1v1h1z" />
</svg>
