<?xml version="1.0" encoding="UTF-8" standalone="no"?>
<svg
   width="32px"
   height="32px"
   viewBox="0 0 32 32"
   version="1.1"
   id="svg10"
   sodipodi:docname="license.svg"
   xmlns:inkscape="http://www.inkscape.org/namespaces/inkscape"
   xmlns:sodipodi="http://sodipodi.sourceforge.net/DTD/sodipodi-0.dtd"
   xmlns="http://www.w3.org/2000/svg"
   xmlns:svg="http://www.w3.org/2000/svg">
  <sodipodi:namedview
     id="namedview12"
     pagecolor="#ffffff"
     bordercolor="#666666"
     borderopacity="1.0"
     inkscape:pageshadow="2"
     inkscape:pageopacity="0.0"
     inkscape:pagecheckerboard="0" />
  <!-- Generator: Sketch 49.1 (51147) - http://www.bohemiancoding.com/sketch -->
  <title
     id="title2">license</title>
  <desc
     id="desc4">Created with Sketch.</desc>
  <defs
     id="defs6" />
  <g
     id="license"
     stroke="none"
     stroke-width="1"
     fill="none"
     fill-rule="evenodd">
    <path
       d="M 19.264205,11.967085 C 19.063819,9.9055447 17.528302,8.066851 15.490611,7.6077656 14.59025,7.1932837 13.177688,7.7115407 12.517062,7.3125366 c -0.130084,-1.5112252 0.647889,-3.1968792 2.188105,-3.649094 1.236103,-0.4888871 2.734906,-0.1487954 3.710278,0.7461823 0.779088,0.8122388 0.961954,1.9576292 0.903615,3.0393986 0.337256,0.53191 1.436703,1.9926937 1.423969,0.5476614 0.32679,-1.8728072 -0.368884,-3.9444436 -1.960188,-5.0541398 -1.893211,-1.371641 -4.784316,-1.1862362 -6.456605,0.4599363 -1.714583,1.9311522 -1.745973,5.3680519 0.338848,7.0585946 0.580556,0.92524 2.535271,1.326015 2.245322,-0.273807 -0.0049,-0.5189156 -1.953521,-0.8977823 -0.738969,-0.9857738 1.276765,-0.032935 2.06656,1.7620988 0.94453,2.5602288 -0.895638,0.675942 -2.166339,0.179286 -2.924728,-0.479204 -0.89727,-0.573924 -1.366483,-2.0386835 -1.80451,-2.5951418 -0.9149455,0.8310283 -1.6897667,1.8898528 -1.8011666,3.1581968 -0.3650211,1.818764 0.395462,3.742314 1.7523586,4.968139 0.359582,0.714016 -0.194528,1.558059 -0.18104,2.332603 -0.3629562,2.502269 -0.8105029,4.997427 -1.126199,7.504411 -0.1659159,0.75955 0.4981198,2.302037 1.040853,2.081053 0.424622,-2.446051 0.762798,-4.914722 1.171154,-7.367504 0.158154,-1.239951 0.324985,-2.486495 0.602341,-3.70171 1.010745,-0.221026 0.201289,1.32498 0.248438,1.853444 -0.395318,3.186049 -1.004467,6.344653 -1.425384,9.52549 0.51246,0.501243 1.906478,0.426932 2.574168,-0.01532 1.001947,-0.568235 1.084315,-1.765011 0.314826,-2.512322 -0.572438,-0.946559 1.168295,-0.859379 1.02675,-1.704557 -0.298291,-0.610165 -1.174293,-0.913947 -1.232224,-1.61557 0.250196,-0.739758 1.369557,-0.636241 1.725121,-1.286989 -0.203715,-0.610216 -1.342518,-1.295386 -0.410602,-1.944132 0.873999,-0.09074 0.786644,-1.048772 0.958879,-1.697746 0.351276,-1.014742 1.767181,-1.168302 2.378963,-2.069076 1.131592,-1.129654 1.428562,-2.801489 1.262984,-4.338354 l -0.0016,0.06241 z m 4.216862,13.444616 c -0.16294,-0.725624 -1.36591,-0.274083 -1.321203,-1.225401 0.130236,-0.573929 0.566226,-1.608558 -0.430963,-1.594975 -0.622516,-0.01873 -1.292744,-0.244138 -1.122896,-1.048206 -0.09679,-0.684385 1.289065,-1.483423 0.191727,-1.799555 -0.83384,-0.274277 -0.936855,-1.190558 -0.328144,-1.684067 0.525852,-0.683505 -0.67026,-1.316268 -0.41007,-2.041057 1.010189,-1.891479 1.297052,-4.268217 0.307341,-6.22664 -0.527188,-1.2168371 -1.75984,-1.9114793 -2.964096,-2.3154996 -0.144406,0.4580022 0.855905,0.9014523 1.106587,1.3831806 1.703573,1.932328 1.806514,5.052285 0.372174,7.159997 -0.333101,0.920917 -1.839041,1.181075 -1.752495,2.190566 0.72976,2.136091 1.563749,4.225016 2.515741,6.272218 0.511373,1.328835 1.103587,2.6235 1.701255,3.913937 1.239492,-0.09626 2.247666,-1.472971 2.152853,-2.750186 l -0.01705,-0.23446 z m -7.146732,-7.00982 c 0.02236,0.806549 -0.487543,1.639711 -0.04631,2.404484 0.891081,2.108042 1.613633,4.295784 2.644133,6.338959 0.322488,0.507835 1.16244,1.46425 1.619034,1.270743 -1.398608,-3.316255 -2.732633,-6.672701 -4.134693,-9.986809 -0.0208,-0.04606 -0.100762,0.05644 -0.08217,-0.02738 z"
       id="path116"
       fill="#444444"
       fill-rule="nonzero" />
  </g>
</svg>
