<svg xmlns="http://www.w3.org/2000/svg" viewBox="0 0 32 32"><path d="M18.1 18.8c0 .5-.1 1.1-.1 1.6-.1 1.6-.2 3.2-.2 4.8v.7c0 .1 0 .1-.1.1l-3-.6c-.5-.1-.9-.1-1.4-.2-.5-.1-.9-.2-1.3-.2-1.3-.2-2.6-.5-3.9-.7-.5-.2-1.1-.3-1.6-.4-.1 0-.1-.1-.1-.2.2-1.1.3-2.3.4-3.4 0-.2.1-.5.1-.7.1-.1 0-.2.1-.4.1-.5.1-1 .2-1.6.1-.5.2-1 .2-1.6.2-1.3.4-2.7.5-4 0-.3.2-.5.4-.6l1.8-.6c.1 0 .2-.1.2-.3.2-1.1.7-2.1 1.3-3 .4-.6.9-1.1 1.5-1.4.4 0 .7-.1 1.1-.1.5 0 .9.1 1.2.5.1.1.1.1.2.1.5 0 1 .2 1.3.6.3.4.5.8.7 1.2 0 .1.1.1.2.1.2-.1.3-.1.5-.2.2 0 .2 0 .2.2 0 .9-.1 1.7-.1 2.6-.1 1.1-.1 2.3-.2 3.4-.1 1.4-.1 2.7-.2 4.1.1.1.1.1.1.2zm-7.4-.5c.2.2.4.4.7.6.3.2.6.5.7.9.1.5-.1.9-.6 1H11c-.6-.1-1.1-.4-1.5-.7-.1-.1-.1-.1-.2.1-.1.4-.2.8-.4 1.2-.1.3 0 .5.2.6.9.7 1.9 1 2.9.9 1.1-.1 1.9-.7 2.3-1.7.2-.5.3-1 .3-1.5s-.2-1-.5-1.4c0-.1-.1-.1-.1-.2-.3-.5-.8-.8-1.3-1.1-.2-.1-.4-.3-.6-.5-.3-.5-.1-1.3.6-1.5.7-.1 1.3 0 1.9.2.1.1.2 0 .2-.1l.6-1.8c.1-.3.1-.3-.2-.4-.7-.2-1.4-.2-2.1-.1-1.6.3-3 1.4-3.1 3.2-.2.9.1 1.7.7 2.3zm4-11.5c-.1-.1-.1-.1-.2-.1-.2-.1-.4 0-.7 0-.6.2-1 .5-1.4 1-.7.8-1.1 1.8-1.4 2.8 0 .1 0 .1.1.1.5-.1.9-.3 1.4-.4.1 0 .1-.1.1-.1 0-.2.1-.4.1-.6.4-1.1.9-2.1 2-2.7zm.7 2.1c0-.4-.1-.9-.2-1.3-.1-.2-.1-.2-.2-.1-.2.1-.5.3-.6.5-.4.5-.7 1.1-.9 1.7v.1h.1c.5-.1 1-.3 1.4-.4.4-.1.4-.1.4-.5zm.8.2c.2-.1.5-.2.8-.3v-.1c-.1-.4-.3-.8-.6-1.1-.1-.1-.2-.2-.4-.3h-.1v.1c0 .1.1.3.1.4.1.3.1.7.1 1.1 0 .1 0 .2.1.2zm9.2 13.3l.3 2.1c0 .1 0 .1-.1.2-1.2.2-2.3.5-3.5.7-.8.2-1.7.4-2.5.5-.1 0-.2.1-.1-.1 0-.3 0-.7.1-1 .1-1.4.1-2.7.2-4.1v-1c0-.3 0-.7.1-1V18c.1-1.8.2-3.5.3-5.3v-1c.1-.8.1-1.5.1-2.3v-1c.1 0 .1 0 .1.1l.4.4c.2.2.4.3.5.5.1.2.3.2.5.2.4 0 .9.1 1.3.1.1 0 .2.1.2.2.1.4.1.8.2 1.2.1.7.2 1.3.3 2 .2 1 .3 2.1.5 3.1.3 1.7.5 3.4.8 5.1.1.4.2.7.3 1.1z"/></svg>