<svg xmlns="http://www.w3.org/2000/svg" viewBox="0 0 32 32"><path d="M16 7.5V15c.1 0 .1 0 .1-.1 0 0 .1 0 .1-.1 0 0 .1 0 .1-.1.1 0 .1 0 .1-.1.1 0 .1 0 .1-.1.1 0 .1-.1.1-.2V8.2c0-.2.1-.3.3-.3h.6c.3 0 .3 0 .3.3v5h.1c.1 0 .1 0 .1-.1V13l.2-.2c.1-.1 0-.2 0-.2V8.8h1.1v2.8c.1 0 .1-.1.2-.1l1.1-1.1c.1 0 .1-.1.1-.2V8.7c.2-.1.4 0 .6 0 .2 0 .5-.1.6 0 .1.1 0 .4 0 .6v.5c0 .1 0 .1.1.2 0 0-.1 0 0 0h.9c.1 0 .2 0 .2.2v1h-.3c.1-.1.2 0 .3-.1h-1.4c-.1 0-.1 0-.1.1-.4.4-.9.8-1.3 1.3 0 .1.1.1.2.1h2.4c.2 0 .2 0 .2.2v.7c0 .2 0 .3-.3.3h-3.6c-.1 0-.2-.1-.2.1l-1.2 1.2h5.3v.9c0 .2-.1.2-.3.2h-6.3c-.1 0-.1 0-.1.1-.1 0-.1 0-.1.1-.1 0-.1 0-.1.1-.1 0-.1 0-.1.1-.1 0-.1 0-.1.1-.1 0-.1 0-.1.1-.1 0-.1 0-.1.1.1.1.2 0 .2 0h7.5c.1 0 .1 0 .1.1v.7c0 .3 0 .3-.3.3h-8.9l-.1.1c-.1.2-.3.3-.4.5.1.1.2 0 .3 0h9.9c.1 0 .2 0 .2.2v1H12.9c-.1 0-.2 0-.3.1L11.5 21c0 .1.2.1.2.1h13.6c.2 0 .2 0 .2.2v1.9c0 .3 0 .3-.3.3H10.5c-.1.1 0 .2 0 .2V26H8.2c-.2 0-.2-.1-.2-.2v-2.3c-.1-.1-.1 0-.2 0h-2c-.2 0-.2 0-.2-.2v-2c0-.2.1-.2.2-.2H8 5.6c.1-.1.1 0 .2 0h2.3c.1-.1 0-.2 0-.2V6.4c0-.2 0-.2.2-.2h1.9c.3 0 .3 0 .3.3v13.8c.2-.1.3-.3.4-.4.3-.3.5-.6.8-.8.1 0 .1-.1.1-.2V7.5c.2-.1.5 0 .7 0 .2 0 .4-.1.5 0 .1.1 0 .3 0 .5v9.7c.4-.4.8-.8 1.3-1.2.1-.1.1-.2.1-.2V7.5h1.1c.1 0 .1 0 .1.1.3-.2.3-.1.4-.1-.1 2.5-.1 4.9-.1 7.3v.2c.1-.1 0-.2 0-.3v-7c.1 0 0-.1.1-.2z"/><path d="M11 23.5c.1-.1.2 0 .3 0h14.4c.3 0 .3 0 .3-.3v-1.9c0-.2 0-.2-.2-.2H12.2c-.1 0-.2.1-.2-.1h13.9c.1 0 .1 0 .1.2v2.1c0 .2 0 .2-.2.2H11zm0-3.4c-.1-.1 0-.2 0-.3V6.3c0-.3 0-.3-.3-.3H8.8c-.2 0-.2 0-.2.2v-.1c-.1-.1-.1-.1.1-.1h2.1c.1 0 .2 0 .2.2v13.9zm7.5-7.6c-.1-.1 0-.2 0-.2V7.5c0-.3 0-.3-.3-.3h-.6c-.2 0-.3.1-.3.3v6.1c0 .1 0 .2-.1.2.1-.1.1-.2.1-.3V7.3c0-.2 0-.2.2-.2h.9c.1 0 .2 0 .2.2v4.8c-.1.2-.1.3-.1.4zm-2.9 4.7c.1-.1.2 0 .3 0h8.6c.3 0 .3 0 .3-.3v-.7c0-.1 0-.2-.1-.1H17h7.7c.2 0 .2 0 .2.2v.8c0 .1 0 .2-.2.2h-8.8c-.2-.1-.2-.1-.3-.1zm-3.3-9.9c.1.1 0 .1 0 .2v11.2c0 .1 0 .2-.1.2V7.5c.1-.1.1-.2.1-.2zm12.4 12.4v-1c0-.1 0-.2-.2-.2H14.3h10c.3 0 .3 0 .3.3v.8c.1 0 .2.1.1.1zM14.8 7.3v8.8c0 .1 0 .2-.1.2V7.4c.1 0 0-.1.1-.1zm5.8 5c0-.1.1-.1.2-.1h3.6c.2 0 .3-.1.3-.3v-.7c0-.2 0-.2-.2-.2h-2.4c-.1 0-.2 0-.2-.1h2.9c.1 0 .1.1.1.1v1.2h-3.8c-.3 0-.4 0-.5.1 0-.1 0-.1 0 0zM16 7.5c-.1.1 0 .2 0 .2v7.1c-.1-2.4-.1-4.8 0-7.3-.1 0-.1-.1 0-.2v.2zm2.1 7.2c.1-.1.2 0 .2 0h6.1c.2 0 .3 0 .3-.2v-.9c.1 0 .1.1.1.2v.9c0 .1 0 .2-.2.2-2.2-.2-4.3-.2-6.5-.2zM6 21h2.4-2.2c-.2 0-.2 0-.2.2v2c0 .2 0 .2.2.2h2.2-2.3c-.1 0-.1 0-.1-.1V21zM19.8 7.3v.1c0-.1-.1-.2 0-.1zm.9 4.9h4-4zM21 10c-.1 0 0-.1 0-.2V7.2c.1 0 0 .1 0 .1V10zm2.1-.3c0-.1.1-.1.1-.1h1.4c-.1.1-.2 0-.3.1h-1.2zm1.6 1.3h-2.8 2.8zM10.9 26v-2.5 2.3c.1.1.1.1 0 .2zM24.7 9.7v-1c0-.1 0-.2-.2-.2h-.9c-.1 0 0 0 0 0h1.1c.1.4 0 .8 0 1.2zm-2.4-2.4c.1 0 0 .1 0 .2v1.3c0 .1 0 .1-.1.2 0-.7.1-1.2.1-1.7zm-4.5 7.8c0-.1 0-.1.1-.1 0 0-.1 0-.1.1zm-.7.6c0-.1 0-.1.1-.1 0 0 0 .1-.1.1zm.6-.5c0-.1 0-.1 0 0 0-.1 0 0 0 0zm-1.6-.2c0 .1 0 .1 0 0-.1.1 0 0 0 0zm1.8-.1c0-.1.1-.1 0 0 .1-.1.1 0 0 0zm-.5.5c0-.1.1-.1 0 0 .1-.1.1 0 0 0zm-.7-1c0 .1-.1.1 0 0-.1.1-.1.1 0 0zm.2-.2c0 .1-.1.1 0 0-.1.1-.1.1 0 0zm.1 1.6zm-.1.2c0-.1 0-.1 0 0 0-.1 0-.1 0 0zm2.1-3.9c0 .1-.1.1 0 0-.1.1-.1.1 0 0zm-2.8 2.8zm.1-.1s0 .1 0 0c-.1 0 0 0 0 0zm-1.5-7.3c-.1 0-.1 0 0 0zm9.9 1zM14.8 18zm2.8-2.8zm0 .1s0-.1 0 0c0-.1 0 0 0 0zM14.9 18zm2.6-2.7s.1 0 0 0c.1 0 0 0 0 0zm-2.6 2.6zm2.5-2.5zm0 .1s0-.1 0 0c0-.1 0 0 0 0zm-.1 0s.1 0 0 0c.1 0 0 0 0 0zm-2.4 2.4c.1 0 .1 0 0 0 .1 0 .1 0 0 0zm2.4-2.3c0-.1 0-.1 0 0 0-.1 0-.1 0 0zm-.1 0c.1 0 .1 0 0 0 .1 0 .1 0 0 0zM15 17.9c0-.1 0-.1 0 0 0-.1 0-.1 0 0zm0-.1s.1 0 0 0c.1 0 0 0 0 0zm2.1-2c0-.1 0-.1 0 0 0-.1 0-.1 0 0zm-2 1.9c.1 0 .1 0 0 0 .1 0 .1 0 0 0zm4.6-6.4c0 .1 0 .1 0 0 0 .1 0 .1 0 0zm-4.1 6zm-.1 0zm0 .1s0-.1 0 0c0-.1 0 0 0 0zm-.1 0zm-.1.1c.1 0 .1 0 0 0 .1 0 .1 0 0 0zm0 0zm0 .1s0-.1 0 0c0-.1 0 0 0 0zm-.1 0s.1 0 0 0c.1 0 0 0 0 0zm3.4-5.1zm.1-.1s-.1.1 0 0c-.1.1 0 0 0 0zm.1-.1c-.1.1-.1.1 0 0-.1.1-.1.1 0 0zm0 0zm0 0zm.7-.7zm-.6.6zm.1-.1zm0-.1c0 .1 0 .1 0 0 0 .1 0 .1 0 0zm.1 0zm.1-.1s-.1.1 0 0c-.1.1 0 0 0 0zm0 0zm.1-.1c-.1.1-.1.1 0 0-.1.1-.1.1 0 0zm0 0zm.1-.1s-.1.1 0 0c-.1.1 0 0 0 0zm0 0zm.1-.1c-.1.1-.1.1 0 0-.1.1-.1.1 0 0zm-1.8 3.5s.1 0 0 0c.1 0 0 0 0 0zm-1.5-.2s-.1.1 0 0c-.1.1 0 0 0 0zm1.7 0zm.1-.1zm-1.6-.1s-.1.1 0 0c-.1.1 0 0 0 0zm0 0zm.1-.1zm.1-.1s0 .1 0 0c0 .1 0 0 0 0zm.1-.1zm0 0zm.2-.2zm.1-.1c-.1.1-.1.1 0 0-.1.1-.1.1 0 0zm0 0zm.1-.1s-.1.1 0 0c-.1.1 0 0 0 0zm0 0zm.1-.1zm2.5-2.5z"/></svg>