<?xml version="1.0" encoding="UTF-8" standalone="no"?>
<svg
   viewBox="0 0 32 32"
   version="1.1"
   id="svg959"
   xmlns="http://www.w3.org/2000/svg"
   xmlns:svg="http://www.w3.org/2000/svg">
  <defs
     id="defs963" />
  <path
     d="M16 7.5V15c.1 0 .1 0 .1-.1 0 0 .1 0 .1-.1 0 0 .1 0 .1-.1.1 0 .1 0 .1-.1.1 0 .1 0 .1-.1.1 0 .1-.1.1-.2V8.2c0-.2.1-.3.3-.3h.6c.3 0 .3 0 .3.3v5h.1c.1 0 .1 0 .1-.1V13l.2-.2c.1-.1 0-.2 0-.2V8.8h1.1v2.8c.1 0 .1-.1.2-.1l1.1-1.1c.1 0 .1-.1.1-.2V8.7c.2-.1.4 0 .6 0 .2 0 .5-.1.6 0 .1.1 0 .4 0 .6v.5c0 .1 0 .1.1.2 0 0-.1 0 0 0h.9c.1 0 .2 0 .2.2v1h-.3c.1-.1.2 0 .3-.1h-1.4c-.1 0-.1 0-.1.1-.4.4-.9.8-1.3 1.3 0 .1.1.1.2.1h2.4c.2 0 .2 0 .2.2v.7c0 .2 0 .3-.3.3h-3.6c-.1 0-.2-.1-.2.1l-1.2 1.2h5.3v.9c0 .2-.1.2-.3.2h-6.3c-.1 0-.1 0-.1.1-.1 0-.1 0-.1.1-.1 0-.1 0-.1.1-.1 0-.1 0-.1.1-.1 0-.1 0-.1.1-.1 0-.1 0-.1.1-.1 0-.1 0-.1.1.1.1.2 0 .2 0h7.5c.1 0 .1 0 .1.1v.7c0 .3 0 .3-.3.3h-8.9l-.1.1c-.1.2-.3.3-.4.5.1.1.2 0 .3 0h9.9c.1 0 .2 0 .2.2v1H12.9c-.1 0-.2 0-.3.1L11.5 21c0 .1.2.1.2.1h13.6c.2 0 .2 0 .2.2v1.9c0 .3 0 .3-.3.3H10.5c-.1.1 0 .2 0 .2V26H8.2c-.2 0-.2-.1-.2-.2v-2.3c-.1-.1-.1 0-.2 0h-2c-.2 0-.2 0-.2-.2v-2c0-.2.1-.2.2-.2H8 5.6c.1-.1.1 0 .2 0h2.3c.1-.1 0-.2 0-.2V6.4c0-.2 0-.2.2-.2h1.9c.3 0 .3 0 .3.3v13.8c.2-.1.3-.3.4-.4.3-.3.5-.6.8-.8.1 0 .1-.1.1-.2V7.5c.2-.1.5 0 .7 0 .2 0 .4-.1.5 0 .1.1 0 .3 0 .5v9.7c.4-.4.8-.8 1.3-1.2.1-.1.1-.2.1-.2V7.5h1.1c.1 0 .1 0 .1.1.3-.2.3-.1.4-.1-.1 2.5-.1 4.9-.1 7.3v.2c.1-.1 0-.2 0-.3v-7c.1 0 0-.1.1-.2z"
     id="path955" />
</svg>
