<?xml version="1.0" encoding="UTF-8"?>
<svg width="32px" height="32px" viewBox="0 0 32 32" version="1.1" xmlns="http://www.w3.org/2000/svg" xmlns:xlink="http://www.w3.org/1999/xlink">
    <!-- Generator: Sketch 49.1 (51147) - http://www.bohemiancoding.com/sketch -->
    <title>markdown</title>
    <desc>Created with Sketch.</desc>
    <defs></defs>
    <g id="markdown" stroke="none" stroke-width="1" fill="none" fill-rule="evenodd">
        <path d="M21.6983559,4.03583304 L21.6983559,7.26083372 L21.6983559,10.3783336 L21.6983559,13.3883343 L21.6983559,16.4699977 L22.9883572,16.4699977 L24.2066788,16.4699977 L25.3533565,16.4699977 L26.5,16.4699977 L23.7408578,19.2291655 C22.8091909,20.1369438 21.8894649,21.0686107 20.9816798,22.0241663 C19.9783468,23.0513869 19.070572,23.9711095 18.2583553,24.7833341 C17.3983556,25.7150011 16.5144632,26.6227787 15.6066781,27.5066672 C14.7227965,26.6227787 13.8508558,25.7269454 12.9908561,24.8191672 C12.1308564,23.8874991 11.2469634,22.9916652 10.3391772,22.1316655 C9.45529675,21.2477782 8.57140435,20.3400005 7.6875,19.4083324 C6.80361841,18.4766666 5.90778508,17.5688884 5,16.6849977 L5.93167946,16.6849977 L7.00667912,16.6849977 L8.15335509,16.6849977 L9.40750116,16.6849977 L9.40750116,13.5675012 L9.40750116,10.4141649 L9.40750116,7.26083372 L9.40750116,4 C9.81361916,4.23888805 10.3272374,4.58527693 10.9483559,5.03916662 C11.5933563,5.49305631 12.2383566,5.93500109 12.883357,6.36500096 C13.5522381,6.77110985 14.1494525,7.12944307 14.6750003,7.44000061 C15.2005709,7.75055588 15.5350228,7.90583352 15.6783561,7.90583352 C15.893244,7.90583352 16.239626,7.75055588 16.7175023,7.44000061 C17.2191682,7.12944307 17.7686195,6.7830542 18.3658561,6.40083399 C18.986953,5.99472168 19.5961198,5.5766656 20.1933564,5.14666573 C20.7905714,4.69277718 21.2922379,4.32249961 21.6983559,4.03583304 Z" id="path114" fill="#444444" fill-rule="nonzero"></path>
    </g>
</svg>