<?xml version="1.0" encoding="UTF-8"?>
<svg width="32px" height="32px" viewBox="0 0 32 32" version="1.1" xmlns="http://www.w3.org/2000/svg" xmlns:xlink="http://www.w3.org/1999/xlink">
    <!-- Generator: Sketch 49.1 (51147) - http://www.bohemiancoding.com/sketch -->
    <title>ms-dos</title>
    <desc>Created with Sketch.</desc>
    <defs></defs>
    <g id="ms-dos" stroke="none" stroke-width="1" fill="none" fill-rule="evenodd">
        <path d="M19.9567639,3 C19.5897597,3 19.2224698,3.03899253 18.8554593,3.11765449 C18.5146799,3.19631023 18.1876121,3.32714853 17.8730202,3.51062892 C17.5584655,3.66791556 17.2829717,3.8641699 17.0470479,4.10009367 C16.8112421,4.33601743 16.6137644,4.63791613 16.456366,5.00490796 C16.3254035,5.34569363 16.2610928,5.71300216 16.2610928,6.10621257 C16.2610928,6.55184772 16.3391524,6.9443564 16.4963956,7.28513586 C16.6799195,7.62592153 16.9026035,7.90140293 17.1646962,8.11111432 C17.4268509,8.29460713 17.728731,8.46566133 18.0695105,8.62295419 C18.4102775,8.78024083 18.7637812,8.89726811 19.1307855,8.97590522 C19.4977959,9.05456718 19.8512997,9.13378803 20.1920667,9.21241894 C20.5328648,9.29108089 20.8347262,9.38291423 21.096881,9.48774509 C21.3590171,9.59259457 21.5690825,9.72343287 21.7263691,9.88071952 C21.9098806,10.0380062 22.0016953,10.2342605 22.0016953,10.4701843 C22.0016953,10.8371823 21.8180038,11.1252638 21.451043,11.3349752 C21.1102449,11.5446928 20.7567412,11.6503247 20.389768,11.6503247 C19.8916708,11.6503247 19.4451663,11.5320865 19.0519497,11.2961627 C18.6849889,11.0340204 18.4232812,10.6805229 18.2660008,10.2348815 L16.2598819,10.2348815 C16.2598819,10.9426652 16.4435424,11.5578331 16.8105342,12.0821116 C17.2037322,12.5801839 17.7018604,12.9474924 18.3048132,13.1834162 C18.9077288,13.41934 19.5631313,13.5375782 20.2709025,13.5375782 C20.9524677,13.5375782 21.5688589,13.41934 22.1193436,13.1834162 C22.6960716,12.9474924 23.1677825,12.5801839 23.5347868,12.0821116 C23.9017786,11.5578331 24.0854391,10.9552591 24.0854391,10.2736939 C24.0854391,9.80184022 24.0061623,9.39552673 23.8489254,9.05474106 C23.6916884,8.68774923 23.4816355,8.41226783 23.2194372,8.22876881 C22.9573011,8.019045 22.6566009,7.84920175 22.3158339,7.71813989 C21.9750544,7.56085324 21.6215631,7.4552213 21.2545589,7.40279035 C20.8875484,7.32412839 20.5328462,7.24611849 20.1920667,7.16748759 C19.8774934,7.06265052 19.5893995,6.97081718 19.3272758,6.89216143 C19.065121,6.78731195 18.8424556,6.65647365 18.6589752,6.499187 C18.501732,6.31569419 18.4224615,6.09303497 18.4224615,5.83088642 C18.4224615,5.62116261 18.501732,5.43750834 18.6589752,5.28023411 C18.8424867,5.12294746 19.0261471,5.00470924 19.2096275,4.92607213 C19.4194072,4.84741017 19.6282741,4.80841764 19.8379047,4.80841764 C20.1524718,4.80841764 20.4417642,4.86002887 20.7039066,4.96488457 C20.9660551,5.06972163 21.1886957,5.24077583 21.3722072,5.47672443 C21.5557186,5.68644203 21.673845,5.93551234 21.7263691,6.22386085 L23.7312771,6.18383746 C23.6265953,5.18770525 23.234068,4.41528796 22.5523476,3.8647909 C21.8707701,3.28808147 21.0053147,3 19.9567639,3 Z M7.05890486,3.19649032 L7.05890486,13.4199299 L9.10383621,13.4199299 L9.10383621,7.91463021 L10.5580919,13.4199299 L12.6430466,13.4199299 L13.8219761,7.6781165 L13.9796478,13.4199299 L15.9457433,13.4199299 L15.9457433,3.19649032 L12.6418294,3.19649032 L11.5017186,9.09477066 L9.96862712,3.19649032 L7.05890486,3.19649032 Z M15.8487122,14.0372899 C14.4059264,14.0372899 13.1787266,14.3805099 12.1688082,15.0658197 C11.1589023,15.7150494 10.4020348,16.599054 9.89706318,17.7171939 C9.39206673,18.7992537 9.1390096,20.0437732 9.1390096,21.4504665 C9.1390096,22.7489507 9.42786732,23.992253 10.0050115,25.1825282 C10.4738782,25.1825282 10.8344427,25.0750953 11.0869098,24.8586833 C11.5918939,24.2815827 11.8622831,23.8124303 11.8983321,23.4517354 L12.3313299,19.8264111 C12.4397688,18.9968184 12.8373262,18.2584815 13.5223875,17.6092456 C14.2077097,16.9599973 14.9645772,16.6353017 15.7941326,16.6353017 L16.2804991,16.6353017 C16.7133168,15.7696414 17.3627452,15.0115754 18.2283993,14.3623457 C17.3266776,14.1098785 16.5340095,14.0012409 15.8487122,14.0372899 Z M21.4752992,14.1464492 C20.5736023,14.1464492 19.7439041,14.2908998 18.9864529,14.5794532 C18.2290203,14.868019 17.6154049,15.3544725 17.1465009,16.0397698 C16.6775845,16.6890057 16.4430269,17.4828723 16.4430269,18.4206741 C16.4430269,19.4666663 16.7134161,20.2593219 17.2544492,20.8003612 C17.8315809,21.3413818 18.6612294,21.7747336 19.7432955,22.0993609 C19.7794439,21.5583278 19.7978751,21.1620062 19.7978751,20.9095204 C19.7978751,20.4766965 19.7622174,20.1334578 19.6899268,19.8809907 L19.1477698,18.3660945 C19.1116215,18.2939592 19.0944011,18.239628 19.0944011,18.2035666 C19.1305433,17.8428655 19.2924564,17.5366632 19.5807676,17.2841961 C19.8694266,17.0317227 20.1756599,16.8687725 20.5001381,16.7966124 C20.8608392,16.6884158 21.2213541,16.6353017 21.5820365,16.6353017 C22.3034325,16.6353017 22.8997345,16.8155653 23.3686198,17.1762478 C23.8375052,17.5008626 24.143695,17.9873161 24.2879904,18.6365644 L26.9939442,18.6365644 C26.957802,17.6266336 26.6688822,16.7796654 26.1279423,16.0943494 C25.6229583,15.4090521 24.9735609,14.9213691 24.1800421,14.6328219 C23.4226095,14.3082008 22.5213163,14.1464492 21.4752992,14.1464492 Z M8.815171,14.4169253 L4,14.5248736 L4,28.1589581 L8.70600557,28.3748485 C10.8701439,28.4469837 12.5653162,27.8518803 13.7916527,26.5894761 C15.0540693,25.2909981 15.6861843,23.524206 15.6861843,21.2879386 C15.6861843,19.8091162 15.3614825,18.510278 14.7122342,17.3921443 C14.1712136,17.6446115 13.7020674,18.0236445 13.30528,18.5286161 C12.9446162,18.9975139 12.745853,19.5567981 12.7097543,20.2060464 L12.4392782,23.073311 C12.403136,23.3979258 12.2772471,23.7584468 12.06086,24.1552094 C11.8805529,24.5519719 11.6286632,24.9124867 11.3040173,25.2371078 C10.9792286,25.5617226 10.6545144,25.7246852 10.3300672,25.7246852 L8.54469485,25.7246852 L6.81269115,25.5621635 L6.81269115,17.2841961 L9.7345353,17.2841961 C10.311636,16.2742653 10.906727,15.5161993 11.5199077,15.0112401 L11.5199077,14.7953497 C10.7264075,14.5428763 9.82512044,14.4169253 8.815171,14.4169253 Z M21.3127775,17.1216682 C20.9883428,17.1216682 20.6093036,17.2117876 20.1762995,17.3921443 C19.7795619,17.5725011 19.5992982,17.8070649 19.6353472,18.0956183 C19.6353472,18.3480855 19.689753,18.6542877 19.7978751,19.0149888 C19.906314,19.3756651 20.0137344,19.7547043 20.1217199,20.1514668 C20.2301526,20.5121617 20.2842478,20.8911947 20.2842478,21.2879386 C20.2842478,21.8650455 20.24859,22.2440785 20.1762995,22.4244166 L19.7432955,24.209789 C19.671005,24.3540595 19.6353472,24.4614799 19.6353472,24.5336338 C19.6353472,24.8943287 19.8699421,25.1832299 20.3388274,25.3996356 C20.8077438,25.5799924 21.2398785,25.6701056 21.6366161,25.6701056 L22.1775622,25.6701056 C22.9350134,24.2273508 23.3140402,22.7667672 23.3140402,21.2879386 C23.3140402,19.8091224 22.9350134,18.4201462 22.1775622,17.1216682 L21.3127775,17.1216682 Z M23.6936756,20.4219368 L23.5311477,23.1278906 C23.8918302,23.3082536 24.1622194,23.5058182 24.34257,23.7222115 C24.5590006,23.9386297 24.6676257,24.2090127 24.6676257,24.5336338 C24.6676257,24.8221996 24.5774567,25.0937936 24.3971496,25.346267 C24.2168487,25.5626727 23.9822601,25.7244244 23.6936756,25.8326335 C23.4411463,25.9408363 23.1707385,26.0124624 22.8822534,26.04853 C22.5935633,26.0845976 22.3046621,26.1031096 22.0162515,26.1031096 C21.1144987,26.1031096 20.3934878,25.9413704 19.8524547,25.6167431 C19.3475204,25.2921221 19.0228062,24.7143259 18.8785046,23.8847332 L16.2271304,23.8847332 L16.1725508,24.209789 L16.1725508,24.4256855 C16.1725508,24.9667185 16.352833,25.5803402 16.7135031,26.2656375 C16.9660448,26.6984614 17.290759,27.0762835 17.687447,27.4008983 C18.120302,27.6894704 18.5709362,27.924028 19.0398215,28.1043785 C19.5447869,28.2486428 20.0497523,28.3758048 20.5547178,28.4840077 C21.0596521,28.5561429 21.5473041,28.5919559 22.0162515,28.5919559 C22.7015364,28.5919559 23.3497539,28.5201747 23.9629346,28.3760656 C24.6121705,28.1957151 25.2084725,27.9426331 25.7495241,27.6180058 C26.2905385,27.2573233 26.7226794,26.8066705 27.0473128,26.2656375 C27.3721016,25.6885306 27.5348965,25.0576328 27.5348965,24.3723169 C27.5348965,23.7591486 27.4262713,23.235665 27.2098407,22.802841 C27.0295523,22.3339433 26.7406511,21.9549165 26.3438389,21.666363 C25.9831378,21.3417482 25.6053406,21.0898772 25.2085718,20.9095204 C24.8118403,20.7291636 24.3068563,20.5661948 23.6936756,20.4219368 Z M14.9827103,25.8326335 L14.3871784,26.752004 L13.0348101,28.1043785 C14.1529748,28.5371962 15.1986876,28.7544838 16.1725508,28.7544838 C16.9299896,28.7544838 17.6880369,28.6273218 18.4455068,28.3748485 C17.2912744,27.6534649 16.5159509,26.8237915 16.1191821,25.8860021 L14.9827103,25.8326335 Z" id="path115" fill="#4D4D4D" fill-rule="nonzero"></path>
    </g>
</svg>