<svg xmlns="http://www.w3.org/2000/svg" viewBox="0 0 32 32"><path d="M17.3 6c0 .1.1.1.1.2l4.7 4.7c.1.1.1.2.1.3v3c-.4-.2-.8-.3-1.3-.5v-1.5h-3.7c-.8 0-1.3-.5-1.3-1.3V7.3H8.4v17.5h5.1c.1 0 .2 0 .3.1.3.3.7.7 1.1 1l.1.1H8.2c-.9-.2-1.1-.8-1.1-1.5V7.3c0-.6.3-1 .8-1.2.2 0 .3-.1.4-.1h9zm3.7 5l-3.7-3.7V11H21z"/><path d="M18.7 26c-.4-.1-.7-.1-1.1-.2-2.2-.6-3.8-2.6-4-4.8-.3-3 1.8-5.7 4.8-6.1 3.1-.4 6.1 1.8 6.4 5V21c-.2 2.2-1.8 4.2-4 4.8-.4.1-.8.2-1.1.2h-1zm.4-10c-2.4 0-4.4 2-4.4 4.4 0 2.4 2 4.4 4.4 4.3 2.4 0 4.4-2 4.4-4.4 0-2.4-2-4.3-4.4-4.3z"/><path d="M19.8 19.8H21c.4 0 .7.3.7.6 0 .4-.3.6-.7.6h-1.2v1.4c-.1.3-.4.5-.7.5-.3 0-.6-.3-.6-.6V21h-1.3c-.3 0-.6-.3-.6-.6s.3-.6.6-.6h1.3v-1.3c0-.3.3-.6.6-.6s.6.3.6.6v.5c.1.2.1.4.1.8 0-.1 0-.1 0 0z"/></svg>