<?xml version="1.0" encoding="UTF-8" standalone="no"?>
<svg
   viewBox="0 0 32 32"
   version="1.1"
   id="svg8"
   xmlns="http://www.w3.org/2000/svg"
   xmlns:svg="http://www.w3.org/2000/svg">
  <defs
     id="defs12" />
  <path
     id="path2"
     d="M 8.3007812 6 C 8.2007812 6 8.1003906 6.0996094 7.9003906 6.0996094 C 7.4003906 6.2996094 7.0996094 6.7007813 7.0996094 7.3007812 L 7.0996094 24.5 C 7.0996094 25.2 7.2992187 25.8 8.1992188 26 L 15 26 L 14.900391 25.900391 C 14.500391 25.600391 14.100781 25.200391 13.800781 24.900391 C 13.700781 24.800391 13.6 24.800781 13.5 24.800781 L 8.4003906 24.800781 L 8.4003906 7.3007812 L 15.900391 7.3007812 L 15.900391 10.900391 C 15.900391 11.700391 16.399219 12.199219 17.199219 12.199219 L 20.900391 12.199219 L 20.900391 13.699219 C 21.400391 13.899219 21.799219 13.999219 22.199219 14.199219 L 22.199219 11.199219 C 22.199219 11.099219 22.199609 11.000391 22.099609 10.900391 L 17.400391 6.1992188 C 17.400391 6.0992187 17.300781 6.1 17.300781 6 L 8.3007812 6 z M 17.300781 7.3007812 L 21 11 L 17.300781 11 L 17.300781 7.3007812 z M 18.978516 14.855469 C 18.786182 14.860547 18.594141 14.875391 18.400391 14.900391 C 15.400391 15.300391 13.299609 18 13.599609 21 C 13.799609 23.2 15.399609 25.200781 17.599609 25.800781 C 17.999609 25.900781 18.299219 25.9 18.699219 26 L 19.699219 26 C 19.999219 26 20.400781 25.900781 20.800781 25.800781 C 23.000781 25.200781 24.600781 23.2 24.800781 21 L 24.800781 19.900391 C 24.519531 16.900391 21.863525 14.779297 18.978516 14.855469 z M 19.099609 16 C 21.499609 16 23.5 17.900781 23.5 20.300781 C 23.5 22.700781 21.499609 24.699219 19.099609 24.699219 C 16.699609 24.799219 14.699219 22.800391 14.699219 20.400391 C 14.699219 18.000391 16.699609 16 19.099609 16 z M 19.099609 17.900391 C 18.799609 17.900391 18.5 18.2 18.5 18.5 L 18.5 19.800781 L 17.199219 19.800781 C 16.899219 19.800781 16.599609 20.100391 16.599609 20.400391 C 16.599609 20.700391 16.899219 21 17.199219 21 L 18.5 21 L 18.5 22.300781 C 18.5 22.600781 18.799609 22.900391 19.099609 22.900391 C 19.399609 22.900391 19.700781 22.700391 19.800781 22.400391 L 19.800781 21 L 21 21 C 21.4 21 21.699219 20.800391 21.699219 20.400391 C 21.699219 20.100391 21.4 19.800781 21 19.800781 L 19.800781 19.800781 C 19.800781 19.400781 19.799219 19.2 19.699219 19 L 19.699219 18.5 C 19.699219 18.2 19.399609 17.900391 19.099609 17.900391 z " />
</svg>
