<?xml version="1.0" encoding="UTF-8"?>
<svg width="32px" height="32px" viewBox="0 0 32 32" version="1.1" xmlns="http://www.w3.org/2000/svg" xmlns:xlink="http://www.w3.org/1999/xlink">
    <!-- Generator: Sketch 49.1 (51147) - http://www.bohemiancoding.com/sketch -->
    <title>npm-folder</title>
    <desc>Created with Sketch.</desc>
    <defs></defs>
    <g id="npm-folder" stroke="none" stroke-width="1" fill="none" fill-rule="evenodd">
        <path d="M4.17983261,12.2789819 L4.17983261,14.2453814 L4.17983261,16.2117663 L4.17983261,18.1781554 L4.17983261,20.1445403 L5.62185002,20.1445403 L7.0201703,20.1445403 L8.41849059,20.1445403 L9.86050799,20.1445403 L10.0790082,20.1445403 L10.2975104,20.1445403 L10.5160106,20.1445403 L10.6471165,20.1445403 L10.6471165,20.4504076 L10.6471165,20.7562791 L10.6471165,21.1058728 L10.6471165,21.4554664 L11.9580405,21.4554664 L13.2689644,21.4554664 L14.5798884,21.4554664 L15.8908124,21.4554664 L15.8908124,21.1058728 L15.8908124,20.8000012 L15.8908124,20.4504076 L15.8908124,20.1445403 L18.7748472,20.1445403 L21.702577,20.1445403 L24.6740019,20.1445403 L27.5580367,20.1445403 L27.5580367,20.0134344 L27.5580367,19.9697393 L27.5580367,19.8823285 L27.5580367,18.0470349 L27.5580367,16.2117413 L27.5580367,14.4201428 L27.5580367,12.5411522 L27.5580367,12.4974779 L27.5580367,12.4537829 L27.5580367,12.4100879 L27.5580367,12.2789819 L21.7025354,12.2789819 L15.8907728,12.2789819 L10.035309,12.2789819 L4.17983261,12.2789819 Z M10.647079,18.8336163 L10.341193,18.8336163 L10.0353256,18.8336163 L9.68573201,18.8336163 L9.33613841,18.8336163 L9.33613841,17.8722693 L9.33613841,16.9109265 L9.33613841,15.9058823 L9.33613841,14.9882345 L9.03026899,14.9882345 L8.72439956,14.9882345 L8.37480596,14.9882345 L8.11262325,14.9882345 L8.11262325,15.9058823 L8.11262325,16.8672293 L8.11262325,17.8285722 L8.11262325,18.8336163 L7.41346519,18.8336163 L6.8016972,18.8336163 L6.14623418,18.8336163 L5.49077323,18.8336163 L5.49077323,17.5226924 L5.49077323,16.2117663 L5.49077323,14.9008424 L5.49077323,13.5899184 L6.8016972,13.5899184 L8.06892613,13.5899184 L9.33615298,13.5899184 L10.647079,13.5899184 L10.647079,14.9008424 L10.647079,16.2117663 L10.647079,17.5226924 L10.647079,18.8336163 Z M17.2016843,18.8336163 L16.5462234,18.8336163 L15.8907603,18.8336163 L15.2789923,18.8336163 L14.6235314,18.8336163 L14.6235314,19.1394837 L14.6235314,19.4453531 L14.6235314,19.7949467 L14.6235314,20.1445403 L13.9680705,20.1445403 L13.3126074,20.1445403 L12.6571465,20.1445403 L12.0016814,20.1445403 L12.0016814,18.4840352 L12.0016814,16.8672293 L12.0016814,15.2504193 L12.0016814,13.5899184 L13.2689103,13.5899184 L14.5798343,13.5899184 L15.8907603,13.5899184 L17.2016843,13.5899184 L17.2016843,14.9008424 L17.2016843,16.2117663 L17.2016843,17.5226924 L17.2016843,18.8336163 Z M26.3344549,18.8336163 L25.9848613,18.8336163 L25.6352677,18.8336163 L25.3294004,18.8336163 L25.023531,18.8336163 L25.023531,17.8722693 L25.023531,16.9109265 L25.023531,15.9058823 L25.023531,14.9882345 L24.6739374,14.9882345 L24.3243438,14.9882345 L24.0184744,14.9882345 L23.712607,14.9882345 L23.712607,15.9058823 L23.712607,16.8672293 L23.712607,17.8285722 L23.712607,18.8336163 L23.3630134,18.8336163 L23.0134198,18.8336163 L22.7075504,18.8336163 L22.401683,18.8336163 L22.401683,17.8722693 L22.401683,16.9109265 L22.401683,15.9058823 L22.401683,14.9882345 L22.0520894,14.9882345 L21.7024958,14.9882345 L21.3966243,14.9882345 L21.090757,14.9882345 L21.090757,15.9058823 L21.090757,16.8672293 L21.090757,17.8285722 L21.090757,18.8336163 L20.4352961,18.8336163 L19.779833,18.8336163 L19.1243721,18.8336163 L18.4689091,18.8336163 L18.4689091,17.5226924 L18.4689091,16.2117663 L18.4689091,14.9008424 L18.4689091,13.5899184 L20.4352961,13.5899184 L22.401683,13.5899184 L24.368068,13.5899184 L26.3344549,13.5899184 L26.3344549,14.9008424 L26.3344549,16.2117663 L26.3344549,17.5226924 L26.3344549,18.8336163 Z M15.8907603,14.9882345 L15.5411667,14.9882345 L15.2352973,14.9882345 L14.9294279,14.9882345 L14.6235605,14.9882345 L14.6235605,15.5563054 L14.6235605,16.2117663 L14.6235605,16.8235281 L14.6235605,17.4352961 L14.9294279,17.4352961 L15.2352973,17.4352961 L15.5411667,17.4352961 L15.8907603,17.4352961 L15.8907603,16.8672293 L15.8907603,16.2117663 L15.8907603,15.5563054 L15.8907603,14.9882345 Z M14.3613466,4.8504218 L17.6386576,8.12773276 L29,8.12773276 L29,26 L3,26 L3,4.8504218 L14.3613466,4.8504218 Z" id="path84" fill="#444444" fill-rule="nonzero"></path>
    </g>
</svg>