<?xml version="1.0" encoding="UTF-8"?>
<svg width="32px" height="32px" viewBox="0 0 32 32" version="1.1" xmlns="http://www.w3.org/2000/svg" xmlns:xlink="http://www.w3.org/1999/xlink">
    <!-- Generator: Sketch 49.1 (51147) - http://www.bohemiancoding.com/sketch -->
    <title>octocat-folder</title>
    <desc>Created with Sketch.</desc>
    <defs></defs>
    <g id="octocat-folder" stroke="none" stroke-width="1" fill="none" fill-rule="evenodd">
        <path d="M3,5 L3,26.1471328 L29,26.1471328 L29,8.24946623 L17.6460707,8.24946623 L14.3966039,5 L3,5 Z M10.1315429,10.3371897 C10.6411534,10.3908424 11.2181815,10.5648936 11.8618896,10.8599205 C12.5056033,11.1549534 13.2028883,11.5705819 13.9538811,12.1070071 C14.2220929,12.0265375 14.5301172,11.972716 14.8787952,11.9459205 C15.2542916,11.9191458 15.6572674,11.9053821 16.0864116,11.9053821 C16.5423743,11.9053821 16.9453501,11.9191043 17.2940281,11.9459205 C17.6695246,11.972716 17.9775488,12.0265375 18.2189421,12.1070071 C18.5944386,11.8656149 18.9425431,11.6504162 19.2644026,11.4626609 C19.5862567,11.2749203 19.9090667,11.1008692 20.2309207,10.9399301 C20.5527803,10.8058139 20.8196484,10.6982266 21.0342178,10.6177571 C21.2756111,10.5372875 21.4644544,10.4708319 21.5985576,10.4171993 L22.0412749,10.3371897 C22.2021965,10.7126878 22.336174,11.1008807 22.4434587,11.5031994 C22.5507434,11.8786996 22.6045441,12.2806065 22.6045441,12.709748 C22.6581974,13.1120667 22.684557,13.4338099 22.684557,13.6752 C22.684557,13.8897857 22.6581974,14.0110947 22.6045441,14.0379109 C23.0068645,14.4938747 23.3011628,15.0033869 23.4889192,15.5666321 C23.7035049,16.1030611 23.8110955,16.6938058 23.8110955,17.3375167 C23.8110955,17.7398354 23.7984182,18.1280261 23.7716216,18.5035264 C23.744825,18.8790228 23.6762386,19.2281979 23.5689321,19.5500552 C23.4884604,19.8719088 23.381924,20.1662141 23.2478263,20.4344308 C23.1405525,20.7026409 23.0065805,20.9579345 22.8456425,21.1993245 C22.6847154,21.3870656 22.5095981,21.5748384 22.3218417,21.7625937 C22.1609201,21.9503348 21.9868679,22.124386 21.7991115,22.285325 C21.5845366,22.4462515 21.3703987,22.580222 21.1558348,22.6875077 C20.9412599,22.794787 20.7534817,22.9023743 20.5925655,23.0096803 C20.4048255,23.0633335 20.2033376,23.1171343 19.9887573,23.1707668 C19.8010173,23.1975831 19.5868794,23.2376616 19.3454806,23.2913149 C19.1308948,23.3449682 18.929407,23.3850467 18.7416724,23.4118635 C18.5807399,23.4118635 18.4330527,23.4255852 18.2989496,23.4524014 L17.9373048,23.4524014 L17.5340559,23.4524014 C17.5072375,23.4524014 17.4408031,23.4661236 17.3334966,23.4929399 L16.9313128,23.4929399 C16.7703912,23.5197561 16.6100595,23.5324116 16.4491215,23.5324116 L16.0864116,23.5324116 L15.7237018,23.5324116 C15.5895822,23.5324116 15.4292396,23.5197561 15.2415051,23.4929399 L14.8393267,23.4929399 C14.758855,23.4661651 14.6923988,23.4524014 14.6387674,23.4524014 L14.2365836,23.4524014 L13.9144127,23.4524014 C13.7802932,23.4256267 13.6188855,23.4118635 13.4311509,23.4118635 C13.2702239,23.3850467 13.0824565,23.3449682 12.8678817,23.2913149 C12.6264938,23.2913149 12.3986299,23.2638918 12.184066,23.2102385 C11.9694857,23.129769 11.7817129,23.0633133 11.6207968,23.0096803 C11.4330567,22.9291987 11.2315688,22.8353112 11.0169885,22.7280457 C10.8292485,22.5939316 10.6288311,22.4462433 10.4142454,22.285325 C10.2265053,22.1512104 10.0387325,21.9908667 9.85097613,21.8031322 C9.69005455,21.5885524 9.51493722,21.387059 9.32718081,21.1993245 C9.16625376,20.9847469 9.03335226,20.7431733 8.9260621,20.4749687 C8.81881018,20.1799358 8.72383138,19.8719126 8.64335966,19.5500552 C8.53608589,19.2282 8.45592005,18.8790228 8.40226677,18.5035264 C8.37549203,18.1280283 8.36172777,17.7398354 8.36172777,17.3375167 C8.36172777,16.6938058 8.4556251,16.1030594 8.64335966,15.5666321 C8.85793998,15.0033891 9.17967937,14.4938747 9.60881269,14.0379109 C9.55515942,14.0111051 9.52880525,13.8897836 9.52880525,13.6752 C9.52880525,13.4606218 9.55515942,13.1388808 9.60881269,12.709748 C9.60881269,12.2806065 9.66261344,11.8786996 9.76989814,11.5031994 C9.87717737,11.1008828 9.9974234,10.71269 10.1315429,10.3371897 Z M13.3106045,16.6526327 C13.1764904,16.6526327 13.0161423,16.6663543 12.8284078,16.6931706 C12.6406732,16.7199666 12.4518298,16.7611119 12.2640734,16.8147854 C12.0763334,16.8416022 11.9022812,16.8943564 11.7413432,16.9748052 C11.5804162,17.0284585 11.4327235,17.1223585 11.2986204,17.2564398 C11.0035902,17.5246565 10.7757208,17.8200269 10.6148047,18.1418821 C10.4806797,18.4637373 10.4142454,18.8382145 10.4142454,19.2673539 C10.4142454,19.9915299 10.5344969,20.5822747 10.7758902,21.0382379 C11.0172889,21.4941979 11.3791085,21.8296568 11.8618896,22.0442283 C12.3446708,22.2588065 12.9217043,22.4328571 13.5922363,22.5669591 C14.2895923,22.6742247 15.1071288,22.7280457 16.0458726,22.7280457 L16.1664191,22.7280457 C17.0783445,22.7280457 17.884296,22.6742455 18.581652,22.5669591 C19.2790026,22.4596919 19.8686861,22.2856369 20.3514672,22.0442283 C20.8342538,21.8028367 21.1960788,21.4673773 21.4374667,21.0382379 C21.6788545,20.5822763 21.7991115,19.9915299 21.7991115,19.2673539 C21.7991115,18.8650352 21.7189565,18.5042758 21.5580186,18.1824206 C21.4239045,17.8337448 21.1960461,17.5246543 20.8741974,17.2564398 C20.7400834,17.1223252 20.5786757,17.0147363 20.3909411,16.9342667 C20.2032011,16.8270017 20.0027728,16.7595001 19.788198,16.7326423 C19.6004525,16.678989 19.3451693,16.6526327 19.0233043,16.6526327 C18.7014502,16.6526321 18.3259046,16.678989 17.8967658,16.7326423 C17.467627,16.7594586 17.1057965,16.7879489 16.8107663,16.8147854 L16.1664191,16.8147854 L15.4836685,16.8147854 C15.2422861,16.7880106 14.9732769,16.7742475 14.6782358,16.7742475 C14.3832056,16.7474514 14.1152615,16.7200076 13.8738737,16.6931706 C13.6592934,16.6663958 13.4715206,16.6526327 13.3106045,16.6526327 Z M13.4311509,17.9807956 C13.592078,17.9807956 13.72605,18.0208741 13.8333347,18.1013437 C13.9674488,18.1549969 14.0750393,18.2615317 14.1555056,18.42245 C14.2627848,18.5833765 14.3429507,18.7584922 14.3966039,18.9462475 C14.4770702,19.1339886 14.5171504,19.3217614 14.5171504,19.5095168 C14.5171504,19.7240965 14.4907962,19.9255899 14.4371429,20.1133245 C14.3834897,20.2742493 14.2896087,20.4345985 14.1555056,20.5955173 C14.0482264,20.7564498 13.9406412,20.8777588 13.8333347,20.9582283 C13.7260555,21.0118816 13.5920889,21.0382379 13.4311509,21.0382379 C13.2702293,21.0382379 13.1225313,21.0118816 12.9884281,20.9582283 C12.8543195,20.8777566 12.7467289,20.7564356 12.6662572,20.5955173 C12.5321432,20.4614027 12.4382568,20.301059 12.3846199,20.1133245 C12.3578451,19.9255817 12.3440863,19.7240965 12.3440863,19.5095168 C12.3440863,19.2949392 12.3578069,19.1071658 12.3846199,18.9462475 C12.4382731,18.758507 12.5321759,18.5833891 12.6662572,18.42245 C12.7467289,18.2883332 12.8543304,18.1818132 12.9884281,18.1013437 C13.1225476,18.0208741 13.2702348,17.9807956 13.4311509,17.9807956 Z M18.8216798,17.9807956 C18.9557939,17.9807956 19.0897605,18.0208741 19.2238636,18.1013437 C19.3579777,18.1549969 19.4655683,18.2615317 19.5460345,18.42245 C19.680154,18.5833765 19.761385,18.7584922 19.788198,18.9462475 C19.8418512,19.1339886 19.8682109,19.3217614 19.8682109,19.5095168 C19.8682109,19.7240965 19.8418512,19.9255899 19.788198,20.1133245 C19.761385,20.2742493 19.6801595,20.4345985 19.5460345,20.5955173 C19.4655628,20.7564498 19.3579668,20.8777588 19.2238636,20.9582283 C19.0897496,21.0118816 18.955783,21.0382379 18.8216798,21.0382379 C18.6607473,21.0382379 18.5130602,21.0118816 18.378957,20.9582283 C18.244843,20.8777566 18.1246024,20.7564356 18.0173122,20.5955173 C17.9100439,20.4614027 17.8298726,20.301059 17.7762194,20.1133245 C17.7225661,19.9255817 17.6962064,19.7240965 17.6962064,19.5095168 C17.6962064,19.2949392 17.7225661,19.1071658 17.7762194,18.9462475 C17.8298617,18.758507 17.9100494,18.5833891 18.0173122,18.42245 C18.1245915,18.2883332 18.2448594,18.1818132 18.378957,18.1013437 C18.5130766,18.0208741 18.6607637,17.9807956 18.8216798,17.9807956 Z" id="path90" fill="#444444" fill-rule="nonzero"></path>
    </g>
</svg>