<svg xmlns="http://www.w3.org/2000/svg" viewBox="0 0 32 32"><path d="M7 22.9c.1-.6.5-1 .9-1.4.5-.5 1.1-.8 1.8-1.2.7-.4 1.4-.7 2.1-1 .1 0 .2-.1.2-.2.6-1.2 1.2-2.4 1.7-3.6.3-.7.5-1.4.8-2.1v-.1c-.3-.7-.6-1.5-.7-2.3-.2-.8-.2-1.6-.1-2.4.1-.5.4-.9.8-1.3.1-.1.3-.1.5-.1h.8c.2 0 .4.1.5.3.3.2.5.5.7.8.2.4.2.8.3 1.2 0 1.2-.2 2.3-.4 3.4-.1.4-.2.7-.3 1.1v.1c.6 1.1 1.4 2.1 2.2 3 .1.1.1.1.3.1 1.1-.2 2.2-.2 3.2-.2.6 0 1.3.1 1.9.4.3.2.6.4.8.7.1.2.2.4.2.6v.7c0 .2-.1.4-.3.5-.2.2-.4.5-.8.5-.2 0-.5.1-.7.1-1.6.1-2.9-.4-4.2-1.3-.2-.2-.5-.4-.7-.6-.1 0-.1-.1-.2-.1-.6.1-1.2.2-1.8.4-.8.2-1.6.5-2.4.7-.1 0-.1.1-.2.1-.5.9-1.1 1.8-1.7 2.6-.5.6-1.1 1.2-1.7 1.7-.3.2-.7.4-1.1.5h-.8c-.2 0-.3 0-.5-.1-.5-.2-.9-.6-1-1.1-.1 0-.1-.2-.1-.4zm8.8-7c-.3.8-.7 1.6-1 2.4l2.4-.6c-.5-.6-1-1.3-1.4-1.8zm4.3 2.6c.6.4 1.3.7 2 .9.3.1.5 0 .7-.1.2-.1.3-.4.1-.5 0-.1-.1-.1-.2-.1-.2-.1-.5-.1-.8-.2-.6-.1-1.2-.1-1.8 0zm-9.4 2.8s-.1 0 0 0c-.6.3-1.2.7-1.7 1.1-.3.2-.5.5-.7.8v.2c.1.1.1.1.2.1.3-.2.5-.4.7-.5.6-.5 1-1.1 1.5-1.7zM15 11.2c.1 0 .1 0 0 0 .2-.6.3-1.2.3-1.7 0-.3 0-.6-.1-.9 0-.1-.1-.1-.2-.1s-.1.1-.2.1c-.2.3-.2.6-.2 1 0 .3 0 .5.1.8.2.2.2.5.3.8z"/></svg>