<svg xmlns="http://www.w3.org/2000/svg" viewBox="0 0 32 32"><path d="M13.4 26h-1.5c.1-.3.1-.7.2-.8 1-.4.7-1.2.7-2V17c-1-.2-2-.1-2.7-.5-2.2-1.4-2.8-3.7-1.8-6.1.3-.7.2-1.2-.7-1.3-.2 0-.5-.1-.8-.2v-.2c.6-.3 1.1-.7 1.7-1 .2-.1.6 0 .8-.2 1.6-.8 1.9-.7 2.8.9.5 1 .4 1.9-.1 2.9-.3.5-.7 1.2.1 1.5 2-2.8 3.7-5.7 7.2-6.8h.7c.5.7 1.2 1.2 1.6 2 1.1 1.8 1.9 3.7 3 5.4.8 1.2.7 3.6-.3 4.4v-3.5h-.4c-.9 1.3-.4 2.8-.4 4.3 0 2.5-.1 5-.1 7.4h-.7c0-.3-.1-.5 0-.8.4-3.1 0-6.2-1.1-9.2-.9.8-1.3 1.8-1.4 3-.1.9-.4 1.8-.7 2.7-.3.8-1.1 1.5-.1 2.3.1.1-.1.6-.1 1.1-.4-.5-.6-.8-.8-1v.3c-.7.2-1.5.3-2.2.5 0-.1-.1-.3-.1-.4.2-.1.4-.2.6-.4 1-.6 1.1-1.2.3-1.9-1.3-1-1.7-2.2-1.1-3.7.2-.4.1-.9.2-1.7-.7.4-1.3.6-1.4.9-.4 1.5-.6 3.1-.8 4.6-.3 1.4-.4 2.5-.6 3.7zm4.6-3.8c1.4-1.8 1.6-3.8.6-5.2-.6 1.2-1.2 2.4-1.8 3.7l1.2 1.5z"/></svg>