<svg xmlns="http://www.w3.org/2000/svg" viewBox="0 0 32 32"><path d="M25 7.4V7H7v18h17.5c.4 0 .5-.1.5-.5V7.4zm-10.6 9.7c-.8.2-1.4.2-2.4.3V21h-1.8c-.1 0-.2-.3-.2-.5V11c0-.1 1-.2 1.5-.2.9 0 1.8 0 2.6.1 1.7.2 2.6 1.3 2.7 2.8.1 1.7-.8 3-2.4 3.4zm7.7 2c-.1.9-.6 1.5-1.4 1.8-1.2.5-2.4.4-3.6-.1-.1 0-.2-.2-.2-.3.1-.4.2-.8.3-1.1.7.1 1.4.3 2 .4.4.1.8-.1.9-.6.1-.4-.1-.7-.6-1-.3-.2-.7-.3-1-.4-1.1-.5-1.6-1.2-1.5-2.3.1-.9.8-1.6 1.9-1.9.9-.2 1.8-.1 2.6.2.1 0 .3.3.2.4-.1.4-.2.7-.3 1.1-.5-.1-1-.2-1.4-.3-.2 0-.5 0-.7.1-.5.2-.6.8-.2 1.1.2.2.4.2.7.4.3.2.7.3 1.1.5.8.3 1.2 1 1.2 2z"/><path d="M13.9 12.5c-.6-.1-.9-.1-1.9-.2v3.4c1 .1 1.4.1 2.1-.2.7-.3.8-1 .8-1.6 0-.7-.4-1.2-1-1.4z"/></svg>