<?xml version="1.0" encoding="UTF-8" standalone="no"?>
<svg
   width="32px"
   height="32px"
   viewBox="0 0 32 32"
   version="1.1"
   id="svg10"
   sodipodi:docname="php.svg"
   xmlns:inkscape="http://www.inkscape.org/namespaces/inkscape"
   xmlns:sodipodi="http://sodipodi.sourceforge.net/DTD/sodipodi-0.dtd"
   xmlns="http://www.w3.org/2000/svg"
   xmlns:svg="http://www.w3.org/2000/svg">
  <sodipodi:namedview
     id="namedview12"
     pagecolor="#ffffff"
     bordercolor="#666666"
     borderopacity="1.0"
     inkscape:pageshadow="2"
     inkscape:pageopacity="0.0"
     inkscape:pagecheckerboard="0" />
  <!-- Generator: Sketch 49.1 (51147) - http://www.bohemiancoding.com/sketch -->
  <title
     id="title2">php</title>
  <desc
     id="desc4">Created with Sketch.</desc>
  <defs
     id="defs6" />
  <g
     id="php"
     stroke="none"
     stroke-width="1"
     fill="none"
     fill-rule="evenodd">
    <path
       d="M 11.62202,20.496069 C 11.624108,19.524196 10.818343,18.896862 9.9862532,18.600321 9.5371096,18.342839 9.0979203,18.118218 8.5889857,17.982783 8.2661102,17.575969 7.5509479,17.990455 7.5277313,18.416164 7.6664347,18.798546 7.9488136,19.115694 8.157025,19.456055 8.6292575,19.753617 8.9118181,20.299664 9.2248029,20.751646 9.6610243,21.225026 9.5027283,21.950198 9.3620362,22.510841 9.0539008,23.035839 8.7962254,23.638727 8.2867294,24.005761 8.0074504,24.256233 7.4146575,23.963141 7.0727627,23.832447 6.2214155,23.451587 6.6232113,22.592585 7.2407702,22.372599 7.7007606,22.113195 7.4672931,21.542842 7.2897163,21.189224 6.8598659,20.822788 6.5030876,20.371401 6.0398056,20.036573 4.9228911,19.220302 3.8914803,18.19849 3.444087,16.856113 2.9684071,15.787474 2.9683826,14.579072 3.0434006,13.432981 3.145191,12.115674 3.4869329,10.818922 4.1699801,9.6801257 4.6286646,8.8085431 5.1687096,7.9162221 6.0767486,7.4533173 6.8070693,7.2184531 7.5468014,7.0630142 8.2866288,6.8791378 9.5792466,6.5193291 10.940392,6.3909068 12.273067,6.5866774 13.601414,6.6375679 14.648205,7.7715237 15.086887,8.9482143 15.267335,9.9363575 15.425397,10.971958 15.210696,11.964452 14.850471,13.309379 13.915931,14.482619 12.630747,15.047039 12.055355,15.400608 11.126122,15.621068 10.664422,14.987395 10.30283,14.611965 10.028399,14.148759 9.7801412,13.694347 9.6348873,13.427769 9.4870589,13.17435 9.370346,12.934866 9.3927955,13.294913 9.5376338,13.980488 9.7415421,14.441971 9.9421681,14.913638 10.197249,15.435735 10.669749,15.686106 12.069552,15.935964 13.698143,15.636212 14.64549,14.49451 15.676351,13.48301 16.174444,12.024574 16.223979,10.604893 16.155546,9.9632479 16.155423,9.2726793 15.957627,8.6685007 15.941622,8.32828 15.790571,7.9489375 15.891592,7.6807924 16.187442,7.4068238 16.64861,7.4490964 17.083669,7.3449825 18.572904,7.0616458 20.097587,7.2171007 21.590087,7.3666771 24.263551,7.8543502 26.609202,9.6787185 27.918396,12.036912 28.268804,12.765011 28.57742,13.516528 28.782986,14.299592 28.950328,14.641828 28.996254,15.262498 28.869788,15.556183 28.430225,15.431733 28.081228,15.022102 27.807959,14.6467 27.750613,14.233072 27.223197,14.184974 27.309058,14.689471 27.100584,15.430051 26.712791,16.130852 26.434354,16.853396 26.183455,17.521033 25.491229,17.895864 25.239799,18.513526 25.174907,18.869091 25.048167,19.213854 25.098755,19.595159 25.051833,20.192563 25.242074,20.763543 25.267606,21.357819 25.369481,22.092227 25.491948,22.827585 25.489371,23.572431 25.75304,24.477363 24.538899,24.864025 23.842271,24.915661 23.069583,25.008681 22.281536,24.935902 21.502406,24.958989 21.503916,24.318703 21.588341,23.543672 20.949872,23.158059 20.715663,22.807223 21.166079,22.214606 21.17494,21.733547 21.47569,20.963879 21.082514,19.790212 20.159416,19.759325 19.436013,20.15382 18.599349,20.416517 17.771468,20.352388 17.238638,20.262689 16.723464,20.025777 16.184043,20.030104 15.590006,20.152413 15.371295,20.813052 15.258138,21.343568 15.031899,22.121961 15.268915,22.910077 15.350364,23.702386 15.462254,24.249696 15.514265,24.909679 14.743647,24.850662 14.082818,25.017415 13.406488,25.111934 12.728774,24.969862 11.970303,25.2135 12.415992,24.363563 12.22486,23.989514 12.259849,23.291168 11.065464,23.217329 11.634392,22.638113 11.724984,21.937863 11.76752,21.190069 11.62202,20.496069 Z M 6.3790049,17.636234 C 6.7799566,17.321064 6.6417646,16.864398 6.5231628,16.442261 6.2846539,15.795293 5.5289557,15.701561 5.2522791,16.336245 4.9548375,16.760597 4.4181673,17.056351 4.298712,17.558624 4.1994343,18.01439 4.7087815,18.07046 5.0447013,18.026144 5.5152124,18.034597 6.0588183,18.047756 6.3790049,17.636234 Z M 6.4658061,13.259826 C 6.4190605,12.311466 4.9842176,12.594905 5.2956488,13.476485 5.5428783,14.048746 6.4342073,13.849001 6.4658061,13.259826 Z"
       id="path112"
       fill="#444444"
       fill-rule="nonzero" />
  </g>
</svg>
