<?xml version="1.0" encoding="UTF-8" standalone="no"?>
<svg
   viewBox="0 0 32 32"
   version="1.1"
   id="svg4"
   xmlns="http://www.w3.org/2000/svg"
   xmlns:svg="http://www.w3.org/2000/svg">
  <defs
     id="defs8" />
  <path
     id="path2"
     d="M 10.132812 7 C 8.5857458 6.9502414 6.9960938 8.0207725 6.9960938 10 C 6.9960938 13.518627 12.01799 14.167524 12.900391 10.75 L 19.099609 10.75 C 19.173539 11.013056 19.28207 11.265226 19.421875 11.5 L 11.503906 19.427734 C 11.052631 19.150295 10.53364 19.001821 10.003906 19 C 7.5083512 18.993566 6.0955167 21.859212 7.6210938 23.833984 C 9.146671 25.808756 12.276492 25.166317 12.900391 22.75 L 19 22.75 L 19 25 L 24.990234 25 L 24.990234 19 L 19 19 L 19 21.25 L 12.900391 21.25 C 12.826461 20.986944 12.71793 20.734774 12.578125 20.5 L 20.5 12.572266 C 20.951275 12.849705 21.470266 12.998179 22 13 C 24.494867 13.003939 25.903095 10.137522 24.376953 8.1640625 C 22.85081 6.1906026 19.72333 6.834353 19.099609 9.25 L 12.900391 9.25 C 12.51434 7.7548332 11.336087 7.0387011 10.132812 7 z M 22.072266 8.4648438 A 1.5064048 1.5064048 0 0 1 23.578125 9.9707031 A 1.5064048 1.5064048 0 0 1 22.072266 11.476562 A 1.5064048 1.5064048 0 0 1 20.564453 9.9707031 A 1.5064048 1.5064048 0 0 1 22.072266 8.4648438 z M 10.011719 8.546875 A 1.5064048 1.5064048 0 0 1 11.519531 10.052734 A 1.5064048 1.5064048 0 0 1 10.011719 11.560547 A 1.5064048 1.5064048 0 0 1 8.5058594 10.052734 A 1.5064048 1.5064048 0 0 1 10.011719 8.546875 z M 20.498047 20.5 L 23.498047 20.5 L 23.498047 23.5 L 20.498047 23.5 L 20.498047 20.5 z M 9.9414062 20.544922 A 1.5064048 1.5064048 0 0 1 11.449219 22.050781 A 1.5064048 1.5064048 0 0 1 9.9414062 23.558594 A 1.5064048 1.5064048 0 0 1 8.4355469 22.050781 A 1.5064048 1.5064048 0 0 1 9.9414062 20.544922 z " />
</svg>
