<svg fill="none" version="1.1" viewBox="0 0 32 32" xmlns="http://www.w3.org/2000/svg"><path d="m16.4 5.41a1.2 1.2 0 0 0-1.09 0.553l-8.11 12.8a1.17 1.17 0 0 0 0.0137 1.28l3.96 5.98c0.236 0.357 0.645 0.562 1.07 0.562a1.3 1.3 0 0 0 0.361-0.0508l11.5-3.31c0.352-0.102 0.64-0.344 0.791-0.666 0.15-0.322 0.149-0.69-0.00586-1.01l-7.48-15.5a1.2 1.2 0 0 0-1.02-0.666zm0.318 2.62c0.133-0.0148 0.276 0.0426 0.344 0.184l6.46 13.4a0.451 0.451 0 0 1-0.295 0.631l-9.76 2.81c-0.299 0.086-0.583-0.166-0.521-0.459l3.49-16.3c0.0325-0.152 0.158-0.239 0.291-0.254z" fill="#000"/></svg>
