<?xml version="1.0" standalone="no"?>
<!DOCTYPE svg PUBLIC "-//W3C//DTD SVG 1.1//EN" "http://www.w3.org/Graphics/SVG/1.1/DTD/svg11.dtd" >
<svg xmlns="http://www.w3.org/2000/svg" xmlns:xlink="http://www.w3.org/1999/xlink" version="1.1" viewBox="-10 0 1010 1024">
   <path fill="currentColor"
d="M215.178 -42.6123c0 0 101.63 122.455 284.777 122.455c183.191 0 285.045 -122.455 285.045 -122.455s103.863 161.739 94.3887 319.189c-9.51855 157.449 -68.3779 328.753 -379.434 504.035c-115.171 -64.9824 -195.572 -129.294 -251.974 -192.712
c-95.6406 -107.528 -121.428 -212.152 -127.371 -311.323c-9.47559 -157.45 94.5674 -319.189 94.5674 -319.189zM230.016 43.7324c-16.0889 33.4736 -29.4072 68.1553 -39.5967 103.863c24.8486 -31.2393 58.1436 -54.7471 95.9082 -67.6631
c-19.6641 -10.6816 -38.4795 -22.748 -56.3115 -36.2002zM769.983 43.7324c-17.832 13.4521 -36.5586 25.5186 -56.2227 36.2002c37.7197 12.9609 70.9707 36.4238 95.8193 67.6631c-10.1895 -35.708 -23.4629 -70.3896 -39.5967 -103.863zM364.896 123.552
c-127.773 -9.11719 -210.319 132.467 -139.483 239.146c70.8818 106.725 233.426 85.54 274.543 -35.7979c21.3174 62.6572 80.1318 104.847 146.321 104.937c125.808 0 198.834 -142.3 125.494 -244.51c-73.3389 -102.21 -231.548 -78.5684 -271.815 40.625
c-19.8887 -58.8145 -73.1162 -99.9756 -135.06 -104.4zM353.634 200.153c42.6357 0 77.2275 34.5918 77.2275 77.2275c0.0449219 42.6816 -34.5469 77.3174 -77.2275 77.3174s-77.2725 -34.6357 -77.2275 -77.3174c0 -42.6357 34.5908 -77.2275 77.2275 -77.2275z
M646.276 200.153c42.6357 0 77.2275 34.5918 77.2275 77.2275c0.0449219 42.6816 -34.5469 77.3174 -77.2275 77.3174s-77.2725 -34.6357 -77.2275 -77.3174c0 -42.6357 34.5908 -77.2275 77.2275 -77.2275zM467.151 452.395l32.8037 32.8936l32.8037 -32.8936
c-11.7539 -7.68652 -22.793 -16.5801 -32.8037 -26.457c-10.0117 9.9209 -21.0059 18.7705 -32.8037 26.457zM288.473 551.969c16.4023 18.4131 33.877 35.8428 52.29 52.2002v-48.8037h54.2559v93.0479c25.1611 18.8154 51.1719 36.5137 77.8525 53.0947v-79.2842h54.167
v79.373c28.0664 -17.4746 54.0322 -35.2168 77.9424 -53.0938v-93.1377h54.167v48.9824c40.5352 -36.1113 73.1162 -73.3398 98.1436 -111.909c13.6758 -20.915 25.4297 -43.083 35.0381 -66.1436c-54.5684 53.6748 -134.21 73.0713 -207.37 50.5908l-85.0039 85.0039
l-85.0938 -85.0039c-73.1602 22.4355 -152.712 2.99414 -207.281 -50.6807c16.8496 40.1338 42.3232 82.2783 80.8926 125.764z" />
</svg>
