<?xml version="1.0" encoding="UTF-8" standalone="no"?>
<svg
   viewBox="0 0 1200 1000"
   version="1.1"
   id="svg1505"
   sodipodi:docname="pug.svg"
   xmlns:inkscape="http://www.inkscape.org/namespaces/inkscape"
   xmlns:sodipodi="http://sodipodi.sourceforge.net/DTD/sodipodi-0.dtd"
   xmlns="http://www.w3.org/2000/svg"
   xmlns:svg="http://www.w3.org/2000/svg">
  <sodipodi:namedview
     id="namedview5"
     pagecolor="#ffffff"
     bordercolor="#666666"
     borderopacity="1.0"
     inkscape:pageshadow="2"
     inkscape:pageopacity="0.0"
     inkscape:pagecheckerboard="0" />
  <defs
     id="defs1509" />
  <path
     id="path1501"
     d="m 594.05078,300.04688 c -41.93071,-0.68402 -83.55514,5.58031 -124.80592,12.41778 -27.69987,31.31551 -60.13861,60.90982 -72.22025,102.43854 -11.25536,36.91638 -13.75539,76.09239 -14.98681,114.47372 -2.90567,34.69334 32.64557,54.53207 37.1054,86.92491 5.12154,20.16288 24.91001,43.39094 45.4934,43.22539 -16.32303,-46.36596 -20.33434,-104.72834 15.6516,-143.19944 17.20822,-20.92482 42.2176,-32.97711 65.82255,-44.32499 19.66778,-20.54617 52.73097,-25.42699 77.66256,-12.41644 18.47643,16.32608 42.60722,22.50023 62.06876,37.62001 35.73787,25.06855 54.54536,70.1769 47.37826,113.28705 2.77599,14.41304 -24.96948,65.93928 5.75245,41.58109 28.67891,-15.71765 22.47583,-53.69048 43.78933,-74.6372 12.20584,-21.09118 26.22365,-44.63357 16.30327,-69.6646 C 792.3421,459.16813 790.00664,406.52476 758.03122,366.39197 735.8895,347.15976 722.88,307.96866 690.7267,307.93581 c -32.04925,-3.62036 -64.17663,-8.61823 -96.67592,-7.88893 z M 715.59961,311 l 0.2072,-0.14812 z m 88.59961,222.59961 -0.0255,0.28563 z M 429.30078,311.19922 c -42.62079,0.90356 -88.01439,11.95766 -117.19977,45.24646 -24.34539,22.85404 -48.92882,46.04905 -67.4698,74.04878 5.37674,25.41011 39.01579,29.5484 49.18385,53.07689 15.4913,14.49748 18.89199,70.98038 45.47672,54.90122 15.83429,-52.996 7.96305,-113.8651 40.68977,-161.52551 11.20161,-24.87429 42.75434,-40.68756 49.50926,-65.20238 z m 321.5,0 c 4.8306,23.88665 31.80507,33.73207 42.24608,54.91764 29.24891,37.64228 34.71107,86.17215 39.57572,131.93341 -3.08944,24.01492 18.33144,69.09273 33.45319,26.96886 11.12631,-31.33101 30.21199,-61.65322 60.77252,-76.86958 23.21758,-29.90121 -26.34977,-51.9211 -40.39477,-74.26635 -25.61742,-26.52011 -55.03482,-52.95291 -93.10978,-58.00257 -14.02592,-2.71658 -28.29151,-3.93747 -42.54296,-4.68141 z m -315.90039,71.90039 c 2.25314,-0.55442 1.39617,4.15086 0,0 z m 29.40039,19.09961 c 39.07695,-2.44634 59.74953,54.44461 27.76041,77.54148 -29.71761,26.09371 -81.75579,-4.61129 -70.19598,-43.48758 4.41262,-19.13919 22.26973,-35.01481 42.43557,-34.0539 z m 261.5,0 c 39.07695,-2.44634 59.74953,54.44461 27.76041,77.54148 -29.71761,26.09371 -81.75579,-4.61129 -70.19598,-43.48758 4.41262,-19.13919 22.26973,-35.01481 42.43557,-34.0539 z m 46.59961,50.40039 -0.43001,1.03033 z m -0.30078,5.90039 -0.002,4.29299 z m -84.40039,13.59961 -0.0581,0.18193 z m -87.67383,12.71875 c -31.79226,-2.61595 -52.04707,28.65844 -78.31469,41.34138 -33.871,30.02782 -44.63173,80.03341 -32.05024,122.68945 -2.27365,29.65629 22.26875,44.89944 49.09824,45.03982 48.88402,9.81136 100.00826,6.29901 147.56292,-7.9032 21.00318,-13.36587 15.36863,-44.2523 19.67343,-65.99402 3.4196,-43.49018 -18.6423,-88.2706 -58.05517,-108.46965 -17.60232,-7.25344 -26.99532,-27.95522 -47.91449,-26.70378 z" />
</svg>
