<svg version="1.1" viewBox="0 0 1200 1e3" xmlns="http://www.w3.org/2000/svg"><path d="m469 312c-27.7 31.3-60.1 60.9-72.2 102-11.3 36.9-13.8 76.1-15 114-2.91 34.7 32.6 54.5 37.1 86.9 5.12 20.2 24.9 43.4 45.5 43.2-16.3-46.4-20.3-105 15.7-143 17.2-20.9 42.2-33 65.8-44.3 19.7-20.5 52.7-25.4 77.7-12.4 18.5 16.3 42.6 22.5 62.1 37.6 35.7 25.1 54.5 70.2 47.4 113 2.78 14.4-25 65.9 5.75 41.6 28.7-15.7 22.5-53.7 43.8-74.6 12.2-21.1 26.2-44.6 16.3-69.7-6.72-48.6-9.06-101-41-141-22.1-19.2-35.2-58.4-67.3-58.5-32-3.62-64.2-8.62-101-8.59s-78.8 6.97-120 13.8zm-40-1.3c-42.6 0.904-88 12-117 45.3-24.3 22.9-48.9 46-67.5 74 5.38 25.4 39 29.5 49.2 53.1 15.5 14.5 18.9 71 45.5 54.9 15.8-53 12.1-111 40.7-162 15.8-27.8 40.1-31.5 49.3-65.8zm322 0.0288c4.83 23.9 29 35.3 42.2 54.9 26.7 39.5 38.4 85.9 39.6 132 0.616 24.2 18.3 69.1 33.5 27 11.1-31.3 30.2-61.7 60.8-76.9 23.2-29.9-26.3-51.9-40.4-74.3-25.6-26.5-55-53-93.1-58-14-2.72-28.3-3.94-42.5-4.68zm-286 91c39.1-2.45 59.7 54.4 27.8 77.5-29.7 26.1-81.8-4.61-70.2-43.5 4.41-19.1 22.3-35 42.4-34.1zm262 0c39.1-2.45 59.7 54.4 27.8 77.5-29.7 26.1-81.8-4.61-70.2-43.5 4.41-19.1 22.3-35 42.4-34.1zm-204 124c-33.9 30-40.5 79.3-34.2 123 4.2 29.4 25.9 45.2 52.5 48.7 49.4 6.5 98.8 2.03 146-12.2 21-13.4 15.4-44.3 19.7-66 3.42-43.5-18.6-88.3-58.1-108-17.6-7.25-23.8-27.4-50.9-28-27.8-0.578-48.7 29.9-75 42.5z"/></svg>
