<?xml version="1.0" encoding="UTF-8" standalone="no"?>
<svg
   viewBox="0 0 1200 1000"
   version="1.1"
   id="svg1505"
   sodipodi:docname="pug.svg"
   xmlns:inkscape="http://www.inkscape.org/namespaces/inkscape"
   xmlns:sodipodi="http://sodipodi.sourceforge.net/DTD/sodipodi-0.dtd"
   xmlns="http://www.w3.org/2000/svg"
   xmlns:svg="http://www.w3.org/2000/svg">
  <sodipodi:namedview
     id="namedview5"
     pagecolor="#ffffff"
     bordercolor="#666666"
     borderopacity="1.0"
     inkscape:pageshadow="2"
     inkscape:pageopacity="0.0"
     inkscape:pagecheckerboard="0" />
  <defs
     id="defs1509" />
  <path
     id="path1501"
     d="M 594.05078,300.04688 C 552.09851,299.35914 510.39722,305.64459 469.24486,312.46466 461.6511,320.61408 445.34674,339.87472 433.48711,351.81841 405.90959,382.77776 390.04178,422.79746 387.20016,464.02381 384.47917,485.49993 381.06031,510.27958 382.19922,533.80078 382.60494,557.05385 398.21842,574.66433 411.0687,592.39822 418.8365,607.25322 418.3916,625.82712 430.39258,638.77538 436.24206,647.93064 462.92215,666.71874 464.6366,659.52722 454.45616,628.54377 448.38733,594.41703 455.83555,562.17117 466.53416,519.37497 503.38036,488.8054 543.51856,474.35325 557.18132,461.72297 573.4157,450.33134 593.40039,453.30078 613.38465,450.33109 629.61784,461.72368 643.28027,474.35325 683.41869,488.80566 720.26554,519.37484 730.96499,562.17117 738.40913,593.90101 732.26607,627.3596 722.77205,657.99424 722.06044,665.95866 744.78516,648.59608 750.2752,642.06211 768.52619,624.22847 763.49273,594.71132 782.76211,577.4373 790.83426,560.23302 806.95081,540.63618 801.37722,520.67207 792.19231,475.1349 794.51005,425.72364 769.64961,384.70039 756.03525,358.87361 733.92442,339.44039 715.18691,317.6248 713.35262,303.46343 684.88768,310.79627 671.51754,305.52434 645.84774,302.00237 619.96977,300.01547 594.05078,300.04688 Z M 715.59961,311 C 716.06034,311.1665 715.69144,310.4385 715.59961,311 Z M 804.19922,533.59961 C 803.8138,533.73286 804.51652,534.22804 804.19922,533.59961 Z M 429.30078,311.19922 C 391.45678,312.73804 351.13725,319.69074 322.52548,346.6366 294.85116,372.81847 265.79658,398.52511 244.63121,430.49446 244.65005,448.99564 273.94084,456.64995 284.63752,472.03615 303.12528,491.14069 308.66793,518.61869 323.03147,540.17344 344.6122,557.35449 343.89227,513.12991 347.23165,499.96217 353.61135,459.74894 354.43578,416.77193 377.37127,381.45055 390.8261,357.07341 411.97678,338.60562 429.83828,317.75 L 430.53984,314.75571 Z M 750.80078,311.19922 C 751.93054,330.27421 777.21628,340.67876 786.38249,357.59014 811.09824,387.19935 824.93369,424.57499 827.81997,462.85562 832.78253,489.24362 832.37268,517.31066 843.00054,542.23549 861.7207,552.0098 866.60438,517.66819 874.81201,505.38216 883.13665,484.71592 897.61775,467.52659 915.70319,454.67442 940.13021,444.73218 939.56189,425.06029 920.23822,409.89048 898.48798,385.25595 875.2983,361.61436 850.03112,340.56415 822.26882,317.79291 785.43299,313.0011 750.80078,311.19922 Z M 434.90039,383.09961 C 436.55683,382.38021 437.2219,387.07978 434.90039,383.09961 Z M 464.30078,402.19922 C 496.07534,400.73571 519.03354,439.35053 502.6423,466.59207 488.87072,494.90919 444.57363,497.04615 428.14053,470.18679 408.28575,442.5311 430.20003,401.18055 464.30078,402.19922 Z M 725.80078,402.19922 C 757.57534,400.73571 780.53354,439.35053 764.1423,466.59207 750.37072,494.90919 706.07363,497.04615 689.64053,470.18679 669.78575,442.5311 691.70003,401.18055 725.80078,402.19922 Z M 772.40039,452.59961 C 772.35301,455.39525 771.30111,452.55153 772.40039,452.59961 Z M 772.09961,458.5 C 773.00307,468.51672 771.19175,459.93125 772.09961,458.5 Z M 687.69922,472.09961 C 688.20639,472.53735 687.03713,472.14698 687.69922,472.09961 Z M 600.02539,484.81836 C 570.84232,479.99249 556.48567,509.19588 531.75524,518.22332 494.06218,544.32542 477.29372,593.90446 487.40414,638.05344 492.45916,655.37894 489.8651,685.10332 512.93789,688.1567 558.44357,699.87056 606.32312,703.85703 652.55584,693.78353 671.03402,689.33511 699.27547,690.75478 699.72718,665.11099 708.37532,626.25594 711.52174,582.20216 687.54402,547.85342 674.23216,523.90746 648.28632,513.22563 627.45119,498.11033 621.89417,488.61445 610.40672,485.13833 600.02539,484.81836 Z" />
</svg>
