<svg xmlns="http://www.w3.org/2000/svg" height="32" width="32"><path d="M7.239 2.865h7.972c.004 2.03-.007 4.06.005 6.09 1.088 1.071 2.16 2.16 3.244 3.235l.034.015c2.02.006 4.04 0 6.06.003l-.001 7.971h-6.014c-.103-.008-.154.103-.224.16-1.034 1.03-2.06 2.068-3.099 3.094-.012 2.029-.001 4.06-.005 6.089H7.239V21.55c2.033-.002 4.066.003 6.099-.002 1.083-1.09 2.172-2.174 3.258-3.26v-4.186c-1.086-1.09-2.176-2.176-3.262-3.265H7.239V2.866z" fill="#242424"/><path d="M9.91 5.536h2.643v2.642H9.91V5.536zm0 18.686h2.643v2.642H9.91v-2.642z" fill="#fefefe"/></svg>