<?xml version="1.0" encoding="UTF-8" standalone="no"?>
<svg
   height="32"
   width="32"
   version="1.1"
   id="svg6"
   xmlns="http://www.w3.org/2000/svg"
   xmlns:svg="http://www.w3.org/2000/svg">
  <defs
     id="defs10" />
  <path
     id="path2"
     d="M 7.2382812 2.8652344 L 7.2382812 10.837891 L 13.333984 10.837891 C 14.419984 11.926891 15.509703 13.011563 16.595703 14.101562 L 16.595703 18.287109 C 15.509703 19.373109 14.420891 20.458828 13.337891 21.548828 C 11.304891 21.553828 9.2712813 21.548781 7.2382812 21.550781 L 7.2382812 29.521484 L 15.210938 29.521484 C 15.214938 27.492484 15.204797 25.462594 15.216797 23.433594 C 16.255797 22.407594 17.280453 21.369844 18.314453 20.339844 C 18.384453 20.282844 18.436062 20.171688 18.539062 20.179688 L 24.552734 20.179688 L 24.554688 12.207031 C 22.534688 12.204031 20.514141 12.211078 18.494141 12.205078 L 18.460938 12.189453 C 17.376938 11.114453 16.304797 10.026078 15.216797 8.9550781 C 15.204797 6.9250781 15.214937 4.8952344 15.210938 2.8652344 L 7.2382812 2.8652344 z M 9.9101562 5.5351562 L 12.552734 5.5351562 L 12.552734 8.1777344 L 9.9101562 8.1777344 L 9.9101562 5.5351562 z M 9.9101562 24.222656 L 12.552734 24.222656 L 12.552734 26.863281 L 9.9101562 26.863281 L 9.9101562 24.222656 z " />
</svg>
