<svg xmlns="http://www.w3.org/2000/svg" viewBox="0 0 32 32"><path fill="#356EA1" d="M15.6 15.5h-2c-1.4 0-2.3.9-2.3 2.3v1.8c0 .2-.1.3-.3.3h-.9c-.9 0-1.6-.4-2-1.2-.3-.6-.5-1.2-.5-1.8-.1-1.1-.1-2.2.3-3.3.3-.9.9-1.6 1.9-1.8h5.8c.1 0 .3 0 .3-.1v-.5s-.2-.1-.3-.1h-3.4c-.3 0-.4-.1-.4-.4V9.4c0-.7.3-1.2.9-1.4.5-.2 1-.4 1.5-.5 1.2-.2 2.4-.2 3.6.1.5.1 1 .3 1.4.6.4.4.7.8.6 1.4v3.6c0 1.4-.8 2.2-2.2 2.2-.7.1-1.4.1-2 .1zm-2.8-6c0 .4.3.8.8.8.4 0 .8-.4.8-.8s-.4-.7-.8-.8c-.5 0-.8.4-.8.8zm3.6 7h2c1.4 0 2.3-.9 2.3-2.3v-1.8c0-.2.1-.3.3-.3h.9c.9 0 1.6.4 2 1.2.3.6.5 1.2.5 1.8.1 1.1.1 2.2-.3 3.3-.3.9-.9 1.6-1.9 1.8h-5.8c-.1 0-.3 0-.3.1v.5s.2.1.3.1h3.4c.3 0 .4.1.4.4v1.3c0 .7-.3 1.2-.9 1.4-.5.2-1 .4-1.5.5-1.2.2-2.4.2-3.6-.1-.5-.1-1-.3-1.4-.6-.4-.4-.7-.8-.6-1.4v-3.6c0-1.4.8-2.2 2.2-2.2.7-.1 1.4-.1 2-.1zm2.8 6c0-.4-.3-.8-.8-.8-.4 0-.8.4-.8.8s.4.7.8.8c.5 0 .8-.4.8-.8z"/></svg>