<?xml version="1.0" encoding="UTF-8"?>
<svg width="32px" height="32px" viewBox="0 0 32 32" version="1.1" xmlns="http://www.w3.org/2000/svg" xmlns:xlink="http://www.w3.org/1999/xlink">
    <!-- Generator: Sketch 49.1 (51147) - http://www.bohemiancoding.com/sketch -->
    <title>python</title>
    <desc>Created with Sketch.</desc>
    <defs></defs>
    <g id="python" stroke="none" stroke-width="1" fill="none" fill-rule="evenodd">
        <path d="M15.9063364,3 C9.30590253,3 9.71802241,5.86233955 9.71802241,5.86233955 L9.72535261,8.82781089 L16.0240268,8.82781089 L16.0240268,9.71812422 L7.22361795,9.71812422 C7.22361795,9.71812422 3,9.2391163 3,15.8989044 C3,22.5588961 6.68647751,22.3227009 6.68647751,22.3227009 L8.88655426,22.3227009 L8.88655426,19.232209 C8.88655426,19.232209 8.76794762,15.5457315 12.5141866,15.5457315 L18.7613457,15.5457315 C18.7613457,15.5457315 22.2711859,15.6024387 22.2711859,12.1535817 L22.2711859,6.45109679 C22.2711859,6.45109679 22.804254,3 15.9063364,3 Z M12.433249,4.99422042 C12.7338556,4.99394997 13.0222278,5.1132457 13.2347888,5.32580671 C13.4473498,5.53836773 13.5666455,5.82673994 13.5663751,6.12734648 C13.5666455,6.42795303 13.4473498,6.71632524 13.2347888,6.92888626 C13.0222278,7.14144727 12.7338556,7.260743 12.433249,7.26047255 C12.1326425,7.260743 11.8442703,7.14144727 11.6317092,6.92888626 C11.4191482,6.71632524 11.2998525,6.42795303 11.300123,6.12734648 C11.2998525,5.82673994 11.4191482,5.53836773 11.6317092,5.32580671 C11.8442703,5.1132457 12.1326425,4.99394997 12.433249,4.99422042 Z M16.0937654,28.8647986 L16.0936636,28.8647986 C9.19584779,28.8647986 9.72881409,25.4138036 9.72881409,25.4138036 L9.72881409,19.7112169 C9.72881409,16.2622581 13.2386543,16.3189653 13.2386543,16.3189653 L19.4858134,16.3189653 C23.2320524,16.3189653 23.1134457,12.6324878 23.1134457,12.6324878 L23.1134457,9.54209772 L25.3135225,9.54209772 C25.3135225,9.54209772 29,9.30590253 29,15.9657924 C29,22.6257841 24.776382,22.1467762 24.776382,22.1467762 L15.9759732,22.1467762 L15.9759732,23.0370895 L22.2747492,23.0370895 L22.2820794,26.0024591 C22.2820794,26.0024591 22.6941993,28.8647986 16.0937654,28.8647986 Z" id="Combined-Shape" fill="#444444" fill-rule="nonzero"></path>
    </g>
</svg>