<svg preserveAspectRatio="xMidYMid" version="1.1" viewBox="0 0 32 32" xmlns="http://www.w3.org/2000/svg"><path d="m16 9.1c-4.94 0-8.95 2.68-8.95 5.99 1e-7 2.95 3.19 5.4 7.38 5.9v1.91h3.05v-1.9c0.746-0.0836 1.46-0.229 2.13-0.428l1.23 2.32 3.45-0.00195-2.07-3.5c1.68-1.09 2.72-2.61 2.72-4.3 0-3.31-4.01-5.99-8.95-5.99zm1.37 2.34c3.76 0 6.53 1.25 6.53 4.1 0 1.54-0.819 2.62-2.17 3.28-0.0742-0.0483-0.145-0.0889-0.197-0.115-0.314-0.16-0.855-0.322-0.855-0.322h0.00586s2.67-0.198 2.67-2.86c0-2.66-2.79-2.71-2.79-2.71h-6.13v6.41c-2.28-0.661-3.87-2.06-3.87-3.69 0-2.26 3.05-4.1 6.8-4.1zm0.135 3.56 1.85 0.00195c1e-6 0 0.855-0.0472 0.855 0.84 0 0.869-0.855 0.871-0.855 0.871l-1.85 0.00195v-1.71zm-0.0176 3.94h0.82c0.158 0 0.228 0.0485 0.398 0.186 0.0991 0.0797 0.228 0.255 0.334 0.414-0.494 0.0576-1.01 0.0899-1.55 0.0938v-0.693z" fill-rule="evenodd"/></svg>
