<svg xmlns="http://www.w3.org/2000/svg" viewBox="0 0 32 32"><path fill="#CD3F45" d="M24.4 10.8c-.7-.7-1.6-1.2-2.5-1.6-1.1-.5-2.2-.7-3.4-.5-1.2.2-2.3.6-3.2 1.3-1 .7-1.8 1.5-2.4 2.5-.4.6-.7 1.2-1.1 1.9-.5 1-1 2.1-1.4 3.2-.4 1.2-.7 2.5-.9 3.7-.1.9-.2 1.8-.2 2.7v.5h8.3c-.4-1.1-.8-2.2-1-3.3-.2-.8-.3-1.6-.4-2.4v-1.6c0-.7.1-1.4.4-2 .6-1.9 1.8-3.2 3.6-4.1.7-.3 1.4-.5 2.2-.4.7.1 1.3.4 1.8.8.1-.3.2-.5.2-.7.1 0 .1 0 0 0zM7.7 20.2c-.1.5-.1 1-.2 1.6.5.1 1 .1 1.5.2.1-.5.2-1.1.3-1.6-.6-.1-1.1-.2-1.6-.2zm3-4.7c-.5-.2-1-.4-1.4-.6-.2.4-.3.9-.5 1.3.5.2 1 .3 1.5.5.1-.4.2-.8.4-1.2zm7.7 6.3c0-.1 0-.1 0 0-.5-.1-.9-.1-1.3-.1H17v.1c.1.3.2.7.3 1 0 .1.1.1.1.1.5 0 1 .1 1.4.1h.1v-.1c-.1-.4-.3-.8-.5-1.1zm-5.3-10.3c-.4-.2-.7-.5-1.1-.7-.3.3-.6.6-.9 1 .4.3.8.5 1.1.8.3-.4.6-.7.9-1.1zm3.5 7.4c.5.2.9.4 1.2.6h.1v-.1c0-.3 0-.6-.1-.9 0 0 0-.1-.1-.1-.4-.2-.7-.4-1.1-.6h-.1c.1.4.1.7.1 1.1zM16.3 9c-.2-.3-.5-.5-.7-.8h-.1c-.3.2-.6.3-.9.5.1.3.4.6.6.9.4-.2.7-.4 1.1-.6zm.4 6.8c.4.3.7.6 1.1.9.1-.3.2-.6.2-1v-.1l-.1-.1c-.2-.2-.5-.4-.7-.6-.3.3-.4.6-.5.9zm2.9-7.3s0-.1 0 0c0-.3-.1-.5-.1-.7 0-.1 0-.1-.1-.1h-1.2c.1.3.1.6.2.9.4-.1.8-.1 1.2-.1zm-.7 4.9v-.1c-.2-.3-.4-.6-.6-.8v-.1c-.2.2-.4.4-.7.6.3.3.6.7.9 1 .2-.2.3-.4.4-.6zm1.6-2.2c-.3.1-.6.1-.9.2.1.3.3.5.4.8.2-.2.4-.3.6-.4 0-.3-.1-.5-.1-.6zm2-2c.3.2.6.3.8.5.1-.1.1-.2.2-.3-.3-.2-.7-.5-1-.7v.5c0-.1 0 0 0 0zm.6 2c-.2 0-.4-.1-.6-.1h-.2v.5c.3 0 .6.1.8.1.1-.3.1-.4 0-.5.1 0 0 0 0 0z"/></svg>