<?xml version="1.0" encoding="UTF-8" standalone="no"?>
<svg
   width="32px"
   height="32px"
   viewBox="0 0 32 32"
   version="1.1"
   id="svg10"
   sodipodi:docname="react.svg"
   xmlns:inkscape="http://www.inkscape.org/namespaces/inkscape"
   xmlns:sodipodi="http://sodipodi.sourceforge.net/DTD/sodipodi-0.dtd"
   xmlns="http://www.w3.org/2000/svg"
   xmlns:svg="http://www.w3.org/2000/svg">
  <sodipodi:namedview
     id="namedview12"
     pagecolor="#ffffff"
     bordercolor="#666666"
     borderopacity="1.0"
     inkscape:pageshadow="2"
     inkscape:pageopacity="0.0"
     inkscape:pagecheckerboard="0" />
  <!-- Generator: Sketch 49.1 (51147) - http://www.bohemiancoding.com/sketch -->
  <title
     id="title2">react</title>
  <desc
     id="desc4">Created with Sketch.</desc>
  <defs
     id="defs6" />
  <g
     id="react"
     stroke="none"
     stroke-width="1"
     fill="none"
     fill-rule="evenodd">
    <path
       d="M 21.716982,3.0000829 C 19.462569,3.1101084 17.595038,4.6302557 16.013,6.103227 14.378691,4.5981465 12.422766,3.0443416 10.097595,3.0323259 8.4613625,3.0439373 7.5810482,4.745307 7.4800215,6.1856255 7.0692131,7.6996972 8.0047261,9.7405859 7.627286,10.878425 5.5627671,11.54939 3.2109569,12.468493 2.1942568,14.537731 c -0.7047479,1.624856 0.6566414,3.211748 1.948827,4.040735 0.9967831,0.941662 3.0018653,1.119629 3.6738676,1.932106 -0.4433413,2.117115 -0.8192002,4.600817 0.4543142,6.511102 1.0496769,1.424804 3.1039684,1.032908 4.4615784,0.324441 1.312857,-0.398047 2.466635,-2.049853 3.50442,-2.229202 1.604511,1.441595 3.56259,3.010703 5.84864,2.857398 1.760354,-0.204809 2.440462,-2.185511 2.508326,-3.71704 0.326712,-1.328984 -0.56722,-3.17538 -0.150114,-4.140575 2.040524,-0.691057 4.310053,-1.634554 5.341998,-3.656005 0.740336,-1.582415 -0.575087,-3.165921 -1.860293,-3.961079 -1.0734,-0.88014 -2.833888,-1.178347 -3.768528,-1.835445 C 24.616233,8.4873975 24.977009,5.9719188 23.715324,3.9958145 23.265302,3.3513316 22.498209,2.9859667 21.716982,3.0000829 Z m -0.0488,1.1975423 c 1.346634,-0.027785 1.636058,1.6167768 1.691185,2.6656496 -0.03283,1.1420994 0.07821,2.9505344 -0.616119,3.6044292 C 21.398943,9.8851381 19.388562,10.583489 18.63652,9.1184551 18.082948,8.0404491 15.946924,6.9570781 17.798402,6.1090798 18.920713,5.220313 20.193465,4.3003453 21.668182,4.1976252 Z m -11.402014,0.026613 c 1.936475,0.1558135 3.526981,1.4795965 4.908668,2.735783 -1.1776,0.8633471 -1.623402,2.8762633 -3.119683,3.0388256 C 10.866055,9.8461049 8.6967053,11.359935 8.8140447,9.3882187 8.5905847,7.8311114 8.3434488,6.042219 9.259174,4.6550858 9.4978369,4.3494679 9.8898292,4.2210382 10.266168,4.2242382 Z m 5.747206,3.5935973 c 0.429139,0.5792028 1.635182,1.6340172 1.440992,1.986968 -0.910512,-0.139787 -2.541342,0.1498283 -3.00045,-0.1259317 0.491892,-0.6430221 1.010208,-1.2661394 1.559458,-1.8610363 z m -0.01326,3.1570175 c 0.907651,0.17534 2.252818,-0.342814 2.818825,0.494953 0.845191,1.290843 1.607024,2.635766 2.29169,4.01827 -0.745298,1.539415 -1.602405,3.023643 -2.54652,4.449447 -1.696828,0.120644 -3.401786,0.117497 -5.099212,0.0099 -0.964172,-1.413671 -1.822367,-2.899739 -2.563003,-4.442357 0.737134,-1.539453 1.588889,-3.022545 2.548628,-4.434027 0.848238,-0.0643 1.698936,-0.09617 2.549592,-0.09624 z m -4.085322,0.249815 c -0.616418,0.774608 -1.215834,2.390351 -1.713445,2.713464 -0.08183,-0.753362 -1.4605817,-2.336033 -0.216175,-2.4045 0.639203,-0.126236 1.283173,-0.227856 1.92962,-0.308964 z m 8.172505,0.0022 c 0.708529,0.297096 2.671758,-0.06008 2.411142,0.887993 -0.323524,0.626761 -0.645141,2.81738 -1.149681,1.244274 -0.398489,-0.723468 -0.818103,-1.43536 -1.261461,-2.132267 z M 8.2150899,11.956754 c 0.1571864,1.456771 1.6810571,2.854942 1.0588782,4.237454 -0.6072754,0.781598 -0.5497275,2.718556 -1.422782,2.806188 C 6.1170353,18.389136 4.1053306,17.620294 3.2617007,15.856179 2.9678673,14.531997 4.3973537,13.67633 5.3644151,13.093107 6.2624075,12.596759 7.2301215,12.237586 8.2150899,11.956754 Z m 15.5849141,0.01766 c 1.780842,0.571092 3.771482,1.261394 4.841008,2.90104 0.601115,1.313787 -0.89864,2.33185 -1.860879,2.928236 -0.885083,0.396598 -2.242875,1.356488 -2.992883,1.026295 -0.180585,-1.464037 -1.834125,-2.849033 -0.949879,-4.247963 0.363164,-0.852754 0.689532,-1.721707 0.962633,-2.607608 z m -7.800016,0.992721 c -1.826306,-0.08109 -3.137579,2.141068 -2.198513,3.705178 0.786819,1.628953 3.33182,1.753334 4.271816,0.206888 1.137155,-1.587542 -0.113464,-3.967939 -2.073303,-3.912066 z m 5.755633,3.906264 c 0.109095,0.772276 1.453759,2.31916 0.476884,2.572557 -0.708713,0.02973 -2.823397,0.873203 -1.711656,-0.364572 0.434659,-0.722776 0.8477,-1.458613 1.234772,-2.207985 z m -11.488191,0.04315 c 0.363262,0.934101 1.478823,2.276123 1.501566,2.877292 C 11.065296,19.49731 8.9769412,19.927045 9.5559169,18.790698 9.7698404,18.157476 10.00862,17.53275 10.26743,16.916549 Z m 12.756469,3.584791 c 0.402191,1.853155 0.75606,3.971205 -0.202321,5.712648 -0.834566,1.137712 -2.417983,0.370915 -3.394494,-0.165941 -0.80444,-0.58054 -2.280636,-1.305867 -2.394509,-2.133394 1.171247,-0.892179 1.537444,-3.017368 3.199611,-2.931393 0.937851,-0.113423 1.871195,-0.268721 2.791713,-0.48192 z M 9.036923,20.55507 c 1.344993,0.58345 3.323862,-0.07366 4.212696,1.153939 0.368578,0.912616 2.066077,1.826823 1.700406,2.624035 -1.392255,1.199665 -3.057478,2.565788 -5.0073093,2.419134 C 8.6489725,26.342066 8.6296418,24.673042 8.6080526,23.543946 8.6278076,22.534738 8.7951783,21.533358 9.036923,20.55507 Z m 8.653301,0.635308 c -0.606104,0.475378 -1.263643,2.402651 -1.962426,1.677003 -0.366361,-0.588136 -2.150201,-1.982127 -0.5542,-1.64731 0.838908,0.01638 1.678386,0.0081 2.516626,-0.02969 z"
       id="path4031"
       fill="#444444"
       fill-rule="nonzero" />
  </g>
</svg>
