<?xml version="1.0" encoding="UTF-8" standalone="no"?>
<svg
   width="32px"
   height="32px"
   viewBox="0 0 32 32"
   version="1.1"
   id="svg10"
   sodipodi:docname="rss.svg"
   xmlns:inkscape="http://www.inkscape.org/namespaces/inkscape"
   xmlns:sodipodi="http://sodipodi.sourceforge.net/DTD/sodipodi-0.dtd"
   xmlns="http://www.w3.org/2000/svg"
   xmlns:svg="http://www.w3.org/2000/svg">
  <sodipodi:namedview
     id="namedview12"
     pagecolor="#ffffff"
     bordercolor="#666666"
     borderopacity="1.0"
     inkscape:pageshadow="2"
     inkscape:pageopacity="0.0"
     inkscape:pagecheckerboard="0" />
  <!-- Generator: Sketch 49.1 (51147) - http://www.bohemiancoding.com/sketch -->
  <title
     id="title2">rss</title>
  <desc
     id="desc4">Created with Sketch.</desc>
  <defs
     id="defs6" />
  <g
     id="rss"
     stroke="none"
     stroke-width="1"
     fill="none"
     fill-rule="evenodd">
    <path
       d="m 6.1337643,6.0025247 c 3.4374678,-0.095321 6.8591557,0.8589707 9.8111687,2.6070728 5.475498,3.1418275 9.506164,8.9149475 10.065033,15.2592305 0.02651,0.689132 0.153492,1.534353 -0.0023,2.13115 -1.363319,0 -2.726638,0 -4.089957,0 -0.120096,-4.106979 -1.646927,-8.284464 -4.715119,-11.102266 -2.83382,-3.021377 -6.966994,-4.6099 -11.0688247,-4.71512 0,-1.3933558 0,-2.7867115 0,-4.1800673 z M 19.576873,26 c -1.371064,-3.9e-5 -2.742128,-1.6e-5 -4.113192,-2.2e-5 C 15.317699,24.878454 15.077995,23.778185 14.666074,22.724762 13.806968,20.31075 11.916818,18.209364 9.4318422,17.435015 8.4179516,17.082673 7.3658019,16.762824 6.2842603,16.795485 5.9007826,16.462563 6.1279118,15.894318 6.0668889,15.44298 c 0,-0.962031 0,-1.924063 0,-2.886094 2.4897286,-0.06395 4.9754961,0.632177 7.0631361,1.991423 2.003399,1.159514 3.636512,2.918822 4.784875,4.916939 C 18.963668,21.4765 19.593161,23.722522 19.576873,26 Z m -8.192941,-3.912567 c 0.750572,1.555909 -0.322813,3.600383 -2.0315174,3.862384 C 7.6994241,26.345093 5.89473,24.907212 6,23.190972 c -0.1221597,-2.009575 2.3551906,-3.41478 4.076613,-2.488713 0.602019,0.254437 1.065513,0.785529 1.307319,1.385174 z"
       id="path45"
       fill="#444444"
       fill-rule="nonzero" />
  </g>
</svg>
