<svg version="1.1" viewBox="0 0 32 32" xml:space="preserve" xmlns="http://www.w3.org/2000/svg"><path d="m10.65 24.34c-1.189-0.1531-2.025-0.6886-2.502-1.603-0.1227-0.235-0.252-0.5902-0.3111-0.8546l-0.01852-0.08292 0.6104-1.048c0.6614-1.135 0.6426-1.104 0.6488-1.097 0.00236 0.002359 0.3683 1.045 0.8133 2.317 0.4449 1.272 0.8144 2.327 0.8211 2.345 0.01323 0.03432 0.01509 0.03361-0.06189 0.0237zm1.377-0.05814c0.003422-0.01105 0.3414-1.352 0.7511-2.98 0.4097-1.628 0.7478-2.962 0.7515-2.966 0.005581-0.005581 5.643 2.162 5.69 2.188 0.02523 0.01383-0.5348 0.5028-1.043 0.9107-1.964 1.576-3.906 2.501-5.959 2.838-0.2106 0.03457-0.1982 0.03398-0.1904 0.008972zm3.221-0.1545c0.003157-0.003074 0.08324-0.04073 0.178-0.08368 1.095-0.4966 2.307-1.28 3.456-2.233 0.3115-0.2585 0.872-0.7509 1.121-0.9843l0.04139-0.03886 1.52 1.35c0.836 0.7427 1.546 1.366 1.577 1.384 0.03157 0.01858 0.07689 0.03701 0.1007 0.04096 0.02382 0.003948 0.04536 0.01049 0.04786 0.01454s-1.774 0.1279-3.947 0.2751-3.985 0.2706-4.026 0.274-0.07204 0.003745-0.06889 6.7e-4zm-4.753-2.656c-0.4692-1.342-0.8511-2.442-0.8486-2.444 0.008814-0.007237 3.101-0.6971 3.11-0.6937 0.009795 0.003789-1.391 5.577-1.401 5.577-0.00372 0-0.3907-1.098-0.8599-2.44zm13.16 1.589c-0.01806-0.04387-0.04931-0.08576-0.1033-0.1385-0.04259-0.04159-0.7232-0.648-1.513-1.347s-1.442-1.278-1.449-1.285c-0.01094-0.009947 0.03878-0.07068 0.2172-0.2652 0.9667-1.054 1.705-1.979 2.311-2.893 0.4161-0.6277 0.6996-1.117 1.011-1.745 0.09085-0.1831 0.1653-0.3271 0.1654-0.32 1.86e-4 0.008989-0.5027 6.608-0.6105 8.012l-0.003479 0.0453zm-15.96-4.665c0-1.187 0.002023-2.155 0.004495-2.153 0.003313 0.003525 1.02 2.416 1.047 2.485 0.002495 0.006314-0.2332 0.4196-0.5237 0.9184l-0.5282 0.9069zm9.093 0.4004c-1.525-0.5893-2.79-1.078-2.812-1.087l-0.03897-0.01511 1.846-1.716c1.016-0.944 1.868-1.735 1.894-1.758l0.04728-0.04196 0.8139 2.487c0.4477 1.368 0.8666 2.649 0.931 2.846 0.06478 0.1985 0.1113 0.3582 0.104 0.3575-0.007177-7.26e-4 -1.261-0.4835-2.786-1.073zm3.464 0.7336c-0.01564-0.02637-1.845-5.634-1.839-5.64 0.007719-0.007719 5.315-0.1283 5.49-0.1247l0.1283 0.002619-0.08896 0.2296c-0.527 1.36-1.312 2.682-2.414 4.067-0.3291 0.4133-0.5515 0.6753-0.9722 1.146-0.31 0.3467-0.296 0.3319-0.3031 0.3198zm-11.51-2.707-0.6339-1.509 0.9309-1.6c0.512-0.8799 0.9497-1.621 0.9725-1.648 0.05124-0.05912 3.351-3.132 3.403-3.168 0.04852-0.03452 2.938-1.095 2.953-1.084 0.006315 0.004683 0.5497 0.3844 1.207 0.8437 1.178 0.823 1.196 0.8357 1.186 0.8659-0.005601 0.01684-0.2767 0.8778-0.6025 1.913-0.3257 1.035-0.5962 1.885-0.601 1.889-0.01036 0.007179-4.369 4.057-4.446 4.13l-0.0528 0.05074-1.807 0.4054c-0.9939 0.223-1.823 0.4086-1.842 0.4125l-0.03444 0.007117zm9.657-3.697c0.0169-0.06304 0.9932-3.155 0.9976-3.16 0.002793-0.002795 0.9537 0.6836 2.113 1.525l2.108 1.53-0.06608 0.008135c-0.03635 0.004474-1.177 0.03164-2.534 0.06038-1.358 0.02874-2.504 0.05367-2.547 0.05542-0.07369 0.002995-0.07777 0.001848-0.07186-0.0202zm3.695-2.116c-1.233-0.8947-2.241-1.629-2.242-1.633-3.51e-4 -0.003157 0.6155-0.3482 1.368-0.7668l1.369-0.761 0.08037 0.03193c0.1189 0.04724 0.3672 0.1757 0.4938 0.2554 0.6549 0.4126 1.096 1.03 1.293 1.809 0.08234 0.3259 0.1129 0.5707 0.1215 0.9725 0.007006 0.3291-7.77e-4 0.4545-0.04936 0.7955-0.05391 0.3784-0.1613 0.9246-0.1816 0.9236-0.006867-3.39e-4 -1.021-0.7327-2.253-1.627zm-3.864-2.79-0.9618-0.6734 1.092-0.002928c0.6005-0.00161 1.58-0.00161 2.177 0l1.085 0.002928-1.208 0.6716c-0.6646 0.3694-1.212 0.6724-1.215 0.6734-0.003806 9.578e-4 -0.4397-0.3013-0.9687-0.6716z" stroke-width=".01148"/></svg>
