<?xml version="1.0" encoding="UTF-8"?>
<svg width="32px" height="32px" viewBox="0 0 32 32" version="1.1" xmlns="http://www.w3.org/2000/svg" xmlns:xlink="http://www.w3.org/1999/xlink">
    <!-- Generator: Sketch 49.1 (51147) - http://www.bohemiancoding.com/sketch -->
    <title>ruby</title>
    <desc>Created with Sketch.</desc>
    <defs></defs>
    <g id="ruby" stroke="none" stroke-width="1" fill="none" fill-rule="evenodd">
        <path d="M28,6.36002617 L26.5199976,6.40002366 C25.5866847,6.42668865 24.4800302,6.45336 23.2000343,6.4800377 C21.9733811,6.50668999 20.8133903,6.52001613 19.720062,6.52001613 C18.653386,6.54666842 18.0267206,6.58667227 17.8400656,6.64002766 L17.7600325,6.64002766 L17.6799994,6.64002766 L17.6399829,6.64002766 L17.5999663,6.7200417 C17.1999787,6.98670688 16.7066509,7.33337086 16.1199829,7.76003363 C15.5333277,8.18669894 14.973331,8.58669609 14.439993,8.96002506 C13.9333328,9.3333553 13.5066674,9.64002052 13.1599971,9.88002071 L12.5999941,10.2800166 C12.2000065,10.573348 11.78668,10.8666801 11.3600147,11.1600128 C10.9600144,11.4533417 10.5466816,11.7466726 10.1200163,12.0400053 C9.69335098,12.333338 9.26669202,12.6266682 8.84003941,12.9199958 C8.4400391,13.2133285 8.02670628,13.4933275 7.60004097,13.7599927 L7.56002442,13.8800042 L7.52000788,13.8800042 C7.49333018,13.9066692 7.47999133,13.9333405 7.47999133,13.9600182 C7.47999133,13.9866705 7.46665248,13.9999967 7.43997478,13.9999967 C7.38661939,14.1866542 7.17328673,14.7866502 6.79997682,15.7999848 C6.4266542,16.8133117 6.03999273,17.9066368 5.63999241,19.07996 C5.23999209,20.2266208 4.86666312,21.2666141 4.52000549,22.1999397 L4,23.59993 L23.0798703,24.9199215 L28,6.36002617 Z" id="path106" fill="#444444" fill-rule="nonzero"></path>
    </g>
</svg>