<?xml version="1.0" encoding="UTF-8" standalone="no"?>
<svg
   viewBox="0 0 32 32"
   version="1.1"
   id="svg4"
   xmlns="http://www.w3.org/2000/svg"
   xmlns:svg="http://www.w3.org/2000/svg">
  <defs
     id="defs8" />
  <path
     d="M 12.4,10.4 C 13.240108,10.526557 14.078565,10.915199 14.6,11.6 15.04485,11.411138 15.39352,10.934789 15.920703,10.8375 16.202622,10.763431 16.481158,10.666377 16.782647,10.7 17.3186,10.653689 17.844515,10.833007 18.261475,11.170068 18.668655,11.31154 18.960838,12.099918 19.2,12.1 19.725433,11.838827 20.311266,11.90595 20.876123,11.902295 21.574576,11.983037 22.23253,12.317482 22.777612,12.750366 23.239895,13.24765 23.655316,13.823096 23.842578,14.483374 23.932399,15.005793 23.904998,15.54395 23.880225,16.071362 23.68626,16.961404 23.18149,17.795608 22.486255,18.384448 22.0527,18.71825 21.50161,18.811496 21,19 20.566667,19 20.133333,19 19.7,19 19.475081,19.410445 19.110638,19.740851 18.730591,20.002612 18.331083,20.219056 17.883579,20.339379 17.429049,20.3 17.053308,20.462653 16.452013,19.79011 16.307813,20.309375 15.993889,20.778512 15.682704,21.333153 15.1,21.5 13.953399,22.102411 12.441621,21.763161 11.630425,20.762817 11.323074,20.579852 11.227805,19.948815 11,19.9 10.281472,19.915181 9.5177785,19.904128 8.9082031,19.470508 8.5522059,19.16558 8.1185611,18.783208 8.0175781,18.326172 8.1552251,17.958609 7.9859881,17.602499 8,17.23509 7.9421323,16.533458 8.221146,15.829243 8.7375,15.35 8.8500264,14.915571 9.6323332,14.877602 9.1625,14.3875 9.0527031,13.968356 9.1175938,13.529164 9.1,13.1 9.2707966,11.582491 10.645926,10.256961 12.2,10.3 12.253407,10.353176 12.323457,10.39451 12.4,10.4 Z"
     id="path2" />
</svg>
