<svg xmlns="http://www.w3.org/2000/svg" viewBox="0 0 32 32"><path d="M12.4 10.4c.6.1 1.2.3 1.7.7.2.2.4.3.5.5h.1c.2-.2.4-.3.6-.5.2-.1.5-.2.7-.3.1 0 .2 0 .4-.1h.6c.4 0 .7.1 1 .3.5.3.8.6 1.1 1.1 0 .1.1.1.1 0 .3-.1.5-.2.8-.2h.8c.4 0 .9.2 1.3.4.3.2.6.3.8.6.3.3.5.6.7 1 .2.3.3.7.3 1.1v.8c0 .5-.2.9-.4 1.3s-.5.8-.8 1.1c-.2.2-.5.4-.8.5l-.9.3h-1.3c-.2.4-.5.6-.8.9-.3.2-.6.3-1 .4h-.6c-.3 0-.5-.1-.8-.2h-.1c-.1.3-.3.5-.5.8-.2.3-.5.5-.8.6-1.2.6-2.7.3-3.6-.9-.2-.2-.3-.4-.4-.7 0-.1-.1 0-.1 0h-.7c-.3 0-.5-.1-.7-.1-.3-.1-.5-.2-.8-.4-.3-.3-.6-.6-.8-1 .1-.4.1-.7 0-.9v-.6c0-.3.1-.6.2-.8.1-.2.2-.4.4-.6.1-.1.2-.2.2-.3.2-.2.3-.3.5-.4 0 0 .1 0 0-.1-.1-.2-.2-.4-.2-.7v-.9c.2-1.5 1.4-2.7 2.9-2.8h.2c.1.1.2.1.2.1z"/></svg>