<?xml version="1.0" encoding="UTF-8"?>
<svg width="32px" height="32px" viewBox="0 0 32 32" version="1.1" xmlns="http://www.w3.org/2000/svg" xmlns:xlink="http://www.w3.org/1999/xlink">
    <!-- Generator: Sketch 49.1 (51147) - http://www.bohemiancoding.com/sketch -->
    <title>sass</title>
    <desc>Created with Sketch.</desc>
    <defs></defs>
    <g id="sass" stroke="none" stroke-width="1" fill="none" fill-rule="evenodd">
        <path d="M20.8319883,2.50000356 C19.3521283,2.49887227 17.7399987,2.76758032 16.1579655,3.32923523 C13.2868586,4.35217078 10.1771217,5.94794979 7.94030236,8.04155691 C5.28067022,10.5238804 4.85785745,12.6925043 5.03516608,13.5926871 C5.65581539,16.8047032 10.0816469,18.8983103 11.8547345,20.4463533 C11.7660809,20.4940209 11.6842457,20.5417569 11.6092304,20.5827457 C10.7226873,21.0191269 7.34699941,22.7854506 6.50137388,24.653946 C5.54663385,26.7680113 6.65140318,28.2888322 7.387917,28.4934187 C9.66565397,29.1276393 11.9979454,27.9887722 13.2595667,26.1133885 C14.5142983,24.238009 14.364336,21.8034243 13.7846727,20.6918309 L13.7641601,20.6509413 L14.4597564,20.2417388 C15.6768553,19.54238 18.216743,18.0773217 19.4249677,17.4270634 C16.8918131,17.8287337 15.7685131,18.3453649 14.2551684,19.1234932 C13.8800931,19.3280798 13.4913767,19.5463046 13.1231198,19.7440741 L13.0481603,19.6621035 C11.097764,17.5821332 7.49021028,16.1091056 7.64024097,13.3130852 C7.69479822,12.2969681 8.04942944,9.61687783 14.5690049,6.37076256 C19.9087287,3.71113041 24.1845812,4.4408244 24.9278492,6.06388273 C25.9848811,8.3825359 22.6433064,12.6925043 17.0922461,13.3130852 C14.9781808,13.5517681 13.8665218,12.7334205 13.586987,12.4265407 C13.2937454,12.1060198 13.2528292,12.0923815 13.1437161,12.1537572 C12.9664061,12.249232 13.0755192,12.5356538 13.1437161,12.7061426 C13.3073851,13.1357752 13.9893444,13.8995669 15.1486682,14.2814635 C16.1647169,14.615624 18.6471103,14.7997483 21.6477186,13.6404231 C25.0097654,12.3378871 27.6352998,8.72351488 26.8646882,5.70244565 C26.3377693,3.63600892 23.8621791,2.50233037 20.8319883,2.50000356 Z M12.6867232,21.141923 C13.1436337,22.8059017 12.7071813,24.2652897 11.650148,25.4177923 C10.6476719,26.5157445 9.23602138,26.9317403 8.63589859,26.5771188 C7.98803978,26.2020435 8.24029532,24.5858287 9.47470569,23.4196865 C10.2248578,22.7104492 11.2000559,22.0557678 11.8410963,21.6534173 C11.9843071,21.5647623 12.2025334,21.4352609 12.4616772,21.2783406 C12.5025947,21.2511311 12.5298727,21.2374244 12.5298727,21.2374244 C12.5776101,21.2101492 12.6321659,21.1760222 12.6867232,21.141923 Z" id="path5233" fill="#444444" fill-rule="nonzero"></path>
    </g>
</svg>