<svg xmlns="http://www.w3.org/2000/svg" viewBox="0 0 32 32"><path d="M21.6 7v4.2c-.1.1-.1.2-.2.2-.3.3-.7.5-1.1.6-.9.3-1.9.5-2.8.7-1.6.3-3.1.5-4.7.7-.8.1-1.6.2-2.4.4V9.6c.1-.1.2-.1.4-.1 1.2-.2 2.5-.4 3.8-.5 1.9-.3 3.8-.5 5.6-1.1.5-.2 1.1-.4 1.4-.9zm0 5.6v4.2l-.2.2c-.5.4-1.1.6-1.6.8-.8.2-1.6.4-2.4.5-1 .2-1.9.3-2.9.5-1.4.2-2.7.3-4.1.6v-4.2c.1-.1.2-.1.3-.1 1.7-.2 3.4-.5 5.1-.7 1.4-.2 2.9-.5 4.3-.9.6-.2 1.1-.4 1.5-.9zM10.5 25h-.1v-4.2c.1-.1.2-.1.3-.1 1.2-.2 2.3-.3 3.5-.5 2-.3 3.9-.5 5.8-1.1.6-.2 1.2-.4 1.6-.9v4.2c-.1.2-.3.3-.5.5-.6.3-1.2.5-1.9.7-1.2.3-2.5.5-3.7.7-1.3.2-2.6.4-3.9.5-.4 0-.7.1-1.1.2z"/></svg>