<?xml version="1.0" encoding="UTF-8"?>
<svg width="350px" height="512px" version="1.1" xmlns="http://www.w3.org/2000/svg">
 <path d="m336.57 404.1h12.863c0 37.635-6.0739 65.027-18.222 82.177-12.148 17.15-27.512 25.725-46.091 25.725-15.006 0-29.417-5.5976-43.232-16.793-13.815-11.195-26.201-41.565-37.158-91.11l-30.727-138.63-106.47 241.53h-67.528l152.92-329.42c-8.0986-42.637-17.865-74.198-29.298-94.682-11.433-20.485-25.606-30.727-42.518-30.727-13.577 0-25.368 5.1212-35.372 15.364s-15.721 26.321-17.15 48.234h-12.863c0.71458-35.015 7.7413-63.003 21.08-83.964s30.013-31.561 50.021-31.799c12.863 0 25.01 5.2403 36.444 15.721 11.433 10.481 21.438 28.583 30.013 54.308 8.575 25.725 21.795 78.843 39.659 159.35l25.368 113.26c10.242 46.924 20.961 78.247 32.156 93.968 11.195 15.721 24.772 23.7 40.731 23.939 26.678 2e-6 41.803-18.817 45.376-56.452z"/>
</svg>
