<svg xmlns="http://www.w3.org/2000/svg" viewBox="0 0 32 32"><path d="M6 14.6v-.8c0-.5.1-1.1.3-1.6.9-3.4 4-5.9 7.5-6.1h1c.5 0 1.1.1 1.6.3 3.3.9 5.8 3.8 6 7.4 0 .6 0 1.3-.1 1.9-.2 1-.5 1.9-1 2.8 0 0 0 .1-.1.1 0 0 .1 0 .1.1l4.6 4.6.2.2v.3c0 .1-.1.2-.1.3-.1.2-.2.4-.4.6l-.8.8c-.3.2-.5.4-.9.5h-.2c-.1 0-.2-.1-.3-.2l-4.5-4.5-.1-.1h-.1c-1.5 1-3.2 1.4-5 1.3-.5 0-1-.1-1.4-.2C10 21.7 8 20.1 7 18c-.5-1-.8-2-.8-3.1-.2-.2-.2-.2-.2-.3zm2.7-.3c0 3 2.4 5.5 5.5 5.5 3 0 5.5-2.4 5.5-5.5 0-3-2.4-5.5-5.5-5.5-3 0-5.5 2.4-5.5 5.5z"/></svg>