<?xml version="1.0" encoding="UTF-8"?>
<svg width="32px" height="32px" viewBox="0 0 32 32" version="1.1" xmlns="http://www.w3.org/2000/svg" xmlns:xlink="http://www.w3.org/1999/xlink">
    <!-- Generator: Sketch 49.1 (51147) - http://www.bohemiancoding.com/sketch -->
    <title>separator</title>
    <desc>Created with Sketch.</desc>
    <defs></defs>
    <g id="separator" stroke="none" stroke-width="1" fill="none" fill-rule="evenodd">
        <path d="M15.0919971,29.9799984 C15.0919971,29.679998 15.192001,29.4399981 15.3920089,29.2599986 C15.5920072,29.0799982 15.8320081,28.989998 16.1120115,28.989998 C16.3920054,28.989998 16.6320063,29.0799982 16.8320142,29.2599986 C17.0320125,29.4599998 17.1320117,29.6999998 17.1320117,29.9799984 C17.1320117,30.259999 17.0320125,30.4899994 16.8320142,30.6699999 C16.6320063,30.8699992 16.3920054,30.9799992 16.1120115,31 C15.8120092,31 15.5720084,30.8999994 15.3920089,30.6999982 C15.192001,30.4999989 15.0919971,30.259999 15.0919971,29.9799984 Z M15.0919971,21.9699972 C15.0919971,21.6899986 15.192001,21.4599995 15.3920089,21.2800001 C15.5920072,21.0799989 15.8320081,20.9799983 16.1120115,20.9799983 C16.3920054,20.9799983 16.6320063,21.0799989 16.8320142,21.2800001 C17.0320125,21.4799994 17.1320117,21.7199993 17.1320117,21.9999999 C17.1320117,22.2599996 17.0320125,22.4899992 16.8320142,22.6899985 C16.6320063,22.8699979 16.3920054,22.9699985 16.1120115,22.9900003 C15.8120092,22.9900003 15.5720084,22.9000001 15.3920089,22.7199996 C15.192001,22.4999995 15.0919971,22.2499987 15.0919971,21.9699972 Z M15.3920089,26.6799999 C15.192001,26.4799987 15.0919971,26.2499982 15.0919971,25.9899984 C15.0919971,25.7099988 15.192001,25.4799988 15.3920089,25.2999984 C15.5920072,25.0999991 15.8320081,24.99 16.1120115,24.9700011 C16.3920054,24.9700011 16.6320063,25.0700008 16.8320142,25.2700001 C17.0320125,25.4699994 17.1320117,25.7099988 17.1320117,25.9899984 C17.1320117,26.2699999 17.0320125,26.5100003 16.8320142,26.7099996 C16.6320063,26.9099989 16.3920054,27.0099986 16.1120115,27.0099986 C15.8120092,27.0099986 15.5720084,26.899999 15.3920089,26.6799999 Z M15.0919971,13.9900001 C15.0919971,13.6899997 15.192001,13.4499993 15.3920089,13.2699989 C15.5920072,13.0899994 15.8320081,12.9999997 16.1120115,12.9999997 C16.3920054,12.9999997 16.6320063,13.0999994 16.8320142,13.2999987 C17.0320125,13.4799981 17.1320117,13.7099986 17.1320117,13.9900001 C17.1320117,14.2499989 17.0320125,14.4899989 16.8320142,14.7099999 C16.6320063,14.9099992 16.3820012,15.0099989 16.0819989,15.0099989 C15.802005,15.0099989 15.5720084,14.9099992 15.3920089,14.7099999 C15.192001,14.4899989 15.0919971,14.2499989 15.0919971,13.9900001 Z M15.0919971,17.9799987 C15.0919971,17.7199989 15.192001,17.4899989 15.3920089,17.2899987 C15.5920072,17.0899994 15.8320081,16.9799998 16.1120115,16.9599999 C16.3920054,16.9599999 16.6320063,17.0699995 16.8320142,17.2899987 C17.0320125,17.4899989 17.1320117,17.7199989 17.1320117,17.9799987 C17.1320117,18.2799991 17.0320125,18.5299989 16.8320142,18.7299982 C16.6320063,18.9099977 16.3920054,18.9999974 16.1120115,18.9999974 C15.8120092,18.9999974 15.5720084,18.8999978 15.3920089,18.6999985 C15.192001,18.519999 15.0919971,18.2799991 15.0919971,17.9799987 Z M15.0919971,5.97999897 C15.0919971,5.69999842 15.192001,5.46999794 15.3920089,5.28999751 C15.5920072,5.08999821 15.8320081,4.98999856 16.1120115,4.98999856 C16.3920054,4.98999856 16.6320063,5.08999821 16.8320142,5.28999751 C17.0320125,5.48999872 17.1320117,5.72999865 17.1320117,6.0099973 C17.1320117,6.26999897 17.0320125,6.49999945 16.8320142,6.69999876 C16.6320063,6.89999806 16.3820012,6.99999771 16.0819989,6.99999771 C15.802005,6.99999771 15.5720084,6.90999798 15.3920089,6.72999851 C15.192001,6.50999937 15.0919971,6.25999952 15.0919971,5.97999897 Z M15.3920089,10.7199971 C15.192001,10.4999979 15.0919971,10.259999 15.0919971,10.0000001 C15.0919971,9.71999959 15.192001,9.48999911 15.3920089,9.30999868 C15.5920072,9.10999938 15.8320081,8.99999933 16.1120115,8.97999855 C16.3920054,8.97999855 16.6320063,9.07999915 16.8320142,9.28000036 C17.0320125,9.47999966 17.1320117,9.71999959 17.1320117,10.0000001 C17.1320117,10.2799988 17.0320125,10.5199978 16.8320142,10.7199971 C16.6320063,10.9199983 16.3920054,11.0199989 16.1120115,11.0199989 C15.8120092,11.0199989 15.5720084,10.9199983 15.3920089,10.7199971 Z M15.3920089,2.70999877 C15.192001,2.50999756 15.0919971,2.26999811 15.0919971,1.99000042 C15.0919971,1.70999891 15.192001,1.47999843 15.3920089,1.29999896 C15.5920072,1.09999965 15.8320081,1 16.1120115,1 C16.3920054,1 16.6320063,1.09999965 16.8320142,1.29999896 C17.0320125,1.47999843 17.1320117,1.70999891 17.1320117,1.99000042 C17.1320117,2.28999985 17.0320125,2.53999922 16.8320142,2.73999852 C16.6320063,2.91999799 16.3920054,3.00999773 16.1120115,3.00999773 C15.8120092,3.00999773 15.5720084,2.90999807 15.3920089,2.70999877 Z" id="path61" fill="#444444" fill-rule="nonzero"></path>
    </g>
</svg>