<?xml version="1.0" encoding="UTF-8"?>
<svg width="32px" height="32px" viewBox="0 0 32 32" version="1.1" xmlns="http://www.w3.org/2000/svg" xmlns:xlink="http://www.w3.org/1999/xlink">
    <!-- Generator: Sketch 49.1 (51147) - http://www.bohemiancoding.com/sketch -->
    <title>seti-folder</title>
    <desc>Created with Sketch.</desc>
    <defs></defs>
    <g id="seti-folder" stroke="none" stroke-width="1" fill="none" fill-rule="evenodd">
        <path d="M4,6 L4,8.83678308 L4,24.9760403 L4,25.244054 L27,25.244054 L27,10.6770079 C27,10.4214505 26.9492664,10.1784702 26.8471227,9.94846808 C26.7705052,9.71846595 26.6429077,9.5270842 26.4639774,9.37374784 C26.2851921,9.19486588 26.0806921,9.06728288 25.8505692,8.99060745 C25.6460112,8.88838643 25.4283494,8.83678308 25.1984681,8.83678308 L15.5773857,8.83678308 L15.5773857,7.87891762 C15.5773857,7.62336024 15.538833,7.38037997 15.4622542,7.15037784 C15.3856367,6.92037089 15.2580392,6.71585637 15.079109,6.53696959 C14.9000821,6.35808763 14.695582,6.2304998 14.4657007,6.15382437 C14.2356986,6.05160818 13.9795759,6 13.6984681,6 L4,6 Z" id="path3884" fill="#444444" fill-rule="nonzero"></path>
    </g>
</svg>