<?xml version="1.0" encoding="UTF-8" standalone="no"?>
<svg
   viewBox="0 0 32 32"
   version="1.1"
   id="svg4"
   xmlns="http://www.w3.org/2000/svg"
   xmlns:svg="http://www.w3.org/2000/svg">
  <defs
     id="defs8" />
  <path
     d="M 14.42,9.31 C 13.307299,9.7149411 12.3247,10.534776 11.870537,11.645625 11.372505,13.000237 11.692354,14.694077 12.818408,15.648032 13.751108,16.47994 14.929736,16.94321 16.092698,17.351709 16.717224,17.583971 17.380821,17.864334 17.731526,18.47239 18.0231,18.975856 18.143231,19.675131 17.831541,20.193955 17.542675,20.789086 16.898771,21.133006 16.246816,21.101237 15.547172,21.177586 14.787699,20.931448 14.381522,20.329942 14.000732,19.908762 14.058554,19.253101 13.663887,18.867539 13.321597,18.708699 12.926009,18.80763 12.557682,18.78 12.201937,18.807287 11.818525,18.709256 11.489277,18.867539 11.061714,19.30609 11.405105,20.000033 11.503899,20.519624 11.722581,21.227515 12.149324,21.873781 12.781563,22.275156 13.338035,22.711781 14.007734,22.967671 14.672031,23.183438 15.108637,23.415693 14.949988,23.94082 14.98,24.340037 14.904225,24.743039 15.272705,25.067424 15.662737,24.99 16.036583,24.97213 16.420547,25.030985 16.78625,24.949687 17.211895,24.752119 17.0624,24.243629 17.09,23.870875 16.996141,23.352118 17.461553,23.012331 17.93,22.95 18.864425,22.632109 19.665654,21.991028 20.192832,21.156797 20.764243,20.38539 20.788645,19.36615 20.63834,18.455469 20.345501,17.041849 19.134002,16.125593 17.939727,15.479805 17.065477,15.041267 16.089644,14.830115 15.237871,14.346484 14.563802,13.927404 14.223793,13.116994 14.4225,12.347051 14.563539,11.766898 15.046411,11.311758 15.659687,11.30875 16.275643,11.22467 16.966827,11.260625 17.427187,11.736094 17.978151,12.129211 17.852598,12.866983 18.1475,13.38 18.439433,13.629387 18.848315,13.496013 19.200493,13.53 19.568885,13.512927 19.946986,13.569749 20.307344,13.489687 20.851192,13.156839 20.471912,12.410187 20.3575,11.92668 20.029052,10.934144 19.409379,9.9842874 18.439241,9.5238965 18.02705,9.2274285 17.295935,9.1417392 17.29,8.5095438 17.272405,8.1144047 17.330016,7.7098422 17.25125,7.3221875 17.064943,6.8870484 16.552283,7.0371527 16.180875,7.01 15.841086,7.022949 15.37732,6.9192994 15.21875,7.3221875 15.117784,7.8149895 15.240323,8.3350564 15.144844,8.82875 15.018787,9.1101157 14.695977,9.2304617 14.42,9.31 Z"
     fill="#9bba4c"
     id="path2" />
</svg>
