<?xml version="1.0" encoding="UTF-8" standalone="no"?>
<svg
   viewBox="0 0 32 32"
   version="1.1"
   id="svg1219"
   xmlns="http://www.w3.org/2000/svg"
   xmlns:svg="http://www.w3.org/2000/svg">
  <defs
     id="defs1223" />
  <path
     id="path1215"
     d="M 9.5996094 7 L 8.4003906 7.5996094 C 7.7003906 7.9996094 7.2996094 8.7003906 7.0996094 9.4003906 C 7.0996094 9.5003906 7 9.4996094 7 9.5996094 L 7 22.400391 C 7.1 22.700391 7.2007813 22.999609 7.3007812 23.099609 C 7.8007813 23.899609 8.5003906 24.500781 9.4003906 24.800781 C 9.5003906 24.800781 9.4996094 24.900391 9.5996094 24.900391 L 22.400391 24.900391 C 22.900391 24.800391 23.299219 24.600781 23.699219 24.300781 C 24.399219 23.800781 24.8 23.2 25 22.5 C 25 22.4 25.099609 22.400781 25.099609 22.300781 L 25.099609 9.5 C 24.899609 9.3 24.799219 9.1007813 24.699219 8.8007812 C 24.199219 8.0007812 23.499609 7.3996094 22.599609 7.0996094 C 22.499609 7.0996094 22.500391 7 22.400391 7 L 9.5996094 7 z M 15.677734 9.1757812 C 18.136685 9.1056396 20.605469 10.0875 22.199219 12 C 21.299219 13 20.499609 14.099219 19.599609 15.199219 C 19.499609 15.199219 19.299219 15.300781 19.199219 15.300781 L 12.800781 15.300781 C 12.700781 15.300781 12.500391 15.199609 12.400391 15.099609 C 11.500391 14.099609 10.700781 13.000391 9.8007812 11.900391 C 11.347656 10.119141 13.508072 9.2376709 15.677734 9.1757812 z M 18.300781 10.400391 C 17.400781 11.700391 16.500391 13.1 15.400391 14.5 L 17.300781 14.5 C 17.700781 13.2 17.900781 11.700391 18.300781 10.400391 z " />
</svg>
