<svg xmlns="http://www.w3.org/2000/svg" viewBox="0 0 32 32"><path d="M23.4 8.1c1.1 3 1.9 5.9 1.5 9.1-.3 2.3-1.3 4.2-3.1 5.8-1.8 1.4-3.9 2.2-6.1 2.1C13.2 25 11 24 9.3 22c-1.7-2-2.4-4.2-2.2-6.7.1-1.9.8-3.6 2.1-5C10.6 8.4 12.7 7.4 15 7c2.4-.3 4.6.4 6.5 1.8 1.1.9 1.1.9 1.7-.4.1 0 .1-.1.2-.3zm-.8 5.8c-.5 2.2-1.9 4-3.7 5.5-1.3 1.1-2.9 1.6-4.5 2.2-.4.1-.8.3-1.2.4 0 .1 0 .2.1.3 2.2-.1 4.5 0 6.7-.4 2.7-.4 4-1.9 4.5-4.6.3-1.8.1-3.5-.4-5.3-.3-.9-.5-1.8-.8-2.8-.2.3-.3.4-.4.4-.9 1.4-2.2 2.3-3.7 3-1.3.6-2.9.6-4.3.7-1.3.1-2.5.4-3.5 1.2-1.6 1.2-2.2 3.7-1.3 5.3.5 1 1.1 1.2 2.1 1 .5-.1 1-.3 1.5-.4 3.9-1 7-2.8 8.9-6.5zm-12.1 7.3c-.4 0-.7.4-.7.8s.4.7.8.7.7-.4.7-.8c0-.5-.2-.7-.8-.7z"/></svg>