<svg width="32" height="32" version="1.1" xmlns="http://www.w3.org/2000/svg"><path d="m8.87 7.15-2.76 2.55 1.73 1.59-1.22 1.44 8.86 13-3.47-13.1-0.75 0.432-0.0469-3.03-0.797-2.84h-1.55zm12 0.0488-0.797 2.83-0.0469 3.03-0.75-0.434-3.46 13.1 8.85-13-1.22-1.44 1.73-1.59-2.76-2.55h-1.55zm-9.27 0.455-0.0469 4.76 2.55-1.57c0.094-0.096 0.0449-1.76 0.0449-1.76l-2.55-1.43zm8.06 0.0488-2.53 1.43s-0.0461 1.66 0.0469 1.76l2.53 1.57-0.0469-4.76zm0.0469 4.76v0.00391l0.00195-0.00195-0.00195-0.00195zm-5.26-3.15-0.00195 1.46h2.4v-1.46h-2.4zm1.14 2.94c-0.352 0-0.637 0.294-0.637 0.654a0.645 0.645 0 0 0 0.637 0.654 0.645 0.645 0 0 0 0.637-0.654c0-0.361-0.285-0.654-0.637-0.654zm0 3.99c-0.352 0-0.637 0.294-0.637 0.656a0.645 0.645 0 0 0 0.637 0.652 0.645 0.645 0 0 0 0.637-0.654c0-0.361-0.285-0.654-0.637-0.654zm0 3.99c-0.352 1e-6 -0.637 0.293-0.637 0.654a0.645 0.645 0 0 0 0.637 0.652 0.645 0.645 0 0 0 0.637-0.652c0-0.361-0.285-0.654-0.637-0.654z"/></svg>
