<?xml version="1.0" encoding="UTF-8" standalone="no"?>
<svg
   width="32px"
   height="32px"
   viewBox="0 0 32 32"
   version="1.1"
   id="svg10"
   sodipodi:docname="stylus.svg"
   xmlns:inkscape="http://www.inkscape.org/namespaces/inkscape"
   xmlns:sodipodi="http://sodipodi.sourceforge.net/DTD/sodipodi-0.dtd"
   xmlns="http://www.w3.org/2000/svg"
   xmlns:svg="http://www.w3.org/2000/svg">
  <sodipodi:namedview
     id="namedview12"
     pagecolor="#ffffff"
     bordercolor="#666666"
     borderopacity="1.0"
     inkscape:pageshadow="2"
     inkscape:pageopacity="0.0"
     inkscape:pagecheckerboard="0" />
  <!-- Generator: Sketch 49.1 (51147) - http://www.bohemiancoding.com/sketch -->
  <title
     id="title2">stylus</title>
  <desc
     id="desc4">Created with Sketch.</desc>
  <defs
     id="defs6" />
  <g
     id="stylus"
     stroke="none"
     stroke-width="1"
     fill="none"
     fill-rule="evenodd">
    <path
       d="m 26.387326,1.5 c 1.530194,-0.3790192 0.814447,3.2554634 0.22415,1.4868891 -1.420635,-0.6355101 -2.847902,0.5067037 -3.79722,1.4866943 -2.545934,2.7896704 -4.021995,6.4123026 -4.864079,10.0539556 -0.187786,1.129712 -0.498156,2.323206 -0.241719,3.457483 0.542736,0.883304 2.082164,-1.704637 1.399692,-0.262654 -0.537263,0.766334 -2.163879,2.040027 -2.777249,0.758297 -0.141346,-2.068151 0.710582,-4.058177 1.404976,-5.967235 C 19.229455,8.9873073 21.051969,5.4690657 23.839286,2.785301 24.547999,2.1462353 25.388726,1.5114385 26.387326,1.5 Z M 5.4331706,30.5 C 3.9027483,30.879503 4.6185532,27.244488 5.2087836,29.013228 6.6294647,29.648198 8.056469,28.506433 9.0060953,27.526763 11.55235,24.737189 13.027717,21.114161 13.870202,17.47258 c 0.187817,-1.129711 0.498142,-2.323201 0.241719,-3.457483 -0.54322,-0.883346 -2.082063,1.704809 -1.399641,0.262397 0.536907,-0.766634 2.164403,-2.039713 2.777303,-0.758083 0.141251,2.068148 -0.710491,4.058252 -1.405005,5.96729 -1.493619,3.526053 -3.315973,7.044451 -6.1034327,9.728037 C 7.2717976,29.85367 6.4325733,30.488044 5.4331706,30.5 Z"
       id="path5138"
       fill="#444444"
       fill-rule="nonzero" />
  </g>
</svg>
