<svg xmlns="http://www.w3.org/2000/svg" viewBox="0 0 32 32"><path d="M25 15.4v-.5c-.2-1.2-.6-2.4-1.2-3.5-.6-.9-1.3-1.7-2.1-2.4-.7-.6-1.4-1-2.2-1.3-2.6-1-5.2-.9-7.7.4-1.4.8-2.5 1.8-3.4 3.2-.9 1.4-1.4 2.8-1.4 4.5v1.1c.2 1.5.6 2.8 1.4 4.1.7 1 1.5 1.9 2.6 2.6.6.4 1.3.8 2.1 1 1.3.4 2.7.6 4 .4 3.3-.5 5.7-2.3 7.1-5.3.7-1.4.9-2.8.8-4.3zm-6.8 4.8c-.8.4-1.6.4-2.4.4-1.2 0-2.2-.4-3.2-1-.2-.1-.2-.2-.1-.3l.6-1.2c.1-.1.1-.1.2-.1.8.6 1.7.9 2.7 1 .3 0 .6 0 .9-.1.4-.1.6-.4.7-.7 0-.3-.1-.6-.5-.8-.6-.3-1.2-.5-1.8-.7-.7-.2-1.5-.4-2-1-.4-.4-.5-1-.5-1.6.1-1.6 1.2-2.4 2.5-2.6 1.4-.2 2.6.1 3.7.8.1.1.1.2.1.3-.2.4-.4.7-.6 1.1-.1.2-.1.1-.3.1-.8-.5-1.6-.8-2.6-.7-.2 0-.4.1-.6.1-.3.2-.5.4-.5.8 0 .3.1.6.4.8.3.2.6.3.9.3.6.2 1.2.3 1.9.5.1-.1.2-.1.4-.1-.1 0-.3 0-.4.1.2.1.5.2.7.3 0 0 .1 0 .1.1 0 0 .1 0 .1.1.1.1.2.1.2.2l.1.1c.9.8 1 3-.7 3.8z"/></svg>