<svg xmlns="http://www.w3.org/2000/svg" viewBox="0 0 32 32"><path d="M10.617 10.473L14.809 7.8c2.387-1.52 5.688-.812 7.359 1.58a5.123 5.123 0 01.876 3.876 4.821 4.821 0 01-.72 1.798c.524.998.7 2.142.5 3.251a4.808 4.808 0 01-1.963 3.081l-.21.14-4.192 2.672c-2.386 1.52-5.688.812-7.36-1.58a5.125 5.125 0 01-.875-3.876c.116-.642.36-1.253.72-1.798a5.065 5.065 0 01-.5-3.251 4.81 4.81 0 011.962-3.081l.21-.14L14.81 7.8l-4.192 2.672zm9.825.008a3.33 3.33 0 00-3.573-1.324c-.226.06-.444.146-.65.256l-.202.118-4.192 2.671a2.891 2.891 0 00-1.306 1.937 3.081 3.081 0 00.526 2.33 3.33 3.33 0 003.574 1.326c.226-.06.444-.147.65-.256l.201-.118 1.6-1.02a.923.923 0 01.257-.113c.407-.105.837.054 1.077.4a.931.931 0 01.158.702.873.873 0 01-.295.512l-.099.072-4.192 2.671a.923.923 0 01-.257.113 1.003 1.003 0 01-1.076-.4.94.94 0 01-.171-.49l.002-.132.014-.156-.156-.047a5.407 5.407 0 01-1.387-.645l-.252-.174-.215-.158-.08.24a2.923 2.923 0 00-.1.392 3.082 3.082 0 00.527 2.33 3.33 3.33 0 003.38 1.37l.194-.045c.226-.06.444-.146.65-.256l.202-.118 4.192-2.671a2.892 2.892 0 001.306-1.937 3.081 3.081 0 00-.526-2.331 3.33 3.33 0 00-3.574-1.325 3.05 3.05 0 00-.65.257l-.201.117-1.6 1.02a.927.927 0 01-.257.113 1.003 1.003 0 01-1.077-.4.93.93 0 01-.158-.702.871.871 0 01.295-.512l.098-.072 4.192-2.671a.923.923 0 01.258-.113c.407-.106.836.053 1.076.399a.942.942 0 01.171.49l-.002.133-.014.156.155.047c.492.148.959.365 1.388.645l.252.175.215.157.079-.24c.042-.129.076-.26.1-.392a3.082 3.082 0 00-.526-2.33z"/></svg>