<?xml version="1.0" encoding="UTF-8" standalone="no"?>
<svg
   viewBox="0 0 32 32"
   version="1.1"
   id="svg1609"
   xmlns="http://www.w3.org/2000/svg"
   xmlns:svg="http://www.w3.org/2000/svg">
  <defs
     id="defs1613" />
  <path
     d="M 10.617,10.473 C 12.130257,9.5191353 13.623909,8.5327126 15.150435,7.6008805 17.417755,6.3634727 20.470513,7.1136061 22.006646,9.1607002 23.329931,10.799657 23.526612,13.284768 22.324,15.054 23.486082,17.184107 22.861494,20.150668 20.744097,21.463935 19.24173,22.422711 17.743191,23.388227 16.232707,24.333989 13.998431,25.63116 10.929615,24.949725 9.3446074,22.943218 7.9380487,21.306971 7.7331292,18.736847 8.944,16.944 7.6940392,14.722644 8.525353,11.654519 10.734495,10.396507 12.092996,9.5310047 13.451498,8.6655023 14.81,7.8 13.412398,8.69108 12.014281,9.5815202 10.617,10.473 Z M 20.442,10.481 C 19.466601,8.9709644 17.225731,8.6092246 15.809641,9.6631224 14.481427,10.509415 13.153214,11.355707 11.825,12.202 9.4828791,13.561076 10.456982,17.384662 13.011659,17.811674 14.023894,18.106113 15.042683,17.760796 15.855038,17.175538 16.347901,16.883826 16.802205,16.519976 17.327,16.288 17.97674,16.089689 18.703506,16.71484 18.562,17.39 18.427485,17.98579 17.801677,18.156415 17.368185,18.483615 16.237457,19.204077 15.106728,19.924538 13.976,20.645 13.090649,21.234562 12.470387,20.186953 12.420737,19.559735 11.708994,19.366943 11.060183,19.000471 10.478,18.556 9.4628214,20.839659 11.866241,23.539777 14.273433,22.872126 15.124016,22.683377 15.787441,22.084273 16.524779,21.657391 17.497519,21.037594 18.47026,20.417797 19.443,19.798 20.906756,18.941234 21.201174,16.838815 20.223,15.53 19.245922,14.018103 17.0131,13.660256 15.590672,14.711172 15.037951,15.039487 14.52594,15.44396 13.941,15.712 12.709639,16.06074 12.289682,14.267221 13.335982,13.875003 14.654321,13.035002 15.972661,12.195001 17.291,11.355 17.951722,10.902911 18.941658,11.540646 18.787721,12.333969 18.958474,12.620843 19.612746,12.602133 19.910076,12.86814 20.222309,13.029752 20.507349,13.23647 20.79,13.444 21.176547,12.470188 21.064168,11.334556 20.442,10.481 Z"
     id="path1607" />
</svg>
