<svg xmlns="http://www.w3.org/2000/svg" viewBox="0 0 32 32"><path d="M9.6 11c0-.1-.1-.1-.1-.2-.2-.3-.5-.6-.7-.9-.4-.4-.7-.7-.9-1.1.3.3.7.6 1 .8.2.1.3.3.5.4.4.3.7.6 1.1.9.4.4.9.7 1.3 1 .5.4 1 .8 1.5 1.1.8.6 1.6 1.1 2.4 1.7v-.1c-.6-.7-1.2-1.4-1.9-2.1-.4-.5-.8-1-1.2-1.4-.3-.4-.7-.9-1-1.3 0-.1-.1-.1-.1-.2l-.9-1.2c-.1-.2-.3-.4-.4-.7.5.4.9.9 1.4 1.3.5.5 1.1 1 1.6 1.5.4.3.8.7 1.2 1l1.2.9c.3.2.5.4.8.6 1.1.8 2.2 1.6 3.4 2.4.1.1.2.1.2-.1.4-1 .5-2 .5-3.1 0-.9-.2-1.9-.5-2.7 0-.2-.1-.5-.2-.8-.2-.4-.4-.9-.7-1.3-.1-.4-.4-.8-.7-1.1 0-.1-.1-.1-.1-.2.4.2.7.4 1 .6 1.5 1.1 2.7 2.4 3.7 3.9.3.6.7 1.3.9 1.9.4 1 .7 2.1.7 3.2v.1c0 .4 0 .9-.1 1.3s-.1.8-.2 1.2c0 .1 0 .2.1.3.8 1 1.3 2.1 1.5 3.3.1.3.1.6.1 1 0 .3 0 .5-.1.8 0 .1 0 .1-.1.1s-.1-.1-.1-.1c-.4-.8-1-1.4-1.9-1.5-.8-.2-1.5 0-2.2.3-.5.2-.9.5-1.3.6-1.4.6-2.9.8-4.4.6-1-.1-2-.3-3-.7h-.1c-.6-.3-1.2-.5-1.8-.8-2-1.1-3.6-2.6-4.9-4.5l-.1-.1c.1 0 .1 0 .2.1.3.2.6.4 1 .6.4.2.8.5 1.2.6.5.3 1.1.5 1.7.6.1.1.1 0 .2.1 1 .3 2.1.4 3.2.4 1.3-.1 2.5-.4 3.6-1 .2-.1.2-.1 0-.2-.7-.5-1.3-1.1-2-1.7-.5-.4-.9-.9-1.4-1.3-.4-.3-.7-.7-1-1.1-.2-.3-.5-.5-.7-.8-.4-.4-.8-.9-1.2-1.3-.3-.4-.6-.7-.9-1.1 0-.2-.2-.4-.3-.5z"/></svg>