<?xml version="1.0" encoding="UTF-8" standalone="no"?>
<svg
   viewBox="0 0 32 32"
   version="1.1"
   id="svg906"
   xmlns="http://www.w3.org/2000/svg"
   xmlns:svg="http://www.w3.org/2000/svg">
  <defs
     id="defs910" />
  <path
     id="path902"
     d="M 9.6992188 7 C 8.0992188 7.3 7 8.6007813 7 10.300781 L 7 21.599609 C 7 23.499609 8.4003906 24.900391 10.400391 24.900391 L 21.699219 24.900391 C 21.899219 24.900391 22.100781 24.800781 22.300781 24.800781 C 23.900781 24.600781 25 23.199609 25 21.599609 L 25 10.199219 C 25 10.099219 25.000391 9.7996094 24.900391 9.5996094 C 24.600391 8.0996094 23.299219 7 21.699219 7 L 16 7 L 9.6992188 7 z M 10.300781 9.6992188 L 21.5 9.6992188 C 22 9.6992188 22.200781 9.9003906 22.300781 10.400391 L 22.300781 21.599609 C 22.300781 21.999609 21.999609 22.300781 21.599609 22.300781 L 10.400391 22.300781 C 9.9003906 22.300781 9.6992188 22.099219 9.6992188 21.699219 L 9.6992188 16 C 9.6992188 14.1 9.6996094 12.200391 9.5996094 10.400391 C 9.5996094 9.9003906 9.8007812 9.6992188 10.300781 9.6992188 z M 20.007812 12.380859 C 19.973633 12.381641 19.937891 12.387891 19.900391 12.400391 C 19.800391 12.500391 19.600391 12.499219 19.400391 12.699219 C 17.900391 13.699219 16.5 14.800391 15 15.900391 C 14.9 16.000391 14.899219 16.000391 14.699219 15.900391 C 13.999219 15.600391 13.299609 15.200391 12.599609 14.900391 C 12.399609 14.800391 12.299609 14.799219 12.099609 14.699219 C 11.699609 14.699219 11.499609 15.000391 11.599609 15.400391 C 11.599609 15.500391 11.700781 15.599219 11.800781 15.699219 C 12.600781 16.899219 13.299609 17.899609 14.099609 19.099609 C 14.599609 19.899609 15.400391 19.999219 15.900391 19.199219 C 16.700391 18.199219 17.399219 17.199609 18.199219 16.099609 C 18.899219 15.099609 19.499219 14.200781 20.199219 13.300781 C 20.199219 13.200781 20.300391 13.100391 20.400391 12.900391 C 20.400391 12.637891 20.24707 12.375391 20.007812 12.380859 z " />
</svg>
