<svg width="32" height="32" xmlns="http://www.w3.org/2000/svg"><path d="M8.125 7h15.75C24.496 7 25 7.504 25 8.125v15.75c0 .621-.504 1.125-1.125 1.125H8.125A1.125 1.125 0 017 23.875V8.125C7 7.504 7.504 7 8.125 7zm9 9.422v-1.547h-6.188v1.547h2.21v6.89h1.758v-6.89h2.22zm.597 6.968a3.71 3.71 0 001.054.364c.407.08.834.121 1.284.121.438 0 .855-.045 1.249-.133.394-.089.74-.237 1.038-.44.297-.206.54-.48.706-.802.173-.33.26-.737.26-1.223 0-.351-.05-.66-.149-.925-.097-.26-.242-.5-.429-.707a3.174 3.174 0 00-.672-.555 7.037 7.037 0 00-.883-.464c-.24-.105-.456-.208-.646-.307a3.24 3.24 0 01-.486-.304 1.288 1.288 0 01-.309-.327.72.72 0 01-.108-.391c0-.134.033-.255.097-.362a.868.868 0 01.275-.276c.118-.077.262-.136.434-.179.172-.042.362-.064.572-.064a3.623 3.623 0 011.495.34c.162.077.311.166.449.267V15.21a4.256 4.256 0 00-.912-.252 7.003 7.003 0 00-1.135-.082c-.435 0-.846.05-1.235.149-.388.1-.73.254-1.026.464a2.272 2.272 0 00-.7.805c-.172.325-.257.714-.257 1.167 0 .58.157 1.072.47 1.481.316.409.793.755 1.433 1.038.251.11.486.216.703.321.217.106.405.215.563.328.158.113.283.237.375.37a.786.786 0 01.137.456.73.73 0 01-.346.628c-.116.079-.26.14-.434.185a2.472 2.472 0 01-.61.067 3.293 3.293 0 01-1.177-.222 3.472 3.472 0 01-1.08-.665v1.943z" fill="#529BBA"/></svg>