<?xml version="1.0" encoding="UTF-8" standalone="no"?>
<svg
   width="32"
   height="32"
   version="1.1"
   id="svg4"
   xmlns="http://www.w3.org/2000/svg"
   xmlns:svg="http://www.w3.org/2000/svg">
  <defs
     id="defs8" />
  <path
     d="M 8.125,7 C 13.413275,7.0038716 18.701941,6.9922548 23.989972,7.0058118 24.673303,7.05363 25.092489,7.7532518 25,8.3922864 24.996128,13.591466 25.007745,18.791037 24.994188,23.989972 24.94637,24.673303 24.246748,25.092489 23.607714,25 18.446809,25 13.285905,25 8.125,25 7.1789305,25.023381 6.9304404,24.053073 7,23.302244 7.0038714,18.204887 6.9922551,13.10714 7.0058118,8.0100281 7.0524909,7.4506526 7.5633822,6.9889062 8.125,7 Z M 17.125,16.422 C 17.125,15.906333 17.125,15.390667 17.125,14.875 15.062333,14.875 12.999667,14.875 10.937,14.875 10.937,15.390667 10.937,15.906333 10.937,16.422 11.673667,16.422 12.410333,16.422 13.147,16.422 13.147,18.718667 13.147,21.015333 13.147,23.312 13.733,23.312 14.319,23.312 14.905,23.312 14.905,21.015333 14.905,18.718667 14.905,16.422 15.645,16.422 16.385,16.422 17.125,16.422 Z M 17.722,23.39 C 18.960935,23.9611 20.433098,24.028566 21.732,23.617195 22.72302,23.308849 23.371815,22.299903 23.313,21.277 23.397431,19.968179 22.255231,18.955268 21.091129,18.586723 20.303397,18.329574 19.007062,17.402813 20.003,16.659 20.908328,16.069403 22.29995,16.703056 22.953,16.946632 22.953,16.367755 22.953,15.788877 22.953,15.21 21.591329,14.776367 19.89864,14.654958 18.645,15.489 17.300777,16.409456 17.392616,18.652996 18.753,19.50825 19.538648,20.122111 20.694545,20.217856 21.281546,21.082026 21.536913,21.538384 21.216796,22.130231 20.713906,22.231219 19.706552,22.707993 18.296274,21.82741 17.722,21.562551 17.722,22.171035 17.722,22.784849 17.722,23.39 Z"
     fill="#529bba"
     id="path2" />
</svg>
