<?xml version="1.0" encoding="UTF-8" standalone="no"?>
<svg
   width="32px"
   height="32px"
   viewBox="0 0 32 32"
   version="1.1"
   id="svg10"
   sodipodi:docname="twig.svg"
   xmlns:inkscape="http://www.inkscape.org/namespaces/inkscape"
   xmlns:sodipodi="http://sodipodi.sourceforge.net/DTD/sodipodi-0.dtd"
   xmlns="http://www.w3.org/2000/svg"
   xmlns:svg="http://www.w3.org/2000/svg">
  <sodipodi:namedview
     id="namedview12"
     pagecolor="#ffffff"
     bordercolor="#666666"
     borderopacity="1.0"
     inkscape:pageshadow="2"
     inkscape:pageopacity="0.0"
     inkscape:pagecheckerboard="0" />
  <!-- Generator: Sketch 49.1 (51147) - http://www.bohemiancoding.com/sketch -->
  <title
     id="title2">twig</title>
  <desc
     id="desc4">Created with Sketch.</desc>
  <defs
     id="defs6" />
  <g
     id="twig"
     stroke="none"
     stroke-width="1"
     fill="none"
     fill-rule="evenodd">
    <path
       d="m 23.984179,2.0068799 c -1.360897,-0.1765629 -2.564406,0.7662268 -3.344925,1.7680677 -2.393507,2.6403583 -3.348744,6.2195746 -3.98328,9.6481664 -0.246783,1.499213 -0.450697,2.990466 -0.613146,4.497458 -0.07359,1.298161 -0.254926,2.539012 -0.251484,3.813966 -0.602769,-1.308065 -1.462929,-2.718082 -2.905847,-3.194064 -0.529207,-0.361744 -2.8271,-0.347318 -1.121463,-0.01349 1.991329,0.738637 3.118346,2.841259 3.387782,4.86061 0.208604,0.776152 0.210244,1.696603 0.208345,2.594618 0.04294,0.626865 0.01547,2.219708 -0.270302,0.743168 -0.25799,0.02981 0.4353,1.684402 -0.740057,1.4091 -0.405375,0.09059 -0.755819,-0.726252 -0.391544,0.05134 -0.103162,0.538368 1.436371,0.802248 1.735844,0.649681 0.978831,0.256395 2.735797,-0.314398 3.265396,0.07188 0.681688,0.22007 1.098558,-2.441948 0.50135,-0.908963 -0.844897,0.625834 -0.538772,-1.180562 -0.628029,-1.724439 -0.147029,-1.546273 0.03936,-3.136469 0.12088,-4.654498 0.182048,-1.011113 0.33244,-2.109861 0.655108,-3.134106 0.416293,-1.408204 1.078767,-2.772683 2.10339,-3.840457 -1.108242,0.426172 -1.778884,1.521835 -2.359487,2.506476 -0.648465,1.175988 -1.075413,2.498717 -1.474559,3.745204 -0.133077,-0.57668 0.02504,-1.468026 0.06401,-2.139913 0.0795,-1.552827 0.282405,-3.021675 0.53825,-4.582464 0.535031,-3.189518 1.40799,-6.3548292 2.830944,-9.2867915 0.586206,-1.0203959 1.103978,-2.3712271 2.410735,-2.6046797 0.906642,-0.2375586 2.048946,1.154206 2.214088,1.2028947 C 25.481054,2.7884958 24.793508,2.1861602 23.984179,2.0068799 Z M 8.503025,16.775357 c 0.00831,0.718949 0.096193,1.489518 0.109047,2.055543 0.057651,0.887967 4.902e-4,1.470584 0.057037,2.362554 -0.025972,1.011062 0.090794,1.886717 0.045101,2.885138 -0.047168,0.602225 0.2780961,2.52058 -0.3054924,1.105913 -0.1141491,-0.507415 -1.3813794,-1.734208 -1.2669853,-1.41954 0.8684041,1.076065 1.1541537,2.446176 1.275827,3.808654 0.1095899,0.442842 0.2711825,2.66225 -0.1454792,1.103602 -0.5140004,-1.092028 0.5080943,1.221906 -0.5913014,0.788071 -0.455376,-0.615764 -0.1143854,-0.01479 -0.5422677,0.189744 1.1465793,0.543139 2.4215804,0.32407 3.669152,0.169593 0.551138,0.215376 0.54753,-2.073153 0.287102,-0.774524 -0.414653,1.063379 -1.1599204,-0.124344 -0.818147,-0.852644 0.04109,-0.86684 0.319586,-2.276738 1.43184,-2.200306 0.07165,-0.367204 -1.56651,0.08736 -1.703079,0.381819 C 9.8433354,24.758258 9.6482482,22.992226 9.3750802,21.324431 9.1136509,19.807121 8.9013438,18.244486 8.503025,16.775357 Z"
       id="path4861"
       fill="#444444"
       fill-rule="nonzero" />
  </g>
</svg>
