<svg xmlns="http://www.w3.org/2000/svg" width="32" height="32"><rect width="100%" height="100%" fill="none"/><g class="currentLayer"><path fill="#d6e4a1" d="M20.505 6.481c.122 0 .246-.005.368.001l.001.027a22.9 22.9 0 01-.37 0V6.48z"/><path fill="#b1cb54" d="M19.48 6.964c.296-.22.644-.43 1.024-.455h.37c.041.014.142-.031.143.028-.095 0-.186 0-.279.005-.379-.022-.71.206-.998.424l-.26-.002z"/><path fill="#aec029" d="M19.74 6.966c.287-.218.62-.446.998-.424-.256.079-.51.185-.712.367-.175.137-.32.305-.48.459a.32.32 0 00-.271.074c.13-.18.294-.336.465-.476z"/><path fill="#878e25" d="M20.738 6.542c.093-.005.184-.005.279-.005.415.073.76.372 1.026.683l-.024.065c-.282-.283-.626-.527-1.032-.59-.069-.024-.137-.037-.199-.002-.168.04-.332.1-.483.186-.121.07-.21.18-.319.264-.088-.082-.004-.155.04-.234.201-.182.456-.288.712-.367z"/><path fill="#b1b46f" d="M20.788 6.693c.062-.035.13-.022.2.001a.21.21 0 01-.2-.001z"/><path fill="#8b9a20" d="M19.546 7.368c.16-.154.305-.322.48-.459-.044.079-.128.152-.04.234-.317.4-.56.864-.797 1.319-.036.068-.044.163-.107.21.008-.048.02-.095.028-.143a9.271 9.271 0 00-.281-.002c0-.014.003-.04.004-.054.125-.207.243-.419.368-.626.105-.167.24-.313.345-.48z"/><path fill="#a9c54d" d="M18.777 7.623c.238-.216.438-.476.703-.66.087 0 .172.003.26.003a2.62 2.62 0 00-.465.476c-.075.077-.14.162-.213.242-.084.045-.149-.024-.222-.057-.027.034-.049.077-.098.08l.035-.084z"/><path fill="#9ca55c" d="M22.043 7.22c.053.06.104.124.14.197l-.018.032c-.04-.057-.134-.1-.146-.164l.024-.065z"/><path fill="#a4ba24" d="M19.275 7.442a.32.32 0 01.271-.074c-.106.166-.24.312-.345.48-.043.03-.083.066-.125.098-.054-.015-.105-.037-.16-.048l.146-.214c.072-.08.138-.165.213-.242z"/><path fill="#c5caa0" d="M22.183 7.417a.413.413 0 01.114.203.403.403 0 01-.132-.171l.018-.032z"/><path fill="#9bbd49" d="M18.84 7.627c.073.033.138.102.222.057l-.146.214a9.259 9.259 0 00-.552.91c-.106.198-.205.4-.3.603-.135 0-.266-.018-.399-.031-.04.038-.072.083-.118.113a9.299 9.299 0 011.042-1.629c.046-.055.083-.131.153-.158.049-.002.071-.045.098-.079z"/><path fill="#9ab422" d="M19.076 7.946c.042-.032.082-.068.125-.099-.125.207-.243.419-.368.626-.034.023-.065.048-.098.07-.045-.012-.086-.036-.132-.043-.113.066-.104.278-.24.308.167-.313.352-.618.553-.91.055.011.106.033.16.048z"/><path fill="#94b01f" d="M18.735 8.543c.033-.022.064-.047.098-.07l-.004.054c-.225.39-.384.817-.557 1.233-.099.29-.24.568-.297.87l-.03.08c-.127.098-.121.308-.23.431-.163.014-.117-.207-.25-.235.027-.093.06-.185.084-.28.169-.405.33-.815.514-1.215.096-.203.195-.405.3-.603.136-.03.127-.242.24-.308.046.007.087.031.132.043z"/><path fill="#83981d" d="M18.829 8.527c.094 0 .186 0 .28.002-.007.048-.019.095-.027.142a20.237 20.237 0 00-.772 2.008l-.02-.002c-.105-.011-.212-.017-.315-.046.057-.303.198-.581.297-.871.173-.416.332-.842.557-1.233z"/><path fill="#98ba49" d="M17.547 9.493c.046-.03.079-.075.118-.113.133.013.264.032.398.031-.184.4-.345.81-.514 1.215-.084.032-.051.174-.14.175-.067-.095-.147-.19-.153-.31-.056-.013-.113 0-.127.062-.096.13-.077.317-.2.426.01-.13.078-.246.121-.367.15-.38.296-.767.497-1.119z"/><path fill="#92b646" d="M17.129 10.553c.014-.062.07-.075.127-.063.006.122.086.216.153.311.089-.001.056-.143.14-.175-.024.095-.057.187-.085.28-.174.487-.344.98-.462 1.484-.145.434-.222.888-.336 1.331-.07.04-.135.09-.216.107-.143.074-.275.2-.315.362a.354.354 0 01.002-.141c.188-1 .422-1.992.738-2.96l.055-.11c.122-.11.103-.297.199-.426z"/><path fill="#7d941b" d="M17.975 10.63c.103.03.21.036.316.047-.074.034-.06.115-.062.182-.062.32-.189.629-.27.946a40.74 40.74 0 00-.312 1.25c-.022.03.01.112-.043.106-.094 0-.186-.008-.278-.023a.875.875 0 00-.149.194c.091-.474.243-.935.37-1.4.116-.413.266-.815.398-1.223l.03-.078z"/><path fill="#90a23a" d="M18.23 10.86c.001-.068-.013-.15.06-.183-.015.057-.004.155-.06.182z"/><path fill="#8eab1d" d="M17.714 11.141c.11-.123.104-.333.231-.432-.132.408-.282.81-.399 1.222-.062.064-.104.143-.15.218a.523.523 0 01-.154.013c-.047-.048.027-.148-.084-.106-.036.118-.064.245-.156.334.118-.505.288-.997.462-1.484.134.028.088.249.25.235z"/><path fill="#89a81c" d="M17.396 12.149c.046-.075.088-.154.15-.218-.126.466-.278.927-.369 1.401-.055.144-.066.3-.114.447-.109.171-.118.383-.205.564-.09.02-.2.03-.267.104-.031.103-.05.21-.089.311a.878.878 0 01.02-.211c.02-.28.135-.545.144-.826.114-.443.19-.897.336-1.331.092-.09.12-.216.156-.334.111-.042.037.058.084.106a.523.523 0 00.154-.013z"/><path fill="#76901a" d="M17.326 13.138c.092.015.184.022.278.023-.104.664-.265 1.318-.343 1.986l-.026.003c-.01-.144.021-.284.048-.423-.131-.072-.249.057-.379.063-.034.027-.044.071-.063.109.039-.379.165-.744.222-1.12.048-.146.06-.303.114-.447a.875.875 0 01.149-.194z"/><path fill="#8bb038" d="M16.45 13.828c.081-.017.146-.067.216-.107-.009.28-.124.546-.144.826a1.312 1.312 0 00-.447 0c-.025-.124.064-.232.06-.357.04-.161.172-.288.315-.362z"/><path fill="#81a31a" d="M16.858 14.343c.087-.18.096-.393.205-.564-.057.376-.183.741-.222 1.12a.97.97 0 01-.02.143l-.012-.093c-.053.01-.011.093-.05.123-.05.093-.165.026-.25.03-.02.047-.04.093-.065.136l-.004-.202c.018-.093.029-.189.062-.278.039-.101.058-.208.09-.311.066-.073.177-.084.266-.104z"/><path fill="#86ac37" d="M16.075 14.548c.147-.022.299-.03.447-.001a.878.878 0 00-.02.211c-.033.09-.044.185-.062.278-.129.044-.265-.014-.39.036-.066.041-.072.124-.092.195a2.395 2.395 0 01.117-.72z"/><path fill="#6d8a16" d="M16.904 14.79c.13-.006.248-.135.379-.063-.027.14-.059.279-.048.423-.01.2-.036.397-.062.595l-.032.003a.205.205 0 00-.053-.199h-.303c-.043.069-.051.153-.09.225.005-.097.029-.193.026-.29.038-.147.069-.294.1-.442a.97.97 0 00.02-.143c.02-.038.029-.082.063-.11z"/><path fill="#789d18" d="M16.76 15.072c.038-.03-.004-.112.05-.123l.011.093a9.378 9.378 0 01-.1.441c-.04.064-.062.135-.09.203-.063-.012-.123-.04-.186-.052-.038.053-.06.115-.085.175-.001-.067.003-.133.006-.2.032-.12.017-.258.078-.37a1.41 1.41 0 00.065-.136c.085-.005.2.062.25-.031z"/><path fill="#7ea733" d="M16.05 15.072c.125-.05.261.008.39-.036l.004.202c-.06.113-.046.25-.078.371-.102.097-.25.008-.374.008-.048.069-.076.148-.11.223a1.56 1.56 0 01.076-.573c.02-.07.026-.154.093-.195z"/><path fill="#b6c22d" d="M19.198 15.207c.084-.04.157-.126.258-.115-.953 1.021-1.415 2.395-1.657 3.746l-.024-.006a1.373 1.373 0 00-.286-.051c.227-.943.447-1.916.976-2.744.033-.058.102-.114.062-.186.001-.055.057-.103.094-.141.182-.18.353-.375.577-.503z"/><path fill="#6e9716" d="M16.631 15.686c.028-.068.05-.14.09-.203.003.098-.02.194-.025.291-.057.116-.08.244-.122.366-.064-.011-.126-.032-.189-.046-.042.068-.053.15-.083.223l-.008-.034a4.22 4.22 0 01.066-.474c.025-.06.047-.122.085-.175.063.012.123.04.186.052z"/><path fill="#618213" d="M16.785 15.549h.303a.205.205 0 01.053.199.356.356 0 00-.019.192c.015.25-.065.493-.058.743h-.026c-.02-.096.048-.246-.067-.301-.1.027-.315-.126-.326.055l-.03-.008-.012-.121c.027-.179.093-.352.093-.534.038-.072.046-.156.09-.225z"/><path fill="#729f31" d="M15.992 15.617c.124 0 .272.089.374-.008-.003.067-.007.133-.006.2a4.22 4.22 0 00-.066.474c-.02.057-.037.115-.06.17-.137.05-.33-.138-.406.04a1.12 1.12 0 01-.06.313c-.014-.224.033-.45.058-.672.008-.1.018-.2.055-.294.035-.075.063-.154.11-.223z"/><path fill="#859e47" d="M17.122 15.94a.356.356 0 01.019-.192c.02.052.046.172-.019.192z"/><path fill="#649013" d="M16.574 16.14c.041-.122.065-.25.122-.366 0 .182-.066.355-.093.534-.025.085-.055.168-.085.252-.053-.011-.106-.027-.16-.038-.053.04-.064.108-.083.168.005-.125.016-.249.027-.373.03-.073.041-.155.083-.223.063.014.125.035.19.046z"/><path fill="#becc2f" d="M18.23 16.229c.093-.127.165-.292.297-.378.04.072-.03.128-.062.186-.53.828-.749 1.801-.976 2.744-.11.206-.092.462-.144.688-.113.004-.157-.128-.23-.194-.054-.015-.106.01-.157.024.069-.404.224-.786.353-1.175.247-.658.524-1.31.92-1.895z"/><path fill="#61942b" d="M16.233 16.454c.024-.056.04-.114.061-.17l.008.033c-.01.124-.022.248-.027.373-.03.236-.041.473-.057.71-.017.423-.058.844-.068 1.267-.042.296-.02.596-.015.894-.014.35-.003.701-.01 1.052l-.044-.02c-.133-.222-.21-.476-.364-.685-.053-.032-.168-.131-.06.09.073.417.268.81.27 1.24a9.059 9.059 0 00-.045-.184 6.103 6.103 0 00-.288-.966 4.114 4.114 0 01-.063-.18c.016-.09.031-.178.029-.268 0-.055.002-.11.006-.165a2.41 2.41 0 00.021-.407 43.3 43.3 0 01-.001-.191c-.012-.18.022-.359.038-.537l.027-.238.006-.027a.45.45 0 00.017-.197l-.003-.195a2.34 2.34 0 01.067-.565 2.12 2.12 0 00.022-.264l.007-.048a1.02 1.02 0 00.06-.312c.078-.179.27.008.406-.04z"/><path fill="#5c8b11" d="M16.518 16.56c.03-.084.06-.167.085-.252l.012.12c-.057.226-.079.46-.154.68-.053-.004-.104-.02-.156-.025-.011.11-.051.214-.087.317.016-.237.027-.474.057-.71.019-.06.03-.127.083-.168.054.011.107.027.16.038z"/><path fill="#4d770d" d="M16.645 16.437c.01-.18.227-.028.326-.055.115.055.047.205.067.302a3.39 3.39 0 01-.066.703c-.014.074-.019.152-.027.228a1.686 1.686 0 00-.023.291c0 .076 0 .151.002.227.003.074 0 .147-.007.22-.013.075-.021.153-.03.229a1.98 1.98 0 00-.019.35l-.003.191-.003.025c-.01.185-.042.37-.046.556-.02.11-.064.213-.066.327-.067 0-.05.07-.059.115a.997.997 0 00-.135.15c.032-.332-.032-.664-.035-.997-.083-.693-.018-1.388 0-2.082.024-.262.074-.521.124-.78z"/><path fill="#54860f" d="M16.615 16.429l.03.008c-.05.259-.1.518-.124.78a10.894 10.894 0 00-.034 2.395c-.06.412-.192.812-.275 1.22-.003.04-.054.047-.08.066-.003-.097-.003-.19-.007-.285.007-.35-.004-.702.01-1.052.04-.296.018-.596.015-.894.01-.423.05-.844.068-1.267.036-.103.076-.207.087-.317.052.005.103.02.156.024.075-.22.097-.453.154-.678z"/><path fill="#c8da9f" d="M10.7 16.54c.047.014.041.093.046.137l-.018.177-.028.001v-.315z"/><path fill="#b0d231" d="M10.728 16.854l.018-.177c.065.262.107.53.168.792a.245.245 0 01.004.117c-.075.385.158.804-.022 1.173-.028-.018-.055-.039-.082-.06v-.082c-.002-.09.01-.18-.021-.264a9.89 9.89 0 01-.01-.222l.002-.196a.385.385 0 00-.014-.2.98.98 0 01-.015-.227c-.002-.117.006-.235-.017-.35a1.886 1.886 0 01-.011-.304z"/><path fill="#97b972" d="M15.738 17.118c.019-.072-.053-.237.022-.264a2.115 2.115 0 01-.022.264z"/><path fill="#cedfaa" d="M10.739 17.159c.023.114.015.232.017.35h-.028a1.965 1.965 0 01.01-.35z"/><path fill="#517e0e" d="M16.487 19.612a10.897 10.897 0 01.034-2.395c-.018.694-.083 1.39 0 2.082.003.333.067.665.035.997a.997.997 0 01.135-.15l.013.068c-.059.26-.114.52-.161.783-.012.048-.02.096-.028.144l-.027.184-.021-.007c-.023-.02-.041-.074-.08-.053-.085.039-.2.028-.258.11a8.04 8.04 0 00-.006-.321l.008-.156c.027-.02.078-.025.081-.066.083-.408.214-.808.275-1.22z"/><path fill="#819c53" d="M16.945 17.615c.008-.076.013-.154.027-.228a.98.98 0 01.004.236l-.031-.008z"/><path fill="#aad439" d="M12.537 17.637c-.085.08-.322-.197-.02-.072.367-.025.732.036 1.078.15l.01.024c-.076.079-.15.158-.232.23-.275-.118-.533-.29-.836-.332z"/><path fill="#a5cd2f" d="M10.896 18.759c.18-.369-.053-.788.022-1.173.069.239.101.498.15.745-.077-.071-.13.081-.081.143.044.264.002.527-.008.791-.018.04-.035.082-.057.121-.07-.034-.084-.111-.102-.179l-.007-.078v-.257l.001-.172.082.059z"/><path fill="#6c8d3a" d="M16.922 17.906a1.686 1.686 0 01.023-.29c.004.095.011.193.005.29h-.028z"/><path fill="#c9dcba" d="M15.66 17.878c-.026-.053-.043-.165.011-.195l.003.195h-.015z"/><path fill="#b2cf5d" d="M10.77 17.736a.385.385 0 01.015.199h-.014a.218.218 0 010-.2z"/><path fill="#a7d232" d="M13.605 17.74a.864.864 0 01.36.162 1.387 1.387 0 00-.08.068c.079.08.19.123.254.22.171.129.069.38.214.522-.025.086.03.164.019.249-.106-.07-.153-.217-.24-.31-.221-.215-.425-.451-.687-.619-.022-.022-.07-.027-.072-.063.082-.072.156-.151.232-.23z"/><path fill="#80aa56" d="M15.66 17.878h.014a.45.45 0 01-.017.197c-.028-.059-.034-.14.002-.197z"/><path fill="#9eca2d" d="M13.885 17.97a.87.87 0 01.08-.068c.548.304.946.822 1.247 1.363a.698.698 0 00-.162.125c0 .139.05.27.104.396a1.55 1.55 0 01-.039.905c.005.114.018.226.018.341l-.026-.001c-.08-.734-.373-1.44-.735-2.07.01-.085-.044-.163-.02-.25-.144-.14-.042-.392-.213-.521-.064-.097-.175-.14-.254-.22z"/><path fill="#b4c39a" d="M16.922 17.906h.028c-.011.068.037.202-.026.227a8.664 8.664 0 01-.002-.227z"/><path fill="#c6da90" d="M10.771 17.935h.014l-.002.196h-.017a.257.257 0 01.005-.196z"/><path fill="#a2c083" d="M15.624 18.34c.007-.072-.048-.214.027-.238-.008.08-.018.157-.027.238z"/><path fill="#dbe7c4" d="M10.766 18.13h.017c.002.074.006.148.01.223l-.032.009a.786.786 0 01.005-.231z"/><path fill="#9bc424" d="M10.987 18.474c-.05-.062.004-.214.08-.143.022.16.055.318.08.476-.06.037-.16.056-.079.179-.03.162.07.33.006.487-.016.048-.036.096-.054.145-.012-.118-.032-.235-.041-.353.01-.264.052-.527.008-.791z"/><path fill="#94bd28" d="M10.793 18.353c.03.084.02.174.02.264h-.027a1.413 1.413 0 01.007-.264z"/><path fill="#b6c69b" d="M16.887 18.582c.009-.076.017-.154.03-.228.003.086.01.176.005.264l-.032-.006-.003-.03z"/><path fill="#64882f" d="M16.868 18.933c0-.118 0-.236.02-.351l.002.03c.003.105.016.215-.005.32h-.017z"/><path fill="#a2c35c" d="M10.786 18.617h.027l.001.083-.001.172h-.027a2.953 2.953 0 010-.255z"/><path fill="#5a8c1c" d="M16.135 19.56c-.004-.297-.027-.597.015-.893.003.298.025.598-.015.894z"/><path fill="#b6c929" d="M17.345 19.47c.052-.227.034-.483.144-.69.098.006.192.026.286.052-.049.101-.052.214-.057.325-.005.105-.019.21-.04.313a.4.4 0 00-.015.194c.005.057-.02.111-.037.166a2.48 2.48 0 00-.024.033c-.046.003-.089.016-.115.056-.04.057-.115.072-.157.127-.102.342-.068.72-.24 1.042-.07.012-.122-.042-.18-.068-.096-.02-.339.019-.242-.187.026-.37.1-.737.186-1.098a.192.192 0 00.007-.159l.012-.072a.56.56 0 00.085-.205c.05-.014.103-.04.157-.024.073.066.117.198.23.194z"/><path fill="#8ebb20" d="M11.068 18.986c-.081-.123.018-.142.079-.179.033.24.08.477.12.716-.046-.036-.08.001-.107.04-.004.147-.007.296-.008.444-.03.06-.093.102-.091.177a.7.7 0 00-.078-.23c.014-.112.026-.224.037-.336.018-.049.038-.097.054-.145.064-.157-.036-.325-.006-.487z"/><path fill="#c5d052" d="M17.718 19.157c.005-.11.008-.224.057-.325-.04.08.032.285-.057.325z"/><path fill="#bcd38f" d="M10.786 18.873h.027v.256l-.027-.001a2.832 2.832 0 010-.255z"/><path fill="#cedebf" d="M15.57 19.068c-.02-.053-.037-.162.016-.191l.001.191h-.017z"/><path fill="#97ae73" d="M16.868 18.933h.017a.277.277 0 01-.002.19h-.018l.003-.19z"/><path fill="#80aa57" d="M15.57 19.068h.017c.002.136 0 .272-.021.407l-.007-.12c0-.096-.01-.192.01-.287z"/><path fill="#dde8c9" d="M10.786 19.128h.027l.007.08-.007.204c-.084-.02-.008-.204-.027-.284z"/><path fill="#d0d89e" d="M16.865 19.123h.018l.012.206c.002.08.03-.042.063-.03a.56.56 0 01-.085.205 14.099 14.099 0 01-.01-.356l.002-.025z"/><path fill="#709029" d="M16.816 19.704c.004-.186.036-.37.046-.556l.01.356a6.316 6.316 0 01-.011.072c-.016.042-.03.085-.045.128z"/><path fill="#93c42c" d="M10.82 19.207c.018.068.033.145.102.18.022-.04.039-.081.057-.122.01.118.029.235.04.353-.01.112-.022.224-.036.336a.492.492 0 01-.14-.027c-.005-.082.003-.161-.02-.239-.017-.092-.01-.184-.01-.276l.007-.205z"/><path fill="#96c429" d="M15.05 19.39a.698.698 0 01.162-.125c.09.154.162.318.228.484-.035.031-.07.062-.102.097.047.248.176.49.126.75-.097.246-.223.485-.277.746l-.024.004c.009-.108-.037-.207-.03-.314 0-.115-.013-.227-.018-.34a1.55 1.55 0 00.039-.906 1.008 1.008 0 01-.104-.396z"/><path fill="#c9dbb8" d="M15.532 19.64c.029-.072-.046-.25.027-.285l.007.12c-.004.055-.005.11-.006.165h-.028z"/><path fill="#dee39b" d="M17.663 19.664a.4.4 0 01.014-.194c.024.051.049.17-.014.194z"/><path fill="#81af1b" d="M11.16 19.563c.027-.039.06-.076.107-.04-.004.142.075.283.047.421a.187.187 0 00-.046.179 5.99 5.99 0 00.068 1.006c.03.165.015.34.073.5l.007.019c-.023.028-.044.058-.068.085-.076-.01-.163-.067-.221.01l-.022-.177c-.006-.12-.008-.238-.013-.357.025-.343-.038-.683-.031-1.025-.002-.075.06-.118.09-.177.002-.148.005-.297.01-.444z"/><path fill="#adc327" d="M16.816 19.704l.045-.128a.192.192 0 01-.007.16 6.67 6.67 0 00-.186 1.097c-.097.206.146.168.242.187.058.026.11.08.18.068.172-.323.138-.7.24-1.042.042-.055.117-.07.157-.127.026-.04.07-.053.115-.056l.004.203c.003.131-.019.26-.036.39-.015.094-.02.19-.028.285-.01.029-.018.057-.026.087-.047.076-.122.103-.212.101-.126.139-.119.334-.187.499-.172-.007-.264-.241-.459-.215-.116-.002-.13-.117-.115-.216.047-.262.102-.523.16-.783.02-.06.038-.12.047-.183.002-.114.046-.217.066-.327z"/><path fill="#84ab5a" d="M15.532 19.64h.028c.002.09-.013.178-.029.268-.001-.091-.003-.179.001-.268z"/><path fill="#93b954" d="M10.824 19.688c.022.078.014.157.018.239v.053l-.028.002c-.003-.1-.008-.197.01-.294z"/><path fill="#8ebd25" d="M15.338 19.846c.032-.035.067-.066.102-.097.031.053.04.118.091.159.02.06.04.12.063.18a6.63 6.63 0 00-.003.107c-.108.05-.023.178-.023.258.02.183.06.364.047.549-.106.217-.27.41-.311.655-.06.152.03.31-.023.464l-.03-.008a9.016 9.016 0 01-.004-.231.392.392 0 00-.014-.196c-.049-.108-.043-.229-.046-.344.054-.261.18-.5.277-.747.05-.26-.079-.501-.126-.749z"/><path fill="#d3dc83" d="M17.602 19.863a2.48 2.48 0 01.024-.033c-.006.07.044.209-.02.236l-.004-.203z"/><path fill="#5e9029" d="M15.658 19.998c-.109-.221.006-.122.06-.09.154.209.23.463.363.685l.044.02c.004.095.004.188.006.285l-.008.156a.929.929 0 01-.157.187l-.016.193a3.701 3.701 0 00-.11-.009c.054-.05.106-.108.087-.188-.002-.428-.197-.822-.27-1.239z"/><path fill="#85b827" d="M10.842 19.927a.492.492 0 00.14.027.7.7 0 01.079.23c-.007.342.056.682.03 1.025-.026-.133-.014-.283-.083-.404-.08.001-.1.103-.157.147-.01-.106-.01-.211-.01-.318v-.654l.001-.053z"/><path fill="#75a118" d="M11.268 20.123a.187.187 0 01.046-.179c.092.445.129.903.193 1.354-.01.125.063.241.04.366a1.21 1.21 0 00-.056-.089c-.028.016-.055.035-.082.054-.058-.16-.043-.335-.073-.5a5.99 5.99 0 01-.068-1.006z"/><path fill="#b1ca8a" d="M10.814 19.982l.028-.002v.313h-.028a4.958 4.958 0 010-.311z"/><path fill="#7b9718" d="M16.691 20.146c.009-.046-.008-.115.059-.115a1.079 1.079 0 01-.046.183l-.013-.068z"/><path fill="#7fac2a" d="M15.594 20.088c.125.313.216.638.288.966l-.03-.006-.036-.013a1.47 1.47 0 00-.023-.101 4.345 4.345 0 00-.202-.739l.003-.107z"/><path fill="#85b520" d="M15.568 20.453c0-.08-.085-.208.023-.258.086.241.16.486.202.739a.925.925 0 00-.073.072c-.06.048.007.149-.038.206-.085.116-.211.21-.237.36-.13.342.155.657.072 1.001-.01.114-.07.214-.118.316-.058.116-.045.257-.117.367l-.003-.03c-.008-.286-.002-.572-.004-.858 0-.084 0-.165.006-.247.053-.155-.037-.312.023-.464.04-.245.205-.438.31-.655.014-.185-.026-.366-.046-.549z"/><path fill="#d7e3c4" d="M10.814 20.293h.028v.341h-.029a5.684 5.684 0 01.001-.34z"/><path fill="#d2dc87" d="M17.542 20.741c.008-.095.013-.191.028-.285.004.097.013.196.003.293l-.031-.008z"/><path fill="#c3d267" d="M17.516 20.828l.026-.087c.005.124.011.25.006.376h-.027c-.002-.097-.001-.192-.005-.29z"/><path fill="#81bb36" d="M10.85 20.952c.057-.044.078-.146.158-.147.069.121.057.271.084.404.005.119.007.237.013.357.002.09.029.216-.09.175-.077-.037-.085-.164-.14-.232a43.324 43.324 0 01-.004-.192c-.002-.117 0-.233-.018-.348l-.002-.017z"/><path fill="#a5be23" d="M17.304 20.93c.09 0 .165-.026.212-.102.004.097.003.192.005.29l-.003.193c-.135.01-.15.2-.307.156-.076.099-.09.226-.134.34-.003-.228-.161-.46-.39-.506-.097.001-.154-.072-.172-.16.007-.048.016-.096.028-.144-.014.1-.001.214.115.216.195-.026.287.208.459.215.068-.165.061-.36.187-.499z"/><path fill="#80ac1e" d="M15.72 21.006a.925.925 0 01.073-.072l.023.101a1.505 1.505 0 01-.096-.029z"/><path fill="#93bb5a" d="M10.853 20.969c.018.115.016.231.018.348h-.029a2.403 2.403 0 01.01-.348z"/><path fill="#7eaf1c" d="M15.682 21.212c.045-.057-.021-.158.038-.206l.096.03.036.012c-.115.065-.113.215-.202.302-.143.14-.215.366-.141.558.044.158.155.278.242.413.05.372-.175.697-.237 1.052 0 .393-.004.794.105 1.175a2.939 2.939 0 00-.146-.027c-.026-.019-.075-.017-.082-.054-.067-.202-.114-.41-.167-.616.05-.048.026-.115.023-.175a.545.545 0 01.007-.107c.013-.104.022-.208.028-.313.072-.11.059-.251.117-.367.048-.102.107-.202.118-.316.083-.344-.202-.66-.072-1.001.026-.15.152-.244.237-.36z"/><path fill="#78a91a" d="M15.65 21.35c.089-.087.087-.237.202-.302l.03.006c.009.088-.045.141-.11.189-.041.146-.196.225-.224.376-.079.232.086.454.272.575.06.03.055.1.066.157.036.32.009.645-.03.965 0 .364-.022.732.022 1.095a.609.609 0 01-.005.189c-.085-.016-.169-.035-.254-.052-.11-.38-.106-.782-.105-1.175.062-.355.286-.68.237-1.052-.087-.135-.198-.255-.242-.413-.074-.192-.002-.418.141-.558z"/><path fill="#73a31a" d="M15.882 21.054l.045.183c.02.08-.033.138-.087.188-.13.062-.226.185-.21.34-.053.174.17.27.26.383.088.254.062.525.09.789.037.559.039 1.118.034 1.679-.047-.004-.095-.006-.14-.016a.609.609 0 00.004-.189c-.044-.363-.021-.731-.022-1.095.039-.32.066-.644.03-.965-.01-.057-.007-.127-.066-.157-.186-.121-.35-.343-.272-.575.028-.151.183-.23.224-.376.065-.048.119-.1.11-.189z"/><path fill="#578625" d="M15.966 21.241a.929.929 0 00.157-.187c.005.107.006.213.006.321l-.06.113c-.04-.019-.08-.035-.119-.054l.016-.193z"/><path fill="#e0e7b4" d="M17.52 21.118h.028c0 .141.006.285-.002.427l-.027-.008v-.226l.002-.193z"/><path fill="#9dbb20" d="M16.488 21.325l.027-.184c.018.088.075.161.171.16.23.046.388.278.391.506.043-.114.058-.241.134-.34.156.045.172-.147.307-.156v.226a3.257 3.257 0 01-.03.032.622.622 0 00-.174.22c-.04-.03-.077-.072-.13-.078-.011.104-.035.21-.018.316-.009.326-.102.645-.096.972l-.009.046c-.02.074-.037.153-.061.228-.17-.049-.325.048-.493.025a.45.45 0 01-.094-.253c.03.047.057.097.089.144.086-.04.155-.156.26-.125.084.001.161-.05.238-.08.062-.248.061-.505.091-.758a.916.916 0 00-.03-.343c-.057.082-.11.168-.176.245-.113.034-.23.087-.35.057-.062-.02-.126-.005-.188.007l.007-.022c.11-.12.316-.024.447-.123.184-.127.198-.415.046-.57-.083-.114-.239-.102-.359-.152z"/><path fill="#b7d143" d="M9.703 21.172c.18.087.32.245.456.39a.124.124 0 00-.093.093l-.02-.002c-.083-.182-.22-.327-.343-.48z"/><path fill="#487211" d="M16.13 21.375c.057-.082.172-.071.257-.11.039-.021.057.032.08.053l.006.14c-.159.077-.196.292-.087.427a.816.816 0 01-.03.197c-.052.057-.167.098-.194-.004-.034-.064-.073-.125-.099-.193a.266.266 0 00.005-.397l.061-.113z"/><path fill="#aec88a" d="M10.842 21.316h.029c0 .049.003.145.004.193a7.292 7.292 0 00-.006.177h-.027c-.002-.124-.005-.247 0-.37z"/><path fill="#93b423" d="M16.467 21.318l.021.007c.12.05.276.038.36.153.151.154.137.442-.047.569-.131.1-.338.004-.447.123l.003-.088a.816.816 0 00.03-.197c.12.133.367.09.424-.084.116-.199-.146-.406-.338-.344l-.006-.139z"/><path fill="#f8faf5" d="M15.63 21.764c-.016-.154.08-.277.21-.339l.11.01c.04.018.08.034.118.053a.266.266 0 01-.005.397l-.078.058c-.151.045-.29-.05-.355-.179z"/><path fill="#f9fbf6" d="M16.473 21.457c.192-.062.454.145.338.344-.057.175-.304.217-.425.084-.109-.135-.072-.35.087-.428z"/><path fill="#77b536" d="M10.875 21.509c.055.068.063.195.14.232.119.041.092-.085.09-.175l.022.178c-.001.095 0 .193-.003.29a1.538 1.538 0 01-.16-.044c-.05-.043-.062-.111-.09-.168a4.374 4.374 0 01-.005-.136c.001-.06.004-.118.006-.177z"/><path fill="#b1c54d" d="M17.487 21.569l.032-.032c0 .086.004.175 0 .263h-.027l-.005-.231z"/><path fill="#aac933" d="M10.066 21.655a.124.124 0 01.093-.093c.203.192.357.438.478.689-.08.08-.177.149-.23.25l-.015.011c-.064-.3-.206-.577-.326-.857z"/><path fill="#619110" d="M11.41 21.629a1.02 1.02 0 01.08-.054c.02.029.039.058.056.089.01.097.055.2.026.297-.16.067-.06.28-.132.408-.043.11-.199.069-.285.116l.003-.2c.04-.132.2-.041.276-.123a5.48 5.48 0 00.005-.222c-.004-.098.017-.2-.023-.292l-.007-.02z"/><path fill="#9ab51f" d="M17.314 21.79a.622.622 0 01.173-.221l.005.23c0 .22 0 .439.002.658a1.647 1.647 0 00-.005.14c-.148-.112-.22.124-.354.155-.026.081-.044.163-.065.247-.006-.327.087-.646.096-.972-.017-.105.007-.212.018-.316.053.006.09.048.13.078z"/><path fill="#74a417" d="M11.348 21.733c.024-.027.045-.057.068-.085.04.092.02.194.023.292-.082.11-.256-.037-.315.094.003-.097.002-.195.003-.29.058-.078.145-.022.221-.011z"/><path fill="#d6e3c5" d="M10.842 21.686h.027l.005.136-.005.262h-.027c-.001-.134-.004-.266 0-.398z"/><path fill="#a5cb54" d="M15.233 21.686a.392.392 0 01.014.196h-.019a.238.238 0 01.005-.196z"/><path fill="#6b9919" d="M15.89 22.148c-.09-.113-.313-.21-.26-.384.065.129.204.224.355.179-.031.025-.075.024-.112.036.03.09.14.097.189.17.032.093.038.195.086.283.026.128.038.259.037.39a.641.641 0 00-.08-.029c-.01.088-.057.175-.047.267.044.526-.027 1.059.038 1.583h-.081l-.001-.027c.005-.56.003-1.12-.035-1.68-.027-.263-.001-.534-.09-.788z"/><path fill="#c3d179" d="M17.492 21.8h.027c-.004.218.016.438-.008.656h-.017a35.863 35.863 0 01-.002-.656z"/><path fill="#6bac34" d="M10.874 21.822c.028.057.04.125.09.168.052.018.106.032.16.044a2.5 2.5 0 00.014.1c-.023.088-.016.261-.179.174-.05-.006-.053-.082-.083-.117a.434.434 0 01-.007-.107l.005-.262z"/><path fill="#d3e5ae" d="M15.228 21.883l.019-.001c0 .076.001.153.004.23-.069-.019-.024-.162-.023-.23z"/><path fill="#608b21" d="M15.985 21.943c.026-.02.052-.04.078-.058.026.068.065.129.099.193l-.014.354c-.048-.088-.054-.19-.086-.283-.05-.073-.16-.08-.189-.17.037-.012.08-.011.112-.036z"/><path fill="#a0c323" d="M16.885 22.128c.065-.077.12-.163.177-.245.038.11.034.228.03.343-.03.253-.03.51-.092.759-.077.03-.154.08-.238.079-.105-.03-.174.085-.26.125-.032-.047-.059-.097-.09-.144-.064-.212-.068-.437-.094-.655a.559.559 0 01.03-.198c.061-.012.125-.026.187-.007.12.03.237-.023.35-.057z"/><path fill="#689a14" d="M11.124 22.034c.059-.13.233.017.315-.094 0 .074-.002.148-.005.222-.076.082-.235-.01-.276.124a1.125 1.125 0 00-.02-.152 2.5 2.5 0 01-.014-.1z"/><path fill="#52830e" d="M11.44 22.37c.072-.128-.027-.342.132-.409.021.094.05.192.032.289-.034.024-.082.038-.085.087-.037.174-.012.365-.093.53-.082.07-.161.144-.241.216-.008-.173-.03-.346-.033-.519l.003-.08c.086-.046.242-.005.285-.115z"/><path fill="#507a0f" d="M16.162 22.078c.027.102.142.061.195.004l-.003.088-.007.022a.559.559 0 00-.029.198c-.03.174-.038.352-.083.523a3.62 3.62 0 01-.05-.092 1.897 1.897 0 00-.037-.389l.014-.354z"/><path fill="#a4ca56" d="M15.25 22.113l.03.008a4.437 4.437 0 00-.005.247h-.027a1.826 1.826 0 01.003-.255z"/><path fill="#62a531" d="M11.138 22.134c.01.05.016.1.02.152l-.003.199-.003.08c-.083.01-.166.029-.25.032a1.276 1.276 0 00-.021-.123 1.027 1.027 0 01-.005-.283c.03.035.032.11.083.117.163.087.156-.086.179-.174z"/><path fill="#a2c42c" d="M10.407 22.502c.053-.102.15-.171.23-.251.085.147.16.3.214.462.011.03.024.06.037.089.054.146.114.29.144.443-.174.037-.007.286-.1.378-.102.06-.272.11-.263.25l-.026.002c.002-.467-.138-.922-.236-1.373z"/><path fill="#47740b" d="M11.52 22.337c.002-.05.05-.063.084-.087.039.216.05.439.062.658-.004.117.054.255-.058.337-.077.054-.112.145-.145.23-.044.09-.059.189-.08.285-.022.028-.044.054-.063.083-.025.127-.033.264-.06.394l-.021.015a2.051 2.051 0 01-.031-.297c-.001-.045-.013-.088-.022-.132.055-.245-.03-.493-.001-.74l.24-.216c.082-.165.057-.356.094-.53z"/><path fill="#c2db91" d="M15.248 22.368h.027c.002.286-.004.572.004.858l-.03-.007a35.34 35.34 0 01-.001-.85z"/><path fill="#95ba1d" d="M16.235 22.913c.045-.171.054-.35.083-.523.026.218.03.443.095.655a.45.45 0 00.094.253c.168.023.324-.074.493-.025.024-.075.04-.154.061-.228.001.056.002.113 0 .17-.024.141-.039.284-.057.426-.16-.068-.298.153-.442.084-.037-.098-.066-.198-.105-.296-.04-.067-.128-.078-.19-.12-.01-.117.02-.24-.018-.351l-.014-.045z"/><path fill="#adc150" d="M17.494 22.457l.017-.001c.026.053.013.118.008.176l-.01.018a10.44 10.44 0 01-.02-.053c0-.047.001-.094.005-.14z"/><path fill="#8bb85a" d="M10.88 22.474c.01.04.017.082.022.123l-.014.205c-.013-.03-.026-.06-.037-.09a3.58 3.58 0 01.03-.238z"/><path fill="#589d33" d="M10.902 22.597c.084-.003.167-.022.25-.033.002.173.025.346.033.519-.03.247.056.495.001.74l-.092-.059c.06-.173-.03-.349-.062-.52-.03-.152-.09-.296-.144-.442l.014-.205z"/><path fill="#93af1d" d="M17.135 22.752c.134-.031.206-.267.354-.155l.02.053.002.022a.765.765 0 00.004.299l.002.025v.117c-.019-.05-.031-.102-.057-.149-.162.073-.405.113-.39.347a11.116 11.116 0 00-.01-.096 3.38 3.38 0 00.001-.17l.009-.046c.021-.084.04-.166.065-.247z"/><path fill="#ebeed3" d="M17.519 22.632l.026-.011c.002.123.01.248.001.371l-.029.004-.002-.025c0-.101.007-.2-.004-.299l-.001-.022.009-.018z"/><path fill="#a4ba42" d="M17.515 22.97a.765.765 0 01-.004-.298c.01.1.005.198.004.299z"/><path fill="#c6d657" d="M12.461 22.71h.313v.027c-.104 0-.208.002-.312 0v-.028z"/><path fill="#b3c92e" d="M11.696 23.11c.197-.21.471-.371.766-.373.104.002.208 0 .312 0 .037.013.152-.028.136.028a.388.388 0 00-.193.013.857.857 0 00-.592.446c-.021.075-.072.136-.11.203-.063.201-.099.41-.123.618l-.023-.003a1.346 1.346 0 00-.128-.329c-.1-.063-.283-.08-.251-.237.043-.075.091-.148.118-.231.112-.082.054-.22.058-.337h.027l.003.202z"/><path fill="#e9edc2" d="M12.717 22.778a.388.388 0 01.193-.013c-.022.063-.143.04-.193.013z"/><path fill="#669214" d="M16.106 22.793a.641.641 0 01.08.028l.049.092.014.045c.016.122-.048.265.017.38.03.048.033.105.038.161 0 .14-.015.284 0 .425.032.2.018.408.076.603-.067-.013-.093.02-.082.085.001.039-.017.06-.055.065-.049-.01-.098-.023-.147-.034-.065-.524.006-1.057-.038-1.583-.01-.092.038-.179.048-.267z"/><path fill="#7fa71d" d="M16.25 22.958c.038.111.006.234.017.35v.03c-.066-.115-.002-.258-.018-.38z"/><path fill="#8ca919" d="M17.07 23.311c-.015-.234.228-.274.39-.347.026.047.038.099.056.15.002.041.002.083.003.126-.13.089-.28.161-.396.266-.077.304-.062.629-.051.943l-.007.078-.026.002c-.004-.406-.013-.813.031-1.218z"/><path fill="#cfda9a" d="M17.517 22.996l.03-.004c.002.085.006.174-.002.26l-.026-.012a2.66 2.66 0 00-.003-.127l.001-.117z"/><path fill="#e4f0c3" d="M15.021 23.217c.033.018.066.04.046.082a.859.859 0 00-.012.255l-.003.03-.03.008c-.003-.126-.007-.25 0-.375z"/><path fill="#a2c657" d="M15.249 23.219l.03.007.003.03a4.471 4.471 0 01-.028.313 3.43 3.43 0 01-.005-.35z"/><path fill="#90b619" d="M17.004 23.641c.018-.142.033-.285.057-.426l.01.096c-.045.405-.036.812-.032 1.218l-.024.004a1.876 1.876 0 00-.17 0 4.072 4.072 0 00-.228 0c-.052-.292-.051-.597-.158-.878-.077-.025-.14-.068-.155-.156-.005-.056-.009-.113-.038-.162l.001-.029c.062.043.15.054.19.121.039.098.068.198.105.296.144.069.283-.152.442-.084z"/><path fill="#93b822" d="M10.933 23.623c.092-.092-.075-.34.1-.378.032.17.12.346.061.52-.108-.033-.2.034-.223.14.002.109.104.18.201.206l-.084.027a.401.401 0 01.116.129c-.006.103.011.218-.041.314-.111.003-.222.004-.333.004a1.85 1.85 0 00-.02-.093c-.003-.208-.04-.413-.041-.62-.01-.14.161-.189.264-.249z"/><path fill="#7f9f13" d="M11.463 23.475c.033-.085.068-.176.145-.23-.027.083-.075.156-.118.23h-.027z"/><path fill="#86a317" d="M17.123 23.506c.117-.105.265-.177.396-.266 0 .099-.01.204.021.3l.01.106v.025l-.047-.008c-.102.117-.231.224-.262.384 0 .064-.069.05-.11.065 0 .115-.028.227-.06.337-.01-.314-.025-.64.052-.943z"/><path fill="#a6b952" d="M17.519 23.24l.026.013c.006.055.006.11.004.166l-.009.122c-.032-.097-.02-.202-.021-.301z"/><path fill="#a1cb2f" d="M15.055 23.554a.859.859 0 01.012-.255c.034.163.08.324.13.483.06.032-.021-.13.05-.106.003.06.026.127-.023.175.053.206.1.414.167.616.007.037.056.035.082.054-.08-.01-.057.08-.038.126l.031.085.01.079c-.128-.033-.288.017-.399-.06-.015-.399.026-.801-.022-1.197z"/><path fill="#d7ddae" d="M17.549 23.42c.063.024.015.158.027.227l-.027-.001a4.11 4.11 0 00-.009-.105l.009-.122z"/><path fill="#9fbb26" d="M11.463 23.475h.027c-.032.158.152.175.251.238.056.104.1.214.128.329a1.263 1.263 0 01-.012.138 2.333 2.333 0 00-.022.233c-.066 0-.134 0-.19.037-.031.088-.03.181-.035.274l-.002.02c-.022.057-.037.118-.064.174a1.68 1.68 0 01-.274.037 4.757 4.757 0 01-.036-.38c.032.027.052.071.092.088.073-.02.146-.043.22-.06a1.66 1.66 0 00.092-.415c-.123.016-.28-.052-.379.05.028-.131.036-.268.061-.395-.108.196.222.327.29.146.101-.131-.1-.305-.228-.229.022-.096.037-.195.08-.285z"/><path fill="#89ad18" d="M16.304 23.5c.015.087.078.13.155.155.107.28.106.586.158.878l-.033-.001c-.039-.119-.05-.244-.09-.362-.148.057-.092-.183-.19-.246-.015-.141 0-.284 0-.425z"/><path fill="#b4d45a" d="M15.055 23.554c.048.396.007.798.022 1.197l-.027.005-.003-.056v-.056l-.002-.053c.001-.11.004-.216.002-.324v-.109c.005-.192-.008-.383.005-.574l.003-.03z"/><path fill="#819e18" d="M17.503 23.663l.046.008c0 .088-.01.182.017.269.017.072.041.142.041.217.007.123.02.245.025.368-.19.003-.378.003-.567.002l.007-.078c.031-.11.058-.222.058-.337.042-.015.111-.001.11-.065.032-.16.161-.267.263-.384z"/><path fill="#a7ba59" d="M17.55 23.646l.026.001c.002.096.009.197-.01.293-.027-.087-.016-.181-.017-.27v-.024z"/><path fill="#f8faf2" d="M11.382 23.76c.128-.076.33.098.229.23-.069.18-.4.05-.29-.147.018-.03.04-.055.061-.083z"/><path fill="#f5f8ef" d="M10.87 23.905c.024-.106.116-.173.224-.14l.092.058c.01.044.02.087.022.132a.671.671 0 01-.136.156c-.097-.025-.2-.097-.201-.206z"/><path fill="#a7cf39" d="M17.888 24.303c.103-.182.187-.383.316-.546-.048.266-.175.518-.247.78-.03.083-.044.174-.1.244a2.13 2.13 0 01-.226.001.185.185 0 01.038-.08c.023-.036.043-.074.061-.112.048-.098.114-.187.158-.287z"/><path fill="#80a316" d="M16.304 23.924c.098.063.042.303.19.246.04.118.051.243.09.362a48.88 48.88 0 00-.204-.005c-.058-.195-.044-.404-.076-.603z"/><path fill="#80a619" d="M11.072 24.111a.671.671 0 00.136-.156c.004.1.012.199.03.297 0 .107 0 .215-.004.323-.036.154-.027.313.004.467a.607.607 0 00-.088-.088c-.07-.223.026-.47-.046-.687a.401.401 0 00-.116-.13.9.9 0 00.084-.026z"/><path fill="#a8cf3c" d="M14.193 24.014c.096.052.142.163.223.235.064.071.12.148.178.224-.17.076-.207-.085-.277-.182-.042-.092-.102-.178-.124-.277z"/><path fill="#abd142" d="M18.752 24.14l.02-.012a2.295 2.295 0 01-.176.397l-.196.002c.084-.154.226-.267.352-.387z"/><path fill="#f4f5f2" d="M14.416 24.25c.214.055.415-.107.631-.092v.053a.66.66 0 00-.283.09c-.056.035-.137.085-.111.164.108.1.253.145.393.18l.001.055c-.27-.05-.546-.108-.793-.233-.01-.062.003-.146.063-.176.07.097.106.258.277.182-.058-.076-.114-.153-.178-.224z"/><path fill="#e1e3db" d="M17.607 24.157c.055-.004 0 .091.057.087.075.02.15.034.224.06-.044.099-.11.188-.158.286.006-.073-.05-.053-.097-.042v-.023c-.005-.123-.019-.245-.026-.368z"/><path fill="#a5c326" d="M11.26 24.237c.098-.1.255-.033.378-.05a1.7 1.7 0 01-.091.416c-.075.017-.148.04-.221.06-.04-.017-.06-.061-.092-.088.003-.108.005-.216.005-.323l.02-.015z"/><path fill="#cbda8a" d="M11.835 24.413c.003-.077.01-.158.022-.233.003.096.019.198-.001.295h-.017l-.004-.062z"/><path fill="#ececec" d="M14.764 24.301a.66.66 0 01.283-.09v.056c-.09.007-.18.052-.197.147.023.095.106.153.195.177l.001.053c-.14-.034-.285-.078-.393-.179-.026-.08.055-.129.111-.164z"/><path fill="#86b113" d="M11.104 24.267c.072.217-.023.464.046.687.004.13.002.262.008.393a.676.676 0 00-.17.007 4.53 4.53 0 00-.2-.035 2.912 2.912 0 01-.069-.215c.002-.09.008-.176.009-.263l.002-.256c.111 0 .222 0 .333-.004.052-.096.035-.21.041-.314z"/><path fill="#e1e1e1" d="M14.85 24.414c.017-.095.107-.14.197-.147.002.108 0 .215-.002.324-.089-.024-.172-.082-.195-.177z"/><path fill="#bedc6d" d="M10.444 24.356c.047.003.034.075.04.11l-.014.117c-.097.018-.006-.167-.026-.227z"/><path fill="#93ae21" d="M11.645 24.45c.056-.038.124-.037.19-.037 0 .016.003.046.004.062-.003.055-.004.11-.006.166-.08.002-.172.015-.223.083.005-.093.004-.186.035-.274z"/><path fill="#a3cc30" d="M10.47 24.583c.004-.04.009-.078.015-.117.09.208.143.43.234.638.02.072.044.144.07.215l.022.062.023.062.011.03a.663.663 0 01-.115.025c-.056 0-.113-.002-.17-.006l-.002-.027-.003-.051a9.343 9.343 0 00-.043-.41c-.012-.14-.044-.28-.042-.42z"/><path fill="#dae0b7" d="M11.84 24.475h.016a.336.336 0 010 .191l-.017-.002-.006-.023c.002-.056.003-.111.006-.166z"/><path fill="#d4e4a4" d="M10.71 24.492l.02.093-.002.256h-.029a2.232 2.232 0 01.01-.35z"/><path fill="#bcbeb9" d="M15.435 24.647c-.02-.047-.042-.136.038-.126l.039.056a1.934 1.934 0 00.584.066c.05.01.098.023.147.034l-.002.023c-.272.03-.536-.049-.806-.053z"/><path fill="#989e8f" d="M15.473 24.521c.049.008.098.017.146.027.085.017.17.036.254.052.046.01.094.012.14.016l.002.027a1.934 1.934 0 01-.503-.066l-.04-.056z"/><path fill="#62655c" d="M16.298 24.612c-.011-.065.015-.098.082-.085l.204.005.033.001c-.087.063-.2.037-.297.073l-.022.006z"/><path fill="#7d7e7a" d="M16.617 24.533c.075-.002.152-.002.228 0-.163.075-.348.09-.525.073.097-.036.21-.01.297-.073z"/><path fill="#989a93" d="M16.845 24.533c.056-.003.113-.002.17 0-.11.086-.255.058-.379.103l-.299.011-.008.025-.009.027-.08.001.003-.023c.038-.005.056-.026.055-.065l.022-.006c.177.016.362.002.525-.073z"/><path fill="#b2b4a6" d="M17.015 24.533l.024-.004.026-.002c.19.001.378.001.567-.002l.001.023-.106.016-.2-.002c-.224-.02-.43.095-.656.086l-.035-.012c.124-.045.27-.017.379-.103z"/><path fill="#eaebe9" d="M17.633 24.548c.047-.011.103-.031.097.042a1.064 1.064 0 01-.061.112l-.012-.059a9.815 9.815 0 01-2.19.09 1.456 1.456 0 01-.032-.086c.27.004.534.083.806.053l.08-.001c.199.004.399.003.595-.037a1.15 1.15 0 00.611-.098l.106-.016z"/><path fill="#a9d03f" d="M12.525 24.562l.024-.007c-.029.287-.104.568-.15.853l-.172-.004c.02-.073.05-.142.073-.213.069-.212.166-.414.225-.629z"/><path fill="#cbcbcb" d="M16.671 24.648c.225.009.432-.107.657-.086-.129.065-.273.076-.412.1a2.7 2.7 0 01-.596.037l.009-.027c.111-.015.234.017.342-.024z"/><path fill="#dcdcdc" d="M17.328 24.562l.2.002a1.15 1.15 0 01-.612.098c.14-.024.283-.035.412-.1z"/><path fill="#93b621" d="M11.238 25.042a1.082 1.082 0 01-.004-.467c.008.127.018.253.036.38a1.68 1.68 0 00.274-.037c.027-.056.042-.117.064-.175.021.12.018.24.027.36v.05c-.131.03-.262.061-.393.089l-.004-.2z"/><path fill="#85a11e" d="M11.61 24.724c.051-.068.143-.081.223-.083l.006.023c0 .097-.017.203.018.299l.006.107c-.04-.032-.082-.072-.137-.06-.034.028-.06.062-.091.093-.01-.12-.006-.24-.027-.36l.002-.019z"/><path fill="#b6b6b6" d="M16.337 24.647l.3-.01.034.01c-.108.042-.23.01-.342.025l.008-.025z"/><path fill="#c0cf87" d="M11.84 24.664l.017.002a1.18 1.18 0 010 .297c-.035-.096-.018-.202-.018-.3z"/><path fill="#a8cf3a" d="M12.895 24.905l.023-.01c-.004.099-.062.186-.065.285h-.14c.048-.1.115-.188.182-.275z"/><path fill="#acd147" d="M9.928 24.927c.103.046.143.163.226.234.047.04.151.143.026.15-.076-.043-.11-.125-.155-.195-.033-.062-.084-.118-.097-.19z"/><path fill="#6d970b" d="M11.15 24.954a.607.607 0 01.088.088l.004.2-.004.14-.057-.002a2.375 2.375 0 00-.023-.033c-.006-.131-.004-.263-.008-.393z"/><path fill="#b0bc87" d="M11.857 24.963c.066-.03.025.096.037.134l-.002.054-.008.066c-.016-.048-.018-.098-.021-.147a4.232 4.232 0 00-.006-.107z"/><path fill="#cbcec4" d="M10.512 25.003c.017.136.032.274.043.41-.095-.001-.2-.093-.163-.195.04-.039.117-.054.108-.122l.012-.093z"/><path fill="#78961d" d="M11.635 25.103c.03-.03.057-.065.09-.093.056-.012.098.028.138.06.003.049.005.1.021.147.012.044.027.087.036.131-.075.048-.17.052-.256.063a3.656 3.656 0 01-.03-.259v-.049z"/><path fill="#e3e3e2" d="M10.154 25.16c.117-.01.229-.056.346-.064.01.068-.069.083-.108.122-.037.102.068.194.163.196l.003.05c-.132-.032-.278-.051-.378-.154.125-.006.021-.11-.026-.15z"/><path fill="#dadbd8" d="M11.894 25.097c.134.028.286.022.406.094-.022.071-.054.14-.073.213-.288.06-.587.086-.881.083.106-.022.212-.048.32-.05.14-.02.318-.006.422-.12.033-.117-.114-.145-.196-.166l.002-.054z"/><path fill="#f4f5f4" d="M9.873 25.206c.058-.017.104-.055.152-.09.044.07.079.152.155.194.1.103.246.122.378.155l.002.027c-.177.024-.343-.05-.514-.083a.41.41 0 01-.252-.12c-.026-.056.039-.07.079-.083z"/><path fill="#89b022" d="M11.242 25.242c.131-.028.262-.06.393-.09.007.086.016.173.03.259l.002.025c-.109.003-.215.029-.321.051a.435.435 0 01-.105.006l-.002-.027v-.027l-.001-.028v-.03l.004-.14z"/><path fill="#c0c0be" d="M11.892 25.151c.082.021.229.05.196.166-.104.114-.282.1-.421.12l-.003-.026c.087-.01.181-.015.256-.063-.009-.044-.024-.087-.036-.131l.008-.066z"/><path fill="#727669" d="M10.788 25.319c.067.01.133.022.2.035a.23.23 0 00.193.026l.057.001v.03c-.144-.002-.285-.018-.427-.03l-.023-.062z"/><path fill="#5b5e51" d="M10.988 25.354a.676.676 0 01.17-.007l.023.033a.23.23 0 01-.193-.026z"/><path fill="#959691" d="M10.81 25.38c.143.013.284.029.428.03v.029c-.13.018-.282-.042-.404.004l-.023-.062z"/><path fill="#bcbcbc" d="M10.834 25.443c.122-.046.274.014.404-.004l.001.027c-.131 0-.263-.003-.394.006l-.011-.03z"/><path fill="#dde0d3" d="M10.845 25.472c.131-.009.263-.006.394-.006l.002.027c-.172 0-.345-.003-.515.03l.004-.025a.663.663 0 00.115-.026z"/></g></svg>