<?xml version="1.0" encoding="UTF-8"?>
<svg width="32px" height="32px" viewBox="0 0 32 32" version="1.1" xmlns="http://www.w3.org/2000/svg" xmlns:xlink="http://www.w3.org/1999/xlink">
    <!-- Generator: Sketch 49.1 (51147) - http://www.bohemiancoding.com/sketch -->
    <title>typescript</title>
    <desc>Created with Sketch.</desc>
    <defs></defs>
    <g id="typescript" stroke="none" stroke-width="1" fill="none" fill-rule="evenodd">
        <path d="M15.36989,10.0616713 L10.5999571,10.0616713 L10.5999571,24.3265734 L7.22497856,24.3265734 L7.22497856,10.0616713 L2.5,10.0616713 L2.5,7.40669419 L15.36989,7.40669419 L15.36989,10.0616713 Z M25.9898371,20.8615813 C26.0800171,20.6215837 26.1251072,20.3365911 26.1251072,20.0066034 C26.1251072,19.6466049 26.0651539,19.3466068 25.9452472,19.1066092 C25.8253406,18.8665972 25.6453378,18.6565956 25.4052387,18.4766042 C25.1952091,18.2365922 24.8952139,18.0415946 24.505253,17.8916113 C24.1152634,17.7116199 23.6352582,17.516623 23.0652372,17.3066206 C22.0752572,17.0066168 21.1902777,16.6916204 20.4102987,16.3616313 C19.6602749,16.0016342 19.0002739,15.6116339 18.4302958,15.1916306 C17.950312,14.8016354 17.5753216,14.3516411 17.3053244,13.8416477 C17.0652253,13.3016492 16.9451758,12.6866518 16.9451758,11.9966556 C16.9451758,11.2766613 17.080253,10.6466663 17.3504073,10.1066706 C17.650374,9.56667347 18.1003668,9.08667823 18.7003859,8.6666849 C19.3003906,8.21668776 19.9753835,7.9016899 20.7253644,7.72169133 C21.4753597,7.51170324 22.3003501,7.4067092 23.2003359,7.4067092 C24.1303482,7.4067092 24.9703449,7.54170777 25.7203258,7.81170491 C26.4703068,8.05171253 27.1153016,8.42671015 27.6553101,8.93669776 C28.1952901,9.44669252 28.615292,10.0166878 28.9153158,10.6466835 C29.2153111,11.2466797 29.3653087,11.8916759 29.3653087,12.581672 L26.1252572,12.581672 C26.1252572,12.1616744 26.0502835,11.8016773 25.9003359,11.5016806 C25.7804292,11.2016797 25.5854345,10.8866811 25.3153516,10.5566849 C25.0452115,10.3466968 24.7152182,10.1816987 24.3253716,10.0616906 C23.9653802,9.94169824 23.5453783,9.88170205 23.0653659,9.88170205 C22.6153659,9.88170205 22.2253763,9.92670634 21.8953973,10.0167149 C21.5653897,10.1067235 21.2503883,10.2567218 20.950393,10.4667099 C20.6503692,10.676698 20.4553673,10.9166956 20.3653873,11.1867028 C20.3052196,11.4567013 20.2751358,11.7266999 20.2751358,11.9966985 C20.2751358,12.2666956 20.3350891,12.5216937 20.4549957,12.7616928 C20.6049576,12.9716823 20.8299576,13.1816854 21.1299957,13.3917021 C21.3700805,13.6317125 21.71508,13.8417078 22.1649943,14.0216878 C22.6449781,14.1716968 23.2299767,14.3516954 23.91999,14.5616835 C24.8199757,14.8316792 25.6149538,15.1466756 26.3049243,15.5066728 C26.9949376,15.8366732 27.5949495,16.2116759 28.10496,16.6316806 C28.6149419,17.0516711 28.9749405,17.5466661 29.1849557,18.1166656 C29.3949852,18.6566556 29.5,19.2866477 29.5,20.006642 C29.5,20.6966411 29.36493,21.3416387 29.0947899,21.9416349 C28.82495,22.5416311 28.4049624,23.006623 27.8348271,23.3366106 C27.2648204,23.7566139 26.5898275,24.0716168 25.8098485,24.2816192 C25.0598247,24.4916073 24.2348199,24.5966013 23.3348342,24.5966013 C22.4348342,24.5966013 21.5648466,24.4916073 20.7248714,24.2816192 C19.9148657,24.0416073 19.1948685,23.6816094 18.56488,23.2016256 C17.9648752,22.7216289 17.469878,22.1516294 17.0798885,21.491627 C16.7198971,20.8316389 16.5699066,20.0666489 16.6299171,19.196657 L19.8248428,19.196657 C19.8248428,19.6466585 19.8998237,20.0516513 20.0497856,20.4116356 C20.1997475,20.7716327 20.4547528,21.1016339 20.8148013,21.4016392 C21.1147823,21.6116273 21.4747809,21.7766275 21.8947971,21.8966399 C22.3447971,22.0166323 22.8247809,22.0766284 23.3347485,22.0766284 C23.8447447,22.0766284 24.2647537,22.0316313 24.5947756,21.941637 C24.954767,21.8516427 25.224757,21.7166449 25.4047456,21.5366435 C25.7047408,21.3266554 25.8997428,21.1016554 25.9897513,20.8616435 L25.9898371,20.8615813 Z" id="path75" fill="#444444" fill-rule="nonzero"></path>
    </g>
</svg>