<svg xmlns="http://www.w3.org/2000/svg" viewBox="0 0 32 32"><path d="M17.2 12.8c.9 0 1.7.1 2.5.3.2.1.3.1.5.2 1.2.6 1.3 1.7.9 2.6-.2.6-.7 1-1.1 1.4-.8.7-1.7 1.2-2.6 1.8-.7.5-1.5.9-2.1 1.5-.2.2-.3.4-.5.6-.2.3-.2.7-.1 1 .3.6.9 1.1 1.6 1.3.8.2 1.4-.3 1.5-1.1V22c0-.3.1-.5.3-.7.3-.2.7-.4 1.1-.5.5-.1 1.1-.2 1.6-.1.1 0 .2 0 .3.1.5.2.6.5.5 1-.3 1.2-.9 2.1-1.8 2.9-.8.7-1.7 1.1-2.7 1.2-.8.1-1.6 0-2.4-.3-2.6-1-4.4-2.9-5.3-5.6-.6-2 0-3.8 1.6-5.1 1.1-1 2.5-1.5 3.9-1.8.4-.1.8-.2 1.2-.2.5-.1.9-.1 1.1-.1zm1.3-2.9c.1-1.4.7-2.7 2.1-3.5.8-.4 1.6-.5 2.4-.3.9.2 1.2.7 1.1 1.6-.1.6-.4 1.1-.7 1.5-.6.8-1.2 1.6-2.1 2.1-.4.3-.8.5-1.3.6-.6.1-1.1-.1-1.3-.7-.1-.3-.2-.7-.2-1.3zm-1.4-1.7c0 .9-.2 1.7-.7 2.4-.1.2-.2.3-.4.4-.3.3-.7.3-1 0-.3-.3-.4-.6-.5-.9-.2-.7-.3-1.4-.1-2.2.2-.7.7-1.1 1.5-1.1.5 0 .9.2 1 .6.1.1.1.2.1.3 0 .2 0 .3.1.5zM13 10.3c0 .5 0 1-.3 1.4-.2.5-.6.6-1.1.2-.6-.5-.9-1.1-1-1.8v-.7c.1-.6.6-1.1 1.2-1.1.3 0 .6.1.8.4.3.4.4.8.4 1.3v.3zm-2.8 2.9c0 .2-.1.5-.2.7-.1.3-.3.4-.6.3-.1 0-.1 0-.2-.1-.8-.3-1.4-1.4-1.4-2.2 0-.5.4-.9.8-1.1.3-.1.6 0 .9.3.4.4.5 1 .6 1.5.1.3.1.4.1.6z"/></svg>