<svg version="1.1" viewBox="0 0 512 512" xmlns="http://www.w3.org/2000/svg"><path d="m252 87.3a2.69 2.69 0 0 0-1.28 0.277c-21.9 13.5-54 32.3-61.6 55.2-2.37 7.61-1.32 10.4-0.0293 16.6 2.15 7.38 6.63 17.1 11.6 25.1 3.23 5.21 13.9 19 14.7 19 14.8-9.36 30.5-20.2 42.4-31.9v-39.4c0-33.3-0.35-39.9-2.25-42.6-0.715-1.36-2.22-2.24-3.59-2.26zm-68.6 66.3c-0.776 0.016-2 2.94-2.72 6.5-1.87 9.23-10.2 42.1-13.9 54.9-3 10.4-4.06 21.5-2.32 24.3 1.29 2.08 23.1 9.98 54.3 19.7 15.2 4.7 17.5 4.6 20.6-0.762 4.65-8.17 5.38-6.75-23.8-46.6-23-31.5-26.1-36.8-29.2-50.8-0.885-3.98-2.25-7.21-3.03-7.2zm159 9.65a28.4 28.4 0 0 0-3.74 0.197c-9.36 1.08-43.2 3.33-56.5 3.77-10.8 0.357-21.7 2.8-23.9 5.32-1.58 1.87-2.35 25.1-1.9 57.8 0.217 15.9 1.05 18.1 7.1 19.4 9.21 1.9 8.09 3.03 37-37 22.8-31.6 26.9-36.2 39.3-43.5 3.51-2.07 6.17-4.37 5.91-5.1-0.16-0.459-1.45-0.731-3.28-0.77zm15.3 2.94c-7.97 0.095-10.3 1.96-15.8 5.09-6.36 4.32-14.2 11.6-20.3 18.8-3.96 4.68-13.7 19.1-13.5 19.8 13.5 11.1 28.6 22.8 43.4 30.5l37.5-12.2c31.7-10.3 37.8-12.7 39.8-15.3 1.08-1.1 1.45-2.8 1.05-4.11a2.72 2.72 0 0 0-0.662-1.14c-19.6-16.7-47.4-41.4-71.6-41.5zm-271 49.6c-0.737 0-1.3 0.0843-1.8 0.236-1.52 0.26-2.82 1.43-3.26 2.72-0.148 0.43-0.209 0.869-0.141 1.3 6.05 25 14 61.3 33.5 75.6 6.5 4.61 9.51 4.48 15.7 5.15 7.68 0.24 18.3-1.04 27.5-3.3 5.95-1.46 22.3-7.34 22.6-8.1-4.35-16.9-9.76-35.3-17.2-50.2l-37.5-12.2c-26.7-8.68-35.4-11.3-39.4-11.3zm264 25.6c-4.43-0.018-25.8 6.26-54.9 16.1-15 5.11-16.9 6.59-16.2 12.7 1.04 9.34-0.377 8.62 46.7 23.7 37.1 11.9 42.7 14.4 53.5 24 3.05 2.7 6.05 4.51 6.67 4.04 0.618-0.47-0.11-3.56-1.62-6.86-3.92-8.57-16.5-40.1-21.1-52.6-3.68-10.2-9.36-19.8-12.4-21.1-0.142-0.057-0.367-0.0869-0.662-0.0879zm-118 37.6c-5.47-0.013-16.2 3.62-44.1 12.8-37 12.2-43 13.4-57.4 12.1-4.06-0.387-7.55-0.0926-7.78 0.65-0.224 0.744 2.18 2.81 5.35 4.6 8.2 4.63 36.9 22.7 47.9 30.2 8.95 6.06 19.2 10.5 22.4 9.73 2.38-0.58 16.6-18.9 35.5-45.6 9.15-13 9.8-15.3 5.64-19.8-2.57-2.82-3.84-4.54-7.58-4.54zm35.9 11.4v0.00195c-1.13 0.034-2.3 0.429-3.71 1.07-8.57 3.88-8.32 2.3-8.13 51.7 0.146 39-0.511 45.1-6.25 58.3-1.62 3.74-2.43 7.15-1.79 7.59 0.638 0.442 3.35-1.2 6.03-3.66 6.94-6.37 33-28.1 43.5-36.3 8.53-6.64 15.9-15 16.2-18.3 0.183-2.44-12.8-21.7-32.4-47.8-7.13-9.53-10-12.7-13.4-12.6zm62.7 10.1c-0.0507 0.00968-0.0887 0.0155-0.109 0.0293-6.43 16.2-12.8 34.3-15.6 50.7l23.1 31.9c19.6 26.9 23.7 32.1 26.9 33.1 1.38 0.682 3.11 0.508 4.23-0.277a2.72 2.72 0 0 0 0.881-0.977c9.83-23.8 24.7-57.8 17.3-80.9-2.55-7.55-5.06-9.22-9.71-13.4-6.07-4.71-15.4-9.9-24.2-13.5-5.5-2.24-21.3-6.88-22.9-6.74h-0.00195zm-106 48.5c-9.02 0.0431-17.9 0.539-26.2 1.79l-23.2 31.9c-19.6 26.9-23.2 32.5-23.2 35.8-0.222 1.52 0.48 3.11 1.57 3.93 0.364 0.274 0.772 0.466 1.21 0.535 25.7 1.99 62.6 5.62 82.3-8.51 6.39-4.76 7.2-7.67 9.76-13.4 2.6-7.23 4.66-17.7 5.35-27.1 0.446-6.12-0.0922-23.5-0.74-24-8.72-0.547-17.9-0.951-26.9-0.908h-0.00196z"/></svg>
