<svg viewBox="0 0 512 512"><path d="M252.245 87.27a2.687 2.687 0 00-1.285.276c-21.947 13.49-53.976 32.266-61.563 55.249-2.373 7.61-1.323 10.427-.029 16.561 2.146 7.381 6.63 17.058 11.62 25.1 3.234 5.208 13.882 18.953 14.685 18.953 14.75-9.362 30.539-20.182 42.413-31.898v-39.379c0-33.305-.35-39.883-2.254-42.6-.715-1.363-2.221-2.241-3.587-2.263zm-68.639 66.305c-.776.016-1.998 2.942-2.717 6.503-1.866 9.233-10.172 42.115-13.864 54.902-2.998 10.381-4.059 21.53-2.322 24.339 1.287 2.082 23.115 9.977 54.349 19.655 15.156 4.696 17.55 4.603 20.603-.761 4.651-8.172 5.375-6.754-23.805-46.602-23.032-31.454-26.088-36.773-29.22-50.842-.885-3.975-2.247-7.21-3.024-7.194zm159.185 9.645a28.373 28.373 0 00-3.745.198c-9.359 1.078-43.192 3.334-56.494 3.774-10.8.357-21.738 2.797-23.874 5.317-1.583 1.867-2.345 25.063-1.898 57.758.217 15.866 1.05 18.113 7.096 19.359 9.209 1.898 8.086 3.028 36.967-37.037 22.797-31.625 26.907-36.174 39.32-43.5 3.506-2.07 6.165-4.365 5.909-5.098-.16-.459-1.452-.732-3.281-.771zm15.326 2.945c-7.971.095-10.326 1.963-15.761 5.089-6.357 4.322-14.182 11.573-20.287 18.805-3.955 4.684-13.727 19.059-13.479 19.822 13.461 11.135 28.628 22.813 43.44 30.485l37.452-12.174c31.675-10.292 37.817-12.657 39.813-15.307 1.076-1.102 1.45-2.805 1.048-4.11a2.72 2.72 0 00-.662-1.137c-19.612-16.704-47.361-41.36-71.564-41.473zM86.727 215.74c-.737 0-1.304.085-1.8.237-1.517.26-2.818 1.426-3.26 2.718-.148.43-.207.87-.139 1.304 6.048 25.042 14.006 61.307 33.52 75.625 6.504 4.608 9.507 4.483 15.74 5.148 7.684.24 18.272-1.038 27.462-3.3 5.953-1.465 22.322-7.34 22.57-8.103-4.346-16.92-9.76-35.286-17.234-50.2l-37.452-12.164C99.41 218.323 90.7 215.75 86.726 215.741zm264.019 25.584c-4.43-.018-25.841 6.256-54.864 16.127-15.022 5.11-16.899 6.594-16.216 12.728 1.04 9.345-.377 8.62 46.652 23.706 37.122 11.908 42.717 14.422 53.52 23.963 3.052 2.696 6.051 4.512 6.67 4.042.618-.47-.11-3.555-1.621-6.858-3.918-8.567-16.53-40.056-21.058-52.57-3.677-10.161-9.365-19.797-12.421-21.05-.142-.057-.367-.087-.662-.088zm-117.978 37.62c-5.473-.013-16.236 3.62-44.092 12.786-37.032 12.186-43.036 13.445-57.383 12.076-4.055-.387-7.553-.091-7.777.652-.224.744 2.181 2.81 5.346 4.595 8.205 4.628 36.906 22.686 47.926 30.15 8.947 6.058 19.222 10.516 22.431 9.733 2.379-.58 16.63-18.9 35.486-45.614 9.15-12.963 9.8-15.272 5.642-19.833-2.573-2.823-3.835-4.536-7.58-4.545zm35.88 11.354c-1.126.034-2.3.43-3.705 1.067-8.567 3.877-8.318 2.302-8.133 51.691.146 38.985-.51 45.09-6.245 58.312-1.62 3.736-2.427 7.147-1.789 7.59.638.442 3.353-1.199 6.028-3.657 6.937-6.373 32.976-28.101 43.48-36.276 8.527-6.636 15.939-15.026 16.186-18.32.183-2.442-12.832-21.66-32.412-47.848-7.126-9.53-10.032-12.663-13.41-12.56zm62.74 10.089c-.052.01-.089.015-.11.029-6.43 16.243-12.843 34.285-15.563 50.743l23.143 31.858c19.576 26.944 23.732 32.054 26.868 33.134 1.38.682 3.112.508 4.23-.277a2.72 2.72 0 00.88-.978c9.826-23.814 24.702-57.83 17.332-80.882-2.554-7.552-5.062-9.217-9.714-13.42-6.075-4.71-15.386-9.897-24.151-13.468-5.5-2.242-21.34-6.882-22.916-6.74zm-106.14 48.5c-9.025.043-17.93.538-26.177 1.788l-23.153 31.859c-19.576 26.944-23.154 32.474-23.212 35.791-.222 1.524.479 3.113 1.571 3.933.364.274.773.465 1.206.534 25.685 1.986 62.628 5.625 82.275-8.508 6.393-4.763 7.204-7.667 9.763-13.39 2.603-7.233 4.658-17.696 5.346-27.135.446-6.115-.092-23.492-.74-23.964-8.718-.547-17.855-.952-26.88-.909z"/></svg>