<svg xmlns="http://www.w3.org/2000/svg" viewBox="0 0 1200 1000"><path d="M846.4 813.2H353.6c-8.2 0-15-6.8-15-15v-595c0-8.2 6.8-15 15-15h492.7c8.2 0 15 6.8 15 15v595c.1 8.3-6.7 15-14.9 15z"/><g fill="#FFF"><path d="M589.5 186.8h20.9v380.3h-20.9z"/><path d="M594.7 210h61.6v20.8h-61.6zm0 43.4h61.6v20.8h-61.6zm0 43.4h61.6v20.8h-61.6zm0 43.4h61.6V361h-61.6zm0 44.1h61.6v20.8h-61.6zm0 43.4h61.6v20.8h-61.6zm0 43.4h61.6v20.8h-61.6zm0 43.4h61.6v20.8h-61.6z"/><path d="M542 230.2h61.6V251H542zm0 43.4h61.6v20.8H542zm0 43.3h61.6v20.8H542zm0 44.2h61.6v20.8H542zm0 43.4h61.6v20.8H542zm0 43.4h61.6v20.8H542zm0 43.4h61.6v20.8H542zm0-304.5h61.6v20.8H542zm0 347.8h61.6v20.8H542zm132.3 160.8c-3.5-26.4-8.8-52.7-13.3-79-.2-1-.5-1.9-.9-2.9-6.7-14.5-24.6-20.7-60-20.5-35.5-.3-53.4 6-60 20.5-.4.9-.8 1.9-.9 2.9-4.5 26.3-9.8 52.6-13.3 79-2.5 18.8 13.7 30.7 41.1 31.8 10.8.4 21.7-.3 32.5 0h1.2c10.8-.2 21.7.5 32.5 0 27.4-1.1 43.6-13 41.1-31.8zM601 666.2h-2c-19.6.1-33.2-9.9-33.6-24.7-.4-15.4 13.8-26.3 34-26v.1h1.2v-.1c20.2-.3 34.4 10.5 34 26-.4 14.8-14 24.8-33.6 24.7z"/></g></svg>