<svg width="24" height="24" version="1.1" viewBox="0 0 24 24" xmlns="http://www.w3.org/2000/svg"><path d="m3.75 3c-0.966 0-1.75 0.784-1.75 1.75v4.74c0 1 1.5 1 1.5 0v-4.74c0-0.138 0.112-0.25 0.25-0.25h4.97c0.0828 2.38e-4 0.16 0.0411 0.207 0.109l1.4 2.06c0.326 0.479 0.868 0.766 1.45 0.766h8.47c0.138 0 0.25 0.112 0.25 0.25v11.6c0 0.138-0.112 0.25-0.25 0.25h-13.5c-1 0-1 1.5 0 1.5h13.5c0.966 0 1.75-0.784 1.75-1.75v-11.6c0-0.967-0.784-1.75-1.75-1.75h-8.47c-0.083 0-0.161-0.0404-0.207-0.109l-1.4-2.06c-0.327-0.479-0.867-0.766-1.45-0.766zm5.95 5.99c-0.0441 0.00229-0.0877 0.00751-0.131 0.0176-0.569 0.132-0.775 0.835-0.369 1.25l2.11 2.24h-5.22c-2.26 8.6e-5 -4.09 1.83-4.09 4.09v3.16c0 1 1.5 1 1.5 0v-3.16c8.6e-5 -1.43 1.16-2.59 2.59-2.59h5.22l-2.11 2.24c-0.188 0.194-0.258 0.475-0.182 0.734 0.164 0.564 0.882 0.729 1.28 0.293l3.29-3.5c0.271-0.289 0.271-0.739 0-1.03l-3.29-3.5c-0.12-0.133-0.284-0.218-0.461-0.24-0.044-0.00555-0.0887-0.00619-0.133-0.00391z"/></svg>
