<?xml version="1.0" encoding="UTF-8" standalone="no"?>
<svg
   version="1.1"
   id="svg2"
   viewBox="0 0 313.25017 108.15499"
   height="30.523741mm"
   width="88.406158mm"
   sodipodi:docname="0xProto Nerd Font.svg"
   xmlns:inkscape="http://www.inkscape.org/namespaces/inkscape"
   xmlns:sodipodi="http://sodipodi.sourceforge.net/DTD/sodipodi-0.dtd"
   xmlns="http://www.w3.org/2000/svg"
   xmlns:svg="http://www.w3.org/2000/svg"
   xmlns:rdf="http://www.w3.org/1999/02/22-rdf-syntax-ns#"
   xmlns:cc="http://creativecommons.org/ns#"
   xmlns:dc="http://purl.org/dc/elements/1.1/">
  <sodipodi:namedview
     id="namedview12"
     pagecolor="#ffffff"
     bordercolor="#666666"
     borderopacity="1.0"
     inkscape:showpageshadow="2"
     inkscape:pageopacity="0.0"
     inkscape:pagecheckerboard="0"
     inkscape:deskcolor="#d1d1d1"
     inkscape:document-units="mm" />
  <defs
     id="defs4" />
  <metadata
     id="metadata7">
    <rdf:RDF>
      <cc:Work
         rdf:about="">
        <dc:format>image/svg+xml</dc:format>
        <dc:type
           rdf:resource="http://purl.org/dc/dcmitype/StillImage" />
        <dc:title />
      </cc:Work>
    </rdf:RDF>
  </metadata>
  <g
     id="layer1"
     transform="translate(-64.369643,-80.308632)">
    <g
       aria-label="0xProto Nerd Font"
       id="text4136"
       style="font-size:27.5px;font-family:'0xProto Nerd Font';letter-spacing:0px;word-spacing:0px;fill:#ffffff">
      <path
         d="M 71.437143,101.37363 Q 69.402143,101.37363 68.027143,100.60363 66.679643,99.833632 65.854643,98.458632 65.057143,97.083632 64.699643,95.213632 64.369643,93.343632 64.369643,91.171132 64.369643,88.971132 64.699643,87.128632 65.057143,85.258632 65.854643,83.883632 66.679643,82.508632 68.027143,81.738632 69.402143,80.968632 71.437143,80.968632 73.472143,80.968632 74.819643,81.738632 76.167143,82.508632 76.937143,83.883632 77.734643,85.258632 78.064643,87.128632 78.394643,88.971132 78.394643,91.171132 78.394643,93.343632 78.064643,95.213632 77.734643,97.083632 76.937143,98.458632 76.167143,99.833632 74.819643,100.60363 73.472143,101.37363 71.437143,101.37363 Z M 67.064643,91.143632 Q 67.064643,92.546132 67.147143,93.783632 67.257143,94.993632 67.559643,95.983632 L 74.242143,84.433632 Q 73.774643,83.938632 73.087143,83.691132 72.399643,83.416132 71.437143,83.416132 70.007143,83.416132 69.127143,83.993632 68.247143,84.571132 67.807143,85.643632 67.367143,86.688632 67.202143,88.091132 67.064643,89.493632 67.064643,91.143632 Z M 71.437143,98.926132 Q 72.894643,98.926132 73.747143,98.348632 74.599643,97.743632 75.012143,96.698632 75.424643,95.626132 75.562143,94.223632 75.699643,92.793632 75.699643,91.143632 75.699643,89.796132 75.617143,88.586132 75.534643,87.376132 75.287143,86.413632 L 68.632143,97.936132 Q 69.099643,98.403632 69.787143,98.678632 70.502143,98.926132 71.437143,98.926132 Z"
         id="path14" />
      <path
         d="M 82.134666,100.93363 V 100.65863 L 86.727166,93.261132 82.272166,86.083632 V 85.808632 H 85.104666 L 88.404666,91.253632 91.759666,85.808632 H 94.592166 V 86.083632 L 90.082166,93.261132 94.729666,100.65863 V 100.93363 H 91.897166 L 88.404666,95.268632 84.967166,100.93363 Z"
         id="path16" />
      <path
         d="M 98.662188,81.408632 H 106.16969 Q 109.52469,81.408632 111.06469,83.086132 112.63219,84.763632 112.63219,87.568632 112.63219,90.373632 111.03719,92.051132 109.44219,93.728632 106.16969,93.728632 H 101.35719 V 100.93363 H 98.662188 Z M 106.16969,83.828632 H 101.35719 V 91.308632 H 106.16969 Q 108.12219,91.308632 109.05719,90.236132 109.99219,89.163632 109.99219,87.568632 109.99219,85.863632 109.05719,84.846132 108.12219,83.828632 106.16969,83.828632 Z"
         id="path18" />
      <path
         d="M 115.84971,98.513632 H 118.92971 V 87.623632 L 116.42721,87.183632 V 85.588632 H 121.26721 L 121.54221,87.596132 Q 122.53221,86.688632 123.63221,86.028632 124.75971,85.341132 126.02471,85.368632 127.20721,85.396132 128.22471,85.918632 129.24221,86.413632 129.76471,87.376132 L 127.83971,88.998632 Q 127.39971,88.448632 126.73971,88.173632 126.07971,87.898632 125.36471,87.898632 124.45721,87.898632 123.54971,88.531132 122.64221,89.163632 121.62471,90.153632 V 90.263632 98.513632 H 127.42721 V 100.93363 H 115.84971 Z"
         id="path20" />
      <path
         d="M 139.58223,101.37363 Q 137.40973,101.37363 135.89723,100.38363 134.38473,99.366132 133.61473,97.578632 132.84473,95.763632 132.84473,93.371132 132.84473,90.951132 133.61473,89.163632 134.38473,87.376132 135.89723,86.386132 137.40973,85.368632 139.58223,85.368632 141.78223,85.368632 143.26723,86.386132 144.77973,87.376132 145.54973,89.163632 146.31973,90.951132 146.31973,93.371132 146.31973,95.763632 145.54973,97.578632 144.77973,99.366132 143.26723,100.38363 141.78223,101.37363 139.58223,101.37363 Z M 139.58223,98.981132 Q 141.09473,98.981132 141.97473,98.266132 142.88223,97.523632 143.29473,96.258632 143.70723,94.966132 143.70723,93.371132 143.70723,91.748632 143.29473,90.511132 142.88223,89.246132 141.97473,88.531132 141.09473,87.788632 139.58223,87.788632 138.09723,87.788632 137.18973,88.531132 136.28223,89.246132 135.86973,90.511132 135.45723,91.748632 135.45723,93.371132 135.45723,94.966132 135.86973,96.258632 136.28223,97.523632 137.18973,98.266132 138.09723,98.981132 139.58223,98.981132 Z"
         id="path22" />
      <path
         d="M 150.05975,85.808632 H 154.29475 V 82.261132 H 156.98975 V 85.808632 H 162.65475 V 88.228632 H 156.98975 V 96.066132 Q 156.98975,96.616132 157.12725,97.193632 157.26475,97.743632 157.73225,98.101132 158.22725,98.458632 159.21725,98.458632 H 162.57225 V 100.93363 H 157.81475 Q 156.32975,100.93363 155.55975,100.24613 154.81725,99.531132 154.54225,98.431132 154.29475,97.303632 154.29475,96.066132 V 88.228632 H 150.05975 Z"
         id="path24" />
      <path
         d="M 173.68228,101.37363 Q 171.50978,101.37363 169.99728,100.38363 168.48478,99.366132 167.71478,97.578632 166.94478,95.763632 166.94478,93.371132 166.94478,90.951132 167.71478,89.163632 168.48478,87.376132 169.99728,86.386132 171.50978,85.368632 173.68228,85.368632 175.88228,85.368632 177.36728,86.386132 178.87978,87.376132 179.64978,89.163632 180.41978,90.951132 180.41978,93.371132 180.41978,95.763632 179.64978,97.578632 178.87978,99.366132 177.36728,100.38363 175.88228,101.37363 173.68228,101.37363 Z M 173.68228,98.981132 Q 175.19478,98.981132 176.07478,98.266132 176.98228,97.523632 177.39478,96.258632 177.80728,94.966132 177.80728,93.371132 177.80728,91.748632 177.39478,90.511132 176.98228,89.246132 176.07478,88.531132 175.19478,87.788632 173.68228,87.788632 172.19728,87.788632 171.28978,88.531132 170.38228,89.246132 169.96978,90.511132 169.55728,91.748632 169.55728,93.371132 169.55728,94.966132 169.96978,96.258632 170.38228,97.523632 171.28978,98.266132 172.19728,98.981132 173.68228,98.981132 Z"
         id="path26" />
      <path
         d="M 200.79732,81.408632 H 204.12482 L 212.07232,96.258632 V 81.408632 H 214.76732 V 100.93363 H 211.54982 L 203.49232,86.028632 V 100.93363 H 200.79732 Z"
         id="path28" />
      <path
         d="M 225.32734,101.37363 Q 223.15484,101.37363 221.47734,100.46613 219.79984,99.531132 218.83734,97.771132 217.90234,95.983632 217.90234,93.426132 217.90234,89.548632 219.79984,87.458632 221.69734,85.368632 224.91484,85.368632 226.92234,85.368632 228.29734,86.221132 229.67234,87.073632 230.44234,88.503632 231.21234,89.906132 231.37734,91.611132 231.54234,93.288632 231.07484,94.938632 H 220.59734 Q 220.78984,96.423632 221.50484,97.331132 222.21984,98.211132 223.29234,98.623632 224.36484,99.008632 225.60234,99.008632 226.23484,99.008632 227.38984,98.816132 228.54484,98.623632 229.91984,98.018632 L 230.82734,100.10863 Q 228.98484,100.96113 227.69234,101.15363 226.39984,101.37363 225.32734,101.37363 Z M 220.48734,92.601132 H 229.01234 Q 229.12234,91.308632 228.65484,90.236132 228.21484,89.136132 227.22484,88.476132 226.26234,87.788632 224.83234,87.788632 223.45734,87.788632 222.46734,88.476132 221.50484,89.136132 220.98234,90.236132 220.48734,91.308632 220.48734,92.601132 Z"
         id="path30" />
      <path
         d="M 235.19986,98.513632 H 238.27986 V 87.623632 L 235.77736,87.183632 V 85.588632 H 240.61736 L 240.89236,87.596132 Q 241.88236,86.688632 242.98236,86.028632 244.10986,85.341132 245.37486,85.368632 246.55736,85.396132 247.57486,85.918632 248.59236,86.413632 249.11486,87.376132 L 247.18986,88.998632 Q 246.74986,88.448632 246.08986,88.173632 245.42986,87.898632 244.71486,87.898632 243.80736,87.898632 242.89986,88.531132 241.99236,89.163632 240.97486,90.153632 V 90.263632 98.513632 H 246.77736 V 100.93363 H 235.19986 Z"
         id="path32" />
      <path
         d="M 264.26739,97.331132 Q 264.26739,98.843632 266.02739,98.926132 V 101.15363 Q 264.92739,101.20863 264.12989,101.01613 263.35989,100.85113 262.83739,100.43863 262.06739,100.85113 261.13239,101.12613 260.19739,101.40113 259.15239,101.40113 257.25489,101.40113 255.63239,100.41113 254.00989,99.393632 253.01989,97.606132 252.05739,95.791132 252.05739,93.426132 252.05739,90.896132 252.93739,89.163632 253.81739,87.403632 255.27489,86.496132 256.73239,85.588632 258.43739,85.588632 259.39989,85.588632 260.19739,85.918632 261.02239,86.221132 261.65489,86.771132 V 80.308632 H 264.26739 Z M 254.66989,93.426132 Q 254.66989,95.103632 255.24739,96.368632 255.85239,97.633632 256.86989,98.321132 257.88739,99.008632 259.15239,99.008632 260.60989,99.008632 261.65489,98.568632 V 89.163632 Q 261.18739,88.641132 260.47239,88.338632 259.75739,88.008632 258.98739,88.008632 256.75989,88.008632 255.71489,89.466132 254.66989,90.896132 254.66989,93.426132 Z"
         id="path34" />
      <path
         d="M 298.25743,89.851132 V 92.271132 H 289.73243 V 100.93363 H 287.03743 V 81.408632 H 299.46743 V 83.828632 H 289.73243 V 89.851132 Z"
         id="path36" />
      <path
         d="M 310.08246,101.37363 Q 307.90996,101.37363 306.39746,100.38363 304.88496,99.366132 304.11496,97.578632 303.34496,95.763632 303.34496,93.371132 303.34496,90.951132 304.11496,89.163632 304.88496,87.376132 306.39746,86.386132 307.90996,85.368632 310.08246,85.368632 312.28246,85.368632 313.76746,86.386132 315.27996,87.376132 316.04996,89.163632 316.81996,90.951132 316.81996,93.371132 316.81996,95.763632 316.04996,97.578632 315.27996,99.366132 313.76746,100.38363 312.28246,101.37363 310.08246,101.37363 Z M 310.08246,98.981132 Q 311.59496,98.981132 312.47496,98.266132 313.38246,97.523632 313.79496,96.258632 314.20746,94.966132 314.20746,93.371132 314.20746,91.748632 313.79496,90.511132 313.38246,89.246132 312.47496,88.531132 311.59496,87.788632 310.08246,87.788632 308.59746,87.788632 307.68996,88.531132 306.78246,89.246132 306.36996,90.511132 305.95746,91.748632 305.95746,93.371132 305.95746,94.966132 306.36996,96.258632 306.78246,97.523632 307.68996,98.266132 308.59746,98.981132 310.08246,98.981132 Z"
         id="path38" />
      <path
         d="M 320.99998,85.698632 H 323.36498 L 323.61248,87.541132 Q 324.82248,86.606132 326.33498,85.973632 327.84748,85.341132 329.24998,85.368632 330.29498,85.368632 331.20248,85.891132 332.10998,86.386132 332.65998,87.541132 333.20998,88.668632 333.20998,90.566132 V 100.93363 H 330.48748 V 91.006132 Q 330.48748,89.411132 329.93748,88.723632 329.41498,88.008632 328.31498,88.008632 327.35248,88.008632 326.19748,88.503632 325.06998,88.971132 323.63998,90.098632 V 100.93363 H 320.99998 Z"
         id="path40" />
      <path
         d="M 337.61,85.808632 H 341.845 V 82.261132 H 344.54 V 85.808632 H 350.205 V 88.228632 H 344.54 V 96.066132 Q 344.54,96.616132 344.6775,97.193632 344.815,97.743632 345.2825,98.101132 345.7775,98.458632 346.7675,98.458632 H 350.1225 V 100.93363 H 345.365 Q 343.88,100.93363 343.11,100.24613 342.3675,99.531132 342.0925,98.431132 341.845,97.303632 341.845,96.066132 V 88.228632 H 337.61 Z"
         id="path42" />
    </g>
    <g
       aria-label="abcdefghijklmnopqrstuvwxyzABCDEFGHIJKLMNOPQRSTUVWXYZ oO08 iIlL1 {} [] g9qCGQ ~-+=&gt;"
       id="text4140"
       style="font-size:17.5px;font-family:'0xProto Nerd Font';letter-spacing:0px;word-spacing:0px;fill:#ffffff">
      <path
         d="M 74.309403,138.64112 Q 74.309403,139.11362 74.501903,139.37612 74.711903,139.62112 75.271903,139.65612 V 141.07362 Q 74.256903,141.10862 73.714403,140.86362 73.189403,140.60112 72.926903,140.07612 72.489403,140.54862 71.771903,140.88112 71.054403,141.21362 69.881903,141.21362 69.146903,141.21362 68.394403,140.89862 67.641903,140.56612 67.134403,139.90112 66.644403,139.23612 66.644403,138.20362 66.644403,137.24112 67.046903,136.61112 67.466903,135.98112 68.131903,135.61362 68.814403,135.24612 69.601903,135.08862 70.406903,134.91362 71.176903,134.87862 71.964403,134.82612 72.594403,134.86112 V 134.61612 Q 72.594403,133.95112 72.454403,133.49612 72.331903,133.04112 71.894403,132.81362 71.474403,132.58612 70.546903,132.58612 70.004403,132.58612 69.269403,132.77862 68.534403,132.95362 67.764403,133.28612 L 66.941903,131.97362 Q 67.851903,131.51862 68.884403,131.27362 69.916903,131.02862 70.844403,131.02862 71.316903,131.02862 71.911903,131.11612 72.506903,131.18612 73.049403,131.44862 73.609403,131.69362 73.959403,132.23612 74.309403,132.77862 74.309403,133.70612 Z M 68.184403,138.11612 Q 68.184403,138.83362 68.744403,139.23612 69.321903,139.63862 70.039403,139.63862 71.124403,139.63862 71.701903,139.20112 72.296903,138.74612 72.594403,138.20362 V 136.24362 Q 71.894403,136.19112 71.124403,136.22612 70.354403,136.24362 69.689403,136.41862 69.024403,136.59362 68.604403,136.99612 68.184403,137.39862 68.184403,138.11612 Z"
         id="path45" />
      <path
         d="M 79.891918,141.07362 H 78.229418 V 129.10362 L 76.619418,128.82362 V 127.80862 H 79.891918 V 132.48112 Q 80.329418,131.88612 80.941918,131.53612 81.554418,131.16862 82.341918,131.16862 83.286918,131.16862 83.986918,131.58862 84.686918,131.99112 85.159418,132.70862 85.631918,133.42612 85.859418,134.31862 86.104418,135.21112 86.104418,136.19112 86.104418,137.50362 85.684418,138.65862 85.264418,139.79612 84.424418,140.51362 83.584418,141.21362 82.341918,141.21362 81.571918,141.21362 80.959418,140.86362 80.346918,140.51362 79.891918,139.93612 Z M 82.149418,139.69112 Q 82.796918,139.69112 83.234418,139.37612 83.689418,139.06112 83.951918,138.55362 84.214418,138.02862 84.336918,137.41612 84.459418,136.78612 84.459418,136.19112 84.459418,135.59612 84.336918,134.98362 84.214418,134.37112 83.951918,133.86362 83.689418,133.33862 83.234418,133.02362 82.796918,132.70862 82.149418,132.70862 81.361918,132.70862 80.784418,133.23362 80.206918,133.75862 79.891918,134.49362 V 137.97612 Q 80.206918,138.71112 80.784418,139.20112 81.361918,139.69112 82.149418,139.69112 Z"
         id="path47" />
      <path
         d="M 93.016932,141.21362 Q 90.794432,141.23112 89.534432,139.91862 88.274432,138.58862 88.274432,136.15612 88.274432,133.74112 89.481932,132.39362 90.706932,131.02862 92.876932,131.02862 94.031932,131.02862 94.941932,131.62362 95.869432,132.20112 96.341932,133.23362 L 95.011932,133.84612 Q 94.696932,133.23362 94.136932,132.90112 93.576932,132.56862 92.876932,132.56862 91.494432,132.56862 90.706932,133.51362 89.936932,134.45862 89.936932,136.15612 89.936932,137.81862 90.741932,138.76362 91.546932,139.69112 93.016932,139.69112 93.839432,139.69112 94.504432,139.39362 95.169432,139.09612 95.764432,138.60612 L 96.639432,139.84862 Q 95.939432,140.47862 94.994432,140.84612 94.066932,141.19612 93.016932,141.21362 Z"
         id="path49" />
      <path
         d="M 106.78945,138.64112 Q 106.78945,139.60362 107.90945,139.65612 V 141.07362 Q 107.20945,141.10862 106.70195,140.98612 106.21195,140.88112 105.87945,140.61862 105.38945,140.88112 104.79445,141.05612 104.19945,141.23112 103.53445,141.23112 102.32695,141.23112 101.29445,140.60112 100.26195,139.95362 99.631948,138.81612 99.019448,137.66112 99.019448,136.15612 99.019448,134.54612 99.579448,133.44362 100.13945,132.32362 101.06695,131.74612 101.99445,131.16862 103.07945,131.16862 103.69195,131.16862 104.19945,131.37862 104.72445,131.57112 105.12695,131.92112 V 127.80862 H 106.78945 Z M 100.68195,136.15612 Q 100.68195,137.22362 101.04945,138.02862 101.43445,138.83362 102.08195,139.27112 102.72945,139.70862 103.53445,139.70862 104.46195,139.70862 105.12695,139.42862 V 133.44362 Q 104.82945,133.11112 104.37445,132.91862 103.91945,132.70862 103.42945,132.70862 102.01195,132.70862 101.34695,133.63612 100.68195,134.54612 100.68195,136.15612 Z"
         id="path51" />
      <path
         d="M 114.55946,141.21362 Q 113.17696,141.21362 112.10946,140.63612 111.04196,140.04112 110.42946,138.92112 109.83446,137.78362 109.83446,136.15612 109.83446,133.68862 111.04196,132.35862 112.24946,131.02862 114.29696,131.02862 115.57446,131.02862 116.44946,131.57112 117.32446,132.11362 117.81446,133.02362 118.30446,133.91612 118.40946,135.00112 118.51446,136.06862 118.21696,137.11862 H 111.54946 Q 111.67196,138.06362 112.12696,138.64112 112.58196,139.20112 113.26446,139.46362 113.94696,139.70862 114.73446,139.70862 115.13696,139.70862 115.87196,139.58612 116.60696,139.46362 117.48196,139.07862 L 118.05946,140.40862 Q 116.88696,140.95112 116.06446,141.07362 115.24196,141.21362 114.55946,141.21362 Z M 111.47946,135.63112 H 116.90446 Q 116.97446,134.80862 116.67696,134.12612 116.39696,133.42612 115.76696,133.00612 115.15446,132.56862 114.24446,132.56862 113.36946,132.56862 112.73946,133.00612 112.12696,133.42612 111.79446,134.12612 111.47946,134.80862 111.47946,135.63112 Z"
         id="path53" />
      <path
         d="M 120.78948,132.37612 H 124.06198 V 130.36362 Q 124.06198,129.33112 124.39448,128.75362 124.74448,128.17612 125.25198,127.91362 125.75948,127.65112 126.26698,127.59862 126.79198,127.52862 127.14198,127.52862 127.96448,127.52862 128.78698,127.77362 129.62698,128.01862 130.34448,128.45612 L 129.59198,129.75112 Q 129.06698,129.43612 128.47198,129.26112 127.89448,129.06862 127.43948,129.06862 126.70448,129.06862 126.31948,129.31362 125.95198,129.54112 125.81198,129.99612 125.68948,130.45112 125.68948,131.11612 V 132.37612 H 129.06698 V 133.91612 H 125.68948 V 141.33612 Q 125.68948,142.12362 125.53198,142.82362 125.39198,143.54112 124.91948,143.97862 124.46448,144.43362 123.50198,144.43362 H 120.85948 V 142.85862 H 122.60948 Q 123.25698,142.85862 123.55448,142.63112 123.86948,142.40362 123.95698,142.03612 124.06198,141.68612 124.06198,141.33612 V 133.91612 H 120.78948 Z"
         id="path55" />
      <path
         d="M 132.75949,141.72112 Q 133.28449,142.63112 134.12449,142.94612 134.96449,143.26112 135.90949,143.26112 137.46699,143.26112 138.09699,142.77112 138.74449,142.28112 138.74449,141.58112 138.74449,141.07362 138.27199,140.75862 137.79949,140.42612 136.45199,140.42612 H 135.48949 Q 133.68699,140.42612 132.84699,139.90112 132.00699,139.35862 132.00699,138.67612 132.00699,138.23862 132.26949,137.94112 132.53199,137.64362 132.89949,137.45112 133.26699,137.25862 133.58199,137.18862 132.84699,136.80362 132.37449,136.12112 131.91949,135.42112 131.91949,134.49362 131.91949,133.49612 132.42699,132.70862 132.93449,131.92112 133.80949,131.48362 134.68449,131.02862 135.80449,131.02862 136.94199,131.02862 137.85199,131.51862 138.28949,131.39612 138.41199,130.88862 138.55199,130.38112 138.55199,129.71612 H 140.38949 Q 140.38949,130.78362 140.05699,131.43112 139.74199,132.07862 138.88449,132.32362 139.25199,132.76112 139.44449,133.32112 139.65449,133.86362 139.65449,134.49362 139.65449,135.64862 139.09449,136.34862 138.53449,137.04862 137.60699,137.38112 136.67949,137.69612 135.57699,137.74862 134.78949,137.78362 134.24699,137.94112 133.72199,138.09862 133.72199,138.41362 133.72199,138.65862 134.03699,138.78112 134.35199,138.88612 134.80699,138.92112 135.27949,138.93862 135.75199,138.93862 H 136.27699 Q 138.46449,138.93862 139.42699,139.65612 140.38949,140.35612 140.38949,141.51112 140.38949,142.91112 139.28699,143.80362 138.18449,144.71362 135.94449,144.71362 134.42199,144.71362 133.26699,144.17112 132.12949,143.64612 131.46449,142.42112 Z M 135.80449,136.29612 Q 136.87199,136.29612 137.43199,135.82362 137.99199,135.35112 137.97449,134.49362 137.97449,134.00362 137.71199,133.56612 137.46699,133.12862 136.97699,132.84862 136.50449,132.55112 135.80449,132.55112 135.10449,132.55112 134.61449,132.84862 134.12449,133.12862 133.86199,133.56612 133.61699,134.00362 133.59949,134.49362 133.58199,135.35112 134.19449,135.82362 134.80699,136.29612 135.80449,136.29612 Z"
         id="path57" />
      <path
         d="M 141.75451,127.80862 H 145.02701 V 132.62112 Q 145.76201,132.11362 146.61951,131.76362 147.49451,131.39612 148.35201,131.41362 149.06951,131.41362 149.62951,131.71112 150.20701,132.00862 150.53951,132.69112 150.88951,133.37362 150.88951,134.54612 V 140.93362 H 149.15701 V 135.00112 Q 149.15701,133.98612 148.80701,133.54862 148.47451,133.11112 147.77451,133.11112 147.19701,133.11112 146.51451,133.37362 145.84951,133.63612 145.02701,134.24862 V 140.93362 H 143.36451 V 129.10362 L 141.75451,128.82362 Z"
         id="path59" />
      <path
         d="M 157.55702,130.32862 Q 156.99702,130.32862 156.57702,129.92612 156.15702,129.52362 156.15702,128.92862 156.15702,128.35112 156.57702,127.94862 156.99702,127.52862 157.55702,127.52862 158.15202,127.52862 158.55452,127.94862 158.95702,128.35112 158.95702,128.92862 158.95702,129.52362 158.55452,129.92612 158.15202,130.32862 157.55702,130.32862 Z M 153.88202,139.39362 H 157.18952 V 133.56612 H 154.82702 V 132.02612 H 158.90452 V 139.39362 H 161.72202 V 140.93362 H 153.88202 Z"
         id="path61" />
      <path
         d="M 169.15953,130.32862 Q 168.59953,130.32862 168.17953,129.92612 167.75953,129.52362 167.75953,128.92862 167.75953,128.35112 168.17953,127.94862 168.59953,127.52862 169.15953,127.52862 169.75453,127.52862 170.15703,127.94862 170.55953,128.35112 170.55953,128.92862 170.55953,129.52362 170.15703,129.92612 169.75453,130.32862 169.15953,130.32862 Z M 171.20703,140.81112 Q 171.20703,141.70362 171.13703,142.36862 171.06703,143.05112 170.80453,143.50612 170.55953,143.97862 169.99953,144.20612 169.43953,144.43362 168.44203,144.43362 H 164.52203 V 142.85862 H 168.07453 Q 168.75703,142.85862 169.05453,142.64862 169.35203,142.43862 169.42203,141.98362 169.49203,141.52862 169.49203,140.81112 V 133.49612 H 165.53703 V 131.95612 H 171.20703 Z"
         id="path63" />
      <path
         d="M 182.03955,140.93362 178.41705,136.57612 177.29705,137.76612 V 140.93362 H 175.58205 V 127.80862 H 177.29705 V 135.47362 L 181.23455,131.30862 H 183.22955 V 131.48362 L 179.48455,135.43862 183.98205,140.75862 V 140.93362 Z"
         id="path65" />
      <path
         d="M 188.47956,137.83612 V 129.17362 L 186.39706,128.80612 V 127.80862 H 190.19456 V 137.83612 Q 190.19456,138.18612 190.28206,138.55362 190.36956,138.90362 190.66706,139.13112 190.98206,139.35862 191.61206,139.35862 H 193.67706 V 140.93362 H 190.75456 Q 189.79206,140.93362 189.30206,140.49612 188.81206,140.04112 188.63706,139.34112 188.47956,138.62362 188.47956,137.83612 Z"
         id="path67" />
      <path
         d="M 196.24958,131.23862 H 197.68458 L 197.80708,132.14862 Q 198.27958,131.64112 198.83958,131.34362 199.41708,131.02862 199.95958,131.02862 200.55458,131.02862 201.00958,131.34362 201.48208,131.64112 201.70958,132.18362 202.16458,131.69362 202.75958,131.36112 203.37208,131.02862 203.91458,131.02862 204.73708,131.02862 205.27958,131.57112 205.82208,132.09612 205.87458,133.05862 205.97958,134.96612 205.96208,136.96112 205.96208,138.93862 205.83958,140.93362 H 204.14208 Q 204.21208,139.69112 204.26458,138.39612 204.31708,137.08362 204.31708,135.85862 204.33458,134.61612 204.26458,133.61862 204.22958,133.05862 204.08958,132.72612 203.96708,132.37612 203.40708,132.37612 202.95208,132.37612 202.56708,132.65612 202.18208,132.93612 201.86708,133.28612 L 201.90208,140.93362 H 200.20458 L 200.23958,133.54862 Q 200.23958,132.37612 199.36458,132.37612 199.03208,132.37612 198.59458,132.63862 198.17458,132.90112 197.82458,133.37362 197.73708,135.14112 197.78958,137.10112 197.85958,139.04362 197.96458,140.93362 H 196.30208 Q 196.17958,138.78112 196.14458,136.29612 196.12708,133.79362 196.24958,131.23862 Z"
         id="path69" />
      <path
         d="M 207.99209,131.23862 H 209.49709 L 209.65459,132.41112 Q 210.42459,131.81612 211.38709,131.41362 212.34959,131.01112 213.24209,131.02862 213.90709,131.02862 214.48459,131.36112 215.06209,131.67612 215.41209,132.41112 215.76209,133.12862 215.76209,134.33612 V 140.93362 H 214.02959 V 134.61612 Q 214.02959,133.60112 213.67959,133.16362 213.34709,132.70862 212.64709,132.70862 212.03459,132.70862 211.29959,133.02362 210.58209,133.32112 209.67209,134.03862 V 140.93362 H 207.99209 Z"
         id="path71" />
      <path
         d="M 222.74461,141.21362 Q 221.36211,141.21362 220.39961,140.58362 219.43711,139.93612 218.94711,138.79862 218.45711,137.64362 218.45711,136.12112 218.45711,134.58112 218.94711,133.44362 219.43711,132.30612 220.39961,131.67612 221.36211,131.02862 222.74461,131.02862 224.14461,131.02862 225.08961,131.67612 226.05211,132.30612 226.54211,133.44362 227.03211,134.58112 227.03211,136.12112 227.03211,137.64362 226.54211,138.79862 226.05211,139.93612 225.08961,140.58362 224.14461,141.21362 222.74461,141.21362 Z M 222.74461,139.69112 Q 223.70711,139.69112 224.26711,139.23612 224.84461,138.76362 225.10711,137.95862 225.36961,137.13612 225.36961,136.12112 225.36961,135.08862 225.10711,134.30112 224.84461,133.49612 224.26711,133.04112 223.70711,132.56862 222.74461,132.56862 221.79961,132.56862 221.22211,133.04112 220.64461,133.49612 220.38211,134.30112 220.11961,135.08862 220.11961,136.12112 220.11961,137.13612 220.38211,137.95862 220.64461,138.76362 221.22211,139.23612 221.79961,139.69112 222.74461,139.69112 Z"
         id="path73" />
      <path
         d="M 228.55462,131.16862 H 231.65212 L 231.82712,132.14862 Q 232.31712,131.64112 232.96462,131.34362 233.62962,131.02862 234.43462,131.02862 235.57212,131.02862 236.42962,131.64112 237.28712,132.23612 237.72462,133.35612 238.17962,134.47612 238.07462,136.03362 237.96962,137.52112 237.32212,138.69362 236.67462,139.86612 235.69462,140.54862 234.71462,141.21362 233.61212,141.21362 233.05212,141.21362 232.59712,141.05612 232.15962,140.91612 231.82712,140.65362 V 144.38112 H 230.18212 V 132.46362 L 228.55462,132.18362 Z M 234.25962,132.55112 Q 233.40212,132.55112 232.77212,133.02362 232.15962,133.47862 231.82712,134.19612 V 138.43112 Q 232.05462,138.97362 232.45712,139.32362 232.87712,139.67362 233.52462,139.67362 234.73212,139.67362 235.48462,138.69362 236.23712,137.69612 236.35962,136.03362 236.48212,134.49362 235.99212,133.53112 235.51962,132.55112 234.25962,132.55112 Z"
         id="path75" />
      <path
         d="M 246.24714,141.33612 V 139.74362 Q 245.80964,140.33862 245.17964,140.70612 244.56714,141.07362 243.77964,141.07362 242.83464,141.07362 242.13464,140.67112 241.43464,140.25112 240.96214,139.53362 240.48964,138.81612 240.24464,137.92362 240.01714,137.01362 240.01714,136.05112 240.01714,134.73862 240.43714,133.60112 240.85714,132.44612 241.69714,131.74612 242.53714,131.02862 243.77964,131.02862 244.58464,131.02862 245.19714,131.36112 245.82714,131.69362 246.26464,132.23612 L 246.42214,131.16862 H 247.90964 V 141.33612 Q 247.90964,142.01862 248.01464,142.35112 248.13714,142.68362 248.48714,142.78862 248.85464,142.89362 249.60714,142.89362 V 144.43362 H 248.52214 Q 247.55964,144.43362 247.06964,144.03112 246.57964,143.62862 246.40464,142.92862 246.24714,142.22862 246.24714,141.33612 Z M 243.97214,132.55112 Q 243.32464,132.55112 242.86964,132.86612 242.43214,133.18112 242.16964,133.70612 241.90714,134.21362 241.78464,134.82612 241.66214,135.43862 241.66214,136.05112 241.66214,136.64612 241.78464,137.25862 241.90714,137.87112 242.16964,138.39612 242.43214,138.90362 242.86964,139.21862 243.32464,139.53362 243.97214,139.53362 244.77714,139.53362 245.35464,138.99112 245.93214,138.44862 246.24714,137.71362 V 134.30112 Q 245.93214,133.56612 245.35464,133.05862 244.77714,132.55112 243.97214,132.55112 Z"
         id="path77" />
      <path
         d="M 251.04216,139.39362 H 253.00216 V 132.46362 L 251.40966,132.18362 V 131.16862 H 254.48966 L 254.66466,132.44612 Q 255.29466,131.86862 255.99466,131.44862 256.71216,131.01112 257.51716,131.02862 258.26966,131.04612 258.91716,131.37862 259.56466,131.69362 259.89716,132.30612 L 258.67216,133.33862 Q 258.39216,132.98862 257.97216,132.81362 257.55216,132.63862 257.09716,132.63862 256.51966,132.63862 255.94216,133.04112 255.36466,133.44362 254.71716,134.07362 V 134.14362 139.39362 H 258.40966 V 140.93362 H 251.04216 Z"
         id="path79" />
      <path
         d="M 262.17217,139.70862 263.23967,138.53612 Q 263.93967,139.00862 264.72717,139.34112 265.53217,139.65612 266.30217,139.65612 267.33467,139.65612 267.85967,139.32362 268.38467,138.99112 268.38467,138.46612 268.38467,137.95862 267.96467,137.60862 267.54467,137.25862 266.87967,136.99612 266.21467,136.71612 265.46217,136.45362 264.72717,136.19112 264.06217,135.85862 263.39717,135.50862 262.97717,135.01862 262.55717,134.51112 262.55717,133.77612 262.55717,133.11112 262.90717,132.60362 263.25717,132.09612 263.81717,131.74612 264.37717,131.39612 265.02467,131.22112 265.68967,131.04612 266.31967,131.04612 267.40467,131.04612 268.20967,131.41362 269.03217,131.76362 269.81967,132.42862 L 268.76967,133.54862 Q 268.17467,133.09362 267.59717,132.84862 267.03717,132.58612 266.31967,132.58612 265.54967,132.58612 264.91967,132.91862 264.30717,133.23362 264.27217,133.74112 264.25467,134.12612 264.65717,134.42362 265.07717,134.70362 265.74217,134.98362 266.40717,135.24612 267.15967,135.54362 267.91217,135.84112 268.57717,136.22612 269.24217,136.61112 269.66217,137.15362 270.09967,137.69612 270.09967,138.44862 270.09967,139.69112 269.10217,140.44362 268.12217,141.19612 266.30217,141.19612 265.12967,141.19612 264.02717,140.77612 262.92467,140.33862 262.17217,139.70862 Z"
         id="path81" />
      <path
         d="M 272.81219,131.30862 H 275.50719 V 129.05112 H 277.22219 V 131.30862 H 280.82719 V 132.84862 H 277.22219 V 137.83612 Q 277.22219,138.18612 277.30969,138.55362 277.39719,138.90362 277.69469,139.13112 278.00969,139.35862 278.63969,139.35862 H 280.77469 V 140.93362 H 277.74719 Q 276.80219,140.93362 276.31219,140.49612 275.83969,140.04112 275.66469,139.34112 275.50719,138.62362 275.50719,137.83612 V 132.84862 H 272.81219 Z"
         id="path83" />
      <path
         d="M 283.76719,131.30862 H 285.49969 V 136.43612 Q 285.49969,137.32862 285.60469,138.02862 285.72719,138.71112 286.05969,139.11362 286.39219,139.51612 287.07469,139.51612 287.68719,139.51612 288.33469,139.25362 288.99969,138.97362 289.82219,138.29112 V 131.30862 H 291.50219 V 138.64112 Q 291.50219,139.11362 291.71219,139.37612 291.93969,139.62112 292.49969,139.65612 V 141.07362 Q 291.32719,141.12612 290.78469,140.77612 290.24219,140.42612 290.01469,139.74362 289.24469,140.35612 288.35219,140.79362 287.47719,141.23112 286.56719,141.21362 285.77969,141.19612 285.13219,140.82862 284.50219,140.46112 284.13469,139.62112 283.76719,138.76362 283.76719,137.32862 Z"
         id="path85" />
      <path
         d="M 294.26721,131.30862 H 296.06971 Q 296.54221,133.25112 296.96221,134.72112 297.38221,136.17362 297.80221,137.31112 298.22221,138.44862 298.69471,139.41112 299.16721,138.44862 299.58721,137.31112 300.00721,136.17362 300.42721,134.72112 300.84721,133.25112 301.31971,131.30862 H 303.12221 Q 302.66721,133.16362 302.24721,134.58112 301.84471,135.99862 301.42471,137.11862 301.02221,138.22112 300.58471,139.14862 300.16471,140.05862 299.65721,140.93362 H 297.73221 Q 297.24221,140.05862 296.80471,139.14862 296.36721,138.22112 295.94721,137.11862 295.54471,135.99862 295.12471,134.58112 294.72221,133.16362 294.26721,131.30862 Z"
         id="path87" />
      <path
         d="M 304.83722,131.30862 H 306.51722 Q 306.56972,133.75862 306.72722,135.75362 306.90222,137.74862 307.19972,139.27112 L 308.82722,134.33612 H 310.26222 L 311.88972,139.27112 Q 312.18722,137.74862 312.34472,135.75362 312.51972,133.75862 312.57222,131.30862 H 314.25222 Q 314.16472,134.49362 313.84972,136.90862 313.53472,139.32362 313.02722,140.93362 H 310.92722 L 309.54472,136.27862 308.16222,140.93362 H 306.06222 Q 305.55472,139.32362 305.23972,136.90862 304.92472,134.49362 304.83722,131.30862 Z"
         id="path89" />
      <path
         d="M 316.38724,140.93362 V 140.75862 L 319.30974,136.05112 316.47474,131.48362 V 131.30862 H 318.27724 L 320.37724,134.77362 322.51224,131.30862 H 324.31474 V 131.48362 L 321.44474,136.05112 324.40224,140.75862 V 140.93362 H 322.59974 L 320.37724,137.32862 318.18974,140.93362 Z"
         id="path91" />
      <path
         d="M 333.53726,141.33612 V 139.91862 Q 333.01226,140.37362 332.39976,140.67112 331.78726,140.95112 330.94726,140.93362 330.15976,140.91612 329.49476,140.53112 328.82976,140.14612 328.44476,139.30612 328.05976,138.44862 328.05976,137.04862 L 328.09476,132.79612 326.64226,132.58612 V 131.39612 H 329.77476 V 136.15612 Q 329.77476,137.04862 329.86226,137.74862 329.94976,138.44862 330.26476,138.85112 330.59726,139.25362 331.26226,139.25362 331.87476,139.25362 332.38226,138.97362 332.90726,138.69362 333.53726,138.18612 V 131.30862 H 335.25226 V 141.33612 Q 335.25226,143.03362 334.34226,143.85612 333.43226,144.69612 331.97976,144.69612 H 328.81226 V 143.12112 H 331.08726 Q 331.73476,143.12112 332.27726,142.94612 332.83726,142.78862 333.18726,142.38612 333.53726,142.00112 333.53726,141.33612 Z"
         id="path93" />
      <path
         d="M 338.15727,139.39362 343.54727,132.84862 H 338.26227 V 131.30862 H 345.75227 V 132.84862 L 340.36227,139.39362 H 346.03227 V 140.93362 H 338.15727 Z"
         id="path95" />
      <path
         d="M 66.084403,162.80862 Q 66.976903,158.81862 67.921903,155.72112 68.866903,152.60612 69.934403,150.38362 H 71.754403 Q 72.839403,152.60612 73.766903,155.72112 74.711903,158.81862 75.604403,162.80862 H 73.836903 Q 73.661903,162.03862 73.486903,161.30362 73.311903,160.55112 73.154403,159.83362 H 68.534403 Q 68.376903,160.55112 68.201903,161.30362 68.026903,162.03862 67.851903,162.80862 Z M 68.919403,158.29362 H 72.769403 Q 72.314403,156.50862 71.841903,154.95112 71.369403,153.39362 70.844403,152.08112 70.319403,153.39362 69.846903,154.95112 69.374403,156.50862 68.919403,158.29362 Z"
         id="path97" />
      <path
         d="M 77.494418,150.38362 H 81.379418 Q 83.286918,150.38362 84.389418,151.13612 85.491918,151.88862 85.491918,153.49862 85.491918,154.49612 84.914418,155.21362 84.354418,155.91362 83.444418,156.29862 84.196918,156.49112 84.809418,156.87612 85.421918,157.24362 85.789418,157.85612 86.156918,158.45112 86.156918,159.32612 86.156918,160.37612 85.754418,161.05862 85.369418,161.72362 84.686918,162.10862 84.004418,162.49362 83.146918,162.65112 82.306918,162.80862 81.379418,162.80862 H 77.494418 Z M 81.379418,151.92362 H 79.209418 V 155.58112 H 81.379418 Q 82.569418,155.58112 83.164418,155.16112 83.776918,154.72362 83.776918,153.72612 83.776918,152.76362 83.164418,152.34362 82.569418,151.92362 81.379418,151.92362 Z M 81.379418,157.12112 H 79.209418 V 161.26862 H 81.379418 Q 82.184418,161.26862 82.884418,161.14612 83.584418,161.02362 84.004418,160.58612 84.441918,160.13112 84.441918,159.20362 84.441918,158.32862 84.004418,157.89112 83.584418,157.43612 82.884418,157.27862 82.184418,157.12112 81.379418,157.12112 Z"
         id="path99" />
      <path
         d="M 93.086932,163.08862 Q 91.406932,163.08862 90.199432,162.31862 89.009432,161.54862 88.361932,160.11362 87.731932,158.66112 87.731932,156.64862 87.731932,153.56862 89.044432,151.83612 90.374432,150.10362 92.736932,150.10362 94.364432,150.10362 95.396932,150.78612 96.429432,151.46862 97.076932,152.92112 L 95.659432,153.62112 Q 95.169432,152.65862 94.486932,152.16862 93.804432,151.67862 92.771932,151.67862 91.214432,151.67862 90.339432,152.99112 89.464432,154.30362 89.464432,156.64862 89.464432,158.94112 90.426932,160.23612 91.389432,161.51362 93.086932,161.51362 94.031932,161.51362 94.784432,161.23362 95.536932,160.95362 96.289432,160.30612 L 97.286932,161.58362 Q 96.341932,162.38862 95.361932,162.73862 94.399432,163.08862 93.086932,163.08862 Z"
         id="path101" />
      <path
         d="M 99.071948,150.38362 H 102.62445 Q 103.69195,150.38362 104.65445,150.69862 105.63445,150.99612 106.40445,151.67862 107.17445,152.36112 107.61195,153.48112 108.06695,154.58362 108.06695,156.21112 108.06695,158.27612 107.40195,159.76362 106.75445,161.23362 105.51195,162.02112 104.26945,162.80862 102.51945,162.80862 H 99.071948 Z M 102.62445,151.92362 H 100.78695 V 161.26862 H 102.51945 Q 103.65695,161.26862 104.39195,160.83112 105.14445,160.37612 105.56445,159.64112 106.00195,158.88862 106.17695,157.99612 106.35195,157.10362 106.35195,156.21112 106.35195,154.12862 105.33695,153.02612 104.32195,151.92362 102.62445,151.92362 Z"
         id="path103" />
      <path
         d="M 118.35696,161.26862 V 162.80862 H 110.39446 L 110.42946,150.38362 H 118.21696 V 151.92362 H 112.14446 L 112.12696,155.56362 H 117.79696 V 157.10362 H 112.12696 L 112.10946,161.26862 Z"
         id="path105" />
      <path
         d="M 128.41948,155.75612 V 157.29612 H 122.99448 V 162.80862 H 121.27948 V 150.38362 H 129.18948 V 151.92362 H 122.99448 V 155.75612 Z"
         id="path107" />
      <path
         d="M 136.10199,156.85862 H 140.58199 V 161.68862 Q 139.67199,162.44112 138.74449,162.77362 137.81699,163.08862 136.57449,163.08862 134.89449,163.08862 133.68699,162.31862 132.49699,161.54862 131.84949,160.11362 131.21949,158.66112 131.21949,156.64862 131.21949,153.56862 132.56699,151.83612 133.93199,150.10362 136.57449,150.10362 137.71199,150.10362 138.62199,150.40112 139.54949,150.68112 140.17949,151.13612 L 139.39199,152.37862 Q 138.76199,151.92362 137.99199,151.78362 137.22199,151.62612 136.60949,151.64362 134.68449,151.67862 133.80949,153.00862 132.93449,154.33862 132.93449,156.64862 132.93449,158.92362 133.89699,160.21862 134.87699,161.51362 136.57449,161.51362 137.86949,161.51362 138.86699,160.95362 V 158.39862 H 136.10199 Z"
         id="path109" />
      <path
         d="M 142.76951,150.38362 H 144.48451 V 155.56362 H 149.10451 V 150.38362 H 150.81951 V 162.80862 H 149.10451 V 157.10362 H 144.48451 V 162.80862 H 142.76951 Z"
         id="path111" />
      <path
         d="M 161.49452,162.80862 H 153.79452 V 161.26862 H 156.78702 V 151.92362 H 153.88202 V 150.38362 H 161.40702 V 151.92362 H 158.50202 V 161.26862 H 161.49452 Z"
         id="path113" />
      <path
         d="M 166.21953,150.38362 H 172.30953 V 159.27362 159.27362 Q 172.29203,160.46362 171.94203,161.21612 171.60953,161.96862 171.06703,162.37112 170.52453,162.77362 169.89453,162.93112 169.26453,163.08862 168.65203,163.08862 167.49703,163.08862 166.51703,162.79112 165.55453,162.49362 164.46953,161.95112 L 165.29203,160.63862 Q 165.79953,160.88362 166.51703,161.21612 167.23453,161.53112 168.17953,161.53112 169.24703,161.53112 169.91203,161.04112 170.59453,160.53362 170.59453,159.16862 V 151.92362 H 166.21953 Z"
         id="path115" />
      <path
         d="M 182.07455,162.80862 177.80455,157.34862 176.91205,158.46862 V 162.80862 H 175.19705 V 150.38362 H 176.91205 V 155.82612 L 181.58455,150.38362 H 183.52705 V 150.55862 L 178.85455,156.01862 184.12205,162.63362 V 162.80862 Z"
         id="path117" />
      <path
         d="M 194.20206,161.26862 V 162.80862 H 186.53706 V 150.38362 H 188.25206 V 161.26862 Z"
         id="path119" />
      <path
         d="M 196.19708,150.38362 H 198.13958 Q 198.94458,151.81862 199.66208,153.34112 200.39708,154.86362 201.04458,156.47362 201.69208,154.86362 202.40958,153.34112 203.14458,151.81862 203.94958,150.38362 H 205.89208 V 162.80862 H 204.17708 V 153.20112 Q 203.52958,154.40862 202.91708,155.68612 202.32208,156.94612 201.76208,158.25862 H 200.32708 Q 199.76708,156.94612 199.15458,155.68612 198.55958,154.40862 197.91208,153.20112 V 162.80862 H 196.19708 Z"
         id="path121" />
      <path
         d="M 207.44959,150.38362 H 209.56709 L 214.62459,159.83362 V 150.38362 H 216.33959 V 162.80862 H 214.29209 L 209.16459,153.32362 V 162.80862 H 207.44959 Z"
         id="path123" />
      <path
         d="M 222.74461,163.08862 Q 221.44961,163.08862 220.53961,162.59862 219.64711,162.09112 219.08711,161.19862 218.52711,160.30612 218.26461,159.13362 218.01961,157.96112 218.01961,156.59612 218.01961,155.23112 218.26461,154.05862 218.52711,152.88612 219.08711,151.99362 219.64711,151.10112 220.53961,150.61112 221.44961,150.10362 222.74461,150.10362 224.05711,150.10362 224.94961,150.61112 225.85961,151.10112 226.40211,151.99362 226.96211,152.88612 227.20711,154.05862 227.46961,155.23112 227.46961,156.59612 227.46961,157.96112 227.20711,159.13362 226.96211,160.30612 226.40211,161.19862 225.85961,162.09112 224.94961,162.59862 224.05711,163.08862 222.74461,163.08862 Z M 222.74461,161.53112 Q 223.65461,161.53112 224.23211,161.14612 224.82711,160.74362 225.14211,160.06112 225.47461,159.36112 225.59711,158.46862 225.73711,157.57612 225.73711,156.59612 225.73711,155.61612 225.59711,154.74112 225.47461,153.84862 225.14211,153.16612 224.82711,152.46612 224.23211,152.06362 223.65461,151.66112 222.74461,151.66112 221.83461,151.66112 221.25711,152.06362 220.67961,152.46612 220.34711,153.16612 220.01461,153.84862 219.87461,154.74112 219.75211,155.61612 219.75211,156.59612 219.75211,157.57612 219.87461,158.46862 220.01461,159.36112 220.34711,160.06112 220.67961,160.74362 221.25711,161.14612 221.83461,161.53112 222.74461,161.53112 Z"
         id="path125" />
      <path
         d="M 229.25462,150.38362 H 234.03212 Q 236.16712,150.38362 237.14712,151.45112 238.14462,152.51862 238.14462,154.30362 238.14462,156.08862 237.12962,157.15612 236.11462,158.22362 234.03212,158.22362 H 230.96962 V 162.80862 H 229.25462 Z M 234.03212,151.92362 H 230.96962 V 156.68362 H 234.03212 Q 235.27462,156.68362 235.86962,156.00112 236.46462,155.31862 236.46462,154.30362 236.46462,153.21862 235.86962,152.57112 235.27462,151.92362 234.03212,151.92362 Z"
         id="path127" />
      <path
         d="M 244.37464,163.08862 Q 242.64214,162.94862 241.60964,162.09112 240.57714,161.23362 240.12214,159.81612 239.66714,158.39862 239.66714,156.59612 239.66714,155.23112 239.91214,154.05862 240.17464,152.88612 240.71714,151.99362 241.27714,151.10112 242.16964,150.61112 243.07964,150.10362 244.37464,150.10362 245.68714,150.10362 246.57964,150.61112 247.48964,151.10112 248.03214,151.99362 248.59214,152.88612 248.83714,154.05862 249.08214,155.23112 249.08214,156.59612 249.08214,157.90862 248.80214,159.09862 248.53964,160.27112 247.99714,161.16362 L 249.43214,163.14112 248.22464,164.17362 247.01714,162.31862 Q 246.49214,162.73862 245.82714,162.94862 245.17964,163.15862 244.37464,163.08862 Z M 244.05964,157.99612 Q 244.95214,157.99612 245.65214,158.48612 246.35214,158.95862 246.92964,159.69362 247.17464,159.04612 247.26214,158.25862 247.36714,157.45362 247.36714,156.59612 247.36714,155.61612 247.22714,154.74112 247.10464,153.84862 246.77214,153.16612 246.45714,152.46612 245.86214,152.06362 245.28464,151.66112 244.37464,151.66112 243.46464,151.66112 242.88714,152.06362 242.30964,152.46612 241.97714,153.16612 241.64464,153.84862 241.50464,154.74112 241.38214,155.61612 241.38214,156.59612 241.38214,157.20862 241.41714,157.80362 241.46964,158.38112 241.59214,158.88862 242.08214,158.52112 242.69464,158.25862 243.30714,157.99612 244.05964,157.99612 Z M 244.37464,161.53112 Q 244.93464,161.53112 245.35464,161.37362 245.79214,161.21612 246.12464,160.93612 245.66964,160.28862 245.14464,159.81612 244.61964,159.34362 243.95464,159.34362 243.39464,159.34362 242.90464,159.64112 242.43214,159.92112 242.09964,160.27112 242.43214,160.84862 242.99214,161.19862 243.55214,161.53112 244.37464,161.53112 Z"
         id="path129" />
      <path
         d="M 251.00716,150.38362 H 255.43466 Q 257.56966,150.38362 258.54966,151.36362 259.54716,152.34362 259.54716,154.12862 259.54716,155.56362 258.82966,156.52612 258.12966,157.47112 256.69466,157.75112 L 260.01966,162.63362 V 162.80862 H 258.14716 L 254.87466,157.87362 H 252.72216 V 162.80862 H 251.00716 Z M 255.43466,151.92362 H 252.72216 V 156.33362 H 255.43466 Q 256.67716,156.33362 257.27216,155.72112 257.86716,155.09112 257.86716,154.12862 257.86716,151.92362 255.43466,151.92362 Z"
         id="path131" />
      <path
         d="M 261.59467,161.19862 262.69717,160.00862 Q 263.44967,160.70862 264.41217,161.11112 265.39217,161.49612 266.38967,161.49612 267.63217,161.49612 268.36717,161.00612 269.10217,160.49862 269.10217,159.64112 269.10217,159.09862 268.71717,158.71362 268.33217,158.32862 267.70217,158.03112 267.08967,157.71612 266.33717,157.43612 265.58467,157.15612 264.83217,156.82362 264.07967,156.49112 263.44967,156.05362 262.83717,155.61612 262.45217,155.02112 262.06717,154.40862 262.06717,153.55112 262.06717,152.71112 262.45217,152.06362 262.85467,151.41612 263.48467,150.97862 264.13217,150.54112 264.88467,150.33112 265.63717,150.10362 266.33717,150.10362 267.52717,150.10362 268.61217,150.57612 269.69717,151.03112 270.46717,151.88862 L 269.31217,152.95612 Q 268.59467,152.25612 267.89467,151.97612 267.21217,151.69612 266.33717,151.69612 265.75967,151.69612 265.16467,151.92362 264.58717,152.13362 264.18467,152.55362 263.78217,152.95612 263.78217,153.51612 263.78217,154.07612 264.16717,154.47862 264.55217,154.88112 265.18217,155.19612 265.81217,155.51112 266.56467,155.80862 267.31717,156.10612 268.05217,156.43862 268.80467,156.77112 269.43467,157.20862 270.06467,157.62862 270.44967,158.22362 270.83467,158.81862 270.83467,159.64112 270.83467,161.19862 269.67967,162.14362 268.54217,163.08862 266.38967,163.08862 264.98967,163.08862 263.72967,162.54612 262.46967,162.00362 261.59467,161.19862 Z"
         id="path133" />
      <path
         d="M 276.13719,162.80862 V 151.92362 H 272.44469 V 150.38362 H 281.54469 V 151.92362 H 277.85219 V 162.80862 Z"
         id="path135" />
      <path
         d="M 290.55719,150.38362 H 292.30719 V 157.96112 Q 292.30719,159.41362 291.90469,160.41112 291.50219,161.39112 290.85469,161.98612 290.20719,162.56362 289.43719,162.80862 288.66719,163.07112 287.91469,163.07112 287.14469,163.07112 286.33969,162.80862 285.55219,162.56362 284.88719,161.98612 284.22219,161.39112 283.80219,160.41112 283.39969,159.41362 283.39969,157.96112 V 150.38362 H 285.13219 V 157.96112 Q 285.13219,159.16862 285.51719,159.92112 285.91969,160.65612 286.54969,161.00612 287.19719,161.35612 287.91469,161.35612 288.61469,161.35612 289.20969,161.00612 289.82219,160.65612 290.18969,159.92112 290.55719,159.16862 290.55719,157.96112 Z"
         id="path137" />
      <path
         d="M 293.93471,150.38362 H 295.70221 Q 296.43721,153.67362 297.15471,156.35112 297.87221,159.02862 298.69471,161.11112 299.51721,159.02862 300.23471,156.35112 300.95221,153.67362 301.68721,150.38362 H 303.45471 Q 302.56221,154.37362 301.61721,157.47112 300.68971,160.56862 299.60471,162.80862 H 297.78471 Q 296.71721,160.56862 295.77221,157.47112 294.82721,154.37362 293.93471,150.38362 Z"
         id="path139" />
      <path
         d="M 304.64472,150.38362 H 306.35972 Q 306.28972,153.67362 306.49972,156.31612 306.70972,158.95862 307.09472,160.95362 L 308.79222,154.53112 H 310.29722 L 311.99472,160.93612 Q 312.36222,158.94112 312.55472,156.31612 312.76472,153.67362 312.72972,150.38362 H 314.44472 Q 314.46222,154.49612 314.11222,157.61112 313.76222,160.72612 313.18472,162.80862 H 310.89222 L 309.54472,157.36612 308.19722,162.80862 H 305.90472 Q 305.32722,160.72612 304.95972,157.61112 304.59222,154.49612 304.64472,150.38362 Z"
         id="path141" />
      <path
         d="M 315.87974,162.80862 V 162.63362 L 319.36224,156.61362 315.86224,150.55862 V 150.38362 H 317.71724 L 320.39474,155.14362 323.00224,150.38362 H 324.85724 V 150.55862 L 321.44474,156.61362 324.92724,162.63362 V 162.80862 H 323.07224 L 320.41224,158.04862 317.73474,162.80862 Z"
         id="path143" />
      <path
         d="M 326.50226,150.38362 H 328.40976 L 331.24476,156.12362 334.07976,150.38362 H 335.98726 V 150.55862 L 332.11976,157.85612 H 332.10226 V 162.80862 H 330.38726 V 157.85612 H 330.36976 L 326.50226,150.55862 Z"
         id="path145" />
      <path
         d="M 337.77227,161.26862 344.07227,151.92362 H 337.87727 V 150.38362 H 346.11977 V 151.92362 L 339.81977,161.26862 H 346.41727 V 162.80862 H 337.77227 Z"
         id="path147" />
      <path
         d="M 70.844403,184.96362 Q 69.461903,184.96362 68.499403,184.33362 67.536903,183.68612 67.046903,182.54862 66.556903,181.39362 66.556903,179.87112 66.556903,178.33112 67.046903,177.19362 67.536903,176.05612 68.499403,175.42612 69.461903,174.77862 70.844403,174.77862 72.244403,174.77862 73.189403,175.42612 74.151903,176.05612 74.641903,177.19362 75.131903,178.33112 75.131903,179.87112 75.131903,181.39362 74.641903,182.54862 74.151903,183.68612 73.189403,184.33362 72.244403,184.96362 70.844403,184.96362 Z M 70.844403,183.44112 Q 71.806903,183.44112 72.366903,182.98612 72.944403,182.51362 73.206903,181.70862 73.469403,180.88612 73.469403,179.87112 73.469403,178.83862 73.206903,178.05112 72.944403,177.24612 72.366903,176.79112 71.806903,176.31862 70.844403,176.31862 69.899403,176.31862 69.321903,176.79112 68.744403,177.24612 68.481903,178.05112 68.219403,178.83862 68.219403,179.87112 68.219403,180.88612 68.481903,181.70862 68.744403,182.51362 69.321903,182.98612 69.899403,183.44112 70.844403,183.44112 Z"
         id="path149" />
      <path
         d="M 81.694418,184.96362 Q 80.399418,184.96362 79.489418,184.47362 78.596918,183.96612 78.036918,183.07362 77.476918,182.18112 77.214418,181.00862 76.969418,179.83612 76.969418,178.47112 76.969418,177.10612 77.214418,175.93362 77.476918,174.76112 78.036918,173.86862 78.596918,172.97612 79.489418,172.48612 80.399418,171.97862 81.694418,171.97862 83.006918,171.97862 83.899418,172.48612 84.809418,172.97612 85.351918,173.86862 85.911918,174.76112 86.156918,175.93362 86.419418,177.10612 86.419418,178.47112 86.419418,179.83612 86.156918,181.00862 85.911918,182.18112 85.351918,183.07362 84.809418,183.96612 83.899418,184.47362 83.006918,184.96362 81.694418,184.96362 Z M 81.694418,183.40612 Q 82.604418,183.40612 83.181918,183.02112 83.776918,182.61862 84.091918,181.93612 84.424418,181.23612 84.546918,180.34362 84.686918,179.45112 84.686918,178.47112 84.686918,177.49112 84.546918,176.61612 84.424418,175.72362 84.091918,175.04112 83.776918,174.34112 83.181918,173.93862 82.604418,173.53612 81.694418,173.53612 80.784418,173.53612 80.206918,173.93862 79.629418,174.34112 79.296918,175.04112 78.964418,175.72362 78.824418,176.61612 78.701918,177.49112 78.701918,178.47112 78.701918,179.45112 78.824418,180.34362 78.964418,181.23612 79.296918,181.93612 79.629418,182.61862 80.206918,183.02112 80.784418,183.40612 81.694418,183.40612 Z"
         id="path151" />
      <path
         d="M 92.579432,184.96362 Q 91.284432,184.96362 90.409432,184.47362 89.551932,183.98362 89.026932,183.10862 88.519432,182.23362 88.291932,181.04362 88.081932,179.85362 88.081932,178.47112 88.081932,177.07112 88.291932,175.89862 88.519432,174.70862 89.026932,173.83362 89.551932,172.95862 90.409432,172.46862 91.284432,171.97862 92.579432,171.97862 93.874432,171.97862 94.731932,172.46862 95.589432,172.95862 96.079432,173.83362 96.586932,174.70862 96.796932,175.89862 97.006932,177.07112 97.006932,178.47112 97.006932,179.85362 96.796932,181.04362 96.586932,182.23362 96.079432,183.10862 95.589432,183.98362 94.731932,184.47362 93.874432,184.96362 92.579432,184.96362 Z M 89.796932,178.45362 Q 89.796932,179.34612 89.849432,180.13362 89.919432,180.90362 90.111932,181.53362 L 94.364432,174.18362 Q 94.066932,173.86862 93.629432,173.71112 93.191932,173.53612 92.579432,173.53612 91.669432,173.53612 91.109432,173.90362 90.549432,174.27112 90.269432,174.95362 89.989432,175.61862 89.884432,176.51112 89.796932,177.40362 89.796932,178.45362 Z M 92.579432,183.40612 Q 93.506932,183.40612 94.049432,183.03862 94.591932,182.65362 94.854432,181.98862 95.116932,181.30612 95.204432,180.41362 95.291932,179.50362 95.291932,178.45362 95.291932,177.59612 95.239432,176.82612 95.186932,176.05612 95.029432,175.44362 L 90.794432,182.77612 Q 91.091932,183.07362 91.529432,183.24862 91.984432,183.40612 92.579432,183.40612 Z"
         id="path153" />
      <path
         d="M 103.34195,184.96362 Q 102.58945,184.96362 101.83695,184.77112 101.08445,184.57862 100.45445,184.15862 99.841948,183.73862 99.456948,183.03862 99.089448,182.33862 99.089448,181.32362 99.089448,180.55362 99.404448,179.94112 99.736948,179.31112 100.24445,178.87362 100.76945,178.43612 101.34695,178.26112 100.54195,177.84112 100.01695,177.17612 99.509448,176.49362 99.509448,175.26862 99.509448,174.49862 99.894448,173.74612 100.29695,172.99362 101.13695,172.50362 101.97695,171.99612 103.34195,171.99612 104.70695,171.99612 105.54695,172.50362 106.40445,172.99362 106.78945,173.74612 107.17445,174.49862 107.17445,175.26862 107.17445,176.49362 106.66695,177.17612 106.15945,177.84112 105.33695,178.26112 105.93195,178.43612 106.43945,178.87362 106.94695,179.31112 107.26195,179.94112 107.59445,180.55362 107.59445,181.32362 107.59445,182.33862 107.20945,183.03862 106.84195,183.73862 106.21195,184.15862 105.59945,184.57862 104.84695,184.77112 104.09445,184.96362 103.34195,184.96362 Z M 101.20695,175.46112 Q 101.20695,176.37112 101.78445,176.91362 102.37945,177.45612 103.35945,177.45612 104.33945,177.45612 104.91695,176.91362 105.51195,176.37112 105.51195,175.46112 105.51195,175.04112 105.30195,174.60362 105.10945,174.14862 104.63695,173.85112 104.16445,173.53612 103.34195,173.53612 102.51945,173.53612 102.04695,173.85112 101.59195,174.14862 101.39945,174.60362 101.20695,175.04112 101.20695,175.46112 Z M 100.80445,181.25362 Q 100.80445,182.26862 101.45195,182.84612 102.09945,183.42362 103.34195,183.42362 104.58445,183.42362 105.23195,182.84612 105.87945,182.26862 105.87945,181.25362 105.87945,180.32612 105.17945,179.73112 104.47945,179.11862 103.34195,179.11862 102.22195,179.11862 101.50445,179.73112 100.80445,180.32612 100.80445,181.25362 Z"
         id="path155" />
      <path
         d="M 125.00698,174.07862 Q 124.44698,174.07862 124.02698,173.67612 123.60698,173.27362 123.60698,172.67862 123.60698,172.10112 124.02698,171.69862 124.44698,171.27862 125.00698,171.27862 125.60198,171.27862 126.00448,171.69862 126.40698,172.10112 126.40698,172.67862 126.40698,173.27362 126.00448,173.67612 125.60198,174.07862 125.00698,174.07862 Z M 121.33198,183.14362 H 124.63948 V 177.31612 H 122.27698 V 175.77612 H 126.35448 V 183.14362 H 129.17198 V 184.68362 H 121.33198 Z"
         id="path157" />
      <path
         d="M 139.79449,184.68362 H 132.09449 V 183.14362 H 135.08699 V 173.79862 H 132.18199 V 172.25862 H 139.70699 V 173.79862 H 136.80199 V 183.14362 H 139.79449 Z"
         id="path159" />
      <path
         d="M 145.07951,181.58612 V 172.92362 L 142.99701,172.55612 V 171.55862 H 146.79451 V 181.58612 Q 146.79451,181.93612 146.88201,182.30362 146.96951,182.65362 147.26701,182.88112 147.58201,183.10862 148.21201,183.10862 H 150.27701 V 184.68362 H 147.35451 Q 146.39201,184.68362 145.90201,184.24612 145.41201,183.79112 145.23701,183.09112 145.07951,182.37362 145.07951,181.58612 Z"
         id="path161" />
      <path
         d="M 161.65202,183.14362 V 184.68362 H 153.98702 V 172.25862 H 155.70202 V 183.14362 Z"
         id="path163" />
      <path
         d="M 172.58953,183.14362 V 184.68362 H 164.66203 V 183.14362 H 167.88203 V 175.04112 Q 166.74453,175.88112 165.25703,176.23112 L 164.53953,174.63862 Q 165.58953,174.41112 166.62203,173.78112 167.67203,173.15112 168.28453,172.25862 H 169.63203 V 183.14362 Z"
         id="path165" />
      <path
         d="M 186.16956,178.43612 H 187.21956 Q 187.72706,178.43612 188.18206,178.13862 188.63706,177.84112 188.91706,177.40362 189.21456,176.96612 189.21456,176.56362 189.21456,176.05612 189.00456,175.63612 188.81206,175.21612 188.60206,174.76112 188.40956,174.28862 188.40956,173.67612 188.40956,172.90612 188.81206,172.36362 189.23206,171.82112 190.14206,171.62862 190.47456,171.55862 190.94706,171.48862 191.43706,171.41862 191.90956,171.36612 192.38206,171.31362 192.71456,171.29612 V 172.87112 Q 192.43456,172.88862 191.99706,172.92362 191.57706,172.94112 191.17456,173.01112 190.77206,173.06362 190.52706,173.16862 190.26456,173.29112 190.05456,173.48362 189.86206,173.67612 189.86206,173.93862 189.86206,174.34112 190.05456,174.72612 190.24706,175.09362 190.43956,175.54862 190.64956,175.98612 190.64956,176.61612 190.64956,177.10612 190.36956,177.61362 190.08956,178.10362 189.66956,178.52362 189.26706,178.92612 188.86456,179.17112 189.26706,179.41612 189.66956,179.83612 190.08956,180.23862 190.36956,180.72862 190.64956,181.21862 190.64956,181.72612 190.64956,182.33862 190.43956,182.79362 190.24706,183.24862 190.05456,183.63362 189.86206,184.00112 189.86206,184.40362 189.86206,184.66612 190.05456,184.85862 190.26456,185.05112 190.52706,185.17362 190.77206,185.27862 191.17456,185.33112 191.57706,185.40112 191.99706,185.41862 192.43456,185.45362 192.71456,185.47112 V 187.04612 Q 192.38206,187.02862 191.90956,186.97612 191.43706,186.92362 190.94706,186.85362 190.47456,186.78362 190.14206,186.71362 189.23206,186.52112 188.81206,185.97862 188.40956,185.43612 188.40956,184.66612 188.40956,184.03612 188.60206,183.58112 188.81206,183.12612 189.00456,182.70612 189.21456,182.28612 189.21456,181.77862 189.21456,181.35862 188.91706,180.93862 188.63706,180.50112 188.18206,180.20362 187.72706,179.90612 187.21956,179.90612 H 186.16956 Z"
         id="path167" />
      <path
         d="M 205.06958,178.43612 V 179.90612 H 204.01958 Q 203.52958,179.90612 203.05708,180.20362 202.60208,180.50112 202.30458,180.93862 202.02458,181.35862 202.02458,181.77862 202.02458,182.28612 202.21708,182.70612 202.42708,183.12612 202.61958,183.58112 202.82958,184.03612 202.82958,184.66612 202.82958,185.43612 202.42708,185.97862 202.02458,186.52112 201.09708,186.71362 200.76458,186.78362 200.29208,186.85362 199.81958,186.92362 199.32958,186.97612 198.85708,187.02862 198.52458,187.04612 V 185.47112 Q 198.80458,185.45362 199.22458,185.41862 199.66208,185.40112 200.06458,185.33112 200.48458,185.27862 200.71208,185.17362 200.97458,185.05112 201.16708,184.85862 201.37708,184.66612 201.37708,184.40362 201.37708,184.00112 201.16708,183.63362 200.97458,183.24862 200.78208,182.79362 200.58958,182.33862 200.58958,181.72612 200.58958,181.21862 200.86958,180.72862 201.14958,180.23862 201.56958,179.83612 201.98958,179.41612 202.37458,179.17112 201.98958,178.92612 201.56958,178.52362 201.14958,178.10362 200.86958,177.61362 200.58958,177.10612 200.58958,176.61612 200.58958,175.98612 200.78208,175.54862 200.97458,175.09362 201.16708,174.72612 201.37708,174.34112 201.37708,173.93862 201.37708,173.67612 201.16708,173.48362 200.97458,173.29112 200.71208,173.16862 200.48458,173.06362 200.06458,173.01112 199.66208,172.94112 199.22458,172.92362 198.80458,172.88862 198.52458,172.87112 V 171.29612 Q 198.85708,171.31362 199.32958,171.36612 199.81958,171.41862 200.29208,171.48862 200.76458,171.55862 201.09708,171.62862 202.02458,171.82112 202.42708,172.36362 202.82958,172.90612 202.82958,173.67612 202.82958,174.28862 202.61958,174.76112 202.42708,175.21612 202.21708,175.63612 202.02458,176.05612 202.02458,176.56362 202.02458,176.96612 202.30458,177.40362 202.60208,177.84112 203.05708,178.13862 203.52958,178.43612 204.01958,178.43612 Z"
         id="path169" />
      <path
         d="M 225.54461,185.29612 V 186.78362 H 220.66211 V 171.55862 H 225.54461 V 173.04612 H 222.32461 V 185.29612 Z"
         id="path171" />
      <path
         d="M 230.79462,185.29612 H 234.01462 V 173.04612 H 230.79462 V 171.55862 H 235.67712 V 186.78362 H 230.79462 Z"
         id="path173" />
      <path
         d="M 252.10966,185.47112 Q 252.63466,186.38112 253.47466,186.69612 254.31466,187.01112 255.25966,187.01112 256.81716,187.01112 257.44716,186.52112 258.09466,186.03112 258.09466,185.33112 258.09466,184.82362 257.62216,184.50862 257.14966,184.17612 255.80216,184.17612 H 254.83966 Q 253.03716,184.17612 252.19716,183.65112 251.35716,183.10862 251.35716,182.42612 251.35716,181.98862 251.61966,181.69112 251.88216,181.39362 252.24966,181.20112 252.61716,181.00862 252.93216,180.93862 252.19716,180.55362 251.72466,179.87112 251.26966,179.17112 251.26966,178.24362 251.26966,177.24612 251.77716,176.45862 252.28466,175.67112 253.15966,175.23362 254.03466,174.77862 255.15466,174.77862 256.29216,174.77862 257.20216,175.26862 257.63966,175.14612 257.76216,174.63862 257.90216,174.13112 257.90216,173.46612 H 259.73966 Q 259.73966,174.53362 259.40716,175.18112 259.09216,175.82862 258.23466,176.07362 258.60216,176.51112 258.79466,177.07112 259.00466,177.61362 259.00466,178.24362 259.00466,179.39862 258.44466,180.09862 257.88466,180.79862 256.95716,181.13112 256.02966,181.44612 254.92716,181.49862 254.13966,181.53362 253.59716,181.69112 253.07216,181.84862 253.07216,182.16362 253.07216,182.40862 253.38716,182.53112 253.70216,182.63612 254.15716,182.67112 254.62966,182.68862 255.10216,182.68862 H 255.62716 Q 257.81466,182.68862 258.77716,183.40612 259.73966,184.10612 259.73966,185.26112 259.73966,186.66112 258.63716,187.55362 257.53466,188.46362 255.29466,188.46362 253.77216,188.46362 252.61716,187.92112 251.47966,187.39612 250.81466,186.17112 Z M 255.15466,180.04612 Q 256.22216,180.04612 256.78216,179.57362 257.34216,179.10112 257.32466,178.24362 257.32466,177.75362 257.06216,177.31612 256.81716,176.87862 256.32716,176.59862 255.85466,176.30112 255.15466,176.30112 254.45466,176.30112 253.96466,176.59862 253.47466,176.87862 253.21216,177.31612 252.96716,177.75362 252.94966,178.24362 252.93216,179.10112 253.54466,179.57362 254.15716,180.04612 255.15466,180.04612 Z"
         id="path175" />
      <path
         d="M 261.94467,175.82862 Q 261.94467,174.72612 262.41717,173.86862 262.88967,172.99362 263.79967,172.48612 264.70967,171.97862 266.00467,171.97862 267.22967,171.97862 268.13967,172.53862 269.06717,173.08112 269.59217,174.11362 270.11717,175.12862 270.11717,176.58112 270.11717,179.06612 268.89217,181.11362 267.66717,183.14362 265.42717,184.94612 L 264.28967,183.73862 Q 265.25217,183.03862 266.14467,182.11112 267.03717,181.16612 267.64967,180.18612 268.27967,179.18862 268.43717,178.34862 267.57967,179.73112 265.65467,179.73112 264.60467,179.73112 263.76467,179.20612 262.92467,178.68112 262.43467,177.80612 261.94467,176.91362 261.94467,175.82862 Z M 265.95217,178.19112 Q 266.98467,178.19112 267.63217,177.52612 268.29717,176.86112 268.29717,175.84612 268.29717,174.84862 267.63217,174.18362 266.98467,173.51862 265.95217,173.51862 264.93717,173.51862 264.27217,174.16612 263.62467,174.81362 263.62467,175.84612 263.62467,176.89612 264.27217,177.54362 264.93717,178.19112 265.95217,178.19112 Z"
         id="path177" />
      <path
         d="M 278.79719,185.08612 V 183.49362 Q 278.35969,184.08862 277.72969,184.45612 277.11719,184.82362 276.32969,184.82362 275.38469,184.82362 274.68469,184.42112 273.98469,184.00112 273.51219,183.28362 273.03969,182.56612 272.79469,181.67362 272.56719,180.76362 272.56719,179.80112 272.56719,178.48862 272.98719,177.35112 273.40719,176.19612 274.24719,175.49612 275.08719,174.77862 276.32969,174.77862 277.13469,174.77862 277.74719,175.11112 278.37719,175.44362 278.81469,175.98612 L 278.97219,174.91862 H 280.45969 V 185.08612 Q 280.45969,185.76862 280.56469,186.10112 280.68719,186.43362 281.03719,186.53862 281.40469,186.64362 282.15719,186.64362 V 188.18362 H 281.07219 Q 280.10969,188.18362 279.61969,187.78112 279.12969,187.37862 278.95469,186.67862 278.79719,185.97862 278.79719,185.08612 Z M 276.52219,176.30112 Q 275.87469,176.30112 275.41969,176.61612 274.98219,176.93112 274.71969,177.45612 274.45719,177.96362 274.33469,178.57612 274.21219,179.18862 274.21219,179.80112 274.21219,180.39612 274.33469,181.00862 274.45719,181.62112 274.71969,182.14612 274.98219,182.65362 275.41969,182.96862 275.87469,183.28362 276.52219,183.28362 277.32719,183.28362 277.90469,182.74112 278.48219,182.19862 278.79719,181.46362 V 178.05112 Q 278.48219,177.31612 277.90469,176.80862 277.32719,176.30112 276.52219,176.30112 Z"
         id="path179" />
      <path
         d="M 288.38719,184.96362 Q 286.70719,184.96362 285.49969,184.19362 284.30969,183.42362 283.66219,181.98862 283.03219,180.53612 283.03219,178.52362 283.03219,175.44362 284.34469,173.71112 285.67469,171.97862 288.03719,171.97862 289.66469,171.97862 290.69719,172.66112 291.72969,173.34362 292.37719,174.79612 L 290.95969,175.49612 Q 290.46969,174.53362 289.78719,174.04362 289.10469,173.55362 288.07219,173.55362 286.51469,173.55362 285.63969,174.86612 284.76469,176.17862 284.76469,178.52362 284.76469,180.81612 285.72719,182.11112 286.68969,183.38862 288.38719,183.38862 289.33219,183.38862 290.08469,183.10862 290.83719,182.82862 291.58969,182.18112 L 292.58719,183.45862 Q 291.64219,184.26362 290.66219,184.61362 289.69969,184.96362 288.38719,184.96362 Z"
         id="path181" />
      <path
         d="M 298.85221,178.73362 H 303.33221 V 183.56362 Q 302.42221,184.31612 301.49471,184.64862 300.56721,184.96362 299.32471,184.96362 297.64471,184.96362 296.43721,184.19362 295.24721,183.42362 294.59971,181.98862 293.96971,180.53612 293.96971,178.52362 293.96971,175.44362 295.31721,173.71112 296.68221,171.97862 299.32471,171.97862 300.46221,171.97862 301.37221,172.27612 302.29971,172.55612 302.92971,173.01112 L 302.14221,174.25362 Q 301.51221,173.79862 300.74221,173.65862 299.97221,173.50112 299.35971,173.51862 297.43471,173.55362 296.55971,174.88362 295.68471,176.21362 295.68471,178.52362 295.68471,180.79862 296.64721,182.09362 297.62721,183.38862 299.32471,183.38862 300.61971,183.38862 301.61721,182.82862 V 180.27362 H 298.85221 Z"
         id="path183" />
      <path
         d="M 309.47472,184.96362 Q 307.74222,184.82362 306.70972,183.96612 305.67722,183.10862 305.22222,181.69112 304.76722,180.27362 304.76722,178.47112 304.76722,177.10612 305.01222,175.93362 305.27472,174.76112 305.81722,173.86862 306.37722,172.97612 307.26972,172.48612 308.17972,171.97862 309.47472,171.97862 310.78722,171.97862 311.67972,172.48612 312.58972,172.97612 313.13222,173.86862 313.69222,174.76112 313.93722,175.93362 314.18222,177.10612 314.18222,178.47112 314.18222,179.78362 313.90222,180.97362 313.63972,182.14612 313.09722,183.03862 L 314.53222,185.01612 313.32472,186.04862 312.11722,184.19362 Q 311.59222,184.61362 310.92722,184.82362 310.27972,185.03362 309.47472,184.96362 Z M 309.15972,179.87112 Q 310.05222,179.87112 310.75222,180.36112 311.45222,180.83362 312.02972,181.56862 312.27472,180.92112 312.36222,180.13362 312.46722,179.32862 312.46722,178.47112 312.46722,177.49112 312.32722,176.61612 312.20472,175.72362 311.87222,175.04112 311.55722,174.34112 310.96222,173.93862 310.38472,173.53612 309.47472,173.53612 308.56472,173.53612 307.98722,173.93862 307.40972,174.34112 307.07722,175.04112 306.74472,175.72362 306.60472,176.61612 306.48222,177.49112 306.48222,178.47112 306.48222,179.08362 306.51722,179.67862 306.56972,180.25612 306.69222,180.76362 307.18222,180.39612 307.79472,180.13362 308.40722,179.87112 309.15972,179.87112 Z M 309.47472,183.40612 Q 310.03472,183.40612 310.45472,183.24862 310.89222,183.09112 311.22472,182.81112 310.76972,182.16362 310.24472,181.69112 309.71972,181.21862 309.05472,181.21862 308.49472,181.21862 308.00472,181.51612 307.53222,181.79612 307.19972,182.14612 307.53222,182.72362 308.09222,183.07362 308.65222,183.40612 309.47472,183.40612 Z"
         id="path185" />
      <path
         d="M 330.80726,179.69612 Q 330.28226,179.20612 329.93226,178.99612 329.59976,178.76862 329.30226,178.85612 329.02226,178.92612 328.61976,179.34612 328.23476,179.76612 327.56976,180.53612 L 326.51976,179.67862 Q 327.44726,178.52362 328.09476,177.96362 328.74226,177.38612 329.26726,177.31612 329.79226,177.24612 330.35226,177.59612 330.92976,177.94612 331.68226,178.62862 332.20726,179.11862 332.53976,179.34612 332.88976,179.55612 333.16976,179.48612 333.46726,179.39862 333.86976,178.97862 334.27226,178.55862 334.91976,177.78862 L 335.96976,178.64612 Q 335.04226,179.80112 334.39476,180.37862 333.74726,180.93862 333.22226,181.00862 332.69726,181.07862 332.13726,180.72862 331.57726,180.37862 330.80726,179.69612 Z"
         id="path187" />
      <path
         d="M 345.94477,178.55862 V 180.06362 H 338.24477 V 178.55862 Z"
         id="path189" />
      <path
         d="M 353.73228,183.70362 H 352.15728 V 180.06362 H 348.83228 V 178.55862 H 352.15728 V 174.91862 H 353.73228 V 178.55862 H 357.05728 V 180.06362 H 353.73228 Z"
         id="path191" />
      <path
         d="M 370.09481,184.80612 V 183.10862 L 376.35981,179.31112 370.09481,175.53112 V 173.83362 H 370.26981 L 377.61981,178.45362 V 180.18612 L 370.26981,184.80612 Z M 370.79481,177.19362 V 178.45362 H 360.11981 V 177.19362 Z M 370.79481,180.16862 V 181.42862 H 360.11981 V 180.16862 Z"
         id="path193" />
    </g>
  </g>
</svg>
