<?xml version="1.0" encoding="UTF-8" standalone="no"?>
<svg
   version="1.1"
   id="svg2"
   viewBox="0 0 305.71777 108.28369"
   height="30.560062mm"
   width="86.28035mm"
   sodipodi:docname="0xProto Nerd Font.svg"
   xmlns:inkscape="http://www.inkscape.org/namespaces/inkscape"
   xmlns:sodipodi="http://sodipodi.sourceforge.net/DTD/sodipodi-0.dtd"
   xmlns="http://www.w3.org/2000/svg"
   xmlns:svg="http://www.w3.org/2000/svg"
   xmlns:rdf="http://www.w3.org/1999/02/22-rdf-syntax-ns#"
   xmlns:cc="http://creativecommons.org/ns#"
   xmlns:dc="http://purl.org/dc/elements/1.1/">
  <sodipodi:namedview
     id="namedview12"
     pagecolor="#ffffff"
     bordercolor="#666666"
     borderopacity="1.0"
     inkscape:showpageshadow="2"
     inkscape:pageopacity="0.0"
     inkscape:pagecheckerboard="0"
     inkscape:deskcolor="#d1d1d1"
     inkscape:document-units="mm" />
  <defs
     id="defs4" />
  <metadata
     id="metadata7">
    <rdf:RDF>
      <cc:Work
         rdf:about="">
        <dc:format>image/svg+xml</dc:format>
        <dc:type
           rdf:resource="http://purl.org/dc/dcmitype/StillImage" />
        <dc:title />
      </cc:Work>
    </rdf:RDF>
  </metadata>
  <g
     id="layer1"
     transform="translate(-64.669888,-80.040077)">
    <g
       aria-label="0xProto Nerd Font"
       id="text4136"
       style="font-size:27.5px;line-height:125%;font-family:'0unknown Nerd Font';text-decoration:underline;text-decoration-line:underline;letter-spacing:0px;word-spacing:0px;fill:#ffffff;stroke-width:1px">
      <path
         d="M 71.598598,82.671913 Q 69.503872,82.671913 68.443081,84.739784 67.395718,86.794228 67.395718,90.92997 67.395718,95.052284 68.443081,97.120155 69.503872,99.174599 71.598598,99.174599 73.706753,99.174599 74.754116,97.120155 75.814907,95.052284 75.814907,90.92997 75.814907,86.794228 74.754116,84.739784 73.706753,82.671913 71.598598,82.671913 Z M 71.598598,80.523476 Q 74.96896,80.523476 76.741421,83.195595 78.527309,85.854286 78.527309,90.92997 78.527309,95.992226 76.741421,98.664345 74.96896,101.32304 71.598598,101.32304 68.228237,101.32304 66.442348,98.664345 64.669888,95.992226 64.669888,90.92997 64.669888,85.854286 66.442348,83.195595 68.228237,80.523476 71.598598,80.523476 Z"
         id="path14" />
      <path
         d="M 95.446255,85.894569 90.008022,93.212685 95.728237,100.93363 H 92.814419 L 88.436977,95.025429 84.059536,100.93363 H 81.145718 L 86.986782,93.06498 81.642544,85.894569 H 84.556362 L 88.544399,91.252235 92.532436,85.894569 Z"
         id="path16" />
      <path
         d="M 102.03927,83.115028 V 90.647987 H 105.44992 Q 107.34323,90.647987 108.37716,89.667763 109.4111,88.687538 109.4111,86.874794 109.4111,85.075478 108.37716,84.095253 107.34323,83.115028 105.44992,83.115028 Z M 99.32687,80.886024 H 105.44992 Q 108.82028,80.886024 110.53903,82.416786 112.27121,83.93412 112.27121,86.874794 112.27121,89.842323 110.53903,91.359657 108.82028,92.876991 105.44992,92.876991 H 102.03927 V 100.93363 H 99.32687 Z"
         id="path18" />
      <path
         d="M 124.0339,88.20414 Q 123.61764,87.96244 123.12082,87.855019 122.63742,87.734169 122.0466,87.734169 119.95187,87.734169 118.82394,89.103798 117.70944,90.459999 117.70944,93.011269 V 100.93363 H 115.22531 V 85.894569 H 117.70944 V 88.230995 Q 118.48825,86.861366 119.73703,86.203407 120.98581,85.532021 122.77169,85.532021 123.02682,85.532021 123.33566,85.572304 123.6445,85.599159 124.02047,85.666298 Z"
         id="path20" />
      <path
         d="M 131.84884,87.626747 Q 129.86154,87.626747 128.70675,89.184364 127.55197,90.728554 127.55197,93.427528 127.55197,96.126503 128.69333,97.68412 129.84811,99.22831 131.84884,99.22831 133.82272,99.22831 134.9775,97.670692 136.13229,96.113075 136.13229,93.427528 136.13229,90.755409 134.9775,89.197792 133.82272,87.626747 131.84884,87.626747 Z M 131.84884,85.532021 Q 135.0715,85.532021 136.9111,87.626747 138.7507,89.721474 138.7507,93.427528 138.7507,97.120155 136.9111,99.22831 135.0715,101.32304 131.84884,101.32304 128.61276,101.32304 126.77316,99.22831 124.94699,97.120155 124.94699,93.427528 124.94699,89.721474 126.77316,87.626747 128.61276,85.532021 131.84884,85.532021 Z"
         id="path22" />
      <path
         d="M 145.29,81.62455 V 85.894569 H 150.37912 V 87.814735 H 145.29 V 95.978798 Q 145.29,97.818398 145.78683,98.342079 146.29708,98.865761 147.84127,98.865761 H 150.37912 V 100.93363 H 147.84127 Q 144.98117,100.93363 143.89352,99.872841 142.80587,98.798622 142.80587,95.978798 V 87.814735 H 140.99313 V 85.894569 H 142.80587 V 81.62455 Z"
         id="path24" />
      <path
         d="M 159.45626,87.626747 Q 157.46896,87.626747 156.31417,89.184364 155.15939,90.728554 155.15939,93.427528 155.15939,96.126503 156.30075,97.68412 157.45553,99.22831 159.45626,99.22831 161.43014,99.22831 162.58493,97.670692 163.73971,96.113075 163.73971,93.427528 163.73971,90.755409 162.58493,89.197792 161.43014,87.626747 159.45626,87.626747 Z M 159.45626,85.532021 Q 162.67892,85.532021 164.51852,87.626747 166.35812,89.721474 166.35812,93.427528 166.35812,97.120155 164.51852,99.22831 162.67892,101.32304 159.45626,101.32304 156.22018,101.32304 154.38058,99.22831 152.55441,97.120155 152.55441,93.427528 152.55441,89.721474 154.38058,87.626747 156.22018,85.532021 159.45626,85.532021 Z"
         id="path26" />
      <path
         d="M 179.30246,80.886024 H 182.9548 L 191.84396,97.657265 V 80.886024 H 194.4758 V 100.93363 H 190.82345 L 181.93429,84.162392 V 100.93363 H 179.30246 Z"
         id="path28" />
      <path
         d="M 212.63009,92.796425 V 94.004921 H 201.27023 Q 201.43136,96.55619 202.80099,97.898964 204.18405,99.22831 206.64132,99.22831 208.06466,99.22831 209.39401,98.879189 210.73678,98.530067 212.0527,97.831825 V 100.16825 Q 210.72335,100.73222 209.32687,101.02763 207.93039,101.32304 206.49362,101.32304 202.89499,101.32304 200.78683,99.22831 198.6921,97.133583 198.6921,93.561806 198.6921,89.869179 200.67941,87.707314 202.68014,85.532021 206.06393,85.532021 209.0986,85.532021 210.85763,87.49247 212.63009,89.439491 212.63009,92.796425 Z M 210.15939,92.071327 Q 210.13253,90.043739 209.01803,88.835243 207.91696,87.626747 206.09079,87.626747 204.02291,87.626747 202.77414,88.79496 201.53878,89.963173 201.3508,92.084755 Z"
         id="path30" />
      <path
         d="M 225.39987,88.20414 Q 224.98361,87.96244 224.48678,87.855019 224.00338,87.734169 223.41256,87.734169 221.31784,87.734169 220.18991,89.103798 219.07541,90.459999 219.07541,93.011269 V 100.93363 H 216.59127 V 85.894569 H 219.07541 V 88.230995 Q 219.85421,86.861366 221.10299,86.203407 222.35177,85.532021 224.13766,85.532021 224.39279,85.532021 224.70163,85.572304 225.01046,85.599159 225.38644,85.666298 Z"
         id="path32" />
      <path
         d="M 237.40426,88.177284 V 80.040077 H 239.87497 V 100.93363 H 237.40426 V 98.677773 Q 236.62545,100.02055 235.43039,100.6785 234.24874,101.32304 232.58371,101.32304 229.85788,101.32304 228.13913,99.147743 226.4338,96.97245 226.4338,93.427528 226.4338,89.882607 228.13913,87.707314 229.85788,85.532021 232.58371,85.532021 234.24874,85.532021 235.43039,86.18998 236.62545,86.834511 237.40426,88.177284 Z M 228.98507,93.427528 Q 228.98507,96.153358 230.09958,97.710976 231.2275,99.255165 233.18795,99.255165 235.1484,99.255165 236.27633,97.710976 237.40426,96.153358 237.40426,93.427528 237.40426,90.701698 236.27633,89.157509 235.1484,87.599892 233.18795,87.599892 231.2275,87.599892 230.09958,89.157509 228.98507,90.701698 228.98507,93.427528 Z"
         id="path34" />
      <path
         d="M 253.81295,80.886024 H 265.33395 V 83.168739 H 256.52536 V 89.076942 H 264.47458 V 91.359657 H 256.52536 V 100.93363 H 253.81295 Z"
         id="path36" />
      <path
         d="M 274.37082,87.626747 Q 272.38351,87.626747 271.22873,89.184364 270.07394,90.728554 270.07394,93.427528 270.07394,96.126503 271.2153,97.68412 272.37008,99.22831 274.37082,99.22831 276.34469,99.22831 277.49948,97.670692 278.65426,96.113075 278.65426,93.427528 278.65426,90.755409 277.49948,89.197792 276.34469,87.626747 274.37082,87.626747 Z M 274.37082,85.532021 Q 277.59347,85.532021 279.43307,87.626747 281.27267,89.721474 281.27267,93.427528 281.27267,97.120155 279.43307,99.22831 277.59347,101.32304 274.37082,101.32304 271.13473,101.32304 269.29513,99.22831 267.46896,97.120155 267.46896,93.427528 267.46896,89.721474 269.29513,87.626747 271.13473,85.532021 274.37082,85.532021 Z"
         id="path38" />
      <path
         d="M 297.86935,91.856483 V 100.93363 H 295.39865 V 91.93705 Q 295.39865,89.80204 294.56613,88.741249 293.73361,87.680458 292.06857,87.680458 290.06784,87.680458 288.91305,88.956093 287.75827,90.231728 287.75827,92.433876 V 100.93363 H 285.27414 V 85.894569 H 287.75827 V 88.230995 Q 288.6445,86.874794 289.83957,86.203407 291.04806,85.532021 292.61911,85.532021 295.21066,85.532021 296.54,87.143349 297.86935,88.741249 297.86935,91.856483 Z"
         id="path40" />
      <path
         d="M 305.24118,81.62455 V 85.894569 H 310.33029 V 87.814735 H 305.24118 V 95.978798 Q 305.24118,97.818398 305.738,98.342079 306.24826,98.865761 307.79245,98.865761 H 310.33029 V 100.93363 H 307.79245 Q 304.93234,100.93363 303.84469,99.872841 302.75705,98.798622 302.75705,95.978798 V 87.814735 H 300.9443 V 85.894569 H 302.75705 V 81.62455 Z"
         id="path42" />
    </g>
    <g
       aria-label="abcdefghijklmnopqrstuvwxyzABCDEFGHIJKLMNOPQRSTUVWXYZ oO08 iIlL1 {} [] g9qCGQ ~-+=&gt;"
       id="text4140"
       style="font-size:27.5px;line-height:125%;font-family:'0unknown Nerd Font';letter-spacing:0px;word-spacing:0px;fill:#ffffff;stroke-width:1px">
      <path
         d="M 71.417938,136.12283 Q 69.512421,136.12283 68.777557,136.55862 68.042694,136.99442 68.042694,138.04544 68.042694,138.88284 68.589569,139.37845 69.144989,139.86551 70.093475,139.86551 71.400848,139.86551 72.186981,138.94266 72.981659,138.01126 72.981659,136.47318 V 136.12283 Z M 74.553925,135.47342 V 140.93362 H 72.981659 V 139.48099 Q 72.443329,140.35257 71.640106,140.77127 70.836884,141.18143 69.674774,141.18143 68.205048,141.18143 67.333466,140.36111 66.470428,139.53226 66.470428,138.14798 66.470428,136.53299 67.547089,135.71268 68.632294,134.89236 70.777069,134.89236 H 72.981659 V 134.73856 Q 72.981659,133.65335 72.263885,133.06375 71.554657,132.46561 70.264374,132.46561 69.444061,132.46561 68.666473,132.66214 67.888885,132.85867 67.171112,133.25174 V 131.7991 Q 68.034149,131.46585 68.845917,131.3035 69.657684,131.1326 70.426727,131.1326 72.503143,131.1326 73.528534,132.20926 74.553925,133.28592 74.553925,135.47342 Z"
         style="font-size:17.5px"
         id="path45" />
      <path
         d="M 84.662567,136.15701 Q 84.662567,134.42239 83.944794,133.43973 83.235565,132.44852 81.988007,132.44852 80.740448,132.44852 80.022675,133.43973 79.313446,134.42239 79.313446,136.15701 79.313446,137.89163 80.022675,138.88284 80.740448,139.86551 81.988007,139.86551 83.235565,139.86551 83.944794,138.88284 84.662567,137.89163 84.662567,136.15701 Z M 79.313446,132.81595 Q 79.809052,131.96146 80.561005,131.5513 81.321503,131.1326 82.372528,131.1326 84.115692,131.1326 85.200897,132.51688 86.294647,133.90115 86.294647,136.15701 86.294647,138.41287 85.200897,139.79715 84.115692,141.18143 82.372528,141.18143 81.321503,141.18143 80.561005,140.77127 79.809052,140.35257 79.313446,139.49808 V 140.93362 H 77.732635 V 127.63773 H 79.313446 Z"
         style="font-size:17.5px"
         id="path47" />
      <path
         d="M 95.788055,131.73074 V 133.20047 Q 95.121552,132.83304 94.446503,132.65359 93.779999,132.46561 93.096405,132.46561 91.566864,132.46561 90.720917,133.43973 89.874969,134.4053 89.874969,136.15701 89.874969,137.90872 90.720917,138.88284 91.566864,139.84842 93.096405,139.84842 93.779999,139.84842 94.446503,139.66898 95.121552,139.48099 95.788055,139.11356 V 140.56619 Q 95.130096,140.87381 94.420868,141.02762 93.720184,141.18143 92.925507,141.18143 90.763641,141.18143 89.490448,139.82278 88.217255,138.46414 88.217255,136.15701 88.217255,133.8157 89.498993,132.47415 90.789276,131.1326 93.028046,131.1326 93.754364,131.1326 94.446503,131.28641 95.138641,131.43167 95.788055,131.73074 Z"
         style="font-size:17.5px"
         id="path49" />
      <path
         d="M 104.82004,132.81595 V 127.63773 H 106.3923 V 140.93362 H 104.82004 V 139.49808 Q 104.32443,140.35257 103.56393,140.77127 102.81198,141.18143 101.75241,141.18143 100.01779,141.18143 98.924042,139.79715 97.838837,138.41287 97.838837,136.15701 97.838837,133.90115 98.924042,132.51688 100.01779,131.1326 101.75241,131.1326 102.81198,131.1326 103.56393,131.5513 104.32443,131.96146 104.82004,132.81595 Z M 99.462372,136.15701 Q 99.462372,137.89163 100.1716,138.88284 100.88937,139.86551 102.13693,139.86551 103.38449,139.86551 104.10226,138.88284 104.82004,137.89163 104.82004,136.15701 104.82004,134.42239 104.10226,133.43973 103.38449,132.44852 102.13693,132.44852 100.88937,132.44852 100.1716,133.43973 99.462372,134.42239 99.462372,136.15701 Z"
         style="font-size:17.5px"
         id="path51" />
      <path
         d="M 117.81686,135.7554 V 136.52444 H 110.58786 Q 110.6904,138.14798 111.56198,139.00247 112.44211,139.84842 114.00583,139.84842 114.91159,139.84842 115.75754,139.62625 116.61203,139.40408 117.44943,138.95975 V 140.44656 Q 116.60349,140.80545 115.71481,140.99344 114.82614,141.18143 113.91183,141.18143 111.6218,141.18143 110.28024,139.84842 108.94724,138.51541 108.94724,136.24246 108.94724,133.89261 110.21188,132.51688 111.48508,131.1326 113.6384,131.1326 115.56955,131.1326 116.68893,132.38016 117.81686,133.61917 117.81686,135.7554 Z M 116.2446,135.29398 Q 116.22751,134.00369 115.51828,133.23465 114.8176,132.46561 113.65549,132.46561 112.33957,132.46561 111.54489,133.20901 110.75876,133.95242 110.63913,135.30252 Z"
         style="font-size:17.5px"
         id="path53" />
      <path
         d="M 125.2424,127.63773 V 128.9451 H 123.73849 Q 122.89255,128.9451 122.5593,129.2869 122.23459,129.62869 122.23459,130.51736 V 131.36331 H 124.8237 V 132.58524 H 122.23459 V 140.93362 H 120.65378 V 132.58524 H 119.14987 V 131.36331 H 120.65378 V 130.69681 Q 120.65378,129.09891 121.39719,128.37259 122.14059,127.63773 123.75558,127.63773 Z"
         style="font-size:17.5px"
         id="path55" />
      <path
         d="M 132.85593,136.03738 Q 132.85593,134.3284 132.1467,133.38846 131.44601,132.44852 130.17282,132.44852 128.90817,132.44852 128.19894,133.38846 127.49826,134.3284 127.49826,136.03738 127.49826,137.73782 128.19894,138.67776 128.90817,139.61771 130.17282,139.61771 131.44601,139.61771 132.1467,138.67776 132.85593,137.73782 132.85593,136.03738 Z M 134.42819,139.74588 Q 134.42819,142.18973 133.34299,143.37747 132.25778,144.57376 130.01901,144.57376 129.19016,144.57376 128.45529,144.44559 127.72043,144.32596 127.02829,144.06961 V 142.54007 Q 127.72043,142.91605 128.39548,143.09549 129.07053,143.27493 129.77121,143.27493 131.31784,143.27493 132.08688,142.46317 132.85593,141.65994 132.85593,140.02786 V 139.25027 Q 132.36887,140.09622 131.60837,140.51492 130.84787,140.93362 129.7883,140.93362 128.02805,140.93362 126.95139,139.59207 125.87473,138.25052 125.87473,136.03738 125.87473,133.8157 126.95139,132.47415 128.02805,131.1326 129.7883,131.1326 130.84787,131.1326 131.60837,131.5513 132.36887,131.97 132.85593,132.81595 V 131.36331 H 134.42819 Z"
         style="font-size:17.5px"
         id="path57" />
      <path
         d="M 145.62204,135.15726 V 140.93362 H 144.04977 V 135.20853 Q 144.04977,133.84988 143.51999,133.17484 142.9902,132.49979 141.93063,132.49979 140.65744,132.49979 139.92258,133.31155 139.18771,134.12332 139.18771,135.52469 V 140.93362 H 137.6069 V 127.63773 H 139.18771 V 132.85013 Q 139.75168,131.98709 140.51218,131.55984 141.28122,131.1326 142.28098,131.1326 143.93015,131.1326 144.77609,132.15799 145.62204,133.17484 145.62204,135.15726 Z"
         style="font-size:17.5px"
         id="path59" />
      <path
         d="M 148.75803,131.36331 H 150.33029 V 140.93362 H 148.75803 Z M 148.75803,127.63773 H 150.33029 V 129.62869 H 148.75803 Z"
         style="font-size:17.5px"
         id="path61" />
      <path
         d="M 153.62009,131.36331 H 155.19235 V 141.10452 Q 155.19235,142.93314 154.49167,143.75345 153.79953,144.57376 152.2529,144.57376 H 151.65475 V 143.24075 H 152.07346 Q 152.97067,143.24075 153.29538,142.82205 153.62009,142.4119 153.62009,141.10452 Z M 153.62009,127.63773 H 155.19235 V 129.62869 H 153.62009 Z"
         style="font-size:17.5px"
         id="path63" />
      <path
         d="M 158.42233,127.63773 H 160.00314 V 135.49051 L 164.69431,131.36331 H 166.70236 L 161.62668,135.84085 166.91599,140.93362 H 164.8652 L 160.00314,136.25955 V 140.93362 H 158.42233 Z"
         style="font-size:17.5px"
         id="path65" />
      <path
         d="M 168.61642,127.63773 H 170.18869 V 140.93362 H 168.61642 Z"
         style="font-size:17.5px"
         id="path67" />
      <path
         d="M 180.92966,133.20047 Q 181.51926,132.1409 182.33957,131.63675 183.15988,131.1326 184.27072,131.1326 185.76608,131.1326 186.57785,132.18362 187.38962,133.2261 187.38962,135.15726 V 140.93362 H 185.80881 V 135.20853 Q 185.80881,133.83279 185.32175,133.16629 184.83469,132.49979 183.83493,132.49979 182.61301,132.49979 181.90378,133.31155 181.19455,134.12332 181.19455,135.52469 V 140.93362 H 179.61374 V 135.20853 Q 179.61374,133.82425 179.12668,133.16629 178.63962,132.49979 177.62277,132.49979 176.41794,132.49979 175.70871,133.3201 174.99948,134.13187 174.99948,135.52469 V 140.93362 H 173.41867 V 131.36331 H 174.99948 V 132.85013 Q 175.53781,131.97 176.28976,131.5513 177.04172,131.1326 178.07565,131.1326 179.11813,131.1326 179.84445,131.66238 180.57932,132.19217 180.92966,133.20047 Z"
         style="font-size:17.5px"
         id="path69" />
      <path
         d="M 198.48093,135.15726 V 140.93362 H 196.90866 V 135.20853 Q 196.90866,133.84988 196.37888,133.17484 195.84909,132.49979 194.78952,132.49979 193.51633,132.49979 192.78146,133.31155 192.0466,134.12332 192.0466,135.52469 V 140.93362 H 190.46579 V 131.36331 H 192.0466 V 132.85013 Q 192.61057,131.98709 193.37106,131.55984 194.14011,131.1326 195.13986,131.1326 196.78903,131.1326 197.63498,132.15799 198.48093,133.17484 198.48093,135.15726 Z"
         style="font-size:17.5px"
         id="path71" />
      <path
         d="M 205.32541,132.46561 Q 204.06076,132.46561 203.3259,133.45682 202.59103,134.43948 202.59103,136.15701 202.59103,137.87454 203.31735,138.86575 204.05222,139.84842 205.32541,139.84842 206.58151,139.84842 207.31638,138.85721 208.05124,137.866 208.05124,136.15701 208.05124,134.45657 207.31638,133.46536 206.58151,132.46561 205.32541,132.46561 Z M 205.32541,131.1326 Q 207.37619,131.1326 208.54684,132.46561 209.7175,133.79861 209.7175,136.15701 209.7175,138.50687 208.54684,139.84842 207.37619,141.18143 205.32541,141.18143 203.26608,141.18143 202.09543,139.84842 200.93332,138.50687 200.93332,136.15701 200.93332,133.79861 202.09543,132.46561 203.26608,131.1326 205.32541,131.1326 Z"
         style="font-size:17.5px"
         id="path73" />
      <path
         d="M 213.8447,139.49808 V 144.57376 H 212.26389 V 131.36331 H 213.8447 V 132.81595 Q 214.3403,131.96146 215.09225,131.5513 215.85275,131.1326 216.90378,131.1326 218.64694,131.1326 219.73215,132.51688 220.8259,133.90115 220.8259,136.15701 220.8259,138.41287 219.73215,139.79715 218.64694,141.18143 216.90378,141.18143 215.85275,141.18143 215.09225,140.77127 214.3403,140.35257 213.8447,139.49808 Z M 219.19382,136.15701 Q 219.19382,134.42239 218.47604,133.43973 217.76682,132.44852 216.51926,132.44852 215.2717,132.44852 214.55392,133.43973 213.8447,134.42239 213.8447,136.15701 213.8447,137.89163 214.55392,138.88284 215.2717,139.86551 216.51926,139.86551 217.76682,139.86551 218.47604,138.88284 219.19382,137.89163 219.19382,136.15701 Z"
         style="font-size:17.5px"
         id="path75" />
      <path
         d="M 224.37204,136.15701 Q 224.37204,137.89163 225.08127,138.88284 225.79904,139.86551 227.0466,139.86551 228.29416,139.86551 229.01193,138.88284 229.72971,137.89163 229.72971,136.15701 229.72971,134.42239 229.01193,133.43973 228.29416,132.44852 227.0466,132.44852 225.79904,132.44852 225.08127,133.43973 224.37204,134.42239 224.37204,136.15701 Z M 229.72971,139.49808 Q 229.2341,140.35257 228.4736,140.77127 227.72165,141.18143 226.66208,141.18143 224.92746,141.18143 223.83371,139.79715 222.7485,138.41287 222.7485,136.15701 222.7485,133.90115 223.83371,132.51688 224.92746,131.1326 226.66208,131.1326 227.72165,131.1326 228.4736,131.5513 229.2341,131.96146 229.72971,132.81595 V 131.36331 H 231.30197 V 144.57376 H 229.72971 Z"
         style="font-size:17.5px"
         id="path77" />
      <path
         d="M 240.08615,132.83304 Q 239.82126,132.67923 239.5051,132.61087 239.19748,132.53397 238.8215,132.53397 237.48849,132.53397 236.77072,133.40555 236.06149,134.26859 236.06149,135.89212 V 140.93362 H 234.48068 V 131.36331 H 236.06149 V 132.85013 Q 236.5571,131.97855 237.35178,131.55984 238.14645,131.1326 239.28293,131.1326 239.44528,131.1326 239.64182,131.15823 239.83835,131.17532 240.07761,131.21805 Z"
         style="font-size:17.5px"
         id="path79" />
      <path
         d="M 247.8364,131.64529 V 133.13211 Q 247.16989,132.79031 246.45212,132.61942 245.73434,132.44852 244.9653,132.44852 243.79465,132.44852 243.20505,132.8074 242.62399,133.16629 242.62399,133.88406 242.62399,134.43094 243.04269,134.7471 243.4614,135.05472 244.72604,135.3367 L 245.26437,135.45633 Q 246.93918,135.81522 247.63986,136.47318 248.34909,137.12259 248.34909,138.29324 248.34909,139.62625 247.28952,140.40384 246.23849,141.18143 244.39279,141.18143 243.62375,141.18143 242.78635,141.02762 241.95749,140.88235 241.03464,140.58328 V 138.95975 Q 241.90622,139.41263 242.75217,139.64334 243.59811,139.86551 244.42697,139.86551 245.53781,139.86551 246.13596,139.48953 246.7341,139.10501 246.7341,138.41287 246.7341,137.772 246.29831,137.43021 245.87106,137.08841 244.40988,136.77225 L 243.86301,136.64407 Q 242.40182,136.33646 241.75241,135.70413 241.103,135.06326 241.103,133.95242 241.103,132.60233 242.06003,131.86746 243.01706,131.1326 244.77731,131.1326 245.6489,131.1326 246.41794,131.26077 247.18698,131.38895 247.8364,131.64529 Z"
         style="font-size:17.5px"
         id="path81" />
      <path
         d="M 252.40793,128.64603 V 131.36331 H 255.64645 V 132.58524 H 252.40793 V 137.78055 Q 252.40793,138.9512 252.72409,139.28445 253.0488,139.61771 254.03146,139.61771 H 255.64645 V 140.93362 H 254.03146 Q 252.2114,140.93362 251.51926,140.25858 250.82712,139.57498 250.82712,137.78055 V 132.58524 H 249.67355 V 131.36331 H 250.82712 V 128.64603 Z"
         style="font-size:17.5px"
         id="path83" />
      <path
         d="M 257.55197,137.15677 V 131.36331 H 259.12424 V 137.09695 Q 259.12424,138.4556 259.65402,139.13919 260.18381,139.81424 261.24338,139.81424 262.51657,139.81424 263.25143,139.00247 263.99484,138.1907 263.99484,136.78934 V 131.36331 H 265.56711 V 140.93362 H 263.99484 V 139.4639 Q 263.42233,140.33548 262.66183,140.76273 261.90988,141.18143 260.91013,141.18143 259.26096,141.18143 258.40646,140.15604 257.55197,139.13065 257.55197,137.15677 Z M 261.50827,131.1326 Z"
         style="font-size:17.5px"
         id="path85" />
      <path
         d="M 267.6777,131.36331 H 269.34396 L 272.33469,139.39554 275.32541,131.36331 H 276.99167 L 273.4028,140.93362 H 271.26657 Z"
         style="font-size:17.5px"
         id="path87" />
      <path
         d="M 278.24777,131.36331 H 279.82004 L 281.78537,138.83157 283.74216,131.36331 H 285.59641 L 287.56174,138.83157 289.51852,131.36331 H 291.09079 L 288.58713,140.93362 H 286.73288 L 284.67355,133.08939 282.60568,140.93362 H 280.75143 Z"
         style="font-size:17.5px"
         id="path89" />
      <path
         d="M 301.43015,131.36331 297.96945,136.02029 301.60959,140.93362 H 299.75534 L 296.9697,137.17386 294.18405,140.93362 H 292.3298 L 296.04684,135.9263 292.64597,131.36331 H 294.50021 L 297.03806,134.77274 299.5759,131.36331 Z"
         style="font-size:17.5px"
         id="path91" />
      <path
         d="M 307.8132,141.8223 Q 307.1467,143.53128 306.51437,144.05252 305.88205,144.57376 304.82248,144.57376 H 303.56638 V 143.25784 H 304.48923 Q 305.13864,143.25784 305.49753,142.95023 305.85641,142.64261 306.29221,141.49759 L 306.57419,140.77982 302.70334,131.36331 H 304.3696 L 307.36032,138.84866 310.35104,131.36331 H 312.0173 Z"
         style="font-size:17.5px"
         id="path93" />
      <path
         d="M 313.50412,131.36331 H 320.97238 V 132.79886 L 315.0593,139.67752 H 320.97238 V 140.93362 H 313.2905 V 139.49808 L 319.20358,132.61942 H 313.50412 Z"
         style="font-size:17.5px"
         id="path95" />
      <path
         d="M 71.400848,151.7515 69.05954,158.10037 H 73.750702 Z M 70.426727,150.05106 H 72.383514 L 77.245575,162.80862 H 75.451141 L 74.289032,159.53592 H 68.5383 L 67.37619,162.80862 H 65.556122 Z"
         style="font-size:17.5px"
         id="path97" />
      <path
         d="M 80.834442,156.71609 V 161.39017 H 83.602997 Q 84.995819,161.39017 85.662323,160.81766 86.337372,160.2366 86.337372,159.04886 86.337372,157.85257 85.662323,157.2886 84.995819,156.71609 83.602997,156.71609 Z M 80.834442,151.46951 V 155.31473 H 83.389374 Q 84.654022,155.31473 85.269257,154.84476 85.893036,154.36624 85.893036,153.39212 85.893036,152.42654 85.269257,151.94803 84.654022,151.46951 83.389374,151.46951 Z M 79.108368,150.05106 H 83.517548 Q 85.491425,150.05106 86.55954,150.87137 87.627655,151.69168 87.627655,153.20413 87.627655,154.37479 87.08078,155.06693 86.533905,155.75906 85.474335,155.92996 86.747528,156.2034 87.448212,157.07498 88.15744,157.93802 88.15744,159.23685 88.15744,160.94583 86.995331,161.87723 85.833221,162.80862 83.688446,162.80862 H 79.108368 Z"
         style="font-size:17.5px"
         id="path99" />
      <path
         d="M 100.35959,151.03372 V 152.85379 Q 99.488007,152.04202 98.496796,151.64041 97.51413,151.2388 96.40329,151.2388 94.21579,151.2388 93.05368,152.58035 91.891571,153.91336 91.891571,156.44266 91.891571,158.96341 93.05368,160.30496 94.21579,161.63797 96.40329,161.63797 97.51413,161.63797 98.496796,161.23636 99.488007,160.83475 100.35959,160.02298 V 161.82596 Q 99.453827,162.44119 98.436981,162.74881 97.42868,163.05643 96.300751,163.05643 93.404022,163.05643 91.737762,161.28763 90.071503,159.51028 90.071503,156.44266 90.071503,153.36649 91.737762,151.59769 93.404022,149.82034 96.300751,149.82034 97.44577,149.82034 98.454071,150.12796 99.470917,150.42703 100.35959,151.03372 Z"
         style="font-size:17.5px"
         id="path101" />
      <path
         d="M 104.75168,151.46951 V 161.39017 H 106.83664 Q 109.47702,161.39017 110.69894,160.19388 111.92941,158.99759 111.92941,156.41702 111.92941,153.85355 110.69894,152.6658 109.47702,151.46951 106.83664,151.46951 Z M 103.0256,150.05106 H 106.57175 Q 110.28024,150.05106 112.01486,151.59769 113.74948,153.13577 113.74948,156.41702 113.74948,159.71536 112.00632,161.26199 110.26315,162.80862 106.57175,162.80862 H 103.0256 Z"
         style="font-size:17.5px"
         id="path103" />
      <path
         d="M 116.50095,150.05106 H 124.56735 V 151.50369 H 118.22702 V 155.28055 H 124.30246 V 156.73318 H 118.22702 V 161.35599 H 124.72116 V 162.80862 H 116.50095 Z"
         style="font-size:17.5px"
         id="path105" />
      <path
         d="M 127.55807,150.05106 H 134.88962 V 151.50369 H 129.28415 V 155.26346 H 134.34274 V 156.71609 H 129.28415 V 162.80862 H 127.55807 Z"
         style="font-size:17.5px"
         id="path107" />
      <path
         d="M 146.32272,160.98856 V 157.56204 H 143.5029 V 156.14359 H 148.03171 V 161.62088 Q 147.03195,162.33011 145.82712,162.69754 144.62228,163.05643 143.2551,163.05643 140.26437,163.05643 138.57248,161.31326 136.88913,159.56155 136.88913,156.44266 136.88913,153.31522 138.57248,151.57205 140.26437,149.82034 143.2551,149.82034 144.50266,149.82034 145.62204,150.12796 146.74997,150.43558 147.69846,151.03372 V 152.87088 Q 146.74142,152.05911 145.66476,151.64896 144.5881,151.2388 143.40036,151.2388 141.05905,151.2388 139.87985,152.54617 138.7092,153.85355 138.7092,156.44266 138.7092,159.02322 139.87985,160.3306 141.05905,161.63797 143.40036,161.63797 144.31467,161.63797 145.03244,161.48416 145.75021,161.32181 146.32272,160.98856 Z"
         style="font-size:17.5px"
         id="path109" />
      <path
         d="M 151.18478,150.05106 H 152.91086 V 155.28055 H 159.18283 V 150.05106 H 160.90891 V 162.80862 H 159.18283 V 156.73318 H 152.91086 V 162.80862 H 151.18478 Z"
         style="font-size:17.5px"
         id="path111" />
      <path
         d="M 164.34396,150.05106 H 166.07004 V 162.80862 H 164.34396 Z"
         style="font-size:17.5px"
         id="path113" />
      <path
         d="M 169.5051,150.05106 H 171.23117 V 161.91995 Q 171.23117,164.22708 170.35104,165.26956 169.47946,166.31204 167.53976,166.31204 H 166.88181 V 164.85941 H 167.42014 Q 168.56516,164.85941 169.03513,164.21854 169.5051,163.57767 169.5051,161.91995 Z"
         style="font-size:17.5px"
         id="path115" />
      <path
         d="M 174.66623,150.05106 H 176.3923 V 155.4429 L 182.1174,150.05106 H 184.33908 L 178.00729,155.99832 184.79196,162.80862 H 182.51901 L 176.3923,156.66483 V 162.80862 H 174.66623 Z"
         style="font-size:17.5px"
         id="path117" />
      <path
         d="M 186.14206,150.05106 H 187.86813 V 161.35599 H 194.08029 V 162.80862 H 186.14206 Z"
         style="font-size:17.5px"
         id="path119" />
      <path
         d="M 195.89182,150.05106 H 198.46384 L 201.71945,158.7327 204.99216,150.05106 H 207.56418 V 162.80862 H 205.88083 V 151.60623 L 202.59103,160.35623 H 200.85641 L 197.56662,151.60623 V 162.80862 H 195.89182 Z"
         style="font-size:17.5px"
         id="path121" />
      <path
         d="M 210.99069,150.05106 H 213.31491 L 218.97165,160.72366 V 150.05106 H 220.64645 V 162.80862 H 218.32224 L 212.6655,152.13602 V 162.80862 H 210.99069 Z"
         style="font-size:17.5px"
         id="path123" />
      <path
         d="M 229.25974,151.22171 Q 227.37985,151.22171 226.26901,152.62308 225.16672,154.02444 225.16672,156.44266 225.16672,158.85233 226.26901,160.25369 227.37985,161.65506 229.25974,161.65506 231.13962,161.65506 232.23337,160.25369 233.33566,158.85233 233.33566,156.44266 233.33566,154.02444 232.23337,152.62308 231.13962,151.22171 229.25974,151.22171 Z M 229.25974,149.82034 Q 231.94284,149.82034 233.54929,151.62332 235.15573,153.41776 235.15573,156.44266 235.15573,159.45901 233.54929,161.26199 231.94284,163.05643 229.25974,163.05643 226.56808,163.05643 224.95309,161.26199 223.34665,159.46756 223.34665,156.44266 223.34665,153.41776 224.95309,151.62332 226.56808,149.82034 229.25974,149.82034 Z"
         style="font-size:17.5px"
         id="path125" />
      <path
         d="M 239.582,151.46951 V 156.26321 H 241.75241 Q 242.95724,156.26321 243.6152,155.63943 244.27316,155.01566 244.27316,153.86209 244.27316,152.71707 243.6152,152.09329 242.95724,151.46951 241.75241,151.46951 Z M 237.85593,150.05106 H 241.75241 Q 243.89719,150.05106 244.99094,151.02518 246.09323,151.99075 246.09323,153.86209 246.09323,155.75052 244.99094,156.71609 243.89719,157.68167 241.75241,157.68167 H 239.582 V 162.80862 H 237.85593 Z"
         style="font-size:17.5px"
         id="path127" />
      <path
         d="M 253.58713,151.22171 Q 251.70724,151.22171 250.59641,152.62308 249.49411,154.02444 249.49411,156.44266 249.49411,158.85233 250.59641,160.25369 251.70724,161.65506 253.58713,161.65506 255.46701,161.65506 256.56076,160.25369 257.66306,158.85233 257.66306,156.44266 257.66306,154.02444 256.56076,152.62308 255.46701,151.22171 253.58713,151.22171 Z M 256.00534,162.57791 258.27829,165.06448 H 256.19333 L 254.3049,163.02225 Q 254.02292,163.03934 253.86911,163.04788 253.72385,163.05643 253.58713,163.05643 250.89548,163.05643 249.28049,161.26199 247.67404,159.45901 247.67404,156.44266 247.67404,153.41776 249.28049,151.62332 250.89548,149.82034 253.58713,149.82034 256.27023,149.82034 257.87668,151.62332 259.48312,153.41776 259.48312,156.44266 259.48312,158.66434 258.58591,160.24515 257.69724,161.82596 256.00534,162.57791 Z"
         style="font-size:17.5px"
         id="path129" />
      <path
         d="M 268.23312,156.82718 Q 268.78854,157.01517 269.30978,157.6304 269.83957,158.24564 270.36935,159.3223 L 272.12106,162.80862 H 270.26682 L 268.63474,159.53592 Q 268.00241,158.25418 267.40427,157.83548 266.81467,157.41678 265.78928,157.41678 H 263.90939 V 162.80862 H 262.18332 V 150.05106 H 266.0798 Q 268.2673,150.05106 269.34396,150.96536 270.42062,151.87967 270.42062,153.72537 270.42062,154.93021 269.85666,155.72488 269.30124,156.51956 268.23312,156.82718 Z M 263.90939,151.46951 V 155.99832 H 266.0798 Q 267.32736,155.99832 267.95969,155.42581 268.60056,154.84476 268.60056,153.72537 268.60056,152.60599 267.95969,152.04202 267.32736,151.46951 266.0798,151.46951 Z"
         style="font-size:17.5px"
         id="path131" />
      <path
         d="M 281.99045,150.46976 V 152.15311 Q 281.00778,151.68314 280.1362,151.45242 279.26462,151.22171 278.45285,151.22171 277.04294,151.22171 276.2739,151.76859 275.5134,152.31546 275.5134,153.32376 275.5134,154.16971 276.01755,154.6055 276.53024,155.03275 277.9487,155.29764 L 278.99118,155.51126 Q 280.92233,155.87869 281.83664,156.81009 282.75949,157.73294 282.75949,159.28812 282.75949,161.14236 281.51193,162.0994 280.27292,163.05643 277.8718,163.05643 276.96603,163.05643 275.94064,162.85135 274.9238,162.64627 273.83005,162.24466 V 160.46732 Q 274.88107,161.05692 275.88937,161.35599 276.89767,161.65506 277.8718,161.65506 279.35007,161.65506 280.15329,161.07401 280.95651,160.49295 280.95651,159.41629 280.95651,158.47635 280.37546,157.94656 279.80295,157.41678 278.48703,157.15189 L 277.436,156.94681 Q 275.50485,156.56229 274.64182,155.74197 273.77878,154.92166 273.77878,153.46048 273.77878,151.76859 274.96652,150.79446 276.16281,149.82034 278.25632,149.82034 279.15353,149.82034 280.08493,149.9827 281.01633,150.14505 281.99045,150.46976 Z"
         style="font-size:17.5px"
         id="path133" />
      <path
         d="M 283.68234,150.05106 H 294.47458 V 151.50369 H 289.94577 V 162.80862 H 288.21115 V 151.50369 H 283.68234 Z"
         style="font-size:17.5px"
         id="path135" />
      <path
         d="M 295.94431,150.05106 H 297.67892 V 157.8013 Q 297.67892,159.85208 298.42233,160.75784 299.16574,161.65506 300.832,161.65506 302.48972,161.65506 303.23312,160.75784 303.97653,159.85208 303.97653,157.8013 V 150.05106 H 305.71115 V 158.01492 Q 305.71115,160.51004 304.47214,161.78323 303.24167,163.05643 300.832,163.05643 298.41379,163.05643 297.17477,161.78323 295.94431,160.51004 295.94431,158.01492 Z"
         style="font-size:17.5px"
         id="path137" />
      <path
         d="M 312.23947,162.80862 307.36887,150.05106 H 309.17184 L 313.21359,160.79202 317.26389,150.05106 H 319.05832 L 314.19626,162.80862 Z"
         style="font-size:17.5px"
         id="path139" />
      <path
         d="M 319.78464,150.05106 H 321.5278 L 324.21091,160.83475 326.88547,150.05106 H 328.82516 L 331.50827,160.83475 334.18283,150.05106 H 335.93454 L 332.73019,162.80862 H 330.55978 L 327.86813,151.73441 325.15085,162.80862 H 322.98044 Z"
         style="font-size:17.5px"
         id="path141" />
      <path
         d="M 337.60934,150.05106 H 339.46359 L 342.63376,154.79349 345.82101,150.05106 H 347.67526 L 343.5737,156.17776 347.9487,162.80862 H 346.09445 L 342.50558,157.3826 338.89108,162.80862 H 337.02829 L 341.58273,155.99832 Z"
         style="font-size:17.5px"
         id="path143" />
      <path
         d="M 348.4614,150.05106 H 350.31564 L 353.85324,155.29764 357.3652,150.05106 H 359.21945 L 354.70773,156.73318 V 162.80862 H 352.97311 V 156.73318 Z"
         style="font-size:17.5px"
         id="path145" />
      <path
         d="M 360.16794,150.05106 H 370.19113 V 151.36697 L 362.12473,161.35599 H 370.38766 V 162.80862 H 359.97141 V 161.49271 L 368.03781,151.50369 H 360.16794 Z"
         style="font-size:17.5px"
         id="path147" />
      <path
         d="M 70.777069,176.21561 Q 69.512421,176.21561 68.777557,177.20682 68.042694,178.18948 68.042694,179.90701 68.042694,181.62454 68.769012,182.61575 69.503876,183.59842 70.777069,183.59842 72.033173,183.59842 72.768036,182.60721 73.502899,181.616 73.502899,179.90701 73.502899,178.20657 72.768036,177.21536 72.033173,176.21561 70.777069,176.21561 Z M 70.777069,174.8826 Q 72.82785,174.8826 73.998505,176.21561 75.169159,177.54861 75.169159,179.90701 75.169159,182.25687 73.998505,183.59842 72.82785,184.93143 70.777069,184.93143 68.717743,184.93143 67.547089,183.59842 66.384979,182.25687 66.384979,179.90701 66.384979,177.54861 67.547089,176.21561 68.717743,174.8826 70.777069,174.8826 Z"
         style="font-size:17.5px"
         id="path149" />
      <path
         d="M 83.021942,173.09671 Q 81.142059,173.09671 80.031219,174.49808 78.928925,175.89944 78.928925,178.31766 78.928925,180.72733 80.031219,182.12869 81.142059,183.53006 83.021942,183.53006 84.901825,183.53006 85.995575,182.12869 87.09787,180.72733 87.09787,178.31766 87.09787,175.89944 85.995575,174.49808 84.901825,173.09671 83.021942,173.09671 Z M 83.021942,171.69534 Q 85.705048,171.69534 87.311493,173.49832 88.917938,175.29276 88.917938,178.31766 88.917938,181.33401 87.311493,183.13699 85.705048,184.93143 83.021942,184.93143 80.330292,184.93143 78.715302,183.13699 77.108856,181.34256 77.108856,178.31766 77.108856,175.29276 78.715302,173.49832 80.330292,171.69534 83.021942,171.69534 Z"
         style="font-size:17.5px"
         id="path151" />
      <path
         d="M 95.463348,173.06253 Q 94.130341,173.06253 93.455292,174.37845 92.788788,175.68582 92.788788,178.31766 92.788788,180.94095 93.455292,182.25687 94.130341,183.56424 95.463348,183.56424 96.804901,183.56424 97.471405,182.25687 98.146454,180.94095 98.146454,178.31766 98.146454,175.68582 97.471405,174.37845 96.804901,173.06253 95.463348,173.06253 Z M 95.463348,171.69534 Q 97.608124,171.69534 98.736053,173.39578 99.872528,175.08768 99.872528,178.31766 99.872528,181.53909 98.736053,183.23953 97.608124,184.93143 95.463348,184.93143 93.318573,184.93143 92.182098,183.23953 91.054169,181.53909 91.054169,178.31766 91.054169,175.08768 92.182098,173.39578 93.318573,171.69534 95.463348,171.69534 Z"
         style="font-size:17.5px"
         id="path153" />
      <path
         d="M 106.59738,178.62527 Q 105.36691,178.62527 104.65768,179.28323 103.957,179.94119 103.957,181.09476 103.957,182.24832 104.65768,182.90628 105.36691,183.56424 106.59738,183.56424 107.82785,183.56424 108.53708,182.90628 109.24631,182.23978 109.24631,181.09476 109.24631,179.94119 108.53708,179.28323 107.8364,178.62527 106.59738,178.62527 Z M 104.87131,177.89041 Q 103.76047,177.61697 103.13669,176.85648 102.52145,176.09598 102.52145,175.00223 102.52145,173.47269 103.60666,172.58401 104.70041,171.69534 106.59738,171.69534 108.5029,171.69534 109.5881,172.58401 110.67331,173.47269 110.67331,175.00223 110.67331,176.09598 110.04953,176.85648 109.4343,177.61697 108.332,177.89041 109.57956,178.18094 110.2717,179.02689 110.97238,179.87283 110.97238,181.09476 110.97238,182.94901 109.83591,183.94022 108.70798,184.93143 106.59738,184.93143 104.48679,184.93143 103.35031,183.94022 102.22238,182.94901 102.22238,181.09476 102.22238,179.87283 102.92307,179.02689 103.62375,178.18094 104.87131,177.89041 Z M 104.23898,175.16458 Q 104.23898,176.15579 104.85422,176.71121 105.478,177.26663 106.59738,177.26663 107.70822,177.26663 108.332,176.71121 108.96432,176.15579 108.96432,175.16458 108.96432,174.17337 108.332,173.61795 107.70822,173.06253 106.59738,173.06253 105.478,173.06253 104.85422,173.61795 104.23898,174.17337 104.23898,175.16458 Z"
         style="font-size:17.5px"
         id="path155" />
      <path
         d="M 119.38058,175.11331 H 120.95285 V 184.68362 H 119.38058 Z M 119.38058,171.38773 H 120.95285 V 173.37869 H 119.38058 Z"
         style="font-size:17.5px"
         id="path157" />
      <path
         d="M 124.311,171.92606 H 126.03708 V 184.68362 H 124.311 Z"
         style="font-size:17.5px"
         id="path159" />
      <path
         d="M 129.40378,171.38773 H 130.97604 V 184.68362 H 129.40378 Z"
         style="font-size:17.5px"
         id="path161" />
      <path
         d="M 134.3342,171.92606 H 136.06027 V 183.23099 H 142.27243 V 184.68362 H 134.3342 Z"
         style="font-size:17.5px"
         id="path163" />
      <path
         d="M 144.53683,183.23099 H 147.35666 V 173.49832 L 144.28903,174.11356 V 172.54129 L 147.33957,171.92606 H 149.06564 V 183.23099 H 151.88547 V 184.68362 H 144.53683 Z"
         style="font-size:17.5px"
         id="path165" />
      <path
         d="M 168.00974,186.30716 V 187.53763 H 167.47995 Q 165.35226,187.53763 164.62595,186.9053 163.90817,186.27298 163.90817,184.38455 V 182.34232 Q 163.90817,181.05203 163.44675,180.55643 162.98532,180.06082 161.77194,180.06082 H 161.2507 V 178.8389 H 161.77194 Q 162.99387,178.8389 163.44675,178.35184 163.90817,177.85623 163.90817,176.58304 V 174.53226 Q 163.90817,172.64383 164.62595,172.02005 165.35226,171.38773 167.47995,171.38773 H 168.00974 V 172.60965 H 167.42868 Q 166.22385,172.60965 165.85641,172.98563 165.48898,173.3616 165.48898,174.56644 V 176.68558 Q 165.48898,178.02713 165.09592,178.63382 164.7114,179.24051 163.77145,179.45413 164.71994,179.68484 165.10446,180.29153 165.48898,180.89822 165.48898,182.23123 V 184.35037 Q 165.48898,185.55521 165.85641,185.93118 166.22385,186.30716 167.42868,186.30716 Z"
         style="font-size:17.5px"
         id="path167" />
      <path
         d="M 172.38474,186.30716 H 172.98288 Q 174.17917,186.30716 174.53806,185.93973 174.90549,185.5723 174.90549,184.35037 V 182.23123 Q 174.90549,180.89822 175.29001,180.29153 175.67453,179.68484 176.62302,179.45413 175.67453,179.24051 175.29001,178.63382 174.90549,178.02713 174.90549,176.68558 V 174.56644 Q 174.90549,173.35306 174.53806,172.98563 174.17917,172.60965 172.98288,172.60965 H 172.38474 V 171.38773 H 172.92307 Q 175.05075,171.38773 175.75998,172.02005 176.47775,172.64383 176.47775,174.53226 V 176.58304 Q 176.47775,177.85623 176.93918,178.35184 177.4006,178.8389 178.61398,178.8389 H 179.14377 V 180.06082 H 178.61398 Q 177.4006,180.06082 176.93918,180.55643 176.47775,181.05203 176.47775,182.34232 V 184.38455 Q 176.47775,186.27298 175.75998,186.9053 175.05075,187.53763 172.92307,187.53763 H 172.38474 Z"
         style="font-size:17.5px"
         id="path169" />
      <path
         d="M 188.39792,171.38773 H 192.02097 V 172.60965 H 189.97018 V 185.76883 H 192.02097 V 186.99075 H 188.39792 Z"
         style="font-size:17.5px"
         id="path171" />
      <path
         d="M 199.04489,171.38773 V 186.99075 H 195.42184 V 185.76883 H 197.46408 V 172.60965 H 195.42184 V 171.38773 Z"
         style="font-size:17.5px"
         id="path173" />
      <path
         d="M 214.05832,179.78738 Q 214.05832,178.0784 213.34909,177.13846 212.64841,176.19852 211.37521,176.19852 210.11057,176.19852 209.40134,177.13846 208.70065,178.0784 208.70065,179.78738 208.70065,181.48782 209.40134,182.42776 210.11057,183.36771 211.37521,183.36771 212.64841,183.36771 213.34909,182.42776 214.05832,181.48782 214.05832,179.78738 Z M 215.63058,183.49588 Q 215.63058,185.93973 214.54538,187.12747 213.46017,188.32376 211.22141,188.32376 210.39255,188.32376 209.65768,188.19559 208.92282,188.07596 208.23068,187.81961 V 186.29007 Q 208.92282,186.66605 209.59787,186.84549 210.27292,187.02493 210.9736,187.02493 212.52023,187.02493 213.28928,186.21317 214.05832,185.40994 214.05832,183.77786 V 183.00027 Q 213.57126,183.84622 212.81076,184.26492 212.05026,184.68362 210.99069,184.68362 209.23044,184.68362 208.15378,183.34207 207.07712,182.00052 207.07712,179.78738 207.07712,177.5657 208.15378,176.22415 209.23044,174.8826 210.99069,174.8826 212.05026,174.8826 212.81076,175.3013 213.57126,175.72 214.05832,176.56595 V 175.11331 H 215.63058 Z"
         style="font-size:17.5px"
         id="path175" />
      <path
         d="M 219.14255,184.41873 V 182.84647 Q 219.79196,183.15408 220.45847,183.31644 221.12497,183.47879 221.76584,183.47879 223.47482,183.47879 224.37204,182.33377 225.2778,181.18021 225.40598,178.8389 224.91037,179.57376 224.14987,179.96683 223.38937,180.35989 222.46652,180.35989 220.55246,180.35989 219.43307,179.20633 218.32224,178.04422 218.32224,176.03616 218.32224,174.07083 219.48434,172.88309 220.64645,171.69534 222.57761,171.69534 224.79074,171.69534 225.95285,173.39578 227.1235,175.08768 227.1235,178.31766 227.1235,181.33401 225.68796,183.13699 224.26096,184.93143 221.84274,184.93143 221.19333,184.93143 220.52682,184.80325 219.86032,184.67508 219.14255,184.41873 Z M 222.57761,179.0098 Q 223.73972,179.0098 224.41476,178.21512 225.09836,177.42044 225.09836,176.03616 225.09836,174.66043 224.41476,173.86575 223.73972,173.06253 222.57761,173.06253 221.4155,173.06253 220.7319,173.86575 220.05685,174.66043 220.05685,176.03616 220.05685,177.42044 220.7319,178.21512 221.4155,179.0098 222.57761,179.0098 Z"
         style="font-size:17.5px"
         id="path177" />
      <path
         d="M 230.94308,179.90701 Q 230.94308,181.64163 231.65231,182.63284 232.37009,183.61551 233.61765,183.61551 234.8652,183.61551 235.58298,182.63284 236.30075,181.64163 236.30075,179.90701 236.30075,178.17239 235.58298,177.18973 234.8652,176.19852 233.61765,176.19852 232.37009,176.19852 231.65231,177.18973 230.94308,178.17239 230.94308,179.90701 Z M 236.30075,183.24808 Q 235.80515,184.10257 235.04465,184.52127 234.29269,184.93143 233.23312,184.93143 231.4985,184.93143 230.40475,183.54715 229.31955,182.16287 229.31955,179.90701 229.31955,177.65115 230.40475,176.26688 231.4985,174.8826 233.23312,174.8826 234.29269,174.8826 235.04465,175.3013 235.80515,175.71146 236.30075,176.56595 V 175.11331 H 237.87302 V 188.32376 H 236.30075 Z"
         style="font-size:17.5px"
         id="path179" />
      <path
         d="M 250.73312,172.90872 V 174.72879 Q 249.86154,173.91702 248.87033,173.51541 247.88766,173.1138 246.77682,173.1138 244.58932,173.1138 243.42722,174.45535 242.26511,175.78836 242.26511,178.31766 242.26511,180.83841 243.42722,182.17996 244.58932,183.51297 246.77682,183.51297 247.88766,183.51297 248.87033,183.11136 249.86154,182.70975 250.73312,181.89798 V 183.70096 Q 249.82736,184.31619 248.81052,184.62381 247.80222,184.93143 246.67429,184.93143 243.77756,184.93143 242.1113,183.16263 240.44504,181.38528 240.44504,178.31766 240.44504,175.24149 242.1113,173.47269 243.77756,171.69534 246.67429,171.69534 247.81931,171.69534 248.82761,172.00296 249.84445,172.30203 250.73312,172.90872 Z"
         style="font-size:17.5px"
         id="path181" />
      <path
         d="M 262.09787,182.86356 V 179.43704 H 259.27805 V 178.01859 H 263.80685 V 183.49588 Q 262.8071,184.20511 261.60226,184.57254 260.39743,184.93143 259.03024,184.93143 256.03952,184.93143 254.34763,183.18826 252.66428,181.43655 252.66428,178.31766 252.66428,175.19022 254.34763,173.44705 256.03952,171.69534 259.03024,171.69534 260.2778,171.69534 261.39719,172.00296 262.52512,172.31058 263.4736,172.90872 V 174.74588 Q 262.51657,173.93411 261.43991,173.52396 260.36325,173.1138 259.17551,173.1138 256.8342,173.1138 255.655,174.42117 254.48434,175.72855 254.48434,178.31766 254.48434,180.89822 255.655,182.2056 256.8342,183.51297 259.17551,183.51297 260.08981,183.51297 260.80759,183.35916 261.52536,183.19681 262.09787,182.86356 Z"
         style="font-size:17.5px"
         id="path183" />
      <path
         d="M 272.13815,173.09671 Q 270.25827,173.09671 269.14743,174.49808 268.04514,175.89944 268.04514,178.31766 268.04514,180.72733 269.14743,182.12869 270.25827,183.53006 272.13815,183.53006 274.01804,183.53006 275.11179,182.12869 276.21408,180.72733 276.21408,178.31766 276.21408,175.89944 275.11179,174.49808 274.01804,173.09671 272.13815,173.09671 Z M 274.55637,184.45291 276.82932,186.93948 H 274.74435 L 272.85593,184.89725 Q 272.57394,184.91434 272.42014,184.92288 272.27487,184.93143 272.13815,184.93143 269.4465,184.93143 267.83151,183.13699 266.22507,181.33401 266.22507,178.31766 266.22507,175.29276 267.83151,173.49832 269.4465,171.69534 272.13815,171.69534 274.82126,171.69534 276.4277,173.49832 278.03415,175.29276 278.03415,178.31766 278.03415,180.53934 277.13693,182.12015 276.24826,183.70096 274.55637,184.45291 Z"
         style="font-size:17.5px"
         id="path185" />
      <path
         d="M 297.3884,177.70242 V 179.22342 Q 296.49118,179.89847 295.72214,180.189 294.96164,180.47952 294.13278,180.47952 293.19284,180.47952 291.94528,179.97537 291.85129,179.94119 291.80856,179.9241 291.74875,179.89847 291.62057,179.85574 290.29611,179.32596 289.49289,179.32596 288.74094,179.32596 288.00607,179.65921 287.27121,179.98392 286.43381,180.69315 V 179.17215 Q 287.33102,178.4971 288.09152,178.20657 288.86057,177.9075 289.68942,177.9075 290.62936,177.9075 291.88547,178.4202 291.97092,178.45438 292.01364,178.47147 292.082,178.4971 292.20163,178.53983 293.52609,179.06961 294.32932,179.06961 295.06418,179.06961 295.78195,178.7449 296.50827,178.4202 297.3884,177.70242 Z"
         style="font-size:17.5px"
         id="path187" />
      <path
         d="M 300.09714,179.18924 H 304.70285 V 180.59061 H 300.09714 Z"
         style="font-size:17.5px"
         id="path189" />
      <path
         d="M 313.60666,173.71194 V 178.47147 H 318.36618 V 179.9241 H 313.60666 V 184.68362 H 312.17111 V 179.9241 H 307.41159 V 178.47147 H 312.17111 V 173.71194 Z"
         style="font-size:17.5px"
         id="path191" />
      <path
         d="M 322.07468,176.73685 H 333.02927 V 178.17239 H 322.07468 Z M 322.07468,180.22318 H 333.02927 V 181.67581 H 322.07468 Z"
         style="font-size:17.5px"
         id="path193" />
      <path
         d="M 336.73776,176.07034 V 174.51517 L 347.69235,178.48856 V 179.90701 L 336.73776,183.8804 V 182.32523 L 345.53903,179.20633 Z"
         style="font-size:17.5px"
         id="path195" />
    </g>
  </g>
</svg>
