<?xml version="1.0" encoding="UTF-8" standalone="no"?>
<svg
   version="1.1"
   id="svg2"
   viewBox="0 0 272.84522 104.12249"
   height="29.385679mm"
   width="77.002983mm"
   sodipodi:docname="3270 Nerd Font.svg"
   xmlns:inkscape="http://www.inkscape.org/namespaces/inkscape"
   xmlns:sodipodi="http://sodipodi.sourceforge.net/DTD/sodipodi-0.dtd"
   xmlns="http://www.w3.org/2000/svg"
   xmlns:svg="http://www.w3.org/2000/svg"
   xmlns:rdf="http://www.w3.org/1999/02/22-rdf-syntax-ns#"
   xmlns:cc="http://creativecommons.org/ns#"
   xmlns:dc="http://purl.org/dc/elements/1.1/">
  <sodipodi:namedview
     id="namedview12"
     pagecolor="#ffffff"
     bordercolor="#666666"
     borderopacity="1.0"
     inkscape:showpageshadow="2"
     inkscape:pageopacity="0.0"
     inkscape:pagecheckerboard="0"
     inkscape:deskcolor="#d1d1d1"
     inkscape:document-units="mm" />
  <defs
     id="defs4" />
  <metadata
     id="metadata7">
    <rdf:RDF>
      <cc:Work
         rdf:about="">
        <dc:format>image/svg+xml</dc:format>
        <dc:type
           rdf:resource="http://purl.org/dc/dcmitype/StillImage" />
        <dc:title />
      </cc:Work>
    </rdf:RDF>
  </metadata>
  <g
     id="layer1"
     transform="translate(-64.507143,-82.783632)">
    <g
       aria-label="3270 Nerd Font"
       id="text4136"
       style="font-size:27.5px;font-family:'3270 Nerd Font';letter-spacing:0px;word-spacing:0px;fill:#ffffff">
      <path
         d="M 66.129643,84.433632 V 82.783632 H 75.947143 V 85.341132 Q 75.947143,85.671132 75.699643,85.918632 L 72.042143,89.576132 Q 72.193393,89.617382 72.317143,89.741132 L 75.672143,93.096132 Q 75.919643,93.343632 75.919643,93.673632 V 95.516132 Q 75.919643,95.846132 75.672143,96.093632 L 72.454643,99.311132 Q 72.207143,99.558632 71.877143,99.558632 H 66.899643 Q 66.569643,99.558632 66.322143,99.311132 L 64.507143,97.496132 65.662143,96.341132 67.229643,97.908632 H 71.602143 L 74.324643,95.186132 V 94.031132 L 71.464643,91.143632 H 70.117143 Q 69.787143,91.143632 69.539643,90.896132 69.292143,90.648632 69.292143,90.318632 69.292143,89.988632 69.539643,89.741132 L 74.324643,85.011132 V 84.433632 Z"
         id="path14" />
      <path
         d="M 80.979669,87.843632 H 79.357169 V 86.963632 Q 79.357169,86.633632 79.604669,86.386132 L 82.932169,83.031132 Q 83.179669,82.783632 83.509669,82.783632 H 88.294669 Q 88.624669,82.783632 88.872169,83.031132 L 90.549669,84.708632 Q 90.797169,84.956132 90.797169,85.286132 V 88.751132 Q 90.797169,89.081132 90.549669,89.328632 L 82.107169,97.963632 H 90.797169 V 99.613632 H 80.099669 Q 79.769669,99.613632 79.522169,99.366132 79.274669,99.118632 79.274669,98.788632 79.274669,98.458632 79.522169,98.211132 L 89.174669,88.421132 V 85.616132 L 87.992169,84.433632 H 83.839669 L 80.979669,87.293632 Z"
         id="path16" />
      <path
         d="M 99.102194,99.586132 H 97.479694 V 91.776132 Q 97.479694,91.391132 97.727194,91.198632 L 103.99719,84.928632 V 84.433632 H 94.207194 V 82.783632 H 105.64719 V 85.258632 Q 105.64719,85.629882 105.39969,85.836132 L 99.102194,92.133632 Z"
         id="path18" />
      <path
         d="M 114.77722,88.723632 Q 115.10722,88.723632 115.35472,88.971132 115.60222,89.218632 115.60222,89.548632 V 92.931132 Q 115.60222,93.261132 115.35472,93.508632 115.10722,93.756132 114.77722,93.756132 114.43347,93.756132 114.18597,93.508632 113.95222,93.261132 113.95222,92.931132 V 89.548632 Q 113.95222,89.218632 114.18597,88.971132 114.43347,88.723632 114.77722,88.723632 Z M 110.67972,87.321132 V 95.076132 L 113.53972,97.936132 H 116.04222 L 118.87472,95.131132 V 87.321132 L 115.95972,84.433632 H 113.59472 Z M 109.30472,86.413632 112.71472,83.031132 Q 112.92097,82.783632 113.29222,82.783632 H 116.28972 Q 116.61972,82.783632 116.86722,83.031132 L 120.24972,86.413632 Q 120.49722,86.619882 120.49722,86.991132 V 95.461132 Q 120.49722,95.846132 120.24972,96.038632 L 116.94972,99.338632 Q 116.70222,99.586132 116.37222,99.586132 H 113.23722 Q 112.85222,99.586132 112.65972,99.338632 L 109.30472,95.983632 Q 109.05722,95.736132 109.05722,95.406132 V 86.991132 Q 109.05722,86.606132 109.30472,86.413632 Z"
         id="path20" />
      <path
         d="M 138.75727,99.558632 V 84.516132 H 140.37977 L 148.57477,92.903632 V 84.516132 H 150.19727 V 99.558632 H 148.57477 V 95.433632 L 140.37977,86.963632 V 99.558632 Z"
         id="path22" />
      <path
         d="M 155.14729,94.581132 V 96.753632 L 156.32979,97.991132 H 163.56229 V 99.531132 H 155.99979 Q 155.66979,99.531132 155.44979,99.311132 L 153.74479,97.661132 Q 153.52479,97.441132 153.52479,97.083632 V 90.428632 Q 153.52479,90.153632 153.79979,89.878632 L 155.47729,88.146132 Q 155.77979,87.843632 156.08229,87.843632 H 161.05979 Q 161.33479,87.843632 161.63729,88.146132 L 163.25979,89.851132 Q 163.50729,90.098632 163.50729,90.401132 V 94.581132 Z M 155.17479,92.876132 H 161.91229 V 90.731132 L 160.72979,89.521132 H 156.38479 L 155.17479,90.758632 Z"
         id="path24" />
      <path
         d="M 171.37232,92.326132 V 99.558632 H 169.74982 V 90.373632 Q 169.74982,90.057382 169.50232,89.768632 169.21357,89.521132 168.86982,89.521132 H 168.37482 V 87.843632 H 169.72232 Q 170.13482,87.843632 170.75357,88.379882 171.37232,88.916132 171.37232,89.521132 V 90.043632 L 173.26982,88.118632 Q 173.54482,87.843632 173.84732,87.843632 H 175.85482 Q 176.22607,87.843632 176.43232,88.091132 L 178.16482,89.768632 Q 178.41232,90.016132 178.41232,90.373632 V 91.198632 H 176.76232 V 90.703632 L 175.52482,89.521132 H 174.20482 Z"
         id="path26" />
      <path
         d="M 193.26234,99.531132 H 187.43234 Q 187.07484,99.531132 186.85484,99.311132 L 183.47234,95.983632 Q 183.22484,95.736132 183.22484,95.406132 V 92.023632 Q 183.22484,91.693632 183.47234,91.446132 L 186.77234,88.118632 Q 187.01984,87.871132 187.32234,87.871132 H 191.61234 V 82.811132 H 193.26234 Z M 191.61234,97.936132 V 89.493632 H 187.67984 L 184.84734,92.353632 V 95.076132 L 187.76234,97.936132 Z"
         id="path28" />
      <path
         d="M 213.00739,84.516132 H 224.44739 V 86.166132 H 214.62989 V 91.143632 H 222.82489 V 92.683632 H 214.62989 V 99.586132 H 213.00739 Z"
         id="path30" />
      <path
         d="M 229.42492,90.648632 V 96.753632 L 230.60742,97.908632 H 235.06242 L 236.16242,96.753632 V 90.648632 L 235.08992,89.438632 H 230.60742 Z M 228.04992,89.741132 229.72742,88.008632 Q 229.91992,87.816132 230.27742,87.816132 H 235.44742 Q 235.77742,87.816132 236.05242,88.091132 L 237.59242,89.823632 Q 237.81242,90.043632 237.81242,90.346132 V 97.083632 Q 237.81242,97.413632 237.56492,97.661132 L 235.96992,99.283632 Q 235.80492,99.476132 235.48867,99.476132 H 235.39242 230.27742 Q 229.98867,99.476132 229.72742,99.283632 L 228.02242,97.688632 Q 227.77492,97.468632 227.77492,97.083632 V 90.291132 Q 227.77492,90.016132 228.04992,89.741132 Z"
         id="path32" />
      <path
         d="M 245.59495,88.778632 246.25495,88.118632 Q 246.50245,87.871132 246.83245,87.871132 H 250.24245 Q 250.57245,87.871132 250.79245,88.091132 L 252.41495,89.686132 Q 252.66245,89.933632 252.66245,90.263632 V 99.531132 H 251.09495 V 90.593632 L 249.91245,89.521132 H 247.16245 L 246.00745,90.676132 V 99.558632 H 244.35745 V 90.346132 Q 244.35745,90.291132 244.46745,90.016132 L 243.97245,89.466132 H 242.62495 V 87.843632 H 244.35745 Q 244.68745,87.843632 244.87995,88.091132 Z"
         id="path34" />
      <path
         d="M 264.07497,97.551132 264.43247,97.936132 H 265.77997 V 99.586132 H 264.10247 Q 263.77247,99.586132 263.52497,99.338632 L 262.67247,98.486132 Q 262.42497,98.238632 262.42497,97.908632 V 89.521132 H 259.04247 V 87.843632 H 262.42497 V 82.811132 H 264.07497 V 87.843632 H 267.45747 V 89.521132 H 264.07497 Z"
         id="path36" />
    </g>
    <g
       aria-label="abcdefghijklmnopqrstuvwxyzABCDEFGHIJKLMNOPQRSTUVWXYZ oO08 iIlL1 {} [] g9qCGQ ~-+=&gt;"
       id="text4140"
       style="font-size:17.5px;font-family:'3270 Nerd Font';letter-spacing:0px;word-spacing:0px;fill:#ffffff">
      <path
         d="M 71.719403,139.04362 V 136.83862 H 68.201903 L 67.449403,137.60862 V 138.25612 L 68.184403,139.04362 Z M 72.769403,139.04362 H 73.836903 V 140.05862 H 67.956903 Q 67.746903,140.05862 67.589403,139.90112 L 66.574403,138.81612 Q 66.416903,138.65862 66.416903,138.44862 V 137.39862 Q 66.416903,137.18862 66.574403,137.03112 L 67.606903,135.96362 Q 67.746903,135.82362 67.974403,135.82362 H 71.719403 V 134.37112 L 71.001903,133.63612 H 67.431903 V 132.60362 H 71.211903 Q 71.421903,132.60362 71.579403,132.76112 L 72.611903,133.81112 Q 72.769403,133.96862 72.769403,134.16112 Z"
         id="path39" />
      <path
         d="M 75.866919,140.02362 V 129.40112 H 76.916919 V 132.62112 H 79.646919 Q 79.856919,132.62112 80.014419,132.77862 L 82.096919,134.89612 Q 82.254419,135.05362 82.254419,135.26362 V 137.41612 Q 82.254419,137.62612 82.096919,137.78362 L 79.944419,139.90112 Q 79.821919,140.02362 79.576919,140.02362 Z M 76.916919,139.02612 H 79.366919 L 81.221919,137.20612 V 135.47362 L 79.436919,133.65362 H 76.916919 Z"
         id="path41" />
      <path
         d="M 91.704435,132.62112 V 133.65362 H 88.151935 L 86.349435,135.47362 V 137.20612 L 88.204435,139.02612 H 91.704435 V 140.04112 H 87.994435 Q 87.766935,140.04112 87.626935,139.90112 L 85.474435,137.78362 Q 85.316935,137.62612 85.316935,137.41612 V 135.26362 Q 85.316935,135.05362 85.474435,134.89612 L 87.574435,132.77862 Q 87.731935,132.62112 87.924435,132.62112 Z"
         id="path43" />
      <path
         d="M 101.15445,140.04112 H 97.444451 Q 97.216951,140.04112 97.076951,139.90112 L 94.924451,137.78362 Q 94.766951,137.62612 94.766951,137.41612 V 135.26362 Q 94.766951,135.05362 94.924451,134.89612 L 97.024451,132.77862 Q 97.181951,132.62112 97.374451,132.62112 H 100.10445 V 129.40112 H 101.15445 Z M 100.10445,139.02612 V 133.65362 H 97.601951 L 95.799451,135.47362 V 137.20612 L 97.654451,139.02612 Z"
         id="path45" />
      <path
         d="M 105.24947,136.89112 V 138.27362 L 106.00197,139.06112 H 110.60447 V 140.04112 H 105.79197 Q 105.58197,140.04112 105.44197,139.90112 L 104.35697,138.85112 Q 104.21697,138.71112 104.21697,138.48362 V 134.24862 Q 104.21697,134.07362 104.39197,133.89862 L 105.45947,132.79612 Q 105.65197,132.60362 105.84447,132.60362 H 109.01197 Q 109.18697,132.60362 109.37947,132.79612 L 110.41197,133.88112 Q 110.56947,134.03862 110.56947,134.23112 V 136.89112 Z M 105.26697,135.80612 H 109.55447 V 134.44112 L 108.80197,133.67112 H 106.03697 L 105.26697,134.45862 Z"
         id="path47" />
      <path
         d="M 117.58698,130.45112 116.88698,131.16862 V 132.60362 H 119.00448 V 133.67112 H 116.86948 V 140.07612 H 115.83698 V 133.67112 H 113.66698 V 132.60362 H 115.83698 V 130.95862 Q 115.83698,130.73112 115.97698,130.59112 L 116.97448,129.55862 Q 117.13198,129.40112 117.35948,129.40112 H 120.05448 V 130.45112 Z"
         id="path49" />
      <path
         d="M 128.9445,137.60862 127.737,138.81612 Q 127.6145,138.97362 127.3695,138.97362 H 125.707 Q 125.497,138.97362 125.3395,138.81612 L 123.2745,136.75112 Q 123.117,136.62862 123.117,136.38362 V 135.21112 Q 123.117,135.00112 123.2745,134.84362 L 125.392,132.70862 Q 125.50575,132.56862 125.7595,132.56862 H 128.402 Q 128.6295,132.56862 128.7695,132.70862 L 129.837,133.79362 Q 129.9945,133.91612 129.9945,134.16112 V 140.65362 Q 129.9945,140.86362 129.837,141.02112 L 128.857,142.00112 Q 128.7345,142.15862 128.4895,142.15862 H 125.672 Q 125.462,142.15862 125.3045,142.00112 L 124.2895,140.98612 125.0245,140.25112 125.882,141.10862 H 128.2795 L 128.9445,140.44362 Z M 128.9445,136.13862 V 134.37112 L 128.192,133.61862 H 125.9695 L 124.167,135.42112 V 136.17362 L 125.917,137.92362 H 127.1595 Z"
         id="path51" />
      <path
         d="M 132.56702,140.09362 V 129.27862 H 133.61702 V 133.96862 L 134.87702,132.70862 Q 134.98202,132.62112 135.24452,132.62112 H 137.32702 Q 137.52827,132.62112 137.69452,132.76112 L 138.79702,133.81112 Q 138.95452,133.96862 138.95452,134.19612 V 140.09362 H 137.90452 V 134.42362 L 137.11702,133.65362 H 135.45452 L 133.61702,135.42112 V 140.09362 Z"
         id="path53" />
      <path
         d="M 145.16703,129.40112 H 146.23453 V 130.46862 H 145.16703 Z M 145.16703,132.60362 H 146.23453 V 140.07612 H 145.16703 Z"
         id="path55" />
      <path
         d="M 157.83704,140.63612 Q 157.83704,140.82862 157.66204,141.00362 L 156.61204,142.07112 Q 156.47204,142.21112 156.24454,142.21112 H 154.07454 Q 153.86454,142.21112 153.70704,142.05362 L 152.65704,140.98612 153.39204,140.25112 154.30204,141.17862 H 156.03454 L 156.76954,140.42612 V 132.60362 H 157.83704 Z M 156.76954,129.40112 H 157.85454 V 130.46862 H 156.76954 Z"
         id="path57" />
      <path
         d="M 164.34706,136.34862 167.25206,139.34112 166.49956,140.07612 163.40206,136.85612 H 162.00206 V 140.07612 H 160.91706 V 129.40112 H 162.00206 V 135.80612 H 163.41956 L 166.56956,132.60362 167.30456,133.33862 Z"
         id="path59" />
      <path
         d="M 174.56708,138.78112 174.79458,139.02612 H 175.65208 V 140.07612 H 174.58458 Q 174.37458,140.07612 174.21708,139.91862 L 173.67458,139.37612 Q 173.51708,139.21862 173.51708,139.00862 V 129.40112 H 174.56708 Z"
         id="path61" />
      <path
         d="M 184.0521,134.40612 V 140.07612 H 182.9846 V 134.40612 L 182.2671,133.67112 H 181.6371 L 180.8671,134.42362 V 140.07612 H 179.8171 V 132.62112 H 180.8846 V 132.91862 L 181.0421,132.76112 Q 181.1996,132.60362 181.4096,132.60362 H 182.4946 Q 182.7221,132.60362 182.8796,132.76112 L 183.5096,133.44362 184.1746,132.77862 Q 184.3321,132.62112 184.5421,132.62112 H 185.6621 Q 185.8721,132.62112 186.0296,132.77862 L 187.0621,133.81112 Q 187.2196,133.96862 187.2196,134.17862 V 140.07612 H 186.1696 V 134.38862 L 185.4521,133.67112 H 184.7696 Z"
         id="path63" />
      <path
         d="M 191.15711,133.19862 191.57711,132.77862 Q 191.73461,132.62112 191.94461,132.62112 H 194.11461 Q 194.32461,132.62112 194.46461,132.76112 L 195.49711,133.77612 Q 195.65461,133.93362 195.65461,134.14362 V 140.04112 H 194.65711 V 134.35362 L 193.90461,133.67112 H 192.15461 L 191.41961,134.40612 V 140.05862 H 190.36961 V 134.19612 Q 190.36961,134.16112 190.43961,133.98612 L 190.12461,133.63612 H 189.26711 V 132.60362 H 190.36961 Q 190.57961,132.60362 190.70211,132.76112 Z"
         id="path65" />
      <path
         d="M 199.76714,134.38862 V 138.27362 L 200.51964,139.00862 H 203.35464 L 204.05464,138.27362 V 134.38862 L 203.37214,133.61862 H 200.51964 Z M 198.89214,133.81112 199.95964,132.70862 Q 200.08214,132.58612 200.30964,132.58612 H 203.59964 Q 203.80964,132.58612 203.98464,132.76112 L 204.96464,133.86362 Q 205.10464,134.00362 205.10464,134.19612 V 138.48362 Q 205.10464,138.69362 204.94714,138.85112 L 203.93214,139.88362 Q 203.82714,140.00612 203.62589,140.00612 H 203.56464 200.30964 Q 200.12589,140.00612 199.95964,139.88362 L 198.87464,138.86862 Q 198.71714,138.72862 198.71714,138.48362 V 134.16112 Q 198.71714,133.98612 198.89214,133.81112 Z"
         id="path67" />
      <path
         d="M 208.16715,132.56862 H 212.01715 Q 212.17465,132.56862 212.24465,132.63862 L 214.39715,134.70362 Q 214.55465,134.86112 214.55465,135.07112 V 137.41612 Q 214.55465,137.62612 214.39715,137.78362 L 212.29715,139.90112 Q 212.13965,140.05862 211.94715,140.05862 H 209.21715 V 143.27862 H 208.16715 Z M 209.21715,133.67112 V 139.02612 H 211.71965 L 213.52215,137.20612 V 135.28112 L 211.82465,133.67112 Z"
         id="path69" />
      <path
         d="M 223.96966,132.63862 V 142.07112 H 225.03716 V 143.15612 H 222.90216 V 139.98862 H 220.22466 Q 220.03216,139.98862 219.87466,139.83112 L 217.77466,137.71362 Q 217.61716,137.55612 217.61716,137.34612 V 135.26362 Q 217.61716,135.05362 217.77466,134.89612 L 219.92716,132.77862 Q 220.06716,132.63862 220.29466,132.63862 Z M 222.90216,133.65362 H 220.50466 L 218.64966,135.47362 V 137.13612 L 220.45216,138.95612 H 222.90216 Z"
         id="path71" />
      <path
         d="M 228.97467,135.45612 V 140.05862 H 227.94217 V 134.21362 Q 227.94217,134.01237 227.78467,133.82862 227.60092,133.67112 227.38217,133.67112 H 227.06717 V 132.60362 H 227.92467 Q 228.18717,132.60362 228.58092,132.94487 228.97467,133.28612 228.97467,133.67112 V 134.00362 L 230.18217,132.77862 Q 230.35717,132.60362 230.54967,132.60362 H 231.82717 Q 232.06342,132.60362 232.19467,132.76112 L 233.29717,133.82862 Q 233.45467,133.98612 233.45467,134.21362 V 134.73862 H 232.40467 V 134.42362 L 231.61717,133.67112 H 230.77717 Z"
         id="path73" />
      <path
         d="M 241.80218,134.42362 241.03218,133.65362 H 238.33718 L 237.82968,134.17862 242.71218,138.04612 Q 242.90468,138.21237 242.90468,138.43112 242.90468,138.67612 242.74718,138.83362 L 241.64468,139.91862 Q 241.48718,140.07612 241.27718,140.07612 H 238.12718 Q 237.91718,140.07612 237.75968,139.91862 L 236.67468,138.86862 Q 236.51718,138.71112 236.51718,138.48362 V 137.99362 H 237.56718 V 138.25612 L 238.33718,139.02612 H 241.06718 L 241.59218,138.50112 236.72718,134.65112 Q 236.56093,134.53737 236.53468,134.26612 V 134.20487 Q 236.53468,134.00362 236.67468,133.86362 L 237.72468,132.76112 Q 237.88218,132.60362 238.10968,132.60362 H 241.24218 Q 241.45218,132.60362 241.60968,132.76112 L 242.69468,133.82862 Q 242.85218,133.98612 242.85218,134.19612 V 134.75612 H 241.80218 Z"
         id="path75" />
      <path
         d="M 250.16721,138.78112 250.39471,139.02612 H 251.25221 V 140.07612 H 250.18471 Q 249.97471,140.07612 249.81721,139.91862 L 249.27471,139.37612 Q 249.11721,139.21862 249.11721,139.00862 V 133.67112 H 246.96471 V 132.60362 H 249.11721 V 129.40112 H 250.16721 V 132.60362 H 252.31971 V 133.67112 H 250.16721 Z"
         id="path77" />
      <path
         d="M 260.94722,139.46362 260.52722,139.88362 Q 260.36972,140.04112 260.15972,140.04112 H 256.97472 Q 256.76472,140.04112 256.62472,139.90112 L 255.59222,138.88612 Q 255.43472,138.72862 255.43472,138.51862 V 132.60362 H 256.46722 V 138.30862 L 257.18472,139.02612 H 259.94972 L 260.68472,138.25612 V 132.60362 H 261.73472 V 138.46612 Q 261.73472,138.50112 261.66472,138.67612 L 261.97972,139.02612 H 262.83722 V 140.04112 H 261.76972 Q 261.50722,140.04112 261.40222,139.90112 Z"
         id="path79" />
      <path
         d="M 265.91724,134.09112 268.55974,138.53612 271.23724,134.03862 V 132.62112 H 272.28724 V 134.17862 Q 272.28724,134.32737 272.21724,134.44112 L 269.01474,139.83112 Q 268.85724,140.09362 268.55974,140.09362 268.26224,140.09362 268.10474,139.83112 L 264.93724,134.49362 Q 264.86724,134.37987 264.86724,134.23112 V 132.62112 H 265.91724 Z"
         id="path81" />
      <path
         d="M 278.56976,137.24112 280.09226,138.79862 280.68726,138.23862 V 132.60362 H 281.73726 V 138.46612 Q 281.73726,138.69362 281.57976,138.85112 L 280.45976,139.91862 Q 280.29351,140.05862 280.09226,140.05862 279.88226,140.05862 279.72476,139.90112 L 278.02726,138.16862 276.27726,139.95362 Q 276.10226,140.12862 275.90976,140.12862 275.71726,140.12862 275.54226,139.95362 L 274.47476,138.86862 Q 274.31726,138.71112 274.31726,138.50112 V 132.60362 H 275.36726 V 138.29112 L 275.90976,138.83362 277.50226,137.24112 V 135.80612 H 278.56976 Z"
         id="path83" />
      <path
         d="M 287.45978,137.08362 284.76478,139.76112 V 140.09362 H 283.71478 V 139.53362 Q 283.71478,139.30612 283.85478,139.16612 L 286.70728,136.34862 283.85478,133.51362 Q 283.71478,133.37362 283.71478,133.12862 V 132.60362 H 284.76478 V 132.95362 L 287.45978,135.59612 290.15478,132.95362 V 132.60362 H 291.20478 V 133.12862 Q 291.20478,133.35612 291.04728,133.51362 L 288.19478,136.33112 291.04728,139.16612 Q 291.20478,139.32362 291.20478,139.53362 V 140.09362 H 290.15478 V 139.76112 Z"
         id="path85" />
      <path
         d="M 296.19229,139.56862 293.37479,136.71612 Q 293.21729,136.55862 293.21729,136.34862 V 132.60362 H 294.26729 V 136.13862 L 296.94479,138.81612 298.53729,137.22362 V 132.60362 H 299.58729 V 137.43362 Q 299.58729,137.64362 299.42979,137.80112 L 294.05729,143.17362 293.32229,142.43862 Z"
         id="path87" />
      <path
         d="M 302.6673,132.60362 H 310.0873 L 304.8198,139.02612 H 310.0873 V 140.07612 H 302.6673 L 307.9523,133.67112 H 302.6673 Z"
         id="path89" />
      <path
         d="M 67.501903,158.53862 V 161.95112 H 66.469403 V 156.03612 Q 66.469403,155.84362 66.626903,155.68612 L 69.724403,152.51862 Q 69.855653,152.36112 70.074403,152.36112 70.319403,152.36112 70.476903,152.51862 L 73.609403,155.70362 Q 73.749403,155.84362 73.749403,156.07112 V 161.95112 H 72.699403 V 158.53862 Z M 67.519403,157.55862 H 72.699403 V 156.28112 L 70.091903,153.65612 67.519403,156.26362 Z"
         id="path91" />
      <path
         d="M 76.951919,160.90112 V 153.39362 H 75.919419 V 152.36112 H 80.574419 Q 80.775669,152.36112 80.959419,152.50112 L 83.059419,154.68862 Q 83.199419,154.82862 83.199419,155.03862 83.199419,155.28362 83.041919,155.44112 L 81.274419,157.13862 83.041919,158.87112 Q 83.199419,159.02862 83.199419,159.22112 83.199419,159.44862 83.041919,159.60612 L 80.906919,161.79362 Q 80.749419,161.95112 80.539419,161.95112 H 75.919419 V 160.90112 Z M 80.329419,157.68112 H 78.001919 V 160.90112 H 80.311919 L 81.939419,159.25612 Z M 80.311919,156.61362 81.939419,155.03862 80.346919,153.39362 H 78.001919 V 156.61362 Z"
         id="path93" />
      <path
         d="M 92.649435,153.55112 91.914435,154.28612 90.986935,153.39362 H 89.289435 L 86.419435,156.26362 V 158.03112 L 89.306935,160.90112 H 90.969435 L 91.879435,159.93862 92.649435,160.67362 91.581935,161.79362 Q 91.424435,161.95112 91.196935,161.95112 H 89.096935 Q 88.904435,161.95112 88.729435,161.77612 L 85.526935,158.62612 Q 85.369435,158.46862 85.369435,158.25862 V 156.05362 Q 85.369435,155.82612 85.509435,155.68612 L 88.711935,152.50112 Q 88.851935,152.36112 89.079435,152.36112 H 91.196935 Q 91.441935,152.36112 91.564435,152.48362 Z"
         id="path95" />
      <path
         d="M 96.901951,160.88362 H 99.246951 L 101.04945,159.08112 V 155.23112 L 99.246951,153.39362 H 96.901951 Z M 95.851951,153.39362 H 94.819451 V 152.36112 H 99.474451 Q 99.684451,152.36112 99.841951,152.51862 L 101.94195,154.65362 Q 102.09945,154.81112 102.09945,155.02112 V 159.29112 Q 102.09945,159.51862 101.94195,159.67612 L 99.824451,161.77612 Q 99.649451,161.95112 99.456951,161.95112 H 94.819451 V 160.90112 H 95.851951 Z"
         id="path97" />
      <path
         d="M 104.26947,152.34362 H 111.54947 V 153.41112 H 105.30197 V 156.57862 H 109.46697 V 157.64612 H 105.30197 V 160.90112 H 111.54947 V 161.95112 H 104.26947 Z"
         id="path99" />
      <path
         d="M 113.71948,152.36112 H 120.99948 V 153.41112 H 114.75198 V 156.57862 H 119.96698 V 157.55862 H 114.75198 V 161.95112 H 113.71948 Z"
         id="path101" />
      <path
         d="M 126.2845,157.55862 H 130.4495 V 158.53862 H 129.417 V 161.91612 H 125.7945 Q 125.567,161.91612 125.427,161.77612 L 123.327,159.69362 Q 123.1695,159.53612 123.1695,159.32612 V 154.98612 Q 123.1695,154.72362 123.3095,154.58362 L 125.4095,152.50112 Q 125.5145,152.36112 125.777,152.36112 H 127.877 Q 128.122,152.36112 128.262,152.50112 L 129.5745,153.83112 128.822,154.56612 127.667,153.39362 H 126.0045 L 124.2195,155.19612 V 159.09862 L 126.0045,160.86612 H 128.3845 V 158.53862 H 126.2845 Z"
         id="path103" />
      <path
         d="M 132.61952,152.36112 H 133.65202 V 156.57862 H 138.86702 V 152.36112 H 139.89952 V 161.93362 H 138.86702 V 157.55862 H 133.65202 V 161.93362 H 132.61952 Z"
         id="path105" />
      <path
         d="M 144.15203,152.36112 H 147.26703 V 153.41112 H 146.23453 V 160.90112 H 147.26703 V 161.96862 H 144.15203 V 160.90112 H 145.18453 V 153.41112 H 144.15203 Z"
         id="path107" />
      <path
         d="M 151.51954,158.74862 H 152.55204 V 160.16612 L 153.32204,160.88362 H 154.94954 L 155.68454,160.13112 V 153.41112 H 154.63454 V 152.36112 H 157.76704 V 153.41112 H 156.71704 V 160.34112 Q 156.71704,160.56862 156.57704,160.70862 L 155.54454,161.77612 Q 155.38704,161.93362 155.15954,161.93362 H 153.09454 Q 152.86704,161.93362 152.72704,161.79362 L 151.67704,160.77862 Q 151.51954,160.62112 151.51954,160.41112 Z"
         id="path109" />
      <path
         d="M 162.07206,159.51862 V 161.95112 H 160.96956 V 152.36112 H 162.07206 V 158.01362 L 167.19956,152.69362 V 152.36112 H 168.23206 V 152.90362 Q 168.23206,153.11362 168.07456,153.27112 L 164.31206,157.15612 168.09206,161.04112 Q 168.24956,161.19862 168.24956,161.40862 V 161.95112 H 167.19956 V 161.61862 L 163.57706,157.89112 Z"
         id="path111" />
      <path
         d="M 170.41958,152.36112 H 171.45208 V 160.90112 H 177.69958 V 161.95112 H 170.41958 Z"
         id="path113" />
      <path
         d="M 184.0346,156.33362 V 157.66362 H 182.9671 V 156.33362 L 180.9196,154.16362 V 161.93362 H 179.8696 V 152.90362 Q 179.8696,152.55362 180.2021,152.41362 180.3071,152.36112 180.3946,152.36112 180.5871,152.36112 180.7621,152.53612 L 183.4746,155.35362 186.2571,152.50112 Q 186.3971,152.36112 186.6246,152.36112 186.6421,152.36112 186.68585,152.35237 186.7296,152.34362 186.75585,152.34362 186.7646,152.34362 186.8171,152.36112 187.1496,152.50112 187.1496,152.86862 V 161.93362 H 186.0996 V 154.12862 Z"
         id="path115" />
      <path
         d="M 189.31961,161.93362 V 152.36112 H 190.35211 L 195.56711,157.69862 V 152.36112 H 196.59961 V 161.93362 H 195.56711 V 159.30862 L 190.35211,153.91862 V 161.93362 Z"
         id="path117" />
      <path
         d="M 199.85464,154.16362 V 160.18362 L 200.53714,160.88362 H 204.24714 L 204.99964,160.13112 V 154.18112 L 204.24714,153.39362 H 200.55464 Z M 198.94464,153.60362 199.94214,152.51862 Q 200.08214,152.36112 200.32714,152.36112 H 204.47464 Q 204.73714,152.36112 204.85964,152.51862 L 205.90964,153.60362 Q 206.04964,153.74362 206.04964,153.97112 V 160.35862 Q 206.04964,160.60362 205.89214,160.72612 L 204.82464,161.77612 Q 204.66714,161.93362 204.45714,161.93362 H 200.32714 Q 200.09964,161.93362 199.95964,161.79362 L 198.92714,160.79612 Q 198.76964,160.63862 198.76964,160.41112 V 153.95362 Q 198.76964,153.77862 198.94464,153.60362 Z"
         id="path119" />
      <path
         d="M 209.25215,157.68112 H 212.64715 L 214.46715,155.84362 V 155.16112 L 212.66465,153.41112 H 209.25215 Z M 209.25215,158.76612 V 161.96862 H 208.21965 V 152.36112 H 212.87465 Q 213.10215,152.36112 213.24215,152.50112 L 215.34215,154.58362 Q 215.49965,154.74112 215.49965,154.93362 V 156.05362 Q 215.49965,156.28112 215.35965,156.42112 L 213.24215,158.57362 Q 213.04965,158.76612 212.87465,158.76612 Z"
         id="path121" />
      <path
         d="M 223.11216,161.35612 224.87966,163.26362 224.10966,163.96362 222.21966,161.89862 H 220.31216 Q 220.10216,161.89862 219.94466,161.74112 L 217.82716,159.65862 Q 217.66966,159.50112 217.66966,159.29112 V 154.96862 Q 217.66966,154.74112 217.82716,154.58362 L 219.92716,152.50112 Q 220.06716,152.36112 220.29466,152.36112 H 222.35966 Q 222.58716,152.36112 222.72716,152.50112 L 224.79216,154.63612 Q 224.94966,154.79362 224.94966,155.00362 V 159.30862 Q 224.94966,159.51862 224.79216,159.67612 Z M 222.35966,160.63862 223.89966,159.08112 V 155.21362 L 222.13216,153.39362 H 220.52216 L 218.71966,155.17862 V 159.06362 L 220.52216,160.84862 H 221.25716 L 220.81966,160.14862 Q 220.74966,160.03487 220.74966,159.88612 V 158.74862 H 221.79966 V 159.74612 Z"
         id="path123" />
      <path
         d="M 230.93467,157.66362 234.24217,161.00612 Q 234.39967,161.16362 234.39967,161.37362 V 161.93362 H 233.36717 V 161.68862 L 229.42967,157.66362 H 228.15217 V 161.93362 H 227.11967 V 152.36112 H 232.80717 Q 233.01717,152.36112 233.17467,152.51862 L 234.24217,153.56862 Q 234.39967,153.72612 234.39967,153.93612 V 156.08862 Q 234.39967,156.29862 234.24217,156.45612 L 233.20967,157.50612 Q 233.05217,157.66362 232.84217,157.66362 Z M 228.15217,156.61362 H 232.61467 L 233.34967,155.87862 V 154.16362 L 232.59717,153.41112 H 228.15217 Z"
         id="path125" />
      <path
         d="M 242.76468,154.09362 242.09968,153.39362 H 238.42468 L 237.67218,154.14612 V 154.70612 L 243.58718,158.87112 Q 243.81468,159.01987 243.81468,159.30862 V 160.34112 Q 243.81468,160.52487 243.67468,160.69112 L 242.67718,161.77612 Q 242.48468,161.96862 242.29218,161.96862 H 238.16218 Q 237.95218,161.96862 237.79468,161.81112 L 236.72718,160.74362 Q 236.56968,160.58612 236.56968,160.37612 V 159.83362 H 237.61968 V 160.16612 L 238.37218,160.90112 H 242.06468 L 242.76468,160.13112 V 159.58862 L 236.84968,155.42362 Q 236.62218,155.27487 236.62218,154.98612 V 153.93612 Q 236.62218,153.72612 236.77968,153.56862 L 237.84718,152.50112 Q 237.98718,152.36112 238.21468,152.36112 H 242.30968 Q 242.53718,152.36112 242.67718,152.50112 L 243.69218,153.51612 Q 243.84968,153.67362 243.84968,153.88362 V 154.44362 H 242.76468 Z"
         id="path127" />
      <path
         d="M 246.01971,152.36112 H 253.29971 V 153.41112 H 250.18471 V 161.95112 H 249.13471 V 153.41112 H 246.01971 Z"
         id="path129" />
      <path
         d="M 255.46972,152.36112 H 256.48472 V 160.14862 L 257.23722,160.88362 H 260.98222 L 261.69972,160.13112 V 152.36112 H 262.74972 V 160.34112 Q 262.74972,160.55112 262.60972,160.69112 L 261.59472,161.75862 Q 261.41972,161.93362 261.20972,161.93362 H 257.00972 Q 256.79972,161.93362 256.64222,161.77612 L 255.60972,160.74362 Q 255.46972,160.60362 255.46972,160.37612 Z"
         id="path131" />
      <path
         d="M 265.96974,153.83112 268.50724,160.09612 271.14974,153.84862 V 152.36112 H 272.19974 V 153.95362 Q 272.19974,154.02362 272.16474,154.16362 L 268.99724,161.65362 Q 268.85724,161.96862 268.50724,161.96862 268.15724,161.96862 268.01724,161.65362 L 264.91974,154.14612 Q 264.90224,154.09362 264.90224,154.08487 264.90224,154.05862 264.91099,154.01487 264.91974,153.97112 264.91974,153.95362 V 152.36112 H 265.96974 Z"
         id="path133" />
      <path
         d="M 277.97476,160.06112 276.31226,161.81112 Q 276.15476,161.96862 275.94476,161.96862 275.73476,161.96862 275.57726,161.81112 L 274.52726,160.76112 Q 274.36976,160.60362 274.36976,160.39362 V 152.36112 H 275.40226 V 160.18362 L 275.94476,160.69112 277.46726,159.08112 V 156.64862 H 278.51726 V 159.11612 L 280.05726,160.69112 280.59976,160.16612 V 152.36112 H 281.64976 V 160.39362 Q 281.64976,160.62112 281.49226,160.77862 L 280.42476,161.81112 Q 280.23226,161.96862 280.05726,161.96862 279.86476,161.96862 279.68976,161.79362 Z"
         id="path135" />
      <path
         d="M 287.42478,157.89112 284.88728,160.56862 V 161.91612 H 283.83728 V 160.35862 Q 283.83728,160.14862 283.99478,159.99112 L 286.68978,157.15612 283.99478,154.26862 Q 283.83728,154.11112 283.83728,153.90112 V 152.34362 H 284.88728 V 153.69112 L 287.44228,156.40362 290.04978,153.70862 V 152.36112 H 291.09978 V 153.91862 Q 291.09978,154.12862 290.94228,154.28612 L 288.17728,157.13862 290.94228,160.00862 Q 291.09978,160.16612 291.09978,160.37612 V 161.93362 H 290.04978 V 160.58612 Z"
         id="path137" />
      <path
         d="M 297.43479,156.31612 V 161.93362 H 296.36729 V 156.31612 L 293.42729,153.27112 Q 293.26979,153.11362 293.26979,152.90362 V 152.36112 H 294.31979 V 152.69362 L 296.92729,155.35362 299.49979,152.69362 V 152.36112 H 300.54979 V 152.86862 Q 300.54979,153.11362 300.40979,153.25362 Z"
         id="path139" />
      <path
         d="M 309.9823,153.95362 Q 309.9823,154.16362 309.8248,154.32112 L 303.7698,160.55112 V 160.88362 H 309.9998 V 161.95112 H 302.7198 V 160.34112 Q 302.7198,160.13112 302.8773,159.97362 L 308.9323,153.74362 V 153.41112 H 302.7198 V 152.36112 H 309.9823 Z"
         id="path141" />
      <path
         d="M 67.466903,178.13862 V 182.02362 L 68.219403,182.75862 H 71.054403 L 71.754403,182.02362 V 178.13862 L 71.071903,177.36862 H 68.219403 Z M 66.591903,177.56112 67.659403,176.45862 Q 67.781903,176.33612 68.009403,176.33612 H 71.299403 Q 71.509403,176.33612 71.684403,176.51112 L 72.664403,177.61362 Q 72.804403,177.75362 72.804403,177.94612 V 182.23362 Q 72.804403,182.44362 72.646903,182.60112 L 71.631903,183.63362 Q 71.526903,183.75612 71.325653,183.75612 H 71.264403 68.009403 Q 67.825653,183.75612 67.659403,183.63362 L 66.574403,182.61862 Q 66.416903,182.47862 66.416903,182.23362 V 177.91112 Q 66.416903,177.73612 66.591903,177.56112 Z"
         id="path143" />
      <path
         d="M 77.004419,176.03862 V 182.05862 L 77.686919,182.75862 H 81.396919 L 82.149419,182.00612 V 176.05612 L 81.396919,175.26862 H 77.704419 Z M 76.094419,175.47862 77.091919,174.39362 Q 77.231919,174.23612 77.476919,174.23612 H 81.624419 Q 81.886919,174.23612 82.009419,174.39362 L 83.059419,175.47862 Q 83.199419,175.61862 83.199419,175.84612 V 182.23362 Q 83.199419,182.47862 83.041919,182.60112 L 81.974419,183.65112 Q 81.816919,183.80862 81.606919,183.80862 H 77.476919 Q 77.249419,183.80862 77.109419,183.66862 L 76.076919,182.67112 Q 75.919419,182.51362 75.919419,182.28612 V 175.82862 Q 75.919419,175.65362 76.094419,175.47862 Z"
         id="path145" />
      <path
         d="M 89.009435,176.91362 Q 89.219435,176.91362 89.376935,177.07112 89.534435,177.22862 89.534435,177.43862 V 179.59112 Q 89.534435,179.80112 89.376935,179.95862 89.219435,180.11612 89.009435,180.11612 88.790685,180.11612 88.633185,179.95862 88.484435,179.80112 88.484435,179.59112 V 177.43862 Q 88.484435,177.22862 88.633185,177.07112 88.790685,176.91362 89.009435,176.91362 Z M 86.401935,176.02112 V 180.95612 L 88.221935,182.77612 H 89.814435 L 91.616935,180.99112 V 176.02112 L 89.761935,174.18362 H 88.256935 Z M 85.526935,175.44362 87.696935,173.29112 Q 87.828185,173.13362 88.064435,173.13362 H 89.971935 Q 90.181935,173.13362 90.339435,173.29112 L 92.491935,175.44362 Q 92.649435,175.57487 92.649435,175.81112 V 181.20112 Q 92.649435,181.44612 92.491935,181.56862 L 90.391935,183.66862 Q 90.234435,183.82612 90.024435,183.82612 H 88.029435 Q 87.784435,183.82612 87.661935,183.66862 L 85.526935,181.53362 Q 85.369435,181.37612 85.369435,181.16612 V 175.81112 Q 85.369435,175.56612 85.526935,175.44362 Z"
         id="path147" />
      <path
         d="M 96.009451,174.48112 97.024451,173.32612 Q 97.173201,173.15112 97.409451,173.15112 H 99.491951 Q 99.719451,173.15112 99.859451,173.29112 L 100.87445,174.34112 Q 101.03195,174.49862 101.03195,174.69112 V 176.87862 L 100.85695,177.22862 100.22695,177.82362 101.97695,179.69612 Q 102.09945,179.85362 102.09945,180.04612 V 181.28862 Q 102.09945,181.46362 101.94195,181.62112 L 99.824451,183.70362 Q 99.701951,183.82612 99.491951,183.82612 H 97.391951 Q 97.146951,183.82612 97.024451,183.70362 L 94.976951,181.62112 94.819451,181.27112 V 180.02862 Q 94.819451,179.89737 94.994451,179.69612 L 96.709451,177.85862 96.026951,177.26362 Q 95.851951,177.11487 95.851951,176.87862 V 174.79612 Q 95.851951,174.63862 96.009451,174.48112 Z M 95.869451,180.23862 V 181.06112 L 97.601951,182.86362 H 99.281951 L 101.08445,181.04362 V 180.23862 L 99.281951,178.33112 H 97.671951 Z M 96.901951,174.98862 V 176.66862 L 97.654451,177.35112 H 99.299451 L 99.999451,176.66862 V 174.88362 L 99.281951,174.14862 H 97.636951 Z"
         id="path149" />
      <path
         d="M 116.81698,173.15112 H 117.88448 V 174.21862 H 116.81698 Z M 116.81698,176.35362 H 117.88448 V 183.82612 H 116.81698 Z"
         id="path151" />
      <path
         d="M 125.252,174.23612 H 128.367 V 175.28612 H 127.3345 V 182.77612 H 128.367 V 183.84362 H 125.252 V 182.77612 H 126.2845 V 175.28612 H 125.252 Z"
         id="path153" />
      <path
         d="M 136.76702,182.53112 136.99452,182.77612 H 137.85202 V 183.82612 H 136.78452 Q 136.57452,183.82612 136.41702,183.66862 L 135.87452,183.12612 Q 135.71702,182.96862 135.71702,182.75862 V 173.15112 H 136.76702 Z"
         id="path155" />
      <path
         d="M 142.06953,174.23612 H 143.10203 V 182.77612 H 149.34953 V 183.82612 H 142.06953 Z"
         id="path157" />
      <path
         d="M 154.82704,173.34362 Q 155.00204,173.16862 155.17704,173.16862 155.35204,173.16862 155.42204,173.20362 155.68454,173.30862 155.68454,173.69362 V 183.80862 H 154.63454 V 174.98862 L 152.95454,176.70362 152.21954,176.02112 Z"
         id="path159" />
      <path
         d="M 175.63458,172.90612 V 173.95612 H 174.26958 L 173.48208,174.72612 V 177.71862 Q 173.48208,177.94612 173.34208,178.08612 L 172.65958,178.78612 173.34208,179.50362 Q 173.48208,179.64362 173.48208,179.87112 V 182.86362 L 174.26958,183.63362 H 175.63458 V 184.68362 H 174.05958 Q 173.84958,184.68362 173.69208,184.52612 L 172.58958,183.45862 Q 172.43208,183.30112 172.43208,183.07362 V 180.08112 L 171.69708,179.31112 H 171.06708 V 178.26112 H 171.69708 L 172.43208,177.50862 V 174.49862 Q 172.43208,174.28862 172.58958,174.13112 L 173.69208,173.06362 Q 173.81458,172.90612 174.05958,172.90612 Z"
         id="path161" />
      <path
         d="M 180.8146,172.90612 H 182.3896 Q 182.6346,172.90612 182.7571,173.06362 L 183.8596,174.13112 Q 184.0171,174.28862 184.0171,174.49862 V 177.50862 L 184.7521,178.26112 H 185.3821 V 179.31112 H 184.7521 L 184.0171,180.08112 V 183.07362 Q 184.0171,183.30112 183.8596,183.45862 L 182.7571,184.52612 Q 182.5996,184.68362 182.3896,184.68362 H 180.8146 V 183.63362 H 182.1796 L 182.9671,182.86362 V 179.87112 Q 182.9671,179.64362 183.1071,179.50362 L 183.7896,178.78612 183.1071,178.08612 Q 182.9671,177.94612 182.9671,177.71862 V 174.72612 L 182.1796,173.95612 H 180.8146 Z"
         id="path163" />
      <path
         d="M 200.85214,173.15112 H 203.96714 V 174.21862 H 201.86714 V 183.82612 H 203.96714 V 184.91112 H 200.85214 Z"
         id="path165" />
      <path
         d="M 210.30215,173.15112 H 213.41715 V 184.91112 H 210.30215 V 183.82612 H 212.38465 V 174.21862 H 210.30215 Z"
         id="path167" />
      <path
         d="M 232.89467,181.35862 231.68717,182.56612 Q 231.56467,182.72362 231.31967,182.72362 H 229.65717 Q 229.44717,182.72362 229.28967,182.56612 L 227.22467,180.50112 Q 227.06717,180.37862 227.06717,180.13362 V 178.96112 Q 227.06717,178.75112 227.22467,178.59362 L 229.34217,176.45862 Q 229.45592,176.31862 229.70967,176.31862 H 232.35217 Q 232.57967,176.31862 232.71967,176.45862 L 233.78717,177.54362 Q 233.94467,177.66612 233.94467,177.91112 V 184.40362 Q 233.94467,184.61362 233.78717,184.77112 L 232.80717,185.75112 Q 232.68467,185.90862 232.43967,185.90862 H 229.62217 Q 229.41217,185.90862 229.25467,185.75112 L 228.23967,184.73612 228.97467,184.00112 229.83217,184.85862 H 232.22967 L 232.89467,184.19362 Z M 232.89467,179.88862 V 178.12112 L 232.14217,177.36862 H 229.91967 L 228.11717,179.17112 V 179.92362 L 229.86717,181.67362 H 231.10967 Z"
         id="path169" />
      <path
         d="M 242.81718,177.08862 240.52468,179.38112 Q 240.40218,179.53862 240.15718,179.53862 H 238.09218 Q 237.88218,179.53862 237.72468,179.38112 L 236.72718,178.38362 Q 236.56968,178.26112 236.56968,178.01612 V 175.79362 Q 236.56968,175.55737 236.72718,175.42612 L 238.86218,173.29112 Q 238.98468,173.13362 239.22968,173.13362 H 242.25718 Q 242.49343,173.13362 242.62468,173.29112 L 243.69218,174.37612 Q 243.84968,174.53362 243.84968,174.74362 V 182.23362 Q 243.84968,182.44362 243.69218,182.60112 L 242.29218,184.00112 241.55718,183.26612 242.81718,182.04112 Z M 242.81718,175.65362 V 174.93612 L 242.04718,174.18362 H 239.43968 L 237.61968,176.00362 V 177.80612 L 238.30218,178.48862 H 239.94718 Z"
         id="path171" />
      <path
         d="M 252.31971,176.38862 V 185.82112 H 253.38721 V 186.90612 H 251.25221 V 183.73862 H 248.57471 Q 248.38221,183.73862 248.22471,183.58112 L 246.12471,181.46362 Q 245.96721,181.30612 245.96721,181.09612 V 179.01362 Q 245.96721,178.80362 246.12471,178.64612 L 248.27721,176.52862 Q 248.41721,176.38862 248.64471,176.38862 Z M 251.25221,177.40362 H 248.85471 L 246.99971,179.22362 V 180.88612 L 248.80221,182.70612 H 251.25221 Z"
         id="path173" />
      <path
         d="M 262.74972,175.42612 262.01472,176.16112 261.08722,175.26862 H 259.38972 L 256.51972,178.13862 V 179.90612 L 259.40722,182.77612 H 261.06972 L 261.97972,181.81362 262.74972,182.54862 261.68222,183.66862 Q 261.52472,183.82612 261.29722,183.82612 H 259.19722 Q 259.00472,183.82612 258.82972,183.65112 L 255.62722,180.50112 Q 255.46972,180.34362 255.46972,180.13362 V 177.92862 Q 255.46972,177.70112 255.60972,177.56112 L 258.81222,174.37612 Q 258.95222,174.23612 259.17972,174.23612 H 261.29722 Q 261.54222,174.23612 261.66472,174.35862 Z"
         id="path175" />
      <path
         d="M 268.03474,179.43362 H 272.19974 V 180.41362 H 271.16724 V 183.79112 H 267.54474 Q 267.31724,183.79112 267.17724,183.65112 L 265.07724,181.56862 Q 264.91974,181.41112 264.91974,181.20112 V 176.86112 Q 264.91974,176.59862 265.05974,176.45862 L 267.15974,174.37612 Q 267.26474,174.23612 267.52724,174.23612 H 269.62724 Q 269.87224,174.23612 270.01224,174.37612 L 271.32474,175.70612 270.57224,176.44112 269.41724,175.26862 H 267.75474 L 265.96974,177.07112 V 180.97362 L 267.75474,182.74112 H 270.13474 V 180.41362 H 268.03474 Z"
         id="path177" />
      <path
         d="M 279.81226,183.23112 281.57976,185.13862 280.80976,185.83862 278.91976,183.77362 H 277.01226 Q 276.80226,183.77362 276.64476,183.61612 L 274.52726,181.53362 Q 274.36976,181.37612 274.36976,181.16612 V 176.84362 Q 274.36976,176.61612 274.52726,176.45862 L 276.62726,174.37612 Q 276.76726,174.23612 276.99476,174.23612 H 279.05976 Q 279.28726,174.23612 279.42726,174.37612 L 281.49226,176.51112 Q 281.64976,176.66862 281.64976,176.87862 V 181.18362 Q 281.64976,181.39362 281.49226,181.55112 Z M 279.05976,182.51362 280.59976,180.95612 V 177.08862 L 278.83226,175.26862 H 277.22226 L 275.41976,177.05362 V 180.93862 L 277.22226,182.72362 H 277.95726 L 277.51976,182.02362 Q 277.44976,181.90987 277.44976,181.76112 V 180.62362 H 278.49976 V 181.62112 Z"
         id="path179" />
      <path
         d="M 293.81229,174.74362 293.44479,174.37612 294.49479,173.32612 Q 294.65229,173.16862 294.86229,173.16862 H 295.99979 Q 296.24479,173.16862 296.36729,173.32612 L 298.27479,175.23362 H 298.99229 L 299.83229,174.39362 300.19979,174.76112 300.56729,175.12862 299.56979,176.12612 Q 299.44729,176.28362 299.20229,176.28362 H 298.06479 Q 297.85479,176.28362 297.69729,176.12612 L 295.78979,174.21862 H 295.07229 L 294.17979,175.11112 Z"
         id="path181" />
      <path
         d="M 303.7523,178.45362 H 308.9673 V 179.43362 H 303.7523 Z"
         id="path183" />
      <path
         d="M 315.28481,175.54862 H 316.33481 V 178.45362 H 319.44981 V 179.55612 H 316.33481 V 182.35612 H 315.28481 V 179.55612 H 312.16981 V 178.45362 H 315.28481 Z"
         id="path185" />
      <path
         d="M 321.61984,176.51112 H 328.89984 V 177.49112 H 321.61984 Z M 321.61984,179.43362 H 328.89984 V 180.41362 H 321.61984 Z"
         id="path187" />
      <path
         d="M 332.34737,175.05862 Q 332.20737,174.89237 332.20737,174.67362 332.20737,174.49862 332.36487,174.30612 332.48737,174.16612 332.73237,174.13112 332.74987,174.13112 332.77612,174.13112 332.81112,174.12237 332.82862,174.12237 332.95987,174.12237 333.09987,174.20112 L 337.35237,178.48862 V 179.46862 L 333.11737,183.77362 Q 332.88987,183.87862 332.80237,183.87862 H 332.76737 Q 332.58362,183.85237 332.45237,183.72112 332.31237,183.60737 332.27737,183.35362 332.27737,183.33612 332.26862,183.30987 332.26862,183.27487 332.26862,183.25737 332.26862,183.11737 332.34737,182.96862 L 336.33737,178.97862 Z"
         id="path189" />
    </g>
  </g>
</svg>
