<?xml version="1.0" encoding="UTF-8" standalone="no"?>
<svg
   version="1.1"
   id="svg2"
   viewBox="0 0 255.06226 103.19334"
   height="29.123455mm"
   width="71.984238mm"
   sodipodi:docname="Agave Nerd Font.svg"
   xmlns:inkscape="http://www.inkscape.org/namespaces/inkscape"
   xmlns:sodipodi="http://sodipodi.sourceforge.net/DTD/sodipodi-0.dtd"
   xmlns="http://www.w3.org/2000/svg"
   xmlns:svg="http://www.w3.org/2000/svg"
   xmlns:rdf="http://www.w3.org/1999/02/22-rdf-syntax-ns#"
   xmlns:cc="http://creativecommons.org/ns#"
   xmlns:dc="http://purl.org/dc/elements/1.1/">
  <sodipodi:namedview
     id="namedview12"
     pagecolor="#ffffff"
     bordercolor="#666666"
     borderopacity="1.0"
     inkscape:showpageshadow="2"
     inkscape:pageopacity="0.0"
     inkscape:pagecheckerboard="0"
     inkscape:deskcolor="#d1d1d1"
     inkscape:document-units="mm" />
  <defs
     id="defs4" />
  <metadata
     id="metadata7">
    <rdf:RDF>
      <cc:Work
         rdf:about="">
        <dc:format>image/svg+xml</dc:format>
        <dc:type
           rdf:resource="http://purl.org/dc/dcmitype/StillImage" />
        <dc:title />
      </cc:Work>
    </rdf:RDF>
  </metadata>
  <g
     id="layer1"
     transform="translate(-63.286831,-83.746132)">
    <g
       aria-label="Agave Nerd Font"
       id="text4136"
       style="font-size:27.5px;font-family:'Agave Nerd Font';letter-spacing:0px;word-spacing:0px;fill:#ffffff">
      <path
         d="M 68.362514,83.746132 H 71.101772 L 76.177456,100.93363 H 73.800747 L 72.645962,97.026161 H 66.818325 L 65.66354,100.93363 H 63.286831 Z M 69.732143,86.122841 69.329311,88.49955 67.436001,94.918007 H 72.028286 L 70.134975,88.49955 Z"
         id="path14" />
      <path
         d="M 84.072964,87.183632 H 85.200893 Q 87.134487,87.183632 87.88644,87.935585 88.638393,88.687538 88.638393,90.621132 V 99.322304 Q 88.638393,102.04813 86.986782,103.25663 85.335171,104.47855 82.193081,104.47855 81.481411,104.47855 80.83688,104.42484 80.192348,104.37113 79.910366,104.31742 L 79.614956,104.26371 V 102.26298 H 82.193081 Q 84.234097,102.26298 85.294888,101.57816 86.355679,100.90678 86.355679,99.322304 V 97.496132 H 83.482143 Q 80.998013,97.496132 79.547817,96.139931 78.11105,94.770302 78.11105,92.420448 78.11105,89.990028 79.70895,88.593544 81.30685,87.183632 84.072964,87.183632 Z M 84.072964,89.291786 Q 82.367641,89.291786 81.373989,90.137733 80.393764,90.970253 80.393764,92.420448 80.393764,93.803505 81.212856,94.595741 82.045376,95.387978 83.482143,95.387978 H 86.355679 V 90.621132 Q 86.355679,90.003456 86.046841,89.654335 85.738003,89.291786 85.200893,89.291786 Z"
         id="path16" />
      <path
         d="M 95.943081,87.07621 Q 99.568569,87.07621 100.97848,88.069862 102.38839,89.050087 102.38839,91.587929 V 97.496132 Q 102.38839,99.429726 101.63644,100.18168 100.88449,100.93363 98.950893,100.93363 H 96.426479 Q 94.304897,100.93363 93.082973,99.751991 91.86105,98.570351 91.86105,96.529335 91.86105,94.891151 93.082973,93.95121 94.304897,92.997841 96.426479,92.997841 H 100.10568 V 91.587929 Q 100.10568,90.298866 99.192593,89.80204 98.292934,89.291786 95.943081,89.291786 H 93.364956 V 87.291054 Q 94.345181,87.07621 95.943081,87.07621 Z M 96.426479,95.119423 Q 95.365688,95.119423 94.748013,95.495399 94.143764,95.871376 94.143764,96.529335 94.143764,97.590126 94.748013,98.207802 95.365688,98.825478 96.426479,98.825478 H 98.950893 Q 99.608852,98.825478 99.850552,98.543495 100.10568,98.248085 100.10568,97.496132 V 95.119423 Z"
         id="path18" />
      <path
         d="M 104.96652,87.183632 H 107.37008 L 110.40475,96.180214 110.98214,98.556923 111.55954,96.180214 114.5942,87.183632 H 116.99777 L 112.35177,100.93363 H 109.61251 Z"
         id="path20" />
      <path
         d="M 125.3901,101.04105 Q 122.59713,101.04105 120.97238,99.174599 119.36105,97.294716 119.36105,94.058632 119.36105,90.795692 120.82467,88.888954 122.2883,86.968788 124.73214,86.968788 127.17599,86.968788 128.63961,88.351845 130.10324,89.721474 130.10324,92.071327 V 92.997841 Q 130.10324,94.192909 129.60641,94.66288 129.10958,95.119423 127.82052,95.119423 H 121.75119 Q 121.75119,95.199989 121.75119,95.334267 121.76461,95.468544 121.83175,95.857948 121.91232,96.233925 122.03317,96.583046 122.15402,96.932167 122.42257,97.361855 122.70456,97.791542 123.0671,98.10038 123.44308,98.409218 124.04733,98.624062 124.65158,98.825478 125.3901,98.825478 H 129.02902 V 100.82621 Q 127.63253,101.04105 125.3901,101.04105 Z M 127.82052,92.997841 V 92.071327 Q 127.82052,90.688271 126.988,89.882607 126.16891,89.076942 124.73214,89.076942 124.1279,89.076942 123.63107,89.291786 123.13424,89.50663 122.82541,89.855751 122.52999,90.204872 122.30172,90.621132 122.08688,91.037392 121.97946,91.453651 121.88546,91.869911 121.81833,92.219032 121.76461,92.568153 121.75119,92.782997 V 92.997841 Z"
         id="path22" />
      <path
         d="M 146.64621,83.746132 H 149.38546 L 154.0986,94.058632 155.58908,97.496132 155.53537,94.058632 V 83.746132 H 157.81808 V 100.93363 H 155.0654 L 150.36569,90.621132 148.87521,87.183632 148.92892,90.621132 V 100.93363 H 146.64621 Z"
         id="path24" />
      <path
         d="M 166.6401,101.04105 Q 163.84713,101.04105 162.22238,99.174599 160.61105,97.294716 160.61105,94.058632 160.61105,90.795692 162.07467,88.888954 163.5383,86.968788 165.98214,86.968788 168.42599,86.968788 169.88961,88.351845 171.35324,89.721474 171.35324,92.071327 V 92.997841 Q 171.35324,94.192909 170.85641,94.66288 170.35958,95.119423 169.07052,95.119423 H 163.00119 Q 163.00119,95.199989 163.00119,95.334267 163.01461,95.468544 163.08175,95.857948 163.16232,96.233925 163.28317,96.583046 163.40402,96.932167 163.67257,97.361855 163.95456,97.791542 164.3171,98.10038 164.69308,98.409218 165.29733,98.624062 165.90158,98.825478 166.6401,98.825478 H 170.27902 V 100.82621 Q 168.88253,101.04105 166.6401,101.04105 Z M 169.07052,92.997841 V 92.071327 Q 169.07052,90.688271 168.238,89.882607 167.41891,89.076942 165.98214,89.076942 165.3779,89.076942 164.88107,89.291786 164.38424,89.50663 164.07541,89.855751 163.77999,90.204872 163.55172,90.621132 163.33688,91.037392 163.22946,91.453651 163.13546,91.869911 163.06833,92.219032 163.01461,92.568153 163.00119,92.782997 V 92.997841 Z"
         id="path26" />
      <path
         d="M 185.31808,92.098183 H 183.03537 Q 183.03537,90.473427 182.29684,89.775185 181.57174,89.076942 180.16183,89.076942 179.36959,89.076942 178.6445,89.224648 177.93283,89.372353 177.61056,89.520058 L 177.2883,89.667763 V 100.93363 H 175.00558 V 88.365273 Q 175.08615,88.311562 175.23385,88.217567 175.39499,88.123573 175.90524,87.881874 176.41549,87.640175 176.96603,87.452187 177.52999,87.264198 178.4028,87.116493 179.2756,86.968788 180.16183,86.968788 182.68624,86.968788 184.00216,88.150429 185.31808,89.332069 185.31808,92.098183 Z"
         id="path28" />
      <path
         d="M 198.63839,83.746132 V 97.496132 Q 198.63839,99.429726 197.88644,100.18168 197.13449,100.93363 195.20089,100.93363 H 194.07296 Q 191.30685,100.93363 189.70895,99.174599 188.11105,97.415565 188.11105,94.380898 188.11105,91.050819 189.54782,89.117226 190.99801,87.183632 193.48214,87.183632 194.94577,87.183632 196.35568,87.78788 V 83.746132 Z M 193.48214,89.291786 Q 192.04538,89.291786 191.21286,90.661415 190.39376,92.031044 190.39376,94.380898 190.39376,96.448769 191.37399,97.643837 192.36764,98.825478 194.07296,98.825478 H 195.20089 Q 195.738,98.825478 196.04684,98.476357 196.35568,98.113808 196.35568,97.496132 V 90.003456 Q 194.95919,89.291786 193.48214,89.291786 Z"
         id="path30" />
      <path
         d="M 216.25558,83.746132 H 226.13839 V 85.854286 H 218.5383 V 90.621132 H 225.70871 V 92.729286 H 218.5383 V 100.93363 H 216.25558 Z"
         id="path32" />
      <path
         d="M 229.32077,97.402138 Q 228.93136,96.019081 228.93136,94.058632 228.93136,92.098183 229.32077,90.715126 229.7236,89.332069 230.48898,88.526405 231.26779,87.707314 232.30172,87.344765 233.33566,86.968788 234.73214,86.968788 236.12863,86.968788 237.16256,87.344765 238.1965,87.707314 238.96188,88.526405 239.74069,89.332069 240.13009,90.715126 240.53292,92.098183 240.53292,94.058632 240.53292,96.019081 240.13009,97.402138 239.74069,98.785194 238.96188,99.604286 238.1965,100.40995 237.16256,100.78593 236.12863,101.14848 234.73214,101.14848 233.33566,101.14848 232.30172,100.78593 231.26779,100.40995 230.48898,99.604286 229.7236,98.785194 229.32077,97.402138 Z M 237.35055,90.231728 Q 236.45089,89.076942 234.73214,89.076942 233.01339,89.076942 232.11374,90.231728 231.21408,91.373085 231.21408,94.058632 231.21408,96.744179 232.11374,97.898964 233.01339,99.040321 234.73214,99.040321 236.45089,99.040321 237.35055,97.898964 238.25021,96.744179 238.25021,94.058632 238.25021,91.373085 237.35055,90.231728 Z"
         id="path34" />
      <path
         d="M 253.63839,100.93363 H 251.35568 V 92.098183 Q 251.35568,90.473427 250.61715,89.775185 249.89206,89.076942 248.48214,89.076942 247.68991,89.076942 246.96481,89.224648 246.25314,89.372353 245.93087,89.520058 L 245.60861,89.667763 V 100.93363 H 243.32589 V 88.365273 Q 243.40646,88.311562 243.55416,88.217567 243.7153,88.123573 244.22555,87.881874 244.73581,87.640175 245.28634,87.452187 245.85031,87.264198 246.72311,87.116493 247.59591,86.968788 248.48214,86.968788 251.00656,86.968788 252.32248,88.150429 253.63839,89.332069 253.63839,92.098183 Z"
         id="path36" />
      <path
         d="M 266.95871,100.82621 Q 266.13961,101.04105 264.81027,101.04105 262.42013,101.04105 261.18478,100.0474 259.94943,99.053749 259.94943,96.717323 V 90.621132 H 256.21652 V 88.512978 H 259.94943 V 83.746132 H 262.23214 V 88.512978 H 267.81808 V 90.621132 H 262.23214 V 96.717323 Q 262.23214,97.858681 262.8901,98.342079 263.54806,98.825478 264.81027,98.825478 H 266.95871 Z"
         id="path38" />
    </g>
    <g
       aria-label="abcdefghijklmnopqrstuvwxyzABCDEFGHIJKLMNOPQRSTUVWXYZ oO08 iIlL1 {} [] g9qCGQ ~-+=&gt;"
       id="text4140"
       style="font-size:17.5px;font-family:'Agave Nerd Font';letter-spacing:0px;word-spacing:0px;fill:#ffffff">
      <path
         d="M 68.974091,132.11526 Q 71.281219,132.11526 72.178436,132.74759 73.075653,133.37137 73.075653,134.98636 V 138.74612 Q 73.075653,139.97659 72.597137,140.45511 72.118622,140.93362 70.888153,140.93362 H 69.281708 Q 67.93161,140.93362 67.154022,140.18167 66.376434,139.42972 66.376434,138.13089 66.376434,137.08841 67.154022,136.49026 67.93161,135.88358 69.281708,135.88358 H 71.623016 V 134.98636 Q 71.623016,134.16605 71.041962,133.84988 70.469452,133.52518 68.974091,133.52518 H 67.333466 V 132.25198 Q 67.957245,132.11526 68.974091,132.11526 Z M 69.281708,137.23367 Q 68.606659,137.23367 68.213593,137.47293 67.829071,137.71219 67.829071,138.13089 67.829071,138.80594 68.213593,139.19901 68.606659,139.59207 69.281708,139.59207 H 70.888153 Q 71.306854,139.59207 71.460663,139.41263 71.623016,139.22464 71.623016,138.74612 V 137.23367 Z"
         id="path41" />
      <path
         d="M 75.263153,129.99612 H 76.71579 V 132.56815 Q 77.613007,132.18362 78.544403,132.18362 80.125214,132.18362 81.03952,133.30301 81.962372,134.42239 81.962372,136.35355 81.962372,138.47269 80.945526,139.70316 79.92868,140.93362 78.168427,140.93362 H 77.450653 Q 76.220184,140.93362 75.741669,140.45511 75.263153,139.97659 75.263153,138.74612 Z M 78.544403,133.52518 Q 77.604462,133.52518 76.71579,133.97806 V 138.74612 Q 76.71579,139.13919 76.912323,139.3699 77.108856,139.59207 77.450653,139.59207 H 78.168427 Q 79.253632,139.59207 79.877411,138.72049 80.509735,137.84891 80.509735,136.35355 80.509735,135.03763 79.97995,134.28568 79.45871,133.52518 78.544403,133.52518 Z"
         id="path43" />
      <path
         d="M 88.405243,132.11526 Q 88.926483,132.11526 89.396454,132.14944 89.874969,132.18362 90.088593,132.2178 L 90.302216,132.25198 V 133.52518 H 88.405243 Q 86.978241,133.52518 86.149384,134.34549 85.329071,135.15726 85.329071,136.55862 85.329071,138.1907 86.115204,138.89139 86.901337,139.59207 88.405243,139.59207 H 90.302216 V 140.86526 Q 89.575897,141.00198 88.405243,141.00198 87.567841,141.00198 86.892792,140.86526 86.217743,140.72 85.645233,140.39529 85.072723,140.07059 84.688202,139.56644 84.30368,139.05374 84.090057,138.30179 83.876434,137.54129 83.876434,136.55862 83.876434,134.51639 85.115448,133.3201 86.363007,132.11526 88.405243,132.11526 Z"
         id="path45" />
      <path
         d="M 99.325653,129.99612 V 138.74612 Q 99.325653,139.97659 98.847137,140.45511 98.368622,140.93362 97.138153,140.93362 H 96.42038 Q 94.660126,140.93362 93.64328,139.81424 92.626434,138.69485 92.626434,136.7637 92.626434,134.64456 93.540741,133.41409 94.463593,132.18362 96.044403,132.18362 96.9758,132.18362 97.873016,132.56815 V 129.99612 Z M 96.044403,133.52518 Q 95.130096,133.52518 94.600311,134.39676 94.079071,135.26834 94.079071,136.7637 94.079071,138.07962 94.70285,138.84012 95.335175,139.59207 96.42038,139.59207 H 97.138153 Q 97.47995,139.59207 97.676483,139.3699 97.873016,139.13919 97.873016,138.74612 V 133.97806 Q 96.984344,133.52518 96.044403,133.52518 Z"
         id="path47" />
      <path
         d="M 105.2131,141.00198 Q 103.43576,141.00198 102.40182,139.81424 101.37643,138.61795 101.37643,136.55862 101.37643,134.48221 102.30783,133.26883 103.23923,132.04691 104.7944,132.04691 106.34958,132.04691 107.28098,132.92703 108.21237,133.79861 108.21237,135.29398 V 135.88358 Q 108.21237,136.64407 107.89621,136.94315 107.58005,137.23367 106.75974,137.23367 H 102.89743 Q 102.89743,137.28494 102.89743,137.37039 102.90598,137.45584 102.9487,137.70364 102.99997,137.9429 103.07687,138.16507 103.15378,138.38724 103.32468,138.66068 103.50412,138.93411 103.73483,139.13065 103.97409,139.32718 104.35861,139.4639 104.74313,139.59207 105.2131,139.59207 H 107.52878 V 140.86526 Q 106.64011,141.00198 105.2131,141.00198 Z M 106.75974,135.88358 V 135.29398 Q 106.75974,134.41385 106.22995,133.90115 105.70871,133.38846 104.7944,133.38846 104.40988,133.38846 104.09372,133.52518 103.77756,133.6619 103.58102,133.88406 103.39304,134.10623 103.24777,134.37112 103.11105,134.63602 103.04269,134.90091 102.98288,135.1658 102.94016,135.38797 102.90598,135.61014 102.89743,135.74686 V 135.88358 Z"
         id="path49" />
      <path
         d="M 117.09909,130.06448 V 131.33768 H 115.32175 Q 114.26218,131.33768 113.90329,131.67947 113.5444,132.01273 113.5444,133.02957 H 117.09909 V 134.37112 H 113.5444 V 140.93362 H 112.09177 V 134.37112 H 109.98972 V 133.02957 H 112.09177 Q 112.09177,132.12381 112.22849,131.55984 112.37375,130.99588 112.74118,130.6199 113.10861,130.23538 113.72385,130.08157 114.33908,129.92776 115.32175,129.92776 115.80881,129.92776 116.25314,129.96194 116.69748,129.99612 116.89401,130.0303 Z"
         id="path51" />
      <path
         d="M 122.67038,132.18362 H 123.38815 Q 124.61862,132.18362 125.09714,132.66214 125.57565,133.14066 125.57565,134.37112 V 139.90823 Q 125.57565,141.64285 124.52463,142.4119 123.4736,143.18948 121.47409,143.18948 121.02121,143.18948 120.61105,143.1553 120.2009,143.12112 120.02145,143.08694 L 119.83347,143.05276 V 141.77957 H 121.47409 Q 122.77292,141.77957 123.44797,141.34378 124.12302,140.91653 124.12302,139.90823 V 138.74612 H 122.2944 Q 120.71359,138.74612 119.79074,137.88309 118.87643,137.01151 118.87643,135.51614 118.87643,133.96951 119.89328,133.08084 120.91013,132.18362 122.67038,132.18362 Z M 122.67038,133.52518 Q 121.58517,133.52518 120.95285,134.06351 120.32907,134.59329 120.32907,135.51614 120.32907,136.39627 120.85031,136.90042 121.3801,137.40457 122.2944,137.40457 H 124.12302 V 134.37112 Q 124.12302,133.97806 123.92648,133.75589 123.72995,133.52518 123.38815,133.52518 Z"
         id="path53" />
      <path
         d="M 127.76315,129.99612 H 129.21579 V 132.56815 Q 130.11301,132.18362 131.0444,132.18362 132.65085,132.18362 133.48825,132.90994 134.32565,133.62772 134.32565,135.31107 V 140.93362 H 132.87302 V 135.31107 Q 132.84738,134.34549 132.38596,133.93533 131.93307,133.52518 131.0444,133.52518 130.10446,133.52518 129.21579,133.97806 V 140.93362 H 127.76315 Z"
         id="path55" />
      <path
         d="M 138.20505,129.1929 H 140.77707 V 130.78226 H 138.20505 Z M 136.78659,133.02957 H 140.52072 V 139.59207 H 143.07565 V 140.93362 H 136.51315 V 139.59207 H 139.06808 V 134.37112 H 136.78659 Z"
         id="path57" />
      <path
         d="M 148.68967,129.1929 H 151.26169 V 130.78226 H 148.68967 Z M 145.81003,133.02957 H 151.00534 V 139.90823 Q 151.00534,141.67703 149.95432,142.42899 148.91183,143.18948 146.90378,143.18948 146.4509,143.18948 146.04074,143.1553 145.63058,143.12112 145.45114,143.08694 L 145.26315,143.05276 V 141.77957 H 146.90378 Q 148.20261,141.77957 148.87766,141.34378 149.5527,140.91653 149.5527,139.90823 V 134.37112 H 145.81003 Z"
         id="path59" />
      <path
         d="M 154.01315,129.99612 H 155.46579 V 135.32816 L 158.66159,132.18362 H 160.57565 L 157.1235,135.57596 161.12253,140.93362 H 159.44772 L 155.46579,135.60159 V 140.93362 H 154.01315 Z"
         id="path61" />
      <path
         d="M 163.03659,129.99612 H 166.77072 V 139.59207 H 169.32565 V 140.93362 H 162.76315 V 139.59207 H 165.31808 V 131.33768 H 163.03659 Z"
         id="path63" />
      <path
         d="M 173.21359,132.11526 Q 173.56393,132.11526 173.85446,132.17508 174.15353,132.23489 174.33298,132.32889 174.51242,132.41434 174.63205,132.49979 174.76022,132.58524 174.81149,132.64505 L 174.86276,132.70486 Q 174.8884,132.67923 174.93112,132.64505 174.97385,132.60233 175.11911,132.49979 175.27292,132.39725 175.43527,132.32034 175.60617,132.24344 175.85397,132.18362 176.11032,132.11526 176.37521,132.11526 177.42624,132.11526 178.02438,132.71341 178.62253,133.30301 178.62253,134.37112 V 140.93362 H 177.28098 V 134.37112 Q 177.28098,133.86697 177.03317,133.58499 176.79391,133.29446 176.37521,133.29446 176.12741,133.29446 175.8967,133.397 175.67453,133.49954 175.57199,133.60208 L 175.46945,133.70462 V 140.93362 H 174.11935 V 134.37112 Q 174.11935,133.87552 173.8801,133.58499 173.64084,133.29446 173.21359,133.29446 172.96579,133.29446 172.73508,133.397 172.51291,133.49954 172.41037,133.60208 L 172.30783,133.70462 V 140.93362 H 170.96628 V 132.93558 Q 171.00046,132.9014 171.06027,132.85013 171.12863,132.79031 171.3508,132.65359 171.58151,132.50833 171.82077,132.40579 172.06857,132.29471 172.44455,132.20926 172.82053,132.11526 173.21359,132.11526 Z"
         id="path65" />
      <path
         d="M 186.82565,140.93362 H 185.37302 V 135.31107 Q 185.37302,134.27713 184.90305,133.83279 184.44162,133.38846 183.5444,133.38846 183.04025,133.38846 182.57883,133.48245 182.12595,133.57645 181.92087,133.67044 L 181.71579,133.76443 V 140.93362 H 180.26315 V 132.93558 Q 180.31442,132.9014 180.40842,132.84158 180.51096,132.78177 180.83566,132.62796 181.16037,132.47415 181.51071,132.35452 181.8696,132.23489 182.42502,132.1409 182.98044,132.04691 183.5444,132.04691 185.15085,132.04691 185.98825,132.79886 186.82565,133.55081 186.82565,135.31107 Z"
         id="path67" />
      <path
         d="M 188.8508,138.68631 Q 188.603,137.80618 188.603,136.55862 188.603,135.31107 188.8508,134.43094 189.10715,133.55081 189.59421,133.03812 190.08981,132.51688 190.74777,132.28616 191.40573,132.04691 192.2944,132.04691 193.18307,132.04691 193.84103,132.28616 194.49899,132.51688 194.98605,133.03812 195.48166,133.55081 195.72946,134.43094 195.98581,135.31107 195.98581,136.55862 195.98581,137.80618 195.72946,138.68631 195.48166,139.56644 194.98605,140.08768 194.49899,140.60037 193.84103,140.83963 193.18307,141.07034 192.2944,141.07034 191.40573,141.07034 190.74777,140.83963 190.08981,140.60037 189.59421,140.08768 189.10715,139.56644 188.8508,138.68631 Z M 193.96066,134.12332 Q 193.38815,133.38846 192.2944,133.38846 191.20065,133.38846 190.62814,134.12332 190.05563,134.84964 190.05563,136.55862 190.05563,138.26761 190.62814,139.00247 191.20065,139.72879 192.2944,139.72879 193.38815,139.72879 193.96066,139.00247 194.53317,138.26761 194.53317,136.55862 194.53317,134.84964 193.96066,134.12332 Z"
         id="path69" />
      <path
         d="M 199.95065,132.18362 H 201.0444 Q 202.62521,132.18362 203.53952,133.05521 204.46237,133.91824 204.46237,135.4136 204.46237,136.96024 203.44553,137.85745 202.42868,138.74612 200.66843,138.74612 H 199.21579 V 143.12112 H 197.76315 V 134.37112 Q 197.76315,133.14066 198.24167,132.66214 198.72018,132.18362 199.95065,132.18362 Z M 199.95065,133.52518 Q 199.60886,133.52518 199.41232,133.75589 199.21579,133.97806 199.21579,134.37112 V 137.40457 H 200.66843 Q 201.75363,137.40457 202.37741,136.87479 203.00974,136.33646 203.00974,135.4136 203.00974,134.53348 202.47995,134.02933 201.95871,133.52518 201.0444,133.52518 Z"
         id="path71" />
      <path
         d="M 210.17038,132.18362 H 210.88815 Q 212.11862,132.18362 212.59714,132.66214 213.07565,133.14066 213.07565,134.37112 V 143.12112 H 211.62302 V 138.74612 H 209.7944 Q 208.21359,138.74612 207.29074,137.88309 206.37643,137.01151 206.37643,135.51614 206.37643,133.96951 207.39328,133.08084 208.41013,132.18362 210.17038,132.18362 Z M 210.17038,133.52518 Q 209.08517,133.52518 208.45285,134.06351 207.82907,134.59329 207.82907,135.51614 207.82907,136.39627 208.35031,136.90042 208.8801,137.40457 209.7944,137.40457 H 211.62302 V 134.37112 Q 211.62302,133.97806 211.42648,133.75589 211.22995,133.52518 210.88815,133.52518 Z"
         id="path73" />
      <path
         d="M 222.09909,135.31107 H 220.64645 Q 220.64645,134.27713 220.17648,133.83279 219.71506,133.38846 218.81784,133.38846 218.31369,133.38846 217.85226,133.48245 217.39938,133.57645 217.19431,133.67044 L 216.98923,133.76443 V 140.93362 H 215.53659 V 132.93558 Q 215.58786,132.9014 215.68185,132.84158 215.78439,132.78177 216.1091,132.62796 216.43381,132.47415 216.78415,132.35452 217.14304,132.23489 217.69846,132.1409 218.25388,132.04691 218.81784,132.04691 220.42429,132.04691 221.26169,132.79886 222.09909,133.55081 222.09909,135.31107 Z"
         id="path75" />
      <path
         d="M 228.33688,132.11526 Q 228.79831,132.11526 229.21701,132.14944 229.64426,132.18362 229.84079,132.2178 L 230.02878,132.25198 V 133.52518 H 228.33688 Q 226.99533,133.52518 226.29465,133.79861 225.60251,134.06351 225.60251,134.68729 225.60251,135.06326 225.8674,135.32816 226.13229,135.5845 226.55954,135.73831 226.98679,135.88358 227.49948,136.01175 228.02072,136.13992 228.53342,136.31082 229.05466,136.47318 229.4819,136.72098 229.90915,136.96024 230.17404,137.39603 230.43893,137.83182 230.43893,138.43851 230.43893,139.82278 229.32809,140.41238 228.21725,141.00198 226.08102,141.00198 225.58542,141.00198 225.13254,140.9678 224.6882,140.93362 224.49167,140.89944 L 224.28659,140.86526 V 139.59207 H 226.08102 Q 227.50803,139.59207 228.24289,139.32718 228.9863,139.06229 228.9863,138.43851 228.9863,138.10526 228.77267,137.85745 228.5676,137.60965 228.2258,137.47293 227.89255,137.33621 227.45676,137.20804 227.02097,137.07132 226.56808,136.96878 226.1152,136.86624 225.67941,136.6868 225.24362,136.49881 224.90182,136.2681 224.56857,136.02884 224.35495,135.62723 224.14987,135.21707 224.14987,134.68729 224.14987,133.30301 225.21799,132.71341 226.2861,132.11526 228.33688,132.11526 Z"
         id="path77" />
      <path
         d="M 239.05222,140.86526 Q 238.53098,141.00198 237.68503,141.00198 236.16403,141.00198 235.3779,140.36966 234.59177,139.73734 234.59177,138.25052 V 134.37112 H 232.21628 V 133.02957 H 234.59177 V 129.99612 H 236.0444 V 133.02957 H 239.59909 V 134.37112 H 236.0444 V 138.25052 Q 236.0444,138.97684 236.4631,139.28445 236.88181,139.59207 237.68503,139.59207 H 239.05222 Z"
         id="path79" />
      <path
         d="M 241.51315,132.18362 H 242.96579 V 137.80618 Q 242.96579,138.84012 243.42722,139.28445 243.89719,139.72879 244.7944,139.72879 245.29855,139.72879 245.75143,139.6348 246.21286,139.5408 246.41794,139.44681 L 246.62302,139.35281 V 132.18362 H 248.07565 V 140.18167 Q 248.02438,140.21585 247.92184,140.27567 247.82785,140.33548 247.50314,140.48929 247.17844,140.6431 246.81955,140.76273 246.46921,140.88235 245.91379,140.97635 245.35837,141.07034 244.7944,141.07034 243.18796,141.07034 242.35056,140.31839 241.51315,139.56644 241.51315,137.80618 Z"
         id="path81" />
      <path
         d="M 249.71628,132.18362 H 251.24582 L 253.17697,137.90872 253.5444,139.42117 253.91183,137.90872 255.84299,132.18362 H 257.37253 L 254.41599,140.93362 H 252.67282 Z"
         id="path83" />
      <path
         d="M 258.19284,132.18362 H 259.54294 L 260.22653,137.90872 260.36325,139.42117 260.72214,137.90872 261.85861,134.37112 H 262.73019 L 263.86667,137.90872 264.22556,139.42117 264.36227,137.90872 265.04587,132.18362 H 266.39597 L 265.35349,140.93362 H 263.61032 L 262.2944,136.35355 260.97849,140.93362 H 259.23532 Z"
         id="path85" />
      <path
         d="M 267.21628,132.18362 H 268.96799 L 271.0444,135.46487 273.12082,132.18362 H 274.87253 L 271.92453,136.55862 274.87253,140.93362 H 273.12082 L 271.0444,137.65237 268.96799,140.93362 H 267.21628 L 270.16428,136.55862 Z"
         id="path87" />
      <path
         d="M 276.51315,132.18362 H 277.96579 V 136.0972 Q 277.96579,136.70389 278.45285,137.05423 278.94846,137.40457 279.7944,137.40457 H 281.62302 V 132.18362 H 283.07565 V 139.90823 Q 283.07565,141.67703 282.02463,142.42899 280.98215,143.18948 278.97409,143.18948 278.52121,143.18948 278.11105,143.1553 277.7009,143.12112 277.52145,143.08694 L 277.33347,143.05276 V 141.77957 H 278.97409 Q 280.27292,141.77957 280.94797,141.34378 281.62302,140.91653 281.62302,139.90823 V 138.74612 H 279.7944 Q 278.27341,138.74612 277.39328,138.0369 276.51315,137.32767 276.51315,136.0972 Z"
         id="path89" />
      <path
         d="M 285.53659,132.18362 H 291.55222 V 133.52518 L 286.9465,139.59207 H 291.82565 V 140.93362 H 285.26315 V 139.59207 L 289.86887,133.52518 H 285.53659 Z"
         id="path91" />
      <path
         d="M 68.922821,151.87112 H 70.665985 L 73.895966,162.80862 H 72.383514 L 71.648651,160.32205 H 67.940155 L 67.205292,162.80862 H 65.692841 Z M 69.794403,153.38358 69.538055,154.89603 68.333221,158.9805 H 71.255585 L 70.050751,154.89603 Z"
         id="path93" />
      <path
         d="M 75.263153,151.87112 H 77.450653 Q 79.37326,151.87112 80.390106,152.54617 81.415497,153.22122 81.415497,154.72513 81.415497,155.17801 81.261688,155.55399 81.116425,155.92996 80.902802,156.14359 80.689178,156.35721 80.475555,156.51102 80.261932,156.65628 80.116669,156.70755 L 79.96286,156.75882 Q 80.056854,156.78445 80.210663,156.83572 80.364471,156.88699 80.748993,157.10062 81.142059,157.31424 81.441132,157.59622 81.748749,157.8782 81.988007,158.3909 82.235809,158.90359 82.235809,159.52737 82.235809,160.43314 81.911102,161.07401 81.586395,161.71487 80.945526,162.09085 80.304657,162.46683 79.450165,162.63773 78.595673,162.80862 77.450653,162.80862 H 75.263153 Z M 76.71579,153.21268 V 156.24612 H 77.450653 Q 78.612762,156.24612 79.287811,155.83597 79.96286,155.42581 79.96286,154.72513 79.96286,154.02444 79.287811,153.62283 78.612762,153.21268 77.450653,153.21268 Z M 76.71579,157.58768 V 161.46707 H 77.450653 Q 78.27951,161.46707 78.85202,161.39017 79.42453,161.30472 79.877411,161.09964 80.338837,160.88602 80.561005,160.5015 80.783173,160.10843 80.783173,159.52737 80.783173,158.94632 80.561005,158.5618 80.338837,158.16873 79.877411,157.96365 79.42453,157.75003 78.85202,157.67313 78.27951,157.58768 77.450653,157.58768 Z"
         id="path95" />
      <path
         d="M 88.601776,151.80276 Q 89.148651,151.80276 89.635712,151.83694 90.131317,151.87112 90.353485,151.9053 L 90.575653,151.93948 V 153.21268 H 88.601776 Q 87.11496,153.21268 86.251923,154.32352 85.39743,155.42581 85.39743,157.33987 85.39743,159.56155 86.209198,160.51859 87.02951,161.46707 88.601776,161.46707 H 90.575653 V 162.74026 Q 89.8237,162.87698 88.601776,162.87698 87.465302,162.87698 86.619354,162.595 85.781952,162.30447 85.149628,161.67215 84.517303,161.03983 84.192596,159.95462 83.876434,158.86942 83.876434,157.33987 83.876434,154.7764 85.141083,153.28958 86.414276,151.80276 88.601776,151.80276 Z"
         id="path97" />
      <path
         d="M 92.763153,151.87112 H 94.950653 Q 96.095673,151.87112 96.950165,152.15311 97.804657,152.43509 98.445526,153.06741 99.086395,153.69119 99.411102,154.75931 99.735809,155.82742 99.735809,157.33987 99.735809,158.85233 99.411102,159.92044 99.086395,160.98856 98.445526,161.62088 97.804657,162.24466 96.950165,162.52664 96.095673,162.80862 94.950653,162.80862 H 92.763153 Z M 94.21579,153.21268 V 161.46707 H 94.950653 Q 95.736786,161.46707 96.317841,161.25345 96.898895,161.03983 97.334686,160.56985 97.770477,160.09134 97.992645,159.28812 98.214813,158.47635 98.214813,157.33987 98.214813,156.2034 97.992645,155.40018 97.770477,154.58841 97.334686,154.11844 96.898895,153.63992 96.317841,153.4263 95.736786,153.21268 94.950653,153.21268 Z"
         id="path99" />
      <path
         d="M 101.78659,151.87112 H 108.07565 V 153.21268 H 103.23923 V 156.24612 H 107.52878 V 157.58768 H 103.23923 V 161.46707 H 108.07565 V 162.80862 H 101.78659 Z"
         id="path101" />
      <path
         d="M 110.53659,151.87112 H 116.82565 V 153.21268 H 111.98923 V 156.24612 H 116.55222 V 157.58768 H 111.98923 V 162.80862 H 110.53659 Z"
         id="path103" />
      <path
         d="M 123.38815,151.80276 Q 123.96066,151.80276 124.50754,151.83694 125.05441,151.87112 125.31931,151.9053 L 125.57565,151.93948 V 153.21268 H 123.38815 Q 121.78171,153.21268 120.95285,154.29788 120.12399,155.38309 120.12399,157.33987 120.12399,158.49344 120.30344,159.3223 120.48288,160.14261 120.83322,160.62112 121.19211,161.09964 121.66208,161.32181 122.13205,161.53543 122.76437,161.53543 123.55905,161.53543 123.97775,161.32181 124.39645,161.10818 124.39645,160.62112 V 157.58768 H 122.2944 V 156.24612 H 125.84909 V 160.62112 Q 125.84909,161.8345 125.06296,162.35574 124.27682,162.87698 122.76437,162.87698 121.76462,162.87698 121.02121,162.595 120.2778,162.30447 119.72238,161.67215 119.16696,161.03983 118.88498,159.95462 118.603,158.86942 118.603,157.33987 118.603,154.74222 119.83347,153.27249 121.07248,151.80276 123.38815,151.80276 Z"
         id="path105" />
      <path
         d="M 127.48972,151.87112 H 128.94235 V 156.24612 H 133.14645 V 151.87112 H 134.59909 V 162.80862 H 133.14645 V 157.58768 H 128.94235 V 162.80862 H 127.48972 Z"
         id="path107" />
      <path
         d="M 136.78659,151.87112 H 142.80222 V 153.21268 H 140.52072 V 161.46707 H 142.80222 V 162.80862 H 136.78659 V 161.46707 H 139.06808 V 153.21268 H 136.78659 Z"
         id="path109" />
      <path
         d="M 145.81003,151.87112 H 151.27878 V 158.314 Q 151.27878,159.57864 150.98825,160.47586 150.69772,161.36453 150.12521,161.88577 149.5527,162.40701 148.79221,162.64627 148.03171,162.87698 147.00632,162.87698 146.5278,162.87698 146.09201,162.8428 145.65622,162.80862 145.45969,162.77444 L 145.26315,162.74026 V 161.46707 H 147.00632 Q 148.39059,161.46707 149.10837,160.74075 149.82614,160.01443 149.82614,158.314 V 153.21268 H 145.81003 Z"
         id="path111" />
      <path
         d="M 159.17429,151.87112 H 160.84909 L 156.99533,156.98953 161.12253,162.80862 H 159.34518 L 155.46579,157.33987 V 162.80862 H 154.01315 V 151.87112 H 155.46579 V 156.793 Z"
         id="path113" />
      <path
         d="M 163.03659,151.87112 H 164.48923 V 161.46707 H 169.32565 V 162.80862 H 163.03659 Z"
         id="path115" />
      <path
         d="M 170.96628,151.87112 H 172.30783 L 174.7944,156.58792 177.28098,151.87112 H 178.62253 V 162.80862 H 177.28098 V 156.24612 L 177.4006,154.05862 176.38376,156.24612 175.23019,158.43362 H 174.35861 L 173.20505,156.24612 172.1882,154.05862 172.30783,156.24612 V 162.80862 H 170.96628 Z"
         id="path117" />
      <path
         d="M 179.98972,151.87112 H 181.73288 L 184.73215,158.43362 185.68063,160.62112 185.64645,158.43362 V 151.87112 H 187.09909 V 162.80862 H 185.34738 L 182.35666,156.24612 181.40817,154.05862 181.44235,156.24612 V 162.80862 H 179.98972 Z"
         id="path119" />
      <path
         d="M 188.8508,159.9888 Q 188.603,158.88651 188.603,157.33987 188.603,155.79324 188.8508,154.69949 189.10715,153.5972 189.59421,152.95633 190.08981,152.31546 190.74777,152.02493 191.40573,151.73441 192.2944,151.73441 193.18307,151.73441 193.84103,152.02493 194.49899,152.31546 194.98605,152.95633 195.48166,153.5972 195.72946,154.69949 195.98581,155.79324 195.98581,157.33987 195.98581,158.88651 195.72946,159.9888 195.48166,161.08255 194.98605,161.72342 194.49899,162.36429 193.84103,162.65482 193.18307,162.94534 192.2944,162.94534 191.40573,162.94534 190.74777,162.65482 190.08981,162.36429 189.59421,161.72342 189.10715,161.08255 188.8508,159.9888 Z M 193.20016,153.29813 Q 192.81564,153.07596 192.2944,153.07596 191.77316,153.07596 191.3801,153.29813 190.99557,153.52029 190.70505,154.00735 190.42307,154.49442 190.26926,155.33182 190.12399,156.16068 190.12399,157.33987 190.12399,158.51907 190.26926,159.35648 190.42307,160.18533 190.70505,160.67239 190.99557,161.15945 191.3801,161.38162 191.77316,161.60379 192.2944,161.60379 192.81564,161.60379 193.20016,161.38162 193.59323,161.15945 193.87521,160.67239 194.16574,160.18533 194.311,159.35648 194.46481,158.51907 194.46481,157.33987 194.46481,156.16068 194.311,155.33182 194.16574,154.49442 193.87521,154.00735 193.59323,153.52029 193.20016,153.29813 Z"
         id="path121" />
      <path
         d="M 198.03659,151.87112 H 201.83054 Q 203.17209,151.87112 203.94968,152.75125 204.73581,153.63138 204.73581,155.15237 204.73581,156.67337 203.71896,157.5535 202.70212,158.43362 200.94186,158.43362 H 199.48923 V 162.80862 H 198.03659 Z M 199.48923,153.21268 V 157.09207 H 200.94186 Q 202.02707,157.09207 202.65085,156.57083 203.28317,156.04959 203.28317,155.15237 203.28317,154.25516 202.89011,153.73392 202.50558,153.21268 201.83054,153.21268 Z"
         id="path123" />
      <path
         d="M 206.70114,152.87088 Q 207.57272,151.73441 209.7944,151.73441 212.01608,151.73441 212.88766,152.87088 213.75925,153.99881 213.75925,156.85281 213.75925,159.46756 213.03293,160.60403 212.31516,161.74051 210.52072,161.90286 V 164.15018 H 209.06808 V 161.90286 Q 207.27365,161.74051 206.54733,160.60403 205.82956,159.46756 205.82956,156.85281 205.82956,153.99881 206.70114,152.87088 Z M 211.75974,153.90482 Q 211.21286,153.07596 209.7944,153.07596 208.37595,153.07596 207.82053,153.90482 207.27365,154.72513 207.2822,156.85281 207.29074,158.76688 207.71799,159.58719 208.15378,160.4075 209.24753,160.53568 V 156.85281 H 210.34128 V 160.53568 Q 211.43503,160.4075 211.87082,159.58719 212.30661,158.76688 212.30661,156.85281 212.30661,154.72513 211.75974,153.90482 Z"
         id="path125" />
      <path
         d="M 215.26315,151.87112 H 219.0571 Q 220.4841,151.87112 221.21896,152.52908 221.96237,153.18704 221.96237,154.72513 221.96237,156.82718 220.03122,157.37405 L 222.37253,162.80862 H 220.79172 L 218.5444,157.58768 H 216.71579 V 162.80862 H 215.26315 Z M 216.71579,153.21268 V 156.24612 H 218.16843 Q 219.31345,156.24612 219.91159,155.89578 220.50974,155.54544 220.50974,154.72513 220.50974,153.91336 220.13376,153.56302 219.76633,153.21268 219.0571,153.21268 Z"
         id="path127" />
      <path
         d="M 228.49069,151.80276 Q 229.0632,151.80276 229.58444,151.83694 230.10568,151.87112 230.3364,151.9053 L 230.57565,151.93948 V 153.21268 H 228.49069 Q 226.9697,153.21268 226.18356,153.58011 225.39743,153.939 225.39743,154.78494 225.39743,155.1951 225.58542,155.51126 225.78195,155.82742 226.09811,156.04105 226.42282,156.25467 226.84152,156.43411 227.26877,156.60501 227.73019,156.76736 228.19162,156.92972 228.65305,157.10062 229.11447,157.27151 229.53317,157.51932 229.96042,157.75858 230.27658,158.07474 230.60129,158.38235 230.78928,158.85233 230.98581,159.31375 230.98581,159.89481 230.98581,161.03128 230.49875,161.67215 230.02023,162.31302 228.93503,162.595 227.85837,162.87698 225.92722,162.87698 225.32907,162.87698 224.7822,162.8428 224.23532,162.80862 223.98752,162.77444 L 223.73972,162.74026 V 161.46707 H 225.92722 Q 227.91818,161.46707 228.68723,161.12527 229.46481,160.78348 229.46481,159.89481 229.46481,159.48465 229.26828,159.16849 229.08029,158.85233 228.75558,158.6387 228.43942,158.42508 228.01218,158.25418 227.59348,158.07474 227.13205,157.91238 226.67062,157.75003 226.2092,157.57913 225.74777,157.40823 225.32053,157.16898 224.90182,156.92117 224.57712,156.61356 224.26096,156.29739 224.06442,155.83597 223.87643,155.366 223.87643,154.78494 223.87643,153.1785 225.04709,152.4949 226.22629,151.80276 228.49069,151.80276 Z"
         id="path129" />
      <path
         d="M 232.21628,151.87112 H 239.87253 V 153.21268 H 236.77072 V 162.80862 H 235.31808 V 153.21268 H 232.21628 Z"
         id="path131" />
      <path
         d="M 241.23972,151.87112 H 242.69235 V 157.88675 Q 242.69235,159.98026 243.14523,160.79202 243.60666,161.60379 244.7944,161.60379 245.98215,161.60379 246.43503,160.79202 246.89645,159.98026 246.89645,157.88675 V 151.87112 H 248.34909 V 157.88675 Q 248.34909,159.33939 248.16965,160.28787 247.9902,161.22781 247.56296,161.8345 247.14426,162.44119 246.47775,162.69754 245.81125,162.94534 244.7944,162.94534 243.77756,162.94534 243.11105,162.69754 242.44455,162.44119 242.0173,161.8345 241.5986,161.22781 241.41916,160.28787 241.23972,159.33939 241.23972,157.88675 Z"
         id="path133" />
      <path
         d="M 249.44284,151.87112 H 250.95529 L 253.28806,159.78372 253.5444,161.29617 253.80075,159.78372 256.13351,151.87112 H 257.64597 L 254.41599,162.80862 H 252.67282 Z"
         id="path135" />
      <path
         d="M 258.19284,151.87112 H 259.53439 L 260.2009,160.71512 261.85861,156.24612 H 262.73019 L 264.38791,160.71512 265.05441,151.87112 H 266.39597 L 265.57565,162.80862 H 263.83249 L 262.2944,158.65579 260.75632,162.80862 H 259.01315 Z"
         id="path137" />
      <path
         d="M 266.94284,151.87112 H 268.63474 L 271.0444,156.05814 273.45407,151.87112 H 275.14597 L 271.89035,157.33987 275.14597,162.80862 H 273.45407 L 271.0444,158.62161 268.63474,162.80862 H 266.94284 L 270.19846,157.33987 Z"
         id="path139" />
      <path
         d="M 275.69284,151.87112 H 277.32492 L 279.7944,156.82718 282.26389,151.87112 H 283.89597 L 280.52072,158.43362 V 162.80862 H 279.06808 V 158.43362 Z"
         id="path141" />
      <path
         d="M 291.82565,151.87112 V 153.21268 L 286.58762,161.46707 H 292.09909 V 162.80862 H 284.98972 V 161.46707 L 290.22775,153.21268 H 285.26315 V 151.87112 Z"
         id="path143" />
      <path
         d="M 66.3508,182.43631 Q 66.102997,181.55618 66.102997,180.30862 66.102997,179.06107 66.3508,178.18094 66.607147,177.30081 67.094208,176.78812 67.589813,176.26688 68.247772,176.03616 68.905731,175.79691 69.794403,175.79691 70.683075,175.79691 71.341034,176.03616 71.998993,176.26688 72.486053,176.78812 72.981659,177.30081 73.229462,178.18094 73.485809,179.06107 73.485809,180.30862 73.485809,181.55618 73.229462,182.43631 72.981659,183.31644 72.486053,183.83768 71.998993,184.35037 71.341034,184.58963 70.683075,184.82034 69.794403,184.82034 68.905731,184.82034 68.247772,184.58963 67.589813,184.35037 67.094208,183.83768 66.607147,183.31644 66.3508,182.43631 Z M 71.460663,177.87332 Q 70.888153,177.13846 69.794403,177.13846 68.700653,177.13846 68.128143,177.87332 67.555634,178.59964 67.555634,180.30862 67.555634,182.01761 68.128143,182.75247 68.700653,183.47879 69.794403,183.47879 70.888153,183.47879 71.460663,182.75247 72.033173,182.01761 72.033173,180.30862 72.033173,178.59964 71.460663,177.87332 Z"
         id="path145" />
      <path
         d="M 75.1008,181.8638 Q 74.852997,180.76151 74.852997,179.21487 74.852997,177.66824 75.1008,176.57449 75.357147,175.4722 75.844208,174.83133 76.339813,174.19046 76.997772,173.89993 77.655731,173.60941 78.544403,173.60941 79.433075,173.60941 80.091034,173.89993 80.748993,174.19046 81.236053,174.83133 81.731659,175.4722 81.979462,176.57449 82.235809,177.66824 82.235809,179.21487 82.235809,180.76151 81.979462,181.8638 81.731659,182.95755 81.236053,183.59842 80.748993,184.23929 80.091034,184.52982 79.433075,184.82034 78.544403,184.82034 77.655731,184.82034 76.997772,184.52982 76.339813,184.23929 75.844208,183.59842 75.357147,182.95755 75.1008,181.8638 Z M 79.450165,175.17313 Q 79.065643,174.95096 78.544403,174.95096 78.023163,174.95096 77.630096,175.17313 77.245575,175.39529 76.955048,175.88235 76.673065,176.36942 76.519257,177.20682 76.373993,178.03568 76.373993,179.21487 76.373993,180.39407 76.519257,181.23148 76.673065,182.06033 76.955048,182.54739 77.245575,183.03445 77.630096,183.25662 78.023163,183.47879 78.544403,183.47879 79.065643,183.47879 79.450165,183.25662 79.843231,183.03445 80.125214,182.54739 80.415741,182.06033 80.561005,181.23148 80.714813,180.39407 80.714813,179.21487 80.714813,178.03568 80.561005,177.20682 80.415741,176.36942 80.125214,175.88235 79.843231,175.39529 79.450165,175.17313 Z"
         id="path147" />
      <path
         d="M 84.594208,175.11331 Q 85.585419,173.60941 87.294403,173.60941 89.003387,173.60941 89.994598,175.11331 90.985809,176.61722 90.985809,179.21487 90.985809,181.81253 89.994598,183.31644 89.003387,184.82034 87.294403,184.82034 85.585419,184.82034 84.594208,183.31644 83.602997,181.81253 83.602997,179.21487 83.602997,176.61722 84.594208,175.11331 Z M 88.883759,176.09598 Q 88.302704,174.95096 87.294403,174.95096 86.286102,174.95096 85.705048,176.09598 85.123993,177.241 85.123993,179.21487 85.123993,181.18875 85.705048,182.33377 86.286102,183.47879 87.294403,183.47879 88.302704,183.47879 88.883759,182.33377 89.464813,181.18875 89.464813,179.21487 89.464813,177.241 88.883759,176.09598 Z M 86.568085,178.12112 H 88.020721 V 180.30862 H 86.568085 Z"
         id="path149" />
      <path
         d="M 92.626434,176.39505 Q 92.626434,175.10477 93.540741,174.36136 94.463593,173.60941 96.044403,173.60941 97.625214,173.60941 98.53952,174.36136 99.462372,175.10477 99.462372,176.39505 99.462372,176.79666 99.248749,177.18118 99.043671,177.5657 98.744598,177.8306 98.445526,178.08694 98.146454,178.30057 97.847382,178.50565 97.633759,178.59964 L 97.42868,178.70218 Q 97.522675,178.7449 97.676483,178.83035 97.830292,178.9158 98.223358,179.20633 98.624969,179.48831 98.932587,179.80447 99.240204,180.11209 99.488007,180.59915 99.735809,181.08621 99.735809,181.58182 99.735809,183.08572 98.744598,183.95731 97.753387,184.82034 96.044403,184.82034 94.335419,184.82034 93.344208,183.95731 92.352997,183.08572 92.352997,181.58182 92.352997,181.08621 92.592255,180.6077 92.831512,180.12064 93.164764,179.79593 93.506561,179.46268 93.839813,179.20633 94.18161,178.94998 94.420868,178.82181 L 94.660126,178.70218 Q 94.574677,178.668 94.437958,178.59964 94.301239,178.53128 93.950897,178.30057 93.600555,178.06985 93.327118,177.82205 93.062225,177.57425 92.840057,177.18973 92.626434,176.79666 92.626434,176.39505 Z M 94.079071,176.39505 Q 94.079071,176.69412 94.275604,176.98465 94.480682,177.26663 94.77121,177.46317 95.061737,177.6597 95.352264,177.82205 95.642792,177.97586 95.839325,178.05276 L 96.044403,178.12112 Q 96.087128,178.10403 96.155487,178.0784 96.223846,178.05276 96.428925,177.96732 96.634003,177.87332 96.821991,177.77933 97.009979,177.67679 97.232147,177.52298 97.46286,177.36917 97.625214,177.20682 97.787567,177.04446 97.898651,176.83084 98.009735,176.61722 98.009735,176.39505 98.009735,175.72855 97.47995,175.34402 96.950165,174.95096 96.044403,174.95096 95.138641,174.95096 94.608856,175.34402 94.079071,175.72855 94.079071,176.39505 Z M 96.044403,179.28323 Q 96.001678,179.30032 95.916229,179.3345 95.839325,179.36868 95.600067,179.48831 95.369354,179.60794 95.155731,179.74466 94.950653,179.87283 94.68576,180.08646 94.429413,180.29153 94.241425,180.50516 94.061981,180.71878 93.933807,181.00931 93.805634,181.29129 93.805634,181.58182 93.805634,182.39359 94.403778,182.8721 95.010468,183.34207 96.044403,183.34207 97.078339,183.34207 97.676483,182.8721 98.283173,182.39359 98.283173,181.58182 98.283173,181.18875 98.05246,180.80423 97.821747,180.41971 97.488495,180.15482 97.163788,179.88992 96.830536,179.68484 96.505829,179.47977 96.275116,179.38577 Z"
         id="path151" />
      <path
         d="M 111.95505,172.9429 H 114.52707 V 174.53226 H 111.95505 Z M 110.53659,176.77957 H 114.27072 V 183.34207 H 116.82565 V 184.68362 H 110.26315 V 183.34207 H 112.81808 V 178.12112 H 110.53659 Z"
         id="path153" />
      <path
         d="M 119.28659,173.74612 H 125.30222 V 175.08768 H 123.02072 V 183.34207 H 125.30222 V 184.68362 H 119.28659 V 183.34207 H 121.56808 V 175.08768 H 119.28659 Z"
         id="path155" />
      <path
         d="M 128.03659,173.74612 H 131.77072 V 183.34207 H 134.32565 V 184.68362 H 127.76315 V 183.34207 H 130.31808 V 175.08768 H 128.03659 Z"
         id="path157" />
      <path
         d="M 136.78659,173.74612 H 138.23923 V 183.34207 H 143.07565 V 184.68362 H 136.78659 Z"
         id="path159" />
      <path
         d="M 148.5444,173.74612 H 149.99704 V 184.68362 H 148.5444 V 175.79691 L 146.56198,177.77933 145.53659,176.75394 Z"
         id="path161" />
      <path
         d="M 168.69333,173.74612 H 167.68503 Q 166.92453,173.74612 166.48019,174.19046 166.0444,174.62625 166.0444,175.38675 L 166.18112,178.96707 164.93356,179.10379 V 180.17191 L 166.18112,180.30862 166.0444,183.88895 Q 166.01877,184.6409 166.4631,185.08524 166.91599,185.52957 167.68503,185.52957 H 168.69333 V 186.87112 H 167.68503 Q 166.24948,186.87112 165.42062,186.0679 164.59177,185.27322 164.59177,183.88895 L 164.93356,180.30862 H 162.21628 V 178.96707 H 164.93356 L 164.59177,175.38675 Q 164.46359,174.03665 165.33517,173.22488 166.2153,172.40457 167.68503,172.40457 H 168.69333 Z"
         id="path163" />
      <path
         d="M 172.14548,173.74612 V 172.40457 H 173.15378 Q 174.6235,172.40457 175.49509,173.22488 176.37521,174.03665 176.24704,175.38675 L 175.90524,178.96707 H 178.62253 V 180.30862 H 175.90524 L 176.24704,183.88895 Q 176.24704,185.27322 175.41818,186.0679 174.58932,186.87112 173.15378,186.87112 H 172.14548 V 185.52957 H 173.15378 Q 173.92282,185.52957 174.36716,185.08524 174.82004,184.6409 174.7944,183.88895 L 174.65768,180.30862 175.90524,180.17191 V 179.10379 L 174.65768,178.96707 174.7944,175.38675 Q 174.7944,174.62625 174.35007,174.19046 173.91428,173.74612 173.15378,173.74612 Z"
         id="path165" />
      <path
         d="M 194.94333,173.74612 H 192.2944 V 185.52957 H 194.94333 V 186.87112 H 190.84177 V 172.40457 H 194.94333 Z"
         id="path167" />
      <path
         d="M 198.39548,173.74612 V 172.40457 H 202.49704 V 186.87112 H 198.39548 V 185.52957 H 201.0444 V 173.74612 Z"
         id="path169" />
      <path
         d="M 218.92038,175.93362 H 219.63815 Q 220.86862,175.93362 221.34714,176.41214 221.82565,176.89066 221.82565,178.12112 V 183.65823 Q 221.82565,185.39285 220.77463,186.1619 219.7236,186.93948 217.72409,186.93948 217.27121,186.93948 216.86105,186.9053 216.4509,186.87112 216.27145,186.83694 L 216.08347,186.80276 V 185.52957 H 217.72409 Q 219.02292,185.52957 219.69797,185.09378 220.37302,184.66653 220.37302,183.65823 V 182.49612 H 218.5444 Q 216.96359,182.49612 216.04074,181.63309 215.12643,180.76151 215.12643,179.26614 215.12643,177.71951 216.14328,176.83084 217.16013,175.93362 218.92038,175.93362 Z M 218.92038,177.27518 Q 217.83517,177.27518 217.20285,177.81351 216.57907,178.34329 216.57907,179.26614 216.57907,180.14627 217.10031,180.65042 217.6301,181.15457 218.5444,181.15457 H 220.37302 V 178.12112 Q 220.37302,177.72806 220.17648,177.50589 219.97995,177.27518 219.63815,177.27518 Z"
         id="path171" />
      <path
         d="M 227.2944,184.68362 H 225.63669 L 227.99509,180.41971 Q 227.66183,180.44534 227.2944,180.44534 225.71359,180.44534 224.79074,179.53104 223.87643,178.60818 223.87643,177.02737 223.87643,175.44656 224.79074,174.53226 225.71359,173.60941 227.2944,173.60941 228.87521,173.60941 229.78952,174.53226 230.71237,175.44656 230.71237,177.02737 230.71237,178.48856 230.30222,179.24051 Z M 227.2944,179.10379 Q 228.40524,179.10379 228.83249,178.65091 229.25974,178.19803 229.25974,177.02737 229.25974,176.0618 228.72995,175.50638 228.20016,174.95096 227.2944,174.95096 226.38864,174.95096 225.85886,175.50638 225.32907,176.0618 225.32907,177.02737 225.32907,177.99295 225.85886,178.54837 226.38864,179.10379 227.2944,179.10379 Z"
         id="path173" />
      <path
         d="M 236.42038,175.93362 H 237.13815 Q 238.36862,175.93362 238.84714,176.41214 239.32565,176.89066 239.32565,178.12112 V 186.87112 H 237.87302 V 182.49612 H 236.0444 Q 234.46359,182.49612 233.54074,181.63309 232.62643,180.76151 232.62643,179.26614 232.62643,177.71951 233.64328,176.83084 234.66013,175.93362 236.42038,175.93362 Z M 236.42038,177.27518 Q 235.33517,177.27518 234.70285,177.81351 234.07907,178.34329 234.07907,179.26614 234.07907,180.14627 234.60031,180.65042 235.1301,181.15457 236.0444,181.15457 H 237.87302 V 178.12112 Q 237.87302,177.72806 237.67648,177.50589 237.47995,177.27518 237.13815,177.27518 Z"
         id="path175" />
      <path
         d="M 246.10178,173.67776 Q 246.64865,173.67776 247.13571,173.71194 247.63132,173.74612 247.85349,173.7803 L 248.07565,173.81448 V 175.08768 H 246.10178 Q 244.61496,175.08768 243.75192,176.19852 242.89743,177.30081 242.89743,179.21487 242.89743,181.43655 243.7092,182.39359 244.52951,183.34207 246.10178,183.34207 H 248.07565 V 184.61526 Q 247.3237,184.75198 246.10178,184.75198 244.9653,184.75198 244.11935,184.47 243.28195,184.17947 242.64963,183.54715 242.0173,182.91483 241.6926,181.82962 241.37643,180.74442 241.37643,179.21487 241.37643,176.6514 242.64108,175.16458 243.91428,173.67776 246.10178,173.67776 Z"
         id="path177" />
      <path
         d="M 254.63815,173.67776 Q 255.21066,173.67776 255.75754,173.71194 256.30441,173.74612 256.56931,173.7803 L 256.82565,173.81448 V 175.08768 H 254.63815 Q 253.03171,175.08768 252.20285,176.17288 251.37399,177.25809 251.37399,179.21487 251.37399,180.36844 251.55344,181.1973 251.73288,182.01761 252.08322,182.49612 252.44211,182.97464 252.91208,183.19681 253.38205,183.41043 254.01437,183.41043 254.80905,183.41043 255.22775,183.19681 255.64645,182.98318 255.64645,182.49612 V 179.46268 H 253.5444 V 178.12112 H 257.09909 V 182.49612 Q 257.09909,183.7095 256.31296,184.23074 255.52682,184.75198 254.01437,184.75198 253.01462,184.75198 252.27121,184.47 251.5278,184.17947 250.97238,183.54715 250.41696,182.91483 250.13498,181.82962 249.853,180.74442 249.853,179.21487 249.853,176.61722 251.08347,175.14749 252.32248,173.67776 254.63815,173.67776 Z"
         id="path179" />
      <path
         d="M 259.20114,174.74588 Q 260.07272,173.60941 262.2944,173.60941 264.51608,173.60941 265.38766,174.74588 266.25925,175.87381 266.25925,178.72781 266.25925,181.34256 265.53293,182.47903 264.81516,183.61551 263.02072,183.77786 V 186.02518 H 261.56808 V 183.77786 Q 259.77365,183.61551 259.04733,182.47903 258.32956,181.34256 258.32956,178.72781 258.32956,175.87381 259.20114,174.74588 Z M 264.25974,175.77982 Q 263.71286,174.95096 262.2944,174.95096 260.87595,174.95096 260.32053,175.77982 259.77365,176.60013 259.7822,178.72781 259.79074,180.64188 260.21799,181.46219 260.65378,182.2825 261.74753,182.41068 V 178.72781 H 262.84128 V 182.41068 Q 263.93503,182.2825 264.37082,181.46219 264.80661,180.64188 264.80661,178.72781 264.80661,176.60013 264.25974,175.77982 Z"
         id="path181" />
      <path
         d="M 275.96628,181.4451 Q 275.96628,179.69339 276.1799,178.71072 276.39352,177.72806 276.86349,177.29227 277.34201,176.84793 278.1965,176.84793 278.74338,176.84793 279.14499,177.00174 279.5466,177.15555 279.76022,177.40335 279.97385,177.65115 280.11911,177.97586 280.27292,178.29202 280.32419,178.63382 280.384,178.96707 280.45236,179.29178 280.52072,179.60794 280.58908,179.85574 280.66599,180.10355 280.82834,180.25735 280.99924,180.41116 281.25558,180.41116 281.88791,180.41116 282.12717,179.66776 282.37497,178.9158 282.37497,176.98465 H 283.62253 Q 283.62253,178.73636 283.40891,179.71902 283.19528,180.70169 282.71677,181.13748 282.2468,181.57327 281.3923,181.57327 280.84543,181.57327 280.44382,181.41946 280.04221,181.26566 279.82858,181.01785 279.61496,180.77005 279.46115,180.45389 279.31589,180.12918 279.25607,179.79593 279.2048,179.45413 279.13644,179.13797 279.06808,178.81326 278.99118,178.56546 278.92282,178.31766 278.75192,178.16385 278.58957,178.01004 278.33322,178.01004 277.7009,178.01004 277.45309,178.76199 277.21384,179.51395 277.21384,181.4451 Z"
         id="path183" />
      <path
         d="M 285.81003,178.53983 H 291.27878 V 179.88992 H 285.81003 Z"
         id="path185" />
      <path
         d="M 296.56808,175.38675 H 298.02072 V 178.53983 H 301.12253 V 179.88992 H 298.02072 V 183.043 H 296.56808 V 179.88992 H 293.46628 V 178.53983 H 296.56808 Z"
         id="path187" />
      <path
         d="M 302.48972,176.77957 H 309.59909 V 178.12112 H 302.48972 Z M 302.48972,180.30862 H 309.59909 V 181.65018 H 302.48972 Z"
         id="path189" />
      <path
         d="M 312.02585,174.7117 318.34909,178.77908 V 179.65067 L 312.02585,183.71805 311.23972,182.49612 316.34103,179.21487 311.23972,175.93362 Z"
         id="path191" />
    </g>
  </g>
</svg>
