<svg xmlns="http://www.w3.org/2000/svg" width="270.921" height="110.073" viewBox="0 0 253.988 103.193"><g font-weight="400" font-family="agave Nerd Font" letter-spacing="0" word-spacing="0" fill="#fff"><g style="line-height:125%;text-decoration-line:underline" font-size="27.5" text-decoration="underline"><path d="M4.082 3.33q3.626 0 5.035.994 1.41.98 1.41 3.518v9.345H5.962q-2.766 0-4.364-1.181Q0 14.824 0 12.783q0-1.638 1.222-2.578 1.222-.953 3.343-.953h3.68v-1.41q0-1.29-.913-1.786-.9-.51-3.25-.51H1.504V3.545q.98-.215 2.578-.215zm.483 8.043q-1.06 0-1.678.376-.604.376-.604 1.034 0 1.061.98 1.679.994.617 2.699.617h2.283v-3.706h-3.68zM19.712 3.438h1.128q1.933 0 2.685.751.752.752.752 2.686v8.701q0 2.726-1.651 3.934-1.652 1.222-4.794 1.222-.712 0-1.356-.053-.645-.054-.927-.108l-.295-.053v-2.001h2.578q2.041 0 3.102-.685 1.06-.671 1.06-2.256V13.75h-3.679q-2.121 0-3.343-1.168T13.75 9.386q0-2.753 1.598-4.35 1.598-1.598 4.364-1.598zm0 2.108q-1.705 0-2.7 1.034-.98 1.02-.98 2.806 0 1.047.605 1.652.618.604 1.678.604h3.68V6.875q0-.618-.31-.967-.308-.362-.845-.362h-1.128zM31.582 3.33q3.626 0 5.035.994 1.41.98 1.41 3.518v9.345h-4.565q-2.766 0-4.364-1.181-1.598-1.182-1.598-3.223 0-1.638 1.222-2.578 1.222-.953 3.343-.953h3.68v-1.41q0-1.29-.913-1.786-.9-.51-3.25-.51h-2.578V3.545q.98-.215 2.578-.215zm.483 8.043q-1.06 0-1.678.376-.604.376-.604 1.034 0 1.061.98 1.679.994.617 2.699.617h2.283v-3.706h-3.68zM40.605 3.438h2.404l3.035 8.996.577 2.377.577-2.377 3.035-8.996h2.404l-4.646 13.75h-2.74l-4.646-13.75zM61.687 17.295q-3.303 0-5.21-1.867-1.907-1.88-1.907-5.116 0-3.29 1.558-5.183 1.558-1.906 4.243-1.906 2.672 0 4.176 1.222 1.517 1.208 1.517 3.316 0 .994-.053 1.894-.054.9-.108 1.302l-.053.416h-8.89q0 .08.014.215.013.134.094.524.094.376.255.725.175.349.524.779.349.43.832.738.484.31 1.262.524.78.201 1.746.201h2.981v2.001q-1.141.215-2.981.215zm2.095-8.043v-1.49q0-1.129-.913-1.773-.913-.658-2.498-.658-.698 0-1.262.215-.564.214-.913.564-.336.349-.591.765-.255.416-.376.833-.12.416-.188.765-.067.349-.08.564v.215h6.82zM82.285 0h2.74l4.713 10.313 1.49 3.437-.054-3.438V0h2.283v17.187h-2.753l-4.7-10.312-1.49-3.437.054 3.437v10.312h-2.283V0zM102.937 17.295q-3.303 0-5.21-1.867-1.907-1.88-1.907-5.116 0-3.29 1.558-5.183 1.558-1.906 4.243-1.906 2.672 0 4.176 1.222 1.517 1.208 1.517 3.316 0 .994-.053 1.894-.054.9-.108 1.302l-.053.416h-8.89q0 .08.014.215.013.134.094.524.094.376.255.725.175.349.524.779.349.43.832.738.484.31 1.262.524.78.201 1.746.201h2.981v2.001q-1.141.215-2.981.215zm2.095-8.043v-1.49q0-1.129-.913-1.773-.913-.658-2.498-.658-.698 0-1.262.215-.564.214-.913.564-.336.349-.591.765-.255.416-.376.833-.12.416-.188.765-.067.349-.08.564v.215h6.82zM120.957 8.352h-2.283q0-1.625-.738-2.323-.725-.698-2.135-.698-.792 0-1.518.148-.711.147-1.033.295l-.323.148v11.265h-2.282V4.62q.08-.054.228-.148.16-.094.671-.335.51-.242 1.061-.43.564-.188 1.437-.336.873-.147 1.759-.147 2.524 0 3.84 1.181 1.316 1.182 1.316 3.948zM134.277 17.187h-5.962q-2.121 0-3.343-1.396-1.222-1.41-1.222-3.84 0-3.33 1.598-5.25 1.598-1.934 4.364-1.934h2.283V0h2.282v17.187zm-2.282-2.108V6.875h-2.283q-1.705 0-2.7 1.37-.98 1.356-.98 3.706 0 1.45.605 2.296.618.832 1.678.832h3.68zM151.895 0h9.882v2.108h-7.6v4.767h7.17v2.108h-7.17v8.204h-2.282V0zM164.96 13.656q-.39-1.383-.39-3.344 0-1.96.39-3.343.403-1.383 1.168-2.189.779-.819 1.813-1.181 1.034-.376 2.43-.376 1.397 0 2.43.376 1.034.362 1.8 1.181.779.806 1.168 2.189.403 1.383.403 3.343t-.403 3.344q-.39 1.383-1.168 2.202-.766.806-1.8 1.182-1.033.362-2.43.362-1.396 0-2.43-.362-1.034-.376-1.813-1.182-.765-.819-1.168-2.202zm8.03-7.17q-.9-1.155-2.619-1.155-1.719 0-2.618 1.155-.9 1.141-.9 3.826 0 2.686.9 3.84.9 1.142 2.618 1.142 1.719 0 2.618-1.141.9-1.155.9-3.84 0-2.686-.9-3.827zM189.277 17.187h-2.282V8.352q0-1.625-.739-2.323-.725-.698-2.135-.698-.792 0-1.517.148-.712.147-1.034.295l-.322.148v11.265h-2.283V4.62q.08-.054.228-.148.161-.094.671-.335.51-.242 1.061-.43.564-.188 1.437-.336.873-.147 1.76-.147 2.524 0 3.84 1.181 1.315 1.182 1.315 3.948v8.835zM202.598 17.08q-.82.215-2.149.215-2.39 0-3.625-.994-1.236-.993-1.236-3.33V6.875h-3.733V4.767h3.733V0h2.283v4.767h5.586v2.108h-5.586v6.096q0 1.142.658 1.625.658.483 1.92.483h2.149v2.001z"/></g><g style="line-height:125%" font-size="17.5"><path d="M4.613 48.37q2.307 0 3.204.631.898.624.898 2.24v5.946H5.809q-1.76 0-2.777-.751-1.017-.752-1.017-2.051 0-1.043.778-1.64.778-.608 2.128-.608h2.341v-.897q0-.82-.581-1.136-.573-.325-2.068-.325h-1.64v-1.273q.623-.137 1.64-.137zm.308 5.118q-.675 0-1.068.239-.385.24-.385.658 0 .675.624 1.068.632.393 1.717.393h1.453v-2.358H4.921zM12.355 46.25v3.033h2.341q1.35 0 2.128.898.777.888.777 2.435 0 2.12-1.017 3.35-1.016 1.221-2.777 1.221h-2.905V46.25h1.453zm2.341 4.375h-2.341v5.22h1.452q1.086 0 1.71-.862.632-.872.632-2.367 0-.923-.393-1.453-.385-.538-1.06-.538zM24.044 48.37q.521 0 .991.033.479.035.693.069l.213.034v1.273h-1.897q-1.427 0-2.256.82-.82.812-.82 2.214 0 1.632.786 2.332.786.701 2.29.701h1.897v1.273q-.726.137-1.897.137-.837 0-1.512-.137-.675-.145-1.248-.47-.572-.324-.957-.829-.384-.512-.598-1.264-.214-.76-.214-1.743 0-2.043 1.24-3.239 1.247-1.205 3.29-1.205zM34.965 57.187H31.17q-1.35 0-2.128-.888-.778-.897-.778-2.444 0-2.12 1.017-3.341 1.017-1.23 2.777-1.23h1.453V46.25h1.453v10.937zm-1.453-1.341v-5.221h-1.453q-1.085 0-1.717.872-.624.863-.624 2.358 0 .923.385 1.461.393.53 1.068.53h2.341zM41.27 57.256q-2.101 0-3.315-1.188-1.213-1.196-1.213-3.256 0-2.093.991-3.298.991-1.213 2.7-1.213 1.7 0 2.658.777.965.77.965 2.111 0 .632-.034 1.205-.034.572-.068.829l-.034.265h-5.657q0 .05.009.136.009.086.06.334.06.239.162.46.111.223.333.497.222.273.53.47.308.196.803.333.496.128 1.111.128h1.897v1.273q-.726.137-1.897.137zm1.334-5.119v-.948q0-.718-.581-1.128-.581-.419-1.59-.419-.444 0-.803.137-.359.137-.58.359-.215.222-.377.487t-.24.53q-.076.265-.119.487-.042.222-.051.359v.136h4.34zM52.738 46.318v1.274h-1.359q-1.239 0-1.717.52-.479.513-.479 1.838h3.555v1.35h-3.555v5.887h-1.452V51.3h-2.102v-1.35h2.102q0-2.12.794-2.94.804-.828 2.854-.828.376 0 .71.034.341.034.495.068l.154.034zM58.31 48.437h.717q1.23 0 1.71.479.478.479.478 1.709v5.537q0 1.735-1.051 2.504-1.051.777-3.051.777-.453 0-.863-.034t-.59-.068l-.188-.034v-1.274h1.641q1.299 0 1.974-.435.675-.428.675-1.436V55h-2.341q-1.35 0-2.128-.743-.778-.744-.778-2.034 0-1.752 1.017-2.769 1.017-1.017 2.777-1.017zm0 1.342q-1.086 0-1.718.658-.624.65-.624 1.786 0 .666.385 1.05.393.385 1.068.385h2.341v-3.033q0-.393-.197-.615-.196-.231-.538-.231h-.718zM69.965 57.187h-1.453v-4.921q0-.88-.47-1.256-.461-.385-1.359-.385h-1.828v6.562h-1.453V46.25h1.453v3.102q.7-.137 1.828-.137 1.607 0 2.444.71.838.7.838 2.34v4.922zM74.083 45.524h2.35v1.452h-2.35v-1.452zm-1.657 3.76h3.734v6.562h2.555v1.341h-6.563v-1.341h2.555v-5.221h-2.281v-1.342zM84.568 45.524h2.35v1.452h-2.35v-1.452zm-3.119 3.76h5.195v6.878q0 1.769-1.05 2.52-1.043.761-3.051.761-.453 0-.863-.034t-.59-.068l-.188-.034v-1.274h1.64q1.3 0 1.975-.435.675-.428.675-1.436v-5.537h-3.743v-1.342zM95.309 48.437l.906.906-3.41 2.547 3.956 5.297h-1.674l-3.982-5.332v5.332h-1.453V46.25h1.453v5.332l4.204-3.145zM98.676 46.25h3.734v9.596h2.555v1.341h-6.563v-1.341h2.555v-8.254h-2.281V46.25zM108.853 48.37q.35 0 .64.059.3.06.479.154.18.085.299.17.128.086.18.146l.05.06q.026-.026.07-.06.042-.043.187-.145.154-.103.316-.18.171-.077.419-.137.256-.068.521-.068 1.051 0 1.65.598.598.59.598 1.658v6.562h-1.342v-6.562q0-.504-.248-.786-.24-.29-.658-.29-.248 0-.478.102-.222.102-.325.205l-.103.102v7.23h-1.35v-6.563q0-.496-.239-.786-.24-.29-.666-.29-.248 0-.479.102-.222.102-.325.205l-.102.102v7.23h-1.342v-7.999q.035-.034.094-.085.069-.06.29-.197.232-.145.47-.247.249-.111.625-.197.376-.094.769-.094zM122.465 57.187h-1.453v-5.622q0-1.034-.47-1.478-.461-.445-1.359-.445-.504 0-.965.094-.453.094-.658.188l-.205.094v7.17h-1.453v-7.999l.145-.094q.103-.06.428-.213.324-.154.675-.274.359-.12.914-.213.555-.094 1.12-.094 1.606 0 2.443.752.838.752.838 2.512v5.622zM124.49 54.94q-.248-.88-.248-2.128 0-1.247.248-2.127.256-.88.743-1.393.496-.521 1.154-.752.658-.24 1.546-.24.889 0 1.547.24.658.23 1.145.752.496.513.743 1.393.257.88.257 2.127 0 1.248-.257 2.128-.247.88-.743 1.402-.487.512-1.145.751-.658.231-1.547.231-.888 0-1.546-.23-.658-.24-1.154-.752-.487-.522-.743-1.402zm5.11-4.563q-.573-.735-1.667-.735-1.093 0-1.666.735-.572.727-.572 2.435 0 1.71.572 2.444.573.727 1.666.727 1.094 0 1.667-.727.572-.735.572-2.444 0-1.708-.572-2.435zM135.59 48.437h1.606q1.35 0 2.128.761.777.752.777 2.06 0 1.751-1.017 2.75-1.016.992-2.777.992h-1.452v4.375h-1.453v-8.75q0-1.23.479-1.709.478-.479 1.709-.479zm0 1.342q-.342 0-.539.23-.196.223-.196.616v3.033h1.452q1.086 0 1.71-.64.632-.65.632-1.76 0-.684-.393-1.077-.385-.402-1.06-.402h-1.606zM145.81 48.437h.717q1.23 0 1.71.479.478.479.478 1.709v8.75h-1.453V55h-2.341q-1.35 0-2.128-.743-.778-.744-.778-2.034 0-1.752 1.017-2.769 1.017-1.017 2.777-1.017zm0 1.342q-1.086 0-1.718.658-.624.65-.624 1.786 0 .666.385 1.05.393.385 1.068.385h2.341v-3.033q0-.393-.197-.615-.196-.231-.538-.231h-.718zM157.738 51.565h-1.453q0-1.034-.47-1.478-.461-.445-1.358-.445-.504 0-.966.094-.453.094-.658.188l-.205.094v7.17h-1.452v-7.999q.05-.034.145-.094.102-.06.427-.213.325-.154.675-.274.359-.12.914-.213.556-.094 1.12-.094 1.606 0 2.444.752.837.752.837 2.512zM163.976 48.37q.461 0 .88.033.427.035.624.069l.188.034v1.273h-1.692q-1.342 0-2.042.274-.693.264-.693.888 0 .376.265.641.265.256.692.41.428.146.94.274.522.128 1.034.299.522.162.949.41.427.24.692.675.265.436.265 1.042 0 1.385-1.111 1.974-1.11.59-3.247.59-.496 0-.949-.034-.444-.034-.64-.069l-.205-.034v-1.273h1.794q1.427 0 2.162-.265.743-.265.743-.889 0-.333-.213-.58-.205-.248-.547-.385-.333-.137-.77-.265-.435-.137-.888-.24-.453-.102-.889-.281-.435-.188-.777-.419-.333-.24-.547-.64-.205-.411-.205-.94 0-1.385 1.068-1.975 1.068-.598 3.119-.598zM174.691 57.12q-.521.136-1.367.136-1.521 0-2.307-.632-.786-.633-.786-2.12v-3.879h-2.376v-1.342h2.376V46.25h1.452v3.033h3.555v1.342h-3.555v3.88q0 .726.42 1.033.418.308 1.221.308h1.367v1.273zM177.152 48.437h1.453v5.623q0 1.034.461 1.478.47.445 1.367.445.504 0 .957-.094.462-.094.667-.188l.205-.094v-7.17h1.453v7.999q-.052.034-.154.094-.094.06-.419.213-.325.154-.683.274-.35.12-.906.213-.556.094-1.12.094-1.606 0-2.443-.752-.838-.752-.838-2.512v-5.623zM185.355 48.437h1.53l1.93 5.726.368 1.512.368-1.512 1.93-5.726h1.53l-2.956 8.75h-1.743l-2.957-8.75zM193.832 48.437h1.35l.683 5.726.137 1.512.36-1.512 1.136-3.538h.871l1.137 3.538.359 1.512.136-1.512.684-5.726h1.35l-1.043 8.75h-1.743l-1.316-4.58-1.316 4.58h-1.743l-1.042-8.75zM202.855 48.437h1.752l2.076 3.282 2.077-3.282h1.751l-2.948 4.375 2.948 4.375h-1.751l-2.077-3.28-2.076 3.28h-1.752l2.948-4.375-2.948-4.375zM212.152 48.437h1.453v3.914q0 .607.487.957.495.35 1.341.35h1.829v-5.22h1.453v7.724q0 1.769-1.051 2.52-1.043.761-3.051.761-.453 0-.863-.034t-.59-.068l-.188-.034v-1.274h1.641q1.299 0 1.974-.435.675-.428.675-1.436v-1.23q-.7.136-1.829.136-1.52 0-2.4-.726-.88-.726-.88-1.991v-3.914zM221.176 48.437h6.015v1.342l-4.606 6.067h4.88v1.341h-6.563v-1.341l4.606-6.067h-4.332v-1.342zM4.562 68.125h1.743l3.23 10.937H8.022l-.64-2.187H3.485l-.64 2.187H1.331l3.23-10.937zm.871 1.512l-.256 1.513-1.29 4.383H6.98L5.69 71.15l-.257-1.513zM10.902 68.125h2.188q1.922 0 2.94.675 1.024.675 1.024 2.179 0 .453-.153.829-.146.376-.36.59-.213.213-.426.367-.214.145-.36.196l-.153.052q.094.025.248.077.153.05.538.265.393.213.692.495.308.282.547.795.248.512.248 1.136 0 .906-.325 1.547-.325.64-.966 1.017-.64.376-1.495.547-.854.17-2 .17h-2.187V68.126zm1.453 1.342V72.5h.735q1.162 0 1.837-.41t.675-1.111q0-.7-.675-1.102-.675-.41-1.837-.41h-.735zm0 4.375v3.879h.735q.828 0 1.401-.077.572-.085 1.025-.29.462-.214.684-.599.222-.393.222-.974 0-.58-.222-.965-.222-.393-.684-.598-.453-.214-1.025-.291-.573-.085-1.401-.085h-.735zM24.24 68.057q.548 0 1.035.034.495.034.717.068l.223.034v1.274H24.24q-1.487 0-2.35 1.11-.855 1.103-.855 3.017 0 2.221.812 3.179.82.948 2.393.948h1.974v1.273q-.752.137-1.974.137-1.137 0-1.983-.282-.837-.29-1.47-.923-.632-.632-.956-1.717-.317-1.086-.317-2.615 0-2.564 1.265-4.05 1.273-1.487 3.46-1.487zM28.402 68.125h2.188q1.145 0 2 .282.854.282 1.494.914.641.624.966 1.692.325 1.068.325 2.58 0 1.513-.325 2.581t-.966 1.7q-.64.625-1.495.907-.854.281-2 .281h-2.187V68.125zm1.453 1.342v8.254h.735q.786 0 1.367-.214.58-.213 1.017-.683.435-.479.658-1.282.222-.812.222-1.948 0-1.137-.222-1.94-.223-.812-.658-1.282-.436-.478-1.017-.692-.581-.213-1.367-.213h-.735zM37.426 68.125h6.289v1.342h-4.837V72.5h4.29v1.342h-4.29v3.879h4.837v1.341h-6.29V68.125zM46.176 68.125h6.289v1.342h-4.837V72.5h4.563v1.342h-4.563v5.22h-1.452V68.125zM59.027 68.057q.573 0 1.12.034.546.034.811.068l.257.034v1.274h-2.188q-1.606 0-2.435 1.085-.83 1.085-.83 3.042 0 1.153.18 1.982.18.82.53 1.3.36.478.829.7.47.213 1.102.213.795 0 1.214-.213.418-.214.418-.7v-3.034h-2.102V72.5h3.555v4.375q0 1.213-.786 1.735-.786.52-2.299.52-1 0-1.743-.281-.743-.29-1.299-.923-.555-.632-.837-1.717-.282-1.086-.282-2.615 0-2.598 1.23-4.068 1.24-1.47 3.555-1.47zM63.129 68.125h1.452V72.5h4.204v-4.375h1.453v10.937h-1.453v-5.22h-4.204v5.22H63.13V68.125zM72.426 68.125h6.015v1.342H76.16v8.254h2.281v1.341h-6.015v-1.341h2.281v-8.254h-2.281v-1.342zM81.449 68.125h5.469v6.443q0 1.265-.29 2.162-.291.888-.864 1.41-.572.52-1.333.76-.76.23-1.786.23-.478 0-.914-.033-.436-.035-.632-.069l-.197-.034v-1.273h1.743q1.385 0 2.102-.726.718-.727.718-2.427v-5.102H81.45v-1.341zM94.813 68.125h1.675l-3.854 5.118 4.127 5.82h-1.777l-3.88-5.47v5.47h-1.452V68.124h1.453v4.922l3.708-4.922zM98.676 68.125h1.452v9.596h4.837v1.341h-6.29V68.125zM106.605 68.125h1.342l2.486 4.717 2.487-4.717h1.341v10.937h-1.341V72.5l.12-2.188-1.017 2.188-1.154 2.187h-.871l-1.154-2.187-1.017-2.188.12 2.188v6.562h-1.342V68.125zM115.629 68.125h1.743l3 6.562.948 2.188-.035-2.188v-6.562h1.453v10.937h-1.752l-2.99-6.562-.949-2.188.034 2.188v6.562h-1.452V68.125zM124.49 76.243q-.248-1.103-.248-2.65 0-1.546.248-2.64.256-1.102.743-1.743.496-.64 1.154-.931.658-.29 1.546-.29.889 0 1.547.29.658.29 1.145.931.496.641.743 1.743.257 1.094.257 2.64 0 1.547-.257 2.65-.247 1.093-.743 1.734-.487.641-1.145.932-.658.29-1.547.29-.888 0-1.546-.29t-1.154-.932q-.487-.64-.743-1.734zm4.35-6.691q-.385-.222-.907-.222-.52 0-.914.222-.384.222-.675.71-.282.486-.436 1.324-.145.829-.145 2.008t.145 2.016q.154.83.436 1.316.29.487.675.71.393.222.914.222.522 0 .906-.223.393-.222.675-.709.29-.487.436-1.316.154-.837.154-2.016 0-1.18-.154-2.008-.145-.838-.436-1.325-.282-.487-.675-.709zM133.676 68.125h3.793q1.342 0 2.12.88.786.88.786 2.401t-1.017 2.401q-1.017.88-2.777.88h-1.453v4.375h-1.452V68.125zm1.452 1.342v3.879h1.453q1.085 0 1.709-.521.632-.522.632-1.419t-.393-1.418q-.384-.521-1.06-.521h-2.34zM142.34 69.125q.872-1.137 3.093-1.137 2.222 0 3.094 1.137.871 1.128.871 3.982 0 2.614-.726 3.75-.718 1.137-2.512 1.3v2.247h-1.453v-2.247q-1.794-.163-2.52-1.3-.718-1.136-.718-3.75 0-2.854.871-3.982zm5.059 1.034q-.547-.83-1.966-.83-1.418 0-1.974.83-.546.82-.538 2.948.01 1.914.436 2.734.436.82 1.53.949v-3.683h1.093v3.683q1.094-.129 1.53-.949.436-.82.436-2.734 0-2.128-.547-2.948zM150.902 68.125h3.794q1.427 0 2.162.658.743.658.743 2.196 0 2.102-1.93 2.649l2.34 5.434h-1.58l-2.248-5.22h-1.828v5.22h-1.453V68.125zm1.453 1.342V72.5h1.452q1.145 0 1.744-.35.598-.35.598-1.171 0-.812-.376-1.162-.368-.35-1.077-.35h-2.341zM164.13 68.057q.572 0 1.093.034.522.034.752.068l.24.034v1.274h-2.085q-1.521 0-2.307.367-.787.359-.787 1.205 0 .41.188.726.197.316.513.53.325.214.743.393.428.171.89.333.46.163.922.334.461.17.88.418.427.24.744.556.324.307.512.777.197.462.197 1.043 0 1.136-.487 1.777-.479.641-1.564.923-1.077.282-3.008.282-.598 0-1.145-.034t-.795-.069l-.247-.034v-1.273h2.187q1.991 0 2.76-.342.778-.342.778-1.23 0-.41-.197-.727-.188-.316-.512-.53-.317-.213-.744-.384-.419-.18-.88-.342-.461-.162-.923-.333-.461-.17-.889-.41-.418-.248-.743-.556-.316-.316-.513-.777-.188-.47-.188-1.051 0-1.607 1.171-2.29 1.18-.692 3.444-.692zM167.855 68.125h7.656v1.342h-3.101v9.595h-1.453v-9.595h-3.102v-1.342zM176.879 68.125h1.452v6.016q0 2.093.453 2.905.462.812 1.65.812 1.187 0 1.64-.812.461-.812.461-2.905v-6.016h1.453v6.016q0 1.452-.18 2.4-.179.94-.606 1.547-.419.607-1.085.863-.667.248-1.684.248-1.016 0-1.683-.248-.666-.256-1.094-.863-.418-.606-.598-1.546-.18-.949-.18-2.401v-6.016zM185.082 68.125h1.512l2.333 7.913.256 1.512.257-1.512 2.332-7.913h1.513l-3.23 10.937h-1.743l-3.23-10.937zM193.832 68.125h1.341l.667 8.844 1.658-4.469h.871l1.658 4.469.666-8.844h1.342l-.82 10.937h-1.744l-1.538-4.152-1.538 4.152h-1.743l-.82-10.937zM202.582 68.125h1.692l2.41 4.187 2.409-4.187h1.692l-3.256 5.469 3.256 5.468h-1.692l-2.41-4.187-2.41 4.187h-1.691l3.255-5.468-3.255-5.469zM211.332 68.125h1.632l2.47 4.956 2.469-4.956h1.632l-3.375 6.562v4.375h-1.453v-4.375l-3.375-6.562zM227.465 68.125v1.342l-5.238 8.254h5.511v1.341h-7.11v-1.341l5.239-8.254h-4.965v-1.342h6.563zM1.99 98.69q-.248-.88-.248-2.128 0-1.247.248-2.127.256-.88.743-1.393.496-.521 1.154-.752.658-.24 1.546-.24.889 0 1.547.24.658.23 1.145.752.496.513.743 1.393.257.88.257 2.127 0 1.248-.257 2.128-.247.88-.743 1.402-.487.512-1.145.751-.658.231-1.547.231-.888 0-1.546-.23-.658-.24-1.154-.752-.487-.522-.743-1.402zm5.11-4.563q-.573-.735-1.667-.735-1.093 0-1.666.735-.572.727-.572 2.435 0 1.71.572 2.444.573.727 1.666.727 1.094 0 1.667-.727.572-.735.572-2.444 0-1.708-.572-2.435zM10.74 98.118q-.248-1.103-.248-2.65 0-1.546.248-2.64.256-1.102.743-1.743.496-.64 1.154-.931.658-.29 1.546-.29.889 0 1.547.29.658.29 1.145.931.496.641.743 1.743.257 1.094.257 2.64 0 1.547-.257 2.65-.247 1.093-.743 1.734-.487.641-1.145.932-.658.29-1.547.29-.888 0-1.546-.29t-1.154-.932q-.487-.64-.743-1.734zm4.35-6.691q-.385-.222-.907-.222-.52 0-.914.222-.384.222-.675.71-.282.486-.436 1.324-.145.829-.145 2.008t.145 2.016q.154.83.436 1.316.29.487.675.71.393.222.914.222.522 0 .906-.223.393-.222.675-.709.29-.487.436-1.316.154-.837.154-2.016 0-1.18-.154-2.008-.145-.838-.436-1.325-.282-.487-.675-.709zM20.233 91.367q.991-1.504 2.7-1.504 1.71 0 2.7 1.504.992 1.504.992 4.102 0 2.597-.991 4.101-.992 1.504-2.7 1.504-1.71 0-2.7-1.504-.992-1.504-.992-4.101 0-2.598.991-4.102zm4.29.983q-.581-1.145-1.59-1.145-1.008 0-1.589 1.145t-.581 3.119q0 1.974.581 3.119.581 1.145 1.59 1.145 1.008 0 1.589-1.145.58-1.145.58-3.12 0-1.973-.58-3.118zm-2.316 2.025h1.453v2.187h-1.453v-2.187zM28.265 92.649q0-1.29.915-2.034.923-.752 2.503-.752 1.581 0 2.495.752.923.744.923 2.034 0 .402-.213.786-.205.385-.504.65-.3.256-.599.47-.299.205-.512.299l-.205.102q.094.043.247.128.154.086.547.376.402.282.71.598.307.308.555.795.248.487.248.983 0 1.504-.991 2.375-.992.863-2.7.863-1.71 0-2.7-.863-.992-.871-.992-2.375 0-.496.24-.974.238-.487.572-.812.342-.333.675-.59.342-.256.58-.384l.24-.12q-.085-.034-.222-.102-.137-.069-.487-.3-.35-.23-.624-.478-.265-.248-.487-.632-.214-.393-.214-.795zm1.453 0q0 .299.197.59.205.281.495.478.29.197.581.359.29.154.487.23l.205.069.111-.043q.069-.025.274-.11.205-.095.393-.189.188-.102.41-.256.23-.154.393-.316.163-.163.274-.376.11-.214.11-.436 0-.667-.53-1.051-.529-.393-1.435-.393-.905 0-1.435.393-.53.384-.53 1.051zm1.965 2.888l-.128.051q-.077.035-.316.154-.23.12-.444.257-.205.128-.47.341-.257.205-.445.42-.18.213-.307.503-.128.282-.128.573 0 .811.598 1.29.606.47 1.64.47 1.034 0 1.632-.47.607-.479.607-1.29 0-.393-.23-.778-.231-.384-.565-.65-.324-.264-.658-.47-.324-.204-.555-.298l-.23-.103zM47.833 89.274h2.35v1.452h-2.35v-1.452zm-1.657 3.76h3.734v6.562h2.555v1.341h-6.563v-1.341h2.555v-5.221h-2.281v-1.342zM54.926 90h6.015v1.342H58.66v8.254h2.281v1.341h-6.015v-1.341h2.281v-8.254h-2.281V90zM63.676 90h3.734v9.596h2.555v1.341h-6.563v-1.341h2.555v-8.254h-2.281V90zM72.426 90h1.452v9.596h4.837v1.341h-6.29V90zM84.183 90h1.453v10.937h-1.453v-8.886l-1.982 1.982-1.025-1.025L84.183 90zM104.332 90h-1.008q-.76 0-1.205.444-.436.436-.436 1.197l.137 3.58-1.247.137v1.068l1.247.136-.137 3.58q-.025.753.419 1.197.453.444 1.222.444h1.008v1.342h-1.008q-1.436 0-2.264-.803-.83-.795-.83-2.18l.343-3.58h-2.718v-1.341h2.718l-.342-3.58q-.128-1.35.743-2.162.88-.82 2.35-.82h1.008V90zM107.784 101.783h1.009q.76 0 1.196-.444.444-.436.444-1.196l-.136-3.58 1.247-.137v-1.068l-1.247-.137.136-3.58q.026-.752-.427-1.197-.444-.444-1.213-.444h-1.009v-1.342h1.009q1.435 0 2.264.804.829.794.829 2.179l-.342 3.58h2.717v1.341h-2.717l.342 3.58q.128 1.35-.752 2.163-.872.82-2.341.82h-1.009v-1.342zM130.582 90h-2.649v11.783h2.65v1.342h-4.102V88.658h4.101V90zM134.034 101.783h2.65V90h-2.65v-1.342h4.102v14.467h-4.102v-1.342zM154.56 92.187h.717q1.23 0 1.71.479.478.479.478 1.709v5.537q0 1.735-1.051 2.504-1.051.777-3.051.777-.453 0-.863-.034t-.59-.068l-.188-.034v-1.274h1.641q1.299 0 1.974-.435.675-.428.675-1.436V98.75h-2.341q-1.35 0-2.128-.743-.778-.744-.778-2.034 0-1.752 1.017-2.769 1.017-1.017 2.777-1.017zm0 1.342q-1.086 0-1.718.658-.624.65-.624 1.786 0 .666.385 1.05.393.385 1.068.385h2.341v-3.033q0-.393-.197-.615-.196-.231-.538-.231h-.718zM162.933 100.937h-1.717l2.777-4.375q-.402.137-1.06.137-1.58 0-2.503-.914-.915-.923-.915-2.504 0-1.58.915-2.495.923-.923 2.503-.923 1.581 0 2.495.923.923.914.923 2.495 0 1.06-.307 2.154-.3 1.085-.82 1.905l-2.29 3.597zm0-5.58q1.111 0 1.538-.452.428-.453.428-1.624 0-.965-.53-1.52-.53-.556-1.436-.556-.905 0-1.435.555-.53.556-.53 1.521 0 .966.53 1.521.53.556 1.435.556zM172.06 92.187h.717q1.23 0 1.71.479.478.479.478 1.709v8.75h-1.453V98.75h-2.341q-1.35 0-2.128-.743-.778-.744-.778-2.034 0-1.752 1.017-2.769 1.017-1.017 2.777-1.017zm0 1.342q-1.086 0-1.718.658-.624.65-.624 1.786 0 .666.385 1.05.393.385 1.068.385h2.341v-3.033q0-.393-.197-.615-.196-.231-.538-.231h-.718zM181.74 89.932q.548 0 1.035.034.495.034.717.068l.223.034v1.274h-1.974q-1.487 0-2.35 1.11-.855 1.103-.855 3.017 0 2.221.812 3.179.82.948 2.393.948h1.974v1.273q-.752.137-1.974.137-1.137 0-1.983-.282-.837-.29-1.47-.923-.632-.632-.956-1.717-.317-1.086-.317-2.615 0-2.564 1.265-4.05 1.273-1.487 3.46-1.487zM190.277 89.932q.573 0 1.12.034.546.034.811.068l.257.034v1.274h-2.188q-1.606 0-2.435 1.085-.83 1.085-.83 3.042 0 1.153.18 1.982.18.82.53 1.3.36.478.829.7.47.213 1.102.213.795 0 1.214-.213.418-.214.418-.7v-3.034h-2.102v-1.342h3.555v4.375q0 1.213-.786 1.735-.786.52-2.299.52-1 0-1.743-.281-.743-.29-1.299-.923-.555-.632-.837-1.717-.282-1.086-.282-2.615 0-2.598 1.23-4.068 1.24-1.47 3.555-1.47zM194.84 91q.872-1.137 3.093-1.137 2.222 0 3.094 1.137.871 1.128.871 3.982 0 2.614-.726 3.75-.718 1.137-2.512 1.3v2.247h-1.453v-2.247q-1.794-.163-2.52-1.3-.718-1.136-.718-3.75 0-2.854.871-3.982zm5.059 1.034q-.547-.83-1.966-.83-1.418 0-1.974.83-.546.82-.538 2.948.01 1.914.436 2.734.436.82 1.53.949v-3.683h1.093v3.683q1.094-.129 1.53-.949.436-.82.436-2.734 0-2.128-.547-2.948zM211.605 97.699q0-1.752.214-2.734.213-.983.683-1.419.479-.444 1.333-.444.547 0 .949.154.402.153.615.401.214.248.36.573.153.316.204.658.06.333.128.658.069.316.137.564.077.247.24.401.17.154.427.154.632 0 .871-.743.248-.752.248-2.683h1.247q0 1.751-.213 2.734-.214.983-.692 1.418-.47.436-1.325.436-.547 0-.948-.154-.402-.153-.615-.401-.214-.248-.368-.564-.145-.325-.205-.658-.051-.342-.12-.658-.068-.325-.145-.573-.068-.247-.24-.401-.161-.154-.418-.154-.632 0-.88.752-.24.752-.24 2.683h-1.247zM221.449 94.794h5.469v1.35h-5.469v-1.35zM232.207 91.64h1.453v3.154h3.101v1.35h-3.101v3.153h-1.453v-3.153h-3.102v-1.35h3.102V91.64zM238.129 93.033h7.109v1.342h-7.11v-1.342zm0 3.53h7.109v1.341h-7.11v-1.342zM247.665 99.972l-.786-1.222 5.101-3.281-5.101-3.282.786-1.221 6.323 4.067v.872l-6.323 4.067z"/></g></g></svg>