<?xml version="1.0" encoding="UTF-8" standalone="no"?>
<!-- Created with Inkscape (http://www.inkscape.org/) -->

<svg
   xmlns:dc="http://purl.org/dc/elements/1.1/"
   xmlns:cc="http://creativecommons.org/ns#"
   xmlns:rdf="http://www.w3.org/1999/02/22-rdf-syntax-ns#"
   xmlns:svg="http://www.w3.org/2000/svg"
   xmlns="http://www.w3.org/2000/svg"
   xmlns:sodipodi="http://sodipodi.sourceforge.net/DTD/sodipodi-0.dtd"
   xmlns:inkscape="http://www.inkscape.org/namespaces/inkscape"
   width="71.984238mm"
   height="29.123455mm"
   viewBox="0 0 255.06226 103.19334"
   id="svg2"
   version="1.1"
   inkscape:version="0.91 r13725"
   sodipodi:docname="Agave Nerd Font.svg">
  <defs
     id="defs4" />
  <sodipodi:namedview
     id="base"
     pagecolor="#ffffff"
     bordercolor="#666666"
     borderopacity="1.0"
     inkscape:pageopacity="0.0"
     inkscape:pageshadow="2"
     inkscape:zoom="0.7"
     inkscape:cx="-53.286835"
     inkscape:cy="-402.56558"
     inkscape:document-units="px"
     inkscape:current-layer="layer1"
     showgrid="false"
     inkscape:window-width="1861"
     inkscape:window-height="1056"
     inkscape:window-x="59"
     inkscape:window-y="24"
     inkscape:window-maximized="1" />
  <metadata
     id="metadata7">
    <rdf:RDF>
      <cc:Work
         rdf:about="">
        <dc:format>image/svg+xml</dc:format>
        <dc:type
           rdf:resource="http://purl.org/dc/dcmitype/StillImage" />
        <dc:title />
      </cc:Work>
    </rdf:RDF>
  </metadata>
  <g
     inkscape:label="Layer 1"
     inkscape:groupmode="layer"
     id="layer1"
     transform="translate(-63.286831,-83.746132)">
    <g
       style="font-style:normal;font-weight:normal;font-size:27.5px;line-height:125%;font-family:'Agave Nerd Font';text-decoration: underline;text-decoration-line: underline;letter-spacing:0px;word-spacing:0px;fill:#ffffff;fill-opacity:1;stroke:none;stroke-width:1px;stroke-linecap:butt;stroke-linejoin:miter;stroke-opacity:1"
       id="text4136">
      <path
         d="m 68.362514,83.746132 2.739258,0 5.075684,17.187498 -2.376709,0 -1.00708,-3.437498 -6.123047,0 -1.00708,3.437498 -2.376709,0 5.075683,-17.187498 z m 1.369629,2.376709 -0.402832,2.376709 -2.027588,6.888428 4.86084,0 -2.027588,-6.888428 -0.402832,-2.376709 z"
         id="path4140"
         inkscape:connector-curvature="0" />
      <path
         d="m 84.072964,87.183632 1.127929,0 q 1.933594,0 2.685547,0.751953 0.751953,0.751953 0.751953,2.685547 l 0,8.701172 q 0,2.725826 -1.651611,3.934326 -1.651611,1.22192 -4.793701,1.22192 -0.71167,0 -1.356201,-0.0537 -0.644532,-0.0537 -0.926514,-0.10742 l -0.29541,-0.0537 0,-2.00073 2.578125,0 q 2.041016,0 3.101807,-0.68482 1.060791,-0.67138 1.060791,-2.255856 l 0,-1.826172 -3.6792,0 q -2.121582,0 -3.343506,-1.168213 -1.221923,-1.168213 -1.221923,-3.195801 0,-2.752685 1.5979,-4.350586 1.5979,-1.5979 4.364014,-1.5979 z m 0,2.108154 q -1.705323,0 -2.698975,1.033936 -0.980225,1.020508 -0.980225,2.806396 0,1.047364 0.604249,1.651612 0.617675,0.604248 1.678466,0.604248 l 3.6792,0 0,-4.766846 q 0,-0.617676 -0.308838,-0.966797 -0.308838,-0.362549 -0.845948,-0.362549 l -1.127929,0 z"
         id="path4142"
         inkscape:connector-curvature="0" />
      <path
         d="m 95.943081,87.07621 q 3.625488,0 5.035399,0.993652 1.40991,0.980225 1.40991,3.518067 l 0,9.345701 -4.565426,0 q -2.766114,0 -4.364014,-1.181639 -1.5979,-1.18164 -1.5979,-3.222656 0,-1.638184 1.221923,-2.578125 1.221924,-0.953369 3.343506,-0.953369 l 3.679201,0 0,-1.409912 q 0,-1.289063 -0.913087,-1.785889 -0.899659,-0.510254 -3.249512,-0.510254 l -2.578125,0 0,-2.000732 q 0.980225,-0.214844 2.578125,-0.214844 z m 0.483398,8.043213 q -1.060791,0 -1.678466,0.375976 -0.604249,0.375977 -0.604249,1.033936 0,1.060791 0.980225,1.678467 0.993652,0.617676 2.698975,0.617676 l 2.282716,0 0,-3.706055 -3.679201,0 z"
         id="path4144"
         inkscape:connector-curvature="0" />
      <path
         d="m 104.96652,87.183632 2.40356,0 3.03467,8.996582 0.57739,2.376709 0.5774,-2.376709 3.03466,-8.996582 2.40357,0 -4.646,13.749998 -2.73926,0 -4.64599,-13.749998 z"
         id="path4146"
         inkscape:connector-curvature="0" />
      <path
         d="m 126.04806,101.04105 q -3.30322,0 -5.20996,-1.866451 -1.90674,-1.879883 -1.90674,-5.115967 0,-3.289795 1.55762,-5.183106 1.55762,-1.906738 4.24316,-1.906738 2.67212,0 4.17603,1.221924 1.51733,1.208496 1.51733,3.31665 0,0.993653 -0.0537,1.893311 -0.0537,0.899658 -0.10742,1.30249 l -0.0537,0.41626 -8.88916,0 q 0,0.08057 0.0134,0.214844 0.0134,0.134277 0.094,0.523681 0.094,0.375977 0.25513,0.725098 0.17456,0.349121 0.52368,0.778809 0.34912,0.429687 0.83252,0.738525 0.4834,0.308838 1.26221,0.523682 0.7788,0.201416 1.7456,0.201416 l 2.98096,0 0,2.000732 q -1.14136,0.21484 -2.98096,0.21484 z m 2.09473,-8.043209 0,-1.490479 q 0,-1.127929 -0.91309,-1.772461 -0.91308,-0.657959 -2.49756,-0.657959 -0.69824,0 -1.2622,0.214844 -0.56397,0.214844 -0.91309,0.563965 -0.33569,0.349121 -0.59082,0.765381 -0.25513,0.41626 -0.37598,0.832519 -0.12085,0.41626 -0.18798,0.765381 -0.0671,0.349121 -0.0806,0.563965 l 0,0.214844 6.82129,0 z"
         id="path4148"
         inkscape:connector-curvature="0" />
      <path
         d="m 146.64621,83.746132 2.73925,0 4.71314,10.3125 1.49048,3.4375 -0.0537,-3.4375 0,-10.3125 2.28271,0 0,17.187498 -2.75268,0 -4.69971,-10.312498 -1.49048,-3.4375 0.0537,3.4375 0,10.312498 -2.28271,0 0,-17.187498 z"
         id="path4150"
         inkscape:connector-curvature="0" />
      <path
         d="m 167.29806,101.04105 q -3.30322,0 -5.20996,-1.866451 -1.90674,-1.879883 -1.90674,-5.115967 0,-3.289795 1.55762,-5.183106 1.55762,-1.906738 4.24316,-1.906738 2.67212,0 4.17603,1.221924 1.51733,1.208496 1.51733,3.31665 0,0.993653 -0.0537,1.893311 -0.0537,0.899658 -0.10742,1.30249 l -0.0537,0.41626 -8.88916,0 q 0,0.08057 0.0134,0.214844 0.0134,0.134277 0.094,0.523681 0.094,0.375977 0.25513,0.725098 0.17456,0.349121 0.52368,0.778809 0.34912,0.429687 0.83252,0.738525 0.4834,0.308838 1.26221,0.523682 0.7788,0.201416 1.7456,0.201416 l 2.98096,0 0,2.000732 q -1.14136,0.21484 -2.98096,0.21484 z m 2.09473,-8.043209 0,-1.490479 q 0,-1.127929 -0.91309,-1.772461 -0.91308,-0.657959 -2.49756,-0.657959 -0.69824,0 -1.2622,0.214844 -0.56397,0.214844 -0.91309,0.563965 -0.33569,0.349121 -0.59082,0.765381 -0.25513,0.41626 -0.37598,0.832519 -0.12085,0.41626 -0.18798,0.765381 -0.0671,0.349121 -0.0806,0.563965 l 0,0.214844 6.82129,0 z"
         id="path4152"
         inkscape:connector-curvature="0" />
      <path
         d="m 185.31808,92.098183 -2.28271,0 q 0,-1.624756 -0.73853,-2.322998 -0.7251,-0.698243 -2.13501,-0.698243 -0.79224,0 -1.51733,0.147706 -0.71167,0.147705 -1.03394,0.29541 l -0.32226,0.147705 0,11.265867 -2.28272,0 0,-12.568357 q 0.0806,-0.05371 0.22827,-0.147706 0.16114,-0.09399 0.67139,-0.335693 0.51025,-0.241699 1.06079,-0.429687 0.56396,-0.187989 1.43677,-0.335694 0.8728,-0.147705 1.75903,-0.147705 2.52441,0 3.84033,1.181641 1.31592,1.18164 1.31592,3.947754 z"
         id="path4154"
         inkscape:connector-curvature="0" />
      <path
         d="m 198.63839,100.93363 -5.96191,0 q -2.12158,0 -3.34351,-1.396482 -1.22192,-1.409913 -1.22192,-3.840333 0,-3.330078 1.5979,-5.250244 1.5979,-1.933593 4.36401,-1.933593 l 2.28272,0 0,-4.766846 2.28271,0 0,17.187498 z m -2.28271,-2.108152 0,-8.204346 -2.28272,0 q -1.70532,0 -2.69897,1.369629 -0.98023,1.356201 -0.98023,3.706054 0,1.450196 0.60425,2.296143 0.61768,0.83252 1.67847,0.83252 l 3.6792,0 z"
         id="path4156"
         inkscape:connector-curvature="0" />
      <path
         d="m 216.25558,83.746132 9.88281,0 0,2.108154 -7.60009,0 0,4.766846 7.17041,0 0,2.108154 -7.17041,0 0,8.204344 -2.28272,0 0,-17.187498 z"
         id="path4158"
         inkscape:connector-curvature="0" />
      <path
         d="m 229.32077,97.402138 q -0.38941,-1.383057 -0.38941,-3.343506 0,-1.960449 0.38941,-3.343506 0.40283,-1.383057 1.16821,-2.188721 0.77881,-0.819091 1.81274,-1.18164 1.03394,-0.375977 2.43042,-0.375977 1.39649,0 2.43042,0.375977 1.03394,0.362549 1.79932,1.18164 0.77881,0.805664 1.16821,2.188721 0.40283,1.383057 0.40283,3.343506 0,1.960449 -0.40283,3.343506 -0.3894,1.383056 -1.16821,2.202148 -0.76538,0.805664 -1.79932,1.181644 -1.03393,0.36255 -2.43042,0.36255 -1.39648,0 -2.43042,-0.36255 -1.03393,-0.37598 -1.81274,-1.181644 -0.76538,-0.819092 -1.16821,-2.202148 z m 8.02978,-7.17041 q -0.89966,-1.154786 -2.61841,-1.154786 -1.71875,0 -2.6184,1.154786 -0.89966,1.141357 -0.89966,3.826904 0,2.685547 0.89966,3.840332 0.89965,1.141357 2.6184,1.141357 1.71875,0 2.61841,-1.141357 0.89966,-1.154785 0.89966,-3.840332 0,-2.685547 -0.89966,-3.826904 z"
         id="path4160"
         inkscape:connector-curvature="0" />
      <path
         d="m 253.63839,100.93363 -2.28271,0 0,-8.835447 q 0,-1.624756 -0.73853,-2.322998 -0.72509,-0.698243 -2.13501,-0.698243 -0.79223,0 -1.51733,0.147706 -0.71167,0.147705 -1.03394,0.29541 l -0.32226,0.147705 0,11.265867 -2.28272,0 0,-12.568357 q 0.0806,-0.05371 0.22827,-0.147706 0.16114,-0.09399 0.67139,-0.335693 0.51026,-0.241699 1.06079,-0.429687 0.56397,-0.187989 1.43677,-0.335694 0.8728,-0.147705 1.75903,-0.147705 2.52442,0 3.84034,1.181641 1.31591,1.18164 1.31591,3.947754 l 0,8.835447 z"
         id="path4162"
         inkscape:connector-curvature="0" />
      <path
         d="m 266.95871,100.82621 q -0.8191,0.21484 -2.14844,0.21484 -2.39014,0 -3.62549,-0.99365 -1.23535,-0.993651 -1.23535,-3.330077 l 0,-6.096191 -3.73291,0 0,-2.108154 3.73291,0 0,-4.766846 2.28271,0 0,4.766846 5.58594,0 0,2.108154 -5.58594,0 0,6.096191 q 0,1.141358 0.65796,1.624756 0.65796,0.483399 1.92017,0.483399 l 2.14844,0 0,2.000732 z"
         id="path4164"
         inkscape:connector-curvature="0" />
    </g>
    <g
       style="font-style:normal;font-weight:normal;font-size:27.5px;line-height:125%;font-family:'Agave Nerd Font';letter-spacing:0px;word-spacing:0px;fill:#ffffff;fill-opacity:1;stroke:none;stroke-width:1px;stroke-linecap:butt;stroke-linejoin:miter;stroke-opacity:1"
       id="text4140">
      <path
         d="m 68.974091,132.11526 q 2.307128,0 3.204345,0.63233 0.897217,0.62378 0.897217,2.23877 l 0,5.94726 -2.905273,0 q -1.760254,0 -2.7771,-0.75195 -1.016846,-0.75195 -1.016846,-2.05078 0,-1.04248 0.777588,-1.64063 0.777588,-0.60668 2.127686,-0.60668 l 2.341308,0 0,-0.89722 q 0,-0.82031 -0.581054,-1.13648 -0.57251,-0.3247 -2.067871,-0.3247 l -1.640625,0 0,-1.2732 q 0.623779,-0.13672 1.640625,-0.13672 z m 0.307617,5.11841 q -0.675049,0 -1.068115,0.23926 -0.384522,0.23926 -0.384522,0.65796 0,0.67505 0.623779,1.06812 0.632325,0.39306 1.71753,0.39306 l 1.452636,0 0,-2.3584 -2.341308,0 z"
         style="font-size:17.5px"
         id="path4167"
         inkscape:connector-curvature="0" />
      <path
         d="m 76.71579,129.99612 0,3.03345 2.341308,0 q 1.350098,0 2.127686,0.89722 0.777588,0.88867 0.777588,2.4353 0,2.11914 -1.016846,3.34961 -1.016846,1.22192 -2.777099,1.22192 l -2.905274,0 0,-10.9375 1.452637,0 z m 2.341308,4.375 -2.341308,0 0,5.22095 1.452637,0 q 1.085205,0 1.708984,-0.86304 0.632324,-0.87158 0.632324,-2.36694 0,-0.92285 -0.393066,-1.45264 -0.384522,-0.53833 -1.059571,-0.53833 z"
         style="font-size:17.5px"
         id="path4169"
         inkscape:connector-curvature="0" />
      <path
         d="m 88.405243,132.11526 q 0.52124,0 0.991211,0.0342 0.478515,0.0342 0.692139,0.0684 l 0.213623,0.0342 0,1.2732 -1.896973,0 q -1.427002,0 -2.255859,0.82031 -0.820313,0.81177 -0.820313,2.21313 0,1.63208 0.786133,2.33277 0.786133,0.70068 2.290039,0.70068 l 1.896973,0 0,1.27319 q -0.726319,0.13672 -1.896973,0.13672 -0.837402,0 -1.512451,-0.13672 -0.675049,-0.14526 -1.247559,-0.46997 -0.57251,-0.3247 -0.957031,-0.82885 -0.384522,-0.5127 -0.598145,-1.26465 -0.213623,-0.7605 -0.213623,-1.74317 0,-2.04223 1.239014,-3.23852 1.247559,-1.20484 3.289795,-1.20484 z"
         style="font-size:17.5px"
         id="path4171"
         inkscape:connector-curvature="0" />
      <path
         d="m 99.325653,140.93362 -3.793945,0 q -1.350098,0 -2.127686,-0.88867 -0.777588,-0.89721 -0.777588,-2.44385 0,-2.11914 1.016846,-3.34106 1.016846,-1.23047 2.7771,-1.23047 l 1.452636,0 0,-3.03345 1.452637,0 0,10.9375 z m -1.452637,-1.34155 0,-5.22095 -1.452636,0 q -1.085205,0 -1.71753,0.87159 -0.623779,0.86303 -0.623779,2.35839 0,0.92286 0.384522,1.46119 0.393066,0.52978 1.068115,0.52978 l 2.341308,0 z"
         style="font-size:17.5px"
         id="path4173"
         inkscape:connector-curvature="0" />
      <path
         d="m 105.63181,141.00198 q -2.10206,0 -3.31543,-1.18774 -1.21338,-1.19629 -1.21338,-3.25562 0,-2.0935 0.99121,-3.29834 0.99121,-1.21337 2.70019,-1.21337 1.70044,0 2.65747,0.77758 0.96558,0.76905 0.96558,2.1106 0,0.63232 -0.0342,1.20483 -0.0342,0.57251 -0.0684,0.82886 l -0.0342,0.26489 -5.65674,0 q 0,0.0513 0.009,0.13672 0.009,0.0855 0.0598,0.33325 0.0598,0.23926 0.16236,0.46143 0.11108,0.22217 0.33325,0.49561 0.22217,0.27343 0.52978,0.46997 0.30762,0.19653 0.80323,0.33325 0.4956,0.12817 1.11084,0.12817 l 1.89697,0 0,1.27319 q -0.72632,0.13672 -1.89697,0.13672 z m 1.333,-5.1184 0,-0.94849 q 0,-0.71777 -0.58105,-1.12793 -0.58106,-0.4187 -1.58936,-0.4187 -0.44433,0 -0.80322,0.13672 -0.35889,0.13672 -0.58105,0.35888 -0.21363,0.22217 -0.37598,0.48706 -0.16235,0.2649 -0.23926,0.52979 -0.0769,0.26489 -0.11963,0.48706 -0.0427,0.22217 -0.0513,0.35889 l 0,0.13672 4.34082,0 z"
         style="font-size:17.5px"
         id="path4175"
         inkscape:connector-curvature="0" />
      <path
         d="m 117.09909,130.06448 0,1.2732 -1.35864,0 q -1.23902,0 -1.71753,0.52124 -0.47852,0.51269 -0.47852,1.83716 l 3.55469,0 0,1.35009 -3.55469,0 0,5.88745 -1.45263,0 0,-5.88745 -2.10205,0 0,-1.35009 2.10205,0 q 0,-2.11915 0.79467,-2.93946 0.80323,-0.82886 2.85401,-0.82886 0.37597,0 0.70923,0.0342 0.34179,0.0342 0.4956,0.0684 l 0.15381,0.0342 z"
         style="font-size:17.5px"
         id="path4177"
         inkscape:connector-curvature="0" />
      <path
         d="m 122.67038,132.18362 0.71777,0 q 1.23047,0 1.70899,0.47852 0.47851,0.47852 0.47851,1.70898 l 0,5.53711 q 0,1.73462 -1.05102,2.50367 -1.05103,0.77758 -3.05054,0.77758 -0.45288,0 -0.86304,-0.0342 -0.41015,-0.0342 -0.5896,-0.0684 l -0.18798,-0.0342 0,-1.27319 1.64062,0 q 1.29883,0 1.97388,-0.43579 0.67505,-0.42725 0.67505,-1.43555 l 0,-1.16211 -2.34131,0 q -1.3501,0 -2.12769,-0.7434 -0.77759,-0.74341 -0.77759,-2.0337 0,-1.7517 1.01685,-2.76855 1.01685,-1.01685 2.7771,-1.01685 z m 0,1.34156 q -1.08521,0 -1.71753,0.65796 -0.62378,0.64941 -0.62378,1.78588 0,0.66651 0.38452,1.05103 0.39307,0.38452 1.06812,0.38452 l 2.34131,0 0,-3.03345 q 0,-0.39306 -0.19654,-0.61523 -0.19653,-0.23071 -0.53833,-0.23071 l -0.71777,0 z"
         style="font-size:17.5px"
         id="path4179"
         inkscape:connector-curvature="0" />
      <path
         d="m 134.32565,140.93362 -1.45263,0 0,-4.92187 q 0,-0.88013 -0.46997,-1.2561 -0.46143,-0.38453 -1.35865,-0.38453 l -1.82861,0 0,6.5625 -1.45264,0 0,-10.9375 1.45264,0 0,3.10181 q 0.70068,-0.13672 1.82861,-0.13672 1.60645,0 2.44385,0.70923 0.8374,0.70068 0.8374,2.34131 l 0,4.92187 z"
         style="font-size:17.5px"
         id="path4181"
         inkscape:connector-curvature="0" />
      <path
         d="m 138.44431,129.26981 2.34985,0 0,1.45263 -2.34985,0 0,-1.45263 z m -1.65772,3.75976 3.73413,0 0,6.5625 2.55493,0 0,1.34155 -6.5625,0 0,-1.34155 2.55493,0 0,-5.22095 -2.28149,0 0,-1.34155 z"
         style="font-size:17.5px"
         id="path4183"
         inkscape:connector-curvature="0" />
      <path
         d="m 148.92892,129.26981 2.34986,0 0,1.45263 -2.34986,0 0,-1.45263 z m -3.11889,3.75976 5.19531,0 0,6.87866 q 0,1.7688 -1.05102,2.52076 -1.04249,0.76049 -3.05054,0.76049 -0.45288,0 -0.86304,-0.0342 -0.41016,-0.0342 -0.5896,-0.0684 l -0.18799,-0.0342 0,-1.27319 1.64063,0 q 1.29883,0 1.97388,-0.43579 0.67504,-0.42725 0.67504,-1.43555 l 0,-5.53711 -3.74267,0 0,-1.34155 z"
         style="font-size:17.5px"
         id="path4185"
         inkscape:connector-curvature="0" />
      <path
         d="m 159.66989,132.18362 0.90576,0.90577 -3.40942,2.54638 3.9563,5.29785 -1.67481,0 -3.98193,-5.33203 0,5.33203 -1.45264,0 0,-10.9375 1.45264,0 0,5.33204 4.2041,-3.14454 z"
         style="font-size:17.5px"
         id="path4187"
         inkscape:connector-curvature="0" />
      <path
         d="m 163.03659,129.99612 3.73413,0 0,9.59595 2.55493,0 0,1.34155 -6.5625,0 0,-1.34155 2.55493,0 0,-8.25439 -2.28149,0 0,-1.34156 z"
         style="font-size:17.5px"
         id="path4189"
         inkscape:connector-curvature="0" />
      <path
         d="m 173.21359,132.11526 q 0.35034,0 0.64087,0.0598 0.29907,0.0598 0.47852,0.15381 0.17944,0.0855 0.29907,0.1709 0.12817,0.0855 0.17944,0.14526 l 0.0513,0.0598 q 0.0256,-0.0256 0.0684,-0.0598 0.0427,-0.0427 0.18799,-0.14526 0.15381,-0.10254 0.31616,-0.17945 0.1709,-0.0769 0.4187,-0.13672 0.25635,-0.0684 0.52124,-0.0684 1.05103,0 1.64917,0.59815 0.59815,0.5896 0.59815,1.65771 l 0,6.5625 -1.34155,0 0,-6.5625 q 0,-0.50415 -0.24781,-0.78613 -0.23926,-0.29053 -0.65796,-0.29053 -0.2478,0 -0.47851,0.10254 -0.22217,0.10254 -0.32471,0.20508 l -0.10254,0.10254 0,7.229 -1.3501,0 0,-6.5625 q 0,-0.4956 -0.23925,-0.78613 -0.23926,-0.29053 -0.66651,-0.29053 -0.2478,0 -0.47851,0.10254 -0.22217,0.10254 -0.32471,0.20508 l -0.10254,0.10254 0,7.229 -1.34155,0 0,-7.99804 q 0.0342,-0.0342 0.094,-0.0854 0.0684,-0.0598 0.29053,-0.19654 0.23071,-0.14526 0.46997,-0.2478 0.2478,-0.11108 0.62378,-0.19653 0.37598,-0.094 0.76904,-0.094 z"
         style="font-size:17.5px"
         id="path4191"
         inkscape:connector-curvature="0" />
      <path
         d="m 186.82565,140.93362 -1.45263,0 0,-5.62255 q 0,-1.03394 -0.46997,-1.47828 -0.46143,-0.44433 -1.35865,-0.44433 -0.50415,0 -0.96557,0.094 -0.45288,0.094 -0.65796,0.18799 l -0.20508,0.094 0,7.16919 -1.45264,0 0,-7.99804 q 0.0513,-0.0342 0.14527,-0.094 0.10254,-0.0598 0.42724,-0.21362 0.32471,-0.15381 0.67505,-0.27344 0.35889,-0.11963 0.91431,-0.21362 0.55542,-0.094 1.11938,-0.094 1.60645,0 2.44385,0.75195 0.8374,0.75195 0.8374,2.51221 l 0,5.62255 z"
         style="font-size:17.5px"
         id="path4193"
         inkscape:connector-curvature="0" />
      <path
         d="m 188.8508,138.68631 q -0.2478,-0.88013 -0.2478,-2.12769 0,-1.24755 0.2478,-2.12768 0.25635,-0.88013 0.74341,-1.39282 0.4956,-0.52124 1.15356,-0.75196 0.65796,-0.23925 1.54663,-0.23925 0.88867,0 1.54663,0.23925 0.65796,0.23072 1.14502,0.75196 0.49561,0.51269 0.74341,1.39282 0.25635,0.88013 0.25635,2.12768 0,1.24756 -0.25635,2.12769 -0.2478,0.88013 -0.74341,1.40137 -0.48706,0.51269 -1.14502,0.75195 -0.65796,0.23071 -1.54663,0.23071 -0.88867,0 -1.54663,-0.23071 -0.65796,-0.23926 -1.15356,-0.75195 -0.48706,-0.52124 -0.74341,-1.40137 z m 5.10986,-4.56299 q -0.57251,-0.73486 -1.66626,-0.73486 -1.09375,0 -1.66626,0.73486 -0.57251,0.72632 -0.57251,2.4353 0,1.70899 0.57251,2.44385 0.57251,0.72632 1.66626,0.72632 1.09375,0 1.66626,-0.72632 0.57251,-0.73486 0.57251,-2.44385 0,-1.70898 -0.57251,-2.4353 z"
         style="font-size:17.5px"
         id="path4195"
         inkscape:connector-curvature="0" />
      <path
         d="m 199.95065,132.18362 1.60645,0 q 1.3501,0 2.12768,0.7605 0.77759,0.75196 0.77759,2.05933 0,1.75171 -1.01684,2.75146 -1.01685,0.99121 -2.7771,0.99121 l -1.45264,0 0,4.375 -1.45264,0 0,-8.75 q 0,-1.23046 0.47852,-1.70898 0.47851,-0.47852 1.70898,-0.47852 z m 0,1.34156 q -0.34179,0 -0.53833,0.23071 -0.19653,0.22217 -0.19653,0.61523 l 0,3.03345 1.45264,0 q 1.0852,0 1.70898,-0.64087 0.63233,-0.64941 0.63233,-1.76025 0,-0.6836 -0.39307,-1.07666 -0.38452,-0.40161 -1.05957,-0.40161 l -1.60645,0 z"
         style="font-size:17.5px"
         id="path4197"
         inkscape:connector-curvature="0" />
      <path
         d="m 210.17038,132.18362 0.71777,0 q 1.23047,0 1.70899,0.47852 0.47851,0.47852 0.47851,1.70898 l 0,8.75 -1.45263,0 0,-4.375 -2.34131,0 q -1.3501,0 -2.12769,-0.7434 -0.77759,-0.74341 -0.77759,-2.0337 0,-1.7517 1.01685,-2.76855 1.01685,-1.01685 2.7771,-1.01685 z m 0,1.34156 q -1.08521,0 -1.71753,0.65796 -0.62378,0.64941 -0.62378,1.78588 0,0.66651 0.38452,1.05103 0.39307,0.38452 1.06812,0.38452 l 2.34131,0 0,-3.03345 q 0,-0.39306 -0.19654,-0.61523 -0.19653,-0.23071 -0.53833,-0.23071 l -0.71777,0 z"
         style="font-size:17.5px"
         id="path4199"
         inkscape:connector-curvature="0" />
      <path
         d="m 222.09909,135.31107 -1.45264,0 q 0,-1.03394 -0.46997,-1.47828 -0.46142,-0.44433 -1.35864,-0.44433 -0.50415,0 -0.96558,0.094 -0.45288,0.094 -0.65795,0.18799 l -0.20508,0.094 0,7.16919 -1.45264,0 0,-7.99804 q 0.0513,-0.0342 0.14526,-0.094 0.10254,-0.0598 0.42725,-0.21362 0.32471,-0.15381 0.67505,-0.27344 0.35889,-0.11963 0.91431,-0.21362 0.55542,-0.094 1.11938,-0.094 1.60645,0 2.44385,0.75195 0.8374,0.75195 0.8374,2.51221 z"
         style="font-size:17.5px"
         id="path4201"
         inkscape:connector-curvature="0" />
      <path
         d="m 228.33688,132.11526 q 0.46143,0 0.88013,0.0342 0.42725,0.0342 0.62378,0.0684 l 0.18799,0.0342 0,1.2732 -1.6919,0 q -1.34155,0 -2.04223,0.27343 -0.69214,0.2649 -0.69214,0.88868 0,0.37597 0.26489,0.64087 0.26489,0.25634 0.69214,0.41015 0.42725,0.14527 0.93994,0.27344 0.52124,0.12817 1.03394,0.29907 0.52124,0.16236 0.94848,0.41016 0.42725,0.23926 0.69214,0.67505 0.26489,0.43579 0.26489,1.04248 0,1.38427 -1.11084,1.97387 -1.11084,0.5896 -3.24707,0.5896 -0.4956,0 -0.94848,-0.0342 -0.44434,-0.0342 -0.64087,-0.0684 l -0.20508,-0.0342 0,-1.27319 1.79443,0 q 1.42701,0 2.16187,-0.26489 0.74341,-0.26489 0.74341,-0.88867 0,-0.33325 -0.21363,-0.58106 -0.20507,-0.2478 -0.54687,-0.38452 -0.33325,-0.13672 -0.76904,-0.26489 -0.43579,-0.13672 -0.88868,-0.23926 -0.45288,-0.10254 -0.88867,-0.28198 -0.43579,-0.18799 -0.77759,-0.4187 -0.33325,-0.23926 -0.54687,-0.64087 -0.20508,-0.41016 -0.20508,-0.93994 0,-1.38428 1.06812,-1.97388 1.06811,-0.59815 3.11889,-0.59815 z"
         style="font-size:17.5px"
         id="path4203"
         inkscape:connector-curvature="0" />
      <path
         d="m 239.05222,140.86526 q -0.52124,0.13672 -1.36719,0.13672 -1.521,0 -2.30713,-0.63232 -0.78613,-0.63232 -0.78613,-2.11914 l 0,-3.8794 -2.37549,0 0,-1.34155 2.37549,0 0,-3.03345 1.45263,0 0,3.03345 3.55469,0 0,1.34155 -3.55469,0 0,3.8794 q 0,0.72632 0.4187,1.03393 0.41871,0.30762 1.22193,0.30762 l 1.36719,0 0,1.27319 z"
         style="font-size:17.5px"
         id="path4205"
         inkscape:connector-curvature="0" />
      <path
         d="m 241.51315,132.18362 1.45264,0 0,5.62256 q 0,1.03394 0.46143,1.47827 0.46997,0.44434 1.36718,0.44434 0.50415,0 0.95703,-0.094 0.46143,-0.094 0.66651,-0.18799 l 0.20508,-0.094 0,-7.16919 1.45263,0 0,7.99805 q -0.0513,0.0342 -0.15381,0.094 -0.094,0.0598 -0.4187,0.21362 -0.3247,0.15381 -0.68359,0.27344 -0.35034,0.11962 -0.90576,0.21362 -0.55542,0.094 -1.11939,0.094 -1.60644,0 -2.44384,-0.75195 -0.83741,-0.75195 -0.83741,-2.51221 l 0,-5.62256 z"
         style="font-size:17.5px"
         id="path4207"
         inkscape:connector-curvature="0" />
      <path
         d="m 249.71628,132.18362 1.52954,0 1.93115,5.7251 0.36743,1.51245 0.36743,-1.51245 1.93116,-5.7251 1.52954,0 -2.95654,8.75 -1.74317,0 -2.95654,-8.75 z"
         style="font-size:17.5px"
         id="path4209"
         inkscape:connector-curvature="0" />
      <path
         d="m 258.19284,132.18362 1.3501,0 0.68359,5.7251 0.13672,1.51245 0.35889,-1.51245 1.13647,-3.5376 0.87158,0 1.13648,3.5376 0.35889,1.51245 0.13671,-1.51245 0.6836,-5.7251 1.3501,0 -1.04248,8.75 -1.74317,0 -1.31592,-4.58007 -1.31591,4.58007 -1.74317,0 -1.04248,-8.75 z"
         style="font-size:17.5px"
         id="path4211"
         inkscape:connector-curvature="0" />
      <path
         d="m 267.21628,132.18362 1.75171,0 2.07641,3.28125 2.07642,-3.28125 1.75171,0 -2.948,4.375 2.948,4.375 -1.75171,0 -2.07642,-3.28125 -2.07641,3.28125 -1.75171,0 2.948,-4.375 -2.948,-4.375 z"
         style="font-size:17.5px"
         id="path4213"
         inkscape:connector-curvature="0" />
      <path
         d="m 276.51315,132.18362 1.45264,0 0,3.91358 q 0,0.60669 0.48706,0.95703 0.49561,0.35034 1.34155,0.35034 l 1.82862,0 0,-5.22095 1.45263,0 0,7.72461 q 0,1.7688 -1.05102,2.52076 -1.04248,0.76049 -3.05054,0.76049 -0.45288,0 -0.86304,-0.0342 -0.41015,-0.0342 -0.5896,-0.0684 l -0.18798,-0.0342 0,-1.27319 1.64062,0 q 1.29883,0 1.97388,-0.43579 0.67505,-0.42725 0.67505,-1.43555 l 0,-1.23047 q -0.70069,0.13672 -1.82862,0.13672 -1.52099,0 -2.40112,-0.72631 -0.88013,-0.72632 -0.88013,-1.99097 l 0,-3.91358 z"
         style="font-size:17.5px"
         id="path4215"
         inkscape:connector-curvature="0" />
      <path
         d="m 285.53659,132.18362 6.01563,0 0,1.34156 -4.60572,6.06689 4.87915,0 0,1.34155 -6.5625,0 0,-1.34155 4.60572,-6.06689 -4.33228,0 0,-1.34156 z"
         style="font-size:17.5px"
         id="path4217"
         inkscape:connector-curvature="0" />
      <path
         d="m 68.922821,151.87112 1.743164,0 3.229981,10.9375 -1.512452,0 -0.640869,-2.1875 -3.896484,0 -0.640869,2.1875 -1.512451,0 3.22998,-10.9375 z m 0.871582,1.51246 -0.256348,1.51245 -1.290283,4.38354 3.093262,0 -1.290283,-4.38354 -0.256348,-1.51245 z"
         style="font-size:17.5px"
         id="path4219"
         inkscape:connector-curvature="0" />
      <path
         d="m 75.263153,151.87112 2.1875,0 q 1.922607,0 2.939453,0.67505 1.025391,0.67505 1.025391,2.17896 0,0.45288 -0.153809,0.82886 -0.145263,0.37597 -0.358886,0.5896 -0.213624,0.21362 -0.427247,0.36743 -0.213623,0.14526 -0.358886,0.19653 l -0.153809,0.0513 q 0.09399,0.0256 0.247803,0.0769 0.153808,0.0513 0.53833,0.2649 0.393066,0.21362 0.692139,0.4956 0.307617,0.28198 0.546875,0.79468 0.247802,0.51269 0.247802,1.13647 0,0.90577 -0.324707,1.54664 -0.324707,0.64086 -0.965576,1.01684 -0.640869,0.37598 -1.495361,0.54688 -0.854492,0.17089 -1.999512,0.17089 l -2.1875,0 0,-10.9375 z m 1.452637,1.34156 0,3.03344 0.734863,0 q 1.162109,0 1.837158,-0.41015 0.675049,-0.41016 0.675049,-1.11084 0,-0.70069 -0.675049,-1.1023 -0.675049,-0.41015 -1.837158,-0.41015 l -0.734863,0 z m 0,4.375 0,3.87939 0.734863,0 q 0.828857,0 1.401367,-0.0769 0.57251,-0.0855 1.025391,-0.29053 0.461426,-0.21362 0.683594,-0.59814 0.222168,-0.39307 0.222168,-0.97413 0,-0.58105 -0.222168,-0.96557 -0.222168,-0.39307 -0.683594,-0.59815 -0.452881,-0.21362 -1.025391,-0.29052 -0.57251,-0.0854 -1.401367,-0.0854 l -0.734863,0 z"
         style="font-size:17.5px"
         id="path4221"
         inkscape:connector-curvature="0" />
      <path
         d="m 88.601776,151.80276 q 0.546875,0 1.033936,0.0342 0.495605,0.0342 0.717773,0.0684 l 0.222168,0.0342 0,1.2732 -1.973877,0 q -1.486816,0 -2.349853,1.11084 -0.854493,1.10229 -0.854493,3.01635 0,2.22168 0.811768,3.17872 0.820312,0.94848 2.392578,0.94848 l 1.973877,0 0,1.27319 q -0.751953,0.13672 -1.973877,0.13672 -1.136474,0 -1.982422,-0.28198 -0.837402,-0.29053 -1.469726,-0.92285 -0.632325,-0.63232 -0.957032,-1.71753 -0.316162,-1.0852 -0.316162,-2.61475 0,-2.56347 1.264649,-4.05029 1.273193,-1.48682 3.460693,-1.48682 z"
         style="font-size:17.5px"
         id="path4223"
         inkscape:connector-curvature="0" />
      <path
         d="m 92.763153,151.87112 2.1875,0 q 1.14502,0 1.999512,0.28199 0.854492,0.28198 1.495361,0.9143 0.640869,0.62378 0.965576,1.6919 0.324707,1.06811 0.324707,2.58056 0,1.51246 -0.324707,2.58057 -0.324707,1.06812 -0.965576,1.70044 -0.640869,0.62378 -1.495361,0.90576 -0.854492,0.28198 -1.999512,0.28198 l -2.1875,0 0,-10.9375 z m 1.452637,1.34156 0,8.25439 0.734863,0 q 0.786133,0 1.367188,-0.21362 0.581054,-0.21362 1.016845,-0.6836 0.435791,-0.47851 0.657959,-1.28173 0.222168,-0.81177 0.222168,-1.94825 0,-1.13647 -0.222168,-1.93969 -0.222168,-0.81177 -0.657959,-1.28174 -0.435791,-0.47852 -1.016845,-0.69214 -0.581055,-0.21362 -1.367188,-0.21362 l -0.734863,0 z"
         style="font-size:17.5px"
         id="path4225"
         inkscape:connector-curvature="0" />
      <path
         d="m 101.78659,151.87112 6.28906,0 0,1.34156 -4.83642,0 0,3.03344 4.28955,0 0,1.34156 -4.28955,0 0,3.87939 4.83642,0 0,1.34155 -6.28906,0 0,-10.9375 z"
         style="font-size:17.5px"
         id="path4227"
         inkscape:connector-curvature="0" />
      <path
         d="m 110.53659,151.87112 6.28906,0 0,1.34156 -4.83642,0 0,3.03344 4.56299,0 0,1.34156 -4.56299,0 0,5.22094 -1.45264,0 0,-10.9375 z"
         style="font-size:17.5px"
         id="path4229"
         inkscape:connector-curvature="0" />
      <path
         d="m 123.38815,151.80276 q 0.57251,0 1.11939,0.0342 0.54687,0.0342 0.81177,0.0684 l 0.25634,0.0342 0,1.2732 -2.1875,0 q -1.60644,0 -2.4353,1.0852 -0.82886,1.08521 -0.82886,3.04199 0,1.15357 0.17945,1.98243 0.17944,0.82031 0.52978,1.29882 0.35889,0.47852 0.82886,0.70069 0.46997,0.21362 1.10229,0.21362 0.79468,0 1.21338,-0.21362 0.4187,-0.21363 0.4187,-0.70069 l 0,-3.03344 -2.10205,0 0,-1.34156 3.55469,0 0,4.375 q 0,1.21338 -0.78613,1.73462 -0.78614,0.52124 -2.29859,0.52124 -0.99975,0 -1.74316,-0.28198 -0.74341,-0.29053 -1.29883,-0.92285 -0.55542,-0.63232 -0.8374,-1.71753 -0.28198,-1.0852 -0.28198,-2.61475 0,-2.59765 1.23047,-4.06738 1.23901,-1.46973 3.55468,-1.46973 z"
         style="font-size:17.5px"
         id="path4231"
         inkscape:connector-curvature="0" />
      <path
         d="m 127.48972,151.87112 1.45263,0 0,4.375 4.2041,0 0,-4.375 1.45264,0 0,10.9375 -1.45264,0 0,-5.22094 -4.2041,0 0,5.22094 -1.45263,0 0,-10.9375 z"
         style="font-size:17.5px"
         id="path4233"
         inkscape:connector-curvature="0" />
      <path
         d="m 136.78659,151.87112 6.01563,0 0,1.34156 -2.2815,0 0,8.25439 2.2815,0 0,1.34155 -6.01563,0 0,-1.34155 2.28149,0 0,-8.25439 -2.28149,0 0,-1.34156 z"
         style="font-size:17.5px"
         id="path4235"
         inkscape:connector-curvature="0" />
      <path
         d="m 145.81003,151.87112 5.46875,0 0,6.44288 q 0,1.26464 -0.29053,2.16186 -0.29053,0.88867 -0.86304,1.40991 -0.57251,0.52124 -1.333,0.7605 -0.7605,0.23071 -1.78589,0.23071 -0.47852,0 -0.91431,-0.0342 -0.43579,-0.0342 -0.63232,-0.0684 l -0.19654,-0.0342 0,-1.27319 1.74317,0 q 1.38427,0 2.10205,-0.72632 0.71777,-0.72632 0.71777,-2.42675 l 0,-5.10132 -4.01611,0 0,-1.34156 z"
         style="font-size:17.5px"
         id="path4237"
         inkscape:connector-curvature="0" />
      <path
         d="m 159.17429,151.87112 1.6748,0 -3.85376,5.11841 4.1272,5.81909 -1.77735,0 -3.87939,-5.46875 0,5.46875 -1.45264,0 0,-10.9375 1.45264,0 0,4.92188 3.7085,-4.92188 z"
         style="font-size:17.5px"
         id="path4239"
         inkscape:connector-curvature="0" />
      <path
         d="m 163.03659,151.87112 1.45264,0 0,9.59595 4.83642,0 0,1.34155 -6.28906,0 0,-10.9375 z"
         style="font-size:17.5px"
         id="path4241"
         inkscape:connector-curvature="0" />
      <path
         d="m 170.96628,151.87112 1.34155,0 2.48657,4.7168 2.48658,-4.7168 1.34155,0 0,10.9375 -1.34155,0 0,-6.5625 0.11962,-2.1875 -1.01684,2.1875 -1.15357,2.1875 -0.87158,0 -1.15356,-2.1875 -1.01685,-2.1875 0.11963,2.1875 0,6.5625 -1.34155,0 0,-10.9375 z"
         style="font-size:17.5px"
         id="path4243"
         inkscape:connector-curvature="0" />
      <path
         d="m 179.98972,151.87112 1.74316,0 2.99927,6.5625 0.94848,2.1875 -0.0342,-2.1875 0,-6.5625 1.45264,0 0,10.9375 -1.75171,0 -2.99072,-6.5625 -0.94849,-2.1875 0.0342,2.1875 0,6.5625 -1.45263,0 0,-10.9375 z"
         style="font-size:17.5px"
         id="path4245"
         inkscape:connector-curvature="0" />
      <path
         d="m 188.8508,159.9888 q -0.2478,-1.10229 -0.2478,-2.64893 0,-1.54663 0.2478,-2.64038 0.25635,-1.10229 0.74341,-1.74316 0.4956,-0.64087 1.15356,-0.9314 0.65796,-0.29052 1.54663,-0.29052 0.88867,0 1.54663,0.29052 0.65796,0.29053 1.14502,0.9314 0.49561,0.64087 0.74341,1.74316 0.25635,1.09375 0.25635,2.64038 0,1.54664 -0.25635,2.64893 -0.2478,1.09375 -0.74341,1.73462 -0.48706,0.64087 -1.14502,0.9314 -0.65796,0.29052 -1.54663,0.29052 -0.88867,0 -1.54663,-0.29052 -0.65796,-0.29053 -1.15356,-0.9314 -0.48706,-0.64087 -0.74341,-1.73462 z m 4.34936,-6.69067 q -0.38452,-0.22217 -0.90576,-0.22217 -0.52124,0 -0.9143,0.22217 -0.38453,0.22216 -0.67505,0.70922 -0.28198,0.48707 -0.43579,1.32447 -0.14527,0.82886 -0.14527,2.00805 0,1.1792 0.14527,2.01661 0.15381,0.82885 0.43579,1.31591 0.29052,0.48706 0.67505,0.70923 0.39306,0.22217 0.9143,0.22217 0.52124,0 0.90576,-0.22217 0.39307,-0.22217 0.67505,-0.70923 0.29053,-0.48706 0.43579,-1.31591 0.15381,-0.83741 0.15381,-2.01661 0,-1.17919 -0.15381,-2.00805 -0.14526,-0.8374 -0.43579,-1.32447 -0.28198,-0.48706 -0.67505,-0.70922 z"
         style="font-size:17.5px"
         id="path4247"
         inkscape:connector-curvature="0" />
      <path
         d="m 198.03659,151.87112 3.79395,0 q 1.34155,0 2.11914,0.88013 0.78613,0.88013 0.78613,2.40112 0,1.521 -1.01685,2.40113 -1.01684,0.88012 -2.7771,0.88012 l -1.45263,0 0,4.375 -1.45264,0 0,-10.9375 z m 1.45264,1.34156 0,3.87939 1.45263,0 q 1.08521,0 1.70899,-0.52124 0.63232,-0.52124 0.63232,-1.41846 0,-0.89721 -0.39306,-1.41845 -0.38453,-0.52124 -1.05957,-0.52124 l -2.34131,0 z"
         style="font-size:17.5px"
         id="path4249"
         inkscape:connector-curvature="0" />
      <path
         d="m 206.70114,152.87088 q 0.87158,-1.13647 3.09326,-1.13647 2.22168,0 3.09326,1.13647 0.87159,1.12793 0.87159,3.98193 0,2.61475 -0.72632,3.75122 -0.71777,1.13648 -2.51221,1.29883 l 0,2.24732 -1.45264,0 0,-2.24732 q -1.79443,-0.16235 -2.52075,-1.29883 -0.71777,-1.13647 -0.71777,-3.75122 0,-2.854 0.87158,-3.98193 z m 5.0586,1.03394 q -0.54688,-0.82886 -1.96534,-0.82886 -1.41845,0 -1.97387,0.82886 -0.54688,0.82031 -0.53833,2.94799 0.009,1.91407 0.43579,2.73438 0.43579,0.82031 1.52954,0.94849 l 0,-3.68287 1.09375,0 0,3.68287 q 1.09375,-0.12818 1.52954,-0.94849 0.43579,-0.82031 0.43579,-2.73438 0,-2.12768 -0.54687,-2.94799 z"
         style="font-size:17.5px"
         id="path4251"
         inkscape:connector-curvature="0" />
      <path
         d="m 215.26315,151.87112 3.79395,0 q 1.427,0 2.16186,0.65796 0.74341,0.65796 0.74341,2.19605 0,2.10205 -1.93115,2.64892 l 2.34131,5.43457 -1.58081,0 -2.24732,-5.22094 -1.82861,0 0,5.22094 -1.45264,0 0,-10.9375 z m 1.45264,1.34156 0,3.03344 1.45264,0 q 1.14502,0 1.74316,-0.35034 0.59815,-0.35034 0.59815,-1.17065 0,-0.81177 -0.37598,-1.16211 -0.36743,-0.35034 -1.07666,-0.35034 l -2.34131,0 z"
         style="font-size:17.5px"
         id="path4253"
         inkscape:connector-curvature="0" />
      <path
         d="m 228.49069,151.80276 q 0.57251,0 1.09375,0.0342 0.52124,0.0342 0.75196,0.0684 l 0.23925,0.0342 0,1.2732 -2.08496,0 q -1.52099,0 -2.30713,0.36743 -0.78613,0.35889 -0.78613,1.20483 0,0.41016 0.18799,0.72632 0.19653,0.31616 0.51269,0.52979 0.32471,0.21362 0.74341,0.39306 0.42725,0.1709 0.88867,0.33325 0.46143,0.16236 0.92286,0.33326 0.46142,0.17089 0.88012,0.4187 0.42725,0.23926 0.74341,0.55542 0.32471,0.30761 0.5127,0.77759 0.19653,0.46142 0.19653,1.04248 0,1.13647 -0.48706,1.77734 -0.47852,0.64087 -1.56372,0.92285 -1.07666,0.28198 -3.00781,0.28198 -0.59815,0 -1.14502,-0.0342 -0.54688,-0.0342 -0.79468,-0.0684 l -0.2478,-0.0342 0,-1.27319 2.1875,0 q 1.99096,0 2.76001,-0.3418 0.77758,-0.34179 0.77758,-1.23046 0,-0.41016 -0.19653,-0.72632 -0.18799,-0.31616 -0.5127,-0.52979 -0.31616,-0.21362 -0.7434,-0.38452 -0.4187,-0.17944 -0.88013,-0.3418 -0.46143,-0.16235 -0.92285,-0.33325 -0.46143,-0.1709 -0.88867,-0.41015 -0.41871,-0.24781 -0.74341,-0.55542 -0.31616,-0.31617 -0.5127,-0.77759 -0.18799,-0.46997 -0.18799,-1.05103 0,-1.60644 1.17066,-2.29004 1.1792,-0.69214 3.4436,-0.69214 z"
         style="font-size:17.5px"
         id="path4255"
         inkscape:connector-curvature="0" />
      <path
         d="m 232.21628,151.87112 7.65625,0 0,1.34156 -3.10181,0 0,9.59594 -1.45264,0 0,-9.59594 -3.1018,0 0,-1.34156 z"
         style="font-size:17.5px"
         id="path4257"
         inkscape:connector-curvature="0" />
      <path
         d="m 241.23972,151.87112 1.45263,0 0,6.01563 q 0,2.09351 0.45288,2.90527 0.46143,0.81177 1.64917,0.81177 1.18775,0 1.64063,-0.81177 0.46142,-0.81176 0.46142,-2.90527 l 0,-6.01563 1.45264,0 0,6.01563 q 0,1.45264 -0.17944,2.40112 -0.17945,0.93994 -0.60669,1.54663 -0.4187,0.60669 -1.08521,0.86304 -0.6665,0.2478 -1.68335,0.2478 -1.01684,0 -1.68335,-0.2478 -0.6665,-0.25635 -1.09375,-0.86304 -0.4187,-0.60669 -0.59814,-1.54663 -0.17944,-0.94848 -0.17944,-2.40112 l 0,-6.01563 z"
         style="font-size:17.5px"
         id="path4259"
         inkscape:connector-curvature="0" />
      <path
         d="m 249.44284,151.87112 1.51245,0 2.33277,7.9126 0.25634,1.51245 0.25635,-1.51245 2.33276,-7.9126 1.51246,0 -3.22998,10.9375 -1.74317,0 -3.22998,-10.9375 z"
         style="font-size:17.5px"
         id="path4261"
         inkscape:connector-curvature="0" />
      <path
         d="m 258.19284,151.87112 1.34155,0 0.66651,8.844 1.65771,-4.469 0.87158,0 1.65772,4.469 0.6665,-8.844 1.34156,0 -0.82032,10.9375 -1.74316,0 -1.53809,-4.15283 -1.53808,4.15283 -1.74317,0 -0.82031,-10.9375 z"
         style="font-size:17.5px"
         id="path4263"
         inkscape:connector-curvature="0" />
      <path
         d="m 266.94284,151.87112 1.6919,0 2.40966,4.18702 2.40967,-4.18702 1.6919,0 -3.25562,5.46875 3.25562,5.46875 -1.6919,0 -2.40967,-4.18701 -2.40966,4.18701 -1.6919,0 3.25562,-5.46875 -3.25562,-5.46875 z"
         style="font-size:17.5px"
         id="path4265"
         inkscape:connector-curvature="0" />
      <path
         d="m 275.69284,151.87112 1.63208,0 2.46948,4.95606 2.46949,-4.95606 1.63208,0 -3.37525,6.5625 0,4.375 -1.45264,0 0,-4.375 -3.37524,-6.5625 z"
         style="font-size:17.5px"
         id="path4267"
         inkscape:connector-curvature="0" />
      <path
         d="m 291.82565,151.87112 0,1.34156 -5.23803,8.25439 5.51147,0 0,1.34155 -7.10937,0 0,-1.34155 5.23803,-8.25439 -4.9646,0 0,-1.34156 6.5625,0 z"
         style="font-size:17.5px"
         id="path4269"
         inkscape:connector-curvature="0" />
      <path
         d="m 66.3508,182.43631 q -0.247803,-0.88013 -0.247803,-2.12769 0,-1.24755 0.247803,-2.12768 0.256347,-0.88013 0.743408,-1.39282 0.495605,-0.52124 1.153564,-0.75196 0.657959,-0.23925 1.546631,-0.23925 0.888672,0 1.546631,0.23925 0.657959,0.23072 1.145019,0.75196 0.495606,0.51269 0.743409,1.39282 0.256347,0.88013 0.256347,2.12768 0,1.24756 -0.256347,2.12769 -0.247803,0.88013 -0.743409,1.40137 -0.48706,0.51269 -1.145019,0.75195 -0.657959,0.23071 -1.546631,0.23071 -0.888672,0 -1.546631,-0.23071 -0.657959,-0.23926 -1.153564,-0.75195 -0.487061,-0.52124 -0.743408,-1.40137 z m 5.109863,-4.56299 q -0.57251,-0.73486 -1.66626,-0.73486 -1.09375,0 -1.66626,0.73486 -0.572509,0.72632 -0.572509,2.4353 0,1.70899 0.572509,2.44385 0.57251,0.72632 1.66626,0.72632 1.09375,0 1.66626,-0.72632 0.57251,-0.73486 0.57251,-2.44385 0,-1.70898 -0.57251,-2.4353 z"
         style="font-size:17.5px"
         id="path4271"
         inkscape:connector-curvature="0" />
      <path
         d="m 75.1008,181.8638 q -0.247803,-1.10229 -0.247803,-2.64893 0,-1.54663 0.247803,-2.64038 0.256347,-1.10229 0.743408,-1.74316 0.495605,-0.64087 1.153564,-0.9314 0.657959,-0.29052 1.546631,-0.29052 0.888672,0 1.546631,0.29052 0.657959,0.29053 1.145019,0.9314 0.495606,0.64087 0.743409,1.74316 0.256347,1.09375 0.256347,2.64038 0,1.54664 -0.256347,2.64893 -0.247803,1.09375 -0.743409,1.73462 -0.48706,0.64087 -1.145019,0.9314 -0.657959,0.29052 -1.546631,0.29052 -0.888672,0 -1.546631,-0.29052 -0.657959,-0.29053 -1.153564,-0.9314 -0.487061,-0.64087 -0.743408,-1.73462 z m 4.349365,-6.69067 q -0.384522,-0.22217 -0.905762,-0.22217 -0.52124,0 -0.914307,0.22217 -0.384521,0.22216 -0.675048,0.70922 -0.281983,0.48707 -0.435791,1.32447 -0.145264,0.82886 -0.145264,2.00805 0,1.1792 0.145264,2.01661 0.153808,0.82885 0.435791,1.31591 0.290527,0.48706 0.675048,0.70923 0.393067,0.22217 0.914307,0.22217 0.52124,0 0.905762,-0.22217 0.393066,-0.22217 0.675049,-0.70923 0.290527,-0.48706 0.435791,-1.31591 0.153808,-0.83741 0.153808,-2.01661 0,-1.17919 -0.153808,-2.00805 -0.145264,-0.8374 -0.435791,-1.32447 -0.281983,-0.48706 -0.675049,-0.70922 z"
         style="font-size:17.5px"
         id="path4273"
         inkscape:connector-curvature="0" />
      <path
         d="m 84.594208,175.11331 q 0.991211,-1.5039 2.700195,-1.5039 1.708984,0 2.700195,1.5039 0.991211,1.50391 0.991211,4.10156 0,2.59766 -0.991211,4.10157 -0.991211,1.5039 -2.700195,1.5039 -1.708984,0 -2.700195,-1.5039 -0.991211,-1.50391 -0.991211,-4.10157 0,-2.59765 0.991211,-4.10156 z m 4.289551,0.98267 q -0.581055,-1.14502 -1.589356,-1.14502 -1.008301,0 -1.589355,1.14502 -0.581055,1.14502 -0.581055,3.11889 0,1.97388 0.581055,3.1189 0.581054,1.14502 1.589355,1.14502 1.008301,0 1.589356,-1.14502 0.581054,-1.14502 0.581054,-3.1189 0,-1.97387 -0.581054,-3.11889 z m -2.315674,2.02514 1.452636,0 0,2.1875 -1.452636,0 0,-2.1875 z"
         style="font-size:17.5px"
         id="path4275"
         inkscape:connector-curvature="0" />
      <path
         d="m 92.626434,176.39505 q 0,-1.29028 0.914307,-2.03369 0.922852,-0.75195 2.503662,-0.75195 1.580811,0 2.495117,0.75195 0.922852,0.74341 0.922852,2.03369 0,0.40161 -0.213623,0.78613 -0.205078,0.38452 -0.504151,0.64942 -0.299072,0.25634 -0.598144,0.46997 -0.299072,0.20508 -0.512695,0.29907 l -0.205079,0.10254 q 0.094,0.0427 0.247803,0.12817 0.153809,0.0854 0.546875,0.37598 0.401611,0.28198 0.709229,0.59814 0.307617,0.30762 0.55542,0.79468 0.247802,0.48706 0.247802,0.98267 0,1.5039 -0.991211,2.37549 -0.991211,0.86303 -2.700195,0.86303 -1.708984,0 -2.700195,-0.86303 -0.991211,-0.87159 -0.991211,-2.37549 0,-0.49561 0.239258,-0.97412 0.239257,-0.48706 0.572509,-0.81177 0.341797,-0.33325 0.675049,-0.5896 0.341797,-0.25635 0.581055,-0.38452 l 0.239258,-0.11963 q -0.08545,-0.0342 -0.222168,-0.10254 -0.136719,-0.0684 -0.487061,-0.29907 -0.350342,-0.23072 -0.623779,-0.47852 -0.264893,-0.2478 -0.487061,-0.63232 -0.213623,-0.39307 -0.213623,-0.79468 z m 1.452637,0 q 0,0.29907 0.196533,0.5896 0.205078,0.28198 0.495606,0.47852 0.290527,0.19653 0.581054,0.35888 0.290528,0.15381 0.487061,0.23071 l 0.205078,0.0684 q 0.04273,-0.0171 0.111084,-0.0427 0.06836,-0.0256 0.273438,-0.11108 0.205078,-0.094 0.393066,-0.18799 0.187988,-0.10254 0.410156,-0.25635 0.230713,-0.15381 0.393067,-0.31616 0.162353,-0.16236 0.273437,-0.37598 0.111084,-0.21362 0.111084,-0.43579 0,-0.6665 -0.529785,-1.05103 -0.529785,-0.39306 -1.435547,-0.39306 -0.905762,0 -1.435547,0.39306 -0.529785,0.38453 -0.529785,1.05103 z m 1.965332,2.88818 q -0.04273,0.0171 -0.128174,0.0513 -0.0769,0.0342 -0.316162,0.15381 -0.230713,0.11963 -0.444336,0.25635 -0.205078,0.12817 -0.469971,0.3418 -0.256347,0.20507 -0.444335,0.4187 -0.179444,0.21362 -0.307618,0.50415 -0.128173,0.28198 -0.128173,0.57251 0,0.81177 0.598144,1.29028 0.60669,0.46997 1.640625,0.46997 1.033936,0 1.63208,-0.46997 0.60669,-0.47851 0.60669,-1.29028 0,-0.39307 -0.230713,-0.77759 -0.230713,-0.38452 -0.563965,-0.64941 -0.324707,-0.2649 -0.657959,-0.46998 -0.324707,-0.20507 -0.55542,-0.29907 l -0.230713,-0.10254 z"
         style="font-size:17.5px"
         id="path4277"
         inkscape:connector-curvature="0" />
      <path
         d="m 112.19431,173.01981 2.34985,0 0,1.45263 -2.34985,0 0,-1.45263 z m -1.65772,3.75976 3.73413,0 0,6.5625 2.55493,0 0,1.34155 -6.5625,0 0,-1.34155 2.55493,0 0,-5.22095 -2.28149,0 0,-1.34155 z"
         style="font-size:17.5px"
         id="path4279"
         inkscape:connector-curvature="0" />
      <path
         d="m 119.28659,173.74612 6.01563,0 0,1.34156 -2.2815,0 0,8.25439 2.2815,0 0,1.34155 -6.01563,0 0,-1.34155 2.28149,0 0,-8.25439 -2.28149,0 0,-1.34156 z"
         style="font-size:17.5px"
         id="path4281"
         inkscape:connector-curvature="0" />
      <path
         d="m 128.03659,173.74612 3.73413,0 0,9.59595 2.55493,0 0,1.34155 -6.5625,0 0,-1.34155 2.55493,0 0,-8.25439 -2.28149,0 0,-1.34156 z"
         style="font-size:17.5px"
         id="path4283"
         inkscape:connector-curvature="0" />
      <path
         d="m 136.78659,173.74612 1.45264,0 0,9.59595 4.83642,0 0,1.34155 -6.28906,0 0,-10.9375 z"
         style="font-size:17.5px"
         id="path4285"
         inkscape:connector-curvature="0" />
      <path
         d="m 148.5444,173.74612 1.45264,0 0,10.9375 -1.45264,0 0,-8.88671 -1.98242,1.98242 -1.02539,-1.02539 3.00781,-3.00782 z"
         style="font-size:17.5px"
         id="path4287"
         inkscape:connector-curvature="0" />
      <path
         d="m 168.69333,173.74612 -1.0083,0 q -0.7605,0 -1.20484,0.44434 -0.43579,0.43579 -0.43579,1.19629 l 0.13672,3.58032 -1.24756,0.13672 0,1.06812 1.24756,0.13671 -0.13672,3.58033 q -0.0256,0.75195 0.4187,1.19629 0.45289,0.44433 1.22193,0.44433 l 1.0083,0 0,1.34155 -1.0083,0 q -1.43555,0 -2.26441,-0.80322 -0.82885,-0.79468 -0.82885,-2.17895 l 0.34179,-3.58033 -2.71728,0 0,-1.34155 2.71728,0 -0.34179,-3.58032 q -0.12818,-1.3501 0.7434,-2.16187 0.88013,-0.82031 2.34986,-0.82031 l 1.0083,0 0,1.34155 z"
         style="font-size:17.5px"
         id="path4289"
         inkscape:connector-curvature="0" />
      <path
         d="m 172.14548,185.52957 1.0083,0 q 0.7605,0 1.19629,-0.44433 0.44433,-0.4358 0.44433,-1.19629 l -0.13672,-3.58033 1.24756,-0.13671 0,-1.06812 -1.24756,-0.13672 0.13672,-3.58032 q 0.0256,-0.75195 -0.42724,-1.19629 -0.44434,-0.44434 -1.21338,-0.44434 l -1.0083,0 0,-1.34155 1.0083,0 q 1.43554,0 2.2644,0.80322 0.82886,0.79468 0.82886,2.17896 l -0.3418,3.58032 2.71729,0 0,1.34155 -2.71729,0 0.3418,3.58033 q 0.12817,1.35009 -0.75195,2.16186 -0.87159,0.82031 -2.34131,0.82031 l -1.0083,0 0,-1.34155 z"
         style="font-size:17.5px"
         id="path4291"
         inkscape:connector-curvature="0" />
      <path
         d="m 194.94333,173.74612 -2.64893,0 0,11.78345 2.64893,0 0,1.34155 -4.10156,0 0,-14.46655 4.10156,0 0,1.34155 z"
         style="font-size:17.5px"
         id="path4293"
         inkscape:connector-curvature="0" />
      <path
         d="m 198.39548,185.52957 2.64892,0 0,-11.78345 -2.64892,0 0,-1.34155 4.10156,0 0,14.46655 -4.10156,0 0,-1.34155 z"
         style="font-size:17.5px"
         id="path4295"
         inkscape:connector-curvature="0" />
      <path
         d="m 218.92038,175.93362 0.71777,0 q 1.23047,0 1.70899,0.47852 0.47851,0.47852 0.47851,1.70898 l 0,5.53711 q 0,1.73462 -1.05102,2.50367 -1.05103,0.77758 -3.05054,0.77758 -0.45288,0 -0.86304,-0.0342 -0.41015,-0.0342 -0.5896,-0.0684 l -0.18798,-0.0342 0,-1.27319 1.64062,0 q 1.29883,0 1.97388,-0.43579 0.67505,-0.42725 0.67505,-1.43555 l 0,-1.16211 -2.34131,0 q -1.3501,0 -2.12769,-0.7434 -0.77759,-0.74341 -0.77759,-2.0337 0,-1.7517 1.01685,-2.76855 1.01685,-1.01685 2.7771,-1.01685 z m 0,1.34156 q -1.08521,0 -1.71753,0.65796 -0.62378,0.64941 -0.62378,1.78588 0,0.66651 0.38452,1.05103 0.39307,0.38452 1.06812,0.38452 l 2.34131,0 0,-3.03345 q 0,-0.39306 -0.19654,-0.61523 -0.19653,-0.23071 -0.53833,-0.23071 l -0.71777,0 z"
         style="font-size:17.5px"
         id="path4297"
         inkscape:connector-curvature="0" />
      <path
         d="m 227.2944,184.68362 -1.71753,0 2.7771,-4.375 q -0.40161,0.13672 -1.05957,0.13672 -1.58081,0 -2.50366,-0.9143 -0.91431,-0.92286 -0.91431,-2.50367 0,-1.58081 0.91431,-2.49511 0.92285,-0.92285 2.50366,-0.92285 1.58081,0 2.49512,0.92285 0.92285,0.9143 0.92285,2.49511 0,1.05957 -0.30762,2.15332 -0.29907,1.08521 -0.82031,1.90552 l -2.29004,3.59741 z m 0,-5.57983 q 1.11084,0 1.53809,-0.45288 0.42725,-0.45288 0.42725,-1.62354 0,-0.96557 -0.52979,-1.52099 -0.52979,-0.55542 -1.43555,-0.55542 -0.90576,0 -1.43554,0.55542 -0.52979,0.55542 -0.52979,1.52099 0,0.96558 0.52979,1.521 0.52978,0.55542 1.43554,0.55542 z"
         style="font-size:17.5px"
         id="path4299"
         inkscape:connector-curvature="0" />
      <path
         d="m 236.42038,175.93362 0.71777,0 q 1.23047,0 1.70899,0.47852 0.47851,0.47852 0.47851,1.70898 l 0,8.75 -1.45263,0 0,-4.375 -2.34131,0 q -1.3501,0 -2.12769,-0.7434 -0.77759,-0.74341 -0.77759,-2.0337 0,-1.7517 1.01685,-2.76855 1.01685,-1.01685 2.7771,-1.01685 z m 0,1.34156 q -1.08521,0 -1.71753,0.65796 -0.62378,0.64941 -0.62378,1.78588 0,0.66651 0.38452,1.05103 0.39307,0.38452 1.06812,0.38452 l 2.34131,0 0,-3.03345 q 0,-0.39306 -0.19654,-0.61523 -0.19653,-0.23071 -0.53833,-0.23071 l -0.71777,0 z"
         style="font-size:17.5px"
         id="path4301"
         inkscape:connector-curvature="0" />
      <path
         d="m 246.10178,173.67776 q 0.54687,0 1.03393,0.0342 0.49561,0.0342 0.71778,0.0684 l 0.22216,0.0342 0,1.2732 -1.97387,0 q -1.48682,0 -2.34986,1.11084 -0.85449,1.10229 -0.85449,3.01635 0,2.22168 0.81177,3.17872 0.82031,0.94848 2.39258,0.94848 l 1.97387,0 0,1.27319 q -0.75195,0.13672 -1.97387,0.13672 -1.13648,0 -1.98243,-0.28198 -0.8374,-0.29053 -1.46972,-0.92285 -0.63233,-0.63232 -0.95703,-1.71753 -0.31617,-1.0852 -0.31617,-2.61475 0,-2.56347 1.26465,-4.05029 1.2732,-1.48682 3.4607,-1.48682 z"
         style="font-size:17.5px"
         id="path4303"
         inkscape:connector-curvature="0" />
      <path
         d="m 254.63815,173.67776 q 0.57251,0 1.11939,0.0342 0.54687,0.0342 0.81177,0.0684 l 0.25634,0.0342 0,1.2732 -2.1875,0 q -1.60644,0 -2.4353,1.0852 -0.82886,1.08521 -0.82886,3.04199 0,1.15357 0.17945,1.98243 0.17944,0.82031 0.52978,1.29882 0.35889,0.47852 0.82886,0.70069 0.46997,0.21362 1.10229,0.21362 0.79468,0 1.21338,-0.21362 0.4187,-0.21363 0.4187,-0.70069 l 0,-3.03344 -2.10205,0 0,-1.34156 3.55469,0 0,4.375 q 0,1.21338 -0.78613,1.73462 -0.78614,0.52124 -2.29859,0.52124 -0.99975,0 -1.74316,-0.28198 -0.74341,-0.29053 -1.29883,-0.92285 -0.55542,-0.63232 -0.8374,-1.71753 -0.28198,-1.0852 -0.28198,-2.61475 0,-2.59765 1.23047,-4.06738 1.23901,-1.46973 3.55468,-1.46973 z"
         style="font-size:17.5px"
         id="path4305"
         inkscape:connector-curvature="0" />
      <path
         d="m 259.20114,174.74588 q 0.87158,-1.13647 3.09326,-1.13647 2.22168,0 3.09326,1.13647 0.87159,1.12793 0.87159,3.98193 0,2.61475 -0.72632,3.75122 -0.71777,1.13648 -2.51221,1.29883 l 0,2.24732 -1.45264,0 0,-2.24732 q -1.79443,-0.16235 -2.52075,-1.29883 -0.71777,-1.13647 -0.71777,-3.75122 0,-2.854 0.87158,-3.98193 z m 5.0586,1.03394 q -0.54688,-0.82886 -1.96534,-0.82886 -1.41845,0 -1.97387,0.82886 -0.54688,0.82031 -0.53833,2.94799 0.009,1.91407 0.43579,2.73438 0.43579,0.82031 1.52954,0.94849 l 0,-3.68287 1.09375,0 0,3.68287 q 1.09375,-0.12818 1.52954,-0.94849 0.43579,-0.82031 0.43579,-2.73438 0,-2.12768 -0.54687,-2.94799 z"
         style="font-size:17.5px"
         id="path4307"
         inkscape:connector-curvature="0" />
      <path
         d="m 275.96628,181.4451 q 0,-1.75171 0.21362,-2.73438 0.21362,-0.98266 0.68359,-1.41845 0.47852,-0.44434 1.33301,-0.44434 0.54688,0 0.94849,0.15381 0.40161,0.15381 0.61523,0.40161 0.21363,0.2478 0.35889,0.57251 0.15381,0.31616 0.20508,0.65796 0.0598,0.33325 0.12817,0.65796 0.0684,0.31616 0.13672,0.56396 0.0769,0.24781 0.23926,0.40161 0.1709,0.15381 0.42724,0.15381 0.63233,0 0.87159,-0.7434 0.2478,-0.75196 0.2478,-2.68311 l 1.24756,0 q 0,1.75171 -0.21362,2.73437 -0.21363,0.98267 -0.69214,1.41846 -0.46997,0.43579 -1.32447,0.43579 -0.54687,0 -0.94848,-0.15381 -0.40161,-0.1538 -0.61524,-0.40161 -0.21362,-0.2478 -0.36743,-0.56396 -0.14526,-0.32471 -0.20508,-0.65796 -0.0513,-0.3418 -0.11963,-0.65796 -0.0684,-0.32471 -0.14526,-0.57251 -0.0684,-0.2478 -0.23926,-0.40161 -0.16235,-0.15381 -0.4187,-0.15381 -0.63232,0 -0.88013,0.75195 -0.23925,0.75196 -0.23925,2.68311 l -1.24756,0 z"
         style="font-size:17.5px"
         id="path4309"
         inkscape:connector-curvature="0" />
      <path
         d="m 285.81003,178.53983 5.46875,0 0,1.35009 -5.46875,0 0,-1.35009 z"
         style="font-size:17.5px"
         id="path4311"
         inkscape:connector-curvature="0" />
      <path
         d="m 296.56808,175.38675 1.45264,0 0,3.15308 3.10181,0 0,1.35009 -3.10181,0 0,3.15308 -1.45264,0 0,-3.15308 -3.1018,0 0,-1.35009 3.1018,0 0,-3.15308 z"
         style="font-size:17.5px"
         id="path4313"
         inkscape:connector-curvature="0" />
      <path
         d="m 302.48972,176.77957 7.10937,0 0,1.34155 -7.10937,0 0,-1.34155 z m 0,3.52905 7.10937,0 0,1.34156 -7.10937,0 0,-1.34156 z"
         style="font-size:17.5px"
         id="path4315"
         inkscape:connector-curvature="0" />
      <path
         d="m 312.02585,183.71805 -0.78613,-1.22193 5.10131,-3.28125 -5.10131,-3.28125 0.78613,-1.22192 6.32324,4.06738 0,0.87159 -6.32324,4.06738 z"
         style="font-size:17.5px"
         id="path4317"
         inkscape:connector-curvature="0" />
    </g>
  </g>
</svg>
