<svg xmlns="http://www.w3.org/2000/svg" width="303.087" height="111.625" viewBox="0 0 284.144 104.648"><g font-weight="400" font-family="Anonymice Nerd Font" letter-spacing="0" word-spacing="0" fill="#fff"><g style="line-height:125%;text-decoration-line:underline" font-size="27.5" text-decoration="underline"><path d="M14.153 17.523h-1.974l-1.652-5.008H3.6l-1.625 5.008H0L5.828 0h2.497l5.828 17.523zm-4.15-6.633l-2.94-9.037-2.94 9.037h5.88zM27.688 17.523h-1.853v-7.72q0-1.68-.725-2.606-.725-.926-2.35-.926-1.02 0-1.853.47-.82.47-1.397 1.262-.577.779-.886 1.8-.295 1.006-.295 2.107v5.613h-1.84V5.01h1.84V8.15q1.33-3.438 4.74-3.438 4.619 0 4.619 5.09v7.72zM43.707 11.306q0 1.464-.47 2.659-.456 1.195-1.329 2.054-.86.846-2.068 1.33-1.208.483-2.699.483-1.464 0-2.672-.483-1.209-.484-2.081-1.33-.86-.86-1.33-2.054-.456-1.195-.456-2.659 0-1.423.456-2.645.47-1.235 1.33-2.095.872-.873 2.081-1.356 1.208-.497 2.672-.497 1.49 0 2.7.497 1.208.483 2.067 1.356.873.86 1.33 2.095.47 1.222.47 2.645zm-1.84 0q0-1.074-.322-1.974-.308-.913-.926-1.598Q40 7.05 39.115 6.66q-.873-.39-1.974-.39t-1.987.39q-.873.39-1.477 1.074-.604.685-.927 1.598-.309.9-.309 1.974 0 1.074.31 1.987.322.9.926 1.558.604.658 1.477 1.034.886.376 1.987.376t1.974-.376q.886-.376 1.504-1.034t.926-1.558q.323-.913.323-1.987zM57.766 17.523h-1.853v-7.72q0-1.68-.725-2.606-.725-.926-2.35-.926-1.02 0-1.853.47-.819.47-1.396 1.262-.578.779-.887 1.8-.295 1.006-.295 2.107v5.613h-1.84V5.01h1.84V8.15q1.33-3.438 4.74-3.438 4.62 0 4.62 5.09v7.72zM73.853 5.009l-6.768 15.683q-.524 1.316-1.477 1.719-.953.416-2.108.416-1.29 0-2.578-.47l.362-1.584q.631.268 1.236.376.604.12.98.12.913 0 1.249-.443.349-.443.604-1.047l.765-1.893-5.586-12.877h2.176l4.511 10.943L71.65 5.01h2.203zM88.502 17.523h-1.84V8.527q0-1.075-.375-1.665-.376-.591-1.088-.591-1.047 0-1.544 1.1-.484 1.102-.484 3.09v7.062h-1.853V8.527q0-1.075-.389-1.665-.376-.591-1.088-.591-.658 0-1.047.39-.39.389-.618.993-.215.604-.282 1.343-.067.738-.067 1.463v7.063h-1.84V5.01h1.84V6.82q.578-2.108 2.511-2.108 1.84 0 2.498 1.84.913-1.84 2.578-1.84 1.598 0 2.336.954.752.94.752 2.86v8.996zM98.533 2.511h-2.498V0h2.498v2.511zm2.497 15.012h-7.506v-1.57h2.833V6.58h-2.833V5.009h4.686v10.943h2.82v1.571zM118.11 15.133q-.792 1.235-2.175 1.974-1.37.725-3.263.725-1.464 0-2.685-.483-1.222-.484-2.095-1.343-.86-.873-1.343-2.068t-.483-2.659q0-1.423.443-2.632.443-1.221 1.262-2.08.82-.874 2-1.357 1.196-.497 2.646-.497.577 0 1.182.134.604.135 1.141.417.537.268.967.658.43.376.644.9V5.008h1.652v5.008h-1.652q0-.832-.309-1.517-.295-.685-.819-1.182-.523-.497-1.248-.765-.725-.282-1.558-.282-1.128 0-1.974.39-.832.389-1.396 1.06t-.86 1.584q-.282.9-.282 1.974 0 1.075.323 1.988.335.9.953 1.557.631.658 1.504 1.048.886.389 1.987.389 1.397 0 2.484-.55 1.088-.551 1.665-1.464l1.29.886zM122.944 11.91q.202 1.988 1.45 3.17 1.25 1.181 3.25 1.181 1.41 0 2.511-.577 1.101-.578 1.652-1.437l1.289.886q-.94 1.316-2.243 2.014-1.302.685-3.209.685-1.45 0-2.659-.483-1.208-.484-2.094-1.343-.873-.873-1.357-2.068-.483-1.195-.483-2.659 0-1.423.43-2.618.443-1.209 1.262-2.081.832-.887 2.014-1.37 1.182-.497 2.645-.497 1.598 0 2.793.537t1.988 1.49q.805.94 1.181 2.257.39 1.316.39 2.913h-10.81zm8.863-1.57q-.31-2.055-1.49-3.062-1.182-1.007-2.915-1.007-.886 0-1.638.295-.752.282-1.33.82-.577.536-.966 1.302-.39.752-.497 1.651h8.836zM163.04 17.523h-2.283L153.68 2.7v14.824h-1.84V0h2.592l6.755 14.14V0h1.853v17.523zM168.062 11.91q.2 1.988 1.45 3.17 1.249 1.181 3.25 1.181 1.41 0 2.51-.577 1.101-.578 1.652-1.437l1.289.886q-.94 1.316-2.243 2.014-1.302.685-3.209.685-1.45 0-2.658-.483-1.209-.484-2.095-1.343-.873-.873-1.356-2.068-.484-1.195-.484-2.659 0-1.423.43-2.618.443-1.209 1.262-2.081.833-.887 2.014-1.37 1.182-.497 2.646-.497 1.597 0 2.793.537 1.195.537 1.987 1.49.805.94 1.181 2.257.39 1.316.39 2.913h-10.81zm8.862-1.57q-.309-2.055-1.49-3.062-1.182-1.007-2.914-1.007-.887 0-1.639.295-.752.282-1.329.82-.577.536-.967 1.302-.39.752-.497 1.651h8.836zM193.09 6.768q-.993-.497-2.362-.497-1.128 0-2.015.483-.886.484-1.504 1.276-.617.779-.953 1.8-.322 1.006-.322 2.08v4.042h2.833v1.571h-7.506v-1.57h2.833V6.58h-2.833V5.009h4.673V8.15q1.262-3.438 4.794-3.438.953 0 1.651.121.712.12 1.316.43l-.604 1.504zM208.157 17.523h-1.853v-1.155q-.793.712-1.746 1.088-.94.376-1.933.376-1.491 0-2.673-.483-1.181-.484-2-1.343-.806-.873-1.25-2.081-.429-1.209-.429-2.646 0-1.423.43-2.632.443-1.221 1.249-2.08.819-.874 2-1.357 1.182-.497 2.673-.497.993 0 1.933.363.953.349 1.746 1.06V1.571h-2.498V0h4.35v17.523zm-1.853-9.6q-.793-.873-1.732-1.263-.927-.39-1.974-.39-1.101 0-1.947.39-.833.39-1.397 1.06-.564.672-.86 1.585-.281.9-.281 1.974 0 1.075.282 1.988.295.9.86 1.57.563.672 1.396 1.061.846.39 1.947.39 2.121 0 3.706-1.679V7.922zM238.235 1.571h-9.36v6.27h6.903v1.572h-6.902v8.11h-1.84V0h11.199v1.571zM254.254 11.306q0 1.464-.47 2.659-.456 1.195-1.33 2.054-.859.846-2.067 1.33-1.209.483-2.699.483-1.464 0-2.672-.483-1.209-.484-2.081-1.33-.86-.86-1.33-2.054-.456-1.195-.456-2.659 0-1.423.456-2.645.47-1.235 1.33-2.095.872-.873 2.08-1.356 1.21-.497 2.673-.497 1.49 0 2.699.497 1.208.483 2.068 1.356.873.86 1.33 2.095.47 1.222.47 2.645zm-1.84 0q0-1.074-.322-1.974-.309-.913-.926-1.598-.618-.684-1.504-1.074-.873-.39-1.974-.39t-1.987.39q-.873.39-1.477 1.074-.605.685-.927 1.598-.309.9-.309 1.974 0 1.074.31 1.987.321.9.926 1.558.604.658 1.477 1.034.886.376 1.987.376t1.974-.376q.886-.376 1.504-1.034.617-.658.926-1.558.323-.913.323-1.987zM268.313 17.523h-1.853v-7.72q0-1.68-.725-2.606-.725-.926-2.35-.926-1.02 0-1.853.47-.82.47-1.396 1.262-.578.779-.887 1.8-.295 1.006-.295 2.107v5.613h-1.84V5.01h1.84V8.15q1.33-3.438 4.74-3.438 4.619 0 4.619 5.09v7.72zM284.144 13.535q-.215 1.974-1.557 3.142-1.33 1.155-3.33 1.155-1.101 0-2.015-.363-.913-.362-1.557-1.007-.645-.644-1.007-1.544-.35-.913-.35-1.987V6.58h-2.833V5.009h2.834V0h1.84v5.009h5.33v1.57h-5.33v6.352q0 .685.214 1.289.228.604.618 1.06.403.457.967.726.563.255 1.289.255 1.37 0 2.282-.846.927-.86 1.061-2.216l1.544.336z"/></g><g style="line-height:125%" font-size="17.5"><path d="M3.337 55.37q0-.752.376-1.256.376-.513.983-.803.615-.3 1.401-.428.795-.136 1.615-.136.317 0 .564.009.257.009.479.025.23.017.461.043.231.025.504.06v-.573q0-.58-.256-.957-.248-.376-.615-.59-.368-.222-.77-.307-.4-.094-.683-.094-.888 0-1.64.24-.752.238-1.402.64l-.53-.88q.718-.436 1.607-.71.897-.281 1.965-.281.65 0 1.273.17.633.163 1.128.513.505.342.804.906.299.564.299 1.35v5.213H9.72V56.19q-.307.384-.7.675-.385.29-.812.478-.427.18-.854.274-.428.102-.812.102-1.581 0-2.393-.607-.812-.606-.812-1.743zm3.205 1.35q.735 0 1.316-.214.59-.222 1-.547.41-.324.632-.692.23-.367.23-.666v-.752q-.572-.086-1.102-.094-.521-.01-.906-.01-.632 0-1.222.086-.58.086-1.016.282-.436.188-.701.496-.265.308-.265.76 0 .505.487.932.496.419 1.547.419zM20.889 53.55q0 .914-.282 1.683-.282.77-.812 1.325-.521.546-1.265.854-.743.308-1.666.308-.65 0-1.248-.231-.59-.23-1.102-.684v.718h-1.17v-11.15h1.17v3.921q.513-.436 1.102-.675.599-.248 1.248-.248.923 0 1.666.316.744.308 1.265.864.53.546.812 1.324.282.769.282 1.675zm-1.188 0q0-.684-.18-1.256-.17-.581-.53-1.009-.358-.427-.897-.675-.53-.247-1.23-.247-1.35 0-2.35 1.068v4.255q.513.555 1.094.795.59.239 1.256.239.7 0 1.222-.248.53-.248.889-.675.358-.427.538-1 .188-.58.188-1.247zM30.16 56.002q-.504.786-1.384 1.256-.872.462-2.077.462-.931 0-1.709-.308-.777-.308-1.333-.854-.547-.556-.854-1.316-.308-.76-.308-1.692 0-.906.282-1.675.282-.778.803-1.324.522-.556 1.274-.864.76-.316 1.683-.316.367 0 .752.086.384.085.726.265.342.17.615.418.274.24.41.573v-1.154h1.052v3.188H29.04q0-.53-.197-.966-.188-.436-.521-.752t-.795-.487q-.461-.18-.991-.18-.718 0-1.256.248-.53.248-.889.675-.359.428-.547 1.009-.18.572-.18 1.256 0 .683.206 1.264.213.573.607.992.401.418.957.666.564.248 1.264.248.889 0 1.581-.35t1.06-.932l.82.564zM39.61 57.523h-1.179v-.735q-.504.453-1.11.692-.599.24-1.23.24-.95 0-1.701-.308-.752-.308-1.274-.854-.512-.556-.794-1.325-.274-.769-.274-1.683 0-.906.274-1.675.282-.778.794-1.324.522-.556 1.274-.864.752-.316 1.7-.316.632 0 1.23.231.607.222 1.111.675v-2.905h-1.589v-1h2.769v11.151zm-1.179-6.11q-.504-.555-1.102-.803-.59-.247-1.256-.247-.7 0-1.239.247-.53.248-.889.675-.359.428-.547 1.009-.179.572-.179 1.256 0 .683.18 1.264.187.573.546 1 .36.427.889.675.538.248 1.239.248 1.35 0 2.358-1.068v-4.255zM42.806 53.951q.129 1.265.923 2.017.795.752 2.068.752.897 0 1.598-.367.7-.368 1.051-.915l.82.564q-.598.838-1.427 1.282-.828.436-2.042.436-.923 0-1.692-.308-.769-.308-1.333-.854-.555-.556-.863-1.316-.307-.76-.307-1.692 0-.906.273-1.666.282-.77.803-1.325.53-.564 1.282-.872.752-.316 1.683-.316 1.017 0 1.778.342.76.342 1.264.949.513.598.752 1.435.248.838.248 1.854h-6.879zm5.64-1q-.196-1.307-.948-1.948-.752-.64-1.855-.64-.564 0-1.042.188-.479.179-.846.52-.368.343-.615.83-.248.478-.317 1.05h5.623zM59.17 50.56h-3.392v5.963h1.794v1h-4.777v-1h1.803V50.56h-1.803v-1h1.803q0-1.64.846-2.503.855-.872 2.572-.872.402 0 .675.026.282.025.479.06v1q-.248-.035-.521-.06-.265-.026-.633-.026-1.119 0-1.683.572-.555.564-.555 1.803h3.392v1zM68.322 57.438q0 .82-.282 1.46-.282.642-.795 1.086-.504.444-1.196.675-.684.24-1.53.24-1.188 0-2.025-.445-.829-.444-1.436-1.282l.82-.632q.368.555 1.06.931.692.376 1.581.376 1.213 0 1.914-.615.71-.607.71-1.76v-.855q-1.043.923-2.376.923-1.871 0-2.94-1.068-1.068-1.068-1.068-2.922 0-.906.274-1.666.282-.77.794-1.325.522-.564 1.265-.872.743-.316 1.675-.316.65 0 1.256.231.615.222 1.12.675v-.718h1.179v7.879zm-1.18-6.024q-.504-.556-1.11-.804-.599-.247-1.265-.247-.7 0-1.24.247-.529.248-.88.675-.35.428-.538 1.017-.18.581-.18 1.248 0 1.367.71 2.179.71.812 2.128.812.666 0 1.265-.248.606-.257 1.11-.82v-4.06zM77.892 57.523h-1.18V52.61q0-1.068-.46-1.658-.462-.59-1.496-.59-.65 0-1.18.3-.52.299-.888.803-.367.495-.564 1.145-.188.64-.188 1.341v3.572h-1.17v-11.15h1.17v5.186q.846-2.188 3.016-2.188 2.94 0 2.94 3.239v4.913zM84.694 47.97h-1.59v-1.598h1.59v1.598zm1.589 9.553h-4.777v-1h1.803V50.56h-1.803v-1h2.983v6.964h1.794v1zM95.853 47.97h-1.59v-1.598h1.59v1.598zm-3.392 12.928q-2.102 0-2.94-1.726l.898-.615q.307.65.803 1 .504.35 1.239.35.581 0 .974-.17.393-.163.615-.47.231-.308.325-.744.103-.436.103-1V50.56h-1.803v-1h2.973v7.964q0 1.538-.812 2.453-.803.922-2.375.922zM107.004 57.523h-1.666l-3.255-3.572-1.436 1.316v2.256h-1.17v-11.15h1.17v7.476l4.537-4.29h1.675l-3.99 3.658 4.135 4.306zM114.994 57.523h-4.777v-1h1.803v-9.151h-1.803v-1h2.982v10.151h1.795v1zM126.162 57.523h-1.17v-5.725q0-.684-.24-1.06-.24-.375-.692-.375-.666 0-.983.7-.307.7-.307 1.966v4.494h-1.18v-5.725q0-.684-.247-1.06-.24-.375-.692-.375-.42 0-.667.247-.248.248-.393.633-.137.384-.18.854-.042.47-.042.932v4.494h-1.17V49.56h1.17v1.154q.367-1.342 1.598-1.342 1.17 0 1.59 1.171.58-1.17 1.64-1.17 1.017 0 1.487.606.478.598.478 1.82v5.725zM135.314 57.523h-1.18V52.61q0-1.068-.46-1.658-.462-.59-1.496-.59-.65 0-1.18.3-.52.299-.888.803-.368.495-.564 1.145-.188.64-.188 1.341v3.572h-1.17V49.56h1.17v2q.846-2.188 3.016-2.188 2.94 0 2.94 3.239v4.913zM145.508 53.567q0 .931-.3 1.692-.29.76-.845 1.307-.547.538-1.316.846-.77.308-1.718.308-.931 0-1.7-.308-.77-.308-1.325-.846-.546-.547-.845-1.307-.291-.76-.291-1.692 0-.906.29-1.683.3-.787.846-1.333.556-.556 1.325-.864.769-.316 1.7-.316.949 0 1.718.316.769.308 1.316.864.555.546.846 1.333.299.777.299 1.683zm-1.17 0q0-.684-.206-1.256-.196-.581-.59-1.017-.393-.436-.957-.684-.555-.247-1.256-.247-.7 0-1.264.247-.556.248-.94.684-.385.436-.59 1.017-.196.572-.196 1.256 0 .683.196 1.265.205.572.59.99.384.42.94.659.564.239 1.264.239.701 0 1.256-.24.564-.239.957-.657.394-.419.59-.991.205-.582.205-1.265zM154.873 53.55q0 .931-.29 1.692-.291.76-.82 1.316-.522.546-1.265.854-.744.308-1.667.308-.632 0-1.23-.231-.59-.23-1.102-.684v3.905h-1.171V49.56h1.17v.734q1.086-.923 2.333-.923.923 0 1.667.308.743.299 1.264.863.53.555.82 1.333.291.769.291 1.675zm-1.17 0q0-.667-.189-1.248-.179-.59-.546-1.017-.368-.427-.906-.675-.53-.247-1.23-.247-.667 0-1.248.247-.573.248-1.085.804v4.272q.512.555 1.085.795.58.239 1.247.239.701 0 1.23-.248.54-.248.907-.675.367-.427.546-1 .188-.58.188-1.247zM156.48 53.55q0-.906.29-1.675.29-.778.812-1.333.521-.564 1.264-.863.752-.308 1.675-.308 1.24 0 2.324.923v-.735h1.18V60.71h-1.18v-3.905q-.504.453-1.102.684-.59.23-1.222.23-.923 0-1.675-.307-.743-.308-1.264-.854-.521-.556-.812-1.316-.29-.76-.29-1.692zm1.17 0q0 .666.18 1.247.188.573.555 1 .367.427.897.675.539.248 1.24.248.666 0 1.238-.24.581-.239 1.085-.794v-4.272q-.504-.556-1.085-.804-.572-.247-1.239-.247-.7 0-1.239.247-.53.248-.897.675-.367.428-.555 1.017-.18.581-.18 1.248zM173.578 50.679q-.632-.316-1.504-.316-.718 0-1.282.307-.564.308-.957.812-.393.496-.606 1.145-.206.64-.206 1.324v2.572h1.803v1h-4.776v-1h1.803V50.56h-1.803v-1h2.973v2q.804-2.188 3.051-2.188.607 0 1.051.077.453.077.837.274l-.384.957zM183.37 55.319q0 .7-.35 1.162-.35.461-.906.735-.547.273-1.23.384-.675.12-1.325.12-1.085 0-2.162-.316-1.076-.317-1.862-.83l.52-1.008q.881.556 1.736.855.854.299 1.768.299 2.64 0 2.64-1.367 0-.333-.221-.539-.214-.213-.582-.341-.367-.137-.845-.214-.47-.077-.992-.145-.666-.094-1.324-.222-.658-.129-1.205-.385-.538-.256-.872-.684-.324-.427-.324-1.127 0-.599.299-1.034.307-.436.812-.727.512-.29 1.196-.427.683-.137 1.418-.137 1.051 0 1.88.248.83.24 1.496.692l-.47.915q-.684-.479-1.385-.667-.7-.196-1.52-.196-.368 0-.821.068-.444.06-.829.222-.384.154-.65.41-.256.248-.256.633 0 .333.214.538.222.196.59.333.367.128.837.205.479.077 1 .146.65.094 1.307.222.667.128 1.205.376.547.247.88.675.333.427.333 1.128zM193.24 54.985q-.137 1.256-.991 2-.846.735-2.12.735-.7 0-1.281-.231-.581-.23-.992-.64-.41-.411-.64-.984-.223-.58-.223-1.264v-4.042h-1.803v-1h1.803v-3.187h1.171v3.187h3.392v1h-3.392v4.042q0 .436.137.82.145.385.393.675.256.29.615.462.359.162.82.162.872 0 1.453-.538.59-.547.675-1.41l.983.213zM195.18 49.56h1.17v4.921q0 1.068.462 1.658.47.581 1.503.581.65 0 1.171-.3.521-.298.889-.794.367-.504.555-1.145.197-.65.197-1.35V49.56h1.179v7.964h-1.18v-1.99q-.837 2.187-3.007 2.187-2.94 0-2.94-3.239V49.56zM212.56 49.56l-3.452 7.963h-1.573l-3.469-7.964h1.402l2.854 6.982 2.836-6.982h1.402zM222.13 49.56l-1.615 7.963h-1.367l-1.273-5.845-1.205 5.845h-1.367l-1.632-7.964h1.247l1.154 6.375 1.239-6.375h1.162l1.273 6.375 1.154-6.375h1.23zM231.624 57.523h-3.29V56.49h.7l-1.572-2.307-1.555 2.307h.64v1.034h-3.246V56.49h1.239l2.187-3.008-2.102-2.87h-1.153v-1.052h3.272v1.051h-.734l1.452 2.17 1.47-2.17h-.803v-1.05h3.307v1.05h-1.12l-2.102 2.871 2.188 3.008h1.222v1.034zM241.254 49.56l-4.307 9.98q-.333.837-.94 1.094-.607.264-1.341.264-.82 0-1.641-.299l.23-1.008q.402.171.787.24.384.076.624.076.58 0 .794-.282.222-.282.385-.666l.487-1.205-3.555-8.195h1.384l2.871 6.964 2.82-6.964h1.402zM250.192 57.523h-7.178v-1l5.426-5.964h-4.41v2.188h-.999v-3.188h6.964v1l-5.426 5.964h4.623v-2.187h1v3.187zM11.857 79.398H10.6L9.55 76.211H5.14l-1.034 3.187H2.85l3.709-11.15h1.59l3.708 11.15zm-2.64-4.221l-1.872-5.75-1.871 5.75h3.742zM20.872 76.21q0 1.599-1.034 2.394-1.034.794-2.94.794h-3.554v-11.15h3.358q.7 0 1.375.119.675.11 1.205.427.539.316.872.88.333.555.333 1.461 0 1.735-1.735 2.367 2.12.65 2.12 2.709zm-1.556-5.075q0-.59-.247-.965-.248-.376-.633-.573-.384-.205-.846-.273-.461-.077-.888-.077h-2.188v3.785h2.188q.478 0 .94-.068.461-.077.828-.282.368-.214.607-.581.24-.368.24-.966zm.385 5.076q0-1.154-.752-1.675-.743-.53-2.05-.53h-2.385v4.392h2.384q1.308 0 2.051-.546.752-.556.752-1.641zM30.527 76.476q-.435 1.435-1.427 2.281-.99.838-2.495.838-1.17 0-1.982-.479-.812-.487-1.333-1.282-.513-.794-.744-1.837-.222-1.042-.222-2.162 0-1.119.222-2.161.231-1.043.744-1.846.521-.803 1.333-1.282.812-.487 1.982-.487 1.034 0 1.769.368.735.367 1.085 1.119v-1.299h1v3.657h-1q0-.59-.23-1.11-.223-.53-.607-.915-.385-.384-.914-.598-.522-.222-1.103-.222-.906 0-1.504.427-.59.427-.948 1.12-.36.692-.513 1.538-.145.845-.145 1.691 0 .838.145 1.692.154.846.513 1.53.359.675.948 1.11.598.428 1.504.428 2.085 0 2.906-2.52l1.016.4zM40.397 73.835q0 1.12-.24 2.137-.23 1.008-.751 1.777-.513.76-1.333 1.205-.812.444-1.966.444h-3.623v-11.15h3.623q1.137 0 1.948.46.82.453 1.333 1.222.522.77.76 1.778.249 1.008.249 2.127zm-1.17 0q0-2.187-.83-3.383-.82-1.205-2.29-1.205h-2.452v9.151h2.452q1.47 0 2.29-1.187.83-1.188.83-3.376zM49.18 79.398h-7.126v-11.15h7.127v.999h-5.956v3.99h4.392v1h-4.392v4.161h5.956v1zM58.751 69.247h-5.956v3.99h4.393v1h-4.393v5.161h-1.17v-11.15h7.126v.999zM69.176 73.853q0 1.136-.24 2.17-.23 1.034-.751 1.829-.513.794-1.333 1.273-.812.47-1.966.47-1.17 0-1.982-.479-.812-.487-1.333-1.282-.513-.794-.743-1.837-.223-1.042-.223-2.162 0-1.119.223-2.161.23-1.043.743-1.846.521-.803 1.333-1.282.812-.487 1.982-.487 1.034 0 1.77.368.734.367 1.084 1.119v-1.299h1v3.657h-1q0-.606-.23-1.128-.222-.53-.607-.905-.384-.376-.914-.59-.521-.222-1.103-.222-.905 0-1.503.427-.59.427-.949 1.12-.359.692-.513 1.538-.145.845-.145 1.691 0 .838.145 1.692.154.846.513 1.53.359.675.949 1.11.598.428 1.503.428 1.35 0 2.128-1.043.778-1.042.923-2.93h-2.47v-1h3.709v.23zM77.892 79.398h-1.18v-5.16h-4.776v5.16h-1.17v-11.15h1.17v4.99h4.777v-4.99h1.179v11.15zM86.283 79.398h-4.777v-1h1.803v-9.151h-1.803v-1h4.777v1h-1.794v9.151h1.794v1zM97.032 75.143q0 2.119-.905 3.29-.898 1.162-2.752 1.162-1.487 0-2.495-.778-1.008-.786-1.41-2.341l1.017-.385q.367 1.385 1.094 1.949.726.555 1.794.555.786 0 1.273-.316.496-.316.752-.803.265-.496.36-1.103.093-.615.093-1.23v-6.896h1.18v6.896zM106.97 79.398h-1.435l-3.709-5.46-1.179 1.316v4.144h-1.17v-11.15h1.17v5.425l4.777-5.426h1.546l-4.375 4.87 4.375 6.281zM116.173 79.398h-7.126v-11.15h1.17v10.15h5.956v1zM125.743 79.398h-1.179V70.11l-1.974 5.75h-.837l-1.965-5.75v9.288h-1.171v-11.15h1.52l2.035 5.827 2.05-5.828h1.521v11.151zM135.314 79.398h-1.453l-4.503-9.433v9.433h-1.17v-11.15h1.648l4.299 8.997v-8.998h1.179v11.151zM145.602 73.835q0 1.12-.23 2.162-.232 1.043-.736 1.837-.504.795-1.324 1.282-.812.479-1.983.479-1.17 0-1.99-.479-.812-.487-1.325-1.282-.504-.794-.726-1.837-.231-1.042-.231-2.162 0-1.119.23-2.161.223-1.043.735-1.846.522-.803 1.333-1.282.82-.487 1.974-.487t1.966.487q.82.479 1.324 1.282.504.803.744 1.846.239 1.042.239 2.161zm-1.18 0q0-1.102-.213-1.982-.205-.889-.598-1.512-.393-.624-.974-.949-.573-.333-1.308-.333-.914 0-1.512.427-.59.427-.949 1.12-.358.692-.504 1.538-.136.845-.136 1.691 0 .838.136 1.692.146.846.504 1.53.36.675.949 1.11.598.428 1.512.428.906 0 1.504-.427.598-.436.957-1.111.36-.684.496-1.53.137-.854.137-1.692zM154.856 71.434q0 1.615-1.008 2.401-1.009.787-2.829.787h-2.52v4.776h-1.171v-11.15h3.674q1.837 0 2.846.802 1.008.795 1.008 2.384zm-1.17 0q0-1.153-.727-1.666-.726-.521-1.94-.521h-2.52v4.375h2.52q1.214 0 1.94-.513.726-.521.726-1.675zM164.742 73.835q0 1.069-.205 2.06-.196.982-.65 1.76-.443.778-1.161 1.29-.718.504-1.735.607.197 1.145.786 1.58.598.437 1.752.437.3 0 .504-.01.214-.008.41-.025v1q-.247.017-.478.025-.222.01-.436.01-1.743 0-2.632-.744-.88-.743-1.076-2.29-.94-.12-1.633-.607-.692-.495-1.136-1.256-.436-.76-.64-1.743-.214-.991-.214-2.094 0-1.119.23-2.161.222-1.043.735-1.846.521-.803 1.333-1.282.82-.487 1.974-.487t1.965.487q.82.479 1.325 1.282.504.803.743 1.846.24 1.042.24 2.161zm-1.179 0q0-.846-.145-1.691-.145-.846-.496-1.539-.35-.692-.957-1.119-.606-.427-1.495-.427-.914 0-1.512.427-.59.427-.949 1.12-.359.692-.504 1.538-.137.845-.137 1.691 0 2.222.803 3.495.812 1.265 2.299 1.265 1.47 0 2.281-1.265.812-1.273.812-3.495zM174.116 79.398h-1.487l-3.255-4.776h-1.735v4.776h-1.17v-11.15h3.674q1.837 0 2.845.802 1.009.795 1.009 2.384 0 .701-.248 1.265-.248.555-.675.948-.428.394-1.026.633-.59.239-1.29.29l3.358 4.828zm-1.333-7.964q0-1.136-.709-1.657-.7-.53-1.931-.53h-2.504v4.375h2.504q1.23 0 1.931-.513.71-.521.71-1.675zM183.302 76.493q0 .7-.29 1.273-.291.564-.778.974-.487.41-1.12.633-.632.222-1.315.222-.94 0-1.726-.35-.787-.351-1.248-1.035v1.188h-.991v-3.392h.991q0 .572.265 1.05.265.47.675.813.41.341.94.538.538.188 1.094.188.495 0 .914-.137.419-.145.735-.401.316-.265.495-.641.188-.376.188-.855 0-.538-.239-.923-.23-.384-.632-.658-.393-.273-.889-.461-.496-.196-1.008-.384-.607-.214-1.214-.445-.606-.24-1.085-.598-.478-.359-.777-.872-.3-.52-.3-1.29 0-.683.291-1.213.29-.539.76-.906.47-.367 1.094-.555.624-.197 1.282-.197.812 0 1.495.333.693.334 1.077 1.017v-1.162h1.034v3.187h-1.034q0-.504-.214-.94-.205-.444-.563-.752-.36-.316-.82-.495-.462-.188-.975-.188-.453 0-.863.102-.41.103-.718.334-.307.222-.495.58-.18.36-.18.855 0 .436.214.744.222.307.59.546.367.231.845.428l.992.384q.632.222 1.256.496.623.273 1.12.658.495.384.81.948.317.556.317 1.359zM193.154 72.015h-1v-2.768h-2.392v9.151h1.794v1h-4.776v-1h1.803v-9.151h-2.393v2.768h-1v-3.768h7.964v3.768zM202.306 75.425q0 .948-.214 1.717-.205.77-.65 1.316-.435.539-1.11.838-.675.299-1.598.299-.931 0-1.606-.3-.667-.298-1.103-.837-.427-.547-.64-1.324-.206-.778-.206-1.726v-7.16h1.171v7.177q0 .504.086 1.068.094.564.35 1.025.265.462.726.77.47.307 1.222.307t1.222-.308q.479-.307.735-.769.265-.461.35-1.025.086-.564.086-1.068v-7.178h1.179v7.178zM212.833 68.247l-3.725 11.151h-1.59l-3.691-11.15h1.239l3.256 9.962 3.238-9.963h1.273zM222.404 68.247l-2.008 11.151h-1.385l-1.136-5.443-1.154 5.443h-1.367l-1.991-11.15h1.24l1.571 9.176 1.12-5.99h1.153l1.128 5.99 1.572-9.177h1.257zM231.624 79.398h-3.162v-1h.752l-1.752-3.657-1.769 3.657h.752v1h-3.17v-1h1.085l2.419-4.614-2.376-4.537h-.931v-1h3.187v1h-.931l1.734 3.572 1.684-3.572h-.898v-1h3.188v1h-.966l-2.324 4.537 2.392 4.614h1.086v1zM241.177 69.247h-.906l-2.657 5.34v3.811h1.794v1h-4.777v-1h1.803v-3.81l-2.657-5.341h-.906v-1h3.145v1h-.923l1.94 4.204 1.922-4.204h-.923v-1h3.145v1zM250.192 79.398h-7.161v-1l5.605-9.151h-4.605v2.734h-1v-3.734h6.981v1l-5.545 9.151h4.725v-2.777h1v3.777zM11.523 97.317q0 .931-.299 1.692-.29.76-.846 1.307-.546.538-1.315.846-.77.308-1.718.308-.931 0-1.7-.308-.77-.308-1.325-.846-.547-.547-.846-1.307-.29-.76-.29-1.692 0-.906.29-1.683.3-.787.846-1.333.555-.556 1.325-.864.769-.316 1.7-.316.948 0 1.718.316.769.308 1.315.864.556.546.846 1.333.3.777.3 1.683zm-1.17 0q0-.684-.205-1.256-.197-.581-.59-1.017-.393-.436-.957-.684-.555-.247-1.256-.247-.7 0-1.265.247-.555.248-.94.684-.384.436-.59 1.017-.196.572-.196 1.256 0 .683.197 1.265.205.572.59.99.384.42.94.659.563.239 1.264.239.7 0 1.256-.24.564-.239.957-.657.393-.419.59-.991.205-.582.205-1.265zM21.188 95.71q0 1.12-.231 2.162-.23 1.043-.735 1.837-.504.795-1.324 1.282-.812.479-1.983.479-1.17 0-1.99-.479-.812-.487-1.325-1.282-.504-.794-.726-1.837-.231-1.042-.231-2.162 0-1.119.23-2.161.223-1.043.735-1.846.522-.803 1.333-1.282.82-.487 1.974-.487t1.966.487q.82.479 1.324 1.282.504.803.743 1.846.24 1.042.24 2.161zm-1.18 0q0-1.102-.213-1.982-.205-.889-.598-1.512-.393-.624-.974-.949-.573-.333-1.308-.333-.914 0-1.512.427-.59.427-.949 1.12-.359.692-.504 1.538-.137.845-.137 1.691 0 .838.137 1.692.145.846.504 1.53.36.675.949 1.11.598.428 1.512.428.906 0 1.504-.427.598-.436.957-1.111.36-.684.496-1.53.137-.854.137-1.692zM23.384 95.71q0 1.24.299 2.325l5.22-5.512q-.41-.769-1.016-1.179-.598-.41-1.401-.41-1.504 0-2.308 1.282-.794 1.273-.794 3.494zm.7 3.273q.846 1.504 2.402 1.504 1.47 0 2.281-1.273.812-1.282.812-3.504 0-.615-.077-1.162-.077-.555-.214-1.06l-5.204 5.495zm-1.87-3.273q0-1.119.238-2.161.24-1.043.744-1.846.504-.803 1.316-1.282.82-.487 1.974-.487 1.153 0 1.965.487.82.479 1.333 1.282t.743 1.846q.231 1.042.231 2.161 0 1.12-.23 2.162-.231 1.043-.736 1.837-.504.795-1.324 1.282-.812.479-1.982.479-1.171 0-1.991-.479-.812-.487-1.325-1.282-.504-.794-.726-1.837-.23-1.042-.23-2.162zM40.115 98.137q0 .88-.316 1.504-.317.615-.872 1.025-.547.41-1.29.607-.744.197-1.581.197-.855 0-1.59-.197-.734-.196-1.29-.607-.547-.41-.863-1.025-.316-.624-.316-1.504 0-.453.162-.914.171-.462.479-.855.316-.401.76-.658.453-.264.992-.333-.47-.051-.838-.307-.367-.257-.624-.599-.247-.341-.393-.743-.136-.402-.136-.769 0-.752.299-1.316.299-.572.803-.948t1.17-.564q.667-.197 1.385-.197t1.384.197q.667.188 1.17.564.505.376.804.948.3.564.3 1.316 0 .367-.146.769-.137.402-.393.743-.248.342-.624.599-.376.256-.854.307.546.069.99.333.445.257.761.658.316.393.487.855.18.461.18.914zm-1.573-5.178q0-.94-.666-1.478-.667-.547-1.82-.547-1.154 0-1.82.547-.667.538-.667 1.478 0 .88.633 1.401.632.522 1.854.522t1.854-.522q.632-.52.632-1.401zm.402 5.178q0-.606-.24-1.034-.23-.436-.64-.7-.402-.274-.914-.393-.513-.129-1.094-.129-.581 0-1.094.129-.513.12-.923.393-.401.264-.64.7-.231.428-.231 1.034 0 .598.23 1.034.24.436.641.726.41.291.923.436.513.137 1.094.137.581 0 1.094-.137.512-.145.914-.436.41-.29.64-.726.24-.436.24-1.034zM55.983 91.72h-1.59v-1.598h1.59v1.598zm1.589 9.553h-4.777v-1h1.803V94.31h-1.803v-1h2.983v6.964h1.794v1zM67.142 101.273h-4.776v-1h1.803v-9.151h-1.803v-1h4.776v1h-1.794v9.151h1.794v1zM76.713 101.273h-4.777v-1h1.803v-9.151h-1.803v-1h2.982v10.151h1.795v1zM87.462 101.273h-7.126v-11.15h1.17v10.15h5.956v1zM95.853 101.273h-4.776v-1h1.803V92.66q-.154.35-.487.752-.334.393-.787.726-.452.325-1 .547-.538.222-1.119.222v-1.213q.522 0 1.12-.325.598-.325 1.102-.829.504-.504.837-1.145.334-.64.334-1.273h1.179v10.151h1.794v1zM114.977 104.46h-.786q-.522 0-.966-.188-.436-.179-.752-.495-.307-.316-.487-.76-.17-.445-.17-.975V98.42q0-1.435-1.599-1.435v-.957q1.598 0 1.598-1.436v-3.674q0-.53.171-.966.18-.436.487-.752.316-.316.752-.487.444-.18.966-.18h.786v.95h-.786q-1.453 0-1.453 1.435v3.674q0 .29-.111.607-.111.316-.308.59-.188.273-.461.478-.274.196-.59.248.316.051.581.247.265.188.462.462.205.273.316.59.111.307.111.606v3.623q0 1.453 1.453 1.453h.786v.965zM124.547 96.984q-1.572 0-1.572 1.435v3.64q0 .53-.18.966-.17.436-.495.76-.325.325-.76.496-.436.18-.958.18h-.794v-.966h.794q1.427 0 1.427-1.436v-3.64q0-.299.111-.615.12-.325.317-.598.205-.274.478-.453.273-.188.59-.24-.317-.068-.598-.256-.282-.196-.479-.47-.188-.273-.308-.59-.11-.315-.11-.606v-3.674q0-1.436-1.428-1.436h-.794v-.948h.794q.522 0 .957.188.436.18.76.495.326.316.496.752.18.436.18.949v3.674q0 1.436 1.572 1.436v.957zM143.705 104.46h-3.179V88.533h3.179v.948h-2.239v14.014h2.239v.965zM151.686 104.46h-3.187v-.965h2.247V89.48h-2.247v-.948h3.187v15.927zM173.595 101.188q0 .82-.282 1.46-.282.642-.795 1.086-.504.444-1.196.675-.684.24-1.53.24-1.187 0-2.025-.445-.829-.444-1.435-1.282l.82-.632q.368.555 1.06.931.692.376 1.58.376 1.214 0 1.915-.615.709-.607.709-1.76v-.855q-1.043.923-2.376.923-1.871 0-2.94-1.068-1.067-1.068-1.067-2.922 0-.906.273-1.666.282-.77.795-1.325.521-.564 1.264-.872.744-.316 1.675-.316.65 0 1.256.231.616.222 1.12.675v-.718h1.179v7.879zm-1.18-6.024q-.503-.556-1.11-.804-.598-.247-1.265-.247-.7 0-1.239.247-.53.248-.88.675-.35.428-.538 1.017-.18.581-.18 1.248 0 1.367.71 2.179.709.812 2.127.812.667 0 1.265-.248.607-.257 1.11-.82v-4.06zM175.424 93.925q0-.932.307-1.667.308-.735.846-1.247.547-.522 1.29-.795.744-.282 1.607-.282 1.17 0 1.982.487.812.479 1.3 1.282.495.803.708 1.837.223 1.034.223 2.153 0 1.137-.3 2.18-.299 1.042-.888 1.845-.581.803-1.478 1.282-.89.47-2.06.47-1.658 0-2.76-1.162l.77-.684q.384.427.888.64.513.206 1.102.206.897 0 1.572-.342.684-.342 1.145-.948.47-.616.693-1.47.23-.863.23-1.897-.136.436-.461.82-.325.385-.76.667-.436.282-.958.453-.512.162-1.008.162-.872 0-1.606-.299-.735-.3-1.265-.82-.521-.53-.82-1.265-.3-.735-.3-1.606zm1.179 0q0 .632.188 1.187.196.547.555.949.36.401.88.632.53.222 1.188.222.65 0 1.188-.205.547-.213.931-.59.385-.375.59-.905.213-.538.213-1.188 0-.632-.179-1.188-.17-.564-.53-.99-.35-.428-.888-.667-.53-.248-1.265-.248-.632 0-1.162.213-.521.206-.906.59-.385.385-.598.949-.205.555-.205 1.239zM185.19 97.3q0-.906.291-1.675.29-.778.812-1.333.521-.564 1.264-.863.752-.308 1.675-.308 1.24 0 2.324.923v-.735h1.18v11.151h-1.18v-3.905q-.504.453-1.102.684-.59.23-1.222.23-.923 0-1.675-.307-.743-.308-1.264-.854-.522-.556-.812-1.316-.29-.76-.29-1.692zm1.171 0q0 .666.18 1.247.188.573.555 1 .367.427.897.675.539.248 1.24.248.666 0 1.238-.24.581-.239 1.085-.794v-4.272q-.504-.556-1.085-.804-.572-.247-1.239-.247-.7 0-1.239.247-.53.248-.897.675-.367.428-.555 1.017-.18.581-.18 1.248zM202.793 98.35q-.436 1.436-1.427 2.282-.991.838-2.495.838-1.17 0-1.983-.479-.811-.487-1.333-1.282-.512-.794-.743-1.837-.222-1.042-.222-2.162 0-1.119.222-2.161.23-1.043.743-1.846.522-.803 1.333-1.282.812-.487 1.983-.487 1.034 0 1.769.368.735.367 1.085 1.119v-1.299h1v3.657h-1q0-.59-.23-1.11-.223-.53-.608-.915-.384-.384-.914-.598-.521-.222-1.102-.222-.906 0-1.504.427-.59.427-.949 1.12-.358.692-.512 1.538-.145.845-.145 1.691 0 .838.145 1.692.154.846.512 1.53.36.675.949 1.11.598.428 1.504.428 2.085 0 2.905-2.52l1.017.4zM212.73 95.728q0 1.136-.239 2.17-.23 1.034-.751 1.829-.513.794-1.333 1.273-.812.47-1.966.47-1.17 0-1.982-.479-.812-.487-1.333-1.282-.513-.794-.744-1.837-.222-1.042-.222-2.162 0-1.119.222-2.161.231-1.043.744-1.846.521-.803 1.333-1.282.812-.487 1.982-.487 1.034 0 1.769.368.735.367 1.085 1.119v-1.299h1v3.657h-1q0-.606-.23-1.128-.223-.53-.607-.905-.385-.376-.915-.59-.52-.222-1.102-.222-.906 0-1.504.427-.59.427-.948 1.12-.36.692-.513 1.538-.145.845-.145 1.691 0 .838.145 1.692.154.846.513 1.53.359.675.948 1.11.598.428 1.504.428 1.35 0 2.128-1.043.777-1.042.923-2.93h-2.47v-1h3.709v.23zM222.164 95.71q0 1.069-.205 2.06-.196.982-.65 1.76-.444.778-1.161 1.29-.718.504-1.735.607.197 1.145.786 1.58.598.437 1.752.437.299 0 .504-.01.214-.008.41-.025v1q-.248.017-.478.025-.222.01-.436.01-1.743 0-2.632-.744-.88-.743-1.077-2.29-.94-.12-1.632-.607-.692-.495-1.136-1.256-.436-.76-.641-1.743-.214-.991-.214-2.094 0-1.119.231-2.161.222-1.043.735-1.846.521-.803 1.333-1.282.82-.487 1.974-.487 1.153 0 1.965.487.82.479 1.325 1.282.504.803.743 1.846.24 1.042.24 2.161zm-1.179 0q0-.846-.145-1.691-.145-.846-.496-1.539-.35-.692-.957-1.119-.606-.427-1.495-.427-.914 0-1.513.427-.59.427-.948 1.12-.359.692-.504 1.538-.137.845-.137 1.691 0 2.222.803 3.495.812 1.265 2.299 1.265 1.47 0 2.281-1.265.812-1.273.812-3.495zM238.605 98.086q.316 0 .53-.197.222-.205.358-.555.146-.35.231-.837.094-.496.162-1.051l1.154.12q-.051.768-.24 1.426-.179.658-.478 1.137-.299.478-.735.76-.435.282-.982.282-.521 0-.88-.196-.36-.205-.607-.505-.24-.299-.427-.64-.18-.342-.36-.633-.17-.299-.384-.495-.213-.205-.504-.205-.316 0-.538.205-.214.196-.36.547-.136.35-.23.828-.085.479-.154 1.043l-1.153-.128q.051-.752.23-1.41.189-.667.488-1.145.299-.487.726-.76.427-.283.991-.283.521 0 .88.205.36.197.607.496.256.29.436.64.188.351.359.65.18.3.376.504.205.197.504.197zM250.576 97.684h-7.964v-1h7.964v1zM260.146 97.684h-3.486v3.478h-.991v-3.478h-3.486v-1h3.486v-3.477h.991v3.478h3.486v1zM269.717 95.813h-7.964v-1.017h7.964v1.017zm0 3.76h-7.964v-1h7.964v1zM277.587 97.189l-4.375 4.375-.667-.675 3.692-3.7-3.692-3.692.667-.683 4.375 4.375z"/></g></g></svg>