<?xml version="1.0" encoding="UTF-8" standalone="no"?>
<!-- Created with Inkscape (http://www.inkscape.org/) -->

<svg
   xmlns:dc="http://purl.org/dc/elements/1.1/"
   xmlns:cc="http://creativecommons.org/ns#"
   xmlns:rdf="http://www.w3.org/1999/02/22-rdf-syntax-ns#"
   xmlns:svg="http://www.w3.org/2000/svg"
   xmlns="http://www.w3.org/2000/svg"
   xmlns:sodipodi="http://sodipodi.sourceforge.net/DTD/sodipodi-0.dtd"
   xmlns:inkscape="http://www.inkscape.org/namespaces/inkscape"
   width="80.191833mm"
   height="29.534113mm"
   viewBox="0 0 284.14429 104.64843"
   id="svg2"
   version="1.1"
   inkscape:version="0.91 r13725"
   sodipodi:docname="Anonymice Nerd Font.svg">
  <defs
     id="defs4" />
  <sodipodi:namedview
     id="base"
     pagecolor="#ffffff"
     bordercolor="#666666"
     borderopacity="1.0"
     inkscape:pageopacity="0.0"
     inkscape:pageshadow="2"
     inkscape:zoom="0.7"
     inkscape:cx="-52.064911"
     inkscape:cy="-401.44619"
     inkscape:document-units="px"
     inkscape:current-layer="layer1"
     showgrid="false"
     inkscape:window-width="1861"
     inkscape:window-height="1056"
     inkscape:window-x="59"
     inkscape:window-y="24"
     inkscape:window-maximized="1" />
  <metadata
     id="metadata7">
    <rdf:RDF>
      <cc:Work
         rdf:about="">
        <dc:format>image/svg+xml</dc:format>
        <dc:type
           rdf:resource="http://purl.org/dc/dcmitype/StillImage" />
        <dc:title />
      </cc:Work>
    </rdf:RDF>
  </metadata>
  <g
     inkscape:label="Layer 1"
     inkscape:groupmode="layer"
     id="layer1"
     transform="translate(-62.064907,-83.410439)">
    <g
       style="font-style:normal;font-weight:normal;font-size:27.5px;line-height:125%;font-family:'Anonymice Nerd Font';text-decoration: underline;text-decoration-line: underline;letter-spacing:0px;word-spacing:0px;fill:#ffffff;fill-opacity:1;stroke:none;stroke-width:1px;stroke-linecap:butt;stroke-linejoin:miter;stroke-opacity:1"
       id="text4136">
      <path
         d="m 76.217739,100.93363 -1.973877,0 -1.651611,-5.008543 -6.928711,0 -1.624756,5.008543 -1.973877,0 5.827637,-17.523191 2.497558,0 5.827637,17.523191 z m -4.14917,-6.633299 -2.940674,-9.036865 -2.940673,9.036865 5.881347,0 z"
         id="path4140"
         inkscape:connector-curvature="0" />
      <path
         d="m 89.752895,100.93363 -1.853027,0 0,-7.720945 q 0,-1.678467 -0.725098,-2.604981 -0.725097,-0.926514 -2.349853,-0.926514 -1.020508,0 -1.853028,0.469971 -0.819091,0.469971 -1.396484,1.262207 -0.577392,0.778809 -0.88623,1.799317 -0.295411,1.00708 -0.295411,2.108154 l 0,5.612791 -1.839599,0 0,-12.514647 1.839599,0 0,3.14209 q 1.329346,-3.4375 4.739991,-3.4375 4.61914,0 4.61914,5.089112 l 0,7.720945 z"
         id="path4142"
         inkscape:connector-curvature="0" />
      <path
         d="m 105.77218,94.716591 q 0,1.463623 -0.46997,2.658691 -0.45654,1.195069 -1.32934,2.054444 -0.85938,0.845944 -2.06788,1.329344 -1.20849,0.4834 -2.69897,0.4834 -1.463623,0 -2.672119,-0.4834 -1.208496,-0.4834 -2.081299,-1.329344 -0.859375,-0.859375 -1.329345,-2.054444 -0.456543,-1.195068 -0.456543,-2.658691 0,-1.42334 0.456543,-2.645264 0.46997,-1.235351 1.329345,-2.094726 0.872803,-0.872803 2.081299,-1.356202 1.208496,-0.496826 2.672119,-0.496826 1.49048,0 2.69897,0.496826 1.2085,0.483399 2.06788,1.356202 0.8728,0.859375 1.32934,2.094726 0.46997,1.221924 0.46997,2.645264 z m -1.8396,0 q 0,-1.074219 -0.32226,-1.973877 -0.30884,-0.913086 -0.92652,-1.5979 -0.61767,-0.684815 -1.5039,-1.074219 -0.87281,-0.389405 -1.97388,-0.389405 -1.101074,0 -1.987304,0.389405 -0.872803,0.389404 -1.477051,1.074219 -0.604248,0.684814 -0.926514,1.5979 -0.308838,0.899658 -0.308838,1.973877 0,1.074219 0.308838,1.987305 0.322266,0.899658 0.926514,1.557617 0.604248,0.657959 1.477051,1.033935 0.88623,0.375977 1.987304,0.375977 1.10107,0 1.97388,-0.375977 0.88623,-0.375976 1.5039,-1.033935 0.61768,-0.657959 0.92652,-1.557617 0.32226,-0.913086 0.32226,-1.987305 z"
         id="path4144"
         inkscape:connector-curvature="0" />
      <path
         d="m 119.83102,100.93363 -1.85303,0 0,-7.720945 q 0,-1.678467 -0.72509,-2.604981 -0.7251,-0.926514 -2.34986,-0.926514 -1.02051,0 -1.85303,0.469971 -0.81909,0.469971 -1.39648,1.262207 -0.57739,0.778809 -0.88623,1.799317 -0.29541,1.00708 -0.29541,2.108154 l 0,5.612791 -1.8396,0 0,-12.514647 1.8396,0 0,3.14209 q 1.32935,-3.4375 4.73999,-3.4375 4.61914,0 4.61914,5.089112 l 0,7.720945 z"
         id="path4146"
         inkscape:connector-curvature="0" />
      <path
         d="m 135.91745,88.418983 -6.76758,15.683597 q -0.52368,1.31592 -1.47705,1.71875 -0.95337,0.41626 -2.10816,0.41626 -1.28906,0 -2.57812,-0.46997 l 0.36255,-1.58448 q 0.6311,0.26856 1.23535,0.37598 0.60425,0.12085 0.98022,0.12085 0.91309,0 1.24878,-0.44312 0.34912,-0.44311 0.60425,-1.04736 l 0.76538,-1.89331 -5.58594,-12.877197 2.1753,0 4.51172,10.943604 4.43115,-10.943604 2.20215,0 z"
         id="path4148"
         inkscape:connector-curvature="0" />
      <path
         d="m 150.5671,100.93363 -1.8396,0 0,-8.99658 q 0,-1.074219 -0.37597,-1.665039 -0.37598,-0.590821 -1.08765,-0.590821 -1.04736,0 -1.54419,1.101075 -0.4834,1.101074 -0.4834,3.088379 l 0,7.062986 -1.85302,0 0,-8.99658 q 0,-1.074219 -0.38941,-1.665039 -0.37597,-0.590821 -1.08764,-0.590821 -0.65796,0 -1.04737,0.389405 -0.3894,0.389404 -0.61767,0.993652 -0.21485,0.604248 -0.28199,1.342774 -0.0671,0.738525 -0.0671,1.463623 l 0,7.062986 -1.8396,0 0,-12.514647 1.8396,0 0,1.812745 q 0.57739,-2.108155 2.51098,-2.108155 1.8396,0 2.49756,1.8396 0.91309,-1.8396 2.57813,-1.8396 1.5979,0 2.33642,0.953369 0.75195,0.939942 0.75195,2.860108 l 0,8.99658 z"
         id="path4150"
         inkscape:connector-curvature="0" />
      <path
         d="m 160.59762,85.921425 -2.49756,0 0,-2.510986 2.49756,0 0,2.510986 z m 2.49756,15.012205 -7.5061,0 0,-1.571043 2.83325,0 0,-9.372559 -2.83325,0 0,-1.571045 4.68628,0 0,10.943604 2.81982,0 0,1.571043 z"
         id="path4152"
         inkscape:connector-curvature="0" />
      <path
         d="m 180.17526,98.543495 q -0.79224,1.235352 -2.17529,1.973875 -1.36963,0.7251 -3.26294,0.7251 -1.46363,0 -2.68555,-0.4834 -1.22192,-0.4834 -2.09473,-1.342772 -0.85937,-0.872803 -1.34277,-2.067871 -0.4834,-1.195069 -0.4834,-2.658692 0,-1.423339 0.44312,-2.631836 0.44311,-1.221923 1.2622,-2.081298 0.81909,-0.872803 2.00074,-1.356202 1.19506,-0.496826 2.64526,-0.496826 0.57739,0 1.18164,0.134278 0.60425,0.134277 1.14136,0.416259 0.53711,0.268555 0.96679,0.657959 0.42969,0.375977 0.64454,0.899659 l 0,-1.812745 1.65161,0 0,5.008545 -1.65161,0 q 0,-0.832519 -0.30884,-1.517334 -0.29541,-0.684814 -0.81909,-1.18164 -0.52369,-0.496826 -1.24878,-0.765381 -0.7251,-0.281983 -1.55762,-0.281983 -1.12793,0 -1.97388,0.389405 -0.83252,0.389404 -1.39648,1.060791 -0.56397,0.671387 -0.85938,1.584472 -0.28198,0.899659 -0.28198,1.973877 0,1.074219 0.32227,1.987305 0.33569,0.899658 0.95337,1.557617 0.6311,0.657959 1.5039,1.047364 0.88623,0.389404 1.98731,0.389404 1.39648,0 2.48413,-0.550537 1.08764,-0.550537 1.66504,-1.463623 l 1.28906,0.88623 z"
         id="path4154"
         inkscape:connector-curvature="0" />
      <path
         d="m 185.00924,95.320839 q 0.20142,1.987305 1.4502,3.168945 1.24878,1.181641 3.24951,1.181641 1.40991,0 2.51099,-0.577393 1.10107,-0.577392 1.65161,-1.436767 l 1.28906,0.88623 q -0.93994,1.315918 -2.24243,2.014165 -1.30249,0.68481 -3.20923,0.68481 -1.4502,0 -2.65869,-0.4834 -1.2085,-0.4834 -2.09473,-1.342772 -0.8728,-0.872803 -1.3562,-2.067871 -0.4834,-1.195069 -0.4834,-2.658692 0,-1.423339 0.42969,-2.618408 0.44312,-1.208496 1.26221,-2.081299 0.83252,-0.88623 2.01416,-1.369629 1.18164,-0.496826 2.64526,-0.496826 1.5979,0 2.79297,0.53711 1.19507,0.537109 1.9873,1.490478 0.80567,0.939942 1.18164,2.25586 0.38941,1.315918 0.38941,2.913818 l -10.80933,0 z m 8.86231,-1.571045 q -0.30884,-2.054443 -1.49048,-3.061523 -1.18164,-1.007081 -2.91382,-1.007081 -0.88623,0 -1.63818,0.295411 -0.75196,0.281982 -1.32935,0.819091 -0.57739,0.53711 -0.9668,1.302491 -0.3894,0.751953 -0.49682,1.651611 l 8.83545,0 z"
         id="path4156"
         inkscape:connector-curvature="0" />
      <path
         d="m 225.10446,100.93363 -2.28272,0 -7.07641,-14.824217 0,14.824217 -1.8396,0 0,-17.523191 2.59155,0 6.75415,14.139404 0,-14.139404 1.85303,0 0,17.523191 z"
         id="path4158"
         inkscape:connector-curvature="0" />
      <path
         d="m 230.12643,95.320839 q 0.20142,1.987305 1.4502,3.168945 1.24878,1.181641 3.24951,1.181641 1.40991,0 2.51098,-0.577393 1.10108,-0.577392 1.65162,-1.436767 l 1.28906,0.88623 q -0.93994,1.315918 -2.24243,2.014165 -1.30249,0.68481 -3.20923,0.68481 -1.4502,0 -2.65869,-0.4834 -1.2085,-0.4834 -2.09473,-1.342772 -0.8728,-0.872803 -1.3562,-2.067871 -0.4834,-1.195069 -0.4834,-2.658692 0,-1.423339 0.42969,-2.618408 0.44311,-1.208496 1.2622,-2.081299 0.83252,-0.88623 2.01416,-1.369629 1.18165,-0.496826 2.64527,-0.496826 1.5979,0 2.79297,0.53711 1.19507,0.537109 1.9873,1.490478 0.80567,0.939942 1.18164,2.25586 0.38941,1.315918 0.38941,2.913818 l -10.80933,0 z m 8.86231,-1.571045 q -0.30884,-2.054443 -1.49048,-3.061523 -1.18164,-1.007081 -2.91382,-1.007081 -0.88623,0 -1.63819,0.295411 -0.75195,0.281982 -1.32934,0.819091 -0.57739,0.53711 -0.9668,1.302491 -0.3894,0.751953 -0.49682,1.651611 l 8.83545,0 z"
         id="path4160"
         inkscape:connector-curvature="0" />
      <path
         d="m 255.15573,90.178017 q -0.99365,-0.496827 -2.36328,-0.496827 -1.12793,0 -2.01416,0.483399 -0.88623,0.483398 -1.50391,1.275635 -0.61768,0.778808 -0.95337,1.799316 -0.32227,1.00708 -0.32227,2.081299 l 0,4.041748 2.83326,0 0,1.571043 -7.50611,0 0,-1.571043 2.83326,0 0,-9.372559 -2.83326,0 0,-1.571045 4.67285,0 0,3.14209 q 1.26221,-3.4375 4.79371,-3.4375 0.95337,0 1.65161,0.12085 0.71167,0.12085 1.31592,0.429687 l -0.60425,1.503907 z"
         id="path4162"
         inkscape:connector-curvature="0" />
      <path
         d="m 270.22165,100.93363 -1.85303,0 0,-1.154783 q -0.79224,0.711673 -1.74561,1.087643 -0.93994,0.37598 -1.93359,0.37598 -1.49048,0 -2.67212,-0.4834 -1.18164,-0.4834 -2.00073,-1.342772 -0.80567,-0.872803 -1.24878,-2.081299 -0.42969,-1.208496 -0.42969,-2.645264 0,-1.423339 0.42969,-2.631836 0.44311,-1.221923 1.24878,-2.081298 0.81909,-0.872803 2.00073,-1.356202 1.18164,-0.496826 2.67212,-0.496826 0.99365,0 1.93359,0.362549 0.95337,0.349121 1.74561,1.060791 l 0,-4.56543 -2.49756,0 0,-1.571044 4.35059,0 0,17.523191 z m -1.85303,-9.600828 q -0.79224,-0.872803 -1.73218,-1.262207 -0.92651,-0.389405 -1.97388,-0.389405 -1.10107,0 -1.94702,0.389405 -0.83252,0.389404 -1.39648,1.060791 -0.56397,0.671387 -0.85938,1.584472 -0.28198,0.899659 -0.28198,1.973877 0,1.074219 0.28198,1.987305 0.29541,0.899658 0.85938,1.571045 0.56396,0.671387 1.39648,1.060791 0.84595,0.389404 1.94702,0.389404 2.12159,0 3.70606,-1.678466 l 0,-6.687012 z"
         id="path4164"
         inkscape:connector-curvature="0" />
      <path
         d="m 300.29977,84.981483 -9.35913,0 0,6.270752 6.90185,0 0,1.571045 -6.90185,0 0,8.11035 -1.8396,0 0,-17.523191 11.19873,0 0,1.571044 z"
         id="path4166"
         inkscape:connector-curvature="0" />
      <path
         d="m 316.31906,94.716591 q 0,1.463623 -0.46997,2.658691 -0.45655,1.195069 -1.32935,2.054444 -0.85937,0.845944 -2.06787,1.329344 -1.2085,0.4834 -2.69897,0.4834 -1.46363,0 -2.67212,-0.4834 -1.2085,-0.4834 -2.0813,-1.329344 -0.85938,-0.859375 -1.32935,-2.054444 -0.45654,-1.195068 -0.45654,-2.658691 0,-1.42334 0.45654,-2.645264 0.46997,-1.235351 1.32935,-2.094726 0.8728,-0.872803 2.0813,-1.356202 1.20849,-0.496826 2.67212,-0.496826 1.49047,0 2.69897,0.496826 1.2085,0.483399 2.06787,1.356202 0.8728,0.859375 1.32935,2.094726 0.46997,1.221924 0.46997,2.645264 z m -1.8396,0 q 0,-1.074219 -0.32227,-1.973877 -0.30884,-0.913086 -0.92651,-1.5979 -0.61768,-0.684815 -1.50391,-1.074219 -0.8728,-0.389405 -1.97387,-0.389405 -1.10108,0 -1.98731,0.389405 -0.8728,0.389404 -1.47705,1.074219 -0.60425,0.684814 -0.92651,1.5979 -0.30884,0.899658 -0.30884,1.973877 0,1.074219 0.30884,1.987305 0.32226,0.899658 0.92651,1.557617 0.60425,0.657959 1.47705,1.033935 0.88623,0.375977 1.98731,0.375977 1.10107,0 1.97387,-0.375977 0.88623,-0.375976 1.50391,-1.033935 0.61767,-0.657959 0.92651,-1.557617 0.32227,-0.913086 0.32227,-1.987305 z"
         id="path4168"
         inkscape:connector-curvature="0" />
      <path
         d="m 330.3779,100.93363 -1.85303,0 0,-7.720945 q 0,-1.678467 -0.7251,-2.604981 -0.7251,-0.926514 -2.34985,-0.926514 -1.02051,0 -1.85303,0.469971 -0.81909,0.469971 -1.39648,1.262207 -0.5774,0.778809 -0.88624,1.799317 -0.29541,1.00708 -0.29541,2.108154 l 0,5.612791 -1.8396,0 0,-12.514647 1.8396,0 0,3.14209 q 1.32935,-3.4375 4.73999,-3.4375 4.61915,0 4.61915,5.089112 l 0,7.720945 z"
         id="path4170"
         inkscape:connector-curvature="0" />
      <path
         d="m 346.20919,96.945595 q -0.21484,1.973877 -1.55761,3.142085 -1.32935,1.15479 -3.33008,1.15479 -1.10108,0 -2.01416,-0.36255 -0.91309,-0.36255 -1.55762,-1.007079 -0.64453,-0.644531 -1.00708,-1.54419 -0.34912,-0.913086 -0.34912,-1.987304 l 0,-6.351319 -2.83325,0 0,-1.571045 2.83325,0 0,-5.008544 1.8396,0 0,5.008544 5.33081,0 0,1.571045 -5.33081,0 0,6.351319 q 0,0.684814 0.21484,1.289062 0.22828,0.604248 0.61768,1.060791 0.40283,0.456543 0.9668,0.725098 0.56396,0.255127 1.28906,0.255127 1.36963,0 2.28271,-0.845947 0.92652,-0.859375 1.06079,-2.215577 l 1.54419,0.335694 z"
         id="path4172"
         inkscape:connector-curvature="0" />
    </g>
    <g
       style="font-style:normal;font-weight:normal;font-size:27.5px;line-height:125%;font-family:'Anonymice Nerd Font';letter-spacing:0px;word-spacing:0px;fill:#ffffff;fill-opacity:1;stroke:none;stroke-width:1px;stroke-linecap:butt;stroke-linejoin:miter;stroke-opacity:1"
       id="text4140">
      <path
         d="m 65.402313,138.7803 q 0,-0.75195 0.375977,-1.2561 0.375976,-0.51269 0.982666,-0.80322 0.615234,-0.29907 1.401367,-0.42725 0.794678,-0.13672 1.61499,-0.13672 0.316162,0 0.563965,0.009 0.256348,0.009 0.478516,0.0256 0.230713,0.0171 0.461425,0.0427 0.230713,0.0256 0.504151,0.0598 l 0,-0.57251 q 0,-0.58105 -0.256348,-0.95703 -0.247803,-0.37598 -0.615234,-0.5896 -0.367432,-0.22217 -0.769043,-0.30762 -0.401611,-0.094 -0.683594,-0.094 -0.888672,0 -1.640625,0.23926 -0.751953,0.23926 -1.401367,0.64087 l -0.529785,-0.88013 q 0.717773,-0.43579 1.606445,-0.70923 0.897217,-0.28198 1.965332,-0.28198 0.649414,0 1.273193,0.1709 0.632325,0.16235 1.12793,0.51269 0.504151,0.3418 0.803223,0.90576 0.299072,0.56397 0.299072,1.3501 l 0,5.2124 -1.179199,0 0,-1.333 q -0.307617,0.38452 -0.700684,0.67505 -0.384521,0.29052 -0.811767,0.47851 -0.427246,0.17944 -0.854492,0.27344 -0.427247,0.10254 -0.811768,0.10254 -1.580811,0 -2.392578,-0.60669 -0.811768,-0.60669 -0.811768,-1.74317 z m 3.204346,1.3501 q 0.734863,0 1.315918,-0.21362 0.5896,-0.22217 0.999756,-0.54688 0.410156,-0.3247 0.632324,-0.69214 0.230713,-0.36743 0.230713,-0.6665 l 0,-0.75195 q -0.57251,-0.0855 -1.102295,-0.094 -0.52124,-0.009 -0.905762,-0.009 -0.632324,0 -1.221924,0.0855 -0.581054,0.0855 -1.016845,0.28198 -0.435791,0.18799 -0.700684,0.49561 -0.264892,0.30761 -0.264892,0.76049 0,0.50415 0.48706,0.9314 0.495606,0.4187 1.546631,0.4187 z"
         style="font-size:17.5px"
         id="path4175"
         inkscape:connector-curvature="0" />
      <path
         d="m 82.953583,136.96024 q 0,0.9143 -0.281983,1.68335 -0.281982,0.76904 -0.811767,1.32446 -0.52124,0.54687 -1.264649,0.85449 -0.743408,0.30762 -1.666259,0.30762 -0.649415,0 -1.247559,-0.23072 -0.5896,-0.23071 -1.102295,-0.68359 l 0,0.71777 -1.170654,0 0,-11.15112 1.170654,0 0,3.92212 q 0.512695,-0.43579 1.102295,-0.67505 0.598144,-0.2478 1.247559,-0.2478 0.922851,0 1.666259,0.31616 0.743409,0.30762 1.264649,0.86304 0.529785,0.54687 0.811767,1.32446 0.281983,0.76904 0.281983,1.67481 z m -1.187744,0 q 0,-0.6836 -0.179444,-1.25611 -0.170898,-0.58105 -0.529785,-1.0083 -0.358887,-0.42724 -0.897217,-0.67505 -0.529785,-0.2478 -1.230468,-0.2478 -1.350098,0 -2.349854,1.06811 l 0,4.25538 q 0.512695,0.55542 1.09375,0.79467 0.5896,0.23926 1.256104,0.23926 0.700683,0 1.221923,-0.2478 0.529786,-0.2478 0.888672,-0.67505 0.358887,-0.42725 0.53833,-0.99976 0.187989,-0.58105 0.187989,-1.24755 z"
         style="font-size:17.5px"
         id="path4177"
         inkscape:connector-curvature="0" />
      <path
         d="m 92.224823,139.41263 q -0.50415,0.78613 -1.384277,1.2561 -0.871582,0.46143 -2.076416,0.46143 -0.931397,0 -1.708985,-0.30762 -0.777588,-0.30762 -1.333008,-0.85449 -0.546875,-0.55542 -0.854492,-1.31592 -0.307617,-0.7605 -0.307617,-1.69189 0,-0.90577 0.281982,-1.67481 0.281983,-0.77759 0.803223,-1.32446 0.52124,-0.55542 1.273194,-0.86304 0.760498,-0.31616 1.683349,-0.31616 0.367432,0 0.751953,0.0855 0.384522,0.0855 0.726319,0.26489 0.341796,0.1709 0.615234,0.4187 0.273437,0.23926 0.410156,0.57251 l 0,-1.15356 1.051026,0 0,3.18725 -1.051026,0 q 0,-0.52978 -0.196533,-0.96557 -0.187988,-0.43579 -0.52124,-0.75196 -0.333252,-0.31616 -0.794678,-0.48706 -0.461426,-0.17944 -0.991211,-0.17944 -0.717773,0 -1.256103,0.2478 -0.529786,0.24781 -0.888672,0.67505 -0.358887,0.42725 -0.546875,1.0083 -0.179444,0.57251 -0.179444,1.25611 0,0.68359 0.205078,1.26464 0.213624,0.57251 0.60669,0.99121 0.401611,0.41871 0.957031,0.66651 0.563965,0.2478 1.264649,0.2478 0.888672,0 1.58081,-0.35034 0.692139,-0.35034 1.05957,-0.9314 l 0.820313,0.56397 z"
         style="font-size:17.5px"
         id="path4179"
         inkscape:connector-curvature="0" />
      <path
         d="m 101.67551,140.93362 -1.1792,0 0,-0.73486 q -0.504153,0.45288 -1.110842,0.69214 -0.598145,0.23926 -1.230469,0.23926 -0.948487,0 -1.70044,-0.30762 -0.751953,-0.30762 -1.273193,-0.85449 -0.512695,-0.55542 -0.794678,-1.32446 -0.273437,-0.76905 -0.273437,-1.68335 0,-0.90577 0.273437,-1.67481 0.281983,-0.77759 0.794678,-1.32446 0.52124,-0.55542 1.273193,-0.86304 0.751953,-0.31616 1.70044,-0.31616 0.632324,0 1.230469,0.23071 0.606689,0.22217 1.110842,0.67505 l 0,-2.90527 -1.589358,0 0,-0.99976 2.768558,0 0,11.15112 z m -1.1792,-6.10961 q -0.504153,-0.55542 -1.102298,-0.80323 -0.589599,-0.2478 -1.256103,-0.2478 -0.700684,0 -1.239014,0.2478 -0.529785,0.24781 -0.888672,0.67505 -0.358886,0.42725 -0.546875,1.0083 -0.179443,0.57251 -0.179443,1.25611 0,0.68359 0.179443,1.26464 0.187989,0.57251 0.546875,0.99976 0.358887,0.42725 0.888672,0.67505 0.53833,0.2478 1.239014,0.2478 1.350098,0 2.358401,-1.06811 l 0,-4.25537 z"
         style="font-size:17.5px"
         id="path4181"
         inkscape:connector-curvature="0" />
      <path
         d="m 104.87131,137.36185 q 0.12817,1.26465 0.92285,2.0166 0.79468,0.75195 2.06787,0.75195 0.89722,0 1.5979,-0.36743 0.70068,-0.36743 1.05103,-0.91431 l 0.82031,0.56397 q -0.59815,0.8374 -1.427,1.28174 -0.82886,0.43579 -2.04224,0.43579 -0.92285,0 -1.69189,-0.30762 -0.76905,-0.30762 -1.33301,-0.85449 -0.55542,-0.55542 -0.86304,-1.31592 -0.30762,-0.7605 -0.30762,-1.69189 0,-0.90577 0.27344,-1.66626 0.28198,-0.76905 0.80322,-1.32447 0.52979,-0.56396 1.28174,-0.87158 0.75195,-0.31616 1.68335,-0.31616 1.01685,0 1.77735,0.3418 0.76049,0.34179 1.26464,0.94848 0.5127,0.59815 0.75196,1.43555 0.2478,0.8374 0.2478,1.85425 l -6.87866,0 z m 5.63965,-0.99976 q -0.19654,-1.30737 -0.94849,-1.94824 -0.75195,-0.64087 -1.85425,-0.64087 -0.56396,0 -1.04248,0.18799 -0.47851,0.17944 -0.84595,0.52124 -0.36743,0.3418 -0.61523,0.82886 -0.2478,0.47851 -0.31616,1.05102 l 5.62256,0 z"
         style="font-size:17.5px"
         id="path4183"
         inkscape:connector-curvature="0" />
      <path
         d="m 121.23483,133.96951 -3.39233,0 0,5.96436 1.79443,0 0,0.99975 -4.77661,0 0,-0.99975 1.80298,0 0,-5.96436 -1.80298,0 0,-0.99975 1.80298,0 q 0,-1.64063 0.84595,-2.50367 0.85449,-0.87158 2.57202,-0.87158 0.40161,0 0.67505,0.0256 0.28198,0.0256 0.47851,0.0598 l 0,0.99976 q -0.2478,-0.0342 -0.52124,-0.0598 -0.26489,-0.0256 -0.63232,-0.0256 -1.11939,0 -1.68335,0.57251 -0.55542,0.56396 -0.55542,1.80298 l 3.39233,0 0,0.99975 z"
         style="font-size:17.5px"
         id="path4185"
         inkscape:connector-curvature="0" />
      <path
         d="m 130.38644,140.84818 q 0,0.82031 -0.28198,1.46118 -0.28198,0.64087 -0.79468,1.0852 -0.50415,0.44434 -1.19629,0.67505 -0.68359,0.23926 -1.52954,0.23926 -1.18774,0 -2.02514,-0.44434 -0.82886,-0.44433 -1.43555,-1.28174 l 0.82031,-0.63232 q 0.36743,0.55542 1.05957,0.9314 0.69214,0.37597 1.58081,0.37597 1.21338,0 1.91407,-0.61523 0.70922,-0.60669 0.70922,-1.76026 l 0,-0.85449 q -1.04248,0.92285 -2.37548,0.92285 -1.87134,0 -2.93946,-1.06811 -1.06811,-1.06812 -1.06811,-2.92236 0,-0.90577 0.27344,-1.66626 0.28198,-0.76905 0.79467,-1.32447 0.52124,-0.56396 1.26465,-0.87158 0.74341,-0.31616 1.67481,-0.31616 0.64941,0 1.2561,0.23071 0.61523,0.22217 1.11938,0.67505 l 0,-0.71777 1.1792,0 0,7.87842 z m -1.1792,-6.02417 q -0.50415,-0.55542 -1.11083,-0.80323 -0.59815,-0.2478 -1.26465,-0.2478 -0.70069,0 -1.23902,0.2478 -0.52978,0.24781 -0.88012,0.67505 -0.35035,0.42725 -0.53833,1.01685 -0.17945,0.58105 -0.17945,1.24756 0,1.36718 0.70923,2.17895 0.70923,0.81177 2.12769,0.81177 0.6665,0 1.26465,-0.2478 0.60668,-0.25635 1.11083,-0.82032 l 0,-4.05883 z"
         style="font-size:17.5px"
         id="path4187"
         inkscape:connector-curvature="0" />
      <path
         d="m 139.95676,140.93362 -1.1792,0 0,-4.91333 q 0,-1.06811 -0.46143,-1.65771 -0.46142,-0.5896 -1.49536,-0.5896 -0.64941,0 -1.1792,0.29907 -0.52124,0.29907 -0.88867,0.80322 -0.36743,0.49561 -0.56397,1.14502 -0.18798,0.64087 -0.18798,1.34156 l 0,3.57177 -1.17066,0 0,-11.15112 1.17066,0 0,5.18677 q 0.84594,-2.1875 3.01635,-2.1875 2.93946,0 2.93946,3.23852 l 0,4.91333 z"
         style="font-size:17.5px"
         id="path4189"
         inkscape:connector-curvature="0" />
      <path
         d="m 146.75851,131.3804 -1.58935,0 0,-1.5979 1.58935,0 0,1.5979 z m 1.58936,9.55322 -4.77661,0 0,-0.99975 1.80298,0 0,-5.96436 -1.80298,0 0,-0.99975 2.98218,0 0,6.96411 1.79443,0 0,0.99975 z"
         style="font-size:17.5px"
         id="path4191"
         inkscape:connector-curvature="0" />
      <path
         d="m 157.91818,131.3804 -1.58935,0 0,-1.5979 1.58935,0 0,1.5979 z m -3.39233,12.92847 q -2.10205,0 -2.93945,-1.72608 l 0.89721,-0.61523 q 0.30762,0.64941 0.80322,0.99976 0.50416,0.35034 1.23902,0.35034 0.58105,0 0.97412,-0.1709 0.39307,-0.16235 0.61523,-0.46997 0.23072,-0.30762 0.32471,-0.74341 0.10254,-0.43579 0.10254,-0.99976 l 0,-6.96411 -1.80298,0 0,-0.99975 2.97363,0 0,7.96386 q 0,1.53809 -0.81176,2.4524 -0.80323,0.92285 -2.37549,0.92285 z"
         style="font-size:17.5px"
         id="path4193"
         inkscape:connector-curvature="0" />
      <path
         d="m 169.06931,140.93362 -1.66626,0 -3.25562,-3.57177 -1.43555,1.31591 0,2.25586 -1.17065,0 0,-11.15112 1.17065,0 0,7.47681 4.53736,-4.28955 1.6748,0 -3.99048,3.65722 4.13575,4.30664 z"
         style="font-size:17.5px"
         id="path4195"
         inkscape:connector-curvature="0" />
      <path
         d="m 177.05881,140.93362 -4.77661,0 0,-0.99975 1.80297,0 0,-9.15161 -1.80297,0 0,-0.99976 2.98217,0 0,10.15137 1.79444,0 0,0.99975 z"
         style="font-size:17.5px"
         id="path4197"
         inkscape:connector-curvature="0" />
      <path
         d="m 188.22702,140.93362 -1.17065,0 0,-5.72509 q 0,-0.6836 -0.23926,-1.05957 -0.23926,-0.37598 -0.69214,-0.37598 -0.6665,0 -0.98267,0.70068 -0.30761,0.70069 -0.30761,1.96534 l 0,4.49462 -1.1792,0 0,-5.72509 q 0,-0.6836 -0.24781,-1.05957 -0.23925,-0.37598 -0.69213,-0.37598 -0.41871,0 -0.66651,0.2478 -0.2478,0.24781 -0.39306,0.63233 -0.13672,0.38452 -0.17945,0.85449 -0.0427,0.46997 -0.0427,0.9314 l 0,4.49462 -1.17066,0 0,-7.96386 1.17066,0 0,1.15356 q 0.36743,-1.34155 1.5979,-1.34155 1.17065,0 1.58935,1.17065 0.58106,-1.17065 1.64063,-1.17065 1.01684,0 1.48681,0.60669 0.47852,0.59814 0.47852,1.82007 l 0,5.72509 z"
         style="font-size:17.5px"
         id="path4199"
         inkscape:connector-curvature="0" />
      <path
         d="m 197.37863,140.93362 -1.1792,0 0,-4.91333 q 0,-1.06811 -0.46142,-1.65771 -0.46143,-0.5896 -1.49536,-0.5896 -0.64942,0 -1.1792,0.29907 -0.52124,0.29907 -0.88868,0.80322 -0.36743,0.49561 -0.56396,1.14502 -0.18799,0.64087 -0.18799,1.34156 l 0,3.57177 -1.17065,0 0,-7.96386 1.17065,0 0,1.99951 q 0.84595,-2.1875 3.01636,-2.1875 2.93945,0 2.93945,3.23852 l 0,4.91333 z"
         style="font-size:17.5px"
         id="path4201"
         inkscape:connector-curvature="0" />
      <path
         d="m 207.57272,136.97733 q 0,0.93139 -0.29907,1.69189 -0.29053,0.7605 -0.84595,1.30737 -0.54687,0.53833 -1.31591,0.84595 -0.76905,0.30762 -1.71753,0.30762 -0.9314,0 -1.70044,-0.30762 -0.76905,-0.30762 -1.32447,-0.84595 -0.54687,-0.54687 -0.84594,-1.30737 -0.29053,-0.7605 -0.29053,-1.69189 0,-0.90577 0.29053,-1.68335 0.29907,-0.78614 0.84594,-1.33301 0.55542,-0.55542 1.32447,-0.86304 0.76904,-0.31616 1.70044,-0.31616 0.94848,0 1.71753,0.31616 0.76904,0.30762 1.31591,0.86304 0.55542,0.54687 0.84595,1.33301 0.29907,0.77758 0.29907,1.68335 z m -1.17065,0 q 0,-0.6836 -0.20508,-1.25611 -0.19653,-0.58105 -0.5896,-1.01684 -0.39307,-0.43579 -0.95703,-0.6836 -0.55542,-0.2478 -1.2561,-0.2478 -0.70069,0 -1.26465,0.2478 -0.55542,0.24781 -0.93994,0.6836 -0.38452,0.43579 -0.5896,1.01684 -0.19654,0.57251 -0.19654,1.25611 0,0.68359 0.19654,1.26464 0.20508,0.57251 0.5896,0.99121 0.38452,0.41871 0.93994,0.65796 0.56396,0.23926 1.26465,0.23926 0.70068,0 1.2561,-0.23926 0.56396,-0.23925 0.95703,-0.65796 0.39307,-0.4187 0.5896,-0.99121 0.20508,-0.58105 0.20508,-1.26464 z"
         style="font-size:17.5px"
         id="path4203"
         inkscape:connector-curvature="0" />
      <path
         d="m 216.93796,136.96024 q 0,0.93139 -0.29053,1.69189 -0.29053,0.7605 -0.82031,1.31592 -0.52124,0.54687 -1.26465,0.85449 -0.74341,0.30762 -1.66626,0.30762 -0.63232,0 -1.23047,-0.23072 -0.5896,-0.23071 -1.10229,-0.68359 l 0,3.90503 -1.17066,0 0,-11.15112 1.17066,0 0,0.73486 q 1.0852,-0.92285 2.33276,-0.92285 0.92285,0 1.66626,0.30762 0.74341,0.29907 1.26465,0.86303 0.52978,0.55542 0.82031,1.33301 0.29053,0.76904 0.29053,1.67481 z m -1.17066,0 q 0,-0.66651 -0.18798,-1.24756 -0.17945,-0.5896 -0.54688,-1.01685 -0.36743,-0.42724 -0.90576,-0.67505 -0.52979,-0.2478 -1.23047,-0.2478 -0.6665,0 -1.24756,0.2478 -0.57251,0.24781 -1.0852,0.80323 l 0,4.27246 q 0.51269,0.55542 1.0852,0.79467 0.58106,0.23926 1.24756,0.23926 0.70068,0 1.23047,-0.2478 0.53833,-0.2478 0.90576,-0.67505 0.36743,-0.42725 0.54688,-0.99976 0.18798,-0.58105 0.18798,-1.24755 z"
         style="font-size:17.5px"
         id="path4205"
         inkscape:connector-curvature="0" />
      <path
         d="m 218.5444,136.96024 q 0,-0.90577 0.29053,-1.67481 0.29053,-0.77759 0.81177,-1.33301 0.52124,-0.56396 1.26465,-0.86303 0.75195,-0.30762 1.6748,-0.30762 1.23901,0 2.32422,0.92285 l 0,-0.73486 1.1792,0 0,11.15112 -1.1792,0 0,-3.90503 q -0.50415,0.45288 -1.1023,0.68359 -0.58959,0.23072 -1.22192,0.23072 -0.92285,0 -1.6748,-0.30762 -0.74341,-0.30762 -1.26465,-0.85449 -0.52124,-0.55542 -0.81177,-1.31592 -0.29053,-0.7605 -0.29053,-1.69189 z m 1.17066,0 q 0,0.6665 0.17944,1.24755 0.18799,0.57251 0.55542,0.99976 0.36743,0.42725 0.89722,0.67505 0.53833,0.2478 1.23901,0.2478 0.66651,0 1.23901,-0.23926 0.58106,-0.23925 1.08521,-0.79467 l 0,-4.27246 q -0.50415,-0.55542 -1.08521,-0.80323 -0.5725,-0.2478 -1.23901,-0.2478 -0.70068,0 -1.23901,0.2478 -0.52979,0.24781 -0.89722,0.67505 -0.36743,0.42725 -0.55542,1.01685 -0.17944,0.58105 -0.17944,1.24756 z"
         style="font-size:17.5px"
         id="path4207"
         inkscape:connector-curvature="0" />
      <path
         d="m 235.64279,134.08914 q -0.63232,-0.31616 -1.5039,-0.31616 -0.71778,0 -1.28174,0.30762 -0.56397,0.30761 -0.95703,0.81176 -0.39307,0.49561 -0.60669,1.14502 -0.20508,0.64087 -0.20508,1.32447 l 0,2.57202 1.80298,0 0,0.99975 -4.77661,0 0,-0.99975 1.80297,0 0,-5.96436 -1.80297,0 0,-0.99975 2.97363,0 0,1.99951 q 0.80322,-2.1875 3.05054,-2.1875 0.60668,0 1.05102,0.0769 0.45288,0.0769 0.8374,0.27344 l -0.38452,0.95703 z"
         style="font-size:17.5px"
         id="path4209"
         inkscape:connector-curvature="0" />
      <path
         d="m 245.43527,138.72903 q 0,0.70069 -0.35034,1.16211 -0.35034,0.46143 -0.90576,0.73487 -0.54688,0.27343 -1.23047,0.38452 -0.67505,0.11963 -1.32446,0.11963 -1.08521,0 -2.16187,-0.31616 -1.07666,-0.31617 -1.86279,-0.82886 l 0.52124,-1.0083 q 0.88013,0.55542 1.73462,0.85449 0.85449,0.29907 1.7688,0.29907 2.64038,0 2.64038,-1.36719 0,-0.33325 -0.22217,-0.53833 -0.21362,-0.21362 -0.58105,-0.34179 -0.36744,-0.13672 -0.84595,-0.21363 -0.46997,-0.0769 -0.99121,-0.14526 -0.66651,-0.094 -1.32447,-0.22217 -0.65795,-0.12817 -1.20483,-0.38452 -0.53833,-0.25635 -0.87158,-0.68359 -0.32471,-0.42725 -0.32471,-1.12793 0,-0.59815 0.29907,-1.03394 0.30762,-0.43579 0.81177,-0.72632 0.5127,-0.29052 1.19629,-0.42724 0.68359,-0.13672 1.41846,-0.13672 1.05102,0 1.87988,0.2478 0.82886,0.23926 1.49536,0.69214 l -0.46997,0.91431 q -0.68359,-0.47852 -1.38428,-0.66651 -0.70068,-0.19653 -1.52099,-0.19653 -0.36743,0 -0.82032,0.0684 -0.44433,0.0598 -0.82885,0.22217 -0.38452,0.15381 -0.64942,0.41015 -0.25634,0.24781 -0.25634,0.63233 0,0.33325 0.21362,0.53833 0.22217,0.19653 0.5896,0.33325 0.36743,0.12817 0.8374,0.20508 0.47852,0.0769 0.99976,0.14526 0.64941,0.094 1.30737,0.22217 0.6665,0.12817 1.20483,0.37598 0.54688,0.2478 0.88013,0.67504 0.33325,0.42725 0.33325,1.12793 z"
         style="font-size:17.5px"
         id="path4211"
         inkscape:connector-curvature="0" />
      <path
         d="m 255.30466,138.39578 q -0.13672,1.25611 -0.99121,1.99951 -0.84595,0.73487 -2.11914,0.73487 -0.70069,0 -1.28174,-0.23072 -0.58106,-0.23071 -0.99121,-0.64086 -0.41016,-0.41016 -0.64087,-0.98267 -0.22217,-0.58106 -0.22217,-1.26465 l 0,-4.04175 -1.80298,0 0,-0.99975 1.80298,0 0,-3.18726 1.17065,0 0,3.18726 3.39234,0 0,0.99975 -3.39234,0 0,4.04175 q 0,0.43579 0.13672,0.82031 0.14527,0.38452 0.39307,0.67505 0.25635,0.29053 0.61523,0.46143 0.35889,0.16235 0.82032,0.16235 0.87158,0 1.45263,-0.53833 0.5896,-0.54687 0.67505,-1.40991 l 0.98267,0.21362 z"
         style="font-size:17.5px"
         id="path4213"
         inkscape:connector-curvature="0" />
      <path
         d="m 257.24435,132.96976 1.17066,0 0,4.92187 q 0,1.06812 0.46142,1.65772 0.46998,0.58105 1.50391,0.58105 0.64941,0 1.17065,-0.29907 0.52125,-0.29907 0.88868,-0.79468 0.36743,-0.50415 0.55542,-1.14502 0.19653,-0.64941 0.19653,-1.3501 l 0,-3.57177 1.1792,0 0,7.96386 -1.1792,0 0,-1.99096 q -0.8374,2.1875 -3.00781,2.1875 -2.93946,0 -2.93946,-3.23853 l 0,-4.92187 z"
         style="font-size:17.5px"
         id="path4215"
         inkscape:connector-curvature="0" />
      <path
         d="m 274.62473,132.96976 -3.45215,7.96386 -1.57227,0 -3.46924,-7.96386 1.40137,0 2.854,6.9812 2.83692,-6.9812 1.40137,0 z"
         style="font-size:17.5px"
         id="path4217"
         inkscape:connector-curvature="0" />
      <path
         d="m 284.19504,132.96976 -1.61499,7.96386 -1.36719,0 -1.27319,-5.84472 -1.20484,5.84472 -1.36718,0 -1.63208,-7.96386 1.24755,0 1.15357,6.37451 1.23901,-6.37451 1.16211,0 1.27319,6.37451 1.15357,-6.37451 1.23047,0 z"
         style="font-size:17.5px"
         id="path4219"
         inkscape:connector-curvature="0" />
      <path
         d="m 293.68845,140.93362 -3.2898,0 0,-1.03393 0.70068,0 -1.57226,-2.30713 -1.55518,2.30713 0.64087,0 0,1.03393 -3.24707,0 0,-1.03393 1.23902,0 2.1875,-3.00781 -2.10205,-2.8711 -1.15357,0 0,-1.05102 3.27271,0 0,1.05102 -0.73487,0 1.45264,2.17041 1.46973,-2.17041 -0.80323,0 0,-1.05102 3.30689,0 0,1.05102 -1.11939,0 -2.10205,2.8711 2.1875,3.00781 1.22193,0 0,1.03393 z"
         style="font-size:17.5px"
         id="path4221"
         inkscape:connector-curvature="0" />
      <path
         d="m 303.31857,132.96976 -4.30664,9.98047 q -0.33325,0.8374 -0.93994,1.09375 -0.60669,0.26489 -1.34155,0.26489 -0.82031,0 -1.64063,-0.29907 l 0.23072,-1.0083 q 0.40161,0.17089 0.78613,0.23925 0.38452,0.0769 0.62378,0.0769 0.58105,0 0.79468,-0.28198 0.22216,-0.28199 0.38452,-0.66651 l 0.48706,-1.20483 -3.55469,-8.19458 1.38428,0 2.87109,6.96411 2.81983,-6.96411 1.40136,0 z"
         style="font-size:17.5px"
         id="path4223"
         inkscape:connector-curvature="0" />
      <path
         d="m 312.25656,140.93362 -7.17773,0 0,-0.99975 5.42602,-5.96436 -4.40918,0 0,2.1875 -0.99975,0 0,-3.18725 6.96411,0 0,0.99975 -5.42603,5.96436 4.62281,0 0,-2.1875 0.99975,0 0,3.18725 z"
         style="font-size:17.5px"
         id="path4225"
         inkscape:connector-curvature="0" />
      <path
         d="m 73.9216,162.80862 -1.256103,0 -1.051026,-3.18725 -4.409179,0 -1.033936,3.18725 -1.256103,0 3.708496,-11.15112 1.589355,0 3.708496,11.15112 z m -2.640381,-4.22119 -1.871337,-5.75073 -1.871338,5.75073 3.742675,0 z"
         style="font-size:17.5px"
         id="path4227"
         inkscape:connector-curvature="0" />
      <path
         d="m 82.936493,159.62137 q 0,1.5979 -1.033936,2.39258 -1.033935,0.79467 -2.939453,0.79467 l -3.554687,0 0,-11.15112 3.358154,0 q 0.700684,0 1.375732,0.11963 0.675049,0.11108 1.204834,0.42725 0.538331,0.31616 0.871582,0.88012 0.333252,0.55542 0.333252,1.46118 0,1.73462 -1.734619,2.36695 2.119141,0.64941 2.119141,2.70874 z m -1.555176,-5.07569 q 0,-0.58959 -0.247803,-0.96557 -0.247802,-0.37598 -0.632324,-0.57251 -0.384521,-0.20508 -0.845947,-0.27344 -0.461426,-0.0769 -0.888672,-0.0769 l -2.1875,0 0,3.7854 2.1875,0 q 0.478516,0 0.939941,-0.0684 0.461426,-0.0769 0.828858,-0.28198 0.367432,-0.21363 0.606689,-0.58106 0.239258,-0.36743 0.239258,-0.96558 z m 0.384522,5.07569 q 0,-1.15357 -0.751954,-1.67481 -0.743408,-0.52978 -2.050781,-0.52978 l -2.384033,0 0,4.39209 2.384033,0 q 1.307373,0 2.050781,-0.54688 0.751954,-0.55542 0.751954,-1.64062 z"
         style="font-size:17.5px"
         id="path4229"
         inkscape:connector-curvature="0" />
      <path
         d="m 92.592255,159.88626 q -0.435791,1.43555 -1.427002,2.2815 -0.991211,0.8374 -2.495118,0.8374 -1.170654,0 -1.982421,-0.47852 -0.811768,-0.48706 -1.333008,-1.28174 -0.512696,-0.79467 -0.743408,-1.83715 -0.222168,-1.04249 -0.222168,-2.16187 0,-1.11938 0.222168,-2.16187 0.230712,-1.04248 0.743408,-1.8457 0.52124,-0.80322 1.333008,-1.28174 0.811767,-0.48706 1.982421,-0.48706 1.033936,0 1.768799,0.36743 0.734864,0.36744 1.085205,1.11939 l 0,-1.29883 0.999756,0 0,3.65723 -0.999756,0 q 0,-0.5896 -0.230712,-1.11084 -0.222168,-0.52979 -0.60669,-0.91431 -0.384521,-0.38452 -0.914307,-0.59814 -0.52124,-0.22217 -1.102295,-0.22217 -0.905761,0 -1.503906,0.42724 -0.589599,0.42725 -0.948486,1.11939 -0.358887,0.69214 -0.512695,1.53809 -0.145264,0.84594 -0.145264,1.69189 0,0.8374 0.145264,1.69189 0.153808,0.84595 0.512695,1.52955 0.358887,0.67504 0.948486,1.11084 0.598145,0.42724 1.503906,0.42724 2.084961,0 2.905274,-2.52075 l 1.016846,0.40161 z"
         style="font-size:17.5px"
         id="path4231"
         inkscape:connector-curvature="0" />
      <path
         d="m 102.46164,157.24588 q 0,1.11938 -0.23926,2.13623 -0.23071,1.0083 -0.75195,1.77734 -0.5127,0.7605 -1.33301,1.20484 -0.811767,0.44433 -1.965331,0.44433 l -3.623047,0 0,-11.15112 3.623047,0 q 1.136474,0 1.948241,0.46143 0.82031,0.45288 1.33301,1.22192 0.52124,0.76904 0.7605,1.77734 0.2478,1.00831 0.2478,2.12769 z m -1.17065,0 q 0,-2.1875 -0.82886,-3.38379 -0.820315,-1.20483 -2.290041,-1.20483 l -2.452393,0 0,9.15161 2.452393,0 q 1.469726,0 2.290041,-1.18775 0.82886,-1.18774 0.82886,-3.37524 z"
         style="font-size:17.5px"
         id="path4233"
         inkscape:connector-curvature="0" />
      <path
         d="m 111.24582,162.80862 -7.12647,0 0,-11.15112 7.12647,0 0,0.99976 -5.95581,0 0,3.99048 4.39209,0 0,0.99975 -4.39209,0 0,4.16138 5.95581,0 0,0.99975 z"
         style="font-size:17.5px"
         id="path4235"
         inkscape:connector-curvature="0" />
      <path
         d="m 120.81613,152.65726 -5.95581,0 0,3.99048 4.39209,0 0,0.99975 -4.39209,0 0,5.16113 -1.17065,0 0,-11.15112 7.12646,0 0,0.99976 z"
         style="font-size:17.5px"
         id="path4237"
         inkscape:connector-curvature="0" />
      <path
         d="m 131.24094,157.26297 q 0,1.13647 -0.23926,2.17041 -0.23071,1.03394 -0.75195,1.82861 -0.5127,0.79468 -1.33301,1.2732 -0.81177,0.46997 -1.96533,0.46997 -1.17066,0 -1.98243,-0.47852 -0.81176,-0.48706 -1.333,-1.28174 -0.5127,-0.79467 -0.74341,-1.83715 -0.22217,-1.04249 -0.22217,-2.16187 0,-1.11938 0.22217,-2.16187 0.23071,-1.04248 0.74341,-1.8457 0.52124,-0.80322 1.333,-1.28174 0.81177,-0.48706 1.98243,-0.48706 1.03393,0 1.76879,0.36743 0.73487,0.36744 1.08521,1.11939 l 0,-1.29883 0.99976,0 0,3.65723 -0.99976,0 q 0,-0.60669 -0.23071,-1.12793 -0.22217,-0.52979 -0.60669,-0.90576 -0.38452,-0.37598 -0.91431,-0.5896 -0.52124,-0.22217 -1.10229,-0.22217 -0.90577,0 -1.50391,0.42724 -0.5896,0.42725 -0.94849,1.11939 -0.35888,0.69214 -0.51269,1.53809 -0.14527,0.84594 -0.14527,1.69189 0,0.8374 0.14527,1.69189 0.15381,0.84595 0.51269,1.52955 0.35889,0.67504 0.94849,1.11084 0.59814,0.42724 1.50391,0.42724 1.35009,0 2.12768,-1.04248 0.77759,-1.04248 0.92285,-2.93091 l -2.46948,0 0,-0.99975 3.7085,0 0,0.23071 z"
         style="font-size:17.5px"
         id="path4239"
         inkscape:connector-curvature="0" />
      <path
         d="m 139.95676,162.80862 -1.1792,0 0,-5.16113 -4.77661,0 0,5.16113 -1.17066,0 0,-11.15112 1.17066,0 0,4.99024 4.77661,0 0,-4.99024 1.1792,0 0,11.15112 z"
         style="font-size:17.5px"
         id="path4241"
         inkscape:connector-curvature="0" />
      <path
         d="m 148.34787,162.80862 -4.77661,0 0,-0.99975 1.80298,0 0,-9.15161 -1.80298,0 0,-0.99976 4.77661,0 0,0.99976 -1.79443,0 0,9.15161 1.79443,0 0,0.99975 z"
         style="font-size:17.5px"
         id="path4243"
         inkscape:connector-curvature="0" />
      <path
         d="m 159.09738,158.55325 q 0,2.11914 -0.90576,3.2898 -0.89722,1.16211 -2.75146,1.16211 -1.48682,0 -2.49512,-0.77759 -1.0083,-0.78613 -1.40991,-2.34131 l 1.01684,-0.38452 q 0.36743,1.38428 1.09375,1.94824 0.72632,0.55542 1.79444,0.55542 0.78613,0 1.27319,-0.31616 0.4956,-0.31616 0.75195,-0.80322 0.26489,-0.49561 0.35889,-1.1023 0.094,-0.61523 0.094,-1.23047 l 0,-6.89575 1.1792,0 0,6.89575 z"
         style="font-size:17.5px"
         id="path4245"
         inkscape:connector-curvature="0" />
      <path
         d="m 169.03513,162.80862 -1.43555,0 -3.7085,-5.4602 -1.1792,1.31592 0,4.14428 -1.17065,0 0,-11.15112 1.17065,0 0,5.42603 4.77661,-5.42603 1.54664,0 -4.375,4.87061 4.375,6.28051 z"
         style="font-size:17.5px"
         id="path4247"
         inkscape:connector-curvature="0" />
      <path
         d="m 178.23801,162.80862 -7.12647,0 0,-11.15112 1.17066,0 0,10.15137 5.95581,0 0,0.99975 z"
         style="font-size:17.5px"
         id="path4249"
         inkscape:connector-curvature="0" />
      <path
         d="m 187.80832,162.80862 -1.1792,0 0,-9.28833 -1.97388,5.75074 -0.8374,0 -1.96533,-5.75074 0,9.28833 -1.17066,0 0,-11.15112 1.521,0 2.03369,5.82764 2.05078,-5.82764 1.521,0 0,11.15112 z"
         style="font-size:17.5px"
         id="path4251"
         inkscape:connector-curvature="0" />
      <path
         d="m 197.37863,162.80862 -1.45264,0 -4.50317,-9.43359 0,9.43359 -1.17065,0 0,-11.15112 1.64917,0 4.29809,8.9978 0,-8.9978 1.1792,0 0,11.15112 z"
         style="font-size:17.5px"
         id="path4253"
         inkscape:connector-curvature="0" />
      <path
         d="m 207.66672,157.24588 q 0,1.11938 -0.23072,2.16187 -0.23071,1.04248 -0.73486,1.83715 -0.50415,0.79468 -1.32446,1.28174 -0.81177,0.47852 -1.98242,0.47852 -1.17066,0 -1.99097,-0.47852 -0.81177,-0.48706 -1.32446,-1.28174 -0.50415,-0.79467 -0.72632,-1.83715 -0.23071,-1.04249 -0.23071,-2.16187 0,-1.11938 0.23071,-2.16187 0.22217,-1.04248 0.73486,-1.8457 0.52124,-0.80322 1.33301,-1.28174 0.82031,-0.48706 1.97388,-0.48706 1.15356,0 1.96533,0.48706 0.82031,0.47852 1.32446,1.28174 0.50415,0.80322 0.74341,1.8457 0.23926,1.04249 0.23926,2.16187 z m -1.1792,0 q 0,-1.10229 -0.21362,-1.98242 -0.20508,-0.88867 -0.59815,-1.51245 -0.39307,-0.62378 -0.97412,-0.94849 -0.57251,-0.33325 -1.30737,-0.33325 -0.91431,0 -1.51245,0.42724 -0.5896,0.42725 -0.94849,1.11939 -0.35889,0.69214 -0.50415,1.53809 -0.13672,0.84594 -0.13672,1.69189 0,0.8374 0.13672,1.69189 0.14526,0.84595 0.50415,1.52955 0.35889,0.67504 0.94849,1.11084 0.59814,0.42724 1.51245,0.42724 0.90576,0 1.5039,-0.42724 0.59815,-0.4358 0.95703,-1.11084 0.35889,-0.6836 0.49561,-1.52955 0.13672,-0.85449 0.13672,-1.69189 z"
         style="font-size:17.5px"
         id="path4255"
         inkscape:connector-curvature="0" />
      <path
         d="m 216.92087,154.84476 q 0,1.61499 -1.0083,2.40112 -1.0083,0.78613 -2.82837,0.78613 l -2.52075,0 0,4.77661 -1.17066,0 0,-11.15112 3.67432,0 q 1.83716,0 2.84546,0.80322 1.0083,0.79468 1.0083,2.38404 z m -1.17066,0 q 0,-1.15357 -0.72631,-1.66626 -0.72632,-0.52124 -1.9397,-0.52124 l -2.52075,0 0,4.375 2.52075,0 q 1.21338,0 1.9397,-0.5127 0.72631,-0.52124 0.72631,-1.6748 z"
         style="font-size:17.5px"
         id="path4257"
         inkscape:connector-curvature="0" />
      <path
         d="m 226.80734,157.24588 q 0,1.06812 -0.20508,2.05933 -0.19653,0.98266 -0.64941,1.76025 -0.44434,0.77759 -1.16211,1.29028 -0.71777,0.50415 -1.73462,0.60669 0.19654,1.14502 0.78613,1.58081 0.59815,0.43579 1.75171,0.43579 0.29908,0 0.50415,-0.009 0.21363,-0.009 0.41016,-0.0256 l 0,0.99976 q -0.2478,0.0171 -0.47852,0.0256 -0.22216,0.009 -0.43579,0.009 -1.74316,0 -2.63183,-0.74341 -0.88013,-0.74341 -1.07666,-2.29004 -0.93994,-0.11963 -1.63208,-0.60669 -0.69214,-0.4956 -1.13648,-1.2561 -0.43579,-0.7605 -0.64087,-1.74316 -0.21362,-0.99121 -0.21362,-2.09351 0,-1.11938 0.23071,-2.16187 0.22217,-1.04248 0.73487,-1.8457 0.52124,-0.80322 1.333,-1.28174 0.82032,-0.48706 1.97388,-0.48706 1.15357,0 1.96533,0.48706 0.82032,0.47852 1.32447,1.28174 0.50415,0.80322 0.7434,1.8457 0.23926,1.04249 0.23926,2.16187 z m -1.1792,0 q 0,-0.84595 -0.14526,-1.69189 -0.14526,-0.84595 -0.49561,-1.53809 -0.35034,-0.69214 -0.95703,-1.11939 -0.60669,-0.42724 -1.49536,-0.42724 -0.91431,0 -1.51245,0.42724 -0.5896,0.42725 -0.94849,1.11939 -0.35888,0.69214 -0.50415,1.53809 -0.13672,0.84594 -0.13672,1.69189 0,2.22168 0.80323,3.49487 0.81177,1.26465 2.29858,1.26465 1.46973,0 2.2815,-1.26465 0.81176,-1.27319 0.81176,-3.49487 z"
         style="font-size:17.5px"
         id="path4259"
         inkscape:connector-curvature="0" />
      <path
         d="m 236.18112,162.80862 -1.48681,0 -3.25562,-4.77661 -1.73462,0 0,4.77661 -1.17065,0 0,-11.15112 3.67431,0 q 1.83716,0 2.84546,0.80322 1.0083,0.79468 1.0083,2.38404 0,0.70068 -0.2478,1.26465 -0.2478,0.55542 -0.67505,0.94848 -0.42724,0.39307 -1.02539,0.63233 -0.5896,0.23925 -1.29028,0.29052 l 3.35815,4.82788 z m -1.33301,-7.96386 q 0,-1.13648 -0.70922,-1.65772 -0.70069,-0.52978 -1.93116,-0.52978 l -2.50366,0 0,4.375 2.50366,0 q 1.23047,0 1.93116,-0.5127 0.70922,-0.52124 0.70922,-1.6748 z"
         style="font-size:17.5px"
         id="path4261"
         inkscape:connector-curvature="0" />
      <path
         d="m 245.36691,159.90335 q 0,0.70068 -0.29052,1.27319 -0.29053,0.56397 -0.77759,0.97413 -0.48706,0.41015 -1.11939,0.63232 -0.63232,0.22217 -1.31592,0.22217 -0.93994,0 -1.72607,-0.35034 -0.78613,-0.35035 -1.24756,-1.03394 l 0,1.18774 -0.99121,0 0,-3.39233 0.99121,0 q 0,0.57251 0.26489,1.05103 0.2649,0.46997 0.67505,0.81176 0.41016,0.3418 0.93994,0.53833 0.53833,0.18799 1.09375,0.18799 0.49561,0 0.91431,-0.13672 0.4187,-0.14526 0.73486,-0.40161 0.31617,-0.26489 0.49561,-0.64087 0.18799,-0.37597 0.18799,-0.85449 0,-0.53833 -0.23926,-0.92285 -0.23071,-0.38452 -0.63232,-0.65796 -0.39307,-0.27344 -0.88868,-0.46143 -0.4956,-0.19653 -1.0083,-0.38452 -0.60669,-0.21362 -1.21338,-0.44433 -0.60668,-0.23926 -1.0852,-0.59815 -0.47852,-0.35888 -0.77759,-0.87158 -0.29907,-0.52124 -0.29907,-1.29028 0,-0.6836 0.29053,-1.21338 0.29052,-0.53833 0.7605,-0.90576 0.46997,-0.36744 1.09375,-0.55542 0.62377,-0.19654 1.28173,-0.19654 0.81177,0 1.49536,0.33325 0.69214,0.33326 1.07666,1.01685 l 0,-1.16211 1.03394,0 0,3.18726 -1.03394,0 q 0,-0.50415 -0.21362,-0.93994 -0.20508,-0.44434 -0.56396,-0.75196 -0.35889,-0.31616 -0.82032,-0.4956 -0.46142,-0.18799 -0.97412,-0.18799 -0.45288,0 -0.86303,0.10254 -0.41016,0.10254 -0.71778,0.33325 -0.30761,0.22217 -0.4956,0.58105 -0.17945,0.35889 -0.17945,0.8545 0,0.43579 0.21363,0.7434 0.22217,0.30762 0.5896,0.54688 0.36743,0.23071 0.84594,0.42725 0.48706,0.18798 0.99121,0.38452 0.63233,0.22217 1.25611,0.4956 0.62378,0.27344 1.11938,0.65796 0.49561,0.38452 0.81177,0.94849 0.31616,0.55542 0.31616,1.35864 z"
         style="font-size:17.5px"
         id="path4263"
         inkscape:connector-curvature="0" />
      <path
         d="m 255.21921,155.42581 -0.99976,0 0,-2.76855 -2.39258,0 0,9.15161 1.79444,0 0,0.99975 -4.77661,0 0,-0.99975 1.80297,0 0,-9.15161 -2.39257,0 0,2.76855 -0.99976,0 0,-3.76831 7.96387,0 0,3.76831 z"
         style="font-size:17.5px"
         id="path4265"
         inkscape:connector-curvature="0" />
      <path
         d="m 264.37082,158.83524 q 0,0.94848 -0.21362,1.71752 -0.20508,0.76905 -0.64942,1.31592 -0.43579,0.53833 -1.11084,0.83741 -0.67505,0.29907 -1.5979,0.29907 -0.93139,0 -1.60644,-0.29907 -0.66651,-0.29908 -1.1023,-0.83741 -0.42724,-0.54687 -0.64087,-1.32446 -0.20508,-0.77759 -0.20508,-1.72607 l 0,-7.16065 1.17066,0 0,7.17774 q 0,0.50415 0.0854,1.06811 0.094,0.56397 0.35034,1.02539 0.26489,0.46143 0.72632,0.76904 0.46997,0.30762 1.22192,0.30762 0.75195,0 1.22193,-0.30762 0.47851,-0.30761 0.73486,-0.76904 0.26489,-0.46142 0.35034,-1.02539 0.0854,-0.56396 0.0854,-1.06811 l 0,-7.17774 1.1792,0 0,7.17774 z"
         style="font-size:17.5px"
         id="path4267"
         inkscape:connector-curvature="0" />
      <path
         d="m 274.89816,151.6575 -3.72558,11.15112 -1.58936,0 -3.6914,-11.15112 1.23901,0 3.25561,9.96338 3.23853,-9.96338 1.27319,0 z"
         style="font-size:17.5px"
         id="path4269"
         inkscape:connector-curvature="0" />
      <path
         d="m 284.46848,151.6575 -2.00806,11.15112 -1.38428,0 -1.13647,-5.44311 -1.15357,5.44311 -1.36719,0 -1.99096,-11.15112 1.23901,0 1.57227,9.17725 1.11938,-5.98999 1.15357,0 1.12793,5.98999 1.57226,-9.17725 1.25611,0 z"
         style="font-size:17.5px"
         id="path4271"
         inkscape:connector-curvature="0" />
      <path
         d="m 293.68845,162.80862 -3.16163,0 0,-0.99975 0.75196,0 -1.75171,-3.65723 -1.7688,3.65723 0.75195,0 0,0.99975 -3.17016,0 0,-0.99975 1.0852,0 2.41822,-4.61426 -2.37549,-4.53735 -0.9314,0 0,-0.99976 3.18726,0 0,0.99976 -0.9314,0 1.73462,3.57177 1.68335,-3.57177 -0.89722,0 0,-0.99976 3.18726,0 0,0.99976 -0.96558,0 -2.32422,4.53735 2.39258,4.61426 1.08521,0 0,0.99975 z"
         style="font-size:17.5px"
         id="path4273"
         inkscape:connector-curvature="0" />
      <path
         d="m 303.24167,152.65726 -0.90576,0 -2.65747,5.34057 0,3.81104 1.79443,0 0,0.99975 -4.77661,0 0,-0.99975 1.80298,0 0,-3.81104 -2.65747,-5.34057 -0.90577,0 0,-0.99976 3.14454,0 0,0.99976 -0.92286,0 1.9397,4.2041 1.92261,-4.2041 -0.92285,0 0,-0.99976 3.14453,0 0,0.99976 z"
         style="font-size:17.5px"
         id="path4275"
         inkscape:connector-curvature="0" />
      <path
         d="m 312.25656,162.80862 -7.16064,0 0,-0.99975 5.60547,-9.15161 -4.60572,0 0,2.73437 -0.99975,0 0,-3.73413 6.9812,0 0,0.99976 -5.54566,9.15161 4.72535,0 0,-2.7771 0.99975,0 0,3.77685 z"
         style="font-size:17.5px"
         id="path4277"
         inkscape:connector-curvature="0" />
      <path
         d="m 73.588348,180.72733 q 0,0.93139 -0.299072,1.69189 -0.290527,0.7605 -0.845947,1.30737 -0.546875,0.53833 -1.315918,0.84595 -0.769043,0.30762 -1.717529,0.30762 -0.931397,0 -1.70044,-0.30762 -0.769043,-0.30762 -1.324463,-0.84595 -0.546875,-0.54687 -0.845947,-1.30737 -0.290527,-0.7605 -0.290527,-1.69189 0,-0.90577 0.290527,-1.68335 0.299072,-0.78614 0.845947,-1.33301 0.55542,-0.55542 1.324463,-0.86304 0.769043,-0.31616 1.70044,-0.31616 0.948486,0 1.717529,0.31616 0.769043,0.30762 1.315918,0.86304 0.55542,0.54687 0.845947,1.33301 0.299072,0.77758 0.299072,1.68335 z m -1.170654,0 q 0,-0.6836 -0.205078,-1.25611 -0.196533,-0.58105 -0.5896,-1.01684 -0.393066,-0.43579 -0.957031,-0.6836 -0.55542,-0.2478 -1.256103,-0.2478 -0.700684,0 -1.264649,0.2478 -0.55542,0.24781 -0.939941,0.6836 -0.384522,0.43579 -0.5896,1.01684 -0.196533,0.57251 -0.196533,1.25611 0,0.68359 0.196533,1.26464 0.205078,0.57251 0.5896,0.99121 0.384521,0.41871 0.939941,0.65796 0.563965,0.23926 1.264649,0.23926 0.700683,0 1.256103,-0.23926 0.563965,-0.23925 0.957031,-0.65796 0.393067,-0.4187 0.5896,-0.99121 0.205078,-0.58105 0.205078,-1.26464 z"
         style="font-size:17.5px"
         id="path4279"
         inkscape:connector-curvature="0" />
      <path
         d="m 83.252655,179.12088 q 0,1.11938 -0.230713,2.16187 -0.230713,1.04248 -0.734863,1.83715 -0.504151,0.79468 -1.324463,1.28174 -0.811768,0.47852 -1.982422,0.47852 -1.170654,0 -1.990967,-0.47852 -0.811767,-0.48706 -1.324463,-1.28174 -0.50415,-0.79467 -0.726318,-1.83715 -0.230713,-1.04249 -0.230713,-2.16187 0,-1.11938 0.230713,-2.16187 0.222168,-1.04248 0.734863,-1.8457 0.521241,-0.80322 1.333008,-1.28174 0.820313,-0.48706 1.973877,-0.48706 1.153565,0 1.965332,0.48706 0.820313,0.47852 1.324463,1.28174 0.50415,0.80322 0.743408,1.8457 0.239258,1.04249 0.239258,2.16187 z m -1.179199,0 q 0,-1.10229 -0.213623,-1.98242 -0.205078,-0.88867 -0.598145,-1.51245 -0.393066,-0.62378 -0.974121,-0.94849 -0.57251,-0.33325 -1.307373,-0.33325 -0.914307,0 -1.512451,0.42724 -0.5896,0.42725 -0.948486,1.11939 -0.358887,0.69214 -0.504151,1.53809 -0.136719,0.84594 -0.136719,1.69189 0,0.8374 0.136719,1.69189 0.145264,0.84595 0.504151,1.52955 0.358886,0.67504 0.948486,1.11084 0.598144,0.42724 1.512451,0.42724 0.905762,0 1.503906,-0.42724 0.598145,-0.4358 0.957032,-1.11084 0.358886,-0.6836 0.495605,-1.52955 0.136719,-0.85449 0.136719,-1.69189 z"
         style="font-size:17.5px"
         id="path4281"
         inkscape:connector-curvature="0" />
      <path
         d="m 85.4487,179.12088 q 0,1.23901 0.299072,2.32422 l 5.220947,-5.51148 q -0.410156,-0.76904 -1.016845,-1.17919 -0.598145,-0.41016 -1.401367,-0.41016 -1.503907,0 -2.307129,1.28174 -0.794678,1.27319 -0.794678,3.49487 z m 0.700684,3.27271 q 0.845947,1.5039 2.401123,1.5039 1.469726,0 2.281494,-1.27319 0.811767,-1.28174 0.811767,-3.50342 0,-0.61523 -0.0769,-1.16211 -0.0769,-0.55542 -0.213623,-1.05957 l -5.203857,5.49439 z m -1.871338,-3.27271 q 0,-1.11938 0.239257,-2.16187 0.239258,-1.04248 0.743409,-1.8457 0.50415,-0.80322 1.315918,-1.28174 0.820312,-0.48706 1.973877,-0.48706 1.153564,0 1.965332,0.48706 0.820312,0.47852 1.333007,1.28174 0.512696,0.80322 0.743409,1.8457 0.230713,1.04249 0.230713,2.16187 0,1.11938 -0.230713,2.16187 -0.230713,1.04248 -0.734864,1.83715 -0.50415,0.79468 -1.324463,1.28174 -0.811767,0.47852 -1.982421,0.47852 -1.170655,0 -1.990967,-0.47852 -0.811768,-0.48706 -1.324463,-1.28174 -0.50415,-0.79467 -0.726318,-1.83715 -0.230713,-1.04249 -0.230713,-2.16187 z"
         style="font-size:17.5px"
         id="path4283"
         inkscape:connector-curvature="0" />
      <path
         d="m 102.17966,181.54764 q 0,0.88012 -0.31617,1.5039 -0.31616,0.61524 -0.87158,1.02539 -0.54687,0.41016 -1.29028,0.60669 -0.743409,0.19654 -1.580811,0.19654 -0.854492,0 -1.589355,-0.19654 -0.734864,-0.19653 -1.290284,-0.60669 -0.546875,-0.41015 -0.863037,-1.02539 -0.316162,-0.62378 -0.316162,-1.5039 0,-0.45288 0.162354,-0.91431 0.170898,-0.46142 0.478515,-0.85449 0.316162,-0.40161 0.760498,-0.65796 0.452881,-0.26489 0.991211,-0.33325 -0.46997,-0.0513 -0.837402,-0.30762 -0.367432,-0.25635 -0.623779,-0.59814 -0.247803,-0.3418 -0.393067,-0.74341 -0.136718,-0.40161 -0.136718,-0.76904 0,-0.75196 0.299072,-1.31592 0.299072,-0.57251 0.803222,-0.94849 0.504151,-0.37598 1.170655,-0.56396 0.666504,-0.19654 1.384277,-0.19654 0.717774,0 1.384277,0.19654 0.666504,0.18798 1.170654,0.56396 0.50415,0.37598 0.80322,0.94849 0.29908,0.56396 0.29908,1.31592 0,0.36743 -0.14527,0.76904 -0.13672,0.40161 -0.39306,0.74341 -0.24781,0.34179 -0.62378,0.59814 -0.37598,0.25635 -0.854496,0.30762 0.546876,0.0684 0.991216,0.33325 0.44433,0.25635 0.76049,0.65796 0.31617,0.39307 0.48706,0.85449 0.17945,0.46143 0.17945,0.91431 z m -1.57227,-5.17822 q 0,-0.93995 -0.666503,-1.47828 -0.666503,-0.54687 -1.820068,-0.54687 -1.153564,0 -1.820068,0.54687 -0.666504,0.53833 -0.666504,1.47828 0,0.88012 0.632324,1.40136 0.632324,0.52124 1.854248,0.52124 1.221924,0 1.854248,-0.52124 0.632323,-0.52124 0.632323,-1.40136 z m 0.40161,5.17822 q 0,-0.60669 -0.23926,-1.03394 -0.23071,-0.43579 -0.64086,-0.70068 -0.401616,-0.27344 -0.914311,-0.39307 -0.512695,-0.12817 -1.09375,-0.12817 -0.581055,0 -1.09375,0.12817 -0.512695,0.11963 -0.922851,0.39307 -0.401612,0.26489 -0.64087,0.70068 -0.230713,0.42725 -0.230713,1.03394 0,0.59814 0.230713,1.03393 0.239258,0.43579 0.64087,0.72632 0.410156,0.29053 0.922851,0.43579 0.512695,0.13672 1.09375,0.13672 0.581055,0 1.09375,-0.13672 0.512695,-0.14526 0.914311,-0.43579 0.41015,-0.29053 0.64086,-0.72632 0.23926,-0.43579 0.23926,-1.03393 z"
         style="font-size:17.5px"
         id="path4285"
         inkscape:connector-curvature="0" />
      <path
         d="m 118.04758,175.1304 -1.58936,0 0,-1.5979 1.58936,0 0,1.5979 z m 1.58935,9.55322 -4.77661,0 0,-0.99975 1.80298,0 0,-5.96436 -1.80298,0 0,-0.99975 2.98218,0 0,6.96411 1.79443,0 0,0.99975 z"
         style="font-size:17.5px"
         id="path4287"
         inkscape:connector-curvature="0" />
      <path
         d="m 129.20724,184.68362 -4.77661,0 0,-0.99975 1.80298,0 0,-9.15161 -1.80298,0 0,-0.99976 4.77661,0 0,0.99976 -1.79443,0 0,9.15161 1.79443,0 0,0.99975 z"
         style="font-size:17.5px"
         id="path4289"
         inkscape:connector-curvature="0" />
      <path
         d="m 138.77756,184.68362 -4.77661,0 0,-0.99975 1.80297,0 0,-9.15161 -1.80297,0 0,-0.99976 2.98217,0 0,10.15137 1.79444,0 0,0.99975 z"
         style="font-size:17.5px"
         id="path4291"
         inkscape:connector-curvature="0" />
      <path
         d="m 149.52707,184.68362 -7.12647,0 0,-11.15112 1.17066,0 0,10.15137 5.95581,0 0,0.99975 z"
         style="font-size:17.5px"
         id="path4293"
         inkscape:connector-curvature="0" />
      <path
         d="m 157.91818,184.68362 -4.77661,0 0,-0.99975 1.80298,0 0,-7.61353 q -0.15381,0.35034 -0.48706,0.75196 -0.33325,0.39306 -0.78613,0.72631 -0.45288,0.32471 -0.99976,0.54688 -0.53833,0.22217 -1.11938,0.22217 l 0,-1.21338 q 0.52124,0 1.11938,-0.32471 0.59814,-0.32471 1.1023,-0.82886 0.50415,-0.50415 0.8374,-1.14502 0.33325,-0.64086 0.33325,-1.27319 l 1.1792,0 0,10.15137 1.79443,0 0,0.99975 z"
         style="font-size:17.5px"
         id="path4295"
         inkscape:connector-curvature="0" />
      <path
         d="m 177.04172,187.87088 -0.78614,0 q -0.52124,0 -0.96557,-0.18799 -0.43579,-0.17944 -0.75195,-0.4956 -0.30762,-0.31617 -0.48707,-0.7605 -0.17089,-0.44434 -0.17089,-0.97412 l 0,-3.62305 q 0,-1.43555 -1.5979,-1.43555 l 0,-0.95703 q 1.5979,0 1.5979,-1.43554 l 0,-3.67432 q 0,-0.52979 0.17089,-0.96558 0.17945,-0.43579 0.48707,-0.75195 0.31616,-0.31616 0.75195,-0.48706 0.44433,-0.17944 0.96557,-0.17944 l 0.78614,0 0,0.94848 -0.78614,0 q -1.45263,0 -1.45263,1.43555 l 0,3.67432 q 0,0.29052 -0.11109,0.60668 -0.11108,0.31617 -0.30761,0.5896 -0.18799,0.27344 -0.46143,0.47852 -0.27344,0.19653 -0.5896,0.2478 0.31616,0.0513 0.58106,0.24781 0.26489,0.18798 0.46142,0.46142 0.20508,0.27344 0.31616,0.5896 0.11109,0.30762 0.11109,0.60669 l 0,3.62305 q 0,1.45263 1.45263,1.45263 l 0.78614,0 0,0.96558 z"
         style="font-size:17.5px"
         id="path4297"
         inkscape:connector-curvature="0" />
      <path
         d="m 186.61203,180.39407 q -1.57227,0 -1.57227,1.43555 l 0,3.64014 q 0,0.52978 -0.17944,0.96557 -0.1709,0.43579 -0.4956,0.7605 -0.32471,0.32471 -0.7605,0.49561 -0.43579,0.17944 -0.95703,0.17944 l -0.79468,0 0,-0.96558 0.79468,0 q 1.427,0 1.427,-1.43554 l 0,-3.64014 q 0,-0.29907 0.11108,-0.61523 0.11963,-0.32471 0.31616,-0.59815 0.20508,-0.27344 0.47852,-0.45288 0.27344,-0.18799 0.5896,-0.23926 -0.31616,-0.0684 -0.59814,-0.25634 -0.28199,-0.19654 -0.47852,-0.46998 -0.18799,-0.27343 -0.30762,-0.5896 -0.11108,-0.31616 -0.11108,-0.60668 l 0,-3.67432 q 0,-1.43555 -1.427,-1.43555 l -0.79468,0 0,-0.94848 0.79468,0 q 0.52124,0 0.95703,0.18798 0.43579,0.17945 0.7605,0.49561 0.3247,0.31616 0.4956,0.75195 0.17944,0.43579 0.17944,0.94849 l 0,3.67432 q 0,1.43554 1.57227,1.43554 l 0,0.95703 z"
         style="font-size:17.5px"
         id="path4299"
         inkscape:connector-curvature="0" />
      <path
         d="m 205.76974,187.87088 -3.17871,0 0,-15.92773 3.17871,0 0,0.94848 -2.23876,0 0,14.01367 2.23876,0 0,0.96558 z"
         style="font-size:17.5px"
         id="path4301"
         inkscape:connector-curvature="0" />
      <path
         d="m 213.7507,187.87088 -3.18725,0 0,-0.96558 2.24731,0 0,-14.01367 -2.24731,0 0,-0.94848 3.18725,0 0,15.92773 z"
         style="font-size:17.5px"
         id="path4303"
         inkscape:connector-curvature="0" />
      <path
         d="m 235.65988,184.59818 q 0,0.82031 -0.28198,1.46118 -0.28198,0.64087 -0.79468,1.0852 -0.50415,0.44434 -1.19629,0.67505 -0.68359,0.23926 -1.52954,0.23926 -1.18774,0 -2.02515,-0.44434 -0.82885,-0.44433 -1.43554,-1.28174 l 0.82031,-0.63232 q 0.36743,0.55542 1.05957,0.9314 0.69214,0.37597 1.58081,0.37597 1.21338,0 1.91406,-0.61523 0.70923,-0.60669 0.70923,-1.76026 l 0,-0.85449 q -1.04248,0.92285 -2.37549,0.92285 -1.87133,0 -2.93945,-1.06811 -1.06811,-1.06812 -1.06811,-2.92236 0,-0.90577 0.27343,-1.66626 0.28199,-0.76905 0.79468,-1.32447 0.52124,-0.56396 1.26465,-0.87158 0.74341,-0.31616 1.6748,-0.31616 0.64942,0 1.25611,0.23071 0.61523,0.22217 1.11938,0.67505 l 0,-0.71777 1.1792,0 0,7.87842 z m -1.1792,-6.02417 q -0.50415,-0.55542 -1.11084,-0.80323 -0.59814,-0.2478 -1.26465,-0.2478 -0.70068,0 -1.23901,0.2478 -0.52978,0.24781 -0.88013,0.67505 -0.35034,0.42725 -0.53833,1.01685 -0.17944,0.58105 -0.17944,1.24756 0,1.36718 0.70923,2.17895 0.70923,0.81177 2.12768,0.81177 0.66651,0 1.26465,-0.2478 0.60669,-0.25635 1.11084,-0.82032 l 0,-4.05883 z"
         style="font-size:17.5px"
         id="path4305"
         inkscape:connector-curvature="0" />
      <path
         d="m 237.48849,177.33499 q 0,-0.9314 0.30762,-1.66626 0.30762,-0.73486 0.84595,-1.24756 0.54687,-0.52124 1.29028,-0.79467 0.74341,-0.28199 1.60645,-0.28199 1.17065,0 1.98242,0.48706 0.81177,0.47852 1.29883,1.28174 0.4956,0.80322 0.70923,1.83716 0.22216,1.03394 0.22216,2.15332 0,1.13647 -0.29907,2.17896 -0.29907,1.04248 -0.88867,1.8457 -0.58105,0.80322 -1.47827,1.28174 -0.88867,0.46997 -2.05933,0.46997 -1.65771,0 -2.76001,-1.16211 l 0.76905,-0.6836 q 0.38452,0.42725 0.88867,0.64087 0.51269,0.20508 1.10229,0.20508 0.89722,0 1.57227,-0.3418 0.68359,-0.34179 1.14502,-0.94848 0.46997,-0.61524 0.69214,-1.46973 0.23071,-0.86304 0.23071,-1.89697 -0.13672,0.43579 -0.46143,0.82031 -0.3247,0.38452 -0.76049,0.66651 -0.4358,0.28198 -0.95704,0.45288 -0.51269,0.16235 -1.0083,0.16235 -0.87158,0 -1.60644,-0.29907 -0.73487,-0.29907 -1.26465,-0.82031 -0.52124,-0.52979 -0.82031,-1.26465 -0.29908,-0.73487 -0.29908,-1.60645 z m 1.1792,0 q 0,0.63233 0.18799,1.18775 0.19654,0.54687 0.55542,0.94848 0.35889,0.40161 0.88013,0.63233 0.52978,0.22216 1.18774,0.22216 0.64942,0 1.18775,-0.20507 0.54687,-0.21363 0.93139,-0.5896 0.38453,-0.37598 0.5896,-0.90577 0.21363,-0.53833 0.21363,-1.18774 0,-0.63232 -0.17945,-1.18774 -0.1709,-0.56397 -0.52978,-0.99121 -0.35034,-0.42725 -0.88867,-0.66651 -0.52979,-0.2478 -1.26465,-0.2478 -0.63233,0 -1.16211,0.21362 -0.52124,0.20508 -0.90576,0.5896 -0.38452,0.38452 -0.59815,0.94849 -0.20508,0.55542 -0.20508,1.23901 z"
         style="font-size:17.5px"
         id="path4307"
         inkscape:connector-curvature="0" />
      <path
         d="m 247.25534,180.71024 q 0,-0.90577 0.29053,-1.67481 0.29053,-0.77759 0.81177,-1.33301 0.52124,-0.56396 1.26464,-0.86303 0.75196,-0.30762 1.67481,-0.30762 1.23901,0 2.32422,0.92285 l 0,-0.73486 1.1792,0 0,11.15112 -1.1792,0 0,-3.90503 q -0.50415,0.45288 -1.1023,0.68359 -0.5896,0.23072 -1.22192,0.23072 -0.92285,0 -1.67481,-0.30762 -0.7434,-0.30762 -1.26464,-0.85449 -0.52124,-0.55542 -0.81177,-1.31592 -0.29053,-0.7605 -0.29053,-1.69189 z m 1.17065,0 q 0,0.6665 0.17945,1.24755 0.18799,0.57251 0.55542,0.99976 0.36743,0.42725 0.89721,0.67505 0.53834,0.2478 1.23902,0.2478 0.6665,0 1.23901,-0.23926 0.58106,-0.23925 1.08521,-0.79467 l 0,-4.27246 q -0.50415,-0.55542 -1.08521,-0.80323 -0.57251,-0.2478 -1.23901,-0.2478 -0.70068,0 -1.23902,0.2478 -0.52978,0.24781 -0.89721,0.67505 -0.36743,0.42725 -0.55542,1.01685 -0.17945,0.58105 -0.17945,1.24756 z"
         style="font-size:17.5px"
         id="path4309"
         inkscape:connector-curvature="0" />
      <path
         d="m 264.85788,181.76126 q -0.43579,1.43555 -1.427,2.2815 -0.99121,0.8374 -2.49512,0.8374 -1.17065,0 -1.98242,-0.47852 -0.81177,-0.48706 -1.33301,-1.28174 -0.51269,-0.79467 -0.74341,-1.83715 -0.22217,-1.04249 -0.22217,-2.16187 0,-1.11938 0.22217,-2.16187 0.23072,-1.04248 0.74341,-1.8457 0.52124,-0.80322 1.33301,-1.28174 0.81177,-0.48706 1.98242,-0.48706 1.03394,0 1.7688,0.36743 0.73486,0.36744 1.0852,1.11939 l 0,-1.29883 0.99976,0 0,3.65723 -0.99976,0 q 0,-0.5896 -0.23071,-1.11084 -0.22217,-0.52979 -0.60669,-0.91431 -0.38452,-0.38452 -0.9143,-0.59814 -0.52124,-0.22217 -1.1023,-0.22217 -0.90576,0 -1.50391,0.42724 -0.5896,0.42725 -0.94848,1.11939 -0.35889,0.69214 -0.5127,1.53809 -0.14526,0.84594 -0.14526,1.69189 0,0.8374 0.14526,1.69189 0.15381,0.84595 0.5127,1.52955 0.35888,0.67504 0.94848,1.11084 0.59815,0.42724 1.50391,0.42724 2.08496,0 2.90527,-2.52075 l 1.01685,0.40161 z"
         style="font-size:17.5px"
         id="path4311"
         inkscape:connector-curvature="0" />
      <path
         d="m 274.79562,179.13797 q 0,1.13647 -0.23925,2.17041 -0.23072,1.03394 -0.75196,1.82861 -0.51269,0.79468 -1.333,1.2732 -0.81177,0.46997 -1.96534,0.46997 -1.17065,0 -1.98242,-0.47852 -0.81177,-0.48706 -1.33301,-1.28174 -0.51269,-0.79467 -0.7434,-1.83715 -0.22217,-1.04249 -0.22217,-2.16187 0,-1.11938 0.22217,-2.16187 0.23071,-1.04248 0.7434,-1.8457 0.52124,-0.80322 1.33301,-1.28174 0.81177,-0.48706 1.98242,-0.48706 1.03394,0 1.7688,0.36743 0.73487,0.36744 1.08521,1.11939 l 0,-1.29883 0.99975,0 0,3.65723 -0.99975,0 q 0,-0.60669 -0.23072,-1.12793 -0.22216,-0.52979 -0.60669,-0.90576 -0.38452,-0.37598 -0.9143,-0.5896 -0.52124,-0.22217 -1.1023,-0.22217 -0.90576,0 -1.5039,0.42724 -0.5896,0.42725 -0.94849,1.11939 -0.35889,0.69214 -0.51269,1.53809 -0.14527,0.84594 -0.14527,1.69189 0,0.8374 0.14527,1.69189 0.1538,0.84595 0.51269,1.52955 0.35889,0.67504 0.94849,1.11084 0.59814,0.42724 1.5039,0.42724 1.3501,0 2.12769,-1.04248 0.77759,-1.04248 0.92285,-2.93091 l -2.46948,0 0,-0.99975 3.70849,0 0,0.23071 z"
         style="font-size:17.5px"
         id="path4313"
         inkscape:connector-curvature="0" />
      <path
         d="m 284.22922,179.12088 q 0,1.06812 -0.20508,2.05933 -0.19653,0.98266 -0.64941,1.76025 -0.44434,0.77759 -1.16211,1.29028 -0.71778,0.50415 -1.73462,0.60669 0.19653,1.14502 0.78613,1.58081 0.59814,0.43579 1.75171,0.43579 0.29907,0 0.50415,-0.009 0.21362,-0.009 0.41016,-0.0256 l 0,0.99976 q -0.24781,0.0171 -0.47852,0.0256 -0.22217,0.009 -0.43579,0.009 -1.74317,0 -2.63184,-0.74341 -0.88012,-0.74341 -1.07666,-2.29004 -0.93994,-0.11963 -1.63208,-0.60669 -0.69214,-0.4956 -1.13647,-1.2561 -0.43579,-0.7605 -0.64087,-1.74316 -0.21362,-0.99121 -0.21362,-2.09351 0,-1.11938 0.23071,-2.16187 0.22217,-1.04248 0.73486,-1.8457 0.52124,-0.80322 1.33301,-1.28174 0.82031,-0.48706 1.97388,-0.48706 1.15356,0 1.96533,0.48706 0.82031,0.47852 1.32446,1.28174 0.50415,0.80322 0.74341,1.8457 0.23926,1.04249 0.23926,2.16187 z m -1.1792,0 q 0,-0.84595 -0.14527,-1.69189 -0.14526,-0.84595 -0.4956,-1.53809 -0.35034,-0.69214 -0.95703,-1.11939 -0.60669,-0.42724 -1.49536,-0.42724 -0.91431,0 -1.51245,0.42724 -0.5896,0.42725 -0.94849,1.11939 -0.35889,0.69214 -0.50415,1.53809 -0.13672,0.84594 -0.13672,1.69189 0,2.22168 0.80322,3.49487 0.81177,1.26465 2.29859,1.26465 1.46972,0 2.28149,-1.26465 0.81177,-1.27319 0.81177,-3.49487 z"
         style="font-size:17.5px"
         id="path4315"
         inkscape:connector-curvature="0" />
      <path
         d="m 300.66965,181.49637 q 0.31616,0 0.52978,-0.19653 0.22217,-0.20508 0.35889,-0.55542 0.14526,-0.35035 0.23071,-0.83741 0.094,-0.4956 0.16236,-1.05102 l 1.15356,0.11963 q -0.0513,0.76904 -0.23926,1.427 -0.17944,0.65796 -0.47851,1.13647 -0.29908,0.47852 -0.73487,0.7605 -0.43579,0.28198 -0.98266,0.28198 -0.52124,0 -0.88013,-0.19653 -0.35889,-0.20508 -0.60669,-0.50415 -0.23926,-0.29907 -0.42725,-0.64087 -0.17944,-0.3418 -0.35888,-0.63232 -0.1709,-0.29908 -0.38452,-0.49561 -0.21363,-0.20508 -0.50415,-0.20508 -0.31617,0 -0.53833,0.20508 -0.21363,0.19653 -0.35889,0.54688 -0.13672,0.35034 -0.23071,0.82885 -0.0855,0.47852 -0.15381,1.04248 l -1.15357,-0.12817 q 0.0513,-0.75195 0.23072,-1.40991 0.18798,-0.66651 0.48706,-1.14502 0.29907,-0.48706 0.72632,-0.7605 0.42724,-0.28198 0.99121,-0.28198 0.52124,0 0.88012,0.20508 0.35889,0.19653 0.60669,0.4956 0.25635,0.29053 0.43579,0.64087 0.18799,0.35034 0.35889,0.64941 0.17944,0.29908 0.37598,0.50416 0.20507,0.19653 0.50415,0.19653 z"
         style="font-size:17.5px"
         id="path4317"
         inkscape:connector-curvature="0" />
      <path
         d="m 312.64108,181.09476 -7.96386,0 0,-0.99976 7.96386,0 0,0.99976 z"
         style="font-size:17.5px"
         id="path4319"
         inkscape:connector-curvature="0" />
      <path
         d="m 322.2114,181.09476 -3.48633,0 0,3.47778 -0.99121,0 0,-3.47778 -3.48633,0 0,-0.99976 3.48633,0 0,-3.47778 0.99121,0 0,3.47778 3.48633,0 0,0.99976 z"
         style="font-size:17.5px"
         id="path4321"
         inkscape:connector-curvature="0" />
      <path
         d="m 331.78171,179.22342 -7.96387,0 0,-1.01685 7.96387,0 0,1.01685 z m 0,3.75976 -7.96387,0 0,-0.99975 7.96387,0 0,0.99975 z"
         style="font-size:17.5px"
         id="path4323"
         inkscape:connector-curvature="0" />
      <path
         d="m 339.65158,180.59915 -4.375,4.375 -0.6665,-0.67505 3.6914,-3.69995 -3.6914,-3.6914 0.6665,-0.6836 4.375,4.375 z"
         style="font-size:17.5px"
         id="path4325"
         inkscape:connector-curvature="0" />
    </g>
  </g>
</svg>
