<?xml version="1.0" encoding="UTF-8" standalone="no"?>
<!-- Created with Inkscape (http://www.inkscape.org/) -->

<svg
   xmlns:dc="http://purl.org/dc/elements/1.1/"
   xmlns:cc="http://creativecommons.org/ns#"
   xmlns:rdf="http://www.w3.org/1999/02/22-rdf-syntax-ns#"
   xmlns:svg="http://www.w3.org/2000/svg"
   xmlns="http://www.w3.org/2000/svg"
   xmlns:sodipodi="http://sodipodi.sourceforge.net/DTD/sodipodi-0.dtd"
   xmlns:inkscape="http://www.inkscape.org/namespaces/inkscape"
   width="87.599129mm"
   height="30.284803mm"
   viewBox="0 0 310.39061 107.30836"
   id="svg2"
   version="1.1"
   inkscape:version="0.91 r13725"
   sodipodi:docname="Arimo Nerd Font.svg">
  <defs
     id="defs4" />
  <sodipodi:namedview
     id="base"
     pagecolor="#ffffff"
     bordercolor="#666666"
     borderopacity="1.0"
     inkscape:pageopacity="0.0"
     inkscape:pageshadow="2"
     inkscape:zoom="0.7"
     inkscape:cx="-52.910858"
     inkscape:cy="-401.18983"
     inkscape:document-units="px"
     inkscape:current-layer="layer1"
     showgrid="false"
     inkscape:window-width="1861"
     inkscape:window-height="1056"
     inkscape:window-x="59"
     inkscape:window-y="24"
     inkscape:window-maximized="1" />
  <metadata
     id="metadata7">
    <rdf:RDF>
      <cc:Work
         rdf:about="">
        <dc:format>image/svg+xml</dc:format>
        <dc:type
           rdf:resource="http://purl.org/dc/dcmitype/StillImage" />
        <dc:title />
      </cc:Work>
    </rdf:RDF>
  </metadata>
  <g
     inkscape:label="Layer 1"
     inkscape:groupmode="layer"
     id="layer1"
     transform="translate(-62.910854,-81.006874)">
    <g
       style="font-style:normal;font-weight:normal;font-size:27.5px;line-height:125%;font-family:'Arimo Nerd Font';text-decoration: underline;text-decoration-line: underline;letter-spacing:0px;word-spacing:0px;fill:#ffffff;fill-opacity:1;stroke:none;stroke-width:1px;stroke-linecap:butt;stroke-linejoin:miter;stroke-opacity:1"
       id="text4136">
      <path
         d="m 78.527309,100.93363 -2.161865,-5.532225 -8.620605,0 -2.175293,5.532225 -2.658692,0 7.720948,-18.919676 2.913818,0 7.600098,18.919676 -2.618409,0 z m -6.472168,-16.986082 -0.120849,0.375976 q -0.335694,1.114502 -0.993653,2.860108 l -2.416992,6.217041 7.076416,0 -2.43042,-6.243897 Q 72.793667,86.230263 72.41769,85.06205 l -0.362549,-1.114502 z"
         id="path4140"
         inkscape:connector-curvature="0" />
      <path
         d="m 83.133022,100.93363 0,-11.145018 q 0,-1.530761 -0.08057,-3.383789 l 2.282715,0 q 0.107422,2.470703 0.107422,2.96753 l 0.05371,0 q 0.577392,-1.866455 1.329345,-2.55127 0.751953,-0.684814 2.121582,-0.684814 0.483399,0 0.980225,0.134277 l 0,2.215576 q -0.483399,-0.134277 -1.289063,-0.134277 -1.503906,0 -2.296142,1.30249 -0.792237,1.289063 -0.792237,3.706055 l 0,7.57324 -2.416992,0 z"
         id="path4142"
         inkscape:connector-curvature="0" />
      <path
         d="m 92.250454,83.316444 0,-2.30957 2.416992,0 0,2.30957 -2.416992,0 z m 0,17.617186 0,-14.528807 2.416992,0 0,14.528807 -2.416992,0 z"
         id="path4144"
         inkscape:connector-curvature="0" />
      <path
         d="m 106.8464,100.93363 0,-9.211424 q 0,-2.108154 -0.57739,-2.913818 -0.57739,-0.805664 -2.0813,-0.805664 -1.54419,0 -2.44385,1.18164 -0.89966,1.181641 -0.89966,3.330078 l 0,8.419188 -2.403561,0 0,-11.427 q 0,-2.537842 -0.08057,-3.101807 l 2.282721,0 q 0.0134,0.06714 0.0268,0.362549 0.0134,0.29541 0.0269,0.684815 0.0268,0.375976 0.0537,1.436767 l 0.0403,0 q 0.77881,-1.544189 1.78589,-2.148437 1.00708,-0.604248 2.45728,-0.604248 1.65161,0 2.60498,0.657959 0.96679,0.657959 1.34277,2.094726 l 0.0403,0 q 0.75196,-1.463623 1.81275,-2.108154 1.07422,-0.644531 2.59155,-0.644531 2.20215,0 3.1958,1.195068 1.00708,1.195068 1.00708,3.920898 l 0,9.681395 -2.39013,0 0,-9.211424 q 0,-2.108154 -0.5774,-2.913818 -0.57739,-0.805664 -2.0813,-0.805664 -1.58447,0 -2.4707,1.18164 -0.8728,1.168213 -0.8728,3.330078 l 0,8.419188 -2.39014,0 z"
         id="path4146"
         inkscape:connector-curvature="0" />
      <path
         d="m 133.60788,93.6558 q 0,3.813476 -1.67847,5.679932 -1.67847,1.866458 -4.87427,1.866458 -3.18237,0 -4.80713,-1.933597 -1.62475,-1.947022 -1.62475,-5.612793 0,-7.519531 6.51245,-7.519531 3.33008,0 4.90112,1.839599 1.57105,1.826172 1.57105,5.679932 z m -2.53785,0 q 0,-3.007813 -0.89965,-4.364014 -0.88623,-1.369629 -2.99439,-1.369629 -2.12158,0 -3.07495,1.396485 -0.93994,1.383056 -0.93994,4.337158 0,2.873535 0.92651,4.32373 0.93994,1.436768 2.94068,1.436768 2.17529,0 3.1018,-1.396484 0.93994,-1.396485 0.93994,-4.364014 z"
         id="path4148"
         inkscape:connector-curvature="0" />
      <path
         d="m 156.93185,100.93363 -10.12451,-16.113279 0.0671,1.30249 0.0671,2.242432 0,12.568357 -2.28272,0 0,-18.919676 2.98096,0 10.23193,16.220703 q -0.16113,-2.631836 -0.16113,-3.813476 l 0,-12.407227 2.30957,0 0,18.919676 -3.08838,0 z"
         id="path4150"
         inkscape:connector-curvature="0" />
      <path
         d="m 165.98214,94.179482 q 0,2.497558 1.03394,3.853759 1.03393,1.356201 3.02124,1.356201 1.57104,0 2.51099,-0.631103 0.95336,-0.631104 1.28906,-1.5979 l 2.12158,0.604248 q -1.30249,3.437503 -5.92163,3.437503 -3.22266,0 -4.91455,-1.920169 -1.67847,-1.920166 -1.67847,-5.706788 0,-3.598632 1.67847,-5.518798 1.69189,-1.920166 4.82056,-1.920166 6.40502,0 6.40502,7.720947 l 0,0.322266 -10.36621,0 z m 7.86866,-1.853028 q -0.20142,-2.296142 -1.16822,-3.343506 -0.96679,-1.060791 -2.77954,-1.060791 -1.75903,0 -2.79297,1.181641 -1.0205,1.168213 -1.10107,3.222656 l 7.8418,0 z"
         id="path4152"
         inkscape:connector-curvature="0" />
      <path
         d="m 179.49044,100.93363 0,-11.145018 q 0,-1.530761 -0.0806,-3.383789 l 2.28271,0 q 0.10742,2.470703 0.10742,2.96753 l 0.0537,0 q 0.57739,-1.866455 1.32934,-2.55127 0.75195,-0.684814 2.12158,-0.684814 0.4834,0 0.98023,0.134277 l 0,2.215576 q -0.4834,-0.134277 -1.28906,-0.134277 -1.50391,0 -2.29615,1.30249 -0.79223,1.289063 -0.79223,3.706055 l 0,7.57324 -2.417,0 z"
         id="path4154"
         inkscape:connector-curvature="0" />
      <path
         d="m 197.79245,98.597206 q -0.67139,1.396484 -1.78589,2.000734 -1.10108,0.60425 -2.73926,0.60425 -2.75269,0 -4.05518,-1.853031 -1.28906,-1.853027 -1.28906,-5.612793 0,-7.600097 5.34424,-7.600097 1.65161,0 2.75269,0.604248 1.10107,0.604248 1.77246,1.920166 l 0.0268,0 -0.0268,-1.624756 0,-6.029053 2.41699,0 0,16.932373 q 0,2.269283 0.0806,2.994383 l -2.30957,0 q -0.0403,-0.21484 -0.094,-0.99365 -0.0403,-0.778809 -0.0403,-1.342774 l -0.0537,0 z M 190.4609,93.6558 q 0,3.048096 0.80567,4.364014 0.80566,1.315918 2.61841,1.315918 2.05444,0 2.98095,-1.42334 0.92652,-1.42334 0.92652,-4.417725 0,-2.886963 -0.92652,-4.229736 -0.92651,-1.342774 -2.9541,-1.342774 -1.82617,0 -2.64526,1.356201 -0.80567,1.342774 -0.80567,4.377442 z"
         id="path4156"
         inkscape:connector-curvature="0" />
      <path
         d="m 214.5234,84.108681 0,7.036133 10.5542,0 0,2.121582 -10.5542,0 0,7.667234 -2.56469,0 0,-18.919676 13.44116,0 0,2.094727 -10.87647,0 z"
         id="path4158"
         inkscape:connector-curvature="0" />
      <path
         d="m 240.65377,93.6558 q 0,3.813476 -1.67846,5.679932 -1.67847,1.866458 -4.87427,1.866458 -3.18237,0 -4.80713,-1.933597 -1.62475,-1.947022 -1.62475,-5.612793 0,-7.519531 6.51245,-7.519531 3.33007,0 4.90112,1.839599 1.57104,1.826172 1.57104,5.679932 z m -2.53784,0 q 0,-3.007813 -0.89966,-4.364014 -0.88623,-1.369629 -2.99438,-1.369629 -2.12158,0 -3.07495,1.396485 -0.93994,1.383056 -0.93994,4.337158 0,2.873535 0.92651,4.32373 0.93994,1.436768 2.94067,1.436768 2.1753,0 3.10181,-1.396484 0.93994,-1.396485 0.93994,-4.364014 z"
         id="path4160"
         inkscape:connector-curvature="0" />
      <path
         d="m 252.89987,100.93363 0,-9.211424 q 0,-1.436767 -0.28198,-2.229004 -0.28199,-0.792236 -0.89966,-1.141357 -0.61768,-0.349121 -1.81275,-0.349121 -1.7456,0 -2.75268,1.195068 -1.00708,1.195068 -1.00708,3.31665 l 0,8.419188 -2.41699,0 0,-11.427 q 0,-2.537842 -0.0806,-3.101807 l 2.28271,0 q 0.0134,0.06714 0.0269,0.362549 0.0134,0.29541 0.0268,0.684815 0.0269,0.375976 0.0537,1.436767 l 0.0403,0 q 0.83252,-1.503906 1.92016,-2.121582 1.10108,-0.631103 2.72584,-0.631103 2.39013,0 3.49121,1.195068 1.1145,1.181641 1.1145,3.920898 l 0,9.681395 -2.43042,0 z"
         id="path4162"
         inkscape:connector-curvature="0" />
      <path
         d="m 264.56857,100.82621 q -1.19507,0.32227 -2.44385,0.32227 -2.90039,0 -2.90039,-3.289799 l 0,-9.694824 -1.67847,0 0,-1.759034 1.77247,0 0.71166,-3.249511 1.61133,0 0,3.249511 2.68555,0 0,1.759034 -2.68555,0 0,9.171142 q 0,1.047363 0.3357,1.477051 0.34912,0.41626 1.19506,0.41626 0.4834,0 1.39649,-0.187989 l 0,1.785889 z"
         id="path4164"
         inkscape:connector-curvature="0" />
    </g>
    <g
       style="font-style:normal;font-weight:normal;font-size:27.5px;line-height:125%;font-family:'Arimo Nerd Font';letter-spacing:0px;word-spacing:0px;fill:#ffffff;fill-opacity:1;stroke:none;stroke-width:1px;stroke-linecap:butt;stroke-linejoin:miter;stroke-opacity:1"
       id="text4140">
      <path
         d="m 68.957001,141.10452 q -1.392823,0 -2.093506,-0.73486 -0.700684,-0.73486 -0.700684,-2.0166 0,-1.43555 0.939942,-2.20459 0.948486,-0.76904 3.050537,-0.82031 l 2.076416,-0.0342 0,-0.50415 q 0,-1.12793 -0.478516,-1.61499 -0.478515,-0.48707 -1.503906,-0.48707 -1.033936,0 -1.503906,0.35035 -0.469971,0.35034 -0.563965,1.11938 l -1.606445,-0.14526 q 0.393066,-2.49512 3.708496,-2.49512 1.743164,0 2.623291,0.80322 0.880127,0.79468 0.880127,2.30713 l 0,3.98194 q 0,0.68359 0.179443,1.03393 0.179443,0.3418 0.683594,0.3418 0.222168,0 0.50415,-0.0598 l 0,0.95703 q -0.581055,0.13672 -1.187744,0.13672 -0.854492,0 -1.247559,-0.44433 -0.384521,-0.45288 -0.435791,-1.40991 l -0.05127,0 q -0.5896,1.05957 -1.375733,1.5039 -0.777588,0.43579 -1.896972,0.43579 z m 0.350342,-1.15356 q 0.845947,0 1.503906,-0.38452 0.657959,-0.38452 1.033935,-1.05103 0.384522,-0.67505 0.384522,-1.38428 l 0,-0.76049 -1.68335,0.0342 q -1.085205,0.0171 -1.64917,0.22216 -0.55542,0.20508 -0.854492,0.63233 -0.299072,0.42724 -0.299072,1.11938 0,0.75196 0.401611,1.16211 0.410156,0.41016 1.16211,0.41016 z"
         style="font-size:17.5px"
         id="path4167"
         inkscape:connector-curvature="0" />
      <path
         d="m 84.158417,136.2681 q 0,4.83642 -3.400879,4.83642 -1.051026,0 -1.751709,-0.37597 -0.692139,-0.38453 -1.12793,-1.23047 l -0.01709,0 q 0,0.26489 -0.03418,0.81176 -0.03418,0.53834 -0.05127,0.62378 l -1.486816,0 q 0.05127,-0.46142 0.05127,-1.90551 l 0,-10.77515 1.538086,0 0,3.6145 q 0,0.55542 -0.03418,1.30738 l 0.03418,0 q 0.427246,-0.88868 1.12793,-1.2732 0.709228,-0.38452 1.751709,-0.38452 1.751709,0 2.572021,1.1792 0.828858,1.1792 0.828858,3.57178 z m -1.61499,0.0513 q 0,-1.9397 -0.512696,-2.7771 -0.512695,-0.83741 -1.66626,-0.83741 -1.298828,0 -1.896972,0.88868 -0.5896,0.88867 -0.5896,2.81982 0,1.82007 0.581055,2.69165 0.581055,0.86304 1.888428,0.86304 1.162109,0 1.674804,-0.85449 0.521241,-0.86304 0.521241,-2.79419 z"
         style="font-size:17.5px"
         id="path4169"
         inkscape:connector-curvature="0" />
      <path
         d="m 87.251678,136.2681 q 0,1.8457 0.581055,2.73437 0.581055,0.88867 1.751709,0.88867 0.820313,0 1.367188,-0.44433 0.55542,-0.44434 0.683593,-1.36719 l 1.555176,0.10254 q -0.179443,1.33301 -1.136474,2.12768 -0.957032,0.79468 -2.426758,0.79468 -1.939698,0 -2.965088,-1.22192 -1.016846,-1.23047 -1.016846,-3.58032 0,-2.33277 1.025391,-3.55469 1.02539,-1.23047 2.939453,-1.23047 1.418457,0 2.349853,0.73486 0.939942,0.73487 1.1792,2.02515 l -1.580811,0.11963 q -0.119629,-0.76904 -0.606689,-1.22192 -0.487061,-0.45289 -1.384278,-0.45289 -1.221924,0 -1.768799,0.81177 -0.546875,0.81177 -0.546875,2.73438 z"
         style="font-size:17.5px"
         id="path4171"
         inkscape:connector-curvature="0" />
      <path
         d="m 100.66721,139.44681 q -0.42725,0.88867 -1.136479,1.27319 -0.700683,0.38452 -1.743164,0.38452 -1.751709,0 -2.580566,-1.1792 -0.820313,-1.1792 -0.820313,-3.57177 0,-4.83643 3.400879,-4.83643 1.051026,0 1.751709,0.38452 0.700684,0.38452 1.127934,1.22193 l 0.0171,0 -0.0171,-1.03394 0,-3.83667 1.53808,0 0,10.77515 q 0,1.44409 0.0513,1.90551 l -1.46973,0 q -0.0256,-0.13671 -0.0598,-0.63232 -0.0256,-0.49561 -0.0256,-0.85449 l -0.0342,0 z m -4.665532,-3.14453 q 0,1.93969 0.512696,2.7771 0.512695,0.8374 1.66626,0.8374 1.307373,0 1.896976,-0.90576 0.5896,-0.90576 0.5896,-2.81128 0,-1.83716 -0.5896,-2.69165 -0.589603,-0.8545 -1.879887,-0.8545 -1.162109,0 -1.683349,0.86304 -0.512696,0.85449 -0.512696,2.78565 z"
         style="font-size:17.5px"
         id="path4173"
         inkscape:connector-curvature="0" />
      <path
         d="m 105.75143,136.63553 q 0,1.58935 0.65796,2.45239 0.65796,0.86304 1.92261,0.86304 0.99976,0 1.5979,-0.40161 0.60669,-0.40161 0.82031,-1.01685 l 1.3501,0.38452 q -0.82886,2.1875 -3.76831,2.1875 -2.05078,0 -3.12744,-1.22192 -1.06812,-1.22192 -1.06812,-3.63159 0,-2.29004 1.06812,-3.51197 1.07666,-1.22192 3.06763,-1.22192 4.07592,0 4.07592,4.91333 l 0,0.20508 -6.59668,0 z m 5.00733,-1.1792 q -0.12818,-1.46118 -0.74341,-2.12769 -0.61523,-0.67505 -1.7688,-0.67505 -1.11938,0 -1.77734,0.75196 -0.64942,0.74341 -0.70069,2.05078 l 4.99024,0 z"
         style="font-size:17.5px"
         id="path4175"
         inkscape:connector-curvature="0" />
      <path
         d="m 116.21896,132.8074 0,8.12622 -1.53808,0 0,-8.12622 -1.29883,0 0,-1.11938 1.29883,0 0,-1.04248 q 0,-1.26465 0.55542,-1.82007 0.55542,-0.55542 1.70044,-0.55542 0.64087,0 1.0852,0.10254 l 0,1.17065 q -0.38452,-0.0684 -0.68359,-0.0684 -0.5896,0 -0.85449,0.29908 -0.2649,0.29907 -0.2649,1.0852 l 0,0.82886 1.80298,0 0,1.11938 -1.80298,0 z"
         style="font-size:17.5px"
         id="path4177"
         inkscape:connector-curvature="0" />
      <path
         d="m 122.67038,144.56522 q -1.51245,0 -2.40967,-0.59815 -0.89722,-0.5896 -1.15356,-1.68335 l 1.54663,-0.22217 q 0.15381,0.64087 0.67505,0.98267 0.52978,0.35034 1.38427,0.35034 2.29859,0 2.29859,-2.69165 l 0,-1.48682 -0.0171,0 q -0.43579,0.88868 -1.19629,1.34156 -0.7605,0.44433 -1.77734,0.44433 -1.70044,0 -2.50367,-1.12793 -0.79467,-1.12793 -0.79467,-3.54614 0,-2.45239 0.85449,-3.6145 0.86304,-1.17065 2.61474,-1.17065 0.98267,0 1.70044,0.45288 0.72632,0.44433 1.11939,1.27319 l 0.0171,0 q 0,-0.25635 0.0342,-0.88867 0.0342,-0.63233 0.0684,-0.69214 l 1.46118,0 q -0.0513,0.46142 -0.0513,1.91406 l 0,7.06665 q 0,3.89649 -3.87085,3.89649 z m 2.34131,-8.2544 q 0,-1.12793 -0.30762,-1.9397 -0.30762,-0.82031 -0.87158,-1.24755 -0.55542,-0.4358 -1.26465,-0.4358 -1.1792,0 -1.71753,0.8545 -0.53833,0.85449 -0.53833,2.76855 0,1.89697 0.50415,2.72583 0.50415,0.82886 1.72608,0.82886 0.72631,0 1.29028,-0.42725 0.56396,-0.42724 0.87158,-1.22192 0.30762,-0.80322 0.30762,-1.90552 z"
         style="font-size:17.5px"
         id="path4179"
         inkscape:connector-curvature="0" />
      <path
         d="m 130.43771,133.26883 q 0.49561,-0.90576 1.18775,-1.32446 0.70068,-0.42725 1.7688,-0.42725 1.5039,0 2.21313,0.75195 0.71777,0.74341 0.71777,2.50367 l 0,6.16088 -1.54663,0 0,-5.86181 q 0,-0.97412 -0.17944,-1.44409 -0.17944,-0.47852 -0.5896,-0.70069 -0.41016,-0.22217 -1.13647,-0.22217 -1.08521,0 -1.74317,0.75196 -0.64941,0.75195 -0.64941,2.02514 l 0,5.45166 -1.53809,0 0,-12.68066 1.53809,0 0,3.29834 q 0,0.52124 -0.0342,1.07666 -0.0256,0.55542 -0.0342,0.64087 l 0.0256,0 z"
         style="font-size:17.5px"
         id="path4181"
         inkscape:connector-curvature="0" />
      <path
         d="m 138.64084,129.72269 0,-1.46973 1.53808,0 0,1.46973 -1.53808,0 z m 0,11.21093 0,-9.2456 1.53808,0 0,9.2456 -1.53808,0 z"
         style="font-size:17.5px"
         id="path4183"
         inkscape:connector-curvature="0" />
      <path
         d="m 142.53732,129.72269 0,-1.46973 1.53809,0 0,1.46973 -1.53809,0 z m 1.53809,12.35595 q 0,1.30738 -0.5127,1.89698 -0.51269,0.5896 -1.53808,0.5896 -0.65796,0 -1.08521,-0.0769 l 0,-1.18774 0.52979,0.0513 q 0.5896,0 0.82886,-0.30762 0.23925,-0.30762 0.23925,-1.19629 l 0,-10.15991 1.53809,0 0,10.39062 z"
         style="font-size:17.5px"
         id="path4185"
         inkscape:connector-curvature="0" />
      <path
         d="m 152.23581,140.93362 -3.12744,-4.22119 -1.12793,0.9314 0,3.28979 -1.53809,0 0,-12.68066 1.53809,0 0,7.92114 4.05884,-4.48608 1.80297,0 -3.75122,3.97339 3.94776,5.27221 -1.80298,0 z"
         style="font-size:17.5px"
         id="path4187"
         inkscape:connector-curvature="0" />
      <path
         d="m 155.19235,140.93362 0,-12.68066 1.53809,0 0,12.68066 -1.53809,0 z"
         style="font-size:17.5px"
         id="path4189"
         inkscape:connector-curvature="0" />
      <path
         d="m 164.47214,140.93362 0,-5.86181 q 0,-1.34155 -0.36743,-1.85425 -0.36744,-0.5127 -1.32447,-0.5127 -0.98266,0 -1.55517,0.75196 -0.57251,0.75195 -0.57251,2.11914 l 0,5.35766 -1.52954,0 0,-7.27172 q 0,-1.61499 -0.0513,-1.97388 l 1.45263,0 q 0.009,0.0427 0.0171,0.23071 0.009,0.18799 0.0171,0.43579 0.0171,0.23926 0.0342,0.91431 l 0.0256,0 q 0.4956,-0.98267 1.13647,-1.36719 0.64087,-0.38452 1.56372,-0.38452 1.05103,0 1.65772,0.4187 0.61523,0.4187 0.85449,1.33301 l 0.0256,0 q 0.47852,-0.9314 1.15357,-1.34155 0.68359,-0.41016 1.64917,-0.41016 1.40137,0 2.03369,0.7605 0.64087,0.7605 0.64087,2.49512 l 0,6.16088 -1.521,0 0,-5.86181 q 0,-1.34155 -0.36743,-1.85425 -0.36743,-0.5127 -1.32446,-0.5127 -1.0083,0 -1.57227,0.75196 -0.55542,0.74341 -0.55542,2.11914 l 0,5.35766 -1.52099,0 z"
         style="font-size:17.5px"
         id="path4191"
         inkscape:connector-curvature="0" />
      <path
         d="m 179.55392,140.93362 0,-5.86181 q 0,-0.91431 -0.17944,-1.41846 -0.17944,-0.50415 -0.57251,-0.72632 -0.39306,-0.22217 -1.15356,-0.22217 -1.11084,0 -1.75171,0.7605 -0.64087,0.7605 -0.64087,2.1106 l 0,5.35766 -1.53809,0 0,-7.27172 q 0,-1.61499 -0.0513,-1.97388 l 1.45264,0 q 0.009,0.0427 0.0171,0.23071 0.009,0.18799 0.0171,0.43579 0.0171,0.23926 0.0342,0.91431 l 0.0256,0 q 0.52979,-0.95703 1.22193,-1.3501 0.70068,-0.40161 1.73462,-0.40161 1.52099,0 2.22168,0.7605 0.70923,0.75195 0.70923,2.49512 l 0,6.16088 -1.54664,0 z"
         style="font-size:17.5px"
         id="path4193"
         inkscape:connector-curvature="0" />
      <path
         d="m 191.24338,136.30228 q 0,2.42675 -1.06812,3.6145 -1.06811,1.18774 -3.1018,1.18774 -2.02515,0 -3.05909,-1.23047 -1.03393,-1.23901 -1.03393,-3.57177 0,-4.78516 4.14429,-4.78516 2.11914,0 3.11889,1.17065 0.99976,1.16211 0.99976,3.61451 z m -1.61499,0 q 0,-1.91407 -0.57251,-2.7771 -0.56397,-0.87159 -1.90552,-0.87159 -1.3501,0 -1.95679,0.88868 -0.59814,0.88012 -0.59814,2.76001 0,1.82861 0.5896,2.75146 0.59814,0.91431 1.87134,0.91431 1.38427,0 1.97387,-0.88867 0.59815,-0.88868 0.59815,-2.7771 z"
         style="font-size:17.5px"
         id="path4195"
         inkscape:connector-curvature="0" />
      <path
         d="m 200.98459,136.2681 q 0,4.83642 -3.40088,4.83642 -2.13623,0 -2.87109,-1.60644 l -0.0427,0 q 0.0342,0.0684 0.0342,1.45263 l 0,3.61451 -1.53808,0 0,-10.98877 q 0,-1.42701 -0.0513,-1.88843 l 1.48681,0 q 0.009,0.0342 0.0256,0.2478 0.0171,0.20508 0.0342,0.64087 0.0256,0.43579 0.0256,0.59815 l 0.0342,0 q 0.41016,-0.8545 1.08521,-1.24756 0.67504,-0.40161 1.77734,-0.40161 1.70898,0 2.55493,1.14501 0.84595,1.14502 0.84595,3.59742 z m -1.61499,0.0342 q 0,-1.93116 -0.52124,-2.76001 -0.52124,-0.82886 -1.65772,-0.82886 -0.9143,0 -1.43554,0.38452 -0.5127,0.38452 -0.78614,1.20483 -0.26489,0.81177 -0.26489,2.11915 0,1.82006 0.58106,2.6831 0.58105,0.86304 1.88842,0.86304 1.14502,0 1.66626,-0.8374 0.52979,-0.84595 0.52979,-2.82837 z"
         style="font-size:17.5px"
         id="path4197"
         inkscape:connector-curvature="0" />
      <path
         d="m 205.86374,141.10452 q -1.76025,0 -2.58057,-1.18774 -0.82031,-1.18775 -0.82031,-3.56323 0,-4.83643 3.40088,-4.83643 1.05102,0 1.73462,0.37598 0.68359,0.36743 1.14502,1.23047 l 0.0171,0 q 0,-0.25635 0.0342,-0.88013 0.0342,-0.63233 0.0684,-0.67505 l 1.47827,0 q -0.0598,0.50415 -0.0598,2.52075 l 0,10.47608 -1.53808,0 0,-3.75122 0.0342,-1.40137 -0.0171,0 q -0.46143,0.9143 -1.13648,1.30737 -0.67505,0.38452 -1.76025,0.38452 z m 2.87964,-4.90478 q 0,-1.80298 -0.5896,-2.67456 -0.5896,-0.87159 -1.87988,-0.87159 -1.17066,0 -1.68335,0.87159 -0.5127,0.87158 -0.5127,2.7771 0,1.93969 0.5127,2.7771 0.52124,0.8374 1.66626,0.8374 1.30737,0 1.89697,-0.9314 0.5896,-0.93139 0.5896,-2.78564 z"
         style="font-size:17.5px"
         id="path4199"
         inkscape:connector-curvature="0" />
      <path
         d="m 212.68259,140.93362 0,-7.09228 q 0,-0.97412 -0.0513,-2.15332 l 1.45263,0 q 0.0684,1.57226 0.0684,1.88843 l 0.0342,0 q 0.36743,-1.18775 0.84595,-1.62354 0.47852,-0.43579 1.3501,-0.43579 0.30762,0 0.62378,0.0854 l 0,1.40991 q -0.30762,-0.0855 -0.82032,-0.0855 -0.95703,0 -1.46118,0.82886 -0.50415,0.82031 -0.50415,2.3584 l 0,4.81933 -1.53808,0 z"
         style="font-size:17.5px"
         id="path4201"
         inkscape:connector-curvature="0" />
      <path
         d="m 225.43161,138.37869 q 0,1.30738 -0.99121,2.0166 -0.98267,0.70923 -2.76001,0.70923 -1.72607,0 -2.66602,-0.56396 -0.93139,-0.57251 -1.21338,-1.77735 l 1.35865,-0.26489 q 0.19653,0.74341 0.81177,1.09375 0.61523,0.3418 1.70898,0.3418 1.17065,0 1.70898,-0.35889 0.54688,-0.35889 0.54688,-1.07666 0,-0.54687 -0.37598,-0.88867 -0.37597,-0.3418 -1.21338,-0.56397 l -1.10229,-0.29052 q -1.32446,-0.3418 -1.88843,-0.66651 -0.55542,-0.33325 -0.87158,-0.80322 -0.31616,-0.46997 -0.31616,-1.15356 0,-1.26465 0.89721,-1.92261 0.90577,-0.6665 2.63184,-0.6665 1.52954,0 2.42676,0.53833 0.90576,0.53833 1.14502,1.72607 l -1.38428,0.1709 q -0.12817,-0.61524 -0.69214,-0.93994 -0.55542,-0.33326 -1.49536,-0.33326 -1.04248,0 -1.53809,0.31617 -0.4956,0.31616 -0.4956,0.95703 0,0.39306 0.20508,0.64941 0.20507,0.25635 0.60669,0.43579 0.40161,0.17945 1.69189,0.49561 1.22192,0.30762 1.76025,0.57251 0.53833,0.25635 0.84595,0.57251 0.31616,0.31616 0.48706,0.73486 0.1709,0.41016 0.1709,0.93994 z"
         style="font-size:17.5px"
         id="path4203"
         inkscape:connector-curvature="0" />
      <path
         d="m 230.79782,140.86526 q -0.7605,0.20508 -1.55517,0.20508 -1.84571,0 -1.84571,-2.0935 l 0,-6.16944 -1.06811,0 0,-1.11938 1.12793,0 0.45288,-2.06787 1.02539,0 0,2.06787 1.70898,0 0,1.11938 -1.70898,0 0,5.83619 q 0,0.6665 0.21362,0.93994 0.22217,0.26489 0.7605,0.26489 0.30762,0 0.88867,-0.11963 l 0,1.13647 z"
         style="font-size:17.5px"
         id="path4205"
         inkscape:connector-curvature="0" />
      <path
         d="m 233.60056,131.68802 0,5.86182 q 0,0.9143 0.17944,1.41845 0.17944,0.50415 0.57251,0.72632 0.39306,0.22217 1.15356,0.22217 1.11084,0 1.75171,-0.7605 0.64087,-0.7605 0.64087,-2.1106 l 0,-5.35766 1.53809,0 0,7.27173 q 0,1.61499 0.0513,1.97387 l -1.45264,0 q -0.009,-0.0427 -0.0171,-0.23071 -0.009,-0.18799 -0.0256,-0.42724 -0.009,-0.24781 -0.0256,-0.92286 l -0.0256,0 q -0.52979,0.95703 -1.23047,1.35865 -0.69214,0.39306 -1.72608,0.39306 -1.52099,0 -2.23022,-0.75195 -0.70069,-0.7605 -0.70069,-2.50366 l 0,-6.16089 1.54664,0 z"
         style="font-size:17.5px"
         id="path4207"
         inkscape:connector-curvature="0" />
      <path
         d="m 245.8967,140.93362 -1.82007,0 -3.35815,-9.2456 1.64062,0 2.03369,6.01562 q 0.11109,0.3418 0.5896,2.02515 l 0.29907,-0.99976 0.33326,-1.0083 2.10205,-6.03271 1.63208,0 -3.45215,9.2456 z"
         style="font-size:17.5px"
         id="path4209"
         inkscape:connector-curvature="0" />
      <path
         d="m 259.4404,140.93362 -1.78589,0 -1.61499,-6.53686 -0.30762,-1.44409 q -0.0769,0.38452 -0.23925,1.11084 -0.16236,0.71777 -1.74317,6.87011 l -1.77734,0 -2.58911,-9.2456 1.52099,0 1.56372,6.28052 q 0.0598,0.20507 0.36743,1.69189 l 0.14527,-0.63232 1.93115,-7.34009 1.64917,0 1.61499,6.34888 0.39307,1.62353 0.26489,-1.18774 1.75171,-6.78467 1.5039,0 -2.64892,9.2456 z"
         style="font-size:17.5px"
         id="path4211"
         inkscape:connector-curvature="0" />
      <path
         d="m 268.89963,140.93362 -2.48657,-3.79394 -2.50367,3.79394 -1.65771,0 3.28979,-4.75097 -3.13598,-4.49463 1.70044,0 2.30713,3.59741 2.29003,-3.59741 1.71753,0 -3.13598,4.47754 3.33252,4.76806 -1.71753,0 z"
         style="font-size:17.5px"
         id="path4213"
         inkscape:connector-curvature="0" />
      <path
         d="m 272.43723,144.56522 q -0.63233,0 -1.05957,-0.094 l 0,-1.15356 q 0.3247,0.0513 0.71777,0.0513 1.43555,0 2.27295,-2.1106 l 0.14526,-0.36743 -3.66577,-9.20288 1.64062,0 1.94825,5.10986 q 0.0427,0.11963 0.10254,0.29053 0.0598,0.16235 0.38452,1.11084 0.3247,0.94849 0.35034,1.05957 l 0.59814,-1.68335 2.02515,-5.88745 1.62354,0 -3.55469,9.2456 q -0.57251,1.47828 -1.06812,2.19605 -0.4956,0.72632 -1.10229,1.07666 -0.59815,0.35889 -1.35864,0.35889 z"
         style="font-size:17.5px"
         id="path4215"
         inkscape:connector-curvature="0" />
      <path
         d="m 280.26437,140.93362 0,-1.17065 5.16968,-6.88721 -4.87915,0 0,-1.18774 6.69922,0 0,1.17065 -5.17822,6.88721 5.35766,0 0,1.18774 -7.16919,0 z"
         style="font-size:17.5px"
         id="path4217"
         inkscape:connector-curvature="0" />
      <path
         d="m 75.391327,162.80862 -1.375733,-3.5205 -5.485839,0 -1.384278,3.5205 -1.691894,0 4.91333,-12.03979 1.854248,0 4.836426,12.03979 -1.66626,0 z m -4.118652,-10.80932 -0.07691,0.23926 q -0.213623,0.70922 -0.632324,1.82006 l -1.538086,3.9563 4.503174,0 -1.546631,-3.97339 q -0.239258,-0.5896 -0.478516,-1.333 L 71.27267,151.9993 Z"
         style="font-size:17.5px"
         id="path4219"
         inkscape:connector-curvature="0" />
      <path
         d="m 87.858368,159.41629 q 0,1.60645 -1.170654,2.50366 -1.170655,0.88867 -3.255616,0.88867 l -4.887695,0 0,-12.03979 4.375,0 q 4.238281,0 4.238281,2.92236 0,1.06812 -0.598144,1.79444 -0.598145,0.72631 -1.691895,0.97412 1.435547,0.1709 2.213135,0.96557 0.777588,0.78614 0.777588,1.99097 z m -2.341309,-5.52856 q 0,-0.97413 -0.666504,-1.39283 -0.666503,-0.4187 -1.931152,-0.4187 l -2.74292,0 0,3.81104 2.74292,0 q 1.307373,0 1.948242,-0.48706 0.649414,-0.49561 0.649414,-1.51245 z m 0.692139,5.40039 q 0,-2.12769 -2.990723,-2.12769 l -3.041992,0 0,4.34082 3.170166,0 q 1.495361,0 2.178955,-0.55542 0.683594,-0.55542 0.683594,-1.65771 z"
         style="font-size:17.5px"
         id="path4221"
         inkscape:connector-curvature="0" />
      <path
         d="m 95.565887,151.92239 q -1.999511,0 -3.110351,1.29029 -1.11084,1.28174 -1.11084,3.5205 0,2.21314 1.153564,3.56324 1.16211,1.34155 3.135987,1.34155 2.529297,0 3.80249,-2.50366 l 1.333003,0.6665 q -0.7434,1.55518 -2.093501,2.36695 -1.341553,0.81176 -3.118896,0.81176 -1.820069,0 -3.153077,-0.75195 -1.324463,-0.7605 -2.025146,-2.16187 -0.692139,-1.40991 -0.692139,-3.33252 0,-2.87963 1.555176,-4.51171 1.555176,-1.63208 4.306641,-1.63208 1.922607,0 3.21289,0.75195 1.290282,0.75195 1.896972,2.23022 l -1.54663,0.5127 q -0.418701,-1.05103 -1.350098,-1.60645 -0.922851,-0.55542 -2.196045,-0.55542 z"
         style="font-size:17.5px"
         id="path4223"
         inkscape:connector-curvature="0" />
      <path
         d="m 113.24533,156.66483 q 0,1.86279 -0.72632,3.26416 -0.72632,1.39282 -2.05932,2.13623 -1.33301,0.7434 -3.07618,0.7434 l -4.50317,0 0,-12.03979 3.98193,0 q 3.05909,0 4.7168,1.53809 1.66626,1.52954 1.66626,4.35791 z m -1.64062,0 q 0,-2.23877 -1.23047,-3.40943 -1.22193,-1.1792 -3.54615,-1.1792 l -2.31567,0 0,9.42505 2.68311,0 q 1.32446,0 2.32421,-0.58105 1.00831,-0.58106 1.54664,-1.67481 0.53833,-1.09375 0.53833,-2.58056 z"
         style="font-size:17.5px"
         id="path4225"
         inkscape:connector-curvature="0" />
      <path
         d="m 115.52682,162.80862 0,-12.03979 9.13453,0 0,1.33301 -7.50244,0 0,3.8623 6.98974,0 0,1.31592 -6.98974,0 0,4.19556 7.85278,0 0,1.333 -9.48487,0 z"
         style="font-size:17.5px"
         id="path4227"
         inkscape:connector-curvature="0" />
      <path
         d="m 128.84836,152.10184 0,4.47754 6.71631,0 0,1.35009 -6.71631,0 0,4.87915 -1.63208,0 0,-12.03979 8.55346,0 0,1.33301 -6.92138,0 z"
         style="font-size:17.5px"
         id="path4229"
         inkscape:connector-curvature="0" />
      <path
         d="m 137.3591,156.73318 q 0,-2.9309 1.57227,-4.53735 1.57226,-1.60644 4.41772,-1.60644 1.99951,0 3.24707,0.67504 1.24756,0.67505 1.92261,2.16187 l -1.55518,0.46143 q -0.51269,-1.02539 -1.41845,-1.49537 -0.89722,-0.46997 -2.23877,-0.46997 -2.08496,0 -3.18726,1.26465 -1.10229,1.25611 -1.10229,3.54614 0,2.2815 1.17065,3.60596 1.17065,1.31592 3.23852,1.31592 1.1792,0 2.19605,-0.35889 1.02539,-0.35888 1.65771,-0.97412 l 0,-2.17041 -3.59741,0 0,-1.36719 5.10132,0 0,4.15284 q -0.95703,0.97412 -2.34985,1.51245 -1.38428,0.52978 -3.00782,0.52978 -1.88842,0 -3.25561,-0.75195 -1.36719,-0.75195 -2.09351,-2.16187 -0.71777,-1.41845 -0.71777,-3.33252 z"
         style="font-size:17.5px"
         id="path4231"
         inkscape:connector-curvature="0" />
      <path
         d="m 159.66135,162.80862 0,-5.57983 -6.51123,0 0,5.57983 -1.63208,0 0,-12.03979 1.63208,0 0,5.09277 6.51123,0 0,-5.09277 1.63208,0 0,12.03979 -1.63208,0 z"
         style="font-size:17.5px"
         id="path4233"
         inkscape:connector-curvature="0" />
      <path
         d="m 164.34396,162.80862 0,-12.03979 1.63208,0 0,12.03979 -1.63208,0 z"
         style="font-size:17.5px"
         id="path4235"
         inkscape:connector-curvature="0" />
      <path
         d="m 171.48752,162.97952 q -3.05908,0 -3.63159,-3.16162 l 1.5979,-0.26489 q 0.15381,0.99121 0.69214,1.54663 0.53833,0.55542 1.35009,0.55542 0.88868,0 1.40137,-0.60669 0.5127,-0.61523 0.5127,-1.79443 l 0,-7.1521 -2.31568,0 0,-1.33301 3.93921,0 0,8.45093 q 0,1.75171 -0.94849,2.76001 -0.94848,0.99975 -2.59765,0.99975 z"
         style="font-size:17.5px"
         id="path4237"
         inkscape:connector-curvature="0" />
      <path
         d="m 185.78317,162.80862 -4.81079,-5.81054 -1.57226,1.19629 0,4.61425 -1.63208,0 0,-12.03979 1.63208,0 0,6.03271 5.802,-6.03271 1.92261,0 -5.12696,5.22949 5.81055,6.8103 -2.02515,0 z"
         style="font-size:17.5px"
         id="path4239"
         inkscape:connector-curvature="0" />
      <path
         d="m 189.45749,162.80862 0,-12.03979 1.63208,0 0,10.70679 6.08398,0 0,1.333 -7.71606,0 z"
         style="font-size:17.5px"
         id="path4241"
         inkscape:connector-curvature="0" />
      <path
         d="m 209.43552,162.80862 0,-8.03222 q 0,-1.33301 0.0769,-2.56348 -0.4187,1.52954 -0.75195,2.39258 l -3.11035,8.20312 -1.14502,0 -3.15308,-8.20312 -0.47852,-1.45264 -0.28198,-0.93994 0.0256,0.94849 0.0342,1.61499 0,8.03222 -1.45264,0 0,-12.03979 2.14478,0 3.20434,8.34839 q 0.1709,0.50415 0.32471,1.0852 0.16235,0.57251 0.21362,0.82886 0.0684,-0.3418 0.28198,-1.03394 0.22217,-0.70068 0.29908,-0.88012 l 3.14453,-8.34839 2.0935,0 0,12.03979 -1.46972,0 z"
         style="font-size:17.5px"
         id="path4243"
         inkscape:connector-curvature="0" />
      <path
         d="m 221.60349,162.80862 -6.44288,-10.2539 0.0427,0.82886 0.0427,1.427 0,7.99804 -1.45263,0 0,-12.03979 1.89697,0 6.51123,10.32226 q -0.10254,-1.6748 -0.10254,-2.42675 l 0,-7.89551 1.46973,0 0,12.03979 -1.96533,0 z"
         style="font-size:17.5px"
         id="path4245"
         inkscape:connector-curvature="0" />
      <path
         d="m 237.77902,156.73318 q 0,1.88843 -0.72632,3.30689 -0.71777,1.41846 -2.06787,2.17895 -1.35009,0.7605 -3.18725,0.7605 -1.85425,0 -3.20435,-0.75195 -1.34155,-0.75195 -2.05078,-2.17041 -0.70923,-1.427 -0.70923,-3.32398 0,-2.88818 1.58081,-4.51171 1.58081,-1.63208 4.40064,-1.63208 1.83715,0 3.18725,0.73486 1.3501,0.72632 2.05933,2.11914 0.71777,1.39282 0.71777,3.28979 z m -1.66626,0 q 0,-2.24731 -1.12793,-3.52905 -1.11938,-1.28174 -3.17016,-1.28174 -2.06787,0 -3.1958,1.26465 -1.12793,1.26465 -1.12793,3.54614 0,2.26441 1.13647,3.59742 1.14502,1.32446 3.17017,1.32446 2.08496,0 3.1958,-1.28174 1.11938,-1.29028 1.11938,-3.64014 z"
         style="font-size:17.5px"
         id="path4247"
         inkscape:connector-curvature="0" />
      <path
         d="m 249.35739,154.39188 q 0,1.70898 -1.11938,2.71728 -1.11084,1.0083 -3.02491,1.0083 l -3.53759,0 0,4.69116 -1.63208,0 0,-12.03979 5.06714,0 q 2.02514,0 3.13598,0.94849 1.11084,0.94848 1.11084,2.67456 z m -1.64062,0.0171 q 0,-2.33277 -2.80274,-2.33277 l -3.23852,0 0,4.75098 3.30688,0 q 2.73438,0 2.73438,-2.41821 z"
         style="font-size:17.5px"
         id="path4249"
         inkscape:connector-curvature="0" />
      <path
         d="m 263.07199,156.73318 q 0,2.54639 -1.28174,4.18702 -1.28174,1.64062 -3.56323,1.93969 0.35034,1.07666 0.91431,1.55518 0.57251,0.47852 1.44409,0.47852 0.46997,0 0.98266,-0.11109 l 0,1.14502 q -0.79467,0.18799 -1.52099,0.18799 -1.29028,0 -2.12769,-0.73486 -0.82885,-0.72632 -1.35864,-2.43531 -1.69189,-0.0854 -2.92236,-0.85449 -1.22193,-0.77759 -1.87134,-2.15332 -0.64087,-1.38428 -0.64087,-3.20435 0,-2.88818 1.58081,-4.51171 1.58081,-1.63208 4.40064,-1.63208 1.83715,0 3.18725,0.73486 1.3501,0.72632 2.05933,2.11914 0.71777,1.39282 0.71777,3.28979 z m -1.66626,0 q 0,-2.24731 -1.12793,-3.52905 -1.11938,-1.28174 -3.17016,-1.28174 -2.06788,0 -3.19581,1.26465 -1.12792,1.26465 -1.12792,3.54614 0,2.26441 1.13647,3.59742 1.14502,1.32446 3.17017,1.32446 2.08496,0 3.1958,-1.28174 1.11938,-1.29028 1.11938,-3.64014 z"
         style="font-size:17.5px"
         id="path4251"
         inkscape:connector-curvature="0" />
      <path
         d="m 273.84714,162.80862 -3.12744,-4.99878 -3.75122,0 0,4.99878 -1.63208,0 0,-12.03979 5.66528,0 q 2.03369,0 3.13598,0.91431 1.11084,0.90576 1.11084,2.52929 0,1.34156 -0.78613,2.25586 -0.77759,0.91431 -2.15332,1.15357 l 3.41797,5.18676 -1.87988,0 z m -0.23926,-8.5791 q 0,-1.05102 -0.71777,-1.5979 -0.70923,-0.55542 -2.05079,-0.55542 l -3.87084,0 0,4.44336 3.9392,0 q 1.29029,0 1.99097,-0.59814 0.70923,-0.60669 0.70923,-1.6919 z"
         style="font-size:17.5px"
         id="path4253"
         inkscape:connector-curvature="0" />
      <path
         d="m 287.41647,159.48465 q 0,1.66626 -1.30737,2.58057 -1.29883,0.9143 -3.66577,0.9143 -4.40064,0 -5.10132,-3.05908 l 1.58081,-0.31616 q 0.27344,1.0852 1.16211,1.5979 0.88867,0.50415 2.41821,0.50415 1.58081,0 2.43531,-0.53833 0.86303,-0.54688 0.86303,-1.5979 0,-0.5896 -0.27343,-0.95703 -0.2649,-0.36743 -0.75196,-0.60669 -0.48706,-0.23926 -1.16211,-0.40161 -0.67505,-0.16236 -1.49536,-0.35034 -1.427,-0.31617 -2.17041,-0.63233 -0.73486,-0.31616 -1.16211,-0.70068 -0.42724,-0.39307 -0.65796,-0.91431 -0.22216,-0.52124 -0.22216,-1.19629 0,-1.54663 1.17919,-2.38403 1.18775,-0.8374 3.39234,-0.8374 2.05078,0 3.13598,0.63232 1.08521,0.62378 1.521,2.13623 l -1.60644,0.28198 q -0.2649,-0.95703 -1.00831,-1.38427 -0.7434,-0.4358 -2.05932,-0.4358 -1.44409,0 -2.20459,0.47852 -0.7605,0.47852 -0.7605,1.427 0,0.55542 0.29053,0.92285 0.29907,0.35889 0.85449,0.61524 0.55542,0.2478 2.21314,0.61523 0.55542,0.12818 1.10229,0.2649 0.55542,0.12817 1.05957,0.31616 0.50415,0.17944 0.93994,0.42724 0.44434,0.24781 0.76904,0.60669 0.32471,0.35889 0.50416,0.84595 0.18798,0.48706 0.18798,1.14502 z"
         style="font-size:17.5px"
         id="path4255"
         inkscape:connector-curvature="0" />
      <path
         d="m 294.38913,152.10184 0,10.70678 -1.62354,0 0,-10.70678 -4.13574,0 0,-1.33301 9.89502,0 0,1.33301 -4.13574,0 z"
         style="font-size:17.5px"
         id="path4257"
         inkscape:connector-curvature="0" />
      <path
         d="m 305.18137,162.97952 q -1.47828,0 -2.58057,-0.53833 -1.1023,-0.53833 -1.70898,-1.56372 -0.60669,-1.02539 -0.60669,-2.44385 l 0,-7.66479 1.63208,0 0,7.52808 q 0,1.64917 0.8374,2.50366 0.8374,0.85449 2.41821,0.85449 1.62354,0 2.52075,-0.88013 0.90576,-0.88867 0.90576,-2.58911 l 0,-7.41699 1.62354,0 0,7.51099 q 0,1.46118 -0.62378,2.52075 -0.61523,1.05957 -1.75171,1.62353 -1.12793,0.55542 -2.66601,0.55542 z"
         style="font-size:17.5px"
         id="path4259"
         inkscape:connector-curvature="0" />
      <path
         d="m 318.26364,162.80862 -1.69189,0 -4.91333,-12.03979 1.71753,0 3.33252,8.47656 0.71777,2.12769 0.71777,-2.12769 3.31543,-8.47656 1.71753,0 -4.91333,12.03979 z"
         style="font-size:17.5px"
         id="path4261"
         inkscape:connector-curvature="0" />
      <path
         d="m 336.18234,162.80862 -1.94824,0 -2.08496,-7.6477 q -0.20508,-0.71777 -0.59815,-2.57202 -0.22216,0.99121 -0.37597,1.65771 -0.15381,0.66651 -2.33277,8.56201 l -1.94824,0 -3.54614,-12.03979 1.70044,0 2.16186,7.6477 q 0.38453,1.43555 0.70923,2.95655 0.20508,-0.93994 0.46997,-2.05078 0.27344,-1.11084 2.37549,-8.55347 l 1.56372,0 2.09351,7.4939 q 0.47851,1.83715 0.75195,3.11035 l 0.0769,-0.29907 q 0.23071,-0.98267 0.37597,-1.59791 0.14527,-0.62377 2.40113,-8.70727 l 1.70044,0 -3.54615,12.03979 z"
         style="font-size:17.5px"
         id="path4263"
         inkscape:connector-curvature="0" />
      <path
         d="m 349.28171,162.80862 -3.6145,-5.26367 -3.69141,5.26367 -1.80298,0 4.58008,-6.25488 -4.22974,-5.78491 1.80298,0 3.34961,4.72534 3.25562,-4.72534 1.80297,0 -4.11865,5.7251 4.469,6.31469 -1.80298,0 z"
         style="font-size:17.5px"
         id="path4265"
         inkscape:connector-curvature="0" />
      <path
         d="m 358.10861,157.81839 0,4.99023 -1.62353,0 0,-4.99023 -4.63135,-7.04956 1.79443,0 3.66577,5.73364 3.64869,-5.73364 1.79443,0 -4.64844,7.04956 z"
         style="font-size:17.5px"
         id="path4267"
         inkscape:connector-curvature="0" />
      <path
         d="m 373.30148,162.80862 -9.5874,0 0,-1.22192 7.33154,-9.48486 -6.70776,0 0,-1.33301 8.56201,0 0,1.18774 -7.33154,9.51905 7.73315,0 0,1.333 z"
         style="font-size:17.5px"
         id="path4269"
         inkscape:connector-curvature="0" />
      <path
         d="m 74.417206,180.05228 q 0,2.42675 -1.068115,3.6145 -1.068116,1.18774 -3.101807,1.18774 -2.025147,0 -3.059082,-1.23047 -1.033936,-1.23901 -1.033936,-3.57177 0,-4.78516 4.144287,-4.78516 2.119141,0 3.118897,1.17065 0.999756,1.16211 0.999756,3.61451 z m -1.61499,0 q 0,-1.91407 -0.57251,-2.7771 -0.563965,-0.87159 -1.905518,-0.87159 -1.350097,0 -1.956787,0.88868 -0.598144,0.88012 -0.598144,2.76001 0,1.82861 0.589599,2.75146 0.598145,0.91431 1.871338,0.91431 1.384277,0 1.973877,-0.88867 0.598145,-0.88868 0.598145,-2.7771 z"
         style="font-size:17.5px"
         id="path4271"
         inkscape:connector-curvature="0" />
      <path
         d="m 87.935272,178.60818 q 0,1.88843 -0.726318,3.30689 -0.717774,1.41846 -2.067871,2.17895 -1.350098,0.7605 -3.187256,0.7605 -1.854248,0 -3.204346,-0.75195 -1.341553,-0.75195 -2.050781,-2.17041 -0.709229,-1.427 -0.709229,-3.32398 0,-2.88818 1.580811,-4.51171 1.580811,-1.63208 4.400635,-1.63208 1.837158,0 3.187256,0.73486 1.350097,0.72632 2.059326,2.11914 0.717773,1.39282 0.717773,3.28979 z m -1.66626,0 q 0,-2.24731 -1.127929,-3.52905 -1.119385,-1.28174 -3.170166,-1.28174 -2.067871,0 -3.195801,1.26465 -1.12793,1.26465 -1.12793,3.54614 0,2.26441 1.136475,3.59742 1.145019,1.32446 3.170166,1.32446 2.084961,0 3.195801,-1.28174 1.119384,-1.29028 1.119384,-3.64014 z"
         style="font-size:17.5px"
         id="path4273"
         inkscape:connector-curvature="0" />
      <path
         d="m 97.813202,178.65945 q 0,3.01636 -1.068115,4.60572 -1.059571,1.58935 -3.135987,1.58935 -2.076416,0 -3.118896,-1.58081 -1.042481,-1.58081 -1.042481,-4.61426 0,-3.1018 1.008301,-4.64843 1.016846,-1.54663 3.204346,-1.54663 2.127685,0 3.135986,1.56372 1.016846,1.56372 1.016846,4.63134 z m -1.563721,0 q 0,-2.6062 -0.606689,-3.77685 -0.598145,-1.17066 -1.982422,-1.17066 -1.418457,0 -2.042236,1.15357 -0.615235,1.15356 -0.615235,3.79394 0,2.56348 0.623779,3.75123 0.632325,1.18774 1.999512,1.18774 1.358643,0 1.990967,-1.21338 0.632324,-1.21338 0.632324,-3.72559 z"
         style="font-size:17.5px"
         id="path4275"
         inkscape:connector-curvature="0" />
      <path
         d="m 107.47751,181.32547 q 0,1.66626 -1.05957,2.59766 -1.05957,0.93139 -3.04199,0.93139 -1.93116,0 -3.02491,-0.9143 -1.085201,-0.91431 -1.085201,-2.59766 0,-1.1792 0.675048,-1.98242 0.675053,-0.80322 1.726073,-0.97412 l 0,-0.0342 q -0.98266,-0.23072 -1.55517,-0.99976 -0.563969,-0.76904 -0.563969,-1.80298 0,-1.37573 1.025389,-2.23022 1.03394,-0.85449 2.76856,-0.85449 1.77734,0 2.80273,0.8374 1.03394,0.8374 1.03394,2.2644 0,1.03394 -0.57251,1.80298 -0.57251,0.76904 -1.56372,0.96558 l 0,0.0342 q 1.15356,0.18799 1.79443,0.98266 0.64087,0.78614 0.64087,1.97388 z m -1.89697,-5.67383 q 0,-2.04223 -2.23877,-2.04223 -1.08521,0 -1.65772,0.51269 -0.56396,0.5127 -0.56396,1.52954 0,1.03394 0.58105,1.58081 0.5896,0.53833 1.65772,0.53833 1.0852,0 1.64917,-0.4956 0.57251,-0.50415 0.57251,-1.62354 z m 0.29907,5.52857 q 0,-1.11939 -0.66651,-1.68335 -0.6665,-0.57251 -1.87133,-0.57251 -1.17066,0 -1.82862,0.61523 -0.65796,0.60669 -0.65796,1.67481 0,2.48657 2.53785,2.48657 1.2561,0 1.87133,-0.59815 0.61524,-0.60669 0.61524,-1.9226 z"
         style="font-size:17.5px"
         id="path4277"
         inkscape:connector-curvature="0" />
      <path
         d="m 114.27072,173.47269 0,-1.46973 1.53809,0 0,1.46973 -1.53809,0 z m 0,11.21093 0,-9.2456 1.53809,0 0,9.2456 -1.53809,0 z"
         style="font-size:17.5px"
         id="path4279"
         inkscape:connector-curvature="0" />
      <path
         d="m 118.61154,184.68362 0,-12.03979 1.63208,0 0,12.03979 -1.63208,0 z"
         style="font-size:17.5px"
         id="path4281"
         inkscape:connector-curvature="0" />
      <path
         d="m 123.02927,184.68362 0,-12.68066 1.53808,0 0,12.68066 -1.53808,0 z"
         style="font-size:17.5px"
         id="path4283"
         inkscape:connector-curvature="0" />
      <path
         d="m 127.1821,184.68362 0,-12.03979 1.63208,0 0,10.70679 6.08398,0 0,1.333 -7.71606,0 z"
         style="font-size:17.5px"
         id="path4285"
         inkscape:connector-curvature="0" />
      <path
         d="m 136.82077,184.68362 0,-1.30737 3.06763,0 0,-9.26269 -2.71729,1.93969 0,-1.45263 2.84546,-1.95679 1.41846,0 0,10.73242 2.93091,0 0,1.30737 -7.54517,0 z"
         style="font-size:17.5px"
         id="path4287"
         inkscape:connector-curvature="0" />
      <path
         d="m 154.46603,188.31522 q -1.0852,0 -1.6748,-0.65796 -0.58106,-0.65796 -0.58106,-1.84571 l 0,-3.08471 q 0,-0.99976 -0.45288,-1.48682 -0.44433,-0.4956 -1.38427,-0.53833 l 0,-1.0852 q 0.93139,-0.0342 1.38427,-0.52124 0.45288,-0.49561 0.45288,-1.49537 l 0,-3.09326 q 0,-1.20483 0.56397,-1.85425 0.57251,-0.64941 1.69189,-0.64941 l 1.15357,0 0,1.1023 -0.53833,0 q -0.77759,0 -1.11084,0.46142 -0.32471,0.45288 -0.32471,1.37573 l 0,3.042 q 0,0.80322 -0.45288,1.39282 -0.45288,0.58105 -1.20483,0.7605 l 0,0.0171 q 0.76049,0.17944 1.20483,0.76049 0.45288,0.58106 0.45288,1.40992 l 0,3.05053 q 0,0.90576 0.32471,1.36719 0.33325,0.46997 1.11084,0.46997 l 0.53833,0 0,1.1023 -1.15357,0 z"
         style="font-size:17.5px"
         id="path4289"
         inkscape:connector-curvature="0" />
      <path
         d="m 156.73044,187.21292 q 0.77759,0 1.11084,-0.46997 0.34179,-0.46143 0.34179,-1.36719 l 0,-3.05053 q 0,-0.83741 0.44434,-1.41846 0.44434,-0.58106 1.20483,-0.75195 l 0,-0.0171 q -0.73486,-0.1709 -1.19628,-0.74341 -0.45289,-0.58106 -0.45289,-1.40991 l 0,-3.042 q 0,-0.92285 -0.34179,-1.37573 -0.33325,-0.46142 -1.11084,-0.46142 l -0.5127,0 0,-1.1023 1.12793,0 q 1.11939,0 1.68335,0.64941 0.57251,0.64942 0.57251,1.85425 l 0,3.09326 q 0,0.99121 0.45288,1.48682 0.45288,0.49561 1.40137,0.52979 l 0,1.0852 q -0.95703,0.0342 -1.40991,0.52979 -0.44434,0.4956 -0.44434,1.49536 l 0,3.08471 q 0,1.1792 -0.5896,1.83716 -0.58105,0.66651 -1.66626,0.66651 l -1.12793,0 0,-1.1023 0.5127,0 z"
         style="font-size:17.5px"
         id="path4291"
         inkscape:connector-curvature="0" />
      <path
         d="m 167.87302,188.31522 0,-16.31226 3.47778,0 0,1.1023 -1.99097,0 0,14.10766 1.99097,0 0,1.1023 -3.47778,0 z"
         style="font-size:17.5px"
         id="path4293"
         inkscape:connector-curvature="0" />
      <path
         d="m 171.61569,188.31522 0,-1.1023 1.99097,0 0,-14.10766 -1.99097,0 0,-1.1023 3.47779,0 0,16.31226 -3.47779,0 z"
         style="font-size:17.5px"
         id="path4295"
         inkscape:connector-curvature="0" />
      <path
         d="m 185.86862,188.31522 q -1.51245,0 -2.40967,-0.59815 -0.89721,-0.5896 -1.15356,-1.68335 l 1.54663,-0.22217 q 0.15381,0.64087 0.67505,0.98267 0.52978,0.35034 1.38428,0.35034 2.29858,0 2.29858,-2.69165 l 0,-1.48682 -0.0171,0 q -0.43579,0.88868 -1.19629,1.34156 -0.7605,0.44433 -1.77734,0.44433 -1.70044,0 -2.50366,-1.12793 -0.79468,-1.12793 -0.79468,-3.54614 0,-2.45239 0.85449,-3.6145 0.86304,-1.17065 2.61475,-1.17065 0.98266,0 1.70044,0.45288 0.72631,0.44433 1.11938,1.27319 l 0.0171,0 q 0,-0.25635 0.0342,-0.88867 0.0342,-0.63233 0.0684,-0.69214 l 1.46118,0 q -0.0513,0.46142 -0.0513,1.91406 l 0,7.06665 q 0,3.89649 -3.87085,3.89649 z m 2.34131,-8.2544 q 0,-1.12793 -0.30762,-1.9397 -0.30761,-0.82031 -0.87158,-1.24755 -0.55542,-0.4358 -1.26465,-0.4358 -1.1792,0 -1.71753,0.8545 -0.53833,0.85449 -0.53833,2.76855 0,1.89697 0.50415,2.72583 0.50415,0.82886 1.72608,0.82886 0.72632,0 1.29028,-0.42725 0.56397,-0.42724 0.87158,-1.22192 0.30762,-0.80322 0.30762,-1.90552 z"
         style="font-size:17.5px"
         id="path4297"
         inkscape:connector-curvature="0" />
      <path
         d="m 199.83102,178.4202 q 0,3.1018 -1.13647,4.76806 -1.12793,1.66626 -3.22144,1.66626 -1.40991,0 -2.2644,-0.5896 -0.84595,-0.59814 -1.21338,-1.9226 l 1.46973,-0.23072 q 0.46142,1.50391 2.03369,1.50391 1.32446,0 2.05078,-1.23047 0.72632,-1.23047 0.7605,-3.51196 -0.3418,0.76904 -1.17066,1.23901 -0.82885,0.46143 -1.82006,0.46143 -1.62354,0 -2.59766,-1.11084 -0.97412,-1.11084 -0.97412,-2.948 0,-1.88843 1.05957,-2.96509 1.05957,-1.0852 2.948,-1.0852 2.00805,0 3.04199,1.48681 1.03393,1.48682 1.03393,4.469 z m -1.6748,-1.48682 q 0,-1.45264 -0.6665,-2.33276 -0.66651,-0.88868 -1.78589,-0.88868 -1.11084,0 -1.75171,0.7605 -0.64087,0.75196 -0.64087,2.04224 0,1.31592 0.64087,2.08496 0.64087,0.7605 1.73462,0.7605 0.6665,0 1.23901,-0.29907 0.57251,-0.30762 0.89722,-0.86304 0.33325,-0.55542 0.33325,-1.26465 z"
         style="font-size:17.5px"
         id="path4299"
         inkscape:connector-curvature="0" />
      <path
         d="m 204.80417,184.85452 q -1.76026,0 -2.58057,-1.18774 -0.82031,-1.18775 -0.82031,-3.56323 0,-4.83643 3.40088,-4.83643 1.05102,0 1.73462,0.37598 0.68359,0.36743 1.14502,1.23047 l 0.0171,0 q 0,-0.25635 0.0342,-0.88013 0.0342,-0.63233 0.0684,-0.67505 l 1.47827,0 q -0.0598,0.50415 -0.0598,2.52075 l 0,10.47608 -1.53808,0 0,-3.75122 0.0342,-1.40137 -0.0171,0 q -0.46143,0.9143 -1.13648,1.30737 -0.67505,0.38452 -1.76025,0.38452 z m 2.87964,-4.90478 q 0,-1.80298 -0.5896,-2.67456 -0.5896,-0.87159 -1.87989,-0.87159 -1.17065,0 -1.68334,0.87159 -0.5127,0.87158 -0.5127,2.7771 0,1.93969 0.5127,2.7771 0.52124,0.8374 1.66626,0.8374 1.30737,0 1.89697,-0.9314 0.5896,-0.93139 0.5896,-2.78564 z"
         style="font-size:17.5px"
         id="path4301"
         inkscape:connector-curvature="0" />
      <path
         d="m 217.17722,173.79739 q -1.99952,0 -3.11036,1.29029 -1.11084,1.28174 -1.11084,3.5205 0,2.21314 1.15357,3.56324 1.16211,1.34155 3.13598,1.34155 2.5293,0 3.8025,-2.50366 l 1.333,0.6665 q -0.74341,1.55518 -2.0935,2.36695 -1.34156,0.81176 -3.1189,0.81176 -1.82007,0 -3.15308,-0.75195 -1.32446,-0.7605 -2.02514,-2.16187 -0.69214,-1.40991 -0.69214,-3.33252 0,-2.87963 1.55518,-4.51171 1.55517,-1.63208 4.30664,-1.63208 1.9226,0 3.21289,0.75195 1.29028,0.75195 1.89697,2.23022 l -1.54663,0.5127 q -0.4187,-1.05103 -1.3501,-1.60645 -0.92285,-0.55542 -2.19604,-0.55542 z"
         style="font-size:17.5px"
         id="path4303"
         inkscape:connector-curvature="0" />
      <path
         d="m 223.93625,178.60818 q 0,-2.9309 1.57226,-4.53735 1.57227,-1.60644 4.41773,-1.60644 1.99951,0 3.24707,0.67504 1.24756,0.67505 1.92261,2.16187 l -1.55518,0.46143 q -0.51269,-1.02539 -1.41846,-1.49537 -0.89721,-0.46997 -2.23877,-0.46997 -2.08496,0 -3.18725,1.26465 -1.1023,1.25611 -1.1023,3.54614 0,2.2815 1.17066,3.60596 1.17065,1.31592 3.23852,1.31592 1.1792,0 2.19605,-0.35889 1.02539,-0.35888 1.65771,-0.97412 l 0,-2.17041 -3.59741,0 0,-1.36719 5.10132,0 0,4.15284 q -0.95703,0.97412 -2.34985,1.51245 -1.38428,0.52978 -3.00782,0.52978 -1.88842,0 -3.25561,-0.75195 -1.36719,-0.75195 -2.09351,-2.16187 -0.71777,-1.41845 -0.71777,-3.33252 z"
         style="font-size:17.5px"
         id="path4305"
         inkscape:connector-curvature="0" />
      <path
         d="m 249.4343,178.60818 q 0,2.54639 -1.28174,4.18702 -1.28174,1.64062 -3.56324,1.93969 0.35035,1.07666 0.91431,1.55518 0.57251,0.47852 1.44409,0.47852 0.46997,0 0.98267,-0.11109 l 0,1.14502 q -0.79468,0.18799 -1.521,0.18799 -1.29028,0 -2.12768,-0.73486 -0.82886,-0.72632 -1.35864,-2.43531 -1.6919,-0.0854 -2.92237,-0.85449 -1.22192,-0.77759 -1.87134,-2.15332 -0.64087,-1.38428 -0.64087,-3.20435 0,-2.88818 1.58082,-4.51171 1.58081,-1.63208 4.40063,-1.63208 1.83716,0 3.18726,0.73486 1.35009,0.72632 2.05932,2.11914 0.71778,1.39282 0.71778,3.28979 z m -1.66626,0 q 0,-2.24731 -1.12793,-3.52905 -1.11939,-1.28174 -3.17017,-1.28174 -2.06787,0 -3.1958,1.26465 -1.12793,1.26465 -1.12793,3.54614 0,2.26441 1.13647,3.59742 1.14502,1.32446 3.17017,1.32446 2.08496,0 3.1958,-1.28174 1.11939,-1.29028 1.11939,-3.64014 z"
         style="font-size:17.5px"
         id="path4307"
         inkscape:connector-curvature="0" />
      <path
         d="m 262.32858,179.95828 q -0.5896,0 -1.21338,-0.18799 -0.61523,-0.18798 -1.23901,-0.41015 -1.10229,-0.38452 -1.85425,-0.38452 -0.57251,0 -1.06811,0.17944 -0.49561,0.1709 -1.05103,0.57251 l 0,-1.22192 q 0.94849,-0.71778 2.24732,-0.71778 0.44433,0 0.98266,0.11109 0.54688,0.11108 1.65772,0.50415 0.26489,0.10254 0.77758,0.2478 0.5127,0.13672 0.89722,0.13672 1.11084,0 2.08496,-0.78613 l 0,1.27319 q -0.4956,0.35889 -0.99975,0.52124 -0.49561,0.16235 -1.22193,0.16235 z"
         style="font-size:17.5px"
         id="path4309"
         inkscape:connector-curvature="0" />
      <path
         d="m 266.11398,180.71878 0,-1.36719 4.27246,0 0,1.36719 -4.27246,0 z"
         style="font-size:17.5px"
         id="path4311"
         inkscape:connector-curvature="0" />
      <path
         d="m 276.91476,179.48831 0,3.65723 -1.2561,0 0,-3.65723 -3.62305,0 0,-1.24756 3.62305,0 0,-3.65722 1.2561,0 0,3.65722 3.62305,0 0,1.24756 -3.62305,0 z"
         style="font-size:17.5px"
         id="path4313"
         inkscape:connector-curvature="0" />
      <path
         d="m 282.25534,177.36917 0,-1.26465 8.5022,0 0,1.26465 -8.5022,0 z m 0,4.375 0,-1.26465 8.5022,0 0,1.26465 -8.5022,0 z"
         style="font-size:17.5px"
         id="path4315"
         inkscape:connector-curvature="0" />
      <path
         d="m 292.48361,183.36771 0,-1.30738 7.33155,-3.13598 -7.33155,-3.12744 0,-1.31592 8.5022,3.57177 0,1.75171 -8.5022,3.56324 z"
         style="font-size:17.5px"
         id="path4317"
         inkscape:connector-curvature="0" />
    </g>
  </g>
</svg>
