<svg xmlns="http://www.w3.org/2000/svg" width="331.083" height="114.462" viewBox="0 0 310.391 107.308"><g font-weight="400" font-family="Arimo Nerd Font" letter-spacing="0" word-spacing="0" fill="#fff"><g style="line-height:125%;text-decoration-line:underline" font-size="27.5" text-decoration="underline"><path d="M15.616 19.927l-2.161-5.532H4.834l-2.175 5.532H0l7.72-18.92h2.915l7.6 18.92h-2.619zM9.144 2.94l-.12.376q-.336 1.114-.994 2.86l-2.417 6.217h7.076L10.26 6.15q-.376-.927-.752-2.095l-.363-1.114zM20.222 19.927V8.782q0-1.531-.08-3.384h2.282q.108 2.47.108 2.967h.053q.578-1.866 1.33-2.55.752-.686 2.121-.686.484 0 .98.135v2.215q-.483-.134-1.288-.134-1.504 0-2.297 1.302-.792 1.29-.792 3.707v7.573h-2.417zM29.34 2.31V0h2.417v2.31H29.34zm0 17.617V5.397h2.417v14.53H29.34zM43.936 19.927v-9.212q0-2.108-.578-2.913-.577-.806-2.081-.806-1.544 0-2.444 1.181-.9 1.182-.9 3.33v8.42H35.53V8.5q0-2.538-.08-3.102h2.282q.013.067.027.362.013.296.027.685.026.376.053 1.437h.04q.78-1.544 1.787-2.148 1.007-.605 2.457-.605 1.651 0 2.605.658.967.658 1.343 2.095h.04q.752-1.464 1.813-2.108 1.074-.645 2.591-.645 2.202 0 3.196 1.195 1.007 1.196 1.007 3.921v9.682h-2.39v-9.212q0-2.108-.577-2.913-.578-.806-2.082-.806-1.584 0-2.47 1.181-.873 1.169-.873 3.33v8.42h-2.39zM70.697 12.649q0 3.813-1.678 5.68-1.679 1.866-4.875 1.866-3.182 0-4.807-1.933-1.625-1.947-1.625-5.613 0-7.52 6.513-7.52 3.33 0 4.901 1.84 1.571 1.826 1.571 5.68zm-2.538 0q0-3.008-.9-4.364-.886-1.37-2.994-1.37-2.121 0-3.075 1.397-.94 1.383-.94 4.337 0 2.873.927 4.324.94 1.436 2.94 1.436 2.176 0 3.102-1.396.94-1.397.94-4.364zM94.021 19.927L83.896 3.813l.068 1.303.067 2.242v12.569h-2.283V1.007h2.98l10.233 16.22q-.161-2.631-.161-3.813V1.007h2.31v18.92h-3.09zM103.071 13.173q0 2.497 1.034 3.853 1.034 1.357 3.021 1.357 1.572 0 2.511-.632.954-.63 1.29-1.597l2.121.604q-1.302 3.437-5.922 3.437-3.222 0-4.914-1.92-1.679-1.92-1.679-5.707 0-3.598 1.679-5.518 1.692-1.92 4.82-1.92 6.405 0 6.405 7.72v.323h-10.366zm7.869-1.853q-.201-2.297-1.168-3.344-.967-1.06-2.78-1.06-1.759 0-2.793 1.18-1.02 1.17-1.1 3.224h7.84zM116.58 19.927V8.782q0-1.531-.081-3.384h2.283q.107 2.47.107 2.967h.054q.577-1.866 1.33-2.55.751-.686 2.12-.686.484 0 .981.135v2.215q-.483-.134-1.29-.134-1.503 0-2.295 1.302-.792 1.29-.792 3.707v7.573h-2.417zM134.882 17.59q-.672 1.397-1.786 2.001-1.101.604-2.74.604-2.752 0-4.055-1.853-1.289-1.853-1.289-5.613 0-7.6 5.344-7.6 1.652 0 2.753.605 1.101.604 1.773 1.92h.026l-.026-1.625V0h2.417v16.932q0 2.27.08 2.995h-2.31q-.04-.215-.093-.994-.04-.779-.04-1.343h-.054zm-7.332-4.941q0 3.048.806 4.364.805 1.316 2.618 1.316 2.055 0 2.981-1.423.927-1.424.927-4.418 0-2.887-.927-4.23-.926-1.343-2.954-1.343-1.826 0-2.645 1.356-.806 1.343-.806 4.378zM151.613 3.102v7.036h10.554v2.122h-10.554v7.667h-2.565V1.007h13.441v2.095h-10.876zM177.743 12.649q0 3.813-1.679 5.68-1.678 1.866-4.874 1.866-3.182 0-4.807-1.933-1.625-1.947-1.625-5.613 0-7.52 6.513-7.52 3.33 0 4.9 1.84 1.572 1.826 1.572 5.68zm-2.538 0q0-3.008-.9-4.364-.886-1.37-2.994-1.37-2.122 0-3.075 1.397-.94 1.383-.94 4.337 0 2.873.927 4.324.94 1.436 2.94 1.436 2.176 0 3.102-1.396.94-1.397.94-4.364zM189.989 19.927v-9.212q0-1.436-.282-2.229-.282-.792-.9-1.141-.617-.35-1.812-.35-1.746 0-2.753 1.196-1.007 1.195-1.007 3.317v8.419h-2.417V8.5q0-2.538-.08-3.102h2.282q.013.067.027.362.013.296.027.685.027.376.053 1.437h.04q.833-1.504 1.92-2.122 1.102-.63 2.727-.63 2.39 0 3.49 1.194 1.115 1.182 1.115 3.921v9.682h-2.43zM201.658 19.82q-1.195.322-2.444.322-2.9 0-2.9-3.29V7.157h-1.679v-1.76h1.772l.712-3.249h1.611v3.25h2.686v1.759h-2.686v9.171q0 1.047.336 1.477.35.416 1.195.416.484 0 1.397-.188v1.786z"/></g><g style="line-height:125%" font-size="17.5"><path d="M6.046 60.098q-1.393 0-2.093-.735-.701-.735-.701-2.017 0-1.435.94-2.204.948-.77 3.05-.82l2.077-.035v-.504q0-1.128-.479-1.615-.478-.487-1.504-.487-1.034 0-1.503.35-.47.35-.564 1.12l-1.607-.146q.393-2.495 3.709-2.495 1.743 0 2.623.803.88.795.88 2.308v3.982q0 .683.18 1.033.179.342.683.342.222 0 .504-.06v.957q-.58.137-1.188.137-.854 0-1.247-.444-.385-.453-.436-1.41H9.32q-.59 1.06-1.376 1.504-.777.436-1.897.436zm.35-1.154q.846 0 1.504-.384.658-.385 1.034-1.051.385-.676.385-1.385v-.76l-1.683.034q-1.086.017-1.65.222-.555.205-.854.632-.3.428-.3 1.12 0 .752.402 1.162.41.41 1.162.41zM21.248 55.261q0 4.837-3.401 4.837-1.051 0-1.752-.376-.692-.385-1.128-1.23h-.017q0 .264-.034.811-.034.538-.051.624h-1.487q.051-.462.051-1.906V47.246h1.538v3.615q0 .555-.034 1.307h.034q.427-.889 1.128-1.273.71-.385 1.752-.385 1.751 0 2.572 1.18.829 1.179.829 3.571zm-1.615.052q0-1.94-.513-2.778-.513-.837-1.666-.837-1.3 0-1.897.889-.59.888-.59 2.82 0 1.82.581 2.691.581.863 1.889.863 1.162 0 1.674-.854.522-.863.522-2.794zM24.34 55.261q0 1.846.582 2.735.58.888 1.752.888.82 0 1.367-.444.555-.444.683-1.367l1.556.102q-.18 1.333-1.137 2.128-.957.795-2.427.795-1.94 0-2.965-1.222-1.017-1.23-1.017-3.58 0-2.333 1.026-3.555 1.025-1.23 2.94-1.23 1.418 0 2.35.734.939.735 1.178 2.025l-1.58.12q-.12-.77-.607-1.222-.487-.453-1.385-.453-1.221 0-1.768.812-.547.812-.547 2.734zM37.756 58.44q-.427.889-1.136 1.273-.7.385-1.743.385-1.752 0-2.58-1.18-.821-1.179-.821-3.571 0-4.837 3.4-4.837 1.052 0 1.752.385.701.384 1.128 1.222h.017l-.017-1.034v-3.837h1.538v10.775q0 1.444.052 1.906h-1.47q-.026-.137-.06-.633-.025-.495-.025-.854h-.035zm-4.665-3.145q0 1.94.513 2.778.512.837 1.666.837 1.307 0 1.897-.906.59-.906.59-2.811 0-1.837-.59-2.692-.59-.854-1.88-.854-1.162 0-1.683.863-.513.854-.513 2.785zM42.84 55.629q0 1.589.659 2.452.657.863 1.922.863 1 0 1.598-.402.607-.401.82-1.016l1.35.384q-.828 2.188-3.768 2.188-2.05 0-3.127-1.222-1.068-1.222-1.068-3.632 0-2.29 1.068-3.512 1.076-1.222 3.067-1.222 4.076 0 4.076 4.914v.205h-6.596zm5.008-1.18q-.128-1.46-.744-2.127-.615-.675-1.768-.675-1.12 0-1.778.752-.65.743-.7 2.05h4.99zM53.308 51.8v8.127H51.77V51.8h-1.299v-1.12h1.299V49.64q0-1.265.555-1.82.556-.556 1.7-.556.642 0 1.086.103v1.17q-.384-.068-.684-.068-.59 0-.854.299-.265.3-.265 1.085v.83h1.803V51.8h-1.803zM59.76 63.558q-1.513 0-2.41-.598-.897-.59-1.154-1.683l1.547-.222q.154.64.675.982.53.35 1.384.35 2.299 0 2.299-2.691v-1.487h-.017q-.436.889-1.197 1.342-.76.444-1.777.444-1.7 0-2.504-1.128-.794-1.128-.794-3.546 0-2.452.854-3.614.863-1.171 2.615-1.171.983 0 1.7.453.727.444 1.12 1.273h.017q0-.256.034-.889.034-.632.069-.692h1.46q-.05.462-.05 1.914v7.067q0 3.896-3.871 3.896zm2.34-8.254q0-1.128-.307-1.94-.307-.82-.871-1.247-.556-.436-1.265-.436-1.18 0-1.718.854-.538.855-.538 2.769 0 1.897.504 2.726t1.726.829q.727 0 1.29-.428.565-.427.872-1.222.308-.803.308-1.905zM67.527 52.262q.495-.906 1.188-1.325.7-.427 1.768-.427 1.504 0 2.214.752.717.744.717 2.504v6.16h-1.546v-5.861q0-.974-.18-1.444-.18-.479-.59-.7-.41-.223-1.136-.223-1.085 0-1.743.752-.65.752-.65 2.025v5.452h-1.538v-12.68h1.539v3.297q0 .522-.035 1.077-.025.556-.034.641h.026zM75.73 48.716v-1.47h1.538v1.47H75.73zm0 11.21v-9.245h1.538v9.246H75.73zM79.626 48.716v-1.47h1.539v1.47h-1.539zm1.539 12.356q0 1.307-.513 1.897-.513.59-1.538.59-.658 0-1.085-.078v-1.187l.53.051q.589 0 .828-.308.24-.307.24-1.196v-10.16h1.538v10.39zM89.325 59.927l-3.127-4.221-1.128.931v3.29H83.53v-12.68h1.539v7.92l4.058-4.486h1.803l-3.75 3.974 3.947 5.272h-1.803zM92.281 59.927v-12.68h1.539v12.68H92.28zM101.561 59.927v-5.862q0-1.342-.367-1.854-.368-.513-1.325-.513-.982 0-1.555.752-.572.752-.572 2.12v5.357h-1.53v-7.272q0-1.615-.051-1.974h1.452q.01.043.018.23.009.189.017.437.017.239.034.914h.025q.496-.983 1.137-1.367.64-.385 1.564-.385 1.05 0 1.657.419.616.419.855 1.333h.025q.479-.931 1.154-1.342.684-.41 1.65-.41 1.4 0 2.033.76.64.761.64 2.496v6.16h-1.52v-5.861q0-1.342-.368-1.854-.367-.513-1.324-.513-1.008 0-1.572.752-.556.743-.556 2.12v5.357h-1.52zM116.643 59.927v-5.862q0-.914-.18-1.419-.179-.504-.572-.726-.393-.222-1.153-.222-1.111 0-1.752.76-.641.761-.641 2.111v5.358h-1.538v-7.272q0-1.615-.051-1.974h1.452q.01.043.017.23.01.189.017.437.018.239.035.914h.025q.53-.957 1.222-1.35.7-.402 1.735-.402 1.52 0 2.221.76.71.753.71 2.496v6.16h-1.547zM128.333 55.295q0 2.427-1.069 3.615-1.068 1.188-3.101 1.188-2.026 0-3.06-1.23-1.033-1.24-1.033-3.573 0-4.785 4.144-4.785 2.119 0 3.119 1.17 1 1.163 1 3.615zm-1.615 0q0-1.914-.573-2.777-.564-.871-1.905-.871-1.35 0-1.957.888-.598.88-.598 2.76 0 1.829.59 2.752.597.914 1.87.914 1.385 0 1.974-.888.599-.89.599-2.778zM138.074 55.261q0 4.837-3.401 4.837-2.136 0-2.871-1.607h-.043q.034.069.034 1.453v3.614h-1.538V52.57q0-1.427-.051-1.889h1.487q.009.034.025.248.017.205.034.64.026.437.026.599h.034q.41-.855 1.086-1.248.675-.401 1.777-.401 1.709 0 2.555 1.145.846 1.145.846 3.597zm-1.615.034q0-1.93-.521-2.76-.522-.828-1.658-.828-.915 0-1.436.384-.512.385-.786 1.205-.265.812-.265 2.12 0 1.82.581 2.682.581.863 1.889.863 1.145 0 1.666-.837.53-.846.53-2.829zM142.953 60.098q-1.76 0-2.58-1.188-.821-1.188-.821-3.563 0-4.837 3.4-4.837 1.052 0 1.736.376.683.368 1.145 1.23h.017q0-.256.034-.88.034-.632.068-.674h1.478q-.06.504-.06 2.52v10.476h-1.537v-3.75l.034-1.402h-.017q-.462.914-1.137 1.307-.675.385-1.76.385zm2.88-4.905q0-1.803-.59-2.675-.59-.871-1.88-.871-1.17 0-1.683.871-.513.872-.513 2.777 0 1.94.513 2.778.52.837 1.666.837 1.307 0 1.897-.931.59-.932.59-2.786zM149.772 59.927v-7.093q0-.974-.052-2.153h1.453q.068 1.572.068 1.889h.035q.367-1.188.846-1.624.478-.436 1.35-.436.307 0 .623.086v1.41q-.307-.086-.82-.086-.957 0-1.461.829-.504.82-.504 2.358v4.82h-1.538zM162.52 57.372q0 1.307-.99 2.016-.983.71-2.76.71-1.727 0-2.666-.564-.932-.573-1.214-1.778l1.359-.265q.196.744.812 1.094.615.342 1.709.342 1.17 0 1.709-.359.546-.359.546-1.077 0-.546-.376-.888-.376-.342-1.213-.564l-1.102-.29q-1.325-.343-1.889-.667-.555-.333-.871-.803-.316-.47-.316-1.154 0-1.265.897-1.923.906-.666 2.632-.666 1.53 0 2.426.538.906.539 1.145 1.726l-1.384.171q-.128-.615-.692-.94-.555-.333-1.495-.333-1.043 0-1.538.316-.496.316-.496.957 0 .393.205.65.205.256.607.435.401.18 1.692.496 1.222.308 1.76.573.538.256.846.572.316.316.487.735.17.41.17.94zM167.887 59.858q-.76.205-1.555.205-1.846 0-1.846-2.093V51.8h-1.068v-1.119h1.128l.453-2.068h1.025v2.068h1.71v1.12h-1.71v5.836q0 .666.214.94.222.265.76.265.308 0 .889-.12v1.136zM170.69 50.681v5.862q0 .914.18 1.418.179.505.572.727.393.222 1.153.222 1.111 0 1.752-.76.64-.761.64-2.111V50.68h1.539v7.272q0 1.615.051 1.974h-1.452q-.01-.043-.018-.231-.009-.188-.025-.427-.01-.248-.026-.923h-.025q-.53.957-1.23 1.359-.693.393-1.727.393-1.52 0-2.23-.752-.7-.76-.7-2.504v-6.16h1.546zM182.986 59.927h-1.82l-3.358-9.246h1.64l2.034 6.016q.111.342.59 2.025l.299-1 .333-1.008 2.102-6.033h1.632l-3.452 9.246zM196.53 59.927h-1.786l-1.615-6.537-.308-1.444q-.077.384-.24 1.11-.162.718-1.742 6.87h-1.778l-2.589-9.245h1.521l1.564 6.28q.06.206.367 1.693l.146-.633 1.93-7.34h1.65l1.615 6.349.393 1.624.265-1.188 1.752-6.785h1.503l-2.648 9.246zM205.989 59.927l-2.487-3.794L201 59.927h-1.658l3.29-4.751-3.136-4.495h1.7l2.307 3.598 2.29-3.598h1.718l-3.136 4.478 3.332 4.768h-1.717zM209.526 63.558q-.632 0-1.06-.094v-1.153q.326.051.719.051 1.435 0 2.273-2.11l.145-.368-3.666-9.203h1.64l1.949 5.11.102.29q.06.163.385 1.111.325.949.35 1.06l.598-1.683 2.026-5.888h1.623l-3.555 9.246q-.572 1.478-1.068 2.196-.495.726-1.102 1.076-.598.36-1.359.36zM217.354 59.927v-1.17l5.17-6.888h-4.88V50.68h6.7v1.17l-5.179 6.888h5.358v1.188h-7.17zM12.48 81.802l-1.375-3.52H5.619l-1.384 3.52H2.543l4.913-12.04H9.31l4.837 12.04H12.48zm-4.118-10.81l-.077.24q-.214.709-.632 1.82l-1.538 3.956h4.503L9.07 73.035q-.24-.59-.478-1.333l-.231-.71zM24.948 78.41q0 1.606-1.171 2.503-1.17.889-3.256.889h-4.887v-12.04h4.375q4.238 0 4.238 2.922 0 1.068-.598 1.795-.598.726-1.692.974 1.435.17 2.213.965.778.787.778 1.991zm-2.342-5.53q0-.973-.666-1.392-.667-.419-1.931-.419h-2.743v3.811h2.743q1.307 0 1.948-.487.65-.495.65-1.512zm.692 5.401q0-2.127-2.99-2.127h-3.042v4.34h3.17q1.495 0 2.179-.555.683-.555.683-1.658zM32.655 70.916q-2 0-3.11 1.29-1.111 1.282-1.111 3.52 0 2.213 1.153 3.564 1.163 1.341 3.136 1.341 2.53 0 3.803-2.504l1.333.667q-.744 1.555-2.094 2.367-1.341.812-3.119.812-1.82 0-3.153-.752-1.324-.76-2.025-2.162-.692-1.41-.692-3.333 0-2.88 1.555-4.511 1.555-1.632 4.307-1.632 1.923 0 3.213.751 1.29.752 1.897 2.23l-1.547.513q-.419-1.05-1.35-1.606-.923-.555-2.196-.555zM50.334 75.658q0 1.863-.726 3.264-.726 1.393-2.06 2.136-1.332.744-3.075.744h-4.504v-12.04h3.982q3.06 0 4.717 1.538 1.666 1.53 1.666 4.358zm-1.64 0q0-2.239-1.23-3.41-1.223-1.179-3.547-1.179h-2.315v9.425h2.683q1.324 0 2.324-.58 1.008-.582 1.547-1.675.538-1.094.538-2.581zM52.616 81.802v-12.04h9.134v1.333h-7.502v3.862h6.99v1.316h-6.99v4.196h7.853v1.333h-9.485zM65.938 71.095v4.478h6.716v1.35h-6.716v4.879h-1.633v-12.04h8.554v1.333h-6.921zM74.448 75.726q0-2.93 1.573-4.537 1.572-1.606 4.417-1.606 2 0 3.247.675 1.248.675 1.923 2.161l-1.555.462q-.513-1.026-1.419-1.496-.897-.47-2.238-.47-2.085 0-3.188 1.265-1.102 1.256-1.102 3.546 0 2.282 1.17 3.606 1.171 1.316 3.24 1.316 1.178 0 2.195-.359 1.026-.359 1.658-.974v-2.17H80.77v-1.367h5.102v4.152q-.957.975-2.35 1.513-1.384.53-3.008.53-1.888 0-3.255-.752-1.368-.752-2.094-2.162-.718-1.419-.718-3.333zM96.75 81.802v-5.58h-6.51v5.58h-1.633v-12.04h1.632v5.093h6.511v-5.093h1.633v12.04H96.75zM101.433 81.802v-12.04h1.632v12.04h-1.632zM108.577 81.973q-3.06 0-3.632-3.162l1.598-.265q.154.991.692 1.547.538.555 1.35.555.889 0 1.402-.607.512-.615.512-1.794v-7.152h-2.315v-1.333h3.939v8.45q0 1.753-.949 2.76-.948 1-2.597 1zM122.872 81.802l-4.81-5.81-1.573 1.195v4.615h-1.632v-12.04h1.632v6.033l5.802-6.033h1.923l-5.127 5.23 5.81 6.81h-2.025zM126.547 81.802v-12.04h1.632v10.707h6.084v1.333h-7.716zM146.525 81.802V73.77q0-1.333.077-2.564-.42 1.53-.752 2.393l-3.11 8.203h-1.146l-3.153-8.203-.478-1.453-.282-.94.025.949.034 1.615v8.032h-1.452v-12.04h2.145l3.204 8.348q.17.504.325 1.086.162.572.213.828.069-.341.282-1.034.222-.7.3-.88l3.144-8.348h2.093v12.04h-1.47zM158.693 81.802l-6.443-10.254.042.829.043 1.427v7.998h-1.452v-12.04h1.896l6.512 10.322q-.103-1.675-.103-2.427v-7.895h1.47v12.04h-1.965zM174.868 75.726q0 1.889-.726 3.307-.718 1.419-2.068 2.18-1.35.76-3.187.76-1.855 0-3.205-.752-1.341-.752-2.05-2.17-.71-1.428-.71-3.325 0-2.888 1.581-4.511 1.581-1.632 4.4-1.632 1.838 0 3.188.734 1.35.727 2.06 2.12.717 1.392.717 3.29zm-1.666 0q0-2.247-1.128-3.529-1.12-1.281-3.17-1.281-2.068 0-3.196 1.264-1.128 1.265-1.128 3.546 0 2.265 1.137 3.598 1.145 1.324 3.17 1.324 2.085 0 3.196-1.282 1.119-1.29 1.119-3.64zM186.447 73.385q0 1.709-1.12 2.717-1.11 1.009-3.025 1.009h-3.537v4.69h-1.632V69.763h5.067q2.025 0 3.136.948 1.11.949 1.11 2.675zm-1.641.017q0-2.333-2.803-2.333h-3.238v4.751h3.307q2.734 0 2.734-2.418zM200.161 75.726q0 2.547-1.282 4.187-1.281 1.64-3.563 1.94.35 1.077.914 1.555.573.479 1.445.479.47 0 .982-.111v1.145q-.794.188-1.52.188-1.291 0-2.128-.735-.83-.727-1.36-2.436-1.691-.085-2.921-.854-1.222-.778-1.872-2.153-.64-1.385-.64-3.205 0-2.888 1.58-4.511 1.581-1.632 4.4-1.632 1.838 0 3.188.734 1.35.727 2.06 2.12.717 1.392.717 3.29zm-1.666 0q0-2.247-1.128-3.529-1.12-1.281-3.17-1.281-2.068 0-3.196 1.264-1.128 1.265-1.128 3.546 0 2.265 1.137 3.598 1.145 1.324 3.17 1.324 2.085 0 3.195-1.282 1.12-1.29 1.12-3.64zM210.936 81.802l-3.127-4.999h-3.751v4.999h-1.632v-12.04h5.665q2.034 0 3.136.914 1.11.906 1.11 2.53 0 1.341-.785 2.255-.778.915-2.154 1.154l3.418 5.187h-1.88zm-.239-8.58q0-1.05-.718-1.597-.709-.556-2.05-.556h-3.871v4.444h3.939q1.29 0 1.99-.598.71-.607.71-1.692zM224.506 78.478q0 1.666-1.308 2.58-1.299.915-3.666.915-4.4 0-5.1-3.06l1.58-.316q.273 1.086 1.162 1.598.889.504 2.418.504 1.581 0 2.436-.538.863-.547.863-1.598 0-.59-.274-.957-.265-.367-.752-.606-.487-.24-1.162-.402-.675-.162-1.495-.35-1.427-.317-2.17-.633-.736-.316-1.163-.7-.427-.394-.658-.915-.222-.521-.222-1.196 0-1.547 1.18-2.384 1.187-.837 3.392-.837 2.05 0 3.136.632 1.085.624 1.52 2.136l-1.606.282q-.265-.957-1.008-1.384-.744-.436-2.06-.436-1.444 0-2.204.478-.76.479-.76 1.427 0 .556.29.923.3.36.854.616.556.247 2.214.615.555.128 1.102.265.555.128 1.06.316.504.18.94.427.444.248.768.607.325.359.505.846.188.487.188 1.145zM231.478 71.095v10.707h-1.623V71.095h-4.136v-1.333h9.895v1.333h-4.136zM242.27 81.973q-1.478 0-2.58-.539-1.102-.538-1.709-1.563-.607-1.026-.607-2.444v-7.665h1.632v7.528q0 1.65.838 2.504.837.854 2.418.854 1.624 0 2.52-.88.906-.889.906-2.59v-7.416h1.624v7.51q0 1.462-.624 2.522-.615 1.06-1.751 1.623-1.128.556-2.666.556zM255.353 81.802h-1.692l-4.913-12.04h1.717l3.333 8.477.717 2.127.718-2.127 3.316-8.477h1.717l-4.913 12.04zM273.271 81.802h-1.948l-2.085-7.648q-.205-.718-.598-2.572-.222.991-.376 1.658-.154.666-2.333 8.562h-1.948l-3.546-12.04h1.7l2.162 7.648q.385 1.435.71 2.956.205-.94.47-2.05.273-1.111 2.375-8.554h1.564l2.093 7.494q.479 1.837.752 3.11l.077-.299q.23-.983.376-1.598.145-.624 2.401-8.707h1.7l-3.546 12.04zM286.37 81.802l-3.614-5.264-3.691 5.264h-1.803l4.58-6.255-4.23-5.785h1.803l3.35 4.725 3.256-4.725h1.802l-4.118 5.725 4.469 6.315h-1.803zM295.198 76.812v4.99h-1.624v-4.99l-4.631-7.05h1.794l3.666 5.734 3.649-5.734h1.794l-4.648 7.05zM310.39 81.802h-9.587V80.58l7.332-9.485h-6.708v-1.333h8.562v1.188l-7.332 9.519h7.734v1.333zM11.506 99.045q0 2.427-1.068 3.615-1.068 1.188-3.102 1.188-2.025 0-3.059-1.23-1.034-1.24-1.034-3.573 0-4.785 4.145-4.785 2.119 0 3.119 1.17 1 1.163 1 3.615zm-1.615 0q0-1.914-.572-2.777-.564-.871-1.906-.871-1.35 0-1.956.888-.599.88-.599 2.76 0 1.829.59 2.752.598.914 1.871.914 1.385 0 1.974-.888.598-.89.598-2.778zM25.024 97.601q0 1.889-.726 3.307-.718 1.419-2.068 2.18-1.35.76-3.187.76-1.854 0-3.204-.752-1.342-.752-2.051-2.17-.71-1.428-.71-3.325 0-2.888 1.581-4.511 1.581-1.632 4.401-1.632 1.837 0 3.187.734 1.35.727 2.06 2.12.717 1.392.717 3.29zm-1.666 0q0-2.247-1.128-3.529-1.12-1.281-3.17-1.281-2.068 0-3.196 1.264-1.128 1.265-1.128 3.546 0 2.265 1.137 3.598 1.145 1.324 3.17 1.324 2.085 0 3.196-1.282 1.12-1.29 1.12-3.64zM34.902 97.653q0 3.016-1.068 4.605-1.06 1.59-3.136 1.59t-3.119-1.581q-1.042-1.581-1.042-4.614 0-3.102 1.008-4.649 1.017-1.546 3.205-1.546 2.127 0 3.136 1.563 1.016 1.564 1.016 4.632zm-1.563 0q0-2.607-.607-3.777-.598-1.17-1.982-1.17-1.419 0-2.043 1.153-.615 1.153-.615 3.794 0 2.563.624 3.75.632 1.189 2 1.189 1.358 0 1.99-1.214.633-1.213.633-3.725zM44.567 100.319q0 1.666-1.06 2.597-1.06.932-3.042.932-1.931 0-3.025-.915-1.085-.914-1.085-2.597 0-1.18.675-1.983.675-.803 1.726-.974v-.034q-.983-.23-1.555-1-.564-.769-.564-1.803 0-1.376 1.025-2.23 1.034-.855 2.769-.855 1.777 0 2.803.838 1.034.837 1.034 2.264 0 1.034-.573 1.803-.572.77-1.564.966v.034q1.154.188 1.795.983.64.786.64 1.974zm-1.897-5.674q0-2.042-2.24-2.042-1.084 0-1.657.512-.564.513-.564 1.53 0 1.034.581 1.58.59.539 1.658.539 1.085 0 1.65-.496.572-.504.572-1.623zm.299 5.528q0-1.12-.667-1.683-.666-.573-1.871-.573-1.17 0-1.829.616-.658.606-.658 1.675 0 2.486 2.538 2.486 1.256 0 1.872-.598.615-.607.615-1.923zM51.36 92.466v-1.47h1.538v1.47H51.36zm0 11.21v-9.245h1.538v9.246H51.36zM55.7 103.677v-12.04h1.633v12.04H55.7zM60.118 103.677v-12.68h1.538v12.68h-1.538zM64.271 103.677v-12.04h1.632v10.707h6.084v1.333h-7.716zM73.91 103.677v-1.308h3.068v-9.262l-2.718 1.94v-1.453l2.846-1.957h1.418v10.732h2.931v1.308H73.91zM91.555 107.308q-1.085 0-1.675-.658-.58-.658-.58-1.845v-3.085q0-1-.454-1.487-.444-.495-1.384-.538V98.61q.932-.035 1.384-.522.453-.495.453-1.495V93.5q0-1.205.564-1.855.573-.649 1.692-.649h1.154v1.102h-.539q-.777 0-1.11.462-.325.453-.325 1.376v3.042q0 .803-.453 1.392-.453.581-1.205.76v.018q.76.18 1.205.76.453.582.453 1.41v3.05q0 .907.325 1.368.333.47 1.11.47h.539v1.102h-1.154zM93.82 106.206q.777 0 1.11-.47.342-.461.342-1.367v-3.05q0-.838.445-1.42.444-.58 1.204-.751v-.017q-.734-.171-1.196-.744-.453-.58-.453-1.41v-3.041q0-.923-.342-1.376-.333-.462-1.11-.462h-.513v-1.102h1.128q1.12 0 1.683.65.573.649.573 1.854v3.093q0 .991.453 1.487.452.495 1.4.53v1.085q-.956.034-1.409.53-.444.495-.444 1.495v3.085q0 1.179-.59 1.837-.581.666-1.666.666h-1.128v-1.102h.513zM104.962 107.308V90.996h3.478v1.102h-1.991v14.108h1.99v1.102h-3.477zM108.705 107.308v-1.102h1.99V92.098h-1.99v-1.102h3.478v16.312h-3.478zM122.958 107.308q-1.513 0-2.41-.598-.897-.59-1.153-1.683l1.546-.222q.154.64.675.982.53.35 1.384.35 2.3 0 2.3-2.691v-1.487h-.018q-.436.889-1.196 1.342-.76.444-1.778.444-1.7 0-2.503-1.128-.795-1.128-.795-3.546 0-2.452.854-3.614.864-1.171 2.615-1.171.983 0 1.7.453.727.444 1.12 1.273h.017q0-.256.034-.889.035-.632.069-.692h1.46q-.05.462-.05 1.914v7.067q0 3.896-3.871 3.896zm2.341-8.254q0-1.128-.308-1.94-.307-.82-.871-1.247-.556-.436-1.265-.436-1.179 0-1.717.854-.539.855-.539 2.769 0 1.897.505 2.726.504.829 1.726.829.726 0 1.29-.428.564-.427.871-1.222.308-.803.308-1.905zM136.92 97.413q0 3.102-1.136 4.768-1.128 1.667-3.222 1.667-1.41 0-2.264-.59-.846-.598-1.214-1.923l1.47-.23q.462 1.504 2.034 1.504 1.324 0 2.05-1.23.727-1.231.761-3.513-.342.77-1.17 1.24-.83.46-1.82.46-1.624 0-2.598-1.11-.974-1.111-.974-2.948 0-1.889 1.06-2.965 1.059-1.085 2.947-1.085 2.008 0 3.042 1.486 1.034 1.487 1.034 4.47zm-1.675-1.486q0-1.453-.666-2.333-.667-.889-1.786-.889-1.11 0-1.752.76-.64.753-.64 2.043 0 1.316.64 2.085.641.76 1.735.76.666 0 1.239-.299.572-.307.897-.863.333-.555.333-1.264zM141.893 103.848q-1.76 0-2.58-1.188-.82-1.188-.82-3.563 0-4.837 3.4-4.837 1.051 0 1.735.376.684.368 1.145 1.23h.017q0-.256.034-.88.034-.632.069-.674h1.478q-.06.504-.06 2.52v10.476h-1.538v-3.75l.034-1.402h-.017q-.461.914-1.136 1.307-.675.385-1.76.385zm2.88-4.905q0-1.803-.59-2.675-.59-.871-1.88-.871-1.17 0-1.683.871-.513.872-.513 2.777 0 1.94.513 2.778.521.837 1.666.837 1.308 0 1.897-.931.59-.932.59-2.786zM154.266 92.79q-2 0-3.11 1.29-1.11 1.283-1.11 3.521 0 2.213 1.153 3.564 1.162 1.341 3.136 1.341 2.529 0 3.802-2.504l1.333.667q-.743 1.555-2.093 2.367-1.342.812-3.12.812-1.82 0-3.152-.752-1.325-.76-2.025-2.162-.693-1.41-.693-3.333 0-2.88 1.556-4.511 1.555-1.632 4.306-1.632 1.923 0 3.213.751 1.29.752 1.897 2.23l-1.546.513q-.42-1.05-1.35-1.606-.923-.555-2.197-.555zM161.025 97.601q0-2.93 1.573-4.537 1.572-1.606 4.417-1.606 2 0 3.247.675 1.248.675 1.923 2.161l-1.555.462q-.513-1.026-1.419-1.496-.897-.47-2.238-.47-2.085 0-3.188 1.265-1.102 1.256-1.102 3.546 0 2.282 1.17 3.606 1.171 1.316 3.24 1.316 1.178 0 2.195-.359 1.026-.359 1.658-.974v-2.17h-3.597v-1.367h5.101v4.152q-.957.975-2.35 1.513-1.384.53-3.008.53-1.888 0-3.255-.752-1.368-.752-2.094-2.162-.718-1.419-.718-3.333zM186.523 97.601q0 2.547-1.281 4.187-1.282 1.64-3.564 1.94.35 1.077.915 1.555.572.479 1.444.479.47 0 .983-.111v1.145q-.795.188-1.521.188-1.29 0-2.128-.735-.829-.727-1.359-2.436-1.692-.085-2.922-.854-1.222-.778-1.871-2.153-.641-1.385-.641-3.205 0-2.888 1.58-4.511 1.581-1.632 4.401-1.632 1.837 0 3.187.734 1.35.727 2.06 2.12.717 1.392.717 3.29zm-1.666 0q0-2.247-1.128-3.529-1.12-1.281-3.17-1.281-2.068 0-3.196 1.264-1.128 1.265-1.128 3.546 0 2.265 1.137 3.598 1.145 1.324 3.17 1.324 2.085 0 3.196-1.282 1.12-1.29 1.12-3.64zM199.418 98.951q-.59 0-1.214-.188-.615-.188-1.239-.41-1.102-.384-1.854-.384-.572 0-1.068.18-.496.17-1.051.572v-1.222q.948-.718 2.247-.718.445 0 .983.111.547.111 1.658.504.265.103.777.248.513.137.897.137 1.111 0 2.085-.786v1.273q-.495.359-1 .521-.495.162-1.221.162zM203.203 99.712v-1.367h4.273v1.367h-4.273zM214.004 98.481v3.658h-1.256V98.48h-3.623v-1.247h3.623v-3.657h1.256v3.657h3.623v1.247h-3.623zM219.344 96.362v-1.264h8.503v1.264h-8.503zm0 4.375v-1.264h8.503v1.264h-8.503zM229.573 102.36v-1.307l7.331-3.136-7.331-3.127v-1.316l8.502 3.572v1.752l-8.502 3.563z"/></g></g></svg>