<?xml version="1.0" encoding="UTF-8" standalone="no"?>
<svg
   version="1.1"
   id="svg2"
   viewBox="0 0 310.18557 107.30834"
   height="30.2848mm"
   width="87.54126mm"
   sodipodi:docname="Arimo Nerd Font.svg"
   xmlns:inkscape="http://www.inkscape.org/namespaces/inkscape"
   xmlns:sodipodi="http://sodipodi.sourceforge.net/DTD/sodipodi-0.dtd"
   xmlns="http://www.w3.org/2000/svg"
   xmlns:svg="http://www.w3.org/2000/svg"
   xmlns:rdf="http://www.w3.org/1999/02/22-rdf-syntax-ns#"
   xmlns:cc="http://creativecommons.org/ns#"
   xmlns:dc="http://purl.org/dc/elements/1.1/">
  <sodipodi:namedview
     id="namedview12"
     pagecolor="#ffffff"
     bordercolor="#666666"
     borderopacity="1.0"
     inkscape:showpageshadow="2"
     inkscape:pageopacity="0.0"
     inkscape:pagecheckerboard="0"
     inkscape:deskcolor="#d1d1d1"
     inkscape:document-units="mm" />
  <defs
     id="defs4" />
  <metadata
     id="metadata7">
    <rdf:RDF>
      <cc:Work
         rdf:about="">
        <dc:format>image/svg+xml</dc:format>
        <dc:type
           rdf:resource="http://purl.org/dc/dcmitype/StillImage" />
        <dc:title />
      </cc:Work>
    </rdf:RDF>
  </metadata>
  <g
     id="layer1"
     transform="translate(-62.910854,-81.006874)">
    <g
       aria-label="Arimo Nerd Font"
       id="text4136"
       style="font-size:27.5px;font-family:'Arimo Nerd Font';letter-spacing:0px;word-spacing:0px;fill:#ffffff">
      <path
         d="M 67.744839,95.401405 65.569546,100.93363 H 62.910854 L 70.631802,82.013954 H 73.54562 L 81.145718,100.93363 H 78.527309 L 76.365444,95.401405 Z M 72.055141,83.947548 Q 71.82687,84.699501 71.504604,85.626015 71.195766,86.539101 70.927212,87.237343 L 68.523647,93.400673 H 75.600063 L 73.169643,87.156776 Q 72.981655,86.686806 72.672817,85.827431 72.363979,84.968056 72.055141,83.947548 Z"
         id="path14" />
      <path
         d="M 85.523159,93.36039 V 100.93363 H 83.106167 V 89.788612 Q 83.106167,88.257851 83.0256,86.404823 H 85.308315 Q 85.362026,87.640175 85.388882,88.3787 85.415737,89.117226 85.415737,89.372353 H 85.469448 Q 85.87228,88.056435 86.355679,87.331337 86.825649,86.65995 87.429897,86.404823 88.034145,86.136269 88.920376,86.136269 89.417202,86.136269 89.9006,86.270546 V 88.486122 Q 89.444057,88.351845 88.611538,88.351845 87.107632,88.351845 86.315395,89.654335 85.523159,90.943398 85.523159,93.36039 Z"
         id="path16" />
      <path
         d="M 94.613735,81.006874 V 83.316444 H 92.196743 V 81.006874 Z M 94.613735,86.404823 V 100.93363 H 92.196743 V 86.404823 Z"
         id="path18" />
      <path
         d="M 100.77707,92.514442 V 100.93363 H 98.373501 V 89.50663 Q 98.373501,86.968788 98.292934,86.404823 H 100.57565 Q 100.61593,86.847939 100.64279,87.573036 100.68307,88.298134 100.68307,88.888954 H 100.72335 Q 101.50216,87.344765 102.50924,86.740517 103.51632,86.136269 104.96652,86.136269 106.61813,86.136269 107.5715,86.794228 108.5383,87.452187 108.91427,88.888954 H 108.95456 Q 109.70651,87.425331 110.7673,86.7808 111.84152,86.136269 113.35885,86.136269 115.561,86.136269 116.55465,87.331337 117.56173,88.526405 117.56173,91.252235 V 100.93363 H 115.1716 V 91.722206 Q 115.1716,89.614052 114.5942,88.808388 114.01681,88.002724 112.51291,88.002724 110.92843,88.002724 110.0422,89.184364 109.1694,90.352577 109.1694,92.514442 V 100.93363 H 106.77926 V 91.722206 Q 106.77926,89.614052 106.20187,88.808388 105.62448,88.002724 104.12057,88.002724 102.57638,88.002724 101.67672,89.184364 100.77707,90.366005 100.77707,92.514442 Z"
         id="path20" />
      <path
         d="M 133.51388,93.6558 Q 133.51388,97.469276 131.83541,99.335732 130.15695,101.20219 126.96115,101.20219 123.77877,101.20219 122.15402,99.268593 120.52926,97.321571 120.52926,93.6558 120.52926,86.136269 127.04171,86.136269 130.37179,86.136269 131.94284,87.975868 133.51388,89.80204 133.51388,93.6558 Z M 130.97604,93.6558 Q 130.97604,90.647987 130.07638,89.291786 129.19015,87.922157 127.082,87.922157 124.96041,87.922157 124.00705,89.318642 123.0671,90.701698 123.0671,93.6558 123.0671,96.529335 123.99362,97.97953 124.93356,99.416298 126.93429,99.416298 129.10958,99.416298 130.0361,98.019814 130.97604,96.623329 130.97604,93.6558 Z"
         id="path22" />
      <path
         d="M 146.84762,88.365273 V 100.93363 H 144.56491 V 82.013954 H 147.54586 L 157.7778,98.234657 Q 157.61666,95.589394 157.61666,94.421181 V 82.013954 H 159.92624 V 100.93363 H 156.83786 L 146.71334,84.820351 Q 146.7402,85.706581 146.79391,86.592812 146.84762,87.479042 146.84762,88.365273 Z"
         id="path24" />
      <path
         d="M 165.87472,94.179482 Q 165.87472,96.67704 166.90866,98.033241 167.94259,99.389442 169.9299,99.389442 171.50094,99.389442 172.44088,98.758339 173.39425,98.127235 173.72995,97.160439 L 175.85153,97.764687 Q 174.54904,101.20219 169.9299,101.20219 166.70724,101.20219 165.01535,99.282021 163.33688,97.361855 163.33688,93.575233 163.33688,89.976601 165.01535,88.056435 166.70724,86.136269 169.8359,86.136269 176.24093,86.136269 176.24093,93.857216 V 94.179482 Z M 173.74337,92.326454 Q 173.54196,90.030312 172.57516,88.982948 171.60836,87.922157 169.79562,87.922157 168.03659,87.922157 167.00265,89.103798 165.98214,90.272011 165.90158,92.326454 Z"
         id="path26" />
      <path
         d="M 181.78659,93.36039 V 100.93363 H 179.36959 V 89.788612 Q 179.36959,88.257851 179.28903,86.404823 H 181.57174 Q 181.62545,87.640175 181.65231,88.3787 181.67916,89.117226 181.67916,89.372353 H 181.73288 Q 182.13571,88.056435 182.61911,87.331337 183.08908,86.65995 183.69333,86.404823 184.29757,86.136269 185.1838,86.136269 185.68063,86.136269 186.16403,86.270546 V 88.486122 Q 185.70749,88.351845 184.87497,88.351845 183.37106,88.351845 182.57882,89.654335 181.78659,90.943398 181.78659,93.36039 Z"
         id="path28" />
      <path
         d="M 197.83273,100.93363 Q 197.80587,100.78593 197.76559,100.38309 197.73874,99.966835 197.71188,99.470009 197.69845,98.973183 197.69845,98.597206 H 197.64474 Q 196.97335,99.99369 195.85885,100.59794 194.75778,101.20219 193.11959,101.20219 190.36691,101.20219 189.06442,99.349159 187.77536,97.496132 187.77536,93.736366 187.77536,86.136269 193.11959,86.136269 194.77121,86.136269 195.87228,86.740517 196.97335,87.344765 197.64474,88.660683 H 197.6716 L 197.64474,87.035927 V 81.006874 H 200.06173 V 97.939247 Q 200.06173,100.20853 200.1423,100.93363 Z M 190.3132,93.6558 Q 190.3132,96.703896 191.11886,98.019814 191.92453,99.335732 193.73727,99.335732 195.79171,99.335732 196.71823,97.912392 197.64474,96.489052 197.64474,93.494667 197.64474,90.607704 196.71823,89.264931 195.79171,87.922157 193.76413,87.922157 191.93795,87.922157 191.11886,89.278358 190.3132,90.621132 190.3132,93.6558 Z"
         id="path30" />
      <path
         d="M 214.3757,93.266396 V 100.93363 H 211.811 V 82.013954 H 225.25216 V 84.108681 H 214.3757 V 91.144814 H 224.9299 V 93.266396 Z"
         id="path32" />
      <path
         d="M 240.49264,93.6558 Q 240.49264,97.469276 238.81417,99.335732 237.13571,101.20219 233.93991,101.20219 230.75753,101.20219 229.13278,99.268593 227.50802,97.321571 227.50802,93.6558 227.50802,86.136269 234.02047,86.136269 237.35055,86.136269 238.9216,87.975868 240.49264,89.80204 240.49264,93.6558 Z M 237.9548,93.6558 Q 237.9548,90.647987 237.05514,89.291786 236.16891,87.922157 234.06076,87.922157 231.93917,87.922157 230.98581,89.318642 230.04586,90.701698 230.04586,93.6558 230.04586,96.529335 230.97238,97.97953 231.91232,99.416298 233.91305,99.416298 236.08834,99.416298 237.01486,98.019814 237.9548,96.623329 237.9548,93.6558 Z"
         id="path34" />
      <path
         d="M 245.97116,92.514442 V 100.93363 H 243.55416 V 89.50663 Q 243.55416,86.968788 243.4736,86.404823 H 245.75631 Q 245.7966,86.794228 245.82345,87.465614 245.85031,88.123573 245.86374,88.888954 H 245.90402 Q 246.73654,87.385048 247.82418,86.767372 248.92526,86.136269 250.55001,86.136269 252.94015,86.136269 254.04123,87.358192 255.15573,88.580116 255.15573,91.252235 V 100.93363 H 252.72531 V 91.722206 Q 252.72531,89.640907 252.05392,88.821815 251.38253,88.002724 249.73092,88.002724 247.98532,88.002724 246.97824,89.197792 245.97116,90.39286 245.97116,92.514442 Z"
         id="path36" />
      <path
         d="M 264.38058,100.82621 Q 263.19894,101.14848 261.93673,101.14848 259.03634,101.14848 259.03634,97.858681 V 88.163857 H 257.35788 V 86.404823 H 259.13034 L 259.84201,83.155312 H 261.45333 V 86.404823 H 264.13888 V 88.163857 H 261.45333 V 97.334999 Q 261.45333,98.382362 261.78903,98.81205 262.13815,99.22831 262.9841,99.22831 263.44064,99.22831 264.38058,99.040321 Z"
         id="path38" />
    </g>
    <g
       aria-label="abcdefghijklmnopqrstuvwxyzABCDEFGHIJKLMNOPQRSTUVWXYZ oO08 iIlL1 {} [] g9qCGQ ~-+=&gt;"
       id="text4140"
       style="font-size:17.5px;font-family:'Arimo Nerd Font';letter-spacing:0px;word-spacing:0px;fill:#ffffff">
      <path
         d="M 68.957001,141.10452 Q 67.564178,141.10452 66.863495,140.36966 66.162811,139.6348 66.162811,138.35306 66.162811,136.91751 67.102753,136.14847 68.051239,135.37943 70.15329,135.32816 L 72.229706,135.29398 V 134.78983 Q 72.229706,133.6619 71.75119,133.17484 71.272675,132.68777 70.247284,132.68777 69.213348,132.68777 68.743378,133.03812 68.273407,133.38846 68.179413,134.1575 L 66.572968,134.01224 Q 66.966034,131.51712 70.281464,131.51712 72.024628,131.51712 72.904755,132.32034 73.784882,133.11502 73.784882,134.62747 V 138.60941 Q 73.784882,139.293 73.964325,139.64334 74.143768,139.98514 74.647919,139.98514 74.887177,139.98514 75.152069,139.92532 V 140.88235 Q 74.596649,141.01907 73.964325,141.01907 73.109833,141.01907 72.716766,140.57474 72.332245,140.12186 72.280975,139.16483 H 72.229706 Q 71.640106,140.2244 70.853973,140.66873 70.076385,141.10452 68.957001,141.10452 Z M 72.229706,136.37064 70.546356,136.40482 Q 69.469696,136.41336 68.905731,136.62698 68.341766,136.83206 68.042694,137.25931 67.743622,137.68655 67.743622,138.37869 67.743622,139.13065 68.145233,139.5408 68.555389,139.95096 69.307343,139.95096 70.161835,139.95096 70.811249,139.56644 71.469208,139.18192 71.845184,138.51541 72.229706,137.84036 72.229706,137.13113 Z"
         id="path41" />
      <path
         d="M 84.149872,136.2681 Q 84.149872,141.10452 80.748993,141.10452 79.697968,141.10452 78.997284,140.72855 78.305145,140.34402 77.869354,139.49808 H 77.852264 Q 77.852264,139.66898 77.835175,139.99368 77.818085,140.31839 77.800995,140.60037 77.783905,140.87381 77.766815,140.93362 H 76.279999 Q 76.331268,140.4722 76.331268,139.02811 V 128.25296 H 77.869354 V 131.86746 Q 77.869354,132.1409 77.860809,132.47415 77.852264,132.79886 77.835175,133.17484 H 77.869354 Q 78.2966,132.28616 78.997284,131.90164 79.706512,131.51712 80.748993,131.51712 82.500702,131.51712 83.321014,132.69632 84.149872,133.87552 84.149872,136.2681 Z M 82.534882,136.31937 Q 82.534882,134.37967 82.022186,133.54227 81.509491,132.70486 80.355927,132.70486 79.057098,132.70486 78.458954,133.59354 77.869354,134.48221 77.869354,136.41336 77.869354,138.23343 78.450409,139.10501 79.031464,139.96805 80.338837,139.96805 81.500946,139.96805 82.013641,139.11356 82.534882,138.25052 82.534882,136.31937 Z"
         id="path43" />
      <path
         d="M 89.610077,141.10452 Q 87.67038,141.10452 86.644989,139.8826 85.628143,138.65213 85.628143,136.30228 85.628143,133.96951 86.653534,132.74759 87.678925,131.51712 89.592987,131.51712 91.011444,131.51712 91.942841,132.25198 92.882782,132.98685 93.12204,134.27713 L 91.541229,134.39676 Q 91.4216,133.62772 90.93454,133.17484 90.447479,132.72195 89.550262,132.72195 88.328339,132.72195 87.781464,133.53372 87.234589,134.34549 87.234589,136.2681 87.234589,138.1138 87.815643,139.00247 88.396698,139.89114 89.567352,139.89114 90.387665,139.89114 90.93454,139.44681 91.48996,139.00247 91.618134,138.07962 L 93.173309,138.18216 Q 92.993866,139.51517 92.036835,140.30984 91.079803,141.10452 89.610077,141.10452 Z"
         id="path45" />
      <path
         d="M 100.76974,140.93362 Q 100.75266,140.83963 100.72702,140.58328 100.70993,140.31839 100.69284,140.00223 100.6843,139.68607 100.6843,139.44681 H 100.65012 Q 100.22287,140.33548 99.513641,140.72 98.812958,141.10452 97.770477,141.10452 96.018768,141.10452 95.189911,139.92532 94.369598,138.74612 94.369598,136.35355 94.369598,131.51712 97.770477,131.51712 98.821503,131.51712 99.522186,131.90164 100.22287,132.28616 100.65012,133.12357 H 100.66721 L 100.65012,132.08963 V 128.25296 H 102.1882 V 139.02811 Q 102.1882,140.4722 102.23947,140.93362 Z M 95.984589,136.30228 Q 95.984589,138.24197 96.497284,139.07938 97.009979,139.91678 98.163544,139.91678 99.470917,139.91678 100.06052,139.01102 100.65012,138.10526 100.65012,136.19974 100.65012,134.36258 100.06052,133.50809 99.470917,132.65359 98.180634,132.65359 97.018524,132.65359 96.497284,133.51663 95.984589,134.37112 95.984589,136.30228 Z"
         id="path47" />
      <path
         d="M 105.7258,136.63553 Q 105.7258,138.22488 106.38376,139.08792 107.04172,139.95096 108.30637,139.95096 109.30612,139.95096 109.90427,139.54935 110.51096,139.14774 110.72458,138.5325 L 112.07468,138.91702 Q 111.24582,141.10452 108.30637,141.10452 106.25558,141.10452 105.17892,139.8826 104.11081,138.66068 104.11081,136.25101 104.11081,133.96097 105.17892,132.73904 106.25558,131.51712 108.24655,131.51712 112.32248,131.51712 112.32248,136.43045 V 136.63553 Z M 110.73312,135.45633 Q 110.60495,133.99515 109.98972,133.32864 109.37448,132.65359 108.22092,132.65359 107.10153,132.65359 106.44357,133.40555 105.79416,134.14896 105.74289,135.45633 Z"
         id="path49" />
      <path
         d="M 116.18478,132.8074 V 140.93362 H 114.6467 V 132.8074 H 113.34787 V 131.68802 H 114.6467 V 130.64554 Q 114.6467,129.38089 115.20212,128.82547 115.75754,128.27005 116.90256,128.27005 117.54343,128.27005 117.98776,128.37259 V 129.54324 Q 117.57761,129.47488 117.30417,129.47488 116.71457,129.47488 116.44968,129.77396 116.18478,130.07303 116.18478,130.85916 V 131.68802 H 117.98776 V 132.8074 Z"
         id="path51" />
      <path
         d="M 122.64474,144.56522 Q 121.13229,144.56522 120.23508,143.96707 119.33786,143.37747 119.08151,142.28372 L 120.62814,142.06155 Q 120.94431,143.39456 122.68747,143.39456 124.98605,143.39456 124.98605,140.70291 V 139.21609 H 124.96896 Q 124.53317,140.10477 123.77267,140.55765 123.01218,141.00198 121.99533,141.00198 120.29489,141.00198 119.49167,139.87405 118.69699,138.74612 118.69699,136.32791 118.69699,133.87552 119.55148,132.71341 120.41452,131.54276 122.16623,131.54276 123.1489,131.54276 123.86667,131.99564 124.59299,132.43997 124.98605,133.26883 H 125.00314 Q 125.00314,133.09793 125.02023,132.73904 125.03732,132.37161 125.06296,132.04691 125.08859,131.7222 125.10568,131.68802 H 126.56686 Q 126.51559,132.14944 126.51559,133.60208 V 140.66873 Q 126.51559,144.56522 122.64474,144.56522 Z M 124.98605,136.31082 Q 124.98605,134.62747 124.29391,133.6619 123.61032,132.68777 122.54221,132.68777 121.36301,132.68777 120.82468,133.54227 120.28635,134.39676 120.28635,136.31082 120.28635,138.20779 120.7905,139.03665 121.29465,139.86551 122.51657,139.86551 123.61032,139.86551 124.29391,138.91702 124.98605,137.95999 124.98605,136.31082 Z"
         id="path53" />
      <path
         d="M 130.40353,133.26883 Q 130.89914,132.36307 131.59128,131.94437 132.29196,131.51712 133.36008,131.51712 134.86398,131.51712 135.57321,132.30325 136.29099,133.08084 136.29099,134.77274 V 140.93362 H 134.74435 V 135.07181 Q 134.74435,133.8157 134.30002,133.26028 133.86423,132.70486 132.83884,132.70486 131.75363,132.70486 131.09567,133.45682 130.44626,134.20877 130.44626,135.48196 V 140.93362 H 128.90817 V 128.25296 H 130.44626 V 131.5513 Q 130.44626,131.8931 130.42917,132.27762 130.41208,132.65359 130.39499,132.93558 130.38644,133.20901 130.3779,133.26883 Z"
         id="path55" />
      <path
         d="M 140.1362,128.25296 V 129.72269 H 138.59811 V 128.25296 Z M 140.1362,131.68802 V 140.93362 H 138.59811 V 131.68802 Z"
         id="path57" />
      <path
         d="M 144.02414,128.25296 V 129.72269 H 142.48605 V 128.25296 Z M 141.97336,144.56522 Q 141.30685,144.56522 140.88815,144.48831 V 143.30057 Q 141.02487,143.31766 141.15305,143.33475 141.28122,143.35184 141.41794,143.35184 142.00754,143.35184 142.2468,143.04422 142.48605,142.7366 142.48605,141.84793 V 131.68802 H 144.02414 V 142.07864 Q 144.02414,143.38602 143.51144,143.97562 142.99875,144.56522 141.97336,144.56522 Z"
         id="path59" />
      <path
         d="M 147.92062,137.64383 V 140.93362 H 146.38254 V 128.25296 H 147.92062 V 136.1741 L 151.97946,131.68802 H 153.78244 L 150.03122,135.66141 153.97897,140.93362 H 152.17599 L 149.04855,136.71243 Z"
         id="path61" />
      <path
         d="M 156.67062,128.25296 V 140.93362 H 155.13254 V 128.25296 Z"
         id="path63" />
      <path
         d="M 160.5842,135.57596 V 140.93362 H 159.05466 V 133.6619 Q 159.05466,132.04691 159.00339,131.68802 H 160.45602 Q 160.48166,131.97 160.49875,132.43143 160.52438,132.89285 160.52438,133.26883 H 160.55002 Q 161.04562,132.28616 161.68649,131.90164 162.32736,131.51712 163.25021,131.51712 164.30124,131.51712 164.90793,131.93582 165.52316,132.35452 165.76242,133.26883 H 165.78806 Q 166.26657,132.33743 166.94162,131.92728 167.62521,131.51712 168.59079,131.51712 169.99216,131.51712 170.62448,132.27762 171.26535,133.03812 171.26535,134.77274 V 140.93362 H 169.74435 V 135.07181 Q 169.74435,133.73026 169.37692,133.21756 169.00949,132.70486 168.05246,132.70486 167.04416,132.70486 166.48019,133.45682 165.92477,134.20023 165.92477,135.57596 V 140.93362 H 164.40378 V 135.07181 Q 164.40378,133.73026 164.03635,133.21756 163.66891,132.70486 162.71188,132.70486 161.72922,132.70486 161.15671,133.45682 160.5842,134.20877 160.5842,135.57596 Z"
         id="path65" />
      <path
         d="M 175.17038,135.57596 V 140.93362 H 173.63229 V 133.6619 Q 173.63229,132.04691 173.58102,131.68802 H 175.03366 Q 175.0593,131.93582 175.07639,132.36307 175.09348,132.78177 175.10202,133.26883 H 175.12766 Q 175.65744,132.3118 176.34958,131.91873 177.05026,131.51712 178.0842,131.51712 179.60519,131.51712 180.30588,132.29471 181.01511,133.0723 181.01511,134.77274 V 140.93362 H 179.46848 V 135.07181 Q 179.46848,133.74734 179.04123,133.2261 178.61398,132.70486 177.56296,132.70486 176.45212,132.70486 175.81125,133.46536 175.17038,134.22586 175.17038,135.57596 Z"
         id="path67" />
      <path
         d="M 191.14938,136.30228 Q 191.14938,138.72903 190.08127,139.91678 189.01315,141.10452 186.97946,141.10452 184.95432,141.10452 183.92038,139.87405 182.88644,138.63504 182.88644,136.30228 182.88644,131.51712 187.03073,131.51712 189.14987,131.51712 190.14963,132.68777 191.14938,133.84988 191.14938,136.30228 Z M 189.53439,136.30228 Q 189.53439,134.38821 188.96188,133.52518 188.39792,132.65359 187.05637,132.65359 185.70627,132.65359 185.09958,133.54227 184.50143,134.42239 184.50143,136.30228 184.50143,138.13089 185.09103,139.05374 185.68918,139.96805 186.96237,139.96805 188.34665,139.96805 188.93625,139.07938 189.53439,138.1907 189.53439,136.30228 Z"
         id="path69" />
      <path
         d="M 200.88205,136.2681 Q 200.88205,141.10452 197.48117,141.10452 195.34494,141.10452 194.61008,139.49808 H 194.56735 Q 194.60153,139.55789 194.60153,140.95071 V 144.56522 H 193.06345 V 133.57645 Q 193.06345,132.14944 193.01218,131.68802 H 194.49899 Q 194.50754,131.7222 194.52463,132.02127 194.55026,132.32034 194.56735,132.67068 194.58444,133.01248 194.58444,133.17484 H 194.61862 Q 195.02878,132.32034 195.70383,131.92728 196.37888,131.52567 197.48117,131.52567 199.19016,131.52567 200.0361,132.67068 200.88205,133.8157 200.88205,136.2681 Z M 199.26706,136.30228 Q 199.26706,134.37112 198.74582,133.54227 198.22458,132.71341 197.0881,132.71341 195.82346,132.71341 195.20822,133.59354 194.60153,134.46512 194.60153,136.42191 194.60153,138.24197 195.18259,139.10501 195.76364,139.96805 197.07101,139.96805 198.21603,139.96805 198.73727,139.13065 199.26706,138.2847 199.26706,136.30228 Z"
         id="path71" />
      <path
         d="M 202.35178,136.35355 Q 202.35178,131.51712 205.75266,131.51712 206.80368,131.51712 207.49582,131.8931 208.18796,132.26053 208.64938,133.12357 208.64938,132.95267 208.66647,132.59378 208.68356,132.22635 208.7092,131.91019 208.73483,131.59402 208.75192,131.56839 H 210.23019 Q 210.19601,131.81619 210.17892,132.44852 210.17038,133.08084 210.17038,134.08914 V 144.56522 H 208.63229 V 140.814 L 208.66647,139.41263 H 208.64938 Q 208.18796,140.32693 207.51291,140.72 206.83786,141.10452 205.75266,141.10452 203.9924,141.10452 203.17209,139.91678 202.35178,138.72903 202.35178,136.35355 Z M 208.63229,136.19974 Q 208.63229,134.39676 208.04269,133.52518 207.45309,132.65359 206.16281,132.65359 204.99216,132.65359 204.47946,133.52518 203.96677,134.39676 203.96677,136.30228 203.96677,138.24197 204.47946,139.07938 205.0007,139.91678 206.14572,139.91678 207.45309,139.91678 208.04269,138.98538 208.63229,138.05399 208.63229,136.19974 Z"
         id="path73" />
      <path
         d="M 214.10104,136.11429 V 140.93362 H 212.56296 V 133.84134 Q 212.56296,132.86722 212.51169,131.68802 H 213.96432 Q 213.9985,132.47415 214.01559,132.94412 214.03268,133.41409 214.03268,133.57645 H 214.06686 Q 214.32321,132.73904 214.63083,132.27762 214.9299,131.85037 215.31442,131.68802 215.69894,131.51712 216.26291,131.51712 216.57907,131.51712 216.88669,131.60257 V 133.01248 Q 216.59616,132.92703 216.06638,132.92703 215.10934,132.92703 214.60519,133.75589 214.10104,134.5762 214.10104,136.11429 Z"
         id="path75" />
      <path
         d="M 225.29489,138.37869 Q 225.29489,139.68607 224.30368,140.39529 223.32101,141.10452 221.54367,141.10452 219.8176,141.10452 218.87766,140.54056 217.94626,139.96805 217.66428,138.76321 L 219.02292,138.49832 Q 219.40744,139.93387 221.54367,139.93387 222.71432,139.93387 223.25266,139.57498 223.79953,139.21609 223.79953,138.49832 223.79953,137.95145 223.42355,137.60965 223.04758,137.26785 222.21017,137.04568 221.21896,136.78079 220.62936,136.60989 220.04831,136.439 219.73215,136.31937 219.41599,136.19119 219.228,136.08011 218.66403,135.7554 218.34787,135.28543 218.03171,134.81546 218.03171,134.13187 218.03171,132.86722 218.92892,132.20926 219.83469,131.54276 221.56076,131.54276 223.0903,131.54276 223.98752,132.08109 224.89328,132.61942 225.13254,133.80716 L 223.74826,133.97806 Q 223.48337,132.70486 221.56076,132.70486 219.52707,132.70486 219.52707,133.97806 219.52707,134.44803 219.80905,134.75565 220.09103,135.05472 220.88571,135.25125 221.95383,135.5076 222.9194,135.81522 223.88498,136.11429 224.30368,136.41336 224.79074,136.7637 225.03854,137.24222 225.29489,137.71219 225.29489,138.37869 Z"
         id="path77" />
      <path
         d="M 230.6611,140.86526 Q 229.90915,141.07034 229.10593,141.07034 227.26022,141.07034 227.26022,138.97684 V 132.8074 H 226.19211 V 131.68802 H 227.32004 L 227.77292,129.62015 H 228.79831 V 131.68802 H 230.50729 V 132.8074 H 228.79831 V 138.64359 Q 228.79831,139.31009 229.01193,139.58353 229.2341,139.84842 229.77243,139.84842 230.06296,139.84842 230.6611,139.72879 Z"
         id="path79" />
      <path
         d="M 237.8132,139.35281 Q 237.28342,140.30984 236.58273,140.71146 235.89059,141.10452 234.85666,141.10452 233.33566,141.10452 232.62643,140.35257 231.92575,139.59207 231.92575,137.84891 V 131.68802 H 233.47238 V 137.54984 Q 233.47238,138.93411 233.89963,139.42972 234.33542,139.91678 235.3779,139.91678 236.48874,139.91678 237.12961,139.15628 237.77048,138.39578 237.77048,137.04568 V 131.68802 H 239.30856 V 138.95975 Q 239.30856,140.57474 239.35983,140.93362 H 237.9072 Q 237.89865,140.8909 237.87302,140.53201 237.85593,140.17313 237.83884,139.35281 Z"
         id="path81" />
      <path
         d="M 249.21213,131.68802 245.75998,140.93362 H 243.93991 L 240.58176,131.68802 H 242.22238 L 244.25607,137.70364 Q 244.3757,138.04544 244.84567,139.72879 245.00803,139.22464 245.17038,138.67776 245.34128,138.12234 245.478,137.72073 L 247.58005,131.68802 Z"
         id="path83" />
      <path
         d="M 255.28757,134.39676 253.61276,140.93362 H 251.83542 L 249.24631,131.68802 H 250.7673 L 252.35666,138.08817 Q 252.42502,138.3616 252.51901,138.7803 252.61301,139.19901 252.69846,139.66043 252.79245,139.25882 252.88644,138.85721 252.98898,138.4556 253.09152,138.06253 L 254.77487,131.68802 H 256.42404 L 258.03903,138.0369 Q 258.14157,138.43851 258.23557,138.84866 258.3381,139.25882 258.4321,139.66043 258.52609,139.25027 258.62009,138.80594 258.72263,138.35306 258.80807,138.01126 L 260.4487,131.68802 H 261.95261 L 259.30368,140.93362 H 257.51779 L 255.9028,134.39676 Q 255.81735,134.03787 255.74045,133.67899 255.67209,133.31155 255.59518,132.95267 255.561,133.14066 255.46701,133.59354 255.38156,134.03787 255.28757,134.39676 Z"
         id="path85" />
      <path
         d="M 266.26779,137.13968 263.76413,140.93362 H 262.10641 L 265.39621,136.18265 262.26022,131.68802 H 263.96066 L 266.26779,135.28543 268.55783,131.68802 H 270.27536 L 267.13937,136.16556 270.47189,140.93362 H 268.75436 Z"
         id="path87" />
      <path
         d="M 272.29196,144.56522 Q 271.67673,144.56522 271.23239,144.47122 V 143.31766 Q 271.5571,143.36893 271.95016,143.36893 272.66794,143.36893 273.27463,142.8306 273.88986,142.30081 274.36838,140.8909 L 270.70261,131.68802 H 272.34323 L 274.29147,136.79788 Q 274.5051,137.34476 274.74435,138.0369 274.99216,138.72903 275.12888,139.25882 275.3425,138.65213 275.55612,138.05399 275.77829,137.45584 275.98337,136.8577 L 277.75217,131.68802 H 279.3757 L 275.82101,140.93362 Q 275.53049,141.66849 275.26559,142.21536 275.0007,142.77078 274.7529,143.12967 273.77878,144.56522 272.29196,144.56522 Z"
         id="path89" />
      <path
         d="M 287.2883,139.74588 V 140.93362 H 280.11911 V 139.76297 L 285.28879,132.87576 H 280.40964 V 131.68802 H 287.10886 V 132.85867 L 281.93063,139.74588 Z"
         id="path91" />
      <path
         d="M 68.529755,159.28812 67.145477,162.80862 H 65.453583 L 70.366913,150.76883 H 72.221161 L 77.057587,162.80862 H 75.391327 L 74.015594,159.28812 Z M 71.272675,151.9993 Q 71.127411,152.47781 70.922333,153.06741 70.7258,153.64847 70.554901,154.0928 L 69.02536,158.01492 H 73.528534 L 71.981903,154.04153 Q 71.862274,153.74246 71.665741,153.19559 71.469208,152.64871 71.272675,151.9993 Z"
         id="path93" />
      <path
         d="M 87.841278,159.41629 Q 87.841278,161.02274 86.670624,161.91995 85.499969,162.80862 83.415009,162.80862 H 78.527313 V 150.76883 H 82.902313 Q 87.140594,150.76883 87.140594,153.69119 87.140594,154.75931 86.54245,155.48563 85.944305,156.21194 84.850555,156.45975 86.286102,156.63065 87.06369,157.42532 87.841278,158.21146 87.841278,159.41629 Z M 85.499969,153.88773 Q 85.499969,152.9136 84.833466,152.4949 84.166962,152.0762 82.902313,152.0762 H 80.159393 V 155.88724 H 82.902313 Q 85.499969,155.88724 85.499969,153.88773 Z M 86.192108,159.28812 Q 86.192108,157.16043 83.201385,157.16043 H 80.159393 V 161.50125 H 83.329559 Q 84.824921,161.50125 85.508514,160.94583 86.192108,160.39041 86.192108,159.28812 Z"
         id="path95" />
      <path
         d="M 95.600067,161.63797 Q 98.129364,161.63797 99.402557,159.13431 L 100.73557,159.80081 Q 99.992157,161.35599 98.642059,162.16776 97.300507,162.97952 95.523163,162.97952 93.69455,162.97952 92.378632,162.21902 91.062714,161.45853 90.353485,160.05716 89.652802,158.64725 89.652802,156.73318 89.652802,154.81058 90.353485,153.43484 91.054169,152.05911 92.370087,151.32425 93.686005,150.58939 95.514618,150.58939 99.394012,150.58939 100.62448,153.57156 L 99.07785,154.08426 Q 98.659149,153.03323 97.727753,152.47781 96.804901,151.92239 95.531708,151.92239 93.532196,151.92239 92.421356,153.21268 91.310516,154.49442 91.310516,156.73318 91.310516,158.20291 91.831757,159.31375 92.361542,160.41605 93.318573,161.03128 94.284149,161.63797 95.600067,161.63797 Z"
         id="path97" />
      <path
         d="M 113.20261,156.66483 Q 113.20261,158.57034 112.4592,159.94608 111.72433,161.32181 110.39987,162.06522 109.08395,162.80862 107.34079,162.80862 H 102.83762 V 150.76883 H 106.81955 Q 109.87863,150.76883 111.53635,152.30692 113.20261,153.83646 113.20261,156.66483 Z M 111.56198,156.66483 Q 111.56198,154.42606 110.33151,153.2554 109.10959,152.0762 106.78537,152.0762 H 104.4697 V 161.50125 H 107.1528 Q 108.49435,161.50125 109.47702,160.91165 110.46823,160.32205 111.01511,159.23685 111.56198,158.15164 111.56198,156.66483 Z"
         id="path99" />
      <path
         d="M 124.96042,161.47562 V 162.80862 H 115.47556 V 150.76883 H 124.61008 V 152.10184 H 117.10764 V 155.96414 H 124.09738 V 157.28006 H 117.10764 V 161.47562 Z"
         id="path101" />
      <path
         d="M 128.78,157.92947 V 162.80862 H 127.14792 V 150.76883 H 135.70139 V 152.10184 H 128.78 V 156.57938 H 135.49631 V 157.92947 Z"
         id="path103" />
      <path
         d="M 143.34909,161.65506 Q 144.52829,161.65506 145.54514,161.29617 146.57053,160.93729 147.20285,160.32205 V 158.15164 H 143.60544 V 156.78445 H 148.70676 V 160.93729 Q 147.74973,161.91141 146.3569,162.44974 144.97263,162.97952 143.34909,162.97952 141.46921,162.97952 140.11057,162.21902 138.75192,161.45853 138.01706,160.05716 137.2822,158.64725 137.2822,156.73318 137.2822,153.80228 138.85446,152.19583 140.42673,150.58939 143.27219,150.58939 145.2717,150.58939 146.51926,151.26443 147.76682,151.93948 148.44186,153.4263 L 146.88669,153.88773 Q 146.37399,152.86234 145.46823,152.39236 144.57101,151.92239 143.22946,151.92239 141.1445,151.92239 140.04221,153.18704 138.93991,154.44315 138.93991,156.73318 138.93991,159.01468 140.11057,160.33914 141.28122,161.65506 143.34909,161.65506 Z"
         id="path105" />
      <path
         d="M 153.08176,157.22879 V 162.80862 H 151.44968 V 150.76883 H 153.08176 V 155.8616 H 159.59299 V 150.76883 H 161.22507 V 162.80862 H 159.59299 V 157.22879 Z"
         id="path107" />
      <path
         d="M 165.89914,150.76883 V 162.80862 H 164.26706 V 150.76883 Z"
         id="path109" />
      <path
         d="M 171.41916,162.97952 Q 168.36008,162.97952 167.78757,159.8179 L 169.38547,159.55301 Q 169.53928,160.54422 170.07761,161.09964 170.61594,161.65506 171.4277,161.65506 172.31638,161.65506 172.82907,161.04837 173.34177,160.43314 173.34177,159.25394 V 152.10184 H 171.02609 V 150.76883 H 174.9653 V 159.21976 Q 174.9653,160.97147 174.01682,161.97977 173.06833,162.97952 171.41916,162.97952 Z"
         id="path111" />
      <path
         d="M 179.33176,158.19437 V 162.80862 H 177.69968 V 150.76883 H 179.33176 V 156.80154 L 185.13376,150.76883 H 187.05637 L 181.92941,155.99832 187.73996,162.80862 H 185.71481 L 180.90402,156.99808 Z"
         id="path113" />
      <path
         d="M 197.0881,161.47562 V 162.80862 H 189.37204 V 150.76883 H 191.00412 V 161.47562 Z"
         id="path115" />
      <path
         d="M 200.55734,154.7764 V 162.80862 H 199.10471 V 150.76883 H 201.24948 L 204.45383,159.11722 Q 204.62473,159.62137 204.77853,160.20242 204.94089,160.77493 204.99216,161.03128 205.04343,160.80057 205.16306,160.39896 205.28268,159.9888 205.40231,159.61282 205.52194,159.23685 205.57321,159.11722 L 208.71774,150.76883 H 210.81125 V 162.80862 H 209.34152 V 154.7764 Q 209.34152,153.44339 209.41843,152.21292 209.2048,152.97342 209.01682,153.58011 208.83737,154.17825 208.66647,154.6055 L 205.55612,162.80862 H 204.4111 L 201.25803,154.6055 200.49753,152.21292 Q 200.51462,152.85379 200.53171,153.49466 200.55734,154.13553 200.55734,154.7764 Z"
         id="path117" />
      <path
         d="M 215.13498,154.81058 V 162.80862 H 213.68234 V 150.76883 H 215.57932 L 222.09055,161.09109 Q 221.98801,159.40775 221.98801,158.66434 V 150.76883 H 223.45773 V 162.80862 H 221.4924 L 215.04953,152.55472 Q 215.06662,153.11868 215.1008,153.68265 215.13498,154.24661 215.13498,154.81058 Z"
         id="path119" />
      <path
         d="M 237.65939,156.73318 Q 237.65939,158.66434 236.92453,160.0657 236.19821,161.46707 234.85666,162.22757 233.51511,162.97952 231.67795,162.97952 229.83224,162.97952 228.49069,162.22757 227.15768,161.47562 226.43137,160.07425 225.71359,158.67288 225.71359,156.73318 225.71359,154.80203 226.42282,153.43484 227.14059,152.05911 228.4736,151.32425 229.81516,150.58939 231.69504,150.58939 233.54074,150.58939 234.87375,151.3157 236.2153,152.04202 236.93307,153.41776 237.65939,154.78494 237.65939,156.73318 Z M 235.99313,156.73318 Q 235.99313,154.48587 234.8652,153.20413 233.74582,151.92239 231.69504,151.92239 229.62717,151.92239 228.49924,153.18704 227.37131,154.45169 227.37131,156.73318 227.37131,158.23709 227.884,159.34793 228.3967,160.45023 229.36227,161.05692 230.32785,161.65506 231.67795,161.65506 233.76291,161.65506 234.87375,160.37332 235.99313,159.08304 235.99313,156.73318 Z"
         id="path121" />
      <path
         d="M 249.24631,154.39188 Q 249.24631,156.10086 248.12692,157.10916 247.01608,158.11746 245.10202,158.11746 H 241.56442 V 162.80862 H 239.93234 V 150.76883 H 244.99948 Q 247.02463,150.76883 248.13547,151.71732 249.24631,152.6658 249.24631,154.39188 Z M 247.60568,154.40897 Q 247.60568,152.0762 244.80295,152.0762 H 241.56442 V 156.82718 H 244.87131 Q 247.60568,156.82718 247.60568,154.40897 Z"
         id="path123" />
      <path
         d="M 262.94382,156.73318 Q 262.94382,158.42508 262.36276,159.73245 261.79025,161.03983 260.70505,161.85159 259.61984,162.65482 258.09885,162.85989 258.44919,163.93655 259.01315,164.41507 259.58566,164.89359 260.45724,164.89359 260.94431,164.89359 261.43991,164.7825 V 165.92752 Q 260.66232,166.11551 259.91891,166.11551 258.62863,166.11551 257.79123,165.38065 256.96237,164.65433 256.43259,162.94534 254.70651,162.85989 253.49313,162.07376 252.27975,161.28763 251.63889,159.92044 250.99802,158.55325 250.99802,156.73318 250.99802,154.80203 251.70724,153.43484 252.42502,152.05911 253.75803,151.32425 255.09958,150.58939 256.97946,150.58939 258.87643,150.58939 260.20944,151.34134 261.54245,152.08475 262.24313,153.46048 262.94382,154.83621 262.94382,156.73318 Z M 261.27756,156.73318 Q 261.27756,154.48587 260.14963,153.20413 259.03024,151.92239 256.97946,151.92239 254.91159,151.92239 253.78366,153.18704 252.65573,154.45169 252.65573,156.73318 252.65573,158.23709 253.16843,159.34793 253.68112,160.45023 254.6467,161.05692 255.61227,161.65506 256.96237,161.65506 259.04733,161.65506 260.15817,160.37332 261.27756,159.08304 261.27756,156.73318 Z"
         id="path125" />
      <path
         d="M 266.84885,157.80984 V 162.80862 H 265.21677 V 150.76883 H 270.88205 Q 272.91574,150.76883 274.01804,151.68314 275.12888,152.5889 275.12888,154.21243 275.12888,155.55399 274.34274,156.46829 273.56516,157.3826 272.18942,157.62186 L 275.60739,162.80862 H 273.72751 L 270.60007,157.80984 Z M 273.48825,154.22952 Q 273.48825,153.1785 272.77048,152.63162 272.06125,152.0762 270.7197,152.0762 H 266.84885 V 156.51956 H 270.78806 Q 272.07834,156.51956 272.77902,155.92142 273.48825,155.31473 273.48825,154.22952 Z"
         id="path127" />
      <path
         d="M 287.2883,159.48465 Q 287.2883,161.15091 285.98093,162.06522 284.6821,162.97952 282.31516,162.97952 277.91452,162.97952 277.21384,159.92044 L 278.79465,159.60428 Q 279.06808,160.68948 279.95676,161.20218 280.84543,161.70633 282.37497,161.70633 283.95578,161.70633 284.81027,161.168 285.67331,160.62112 285.67331,159.5701 285.67331,158.9805 285.39987,158.61307 285.13498,158.24564 284.64792,158.00638 284.16086,157.76712 283.48581,157.60477 282.81076,157.44241 281.99045,157.25443 280.56345,156.93826 279.82004,156.6221 279.08517,156.30594 278.65793,155.92142 277.7778,155.11819 277.7778,153.81082 277.7778,152.26419 278.957,151.42679 280.14474,150.58939 282.34933,150.58939 284.40012,150.58939 285.48532,151.22171 286.57053,151.84549 287.00632,153.35794 L 285.39987,153.63992 Q 285.13498,152.68289 284.39157,152.25565 283.64816,151.81985 282.33224,151.81985 280.88815,151.81985 280.12766,152.29837 279.36716,152.77689 279.36716,153.72537 279.36716,154.28079 279.65768,154.64822 279.95676,155.00711 280.51218,155.25491 281.03342,155.50272 282.72531,155.87869 283.41745,156.04105 284.0925,156.22049 284.76755,156.39139 285.36569,156.65628 285.71603,156.80154 286.0322,157.01517 286.3569,157.22025 286.59616,157.49368 286.92087,157.85257 287.10031,158.33963 287.2883,158.82669 287.2883,159.48465 Z"
         id="path129" />
      <path
         d="M 294.24387,152.10184 V 162.80862 H 292.62033 V 152.10184 H 288.48459 V 150.76883 H 298.37961 V 152.10184 Z"
         id="path131" />
      <path
         d="M 305.02756,162.97952 Q 303.54929,162.97952 302.44699,162.43265 301.3447,161.88577 300.73801,160.86893 300.13132,159.85208 300.13132,158.43362 V 150.76883 H 301.7634 V 158.29691 Q 301.7634,159.94608 302.6008,160.80057 303.4382,161.65506 305.01901,161.65506 306.64255,161.65506 307.53976,160.77493 308.44553,159.88626 308.44553,158.18582 V 150.76883 H 310.06906 V 158.27982 Q 310.06906,159.741 309.44528,160.79202 308.83005,161.84305 307.69357,162.41556 306.56564,162.97952 305.02756,162.97952 Z"
         id="path133" />
      <path
         d="M 323.01462,150.76883 318.10129,162.80862 H 316.40939 L 311.49606,150.76883 H 313.21359 L 316.54611,159.24539 Q 316.75119,159.76663 316.91354,160.30496 317.08444,160.84329 317.26389,161.37308 317.43478,160.84329 317.62277,160.26224 317.81076,159.68118 317.98166,159.24539 L 321.29709,150.76883 Z"
         id="path135" />
      <path
         d="M 330.75632,155.20364 328.66281,162.80862 H 326.71457 L 323.16843,150.76883 H 324.86887 L 327.03073,158.41653 Q 327.22726,159.13431 327.39816,159.87772 327.57761,160.61258 327.73996,161.37308 327.80832,161.05692 327.9194,160.54422 328.03903,160.02298 328.16721,159.48465 328.29538,158.94632 328.39792,158.57889 L 330.58542,150.76883 H 332.14914 L 334.24265,158.26273 Q 334.4819,159.17703 334.66989,159.96317 334.85788,160.74075 334.9946,161.37308 335.12277,160.86893 335.25949,160.28787 335.40475,159.69827 335.52438,159.21976 335.65256,158.7327 335.70383,158.52762 L 337.8486,150.76883 H 339.54904 L 336.0029,162.80862 H 334.05466 L 331.9697,155.16092 Q 331.86716,154.80203 331.71335,154.16116 331.56808,153.52029 331.37155,152.5889 331.29465,153.04178 331.16647,153.57156 331.04684,154.0928 330.92722,154.53714 330.81613,154.98148 330.75632,155.20364 Z"
         id="path137" />
      <path
         d="M 345.49631,157.54495 341.8049,162.80862 H 340.00192 L 344.582,156.55374 340.35226,150.76883 H 342.15524 L 345.50485,155.49417 348.76047,150.76883 H 350.56345 L 346.44479,156.49393 350.91379,162.80862 H 349.11081 Z"
         id="path139" />
      <path
         d="M 357.92062,157.81839 V 162.80862 H 356.29709 V 157.81839 L 351.66574,150.76883 H 353.46017 L 357.12595,156.50247 360.77463,150.76883 H 362.56906 Z"
         id="path141" />
      <path
         d="M 373.09641,161.47562 V 162.80862 H 363.509 V 161.5867 L 370.84055,152.10184 H 364.13278 V 150.76883 H 372.69479 V 151.95657 L 365.36325,161.47562 Z"
         id="path143" />
      <path
         d="M 74.417206,180.05228 Q 74.417206,182.47903 73.349091,183.66678 72.280975,184.85452 70.247284,184.85452 68.222137,184.85452 67.188202,183.62405 66.154266,182.38504 66.154266,180.05228 66.154266,175.26712 70.298553,175.26712 72.417694,175.26712 73.41745,176.43777 74.417206,177.59988 74.417206,180.05228 Z M 72.802216,180.05228 Q 72.802216,178.13821 72.229706,177.27518 71.665741,176.40359 70.324188,176.40359 68.974091,176.40359 68.367401,177.29227 67.769257,178.17239 67.769257,180.05228 67.769257,181.88089 68.358856,182.80374 68.957001,183.71805 70.230194,183.71805 71.614471,183.71805 72.204071,182.82938 72.802216,181.9407 72.802216,180.05228 Z"
         id="path145" />
      <path
         d="M 87.926727,178.60818 Q 87.926727,180.53934 87.191864,181.9407 86.465546,183.34207 85.123993,184.10257 83.78244,184.85452 81.945282,184.85452 80.099579,184.85452 78.758026,184.10257 77.425018,183.35062 76.6987,181.94925 75.980927,180.54788 75.980927,178.60818 75.980927,176.67703 76.690155,175.30984 77.407928,173.93411 78.740936,173.19925 80.082489,172.46439 81.962372,172.46439 83.808075,172.46439 85.141083,173.1907 86.482635,173.91702 87.200409,175.29276 87.926727,176.65994 87.926727,178.60818 Z M 86.260468,178.60818 Q 86.260468,176.36087 85.132538,175.07913 84.013153,173.79739 81.962372,173.79739 79.894501,173.79739 78.766571,175.06204 77.638641,176.32669 77.638641,178.60818 77.638641,180.11209 78.151337,181.22293 78.664032,182.32523 79.629608,182.93192 80.595184,183.53006 81.945282,183.53006 84.030243,183.53006 85.141083,182.24832 86.260468,180.95804 86.260468,178.60818 Z"
         id="path147" />
      <path
         d="M 97.813202,178.65945 Q 97.813202,181.67581 96.745087,183.26517 95.685516,184.85452 93.6091,184.85452 91.532684,184.85452 90.490204,183.27371 89.447723,181.6929 89.447723,178.65945 89.447723,175.55765 90.456024,174.01102 91.47287,172.46439 93.66037,172.46439 95.788055,172.46439 96.796356,174.02811 97.813202,175.59183 97.813202,178.65945 Z M 96.249481,178.65945 Q 96.249481,176.05325 95.642792,174.8826 95.044647,173.71194 93.66037,173.71194 92.241913,173.71194 91.618134,174.86551 91.002899,176.01907 91.002899,178.65945 91.002899,181.22293 91.626678,182.41068 92.259003,183.59842 93.62619,183.59842 94.984833,183.59842 95.617157,182.38504 96.249481,181.17166 96.249481,178.65945 Z"
         id="path149" />
      <path
         d="M 107.46896,181.32547 Q 107.46896,182.99173 106.40939,183.92313 105.34982,184.85452 103.3674,184.85452 101.43625,184.85452 100.3425,183.94022 99.257294,183.02591 99.257294,181.34256 99.257294,180.16336 99.932343,179.36014 100.60739,178.55692 101.65842,178.38602 V 178.35184 Q 100.67575,178.12112 100.10324,177.35208 99.539276,176.58304 99.539276,175.5491 99.539276,174.17337 100.56467,173.31888 101.5986,172.46439 103.33322,172.46439 105.11057,172.46439 106.13596,173.30179 107.16989,174.13919 107.16989,175.56619 107.16989,176.60013 106.59738,177.36917 106.02487,178.13821 105.03366,178.33475 V 178.36893 Q 106.18723,178.55692 106.82809,179.35159 107.46896,180.13773 107.46896,181.32547 Z M 105.57199,175.65164 Q 105.57199,173.60941 103.33322,173.60941 101.11154,173.60941 101.11154,175.65164 101.11154,176.68558 101.6926,177.23245 102.2822,177.77078 103.35031,177.77078 104.43552,177.77078 104.99948,177.27518 105.57199,176.77103 105.57199,175.65164 Z M 105.87106,181.18021 Q 105.87106,180.06082 105.20456,179.49686 104.53806,178.92435 103.33322,178.92435 102.16257,178.92435 101.50461,179.53958 100.84665,180.14627 100.84665,181.21439 100.84665,183.70096 103.38449,183.70096 104.64059,183.70096 105.25583,183.10281 105.87106,182.49612 105.87106,181.18021 Z"
         id="path151" />
      <path
         d="M 115.80026,172.00296 V 173.47269 H 114.26218 V 172.00296 Z M 115.80026,175.43802 V 184.68362 H 114.26218 V 175.43802 Z"
         id="path153" />
      <path
         d="M 120.22653,172.64383 V 184.68362 H 118.59445 V 172.64383 Z"
         id="path155" />
      <path
         d="M 124.55881,172.00296 V 184.68362 H 123.02072 V 172.00296 Z"
         id="path157" />
      <path
         d="M 134.88107,183.35062 V 184.68362 H 127.16501 V 172.64383 H 128.79709 V 183.35062 Z"
         id="path159" />
      <path
         d="M 144.3403,183.37625 V 184.68362 H 136.79514 V 183.37625 H 139.86276 V 174.11356 L 137.14548,176.05325 V 174.60062 L 139.99094,172.64383 H 141.40939 V 183.37625 Z"
         id="path161" />
      <path
         d="M 154.4404,188.31522 Q 153.35519,188.31522 152.76559,187.65726 152.18454,186.9993 152.18454,185.81155 V 182.72684 Q 152.18454,181.72708 151.73166,181.24002 151.28732,180.74442 150.34738,180.70169 V 179.61649 Q 152.18454,179.55667 152.18454,177.59988 V 174.50662 Q 152.18454,173.30179 152.7485,172.65237 153.32101,172.00296 154.4404,172.00296 H 155.59396 V 173.10526 H 155.05563 Q 154.27805,173.10526 153.94479,173.56668 153.62009,174.01956 153.62009,174.94241 V 177.98441 Q 153.62009,178.78763 153.16721,179.37723 152.71432,179.95828 151.96237,180.13773 V 180.15482 Q 152.72287,180.33426 153.16721,180.91531 153.62009,181.49637 153.62009,182.32523 V 185.37576 Q 153.62009,186.28152 153.94479,186.74295 154.27805,187.21292 155.05563,187.21292 H 155.59396 V 188.31522 Z"
         id="path163" />
      <path
         d="M 156.19211,187.21292 H 156.7048 Q 157.48239,187.21292 157.81564,186.74295 158.15744,186.28152 158.15744,185.37576 V 182.32523 Q 158.15744,181.48782 158.60178,180.90677 159.04611,180.32571 159.80661,180.15482 V 180.13773 Q 159.07175,179.96683 158.61032,179.39432 158.15744,178.81326 158.15744,177.98441 V 174.94241 Q 158.15744,174.01956 157.81564,173.56668 157.48239,173.10526 156.7048,173.10526 H 156.19211 V 172.00296 H 157.32004 Q 158.43942,172.00296 159.00339,172.65237 159.5759,173.30179 159.5759,174.50662 V 177.59988 Q 159.5759,179.55667 161.43015,179.61649 V 180.70169 Q 159.5759,180.76151 159.5759,182.72684 V 185.81155 Q 159.5759,186.99075 158.9863,187.64871 158.40524,188.31522 157.32004,188.31522 H 156.19211 Z"
         id="path165" />
      <path
         d="M 171.33371,187.21292 V 188.31522 H 167.85593 V 172.00296 H 171.33371 V 173.10526 H 169.34274 V 187.21292 Z"
         id="path167" />
      <path
         d="M 175.08493,172.00296 V 188.31522 H 171.60715 V 187.21292 H 173.59811 V 173.10526 H 171.60715 V 172.00296 Z"
         id="path169" />
      <path
         d="M 185.87717,188.31522 Q 184.36472,188.31522 183.4675,187.71707 182.57028,187.12747 182.31393,186.03372 L 183.86057,185.81155 Q 184.17673,187.14456 185.91989,187.14456 188.21848,187.14456 188.21848,184.45291 V 182.96609 H 188.20139 Q 187.76559,183.85477 187.0051,184.30765 186.2446,184.75198 185.22775,184.75198 183.52731,184.75198 182.72409,183.62405 181.92941,182.49612 181.92941,180.07791 181.92941,177.62552 182.78391,176.46341 183.64694,175.29276 185.39865,175.29276 186.38132,175.29276 187.09909,175.74564 187.82541,176.18997 188.21848,177.01883 H 188.23557 Q 188.23557,176.84793 188.25266,176.48904 188.26974,176.12161 188.29538,175.79691 188.32101,175.4722 188.3381,175.43802 H 189.79929 Q 189.74802,175.89944 189.74802,177.35208 V 184.41873 Q 189.74802,188.31522 185.87717,188.31522 Z M 188.21848,180.06082 Q 188.21848,178.37747 187.52634,177.4119 186.84274,176.43777 185.77463,176.43777 184.59543,176.43777 184.0571,177.29227 183.51877,178.14676 183.51877,180.06082 183.51877,181.95779 184.02292,182.78665 184.52707,183.61551 185.74899,183.61551 186.84274,183.61551 187.52634,182.66702 188.21848,181.70999 188.21848,180.06082 Z"
         id="path171" />
      <path
         d="M 199.83102,178.4202 Q 199.83102,181.522 198.69455,183.18826 197.56662,184.85452 195.47311,184.85452 194.0632,184.85452 193.20871,184.26492 192.36276,183.66678 191.99533,182.34232 L 193.46506,182.1116 Q 193.92648,183.61551 195.49875,183.61551 196.82321,183.61551 197.54953,182.38504 198.27585,181.15457 198.31003,178.87308 197.96823,179.64212 197.13937,180.11209 196.31052,180.57352 195.31931,180.57352 194.24265,180.57352 193.43942,180.06937 192.6362,179.56522 192.19186,178.65091 191.74753,177.7366 191.74753,176.51468 191.74753,174.62625 192.8071,173.54959 193.86667,172.46439 195.7551,172.46439 197.76315,172.46439 198.79709,173.9512 199.83102,175.43802 199.83102,178.4202 Z M 198.15622,176.93338 Q 198.15622,175.48074 197.48972,174.60062 196.82321,173.71194 195.70383,173.71194 194.59299,173.71194 193.95212,174.47244 193.31125,175.2244 193.31125,176.51468 193.31125,177.8306 193.95212,178.59964 194.59299,179.36014 195.68674,179.36014 196.35324,179.36014 196.90866,179.05252 197.47263,178.7449 197.81442,178.19803 198.15622,177.64261 198.15622,176.93338 Z"
         id="path173" />
      <path
         d="M 201.39474,180.10355 Q 201.39474,175.26712 204.79562,175.26712 205.84665,175.26712 206.53879,175.6431 207.23093,176.01053 207.69235,176.87357 207.69235,176.70267 207.70944,176.34378 207.72653,175.97635 207.75217,175.66019 207.7778,175.34402 207.79489,175.31839 H 209.27316 Q 209.23898,175.56619 209.22189,176.19852 209.21335,176.83084 209.21335,177.83914 V 188.31522 H 207.67526 V 184.564 L 207.70944,183.16263 H 207.69235 Q 207.23093,184.07693 206.55588,184.47 205.88083,184.85452 204.79562,184.85452 203.03537,184.85452 202.21506,183.66678 201.39474,182.47903 201.39474,180.10355 Z M 207.67526,179.94974 Q 207.67526,178.14676 207.08566,177.27518 206.49606,176.40359 205.20578,176.40359 204.03513,176.40359 203.52243,177.27518 203.00974,178.14676 203.00974,180.05228 203.00974,181.99197 203.52243,182.82938 204.04367,183.66678 205.18869,183.66678 206.49606,183.66678 207.08566,182.73538 207.67526,181.80399 207.67526,179.94974 Z"
         id="path175" />
      <path
         d="M 217.22849,183.51297 Q 219.75778,183.51297 221.03098,181.00931 L 222.36398,181.67581 Q 221.62057,183.23099 220.27048,184.04276 218.92892,184.85452 217.15158,184.85452 215.32297,184.85452 214.00705,184.09402 212.69113,183.33353 211.9819,181.93216 211.28122,180.52225 211.28122,178.60818 211.28122,176.68558 211.9819,175.30984 212.68259,173.93411 213.9985,173.19925 215.31442,172.46439 217.14304,172.46439 221.02243,172.46439 222.2529,175.44656 L 220.70627,175.95926 Q 220.28757,174.90823 219.35617,174.35281 218.43332,173.79739 217.16013,173.79739 215.16061,173.79739 214.04977,175.08768 212.93893,176.36942 212.93893,178.60818 212.93893,180.07791 213.46017,181.18875 213.98996,182.29105 214.94699,182.90628 215.91257,183.51297 217.22849,183.51297 Z"
         id="path177" />
      <path
         d="M 229.97751,183.53006 Q 231.15671,183.53006 232.17355,183.17117 233.19894,182.81229 233.83127,182.19705 V 180.02664 H 230.23386 V 178.65945 H 235.33517 V 182.81229 Q 234.37814,183.78641 232.98532,184.32474 231.60104,184.85452 229.97751,184.85452 228.09763,184.85452 226.73898,184.09402 225.38034,183.33353 224.64548,181.93216 223.91061,180.52225 223.91061,178.60818 223.91061,175.67728 225.48288,174.07083 227.05515,172.46439 229.9006,172.46439 231.90012,172.46439 233.14767,173.13943 234.39523,173.81448 235.07028,175.3013 L 233.51511,175.76273 Q 233.00241,174.73734 232.09665,174.26736 231.19943,173.79739 229.85788,173.79739 227.77292,173.79739 226.67062,175.06204 225.56833,176.31815 225.56833,178.60818 225.56833,180.88968 226.73898,182.21414 227.90964,183.53006 229.97751,183.53006 Z"
         id="path179" />
      <path
         d="M 249.41721,178.60818 Q 249.41721,180.30008 248.83615,181.60745 248.26364,182.91483 247.17844,183.72659 246.09323,184.52982 244.57224,184.73489 244.92258,185.81155 245.48654,186.29007 246.05905,186.76859 246.93063,186.76859 247.41769,186.76859 247.9133,186.6575 V 187.80252 Q 247.13571,187.99051 246.3923,187.99051 245.10202,187.99051 244.26462,187.25565 243.43576,186.52933 242.90598,184.82034 241.1799,184.73489 239.96652,183.94876 238.75314,183.16263 238.11227,181.79544 237.47141,180.42825 237.47141,178.60818 237.47141,176.67703 238.18063,175.30984 238.89841,173.93411 240.23141,173.19925 241.57297,172.46439 243.45285,172.46439 245.34982,172.46439 246.68283,173.21634 248.01584,173.95975 248.71652,175.33548 249.41721,176.71121 249.41721,178.60818 Z M 247.75095,178.60818 Q 247.75095,176.36087 246.62302,175.07913 245.50363,173.79739 243.45285,173.79739 241.38498,173.79739 240.25705,175.06204 239.12912,176.32669 239.12912,178.60818 239.12912,180.11209 239.64182,181.22293 240.15451,182.32523 241.12009,182.93192 242.08566,183.53006 243.43576,183.53006 245.52072,183.53006 246.63156,182.24832 247.75095,180.95804 247.75095,178.60818 Z"
         id="path181" />
      <path
         d="M 262.32858,179.95828 Q 261.73898,179.95828 261.1152,179.77029 260.49997,179.58231 259.87619,179.36014 258.7739,178.97562 258.02194,178.97562 257.44943,178.97562 256.95383,179.15506 256.45822,179.32596 255.9028,179.72757 V 178.50565 Q 256.85129,177.78787 258.15012,177.78787 258.61154,177.78787 259.14133,177.89896 259.41476,177.95877 259.82492,178.08694 260.23508,178.20657 260.7905,178.40311 261.05539,178.50565 261.56808,178.65091 262.08078,178.78763 262.4653,178.78763 263.5676,178.78763 264.55026,178.0015 V 179.27469 Q 264.05466,179.63358 263.55051,179.79593 263.0549,179.95828 262.32858,179.95828 Z"
         id="path183" />
      <path
         d="M 270.38644,179.35159 V 180.71878 H 266.11398 V 179.35159 Z"
         id="path185" />
      <path
         d="M 276.89767,179.48831 V 183.14554 H 275.64157 V 179.48831 H 272.01852 V 178.24075 H 275.64157 V 174.58353 H 276.89767 V 178.24075 H 280.52072 V 179.48831 Z"
         id="path187" />
      <path
         d="M 290.74045,176.10452 V 177.36917 H 282.23825 V 176.10452 Z M 290.74045,180.47952 V 181.74417 H 282.23825 V 180.47952 Z"
         id="path189" />
      <path
         d="M 300.96872,179.80447 292.46652,183.36771 V 182.06033 L 299.79807,178.92435 292.46652,175.79691 V 174.48099 L 300.96872,178.05276 Z"
         id="path191" />
    </g>
  </g>
</svg>
