<?xml version="1.0" encoding="UTF-8" standalone="no"?>
<!-- Created with Inkscape (http://www.inkscape.org/) -->

<svg
   xmlns:dc="http://purl.org/dc/elements/1.1/"
   xmlns:cc="http://creativecommons.org/ns#"
   xmlns:rdf="http://www.w3.org/1999/02/22-rdf-syntax-ns#"
   xmlns:svg="http://www.w3.org/2000/svg"
   xmlns="http://www.w3.org/2000/svg"
   xmlns:sodipodi="http://sodipodi.sourceforge.net/DTD/sodipodi-0.dtd"
   xmlns:inkscape="http://www.inkscape.org/namespaces/inkscape"
   width="120.16711mm"
   height="30.570307mm"
   viewBox="0 0 425.78896 108.31998"
   id="svg2"
   version="1.1"
   inkscape:version="0.91 r13725"
   sodipodi:docname="AurulentSansMono Nerd Font.svg">
  <defs
     id="defs4" />
  <sodipodi:namedview
     id="base"
     pagecolor="#ffffff"
     bordercolor="#666666"
     borderopacity="1.0"
     inkscape:pageopacity="0.0"
     inkscape:pageshadow="2"
     inkscape:zoom="0.7"
     inkscape:cx="-53.132147"
     inkscape:cy="-401.42644"
     inkscape:document-units="px"
     inkscape:current-layer="layer1"
     showgrid="false"
     inkscape:window-width="1861"
     inkscape:window-height="1056"
     inkscape:window-x="59"
     inkscape:window-y="24"
     inkscape:window-maximized="1" />
  <metadata
     id="metadata7">
    <rdf:RDF>
      <cc:Work
         rdf:about="">
        <dc:format>image/svg+xml</dc:format>
        <dc:type
           rdf:resource="http://purl.org/dc/dcmitype/StillImage" />
        <dc:title />
      </cc:Work>
    </rdf:RDF>
  </metadata>
  <g
     inkscape:label="Layer 1"
     inkscape:groupmode="layer"
     id="layer1"
     transform="translate(-63.132143,-79.758632)">
    <g
       style="font-style:normal;font-weight:normal;font-size:27.5px;line-height:125%;font-family:'AurulentSansMono Nerd Font';text-decoration: underline;text-decoration-line: underline;letter-spacing:0px;word-spacing:0px;fill:#ffffff;fill-opacity:1;stroke:none;stroke-width:1px;stroke-linecap:butt;stroke-linejoin:miter;stroke-opacity:1"
       id="text4136">
      <path
         d="m 79.082143,100.93363 -6.71,-19.937498 -2.75,0 -6.49,19.937498 2.2825,0 1.7875,-5.554998 7.26,0 1.87,5.554998 2.75,0 z m -5.335,-7.617498 -5.8575,0 2.8875,-8.855 2.97,8.855 z"
         id="path4140"
         inkscape:connector-curvature="0" />
      <path
         d="m 84.021401,95.846132 0,-9.4875 -2.6125,0 0,8.9925 c 0,2.2825 -0.0825,5.912498 3.9325,5.912498 2.31,0 4.29,-1.21 5.8025,-2.997498 l 0,2.694998 2.6125,0 0,-14.574998 -2.6125,0 0,9.735 c -1.155,1.815 -2.8325,3.2175 -4.8675,3.2175 -2.255,0 -2.255,-1.87 -2.255,-3.4925 z"
         id="path4142"
         inkscape:connector-curvature="0" />
      <path
         d="m 110.27316,88.558632 0,-2.42 c -0.5225,-0.11 -1.375,-0.11 -1.705,-0.11 -2.8875,0 -5.2525,1.485 -6.545,3.63 l 0,-3.3 -2.612501,0 0,14.574998 2.612501,0 0,-8.854998 c 0.825,-2.255 3.4375,-3.7125 6.38,-3.7125 0.4675,0 1.1825,0.055 1.87,0.1925 z"
         id="path4144"
         inkscape:connector-curvature="0" />
      <path
         d="m 116.99992,95.846132 0,-9.4875 -2.6125,0 0,8.9925 c 0,2.2825 -0.0825,5.912498 3.9325,5.912498 2.31,0 4.29,-1.21 5.8025,-2.997498 l 0,2.694998 2.6125,0 0,-14.574998 -2.6125,0 0,9.735 c -1.155,1.815 -2.8325,3.2175 -4.8675,3.2175 -2.255,0 -2.255,-1.87 -2.255,-3.4925 z"
         id="path4146"
         inkscape:connector-curvature="0" />
      <path
         d="m 138.52167,98.981132 0,-19.2225 -6.875,0 0,1.9525 4.2625,0 0,17.27 -5.0325,0 0,1.952498 12.375,0 0,-1.952498 -4.73,0 z"
         id="path4148"
         inkscape:connector-curvature="0" />
      <path
         d="m 149.84093,91.996132 c 0.5225,-2.805 2.2275,-4.015 4.015,-4.015 1.8975,0 3.3275,1.3475 3.6025,4.015 l -7.6175,0 z m 4.95,9.267498 c 1.5675,0 3.3,-0.2475 5.005,-0.715 l 0,-1.952498 c -1.705,0.4675 -3.4375,0.715 -4.9225,0.715 -2.9425,0 -5.1425,-1.045 -5.17,-5.3625 l 10.4225,0 c 0,-0.3025 0.0275,-0.605 0.0275,-0.9075 0,-5.0875 -3.2175,-7.0125 -6.4075,-7.0125 -3.135,0 -6.93,1.8425 -6.93,7.5075 0,3.5475 1.595,7.727498 7.975,7.727498 z"
         id="path4150"
         inkscape:connector-curvature="0" />
      <path
         d="m 173.61769,91.391132 0,9.542498 2.6125,0 0,-9.047498 c 0,-2.53 0.0275,-5.8575 -3.8775,-5.8575 -2.365,0 -4.3725,1.2375 -5.885,3.025 l 0,-2.695 -2.6125,0 0,14.574998 2.6125,0 0,-9.734998 c 1.155,-1.815 2.8325,-3.19 4.895,-3.19 2.255,0 2.255,1.815 2.255,3.3825 z"
         id="path4152"
         inkscape:connector-curvature="0" />
      <path
         d="m 186.58695,96.066132 0,-7.755 5.5275,0 0,-1.9525 -5.5275,0 0,-3.3 -2.6125,0 0,3.3 -3.63,0 0,1.9525 3.63,0 0,7.4525 c 0,3.6025 0.165,5.499998 4.6475,5.499998 0.99,0 2.2275,-0.0825 3.4925,-0.22 l 0,-1.952498 c -0.9625,0.11 -2.0625,0.22 -2.86,0.22 -2.585,0 -2.6675,-1.2375 -2.6675,-3.245 z"
         id="path4154"
         inkscape:connector-curvature="0" />
      <path
         d="m 210.30871,95.488632 c 0,-2.64 -1.595,-4.62 -5.8575,-6.0225 l -1.265,-0.385 c -3.3275,-1.1 -4.7025,-1.5675 -4.7025,-3.3825 0,-2.3925 2.3375,-3.135 4.4825,-3.135 2.1175,0 4.07,0.6875 5.9675,1.4575 l 0,-2.3375 c -1.8975,-0.7425 -3.8775,-1.1825 -5.7475,-1.1825 -3.905,0 -7.4525,1.925 -7.4525,5.9675 0,2.42 1.2925,3.7125 5.94,5.2525 l 1.2375,0.4125 c 3.1075,0.99 4.6475,2.0625 4.6475,3.9875 0,2.365 -2.31,3.245 -4.675,3.245 -2.42,0 -4.895,-0.9075 -7.15,-2.1175 l 0,2.53 c 2.2275,1.209998 4.7575,1.649998 6.7375,1.649998 4.3175,0 7.8375,-2.062498 7.8375,-5.939998 z"
         id="path4156"
         inkscape:connector-curvature="0" />
      <path
         d="m 219.81296,86.028632 c -2.035,0 -4.0425,0.3575 -5.94,1.045 l 0,1.9525 c 1.815,-0.66 3.7125,-1.045 5.555,-1.045 3.465,0 3.6575,1.4575 3.6575,3.355 l 0,1.1275 c -2.9975,0 -5.9125,0.0825 -8.0025,1.21 -1.2925,0.7425 -2.1725,1.8425 -2.1725,3.52 0,2.3375 1.705,4.069998 4.455,4.069998 2.145,0 4.07,-1.1 5.72,-2.584998 l 0,2.254998 2.6125,0 0,-9.157498 c 0,-2.86 -0.055,-5.7475 -5.885,-5.7475 z m 3.2725,11.055 c -1.4025,1.265 -2.9975,2.2275 -4.785,2.2275 -1.65,0 -2.7775,-0.825 -2.7775,-2.255 0,-1.0175 0.605,-1.76 1.485,-2.255 1.54,-0.7975 3.7675,-0.7975 6.0225,-0.7975 l 0.055,0 0,3.08 z"
         id="path4158"
         inkscape:connector-curvature="0" />
      <path
         d="m 239.57472,91.391132 0,9.542498 2.6125,0 0,-9.047498 c 0,-2.53 0.0275,-5.8575 -3.8775,-5.8575 -2.365,0 -4.3725,1.2375 -5.885,3.025 l 0,-2.695 -2.6125,0 0,14.574998 2.6125,0 0,-9.734998 c 1.155,-1.815 2.8325,-3.19 4.895,-3.19 2.255,0 2.255,1.815 2.255,3.3825 z"
         id="path4160"
         inkscape:connector-curvature="0" />
      <path
         d="m 258.75898,96.698632 c 0,-2.3925 -2.09,-3.52 -4.4,-4.29 l -2.1175,-0.6875 c -1.375,-0.44 -3.2175,-1.045 -3.2175,-2.2275 0,-1.1825 1.98,-1.5125 3.685,-1.5125 1.7325,0 3.41,0.33 5.0875,0.715 l 0,-2.0625 c -1.65,-0.3575 -3.355,-0.605 -4.7575,-0.605 -3.4925,0 -6.6,1.4575 -6.6,4.125 0,2.2825 2.2,3.3825 4.345,4.07 l 2.1175,0.6875 c 1.5125,0.495 3.245,1.0725 3.245,2.42 0,1.3475 -1.7325,1.98 -4.125,1.98 -1.43,0 -3.575,-0.22 -5.5825,-0.99 l 0,2.062498 c 2.0075,0.77 4.18,0.88 5.28,0.88 4.1525,0 7.04,-1.732498 7.04,-4.564998 z"
         id="path4162"
         inkscape:connector-curvature="0" />
      <path
         d="m 276.26574,100.93363 0,-19.937498 -3.5475,0 -3.6575,9.2125 -3.905,-9.2125 -3.465,0 0,19.937498 2.2825,0 0,-16.224998 4.0425,9.4875 1.7325,0 3.7675,-9.46 0,16.197498 2.75,0 z"
         id="path4164"
         inkscape:connector-curvature="0" />
      <path
         d="m 289.31749,93.646132 c 0,1.65 -0.1375,3.41 -1.265,4.62 -0.6875,0.6875 -1.6225,1.045 -2.585,1.045 -0.9625,0 -1.8975,-0.3575 -2.585,-1.045 -1.1275,-1.21 -1.265,-2.97 -1.265,-4.62 0,-1.65 0.1375,-3.41 1.265,-4.62 0.6875,-0.6875 1.6225,-1.045 2.585,-1.045 0.9625,0 1.8975,0.3575 2.585,1.045 1.1275,1.21 1.265,2.97 1.265,4.62 z m -3.85,-7.6175 c -4.07,0 -6.7375,3.025 -6.7375,7.6175 0,4.62 2.695,7.617498 6.7375,7.617498 4.0425,0 6.7375,-2.997498 6.7375,-7.617498 0,-4.62 -2.7225,-7.6175 -6.7375,-7.6175 z"
         id="path4166"
         inkscape:connector-curvature="0" />
      <path
         d="m 305.53175,91.391132 0,9.542498 2.6125,0 0,-9.047498 c 0,-2.53 0.0275,-5.8575 -3.8775,-5.8575 -2.365,0 -4.3725,1.2375 -5.885,3.025 l 0,-2.695 -2.6125,0 0,14.574998 2.6125,0 0,-9.734998 c 1.155,-1.815 2.8325,-3.19 4.895,-3.19 2.255,0 2.255,1.815 2.255,3.3825 z"
         id="path4168"
         inkscape:connector-curvature="0" />
      <path
         d="m 322.29601,93.646132 c 0,1.65 -0.1375,3.41 -1.265,4.62 -0.6875,0.6875 -1.6225,1.045 -2.585,1.045 -0.9625,0 -1.8975,-0.3575 -2.585,-1.045 -1.1275,-1.21 -1.265,-2.97 -1.265,-4.62 0,-1.65 0.1375,-3.41 1.265,-4.62 0.6875,-0.6875 1.6225,-1.045 2.585,-1.045 0.9625,0 1.8975,0.3575 2.585,1.045 1.1275,1.21 1.265,2.97 1.265,4.62 z m -3.85,-7.6175 c -4.07,0 -6.7375,3.025 -6.7375,7.6175 0,4.62 2.695,7.617498 6.7375,7.617498 4.0425,0 6.7375,-2.997498 6.7375,-7.617498 0,-4.62 -2.7225,-7.6175 -6.7375,-7.6175 z"
         id="path4170"
         inkscape:connector-curvature="0" />
      <path
         d="m 347.10703,100.93363 0,-15.564998 8.1675,15.564998 2.75,0 0,-19.937498 -2.2825,0 0,15.5925 -8.1675,-15.5925 -2.75,0 0,19.937498 2.2825,0 z"
         id="path4172"
         inkscape:connector-curvature="0" />
      <path
         d="m 364.20128,91.996132 c 0.5225,-2.805 2.2275,-4.015 4.015,-4.015 1.8975,0 3.3275,1.3475 3.6025,4.015 l -7.6175,0 z m 4.95,9.267498 c 1.5675,0 3.3,-0.2475 5.005,-0.715 l 0,-1.952498 c -1.705,0.4675 -3.4375,0.715 -4.9225,0.715 -2.9425,0 -5.1425,-1.045 -5.17,-5.3625 l 10.4225,0 c 0,-0.3025 0.0275,-0.605 0.0275,-0.9075 0,-5.0875 -3.2175,-7.0125 -6.4075,-7.0125 -3.135,0 -6.93,1.8425 -6.93,7.5075 0,3.5475 1.595,7.727498 7.975,7.727498 z"
         id="path4174"
         inkscape:connector-curvature="0" />
      <path
         d="m 390.59054,88.558632 0,-2.42 c -0.5225,-0.11 -1.375,-0.11 -1.705,-0.11 -2.8875,0 -5.2525,1.485 -6.545,3.63 l 0,-3.3 -2.6125,0 0,14.574998 2.6125,0 0,-8.854998 c 0.825,-2.255 3.4375,-3.7125 6.38,-3.7125 0.4675,0 1.1825,0.055 1.87,0.1925 z"
         id="path4176"
         inkscape:connector-curvature="0" />
      <path
         d="m 394.1548,94.086132 c 0,5.3075 2.9975,7.177498 5.665,7.177498 1.925,0 3.52,-0.99 4.6475,-2.447498 l 0,2.117498 2.6125,0 0,-21.174998 -2.6125,0 0,6.4075 c -0.7425,-0.0825 -1.4025,-0.1375 -1.925,-0.1375 -3.795,0 -8.3875,1.6225 -8.3875,8.0575 z m 8.3325,-6.105 c 0.66,0 1.32,0.11 1.98,0.2475 l 0,8.36 c -0.66,1.5675 -2.0075,2.7225 -3.7125,2.7225 -1.9525,0 -3.7125,-1.595 -3.7125,-5.4725 0,-4.675 2.75,-5.8575 5.445,-5.8575 z"
         id="path4178"
         inkscape:connector-curvature="0" />
      <path
         d="m 441.15832,83.058632 0,-2.0625 -13.8875,0 0,19.937498 2.75,0 0,-9.652498 9.02,0 0,-2.0625 -9.02,0 0,-6.16 11.1375,0 z"
         id="path4180"
         inkscape:connector-curvature="0" />
      <path
         d="m 454.21007,93.646132 c 0,1.65 -0.1375,3.41 -1.265,4.62 -0.6875,0.6875 -1.6225,1.045 -2.585,1.045 -0.9625,0 -1.8975,-0.3575 -2.585,-1.045 -1.1275,-1.21 -1.265,-2.97 -1.265,-4.62 0,-1.65 0.1375,-3.41 1.265,-4.62 0.6875,-0.6875 1.6225,-1.045 2.585,-1.045 0.9625,0 1.8975,0.3575 2.585,1.045 1.1275,1.21 1.265,2.97 1.265,4.62 z m -3.85,-7.6175 c -4.07,0 -6.7375,3.025 -6.7375,7.6175 0,4.62 2.695,7.617498 6.7375,7.617498 4.0425,0 6.7375,-2.997498 6.7375,-7.617498 0,-4.62 -2.7225,-7.6175 -6.7375,-7.6175 z"
         id="path4182"
         inkscape:connector-curvature="0" />
      <path
         d="m 470.42433,91.391132 0,9.542498 2.6125,0 0,-9.047498 c 0,-2.53 0.0275,-5.8575 -3.8775,-5.8575 -2.365,0 -4.3725,1.2375 -5.885,3.025 l 0,-2.695 -2.6125,0 0,14.574998 2.6125,0 0,-9.734998 c 1.155,-1.815 2.8325,-3.19 4.895,-3.19 2.255,0 2.255,1.815 2.255,3.3825 z"
         id="path4184"
         inkscape:connector-curvature="0" />
      <path
         d="m 483.39359,96.066132 0,-7.755 5.5275,0 0,-1.9525 -5.5275,0 0,-3.3 -2.6125,0 0,3.3 -3.63,0 0,1.9525 3.63,0 0,7.4525 c 0,3.6025 0.165,5.499998 4.6475,5.499998 0.99,0 2.2275,-0.0825 3.4925,-0.22 l 0,-1.952498 c -0.9625,0.11 -2.0625,0.22 -2.86,0.22 -2.585,0 -2.6675,-1.2375 -2.6675,-3.245 z"
         id="path4186"
         inkscape:connector-curvature="0" />
    </g>
    <g
       style="font-style:normal;font-weight:normal;font-size:27.5px;line-height:125%;font-family:'AurulentSansMono Nerd Font';letter-spacing:0px;word-spacing:0px;fill:#ffffff;fill-opacity:1;stroke:none;stroke-width:1px;stroke-linecap:butt;stroke-linejoin:miter;stroke-opacity:1"
       id="text4140">
      <path
         d="m 70.861903,131.44862 c -1.295,0 -2.5725,0.2275 -3.78,0.665 l 0,1.2425 c 1.155,-0.42 2.3625,-0.665 3.535,-0.665 2.205,0 2.3275,0.9275 2.3275,2.135 l 0,0.7175 c -1.9075,0 -3.7625,0.0525 -5.0925,0.77 -0.8225,0.4725 -1.3825,1.1725 -1.3825,2.24 0,1.4875 1.085,2.59 2.835,2.59 1.365,0 2.59,-0.7 3.64,-1.645 l 0,1.435 1.6625,0 0,-5.8275 c 0,-1.82 -0.035,-3.6575 -3.745,-3.6575 z m 2.0825,7.035 c -0.8925,0.805 -1.9075,1.4175 -3.045,1.4175 -1.05,0 -1.7675,-0.525 -1.7675,-1.435 0,-0.6475 0.385,-1.12 0.945,-1.435 0.98,-0.5075 2.3975,-0.5075 3.8325,-0.5075 l 0.035,0 0,1.96 z"
         style="font-size:17.5px"
         id="path4189"
         inkscape:connector-curvature="0" />
      <path
         d="m 85.450067,135.63112 c 0,-3.395 -1.785,-4.1825 -3.255,-4.1825 -1.4175,0 -2.5375,0.7175 -3.3075,1.75 l 0,-5.74 -1.6625,0 0,13.16 c 0.9975,0.42 2.0825,0.525 2.905,0.525 4.2525,0 5.32,-3.0275 5.32,-5.5125 z m -5.25,4.27 c -0.455,0 -0.8925,-0.0525 -1.3125,-0.14 l 0,-5.285 c 0.525,-1.0325 1.505,-1.7675 2.6425,-1.7675 1.12,0 2.065,0.7175 2.065,3.185 0,3.5525 -2.1,4.0075 -3.395,4.0075 z"
         style="font-size:17.5px"
         id="path4191"
         inkscape:connector-curvature="0" />
      <path
         d="m 89.118231,136.29612 c 0,-1.8025 0.6825,-3.605 3.4825,-3.605 0.9975,0 2.135,0.21 3.255,0.455 l 0,-1.295 c -1.12,-0.245 -2.2575,-0.4025 -3.255,-0.4025 -4.13,0 -5.145,2.7475 -5.145,4.8475 0,2.66 1.505,4.8475 5.11,4.8475 1.0325,0 2.17,-0.1925 3.29,-0.4725 l 0,-1.3125 c -1.12,0.28 -2.2575,0.5425 -3.29,0.5425 -2.765,0 -3.4475,-1.8375 -3.4475,-3.605 z"
         style="font-size:17.5px"
         id="path4193"
         inkscape:connector-curvature="0" />
      <path
         d="m 97.861395,136.57612 c 0,3.3775 1.9075,4.5675 3.605005,4.5675 1.225,0 2.24,-0.63 2.9575,-1.5575 l 0,1.3475 1.6625,0 0,-13.475 -1.6625,0 0,4.0775 c -0.4725,-0.0525 -0.8925,-0.0875 -1.225,-0.0875 -2.415,0 -5.337505,1.0325 -5.337505,5.1275 z m 5.302505,-3.885 c 0.42,0 0.84,0.07 1.26,0.1575 l 0,5.32 c -0.42,0.9975 -1.2775,1.7325 -2.3625,1.7325 -1.2425,0 -2.362505,-1.015 -2.362505,-3.4825 0,-2.975 1.750005,-3.7275 3.465005,-3.7275 z"
         style="font-size:17.5px"
         id="path4195"
         inkscape:connector-curvature="0" />
      <path
         d="m 110.27956,135.24612 c 0.3325,-1.785 1.4175,-2.555 2.555,-2.555 1.2075,0 2.1175,0.8575 2.2925,2.555 l -4.8475,0 z m 3.15,5.8975 c 0.9975,0 2.1,-0.1575 3.185,-0.455 l 0,-1.2425 c -1.085,0.2975 -2.1875,0.455 -3.1325,0.455 -1.8725,0 -3.2725,-0.665 -3.29,-3.4125 l 6.6325,0 c 0,-0.1925 0.0175,-0.385 0.0175,-0.5775 0,-3.2375 -2.0475,-4.4625 -4.0775,-4.4625 -1.995,0 -4.41,1.1725 -4.41,4.7775 0,2.2575 1.015,4.9175 5.075,4.9175 z"
         style="font-size:17.5px"
         id="path4197"
         inkscape:connector-curvature="0" />
      <path
         d="m 121.50772,131.65862 -2.31,0 0,1.2425 2.31,0 0,8.0325 1.6625,0 0,-8.0325 2.9225,0 0,-1.2425 -2.9225,0 c 0.0175,-1.82 0.28,-3.1675 2.625,-3.1675 0.735,0 1.3475,0.14 1.9425,0.28 l 0,-1.26 c -0.665,-0.1575 -1.3125,-0.2625 -2.1875,-0.2625 -3.3775,0 -4.0075,1.5925 -4.0425,4.41 z"
         style="font-size:17.5px"
         id="path4199"
         inkscape:connector-curvature="0" />
      <path
         d="m 133.62839,136.89112 c -1.82,0 -2.1875,-0.9625 -2.1875,-2.1 0,-1.015 0.315,-2.1 2.1875,-2.1 1.7675,0 2.1875,0.98 2.1875,2.1 0,1.0325 -0.2975,2.1 -2.1875,2.1 z m -4.025,-2.1 c 0,1.1375 0.595,2.205 1.5925,2.7825 -0.4375,0.35 -0.7,0.8575 -0.7,1.4175 0,0.665 0.5075,1.4175 1.4175,1.68 0.315,0.105 0.9625,0.2275 1.435,0.315 l 1.6275,0.315 c 1.12,0.2275 1.5925,0.4025 1.5925,0.98 0,0.77 -1.1375,0.805 -1.925,0.805 -1.8375,0 -3.4125,-0.1925 -4.9525,-0.595 l 0,1.435 c 0.77,0.1925 2.0125,0.4025 4.025,0.4025 2.6075,0 4.515,-0.5775 4.515,-2.1875 0,-1.715 -2.0125,-1.995 -2.7825,-2.1525 l -1.6275,-0.315 c -1.3125,-0.2275 -1.9775,-0.4025 -1.9775,-0.9975 0,-0.2625 0.14,-0.5075 0.3675,-0.6825 0.455,0.1225 0.9275,0.175 1.4175,0.175 3.045,0 4.025,-1.995 4.025,-3.36 0,-0.9275 -0.4025,-1.8025 -1.085,-2.3975 0.4375,-0.2275 0.9625,-0.315 1.505,-0.315 l 0,-1.26 c -0.8925,0 -1.6975,0.42 -2.31,1.05 -0.6475,-0.2975 -1.4,-0.42 -2.135,-0.42 -3.01,0 -4.025,1.925 -4.025,3.325 z"
         style="font-size:17.5px"
         id="path4201"
         inkscape:connector-curvature="0" />
      <path
         d="m 146.39655,134.86112 0,6.0725 1.6625,0 0,-5.7575 c 0,-1.61 0.0175,-3.7275 -2.4675,-3.7275 -1.505,0 -2.7825,0.7875 -3.745,1.925 l 0,-5.915 -1.6625,0 0,13.475 1.6625,0 0,-6.195 c 0.735,-1.155 1.8025,-2.03 3.115,-2.03 1.435,0 1.435,1.155 1.435,2.1525 z"
         style="font-size:17.5px"
         id="path4203"
         inkscape:connector-curvature="0" />
      <path
         d="m 155.54222,129.90862 0,-1.6625 -1.6625,0 0,1.6625 1.6625,0 z m 0,9.7825 0,-8.0325 -4.375,0 0,1.2425 2.7125,0 0,6.79 -3.2025,0 0,1.2425 7.875,0 0,-1.2425 -3.01,0 z"
         style="font-size:17.5px"
         id="path4205"
         inkscape:connector-curvature="0" />
      <path
         d="m 167.50538,129.90862 0,-1.6625 -1.6625,0 0,1.6625 1.6625,0 z m 0,10.115 0,-8.365 -4.69,0 0,1.2425 3.0275,0 0,7.4375 c 0,0.875 0,1.75 -0.77,2.345 -0.5775,0.42 -1.4,0.595 -2.1525,0.595 -0.7175,0 -1.2425,-0.14 -1.75,-0.2975 l 0,1.225 c 0.56,0.1575 1.1375,0.315 1.995,0.315 1.12,0 2.345,-0.2625 3.185,-0.9275 1.155,-0.8925 1.155,-2.24 1.155,-3.57 z"
         style="font-size:17.5px"
         id="path4207"
         inkscape:connector-curvature="0" />
      <path
         d="m 180.29104,140.93362 -5.1625,-5.1275 4.55,-4.1475 -1.9425,0 -4.41,4.025 0,-8.225 -1.6625,0 0,13.475 1.6625,0 0,-3.4825 0.735,-0.6825 4.3575,4.165 1.8725,0 z"
         style="font-size:17.5px"
         id="path4209"
         inkscape:connector-curvature="0" />
      <path
         d="m 187.02171,139.69112 0,-12.2325 -4.375,0 0,1.2425 2.7125,0 0,10.99 -3.2025,0 0,1.2425 7.875,0 0,-1.2425 -3.01,0 z"
         style="font-size:17.5px"
         id="path4211"
         inkscape:connector-curvature="0" />
      <path
         d="m 195.76487,134.84362 0,6.09 1.645,0 0,-5.74 c 0,-0.7 -0.0175,-1.4175 -0.1225,-2.0475 0.175,-0.28 0.455,-0.455 0.8225,-0.455 0.665,0 0.7525,0.595 0.7525,2.1525 l 0,6.09 1.6625,0 0,-5.74 c 0,-1.365 0.0525,-3.745 -1.89,-3.745 -0.665,0 -1.26,0.28 -1.715,0.735 -0.3675,-0.5775 -0.8925,-0.735 -1.3825,-0.735 -0.455,0 -0.875,0.14 -1.225,0.35 l 0,-0.14 -1.6625,0 0,9.275 1.6625,0 0,-7.945 c 0.175,-0.175 0.4025,-0.2975 0.7,-0.2975 0.595,0 0.7525,0.5075 0.7525,2.1525 z"
         style="font-size:17.5px"
         id="path4213"
         inkscape:connector-curvature="0" />
      <path
         d="m 209.35554,134.86112 0,6.0725 1.6625,0 0,-5.7575 c 0,-1.61 0.0175,-3.7275 -2.4675,-3.7275 -1.505,0 -2.7825,0.7875 -3.745,1.925 l 0,-1.715 -1.6625,0 0,9.275 1.6625,0 0,-6.195 c 0.735,-1.155 1.8025,-2.03 3.115,-2.03 1.435,0 1.435,1.155 1.435,2.1525 z"
         style="font-size:17.5px"
         id="path4215"
         inkscape:connector-curvature="0" />
      <path
         d="m 220.0237,136.29612 c 0,1.05 -0.0875,2.17 -0.805,2.94 -0.4375,0.4375 -1.0325,0.665 -1.645,0.665 -0.6125,0 -1.2075,-0.2275 -1.645,-0.665 -0.7175,-0.77 -0.805,-1.89 -0.805,-2.94 0,-1.05 0.0875,-2.17 0.805,-2.94 0.4375,-0.4375 1.0325,-0.665 1.645,-0.665 0.6125,0 1.2075,0.2275 1.645,0.665 0.7175,0.77 0.805,1.89 0.805,2.94 z m -2.45,-4.8475 c -2.59,0 -4.2875,1.925 -4.2875,4.8475 0,2.94 1.715,4.8475 4.2875,4.8475 2.5725,0 4.2875,-1.9075 4.2875,-4.8475 0,-2.94 -1.7325,-4.8475 -4.2875,-4.8475 z"
         style="font-size:17.5px"
         id="path4217"
         inkscape:connector-curvature="0" />
      <path
         d="m 232.35436,135.63112 c 0,-3.395 -1.785,-4.1825 -3.255,-4.1825 -1.4175,0 -2.5375,0.7175 -3.3075,1.75 l 0,-1.54 -1.6625,0 0,12.6525 1.6625,0 0,-3.2375 c 0.4375,0.0525 0.8575,0.07 1.2425,0.07 4.2525,0 5.32,-3.0275 5.32,-5.5125 z m -5.25,4.27 c -0.455,0 -0.8925,-0.0525 -1.3125,-0.14 l 0,-5.285 c 0.525,-1.0325 1.505,-1.7675 2.6425,-1.7675 1.12,0 2.065,0.7175 2.065,3.185 0,3.5525 -2.1,4.0075 -3.395,4.0075 z"
         style="font-size:17.5px"
         id="path4219"
         inkscape:connector-curvature="0" />
      <path
         d="m 234.27253,136.57612 c 0,3.3775 1.9075,4.5675 3.605,4.5675 1.225,0 2.24,-0.63 2.9575,-1.5575 l 0,4.725 1.6625,0 0,-12.3375 c -1.015,-0.4375 -2.135,-0.525 -2.8875,-0.525 -2.415,0 -5.3375,1.0325 -5.3375,5.1275 z m 5.3025,-3.885 c 0.42,0 0.84,0.07 1.26,0.1575 l 0,5.32 c -0.42,0.9975 -1.2775,1.7325 -2.3625,1.7325 -1.2425,0 -2.3625,-1.015 -2.3625,-3.4825 0,-2.975 1.75,-3.7275 3.465,-3.7275 z"
         style="font-size:17.5px"
         id="path4221"
         inkscape:connector-curvature="0" />
      <path
         d="m 252.99069,133.05862 0,-1.54 c -0.3325,-0.07 -0.875,-0.07 -1.085,-0.07 -1.8375,0 -3.3425,0.945 -4.165,2.31 l 0,-2.1 -1.6625,0 0,9.275 1.6625,0 0,-5.635 c 0.525,-1.435 2.1875,-2.3625 4.06,-2.3625 0.2975,0 0.7525,0.035 1.19,0.1225 z"
         style="font-size:17.5px"
         id="path4223"
         inkscape:connector-curvature="0" />
      <path
         d="m 263.53636,138.23862 c 0,-1.5225 -1.33,-2.24 -2.8,-2.73 l -1.3475,-0.4375 c -0.875,-0.28 -2.0475,-0.665 -2.0475,-1.4175 0,-0.7525 1.26,-0.9625 2.345,-0.9625 1.1025,0 2.17,0.21 3.2375,0.455 l 0,-1.3125 c -1.05,-0.2275 -2.135,-0.385 -3.0275,-0.385 -2.2225,0 -4.2,0.9275 -4.2,2.625 0,1.4525 1.4,2.1525 2.765,2.59 l 1.3475,0.4375 c 0.9625,0.315 2.065,0.6825 2.065,1.54 0,0.8575 -1.1025,1.26 -2.625,1.26 -0.91,0 -2.275,-0.14 -3.5525,-0.63 l 0,1.3125 c 1.2775,0.49 2.66,0.56 3.36,0.56 2.6425,0 4.48,-1.1025 4.48,-2.905 z"
         style="font-size:17.5px"
         id="path4225"
         inkscape:connector-curvature="0" />
      <path
         d="m 270.07452,137.83612 0,-4.935 3.5175,0 0,-1.2425 -3.5175,0 0,-2.1 -1.6625,0 0,2.1 -2.31,0 0,1.2425 2.31,0 0,4.7425 c 0,2.2925 0.105,3.5 2.9575,3.5 0.63,0 1.4175,-0.0525 2.2225,-0.14 l 0,-1.2425 c -0.6125,0.07 -1.3125,0.14 -1.82,0.14 -1.645,0 -1.6975,-0.7875 -1.6975,-2.065 z"
         style="font-size:17.5px"
         id="path4227"
         inkscape:connector-curvature="0" />
      <path
         d="m 278.25768,137.69612 0,-6.0375 -1.6625,0 0,5.7225 c 0,1.4525 -0.0525,3.7625 2.5025,3.7625 1.47,0 2.73,-0.77 3.6925,-1.9075 l 0,1.715 1.6625,0 0,-9.275 -1.6625,0 0,6.195 c -0.735,1.155 -1.8025,2.0475 -3.0975,2.0475 -1.435,0 -1.435,-1.19 -1.435,-2.2225 z"
         style="font-size:17.5px"
         id="path4229"
         inkscape:connector-curvature="0" />
      <path
         d="m 291.21835,139.13112 -2.8875,-7.4725 -1.6625,0 3.605,9.275 1.6625,0 3.4475,-9.275 -1.3825,0 -2.7825,7.4725 z"
         style="font-size:17.5px"
         id="path4231"
         inkscape:connector-curvature="0" />
      <path
         d="m 306.59401,131.65862 -1.3825,0 -1.2425,7.0525 -1.8025,-5.0225 -0.945,0 -1.925,5.0225 -1.365,-7.0525 -1.4875,0 1.8025,9.275 1.575,0 1.785,-4.6375 1.6975,4.6375 1.6625,0 1.6275,-9.275 z"
         style="font-size:17.5px"
         id="path4233"
         inkscape:connector-curvature="0" />
      <path
         d="m 316.36968,140.93362 -3.43,-4.5325 3.5,-4.7425 -1.6625,0 -2.6775,3.6225 -2.7125,-3.6225 -1.6625,0 3.3425,4.4625 -3.5525,4.8125 1.6625,0 2.73,-3.6925 2.8,3.6925 1.6625,0 z"
         style="font-size:17.5px"
         id="path4235"
         inkscape:connector-curvature="0" />
      <path
         d="m 326.86284,131.65862 -1.3825,0 -2.765,7.42 -2.905,-7.42 -1.6625,0 3.71,9.7125 -1.085,2.94 1.3825,0 4.7075,-12.6525 z"
         style="font-size:17.5px"
         id="path4237"
         inkscape:connector-curvature="0" />
      <path
         d="m 337.1985,140.93362 0,-1.2425 -6.4225,0 6.4225,-6.7375 0,-1.295 -8.155,0 0,1.2425 6.16,0 -6.405,6.7375 0,1.295 8.4,0 z"
         style="font-size:17.5px"
         id="path4239"
         inkscape:connector-curvature="0" />
      <path
         d="m 75.744403,162.80862 -4.27,-12.6875 -1.75,0 -4.13,12.6875 1.4525,0 1.1375,-3.535 4.62,0 1.19,3.535 1.75,0 z m -3.395,-4.8475 -3.7275,0 1.8375,-5.635 1.89,5.635 z"
         style="font-size:17.5px"
         id="path4241"
         inkscape:connector-curvature="0" />
      <path
         d="m 82.475067,156.14112 c 1.5225,-0.3325 2.8875,-1.26 2.8875,-2.835 0,-0.7875 -0.35,-1.68 -1.19,-2.3275 -1.12,-0.84 -2.59,-0.84 -4.0775,-0.84 l -3.1325,0 0,12.6875 3.22,0 c 1.645,0 3.2725,0 4.445,-0.875 0.77,-0.56 1.1725,-1.4 1.1725,-2.345 0,-1.9075 -1.5575,-3.08 -3.325,-3.465 z m -3.78,0.665 1.085,0 c 1.19,0 2.38,0 3.325,0.805 0.56,0.49 0.9275,1.1725 0.9275,1.925 0,0.63 -0.245,1.12 -0.7175,1.47 -0.7,0.5075 -1.68,0.5075 -2.6775,0.5075 l -1.9425,0 0,-4.7075 z m 0,-1.3125 0,-4.0425 1.82,0 c 0.875,0 1.75,0 2.38,0.49 0.5075,0.385 0.7,0.91 0.7,1.3825 0,0.6125 -0.315,1.1375 -0.7875,1.5225 -0.8225,0.63 -1.855,0.6475 -2.905,0.6475 l -1.2075,0 z"
         style="font-size:17.5px"
         id="path4243"
         inkscape:connector-curvature="0" />
      <path
         d="m 86.930731,156.47362 c 0,4.095 2.1525,6.65 5.635,6.65 1.2775,0 2.5725,-0.3675 3.7275,-1.0325 l 0,-1.645 c -1.1725,0.6825 -2.415,1.365 -3.7625,1.365 -0.945,0 -1.8375,-0.35 -2.5025,-1.0675 -1.015,-1.1025 -1.1725,-2.73 -1.1725,-4.27 0,-1.5575 0.1575,-3.185 1.1725,-4.2875 0.665,-0.7175 1.5575,-1.0675 2.6075,-1.0675 1.19,0 2.4325,0.4375 3.6575,0.9275 l 0,-1.4875 c -1.2075,-0.4725 -2.485,-0.7525 -3.6575,-0.7525 -3.5875,0 -5.705,2.59 -5.705,6.6675 z"
         style="font-size:17.5px"
         id="path4245"
         inkscape:connector-curvature="0" />
      <path
         d="m 105.0364,156.42112 c 0,1.4 -0.35,2.7125 -0.98,3.6575 -0.9625,1.4175 -2.1525,1.4175 -3.3425,1.4175 l -1.015005,0 0,-10.0625 1.487505,0 c 1.0675,0 2.1175,0.0175 2.975,1.4 0.56,0.9625 0.875,2.275 0.875,3.5875 z m 1.75,0.0175 c 0,-1.715 -0.56,-3.2725 -1.4175,-4.445 -1.4175,-1.855 -3.115,-1.8725 -4.83,-1.8725 l -2.590005,0 0,12.6875 2.135005,0 c 1.8375,0 3.6925,0 5.1975,-1.855 0.9275,-1.155 1.505,-2.7475 1.505,-4.515 z"
         style="font-size:17.5px"
         id="path4247"
         inkscape:connector-curvature="0" />
      <path
         d="m 117.47206,162.80862 0,-1.3125 -7.28,0 0,-4.83 5.74,0 0,-1.3125 -5.74,0 0,-3.92 7.0875,0 0,-1.3125 -8.8375,0 0,12.6875 9.03,0 z"
         style="font-size:17.5px"
         id="path4249"
         inkscape:connector-curvature="0" />
      <path
         d="m 127.77272,151.43362 0,-1.3125 -8.8375,0 0,12.6875 1.75,0 0,-6.1425 5.74,0 0,-1.3125 -5.74,0 0,-3.92 7.0875,0 z"
         style="font-size:17.5px"
         id="path4251"
         inkscape:connector-curvature="0" />
      <path
         d="m 128.90339,156.47362 c 0,4.095 2.17,6.65 5.6175,6.65 1.2775,0 2.5375,-0.3675 3.745,-0.8575 l 0,-5.495 -3.1325,0 0,1.3125 1.3825,0 0,3.36 c -0.665,0.21 -1.33,0.3675 -1.9775,0.3675 -0.98,0 -1.8725,-0.35 -2.5375,-1.0675 -1.015,-1.1025 -1.1725,-2.73 -1.1725,-4.27 0,-1.5575 0.1575,-3.185 1.1725,-4.2875 0.665,-0.7175 1.5575,-1.0675 2.6075,-1.0675 1.19,0 2.4325,0.4375 3.6575,0.9275 l 0,-1.4875 c -1.2075,-0.4725 -2.485,-0.7525 -3.6575,-0.7525 -3.5875,0 -5.705,2.59 -5.705,6.6675 z"
         style="font-size:17.5px"
         id="path4253"
         inkscape:connector-curvature="0" />
      <path
         d="m 148.32155,162.80862 0,-12.6875 -1.75,0 0,5.6875 -4.9,0 0,-5.6875 -1.75,0 0,12.6875 1.75,0 0,-5.6875 4.9,0 0,5.6875 1.75,0 z"
         style="font-size:17.5px"
         id="path4255"
         inkscape:connector-curvature="0" />
      <path
         d="m 155.48972,161.49612 0,-10.0625 2.835,0 0,-1.3125 -7.42,0 0,1.3125 2.835,0 0,10.0625 -2.835,0 0,1.3125 7.42,0 0,-1.3125 -2.835,0 z"
         style="font-size:17.5px"
         id="path4257"
         inkscape:connector-curvature="0" />
      <path
         d="m 167.41788,158.08362 0,-6.65 2.3275,0 0,-1.3125 -7.455,0 0,1.3125 3.3775,0 0,7 c 0,0.9975 0,2.0125 -0.735,2.695 -0.4725,0.4375 -1.1725,0.6825 -1.9775,0.6825 -0.8925,0 -1.7325,-0.2975 -2.485,-0.56 l 0,1.4525 c 0.805,0.28 1.6625,0.42 2.5725,0.42 1.4525,0 2.52,-0.3675 3.255,-1.015 1.12,-1.015 1.12,-2.52 1.12,-4.025 z"
         style="font-size:17.5px"
         id="path4259"
         inkscape:connector-curvature="0" />
      <path
         d="m 180.53604,162.80862 -5.7575,-6.7025 5.53,-5.985 -1.89,0 -5.2675,5.6875 0,-5.6875 -1.75,0 0,12.6875 1.75,0 0,-4.9525 0.7,-0.77 4.935,5.7225 1.75,0 z"
         style="font-size:17.5px"
         id="path4261"
         inkscape:connector-curvature="0" />
      <path
         d="m 191.16921,162.80862 0,-1.3125 -7.525,0 0,-11.375 -1.75,0 0,12.6875 9.275,0 z"
         style="font-size:17.5px"
         id="path4263"
         inkscape:connector-curvature="0" />
      <path
         d="m 201.22487,162.80862 0,-12.6875 -2.2575,0 -2.3275,5.8625 -2.485,-5.8625 -2.205,0 0,12.6875 1.4525,0 0,-10.325 2.5725,6.0375 1.1025,0 2.3975,-6.02 0,10.3075 1.75,0 z"
         style="font-size:17.5px"
         id="path4265"
         inkscape:connector-curvature="0" />
      <path
         d="m 204.33304,162.80862 0,-9.905 5.1975,9.905 1.75,0 0,-12.6875 -1.4525,0 0,9.9225 -5.1975,-9.9225 -1.75,0 0,12.6875 1.4525,0 z"
         style="font-size:17.5px"
         id="path4267"
         inkscape:connector-curvature="0" />
      <path
         d="m 220.3737,156.45612 c 0,1.54 -0.0525,3.15 -0.98,4.375 -0.4375,0.5775 -1.085,0.98 -1.82,0.98 -0.735,0 -1.3825,-0.4025 -1.82,-0.98 -0.9275,-1.225 -0.98,-2.835 -0.98,-4.375 0,-1.5225 0.0525,-3.1325 0.98,-4.3575 0.4375,-0.5775 1.085,-0.98 1.82,-0.98 0.735,0 1.3825,0.4025 1.82,0.98 0.9275,1.225 0.98,2.835 0.98,4.3575 z m -2.8,-6.65 c -1.89,0 -4.725,1.33 -4.725,6.65 0,5.355 2.835,6.6675 4.725,6.6675 1.89,0 4.725,-1.3125 4.725,-6.6675 0,-5.32 -2.835,-6.65 -4.725,-6.65 z"
         style="font-size:17.5px"
         id="path4269"
         inkscape:connector-curvature="0" />
      <path
         d="m 232.86186,153.72612 c 0,-0.98 -0.3675,-1.96 -1.2075,-2.66 -1.19,-0.9275 -2.8,-0.945 -4.445,-0.945 l -3.3425,0 0,12.6875 1.75,0 0,-5.0575 1.61,0 c 1.575,0 3.15,0 4.3575,-1.0675 0.91,-0.805 1.2775,-1.9425 1.2775,-2.9575 z m -7.245,2.7125 0,-5.005 2.0475,0 c 0.9975,0 1.995,0 2.7125,0.595 0.525,0.455 0.735,1.085 0.735,1.7325 0,0.63 -0.21,1.4175 -0.77,1.96 -0.7175,0.7175 -1.6975,0.7175 -2.6775,0.7175 l -2.0475,0 z"
         style="font-size:17.5px"
         id="path4271"
         inkscape:connector-curvature="0" />
      <path
         d="m 241.36003,156.45612 c 0,1.47 -0.0525,3.01 -0.8575,4.2175 -0.4025,-0.875 -1.1025,-1.9775 -2.2925,-2.2925 l -0.35,1.2775 c 0.7875,0.21 1.26,0.8925 1.68,1.9075 -0.2975,0.1575 -0.63,0.2625 -0.98,0.2625 -0.735,0 -1.3825,-0.4025 -1.82,-0.98 -0.9275,-1.225 -0.98,-2.835 -0.98,-4.375 0,-1.5225 0.0525,-3.1325 0.98,-4.3575 0.4375,-0.5775 1.085,-0.98 1.82,-0.98 0.735,0 1.3825,0.4025 1.82,0.98 0.9275,1.225 0.98,2.8175 0.98,4.34 z m -2.8,-6.6325 c -1.89,0 -4.725,1.33 -4.725,6.65 0,5.3375 2.835,6.6675 4.725,6.6675 0.5075,0 1.015,-0.105 1.505,-0.28 0.49,1.1725 1.505,2.6775 3.1325,2.6775 l 0,-1.3125 c -0.945,0 -1.54,-0.77 -2.065,-1.96 0.8225,-0.6475 2.1525,-2.1875 2.1525,-5.7925 0,-5.32 -2.835,-6.65 -4.725,-6.65 z"
         style="font-size:17.5px"
         id="path4273"
         inkscape:connector-curvature="0" />
      <path
         d="m 253.25319,153.83112 c 0,-1.015 -0.3325,-2.03 -1.1725,-2.7475 -1.1375,-0.9625 -2.73,-0.9625 -4.305,-0.9625 l -2.9225,0 0,12.6875 1.75,0 0,-5.0575 0.7525,0 c 0.28,0 0.56,0 0.84,0 l 4.0425,5.0575 2.03,0 -4.1475,-5.2325 c 2.975,-0.595 3.1325,-3.0275 3.1325,-3.745 z m -6.65,2.6075 0,-5.005 1.61,0 c 0.9625,0 1.925,0 2.59,0.6125 0.5075,0.4725 0.7,1.155 0.7,1.785 0,0.7 -0.2275,1.4175 -0.7875,1.925 -0.7875,0.6825 -1.8375,0.6825 -2.905,0.6825 l -1.2075,0 z"
         style="font-size:17.5px"
         id="path4275"
         inkscape:connector-curvature="0" />
      <path
         d="m 264.18386,159.34362 c 0,-1.68 -1.015,-2.94 -3.7275,-3.8325 l -0.805,-0.245 c -2.1175,-0.7 -2.9925,-0.9975 -2.9925,-2.1525 0,-1.5225 1.4875,-1.995 2.8525,-1.995 1.3475,0 2.59,0.4375 3.7975,0.9275 l 0,-1.4875 c -1.2075,-0.4725 -2.4675,-0.7525 -3.6575,-0.7525 -2.485,0 -4.7425,1.225 -4.7425,3.7975 0,1.54 0.8225,2.3625 3.78,3.3425 l 0.7875,0.2625 c 1.9775,0.63 2.9575,1.3125 2.9575,2.5375 0,1.505 -1.47,2.065 -2.975,2.065 -1.54,0 -3.115,-0.5775 -4.55,-1.3475 l 0,1.61 c 1.4175,0.77 3.0275,1.05 4.2875,1.05 2.7475,0 4.9875,-1.3125 4.9875,-3.78 z"
         style="font-size:17.5px"
         id="path4277"
         inkscape:connector-curvature="0" />
      <path
         d="m 275.11452,151.43362 0,-1.3125 -10.15,0 0,1.3125 4.2,0 0,11.375 1.75,0 0,-11.375 4.2,0 z"
         style="font-size:17.5px"
         id="path4279"
         inkscape:connector-curvature="0" />
      <path
         d="m 284.73268,157.94362 0,-7.8225 -1.75,0 0,8.155 c 0,1.015 0,2.0475 -0.63,2.7825 -0.4725,0.525 -1.12,0.7525 -1.82,0.7525 -0.7,0 -1.3475,-0.2275 -1.8025,-0.7525 -0.6475,-0.735 -0.6475,-1.7675 -0.6475,-2.7825 l 0,-8.155 -1.75,0 0,7.8225 c 0,1.5225 0,3.0275 1.085,4.095 0.8225,0.805 1.9775,1.085 3.115,1.085 1.1375,0 2.2925,-0.28 3.115,-1.085 1.085,-1.0675 1.085,-2.5725 1.085,-4.095 z"
         style="font-size:17.5px"
         id="path4281"
         inkscape:connector-curvature="0" />
      <path
         d="m 291.21835,160.62112 -3.5175,-10.5 -1.75,0 4.27,12.6875 1.75,0 4.13,-12.6875 -1.4525,0 -3.43,10.5 z"
         style="font-size:17.5px"
         id="path4283"
         inkscape:connector-curvature="0" />
      <path
         d="m 306.59401,150.12112 -1.4525,0 -0.8925,9.8 -2.0825,-5.5125 -1.19,0 -1.8025,5.53 -0.98,-9.8175 -1.75,0 1.2775,12.6875 1.9775,0 1.785,-5.5475 2.135,5.5475 1.8375,0 1.1375,-12.6875 z"
         style="font-size:17.5px"
         id="path4285"
         inkscape:connector-curvature="0" />
      <path
         d="m 316.85968,162.80862 -3.955,-6.51 3.9025,-6.1775 -1.68,0 -3.0275,4.83 -2.94,-4.83 -1.925,0 3.885,6.3875 -3.9725,6.3 1.6625,0 3.115,-4.9525 3.01,4.9525 1.925,0 z"
         style="font-size:17.5px"
         id="path4287"
         inkscape:connector-curvature="0" />
      <path
         d="m 323.45034,162.80862 0,-5.075 3.815,-7.6125 -1.4525,0 -3.115,6.195 -3.2025,-6.195 -1.75,0 3.955,7.6125 0,5.075 1.75,0 z"
         style="font-size:17.5px"
         id="path4289"
         inkscape:connector-curvature="0" />
      <path
         d="m 337.636,162.80862 0,-1.3125 -7.5075,0 7.5075,-9.7475 0,-1.6275 -8.995,0 0,1.3125 7.21,0 -7.49,9.7475 0,1.6275 9.275,0 z"
         style="font-size:17.5px"
         id="path4291"
         inkscape:connector-curvature="0" />
      <path
         d="m 73.119403,180.04612 c 0,1.05 -0.0875,2.17 -0.805,2.94 -0.4375,0.4375 -1.0325,0.665 -1.645,0.665 -0.6125,0 -1.2075,-0.2275 -1.645,-0.665 -0.7175,-0.77 -0.805,-1.89 -0.805,-2.94 0,-1.05 0.0875,-2.17 0.805,-2.94 0.4375,-0.4375 1.0325,-0.665 1.645,-0.665 0.6125,0 1.2075,0.2275 1.645,0.665 0.7175,0.77 0.805,1.89 0.805,2.94 z m -2.45,-4.8475 c -2.59,0 -4.2875,1.925 -4.2875,4.8475 0,2.94 1.715,4.8475 4.2875,4.8475 2.5725,0 4.2875,-1.9075 4.2875,-4.8475 0,-2.94 -1.7325,-4.8475 -4.2875,-4.8475 z"
         style="font-size:17.5px"
         id="path4293"
         inkscape:connector-curvature="0" />
      <path
         d="m 83.962567,178.33112 c 0,1.54 -0.0525,3.15 -0.98,4.375 -0.4375,0.5775 -1.085,0.98 -1.82,0.98 -0.735,0 -1.3825,-0.4025 -1.82,-0.98 -0.9275,-1.225 -0.98,-2.835 -0.98,-4.375 0,-1.5225 0.0525,-3.1325 0.98,-4.3575 0.4375,-0.5775 1.085,-0.98 1.82,-0.98 0.735,0 1.3825,0.4025 1.82,0.98 0.9275,1.225 0.98,2.835 0.98,4.3575 z m -2.8,-6.65 c -1.89,0 -4.725,1.33 -4.725,6.65 0,5.355 2.835,6.6675 4.725,6.6675 1.89,0 4.725,-1.3125 4.725,-6.6675 0,-5.32 -2.835,-6.65 -4.725,-6.65 z"
         style="font-size:17.5px"
         id="path4295"
         inkscape:connector-curvature="0" />
      <path
         d="m 94.455731,178.33112 c 0,1.5575 -0.0525,3.1675 -0.9625,4.4275 -0.4375,0.5775 -1.1025,0.9975 -1.8375,0.9975 -0.735,0 -1.4,-0.42 -1.8375,-0.9975 -0.91,-1.26 -0.9625,-2.87 -0.9625,-4.4275 0,-1.54 0.0525,-3.15 0.9625,-4.41 0.4375,-0.5775 1.1025,-0.9975 1.8375,-0.9975 0.735,0 1.4,0.42 1.8375,0.9975 0.91,1.26 0.9625,2.87 0.9625,4.41 z m -2.8,-6.65 c -1.855,0 -4.6375,1.3125 -4.6375,6.65 0,5.3725 2.7825,6.6675 4.6375,6.6675 1.855,0 4.6375,-1.295 4.6375,-6.6675 0,-5.3375 -2.7825,-6.65 -4.6375,-6.65 z"
         style="font-size:17.5px"
         id="path4297"
         inkscape:connector-curvature="0" />
      <path
         d="m 104.7039,174.63862 c 0,1.155 -0.98,1.96 -2.1175,2.3625 -1.3475,-0.4725 -2.992505,-1.0675 -2.992505,-2.3625 0,-1.2075 1.242505,-1.96 2.555005,-1.96 1.3125,0 2.555,0.7525 2.555,1.96 z m 0.3325,6.7725 c 0,1.4875 -1.3475,2.59 -2.8875,2.59 -1.54,0 -2.887505,-1.1025 -2.887505,-2.59 0,-1.47 1.050005,-2.7125 2.450005,-3.2025 1.6275,0.595 3.325,1.5575 3.325,3.2025 z m 1.6625,0.0175 c 0,-1.8375 -1.435,-3.1675 -3.1675,-4.0075 1.4175,-0.49 2.66,-1.365 2.66,-2.765 0,-1.8725 -1.9775,-2.9575 -4.0425,-2.9575 -2.065,0 -4.042505,1.085 -4.042505,2.9575 0,1.505 1.2075,2.5025 2.660005,3.1675 -1.732505,0.6125 -3.167505,1.8725 -3.167505,3.605 0,2.1875 2.1875,3.5875 4.550005,3.5875 2.3625,0 4.55,-1.4 4.55,-3.5875 z"
         style="font-size:17.5px"
         id="path4299"
         inkscape:connector-curvature="0" />
      <path
         d="m 124.06272,173.65862 0,-1.6625 -1.6625,0 0,1.6625 1.6625,0 z m 0,9.7825 0,-8.0325 -4.375,0 0,1.2425 2.7125,0 0,6.79 -3.2025,0 0,1.2425 7.875,0 0,-1.2425 -3.01,0 z"
         style="font-size:17.5px"
         id="path4301"
         inkscape:connector-curvature="0" />
      <path
         d="m 134.50339,183.37112 0,-10.0625 2.835,0 0,-1.3125 -7.42,0 0,1.3125 2.835,0 0,10.0625 -2.835,0 0,1.3125 7.42,0 0,-1.3125 -2.835,0 z"
         style="font-size:17.5px"
         id="path4303"
         inkscape:connector-curvature="0" />
      <path
         d="m 145.04905,183.44112 0,-12.2325 -4.375,0 0,1.2425 2.7125,0 0,10.99 -3.2025,0 0,1.2425 7.875,0 0,-1.2425 -3.01,0 z"
         style="font-size:17.5px"
         id="path4305"
         inkscape:connector-curvature="0" />
      <path
         d="m 159.68972,184.68362 0,-1.3125 -7.525,0 0,-11.375 -1.75,0 0,12.6875 9.275,0 z"
         style="font-size:17.5px"
         id="path4307"
         inkscape:connector-curvature="0" />
      <path
         d="m 169.34288,184.68362 0,-1.2425 -2.8525,0 0,-11.515 -1.33,0 -3.325,1.3125 0,1.2425 2.9925,-1.05 0,10.01 -2.9925,0 0,1.2425 7.5075,0 z"
         style="font-size:17.5px"
         id="path4309"
         inkscape:connector-curvature="0" />
      <path
         d="m 185.21921,179.17112 c 0.5075,-0.2975 1.2425,-1.015 1.2425,-1.435 l 0,-3.57 c 0,-0.9625 1.0325,-1.505 2.0825,-1.505 l 0.7,0 0,-1.26 -0.7,0 c -1.785,0 -3.4475,1.1025 -3.4475,2.765 l 0,3.395 c -0.5075,0.6125 -1.26,0.98 -2.0475,0.98 l 0,1.26 c 0.7875,0 1.54,0.3675 2.0475,0.9975 l 0,3.3775 c 0,1.6625 1.6625,2.765 3.4475,2.765 l 0.7,0 0,-1.26 -0.7,0 c -1.05,0 -2.0825,-0.5425 -2.0825,-1.505 l 0,-3.57 c 0,-0.35 -0.63,-1.05 -1.2425,-1.435 z"
         style="font-size:17.5px"
         id="path4311"
         inkscape:connector-curvature="0" />
      <path
         d="m 197.46237,179.17112 c -0.525,0.315 -1.2425,1.0325 -1.2425,1.435 l 0,3.57 c 0,0.9625 -1.0325,1.505 -2.0825,1.505 l -0.7,0 0,1.26 0.7,0 c 1.785,0 3.4475,-1.1025 3.4475,-2.765 l 0,-3.3775 c 0.5075,-0.63 1.26,-0.9975 2.0475,-0.9975 l 0,-1.26 c -0.7875,0 -1.54,-0.3675 -2.0475,-0.98 l 0,-3.395 c 0,-1.6625 -1.6625,-2.765 -3.4475,-2.765 l -0.7,0 0,1.26 0.7,0 c 1.05,0 2.0825,0.5425 2.0825,1.505 l 0,3.57 c 0,0.3675 0.6125,1.0675 1.2425,1.435 z"
         style="font-size:17.5px"
         id="path4313"
         inkscape:connector-curvature="0" />
      <path
         d="m 221.4237,186.94112 0,-1.26 -4.2875,0 0,-13.02 4.2875,0 0,-1.26 -5.95,0 0,15.54 5.95,0 z"
         style="font-size:17.5px"
         id="path4315"
         inkscape:connector-curvature="0" />
      <path
         d="m 230.16686,186.94112 0,-15.54 -5.95,0 0,1.26 4.2875,0 0,13.02 -4.2875,0 0,1.26 5.95,0 z"
         style="font-size:17.5px"
         id="path4317"
         inkscape:connector-curvature="0" />
      <path
         d="m 249.05319,180.64112 c -1.82,0 -2.1875,-0.9625 -2.1875,-2.1 0,-1.015 0.315,-2.1 2.1875,-2.1 1.7675,0 2.1875,0.98 2.1875,2.1 0,1.0325 -0.2975,2.1 -2.1875,2.1 z m -4.025,-2.1 c 0,1.1375 0.595,2.205 1.5925,2.7825 -0.4375,0.35 -0.7,0.8575 -0.7,1.4175 0,0.665 0.5075,1.4175 1.4175,1.68 0.315,0.105 0.9625,0.2275 1.435,0.315 l 1.6275,0.315 c 1.12,0.2275 1.5925,0.4025 1.5925,0.98 0,0.77 -1.1375,0.805 -1.925,0.805 -1.8375,0 -3.4125,-0.1925 -4.9525,-0.595 l 0,1.435 c 0.77,0.1925 2.0125,0.4025 4.025,0.4025 2.6075,0 4.515,-0.5775 4.515,-2.1875 0,-1.715 -2.0125,-1.995 -2.7825,-2.1525 l -1.6275,-0.315 c -1.3125,-0.2275 -1.9775,-0.4025 -1.9775,-0.9975 0,-0.2625 0.14,-0.5075 0.3675,-0.6825 0.455,0.1225 0.9275,0.175 1.4175,0.175 3.045,0 4.025,-1.995 4.025,-3.36 0,-0.9275 -0.4025,-1.8025 -1.085,-2.3975 0.4375,-0.2275 0.9625,-0.315 1.505,-0.315 l 0,-1.26 c -0.8925,0 -1.6975,0.42 -2.31,1.05 -0.6475,-0.2975 -1.4,-0.42 -2.135,-0.42 -3.01,0 -4.025,1.925 -4.025,3.325 z"
         style="font-size:17.5px"
         id="path4319"
         inkscape:connector-curvature="0" />
      <path
         d="m 256.65886,175.93362 c 0,-2.3975 1.365,-3.01 2.8875,-3.01 1.645,0 2.7825,1.61 2.7825,3.36 0,1.5925 -1.4875,2.695 -3.15,2.695 -1.015,0 -2.52,-0.77 -2.52,-3.045 z m -1.6625,0 c 0,2.31 1.4175,4.1825 4.1825,4.1825 1.295,0 2.52,-0.5425 3.255,-1.435 -0.1225,4.375 -2.415,5.075 -4.0075,5.075 -0.91,0 -1.785,-0.2625 -2.6075,-0.6475 l 0,1.33 c 0.8225,0.4025 1.715,0.56 2.6075,0.56 1.9775,0 5.67,-0.7525 5.67,-6.6675 0,-1.6975 -0.1575,-3.4475 -1.1025,-4.865 -0.77,-1.155 -2.065,-1.785 -3.4475,-1.785 -2.6075,0 -4.55,1.295 -4.55,4.2525 z"
         style="font-size:17.5px"
         id="path4321"
         inkscape:connector-curvature="0" />
      <path
         d="m 265.75202,180.32612 c 0,3.3775 1.9075,4.5675 3.605,4.5675 1.225,0 2.24,-0.63 2.9575,-1.5575 l 0,4.725 1.6625,0 0,-12.3375 c -1.015,-0.4375 -2.135,-0.525 -2.8875,-0.525 -2.415,0 -5.3375,1.0325 -5.3375,5.1275 z m 5.3025,-3.885 c 0.42,0 0.84,0.07 1.26,0.1575 l 0,5.32 c -0.42,0.9975 -1.2775,1.7325 -2.3625,1.7325 -1.2425,0 -2.3625,-1.015 -2.3625,-3.4825 0,-2.975 1.75,-3.7275 3.465,-3.7275 z"
         style="font-size:17.5px"
         id="path4323"
         inkscape:connector-curvature="0" />
      <path
         d="m 275.80768,178.34862 c 0,4.095 2.1525,6.65 5.635,6.65 1.2775,0 2.5725,-0.3675 3.7275,-1.0325 l 0,-1.645 c -1.1725,0.6825 -2.415,1.365 -3.7625,1.365 -0.945,0 -1.8375,-0.35 -2.5025,-1.0675 -1.015,-1.1025 -1.1725,-2.73 -1.1725,-4.27 0,-1.5575 0.1575,-3.185 1.1725,-4.2875 0.665,-0.7175 1.5575,-1.0675 2.6075,-1.0675 1.19,0 2.4325,0.4375 3.6575,0.9275 l 0,-1.4875 c -1.2075,-0.4725 -2.485,-0.7525 -3.6575,-0.7525 -3.5875,0 -5.705,2.59 -5.705,6.6675 z"
         style="font-size:17.5px"
         id="path4325"
         inkscape:connector-curvature="0" />
      <path
         d="m 286.30085,178.34862 c 0,4.095 2.17,6.65 5.6175,6.65 1.2775,0 2.5375,-0.3675 3.745,-0.8575 l 0,-5.495 -3.1325,0 0,1.3125 1.3825,0 0,3.36 c -0.665,0.21 -1.33,0.3675 -1.9775,0.3675 -0.98,0 -1.8725,-0.35 -2.5375,-1.0675 -1.015,-1.1025 -1.1725,-2.73 -1.1725,-4.27 0,-1.5575 0.1575,-3.185 1.1725,-4.2875 0.665,-0.7175 1.5575,-1.0675 2.6075,-1.0675 1.19,0 2.4325,0.4375 3.6575,0.9275 l 0,-1.4875 c -1.2075,-0.4725 -2.485,-0.7525 -3.6575,-0.7525 -3.5875,0 -5.705,2.59 -5.705,6.6675 z"
         style="font-size:17.5px"
         id="path4327"
         inkscape:connector-curvature="0" />
      <path
         d="m 304.31901,178.33112 c 0,1.47 -0.0525,3.01 -0.8575,4.2175 -0.4025,-0.875 -1.1025,-1.9775 -2.2925,-2.2925 l -0.35,1.2775 c 0.7875,0.21 1.26,0.8925 1.68,1.9075 -0.2975,0.1575 -0.63,0.2625 -0.98,0.2625 -0.735,0 -1.3825,-0.4025 -1.82,-0.98 -0.9275,-1.225 -0.98,-2.835 -0.98,-4.375 0,-1.5225 0.0525,-3.1325 0.98,-4.3575 0.4375,-0.5775 1.085,-0.98 1.82,-0.98 0.735,0 1.3825,0.4025 1.82,0.98 0.9275,1.225 0.98,2.8175 0.98,4.34 z m -2.8,-6.6325 c -1.89,0 -4.725,1.33 -4.725,6.65 0,5.3375 2.835,6.6675 4.725,6.6675 0.5075,0 1.015,-0.105 1.505,-0.28 0.49,1.1725 1.505,2.6775 3.1325,2.6775 l 0,-1.3125 c -0.945,0 -1.54,-0.77 -2.065,-1.96 0.8225,-0.6475 2.1525,-2.1875 2.1525,-5.7925 0,-5.32 -2.835,-6.65 -4.725,-6.65 z"
         style="font-size:17.5px"
         id="path4329"
         inkscape:connector-curvature="0" />
      <path
         d="m 320.45784,178.19112 c -1.4,0 -2.5025,1.26 -2.5025,2.8 l 1.6625,0 c 0,-0.7175 0.1925,-1.5575 0.98,-1.5575 1.2075,0 2.2575,1.8725 3.955,1.8725 1.4,0 2.5025,-1.26 2.5025,-2.8 l -1.6625,0 c 0,0.7175 -0.1925,1.5575 -0.98,1.5575 -1.225,0 -2.275,-1.8725 -3.955,-1.8725 z"
         style="font-size:17.5px"
         id="path4331"
         inkscape:connector-curvature="0" />
      <path
         d="m 337.5485,180.37862 0,-1.26 -9.1,0 0,1.26 9.1,0 z"
         style="font-size:17.5px"
         id="path4333"
         inkscape:connector-curvature="0" />
      <path
         d="m 348.04167,180.37862 0,-1.26 -3.8675,0 0,-3.71 -1.365,0 0,3.71 -3.8675,0 0,1.26 3.8675,0 0,3.71 1.365,0 0,-3.71 3.8675,0 z"
         style="font-size:17.5px"
         id="path4335"
         inkscape:connector-curvature="0" />
      <path
         d="m 358.53483,181.62112 0,-1.2425 -9.1,0 0,1.2425 9.1,0 z m 0,-2.5025 0,-1.2425 -9.1,0 0,1.2425 9.1,0 z"
         style="font-size:17.5px"
         id="path4337"
         inkscape:connector-curvature="0" />
      <path
         d="m 369.028,179.46862 -9.1,-4.13 0,1.4 6.51,3.01 -6.51,3.01 0,1.4 9.1,-4.13 0,-0.56 z"
         style="font-size:17.5px"
         id="path4339"
         inkscape:connector-curvature="0" />
    </g>
  </g>
</svg>
