<?xml version="1.0" encoding="UTF-8" standalone="no"?>
<svg
   version="1.1"
   id="svg2"
   viewBox="0 0 376.55775 108.31998"
   height="30.570307mm"
   width="106.27296mm"
   sodipodi:docname="AurulentSansM Nerd Font.svg"
   xmlns:inkscape="http://www.inkscape.org/namespaces/inkscape"
   xmlns:sodipodi="http://sodipodi.sourceforge.net/DTD/sodipodi-0.dtd"
   xmlns="http://www.w3.org/2000/svg"
   xmlns:svg="http://www.w3.org/2000/svg"
   xmlns:rdf="http://www.w3.org/1999/02/22-rdf-syntax-ns#"
   xmlns:cc="http://creativecommons.org/ns#"
   xmlns:dc="http://purl.org/dc/elements/1.1/">
  <sodipodi:namedview
     id="namedview12"
     pagecolor="#ffffff"
     bordercolor="#666666"
     borderopacity="1.0"
     inkscape:showpageshadow="2"
     inkscape:pageopacity="0.0"
     inkscape:pagecheckerboard="0"
     inkscape:deskcolor="#d1d1d1"
     inkscape:document-units="mm" />
  <defs
     id="defs4" />
  <metadata
     id="metadata7">
    <rdf:RDF>
      <cc:Work
         rdf:about="">
        <dc:format>image/svg+xml</dc:format>
        <dc:type
           rdf:resource="http://purl.org/dc/dcmitype/StillImage" />
        <dc:title />
      </cc:Work>
    </rdf:RDF>
  </metadata>
  <g
     id="layer1"
     transform="translate(-63.132143,-79.758632)">
    <g
       aria-label="AurulentSansM Nerd Font"
       id="text4136"
       style="font-size:27.5px;font-family:'AurulentSansM Nerd Font';letter-spacing:0px;word-spacing:0px;fill:#ffffff">
      <path
         d="M 79.082143,100.93363 72.372143,80.996132 H 69.622143 L 63.132143,100.93363 H 65.414643 L 67.202143,95.378632 H 74.462143 L 76.332143,100.93363 Z M 73.747143,93.316132 H 67.889643 L 70.777143,84.461132 Z"
         id="path14" />
      <path
         d="M 84.032155,95.846132 V 86.358632 H 81.419655 V 95.351132 C 81.419655,97.633632 81.337155,101.26363 85.352155,101.26363 87.662155,101.26363 89.642155,100.05363 91.154655,98.266132 V 100.96113 H 93.767155 V 86.386132 H 91.154655 V 96.121132 C 89.999655,97.936132 88.322155,99.338632 86.287155,99.338632 84.032155,99.338632 84.032155,97.468632 84.032155,95.846132 Z"
         id="path16" />
      <path
         d="M 110.29467,88.558632 V 86.138632 C 109.77217,86.028632 108.91967,86.028632 108.58967,86.028632 105.70217,86.028632 103.33717,87.513632 102.04467,89.658632 V 86.358632 H 99.432166 V 100.93363 H 102.04467 V 92.078632 C 102.86967,89.823632 105.48217,88.366132 108.42467,88.366132 108.89217,88.366132 109.60717,88.421132 110.29467,88.558632 Z"
         id="path18" />
      <path
         d="M 117.03218,95.846132 V 86.358632 H 114.41968 V 95.351132 C 114.41968,97.633632 114.33718,101.26363 118.35218,101.26363 120.66218,101.26363 122.64218,100.05363 124.15468,98.266132 V 100.96113 H 126.76718 V 86.386132 H 124.15468 V 96.121132 C 122.99968,97.936132 121.32218,99.338632 119.28718,99.338632 117.03218,99.338632 117.03218,97.468632 117.03218,95.846132 Z"
         id="path20" />
      <path
         d="M 138.56469,98.981132 V 79.758632 H 131.68969 V 81.711132 H 135.95219 V 98.981132 H 130.91969 V 100.93363 H 143.29469 V 98.981132 Z"
         id="path22" />
      <path
         d="M 149.8947,91.996132 C 150.4172,89.191132 152.1222,87.981132 153.9097,87.981132 155.8072,87.981132 157.2372,89.328632 157.5122,91.996132 Z M 154.8447,101.26363 C 156.4122,101.26363 158.1447,101.01613 159.8497,100.54863 V 98.596132 C 158.1447,99.063632 156.4122,99.311132 154.9272,99.311132 151.9847,99.311132 149.7847,98.266132 149.7572,93.948632 H 160.1797 C 160.1797,93.646132 160.2072,93.343632 160.2072,93.041132 160.2072,87.953632 156.9897,86.028632 153.7997,86.028632 150.6647,86.028632 146.8697,87.871132 146.8697,93.536132 146.8697,97.083632 148.4647,101.26363 154.8447,101.26363 Z"
         id="path24" />
      <path
         d="M 173.68221,91.391132 V 100.93363 H 176.29471 V 91.886132 C 176.29471,89.356132 176.32221,86.028632 172.41721,86.028632 170.05221,86.028632 168.04471,87.266132 166.53221,89.053632 V 86.358632 H 163.91971 V 100.93363 H 166.53221 V 91.198632 C 167.68721,89.383632 169.36471,88.008632 171.42721,88.008632 173.68221,88.008632 173.68221,89.823632 173.68221,91.391132 Z"
         id="path26" />
      <path
         d="M 186.66222,96.066132 V 88.311132 H 192.18972 V 86.358632 H 186.66222 V 83.058632 H 184.04972 V 86.358632 H 180.41972 V 88.311132 H 184.04972 V 95.763632 C 184.04972,99.366132 184.21472,101.26363 188.69722,101.26363 189.68722,101.26363 190.92472,101.18113 192.18972,101.04363 V 99.091132 C 191.22722,99.201132 190.12722,99.311132 189.32972,99.311132 186.74472,99.311132 186.66222,98.073632 186.66222,96.066132 Z"
         id="path28" />
      <path
         d="M 210.39473,95.488632 C 210.39473,92.848632 208.79973,90.868632 204.53723,89.466132 L 203.27223,89.081132 C 199.94473,87.981132 198.56973,87.513632 198.56973,85.698632 198.56973,83.306132 200.90723,82.563632 203.05223,82.563632 205.16973,82.563632 207.12223,83.251132 209.01973,84.021132 V 81.683632 C 207.12223,80.941132 205.14223,80.501132 203.27223,80.501132 199.36723,80.501132 195.81973,82.426132 195.81973,86.468632 195.81973,88.888632 197.11223,90.181132 201.75973,91.721132 L 202.99723,92.133632 C 206.10473,93.123632 207.64473,94.196132 207.64473,96.121132 207.64473,98.486132 205.33473,99.366132 202.96973,99.366132 200.54973,99.366132 198.07473,98.458632 195.81973,97.248632 V 99.778632 C 198.04723,100.98863 200.57723,101.42863 202.55723,101.42863 206.87473,101.42863 210.39473,99.366132 210.39473,95.488632 Z"
         id="path30" />
      <path
         d="M 219.90975,86.028632 C 217.87475,86.028632 215.86725,86.386132 213.96975,87.073632 V 89.026132 C 215.78475,88.366132 217.68225,87.981132 219.52475,87.981132 222.98975,87.981132 223.18225,89.438632 223.18225,91.336132 V 92.463632 C 220.18475,92.463632 217.26975,92.546132 215.17975,93.673632 213.88725,94.416132 213.00725,95.516132 213.00725,97.193632 213.00725,99.531132 214.71225,101.26363 217.46225,101.26363 219.60725,101.26363 221.53225,100.16363 223.18225,98.678632 V 100.93363 H 225.79475 V 91.776132 C 225.79475,88.916132 225.73975,86.028632 219.90975,86.028632 Z M 223.18225,97.083632 C 221.77975,98.348632 220.18475,99.311132 218.39725,99.311132 216.74725,99.311132 215.61975,98.486132 215.61975,97.056132 215.61975,96.038632 216.22475,95.296132 217.10475,94.801132 218.64475,94.003632 220.87225,94.003632 223.12725,94.003632 H 223.18225 Z"
         id="path32" />
      <path
         d="M 239.68227,91.391132 V 100.93363 H 242.29477 V 91.886132 C 242.29477,89.356132 242.32227,86.028632 238.41727,86.028632 236.05227,86.028632 234.04477,87.266132 232.53227,89.053632 V 86.358632 H 229.91977 V 100.93363 H 232.53227 V 91.198632 C 233.68727,89.383632 235.36477,88.008632 237.42727,88.008632 239.68227,88.008632 239.68227,89.823632 239.68227,91.391132 Z"
         id="path34" />
      <path
         d="M 258.87727,96.698632 C 258.87727,94.306132 256.78727,93.178632 254.47727,92.408632 L 252.35977,91.721132 C 250.98477,91.281132 249.14227,90.676132 249.14227,89.493632 249.14227,88.311132 251.12227,87.981132 252.82727,87.981132 254.55977,87.981132 256.23727,88.311132 257.91477,88.696132 V 86.633632 C 256.26477,86.276132 254.55977,86.028632 253.15727,86.028632 249.66477,86.028632 246.55727,87.486132 246.55727,90.153632 246.55727,92.436132 248.75727,93.536132 250.90227,94.223632 L 253.01977,94.911132 C 254.53227,95.406132 256.26477,95.983632 256.26477,97.331132 256.26477,98.678632 254.53227,99.311132 252.13977,99.311132 250.70977,99.311132 248.56477,99.091132 246.55727,98.321132 V 100.38363 C 248.56477,101.15363 250.73727,101.26363 251.83727,101.26363 255.98977,101.26363 258.87727,99.531132 258.87727,96.698632 Z"
         id="path36" />
      <path
         d="M 276.39478,100.93363 V 80.996132 H 272.84728 L 269.18978,90.208632 265.28478,80.996132 H 261.81978 V 100.93363 H 264.10228 V 84.708632 L 268.14478,94.196132 H 269.87728 L 273.64478,84.736132 V 100.93363 Z"
         id="path38" />
      <path
         d="M 297.7898,100.93363 V 85.368632 L 305.9573,100.93363 H 308.7073 V 80.996132 H 306.4248 V 96.588632 L 298.2573,80.996132 H 295.5073 V 100.93363 Z"
         id="path40" />
      <path
         d="M 314.89481,91.996132 C 315.41731,89.191132 317.12231,87.981132 318.90981,87.981132 320.80731,87.981132 322.23731,89.328632 322.51231,91.996132 Z M 319.84481,101.26363 C 321.41231,101.26363 323.14481,101.01613 324.84981,100.54863 V 98.596132 C 323.14481,99.063632 321.41231,99.311132 319.92731,99.311132 316.98481,99.311132 314.78481,98.266132 314.75731,93.948632 H 325.17981 C 325.17981,93.646132 325.20731,93.343632 325.20731,93.041132 325.20731,87.953632 321.98981,86.028632 318.79981,86.028632 315.66481,86.028632 311.86981,87.871132 311.86981,93.536132 311.86981,97.083632 313.46481,101.26363 319.84481,101.26363 Z"
         id="path42" />
      <path
         d="M 341.29483,88.558632 V 86.138632 C 340.77233,86.028632 339.91983,86.028632 339.58983,86.028632 336.70233,86.028632 334.33733,87.513632 333.04483,89.658632 V 86.358632 H 330.43233 V 100.93363 H 333.04483 V 92.078632 C 333.86983,89.823632 336.48233,88.366132 339.42483,88.366132 339.89233,88.366132 340.60733,88.421132 341.29483,88.558632 Z"
         id="path44" />
      <path
         d="M 344.86983,94.086132 C 344.86983,99.393632 347.86733,101.26363 350.53483,101.26363 352.45983,101.26363 354.05483,100.27363 355.18233,98.816132 V 100.93363 H 357.79483 V 79.758632 H 355.18233 V 86.166132 C 354.43983,86.083632 353.77983,86.028632 353.25733,86.028632 349.46233,86.028632 344.86983,87.651132 344.86983,94.086132 Z M 353.20233,87.981132 C 353.86233,87.981132 354.52233,88.091132 355.18233,88.228632 V 96.588632 C 354.52233,98.156132 353.17483,99.311132 351.46983,99.311132 349.51733,99.311132 347.75733,97.716132 347.75733,93.838632 347.75733,89.163632 350.50733,87.981132 353.20233,87.981132 Z"
         id="path46" />
      <path
         d="M 391.89486,83.058632 V 80.996132 H 378.00736 V 100.93363 H 380.75736 V 91.281132 H 389.77736 V 89.218632 H 380.75736 V 83.058632 Z"
         id="path48" />
      <path
         d="M 404.95739,93.646132 C 404.95739,95.296132 404.81989,97.056132 403.69239,98.266132 403.00489,98.953632 402.06989,99.311132 401.10739,99.311132 400.14489,99.311132 399.20989,98.953632 398.52239,98.266132 397.39489,97.056132 397.25739,95.296132 397.25739,93.646132 397.25739,91.996132 397.39489,90.236132 398.52239,89.026132 399.20989,88.338632 400.14489,87.981132 401.10739,87.981132 402.06989,87.981132 403.00489,88.338632 403.69239,89.026132 404.81989,90.236132 404.95739,91.996132 404.95739,93.646132 Z M 401.10739,86.028632 C 397.03739,86.028632 394.36989,89.053632 394.36989,93.646132 394.36989,98.266132 397.06489,101.26363 401.10739,101.26363 405.14989,101.26363 407.84489,98.266132 407.84489,93.646132 407.84489,89.026132 405.12239,86.028632 401.10739,86.028632 Z"
         id="path50" />
      <path
         d="M 421.18239,91.391132 V 100.93363 H 423.79489 V 91.886132 C 423.79489,89.356132 423.82239,86.028632 419.91739,86.028632 417.55239,86.028632 415.54489,87.266132 414.03239,89.053632 V 86.358632 H 411.41989 V 100.93363 H 414.03239 V 91.198632 C 415.18739,89.383632 416.86489,88.008632 418.92739,88.008632 421.18239,88.008632 421.18239,89.823632 421.18239,91.391132 Z"
         id="path52" />
      <path
         d="M 434.16239,96.066132 V 88.311132 H 439.68989 V 86.358632 H 434.16239 V 83.058632 H 431.54989 V 86.358632 H 427.91989 V 88.311132 H 431.54989 V 95.763632 C 431.54989,99.366132 431.71489,101.26363 436.19739,101.26363 437.18739,101.26363 438.42489,101.18113 439.68989,101.04363 V 99.091132 C 438.72739,99.201132 437.62739,99.311132 436.82989,99.311132 434.24489,99.311132 434.16239,98.073632 434.16239,96.066132 Z"
         id="path54" />
    </g>
    <g
       aria-label="abcdefghijklmnopqrstuvwxyzABCDEFGHIJKLMNOPQRSTUVWXYZ oO08 iIlL1 {} [] g9qCGQ ~-+=&gt;"
       id="text4140"
       style="font-size:17.5px;font-family:'AurulentSansM Nerd Font';letter-spacing:0px;word-spacing:0px;fill:#ffffff">
      <path
         d="M 70.861903,131.44862 C 69.566903,131.44862 68.289403,131.67612 67.081903,132.11362 V 133.35612 C 68.236903,132.93612 69.444403,132.69112 70.616903,132.69112 72.821903,132.69112 72.944403,133.61862 72.944403,134.82612 V 135.54362 C 71.036903,135.54362 69.181903,135.59612 67.851903,136.31362 67.029403,136.78612 66.469403,137.48612 66.469403,138.55362 66.469403,140.04112 67.554403,141.14362 69.304403,141.14362 70.669403,141.14362 71.894403,140.44362 72.944403,139.49862 V 140.93362 H 74.606903 V 135.10612 C 74.606903,133.28612 74.571903,131.44862 70.861903,131.44862 Z M 72.944403,138.48362 C 72.051903,139.28862 71.036903,139.90112 69.899403,139.90112 68.849403,139.90112 68.131903,139.37612 68.131903,138.46612 68.131903,137.81862 68.516903,137.34612 69.076903,137.03112 70.056903,136.52362 71.474403,136.52362 72.909403,136.52362 H 72.944403 Z"
         id="path57" />
      <path
         d="M 85.45691,135.63112 C 85.45691,132.23612 83.67191,131.44862 82.20191,131.44862 80.78441,131.44862 79.66441,132.16612 78.89441,133.19862 V 127.45862 H 77.23191 V 140.61862 C 78.22941,141.03862 79.31441,141.14362 80.13691,141.14362 84.38941,141.14362 85.45691,138.11612 85.45691,135.63112 Z M 80.20691,139.90112 C 79.75191,139.90112 79.31441,139.84862 78.89441,139.76112 V 134.47612 C 79.41941,133.44362 80.39941,132.70862 81.53691,132.70862 82.65691,132.70862 83.60191,133.42612 83.60191,135.89362 83.60191,139.44612 81.50191,139.90112 80.20691,139.90112 Z"
         id="path59" />
      <path
         d="M 89.131916,136.29612 C 89.131916,134.49362 89.814416,132.69112 92.614416,132.69112 93.611916,132.69112 94.749416,132.90112 95.869416,133.14612 V 131.85112 C 94.749416,131.60612 93.611916,131.44862 92.614416,131.44862 88.484416,131.44862 87.469416,134.19612 87.469416,136.29612 87.469416,138.95612 88.974416,141.14362 92.579416,141.14362 93.611916,141.14362 94.749416,140.95112 95.869416,140.67112 V 139.35862 C 94.749416,139.63862 93.611916,139.90112 92.579416,139.90112 89.814416,139.90112 89.131916,138.06362 89.131916,136.29612 Z"
         id="path61" />
      <path
         d="M 97.881922,136.57612 C 97.881922,139.95362 99.789422,141.14362 101.48692,141.14362 102.71192,141.14362 103.72692,140.51362 104.44442,139.58612 V 140.93362 H 106.10692 V 127.45862 H 104.44442 V 131.53612 C 103.97192,131.48362 103.55192,131.44862 103.21942,131.44862 100.80442,131.44862 97.881922,132.48112 97.881922,136.57612 Z M 103.18442,132.69112 C 103.60442,132.69112 104.02442,132.76112 104.44442,132.84862 V 138.16862 C 104.02442,139.16612 103.16692,139.90112 102.08192,139.90112 100.83942,139.90112 99.719422,138.88612 99.719422,136.41862 99.719422,133.44362 101.46942,132.69112 103.18442,132.69112 Z"
         id="path63" />
      <path
         d="M 110.30693,135.24612 C 110.63943,133.46112 111.72443,132.69112 112.86193,132.69112 114.06943,132.69112 114.97943,133.54862 115.15443,135.24612 Z M 113.45693,141.14362 C 114.45443,141.14362 115.55693,140.98612 116.64193,140.68862 V 139.44612 C 115.55693,139.74362 114.45443,139.90112 113.50943,139.90112 111.63693,139.90112 110.23693,139.23612 110.21943,136.48862 H 116.85193 C 116.85193,136.29612 116.86943,136.10362 116.86943,135.91112 116.86943,132.67362 114.82193,131.44862 112.79193,131.44862 110.79693,131.44862 108.38193,132.62112 108.38193,136.22612 108.38193,138.48362 109.39693,141.14362 113.45693,141.14362 Z"
         id="path65" />
      <path
         d="M 121.54194,131.65862 H 119.23194 V 132.90112 H 121.54194 V 140.93362 H 123.20444 V 132.90112 H 126.12694 V 131.65862 H 123.20444 C 123.22194,129.83862 123.48444,128.49112 125.82944,128.49112 126.56444,128.49112 127.17694,128.63112 127.77194,128.77112 V 127.51112 C 127.10694,127.35362 126.45944,127.24862 125.58444,127.24862 122.20694,127.24862 121.57694,128.84112 121.54194,131.65862 Z"
         id="path67" />
      <path
         d="M 133.66944,136.89112 C 131.84944,136.89112 131.48194,135.92862 131.48194,134.79112 131.48194,133.77612 131.79694,132.69112 133.66944,132.69112 135.43694,132.69112 135.85694,133.67112 135.85694,134.79112 135.85694,135.82362 135.55944,136.89112 133.66944,136.89112 Z M 129.64444,134.79112 C 129.64444,135.92862 130.23944,136.99612 131.23694,137.57362 130.79944,137.92362 130.53694,138.43112 130.53694,138.99112 130.53694,139.65612 131.04444,140.40862 131.95444,140.67112 132.26944,140.77612 132.91694,140.89862 133.38944,140.98612 L 135.01694,141.30112 C 136.13694,141.52862 136.60944,141.70362 136.60944,142.28112 136.60944,143.05112 135.47194,143.08612 134.68444,143.08612 132.84694,143.08612 131.27194,142.89362 129.73194,142.49112 V 143.92612 C 130.50194,144.11862 131.74444,144.32862 133.75694,144.32862 136.36444,144.32862 138.27194,143.75112 138.27194,142.14112 138.27194,140.42612 136.25944,140.14612 135.48944,139.98862 L 133.86194,139.67362 C 132.54944,139.44612 131.88444,139.27112 131.88444,138.67612 131.88444,138.41362 132.02444,138.16862 132.25194,137.99362 132.70694,138.11612 133.17944,138.16862 133.66944,138.16862 136.71444,138.16862 137.69444,136.17362 137.69444,134.80862 137.69444,133.88112 137.29194,133.00612 136.60944,132.41112 137.04694,132.18362 137.57194,132.09612 138.11444,132.09612 V 130.83612 C 137.22194,130.83612 136.41694,131.25612 135.80444,131.88612 135.15694,131.58862 134.40444,131.46612 133.66944,131.46612 130.65944,131.46612 129.64444,133.39112 129.64444,134.79112 Z"
         id="path69" />
      <path
         d="M 146.44445,134.86112 V 140.93362 H 148.10695 V 135.17612 C 148.10695,133.56612 148.12445,131.44862 145.63945,131.44862 144.13445,131.44862 142.85695,132.23612 141.89445,133.37362 V 127.45862 H 140.23195 V 140.93362 H 141.89445 V 134.73862 C 142.62945,133.58362 143.69695,132.70862 145.00945,132.70862 146.44445,132.70862 146.44445,133.86362 146.44445,134.86112 Z"
         id="path71" />
      <path
         d="M 155.59696,129.90862 V 128.24612 H 153.93446 V 129.90862 Z M 155.59696,139.69112 V 131.65862 H 151.22196 V 132.90112 H 153.93446 V 139.69112 H 150.73196 V 140.93362 H 158.60696 V 139.69112 Z"
         id="path73" />
      <path
         d="M 167.56696,129.90862 V 128.24612 H 165.90446 V 129.90862 Z M 167.56696,140.02362 V 131.65862 H 162.87696 V 132.90112 H 165.90446 V 140.33862 C 165.90446,141.21362 165.90446,142.08862 165.13446,142.68362 164.55696,143.10362 163.73446,143.27862 162.98196,143.27862 162.26446,143.27862 161.73946,143.13862 161.23196,142.98112 V 144.20612 C 161.79196,144.36362 162.36946,144.52112 163.22696,144.52112 164.34696,144.52112 165.57196,144.25862 166.41196,143.59362 167.56696,142.70112 167.56696,141.35362 167.56696,140.02362 Z"
         id="path75" />
      <path
         d="M 180.35947,140.93362 175.19697,135.80612 179.74697,131.65862 H 177.80447 L 173.39447,135.68362 V 127.45862 H 171.73197 V 140.93362 H 173.39447 V 137.45112 L 174.12947,136.76862 178.48697,140.93362 Z"
         id="path77" />
      <path
         d="M 187.09698,139.69112 V 127.45862 H 182.72198 V 128.70112 H 185.43448 V 139.69112 H 182.23198 V 140.93362 H 190.10698 V 139.69112 Z"
         id="path79" />
      <path
         d="M 195.84698,134.84362 V 140.93362 H 197.49198 V 135.19362 C 197.49198,134.49362 197.47448,133.77612 197.36948,133.14612 197.54448,132.86612 197.82448,132.69112 198.19198,132.69112 198.85698,132.69112 198.94448,133.28612 198.94448,134.84362 V 140.93362 H 200.60698 V 135.19362 C 200.60698,133.82862 200.65948,131.44862 198.71698,131.44862 198.05198,131.44862 197.45698,131.72862 197.00198,132.18362 196.63448,131.60612 196.10948,131.44862 195.61948,131.44862 195.16448,131.44862 194.74448,131.58862 194.39448,131.79862 V 131.65862 H 192.73198 V 140.93362 H 194.39448 V 132.98862 C 194.56948,132.81362 194.79698,132.69112 195.09448,132.69112 195.68948,132.69112 195.84698,133.19862 195.84698,134.84362 Z"
         id="path81" />
      <path
         d="M 209.44449,134.86112 V 140.93362 H 211.10699 V 135.17612 C 211.10699,133.56612 211.12449,131.44862 208.63949,131.44862 207.13449,131.44862 205.85699,132.23612 204.89449,133.37362 V 131.65862 H 203.23199 V 140.93362 H 204.89449 V 134.73862 C 205.62949,133.58362 206.69699,132.70862 208.00949,132.70862 209.44449,132.70862 209.44449,133.86362 209.44449,134.86112 Z"
         id="path83" />
      <path
         d="M 220.11949,136.29612 C 220.11949,137.34612 220.03199,138.46612 219.31449,139.23612 218.87699,139.67362 218.28199,139.90112 217.66949,139.90112 217.05699,139.90112 216.46199,139.67362 216.02449,139.23612 215.30699,138.46612 215.21949,137.34612 215.21949,136.29612 215.21949,135.24612 215.30699,134.12612 216.02449,133.35612 216.46199,132.91862 217.05699,132.69112 217.66949,132.69112 218.28199,132.69112 218.87699,132.91862 219.31449,133.35612 220.03199,134.12612 220.11949,135.24612 220.11949,136.29612 Z M 217.66949,131.44862 C 215.07949,131.44862 213.38199,133.37362 213.38199,136.29612 213.38199,139.23612 215.09699,141.14362 217.66949,141.14362 220.24199,141.14362 221.95699,139.23612 221.95699,136.29612 221.95699,133.35612 220.22449,131.44862 217.66949,131.44862 Z"
         id="path85" />
      <path
         d="M 232.45701,135.63112 C 232.45701,132.23612 230.67201,131.44862 229.20201,131.44862 227.78451,131.44862 226.66451,132.16612 225.89451,133.19862 V 131.65862 H 224.23201 V 144.31112 H 225.89451 V 141.07362 C 226.33201,141.12612 226.75201,141.14362 227.13701,141.14362 231.38951,141.14362 232.45701,138.11612 232.45701,135.63112 Z M 227.20701,139.90112 C 226.75201,139.90112 226.31451,139.84862 225.89451,139.76112 V 134.47612 C 226.41951,133.44362 227.39951,132.70862 228.53701,132.70862 229.65701,132.70862 230.60201,133.42612 230.60201,135.89362 230.60201,139.44612 228.50201,139.90112 227.20701,139.90112 Z"
         id="path87" />
      <path
         d="M 234.38201,136.57612 C 234.38201,139.95362 236.28951,141.14362 237.98701,141.14362 239.21201,141.14362 240.22701,140.51362 240.94451,139.58612 V 144.31112 H 242.60701 V 131.97362 C 241.59201,131.53612 240.47201,131.44862 239.71951,131.44862 237.30451,131.44862 234.38201,132.48112 234.38201,136.57612 Z M 239.68451,132.69112 C 240.10451,132.69112 240.52451,132.76112 240.94451,132.84862 V 138.16862 C 240.52451,139.16612 239.66701,139.90112 238.58201,139.90112 237.33951,139.90112 236.21951,138.88612 236.21951,136.41862 236.21951,133.44362 237.96951,132.69112 239.68451,132.69112 Z"
         id="path89" />
      <path
         d="M 253.10701,133.05862 V 131.51862 C 252.77451,131.44862 252.23201,131.44862 252.02201,131.44862 250.18451,131.44862 248.67951,132.39362 247.85701,133.75862 V 131.65862 H 246.19451 V 140.93362 H 247.85701 V 135.29862 C 248.38201,133.86362 250.04451,132.93612 251.91701,132.93612 252.21451,132.93612 252.66951,132.97112 253.10701,133.05862 Z"
         id="path91" />
      <path
         d="M 263.65953,138.23862 C 263.65953,136.71612 262.32953,135.99862 260.85953,135.50862 L 259.51203,135.07112 C 258.63703,134.79112 257.46453,134.40612 257.46453,133.65362 257.46453,132.90112 258.72453,132.69112 259.80953,132.69112 260.91203,132.69112 261.97953,132.90112 263.04703,133.14612 V 131.83362 C 261.99703,131.60612 260.91203,131.44862 260.01953,131.44862 257.79703,131.44862 255.81953,132.37612 255.81953,134.07362 255.81953,135.52612 257.21953,136.22612 258.58453,136.66362 L 259.93203,137.10112 C 260.89453,137.41612 261.99703,137.78362 261.99703,138.64112 261.99703,139.49862 260.89453,139.90112 259.37203,139.90112 258.46203,139.90112 257.09703,139.76112 255.81953,139.27112 V 140.58362 C 257.09703,141.07362 258.47953,141.14362 259.17953,141.14362 261.82203,141.14362 263.65953,140.04112 263.65953,138.23862 Z"
         id="path93" />
      <path
         d="M 270.20453,137.83612 V 132.90112 H 273.72203 V 131.65862 H 270.20453 V 129.55862 H 268.54203 V 131.65862 H 266.23203 V 132.90112 H 268.54203 V 137.64362 C 268.54203,139.93612 268.64703,141.14362 271.49953,141.14362 272.12953,141.14362 272.91703,141.09112 273.72203,141.00362 V 139.76112 C 273.10953,139.83112 272.40953,139.90112 271.90203,139.90112 270.25703,139.90112 270.20453,139.11362 270.20453,137.83612 Z"
         id="path95" />
      <path
         d="M 278.39454,137.69612 V 131.65862 H 276.73204 V 137.38112 C 276.73204,138.83362 276.67954,141.14362 279.23454,141.14362 280.70454,141.14362 281.96454,140.37362 282.92704,139.23612 V 140.95112 H 284.58954 V 131.67612 H 282.92704 V 137.87112 C 282.19204,139.02612 281.12454,139.91862 279.82954,139.91862 278.39454,139.91862 278.39454,138.72862 278.39454,137.69612 Z"
         id="path97" />
      <path
         d="M 291.36204,139.13112 288.47454,131.65862 H 286.81204 L 290.41704,140.93362 H 292.07954 L 295.52704,131.65862 H 294.14454 Z"
         id="path99" />
      <path
         d="M 306.74456,131.65862 H 305.36206 L 304.11956,138.71112 302.31706,133.68862 H 301.37206 L 299.44706,138.71112 298.08206,131.65862 H 296.59456 L 298.39706,140.93362 H 299.97206 L 301.75706,136.29612 303.45456,140.93362 H 305.11706 Z"
         id="path101" />
      <path
         d="M 316.52706,140.93362 313.09706,136.40112 316.59706,131.65862 H 314.93456 L 312.25706,135.28112 309.54456,131.65862 H 307.88206 L 311.22456,136.12112 307.67206,140.93362 H 309.33456 L 312.06456,137.24112 314.86456,140.93362 Z"
         id="path103" />
      <path
         d="M 327.02706,131.65862 H 325.64456 L 322.87956,139.07862 319.97456,131.65862 H 318.31206 L 322.02206,141.37112 320.93706,144.31112 H 322.31956 Z"
         id="path105" />
      <path
         d="M 337.36956,140.93362 V 139.69112 H 330.94706 L 337.36956,132.95362 V 131.65862 H 329.21456 V 132.90112 H 335.37456 L 328.96956,139.63862 V 140.93362 Z"
         id="path107" />
      <path
         d="M 75.744403,162.80862 71.474403,150.12112 H 69.724403 L 65.594403,162.80862 H 67.046903 L 68.184403,159.27362 H 72.804403 L 73.994403,162.80862 Z M 72.349403,157.96112 H 68.621903 L 70.459403,152.32612 Z"
         id="path109" />
      <path
         d="M 82.48191,156.14112 C 84.00441,155.80862 85.36941,154.88112 85.36941,153.30612 85.36941,152.51862 85.01941,151.62612 84.17941,150.97862 83.05941,150.13862 81.58941,150.13862 80.10191,150.13862 H 76.96941 V 162.82612 H 80.18941 C 81.83441,162.82612 83.46191,162.82612 84.63441,161.95112 85.40441,161.39112 85.80691,160.55112 85.80691,159.60612 85.80691,157.69862 84.24941,156.52612 82.48191,156.14112 Z M 78.70191,156.80612 H 79.78691 C 80.97691,156.80612 82.16691,156.80612 83.11191,157.61112 83.67191,158.10112 84.03941,158.78362 84.03941,159.53612 84.03941,160.16612 83.79441,160.65612 83.32191,161.00612 82.62191,161.51362 81.64191,161.51362 80.64441,161.51362 H 78.70191 Z M 78.70191,155.49362 V 151.45112 H 80.52191 C 81.39691,151.45112 82.27191,151.45112 82.90191,151.94112 83.40941,152.32612 83.60191,152.85112 83.60191,153.32362 83.60191,153.93612 83.28691,154.46112 82.81441,154.84612 81.99191,155.47612 80.95941,155.49362 79.90941,155.49362 Z"
         id="path111" />
      <path
         d="M 86.944416,156.47362 C 86.944416,160.56862 89.096916,163.12362 92.579416,163.12362 93.856916,163.12362 95.151916,162.75612 96.306916,162.09112 V 160.44612 C 95.134416,161.12862 93.891916,161.81112 92.544416,161.81112 91.599416,161.81112 90.706916,161.46112 90.041916,160.74362 89.026916,159.64112 88.869416,158.01362 88.869416,156.47362 88.869416,154.91612 89.026916,153.28862 90.041916,152.18612 90.706916,151.46862 91.599416,151.11862 92.649416,151.11862 93.839416,151.11862 95.081916,151.55612 96.306916,152.04612 V 150.55862 C 95.099416,150.08612 93.821916,149.80612 92.649416,149.80612 89.061916,149.80612 86.944416,152.39612 86.944416,156.47362 Z"
         id="path113" />
      <path
         d="M 105.05692,156.42112 C 105.05692,157.82112 104.70692,159.13362 104.07692,160.07862 103.11442,161.49612 101.92442,161.49612 100.73442,161.49612 H 99.719422 V 151.43362 H 101.20692 C 102.27442,151.43362 103.32442,151.45112 104.18192,152.83362 104.74192,153.79612 105.05692,155.10862 105.05692,156.42112 Z M 106.80692,156.43862 C 106.80692,154.72362 106.24692,153.16612 105.38942,151.99362 103.97192,150.13862 102.27442,150.12112 100.55942,150.12112 H 97.969422 V 162.80862 H 100.10442 C 101.94192,162.80862 103.79692,162.80862 105.30192,160.95362 106.22942,159.79862 106.80692,158.20612 106.80692,156.43862 Z"
         id="path115" />
      <path
         d="M 117.49943,162.80862 V 161.49612 H 110.21943 V 156.66612 H 115.95943 V 155.35362 H 110.21943 V 151.43362 H 117.30693 V 150.12112 H 108.46943 V 162.80862 Z"
         id="path117" />
      <path
         d="M 127.80694,151.43362 V 150.12112 H 118.96944 V 162.80862 H 120.71944 V 156.66612 H 126.45944 V 155.35362 H 120.71944 V 151.43362 Z"
         id="path119" />
      <path
         d="M 128.94444,156.47362 C 128.94444,160.56862 131.11444,163.12362 134.56194,163.12362 135.83944,163.12362 137.09944,162.75612 138.30694,162.26612 V 156.77112 H 135.17444 V 158.08362 H 136.55694 V 161.44362 C 135.89194,161.65362 135.22694,161.81112 134.57944,161.81112 133.59944,161.81112 132.70694,161.46112 132.04194,160.74362 131.02694,159.64112 130.86944,158.01362 130.86944,156.47362 130.86944,154.91612 131.02694,153.28862 132.04194,152.18612 132.70694,151.46862 133.59944,151.11862 134.64944,151.11862 135.83944,151.11862 137.08194,151.55612 138.30694,152.04612 V 150.55862 C 137.09944,150.08612 135.82194,149.80612 134.64944,149.80612 131.06194,149.80612 128.94444,152.39612 128.94444,156.47362 Z"
         id="path121" />
      <path
         d="M 148.36945,162.80862 V 150.12112 H 146.61945 V 155.80862 H 141.71945 V 150.12112 H 139.96945 V 162.80862 H 141.71945 V 157.12112 H 146.61945 V 162.80862 Z"
         id="path123" />
      <path
         d="M 155.54446,161.49612 V 151.43362 H 158.37946 V 150.12112 H 150.95946 V 151.43362 H 153.79446 V 161.49612 H 150.95946 V 162.80862 H 158.37946 V 161.49612 Z"
         id="path125" />
      <path
         d="M 167.47946,158.08362 V 151.43362 H 169.80696 V 150.12112 H 162.35196 V 151.43362 H 165.72946 V 158.43362 C 165.72946,159.43112 165.72946,160.44612 164.99446,161.12862 164.52196,161.56612 163.82196,161.81112 163.01696,161.81112 162.12446,161.81112 161.28446,161.51362 160.53196,161.25112 V 162.70362 C 161.33696,162.98362 162.19446,163.12362 163.10446,163.12362 164.55696,163.12362 165.62446,162.75612 166.35946,162.10862 167.47946,161.09362 167.47946,159.58862 167.47946,158.08362 Z"
         id="path127" />
      <path
         d="M 180.60447,162.80862 174.84697,156.10612 180.37697,150.12112 H 178.48697 L 173.21947,155.80862 V 150.12112 H 171.46947 V 162.80862 H 173.21947 V 157.85612 L 173.91947,157.08612 178.85447,162.80862 Z"
         id="path129" />
      <path
         d="M 191.24448,162.80862 V 161.49612 H 183.71948 V 150.12112 H 181.96948 V 162.80862 Z"
         id="path131" />
      <path
         d="M 201.30698,162.80862 V 150.12112 H 199.04948 L 196.72198,155.98362 194.23698,150.12112 H 192.03198 V 162.80862 H 193.48448 V 152.48362 L 196.05698,158.52112 H 197.15948 L 199.55698,152.50112 V 162.80862 Z"
         id="path133" />
      <path
         d="M 204.42199,162.80862 V 152.90362 L 209.61949,162.80862 H 211.36949 V 150.12112 H 209.91699 V 160.04362 L 204.71949,150.12112 H 202.96949 V 162.80862 Z"
         id="path135" />
      <path
         d="M 220.46949,156.45612 C 220.46949,157.99612 220.41699,159.60612 219.48949,160.83112 219.05199,161.40862 218.40449,161.81112 217.66949,161.81112 216.93449,161.81112 216.28699,161.40862 215.84949,160.83112 214.92199,159.60612 214.86949,157.99612 214.86949,156.45612 214.86949,154.93362 214.92199,153.32362 215.84949,152.09862 216.28699,151.52112 216.93449,151.11862 217.66949,151.11862 218.40449,151.11862 219.05199,151.52112 219.48949,152.09862 220.41699,153.32362 220.46949,154.93362 220.46949,156.45612 Z M 217.66949,149.80612 C 215.77949,149.80612 212.94449,151.13612 212.94449,156.45612 212.94449,161.81112 215.77949,163.12362 217.66949,163.12362 219.55949,163.12362 222.39449,161.81112 222.39449,156.45612 222.39449,151.13612 219.55949,149.80612 217.66949,149.80612 Z"
         id="path137" />
      <path
         d="M 232.96451,153.72612 C 232.96451,152.74612 232.59701,151.76612 231.75701,151.06612 230.56701,150.13862 228.95701,150.12112 227.31201,150.12112 H 223.96951 V 162.80862 H 225.71951 V 157.75112 H 227.32951 C 228.90451,157.75112 230.47951,157.75112 231.68701,156.68362 232.59701,155.87862 232.96451,154.74112 232.96451,153.72612 Z M 225.71951,156.43862 V 151.43362 H 227.76701 C 228.76451,151.43362 229.76201,151.43362 230.47951,152.02862 231.00451,152.48362 231.21451,153.11362 231.21451,153.76112 231.21451,154.39112 231.00451,155.17862 230.44451,155.72112 229.72701,156.43862 228.74701,156.43862 227.76701,156.43862 Z"
         id="path139" />
      <path
         d="M 241.46951,156.45612 C 241.46951,157.92612 241.41701,159.46612 240.61201,160.67362 240.20951,159.79862 239.50951,158.69612 238.31951,158.38112 L 237.96951,159.65862 C 238.75701,159.86862 239.22951,160.55112 239.64951,161.56612 239.35201,161.72362 239.01951,161.82862 238.66951,161.82862 237.93451,161.82862 237.28701,161.42612 236.84951,160.84862 235.92201,159.62362 235.86951,158.01362 235.86951,156.47362 235.86951,154.95112 235.92201,153.34112 236.84951,152.11612 237.28701,151.53862 237.93451,151.13612 238.66951,151.13612 239.40451,151.13612 240.05201,151.53862 240.48951,152.11612 241.41701,153.34112 241.46951,154.93362 241.46951,156.45612 Z M 238.66951,149.82362 C 236.77951,149.82362 233.94451,151.15362 233.94451,156.47362 233.94451,161.81112 236.77951,163.14112 238.66951,163.14112 239.17701,163.14112 239.68451,163.03612 240.17451,162.86112 240.66451,164.03362 241.67951,165.53862 243.30701,165.53862 V 164.22612 C 242.36201,164.22612 241.76701,163.45612 241.24201,162.26612 242.06451,161.61862 243.39451,160.07862 243.39451,156.47362 243.39451,151.15362 240.55951,149.82362 238.66951,149.82362 Z"
         id="path141" />
      <path
         d="M 253.36951,153.83112 C 253.36951,152.81612 253.03701,151.80112 252.19701,151.08362 251.05951,150.12112 249.46701,150.12112 247.89201,150.12112 H 244.96951 V 162.80862 H 246.71951 V 157.75112 H 247.47201 C 247.75201,157.75112 248.03201,157.75112 248.31201,157.75112 L 252.35451,162.80862 H 254.38451 L 250.23701,157.57612 C 253.21201,156.98112 253.36951,154.54862 253.36951,153.83112 Z M 246.71951,156.43862 V 151.43362 H 248.32951 C 249.29201,151.43362 250.25451,151.43362 250.91951,152.04612 251.42701,152.51862 251.61951,153.20112 251.61951,153.83112 251.61951,154.53112 251.39201,155.24862 250.83201,155.75612 250.04451,156.43862 248.99451,156.43862 247.92701,156.43862 Z"
         id="path143" />
      <path
         d="M 264.30703,159.34362 C 264.30703,157.66362 263.29203,156.40362 260.57953,155.51112 L 259.77453,155.26612 C 257.65703,154.56612 256.78203,154.26862 256.78203,153.11362 256.78203,151.59112 258.26953,151.11862 259.63453,151.11862 260.98203,151.11862 262.22453,151.55612 263.43203,152.04612 V 150.55862 C 262.22453,150.08612 260.96453,149.80612 259.77453,149.80612 257.28953,149.80612 255.03203,151.03112 255.03203,153.60362 255.03203,155.14362 255.85453,155.96612 258.81203,156.94612 L 259.59953,157.20862 C 261.57703,157.83862 262.55703,158.52112 262.55703,159.74612 262.55703,161.25112 261.08703,161.81112 259.58203,161.81112 258.04203,161.81112 256.46703,161.23362 255.03203,160.46362 V 162.07362 C 256.44953,162.84362 258.05953,163.12362 259.31953,163.12362 262.06703,163.12362 264.30703,161.81112 264.30703,159.34362 Z"
         id="path145" />
      <path
         d="M 275.24453,151.43362 V 150.12112 H 265.09453 V 151.43362 H 269.29453 V 162.80862 H 271.04453 V 151.43362 Z"
         id="path147" />
      <path
         d="M 284.86954,157.94362 V 150.12112 H 283.11954 V 158.27612 C 283.11954,159.29112 283.11954,160.32362 282.48954,161.05862 282.01704,161.58362 281.36954,161.81112 280.66954,161.81112 279.96954,161.81112 279.32204,161.58362 278.86704,161.05862 278.21954,160.32362 278.21954,159.29112 278.21954,158.27612 V 150.12112 H 276.46954 V 157.94362 C 276.46954,159.46612 276.46954,160.97112 277.55454,162.03862 278.37704,162.84362 279.53204,163.12362 280.66954,163.12362 281.80704,163.12362 282.96204,162.84362 283.78454,162.03862 284.86954,160.97112 284.86954,159.46612 284.86954,157.94362 Z"
         id="path149" />
      <path
         d="M 291.36204,160.62112 287.84454,150.12112 H 286.09454 L 290.36454,162.80862 H 292.11454 L 296.24454,150.12112 H 294.79204 Z"
         id="path151" />
      <path
         d="M 306.74456,150.12112 H 305.29206 L 304.39956,159.92112 302.31706,154.40862 H 301.12706 L 299.32456,159.93862 298.34456,150.12112 H 296.59456 L 297.87206,162.80862 H 299.84956 L 301.63456,157.26112 303.76956,162.80862 H 305.60706 Z"
         id="path153" />
      <path
         d="M 317.01706,162.80862 313.06206,156.29862 316.96456,150.12112 H 315.28456 L 312.25706,154.95112 309.31706,150.12112 H 307.39206 L 311.27706,156.50862 307.30456,162.80862 H 308.96706 L 312.08206,157.85612 315.09206,162.80862 Z"
         id="path155" />
      <path
         d="M 323.61456,162.80862 V 157.73362 L 327.42956,150.12112 H 325.97706 L 322.86206,156.31612 319.65956,150.12112 H 317.90956 L 321.86456,157.73362 V 162.80862 Z"
         id="path157" />
      <path
         d="M 337.80706,162.80862 V 161.49612 H 330.29956 L 337.80706,151.74862 V 150.12112 H 328.81206 V 151.43362 H 336.02206 L 328.53206,161.18112 V 162.80862 Z"
         id="path159" />
      <path
         d="M 73.119403,180.04612 C 73.119403,181.09612 73.031903,182.21612 72.314403,182.98612 71.876903,183.42362 71.281903,183.65112 70.669403,183.65112 70.056903,183.65112 69.461903,183.42362 69.024403,182.98612 68.306903,182.21612 68.219403,181.09612 68.219403,180.04612 68.219403,178.99612 68.306903,177.87612 69.024403,177.10612 69.461903,176.66862 70.056903,176.44112 70.669403,176.44112 71.281903,176.44112 71.876903,176.66862 72.314403,177.10612 73.031903,177.87612 73.119403,178.99612 73.119403,180.04612 Z M 70.669403,175.19862 C 68.079403,175.19862 66.381903,177.12362 66.381903,180.04612 66.381903,182.98612 68.096903,184.89362 70.669403,184.89362 73.241903,184.89362 74.956903,182.98612 74.956903,180.04612 74.956903,177.10612 73.224403,175.19862 70.669403,175.19862 Z"
         id="path161" />
      <path
         d="M 83.96941,178.33112 C 83.96941,179.87112 83.91691,181.48112 82.98941,182.70612 82.55191,183.28362 81.90441,183.68612 81.16941,183.68612 80.43441,183.68612 79.78691,183.28362 79.34941,182.70612 78.42191,181.48112 78.36941,179.87112 78.36941,178.33112 78.36941,176.80862 78.42191,175.19862 79.34941,173.97362 79.78691,173.39612 80.43441,172.99362 81.16941,172.99362 81.90441,172.99362 82.55191,173.39612 82.98941,173.97362 83.91691,175.19862 83.96941,176.80862 83.96941,178.33112 Z M 81.16941,171.68112 C 79.27941,171.68112 76.44441,173.01112 76.44441,178.33112 76.44441,183.68612 79.27941,184.99862 81.16941,184.99862 83.05941,184.99862 85.89441,183.68612 85.89441,178.33112 85.89441,173.01112 83.05941,171.68112 81.16941,171.68112 Z"
         id="path163" />
      <path
         d="M 94.469416,178.33112 C 94.469416,179.88862 94.416916,181.49862 93.506916,182.75862 93.069416,183.33612 92.404416,183.75612 91.669416,183.75612 90.934416,183.75612 90.269416,183.33612 89.831916,182.75862 88.921916,181.49862 88.869416,179.88862 88.869416,178.33112 88.869416,176.79112 88.921916,175.18112 89.831916,173.92112 90.269416,173.34362 90.934416,172.92362 91.669416,172.92362 92.404416,172.92362 93.069416,173.34362 93.506916,173.92112 94.416916,175.18112 94.469416,176.79112 94.469416,178.33112 Z M 91.669416,171.68112 C 89.814416,171.68112 87.031916,172.99362 87.031916,178.33112 87.031916,183.70362 89.814416,184.99862 91.669416,184.99862 93.524416,184.99862 96.306916,183.70362 96.306916,178.33112 96.306916,172.99362 93.524416,171.68112 91.669416,171.68112 Z"
         id="path165" />
      <path
         d="M 104.72442,174.63862 C 104.72442,175.79362 103.74442,176.59862 102.60692,177.00112 101.25942,176.52862 99.614422,175.93362 99.614422,174.63862 99.614422,173.43112 100.85692,172.67862 102.16942,172.67862 103.48192,172.67862 104.72442,173.43112 104.72442,174.63862 Z M 105.05692,181.41112 C 105.05692,182.89862 103.70942,184.00112 102.16942,184.00112 100.62942,184.00112 99.281922,182.89862 99.281922,181.41112 99.281922,179.94112 100.33192,178.69862 101.73192,178.20862 103.35942,178.80362 105.05692,179.76612 105.05692,181.41112 Z M 106.71942,181.42862 C 106.71942,179.59112 105.28442,178.26112 103.55192,177.42112 104.96942,176.93112 106.21192,176.05612 106.21192,174.65612 106.21192,172.78362 104.23442,171.69862 102.16942,171.69862 100.10442,171.69862 98.126922,172.78362 98.126922,174.65612 98.126922,176.16112 99.334422,177.15862 100.78692,177.82362 99.054422,178.43612 97.619422,179.69612 97.619422,181.42862 97.619422,183.61612 99.806922,185.01612 102.16942,185.01612 104.53192,185.01612 106.71942,183.61612 106.71942,181.42862 Z"
         id="path167" />
      <path
         d="M 124.09694,173.65862 V 171.99612 H 122.43444 V 173.65862 Z M 124.09694,183.44112 V 175.40862 H 119.72194 V 176.65112 H 122.43444 V 183.44112 H 119.23194 V 184.68362 H 127.10694 V 183.44112 Z"
         id="path169" />
      <path
         d="M 134.54444,183.37112 V 173.30862 H 137.37944 V 171.99612 H 129.95944 V 173.30862 H 132.79444 V 183.37112 H 129.95944 V 184.68362 H 137.37944 V 183.37112 Z"
         id="path171" />
      <path
         d="M 145.09695,183.44112 V 171.20862 H 140.72195 V 172.45112 H 143.43445 V 183.44112 H 140.23195 V 184.68362 H 148.10695 V 183.44112 Z"
         id="path173" />
      <path
         d="M 159.74446,184.68362 V 183.37112 H 152.21946 V 171.99612 H 150.46946 V 184.68362 Z"
         id="path175" />
      <path
         d="M 169.40446,184.68362 V 183.44112 H 166.55196 V 171.92612 H 165.22196 L 161.89696,173.23862 V 174.48112 L 164.88946,173.43112 V 183.44112 H 161.89696 V 184.68362 Z"
         id="path177" />
      <path
         d="M 185.29448,179.17112 C 185.80198,178.87362 186.53698,178.15612 186.53698,177.73612 V 174.16612 C 186.53698,173.20362 187.56948,172.66112 188.61948,172.66112 H 189.31948 V 171.40112 H 188.61948 C 186.83448,171.40112 185.17198,172.50362 185.17198,174.16612 V 177.56112 C 184.66448,178.17362 183.91198,178.54112 183.12448,178.54112 V 179.80112 C 183.91198,179.80112 184.66448,180.16862 185.17198,180.79862 V 184.17612 C 185.17198,185.83862 186.83448,186.94112 188.61948,186.94112 H 189.31948 V 185.68112 H 188.61948 C 187.56948,185.68112 186.53698,185.13862 186.53698,184.17612 V 180.60612 C 186.53698,180.25612 185.90698,179.55612 185.29448,179.17112 Z"
         id="path179" />
      <path
         d="M 197.54448,179.17112 C 197.01948,179.48612 196.30198,180.20362 196.30198,180.60612 V 184.17612 C 196.30198,185.13862 195.26948,185.68112 194.21948,185.68112 H 193.51948 V 186.94112 H 194.21948 C 196.00448,186.94112 197.66698,185.83862 197.66698,184.17612 V 180.79862 C 198.17448,180.16862 198.92698,179.80112 199.71448,179.80112 V 178.54112 C 198.92698,178.54112 198.17448,178.17362 197.66698,177.56112 V 174.16612 C 197.66698,172.50362 196.00448,171.40112 194.21948,171.40112 H 193.51948 V 172.66112 H 194.21948 C 195.26948,172.66112 196.30198,173.20362 196.30198,174.16612 V 177.73612 C 196.30198,178.10362 196.91448,178.80362 197.54448,179.17112 Z"
         id="path181" />
      <path
         d="M 221.51949,186.94112 V 185.68112 H 217.23199 V 172.66112 H 221.51949 V 171.40112 H 215.56949 V 186.94112 Z"
         id="path183" />
      <path
         d="M 230.26951,186.94112 V 171.40112 H 224.31951 V 172.66112 H 228.60701 V 185.68112 H 224.31951 V 186.94112 Z"
         id="path185" />
      <path
         d="M 249.16951,180.64112 C 247.34951,180.64112 246.98201,179.67862 246.98201,178.54112 246.98201,177.52612 247.29701,176.44112 249.16951,176.44112 250.93701,176.44112 251.35701,177.42112 251.35701,178.54112 251.35701,179.57362 251.05951,180.64112 249.16951,180.64112 Z M 245.14451,178.54112 C 245.14451,179.67862 245.73951,180.74612 246.73701,181.32362 246.29951,181.67362 246.03701,182.18112 246.03701,182.74112 246.03701,183.40612 246.54451,184.15862 247.45451,184.42112 247.76951,184.52612 248.41701,184.64862 248.88951,184.73612 L 250.51701,185.05112 C 251.63701,185.27862 252.10951,185.45362 252.10951,186.03112 252.10951,186.80112 250.97201,186.83612 250.18451,186.83612 248.34701,186.83612 246.77201,186.64362 245.23201,186.24112 V 187.67612 C 246.00201,187.86862 247.24451,188.07862 249.25701,188.07862 251.86451,188.07862 253.77201,187.50112 253.77201,185.89112 253.77201,184.17612 251.75951,183.89612 250.98951,183.73862 L 249.36201,183.42362 C 248.04951,183.19612 247.38451,183.02112 247.38451,182.42612 247.38451,182.16362 247.52451,181.91862 247.75201,181.74362 248.20701,181.86612 248.67951,181.91862 249.16951,181.91862 252.21451,181.91862 253.19451,179.92362 253.19451,178.55862 253.19451,177.63112 252.79201,176.75612 252.10951,176.16112 252.54701,175.93362 253.07201,175.84612 253.61451,175.84612 V 174.58612 C 252.72201,174.58612 251.91701,175.00612 251.30451,175.63612 250.65701,175.33862 249.90451,175.21612 249.16951,175.21612 246.15951,175.21612 245.14451,177.14112 245.14451,178.54112 Z"
         id="path187" />
      <path
         d="M 256.78203,175.93362 C 256.78203,173.53612 258.14703,172.92362 259.66953,172.92362 261.31453,172.92362 262.45203,174.53362 262.45203,176.28362 262.45203,177.87612 260.96453,178.97862 259.30203,178.97862 258.28703,178.97862 256.78203,178.20862 256.78203,175.93362 Z M 255.11953,175.93362 C 255.11953,178.24362 256.53703,180.11612 259.30203,180.11612 260.59703,180.11612 261.82203,179.57362 262.55703,178.68112 262.43453,183.05612 260.14203,183.75612 258.54953,183.75612 257.63953,183.75612 256.76453,183.49362 255.94203,183.10862 V 184.43862 C 256.76453,184.84112 257.65703,184.99862 258.54953,184.99862 260.52703,184.99862 264.21953,184.24612 264.21953,178.33112 264.21953,176.63362 264.06203,174.88362 263.11703,173.46612 262.34703,172.31112 261.05203,171.68112 259.66953,171.68112 257.06203,171.68112 255.11953,172.97612 255.11953,175.93362 Z"
         id="path189" />
      <path
         d="M 265.88203,180.32612 C 265.88203,183.70362 267.78953,184.89362 269.48703,184.89362 270.71203,184.89362 271.72703,184.26362 272.44453,183.33612 V 188.06112 H 274.10703 V 175.72362 C 273.09203,175.28612 271.97203,175.19862 271.21953,175.19862 268.80453,175.19862 265.88203,176.23112 265.88203,180.32612 Z M 271.18453,176.44112 C 271.60453,176.44112 272.02453,176.51112 272.44453,176.59862 V 181.91862 C 272.02453,182.91612 271.16703,183.65112 270.08203,183.65112 268.83953,183.65112 267.71953,182.63612 267.71953,180.16862 267.71953,177.19362 269.46953,176.44112 271.18453,176.44112 Z"
         id="path191" />
      <path
         d="M 275.94454,178.34862 C 275.94454,182.44362 278.09704,184.99862 281.57954,184.99862 282.85704,184.99862 284.15204,184.63112 285.30704,183.96612 V 182.32112 C 284.13454,183.00362 282.89204,183.68612 281.54454,183.68612 280.59954,183.68612 279.70704,183.33612 279.04204,182.61862 278.02704,181.51612 277.86954,179.88862 277.86954,178.34862 277.86954,176.79112 278.02704,175.16362 279.04204,174.06112 279.70704,173.34362 280.59954,172.99362 281.64954,172.99362 282.83954,172.99362 284.08204,173.43112 285.30704,173.92112 V 172.43362 C 284.09954,171.96112 282.82204,171.68112 281.64954,171.68112 278.06204,171.68112 275.94454,174.27112 275.94454,178.34862 Z"
         id="path193" />
      <path
         d="M 286.44454,178.34862 C 286.44454,182.44362 288.61454,184.99862 292.06204,184.99862 293.33954,184.99862 294.59954,184.63112 295.80704,184.14112 V 178.64612 H 292.67454 V 179.95862 H 294.05704 V 183.31862 C 293.39204,183.52862 292.72704,183.68612 292.07954,183.68612 291.09954,183.68612 290.20704,183.33612 289.54204,182.61862 288.52704,181.51612 288.36954,179.88862 288.36954,178.34862 288.36954,176.79112 288.52704,175.16362 289.54204,174.06112 290.20704,173.34362 291.09954,172.99362 292.14954,172.99362 293.33954,172.99362 294.58204,173.43112 295.80704,173.92112 V 172.43362 C 294.59954,171.96112 293.32204,171.68112 292.14954,171.68112 288.56204,171.68112 286.44454,174.27112 286.44454,178.34862 Z"
         id="path195" />
      <path
         d="M 304.46956,178.33112 C 304.46956,179.80112 304.41706,181.34112 303.61206,182.54862 303.20956,181.67362 302.50956,180.57112 301.31956,180.25612 L 300.96956,181.53362 C 301.75706,181.74362 302.22956,182.42612 302.64956,183.44112 302.35206,183.59862 302.01956,183.70362 301.66956,183.70362 300.93456,183.70362 300.28706,183.30112 299.84956,182.72362 298.92206,181.49862 298.86956,179.88862 298.86956,178.34862 298.86956,176.82612 298.92206,175.21612 299.84956,173.99112 300.28706,173.41362 300.93456,173.01112 301.66956,173.01112 302.40456,173.01112 303.05206,173.41362 303.48956,173.99112 304.41706,175.21612 304.46956,176.80862 304.46956,178.33112 Z M 301.66956,171.69862 C 299.77956,171.69862 296.94456,173.02862 296.94456,178.34862 296.94456,183.68612 299.77956,185.01612 301.66956,185.01612 302.17706,185.01612 302.68456,184.91112 303.17456,184.73612 303.66456,185.90862 304.67956,187.41362 306.30706,187.41362 V 186.10112 C 305.36206,186.10112 304.76706,185.33112 304.24206,184.14112 305.06456,183.49362 306.39456,181.95362 306.39456,178.34862 306.39456,173.02862 303.55956,171.69862 301.66956,171.69862 Z"
         id="path197" />
      <path
         d="M 320.62206,178.19112 C 319.22206,178.19112 318.11956,179.45112 318.11956,180.99112 H 319.78206 C 319.78206,180.27362 319.97456,179.43362 320.76206,179.43362 321.96956,179.43362 323.01956,181.30612 324.71706,181.30612 326.11706,181.30612 327.21956,180.04612 327.21956,178.50612 H 325.55706 C 325.55706,179.22362 325.36456,180.06362 324.57706,180.06362 323.35206,180.06362 322.30206,178.19112 320.62206,178.19112 Z"
         id="path199" />
      <path
         d="M 337.71956,180.37862 V 179.11862 H 328.61956 V 180.37862 Z"
         id="path201" />
      <path
         d="M 348.21959,180.37862 V 179.11862 H 344.35209 V 175.40862 H 342.98709 V 179.11862 H 339.11959 V 180.37862 H 342.98709 V 184.08862 H 344.35209 V 180.37862 Z"
         id="path203" />
      <path
         d="M 358.71959,181.62112 V 180.37862 H 349.61959 V 181.62112 Z M 358.71959,179.11862 V 177.87612 H 349.61959 V 179.11862 Z"
         id="path205" />
      <path
         d="M 369.21959,179.46862 360.11959,175.33862 V 176.73862 L 366.62959,179.74862 360.11959,182.75862 V 184.15862 L 369.21959,180.02862 Z"
         id="path207" />
    </g>
  </g>
</svg>
