<?xml version="1.0" encoding="UTF-8" standalone="no"?>
<svg
   version="1.1"
   id="svg2"
   viewBox="0 0 382.70798 107.29166"
   height="30.28009mm"
   width="108.0087mm"
   sodipodi:docname="BigBlueTermPlus Nerd Font.svg"
   xmlns:inkscape="http://www.inkscape.org/namespaces/inkscape"
   xmlns:sodipodi="http://sodipodi.sourceforge.net/DTD/sodipodi-0.dtd"
   xmlns="http://www.w3.org/2000/svg"
   xmlns:svg="http://www.w3.org/2000/svg"
   xmlns:rdf="http://www.w3.org/1999/02/22-rdf-syntax-ns#"
   xmlns:cc="http://creativecommons.org/ns#"
   xmlns:dc="http://purl.org/dc/elements/1.1/">
  <sodipodi:namedview
     id="namedview12"
     pagecolor="#ffffff"
     bordercolor="#666666"
     borderopacity="1.0"
     inkscape:showpageshadow="2"
     inkscape:pageopacity="0.0"
     inkscape:pagecheckerboard="0"
     inkscape:deskcolor="#d1d1d1"
     inkscape:document-units="mm" />
  <defs
     id="defs4" />
  <metadata
     id="metadata7">
    <rdf:RDF>
      <cc:Work
         rdf:about="">
        <dc:format>image/svg+xml</dc:format>
        <dc:type
           rdf:resource="http://purl.org/dc/dcmitype/StillImage" />
        <dc:title />
      </cc:Work>
    </rdf:RDF>
  </metadata>
  <g
     id="layer1"
     transform="translate(-62.857143,-80.308632)">
    <g
       aria-label="BigBlueTerm Nerd Font"
       id="text4136"
       style="font-size:27.5px;font-family:'BigBlueTermPlus Nerd Font';letter-spacing:0px;word-spacing:0px;fill:#ffffff">
      <path
         d="M 62.857143,100.93363 V 98.641965 H 65.14881 V 82.600299 H 62.857143 V 80.308632 H 76.607143 V 82.600299 H 78.89881 V 89.475299 H 76.607143 V 91.766965 H 78.89881 V 98.641965 H 76.607143 V 100.93363 Z M 69.732143,98.641965 H 74.315477 V 91.766965 H 69.732143 Z M 69.732143,89.475299 H 74.315477 V 82.600299 H 69.732143 Z"
         id="path14" />
      <path
         d="M 85.773794,100.93363 V 98.641965 H 88.06546 V 89.475299 H 85.773794 V 87.183632 H 92.648794 V 98.641965 H 94.94046 V 100.93363 Z M 88.06546,84.891965 V 80.308632 H 92.648794 V 84.891965 Z"
         id="path16" />
      <path
         d="M 99.523777,103.2253 V 100.93363 H 104.10711 V 103.2253 H 108.69044 V 98.641965 H 101.81544 V 96.350299 H 99.523777 V 89.475299 H 101.81544 V 87.183632 H 108.69044 V 89.475299 H 104.10711 V 96.350299 H 108.69044 V 89.475299 H 110.98211 V 87.183632 H 115.56544 V 89.475299 H 113.27378 V 103.2253 H 110.98211 V 105.51697 H 101.81544 V 103.2253 Z"
         id="path18" />
      <path
         d="M 117.85709,100.93363 V 98.641965 H 120.14876 V 82.600299 H 117.85709 V 80.308632 H 131.60709 V 82.600299 H 133.89876 V 89.475299 H 131.60709 V 91.766965 H 133.89876 V 98.641965 H 131.60709 V 100.93363 Z M 124.73209,98.641965 H 129.31543 V 91.766965 H 124.73209 Z M 124.73209,89.475299 H 129.31543 V 82.600299 H 124.73209 Z"
         id="path20" />
      <path
         d="M 147.64874,98.641965 H 149.94041 V 100.93363 H 140.77374 V 98.641965 H 143.06541 V 82.600299 H 140.77374 V 80.308632 H 147.64874 Z"
         id="path22" />
      <path
         d="M 154.52372,98.641965 V 87.183632 H 159.10706 V 98.641965 H 163.69039 V 100.93363 H 156.81539 V 98.641965 Z M 163.69039,98.641965 V 87.183632 H 168.27372 V 98.641965 H 170.56539 V 100.93363 H 165.98206 V 98.641965 Z"
         id="path24" />
      <path
         d="M 172.85704,98.641965 V 89.475299 H 175.14871 V 87.183632 H 186.60704 V 89.475299 H 188.89871 V 94.058632 H 177.44038 V 98.641965 H 184.31538 V 96.350299 H 188.89871 V 98.641965 H 186.60704 V 100.93363 H 175.14871 V 98.641965 Z M 177.44038,89.475299 V 91.766965 H 184.31538 V 89.475299 Z"
         id="path26" />
      <path
         d="M 193.48203,87.183632 V 80.308632 H 207.23203 V 87.183632 H 204.94036 V 84.891965 H 202.6487 V 98.641965 H 204.94036 V 100.93363 H 195.7737 V 98.641965 H 198.06536 V 84.891965 H 195.7737 V 87.183632 Z"
         id="path28" />
      <path
         d="M 209.52368,98.641965 V 89.475299 H 211.81534 V 87.183632 H 223.27368 V 89.475299 H 225.56534 V 94.058632 H 214.10701 V 98.641965 H 220.98201 V 96.350299 H 225.56534 V 98.641965 H 223.27368 V 100.93363 H 211.81534 V 98.641965 Z M 214.10701,89.475299 V 91.766965 H 220.98201 V 89.475299 Z"
         id="path30" />
      <path
         d="M 227.85699,100.93363 V 98.641965 H 230.14866 V 89.475299 H 227.85699 V 87.183632 H 232.44032 V 89.475299 H 234.73199 V 87.183632 H 241.60699 V 89.475299 H 243.89866 V 94.058632 H 239.31532 V 89.475299 H 237.02366 V 91.766965 H 234.73199 V 98.641965 H 237.02366 V 100.93363 Z"
         id="path32" />
      <path
         d="M 246.1903,100.93363 V 87.183632 H 253.0653 V 89.475299 H 255.35697 V 87.183632 H 259.9403 V 89.475299 H 262.23197 V 100.93363 H 257.64864 V 91.766965 H 255.35697 V 98.641965 H 253.0653 V 91.766965 H 250.77364 V 100.93363 Z"
         id="path34" />
      <path
         d="M 282.85695,100.93363 V 80.308632 H 287.44028 V 82.600299 H 289.73195 V 84.891965 H 292.02361 V 87.183632 H 294.31528 V 80.308632 H 298.89861 V 100.93363 H 294.31528 V 94.058632 H 292.02361 V 91.766965 H 289.73195 V 89.475299 H 287.44028 V 100.93363 Z"
         id="path36" />
      <path
         d="M 301.19026,98.641965 V 89.475299 H 303.48192 V 87.183632 H 314.94026 V 89.475299 H 317.23192 V 94.058632 H 305.77359 V 98.641965 H 312.64859 V 96.350299 H 317.23192 V 98.641965 H 314.94026 V 100.93363 H 303.48192 V 98.641965 Z M 305.77359,89.475299 V 91.766965 H 312.64859 V 89.475299 Z"
         id="path38" />
      <path
         d="M 319.52359,100.93363 V 98.641965 H 321.81525 V 89.475299 H 319.52359 V 87.183632 H 324.10692 V 89.475299 H 326.39859 V 87.183632 H 333.27359 V 89.475299 H 335.56525 V 94.058632 H 330.98192 V 89.475299 H 328.69025 V 91.766965 H 326.39859 V 98.641965 H 328.69025 V 100.93363 Z"
         id="path40" />
      <path
         d="M 337.8569,98.641965 V 91.766965 H 340.14857 V 89.475299 H 342.44023 V 87.183632 H 347.02357 V 82.600299 H 344.7319 V 80.308632 H 351.6069 V 98.641965 H 353.89857 V 100.93363 H 349.31523 V 98.641965 H 347.02357 V 89.475299 H 344.7319 V 91.766965 H 342.44023 V 98.641965 H 347.02357 V 100.93363 H 340.14857 V 98.641965 Z"
         id="path42" />
      <path
         d="M 374.52353,100.93363 V 98.641965 H 376.81519 V 82.600299 H 374.52353 V 80.308632 H 390.56519 V 87.183632 H 388.27353 V 84.891965 H 385.98186 V 82.600299 H 381.39853 V 89.475299 H 383.69019 V 87.183632 H 385.98186 V 94.058632 H 383.69019 V 91.766965 H 381.39853 V 98.641965 H 383.69019 V 100.93363 Z"
         id="path44" />
      <path
         d="M 392.85684,98.641965 V 89.475299 H 395.1485 V 87.183632 H 406.60684 V 89.475299 H 408.8985 V 98.641965 H 406.60684 V 100.93363 H 395.1485 V 98.641965 Z M 397.44017,98.641965 H 404.31517 V 89.475299 H 397.44017 Z"
         id="path46" />
      <path
         d="M 411.19015,89.475299 V 87.183632 H 415.77348 V 89.475299 H 418.06515 V 100.93363 H 413.48182 V 89.475299 Z M 418.06515,89.475299 V 87.183632 H 424.94015 V 89.475299 H 427.23182 V 100.93363 H 422.64848 V 89.475299 Z"
         id="path48" />
      <path
         d="M 429.52346,89.475299 V 87.183632 H 434.1068 V 82.600299 H 436.39846 V 80.308632 H 438.69013 V 87.183632 H 443.27346 V 89.475299 H 438.69013 V 98.641965 H 440.9818 V 96.350299 H 445.56513 V 98.641965 H 443.27346 V 100.93363 H 436.39846 V 98.641965 H 434.1068 V 89.475299 Z"
         id="path50" />
    </g>
    <g
       aria-label="abcdefghijklmnopqrstuvwxyzABCDEFGHIJKLMNOPQRSTUVWXYZ oO08 iIlL1 {} [] g9qCGQ ~-+=&gt;"
       id="text4140"
       style="font-size:17.5px;font-family:'BigBlueTermPlus Nerd Font';letter-spacing:0px;word-spacing:0px;fill:#ffffff">
      <path
         d="M 65.419403,139.47529 V 136.55862 H 66.877736 V 135.10029 H 71.252736 V 133.64196 H 66.877736 V 132.18362 H 72.71107 V 133.64196 H 74.169403 V 139.47529 H 75.627736 V 140.93362 H 72.71107 V 139.47529 H 71.252736 V 136.55862 H 68.33607 V 139.47529 H 71.252736 V 140.93362 H 66.877736 V 139.47529 Z"
         id="path53" />
      <path
         d="M 77.086059,129.26696 V 127.80862 H 81.461059 V 132.18362 H 84.377725 V 133.64196 H 85.836059 V 135.10029 H 87.294392 V 139.47529 H 85.836059 V 140.93362 H 78.544392 V 129.26696 Z M 81.461059,139.47529 H 84.377725 V 135.10029 H 82.919392 V 133.64196 H 81.461059 Z"
         id="path55" />
      <path
         d="M 88.752714,139.47529 V 133.64196 H 90.211047 V 132.18362 H 97.502714 V 133.64196 H 98.961047 V 135.10029 H 96.044381 V 133.64196 H 91.669381 V 139.47529 H 96.044381 V 138.01696 H 98.961047 V 139.47529 H 97.502714 V 140.93362 H 90.211047 V 139.47529 Z"
         id="path57" />
      <path
         d="M 100.41937,139.47529 V 135.10029 H 101.8777 V 133.64196 H 103.33604 V 132.18362 H 106.2527 V 129.26696 H 104.79437 V 127.80862 H 109.16937 V 139.47529 H 110.6277 V 140.93362 H 107.71104 V 139.47529 H 106.2527 V 133.64196 H 104.79437 V 135.10029 H 103.33604 V 139.47529 H 106.2527 V 140.93362 H 101.8777 V 139.47529 Z"
         id="path59" />
      <path
         d="M 112.08603,139.47529 V 133.64196 H 113.54436 V 132.18362 H 120.83603 V 133.64196 H 122.29436 V 136.55862 H 115.00269 V 139.47529 H 119.37769 V 138.01696 H 122.29436 V 139.47529 H 120.83603 V 140.93362 H 113.54436 V 139.47529 Z M 115.00269,133.64196 V 135.10029 H 119.37769 V 133.64196 Z"
         id="path61" />
      <path
         d="M 123.75268,140.93362 V 139.47529 H 125.21102 V 135.10029 H 123.75268 V 133.64196 H 125.21102 V 129.26696 H 126.66935 V 127.80862 H 131.04435 V 129.26696 H 132.50268 V 132.18362 H 131.04435 V 130.72529 H 129.58602 V 129.26696 H 128.12768 V 133.64196 H 129.58602 V 135.10029 H 128.12768 V 139.47529 H 129.58602 V 140.93362 Z"
         id="path63" />
      <path
         d="M 135.41933,142.39196 V 140.93362 H 138.336 V 142.39196 H 141.25267 V 139.47529 H 136.87767 V 138.01696 H 135.41933 V 133.64196 H 136.87767 V 132.18362 H 141.25267 V 133.64196 H 138.336 V 138.01696 H 141.25267 V 133.64196 H 142.711 V 132.18362 H 145.62767 V 133.64196 H 144.16933 V 142.39196 H 142.711 V 143.85029 H 136.87767 V 142.39196 Z"
         id="path65" />
      <path
         d="M 147.08599,140.93362 V 139.47529 H 148.54432 V 129.26696 H 147.08599 V 127.80862 H 151.46099 V 133.64196 H 152.91932 V 135.10029 H 151.46099 V 140.93362 Z M 152.91932,133.64196 V 132.18362 H 155.83599 V 133.64196 H 157.29432 V 140.93362 H 154.37766 V 133.64196 Z"
         id="path67" />
      <path
         d="M 161.66931,140.93362 V 139.47529 H 163.12765 V 133.64196 H 161.66931 V 132.18362 H 166.04431 V 139.47529 H 167.50265 V 140.93362 Z M 163.12765,130.72529 V 127.80862 H 166.04431 V 130.72529 Z"
         id="path69" />
      <path
         d="M 171.87764,139.47529 H 174.7943 V 142.39196 H 177.71097 V 133.64196 H 176.25264 V 132.18362 H 180.62764 V 142.39196 H 179.1693 V 143.85029 H 173.33597 V 142.39196 H 171.87764 Z M 177.71097,130.72529 V 127.80862 H 180.62764 V 130.72529 Z"
         id="path71" />
      <path
         d="M 182.08596,140.93362 V 139.47529 H 183.54429 V 129.26696 H 182.08596 V 127.80862 H 186.46096 V 135.10029 H 187.91929 V 133.64196 H 189.37763 V 132.18362 H 192.29429 V 133.64196 H 190.83596 V 135.10029 H 189.37763 V 136.55862 H 190.83596 V 138.01696 H 192.29429 V 140.93362 H 189.37763 V 138.01696 H 187.91929 V 136.55862 H 186.46096 V 140.93362 Z"
         id="path73" />
      <path
         d="M 201.04428,139.47529 H 202.50261 V 140.93362 H 196.66928 V 139.47529 H 198.12761 V 129.26696 H 196.66928 V 127.80862 H 201.04428 Z"
         id="path75" />
      <path
         d="M 205.41927,140.93362 V 132.18362 H 209.79427 V 133.64196 H 211.2526 V 132.18362 H 214.16927 V 133.64196 H 215.6276 V 140.93362 H 212.71093 V 135.10029 H 211.2526 V 139.47529 H 209.79427 V 135.10029 H 208.33593 V 140.93362 Z"
         id="path77" />
      <path
         d="M 217.08592,133.64196 V 132.18362 H 220.00259 V 133.64196 H 221.46092 V 140.93362 H 218.54426 V 133.64196 Z M 221.46092,133.64196 V 132.18362 H 225.83592 V 133.64196 H 227.29426 V 140.93362 H 224.37759 V 133.64196 Z"
         id="path79" />
      <path
         d="M 228.75258,139.47529 V 133.64196 H 230.21091 V 132.18362 H 237.50258 V 133.64196 H 238.96091 V 139.47529 H 237.50258 V 140.93362 H 230.21091 V 139.47529 Z M 231.66925,139.47529 H 236.04425 V 133.64196 H 231.66925 Z"
         id="path81" />
      <path
         d="M 240.41924,143.85029 V 142.39196 H 241.87757 V 133.64196 H 240.41924 V 132.18362 H 243.3359 V 133.64196 H 244.79424 V 138.01696 H 247.7109 V 133.64196 H 244.79424 V 132.18362 H 249.16924 V 133.64196 H 250.62757 V 138.01696 H 249.16924 V 139.47529 H 244.79424 V 142.39196 H 246.25257 V 143.85029 Z"
         id="path83" />
      <path
         d="M 252.08589,138.01696 V 133.64196 H 253.54423 V 132.18362 H 257.91923 V 133.64196 H 255.00256 V 138.01696 H 257.91923 V 133.64196 H 259.37756 V 132.18362 H 262.29423 V 133.64196 H 260.83589 V 142.39196 H 262.29423 V 143.85029 H 256.46089 V 142.39196 H 257.91923 V 139.47529 H 253.54423 V 138.01696 Z"
         id="path85" />
      <path
         d="M 263.75255,140.93362 V 139.47529 H 265.21088 V 133.64196 H 263.75255 V 132.18362 H 266.66921 V 133.64196 H 268.12755 V 132.18362 H 272.50255 V 133.64196 H 273.96088 V 136.55862 H 271.04421 V 133.64196 H 269.58588 V 135.10029 H 268.12755 V 139.47529 H 269.58588 V 140.93362 Z"
         id="path87" />
      <path
         d="M 275.4192,139.47529 V 138.01696 H 278.33587 V 139.47529 H 282.71087 V 138.01696 H 279.7942 V 136.55862 H 276.87754 V 135.10029 H 275.4192 V 133.64196 H 276.87754 V 132.18362 H 284.1692 V 133.64196 H 285.62754 V 135.10029 H 282.71087 V 133.64196 H 278.33587 V 135.10029 H 281.25254 V 136.55862 H 284.1692 V 138.01696 H 285.62754 V 139.47529 H 284.1692 V 140.93362 H 276.87754 V 139.47529 Z"
         id="path89" />
      <path
         d="M 287.08586,133.64196 V 132.18362 H 290.00253 V 129.26696 H 291.46086 V 127.80862 H 292.91919 V 132.18362 H 295.83586 V 133.64196 H 292.91919 V 139.47529 H 294.37753 V 138.01696 H 297.29419 V 139.47529 H 295.83586 V 140.93362 H 291.46086 V 139.47529 H 290.00253 V 133.64196 Z"
         id="path91" />
      <path
         d="M 298.75252,139.47529 V 132.18362 H 301.66918 V 139.47529 H 304.58585 V 140.93362 H 300.21085 V 139.47529 Z M 304.58585,139.47529 V 132.18362 H 307.50252 V 139.47529 H 308.96085 V 140.93362 H 306.04418 V 139.47529 Z"
         id="path93" />
      <path
         d="M 311.87751,138.01696 V 132.18362 H 314.79417 V 138.01696 H 317.71084 V 132.18362 H 320.62751 V 138.01696 H 319.16917 V 139.47529 H 317.71084 V 140.93362 H 314.79417 V 139.47529 H 313.33584 V 138.01696 Z"
         id="path95" />
      <path
         d="M 322.08582,139.47529 V 132.18362 H 325.00248 V 138.01696 H 326.46082 V 135.10029 H 327.91915 V 138.01696 H 329.37748 V 132.18362 H 332.29415 V 139.47529 H 330.83582 V 140.93362 H 327.91915 V 139.47529 H 326.46082 V 140.93362 H 323.54415 V 139.47529 Z"
         id="path97" />
      <path
         d="M 333.75247,140.93362 V 139.47529 H 335.21081 V 138.01696 H 336.66914 V 135.10029 H 335.21081 V 133.64196 H 333.75247 V 132.18362 H 336.66914 V 133.64196 H 338.12747 V 135.10029 H 339.58581 V 133.64196 H 341.04414 V 132.18362 H 343.96081 V 133.64196 H 342.50247 V 135.10029 H 341.04414 V 138.01696 H 342.50247 V 139.47529 H 343.96081 V 140.93362 H 341.04414 V 139.47529 H 339.58581 V 138.01696 H 338.12747 V 139.47529 H 336.66914 V 140.93362 Z"
         id="path99" />
      <path
         d="M 345.41913,143.85029 V 142.39196 H 351.25246 V 140.93362 H 352.7108 V 139.47529 H 346.87746 V 138.01696 H 345.41913 V 132.18362 H 348.3358 V 138.01696 H 352.7108 V 132.18362 H 355.62746 V 140.93362 H 354.16913 V 142.39196 H 352.7108 V 143.85029 Z"
         id="path101" />
      <path
         d="M 357.08578,140.93362 V 139.47529 H 358.54412 V 138.01696 H 360.00245 V 136.55862 H 361.46078 V 135.10029 H 362.91912 V 133.64196 H 360.00245 V 135.10029 H 357.08578 V 132.18362 H 367.29412 V 133.64196 H 365.83578 V 135.10029 H 364.37745 V 136.55862 H 362.91912 V 138.01696 H 361.46078 V 139.47529 H 364.37745 V 138.01696 H 367.29412 V 140.93362 Z"
         id="path103" />
      <path
         d="M 65.419403,162.80862 V 154.05862 H 66.877736 V 152.60029 H 68.33607 V 151.14196 H 69.794403 V 149.68362 H 71.252736 V 151.14196 H 72.71107 V 152.60029 H 74.169403 V 154.05862 H 75.627736 V 162.80862 H 72.71107 V 158.43362 H 68.33607 V 162.80862 Z M 68.33607,156.97529 H 72.71107 V 154.05862 H 71.252736 V 152.60029 H 69.794403 V 154.05862 H 68.33607 Z"
         id="path105" />
      <path
         d="M 77.086059,162.80862 V 161.35029 H 78.544392 V 151.14196 H 77.086059 V 149.68362 H 85.836059 V 151.14196 H 87.294392 V 155.51696 H 85.836059 V 156.97529 H 87.294392 V 161.35029 H 85.836059 V 162.80862 Z M 81.461059,161.35029 H 84.377725 V 156.97529 H 81.461059 Z M 81.461059,155.51696 H 84.377725 V 151.14196 H 81.461059 Z"
         id="path107" />
      <path
         d="M 88.752714,159.89196 V 152.60029 H 90.211047 V 151.14196 H 91.669381 V 149.68362 H 97.502714 V 151.14196 H 98.961047 V 154.05862 H 97.502714 V 152.60029 H 96.044381 V 151.14196 H 93.127714 V 152.60029 H 91.669381 V 159.89196 H 93.127714 V 161.35029 H 96.044381 V 159.89196 H 97.502714 V 158.43362 H 98.961047 V 161.35029 H 97.502714 V 162.80862 H 91.669381 V 161.35029 H 90.211047 V 159.89196 Z"
         id="path109" />
      <path
         d="M 100.41937,162.80862 V 161.35029 H 101.8777 V 151.14196 H 100.41937 V 149.68362 H 107.71104 V 151.14196 H 109.16937 V 152.60029 H 110.6277 V 159.89196 H 109.16937 V 161.35029 H 107.71104 V 162.80862 Z M 104.79437,161.35029 H 106.2527 V 159.89196 H 107.71104 V 152.60029 H 106.2527 V 151.14196 H 104.79437 Z"
         id="path111" />
      <path
         d="M 112.08603,162.80862 V 161.35029 H 113.54436 V 151.14196 H 112.08603 V 149.68362 H 122.29436 V 154.05862 H 120.83603 V 152.60029 H 119.37769 V 151.14196 H 116.46103 V 155.51696 H 117.91936 V 154.05862 H 119.37769 V 158.43362 H 117.91936 V 156.97529 H 116.46103 V 161.35029 H 119.37769 V 159.89196 H 120.83603 V 158.43362 H 122.29436 V 162.80862 Z"
         id="path113" />
      <path
         d="M 123.75268,162.80862 V 161.35029 H 125.21102 V 151.14196 H 123.75268 V 149.68362 H 133.96102 V 154.05862 H 132.50268 V 152.60029 H 131.04435 V 151.14196 H 128.12768 V 155.51696 H 129.58602 V 154.05862 H 131.04435 V 158.43362 H 129.58602 V 156.97529 H 128.12768 V 161.35029 H 129.58602 V 162.80862 Z"
         id="path115" />
      <path
         d="M 135.41933,159.89196 V 152.60029 H 136.87767 V 151.14196 H 138.336 V 149.68362 H 144.16933 V 151.14196 H 145.62767 V 154.05862 H 144.16933 V 152.60029 H 142.711 V 151.14196 H 139.79433 V 152.60029 H 138.336 V 159.89196 H 139.79433 V 161.35029 H 142.711 V 162.80862 H 138.336 V 161.35029 H 136.87767 V 159.89196 Z M 144.16933,161.35029 H 142.711 V 158.43362 H 139.79433 V 156.97529 H 145.62767 V 162.80862 H 144.16933 Z"
         id="path117" />
      <path
         d="M 147.08599,162.80862 V 149.68362 H 150.00266 V 155.51696 H 154.37766 V 149.68362 H 157.29432 V 162.80862 H 154.37766 V 156.97529 H 150.00266 V 162.80862 Z"
         id="path119" />
      <path
         d="M 166.04431,161.35029 H 167.50265 V 162.80862 H 161.66931 V 161.35029 H 163.12765 V 151.14196 H 161.66931 V 149.68362 H 167.50265 V 151.14196 H 166.04431 Z"
         id="path121" />
      <path
         d="M 170.4193,161.35029 V 158.43362 H 173.33597 V 161.35029 H 176.25264 V 151.14196 H 174.7943 V 149.68362 H 180.62764 V 151.14196 H 179.1693 V 161.35029 H 177.71097 V 162.80862 H 171.87764 V 161.35029 Z"
         id="path123" />
      <path
         d="M 182.08596,162.80862 V 161.35029 H 183.54429 V 151.14196 H 182.08596 V 149.68362 H 186.46096 V 155.51696 H 187.91929 V 152.60029 H 189.37763 V 149.68362 H 192.29429 V 152.60029 H 190.83596 V 155.51696 H 189.37763 V 156.97529 H 190.83596 V 159.89196 H 192.29429 V 162.80862 H 189.37763 V 159.89196 H 187.91929 V 156.97529 H 186.46096 V 162.80862 Z"
         id="path125" />
      <path
         d="M 193.75261,162.80862 V 161.35029 H 195.21094 V 151.14196 H 193.75261 V 149.68362 H 199.58594 V 151.14196 H 198.12761 V 161.35029 H 201.04428 V 159.89196 H 202.50261 V 158.43362 H 203.96094 V 162.80862 Z"
         id="path127" />
      <path
         d="M 205.41927,162.80862 V 149.68362 H 208.33593 V 151.14196 H 209.79427 V 152.60029 H 211.2526 V 151.14196 H 212.71093 V 149.68362 H 215.6276 V 162.80862 H 212.71093 V 155.51696 H 211.2526 V 156.97529 H 209.79427 V 155.51696 H 208.33593 V 162.80862 Z"
         id="path129" />
      <path
         d="M 217.08592,162.80862 V 149.68362 H 220.00259 V 151.14196 H 221.46092 V 152.60029 H 222.91926 V 154.05862 H 224.37759 V 149.68362 H 227.29426 V 162.80862 H 224.37759 V 158.43362 H 222.91926 V 156.97529 H 221.46092 V 155.51696 H 220.00259 V 162.80862 Z"
         id="path131" />
      <path
         d="M 228.75258,159.89196 V 152.60029 H 230.21091 V 151.14196 H 231.66925 V 149.68362 H 236.04425 V 151.14196 H 237.50258 V 152.60029 H 238.96091 V 159.89196 H 237.50258 V 161.35029 H 236.04425 V 162.80862 H 231.66925 V 161.35029 H 230.21091 V 159.89196 Z M 231.66925,159.89196 H 233.12758 V 161.35029 H 234.58591 V 159.89196 H 236.04425 V 152.60029 H 234.58591 V 151.14196 H 233.12758 V 152.60029 H 231.66925 Z"
         id="path133" />
      <path
         d="M 240.41924,162.80862 V 161.35029 H 241.87757 V 151.14196 H 240.41924 V 149.68362 H 249.16924 V 151.14196 H 250.62757 V 155.51696 H 249.16924 V 156.97529 H 244.79424 V 161.35029 H 246.25257 V 162.80862 Z M 244.79424,155.51696 H 247.7109 V 151.14196 H 244.79424 Z"
         id="path135" />
      <path
         d="M 252.08589,159.89196 V 151.14196 H 253.54423 V 149.68362 H 260.83589 V 151.14196 H 262.29423 V 159.89196 H 260.83589 V 162.80862 H 262.29423 V 164.26696 H 257.91923 V 161.35029 H 253.54423 V 159.89196 Z M 255.00256,159.89196 H 256.46089 V 156.97529 H 257.91923 V 158.43362 H 259.37756 V 151.14196 H 255.00256 Z"
         id="path137" />
      <path
         d="M 263.75255,162.80862 V 161.35029 H 265.21088 V 151.14196 H 263.75255 V 149.68362 H 272.50255 V 151.14196 H 273.96088 V 155.51696 H 272.50255 V 158.43362 H 273.96088 V 162.80862 H 271.04421 V 158.43362 H 269.58588 V 156.97529 H 268.12755 V 162.80862 Z M 268.12755,155.51696 H 271.04421 V 151.14196 H 268.12755 Z"
         id="path139" />
      <path
         d="M 275.4192,161.35029 V 158.43362 H 278.33587 V 161.35029 H 282.71087 V 158.43362 H 281.25254 V 156.97529 H 278.33587 V 155.51696 H 276.87754 V 154.05862 H 275.4192 V 151.14196 H 276.87754 V 149.68362 H 284.1692 V 151.14196 H 285.62754 V 154.05862 H 282.71087 V 151.14196 H 278.33587 V 154.05862 H 279.7942 V 155.51696 H 282.71087 V 156.97529 H 284.1692 V 158.43362 H 285.62754 V 161.35029 H 284.1692 V 162.80862 H 276.87754 V 161.35029 Z"
         id="path141" />
      <path
         d="M 288.54419,154.05862 V 149.68362 H 297.29419 V 154.05862 H 295.83586 V 152.60029 H 294.37753 V 161.35029 H 295.83586 V 162.80862 H 290.00253 V 161.35029 H 291.46086 V 152.60029 H 290.00253 V 154.05862 Z"
         id="path143" />
      <path
         d="M 298.75252,161.35029 V 149.68362 H 301.66918 V 161.35029 H 306.04418 V 149.68362 H 308.96085 V 161.35029 H 307.50252 V 162.80862 H 300.21085 V 161.35029 Z"
         id="path145" />
      <path
         d="M 310.41917,158.43362 V 149.68362 H 313.33584 V 158.43362 H 314.79417 V 159.89196 H 316.25251 V 158.43362 H 317.71084 V 149.68362 H 320.62751 V 158.43362 H 319.16917 V 159.89196 H 317.71084 V 161.35029 H 316.25251 V 162.80862 H 314.79417 V 161.35029 H 313.33584 V 159.89196 H 311.87751 V 158.43362 Z"
         id="path147" />
      <path
         d="M 322.08582,159.89196 V 149.68362 H 325.00248 V 158.43362 H 326.46082 V 155.51696 H 327.91915 V 158.43362 H 329.37748 V 149.68362 H 332.29415 V 159.89196 H 330.83582 V 162.80862 H 327.91915 V 161.35029 H 326.46082 V 162.80862 H 323.54415 V 159.89196 Z"
         id="path149" />
      <path
         d="M 333.75247,159.89196 H 335.21081 V 158.43362 H 336.66914 V 154.05862 H 335.21081 V 152.60029 H 333.75247 V 149.68362 H 336.66914 V 152.60029 H 338.12747 V 154.05862 H 339.58581 V 152.60029 H 341.04414 V 149.68362 H 343.96081 V 152.60029 H 342.50247 V 154.05862 H 341.04414 V 158.43362 H 342.50247 V 159.89196 H 343.96081 V 162.80862 H 341.04414 V 159.89196 H 339.58581 V 158.43362 H 338.12747 V 159.89196 H 336.66914 V 162.80862 H 333.75247 Z"
         id="path151" />
      <path
         d="M 346.87746,155.51696 V 149.68362 H 349.79413 V 155.51696 H 352.7108 V 149.68362 H 355.62746 V 155.51696 H 354.16913 V 156.97529 H 352.7108 V 161.35029 H 354.16913 V 162.80862 H 348.3358 V 161.35029 H 349.79413 V 156.97529 H 348.3358 V 155.51696 Z"
         id="path153" />
      <path
         d="M 357.08578,162.80862 V 158.43362 H 358.54412 V 156.97529 H 360.00245 V 155.51696 H 361.46078 V 154.05862 H 362.91912 V 152.60029 H 364.37745 V 151.14196 H 360.00245 V 152.60029 H 358.54412 V 154.05862 H 357.08578 V 149.68362 H 367.29412 V 152.60029 H 365.83578 V 154.05862 H 364.37745 V 155.51696 H 362.91912 V 156.97529 H 361.46078 V 158.43362 H 360.00245 V 161.35029 H 364.37745 V 159.89196 H 365.83578 V 158.43362 H 367.29412 V 162.80862 Z"
         id="path155" />
      <path
         d="M 65.419403,183.22529 V 177.39196 H 66.877736 V 175.93362 H 74.169403 V 177.39196 H 75.627736 V 183.22529 H 74.169403 V 184.68362 H 66.877736 V 183.22529 Z M 68.33607,183.22529 H 72.71107 V 177.39196 H 68.33607 Z"
         id="path157" />
      <path
         d="M 77.086059,181.76696 V 174.47529 H 78.544392 V 173.01696 H 80.002725 V 171.55862 H 84.377725 V 173.01696 H 85.836059 V 174.47529 H 87.294392 V 181.76696 H 85.836059 V 183.22529 H 84.377725 V 184.68362 H 80.002725 V 183.22529 H 78.544392 V 181.76696 Z M 80.002725,181.76696 H 81.461059 V 183.22529 H 82.919392 V 181.76696 H 84.377725 V 174.47529 H 82.919392 V 173.01696 H 81.461059 V 174.47529 H 80.002725 Z"
         id="path159" />
      <path
         d="M 88.752714,181.76696 V 174.47529 H 90.211047 V 173.01696 H 91.669381 V 171.55862 H 96.044381 V 173.01696 H 97.502714 V 174.47529 H 98.961047 V 181.76696 H 97.502714 V 183.22529 H 96.044381 V 184.68362 H 91.669381 V 183.22529 H 90.211047 V 181.76696 Z M 91.669381,181.76696 H 93.127714 V 183.22529 H 94.586047 V 181.76696 H 96.044381 V 174.47529 H 94.586047 V 173.01696 H 93.127714 V 174.47529 H 91.669381 Z M 94.586047,177.39196 V 178.85029 H 93.127714 V 177.39196 Z"
         id="path161" />
      <path
         d="M 100.41937,183.22529 V 178.85029 H 101.8777 V 177.39196 H 100.41937 V 173.01696 H 101.8777 V 171.55862 H 109.16937 V 173.01696 H 110.6277 V 177.39196 H 109.16937 V 178.85029 H 110.6277 V 183.22529 H 109.16937 V 184.68362 H 101.8777 V 183.22529 Z M 103.33604,183.22529 H 107.71104 V 178.85029 H 103.33604 Z M 103.33604,177.39196 H 107.71104 V 173.01696 H 103.33604 Z"
         id="path163" />
      <path
         d="M 126.66935,184.68362 V 183.22529 H 128.12768 V 177.39196 H 126.66935 V 175.93362 H 131.04435 V 183.22529 H 132.50268 V 184.68362 Z M 128.12768,174.47529 V 171.55862 H 131.04435 V 174.47529 Z"
         id="path165" />
      <path
         d="M 142.711,183.22529 H 144.16933 V 184.68362 H 138.336 V 183.22529 H 139.79433 V 173.01696 H 138.336 V 171.55862 H 144.16933 V 173.01696 H 142.711 Z"
         id="path167" />
      <path
         d="M 154.37766,183.22529 H 155.83599 V 184.68362 H 150.00266 V 183.22529 H 151.46099 V 173.01696 H 150.00266 V 171.55862 H 154.37766 Z"
         id="path169" />
      <path
         d="M 158.75265,184.68362 V 183.22529 H 160.21098 V 173.01696 H 158.75265 V 171.55862 H 164.58598 V 173.01696 H 163.12765 V 183.22529 H 166.04431 V 181.76696 H 167.50265 V 180.30862 H 168.96098 V 184.68362 Z"
         id="path171" />
      <path
         d="M 171.87764,184.68362 V 183.22529 H 174.7943 V 175.93362 H 171.87764 V 174.47529 H 173.33597 V 173.01696 H 174.7943 V 171.55862 H 177.71097 V 183.22529 H 180.62764 V 184.68362 Z"
         id="path173" />
      <path
         d="M 195.21094,178.85029 V 177.39196 H 198.12761 V 173.01696 H 199.58594 V 171.55862 H 203.96094 V 173.01696 H 201.04428 V 177.39196 H 199.58594 V 178.85029 H 201.04428 V 183.22529 H 203.96094 V 184.68362 H 199.58594 V 183.22529 H 198.12761 V 178.85029 Z"
         id="path175" />
      <path
         d="M 206.8776,184.68362 V 183.22529 H 209.79427 V 178.85029 H 211.2526 V 177.39196 H 209.79427 V 173.01696 H 206.8776 V 171.55862 H 211.2526 V 173.01696 H 212.71093 V 177.39196 H 215.6276 V 178.85029 H 212.71093 V 183.22529 H 211.2526 V 184.68362 Z"
         id="path177" />
      <path
         d="M 234.58591,183.22529 H 237.50258 V 184.68362 H 231.66925 V 171.55862 H 237.50258 V 173.01696 H 234.58591 Z"
         id="path179" />
      <path
         d="M 246.25257,183.22529 V 173.01696 H 243.3359 V 171.55862 H 249.16924 V 184.68362 H 243.3359 V 183.22529 Z"
         id="path181" />
      <path
         d="M 263.75255,186.14196 V 184.68362 H 266.66921 V 186.14196 H 269.58588 V 183.22529 H 265.21088 V 181.76696 H 263.75255 V 177.39196 H 265.21088 V 175.93362 H 269.58588 V 177.39196 H 266.66921 V 181.76696 H 269.58588 V 177.39196 H 271.04421 V 175.93362 H 273.96088 V 177.39196 H 272.50255 V 186.14196 H 271.04421 V 187.60029 H 265.21088 V 186.14196 Z"
         id="path183" />
      <path
         d="M 275.4192,177.39196 V 173.01696 H 276.87754 V 171.55862 H 284.1692 V 173.01696 H 285.62754 V 181.76696 H 284.1692 V 183.22529 H 282.71087 V 184.68362 H 276.87754 V 183.22529 H 281.25254 V 181.76696 H 282.71087 V 178.85029 H 276.87754 V 177.39196 Z M 278.33587,177.39196 H 282.71087 V 173.01696 H 278.33587 Z"
         id="path185" />
      <path
         d="M 287.08586,181.76696 V 177.39196 H 288.54419 V 175.93362 H 292.91919 V 177.39196 H 290.00253 V 181.76696 H 292.91919 V 177.39196 H 294.37753 V 175.93362 H 297.29419 V 177.39196 H 295.83586 V 186.14196 H 297.29419 V 187.60029 H 291.46086 V 186.14196 H 292.91919 V 183.22529 H 288.54419 V 181.76696 Z"
         id="path187" />
      <path
         d="M 298.75252,181.76696 V 174.47529 H 300.21085 V 173.01696 H 301.66918 V 171.55862 H 307.50252 V 173.01696 H 308.96085 V 175.93362 H 307.50252 V 174.47529 H 306.04418 V 173.01696 H 303.12752 V 174.47529 H 301.66918 V 181.76696 H 303.12752 V 183.22529 H 306.04418 V 181.76696 H 307.50252 V 180.30862 H 308.96085 V 183.22529 H 307.50252 V 184.68362 H 301.66918 V 183.22529 H 300.21085 V 181.76696 Z"
         id="path189" />
      <path
         d="M 310.41917,181.76696 V 174.47529 H 311.87751 V 173.01696 H 313.33584 V 171.55862 H 319.16917 V 173.01696 H 320.62751 V 175.93362 H 319.16917 V 174.47529 H 317.71084 V 173.01696 H 314.79417 V 174.47529 H 313.33584 V 181.76696 H 314.79417 V 183.22529 H 317.71084 V 184.68362 H 313.33584 V 183.22529 H 311.87751 V 181.76696 Z M 319.16917,183.22529 H 317.71084 V 180.30862 H 314.79417 V 178.85029 H 320.62751 V 184.68362 H 319.16917 Z"
         id="path191" />
      <path
         d="M 322.08582,181.76696 V 173.01696 H 323.54415 V 171.55862 H 330.83582 V 173.01696 H 332.29415 V 181.76696 H 330.83582 V 184.68362 H 332.29415 V 186.14196 H 327.91915 V 183.22529 H 323.54415 V 181.76696 Z M 325.00248,181.76696 H 326.46082 V 178.85029 H 327.91915 V 180.30862 H 329.37748 V 173.01696 H 325.00248 Z"
         id="path193" />
      <path
         d="M 345.41913,174.47529 V 173.01696 H 346.87746 V 171.55862 H 351.25246 V 173.01696 H 352.7108 V 171.55862 H 355.62746 V 173.01696 H 354.16913 V 174.47529 H 349.79413 V 173.01696 H 348.3358 V 174.47529 Z"
         id="path195" />
      <path
         d="M 357.08578,178.85029 V 177.39196 H 367.29412 V 178.85029 Z"
         id="path197" />
      <path
         d="M 376.04411,181.76696 H 373.12744 V 178.85029 H 370.21077 V 177.39196 H 373.12744 V 174.47529 H 376.04411 V 177.39196 H 378.96077 V 178.85029 H 376.04411 Z"
         id="path199" />
      <path
         d="M 381.87743,181.76696 V 180.30862 H 390.62743 V 181.76696 Z M 381.87743,177.39196 V 175.93362 H 390.62743 V 177.39196 Z"
         id="path201" />
      <path
         d="M 395.00242,183.22529 V 181.76696 H 396.46075 V 180.30862 H 397.91909 V 178.85029 H 399.37742 V 177.39196 H 397.91909 V 175.93362 H 396.46075 V 174.47529 H 395.00242 V 173.01696 H 393.54409 V 171.55862 H 396.46075 V 173.01696 H 397.91909 V 174.47529 H 399.37742 V 175.93362 H 400.83575 V 177.39196 H 402.29409 V 178.85029 H 400.83575 V 180.30862 H 399.37742 V 181.76696 H 397.91909 V 183.22529 H 396.46075 V 184.68362 H 393.54409 V 183.22529 Z"
         id="path203" />
    </g>
  </g>
</svg>
