<?xml version="1.0" encoding="UTF-8" standalone="no"?>
<!-- Created with Inkscape (http://www.inkscape.org/) -->

<svg
   xmlns:dc="http://purl.org/dc/elements/1.1/"
   xmlns:cc="http://creativecommons.org/ns#"
   xmlns:rdf="http://www.w3.org/1999/02/22-rdf-syntax-ns#"
   xmlns:svg="http://www.w3.org/2000/svg"
   xmlns="http://www.w3.org/2000/svg"
   xmlns:sodipodi="http://sodipodi.sourceforge.net/DTD/sodipodi-0.dtd"
   xmlns:inkscape="http://www.inkscape.org/namespaces/inkscape"
   width="128.58383mm"
   height="30.28009mm"
   viewBox="0 0 455.612 107.29166"
   id="svg2"
   version="1.1"
   inkscape:version="0.91 r13725"
   sodipodi:docname="BigBlueTerminal Nerd Font.svg">
  <defs
     id="defs4" />
  <sodipodi:namedview
     id="base"
     pagecolor="#ffffff"
     bordercolor="#666666"
     borderopacity="1.0"
     inkscape:pageopacity="0.0"
     inkscape:pageshadow="2"
     inkscape:zoom="0.7"
     inkscape:cx="-52.857147"
     inkscape:cy="-401.90477"
     inkscape:document-units="px"
     inkscape:current-layer="layer1"
     showgrid="false"
     inkscape:window-width="1861"
     inkscape:window-height="1056"
     inkscape:window-x="59"
     inkscape:window-y="24"
     inkscape:window-maximized="1" />
  <metadata
     id="metadata7">
    <rdf:RDF>
      <cc:Work
         rdf:about="">
        <dc:format>image/svg+xml</dc:format>
        <dc:type
           rdf:resource="http://purl.org/dc/dcmitype/StillImage" />
        <dc:title />
      </cc:Work>
    </rdf:RDF>
  </metadata>
  <g
     inkscape:label="Layer 1"
     inkscape:groupmode="layer"
     id="layer1"
     transform="translate(-62.857143,-80.308632)">
    <g
       style="font-style:normal;font-weight:normal;font-size:27.5px;line-height:125%;font-family:'BigBlue_Terminal_437TT Nerd Font';text-decoration: underline;text-decoration-line: underline;letter-spacing:0px;word-spacing:0px;fill:#ffffff;fill-opacity:1;stroke:none;stroke-width:1px;stroke-linecap:butt;stroke-linejoin:miter;stroke-opacity:1"
       id="text4136">
      <path
         d="m 62.857143,100.93363 0,-2.291665 2.291667,0 0,-16.041666 -2.291667,0 0,-2.291667 13.75,0 0,2.291667 2.291667,0 0,6.875 -2.291667,0 0,2.291666 2.291667,0 0,6.875 -2.291667,0 0,2.291665 -13.75,0 z m 6.875,-2.291665 4.583334,0 0,-6.875 -4.583334,0 0,6.875 z m 0,-9.166666 4.583334,0 0,-6.875 -4.583334,0 0,6.875 z"
         id="path4140"
         inkscape:connector-curvature="0" />
      <path
         d="m 85.755906,100.93363 0,-2.291665 2.291667,0 0,-9.166666 -2.291667,0 0,-2.291667 6.875,0 0,11.458333 2.291667,0 0,2.291665 -9.166667,0 z m 2.291667,-16.041665 0,-4.583333 4.583333,0 0,4.583333 -4.583333,0 z"
         id="path4142"
         inkscape:connector-curvature="0" />
      <path
         d="m 99.488003,103.2253 0,-2.29167 4.583337,0 0,2.29167 4.58333,0 0,-4.583335 -6.875,0 0,-2.291666 -2.291667,0 0,-6.875 2.291667,0 0,-2.291667 6.875,0 0,2.291667 -4.58333,0 0,6.875 4.58333,0 0,-6.875 2.29167,0 0,-2.291667 4.58333,0 0,2.291667 -2.29167,0 0,13.750001 -2.29166,0 0,2.29167 -9.16667,0 0,-2.29167 -2.291667,0 z"
         id="path4144"
         inkscape:connector-curvature="0" />
      <path
         d="m 117.80343,100.93363 0,-2.291665 2.29167,0 0,-16.041666 -2.29167,0 0,-2.291667 13.75,0 0,2.291667 2.29167,0 0,6.875 -2.29167,0 0,2.291666 2.29167,0 0,6.875 -2.29167,0 0,2.291665 -13.75,0 z m 6.875,-2.291665 4.58334,0 0,-6.875 -4.58334,0 0,6.875 z m 0,-9.166666 4.58334,0 0,-6.875 -4.58334,0 0,6.875 z"
         id="path4146"
         inkscape:connector-curvature="0" />
      <path
         d="m 147.5772,98.641965 2.29166,0 0,2.291665 -9.16666,0 0,-2.291665 2.29166,0 0,-16.041666 -2.29166,0 0,-2.291667 6.875,0 0,18.333333 z"
         id="path4148"
         inkscape:connector-curvature="0" />
      <path
         d="m 154.43429,98.641965 0,-11.458333 4.58334,0 0,11.458333 4.58333,0 0,2.291665 -6.875,0 0,-2.291665 -2.29167,0 z m 9.16667,0 0,-11.458333 4.58333,0 0,11.458333 2.29167,0 0,2.291665 -4.58333,0 0,-2.291665 -2.29167,0 z"
         id="path4150"
         inkscape:connector-curvature="0" />
      <path
         d="m 172.74972,98.641965 0,-9.166666 2.29167,0 0,-2.291667 11.45833,0 0,2.291667 2.29167,0 0,4.583333 -11.45834,0 0,4.583333 6.875,0 0,-2.291666 4.58334,0 0,2.291666 -2.29167,0 0,2.291665 -11.45833,0 0,-2.291665 -2.29167,0 z m 4.58333,-9.166666 0,2.291666 6.875,0 0,-2.291666 -6.875,0 z"
         id="path4152"
         inkscape:connector-curvature="0" />
      <path
         d="m 193.35682,87.183632 0,-6.875 13.75,0 0,6.875 -2.29167,0 0,-2.291667 -2.29167,0 0,13.75 2.29167,0 0,2.291665 -9.16667,0 0,-2.291665 2.29167,0 0,-13.75 -2.29167,0 0,2.291667 -2.29166,0 z"
         id="path4154"
         inkscape:connector-curvature="0" />
      <path
         d="m 209.38058,98.641965 0,-9.166666 2.29167,0 0,-2.291667 11.45833,0 0,2.291667 2.29167,0 0,4.583333 -11.45834,0 0,4.583333 6.875,0 0,-2.291666 4.58334,0 0,2.291666 -2.29167,0 0,2.291665 -11.45833,0 0,-2.291665 -2.29167,0 z m 4.58333,-9.166666 0,2.291666 6.875,0 0,-2.291666 -6.875,0 z"
         id="path4156"
         inkscape:connector-curvature="0" />
      <path
         d="m 227.69601,100.93363 0,-2.291665 2.29167,0 0,-9.166666 -2.29167,0 0,-2.291667 4.58333,0 0,2.291667 2.29167,0 0,-2.291667 6.875,0 0,2.291667 2.29167,0 0,4.583333 -4.58334,0 0,-4.583333 -2.29166,0 0,2.291666 -2.29167,0 0,6.875 2.29167,0 0,2.291665 -9.16667,0 z"
         id="path4158"
         inkscape:connector-curvature="0" />
      <path
         d="m 246.01144,100.93363 0,-13.749998 6.875,0 0,2.291667 2.29167,0 0,-2.291667 4.58333,0 0,2.291667 2.29167,0 0,11.458331 -4.58334,0 0,-9.166665 -2.29166,0 0,6.875 -2.29167,0 0,-6.875 -2.29167,0 0,9.166665 -4.58333,0 z"
         id="path4160"
         inkscape:connector-curvature="0" />
      <path
         d="m 268.9102,100.93363 0,-2.291665 2.29167,0 0,-9.166666 -2.29167,0 0,-2.291667 6.875,0 0,11.458333 2.29167,0 0,2.291665 -9.16667,0 z m 2.29167,-16.041665 0,-4.583333 4.58333,0 0,4.583333 -4.58333,0 z"
         id="path4162"
         inkscape:connector-curvature="0" />
      <path
         d="m 282.6423,89.475299 0,-2.291667 4.58333,0 0,2.291667 2.29167,0 0,11.458331 -4.58333,0 0,-11.458331 -2.29167,0 z m 6.875,0 0,-2.291667 6.875,0 0,2.291667 2.29167,0 0,11.458331 -4.58334,0 0,-11.458331 -4.58333,0 z"
         id="path4164"
         inkscape:connector-curvature="0" />
      <path
         d="m 300.95773,98.641965 0,-4.583333 2.29167,0 0,-2.291667 6.875,0 0,-2.291666 -6.875,0 0,-2.291667 9.16666,0 0,2.291667 2.29167,0 0,9.166666 2.29167,0 0,2.291665 -4.58334,0 0,-2.291665 -2.29166,0 0,-4.583333 -4.58334,0 0,4.583333 4.58334,0 0,2.291665 -6.875,0 0,-2.291665 -2.29167,0 z"
         id="path4166"
         inkscape:connector-curvature="0" />
      <path
         d="m 330.73149,98.641965 2.29167,0 0,2.291665 -9.16667,0 0,-2.291665 2.29167,0 0,-16.041666 -2.29167,0 0,-2.291667 6.875,0 0,18.333333 z"
         id="path4168"
         inkscape:connector-curvature="0" />
      <path
         d="m 355.90402,100.93363 0,-20.624998 4.58333,0 0,2.291667 2.29167,0 0,2.291666 2.29167,0 0,2.291667 2.29166,0 0,-6.875 4.58334,0 0,20.624998 -4.58334,0 0,-6.874998 -2.29166,0 0,-2.291667 -2.29167,0 0,-2.291666 -2.29167,0 0,11.458331 -4.58333,0 z"
         id="path4170"
         inkscape:connector-curvature="0" />
      <path
         d="m 374.21945,98.641965 0,-9.166666 2.29166,0 0,-2.291667 11.45834,0 0,2.291667 2.29166,0 0,4.583333 -11.45833,0 0,4.583333 6.875,0 0,-2.291666 4.58333,0 0,2.291666 -2.29166,0 0,2.291665 -11.45834,0 0,-2.291665 -2.29166,0 z m 4.58333,-9.166666 0,2.291666 6.875,0 0,-2.291666 -6.875,0 z"
         id="path4172"
         inkscape:connector-curvature="0" />
      <path
         d="m 392.53488,100.93363 0,-2.291665 2.29166,0 0,-9.166666 -2.29166,0 0,-2.291667 4.58333,0 0,2.291667 2.29167,0 0,-2.291667 6.875,0 0,2.291667 2.29166,0 0,4.583333 -4.58333,0 0,-4.583333 -2.29167,0 0,2.291666 -2.29166,0 0,6.875 2.29166,0 0,2.291665 -9.16666,0 z"
         id="path4174"
         inkscape:connector-curvature="0" />
      <path
         d="m 410.85031,98.641965 0,-6.875 2.29166,0 0,-2.291666 2.29167,0 0,-2.291667 4.58333,0 0,-4.583333 -2.29166,0 0,-2.291667 6.875,0 0,18.333333 2.29166,0 0,2.291665 -4.58333,0 0,-2.291665 -2.29167,0 0,-9.166666 -2.29166,0 0,2.291666 -2.29167,0 0,6.875 4.58333,0 0,2.291665 -6.875,0 0,-2.291665 -2.29166,0 z"
         id="path4176"
         inkscape:connector-curvature="0" />
      <path
         d="m 447.48117,100.93363 0,-2.291665 2.29166,0 0,-16.041666 -2.29166,0 0,-2.291667 16.04166,0 0,6.875 -2.29166,0 0,-2.291667 -2.29167,0 0,-2.291666 -4.58333,0 0,6.875 2.29166,0 0,-2.291667 2.29167,0 0,6.875 -2.29167,0 0,-2.291667 -2.29166,0 0,6.875 2.29166,0 0,2.291665 -9.16666,0 z"
         id="path4178"
         inkscape:connector-curvature="0" />
      <path
         d="m 465.7966,98.641965 0,-9.166666 2.29166,0 0,-2.291667 11.45834,0 0,2.291667 2.29166,0 0,9.166666 -2.29166,0 0,2.291665 -11.45834,0 0,-2.291665 -2.29166,0 z m 4.58333,0 6.875,0 0,-9.166666 -6.875,0 0,9.166666 z"
         id="path4180"
         inkscape:connector-curvature="0" />
      <path
         d="m 484.11203,89.475299 0,-2.291667 4.58333,0 0,2.291667 2.29167,0 0,11.458331 -4.58334,0 0,-11.458331 -2.29166,0 z m 6.875,0 0,-2.291667 6.875,0 0,2.291667 2.29166,0 0,11.458331 -4.58333,0 0,-11.458331 -4.58333,0 z"
         id="path4182"
         inkscape:connector-curvature="0" />
      <path
         d="m 502.42746,89.475299 0,-2.291667 4.58333,0 0,-4.583333 2.29167,0 0,-2.291667 2.29166,0 0,6.875 4.58334,0 0,2.291667 -4.58334,0 0,9.166666 2.29167,0 0,-2.291666 4.58333,0 0,2.291666 -2.29166,0 0,2.291665 -6.875,0 0,-2.291665 -2.29167,0 0,-9.166666 -4.58333,0 z"
         id="path4184"
         inkscape:connector-curvature="0" />
    </g>
    <g
       style="font-style:normal;font-weight:normal;font-size:27.5px;line-height:125%;font-family:'BigBlue_Terminal_437TT Nerd Font';letter-spacing:0px;word-spacing:0px;fill:#ffffff;fill-opacity:1;stroke:none;stroke-width:1px;stroke-linecap:butt;stroke-linejoin:miter;stroke-opacity:1"
       id="text4140">
      <path
         d="m 65.419403,139.47529 0,-2.91667 1.458333,0 0,-1.45833 4.375,0 0,-1.45833 -4.375,0 0,-1.45834 5.833334,0 0,1.45834 1.458333,0 0,5.83333 1.458333,0 0,1.45833 -2.916666,0 0,-1.45833 -1.458334,0 0,-2.91667 -2.916666,0 0,2.91667 2.916666,0 0,1.45833 -4.375,0 0,-1.45833 -1.458333,0 z"
         style="font-size:17.5px"
         id="path4187"
         inkscape:connector-curvature="0" />
      <path
         d="m 77.074677,129.26696 0,-1.45834 4.375,0 0,4.375 2.916666,0 0,1.45834 1.458334,0 0,1.45833 1.458333,0 0,4.375 -1.458333,0 0,1.45833 -7.291667,0 0,-11.66666 -1.458333,0 z m 4.375,10.20833 2.916666,0 0,-4.375 -1.458333,0 0,-1.45833 -1.458333,0 0,5.83333 z"
         style="font-size:17.5px"
         id="path4189"
         inkscape:connector-curvature="0" />
      <path
         d="m 88.72995,139.47529 0,-5.83333 1.458333,0 0,-1.45834 7.291667,0 0,1.45834 1.458333,0 0,1.45833 -2.916666,0 0,-1.45833 -4.375,0 0,5.83333 4.375,0 0,-1.45833 2.916666,0 0,1.45833 -1.458333,0 0,1.45833 -7.291667,0 0,-1.45833 -1.458333,0 z"
         style="font-size:17.5px"
         id="path4191"
         inkscape:connector-curvature="0" />
      <path
         d="m 100.38522,139.47529 0,-4.375 1.45834,0 0,-1.45833 1.45833,0 0,-1.45834 2.91667,0 0,-2.91666 -1.45834,0 0,-1.45834 4.375,0 0,11.66667 1.45834,0 0,1.45833 -2.91667,0 0,-1.45833 -1.45833,0 0,-5.83333 -1.45834,0 0,1.45833 -1.45833,0 0,4.375 2.91667,0 0,1.45833 -4.375,0 0,-1.45833 -1.45834,0 z"
         style="font-size:17.5px"
         id="path4193"
         inkscape:connector-curvature="0" />
      <path
         d="m 112.0405,139.47529 0,-5.83333 1.45833,0 0,-1.45834 7.29167,0 0,1.45834 1.45833,0 0,2.91666 -7.29167,0 0,2.91667 4.375,0 0,-1.45833 2.91667,0 0,1.45833 -1.45833,0 0,1.45833 -7.29167,0 0,-1.45833 -1.45833,0 z m 2.91666,-5.83333 0,1.45833 4.375,0 0,-1.45833 -4.375,0 z"
         style="font-size:17.5px"
         id="path4195"
         inkscape:connector-curvature="0" />
      <path
         d="m 123.69577,140.93362 0,-1.45833 1.45833,0 0,-4.375 -1.45833,0 0,-1.45833 1.45833,0 0,-4.375 1.45834,0 0,-1.45834 4.375,0 0,1.45834 1.45833,0 0,2.91666 -1.45833,0 0,-1.45833 -1.45834,0 0,-1.45833 -1.45833,0 0,4.375 1.45833,0 0,1.45833 -1.45833,0 0,4.375 1.45833,0 0,1.45833 -5.83333,0 z"
         style="font-size:17.5px"
         id="path4197"
         inkscape:connector-curvature="0" />
      <path
         d="m 135.35104,142.39196 0,-1.45834 2.91667,0 0,1.45834 2.91667,0 0,-2.91667 -4.375,0 0,-1.45833 -1.45834,0 0,-4.375 1.45834,0 0,-1.45834 4.375,0 0,1.45834 -2.91667,0 0,4.375 2.91667,0 0,-4.375 1.45833,0 0,-1.45834 2.91667,0 0,1.45834 -1.45834,0 0,8.75 -1.45833,0 0,1.45833 -5.83333,0 0,-1.45833 -1.45834,0 z"
         style="font-size:17.5px"
         id="path4199"
         inkscape:connector-curvature="0" />
      <path
         d="m 147.00632,140.93362 0,-1.45833 1.45833,0 0,-10.20833 -1.45833,0 0,-1.45834 4.375,0 0,5.83334 1.45833,0 0,1.45833 -1.45833,0 0,5.83333 -4.375,0 z m 5.83333,-7.29166 0,-1.45834 2.91667,0 0,1.45834 1.45833,0 0,7.29166 -2.91667,0 0,-7.29166 -1.45833,0 z"
         style="font-size:17.5px"
         id="path4201"
         inkscape:connector-curvature="0" />
      <path
         d="m 161.57826,140.93362 0,-1.45833 1.45833,0 0,-5.83333 -1.45833,0 0,-1.45834 4.375,0 0,7.29167 1.45833,0 0,1.45833 -5.83333,0 z m 1.45833,-10.20833 0,-2.91667 2.91667,0 0,2.91667 -2.91667,0 z"
         style="font-size:17.5px"
         id="path4203"
         inkscape:connector-curvature="0" />
      <path
         d="m 171.7752,139.47529 2.91666,0 0,2.91667 2.91667,0 0,-8.75 -1.45833,0 0,-1.45834 4.375,0 0,10.20834 -1.45834,0 0,1.45833 -5.83333,0 0,-1.45833 -1.45833,0 0,-2.91667 z m 5.83333,-8.75 0,-2.91667 2.91667,0 0,2.91667 -2.91667,0 z"
         style="font-size:17.5px"
         id="path4205"
         inkscape:connector-curvature="0" />
      <path
         d="m 181.97214,140.93362 0,-1.45833 1.45833,0 0,-10.20833 -1.45833,0 0,-1.45834 4.375,0 0,7.29167 1.45833,0 0,-1.45833 1.45833,0 0,-1.45834 2.91667,0 0,1.45834 -1.45833,0 0,1.45833 -1.45834,0 0,1.45833 1.45834,0 0,1.45834 1.45833,0 0,2.91666 -2.91667,0 0,-2.91666 -1.45833,0 0,-1.45834 -1.45833,0 0,4.375 -4.375,0 z"
         style="font-size:17.5px"
         id="path4207"
         inkscape:connector-curvature="0" />
      <path
         d="m 200.91908,139.47529 1.45833,0 0,1.45833 -5.83333,0 0,-1.45833 1.45833,0 0,-10.20833 -1.45833,0 0,-1.45834 4.375,0 0,11.66667 z"
         style="font-size:17.5px"
         id="path4209"
         inkscape:connector-curvature="0" />
      <path
         d="m 205.28268,140.93362 0,-8.75 4.375,0 0,1.45834 1.45834,0 0,-1.45834 2.91666,0 0,1.45834 1.45834,0 0,7.29166 -2.91667,0 0,-5.83333 -1.45833,0 0,4.375 -1.45834,0 0,-4.375 -1.45833,0 0,5.83333 -2.91667,0 z"
         style="font-size:17.5px"
         id="path4211"
         inkscape:connector-curvature="0" />
      <path
         d="m 216.93796,133.64196 0,-1.45834 2.91666,0 0,1.45834 1.45834,0 0,7.29166 -2.91667,0 0,-7.29166 -1.45833,0 z m 4.375,0 0,-1.45834 4.375,0 0,1.45834 1.45833,0 0,7.29166 -2.91667,0 0,-7.29166 -2.91666,0 z"
         style="font-size:17.5px"
         id="path4213"
         inkscape:connector-curvature="0" />
      <path
         d="m 228.59323,139.47529 0,-5.83333 1.45833,0 0,-1.45834 7.29167,0 0,1.45834 1.45833,0 0,5.83333 -1.45833,0 0,1.45833 -7.29167,0 0,-1.45833 -1.45833,0 z m 2.91667,0 4.375,0 0,-5.83333 -4.375,0 0,5.83333 z"
         style="font-size:17.5px"
         id="path4215"
         inkscape:connector-curvature="0" />
      <path
         d="m 240.2485,143.85029 0,-1.45833 1.45834,0 0,-8.75 -1.45834,0 0,-1.45834 2.91667,0 0,1.45834 1.45833,0 0,4.375 2.91667,0 0,-4.375 -2.91667,0 0,-1.45834 4.375,0 0,1.45834 1.45834,0 0,4.375 -1.45834,0 0,1.45833 -4.375,0 0,2.91667 1.45834,0 0,1.45833 -5.83334,0 z"
         style="font-size:17.5px"
         id="path4217"
         inkscape:connector-curvature="0" />
      <path
         d="m 251.90378,138.01696 0,-4.375 1.45833,0 0,-1.45834 4.375,0 0,1.45834 -2.91667,0 0,4.375 2.91667,0 0,-4.375 1.45833,0 0,-1.45834 2.91667,0 0,1.45834 -1.45833,0 0,8.75 1.45833,0 0,1.45833 -5.83333,0 0,-1.45833 1.45833,0 0,-2.91667 -4.375,0 0,-1.45833 -1.45833,0 z"
         style="font-size:17.5px"
         id="path4219"
         inkscape:connector-curvature="0" />
      <path
         d="m 263.55905,140.93362 0,-1.45833 1.45833,0 0,-5.83333 -1.45833,0 0,-1.45834 2.91667,0 0,1.45834 1.45833,0 0,-1.45834 4.375,0 0,1.45834 1.45833,0 0,2.91666 -2.91666,0 0,-2.91666 -1.45834,0 0,1.45833 -1.45833,0 0,4.375 1.45833,0 0,1.45833 -5.83333,0 z"
         style="font-size:17.5px"
         id="path4221"
         inkscape:connector-curvature="0" />
      <path
         d="m 275.21432,139.47529 0,-1.45833 2.91667,0 0,1.45833 4.375,0 0,-1.45833 -2.91667,0 0,-1.45834 -2.91666,0 0,-1.45833 -1.45834,0 0,-1.45833 1.45834,0 0,-1.45834 7.29166,0 0,1.45834 1.45834,0 0,1.45833 -2.91667,0 0,-1.45833 -4.375,0 0,1.45833 2.91667,0 0,1.45833 2.91666,0 0,1.45834 1.45834,0 0,1.45833 -1.45834,0 0,1.45833 -7.29166,0 0,-1.45833 -1.45834,0 z"
         style="font-size:17.5px"
         id="path4223"
         inkscape:connector-curvature="0" />
      <path
         d="m 286.8696,133.64196 0,-1.45834 2.91667,0 0,-2.91666 1.45833,0 0,-1.45834 1.45833,0 0,4.375 2.91667,0 0,1.45834 -2.91667,0 0,5.83333 1.45834,0 0,-1.45833 2.91666,0 0,1.45833 -1.45833,0 0,1.45833 -4.375,0 0,-1.45833 -1.45833,0 0,-5.83333 -2.91667,0 z"
         style="font-size:17.5px"
         id="path4225"
         inkscape:connector-curvature="0" />
      <path
         d="m 298.52487,139.47529 0,-7.29167 2.91667,0 0,7.29167 2.91667,0 0,1.45833 -4.375,0 0,-1.45833 -1.45834,0 z m 5.83334,0 0,-7.29167 2.91666,0 0,7.29167 1.45834,0 0,1.45833 -2.91667,0 0,-1.45833 -1.45833,0 z"
         style="font-size:17.5px"
         id="path4227"
         inkscape:connector-curvature="0" />
      <path
         d="m 311.63848,138.01696 0,-5.83334 2.91667,0 0,5.83334 2.91666,0 0,-5.83334 2.91667,0 0,5.83334 -1.45833,0 0,1.45833 -1.45834,0 0,1.45833 -2.91666,0 0,-1.45833 -1.45834,0 0,-1.45833 -1.45833,0 z"
         style="font-size:17.5px"
         id="path4229"
         inkscape:connector-curvature="0" />
      <path
         d="m 321.83542,139.47529 0,-7.29167 2.91667,0 0,5.83334 1.45833,0 0,-2.91667 1.45833,0 0,2.91667 1.45834,0 0,-5.83334 2.91666,0 0,7.29167 -1.45833,0 0,1.45833 -2.91667,0 0,-1.45833 -1.45833,0 0,1.45833 -2.91667,0 0,-1.45833 -1.45833,0 z"
         style="font-size:17.5px"
         id="path4231"
         inkscape:connector-curvature="0" />
      <path
         d="m 333.49069,140.93362 0,-1.45833 1.45834,0 0,-1.45833 1.45833,0 0,-2.91667 -1.45833,0 0,-1.45833 -1.45834,0 0,-1.45834 2.91667,0 0,1.45834 1.45833,0 0,1.45833 1.45834,0 0,-1.45833 1.45833,0 0,-1.45834 2.91667,0 0,1.45834 -1.45834,0 0,1.45833 -1.45833,0 0,2.91667 1.45833,0 0,1.45833 1.45834,0 0,1.45833 -2.91667,0 0,-1.45833 -1.45833,0 0,-1.45833 -1.45834,0 0,1.45833 -1.45833,0 0,1.45833 -2.91667,0 z"
         style="font-size:17.5px"
         id="path4233"
         inkscape:connector-curvature="0" />
      <path
         d="m 345.14597,143.85029 0,-1.45833 5.83333,0 0,-1.45834 1.45833,0 0,-1.45833 -5.83333,0 0,-1.45833 -1.45833,0 0,-5.83334 2.91666,0 0,5.83334 4.375,0 0,-5.83334 2.91667,0 0,8.75 -1.45833,0 0,1.45834 -1.45834,0 0,1.45833 -7.29166,0 z"
         style="font-size:17.5px"
         id="path4235"
         inkscape:connector-curvature="0" />
      <path
         d="m 356.80124,140.93362 0,-1.45833 1.45833,0 0,-1.45833 1.45834,0 0,-1.45834 1.45833,0 0,-1.45833 1.45833,0 0,-1.45833 -2.91666,0 0,1.45833 -2.91667,0 0,-2.91667 10.20833,0 0,1.45834 -1.45833,0 0,1.45833 -1.45833,0 0,1.45833 -1.45834,0 0,1.45834 -1.45833,0 0,1.45833 2.91667,0 0,-1.45833 2.91666,0 0,2.91666 -10.20833,0 z"
         style="font-size:17.5px"
         id="path4237"
         inkscape:connector-curvature="0" />
      <path
         d="m 65.419403,162.80862 0,-8.75 1.458333,0 0,-1.45833 1.458334,0 0,-1.45833 1.458333,0 0,-1.45834 1.458333,0 0,1.45834 1.458334,0 0,1.45833 1.458333,0 0,1.45833 1.458333,0 0,8.75 -2.916666,0 0,-4.375 -4.375,0 0,4.375 -2.916667,0 z m 2.916667,-5.83333 4.375,0 0,-2.91667 -1.458334,0 0,-1.45833 -1.458333,0 0,1.45833 -1.458333,0 0,2.91667 z"
         style="font-size:17.5px"
         id="path4239"
         inkscape:connector-curvature="0" />
      <path
         d="m 77.074677,162.80862 0,-1.45833 1.458333,0 0,-10.20833 -1.458333,0 0,-1.45834 8.75,0 0,1.45834 1.458333,0 0,4.375 -1.458333,0 0,1.45833 1.458333,0 0,4.375 -1.458333,0 0,1.45833 -8.75,0 z m 4.375,-1.45833 2.916666,0 0,-4.375 -2.916666,0 0,4.375 z m 0,-5.83333 2.916666,0 0,-4.375 -2.916666,0 0,4.375 z"
         style="font-size:17.5px"
         id="path4241"
         inkscape:connector-curvature="0" />
      <path
         d="m 88.72995,159.89196 0,-7.29167 1.458333,0 0,-1.45833 1.458334,0 0,-1.45834 5.833333,0 0,1.45834 1.458333,0 0,2.91666 -1.458333,0 0,-1.45833 -1.458333,0 0,-1.45833 -2.916667,0 0,1.45833 -1.458333,0 0,7.29167 1.458333,0 0,1.45833 2.916667,0 0,-1.45833 1.458333,0 0,-1.45834 1.458333,0 0,2.91667 -1.458333,0 0,1.45833 -5.833333,0 0,-1.45833 -1.458334,0 0,-1.45833 -1.458333,0 z"
         style="font-size:17.5px"
         id="path4243"
         inkscape:connector-curvature="0" />
      <path
         d="m 100.38522,162.80862 0,-1.45833 1.45834,0 0,-10.20833 -1.45834,0 0,-1.45834 7.29167,0 0,1.45834 1.45833,0 0,1.45833 1.45834,0 0,7.29167 -1.45834,0 0,1.45833 -1.45833,0 0,1.45833 -7.29167,0 z m 4.375,-1.45833 1.45834,0 0,-1.45833 1.45833,0 0,-7.29167 -1.45833,0 0,-1.45833 -1.45834,0 0,10.20833 z"
         style="font-size:17.5px"
         id="path4245"
         inkscape:connector-curvature="0" />
      <path
         d="m 112.0405,162.80862 0,-1.45833 1.45833,0 0,-10.20833 -1.45833,0 0,-1.45834 10.20833,0 0,4.375 -1.45833,0 0,-1.45833 -1.45834,0 0,-1.45833 -2.91666,0 0,4.375 1.45833,0 0,-1.45834 1.45833,0 0,4.375 -1.45833,0 0,-1.45833 -1.45833,0 0,4.375 2.91666,0 0,-1.45833 1.45834,0 0,-1.45834 1.45833,0 0,4.375 -10.20833,0 z"
         style="font-size:17.5px"
         id="path4247"
         inkscape:connector-curvature="0" />
      <path
         d="m 123.69577,162.80862 0,-1.45833 1.45833,0 0,-10.20833 -1.45833,0 0,-1.45834 10.20833,0 0,4.375 -1.45833,0 0,-1.45833 -1.45833,0 0,-1.45833 -2.91667,0 0,4.375 1.45833,0 0,-1.45834 1.45834,0 0,4.375 -1.45834,0 0,-1.45833 -1.45833,0 0,4.375 1.45833,0 0,1.45833 -5.83333,0 z"
         style="font-size:17.5px"
         id="path4249"
         inkscape:connector-curvature="0" />
      <path
         d="m 135.35104,159.89196 0,-7.29167 1.45834,0 0,-1.45833 1.45833,0 0,-1.45834 5.83333,0 0,1.45834 1.45834,0 0,2.91666 -1.45834,0 0,-1.45833 -1.45833,0 0,-1.45833 -2.91667,0 0,1.45833 -1.45833,0 0,7.29167 1.45833,0 0,1.45833 2.91667,0 0,1.45833 -4.375,0 0,-1.45833 -1.45833,0 0,-1.45833 -1.45834,0 z m 8.75,1.45833 -1.45833,0 0,-2.91667 -2.91667,0 0,-1.45833 5.83334,0 0,5.83333 -1.45834,0 0,-1.45833 z"
         style="font-size:17.5px"
         id="path4251"
         inkscape:connector-curvature="0" />
      <path
         d="m 147.00632,162.80862 0,-13.125 2.91666,0 0,5.83334 4.375,0 0,-5.83334 2.91667,0 0,13.125 -2.91667,0 0,-5.83333 -4.375,0 0,5.83333 -2.91666,0 z"
         style="font-size:17.5px"
         id="path4253"
         inkscape:connector-curvature="0" />
      <path
         d="m 165.95326,161.35029 1.45833,0 0,1.45833 -5.83333,0 0,-1.45833 1.45833,0 0,-10.20833 -1.45833,0 0,-1.45834 5.83333,0 0,1.45834 -1.45833,0 0,10.20833 z"
         style="font-size:17.5px"
         id="path4255"
         inkscape:connector-curvature="0" />
      <path
         d="m 170.31686,161.35029 0,-2.91667 2.91667,0 0,2.91667 2.91667,0 0,-10.20833 -1.45834,0 0,-1.45834 5.83334,0 0,1.45834 -1.45834,0 0,10.20833 -1.45833,0 0,1.45833 -5.83333,0 0,-1.45833 -1.45834,0 z"
         style="font-size:17.5px"
         id="path4257"
         inkscape:connector-curvature="0" />
      <path
         d="m 181.97214,162.80862 0,-1.45833 1.45833,0 0,-10.20833 -1.45833,0 0,-1.45834 4.375,0 0,5.83334 1.45833,0 0,-2.91667 1.45833,0 0,-2.91667 2.91667,0 0,2.91667 -1.45833,0 0,2.91667 -1.45834,0 0,1.45833 1.45834,0 0,2.91667 1.45833,0 0,2.91666 -2.91667,0 0,-2.91666 -1.45833,0 0,-2.91667 -1.45833,0 0,5.83333 -4.375,0 z"
         style="font-size:17.5px"
         id="path4259"
         inkscape:connector-curvature="0" />
      <path
         d="m 193.62741,162.80862 0,-1.45833 1.45833,0 0,-10.20833 -1.45833,0 0,-1.45834 5.83333,0 0,1.45834 -1.45833,0 0,10.20833 2.91667,0 0,-1.45833 1.45833,0 0,-1.45834 1.45833,0 0,4.375 -10.20833,0 z"
         style="font-size:17.5px"
         id="path4261"
         inkscape:connector-curvature="0" />
      <path
         d="m 205.28268,162.80862 0,-13.125 2.91667,0 0,1.45834 1.45833,0 0,1.45833 1.45834,0 0,-1.45833 1.45833,0 0,-1.45834 2.91667,0 0,13.125 -2.91667,0 0,-7.29166 -1.45833,0 0,1.45833 -1.45834,0 0,-1.45833 -1.45833,0 0,7.29166 -2.91667,0 z"
         style="font-size:17.5px"
         id="path4263"
         inkscape:connector-curvature="0" />
      <path
         d="m 216.93796,162.80862 0,-13.125 2.91666,0 0,1.45834 1.45834,0 0,1.45833 1.45833,0 0,1.45833 1.45833,0 0,-4.375 2.91667,0 0,13.125 -2.91667,0 0,-4.375 -1.45833,0 0,-1.45833 -1.45833,0 0,-1.45833 -1.45834,0 0,7.29166 -2.91666,0 z"
         style="font-size:17.5px"
         id="path4265"
         inkscape:connector-curvature="0" />
      <path
         d="m 228.59323,159.89196 0,-7.29167 1.45833,0 0,-1.45833 1.45834,0 0,-1.45834 4.375,0 0,1.45834 1.45833,0 0,1.45833 1.45833,0 0,7.29167 -1.45833,0 0,1.45833 -1.45833,0 0,1.45833 -4.375,0 0,-1.45833 -1.45834,0 0,-1.45833 -1.45833,0 z m 2.91667,0 1.45833,0 0,1.45833 1.45833,0 0,-1.45833 1.45834,0 0,-7.29167 -1.45834,0 0,-1.45833 -1.45833,0 0,1.45833 -1.45833,0 0,7.29167 z"
         style="font-size:17.5px"
         id="path4267"
         inkscape:connector-curvature="0" />
      <path
         d="m 240.2485,162.80862 0,-1.45833 1.45834,0 0,-10.20833 -1.45834,0 0,-1.45834 8.75,0 0,1.45834 1.45834,0 0,4.375 -1.45834,0 0,1.45833 -4.375,0 0,4.375 1.45834,0 0,1.45833 -5.83334,0 z m 4.375,-7.29166 2.91667,0 0,-4.375 -2.91667,0 0,4.375 z"
         style="font-size:17.5px"
         id="path4269"
         inkscape:connector-curvature="0" />
      <path
         d="m 251.90378,159.89196 0,-8.75 1.45833,0 0,-1.45834 7.29167,0 0,1.45834 1.45833,0 0,8.75 -1.45833,0 0,2.91666 1.45833,0 0,1.45834 -4.375,0 0,-2.91667 -4.375,0 0,-1.45833 -1.45833,0 z m 2.91666,0 1.45834,0 0,-2.91667 1.45833,0 0,1.45833 1.45833,0 0,-7.29166 -4.375,0 0,8.75 z"
         style="font-size:17.5px"
         id="path4271"
         inkscape:connector-curvature="0" />
      <path
         d="m 263.55905,162.80862 0,-1.45833 1.45833,0 0,-10.20833 -1.45833,0 0,-1.45834 8.75,0 0,1.45834 1.45833,0 0,4.375 -1.45833,0 0,2.91666 1.45833,0 0,4.375 -2.91666,0 0,-4.375 -1.45834,0 0,-1.45833 -1.45833,0 0,5.83333 -4.375,0 z m 4.375,-7.29166 2.91667,0 0,-4.375 -2.91667,0 0,4.375 z"
         style="font-size:17.5px"
         id="path4273"
         inkscape:connector-curvature="0" />
      <path
         d="m 275.21432,161.35029 0,-2.91667 2.91667,0 0,2.91667 4.375,0 0,-2.91667 -1.45833,0 0,-1.45833 -2.91667,0 0,-1.45833 -1.45833,0 0,-1.45834 -1.45834,0 0,-2.91666 1.45834,0 0,-1.45834 7.29166,0 0,1.45834 1.45834,0 0,2.91666 -2.91667,0 0,-2.91666 -4.375,0 0,2.91666 1.45833,0 0,1.45834 2.91667,0 0,1.45833 1.45833,0 0,1.45833 1.45834,0 0,2.91667 -1.45834,0 0,1.45833 -7.29166,0 0,-1.45833 -1.45834,0 z"
         style="font-size:17.5px"
         id="path4275"
         inkscape:connector-curvature="0" />
      <path
         d="m 288.32793,154.05862 0,-4.375 8.75,0 0,4.375 -1.45833,0 0,-1.45833 -1.45833,0 0,8.75 1.45833,0 0,1.45833 -5.83333,0 0,-1.45833 1.45833,0 0,-8.75 -1.45833,0 0,1.45833 -1.45834,0 z"
         style="font-size:17.5px"
         id="path4277"
         inkscape:connector-curvature="0" />
      <path
         d="m 298.52487,161.35029 0,-11.66667 2.91667,0 0,11.66667 4.375,0 0,-11.66667 2.91667,0 0,11.66667 -1.45834,0 0,1.45833 -7.29166,0 0,-1.45833 -1.45834,0 z"
         style="font-size:17.5px"
         id="path4279"
         inkscape:connector-curvature="0" />
      <path
         d="m 310.18015,158.43362 0,-8.75 2.91666,0 0,8.75 1.45834,0 0,1.45834 1.45833,0 0,-1.45834 1.45833,0 0,-8.75 2.91667,0 0,8.75 -1.45833,0 0,1.45834 -1.45834,0 0,1.45833 -1.45833,0 0,1.45833 -1.45833,0 0,-1.45833 -1.45834,0 0,-1.45833 -1.45833,0 0,-1.45834 -1.45833,0 z"
         style="font-size:17.5px"
         id="path4281"
         inkscape:connector-curvature="0" />
      <path
         d="m 321.83542,159.89196 0,-10.20834 2.91667,0 0,8.75 1.45833,0 0,-2.91666 1.45833,0 0,2.91666 1.45834,0 0,-8.75 2.91666,0 0,10.20834 -1.45833,0 0,2.91666 -2.91667,0 0,-1.45833 -1.45833,0 0,1.45833 -2.91667,0 0,-2.91666 -1.45833,0 z"
         style="font-size:17.5px"
         id="path4283"
         inkscape:connector-curvature="0" />
      <path
         d="m 333.49069,159.89196 1.45834,0 0,-1.45834 1.45833,0 0,-4.375 -1.45833,0 0,-1.45833 -1.45834,0 0,-2.91667 2.91667,0 0,2.91667 1.45833,0 0,1.45833 1.45834,0 0,-1.45833 1.45833,0 0,-2.91667 2.91667,0 0,2.91667 -1.45834,0 0,1.45833 -1.45833,0 0,4.375 1.45833,0 0,1.45834 1.45834,0 0,2.91666 -2.91667,0 0,-2.91666 -1.45833,0 0,-1.45834 -1.45834,0 0,1.45834 -1.45833,0 0,2.91666 -2.91667,0 0,-2.91666 z"
         style="font-size:17.5px"
         id="path4285"
         inkscape:connector-curvature="0" />
      <path
         d="m 346.6043,155.51696 0,-5.83334 2.91667,0 0,5.83334 2.91666,0 0,-5.83334 2.91667,0 0,5.83334 -1.45833,0 0,1.45833 -1.45834,0 0,4.375 1.45834,0 0,1.45833 -5.83334,0 0,-1.45833 1.45834,0 0,-4.375 -1.45834,0 0,-1.45833 -1.45833,0 z"
         style="font-size:17.5px"
         id="path4287"
         inkscape:connector-curvature="0" />
      <path
         d="m 356.80124,162.80862 0,-4.375 1.45833,0 0,-1.45833 1.45834,0 0,-1.45833 1.45833,0 0,-1.45834 1.45833,0 0,-1.45833 1.45834,0 0,-1.45833 -4.375,0 0,1.45833 -1.45834,0 0,1.45833 -1.45833,0 0,-4.375 10.20833,0 0,2.91667 -1.45833,0 0,1.45833 -1.45833,0 0,1.45834 -1.45834,0 0,1.45833 -1.45833,0 0,1.45833 -1.45833,0 0,2.91667 4.375,0 0,-1.45833 1.45833,0 0,-1.45834 1.45833,0 0,4.375 -10.20833,0 z"
         style="font-size:17.5px"
         id="path4289"
         inkscape:connector-curvature="0" />
      <path
         d="m 65.419403,183.22529 0,-5.83333 1.458333,0 0,-1.45834 7.291667,0 0,1.45834 1.458333,0 0,5.83333 -1.458333,0 0,1.45833 -7.291667,0 0,-1.45833 -1.458333,0 z m 2.916667,0 4.375,0 0,-5.83333 -4.375,0 0,5.83333 z"
         style="font-size:17.5px"
         id="path4291"
         inkscape:connector-curvature="0" />
      <path
         d="m 77.074677,181.76696 0,-7.29167 1.458333,0 0,-1.45833 1.458333,0 0,-1.45834 4.375,0 0,1.45834 1.458334,0 0,1.45833 1.458333,0 0,7.29167 -1.458333,0 0,1.45833 -1.458334,0 0,1.45833 -4.375,0 0,-1.45833 -1.458333,0 0,-1.45833 -1.458333,0 z m 2.916666,0 1.458334,0 0,1.45833 1.458333,0 0,-1.45833 1.458333,0 0,-7.29167 -1.458333,0 0,-1.45833 -1.458333,0 0,1.45833 -1.458334,0 0,7.29167 z"
         style="font-size:17.5px"
         id="path4293"
         inkscape:connector-curvature="0" />
      <path
         d="m 88.72995,181.76696 0,-7.29167 1.458333,0 0,-1.45833 1.458334,0 0,-1.45834 4.375,0 0,1.45834 1.458333,0 0,1.45833 1.458333,0 0,7.29167 -1.458333,0 0,1.45833 -1.458333,0 0,1.45833 -4.375,0 0,-1.45833 -1.458334,0 0,-1.45833 -1.458333,0 z m 2.916667,0 1.458333,0 0,1.45833 1.458333,0 0,-1.45833 1.458334,0 0,-7.29167 -1.458334,0 0,-1.45833 -1.458333,0 0,1.45833 -1.458333,0 0,7.29167 z m 2.916666,-4.375 0,1.45833 -1.458333,0 0,-1.45833 1.458333,0 z"
         style="font-size:17.5px"
         id="path4295"
         inkscape:connector-curvature="0" />
      <path
         d="m 100.38522,183.22529 0,-4.375 1.45834,0 0,-1.45833 -1.45834,0 0,-4.375 1.45834,0 0,-1.45834 7.29166,0 0,1.45834 1.45834,0 0,4.375 -1.45834,0 0,1.45833 1.45834,0 0,4.375 -1.45834,0 0,1.45833 -7.29166,0 0,-1.45833 -1.45834,0 z m 2.91667,0 4.375,0 0,-4.375 -4.375,0 0,4.375 z m 0,-5.83333 4.375,0 0,-4.375 -4.375,0 0,4.375 z"
         style="font-size:17.5px"
         id="path4297"
         inkscape:connector-curvature="0" />
      <path
         d="m 126.61244,184.68362 0,-1.45833 1.45833,0 0,-5.83333 -1.45833,0 0,-1.45834 4.375,0 0,7.29167 1.45833,0 0,1.45833 -5.83333,0 z m 1.45833,-10.20833 0,-2.91667 2.91667,0 0,2.91667 -2.91667,0 z"
         style="font-size:17.5px"
         id="path4299"
         inkscape:connector-curvature="0" />
      <path
         d="m 142.64271,183.22529 1.45833,0 0,1.45833 -5.83333,0 0,-1.45833 1.45833,0 0,-10.20833 -1.45833,0 0,-1.45834 5.83333,0 0,1.45834 -1.45833,0 0,10.20833 z"
         style="font-size:17.5px"
         id="path4301"
         inkscape:connector-curvature="0" />
      <path
         d="m 154.29798,183.22529 1.45834,0 0,1.45833 -5.83334,0 0,-1.45833 1.45834,0 0,-10.20833 -1.45834,0 0,-1.45834 4.375,0 0,11.66667 z"
         style="font-size:17.5px"
         id="path4303"
         inkscape:connector-curvature="0" />
      <path
         d="m 158.66159,184.68362 0,-1.45833 1.45833,0 0,-10.20833 -1.45833,0 0,-1.45834 5.83333,0 0,1.45834 -1.45833,0 0,10.20833 2.91667,0 0,-1.45833 1.45833,0 0,-1.45834 1.45833,0 0,4.375 -10.20833,0 z"
         style="font-size:17.5px"
         id="path4305"
         inkscape:connector-curvature="0" />
      <path
         d="m 171.7752,184.68362 0,-1.45833 2.91666,0 0,-7.29167 -2.91666,0 0,-1.45833 1.45833,0 0,-1.45833 1.45833,0 0,-1.45834 2.91667,0 0,11.66667 2.91667,0 0,1.45833 -8.75,0 z"
         style="font-size:17.5px"
         id="path4307"
         inkscape:connector-curvature="0" />
      <path
         d="m 195.08574,178.85029 0,-1.45833 2.91667,0 0,-4.375 1.45833,0 0,-1.45834 4.375,0 0,1.45834 -2.91666,0 0,4.375 -1.45834,0 0,1.45833 1.45834,0 0,4.375 2.91666,0 0,1.45833 -4.375,0 0,-1.45833 -1.45833,0 0,-4.375 -2.91667,0 z"
         style="font-size:17.5px"
         id="path4309"
         inkscape:connector-curvature="0" />
      <path
         d="m 206.74102,184.68362 0,-1.45833 2.91666,0 0,-4.375 1.45834,0 0,-1.45833 -1.45834,0 0,-4.375 -2.91666,0 0,-1.45834 4.375,0 0,1.45834 1.45833,0 0,4.375 2.91667,0 0,1.45833 -2.91667,0 0,4.375 -1.45833,0 0,1.45833 -4.375,0 z"
         style="font-size:17.5px"
         id="path4311"
         inkscape:connector-curvature="0" />
      <path
         d="m 234.42656,183.22529 2.91667,0 0,1.45833 -5.83333,0 0,-13.125 5.83333,0 0,1.45834 -2.91667,0 0,10.20833 z"
         style="font-size:17.5px"
         id="path4313"
         inkscape:connector-curvature="0" />
      <path
         d="m 246.08184,183.22529 0,-10.20833 -2.91667,0 0,-1.45834 5.83333,0 0,13.125 -5.83333,0 0,-1.45833 2.91667,0 z"
         style="font-size:17.5px"
         id="path4315"
         inkscape:connector-curvature="0" />
      <path
         d="m 263.55905,186.14196 0,-1.45834 2.91667,0 0,1.45834 2.91666,0 0,-2.91667 -4.375,0 0,-1.45833 -1.45833,0 0,-4.375 1.45833,0 0,-1.45834 4.375,0 0,1.45834 -2.91666,0 0,4.375 2.91666,0 0,-4.375 1.45834,0 0,-1.45834 2.91666,0 0,1.45834 -1.45833,0 0,8.75 -1.45833,0 0,1.45833 -5.83334,0 0,-1.45833 -1.45833,0 z"
         style="font-size:17.5px"
         id="path4317"
         inkscape:connector-curvature="0" />
      <path
         d="m 275.21432,177.39196 0,-4.375 1.45834,0 0,-1.45834 7.29166,0 0,1.45834 1.45834,0 0,8.75 -1.45834,0 0,1.45833 -1.45833,0 0,1.45833 -5.83333,0 0,-1.45833 4.375,0 0,-1.45833 1.45833,0 0,-2.91667 -5.83333,0 0,-1.45833 -1.45834,0 z m 2.91667,0 4.375,0 0,-4.375 -4.375,0 0,4.375 z"
         style="font-size:17.5px"
         id="path4319"
         inkscape:connector-curvature="0" />
      <path
         d="m 286.8696,181.76696 0,-4.375 1.45833,0 0,-1.45834 4.375,0 0,1.45834 -2.91666,0 0,4.375 2.91666,0 0,-4.375 1.45834,0 0,-1.45834 2.91666,0 0,1.45834 -1.45833,0 0,8.75 1.45833,0 0,1.45833 -5.83333,0 0,-1.45833 1.45833,0 0,-2.91667 -4.375,0 0,-1.45833 -1.45833,0 z"
         style="font-size:17.5px"
         id="path4321"
         inkscape:connector-curvature="0" />
      <path
         d="m 298.52487,181.76696 0,-7.29167 1.45834,0 0,-1.45833 1.45833,0 0,-1.45834 5.83333,0 0,1.45834 1.45834,0 0,2.91666 -1.45834,0 0,-1.45833 -1.45833,0 0,-1.45833 -2.91667,0 0,1.45833 -1.45833,0 0,7.29167 1.45833,0 0,1.45833 2.91667,0 0,-1.45833 1.45833,0 0,-1.45834 1.45834,0 0,2.91667 -1.45834,0 0,1.45833 -5.83333,0 0,-1.45833 -1.45833,0 0,-1.45833 -1.45834,0 z"
         style="font-size:17.5px"
         id="path4323"
         inkscape:connector-curvature="0" />
      <path
         d="m 310.18015,181.76696 0,-7.29167 1.45833,0 0,-1.45833 1.45833,0 0,-1.45834 5.83334,0 0,1.45834 1.45833,0 0,2.91666 -1.45833,0 0,-1.45833 -1.45834,0 0,-1.45833 -2.91666,0 0,1.45833 -1.45834,0 0,7.29167 1.45834,0 0,1.45833 2.91666,0 0,1.45833 -4.375,0 0,-1.45833 -1.45833,0 0,-1.45833 -1.45833,0 z m 8.75,1.45833 -1.45834,0 0,-2.91667 -2.91666,0 0,-1.45833 5.83333,0 0,5.83333 -1.45833,0 0,-1.45833 z"
         style="font-size:17.5px"
         id="path4325"
         inkscape:connector-curvature="0" />
      <path
         d="m 321.83542,181.76696 0,-8.75 1.45833,0 0,-1.45834 7.29167,0 0,1.45834 1.45833,0 0,8.75 -1.45833,0 0,2.91666 1.45833,0 0,1.45834 -4.375,0 0,-2.91667 -4.375,0 0,-1.45833 -1.45833,0 z m 2.91667,0 1.45833,0 0,-2.91667 1.45833,0 0,1.45833 1.45834,0 0,-7.29166 -4.375,0 0,8.75 z"
         style="font-size:17.5px"
         id="path4327"
         inkscape:connector-curvature="0" />
      <path
         d="m 345.14597,174.47529 0,-1.45833 1.45833,0 0,-1.45834 4.375,0 0,1.45834 1.45833,0 0,-1.45834 2.91667,0 0,1.45834 -1.45833,0 0,1.45833 -4.375,0 0,-1.45833 -1.45834,0 0,1.45833 -2.91666,0 z"
         style="font-size:17.5px"
         id="path4329"
         inkscape:connector-curvature="0" />
      <path
         d="m 356.80124,178.85029 0,-1.45833 10.20833,0 0,1.45833 -10.20833,0 z"
         style="font-size:17.5px"
         id="path4331"
         inkscape:connector-curvature="0" />
      <path
         d="m 375.74818,181.76696 -2.91667,0 0,-2.91667 -2.91666,0 0,-1.45833 2.91666,0 0,-2.91667 2.91667,0 0,2.91667 2.91667,0 0,1.45833 -2.91667,0 0,2.91667 z"
         style="font-size:17.5px"
         id="path4333"
         inkscape:connector-curvature="0" />
      <path
         d="m 381.57012,181.76696 0,-1.45834 8.75,0 0,1.45834 -8.75,0 z m 0,-4.375 0,-1.45834 8.75,0 0,1.45834 -8.75,0 z"
         style="font-size:17.5px"
         id="path4335"
         inkscape:connector-curvature="0" />
      <path
         d="m 394.68373,183.22529 0,-1.45833 1.45833,0 0,-1.45834 1.45833,0 0,-1.45833 1.45834,0 0,-1.45833 -1.45834,0 0,-1.45834 -1.45833,0 0,-1.45833 -1.45833,0 0,-1.45833 -1.45834,0 0,-1.45834 2.91667,0 0,1.45834 1.45833,0 0,1.45833 1.45834,0 0,1.45833 1.45833,0 0,1.45834 1.45833,0 0,1.45833 -1.45833,0 0,1.45833 -1.45833,0 0,1.45834 -1.45834,0 0,1.45833 -1.45833,0 0,1.45833 -2.91667,0 0,-1.45833 1.45834,0 z"
         style="font-size:17.5px"
         id="path4337"
         inkscape:connector-curvature="0" />
    </g>
  </g>
</svg>
