<?xml version="1.0" encoding="UTF-8" standalone="no"?>
<svg
   version="1.1"
   id="svg2"
   viewBox="0 0 359.31275 108.40331"
   height="30.593824mm"
   width="101.40604mm"
   sodipodi:docname="BitstromWera Nerd Font.svg"
   xmlns:inkscape="http://www.inkscape.org/namespaces/inkscape"
   xmlns:sodipodi="http://sodipodi.sourceforge.net/DTD/sodipodi-0.dtd"
   xmlns="http://www.w3.org/2000/svg"
   xmlns:svg="http://www.w3.org/2000/svg"
   xmlns:rdf="http://www.w3.org/1999/02/22-rdf-syntax-ns#"
   xmlns:cc="http://creativecommons.org/ns#"
   xmlns:dc="http://purl.org/dc/elements/1.1/">
  <sodipodi:namedview
     id="namedview12"
     pagecolor="#ffffff"
     bordercolor="#666666"
     borderopacity="1.0"
     inkscape:showpageshadow="2"
     inkscape:pageopacity="0.0"
     inkscape:pagecheckerboard="0"
     inkscape:deskcolor="#d1d1d1"
     inkscape:document-units="mm" />
  <defs
     id="defs4" />
  <metadata
     id="metadata7">
    <rdf:RDF>
      <cc:Work
         rdf:about="">
        <dc:format>image/svg+xml</dc:format>
        <dc:type
           rdf:resource="http://purl.org/dc/dcmitype/StillImage" />
        <dc:title />
      </cc:Work>
    </rdf:RDF>
  </metadata>
  <g
     id="layer1"
     transform="translate(-65.086147,-80.040077)">
    <g
       aria-label="BitstromWera Nerd Font"
       id="text4136"
       style="font-size:27.5px;font-family:'BitstromWera Nerd Font';letter-spacing:0px;word-spacing:0px;fill:#ffffff">
      <path
         d="M 67.811977,91.359657 V 98.704628 H 71.021206 Q 73.384487,98.704628 74.391567,97.885536 75.398647,97.053017 75.398647,95.159706 75.398647,93.199257 74.337856,92.286171 73.277065,91.359657 71.021206,91.359657 Z M 67.811977,83.115028 V 89.157509 H 70.967495 Q 72.927944,89.157509 73.800747,88.405556 74.686977,87.653603 74.686977,85.975136 74.686977,84.457802 73.814175,83.786415 72.9548,83.115028 70.967495,83.115028 Z M 65.086147,80.886024 H 71.021206 Q 74.096157,80.886024 75.761196,82.21537 77.426235,83.544716 77.426235,85.975136 77.426235,87.814735 76.540005,88.875526 75.667202,89.936317 73.908169,90.204872 75.882046,90.500282 76.996548,91.896767 78.124477,93.279823 78.124477,95.428261 78.124477,98.154091 76.338589,99.550575 74.5527,100.93363 71.021206,100.93363 H 65.086147 Z"
         id="path14" />
      <path
         d="M 82.85104,85.894569 H 89.175503 V 99.013466 H 94.076626 V 100.93363 H 81.803677 V 99.013466 H 86.7048 V 87.814735 H 82.85104 Z M 86.7048,80.040077 H 89.175503 V 83.168739 H 86.7048 Z"
         id="path16" />
      <path
         d="M 104.21457,81.62455 V 85.894569 H 109.82736 V 87.814735 H 104.21457 V 95.978798 Q 104.21457,97.643837 104.84567,98.301796 105.47677,98.959755 107.04782,98.959755 H 109.82736 V 100.93363 H 106.80612 Q 104.02658,100.93363 102.88522,99.81913 101.74386,98.704628 101.74386,95.978798 V 87.814735 H 97.72897 V 85.894569 H 101.74386 V 81.62455 Z"
         id="path18" />
      <path
         d="M 125.59152,86.418251 V 88.835243 Q 124.53073,88.217567 123.45651,87.90873 122.38229,87.599892 121.26779,87.599892 119.58932,87.599892 118.7568,88.150429 117.93771,88.687538 117.93771,89.80204 117.93771,90.80912 118.55539,91.305946 119.17306,91.802773 121.63034,92.272743 L 122.62399,92.460732 Q 124.46359,92.809853 125.40353,93.857216 126.3569,94.904579 126.3569,96.583046 126.3569,98.81205 124.77243,100.07426 123.18795,101.32304 120.36813,101.32304 119.25363,101.32304 118.0317,101.08134 116.80978,100.85307 115.38644,100.38309 V 97.831825 Q 116.7695,98.543495 118.0317,98.906044 119.29391,99.255165 120.42184,99.255165 122.06002,99.255165 122.95968,98.597206 123.85934,97.925819 123.85934,96.730751 123.85934,95.012001 120.56955,94.354042 L 120.46212,94.327187 119.53561,94.139198 Q 117.4006,93.722939 116.42038,92.742714 115.44015,91.749062 115.44015,90.043739 115.44015,87.881874 116.90377,86.713661 118.3674,85.532021 121.0798,85.532021 122.2883,85.532021 123.4028,85.760292 124.5173,85.975136 125.59152,86.418251 Z"
         id="path20" />
      <path
         d="M 137.32736,81.62455 V 85.894569 H 142.94015 V 87.814735 H 137.32736 V 95.978798 Q 137.32736,97.643837 137.95846,98.301796 138.58957,98.959755 140.16061,98.959755 H 142.94015 V 100.93363 H 139.91891 Q 137.13937,100.93363 135.99801,99.81913 134.85666,98.704628 134.85666,95.978798 V 87.814735 H 130.84176 V 85.894569 H 134.85666 V 81.62455 Z"
         id="path22" />
      <path
         d="M 161.14816,88.996376 Q 160.35592,88.3787 159.53683,88.096718 158.71774,87.814735 157.73751,87.814735 155.42794,87.814735 154.20602,89.264931 152.9841,90.715126 152.9841,93.454384 V 100.93363 H 150.49997 V 85.894569 H 152.9841 V 88.835243 Q 153.60177,87.237343 154.87741,86.391396 156.16647,85.532021 157.9255,85.532021 158.83859,85.532021 159.63083,85.760292 160.42306,85.988564 161.14816,86.471962 Z"
         id="path24" />
      <path
         d="M 170.46701,87.626747 Q 168.58712,87.626747 167.62033,89.09037 166.65353,90.553993 166.65353,93.427528 166.65353,96.287636 167.62033,97.764687 168.58712,99.22831 170.46701,99.22831 172.36032,99.22831 173.32711,97.764687 174.29391,96.287636 174.29391,93.427528 174.29391,90.553993 173.32711,89.09037 172.36032,87.626747 170.46701,87.626747 Z M 170.46701,85.532021 Q 173.59567,85.532021 175.24728,87.559608 176.91232,89.587196 176.91232,93.427528 176.91232,97.281288 175.26071,99.308876 173.6091,101.32304 170.46701,101.32304 167.33834,101.32304 165.68673,99.308876 164.03512,97.281288 164.03512,93.427528 164.03512,89.587196 165.68673,87.559608 167.33834,85.532021 170.46701,85.532021 Z"
         id="path26" />
      <path
         d="M 187.82907,87.425331 Q 188.28561,86.458534 188.98385,86.001991 189.69552,85.532021 190.68917,85.532021 192.50192,85.532021 193.24044,86.941933 193.9924,88.338417 193.9924,92.219032 V 100.93363 H 191.73654 V 92.326454 Q 191.73654,89.144081 191.37399,88.3787 191.02487,87.599892 190.08493,87.599892 189.01071,87.599892 188.60788,88.432411 188.21847,89.251503 188.21847,92.326454 V 100.93363 H 185.96261 V 92.326454 Q 185.96261,89.103798 185.57321,88.351845 185.19723,87.599892 184.20358,87.599892 183.22335,87.599892 182.83395,88.432411 182.45797,89.251503 182.45797,92.326454 V 100.93363 H 180.21554 V 85.894569 H 182.45797 V 87.183632 Q 182.90109,86.377968 183.55905,85.961708 184.23043,85.532021 185.07638,85.532021 186.09689,85.532021 186.76828,86.001991 187.45309,86.471962 187.82907,87.425331 Z"
         id="path28" />
      <path
         d="M 195.30832,80.886024 H 197.95358 L 199.87374,97.160439 202.15646,86.391396 H 204.98971 L 207.29928,97.187294 209.21945,80.886024 H 211.86471 L 208.87033,100.93363 H 206.30563 L 203.5798,89.023232 200.8674,100.93363 H 198.3027 Z"
         id="path30" />
      <path
         d="M 226.79635,92.796425 V 94.004921 H 216.09445 V 94.085487 Q 216.09445,96.542763 217.37008,97.885536 218.65915,99.22831 220.99557,99.22831 222.17721,99.22831 223.46627,98.852333 224.75534,98.476357 226.21896,97.710976 V 100.16825 Q 224.80905,100.74564 223.49313,101.02763 222.19064,101.32304 220.96872,101.32304 217.46408,101.32304 215.4902,99.22831 213.51632,97.120155 213.51632,93.427528 213.51632,89.828896 215.44992,87.680458 217.38351,85.532021 220.60617,85.532021 223.4797,85.532021 225.13131,87.479042 226.79635,89.426064 226.79635,92.796425 Z M 224.32565,92.071327 Q 224.27194,89.896034 223.29171,88.768105 222.32492,87.626747 220.49874,87.626747 218.71286,87.626747 217.55807,88.808388 216.40329,89.990028 216.18844,92.084755 Z"
         id="path32" />
      <path
         d="M 243.93014,88.996376 Q 243.13791,88.3787 242.31881,88.096718 241.49972,87.814735 240.5195,87.814735 238.20993,87.814735 236.988,89.264931 235.76608,90.715126 235.76608,93.454384 V 100.93363 H 233.28195 V 85.894569 H 235.76608 V 88.835243 Q 236.38375,87.237343 237.65939,86.391396 238.94845,85.532021 240.70749,85.532021 241.62057,85.532021 242.41281,85.760292 243.20504,85.988564 243.93014,86.471962 Z"
         id="path34" />
      <path
         d="M 254.40377,93.373817 H 253.58468 Q 251.42282,93.373817 250.32174,94.139198 249.2341,94.891151 249.2341,96.395058 249.2341,97.751259 250.05319,98.503212 250.87228,99.255165 252.32248,99.255165 254.36349,99.255165 255.5317,97.845253 256.69992,96.421913 256.71334,93.924355 V 93.373817 Z M 259.19748,92.35331 V 100.93363 H 256.71334 V 98.704628 Q 255.92111,100.0474 254.71261,100.69193 253.51754,101.32304 251.79879,101.32304 249.50265,101.32304 248.13302,100.03397 246.76339,98.731483 246.76339,96.55619 246.76339,94.045204 248.44186,92.742714 250.13375,91.440224 253.39669,91.440224 H 256.71334 V 91.050819 Q 256.69992,89.251503 255.80026,88.445839 254.9006,87.626747 252.92672,87.626747 251.66452,87.626747 250.37545,87.989296 249.08639,88.351845 247.86447,89.050087 V 86.579384 Q 249.2341,86.055702 250.48288,85.800575 251.74508,85.532021 252.92672,85.532021 254.79318,85.532021 256.1091,86.082558 257.43844,86.633095 258.25753,87.734169 258.76779,88.405556 258.98263,89.399208 259.19748,90.379433 259.19748,92.35331 Z"
         id="path36" />
      <path
         d="M 279.95675,80.886024 H 283.39425 L 290.16183,97.38871 V 80.886024 H 292.78024 V 100.93363 H 289.34274 L 282.57516,84.430946 V 100.93363 H 279.95675 Z"
         id="path38" />
      <path
         d="M 309.57833,92.796425 V 94.004921 H 298.87643 V 94.085487 Q 298.87643,96.542763 300.15207,97.885536 301.44113,99.22831 303.77755,99.22831 304.95919,99.22831 306.24826,98.852333 307.53732,98.476357 309.00094,97.710976 V 100.16825 Q 307.59103,100.74564 306.27511,101.02763 304.97262,101.32304 303.7507,101.32304 300.24606,101.32304 298.27218,99.22831 296.29831,97.120155 296.29831,93.427528 296.29831,89.828896 298.2319,87.680458 300.16549,85.532021 303.38815,85.532021 306.26168,85.532021 307.9133,87.479042 309.57833,89.426064 309.57833,92.796425 Z M 307.10763,92.071327 Q 307.05392,89.896034 306.0737,88.768105 305.1069,87.626747 303.28073,87.626747 301.49484,87.626747 300.34005,88.808388 299.18527,89.990028 298.97042,92.084755 Z"
         id="path40" />
      <path
         d="M 326.71212,88.996376 Q 325.91989,88.3787 325.1008,88.096718 324.2817,87.814735 323.30148,87.814735 320.99191,87.814735 319.76999,89.264931 318.54806,90.715126 318.54806,93.454384 V 100.93363 H 316.06393 V 85.894569 H 318.54806 V 88.835243 Q 319.16574,87.237343 320.44137,86.391396 321.73043,85.532021 323.48947,85.532021 324.40255,85.532021 325.19479,85.760292 325.98703,85.988564 326.71212,86.471962 Z"
         id="path42" />
      <path
         d="M 339.28048,87.814735 V 80.040077 H 341.75119 V 100.93363 H 339.28048 V 99.040321 Q 338.66281,100.15482 337.62887,100.74564 336.60836,101.32304 335.26559,101.32304 332.53976,101.32304 330.96872,99.214882 329.4111,97.0933 329.4111,93.373817 329.4111,89.708046 330.98214,87.626747 332.55319,85.532021 335.26559,85.532021 336.62179,85.532021 337.65573,86.122841 338.68966,86.700233 339.28048,87.814735 Z M 332.01608,93.427528 Q 332.01608,96.301064 332.92916,97.764687 333.84225,99.22831 335.62814,99.22831 337.41403,99.22831 338.34054,97.751259 339.28048,96.274208 339.28048,93.427528 339.28048,90.567421 338.34054,89.103798 337.41403,87.626747 335.62814,87.626747 333.84225,87.626747 332.92916,89.09037 332.01608,90.553993 332.01608,93.427528 Z"
         id="path44" />
      <path
         d="M 364.00094,80.886024 H 375.80392 V 83.168739 H 366.72677 V 89.076942 H 374.95797 V 91.359657 H 366.72677 V 100.93363 H 364.00094 Z"
         id="path46" />
      <path
         d="M 385.70016,87.626747 Q 383.82028,87.626747 382.85348,89.09037 381.88668,90.553993 381.88668,93.427528 381.88668,96.287636 382.85348,97.764687 383.82028,99.22831 385.70016,99.22831 387.59347,99.22831 388.56027,97.764687 389.52707,96.287636 389.52707,93.427528 389.52707,90.553993 388.56027,89.09037 387.59347,87.626747 385.70016,87.626747 Z M 385.70016,85.532021 Q 388.82882,85.532021 390.48043,87.559608 392.14547,89.587196 392.14547,93.427528 392.14547,97.281288 390.49386,99.308876 388.84225,101.32304 385.70016,101.32304 382.5715,101.32304 380.91989,99.308876 379.26828,97.281288 379.26828,93.427528 379.26828,89.587196 380.91989,87.559608 382.5715,85.532021 385.70016,85.532021 Z"
         id="path48" />
      <path
         d="M 408.09762,91.614784 V 100.93363 H 405.61349 V 91.614784 Q 405.61349,89.587196 404.90182,88.633827 404.19015,87.680458 402.67282,87.680458 400.94064,87.680458 400.0007,88.91581 399.07418,90.137733 399.07418,92.433876 V 100.93363 H 396.60348 V 85.894569 H 399.07418 V 88.150429 Q 399.73214,86.861366 400.86007,86.203407 401.988,85.532021 403.53219,85.532021 405.82833,85.532021 406.95626,87.049355 408.09762,88.553261 408.09762,91.614784 Z"
         id="path50" />
      <path
         d="M 418.7861,81.62455 V 85.894569 H 424.39889 V 87.814735 H 418.7861 V 95.978798 Q 418.7861,97.643837 419.4172,98.301796 420.04831,98.959755 421.61935,98.959755 H 424.39889 V 100.93363 H 421.37765 Q 418.59811,100.93363 417.45675,99.81913 416.3154,98.704628 416.3154,95.978798 V 87.814735 H 412.3005 V 85.894569 H 416.3154 V 81.62455 Z"
         id="path52" />
    </g>
    <g
       aria-label="abcdefghijklmnopqrstuvwxyzABCDEFGHIJKLMNOPQRSTUVWXYZ oO08 iIlL1 {} [] g9qCGQ ~-+=&gt;"
       id="text4140"
       style="font-size:17.5px;font-family:'BitstromWera Nerd Font';letter-spacing:0px;word-spacing:0px;fill:#ffffff">
      <path
         d="M 71.417938,136.12283 H 70.896698 Q 69.520966,136.12283 68.820282,136.60989 68.128143,137.08841 68.128143,138.04544 68.128143,138.90848 68.649384,139.38699 69.170624,139.86551 70.093475,139.86551 71.392303,139.86551 72.135712,138.96829 72.87912,138.06253 72.887665,136.47318 V 136.12283 Z M 74.468475,135.47342 V 140.93362 H 72.887665 V 139.51517 Q 72.383514,140.36966 71.614471,140.77982 70.853973,141.18143 69.760223,141.18143 68.299042,141.18143 67.42746,140.36111 66.555878,139.53226 66.555878,138.14798 66.555878,136.55008 67.623993,135.72122 68.700653,134.89236 70.777069,134.89236 H 72.887665 V 134.64456 Q 72.87912,133.49954 72.30661,132.98685 71.7341,132.46561 70.477997,132.46561 69.674774,132.46561 68.854462,132.69632 68.034149,132.92703 67.256561,133.37137 V 131.7991 Q 68.128143,131.46585 68.922821,131.3035 69.726044,131.1326 70.477997,131.1326 71.665741,131.1326 72.503143,131.48294 73.349091,131.83328 73.870331,132.53397 74.195038,132.96121 74.331757,133.59354 74.468475,134.21732 74.468475,135.47342 Z"
         id="path55" />
      <path
         d="M 83.79953,136.15701 Q 83.79953,134.3284 83.218475,133.397 82.637421,132.46561 81.500946,132.46561 80.355927,132.46561 79.766327,133.40555 79.176727,134.33694 79.176727,136.15701 79.176727,137.96854 79.766327,138.90848 80.355927,139.84842 81.500946,139.84842 82.637421,139.84842 83.218475,138.91702 83.79953,137.98563 83.79953,136.15701 Z M 79.176727,132.58524 Q 79.552704,131.88455 80.210663,131.50858 80.877167,131.1326 81.748749,131.1326 83.474823,131.1326 84.466034,132.46561 85.457245,133.79007 85.457245,136.12283 85.457245,138.48978 84.457489,139.83987 83.466278,141.18143 81.731659,141.18143 80.877167,141.18143 80.219208,140.814 79.569794,140.43802 79.176727,139.72879 V 140.93362 H 77.604462 V 127.63773 H 79.176727 Z"
         id="path57" />
      <path
         d="M 95.557343,140.44656 Q 94.925018,140.814 94.249969,140.99344 93.583466,141.18143 92.882782,141.18143 90.661102,141.18143 89.404999,139.84842 88.15744,138.51541 88.15744,136.15701 88.15744,133.79861 89.404999,132.46561 90.661102,131.1326 92.882782,131.1326 93.574921,131.1326 94.23288,131.31204 94.890839,131.49149 95.557343,131.86746 V 133.51663 Q 94.933563,132.96121 94.301239,132.71341 93.67746,132.46561 92.882782,132.46561 91.40451,132.46561 90.609833,133.42264 89.815155,134.37967 89.815155,136.15701 89.815155,137.92581 90.609833,138.89139 91.413055,139.84842 92.882782,139.84842 93.703094,139.84842 94.352509,139.60062 95.001923,139.34427 95.557343,138.81448 Z"
         id="path59" />
      <path
         d="M 104.35861,132.58524 V 127.63773 H 105.93088 V 140.93362 H 104.35861 V 139.72879 Q 103.96555,140.43802 103.30759,140.814 102.65817,141.18143 101.80368,141.18143 100.06906,141.18143 99.069305,139.83987 98.078094,138.48978 98.078094,136.12283 98.078094,133.79007 99.07785,132.46561 100.07761,131.1326 101.80368,131.1326 102.66672,131.1326 103.32468,131.50858 103.98264,131.87601 104.35861,132.58524 Z M 99.735809,136.15701 Q 99.735809,137.98563 100.31686,138.91702 100.89792,139.84842 102.03439,139.84842 103.17087,139.84842 103.76047,138.90848 104.35861,137.96854 104.35861,136.15701 104.35861,134.33694 103.76047,133.40555 103.17087,132.46561 102.03439,132.46561 100.89792,132.46561 100.31686,133.397 99.735809,134.3284 99.735809,136.15701 Z"
         id="path61" />
      <path
         d="M 117.06491,135.7554 V 136.52444 H 110.25461 V 136.57571 Q 110.25461,138.13943 111.06638,138.99393 111.88669,139.84842 113.3735,139.84842 114.12546,139.84842 114.94577,139.60916 115.76608,139.3699 116.69748,138.88284 V 140.44656 Q 115.80026,140.814 114.96286,140.99344 114.134,141.18143 113.35641,141.18143 111.12619,141.18143 109.87009,139.84842 108.61398,138.50687 108.61398,136.15701 108.61398,133.86697 109.84445,132.49979 111.07492,131.1326 113.1257,131.1326 114.95432,131.1326 116.00534,132.37161 117.06491,133.61063 117.06491,135.7554 Z M 115.49265,135.29398 Q 115.45847,133.9097 114.83469,133.19193 114.21945,132.46561 113.05734,132.46561 111.92087,132.46561 111.186,133.21756 110.45114,133.96951 110.31442,135.30252 Z"
         id="path63" />
      <path
         d="M 127.1821,127.63773 V 128.9451 H 125.39621 Q 124.55026,128.9451 124.21701,129.29544 123.8923,129.63724 123.8923,130.51736 V 131.36331 H 127.1821 V 132.58524 H 123.8923 V 140.93362 H 122.32004 V 132.58524 H 119.76511 V 131.36331 H 122.32004 V 130.69681 Q 122.32004,129.12454 123.03781,128.38113 123.76413,127.63773 125.29367,127.63773 Z"
         id="path65" />
      <path
         d="M 135.96628,136.07156 Q 135.96628,134.30276 135.38522,133.38846 134.81271,132.46561 133.71042,132.46561 132.55685,132.46561 131.95016,133.38846 131.34348,134.30276 131.34348,136.07156 131.34348,137.84036 131.95016,138.77176 132.5654,139.69461 133.72751,139.69461 134.81271,139.69461 135.38522,138.76321 135.96628,137.83182 135.96628,136.07156 Z M 137.53854,140.31839 Q 137.53854,142.47171 136.5217,143.58255 135.50485,144.69339 133.53098,144.69339 132.88156,144.69339 132.17233,144.57376 131.4631,144.45413 130.75388,144.22342 V 142.66824 Q 131.59128,143.06131 132.27487,143.2493 132.95847,143.43729 133.53098,143.43729 134.80417,143.43729 135.38522,142.74515 135.96628,142.05301 135.96628,140.5491 V 140.48074 139.41263 Q 135.5903,140.21585 134.94089,140.60892 134.29147,141.00198 133.36008,141.00198 131.68527,141.00198 130.68552,139.66043 129.68576,138.31888 129.68576,136.07156 129.68576,133.8157 130.68552,132.47415 131.68527,131.1326 133.36008,131.1326 134.28293,131.1326 134.9238,131.50003 135.56467,131.86746 135.96628,132.63651 V 131.39749 H 137.53854 Z"
         id="path67" />
      <path
         d="M 148.15134,135.00345 V 140.93362 H 146.57053 V 135.00345 Q 146.57053,133.71317 146.11765,133.10648 145.66476,132.49979 144.69919,132.49979 143.59689,132.49979 142.99875,133.28592 142.40915,134.06351 142.40915,135.52469 V 140.93362 H 140.83688 V 127.63773 H 142.40915 V 132.79886 Q 142.82785,131.97855 143.54562,131.55984 144.2634,131.1326 145.24606,131.1326 146.70724,131.1326 147.42502,132.09818 148.15134,133.05521 148.15134,135.00345 Z"
         id="path69" />
      <path
         d="M 151.89401,131.36331 H 155.91867 V 139.7117 H 159.03757 V 140.93362 H 151.22751 V 139.7117 H 154.34641 V 132.58524 H 151.89401 Z M 154.34641,127.63773 H 155.91867 V 129.62869 H 154.34641 Z"
         id="path71" />
      <path
         d="M 165.36935,141.10452 V 132.58524 H 162.66061 V 131.36331 H 166.94162 V 141.10452 Q 166.94162,142.77078 166.17258,143.668 165.41208,144.57376 164.00217,144.57376 H 161.83176 V 143.24075 H 163.83127 Q 164.60031,143.24075 164.98483,142.70242 165.36935,142.17264 165.36935,141.10452 Z M 165.36935,127.63773 H 166.94162 V 129.62869 H 165.36935 Z"
         id="path73" />
      <path
         d="M 172.79489,127.63773 H 174.41843 V 135.3367 L 178.54562,131.36331 H 180.45969 L 176.69138,134.96927 181.04929,140.93362 H 179.12668 L 175.58908,135.99466 174.41843,137.09695 V 140.93362 H 172.79489 Z"
         id="path75" />
      <path
         d="M 186.77438,137.46439 Q 186.77438,138.52396 187.15891,139.06229 187.55197,139.60062 188.31247,139.60062 H 190.14963 V 140.93362 H 188.15866 Q 186.74875,140.93362 185.97116,140.02786 185.20212,139.1221 185.20212,137.46439 V 128.7742 H 182.68137 V 127.54373 H 186.77438 Z"
         id="path77" />
      <path
         d="M 197.62643,132.33743 Q 197.91696,131.7222 198.3613,131.43167 198.81418,131.1326 199.4465,131.1326 200.60007,131.1326 201.07004,132.02982 201.54855,132.91849 201.54855,135.38797 V 140.93362 H 200.11301 V 135.45633 Q 200.11301,133.43118 199.88229,132.94412 199.66013,132.44852 199.06198,132.44852 198.37839,132.44852 198.12204,132.9783 197.87424,133.49954 197.87424,135.45633 V 140.93362 H 196.43869 V 135.45633 Q 196.43869,133.40555 196.19089,132.92703 195.95163,132.44852 195.31931,132.44852 194.69553,132.44852 194.44772,132.9783 194.20847,133.49954 194.20847,135.45633 V 140.93362 H 192.78146 V 131.36331 H 194.20847 V 132.18362 Q 194.49045,131.67093 194.90915,131.40604 195.3364,131.1326 195.87473,131.1326 196.52414,131.1326 196.95139,131.43167 197.38718,131.73074 197.62643,132.33743 Z"
         id="path79" />
      <path
         d="M 211.36667,135.00345 V 140.93362 H 209.78586 V 135.00345 Q 209.78586,133.71317 209.33298,133.10648 208.8801,132.49979 207.91452,132.49979 206.81223,132.49979 206.21408,133.28592 205.62448,134.06351 205.62448,135.52469 V 140.93362 H 204.05222 V 131.36331 H 205.62448 V 132.79886 Q 206.04318,131.97855 206.76096,131.55984 207.47873,131.1326 208.4614,131.1326 209.92258,131.1326 210.64035,132.09818 211.36667,133.05521 211.36667,135.00345 Z"
         id="path81" />
      <path
         d="M 218.18552,132.46561 Q 216.98923,132.46561 216.37399,133.397 215.75876,134.3284 215.75876,136.15701 215.75876,137.97708 216.37399,138.91702 216.98923,139.84842 218.18552,139.84842 219.39035,139.84842 220.00558,138.91702 220.62082,137.97708 220.62082,136.15701 220.62082,134.3284 220.00558,133.397 219.39035,132.46561 218.18552,132.46561 Z M 218.18552,131.1326 Q 220.17648,131.1326 221.22751,132.42288 222.28708,133.71317 222.28708,136.15701 222.28708,138.60941 221.23605,139.89969 220.18503,141.18143 218.18552,141.18143 216.19455,141.18143 215.14352,139.89969 214.0925,138.60941 214.0925,136.15701 214.0925,133.71317 215.14352,132.42288 216.19455,131.1326 218.18552,131.1326 Z"
         id="path83" />
      <path
         d="M 226.66208,139.72879 V 144.57376 H 225.08127 V 131.36331 H 226.66208 V 132.58524 Q 227.05515,131.87601 227.70456,131.50858 228.36252,131.1326 229.21701,131.1326 230.95163,131.1326 231.9343,132.47415 232.92551,133.8157 232.92551,136.19119 232.92551,138.52396 231.9343,139.85696 230.94308,141.18143 229.21701,141.18143 228.34543,141.18143 227.68747,140.814 227.03806,140.43802 226.66208,139.72879 Z M 231.27634,136.15701 Q 231.27634,134.3284 230.69528,133.397 230.12277,132.46561 228.9863,132.46561 227.84128,132.46561 227.25168,133.40555 226.66208,134.33694 226.66208,136.15701 226.66208,137.96854 227.25168,138.90848 227.84128,139.84842 228.9863,139.84842 230.12277,139.84842 230.69528,138.91702 231.27634,137.98563 231.27634,136.15701 Z"
         id="path85" />
      <path
         d="M 236.83054,136.19119 Q 236.83054,138.01981 237.40305,138.9512 237.9841,139.8826 239.12057,139.8826 240.25705,139.8826 240.8381,138.9512 241.4277,138.01126 241.4277,136.19119 241.4277,134.37112 240.8381,133.43973 240.25705,132.49979 239.12057,132.49979 237.9841,132.49979 237.40305,133.43118 236.83054,134.36258 236.83054,136.19119 Z M 241.4277,139.74588 Q 241.04318,140.45511 240.38522,140.83963 239.73581,141.21561 238.87277,141.21561 237.15524,141.21561 236.15549,139.89114 235.16428,138.55814 235.16428,136.22537 235.16428,133.84988 236.15549,132.50833 237.1467,131.16678 238.87277,131.16678 239.72726,131.16678 240.37668,131.54276 241.03464,131.91019 241.4277,132.61942 V 131.39749 H 243.00851 V 144.60794 H 241.4277 Z"
         id="path87" />
      <path
         d="M 254.3989,133.33719 Q 253.89474,132.94412 253.3735,132.76468 252.85226,132.58524 252.22849,132.58524 250.75876,132.58524 249.98117,133.50809 249.20358,134.43094 249.20358,136.1741 V 140.93362 H 247.62277 V 131.36331 H 249.20358 V 133.23465 Q 249.59665,132.2178 250.40842,131.67947 251.22873,131.1326 252.34811,131.1326 252.92917,131.1326 253.43332,131.27786 253.93747,131.42313 254.3989,131.73074 Z"
         id="path89" />
      <path
         d="M 263.37961,131.69656 V 133.23465 Q 262.70456,132.84158 262.02097,132.64505 261.33737,132.44852 260.62814,132.44852 259.56003,132.44852 259.03024,132.79886 258.509,133.14066 258.509,133.84988 258.509,134.49075 258.90207,134.80692 259.29514,135.12308 260.85886,135.42215 L 261.49118,135.54178 Q 262.66183,135.76395 263.25998,136.43045 263.86667,137.09695 263.86667,138.16507 263.86667,139.58353 262.85837,140.38675 261.85007,141.18143 260.05563,141.18143 259.34641,141.18143 258.56882,141.02762 257.79123,140.88235 256.88547,140.58328 V 138.95975 Q 257.76559,139.41263 258.56882,139.64334 259.37204,139.86551 260.08981,139.86551 261.13229,139.86551 261.7048,139.44681 262.27731,139.01956 262.27731,138.25906 262.27731,137.16531 260.18381,136.74661 L 260.11545,136.72952 259.52585,136.60989 Q 258.16721,136.345 257.54343,135.72122 256.91965,135.0889 256.91965,134.00369 256.91965,132.62796 257.85104,131.88455 258.78244,131.1326 260.50851,131.1326 261.27756,131.1326 261.98679,131.27786 262.69601,131.41458 263.37961,131.69656 Z"
         id="path91" />
      <path
         d="M 270.84787,128.64603 V 131.36331 H 274.41965 V 132.58524 H 270.84787 V 137.78055 Q 270.84787,138.84012 271.24948,139.25882 271.65109,139.67752 272.65085,139.67752 H 274.41965 V 140.93362 H 272.49704 Q 270.72824,140.93362 270.00192,140.2244 269.2756,139.51517 269.2756,137.78055 V 132.58524 H 266.72067 V 131.36331 H 269.2756 V 128.64603 Z"
         id="path93" />
      <path
         d="M 277.80344,137.31058 V 131.3804 H 279.3757 V 137.31058 Q 279.3757,138.60086 279.82858,139.20755 280.29001,139.81424 281.24704,139.81424 282.35788,139.81424 282.94748,139.03665 283.53708,138.25052 283.53708,136.78934 V 131.3804 H 285.11789 V 140.93362 H 283.53708 V 139.49808 Q 283.11838,140.32693 282.39206,140.75418 281.67429,141.18143 280.70871,141.18143 279.23898,141.18143 278.52121,140.2244 277.80344,139.25882 277.80344,137.31058 Z"
         id="path95" />
      <path
         d="M 287.52756,131.36331 H 289.15964 L 291.93674,139.39554 294.72238,131.36331 H 296.35446 L 292.95358,140.93362 H 290.92844 Z"
         id="path97" />
      <path
         d="M 297.20895,131.36331 H 298.76413 L 300.43039,139.09647 301.79758,134.1575 H 303.13913 L 304.52341,139.09647 306.18967,131.36331 H 307.74484 L 305.50607,140.93362 H 304.00217 L 302.47263,135.68704 300.95163,140.93362 H 299.44772 Z"
         id="path99" />
      <path
         d="M 317.29807,131.36331 313.87155,135.94339 317.63132,140.93362 H 315.81125 L 313.00851,137.09695 310.21432,140.93362 H 308.39426 L 312.15402,135.94339 308.72751,131.36331 H 310.47067 L 313.00851,134.82401 315.52927,131.36331 Z"
         id="path101" />
      <path
         d="M 325.61227,137.85745 Q 325.21921,138.85721 324.61252,140.48929 323.76657,142.74515 323.47604,143.24075 323.08298,143.90726 322.49338,144.24051 321.90378,144.57376 321.11765,144.57376 H 319.853 V 143.25784 H 320.78439 Q 321.47653,143.25784 321.8696,142.85623 322.26266,142.45462 322.86935,140.77982 L 319.1694,131.36331 H 320.83566 L 323.67258,138.84866 326.46677,131.36331 H 328.13303 Z"
         id="path103" />
      <path
         d="M 330.75632,131.34622 H 337.70334 V 132.78177 L 332.20895,139.65189 H 337.70334 V 140.93362 H 330.55124 V 139.48099 L 336.04562,132.60233 H 330.75632 Z"
         id="path105" />
      <path
         d="M 70.683075,151.57205 68.863007,158.10037 H 72.503143 Z M 69.640594,150.05106 H 71.7341 L 75.63913,162.80862 H 73.853241 L 72.9133,159.48465 H 68.444305 L 67.521454,162.80862 H 65.735565 Z"
         id="path107" />
      <path
         d="M 79.108368,156.71609 V 161.39017 H 81.150604 Q 82.65451,161.39017 83.29538,160.86893 83.936249,160.33914 83.936249,159.13431 83.936249,157.88675 83.2612,157.30569 82.586151,156.71609 81.150604,156.71609 Z M 79.108368,151.46951 V 155.31473 H 81.116425 Q 82.363983,155.31473 82.919403,154.83621 83.483368,154.3577 83.483368,153.28958 83.483368,152.32401 82.927948,151.89676 82.381073,151.46951 81.116425,151.46951 Z M 77.373749,150.05106 H 81.150604 Q 83.107391,150.05106 84.166962,150.897 85.226532,151.74295 85.226532,153.28958 85.226532,154.46024 84.662567,155.13528 84.107147,155.81033 82.987762,155.98123 84.243866,156.16922 84.953094,157.05789 85.670868,157.93802 85.670868,159.30521 85.670868,161.03983 84.534393,161.9285 83.397919,162.80862 81.150604,162.80862 H 77.373749 Z"
         id="path109" />
      <path
         d="M 95.659882,162.35574 Q 95.001923,162.70609 94.309784,162.87698 93.617645,163.05643 92.840057,163.05643 90.387665,163.05643 89.029022,161.32181 87.678925,159.58719 87.678925,156.44266 87.678925,153.31522 89.037567,151.57205 90.404755,149.82034 92.840057,149.82034 93.617645,149.82034 94.309784,149.99979 95.001923,150.17068 95.659882,150.52103 V 152.28983 Q 95.027557,151.76859 94.301239,151.49515 93.574921,151.22171 92.840057,151.22171 91.156708,151.22171 90.319305,152.52054 89.481903,153.81937 89.481903,156.44266 89.481903,159.0574 90.319305,160.35623 91.156708,161.65506 92.840057,161.65506 93.59201,161.65506 94.309784,161.38162 95.036102,161.10818 95.659882,160.58694 Z"
         id="path111" />
      <path
         d="M 100.75266,161.39017 Q 102.93161,161.39017 103.79465,160.32205 104.65768,159.24539 104.65768,156.44266 104.65768,153.61429 103.79465,152.54617 102.94016,151.46951 100.75266,151.46951 H 99.932343 V 161.39017 Z M 100.78683,150.05106 Q 103.7092,150.05106 105.09348,151.60623 106.47775,153.16141 106.47775,156.44266 106.47775,159.70682 105.09348,161.26199 103.7092,162.80862 100.78683,162.80862 H 98.197723 V 150.05106 Z"
         id="path113" />
      <path
         d="M 109.24631,150.05106 H 116.81711 V 151.50369 H 110.97238 V 155.28055 H 116.56076 V 156.73318 H 110.97238 V 161.35599 H 116.97946 V 162.80862 H 109.24631 Z"
         id="path115" />
      <path
         d="M 120.08981,150.05106 H 127.6008 V 151.50369 H 121.82443 V 155.26346 H 127.06247 V 156.71609 H 121.82443 V 162.80862 H 120.08981 Z"
         id="path117" />
      <path
         d="M 138.06833,161.7576 Q 137.37619,162.39847 136.50461,162.73172 135.64157,163.05643 134.63327,163.05643 132.20651,163.05643 130.85641,161.32181 129.50632,159.57864 129.50632,156.44266 129.50632,153.31522 130.8735,151.57205 132.24069,149.82034 134.67599,149.82034 135.47922,149.82034 136.21408,150.05106 136.94894,150.27322 137.63254,150.73465 V 152.50345 Q 136.9404,151.84549 136.21408,151.53787 135.48776,151.22171 134.67599,151.22171 132.99265,151.22171 132.1467,152.52908 131.3093,153.82791 131.3093,156.44266 131.3093,159.10013 132.12106,160.38187 132.94138,161.65506 134.63327,161.65506 135.20578,161.65506 135.63303,161.52689 136.06882,161.39017 136.41916,161.10818 V 157.68167 H 134.56491 V 156.26321 H 138.06833 Z"
         id="path119" />
      <path
         d="M 140.34128,150.05106 H 142.0759 V 155.28055 H 146.80124 V 150.05106 H 148.53586 V 162.80862 H 146.80124 V 156.73318 H 142.0759 V 162.80862 H 140.34128 Z"
         id="path121" />
      <path
         d="M 151.42404,150.05106 H 158.50778 V 151.50369 H 155.83322 V 161.35599 H 158.50778 V 162.80862 H 151.42404 V 161.35599 H 154.0986 V 151.50369 H 151.42404 Z"
         id="path123" />
      <path
         d="M 161.1738,162.28738 V 160.27078 Q 161.95139,160.96292 162.78024,161.31326 163.6091,161.65506 164.49777,161.65506 165.7197,161.65506 166.19821,161.02274 166.68527,160.38187 166.68527,158.64725 V 151.50369 H 163.42966 V 150.05106 H 168.41135 V 158.64725 Q 168.41135,161.05692 167.50558,162.05667 166.60837,163.05643 164.49777,163.05643 163.67746,163.05643 162.86569,162.86844 162.05392,162.68045 161.1738,162.28738 Z"
         id="path125" />
      <path
         d="M 171.94894,150.05106 H 173.68356 V 155.72488 L 179.07541,150.05106 H 181.10056 L 176.13596,155.26346 181.24582,162.80862 H 179.16086 L 174.99948,156.41702 173.68356,157.81839 V 162.80862 H 171.94894 Z"
         id="path127" />
      <path
         d="M 183.15134,150.05106 H 184.88596 V 161.35599 H 191.04684 V 162.80862 H 183.15134 Z"
         id="path129" />
      <path
         d="M 192.58493,150.05106 H 194.89206 L 197.09665,156.5452 199.31833,150.05106 H 201.634 V 162.80862 H 200.0361 V 151.53787 L 197.76315,158.26273 H 196.45578 L 194.17429,151.53787 V 162.80862 H 192.58493 Z"
         id="path131" />
      <path
         d="M 203.5737,150.05106 H 205.7612 L 210.06784,160.55276 V 150.05106 H 211.7341 V 162.80862 H 209.5466 L 205.23996,152.30692 V 162.80862 H 203.5737 Z"
         id="path133" />
      <path
         d="M 220.655,156.44266 Q 220.655,153.63138 220.07394,152.42654 219.50143,151.22171 218.18552,151.22171 216.87814,151.22171 216.29709,152.42654 215.72458,153.63138 215.72458,156.44266 215.72458,159.24539 216.29709,160.45023 216.87814,161.65506 218.18552,161.65506 219.50143,161.65506 220.07394,160.45877 220.655,159.25394 220.655,156.44266 Z M 222.45798,156.44266 Q 222.45798,159.77518 221.39841,161.4158 220.34738,163.05643 218.18552,163.05643 216.02365,163.05643 214.97263,161.42435 213.9216,159.79227 213.9216,156.44266 213.9216,153.10159 214.97263,151.46097 216.0322,149.82034 218.18552,149.82034 220.34738,149.82034 221.39841,151.46097 222.45798,153.10159 222.45798,156.44266 Z"
         id="path135" />
      <path
         d="M 226.86716,151.46951 V 156.26321 H 228.86667 Q 230.06296,156.26321 230.72946,155.63089 231.40451,154.99857 231.40451,153.86209 231.40451,152.72562 230.73801,152.10184 230.0715,151.46951 228.86667,151.46951 Z M 225.14108,150.05106 H 228.86667 Q 231.0029,150.05106 232.10519,151.02518 233.20749,151.99075 233.20749,153.86209 233.20749,155.75052 232.10519,156.71609 231.01144,157.68167 228.86667,157.68167 H 226.86716 V 162.80862 H 225.14108 Z"
         id="path137" />
      <path
         d="M 239.59055,163.03934 Q 239.53073,163.03934 239.41965,163.04788 239.30856,163.05643 239.2402,163.05643 237.10397,163.05643 236.0444,161.4158 234.99338,159.77518 234.99338,156.44266 234.99338,153.10159 236.0444,151.46097 237.10397,149.82034 239.25729,149.82034 241.41916,149.82034 242.47018,151.46097 243.52975,153.10159 243.52975,156.44266 243.52975,158.95486 242.94016,160.49295 242.3591,162.02249 241.17136,162.63773 L 242.88034,164.26126 241.59006,165.11575 Z M 241.72678,156.44266 Q 241.72678,153.63138 241.14572,152.42654 240.57321,151.22171 239.25729,151.22171 237.94992,151.22171 237.36887,152.42654 236.79636,153.63138 236.79636,156.44266 236.79636,159.24539 237.36887,160.45023 237.94992,161.65506 239.25729,161.65506 240.57321,161.65506 241.14572,160.45877 241.72678,159.25394 241.72678,156.44266 Z"
         id="path139" />
      <path
         d="M 251.02365,156.78445 Q 251.69016,156.95535 252.16013,157.43387 252.6301,157.90384 253.33078,159.3223 L 255.0654,162.80862 H 253.21115 L 251.69016,159.58719 Q 251.0322,158.21146 250.50241,157.81839 249.98117,157.41678 249.13522,157.41678 H 247.48605 V 162.80862 H 245.75143 V 150.05106 H 249.30612 Q 251.40817,150.05106 252.52756,150.99954 253.64694,151.94803 253.64694,153.74246 253.64694,155.00711 252.9548,155.81033 252.27121,156.60501 251.02365,156.78445 Z M 247.48605,151.46951 V 155.99832 H 249.37448 Q 250.61349,155.99832 251.22018,155.4429 251.82687,154.88748 251.82687,153.74246 251.82687,152.64017 251.17746,152.05911 250.53659,151.46951 249.30612,151.46951 Z"
         id="path141" />
      <path
         d="M 263.71286,150.48685 V 152.23856 Q 262.92673,151.73441 262.13205,151.47806 261.34592,151.22171 260.54269,151.22171 259.32077,151.22171 258.61154,151.79422 257.90231,152.35818 257.90231,153.32376 257.90231,154.16971 258.36374,154.61404 258.83371,155.05838 260.1069,155.35745 L 261.01266,155.56253 Q 262.8071,155.98123 263.62741,156.87845 264.44772,157.77567 264.44772,159.3223 264.44772,161.14236 263.31979,162.0994 262.19186,163.05643 260.03854,163.05643 259.14133,163.05643 258.23557,162.85989 257.3298,162.67191 256.4155,162.28738 V 160.45023 Q 257.39816,161.07401 258.26974,161.36453 259.14987,161.65506 260.03854,161.65506 261.34592,161.65506 262.07224,161.07401 262.79855,160.48441 262.79855,159.43338 262.79855,158.47635 262.2944,157.9722 261.7988,157.46805 260.55978,157.19461 L 259.63693,156.98099 Q 257.85959,156.57938 257.05637,155.76761 256.25314,154.95584 256.25314,153.58865 256.25314,151.87967 257.39816,150.85428 258.55173,149.82034 260.45724,149.82034 261.19211,149.82034 262.00388,149.99124 262.81564,150.15359 263.71286,150.48685 Z"
         id="path143" />
      <path
         d="M 266.0029,150.05106 H 275.73557 V 151.50369 H 271.74509 V 162.80862 H 270.01047 V 151.50369 H 266.0029 Z"
         id="path145" />
      <path
         d="M 277.39328,157.91238 V 150.05106 H 279.1279 V 158.69852 Q 279.1279,159.62991 279.17917,160.03152 279.23044,160.42459 279.35861,160.63821 279.63205,161.14236 280.14474,161.39871 280.66599,161.65506 281.40085,161.65506 282.14426,161.65506 282.65695,161.39871 283.16965,161.14236 283.45163,160.63821 283.5798,160.42459 283.63107,160.03152 283.68234,159.63846 283.68234,158.71561 V 157.91238 150.05106 H 285.40842 V 157.91238 Q 285.40842,159.86917 285.16061,160.69803 284.92136,161.51834 284.32321,162.05667 283.75925,162.56082 283.03293,162.80862 282.30661,163.05643 281.40085,163.05643 280.50363,163.05643 279.77731,162.80862 279.05099,162.56082 278.47849,162.05667 277.88889,161.52689 277.64108,160.68948 277.39328,159.84354 277.39328,157.91238 Z"
         id="path147" />
      <path
         d="M 291.93674,161.35599 294.936,150.05106 H 296.72189 L 292.98776,162.80862 H 290.89426 L 287.16013,150.05106 H 288.94601 Z"
         id="path149" />
      <path
         d="M 297.20895,150.05106 H 298.8923 L 300.11423,160.4075 301.56686,153.55447 H 303.36984 L 304.83957,160.42459 306.06149,150.05106 H 307.74484 L 305.83932,162.80862 H 304.20724 L 302.47263,155.22928 300.74655,162.80862 H 299.11447 Z"
         id="path151" />
      <path
         d="M 308.47971,150.05106 H 310.33395 L 313.13669,154.86185 315.99069,150.05106 H 317.84494 L 314.02536,156.04959 318.11838,162.80862 H 316.26413 L 313.13669,157.31424 309.76144,162.80862 H 307.89865 L 312.17111,156.04959 Z"
         id="path153" />
      <path
         d="M 318.59689,150.05106 H 320.43405 L 323.5444,155.68216 326.64621,150.05106 H 328.50046 L 324.40744,157.08353 V 162.80862 H 322.67282 V 157.08353 Z"
         id="path155" />
      <path
         d="M 330.33762,150.05106 H 338.61765 V 151.36697 L 331.95261,161.35599 H 338.80563 V 162.80862 H 330.14963 V 161.49271 L 336.63522,151.50369 H 330.33762 Z"
         id="path157" />
      <path
         d="M 70.683075,176.21561 Q 69.486786,176.21561 68.871552,177.147 68.256317,178.0784 68.256317,179.90701 68.256317,181.72708 68.871552,182.66702 69.486786,183.59842 70.683075,183.59842 71.887909,183.59842 72.503143,182.66702 73.118378,181.72708 73.118378,179.90701 73.118378,178.0784 72.503143,177.147 71.887909,176.21561 70.683075,176.21561 Z M 70.683075,174.8826 Q 72.674042,174.8826 73.725067,176.17288 74.784637,177.46317 74.784637,179.90701 74.784637,182.35941 73.733612,183.64969 72.682587,184.93143 70.683075,184.93143 68.692108,184.93143 67.641083,183.64969 66.590057,182.35941 66.590057,179.90701 66.590057,177.46317 67.641083,176.17288 68.692108,174.8826 70.683075,174.8826 Z"
         id="path159" />
      <path
         d="M 83.688446,178.31766 Q 83.688446,175.50638 83.107391,174.30154 82.534882,173.09671 81.218964,173.09671 79.911591,173.09671 79.330536,174.30154 78.758026,175.50638 78.758026,178.31766 78.758026,181.12039 79.330536,182.32523 79.911591,183.53006 81.218964,183.53006 82.534882,183.53006 83.107391,182.33377 83.688446,181.12894 83.688446,178.31766 Z M 85.491425,178.31766 Q 85.491425,181.65018 84.431854,183.2908 83.380829,184.93143 81.218964,184.93143 79.057098,184.93143 78.006073,183.29935 76.955048,181.66727 76.955048,178.31766 76.955048,174.97659 78.006073,173.33597 79.065643,171.69534 81.218964,171.69534 83.380829,171.69534 84.431854,173.33597 85.491425,174.97659 85.491425,178.31766 Z"
         id="path161" />
      <path
         d="M 90.618378,178.27493 Q 90.618378,177.80496 90.943085,177.46317 91.276337,177.12137 91.737762,177.12137 92.216278,177.12137 92.558075,177.46317 92.899872,177.80496 92.899872,178.27493 92.899872,178.75345 92.558075,179.0867 92.224823,179.41995 91.737762,179.41995 91.259247,179.41995 90.93454,179.09525 90.618378,178.77054 90.618378,178.27493 Z M 91.754852,173.06253 Q 90.550018,173.06253 89.951874,174.36136 89.362274,175.66019 89.362274,178.31766 89.362274,180.96658 89.951874,182.26541 90.550018,183.56424 91.754852,183.56424 92.968231,183.56424 93.557831,182.26541 94.155975,180.96658 94.155975,178.31766 94.155975,175.66019 93.557831,174.36136 92.968231,173.06253 91.754852,173.06253 Z M 91.754852,171.69534 Q 93.797089,171.69534 94.839569,173.37015 95.890594,175.04495 95.890594,178.31766 95.890594,181.58182 94.839569,183.25662 93.797089,184.93143 91.754852,184.93143 89.712616,184.93143 88.670135,183.25662 87.627655,181.58182 87.627655,178.31766 87.627655,175.04495 88.670135,173.37015 89.712616,171.69534 91.754852,171.69534 Z"
         id="path163" />
      <path
         d="M 102.29074,178.62527 Q 101.13718,178.62527 100.50485,179.27469 99.881073,179.91556 99.881073,181.09476 99.881073,182.27396 100.5134,182.93192 101.15427,183.58133 102.29074,183.58133 103.45285,183.58133 104.07663,182.94046 104.70895,182.29105 104.70895,181.09476 104.70895,179.9241 104.06808,179.27469 103.43576,178.62527 102.29074,178.62527 Z M 100.78683,177.9075 Q 99.68454,177.62552 99.06076,176.85648 98.445526,176.08743 98.445526,175.00223 98.445526,173.48123 99.479462,172.59256 100.5134,171.69534 102.29074,171.69534 104.07663,171.69534 105.11057,172.59256 106.1445,173.48123 106.1445,175.00223 106.1445,176.08743 105.52072,176.85648 104.90549,177.62552 103.80319,177.9075 105.08493,178.18948 105.75998,179.04398 106.44357,179.89847 106.44357,181.25711 106.44357,182.98318 105.34128,183.95731 104.23898,184.93143 102.29074,184.93143 100.3425,184.93143 99.240204,183.96585 98.146454,182.99173 98.146454,181.2742 98.146454,179.90701 98.821503,179.05252 99.505096,178.18948 100.78683,177.9075 Z M 100.16306,175.16458 Q 100.16306,176.18997 100.70993,176.7283 101.25681,177.26663 102.29074,177.26663 103.33322,177.26663 103.8801,176.7283 104.42697,176.18997 104.42697,175.16458 104.42697,174.1221 103.8801,173.57523 103.34177,173.02835 102.29074,173.02835 101.25681,173.02835 100.70993,173.58377 100.16306,174.13065 100.16306,175.16458 Z"
         id="path165" />
      <path
         d="M 120.28635,175.11331 H 124.311 V 183.4617 H 127.4299 V 184.68362 H 119.61984 V 183.4617 H 122.73874 V 176.33524 H 120.28635 Z M 122.73874,171.38773 H 124.311 V 173.37869 H 122.73874 Z"
         id="path167" />
      <path
         d="M 130.35226,171.92606 H 137.436 V 173.37869 H 134.76144 V 183.23099 H 137.436 V 184.68362 H 130.35226 V 183.23099 H 133.02682 V 173.37869 H 130.35226 Z"
         id="path169" />
      <path
         d="M 144.63083,181.21439 Q 144.63083,182.27396 145.01535,182.81229 145.40842,183.35062 146.16891,183.35062 H 148.00607 V 184.68362 H 146.01511 Q 144.60519,184.68362 143.82761,183.77786 143.05856,182.8721 143.05856,181.21439 V 172.5242 H 140.53781 V 171.29373 H 144.63083 Z"
         id="path171" />
      <path
         d="M 151.54367,171.92606 H 153.27829 V 183.23099 H 159.43918 V 184.68362 H 151.54367 Z"
         id="path173" />
      <path
         d="M 162.54953,183.23099 H 165.23264 V 173.48123 L 162.34445,174.13065 V 172.55838 L 165.21555,171.92606 H 166.94162 V 183.23099 H 169.59055 V 184.68362 H 162.54953 Z"
         id="path175" />
      <path
         d="M 189.96164,186.30716 V 187.53763 H 189.41476 Q 187.28708,187.53763 186.56076,186.9053 185.84299,186.27298 185.84299,184.38455 V 182.34232 Q 185.84299,181.05203 185.38156,180.55643 184.92868,180.06082 183.73239,180.06082 H 183.20261 V 178.8389 H 183.73239 Q 184.93723,178.8389 185.39011,178.35184 185.84299,177.86478 185.84299,176.58304 V 174.53226 Q 185.84299,172.64383 186.56076,172.02005 187.28708,171.38773 189.41476,171.38773 H 189.96164 V 172.60965 H 189.36349 Q 188.16721,172.60965 187.79977,172.98563 187.44089,173.35306 187.44089,174.56644 V 176.68558 Q 187.44089,178.02713 187.04782,178.63382 186.6633,179.24051 185.72336,179.45413 186.67184,179.68484 187.05637,180.29153 187.44089,180.89822 187.44089,182.23123 V 184.35037 Q 187.44089,185.5723 187.79977,185.93973 188.16721,186.30716 189.36349,186.30716 Z"
         id="path177" />
      <path
         d="M 193.73849,186.30716 H 194.31955 Q 195.52438,186.30716 195.89182,185.93118 196.25925,185.55521 196.25925,184.35037 V 182.23123 Q 196.25925,180.89822 196.64377,180.29153 197.02829,179.68484 197.97678,179.45413 197.03683,179.24051 196.64377,178.63382 196.25925,178.02713 196.25925,176.68558 V 174.56644 Q 196.25925,173.3616 195.89182,172.98563 195.52438,172.60965 194.31955,172.60965 H 193.73849 V 171.38773 H 194.26828 Q 196.39597,171.38773 197.11374,172.02005 197.83151,172.64383 197.83151,174.53226 V 176.58304 Q 197.83151,177.86478 198.28439,178.35184 198.74582,178.8389 199.95065,178.8389 H 200.49753 V 180.06082 H 199.95065 Q 198.74582,180.06082 198.28439,180.55643 197.83151,181.05203 197.83151,182.34232 V 184.38455 Q 197.83151,186.27298 197.11374,186.9053 196.39597,187.53763 194.26828,187.53763 H 193.73849 Z"
         id="path179" />
      <path
         d="M 216.87814,171.38773 H 220.50119 V 172.60965 H 218.45041 V 185.76883 H 220.50119 V 186.99075 H 216.87814 Z"
         id="path181" />
      <path
         d="M 230.03732,171.38773 V 186.99075 H 226.41428 V 185.76883 H 228.46506 V 172.60965 H 226.41428 V 171.38773 Z"
         id="path183" />
      <path
         d="M 251.86105,179.82156 Q 251.86105,178.05276 251.28,177.13846 250.70749,176.21561 249.60519,176.21561 248.45163,176.21561 247.84494,177.13846 247.23825,178.05276 247.23825,179.82156 247.23825,181.59036 247.84494,182.52176 248.46017,183.44461 249.62228,183.44461 250.70749,183.44461 251.28,182.51321 251.86105,181.58182 251.86105,179.82156 Z M 253.43332,184.06839 Q 253.43332,186.22171 252.41647,187.33255 251.39963,188.44339 249.42575,188.44339 248.77634,188.44339 248.06711,188.32376 247.35788,188.20413 246.64865,187.97342 V 186.41824 Q 247.48605,186.81131 248.16965,186.9993 248.85324,187.18729 249.42575,187.18729 250.69894,187.18729 251.28,186.49515 251.86105,185.80301 251.86105,184.2991 V 184.23074 183.16263 Q 251.48508,183.96585 250.83566,184.35892 250.18625,184.75198 249.25485,184.75198 247.58005,184.75198 246.58029,183.41043 245.58054,182.06888 245.58054,179.82156 245.58054,177.5657 246.58029,176.22415 247.58005,174.8826 249.25485,174.8826 250.1777,174.8826 250.81857,175.25003 251.45944,175.61746 251.86105,176.38651 V 175.14749 H 253.43332 Z"
         id="path185" />
      <path
         d="M 260.15817,179.02689 Q 261.26047,179.02689 261.88425,178.23221 262.51657,177.43753 262.51657,176.03616 262.51657,174.6348 261.88425,173.84012 261.26047,173.04544 260.15817,173.04544 259.01315,173.04544 258.4321,173.80594 257.85104,174.55789 257.85104,176.03616 257.85104,177.52298 258.42355,178.27493 259.00461,179.02689 260.15817,179.02689 Z M 257.082,184.41873 V 182.82938 Q 257.62033,183.14554 258.22702,183.31644 258.83371,183.47879 259.49167,183.47879 261.13229,183.47879 261.9697,182.24832 262.81564,181.00931 262.81564,178.60818 262.41403,179.46268 261.68771,179.9241 260.9614,180.37698 260.02145,180.37698 258.17575,180.37698 257.15891,179.24051 256.1506,178.10403 256.1506,176.01907 256.1506,173.95975 257.18454,172.83182 258.22702,171.69534 260.12399,171.69534 262.34567,171.69534 263.37961,173.29324 264.41354,174.89114 264.41354,178.31766 264.41354,181.53909 263.16599,183.23953 261.92697,184.93143 259.56003,184.93143 258.93625,184.93143 258.30392,184.79471 257.6716,184.66653 257.082,184.41873 Z"
         id="path187" />
      <path
         d="M 268.4382,179.94119 Q 268.4382,181.76981 269.01071,182.7012 269.59177,183.6326 270.72824,183.6326 271.86472,183.6326 272.44577,182.7012 273.03537,181.76126 273.03537,179.94119 273.03537,178.12112 272.44577,177.18973 271.86472,176.24979 270.72824,176.24979 269.59177,176.24979 269.01071,177.18118 268.4382,178.11258 268.4382,179.94119 Z M 273.03537,183.49588 Q 272.65085,184.20511 271.99289,184.58963 271.34348,184.96561 270.48044,184.96561 268.76291,184.96561 267.76315,183.64114 266.77194,182.30814 266.77194,179.97537 266.77194,177.59988 267.76315,176.25833 268.75436,174.91678 270.48044,174.91678 271.33493,174.91678 271.98434,175.29276 272.6423,175.66019 273.03537,176.36942 V 175.14749 H 274.61618 V 188.35794 H 273.03537 Z"
         id="path189" />
      <path
         d="M 285.30588,184.23074 Q 284.64792,184.58109 283.95578,184.75198 283.26364,184.93143 282.48605,184.93143 280.03366,184.93143 278.67502,183.19681 277.32492,181.46219 277.32492,178.31766 277.32492,175.19022 278.68356,173.44705 280.05075,171.69534 282.48605,171.69534 283.26364,171.69534 283.95578,171.87479 284.64792,172.04568 285.30588,172.39603 V 174.16483 Q 284.67355,173.64359 283.94724,173.37015 283.22092,173.09671 282.48605,173.09671 280.8027,173.09671 279.9653,174.39554 279.1279,175.69437 279.1279,178.31766 279.1279,180.9324 279.9653,182.23123 280.8027,183.53006 282.48605,183.53006 283.23801,183.53006 283.95578,183.25662 284.6821,182.98318 285.30588,182.46194 Z"
         id="path191" />
      <path
         d="M 296.10666,183.6326 Q 295.41452,184.27347 294.54294,184.60672 293.6799,184.93143 292.6716,184.93143 290.24484,184.93143 288.89474,183.19681 287.54465,181.45364 287.54465,178.31766 287.54465,175.19022 288.91183,173.44705 290.27902,171.69534 292.71432,171.69534 293.51755,171.69534 294.25241,171.92606 294.98727,172.14822 295.67087,172.60965 V 174.37845 Q 294.97873,173.72049 294.25241,173.41287 293.52609,173.09671 292.71432,173.09671 291.03098,173.09671 290.18503,174.40408 289.34763,175.70291 289.34763,178.31766 289.34763,180.97513 290.15939,182.25687 290.97971,183.53006 292.6716,183.53006 293.24411,183.53006 293.67136,183.40189 294.10715,183.26517 294.45749,182.98318 V 179.55667 H 292.60324 V 178.13821 H 296.10666 Z"
         id="path193" />
      <path
         d="M 302.80588,184.91434 Q 302.74606,184.91434 302.63498,184.92288 302.5239,184.93143 302.45554,184.93143 300.31931,184.93143 299.25974,183.2908 298.20871,181.65018 298.20871,178.31766 298.20871,174.97659 299.25974,173.33597 300.31931,171.69534 302.47263,171.69534 304.63449,171.69534 305.68552,173.33597 306.74509,174.97659 306.74509,178.31766 306.74509,180.82986 306.15549,182.36795 305.57443,183.89749 304.38669,184.51273 L 306.09567,186.13626 304.80539,186.99075 Z M 304.94211,178.31766 Q 304.94211,175.50638 304.36105,174.30154 303.78854,173.09671 302.47263,173.09671 301.16525,173.09671 300.5842,174.30154 300.01169,175.50638 300.01169,178.31766 300.01169,181.12039 300.5842,182.32523 301.16525,183.53006 302.47263,183.53006 303.78854,183.53006 304.36105,182.33377 304.94211,181.12894 304.94211,178.31766 Z"
         id="path195" />
      <path
         d="M 328.06467,178.01859 V 179.5054 Q 327.4238,180.00955 326.80856,180.24881 326.20187,180.47952 325.52682,180.47952 324.75778,180.47952 323.79221,180.04373 323.60422,179.95828 323.51022,179.9241 322.85226,179.64212 322.40793,179.53958 321.97214,179.43704 321.53635,179.43704 320.8613,179.43704 320.25461,179.69339 319.65646,179.94119 319.03268,180.47952 V 178.99271 Q 319.69919,178.48001 320.32297,178.2493 320.94675,178.01859 321.65598,178.01859 322.10886,178.01859 322.5361,178.11258 322.96335,178.20657 323.59567,178.47147 323.69821,178.51419 323.87766,178.59964 324.86887,179.06961 325.66354,179.06961 326.26169,179.06961 326.84274,178.81326 327.43234,178.54837 328.06467,178.01859 Z"
         id="path197" />
      <path
         d="M 331.85861,179.18924 H 336.31052 V 180.59061 H 331.85861 Z"
         id="path199" />
      <path
         d="M 345.33395,174.67752 V 178.47147 H 349.13644 V 179.9241 H 345.33395 V 183.71805 H 343.89841 V 179.9241 H 340.10446 V 178.47147 H 343.89841 V 174.67752 Z"
         id="path201" />
      <path
         d="M 350.64035,180.20609 H 359.67233 V 181.67581 H 350.64035 Z M 350.64035,176.73685 H 359.67233 V 178.18948 H 350.64035 Z"
         id="path203" />
      <path
         d="M 361.17624,176.47195 V 174.91678 L 370.20822,178.48856 V 179.90701 L 361.17624,183.47879 V 181.91507 L 368.43942,179.20633 Z"
         id="path205" />
    </g>
  </g>
</svg>
