<?xml version="1.0" encoding="UTF-8" standalone="no"?>
<svg
   xmlns:dc="http://purl.org/dc/elements/1.1/"
   xmlns:cc="http://creativecommons.org/ns#"
   xmlns:rdf="http://www.w3.org/1999/02/22-rdf-syntax-ns#"
   xmlns:svg="http://www.w3.org/2000/svg"
   xmlns="http://www.w3.org/2000/svg"
   xmlns:sodipodi="http://sodipodi.sourceforge.net/DTD/sodipodi-0.dtd"
   xmlns:inkscape="http://www.inkscape.org/namespaces/inkscape"
   width="143.34561mm"
   height="30.593832mm"
   viewBox="0 0 507.91719 108.40332"
   id="svg2"
   version="1.1"
   inkscape:version="0.91 r13725"
   sodipodi:docname="BitstreamVeraSansMono Nerd Font.svg">
  <metadata
     id="metadata22">
    <rdf:RDF>
      <cc:Work
         rdf:about="">
        <dc:format>image/svg+xml</dc:format>
        <dc:type
           rdf:resource="http://purl.org/dc/dcmitype/StillImage" />
      </cc:Work>
    </rdf:RDF>
  </metadata>
  <defs
     id="defs20" />
  <sodipodi:namedview
     pagecolor="#ffffff"
     bordercolor="#666666"
     borderopacity="1"
     objecttolerance="10"
     gridtolerance="10"
     guidetolerance="10"
     inkscape:pageopacity="0"
     inkscape:pageshadow="2"
     inkscape:window-width="640"
     inkscape:window-height="480"
     id="namedview18"
     showgrid="false"
     inkscape:zoom="0.22425739"
     inkscape:cx="306.96105"
     inkscape:cy="-337.73731"
     inkscape:window-x="69"
     inkscape:window-y="34"
     inkscape:window-maximized="0"
     inkscape:current-layer="svg2" />
  <g
     font-weight="400"
     font-size="27.5"
     letter-spacing="0"
     word-spacing="0"
     id="g4"
     style="font-weight:400;font-size:27.5px;font-family:'BitstreamVeraSansMono Nerd Font';letter-spacing:0;word-spacing:0;fill:#ffffff"
     transform="translate(-65.086185,-80.040443)">
    <g
       style="line-height:125%;text-decoration: underline;text-decoration-line: underline"
       id="text6">
      <path
         d="m 67.811832,91.360023 0,7.344971 3.209229,0 q 2.363281,0 3.370361,-0.819092 1.00708,-0.832519 1.00708,-2.72583 0,-1.960449 -1.060791,-2.873535 -1.060791,-0.926514 -3.31665,-0.926514 l -3.209229,0 z m 0,-8.244628 0,6.04248 3.155518,0 q 1.960449,0 2.833252,-0.751953 0.88623,-0.751953 0.88623,-2.43042 0,-1.517334 -0.872802,-2.188721 -0.859375,-0.671386 -2.84668,-0.671386 l -3.155518,0 z m -2.72583,-2.229004 5.935059,0 q 3.074951,0 4.73999,1.329345 1.665039,1.329346 1.665039,3.759766 0,1.8396 -0.88623,2.900391 -0.872803,1.060791 -2.631836,1.329345 1.973877,0.29541 3.088379,1.691895 1.127929,1.383057 1.127929,3.531494 0,2.72583 -1.785888,4.122314 -1.785889,1.383059 -5.317383,1.383059 l -5.935059,0 0,-20.047609 z"
         id="path4151"
         inkscape:connector-curvature="0" />
      <path
         d="m 82.837467,85.894936 6.324463,0 0,13.118896 4.901123,0 0,1.920168 -12.272949,0 0,-1.920168 4.901123,0 0,-11.19873 -3.85376,0 0,-1.920166 z m 3.85376,-5.854493 2.470703,0 0,3.128663 -2.470703,0 0,-3.128663 z"
         id="path4153"
         inkscape:connector-curvature="0" />
      <path
         d="m 104.18756,81.624916 0,4.27002 5.6128,0 0,1.920166 -5.6128,0 0,8.164062 q 0,1.665039 0.63111,2.322998 0.6311,0.657959 2.20215,0.657959 l 2.77954,0 0,1.973879 -3.02124,0 q -2.77954,0 -3.9209,-1.114504 -1.14136,-1.114502 -1.14136,-3.840332 l 0,-8.164062 -4.014891,0 0,-1.920166 4.014891,0 0,-4.27002 2.4707,0 z"
         id="path4155"
         inkscape:connector-curvature="0" />
      <path
         d="m 125.55109,86.418617 0,2.416992 q -1.06079,-0.617675 -2.13501,-0.926513 -1.07422,-0.308838 -2.18872,-0.308838 -1.67847,0 -2.51099,0.550537 -0.81909,0.537109 -0.81909,1.651611 0,1.00708 0.61768,1.503907 0.61767,0.496826 3.07495,0.966796 l 0.99365,0.187989 q 1.8396,0.349121 2.77954,1.396484 0.95337,1.047363 0.95337,2.72583 0,2.229004 -1.58447,3.491208 -1.58447,1.24878 -4.4043,1.24878 -1.1145,0 -2.33642,-0.2417 -1.22193,-0.22827 -2.64527,-0.69824 l 0,-2.551269 q 1.38306,0.71167 2.64527,1.074219 1.2622,0.349121 2.39013,0.349121 1.63819,0 2.53784,-0.657959 0.89966,-0.671386 0.89966,-1.866455 0,-1.71875 -3.28979,-2.376709 l -0.10742,-0.02686 -0.92652,-0.187988 q -2.13501,-0.41626 -3.11523,-1.396485 -0.98023,-0.993652 -0.98023,-2.698974 0,-2.161866 1.46363,-3.330079 1.46362,-1.18164 4.17602,-1.18164 1.2085,0 2.323,0.228271 1.1145,0.214844 2.18872,0.657959 z"
         id="path4157"
         inkscape:connector-curvature="0" />
      <path
         d="m 137.2735,81.624916 0,4.27002 5.6128,0 0,1.920166 -5.6128,0 0,8.164062 q 0,1.665039 0.63111,2.322998 0.6311,0.657959 2.20214,0.657959 l 2.77955,0 0,1.973879 -3.02124,0 q -2.77955,0 -3.9209,-1.114504 -1.14136,-1.114502 -1.14136,-3.840332 l 0,-8.164062 -4.01489,0 0,-1.920166 4.01489,0 0,-4.27002 2.4707,0 z"
         id="path4159"
         inkscape:connector-curvature="0" />
      <path
         d="m 161.08088,88.996742 q -0.79224,-0.617676 -1.61133,-0.899658 -0.81909,-0.281982 -1.79932,-0.281982 -2.30957,0 -3.53149,1.450195 -1.22193,1.450195 -1.22193,4.189453 l 0,7.47925 -2.48413,0 0,-15.039064 2.48413,0 0,2.940673 q 0.61768,-1.5979 1.89331,-2.443847 1.28907,-0.859375 3.0481,-0.859375 0.91309,0 1.70532,0.228271 0.79224,0.228272 1.51734,0.71167 l 0,2.524414 z"
         id="path4161"
         inkscape:connector-curvature="0" />
      <path
         d="m 177.04645,92.796791 0,1.208496 -10.7019,0 0,0.08057 q 0,2.457275 1.27563,3.800048 1.28906,1.342774 3.62549,1.342774 1.18164,0 2.4707,-0.375977 1.28907,-0.375976 2.75269,-1.141357 l 0,2.457275 q -1.40991,0.57739 -2.72583,0.85937 -1.30249,0.29541 -2.52442,0.29541 -3.50463,0 -5.47851,-2.094721 -1.97388,-2.108154 -1.97388,-5.800781 0,-3.598633 1.9336,-5.747071 1.93359,-2.148437 5.15625,-2.148437 2.87353,0 4.52514,1.947021 1.66504,1.947022 1.66504,5.317383 z m -2.4707,-0.725098 q -0.0537,-2.175293 -1.03394,-3.303222 -0.96679,-1.141358 -2.79297,-1.141358 -1.78588,0 -2.94067,1.181641 -1.15478,1.181641 -1.36963,3.276367 l 8.13721,-0.01343 z"
         id="path4163"
         inkscape:connector-curvature="0" />
      <path
         d="m 188.08405,93.374184 -0.81909,0 q -2.16187,0 -3.26294,0.765381 -1.08765,0.751953 -1.08765,2.255859 0,1.356201 0.81909,2.108154 0.8191,0.751953 2.26929,0.751953 2.04102,0 3.20923,-1.409912 1.16821,-1.42334 1.18164,-3.920898 l 0,-0.550537 -2.30957,0 z m 4.7937,-1.020508 0,8.580324 -2.48413,0 0,-2.229006 q -0.79224,1.342776 -2.00073,1.987306 -1.19507,0.6311 -2.91382,0.6311 -2.29614,0 -3.66577,-1.28906 -1.36963,-1.30249 -1.36963,-3.477783 0,-2.510987 1.67847,-3.813477 1.69189,-1.30249 4.95483,-1.30249 l 3.31665,0 0,-0.389404 q -0.0134,-1.799317 -0.91309,-2.604981 -0.89965,-0.819092 -2.87353,-0.819092 -1.26221,0 -2.55127,0.362549 -1.28906,0.362549 -2.51099,1.060791 l 0,-2.470703 q 1.36963,-0.523682 2.61841,-0.778809 1.26221,-0.268554 2.44385,-0.268554 1.86645,0 3.18237,0.550537 1.32935,0.550537 2.14844,1.651611 0.51025,0.671387 0.7251,1.665039 0.21484,0.980225 0.21484,2.954102 z"
         id="path4165"
         inkscape:connector-curvature="0" />
      <path
         d="m 204.2779,87.425697 q 0.45654,-0.966797 1.15478,-1.42334 0.71167,-0.46997 1.70532,-0.46997 1.81275,0 2.55127,1.409912 0.75196,1.396484 0.75196,5.277099 l 0,8.714602 -2.25586,0 0,-8.60718 q 0,-3.182373 -0.36255,-3.947754 -0.34912,-0.778808 -1.28906,-0.778808 -1.07422,0 -1.47705,0.832519 -0.38941,0.819092 -0.38941,3.894043 l 0,8.60718 -2.25586,0 0,-8.60718 q 0,-3.222656 -0.3894,-3.974609 -0.37598,-0.751953 -1.36963,-0.751953 -0.98023,0 -1.36963,0.832519 -0.37598,0.819092 -0.37598,3.894043 l 0,8.60718 -2.24243,0 0,-15.039064 2.24243,0 0,1.289062 q 0.44312,-0.805664 1.10108,-1.221924 0.67138,-0.429687 1.51733,-0.429687 1.02051,0 1.6919,0.46997 0.68481,0.469971 1.06079,1.42334 z"
         id="path4167"
         inkscape:connector-curvature="0" />
      <path
         d="m 220.0152,98.651283 4.71314,-17.764892 2.80639,0 -5.86792,20.047609 -3.28979,0 -5.86792,-20.047609 2.80639,0 4.69971,17.764892 z"
         id="path4169"
         inkscape:connector-curvature="0" />
      <path
         d="m 243.21833,92.796791 0,1.208496 -10.70191,0 0,0.08057 q 0,2.457275 1.27564,3.800048 1.28906,1.342774 3.62549,1.342774 1.18164,0 2.4707,-0.375977 1.28906,-0.375976 2.75268,-1.141357 l 0,2.457275 q -1.40991,0.57739 -2.72583,0.85937 -1.30249,0.29541 -2.52441,0.29541 -3.50464,0 -5.47852,-2.094721 -1.97387,-2.108154 -1.97387,-5.800781 0,-3.598633 1.93359,-5.747071 1.93359,-2.148437 5.15625,-2.148437 2.87354,0 4.52515,1.947021 1.66504,1.947022 1.66504,5.317383 z m -2.47071,-0.725098 q -0.0537,-2.175293 -1.03393,-3.303222 -0.9668,-1.141358 -2.79297,-1.141358 -1.78589,0 -2.94067,1.181641 -1.15479,1.181641 -1.36963,3.276367 l 8.1372,-0.01343 z"
         id="path4171"
         inkscape:connector-curvature="0" />
      <path
         d="m 260.33869,88.996742 q -0.79224,-0.617676 -1.61133,-0.899658 -0.81909,-0.281982 -1.79932,-0.281982 -2.30957,0 -3.53149,1.450195 -1.22192,1.450195 -1.22192,4.189453 l 0,7.47925 -2.48414,0 0,-15.039064 2.48414,0 0,2.940673 q 0.61767,-1.5979 1.89331,-2.443847 1.28906,-0.859375 3.04809,-0.859375 0.91309,0 1.70532,0.228271 0.79224,0.228272 1.51734,0.71167 l 0,2.524414 z"
         id="path4173"
         inkscape:connector-curvature="0" />
      <path
         d="m 270.79889,93.374184 -0.81909,0 q -2.16186,0 -3.26294,0.765381 -1.08764,0.751953 -1.08764,2.255859 0,1.356201 0.81909,2.108154 0.81909,0.751953 2.26928,0.751953 2.04102,0 3.20923,-1.409912 1.16822,-1.42334 1.18164,-3.920898 l 0,-0.550537 -2.30957,0 z m 4.7937,-1.020508 0,8.580324 -2.48413,0 0,-2.229006 q -0.79223,1.342776 -2.00073,1.987306 -1.19507,0.6311 -2.91382,0.6311 -2.29614,0 -3.66577,-1.28906 -1.36963,-1.30249 -1.36963,-3.477783 0,-2.510987 1.67847,-3.813477 1.69189,-1.30249 4.95483,-1.30249 l 3.31665,0 0,-0.389404 q -0.0134,-1.799317 -0.91308,-2.604981 -0.89966,-0.819092 -2.87354,-0.819092 -1.2622,0 -2.55127,0.362549 -1.28906,0.362549 -2.51098,1.060791 l 0,-2.470703 q 1.36963,-0.523682 2.6184,-0.778809 1.26221,-0.268554 2.44385,-0.268554 1.86646,0 3.18238,0.550537 1.32934,0.550537 2.14843,1.651611 0.51026,0.671387 0.7251,1.665039 0.21484,0.980225 0.21484,2.954102 z"
         id="path4175"
         inkscape:connector-curvature="0" />
      <path
         d="m 291.50446,81.571205 0,2.752686 q -1.23535,-0.792237 -2.48413,-1.195069 -1.23535,-0.402832 -2.49756,-0.402832 -1.92017,0 -3.03467,0.899658 -1.1145,0.886231 -1.1145,2.403565 0,1.329346 0.7251,2.027588 0.73852,0.698242 2.73926,1.168213 l 1.42334,0.322265 q 2.81982,0.657959 4.10888,2.067871 1.28906,1.409913 1.28906,3.840332 0,2.860108 -1.77246,4.364014 -1.77246,1.503904 -5.15625,1.503904 -1.40991,0 -2.83325,-0.30884 -1.42334,-0.29541 -2.86011,-0.89965 l 0,-2.886967 q 1.54419,0.980225 2.91382,1.436768 1.38306,0.456543 2.77954,0.456543 2.05445,0 3.1958,-0.913086 1.14136,-0.926514 1.14136,-2.578125 0,-1.503906 -0.79223,-2.296143 -0.77881,-0.792236 -2.72583,-1.221923 l -1.4502,-0.335694 q -2.79297,-0.631103 -4.05518,-1.906738 -1.2622,-1.275635 -1.2622,-3.424072 0,-2.685547 1.79931,-4.296875 1.81275,-1.624756 4.80713,-1.624756 1.15479,0 2.43042,0.268555 1.27564,0.255126 2.68555,0.778808 z"
         id="path4177"
         inkscape:connector-curvature="0" />
      <path
         d="m 303.88483,93.374184 -0.81909,0 q -2.16187,0 -3.26294,0.765381 -1.08765,0.751953 -1.08765,2.255859 0,1.356201 0.81909,2.108154 0.8191,0.751953 2.26929,0.751953 2.04102,0 3.20923,-1.409912 1.16821,-1.42334 1.18164,-3.920898 l 0,-0.550537 -2.30957,0 z m 4.7937,-1.020508 0,8.580324 -2.48413,0 0,-2.229006 q -0.79224,1.342776 -2.00073,1.987306 -1.19507,0.6311 -2.91382,0.6311 -2.29614,0 -3.66577,-1.28906 -1.36963,-1.30249 -1.36963,-3.477783 0,-2.510987 1.67847,-3.813477 1.69189,-1.30249 4.95483,-1.30249 l 3.31665,0 0,-0.389404 q -0.0134,-1.799317 -0.91309,-2.604981 -0.89965,-0.819092 -2.87353,-0.819092 -1.26221,0 -2.55127,0.362549 -1.28906,0.362549 -2.51099,1.060791 l 0,-2.470703 q 1.36963,-0.523682 2.61841,-0.778809 1.26221,-0.268554 2.44385,-0.268554 1.86645,0 3.18237,0.550537 1.32935,0.550537 2.14844,1.651611 0.51025,0.671387 0.7251,1.665039 0.21484,0.980225 0.21484,2.954102 z"
         id="path4179"
         inkscape:connector-curvature="0" />
      <path
         d="m 325.11408,91.61515 0,9.31885 -2.48413,0 0,-9.31885 q 0,-2.027587 -0.71167,-2.980957 -0.71167,-0.953369 -2.22901,-0.953369 -1.73217,0 -2.67212,1.235352 -0.92651,1.221924 -0.92651,3.518066 l 0,8.499758 -2.4707,0 0,-15.039064 2.4707,0 0,2.255859 q 0.65796,-1.289063 1.78589,-1.947022 1.12793,-0.671386 2.67212,-0.671386 2.29614,0 3.42407,1.517334 1.14136,1.503906 1.14136,4.565429 z"
         id="path4181"
         inkscape:connector-curvature="0" />
      <path
         d="m 340.60968,86.418617 0,2.416992 q -1.06079,-0.617675 -2.13501,-0.926513 -1.07421,-0.308838 -2.18872,-0.308838 -1.67846,0 -2.51098,0.550537 -0.81909,0.537109 -0.81909,1.651611 0,1.00708 0.61767,1.503907 0.61768,0.496826 3.07495,0.966796 l 0.99365,0.187989 q 1.8396,0.349121 2.77955,1.396484 0.95336,1.047363 0.95336,2.72583 0,2.229004 -1.58447,3.491208 -1.58447,1.24878 -4.40429,1.24878 -1.11451,0 -2.33643,-0.2417 -1.22192,-0.22827 -2.64526,-0.69824 l 0,-2.551269 q 1.38305,0.71167 2.64526,1.074219 1.26221,0.349121 2.39014,0.349121 1.63818,0 2.53784,-0.657959 0.89966,-0.671386 0.89966,-1.866455 0,-1.71875 -3.2898,-2.376709 l -0.10742,-0.02686 -0.92651,-0.187988 q -2.13501,-0.41626 -3.11524,-1.396485 -0.98022,-0.993652 -0.98022,-2.698974 0,-2.161866 1.46362,-3.330079 1.46362,-1.18164 4.17603,-1.18164 1.20849,0 2.32299,0.228271 1.11451,0.214844 2.18872,0.657959 z"
         id="path4183"
         inkscape:connector-curvature="0" />
      <path
         d="m 345.24225,80.886391 3.62549,0 3.46436,10.205078 3.49121,-10.205078 3.63891,0 0,20.047609 -2.51098,0 0,-17.711184 -3.57178,10.567627 -2.05444,0 -3.58521,-10.567627 0,17.711184 -2.49756,0 0,-20.047609 z"
         id="path4185"
         inkscape:connector-curvature="0" />
      <path
         d="m 368.90192,87.627113 q -1.87988,0 -2.84668,1.463623 -0.9668,1.463623 -0.9668,4.337159 0,2.860107 0.9668,4.337158 0.9668,1.463623 2.84668,1.463623 1.89331,0 2.86011,-1.463623 0.96679,-1.477051 0.96679,-4.337158 0,-2.873536 -0.96679,-4.337159 -0.9668,-1.463623 -2.86011,-1.463623 z m 0,-2.094726 q 3.12866,0 4.78027,2.027588 1.66504,2.027588 1.66504,5.86792 0,3.853759 -1.65161,5.881347 -1.65161,2.014158 -4.7937,2.014158 -3.12866,0 -4.78027,-2.014158 -1.65161,-2.027588 -1.65161,-5.881347 0,-3.840332 1.65161,-5.86792 1.65161,-2.027588 4.78027,-2.027588 z"
         id="path4187"
         inkscape:connector-curvature="0" />
      <path
         d="m 391.28595,91.61515 0,9.31885 -2.48413,0 0,-9.31885 q 0,-2.027587 -0.71167,-2.980957 -0.71167,-0.953369 -2.229,-0.953369 -1.73218,0 -2.67212,1.235352 -0.92651,1.221924 -0.92651,3.518066 l 0,8.499758 -2.47071,0 0,-15.039064 2.47071,0 0,2.255859 q 0.65796,-1.289063 1.78588,-1.947022 1.12793,-0.671386 2.67212,-0.671386 2.29615,0 3.42408,1.517334 1.14135,1.503906 1.14135,4.565429 z"
         id="path4189"
         inkscape:connector-curvature="0" />
      <path
         d="m 401.98786,87.627113 q -1.87988,0 -2.84668,1.463623 -0.9668,1.463623 -0.9668,4.337159 0,2.860107 0.9668,4.337158 0.9668,1.463623 2.84668,1.463623 1.89331,0 2.86011,-1.463623 0.96679,-1.477051 0.96679,-4.337158 0,-2.873536 -0.96679,-4.337159 -0.9668,-1.463623 -2.86011,-1.463623 z m 0,-2.094726 q 3.12866,0 4.78027,2.027588 1.66504,2.027588 1.66504,5.86792 0,3.853759 -1.65161,5.881347 -1.65161,2.014158 -4.7937,2.014158 -3.12866,0 -4.78028,-2.014158 -1.65161,-2.027588 -1.65161,-5.881347 0,-3.840332 1.65161,-5.86792 1.65162,-2.027588 4.78028,-2.027588 z"
         id="path4191"
         inkscape:connector-curvature="0" />
      <path
         d="m 428.66877,80.886391 3.4375,0 6.76757,16.502685 0,-16.502685 2.61841,0 0,20.047609 -3.4375,0 -6.76758,-16.502687 0,16.502687 -2.6184,0 0,-20.047609 z"
         id="path4193"
         inkscape:connector-curvature="0" />
      <path
         d="m 458.27692,92.796791 0,1.208496 -10.7019,0 0,0.08057 q 0,2.457275 1.27563,3.800048 1.28906,1.342774 3.62549,1.342774 1.18164,0 2.4707,-0.375977 1.28906,-0.375976 2.75269,-1.141357 l 0,2.457275 q -1.40991,0.57739 -2.72583,0.85937 -1.30249,0.29541 -2.52442,0.29541 -3.50464,0 -5.47851,-2.094721 -1.97388,-2.108154 -1.97388,-5.800781 0,-3.598633 1.93359,-5.747071 1.9336,-2.148437 5.15625,-2.148437 2.87354,0 4.52515,1.947021 1.66504,1.947022 1.66504,5.317383 z m -2.4707,-0.725098 q -0.0537,-2.175293 -1.03394,-3.303222 -0.9668,-1.141358 -2.79297,-1.141358 -1.78589,0 -2.94067,1.181641 -1.15479,1.181641 -1.36963,3.276367 l 8.13721,-0.01343 z"
         id="path4195"
         inkscape:connector-curvature="0" />
      <path
         d="m 475.39728,88.996742 q -0.79223,-0.617676 -1.61133,-0.899658 -0.81909,-0.281982 -1.79931,-0.281982 -2.30957,0 -3.5315,1.450195 -1.22192,1.450195 -1.22192,4.189453 l 0,7.47925 -2.48413,0 0,-15.039064 2.48413,0 0,2.940673 q 0.61767,-1.5979 1.89331,-2.443847 1.28906,-0.859375 3.0481,-0.859375 0.91308,0 1.70532,0.228271 0.79223,0.228272 1.51733,0.71167 l 0,2.524414 z"
         id="path4197"
         inkscape:connector-curvature="0" />
      <path
         d="m 487.95221,87.815102 0,-7.774659 2.47071,0 0,20.893557 -2.47071,0 0,-1.893312 q -0.61767,1.114502 -1.65161,1.705322 -1.02051,0.57739 -2.36328,0.57739 -2.72583,0 -4.29687,-2.108152 -1.55762,-2.121582 -1.55762,-5.841064 0,-3.665772 1.57104,-5.747071 1.57105,-2.094726 4.28345,-2.094726 1.3562,0 2.39014,0.59082 1.03393,0.577393 1.62475,1.691895 z m -7.2644,5.612793 q 0,2.873535 0.91308,4.337158 0.91309,1.463623 2.69898,1.463623 1.78589,0 2.7124,-1.477051 0.93994,-1.477051 0.93994,-4.32373 0,-2.860108 -0.93994,-4.323731 -0.92651,-1.477051 -2.7124,-1.477051 -1.78589,0 -2.69898,1.463623 -0.91308,1.463623 -0.91308,4.337159 z"
         id="path4199"
         inkscape:connector-curvature="0" />
      <path
         d="m 512.64582,80.886391 11.80298,0 0,2.282715 -9.07715,0 0,5.908203 8.2312,0 0,2.282714 -8.2312,0 0,9.573977 -2.72583,0 0,-20.047609 z"
         id="path4201"
         inkscape:connector-curvature="0" />
      <path
         d="m 534.33161,87.627113 q -1.87988,0 -2.84668,1.463623 -0.9668,1.463623 -0.9668,4.337159 0,2.860107 0.9668,4.337158 0.9668,1.463623 2.84668,1.463623 1.89331,0 2.86011,-1.463623 0.96679,-1.477051 0.96679,-4.337158 0,-2.873536 -0.96679,-4.337159 -0.9668,-1.463623 -2.86011,-1.463623 z m 0,-2.094726 q 3.12866,0 4.78027,2.027588 1.66504,2.027588 1.66504,5.86792 0,3.853759 -1.65161,5.881347 -1.65161,2.014158 -4.7937,2.014158 -3.12866,0 -4.78028,-2.014158 -1.65161,-2.027588 -1.65161,-5.881347 0,-3.840332 1.65161,-5.86792 1.65162,-2.027588 4.78028,-2.027588 z"
         id="path4203"
         inkscape:connector-curvature="0" />
      <path
         d="m 556.71564,91.61515 0,9.31885 -2.48413,0 0,-9.31885 q 0,-2.027587 -0.71167,-2.980957 -0.71167,-0.953369 -2.229,-0.953369 -1.73218,0 -2.67212,1.235352 -0.92652,1.221924 -0.92652,3.518066 l 0,8.499758 -2.4707,0 0,-15.039064 2.4707,0 0,2.255859 q 0.65796,-1.289063 1.78589,-1.947022 1.12793,-0.671386 2.67212,-0.671386 2.29614,0 3.42407,1.517334 1.14136,1.503906 1.14136,4.565429 z"
         id="path4205"
         inkscape:connector-curvature="0" />
      <path
         d="m 567.39069,81.624916 0,4.27002 5.61279,0 0,1.920166 -5.61279,0 0,8.164062 q 0,1.665039 0.6311,2.322998 0.63111,0.657959 2.20215,0.657959 l 2.77954,0 0,1.973879 -3.02124,0 q -2.77954,0 -3.9209,-1.114504 -1.14135,-1.114502 -1.14135,-3.840332 l 0,-8.164062 -4.0149,0 0,-1.920166 4.0149,0 0,-4.27002 2.4707,0 z"
         id="path4207"
         inkscape:connector-curvature="0" />
    </g>
    <g
       style="line-height:125%"
       id="text10">
      <path
         d="m 71.417534,136.12321 -0.52124,0 q -1.375733,0 -2.076416,0.48707 -0.692139,0.47851 -0.692139,1.43554 0,0.86304 0.52124,1.34155 0.52124,0.47852 1.444092,0.47852 1.298828,0 2.042236,-0.89722 0.743409,-0.90576 0.751953,-2.49511 l 0,-0.35035 -1.469726,0 z m 3.050537,-0.64941 0,5.46021 -1.580811,0 0,-1.41846 q -0.50415,0.85449 -1.273193,1.26465 -0.760498,0.40161 -1.854248,0.40161 -1.461182,0 -2.332764,-0.82031 -0.871582,-0.82886 -0.871582,-2.21314 0,-1.5979 1.068116,-2.42676 1.07666,-0.82885 3.153076,-0.82885 l 2.110595,0 0,-0.24781 q -0.0085,-1.14502 -0.581054,-1.65771 -0.57251,-0.52124 -1.828614,-0.52124 -0.803222,0 -1.623535,0.23071 -0.820312,0.23071 -1.5979,0.67505 l 0,-1.57227 q 0.871582,-0.33325 1.66626,-0.4956 0.803222,-0.1709 1.555175,-0.1709 1.187745,0 2.025147,0.35034 0.845947,0.35034 1.367187,1.05103 0.324707,0.42724 0.461426,1.05957 0.136719,0.62378 0.136719,1.87988 z"
         style="font-size:17.5px"
         id="path4210"
         inkscape:connector-curvature="0" />
      <path
         d="m 83.790581,136.15739 q 0,-1.82861 -0.581055,-2.76001 -0.581055,-0.93139 -1.717529,-0.93139 -1.14502,0 -1.734619,0.93994 -0.5896,0.9314 -0.5896,2.75146 0,1.81153 0.5896,2.75147 0.589599,0.93994 1.734619,0.93994 1.136474,0 1.717529,-0.9314 0.581055,-0.93139 0.581055,-2.76001 z m -4.622803,-3.57177 q 0.375977,-0.70069 1.033936,-1.07666 0.666503,-0.37598 1.538085,-0.37598 1.726075,0 2.717286,1.33301 0.991211,1.32446 0.991211,3.65722 0,2.36695 -0.999756,3.71705 -0.991211,1.34155 -2.72583,1.34155 -0.854493,0 -1.512452,-0.36743 -0.649414,-0.37598 -1.04248,-1.08521 l 0,1.20484 -1.572266,0 0,-13.2959 1.572266,0 0,4.94751 z"
         style="font-size:17.5px"
         id="path4212"
         inkscape:connector-curvature="0" />
      <path
         d="m 95.539848,140.44695 q -0.632324,0.36743 -1.307373,0.54687 -0.666504,0.18799 -1.367187,0.18799 -2.22168,0 -3.477783,-1.33301 -1.247559,-1.33301 -1.247559,-3.69141 0,-2.35839 1.247559,-3.6914 1.256103,-1.33301 3.477783,-1.33301 0.692138,0 1.350097,0.17944 0.657959,0.17945 1.324463,0.55542 l 0,1.64917 q -0.623779,-0.55542 -1.256103,-0.80322 -0.623779,-0.2478 -1.418457,-0.2478 -1.478272,0 -2.272949,0.95703 -0.794678,0.95703 -0.794678,2.73437 0,1.7688 0.794678,2.73438 0.803222,0.95703 2.272949,0.95703 0.820312,0 1.469726,-0.2478 0.649414,-0.25635 1.204834,-0.78613 l 0,1.63208 z"
         style="font-size:17.5px"
         id="path4214"
         inkscape:connector-curvature="0" />
      <path
         d="m 104.33257,132.58562 0,-4.94751 1.57227,0 0,13.2959 -1.57227,0 0,-1.20484 q -0.39306,0.70923 -1.05102,1.08521 -0.64942,0.36743 -1.50391,0.36743 -1.73462,0 -2.734374,-1.34155 -0.991211,-1.3501 -0.991211,-3.71705 0,-2.33276 0.999756,-3.65722 0.999759,-1.33301 2.725829,-1.33301 0.86304,0 1.521,0.37598 0.65796,0.36743 1.03393,1.07666 z m -4.6228,3.57177 q 0,1.82862 0.58105,2.76001 0.58106,0.9314 1.71753,0.9314 1.13648,0 1.72608,-0.93994 0.59814,-0.93994 0.59814,-2.75147 0,-1.82006 -0.59814,-2.75146 -0.5896,-0.93994 -1.72608,-0.93994 -1.13647,0 -1.71753,0.93139 -0.58105,0.9314 -0.58105,2.76001 z"
         style="font-size:17.5px"
         id="path4216"
         inkscape:connector-curvature="0" />
      <path
         d="m 117.03033,135.75578 0,0.76905 -6.81031,0 0,0.0513 q 0,1.56372 0.81177,2.41821 0.82031,0.85449 2.30713,0.85449 0.75195,0 1.57227,-0.23926 0.82031,-0.23925 1.75171,-0.72632 l 0,1.56373 q -0.89722,0.36743 -1.73462,0.54687 -0.82886,0.18799 -1.60645,0.18799 -2.23022,0 -3.48633,-1.33301 -1.2561,-1.34155 -1.2561,-3.69141 0,-2.29003 1.23047,-3.65722 1.23047,-1.36719 3.28125,-1.36719 1.82861,0 2.87964,1.23901 1.05957,1.23902 1.05957,3.38379 z m -1.57227,-0.46142 q -0.0342,-1.38428 -0.65796,-2.10205 -0.61523,-0.72632 -1.77734,-0.72632 -1.13648,0 -1.87134,0.75195 -0.73486,0.75195 -0.87158,2.08496 l 5.17822,-0.009 z"
         style="font-size:17.5px"
         id="path4218"
         inkscape:connector-curvature="0" />
      <path
         d="m 127.13897,127.63811 0,1.30737 -1.78589,0 q -0.84595,0 -1.1792,0.35034 -0.32471,0.3418 -0.32471,1.22193 l 0,0.84594 3.2898,0 0,1.22193 -3.2898,0 0,8.34839 -1.57226,0 0,-8.34839 -2.55493,0 0,-1.22193 2.55493,0 0,-0.6665 q 0,-1.57227 0.71777,-2.31567 0.72632,-0.74341 2.25586,-0.74341 l 1.88843,0 z"
         style="font-size:17.5px"
         id="path4220"
         inkscape:connector-curvature="0" />
      <path
         d="m 135.9146,136.07195 q 0,-1.7688 -0.58105,-2.68311 -0.57251,-0.92285 -1.67481,-0.92285 -1.15356,0 -1.76025,0.92285 -0.60669,0.91431 -0.60669,2.68311 0,1.76879 0.60669,2.70019 0.61524,0.92285 1.77734,0.92285 1.08521,0 1.65772,-0.93139 0.58105,-0.9314 0.58105,-2.69165 z m 1.57227,4.24682 q 0,2.15332 -1.01685,3.26416 -1.01684,1.11084 -2.99072,1.11084 -0.64941,0 -1.35864,-0.11963 -0.70923,-0.11963 -1.41846,-0.35034 l 0,-1.55518 q 0.8374,0.39307 1.521,0.58106 0.68359,0.18799 1.2561,0.18799 1.27319,0 1.85425,-0.69214 0.58105,-0.69214 0.58105,-2.19605 l 0,-0.0684 0,-1.06811 q -0.37597,0.80322 -1.02539,1.19629 -0.64941,0.39307 -1.58081,0.39307 -1.6748,0 -2.67456,-1.34156 -0.99975,-1.34155 -0.99975,-3.58886 0,-2.25586 0.99975,-3.59742 0.99976,-1.34155 2.67456,-1.34155 0.92285,0 1.56372,0.36743 0.64087,0.36743 1.04248,1.13648 l 0,-1.23902 1.57227,0 0,8.9209 z"
         style="font-size:17.5px"
         id="path4222"
         inkscape:connector-curvature="0" />
      <path
         d="m 148.09112,135.00383 0,5.93018 -1.58081,0 0,-5.93018 q 0,-1.29028 -0.45288,-1.89697 -0.45288,-0.60669 -1.41846,-0.60669 -1.1023,0 -1.70044,0.78613 -0.5896,0.77759 -0.5896,2.23877 l 0,5.40894 -1.57227,0 0,-13.2959 1.57227,0 0,5.16113 q 0.4187,-0.82031 1.13647,-1.23901 0.71778,-0.42725 1.70044,-0.42725 1.46119,0 2.17896,0.96558 0.72632,0.95703 0.72632,2.90527 z"
         style="font-size:17.5px"
         id="path4224"
         inkscape:connector-curvature="0" />
      <path
         d="m 151.82525,131.36369 4.02466,0 0,8.34839 3.11889,0 0,1.22193 -7.81006,0 0,-1.22193 3.1189,0 0,-7.12646 -2.45239,0 0,-1.22193 z m 2.45239,-3.72558 1.57227,0 0,1.99096 -1.57227,0 0,-1.99096 z"
         style="font-size:17.5px"
         id="path4226"
         inkscape:connector-curvature="0" />
      <path
         d="m 165.29205,141.1049 0,-8.51928 -2.70874,0 0,-1.22193 4.281,0 0,9.74121 q 0,1.66626 -0.76904,2.56348 -0.7605,0.90576 -2.17041,0.90576 l -2.17041,0 0,-1.33301 1.99951,0 q 0.76904,0 1.15356,-0.53833 0.38453,-0.52978 0.38453,-1.5979 z m 0,-13.46679 1.57226,0 0,1.99096 -1.57226,0 0,-1.99096 z"
         style="font-size:17.5px"
         id="path4228"
         inkscape:connector-curvature="0" />
      <path
         d="m 172.70904,127.63811 1.62353,0 0,7.69897 4.1272,-3.97339 1.91406,0 -3.76831,3.60596 4.35791,5.96436 -1.92261,0 -3.53759,-4.93897 -1.17066,1.1023 0,3.83667 -1.62353,0 0,-13.2959 z"
         style="font-size:17.5px"
         id="path4230"
         inkscape:connector-curvature="0" />
      <path
         d="m 186.67999,137.46477 q 0,1.05957 0.38452,1.5979 0.39306,0.53833 1.15356,0.53833 l 1.83716,0 0,1.33301 -1.99097,0 q -1.40991,0 -2.1875,-0.90577 -0.76904,-0.90576 -0.76904,-2.56347 l 0,-8.69019 -2.52075,0 0,-1.23047 4.09302,0 0,9.92066 z"
         style="font-size:17.5px"
         id="path4232"
         inkscape:connector-curvature="0" />
      <path
         d="m 197.52349,132.33781 q 0.29053,-0.61523 0.73486,-0.90576 0.45289,-0.29907 1.08521,-0.29907 1.15356,0 1.62353,0.89722 0.47852,0.88867 0.47852,3.35815 l 0,5.54566 -1.43555,0 0,-5.4773 q 0,-2.02515 -0.23071,-2.51221 -0.22217,-0.4956 -0.82031,-0.4956 -0.6836,0 -0.93994,0.52978 -0.24781,0.52124 -0.24781,2.47803 l 0,5.4773 -1.43554,0 0,-5.4773 q 0,-2.05078 -0.24781,-2.5293 -0.23925,-0.47851 -0.87158,-0.47851 -0.62378,0 -0.87158,0.52978 -0.23926,0.52124 -0.23926,2.47803 l 0,5.4773 -1.427,0 0,-9.57032 1.427,0 0,0.82032 q 0.28198,-0.5127 0.70069,-0.77759 0.42724,-0.27344 0.96557,-0.27344 0.64942,0 1.07666,0.29907 0.43579,0.29907 0.67505,0.90576 z"
         style="font-size:17.5px"
         id="path4234"
         inkscape:connector-curvature="0" />
      <path
         d="m 211.25518,135.00383 0,5.93018 -1.58081,0 0,-5.93018 q 0,-1.29028 -0.45288,-1.89697 -0.45288,-0.60669 -1.41846,-0.60669 -1.10229,0 -1.70044,0.78613 -0.5896,0.77759 -0.5896,2.23877 l 0,5.40894 -1.57226,0 0,-9.57032 1.57226,0 0,1.43555 q 0.4187,-0.82031 1.13648,-1.23901 0.71777,-0.42725 1.70044,-0.42725 1.46118,0 2.17895,0.96558 0.72632,0.95703 0.72632,2.90527 z"
         style="font-size:17.5px"
         id="path4236"
         inkscape:connector-curvature="0" />
      <path
         d="m 218.06548,132.46599 q -1.19629,0 -1.81152,0.93139 -0.61523,0.9314 -0.61523,2.76001 0,1.82007 0.61523,2.76001 0.61523,0.9314 1.81152,0.9314 1.20484,0 1.82007,-0.9314 0.61524,-0.93994 0.61524,-2.76001 0,-1.82861 -0.61524,-2.76001 -0.61523,-0.93139 -1.82007,-0.93139 z m 0,-1.33301 q 1.99097,0 3.042,1.29028 1.05957,1.29029 1.05957,3.73413 0,2.4524 -1.05103,3.74268 -1.05103,1.28174 -3.05054,1.28174 -1.99096,0 -3.04199,-1.28174 -1.05102,-1.29028 -1.05102,-3.74268 0,-2.44384 1.05102,-3.73413 1.05103,-1.29028 3.04199,-1.29028 z"
         style="font-size:17.5px"
         id="path4238"
         inkscape:connector-curvature="0" />
      <path
         d="m 226.5335,139.72917 0,4.84497 -1.58081,0 0,-13.21045 1.58081,0 0,1.22193 q 0.39307,-0.70923 1.04248,-1.07666 0.65796,-0.37598 1.51245,-0.37598 1.73462,0 2.71729,1.34155 0.99121,1.34156 0.99121,3.71704 0,2.33277 -0.99121,3.66578 -0.99121,1.32446 -2.71729,1.32446 -0.87158,0 -1.52954,-0.36743 -0.64941,-0.37598 -1.02539,-1.08521 z m 4.61426,-3.57178 q 0,-1.82861 -0.58106,-2.76001 -0.57251,-0.93139 -1.70898,-0.93139 -1.14502,0 -1.73462,0.93994 -0.5896,0.9314 -0.5896,2.75146 0,1.81153 0.5896,2.75147 0.5896,0.93994 1.73462,0.93994 1.13647,0 1.70898,-0.9314 0.58106,-0.93139 0.58106,-2.76001 z"
         style="font-size:17.5px"
         id="path4240"
         inkscape:connector-curvature="0" />
      <path
         d="m 236.69341,136.19157 q 0,1.82862 0.57251,2.76001 0.58106,0.9314 1.71753,0.9314 1.13648,0 1.71753,-0.9314 0.5896,-0.93994 0.5896,-2.76001 0,-1.82006 -0.5896,-2.75146 -0.58105,-0.93994 -1.71753,-0.93994 -1.13647,0 -1.71753,0.93139 -0.57251,0.9314 -0.57251,2.76001 z m 4.59717,3.55469 q -0.38452,0.70923 -1.04248,1.09375 -0.64941,0.37598 -1.51245,0.37598 -1.71753,0 -2.71729,-1.32446 -0.99121,-1.33301 -0.99121,-3.66578 0,-2.37548 0.99121,-3.71704 0.99121,-1.34155 2.71729,-1.34155 0.85449,0 1.50391,0.37598 0.65795,0.36743 1.05102,1.07666 l 0,-1.22193 1.58081,0 0,13.21045 -1.58081,0 0,-4.86206 z"
         style="font-size:17.5px"
         id="path4242"
         inkscape:connector-curvature="0" />
      <path
         d="m 254.25323,133.33757 q -0.50415,-0.39307 -1.02539,-0.57251 -0.52124,-0.17944 -1.14502,-0.17944 -1.46973,0 -2.24732,0.92285 -0.77759,0.92285 -0.77759,2.66601 l 0,4.75953 -1.58081,0 0,-9.57032 1.58081,0 0,1.87134 q 0.39307,-1.01684 1.20484,-1.55517 0.82031,-0.54688 1.9397,-0.54688 0.58105,0 1.0852,0.14526 0.50415,0.14527 0.96558,0.45288 l 0,1.60645 z"
         style="font-size:17.5px"
         id="path4244"
         inkscape:connector-curvature="0" />
      <path
         d="m 263.2254,131.69695 0,1.53808 q -0.67505,-0.39307 -1.35865,-0.5896 -0.68359,-0.19653 -1.39282,-0.19653 -1.06811,0 -1.5979,0.35034 -0.52124,0.3418 -0.52124,1.05103 0,0.64086 0.39307,0.95703 0.39306,0.31616 1.95678,0.61523 l 0.63233,0.11963 q 1.17065,0.22217 1.7688,0.88867 0.60669,0.66651 0.60669,1.73462 0,1.41846 -1.00831,2.22168 -1.0083,0.79468 -2.80273,0.79468 -0.70923,0 -1.48682,-0.15381 -0.77758,-0.14526 -1.68335,-0.44434 l 0,-1.62353 q 0.88013,0.45288 1.68335,0.68359 0.80323,0.22217 1.521,0.22217 1.04248,0 1.61499,-0.4187 0.57251,-0.42725 0.57251,-1.18774 0,-1.09375 -2.09351,-1.51246 l -0.0684,-0.0171 -0.5896,-0.11962 q -1.35865,-0.2649 -1.98243,-0.88868 -0.62378,-0.63232 -0.62378,-1.71753 0,-1.37573 0.9314,-2.11914 0.9314,-0.75195 2.65747,-0.75195 0.76904,0 1.47827,0.14526 0.70923,0.13672 1.39283,0.41871 z"
         style="font-size:17.5px"
         id="path4246"
         inkscape:connector-curvature="0" />
      <path
         d="m 270.68511,128.64641 0,2.71728 3.57178,0 0,1.22193 -3.57178,0 0,5.19531 q 0,1.05957 0.40161,1.47827 0.40161,0.4187 1.40137,0.4187 l 1.7688,0 0,1.25611 -1.92261,0 q -1.7688,0 -2.49512,-0.70923 -0.72631,-0.70923 -0.72631,-2.44385 l 0,-5.19531 -2.55494,0 0,-1.22193 2.55494,0 0,-2.71728 1.57226,0 z"
         style="font-size:17.5px"
         id="path4248"
         inkscape:connector-curvature="0" />
      <path
         d="m 277.63213,137.31096 0,-5.93018 1.57227,0 0,5.93018 q 0,1.29028 0.45288,1.89697 0.46143,0.60669 1.41846,0.60669 1.11084,0 1.70044,-0.77759 0.5896,-0.78613 0.5896,-2.24731 l 0,-5.40894 1.58081,0 0,9.55323 -1.58081,0 0,-1.43555 q -0.41871,0.82886 -1.14502,1.2561 -0.71778,0.42725 -1.68335,0.42725 -1.46973,0 -2.1875,-0.95703 -0.71778,-0.96558 -0.71778,-2.91382 z"
         style="font-size:17.5px"
         id="path4250"
         inkscape:connector-curvature="0" />
      <path
         d="m 287.34771,131.36369 1.63208,0 2.7771,8.03223 2.78564,-8.03223 1.63208,0 -3.40087,9.57032 -2.02515,0 -3.40088,-9.57032 z"
         style="font-size:17.5px"
         id="path4252"
         inkscape:connector-curvature="0" />
      <path
         d="m 297.02056,131.36369 1.55518,0 1.66626,7.73316 1.36718,-4.93897 1.34156,0 1.38427,4.93897 1.66626,-7.73316 1.55518,0 -2.23877,9.57032 -1.50391,0 -1.52954,-5.24659 -1.52099,5.24659 -1.50391,0 -2.23877,-9.57032 z"
         style="font-size:17.5px"
         id="path4254"
         inkscape:connector-curvature="0" />
      <path
         d="m 317.10113,131.36369 -3.42652,4.58008 3.75977,4.99024 -1.82007,0 -2.80273,-3.83667 -2.79419,3.83667 -1.82007,0 3.75976,-4.99024 -3.42651,-4.58008 1.74317,0 2.53784,3.4607 2.52075,-3.4607 1.7688,0 z"
         style="font-size:17.5px"
         id="path4256"
         inkscape:connector-curvature="0" />
      <path
         d="m 325.40679,137.85783 q -0.39306,0.99976 -0.99975,2.63184 -0.84595,2.25586 -1.13648,2.75146 -0.39307,0.66651 -0.98266,0.99976 -0.5896,0.33325 -1.37574,0.33325 l -1.26465,0 0,-1.31592 0.9314,0 q 0.69214,0 1.08521,-0.40161 0.39306,-0.40161 0.99975,-2.07641 l -3.69995,-9.41651 1.66626,0 2.83691,7.48535 2.79419,-7.48535 1.66626,0 -2.52075,6.49414 z"
         style="font-size:17.5px"
         id="path4258"
         inkscape:connector-curvature="0" />
      <path
         d="m 330.54229,131.3466 6.94702,0 0,1.43555 -5.49438,6.87012 5.49438,0 0,1.28174 -7.1521,0 0,-1.45264 5.49439,-6.87866 -5.28931,0 0,-1.25611 z"
         style="font-size:17.5px"
         id="path4260"
         inkscape:connector-curvature="0" />
      <path
         d="m 70.682671,151.57243 -1.820069,6.52832 3.640137,0 -1.820068,-6.52832 z m -1.042481,-1.52099 2.093506,0 3.905029,12.75757 -1.785888,0 -0.939942,-3.32398 -4.468994,0 -0.922852,3.32398 -1.785888,0 3.905029,-12.75757 z"
         style="font-size:17.5px"
         id="path4262"
         inkscape:connector-curvature="0" />
      <path
         d="m 79.099419,156.71648 0,4.67407 2.042236,0 q 1.503906,0 2.144775,-0.52124 0.640869,-0.52979 0.640869,-1.73462 0,-1.24756 -0.675048,-1.82861 -0.675049,-0.5896 -2.110596,-0.5896 l -2.042236,0 z m 0,-5.24659 0,3.84522 2.008056,0 q 1.247559,0 1.802979,-0.47852 0.563965,-0.47851 0.563965,-1.54663 0,-0.96557 -0.55542,-1.39282 -0.546875,-0.42725 -1.811524,-0.42725 l -2.008056,0 z m -1.73462,-1.41845 3.776856,0 q 1.956787,0 3.016357,0.84594 1.059571,0.84595 1.059571,2.39258 0,1.17066 -0.563965,1.84571 -0.55542,0.67504 -1.674805,0.84594 1.256104,0.18799 1.965332,1.07666 0.717774,0.88013 0.717774,2.24732 0,1.73462 -1.136475,2.62329 -1.136475,0.88013 -3.383789,0.88013 l -3.776856,0 0,-12.75757 z"
         style="font-size:17.5px"
         id="path4264"
         inkscape:connector-curvature="0" />
      <path
         d="m 95.642387,162.35612 q -0.657959,0.35035 -1.350097,0.52125 -0.692139,0.17944 -1.469727,0.17944 -2.452392,0 -3.811035,-1.73462 -1.350098,-1.73462 -1.350098,-4.87915 0,-3.12744 1.358643,-4.87061 1.367187,-1.75171 3.80249,-1.75171 0.777588,0 1.469727,0.17945 0.692138,0.1709 1.350097,0.52124 l 0,1.7688 q -0.632324,-0.52124 -1.358642,-0.79468 -0.726319,-0.27344 -1.461182,-0.27344 -1.683349,0 -2.520752,1.29883 -0.837402,1.29883 -0.837402,3.92212 0,2.61475 0.837402,3.91357 0.837403,1.29883 2.520752,1.29883 0.751953,0 1.469727,-0.27344 0.726318,-0.27343 1.350097,-0.79467 l 0,1.76879 z"
         style="font-size:17.5px"
         id="path4266"
         inkscape:connector-curvature="0" />
      <path
         d="m 100.72662,161.39055 q 2.17895,0 3.04199,-1.06812 0.86304,-1.07666 0.86304,-3.87939 0,-2.82837 -0.86304,-3.89649 -0.85449,-1.07666 -3.04199,-1.07666 l -0.820317,0 0,9.92066 0.820317,0 z m 0.0342,-11.33911 q 2.92236,0 4.30664,1.55517 1.38427,1.55518 1.38427,4.83643 0,3.26416 -1.38427,4.81933 -1.38428,1.54664 -4.30664,1.54664 l -2.589116,0 0,-12.75757 2.589116,0 z"
         style="font-size:17.5px"
         id="path4268"
         inkscape:connector-curvature="0" />
      <path
         d="m 109.21172,150.05144 7.5708,0 0,1.45263 -5.84472,0 0,3.77686 5.58838,0 0,1.45264 -5.58838,0 0,4.6228 6.00708,0 0,1.45264 -7.73316,0 0,-12.75757 z"
         style="font-size:17.5px"
         id="path4270"
         inkscape:connector-curvature="0" />
      <path
         d="m 120.04668,150.05144 7.51099,0 0,1.45263 -5.77637,0 0,3.75977 5.23804,0 0,1.45264 -5.23804,0 0,6.09253 -1.73462,0 0,-12.75757 z"
         style="font-size:17.5px"
         id="path4272"
         inkscape:connector-curvature="0" />
      <path
         d="m 138.01665,161.75798 q -0.69213,0.64087 -1.56372,0.97412 -0.86303,0.32471 -1.87133,0.32471 -2.42676,0 -3.77686,-1.73462 -1.3501,-1.74316 -1.3501,-4.87915 0,-3.12744 1.36719,-4.87061 1.36719,-1.75171 3.80249,-1.75171 0.80322,0 1.53809,0.23072 0.73486,0.22217 1.41845,0.68359 l 0,1.7688 q -0.69213,-0.65796 -1.41845,-0.96558 -0.72632,-0.31616 -1.53809,-0.31616 -1.68335,0 -2.5293,1.30737 -0.8374,1.29883 -0.8374,3.91358 0,2.65747 0.81177,3.93921 0.82031,1.27319 2.51221,1.27319 0.57251,0 0.99975,-0.12817 0.43579,-0.13672 0.78614,-0.4187 l 0,-3.42652 -1.85425,0 0,-1.41845 3.50341,0 0,5.49438 z"
         style="font-size:17.5px"
         id="path4274"
         inkscape:connector-curvature="0" />
      <path
         d="m 140.28106,150.05144 1.73462,0 0,5.22949 4.72534,0 0,-5.22949 1.73462,0 0,12.75757 -1.73462,0 0,-6.07544 -4.72534,0 0,6.07544 -1.73462,0 0,-12.75757 z"
         style="font-size:17.5px"
         id="path4276"
         inkscape:connector-curvature="0" />
      <path
         d="m 151.35528,150.05144 7.08374,0 0,1.45263 -2.67456,0 0,9.8523 2.67456,0 0,1.45264 -7.08374,0 0,-1.45264 2.67456,0 0,-9.8523 -2.67456,0 0,-1.45263 z"
         style="font-size:17.5px"
         id="path4278"
         inkscape:connector-curvature="0" />
      <path
         d="m 161.09649,162.28777 0,-2.01661 q 0.77759,0.69214 1.60644,1.04248 0.82886,0.3418 1.71753,0.3418 1.22193,0 1.70044,-0.63232 0.48706,-0.64087 0.48706,-2.37549 l 0,-7.14356 -3.25561,0 0,-1.45263 4.98169,0 0,8.59619 q 0,2.40967 -0.90576,3.40942 -0.89722,0.99976 -3.00782,0.99976 -0.82031,0 -1.63208,-0.18799 -0.81176,-0.18799 -1.69189,-0.58105 z"
         style="font-size:17.5px"
         id="path4280"
         inkscape:connector-curvature="0" />
      <path
         d="m 171.86309,150.05144 1.73462,0 0,5.67383 5.39185,-5.67383 2.02514,0 -4.9646,5.2124 5.10987,7.54517 -2.08497,0 -4.16137,-6.39161 -1.31592,1.40137 0,4.99024 -1.73462,0 0,-12.75757 z"
         style="font-size:17.5px"
         id="path4282"
         inkscape:connector-curvature="0" />
      <path
         d="m 183.05694,150.05144 1.73462,0 0,11.30493 6.16089,0 0,1.45264 -7.89551,0 0,-12.75757 z"
         style="font-size:17.5px"
         id="path4284"
         inkscape:connector-curvature="0" />
      <path
         d="m 192.48199,150.05144 2.30713,0 2.20459,6.49414 2.22168,-6.49414 2.31567,0 0,12.75757 -1.5979,0 0,-11.27076 -2.27295,6.72486 -1.30737,0 -2.2815,-6.72486 0,11.27076 -1.58935,0 0,-12.75757 z"
         style="font-size:17.5px"
         id="path4286"
         inkscape:connector-curvature="0" />
      <path
         d="m 203.46221,150.05144 2.1875,0 4.30664,10.50171 0,-10.50171 1.66626,0 0,12.75757 -2.1875,0 -4.30664,-10.50171 0,10.50171 -1.66626,0 0,-12.75757 z"
         style="font-size:17.5px"
         id="path4288"
         inkscape:connector-curvature="0" />
      <path
         d="m 220.53497,156.44304 q 0,-2.81128 -0.58106,-4.01611 -0.57251,-1.20484 -1.88843,-1.20484 -1.30737,0 -1.88842,1.20484 -0.57251,1.20483 -0.57251,4.01611 0,2.80273 0.57251,4.00757 0.58105,1.20483 1.88842,1.20483 1.31592,0 1.88843,-1.19629 0.58106,-1.20483 0.58106,-4.01611 z m 1.80297,0 q 0,3.33252 -1.05957,4.97314 -1.05102,1.64063 -3.21289,1.64063 -2.16186,0 -3.21289,-1.63208 -1.05102,-1.63208 -1.05102,-4.98169 0,-3.34107 1.05102,-4.98169 1.05957,-1.64063 3.21289,-1.64063 2.16187,0 3.21289,1.64063 1.05957,1.64062 1.05957,4.98169 z"
         style="font-size:17.5px"
         id="path4290"
         inkscape:connector-curvature="0" />
      <path
         d="m 226.73858,151.46989 0,4.79371 1.99951,0 q 1.19629,0 1.86279,-0.63233 0.67505,-0.63232 0.67505,-1.7688 0,-1.13647 -0.6665,-1.76025 -0.66651,-0.63233 -1.87134,-0.63233 l -1.99951,0 z m -1.72608,-1.41845 3.72559,0 q 2.13623,0 3.23853,0.97412 1.10229,0.96557 1.10229,2.83691 0,1.88843 -1.10229,2.85401 -1.09375,0.96557 -3.23853,0.96557 l -1.99951,0 0,5.12696 -1.72608,0 0,-12.75757 z"
         style="font-size:17.5px"
         id="path4292"
         inkscape:connector-curvature="0" />
      <path
         d="m 239.45342,163.03972 q -0.0598,0 -0.1709,0.009 -0.11108,0.009 -0.17944,0.009 -2.13623,0 -3.1958,-1.64063 -1.05103,-1.64062 -1.05103,-4.97314 0,-3.34107 1.05103,-4.98169 1.05957,-1.64063 3.21289,-1.64063 2.16187,0 3.21289,1.64063 1.05957,1.64062 1.05957,4.98169 0,2.51221 -0.5896,4.05029 -0.58105,1.52954 -1.7688,2.14478 l 1.70899,1.62353 -1.29029,0.85449 -1.99951,-2.07641 z m 2.13623,-6.59668 q 0,-2.81128 -0.58105,-4.01611 -0.57251,-1.20484 -1.88843,-1.20484 -1.30737,0 -1.88843,1.20484 -0.57251,1.20483 -0.57251,4.01611 0,2.80273 0.57251,4.00757 0.58106,1.20483 1.88843,1.20483 1.31592,0 1.88843,-1.19629 0.58105,-1.20483 0.58105,-4.01611 z"
         style="font-size:17.5px"
         id="path4294"
         inkscape:connector-curvature="0" />
      <path
         d="m 250.87798,156.78484 q 0.66651,0.17089 1.13648,0.64941 0.46997,0.46997 1.17065,1.88843 l 1.73462,3.48633 -1.85425,0 -1.52099,-3.22144 q -0.65796,-1.37573 -1.18775,-1.7688 -0.52124,-0.40161 -1.36718,-0.40161 l -1.64917,0 0,5.39185 -1.73462,0 0,-12.75757 3.55468,0 q 2.10205,0 3.22144,0.94848 1.11938,0.94849 1.11938,2.74292 0,1.26465 -0.69213,2.06787 -0.6836,0.79468 -1.93116,0.97413 z m -3.53759,-5.31495 0,4.52881 1.88842,0 q 1.23902,0 1.84571,-0.55542 0.60669,-0.55542 0.60669,-1.70044 0,-1.10229 -0.64942,-1.68335 -0.64087,-0.5896 -1.87134,-0.5896 l -1.82006,0 z"
         style="font-size:17.5px"
         id="path4296"
         inkscape:connector-curvature="0" />
      <path
         d="m 263.55865,150.48723 0,1.75171 q -0.78614,-0.50415 -1.58081,-0.7605 -0.78614,-0.25635 -1.58936,-0.25635 -1.22192,0 -1.93115,0.57251 -0.70923,0.56397 -0.70923,1.52954 0,0.84595 0.46143,1.29029 0.46997,0.44433 1.74316,0.7434 l 0.90576,0.20508 q 1.79444,0.4187 2.61475,1.31592 0.82031,0.89722 0.82031,2.44385 0,1.82007 -1.12793,2.7771 -1.12793,0.95703 -3.28125,0.95703 -0.89722,0 -1.80298,-0.19653 -0.90576,-0.18799 -1.82007,-0.57251 l 0,-1.83716 q 0.98267,0.62378 1.85425,0.9143 0.88013,0.29053 1.7688,0.29053 1.30737,0 2.03369,-0.58105 0.72632,-0.5896 0.72632,-1.64063 0,-0.95703 -0.50415,-1.46118 -0.49561,-0.50415 -1.73462,-0.77759 l -0.92285,-0.21362 q -1.77734,-0.40161 -2.58057,-1.21338 -0.80322,-0.81177 -0.80322,-2.17895 0,-1.70899 1.14502,-2.73438 1.15356,-1.03394 3.05908,-1.03394 0.73487,0 1.54663,0.1709 0.81177,0.16236 1.70899,0.49561 z"
         style="font-size:17.5px"
         id="path4298"
         inkscape:connector-curvature="0" />
      <path
         d="m 265.84014,150.05144 9.73267,0 0,1.45263 -3.99048,0 0,11.30494 -1.73462,0 0,-11.30494 -4.00757,0 0,-1.45263 z"
         style="font-size:17.5px"
         id="path4300"
         inkscape:connector-curvature="0" />
      <path
         d="m 277.22198,157.91277 0,-7.86133 1.73462,0 0,8.64746 q 0,0.93139 0.0513,1.33301 0.0513,0.39306 0.17944,0.60669 0.27344,0.50415 0.78613,0.76049 0.52124,0.25635 1.25611,0.25635 0.7434,0 1.2561,-0.25635 0.51269,-0.25634 0.79468,-0.76049 0.12817,-0.21363 0.17944,-0.60669 0.0513,-0.39307 0.0513,-1.31592 l 0,-0.80322 0,-7.86133 1.72607,0 0,7.86133 q 0,1.95678 -0.2478,2.78564 -0.23926,0.82031 -0.8374,1.35864 -0.56397,0.50415 -1.29028,0.75196 -0.72632,0.2478 -1.63208,0.2478 -0.89722,0 -1.62354,-0.2478 -0.72632,-0.24781 -1.29883,-0.75196 -0.5896,-0.52978 -0.8374,-1.36718 -0.2478,-0.84595 -0.2478,-2.7771 z"
         style="font-size:17.5px"
         id="path4302"
         inkscape:connector-curvature="0" />
      <path
         d="m 291.75689,161.35637 2.99927,-11.30493 1.78589,0 -3.73414,12.75757 -2.0935,0 -3.73413,-12.75757 1.78589,0 2.99072,11.30493 z"
         style="font-size:17.5px"
         id="path4304"
         inkscape:connector-curvature="0" />
      <path
         d="m 297.02056,150.05144 1.68335,0 1.22192,10.35644 1.45264,-6.85302 1.80298,0 1.46973,6.87011 1.22192,-10.37353 1.68335,0 -1.90552,12.75757 -1.63208,0 -1.73462,-7.57935 -1.72607,7.57935 -1.63208,0 -1.90552,-12.75757 z"
         style="font-size:17.5px"
         id="path4306"
         inkscape:connector-curvature="0" />
      <path
         d="m 308.28277,150.05144 1.85425,0 2.80273,4.81079 2.854,-4.81079 1.85425,0 -3.81958,5.99853 4.09302,6.75904 -1.85425,0 -3.12744,-5.49439 -3.37524,5.49439 -1.8628,0 4.27246,-6.75904 -3.6914,-5.99853 z"
         style="font-size:17.5px"
         id="path4308"
         inkscape:connector-curvature="0" />
      <path
         d="m 318.39141,150.05144 1.83716,0 3.11035,5.6311 3.10181,-5.6311 1.85425,0 -4.09302,7.03247 0,5.7251 -1.73462,0 0,-5.7251 -4.07593,-7.03247 z"
         style="font-size:17.5px"
         id="path4310"
         inkscape:connector-curvature="0" />
      <path
         d="m 330.12359,150.05144 8.28003,0 0,1.31592 -6.66504,9.98901 6.85303,0 0,1.45264 -8.65601,0 0,-1.31592 6.4856,-9.98902 -6.29761,0 0,-1.45263 z"
         style="font-size:17.5px"
         id="path4312"
         inkscape:connector-curvature="0" />
      <path
         d="m 70.682671,176.21599 q -1.196289,0 -1.811524,0.93139 -0.615234,0.9314 -0.615234,2.76001 0,1.82007 0.615234,2.76001 0.615235,0.9314 1.811524,0.9314 1.204834,0 1.820068,-0.9314 0.615234,-0.93994 0.615234,-2.76001 0,-1.82861 -0.615234,-2.76001 -0.615234,-0.93139 -1.820068,-0.93139 z m 0,-1.33301 q 1.990966,0 3.041992,1.29028 1.05957,1.29029 1.05957,3.73413 0,2.4524 -1.051025,3.74268 -1.051026,1.28174 -3.050537,1.28174 -1.990967,0 -3.041993,-1.28174 -1.051025,-1.29028 -1.051025,-3.74268 0,-2.44384 1.051025,-3.73413 1.051026,-1.29028 3.041993,-1.29028 z"
         style="font-size:17.5px"
         id="path4314"
         inkscape:connector-curvature="0" />
      <path
         d="m 83.679497,178.31804 q 0,-2.81128 -0.581055,-4.01611 -0.57251,-1.20484 -1.888428,-1.20484 -1.307373,0 -1.888427,1.20484 -0.57251,1.20483 -0.57251,4.01611 0,2.80273 0.57251,4.00757 0.581054,1.20483 1.888427,1.20483 1.315918,0 1.888428,-1.19629 0.581055,-1.20483 0.581055,-4.01611 z m 1.802978,0 q 0,3.33252 -1.05957,4.97314 -1.051025,1.64063 -3.212891,1.64063 -2.161865,0 -3.21289,-1.63208 -1.051026,-1.63208 -1.051026,-4.98169 0,-3.34107 1.051026,-4.98169 1.05957,-1.64063 3.21289,-1.64063 2.161866,0 3.212891,1.64063 1.05957,1.64062 1.05957,4.98169 z"
         style="font-size:17.5px"
         id="path4316"
         inkscape:connector-curvature="0" />
      <path
         d="m 90.600883,178.27531 q 0,-0.46997 0.324708,-0.81176 0.333251,-0.3418 0.794677,-0.3418 0.478516,0 0.820313,0.3418 0.341797,0.34179 0.341797,0.81176 0,0.47852 -0.341797,0.81177 -0.333252,0.33325 -0.820313,0.33325 -0.478515,0 -0.803222,-0.3247 -0.316163,-0.32471 -0.316163,-0.82032 z m 1.136475,-5.2124 q -1.204834,0 -1.802978,1.29883 -0.5896,1.29883 -0.5896,3.9563 0,2.64892 0.5896,3.94775 0.598144,1.29883 1.802978,1.29883 1.213379,0 1.802979,-1.29883 0.598144,-1.29883 0.598144,-3.94775 0,-2.65747 -0.598144,-3.9563 -0.5896,-1.29883 -1.802979,-1.29883 z m 0,-1.36719 q 2.042236,0 3.084717,1.67481 1.051025,1.6748 1.051025,4.94751 0,3.26416 -1.051025,4.93896 -1.042481,1.67481 -3.084717,1.67481 -2.042236,0 -3.084717,-1.67481 -1.04248,-1.6748 -1.04248,-4.93896 0,-3.27271 1.04248,-4.94751 1.042481,-1.67481 3.084717,-1.67481 z"
         style="font-size:17.5px"
         id="path4318"
         inkscape:connector-curvature="0" />
      <path
         d="m 102.2647,178.62566 q -1.15356,0 -1.78589,0.64941 -0.623776,0.64087 -0.623776,1.82007 0,1.1792 0.632326,1.83716 0.64087,0.64941 1.77734,0.64941 1.16211,0 1.78589,-0.64087 0.63232,-0.64941 0.63232,-1.8457 0,-1.17066 -0.64086,-1.82007 -0.63233,-0.64941 -1.77735,-0.64941 z m -1.5039,-0.71778 q -1.102299,-0.28198 -1.726079,-1.05102 -0.615234,-0.76905 -0.615234,-1.85425 0,-1.521 1.033936,-2.40967 1.033937,-0.89722 2.811277,-0.89722 1.78589,0 2.81983,0.89722 1.03393,0.88867 1.03393,2.40967 0,1.0852 -0.62378,1.85425 -0.61523,0.76904 -1.71753,1.05102 1.28174,0.28199 1.95679,1.13648 0.68359,0.85449 0.68359,2.21313 0,1.72608 -1.10229,2.7002 -1.1023,0.97412 -3.05054,0.97412 -1.94824,0 -3.050535,-0.96558 -1.09375,-0.97412 -1.09375,-2.69165 0,-1.36719 0.675049,-2.22168 0.683593,-0.86303 1.965336,-1.14502 z m -0.62378,-2.74292 q 0,1.02539 0.54687,1.56372 0.54688,0.53833 1.58081,0.53833 1.04248,0 1.58936,-0.53833 0.54687,-0.53833 0.54687,-1.56372 0,-1.04248 -0.54687,-1.58935 -0.53833,-0.54688 -1.58936,-0.54688 -1.03393,0 -1.58081,0.55542 -0.54687,0.54688 -0.54687,1.58081 z"
         style="font-size:17.5px"
         id="path4320"
         inkscape:connector-curvature="0" />
      <path
         d="m 120.24322,175.11369 4.02466,0 0,8.34839 3.11889,0 0,1.22193 -7.81006,0 0,-1.22193 3.1189,0 0,-7.12646 -2.45239,0 0,-1.22193 z m 2.45239,-3.72558 1.57227,0 0,1.99096 -1.57227,0 0,-1.99096 z"
         style="font-size:17.5px"
         id="path4322"
         inkscape:connector-curvature="0" />
      <path
         d="m 130.30059,171.92644 7.08374,0 0,1.45263 -2.67456,0 0,9.8523 2.67456,0 0,1.45264 -7.08374,0 0,-1.45264 2.67456,0 0,-9.8523 -2.67456,0 0,-1.45263 z"
         style="font-size:17.5px"
         id="path4324"
         inkscape:connector-curvature="0" />
      <path
         d="m 144.57061,181.21477 q 0,1.05957 0.38452,1.5979 0.39307,0.53833 1.15357,0.53833 l 1.83715,0 0,1.33301 -1.99096,0 q -1.40991,0 -2.1875,-0.90577 -0.76905,-0.90576 -0.76905,-2.56347 l 0,-8.69019 -2.52075,0 0,-1.23047 4.09302,0 0,9.92066 z"
         style="font-size:17.5px"
         id="path4326"
         inkscape:connector-curvature="0" />
      <path
         d="m 151.47491,171.92644 1.73462,0 0,11.30493 6.16088,0 0,1.45264 -7.8955,0 0,-12.75757 z"
         style="font-size:17.5px"
         id="path4328"
         inkscape:connector-curvature="0" />
      <path
         d="m 162.47222,183.23137 2.68311,0 0,-9.74976 -2.88819,0.64942 0,-1.57227 2.8711,-0.63232 1.72607,0 0,11.30493 2.64893,0 0,1.45264 -7.04102,0 0,-1.45264 z"
         style="font-size:17.5px"
         id="path4330"
         inkscape:connector-curvature="0" />
      <path
         d="m 189.86724,186.30754 0,1.23047 -0.54687,0 q -2.12769,0 -2.85401,-0.63232 -0.71777,-0.63233 -0.71777,-2.52076 l 0,-2.04223 q 0,-1.29029 -0.46143,-1.78589 -0.45288,-0.49561 -1.64917,-0.49561 l -0.52978,0 0,-1.22192 0.52978,0 q 1.20484,0 1.65772,-0.48706 0.45288,-0.48706 0.45288,-1.7688 l 0,-2.05078 q 0,-1.88843 0.71777,-2.51221 0.72632,-0.63232 2.85401,-0.63232 l 0.54687,0 0,1.22192 -0.59814,0 q -1.19629,0 -1.56372,0.37598 -0.35889,0.36743 -0.35889,1.58081 l 0,2.11914 q 0,1.34155 -0.39307,1.94824 -0.38452,0.60669 -1.32446,0.82031 0.94849,0.23072 1.33301,0.83741 0.38452,0.60669 0.38452,1.93969 l 0,2.11914 q 0,1.22193 0.35889,1.58936 0.36743,0.36743 1.56372,0.36743 l 0.59814,0 z"
         style="font-size:17.5px"
         id="path4332"
         inkscape:connector-curvature="0" />
      <path
         d="m 193.63555,186.30754 0.58106,0 q 1.20483,0 1.57226,-0.37598 0.36743,-0.37597 0.36743,-1.58081 l 0,-2.11914 q 0,-1.333 0.38452,-1.93969 0.38453,-0.60669 1.33301,-0.83741 -0.93994,-0.21362 -1.33301,-0.82031 -0.38452,-0.60669 -0.38452,-1.94824 l 0,-2.11914 q 0,-1.20484 -0.36743,-1.58081 -0.36743,-0.37598 -1.57226,-0.37598 l -0.58106,0 0,-1.22192 0.52979,0 q 2.12768,0 2.84546,0.63232 0.71777,0.62378 0.71777,2.51221 l 0,2.05078 q 0,1.28174 0.45288,1.7688 0.46143,0.48706 1.66626,0.48706 l 0.54687,0 0,1.22192 -0.54687,0 q -1.20483,0 -1.66626,0.49561 -0.45288,0.4956 -0.45288,1.78589 l 0,2.04223 q 0,1.88843 -0.71777,2.52076 -0.71778,0.63232 -2.84546,0.63232 l -0.52979,0 0,-1.23047 z"
         style="font-size:17.5px"
         id="path4334"
         inkscape:connector-curvature="0" />
      <path
         d="m 216.75811,171.38811 3.62305,0 0,1.22192 -2.05078,0 0,13.15918 2.05078,0 0,1.22192 -3.62305,0 0,-15.60302 z"
         style="font-size:17.5px"
         id="path4336"
         inkscape:connector-curvature="0" />
      <path
         d="m 229.90874,171.38811 0,15.60302 -3.62304,0 0,-1.22192 2.05078,0 0,-13.15918 -2.05078,0 0,-1.22192 3.62304,0 z"
         style="font-size:17.5px"
         id="path4338"
         inkscape:connector-curvature="0" />
      <path
         d="m 251.71539,179.82195 q 0,-1.7688 -0.58106,-2.68311 -0.57251,-0.92285 -1.6748,-0.92285 -1.15357,0 -1.76026,0.92285 -0.60669,0.91431 -0.60669,2.68311 0,1.76879 0.60669,2.70019 0.61524,0.92285 1.77735,0.92285 1.0852,0 1.65771,-0.93139 0.58106,-0.9314 0.58106,-2.69165 z m 1.57226,4.24682 q 0,2.15332 -1.01684,3.26416 -1.01685,1.11084 -2.99073,1.11084 -0.64941,0 -1.35864,-0.11963 -0.70923,-0.11963 -1.41846,-0.35034 l 0,-1.55518 q 0.83741,0.39307 1.521,0.58106 0.68359,0.18799 1.2561,0.18799 1.2732,0 1.85425,-0.69214 0.58106,-0.69214 0.58106,-2.19605 l 0,-0.0684 0,-1.06811 q -0.37598,0.80322 -1.0254,1.19629 -0.64941,0.39307 -1.58081,0.39307 -1.6748,0 -2.67456,-1.34156 -0.99975,-1.34155 -0.99975,-3.58886 0,-2.25586 0.99975,-3.59742 0.99976,-1.34155 2.67456,-1.34155 0.92286,0 1.56372,0.36743 0.64087,0.36743 1.04249,1.13648 l 0,-1.23902 1.57226,0 0,8.9209 z"
         style="font-size:17.5px"
         id="path4340"
         inkscape:connector-curvature="0" />
      <path
         d="m 260.00396,179.02727 q 1.10229,0 1.72607,-0.79468 0.63233,-0.79468 0.63233,-2.19605 0,-1.40136 -0.63233,-2.19604 -0.62378,-0.79468 -1.72607,-0.79468 -1.14502,0 -1.72607,0.7605 -0.58106,0.75195 -0.58106,2.23022 0,1.48682 0.57251,2.23877 0.58106,0.75196 1.73462,0.75196 z m -3.07617,5.39184 0,-1.58935 q 0.53833,0.31616 1.14502,0.48706 0.60669,0.16235 1.26465,0.16235 1.64062,0 2.47802,-1.23047 0.84595,-1.23901 0.84595,-3.64013 -0.40161,0.85449 -1.12793,1.31591 -0.72632,0.45289 -1.66626,0.45289 -1.8457,0 -2.86255,-1.13648 -1.0083,-1.13647 -1.0083,-3.22144 0,-2.05932 1.03394,-3.18725 1.04248,-1.13648 2.93945,-1.13648 2.22168,0 3.25562,1.5979 1.03393,1.59791 1.03393,5.02442 0,3.22143 -1.24756,4.92187 -1.23901,1.6919 -3.60595,1.6919 -0.62378,0 -1.25611,-0.13672 -0.63232,-0.12817 -1.22192,-0.37598 z"
         style="font-size:17.5px"
         id="path4342"
         inkscape:connector-curvature="0" />
      <path
         d="m 268.27544,179.94157 q 0,1.82862 0.57251,2.76001 0.58106,0.9314 1.71753,0.9314 1.13648,0 1.71753,-0.9314 0.5896,-0.93994 0.5896,-2.76001 0,-1.82006 -0.5896,-2.75146 -0.58105,-0.93994 -1.71753,-0.93994 -1.13647,0 -1.71753,0.93139 -0.57251,0.9314 -0.57251,2.76001 z m 4.59717,3.55469 q -0.38452,0.70923 -1.04248,1.09375 -0.64941,0.37598 -1.51245,0.37598 -1.71753,0 -2.71728,-1.32446 -0.99122,-1.33301 -0.99122,-3.66578 0,-2.37548 0.99122,-3.71704 0.99121,-1.34155 2.71728,-1.34155 0.85449,0 1.50391,0.37598 0.65796,0.36743 1.05102,1.07666 l 0,-1.22193 1.58081,0 0,13.21045 -1.58081,0 0,-4.86206 z"
         style="font-size:17.5px"
         id="path4344"
         inkscape:connector-curvature="0" />
      <path
         d="m 285.13457,184.23112 q -0.65795,0.35035 -1.35009,0.52125 -0.69214,0.17944 -1.46973,0.17944 -2.45239,0 -3.81103,-1.73462 -1.3501,-1.73462 -1.3501,-4.87915 0,-3.12744 1.35864,-4.87061 1.36719,-1.75171 3.80249,-1.75171 0.77759,0 1.46973,0.17945 0.69214,0.1709 1.35009,0.52124 l 0,1.7688 q -0.63232,-0.52124 -1.35864,-0.79468 -0.72632,-0.27344 -1.46118,-0.27344 -1.68335,0 -2.52075,1.29883 -0.8374,1.29883 -0.8374,3.92212 0,2.61475 0.8374,3.91357 0.8374,1.29883 2.52075,1.29883 0.75195,0 1.46973,-0.27344 0.72632,-0.27343 1.35009,-0.79467 l 0,1.76879 z"
         style="font-size:17.5px"
         id="path4346"
         inkscape:connector-curvature="0" />
      <path
         d="m 295.92681,183.63298 q -0.69214,0.64087 -1.56372,0.97412 -0.86304,0.32471 -1.87134,0.32471 -2.42676,0 -3.77685,-1.73462 -1.3501,-1.74316 -1.3501,-4.87915 0,-3.12744 1.36719,-4.87061 1.36718,-1.75171 3.80249,-1.75171 0.80322,0 1.53808,0.23072 0.73487,0.22217 1.41846,0.68359 l 0,1.7688 q -0.69214,-0.65796 -1.41846,-0.96558 -0.72632,-0.31616 -1.53808,-0.31616 -1.68335,0 -2.5293,1.30737 -0.8374,1.29883 -0.8374,3.91358 0,2.65747 0.81177,3.93921 0.82031,1.27319 2.5122,1.27319 0.57251,0 0.99976,-0.12817 0.43579,-0.13672 0.78613,-0.4187 l 0,-3.42652 -1.85425,0 0,-1.41845 3.50342,0 0,5.49438 z"
         style="font-size:17.5px"
         id="path4348"
         inkscape:connector-curvature="0" />
      <path
         d="m 302.61749,184.91472 q -0.0598,0 -0.1709,0.009 -0.11109,0.009 -0.17945,0.009 -2.13623,0 -3.1958,-1.64063 -1.05102,-1.64062 -1.05102,-4.97314 0,-3.34107 1.05102,-4.98169 1.05957,-1.64063 3.21289,-1.64063 2.16187,0 3.21289,1.64063 1.05957,1.64062 1.05957,4.98169 0,2.51221 -0.5896,4.05029 -0.58105,1.52954 -1.76879,2.14478 l 1.70898,1.62353 -1.29028,0.85449 -1.99951,-2.07641 z m 2.13623,-6.59668 q 0,-2.81128 -0.58106,-4.01611 -0.57251,-1.20484 -1.88843,-1.20484 -1.30737,0 -1.88842,1.20484 -0.57251,1.20483 -0.57251,4.01611 0,2.80273 0.57251,4.00757 0.58105,1.20483 1.88842,1.20483 1.31592,0 1.88843,-1.19629 0.58106,-1.20483 0.58106,-4.01611 z"
         style="font-size:17.5px"
         id="path4350"
         inkscape:connector-curvature="0" />
      <path
         d="m 327.85918,178.01897 0,1.48681 q -0.64086,0.50415 -1.2561,0.74341 -0.60669,0.23071 -1.28174,0.23071 -0.76904,0 -1.73462,-0.43579 -0.18798,-0.0854 -0.28198,-0.11963 -0.65796,-0.28198 -1.10229,-0.38452 -0.4358,-0.10254 -0.87159,-0.10254 -0.67504,0 -1.28173,0.25635 -0.59815,0.2478 -1.22193,0.78613 l 0,-1.48681 q 0.66651,-0.5127 1.29029,-0.74341 0.62377,-0.23071 1.333,-0.23071 0.45288,0 0.88013,0.094 0.42725,0.094 1.05957,0.35889 0.10254,0.0427 0.28198,0.12817 0.99121,0.46997 1.78589,0.46997 0.59815,0 1.1792,-0.25635 0.5896,-0.26489 1.22192,-0.79467 z"
         style="font-size:17.5px"
         id="path4352"
         inkscape:connector-curvature="0" />
      <path
         d="m 331.64458,179.18962 4.45191,0 0,1.40137 -4.45191,0 0,-1.40137 z"
         style="font-size:17.5px"
         id="path4354"
         inkscape:connector-curvature="0" />
      <path
         d="m 345.11138,174.6779 0,3.79395 3.80249,0 0,1.45263 -3.80249,0 0,3.79395 -1.43555,0 0,-3.79395 -3.79394,0 0,-1.45263 3.79394,0 0,-3.79395 1.43555,0 z"
         style="font-size:17.5px"
         id="path4356"
         inkscape:connector-curvature="0" />
      <path
         d="m 350.40923,180.20647 9.03199,0 0,1.46972 -9.03199,0 0,-1.46972 z m 0,-3.46924 9.03199,0 0,1.45264 -9.03199,0 0,-1.45264 z"
         style="font-size:17.5px"
         id="path4358"
         inkscape:connector-curvature="0" />
      <path
         d="m 360.93658,176.47234 0,-1.55518 9.03198,3.57178 0,1.41845 -9.03198,3.57178 0,-1.56372 7.26318,-2.70874 -7.26318,-2.73437 z"
         style="font-size:17.5px"
         id="path4360"
         inkscape:connector-curvature="0" />
    </g>
  </g>
</svg>
