<svg xmlns="http://www.w3.org/2000/svg" width="323.161" height="114.997" viewBox="0 0 302.963 107.81"><g font-weight="400" font-family="BlexMono Nerd Font" letter-spacing="0" word-spacing="0" fill="#fff"><g style="line-height:125%;text-decoration-line:underline" font-size="27.5" text-decoration="underline"><path d="M0 1.155h6.518q2.475 0 3.877 1.348 1.403 1.347 1.403 3.602 0 1.733-.853 2.723-.825.99-2.145 1.402v.083q1.623.384 2.667 1.457 1.046 1.045 1.046 3.053 0 1.154-.385 2.172-.385 1.018-1.1 1.76-.688.742-1.65 1.182-.935.413-2.035.413H0V1.155zm6.655 17.188q1.595 0 2.502-.715.908-.715.908-2.2V14.3q0-1.457-.907-2.172-.908-.743-2.503-.743H2.31v6.958h4.345zM6.27 9.488q1.458 0 2.283-.633.824-.66.824-1.98V5.802q0-1.32-.825-1.98-.824-.66-2.282-.66H2.31v6.325h3.96zM16.27 18.48h4.95V1.87h-4.95V0h7.15v18.48h4.95v1.87h-12.1v-1.87zM39.056 20.68q-1.54 0-2.777-.523-1.21-.522-2.09-1.484-.853-.99-1.32-2.338-.468-1.375-.468-3.052 0-1.705.468-3.08.495-1.375 1.347-2.338.853-.99 2.035-1.512 1.21-.523 2.668-.523 1.43 0 2.585.523 1.182.522 2.007 1.457.825.908 1.265 2.173.44 1.265.44 2.777v1.045H34.711v.66q0 .935.303 1.733.302.797.852 1.375.578.577 1.375.907.825.303 1.815.303 1.43 0 2.475-.66 1.045-.66 1.595-1.815l1.623 1.1q-.633 1.43-2.118 2.364-1.457.908-3.575.908zm-.137-13.035q-.908 0-1.678.33-.77.33-1.347.908-.55.577-.88 1.375-.303.77-.303 1.705v.192h8.14v-.302q0-.935-.302-1.705-.275-.77-.798-1.32-.495-.578-1.237-.88-.715-.303-1.595-.303zM48.725 20.35l5.28-7.205-5.142-6.985h2.64l2.145 2.997 1.705 2.365h.11l1.65-2.365L59.23 6.16h2.53l-5.197 6.957 5.335 7.233h-2.64l-2.393-3.328-1.622-2.254h-.11l-1.568 2.255-2.31 3.327h-2.53zM76.05 10.725V4.648h-.22l-4.043 9.872-4.042-9.872h-.22V20.35h-2.118V1.155h2.97l3.383 8.47h.165l3.382-8.47h2.86V20.35H76.05v-9.625zM88.276 20.68q-1.485 0-2.695-.523-1.182-.522-2.035-1.484-.825-.99-1.265-2.338-.44-1.375-.44-3.08 0-1.677.44-3.052t1.265-2.338q.853-.99 2.035-1.512 1.21-.523 2.695-.523 1.485 0 2.668.523 1.21.522 2.035 1.512.852.963 1.292 2.338.44 1.375.44 3.052 0 1.705-.44 3.08-.44 1.348-1.292 2.338-.825.962-2.035 1.484-1.183.523-2.668.523zm0-1.897q1.843 0 2.97-1.1 1.128-1.1 1.128-3.41v-2.035q0-2.31-1.128-3.41-1.127-1.1-2.97-1.1-1.842 0-2.97 1.1-1.127 1.1-1.127 3.41v2.035q0 2.31 1.127 3.41 1.128 1.1 2.97 1.1zM99.21 20.35V6.16h2.2v2.31h.11q.22-.522.55-.99.33-.495.798-.853.495-.357 1.155-.577.66-.22 1.54-.22 2.228 0 3.575 1.43 1.348 1.403 1.348 3.988v9.102h-2.2v-8.718q0-1.952-.853-2.887-.852-.963-2.502-.963-.66 0-1.293.165-.632.165-1.127.495-.495.33-.798.853-.302.522-.302 1.21v9.845h-2.2zM121.255 20.68q-1.485 0-2.695-.523-1.183-.522-2.035-1.484-.825-.99-1.265-2.338-.44-1.375-.44-3.08 0-1.677.44-3.052t1.265-2.338q.852-.99 2.035-1.512 1.21-.523 2.695-.523 1.485 0 2.667.523 1.21.522 2.035 1.512.853.963 1.293 2.338.44 1.375.44 3.052 0 1.705-.44 3.08-.44 1.348-1.293 2.338-.825.962-2.035 1.484-1.182.523-2.667.523zm0-1.897q1.842 0 2.97-1.1 1.127-1.1 1.127-3.41v-2.035q0-2.31-1.127-3.41-1.128-1.1-2.97-1.1-1.843 0-2.97 1.1-1.128 1.1-1.128 3.41v2.035q0 2.31 1.128 3.41 1.127 1.1 2.97 1.1zM150.466 4.098h-.193V20.35h-2.09V1.155h3.273L158 17.243h.192V1.155h2.09V20.35h-3.272l-6.545-16.252zM170.97 20.68q-1.54 0-2.777-.523-1.21-.522-2.09-1.484-.853-.99-1.32-2.338-.468-1.375-.468-3.052 0-1.705.468-3.08.495-1.375 1.347-2.338.853-.99 2.035-1.512 1.21-.523 2.668-.523 1.43 0 2.585.523 1.182.522 2.007 1.457.825.908 1.265 2.173.44 1.265.44 2.777v1.045h-10.505v.66q0 .935.303 1.733.302.797.852 1.375.578.577 1.375.907.825.303 1.815.303 1.43 0 2.475-.66 1.045-.66 1.595-1.815l1.623 1.1q-.633 1.43-2.118 2.364-1.457.908-3.575.908zm-.137-13.035q-.908 0-1.678.33-.77.33-1.347.908-.55.577-.88 1.375-.303.77-.303 1.705v.192h8.14v-.302q0-.935-.302-1.705-.275-.77-.798-1.32-.495-.578-1.237-.88-.715-.303-1.595-.303zM181.08 18.48h4.152V8.03h-4.153V6.16h6.353v3.575h.137q.44-1.677 1.65-2.612 1.238-.963 3.135-.963h1.98v2.2h-2.667q-1.898 0-3.08 1.1-1.155 1.1-1.155 2.888v6.132h5.5v1.87h-11.853v-1.87zM207.139 18.04h-.11q-1.375 2.64-4.373 2.64-2.612 0-4.097-1.952-1.458-1.953-1.458-5.473 0-3.52 1.458-5.472 1.485-1.953 4.097-1.953 2.998 0 4.373 2.64h.11V0h2.2v20.35h-2.2v-2.31zm-3.63.688q.742 0 1.402-.193.66-.192 1.155-.55.495-.385.77-.907.303-.55.303-1.265v-5.115q0-.715-.303-1.238-.275-.55-.77-.907-.495-.385-1.155-.578-.66-.192-1.402-.192-1.925 0-2.998 1.182-1.045 1.155-1.045 3.08v2.42q0 1.925 1.045 3.108 1.073 1.155 2.998 1.155zM230.905 20.35V1.155h12.1v2.008h-9.79v6.462h8.965v2.008h-8.965v8.717h-2.31zM253.169 20.68q-1.485 0-2.695-.523-1.183-.522-2.035-1.484-.825-.99-1.265-2.338-.44-1.375-.44-3.08 0-1.677.44-3.052t1.265-2.338q.852-.99 2.035-1.512 1.21-.523 2.695-.523 1.485 0 2.667.523 1.21.522 2.035 1.512.853.963 1.293 2.338.44 1.375.44 3.052 0 1.705-.44 3.08-.44 1.348-1.293 2.338-.825.962-2.035 1.484-1.182.523-2.667.523zm0-1.897q1.842 0 2.97-1.1 1.127-1.1 1.127-3.41v-2.035q0-2.31-1.127-3.41-1.128-1.1-2.97-1.1-1.843 0-2.97 1.1-1.128 1.1-1.128 3.41v2.035q0 2.31 1.128 3.41 1.127 1.1 2.97 1.1zM264.103 20.35V6.16h2.2v2.31h.11q.22-.522.55-.99.33-.495.798-.853.495-.357 1.155-.577.66-.22 1.54-.22 2.227 0 3.575 1.43 1.347 1.403 1.347 3.988v9.102h-2.2v-8.718q0-1.952-.852-2.887-.853-.963-2.503-.963-.66 0-1.292.165-.633.165-1.128.495-.495.33-.797.853-.303.522-.303 1.21v9.845h-2.2zM286.835 20.35q-1.623 0-2.393-.908-.742-.907-.742-2.337V8.03h-4.73V6.16h3.52q.715 0 .99-.275.302-.302.302-1.017V1.155h2.118V6.16h6.462v1.87H285.9v10.45h6.462v1.87h-5.527z"/></g><g style="line-height:125%" font-size="17.5"><path d="M8.805 60.35q-.823 0-1.173-.42-.35-.42-.437-1.05h-.088q-.297.787-.962 1.242-.648.438-1.75.438-1.418 0-2.258-.735-.84-.735-.84-2.013 0-1.26.91-1.942.928-.683 2.975-.683h1.925v-.892q0-.998-.56-1.488-.56-.507-1.592-.507-.91 0-1.488.367-.577.35-.927.963l-.945-.7q.175-.35.472-.683.298-.332.735-.577.438-.263.998-.403.56-.157 1.242-.157 1.593 0 2.52.805.945.805.945 2.24v4.97h1.26v1.225h-.962zm-4.165-.963q.542 0 .98-.122.455-.14.787-.35.333-.228.508-.525.192-.315.192-.665v-1.488H5.182q-1.26 0-1.837.35-.578.35-.578 1.015v.368q0 .7.49 1.067.508.35 1.383.35zM12.298 47.4h1.4v5.39h.07q.875-1.68 2.782-1.68 1.663 0 2.59 1.242.945 1.243.945 3.483t-.945 3.482q-.927 1.243-2.59 1.243-1.907 0-2.782-1.68h-.07v1.47h-1.4V47.4zm3.71 11.917q1.225 0 1.89-.735.682-.752.682-1.977v-1.54q0-1.225-.682-1.96-.665-.753-1.89-.753-.473 0-.893.123-.42.122-.735.367-.315.228-.507.578-.175.332-.175.787v3.255q0 .455.175.805.192.333.507.578.315.227.735.35.42.122.893.122zM26.694 60.56q-.98 0-1.75-.333-.753-.35-1.278-.962-.525-.613-.805-1.488-.262-.875-.262-1.942 0-1.068.28-1.943t.805-1.487q.525-.63 1.277-.963.753-.332 1.715-.332 1.313 0 2.135.577.823.578 1.208 1.505l-1.12.595q-.245-.7-.823-1.085-.56-.385-1.4-.385-.612 0-1.102.21-.473.193-.805.56-.333.368-.508.875-.157.508-.157 1.103v1.54q0 .595.157 1.102.175.508.508.875.332.368.822.578.49.192 1.12.192.91 0 1.505-.42.595-.42.945-1.155l.998.683q-.403.91-1.26 1.505-.84.595-2.205.595zM39.06 58.88h-.07q-.876 1.68-2.783 1.68-1.663 0-2.608-1.243-.927-1.242-.927-3.482t.927-3.483q.945-1.242 2.608-1.242 1.907 0 2.782 1.68h.07V47.4h1.4v12.95h-1.4v-1.47zm-2.31.437q.472 0 .892-.122.42-.123.735-.35.315-.245.49-.578.192-.35.192-.805v-3.255q0-.455-.192-.787-.175-.35-.49-.578-.315-.245-.735-.367-.42-.123-.893-.123-1.225 0-1.907.753-.665.735-.665 1.96v1.54q0 1.225.665 1.977.682.735 1.907.735zM47.522 60.56q-.98 0-1.767-.333-.77-.332-1.33-.945-.543-.63-.84-1.487-.298-.875-.298-1.943 0-1.085.298-1.96.315-.875.857-1.487.543-.63 1.295-.963.77-.332 1.698-.332.91 0 1.645.332.752.333 1.277.928.525.577.805 1.382.28.805.28 1.768v.665h-6.685v.42q0 .595.193 1.102.192.508.542.875.368.368.875.578.525.192 1.155.192.91 0 1.575-.42.665-.42 1.015-1.155l1.033.7q-.403.91-1.348 1.505-.927.578-2.275.578zm-.087-8.295q-.578 0-1.068.21-.49.21-.857.577-.35.368-.56.875-.193.49-.193 1.085v.123h5.18v-.193q0-.595-.192-1.085-.175-.49-.508-.84-.315-.367-.787-.56-.455-.192-1.015-.192zM54.06 59.16h3.046v-6.65h-3.22v-1.19h3.22v-1.855q0-.91.472-1.488.49-.577 1.523-.577h3.027v1.19h-3.622v2.73h3.622v1.19h-3.622v6.65h3.22v1.19H54.06v-1.19zM72.919 61.382q0 1.365-1.138 2.013-1.137.665-3.412.665-2.188 0-3.15-.578-.945-.577-.945-1.662 0-.735.385-1.138.385-.402 1.085-.595v-.21q-.385-.192-.595-.49-.21-.297-.21-.752 0-.7.455-1.05.472-.35 1.172-.525v-.07q-.84-.368-1.312-1.085-.455-.718-.455-1.68 0-.683.245-1.26.245-.578.7-.98.472-.42 1.12-.648.647-.227 1.435-.227 1.015 0 1.785.367v-.157q0-.525.245-.875t.84-.35h1.662v1.225h-2.03v.612q.49.42.753.998.262.577.262 1.295 0 .682-.262 1.26-.245.577-.7.997-.455.403-1.12.63-.648.228-1.435.228-.228 0-.438-.018-.21-.017-.42-.052-.21.035-.437.122-.228.07-.42.21-.193.123-.315.298-.123.175-.123.402 0 .403.403.543.402.122 1.05.122h1.995q1.75 0 2.537.665.788.648.788 1.75zm-1.313.07q0-.542-.437-.875-.438-.315-1.523-.315h-3.132q-.91.368-.91 1.225 0 .595.472 1.015.473.438 1.575.438h1.365q1.225 0 1.908-.385.682-.368.682-1.103zM68.3 56.255q1.05 0 1.54-.49.507-.49.507-1.295v-.508q0-.805-.507-1.277-.49-.49-1.54-.49t-1.54.49q-.49.472-.49 1.277v.508q0 .805.49 1.295.49.49 1.54.49zM75.31 47.4h1.4v5.39h.07q.14-.333.35-.63.21-.315.507-.543.315-.227.735-.367.42-.14.98-.14 1.417 0 2.275.91.857.892.857 2.537v5.793h-1.4v-5.548q0-1.242-.542-1.837-.543-.613-1.593-.613-.42 0-.822.105-.403.105-.718.315-.315.21-.507.543-.193.332-.193.77v6.265h-1.4V47.4zM89.898 49.325q-.613 0-.858-.245-.245-.263-.245-.648v-.28q0-.385.245-.63.245-.262.858-.262.612 0 .857.262.245.245.245.63v.28q0 .385-.245.648-.245.245-.857.245zm-3.955 9.835h3.255v-6.65h-3.255v-1.19h4.655v7.84h3.045v1.19h-7.7v-1.19zM96.366 62.66h4.375V52.51h-4.533v-1.19h5.933v10.465q0 .91-.49 1.487-.473.578-1.505.578h-3.78v-1.19zm5.075-13.335q-.613 0-.858-.245-.245-.263-.245-.648v-.28q0-.385.245-.63.245-.262.858-.262.612 0 .857.262.245.245.245.63v.28q0 .385-.245.648-.245.245-.857.245zM106.911 47.4h1.4v8.172h.07l1.575-1.487 3.01-2.765h1.715l-3.745 3.535 4.183 5.495h-1.733l-3.517-4.69-1.558 1.417v3.273h-1.4V47.4zM116.967 59.16h3.15V48.59h-3.15V47.4h4.55v11.76h3.15v1.19h-7.7v-1.19zM127.005 60.35v-9.03h1.295v1.05h.07q.21-.525.595-.893.385-.367 1.138-.367.787 0 1.172.402.385.385.473 1.015h.052q.245-.612.7-1.015.455-.402 1.26-.402 1.103 0 1.47.77.385.77.385 2.205v6.265h-1.295v-6.038q0-1.155-.245-1.592-.227-.455-.857-.455-.56 0-.91.367-.35.35-.35 1.085v6.633h-1.295v-6.038q0-1.155-.245-1.592-.228-.455-.84-.455-.56 0-.928.367-.35.35-.35 1.085v6.633h-1.295zM138.268 60.35v-9.03h1.4v1.47h.07q.14-.333.35-.63.21-.315.508-.543.315-.227.735-.367.42-.14.98-.14 1.417 0 2.275.91.857.892.857 2.537v5.793h-1.4v-5.548q0-1.242-.542-1.837-.543-.613-1.593-.613-.42 0-.822.105-.403.105-.718.315-.315.21-.507.543-.193.332-.193.77v6.265h-1.4zM152.297 60.56q-.945 0-1.715-.333-.753-.332-1.295-.945-.525-.63-.805-1.487-.28-.875-.28-1.96 0-1.068.28-1.943t.805-1.487q.542-.63 1.295-.963.77-.332 1.715-.332.945 0 1.697.332.77.333 1.295.963.543.612.823 1.487.28.875.28 1.943 0 1.085-.28 1.96-.28.857-.823 1.487-.525.613-1.295.945-.752.333-1.697.333zm0-1.208q1.172 0 1.89-.7.717-.7.717-2.17v-1.295q0-1.47-.717-2.17-.718-.7-1.89-.7-1.173 0-1.89.7-.718.7-.718 2.17v1.295q0 1.47.718 2.17.717.7 1.89.7zM159.202 51.32h1.4v1.47h.07q.875-1.68 2.783-1.68 1.662 0 2.59 1.242.945 1.243.945 3.483t-.945 3.482q-.928 1.243-2.59 1.243-1.908 0-2.783-1.68h-.07v4.97h-1.4V51.32zm3.71 7.997q1.225 0 1.89-.735.683-.752.683-1.977v-1.54q0-1.225-.683-1.96-.665-.753-1.89-.753-.472 0-.892.123-.42.122-.735.367-.315.228-.508.578-.175.332-.175.787v3.255q0 .455.175.805.193.333.508.578.315.227.735.35.42.122.892.122zM175.47 58.88h-.07q-.875 1.68-2.782 1.68-1.663 0-2.608-1.243-.927-1.242-.927-3.482t.927-3.483q.945-1.242 2.608-1.242 1.907 0 2.782 1.68h.07v-1.47h1.4v12.53h-1.4v-4.97zm-2.31.437q.473 0 .893-.122.42-.123.735-.35.315-.245.49-.578.192-.35.192-.805v-3.255q0-.455-.192-.787-.175-.35-.49-.578-.315-.245-.735-.367-.42-.123-.893-.123-1.225 0-1.907.753-.665.735-.665 1.96v1.54q0 1.225.665 1.977.682.735 1.907.735zM179.874 59.16h2.642v-6.65h-2.642v-1.19h4.042v2.275h.088q.28-1.068 1.05-1.663.787-.612 1.995-.612h1.26v1.4h-1.698q-1.207 0-1.96.7-.735.7-.735 1.837v3.903h3.5v1.19h-7.542v-1.19zM194.374 60.56q-1.417 0-2.45-.473-1.015-.49-1.732-1.295l.945-.822q.647.682 1.417 1.05.77.367 1.855.367 1.05 0 1.715-.367.683-.385.683-1.19 0-.35-.14-.578-.123-.245-.35-.385-.228-.14-.508-.21-.28-.087-.595-.14l-1.417-.21q-.473-.07-1.033-.192-.542-.123-.997-.385-.455-.28-.77-.735-.298-.455-.298-1.19 0-.683.263-1.173.28-.507.77-.84.49-.35 1.155-.507.665-.175 1.452-.175 1.225 0 2.118.385.91.385 1.557 1.067l-.91.858q-.157-.193-.402-.385-.228-.21-.578-.368-.332-.175-.787-.28-.455-.105-1.05-.105-1.068 0-1.645.368-.56.367-.56 1.067 0 .35.122.595.14.228.368.368.227.14.507.227.298.07.595.123l1.418.21q.49.07 1.032.192.543.123.998.403.455.262.752.717.315.455.315 1.19 0 1.348-1.05 2.083-1.032.735-2.765.735zM205.2 60.35q-1.033 0-1.523-.578-.472-.577-.472-1.487V52.51h-3.01v-1.19h2.24q.455 0 .63-.175.192-.193.192-.648v-2.362h1.348v3.185h4.112v1.19h-4.112v6.65h4.112v1.19H205.2zM217.39 58.88h-.07q-.14.332-.35.647-.21.298-.524.525-.298.228-.718.368-.42.14-.98.14-1.417 0-2.275-.893-.857-.91-.857-2.555V51.32h1.4v5.547q0 1.243.542 1.855.543.595 1.593.595.42 0 .822-.105.403-.105.718-.315.315-.21.507-.525.193-.332.193-.787V51.32h1.4v9.03h-1.4v-1.47zM224.856 60.35l-3.237-9.03h1.417l1.295 3.78 1.4 4.077h.07l1.4-4.077 1.295-3.78h1.383l-3.238 9.03h-1.785zM231.517 51.32h1.242l1.033 7.805h.157l1.54-7.805h1.54l1.54 7.805h.158l1.032-7.805h1.208l-1.383 9.03h-1.82l-1.435-7.56h-.14l-1.47 7.56h-1.82l-1.382-9.03zM242.553 60.35l3.36-4.585-3.273-4.445h1.68l1.365 1.907 1.085 1.505h.07l1.05-1.505 1.348-1.907h1.61l-3.308 4.427 3.395 4.603h-1.68l-1.522-2.118-1.033-1.435h-.07l-.997 1.435-1.47 2.118h-1.61zM260.15 51.32h1.4l-4.48 11.007q-.157.385-.35.665-.192.298-.454.473-.263.192-.63.28-.368.105-.875.105h-1.33v-1.19h2.1l1.015-2.485-3.64-8.855h1.435l1.522 3.78 1.348 3.43h.07l1.347-3.43 1.523-3.78zM263.959 60.35v-1.348l5.827-6.492h-5.635v-1.19h7.158v1.347l-5.828 6.493h6.003v1.19h-7.525zM8.56 82.225l-1.033-3.483H3.24l-1.033 3.483H.685L4.43 70.01h1.942l3.745 12.215H8.56zM5.462 71.567h-.157L3.59 77.465h3.587l-1.715-5.898zM12.175 70.01h4.148q1.575 0 2.467.857.893.858.893 2.293 0 1.102-.543 1.732-.525.63-1.365.893v.052q1.033.245 1.698.928.665.665.665 1.942 0 .735-.245 1.383-.245.647-.7 1.12-.438.472-1.05.752-.595.263-1.295.263h-4.673V70.01zm4.235 10.937q1.015 0 1.593-.455.577-.455.577-1.4v-.717q0-.928-.577-1.383-.578-.472-1.593-.472h-2.765v4.427h2.765zm-.245-5.635q.928 0 1.453-.402.525-.42.525-1.26v-.683q0-.84-.525-1.26-.525-.42-1.453-.42h-2.52v4.025h2.52zM26.781 82.435q-2.24 0-3.342-1.628-1.085-1.627-1.085-4.69 0-3.062 1.085-4.69Q24.54 69.8 26.78 69.8q.84 0 1.453.227.612.228 1.05.613.437.385.735.875.297.472.525.962l-1.26.578q-.158-.403-.368-.753-.21-.367-.507-.63-.28-.28-.683-.437-.385-.158-.945-.158-1.452 0-2.17 1.103-.7 1.102-.7 2.94v1.995q0 1.837.7 2.94.718 1.102 2.17 1.102.56 0 .945-.157.403-.158.683-.42.297-.28.507-.63.21-.368.368-.77l1.26.577q-.228.508-.525.98-.298.473-.735.858-.438.385-1.05.612-.613.228-1.453.228zM33.284 70.01h3.413q2.24 0 3.342 1.54 1.103 1.54 1.103 4.567 0 3.028-1.103 4.568-1.102 1.54-3.342 1.54h-3.413V70.01zm3.343 10.937q1.47 0 2.205-1.015.752-1.015.752-2.87v-1.89q0-1.855-.752-2.87-.735-1.015-2.205-1.015h-1.873v9.66h1.873zM43.69 82.225V70.01h7.525v1.277H45.16V75.4h5.845v1.277H45.16v4.27h6.055v1.278H43.69zM54.183 82.225V70.01h7.7v1.277h-6.23V75.4h5.705v1.277h-5.705v5.548h-1.47zM70.871 80.597h-.087q-.158.35-.368.683-.21.332-.542.595-.315.245-.77.402-.455.158-1.085.158-1.995 0-2.975-1.61-.963-1.61-.963-4.62 0-3.15 1.068-4.778 1.067-1.627 3.29-1.627.857 0 1.487.227.63.228 1.068.613.455.385.752.875.298.472.49.962l-1.26.578q-.157-.403-.367-.753-.193-.367-.49-.63-.28-.28-.683-.437-.402-.158-.945-.158-1.47 0-2.17 1.103-.682 1.102-.682 2.94v1.89q0 .927.14 1.697.14.753.455 1.313.332.56.84.875.525.297 1.277.297 1.19 0 1.855-.717.665-.718.665-1.855v-1.26H68.3v-1.173h3.937v6.038h-1.365v-1.628zM81.224 76.677h-4.76v5.548h-1.47V70.01h1.47v5.39h4.76v-5.39h1.47v12.215h-1.47v-5.548zM85.558 82.225v-1.173h3.045v-9.87h-3.045V70.01h7.56v1.172h-3.045v9.87h3.045v1.173h-7.56zM102.98 70.01v9.047q0 .77-.262 1.4-.262.63-.752 1.068-.473.437-1.138.682-.665.228-1.452.228-1.4 0-2.31-.718-.91-.735-1.19-2.047l1.4-.298q.087.368.227.7.158.315.403.56.262.228.63.368.367.14.875.14.997 0 1.54-.56.56-.578.56-1.785v-7.508H97.1V70.01h5.88zM109.781 76.24l-1.75 2.065v3.92h-1.47V70.01h1.47v6.37h.053l1.61-2.03 3.605-4.34h1.767l-4.287 5.145 4.41 7.07h-1.715l-3.693-5.985zM117.667 82.225V70.01h1.47v10.937h5.793v1.278h-7.263zM134.023 76.1v-3.868h-.14l-2.573 6.283-2.572-6.283h-.14v9.993h-1.348V70.01h1.89l2.153 5.39h.105l2.152-5.39h1.82v12.215h-1.347V76.1zM139.406 71.882h-.123v10.343h-1.33V70.01h2.083l4.165 10.237h.122V70.01h1.33v12.215h-2.082l-4.165-10.343zM152.297 82.435q-1.12 0-1.925-.42-.805-.438-1.33-1.243-.525-.805-.77-1.977-.245-1.173-.245-2.678 0-1.487.245-2.66.245-1.19.77-1.995.525-.805 1.33-1.225.805-.437 1.925-.437t1.925.437q.805.42 1.33 1.225.525.805.77 1.995.245 1.173.245 2.66 0 1.505-.245 2.678-.245 1.172-.77 1.977-.525.805-1.33 1.243-.805.42-1.925.42zm0-1.278q.735 0 1.242-.28.508-.297.84-.822.333-.525.473-1.26.157-.753.157-1.68V75.12q0-.91-.157-1.663-.14-.752-.473-1.277-.332-.525-.84-.805-.507-.298-1.242-.298t-1.243.298q-.507.28-.84.805-.332.525-.49 1.277-.14.753-.14 1.663v1.995q0 .927.14 1.68.158.735.49 1.26.333.525.84.822.508.28 1.243.28zM159.115 82.225V70.01h4.445q1.697 0 2.59.927.892.928.892 2.59 0 1.663-.892 2.59-.893.928-2.59.928h-2.975v5.18h-1.47zm1.47-6.458h2.94q.927 0 1.435-.455.525-.472.525-1.33v-.91q0-.857-.525-1.312-.508-.473-1.435-.473h-2.94v4.48zM176.625 85.095h-2.047q-1.033 0-1.523-.578-.472-.577-.472-1.487v-.648q-.928-.122-1.61-.595-.665-.49-1.103-1.277-.437-.805-.647-1.908-.21-1.12-.21-2.485 0-1.487.245-2.66.245-1.19.77-1.995.525-.805 1.33-1.225.805-.437 1.925-.437t1.925.437q.805.42 1.33 1.225.525.805.77 1.995.245 1.173.245 2.66 0 2.748-.858 4.393-.857 1.627-2.712 1.872v1.523h2.642v1.19zm-3.342-3.938q.735 0 1.242-.28.508-.297.84-.822.333-.525.473-1.26.157-.753.157-1.68V75.12q0-.91-.157-1.663-.14-.752-.473-1.277-.332-.525-.84-.805-.507-.298-1.242-.298t-1.243.298q-.507.28-.84.805-.332.525-.49 1.277-.14.753-.14 1.663v1.995q0 .927.14 1.68.158.735.49 1.26.333.525.84.822.508.28 1.243.28zM181.571 82.225h-1.47V70.01h4.445q1.698 0 2.59.927.893.928.893 2.59 0 1.488-.77 2.38-.77.893-2.24 1.033l3.115 5.285h-1.645l-2.975-5.215h-1.943v5.215zm2.94-6.458q.928 0 1.435-.455.525-.472.525-1.33v-.91q0-.857-.525-1.312-.507-.473-1.435-.473h-2.94v4.48h2.94zM194.234 82.435q-1.645 0-2.695-.595-1.05-.613-1.732-1.558l1.067-.875q.718.893 1.505 1.33.805.438 1.908.438 1.33 0 2.03-.613.7-.612.7-1.715 0-.892-.508-1.382-.507-.508-1.767-.718l-1.365-.227q-.893-.158-1.505-.473-.595-.315-.963-.752-.367-.455-.525-.98-.157-.543-.157-1.12 0-1.68 1.102-2.538 1.103-.857 2.975-.857 1.47 0 2.468.49 1.015.49 1.627 1.382l-1.032.893q-.508-.665-1.225-1.085-.718-.42-1.855-.42-1.243 0-1.908.525-.665.525-.665 1.575 0 .822.49 1.347.508.508 1.803.735l1.312.228q.893.157 1.505.472.613.315.98.753.385.437.543.98.157.542.157 1.137 0 1.698-1.12 2.66-1.102.963-3.15.963zM205.497 71.287v10.938h-1.47V71.287h-4.077V70.01h9.625v1.277h-4.078zM212.876 70.01v7.332q0 .893.052 1.593.053.7.28 1.207.228.49.7.753.49.262 1.348.262.857 0 1.33-.262.49-.263.717-.753.228-.507.28-1.207.053-.7.053-1.593V70.01h1.47v6.982q0 1.365-.14 2.38-.123 1.015-.543 1.698-.402.682-1.172 1.032-.753.333-1.995.333-1.243 0-2.013-.333-.752-.35-1.172-1.032-.403-.683-.543-1.698-.122-1.015-.122-2.38V70.01h1.47zM224.751 82.225L221.13 70.01h1.557l1.733 6.107 1.312 4.62h.088l1.312-4.62 1.733-6.107h1.505l-3.623 12.215h-1.995zM232.567 82.225l-.963-12.215h1.313l.507 7 .263 3.692h.14l1.61-7.507h1.645l1.61 7.507h.14l.262-3.692.508-7h1.277l-.962 12.215h-2.118l-1.487-7.298h-.14l-1.488 7.298h-2.117zM251.548 82.225h-1.663l-1.452-2.433-1.61-2.66h-.07l-1.663 2.66-1.54 2.433h-1.61l3.99-6.23-3.762-5.985h1.662l1.418 2.362 1.522 2.468h.07l1.505-2.468 1.47-2.362h1.61l-3.78 5.967 3.903 6.248zM256.493 82.225V77.43l-4.217-7.42h1.68l1.75 3.185 1.487 2.782h.07l1.523-2.782 1.75-3.185h1.645l-4.218 7.42v4.795h-1.47zM272.131 82.225h-8.82v-1.313l6.913-9.625h-6.615V70.01h8.225v1.312l-6.93 9.625h7.227v1.278zM5.392 104.31q-.945 0-1.715-.333-.752-.332-1.295-.945-.525-.63-.805-1.487-.28-.875-.28-1.96 0-1.068.28-1.943t.805-1.487q.543-.63 1.295-.963.77-.332 1.715-.332.945 0 1.698.332.77.333 1.295.963.542.612.822 1.487.28.875.28 1.943 0 1.085-.28 1.96-.28.857-.822 1.487-.525.613-1.295.945-.753.333-1.698.333zm0-1.208q1.173 0 1.89-.7.718-.7.718-2.17v-1.295q0-1.47-.718-2.17-.717-.7-1.89-.7-1.172 0-1.89.7-.717.7-.717 2.17v1.295q0 1.47.717 2.17.718.7 1.89.7zM15.885 104.31q-1.12 0-1.925-.42-.805-.438-1.33-1.243-.525-.805-.77-1.977-.245-1.173-.245-2.678 0-1.487.245-2.66.245-1.19.77-1.995.525-.805 1.33-1.225.805-.437 1.925-.437t1.925.437q.805.42 1.33 1.225.525.805.77 1.995.245 1.173.245 2.66 0 1.505-.245 2.678-.245 1.172-.77 1.977-.525.805-1.33 1.243-.805.42-1.925.42zm0-1.278q.735 0 1.243-.28.507-.297.84-.822.332-.525.472-1.26.158-.753.158-1.68v-1.995q0-.91-.158-1.663-.14-.752-.472-1.277-.333-.525-.84-.805-.508-.298-1.243-.298-.735 0-1.242.298-.508.28-.84.805-.333.525-.49 1.277-.14.753-.14 1.663v1.995q0 .927.14 1.68.157.735.49 1.26.332.525.84.822.507.28 1.242.28zM26.379 104.31q-1.12 0-1.925-.42-.805-.438-1.33-1.243-.525-.805-.77-1.977-.245-1.173-.245-2.678 0-1.487.245-2.66.245-1.19.77-1.995.525-.805 1.33-1.225.805-.437 1.925-.437t1.925.437q.805.42 1.33 1.225.525.805.77 1.995.245 1.173.245 2.66 0 1.505-.245 2.678-.245 1.172-.77 1.977-.525.805-1.33 1.243-.805.42-1.925.42zm0-1.278q.735 0 1.26-.28.525-.297.84-.822.332-.525.49-1.26.157-.753.157-1.68v-1.995q0-.91-.157-1.663-.158-.752-.49-1.277-.315-.525-.84-.805-.525-.298-1.26-.298t-1.26.298q-.525.28-.858.805-.315.525-.472 1.277-.158.753-.158 1.663v1.995q0 .927.158 1.68.157.735.472 1.26.333.525.858.822.525.28 1.26.28zm0-4.007q-.613 0-.858-.245-.227-.245-.227-.595V97.8q0-.35.227-.595.245-.245.858-.245.612 0 .84.245.245.245.245.595v.385q0 .35-.245.595-.228.245-.84.245zM36.872 104.31q-1.068 0-1.873-.263-.805-.28-1.347-.752-.525-.473-.805-1.12-.263-.648-.263-1.4 0-1.26.683-1.995.682-.735 1.802-1.033v-.14q-.98-.332-1.557-1.067-.56-.753-.56-1.803 0-1.4 1.032-2.222 1.033-.84 2.888-.84t2.887.84q1.033.822 1.033 2.222 0 1.05-.578 1.803-.56.735-1.54 1.067v.14q1.12.298 1.803 1.033.682.735.682 1.995 0 .752-.28 1.4-.262.647-.805 1.12-.542.472-1.347.752-.788.263-1.855.263zm0-1.243q1.295 0 2.03-.577.735-.578.735-1.628v-.385q0-1.05-.735-1.627-.718-.578-2.03-.578-1.313 0-2.048.578-.717.577-.717 1.627v.385q0 1.05.735 1.628.735.577 2.03.577zm0-5.985q1.19 0 1.802-.507.63-.508.63-1.453v-.245q0-.945-.647-1.452-.63-.508-1.785-.508-1.155 0-1.803.508-.63.507-.63 1.452v.245q0 .945.613 1.453.63.507 1.82.507zM58.418 93.075q-.612 0-.857-.245-.245-.263-.245-.648v-.28q0-.385.245-.63.245-.262.857-.262.613 0 .858.262.245.245.245.63v.28q0 .385-.245.648-.245.245-.858.245zm-3.955 9.835h3.255v-6.65h-3.255v-1.19h4.655v7.84h3.045v1.19h-7.7v-1.19zM64.571 104.1v-1.173h3.045v-9.87h-3.045v-1.172h7.56v1.172h-3.045v9.87h3.045v1.173h-7.56zM74.994 102.91h3.15V92.34h-3.15v-1.19h4.55v11.76h3.15v1.19h-7.7v-1.19zM86.188 104.1V91.885h1.47v10.937h5.792v1.278h-7.262zM96.068 104.1v-1.278h3.5V92.97h-.122l-3.08 2.87-.858-.928 3.238-3.027h2.292v10.937h3.22v1.278h-8.19zM121.15 106.515q-.735 0-1.103-.42-.367-.403-.367-1.015v-1.103q0-.472.087-.822.105-.35.245-.63t.315-.49q.175-.228.333-.42.297-.35.402-.595.123-.263.123-.543 0-.665-.613-.962-.612-.315-1.802-.315h-1.365v-1.085h1.365q1.19 0 1.802-.298.613-.315.613-.98 0-.28-.123-.525-.105-.262-.402-.612-.158-.193-.333-.403-.175-.227-.315-.49-.14-.28-.245-.63-.087-.367-.087-.84v-1.102q0-.613.367-1.015.368-.42 1.103-.42h3.08v1.085h-3.343v1.347q0 .718.21 1.103t.49.752q.298.385.56.805.263.403.263.963 0 .735-.525 1.19-.508.455-1.4.577v.07q.892.123 1.4.578.525.455.525 1.19 0 .56-.263.98-.262.402-.56.787-.28.368-.49.753-.21.385-.21 1.102v1.348h3.343v1.085h-3.08zM130.978 90.8q.735 0 1.102.42.368.402.368 1.015v1.102q0 .473-.105.84-.088.35-.228.63-.14.263-.315.49-.175.21-.332.403-.298.35-.42.612-.105.245-.105.525 0 .665.612.98.613.298 1.803.298h1.365V99.2h-1.365q-1.19 0-1.803.315-.612.297-.612.962 0 .28.105.543.122.245.42.595.157.192.332.42.175.21.315.49t.228.63q.105.35.105.822v1.103q0 .612-.368 1.015-.367.42-1.102.42h-3.08v-1.085h3.342v-1.348q0-.717-.21-1.102-.21-.385-.49-.753-.297-.385-.56-.787-.262-.42-.262-.98 0-.735.507-1.19.525-.455 1.418-.578v-.07q-.893-.122-1.418-.577-.507-.455-.507-1.19 0-.56.262-.963.263-.42.56-.805.28-.367.49-.752.21-.385.21-1.103v-1.347h-3.342V90.8h3.08zM150.984 106.515V90.8h4.9v1.085h-3.692v13.545h3.692v1.085h-4.9zM164.102 90.8v15.715h-4.9v-1.085h3.693V91.885h-3.693V90.8h4.9zM188.344 105.132q0 1.365-1.138 2.013-1.137.665-3.412.665-2.188 0-3.15-.578-.945-.577-.945-1.662 0-.735.385-1.138.385-.402 1.085-.595v-.21q-.385-.192-.595-.49-.21-.297-.21-.752 0-.7.455-1.05.472-.35 1.172-.525v-.07q-.84-.368-1.312-1.085-.455-.718-.455-1.68 0-.683.245-1.26.245-.578.7-.98.472-.42 1.12-.648.647-.227 1.435-.227 1.015 0 1.785.367v-.157q0-.525.245-.875t.84-.35h1.662v1.225h-2.03v.612q.49.42.753.998.262.577.262 1.295 0 .682-.262 1.26-.245.577-.7.997-.455.403-1.12.63-.648.228-1.435.228-.228 0-.438-.018-.21-.017-.42-.052-.21.035-.437.122-.228.07-.42.21-.193.123-.315.298-.123.175-.123.402 0 .403.403.543.402.122 1.05.122h1.995q1.75 0 2.537.665.788.648.788 1.75zm-1.313.07q0-.542-.437-.875-.438-.315-1.523-.315h-3.132q-.91.368-.91 1.225 0 .595.472 1.015.473.438 1.575.438h1.365q1.225 0 1.908-.385.682-.368.682-1.103zm-3.307-5.197q1.05 0 1.54-.49.507-.49.507-1.295v-.508q0-.805-.507-1.277-.49-.49-1.54-.49t-1.54.49q-.49.472-.49 1.277v.508q0 .805.49 1.295.49.49 1.54.49zM198.4 96.365q0 1.365-.42 2.572-.403 1.19-1.05 2.188-.648.98-1.436 1.75-.77.752-1.522 1.225h-1.89q.997-.718 1.767-1.4.788-.683 1.383-1.418.595-.752.997-1.592.403-.858.665-1.925l-.087-.035q-.455.752-1.173 1.26-.7.49-1.837.49-.805 0-1.488-.263-.665-.262-1.155-.752-.472-.49-.752-1.173-.263-.7-.263-1.575 0-.892.28-1.627.298-.753.84-1.278.543-.542 1.295-.84.77-.297 1.698-.297.962 0 1.732.332.77.315 1.295.928.543.595.823 1.47.297.875.297 1.96zm-4.13 1.907q1.26 0 1.942-.682.7-.683.7-1.925v-.14q0-1.243-.7-1.925-.683-.683-1.943-.683t-1.96.683q-.682.682-.682 1.925v.14q0 1.242.682 1.925.7.682 1.96.682zM206.95 102.63h-.07q-.875 1.68-2.783 1.68-1.662 0-2.607-1.243-.928-1.242-.928-3.482t.928-3.483q.945-1.242 2.607-1.242 1.908 0 2.783 1.68h.07v-1.47h1.4v12.53h-1.4v-4.97zm-2.31.437q.472 0 .892-.122.42-.123.735-.35.315-.245.49-.578.193-.35.193-.805v-3.255q0-.455-.193-.787-.175-.35-.49-.578-.315-.245-.735-.367-.42-.123-.892-.123-1.225 0-1.908.753-.665.735-.665 1.96v1.54q0 1.225.665 1.977.683.735 1.908.735zM215.658 104.31q-2.24 0-3.342-1.628-1.085-1.627-1.085-4.69 0-3.062 1.085-4.69 1.102-1.627 3.342-1.627.84 0 1.453.227.612.228 1.05.613.437.385.735.875.297.472.525.962l-1.26.578q-.158-.403-.368-.753-.21-.367-.507-.63-.28-.28-.683-.437-.385-.158-.945-.158-1.452 0-2.17 1.103-.7 1.102-.7 2.94v1.995q0 1.837.7 2.94.718 1.102 2.17 1.102.56 0 .945-.157.403-.158.683-.42.297-.28.507-.63.21-.368.368-.77l1.26.577q-.228.508-.525.98-.298.473-.735.858-.438.385-1.05.612-.613.228-1.453.228zM228.269 102.472h-.088q-.157.35-.367.683-.21.332-.543.595-.315.245-.77.402-.455.158-1.085.158-1.995 0-2.975-1.61-.962-1.61-.962-4.62 0-3.15 1.067-4.778 1.068-1.627 3.29-1.627.858 0 1.488.227.63.228 1.067.613.455.385.753.875.297.472.49.962l-1.26.578q-.158-.403-.368-.753-.192-.367-.49-.63-.28-.28-.682-.437-.403-.158-.945-.158-1.47 0-2.17 1.103-.683 1.102-.683 2.94v1.89q0 .927.14 1.697.14.753.455 1.313.333.56.84.875.525.297 1.278.297 1.19 0 1.855-.717.665-.718.665-1.855v-1.26h-2.573v-1.173h3.938v6.038h-1.365v-1.628zM239.584 106.97h-2.047q-1.033 0-1.523-.578-.472-.577-.472-1.487v-.648q-.928-.122-1.61-.595-.665-.49-1.103-1.277-.437-.805-.647-1.908-.21-1.12-.21-2.485 0-1.487.245-2.66.245-1.19.77-1.995.525-.805 1.33-1.225.805-.437 1.925-.437t1.925.437q.805.42 1.33 1.225.525.805.77 1.995.245 1.173.245 2.66 0 2.748-.858 4.393-.857 1.627-2.712 1.872v1.523h2.642v1.19zm-3.342-3.938q.735 0 1.242-.28.508-.297.84-.822.333-.525.473-1.26.157-.753.157-1.68v-1.995q0-.91-.157-1.663-.14-.752-.473-1.277-.332-.525-.84-.805-.507-.298-1.242-.298t-1.243.298q-.507.28-.84.805-.332.525-.49 1.277-.14.753-.14 1.663v1.995q0 .927.14 1.68.158.735.49 1.26.333.525.84.822.508.28 1.243.28zM259.118 99.952q-.542 0-1.032-.157-.49-.175-.945-.403-.455-.227-.928-.437-.455-.21-.892-.21-.508 0-.823.35-.315.332-.542.857l-1.068-.437q.245-.84.858-1.383.612-.56 1.592-.56.543 0 1.033.175.49.158.945.385.455.228.91.438.472.21.91.21.507 0 .822-.333.315-.35.543-.875l1.067.438q-.245.84-.857 1.4-.613.542-1.593.542zM265.184 99.515v-1.47h5.075v1.47h-5.075zM277.55 103.015v-3.658h-3.5v-1.19h3.5V94.51h1.33v3.657h3.5v1.19h-3.5v3.658h-1.33zM284.543 97.59V96.4h8.33v1.19h-8.33zm0 3.5V99.9h8.33v1.19h-8.33zM295.438 102.367l6.213-3.517v-.14l-6.213-3.518v-1.487l7.525 4.357v1.4l-7.525 4.358v-1.453z"/></g></g></svg>