<?xml version="1.0" encoding="UTF-8" standalone="no"?>
<!-- Created with Inkscape (http://www.inkscape.org/) -->

<svg
   xmlns:dc="http://purl.org/dc/elements/1.1/"
   xmlns:cc="http://creativecommons.org/ns#"
   xmlns:rdf="http://www.w3.org/1999/02/22-rdf-syntax-ns#"
   xmlns:svg="http://www.w3.org/2000/svg"
   xmlns="http://www.w3.org/2000/svg"
   xmlns:sodipodi="http://sodipodi.sourceforge.net/DTD/sodipodi-0.dtd"
   xmlns:inkscape="http://www.inkscape.org/namespaces/inkscape"
   width="85.502991mm"
   height="30.426374mm"
   viewBox="0 0 302.96335 107.80999"
   id="svg2"
   version="1.1"
   inkscape:version="0.91 r13725"
   sodipodi:docname="BlexMono Nerd Font.svg">
  <defs
     id="defs4" />
  <sodipodi:namedview
     id="base"
     pagecolor="#ffffff"
     bordercolor="#666666"
     borderopacity="1.0"
     inkscape:pageopacity="0.0"
     inkscape:pageshadow="2"
     inkscape:zoom="0.7"
     inkscape:cx="-55.277147"
     inkscape:cy="-401.11144"
     inkscape:document-units="px"
     inkscape:current-layer="layer1"
     showgrid="false"
     inkscape:window-width="1861"
     inkscape:window-height="1056"
     inkscape:window-x="59"
     inkscape:window-y="24"
     inkscape:window-maximized="1" />
  <metadata
     id="metadata7">
    <rdf:RDF>
      <cc:Work
         rdf:about="">
        <dc:format>image/svg+xml</dc:format>
        <dc:type
           rdf:resource="http://purl.org/dc/dcmitype/StillImage" />
        <dc:title />
      </cc:Work>
    </rdf:RDF>
  </metadata>
  <g
     inkscape:label="Layer 1"
     inkscape:groupmode="layer"
     id="layer1"
     transform="translate(-65.277143,-80.583632)">
    <g
       style="font-style:normal;font-weight:normal;font-size:27.5px;line-height:125%;font-family:'BlexMono Nerd Font';text-decoration: underline;text-decoration-line: underline;letter-spacing:0px;word-spacing:0px;fill:#ffffff;fill-opacity:1;stroke:none;stroke-width:1px;stroke-linecap:butt;stroke-linejoin:miter;stroke-opacity:1"
       id="text4136">
      <path
         d="m 65.277143,81.738632 6.5175,0 q 2.475,0 3.8775,1.3475 1.4025,1.3475 1.4025,3.6025 0,1.7325 -0.8525,2.7225 -0.825,0.99 -2.145,1.4025 l 0,0.0825 q 1.6225,0.385 2.6675,1.4575 1.045,1.045 1.045,3.0525 0,1.155 -0.385,2.1725 -0.385,1.0175 -1.1,1.76 -0.6875,0.742498 -1.65,1.182498 -0.935,0.4125 -2.035,0.4125 l -7.3425,0 0,-19.194998 z m 6.655,17.1875 q 1.595,0 2.5025,-0.715 0.9075,-0.715 0.9075,-2.2 l 0,-1.1275 q 0,-1.4575 -0.9075,-2.1725 -0.9075,-0.7425 -2.5025,-0.7425 l -4.345,0 0,6.9575 4.345,0 z m -0.385,-8.855 q 1.4575,0 2.2825,-0.6325 0.825,-0.66 0.825,-1.98 l 0,-1.0725 q 0,-1.32 -0.825,-1.98 -0.825,-0.66 -2.2825,-0.66 l -3.96,0 0,6.325 3.96,0 z"
         id="path4140"
         inkscape:connector-curvature="0" />
      <path
         d="m 81.546401,99.063632 4.95,0 0,-16.61 -4.95,0 0,-1.87 7.15,0 0,18.48 4.95,0 0,1.869998 -12.1,0 0,-1.869998 z"
         id="path4142"
         inkscape:connector-curvature="0" />
      <path
         d="m 104.33316,101.26363 q -1.54,0 -2.7775,-0.5225 -1.21,-0.5225 -2.090001,-1.484998 -0.8525,-0.99 -1.32,-2.3375 -0.4675,-1.375 -0.4675,-3.0525 0,-1.705 0.4675,-3.08 0.495,-1.375 1.3475,-2.3375 0.852501,-0.99 2.035001,-1.5125 1.21,-0.5225 2.6675,-0.5225 1.43,0 2.585,0.5225 1.1825,0.5225 2.0075,1.4575 0.825,0.9075 1.265,2.1725 0.44,1.265 0.44,2.7775 l 0,1.045 -10.505001,0 0,0.66 q 0,0.935 0.302501,1.7325 0.3025,0.7975 0.8525,1.375 0.5775,0.5775 1.375,0.9075 0.825,0.3025 1.815,0.3025 1.43,0 2.475,-0.66 1.045,-0.66 1.595,-1.815 l 1.6225,1.1 q -0.6325,1.43 -2.1175,2.364998 -1.4575,0.9075 -3.575,0.9075 z m -0.1375,-13.034998 q -0.9075,0 -1.6775,0.33 -0.77,0.33 -1.3475,0.9075 -0.55,0.5775 -0.88,1.375 -0.302501,0.77 -0.302501,1.705 l 0,0.1925 8.140001,0 0,-0.3025 q 0,-0.935 -0.3025,-1.705 -0.275,-0.77 -0.7975,-1.32 -0.495,-0.5775 -1.2375,-0.88 -0.715,-0.3025 -1.595,-0.3025 z"
         id="path4144"
         inkscape:connector-curvature="0" />
      <path
         d="m 114.00242,100.93363 5.28,-7.204998 -5.1425,-6.985 2.64,0 2.145,2.9975 1.705,2.365 0.11,0 1.65,-2.365 2.1175,-2.9975 2.53,0 -5.1975,6.9575 5.335,7.232498 -2.64,0 -2.3925,-3.327498 -1.6225,-2.255 -0.11,0 -1.5675,2.255 -2.31,3.327498 -2.53,0 z"
         id="path4146"
         inkscape:connector-curvature="0" />
      <path
         d="m 141.32667,91.308632 0,-6.0775 -0.22,0 -4.0425,9.8725 -4.0425,-9.8725 -0.22,0 0,6.0775 0,9.624998 -2.1175,0 0,-19.194998 2.97,0 3.3825,8.47 0.165,0 3.3825,-8.47 2.86,0 0,19.194998 -2.1175,0 0,-9.624998 z"
         id="path4148"
         inkscape:connector-curvature="0" />
      <path
         d="m 153.55343,101.26363 q -1.485,0 -2.695,-0.5225 -1.1825,-0.5225 -2.035,-1.484998 -0.825,-0.99 -1.265,-2.3375 -0.44,-1.375 -0.44,-3.08 0,-1.6775 0.44,-3.0525 0.44,-1.375 1.265,-2.3375 0.8525,-0.99 2.035,-1.5125 1.21,-0.5225 2.695,-0.5225 1.485,0 2.6675,0.5225 1.21,0.5225 2.035,1.5125 0.8525,0.9625 1.2925,2.3375 0.44,1.375 0.44,3.0525 0,1.705 -0.44,3.08 -0.44,1.3475 -1.2925,2.3375 -0.825,0.962498 -2.035,1.484998 -1.1825,0.5225 -2.6675,0.5225 z m 0,-1.897498 q 1.8425,0 2.97,-1.1 1.1275,-1.1 1.1275,-3.41 l 0,-2.035 q 0,-2.31 -1.1275,-3.41 -1.1275,-1.1 -2.97,-1.1 -1.8425,0 -2.97,1.1 -1.1275,1.1 -1.1275,3.41 l 0,2.035 q 0,2.31 1.1275,3.41 1.1275,1.1 2.97,1.1 z"
         id="path4150"
         inkscape:connector-curvature="0" />
      <path
         d="m 164.48769,100.93363 0,-14.189998 2.2,0 0,2.31 0.11,0 q 0.22,-0.5225 0.55,-0.99 0.33,-0.495 0.7975,-0.8525 0.495,-0.3575 1.155,-0.5775 0.66,-0.22 1.54,-0.22 2.2275,0 3.575,1.43 1.3475,1.4025 1.3475,3.9875 l 0,9.102498 -2.2,0 0,-8.717498 q 0,-1.9525 -0.8525,-2.8875 -0.8525,-0.9625 -2.5025,-0.9625 -0.66,0 -1.2925,0.165 -0.6325,0.165 -1.1275,0.495 -0.495,0.33 -0.7975,0.8525 -0.3025,0.5225 -0.3025,1.21 l 0,9.844998 -2.2,0 z"
         id="path4152"
         inkscape:connector-curvature="0" />
      <path
         d="m 186.53195,101.26363 q -1.485,0 -2.695,-0.5225 -1.1825,-0.5225 -2.035,-1.484998 -0.825,-0.99 -1.265,-2.3375 -0.44,-1.375 -0.44,-3.08 0,-1.6775 0.44,-3.0525 0.44,-1.375 1.265,-2.3375 0.8525,-0.99 2.035,-1.5125 1.21,-0.5225 2.695,-0.5225 1.485,0 2.6675,0.5225 1.21,0.5225 2.035,1.5125 0.8525,0.9625 1.2925,2.3375 0.44,1.375 0.44,3.0525 0,1.705 -0.44,3.08 -0.44,1.3475 -1.2925,2.3375 -0.825,0.962498 -2.035,1.484998 -1.1825,0.5225 -2.6675,0.5225 z m 0,-1.897498 q 1.8425,0 2.97,-1.1 1.1275,-1.1 1.1275,-3.41 l 0,-2.035 q 0,-2.31 -1.1275,-3.41 -1.1275,-1.1 -2.97,-1.1 -1.8425,0 -2.97,1.1 -1.1275,1.1 -1.1275,3.41 l 0,2.035 q 0,2.31 1.1275,3.41 1.1275,1.1 2.97,1.1 z"
         id="path4154"
         inkscape:connector-curvature="0" />
      <path
         d="m 215.74296,84.681132 -0.1925,0 0,16.252498 -2.09,0 0,-19.194998 3.2725,0 6.545,16.0875 0.1925,0 0,-16.0875 2.09,0 0,19.194998 -3.2725,0 -6.545,-16.252498 z"
         id="path4156"
         inkscape:connector-curvature="0" />
      <path
         d="m 236.24722,101.26363 q -1.54,0 -2.7775,-0.5225 -1.21,-0.5225 -2.09,-1.484998 -0.8525,-0.99 -1.32,-2.3375 -0.4675,-1.375 -0.4675,-3.0525 0,-1.705 0.4675,-3.08 0.495,-1.375 1.3475,-2.3375 0.8525,-0.99 2.035,-1.5125 1.21,-0.5225 2.6675,-0.5225 1.43,0 2.585,0.5225 1.1825,0.5225 2.0075,1.4575 0.825,0.9075 1.265,2.1725 0.44,1.265 0.44,2.7775 l 0,1.045 -10.505,0 0,0.66 q 0,0.935 0.3025,1.7325 0.3025,0.7975 0.8525,1.375 0.5775,0.5775 1.375,0.9075 0.825,0.3025 1.815,0.3025 1.43,0 2.475,-0.66 1.045,-0.66 1.595,-1.815 l 1.6225,1.1 q -0.6325,1.43 -2.1175,2.364998 -1.4575,0.9075 -3.575,0.9075 z m -0.1375,-13.034998 q -0.9075,0 -1.6775,0.33 -0.77,0.33 -1.3475,0.9075 -0.55,0.5775 -0.88,1.375 -0.3025,0.77 -0.3025,1.705 l 0,0.1925 8.14,0 0,-0.3025 q 0,-0.935 -0.3025,-1.705 -0.275,-0.77 -0.7975,-1.32 -0.495,-0.5775 -1.2375,-0.88 -0.715,-0.3025 -1.595,-0.3025 z"
         id="path4158"
         inkscape:connector-curvature="0" />
      <path
         d="m 246.35648,99.063632 4.1525,0 0,-10.45 -4.1525,0 0,-1.87 6.3525,0 0,3.575 0.1375,0 q 0.44,-1.6775 1.65,-2.6125 1.2375,-0.9625 3.135,-0.9625 l 1.98,0 0,2.2 -2.6675,0 q -1.8975,0 -3.08,1.1 -1.155,1.1 -1.155,2.8875 l 0,6.1325 5.5,0 0,1.869998 -11.8525,0 0,-1.869998 z"
         id="path4160"
         inkscape:connector-curvature="0" />
      <path
         d="m 272.41574,98.623632 -0.11,0 q -1.375,2.639998 -4.3725,2.639998 -2.6125,0 -4.0975,-1.952498 -1.4575,-1.9525 -1.4575,-5.4725 0,-3.52 1.4575,-5.4725 1.485,-1.9525 4.0975,-1.9525 2.9975,0 4.3725,2.64 l 0.11,0 0,-8.47 2.2,0 0,20.349998 -2.2,0 0,-2.309998 z m -3.63,0.6875 q 0.7425,0 1.4025,-0.1925 0.66,-0.1925 1.155,-0.55 0.495,-0.385 0.77,-0.9075 0.3025,-0.55 0.3025,-1.265 l 0,-5.115 q 0,-0.715 -0.3025,-1.2375 -0.275,-0.55 -0.77,-0.9075 -0.495,-0.385 -1.155,-0.5775 -0.66,-0.1925 -1.4025,-0.1925 -1.925,0 -2.9975,1.1825 -1.045,1.155 -1.045,3.08 l 0,2.42 q 0,1.925 1.045,3.1075 1.0725,1.155 2.9975,1.155 z"
         id="path4162"
         inkscape:connector-curvature="0" />
      <path
         d="m 296.18175,100.93363 0,-19.194998 12.1,0 0,2.0075 -9.79,0 0,6.4625 8.965,0 0,2.0075 -8.965,0 0,8.717498 -2.31,0 z"
         id="path4164"
         inkscape:connector-curvature="0" />
      <path
         d="m 318.44601,101.26363 q -1.485,0 -2.695,-0.5225 -1.1825,-0.5225 -2.035,-1.484998 -0.825,-0.99 -1.265,-2.3375 -0.44,-1.375 -0.44,-3.08 0,-1.6775 0.44,-3.0525 0.44,-1.375 1.265,-2.3375 0.8525,-0.99 2.035,-1.5125 1.21,-0.5225 2.695,-0.5225 1.485,0 2.6675,0.5225 1.21,0.5225 2.035,1.5125 0.8525,0.9625 1.2925,2.3375 0.44,1.375 0.44,3.0525 0,1.705 -0.44,3.08 -0.44,1.3475 -1.2925,2.3375 -0.825,0.962498 -2.035,1.484998 -1.1825,0.5225 -2.6675,0.5225 z m 0,-1.897498 q 1.8425,0 2.97,-1.1 1.1275,-1.1 1.1275,-3.41 l 0,-2.035 q 0,-2.31 -1.1275,-3.41 -1.1275,-1.1 -2.97,-1.1 -1.8425,0 -2.97,1.1 -1.1275,1.1 -1.1275,3.41 l 0,2.035 q 0,2.31 1.1275,3.41 1.1275,1.1 2.97,1.1 z"
         id="path4166"
         inkscape:connector-curvature="0" />
      <path
         d="m 329.38027,100.93363 0,-14.189998 2.2,0 0,2.31 0.11,0 q 0.22,-0.5225 0.55,-0.99 0.33,-0.495 0.7975,-0.8525 0.495,-0.3575 1.155,-0.5775 0.66,-0.22 1.54,-0.22 2.2275,0 3.575,1.43 1.3475,1.4025 1.3475,3.9875 l 0,9.102498 -2.2,0 0,-8.717498 q 0,-1.9525 -0.8525,-2.8875 -0.8525,-0.9625 -2.5025,-0.9625 -0.66,0 -1.2925,0.165 -0.6325,0.165 -1.1275,0.495 -0.495,0.33 -0.7975,0.8525 -0.3025,0.5225 -0.3025,1.21 l 0,9.844998 -2.2,0 z"
         id="path4168"
         inkscape:connector-curvature="0" />
      <path
         d="m 352.11203,100.93363 q -1.6225,0 -2.3925,-0.9075 -0.7425,-0.907498 -0.7425,-2.337498 l 0,-9.075 -4.73,0 0,-1.87 3.52,0 q 0.715,0 0.99,-0.275 0.3025,-0.3025 0.3025,-1.0175 l 0,-3.7125 2.1175,0 0,5.005 6.4625,0 0,1.87 -6.4625,0 0,10.45 6.4625,0 0,1.869998 -5.5275,0 z"
         id="path4170"
         inkscape:connector-curvature="0" />
    </g>
    <g
       style="font-style:normal;font-weight:normal;font-size:27.5px;line-height:125%;font-family:'BlexMono Nerd Font';letter-spacing:0px;word-spacing:0px;fill:#ffffff;fill-opacity:1;stroke:none;stroke-width:1px;stroke-linecap:butt;stroke-linejoin:miter;stroke-opacity:1"
       id="text4140">
      <path
         d="m 74.081903,140.93362 q -0.8225,0 -1.1725,-0.42 -0.35,-0.42 -0.4375,-1.05 l -0.0875,0 q -0.2975,0.7875 -0.9625,1.2425 -0.6475,0.4375 -1.75,0.4375 -1.4175,0 -2.2575,-0.735 -0.84,-0.735 -0.84,-2.0125 0,-1.26 0.91,-1.9425 0.9275,-0.6825 2.975,-0.6825 l 1.925,0 0,-0.8925 q 0,-0.9975 -0.56,-1.4875 -0.56,-0.5075 -1.5925,-0.5075 -0.91,0 -1.4875,0.3675 -0.5775,0.35 -0.9275,0.9625 l -0.945,-0.7 q 0.175,-0.35 0.4725,-0.6825 0.2975,-0.3325 0.735,-0.5775 0.4375,-0.2625 0.9975,-0.4025 0.56,-0.1575 1.2425,-0.1575 1.5925,0 2.52,0.805 0.945,0.805 0.945,2.24 l 0,4.97 1.26,0 0,1.225 -0.9625,0 z m -4.165,-0.9625 q 0.5425,0 0.98,-0.1225 0.455,-0.14 0.7875,-0.35 0.3325,-0.2275 0.5075,-0.525 0.1925,-0.315 0.1925,-0.665 l 0,-1.4875 -1.925,0 q -1.26,0 -1.8375,0.35 -0.5775,0.35 -0.5775,1.015 l 0,0.3675 q 0,0.7 0.49,1.0675 0.5075,0.35 1.3825,0.35 z"
         style="font-size:17.5px"
         id="path4173"
         inkscape:connector-curvature="0" />
      <path
         d="m 77.575067,127.98362 1.4,0 0,5.39 0.07,0 q 0.875,-1.68 2.7825,-1.68 1.6625,0 2.59,1.2425 0.945,1.2425 0.945,3.4825 0,2.24 -0.945,3.4825 -0.9275,1.2425 -2.59,1.2425 -1.9075,0 -2.7825,-1.68 l -0.07,0 0,1.47 -1.4,0 0,-12.95 z m 3.71,11.9175 q 1.225,0 1.89,-0.735 0.6825,-0.7525 0.6825,-1.9775 l 0,-1.54 q 0,-1.225 -0.6825,-1.96 -0.665,-0.7525 -1.89,-0.7525 -0.4725,0 -0.8925,0.1225 -0.42,0.1225 -0.735,0.3675 -0.315,0.2275 -0.5075,0.5775 -0.175,0.3325 -0.175,0.7875 l 0,3.255 q 0,0.455 0.175,0.805 0.1925,0.3325 0.5075,0.5775 0.315,0.2275 0.735,0.35 0.42,0.1225 0.8925,0.1225 z"
         style="font-size:17.5px"
         id="path4175"
         inkscape:connector-curvature="0" />
      <path
         d="m 91.970731,141.14362 q -0.98,0 -1.75,-0.3325 -0.7525,-0.35 -1.2775,-0.9625 -0.525,-0.6125 -0.805,-1.4875 -0.2625,-0.875 -0.2625,-1.9425 0,-1.0675 0.28,-1.9425 0.28,-0.875 0.805,-1.4875 0.525,-0.63 1.2775,-0.9625 0.7525,-0.3325 1.715,-0.3325 1.3125,0 2.135,0.5775 0.8225,0.5775 1.2075,1.505 l -1.12,0.595 q -0.245,-0.7 -0.8225,-1.085 -0.56,-0.385 -1.4,-0.385 -0.6125,0 -1.1025,0.21 -0.4725,0.1925 -0.805,0.56 -0.3325,0.3675 -0.5075,0.875 -0.1575,0.5075 -0.1575,1.1025 l 0,1.54 q 0,0.595 0.1575,1.1025 0.175,0.5075 0.5075,0.875 0.3325,0.3675 0.8225,0.5775 0.49,0.1925 1.12,0.1925 0.91,0 1.505,-0.42 0.595,-0.42 0.945,-1.155 l 0.9975,0.6825 q -0.4025,0.91 -1.26,1.505 -0.84,0.595 -2.205,0.595 z"
         style="font-size:17.5px"
         id="path4177"
         inkscape:connector-curvature="0" />
      <path
         d="m 104.3364,139.46362 -0.07,0 q -0.875,1.68 -2.7825,1.68 -1.662505,0 -2.607505,-1.2425 -0.9275,-1.2425 -0.9275,-3.4825 0,-2.24 0.9275,-3.4825 0.945,-1.2425 2.607505,-1.2425 1.9075,0 2.7825,1.68 l 0.07,0 0,-5.39 1.4,0 0,12.95 -1.4,0 0,-1.47 z m -2.31,0.4375 q 0.4725,0 0.8925,-0.1225 0.42,-0.1225 0.735,-0.35 0.315,-0.245 0.49,-0.5775 0.1925,-0.35 0.1925,-0.805 l 0,-3.255 q 0,-0.455 -0.1925,-0.7875 -0.175,-0.35 -0.49,-0.5775 -0.315,-0.245 -0.735,-0.3675 -0.42,-0.1225 -0.8925,-0.1225 -1.225,0 -1.9075,0.7525 -0.665005,0.735 -0.665005,1.96 l 0,1.54 q 0,1.225 0.665005,1.9775 0.6825,0.735 1.9075,0.735 z"
         style="font-size:17.5px"
         id="path4179"
         inkscape:connector-curvature="0" />
      <path
         d="m 112.79956,141.14362 q -0.98,0 -1.7675,-0.3325 -0.77,-0.3325 -1.33,-0.945 -0.5425,-0.63 -0.84,-1.4875 -0.2975,-0.875 -0.2975,-1.9425 0,-1.085 0.2975,-1.96 0.315,-0.875 0.8575,-1.4875 0.5425,-0.63 1.295,-0.9625 0.77,-0.3325 1.6975,-0.3325 0.91,0 1.645,0.3325 0.7525,0.3325 1.2775,0.9275 0.525,0.5775 0.805,1.3825 0.28,0.805 0.28,1.7675 l 0,0.665 -6.685,0 0,0.42 q 0,0.595 0.1925,1.1025 0.1925,0.5075 0.5425,0.875 0.3675,0.3675 0.875,0.5775 0.525,0.1925 1.155,0.1925 0.91,0 1.575,-0.42 0.665,-0.42 1.015,-1.155 l 1.0325,0.7 q -0.4025,0.91 -1.3475,1.505 -0.9275,0.5775 -2.275,0.5775 z m -0.0875,-8.295 q -0.5775,0 -1.0675,0.21 -0.49,0.21 -0.8575,0.5775 -0.35,0.3675 -0.56,0.875 -0.1925,0.49 -0.1925,1.085 l 0,0.1225 5.18,0 0,-0.1925 q 0,-0.595 -0.1925,-1.085 -0.175,-0.49 -0.5075,-0.84 -0.315,-0.3675 -0.7875,-0.56 -0.455,-0.1925 -1.015,-0.1925 z"
         style="font-size:17.5px"
         id="path4181"
         inkscape:connector-curvature="0" />
      <path
         d="m 119.33772,139.74362 3.045,0 0,-6.65 -3.22,0 0,-1.19 3.22,0 0,-1.855 q 0,-0.91 0.4725,-1.4875 0.49,-0.5775 1.5225,-0.5775 l 3.0275,0 0,1.19 -3.6225,0 0,2.73 3.6225,0 0,1.19 -3.6225,0 0,6.65 3.22,0 0,1.19 -7.665,0 0,-1.19 z"
         style="font-size:17.5px"
         id="path4183"
         inkscape:connector-curvature="0" />
      <path
         d="m 138.19589,141.96612 q 0,1.365 -1.1375,2.0125 -1.1375,0.665 -3.4125,0.665 -2.1875,0 -3.15,-0.5775 -0.945,-0.5775 -0.945,-1.6625 0,-0.735 0.385,-1.1375 0.385,-0.4025 1.085,-0.595 l 0,-0.21 q -0.385,-0.1925 -0.595,-0.49 -0.21,-0.2975 -0.21,-0.7525 0,-0.7 0.455,-1.05 0.4725,-0.35 1.1725,-0.525 l 0,-0.07 q -0.84,-0.3675 -1.3125,-1.085 -0.455,-0.7175 -0.455,-1.68 0,-0.6825 0.245,-1.26 0.245,-0.5775 0.7,-0.98 0.4725,-0.42 1.12,-0.6475 0.6475,-0.2275 1.435,-0.2275 1.015,0 1.785,0.3675 l 0,-0.1575 q 0,-0.525 0.245,-0.875 0.245,-0.35 0.84,-0.35 l 1.6625,0 0,1.225 -2.03,0 0,0.6125 q 0.49,0.42 0.7525,0.9975 0.2625,0.5775 0.2625,1.295 0,0.6825 -0.2625,1.26 -0.245,0.5775 -0.7,0.9975 -0.455,0.4025 -1.12,0.63 -0.6475,0.2275 -1.435,0.2275 -0.2275,0 -0.4375,-0.0175 -0.21,-0.0175 -0.42,-0.0525 -0.21,0.035 -0.4375,0.1225 -0.2275,0.07 -0.42,0.21 -0.1925,0.1225 -0.315,0.2975 -0.1225,0.175 -0.1225,0.4025 0,0.4025 0.4025,0.5425 0.4025,0.1225 1.05,0.1225 l 1.995,0 q 1.75,0 2.5375,0.665 0.7875,0.6475 0.7875,1.75 z m -1.3125,0.07 q 0,-0.5425 -0.4375,-0.875 -0.4375,-0.315 -1.5225,-0.315 l -3.1325,0 q -0.91,0.3675 -0.91,1.225 0,0.595 0.4725,1.015 0.4725,0.4375 1.575,0.4375 l 1.365,0 q 1.225,0 1.9075,-0.385 0.6825,-0.3675 0.6825,-1.1025 z m -3.3075,-5.1975 q 1.05,0 1.54,-0.49 0.5075,-0.49 0.5075,-1.295 l 0,-0.5075 q 0,-0.805 -0.5075,-1.2775 -0.49,-0.49 -1.54,-0.49 -1.05,0 -1.54,0.49 -0.49,0.4725 -0.49,1.2775 l 0,0.5075 q 0,0.805 0.49,1.295 0.49,0.49 1.54,0.49 z"
         style="font-size:17.5px"
         id="path4185"
         inkscape:connector-curvature="0" />
      <path
         d="m 140.58655,127.98362 1.4,0 0,5.39 0.07,0 q 0.14,-0.3325 0.35,-0.63 0.21,-0.315 0.5075,-0.5425 0.315,-0.2275 0.735,-0.3675 0.42,-0.14 0.98,-0.14 1.4175,0 2.275,0.91 0.8575,0.8925 0.8575,2.5375 l 0,5.7925 -1.4,0 0,-5.5475 q 0,-1.2425 -0.5425,-1.8375 -0.5425,-0.6125 -1.5925,-0.6125 -0.42,0 -0.8225,0.105 -0.4025,0.105 -0.7175,0.315 -0.315,0.21 -0.5075,0.5425 -0.1925,0.3325 -0.1925,0.77 l 0,6.265 -1.4,0 0,-12.95 z"
         style="font-size:17.5px"
         id="path4187"
         inkscape:connector-curvature="0" />
      <path
         d="m 155.17472,129.90862 q -0.6125,0 -0.8575,-0.245 -0.245,-0.2625 -0.245,-0.6475 l 0,-0.28 q 0,-0.385 0.245,-0.63 0.245,-0.2625 0.8575,-0.2625 0.6125,0 0.8575,0.2625 0.245,0.245 0.245,0.63 l 0,0.28 q 0,0.385 -0.245,0.6475 -0.245,0.245 -0.8575,0.245 z m -3.955,9.835 3.255,0 0,-6.65 -3.255,0 0,-1.19 4.655,0 0,7.84 3.045,0 0,1.19 -7.7,0 0,-1.19 z"
         style="font-size:17.5px"
         id="path4189"
         inkscape:connector-curvature="0" />
      <path
         d="m 161.64288,143.24362 4.375,0 0,-10.15 -4.5325,0 0,-1.19 5.9325,0 0,10.465 q 0,0.91 -0.49,1.4875 -0.4725,0.5775 -1.505,0.5775 l -3.78,0 0,-1.19 z m 5.075,-13.335 q -0.6125,0 -0.8575,-0.245 -0.245,-0.2625 -0.245,-0.6475 l 0,-0.28 q 0,-0.385 0.245,-0.63 0.245,-0.2625 0.8575,-0.2625 0.6125,0 0.8575,0.2625 0.245,0.245 0.245,0.63 l 0,0.28 q 0,0.385 -0.245,0.6475 -0.245,0.245 -0.8575,0.245 z"
         style="font-size:17.5px"
         id="path4191"
         inkscape:connector-curvature="0" />
      <path
         d="m 172.18854,127.98362 1.4,0 0,8.1725 0.07,0 1.575,-1.4875 3.01,-2.765 1.715,0 -3.745,3.535 4.1825,5.495 -1.7325,0 -3.5175,-4.69 -1.5575,1.4175 0,3.2725 -1.4,0 0,-12.95 z"
         style="font-size:17.5px"
         id="path4193"
         inkscape:connector-curvature="0" />
      <path
         d="m 182.24421,139.74362 3.15,0 0,-10.57 -3.15,0 0,-1.19 4.55,0 0,11.76 3.15,0 0,1.19 -7.7,0 0,-1.19 z"
         style="font-size:17.5px"
         id="path4195"
         inkscape:connector-curvature="0" />
      <path
         d="m 192.28237,140.93362 0,-9.03 1.295,0 0,1.05 0.07,0 q 0.21,-0.525 0.595,-0.8925 0.385,-0.3675 1.1375,-0.3675 0.7875,0 1.1725,0.4025 0.385,0.385 0.4725,1.015 l 0.0525,0 q 0.245,-0.6125 0.7,-1.015 0.455,-0.4025 1.26,-0.4025 1.1025,0 1.47,0.77 0.385,0.77 0.385,2.205 l 0,6.265 -1.295,0 0,-6.0375 q 0,-1.155 -0.245,-1.5925 -0.2275,-0.455 -0.8575,-0.455 -0.56,0 -0.91,0.3675 -0.35,0.35 -0.35,1.085 l 0,6.6325 -1.295,0 0,-6.0375 q 0,-1.155 -0.245,-1.5925 -0.2275,-0.455 -0.84,-0.455 -0.56,0 -0.9275,0.3675 -0.35,0.35 -0.35,1.085 l 0,6.6325 -1.295,0 z"
         style="font-size:17.5px"
         id="path4197"
         inkscape:connector-curvature="0" />
      <path
         d="m 203.54554,140.93362 0,-9.03 1.4,0 0,1.47 0.07,0 q 0.14,-0.3325 0.35,-0.63 0.21,-0.315 0.5075,-0.5425 0.315,-0.2275 0.735,-0.3675 0.42,-0.14 0.98,-0.14 1.4175,0 2.275,0.91 0.8575,0.8925 0.8575,2.5375 l 0,5.7925 -1.4,0 0,-5.5475 q 0,-1.2425 -0.5425,-1.8375 -0.5425,-0.6125 -1.5925,-0.6125 -0.42,0 -0.8225,0.105 -0.4025,0.105 -0.7175,0.315 -0.315,0.21 -0.5075,0.5425 -0.1925,0.3325 -0.1925,0.77 l 0,6.265 -1.4,0 z"
         style="font-size:17.5px"
         id="path4199"
         inkscape:connector-curvature="0" />
      <path
         d="m 217.5737,141.14362 q -0.945,0 -1.715,-0.3325 -0.7525,-0.3325 -1.295,-0.945 -0.525,-0.63 -0.805,-1.4875 -0.28,-0.875 -0.28,-1.96 0,-1.0675 0.28,-1.9425 0.28,-0.875 0.805,-1.4875 0.5425,-0.63 1.295,-0.9625 0.77,-0.3325 1.715,-0.3325 0.945,0 1.6975,0.3325 0.77,0.3325 1.295,0.9625 0.5425,0.6125 0.8225,1.4875 0.28,0.875 0.28,1.9425 0,1.085 -0.28,1.96 -0.28,0.8575 -0.8225,1.4875 -0.525,0.6125 -1.295,0.945 -0.7525,0.3325 -1.6975,0.3325 z m 0,-1.2075 q 1.1725,0 1.89,-0.7 0.7175,-0.7 0.7175,-2.17 l 0,-1.295 q 0,-1.47 -0.7175,-2.17 -0.7175,-0.7 -1.89,-0.7 -1.1725,0 -1.89,0.7 -0.7175,0.7 -0.7175,2.17 l 0,1.295 q 0,1.47 0.7175,2.17 0.7175,0.7 1.89,0.7 z"
         style="font-size:17.5px"
         id="path4201"
         inkscape:connector-curvature="0" />
      <path
         d="m 224.47936,131.90362 1.4,0 0,1.47 0.07,0 q 0.875,-1.68 2.7825,-1.68 1.6625,0 2.59,1.2425 0.945,1.2425 0.945,3.4825 0,2.24 -0.945,3.4825 -0.9275,1.2425 -2.59,1.2425 -1.9075,0 -2.7825,-1.68 l -0.07,0 0,4.97 -1.4,0 0,-12.53 z m 3.71,7.9975 q 1.225,0 1.89,-0.735 0.6825,-0.7525 0.6825,-1.9775 l 0,-1.54 q 0,-1.225 -0.6825,-1.96 -0.665,-0.7525 -1.89,-0.7525 -0.4725,0 -0.8925,0.1225 -0.42,0.1225 -0.735,0.3675 -0.315,0.2275 -0.5075,0.5775 -0.175,0.3325 -0.175,0.7875 l 0,3.255 q 0,0.455 0.175,0.805 0.1925,0.3325 0.5075,0.5775 0.315,0.2275 0.735,0.35 0.42,0.1225 0.8925,0.1225 z"
         style="font-size:17.5px"
         id="path4203"
         inkscape:connector-curvature="0" />
      <path
         d="m 240.74753,139.46362 -0.07,0 q -0.875,1.68 -2.7825,1.68 -1.6625,0 -2.6075,-1.2425 -0.9275,-1.2425 -0.9275,-3.4825 0,-2.24 0.9275,-3.4825 0.945,-1.2425 2.6075,-1.2425 1.9075,0 2.7825,1.68 l 0.07,0 0,-1.47 1.4,0 0,12.53 -1.4,0 0,-4.97 z m -2.31,0.4375 q 0.4725,0 0.8925,-0.1225 0.42,-0.1225 0.735,-0.35 0.315,-0.245 0.49,-0.5775 0.1925,-0.35 0.1925,-0.805 l 0,-3.255 q 0,-0.455 -0.1925,-0.7875 -0.175,-0.35 -0.49,-0.5775 -0.315,-0.245 -0.735,-0.3675 -0.42,-0.1225 -0.8925,-0.1225 -1.225,0 -1.9075,0.7525 -0.665,0.735 -0.665,1.96 l 0,1.54 q 0,1.225 0.665,1.9775 0.6825,0.735 1.9075,0.735 z"
         style="font-size:17.5px"
         id="path4205"
         inkscape:connector-curvature="0" />
      <path
         d="m 245.15069,139.74362 2.6425,0 0,-6.65 -2.6425,0 0,-1.19 4.0425,0 0,2.275 0.0875,0 q 0.28,-1.0675 1.05,-1.6625 0.7875,-0.6125 1.995,-0.6125 l 1.26,0 0,1.4 -1.6975,0 q -1.2075,0 -1.96,0.7 -0.735,0.7 -0.735,1.8375 l 0,3.9025 3.5,0 0,1.19 -7.5425,0 0,-1.19 z"
         style="font-size:17.5px"
         id="path4207"
         inkscape:connector-curvature="0" />
      <path
         d="m 259.65136,141.14362 q -1.4175,0 -2.45,-0.4725 -1.015,-0.49 -1.7325,-1.295 l 0.945,-0.8225 q 0.6475,0.6825 1.4175,1.05 0.77,0.3675 1.855,0.3675 1.05,0 1.715,-0.3675 0.6825,-0.385 0.6825,-1.19 0,-0.35 -0.14,-0.5775 -0.1225,-0.245 -0.35,-0.385 -0.2275,-0.14 -0.5075,-0.21 -0.28,-0.0875 -0.595,-0.14 l -1.4175,-0.21 q -0.4725,-0.07 -1.0325,-0.1925 -0.5425,-0.1225 -0.9975,-0.385 -0.455,-0.28 -0.77,-0.735 -0.2975,-0.455 -0.2975,-1.19 0,-0.6825 0.2625,-1.1725 0.28,-0.5075 0.77,-0.84 0.49,-0.35 1.155,-0.5075 0.665,-0.175 1.4525,-0.175 1.225,0 2.1175,0.385 0.91,0.385 1.5575,1.0675 l -0.91,0.8575 q -0.1575,-0.1925 -0.4025,-0.385 -0.2275,-0.21 -0.5775,-0.3675 -0.3325,-0.175 -0.7875,-0.28 -0.455,-0.105 -1.05,-0.105 -1.0675,0 -1.645,0.3675 -0.56,0.3675 -0.56,1.0675 0,0.35 0.1225,0.595 0.14,0.2275 0.3675,0.3675 0.2275,0.14 0.5075,0.2275 0.2975,0.07 0.595,0.1225 l 1.4175,0.21 q 0.49,0.07 1.0325,0.1925 0.5425,0.1225 0.9975,0.4025 0.455,0.2625 0.7525,0.7175 0.315,0.455 0.315,1.19 0,1.3475 -1.05,2.0825 -1.0325,0.735 -2.765,0.735 z"
         style="font-size:17.5px"
         id="path4209"
         inkscape:connector-curvature="0" />
      <path
         d="m 270.47702,140.93362 q -1.0325,0 -1.5225,-0.5775 -0.4725,-0.5775 -0.4725,-1.4875 l 0,-5.775 -3.01,0 0,-1.19 2.24,0 q 0.455,0 0.63,-0.175 0.1925,-0.1925 0.1925,-0.6475 l 0,-2.3625 1.3475,0 0,3.185 4.1125,0 0,1.19 -4.1125,0 0,6.65 4.1125,0 0,1.19 -3.5175,0 z"
         style="font-size:17.5px"
         id="path4211"
         inkscape:connector-curvature="0" />
      <path
         d="m 282.66768,139.46362 -0.07,0 q -0.14,0.3325 -0.35,0.6475 -0.21,0.2975 -0.525,0.525 -0.2975,0.2275 -0.7175,0.3675 -0.42,0.14 -0.98,0.14 -1.4175,0 -2.275,-0.8925 -0.8575,-0.91 -0.8575,-2.555 l 0,-5.7925 1.4,0 0,5.5475 q 0,1.2425 0.5425,1.855 0.5425,0.595 1.5925,0.595 0.42,0 0.8225,-0.105 0.4025,-0.105 0.7175,-0.315 0.315,-0.21 0.5075,-0.525 0.1925,-0.3325 0.1925,-0.7875 l 0,-6.265 1.4,0 0,9.03 -1.4,0 0,-1.47 z"
         style="font-size:17.5px"
         id="path4213"
         inkscape:connector-curvature="0" />
      <path
         d="m 290.13335,140.93362 -3.2375,-9.03 1.4175,0 1.295,3.78 1.4,4.0775 0.07,0 1.4,-4.0775 1.295,-3.78 1.3825,0 -3.2375,9.03 -1.785,0 z"
         style="font-size:17.5px"
         id="path4215"
         inkscape:connector-curvature="0" />
      <path
         d="m 296.79401,131.90362 1.2425,0 1.0325,7.805 0.1575,0 1.54,-7.805 1.54,0 1.54,7.805 0.1575,0 1.0325,-7.805 1.2075,0 -1.3825,9.03 -1.82,0 -1.435,-7.56 -0.14,0 -1.47,7.56 -1.82,0 -1.3825,-9.03 z"
         style="font-size:17.5px"
         id="path4217"
         inkscape:connector-curvature="0" />
      <path
         d="m 307.82968,140.93362 3.36,-4.585 -3.2725,-4.445 1.68,0 1.365,1.9075 1.085,1.505 0.07,0 1.05,-1.505 1.3475,-1.9075 1.61,0 -3.3075,4.4275 3.395,4.6025 -1.68,0 -1.5225,-2.1175 -1.0325,-1.435 -0.07,0 -0.9975,1.435 -1.47,2.1175 -1.61,0 z"
         style="font-size:17.5px"
         id="path4219"
         inkscape:connector-curvature="0" />
      <path
         d="m 325.42784,131.90362 1.4,0 -4.48,11.0075 q -0.1575,0.385 -0.35,0.665 -0.1925,0.2975 -0.455,0.4725 -0.2625,0.1925 -0.63,0.28 -0.3675,0.105 -0.875,0.105 l -1.33,0 0,-1.19 2.1,0 1.015,-2.485 -3.64,-8.855 1.435,0 1.5225,3.78 1.3475,3.43 0.07,0 1.3475,-3.43 1.5225,-3.78 z"
         style="font-size:17.5px"
         id="path4221"
         inkscape:connector-curvature="0" />
      <path
         d="m 329.236,140.93362 0,-1.3475 5.8275,-6.4925 -5.635,0 0,-1.19 7.1575,0 0,1.3475 -5.8275,6.4925 6.0025,0 0,1.19 -7.525,0 z"
         style="font-size:17.5px"
         id="path4223"
         inkscape:connector-curvature="0" />
      <path
         d="m 73.836903,162.80862 -1.0325,-3.4825 -4.2875,0 -1.0325,3.4825 -1.5225,0 3.745,-12.215 1.9425,0 3.745,12.215 -1.5575,0 z m -3.0975,-10.6575 -0.1575,0 -1.715,5.8975 3.5875,0 -1.715,-5.8975 z"
         style="font-size:17.5px"
         id="path4225"
         inkscape:connector-curvature="0" />
      <path
         d="m 77.452567,150.59362 4.1475,0 q 1.575,0 2.4675,0.8575 0.8925,0.8575 0.8925,2.2925 0,1.1025 -0.5425,1.7325 -0.525,0.63 -1.365,0.8925 l 0,0.0525 q 1.0325,0.245 1.6975,0.9275 0.665,0.665 0.665,1.9425 0,0.735 -0.245,1.3825 -0.245,0.6475 -0.7,1.12 -0.4375,0.4725 -1.05,0.7525 -0.595,0.2625 -1.295,0.2625 l -4.6725,0 0,-12.215 z m 4.235,10.9375 q 1.015,0 1.5925,-0.455 0.5775,-0.455 0.5775,-1.4 l 0,-0.7175 q 0,-0.9275 -0.5775,-1.3825 -0.5775,-0.4725 -1.5925,-0.4725 l -2.765,0 0,4.4275 2.765,0 z m -0.245,-5.635 q 0.9275,0 1.4525,-0.4025 0.525,-0.42 0.525,-1.26 l 0,-0.6825 q 0,-0.84 -0.525,-1.26 -0.525,-0.42 -1.4525,-0.42 l -2.52,0 0,4.025 2.52,0 z"
         style="font-size:17.5px"
         id="path4227"
         inkscape:connector-curvature="0" />
      <path
         d="m 92.058231,163.01862 q -2.24,0 -3.3425,-1.6275 -1.085,-1.6275 -1.085,-4.69 0,-3.0625 1.085,-4.69 1.1025,-1.6275 3.3425,-1.6275 0.84,0 1.4525,0.2275 0.6125,0.2275 1.05,0.6125 0.4375,0.385 0.735,0.875 0.2975,0.4725 0.525,0.9625 l -1.26,0.5775 q -0.1575,-0.4025 -0.3675,-0.7525 -0.21,-0.3675 -0.5075,-0.63 -0.28,-0.28 -0.6825,-0.4375 -0.385,-0.1575 -0.945,-0.1575 -1.4525,0 -2.17,1.1025 -0.7,1.1025 -0.7,2.94 l 0,1.995 q 0,1.8375 0.7,2.94 0.7175,1.1025 2.17,1.1025 0.56,0 0.945,-0.1575 0.4025,-0.1575 0.6825,-0.42 0.2975,-0.28 0.5075,-0.63 0.21,-0.3675 0.3675,-0.77 l 1.26,0.5775 q -0.2275,0.5075 -0.525,0.98 -0.2975,0.4725 -0.735,0.8575 -0.4375,0.385 -1.05,0.6125 -0.6125,0.2275 -1.4525,0.2275 z"
         style="font-size:17.5px"
         id="path4229"
         inkscape:connector-curvature="0" />
      <path
         d="m 98.561395,150.59362 3.412505,0 q 2.24,0 3.3425,1.54 1.1025,1.54 1.1025,4.5675 0,3.0275 -1.1025,4.5675 -1.1025,1.54 -3.3425,1.54 l -3.412505,0 0,-12.215 z m 3.342505,10.9375 q 1.47,0 2.205,-1.015 0.7525,-1.015 0.7525,-2.87 l 0,-1.89 q 0,-1.855 -0.7525,-2.87 -0.735,-1.015 -2.205,-1.015 l -1.8725,0 0,9.66 1.8725,0 z"
         style="font-size:17.5px"
         id="path4231"
         inkscape:connector-curvature="0" />
      <path
         d="m 108.96706,162.80862 0,-12.215 7.525,0 0,1.2775 -6.055,0 0,4.1125 5.845,0 0,1.2775 -5.845,0 0,4.27 6.055,0 0,1.2775 -7.525,0 z"
         style="font-size:17.5px"
         id="path4233"
         inkscape:connector-curvature="0" />
      <path
         d="m 119.46022,162.80862 0,-12.215 7.7,0 0,1.2775 -6.23,0 0,4.1125 5.705,0 0,1.2775 -5.705,0 0,5.5475 -1.47,0 z"
         style="font-size:17.5px"
         id="path4235"
         inkscape:connector-curvature="0" />
      <path
         d="m 136.14839,161.18112 -0.0875,0 q -0.1575,0.35 -0.3675,0.6825 -0.21,0.3325 -0.5425,0.595 -0.315,0.245 -0.77,0.4025 -0.455,0.1575 -1.085,0.1575 -1.995,0 -2.975,-1.61 -0.9625,-1.61 -0.9625,-4.62 0,-3.15 1.0675,-4.7775 1.0675,-1.6275 3.29,-1.6275 0.8575,0 1.4875,0.2275 0.63,0.2275 1.0675,0.6125 0.455,0.385 0.7525,0.875 0.2975,0.4725 0.49,0.9625 l -1.26,0.5775 q -0.1575,-0.4025 -0.3675,-0.7525 -0.1925,-0.3675 -0.49,-0.63 -0.28,-0.28 -0.6825,-0.4375 -0.4025,-0.1575 -0.945,-0.1575 -1.47,0 -2.17,1.1025 -0.6825,1.1025 -0.6825,2.94 l 0,1.89 q 0,0.9275 0.14,1.6975 0.14,0.7525 0.455,1.3125 0.3325,0.56 0.84,0.875 0.525,0.2975 1.2775,0.2975 1.19,0 1.855,-0.7175 0.665,-0.7175 0.665,-1.855 l 0,-1.26 -2.5725,0 0,-1.1725 3.9375,0 0,6.0375 -1.365,0 0,-1.6275 z"
         style="font-size:17.5px"
         id="path4237"
         inkscape:connector-curvature="0" />
      <path
         d="m 146.50155,157.26112 -4.76,0 0,5.5475 -1.47,0 0,-12.215 1.47,0 0,5.39 4.76,0 0,-5.39 1.47,0 0,12.215 -1.47,0 0,-5.5475 z"
         style="font-size:17.5px"
         id="path4239"
         inkscape:connector-curvature="0" />
      <path
         d="m 150.83472,162.80862 0,-1.1725 3.045,0 0,-9.87 -3.045,0 0,-1.1725 7.56,0 0,1.1725 -3.045,0 0,9.87 3.045,0 0,1.1725 -7.56,0 z"
         style="font-size:17.5px"
         id="path4241"
         inkscape:connector-curvature="0" />
      <path
         d="m 168.25788,150.59362 0,9.0475 q 0,0.77 -0.2625,1.4 -0.2625,0.63 -0.7525,1.0675 -0.4725,0.4375 -1.1375,0.6825 -0.665,0.2275 -1.4525,0.2275 -1.4,0 -2.31,-0.7175 -0.91,-0.735 -1.19,-2.0475 l 1.4,-0.2975 q 0.0875,0.3675 0.2275,0.7 0.1575,0.315 0.4025,0.56 0.2625,0.2275 0.63,0.3675 0.3675,0.14 0.875,0.14 0.9975,0 1.54,-0.56 0.56,-0.5775 0.56,-1.785 l 0,-7.5075 -4.41,0 0,-1.2775 5.88,0 z"
         style="font-size:17.5px"
         id="path4243"
         inkscape:connector-curvature="0" />
      <path
         d="m 175.05854,156.82362 -1.75,2.065 0,3.92 -1.47,0 0,-12.215 1.47,0 0,6.37 0.0525,0 1.61,-2.03 3.605,-4.34 1.7675,0 -4.2875,5.145 4.41,7.07 -1.715,0 -3.6925,-5.985 z"
         style="font-size:17.5px"
         id="path4245"
         inkscape:connector-curvature="0" />
      <path
         d="m 182.94421,162.80862 0,-12.215 1.47,0 0,10.9375 5.7925,0 0,1.2775 -7.2625,0 z"
         style="font-size:17.5px"
         id="path4247"
         inkscape:connector-curvature="0" />
      <path
         d="m 199.29987,156.68362 0,-3.8675 -0.14,0 -2.5725,6.2825 -2.5725,-6.2825 -0.14,0 0,3.8675 0,6.125 -1.3475,0 0,-12.215 1.89,0 2.1525,5.39 0.105,0 2.1525,-5.39 1.82,0 0,12.215 -1.3475,0 0,-6.125 z"
         style="font-size:17.5px"
         id="path4249"
         inkscape:connector-curvature="0" />
      <path
         d="m 204.68304,152.46612 -0.1225,0 0,10.3425 -1.33,0 0,-12.215 2.0825,0 4.165,10.2375 0.1225,0 0,-10.2375 1.33,0 0,12.215 -2.0825,0 -4.165,-10.3425 z"
         style="font-size:17.5px"
         id="path4251"
         inkscape:connector-curvature="0" />
      <path
         d="m 217.5737,163.01862 q -1.12,0 -1.925,-0.42 -0.805,-0.4375 -1.33,-1.2425 -0.525,-0.805 -0.77,-1.9775 -0.245,-1.1725 -0.245,-2.6775 0,-1.4875 0.245,-2.66 0.245,-1.19 0.77,-1.995 0.525,-0.805 1.33,-1.225 0.805,-0.4375 1.925,-0.4375 1.12,0 1.925,0.4375 0.805,0.42 1.33,1.225 0.525,0.805 0.77,1.995 0.245,1.1725 0.245,2.66 0,1.505 -0.245,2.6775 -0.245,1.1725 -0.77,1.9775 -0.525,0.805 -1.33,1.2425 -0.805,0.42 -1.925,0.42 z m 0,-1.2775 q 0.735,0 1.2425,-0.28 0.5075,-0.2975 0.84,-0.8225 0.3325,-0.525 0.4725,-1.26 0.1575,-0.7525 0.1575,-1.68 l 0,-1.995 q 0,-0.91 -0.1575,-1.6625 -0.14,-0.7525 -0.4725,-1.2775 -0.3325,-0.525 -0.84,-0.805 -0.5075,-0.2975 -1.2425,-0.2975 -0.735,0 -1.2425,0.2975 -0.5075,0.28 -0.84,0.805 -0.3325,0.525 -0.49,1.2775 -0.14,0.7525 -0.14,1.6625 l 0,1.995 q 0,0.9275 0.14,1.68 0.1575,0.735 0.49,1.26 0.3325,0.525 0.84,0.8225 0.5075,0.28 1.2425,0.28 z"
         style="font-size:17.5px"
         id="path4253"
         inkscape:connector-curvature="0" />
      <path
         d="m 224.39186,162.80862 0,-12.215 4.445,0 q 1.6975,0 2.59,0.9275 0.8925,0.9275 0.8925,2.59 0,1.6625 -0.8925,2.59 -0.8925,0.9275 -2.59,0.9275 l -2.975,0 0,5.18 -1.47,0 z m 1.47,-6.4575 2.94,0 q 0.9275,0 1.435,-0.455 0.525,-0.4725 0.525,-1.33 l 0,-0.91 q 0,-0.8575 -0.525,-1.3125 -0.5075,-0.4725 -1.435,-0.4725 l -2.94,0 0,4.48 z"
         style="font-size:17.5px"
         id="path4255"
         inkscape:connector-curvature="0" />
      <path
         d="m 241.90253,165.67862 -2.0475,0 q -1.0325,0 -1.5225,-0.5775 -0.4725,-0.5775 -0.4725,-1.4875 l 0,-0.6475 q -0.9275,-0.1225 -1.61,-0.595 -0.665,-0.49 -1.1025,-1.2775 -0.4375,-0.805 -0.6475,-1.9075 -0.21,-1.12 -0.21,-2.485 0,-1.4875 0.245,-2.66 0.245,-1.19 0.77,-1.995 0.525,-0.805 1.33,-1.225 0.805,-0.4375 1.925,-0.4375 1.12,0 1.925,0.4375 0.805,0.42 1.33,1.225 0.525,0.805 0.77,1.995 0.245,1.1725 0.245,2.66 0,2.7475 -0.8575,4.3925 -0.8575,1.6275 -2.7125,1.8725 l 0,1.5225 2.6425,0 0,1.19 z m -3.3425,-3.9375 q 0.735,0 1.2425,-0.28 0.5075,-0.2975 0.84,-0.8225 0.3325,-0.525 0.4725,-1.26 0.1575,-0.7525 0.1575,-1.68 l 0,-1.995 q 0,-0.91 -0.1575,-1.6625 -0.14,-0.7525 -0.4725,-1.2775 -0.3325,-0.525 -0.84,-0.805 -0.5075,-0.2975 -1.2425,-0.2975 -0.735,0 -1.2425,0.2975 -0.5075,0.28 -0.84,0.805 -0.3325,0.525 -0.49,1.2775 -0.14,0.7525 -0.14,1.6625 l 0,1.995 q 0,0.9275 0.14,1.68 0.1575,0.735 0.49,1.26 0.3325,0.525 0.84,0.8225 0.5075,0.28 1.2425,0.28 z"
         style="font-size:17.5px"
         id="path4257"
         inkscape:connector-curvature="0" />
      <path
         d="m 246.84819,162.80862 -1.47,0 0,-12.215 4.445,0 q 1.6975,0 2.59,0.9275 0.8925,0.9275 0.8925,2.59 0,1.4875 -0.77,2.38 -0.77,0.8925 -2.24,1.0325 l 3.115,5.285 -1.645,0 -2.975,-5.215 -1.9425,0 0,5.215 z m 2.94,-6.4575 q 0.9275,0 1.435,-0.455 0.525,-0.4725 0.525,-1.33 l 0,-0.91 q 0,-0.8575 -0.525,-1.3125 -0.5075,-0.4725 -1.435,-0.4725 l -2.94,0 0,4.48 2.94,0 z"
         style="font-size:17.5px"
         id="path4259"
         inkscape:connector-curvature="0" />
      <path
         d="m 259.51136,163.01862 q -1.645,0 -2.695,-0.595 -1.05,-0.6125 -1.7325,-1.5575 l 1.0675,-0.875 q 0.7175,0.8925 1.505,1.33 0.805,0.4375 1.9075,0.4375 1.33,0 2.03,-0.6125 0.7,-0.6125 0.7,-1.715 0,-0.8925 -0.5075,-1.3825 -0.5075,-0.5075 -1.7675,-0.7175 l -1.365,-0.2275 q -0.8925,-0.1575 -1.505,-0.4725 -0.595,-0.315 -0.9625,-0.7525 -0.3675,-0.455 -0.525,-0.98 -0.1575,-0.5425 -0.1575,-1.12 0,-1.68 1.1025,-2.5375 1.1025,-0.8575 2.975,-0.8575 1.47,0 2.4675,0.49 1.015,0.49 1.6275,1.3825 l -1.0325,0.8925 q -0.5075,-0.665 -1.225,-1.085 -0.7175,-0.42 -1.855,-0.42 -1.2425,0 -1.9075,0.525 -0.665,0.525 -0.665,1.575 0,0.8225 0.49,1.3475 0.5075,0.5075 1.8025,0.735 l 1.3125,0.2275 q 0.8925,0.1575 1.505,0.4725 0.6125,0.315 0.98,0.7525 0.385,0.4375 0.5425,0.98 0.1575,0.5425 0.1575,1.1375 0,1.6975 -1.12,2.66 -1.1025,0.9625 -3.15,0.9625 z"
         style="font-size:17.5px"
         id="path4261"
         inkscape:connector-curvature="0" />
      <path
         d="m 270.77452,151.87112 0,10.9375 -1.47,0 0,-10.9375 -4.0775,0 0,-1.2775 9.625,0 0,1.2775 -4.0775,0 z"
         style="font-size:17.5px"
         id="path4263"
         inkscape:connector-curvature="0" />
      <path
         d="m 278.15268,150.59362 0,7.3325 q 0,0.8925 0.0525,1.5925 0.0525,0.7 0.28,1.2075 0.2275,0.49 0.7,0.7525 0.49,0.2625 1.3475,0.2625 0.8575,0 1.33,-0.2625 0.49,-0.2625 0.7175,-0.7525 0.2275,-0.5075 0.28,-1.2075 0.0525,-0.7 0.0525,-1.5925 l 0,-7.3325 1.47,0 0,6.9825 q 0,1.365 -0.14,2.38 -0.1225,1.015 -0.5425,1.6975 -0.4025,0.6825 -1.1725,1.0325 -0.7525,0.3325 -1.995,0.3325 -1.2425,0 -2.0125,-0.3325 -0.7525,-0.35 -1.1725,-1.0325 -0.4025,-0.6825 -0.5425,-1.6975 -0.1225,-1.015 -0.1225,-2.38 l 0,-6.9825 1.47,0 z"
         style="font-size:17.5px"
         id="path4265"
         inkscape:connector-curvature="0" />
      <path
         d="m 290.02835,162.80862 -3.6225,-12.215 1.5575,0 1.7325,6.1075 1.3125,4.62 0.0875,0 1.3125,-4.62 1.7325,-6.1075 1.505,0 -3.6225,12.215 -1.995,0 z"
         style="font-size:17.5px"
         id="path4267"
         inkscape:connector-curvature="0" />
      <path
         d="m 297.84401,162.80862 -0.9625,-12.215 1.3125,0 0.5075,7 0.2625,3.6925 0.14,0 1.61,-7.5075 1.645,0 1.61,7.5075 0.14,0 0.2625,-3.6925 0.5075,-7 1.2775,0 -0.9625,12.215 -2.1175,0 -1.4875,-7.2975 -0.14,0 -1.4875,7.2975 -2.1175,0 z"
         style="font-size:17.5px"
         id="path4269"
         inkscape:connector-curvature="0" />
      <path
         d="m 316.82468,162.80862 -1.6625,0 -1.4525,-2.4325 -1.61,-2.66 -0.07,0 -1.6625,2.66 -1.54,2.4325 -1.61,0 3.99,-6.23 -3.7625,-5.985 1.6625,0 1.4175,2.3625 1.5225,2.4675 0.07,0 1.505,-2.4675 1.47,-2.3625 1.61,0 -3.78,5.9675 3.9025,6.2475 z"
         style="font-size:17.5px"
         id="path4271"
         inkscape:connector-curvature="0" />
      <path
         d="m 321.77034,162.80862 0,-4.795 -4.2175,-7.42 1.68,0 1.75,3.185 1.4875,2.7825 0.07,0 1.5225,-2.7825 1.75,-3.185 1.645,0 -4.2175,7.42 0,4.795 -1.47,0 z"
         style="font-size:17.5px"
         id="path4273"
         inkscape:connector-curvature="0" />
      <path
         d="m 337.4085,162.80862 -8.82,0 0,-1.3125 6.9125,-9.625 -6.615,0 0,-1.2775 8.225,0 0,1.3125 -6.93,9.625 7.2275,0 0,1.2775 z"
         style="font-size:17.5px"
         id="path4275"
         inkscape:connector-curvature="0" />
      <path
         d="m 70.669403,184.89362 q -0.945,0 -1.715,-0.3325 -0.7525,-0.3325 -1.295,-0.945 -0.525,-0.63 -0.805,-1.4875 -0.28,-0.875 -0.28,-1.96 0,-1.0675 0.28,-1.9425 0.28,-0.875 0.805,-1.4875 0.5425,-0.63 1.295,-0.9625 0.77,-0.3325 1.715,-0.3325 0.945,0 1.6975,0.3325 0.77,0.3325 1.295,0.9625 0.5425,0.6125 0.8225,1.4875 0.28,0.875 0.28,1.9425 0,1.085 -0.28,1.96 -0.28,0.8575 -0.8225,1.4875 -0.525,0.6125 -1.295,0.945 -0.7525,0.3325 -1.6975,0.3325 z m 0,-1.2075 q 1.1725,0 1.89,-0.7 0.7175,-0.7 0.7175,-2.17 l 0,-1.295 q 0,-1.47 -0.7175,-2.17 -0.7175,-0.7 -1.89,-0.7 -1.1725,0 -1.89,0.7 -0.7175,0.7 -0.7175,2.17 l 0,1.295 q 0,1.47 0.7175,2.17 0.7175,0.7 1.89,0.7 z"
         style="font-size:17.5px"
         id="path4277"
         inkscape:connector-curvature="0" />
      <path
         d="m 81.162567,184.89362 q -1.12,0 -1.925,-0.42 -0.805,-0.4375 -1.33,-1.2425 -0.525,-0.805 -0.77,-1.9775 -0.245,-1.1725 -0.245,-2.6775 0,-1.4875 0.245,-2.66 0.245,-1.19 0.77,-1.995 0.525,-0.805 1.33,-1.225 0.805,-0.4375 1.925,-0.4375 1.12,0 1.925,0.4375 0.805,0.42 1.33,1.225 0.525,0.805 0.77,1.995 0.245,1.1725 0.245,2.66 0,1.505 -0.245,2.6775 -0.245,1.1725 -0.77,1.9775 -0.525,0.805 -1.33,1.2425 -0.805,0.42 -1.925,0.42 z m 0,-1.2775 q 0.735,0 1.2425,-0.28 0.5075,-0.2975 0.84,-0.8225 0.3325,-0.525 0.4725,-1.26 0.1575,-0.7525 0.1575,-1.68 l 0,-1.995 q 0,-0.91 -0.1575,-1.6625 -0.14,-0.7525 -0.4725,-1.2775 -0.3325,-0.525 -0.84,-0.805 -0.5075,-0.2975 -1.2425,-0.2975 -0.735,0 -1.2425,0.2975 -0.5075,0.28 -0.84,0.805 -0.3325,0.525 -0.49,1.2775 -0.14,0.7525 -0.14,1.6625 l 0,1.995 q 0,0.9275 0.14,1.68 0.1575,0.735 0.49,1.26 0.3325,0.525 0.84,0.8225 0.5075,0.28 1.2425,0.28 z"
         style="font-size:17.5px"
         id="path4279"
         inkscape:connector-curvature="0" />
      <path
         d="m 91.655731,184.89362 q -1.12,0 -1.925,-0.42 -0.805,-0.4375 -1.33,-1.2425 -0.525,-0.805 -0.77,-1.9775 -0.245,-1.1725 -0.245,-2.6775 0,-1.4875 0.245,-2.66 0.245,-1.19 0.77,-1.995 0.525,-0.805 1.33,-1.225 0.805,-0.4375 1.925,-0.4375 1.12,0 1.925,0.4375 0.805,0.42 1.33,1.225 0.525,0.805 0.77,1.995 0.245,1.1725 0.245,2.66 0,1.505 -0.245,2.6775 -0.245,1.1725 -0.77,1.9775 -0.525,0.805 -1.33,1.2425 -0.805,0.42 -1.925,0.42 z m 0,-1.2775 q 0.735,0 1.26,-0.28 0.525,-0.2975 0.84,-0.8225 0.3325,-0.525 0.49,-1.26 0.1575,-0.7525 0.1575,-1.68 l 0,-1.995 q 0,-0.91 -0.1575,-1.6625 -0.1575,-0.7525 -0.49,-1.2775 -0.315,-0.525 -0.84,-0.805 -0.525,-0.2975 -1.26,-0.2975 -0.735,0 -1.26,0.2975 -0.525,0.28 -0.8575,0.805 -0.315,0.525 -0.4725,1.2775 -0.1575,0.7525 -0.1575,1.6625 l 0,1.995 q 0,0.9275 0.1575,1.68 0.1575,0.735 0.4725,1.26 0.3325,0.525 0.8575,0.8225 0.525,0.28 1.26,0.28 z m 0,-4.0075 q -0.6125,0 -0.8575,-0.245 -0.2275,-0.245 -0.2275,-0.595 l 0,-0.385 q 0,-0.35 0.2275,-0.595 0.245,-0.245 0.8575,-0.245 0.6125,0 0.84,0.245 0.245,0.245 0.245,0.595 l 0,0.385 q 0,0.35 -0.245,0.595 -0.2275,0.245 -0.84,0.245 z"
         style="font-size:17.5px"
         id="path4281"
         inkscape:connector-curvature="0" />
      <path
         d="m 102.1489,184.89362 q -1.0675,0 -1.8725,-0.2625 -0.805005,-0.28 -1.347505,-0.7525 -0.525,-0.4725 -0.805,-1.12 -0.2625,-0.6475 -0.2625,-1.4 0,-1.26 0.6825,-1.995 0.6825,-0.735 1.802505,-1.0325 l 0,-0.14 q -0.980005,-0.3325 -1.557505,-1.0675 -0.56,-0.7525 -0.56,-1.8025 0,-1.4 1.0325,-2.2225 1.032505,-0.84 2.887505,-0.84 1.855,0 2.8875,0.84 1.0325,0.8225 1.0325,2.2225 0,1.05 -0.5775,1.8025 -0.56,0.735 -1.54,1.0675 l 0,0.14 q 1.12,0.2975 1.8025,1.0325 0.6825,0.735 0.6825,1.995 0,0.7525 -0.28,1.4 -0.2625,0.6475 -0.805,1.12 -0.5425,0.4725 -1.3475,0.7525 -0.7875,0.2625 -1.855,0.2625 z m 0,-1.2425 q 1.295,0 2.03,-0.5775 0.735,-0.5775 0.735,-1.6275 l 0,-0.385 q 0,-1.05 -0.735,-1.6275 -0.7175,-0.5775 -2.03,-0.5775 -1.3125,0 -2.0475,0.5775 -0.717505,0.5775 -0.717505,1.6275 l 0,0.385 q 0,1.05 0.735005,1.6275 0.735,0.5775 2.03,0.5775 z m 0,-5.985 q 1.19,0 1.8025,-0.5075 0.63,-0.5075 0.63,-1.4525 l 0,-0.245 q 0,-0.945 -0.6475,-1.4525 -0.63,-0.5075 -1.785,-0.5075 -1.155,0 -1.8025,0.5075 -0.630005,0.5075 -0.630005,1.4525 l 0,0.245 q 0,0.945 0.612505,1.4525 0.63,0.5075 1.82,0.5075 z"
         style="font-size:17.5px"
         id="path4283"
         inkscape:connector-curvature="0" />
      <path
         d="m 123.69522,173.65862 q -0.6125,0 -0.8575,-0.245 -0.245,-0.2625 -0.245,-0.6475 l 0,-0.28 q 0,-0.385 0.245,-0.63 0.245,-0.2625 0.8575,-0.2625 0.6125,0 0.8575,0.2625 0.245,0.245 0.245,0.63 l 0,0.28 q 0,0.385 -0.245,0.6475 -0.245,0.245 -0.8575,0.245 z m -3.955,9.835 3.255,0 0,-6.65 -3.255,0 0,-1.19 4.655,0 0,7.84 3.045,0 0,1.19 -7.7,0 0,-1.19 z"
         style="font-size:17.5px"
         id="path4285"
         inkscape:connector-curvature="0" />
      <path
         d="m 129.84839,184.68362 0,-1.1725 3.045,0 0,-9.87 -3.045,0 0,-1.1725 7.56,0 0,1.1725 -3.045,0 0,9.87 3.045,0 0,1.1725 -7.56,0 z"
         style="font-size:17.5px"
         id="path4287"
         inkscape:connector-curvature="0" />
      <path
         d="m 140.27155,183.49362 3.15,0 0,-10.57 -3.15,0 0,-1.19 4.55,0 0,11.76 3.15,0 0,1.19 -7.7,0 0,-1.19 z"
         style="font-size:17.5px"
         id="path4289"
         inkscape:connector-curvature="0" />
      <path
         d="m 151.46472,184.68362 0,-12.215 1.47,0 0,10.9375 5.7925,0 0,1.2775 -7.2625,0 z"
         style="font-size:17.5px"
         id="path4291"
         inkscape:connector-curvature="0" />
      <path
         d="m 161.34538,184.68362 0,-1.2775 3.5,0 0,-9.8525 -0.1225,0 -3.08,2.87 -0.8575,-0.9275 3.2375,-3.0275 2.2925,0 0,10.9375 3.22,0 0,1.2775 -8.19,0 z"
         style="font-size:17.5px"
         id="path4293"
         inkscape:connector-curvature="0" />
      <path
         d="m 186.42671,187.09862 q -0.735,0 -1.1025,-0.42 -0.3675,-0.4025 -0.3675,-1.015 l 0,-1.1025 q 0,-0.4725 0.0875,-0.8225 0.105,-0.35 0.245,-0.63 0.14,-0.28 0.315,-0.49 0.175,-0.2275 0.3325,-0.42 0.2975,-0.35 0.4025,-0.595 0.1225,-0.2625 0.1225,-0.5425 0,-0.665 -0.6125,-0.9625 -0.6125,-0.315 -1.8025,-0.315 l -1.365,0 0,-1.085 1.365,0 q 1.19,0 1.8025,-0.2975 0.6125,-0.315 0.6125,-0.98 0,-0.28 -0.1225,-0.525 -0.105,-0.2625 -0.4025,-0.6125 -0.1575,-0.1925 -0.3325,-0.4025 -0.175,-0.2275 -0.315,-0.49 -0.14,-0.28 -0.245,-0.63 -0.0875,-0.3675 -0.0875,-0.84 l 0,-1.1025 q 0,-0.6125 0.3675,-1.015 0.3675,-0.42 1.1025,-0.42 l 3.08,0 0,1.085 -3.3425,0 0,1.3475 q 0,0.7175 0.21,1.1025 0.21,0.385 0.49,0.7525 0.2975,0.385 0.56,0.805 0.2625,0.4025 0.2625,0.9625 0,0.735 -0.525,1.19 -0.5075,0.455 -1.4,0.5775 l 0,0.07 q 0.8925,0.1225 1.4,0.5775 0.525,0.455 0.525,1.19 0,0.56 -0.2625,0.98 -0.2625,0.4025 -0.56,0.7875 -0.28,0.3675 -0.49,0.7525 -0.21,0.385 -0.21,1.1025 l 0,1.3475 3.3425,0 0,1.085 -3.08,0 z"
         style="font-size:17.5px"
         id="path4295"
         inkscape:connector-curvature="0" />
      <path
         d="m 196.25487,171.38362 q 0.735,0 1.1025,0.42 0.3675,0.4025 0.3675,1.015 l 0,1.1025 q 0,0.4725 -0.105,0.84 -0.0875,0.35 -0.2275,0.63 -0.14,0.2625 -0.315,0.49 -0.175,0.21 -0.3325,0.4025 -0.2975,0.35 -0.42,0.6125 -0.105,0.245 -0.105,0.525 0,0.665 0.6125,0.98 0.6125,0.2975 1.8025,0.2975 l 1.365,0 0,1.085 -1.365,0 q -1.19,0 -1.8025,0.315 -0.6125,0.2975 -0.6125,0.9625 0,0.28 0.105,0.5425 0.1225,0.245 0.42,0.595 0.1575,0.1925 0.3325,0.42 0.175,0.21 0.315,0.49 0.14,0.28 0.2275,0.63 0.105,0.35 0.105,0.8225 l 0,1.1025 q 0,0.6125 -0.3675,1.015 -0.3675,0.42 -1.1025,0.42 l -3.08,0 0,-1.085 3.3425,0 0,-1.3475 q 0,-0.7175 -0.21,-1.1025 -0.21,-0.385 -0.49,-0.7525 -0.2975,-0.385 -0.56,-0.7875 -0.2625,-0.42 -0.2625,-0.98 0,-0.735 0.5075,-1.19 0.525,-0.455 1.4175,-0.5775 l 0,-0.07 q -0.8925,-0.1225 -1.4175,-0.5775 -0.5075,-0.455 -0.5075,-1.19 0,-0.56 0.2625,-0.9625 0.2625,-0.42 0.56,-0.805 0.28,-0.3675 0.49,-0.7525 0.21,-0.385 0.21,-1.1025 l 0,-1.3475 -3.3425,0 0,-1.085 3.08,0 z"
         style="font-size:17.5px"
         id="path4297"
         inkscape:connector-curvature="0" />
      <path
         d="m 216.2612,187.09862 0,-15.715 4.9,0 0,1.085 -3.6925,0 0,13.545 3.6925,0 0,1.085 -4.9,0 z"
         style="font-size:17.5px"
         id="path4299"
         inkscape:connector-curvature="0" />
      <path
         d="m 229.37936,171.38362 0,15.715 -4.9,0 0,-1.085 3.6925,0 0,-13.545 -3.6925,0 0,-1.085 4.9,0 z"
         style="font-size:17.5px"
         id="path4301"
         inkscape:connector-curvature="0" />
      <path
         d="m 253.62069,185.71612 q 0,1.365 -1.1375,2.0125 -1.1375,0.665 -3.4125,0.665 -2.1875,0 -3.15,-0.5775 -0.945,-0.5775 -0.945,-1.6625 0,-0.735 0.385,-1.1375 0.385,-0.4025 1.085,-0.595 l 0,-0.21 q -0.385,-0.1925 -0.595,-0.49 -0.21,-0.2975 -0.21,-0.7525 0,-0.7 0.455,-1.05 0.4725,-0.35 1.1725,-0.525 l 0,-0.07 q -0.84,-0.3675 -1.3125,-1.085 -0.455,-0.7175 -0.455,-1.68 0,-0.6825 0.245,-1.26 0.245,-0.5775 0.7,-0.98 0.4725,-0.42 1.12,-0.6475 0.6475,-0.2275 1.435,-0.2275 1.015,0 1.785,0.3675 l 0,-0.1575 q 0,-0.525 0.245,-0.875 0.245,-0.35 0.84,-0.35 l 1.6625,0 0,1.225 -2.03,0 0,0.6125 q 0.49,0.42 0.7525,0.9975 0.2625,0.5775 0.2625,1.295 0,0.6825 -0.2625,1.26 -0.245,0.5775 -0.7,0.9975 -0.455,0.4025 -1.12,0.63 -0.6475,0.2275 -1.435,0.2275 -0.2275,0 -0.4375,-0.0175 -0.21,-0.0175 -0.42,-0.0525 -0.21,0.035 -0.4375,0.1225 -0.2275,0.07 -0.42,0.21 -0.1925,0.1225 -0.315,0.2975 -0.1225,0.175 -0.1225,0.4025 0,0.4025 0.4025,0.5425 0.4025,0.1225 1.05,0.1225 l 1.995,0 q 1.75,0 2.5375,0.665 0.7875,0.6475 0.7875,1.75 z m -1.3125,0.07 q 0,-0.5425 -0.4375,-0.875 -0.4375,-0.315 -1.5225,-0.315 l -3.1325,0 q -0.91,0.3675 -0.91,1.225 0,0.595 0.4725,1.015 0.4725,0.4375 1.575,0.4375 l 1.365,0 q 1.225,0 1.9075,-0.385 0.6825,-0.3675 0.6825,-1.1025 z m -3.3075,-5.1975 q 1.05,0 1.54,-0.49 0.5075,-0.49 0.5075,-1.295 l 0,-0.5075 q 0,-0.805 -0.5075,-1.2775 -0.49,-0.49 -1.54,-0.49 -1.05,0 -1.54,0.49 -0.49,0.4725 -0.49,1.2775 l 0,0.5075 q 0,0.805 0.49,1.295 0.49,0.49 1.54,0.49 z"
         style="font-size:17.5px"
         id="path4303"
         inkscape:connector-curvature="0" />
      <path
         d="m 263.67636,176.94862 q 0,1.365 -0.42,2.5725 -0.4025,1.19 -1.05,2.1875 -0.6475,0.98 -1.435,1.75 -0.77,0.7525 -1.5225,1.225 l -1.89,0 q 0.9975,-0.7175 1.7675,-1.4 0.7875,-0.6825 1.3825,-1.4175 0.595,-0.7525 0.9975,-1.5925 0.4025,-0.8575 0.665,-1.925 l -0.0875,-0.035 q -0.455,0.7525 -1.1725,1.26 -0.7,0.49 -1.8375,0.49 -0.805,0 -1.4875,-0.2625 -0.665,-0.2625 -1.155,-0.7525 -0.4725,-0.49 -0.7525,-1.1725 -0.2625,-0.7 -0.2625,-1.575 0,-0.8925 0.28,-1.6275 0.2975,-0.7525 0.84,-1.2775 0.5425,-0.5425 1.295,-0.84 0.77,-0.2975 1.6975,-0.2975 0.9625,0 1.7325,0.3325 0.77,0.315 1.295,0.9275 0.5425,0.595 0.8225,1.47 0.2975,0.875 0.2975,1.96 z m -4.13,1.9075 q 1.26,0 1.9425,-0.6825 0.7,-0.6825 0.7,-1.925 l 0,-0.14 q 0,-1.2425 -0.7,-1.925 -0.6825,-0.6825 -1.9425,-0.6825 -1.26,0 -1.96,0.6825 -0.6825,0.6825 -0.6825,1.925 l 0,0.14 q 0,1.2425 0.6825,1.925 0.7,0.6825 1.96,0.6825 z"
         style="font-size:17.5px"
         id="path4305"
         inkscape:connector-curvature="0" />
      <path
         d="m 272.22702,183.21362 -0.07,0 q -0.875,1.68 -2.7825,1.68 -1.6625,0 -2.6075,-1.2425 -0.9275,-1.2425 -0.9275,-3.4825 0,-2.24 0.9275,-3.4825 0.945,-1.2425 2.6075,-1.2425 1.9075,0 2.7825,1.68 l 0.07,0 0,-1.47 1.4,0 0,12.53 -1.4,0 0,-4.97 z m -2.31,0.4375 q 0.4725,0 0.8925,-0.1225 0.42,-0.1225 0.735,-0.35 0.315,-0.245 0.49,-0.5775 0.1925,-0.35 0.1925,-0.805 l 0,-3.255 q 0,-0.455 -0.1925,-0.7875 -0.175,-0.35 -0.49,-0.5775 -0.315,-0.245 -0.735,-0.3675 -0.42,-0.1225 -0.8925,-0.1225 -1.225,0 -1.9075,0.7525 -0.665,0.735 -0.665,1.96 l 0,1.54 q 0,1.225 0.665,1.9775 0.6825,0.735 1.9075,0.735 z"
         style="font-size:17.5px"
         id="path4307"
         inkscape:connector-curvature="0" />
      <path
         d="m 280.93518,184.89362 q -2.24,0 -3.3425,-1.6275 -1.085,-1.6275 -1.085,-4.69 0,-3.0625 1.085,-4.69 1.1025,-1.6275 3.3425,-1.6275 0.84,0 1.4525,0.2275 0.6125,0.2275 1.05,0.6125 0.4375,0.385 0.735,0.875 0.2975,0.4725 0.525,0.9625 l -1.26,0.5775 q -0.1575,-0.4025 -0.3675,-0.7525 -0.21,-0.3675 -0.5075,-0.63 -0.28,-0.28 -0.6825,-0.4375 -0.385,-0.1575 -0.945,-0.1575 -1.4525,0 -2.17,1.1025 -0.7,1.1025 -0.7,2.94 l 0,1.995 q 0,1.8375 0.7,2.94 0.7175,1.1025 2.17,1.1025 0.56,0 0.945,-0.1575 0.4025,-0.1575 0.6825,-0.42 0.2975,-0.28 0.5075,-0.63 0.21,-0.3675 0.3675,-0.77 l 1.26,0.5775 q -0.2275,0.5075 -0.525,0.98 -0.2975,0.4725 -0.735,0.8575 -0.4375,0.385 -1.05,0.6125 -0.6125,0.2275 -1.4525,0.2275 z"
         style="font-size:17.5px"
         id="path4309"
         inkscape:connector-curvature="0" />
      <path
         d="m 293.54585,183.05612 -0.0875,0 q -0.1575,0.35 -0.3675,0.6825 -0.21,0.3325 -0.5425,0.595 -0.315,0.245 -0.77,0.4025 -0.455,0.1575 -1.085,0.1575 -1.995,0 -2.975,-1.61 -0.9625,-1.61 -0.9625,-4.62 0,-3.15 1.0675,-4.7775 1.0675,-1.6275 3.29,-1.6275 0.8575,0 1.4875,0.2275 0.63,0.2275 1.0675,0.6125 0.455,0.385 0.7525,0.875 0.2975,0.4725 0.49,0.9625 l -1.26,0.5775 q -0.1575,-0.4025 -0.3675,-0.7525 -0.1925,-0.3675 -0.49,-0.63 -0.28,-0.28 -0.6825,-0.4375 -0.4025,-0.1575 -0.945,-0.1575 -1.47,0 -2.17,1.1025 -0.6825,1.1025 -0.6825,2.94 l 0,1.89 q 0,0.9275 0.14,1.6975 0.14,0.7525 0.455,1.3125 0.3325,0.56 0.84,0.875 0.525,0.2975 1.2775,0.2975 1.19,0 1.855,-0.7175 0.665,-0.7175 0.665,-1.855 l 0,-1.26 -2.5725,0 0,-1.1725 3.9375,0 0,6.0375 -1.365,0 0,-1.6275 z"
         style="font-size:17.5px"
         id="path4311"
         inkscape:connector-curvature="0" />
      <path
         d="m 304.86151,187.55362 -2.0475,0 q -1.0325,0 -1.5225,-0.5775 -0.4725,-0.5775 -0.4725,-1.4875 l 0,-0.6475 q -0.9275,-0.1225 -1.61,-0.595 -0.665,-0.49 -1.1025,-1.2775 -0.4375,-0.805 -0.6475,-1.9075 -0.21,-1.12 -0.21,-2.485 0,-1.4875 0.245,-2.66 0.245,-1.19 0.77,-1.995 0.525,-0.805 1.33,-1.225 0.805,-0.4375 1.925,-0.4375 1.12,0 1.925,0.4375 0.805,0.42 1.33,1.225 0.525,0.805 0.77,1.995 0.245,1.1725 0.245,2.66 0,2.7475 -0.8575,4.3925 -0.8575,1.6275 -2.7125,1.8725 l 0,1.5225 2.6425,0 0,1.19 z m -3.3425,-3.9375 q 0.735,0 1.2425,-0.28 0.5075,-0.2975 0.84,-0.8225 0.3325,-0.525 0.4725,-1.26 0.1575,-0.7525 0.1575,-1.68 l 0,-1.995 q 0,-0.91 -0.1575,-1.6625 -0.14,-0.7525 -0.4725,-1.2775 -0.3325,-0.525 -0.84,-0.805 -0.5075,-0.2975 -1.2425,-0.2975 -0.735,0 -1.2425,0.2975 -0.5075,0.28 -0.84,0.805 -0.3325,0.525 -0.49,1.2775 -0.14,0.7525 -0.14,1.6625 l 0,1.995 q 0,0.9275 0.14,1.68 0.1575,0.735 0.49,1.26 0.3325,0.525 0.84,0.8225 0.5075,0.28 1.2425,0.28 z"
         style="font-size:17.5px"
         id="path4313"
         inkscape:connector-curvature="0" />
      <path
         d="m 324.39534,180.53612 q -0.5425,0 -1.0325,-0.1575 -0.49,-0.175 -0.945,-0.4025 -0.455,-0.2275 -0.9275,-0.4375 -0.455,-0.21 -0.8925,-0.21 -0.5075,0 -0.8225,0.35 -0.315,0.3325 -0.5425,0.8575 l -1.0675,-0.4375 q 0.245,-0.84 0.8575,-1.3825 0.6125,-0.56 1.5925,-0.56 0.5425,0 1.0325,0.175 0.49,0.1575 0.945,0.385 0.455,0.2275 0.91,0.4375 0.4725,0.21 0.91,0.21 0.5075,0 0.8225,-0.3325 0.315,-0.35 0.5425,-0.875 l 1.0675,0.4375 q -0.245,0.84 -0.8575,1.4 -0.6125,0.5425 -1.5925,0.5425 z"
         style="font-size:17.5px"
         id="path4315"
         inkscape:connector-curvature="0" />
      <path
         d="m 330.461,180.09862 0,-1.47 5.075,0 0,1.47 -5.075,0 z"
         style="font-size:17.5px"
         id="path4317"
         inkscape:connector-curvature="0" />
      <path
         d="m 342.82667,183.59862 0,-3.6575 -3.5,0 0,-1.19 3.5,0 0,-3.6575 1.33,0 0,3.6575 3.5,0 0,1.19 -3.5,0 0,3.6575 -1.33,0 z"
         style="font-size:17.5px"
         id="path4319"
         inkscape:connector-curvature="0" />
      <path
         d="m 349.81983,178.17362 0,-1.19 8.33,0 0,1.19 -8.33,0 z m 0,3.5 0,-1.19 8.33,0 0,1.19 -8.33,0 z"
         style="font-size:17.5px"
         id="path4321"
         inkscape:connector-curvature="0" />
      <path
         d="m 360.7155,182.95112 6.2125,-3.5175 0,-0.14 -6.2125,-3.5175 0,-1.4875 7.525,4.3575 0,1.4 -7.525,4.3575 0,-1.4525 z"
         style="font-size:17.5px"
         id="path4323"
         inkscape:connector-curvature="0" />
    </g>
  </g>
</svg>
