<?xml version="1.0" encoding="UTF-8" standalone="no"?>
<!-- Created with Inkscape (http://www.inkscape.org/) -->

<svg
   xmlns:dc="http://purl.org/dc/elements/1.1/"
   xmlns:cc="http://creativecommons.org/ns#"
   xmlns:rdf="http://www.w3.org/1999/02/22-rdf-syntax-ns#"
   xmlns:svg="http://www.w3.org/2000/svg"
   xmlns="http://www.w3.org/2000/svg"
   xmlns:sodipodi="http://sodipodi.sourceforge.net/DTD/sodipodi-0.dtd"
   xmlns:inkscape="http://www.inkscape.org/namespaces/inkscape"
   width="93.091644mm"
   height="30.003679mm"
   viewBox="0 0 329.85228 106.31225"
   id="svg2"
   version="1.1"
   inkscape:version="0.91 r13725"
   sodipodi:docname="CodeNewRoman Nerd Font.svg">
  <defs
     id="defs4" />
  <sodipodi:namedview
     id="base"
     pagecolor="#ffffff"
     bordercolor="#666666"
     borderopacity="1.0"
     inkscape:pageopacity="0.0"
     inkscape:pageshadow="2"
     inkscape:zoom="0.7"
     inkscape:cx="-54.092499"
     inkscape:cy="-401.23257"
     inkscape:document-units="px"
     inkscape:current-layer="layer1"
     showgrid="false"
     inkscape:window-width="1861"
     inkscape:window-height="1056"
     inkscape:window-x="59"
     inkscape:window-y="24"
     inkscape:window-maximized="1" />
  <metadata
     id="metadata7">
    <rdf:RDF>
      <cc:Work
         rdf:about="">
        <dc:format>image/svg+xml</dc:format>
        <dc:type
           rdf:resource="http://purl.org/dc/dcmitype/StillImage" />
        <dc:title />
      </cc:Work>
    </rdf:RDF>
  </metadata>
  <g
     inkscape:label="Layer 1"
     inkscape:groupmode="layer"
     id="layer1"
     transform="translate(-64.092495,-81.960243)">
    <g
       style="font-style:normal;font-weight:normal;font-size:27.5px;line-height:125%;font-family:'CodeNewRoman Nerd Font';text-decoration: underline;text-decoration-line: underline;letter-spacing:0px;word-spacing:0px;fill:#ffffff;fill-opacity:1;stroke:none;stroke-width:1px;stroke-linecap:butt;stroke-linejoin:miter;stroke-opacity:1"
       id="text4136">
      <path
         d="m 76.217739,100.27567 0,-2.255856 c -0.644531,0.322265 -1.30249,0.563964 -1.987305,0.738525 -0.698242,0.17456 -1.409912,0.255127 -2.161865,0.255127 -1.785888,0 -3.14209,-0.577393 -4.055176,-1.732178 -0.926513,-1.154785 -1.383056,-2.860107 -1.383056,-5.142822 0,-1.074219 0.120849,-2.041016 0.375976,-2.886963 0.2417,-0.845947 0.604248,-1.557617 1.074219,-2.148438 0.456543,-0.59082 1.020508,-1.033935 1.691895,-1.342773 0.671386,-0.308838 1.409912,-0.469971 2.242431,-0.469971 0.805664,0 1.54419,0.09399 2.229004,0.281983 0.671387,0.187988 1.329346,0.443115 1.973877,0.792236 l 0,-2.349853 c -0.644531,-0.281983 -1.315918,-0.496827 -2.01416,-0.631104 -0.698242,-0.134277 -1.463623,-0.214844 -2.269287,-0.214844 -1.208496,0 -2.282715,0.214844 -3.249512,0.644532 -0.966797,0.429687 -1.799316,1.047363 -2.470703,1.839599 -0.684814,0.792237 -1.208496,1.759033 -1.571045,2.886963 -0.375976,1.141357 -0.550537,2.416992 -0.550537,3.813477 0,2.90039 0.657959,5.102539 1.987305,6.579589 1.329345,1.477051 3.236084,2.215581 5.720214,2.215581 1.530762,0 3.007813,-0.28199 4.417725,-0.87281 z"
         id="path4140"
         inkscape:connector-curvature="0" />
      <path
         d="m 91.887905,94.085487 c 0,-1.101074 -0.147705,-2.094726 -0.429687,-2.954101 -0.281983,-0.859375 -0.684815,-1.571045 -1.221924,-2.148438 -0.53711,-0.577392 -1.181641,-1.020508 -1.947022,-1.315918 -0.765381,-0.29541 -1.624756,-0.456543 -2.591552,-0.456543 -1.020508,0 -1.920166,0.174561 -2.712403,0.523682 -0.805664,0.349121 -1.477051,0.83252 -2.027588,1.450195 -0.563965,0.617676 -0.980224,1.369629 -1.275634,2.229004 -0.295411,0.859375 -0.443116,1.812744 -0.443116,2.860108 0,1.127929 0.134278,2.108154 0.41626,2.967529 0.281983,0.859375 0.684815,1.584473 1.221924,2.161865 0.537109,0.59082 1.181641,1.03394 1.947021,1.32935 0.765381,0.29541 1.638184,0.44311 2.604981,0.44311 1.00708,0 1.906738,-0.16113 2.712402,-0.51025 0.792237,-0.34912 1.463623,-0.832522 2.027588,-1.450198 0.550537,-0.617676 0.980225,-1.369629 1.275635,-2.242432 0.29541,-0.872802 0.443115,-1.839599 0.443115,-2.886963 z m -2.390137,0.107422 c 0,0.671387 -0.08057,1.315918 -0.228271,1.920166 -0.147705,0.604248 -0.375977,1.12793 -0.698242,1.584473 -0.322266,0.456543 -0.725098,0.832519 -1.221924,1.101074 -0.496826,0.268555 -1.087647,0.402832 -1.785889,0.402832 -0.617676,0 -1.154785,-0.09399 -1.638183,-0.308838 -0.483399,-0.214843 -0.899659,-0.523681 -1.235352,-0.939941 -0.349121,-0.41626 -0.604248,-0.939942 -0.792236,-1.571045 -0.187989,-0.617676 -0.268555,-1.356201 -0.268555,-2.188721 0,-0.657959 0.06714,-1.289062 0.214844,-1.89331 0.147705,-0.604248 0.375976,-1.141358 0.698242,-1.597901 0.322266,-0.456543 0.725098,-0.819091 1.221924,-1.087646 0.496826,-0.268555 1.101074,-0.41626 1.799316,-0.41626 0.590821,0 1.141358,0.107422 1.624756,0.322266 0.483399,0.214843 0.899658,0.523681 1.248779,0.939941 0.335694,0.41626 0.590821,0.939941 0.778809,1.557617 0.187988,0.617676 0.281982,1.342774 0.281982,2.175293 z"
         id="path4142"
         inkscape:connector-curvature="0" />
      <path
         d="m 94.613735,94.474892 c 0,1.00708 0.09399,1.920166 0.29541,2.739257 0.187989,0.83252 0.483399,1.530762 0.872803,2.121583 0.389404,0.59082 0.872803,1.033938 1.463623,1.356198 0.59082,0.32227 1.262207,0.4834 2.041016,0.4834 0.886233,0 1.705323,-0.22827 2.470703,-0.68481 0.75195,-0.45655 1.46362,-1.154788 2.12158,-2.108158 l 0.0806,2.551268 2.09472,0 0,-18.973387 -2.34985,0 0,5.666504 c -0.40283,-0.107422 -0.81909,-0.201416 -1.23535,-0.255127 -0.41626,-0.05371 -0.83252,-0.08057 -1.26221,-0.08057 -0.99365,0 -1.906736,0.161133 -2.7124,0.483398 -0.805664,0.322266 -1.503906,0.778809 -2.081298,1.396485 -0.577393,0.617675 -1.020508,1.369628 -1.329346,2.255859 -0.322266,0.88623 -0.469971,1.906738 -0.469971,3.048096 z m 2.390137,-0.147705 c 0,-1.745606 0.349121,-3.034668 1.060791,-3.867188 0.71167,-0.819092 1.705322,-1.235351 2.980957,-1.235351 0.45654,0 0.91309,0.05371 1.38306,0.147705 0.45654,0.09399 0.88623,0.228271 1.27563,0.402832 l 0,6.257324 c -0.7251,1.047363 -1.42334,1.826172 -2.0813,2.349853 -0.65796,0.53711 -1.27563,0.792237 -1.866453,0.792237 -0.88623,0 -1.557617,-0.389405 -2.041015,-1.195069 -0.483399,-0.805664 -0.71167,-2.01416 -0.71167,-3.652343 z"
         id="path4144"
         inkscape:connector-curvature="0" />
      <path
         d="m 121.83175,93.481239 c 0,-0.953369 -0.13427,-1.812744 -0.3894,-2.591552 -0.25513,-0.778809 -0.63111,-1.436768 -1.12793,-1.973877 -0.49683,-0.53711 -1.10108,-0.966797 -1.82617,-1.262207 -0.7251,-0.295411 -1.55762,-0.443116 -2.49756,-0.443116 -0.9668,0 -1.8396,0.187989 -2.59155,0.563965 -0.76539,0.375977 -1.40992,0.886231 -1.9336,1.530762 -0.52368,0.644531 -0.92651,1.383057 -1.19507,2.229004 -0.26855,0.845947 -0.40283,1.745605 -0.40283,2.685547 0,1.101074 0.12085,2.081299 0.37598,2.940674 0.25512,0.859375 0.64453,1.5979 1.18164,2.18872 0.53711,0.590821 1.22192,1.047361 2.05444,1.356201 0.83252,0.32227 1.82617,0.46997 2.98096,0.46997 0.85937,0 1.67847,-0.0537 2.48413,-0.16113 0.80566,-0.10742 1.51733,-0.25513 2.16187,-0.44312 l 0,-1.920163 c -0.29542,0.08057 -0.60425,0.161133 -0.93995,0.228272 -0.33569,0.06714 -0.68481,0.120849 -1.04736,0.17456 -0.37598,0.05371 -0.75195,0.107422 -1.14136,0.134277 -0.40283,0.02686 -0.79223,0.04028 -1.18164,0.04028 -1.45019,0 -2.56469,-0.362549 -3.33008,-1.101075 -0.7788,-0.738525 -1.15478,-1.799316 -1.15478,-3.182373 l 9.46655,0 c 0.0134,-0.187988 0.0269,-0.402832 0.0403,-0.631103 0,-0.214844 0.0134,-0.496826 0.0134,-0.83252 z m -2.43042,-0.335693 -7.08984,0 c 0.0403,-0.59082 0.16113,-1.141357 0.34912,-1.651611 0.18799,-0.496827 0.42969,-0.926514 0.73853,-1.289063 0.29541,-0.349121 0.65795,-0.631103 1.08764,-0.832519 0.41626,-0.187989 0.88623,-0.295411 1.39649,-0.295411 0.59082,0 1.10107,0.107422 1.55761,0.308838 0.44312,0.201416 0.8191,0.483399 1.11451,0.83252 0.29541,0.362549 0.52368,0.792236 0.67138,1.289062 0.13428,0.496827 0.20142,1.047364 0.17456,1.638184 z"
         id="path4146"
         inkscape:connector-curvature="0" />
      <path
         d="m 136.97824,100.93363 0,-17.550047 -2.22901,0 0,4.98169 0,9.399414 -1.75903,-4.014893 -4.87427,-10.366211 -3.07495,0 0,17.550047 2.22901,0 0,-5.612791 0,-8.848877 1.47705,3.518066 5.11596,10.943602 3.11524,0 z"
         id="path4148"
         inkscape:connector-curvature="0" />
      <path
         d="m 152.12472,93.481239 c 0,-0.953369 -0.13428,-1.812744 -0.3894,-2.591552 -0.25513,-0.778809 -0.63111,-1.436768 -1.12793,-1.973877 -0.49683,-0.53711 -1.10108,-0.966797 -1.82617,-1.262207 -0.7251,-0.295411 -1.55762,-0.443116 -2.49756,-0.443116 -0.9668,0 -1.8396,0.187989 -2.59156,0.563965 -0.76538,0.375977 -1.40991,0.886231 -1.93359,1.530762 -0.52368,0.644531 -0.92651,1.383057 -1.19507,2.229004 -0.26855,0.845947 -0.40283,1.745605 -0.40283,2.685547 0,1.101074 0.12085,2.081299 0.37598,2.940674 0.25512,0.859375 0.64453,1.5979 1.18164,2.18872 0.53711,0.590821 1.22192,1.047361 2.05444,1.356201 0.83252,0.32227 1.82617,0.46997 2.98096,0.46997 0.85937,0 1.67846,-0.0537 2.48413,-0.16113 0.80566,-0.10742 1.51733,-0.25513 2.16186,-0.44312 l 0,-1.920163 c -0.29541,0.08057 -0.60424,0.161133 -0.93994,0.228272 -0.33569,0.06714 -0.68481,0.120849 -1.04736,0.17456 -0.37598,0.05371 -0.75195,0.107422 -1.14136,0.134277 -0.40283,0.02686 -0.79223,0.04028 -1.18164,0.04028 -1.45019,0 -2.5647,-0.362549 -3.33008,-1.101075 -0.77881,-0.738525 -1.15478,-1.799316 -1.15478,-3.182373 l 9.46655,0 c 0.0134,-0.187988 0.0269,-0.402832 0.0403,-0.631103 0,-0.214844 0.0134,-0.496826 0.0134,-0.83252 z m -2.43042,-0.335693 -7.08984,0 c 0.0403,-0.59082 0.16113,-1.141357 0.34912,-1.651611 0.18799,-0.496827 0.42969,-0.926514 0.73852,-1.289063 0.29541,-0.349121 0.65796,-0.631103 1.08765,-0.832519 0.41626,-0.187989 0.88623,-0.295411 1.39649,-0.295411 0.59082,0 1.10107,0.107422 1.55761,0.308838 0.44312,0.201416 0.81909,0.483399 1.1145,0.83252 0.29541,0.362549 0.52369,0.792236 0.67139,1.289062 0.13428,0.496827 0.20142,1.047364 0.17456,1.638184 z"
         id="path4150"
         inkscape:connector-curvature="0" />
      <path
         d="m 168.37228,87.452187 -2.30957,0 -1.04736,9.224853 -0.20142,1.893311 -0.60425,-1.785889 -2.10815,-5.975342 -1.67847,0 -1.96045,6.055908 -0.57739,1.785889 -0.2417,-2.041016 -1.12793,-9.157714 -2.28271,0 1.94702,13.481443 2.75268,0 1.86646,-5.55908 0.44311,-1.450195 0.38941,1.369628 1.94702,5.639647 2.83325,0 1.96045,-13.481443 z"
         id="path4152"
         inkscape:connector-curvature="0" />
      <path
         d="m 182.99508,100.93363 -2.77954,-5.773924 c -0.36255,-0.698242 -0.71167,-1.262207 -1.06079,-1.691894 -0.34912,-0.429688 -0.76538,-0.725098 -1.24878,-0.899659 0.60425,-0.134277 1.14136,-0.349121 1.61133,-0.644531 0.46997,-0.29541 0.85937,-0.631103 1.18164,-1.033935 0.32227,-0.402832 0.56397,-0.845948 0.7251,-1.329346 0.16113,-0.483399 0.2417,-1.00708 0.2417,-1.557617 0,-0.684815 -0.12085,-1.315918 -0.3357,-1.879883 -0.21484,-0.563965 -0.56396,-1.060791 -1.03393,-1.463623 -0.46997,-0.402832 -1.07422,-0.71167 -1.79932,-0.939942 -0.73852,-0.214843 -1.61133,-0.335693 -2.63183,-0.335693 l -4.69971,0 0,17.550047 2.39014,0 0,-7.81494 1.12793,0 c 0.34912,0 0.65795,0.04028 0.93994,0.107422 0.28198,0.08057 0.53711,0.201416 0.77881,0.362549 0.24169,0.161133 0.45654,0.389404 0.67138,0.671387 0.20142,0.281982 0.40283,0.631103 0.60425,1.060791 l 2.61841,5.612791 2.69897,0 z m -3.8269,-12.72949 c 0,0.483398 -0.094,0.913086 -0.26856,1.289062 -0.17456,0.375977 -0.41626,0.684815 -0.73852,0.939942 -0.32227,0.255127 -0.69824,0.443115 -1.15479,0.577392 -0.45654,0.134278 -0.95337,0.187988 -1.51733,0.187988 l -1.93359,0 0,-5.800781 2.25585,0 c 1.0608,0 1.87989,0.241699 2.47071,0.698242 0.59082,0.469971 0.88623,1.168213 0.88623,2.108155 z"
         id="path4154"
         inkscape:connector-curvature="0" />
      <path
         d="m 197.9133,94.085487 c 0,-1.101074 -0.14771,-2.094726 -0.42969,-2.954101 -0.28198,-0.859375 -0.68482,-1.571045 -1.22193,-2.148438 -0.5371,-0.577392 -1.18164,-1.020508 -1.94702,-1.315918 -0.76538,-0.29541 -1.62475,-0.456543 -2.59155,-0.456543 -1.02051,0 -1.92017,0.174561 -2.7124,0.523682 -0.80567,0.349121 -1.47705,0.83252 -2.02759,1.450195 -0.56396,0.617676 -0.98022,1.369629 -1.27563,2.229004 -0.29541,0.859375 -0.44312,1.812744 -0.44312,2.860108 0,1.127929 0.13428,2.108154 0.41626,2.967529 0.28198,0.859375 0.68481,1.584473 1.22192,2.161865 0.53711,0.59082 1.18164,1.03394 1.94703,1.32935 0.76538,0.29541 1.63818,0.44311 2.60498,0.44311 1.00708,0 1.90673,-0.16113 2.7124,-0.51025 0.79223,-0.34912 1.46362,-0.832522 2.02759,-1.450198 0.55053,-0.617676 0.98022,-1.369629 1.27563,-2.242432 0.29541,-0.872802 0.44312,-1.839599 0.44312,-2.886963 z m -2.39014,0.107422 c 0,0.671387 -0.0806,1.315918 -0.22827,1.920166 -0.14771,0.604248 -0.37598,1.12793 -0.69824,1.584473 -0.32227,0.456543 -0.7251,0.832519 -1.22193,1.101074 -0.49682,0.268555 -1.08764,0.402832 -1.78589,0.402832 -0.61767,0 -1.15478,-0.09399 -1.63818,-0.308838 -0.4834,-0.214843 -0.89966,-0.523681 -1.23535,-0.939941 -0.34912,-0.41626 -0.60425,-0.939942 -0.79224,-1.571045 -0.18799,-0.617676 -0.26855,-1.356201 -0.26855,-2.188721 0,-0.657959 0.0671,-1.289062 0.21484,-1.89331 0.14771,-0.604248 0.37598,-1.141358 0.69824,-1.597901 0.32227,-0.456543 0.7251,-0.819091 1.22193,-1.087646 0.49682,-0.268555 1.10107,-0.41626 1.79931,-0.41626 0.59082,0 1.14136,0.107422 1.62476,0.322266 0.4834,0.214843 0.89966,0.523681 1.24878,0.939941 0.33569,0.41626 0.59082,0.939941 0.77881,1.557617 0.18798,0.617676 0.28198,1.342774 0.28198,2.175293 z"
         id="path4156"
         inkscape:connector-curvature="0" />
      <path
         d="m 210.9382,100.93363 2.14844,0 0,-9.815672 c 0,-2.60498 -0.84595,-3.907471 -2.53785,-3.907471 -0.37597,0 -0.71167,0.06714 -0.99365,0.201416 -0.29541,0.134278 -0.55054,0.322266 -0.79223,0.563965 -0.2417,0.241699 -0.45655,0.550537 -0.65796,0.913086 -0.21485,0.362549 -0.41626,0.778809 -0.63111,1.235352 0,-0.993653 -0.18799,-1.71875 -0.56396,-2.202149 -0.37598,-0.46997 -0.92652,-0.71167 -1.65161,-0.71167 -0.32227,0 -0.61768,0.05371 -0.88623,0.161133 -0.26856,0.107422 -0.51026,0.268555 -0.73853,0.483399 -0.2417,0.214843 -0.46997,0.510254 -0.68481,0.859375 -0.21485,0.362548 -0.44312,0.792236 -0.67139,1.30249 l -0.10742,-2.564697 -1.78589,0 0,13.481443 2.14844,0 0,-8.660887 c 0.29541,-0.617676 0.55053,-1.141357 0.76538,-1.544189 0.21484,-0.402832 0.40283,-0.71167 0.57739,-0.953369 0.17456,-0.228272 0.33569,-0.389405 0.4834,-0.483399 0.13428,-0.08057 0.29541,-0.134277 0.45654,-0.134277 0.14771,0 0.28198,0.04028 0.38941,0.09399 0.10742,0.06714 0.18798,0.187988 0.25512,0.349121 0.0671,0.174561 0.12085,0.41626 0.14771,0.71167 0.0268,0.308838 0.0537,0.71167 0.0537,1.195068 l 0,9.426272 2.13501,0 0,-8.660891 c 0.28198,-0.577392 0.52368,-1.060791 0.73852,-1.463623 0.21485,-0.402832 0.40284,-0.725097 0.5774,-0.966797 0.17456,-0.241699 0.33569,-0.416259 0.49682,-0.523681 0.14771,-0.107422 0.30884,-0.161133 0.49683,-0.161133 0.1477,0 0.26855,0.04028 0.37598,0.09399 0.10742,0.06714 0.18798,0.174561 0.25512,0.335693 0.0671,0.161133 0.12085,0.362549 0.14771,0.631104 0.0268,0.268555 0.0537,0.617676 0.0537,1.033935 l 0,9.681393 z"
         id="path4158"
         inkscape:connector-curvature="0" />
      <path
         d="m 225.13131,100.93363 2.09473,0 0,-13.723143 -2.06787,0.523682 c -0.51026,-0.147705 -0.98023,-0.255127 -1.42334,-0.335693 -0.45654,-0.06714 -0.89966,-0.107422 -1.3562,-0.107422 -1.15479,0 -2.14844,0.201416 -2.98096,0.577392 -0.83252,0.389405 -1.51733,0.913086 -2.05444,1.571045 -0.53711,0.657959 -0.92652,1.42334 -1.18164,2.282715 -0.25513,0.872803 -0.37598,1.785889 -0.37598,2.752686 0,0.993652 0.094,1.906738 0.28198,2.72583 0.18799,0.832519 0.4834,1.530761 0.87281,2.121582 0.3894,0.59082 0.8728,1.047366 1.46362,1.369626 0.57739,0.32227 1.26221,0.4834 2.05444,0.4834 1.74561,0 3.26294,-0.89966 4.53858,-2.712401 l 0.13427,2.470701 z m -6.95556,-6.606443 c 0,-1.678467 0.33569,-2.954102 1.03393,-3.826905 0.68482,-0.859375 1.6919,-1.30249 3.00781,-1.30249 0.51026,0 0.98023,0.05371 1.43677,0.161133 0.45655,0.107422 0.85938,0.255127 1.22193,0.41626 l 0,6.257324 c -0.7251,1.047363 -1.42334,1.826172 -2.0813,2.349853 -0.65796,0.53711 -1.27564,0.792237 -1.86646,0.792237 -0.46997,0 -0.8728,-0.107422 -1.22192,-0.335694 -0.34912,-0.214843 -0.6311,-0.537109 -0.85938,-0.953369 -0.22827,-0.41626 -0.40283,-0.926513 -0.51025,-1.530762 -0.10742,-0.59082 -0.16113,-1.275634 -0.16113,-2.027587 z"
         id="path4160"
         inkscape:connector-curvature="0" />
      <path
         d="m 231.61691,87.452187 0,13.481443 2.33642,0 0,-8.942869 c 0.42969,-0.53711 0.80567,-0.980225 1.15479,-1.342774 0.34912,-0.349121 0.67139,-0.631103 0.9668,-0.845947 0.29541,-0.214844 0.57739,-0.362549 0.84594,-0.443115 0.26856,-0.08057 0.55054,-0.134277 0.84595,-0.134277 0.77881,0 1.3562,0.255126 1.75903,0.76538 0.38941,0.510254 0.59082,1.289063 0.59082,2.336426 l 0,8.607176 2.33643,0 0,-8.795164 c 0,-1.638184 -0.36255,-2.873535 -1.07422,-3.692627 -0.71167,-0.819092 -1.75903,-1.235352 -3.14209,-1.235352 -0.40283,0 -0.77881,0.04028 -1.14136,0.12085 -0.37597,0.08057 -0.73852,0.201416 -1.08764,0.389404 -0.34912,0.187989 -0.71167,0.443116 -1.07422,0.751953 -0.37598,0.308838 -0.75195,0.698243 -1.14136,1.154786 l -0.094,-2.175293 -2.0813,0 z"
         id="path4162"
         inkscape:connector-curvature="0" />
      <path
         d="m 273.2966,100.93363 0,-17.550047 -2.22901,0 0,4.98169 0,9.399414 -1.75903,-4.014893 -4.87427,-10.366211 -3.07495,0 0,17.550047 2.229,0 0,-5.612791 0,-8.848877 1.47706,3.518066 5.11596,10.943602 3.11524,0 z"
         id="path4164"
         inkscape:connector-curvature="0" />
      <path
         d="m 288.44308,93.481239 c 0,-0.953369 -0.13428,-1.812744 -0.3894,-2.591552 -0.25513,-0.778809 -0.63111,-1.436768 -1.12793,-1.973877 -0.49683,-0.53711 -1.10108,-0.966797 -1.82617,-1.262207 -0.7251,-0.295411 -1.55762,-0.443116 -2.49756,-0.443116 -0.9668,0 -1.8396,0.187989 -2.59156,0.563965 -0.76538,0.375977 -1.40991,0.886231 -1.93359,1.530762 -0.52368,0.644531 -0.92651,1.383057 -1.19507,2.229004 -0.26855,0.845947 -0.40283,1.745605 -0.40283,2.685547 0,1.101074 0.12085,2.081299 0.37598,2.940674 0.25512,0.859375 0.64453,1.5979 1.18164,2.18872 0.53711,0.590821 1.22192,1.047361 2.05444,1.356201 0.83252,0.32227 1.82617,0.46997 2.98096,0.46997 0.85937,0 1.67846,-0.0537 2.48413,-0.16113 0.80566,-0.10742 1.51733,-0.25513 2.16186,-0.44312 l 0,-1.920163 c -0.29541,0.08057 -0.60424,0.161133 -0.93994,0.228272 -0.33569,0.06714 -0.68481,0.120849 -1.04736,0.17456 -0.37598,0.05371 -0.75195,0.107422 -1.14136,0.134277 -0.40283,0.02686 -0.79224,0.04028 -1.18164,0.04028 -1.45019,0 -2.5647,-0.362549 -3.33008,-1.101075 -0.77881,-0.738525 -1.15478,-1.799316 -1.15478,-3.182373 l 9.46655,0 c 0.0134,-0.187988 0.0269,-0.402832 0.0403,-0.631103 0,-0.214844 0.0134,-0.496826 0.0134,-0.83252 z m -2.43042,-0.335693 -7.08984,0 c 0.0403,-0.59082 0.16113,-1.141357 0.34912,-1.651611 0.18799,-0.496827 0.42969,-0.926514 0.73852,-1.289063 0.29541,-0.349121 0.65796,-0.631103 1.08765,-0.832519 0.41626,-0.187989 0.88623,-0.295411 1.39648,-0.295411 0.59082,0 1.10108,0.107422 1.55762,0.308838 0.44312,0.201416 0.81909,0.483399 1.1145,0.83252 0.29541,0.362549 0.52369,0.792236 0.67139,1.289062 0.13428,0.496827 0.20142,1.047364 0.17456,1.638184 z"
         id="path4166"
         inkscape:connector-curvature="0" />
      <path
         d="m 292.75338,87.452187 0,13.481443 2.36328,0 0,-8.660887 c 0.42969,-0.537109 0.83252,-1.00708 1.2085,-1.396484 0.37598,-0.375977 0.7251,-0.698242 1.06079,-0.939942 0.3357,-0.241699 0.65796,-0.429687 0.98023,-0.537109 0.32226,-0.107422 0.6311,-0.17456 0.95337,-0.17456 0.71167,0 1.24878,0.268554 1.62475,0.805664 0.37598,0.537109 0.55054,1.383056 0.52368,2.564697 l 2.36328,0 c 0.0537,-1.772461 -0.28198,-3.115235 -1.00708,-4.02832 -0.72509,-0.899659 -1.77246,-1.356202 -3.16894,-1.356202 -0.79224,0 -1.57105,0.214844 -2.34985,0.644532 -0.77881,0.429687 -1.55762,1.127929 -2.34986,2.081298 l -0.0671,-2.48413 -2.13501,0 z"
         id="path4168"
         inkscape:connector-curvature="0" />
      <path
         d="m 306.66452,94.474892 c 0,1.00708 0.094,1.920166 0.29541,2.739257 0.18798,0.83252 0.4834,1.530762 0.8728,2.121583 0.3894,0.59082 0.8728,1.033938 1.46362,1.356198 0.59082,0.32227 1.26221,0.4834 2.04102,0.4834 0.88623,0 1.70532,-0.22827 2.4707,-0.68481 0.75195,-0.45655 1.46362,-1.154788 2.12158,-2.108158 l 0.0806,2.551268 2.09473,0 0,-18.973387 -2.34986,0 0,5.666504 c -0.40283,-0.107422 -0.81909,-0.201416 -1.23535,-0.255127 -0.41626,-0.05371 -0.83252,-0.08057 -1.26221,-0.08057 -0.99365,0 -1.90673,0.161133 -2.7124,0.483398 -0.80566,0.322266 -1.5039,0.778809 -2.0813,1.396485 -0.57739,0.617675 -1.0205,1.369628 -1.32934,2.255859 -0.32227,0.88623 -0.46997,1.906738 -0.46997,3.048096 z m 2.39013,-0.147705 c 0,-1.745606 0.34912,-3.034668 1.06079,-3.867188 0.71167,-0.819092 1.70533,-1.235351 2.98096,-1.235351 0.45654,0 0.91309,0.05371 1.38306,0.147705 0.45654,0.09399 0.88623,0.228271 1.27563,0.402832 l 0,6.257324 c -0.7251,1.047363 -1.42334,1.826172 -2.0813,2.349853 -0.65796,0.53711 -1.27563,0.792237 -1.86645,0.792237 -0.88623,0 -1.55762,-0.389405 -2.04102,-1.195069 -0.4834,-0.805664 -0.71167,-2.01416 -0.71167,-3.652343 z"
         id="path4170"
         inkscape:connector-curvature="0" />
      <path
         d="m 348.14279,85.424599 0,-2.041016 -9.89624,0 0,17.550047 2.44385,0 0,-7.81494 7.06298,0 0,-2.000732 -7.06298,0 0,-5.693359 7.45239,0 z"
         id="path4172"
         inkscape:connector-curvature="0" />
      <path
         d="m 364.52462,94.085487 c 0,-1.101074 -0.1477,-2.094726 -0.42968,-2.954101 -0.28199,-0.859375 -0.68482,-1.571045 -1.22193,-2.148438 -0.53711,-0.577392 -1.18164,-1.020508 -1.94702,-1.315918 -0.76538,-0.29541 -1.62475,-0.456543 -2.59155,-0.456543 -1.02051,0 -1.92017,0.174561 -2.7124,0.523682 -0.80567,0.349121 -1.47705,0.83252 -2.02759,1.450195 -0.56397,0.617676 -0.98023,1.369629 -1.27564,2.229004 -0.29541,0.859375 -0.44311,1.812744 -0.44311,2.860108 0,1.127929 0.13428,2.108154 0.41626,2.967529 0.28198,0.859375 0.68481,1.584473 1.22192,2.161865 0.53711,0.59082 1.18164,1.03394 1.94702,1.32935 0.76538,0.29541 1.63819,0.44311 2.60498,0.44311 1.00708,0 1.90674,-0.16113 2.71241,-0.51025 0.79223,-0.34912 1.46362,-0.832522 2.02758,-1.450198 0.55054,-0.617676 0.98023,-1.369629 1.27564,-2.242432 0.29541,-0.872802 0.44311,-1.839599 0.44311,-2.886963 z m -2.39013,0.107422 c 0,0.671387 -0.0806,1.315918 -0.22827,1.920166 -0.14771,0.604248 -0.37598,1.12793 -0.69825,1.584473 -0.32226,0.456543 -0.72509,0.832519 -1.22192,1.101074 -0.49683,0.268555 -1.08765,0.402832 -1.78589,0.402832 -0.61767,0 -1.15478,-0.09399 -1.63818,-0.308838 -0.4834,-0.214843 -0.89966,-0.523681 -1.23535,-0.939941 -0.34913,-0.41626 -0.60425,-0.939942 -0.79224,-1.571045 -0.18799,-0.617676 -0.26856,-1.356201 -0.26856,-2.188721 0,-0.657959 0.0671,-1.289062 0.21485,-1.89331 0.1477,-0.604248 0.37598,-1.141358 0.69824,-1.597901 0.32227,-0.456543 0.7251,-0.819091 1.22192,-1.087646 0.49683,-0.268555 1.10108,-0.41626 1.79932,-0.41626 0.59082,0 1.14136,0.107422 1.62476,0.322266 0.4834,0.214843 0.89966,0.523681 1.24878,0.939941 0.33569,0.41626 0.59082,0.939941 0.7788,1.557617 0.18799,0.617676 0.28199,1.342774 0.28199,2.175293 z"
         id="path4174"
         inkscape:connector-curvature="0" />
      <path
         d="m 367.93527,87.452187 0,13.481443 2.33642,0 0,-8.942869 c 0.42969,-0.53711 0.80567,-0.980225 1.15479,-1.342774 0.34912,-0.349121 0.67139,-0.631103 0.9668,-0.845947 0.29541,-0.214844 0.57739,-0.362549 0.84594,-0.443115 0.26856,-0.08057 0.55054,-0.134277 0.84595,-0.134277 0.77881,0 1.3562,0.255126 1.75903,0.76538 0.38941,0.510254 0.59082,1.289063 0.59082,2.336426 l 0,8.607176 2.33643,0 0,-8.795164 c 0,-1.638184 -0.36255,-2.873535 -1.07422,-3.692627 -0.71167,-0.819092 -1.75903,-1.235352 -3.14209,-1.235352 -0.40283,0 -0.77881,0.04028 -1.14136,0.12085 -0.37597,0.08057 -0.73852,0.201416 -1.08764,0.389404 -0.34912,0.187989 -0.71167,0.443116 -1.07422,0.751953 -0.37598,0.308838 -0.75195,0.698243 -1.14136,1.154786 l -0.094,-2.175293 -2.0813,0 z"
         id="path4176"
         inkscape:connector-curvature="0" />
      <path
         d="m 393.94479,100.74564 0,-2.014157 c -0.56396,0.147706 -1.08765,0.255127 -1.5979,0.322266 -0.51025,0.06714 -0.98023,0.09399 -1.40991,0.09399 -1.00708,0 -1.77246,-0.228271 -2.28272,-0.71167 -0.51025,-0.483398 -0.76538,-1.208496 -0.76538,-2.175293 l 0,-6.848144 6.05591,0 0,-1.960449 -6.05591,0 0,-4.310303 -2.33642,0.604248 0,3.706055 -3.7732,0 0,1.960449 3.7732,0 0,7.036133 c 0,1.584472 0.41626,2.766113 1.24878,3.531494 0.83251,0.765381 2.09472,1.141361 3.78662,1.141361 0.57739,0 1.15478,-0.0269 1.71875,-0.0806 0.56396,-0.0537 1.10107,-0.16113 1.63818,-0.29541 z"
         id="path4178"
         inkscape:connector-curvature="0" />
    </g>
    <g
       style="font-style:normal;font-weight:normal;font-size:27.5px;line-height:125%;font-family:'CodeNewRoman Nerd Font';letter-spacing:0px;word-spacing:0px;fill:#ffffff;fill-opacity:1;stroke:none;stroke-width:1px;stroke-linecap:butt;stroke-linejoin:miter;stroke-opacity:1"
       id="text4140">
      <path
         d="m 72.298065,140.93362 1.333008,0 0,-8.73291 -1.315918,0.33326 c -0.324707,-0.094 -0.623779,-0.16236 -0.905762,-0.21363 -0.290527,-0.0427 -0.572509,-0.0684 -0.863037,-0.0684 -0.734863,0 -1.367187,0.12818 -1.896972,0.36744 -0.529786,0.2478 -0.965577,0.58105 -1.307374,0.99975 -0.341796,0.4187 -0.589599,0.90576 -0.751953,1.45264 -0.162353,0.55542 -0.239257,1.13647 -0.239257,1.75171 0,0.63232 0.05981,1.21338 0.179443,1.73462 0.119629,0.52978 0.307617,0.97412 0.55542,1.35009 0.247803,0.37598 0.55542,0.66651 0.931396,0.87159 0.367432,0.20507 0.803223,0.30761 1.307373,0.30761 1.11084,0 2.076416,-0.57251 2.888184,-1.72607 l 0.08545,1.57226 z m -4.426269,-4.2041 c 0,-1.06811 0.213623,-1.87988 0.657959,-2.4353 0.435791,-0.54688 1.07666,-0.82886 1.914062,-0.82886 0.324707,0 0.623779,0.0342 0.914307,0.10254 0.290527,0.0684 0.546875,0.16236 0.777588,0.26489 l 0,3.98194 c -0.461426,0.6665 -0.905762,1.16211 -1.324463,1.49536 -0.418701,0.3418 -0.811768,0.50415 -1.187744,0.50415 -0.299073,0 -0.55542,-0.0684 -0.777588,-0.21362 -0.222168,-0.13672 -0.401612,-0.3418 -0.546875,-0.60669 -0.145264,-0.2649 -0.256348,-0.5896 -0.324707,-0.97412 -0.06836,-0.37598 -0.102539,-0.81177 -0.102539,-1.29029 z"
         style="font-size:17.5px"
         id="path4181"
         inkscape:connector-curvature="0" />
      <path
         d="m 83.756805,136.49026 c 0,-0.64941 -0.06836,-1.23046 -0.187988,-1.76025 -0.128174,-0.52978 -0.316162,-0.97412 -0.563965,-1.3501 -0.256347,-0.37597 -0.563965,-0.6665 -0.931396,-0.87158 -0.375977,-0.20508 -0.803223,-0.30762 -1.290283,-0.30762 -0.563965,0 -1.085205,0.11963 -1.572266,0.35889 -0.487061,0.23926 -0.939941,0.64087 -1.367188,1.21338 l 0.06836,-1.58936 0,-3.32397 -1.486817,0 0,11.56982 c 0.512696,0.21363 1.042481,0.36744 1.572266,0.46143 0.529785,0.10254 1.042481,0.14526 1.555176,0.14526 0.649414,0 1.230469,-0.10254 1.751709,-0.30761 0.512695,-0.20508 0.957031,-0.50415 1.315918,-0.89722 0.358887,-0.39307 0.640869,-0.86304 0.837402,-1.427 0.196533,-0.56397 0.299072,-1.19629 0.299072,-1.91407 z m -1.520996,0.0684 c 0,0.62378 -0.0769,1.14502 -0.213623,1.56372 -0.136718,0.41871 -0.324707,0.75196 -0.563965,1.00831 -0.239257,0.25634 -0.512695,0.43579 -0.820312,0.53833 -0.307617,0.11108 -0.632324,0.16235 -0.974121,0.16235 -0.273438,0 -0.563965,-0.0256 -0.863037,-0.094 -0.307617,-0.0684 -0.598145,-0.15381 -0.888672,-0.27344 l 0,-4.16138 c 0.256348,-0.3418 0.50415,-0.62378 0.734863,-0.85449 0.230713,-0.23071 0.452881,-0.4187 0.657959,-0.55542 0.205078,-0.13672 0.410156,-0.23926 0.60669,-0.29907 0.187988,-0.0598 0.384521,-0.094 0.572509,-0.094 0.307618,0 0.57251,0.0769 0.794678,0.23072 0.222168,0.1538 0.401611,0.35888 0.546875,0.62377 0.136719,0.27344 0.239258,0.5896 0.307617,0.96558 0.06836,0.37598 0.102539,0.79468 0.102539,1.23901 z"
         style="font-size:17.5px"
         id="path4183"
         inkscape:connector-curvature="0" />
      <path
         d="m 92.728973,140.61746 0,-1.38428 c -0.358886,0.18799 -0.726318,0.32471 -1.102295,0.41016 -0.375976,0.094 -0.769043,0.13672 -1.170654,0.13672 -0.897217,0 -1.5979,-0.25635 -2.102051,-0.76904 -0.50415,-0.5127 -0.751953,-1.29029 -0.751953,-2.33277 0,-0.4956 0.06836,-0.93994 0.222168,-1.333 0.145264,-0.39307 0.350342,-0.72632 0.60669,-0.99976 0.256347,-0.27344 0.546875,-0.47852 0.888672,-0.62378 0.341796,-0.14526 0.700683,-0.22217 1.085205,-0.22217 0.410156,0 0.803222,0.0513 1.187744,0.13672 0.384521,0.0855 0.760498,0.23071 1.136474,0.4187 l 0,-1.41845 c -0.358886,-0.13672 -0.726318,-0.23926 -1.110839,-0.30762 -0.393067,-0.0598 -0.803223,-0.094 -1.247559,-0.094 -0.640869,0 -1.221924,0.11109 -1.751709,0.32471 -0.529785,0.21362 -0.991211,0.5127 -1.367188,0.90576 -0.384521,0.39307 -0.683593,0.87158 -0.888671,1.41846 -0.213623,0.55542 -0.316163,1.17065 -0.316163,1.8457 0,1.41846 0.358887,2.48657 1.09375,3.22144 0.734864,0.73486 1.777344,1.10229 3.135987,1.10229 0.427246,0 0.845947,-0.0342 1.256103,-0.10254 0.410157,-0.0684 0.803223,-0.17944 1.196289,-0.33325 z"
         style="font-size:17.5px"
         id="path4185"
         inkscape:connector-curvature="0" />
      <path
         d="m 95.266815,136.82352 c 0,0.64087 0.05982,1.22192 0.187988,1.74316 0.119629,0.52979 0.307618,0.97412 0.55542,1.3501 0.247803,0.37598 0.55542,0.65796 0.931397,0.86304 0.375976,0.20507 0.803223,0.30761 1.298828,0.30761 0.563965,0 1.085205,-0.14526 1.572266,-0.43579 0.478516,-0.29053 0.931396,-0.73486 1.350096,-1.34155 l 0.0513,1.62353 1.33301,0 0,-12.07397 -1.49536,0 0,3.60596 c -0.25635,-0.0684 -0.52124,-0.12818 -0.78614,-0.16236 -0.26489,-0.0342 -0.529781,-0.0513 -0.803218,-0.0513 -0.632324,0 -1.213379,0.10254 -1.726074,0.30762 -0.512696,0.20508 -0.957032,0.49561 -1.324463,0.88867 -0.367432,0.39307 -0.649414,0.87158 -0.845948,1.43555 -0.205078,0.56396 -0.299072,1.21338 -0.299072,1.9397 z m 1.520996,-0.094 c 0,-1.11084 0.222168,-1.93115 0.675049,-2.46093 0.452881,-0.52125 1.085205,-0.78614 1.896973,-0.78614 0.290527,0 0.581054,0.0342 0.880127,0.094 0.29053,0.0598 0.56396,0.14526 0.81177,0.25634 l 0,3.98194 c -0.46143,0.6665 -0.90576,1.16211 -1.324466,1.49536 -0.418701,0.3418 -0.811767,0.50415 -1.187744,0.50415 -0.563965,0 -0.991211,-0.2478 -1.298828,-0.7605 -0.307617,-0.51269 -0.452881,-1.28174 -0.452881,-2.32422 z"
         style="font-size:17.5px"
         id="path4187"
         inkscape:connector-curvature="0" />
      <path
         d="m 112.58737,136.19119 c 0,-0.60669 -0.0855,-1.15356 -0.2478,-1.64917 -0.16235,-0.4956 -0.40161,-0.9143 -0.71777,-1.2561 -0.31617,-0.3418 -0.70069,-0.61524 -1.16211,-0.80322 -0.46143,-0.18799 -0.99121,-0.28199 -1.58936,-0.28199 -0.61523,0 -1.17065,0.11963 -1.64917,0.35889 -0.48706,0.23926 -0.89722,0.56397 -1.23047,0.97412 -0.33325,0.41016 -0.5896,0.88013 -0.7605,1.41846 -0.17089,0.53833 -0.25634,1.11084 -0.25634,1.70898 0,0.70069 0.0769,1.32447 0.23925,1.87134 0.16236,0.54688 0.41016,1.01685 0.75196,1.39282 0.34179,0.37598 0.77759,0.66651 1.30737,0.86304 0.52979,0.20508 1.16211,0.29907 1.89697,0.29907 0.54688,0 1.06812,-0.0342 1.58081,-0.10254 0.5127,-0.0684 0.96558,-0.16235 1.37574,-0.28198 l 0,-1.22192 c -0.18799,0.0513 -0.38453,0.10254 -0.59815,0.14526 -0.21362,0.0427 -0.43579,0.0769 -0.6665,0.11109 -0.23926,0.0342 -0.47852,0.0684 -0.72632,0.0854 -0.25635,0.0171 -0.50415,0.0256 -0.75195,0.0256 -0.92286,0 -1.63208,-0.23071 -2.11914,-0.70068 -0.49561,-0.46998 -0.73487,-1.14502 -0.73487,-2.02515 l 6.02417,0 c 0.009,-0.11963 0.0171,-0.25635 0.0256,-0.40161 0,-0.13672 0.009,-0.31616 0.009,-0.52979 z m -1.54663,-0.21362 -4.51172,0 c 0.0256,-0.37598 0.10254,-0.72632 0.22217,-1.05103 0.11963,-0.31616 0.27344,-0.5896 0.46997,-0.82031 0.18799,-0.22217 0.4187,-0.40161 0.69214,-0.52978 0.26489,-0.11963 0.56396,-0.18799 0.88867,-0.18799 0.37598,0 0.70069,0.0684 0.99121,0.19653 0.28198,0.12818 0.52124,0.30762 0.70923,0.52979 0.18799,0.23071 0.33325,0.50415 0.42725,0.82031 0.0855,0.31616 0.12817,0.6665 0.11108,1.04248 z"
         style="font-size:17.5px"
         id="path4189"
         inkscape:connector-curvature="0" />
      <path
         d="m 122.59348,130.24393 0,-1.28174 c -0.71778,-0.13672 -1.37574,-0.20508 -1.96534,-0.20508 -2.38403,0 -3.57177,1.14502 -3.57177,3.42651 l 0,1.41846 -2.76001,0 0,1.23901 2.76001,0 0,6.09253 1.51245,0 0,-6.09253 3.75976,0 0,-1.23901 -3.75976,0 0,-1.5039 c 0,-1.40137 0.6665,-2.10206 2.00805,-2.10206 0.56397,0 1.23047,0.0855 2.01661,0.24781 z"
         style="font-size:17.5px"
         id="path4191"
         inkscape:connector-curvature="0" />
      <path
         d="m 125.70383,136.72952 c 0,-1.06811 0.21362,-1.87988 0.65796,-2.4353 0.43579,-0.54688 1.07666,-0.82886 1.91406,-0.82886 0.32471,0 0.62378,0.0342 0.91431,0.10254 0.29052,0.0684 0.54687,0.16236 0.77758,0.26489 l 0,3.98194 c -0.46142,0.6665 -0.90576,1.16211 -1.32446,1.49536 -0.4187,0.3418 -0.81177,0.50415 -1.18774,0.50415 -0.29908,0 -0.55542,-0.0684 -0.77759,-0.21362 -0.22217,-0.13672 -0.40161,-0.3418 -0.54688,-0.60669 -0.14526,-0.2649 -0.25634,-0.5896 -0.3247,-0.97412 -0.0684,-0.37598 -0.10254,-0.81177 -0.10254,-1.29029 z m -0.78614,5.40039 -0.80322,0.88013 c 0.23926,0.39307 0.52124,0.69214 0.8374,0.88867 0.30762,0.19654 0.70923,0.35034 1.19629,0.46143 0.48706,0.11108 1.07666,0.16235 1.77735,0.16235 0.72631,0 1.30737,-0.0855 1.75171,-0.25635 0.44433,-0.17089 0.8374,-0.46997 1.18774,-0.9143 0.3418,-0.44434 0.54687,-1.15357 0.59814,-2.14478 l 0,-9.00635 -1.31591,0.33326 c -0.32471,-0.094 -0.62378,-0.16236 -0.90577,-0.21363 -0.29052,-0.0427 -0.57251,-0.0684 -0.86303,-0.0684 -0.73487,0 -1.36719,0.12818 -1.89698,0.36744 -0.52978,0.2478 -0.96557,0.58105 -1.30737,0.99975 -0.3418,0.4187 -0.5896,0.90576 -0.75195,1.45264 -0.16235,0.55542 -0.23926,1.13647 -0.23926,1.75171 0,0.63232 0.0598,1.21338 0.17944,1.73462 0.11963,0.52978 0.30762,0.97412 0.55542,1.35009 0.24781,0.37598 0.55542,0.66651 0.9314,0.87159 0.36743,0.20507 0.80322,0.30761 1.30737,0.30761 1.11084,0 2.05078,-0.54687 2.80274,-1.64062 l 0,1.64062 c -0.0513,0.65796 -0.22217,1.1792 -0.5127,1.55518 -0.29052,0.37598 -0.7605,0.60669 -1.41845,0.69214 -0.75196,0 -1.3501,-0.0855 -1.79444,-0.27344 -0.34179,-0.094 -0.61523,-0.2478 -0.8374,-0.45288 l -0.47852,-0.47852 z"
         style="font-size:17.5px"
         id="path4193"
         inkscape:connector-curvature="0" />
      <path
         d="m 141.08469,140.93362 0,-5.59692 c 0,-1.04248 -0.23926,-1.82861 -0.70069,-2.34985 -0.46997,-0.52124 -1.12793,-0.78614 -1.98242,-0.78614 -0.25635,0 -0.4956,0.0256 -0.72632,0.0769 -0.23926,0.0513 -0.46997,0.13672 -0.69214,0.25635 -0.22216,0.11962 -0.45288,0.28198 -0.67505,0.46997 -0.22216,0.18799 -0.45288,0.42724 -0.68359,0.70068 l 0.0513,-1.3501 0,-3.49487 -1.48682,0 0,12.07397 1.48682,0 0,-5.69091 c 0.29053,-0.3418 0.54688,-0.62378 0.76904,-0.8545 0.22217,-0.22216 0.42725,-0.40161 0.61524,-0.53833 0.18799,-0.13671 0.36743,-0.23071 0.53833,-0.28198 0.1709,-0.0513 0.35888,-0.0855 0.56396,-0.0855 0.46143,0 0.81177,0.1709 1.05957,0.49561 0.24781,0.3247 0.37598,0.82031 0.37598,1.47827 l 0,5.47729 1.48682,0 z"
         style="font-size:17.5px"
         id="path4195"
         inkscape:connector-curvature="0" />
      <path
         d="m 147.27121,128.75711 c -0.1709,0 -0.32471,0.0342 -0.46143,0.094 -0.14526,0.0598 -0.27343,0.14527 -0.37597,0.24781 -0.10254,0.11108 -0.18799,0.23926 -0.24781,0.37597 -0.0598,0.13672 -0.0854,0.29053 -0.0854,0.45288 0,0.16236 0.0256,0.31617 0.0854,0.45289 0.0598,0.14526 0.14527,0.27343 0.24781,0.37597 0.10254,0.11109 0.23071,0.19654 0.37597,0.25635 0.13672,0.0598 0.29053,0.0855 0.46143,0.0855 0.16235,0 0.31616,-0.0256 0.46143,-0.0855 0.13671,-0.0598 0.26489,-0.14526 0.36743,-0.25635 0.10254,-0.10254 0.18799,-0.23071 0.2478,-0.37597 0.0598,-0.13672 0.094,-0.29053 0.094,-0.45289 0,-0.16235 -0.0342,-0.31616 -0.094,-0.45288 -0.0598,-0.13671 -0.14526,-0.26489 -0.2478,-0.37597 -0.10254,-0.10254 -0.23072,-0.18799 -0.36743,-0.24781 -0.14527,-0.0598 -0.29908,-0.094 -0.46143,-0.094 z m 0.98267,3.59741 -4.04175,0 0,1.23047 2.53784,0 0,5.7251 c 0,0.50415 0.14526,0.89722 0.43579,1.18774 0.29053,0.29053 0.70068,0.43579 1.23047,0.43579 l 2.39258,0 0,-1.23901 -2.03369,0 c -0.0854,0 -0.16236,0 -0.23072,-0.009 -0.0684,-0.009 -0.11963,-0.0427 -0.16235,-0.094 -0.0427,-0.0513 -0.0769,-0.13672 -0.094,-0.25635 -0.0256,-0.11963 -0.0342,-0.29052 -0.0342,-0.51269 l 0,-6.46851 z"
         style="font-size:17.5px"
         id="path4197"
         inkscape:connector-curvature="0" />
      <path
         d="m 159.27682,132.35452 -5.708,0 0,1.23047 4.2041,0 0,7.2461 c 0,0.80322 -0.18799,1.40136 -0.55542,1.81152 -0.37598,0.41015 -0.88013,0.61523 -1.52954,0.61523 -0.20508,0 -0.4187,-0.009 -0.63233,-0.0342 -0.22216,-0.0256 -0.43579,-0.0684 -0.64941,-0.11963 -0.21362,-0.0513 -0.4187,-0.11108 -0.62378,-0.18798 -0.20508,-0.0684 -0.39307,-0.15381 -0.56396,-0.24781 l 0,1.41846 c 0.3247,0.13672 0.68359,0.2478 1.0852,0.32471 0.40161,0.0769 0.81177,0.11108 1.23901,0.11108 0.58106,0 1.1023,-0.0769 1.56372,-0.2478 0.46143,-0.16235 0.8545,-0.40161 1.1792,-0.72632 0.31617,-0.31616 0.56397,-0.70923 0.73487,-1.17065 0.1709,-0.46143 0.25634,-0.99976 0.25634,-1.5979 l 0,-8.4253 z m -0.89721,-3.59741 c -0.1709,0 -0.32471,0.0342 -0.46143,0.094 -0.14526,0.0598 -0.27344,0.14527 -0.37597,0.24781 -0.10254,0.11108 -0.18799,0.23926 -0.24781,0.37597 -0.0598,0.14527 -0.0855,0.29908 -0.0855,0.45288 0,0.1709 0.0256,0.32471 0.0855,0.46143 0.0598,0.13672 0.14527,0.26489 0.24781,0.36743 0.10253,0.11109 0.23071,0.19654 0.37597,0.25635 0.13672,0.0598 0.29053,0.0855 0.46143,0.0855 0.16235,0 0.31616,-0.0256 0.46142,-0.0855 0.13672,-0.0598 0.2649,-0.14526 0.36744,-0.25635 0.10253,-0.10254 0.18798,-0.23071 0.2478,-0.36743 0.0598,-0.13672 0.094,-0.29053 0.094,-0.46143 0,-0.1538 -0.0342,-0.30761 -0.094,-0.45288 -0.0598,-0.13671 -0.14527,-0.26489 -0.2478,-0.37597 -0.10254,-0.10254 -0.23072,-0.18799 -0.36744,-0.24781 -0.14526,-0.0598 -0.29907,-0.094 -0.46142,-0.094 z"
         style="font-size:17.5px"
         id="path4199"
         inkscape:connector-curvature="0" />
      <path
         d="m 170.82101,140.93362 -4.24682,-4.6228 4.02466,-3.9563 -1.96534,0 -3.85376,3.92212 0,-7.41699 -1.48681,0 0,12.07397 1.48681,0 0,-4.59716 3.99903,4.59716 2.04223,0 z"
         style="font-size:17.5px"
         id="path4201"
         inkscape:connector-curvature="0" />
      <path
         d="m 177.33224,140.93362 2.39258,0 0,-1.23901 -2.03369,0 c -0.0854,0 -0.16235,0 -0.23071,-0.009 -0.0684,-0.009 -0.11963,-0.0427 -0.16235,-0.094 -0.0427,-0.0513 -0.0769,-0.13672 -0.094,-0.25635 -0.0256,-0.11963 -0.0342,-0.29052 -0.0342,-0.51269 l 0,-9.96338 -4.04175,0 0,1.22192 2.53785,0 0,9.22852 c 0,0.50415 0.14526,0.89722 0.43579,1.18774 0.29052,0.29053 0.70068,0.43579 1.23046,0.43579 z"
         style="font-size:17.5px"
         id="path4203"
         inkscape:connector-curvature="0" />
      <path
         d="m 188.50046,140.93362 1.36719,0 0,-6.24633 c 0,-1.65772 -0.53833,-2.48658 -1.61499,-2.48658 -0.23926,0 -0.45289,0.0427 -0.63233,0.12818 -0.18799,0.0855 -0.35034,0.20508 -0.50415,0.35888 -0.15381,0.15381 -0.29053,0.35035 -0.4187,0.58106 -0.13672,0.23071 -0.26489,0.4956 -0.40161,0.78613 0,-0.63232 -0.11963,-1.09375 -0.35889,-1.40137 -0.23926,-0.29907 -0.5896,-0.45288 -1.05102,-0.45288 -0.20508,0 -0.39307,0.0342 -0.56397,0.10254 -0.1709,0.0684 -0.32471,0.1709 -0.46997,0.30762 -0.15381,0.13672 -0.29907,0.32471 -0.43579,0.54688 -0.13672,0.23071 -0.28198,0.50415 -0.42725,0.82885 l -0.0684,-1.63208 -1.13647,0 0,8.5791 1.36719,0 0,-5.51147 c 0.18798,-0.39307 0.35034,-0.72632 0.48706,-0.98267 0.13672,-0.25634 0.25634,-0.45288 0.36743,-0.60669 0.11108,-0.14526 0.21362,-0.2478 0.30762,-0.30761 0.0855,-0.0513 0.18798,-0.0855 0.29052,-0.0855 0.094,0 0.17945,0.0256 0.24781,0.0598 0.0684,0.0427 0.11963,0.11963 0.16235,0.22217 0.0427,0.11108 0.0769,0.26489 0.094,0.45288 0.0171,0.19653 0.0342,0.45288 0.0342,0.7605 l 0,5.99853 1.35865,0 0,-5.51147 c 0.17944,-0.36743 0.33325,-0.67505 0.46997,-0.9314 0.13672,-0.25634 0.25634,-0.46142 0.36743,-0.61523 0.11108,-0.15381 0.21362,-0.26489 0.31616,-0.33325 0.094,-0.0684 0.19653,-0.10254 0.31616,-0.10254 0.094,0 0.1709,0.0256 0.23926,0.0598 0.0684,0.0427 0.11963,0.11109 0.16235,0.21363 0.0427,0.10253 0.0769,0.23071 0.094,0.40161 0.0171,0.1709 0.0342,0.39306 0.0342,0.65796 l 0,6.16088 z"
         style="font-size:17.5px"
         id="path4205"
         inkscape:connector-curvature="0" />
      <path
         d="m 192.02097,132.35452 0,8.5791 1.48681,0 0,-5.69091 c 0.27344,-0.3418 0.5127,-0.62378 0.73487,-0.8545 0.22216,-0.22216 0.42724,-0.40161 0.61523,-0.53833 0.18799,-0.13671 0.36743,-0.23071 0.53833,-0.28198 0.1709,-0.0513 0.35034,-0.0855 0.53833,-0.0855 0.49561,0 0.86304,0.16236 1.11938,0.48706 0.24781,0.32471 0.37598,0.82032 0.37598,1.48682 l 0,5.47729 1.48682,0 0,-5.59692 c 0,-1.04248 -0.23072,-1.82861 -0.6836,-2.34985 -0.45288,-0.52124 -1.11938,-0.78614 -1.99951,-0.78614 -0.25635,0 -0.4956,0.0256 -0.72632,0.0769 -0.23925,0.0513 -0.46997,0.12817 -0.69213,0.2478 -0.22217,0.11963 -0.45289,0.28198 -0.6836,0.47852 -0.23926,0.19653 -0.47851,0.44433 -0.72632,0.73486 l -0.0598,-1.38428 -1.32446,0 z"
         style="font-size:17.5px"
         id="path4207"
         inkscape:connector-curvature="0" />
      <path
         d="m 209.1279,136.57571 c 0,-0.70068 -0.094,-1.333 -0.27344,-1.87988 -0.17944,-0.54687 -0.43579,-0.99975 -0.77759,-1.36719 -0.34179,-0.36743 -0.75195,-0.64941 -1.23901,-0.8374 -0.48706,-0.18799 -1.03394,-0.29053 -1.64917,-0.29053 -0.64941,0 -1.22192,0.11109 -1.72607,0.33326 -0.5127,0.22216 -0.93995,0.52978 -1.29029,0.92285 -0.35888,0.39306 -0.62378,0.87158 -0.81176,1.41845 -0.18799,0.54688 -0.28199,1.15357 -0.28199,1.82007 0,0.71778 0.0855,1.34156 0.2649,1.88843 0.17944,0.54688 0.43579,1.0083 0.77758,1.37573 0.3418,0.37598 0.75196,0.65796 1.23902,0.84595 0.48706,0.18799 1.04248,0.28198 1.65771,0.28198 0.64087,0 1.21338,-0.10254 1.72608,-0.3247 0.50415,-0.22217 0.93139,-0.52979 1.29028,-0.92286 0.35034,-0.39306 0.62378,-0.87158 0.81177,-1.427 0.18799,-0.55542 0.28198,-1.17065 0.28198,-1.83716 z m -1.521,0.0684 c 0,0.42725 -0.0513,0.83741 -0.14526,1.22193 -0.094,0.38452 -0.23926,0.71777 -0.44434,1.0083 -0.20507,0.29053 -0.46142,0.52978 -0.77758,0.70068 -0.31617,0.1709 -0.69214,0.25635 -1.13648,0.25635 -0.39307,0 -0.73486,-0.0598 -1.04248,-0.19653 -0.30762,-0.13672 -0.57251,-0.33326 -0.78613,-0.59815 -0.22217,-0.26489 -0.38452,-0.59814 -0.50415,-0.99975 -0.11963,-0.39307 -0.1709,-0.86304 -0.1709,-1.39283 0,-0.4187 0.0427,-0.82031 0.13672,-1.20483 0.094,-0.38452 0.23926,-0.72632 0.44433,-1.01685 0.20508,-0.29052 0.46143,-0.52124 0.77759,-0.69213 0.31616,-0.1709 0.70069,-0.2649 1.14502,-0.2649 0.37598,0 0.72632,0.0684 1.03394,0.20508 0.30761,0.13672 0.57251,0.33325 0.79467,0.59815 0.21363,0.26489 0.37598,0.59814 0.49561,0.99121 0.11963,0.39306 0.17944,0.85449 0.17944,1.38427 z"
         style="font-size:17.5px"
         id="path4209"
         inkscape:connector-curvature="0" />
      <path
         d="m 218.62985,136.49026 c 0,-0.64941 -0.0684,-1.23046 -0.18799,-1.76025 -0.12817,-0.52978 -0.31616,-0.97412 -0.56396,-1.3501 -0.25635,-0.37597 -0.56397,-0.6665 -0.9314,-0.87158 -0.37597,-0.20508 -0.80322,-0.30762 -1.29028,-0.30762 -0.56397,0 -1.09375,0.11963 -1.57227,0.35889 -0.48706,0.23926 -0.93994,0.64941 -1.36718,1.23047 l -0.094,-1.43555 -1.32446,0 0,12.08252 1.48682,0 0,-3.58886 c 0.27343,0.0683 0.54687,0.11962 0.82031,0.14526 0.27344,0.0342 0.54687,0.0427 0.82031,0.0427 0.59815,0 1.15357,-0.094 1.66626,-0.28198 0.5127,-0.18799 0.95703,-0.46997 1.33301,-0.84595 0.37597,-0.37597 0.6665,-0.84594 0.88013,-1.41845 0.21362,-0.56397 0.3247,-1.23047 0.3247,-1.99952 z m -1.52099,0.0684 c 0,1.09375 -0.23072,1.91407 -0.6836,2.46094 -0.46142,0.54688 -1.0852,0.81177 -1.88843,0.81177 -0.29052,0 -0.58959,-0.0256 -0.88867,-0.094 -0.30761,-0.0684 -0.5896,-0.15381 -0.86303,-0.27344 l 0,-4.16138 c 0.25634,-0.3418 0.50415,-0.62378 0.73486,-0.85449 0.23071,-0.23071 0.45288,-0.4187 0.65796,-0.55542 0.20508,-0.13672 0.41015,-0.23926 0.60669,-0.29907 0.18799,-0.0598 0.38452,-0.094 0.57251,-0.094 0.30761,0 0.57251,0.0769 0.79467,0.23072 0.22217,0.1538 0.40162,0.35888 0.54688,0.62377 0.13672,0.27344 0.23926,0.5896 0.30762,0.96558 0.0684,0.37598 0.10254,0.79468 0.10254,1.23901 z"
         style="font-size:17.5px"
         id="path4211"
         inkscape:connector-curvature="0" />
      <path
         d="m 220.50119,136.82352 c 0,0.63232 0.0598,1.21338 0.17944,1.73462 0.11963,0.52978 0.30762,0.97412 0.55542,1.35009 0.24781,0.37598 0.55542,0.66651 0.9314,0.87159 0.36743,0.20507 0.80322,0.30761 1.30737,0.30761 1.11084,0 2.07642,-0.57251 2.88819,-1.72607 l -0.0769,1.83716 0,3.23852 1.49536,0 0,-12.23633 -1.31591,0.33326 c -0.32471,-0.094 -0.62378,-0.16236 -0.90577,-0.21363 -0.29052,-0.0427 -0.57251,-0.0684 -0.86303,-0.0684 -0.73487,0 -1.36719,0.12818 -1.89698,0.36744 -0.52978,0.2478 -0.96557,0.58105 -1.30737,0.99975 -0.3418,0.4187 -0.5896,0.90576 -0.75195,1.45264 -0.16236,0.55542 -0.23926,1.13647 -0.23926,1.75171 z m 1.521,-0.094 c 0,-1.06811 0.21362,-1.87988 0.65796,-2.4353 0.43579,-0.54688 1.07666,-0.82886 1.91406,-0.82886 0.3247,0 0.62378,0.0342 0.9143,0.10254 0.29053,0.0684 0.54688,0.16236 0.77759,0.26489 l 0,3.98194 c -0.46142,0.6665 -0.90576,1.16211 -1.32446,1.49536 -0.4187,0.3418 -0.81177,0.50415 -1.18774,0.50415 -0.29908,0 -0.55542,-0.0684 -0.77759,-0.21362 -0.22217,-0.13672 -0.40161,-0.3418 -0.54688,-0.60669 -0.14526,-0.2649 -0.25635,-0.5896 -0.3247,-0.97412 -0.0684,-0.37598 -0.10254,-0.81177 -0.10254,-1.29029 z"
         style="font-size:17.5px"
         id="path4213"
         inkscape:connector-curvature="0" />
      <path
         d="m 230.92599,132.35452 0,8.5791 1.50391,0 0,-5.51147 c 0.27344,-0.3418 0.52979,-0.64087 0.76904,-0.88867 0.23926,-0.23926 0.46143,-0.44434 0.67505,-0.59815 0.21363,-0.15381 0.4187,-0.27343 0.62378,-0.34179 0.20508,-0.0684 0.40161,-0.11109 0.60669,-0.11109 0.45288,0 0.79468,0.1709 1.03394,0.5127 0.23926,0.34179 0.35034,0.88012 0.33325,1.63208 l 1.50391,0 c 0.0342,-1.12793 -0.17945,-1.98242 -0.64087,-2.56348 -0.46143,-0.57251 -1.12793,-0.86304 -2.01661,-0.86304 -0.50415,0 -0.99975,0.13672 -1.49536,0.41016 -0.4956,0.27344 -0.99121,0.71777 -1.49536,1.32446 l -0.0427,-1.58081 -1.35865,0 z"
         style="font-size:17.5px"
         id="path4215"
         inkscape:connector-curvature="0" />
      <path
         d="m 247.00754,138.59232 c 0,-0.31617 -0.0513,-0.59815 -0.14527,-0.8545 -0.094,-0.2478 -0.2478,-0.46997 -0.46142,-0.67505 -0.22217,-0.19653 -0.50415,-0.37597 -0.84595,-0.53833 -0.35034,-0.16235 -0.77759,-0.31616 -1.28174,-0.46997 -0.46997,-0.13671 -0.84594,-0.25634 -1.13647,-0.37597 -0.29053,-0.11963 -0.52124,-0.23072 -0.6836,-0.35034 -0.16235,-0.11963 -0.27343,-0.23926 -0.33325,-0.36744 -0.0598,-0.11963 -0.0855,-0.26489 -0.0855,-0.4187 0,-0.15381 0.0342,-0.29052 0.10254,-0.42724 0.0684,-0.13672 0.17945,-0.24781 0.33325,-0.35035 0.15381,-0.10253 0.35889,-0.17944 0.61524,-0.23925 0.25635,-0.0513 0.56396,-0.0855 0.93994,-0.0855 0.30762,0 0.6665,0.0342 1.08521,0.0855 0.4187,0.0513 0.86303,0.13672 1.333,0.2478 l 0,-1.32446 c -0.44433,-0.0855 -0.87158,-0.15381 -1.28174,-0.18799 -0.41015,-0.0342 -0.78613,-0.0598 -1.11938,-0.0598 -0.68359,0 -1.2561,0.0855 -1.70898,0.24781 -0.46143,0.16235 -0.82032,0.36743 -1.08521,0.60669 -0.27344,0.2478 -0.46143,0.51269 -0.57251,0.79467 -0.11108,0.29053 -0.16235,0.54688 -0.16235,0.78614 0,0.36743 0.0684,0.68359 0.20508,0.94848 0.13671,0.27344 0.3247,0.50415 0.56396,0.70069 0.23926,0.20507 0.52124,0.37597 0.84595,0.52124 0.3247,0.14526 0.68359,0.27343 1.07666,0.38452 0.51269,0.15381 0.92285,0.29053 1.22192,0.41015 0.29907,0.11963 0.52124,0.23926 0.66651,0.35035 0.13671,0.11108 0.23925,0.23071 0.29052,0.35034 0.0513,0.11963 0.0855,0.25635 0.0855,0.41015 0,0.35889 -0.1709,0.64087 -0.51269,0.82886 -0.3418,0.19654 -0.87159,0.29053 -1.58081,0.29053 -0.49561,0 -0.98267,-0.0342 -1.47828,-0.11108 -0.4956,-0.0684 -0.99975,-0.17945 -1.49536,-0.32471 l 0,1.36719 c 0.46143,0.11962 0.93994,0.19653 1.42701,0.2478 0.48706,0.0513 1.02539,0.0769 1.60644,0.0769 0.26489,0 0.53833,-0.0171 0.82031,-0.0598 0.27344,-0.0342 0.54688,-0.10254 0.81177,-0.18799 0.26489,-0.0855 0.5127,-0.18799 0.75195,-0.32471 0.23072,-0.12817 0.43579,-0.28198 0.61524,-0.46997 0.1709,-0.18799 0.31616,-0.40161 0.4187,-0.64087 0.10254,-0.23925 0.15381,-0.50415 0.15381,-0.81176 z"
         style="font-size:17.5px"
         id="path4217"
         inkscape:connector-curvature="0" />
      <path
         d="m 256.76584,140.814 0,-1.28174 c -0.35889,0.094 -0.69214,0.16235 -1.01685,0.20508 -0.3247,0.0427 -0.62378,0.0598 -0.89721,0.0598 -0.64087,0 -1.12793,-0.14526 -1.45264,-0.45288 -0.32471,-0.30762 -0.48706,-0.76904 -0.48706,-1.38428 l 0,-4.35791 3.85376,0 0,-1.24756 -3.85376,0 0,-2.74292 -1.48682,0.38452 0,2.3584 -2.40112,0 0,1.24756 2.40112,0 0,4.47754 c 0,1.0083 0.2649,1.76025 0.79468,2.24731 0.52979,0.48707 1.33301,0.72632 2.40967,0.72632 0.36743,0 0.73486,-0.0171 1.09375,-0.0513 0.35888,-0.0342 0.70068,-0.10254 1.04248,-0.18798 z"
         style="font-size:17.5px"
         id="path4219"
         inkscape:connector-curvature="0" />
      <path
         d="m 266.38742,140.93362 0,-8.5791 -1.48682,0 0,5.69092 c -0.27343,0.35034 -0.52124,0.64087 -0.7434,0.86304 -0.22217,0.23071 -0.42725,0.41015 -0.61524,0.54687 -0.18799,0.13672 -0.37597,0.23072 -0.54687,0.28199 -0.1709,0.0513 -0.35035,0.0769 -0.52979,0.0769 -0.99121,0 -1.48681,-0.65796 -1.48681,-1.97388 l 0,-5.48584 -1.48682,0 0,5.60547 c 0,1.05103 0.22217,1.83716 0.67505,2.34985 0.44433,0.52125 1.11084,0.77759 1.99951,0.77759 0.25635,0 0.4956,-0.0171 0.72632,-0.0684 0.23071,-0.0513 0.46142,-0.13672 0.69214,-0.25634 0.22216,-0.11963 0.45288,-0.27344 0.68359,-0.46997 0.23071,-0.19654 0.47852,-0.44434 0.73486,-0.74341 l 0.0513,1.38427 1.33301,0 z"
         style="font-size:17.5px"
         id="path4221"
         inkscape:connector-curvature="0" />
      <path
         d="m 268.32712,132.35452 3.35815,8.5791 1.70899,0 3.3667,-8.5791 -1.63208,0 -2.08497,5.63965 -0.46997,1.41846 -0.45288,-1.38428 -2.10205,-5.67383 -1.69189,0 z"
         style="font-size:17.5px"
         id="path4223"
         inkscape:connector-curvature="0" />
      <path
         d="m 286.71579,132.35452 -1.46973,0 -0.6665,5.87036 -0.12817,1.20484 -0.38453,-1.13648 -1.34155,-3.80249 -1.06811,0 -1.24756,3.85376 -0.36743,1.13648 -0.15381,-1.29883 -0.71778,-5.82764 -1.45263,0 1.23901,8.5791 1.75171,0 1.18774,-3.53759 0.28199,-0.92285 0.2478,0.87158 1.23901,3.58886 1.80298,0 1.24756,-8.5791 z"
         style="font-size:17.5px"
         id="path4225"
         inkscape:connector-curvature="0" />
      <path
         d="m 296.14084,140.93362 -3.35816,-4.27246 3.22144,-4.30664 -1.83716,0 -2.21313,3.29834 -2.25586,-3.29834 -1.90552,0 3.17017,4.27246 -3.32398,4.30664 1.92261,0 2.29004,-3.2727 2.31567,3.2727 1.97388,0 z"
         style="font-size:17.5px"
         id="path4227"
         inkscape:connector-curvature="0" />
      <path
         d="m 305.67697,132.35452 -1.63208,0 -2.00806,5.63965 -0.4956,1.36719 -0.43579,-1.33301 -2.17041,-5.67383 -1.6919,0 3.42652,8.5791 c -0.18799,0.41016 -0.37598,0.75196 -0.56397,1.03394 -0.19653,0.29053 -0.40161,0.52124 -0.60669,0.70068 -0.21362,0.17945 -0.43579,0.30762 -0.67505,0.38452 -0.23925,0.0854 -0.48706,0.11963 -0.76049,0.11963 -0.1709,0 -0.32471,0 -0.46997,-0.0171 -0.15381,-0.0171 -0.29053,-0.0342 -0.41016,-0.0513 l 0,1.3501 c 0.13672,0.0171 0.27344,0.0256 0.39307,0.0256 0.11962,0.009 0.2478,0.009 0.40161,0.009 0.56396,0 1.06811,-0.0855 1.52954,-0.25635 0.45288,-0.17089 0.87158,-0.43579 1.2561,-0.79467 0.37598,-0.35889 0.72632,-0.82886 1.05103,-1.39283 0.3247,-0.56396 0.63232,-1.23046 0.93994,-2.0166 l 2.92236,-7.67334 z"
         style="font-size:17.5px"
         id="path4229"
         inkscape:connector-curvature="0" />
      <path
         d="m 314.63205,140.93362 0,-1.2561 -5.0415,0 4.75952,-6.16089 0,-1.16211 -6.51123,0 0,1.24756 4.72534,0 -4.84497,6.26343 0,1.06811 6.91284,0 z"
         style="font-size:17.5px"
         id="path4231"
         inkscape:connector-curvature="0" />
      <path
         d="m 74.955536,162.80862 -3.657227,-11.16821 -2.084961,0 -3.708496,11.16821 1.580811,0 0.786133,-2.4353 4.648437,0 0.777588,2.4353 1.657715,0 z m -2.871094,-3.79394 -3.776855,0 1.888427,-5.9729 1.888428,5.9729 z"
         style="font-size:17.5px"
         id="path4233"
         inkscape:connector-curvature="0" />
      <path
         d="m 83.739716,159.46756 c 0,-0.36743 -0.05982,-0.70068 -0.179444,-0.99976 -0.119629,-0.29052 -0.281982,-0.54687 -0.48706,-0.76904 -0.205078,-0.21362 -0.444336,-0.39307 -0.717774,-0.52978 -0.273437,-0.13672 -0.55542,-0.23072 -0.854492,-0.29053 0.649414,-0.20508 1.11084,-0.52979 1.401367,-0.96558 0.290528,-0.42724 0.435791,-0.94848 0.435791,-1.55517 0,-1.81153 -1.247558,-2.71729 -3.734131,-2.71729 l -3.1958,0 0,11.16821 2.922363,0 c 0.666504,0 1.264648,-0.0684 1.811523,-0.22216 0.546875,-0.14527 1.008301,-0.35889 1.392823,-0.64942 0.384521,-0.28198 0.683593,-0.63232 0.888671,-1.04248 0.205079,-0.41015 0.316163,-0.88867 0.316163,-1.427 z m -1.982422,-4.90479 c 0,0.32471 -0.05982,0.59815 -0.170899,0.82886 -0.111084,0.23071 -0.264892,0.4187 -0.46997,0.57251 -0.205079,0.15381 -0.444336,0.27344 -0.726319,0.3418 -0.281982,0.0769 -0.598144,0.11108 -0.939941,0.11108 l -1.520996,0 0,-3.49487 1.572265,0 c 0.444336,0 0.811768,0.0427 1.102295,0.12817 0.290528,0.0855 0.52124,0.20508 0.692139,0.35035 0.170898,0.14526 0.290527,0.31616 0.358887,0.52124 0.06836,0.20507 0.102539,0.4187 0.102539,0.64086 z m 0.367431,4.95606 c 0,0.69214 -0.213623,1.19629 -0.640869,1.521 -0.427246,0.3247 -1.07666,0.48706 -1.948242,0.48706 l -1.606445,0 0,-3.84522 1.555175,0 c 0.410157,0 0.777588,0.0427 1.102295,0.12817 0.324707,0.0854 0.60669,0.21363 0.837403,0.36744 0.222168,0.15381 0.401611,0.35034 0.52124,0.57251 0.119629,0.23071 0.179443,0.48706 0.179443,0.76904 z"
         style="font-size:17.5px"
         id="path4235"
         inkscape:connector-curvature="0" />
      <path
         d="m 93.198944,162.38992 0,-1.43554 c -0.410156,0.20507 -0.828857,0.35888 -1.264648,0.46997 -0.444336,0.11108 -0.897217,0.16235 -1.375733,0.16235 -1.136474,0 -1.999511,-0.36743 -2.580566,-1.10229 -0.5896,-0.73487 -0.880127,-1.82007 -0.880127,-3.27271 0,-0.68359 0.0769,-1.29883 0.239258,-1.83716 0.153808,-0.53833 0.384521,-0.99121 0.683593,-1.36719 0.290528,-0.37597 0.649414,-0.65795 1.076661,-0.85449 0.427246,-0.19653 0.897216,-0.29907 1.427002,-0.29907 0.512695,0 0.982666,0.0598 1.418457,0.17944 0.427246,0.11963 0.845947,0.28199 1.256103,0.50415 l 0,-1.49536 c -0.410156,-0.17944 -0.837402,-0.31616 -1.281738,-0.40161 -0.444336,-0.0855 -0.931397,-0.13672 -1.444092,-0.13672 -0.769043,0 -1.452637,0.13672 -2.067871,0.41016 -0.615234,0.27344 -1.14502,0.6665 -1.572266,1.17065 -0.435791,0.50415 -0.769043,1.11939 -0.999756,1.83716 -0.239257,0.72632 -0.350341,1.53809 -0.350341,2.42676 0,1.8457 0.418701,3.24707 1.264648,4.18701 0.845947,0.93994 2.059326,1.40991 3.640137,1.40991 0.974121,0 1.914062,-0.17944 2.811279,-0.55542 z"
         style="font-size:17.5px"
         id="path4237"
         inkscape:connector-curvature="0" />
      <path
         d="m 103.33322,157.10062 c 0,-1.84571 -0.43579,-3.21289 -1.29028,-4.11011 -0.85449,-0.89722 -2.153322,-1.3501 -3.896486,-1.3501 l -2.879639,0 0,11.16821 2.392578,0 c 0.709229,0 1.341553,-0.0598 1.905518,-0.19653 0.555419,-0.13672 1.042479,-0.32471 1.469729,-0.57251 0.4187,-0.23926 0.77759,-0.53833 1.06811,-0.88013 0.29053,-0.34179 0.52124,-0.72631 0.70923,-1.15356 0.17944,-0.4187 0.30762,-0.87158 0.39307,-1.36719 0.0854,-0.48706 0.12817,-0.99975 0.12817,-1.53808 z m -1.5979,0.11108 c 0,2.854 -1.27319,4.28101 -3.811034,4.28101 l -1.136475,0 0,-8.57056 1.307373,0 c 0.615235,0 1.14502,0.0769 1.606446,0.23071 0.45288,0.15381 0.82886,0.39307 1.13647,0.72632 0.29908,0.3418 0.52124,0.77759 0.67505,1.32446 0.14527,0.54688 0.22217,1.22193 0.22217,2.00806 z"
         style="font-size:17.5px"
         id="path4239"
         inkscape:connector-curvature="0" />
      <path
         d="m 112.0405,162.80862 0,-1.29882 -4.82788,0 0,-3.84522 4.63989,0 0,-1.28174 -4.63989,0 0,-3.46069 4.82788,0 0,-1.28174 -6.34888,0 0,11.16821 6.34888,0 z"
         style="font-size:17.5px"
         id="path4241"
         inkscape:connector-curvature="0" />
      <path
         d="m 121.66208,152.93924 0,-1.29883 -6.29761,0 0,11.16821 1.55518,0 0,-4.97314 4.49463,0 0,-1.27319 -4.49463,0 0,-3.62305 4.74243,0 z"
         style="font-size:17.5px"
         id="path4243"
         inkscape:connector-curvature="0" />
      <path
         d="m 131.84763,153.55447 0,-1.51245 c -0.41871,-0.18799 -0.8545,-0.33325 -1.30738,-0.4187 -0.45288,-0.0855 -0.93139,-0.13672 -1.427,-0.13672 -0.78613,0 -1.51245,0.13672 -2.16186,0.40161 -0.64942,0.2649 -1.21338,0.64942 -1.67481,1.15357 -0.46142,0.50415 -0.82031,1.11938 -1.07666,1.8457 -0.25635,0.72632 -0.38452,1.54663 -0.38452,2.46094 0,0.92285 0.11108,1.73462 0.3418,2.4353 0.23071,0.70069 0.56396,1.29029 0.99121,1.76026 0.42724,0.46997 0.94848,0.82031 1.56372,1.05957 0.61523,0.23925 1.29883,0.35888 2.06787,0.35888 0.2478,0 0.50415,-0.009 0.77759,-0.0427 0.26489,-0.0256 0.52978,-0.0684 0.80322,-0.12818 0.27344,-0.0513 0.53833,-0.12817 0.79468,-0.21362 0.25634,-0.0855 0.50415,-0.17944 0.74341,-0.29053 l 0,-5.708 -3.78541,0 0,1.2561 2.2815,0 0,3.55469 c -0.094,0.0342 -0.19653,0.0684 -0.31616,0.094 -0.11963,0.0342 -0.23926,0.0598 -0.35889,0.0769 -0.12817,0.0171 -0.25635,0.0342 -0.37598,0.0427 -0.12817,0.0171 -0.2478,0.0171 -0.35034,0.0171 -0.63232,0 -1.1792,-0.094 -1.63208,-0.29907 -0.45288,-0.19654 -0.82031,-0.48706 -1.11084,-0.86304 -0.29053,-0.37598 -0.50415,-0.82886 -0.64087,-1.37573 -0.13672,-0.53833 -0.20508,-1.15357 -0.20508,-1.83716 0,-0.64941 0.0769,-1.24756 0.24781,-1.79443 0.1709,-0.53833 0.41015,-0.99976 0.72632,-1.38428 0.31616,-0.38452 0.70922,-0.68359 1.17065,-0.89722 0.46143,-0.20508 0.98267,-0.31616 1.58081,-0.31616 0.5127,0 0.99121,0.0684 1.43555,0.18799 0.43579,0.11963 0.86303,0.29053 1.28174,0.51269 z"
         style="font-size:17.5px"
         id="path4245"
         inkscape:connector-curvature="0" />
      <path
         d="m 141.57175,162.80862 0,-11.16821 -1.521,0 0,4.72534 -4.69116,0 0,-4.72534 -1.521,0 0,11.16821 1.521,0 0,-5.12695 4.69116,0 0,5.12695 1.521,0 z"
         style="font-size:17.5px"
         id="path4247"
         inkscape:connector-curvature="0" />
      <path
         d="m 146.57053,152.92215 0,8.58765 -2.57203,0 0,1.29882 6.68213,0 0,-1.29882 -2.57202,0 0,-8.58765 2.57202,0 0,-1.28174 -6.68213,0 0,1.28174 2.57203,0 z"
         style="font-size:17.5px"
         id="path4249"
         inkscape:connector-curvature="0" />
      <path
         d="m 159.66135,151.64041 -5.79346,0 0,1.31592 4.24683,0 0,6.44287 c 0,0.71777 -0.1709,1.26465 -0.50415,1.64063 -0.3418,0.37597 -0.82032,0.56396 -1.43555,0.56396 -0.42725,0 -0.85449,-0.0684 -1.28174,-0.22217 -0.42725,-0.14526 -0.82031,-0.35034 -1.17065,-0.60669 l 0,1.52954 c 0.13671,0.094 0.29907,0.17945 0.48706,0.25635 0.18798,0.0769 0.38452,0.14527 0.59814,0.19653 0.21362,0.0513 0.43579,0.094 0.6665,0.12818 0.23072,0.0342 0.46143,0.0427 0.6836,0.0427 0.5896,0 1.10229,-0.094 1.54663,-0.28198 0.43579,-0.18799 0.80322,-0.43579 1.09375,-0.7605 0.29053,-0.31616 0.50415,-0.69214 0.64941,-1.11938 0.13672,-0.42725 0.21363,-0.88867 0.21363,-1.36719 l 0,-7.75879 z"
         style="font-size:17.5px"
         id="path4251"
         inkscape:connector-curvature="0" />
      <path
         d="m 170.75266,162.80862 -4.60572,-5.86181 4.40918,-5.3064 -1.80298,0 -4.09301,5.18677 0,-5.18677 -1.521,0 0,11.16821 1.521,0 0,-5.47729 4.17846,5.47729 1.91407,0 z"
         style="font-size:17.5px"
         id="path4253"
         inkscape:connector-curvature="0" />
      <path
         d="m 179.86154,162.80862 0,-1.29882 -4.87915,0 0,-9.86939 -1.54663,0 0,11.16821 6.42578,0 z"
         style="font-size:17.5px"
         id="path4255"
         inkscape:connector-curvature="0" />
      <path
         d="m 190.28635,162.80862 -0.53833,-11.16821 -1.85425,0 -1.58081,4.2041 -0.46997,1.41846 -0.48706,-1.41846 -1.50391,-4.2041 -1.80298,0 -0.54687,11.16821 1.43554,0 0.19654,-6.84448 0.0342,-2.79419 0.52124,1.72608 1.57226,4.27246 1.05103,0 1.64917,-4.44336 0.52124,-1.55518 0.094,2.67456 0.22217,6.96411 1.48682,0 z"
         style="font-size:17.5px"
         id="path4257"
         inkscape:connector-curvature="0" />
      <path
         d="m 199.33542,162.80862 0,-11.16821 -1.41846,0 0,3.17017 0,5.98144 -1.11938,-2.55493 -3.10181,-6.59668 -1.95679,0 0,11.16821 1.41846,0 0,-3.57177 0,-5.63111 0.93994,2.23877 3.25562,6.96411 1.98242,0 z"
         style="font-size:17.5px"
         id="path4259"
         inkscape:connector-curvature="0" />
      <path
         d="m 209.51242,157.15189 c 0,-0.87159 -0.094,-1.66626 -0.26489,-2.36695 -0.1709,-0.70068 -0.43579,-1.29028 -0.78613,-1.77734 -0.35889,-0.48706 -0.80323,-0.86304 -1.33301,-1.12793 -0.52979,-0.25635 -1.15357,-0.39307 -1.87134,-0.39307 -0.59814,0 -1.17065,0.11963 -1.70044,0.35034 -0.53833,0.23072 -1.0083,0.58106 -1.40991,1.05957 -0.40161,0.47852 -0.71778,1.07667 -0.94849,1.80298 -0.23926,0.73487 -0.35034,1.58936 -0.35034,2.58057 0,0.88867 0.0855,1.68335 0.25635,2.38403 0.1709,0.70069 0.42724,1.29883 0.77759,1.78589 0.35034,0.49561 0.79467,0.87158 1.32446,1.12793 0.52978,0.25635 1.16211,0.38452 1.87988,0.38452 0.59815,0 1.16211,-0.11108 1.70044,-0.34179 0.53833,-0.23072 1.0083,-0.58106 1.40991,-1.05957 0.40161,-0.47852 0.71778,-1.07666 0.95703,-1.81153 0.23926,-0.72632 0.35889,-1.58935 0.35889,-2.59765 z m -1.58081,0.11108 c 0,0.60669 -0.0598,1.17065 -0.16235,1.70044 -0.11109,0.52978 -0.28199,0.99976 -0.50415,1.39282 -0.22217,0.39307 -0.5127,0.70923 -0.8545,0.93994 -0.35034,0.23072 -0.76049,0.3418 -1.23901,0.3418 -0.49561,0 -0.91431,-0.10254 -1.2561,-0.32471 -0.35034,-0.21362 -0.63233,-0.51269 -0.8545,-0.90576 -0.22216,-0.39307 -0.37597,-0.85449 -0.47851,-1.40137 -0.10254,-0.54687 -0.15381,-1.14502 -0.15381,-1.81152 0,-0.59814 0.0513,-1.16211 0.16235,-1.69189 0.10254,-0.52979 0.27344,-0.99976 0.49561,-1.39283 0.22217,-0.39306 0.50415,-0.70922 0.84595,-0.93994 0.34179,-0.23071 0.76049,-0.35034 1.23901,-0.35034 0.49561,0 0.91431,0.11108 1.26465,0.32471 0.35034,0.22217 0.64087,0.52124 0.86304,0.9143 0.22216,0.39307 0.37597,0.86304 0.47851,1.40992 0.10254,0.54687 0.15381,1.14502 0.15381,1.79443 z"
         style="font-size:17.5px"
         id="path4261"
         inkscape:connector-curvature="0" />
      <path
         d="m 218.68112,155.05838 c 0,-0.61523 -0.11963,-1.14502 -0.3418,-1.58081 -0.23071,-0.42725 -0.53833,-0.78613 -0.92285,-1.05957 -0.38452,-0.27344 -0.82885,-0.46997 -1.333,-0.5896 -0.5127,-0.11963 -1.04248,-0.18799 -1.58936,-0.18799 l -3.14453,0 0,11.16821 1.52099,0 0,-4.00756 1.38428,0 c 0.76905,0 1.43555,-0.10254 1.99951,-0.32471 0.55542,-0.22217 1.01685,-0.50415 1.37574,-0.86304 0.35888,-0.35034 0.62378,-0.75195 0.79467,-1.19629 0.1709,-0.44433 0.25635,-0.89721 0.25635,-1.35864 z m -1.58081,0.0684 c 0,0.80322 -0.2478,1.39282 -0.73486,1.78589 -0.48706,0.39306 -1.1792,0.5896 -2.07642,0.5896 l -1.41846,0 0,-4.59717 1.55518,0 c 0.8374,0 1.49536,0.19653 1.96533,0.57251 0.46997,0.38452 0.70923,0.9314 0.70923,1.64917 z"
         style="font-size:17.5px"
         id="path4263"
         inkscape:connector-curvature="0" />
      <path
         d="m 223.62863,162.91116 c 0.0342,0.49561 0.13672,0.92285 0.30762,1.29883 0.1709,0.37598 0.39307,0.6836 0.67505,0.9314 0.28198,0.2478 0.61523,0.43579 0.99975,0.55542 0.37598,0.12817 0.79468,0.18799 1.25611,0.18799 0.4187,0 0.82885,-0.0598 1.23047,-0.19654 0.39306,-0.12817 0.78613,-0.35034 1.16211,-0.65796 l -0.67505,-1.05102 c -0.27344,0.22217 -0.54688,0.37598 -0.81177,0.46142 -0.26489,0.094 -0.52979,0.13672 -0.80322,0.13672 -0.57251,0 -1.01685,-0.14526 -1.32447,-0.45288 -0.31616,-0.30761 -0.51269,-0.70923 -0.59814,-1.21338 0.52124,-0.0855 1.0083,-0.26489 1.46973,-0.53833 0.45288,-0.27343 0.84594,-0.64941 1.18774,-1.12793 0.33325,-0.47851 0.59814,-1.05957 0.79468,-1.74316 0.18799,-0.68359 0.29052,-1.48682 0.29052,-2.40112 0,-0.86304 -0.094,-1.64063 -0.26489,-2.33277 -0.1709,-0.69214 -0.43579,-1.28174 -0.78613,-1.7688 -0.35889,-0.48706 -0.80322,-0.86303 -1.33301,-1.11938 -0.52978,-0.25635 -1.15356,-0.39307 -1.87134,-0.39307 -0.59814,0 -1.17065,0.11963 -1.70044,0.35034 -0.53833,0.23072 -1.0083,0.5896 -1.40991,1.06812 -0.40161,0.47852 -0.71777,1.09375 -0.94848,1.82861 -0.23926,0.74341 -0.35035,1.62354 -0.35035,2.63184 0,0.78613 0.0684,1.50391 0.21363,2.15332 0.13672,0.64941 0.35888,1.20483 0.64941,1.68335 0.29053,0.47851 0.64941,0.85449 1.09375,1.14502 0.43579,0.29053 0.94849,0.47851 1.54663,0.56396 z m 3.58032,-5.6311 c 0,0.59814 -0.0598,1.16211 -0.16235,1.69189 -0.11108,0.52979 -0.28198,0.98267 -0.50415,1.37574 -0.22217,0.39306 -0.5127,0.70923 -0.85449,0.93139 -0.35034,0.23072 -0.7605,0.3418 -1.23902,0.3418 -0.4956,0 -0.9143,-0.10254 -1.2561,-0.31616 -0.35034,-0.21363 -0.63232,-0.52124 -0.85449,-0.91431 -0.22217,-0.39307 -0.37598,-0.86304 -0.47852,-1.40991 -0.10254,-0.54688 -0.15381,-1.16211 -0.15381,-1.8457 0,-0.58106 0.0513,-1.13648 0.16236,-1.65772 0.10254,-0.52124 0.27344,-0.97412 0.4956,-1.36719 0.22217,-0.39306 0.50415,-0.70068 0.84595,-0.93139 0.3418,-0.22217 0.7605,-0.3418 1.23901,-0.3418 0.49561,0 0.91431,0.11108 1.26465,0.32471 0.35034,0.22217 0.64087,0.52124 0.86304,0.9143 0.22217,0.39307 0.37598,0.8545 0.47852,1.40137 0.10253,0.54688 0.1538,1.14502 0.1538,1.80298 z"
         style="font-size:17.5px"
         id="path4265"
         inkscape:connector-curvature="0" />
      <path
         d="m 238.25754,162.80862 -1.7688,-3.67431 c -0.23071,-0.44434 -0.45288,-0.80322 -0.67505,-1.07666 -0.22217,-0.27344 -0.48706,-0.46143 -0.79468,-0.57251 0.38452,-0.0855 0.72632,-0.22217 1.02539,-0.41016 0.29908,-0.18799 0.54688,-0.40161 0.75196,-0.65796 0.20507,-0.25634 0.35888,-0.53833 0.46142,-0.84594 0.10254,-0.30762 0.15381,-0.64087 0.15381,-0.99122 0,-0.43579 -0.0769,-0.8374 -0.21362,-1.19628 -0.13672,-0.35889 -0.35889,-0.67505 -0.65796,-0.9314 -0.29907,-0.25635 -0.6836,-0.45288 -1.14502,-0.59815 -0.46997,-0.13671 -1.02539,-0.21362 -1.67481,-0.21362 l -2.99072,0 0,11.16821 1.521,0 0,-4.97314 0.71777,0 c 0.22217,0 0.4187,0.0256 0.59815,0.0684 0.17944,0.0513 0.34179,0.12817 0.4956,0.23071 0.15381,0.10254 0.29053,0.2478 0.42725,0.42725 0.12817,0.17944 0.25634,0.40161 0.38452,0.67505 l 1.66626,3.57177 1.71753,0 z m -2.4353,-8.10058 c 0,0.30762 -0.0598,0.58105 -0.1709,0.82031 -0.11109,0.23926 -0.2649,0.43579 -0.46997,0.59815 -0.20508,0.16235 -0.44434,0.28198 -0.73487,0.36743 -0.29052,0.0854 -0.60669,0.11963 -0.96557,0.11963 l -1.23047,0 0,-3.69141 1.43554,0 c 0.67505,0 1.19629,0.15381 1.57227,0.44434 0.37598,0.29907 0.56397,0.7434 0.56397,1.34155 z"
         style="font-size:17.5px"
         id="path4267"
         inkscape:connector-curvature="0" />
      <path
         d="m 247.43478,159.78372 c 0,-0.44433 -0.0854,-0.82886 -0.25634,-1.15356 -0.1709,-0.32471 -0.38453,-0.60669 -0.65796,-0.84595 -0.27344,-0.23926 -0.5896,-0.45288 -0.93994,-0.63232 -0.35035,-0.1709 -0.70923,-0.33326 -1.06812,-0.48706 -0.36743,-0.14527 -0.72632,-0.29053 -1.07666,-0.42725 -0.35034,-0.13672 -0.65796,-0.29907 -0.9314,-0.46997 -0.27343,-0.1709 -0.4956,-0.35889 -0.6665,-0.58106 -0.1709,-0.21362 -0.2478,-0.46997 -0.2478,-0.77758 0,-0.48706 0.20508,-0.88013 0.61523,-1.17066 0.41016,-0.29053 1.05103,-0.43579 1.92261,-0.43579 0.41016,0 0.82886,0.0342 1.27319,0.10254 0.43579,0.0684 0.87158,0.16235 1.31592,0.28198 l 0,-1.36719 c -0.18799,-0.0427 -0.39307,-0.0854 -0.61523,-0.12817 -0.22217,-0.0342 -0.44434,-0.0684 -0.66651,-0.10254 -0.22217,-0.0342 -0.44433,-0.0598 -0.6665,-0.0769 -0.22217,-0.0171 -0.4187,-0.0256 -0.60669,-0.0256 -0.73486,0 -1.35864,0.094 -1.88843,0.2649 -0.52978,0.17944 -0.95703,0.41015 -1.29028,0.70068 -0.3418,0.29053 -0.5896,0.61523 -0.74341,0.98266 -0.16235,0.37598 -0.23926,0.75196 -0.23926,1.12793 0,0.44434 0.0769,0.82032 0.2478,1.13648 0.1709,0.32471 0.39307,0.59814 0.66651,0.8374 0.27344,0.23926 0.58105,0.44434 0.9314,0.61524 0.35034,0.17089 0.70922,0.33325 1.07666,0.47851 0.35888,0.15381 0.71777,0.29907 1.06811,0.43579 0.35034,0.13672 0.6665,0.29053 0.93994,0.46143 0.27344,0.1709 0.48706,0.35889 0.65796,0.57251 0.1709,0.21362 0.25635,0.46997 0.25635,0.76904 0,0.28198 -0.0513,0.52979 -0.15381,0.74341 -0.10254,0.22217 -0.25635,0.40161 -0.47852,0.55542 -0.22216,0.15381 -0.50415,0.26489 -0.84594,0.3418 -0.3418,0.0769 -0.7605,0.11108 -1.24756,0.11108 -0.6836,0 -1.29028,-0.0427 -1.82007,-0.13672 -0.52979,-0.0855 -1.0083,-0.21362 -1.43555,-0.37598 l 0,1.46973 c 0.18799,0.0513 0.41016,0.10254 0.64942,0.14527 0.23926,0.0513 0.48706,0.0854 0.7605,0.11962 0.27343,0.0342 0.55542,0.0684 0.84594,0.0854 0.29053,0.0256 0.5896,0.0342 0.88867,0.0342 0.64942,0 1.24756,-0.0598 1.79444,-0.19653 0.54687,-0.12817 1.0083,-0.32471 1.40137,-0.5896 0.38452,-0.26489 0.68359,-0.59814 0.90576,-0.99976 0.21362,-0.39306 0.3247,-0.86303 0.3247,-1.39282 z"
         style="font-size:17.5px"
         id="path4269"
         inkscape:connector-curvature="0" />
      <path
         d="m 257.44089,152.93924 0,-1.29883 -8.15186,0 0,1.29883 3.30689,0 0,9.86938 1.53808,0 0,-9.86938 3.30689,0 z"
         style="font-size:17.5px"
         id="path4271"
         inkscape:connector-curvature="0" />
      <path
         d="m 266.89157,158.92068 0,-7.28027 -1.521,0 0,7.37427 c 0,0.85449 -0.19653,1.51245 -0.58105,1.97388 -0.38452,0.46997 -0.98267,0.70068 -1.78589,0.70068 -0.43579,0 -0.80322,-0.0513 -1.10229,-0.1709 -0.29908,-0.11108 -0.53833,-0.28198 -0.72632,-0.50415 -0.18799,-0.22217 -0.32471,-0.4956 -0.41016,-0.82886 -0.0854,-0.3247 -0.11963,-0.70923 -0.11963,-1.15356 l 0,-7.39136 -1.52099,0 0,7.51099 c 0,0.58105 0.0684,1.10229 0.20508,1.56372 0.13671,0.46997 0.35888,0.87158 0.6665,1.20483 0.30762,0.33325 0.70068,0.5896 1.18774,0.76905 0.47852,0.18798 1.06812,0.27343 1.7688,0.27343 0.63233,0 1.18775,-0.094 1.67481,-0.28198 0.48706,-0.18799 0.89721,-0.46143 1.23901,-0.81177 0.33325,-0.35034 0.5896,-0.77759 0.7605,-1.27319 0.1709,-0.49561 0.26489,-1.05957 0.26489,-1.67481 z"
         style="font-size:17.5px"
         id="path4273"
         inkscape:connector-curvature="0" />
      <path
         d="m 277.41891,151.64041 -1.62353,0 -2.41821,7.52808 -0.70069,2.20459 -0.68359,-2.20459 -2.40967,-7.52808 -1.71753,0 3.7085,11.16821 2.05078,0 3.79394,-11.16821 z"
         style="font-size:17.5px"
         id="path4275"
         inkscape:connector-curvature="0" />
      <path
         d="m 286.70724,151.64041 -1.35864,0 -0.44433,8.14331 -0.0342,1.53809 -0.52124,-1.46973 -1.55518,-4.44336 -1.05102,0 -1.3501,4.14429 -0.53833,1.7688 -0.12818,-2.08496 -0.43579,-7.59644 -1.43554,0 0.76904,11.16821 1.90552,0 1.28173,-3.87085 0.40162,-1.37573 0.38452,1.2732 1.38427,3.97338 1.97388,0 0.75195,-11.16821 z"
         style="font-size:17.5px"
         id="path4277"
         inkscape:connector-curvature="0" />
      <path
         d="m 296.52536,162.80862 -3.7085,-5.77636 3.42652,-5.39185 -1.75171,0 -2.57202,4.2041 -2.55493,-4.2041 -1.80298,0 3.41797,5.46021 -3.71705,5.708 1.89698,0 2.72583,-4.51171 2.71728,4.51171 1.92261,0 z"
         style="font-size:17.5px"
         id="path4279"
         inkscape:connector-curvature="0" />
      <path
         d="m 306.36911,151.64041 -1.74316,0 -2.24732,4.23828 -0.75195,1.48682 -0.82031,-1.64063 -2.22168,-4.08447 -1.83716,0 4.04175,7.14356 0,4.02465 1.53808,0 0,-3.99047 4.04175,-7.17774 z"
         style="font-size:17.5px"
         id="path4281"
         inkscape:connector-curvature="0" />
      <path
         d="m 314.93967,152.8367 0,-1.19629 -7.45118,0 0,1.38428 5.57984,0 -5.73364,8.64746 0,1.13647 7.71606,0 0,-1.41845 -5.81055,0 5.69947,-8.55347 z"
         style="font-size:17.5px"
         id="path4283"
         inkscape:connector-curvature="0" />
      <path
         d="m 74.254852,180.32571 c 0,-0.70068 -0.09399,-1.333 -0.273437,-1.87988 -0.179444,-0.54687 -0.435791,-0.99975 -0.777588,-1.36719 -0.341797,-0.36743 -0.751953,-0.64941 -1.239014,-0.8374 -0.48706,-0.18799 -1.033935,-0.29053 -1.64917,-0.29053 -0.649414,0 -1.221924,0.11109 -1.726074,0.33326 -0.512695,0.22216 -0.939941,0.52978 -1.290283,0.92285 -0.358887,0.39306 -0.623779,0.87158 -0.811768,1.41845 -0.187988,0.54688 -0.281982,1.15357 -0.281982,1.82007 0,0.71778 0.08545,1.34156 0.264892,1.88843 0.179444,0.54688 0.435791,1.0083 0.777588,1.37573 0.341797,0.37598 0.751953,0.65796 1.239014,0.84595 0.487061,0.18799 1.04248,0.28198 1.657715,0.28198 0.640869,0 1.213379,-0.10254 1.726074,-0.3247 0.50415,-0.22217 0.931397,-0.52979 1.290283,-0.92286 0.350342,-0.39306 0.62378,-0.87158 0.811768,-1.427 0.187988,-0.55542 0.281982,-1.17065 0.281982,-1.83716 z m -1.520996,0.0684 c 0,0.42725 -0.05127,0.83741 -0.145263,1.22193 -0.094,0.38452 -0.239258,0.71777 -0.444336,1.0083 -0.205079,0.29053 -0.461426,0.52978 -0.777588,0.70068 -0.316162,0.1709 -0.692139,0.25635 -1.136475,0.25635 -0.393066,0 -0.734863,-0.0598 -1.04248,-0.19653 -0.307618,-0.13672 -0.57251,-0.33326 -0.786133,-0.59815 -0.222168,-0.26489 -0.384522,-0.59814 -0.504151,-0.99975 -0.119628,-0.39307 -0.170898,-0.86304 -0.170898,-1.39283 0,-0.4187 0.04272,-0.82031 0.136719,-1.20483 0.09399,-0.38452 0.239258,-0.72632 0.444336,-1.01685 0.205078,-0.29052 0.461425,-0.52124 0.777588,-0.69213 0.316162,-0.1709 0.700683,-0.2649 1.145019,-0.2649 0.375977,0 0.726318,0.0684 1.033936,0.20508 0.307617,0.13672 0.572509,0.33325 0.794677,0.59815 0.213623,0.26489 0.375977,0.59814 0.495606,0.99121 0.119629,0.39306 0.179443,0.85449 0.179443,1.38427 z"
         style="font-size:17.5px"
         id="path4285"
         inkscape:connector-curvature="0" />
      <path
         d="m 84.209686,179.02689 c 0,-0.87159 -0.09399,-1.66626 -0.264892,-2.36695 -0.170899,-0.70068 -0.435791,-1.29028 -0.786133,-1.77734 -0.358887,-0.48706 -0.803223,-0.86304 -1.333008,-1.12793 -0.529785,-0.25635 -1.153564,-0.39307 -1.871338,-0.39307 -0.598144,0 -1.170654,0.11963 -1.700439,0.35034 -0.53833,0.23072 -1.008301,0.58106 -1.409912,1.05957 -0.401612,0.47852 -0.717774,1.07667 -0.948487,1.80298 -0.239258,0.73487 -0.350342,1.58936 -0.350342,2.58057 0,0.88867 0.08545,1.68335 0.256348,2.38403 0.170899,0.70069 0.427246,1.29883 0.777588,1.78589 0.350342,0.49561 0.794678,0.87158 1.324463,1.12793 0.529785,0.25635 1.162109,0.38452 1.879883,0.38452 0.598144,0 1.162109,-0.11108 1.700439,-0.34179 0.53833,-0.23072 1.008301,-0.58106 1.409912,-1.05957 0.401612,-0.47852 0.717774,-1.07666 0.957032,-1.81153 0.239257,-0.72632 0.358886,-1.58935 0.358886,-2.59765 z m -1.58081,0.11108 c 0,0.60669 -0.05982,1.17065 -0.162354,1.70044 -0.111084,0.52978 -0.281982,0.99976 -0.50415,1.39282 -0.222168,0.39307 -0.512695,0.70923 -0.854492,0.93994 -0.350342,0.23072 -0.760498,0.3418 -1.239014,0.3418 -0.495606,0 -0.914307,-0.10254 -1.256104,-0.32471 -0.350341,-0.21362 -0.632324,-0.51269 -0.854492,-0.90576 -0.222168,-0.39307 -0.375976,-0.85449 -0.478515,-1.40137 -0.102539,-0.54687 -0.153809,-1.14502 -0.153809,-1.81152 0,-0.59814 0.05127,-1.16211 0.162354,-1.69189 0.102539,-0.52979 0.273437,-0.99976 0.495605,-1.39283 0.222168,-0.39306 0.50415,-0.70922 0.845947,-0.93994 0.341797,-0.23071 0.760498,-0.35034 1.239014,-0.35034 0.495605,0 0.914307,0.11108 1.264648,0.32471 0.350342,0.22217 0.64087,0.52124 0.863038,0.9143 0.222167,0.39307 0.375976,0.86304 0.478515,1.40992 0.102539,0.54687 0.153809,1.14502 0.153809,1.79443 z"
         style="font-size:17.5px"
         id="path4287"
         inkscape:connector-curvature="0" />
      <path
         d="m 93.566376,179.10379 c 0,-0.99121 -0.09399,-1.8457 -0.281983,-2.57202 -0.187988,-0.71777 -0.461425,-1.31592 -0.803222,-1.78589 -0.350342,-0.46997 -0.769043,-0.82031 -1.256104,-1.04248 -0.495605,-0.22217 -1.033935,-0.3418 -1.63208,-0.3418 -0.692139,0 -1.298828,0.14527 -1.811523,0.4187 -0.521241,0.27344 -0.957032,0.66651 -1.298829,1.17066 -0.341796,0.50415 -0.606689,1.11084 -0.777587,1.81152 -0.170899,0.70923 -0.256348,1.48682 -0.256348,2.34131 0,0.99121 0.09399,1.85425 0.281982,2.57202 0.187989,0.72632 0.452881,1.32446 0.803223,1.78589 0.341797,0.46997 0.760498,0.82031 1.256104,1.04248 0.48706,0.22217 1.033935,0.33325 1.63208,0.33325 0.692138,0 1.298828,-0.13672 1.811523,-0.41015 0.512695,-0.27344 0.948486,-0.66651 1.298828,-1.17066 0.341797,-0.50415 0.60669,-1.11084 0.777588,-1.81152 0.170899,-0.70068 0.256348,-1.48682 0.256348,-2.34131 z m -1.503907,0.0513 c 0,0.72632 -0.05981,1.36719 -0.179443,1.91406 -0.119629,0.54688 -0.290527,1.0083 -0.512695,1.37573 -0.222168,0.37598 -0.495606,0.64942 -0.811768,0.83741 -0.316162,0.18799 -0.666504,0.28198 -1.051025,0.28198 -0.307617,0 -0.57251,-0.0427 -0.811768,-0.14526 -0.239258,-0.10254 -0.444336,-0.23926 -0.632324,-0.41871 -0.187988,-0.17944 -0.341797,-0.39306 -0.469971,-0.64941 -0.136718,-0.2478 -0.239257,-0.52124 -0.324707,-0.82031 l 4.725342,-3.51196 c 0.01709,0.18798 0.02563,0.37597 0.04272,0.56396 0.01709,0.18799 0.02563,0.38452 0.02563,0.57251 z m -5.109863,-0.10254 c 0,-0.71777 0.05982,-1.35864 0.179444,-1.90552 0.119628,-0.54687 0.290527,-1.0083 0.512695,-1.38427 0.222168,-0.37598 0.48706,-0.65796 0.803223,-0.84595 0.316162,-0.18799 0.666503,-0.28198 1.05957,-0.28198 0.290527,0 0.546875,0.0513 0.786133,0.14526 0.230713,0.10254 0.435791,0.23926 0.623779,0.41016 0.179443,0.17089 0.333252,0.37597 0.469971,0.61523 0.128173,0.23926 0.239257,0.50415 0.324707,0.79468 l -4.725342,3.49487 c -0.01709,-0.16235 -0.03418,-0.33325 -0.03418,-0.51269 0,-0.1709 0,-0.35035 0,-0.52979 z"
         style="font-size:17.5px"
         id="path4289"
         inkscape:connector-curvature="0" />
      <path
         d="m 102.9487,181.88089 c 0,-0.36743 -0.0598,-0.70068 -0.17944,-1.0083 -0.11963,-0.29907 -0.28199,-0.57251 -0.48706,-0.82031 -0.21363,-0.23926 -0.46143,-0.46143 -0.74341,-0.66651 -0.29053,-0.19653 -0.59815,-0.37597 -0.92285,-0.54687 0.6665,-0.3418 1.1792,-0.73487 1.53808,-1.19629 0.35889,-0.45288 0.54688,-1.0083 0.54688,-1.65772 0,-0.39306 -0.0769,-0.76049 -0.22217,-1.0852 -0.15381,-0.32471 -0.37598,-0.59815 -0.6665,-0.82886 -0.29908,-0.22217 -0.66651,-0.40161 -1.1023,-0.52124 -0.43579,-0.11963 -0.939941,-0.18799 -1.512451,-0.18799 -0.615234,0 -1.145019,0.0854 -1.589355,0.23926 -0.452881,0.15381 -0.828858,0.36743 -1.12793,0.62378 -0.299072,0.26489 -0.52124,0.56396 -0.666504,0.89722 -0.153808,0.34179 -0.222168,0.68359 -0.222168,1.04248 0,0.5896 0.162354,1.11084 0.504151,1.56372 0.333252,0.45288 0.863037,0.86303 1.5979,1.23047 -0.803223,0.41015 -1.392822,0.85449 -1.768799,1.35009 -0.384521,0.49561 -0.57251,1.08521 -0.57251,1.7688 0,0.41016 0.0769,0.77759 0.239258,1.11084 0.153809,0.3418 0.393067,0.63233 0.709229,0.87158 0.307617,0.24781 0.700683,0.4358 1.162109,0.57251 0.461426,0.13672 0.999756,0.20508 1.61499,0.20508 0.546875,0 1.05957,-0.0598 1.53809,-0.19653 0.46997,-0.12817 0.88012,-0.31616 1.23047,-0.57251 0.34179,-0.2478 0.61523,-0.55542 0.81176,-0.92285 0.18799,-0.36743 0.29053,-0.78613 0.29053,-1.26465 z m -1.7688,-5.77637 c 0,0.43579 -0.16235,0.82032 -0.46997,1.14502 -0.31616,0.32471 -0.794677,0.64087 -1.435546,0.93994 -0.375977,-0.16235 -0.692139,-0.3247 -0.957032,-0.48706 -0.273437,-0.15381 -0.495605,-0.31616 -0.675049,-0.48706 -0.179443,-0.16235 -0.307617,-0.34179 -0.393066,-0.52978 -0.08545,-0.18799 -0.128174,-0.39307 -0.128174,-0.61524 0,-0.48706 0.170899,-0.85449 0.529785,-1.10229 0.358887,-0.23926 0.854493,-0.36743 1.495362,-0.36743 0.640869,0 1.13647,0.12817 1.49536,0.37597 0.35889,0.24781 0.53833,0.62378 0.53833,1.12793 z m 0.15381,5.88745 c 0,0.27344 -0.0598,0.5127 -0.1709,0.70923 -0.11963,0.19654 -0.27344,0.35889 -0.46997,0.48706 -0.19653,0.12818 -0.42725,0.22217 -0.69214,0.28199 -0.273436,0.0684 -0.555418,0.094 -0.85449,0.094 -0.316162,0 -0.60669,-0.0342 -0.871582,-0.10254 -0.273438,-0.0684 -0.504151,-0.1709 -0.692139,-0.30762 -0.196533,-0.13672 -0.350342,-0.29907 -0.461426,-0.4956 -0.111084,-0.19654 -0.162353,-0.42725 -0.162353,-0.6836 0,-0.22216 0.03418,-0.44433 0.102539,-0.64941 0.06836,-0.20508 0.179443,-0.40161 0.341797,-0.5896 0.162353,-0.18799 0.375976,-0.37598 0.640869,-0.56396 0.264892,-0.18799 0.589599,-0.37598 0.982666,-0.56397 0.452881,0.20508 0.828857,0.41016 1.127929,0.59815 0.29053,0.19653 0.52979,0.39306 0.70923,0.58105 0.1709,0.19653 0.29907,0.39307 0.36743,0.5896 0.0684,0.20508 0.10254,0.41016 0.10254,0.61523 z"
         style="font-size:17.5px"
         id="path4291"
         inkscape:connector-curvature="0" />
      <path
         d="m 118.42355,172.50711 c -0.17089,0 -0.3247,0.0342 -0.46142,0.094 -0.14527,0.0598 -0.27344,0.14527 -0.37598,0.24781 -0.10254,0.11108 -0.18799,0.23926 -0.2478,0.37597 -0.0598,0.13672 -0.0855,0.29053 -0.0855,0.45288 0,0.16236 0.0256,0.31617 0.0855,0.45289 0.0598,0.14526 0.14526,0.27343 0.2478,0.37597 0.10254,0.11109 0.23071,0.19654 0.37598,0.25635 0.13672,0.0598 0.29053,0.0855 0.46142,0.0855 0.16236,0 0.31617,-0.0256 0.46143,-0.0855 0.13672,-0.0598 0.26489,-0.14526 0.36743,-0.25635 0.10254,-0.10254 0.18799,-0.23071 0.2478,-0.37597 0.0598,-0.13672 0.094,-0.29053 0.094,-0.45289 0,-0.16235 -0.0342,-0.31616 -0.094,-0.45288 -0.0598,-0.13671 -0.14526,-0.26489 -0.2478,-0.37597 -0.10254,-0.10254 -0.23071,-0.18799 -0.36743,-0.24781 -0.14526,-0.0598 -0.29907,-0.094 -0.46143,-0.094 z m 0.98267,3.59741 -4.04175,0 0,1.23047 2.53784,0 0,5.7251 c 0,0.50415 0.14527,0.89722 0.43579,1.18774 0.29053,0.29053 0.70069,0.43579 1.23047,0.43579 l 2.39258,0 0,-1.23901 -2.03369,0 c -0.0854,0 -0.16235,0 -0.23071,-0.009 -0.0684,-0.009 -0.11963,-0.0427 -0.16236,-0.094 -0.0427,-0.0513 -0.0769,-0.13672 -0.094,-0.25635 -0.0256,-0.11963 -0.0342,-0.29052 -0.0342,-0.51269 l 0,-6.46851 z"
         style="font-size:17.5px"
         id="path4293"
         inkscape:connector-curvature="0" />
      <path
         d="m 127.29318,174.79715 0,8.58765 -2.57202,0 0,1.29882 6.68213,0 0,-1.29882 -2.57202,0 0,-8.58765 2.57202,0 0,-1.28174 -6.68213,0 0,1.28174 2.57202,0 z"
         style="font-size:17.5px"
         id="path4295"
         inkscape:connector-curvature="0" />
      <path
         d="m 138.84592,184.68362 2.39257,0 0,-1.23901 -2.03369,0 c -0.0855,0 -0.16235,0 -0.23071,-0.009 -0.0684,-0.009 -0.11963,-0.0427 -0.16235,-0.094 -0.0427,-0.0513 -0.0769,-0.13672 -0.094,-0.25635 -0.0256,-0.11963 -0.0342,-0.29052 -0.0342,-0.51269 l 0,-9.96338 -4.04174,0 0,1.22192 2.53784,0 0,9.22852 c 0,0.50415 0.14526,0.89722 0.43579,1.18774 0.29053,0.29053 0.70068,0.43579 1.23047,0.43579 z"
         style="font-size:17.5px"
         id="path4297"
         inkscape:connector-curvature="0" />
      <path
         d="m 150.94553,184.68362 0,-1.29882 -4.87915,0 0,-9.86939 -1.54664,0 0,11.16821 6.42579,0 z"
         style="font-size:17.5px"
         id="path4299"
         inkscape:connector-curvature="0" />
      <path
         d="m 160.68674,184.68362 0,-1.38427 -2.49512,0 0,-9.83521 -1.31592,0 -3.55469,1.87134 0.54688,1.26465 2.67456,-1.45264 0,8.15186 -2.87109,0 0,1.38427 7.01538,0 z"
         style="font-size:17.5px"
         id="path4301"
         inkscape:connector-curvature="0" />
      <path
         d="m 179.10959,188.18704 0,-1.19629 -0.50415,0 c -1.31592,0 -1.96533,-0.64941 -1.96533,-1.95678 l 0,-2.92237 c 0,-1.43554 -0.60669,-2.22168 -1.82007,-2.34131 1.19629,-0.17089 1.80298,-0.95703 1.80298,-2.34985 l 0,-1.99097 c 0,-1.28173 0.65796,-1.9226 1.98242,-1.9226 l 0.50415,0 0,-1.19629 -0.63233,0 c -0.59814,0 -1.11084,0.0769 -1.52099,0.22217 -0.41016,0.14526 -0.75195,0.35034 -1.0083,0.62377 -0.25635,0.27344 -0.44434,0.59815 -0.55542,0.98267 -0.11963,0.38452 -0.1709,0.81177 -0.1709,1.29028 l 0,2.02515 c 0,0.29907 -0.0342,0.55542 -0.0855,0.76904 -0.0598,0.22217 -0.16235,0.40161 -0.30762,0.53833 -0.15381,0.13672 -0.35888,0.23926 -0.61523,0.30762 -0.26489,0.0684 -0.60669,0.10254 -1.01685,0.10254 l -0.36743,0 0,1.18774 0.36743,0 c 0.39307,0 0.71778,0.0427 0.97412,0.11963 0.25635,0.0854 0.46997,0.19654 0.62378,0.35034 0.15381,0.15381 0.2649,0.33326 0.33326,0.55542 0.0598,0.22217 0.094,0.46998 0.094,0.74341 l 0,2.93946 c 0,1.05102 0.26489,1.83715 0.80322,2.34985 0.52979,0.51269 1.3501,0.76904 2.45239,0.76904 l 0.63233,0 z"
         style="font-size:17.5px"
         id="path4303"
         inkscape:connector-curvature="0" />
      <path
         d="m 183.04025,172.31058 0,1.19629 0.5127,0 c 1.29883,0 1.95679,0.65796 1.95679,1.95678 l 0,1.95679 c 0,1.43555 0.60668,2.22168 1.82006,2.34985 -1.20483,0.1709 -1.80298,0.95704 -1.80298,2.34131 l 0,2.95655 c 0,1.28173 -0.65795,1.9226 -1.97387,1.9226 l -0.5127,0 0,1.19629 0.63233,0 c 0.59814,0 1.10229,-0.0684 1.52099,-0.21362 0.41016,-0.14526 0.75196,-0.35034 1.0083,-0.62378 0.25635,-0.27344 0.43579,-0.59814 0.55542,-0.98267 0.11109,-0.38452 0.1709,-0.82031 0.1709,-1.29882 l 0,-2.99073 c 0,-0.29052 0.0256,-0.54687 0.0855,-0.76904 0.0513,-0.21362 0.15381,-0.39307 0.30762,-0.52979 0.14526,-0.13671 0.35034,-0.2478 0.61523,-0.31616 0.2649,-0.0684 0.60669,-0.10254 1.02539,-0.10254 l 0.36744,0 0,-1.18774 -0.36744,0 c -0.39306,0 -0.72631,-0.0342 -0.98266,-0.11963 -0.2649,-0.0769 -0.47852,-0.18799 -0.63233,-0.3418 -0.15381,-0.1538 -0.26489,-0.33325 -0.3247,-0.55542 -0.0684,-0.22216 -0.094,-0.46997 -0.094,-0.75195 l 0,-1.97388 c 0,-1.04248 -0.27344,-1.82861 -0.80322,-2.3413 -0.53833,-0.5127 -1.35864,-0.77759 -2.45239,-0.77759 l -0.63233,0 z"
         style="font-size:17.5px"
         id="path4305"
         inkscape:connector-curvature="0" />
      <path
         d="m 207.52145,188.18704 0,-1.19629 -2.79419,0 0,-13.48388 2.79419,0 0,-1.19629 -4.21264,0 0,15.87646 4.21264,0 z"
         style="font-size:17.5px"
         id="path4307"
         inkscape:connector-curvature="0" />
      <path
         d="m 216.67307,188.18704 0,-15.87646 -4.21265,0 0,1.19629 2.7771,0 0,13.48388 -2.7771,0 0,1.19629 4.21265,0 z"
         style="font-size:17.5px"
         id="path4309"
         inkscape:connector-curvature="0" />
      <path
         d="m 231.72922,180.47952 c 0,-1.06811 0.21362,-1.87988 0.65796,-2.4353 0.43579,-0.54688 1.07666,-0.82886 1.91406,-0.82886 0.32471,0 0.62378,0.0342 0.91431,0.10254 0.29052,0.0684 0.54687,0.16236 0.77758,0.26489 l 0,3.98194 c -0.46142,0.6665 -0.90576,1.16211 -1.32446,1.49536 -0.4187,0.3418 -0.81177,0.50415 -1.18774,0.50415 -0.29908,0 -0.55542,-0.0684 -0.77759,-0.21362 -0.22217,-0.13672 -0.40161,-0.3418 -0.54688,-0.60669 -0.14526,-0.2649 -0.25634,-0.5896 -0.3247,-0.97412 -0.0684,-0.37598 -0.10254,-0.81177 -0.10254,-1.29029 z m -0.78614,5.40039 -0.80322,0.88013 c 0.23926,0.39307 0.52124,0.69214 0.8374,0.88867 0.30762,0.19654 0.70923,0.35034 1.19629,0.46143 0.48706,0.11108 1.07666,0.16235 1.77735,0.16235 0.72632,0 1.30737,-0.0855 1.75171,-0.25635 0.44433,-0.17089 0.8374,-0.46997 1.18774,-0.9143 0.3418,-0.44434 0.54688,-1.15357 0.59814,-2.14478 l 0,-9.00635 -1.31591,0.33326 c -0.32471,-0.094 -0.62378,-0.16236 -0.90576,-0.21363 -0.29053,-0.0427 -0.57251,-0.0684 -0.86304,-0.0684 -0.73487,0 -1.36719,0.12818 -1.89697,0.36744 -0.52979,0.2478 -0.96558,0.58105 -1.30738,0.99975 -0.34179,0.4187 -0.5896,0.90576 -0.75195,1.45264 -0.16235,0.55542 -0.23926,1.13647 -0.23926,1.75171 0,0.63232 0.0598,1.21338 0.17944,1.73462 0.11963,0.52978 0.30762,0.97412 0.55542,1.35009 0.24781,0.37598 0.55542,0.66651 0.9314,0.87159 0.36743,0.20507 0.80322,0.30761 1.30737,0.30761 1.11084,0 2.05079,-0.54687 2.80274,-1.64062 l 0,1.64062 c -0.0513,0.65796 -0.22217,1.1792 -0.5127,1.55518 -0.29052,0.37598 -0.76049,0.60669 -1.41845,0.69214 -0.75196,0 -1.3501,-0.0855 -1.79444,-0.27344 -0.34179,-0.094 -0.61523,-0.2478 -0.8374,-0.45288 l -0.47852,-0.47852 z"
         style="font-size:17.5px"
         id="path4311"
         inkscape:connector-curvature="0" />
      <path
         d="m 247.4006,178.47147 c 0,-0.92286 -0.10253,-1.71753 -0.29052,-2.36695 -0.19654,-0.64941 -0.46143,-1.17065 -0.80323,-1.58081 -0.34179,-0.41015 -0.75195,-0.70068 -1.22192,-0.88867 -0.46997,-0.17944 -0.98267,-0.27344 -1.52954,-0.27344 -0.57251,0 -1.09375,0.10254 -1.56372,0.29053 -0.47852,0.19653 -0.88013,0.46143 -1.22193,0.79468 -0.34179,0.33325 -0.59814,0.72632 -0.78613,1.17065 -0.18799,0.45288 -0.28198,0.93994 -0.28198,1.45264 0,0.47851 0.0684,0.92285 0.21362,1.33301 0.13672,0.41015 0.35034,0.76049 0.63233,1.05102 0.28198,0.29907 0.64087,0.52979 1.06811,0.69214 0.42725,0.1709 0.92285,0.2478 1.48682,0.2478 0.54687,0 1.05102,-0.0598 1.52099,-0.18798 0.46143,-0.12818 0.88013,-0.29908 1.23902,-0.5127 l -0.0342,0.35034 c -0.0513,0.52979 -0.16235,1.0083 -0.35034,1.41846 -0.18799,0.41015 -0.46143,0.7605 -0.82032,1.05102 -0.35888,0.29053 -0.80322,0.50415 -1.333,0.64942 -0.53833,0.15381 -1.17066,0.22217 -1.90552,0.22217 l -1.03394,0 0,1.29882 0.9314,0 c 0.99121,0 1.86279,-0.11962 2.62329,-0.35888 0.75195,-0.23926 1.39282,-0.60669 1.90552,-1.11084 0.51269,-0.50415 0.89722,-1.14502 1.16211,-1.93115 0.25635,-0.78614 0.39306,-1.71753 0.39306,-2.81128 z m -3.91357,-3.88794 c 0.36743,0 0.70068,0.0684 0.99121,0.18798 0.29053,0.12818 0.54688,0.3418 0.75195,0.64087 0.20508,0.29908 0.35889,0.69214 0.46997,1.18775 0.10254,0.4956 0.16236,1.10229 0.16236,1.83716 -0.15381,0.10254 -0.33325,0.20507 -0.52124,0.29052 -0.19654,0.094 -0.40161,0.1709 -0.61524,0.23926 -0.21362,0.0684 -0.43579,0.12818 -0.65796,0.16236 -0.22216,0.0427 -0.44433,0.0598 -0.64941,0.0598 -0.37598,0 -0.70068,-0.0513 -0.97412,-0.15381 -0.27344,-0.10254 -0.50415,-0.2478 -0.67505,-0.43579 -0.1709,-0.18799 -0.29907,-0.42725 -0.38452,-0.70068 -0.0855,-0.27344 -0.11963,-0.58106 -0.11963,-0.9314 0,-0.37598 0.0513,-0.71777 0.1709,-1.01685 0.11108,-0.29052 0.26489,-0.53833 0.46142,-0.7434 0.19654,-0.20508 0.42725,-0.35889 0.70069,-0.46143 0.27344,-0.10254 0.56396,-0.16235 0.88867,-0.16235 z"
         style="font-size:17.5px"
         id="path4313"
         inkscape:connector-curvature="0" />
      <path
         d="m 249.41721,180.57352 c 0,0.63232 0.0598,1.21338 0.17944,1.73462 0.11963,0.52978 0.30762,0.97412 0.55542,1.35009 0.2478,0.37598 0.55542,0.66651 0.9314,0.87159 0.36743,0.20507 0.80322,0.30761 1.30737,0.30761 1.11084,0 2.07641,-0.57251 2.88818,-1.72607 l -0.0769,1.83716 0,3.23852 1.49536,0 0,-12.23633 -1.31592,0.33326 c -0.32471,-0.094 -0.62378,-0.16236 -0.90576,-0.21363 -0.29053,-0.0427 -0.57251,-0.0684 -0.86304,-0.0684 -0.73486,0 -1.36719,0.12818 -1.89697,0.36744 -0.52979,0.2478 -0.96558,0.58105 -1.30737,0.99975 -0.3418,0.4187 -0.5896,0.90576 -0.75196,1.45264 -0.16235,0.55542 -0.23925,1.13647 -0.23925,1.75171 z m 1.52099,-0.094 c 0,-1.06811 0.21362,-1.87988 0.65796,-2.4353 0.43579,-0.54688 1.07666,-0.82886 1.91406,-0.82886 0.32471,0 0.62378,0.0342 0.91431,0.10254 0.29053,0.0684 0.54688,0.16236 0.77759,0.26489 l 0,3.98194 c -0.46143,0.6665 -0.90576,1.16211 -1.32446,1.49536 -0.41871,0.3418 -0.81177,0.50415 -1.18775,0.50415 -0.29907,0 -0.55542,-0.0684 -0.77759,-0.21362 -0.22216,-0.13672 -0.40161,-0.3418 -0.54687,-0.60669 -0.14527,-0.2649 -0.25635,-0.5896 -0.32471,-0.97412 -0.0684,-0.37598 -0.10254,-0.81177 -0.10254,-1.29029 z"
         style="font-size:17.5px"
         id="path4315"
         inkscape:connector-curvature="0" />
      <path
         d="m 266.62668,184.26492 0,-1.43554 c -0.41016,0.20507 -0.82886,0.35888 -1.26465,0.46997 -0.44434,0.11108 -0.89722,0.16235 -1.37573,0.16235 -1.13648,0 -1.99951,-0.36743 -2.58057,-1.10229 -0.5896,-0.73487 -0.88013,-1.82007 -0.88013,-3.27271 0,-0.68359 0.0769,-1.29883 0.23926,-1.83716 0.15381,-0.53833 0.38452,-0.99121 0.6836,-1.36719 0.29052,-0.37597 0.64941,-0.65795 1.07666,-0.85449 0.42724,-0.19653 0.89721,-0.29907 1.427,-0.29907 0.51269,0 0.98266,0.0598 1.41845,0.17944 0.42725,0.11963 0.84595,0.28199 1.25611,0.50415 l 0,-1.49536 c -0.41016,-0.17944 -0.8374,-0.31616 -1.28174,-0.40161 -0.44434,-0.0855 -0.9314,-0.13672 -1.44409,-0.13672 -0.76904,0 -1.45264,0.13672 -2.06787,0.41016 -0.61524,0.27344 -1.14502,0.6665 -1.57227,1.17065 -0.43579,0.50415 -0.76904,1.11939 -0.99975,1.83716 -0.23926,0.72632 -0.35035,1.53809 -0.35035,2.42676 0,1.8457 0.41871,3.24707 1.26465,4.18701 0.84595,0.93994 2.05933,1.40991 3.64014,1.40991 0.97412,0 1.91406,-0.17944 2.81128,-0.55542 z"
         style="font-size:17.5px"
         id="path4317"
         inkscape:connector-curvature="0" />
      <path
         d="m 276.35934,175.42947 0,-1.51245 c -0.4187,-0.18799 -0.85449,-0.33325 -1.30737,-0.4187 -0.45288,-0.0855 -0.9314,-0.13672 -1.427,-0.13672 -0.78613,0 -1.51245,0.13672 -2.16187,0.40161 -0.64941,0.2649 -1.21337,0.64942 -1.6748,1.15357 -0.46143,0.50415 -0.82031,1.11938 -1.07666,1.8457 -0.25635,0.72632 -0.38452,1.54663 -0.38452,2.46094 0,0.92285 0.11108,1.73462 0.34179,2.4353 0.23072,0.70069 0.56397,1.29029 0.99122,1.76026 0.42724,0.46997 0.94848,0.82031 1.56372,1.05957 0.61523,0.23925 1.29882,0.35888 2.06787,0.35888 0.2478,0 0.50415,-0.009 0.77759,-0.0427 0.26489,-0.0256 0.52978,-0.0684 0.80322,-0.12818 0.27344,-0.0513 0.53833,-0.12817 0.79468,-0.21362 0.25634,-0.0855 0.50415,-0.17944 0.7434,-0.29053 l 0,-5.708 -3.7854,0 0,1.2561 2.2815,0 0,3.55469 c -0.094,0.0342 -0.19654,0.0684 -0.31616,0.094 -0.11963,0.0342 -0.23926,0.0598 -0.35889,0.0769 -0.12817,0.0171 -0.25635,0.0342 -0.37598,0.0427 -0.12817,0.0171 -0.2478,0.0171 -0.35034,0.0171 -0.63232,0 -1.1792,-0.094 -1.63208,-0.29907 -0.45288,-0.19654 -0.82031,-0.48706 -1.11084,-0.86304 -0.29053,-0.37598 -0.50415,-0.82886 -0.64087,-1.37573 -0.13672,-0.53833 -0.20508,-1.15357 -0.20508,-1.83716 0,-0.64941 0.0769,-1.24756 0.24781,-1.79443 0.17089,-0.53833 0.41015,-0.99976 0.72631,-1.38428 0.31617,-0.38452 0.70923,-0.68359 1.17066,-0.89722 0.46142,-0.20508 0.98266,-0.31616 1.58081,-0.31616 0.51269,0 0.99121,0.0684 1.43555,0.18799 0.43579,0.11963 0.86303,0.29053 1.28173,0.51269 z"
         style="font-size:17.5px"
         id="path4319"
         inkscape:connector-curvature="0" />
      <path
         d="m 281.3923,184.78616 c 0.0342,0.49561 0.13672,0.92285 0.30762,1.29883 0.1709,0.37598 0.39307,0.6836 0.67505,0.9314 0.28198,0.2478 0.61523,0.43579 0.99976,0.55542 0.37597,0.12817 0.79467,0.18799 1.2561,0.18799 0.4187,0 0.82886,-0.0598 1.23047,-0.19654 0.39306,-0.12817 0.78613,-0.35034 1.16211,-0.65796 l -0.67505,-1.05102 c -0.27344,0.22217 -0.54688,0.37598 -0.81177,0.46142 -0.26489,0.094 -0.52978,0.13672 -0.80322,0.13672 -0.57251,0 -1.01685,-0.14526 -1.32446,-0.45288 -0.31617,-0.30761 -0.5127,-0.70923 -0.59815,-1.21338 0.52124,-0.0855 1.0083,-0.26489 1.46973,-0.53833 0.45288,-0.27343 0.84594,-0.64941 1.18774,-1.12793 0.33325,-0.47851 0.59815,-1.05957 0.79468,-1.74316 0.18799,-0.68359 0.29053,-1.48682 0.29053,-2.40112 0,-0.86304 -0.094,-1.64063 -0.2649,-2.33277 -0.17089,-0.69214 -0.43579,-1.28174 -0.78613,-1.7688 -0.35889,-0.48706 -0.80322,-0.86303 -1.33301,-1.11938 -0.52978,-0.25635 -1.15356,-0.39307 -1.87133,-0.39307 -0.59815,0 -1.17066,0.11963 -1.70044,0.35034 -0.53833,0.23072 -1.00831,0.5896 -1.40992,1.06812 -0.40161,0.47852 -0.71777,1.09375 -0.94848,1.82861 -0.23926,0.74341 -0.35034,1.62354 -0.35034,2.63184 0,0.78613 0.0684,1.50391 0.21362,2.15332 0.13672,0.64941 0.35889,1.20483 0.64941,1.68335 0.29053,0.47851 0.64942,0.85449 1.09375,1.14502 0.43579,0.29053 0.94849,0.47851 1.54663,0.56396 z m 3.58033,-5.6311 c 0,0.59814 -0.0598,1.16211 -0.16236,1.69189 -0.11108,0.52979 -0.28198,0.98267 -0.50415,1.37574 -0.22217,0.39306 -0.51269,0.70923 -0.85449,0.93139 -0.35034,0.23072 -0.7605,0.3418 -1.23901,0.3418 -0.49561,0 -0.91431,-0.10254 -1.25611,-0.31616 -0.35034,-0.21363 -0.63232,-0.52124 -0.85449,-0.91431 -0.22217,-0.39307 -0.37598,-0.86304 -0.47852,-1.40991 -0.10253,-0.54688 -0.1538,-1.16211 -0.1538,-1.8457 0,-0.58106 0.0513,-1.13648 0.16235,-1.65772 0.10254,-0.52124 0.27344,-0.97412 0.49561,-1.36719 0.22216,-0.39306 0.50415,-0.70068 0.84594,-0.93139 0.3418,-0.22217 0.7605,-0.3418 1.23902,-0.3418 0.4956,0 0.9143,0.11108 1.26464,0.32471 0.35035,0.22217 0.64087,0.52124 0.86304,0.9143 0.22217,0.39307 0.37598,0.8545 0.47852,1.40137 0.10254,0.54688 0.15381,1.14502 0.15381,1.80298 z"
         style="font-size:17.5px"
         id="path4321"
         inkscape:connector-curvature="0" />
      <path
         d="m 305.74533,178.73636 -1.36719,0 c 0,0.58105 -0.0769,1.0083 -0.23071,1.26465 -0.15381,0.26489 -0.41016,0.39306 -0.76904,0.39306 -0.19654,0 -0.37598,-0.0513 -0.54688,-0.15381 -0.1709,-0.10253 -0.35034,-0.23925 -0.52124,-0.40161 -0.1709,-0.15381 -0.35034,-0.33325 -0.52978,-0.52124 -0.17945,-0.18798 -0.37598,-0.35888 -0.5896,-0.52124 -0.21363,-0.15381 -0.44434,-0.29052 -0.69214,-0.39306 -0.25635,-0.10254 -0.53833,-0.16236 -0.84595,-0.16236 -0.41015,0 -0.7605,0.0769 -1.06811,0.23072 -0.30762,0.1538 -0.55542,0.35888 -0.7605,0.63232 -0.20508,0.27344 -0.35034,0.5896 -0.45288,0.95703 -0.10254,0.36743 -0.14527,0.76904 -0.12818,1.19629 l 1.36719,0 c 0,-0.57251 0.0769,-0.99121 0.23926,-1.26465 0.16235,-0.26489 0.41016,-0.40161 0.75195,-0.40161 0.18799,0 0.37598,0.0598 0.54688,0.16235 0.1709,0.10254 0.34179,0.23926 0.51269,0.39307 0.1709,0.16235 0.35034,0.33325 0.52979,0.52124 0.17944,0.18799 0.37597,0.36743 0.5896,0.52124 0.21362,0.16235 0.44433,0.29907 0.70068,0.40161 0.2478,0.10254 0.52979,0.15381 0.84595,0.15381 0.40161,0 0.75195,-0.0684 1.05957,-0.22217 0.30762,-0.15381 0.56396,-0.35888 0.76904,-0.63232 0.20508,-0.26489 0.35034,-0.58106 0.45288,-0.94849 0.094,-0.36743 0.13672,-0.76904 0.13672,-1.20483 z"
         style="font-size:17.5px"
         id="path4323"
         inkscape:connector-curvature="0" />
      <path
         d="m 313.68356,180.72733 0,-1.40137 -5.10986,0 0,1.40137 5.10986,0 z"
         style="font-size:17.5px"
         id="path4325"
         inkscape:connector-curvature="0" />
      <path
         d="m 324.86032,180.67606 0,-1.29883 -3.35815,0 0,-3.4607 -1.46973,0 0,3.4607 -3.35815,0 0,1.29883 3.35815,0 0,3.48632 1.46973,0 0,-3.48632 3.35815,0 z"
         style="font-size:17.5px"
         id="path4327"
         inkscape:connector-curvature="0" />
      <path
         d="m 334.08029,179.1636 0,-1.2561 -7.34863,0 0,1.2561 7.34863,0 z m 0,2.97364 0,-1.25611 -7.34863,0 0,1.25611 7.34863,0 z"
         style="font-size:17.5px"
         id="path4329"
         inkscape:connector-curvature="0" />
      <path
         d="m 337.01974,176.18143 4.65699,3.8623 -4.65699,3.83667 0.92286,0.93994 5.74218,-4.7937 -5.74218,-4.7937 -0.92286,0.94849 z"
         style="font-size:17.5px"
         id="path4331"
         inkscape:connector-curvature="0" />
    </g>
  </g>
</svg>
