<?xml version="1.0" encoding="UTF-8" standalone="no"?>
<svg
   version="1.1"
   id="svg2"
   viewBox="0 0 325.76523 109.06749"
   height="30.781269mm"
   width="91.938187mm"
   sodipodi:docname="CommitMono Nerd Font.svg"
   xmlns:inkscape="http://www.inkscape.org/namespaces/inkscape"
   xmlns:sodipodi="http://sodipodi.sourceforge.net/DTD/sodipodi-0.dtd"
   xmlns="http://www.w3.org/2000/svg"
   xmlns:svg="http://www.w3.org/2000/svg"
   xmlns:rdf="http://www.w3.org/1999/02/22-rdf-syntax-ns#"
   xmlns:cc="http://creativecommons.org/ns#"
   xmlns:dc="http://purl.org/dc/elements/1.1/">
  <sodipodi:namedview
     id="namedview12"
     pagecolor="#ffffff"
     bordercolor="#666666"
     borderopacity="1.0"
     inkscape:showpageshadow="2"
     inkscape:pageopacity="0.0"
     inkscape:pagecheckerboard="0"
     inkscape:deskcolor="#d1d1d1"
     inkscape:document-units="mm" />
  <defs
     id="defs4" />
  <metadata
     id="metadata7">
    <rdf:RDF>
      <cc:Work
         rdf:about="">
        <dc:format>image/svg+xml</dc:format>
        <dc:type
           rdf:resource="http://purl.org/dc/dcmitype/StillImage" />
        <dc:title />
      </cc:Work>
    </rdf:RDF>
  </metadata>
  <g
     id="layer1"
     transform="translate(-64.452143,-79.291132)">
    <g
       aria-label="CommitMono Nerd Font"
       id="text4136"
       style="font-size:27.5px;font-family:'CommitMono Nerd Font';letter-spacing:0px;word-spacing:0px;fill:#ffffff">
      <path
         d="M 75.672143,96.038632 C 75.287143,97.826132 73.774643,99.008632 71.877143,99.008632 68.824643,99.008632 66.872143,96.011132 66.872143,91.336132 66.872143,86.661132 68.824643,83.608632 71.849643,83.608632 73.637143,83.608632 75.094643,84.681132 75.479643,86.303632 H 77.789643 C 77.322143,83.443632 74.847143,81.408632 71.767143,81.408632 67.449643,81.408632 64.452143,85.423632 64.452143,91.308632 64.452143,97.166132 67.449643,101.20863 71.822143,101.20863 74.984643,101.20863 77.542143,99.063632 77.954643,96.038632 Z"
         id="path14" />
      <path
         d="M 87.112155,101.20863 C 90.852155,101.20863 93.602155,97.991132 93.602155,93.508632 93.602155,89.026132 90.852155,85.808632 87.112155,85.808632 83.372155,85.808632 80.622155,89.026132 80.622155,93.508632 80.622155,97.991132 83.372155,101.20863 87.112155,101.20863 Z M 87.112155,99.118632 C 84.664655,99.118632 82.959655,96.808632 82.959655,93.508632 82.959655,90.208632 84.664655,87.898632 87.112155,87.898632 89.559655,87.898632 91.264655,90.208632 91.264655,93.508632 91.264655,96.808632 89.559655,99.118632 87.112155,99.118632 Z"
         id="path16" />
      <path
         d="M 96.159666,100.93363 H 98.414666 V 90.648632 C 98.414666,88.943632 99.294666,87.733632 100.53217,87.733632 101.57717,87.733632 102.20967,88.613632 102.20967,90.098632 V 100.93363 H 104.46467 V 90.593632 C 104.46467,88.916132 105.34467,87.733632 106.55467,87.733632 107.59967,87.733632 108.25967,88.641132 108.25967,90.098632 V 100.93363 H 110.51467 V 89.796132 C 110.51467,87.348632 109.16717,85.808632 107.04967,85.808632 105.56467,85.808632 104.49217,86.551132 103.96967,87.981132 H 103.85967 C 103.47467,86.633632 102.42967,85.808632 101.08217,85.808632 99.817166,85.808632 98.744666,86.523632 98.359666,87.678632 H 98.249666 V 86.083632 H 96.159666 Z"
         id="path18" />
      <path
         d="M 114.69468,100.93363 H 116.94968 V 90.648632 C 116.94968,88.943632 117.82968,87.733632 119.06718,87.733632 120.11218,87.733632 120.74468,88.613632 120.74468,90.098632 V 100.93363 H 122.99968 V 90.593632 C 122.99968,88.916132 123.87968,87.733632 125.08968,87.733632 126.13468,87.733632 126.79468,88.641132 126.79468,90.098632 V 100.93363 H 129.04968 V 89.796132 C 129.04968,87.348632 127.70218,85.808632 125.58468,85.808632 124.09968,85.808632 123.02718,86.551132 122.50468,87.981132 H 122.39468 C 122.00968,86.633632 120.96468,85.808632 119.61718,85.808632 118.35218,85.808632 117.27968,86.523632 116.89468,87.678632 H 116.78468 V 86.083632 H 114.69468 Z"
         id="path20" />
      <path
         d="M 133.03719,100.93363 H 144.25719 V 98.871132 H 139.80219 V 86.083632 H 133.17469 V 88.146132 H 137.49219 V 98.871132 H 133.03719 Z M 136.30969,81.298632 C 136.30969,82.426132 137.24469,83.333632 138.34469,83.333632 139.47219,83.333632 140.37969,82.426132 140.37969,81.298632 140.37969,80.171132 139.47219,79.291132 138.34469,79.291132 137.24469,79.291132 136.30969,80.171132 136.30969,81.298632 Z"
         id="path22" />
      <path
         d="M 152.5897,95.956132 V 88.146132 H 157.7322 V 86.083632 H 152.5897 V 81.408632 L 150.2797,81.793632 V 86.083632 H 146.0997 V 88.146132 H 150.2797 V 95.956132 C 150.2797,99.393632 151.9572,101.20863 155.1472,101.20863 156.2472,101.20863 157.2372,100.98863 158.0072,100.57613 V 98.651132 C 157.1822,99.063632 156.3572,99.256132 155.5322,99.256132 153.5522,99.256132 152.5897,98.183632 152.5897,95.956132 Z"
         id="path24" />
      <path
         d="M 164.77221,84.488632 H 164.88221 L 168.53971,96.753632 H 170.68471 L 174.34221,84.488632 H 174.45221 V 100.93363 H 176.70721 V 81.683632 H 173.26971 L 169.66721,93.866132 H 169.55721 L 165.95471,81.683632 H 162.51721 V 100.93363 H 164.77221 Z"
         id="path26" />
      <path
         d="M 187.43222,101.20863 C 191.17222,101.20863 193.92222,97.991132 193.92222,93.508632 193.92222,89.026132 191.17222,85.808632 187.43222,85.808632 183.69222,85.808632 180.94222,89.026132 180.94222,93.508632 180.94222,97.991132 183.69222,101.20863 187.43222,101.20863 Z M 187.43222,99.118632 C 184.98472,99.118632 183.27972,96.808632 183.27972,93.508632 183.27972,90.208632 184.98472,87.898632 187.43222,87.898632 189.87972,87.898632 191.58472,90.208632 191.58472,93.508632 191.58472,96.808632 189.87972,99.118632 187.43222,99.118632 Z"
         id="path28" />
      <path
         d="M 197.79973,100.93363 H 200.10973 V 92.353632 C 200.10973,89.658632 201.59473,87.761132 203.68473,87.761132 205.38973,87.761132 206.46223,89.053632 206.46223,91.088632 V 100.93363 H 208.77223 V 90.896132 C 208.77223,87.843632 206.95723,85.808632 204.20723,85.808632 202.33723,85.808632 200.87973,86.743632 200.08223,88.338632 H 199.97223 V 86.083632 H 197.79973 Z"
         id="path30" />
      <path
         d="M 219.60725,101.20863 C 223.34725,101.20863 226.09725,97.991132 226.09725,93.508632 226.09725,89.026132 223.34725,85.808632 219.60725,85.808632 215.86725,85.808632 213.11725,89.026132 213.11725,93.508632 213.11725,97.991132 215.86725,101.20863 219.60725,101.20863 Z M 219.60725,99.118632 C 217.15975,99.118632 215.45475,96.808632 215.45475,93.508632 215.45475,90.208632 217.15975,87.898632 219.60725,87.898632 222.05475,87.898632 223.75975,90.208632 223.75975,93.508632 223.75975,96.808632 222.05475,99.118632 219.60725,99.118632 Z"
         id="path32" />
      <path
         d="M 256.92477,97.441132 H 256.81477 L 249.58227,81.683632 H 246.06227 V 100.93363 H 248.28977 V 84.158632 H 248.39977 L 256.07227,100.93363 H 259.15227 V 81.683632 H 256.92477 Z"
         id="path34" />
      <path
         d="M 266.43978,93.948632 H 276.50478 V 93.068632 C 276.50478,88.778632 274.02978,85.808632 270.45478,85.808632 266.76978,85.808632 264.15728,88.971132 264.15728,93.426132 264.15728,97.963632 266.90728,101.20863 270.75728,101.20863 273.47978,101.20863 275.67978,99.586132 276.22978,97.138632 H 274.02978 C 273.58978,98.376132 272.35228,99.173632 270.81228,99.173632 268.28228,99.173632 266.60478,97.111132 266.43978,93.948632 Z M 270.45478,87.816132 C 272.54478,87.816132 274.11228,89.521132 274.22228,92.133632 H 266.52228 C 266.90728,89.493632 268.39228,87.816132 270.45478,87.816132 Z"
         id="path36" />
      <path
         d="M 283.3248,100.93363 V 92.491132 C 283.3248,89.796132 284.7823,87.926132 286.8448,87.926132 288.1373,87.926132 289.1273,88.668632 289.3748,89.878632 H 291.7398 C 291.4648,87.458632 289.7873,85.891132 287.4498,85.891132 285.6073,85.891132 284.1223,86.853632 283.2973,88.476132 H 283.1873 V 86.083632 H 281.0148 V 100.93363 Z"
         id="path38" />
      <path
         d="M 305.4623,100.93363 H 307.6623 C 307.5523,99.201132 307.4698,97.386132 307.4698,95.983632 V 80.583632 H 305.1598 V 88.558632 H 305.0223 C 304.1148,86.798632 302.6023,85.808632 300.7048,85.808632 297.2398,85.808632 294.6823,89.081132 294.6823,93.508632 294.6823,97.963632 297.2398,101.20863 300.7048,101.20863 302.6848,101.20863 304.1973,100.13613 305.1048,98.266132 H 305.2423 C 305.2973,99.146132 305.3523,100.02613 305.4623,100.93363 Z M 301.1723,99.118632 C 298.7523,99.118632 297.0198,96.753632 297.0198,93.508632 297.0198,90.263632 298.7798,87.898632 301.1998,87.898632 303.5648,87.898632 305.2148,90.181132 305.2148,93.508632 305.2148,96.808632 303.5648,99.118632 301.1723,99.118632 Z"
         id="path40" />
      <path
         d="M 330.04733,100.93363 H 332.46733 V 92.381132 H 340.27733 V 90.236132 H 332.46733 V 83.828632 H 341.48733 V 81.683632 H 330.04733 Z"
         id="path42" />
      <path
         d="M 351.60733,101.20863 C 355.34733,101.20863 358.09733,97.991132 358.09733,93.508632 358.09733,89.026132 355.34733,85.808632 351.60733,85.808632 347.86733,85.808632 345.11733,89.026132 345.11733,93.508632 345.11733,97.991132 347.86733,101.20863 351.60733,101.20863 Z M 351.60733,99.118632 C 349.15983,99.118632 347.45483,96.808632 347.45483,93.508632 347.45483,90.208632 349.15983,87.898632 351.60733,87.898632 354.05483,87.898632 355.75983,90.208632 355.75983,93.508632 355.75983,96.808632 354.05483,99.118632 351.60733,99.118632 Z"
         id="path44" />
      <path
         d="M 363.29486,100.93363 H 365.60486 V 92.353632 C 365.60486,89.658632 367.08986,87.761132 369.17986,87.761132 370.88486,87.761132 371.95736,89.053632 371.95736,91.088632 V 100.93363 H 374.26736 V 90.896132 C 374.26736,87.843632 372.45236,85.808632 369.70236,85.808632 367.83236,85.808632 366.37486,86.743632 365.57736,88.338632 H 365.46736 V 86.083632 H 363.29486 Z"
         id="path46" />
      <path
         d="M 384.79986,95.956132 V 88.146132 H 389.94236 V 86.083632 H 384.79986 V 81.408632 L 382.48986,81.793632 V 86.083632 H 378.30986 V 88.146132 H 382.48986 V 95.956132 C 382.48986,99.393632 384.16736,101.20863 387.35736,101.20863 388.45736,101.20863 389.44736,100.98863 390.21736,100.57613 V 98.651132 C 389.39236,99.063632 388.56736,99.256132 387.74236,99.256132 385.76236,99.256132 384.79986,98.183632 384.79986,95.956132 Z"
         id="path48" />
    </g>
    <g
       aria-label="abcdefghijklmnopqrstuvwxyzABCDEFGHIJKLMNOPQRSTUVWXYZ oO08 iIlL1 {} [] g9qCGQ ~-+=&gt;"
       id="text4140"
       style="font-size:17.5px;font-family:'CommitMono Nerd Font';letter-spacing:0px;word-spacing:0px;fill:#ffffff">
      <path
         d="M 72.629403,134.19612 C 72.629403,134.84362 72.331903,135.15862 71.666903,135.22862 L 70.791903,135.31612 C 68.131903,135.56112 66.836903,136.50612 66.836903,138.23862 66.836903,139.93612 68.079403,141.10862 69.846903,141.10862 71.124403,141.10862 72.121903,140.49612 72.664403,139.42862 H 72.734403 C 72.804403,140.04112 72.909403,140.54862 73.049403,140.93362 H 74.449403 C 74.204403,140.11112 74.099403,139.02612 74.099403,137.55612 V 134.21362 C 74.099403,132.46362 72.734403,131.30862 70.686903,131.30862 68.726903,131.30862 67.256903,132.39362 67.186903,133.89862 H 68.621903 C 68.726903,133.09362 69.566903,132.55112 70.686903,132.55112 71.894403,132.55112 72.629403,133.18112 72.629403,134.19612 Z M 72.629403,135.94612 V 137.25862 C 72.629403,138.76362 71.509403,139.90112 70.109403,139.90112 69.024403,139.90112 68.306903,139.23612 68.306903,138.20362 68.306903,137.11862 69.111903,136.55862 70.949403,136.33112 L 71.789403,136.24362 C 72.139403,136.19112 72.419403,136.10362 72.629403,135.94612 Z"
         id="path51" />
      <path
         d="M 77.44191,140.93362 H 78.82441 V 139.16612 H 78.89441 C 79.47191,140.40862 80.46941,141.10862 81.76441,141.10862 83.98691,141.10862 85.57941,139.04362 85.57941,136.20862 85.57941,133.37362 83.96941,131.30862 81.74691,131.30862 80.52191,131.30862 79.55941,131.93862 78.98191,133.07612 H 78.91191 V 127.98362 H 77.44191 Z M 81.50191,139.77862 C 79.96191,139.77862 78.87691,138.30862 78.87691,136.20862 78.87691,134.10862 79.96191,132.63862 81.50191,132.63862 83.04191,132.63862 84.09191,134.09112 84.09191,136.20862 84.09191,138.32612 83.04191,139.77862 81.50191,139.77862 Z"
         id="path53" />
      <path
         d="M 94.154416,138.51862 C 93.909416,139.30612 93.104416,139.79612 92.106916,139.79612 90.391916,139.79612 89.271916,138.32612 89.271916,136.17362 89.271916,134.07362 90.356916,132.62112 92.036916,132.62112 93.016916,132.62112 93.786916,133.11112 94.049416,133.89862 H 95.484416 C 95.221916,132.35862 93.804416,131.30862 92.036916,131.30862 89.586916,131.30862 87.801916,133.35612 87.801916,136.19112 87.801916,139.00862 89.604416,141.10862 92.089416,141.10862 93.839416,141.10862 95.309416,140.05862 95.606916,138.51862 Z"
         id="path55" />
      <path
         d="M 104.61942,140.93362 H 106.01942 C 105.94942,139.83112 105.89692,138.67612 105.89692,137.78362 V 127.98362 H 104.42692 V 133.05862 H 104.33942 C 103.76192,131.93862 102.79942,131.30862 101.59192,131.30862 99.386922,131.30862 97.759422,133.39112 97.759422,136.20862 97.759422,139.04362 99.386922,141.10862 101.59192,141.10862 102.85192,141.10862 103.81442,140.42612 104.39192,139.23612 H 104.47942 C 104.51442,139.79612 104.54942,140.35612 104.61942,140.93362 Z M 101.88942,139.77862 C 100.34942,139.77862 99.246922,138.27362 99.246922,136.20862 99.246922,134.14362 100.36692,132.63862 101.90692,132.63862 103.41192,132.63862 104.46192,134.09112 104.46192,136.20862 104.46192,138.30862 103.41192,139.77862 101.88942,139.77862 Z"
         id="path57" />
      <path
         d="M 110.51693,136.48862 H 116.92193 V 135.92862 C 116.92193,133.19862 115.34693,131.30862 113.07193,131.30862 110.72693,131.30862 109.06443,133.32112 109.06443,136.15612 109.06443,139.04362 110.81443,141.10862 113.26443,141.10862 114.99693,141.10862 116.39693,140.07612 116.74693,138.51862 H 115.34693 C 115.06693,139.30612 114.27943,139.81362 113.29943,139.81362 111.68943,139.81362 110.62193,138.50112 110.51693,136.48862 Z M 113.07193,132.58612 C 114.40193,132.58612 115.39943,133.67112 115.46943,135.33362 H 110.56943 C 110.81443,133.65362 111.75943,132.58612 113.07193,132.58612 Z"
         id="path59" />
      <path
         d="M 121.99694,140.93362 H 123.46694 V 132.79612 H 126.73944 V 131.48362 H 123.46694 V 131.15112 C 123.46694,129.73362 124.07944,129.05112 125.33944,129.05112 125.86444,129.05112 126.38944,129.17362 126.91444,129.43612 V 128.21112 C 126.42444,127.94862 125.79444,127.80862 125.09444,127.80862 123.06444,127.80862 121.99694,128.96362 121.99694,131.15112 V 131.48362 H 119.33694 V 132.79612 H 121.99694 Z"
         id="path61" />
      <path
         d="M 129.92444,134.47612 C 129.92444,135.47362 130.32694,136.33112 131.00944,136.90862 130.37944,137.24112 130.01194,137.78362 130.01194,138.46612 130.01194,139.04362 130.29194,139.53362 130.74694,139.83112 V 139.90112 C 129.85444,140.28612 129.27694,141.03862 129.27694,141.94862 129.27694,143.50612 130.95694,144.60862 133.30194,144.60862 135.83944,144.60862 137.62444,143.34862 137.62444,141.56362 137.62444,140.07612 136.38194,139.11362 134.47444,139.11362 H 132.11194 C 131.63944,139.11362 131.28944,138.78112 131.28944,138.32612 131.28944,137.94112 131.53444,137.64362 131.91944,137.45112 132.32194,137.60862 132.77694,137.69612 133.24944,137.69612 135.17444,137.69612 136.59194,136.33112 136.59194,134.47612 136.59194,133.81112 136.39944,133.21612 136.08444,132.72612 V 132.70862 H 137.50194 V 131.48362 H 134.42194 C 134.05444,131.36112 133.66944,131.30862 133.24944,131.30862 131.32444,131.30862 129.92444,132.63862 129.92444,134.47612 Z M 132.14694,140.49612 H 134.36944 C 135.48944,140.49612 136.15444,140.95112 136.15444,141.70362 136.15444,142.71862 135.03444,143.38362 133.33694,143.38362 131.70944,143.38362 130.62444,142.75362 130.62444,141.80862 130.62444,141.07362 131.28944,140.49612 132.14694,140.49612 Z M 133.24944,136.45362 C 132.12944,136.45362 131.35944,135.66612 131.35944,134.52862 131.35944,133.39112 132.12944,132.60362 133.24944,132.60362 134.38694,132.60362 135.15694,133.39112 135.15694,134.52862 135.15694,135.66612 134.38694,136.45362 133.24944,136.45362 Z"
         id="path63" />
      <path
         d="M 141.10695,140.93362 H 142.57695 V 135.47362 C 142.57695,133.77612 143.52195,132.55112 144.83445,132.55112 145.91945,132.55112 146.61945,133.39112 146.61945,134.66862 V 140.93362 H 148.08945 V 134.54612 C 148.08945,132.60362 146.93445,131.30862 145.20195,131.30862 144.06445,131.30862 143.17195,131.86862 142.64695,132.83112 H 142.57695 V 127.98362 H 141.10695 Z"
         id="path65" />
      <path
         d="M 151.62446,140.93362 H 158.76446 V 139.62112 H 155.92946 V 131.48362 H 151.71196 V 132.79612 H 154.45946 V 139.62112 H 151.62446 Z M 153.70696,128.43862 C 153.70696,129.15612 154.30196,129.73362 155.00196,129.73362 155.71946,129.73362 156.29696,129.15612 156.29696,128.43862 156.29696,127.72112 155.71946,127.16112 155.00196,127.16112 154.30196,127.16112 153.70696,127.72112 153.70696,128.43862 Z"
         id="path67" />
      <path
         d="M 166.70946,141.26612 V 131.48362 H 161.87946 V 132.79612 H 165.23946 V 141.26612 C 165.23946,142.68362 164.62696,143.36612 163.36696,143.36612 162.84196,143.36612 162.31696,143.24362 161.79196,142.98112 V 144.20612 C 162.28196,144.46862 162.91196,144.60862 163.61196,144.60862 165.64196,144.60862 166.70946,143.45362 166.70946,141.26612 Z M 164.50446,128.43862 C 164.50446,129.15612 165.09946,129.73362 165.79946,129.73362 166.51696,129.73362 167.09446,129.15612 167.09446,128.43862 167.09446,127.72112 166.51696,127.16112 165.79946,127.16112 165.09946,127.16112 164.50446,127.72112 164.50446,128.43862 Z"
         id="path69" />
      <path
         d="M 172.08197,140.93362 H 173.55197 V 138.20362 L 175.23197,136.40112 178.34697,140.93362 H 180.09697 L 176.22947,135.31612 179.79947,131.48362 H 177.92697 L 173.55197,136.24362 V 127.98362 H 172.08197 Z"
         id="path71" />
      <path
         d="M 185.81948,137.76612 V 127.98362 H 181.53198 V 129.29612 H 184.34948 V 137.76612 C 184.34948,139.95362 185.41698,141.10862 187.44698,141.10862 188.14698,141.10862 188.77698,140.96862 189.26698,140.70612 V 139.48112 C 188.74198,139.74362 188.21698,139.86612 187.69198,139.86612 186.43198,139.86612 185.81948,139.18362 185.81948,137.76612 Z"
         id="path73" />
      <path
         d="M 191.82198,140.93362 H 193.25698 V 134.38862 C 193.25698,133.30362 193.81698,132.53362 194.60448,132.53362 195.26948,132.53362 195.67198,133.09362 195.67198,134.03862 V 140.93362 H 197.10698 V 134.35362 C 197.10698,133.28612 197.66698,132.53362 198.43698,132.53362 199.10198,132.53362 199.52198,133.11112 199.52198,134.03862 V 140.93362 H 200.95698 V 133.84612 C 200.95698,132.28862 200.09948,131.30862 198.75198,131.30862 197.80698,131.30862 197.12448,131.78112 196.79198,132.69112 H 196.72198 C 196.47698,131.83362 195.81198,131.30862 194.95448,131.30862 194.14948,131.30862 193.46698,131.76362 193.22198,132.49862 H 193.15198 V 131.48362 H 191.82198 Z"
         id="path75" />
      <path
         d="M 204.31699,140.93362 H 205.78699 V 135.47362 C 205.78699,133.75862 206.73199,132.55112 208.06199,132.55112 209.14699,132.55112 209.82949,133.37362 209.82949,134.66862 V 140.93362 H 211.29949 V 134.54612 C 211.29949,132.60362 210.14449,131.30862 208.39449,131.30862 207.20449,131.30862 206.27699,131.90362 205.76949,132.91862 H 205.69949 V 131.48362 H 204.31699 Z"
         id="path77" />
      <path
         d="M 217.66949,141.10862 C 220.04949,141.10862 221.79949,139.06112 221.79949,136.20862 221.79949,133.35612 220.04949,131.30862 217.66949,131.30862 215.28949,131.30862 213.53949,133.35612 213.53949,136.20862 213.53949,139.06112 215.28949,141.10862 217.66949,141.10862 Z M 217.66949,139.77862 C 216.11199,139.77862 215.02699,138.30862 215.02699,136.20862 215.02699,134.10862 216.11199,132.63862 217.66949,132.63862 219.22699,132.63862 220.31199,134.10862 220.31199,136.20862 220.31199,138.30862 219.22699,139.77862 217.66949,139.77862 Z"
         id="path79" />
      <path
         d="M 224.44201,131.48362 V 144.43362 H 225.91201 V 139.37612 H 225.99951 C 226.57701,140.47862 227.52201,141.10862 228.74701,141.10862 230.96951,141.10862 232.57951,139.04362 232.57951,136.20862 232.57951,133.37362 230.98701,131.30862 228.76451,131.30862 227.46951,131.30862 226.47201,132.00862 225.91201,133.25112 H 225.82451 V 131.48362 Z M 228.50201,132.63862 C 230.04201,132.63862 231.09201,134.09112 231.09201,136.20862 231.09201,138.32612 230.04201,139.77862 228.50201,139.77862 226.96201,139.77862 225.87701,138.30862 225.87701,136.20862 225.87701,134.10862 226.96201,132.63862 228.50201,132.63862 Z"
         id="path81" />
      <path
         d="M 241.32951,131.48362 V 133.25112 H 241.24201 C 240.68201,132.00862 239.68451,131.30862 238.38951,131.30862 236.16701,131.30862 234.57451,133.37362 234.57451,136.20862 234.57451,139.04362 236.18451,141.10862 238.40701,141.10862 239.63201,141.10862 240.57701,140.47862 241.15451,139.37612 H 241.24201 V 144.43362 H 242.71201 V 131.48362 Z M 238.65201,132.63862 C 240.19201,132.63862 241.27701,134.10862 241.27701,136.20862 241.27701,138.30862 240.19201,139.77862 238.65201,139.77862 237.11201,139.77862 236.06201,138.32612 236.06201,136.20862 236.06201,134.09112 237.11201,132.63862 238.65201,132.63862 Z"
         id="path83" />
      <path
         d="M 247.71701,140.93362 V 135.56112 C 247.71701,133.84612 248.64451,132.65612 249.95701,132.65612 250.77951,132.65612 251.40951,133.12862 251.56701,133.89862 H 253.07201 C 252.89701,132.35862 251.82951,131.36112 250.34201,131.36112 249.16951,131.36112 248.22451,131.97362 247.69951,133.00612 H 247.62951 V 131.48362 H 246.24701 V 140.93362 Z"
         id="path85" />
      <path
         d="M 256.11703,138.51862 C 256.18703,140.04112 257.72703,141.17862 259.70453,141.17862 261.78703,141.17862 263.22203,139.93612 263.22203,138.16862 263.22203,136.68112 262.22453,135.84112 260.05453,135.52612 L 259.63453,135.45612 C 258.42703,135.26362 257.90203,134.86112 257.90203,134.09112 257.90203,133.18112 258.65453,132.56862 259.73953,132.56862 260.78953,132.56862 261.61203,133.12862 261.73453,133.89862 H 263.11703 C 263.02953,132.41112 261.55953,131.30862 259.72203,131.30862 257.79703,131.30862 256.46703,132.51612 256.46703,134.24862 256.46703,135.71862 257.42953,136.54112 259.52953,136.87362 L 259.96703,136.92612 C 261.26203,137.13612 261.76953,137.52112 261.76953,138.29112 261.76953,139.25362 260.96453,139.90112 259.77453,139.90112 258.61953,139.90112 257.67453,139.30612 257.55203,138.51862 Z"
         id="path87" />
      <path
         d="M 270.29203,137.76612 V 132.79612 H 273.56453 V 131.48362 H 270.29203 V 128.50862 L 268.82203,128.75362 V 131.48362 H 266.16203 V 132.79612 H 268.82203 V 137.76612 C 268.82203,139.95362 269.88953,141.10862 271.91953,141.10862 272.61953,141.10862 273.24953,140.96862 273.73953,140.70612 V 139.48112 C 273.21453,139.74362 272.68953,139.86612 272.16453,139.86612 270.90453,139.86612 270.29203,139.18362 270.29203,137.76612 Z"
         id="path89" />
      <path
         d="M 283.74954,137.78362 V 131.48362 H 282.27954 V 136.94362 C 282.27954,138.65862 281.33454,139.86612 280.00454,139.86612 278.91954,139.86612 278.23704,139.04362 278.23704,137.74862 V 131.48362 H 276.76704 V 137.87112 C 276.76704,139.81362 277.92204,141.10862 279.67204,141.10862 280.84454,141.10862 281.75454,140.53112 282.27954,139.55112 H 282.34954 C 282.36704,140.00612 282.41954,140.46112 282.47204,140.93362 H 283.87204 C 283.80204,139.83112 283.74954,138.67612 283.74954,137.78362 Z"
         id="path91" />
      <path
         d="M 289.71704,140.93362 H 291.64204 L 294.61704,131.48362 H 293.16454 L 290.73204,139.39362 H 290.66204 L 288.15954,131.48362 H 286.67204 Z"
         id="path93" />
      <path
         d="M 298.01206,140.93362 H 299.84956 L 301.63456,134.23112 H 301.70456 L 303.48956,140.93362 H 305.32706 L 306.63956,131.48362 H 305.27456 L 304.27706,139.34112 H 304.20706 L 302.38706,132.53362 H 300.95206 L 299.13206,139.30612 H 299.06206 L 298.06456,131.48362 H 296.69956 Z"
         id="path95" />
      <path
         d="M 308.54706,140.93362 H 310.22706 L 312.67706,137.08362 315.12706,140.93362 H 316.84206 L 313.65706,136.03362 316.54456,131.48362 H 314.88206 L 312.69456,135.00112 310.52456,131.48362 H 308.80956 L 311.69706,136.06862 Z"
         id="path97" />
      <path
         d="M 318.57456,143.08612 V 144.32862 C 319.04706,144.46862 319.43206,144.52112 319.83456,144.52112 321.46206,144.52112 322.45956,143.66362 323.15956,141.72112 L 326.85206,131.48362 H 325.36456 L 322.75706,138.93862 H 322.68706 L 320.06206,131.48362 H 318.53956 L 321.98706,140.95112 321.84706,141.31862 C 321.32206,142.71862 320.72706,143.24362 319.64206,143.24362 319.29206,143.24362 318.94206,143.19112 318.57456,143.08612 Z"
         id="path99" />
      <path
         d="M 329.52956,140.93362 H 336.87956 V 139.65612 H 331.31456 L 336.58206,132.65612 V 131.48362 H 329.70456 V 132.76112 H 334.79706 L 329.52956,139.76112 Z"
         id="path101" />
      <path
         d="M 67.396903,162.80862 68.446903,159.36112 H 72.856903 L 73.906903,162.80862 H 75.429403 L 71.701903,150.55862 H 69.636903 L 65.909403,162.80862 Z M 68.849403,158.01362 70.616903,152.16862 H 70.686903 L 72.454403,158.01362 Z"
         id="path103" />
      <path
         d="M 77.49441,162.80862 H 81.85191 C 83.89941,162.80862 85.38691,161.39112 85.38691,159.43112 85.38691,157.99612 84.61691,156.89362 83.37441,156.43862 V 156.36862 C 84.37191,155.87862 85.00191,154.89862 85.00191,153.69112 85.00191,151.87112 83.58441,150.55862 81.62441,150.55862 H 77.49441 Z M 79.01691,155.77362 V 151.92362 H 81.69441 C 82.77941,151.92362 83.49691,152.67612 83.49691,153.81362 83.49691,154.95112 82.76191,155.77362 81.69441,155.77362 Z M 79.01691,161.44362 V 157.13862 H 81.90441 C 83.05941,157.13862 83.84691,158.01362 83.84691,159.29112 83.84691,160.56862 83.05941,161.44362 81.90441,161.44362 Z"
         id="path105" />
      <path
         d="M 94.574416,159.69362 C 94.329416,160.83112 93.366916,161.58362 92.159416,161.58362 90.216916,161.58362 88.974416,159.67612 88.974416,156.70112 88.974416,153.72612 90.216916,151.78362 92.141916,151.78362 93.279416,151.78362 94.206916,152.46612 94.451916,153.49862 H 95.921916 C 95.624416,151.67862 94.049416,150.38362 92.089416,150.38362 89.341916,150.38362 87.434416,152.93862 87.434416,156.68362 87.434416,160.41112 89.341916,162.98362 92.124416,162.98362 94.136916,162.98362 95.764416,161.61862 96.026916,159.69362 Z"
         id="path107" />
      <path
         d="M 98.319422,162.80862 H 101.80192 C 104.75942,162.80862 106.77192,160.32362 106.77192,156.68362 106.77192,153.04362 104.75942,150.55862 101.80192,150.55862 H 98.319422 Z M 99.841922,161.44362 V 151.92362 H 101.80192 C 103.88442,151.92362 105.23192,153.77862 105.23192,156.68362 105.23192,159.58862 103.88442,161.44362 101.80192,161.44362 Z"
         id="path109" />
      <path
         d="M 109.71193,162.80862 H 116.99193 V 161.44362 H 111.23443 V 157.13862 H 116.22193 V 155.77362 H 111.23443 V 151.92362 H 116.99193 V 150.55862 H 109.71193 Z"
         id="path111" />
      <path
         d="M 119.94944,162.80862 H 121.48944 V 157.36612 H 126.45944 V 156.00112 H 121.48944 V 151.92362 H 127.22944 V 150.55862 H 119.94944 Z"
         id="path113" />
      <path
         d="M 133.30194,157.57612 H 136.04944 C 136.04944,159.95612 134.91194,161.61862 133.30194,161.61862 131.55194,161.61862 130.36194,159.64112 130.36194,156.71862 130.36194,153.70862 131.62194,151.78362 133.58194,151.78362 134.73694,151.78362 135.68194,152.46612 135.94444,153.49862 H 137.43194 C 137.11694,151.67862 135.50694,150.38362 133.52944,150.38362 130.74694,150.38362 128.83944,152.97362 128.83944,156.75362 128.83944,160.39362 130.60694,162.98362 133.03944,162.98362 134.36944,162.98362 135.45444,162.21362 136.08444,160.95362 H 136.13694 V 162.80862 H 137.51944 V 156.21112 H 133.30194 Z"
         id="path115" />
      <path
         d="M 140.59945,162.80862 H 142.12195 V 157.17362 H 147.26695 V 162.80862 H 148.78945 V 150.55862 H 147.26695 V 155.77362 H 142.12195 V 150.55862 H 140.59945 Z"
         id="path117" />
      <path
         d="M 151.44946,162.80862 H 158.51946 V 161.44362 H 155.75446 V 151.92362 H 158.48446 V 150.55862 H 151.48446 V 151.92362 H 154.23196 V 161.44362 H 151.44946 Z"
         id="path119" />
      <path
         d="M 160.40946,159.69362 C 160.44446,161.60112 162.07196,162.98362 164.24196,162.98362 166.48196,162.98362 168.09196,161.53112 168.09196,159.53612 V 150.55862 H 161.79196 V 151.92362 H 166.56946 V 159.51862 C 166.56946,160.76112 165.62446,161.61862 164.22446,161.61862 162.87696,161.61862 161.89696,160.83112 161.82696,159.69362 Z"
         id="path121" />
      <path
         d="M 173.51697,150.55862 H 171.99447 V 162.80862 H 173.51697 V 158.92362 L 175.35447,156.85862 179.36197,162.80862 H 181.12947 L 176.36947,155.70362 180.90197,150.55862 H 179.02947 L 173.51697,156.77112 Z"
         id="path123" />
      <path
         d="M 182.77448,162.80862 H 189.87948 V 161.44362 H 184.29698 V 150.55862 H 182.77448 Z"
         id="path125" />
      <path
         d="M 192.81948,152.34362 H 192.88948 L 195.21698,160.14862 H 196.58198 L 198.90948,152.34362 H 198.97948 V 162.80862 H 200.41448 V 150.55862 H 198.22698 L 195.93448,158.31112 H 195.86448 L 193.57198,150.55862 H 191.38448 V 162.80862 H 192.81948 Z"
         id="path127" />
      <path
         d="M 210.23199,160.58612 H 210.16199 L 205.55949,150.55862 H 203.31949 V 162.80862 H 204.73699 V 152.13362 H 204.80699 L 209.68949,162.80862 H 211.64949 V 150.55862 H 210.23199 Z"
         id="path129" />
      <path
         d="M 218.19449,162.98362 C 220.90699,162.98362 222.81449,160.39362 222.81449,156.68362 222.81449,152.97362 220.90699,150.38362 218.19449,150.38362 215.48199,150.38362 213.57449,152.97362 213.57449,156.68362 213.57449,160.39362 215.48199,162.98362 218.19449,162.98362 Z M 218.19449,161.58362 C 216.32199,161.58362 215.09699,159.65862 215.09699,156.68362 215.09699,153.70862 216.32199,151.78362 218.19449,151.78362 220.06699,151.78362 221.29199,153.70862 221.29199,156.68362 221.29199,159.65862 220.06699,161.58362 218.19449,161.58362 Z"
         id="path131" />
      <path
         d="M 224.58201,162.80862 H 226.10451 V 157.62862 H 229.06201 C 231.16201,157.62862 232.63201,156.15862 232.63201,154.09362 232.63201,152.02862 231.16201,150.55862 229.06201,150.55862 H 224.58201 Z M 226.10451,156.26362 V 151.92362 H 229.14951 C 230.35701,151.92362 231.16201,152.78112 231.16201,154.09362 231.16201,155.38862 230.35701,156.26362 229.14951,156.26362 Z"
         id="path133" />
      <path
         d="M 242.86951,163.92862 243.67451,163.12362 241.71451,161.18112 C 242.51951,160.06112 242.97451,158.50362 242.97451,156.68362 242.97451,152.97362 241.06701,150.38362 238.35451,150.38362 235.64201,150.38362 233.73451,152.97362 233.73451,156.68362 233.73451,160.39362 235.64201,162.98362 238.35451,162.98362 239.35201,162.98362 240.22701,162.63362 240.94451,162.02112 Z M 238.35451,161.58362 C 236.48201,161.58362 235.25701,159.65862 235.25701,156.68362 235.25701,153.70862 236.48201,151.78362 238.35451,151.78362 240.22701,151.78362 241.45201,153.70862 241.45201,156.68362 241.45201,158.10112 241.17201,159.29112 240.68201,160.13112 L 238.51201,157.96112 237.70701,158.76612 239.94701,161.00612 C 239.49201,161.39112 238.96701,161.58362 238.35451,161.58362 Z"
         id="path135" />
      <path
         d="M 247.06951,156.01862 V 151.92362 H 250.06201 C 251.21701,151.92362 251.98701,152.74612 251.98701,153.97112 251.98701,155.19612 251.21701,156.01862 250.06201,156.01862 Z M 245.54701,162.80862 H 247.06951 V 157.38362 H 249.36201 L 252.14451,162.80862 H 253.80701 L 250.97201,157.26112 C 252.47701,156.87612 253.45701,155.63362 253.45701,153.97112 253.45701,151.95862 252.02201,150.55862 249.97451,150.55862 H 245.54701 Z"
         id="path137" />
      <path
         d="M 255.87203,159.69362 C 255.94203,161.63612 257.69203,163.05362 260.03703,163.05362 262.43453,163.05362 264.09703,161.56612 264.09703,159.41362 264.09703,157.55862 262.87203,156.40362 260.47453,155.91362 L 259.75703,155.77362 C 258.39203,155.49362 257.69203,154.82862 257.69203,153.77862 257.69203,152.55362 258.61953,151.73112 260.01953,151.73112 261.33203,151.73112 262.36453,152.46612 262.50453,153.49862 H 263.93953 C 263.83453,151.71362 262.15453,150.38362 259.98453,150.38362 257.74453,150.38362 256.20453,151.80112 256.20453,153.86612 256.20453,155.65112 257.34203,156.77112 259.54703,157.20862 L 260.26453,157.34862 C 261.82203,157.68112 262.59203,158.36362 262.59203,159.48362 262.59203,160.79612 261.54203,161.68862 260.00203,161.68862 258.53203,161.68862 257.42953,160.86612 257.30703,159.69362 Z"
         id="path139" />
      <path
         d="M 269.41703,162.80862 H 270.93953 V 151.92362 H 274.61453 V 150.55862 H 265.72453 V 151.92362 H 269.41703 Z"
         id="path141" />
      <path
         d="M 284.44954,150.55862 H 282.92704 V 158.95862 C 282.92704,160.53362 281.89454,161.58362 280.35454,161.58362 278.83204,161.58362 277.78204,160.53362 277.78204,158.95862 V 150.55862 H 276.25954 V 158.95862 C 276.25954,161.32112 277.95704,162.98362 280.35454,162.98362 282.75204,162.98362 284.44954,161.32112 284.44954,158.95862 Z"
         id="path143" />
      <path
         d="M 289.83954,162.80862 H 291.86954 L 295.64954,150.55862 H 294.12704 L 290.90704,161.11112 H 290.83704 L 287.61704,150.55862 H 286.05954 Z"
         id="path145" />
      <path
         d="M 297.64456,162.80862 H 299.51706 L 301.63456,154.72362 H 301.70456 L 303.82206,162.80862 H 305.69456 L 306.98956,150.55862 H 305.60706 L 304.59206,160.81362 H 304.52206 L 302.31706,152.41362 H 301.02206 L 298.81706,160.81362 H 298.74706 L 297.74956,150.55862 H 296.34956 Z"
         id="path147" />
      <path
         d="M 307.63706,162.80862 H 309.33456 L 312.67706,157.68112 316.01956,162.80862 H 317.75206 L 313.62206,156.42112 317.43706,150.55862 H 315.73956 L 312.69456,155.19612 309.64956,150.55862 H 307.91706 L 311.74956,156.43862 Z"
         id="path149" />
      <path
         d="M 321.91706,162.80862 H 323.42206 V 157.66362 L 327.55206,150.55862 H 325.90706 L 322.68706,156.14112 319.48456,150.55862 H 317.78706 L 321.91706,157.66362 Z"
         id="path151" />
      <path
         d="M 328.89956,162.80862 H 337.43956 V 161.44362 H 330.73706 L 337.14206,151.81862 V 150.55862 H 329.07456 V 151.92362 H 335.30456 L 328.89956,161.54862 Z"
         id="path153" />
      <path
         d="M 70.669403,184.85862 C 73.049403,184.85862 74.799403,182.81112 74.799403,179.95862 74.799403,177.10612 73.049403,175.05862 70.669403,175.05862 68.289403,175.05862 66.539403,177.10612 66.539403,179.95862 66.539403,182.81112 68.289403,184.85862 70.669403,184.85862 Z M 70.669403,183.52862 C 69.111903,183.52862 68.026903,182.05862 68.026903,179.95862 68.026903,177.85862 69.111903,176.38862 70.669403,176.38862 72.226903,176.38862 73.311903,177.85862 73.311903,179.95862 73.311903,182.05862 72.226903,183.52862 70.669403,183.52862 Z"
         id="path155" />
      <path
         d="M 81.16941,184.85862 C 83.88191,184.85862 85.78941,182.26862 85.78941,178.55862 85.78941,174.84862 83.88191,172.25862 81.16941,172.25862 78.45691,172.25862 76.54941,174.84862 76.54941,178.55862 76.54941,182.26862 78.45691,184.85862 81.16941,184.85862 Z M 81.16941,183.45862 C 79.29691,183.45862 78.07191,181.53362 78.07191,178.55862 78.07191,175.58362 79.29691,173.65862 81.16941,173.65862 83.04191,173.65862 84.26691,175.58362 84.26691,178.55862 84.26691,181.53362 83.04191,183.45862 81.16941,183.45862 Z"
         id="path157" />
      <path
         d="M 91.669416,184.85862 C 94.276916,184.85862 95.834416,182.51362 95.834416,178.55862 95.834416,174.60362 94.276916,172.25862 91.669416,172.25862 89.061916,172.25862 87.504416,174.60362 87.504416,178.55862 87.504416,182.51362 89.061916,184.85862 91.669416,184.85862 Z M 89.131916,180.57112 C 89.026916,179.99362 88.974416,179.31112 88.974416,178.55862 88.974416,175.39112 89.936916,173.58862 91.669416,173.58862 92.666916,173.58862 93.419416,174.20112 93.874416,175.32112 Z M 91.669416,183.52862 C 90.671916,183.52862 89.919416,182.91612 89.464416,181.79612 L 94.206916,176.54612 C 94.311916,177.12362 94.364416,177.80612 94.364416,178.55862 94.364416,181.72612 93.401916,183.52862 91.669416,183.52862 Z"
         id="path159" />
      <path
         d="M 102.16942,184.85862 C 104.46192,184.85862 106.22942,183.30112 106.22942,181.30612 106.22942,179.88862 105.33692,178.73362 103.97192,178.20862 V 178.13862 C 105.07442,177.64862 105.79192,176.66862 105.79192,175.46112 105.79192,173.64112 104.21692,172.25862 102.16942,172.25862 100.12192,172.25862 98.546922,173.64112 98.546922,175.46112 98.546922,176.66862 99.281922,177.64862 100.38442,178.13862 V 178.20862 C 99.019422,178.71612 98.109422,179.88862 98.109422,181.30612 98.109422,183.30112 99.876922,184.85862 102.16942,184.85862 Z M 102.16942,173.57112 C 103.37692,173.57112 104.28692,174.42862 104.28692,175.56612 104.28692,176.70362 103.37692,177.56112 102.16942,177.56112 100.96192,177.56112 100.05192,176.70362 100.05192,175.56612 100.05192,174.42862 100.96192,173.57112 102.16942,173.57112 Z M 102.16942,178.90862 C 103.62192,178.90862 104.68942,179.87112 104.68942,181.20112 104.68942,182.53112 103.60442,183.52862 102.16942,183.52862 100.73442,183.52862 99.649422,182.53112 99.649422,181.20112 99.649422,179.87112 100.71692,178.90862 102.16942,178.90862 Z"
         id="path161" />
      <path
         d="M 120.12444,184.68362 H 127.26444 V 183.37112 H 124.42944 V 175.23362 H 120.21194 V 176.54612 H 122.95944 V 183.37112 H 120.12444 Z M 122.20694,172.18862 C 122.20694,172.90612 122.80194,173.48362 123.50194,173.48362 124.21944,173.48362 124.79694,172.90612 124.79694,172.18862 124.79694,171.47112 124.21944,170.91112 123.50194,170.91112 122.80194,170.91112 122.20694,171.47112 122.20694,172.18862 Z"
         id="path163" />
      <path
         d="M 130.13444,184.68362 H 137.20444 V 183.31862 H 134.43944 V 173.79862 H 137.16944 V 172.43362 H 130.16944 V 173.79862 H 132.91694 V 183.31862 H 130.13444 Z"
         id="path165" />
      <path
         d="M 144.34445,181.51612 V 171.73362 H 140.05695 V 173.04612 H 142.87445 V 181.51612 C 142.87445,183.70362 143.94195,184.85862 145.97195,184.85862 146.67195,184.85862 147.30195,184.71862 147.79195,184.45612 V 183.23112 C 147.26695,183.49362 146.74195,183.61612 146.21695,183.61612 144.95695,183.61612 144.34445,182.93362 144.34445,181.51612 Z"
         id="path167" />
      <path
         d="M 151.58946,184.68362 H 158.69446 V 183.31862 H 153.11196 V 172.43362 H 151.58946 Z"
         id="path169" />
      <path
         d="M 161.38946,184.68362 H 169.29946 V 183.35362 H 166.09696 V 172.43362 H 164.88946 C 164.66196,174.20112 163.94446,174.67362 161.45946,174.67362 V 175.82862 L 164.57446,175.84612 V 183.35362 H 161.38946 Z"
         id="path171" />
      <path
         d="M 184.85698,179.22362 C 186.06448,178.99612 186.88698,177.68362 186.79948,176.07362 L 186.71198,174.07862 C 186.64198,172.87112 187.30698,172.18862 188.54948,172.18862 H 189.72198 V 170.85862 H 188.49698 C 186.30948,170.85862 185.11948,172.08362 185.22448,174.18362 L 185.32948,176.12612 C 185.39948,177.61362 184.57698,178.55862 183.19448,178.55862 H 182.28448 V 179.95862 H 183.19448 C 184.57698,179.95862 185.39948,180.90362 185.32948,182.39112 L 185.22448,184.33362 C 185.11948,186.43362 186.30948,187.65862 188.49698,187.65862 H 189.79198 V 186.32862 H 188.54948 C 187.30698,186.32862 186.64198,185.64612 186.71198,184.43862 L 186.79948,182.44362 C 186.88698,180.83362 186.08198,179.52112 184.85698,179.29362 Z"
         id="path173" />
      <path
         d="M 197.98198,179.29362 C 196.75698,179.52112 195.95198,180.83362 196.03948,182.44362 L 196.12698,184.43862 C 196.19698,185.64612 195.53198,186.32862 194.28948,186.32862 H 193.04698 V 187.65862 H 194.34198 C 196.52948,187.65862 197.71948,186.43362 197.61448,184.33362 L 197.50948,182.39112 C 197.43948,180.90362 198.26198,179.95862 199.64448,179.95862 H 200.55448 V 178.55862 H 199.64448 C 198.26198,178.55862 197.43948,177.61362 197.50948,176.12612 L 197.61448,174.18362 C 197.71948,172.08362 196.52948,170.85862 194.34198,170.85862 H 193.11698 V 172.18862 H 194.28948 C 195.53198,172.18862 196.19698,172.87112 196.12698,174.07862 L 196.03948,176.07362 C 195.95198,177.68362 196.77448,178.99612 197.98198,179.22362 Z"
         id="path175" />
      <path
         d="M 215.76199,187.65862 H 220.95949 V 186.32862 H 217.23199 V 172.18862 H 220.95949 V 170.85862 H 215.76199 Z"
         id="path177" />
      <path
         d="M 230.07701,170.85862 H 224.87951 V 172.18862 H 228.60701 V 186.32862 H 224.87951 V 187.65862 H 230.07701 Z"
         id="path179" />
      <path
         d="M 245.73951,178.22612 C 245.73951,179.22362 246.14201,180.08112 246.82451,180.65862 246.19451,180.99112 245.82701,181.53362 245.82701,182.21612 245.82701,182.79362 246.10701,183.28362 246.56201,183.58112 V 183.65112 C 245.66951,184.03612 245.09201,184.78862 245.09201,185.69862 245.09201,187.25612 246.77201,188.35862 249.11701,188.35862 251.65451,188.35862 253.43951,187.09862 253.43951,185.31362 253.43951,183.82612 252.19701,182.86362 250.28951,182.86362 H 247.92701 C 247.45451,182.86362 247.10451,182.53112 247.10451,182.07612 247.10451,181.69112 247.34951,181.39362 247.73451,181.20112 248.13701,181.35862 248.59201,181.44612 249.06451,181.44612 250.98951,181.44612 252.40701,180.08112 252.40701,178.22612 252.40701,177.56112 252.21451,176.96612 251.89951,176.47612 V 176.45862 H 253.31701 V 175.23362 H 250.23701 C 249.86951,175.11112 249.48451,175.05862 249.06451,175.05862 247.13951,175.05862 245.73951,176.38862 245.73951,178.22612 Z M 247.96201,184.24612 H 250.18451 C 251.30451,184.24612 251.96951,184.70112 251.96951,185.45362 251.96951,186.46862 250.84951,187.13362 249.15201,187.13362 247.52451,187.13362 246.43951,186.50362 246.43951,185.55862 246.43951,184.82362 247.10451,184.24612 247.96201,184.24612 Z M 249.06451,180.20362 C 247.94451,180.20362 247.17451,179.41612 247.17451,178.27862 247.17451,177.14112 247.94451,176.35362 249.06451,176.35362 250.20201,176.35362 250.97201,177.14112 250.97201,178.27862 250.97201,179.41612 250.20201,180.20362 249.06451,180.20362 Z"
         id="path181" />
      <path
         d="M 259.35453,183.52862 C 258.23453,183.52862 257.34203,182.84612 257.07953,181.74362 H 255.69703 C 255.88953,183.56362 257.37703,184.85862 259.35453,184.85862 262.13703,184.85862 263.88703,182.28612 263.88703,178.40112 263.88703,174.60362 262.18953,172.25862 259.47703,172.25862 257.16703,172.25862 255.46953,173.93862 255.46953,176.30112 255.46953,178.59362 257.04453,180.23862 259.19703,180.23862 260.57953,180.23862 261.69953,179.57362 262.32953,178.43612 H 262.41703 C 262.39953,181.56862 261.22703,183.52862 259.35453,183.52862 Z M 261.96203,176.21362 C 261.96203,177.75362 260.84203,178.94362 259.38953,178.94362 257.97203,178.94362 256.93953,177.82362 256.93953,176.28362 256.93953,174.72612 258.00703,173.58862 259.45953,173.58862 260.89453,173.58862 261.96203,174.72612 261.96203,176.21362 Z"
         id="path183" />
      <path
         d="M 272.51453,175.23362 V 177.00112 H 272.42703 C 271.86703,175.75862 270.86953,175.05862 269.57453,175.05862 267.35203,175.05862 265.75953,177.12362 265.75953,179.95862 265.75953,182.79362 267.36953,184.85862 269.59203,184.85862 270.81703,184.85862 271.76203,184.22862 272.33953,183.12612 H 272.42703 V 188.18362 H 273.89703 V 175.23362 Z M 269.83703,176.38862 C 271.37703,176.38862 272.46203,177.85862 272.46203,179.95862 272.46203,182.05862 271.37703,183.52862 269.83703,183.52862 268.29703,183.52862 267.24703,182.07612 267.24703,179.95862 267.24703,177.84112 268.29703,176.38862 269.83703,176.38862 Z"
         id="path185" />
      <path
         d="M 283.25954,181.56862 C 283.01454,182.70612 282.05204,183.45862 280.84454,183.45862 278.90204,183.45862 277.65954,181.55112 277.65954,178.57612 277.65954,175.60112 278.90204,173.65862 280.82704,173.65862 281.96454,173.65862 282.89204,174.34112 283.13704,175.37362 H 284.60704 C 284.30954,173.55362 282.73454,172.25862 280.77454,172.25862 278.02704,172.25862 276.11954,174.81362 276.11954,178.55862 276.11954,182.28612 278.02704,184.85862 280.80954,184.85862 282.82204,184.85862 284.44954,183.49362 284.71204,181.56862 Z"
         id="path187" />
      <path
         d="M 291.11704,179.45112 H 293.86454 C 293.86454,181.83112 292.72704,183.49362 291.11704,183.49362 289.36704,183.49362 288.17704,181.51612 288.17704,178.59362 288.17704,175.58362 289.43704,173.65862 291.39704,173.65862 292.55204,173.65862 293.49704,174.34112 293.75954,175.37362 H 295.24704 C 294.93204,173.55362 293.32204,172.25862 291.34454,172.25862 288.56204,172.25862 286.65454,174.84862 286.65454,178.62862 286.65454,182.26862 288.42204,184.85862 290.85454,184.85862 292.18454,184.85862 293.26954,184.08862 293.89954,182.82862 H 293.95204 V 184.68362 H 295.33454 V 178.08612 H 291.11704 Z"
         id="path189" />
      <path
         d="M 306.49956,185.80362 307.30456,184.99862 305.34456,183.05612 C 306.14956,181.93612 306.60456,180.37862 306.60456,178.55862 306.60456,174.84862 304.69706,172.25862 301.98456,172.25862 299.27206,172.25862 297.36456,174.84862 297.36456,178.55862 297.36456,182.26862 299.27206,184.85862 301.98456,184.85862 302.98206,184.85862 303.85706,184.50862 304.57456,183.89612 Z M 301.98456,183.45862 C 300.11206,183.45862 298.88706,181.53362 298.88706,178.55862 298.88706,175.58362 300.11206,173.65862 301.98456,173.65862 303.85706,173.65862 305.08206,175.58362 305.08206,178.55862 305.08206,179.97612 304.80206,181.16612 304.31206,182.00612 L 302.14206,179.83612 301.33706,180.64112 303.57706,182.88112 C 303.12206,183.26612 302.59706,183.45862 301.98456,183.45862 Z"
         id="path191" />
      <path
         d="M 318.39956,180.74612 H 319.72956 L 319.74706,180.22112 C 319.78206,179.22362 320.13206,178.69862 320.76206,178.69862 322.10956,178.69862 322.28456,181.09612 324.48956,181.09612 325.95956,181.09612 326.93956,180.01112 326.93956,178.36612 V 177.77112 H 325.60956 L 325.59206,178.29612 C 325.55706,179.31112 325.18956,179.81862 324.55956,179.81862 323.19456,179.81862 323.05456,177.42112 320.84956,177.42112 319.37956,177.42112 318.39956,178.50612 318.39956,180.15112 Z"
         id="path193" />
      <path
         d="M 329.77456,179.92362 H 336.56456 V 178.59362 H 329.77456 Z"
         id="path195" />
      <path
         d="M 342.95209,183.35362 H 344.40459 V 179.92362 H 347.76459 V 178.59362 H 344.40459 V 175.16362 H 342.95209 V 178.59362 H 339.57459 V 179.92362 H 342.95209 Z"
         id="path197" />
      <path
         d="M 350.42459,181.58612 H 357.91459 V 180.29112 H 350.42459 Z M 350.42459,178.22612 H 357.91459 V 176.93112 H 350.42459 Z"
         id="path199" />
      <path
         d="M 368.37959,178.43612 361.30959,174.81362 V 176.31862 L 366.96209,179.22362 V 179.29362 L 361.30959,182.19862 V 183.70362 L 368.37959,180.08112 Z"
         id="path201" />
    </g>
  </g>
</svg>
