<svg xmlns="http://www.w3.org/2000/svg" width="324.637" height="114.462" viewBox="0 0 304.347 107.308"><g font-weight="400" font-family="Cousine Nerd Font" letter-spacing="0" word-spacing="0" fill="#fff"><g style="line-height:125%;text-decoration-line:underline" font-size="27.5" text-decoration="underline"><path d="M2.699 10.782q0 3.666 1.141 5.506 1.155 1.826 3.518 1.826 1.357 0 2.458-.913 1.1-.927 1.866-2.874l2.135.873q-2 4.995-6.485 4.995-3.532 0-5.439-2.43Q0 15.335 0 10.782q0-9.251 7.197-9.251 4.552 0 6.258 4.498l-2.256.873q-.497-1.517-1.558-2.39-1.047-.887-2.43-.887-2.296 0-3.411 1.733-1.101 1.732-1.101 5.424zM29.702 12.649q0 3.666-1.692 5.613-1.678 1.933-4.86 1.933-3.116 0-4.78-1.96-1.652-1.96-1.652-5.586 0-3.746 1.691-5.626 1.706-1.894 4.821-1.894 3.276 0 4.874 1.867 1.598 1.866 1.598 5.653zm-2.538 0q0-2.887-.926-4.31-.913-1.424-2.968-1.424-2.081 0-3.048 1.45-.967 1.45-.967 4.284 0 2.82.967 4.297.967 1.463 2.9 1.463 2.136 0 3.089-1.436.953-1.437.953-4.324zM36.362 5.398v9.211q0 2.095.658 2.914.658.806 2.35.806 1.732 0 2.74-1.182 1.006-1.181 1.006-3.33v-8.42h2.43v11.428q0 2.538.081 3.102h-2.282q-.014-.067-.027-.363-.013-.295-.04-.671-.014-.39-.04-1.45h-.04q-.833 1.504-1.935 2.135-1.087.617-2.712.617-2.39 0-3.505-1.181-1.1-1.195-1.1-3.935V5.398h2.416zM62.184 15.778q0 2.067-1.571 3.25-1.558 1.167-4.324 1.167t-4.216-.86q-1.437-.872-1.88-2.738l2.135-.417q.255 1.155 1.088 1.692.845.524 2.873.524 3.626 0 3.626-2.296 0-.86-.658-1.383-.658-.537-2.015-.873-3.544-.873-4.498-1.37-.953-.496-1.463-1.235-.51-.752-.51-1.866 0-1.974 1.423-3.089 1.423-1.114 4.122-1.114 2.363 0 3.773.9 1.41.886 1.76 2.59l-2.176.27q-.148-.967-.954-1.464-.805-.497-2.403-.497-3.29 0-3.29 2.028 0 .805.55 1.289.565.483 1.8.778l1.598.417q2.189.537 3.142 1.06.967.524 1.517 1.316.55.78.55 1.92zM74.443 18.02h5.103v1.907H66.36V18.02h5.666V7.305h-4.283V5.398h6.7V18.02zM71.758 2.578V0h2.685v2.578h-2.685zM92.584 19.927v-9.333q0-1.826-.711-2.712-.699-.886-2.243-.886-1.665 0-2.74 1.222-1.06 1.208-1.06 3.29v8.419h-2.417V8.5q0-2.538-.08-3.102h2.282q.014.067.027.362.013.296.027.685.027.376.054 1.437h.04q1.41-2.753 4.646-2.753 2.323 0 3.464 1.263 1.142 1.248 1.142 3.853v9.682h-2.43zM101.742 13.173q0 2.443 1.074 3.827 1.088 1.383 2.968 1.383 1.383 0 2.417-.591 1.047-.605 1.396-1.638l2.122.604q-.591 1.665-2.176 2.551-1.57.886-3.76.886-3.168 0-4.874-1.974-1.705-1.973-1.705-5.653 0-3.585 1.665-5.505 1.679-1.934 4.834-1.934 3.156 0 4.78 1.92 1.625 1.92 1.625 5.801v.323h-10.366zm3.988-6.258q-1.8 0-2.847 1.182-1.047 1.168-1.114 3.223h7.842q-.376-4.405-3.881-4.405zM141.622 19.927L134.64 4.753q.215 2.31.215 3.411v11.763h-2.283V1.813h2.981l7.09 15.28q-.242-1.933-.242-3.679V1.813h2.31v18.114h-3.089zM151.21 13.173q0 2.443 1.074 3.827 1.088 1.383 2.967 1.383 1.384 0 2.417-.591 1.048-.605 1.397-1.638l2.122.604q-.591 1.665-2.176 2.551-1.57.886-3.76.886-3.168 0-4.874-1.974-1.705-1.973-1.705-5.653 0-3.585 1.665-5.505 1.678-1.934 4.834-1.934 3.155 0 4.78 1.92 1.625 1.92 1.625 5.801v.323H151.21zm3.988-6.258q-1.8 0-2.847 1.182-1.047 1.168-1.114 3.223h7.841q-.376-4.405-3.88-4.405zM177.407 7.6q-1.504-.255-2.846-.255-2.162 0-3.492 1.625-1.329 1.624-1.329 4.135v6.822h-2.417v-9.413q0-1.02-.188-2.404-.175-1.383-.51-2.712h2.296q.537 1.853.644 3.357h.068q.67-1.504 1.315-2.202.645-.712 1.531-1.061.886-.363 2.162-.363 1.397 0 2.766.229V7.6zM191.44 17.59q-.659 1.41-1.746 2.055-1.088.63-2.713.63-2.712 0-3.988-1.866-1.275-1.866-1.275-5.626 0-7.6 5.263-7.6 1.625 0 2.713.577 1.1.578 1.759 1.894h.027l-.027-2.028V0h2.417v16.932q0 2.27.08 2.995h-2.31q-.053-.202-.093-.98-.04-.78-.04-1.357h-.068zm-7.225-4.887q0 2.98.792 4.35.806 1.356 2.605 1.356 1.96 0 2.9-1.41.94-1.423.94-4.511 0-2.887-.912-4.203-.9-1.316-2.9-1.316-1.814 0-2.62 1.383-.805 1.383-.805 4.35zM218.013 3.907v6.634h9.077v2.121h-9.077v7.265h-2.565V1.813h11.964v2.094h-9.4zM244.063 12.649q0 3.666-1.692 5.613-1.679 1.933-4.861 1.933-3.115 0-4.78-1.96-1.652-1.96-1.652-5.586 0-3.746 1.692-5.626 1.705-1.894 4.82-1.894 3.277 0 4.875 1.867 1.598 1.866 1.598 5.653zm-2.538 0q0-2.887-.927-4.31-.913-1.424-2.967-1.424-2.082 0-3.048 1.45-.967 1.45-.967 4.284 0 2.82.967 4.297.966 1.463 2.9 1.463 2.135 0 3.088-1.436.954-1.437.954-4.324zM257.477 19.927v-9.333q0-1.826-.712-2.712-.698-.886-2.242-.886-1.665 0-2.74 1.222-1.06 1.208-1.06 3.29v8.419h-2.417V8.5q0-2.538-.08-3.102h2.282q.013.067.027.362.013.296.026.685.027.376.054 1.437h.04q1.41-2.753 4.646-2.753 2.323 0 3.465 1.263 1.141 1.248 1.141 3.853v9.682h-2.43zM264.862 7.305V5.398h2.283l.779-3.787h1.61v3.787h5.802v1.907h-5.801v8.755q0 1.06.564 1.57.577.51 1.88.51 1.8 0 3.988-.456v1.84q-2.27.618-4.498.618-2.176 0-3.263-.913-1.088-.927-1.088-2.914v-9.01h-2.256z"/></g><g style="line-height:125%" font-size="17.5"><path d="M10.453 58.978q.222 0 .504-.06v.957q-.581.137-1.188.137-.854 0-1.247-.444-.385-.453-.436-1.41h-.051q-.556 1.034-1.316 1.487-.752.453-1.863.453-1.35 0-2.034-.735-.683-.735-.683-2.017 0-2.982 3.88-3.025l2.016-.034v-.504q0-1.12-.453-1.606-.453-.496-1.444-.496-1.009 0-1.453.359-.444.359-.53 1.11l-1.606-.145q.393-2.495 3.614-2.495 1.71 0 2.564.803.863.795.863 2.308v3.982q0 .683.18 1.033.179.342.683.342zm-5.204-.051q.82 0 1.453-.393.632-.393.982-1.051.35-.658.35-1.359v-.76l-1.623.034q-1.008.017-1.538.222-.53.205-.829.632-.29.42-.29 1.12 0 .7.376 1.128.384.427 1.119.427zM20.852 55.261q0 2.427-.872 3.632-.863 1.205-2.478 1.205-2.085 0-2.854-1.573h-.017q0 .41-.034.855-.025.444-.043.547h-1.486q.05-.462.05-1.906V47.246h1.539v3.615q0 .555-.034 1.341h.034q.778-1.709 2.854-1.709 3.341 0 3.341 4.768zm-1.59.052q0-1.915-.53-2.769-.52-.863-1.64-.863-1.273 0-1.854.94-.581.931-.581 2.828 0 1.786.564 2.65.564.862 1.854.862 1.154 0 1.666-.888.522-.898.522-2.76zM23.142 55.295q0-2.307 1.102-3.546 1.103-1.239 3.188-1.239 1.555 0 2.563.752 1.008.744 1.248 2.008l-1.64.12q-.138-.778-.685-1.222-.546-.453-1.555-.453-1.35 0-1.982.837-.624.838-.624 2.71 0 1.896.624 2.776.632.872 1.974.872.923 0 1.53-.453.606-.453.751-1.384l1.624.102q-.111.82-.624 1.496-.504.666-1.342 1.05-.837.377-1.87.377-2.094 0-3.188-1.23-1.094-1.231-1.094-3.573zM39.89 58.44q-.419.897-1.11 1.307-.693.402-1.727.402-1.726 0-2.538-1.188-.811-1.188-.811-3.58 0-4.837 3.35-4.837 1.033 0 1.725.368.701.367 1.12 1.205h.017l-.017-1.29v-3.58h1.538V58.02q0 1.444.051 1.906h-1.47q-.034-.128-.06-.624-.025-.496-.025-.863h-.043zm-4.597-3.11q0 1.897.504 2.768.513.863 1.658.863 1.247 0 1.846-.897.598-.906.598-2.871 0-1.837-.581-2.675-.573-.837-1.846-.837-1.154 0-1.666.88-.513.88-.513 2.769zM45.769 55.629q0 1.555.684 2.435.692.88 1.888.88.88 0 1.538-.376.667-.384.889-1.042l1.35.384q-.376 1.06-1.384 1.624-1 .564-2.393.564-2.017 0-3.102-1.256-1.085-1.257-1.085-3.598 0-2.281 1.06-3.503 1.068-1.23 3.076-1.23t3.042 1.221q1.034 1.222 1.034 3.692v.205h-6.597zm2.538-3.982q-1.145 0-1.812.752-.666.743-.709 2.05h4.99q-.239-2.802-2.47-2.802zM58.467 51.895v8.032h-1.538v-8.032h-2.24V50.68h2.24v-.213q0-1.752.82-2.487.829-.735 2.751-.735.616 0 1.325.06.718.051 1.077.12v1.239q-.257-.043-1.043-.094-.777-.052-1.18-.052-.888 0-1.34.197-.453.196-.667.64-.205.445-.205 1.24v.085h4.195v1.214h-4.195zM69.259 63.55q-1.436 0-2.307-.59-.872-.59-1.11-1.692l1.571-.213q.146.64.624.982.487.35 1.273.35 2.12 0 2.12-2.691v-1.658h-.018q-.418.88-1.162 1.333-.743.453-1.769.453-1.691 0-2.478-1.102-.777-1.11-.777-3.486 0-2.419.837-3.555.838-1.145 2.58-1.145.966 0 1.676.453.717.444 1.102 1.273h.025q0-.256.035-.863.034-.615.068-.718h1.461q-.051.462-.051 1.914v7.058q0 1.94-.906 2.914-.906.983-2.794.983zm2.17-8.332q0-1.649-.64-2.589-.641-.948-1.76-.948-1.171 0-1.693.82-.52.812-.52 2.717 0 1.29.213 2.043.222.743.683 1.085.462.342 1.29.342.727 0 1.274-.402.555-.41.854-1.188.3-.786.3-1.88zM76.078 47.246h1.547v3.333q0 .504-.077 1.683h.025q.897-1.752 2.897-1.752 2.99 0 2.99 3.256v6.16h-1.546v-5.938q0-1.162-.453-1.726-.444-.564-1.427-.564-1.06 0-1.743.778-.675.769-.675 2.093v5.358h-1.538v-12.68zM91.356 58.713h3.247v1.214h-8.39v-1.214h3.605v-6.818h-2.726V50.68h4.264v8.032zm-1.709-9.826v-1.64h1.71v1.64h-1.71zM102.627 60.166q0 1.598-.957 2.495t-2.726.897q-.675 0-1.376-.11-.7-.112-1.085-.257v-1.196q1.282.29 2.333.29 1.094 0 1.683-.564.59-.564.59-1.58v-8.246H97.61V50.68h5.016v9.485zm-1.709-11.28v-1.64h1.709v1.64h-1.709zM113.787 59.927l-3.128-4.264-1.128.837v3.427h-1.538v-12.68h1.538v7.92l4.06-4.486h1.802l-3.751 3.974 3.948 5.272h-1.803zM122.759 58.713h3.247v1.214h-8.391v-1.214h3.606V48.46h-2.47v-1.213h4.008v11.467zM131.5 59.927v-5.862q0-1.316-.213-1.837-.205-.53-.76-.53-.548 0-.89.82-.333.82-.333 2.222v5.187h-1.444v-7.272q0-1.615-.051-1.974h1.273l.051 1.085v.41h.017q.29-.871.735-1.264.445-.402 1.111-.402.752 0 1.12.41.375.41.538 1.265h.017q.342-.906.812-1.29.478-.385 1.205-.385 1.008 0 1.444.735.435.735.435 2.52v6.162h-1.435v-5.862q0-1.316-.214-1.837-.205-.53-.76-.53-.564 0-.897.718-.325.718-.325 2.153v5.358H131.5zM144.873 59.927v-5.939q0-1.162-.453-1.726-.444-.564-1.427-.564-1.06 0-1.743.778-.675.769-.675 2.093v5.358h-1.538v-7.272q0-1.615-.051-1.974h1.452q.01.043.017.23.01.189.017.437.018.239.035.914h.025q.897-1.752 2.957-1.752 1.478 0 2.204.803.727.795.727 2.453v6.16h-1.547zM157.323 55.295q0 2.333-1.077 3.572-1.068 1.23-3.093 1.23-1.982 0-3.042-1.247-1.05-1.247-1.05-3.555 0-2.384 1.076-3.58 1.085-1.205 3.067-1.205 2.085 0 3.102 1.188t1.017 3.597zm-1.615 0q0-1.837-.59-2.743-.58-.905-1.888-.905-1.324 0-1.94.923-.615.922-.615 2.725 0 1.795.615 2.735.616.931 1.846.931 1.359 0 1.965-.914.607-.914.607-2.752zM167.756 55.261q0 4.837-3.35 4.837-2.101 0-2.828-1.573h-.042q.034.069.034 1.419v3.614h-1.547V52.595q0-1.452-.051-1.914h1.495q.01.034.026.256.017.214.034.641.026.42.026.624h.034q.427-.897 1.085-1.299.667-.41 1.735-.41 1.692 0 2.52 1.17.83 1.163.83 3.598zm-1.589 0q0-1.93-.521-2.751-.521-.83-1.64-.83-1.291 0-1.864.94-.572.932-.572 2.83 0 1.82.572 2.665.573.846 1.846.846 1.137 0 1.658-.863.521-.863.521-2.837zM173.456 50.544q1.102 0 1.76.385.658.376 1.077 1.188h.017q0-.257.025-.795.035-.547.077-.65h1.496q-.052.462-.052 2.41v10.476h-1.546v-3.75l.034-1.436h-.017q-.453.914-1.128 1.35-.675.427-1.735.427-1.726 0-2.538-1.196-.811-1.205-.811-3.572 0-4.837 3.34-4.837zm2.854 4.649q0-1.812-.581-2.658-.581-.854-1.846-.854-1.145 0-1.666.871-.513.872-.513 2.778 0 1.888.521 2.76.522.871 1.641.871 1.256 0 1.846-.931.598-.932.598-2.837zM188.358 52.083q-.957-.163-1.811-.163-1.376 0-2.222 1.034-.846 1.034-.846 2.632v4.34h-1.538v-5.99q0-.649-.12-1.529-.11-.88-.324-1.726h1.46q.343 1.18.41 2.136h.044q.427-.957.837-1.401.41-.453.974-.675.564-.23 1.376-.23.889 0 1.76.145v1.427zM198.98 57.286q0 1.316-1 2.068-.991.744-2.752.744-1.76 0-2.683-.547-.914-.556-1.196-1.743l1.359-.265q.162.735.692 1.076.538.334 1.828.334 2.307 0 2.307-1.462 0-.546-.418-.88-.419-.341-1.282-.555-2.256-.556-2.863-.872-.606-.316-.931-.786-.325-.478-.325-1.188 0-1.256.906-1.965.906-.71 2.623-.71 1.504 0 2.401.573.898.564 1.12 1.65l-1.384.17q-.094-.615-.607-.93-.513-.317-1.53-.317-2.093 0-2.093 1.29 0 .513.35.82.36.308 1.145.496l1.017.265q1.393.342 2 .675.615.333.965.837.35.496.35 1.222zM202.039 51.895V50.68h1.452l.496-2.41h1.025v2.41h3.692v1.214h-3.692v5.57q0 .676.36 1 .367.325 1.195.325 1.145 0 2.538-.29v1.17q-1.444.393-2.862.393-1.385 0-2.077-.58-.692-.59-.692-1.855v-5.733h-1.435zM214.027 50.681v5.862q0 1.333.419 1.854.419.513 1.495.513 1.102 0 1.743-.752t.641-2.12v-5.357h1.547v7.272q0 1.615.051 1.974h-1.453q-.009-.043-.017-.231-.009-.188-.025-.427-.01-.248-.026-.923h-.025q-.53.957-1.23 1.359-.693.393-1.727.393-1.52 0-2.23-.752-.7-.76-.7-2.504v-6.16h1.537zM227.511 59.927h-1.82l-3.7-9.246h1.726l2.29 6.016.145.453.445 1.572.299-1 .333-1.008 2.358-6.033h1.718l-3.794 9.246zM240.593 59.927h-1.743l-1.222-4.025-.487-1.726-.333 1.188-1.436 4.563h-1.734l-1.564-9.246h1.521l.795 5.187q.282 2.256.282 2.786.333-1.368.495-1.83l1.154-3.622h1.649l1.11 3.631q.274.898.47 1.82 0-.256.035-.64.034-.385.085-.786.052-.41.103-.778.051-.367.077-.581l.863-5.187h1.504l-1.624 9.246zM250.352 59.927l-2.743-3.794-2.76 3.794h-1.658l3.546-4.751-3.392-4.495h1.7l2.564 3.598 2.546-3.598h1.718l-3.393 4.478 3.59 4.768h-1.718zM255.376 63.558q-.632 0-1.06-.094v-1.153q.325.051.718.051.675 0 1.265-.504.598-.504 1.008-1.607l.154-.418-4.016-9.152h1.64l2.256 5.486q.778 1.914.838 2.17l.35-.94 2.649-6.716h1.624l-3.897 9.246q-.76 2.008-1.58 2.82-.813.811-1.949.811zM264.63 59.927v-1.17l5.82-6.888h-5.478V50.68h7.212v1.17l-5.828 6.888h6.144v1.188h-7.87zM9.88 81.802l-1.179-3.264h-4.81L2.72 81.802H1.045l4.358-11.527h1.854l4.281 11.527H9.88zM6.31 71.505l-.103.333-.59 1.812-1.29 3.614h3.956l-1.478-4.272-.495-1.487zM21.382 78.555q0 1.538-1.17 2.392-1.171.855-3.256.855h-4.034V70.275h3.52q4.24 0 4.24 2.794 0 1.042-.616 1.743-.615.7-1.675.914 1.427.154 2.205.915.786.76.786 1.914zm-2.341-5.281q0-.914-.65-1.299-.64-.393-1.931-.393h-1.906v3.555h1.923q2.564 0 2.564-1.863zm.692 5.135q0-.974-.76-1.486-.761-.513-2.265-.513h-2.154v4.084h2.273q1.496 0 2.196-.512.71-.522.71-1.573zM24.714 75.983q0 2.332.727 3.503.735 1.162 2.238 1.162.863 0 1.564-.58.7-.59 1.188-1.83l1.359.556q-1.274 3.179-4.128 3.179-2.247 0-3.46-1.547-1.205-1.547-1.205-4.443 0-5.888 4.58-5.888 2.897 0 3.982 2.863l-1.436.555q-.316-.965-.99-1.52-.667-.565-1.548-.565-1.46 0-2.17 1.103-.7 1.102-.7 3.452zM42.137 75.923q0 2.828-1.315 4.358-1.308 1.52-3.752 1.52H33.91V70.276h2.657q2.811 0 4.187 1.41 1.384 1.4 1.384 4.238zm-1.64 0q0-2.256-.94-3.281-.94-1.034-2.982-1.034H35.54v8.86h1.384q1.812 0 2.692-1.136.88-1.136.88-3.41zM44.402 81.802V70.275h7.853v1.333h-6.221v3.606h5.708v1.316h-5.708v3.939h6.571v1.333h-8.203zM56.8 71.608v4.22h5.777v1.35H56.8v4.624h-1.633V70.275h7.614v1.333h-5.981zM73.412 80.665q-1.957 1.308-3.948 1.308-2.136 0-3.315-1.581-1.18-1.59-1.18-4.41 0-2.964 1.128-4.426 1.128-1.46 3.393-1.46 2.956 0 3.939 2.828l-1.461.478q-.684-1.974-2.461-1.974-1.444 0-2.136 1.077-.684 1.077-.684 3.478 0 4.665 2.914 4.665.58 0 1.205-.18.623-.179 1.017-.452v-2.871h-2.504v-1.367h4.093v4.887zM81.974 81.802v-5.324h-4.46v5.324H75.88V70.275h1.632v4.836h4.46v-4.836h1.633v11.527h-1.632zM86.716 70.275h7.033v1.333h-2.7v8.86h2.7v1.334h-7.033v-1.333h2.7v-8.861h-2.7v-1.333zM103.909 78.213q0 1.786-.898 2.777-.897.983-2.52.983-1.461 0-2.333-.76-.872-.761-1.17-2.402l1.597-.265q.154 1.008.65 1.555.504.547 1.264.547 1.786 0 1.786-2.4v-6.64h-2.657v-1.333h4.28v7.938zM114.547 81.802l-4.161-5.452-1.393 1.444v4.008h-1.632V70.275h1.632v5.75l4.888-5.75h1.922l-4.306 4.887 4.964 6.64h-1.914zM118.495 81.802V70.275h1.632v10.194h5.742v1.333h-7.374zM134.97 81.802v-7.417q0-1.154.025-1.718l.026-.854q-.547 1.76-.812 2.486l-1.401 3.743h-1.171l-1.419-3.743q-.153-.393-.82-2.486l.034 2.572v7.417h-1.367V70.275h2.025l1.581 4.178q.18.453.581 1.974l.222-.769.376-1.196 1.581-4.187h1.923v11.527h-1.385zM144.6 81.802l-4.444-9.656q.137 1.47.137 2.17v7.486h-1.453V70.275h1.897l4.512 9.724q-.154-1.23-.154-2.342v-7.382h1.47v11.527H144.6zM157.57 75.983q0 2.88-1.136 4.434-1.128 1.556-3.247 1.556-2.127 0-3.247-1.53t-1.12-4.46q0-2.88 1.112-4.384 1.11-1.504 3.272-1.504 2.11 0 3.239 1.487 1.128 1.478 1.128 4.4zm-1.717 0q0-4.555-2.649-4.555-2.666 0-2.666 4.555 0 2.307.675 3.486.675 1.18 1.983 1.18 1.393 0 2.025-1.197.632-1.196.632-3.47zM168.004 73.727q0 1.068-.513 1.905-.504.838-1.452 1.308-.94.47-2.18.47h-2.4v4.392h-1.632V70.275h3.93q2.034 0 3.136.914 1.111.906 1.111 2.538zm-1.64.025q0-2.17-2.803-2.17h-2.102v4.537h2.17q1.273 0 2-.623.735-.624.735-1.744zM178.557 75.983q0 2.478-.846 3.982-.837 1.495-2.4 1.87.35 1.078.922 1.565.572.487 1.435.487.47 0 .983-.111v1.145q-.795.188-1.52.188-1.283 0-2.12-.727-.829-.717-1.367-2.444-1.872-.188-2.854-1.7-.983-1.521-.983-4.255 0-2.88 1.111-4.384 1.11-1.504 3.273-1.504 2.11 0 3.238 1.487 1.128 1.478 1.128 4.4zm-1.717 0q0-4.555-2.65-4.555-2.665 0-2.665 4.555 0 2.307.675 3.486.675 1.18 1.982 1.18 1.393 0 2.025-1.197.633-1.196.633-3.47zM187.606 81.802l-3.127-4.914h-2.034v4.914h-1.632V70.275h4.119q1.99 0 3.033.829 1.043.82 1.043 2.358 0 1.273-.804 2.145-.794.871-2.136 1.093l3.418 5.102h-1.88zm-.24-8.314q0-1.906-2.597-1.906h-2.324v4.016h2.393q1.222 0 1.871-.547.658-.547.658-1.563zM199.56 78.64q0 1.572-1.153 2.453-1.145.88-3.273.88-3.905 0-4.537-3.06l1.58-.316q.24 1.103.992 1.607.752.495 2.008.495 1.359 0 2.06-.53.709-.53.709-1.503 0-.598-.282-.974-.274-.376-.727-.616-.453-.239-1.025-.384-.564-.154-1.145-.3-1.376-.358-1.965-.64-.582-.282-.932-.64-.35-.368-.53-.838-.18-.47-.18-1.103 0-1.478 1.035-2.273 1.042-.803 2.982-.803 1.812 0 2.769.633.957.632 1.333 2.136l-1.607.282q-.205-.957-.82-1.385-.615-.435-1.684-.435-2.418 0-2.418 1.82 0 .512.222.837.231.316.616.53.393.205.905.342l1.111.29q1.188.3 1.71.504.52.197.922.453.41.257.7.607.291.35.454.82.17.47.17 1.111zM206.473 71.608v10.194h-1.623V71.608h-3.786v-1.333h9.195v1.333h-3.786zM220.18 77.615q0 2.281-.975 3.324-.974 1.034-3.127 1.034-2.085 0-3.025-1-.931-1.008-.931-3.204v-7.494h1.632v7.271q0 1.744.495 2.427.504.675 1.82.675 1.376 0 1.931-.7.556-.701.556-2.513v-7.16h1.623v7.34zM227.494 81.802h-1.692l-4.315-11.527h1.717l2.735 7.707q.265.735.718 2.384.341-1.273.717-2.384l2.718-7.707h1.717l-4.315 11.527zM240.593 81.802h-1.777q-.632-2.359-.966-3.59-.324-1.23-.692-2.87-.248 1.068-.461 1.93-.205.864-1.222 4.53h-1.777l-1.803-11.527h1.615l.93 7.135q.138 1.119.283 2.956.273-1.179.453-1.948.188-.77 1.23-4.572h1.496q.59 2.162.922 3.401.342 1.24.761 3.12l.299-2.957.889-7.135h1.615l-1.795 11.527zM247.634 74.658l2.846-4.383h1.751l-3.717 5.503 4.068 6.024h-1.752l-3.196-4.896-3.187 4.896h-1.752l4.068-6.024-3.717-5.503h1.751l2.837 4.383zM258.93 76.812v4.99h-1.606v-4.99l-4.136-6.537h1.752l3.196 5.22 3.179-5.22h1.751l-4.135 6.537zM273.243 81.802h-9.245V80.58l6.99-8.972h-6.366v-1.333h8.22v1.187l-6.99 9.007h7.391v1.333zM10.419 99.045q0 2.333-1.077 3.572-1.068 1.23-3.093 1.23-1.983 0-3.042-1.247-1.051-1.247-1.051-3.555 0-2.384 1.076-3.58Q4.318 94.26 6.3 94.26q2.085 0 3.102 1.188t1.017 3.597zm-1.615 0q0-1.837-.59-2.743-.58-.905-1.888-.905-1.325 0-1.94.923-.615.922-.615 2.725 0 1.795.615 2.735.615.931 1.846.931 1.358 0 1.965-.914t.607-2.752zM21.16 97.858q0 2.88-1.137 4.434-1.128 1.556-3.247 1.556-2.128 0-3.247-1.53-1.12-1.53-1.12-4.46 0-2.88 1.112-4.384 1.11-1.504 3.272-1.504 2.11 0 3.239 1.487 1.128 1.478 1.128 4.4zm-1.718 0q0-4.555-2.649-4.555-2.666 0-2.666 4.555 0 2.307.675 3.486.675 1.18 1.983 1.18 1.392 0 2.025-1.197.632-1.196.632-3.47zM31.456 97.909q0 2.888-1.068 4.418-1.06 1.52-3.136 1.52t-3.119-1.512q-1.042-1.52-1.042-4.426 0-2.982 1.017-4.46 1.017-1.479 3.195-1.479 2.128 0 3.136 1.496 1.017 1.486 1.017 4.443zm-1.563 0q0-2.478-.607-3.58-.598-1.111-1.983-1.111-1.418 0-2.042 1.094-.615 1.093-.615 3.597 0 2.435.624 3.563.632 1.12 2 1.12 1.358 0 1.99-1.154.633-1.154.633-3.53zm-3.623 1.025v-2.127h2.008v2.127H26.27zM41.873 100.447q0 1.572-1.069 2.486-1.06.915-3.033.915-1.931 0-3.025-.898-1.085-.897-1.085-2.486 0-1.102.675-1.871.675-.778 1.726-.958v-.034q-.957-.23-1.538-.974-.581-.743-.581-1.7 0-.838.47-1.521.478-.684 1.341-1.06t1.983-.376q1.17 0 2.042.385.872.376 1.333 1.05.461.676.461 1.539 0 .965-.59 1.709-.589.743-1.546.931v.034q1.111.18 1.77.94.666.752.666 1.889zm-1.897-5.418q0-.948-.581-1.427-.573-.487-1.658-.487-1.051 0-1.64.487-.582.487-.582 1.427 0 .949.59 1.47t1.649.521q2.222 0 2.222-1.99zm.299 5.273q0-1.026-.667-1.573-.666-.555-1.871-.555-1.162 0-1.829.598-.658.59-.658 1.564 0 1.153.641 1.76.65.598 1.897.598 1.256 0 1.871-.59.616-.59.616-1.802zM59.877 102.463h3.247v1.214h-8.391v-1.214h3.606v-6.818h-2.726V94.43h4.264v8.032zm-1.71-9.826v-1.64h1.71v1.64h-1.71zM65.73 92.15h7.032v1.333h-2.7v8.86h2.7v1.334H65.73v-1.333h2.7v-8.861h-2.7V92.15zM80.786 102.463h3.247v1.214h-8.39v-1.214h3.605V92.21h-2.47v-1.213h4.008v11.467zM87.015 103.677V92.15h1.632v10.194h5.743v1.333h-7.375zM96.825 103.677v-1.24h3.751v-8.724q-.316.667-1.504 1.162-1.179.496-2.324.496v-1.265q1.265 0 2.384-.555 1.128-.555 1.572-1.401h1.419v10.288h3.016v1.239h-8.314zM123.271 107.308q-1.11 0-1.811-.726-.7-.718-.7-1.863v-2.999q0-.914-.624-1.427t-1.727-.555v-1.171q1.111-.043 1.727-.564.623-.521.623-1.41v-3.008q0-1.17.692-1.88.693-.709 1.82-.709h2.265v1.188h-1.82q-.778 0-1.12.376-.341.376-.341 1.29v2.957q0 .837-.547 1.478-.547.632-1.427.846v.017q.871.205 1.418.837.556.624.556 1.504v2.965q0 .906.341 1.282.342.385 1.12.385h1.82v1.187h-2.265zM128.39 107.308v-1.187h1.82q.778 0 1.12-.385.35-.376.35-1.282v-2.965q0-.871.547-1.504.546-.632 1.418-.837v-.017q-.872-.214-1.418-.855-.547-.64-.547-1.47V93.85q0-.897-.342-1.282-.342-.384-1.128-.384h-1.82v-1.188h2.264q1.137 0 1.82.71.693.709.693 1.88v3.007q0 .897.623 1.418.624.513 1.726.556v1.17q-1.11.043-1.734.564-.615.513-.615 1.419v3q0 1.153-.701 1.87-.7.718-1.812.718h-2.264zM151.453 107.308V90.996h4.674v1.188h-3.136v13.937h3.136v1.187h-4.674zM160.75 107.308v-1.187h3.136V92.184h-3.136v-1.188h4.674v16.312h-4.674zM184.684 107.3q-1.436 0-2.307-.59-.872-.59-1.111-1.692l1.572-.213q.145.64.624.982.487.35 1.273.35 2.12 0 2.12-2.691v-1.658h-.018q-.419.88-1.162 1.333-.743.453-1.769.453-1.692 0-2.478-1.102-.777-1.11-.777-3.486 0-2.419.837-3.555.837-1.145 2.58-1.145.966 0 1.675.453.718.444 1.103 1.273h.025q0-.256.034-.863.035-.615.069-.718h1.461q-.051.462-.051 1.914v7.058q0 1.94-.906 2.914-.906.983-2.794.983zm2.17-8.332q0-1.649-.64-2.589-.641-.948-1.76-.948-1.172 0-1.693.82-.521.812-.521 2.717 0 1.29.214 2.043.222.743.683 1.085.462.342 1.29.342.727 0 1.274-.402.555-.41.854-1.188.3-.786.3-1.88zM199.21 97.67q0 2.956-1.136 4.571-1.137 1.607-3.222 1.607-1.41 0-2.264-.59-.846-.598-1.213-1.923l1.47-.23q.46 1.504 2.033 1.504 1.316 0 2.05-1.188.744-1.196.761-3.298-.342.769-1.17 1.239-.83.461-1.82.461-1.615 0-2.598-1.085-.974-1.094-.974-2.846 0-1.811 1.068-2.862 1.076-1.06 2.94-1.06 4.075 0 4.075 5.7zm-1.675-1.359q0-1.376-.683-2.23-.684-.863-1.769-.863-1.11 0-1.752.743-.64.744-.64 1.931 0 1.222.64 1.974.641.744 1.735.744.65 0 1.222-.29.58-.3.914-.821.333-.53.333-1.188zM204.935 94.294q1.103 0 1.76.385.659.376 1.077 1.188h.017q0-.257.026-.795.034-.547.077-.65h1.495q-.051.462-.051 2.41v10.476h-1.547v-3.75l.034-1.436h-.017q-.453.914-1.128 1.35-.675.427-1.734.427-1.726 0-2.538-1.196-.812-1.205-.812-3.572 0-4.837 3.341-4.837zm2.854 4.649q0-1.812-.58-2.658-.582-.854-1.846-.854-1.145 0-1.667.871-.512.872-.512 2.778 0 1.888.52 2.76.522.871 1.641.871 1.257 0 1.846-.931.598-.932.598-2.837zM213.591 97.858q0 2.332.727 3.503.734 1.162 2.238 1.162.863 0 1.564-.58.7-.59 1.188-1.83l1.359.556q-1.274 3.179-4.128 3.179-2.247 0-3.46-1.547-1.205-1.547-1.205-4.443 0-5.888 4.58-5.888 2.897 0 3.982 2.863l-1.436.555q-.316-.965-.991-1.52-.666-.565-1.547-.565-1.46 0-2.17 1.103-.7 1.102-.7 3.452zM230.81 102.54q-1.957 1.308-3.948 1.308-2.137 0-3.316-1.581-1.18-1.59-1.18-4.41 0-2.964 1.129-4.426 1.128-1.46 3.392-1.46 2.957 0 3.94 2.828l-1.462.478q-.683-1.974-2.46-1.974-1.445 0-2.137 1.077-.684 1.077-.684 3.478 0 4.665 2.914 4.665.581 0 1.205-.18.624-.179 1.017-.452V99.02h-2.504v-1.367h4.093v4.887zM241.516 97.858q0 2.478-.846 3.982-.837 1.495-2.401 1.87.35 1.078.923 1.565.572.487 1.435.487.47 0 .983-.111v1.145q-.795.188-1.52.188-1.283 0-2.12-.727-.829-.717-1.367-2.444-1.872-.188-2.854-1.7-.983-1.521-.983-4.255 0-2.88 1.111-4.384 1.11-1.504 3.273-1.504 2.11 0 3.238 1.487 1.128 1.478 1.128 4.4zm-1.717 0q0-4.555-2.65-4.555-2.665 0-2.665 4.555 0 2.307.675 3.486.675 1.18 1.982 1.18 1.393 0 2.025-1.197.633-1.196.633-3.47zM256.051 96.781q.872 0 2.008.393 1.256.436 1.624.521.376.086.683.086 1.111 0 2.085-.786v1.273q-.513.359-1.008.521-.487.162-1.214.162-.59 0-1.213-.188-.615-.188-1.239-.41-1.102-.384-1.854-.384-.573 0-1.068.18-.496.17-1.051.572v-1.222q.948-.718 2.247-.718zM266.228 99.712v-1.367h4.785v1.367h-4.785zM279.738 98.481v3.658h-1.257V98.48h-3.623v-1.247h3.623v-3.657h1.257v3.657h3.623v1.247h-3.623zM285.352 96.362v-1.264h8.502v1.264h-8.502zm0 4.375v-1.264h8.502v1.264h-8.502zM295.845 102.36v-1.307l7.331-3.136-7.331-3.127v-1.316l8.502 3.572v1.752l-8.502 3.563z"/></g></g></svg>