<?xml version="1.0" encoding="UTF-8" standalone="no"?>
<svg
   version="1.1"
   id="svg2"
   viewBox="0 0 353.95249 107.48249"
   height="30.333946mm"
   width="99.893257mm"
   sodipodi:docname="D2CodingLigature Nerd Font.svg"
   xmlns:inkscape="http://www.inkscape.org/namespaces/inkscape"
   xmlns:sodipodi="http://sodipodi.sourceforge.net/DTD/sodipodi-0.dtd"
   xmlns="http://www.w3.org/2000/svg"
   xmlns:svg="http://www.w3.org/2000/svg"
   xmlns:rdf="http://www.w3.org/1999/02/22-rdf-syntax-ns#"
   xmlns:cc="http://creativecommons.org/ns#"
   xmlns:dc="http://purl.org/dc/elements/1.1/">
  <sodipodi:namedview
     id="namedview12"
     pagecolor="#ffffff"
     bordercolor="#666666"
     borderopacity="1.0"
     inkscape:showpageshadow="2"
     inkscape:pageopacity="0.0"
     inkscape:pagecheckerboard="0"
     inkscape:deskcolor="#d1d1d1"
     inkscape:document-units="mm" />
  <defs
     id="defs4" />
  <metadata
     id="metadata7">
    <rdf:RDF>
      <cc:Work
         rdf:about="">
        <dc:format>image/svg+xml</dc:format>
        <dc:type
           rdf:resource="http://purl.org/dc/dcmitype/StillImage" />
        <dc:title />
      </cc:Work>
    </rdf:RDF>
  </metadata>
  <g
     id="layer1"
     transform="translate(-64.507143,-79.896132)">
    <g
       aria-label="D2CodingLigature Nerd Font"
       id="text4136"
       style="font-size:27.5px;font-family:'D2CodingLigature Nerd Font';letter-spacing:0px;word-spacing:0px;fill:#ffffff">
      <path
         d="M 68.467143,83.856132 H 66.872143 V 98.541132 H 68.384643 Q 69.814643,98.541132 70.749643,98.128632 71.684643,97.688632 72.234643,96.808632 72.812143,95.901132 73.032143,94.498632 73.279643,93.096132 73.279643,91.143632 73.279643,89.218632 73.032143,87.843632 72.812143,86.468632 72.234643,85.588632 71.684643,84.681132 70.749643,84.268632 69.842143,83.856132 68.467143,83.856132 Z M 68.439643,100.49363 H 64.507143 V 81.848632 H 68.577143 Q 70.529643,81.848632 71.877143,82.371132 73.224643,82.893632 74.049643,84.021132 74.902143,85.148632 75.259643,86.908632 75.644643,88.641132 75.644643,91.116132 75.644643,93.701132 75.259643,95.488632 74.874643,97.276132 73.994643,98.403632 73.142143,99.503632 71.767143,99.998632 70.392143,100.49363 68.439643,100.49363 Z"
         id="path14" />
      <path
         d="M 78.394643,85.038632 V 82.976132 Q 79.302143,82.343632 80.512143,81.903632 81.749643,81.436132 83.152143,81.436132 85.654643,81.436132 87.194643,82.673632 88.734643,83.883632 88.734643,86.358632 88.734643,87.403632 88.459643,88.283632 88.212143,89.136132 87.772143,89.933632 87.359643,90.731132 86.782143,91.501132 86.204643,92.271132 85.544643,93.096132 L 81.172143,98.541132 H 88.927143 V 100.49363 H 78.367143 V 98.541132 L 83.509643,92.188632 Q 84.169643,91.363632 84.664643,90.676132 85.187143,89.988632 85.544643,89.328632 85.929643,88.641132 86.122143,87.926132 86.314643,87.183632 86.314643,86.303632 86.314643,84.818632 85.434643,84.131132 84.582143,83.416132 83.152143,83.416132 82.217143,83.416132 81.117143,83.801132 80.044643,84.158632 78.724643,85.038632 Z"
         id="path16" />
      <path
         d="M 102.95214,97.193632 V 99.586132 Q 101.30214,100.82363 98.634643,100.82363 96.682143,100.82363 95.362143,100.13613 94.069643,99.421132 93.244643,98.156132 92.447143,96.891132 92.089643,95.131132 91.759643,93.371132 91.759643,91.281132 91.759643,89.191132 92.089643,87.403632 92.447143,85.616132 93.244643,84.323632 94.042143,83.003632 95.334643,82.261132 96.627143,81.518632 98.552143,81.518632 99.789643,81.518632 100.77964,81.793632 101.76964,82.068632 102.62214,82.508632 V 85.011132 H 102.29214 Q 101.57714,84.461132 100.64214,84.048632 99.734643,83.608632 98.579643,83.608632 96.407143,83.608632 95.334643,85.533632 94.262143,87.431132 94.262143,91.088632 94.262143,94.883632 95.362143,96.836132 96.489643,98.761132 98.717143,98.761132 99.872143,98.761132 100.75214,98.431132 101.65964,98.073632 102.62214,97.193632 Z"
         id="path18" />
      <path
         d="M 110.98214,100.85113 Q 109.33214,100.85113 108.23214,100.27363 107.15964,99.696132 106.49964,98.706132 105.86714,97.716132 105.61964,96.396132 105.37214,95.048632 105.37214,93.508632 105.37214,91.968632 105.61964,90.648632 105.89464,89.301132 106.52714,88.311132 107.18714,87.321132 108.25964,86.743632 109.33214,86.166132 110.98214,86.166132 112.57714,86.166132 113.64964,86.743632 114.74964,87.321132 115.38214,88.311132 116.04214,89.301132 116.31714,90.648632 116.59214,91.996132 116.59214,93.508632 116.59214,95.021132 116.31714,96.368632 116.06964,97.688632 115.40964,98.706132 114.77714,99.696132 113.70464,100.27363 112.63214,100.85113 110.98214,100.85113 Z M 110.98214,98.981132 Q 112.76964,98.981132 113.51214,97.551132 114.28214,96.093632 114.28214,93.508632 114.28214,90.868632 113.51214,89.438632 112.76964,88.008632 110.98214,88.008632 109.16714,88.008632 108.42464,89.438632 107.68214,90.841132 107.68214,93.508632 107.68214,96.093632 108.42464,97.551132 109.16714,98.981132 110.98214,98.981132 Z"
         id="path20" />
      <path
         d="M 127.56464,92.188632 Q 127.56464,91.418632 127.42714,90.676132 127.28964,89.933632 126.93214,89.356132 126.57464,88.751132 125.96964,88.393632 125.39214,88.036132 124.48464,88.036132 123.10964,88.036132 122.25714,89.356132 121.43214,90.648632 121.43214,93.508632 121.43214,96.396132 122.11964,97.661132 122.83464,98.926132 124.37464,98.926132 125.03464,98.926132 125.61214,98.651132 126.18964,98.348632 126.60214,97.826132 127.04214,97.276132 127.28964,96.533632 127.56464,95.791132 127.56464,94.883632 Z M 124.01714,86.193632 Q 125.08964,86.193632 126.05214,86.716132 127.04214,87.211132 127.53714,88.118632 H 127.56464 V 80.968632 H 129.84714 V 100.49363 H 127.61964 L 127.53714,98.953632 H 127.50964 Q 127.34464,99.366132 126.95964,99.723632 126.60214,100.08113 126.10714,100.32863 125.63964,100.57613 125.08964,100.71363 124.53964,100.85113 124.04464,100.85113 122.53214,100.85113 121.56964,100.21863 120.63464,99.586132 120.08464,98.568632 119.53464,97.523632 119.31464,96.203632 119.12214,94.856132 119.12214,93.426132 119.12214,92.188632 119.36964,90.896132 119.61714,89.603632 120.16714,88.558632 120.74464,87.513632 121.67964,86.853632 122.61464,86.193632 124.01714,86.193632 Z"
         id="path22" />
      <path
         d="M 139.91214,86.468632 V 98.596132 H 143.87214 V 100.49363 H 133.36714 V 98.596132 H 137.57464 V 88.366132 H 134.32964 V 86.468632 Z M 136.72214,81.766132 Q 136.72214,80.996132 137.27214,80.446132 137.82214,79.896132 138.56464,79.896132 139.30714,79.896132 139.85714,80.446132 140.40714,80.996132 140.40714,81.766132 140.40714,82.536132 139.85714,83.086132 139.30714,83.636132 138.56464,83.636132 137.82214,83.636132 137.27214,83.086132 136.72214,82.536132 136.72214,81.766132 Z"
         id="path24" />
      <path
         d="M 157.40214,100.49363 H 155.11964 V 92.023632 Q 155.11964,89.796132 154.56964,88.916132 154.01964,88.036132 152.58964,88.036132 151.92964,88.036132 151.32464,88.393632 150.74714,88.723632 150.30714,89.328632 149.89464,89.933632 149.64714,90.786132 149.39964,91.638632 149.39964,92.656132 V 100.49363 H 147.11714 V 86.468632 H 149.23464 L 149.34464,88.338632 Q 149.81214,87.458632 150.80214,86.826132 151.81964,86.193632 153.05714,86.193632 154.40464,86.193632 155.22964,86.633632 156.08214,87.073632 156.54964,87.871132 157.04464,88.641132 157.20964,89.713632 157.40214,90.786132 157.40214,92.078632 Z"
         id="path26" />
      <path
         d="M 168.81464,92.271132 Q 168.81464,91.363632 168.59464,90.593632 168.40214,89.823632 167.98964,89.273632 167.60464,88.696132 166.99964,88.393632 166.42214,88.063632 165.65214,88.063632 165.07464,88.063632 164.55214,88.311132 164.02964,88.531132 163.61714,89.108632 163.20464,89.658632 162.95714,90.593632 162.73714,91.501132 162.73714,92.848632 162.73714,93.673632 162.81964,94.553632 162.90214,95.433632 163.20464,96.176132 163.50714,96.918632 164.05714,97.386132 164.63464,97.853632 165.62464,97.853632 166.55964,97.853632 167.16464,97.441132 167.79714,97.028632 168.15464,96.451132 168.51214,95.846132 168.64964,95.213632 168.81464,94.581132 168.81464,94.113632 Z M 165.04714,103.21613 Q 167.02714,103.21613 167.93464,101.84113 168.86964,100.49363 168.86964,97.908632 V 97.633632 Q 167.65964,99.613632 165.40464,99.696132 163.86464,99.751132 162.87464,99.228632 161.91214,98.678632 161.33464,97.771132 160.78464,96.836132 160.56464,95.571132 160.37214,94.306132 160.37214,92.876132 160.37214,91.446132 160.64714,90.236132 160.92214,89.026132 161.52714,88.146132 162.13214,87.238632 163.06714,86.716132 164.02964,86.193632 165.40464,86.166132 166.44964,86.138632 167.30214,86.606132 168.15464,87.073632 168.70464,88.036132 H 168.75964 L 168.92464,86.468632 H 171.09714 V 97.276132 Q 171.09714,99.091132 170.79464,100.54863 170.49214,102.00613 169.77714,103.02363 169.08964,104.04113 167.93464,104.59113 166.77964,105.14113 165.10214,105.14113 164.11214,105.14113 163.01214,104.86613 161.91214,104.61863 161.16964,104.15113 V 102.06113 H 161.49964 Q 161.74714,102.25363 162.15964,102.44613 162.57214,102.66613 163.03964,102.83113 163.53464,102.99613 164.05714,103.10613 164.57964,103.21613 165.04714,103.21613 Z"
         id="path28" />
      <path
         d="M 185.61714,98.486132 V 100.49363 H 175.11214 V 81.848632 H 177.47714 V 98.486132 Z"
         id="path30" />
      <path
         d="M 194.91214,86.468632 V 98.596132 H 198.87214 V 100.49363 H 188.36714 V 98.596132 H 192.57464 V 88.366132 H 189.32964 V 86.468632 Z M 191.72214,81.766132 Q 191.72214,80.996132 192.27214,80.446132 192.82214,79.896132 193.56464,79.896132 194.30714,79.896132 194.85714,80.446132 195.40714,80.996132 195.40714,81.766132 195.40714,82.536132 194.85714,83.086132 194.30714,83.636132 193.56464,83.636132 192.82214,83.636132 192.27214,83.086132 191.72214,82.536132 191.72214,81.766132 Z"
         id="path32" />
      <path
         d="M 210.06464,92.271132 Q 210.06464,91.363632 209.84464,90.593632 209.65214,89.823632 209.23964,89.273632 208.85464,88.696132 208.24964,88.393632 207.67214,88.063632 206.90214,88.063632 206.32464,88.063632 205.80214,88.311132 205.27964,88.531132 204.86714,89.108632 204.45464,89.658632 204.20714,90.593632 203.98714,91.501132 203.98714,92.848632 203.98714,93.673632 204.06964,94.553632 204.15214,95.433632 204.45464,96.176132 204.75714,96.918632 205.30714,97.386132 205.88464,97.853632 206.87464,97.853632 207.80964,97.853632 208.41464,97.441132 209.04714,97.028632 209.40464,96.451132 209.76214,95.846132 209.89964,95.213632 210.06464,94.581132 210.06464,94.113632 Z M 206.29714,103.21613 Q 208.27714,103.21613 209.18464,101.84113 210.11964,100.49363 210.11964,97.908632 V 97.633632 Q 208.90964,99.613632 206.65464,99.696132 205.11464,99.751132 204.12464,99.228632 203.16214,98.678632 202.58464,97.771132 202.03464,96.836132 201.81464,95.571132 201.62214,94.306132 201.62214,92.876132 201.62214,91.446132 201.89714,90.236132 202.17214,89.026132 202.77714,88.146132 203.38214,87.238632 204.31714,86.716132 205.27964,86.193632 206.65464,86.166132 207.69964,86.138632 208.55214,86.606132 209.40464,87.073632 209.95464,88.036132 H 210.00964 L 210.17464,86.468632 H 212.34714 V 97.276132 Q 212.34714,99.091132 212.04464,100.54863 211.74214,102.00613 211.02714,103.02363 210.33964,104.04113 209.18464,104.59113 208.02964,105.14113 206.35214,105.14113 205.36214,105.14113 204.26214,104.86613 203.16214,104.61863 202.41964,104.15113 V 102.06113 H 202.74964 Q 202.99714,102.25363 203.40964,102.44613 203.82214,102.66613 204.28964,102.83113 204.78464,102.99613 205.30714,103.10613 205.82964,103.21613 206.29714,103.21613 Z"
         id="path34" />
      <path
         d="M 223.81464,95.021132 V 93.453632 L 220.51464,94.003632 Q 219.16714,94.196132 218.45214,94.801132 217.76464,95.406132 217.76464,96.643632 217.76464,97.743632 218.31464,98.348632 218.89214,98.926132 220.04714,98.926132 220.81714,98.926132 221.50464,98.596132 222.19214,98.266132 222.68714,97.743632 223.20964,97.193632 223.51214,96.478632 223.81464,95.763632 223.81464,95.021132 Z M 216.33464,89.576132 V 87.431132 Q 217.43464,86.771132 218.53464,86.468632 219.66214,86.138632 221.06464,86.138632 223.48464,86.138632 224.72214,87.568632 225.98714,88.998632 225.98714,91.556132 V 100.49363 H 223.84214 L 223.75964,98.651132 H 223.70464 Q 223.07214,99.806132 221.99964,100.32863 220.95464,100.85113 219.68964,100.85113 217.68214,100.85113 216.49964,99.806132 215.34464,98.733632 215.34464,96.836132 215.34464,94.938632 216.36214,93.866132 217.37964,92.766132 219.52464,92.408632 L 223.70464,91.721132 V 91.336132 Q 223.70464,89.603632 223.01714,88.888632 222.35714,88.146132 220.95464,88.146132 219.79964,88.146132 218.75464,88.476132 217.70964,88.778632 216.63714,89.576132 Z"
         id="path36" />
      <path
         d="M 239.70964,98.238632 V 99.998632 Q 239.15964,100.41113 238.33464,100.60363 237.50964,100.76863 236.79464,100.76863 234.86964,100.76863 233.74214,99.806132 232.61464,98.843632 232.61464,96.863632 V 88.366132 H 229.72714 V 86.468632 H 232.61464 V 82.838632 L 234.92464,81.738632 V 86.468632 H 239.51714 V 88.366132 H 234.92464 V 96.643632 Q 234.92464,98.816132 237.06964,98.816132 237.72964,98.816132 238.30714,98.651132 238.91214,98.486132 239.37964,98.238632 Z"
         id="path38" />
      <path
         d="M 243.31214,86.468632 H 245.59464 V 94.938632 Q 245.59464,97.166132 246.14464,98.046132 246.69464,98.926132 248.12464,98.926132 248.78464,98.926132 249.36214,98.596132 249.96714,98.238632 250.37964,97.633632 250.81964,97.028632 251.06714,96.176132 251.31464,95.323632 251.31464,94.306132 V 86.468632 H 253.59714 V 100.49363 H 251.47964 L 251.36964,98.623632 Q 250.90214,99.503632 249.88464,100.13613 248.89464,100.76863 247.65714,100.76863 246.30964,100.76863 245.45714,100.32863 244.63214,99.888632 244.13714,99.118632 243.66964,98.321132 243.47714,97.248632 243.31214,96.176132 243.31214,94.883632 Z"
         id="path40" />
      <path
         d="M 260.27964,86.468632 260.44464,89.246132 Q 260.60964,88.751132 260.96714,88.201132 261.35214,87.651132 261.90214,87.211132 262.47964,86.743632 263.19464,86.468632 263.93714,86.166132 264.81714,86.166132 265.72464,86.166132 266.60464,86.386132 267.51214,86.606132 268.22714,87.073632 V 89.328632 H 267.89714 Q 267.26464,88.916132 266.38464,88.641132 265.50464,88.338632 264.62464,88.338632 263.63464,88.338632 262.86464,88.778632 262.12214,89.191132 261.57214,89.933632 261.04964,90.648632 260.77464,91.583632 260.49964,92.518632 260.49964,93.536132 V 100.49363 H 258.18964 V 86.468632 Z"
         id="path42" />
      <path
         d="M 272.70964,91.693632 H 279.14464 V 91.611132 Q 278.95214,88.008632 276.20214,88.008632 273.25964,88.008632 272.70964,91.666132 Z M 276.28464,86.166132 Q 277.63214,86.166132 278.62214,86.633632 279.63964,87.101132 280.27214,87.953632 280.90464,88.778632 281.20714,89.933632 281.53714,91.088632 281.53714,92.436132 V 93.453632 H 272.68214 V 93.591132 Q 272.68214,94.691132 272.87464,95.653632 273.06714,96.588632 273.50714,97.303632 273.97464,98.018632 274.71714,98.431132 275.45964,98.843632 276.58714,98.843632 277.60464,98.843632 278.64964,98.513632 279.72214,98.156132 280.65714,97.441132 H 280.98714 V 99.613632 Q 280.05214,100.24613 279.00714,100.54863 277.98964,100.85113 276.50464,100.85113 274.85464,100.85113 273.67214,100.32863 272.48964,99.778632 271.71964,98.788632 270.97714,97.798632 270.61964,96.451132 270.26214,95.076132 270.26214,93.426132 270.26214,91.748632 270.61964,90.401132 270.97714,89.053632 271.71964,88.118632 272.46214,87.183632 273.58964,86.688632 274.71714,86.166132 276.28464,86.166132 Z"
         id="path44" />
      <path
         d="M 305.37964,100.49363 300.70464,85.726132 300.42964,84.296132 H 300.34714 L 300.40214,85.808632 V 100.49363 H 298.14714 V 81.848632 H 301.58464 L 306.25964,96.643632 306.53464,98.046132 H 306.61714 L 306.56214,96.561132 V 81.848632 H 308.81714 V 100.49363 Z"
         id="path46" />
      <path
         d="M 313.95964,91.693632 H 320.39464 V 91.611132 Q 320.20214,88.008632 317.45214,88.008632 314.50964,88.008632 313.95964,91.666132 Z M 317.53464,86.166132 Q 318.88214,86.166132 319.87214,86.633632 320.88964,87.101132 321.52214,87.953632 322.15464,88.778632 322.45714,89.933632 322.78714,91.088632 322.78714,92.436132 V 93.453632 H 313.93214 V 93.591132 Q 313.93214,94.691132 314.12464,95.653632 314.31714,96.588632 314.75714,97.303632 315.22464,98.018632 315.96714,98.431132 316.70964,98.843632 317.83714,98.843632 318.85464,98.843632 319.89964,98.513632 320.97214,98.156132 321.90714,97.441132 H 322.23714 V 99.613632 Q 321.30214,100.24613 320.25714,100.54863 319.23964,100.85113 317.75464,100.85113 316.10464,100.85113 314.92214,100.32863 313.73964,99.778632 312.96964,98.788632 312.22714,97.798632 311.86964,96.451132 311.51214,95.076132 311.51214,93.426132 311.51214,91.748632 311.86964,90.401132 312.22714,89.053632 312.96964,88.118632 313.71214,87.183632 314.83964,86.688632 315.96714,86.166132 317.53464,86.166132 Z"
         id="path48" />
      <path
         d="M 329.02964,86.468632 329.19464,89.246132 Q 329.35964,88.751132 329.71714,88.201132 330.10214,87.651132 330.65214,87.211132 331.22964,86.743632 331.94464,86.468632 332.68714,86.166132 333.56714,86.166132 334.47464,86.166132 335.35464,86.386132 336.26214,86.606132 336.97714,87.073632 V 89.328632 H 336.64714 Q 336.01464,88.916132 335.13464,88.641132 334.25464,88.338632 333.37464,88.338632 332.38464,88.338632 331.61464,88.778632 330.87214,89.191132 330.32214,89.933632 329.79964,90.648632 329.52464,91.583632 329.24964,92.518632 329.24964,93.536132 V 100.49363 H 326.93964 V 86.468632 Z"
         id="path50" />
      <path
         d="M 347.56464,92.188632 Q 347.56464,91.418632 347.42714,90.676132 347.28964,89.933632 346.93214,89.356132 346.57464,88.751132 345.96964,88.393632 345.39214,88.036132 344.48464,88.036132 343.10964,88.036132 342.25714,89.356132 341.43214,90.648632 341.43214,93.508632 341.43214,96.396132 342.11964,97.661132 342.83464,98.926132 344.37464,98.926132 345.03464,98.926132 345.61214,98.651132 346.18964,98.348632 346.60214,97.826132 347.04214,97.276132 347.28964,96.533632 347.56464,95.791132 347.56464,94.883632 Z M 344.01714,86.193632 Q 345.08964,86.193632 346.05214,86.716132 347.04214,87.211132 347.53714,88.118632 H 347.56464 V 80.968632 H 349.84714 V 100.49363 H 347.61964 L 347.53714,98.953632 H 347.50964 Q 347.34464,99.366132 346.95964,99.723632 346.60214,100.08113 346.10714,100.32863 345.63964,100.57613 345.08964,100.71363 344.53964,100.85113 344.04464,100.85113 342.53214,100.85113 341.56964,100.21863 340.63464,99.586132 340.08464,98.568632 339.53464,97.523632 339.31464,96.203632 339.12214,94.856132 339.12214,93.426132 339.12214,92.188632 339.36964,90.896132 339.61714,89.603632 340.16714,88.558632 340.74464,87.513632 341.67964,86.853632 342.61464,86.193632 344.01714,86.193632 Z"
         id="path52" />
      <path
         d="M 378.22714,81.848632 V 83.856132 H 370.41714 V 89.466132 H 377.64964 V 91.528632 H 370.41714 V 100.49363 H 368.05214 V 81.848632 Z"
         id="path54" />
      <path
         d="M 385.98214,100.85113 Q 384.33214,100.85113 383.23214,100.27363 382.15964,99.696132 381.49964,98.706132 380.86714,97.716132 380.61964,96.396132 380.37214,95.048632 380.37214,93.508632 380.37214,91.968632 380.61964,90.648632 380.89464,89.301132 381.52714,88.311132 382.18714,87.321132 383.25964,86.743632 384.33214,86.166132 385.98214,86.166132 387.57714,86.166132 388.64964,86.743632 389.74964,87.321132 390.38214,88.311132 391.04214,89.301132 391.31714,90.648632 391.59214,91.996132 391.59214,93.508632 391.59214,95.021132 391.31714,96.368632 391.06964,97.688632 390.40964,98.706132 389.77714,99.696132 388.70464,100.27363 387.63214,100.85113 385.98214,100.85113 Z M 385.98214,98.981132 Q 387.76964,98.981132 388.51214,97.551132 389.28214,96.093632 389.28214,93.508632 389.28214,90.868632 388.51214,89.438632 387.76964,88.008632 385.98214,88.008632 384.16714,88.008632 383.42464,89.438632 382.68214,90.841132 382.68214,93.508632 382.68214,96.093632 383.42464,97.551132 384.16714,98.981132 385.98214,98.981132 Z"
         id="path56" />
      <path
         d="M 404.90214,100.49363 H 402.61964 V 92.023632 Q 402.61964,89.796132 402.06964,88.916132 401.51964,88.036132 400.08964,88.036132 399.42964,88.036132 398.82464,88.393632 398.24714,88.723632 397.80714,89.328632 397.39464,89.933632 397.14714,90.786132 396.89964,91.638632 396.89964,92.656132 V 100.49363 H 394.61714 V 86.468632 H 396.73464 L 396.84464,88.338632 Q 397.31214,87.458632 398.30214,86.826132 399.31964,86.193632 400.55714,86.193632 401.90464,86.193632 402.72964,86.633632 403.58214,87.073632 404.04964,87.871132 404.54464,88.641132 404.70964,89.713632 404.90214,90.786132 404.90214,92.078632 Z"
         id="path58" />
      <path
         d="M 418.45964,98.238632 V 99.998632 Q 417.90964,100.41113 417.08464,100.60363 416.25964,100.76863 415.54464,100.76863 413.61964,100.76863 412.49214,99.806132 411.36464,98.843632 411.36464,96.863632 V 88.366132 H 408.47714 V 86.468632 H 411.36464 V 82.838632 L 413.67464,81.738632 V 86.468632 H 418.26714 V 88.366132 H 413.67464 V 96.643632 Q 413.67464,98.816132 415.81964,98.816132 416.47964,98.816132 417.05714,98.651132 417.66214,98.486132 418.12964,98.238632 Z"
         id="path60" />
    </g>
    <g
       aria-label="abcdefghijklmnopqrstuvwxyzABCDEFGHIJKLMNOPQRSTUVWXYZ oO08 iIlL1 {} [] g9qCGQ ~-+=&gt;"
       id="text4140"
       style="font-size:17.5px;font-family:'D2CodingLigature Nerd Font';letter-spacing:0px;word-spacing:0px;fill:#ffffff">
      <path
         d="M 71.596903,137.17112 V 136.17362 L 69.496903,136.52362 Q 68.639403,136.64612 68.184403,137.03112 67.746903,137.41612 67.746903,138.20362 67.746903,138.90362 68.096903,139.28862 68.464403,139.65612 69.199403,139.65612 69.689403,139.65612 70.126903,139.44612 70.564403,139.23612 70.879403,138.90362 71.211903,138.55362 71.404403,138.09862 71.596903,137.64362 71.596903,137.17112 Z M 66.836903,133.70612 V 132.34112 Q 67.536903,131.92112 68.236903,131.72862 68.954403,131.51862 69.846903,131.51862 71.386903,131.51862 72.174403,132.42862 72.979403,133.33862 72.979403,134.96612 V 140.65362 H 71.614403 L 71.561903,139.48112 H 71.526903 Q 71.124403,140.21612 70.441903,140.54862 69.776903,140.88112 68.971903,140.88112 67.694403,140.88112 66.941903,140.21612 66.206903,139.53362 66.206903,138.32612 66.206903,137.11862 66.854403,136.43612 67.501903,135.73612 68.866903,135.50862 L 71.526903,135.07112 V 134.82612 Q 71.526903,133.72362 71.089403,133.26862 70.669403,132.79612 69.776903,132.79612 69.041903,132.79612 68.376903,133.00612 67.711903,133.19862 67.029403,133.70612 Z"
         id="path63" />
      <path
         d="M 76.741903,137.08362 Q 76.741903,137.66112 76.881903,138.13362 77.039403,138.60612 77.301903,138.95612 77.564403,139.28862 77.914403,139.48112 78.264403,139.65612 78.684403,139.65612 79.664403,139.65612 80.154403,138.85112 80.644403,138.04612 80.644403,136.20862 80.644403,134.38862 80.101903,133.56612 79.576903,132.72612 78.701903,132.72612 78.124403,132.72612 77.739403,132.95362 77.371903,133.18112 77.144403,133.56612 76.916903,133.93362 76.829403,134.40612 76.741903,134.87862 76.741903,135.36862 Z M 78.999403,131.55362 Q 79.891903,131.55362 80.486903,131.97362 81.081903,132.37612 81.431903,133.04112 81.799403,133.68862 81.956903,134.51112 82.114403,135.33362 82.114403,136.15612 82.114403,137.03112 81.974403,137.88862 81.834403,138.72862 81.466903,139.39362 81.099403,140.05862 80.469403,140.47862 79.856903,140.88112 78.894403,140.88112 78.579403,140.88112 78.246903,140.79362 77.914403,140.70612 77.616903,140.54862 77.336903,140.39112 77.109403,140.16362 76.881903,139.93612 76.776903,139.67362 H 76.759403 L 76.706903,140.65362 H 75.289403 V 128.22862 H 76.741903 V 132.77862 H 76.759403 Q 77.074403,132.20112 77.686903,131.88612 78.316903,131.55362 78.999403,131.55362 Z"
         id="path65" />
      <path
         d="M 90.566903,138.71112 V 140.11112 Q 90.041903,140.56612 89.429403,140.72362 88.834403,140.88112 88.151903,140.88112 86.139403,140.88112 85.089403,139.69112 84.056903,138.50112 84.056903,136.26112 84.056903,135.19362 84.301903,134.31862 84.564403,133.44362 85.071903,132.83112 85.596903,132.21862 86.349403,131.88612 87.119403,131.53612 88.134403,131.53612 88.816903,131.53612 89.394403,131.69362 89.989403,131.85112 90.514403,132.28862 V 133.61862 H 90.304403 Q 89.796903,133.19862 89.289403,133.02362 88.799403,132.83112 88.186903,132.83112 87.451903,132.83112 86.944403,133.11112 86.436903,133.37362 86.121903,133.84612 85.824403,134.30112 85.684403,134.93112 85.544403,135.54362 85.544403,136.24362 85.544403,136.97862 85.684403,137.60862 85.824403,138.22112 86.139403,138.67612 86.454403,139.11362 86.961903,139.37612 87.486903,139.62112 88.256903,139.62112 89.499403,139.62112 90.356903,138.71112 Z"
         id="path67" />
      <path
         d="M 97.846903,135.36862 Q 97.846903,134.87862 97.759403,134.40612 97.671903,133.93362 97.444403,133.56612 97.216903,133.18112 96.831903,132.95362 96.464403,132.72612 95.886903,132.72612 95.011903,132.72612 94.469403,133.56612 93.944403,134.38862 93.944403,136.20862 93.944403,138.04612 94.381903,138.85112 94.836903,139.65612 95.816903,139.65612 96.236903,139.65612 96.604403,139.48112 96.971903,139.28862 97.234403,138.95612 97.514403,138.60612 97.671903,138.13362 97.846903,137.66112 97.846903,137.08362 Z M 95.589403,131.55362 Q 96.271903,131.55362 96.884403,131.88612 97.514403,132.20112 97.829403,132.77862 H 97.846903 V 128.22862 H 99.299403 V 140.65362 H 97.881903 L 97.829403,139.67362 H 97.811903 Q 97.706903,139.93612 97.461903,140.16362 97.234403,140.39112 96.919403,140.54862 96.621903,140.70612 96.271903,140.79362 95.921903,140.88112 95.606903,140.88112 94.644403,140.88112 94.031903,140.47862 93.436903,140.07612 93.086903,139.42862 92.736903,138.76362 92.596903,137.92362 92.474403,137.06612 92.474403,136.15612 92.474403,135.36862 92.631903,134.54612 92.789403,133.72362 93.139403,133.05862 93.506903,132.39362 94.101903,131.97362 94.696903,131.55362 95.589403,131.55362 Z"
         id="path69" />
      <path
         d="M 102.7119,135.05362 H 106.8069 V 135.00112 Q 106.6844,132.70862 104.9344,132.70862 103.0619,132.70862 102.7119,135.03612 Z M 104.9869,131.53612 Q 105.8444,131.53612 106.4744,131.83362 107.1219,132.13112 107.5244,132.67362 107.9269,133.19862 108.1194,133.93362 108.3294,134.66862 108.3294,135.52612 V 136.17362 H 102.6944 V 136.26112 Q 102.6944,136.96112 102.8169,137.57362 102.9394,138.16862 103.2194,138.62362 103.5169,139.07862 103.9894,139.34112 104.4619,139.60362 105.1794,139.60362 105.8269,139.60362 106.4919,139.39362 107.1744,139.16612 107.7694,138.71112 H 107.9794 V 140.09362 Q 107.3844,140.49612 106.7194,140.68862 106.0719,140.88112 105.1269,140.88112 104.0769,140.88112 103.3244,140.54862 102.5719,140.19862 102.0819,139.56862 101.6094,138.93862 101.3819,138.08112 101.1544,137.20612 101.1544,136.15612 101.1544,135.08862 101.3819,134.23112 101.6094,133.37362 102.0819,132.77862 102.5544,132.18362 103.2719,131.86862 103.9894,131.53612 104.9869,131.53612 Z"
         id="path71" />
      <path
         d="M 116.7819,129.82112 Q 116.0819,129.38362 115.3469,129.38362 114.6819,129.38362 114.3319,129.76862 113.9819,130.13612 113.9819,130.92362 V 131.72862 H 116.9744 V 132.93612 H 113.9819 V 140.65362 H 112.5119 V 132.93612 H 110.3769 V 131.72862 H 112.5119 V 130.80112 Q 112.5119,129.45362 113.2294,128.85862 113.9469,128.24612 115.3469,128.24612 115.8019,128.24612 116.2044,128.33362 116.6244,128.40362 116.9919,128.59612 V 129.82112 Z"
         id="path73" />
      <path
         d="M 124.0969,135.42112 Q 124.0969,134.84362 123.9569,134.35362 123.8344,133.86362 123.5719,133.51362 123.3269,133.14612 122.9419,132.95362 122.5744,132.74362 122.0844,132.74362 121.7169,132.74362 121.3844,132.90112 121.0519,133.04112 120.7894,133.40862 120.5269,133.75862 120.3694,134.35362 120.2294,134.93112 120.2294,135.78862 120.2294,136.31362 120.2819,136.87362 120.3344,137.43362 120.5269,137.90612 120.7194,138.37862 121.0694,138.67612 121.4369,138.97362 122.0669,138.97362 122.6619,138.97362 123.0469,138.71112 123.4494,138.44862 123.6769,138.08112 123.9044,137.69612 123.9919,137.29362 124.0969,136.89112 124.0969,136.59362 Z M 121.6994,142.38612 Q 122.9594,142.38612 123.5369,141.51112 124.1319,140.65362 124.1319,139.00862 V 138.83362 Q 123.3619,140.09362 121.9269,140.14612 120.9469,140.18112 120.3169,139.84862 119.7044,139.49862 119.3369,138.92112 118.9869,138.32612 118.8469,137.52112 118.7244,136.71612 118.7244,135.80612 118.7244,134.89612 118.8994,134.12612 119.0744,133.35612 119.4594,132.79612 119.8444,132.21862 120.4394,131.88612 121.0519,131.55362 121.9269,131.53612 122.5919,131.51862 123.1344,131.81612 123.6769,132.11362 124.0269,132.72612 H 124.0619 L 124.1669,131.72862 H 125.5494 V 138.60612 Q 125.5494,139.76112 125.3569,140.68862 125.1644,141.61612 124.7094,142.26362 124.2719,142.91112 123.5369,143.26112 122.8019,143.61112 121.7344,143.61112 121.1044,143.61112 120.4044,143.43612 119.7044,143.27862 119.2319,142.98112 V 141.65112 H 119.4419 Q 119.5994,141.77362 119.8619,141.89612 120.1244,142.03612 120.4219,142.14112 120.7369,142.24612 121.0694,142.31612 121.4019,142.38612 121.6994,142.38612 Z"
         id="path75" />
      <path
         d="M 134.3344,140.65362 H 132.8819 V 135.26362 Q 132.8819,133.84612 132.5319,133.28612 132.1819,132.72612 131.2719,132.72612 130.8519,132.72612 130.4669,132.95362 130.0994,133.16362 129.8194,133.54862 129.5569,133.93362 129.3994,134.47612 129.2419,135.01862 129.2419,135.66612 V 140.65362 H 127.7894 V 128.22862 H 129.2419 V 132.88362 Q 129.5394,132.32362 130.1519,131.93862 130.7819,131.55362 131.5694,131.55362 132.4269,131.55362 132.9519,131.83362 133.4944,132.11362 133.7919,132.62112 134.1069,133.11112 134.2119,133.79362 134.3344,134.47612 134.3344,135.29862 Z"
         id="path77" />
      <path
         d="M 140.7044,131.72862 V 139.44612 H 143.2244 V 140.65362 H 136.5394 V 139.44612 H 139.2169 V 132.93612 H 137.1519 V 131.72862 Z M 138.6744,128.73612 Q 138.6744,128.24612 139.0244,127.89612 139.3744,127.54612 139.8469,127.54612 140.3194,127.54612 140.6694,127.89612 141.0194,128.24612 141.0194,128.73612 141.0194,129.22612 140.6694,129.57612 140.3194,129.92612 139.8469,129.92612 139.3744,129.92612 139.0244,129.57612 138.6744,129.22612 138.6744,128.73612 Z"
         id="path79" />
      <path
         d="M 145.4469,141.91362 Q 145.7444,142.07112 146.1119,142.17612 146.4969,142.28112 146.9169,142.28112 148.2644,142.28112 148.2644,140.89862 V 132.93612 H 146.0419 V 131.72862 H 149.7519 V 141.03862 Q 149.7519,142.29862 149.0344,142.91112 148.3169,143.52362 147.0919,143.52362 146.6369,143.52362 146.1119,143.40112 145.5869,143.29612 145.2369,143.03362 V 141.91362 Z M 147.7044,128.73612 Q 147.7044,128.24612 148.0544,127.89612 148.4044,127.54612 148.8769,127.54612 149.3494,127.54612 149.6994,127.89612 150.0494,128.24612 150.0494,128.73612 150.0494,129.22612 149.6994,129.57612 149.3494,129.92612 148.8769,129.92612 148.4044,129.92612 148.0544,129.57612 147.7044,129.22612 147.7044,128.73612 Z"
         id="path81" />
      <path
         d="M 157.8194,135.35112 161.6519,140.65362 H 159.8144 L 156.8394,136.29612 155.6669,137.52112 V 140.65362 H 154.2144 V 128.22862 H 155.6669 V 135.68362 L 159.3244,131.72862 H 161.1444 Z"
         id="path83" />
      <path
         d="M 166.8144,128.22862 V 139.07862 Q 166.8144,139.27112 166.8844,139.35862 166.9719,139.44612 167.1994,139.44612 H 169.4219 V 140.65362 H 166.7269 Q 166.0444,140.65362 165.6944,140.23362 165.3444,139.81362 165.3444,139.25362 V 129.43612 H 163.4194 V 128.22862 Z"
         id="path85" />
      <path
         d="M 175.2669,132.97112 Q 175.7044,131.50112 176.8944,131.50112 177.4369,131.50112 177.7694,131.69362 178.1194,131.88612 178.3119,132.30612 178.5219,132.70862 178.5919,133.35612 178.6794,134.00362 178.6794,134.89612 V 140.65362 H 177.3319 V 134.84362 Q 177.3319,134.19612 177.2969,133.75862 177.2794,133.32112 177.2094,133.07612 177.1394,132.83112 177.0169,132.72612 176.8944,132.62112 176.7019,132.62112 176.3169,132.62112 176.0719,132.83112 175.8444,133.02362 175.7044,133.39112 175.5819,133.74112 175.5294,134.21362 175.4944,134.68612 175.4944,135.21112 V 140.65362 H 174.1294 V 134.84362 Q 174.1294,134.19612 174.0944,133.77612 174.0769,133.35612 174.0069,133.11112 173.9369,132.84862 173.8144,132.76112 173.6919,132.65612 173.4819,132.65612 173.1319,132.65612 172.8869,132.88362 172.6594,133.09362 172.5194,133.46112 172.3794,133.81112 172.3094,134.28362 172.2569,134.75612 172.2569,135.24612 V 140.65362 H 170.9094 V 131.72862 H 172.1694 L 172.2044,132.67362 Q 172.4494,132.11362 172.8869,131.81612 173.3244,131.50112 173.7269,131.50112 174.4619,131.50112 174.7769,131.83362 175.1094,132.14862 175.2669,132.97112 Z"
         id="path87" />
      <path
         d="M 186.8344,140.65362 H 185.3819 V 135.26362 Q 185.3819,133.84612 185.0319,133.28612 184.6819,132.72612 183.7719,132.72612 183.3519,132.72612 182.9669,132.95362 182.5994,133.16362 182.3194,133.54862 182.0569,133.93362 181.8994,134.47612 181.7419,135.01862 181.7419,135.66612 V 140.65362 H 180.2894 V 131.72862 H 181.6369 L 181.7069,132.91862 Q 182.0044,132.35862 182.6344,131.95612 183.2819,131.55362 184.0694,131.55362 184.9269,131.55362 185.4519,131.83362 185.9944,132.11362 186.2919,132.62112 186.6069,133.11112 186.7119,133.79362 186.8344,134.47612 186.8344,135.29862 Z"
         id="path89" />
      <path
         d="M 192.2944,140.88112 Q 191.2444,140.88112 190.5444,140.51362 189.8619,140.14612 189.4419,139.51612 189.0394,138.88612 188.8819,138.04612 188.7244,137.18862 188.7244,136.20862 188.7244,135.22862 188.8819,134.38862 189.0569,133.53112 189.4594,132.90112 189.8794,132.27112 190.5619,131.90362 191.2444,131.53612 192.2944,131.53612 193.3094,131.53612 193.9919,131.90362 194.6919,132.27112 195.0944,132.90112 195.5144,133.53112 195.6894,134.38862 195.8644,135.24612 195.8644,136.20862 195.8644,137.17112 195.6894,138.02862 195.5319,138.86862 195.1119,139.51612 194.7094,140.14612 194.0269,140.51362 193.3444,140.88112 192.2944,140.88112 Z M 192.2944,139.69112 Q 193.4319,139.69112 193.9044,138.78112 194.3944,137.85362 194.3944,136.20862 194.3944,134.52862 193.9044,133.61862 193.4319,132.70862 192.2944,132.70862 191.1394,132.70862 190.6669,133.61862 190.1944,134.51112 190.1944,136.20862 190.1944,137.85362 190.6669,138.78112 191.1394,139.69112 192.2944,139.69112 Z"
         id="path91" />
      <path
         d="M 199.2419,137.01362 Q 199.2419,137.50362 199.3119,137.97612 199.3994,138.44862 199.5919,138.83362 199.8019,139.20112 200.1694,139.42862 200.5369,139.65612 201.1144,139.65612 201.9894,139.65612 202.5669,138.83362 203.1444,137.99362 203.1444,136.17362 203.1444,134.33612 202.6719,133.53112 202.1994,132.72612 201.2194,132.72612 200.7994,132.72612 200.4319,132.91862 200.0819,133.09362 199.8194,133.44362 199.5569,133.77612 199.3994,134.24862 199.2419,134.72112 199.2419,135.29862 Z M 201.4119,140.82862 Q 200.7294,140.82862 200.1519,140.51362 199.5744,140.18112 199.2594,139.60362 H 199.2419 V 143.62862 H 197.7894 V 131.72862 H 199.2069 L 199.2594,132.70862 H 199.2769 Q 199.3994,132.44612 199.6269,132.21862 199.8719,131.99112 200.1519,131.83362 200.4494,131.67612 200.7819,131.58862 201.1144,131.50112 201.4294,131.50112 202.3919,131.50112 203.0044,131.88612 203.6169,132.27112 203.9669,132.93612 204.3344,133.58362 204.4744,134.44112 204.6144,135.28112 204.6144,136.22612 204.6144,137.04862 204.4394,137.87112 204.2819,138.69362 203.8969,139.35862 203.5119,140.00612 202.8994,140.42612 202.3044,140.82862 201.4119,140.82862 Z"
         id="path93" />
      <path
         d="M 211.5969,135.29862 Q 211.5969,134.72112 211.4219,134.24862 211.2644,133.77612 210.9844,133.44362 210.7219,133.09362 210.3544,132.91862 209.9869,132.72612 209.5669,132.72612 208.5869,132.72612 208.1319,133.53112 207.6944,134.33612 207.6944,136.17362 207.6944,137.99362 208.2194,138.83362 208.7619,139.65612 209.6369,139.65612 210.2144,139.65612 210.5819,139.42862 210.9669,139.20112 211.1944,138.83362 211.4219,138.44862 211.5094,137.97612 211.5969,137.50362 211.5969,137.01362 Z M 209.3394,140.82862 Q 208.4469,140.82862 207.8519,140.40862 207.2569,139.98862 206.8894,139.32362 206.5394,138.65862 206.3819,137.83612 206.2244,137.01362 206.2244,136.22612 206.2244,135.31612 206.3469,134.47612 206.4869,133.61862 206.8369,132.97112 207.1869,132.30612 207.7819,131.90362 208.3944,131.50112 209.3569,131.50112 209.6719,131.50112 210.0219,131.58862 210.3719,131.67612 210.6694,131.83362 210.9844,131.99112 211.2119,132.21862 211.4569,132.44612 211.5619,132.70862 H 211.5794 L 211.6319,131.72862 H 213.0494 V 143.62862 H 211.5969 V 139.60362 H 211.5794 Q 211.2644,140.18112 210.6344,140.51362 210.0219,140.82862 209.3394,140.82862 Z"
         id="path95" />
      <path
         d="M 217.3019,131.72862 217.4069,133.49612 Q 217.5119,133.18112 217.7394,132.83112 217.9844,132.48112 218.3344,132.20112 218.7019,131.90362 219.1569,131.72862 219.6294,131.53612 220.1894,131.53612 220.7669,131.53612 221.3269,131.67612 221.9044,131.81612 222.3594,132.11362 V 133.54862 H 222.1494 Q 221.7469,133.28612 221.1869,133.11112 220.6269,132.91862 220.0669,132.91862 219.4369,132.91862 218.9469,133.19862 218.4744,133.46112 218.1244,133.93362 217.7919,134.38862 217.6169,134.98362 217.4419,135.57862 217.4419,136.22612 V 140.65362 H 215.9719 V 131.72862 Z"
         id="path97" />
      <path
         d="M 224.1619,138.65862 Q 224.9144,139.14862 225.6669,139.39362 226.4369,139.62112 227.0144,139.62112 227.9069,139.62112 228.4844,139.32362 229.0794,139.00862 229.0794,138.32612 229.0794,137.94112 228.5019,137.50362 227.9419,137.06612 226.5944,136.48862 225.4394,135.98112 224.8269,135.38612 224.2319,134.77362 224.2319,133.84612 224.2319,132.72612 225.0369,132.11362 225.8419,131.50112 227.3294,131.50112 227.9944,131.50112 228.6769,131.65862 229.3594,131.79862 229.9719,132.13112 V 133.42612 H 229.7619 Q 229.5344,133.26862 229.2194,133.14612 228.9219,133.00612 228.5719,132.91862 228.2394,132.81362 227.8894,132.76112 227.5569,132.70862 227.2594,132.70862 226.5769,132.70862 226.1569,132.98862 225.7544,133.25112 225.7544,133.77612 225.7544,134.07362 225.8769,134.30112 226.0169,134.52862 226.2969,134.73862 226.5944,134.94862 227.0494,135.15862 227.5044,135.36862 228.1344,135.63112 228.5894,135.82362 229.0444,136.06862 229.4994,136.29612 229.8494,136.61112 230.2169,136.92612 230.4269,137.34612 230.6544,137.76612 230.6544,138.30862 230.6544,139.00862 230.3569,139.49862 230.0594,139.98862 229.5694,140.30362 229.0794,140.60112 228.4144,140.74112 227.7669,140.88112 227.0669,140.88112 226.2619,140.88112 225.5269,140.72362 224.7919,140.56612 223.9519,140.07612 V 138.65862 Z"
         id="path99" />
      <path
         d="M 239.2119,139.21862 V 140.33862 Q 238.8619,140.60112 238.3369,140.72362 237.8119,140.82862 237.3569,140.82862 236.1319,140.82862 235.4144,140.21612 234.6969,139.60362 234.6969,138.34362 V 132.93612 H 232.8594 V 131.72862 H 234.6969 V 129.41862 L 236.1669,128.71862 V 131.72862 H 239.0894 V 132.93612 H 236.1669 V 138.20362 Q 236.1669,139.58612 237.5319,139.58612 237.9519,139.58612 238.3194,139.48112 238.7044,139.37612 239.0019,139.21862 Z"
         id="path101" />
      <path
         d="M 241.5044,131.72862 H 242.9569 V 137.11862 Q 242.9569,138.53612 243.3069,139.09612 243.6569,139.65612 244.5669,139.65612 244.9869,139.65612 245.3544,139.44612 245.7394,139.21862 246.0019,138.83362 246.2819,138.44862 246.4394,137.90612 246.5969,137.36362 246.5969,136.71612 V 131.72862 H 248.0494 V 140.65362 H 246.7019 L 246.6319,139.46362 Q 246.3344,140.02362 245.6869,140.42612 245.0569,140.82862 244.2694,140.82862 243.4119,140.82862 242.8694,140.54862 242.3444,140.26862 242.0294,139.77862 241.7319,139.27112 241.6094,138.58862 241.5044,137.90612 241.5044,137.08362 Z"
         id="path103" />
      <path
         d="M 253.5794,139.04362 253.7719,138.23862 255.9769,131.72862 H 257.5169 L 254.3669,140.65362 H 252.8444 L 249.6244,131.72862 H 251.1819 L 253.3694,138.23862 Z"
         id="path105" />
      <path
         d="M 262.9594,132.42862 264.1669,137.78362 264.2719,138.88612 264.3769,137.80112 265.2519,131.72862 H 266.6344 L 265.1994,140.65362 H 263.7469 L 262.3644,134.84362 262.2944,134.35362 262.2244,134.84362 260.8419,140.65362 H 259.3894 L 257.9544,131.72862 H 259.3544 L 260.1944,137.67862 260.3169,138.92112 260.4569,137.71362 261.6294,132.42862 Z"
         id="path107" />
      <path
         d="M 271.9019,136.12112 274.9644,140.65362 H 273.2669 L 271.0444,137.13612 268.8394,140.65362 H 267.1769 L 270.2219,136.12112 267.2994,131.72862 H 268.9969 L 271.0444,135.12362 273.1444,131.72862 H 274.8244 Z"
         id="path109" />
      <path
         d="M 276.5219,143.45362 V 142.26362 H 276.7319 Q 276.9769,142.35112 277.1869,142.40362 277.4144,142.47362 277.5719,142.47362 278.0794,142.47362 278.3944,142.24612 278.7094,142.01862 278.9719,141.28362 L 279.2694,140.21612 275.9969,131.72862 H 277.6419 L 279.8644,137.99362 279.9869,138.44862 280.1094,137.99362 282.1044,131.72862 H 283.6444 L 280.5469,140.72362 Q 280.2844,141.51112 280.0044,142.05362 279.7419,142.61362 279.4094,142.96362 279.0944,143.31362 278.6919,143.47112 278.3069,143.62862 277.7994,143.62862 277.5019,143.62862 277.1869,143.59362 276.8894,143.55862 276.5219,143.45362 Z"
         id="path111" />
      <path
         d="M 291.7119,139.44612 V 140.65362 H 285.3944 V 139.46362 L 289.8569,132.93612 H 285.6044 V 131.72862 H 291.6069 V 132.90112 L 287.1444,139.44612 Z"
         id="path113" />
      <path
         d="M 70.651903,150.66362 74.081903,162.52862 H 72.506903 L 71.631903,159.34362 H 67.921903 L 67.046903,162.52862 H 65.506903 L 68.866903,150.66362 Z M 69.776903,152.06362 69.636903,152.78112 68.254403,158.13612 H 71.299403 L 69.934403,152.78112 Z"
         id="path115" />
      <path
         d="M 78.474403,151.94112 H 76.706903 V 155.54612 H 78.246903 Q 78.719403,155.54612 79.104403,155.45862 79.506903,155.37112 79.804403,155.14362 80.101903,154.91612 80.259403,154.56612 80.434403,154.19862 80.434403,153.63862 80.434403,152.74612 79.926903,152.34362 79.419403,151.94112 78.474403,151.94112 Z M 78.316903,156.77112 H 76.706903 V 161.25112 H 78.509403 Q 79.559403,161.25112 80.189403,160.77862 80.819403,160.28862 80.819403,159.09862 80.819403,157.80362 80.171903,157.29612 79.541903,156.77112 78.316903,156.77112 Z M 78.754403,162.52862 H 75.219403 V 150.66362 H 78.771903 Q 79.366903,150.66362 79.944403,150.85612 80.539403,151.03112 80.976903,151.39862 81.431903,151.74862 81.711903,152.27362 81.991903,152.78112 81.991903,153.46362 81.991903,154.63612 81.431903,155.26612 80.889403,155.87862 80.049403,156.10612 V 156.14112 Q 81.099403,156.29862 81.764403,157.08612 82.429403,157.87362 82.429403,159.23862 82.429403,160.00862 82.166903,160.63862 81.904403,161.25112 81.414403,161.67112 80.924403,162.09112 80.241903,162.31862 79.576903,162.54612 78.754403,162.52862 Z"
         id="path117" />
      <path
         d="M 90.934403,160.42862 V 161.95112 Q 89.884403,162.73862 88.186903,162.73862 86.944403,162.73862 86.104403,162.30112 85.281903,161.84612 84.756903,161.04112 84.249403,160.23612 84.021903,159.11612 83.811903,157.99612 83.811903,156.66612 83.811903,155.33612 84.021903,154.19862 84.249403,153.06112 84.756903,152.23862 85.264403,151.39862 86.086903,150.92612 86.909403,150.45362 88.134403,150.45362 88.921903,150.45362 89.551903,150.62862 90.181903,150.80362 90.724403,151.08362 V 152.67612 H 90.514403 Q 90.059403,152.32612 89.464403,152.06362 88.886903,151.78362 88.151903,151.78362 86.769403,151.78362 86.086903,153.00862 85.404403,154.21612 85.404403,156.54362 85.404403,158.95862 86.104403,160.20112 86.821903,161.42612 88.239403,161.42612 88.974403,161.42612 89.534403,161.21612 90.111903,160.98862 90.724403,160.42862 Z"
         id="path119" />
      <path
         d="M 95.239403,151.94112 H 94.224403 V 161.28612 H 95.186903 Q 96.096903,161.28612 96.691903,161.02362 97.286903,160.74362 97.636903,160.18362 98.004403,159.60612 98.144403,158.71362 98.301903,157.82112 98.301903,156.57862 98.301903,155.35362 98.144403,154.47862 98.004403,153.60362 97.636903,153.04362 97.286903,152.46612 96.691903,152.20362 96.114403,151.94112 95.239403,151.94112 Z M 95.221903,162.52862 H 92.719403 V 150.66362 H 95.309403 Q 96.551903,150.66362 97.409403,150.99612 98.266903,151.32862 98.791903,152.04612 99.334403,152.76362 99.561903,153.88362 99.806903,154.98612 99.806903,156.56112 99.806903,158.20612 99.561903,159.34362 99.316903,160.48112 98.756903,161.19862 98.214403,161.89862 97.339403,162.21362 96.464403,162.52862 95.221903,162.52862 Z"
         id="path121" />
      <path
         d="M 108.5569,162.52862 H 101.8544 V 150.66362 H 108.3994 V 151.94112 H 103.3594 V 155.51112 H 108.0669 V 156.80612 H 103.3594 V 161.25112 H 108.5569 Z"
         id="path123" />
      <path
         d="M 117.3594,150.66362 V 151.94112 H 112.3894 V 155.51112 H 116.9919 V 156.82362 H 112.3894 V 162.52862 H 110.8844 V 150.66362 Z"
         id="path125" />
      <path
         d="M 125.3569,152.57112 Q 124.2194,151.73112 122.8719,151.73112 121.3844,151.73112 120.7194,152.93862 120.0719,154.12862 120.0719,156.56112 120.0719,159.01112 120.6669,160.27112 121.2794,161.51362 122.8544,161.51362 123.1869,161.51362 123.6244,161.39112 124.0619,161.26862 124.3069,161.05862 V 157.55862 H 122.3994 V 156.33362 H 125.7594 V 161.72362 Q 125.1469,162.21362 124.3594,162.49362 123.5894,162.75612 122.8019,162.75612 121.5069,162.75612 120.6669,162.30112 119.8444,161.84612 119.3544,161.02362 118.8819,160.20112 118.6894,159.06362 118.5144,157.92612 118.5144,156.56112 118.5144,155.19612 118.7069,154.07612 118.9169,152.95612 119.4069,152.15112 119.9144,151.34612 120.7544,150.90862 121.5944,150.45362 122.8894,150.45362 123.5544,150.45362 124.2369,150.61112 124.9194,150.75112 125.5669,151.10112 V 152.57112 Z"
         id="path127" />
      <path
         d="M 134.3694,150.66362 V 162.52862 H 132.8644 V 156.80612 H 129.2244 V 162.52862 H 127.7194 V 150.66362 H 129.2244 V 155.51112 H 132.8644 V 150.66362 Z"
         id="path129" />
      <path
         d="M 142.6644,150.66362 V 151.94112 H 140.5469 V 161.25112 H 143.0144 V 162.52862 H 136.5744 V 161.25112 H 139.0419 V 151.94112 H 136.9244 V 150.66362 Z"
         id="path131" />
      <path
         d="M 151.2744,150.66362 V 158.83612 Q 151.2744,159.74612 151.0994,160.48112 150.9419,161.19862 150.5394,161.70612 150.1369,162.21362 149.4544,162.49362 148.7894,162.75612 147.7569,162.75612 147.5119,162.75612 147.1969,162.72112 146.8819,162.68612 146.5319,162.61612 146.1819,162.52862 145.8319,162.42362 145.4819,162.30112 145.2019,162.14362 V 160.77862 H 145.4119 Q 146.0769,161.12862 146.5844,161.32112 147.1094,161.49612 147.7219,161.49612 148.3169,161.49612 148.7019,161.32112 149.1044,161.14612 149.3319,160.81362 149.5769,160.46362 149.6644,159.99112 149.7519,159.50112 149.7519,158.87112 V 151.92362 H 146.8119 V 150.66362 Z"
         id="path133" />
      <path
         d="M 157.5744,155.75612 161.6344,162.52862 H 159.8494 L 156.5769,156.75362 H 156.5594 L 155.4744,158.11862 V 162.52862 H 153.9694 V 150.66362 H 155.4744 V 156.17612 H 155.4919 L 159.8319,150.66362 H 161.4944 Z"
         id="path135" />
      <path
         d="M 169.7894,161.25112 V 162.52862 H 163.1044 V 150.66362 H 164.6094 V 161.25112 Z"
         id="path137" />
      <path
         d="M 176.7894,153.88362 175.4244,158.50362 H 174.1294 L 172.7819,153.86612 172.6069,152.81612 V 153.49862 L 172.3094,162.52862 H 170.8394 L 171.3119,150.66362 H 172.9569 L 174.6019,156.38612 174.7769,157.33112 174.9519,156.38612 176.6494,150.66362 H 178.3294 L 178.6794,162.52862 H 177.2094 L 176.9644,153.51612 V 152.83362 Z"
         id="path139" />
      <path
         d="M 184.7519,162.52862 181.7769,153.13112 181.6019,152.22112 H 181.5494 L 181.5844,153.18362 V 162.52862 H 180.1494 V 150.66362 H 182.3369 L 185.3119,160.07862 185.4869,160.97112 H 185.5394 L 185.5044,160.02612 V 150.66362 H 186.9394 V 162.52862 Z"
         id="path141" />
      <path
         d="M 192.2769,150.47112 Q 193.3444,150.47112 194.0619,150.85612 194.7794,151.24112 195.1994,152.01112 195.6369,152.76362 195.8119,153.91862 195.9869,155.07362 195.9869,156.61362 195.9869,158.15362 195.8119,159.30862 195.6369,160.46362 195.1994,161.23362 194.7794,161.98612 194.0619,162.37112 193.3444,162.75612 192.2769,162.75612 191.2094,162.75612 190.4919,162.37112 189.7919,161.98612 189.3719,161.23362 188.9519,160.46362 188.7769,159.30862 188.6019,158.15362 188.6019,156.61362 188.6019,155.07362 188.7769,153.91862 188.9519,152.76362 189.3719,152.01112 189.7919,151.24112 190.4919,150.85612 191.2094,150.47112 192.2769,150.47112 Z M 192.2769,151.71362 Q 191.0694,151.71362 190.5794,152.88612 190.0894,154.05862 190.0894,156.61362 190.0894,159.16862 190.5794,160.34112 191.0694,161.51362 192.2769,161.51362 193.4844,161.51362 193.9919,160.34112 194.4994,159.16862 194.4994,156.61362 194.4994,154.05862 193.9919,152.88612 193.4844,151.71362 192.2769,151.71362 Z"
         id="path143" />
      <path
         d="M 204.9994,154.14612 Q 204.9994,155.94862 203.9669,156.91112 202.9344,157.87362 200.7469,157.87362 H 199.4344 V 162.52862 H 197.9294 V 150.66362 H 200.7469 Q 201.7094,150.66362 202.4794,150.87362 203.2669,151.06612 203.8269,151.48612 204.3869,151.90612 204.6844,152.57112 204.9994,153.23612 204.9994,154.14612 Z M 203.4594,154.18112 Q 203.4594,153.49862 203.2494,153.06112 203.0394,152.62362 202.6719,152.37862 202.3044,152.11612 201.7794,152.02862 201.2719,151.92362 200.6769,151.92362 H 199.4344 V 156.64862 H 200.4494 Q 201.1319,156.64862 201.6744,156.54362 202.2344,156.43862 202.6194,156.17612 203.0219,155.89612 203.2319,155.42362 203.4594,154.93362 203.4594,154.18112 Z"
         id="path145" />
      <path
         d="M 209.7769,150.47112 Q 210.8444,150.47112 211.5619,150.85612 212.2794,151.24112 212.6994,152.01112 213.1369,152.76362 213.3119,153.91862 213.4869,155.07362 213.4869,156.61362 213.4869,158.92362 213.0669,160.34112 212.6644,161.75862 211.5969,162.35362 L 213.2419,163.98112 V 164.19112 H 211.4044 L 210.2669,162.73862 Q 210.1444,162.75612 210.0219,162.75612 209.8994,162.75612 209.7769,162.75612 208.7094,162.75612 207.9919,162.37112 207.2919,161.98612 206.8719,161.23362 206.4519,160.46362 206.2769,159.30862 206.1019,158.15362 206.1019,156.61362 206.1019,155.07362 206.2769,153.91862 206.4519,152.76362 206.8719,152.01112 207.2919,151.24112 207.9919,150.85612 208.7094,150.47112 209.7769,150.47112 Z M 209.7769,151.71362 Q 208.5694,151.71362 208.0794,152.88612 207.5894,154.05862 207.5894,156.61362 207.5894,159.16862 208.0794,160.34112 208.5694,161.51362 209.7769,161.51362 210.9844,161.51362 211.4919,160.34112 211.9994,159.16862 211.9994,156.61362 211.9994,154.05862 211.4919,152.88612 210.9844,151.71362 209.7769,151.71362 Z"
         id="path147" />
      <path
         d="M 220.0319,157.22612 222.8844,162.52862 H 220.9944 L 218.6844,157.59362 H 216.7594 V 162.52862 H 215.2544 V 150.66362 H 218.1419 Q 220.2244,150.66362 221.1869,151.55612 222.1494,152.43112 222.1494,153.97112 222.1494,155.28362 221.5544,156.10612 220.9769,156.91112 220.0319,157.22612 Z M 220.5919,153.98862 Q 220.5919,153.41112 220.4169,153.02612 220.2419,152.62362 219.9444,152.39612 219.6469,152.15112 219.2094,152.04612 218.7894,151.94112 218.2994,151.94112 H 216.7594 V 156.33362 H 217.8094 Q 218.5094,156.33362 219.0344,156.24612 219.5594,156.15862 219.9094,155.91362 220.2594,155.65112 220.4169,155.19612 220.5919,154.74112 220.5919,153.98862 Z"
         id="path149" />
      <path
         d="M 223.5669,161.77612 V 160.16612 H 223.7769 Q 224.6169,160.77862 225.3694,161.07612 226.1394,161.37362 226.9619,161.37362 228.1169,161.37362 228.7469,160.91862 229.3769,160.44612 229.3769,159.39612 229.3769,158.64362 228.7819,158.06612 228.2044,157.47112 227.3294,157.06862 226.3669,156.63112 225.7019,156.26362 225.0369,155.87862 224.6169,155.45862 224.1969,155.03862 224.0044,154.54862 223.8294,154.05862 223.8294,153.41112 223.8294,152.64112 224.1094,152.08112 224.4069,151.52112 224.8969,151.17112 225.4044,150.80362 226.0519,150.62862 226.6994,150.45362 227.4169,150.45362 228.1519,150.45362 228.9394,150.59362 229.7444,150.73362 230.3744,151.18862 V 152.64112 H 230.1294 Q 228.9044,151.78362 227.4694,151.78362 226.4719,151.78362 225.9294,152.15112 225.3869,152.51862 225.3869,153.35862 225.3869,154.09362 225.8769,154.54862 226.3669,155.00362 227.1019,155.30112 228.1869,155.75612 228.9219,156.21112 229.6744,156.64862 230.1294,157.12112 230.6019,157.59362 230.7944,158.13612 231.0044,158.66112 231.0044,159.29112 231.0044,161.07612 229.9194,161.91612 228.8519,162.75612 226.9094,162.75612 225.9119,162.75612 225.0719,162.49362 224.2319,162.23112 223.5669,161.77612 Z"
         id="path151" />
      <path
         d="M 236.7969,162.52862 H 235.2919 V 151.94112 H 232.0544 V 150.66362 H 240.0344 V 151.94112 H 236.7969 Z"
         id="path153" />
      <path
         d="M 244.7069,162.75612 Q 243.0619,162.75612 242.2569,161.74112 241.4694,160.70862 241.4694,158.85362 V 150.66362 H 242.9744 V 158.69612 Q 242.9744,159.22112 243.0444,159.72862 243.1144,160.21862 243.3069,160.62112 243.4994,161.00612 243.8494,161.25112 244.1994,161.49612 244.7594,161.49612 H 244.8294 Q 245.3719,161.49612 245.7219,161.25112 246.0719,161.00612 246.2644,160.62112 246.4569,160.21862 246.5269,159.72862 246.6144,159.22112 246.6144,158.69612 V 150.66362 H 248.1194 V 158.85362 Q 248.1194,160.70862 247.3144,161.74112 246.5269,162.75612 244.8819,162.75612 Z"
         id="path155" />
      <path
         d="M 253.5444,161.05862 253.8069,159.86862 256.1344,150.66362 H 257.7444 L 254.4369,162.52862 H 252.6519 L 249.3094,150.66362 H 250.9019 L 253.3344,159.86862 Z"
         id="path157" />
      <path
         d="M 263.0294,153.25362 264.3419,160.07862 264.3944,158.71362 265.0594,150.66362 H 266.6344 L 265.4269,162.52862 H 263.7994 L 262.3819,155.70362 262.2769,155.12612 262.2069,155.70362 260.7544,162.52862 H 259.1794 L 257.9544,150.66362 H 259.5469 L 260.1594,158.71362 260.2119,160.07862 261.5419,153.25362 Z"
         id="path159" />
      <path
         d="M 271.8844,156.54362 275.2094,162.52862 H 273.5644 L 271.0444,157.80362 268.5069,162.52862 H 266.8444 L 270.2219,156.61362 V 156.59612 L 266.9844,150.66362 H 268.6469 L 271.0444,155.26612 273.4069,150.66362 H 275.0519 L 271.8844,156.52612 Z"
         id="path161" />
      <path
         d="M 282.3319,150.66362 H 283.9944 L 280.5644,157.26112 V 162.52862 H 279.0244 V 157.41862 L 275.5244,150.66362 H 277.1694 L 279.7769,155.93112 Z"
         id="path163" />
      <path
         d="M 292.2894,161.25112 V 162.52862 H 284.8344 V 161.18112 L 290.4169,151.94112 H 285.0269 V 150.66362 H 292.1319 V 151.99362 L 286.4969,161.25112 Z"
         id="path165" />
      <path
         d="M 69.794403,184.63112 Q 68.744403,184.63112 68.044403,184.26362 67.361903,183.89612 66.941903,183.26612 66.539403,182.63612 66.381903,181.79612 66.224403,180.93862 66.224403,179.95862 66.224403,178.97862 66.381903,178.13862 66.556903,177.28112 66.959403,176.65112 67.379403,176.02112 68.061903,175.65362 68.744403,175.28612 69.794403,175.28612 70.809403,175.28612 71.491903,175.65362 72.191903,176.02112 72.594403,176.65112 73.014403,177.28112 73.189403,178.13862 73.364403,178.99612 73.364403,179.95862 73.364403,180.92112 73.189403,181.77862 73.031903,182.61862 72.611903,183.26612 72.209403,183.89612 71.526903,184.26362 70.844403,184.63112 69.794403,184.63112 Z M 69.794403,183.44112 Q 70.931903,183.44112 71.404403,182.53112 71.894403,181.60362 71.894403,179.95862 71.894403,178.27862 71.404403,177.36862 70.931903,176.45862 69.794403,176.45862 68.639403,176.45862 68.166903,177.36862 67.694403,178.26112 67.694403,179.95862 67.694403,181.60362 68.166903,182.53112 68.639403,183.44112 69.794403,183.44112 Z"
         id="path167" />
      <path
         d="M 78.526903,172.34612 Q 79.594403,172.34612 80.311903,172.73112 81.029403,173.11612 81.449403,173.88612 81.886903,174.63862 82.061903,175.79362 82.236903,176.94862 82.236903,178.48862 82.236903,180.02862 82.061903,181.18362 81.886903,182.33862 81.449403,183.10862 81.029403,183.86112 80.311903,184.24612 79.594403,184.63112 78.526903,184.63112 77.459403,184.63112 76.741903,184.24612 76.041903,183.86112 75.621903,183.10862 75.201903,182.33862 75.026903,181.18362 74.851903,180.02862 74.851903,178.48862 74.851903,176.94862 75.026903,175.79362 75.201903,174.63862 75.621903,173.88612 76.041903,173.11612 76.741903,172.73112 77.459403,172.34612 78.526903,172.34612 Z M 78.526903,173.58862 Q 77.319403,173.58862 76.829403,174.76112 76.339403,175.93362 76.339403,178.48862 76.339403,181.04362 76.829403,182.21612 77.319403,183.38862 78.526903,183.38862 79.734403,183.38862 80.241903,182.21612 80.749403,181.04362 80.749403,178.48862 80.749403,175.93362 80.241903,174.76112 79.734403,173.58862 78.526903,173.58862 Z"
         id="path169" />
      <path
         d="M 87.276903,172.34612 Q 89.026903,172.34612 89.971903,173.85112 90.916903,175.33862 90.916903,178.55862 90.916903,180.18612 90.671903,181.34112 90.426903,182.49612 89.954403,183.23112 89.499403,183.96612 88.816903,184.29862 88.134403,184.63112 87.276903,184.63112 86.384403,184.63112 85.701903,184.29862 85.036903,183.96612 84.581903,183.23112 84.126903,182.49612 83.899403,181.34112 83.671903,180.18612 83.671903,178.55862 83.671903,175.33862 84.581903,173.85112 85.509403,172.34612 87.276903,172.34612 Z M 87.259403,183.49362 Q 88.326903,183.49362 88.921903,182.33862 89.534403,181.16612 89.446903,178.59362 89.411903,177.99862 89.376903,177.47362 89.341903,176.93112 89.289403,176.47612 L 85.561903,182.23362 Q 85.806903,182.89862 86.209403,183.19612 86.611903,183.49362 87.259403,183.49362 Z M 87.259403,173.53612 Q 86.209403,173.53612 85.631903,174.77862 85.054403,176.02112 85.124403,178.61112 85.141903,179.22362 85.159403,179.71362 85.176903,180.20362 85.229403,180.65862 L 88.939403,174.93612 Q 88.466903,173.53612 87.259403,173.53612 Z"
         id="path171" />
      <path
         d="M 96.044403,183.40612 Q 96.989403,183.40612 97.584403,182.81112 98.179403,182.21612 98.179403,181.14862 98.179403,180.62362 98.004403,180.18612 97.846903,179.74862 97.549403,179.43362 97.269403,179.11862 96.884403,178.94362 96.499403,178.76862 96.044403,178.76862 95.624403,178.76862 95.239403,178.94362 94.854403,179.11862 94.556903,179.43362 94.276903,179.74862 94.101903,180.18612 93.926903,180.62362 93.926903,181.14862 93.926903,181.67362 94.084403,182.09362 94.259403,182.51362 94.539403,182.81112 94.836903,183.09112 95.221903,183.24862 95.606903,183.40612 96.044403,183.40612 Z M 96.044403,177.54362 Q 96.779403,177.54362 97.339403,177.01862 97.899403,176.49362 97.899403,175.49612 97.899403,174.55112 97.374403,173.99112 96.849403,173.43112 96.044403,173.43112 95.291903,173.43112 94.766903,173.99112 94.241903,174.55112 94.241903,175.49612 94.241903,176.00362 94.381903,176.38862 94.539403,176.75612 94.784403,177.01862 95.046903,177.28112 95.361903,177.42112 95.694403,177.54362 96.044403,177.54362 Z M 96.044403,184.61362 Q 94.381903,184.61362 93.384403,183.79112 92.386903,182.95112 92.386903,181.34112 92.386903,180.23862 92.929403,179.38112 93.471903,178.52362 94.574403,178.17362 93.734403,177.85862 93.226903,177.17612 92.719403,176.47612 92.719403,175.51362 92.719403,174.04362 93.576903,173.20362 94.434403,172.34612 96.026903,172.34612 97.619403,172.34612 98.511903,173.18612 99.421903,174.02612 99.421903,175.51362 99.421903,176.47612 98.879403,177.17612 98.354403,177.85862 97.549403,178.17362 98.599403,178.52362 99.159403,179.38112 99.719403,180.23862 99.719403,181.34112 99.719403,182.95112 98.704403,183.79112 97.706903,184.61362 96.044403,184.61362 Z"
         id="path173" />
      <path
         d="M 114.4544,175.47862 V 183.19612 H 116.9744 V 184.40362 H 110.2894 V 183.19612 H 112.9669 V 176.68612 H 110.9019 V 175.47862 Z M 112.4244,172.48612 Q 112.4244,171.99612 112.7744,171.64612 113.1244,171.29612 113.5969,171.29612 114.0694,171.29612 114.4194,171.64612 114.7694,171.99612 114.7694,172.48612 114.7694,172.97612 114.4194,173.32612 114.0694,173.67612 113.5969,173.67612 113.1244,173.67612 112.7744,173.32612 112.4244,172.97612 112.4244,172.48612 Z"
         id="path175" />
      <path
         d="M 125.1644,172.53862 V 173.81612 H 123.0469 V 183.12612 H 125.5144 V 184.40362 H 119.0744 V 183.12612 H 121.5419 V 173.81612 H 119.4244 V 172.53862 Z"
         id="path177" />
      <path
         d="M 131.8144,171.97862 V 182.82862 Q 131.8144,183.02112 131.8844,183.10862 131.9719,183.19612 132.1994,183.19612 H 134.4219 V 184.40362 H 131.7269 Q 131.0444,184.40362 130.6944,183.98362 130.3444,183.56362 130.3444,183.00362 V 173.18612 H 128.4194 V 171.97862 Z"
         id="path179" />
      <path
         d="M 143.5394,183.12612 V 184.40362 H 136.8544 V 172.53862 H 138.3594 V 183.12612 Z"
         id="path181" />
      <path
         d="M 146.1469,184.40362 V 183.12612 H 148.5094 V 174.06112 H 148.4919 Q 148.2644,174.25362 147.9319,174.46362 147.6169,174.67362 147.2494,174.86612 146.8994,175.05862 146.5319,175.23362 146.1644,175.40862 145.8669,175.53112 H 145.6569 V 174.23612 Q 146.4794,173.88612 147.2494,173.43112 148.0369,172.97612 148.4744,172.53862 H 149.9794 V 183.12612 H 152.2194 V 184.40362 Z"
         id="path183" />
      <path
         d="M 162.6844,178.31362 H 163.6644 Q 164.4519,178.31362 164.7669,177.75362 165.0994,177.19362 165.0994,176.40612 V 173.99112 Q 165.0994,172.60862 165.7469,172.01362 166.3944,171.41862 167.6194,171.41862 H 169.2819 V 172.52112 H 167.6894 Q 167.1119,172.52112 166.8494,172.88862 166.5869,173.23862 166.5869,174.02612 V 177.07112 Q 166.5869,177.82362 166.1144,178.29612 165.6594,178.76862 165.0644,178.92612 V 178.96112 Q 165.3269,179.06612 165.5894,179.24112 165.8694,179.39862 166.0794,179.62612 166.3069,179.85362 166.4469,180.15112 166.5869,180.44862 166.5869,180.81612 V 184.42112 Q 166.5869,185.20862 166.8494,185.55862 167.1119,185.92612 167.6894,185.92612 H 169.2819 V 187.02862 H 167.6194 Q 166.3944,187.02862 165.7469,186.43362 165.1169,185.85612 165.1169,184.45612 V 181.49862 Q 165.1169,180.71112 164.7844,180.15112 164.4519,179.57362 163.6644,179.57362 H 162.6844 Z"
         id="path185" />
      <path
         d="M 178.1544,179.57362 H 177.1744 Q 176.3869,179.57362 176.0544,180.15112 175.7219,180.71112 175.7219,181.49862 V 184.45612 Q 175.7219,185.85612 175.0744,186.43362 174.4444,187.02862 173.2194,187.02862 H 171.5569 V 185.92612 H 173.1494 Q 173.7269,185.92612 173.9894,185.55862 174.2519,185.20862 174.2519,184.42112 V 180.81612 Q 174.2519,180.44862 174.3919,180.15112 174.5319,179.85362 174.7419,179.62612 174.9694,179.39862 175.2319,179.24112 175.5119,179.06612 175.7744,178.96112 V 178.92612 Q 175.1794,178.76862 174.7069,178.29612 174.2519,177.82362 174.2519,177.07112 V 174.02612 Q 174.2519,173.23862 173.9894,172.88862 173.7269,172.52112 173.1494,172.52112 H 171.5569 V 171.41862 H 173.2194 Q 174.4444,171.41862 175.0919,172.01362 175.7394,172.60862 175.7394,173.99112 V 176.40612 Q 175.7394,177.19362 176.0544,177.75362 176.3869,178.31362 177.1744,178.31362 H 178.1544 Z"
         id="path187" />
      <path
         d="M 195.1994,171.41862 V 172.55612 H 191.6994 V 185.89112 H 195.1994 V 187.02862 H 190.1944 V 171.41862 Z"
         id="path189" />
      <path
         d="M 203.1444,171.41862 V 187.02862 H 198.1394 V 185.89112 H 201.6394 V 172.55612 H 198.1394 V 171.41862 Z"
         id="path191" />
      <path
         d="M 220.3469,179.17112 Q 220.3469,178.59362 220.2069,178.10362 220.0844,177.61362 219.8219,177.26362 219.5769,176.89612 219.1919,176.70362 218.8244,176.49362 218.3344,176.49362 217.9669,176.49362 217.6344,176.65112 217.3019,176.79112 217.0394,177.15862 216.7769,177.50862 216.6194,178.10362 216.4794,178.68112 216.4794,179.53862 216.4794,180.06362 216.5319,180.62362 216.5844,181.18362 216.7769,181.65612 216.9694,182.12862 217.3194,182.42612 217.6869,182.72362 218.3169,182.72362 218.9119,182.72362 219.2969,182.46112 219.6994,182.19862 219.9269,181.83112 220.1544,181.44612 220.2419,181.04362 220.3469,180.64112 220.3469,180.34362 Z M 217.9494,186.13612 Q 219.2094,186.13612 219.7869,185.26112 220.3819,184.40362 220.3819,182.75862 V 182.58362 Q 219.6119,183.84362 218.1769,183.89612 217.1969,183.93112 216.5669,183.59862 215.9544,183.24862 215.5869,182.67112 215.2369,182.07612 215.0969,181.27112 214.9744,180.46612 214.9744,179.55612 214.9744,178.64612 215.1494,177.87612 215.3244,177.10612 215.7094,176.54612 216.0944,175.96862 216.6894,175.63612 217.3019,175.30362 218.1769,175.28612 218.8419,175.26862 219.3844,175.56612 219.9269,175.86362 220.2769,176.47612 H 220.3119 L 220.4169,175.47862 H 221.7994 V 182.35612 Q 221.7994,183.51112 221.6069,184.43862 221.4144,185.36612 220.9594,186.01362 220.5219,186.66112 219.7869,187.01112 219.0519,187.36112 217.9844,187.36112 217.3544,187.36112 216.6544,187.18612 215.9544,187.02862 215.4819,186.73112 V 185.40112 H 215.6919 Q 215.8494,185.52362 216.1119,185.64612 216.3744,185.78612 216.6719,185.89112 216.9869,185.99612 217.3194,186.06612 217.6519,186.13612 217.9494,186.13612 Z"
         id="path193" />
      <path
         d="M 224.3369,184.12362 V 182.84612 H 224.5469 Q 224.9494,183.10862 225.4394,183.24862 225.9294,183.38862 226.4194,183.38862 227.7319,183.38862 228.4494,182.25112 229.1669,181.11362 229.2719,179.10112 228.8869,179.64362 228.2744,179.99362 227.6794,180.34362 226.8919,180.34362 226.0169,180.34362 225.4044,180.06362 224.8094,179.78362 224.4069,179.27612 224.0219,178.76862 223.8469,178.06862 223.6719,177.35112 223.6719,176.47612 223.6719,175.58362 223.8819,174.83112 224.1094,174.07862 224.5294,173.53612 224.9669,172.97612 225.6144,172.66112 226.2619,172.34612 227.1194,172.34612 228.2919,172.34612 229.0094,172.87112 229.7269,173.39612 230.1119,174.21862 230.4969,175.04112 230.6194,176.03862 230.7419,177.01862 230.7419,177.92862 230.7419,178.64612 230.6544,179.43362 230.5844,180.20362 230.3919,180.95612 230.2169,181.69112 229.9019,182.35612 229.5869,183.02112 229.1144,183.52862 228.6419,184.01862 227.9769,184.31612 227.3119,184.61362 226.4369,184.61362 225.8069,184.61362 225.2819,184.50862 224.7744,184.38612 224.3369,184.12362 Z M 229.1494,176.47612 Q 229.1494,175.98612 229.0269,175.47862 228.9219,174.95362 228.6769,174.53362 228.4319,174.09612 228.0469,173.81612 227.6794,173.53612 227.1369,173.53612 226.5769,173.53612 226.1919,173.78112 225.8244,174.02612 225.5969,174.42862 225.3694,174.83112 225.2644,175.35612 225.1769,175.86362 225.1769,176.38862 225.1769,176.94862 225.2469,177.45612 225.3344,177.96362 225.5444,178.34862 225.7544,178.71612 226.1219,178.94362 226.4894,179.15362 227.0669,179.15362 227.6444,179.15362 228.0294,178.90862 228.4319,178.66362 228.6769,178.27862 228.9394,177.89362 229.0444,177.42112 229.1494,176.93112 229.1494,176.47612 Z"
         id="path195" />
      <path
         d="M 237.8469,179.04862 Q 237.8469,178.47112 237.6719,177.99862 237.5144,177.52612 237.2344,177.19362 236.9719,176.84362 236.6044,176.66862 236.2369,176.47612 235.8169,176.47612 234.8369,176.47612 234.3819,177.28112 233.9444,178.08612 233.9444,179.92362 233.9444,181.74362 234.4694,182.58362 235.0119,183.40612 235.8869,183.40612 236.4644,183.40612 236.8319,183.17862 237.2169,182.95112 237.4444,182.58362 237.6719,182.19862 237.7594,181.72612 237.8469,181.25362 237.8469,180.76362 Z M 235.5894,184.57862 Q 234.6969,184.57862 234.1019,184.15862 233.5069,183.73862 233.1394,183.07362 232.7894,182.40862 232.6319,181.58612 232.4744,180.76362 232.4744,179.97612 232.4744,179.06612 232.5969,178.22612 232.7369,177.36862 233.0869,176.72112 233.4369,176.05612 234.0319,175.65362 234.6444,175.25112 235.6069,175.25112 235.9219,175.25112 236.2719,175.33862 236.6219,175.42612 236.9194,175.58362 237.2344,175.74112 237.4619,175.96862 237.7069,176.19612 237.8119,176.45862 H 237.8294 L 237.8819,175.47862 H 239.2994 V 187.37862 H 237.8469 V 183.35362 H 237.8294 Q 237.5144,183.93112 236.8844,184.26362 236.2719,184.57862 235.5894,184.57862 Z"
         id="path197" />
      <path
         d="M 248.4344,182.30362 V 183.82612 Q 247.3844,184.61362 245.6869,184.61362 244.4444,184.61362 243.6044,184.17612 242.7819,183.72112 242.2569,182.91612 241.7494,182.11112 241.5219,180.99112 241.3119,179.87112 241.3119,178.54112 241.3119,177.21112 241.5219,176.07362 241.7494,174.93612 242.2569,174.11362 242.7644,173.27362 243.5869,172.80112 244.4094,172.32862 245.6344,172.32862 246.4219,172.32862 247.0519,172.50362 247.6819,172.67862 248.2244,172.95862 V 174.55112 H 248.0144 Q 247.5594,174.20112 246.9644,173.93862 246.3869,173.65862 245.6519,173.65862 244.2694,173.65862 243.5869,174.88362 242.9044,176.09112 242.9044,178.41862 242.9044,180.83362 243.6044,182.07612 244.3219,183.30112 245.7394,183.30112 246.4744,183.30112 247.0344,183.09112 247.6119,182.86362 248.2244,182.30362 Z"
         id="path199" />
      <path
         d="M 256.6069,174.44612 Q 255.4694,173.60612 254.1219,173.60612 252.6344,173.60612 251.9694,174.81362 251.3219,176.00362 251.3219,178.43612 251.3219,180.88612 251.9169,182.14612 252.5294,183.38862 254.1044,183.38862 254.4369,183.38862 254.8744,183.26612 255.3119,183.14362 255.5569,182.93362 V 179.43362 H 253.6494 V 178.20862 H 257.0094 V 183.59862 Q 256.3969,184.08862 255.6094,184.36862 254.8394,184.63112 254.0519,184.63112 252.7569,184.63112 251.9169,184.17612 251.0944,183.72112 250.6044,182.89862 250.1319,182.07612 249.9394,180.93862 249.7644,179.80112 249.7644,178.43612 249.7644,177.07112 249.9569,175.95112 250.1669,174.83112 250.6569,174.02612 251.1644,173.22112 252.0044,172.78362 252.8444,172.32862 254.1394,172.32862 254.8044,172.32862 255.4869,172.48612 256.1694,172.62612 256.8169,172.97612 V 174.44612 Z"
         id="path201" />
      <path
         d="M 262.2769,172.34612 Q 263.3444,172.34612 264.0619,172.73112 264.7794,173.11612 265.1994,173.88612 265.6369,174.63862 265.8119,175.79362 265.9869,176.94862 265.9869,178.48862 265.9869,180.79862 265.5669,182.21612 265.1644,183.63362 264.0969,184.22862 L 265.7419,185.85612 V 186.06612 H 263.9044 L 262.7669,184.61362 Q 262.6444,184.63112 262.5219,184.63112 262.3994,184.63112 262.2769,184.63112 261.2094,184.63112 260.4919,184.24612 259.7919,183.86112 259.3719,183.10862 258.9519,182.33862 258.7769,181.18362 258.6019,180.02862 258.6019,178.48862 258.6019,176.94862 258.7769,175.79362 258.9519,174.63862 259.3719,173.88612 259.7919,173.11612 260.4919,172.73112 261.2094,172.34612 262.2769,172.34612 Z M 262.2769,173.58862 Q 261.0694,173.58862 260.5794,174.76112 260.0894,175.93362 260.0894,178.48862 260.0894,181.04362 260.5794,182.21612 261.0694,183.38862 262.2769,183.38862 263.4844,183.38862 263.9919,182.21612 264.4994,181.04362 264.4994,178.48862 264.4994,175.93362 263.9919,174.76112 263.4844,173.58862 262.2769,173.58862 Z"
         id="path203" />
      <path
         d="M 277.2919,180.27362 Q 277.2744,179.62612 277.3794,179.08362 277.4844,178.52362 277.7294,178.12112 277.9569,177.71862 278.3419,177.49112 278.7269,177.26362 279.2694,177.26362 279.9169,177.26362 280.3544,177.59612 280.7919,177.92862 281.1419,178.34862 281.4919,178.75112 281.8069,179.08362 282.1044,179.41612 282.4719,179.41612 282.8569,179.41612 283.1194,179.25862 283.3819,179.08362 283.6444,178.89112 283.8894,178.69862 284.1694,178.54112 284.4669,178.36612 284.8869,178.36612 H 291.0644 V 179.62612 H 284.8519 Q 284.6419,179.62612 284.3794,179.80112 284.1169,179.97612 283.8194,180.20362 283.5044,180.41362 283.1544,180.58862 282.8044,180.76362 282.4194,180.76362 281.7894,180.76362 281.3519,180.43112 280.8969,180.09862 280.5644,179.69612 280.2144,179.27612 279.8994,178.94362 279.5844,178.61112 279.2169,178.61112 278.8144,178.61112 278.6919,178.99612 278.5694,179.38112 278.5694,180.27362 Z"
         id="path205" />
      <path
         d="M 296.6469,178.71612 V 175.28612 H 297.9419 V 178.71612 H 301.0919 V 179.97612 H 297.9419 V 183.52862 H 296.6469 V 179.97612 H 293.4969 V 178.71612 Z"
         id="path207" />
      <path
         d="M 319.6419,179.24112 314.8994,184.57862 313.7969,183.63362 314.8994,182.42612 Q 315.3544,181.91862 315.9844,181.53362 H 302.1419 V 180.27362 H 316.8769 L 317.8044,179.24112 316.8769,178.20862 H 302.1419 V 176.94862 H 315.9844 Q 315.3894,176.58112 314.8994,176.03862 L 313.7969,174.84862 314.8994,173.90362 Z"
         id="path209" />
    </g>
  </g>
</svg>
