<svg xmlns="http://www.w3.org/2000/svg" width="383.969" height="114.562" viewBox="0 0 359.971 107.402"><g font-weight="400" font-family="DaddyTimeMono Nerd Font" letter-spacing="0" word-spacing="0" fill="#fff"><g style="line-height:125%;text-decoration-line:underline" font-size="27.5" text-decoration="underline"><path d="M7.976 0q.94 0 2.202 1.29 1.262 1.288 2.095 2.98 1.289 2.551 1.289 6.177 0 3.33-1.558 5.962-.752 1.316-2.067 2.417-1.316 1.1-1.96 1.1H0V0h7.976zm3.384 10.447q0-2.927-1.048-4.995-.698-1.343-1.665-2.444-.94-1.074-1.691-1.074H2.202v16.005h4.754q.51 0 1.503-.966.914-.887 1.666-2.068 1.235-2.068 1.235-4.458zM27.983 7.224l-.698.725v7.896q0 1.96 1.155 2.39h1.396l-1.584 1.907q-2.39-.323-2.39-3.68-1.048 3.626-3.545 3.626-2.632 0-4.35-1.96-1.88-2.122-1.88-4.673 0-2.283 1.584-4.351 1.558-2.041 3.867-2.041.86 0 2.041.618 1.155.617 1.504.94V7.224h2.9zm-6.525 1.692q-.752 0-1.666.671-.644.484-.993 1.343-.51 1.209-.51 2.9 0 1.907 1.128 3.357.778.94 2.604.94 1.666 0 2.9-3.464.404-1.182.404-2.685 0-1.048-.806-1.773-.832-.752-1.477-1.02-.645-.269-1.584-.269zM44.097 0l-.672.671v15.442q.08 1.504.887 2.364h1.235l-1.719 1.665q-1.423-.323-1.477-2.31-1.45 2.256-3.384 2.256-2.632 0-4.807-1.987-2.229-2.015-2.229-4.646 0-3.008 1.37-4.7 1.37-1.692 3.813-1.692.618 0 2.23.645 1.61.644 1.88.913V0h2.873zm-7.493 8.997q-2.498 0-2.498 4.646 0 1.691 1.558 3.088 1.558 1.396 3.491 1.396.484 0 .913-.295.403-.295.645-.832.215-.484.349-1.102.161-.67.188-1.342.054-1.128.054-1.316v-.537q.027-.43.027-.725 0-.967-.94-1.665-.994-.752-2.041-1.021-1.128-.295-1.746-.295zM59.888 0l-.672.671v15.442q.08 1.504.887 2.364h1.235l-1.719 1.665q-1.423-.323-1.477-2.31-1.45 2.256-3.384 2.256-2.632 0-4.807-1.987-2.229-2.015-2.229-4.646 0-3.008 1.37-4.7 1.37-1.692 3.813-1.692.618 0 2.23.645 1.61.644 1.88.913V0h2.873zm-7.493 8.997q-2.498 0-2.498 4.646 0 1.691 1.558 3.088 1.558 1.396 3.491 1.396.484 0 .913-.295.403-.295.645-.832.215-.484.349-1.102.161-.67.188-1.342.054-1.128.054-1.316v-.537q.027-.43.027-.725 0-.967-.94-1.665-.994-.752-2.041-1.021-1.128-.295-1.746-.295zM75.974 7.224l-.618.833v11.601q0 2.9-1.45 4.35-1.423 1.424-4.135 1.424-1.88-.027-3.384-1.047t-1.585-2.874l1.692-.967q0 2.928 3.277 2.928 1.853 0 2.658-.994.806-.994.806-3.088v-2.417q-.322.913-1.37 1.396-.993.457-2.094.457-2.66 0-3.975-1.8-1.29-1.772-1.29-4.404V8.057l-.617-.833h3.545l-.725.833v4.565q0 2.23.752 3.223.779 1.02 2.31 1.02 3.383 0 3.383-4.243V8.057l-.617-.833h3.437zM84.595 1.96H79.84L78.66 0h12.944l1.182 1.96h-5.962v17.967h-2.23V1.96zM100.87 1.316q.59 0 1.127.51.59.537.59 1.182 0 .644-.59 1.181-.537.51-1.128.51-.51 0-1.155-.51-.59-.483-.59-1.181 0-.698.59-1.182.645-.51 1.155-.51zm1.53 5.908v10.474h2.31l-1.021 2.229h-3.438V9.453h-1.745V7.224h3.894zM112.686 7.224v1.101q.214-.456.886-.86.671-.402 1.128-.402.805.027 1.423.457.618.402 1.262 1.262 1.29-1.665 2.82-1.719 1.209 0 2.149.752.966.779 1.289 1.907.295 1.1.43 2.068.134 1.02.134 1.691v5.64l.67.806h-3.49l.617-.806v-5.64q0-4.484-1.799-4.484-1.692 0-1.692 4.484v5.64l.564.806h-3.464l.698-.806v-5.64q0-4.484-1.665-4.484-1.96 0-1.96 4.484v5.64l.617.806h-3.491l.671-.806V7.896l-.698-.672h2.9zM133.123 7.063q.993 0 1.906.322.913.323 1.531.806.645.51 1.101 1.047.43.484.752 1.29.269.644.269 1.074l-8.755 4.941q.107.483.913 1.155.295.241.94.51.537.215 1.343.215 1.45 0 2.55-.698 1.102-.699 1.102-1.397l2.847-.832q-.699 1.772-2.39 3.195-1.666 1.397-4.11 1.397-2.658 0-4.323-1.826-1.665-1.826-1.665-4.673 0-2.927 1.665-4.7 1.692-1.826 4.324-1.826zm3.034 3.464q0-.053-.053-.214-.054-.188-.215-.43-.135-.215-.51-.537-.27-.215-.887-.43-.564-.188-1.37-.188-1.476 0-2.336.833-.913.859-1.181 1.853-.27.966-.27 2.175 0 .671.055 1.37l6.767-4.432zM155.681.027v19.9h-2.202V3.813l-4.565 7.413-4.566-7.413v16.114h-2.202V.027h2.202l4.566 7.52 4.565-7.52h2.202zM164.543 8.728q-3.356 0-3.356 5.022 0 2.256.751 3.437.78 1.236 2.605 1.236 1.88 0 2.767-1.236.886-1.235.886-3.437t-.886-3.625q-.887-1.397-2.767-1.397zm0-1.665q2.552 0 4.324 2.068 1.8 2.095 1.8 4.619 0 2.524-1.773 4.431-1.772 1.907-4.35 1.907-2.552 0-4.19-1.88-1.638-1.88-1.638-4.458 0-2.578 1.665-4.646 1.638-2.041 4.162-2.041zM180.791 7.063q1.826 0 3.062.994 1.262 1.02 1.772 2.417.537 1.477.537 3.222v5.425l.645.806h-3.518l.671-.806v-5.425q0-2.256-.806-3.545-.779-1.262-2.363-1.262-1.826 0-2.524 1.209-.699 1.235-.699 3.598v5.425l.645.806h-3.41l.563-.806V7.896l-.671-.672h2.847v1.423q1.45-1.584 3.249-1.584zM196.125 8.728q-3.356 0-3.356 5.022 0 2.256.752 3.437.778 1.236 2.604 1.236 1.88 0 2.767-1.236.886-1.235.886-3.437t-.886-3.625q-.887-1.397-2.767-1.397zm0-1.665q2.552 0 4.324 2.068 1.8 2.095 1.8 4.619 0 2.524-1.773 4.431-1.772 1.907-4.35 1.907-2.552 0-4.19-1.88-1.638-1.88-1.638-4.458 0-2.578 1.665-4.646 1.638-2.041 4.162-2.041zM234.636 0v19.927h-2.202l-9.13-15.845v15.845H221.1V0h2.202l9.131 15.818V0h2.202zM243.66 7.063q.993 0 1.906.322.913.323 1.531.806.645.51 1.101 1.047.43.484.752 1.29.269.644.269 1.074l-8.755 4.941q.107.483.913 1.155.295.241.94.51.537.215 1.343.215 1.45 0 2.55-.698 1.102-.699 1.102-1.397l2.847-.832q-.699 1.772-2.39 3.195-1.665 1.397-4.11 1.397-2.658 0-4.323-1.826-1.665-1.826-1.665-4.673 0-2.927 1.665-4.7 1.692-1.826 4.324-1.826zm3.034 3.464q0-.053-.053-.214-.054-.188-.215-.43-.134-.215-.51-.537-.269-.215-.887-.43-.564-.188-1.37-.188-1.476 0-2.336.833-.913.859-1.181 1.853-.269.966-.269 2.175 0 .671.054 1.37l6.767-4.432zM260.015 7.063q2.417.027 3.813 1.477 1.37 1.423 1.423 2.82 0 .564-.617.94-.645.403-1.558.403-.322 0-.483-.242-.161-.242-.161-.403 0-.242.322-.51.295-.269.295-.484 0-1.074-.886-1.557-.94-.51-2.148-.51-1.048 0-1.88.617-.833.618-1.182 1.477-.376.94-.537 1.665-.188.887-.188 1.397v4.914l.671.86h-3.464l.59-.86V7.842q-.644-.537-.644-.618h2.847v1.987q.269-.725 1.53-1.423 1.29-.725 2.257-.725zM280.962 0l-.671.671v15.442q.08 1.504.886 2.364h1.235l-1.719 1.665q-1.423-.323-1.477-2.31-1.45 2.256-3.383 2.256-2.632 0-4.808-1.987-2.229-2.015-2.229-4.646 0-3.008 1.37-4.7 1.37-1.692 3.813-1.692.618 0 2.23.645 1.61.644 1.88.913V0h2.873zm-7.493 8.997q-2.497 0-2.497 4.646 0 1.691 1.557 3.088 1.558 1.396 3.492 1.396.483 0 .913-.295.402-.295.644-.832.215-.484.35-1.102.16-.67.187-1.342.054-1.128.054-1.316v-.537q.027-.43.027-.725 0-.967-.94-1.665-.994-.752-2.041-1.021-1.128-.295-1.746-.295zM312.41 0l1.181 1.934h-11.333v6.015H309l1.182 1.934h-7.923v10.044h-2.202V0h12.354zM322.454 8.728q-3.357 0-3.357 5.022 0 2.256.752 3.437.778 1.236 2.605 1.236 1.88 0 2.766-1.236.886-1.235.886-3.437t-.886-3.625q-.887-1.397-2.766-1.397zm0-1.665q2.55 0 4.323 2.068 1.8 2.095 1.8 4.619 0 2.524-1.773 4.431-1.772 1.907-4.35 1.907-2.552 0-4.19-1.88-1.638-1.88-1.638-4.458 0-2.578 1.665-4.646 1.638-2.041 4.163-2.041zM338.701 7.063q1.826 0 3.062.994 1.262 1.02 1.772 2.417.537 1.477.537 3.222v5.425l.645.806h-3.518l.671-.806v-5.425q0-2.256-.806-3.545-.778-1.262-2.363-1.262-1.826 0-2.524 1.209-.698 1.235-.698 3.598v5.425l.644.806h-3.41l.563-.806V7.896l-.671-.672h2.847v1.423q1.45-1.584 3.25-1.584zM354.6 0l-.591.779v6.714h5.962l-1.02 1.96h-4.942v6.929q0 .349.107.698.108.376.269.564.134.161.537.35.295.133.86.133.59 0 1.073-.483.51-.51.699-.967l.188-.483V14.34l1.987 1.987q-.161.59-.645 1.397-.51.859-1.423 1.584-.994.779-2.014.779-1.45 0-2.659-.913-1.181-.886-1.181-2.444V9.453h-3.438v-1.96h3.438V.779L351.055 0h3.545z"/></g><g style="line-height:125%" font-size="17.5"><path d="M9.91 51.843l-.443.462v5.024q0 1.248.734 1.521h.89l-1.01 1.213q-1.52-.205-1.52-2.34-.667 2.306-2.256 2.306-1.675 0-2.769-1.247-1.196-1.35-1.196-2.974 0-1.453 1.008-2.768.992-1.3 2.461-1.3.547 0 1.3.394.734.393.956.598v-.889h1.846zM5.759 52.92q-.478 0-1.06.427-.41.308-.632.855-.325.769-.325 1.845 0 1.214.718 2.137.496.598 1.658.598 1.06 0 1.846-2.205.256-.752.256-1.709 0-.666-.513-1.128-.53-.478-.94-.65-.41-.17-1.008-.17zM12.85 47.246h1.829v5.486q.17-.171 1.196-.581 1.026-.41 1.419-.41 1.555 0 2.426 1.076.872 1.077.872 2.991 0 1.675-1.418 2.957-1.385 1.264-3.06 1.264-1.23 0-2.153-1.435-.034 1.264-.94 1.47l-1.094-1.06h.787q.512-.547.564-1.504v-9.827l-.428-.427zm4.768 5.725q-.393 0-1.11.188-.667.171-1.3.65-.597.444-.597 1.06v.46q.017.274.017.342 0 .12.034.838.017.427.12.854.085.393.222.701.153.342.41.53.273.188.58.188 1.231 0 2.223-.889.99-.889.99-1.965 0-2.957-1.589-2.957zM26.608 51.74q1.128 0 2.307.838 1.162.82 1.162 1.453l-1.487 1.401V54.27q-.188-.496-.803-.906-.581-.393-1.18-.393-1.179 0-1.81.803-.633.804-.633 2 0 1.282.58 2.136.599.872 1.864.872.769 0 1.401-.462.65-.461.923-1.11h1.59q-.377 1.042-1.505 1.93-1.128.89-2.444.89-1.657 0-2.734-1.231-1.077-1.23-1.077-3.025 0-1.829 1.094-2.922 1.111-1.111 2.752-1.111zM40.262 47.246l-.427.427V57.5q.052.957.564 1.504h.786l-1.093 1.06q-.906-.206-.94-1.47-.923 1.435-2.154 1.435-1.675 0-3.059-1.264-1.418-1.282-1.418-2.957 0-1.914.871-2.99.872-1.077 2.427-1.077.393 0 1.419.41 1.025.41 1.196.58v-5.485h1.828zm-4.768 5.725q-1.589 0-1.589 2.957 0 1.076.991 1.965t2.222.889q.308 0 .581-.188.256-.188.41-.53.137-.308.222-.7.103-.428.12-.855.034-.718.034-.838v-.341q.017-.274.017-.462 0-.615-.598-1.06-.632-.478-1.299-.649-.718-.188-1.11-.188zM46.671 51.74q.632 0 1.214.206.58.205.974.512.41.325.7.667.274.308.479.82.17.41.17.684l-5.57 3.144q.068.308.58.735.188.154.599.325.341.137.854.137.923 0 1.624-.445.7-.444.7-.888l1.812-.53q-.444 1.128-1.521 2.034-1.06.888-2.615.888-1.692 0-2.751-1.162-1.06-1.162-1.06-2.973 0-1.863 1.06-2.991 1.076-1.162 2.751-1.162zm1.931 2.205q0-.034-.034-.136-.034-.12-.137-.274-.085-.137-.324-.342-.171-.136-.564-.273-.36-.12-.872-.12-.94 0-1.487.53-.58.547-.752 1.18-.17.615-.17 1.384 0 .427.034.871l4.306-2.82zM58.121 47.195q.598 0 1.077.256.479.257.786.615.188.223.462.684.153.256.239.581l-1.402 1.162v-.837q0-1.23-1.162-1.23-1.23 0-1.23 1.23v2.358h3.315l-.65 1.248h-2.665v6.084l.495.58h-2.392l.496-.58v-6.084h-2.393v-1.248h2.393v-2.7q0-.855.7-1.487.7-.632 1.931-.632zM68.632 57.91l-.103.24q-.29.546-.769.854-.598.359-1.299.359-1.487 0-2.512-1.18-1.025-1.179-1.025-2.683 0-1.452 1.008-2.614.991-1.145 2.53-1.145.7 0 1.298.342.581.324.872 1.06v-1.3h1.811l-.41.462v9.502q0 .632-.957 1.23-.94.581-2.58.615-1.436 0-2.376-.683-.957-.7-1.196-1.35l1.401-1.162v1.162q.12.136.256.239.257.188.735.359.564.205 1.18.205 1.008-.034 1.572-.359.564-.325.564-.855V57.91zm-2.17-4.939q-1.129 0-1.624.667-.513.7-.513 1.862 0 1.197.53 1.897.547.735 1.606.735 1.043 0 1.555-.598.513-.58.513-2 0-2.563-2.068-2.563zM74.716 47.246v5.623q.444-.496 1.093-.804.684-.324 1.23-.324 1.624 0 2.462 1.145.82 1.128.854 2.734v3.794l.376.513h-2.239l.462-.513V55.62q0-2.649-1.914-2.649-.906 0-1.607.667-.683.666-.683 1.93v3.846l.376.513H72.92l.393-.513V47.622l-.427-.376h1.829zM86.44 48.083q.375 0 .717.325.376.342.376.752t-.376.752q-.342.325-.718.325-.324 0-.735-.325-.376-.308-.376-.752t.376-.752q.41-.325.735-.325zm.973 3.76v6.665h1.47l-.65 1.419h-2.187v-6.665h-1.11v-1.419h2.477zM98.915 48.34q.376-.325.888-.325.513 0 .855.325.376.342.376.803t-.376.803q-.342.325-.855.325-.512 0-.888-.325-.36-.307-.36-.803 0-.496.36-.803zM93.24 59.329q0-.445.256-.855.257-.41.77-.41.273 0 .683.17.427.172.427.36t-.359.393q-.376.222-.376.513 0 1.23.616 1.896.632.667 1.623.667.496 0 .991-.17.513-.172.735-.48.496-.683.496-1.691v-7.366l-.393-.513h2.17l-.376.513v7.366q0 1.572-.991 2.614-.461.496-1.196.735-.735.24-1.436.24-.735 0-1.487-.274-.735-.256-1.196-.718-.957-.99-.957-2.99zM108.553 52.39l-.41-.547h2.205l-.393.547q-.017 1.692-2 2.854 1.043.718 1.692 1.846.615 1.094.7 2.324l.394.513h-2.188l.445-.513q-.051-2.136-1.914-3.538h-2.136v3.538l.375.513h-2.153l.376-.513v-11.69l-.376-.478h2.153l-.375.479v6.921h1.777q1.042-.427 1.435-1.008t.393-1.248zM116.91 47.246l-.427.479v9.502q0 .564.137.888.12.274.376.479.24.188.632.188 1.111 0 1.111-.957v-1.162l1.401 1.418q-.17.65-.837 1.299-.65.65-1.743.65-1.248 0-1.76-.513-.274-.274-.445-.547-.154-.274-.239-.855-.103-.82-.103-2.187v-8.203l-.427-.479h2.324zM124.105 51.843v.7q.137-.29.564-.546.427-.256.718-.256.513.017.906.29.393.257.803.803.82-1.06 1.794-1.093.77 0 1.368.478.615.496.82 1.214.188.7.273 1.316.086.649.086 1.076v3.59l.427.512h-2.222l.393-.513v-3.589q0-2.854-1.145-2.854-1.076 0-1.076 2.854v3.59l.359.512h-2.205l.444-.513v-3.589q0-2.854-1.06-2.854-1.247 0-1.247 2.854v3.59l.393.512h-2.221l.427-.513V52.27l-.445-.427h1.846zM137.299 51.74q1.162 0 1.948.633.803.65 1.128 1.538.342.94.342 2.05v3.453l.41.513h-2.24l.428-.513v-3.452q0-1.436-.513-2.256-.495-.803-1.503-.803-1.163 0-1.607.769-.444.786-.444 2.29v3.452l.41.513h-2.17l.358-.513V52.27l-.427-.427h1.812v.906q.923-1.008 2.068-1.008zM147.057 52.8q-2.136 0-2.136 3.196 0 1.436.478 2.188.496.786 1.658.786 1.196 0 1.76-.786.564-.787.564-2.188 0-1.401-.564-2.307-.564-.889-1.76-.889zm0-1.06q1.623 0 2.751 1.317 1.145 1.333 1.145 2.94 0 1.606-1.128 2.819-1.127 1.213-2.768 1.213-1.624 0-2.666-1.196-1.043-1.196-1.043-2.837 0-1.64 1.06-2.956 1.042-1.3 2.649-1.3zM157.653 51.74q1.452 0 2.41 1.334.956 1.35.956 2.854 0 1.487-.957 2.802-.94 1.3-2.41 1.3-.717 0-1.4-.343-.65-.324-.94-1.025v4.358l.41.53h-2.256l.444-.53V52.27l-.444-.427h1.845v1.23q.513-1.332 2.342-1.332zm1.452 2.137q-.495-.889-1.606-.889-1.111 0-1.607.906-.495.906-.495 2.034 0 1.093.495 1.982.479.872 1.59.872 1.128 0 1.606-.838.496-.854.496-2.016 0-1.197-.479-2.051zM170.846 51.843l-.393.393v7.845q0 2.307.871 2.324.906 0 .906-1.47l1.385.735q-.171.615-.804 1.299-.632.683-1.572.683-2.187-.034-2.187-3.571v-1.419q-.291.7-.923 1.025-.684.342-1.402.342-1.47 0-2.392-1.299-.923-1.298-.923-2.802 0-.991.376-1.914.376-.923 1.162-1.607.769-.666 1.777-.666 1.812 0 2.325 1.316v-1.214h1.794zm-4.016 1.145q-1.111 0-1.538.855-.445.888-.445 2.085 0 1.179.445 2.016.444.838 1.538.838 1.076 0 1.64-.872.547-.837.547-1.982 0-1.162-.547-2.034-.564-.906-1.64-.906zM177.665 51.74q1.538.018 2.427.94.871.906.905 1.795 0 .359-.393.598-.41.257-.991.257-.205 0-.308-.154-.102-.154-.102-.257 0-.153.205-.324.188-.171.188-.308 0-.683-.564-.991-.598-.325-1.367-.325-.667 0-1.196.393-.53.393-.752.94-.24.598-.342 1.06-.12.564-.12.888v3.128l.427.547h-2.204l.376-.547v-7.144q-.41-.341-.41-.393h1.811v1.265q.171-.462.974-.906.82-.461 1.436-.461zM188.91 51.74q.359 0 1.162.428.325.154.547.615.24.462.256.838 0 .376-.222.53-.24.153-.803.153-.205 0-.359-.051-.17-.051-.17-.154 0-.154.204-.256.188-.103.188-.222 0-.206-.29-.428t-.667-.222h-2.41q-.564 0-.854.29-.29.291-.29.77 0 .478.29.803.273.29.854.29h2.085q1.026 0 1.744.718.7.7.7 1.658 0 .923-.735 1.743-.717.786-1.709.786h-2.683q-.273 0-1.11-.427-.291-.154-.565-.632-.239-.445-.273-.82 0-.684 1.162-.684.427 0 .427.205 0 .137-.205.24-.222.102-.222.238 0 .171.325.41.29.223.666.223h2.513q1.008 0 1.008-1.18 0-.53-.256-.888-.24-.342-.787-.342h-1.93q-1.043 0-1.864-.718-.837-.735-.837-1.623 0-.906.82-1.59.838-.7 1.88-.7h2.41zM197.66 47.246l-.376.496v4.272h3.794l-.65 1.248h-3.144v4.409q0 .222.068.444.069.24.171.36.086.102.342.221.188.086.547.086.376 0 .684-.308.324-.325.444-.615l.12-.308v-1.179l1.264 1.265q-.102.376-.41.888-.325.547-.906 1.009-.632.495-1.282.495-.922 0-1.691-.58-.752-.565-.752-1.556v-4.631h-2.188v-1.248h2.188v-4.272l-.479-.496h2.256zM211.298 51.843l-.376.53v7.297l.41.36h-1.812v-1.18q-1.076 1.18-2.17 1.18-1.692 0-2.547-1.231-.854-1.248-.854-3.008v-3.418l-.393-.53h2.239l-.445.53v3.315q0 1.453.513 2.273.513.82 1.487.82 1.094 0 1.623-.837.547-.854.547-2.256v-3.315l-.393-.53h2.17zM221.364 51.843l-.428.547v1.23q0 1.368-1.093 3.521-1.094 2.153-2.342 2.888-1.247-.735-2.358-2.888-1.094-2.119-1.094-3.52v-1.23l-.427-.548h2.29l-.462.547v1.23q0 .94.667 2.667.684 1.743 1.384 2.358.718-.632 1.384-2.358.65-1.675.65-2.666v-1.23l-.496-.548h2.325zM232.01 51.843l-.375.547v3.828q0 3.06-2.29 3.811-.684-.342-1.163-.769-.478-.427-.649-1.025-.359 1.162-1.658 1.794-2.427-.786-2.427-3.81V52.39l-.375-.547h2.187l-.41.547v3.828q0 1.06.17 1.573.189.546.855.99.65-.597.803-1.076.171-.547.171-1.487V52.39l-.444-.547h2.205l-.376.547v3.828q0 .872.222 1.436.205.53.888 1.128.394-.257.616-.718.222-.461.239-.752v-.256q.017-.154.017-.393.017-.257.017-.445V52.39l-.427-.547h2.205zM237.548 54.937l2.187-2.65.086-.717 1.572 1.538-.667.085-2.256 2.7 2.24 2.7.683.07-1.572 1.725-.086-.888-2.187-2.65-2.137 2.65-.085.888-1.572-1.726.683-.068 2.239-2.7-2.256-2.7-.666-.086 1.572-1.538.085.718 2.137 2.649zM251.476 51.843l-.393.53v7.383q0 1.846-.923 2.768-.906.906-2.632.906-1.196-.017-2.153-.666-.957-.65-1.009-1.829l1.077-.615q0 1.863 2.085 1.863 1.18 0 1.692-.633.513-.632.513-1.965v-1.538q-.205.58-.872.889-.632.29-1.333.29-1.692 0-2.53-1.145-.82-1.128-.82-2.803v-2.905l-.393-.53h2.256l-.461.53v2.905q0 1.419.478 2.051.496.65 1.47.65 2.153 0 2.153-2.7v-2.906l-.393-.53h2.188zM261.49 51.877q-.05 1.795-5.861 6.717l3.794.222q.632-.12.632-.325 0-.137-.205-.222-.205-.068-.205-.24 0-.221.41-.221.564 0 .872.307.307.308.307.667-.017.82-.65 1.162-.427.222-.973.222-2.871-.325-4.358-.325-1.368 0-1.368-1.247.445-.564 1.607-1.607 1.743-1.555 2.393-2.153 1.145-1.043 1.486-1.726h-3.52q-.598.137-.598.325 0 .136.188.239.188.102.188.256 0 .24-.376.24-.53 0-.872-.291-.325-.273-.325-.667.035-.752.684-1.093.479-.24.94-.24h5.81zM7.125 69.121l3.948 12.117v.564H9.586v-.564l-1.008-3.11H4.34l-1.009 3.11v.564h-1.47v-.564L5.81 69.12h1.316zM4.75 76.88h3.418l-1.71-5.247L4.75 76.88zM19.515 78.281q0-1.196-.752-2-.734-.785-1.674-.785h-3.47v5.041h3.692q.735 0 1.47-.581.734-.581.734-1.675zm-1.042-6.1q0-.719-.325-1.265-.342-.564-.94-.564H13.62v3.896h3.401q.479 0 .974-.718.479-.7.479-1.35zm-1.453-3.06q.803 0 1.367.274.564.273.89.751.324.496.443.958.137.546.137 1.076 0 .77-.461 1.59-.479.854-.838.922v.257q1.026.393 1.692 1.35.667.974.667 1.982 0 1.555-.974 2.53-.992.99-2.598.99h-5.127v-12.68h4.802zM30.026 69.121l.752 1.23h-3.846q-1.145 0-2.17 1.402-1.025 1.401-1.025 3.11 0 2.154 1.145 3.93 1.128 1.744 2.58 1.744h2.564l.752 1.265h-3.094q-2.341 0-3.845-1.966-1.504-1.965-1.504-4.973 0-1.316.581-2.632.581-1.298 1.624-2.221 1.008-.889 2.17-.889h3.316zM37.374 69.121q.598 0 1.402.82.803.82 1.333 1.897.82 1.624.82 3.931 0 2.12-.991 3.794-.479.837-1.316 1.538-.838.7-1.248.7H32.3v-12.68h5.075zm2.154 6.648q0-1.863-.667-3.179-.444-.854-1.06-1.555-.598-.683-1.076-.683H33.7v10.185h3.025q.325 0 .957-.615.58-.564 1.06-1.316.786-1.316.786-2.837zM50.277 69.121l.752 1.23h-7.212v3.982h4.29l.752 1.248h-5.042v4.956h6.46l.752 1.265h-8.613v-12.68h7.861zM60.275 69.121l.752 1.23h-7.212v3.829h4.29l.751 1.23h-5.041v6.392h-1.402v-12.68h7.862zM70.255 69.121l.752 1.23h-4.136q-.837.052-1.452.513-.581.445-.94 1.23-.29.65-.462 1.539-.153.786-.153 1.692 0 .974.17 1.811.188.889.53 1.658.36.786.991 1.265.633.478 1.504.478h2.615l-.564-5.076h-2.17l-.53-1.281h3.88l.785 6.357v1.265H67.06q-1.486 0-2.546-.991-1.077-.992-1.555-2.427-.496-1.453-.496-3.06 0-1.537.444-2.922.445-1.367 1.453-2.324 1.008-.957 2.41-.957h3.486zM79.723 74.333v-5.212h1.401v12.68h-1.401v-6.22h-5.81v6.22H72.51v-12.68h1.401v5.212h5.81zM90.592 69.121l.752 1.23h-3.811v10.186h3.059l.752 1.265h-8.237l-.752-1.265h3.777V70.352h-3.025l-.752-1.23h8.237zM101.188 69.138l.752 1.23h-1.521v7.213q0 4.29-3.504 4.29-1.845 0-2.717-1.163-.872-1.162-.872-3.127h1.402q0 1.64.547 2.34.547.702 1.64.702 1.077 0 1.59-.701.512-.684.512-2.341v-7.212h-4.939l-.752-1.23h7.862zM111.185 69.121l-4.084 5.828 4.272 6.853h-1.52l-3.948-6.221h-1.846v6.22h-1.402v-12.68h1.402v5.212h1.846l3.76-5.212h1.52zM114.689 69.121v11.416h5.742l.735 1.265h-7.879v-12.68h1.402zM131.368 69.138v12.664h-1.401V71.548l-2.905 4.717-2.906-4.717v10.254h-1.4V69.138h1.4l2.906 4.785 2.905-4.785h1.401zM141.417 69.121v12.68h-1.401l-5.81-10.082v10.083h-1.402v-12.68h1.401l5.81 10.065V69.121h1.402zM147.16 69.001q1.179 0 2.067.582.855.546 1.402 1.52.461.752.7 2.085.137.787.171 2.29 0 1.573-.342 3.025-.358 1.419-1.418 2.41-1.042.991-2.58.991-1.573 0-2.615-.99-1.06-.992-1.419-2.41-.342-1.453-.342-3.025.035-1.504.171-2.29.24-1.334.701-2.085.547-.975 1.401-1.521.889-.582 2.102-.582zm0 1.197q-2.068 0-2.615 2.666-.274 1.299-.274 2.615.034 1.726.274 2.87.547 2.359 2.614 2.359 2.068 0 2.581-2.358.24-1.06.273-2.871 0-1.248-.273-2.615-.513-2.666-2.58-2.666zM159.926 72.437q0-.82-.479-1.453-.478-.632-1.248-.632h-3.725v4.306h3.725q.787 0 1.248-.666.479-.684.479-1.555zm-1.453-3.316q1.265 0 2.05.991.804 1.009.804 2.325 0 1.367-.803 2.426-.804 1.06-2.051 1.06h-4v5.879h-1.4v-12.68h5.4zM167.257 70.215q-.82 0-1.453.58-.564.514-.888 1.436-.325.906-.445 1.71-.12.768-.12 1.538 0 5.297 2.906 5.297.889 0 1.384-.495l-.786-1.145h-1.076l-.906-1.18h2.085l1.299 1.692q.427-.786.649-1.691.205-.855.205-2.478 0-1.06-.12-1.846-.12-.838-.41-1.658t-.871-1.282q-.616-.478-1.453-.478zm-1.931-.684q.837-.58 1.931-.58t1.931.58q.838.581 1.333 1.573.513 1.025.752 2.084.24 1.06.24 2.29 0 3.299-1.419 5.076h1.18l1.059 1.47h-2.342l-.53-.82q-.785.82-2.204.82-1.077 0-1.931-.598-.872-.598-1.367-1.555-.479-.923-.752-2.102-.257-1.128-.257-2.29 0-1.163.257-2.29.256-1.163.752-2.085.512-.975 1.367-1.573zM177.887 69.121q1.538 0 2.375.889.838.888.838 2.068 0 1.726-1.607 2.512v.222q1.009.376 1.556 1.316.546.94.546 2.153v3.52h-1.4v-3.52q0-1.094-.855-1.982-.855-.889-1.778-.889h-3.161v6.392h-1.402v-12.68h4.888zm1.811 2.957q0-.616-.53-1.18-.512-.546-1.213-.546h-3.554v3.828h3.589q.632 0 1.162-.616.512-.598.546-1.486zM190.91 69.121l.751 1.265h-4.665q-2.359 0-2.359 2.05 0 1.795 2.188 1.795h.957q3.708 0 3.88 3.76-.325 3.81-4.307 3.81h-4.324l.752-1.264h3.572q2.563 0 2.905-2.546 0-2.495-2.29-2.495h-1.077q-3.64 0-3.657-3.042 0-3.333 3.76-3.333h3.913zM196.669 70.369h-3.025l-.752-1.248h8.237l.752 1.248h-3.794v11.433h-1.418V70.369zM211.742 69.155v7.708q-.051 2.427-1.18 3.725-1.127 1.316-3.11 1.316-1.93 0-3.093-1.333-1.162-1.35-1.213-3.708v-7.708h1.401v7.708q.017 1.794.77 2.803.734.99 2.135.99 2.786 0 2.889-3.793v-7.708h1.4zM221.808 69.121l-4.324 12.937-4.324-12.937h1.402l2.922 8.87 2.922-8.87h1.402zM231.84 69.138l-.77 12.664h-2.05l-1.487-4.768-1.487 4.768h-2.05l-.77-12.664h1.402l.598 10.972 2.307-6.75 2.307 6.75.598-10.972h1.402zM237.599 73.89l2.871-4.769h1.418l-3.469 5.913 3.47 6.768h-1.419l-2.871-5.674-2.905 5.674h-1.402l3.452-6.768-3.452-5.913h1.402l2.905 4.768zM251.954 69.121l-3.606 6.648v6.033h-1.401v-6.033l-3.623-6.648h1.401l2.923 5.264 2.905-5.264h1.401zM261.251 69.121l.752 1.248-7.058 10.168h6.306l.752 1.265h-7.861l-.752-1.265 7.04-10.168h-6.288l-.752-1.248h7.861zM6.373 96.55q-2.136 0-2.136 3.196 0 1.436.479 2.188.495.786 1.657.786 1.197 0 1.76-.786.565-.787.565-2.188 0-1.401-.564-2.307-.564-.889-1.76-.889zm0-1.06q1.624 0 2.752 1.317 1.145 1.333 1.145 2.94 0 1.606-1.128 2.819-1.128 1.213-2.769 1.213-1.623 0-2.666-1.196-1.042-1.196-1.042-2.837 0-1.64 1.06-2.956 1.042-1.3 2.648-1.3zM16.525 90.876q1.179 0 2.068.582.854.546 1.4 1.52.462.752.702 2.085.136.787.17 2.29 0 1.573-.341 3.025-.36 1.419-1.419 2.41-1.042.991-2.58.991-1.573 0-2.615-.99-1.06-.992-1.419-2.41-.341-1.453-.341-3.025.034-1.504.17-2.29.24-1.334.701-2.085.547-.975 1.402-1.521.888-.582 2.102-.582zm0 1.197q-2.068 0-2.615 2.666-.274 1.299-.274 2.615.035 1.726.274 2.87.547 2.359 2.615 2.359t2.58-2.358q.24-1.06.274-2.871 0-1.248-.274-2.615-.512-2.666-2.58-2.666zM30.59 90.876l-1.06 2.051q1.162 1.931 1.162 4.375 0 1.624-.444 3.093-.445 1.453-1.402 2.41-.974.974-2.273.974-1.247 0-2.29-1.076l-.632.974h-1.384l1.196-2.051q-1.008-1.812-1.008-4.324 0-1.692.41-3.11.41-1.419 1.401-2.376.957-.94 2.307-.94 1.111 0 2.17 1.009l.48-1.009h1.367zm-4.017 1.265q-.751 0-1.315.462-.547.444-.838 1.23-.307.837-.427 1.64-.137.906-.137 1.83 0 1.725.427 2.887l3.743-7.075q-.58-.974-1.453-.974zm-1.606 9.331q.256.325.461.53.188.188.496.342.342.17.65.17.7 0 1.281-.478.53-.444.855-1.265.324-.854.444-1.64.137-.923.137-1.829 0-1.572-.547-2.973l-3.777 7.143zM33.905 100.156q0 1.043.82 1.71.82.666 1.897.666t1.897-.667q.804-.65.804-1.709 0-1.042-.804-1.743-.803-.7-1.897-.7-1.06 0-1.897.7-.82.684-.82 1.743zm1.06-7.4q-.684.633-.684 1.556 0 .922.684 1.538.683.615 1.657.615.94 0 1.64-.615.685-.616.685-1.538 0-.923-.684-1.556-.684-.632-1.64-.632-.975 0-1.658.632zm1.657-1.88q1.521 0 2.615.992 1.11 1.008 1.11 2.444 0 1.794-1.657 2.785 2.034 1.077 2.034 3.06 0 1.589-1.214 2.597-1.23 1.025-2.888 1.025-1.657 0-2.888-1.025-1.23-1.025-1.23-2.598 0-2.016 2.016-3.059-1.64-.974-1.64-2.785 0-1.436 1.11-2.444 1.094-.992 2.632-.992zM56.293 91.833q.376 0 .717.325.376.342.376.752t-.376.752q-.341.325-.717.325-.325 0-.735-.325-.376-.308-.376-.752t.376-.752q.41-.325.735-.325zm.974 3.76v6.665h1.47l-.65 1.419H55.9v-6.665h-1.111v-1.419h2.478zM70.494 90.996l.752 1.23h-3.81v10.186h3.058l.752 1.265H63.01l-.752-1.265h3.777V92.227h-3.025l-.752-1.23h8.237zM76.715 90.996l-.427.479v9.502q0 .564.137.888.12.274.376.479.239.188.632.188 1.11 0 1.11-.957v-1.162l1.402 1.418q-.17.65-.837 1.299-.65.65-1.743.65-1.248 0-1.76-.513-.274-.274-.445-.547-.154-.274-.24-.855-.102-.82-.102-2.187v-8.203l-.427-.479h2.324zM84.542 90.996v11.416h5.742l.735 1.265h-7.878v-12.68h1.401zM97.616 90.996v12.68h-1.401V93.97h-1.436l1.794-2.974h1.043zM115.988 97.32q.29.478.786 1.127.444.564.837 1.162.29.445.29.838l-.598 3.23q0 .017.12.239.359.667 1.299.667v1.589q-.632 0-1.265-.308-.65-.307-1.281-1.196-.24-.359-.342-.581l-.069-.222q.564-2.854.564-3.299 0-.478-.324-.922-.462-.633-.923-1.18-.615-.717-.889-1.145.222-.359.889-1.128.547-.649.923-1.162.341-.478.341-.94 0-.495-.58-3.298l.068-.222q.034-.137.342-.581.99-1.487 2.546-1.487v1.572q-.906 0-1.299.65-.12.222-.12.256l.599 3.23q0 .376-.29.82-.394.598-.838 1.162-.496.65-.786 1.128zM128.053 97.32q-.29-.48-.786-1.129-.444-.564-.838-1.162-.29-.427-.29-.82l.598-3.23q0-.034-.12-.256-.393-.65-1.298-.65v-1.572q1.555 0 2.546 1.487.308.444.342.58l.068.223q-.58 2.803-.58 3.298 0 .462.34.94.377.513.924 1.162.666.77.888 1.128-.273.428-.888 1.145-.462.547-.923 1.18-.325.444-.325.922 0 .445.564 3.299l-.068.222q-.103.222-.342.581-.632.889-1.282 1.196-.65.308-1.264.308v-1.59q.94 0 1.298-.666.12-.222.12-.24l-.598-3.23q0-.392.29-.837.394-.598.838-1.162.495-.65.786-1.128zM148.868 88.501v1.401h-2.016v14.868h2.016v1.402h-3.418V88.5h3.418zM155.465 88.501h3.418v17.67h-3.418v-1.4h2.017V89.901h-2.017v-1.401zM179.169 101.66l-.103.24q-.29.546-.769.854-.598.359-1.299.359-1.487 0-2.512-1.18-1.025-1.179-1.025-2.683 0-1.452 1.008-2.614.991-1.145 2.53-1.145.7 0 1.298.342.581.324.872 1.06v-1.3h1.811l-.41.462v9.502q0 .632-.957 1.23-.94.581-2.58.615-1.436 0-2.376-.683-.957-.7-1.196-1.35l1.401-1.162v1.162q.12.136.256.239.257.188.735.359.564.205 1.18.205 1.008-.034 1.572-.359.564-.325.564-.855v-3.298zm-2.17-4.939q-1.129 0-1.624.667-.513.7-.513 1.862 0 1.197.53 1.897.547.735 1.606.735 1.043 0 1.555-.598.513-.58.513-2 0-2.563-2.068-2.563zM190.055 94.807q0-1.11-.837-1.897-.82-.769-1.966-.769-1.076 0-1.846.786-.769.803-.769 1.88 0 1.145.752 1.914.77.803 1.863.803 1.162 0 1.966-.786.837-.803.837-1.93zm-2.803-3.93q1.658 0 2.888 1.179t1.316 2.751q0 1.897-.188 2.786-.188.94-1.06 2.58-.768 1.47-2.187 2.547-1.384 1.06-2.58 1.06-.94-.018-.94-.428 0-.205.307-.359.308-.154.513-.154.889-.085 1.897-.871 1.008-.803 1.726-1.948.735-1.18.837-2.222-.068.068-.17.154l-.069.068q-.034.017-.051.051l-.034.035q-.017.017-.035.017-.05.017-.205.153-.102.086-.273.171-.034.017-.308.12-.29.103-.376.12-.017 0-.188.034-.153.017-.256.034-.17.017-.564.017-1.811 0-2.854-1.213-1.06-1.248-1.162-2.752 0-1.555 1.196-2.751 1.18-1.18 2.82-1.18zM200.992 95.593l-.393.393v7.845q0 2.307.872 2.324.906 0 .906-1.47l1.384.735q-.17.615-.803 1.299-.633.683-1.573.683-2.187-.034-2.187-3.571v-1.419q-.29.7-.923 1.025-.683.342-1.401.342-1.47 0-2.393-1.299-.923-1.298-.923-2.802 0-.991.376-1.914.376-.923 1.162-1.607.77-.666 1.778-.666 1.811 0 2.324 1.316v-1.214h1.794zm-4.016 1.145q-1.11 0-1.538.855-.444.888-.444 2.085 0 1.179.444 2.016.445.838 1.538.838 1.077 0 1.64-.872.548-.837.548-1.982 0-1.162-.547-2.034-.564-.906-1.64-.906zM210.905 90.996l.751 1.23h-3.845q-1.145 0-2.17 1.402-1.026 1.401-1.026 3.11 0 2.154 1.145 3.93 1.128 1.744 2.581 1.744h2.564l.751 1.265h-3.093q-2.341 0-3.845-1.966-1.504-1.965-1.504-4.973 0-1.316.581-2.632.581-1.298 1.624-2.221 1.008-.889 2.17-.889h3.316zM220.988 90.996l.752 1.23h-4.136q-.838.052-1.453.513-.58.445-.94 1.23-.29.65-.461 1.539-.154.786-.154 1.692 0 .974.17 1.811.189.889.53 1.658.36.786.992 1.265.632.478 1.504.478h2.614l-.563-5.076h-2.17l-.53-1.281h3.879l.786 6.357v1.265h-4.016q-1.487 0-2.547-.991-1.076-.992-1.555-2.427-.495-1.453-.495-3.06 0-1.537.444-2.922.444-1.367 1.453-2.324 1.008-.957 2.41-.957h3.486zM227.55 92.09q-.82 0-1.453.58-.564.514-.888 1.436-.325.906-.445 1.71-.12.768-.12 1.538 0 5.297 2.906 5.297.889 0 1.384-.495l-.786-1.145h-1.076l-.906-1.18h2.085l1.299 1.692q.427-.786.649-1.691.205-.855.205-2.478 0-1.06-.12-1.846-.12-.838-.41-1.658t-.871-1.282q-.616-.478-1.453-.478zm-1.931-.684q.837-.58 1.931-.58t1.931.58q.838.581 1.333 1.573.513 1.025.752 2.084.24 1.06.24 2.29 0 3.299-1.419 5.076h1.18l1.059 1.47h-2.342l-.53-.82q-.785.82-2.204.82-1.077 0-1.931-.598-.872-.598-1.367-1.555-.479-.923-.752-2.102-.257-1.128-.257-2.29 0-1.163.257-2.29.256-1.163.752-2.085.512-.975 1.367-1.573zM251.237 96.43q.53 0 .53.633 0 .427-.77 1.025-.752.581-1.487.581-.427 0-1.948-.837-1.52-.837-1.794-.837-.274.034-.7.256-.428.222-.753.496l-.307.256q-.479 0-.479-.632 0-.445.752-1.026.752-.58 1.487-.58.359 0 1.931.837 1.538.82 1.811.82.24 0 .684-.24.376-.239.735-.512l.308-.24zM261.115 96.892q.256 0 .375.188.137.222.137.513 0 .29-.137.512-.12.188-.375.188h-6.888q-.461 0-.461-.7t.461-.7h6.888zM267.045 94.124q0-.479.7-.479.701 0 .701.479v2.768h2.717q.257 0 .376.188.137.222.137.513 0 .29-.137.512-.12.188-.376.188h-2.717v2.7q0 .24-.205.394-.188.136-.496.136-.307 0-.495-.136-.205-.154-.205-.393v-2.7h-2.769q-.461 0-.461-.701 0-.7.461-.7h2.769v-2.77zM281.212 98.806q.257 0 .376.188.137.222.137.513 0 .29-.137.513-.12.188-.376.188h-6.887q-.461 0-.461-.701 0-.7.461-.7h6.887zm0-3.845q.257 0 .376.205.137.222.137.496 0 .273-.137.495-.12.205-.376.205h-6.887q-.461 0-.461-.7 0-.701.461-.701h6.887zM283.998 88.501l7.366 8.835-7.366 8.836v-2.256l5.383-6.58-5.383-6.58v-2.255z"/></g></g></svg>