<?xml version="1.0" encoding="UTF-8" standalone="no"?>
<svg
   version="1.1"
   id="svg2"
   viewBox="0 0 368.60964 107.96998"
   height="30.471529mm"
   width="104.02983mm"
   sodipodi:docname="DaddyTimeMono Nerd Font.svg"
   xmlns:inkscape="http://www.inkscape.org/namespaces/inkscape"
   xmlns:sodipodi="http://sodipodi.sourceforge.net/DTD/sodipodi-0.dtd"
   xmlns="http://www.w3.org/2000/svg"
   xmlns:svg="http://www.w3.org/2000/svg"
   xmlns:rdf="http://www.w3.org/1999/02/22-rdf-syntax-ns#"
   xmlns:cc="http://creativecommons.org/ns#"
   xmlns:dc="http://purl.org/dc/elements/1.1/">
  <sodipodi:namedview
     id="namedview12"
     pagecolor="#ffffff"
     bordercolor="#666666"
     borderopacity="1.0"
     inkscape:showpageshadow="2"
     inkscape:pageopacity="0.0"
     inkscape:pagecheckerboard="0"
     inkscape:deskcolor="#d1d1d1"
     inkscape:document-units="mm" />
  <defs
     id="defs4" />
  <metadata
     id="metadata7">
    <rdf:RDF>
      <cc:Work
         rdf:about="">
        <dc:format>image/svg+xml</dc:format>
        <dc:type
           rdf:resource="http://purl.org/dc/dcmitype/StillImage" />
        <dc:title />
      </cc:Work>
    </rdf:RDF>
  </metadata>
  <g
     id="layer1"
     transform="translate(-64.012143,-80.528632)">
    <g
       aria-label="DaddyTimeMono Nerd Font"
       id="text4136"
       style="font-size:27.5px;font-family:'DaddyTimeMono Nerd Font';letter-spacing:0px;word-spacing:0px;fill:#ffffff">
      <path
         d="M 72.179643,80.528632 Q 73.142143,80.528632 74.434643,81.848632 75.727143,83.168632 76.579643,84.901132 77.899643,87.513632 77.899643,91.226132 77.899643,94.663632 76.304643,97.331132 75.507143,98.733632 74.187143,99.806132 72.812143,100.93363 72.179643,100.93363 H 64.012143 V 80.528632 Z M 75.644643,91.226132 Q 75.644643,88.228632 74.572143,86.111132 73.857143,84.708632 72.867143,83.608632 71.932143,82.508632 71.134643,82.508632 H 66.267143 V 98.898632 H 71.134643 Q 71.657143,98.898632 72.674643,97.908632 73.527143,97.083632 74.379643,95.791132 75.644643,93.701132 75.644643,91.226132 Z"
         id="path14" />
      <path
         d="M 92.667126,87.926132 91.952126,88.668632 V 96.753632 Q 91.952126,98.761132 93.134626,99.201132 H 94.564626 L 92.942126,101.15363 Q 90.494626,100.82363 90.494626,97.386132 89.422126,101.09863 86.864626,101.09863 84.169626,101.09863 82.409626,99.091132 80.484626,96.918632 80.484626,94.306132 80.484626,91.968632 82.107126,89.851132 83.702126,87.761132 86.067126,87.761132 86.947126,87.761132 88.157126,88.393632 89.257126,88.971132 89.697126,89.356132 V 87.926132 Z M 85.984626,89.658632 Q 85.214626,89.658632 84.279626,90.346132 83.647126,90.813632 83.262126,91.721132 82.739626,92.931132 82.739626,94.691132 82.739626,96.643632 83.894626,98.128632 84.692126,99.091132 86.562126,99.091132 88.267126,99.091132 89.532126,95.543632 89.944626,94.333632 89.944626,92.793632 89.944626,91.721132 89.119626,90.978632 88.294626,90.236132 87.607126,89.933632 86.974626,89.658632 85.984626,89.658632 Z"
         id="path16" />
      <path
         d="M 109.16711,80.528632 108.47961,81.216132 V 97.028632 Q 108.56211,98.596132 109.38711,99.448632 H 110.65211 L 108.89211,101.15363 Q 107.43461,100.82363 107.37961,98.788632 105.89461,101.09863 103.91461,101.09863 101.24711,101.09863 98.992109,99.063632 96.709609,97.001132 96.709609,94.306132 96.709609,91.226132 98.112109,89.493632 99.514609,87.761132 102.01711,87.761132 102.64961,87.761132 104.29961,88.421132 105.94961,89.081132 106.22461,89.356132 V 80.528632 Z M 101.49461,89.741132 Q 98.937109,89.741132 98.937109,94.498632 98.937109,96.231132 100.53211,97.661132 102.12711,99.091132 104.10711,99.091132 104.57461,99.091132 105.04211,98.788632 105.42711,98.513632 105.70211,97.936132 105.94961,97.331132 106.05961,96.808632 106.19711,96.176132 106.25211,95.433632 106.25211,95.103632 106.25211,94.801132 106.27961,94.471132 106.27961,94.306132 106.30711,94.141132 106.30711,94.086132 V 93.536132 Q 106.33461,93.233632 106.33461,92.793632 106.33461,91.803632 105.37211,91.088632 104.38211,90.346132 103.28211,90.043632 102.07211,89.741132 101.49461,89.741132 Z"
         id="path18" />
      <path
         d="M 125.33709,80.528632 124.64959,81.216132 V 97.028632 Q 124.73209,98.596132 125.55709,99.448632 H 126.82209 L 125.06209,101.15363 Q 123.60459,100.82363 123.54959,98.788632 122.06459,101.09863 120.08459,101.09863 117.41709,101.09863 115.16209,99.063632 112.87959,97.001132 112.87959,94.306132 112.87959,91.226132 114.28209,89.493632 115.68459,87.761132 118.18709,87.761132 118.81959,87.761132 120.46959,88.421132 122.11959,89.081132 122.39459,89.356132 V 80.528632 Z M 117.66459,89.741132 Q 115.10709,89.741132 115.10709,94.498632 115.10709,96.231132 116.70209,97.661132 118.29709,99.091132 120.27709,99.091132 120.74459,99.091132 121.21209,98.788632 121.59709,98.513632 121.87209,97.936132 122.11959,97.331132 122.22959,96.808632 122.36709,96.176132 122.42209,95.433632 122.42209,95.103632 122.42209,94.801132 122.44959,94.471132 122.44959,94.306132 122.47709,94.141132 122.47709,94.086132 V 93.536132 Q 122.50459,93.233632 122.50459,92.793632 122.50459,91.803632 121.54209,91.088632 120.55209,90.346132 119.45209,90.043632 118.24209,89.741132 117.66459,89.741132 Z"
         id="path20" />
      <path
         d="M 141.80958,87.926132 141.17708,88.778632 V 100.65863 Q 141.17708,103.62863 139.69208,105.11363 138.23458,106.57113 135.45708,106.57113 133.53208,106.54363 131.99208,105.49863 130.45208,104.45363 130.36958,102.55613 L 132.10208,101.56613 Q 132.10208,104.56363 135.45708,104.56363 137.35458,104.56363 138.17958,103.54613 139.00458,102.52863 139.00458,100.38363 V 97.908632 Q 138.67458,98.843632 137.60208,99.338632 136.52958,99.806132 135.45708,99.806132 132.73458,99.806132 131.38708,97.963632 130.06708,96.148632 130.06708,93.453632 V 88.778632 L 129.43458,87.926132 H 133.06458 L 132.32208,88.778632 V 93.453632 Q 132.32208,95.736132 133.09208,96.753632 133.88958,97.798632 135.45708,97.798632 138.92208,97.798632 138.92208,93.453632 V 88.778632 L 138.28958,87.926132 Z"
         id="path22" />
      <path
         d="M 150.63706,82.536132 H 145.76956 L 144.55956,80.528632 H 157.81456 L 159.02456,82.536132 H 152.91956 V 100.93363 H 150.63706 Z"
         id="path24" />
      <path
         d="M 167.30204,81.876132 Q 167.93454,81.876132 168.45704,82.398632 169.06204,82.921132 169.06204,83.608632 169.06204,84.296132 168.45704,84.818632 167.93454,85.341132 167.30204,85.341132 166.75204,85.341132 166.11954,84.818632 165.51454,84.323632 165.51454,83.608632 165.51454,82.893632 166.11954,82.398632 166.75204,81.876132 167.30204,81.876132 Z M 168.86954,87.926132 V 98.651132 H 171.23454 L 170.18954,100.93363 H 166.66954 V 90.208632 H 164.88204 V 87.926132 Z"
         id="path26" />
      <path
         d="M 179.40202,87.926132 V 89.053632 Q 179.62202,88.586132 180.30952,88.173632 180.99702,87.761132 181.46452,87.761132 182.34452,87.816132 182.92202,88.228632 183.55452,88.641132 184.21452,89.521132 185.56202,87.788632 187.10202,87.761132 188.36702,87.761132 189.30202,88.531132 190.29202,89.301132 190.62202,90.483632 190.95202,91.776132 191.06202,92.601132 191.19952,93.756132 191.19952,94.333632 V 100.10863 L 191.88702,100.93363 H 188.31202 L 188.94452,100.10863 V 94.333632 Q 188.94452,89.741132 187.10202,89.741132 185.36952,89.741132 185.36952,94.333632 V 100.10863 L 185.94702,100.93363 H 182.39952 L 183.11452,100.10863 V 94.333632 Q 183.11452,89.741132 181.40952,89.741132 179.40202,89.741132 179.40202,94.333632 V 100.10863 L 180.03452,100.93363 H 176.45952 L 177.14702,100.10863 V 88.613632 L 176.43202,87.926132 Z"
         id="path28" />
      <path
         d="M 200.32951,87.761132 Q 201.34701,87.761132 202.28201,88.091132 203.21701,88.421132 203.84951,88.916132 204.56451,89.493632 204.97701,89.988632 205.41701,90.456132 205.74701,91.308632 206.02201,91.941132 206.02201,92.408632 L 197.05701,97.468632 Q 197.16701,97.963632 197.99201,98.651132 198.23951,98.871132 198.95451,99.173632 199.53201,99.393632 200.32951,99.393632 201.81451,99.393632 202.94201,98.678632 204.06951,97.963632 204.06951,97.248632 L 206.98451,96.396132 Q 206.26951,98.211132 204.53701,99.668632 202.85951,101.09863 200.32951,101.09863 197.60701,101.09863 195.90201,99.228632 194.19701,97.358632 194.19701,94.443632 194.19701,91.473632 195.90201,89.631132 197.63451,87.761132 200.32951,87.761132 Z M 203.43701,91.308632 203.38201,91.088632 Q 203.35451,90.923632 203.16201,90.648632 203.05201,90.456132 202.63951,90.098632 202.28201,89.851132 201.73201,89.658632 201.18201,89.466132 200.32951,89.466132 198.78951,89.466132 197.93701,90.318632 197.02951,91.143632 196.72701,92.216132 196.45201,93.151132 196.45201,94.443632 196.45201,94.911132 196.50701,95.846132 Z"
         id="path30" />
      <path
         d="M 223.42949,80.556132 V 100.93363 H 221.17449 V 84.433632 L 216.49949,92.023632 211.82449,84.433632 V 100.93363 H 209.56949 V 80.556132 H 211.82449 L 216.49949,88.256132 221.17449,80.556132 Z"
         id="path32" />
      <path
         d="M 232.50447,89.466132 Q 229.06697,89.466132 229.06697,94.608632 229.06697,96.946132 229.83697,98.128632 230.60697,99.393632 232.50447,99.393632 234.42947,99.393632 235.33697,98.128632 236.24447,96.863632 236.24447,94.608632 236.24447,92.353632 235.33697,90.896132 234.42947,89.466132 232.50447,89.466132 Z M 232.50447,87.761132 Q 235.11697,87.761132 236.93197,89.878632 238.77447,91.996132 238.77447,94.608632 238.77447,97.193632 236.95947,99.146132 235.14447,101.09863 232.50447,101.09863 229.89197,101.09863 228.21447,99.173632 226.53697,97.248632 226.53697,94.608632 226.53697,91.968632 228.24197,89.851132 229.91947,87.761132 232.50447,87.761132 Z"
         id="path34" />
      <path
         d="M 249.14196,87.761132 Q 251.01196,87.761132 252.27696,88.778632 253.54196,89.823632 254.09196,91.253632 254.64196,92.821132 254.64196,94.553632 V 100.10863 L 255.30196,100.93363 H 251.69946 L 252.38696,100.10863 V 94.553632 Q 252.38696,92.243632 251.56196,90.923632 250.76446,89.631132 249.14196,89.631132 247.27196,89.631132 246.55696,90.868632 245.84196,92.161132 245.84196,94.553632 V 100.10863 L 246.50196,100.93363 H 243.00946 L 243.58696,100.10863 V 88.613632 L 242.89946,87.926132 H 245.81446 V 89.383632 Q 247.29946,87.761132 249.14196,87.761132 Z"
         id="path36" />
      <path
         d="M 264.84444,89.466132 Q 261.40694,89.466132 261.40694,94.608632 261.40694,96.946132 262.17694,98.128632 262.94694,99.393632 264.84444,99.393632 266.76944,99.393632 267.67694,98.128632 268.58444,96.863632 268.58444,94.608632 268.58444,92.353632 267.67694,90.896132 266.76944,89.466132 264.84444,89.466132 Z M 264.84444,87.761132 Q 267.45694,87.761132 269.27194,89.878632 271.11444,91.996132 271.11444,94.608632 271.11444,97.193632 269.29944,99.146132 267.48444,101.09863 264.84444,101.09863 262.23194,101.09863 260.55444,99.173632 258.87694,97.248632 258.87694,94.608632 258.87694,91.968632 260.58194,89.851132 262.25944,87.761132 264.84444,87.761132 Z"
         id="path38" />
      <path
         d="M 304.2794,80.528632 V 100.93363 H 302.0244 L 292.6744,84.708632 V 100.93363 H 290.4194 V 80.528632 H 292.6744 L 302.0244,96.726132 V 80.528632 Z"
         id="path40" />
      <path
         d="M 313.51939,87.761132 Q 314.53689,87.761132 315.47189,88.091132 316.40689,88.421132 317.03939,88.916132 317.75439,89.493632 318.16689,89.988632 318.60689,90.456132 318.93689,91.308632 319.21189,91.941132 319.21189,92.408632 L 310.24689,97.468632 Q 310.35689,97.963632 311.18189,98.651132 311.42939,98.871132 312.14439,99.173632 312.72189,99.393632 313.51939,99.393632 315.00439,99.393632 316.13189,98.678632 317.25939,97.963632 317.25939,97.248632 L 320.17439,96.396132 Q 319.45939,98.211132 317.72689,99.668632 316.04939,101.09863 313.51939,101.09863 310.79689,101.09863 309.09189,99.228632 307.38689,97.358632 307.38689,94.443632 307.38689,91.473632 309.09189,89.631132 310.82439,87.761132 313.51939,87.761132 Z M 316.62689,91.308632 316.57189,91.088632 Q 316.54439,90.923632 316.35189,90.648632 316.24189,90.456132 315.82939,90.098632 315.47189,89.851132 314.92189,89.658632 314.37189,89.466132 313.51939,89.466132 311.97939,89.466132 311.12689,90.318632 310.21939,91.143632 309.91689,92.216132 309.64189,93.151132 309.64189,94.443632 309.64189,94.911132 309.69689,95.846132 Z"
         id="path42" />
      <path
         d="M 330.26687,87.761132 Q 332.74187,87.788632 334.17187,89.273632 335.60187,90.731132 335.62937,92.161132 335.62937,92.738632 334.99687,93.123632 334.33687,93.536132 333.40187,93.536132 333.07187,93.536132 332.90687,93.288632 332.74187,93.041132 332.74187,92.876132 332.74187,92.628632 333.07187,92.353632 333.37437,92.051132 333.37437,91.858632 333.37437,90.758632 332.46687,90.263632 331.53187,89.741132 330.26687,89.741132 329.22187,89.741132 328.34187,90.373632 327.54437,90.951132 327.13187,91.886132 326.74687,92.903632 326.58187,93.591132 326.38937,94.443632 326.38937,95.021132 V 100.05363 L 327.07687,100.93363 H 323.52937 L 324.13437,100.05363 V 88.558632 Q 323.47437,88.008632 323.47437,87.926132 H 326.38937 V 89.961132 Q 326.69187,89.191132 327.95687,88.503632 329.27687,87.761132 330.26687,87.761132 Z"
         id="path44" />
      <path
         d="M 351.71685,80.528632 351.02935,81.216132 V 97.028632 Q 351.11185,98.596132 351.93685,99.448632 H 353.20185 L 351.44185,101.15363 Q 349.98435,100.82363 349.92935,98.788632 348.44435,101.09863 346.46435,101.09863 343.79685,101.09863 341.54185,99.063632 339.25935,97.001132 339.25935,94.306132 339.25935,91.226132 340.66185,89.493632 342.06435,87.761132 344.56685,87.761132 345.19935,87.761132 346.84935,88.421132 348.49935,89.081132 348.77435,89.356132 V 80.528632 Z M 344.04435,89.741132 Q 341.48685,89.741132 341.48685,94.498632 341.48685,96.231132 343.08185,97.661132 344.67685,99.091132 346.65685,99.091132 347.12435,99.091132 347.59185,98.788632 347.97685,98.513632 348.25185,97.936132 348.49935,97.331132 348.60935,96.808632 348.74685,96.176132 348.80185,95.433632 348.80185,95.103632 348.80185,94.801132 348.82935,94.471132 348.82935,94.306132 348.85685,94.141132 348.85685,94.086132 V 93.536132 Q 348.88435,93.233632 348.88435,92.793632 348.88435,91.803632 347.92185,91.088632 346.93185,90.346132 345.83185,90.043632 344.62185,89.741132 344.04435,89.741132 Z"
         id="path46" />
      <path
         d="M 383.91932,80.528632 385.12932,82.508632 H 373.52432 V 88.668632 H 380.42682 L 381.63682,90.648632 H 373.52432 V 100.93363 H 371.26932 V 80.528632 Z"
         id="path48" />
      <path
         d="M 394.2043,89.466132 Q 390.7668,89.466132 390.7668,94.608632 390.7668,96.946132 391.5368,98.128632 392.3068,99.393632 394.2043,99.393632 396.1293,99.393632 397.0368,98.128632 397.9443,96.863632 397.9443,94.608632 397.9443,92.353632 397.0368,90.896132 396.1293,89.466132 394.2043,89.466132 Z M 394.2043,87.761132 Q 396.8168,87.761132 398.6318,89.878632 400.4743,91.996132 400.4743,94.608632 400.4743,97.193632 398.6593,99.146132 396.8443,101.09863 394.2043,101.09863 391.5918,101.09863 389.9143,99.173632 388.2368,97.248632 388.2368,94.608632 388.2368,91.968632 389.9418,89.851132 391.6193,87.761132 394.2043,87.761132 Z"
         id="path50" />
      <path
         d="M 410.84178,87.761132 Q 412.71178,87.761132 413.97678,88.778632 415.24178,89.823632 415.79178,91.253632 416.34178,92.821132 416.34178,94.553632 V 100.10863 L 417.00178,100.93363 H 413.39928 L 414.08678,100.10863 V 94.553632 Q 414.08678,92.243632 413.26178,90.923632 412.46428,89.631132 410.84178,89.631132 408.97178,89.631132 408.25678,90.868632 407.54178,92.161132 407.54178,94.553632 V 100.10863 L 408.20178,100.93363 H 404.70928 L 405.28678,100.10863 V 88.613632 L 404.59928,87.926132 H 407.51428 V 89.383632 Q 408.99928,87.761132 410.84178,87.761132 Z"
         id="path52" />
      <path
         d="M 427.12177,80.528632 426.51677,81.326132 V 88.201132 H 432.62177 L 431.57677,90.208632 H 426.51677 V 96.423632 97.303632 Q 426.51677,97.688632 426.62677,98.018632 426.76427,98.431132 426.90177,98.596132 427.01177,98.733632 427.45177,98.953632 427.78177,99.091132 428.33177,99.091132 428.93677,99.091132 429.43177,98.596132 429.92677,98.101132 430.14677,97.606132 L 430.33927,97.111132 V 95.213632 L 432.37427,97.248632 Q 432.20927,97.853632 431.71427,98.678632 431.13677,99.613632 430.25677,100.30113 429.21177,101.09863 428.19427,101.09863 426.68177,101.09863 425.47177,100.16363 424.26177,99.256132 424.26177,97.661132 V 90.208632 H 420.74177 V 88.201132 H 424.26177 V 81.326132 L 423.49177,80.528632 Z"
         id="path54" />
    </g>
    <g
       aria-label="abcdefghijklmnopqrstuvwxyzABCDEFGHIJKLMNOPQRSTUVWXYZ oO08 iIlL1 {} [] g9qCGQ ~-+=&gt;"
       id="text4140"
       style="font-size:17.5px;font-family:'DaddyTimeMono Nerd Font';letter-spacing:0px;word-spacing:0px;fill:#ffffff">
      <path
         d="M 74.099403,132.65612 73.644403,133.12862 V 138.27362 Q 73.644403,139.55112 74.396903,139.83112 H 75.306903 L 74.274403,141.07362 Q 72.716903,140.86362 72.716903,138.67612 72.034403,141.03862 70.406903,141.03862 68.691903,141.03862 67.571903,139.76112 66.346903,138.37862 66.346903,136.71612 66.346903,135.22862 67.379403,133.88112 68.394403,132.55112 69.899403,132.55112 70.459403,132.55112 71.229403,132.95362 71.929403,133.32112 72.209403,133.56612 V 132.65612 Z M 69.846903,133.75862 Q 69.356903,133.75862 68.761903,134.19612 68.359403,134.49362 68.114403,135.07112 67.781903,135.84112 67.781903,136.96112 67.781903,138.20362 68.516903,139.14862 69.024403,139.76112 70.214403,139.76112 71.299403,139.76112 72.104403,137.50362 72.366903,136.73362 72.366903,135.75362 72.366903,135.07112 71.841903,134.59862 71.316903,134.12612 70.879403,133.93362 70.476903,133.75862 69.846903,133.75862 Z"
         id="path57" />
      <path
         d="M 77.109392,127.94862 H 78.981892 V 133.56612 Q 79.156892,133.39112 80.206892,132.97112 81.256892,132.55112 81.659392,132.55112 83.251892,132.55112 84.144392,133.65362 85.036892,134.75612 85.036892,136.71612 85.036892,138.43112 83.584392,139.74362 82.149392,141.03862 80.451892,141.03862 79.191892,141.03862 78.246892,139.56862 78.211892,140.86362 77.284392,141.07362 L 76.164392,139.98862 H 76.969392 Q 77.494392,139.44612 77.546892,138.44862 V 128.38612 Z M 81.991892,133.81112 Q 81.624392,133.81112 80.854392,134.00362 80.154392,134.19612 79.524392,134.66862 78.911892,135.12362 78.911892,135.75362 78.911892,136.03362 78.929392,136.22612 V 136.57612 Q 78.929392,136.61112 78.929392,136.71612 78.946892,136.82112 78.946892,137.03112 78.964392,137.22362 78.964392,137.43362 78.999392,137.90612 79.086892,138.30862 79.156892,138.64112 79.314392,139.02612 79.489392,139.39362 79.734392,139.56862 80.031892,139.76112 80.329392,139.76112 81.589392,139.76112 82.604392,138.85112 83.619392,137.94112 83.619392,136.83862 83.619392,133.81112 81.991892,133.81112 Z"
         id="path59" />
      <path
         d="M 91.19688,132.55112 Q 92.36938,132.55112 93.55938,133.40862 94.74938,134.24862 94.74938,134.89612 L 93.22688,136.33112 V 135.14112 Q 93.03438,134.63362 92.40438,134.21362 91.79188,133.81112 91.19688,133.81112 90.00688,133.81112 89.34188,134.63362 88.69438,135.43862 88.69438,136.68112 88.69438,138.01112 89.28938,138.86862 89.90188,139.76112 91.19688,139.76112 91.98438,139.76112 92.63188,139.28862 93.27938,138.81612 93.57688,138.15112 H 95.20438 Q 94.81938,139.21862 93.66438,140.12862 92.52688,141.03862 91.16188,141.03862 89.46438,141.03862 88.36188,139.77862 87.25938,138.51862 87.25938,136.68112 87.25938,134.80862 88.37938,133.68862 89.51688,132.55112 91.19688,132.55112 Z"
         id="path61" />
      <path
         d="M 105.17937,127.94862 104.74187,128.38612 V 138.44862 Q 104.79437,139.44612 105.31937,139.98862 H 106.12437 L 105.00437,141.07362 Q 104.07687,140.86362 104.04187,139.56862 103.09687,141.03862 101.83687,141.03862 100.13937,141.03862 98.704368,139.74362 97.251868,138.43112 97.251868,136.71612 97.251868,134.75612 98.144368,133.65362 99.036868,132.55112 100.62937,132.55112 101.03187,132.55112 102.08187,132.97112 103.13187,133.39112 103.30687,133.56612 V 127.94862 Z M 100.29687,133.81112 Q 98.669368,133.81112 98.669368,136.83862 98.669368,137.94112 99.684368,138.85112 100.69937,139.76112 101.95937,139.76112 102.25687,139.76112 102.55437,139.56862 102.79937,139.39362 102.97437,139.02612 103.13187,138.64112 103.20187,138.30862 103.28937,137.90612 103.32437,137.43362 103.32437,137.22362 103.32437,137.03112 103.34187,136.82112 103.34187,136.71612 103.35937,136.61112 103.35937,136.57612 V 136.22612 Q 103.37687,136.03362 103.37687,135.75362 103.37687,135.12362 102.76437,134.66862 102.13437,134.19612 101.43437,134.00362 100.66437,133.81112 100.29687,133.81112 Z"
         id="path63" />
      <path
         d="M 111.74186,132.55112 Q 112.38936,132.55112 112.98436,132.76112 113.57936,132.97112 113.98186,133.28612 114.43686,133.65362 114.69936,133.96862 114.97936,134.26612 115.18936,134.80862 115.36436,135.21112 115.36436,135.50862 L 109.65936,138.72862 Q 109.72936,139.04362 110.25436,139.48112 110.41186,139.62112 110.86686,139.81362 111.23436,139.95362 111.74186,139.95362 112.68686,139.95362 113.40436,139.49862 114.12186,139.04362 114.12186,138.58862 L 115.97686,138.04612 Q 115.52186,139.20112 114.41936,140.12862 113.35186,141.03862 111.74186,141.03862 110.00936,141.03862 108.92436,139.84862 107.83936,138.65862 107.83936,136.80362 107.83936,134.91362 108.92436,133.74112 110.02686,132.55112 111.74186,132.55112 Z M 113.71936,134.80862 113.68436,134.66862 Q 113.66686,134.56362 113.54436,134.38862 113.47436,134.26612 113.21186,134.03862 112.98436,133.88112 112.63436,133.75862 112.28436,133.63612 111.74186,133.63612 110.76186,133.63612 110.21936,134.17862 109.64186,134.70362 109.44936,135.38612 109.27436,135.98112 109.27436,136.80362 109.27436,137.10112 109.30936,137.69612 Z"
         id="path65" />
      <path
         d="M 123.46685,127.89612 Q 124.07935,127.89612 124.56935,128.15862 125.05935,128.42112 125.37435,128.78862 125.58435,129.05112 125.84685,129.48862 126.02185,129.78612 126.09185,130.08362 L 124.65685,131.27362 V 130.41612 Q 124.65685,129.15612 123.46685,129.15612 122.20685,129.15612 122.20685,130.41612 V 132.83112 H 125.60185 L 124.93685,134.10862 H 122.20685 V 140.33862 L 122.71435,140.93362 H 120.26435 L 120.77185,140.33862 V 134.10862 H 118.32185 V 132.83112 H 120.77185 V 130.06612 Q 120.77185,129.20862 121.48935,128.54362 122.18935,127.89612 123.46685,127.89612 Z"
         id="path67" />
      <path
         d="M 134.22933,138.86862 134.12433,139.11362 Q 133.82683,139.67362 133.33683,139.98862 132.72433,140.35612 132.00683,140.35612 130.48433,140.35612 129.43433,139.14862 128.38433,137.94112 128.38433,136.40112 128.38433,134.91362 129.41683,133.72362 130.43183,132.55112 132.00683,132.55112 132.72433,132.55112 133.33683,132.90112 133.94933,133.25112 134.22933,133.98612 V 132.65612 H 136.08433 L 135.66433,133.12862 V 142.85862 Q 135.66433,143.50612 134.68433,144.11862 133.70433,144.73112 132.04183,144.74862 130.57183,144.74862 129.60933,144.04862 128.62933,143.33112 128.38433,142.66612 L 129.81933,141.47612 V 142.66612 Q 129.99433,142.84112 130.08183,142.91112 130.36183,143.10362 130.83433,143.27862 131.41183,143.48862 132.04183,143.48862 133.07433,143.45362 133.65183,143.12112 134.22933,142.78862 134.22933,142.24612 Z M 132.00683,133.81112 Q 130.85183,133.81112 130.34433,134.49362 129.81933,135.21112 129.81933,136.40112 129.81933,137.64362 130.36183,138.34362 130.90433,139.09612 132.00683,139.09612 133.07433,139.09612 133.59933,138.48362 134.12433,137.88862 134.12433,136.43612 134.12433,133.81112 132.00683,133.81112 Z"
         id="path69" />
      <path
         d="M 140.45933,127.94862 V 133.70612 Q 140.91433,133.19862 141.57933,132.88362 142.26183,132.55112 142.83933,132.55112 144.50183,132.55112 145.35933,133.72362 146.21683,134.89612 146.23433,136.52362 V 140.40862 L 146.61933,140.93362 H 144.32683 L 144.79933,140.40862 V 136.52362 Q 144.79933,133.81112 142.83933,133.81112 141.91183,133.81112 141.19433,134.49362 140.49433,135.17612 140.49433,136.47112 V 140.40862 L 140.87933,140.93362 H 138.62183 L 139.02433,140.40862 V 128.33362 L 138.58683,127.94862 Z"
         id="path71" />
      <path
         d="M 152.46431,128.80612 Q 152.86681,128.80612 153.19931,129.13862 153.58431,129.47112 153.58431,129.90862 153.58431,130.34612 153.19931,130.67862 152.86681,131.01112 152.46431,131.01112 152.11431,131.01112 151.71181,130.67862 151.32681,130.36362 151.32681,129.90862 151.32681,129.45362 151.71181,129.13862 152.11431,128.80612 152.46431,128.80612 Z M 153.46181,132.65612 V 139.48112 H 154.96681 L 154.30181,140.93362 H 152.06181 V 134.10862 H 150.92431 V 132.65612 Z"
         id="path73" />
      <path
         d="M 166.1493,128.73612 Q 166.6918,128.73612 167.0243,129.06862 167.4093,129.40112 167.4093,129.89112 167.4093,130.38112 167.0243,130.71362 166.6918,131.04612 166.1493,131.04612 165.6243,131.04612 165.2393,130.71362 164.8718,130.39862 164.8718,129.89112 164.8718,129.38362 165.2393,129.06862 165.6243,128.73612 166.1493,128.73612 Z M 159.4293,140.32112 Q 159.4293,139.86612 159.6918,139.44612 159.9543,139.02612 160.4793,139.02612 160.7768,139.02612 161.1793,139.20112 161.6168,139.37612 161.6168,139.56862 161.6168,139.76112 161.2493,139.97112 160.8643,140.19862 160.8643,140.49612 160.8643,141.75612 161.4943,142.43862 162.1593,143.12112 163.1568,143.12112 163.6818,143.12112 164.1893,142.94612 164.6968,142.75362 164.9243,142.45612 165.4318,141.73862 165.4318,140.72362 V 133.18112 L 165.0293,132.65612 H 167.2518 L 166.8668,133.18112 V 140.72362 Q 166.8668,142.33362 165.8518,143.40112 165.3443,143.92612 164.6268,144.15362 163.8393,144.39862 163.1568,144.39862 162.4043,144.39862 161.6343,144.11862 160.8643,143.83862 160.4093,143.38362 159.4293,142.35112 159.4293,140.32112 Z"
         id="path75" />
      <path
         d="M 175.10929,133.21612 174.68929,132.65612 H 176.94679 L 176.54429,133.21612 Q 176.50929,134.96612 174.49679,136.13862 175.56429,136.87362 176.22929,138.02862 176.87679,139.18362 176.94679,140.40862 L 177.34929,140.93362 H 175.10929 L 175.56429,140.40862 Q 175.51179,138.22112 173.60429,136.78612 H 171.41679 V 140.40862 L 171.80179,140.93362 H 169.59679 L 169.98179,140.40862 V 128.43862 L 169.59679,127.94862 H 171.80179 L 171.41679,128.43862 V 135.52612 H 173.23679 Q 174.32179,135.07112 174.70679,134.49362 175.10929,133.88112 175.10929,133.21612 Z"
         id="path77" />
      <path
         d="M 183.66678,127.94862 183.22928,128.43862 V 138.16862 Q 183.22928,138.71112 183.36928,139.07862 183.49178,139.35862 183.75428,139.56862 183.99928,139.76112 184.40178,139.76112 185.53928,139.76112 185.53928,138.78112 V 137.59112 L 186.97428,139.04362 Q 186.78178,139.74362 186.11678,140.37362 185.45178,141.03862 184.33178,141.03862 183.05428,141.03862 182.52928,140.51362 182.24928,140.23362 182.07428,139.95362 181.89928,139.63862 181.82928,139.07862 181.72428,138.23862 181.72428,136.83862 V 128.43862 L 181.28678,127.94862 Z"
         id="path79" />
      <path
         d="M 191.03426,132.65612 V 133.37362 Q 191.17426,133.07612 191.61176,132.81362 192.04926,132.55112 192.34676,132.55112 192.90676,132.58612 193.27426,132.84862 193.67676,133.11112 194.09676,133.67112 194.95426,132.56862 195.93426,132.55112 196.73926,132.55112 197.33426,133.04112 197.96426,133.53112 198.17426,134.28362 198.38426,135.10612 198.45426,135.63112 198.54176,136.36612 198.54176,136.73362 V 140.40862 L 198.97926,140.93362 H 196.70426 L 197.10676,140.40862 V 136.73362 Q 197.10676,133.81112 195.93426,133.81112 194.83176,133.81112 194.83176,136.73362 V 140.40862 L 195.19926,140.93362 H 192.94176 L 193.39676,140.40862 V 136.73362 Q 193.39676,133.81112 192.31176,133.81112 191.03426,133.81112 191.03426,136.73362 V 140.40862 L 191.43676,140.93362 H 189.16176 L 189.59926,140.40862 V 133.09362 L 189.14426,132.65612 Z"
         id="path81" />
      <path
         d="M 204.54425,132.55112 Q 205.73425,132.55112 206.53925,133.19862 207.34425,133.86362 207.69425,134.77362 208.04425,135.77112 208.04425,136.87362 V 140.40862 L 208.46425,140.93362 H 206.17175 L 206.60925,140.40862 V 136.87362 Q 206.60925,135.40362 206.08425,134.56362 205.57675,133.74112 204.54425,133.74112 203.35425,133.74112 202.89925,134.52862 202.44425,135.35112 202.44425,136.87362 V 140.40862 L 202.86425,140.93362 H 200.64175 L 201.00925,140.40862 V 133.09362 L 200.57175,132.65612 H 202.42675 V 133.58362 Q 203.37175,132.55112 204.54425,132.55112 Z"
         id="path83" />
      <path
         d="M 214.53675,133.63612 Q 212.34925,133.63612 212.34925,136.90862 212.34925,138.39612 212.83925,139.14862 213.32925,139.95362 214.53675,139.95362 215.76175,139.95362 216.33925,139.14862 216.91675,138.34362 216.91675,136.90862 216.91675,135.47362 216.33925,134.54612 215.76175,133.63612 214.53675,133.63612 Z M 214.53675,132.55112 Q 216.19925,132.55112 217.35425,133.89862 218.52675,135.24612 218.52675,136.90862 218.52675,138.55362 217.37175,139.79612 216.21675,141.03862 214.53675,141.03862 212.87425,141.03862 211.80675,139.81362 210.73925,138.58862 210.73925,136.90862 210.73925,135.22862 211.82425,133.88112 212.89175,132.55112 214.53675,132.55112 Z"
         id="path85" />
      <path
         d="M 225.38673,132.55112 Q 226.87423,132.55112 227.85423,133.91612 228.83423,135.31612 228.83423,136.83862 228.83423,138.36112 227.85423,139.70862 226.89173,141.03862 225.38673,141.03862 224.68673,141.03862 223.95173,140.68862 223.26923,140.33862 222.98923,139.63862 V 144.10112 L 223.40923,144.64362 H 221.09923 L 221.55423,144.10112 V 133.09362 L 221.09923,132.65612 H 222.98923 V 133.91612 Q 223.51423,132.55112 225.38673,132.55112 Z M 225.22923,133.82862 Q 224.09173,133.82862 223.58423,134.75612 223.07673,135.68362 223.07673,136.83862 223.07673,137.94112 223.58423,138.86862 224.07423,139.76112 225.21173,139.76112 226.36673,139.76112 226.85673,138.90362 227.36423,138.02862 227.36423,136.83862 227.36423,135.59612 226.87423,134.73862 226.38423,133.82862 225.22923,133.82862 Z"
         id="path87" />
      <path
         d="M 238.89672,132.65612 238.49422,133.05862 V 141.09112 Q 238.49422,143.45362 239.38672,143.47112 240.31422,143.47112 240.31422,141.96612 L 241.73172,142.71862 Q 241.53922,143.36612 240.90922,144.04862 240.26172,144.74862 239.29922,144.74862 237.05922,144.71362 237.05922,141.09112 V 139.63862 Q 236.77922,140.33862 236.11422,140.68862 235.37922,141.03862 234.67922,141.03862 233.17422,141.03862 232.22922,139.70862 231.28422,138.37862 231.28422,136.83862 231.28422,135.80612 231.66922,134.87862 232.07172,133.91612 232.85922,133.23362 233.64672,132.55112 234.67922,132.55112 236.53422,132.55112 237.05922,133.89862 V 132.65612 Z M 234.78422,133.82862 Q 233.66422,133.82862 233.20922,134.70362 232.75422,135.64862 232.75422,136.83862 232.75422,138.02862 233.20922,138.90362 233.64672,139.76112 234.78422,139.76112 235.88672,139.76112 236.46422,138.86862 237.02422,137.99362 237.02422,136.83862 237.02422,135.66612 236.46422,134.75612 235.88672,133.82862 234.78422,133.82862 Z"
         id="path89" />
      <path
         d="M 245.87921,132.55112 Q 247.45421,132.56862 248.36421,133.51362 249.27421,134.44112 249.29171,135.35112 249.29171,135.71862 248.88921,135.96362 248.46921,136.22612 247.87421,136.22612 247.66421,136.22612 247.55921,136.06862 247.45421,135.91112 247.45421,135.80612 247.45421,135.64862 247.66421,135.47362 247.85671,135.28112 247.85671,135.15862 247.85671,134.45862 247.27921,134.14362 246.68421,133.81112 245.87921,133.81112 245.21421,133.81112 244.65421,134.21362 244.14671,134.58112 243.88421,135.17612 243.63921,135.82362 243.53421,136.26112 243.41171,136.80362 243.41171,137.17112 V 140.37362 L 243.84921,140.93362 H 241.59171 L 241.97671,140.37362 V 133.05862 Q 241.55671,132.70862 241.55671,132.65612 H 243.41171 V 133.95112 Q 243.60421,133.46112 244.40921,133.02362 245.24921,132.55112 245.87921,132.55112 Z"
         id="path91" />
      <path
         d="M 257.39419,132.55112 Q 257.77919,132.55112 258.58419,132.98862 258.89919,133.12862 259.14419,133.61862 259.38919,134.09112 259.40669,134.47612 259.40669,134.86112 259.17919,135.01862 258.93419,135.17612 258.35669,135.17612 258.14669,135.17612 257.98919,135.12362 257.81419,135.07112 257.81419,134.96612 257.81419,134.80862 258.02419,134.70362 258.21669,134.59862 258.21669,134.47612 258.21669,134.28362 257.91919,134.03862 257.63919,133.81112 257.23669,133.81112 H 254.76919 Q 254.19169,133.81112 253.89419,134.10862 253.59669,134.40612 253.59669,134.89612 253.59669,135.36862 253.89419,135.71862 254.19169,136.01612 254.76919,136.01612 H 256.90419 Q 257.95419,136.01612 258.68919,136.75112 259.40669,137.46862 259.40669,138.44862 259.40669,139.41112 258.65419,140.23362 257.91919,141.03862 256.90419,141.03862 H 254.15669 Q 253.87669,141.03862 253.01919,140.60112 252.72169,140.44362 252.44169,139.95362 252.17919,139.46362 252.16169,139.11362 252.16169,138.41362 253.35169,138.41362 253.78919,138.41362 253.78919,138.62362 253.78919,138.76362 253.57919,138.86862 253.35169,138.97362 253.35169,139.11362 253.35169,139.30612 253.68419,139.53362 253.96419,139.76112 254.36669,139.76112 H 256.93919 Q 257.97169,139.76112 257.97169,138.55362 257.97169,138.01112 257.70919,137.64362 257.46419,137.29362 256.90419,137.29362 H 254.92669 Q 253.85919,137.29362 253.01919,136.55862 252.16169,135.80612 252.16169,134.89612 252.16169,133.96862 253.00169,133.26862 253.87669,132.55112 254.92669,132.55112 Z"
         id="path93" />
      <path
         d="M 266.35418,127.94862 265.96918,128.45612 V 132.83112 H 269.85418 L 269.18918,134.10862 H 265.96918 V 138.06362 138.62362 Q 265.96918,138.86862 266.03918,139.07862 266.12668,139.34112 266.21418,139.44612 266.28418,139.53362 266.56418,139.67362 266.77418,139.76112 267.12418,139.76112 267.50918,139.76112 267.82418,139.44612 268.13918,139.13112 268.27918,138.81612 L 268.40168,138.50112 V 137.29362 L 269.69668,138.58862 Q 269.59168,138.97362 269.27668,139.49862 268.90918,140.09362 268.34918,140.53112 267.68418,141.03862 267.03668,141.03862 266.07418,141.03862 265.30418,140.44362 264.53418,139.86612 264.53418,138.85112 V 134.10862 H 262.29418 V 132.83112 H 264.53418 V 128.45612 L 264.04418,127.94862 Z"
         id="path95" />
      <path
         d="M 280.31918,132.65612 279.93418,133.19862 V 140.67112 L 280.35418,141.03862 H 278.49918 V 139.83112 Q 277.39668,141.03862 276.27668,141.03862 274.54418,141.03862 273.66918,139.77862 272.79418,138.48362 272.79418,136.69862 V 133.19862 L 272.39168,132.65612 H 274.68418 L 274.22918,133.19862 V 136.59362 Q 274.22918,138.08112 274.75418,138.92112 275.27918,139.76112 276.27668,139.76112 277.39668,139.76112 277.93918,138.90362 278.49918,138.02862 278.49918,136.59362 V 133.19862 L 278.09668,132.65612 Z"
         id="path97" />
      <path
         d="M 290.62666,132.65612 290.18916,133.21612 V 134.47612 Q 290.18916,135.89362 289.06916,138.08112 287.93166,140.28612 286.67166,141.03862 285.37666,140.26862 284.25666,138.08112 283.13666,135.91112 283.13666,134.47612 V 133.21612 L 282.69916,132.65612 H 285.04416 L 284.57166,133.21612 V 134.47612 Q 284.57166,135.43862 285.25416,137.20612 285.95416,138.99112 286.67166,139.62112 287.40666,138.97362 288.08916,137.20612 288.75416,135.47362 288.75416,134.47612 V 133.21612 L 288.24666,132.65612 Z"
         id="path99" />
      <path
         d="M 301.52915,132.65612 301.14415,133.21612 V 137.13612 Q 301.14415,140.26862 298.79915,141.03862 298.13415,140.72362 297.60915,140.25112 297.13665,139.83112 296.94415,139.20112 296.57665,140.39112 295.24665,141.03862 292.76165,140.23362 292.76165,137.13612 V 133.21612 L 292.37665,132.65612 H 294.61665 L 294.19665,133.21612 V 137.13612 Q 294.19665,138.23862 294.37165,138.74612 294.56415,139.30612 295.24665,139.76112 295.91165,139.14862 296.06915,138.65862 296.24415,138.13362 296.24415,137.13612 V 133.21612 L 295.78915,132.65612 H 298.04665 L 297.66165,133.21612 V 137.13612 Q 297.66165,138.04612 297.88915,138.60612 298.09915,139.16612 298.79915,139.76112 299.18415,139.49862 299.42915,139.02612 299.63915,138.60612 299.67415,138.25612 V 137.99362 Q 299.69165,137.94112 299.69165,137.80112 299.70915,137.64362 299.70915,137.57362 V 137.13612 133.21612 L 299.27165,132.65612 Z"
         id="path101" />
      <path
         d="M 307.19914,135.82362 309.43914,133.11112 309.52664,132.37612 311.13664,133.95112 310.45414,134.03862 308.14414,136.80362 310.43664,139.56862 311.13664,139.63862 309.52664,141.40612 309.43914,140.49612 307.19914,137.78362 305.01164,140.49612 304.92414,141.40612 303.31414,139.63862 304.01414,139.56862 306.30664,136.80362 303.99664,134.03862 303.31414,133.95112 304.92414,132.37612 305.01164,133.11112 Z"
         id="path103" />
      <path
         d="M 321.46162,132.65612 321.05912,133.19862 V 140.75862 Q 321.05912,142.64862 320.11412,143.59362 319.18662,144.52112 317.41912,144.52112 316.19412,144.50362 315.21412,143.83862 314.23412,143.17362 314.18162,141.96612 L 315.28412,141.33612 Q 315.28412,143.24362 317.41912,143.24362 318.62662,143.24362 319.15162,142.59612 319.67662,141.94862 319.67662,140.58362 V 139.00862 Q 319.46662,139.60362 318.78412,139.91862 318.10162,140.21612 317.41912,140.21612 315.68662,140.21612 314.82912,139.04362 313.98912,137.88862 313.98912,136.17362 V 133.19862 L 313.58662,132.65612 H 315.89662 L 315.42412,133.19862 V 136.17362 Q 315.42412,137.62612 315.91412,138.27362 316.42162,138.93862 317.41912,138.93862 319.62412,138.93862 319.62412,136.17362 V 133.19862 L 319.22162,132.65612 Z"
         id="path105" />
      <path
         d="M 331.71663,132.69112 Q 331.66413,134.52862 325.71413,139.56862 L 329.59913,139.79612 Q 330.24663,139.67362 330.24663,139.46362 330.24663,139.32362 330.03663,139.23612 329.82663,139.16612 329.82663,138.99112 329.82663,138.76362 330.24663,138.76362 330.82413,138.76362 331.13913,139.07862 331.45413,139.39362 331.45413,139.76112 331.41913,140.61862 330.78913,140.95112 330.35163,141.17862 329.79163,141.17862 326.92163,140.84612 325.32913,140.84612 323.92913,140.84612 323.92913,139.56862 324.31413,139.07862 325.57413,137.92362 327.70913,136.01612 328.02413,135.71862 329.21413,134.63362 329.54663,133.95112 H 325.94163 Q 325.32913,134.09112 325.32913,134.28362 325.32913,134.42362 325.52163,134.52862 325.71413,134.63362 325.71413,134.79112 325.71413,135.03612 325.32913,135.03612 324.78663,135.03612 324.43663,134.73862 324.10413,134.45862 324.10413,134.05612 324.13913,133.28612 324.80413,132.93612 325.32913,132.69112 325.76663,132.69112 Z"
         id="path107" />
      <path
         d="M 71.246903,149.82362 75.289403,162.23112 V 162.80862 H 73.766903 V 162.23112 L 72.734403,159.04612 H 68.394403 L 67.361903,162.23112 V 162.80862 H 65.856903 V 162.23112 L 69.899403,149.82362 Z M 68.814403,157.76862 H 72.314403 L 70.564403,152.39612 Z"
         id="path109" />
      <path
         d="M 83.934392,159.20362 Q 83.934392,157.97862 83.164392,157.15612 82.411892,156.35112 81.449392,156.35112 H 77.896892 V 161.51362 H 81.676892 Q 82.429392,161.51362 83.181892,160.91862 83.934392,160.32362 83.934392,159.20362 Z M 82.866892,152.95612 Q 82.866892,152.20362 82.534392,151.66112 82.184392,151.08362 81.571892,151.08362 H 77.896892 V 155.07362 H 81.379392 Q 81.869392,155.07362 82.376892,154.33862 82.866892,153.63862 82.866892,152.95612 Z M 81.379392,149.82362 Q 82.219392,149.82362 82.779392,150.10362 83.356892,150.40112 83.689392,150.87362 84.004392,151.32862 84.144392,151.85362 84.284392,152.44862 84.284392,152.95612 84.284392,153.74362 83.811892,154.58362 83.304392,155.45862 82.954392,155.52862 V 155.79112 Q 83.986892,156.17612 84.686892,157.17362 85.369392,158.17112 85.369392,159.20362 85.369392,160.79612 84.371892,161.79362 83.356892,162.80862 81.711892,162.80862 H 76.461892 V 149.82362 Z"
         id="path111" />
      <path
         d="M 94.69688,149.82362 95.46688,151.08362 H 91.52938 Q 90.35688,151.08362 89.30688,152.51862 88.25688,153.95362 88.25688,155.70362 88.25688,157.92612 89.42938,159.72862 90.58438,161.51362 92.07188,161.51362 H 94.69688 L 95.46688,162.80862 H 92.29938 Q 89.90188,162.80862 88.36188,160.79612 86.82188,158.78362 86.82188,155.70362 86.82188,154.32112 87.41688,153.00862 88.02938,151.66112 89.07938,150.73362 90.09438,149.82362 91.30188,149.82362 Z"
         id="path113" />
      <path
         d="M 102.22187,149.82362 Q 102.83437,149.82362 103.65687,150.66362 104.47937,151.50362 105.02187,152.60612 105.86187,154.26862 105.86187,156.63112 105.86187,158.81862 104.84687,160.51612 104.33937,161.40862 103.49937,162.09112 102.62437,162.80862 102.22187,162.80862 H 97.024368 V 149.82362 Z M 104.42687,156.63112 Q 104.42687,154.72362 103.74437,153.37612 103.28937,152.48362 102.65937,151.78362 102.06437,151.08362 101.55687,151.08362 H 98.459368 V 161.51362 H 101.55687 Q 101.88937,161.51362 102.53687,160.88362 103.07937,160.35862 103.62187,159.53612 104.42687,158.20612 104.42687,156.63112 Z"
         id="path115" />
      <path
         d="M 115.43436,149.82362 116.20436,151.08362 H 108.81936 V 155.16112 H 113.21186 L 113.98186,156.43862 H 108.81936 V 161.51362 H 115.43436 L 116.20436,162.80862 H 107.38436 V 149.82362 Z"
         id="path117" />
      <path
         d="M 125.67185,149.82362 126.44185,151.08362 H 119.05685 V 155.00362 H 123.44935 L 124.21935,156.26362 H 119.05685 V 162.80862 H 117.62185 V 149.82362 Z"
         id="path119" />
      <path
         d="M 135.89183,149.82362 136.66183,151.08362 H 132.42683 Q 131.56933,151.13612 130.93933,151.60862 130.34433,152.04612 129.97683,152.86862 129.67933,153.53362 129.50433,154.44362 129.34683,155.24862 129.34683,156.17612 129.34683,157.20862 129.52183,158.03112 129.67933,158.85362 130.06433,159.72862 130.43183,160.53362 131.07933,161.02362 131.72683,161.51362 132.61933,161.51362 H 135.29683 L 134.71933,156.31612 H 132.49683 L 131.95433,155.00362 H 135.92683 L 136.73183,161.51362 V 162.80862 H 132.61933 Q 131.07933,162.80862 130.01183,161.79362 128.90933,160.77862 128.41933,159.30862 127.91183,157.78612 127.91183,156.17612 127.91183,154.63612 128.36683,153.18362 128.82183,151.78362 129.85433,150.80362 130.88683,149.82362 132.32183,149.82362 Z"
         id="path121" />
      <path
         d="M 145.58683,155.16112 V 149.82362 H 147.02183 V 162.80862 H 145.58683 V 156.43862 H 139.63683 V 162.80862 H 138.20183 V 149.82362 H 139.63683 V 155.16112 Z"
         id="path123" />
      <path
         d="M 156.71681,149.82362 157.48681,151.08362 H 153.58431 V 161.51362 H 156.71681 L 157.48681,162.80862 H 149.05181 L 148.28181,161.51362 H 152.14931 V 151.08362 H 149.05181 L 148.28181,149.82362 Z"
         id="path125" />
      <path
         d="M 167.5668,149.84112 168.3368,151.10112 H 166.7793 V 158.48612 Q 166.7793,162.87862 163.1918,162.87862 161.3018,162.87862 160.4093,161.68862 159.5168,160.49862 159.5168,158.48612 H 160.9518 Q 160.9518,160.16612 161.5118,160.88362 162.0718,161.60112 163.1918,161.60112 164.2943,161.60112 164.8193,160.88362 165.3443,160.18362 165.3443,158.48612 V 151.10112 H 160.2868 L 159.5168,149.84112 Z"
         id="path127" />
      <path
         d="M 177.80429,149.82362 173.62179,155.79112 177.99679,162.80862 H 176.43929 L 172.39679,156.43862 H 170.50679 V 162.80862 H 169.07179 V 149.82362 H 170.50679 V 155.16112 H 172.39679 L 176.24679,149.82362 Z"
         id="path129" />
      <path
         d="M 181.39178,149.82362 V 161.51362 H 187.27178 L 188.02428,162.80862 H 179.95678 V 149.82362 Z"
         id="path131" />
      <path
         d="M 198.47176,149.84112 V 162.80862 H 197.03676 V 152.30862 L 194.06176,157.13862 191.08676,152.30862 V 162.80862 H 189.65176 V 149.84112 H 191.08676 L 194.06176,154.74112 197.03676,149.84112 Z"
         id="path133" />
      <path
         d="M 208.76175,149.82362 V 162.80862 H 207.32675 L 201.37675,152.48362 V 162.80862 H 199.94175 V 149.82362 H 201.37675 L 207.32675,160.13112 V 149.82362 Z"
         id="path135" />
      <path
         d="M 214.64175,149.70112 Q 215.84925,149.70112 216.75925,150.29612 217.65175,150.85612 218.19425,151.85362 218.68425,152.62362 218.91175,153.98862 219.06925,154.93362 219.08675,156.33362 219.08675,157.89112 218.73675,159.43112 218.36925,160.86612 217.28425,161.89862 216.21675,162.91362 214.64175,162.91362 213.03175,162.91362 211.96425,161.89862 210.87925,160.86612 210.51175,159.43112 210.16175,157.89112 210.16175,156.33362 210.17925,154.93362 210.33675,153.98862 210.56425,152.62362 211.05425,151.85362 211.59675,150.85612 212.48925,150.29612 213.39925,149.70112 214.64175,149.70112 Z M 217.21425,153.65612 Q 216.68925,150.92612 214.64175,150.92612 212.59425,150.92612 212.03425,153.65612 211.75425,154.95112 211.75425,156.33362 211.77175,157.99612 212.03425,159.27362 212.59425,161.68862 214.64175,161.68862 216.68925,161.68862 217.21425,159.27362 217.47675,158.11862 217.49425,156.33362 217.49425,155.00362 217.21425,153.65612 Z"
         id="path137" />
      <path
         d="M 227.71423,153.21862 Q 227.71423,152.37862 227.22423,151.73112 226.73423,151.08362 225.94673,151.08362 H 222.13173 V 155.49362 H 225.94673 Q 226.75173,155.49362 227.22423,154.81112 227.71423,154.11112 227.71423,153.21862 Z M 226.22673,149.82362 Q 227.52173,149.82362 228.32673,150.83862 229.14923,151.87112 229.14923,153.21862 229.14923,154.61862 228.32673,155.70362 227.50423,156.78862 226.22673,156.78862 H 222.13173 V 162.80862 H 220.69673 V 149.82362 Z"
         id="path139" />
      <path
         d="M 235.22172,150.94362 Q 234.38172,150.94362 233.73422,151.53862 233.17422,152.04612 232.82422,153.00862 232.52672,153.83112 232.36922,154.75862 232.24672,155.49362 232.24672,156.33362 232.24672,161.75862 235.22172,161.75862 236.13172,161.75862 236.63922,161.25112 L 235.83422,160.07862 H 234.73172 L 233.80422,158.87112 H 235.93922 L 237.26922,160.60362 Q 237.68922,159.85112 237.93422,158.87112 238.14422,157.99612 238.14422,156.33362 238.14422,155.19612 238.02172,154.44362 237.89922,153.58612 237.60172,152.74612 237.30422,151.90612 236.70922,151.43362 236.09672,150.94362 235.22172,150.94362 Z M 233.24422,150.24362 Q 234.10172,149.64862 235.22172,149.64862 236.34172,149.64862 237.19922,150.24362 238.07422,150.85612 238.56422,151.85362 239.10672,152.92112 239.33422,153.98862 239.57922,155.10862 239.57922,156.33362 239.57922,159.71112 238.12672,161.53112 H 239.33422 L 240.41922,163.03612 H 238.02172 L 237.47922,162.19612 Q 236.67422,163.03612 235.22172,163.03612 234.11922,163.03612 233.24422,162.42362 232.35172,161.82862 231.84422,160.83112 231.37172,159.93862 231.07422,158.67862 230.81172,157.52362 230.81172,156.33362 230.81172,155.14362 231.07422,153.98862 231.33672,152.81612 231.84422,151.85362 232.36922,150.85612 233.24422,150.24362 Z"
         id="path141" />
      <path
         d="M 246.10671,149.82362 Q 247.68171,149.82362 248.53921,150.73362 249.39671,151.64362 249.39671,152.85112 249.39671,154.61862 247.75171,155.42362 V 155.65112 Q 248.81921,156.05362 249.34421,156.99862 249.90421,157.97862 249.90421,159.20362 V 162.80862 H 248.46921 V 159.20362 Q 248.46921,158.10112 247.59421,157.17362 246.73671,156.26362 245.77421,156.26362 H 242.53671 V 162.80862 H 241.10171 V 149.82362 Z M 247.96171,152.85112 Q 247.96171,152.20362 247.41921,151.64362 246.89421,151.08362 246.17671,151.08362 H 242.53671 V 155.00362 H 246.21171 Q 246.85921,155.00362 247.40171,154.37362 247.94421,153.76112 247.96171,152.85112 Z"
         id="path143" />
      <path
         d="M 259.44169,149.82362 260.21169,151.11862 H 255.43419 Q 253.01919,151.11862 253.01919,153.21862 253.01919,155.05612 255.25919,155.05612 H 256.23919 Q 260.03669,155.05612 260.21169,158.90612 259.87919,162.80862 255.80169,162.80862 H 251.37419 L 252.14419,161.51362 H 255.80169 Q 258.42669,161.51362 258.77669,158.90612 258.77669,156.35112 256.43169,156.35112 H 255.32919 Q 251.60169,156.35112 251.58419,153.23612 251.58419,149.82362 255.43419,149.82362 Z"
         id="path145" />
      <path
         d="M 265.33918,151.10112 H 262.24168 L 261.47168,149.82362 H 269.90668 L 270.67668,151.10112 H 266.79168 V 162.80862 H 265.33918 Z"
         id="path147" />
      <path
         d="M 280.77418,149.85862 V 157.75112 Q 280.72168,160.21862 279.56668,161.56612 278.41168,162.91362 276.38168,162.91362 274.40418,162.91362 273.21418,161.54862 272.02418,160.14862 271.97168,157.75112 V 149.85862 H 273.40668 V 157.75112 Q 273.44168,159.60612 274.19418,160.62112 274.94668,161.63612 276.38168,161.63612 279.23418,161.63612 279.33918,157.75112 V 149.85862 Z"
         id="path149" />
      <path
         d="M 291.08166,149.82362 286.65416,163.07112 282.22666,149.82362 H 283.66166 L 286.65416,158.90612 289.64666,149.82362 Z"
         id="path151" />
      <path
         d="M 301.35415,149.84112 300.56665,162.80862 H 298.46665 L 296.94415,157.92612 295.42165,162.80862 H 293.32165 L 292.53415,149.84112 H 293.96915 L 294.58165,161.07612 296.94415,154.16362 299.30665,161.07612 299.91915,149.84112 Z"
         id="path153" />
      <path
         d="M 307.25164,154.70612 310.19164,149.82362 H 311.64414 L 308.09164,155.87862 311.64414,162.80862 H 310.19164 L 307.25164,156.99862 304.27664,162.80862 H 302.84164 L 306.37664,155.87862 302.84164,149.82362 H 304.27664 Z"
         id="path155" />
      <path
         d="M 321.95162,149.82362 318.25912,156.63112 V 162.80862 H 316.82412 V 156.63112 L 313.11412,149.82362 H 314.54912 L 317.54162,155.21362 320.51662,149.82362 Z"
         id="path157" />
      <path
         d="M 331.47163,149.82362 332.24163,151.10112 325.01413,161.51362 H 331.47163 L 332.24163,162.80862 H 324.19163 L 323.42163,161.51362 330.63163,151.10112 H 324.19163 L 323.42163,149.82362 Z"
         id="path159" />
      <path
         d="M 70.476903,177.38612 Q 68.289403,177.38612 68.289403,180.65862 68.289403,182.14612 68.779403,182.89862 69.269403,183.70362 70.476903,183.70362 71.701903,183.70362 72.279403,182.89862 72.856903,182.09362 72.856903,180.65862 72.856903,179.22362 72.279403,178.29612 71.701903,177.38612 70.476903,177.38612 Z M 70.476903,176.30112 Q 72.139403,176.30112 73.294403,177.64862 74.466903,178.99612 74.466903,180.65862 74.466903,182.30362 73.311903,183.54612 72.156903,184.78862 70.476903,184.78862 68.814403,184.78862 67.746903,183.56362 66.679403,182.33862 66.679403,180.65862 66.679403,178.97862 67.764403,177.63112 68.831903,176.30112 70.476903,176.30112 Z"
         id="path161" />
      <path
         d="M 80.871892,171.57612 Q 82.079392,171.57612 82.989392,172.17112 83.881892,172.73112 84.424392,173.72862 84.914392,174.49862 85.141892,175.86362 85.299392,176.80862 85.316892,178.20862 85.316892,179.76612 84.966892,181.30612 84.599392,182.74112 83.514392,183.77362 82.446892,184.78862 80.871892,184.78862 79.261892,184.78862 78.194392,183.77362 77.109392,182.74112 76.741892,181.30612 76.391892,179.76612 76.391892,178.20862 76.409392,176.80862 76.566892,175.86362 76.794392,174.49862 77.284392,173.72862 77.826892,172.73112 78.719392,172.17112 79.629392,171.57612 80.871892,171.57612 Z M 83.444392,175.53112 Q 82.919392,172.80112 80.871892,172.80112 78.824392,172.80112 78.264392,175.53112 77.984392,176.82612 77.984392,178.20862 78.001892,179.87112 78.264392,181.14862 78.824392,183.56362 80.871892,183.56362 82.919392,183.56362 83.444392,181.14862 83.706892,179.99362 83.724392,178.20862 83.724392,176.87862 83.444392,175.53112 Z"
         id="path163" />
      <path
         d="M 95.27438,171.57612 94.18938,173.67612 Q 95.37938,175.65362 95.37938,178.15612 95.37938,179.80112 94.92438,181.32362 94.48688,182.79362 93.48938,183.79112 92.49188,184.78862 91.16188,184.78862 89.88438,184.78862 88.81688,183.68612 L 88.16938,184.68362 H 86.75188 L 87.97688,182.58362 Q 86.94438,180.71112 86.94438,178.15612 86.94438,176.42362 87.36438,174.97112 87.80188,173.48362 88.79938,172.53862 89.76188,171.57612 91.16188,171.57612 92.29938,171.57612 93.38438,172.60862 L 93.87438,171.57612 Z M 91.16188,172.87112 Q 90.39188,172.87112 89.81438,173.34362 89.23688,173.81612 88.95688,174.60362 88.65938,175.42612 88.51938,176.28362 88.37938,177.26362 88.37938,178.15612 88.37938,179.95862 88.81688,181.11362 L 92.64938,173.86862 Q 92.05438,172.87112 91.16188,172.87112 Z M 89.51688,182.42612 Q 89.74438,182.72362 89.98938,182.96862 90.18188,183.16112 90.49688,183.31862 90.82938,183.49362 91.16188,183.49362 91.87938,183.49362 92.47438,183.00362 92.99938,182.58362 93.34938,181.70862 93.66438,180.92112 93.80438,180.02862 93.94438,179.01362 93.94438,178.15612 93.94438,176.58112 93.38438,175.11112 Z"
         id="path165" />
      <path
         d="M 98.669368,181.07862 Q 98.669368,182.14612 99.509368,182.82862 100.34937,183.51112 101.45187,183.51112 102.55437,183.51112 103.39437,182.82862 104.21687,182.16362 104.21687,181.07862 104.21687,180.01112 103.39437,179.29362 102.57187,178.57612 101.45187,178.57612 100.38437,178.57612 99.509368,179.29362 98.669368,179.99362 98.669368,181.07862 Z M 99.754368,173.50112 Q 99.054368,174.14862 99.054368,175.09362 99.054368,176.03862 99.754368,176.66862 100.45437,177.29862 101.45187,177.29862 102.41437,177.29862 103.13187,176.66862 103.83187,176.03862 103.83187,175.09362 103.83187,174.14862 103.13187,173.50112 102.43187,172.85362 101.45187,172.85362 100.45437,172.85362 99.754368,173.50112 Z M 101.45187,171.57612 Q 103.00937,171.57612 104.12937,172.59112 105.26687,173.62362 105.26687,175.09362 105.26687,176.93112 103.56937,177.94612 105.65187,179.04862 105.65187,181.07862 105.65187,182.70612 104.40937,183.73862 103.14937,184.78862 101.45187,184.78862 99.754368,184.78862 98.494368,183.73862 97.234368,182.68862 97.234368,181.07862 97.234368,179.01362 99.299368,177.94612 97.619368,176.94862 97.619368,175.09362 97.619368,173.62362 98.756868,172.59112 99.876868,171.57612 101.45187,171.57612 Z"
         id="path167" />
      <path
         d="M 121.59435,172.55612 Q 121.99685,172.55612 122.32935,172.88862 122.71435,173.22112 122.71435,173.65862 122.71435,174.09612 122.32935,174.42862 121.99685,174.76112 121.59435,174.76112 121.24435,174.76112 120.84185,174.42862 120.45685,174.11362 120.45685,173.65862 120.45685,173.20362 120.84185,172.88862 121.24435,172.55612 121.59435,172.55612 Z M 122.59185,176.40612 V 183.23112 H 124.09685 L 123.43185,184.68362 H 121.19185 V 177.85862 H 120.05435 V 176.40612 Z"
         id="path169" />
      <path
         d="M 136.13683,171.69862 136.90683,172.95862 H 133.00433 V 183.38862 H 136.13683 L 136.90683,184.68362 H 128.47183 L 127.70183,183.38862 H 131.56933 V 172.95862 H 128.47183 L 127.70183,171.69862 Z"
         id="path171" />
      <path
         d="M 142.50683,171.69862 142.06933,172.18862 V 181.91862 Q 142.06933,182.46112 142.20933,182.82862 142.33183,183.10862 142.59433,183.31862 142.83933,183.51112 143.24183,183.51112 144.37933,183.51112 144.37933,182.53112 V 181.34112 L 145.81433,182.79362 Q 145.62183,183.49362 144.95683,184.12362 144.29183,184.78862 143.17183,184.78862 141.89433,184.78862 141.36933,184.26362 141.08933,183.98362 140.91433,183.70362 140.73933,183.38862 140.66933,182.82862 140.56433,181.98862 140.56433,180.58862 V 172.18862 L 140.12683,171.69862 Z"
         id="path173" />
      <path
         d="M 150.52181,171.69862 V 183.38862 H 156.40181 L 157.15431,184.68362 H 149.08681 V 171.69862 Z"
         id="path175" />
      <path
         d="M 163.9093,171.69862 V 184.68362 H 162.4743 V 174.74362 H 161.0043 L 162.8418,171.69862 Z"
         id="path177" />
      <path
         d="M 182.72178,178.17362 Q 182.94928,178.57612 183.52678,179.32862 184.05178,180.01112 184.38428,180.51862 184.68178,180.97362 184.68178,181.37612 L 184.06928,184.68362 Q 184.06928,184.70112 184.19178,184.92862 184.55928,185.61112 185.52178,185.61112 V 187.23862 Q 184.87428,187.23862 184.22678,186.92362 183.56178,186.60862 182.91428,185.69862 182.63428,185.26112 182.56428,185.10362 L 182.49428,184.87612 Q 183.07178,181.95362 183.07178,181.49862 183.07178,180.99112 182.73928,180.55362 182.26678,179.88862 181.79428,179.34612 181.18178,178.62862 180.88428,178.17362 181.14678,177.77112 181.79428,177.01862 182.28428,176.44112 182.73928,175.82862 183.08928,175.32112 183.08928,174.86612 183.08928,174.30612 182.49428,171.48862 L 182.56428,171.26112 Q 182.59928,171.12112 182.91428,170.66612 183.92928,169.14362 185.52178,169.14362 V 170.75362 Q 184.59428,170.75362 184.19178,171.41862 184.06928,171.64612 184.06928,171.68112 L 184.68178,174.98862 Q 184.68178,175.37362 184.38428,175.82862 184.05178,176.33612 183.52678,177.01862 182.94928,177.77112 182.72178,178.17362 Z"
         id="path179" />
      <path
         d="M 195.07676,178.17362 Q 194.84926,177.77112 194.27176,177.01862 193.74676,176.33612 193.41426,175.82862 193.11676,175.37362 193.11676,174.98862 L 193.72926,171.68112 Q 193.72926,171.64612 193.60676,171.41862 193.20426,170.75362 192.27676,170.75362 V 169.14362 Q 193.86926,169.14362 194.88426,170.66612 195.19926,171.12112 195.23426,171.26112 L 195.30426,171.48862 Q 194.70926,174.30612 194.70926,174.86612 194.70926,175.32112 195.05926,175.82862 195.51426,176.44112 196.00426,177.01862 196.65176,177.77112 196.91426,178.17362 196.61676,178.62862 196.00426,179.34612 195.53176,179.88862 195.05926,180.55362 194.72676,180.99112 194.72676,181.49862 194.72676,181.95362 195.30426,184.87612 L 195.23426,185.10362 Q 195.16426,185.26112 194.88426,185.69862 194.23676,186.60862 193.57176,186.92362 192.90676,187.23862 192.27676,187.23862 V 185.61112 Q 193.23926,185.61112 193.60676,184.92862 193.72926,184.70112 193.72926,184.68362 L 193.11676,181.37612 Q 193.11676,180.97362 193.41426,180.51862 193.74676,180.01112 194.27176,179.32862 194.84926,178.57612 195.07676,178.17362 Z"
         id="path181" />
      <path
         d="M 216.39175,169.14362 V 170.57862 H 214.32675 V 185.80362 H 216.39175 V 187.23862 H 212.89175 V 169.14362 Z"
         id="path183" />
      <path
         d="M 223.14673,169.14362 H 226.64673 V 187.23862 H 223.14673 V 185.80362 H 225.21173 V 170.57862 H 223.14673 Z"
         id="path185" />
      <path
         d="M 247.41921,182.61862 247.31421,182.86362 Q 247.01671,183.42362 246.52671,183.73862 245.91421,184.10612 245.19671,184.10612 243.67421,184.10612 242.62421,182.89862 241.57421,181.69112 241.57421,180.15112 241.57421,178.66362 242.60671,177.47362 243.62171,176.30112 245.19671,176.30112 245.91421,176.30112 246.52671,176.65112 247.13921,177.00112 247.41921,177.73612 V 176.40612 H 249.27421 L 248.85421,176.87862 V 186.60862 Q 248.85421,187.25612 247.87421,187.86862 246.89421,188.48112 245.23171,188.49862 243.76171,188.49862 242.79921,187.79862 241.81921,187.08112 241.57421,186.41612 L 243.00921,185.22612 V 186.41612 Q 243.18421,186.59112 243.27171,186.66112 243.55171,186.85362 244.02421,187.02862 244.60171,187.23862 245.23171,187.23862 246.26421,187.20362 246.84171,186.87112 247.41921,186.53862 247.41921,185.99612 Z M 245.19671,177.56112 Q 244.04171,177.56112 243.53421,178.24362 243.00921,178.96112 243.00921,180.15112 243.00921,181.39362 243.55171,182.09362 244.09421,182.84612 245.19671,182.84612 246.26421,182.84612 246.78921,182.23362 247.31421,181.63862 247.31421,180.18612 247.31421,177.56112 245.19671,177.56112 Z"
         id="path187" />
      <path
         d="M 258.56669,175.60112 Q 258.56669,174.46362 257.70919,173.65862 256.86919,172.87112 255.69669,172.87112 254.59419,172.87112 253.80669,173.67612 253.01919,174.49862 253.01919,175.60112 253.01919,176.75612 253.78919,177.56112 254.57669,178.38362 255.69669,178.38362 256.90419,178.38362 257.70919,177.57862 258.56669,176.77362 258.56669,175.60112 Z M 255.69669,171.57612 Q 257.39419,171.57612 258.65419,172.78362 259.91419,173.99112 260.00169,175.60112 260.00169,177.49112 259.80919,178.45362 259.63419,179.38112 258.72419,181.09612 257.93669,182.60112 256.48419,183.70362 255.04919,184.78862 253.84169,184.78862 252.87919,184.77112 252.87919,184.35112 252.87919,184.14112 253.19419,183.98362 253.50919,183.82612 253.71919,183.82612 254.62919,183.73862 255.66169,182.93362 256.69419,182.11112 257.42919,180.93862 258.18169,179.74862 258.28669,178.66362 258.18169,178.76862 258.11169,178.82112 258.05919,178.87362 258.04169,178.87362 258.02419,178.89112 258.00669,178.90862 257.98919,178.92612 257.98919,178.94362 L 257.95419,178.97862 Q 257.93669,178.99612 257.91919,178.99612 257.86669,179.01362 257.70919,179.15362 257.53419,179.27612 257.42919,179.32862 257.41169,179.34612 257.11419,179.45112 257.02669,179.48612 256.93919,179.52112 256.86919,179.53862 256.79919,179.55612 256.74669,179.57362 256.72919,179.57362 256.65919,179.57362 256.55419,179.60862 256.41419,179.60862 256.27419,179.64362 256.15169,179.66112 255.69669,179.66112 253.85919,179.66112 252.77419,178.41862 251.68919,177.12362 251.58419,175.60112 251.58419,174.00862 252.80919,172.78362 254.01669,171.57612 255.69669,171.57612 Z"
         id="path189" />
      <path
         d="M 269.76668,176.40612 269.36418,176.80862 V 184.84112 Q 269.36418,187.20362 270.25668,187.22112 271.18418,187.22112 271.18418,185.71612 L 272.60168,186.46862 Q 272.40918,187.11612 271.77918,187.79862 271.13168,188.49862 270.16918,188.49862 267.92918,188.46362 267.92918,184.84112 V 183.38862 Q 267.64918,184.08862 266.98418,184.43862 266.24918,184.78862 265.54918,184.78862 264.04418,184.78862 263.09918,183.45862 262.15418,182.12862 262.15418,180.58862 262.15418,179.55612 262.53918,178.62862 262.94168,177.66612 263.72918,176.98362 264.51668,176.30112 265.54918,176.30112 267.40418,176.30112 267.92918,177.64862 V 176.40612 Z M 265.65418,177.57862 Q 264.53418,177.57862 264.07918,178.45362 263.62418,179.39862 263.62418,180.58862 263.62418,181.77862 264.07918,182.65362 264.51668,183.51112 265.65418,183.51112 266.75668,183.51112 267.33418,182.61862 267.89418,181.74362 267.89418,180.58862 267.89418,179.41612 267.33418,178.50612 266.75668,177.57862 265.65418,177.57862 Z"
         id="path191" />
      <path
         d="M 279.91668,171.69862 280.68668,172.95862 H 276.74918 Q 275.57668,172.95862 274.52668,174.39362 273.47668,175.82862 273.47668,177.57862 273.47668,179.80112 274.64918,181.60362 275.80418,183.38862 277.29168,183.38862 H 279.91668 L 280.68668,184.68362 H 277.51918 Q 275.12168,184.68362 273.58168,182.67112 272.04168,180.65862 272.04168,177.57862 272.04168,176.19612 272.63668,174.88362 273.24918,173.53612 274.29918,172.60862 275.31418,171.69862 276.52168,171.69862 Z"
         id="path193" />
      <path
         d="M 290.24166,171.69862 291.01166,172.95862 H 286.77666 Q 285.91916,173.01112 285.28916,173.48362 284.69416,173.92112 284.32666,174.74362 284.02916,175.40862 283.85416,176.31862 283.69666,177.12362 283.69666,178.05112 283.69666,179.08362 283.87166,179.90612 284.02916,180.72862 284.41416,181.60362 284.78166,182.40862 285.42916,182.89862 286.07666,183.38862 286.96916,183.38862 H 289.64666 L 289.06916,178.19112 H 286.84666 L 286.30416,176.87862 H 290.27666 L 291.08166,183.38862 V 184.68362 H 286.96916 Q 285.42916,184.68362 284.36166,183.66862 283.25916,182.65362 282.76916,181.18362 282.26166,179.66112 282.26166,178.05112 282.26166,176.51112 282.71666,175.05862 283.17166,173.65862 284.20416,172.67862 285.23666,171.69862 286.67166,171.69862 Z"
         id="path195" />
      <path
         d="M 296.96165,172.81862 Q 296.12165,172.81862 295.47415,173.41362 294.91415,173.92112 294.56415,174.88362 294.26665,175.70612 294.10915,176.63362 293.98665,177.36862 293.98665,178.20862 293.98665,183.63362 296.96165,183.63362 297.87165,183.63362 298.37915,183.12612 L 297.57415,181.95362 H 296.47165 L 295.54415,180.74612 H 297.67915 L 299.00915,182.47862 Q 299.42915,181.72612 299.67415,180.74612 299.88415,179.87112 299.88415,178.20862 299.88415,177.07112 299.76165,176.31862 299.63915,175.46112 299.34165,174.62112 299.04415,173.78112 298.44915,173.30862 297.83665,172.81862 296.96165,172.81862 Z M 294.98415,172.11862 Q 295.84165,171.52362 296.96165,171.52362 298.08165,171.52362 298.93915,172.11862 299.81415,172.73112 300.30415,173.72862 300.84665,174.79612 301.07415,175.86362 301.31915,176.98362 301.31915,178.20862 301.31915,181.58612 299.86665,183.40612 H 301.07415 L 302.15915,184.91112 H 299.76165 L 299.21915,184.07112 Q 298.41415,184.91112 296.96165,184.91112 295.85915,184.91112 294.98415,184.29862 294.09165,183.70362 293.58415,182.70612 293.11165,181.81362 292.81415,180.55362 292.55165,179.39862 292.55165,178.20862 292.55165,177.01862 292.81415,175.86362 293.07665,174.69112 293.58415,173.72862 294.10915,172.73112 294.98415,172.11862 Z"
         id="path197" />
      <path
         d="M 321.21662,177.26362 Q 321.75912,177.26362 321.75912,177.91112 321.75912,178.34862 320.97162,178.96112 320.21912,179.55612 319.44912,179.55612 318.99412,179.55612 317.45412,178.69862 315.91412,177.84112 315.61662,177.84112 315.35412,177.85862 314.89912,178.10362 314.44412,178.34862 314.12912,178.61112 L 313.81412,178.87362 Q 313.32412,178.87362 313.32412,178.22612 313.32412,177.78862 314.09412,177.17612 314.84662,176.58112 315.61662,176.58112 316.00162,176.58112 317.59412,177.43862 319.16912,178.27862 319.44912,178.27862 319.69412,178.27862 320.14912,178.03362 320.49912,177.82362 320.90162,177.50862 Z"
         id="path199" />
      <path
         d="M 331.31413,177.73612 Q 331.55913,177.73612 331.69913,177.92862 331.83913,178.17362 331.83913,178.45362 331.83913,178.73362 331.69913,178.97862 331.55913,179.17112 331.31413,179.17112 H 324.26163 Q 323.78913,179.17112 323.78913,178.45362 323.78913,177.73612 324.26163,177.73612 Z"
         id="path201" />
      <path
         d="M 337.40411,174.90112 Q 337.40411,174.41112 338.12161,174.41112 338.83911,174.41112 338.83911,174.90112 V 177.73612 H 341.62161 Q 341.86661,177.73612 342.00661,177.92862 342.14661,178.17362 342.14661,178.45362 342.14661,178.73362 342.00661,178.97862 341.86661,179.17112 341.62161,179.17112 H 338.83911 V 181.93612 Q 338.83911,182.18112 338.62911,182.33862 338.43661,182.47862 338.12161,182.47862 337.80661,182.47862 337.61411,182.33862 337.40411,182.18112 337.40411,181.93612 V 179.17112 H 334.56911 Q 334.09661,179.17112 334.09661,178.45362 334.09661,177.73612 334.56911,177.73612 H 337.40411 Z"
         id="path203" />
      <path
         d="M 351.91158,179.69612 Q 352.15658,179.69612 352.29658,179.88862 352.43658,180.13362 352.43658,180.41362 352.43658,180.69362 352.29658,180.93862 352.15658,181.13112 351.91158,181.13112 H 344.85908 Q 344.38658,181.13112 344.38658,180.41362 344.38658,179.69612 344.85908,179.69612 Z M 351.91158,175.75862 Q 352.17408,175.75862 352.29658,175.96862 352.43658,176.21362 352.43658,176.47612 352.43658,176.73862 352.29658,176.98362 352.17408,177.19362 351.91158,177.19362 H 344.85908 Q 344.38658,177.19362 344.38658,176.47612 344.38658,175.75862 344.85908,175.75862 Z"
         id="path205" />
      <path
         d="M 354.76409,169.14362 362.30659,178.19112 354.76409,187.23862 V 184.92862 L 360.27659,178.19112 354.76409,171.45362 Z"
         id="path207" />
    </g>
  </g>
</svg>
