<svg xmlns="http://www.w3.org/2000/svg" width="418.673" height="115.63" viewBox="0 0 392.506 108.403"><g font-weight="400" font-family="DejaVuSansMono Nerd Font" letter-spacing="0" word-spacing="0" fill="#fff"><g style="line-height:125%;text-decoration-line:underline" font-size="27.5" text-decoration="underline"><path d="M4.015 18.665q3.424 0 4.78-1.679 1.356-1.692 1.356-6.096 0-4.445-1.356-6.123-1.343-1.692-4.78-1.692h-1.29v15.59h1.29zM4.069.845q4.592 0 6.767 2.445 2.175 2.444 2.175 7.6 0 5.13-2.175 7.573-2.175 2.43-6.767 2.43H0V.847h4.069zM29.635 12.756v1.209H18.933v.08q0 2.458 1.276 3.8 1.289 1.343 3.625 1.343 1.182 0 2.47-.376 1.29-.376 2.754-1.141v2.457q-1.41.578-2.726.86-1.303.295-2.525.295-3.504 0-5.478-2.095-1.974-2.108-1.974-5.8 0-3.6 1.934-5.748 1.933-2.148 5.156-2.148 2.873 0 4.525 1.947 1.665 1.947 1.665 5.317zm-2.47-.725q-.054-2.175-1.035-3.303-.966-1.141-2.793-1.141-1.785 0-2.94 1.181-1.155 1.182-1.37 3.277l8.137-.014zM39.303 21.162V7.775h-4.257v-1.92h6.728v15.307q0 2.619-1.209 4.028-1.195 1.424-3.41 1.424h-3.411v-2.095h3.142q1.208 0 1.813-.846.604-.832.604-2.51zm0-21.162h2.47v3.129h-2.47V0zM57.216 13.334h-.82q-2.161 0-3.262.765-1.088.752-1.088 2.256 0 1.356.819 2.108.82.752 2.27.752 2.04 0 3.209-1.41 1.168-1.423 1.181-3.92v-.551h-2.31zm4.793-1.02v8.58h-2.484v-2.23q-.792 1.343-2 1.988-1.196.631-2.914.631-2.297 0-3.666-1.29-1.37-1.302-1.37-3.477 0-2.51 1.679-3.813 1.692-1.303 4.954-1.303h3.317v-.39q-.013-1.799-.913-2.604-.9-.82-2.873-.82-1.263 0-2.552.363-1.289.363-2.51 1.061V6.54q1.369-.524 2.618-.78 1.262-.268 2.444-.268 1.866 0 3.182.55 1.33.551 2.148 1.652.51.671.725 1.665.215.98.215 2.954zM72.604 18.61L77.317.847h2.806l-5.868 20.048h-3.29L65.099.846h2.806l4.7 17.765zM83.494 15.2V5.881h2.47v9.32q0 2.027.712 2.98.725.954 2.229.954 1.746 0 2.672-1.222.927-1.236.927-3.532v-8.5h2.484v15.013h-2.484v-2.256q-.658 1.302-1.8 1.974-1.128.671-2.645.671-2.31 0-3.437-1.504-1.128-1.517-1.128-4.579zM111.007 1.53v2.753q-1.235-.792-2.484-1.195-1.235-.402-2.498-.402-1.92 0-3.034.9-1.115.885-1.115 2.403 0 1.33.725 2.027.739.699 2.74 1.169l1.423.322q2.82.658 4.109 2.068 1.289 1.41 1.289 3.84 0 2.86-1.773 4.364-1.772 1.504-5.156 1.504-1.41 0-2.833-.309-1.423-.295-2.86-.9v-2.886q1.544.98 2.914 1.436 1.383.457 2.78.457 2.054 0 3.195-.913 1.141-.927 1.141-2.578 0-1.504-.792-2.297-.779-.792-2.726-1.221l-1.45-.336q-2.793-.631-4.055-1.907-1.262-1.276-1.262-3.424 0-2.686 1.799-4.297 1.813-1.625 4.807-1.625 1.155 0 2.43.269 1.276.255 2.686.779zM123.387 13.334h-.819q-2.162 0-3.263.765-1.087.752-1.087 2.256 0 1.356.819 2.108t2.27.752q2.04 0 3.208-1.41 1.169-1.423 1.182-3.92v-.551h-2.31zm4.794-1.02v8.58h-2.484v-2.23q-.792 1.343-2 1.988-1.196.631-2.915.631-2.296 0-3.665-1.29-1.37-1.302-1.37-3.477 0-2.51 1.679-3.813 1.691-1.303 4.954-1.303h3.317v-.39q-.013-1.799-.913-2.604-.9-.82-2.874-.82-1.262 0-2.55.363-1.29.363-2.512 1.061V6.54q1.37-.524 2.619-.78 1.262-.268 2.443-.268 1.867 0 3.183.55 1.33.551 2.148 1.652.51.671.725 1.665.215.98.215 2.954zM144.617 11.575v9.319h-2.484v-9.32q0-2.027-.712-2.98-.712-.954-2.23-.954-1.731 0-2.671 1.236-.927 1.222-.927 3.518v8.5h-2.47V5.854h2.47V8.11q.658-1.289 1.786-1.947 1.128-.671 2.672-.671 2.296 0 3.424 1.517 1.142 1.504 1.142 4.566zM160.112 6.378v2.417q-1.06-.618-2.135-.926-1.074-.31-2.188-.31-1.679 0-2.511.551-.82.537-.82 1.652 0 1.007.618 1.504.618.497 3.075.967l.994.188q1.84.349 2.78 1.396.953 1.048.953 2.726 0 2.229-1.585 3.491-1.584 1.249-4.404 1.249-1.115 0-2.337-.242-1.221-.228-2.645-.698v-2.551q1.383.711 2.645 1.074 1.263.35 2.39.35 1.639 0 2.538-.659.9-.671.9-1.866 0-1.72-3.29-2.377l-.107-.027-.927-.188q-2.135-.416-3.115-1.396-.98-.994-.98-2.7 0-2.161 1.464-3.33 1.463-1.181 4.176-1.181 1.208 0 2.323.228 1.114.215 2.188.658zM164.745.846h3.625l3.465 10.205 3.49-10.205h3.64v20.048h-2.511V3.182l-3.572 10.568h-2.054l-3.586-10.568v17.712h-2.497V.846zM188.405 7.587q-1.88 0-2.847 1.463-.967 1.464-.967 4.337 0 2.86.967 4.338.967 1.463 2.847 1.463 1.893 0 2.86-1.463.966-1.477.966-4.338 0-2.873-.966-4.337-.967-1.463-2.86-1.463zm0-2.095q3.128 0 4.78 2.028 1.665 2.027 1.665 5.867 0 3.854-1.652 5.882-1.651 2.014-4.793 2.014-3.13 0-4.78-2.014-1.652-2.028-1.652-5.882 0-3.84 1.651-5.867 1.652-2.028 4.78-2.028zM210.789 11.575v9.319h-2.485v-9.32q0-2.027-.711-2.98-.712-.954-2.23-.954-1.731 0-2.671 1.236-.927 1.222-.927 3.518v8.5h-2.47V5.854h2.47V8.11q.658-1.289 1.786-1.947 1.128-.671 2.672-.671 2.296 0 3.424 1.517 1.142 1.504 1.142 4.566zM221.49 7.587q-1.88 0-2.846 1.463-.967 1.464-.967 4.337 0 2.86.967 4.338.967 1.463 2.846 1.463 1.894 0 2.86-1.463.967-1.477.967-4.338 0-2.873-.966-4.337-.967-1.463-2.86-1.463zm0-2.095q3.13 0 4.78 2.028 1.666 2.027 1.666 5.867 0 3.854-1.652 5.882-1.651 2.014-4.794 2.014-3.128 0-4.78-2.014-1.651-2.028-1.651-5.882 0-3.84 1.651-5.867 1.652-2.028 4.78-2.028zM248.171.846h3.438l6.767 16.503V.846h2.619v20.048h-3.438L250.79 4.39v16.503h-2.619V.846zM277.78 12.756v1.209h-10.702v.08q0 2.458 1.275 3.8 1.29 1.343 3.626 1.343 1.181 0 2.47-.376 1.29-.376 2.753-1.141v2.457q-1.41.578-2.726.86-1.302.295-2.524.295-3.505 0-5.479-2.095-1.973-2.108-1.973-5.8 0-3.6 1.933-5.748 1.934-2.148 5.156-2.148 2.874 0 4.525 1.947 1.666 1.947 1.666 5.317zm-2.471-.725q-.054-2.175-1.034-3.303-.967-1.141-2.793-1.141-1.786 0-2.94 1.181-1.156 1.182-1.37 3.277l8.137-.014zM294.9 8.956q-.792-.617-1.611-.9-.82-.281-1.8-.281-2.31 0-3.531 1.45-1.222 1.45-1.222 4.19v7.479h-2.484V5.854h2.484v2.941q.618-1.598 1.893-2.444 1.29-.86 3.048-.86.913 0 1.706.23.792.227 1.517.71v2.525zM307.455 7.775V0h2.47v20.894h-2.47V19q-.618 1.115-1.652 1.706-1.02.577-2.363.577-2.726 0-4.297-2.108-1.558-2.122-1.558-5.841 0-3.666 1.571-5.747 1.572-2.095 4.284-2.095 1.356 0 2.39.59 1.034.578 1.625 1.693zm-7.265 5.612q0 2.874.914 4.338.913 1.463 2.698 1.463 1.786 0 2.713-1.477.94-1.477.94-4.324 0-2.86-.94-4.323-.927-1.477-2.713-1.477-1.785 0-2.698 1.463-.914 1.464-.914 4.337zM332.148.846h11.803v2.283h-9.077v5.908h8.231v2.283h-8.23v9.574h-2.727V.846zM353.834 7.587q-1.88 0-2.846 1.463-.967 1.464-.967 4.337 0 2.86.967 4.338.966 1.463 2.846 1.463 1.894 0 2.86-1.463.967-1.477.967-4.338 0-2.873-.967-4.337-.966-1.463-2.86-1.463zm0-2.095q3.129 0 4.78 2.028 1.666 2.027 1.666 5.867 0 3.854-1.652 5.882-1.652 2.014-4.794 2.014-3.128 0-4.78-2.014-1.652-2.028-1.652-5.882 0-3.84 1.652-5.867 1.652-2.028 4.78-2.028zM376.218 11.575v9.319h-2.484v-9.32q0-2.027-.712-2.98-.711-.954-2.229-.954-1.732 0-2.672 1.236-.926 1.222-.926 3.518v8.5h-2.47V5.854h2.47V8.11q.658-1.289 1.786-1.947 1.128-.671 2.672-.671 2.296 0 3.424 1.517 1.141 1.504 1.141 4.566zM386.893 1.584v4.27h5.613v1.92h-5.613v8.165q0 1.665.631 2.323.632.658 2.203.658h2.78v1.974h-3.022q-2.78 0-3.921-1.115-1.141-1.114-1.141-3.84V7.775h-4.015v-1.92h4.015v-4.27h2.47z"/></g><g style="line-height:125%" font-size="17.5"><path d="M6.721 56.083H6.2q-1.376 0-2.076.487-.693.478-.693 1.435 0 .863.522 1.342.52.478 1.444.478 1.299 0 2.042-.897.743-.906.752-2.495v-.35H6.72zm3.05-.65v5.46h-1.58v-1.418q-.504.855-1.273 1.265-.76.401-1.855.401-1.46 0-2.332-.82-.872-.829-.872-2.213 0-1.598 1.068-2.427 1.077-.829 3.153-.829h2.11v-.248q-.008-1.145-.58-1.657-.573-.521-1.829-.521-.803 0-1.623.23-.82.231-1.598.675V51.76q.871-.333 1.666-.496.803-.17 1.555-.17 1.188 0 2.025.35.846.35 1.368 1.05.324.428.461 1.06.137.624.137 1.88zM19.094 56.117q0-1.829-.58-2.76-.582-.931-1.718-.931-1.145 0-1.735.94-.59.93-.59 2.75 0 1.812.59 2.752.59.94 1.735.94 1.136 0 1.717-.931.581-.931.581-2.76zm-4.623-3.572q.376-.7 1.034-1.076.667-.376 1.538-.376 1.727 0 2.718 1.333.991 1.324.991 3.657 0 2.367-1 3.717-.991 1.341-2.726 1.341-.854 0-1.512-.367-.65-.376-1.043-1.085v1.205H12.9V47.598h1.572v4.947zM30.844 60.406q-.633.368-1.308.547-.666.188-1.367.188-2.222 0-3.478-1.333-1.247-1.333-1.247-3.691 0-2.358 1.247-3.691 1.256-1.333 3.478-1.333.692 0 1.35.179.658.18 1.325.555v1.65q-.624-.556-1.257-.804-.623-.247-1.418-.247-1.478 0-2.273.957-.795.957-.795 2.734 0 1.769.795 2.734.803.957 2.273.957.82 0 1.47-.247.65-.257 1.205-.787v1.632zM39.636 52.545v-4.947h1.572v13.296h-1.572v-1.205q-.393.709-1.05 1.085-.65.367-1.505.367-1.734 0-2.734-1.341-.991-1.35-.991-3.717 0-2.333 1-3.657 1-1.333 2.725-1.333.863 0 1.521.376.658.367 1.034 1.076zm-4.623 3.572q0 1.829.581 2.76.582.931 1.718.931 1.136 0 1.726-.94.598-.94.598-2.751 0-1.82-.598-2.752-.59-.94-1.726-.94-1.136 0-1.718.932-.58.931-.58 2.76zM52.334 55.715v.77h-6.81v.05q0 1.564.811 2.419.82.854 2.308.854.752 0 1.572-.239.82-.24 1.752-.726v1.564q-.898.367-1.735.546-.829.188-1.607.188-2.23 0-3.486-1.333-1.256-1.341-1.256-3.691 0-2.29 1.23-3.657 1.231-1.367 3.282-1.367 1.828 0 2.88 1.239 1.059 1.239 1.059 3.383zm-1.572-.461q-.034-1.384-.658-2.102-.615-.726-1.778-.726-1.136 0-1.87.751-.736.752-.873 2.085l5.179-.009zM62.443 47.598v1.307h-1.786q-.846 0-1.18.35-.324.342-.324 1.222v.846h3.29v1.222h-3.29v8.349H57.58v-8.349h-2.555v-1.222h2.555v-.666q0-1.573.717-2.316.727-.743 2.256-.743h1.889zM71.218 56.031q0-1.768-.58-2.683-.573-.922-1.676-.922-1.153 0-1.76.922-.607.915-.607 2.683 0 1.77.607 2.7.615.924 1.777.924 1.086 0 1.658-.932.581-.931.581-2.692zm1.573 4.247q0 2.154-1.017 3.264-1.017 1.111-2.991 1.111-.65 0-1.359-.12-.709-.119-1.418-.35v-1.555q.837.393 1.52.581.684.188 1.257.188 1.273 0 1.854-.692.581-.692.581-2.196V59.373q-.376.803-1.025 1.196-.65.393-1.58.393-1.676 0-2.675-1.342-1-1.341-1-3.589 0-2.255 1-3.597t2.674-1.342q.923 0 1.564.368.64.367 1.042 1.136v-1.239h1.573v8.921zM83.395 54.963v5.93h-1.581v-5.93q0-1.29-.453-1.897-.453-.606-1.418-.606-1.103 0-1.7.786-.59.777-.59 2.239v5.409H76.08V47.598h1.573v5.16q.418-.82 1.136-1.238.718-.427 1.7-.427 1.462 0 2.18.965.726.957.726 2.905zM87.129 51.323h4.025v8.349h3.118v1.222h-7.81v-1.222h3.12v-7.127h-2.453v-1.222zm2.452-3.725h1.573v1.99H89.58v-1.99zM100.596 61.064v-8.519h-2.709v-1.222h4.281v9.741q0 1.667-.77 2.564-.76.906-2.17.906h-2.17V63.2h2q.769 0 1.153-.539.385-.53.385-1.598zm0-13.466h1.572v1.99h-1.572v-1.99zM108.013 47.598h1.623v7.699l4.127-3.974h1.914l-3.768 3.606 4.358 5.965h-1.923l-3.537-4.94-1.17 1.103v3.837h-1.624V47.598zM121.984 57.424q0 1.06.384 1.598.393.539 1.154.539h1.837v1.333h-1.991q-1.41 0-2.188-.906-.769-.906-.769-2.564v-8.69h-2.52v-1.23h4.093v9.92zM132.827 52.297q.29-.615.735-.905.453-.3 1.085-.3 1.154 0 1.624.898.478.888.478 3.358v5.546h-1.435v-5.478q0-2.025-.231-2.512-.222-.496-.82-.496-.684 0-.94.53-.248.521-.248 2.478v5.478h-1.436v-5.478q0-2.05-.247-2.529-.24-.479-.872-.479-.624 0-.872.53-.239.521-.239 2.478v5.478h-1.427v-9.57h1.427v.82q.282-.513.7-.778.428-.273.966-.273.65 0 1.077.299.436.299.675.905zM146.559 54.963v5.93h-1.581v-5.93q0-1.29-.453-1.897-.453-.606-1.418-.606-1.103 0-1.7.786-.59.777-.59 2.239v5.409h-1.573v-9.57h1.573v1.435q.418-.82 1.136-1.24.718-.426 1.7-.426 1.462 0 2.18.965.726.957.726 2.905zM153.37 52.426q-1.197 0-1.812.93-.616.932-.616 2.76 0 1.821.616 2.76.615.932 1.811.932 1.205 0 1.82-.931.615-.94.615-2.76 0-1.829-.615-2.76-.615-.931-1.82-.931zm0-1.333q1.99 0 3.041 1.29 1.06 1.29 1.06 3.734 0 2.452-1.051 3.743-1.051 1.281-3.05 1.281-1.992 0-3.043-1.281-1.05-1.29-1.05-3.743 0-2.444 1.05-3.734 1.051-1.29 3.042-1.29zM161.837 59.689v4.845h-1.58v-13.21h1.58v1.221q.393-.71 1.043-1.076.658-.376 1.512-.376 1.735 0 2.717 1.341.992 1.342.992 3.717 0 2.333-.992 3.666-.99 1.324-2.717 1.324-.871 0-1.53-.367-.649-.376-1.025-1.085zm4.614-3.572q0-1.829-.58-2.76-.573-.931-1.71-.931-1.145 0-1.734.94-.59.93-.59 2.75 0 1.812.59 2.752.59.94 1.734.94 1.137 0 1.71-.931.58-.931.58-2.76zM171.997 56.151q0 1.829.573 2.76.58.932 1.717.932t1.718-.932q.59-.94.59-2.76 0-1.82-.59-2.751-.581-.94-1.718-.94-1.136 0-1.717.931-.573.932-.573 2.76zm4.597 3.555q-.384.709-1.042 1.094-.65.376-1.513.376-1.717 0-2.717-1.325-.991-1.333-.991-3.666 0-2.375.991-3.717.991-1.341 2.717-1.341.855 0 1.504.376.658.367 1.051 1.076v-1.222h1.581v13.21h-1.58v-4.861zM189.557 53.297q-.504-.393-1.026-.572-.52-.18-1.145-.18-1.47 0-2.247.923-.777.923-.777 2.666v4.76h-1.581v-9.57h1.58v1.87q.394-1.016 1.205-1.555.82-.546 1.94-.546.581 0 1.085.145t.966.453v1.606zM198.53 51.656v1.539q-.676-.393-1.36-.59-.683-.197-1.392-.197-1.069 0-1.598.35-.522.343-.522 1.052 0 .64.394.957.393.316 1.956.615l.633.12q1.17.222 1.768.888.607.667.607 1.735 0 1.418-1.008 2.222-1.008.794-2.803.794-.71 0-1.487-.153-.777-.146-1.683-.445V58.92q.88.453 1.683.683.803.222 1.521.222 1.043 0 1.615-.418.573-.428.573-1.188 0-1.094-2.094-1.512l-.068-.018-.59-.12q-1.358-.264-1.982-.888-.624-.632-.624-1.717 0-1.376.931-2.12.932-.751 2.658-.751.769 0 1.478.145.71.136 1.393.418zM205.989 48.606v2.717h3.572v1.222h-3.572v5.195q0 1.06.401 1.479.402.418 1.402.418h1.769v1.257h-1.923q-1.769 0-2.495-.71-.726-.709-.726-2.444v-5.195h-2.555v-1.222h2.555v-2.717h1.572zM212.936 57.27v-5.93h1.572v5.93q0 1.29.453 1.897.461.607 1.418.607 1.111 0 1.7-.777.59-.787.59-2.248V51.34h1.581v9.554h-1.58v-1.436q-.42.829-1.146 1.256-.717.427-1.683.427-1.47 0-2.187-.957-.718-.965-.718-2.913zM222.651 51.323h1.632l2.778 8.032 2.785-8.032h1.632l-3.4 9.57h-2.026l-3.4-9.57zM232.324 51.323h1.555l1.667 7.733 1.367-4.939h1.341l1.385 4.94 1.666-7.734h1.555l-2.239 9.57h-1.504l-1.53-5.246-1.52 5.247h-1.504l-2.239-9.57zM252.405 51.323l-3.427 4.58 3.76 4.99h-1.82l-2.803-3.836-2.794 3.837h-1.82l3.76-4.99-3.427-4.58h1.743l2.538 3.46 2.521-3.46h1.769zM260.71 57.817q-.393 1-1 2.632-.845 2.256-1.136 2.752-.393.666-.982 1-.59.333-1.376.333h-1.265v-1.316h.932q.692 0 1.085-.402.393-.401 1-2.076l-3.7-9.417h1.666l2.837 7.486 2.794-7.486h1.666l-2.52 6.494zM265.846 51.306h6.947v1.436l-5.494 6.87h5.494v1.282h-7.152V59.44l5.494-6.879h-5.29v-1.256zM5.986 71.532l-1.82 6.528h3.64l-1.82-6.528zm-1.042-1.521h2.093l3.905 12.758H9.156l-.94-3.324H3.749l-.923 3.324H1.039L4.944 70.01zM14.403 76.676v4.674h2.042q1.504 0 2.145-.521.641-.53.641-1.735 0-1.247-.675-1.828-.675-.59-2.11-.59h-2.043zm0-5.247v3.846h2.008q1.248 0 1.803-.479.564-.478.564-1.546 0-.966-.555-1.393-.547-.428-1.812-.428h-2.008zm-1.735-1.418h3.777q1.957 0 3.017.846 1.06.846 1.06 2.393 0 1.17-.565 1.845-.555.675-1.675.846 1.257.188 1.966 1.077.718.88.718 2.247 0 1.735-1.137 2.623-1.136.88-3.384.88h-3.777V70.012zM30.946 82.316q-.658.35-1.35.52-.692.18-1.47.18-2.452 0-3.81-1.734-1.35-1.735-1.35-4.88 0-3.127 1.358-4.87 1.367-1.752 3.802-1.752.778 0 1.47.18.692.17 1.35.521v1.769q-.632-.521-1.359-.795-.726-.273-1.46-.273-1.684 0-2.522 1.298-.837 1.3-.837 3.923 0 2.614.837 3.913.838 1.299 2.521 1.299.752 0 1.47-.273.726-.274 1.35-.795v1.769zM36.03 81.35q2.18 0 3.042-1.068.863-1.077.863-3.88 0-2.828-.863-3.896-.854-1.077-3.042-1.077h-.82v9.921h.82zm.034-11.339q2.923 0 4.307 1.555 1.384 1.555 1.384 4.837 0 3.264-1.384 4.819-1.384 1.547-4.307 1.547h-2.589V70.01h2.59zM44.515 70.011h7.571v1.453h-5.845v3.776h5.589v1.453H46.24v4.623h6.008v1.453h-7.734V70.01zM55.35 70.011h7.511v1.453h-5.776v3.76h5.238v1.452h-5.238v6.093H55.35V70.01zM73.32 81.718q-.692.64-1.563.974-.863.324-1.872.324-2.427 0-3.777-1.734-1.35-1.743-1.35-4.88 0-3.127 1.367-4.87 1.368-1.752 3.803-1.752.803 0 1.538.231.735.222 1.419.684v1.768q-.693-.658-1.419-.965-.726-.316-1.538-.316-1.683 0-2.53 1.307-.837 1.299-.837 3.914 0 2.657.812 3.939.82 1.273 2.512 1.273.573 0 1-.128.436-.137.786-.419v-3.426h-1.854v-1.419h3.503v5.495zM75.585 70.011h1.734v5.23h4.726v-5.23h1.734v12.758h-1.734v-6.076h-4.726v6.076h-1.734V70.01zM86.659 70.011h7.084v1.453h-2.675v9.852h2.675v1.453h-7.084v-1.453h2.674v-9.852H86.66V70.01zM96.4 82.247v-2.016q.778.692 1.607 1.042.828.342 1.717.342 1.222 0 1.7-.632.488-.641.488-2.376v-7.143h-3.256V70.01h4.982v8.596q0 2.41-.906 3.41-.897 1-3.008 1-.82 0-1.632-.189-.812-.188-1.692-.58zM107.167 70.011h1.734v5.674l5.392-5.674h2.025l-4.964 5.212 5.11 7.546h-2.085l-4.162-6.392-1.316 1.401v4.99h-1.734V70.012zM118.36 70.011h1.735v11.305h6.161v1.453h-7.895V70.01zM127.786 70.011h2.307l2.204 6.494 2.222-6.494h2.316v12.758h-1.598V71.498l-2.273 6.725h-1.308l-2.281-6.725v11.27h-1.59V70.012zM138.766 70.011h2.187l4.307 10.502V70.01h1.666v12.758h-2.187l-4.307-10.502v10.502h-1.666V70.01zM155.839 76.403q0-2.812-.581-4.017-.573-1.204-1.889-1.204-1.307 0-1.888 1.204-.573 1.205-.573 4.017 0 2.802.573 4.007.58 1.205 1.888 1.205 1.316 0 1.889-1.196.58-1.205.58-4.016zm1.803 0q0 3.332-1.06 4.973-1.051 1.64-3.213 1.64t-3.213-1.632q-1.05-1.632-1.05-4.981 0-3.341 1.05-4.982 1.06-1.64 3.213-1.64 2.162 0 3.213 1.64 1.06 1.64 1.06 4.982zM162.042 71.43v4.793h2q1.196 0 1.863-.632.675-.633.675-1.769t-.667-1.76q-.666-.633-1.871-.633h-2zm-1.726-1.419h3.726q2.136 0 3.238.974 1.103.966 1.103 2.837 0 1.888-1.103 2.854-1.093.966-3.238.966h-2v5.127h-1.726V70.01zM174.757 83q-.06 0-.17.008-.112.01-.18.01-2.136 0-3.196-1.641-1.051-1.641-1.051-4.974 0-3.34 1.05-4.981 1.06-1.64 3.214-1.64 2.162 0 3.213 1.64 1.06 1.64 1.06 4.981 0 2.513-.59 4.05-.581 1.53-1.77 2.146l1.71 1.623-1.29.855-2-2.077zm2.136-6.597q0-2.812-.58-4.017-.573-1.204-1.89-1.204-1.307 0-1.888 1.204-.572 1.205-.572 4.017 0 2.802.572 4.007.581 1.205 1.889 1.205 1.316 0 1.888-1.196.581-1.205.581-4.016zM186.182 76.744q.666.171 1.136.65.47.47 1.17 1.888l1.735 3.487h-1.854l-1.52-3.222q-.659-1.376-1.189-1.769-.52-.401-1.367-.401h-1.649v5.392h-1.735V70.01h3.555q2.102 0 3.222.948 1.119.949 1.119 2.743 0 1.265-.692 2.068-.684.795-1.931.974zm-3.538-5.315v4.53h1.888q1.24 0 1.846-.556.607-.556.607-1.7 0-1.103-.65-1.684-.64-.59-1.87-.59h-1.821zM198.862 70.447v1.751q-.786-.504-1.58-.76-.787-.256-1.59-.256-1.222 0-1.931.572-.71.564-.71 1.53 0 .846.462 1.29.47.444 1.743.743l.906.205q1.795.42 2.615 1.316.82.898.82 2.444 0 1.82-1.128 2.777-1.128.957-3.281.957-.897 0-1.803-.196-.906-.188-1.82-.573V80.41q.983.624 1.854.914.88.291 1.769.291 1.307 0 2.034-.581.726-.59.726-1.64 0-.958-.504-1.462-.496-.504-1.735-.777l-.923-.214q-1.777-.402-2.58-1.213-.803-.812-.803-2.18 0-1.708 1.145-2.734 1.153-1.034 3.059-1.034.735 0 1.546.171.812.163 1.71.496zM201.144 70.011h9.732v1.453h-3.99v11.305h-1.735V71.464h-4.007V70.01zM212.526 77.872v-7.861h1.734v8.647q0 .932.052 1.333.05.394.179.607.273.504.786.76.521.257 1.256.257.744 0 1.256-.256.513-.257.795-.76.128-.214.18-.608.05-.393.05-1.315V70.01h1.727v7.861q0 1.957-.248 2.786-.24.82-.837 1.359-.564.504-1.29.752-.727.247-1.633.247-.897 0-1.623-.247-.727-.248-1.3-.752-.589-.53-.837-1.368-.247-.846-.247-2.777zM227.06 81.316l3-11.305h1.786l-3.734 12.758h-2.094l-3.734-12.758h1.786l2.99 11.305zM232.324 70.011h1.684l1.221 10.356 1.453-6.853h1.803l1.47 6.87 1.222-10.373h1.683l-1.905 12.758h-1.632l-1.735-7.58-1.726 7.58h-1.632l-1.906-12.758zM243.586 70.011h1.855l2.802 4.81 2.854-4.81h1.855l-3.82 5.999 4.093 6.759h-1.854l-3.128-5.495-3.375 5.495h-1.863l4.273-6.76-3.692-5.998zM253.695 70.011h1.837l3.11 5.631 3.102-5.631h1.855l-4.093 7.032v5.726h-1.735v-5.726l-4.076-7.032zM265.427 70.011h8.28v1.316l-6.665 9.989h6.853v1.453h-8.656v-1.316l6.486-9.99h-6.298v-1.452zM5.986 96.176q-1.196 0-1.811.93-.615.932-.615 2.76 0 1.821.615 2.76.615.932 1.811.932 1.205 0 1.82-.931.616-.94.616-2.76 0-1.829-.616-2.76-.615-.931-1.82-.931zm0-1.333q1.991 0 3.042 1.29 1.06 1.29 1.06 3.734 0 2.452-1.051 3.743-1.051 1.281-3.05 1.281-1.992 0-3.043-1.281-1.05-1.29-1.05-3.743 0-2.444 1.05-3.734 1.051-1.29 3.042-1.29zM18.983 98.278q0-2.812-.58-4.017-.573-1.204-1.89-1.204-1.307 0-1.888 1.204-.572 1.205-.572 4.017 0 2.802.572 4.007.581 1.205 1.889 1.205 1.316 0 1.888-1.196.581-1.205.581-4.016zm1.803 0q0 3.332-1.06 4.973-1.05 1.64-3.212 1.64T13.3 103.26q-1.051-1.632-1.051-4.981 0-3.341 1.05-4.982 1.06-1.64 3.214-1.64 2.162 0 3.213 1.64 1.06 1.64 1.06 4.982zM25.905 98.235q0-.47.324-.812.334-.342.795-.342.478 0 .82.342.342.342.342.812 0 .478-.342.812-.333.333-.82.333-.479 0-.803-.325-.316-.325-.316-.82zm1.136-5.213q-1.205 0-1.803 1.3-.59 1.298-.59 3.956 0 2.649.59 3.947.598 1.3 1.803 1.3 1.213 0 1.803-1.3.598-1.298.598-3.947 0-2.658-.598-3.957-.59-1.299-1.803-1.299zm0-1.367q2.042 0 3.085 1.675 1.05 1.675 1.05 4.948 0 3.264-1.05 4.939-1.043 1.674-3.085 1.674t-3.085-1.674q-1.042-1.675-1.042-4.94 0-3.272 1.042-4.947 1.043-1.675 3.085-1.675zM37.568 98.585q-1.153 0-1.786.65-.623.64-.623 1.82 0 1.179.632 1.837.64.65 1.777.65 1.162 0 1.786-.642.633-.649.633-1.845 0-1.171-.641-1.82-.633-.65-1.778-.65zm-1.504-.718q-1.102-.282-1.726-1.05-.615-.77-.615-1.855 0-1.52 1.034-2.41 1.034-.897 2.811-.897 1.786 0 2.82.897 1.034.89 1.034 2.41 0 1.085-.624 1.854-.615.77-1.717 1.051 1.282.282 1.957 1.137.683.854.683 2.213 0 1.726-1.102 2.7-1.102.974-3.05.974-1.949 0-3.051-.965-1.094-.974-1.094-2.692 0-1.367.675-2.222.684-.863 1.965-1.145zm-.623-2.742q0 1.025.547 1.563.546.539 1.58.539 1.043 0 1.59-.539.547-.538.547-1.563 0-1.043-.547-1.59-.539-.547-1.59-.547-1.034 0-1.58.556-.547.547-.547 1.58zM55.547 95.073h4.025v8.349h3.118v1.222h-7.81v-1.222H58v-7.127h-2.453v-1.222zm2.452-3.725h1.573v1.99h-1.573v-1.99zM65.604 91.886h7.084v1.453h-2.675v9.852h2.675v1.453h-7.084v-1.453h2.675v-9.852h-2.675v-1.453zM79.874 101.174q0 1.06.385 1.598.393.539 1.153.539h1.838v1.333h-1.991q-1.41 0-2.188-.906-.769-.906-.769-2.564v-8.69h-2.52v-1.23h4.092v9.92zM86.779 91.886h1.734v11.305h6.161v1.453H86.78V91.886zM97.776 103.19h2.683v-9.749l-2.888.65v-1.573l2.87-.632h1.727v11.305h2.649v1.453h-7.041v-1.453zM125.17 106.267v1.23h-.546q-2.128 0-2.854-.632-.718-.632-.718-2.52v-2.043q0-1.29-.461-1.786-.453-.495-1.65-.495h-.53v-1.222h.53q1.205 0 1.658-.487.453-.487.453-1.769v-2.05q0-1.89.718-2.513.726-.632 2.854-.632h.547v1.222h-.598q-1.197 0-1.564.376-.359.367-.359 1.58v2.12q0 1.341-.393 1.948-.384.606-1.324.82.948.23 1.333.837.384.607.384 1.94v2.12q0 1.221.359 1.589.367.367 1.564.367h.598zM128.94 106.267h.58q1.205 0 1.573-.376.367-.376.367-1.58v-2.12q0-1.333.384-1.94.385-.606 1.333-.837-.94-.214-1.333-.82-.384-.607-.384-1.948v-2.12q0-1.204-.367-1.58-.368-.376-1.573-.376h-.58v-1.222h.529q2.128 0 2.845.632.718.624.718 2.512v2.051q0 1.282.453 1.769.462.487 1.666.487h.547v1.222h-.547q-1.204 0-1.666.495-.453.496-.453 1.786v2.042q0 1.889-.718 2.521-.717.633-2.845.633h-.53v-1.23zM152.062 91.348h3.623v1.222h-2.051v13.159h2.05v1.222h-3.622V91.348zM165.212 91.348v15.603h-3.623v-1.222h2.051v-13.16h-2.05v-1.221h3.622zM187.019 99.781q0-1.768-.581-2.683-.573-.922-1.675-.922-1.153 0-1.76.922-.607.915-.607 2.683 0 1.77.607 2.7.615.924 1.777.924 1.085 0 1.658-.932.581-.931.581-2.692zm1.572 4.247q0 2.154-1.017 3.264-1.016 1.111-2.99 1.111-.65 0-1.359-.12-.71-.119-1.418-.35v-1.555q.837.393 1.52.581.684.188 1.257.188 1.273 0 1.854-.692.581-.692.581-2.196V103.123q-.376.803-1.025 1.196-.65.393-1.581.393-1.675 0-2.675-1.342-1-1.341-1-3.589 0-2.255 1-3.597t2.675-1.342q.923 0 1.564.368.64.367 1.042 1.136v-1.239h1.572v8.921zM195.308 98.987q1.102 0 1.726-.795.632-.795.632-2.196 0-1.401-.632-2.196-.624-.795-1.726-.795-1.145 0-1.726.76-.582.753-.582 2.231 0 1.487.573 2.239.581.752 1.735.752zm-3.077 5.392v-1.59q.539.316 1.145.487.607.163 1.265.163 1.64 0 2.478-1.23.846-1.24.846-3.64-.402.854-1.128 1.315-.726.453-1.666.453-1.846 0-2.863-1.137-1.008-1.136-1.008-3.221 0-2.06 1.034-3.187 1.042-1.137 2.94-1.137 2.221 0 3.255 1.598 1.034 1.598 1.034 5.025 0 3.221-1.248 4.921-1.239 1.692-3.606 1.692-.623 0-1.256-.136-.632-.129-1.222-.376zM203.58 99.901q0 1.829.572 2.76.58.932 1.717.932t1.718-.932q.59-.94.59-2.76 0-1.82-.59-2.751-.581-.94-1.718-.94-1.136 0-1.717.931-.573.932-.573 2.76zm4.596 3.555q-.384.709-1.042 1.094-.65.376-1.513.376-1.717 0-2.717-1.325-.991-1.333-.991-3.666 0-2.375.991-3.717.991-1.341 2.717-1.341.855 0 1.504.376.658.367 1.051 1.076v-1.222h1.581v13.21h-1.58v-4.861zM220.438 104.19q-.658.351-1.35.522-.692.18-1.47.18-2.452 0-3.81-1.735-1.35-1.735-1.35-4.88 0-3.127 1.358-4.87 1.367-1.752 3.802-1.752.778 0 1.47.18.692.17 1.35.521v1.769q-.632-.521-1.358-.795-.727-.273-1.462-.273-1.683 0-2.52 1.298-.838 1.3-.838 3.923 0 2.614.838 3.913.837 1.299 2.52 1.299.752 0 1.47-.273.726-.274 1.35-.795v1.769zM231.23 103.593q-.692.64-1.563.974-.863.324-1.872.324-2.426 0-3.776-1.734-1.35-1.743-1.35-4.88 0-3.127 1.367-4.87 1.367-1.752 3.802-1.752.803 0 1.538.231.735.222 1.419.684v1.768q-.692-.658-1.419-.965-.726-.316-1.538-.316-1.683 0-2.53 1.307-.837 1.299-.837 3.914 0 2.657.812 3.939.82 1.273 2.512 1.273.573 0 1-.128.436-.137.786-.419v-3.426h-1.854v-1.419h3.503v5.495zM237.921 104.874q-.06 0-.17.01-.112.008-.18.008-2.136 0-3.196-1.64-1.051-1.641-1.051-4.974 0-3.34 1.051-4.981 1.06-1.64 3.213-1.64 2.162 0 3.213 1.64 1.06 1.64 1.06 4.981 0 2.513-.59 4.05-.581 1.53-1.769 2.146l1.709 1.623-1.29.855-2-2.077zm2.136-6.596q0-2.812-.58-4.017-.573-1.204-1.89-1.204-1.306 0-1.888 1.204-.572 1.205-.572 4.017 0 2.802.572 4.007.582 1.205 1.889 1.205 1.316 0 1.888-1.196.581-1.205.581-4.016zM263.163 97.979v1.486q-.641.504-1.256.744-.607.23-1.282.23-.769 0-1.735-.435-.188-.086-.282-.12-.658-.282-1.102-.384-.436-.103-.871-.103-.676 0-1.282.256-.598.248-1.222.786v-1.486q.666-.513 1.29-.744.624-.23 1.333-.23.453 0 .88.094.428.094 1.06.358.102.043.282.129.991.47 1.786.47.598 0 1.179-.257.59-.265 1.222-.794zM266.948 99.15h4.452v1.4h-4.452v-1.4zM280.415 94.637v3.794h3.803v1.453h-3.803v3.794h-1.436v-3.794h-3.793v-1.453h3.793v-3.794h1.436zM285.713 100.166h9.032v1.47h-9.032v-1.47zm0-3.47h9.032v1.453h-9.032v-1.452zM296.24 96.432v-1.555l9.032 3.571v1.419l-9.032 3.572v-1.564l7.263-2.709-7.263-2.734z"/></g></g></svg>