<?xml version="1.0" encoding="UTF-8" standalone="no"?>
<!-- Created with Inkscape (http://www.inkscape.org/) -->

<svg
   xmlns:dc="http://purl.org/dc/elements/1.1/"
   xmlns:cc="http://creativecommons.org/ns#"
   xmlns:rdf="http://www.w3.org/1999/02/22-rdf-syntax-ns#"
   xmlns:svg="http://www.w3.org/2000/svg"
   xmlns="http://www.w3.org/2000/svg"
   xmlns:sodipodi="http://sodipodi.sourceforge.net/DTD/sodipodi-0.dtd"
   xmlns:inkscape="http://www.inkscape.org/namespaces/inkscape"
   width="110.77395mm"
   height="30.593824mm"
   viewBox="0 0 392.50612 108.40331"
   id="svg2"
   version="1.1"
   inkscape:version="0.91 r13725"
   sodipodi:docname="DejaVuSansMono Nerd Font.svg">
  <defs
     id="defs4" />
  <sodipodi:namedview
     id="base"
     pagecolor="#ffffff"
     bordercolor="#666666"
     borderopacity="1.0"
     inkscape:pageopacity="0.0"
     inkscape:pageshadow="2"
     inkscape:zoom="0.7"
     inkscape:cx="-54.696746"
     inkscape:cy="-401.06167"
     inkscape:document-units="px"
     inkscape:current-layer="layer1"
     showgrid="false"
     inkscape:window-width="1861"
     inkscape:window-height="1056"
     inkscape:window-x="59"
     inkscape:window-y="24"
     inkscape:window-maximized="1" />
  <metadata
     id="metadata7">
    <rdf:RDF>
      <cc:Work
         rdf:about="">
        <dc:format>image/svg+xml</dc:format>
        <dc:type
           rdf:resource="http://purl.org/dc/dcmitype/StillImage" />
        <dc:title />
      </cc:Work>
    </rdf:RDF>
  </metadata>
  <g
     inkscape:label="Layer 1"
     inkscape:groupmode="layer"
     id="layer1"
     transform="translate(-64.696742,-80.040077)">
    <g
       style="font-style:normal;font-weight:normal;font-size:27.5px;line-height:125%;font-family:'DejaVuSansMono Nerd Font';text-decoration: underline;text-decoration-line: underline;letter-spacing:0px;word-spacing:0px;fill:#ffffff;fill-opacity:1;stroke:none;stroke-width:1px;stroke-linecap:butt;stroke-linejoin:miter;stroke-opacity:1"
       id="text4136">
      <path
         d="m 68.711636,98.704628 q 3.424072,0 4.780273,-1.678467 1.356201,-1.691894 1.356201,-6.096191 0,-4.44458 -1.356201,-6.123047 -1.342773,-1.691895 -4.780273,-1.691895 l -1.289063,0 0,15.5896 1.289063,0 z m 0.05371,-17.818604 q 4.592285,0 6.767578,2.443848 2.175293,2.443848 2.175293,7.600098 0,5.129394 -2.175293,7.573242 -2.175293,2.430418 -6.767578,2.430418 l -4.068604,0 0,-20.047606 4.068604,0 z"
         id="path4140"
         inkscape:connector-curvature="0" />
      <path
         d="m 94.331753,92.796425 0,1.208496 -10.701905,0 0,0.08057 q 0,2.457276 1.275635,3.800049 1.289063,1.342774 3.625489,1.342774 1.18164,0 2.470703,-0.375977 1.289062,-0.375976 2.752685,-1.141357 l 0,2.45727 q -1.409912,0.57739 -2.72583,0.85938 -1.30249,0.29541 -2.524414,0.29541 -3.504639,0 -5.478516,-2.094726 -1.973877,-2.108155 -1.973877,-5.800782 0,-3.598632 1.933594,-5.74707 1.933594,-2.148437 5.15625,-2.148437 2.873535,0 4.525147,1.947021 1.665039,1.947022 1.665039,5.317383 z M 91.86105,92.071327 q -0.05371,-2.175293 -1.033936,-3.303222 -0.966797,-1.141358 -2.792969,-1.141358 -1.785888,0 -2.940673,1.181641 -1.154786,1.18164 -1.369629,3.276367 l 8.137207,-0.01343 z"
         id="path4142"
         inkscape:connector-curvature="0" />
      <path
         d="m 103.99972,101.20219 0,-13.387455 -4.25659,0 0,-1.920166 6.72729,0 0,15.307621 q 0,2.6184 -1.20849,4.02832 -1.19507,1.42334 -3.41065,1.42334 l -3.410641,0 0,-2.09473 3.142091,0 q 1.2085,0 1.81274,-0.84595 0.60425,-0.83252 0.60425,-2.51098 z m 0,-21.162113 2.4707,0 0,3.128662 -2.4707,0 0,-3.128662 z"
         id="path4144"
         inkscape:connector-curvature="0" />
      <path
         d="m 121.91232,93.373817 -0.81909,0 q -2.16187,0 -3.26294,0.765381 -1.08765,0.751953 -1.08765,2.25586 0,1.356201 0.81909,2.108154 0.8191,0.751953 2.26929,0.751953 2.04102,0 3.20923,-1.409912 1.16821,-1.42334 1.18164,-3.920898 l 0,-0.550538 -2.30957,0 z m 4.7937,-1.020507 0,8.58032 -2.48413,0 0,-2.229002 q -0.79224,1.342772 -2.00073,1.987302 -1.19507,0.63111 -2.91382,0.63111 -2.29614,0 -3.66577,-1.28907 -1.36963,-1.302487 -1.36963,-3.47778 0,-2.510986 1.67847,-3.813476 1.69189,-1.30249 4.95483,-1.30249 l 3.31665,0 0,-0.389405 q -0.0134,-1.799316 -0.91309,-2.60498 -0.89965,-0.819092 -2.87353,-0.819092 -1.26221,0 -2.55127,0.362549 -1.28906,0.362549 -2.51099,1.060791 l 0,-2.470703 q 1.36963,-0.523682 2.61841,-0.778809 1.26221,-0.268554 2.44385,-0.268554 1.86645,0 3.18237,0.550537 1.32935,0.550537 2.14844,1.651611 0.51025,0.671387 0.7251,1.665039 0.21484,0.980225 0.21484,2.954102 z"
         id="path4146"
         inkscape:connector-curvature="0" />
      <path
         d="m 137.3005,98.650917 4.71314,-17.764893 2.80639,0 -5.86792,20.047606 -3.28979,0 -5.86792,-20.047606 2.8064,0 4.6997,17.764893 z"
         id="path4148"
         inkscape:connector-curvature="0" />
      <path
         d="m 148.1904,95.240273 0,-9.318848 2.4707,0 0,9.318848 q 0,2.027587 0.71167,2.980957 0.7251,0.953369 2.229,0.953369 1.74561,0 2.67212,-1.221924 0.92652,-1.235352 0.92652,-3.531494 l 0,-8.499756 2.48413,0 0,15.012205 -2.48413,0 0,-2.255857 q -0.65796,1.30249 -1.79932,1.973877 -1.12793,0.67139 -2.64526,0.67139 -2.30958,0 -3.4375,-1.50391 -1.12793,-1.517334 -1.12793,-4.578857 z"
         id="path4150"
         inkscape:connector-curvature="0" />
      <path
         d="m 175.70382,81.570839 0,2.752685 q -1.23535,-0.792236 -2.48413,-1.195068 -1.23535,-0.402832 -2.49756,-0.402832 -1.92016,0 -3.03466,0.899658 -1.11451,0.886231 -1.11451,2.403565 0,1.329345 0.7251,2.027588 0.73853,0.698242 2.73926,1.168213 l 1.42334,0.322265 q 2.81982,0.657959 4.10889,2.067871 1.28906,1.409912 1.28906,3.840332 0,2.860108 -1.77246,4.364014 -1.77246,1.50391 -5.15625,1.50391 -1.40991,0 -2.83325,-0.30884 -1.42334,-0.29541 -2.86011,-0.89966 l 0,-2.886963 q 1.54419,0.980225 2.91382,1.436768 1.38305,0.456543 2.77954,0.456543 2.05444,0 3.1958,-0.913086 1.14136,-0.926514 1.14136,-2.578125 0,-1.503906 -0.79224,-2.296143 -0.77881,-0.792236 -2.72583,-1.221924 l -1.4502,-0.335693 q -2.79296,-0.631103 -4.05517,-1.906738 -1.26221,-1.275635 -1.26221,-3.424072 0,-2.685547 1.79932,-4.296875 1.81274,-1.624756 4.80713,-1.624756 1.15478,0 2.43042,0.268554 1.27563,0.255127 2.68554,0.778809 z"
         id="path4152"
         inkscape:connector-curvature="0" />
      <path
         d="m 188.08419,93.373817 -0.81909,0 q -2.16186,0 -3.26294,0.765381 -1.08764,0.751953 -1.08764,2.25586 0,1.356201 0.81909,2.108154 0.81909,0.751953 2.26929,0.751953 2.04101,0 3.20922,-1.409912 1.16822,-1.42334 1.18164,-3.920898 l 0,-0.550538 -2.30957,0 z m 4.79371,-1.020507 0,8.58032 -2.48414,0 0,-2.229002 q -0.79223,1.342772 -2.00073,1.987302 -1.19507,0.63111 -2.91382,0.63111 -2.29614,0 -3.66577,-1.28907 -1.36963,-1.302487 -1.36963,-3.47778 0,-2.510986 1.67847,-3.813476 1.69189,-1.30249 4.95483,-1.30249 l 3.31665,0 0,-0.389405 q -0.0134,-1.799316 -0.91308,-2.60498 -0.89966,-0.819092 -2.87354,-0.819092 -1.2622,0 -2.55127,0.362549 -1.28906,0.362549 -2.51098,1.060791 l 0,-2.470703 q 1.36963,-0.523682 2.61841,-0.778809 1.2622,-0.268554 2.44384,-0.268554 1.86646,0 3.18238,0.550537 1.32934,0.550537 2.14843,1.651611 0.51026,0.671387 0.7251,1.665039 0.21485,0.980225 0.21485,2.954102 z"
         id="path4154"
         inkscape:connector-curvature="0" />
      <path
         d="m 209.31344,91.614784 0,9.318846 -2.48413,0 0,-9.318846 q 0,-2.027588 -0.71167,-2.980957 -0.71167,-0.953369 -2.229,-0.953369 -1.73218,0 -2.67212,1.235352 -0.92652,1.221923 -0.92652,3.518066 l 0,8.499754 -2.4707,0 0,-15.039061 2.4707,0 0,2.25586 q 0.65796,-1.289063 1.78589,-1.947022 1.12793,-0.671386 2.67212,-0.671386 2.29615,0 3.42407,1.517334 1.14136,1.503906 1.14136,4.565429 z"
         id="path4156"
         inkscape:connector-curvature="0" />
      <path
         d="m 224.80905,86.418251 0,2.416992 q -1.06079,-0.617676 -2.13501,-0.926513 -1.07422,-0.308838 -2.18872,-0.308838 -1.67847,0 -2.51099,0.550537 -0.81909,0.537109 -0.81909,1.651611 0,1.00708 0.61767,1.503906 0.61768,0.496827 3.07496,0.966797 l 0.99365,0.187989 q 1.8396,0.349121 2.77954,1.396484 0.95337,1.047363 0.95337,2.72583 0,2.229004 -1.58447,3.491214 -1.58448,1.24878 -4.4043,1.24878 -1.1145,0 -2.33643,-0.2417 -1.22192,-0.22827 -2.64526,-0.69825 l 0,-2.551265 q 1.38306,0.71167 2.64526,1.074219 1.26221,0.349121 2.39014,0.349121 1.63818,0 2.53784,-0.657959 0.89966,-0.671387 0.89966,-1.866455 0,-1.71875 -3.28979,-2.376709 l -0.10743,-0.02686 -0.92651,-0.187989 q -2.13501,-0.416259 -3.11523,-1.396484 -0.98023,-0.993652 -0.98023,-2.698975 0,-2.161865 1.46362,-3.330078 1.46363,-1.18164 4.17603,-1.18164 1.2085,0 2.323,0.228271 1.1145,0.214844 2.18872,0.657959 z"
         id="path4158"
         inkscape:connector-curvature="0" />
      <path
         d="m 229.44162,80.886024 3.62548,0 3.46436,10.205079 3.49121,-10.205079 3.63892,0 0,20.047606 -2.51099,0 0,-17.71118 -3.57178,10.567627 -2.05444,0 -3.58521,-10.567627 0,17.71118 -2.49755,0 0,-20.047606 z"
         id="path4160"
         inkscape:connector-curvature="0" />
      <path
         d="m 253.10128,87.626747 q -1.87988,0 -2.84668,1.463623 -0.96679,1.463623 -0.96679,4.337158 0,2.860108 0.96679,4.337159 0.9668,1.463623 2.84668,1.463623 1.89331,0 2.86011,-1.463623 0.9668,-1.477051 0.9668,-4.337159 0,-2.873535 -0.9668,-4.337158 -0.9668,-1.463623 -2.86011,-1.463623 z m 0,-2.094726 q 3.12867,0 4.78028,2.027587 1.66504,2.027588 1.66504,5.86792 0,3.85376 -1.65161,5.881348 -1.65162,2.014164 -4.79371,2.014164 -3.12866,0 -4.78027,-2.014164 -1.65161,-2.027588 -1.65161,-5.881348 0,-3.840332 1.65161,-5.86792 1.65161,-2.027587 4.78027,-2.027587 z"
         id="path4162"
         inkscape:connector-curvature="0" />
      <path
         d="m 275.48532,91.614784 0,9.318846 -2.48413,0 0,-9.318846 q 0,-2.027588 -0.71167,-2.980957 -0.71167,-0.953369 -2.22901,-0.953369 -1.73218,0 -2.67212,1.235352 -0.92651,1.221923 -0.92651,3.518066 l 0,8.499754 -2.4707,0 0,-15.039061 2.4707,0 0,2.25586 q 0.65796,-1.289063 1.78589,-1.947022 1.12793,-0.671386 2.67212,-0.671386 2.29614,0 3.42407,1.517334 1.14136,1.503906 1.14136,4.565429 z"
         id="path4164"
         inkscape:connector-curvature="0" />
      <path
         d="m 286.18722,87.626747 q -1.87988,0 -2.84668,1.463623 -0.9668,1.463623 -0.9668,4.337158 0,2.860108 0.9668,4.337159 0.9668,1.463623 2.84668,1.463623 1.89331,0 2.86011,-1.463623 0.9668,-1.477051 0.9668,-4.337159 0,-2.873535 -0.9668,-4.337158 -0.9668,-1.463623 -2.86011,-1.463623 z m 0,-2.094726 q 3.12866,0 4.78027,2.027587 1.66504,2.027588 1.66504,5.86792 0,3.85376 -1.65161,5.881348 -1.65161,2.014164 -4.7937,2.014164 -3.12866,0 -4.78027,-2.014164 -1.65161,-2.027588 -1.65161,-5.881348 0,-3.840332 1.65161,-5.86792 1.65161,-2.027587 4.78027,-2.027587 z"
         id="path4166"
         inkscape:connector-curvature="0" />
      <path
         d="m 312.86813,80.886024 3.4375,0 6.76758,16.502686 0,-16.502686 2.61841,0 0,20.047606 -3.4375,0 -6.76758,-16.502684 0,16.502684 -2.61841,0 0,-20.047606 z"
         id="path4168"
         inkscape:connector-curvature="0" />
      <path
         d="m 342.47628,92.796425 0,1.208496 -10.7019,0 0,0.08057 q 0,2.457276 1.27563,3.800049 1.28907,1.342774 3.62549,1.342774 1.18164,0 2.47071,-0.375977 1.28906,-0.375976 2.75268,-1.141357 l 0,2.45727 q -1.40991,0.57739 -2.72583,0.85938 -1.30249,0.29541 -2.52441,0.29541 -3.50464,0 -5.47852,-2.094726 -1.97388,-2.108155 -1.97388,-5.800782 0,-3.598632 1.9336,-5.74707 1.93359,-2.148437 5.15625,-2.148437 2.87353,0 4.52514,1.947021 1.66504,1.947022 1.66504,5.317383 z m -2.4707,-0.725098 q -0.0537,-2.175293 -1.03393,-3.303222 -0.9668,-1.141358 -2.79297,-1.141358 -1.78589,0 -2.94068,1.181641 -1.15478,1.18164 -1.36963,3.276367 l 8.13721,-0.01343 z"
         id="path4170"
         inkscape:connector-curvature="0" />
      <path
         d="m 359.59665,88.996376 q -0.79224,-0.617676 -1.61133,-0.899658 -0.81909,-0.281983 -1.79932,-0.281983 -2.30957,0 -3.53149,1.450196 -1.22193,1.450195 -1.22193,4.189453 l 0,7.479246 -2.48413,0 0,-15.039061 2.48413,0 0,2.940674 q 0.61768,-1.5979 1.89331,-2.443847 1.28907,-0.859375 3.0481,-0.859375 0.91309,0 1.70532,0.228271 0.79224,0.228272 1.51734,0.71167 l 0,2.524414 z"
         id="path4172"
         inkscape:connector-curvature="0" />
      <path
         d="m 372.15158,87.814735 0,-7.774658 2.4707,0 0,20.893553 -2.4707,0 0,-1.893309 q -0.61768,1.114499 -1.65161,1.705319 -1.02051,0.5774 -2.36329,0.5774 -2.72583,0 -4.29687,-2.108158 -1.55762,-2.121582 -1.55762,-5.841065 0,-3.665771 1.57105,-5.74707 1.57104,-2.094726 4.28344,-2.094726 1.35621,0 2.39014,0.59082 1.03394,0.577392 1.62476,1.691894 z m -7.26441,5.612793 q 0,2.873536 0.91309,4.337159 0.91308,1.463623 2.69897,1.463623 1.78589,0 2.71241,-1.477051 0.93994,-1.477051 0.93994,-4.323731 0,-2.860107 -0.93994,-4.32373 -0.92652,-1.477051 -2.71241,-1.477051 -1.78589,0 -2.69897,1.463623 -0.91309,1.463623 -0.91309,4.337158 z"
         id="path4174"
         inkscape:connector-curvature="0" />
      <path
         d="m 396.84518,80.886024 11.80298,0 0,2.282715 -9.07715,0 0,5.908203 8.2312,0 0,2.282715 -8.2312,0 0,9.573973 -2.72583,0 0,-20.047606 z"
         id="path4176"
         inkscape:connector-curvature="0" />
      <path
         d="m 418.53097,87.626747 q -1.87988,0 -2.84668,1.463623 -0.9668,1.463623 -0.9668,4.337158 0,2.860108 0.9668,4.337159 0.9668,1.463623 2.84668,1.463623 1.89331,0 2.86011,-1.463623 0.9668,-1.477051 0.9668,-4.337159 0,-2.873535 -0.9668,-4.337158 -0.9668,-1.463623 -2.86011,-1.463623 z m 0,-2.094726 q 3.12866,0 4.78027,2.027587 1.66504,2.027588 1.66504,5.86792 0,3.85376 -1.65161,5.881348 -1.65161,2.014164 -4.7937,2.014164 -3.12866,0 -4.78027,-2.014164 -1.65161,-2.027588 -1.65161,-5.881348 0,-3.840332 1.65161,-5.86792 1.65161,-2.027587 4.78027,-2.027587 z"
         id="path4178"
         inkscape:connector-curvature="0" />
      <path
         d="m 440.915,91.614784 0,9.318846 -2.48413,0 0,-9.318846 q 0,-2.027588 -0.71167,-2.980957 -0.71167,-0.953369 -2.229,-0.953369 -1.73218,0 -2.67212,1.235352 -0.92651,1.221923 -0.92651,3.518066 l 0,8.499754 -2.47071,0 0,-15.039061 2.47071,0 0,2.25586 q 0.65796,-1.289063 1.78589,-1.947022 1.12793,-0.671386 2.67212,-0.671386 2.29614,0 3.42407,1.517334 1.14135,1.503906 1.14135,4.565429 z"
         id="path4180"
         inkscape:connector-curvature="0" />
      <path
         d="m 451.59005,81.62455 0,4.270019 5.6128,0 0,1.920166 -5.6128,0 0,8.164063 q 0,1.665039 0.63111,2.322998 0.6311,0.657959 2.20215,0.657959 l 2.77954,0 0,1.973875 -3.02124,0 q -2.77954,0 -3.9209,-1.1145 -1.14136,-1.114502 -1.14136,-3.840332 l 0,-8.164063 -4.01489,0 0,-1.920166 4.01489,0 0,-4.270019 2.4707,0 z"
         id="path4182"
         inkscape:connector-curvature="0" />
    </g>
    <g
       style="font-style:normal;font-weight:normal;font-size:27.5px;line-height:125%;font-family:'DejaVuSansMono Nerd Font';letter-spacing:0px;word-spacing:0px;fill:#ffffff;fill-opacity:1;stroke:none;stroke-width:1px;stroke-linecap:butt;stroke-linejoin:miter;stroke-opacity:1"
       id="text4140">
      <path
         d="m 71.417938,136.12283 -0.52124,0 q -1.375732,0 -2.076416,0.48706 -0.692139,0.47852 -0.692139,1.43555 0,0.86304 0.521241,1.34155 0.52124,0.47852 1.444091,0.47852 1.298828,0 2.042237,-0.89722 0.743408,-0.90576 0.751953,-2.49511 l 0,-0.35035 -1.469727,0 z m 3.050537,-0.64941 0,5.4602 -1.58081,0 0,-1.41845 q -0.504151,0.85449 -1.273194,1.26465 -0.760498,0.40161 -1.854248,0.40161 -1.461181,0 -2.332763,-0.82032 -0.871582,-0.82885 -0.871582,-2.21313 0,-1.5979 1.068115,-2.42676 1.07666,-0.82886 3.153076,-0.82886 l 2.110596,0 0,-0.2478 q -0.0085,-1.14502 -0.581055,-1.65771 -0.57251,-0.52124 -1.828613,-0.52124 -0.803223,0 -1.623535,0.23071 -0.820313,0.23071 -1.597901,0.67505 l 0,-1.57227 q 0.871582,-0.33325 1.66626,-0.4956 0.803223,-0.1709 1.555176,-0.1709 1.187744,0 2.025146,0.35034 0.845948,0.35034 1.367188,1.05103 0.324707,0.42724 0.461426,1.05957 0.136718,0.62378 0.136718,1.87988 z"
         style="font-size:17.5px"
         id="path4185"
         inkscape:connector-curvature="0" />
      <path
         d="m 83.790985,136.15701 q 0,-1.82861 -0.581055,-2.76001 -0.581054,-0.93139 -1.717529,-0.93139 -1.145019,0 -1.734619,0.93994 -0.5896,0.93139 -0.5896,2.75146 0,1.81153 0.5896,2.75147 0.5896,0.93994 1.734619,0.93994 1.136475,0 1.717529,-0.9314 0.581055,-0.93139 0.581055,-2.76001 z m -4.622803,-3.57177 q 0.375977,-0.70069 1.033936,-1.07666 0.666504,-0.37598 1.538086,-0.37598 1.726074,0 2.717285,1.33301 0.991211,1.32446 0.991211,3.65722 0,2.36695 -0.999756,3.71704 -0.991211,1.34156 -2.72583,1.34156 -0.854492,0 -1.512451,-0.36743 -0.649414,-0.37598 -1.042481,-1.08521 l 0,1.20483 -1.572265,0 0,-13.29589 1.572265,0 0,4.94751 z"
         style="font-size:17.5px"
         id="path4187"
         inkscape:connector-curvature="0" />
      <path
         d="m 95.540253,140.44656 q -0.632325,0.36744 -1.307373,0.54688 -0.666504,0.18799 -1.367188,0.18799 -2.22168,0 -3.477783,-1.33301 -1.247559,-1.33301 -1.247559,-3.69141 0,-2.3584 1.247559,-3.6914 1.256103,-1.33301 3.477783,-1.33301 0.692139,0 1.350098,0.17944 0.657959,0.17945 1.324463,0.55542 l 0,1.64917 q -0.62378,-0.55542 -1.256104,-0.80322 -0.623779,-0.2478 -1.418457,-0.2478 -1.478271,0 -2.272949,0.95703 -0.794678,0.95703 -0.794678,2.73437 0,1.7688 0.794678,2.73438 0.803223,0.95703 2.272949,0.95703 0.820313,0 1.469727,-0.2478 0.649414,-0.25635 1.204834,-0.78614 l 0,1.63208 z"
         style="font-size:17.5px"
         id="path4189"
         inkscape:connector-curvature="0" />
      <path
         d="m 104.33298,132.58524 0,-4.94751 1.57226,0 0,13.29589 -1.57226,0 0,-1.20483 q -0.39307,0.70923 -1.05103,1.08521 -0.64941,0.36743 -1.5039,0.36743 -1.73462,0 -2.734379,-1.34156 -0.991211,-1.35009 -0.991211,-3.71704 0,-2.33276 0.999756,-3.65722 0.999754,-1.33301 2.725834,-1.33301 0.86303,0 1.52099,0.37598 0.65796,0.36743 1.03394,1.07666 z m -4.622805,3.57177 q 0,1.82862 0.581055,2.76001 0.58105,0.9314 1.71753,0.9314 1.13647,0 1.72607,-0.93994 0.59815,-0.93994 0.59815,-2.75147 0,-1.82007 -0.59815,-2.75146 -0.5896,-0.93994 -1.72607,-0.93994 -1.13648,0 -1.71753,0.93139 -0.581055,0.9314 -0.581055,2.76001 z"
         style="font-size:17.5px"
         id="path4191"
         inkscape:connector-curvature="0" />
      <path
         d="m 117.03073,135.7554 0,0.76904 -6.8103,0 0,0.0513 q 0,1.56372 0.81177,2.41822 0.82031,0.85449 2.30712,0.85449 0.75196,0 1.57227,-0.23926 0.82031,-0.23926 1.75171,-0.72632 l 0,1.56372 q -0.89722,0.36744 -1.73462,0.54688 -0.82886,0.18799 -1.60644,0.18799 -2.23023,0 -3.48633,-1.33301 -1.25611,-1.34155 -1.25611,-3.69141 0,-2.29004 1.23047,-3.65722 1.23047,-1.36719 3.28125,-1.36719 1.82862,0 2.87964,1.23901 1.05957,1.23902 1.05957,3.38379 z m -1.57226,-0.46142 q -0.0342,-1.38428 -0.65796,-2.10205 -0.61524,-0.72632 -1.77735,-0.72632 -1.13647,0 -1.87134,0.75195 -0.73486,0.75195 -0.87158,2.08496 l 5.17823,-0.009 z"
         style="font-size:17.5px"
         id="path4193"
         inkscape:connector-curvature="0" />
      <path
         d="m 127.13937,127.63773 0,1.30737 -1.78588,0 q -0.84595,0 -1.1792,0.35034 -0.32471,0.3418 -0.32471,1.22192 l 0,0.84595 3.28979,0 0,1.22193 -3.28979,0 0,8.34838 -1.57227,0 0,-8.34838 -2.55493,0 0,-1.22193 2.55493,0 0,-0.6665 q 0,-1.57227 0.71778,-2.31568 0.72632,-0.7434 2.25586,-0.7434 l 1.88842,0 z"
         style="font-size:17.5px"
         id="path4195"
         inkscape:connector-curvature="0" />
      <path
         d="m 135.91501,136.07156 q 0,-1.7688 -0.58106,-2.6831 -0.57251,-0.92285 -1.6748,-0.92285 -1.15357,0 -1.76025,0.92285 -0.60669,0.9143 -0.60669,2.6831 0,1.7688 0.60669,2.7002 0.61523,0.92285 1.77734,0.92285 1.0852,0 1.65771,-0.9314 0.58106,-0.93139 0.58106,-2.69165 z m 1.57226,4.24683 q 0,2.15332 -1.01684,3.26416 -1.01685,1.11084 -2.99072,1.11084 -0.64942,0 -1.35865,-0.11963 -0.70923,-0.11963 -1.41845,-0.35034 l 0,-1.55518 q 0.8374,0.39307 1.52099,0.58106 0.6836,0.18799 1.25611,0.18799 1.27319,0 1.85424,-0.69214 0.58106,-0.69214 0.58106,-2.19605 l 0,-0.0684 0,-1.06811 q -0.37598,0.80322 -1.02539,1.19629 -0.64942,0.39306 -1.58081,0.39306 -1.67481,0 -2.67456,-1.34155 -0.99976,-1.34155 -0.99976,-3.58887 0,-2.25586 0.99976,-3.59741 0.99975,-1.34155 2.67456,-1.34155 0.92285,0 1.56372,0.36743 0.64087,0.36743 1.04248,1.13648 l 0,-1.23902 1.57226,0 0,8.9209 z"
         style="font-size:17.5px"
         id="path4197"
         inkscape:connector-curvature="0" />
      <path
         d="m 148.09152,135.00345 0,5.93017 -1.58081,0 0,-5.93017 q 0,-1.29028 -0.45288,-1.89697 -0.45288,-0.60669 -1.41846,-0.60669 -1.10229,0 -1.70044,0.78613 -0.5896,0.77759 -0.5896,2.23877 l 0,5.40893 -1.57226,0 0,-13.29589 1.57226,0 0,5.16113 q 0.41871,-0.82031 1.13648,-1.23902 0.71777,-0.42724 1.70044,-0.42724 1.46118,0 2.17895,0.96558 0.72632,0.95703 0.72632,2.90527 z"
         style="font-size:17.5px"
         id="path4199"
         inkscape:connector-curvature="0" />
      <path
         d="m 151.82565,131.36331 4.02466,0 0,8.34839 3.1189,0 0,1.22192 -7.81006,0 0,-1.22192 3.1189,0 0,-7.12646 -2.4524,0 0,-1.22193 z m 2.4524,-3.72558 1.57226,0 0,1.99096 -1.57226,0 0,-1.99096 z"
         style="font-size:17.5px"
         id="path4201"
         inkscape:connector-curvature="0" />
      <path
         d="m 165.29245,141.10452 0,-8.51928 -2.70874,0 0,-1.22193 4.28101,0 0,9.74121 q 0,1.66626 -0.76905,2.56348 -0.7605,0.90576 -2.17041,0.90576 l -2.17041,0 0,-1.33301 1.99951,0 q 0.76905,0 1.15357,-0.53833 0.38452,-0.52978 0.38452,-1.5979 z m 0,-13.46679 1.57227,0 0,1.99096 -1.57227,0 0,-1.99096 z"
         style="font-size:17.5px"
         id="path4203"
         inkscape:connector-curvature="0" />
      <path
         d="m 172.70944,127.63773 1.62354,0 0,7.69897 4.12719,-3.97339 1.91407,0 -3.76831,3.60596 4.35791,5.96435 -1.92261,0 -3.5376,-4.93896 -1.17065,1.10229 0,3.83667 -1.62354,0 0,-13.29589 z"
         style="font-size:17.5px"
         id="path4205"
         inkscape:connector-curvature="0" />
      <path
         d="m 186.68039,137.46439 q 0,1.05957 0.38452,1.5979 0.39307,0.53833 1.15357,0.53833 l 1.83715,0 0,1.333 -1.99096,0 q -1.40992,0 -2.1875,-0.90576 -0.76905,-0.90576 -0.76905,-2.56347 l 0,-8.69019 -2.52075,0 0,-1.23047 4.09302,0 0,9.92066 z"
         style="font-size:17.5px"
         id="path4207"
         inkscape:connector-curvature="0" />
      <path
         d="m 197.5239,132.33743 q 0.29052,-0.61523 0.73486,-0.90576 0.45288,-0.29907 1.0852,-0.29907 1.15357,0 1.62354,0.89722 0.47851,0.88867 0.47851,3.35815 l 0,5.54565 -1.43554,0 0,-5.47729 q 0,-2.02515 -0.23072,-2.51221 -0.22216,-0.4956 -0.82031,-0.4956 -0.68359,0 -0.93994,0.52978 -0.2478,0.52124 -0.2478,2.47803 l 0,5.47729 -1.43555,0 0,-5.47729 q 0,-2.05078 -0.2478,-2.5293 -0.23926,-0.47851 -0.87158,-0.47851 -0.62378,0 -0.87159,0.52978 -0.23925,0.52124 -0.23925,2.47803 l 0,5.47729 -1.42701,0 0,-9.57031 1.42701,0 0,0.82031 q 0.28198,-0.51269 0.70068,-0.77758 0.42725,-0.27344 0.96558,-0.27344 0.64941,0 1.07666,0.29907 0.43579,0.29907 0.67505,0.90576 z"
         style="font-size:17.5px"
         id="path4209"
         inkscape:connector-curvature="0" />
      <path
         d="m 211.25558,135.00345 0,5.93017 -1.58081,0 0,-5.93017 q 0,-1.29028 -0.45288,-1.89697 -0.45288,-0.60669 -1.41845,-0.60669 -1.1023,0 -1.70044,0.78613 -0.5896,0.77759 -0.5896,2.23877 l 0,5.40893 -1.57227,0 0,-9.57031 1.57227,0 0,1.43555 q 0.4187,-0.82031 1.13647,-1.23902 0.71778,-0.42724 1.70044,-0.42724 1.46118,0 2.17896,0.96558 0.72631,0.95703 0.72631,2.90527 z"
         style="font-size:17.5px"
         id="path4211"
         inkscape:connector-curvature="0" />
      <path
         d="m 218.06589,132.46561 q -1.19629,0 -1.81153,0.93139 -0.61523,0.9314 -0.61523,2.76001 0,1.82007 0.61523,2.76001 0.61524,0.9314 1.81153,0.9314 1.20483,0 1.82007,-0.9314 0.61523,-0.93994 0.61523,-2.76001 0,-1.82861 -0.61523,-2.76001 -0.61524,-0.93139 -1.82007,-0.93139 z m 0,-1.33301 q 1.99096,0 3.04199,1.29028 1.05957,1.29029 1.05957,3.73413 0,2.4524 -1.05103,3.74268 -1.05102,1.28174 -3.05053,1.28174 -1.99097,0 -3.04199,-1.28174 -1.05103,-1.29028 -1.05103,-3.74268 0,-2.44384 1.05103,-3.73413 1.05102,-1.29028 3.04199,-1.29028 z"
         style="font-size:17.5px"
         id="path4213"
         inkscape:connector-curvature="0" />
      <path
         d="m 226.53391,139.72879 0,4.84497 -1.58082,0 0,-13.21045 1.58082,0 0,1.22193 q 0.39306,-0.70923 1.04248,-1.07666 0.65795,-0.37598 1.51245,-0.37598 1.73462,0 2.71728,1.34155 0.99121,1.34155 0.99121,3.71704 0,2.33277 -0.99121,3.66577 -0.99121,1.32447 -2.71728,1.32447 -0.87159,0 -1.52954,-0.36743 -0.64942,-0.37598 -1.02539,-1.08521 z m 4.61425,-3.57178 q 0,-1.82861 -0.58105,-2.76001 -0.57251,-0.93139 -1.70899,-0.93139 -1.14502,0 -1.73462,0.93994 -0.58959,0.93139 -0.58959,2.75146 0,1.81153 0.58959,2.75147 0.5896,0.93994 1.73462,0.93994 1.13648,0 1.70899,-0.9314 0.58105,-0.93139 0.58105,-2.76001 z"
         style="font-size:17.5px"
         id="path4215"
         inkscape:connector-curvature="0" />
      <path
         d="m 236.69382,136.19119 q 0,1.82862 0.57251,2.76001 0.58105,0.9314 1.71753,0.9314 1.13647,0 1.71753,-0.9314 0.5896,-0.93994 0.5896,-2.76001 0,-1.82007 -0.5896,-2.75146 -0.58106,-0.93994 -1.71753,-0.93994 -1.13648,0 -1.71753,0.93139 -0.57251,0.9314 -0.57251,2.76001 z m 4.59717,3.55469 q -0.38453,0.70923 -1.04249,1.09375 -0.64941,0.37598 -1.51245,0.37598 -1.71753,0 -2.71728,-1.32447 -0.99121,-1.333 -0.99121,-3.66577 0,-2.37549 0.99121,-3.71704 0.99121,-1.34155 2.71728,-1.34155 0.8545,0 1.50391,0.37598 0.65796,0.36743 1.05103,1.07666 l 0,-1.22193 1.58081,0 0,13.21045 -1.58081,0 0,-4.86206 z"
         style="font-size:17.5px"
         id="path4217"
         inkscape:connector-curvature="0" />
      <path
         d="m 254.25363,133.33719 q -0.50415,-0.39307 -1.02539,-0.57251 -0.52124,-0.17944 -1.14502,-0.17944 -1.46973,0 -2.24731,0.92285 -0.77759,0.92285 -0.77759,2.66601 l 0,4.75952 -1.58081,0 0,-9.57031 1.58081,0 0,1.87134 q 0.39307,-1.01685 1.20483,-1.55518 0.82032,-0.54687 1.9397,-0.54687 0.58106,0 1.08521,0.14526 0.50415,0.14527 0.96557,0.45288 l 0,1.60645 z"
         style="font-size:17.5px"
         id="path4219"
         inkscape:connector-curvature="0" />
      <path
         d="m 263.2258,131.69656 0,1.53809 q -0.67505,-0.39307 -1.35864,-0.5896 -0.6836,-0.19653 -1.39283,-0.19653 -1.06811,0 -1.5979,0.35034 -0.52124,0.3418 -0.52124,1.05102 0,0.64087 0.39307,0.95704 0.39307,0.31616 1.95679,0.61523 l 0.63232,0.11963 q 1.17066,0.22217 1.7688,0.88867 0.60669,0.6665 0.60669,1.73462 0,1.41846 -1.0083,2.22168 -1.0083,0.79468 -2.80274,0.79468 -0.70922,0 -1.48681,-0.15381 -0.77759,-0.14527 -1.68335,-0.44434 l 0,-1.62353 q 0.88013,0.45288 1.68335,0.68359 0.80322,0.22217 1.52099,0.22217 1.04249,0 1.61499,-0.4187 0.57251,-0.42725 0.57251,-1.18775 0,-1.09375 -2.0935,-1.51245 l -0.0684,-0.0171 -0.5896,-0.11963 q -1.35864,-0.26489 -1.98242,-0.88867 -0.62378,-0.63232 -0.62378,-1.71753 0,-1.37573 0.9314,-2.11914 0.93139,-0.75195 2.65747,-0.75195 0.76904,0 1.47827,0.14526 0.70923,0.13672 1.39282,0.4187 z"
         style="font-size:17.5px"
         id="path4221"
         inkscape:connector-curvature="0" />
      <path
         d="m 270.68552,128.64603 0,2.71728 3.57177,0 0,1.22193 -3.57177,0 0,5.19531 q 0,1.05957 0.40161,1.47827 0.40161,0.4187 1.40136,0.4187 l 1.7688,0 0,1.2561 -1.9226,0 q -1.7688,0 -2.49512,-0.70922 -0.72632,-0.70923 -0.72632,-2.44385 l 0,-5.19531 -2.55493,0 0,-1.22193 2.55493,0 0,-2.71728 1.57227,0 z"
         style="font-size:17.5px"
         id="path4223"
         inkscape:connector-curvature="0" />
      <path
         d="m 277.63254,137.31058 0,-5.93018 1.57226,0 0,5.93018 q 0,1.29028 0.45288,1.89697 0.46143,0.60669 1.41846,0.60669 1.11084,0 1.70044,-0.77759 0.5896,-0.78613 0.5896,-2.24731 l 0,-5.40894 1.58081,0 0,9.55322 -1.58081,0 0,-1.43554 q -0.4187,0.82885 -1.14502,1.2561 -0.71777,0.42725 -1.68335,0.42725 -1.46973,0 -2.1875,-0.95703 -0.71777,-0.96558 -0.71777,-2.91382 z"
         style="font-size:17.5px"
         id="path4225"
         inkscape:connector-curvature="0" />
      <path
         d="m 287.34811,131.36331 1.63208,0 2.7771,8.03223 2.78565,-8.03223 1.63208,0 -3.40088,9.57031 -2.02515,0 -3.40088,-9.57031 z"
         style="font-size:17.5px"
         id="path4227"
         inkscape:connector-curvature="0" />
      <path
         d="m 297.02097,131.36331 1.55517,0 1.66626,7.73316 1.36719,-4.93897 1.34155,0 1.38428,4.93897 1.66626,-7.73316 1.55517,0 -2.23877,9.57031 -1.5039,0 -1.52954,-5.24658 -1.521,5.24658 -1.5039,0 -2.23877,-9.57031 z"
         style="font-size:17.5px"
         id="path4229"
         inkscape:connector-curvature="0" />
      <path
         d="m 317.10153,131.36331 -3.42651,4.58008 3.75976,4.99023 -1.82006,0 -2.80274,-3.83667 -2.79419,3.83667 -1.82007,0 3.75977,-4.99023 -3.42651,-4.58008 1.74316,0 2.53784,3.4607 2.52075,-3.4607 1.7688,0 z"
         style="font-size:17.5px"
         id="path4231"
         inkscape:connector-curvature="0" />
      <path
         d="m 325.4072,137.85745 q -0.39307,0.99976 -0.99976,2.63184 -0.84595,2.25586 -1.13647,2.75146 -0.39307,0.66651 -0.98267,0.99976 -0.5896,0.33325 -1.37573,0.33325 l -1.26465,0 0,-1.31592 0.9314,0 q 0.69213,0 1.0852,-0.40161 0.39307,-0.40161 0.99976,-2.07641 l -3.69996,-9.41651 1.66626,0 2.83692,7.48535 2.79419,-7.48535 1.66626,0 -2.52075,6.49414 z"
         style="font-size:17.5px"
         id="path4233"
         inkscape:connector-curvature="0" />
      <path
         d="m 330.54269,131.34622 6.94703,0 0,1.43555 -5.49439,6.87012 5.49439,0 0,1.28173 -7.1521,0 0,-1.45263 5.49438,-6.87866 -5.28931,0 0,-1.25611 z"
         style="font-size:17.5px"
         id="path4235"
         inkscape:connector-curvature="0" />
      <path
         d="m 70.683075,151.57205 -1.820068,6.52832 3.640136,0 -1.820068,-6.52832 z m -1.042481,-1.52099 2.093506,0 3.90503,12.75756 -1.785889,0 -0.939941,-3.32397 -4.468995,0 -0.922851,3.32397 -1.785889,0 3.905029,-12.75756 z"
         style="font-size:17.5px"
         id="path4237"
         inkscape:connector-curvature="0" />
      <path
         d="m 79.099823,156.71609 0,4.67408 2.042236,0 q 1.503907,0 2.144776,-0.52124 0.640869,-0.52979 0.640869,-1.73462 0,-1.24756 -0.675049,-1.82862 -0.675049,-0.5896 -2.110596,-0.5896 l -2.042236,0 z m 0,-5.24658 0,3.84522 2.008057,0 q 1.247558,0 1.802978,-0.47852 0.563965,-0.47851 0.563965,-1.54663 0,-0.96557 -0.55542,-1.39282 -0.546875,-0.42725 -1.811523,-0.42725 l -2.008057,0 z m -1.734619,-1.41845 3.776855,0 q 1.956787,0 3.016358,0.84594 1.05957,0.84595 1.05957,2.39258 0,1.17066 -0.563965,1.8457 -0.55542,0.67505 -1.674804,0.84595 1.256103,0.18799 1.965332,1.07666 0.717773,0.88013 0.717773,2.24732 0,1.73462 -1.136475,2.62329 -1.136474,0.88012 -3.383789,0.88012 l -3.776855,0 0,-12.75756 z"
         style="font-size:17.5px"
         id="path4239"
         inkscape:connector-curvature="0" />
      <path
         d="m 95.642792,162.35574 q -0.657959,0.35035 -1.350098,0.52124 -0.692139,0.17945 -1.469726,0.17945 -2.452393,0 -3.811036,-1.73462 -1.350097,-1.73462 -1.350097,-4.87915 0,-3.12744 1.358642,-4.87061 1.367188,-1.75171 3.802491,-1.75171 0.777587,0 1.469726,0.17945 0.692139,0.17089 1.350098,0.52124 l 0,1.7688 q -0.632324,-0.52124 -1.358643,-0.79468 -0.726318,-0.27344 -1.461181,-0.27344 -1.68335,0 -2.520752,1.29883 -0.837403,1.29883 -0.837403,3.92212 0,2.61474 0.837403,3.91357 0.837402,1.29883 2.520752,1.29883 0.751953,0 1.469726,-0.27344 0.726318,-0.27344 1.350098,-0.79468 l 0,1.7688 z"
         style="font-size:17.5px"
         id="path4241"
         inkscape:connector-curvature="0" />
      <path
         d="m 100.72702,161.39017 q 2.17896,0 3.04199,-1.06812 0.86304,-1.07666 0.86304,-3.87939 0,-2.82837 -0.86304,-3.89649 -0.85449,-1.07666 -3.04199,-1.07666 l -0.820312,0 0,9.92066 0.820312,0 z m 0.0342,-11.33911 q 2.92236,0 4.30664,1.55517 1.38428,1.55518 1.38428,4.83643 0,3.26416 -1.38428,4.81933 -1.38428,1.54663 -4.30664,1.54663 l -2.589111,0 0,-12.75756 2.589111,0 z"
         style="font-size:17.5px"
         id="path4243"
         inkscape:connector-curvature="0" />
      <path
         d="m 109.21213,150.05106 7.5708,0 0,1.45263 -5.84473,0 0,3.77686 5.58838,0 0,1.45263 -5.58838,0 0,4.62281 6.00708,0 0,1.45263 -7.73315,0 0,-12.75756 z"
         style="font-size:17.5px"
         id="path4245"
         inkscape:connector-curvature="0" />
      <path
         d="m 120.04709,150.05106 7.51098,0 0,1.45263 -5.77636,0 0,3.75977 5.23803,0 0,1.45263 -5.23803,0 0,6.09253 -1.73462,0 0,-12.75756 z"
         style="font-size:17.5px"
         id="path4247"
         inkscape:connector-curvature="0" />
      <path
         d="m 138.01706,161.7576 q -0.69214,0.64087 -1.56372,0.97412 -0.86304,0.32471 -1.87134,0.32471 -2.42676,0 -3.77685,-1.73462 -1.3501,-1.74317 -1.3501,-4.87915 0,-3.12744 1.36719,-4.87061 1.36718,-1.75171 3.80249,-1.75171 0.80322,0 1.53808,0.23072 0.73486,0.22216 1.41846,0.68359 l 0,1.7688 q -0.69214,-0.65796 -1.41846,-0.96558 -0.72632,-0.31616 -1.53808,-0.31616 -1.68335,0 -2.5293,1.30737 -0.8374,1.29883 -0.8374,3.91358 0,2.65747 0.81176,3.93921 0.82032,1.27319 2.51221,1.27319 0.57251,0 0.99976,-0.12817 0.43579,-0.13672 0.78613,-0.41871 l 0,-3.42651 -1.85425,0 0,-1.41846 3.50342,0 0,5.49439 z"
         style="font-size:17.5px"
         id="path4249"
         inkscape:connector-curvature="0" />
      <path
         d="m 140.28146,150.05106 1.73462,0 0,5.22949 4.72534,0 0,-5.22949 1.73462,0 0,12.75756 -1.73462,0 0,-6.07544 -4.72534,0 0,6.07544 -1.73462,0 0,-12.75756 z"
         style="font-size:17.5px"
         id="path4251"
         inkscape:connector-curvature="0" />
      <path
         d="m 151.35568,150.05106 7.08374,0 0,1.45263 -2.67456,0 0,9.8523 2.67456,0 0,1.45263 -7.08374,0 0,-1.45263 2.67456,0 0,-9.8523 -2.67456,0 0,-1.45263 z"
         style="font-size:17.5px"
         id="path4253"
         inkscape:connector-curvature="0" />
      <path
         d="m 161.09689,162.28738 0,-2.0166 q 0.77759,0.69214 1.60645,1.04248 0.82886,0.3418 1.71753,0.3418 1.22192,0 1.70044,-0.63232 0.48706,-0.64087 0.48706,-2.37549 l 0,-7.14356 -3.25562,0 0,-1.45263 4.98169,0 0,8.59619 q 0,2.40967 -0.90576,3.40942 -0.89722,0.99976 -3.00781,0.99976 -0.82031,0 -1.63208,-0.18799 -0.81177,-0.18799 -1.6919,-0.58106 z"
         style="font-size:17.5px"
         id="path4255"
         inkscape:connector-curvature="0" />
      <path
         d="m 171.86349,150.05106 1.73462,0 0,5.67382 5.39185,-5.67382 2.02515,0 -4.9646,5.2124 5.10986,7.54516 -2.08496,0 -4.16138,-6.3916 -1.31592,1.40137 0,4.99023 -1.73462,0 0,-12.75756 z"
         style="font-size:17.5px"
         id="path4257"
         inkscape:connector-curvature="0" />
      <path
         d="m 183.05734,150.05106 1.73462,0 0,11.30493 6.16089,0 0,1.45263 -7.89551,0 0,-12.75756 z"
         style="font-size:17.5px"
         id="path4259"
         inkscape:connector-curvature="0" />
      <path
         d="m 192.48239,150.05106 2.30713,0 2.20459,6.49414 2.22168,-6.49414 2.31567,0 0,12.75756 -1.5979,0 0,-11.27075 -2.27295,6.72486 -1.30737,0 -2.28149,-6.72486 0,11.27075 -1.58936,0 0,-12.75756 z"
         style="font-size:17.5px"
         id="path4261"
         inkscape:connector-curvature="0" />
      <path
         d="m 203.46262,150.05106 2.1875,0 4.30664,10.5017 0,-10.5017 1.66626,0 0,12.75756 -2.1875,0 -4.30664,-10.5017 0,10.5017 -1.66626,0 0,-12.75756 z"
         style="font-size:17.5px"
         id="path4263"
         inkscape:connector-curvature="0" />
      <path
         d="m 220.53537,156.44266 q 0,-2.81128 -0.58105,-4.01612 -0.57251,-1.20483 -1.88843,-1.20483 -1.30738,0 -1.88843,1.20483 -0.57251,1.20484 -0.57251,4.01612 0,2.80273 0.57251,4.00757 0.58105,1.20483 1.88843,1.20483 1.31592,0 1.88843,-1.19629 0.58105,-1.20483 0.58105,-4.01611 z m 1.80298,0 q 0,3.33252 -1.05957,4.97314 -1.05103,1.64063 -3.21289,1.64063 -2.16187,0 -3.21289,-1.63208 -1.05103,-1.63208 -1.05103,-4.98169 0,-3.34107 1.05103,-4.98169 1.05957,-1.64063 3.21289,-1.64063 2.16186,0 3.21289,1.64063 1.05957,1.64062 1.05957,4.98169 z"
         style="font-size:17.5px"
         id="path4265"
         inkscape:connector-curvature="0" />
      <path
         d="m 226.73898,151.46951 0,4.7937 1.99951,0 q 1.19629,0 1.8628,-0.63232 0.67505,-0.63232 0.67505,-1.7688 0,-1.13647 -0.66651,-1.76025 -0.6665,-0.63233 -1.87134,-0.63233 l -1.99951,0 z m -1.72607,-1.41845 3.72558,0 q 2.13624,0 3.23853,0.97412 1.1023,0.96557 1.1023,2.83691 0,1.88843 -1.1023,2.854 -1.09375,0.96558 -3.23853,0.96558 l -1.99951,0 0,5.12695 -1.72607,0 0,-12.75756 z"
         style="font-size:17.5px"
         id="path4267"
         inkscape:connector-curvature="0" />
      <path
         d="m 239.45383,163.03934 q -0.0598,0 -0.1709,0.009 -0.11109,0.009 -0.17944,0.009 -2.13624,0 -3.19581,-1.64063 -1.05102,-1.64062 -1.05102,-4.97314 0,-3.34107 1.05102,-4.98169 1.05957,-1.64063 3.21289,-1.64063 2.16187,0 3.2129,1.64063 1.05957,1.64062 1.05957,4.98169 0,2.5122 -0.5896,4.05029 -0.58106,1.52954 -1.7688,2.14478 l 1.70898,1.62353 -1.29028,0.85449 -1.99951,-2.07641 z m 2.13623,-6.59668 q 0,-2.81128 -0.58106,-4.01612 -0.57251,-1.20483 -1.88843,-1.20483 -1.30737,0 -1.88842,1.20483 -0.57251,1.20484 -0.57251,4.01612 0,2.80273 0.57251,4.00757 0.58105,1.20483 1.88842,1.20483 1.31592,0 1.88843,-1.19629 0.58106,-1.20483 0.58106,-4.01611 z"
         style="font-size:17.5px"
         id="path4269"
         inkscape:connector-curvature="0" />
      <path
         d="m 250.87839,156.78445 q 0.6665,0.1709 1.13647,0.64942 0.46997,0.46997 1.17066,1.88843 l 1.73462,3.48632 -1.85425,0 -1.521,-3.22143 q -0.65796,-1.37573 -1.18774,-1.7688 -0.52124,-0.40161 -1.36719,-0.40161 l -1.64917,0 0,5.39184 -1.73462,0 0,-12.75756 3.55469,0 q 2.10205,0 3.22143,0.94848 1.11939,0.94849 1.11939,2.74292 0,1.26465 -0.69214,2.06787 -0.68359,0.79468 -1.93115,0.97412 z m -3.5376,-5.31494 0,4.52881 1.88843,0 q 1.23901,0 1.8457,-0.55542 0.60669,-0.55542 0.60669,-1.70044 0,-1.10229 -0.64941,-1.68335 -0.64087,-0.5896 -1.87134,-0.5896 l -1.82007,0 z"
         style="font-size:17.5px"
         id="path4271"
         inkscape:connector-curvature="0" />
      <path
         d="m 263.55905,150.48685 0,1.75171 q -0.78613,-0.50415 -1.58081,-0.7605 -0.78613,-0.25635 -1.58935,-0.25635 -1.22193,0 -1.93116,0.57251 -0.70923,0.56396 -0.70923,1.52954 0,0.84595 0.46143,1.29028 0.46997,0.44434 1.74316,0.74341 l 0.90577,0.20508 q 1.79443,0.4187 2.61474,1.31592 0.82031,0.89722 0.82031,2.44385 0,1.82006 -1.12792,2.7771 -1.12793,0.95703 -3.28125,0.95703 -0.89722,0 -1.80298,-0.19654 -0.90577,-0.18798 -1.82007,-0.57251 l 0,-1.83715 q 0.98266,0.62378 1.85425,0.9143 0.88012,0.29053 1.7688,0.29053 1.30737,0 2.03369,-0.58105 0.72631,-0.5896 0.72631,-1.64063 0,-0.95703 -0.50415,-1.46118 -0.4956,-0.50415 -1.73461,-0.77759 l -0.92286,-0.21362 q -1.77734,-0.40161 -2.58056,-1.21338 -0.80323,-0.81177 -0.80323,-2.17896 0,-1.70898 1.14502,-2.73437 1.15357,-1.03394 3.05909,-1.03394 0.73486,0 1.54663,0.1709 0.81176,0.16235 1.70898,0.49561 z"
         style="font-size:17.5px"
         id="path4273"
         inkscape:connector-curvature="0" />
      <path
         d="m 265.84055,150.05106 9.73266,0 0,1.45263 -3.99048,0 0,11.30493 -1.73462,0 0,-11.30493 -4.00756,0 0,-1.45263 z"
         style="font-size:17.5px"
         id="path4275"
         inkscape:connector-curvature="0" />
      <path
         d="m 277.22238,157.91238 0,-7.86132 1.73462,0 0,8.64746 q 0,0.93139 0.0513,1.333 0.0513,0.39307 0.17944,0.60669 0.27344,0.50415 0.78614,0.7605 0.52124,0.25635 1.2561,0.25635 0.74341,0 1.2561,-0.25635 0.5127,-0.25635 0.79468,-0.7605 0.12818,-0.21362 0.17944,-0.60669 0.0513,-0.39306 0.0513,-1.31591 l 0,-8.66455 1.72608,0 0,7.86132 q 0,1.95679 -0.2478,2.78565 -0.23926,0.82031 -0.83741,1.35864 -0.56396,0.50415 -1.29028,0.75195 -0.72632,0.24781 -1.63208,0.24781 -0.89722,0 -1.62354,-0.24781 -0.72631,-0.2478 -1.29882,-0.75195 -0.5896,-0.52978 -0.83741,-1.36719 -0.2478,-0.84594 -0.2478,-2.7771 z"
         style="font-size:17.5px"
         id="path4277"
         inkscape:connector-curvature="0" />
      <path
         d="m 291.75729,161.35599 2.99927,-11.30493 1.78589,0 -3.73413,12.75756 -2.09351,0 -3.73413,-12.75756 1.78589,0 2.99072,11.30493 z"
         style="font-size:17.5px"
         id="path4279"
         inkscape:connector-curvature="0" />
      <path
         d="m 297.02097,150.05106 1.68335,0 1.22192,10.35644 1.45264,-6.85303 1.80297,0 1.46973,6.87012 1.22192,-10.37353 1.68335,0 -1.90551,12.75756 -1.63208,0 -1.73462,-7.57934 -1.72608,7.57934 -1.63208,0 -1.90551,-12.75756 z"
         style="font-size:17.5px"
         id="path4281"
         inkscape:connector-curvature="0" />
      <path
         d="m 308.28317,150.05106 1.85425,0 2.80274,4.81079 2.854,-4.81079 1.85425,0 -3.81958,5.99853 4.09301,6.75903 -1.85424,0 -3.12744,-5.49438 -3.37525,5.49438 -1.86279,0 4.27246,-6.75903 -3.69141,-5.99853 z"
         style="font-size:17.5px"
         id="path4283"
         inkscape:connector-curvature="0" />
      <path
         d="m 318.39182,150.05106 1.83715,0 3.11035,5.6311 3.10181,-5.6311 1.85425,0 -4.09302,7.03247 0,5.72509 -1.73462,0 0,-5.72509 -4.07592,-7.03247 z"
         style="font-size:17.5px"
         id="path4285"
         inkscape:connector-curvature="0" />
      <path
         d="m 330.12399,150.05106 8.28003,0 0,1.31591 -6.66504,9.98902 6.85303,0 0,1.45263 -8.65601,0 0,-1.31591 6.4856,-9.98902 -6.29761,0 0,-1.45263 z"
         style="font-size:17.5px"
         id="path4287"
         inkscape:connector-curvature="0" />
      <path
         d="m 70.683075,176.21561 q -1.196289,0 -1.811523,0.93139 -0.615235,0.9314 -0.615235,2.76001 0,1.82007 0.615235,2.76001 0.615234,0.9314 1.811523,0.9314 1.204834,0 1.820068,-0.9314 0.615235,-0.93994 0.615235,-2.76001 0,-1.82861 -0.615235,-2.76001 -0.615234,-0.93139 -1.820068,-0.93139 z m 0,-1.33301 q 1.990967,0 3.041992,1.29028 1.05957,1.29029 1.05957,3.73413 0,2.4524 -1.051025,3.74268 -1.051025,1.28174 -3.050537,1.28174 -1.990967,0 -3.041992,-1.28174 -1.051026,-1.29028 -1.051026,-3.74268 0,-2.44384 1.051026,-3.73413 1.051025,-1.29028 3.041992,-1.29028 z"
         style="font-size:17.5px"
         id="path4289"
         inkscape:connector-curvature="0" />
      <path
         d="m 83.679901,178.31766 q 0,-2.81128 -0.581055,-4.01612 -0.572509,-1.20483 -1.888427,-1.20483 -1.307373,0 -1.888428,1.20483 -0.57251,1.20484 -0.57251,4.01612 0,2.80273 0.57251,4.00757 0.581055,1.20483 1.888428,1.20483 1.315918,0 1.888427,-1.19629 0.581055,-1.20483 0.581055,-4.01611 z m 1.802979,0 q 0,3.33252 -1.059571,4.97314 -1.051025,1.64063 -3.21289,1.64063 -2.161866,0 -3.212891,-1.63208 -1.051025,-1.63208 -1.051025,-4.98169 0,-3.34107 1.051025,-4.98169 1.05957,-1.64063 3.212891,-1.64063 2.161865,0 3.21289,1.64063 1.059571,1.64062 1.059571,4.98169 z"
         style="font-size:17.5px"
         id="path4291"
         inkscape:connector-curvature="0" />
      <path
         d="m 90.601288,178.27493 q 0,-0.46997 0.324707,-0.81176 0.333252,-0.3418 0.794678,-0.3418 0.478515,0 0.820312,0.3418 0.341797,0.34179 0.341797,0.81176 0,0.47852 -0.341797,0.81177 -0.333252,0.33325 -0.820312,0.33325 -0.478516,0 -0.803223,-0.3247 -0.316162,-0.32471 -0.316162,-0.82032 z m 1.136474,-5.2124 q -1.204834,0 -1.802978,1.29883 -0.5896,1.29883 -0.5896,3.9563 0,2.64892 0.5896,3.94775 0.598144,1.29883 1.802978,1.29883 1.213379,0 1.802979,-1.29883 0.598144,-1.29883 0.598144,-3.94775 0,-2.65747 -0.598144,-3.9563 -0.5896,-1.29883 -1.802979,-1.29883 z m 0,-1.36719 q 2.042237,0 3.084717,1.67481 1.051026,1.6748 1.051026,4.94751 0,3.26416 -1.051026,4.93896 -1.04248,1.67481 -3.084717,1.67481 -2.042236,0 -3.084716,-1.67481 -1.042481,-1.6748 -1.042481,-4.93896 0,-3.27271 1.042481,-4.94751 1.04248,-1.67481 3.084716,-1.67481 z"
         style="font-size:17.5px"
         id="path4293"
         inkscape:connector-curvature="0" />
      <path
         d="m 102.26511,178.62527 q -1.15357,0 -1.78589,0.64942 -0.623782,0.64087 -0.623782,1.82007 0,1.1792 0.632322,1.83716 0.64087,0.64941 1.77735,0.64941 1.16211,0 1.78588,-0.64087 0.63233,-0.64941 0.63233,-1.8457 0,-1.17066 -0.64087,-1.82007 -0.63232,-0.64942 -1.77734,-0.64942 z m -1.50391,-0.71777 q -1.102295,-0.28198 -1.726074,-1.05102 -0.615235,-0.76905 -0.615235,-1.85425 0,-1.521 1.033936,-2.40967 1.033933,-0.89722 2.811283,-0.89722 1.78588,0 2.81982,0.89722 1.03394,0.88867 1.03394,2.40967 0,1.0852 -0.62378,1.85425 -0.61524,0.76904 -1.71753,1.05102 1.28174,0.28198 1.95678,1.13648 0.6836,0.85449 0.6836,2.21313 0,1.72607 -1.1023,2.7002 -1.10229,0.97412 -3.05053,0.97412 -1.94825,0 -3.050541,-0.96558 -1.09375,-0.97412 -1.09375,-2.69165 0,-1.36719 0.675049,-2.22168 0.683594,-0.86304 1.965332,-1.14502 z m -0.62378,-2.74292 q 0,1.02539 0.54688,1.56372 0.54687,0.53833 1.58081,0.53833 1.04248,0 1.58935,-0.53833 0.54688,-0.53833 0.54688,-1.56372 0,-1.04248 -0.54688,-1.58935 -0.53833,-0.54688 -1.58935,-0.54688 -1.03394,0 -1.58081,0.55542 -0.54688,0.54688 -0.54688,1.58081 z"
         style="font-size:17.5px"
         id="path4295"
         inkscape:connector-curvature="0" />
      <path
         d="m 120.24362,175.11331 4.02466,0 0,8.34839 3.1189,0 0,1.22192 -7.81006,0 0,-1.22192 3.11889,0 0,-7.12646 -2.45239,0 0,-1.22193 z m 2.45239,-3.72558 1.57227,0 0,1.99096 -1.57227,0 0,-1.99096 z"
         style="font-size:17.5px"
         id="path4297"
         inkscape:connector-curvature="0" />
      <path
         d="m 130.30099,171.92606 7.08375,0 0,1.45263 -2.67457,0 0,9.8523 2.67457,0 0,1.45263 -7.08375,0 0,-1.45263 2.67457,0 0,-9.8523 -2.67457,0 0,-1.45263 z"
         style="font-size:17.5px"
         id="path4299"
         inkscape:connector-curvature="0" />
      <path
         d="m 144.57101,181.21439 q 0,1.05957 0.38453,1.5979 0.39306,0.53833 1.15356,0.53833 l 1.83716,0 0,1.333 -1.99097,0 q -1.40991,0 -2.1875,-0.90576 -0.76904,-0.90576 -0.76904,-2.56347 l 0,-8.69019 -2.52075,0 0,-1.23047 4.09301,0 0,9.92066 z"
         style="font-size:17.5px"
         id="path4301"
         inkscape:connector-curvature="0" />
      <path
         d="m 151.47531,171.92606 1.73462,0 0,11.30493 6.16089,0 0,1.45263 -7.89551,0 0,-12.75756 z"
         style="font-size:17.5px"
         id="path4303"
         inkscape:connector-curvature="0" />
      <path
         d="m 162.47263,183.23099 2.6831,0 0,-9.74976 -2.88818,0.64942 0,-1.57227 2.87109,-0.63232 1.72608,0 0,11.30493 2.64892,0 0,1.45263 -7.04101,0 0,-1.45263 z"
         style="font-size:17.5px"
         id="path4305"
         inkscape:connector-curvature="0" />
      <path
         d="m 189.86765,186.30716 0,1.23047 -0.54688,0 q -2.12769,0 -2.854,-0.63233 -0.71778,-0.63232 -0.71778,-2.52075 l 0,-2.04223 q 0,-1.29029 -0.46142,-1.78589 -0.45288,-0.49561 -1.64917,-0.49561 l -0.52979,0 0,-1.22192 0.52979,0 q 1.20483,0 1.65771,-0.48706 0.45288,-0.48706 0.45288,-1.7688 l 0,-2.05078 q 0,-1.88843 0.71778,-2.51221 0.72631,-0.63232 2.854,-0.63232 l 0.54688,0 0,1.22192 -0.59815,0 q -1.19629,0 -1.56372,0.37598 -0.35889,0.36743 -0.35889,1.58081 l 0,2.11914 q 0,1.34155 -0.39306,1.94824 -0.38452,0.60669 -1.32447,0.82031 0.94849,0.23071 1.33301,0.8374 0.38452,0.60669 0.38452,1.9397 l 0,2.11914 q 0,1.22193 0.35889,1.58936 0.36743,0.36743 1.56372,0.36743 l 0.59815,0 z"
         style="font-size:17.5px"
         id="path4307"
         inkscape:connector-curvature="0" />
      <path
         d="m 193.63596,186.30716 0.58105,0 q 1.20483,0 1.57227,-0.37598 0.36743,-0.37597 0.36743,-1.58081 l 0,-2.11914 q 0,-1.33301 0.38452,-1.9397 0.38452,-0.60669 1.33301,-0.8374 -0.93994,-0.21362 -1.33301,-0.82031 -0.38452,-0.60669 -0.38452,-1.94824 l 0,-2.11914 q 0,-1.20484 -0.36743,-1.58081 -0.36744,-0.37598 -1.57227,-0.37598 l -0.58105,0 0,-1.22192 0.52978,0 q 2.12769,0 2.84546,0.63232 0.71777,0.62378 0.71777,2.51221 l 0,2.05078 q 0,1.28174 0.45288,1.7688 0.46143,0.48706 1.66626,0.48706 l 0.54688,0 0,1.22192 -0.54688,0 q -1.20483,0 -1.66626,0.49561 -0.45288,0.4956 -0.45288,1.78589 l 0,2.04223 q 0,1.88843 -0.71777,2.52075 -0.71777,0.63233 -2.84546,0.63233 l -0.52978,0 0,-1.23047 z"
         style="font-size:17.5px"
         id="path4309"
         inkscape:connector-curvature="0" />
      <path
         d="m 216.75851,171.38773 3.62305,0 0,1.22192 -2.05078,0 0,13.15918 2.05078,0 0,1.22192 -3.62305,0 0,-15.60302 z"
         style="font-size:17.5px"
         id="path4311"
         inkscape:connector-curvature="0" />
      <path
         d="m 229.90915,171.38773 0,15.60302 -3.62305,0 0,-1.22192 2.05078,0 0,-13.15918 -2.05078,0 0,-1.22192 3.62305,0 z"
         style="font-size:17.5px"
         id="path4313"
         inkscape:connector-curvature="0" />
      <path
         d="m 251.71579,179.82156 q 0,-1.7688 -0.58105,-2.6831 -0.57251,-0.92285 -1.67481,-0.92285 -1.15356,0 -1.76025,0.92285 -0.60669,0.9143 -0.60669,2.6831 0,1.7688 0.60669,2.7002 0.61523,0.92285 1.77734,0.92285 1.08521,0 1.65772,-0.9314 0.58105,-0.93139 0.58105,-2.69165 z m 1.57227,4.24683 q 0,2.15332 -1.01685,3.26416 -1.01685,1.11084 -2.99072,1.11084 -0.64942,0 -1.35865,-0.11963 -0.70922,-0.11963 -1.41845,-0.35034 l 0,-1.55518 q 0.8374,0.39307 1.52099,0.58106 0.6836,0.18799 1.25611,0.18799 1.27319,0 1.85425,-0.69214 0.58105,-0.69214 0.58105,-2.19605 l 0,-0.0684 0,-1.06811 q -0.37598,0.80322 -1.02539,1.19629 -0.64941,0.39306 -1.58081,0.39306 -1.67481,0 -2.67456,-1.34155 -0.99976,-1.34155 -0.99976,-3.58887 0,-2.25586 0.99976,-3.59741 0.99975,-1.34155 2.67456,-1.34155 0.92285,0 1.56372,0.36743 0.64087,0.36743 1.04248,1.13648 l 0,-1.23902 1.57227,0 0,8.9209 z"
         style="font-size:17.5px"
         id="path4315"
         inkscape:connector-curvature="0" />
      <path
         d="m 260.00436,179.02689 q 1.1023,0 1.72608,-0.79468 0.63232,-0.79468 0.63232,-2.19605 0,-1.40136 -0.63232,-2.19604 -0.62378,-0.79468 -1.72608,-0.79468 -1.14502,0 -1.72607,0.7605 -0.58105,0.75195 -0.58105,2.23022 0,1.48682 0.5725,2.23877 0.58106,0.75196 1.73462,0.75196 z m -3.07617,5.39184 0,-1.58935 q 0.53833,0.31616 1.14502,0.48706 0.60669,0.16235 1.26465,0.16235 1.64063,0 2.47803,-1.23047 0.84594,-1.23901 0.84594,-3.64014 -0.40161,0.8545 -1.12792,1.31592 -0.72632,0.45288 -1.66626,0.45288 -1.84571,0 -2.86255,-1.13647 -1.0083,-1.13648 -1.0083,-3.22144 0,-2.05932 1.03393,-3.18725 1.04248,-1.13648 2.93945,-1.13648 2.22168,0 3.25562,1.5979 1.03394,1.5979 1.03394,5.02442 0,3.22143 -1.24756,4.92187 -1.23902,1.6919 -3.60596,1.6919 -0.62378,0 -1.2561,-0.13672 -0.63233,-0.12818 -1.22193,-0.37598 z"
         style="font-size:17.5px"
         id="path4317"
         inkscape:connector-curvature="0" />
      <path
         d="m 268.27585,179.94119 q 0,1.82862 0.57251,2.76001 0.58105,0.9314 1.71753,0.9314 1.13647,0 1.71753,-0.9314 0.5896,-0.93994 0.5896,-2.76001 0,-1.82007 -0.5896,-2.75146 -0.58106,-0.93994 -1.71753,-0.93994 -1.13648,0 -1.71753,0.93139 -0.57251,0.9314 -0.57251,2.76001 z m 4.59717,3.55469 q -0.38453,0.70923 -1.04248,1.09375 -0.64942,0.37598 -1.51246,0.37598 -1.71752,0 -2.71728,-1.32447 -0.99121,-1.333 -0.99121,-3.66577 0,-2.37549 0.99121,-3.71704 0.99121,-1.34155 2.71728,-1.34155 0.8545,0 1.50391,0.37598 0.65796,0.36743 1.05103,1.07666 l 0,-1.22193 1.58081,0 0,13.21045 -1.58081,0 0,-4.86206 z"
         style="font-size:17.5px"
         id="path4319"
         inkscape:connector-curvature="0" />
      <path
         d="m 285.13498,184.23074 q -0.65796,0.35035 -1.3501,0.52124 -0.69214,0.17945 -1.46972,0.17945 -2.4524,0 -3.81104,-1.73462 -1.3501,-1.73462 -1.3501,-4.87915 0,-3.12744 1.35864,-4.87061 1.36719,-1.75171 3.8025,-1.75171 0.77758,0 1.46972,0.17945 0.69214,0.17089 1.3501,0.52124 l 0,1.7688 q -0.63232,-0.52124 -1.35864,-0.79468 -0.72632,-0.27344 -1.46118,-0.27344 -1.68335,0 -2.52076,1.29883 -0.8374,1.29883 -0.8374,3.92212 0,2.61474 0.8374,3.91357 0.83741,1.29883 2.52076,1.29883 0.75195,0 1.46972,-0.27344 0.72632,-0.27344 1.3501,-0.79468 l 0,1.7688 z"
         style="font-size:17.5px"
         id="path4321"
         inkscape:connector-curvature="0" />
      <path
         d="m 295.92722,183.6326 q -0.69214,0.64087 -1.56373,0.97412 -0.86303,0.32471 -1.87133,0.32471 -2.42676,0 -3.77686,-1.73462 -1.3501,-1.74317 -1.3501,-4.87915 0,-3.12744 1.36719,-4.87061 1.36719,-1.75171 3.80249,-1.75171 0.80322,0 1.53809,0.23072 0.73486,0.22216 1.41845,0.68359 l 0,1.7688 q -0.69213,-0.65796 -1.41845,-0.96558 -0.72632,-0.31616 -1.53809,-0.31616 -1.68335,0 -2.5293,1.30737 -0.8374,1.29883 -0.8374,3.91358 0,2.65747 0.81177,3.93921 0.82031,1.27319 2.51221,1.27319 0.57251,0 0.99975,-0.12817 0.43579,-0.13672 0.78614,-0.41871 l 0,-3.42651 -1.85425,0 0,-1.41846 3.50342,0 0,5.49439 z"
         style="font-size:17.5px"
         id="path4323"
         inkscape:connector-curvature="0" />
      <path
         d="m 302.61789,184.91434 q -0.0598,0 -0.1709,0.009 -0.11108,0.009 -0.17944,0.009 -2.13623,0 -3.1958,-1.64063 -1.05103,-1.64062 -1.05103,-4.97314 0,-3.34107 1.05103,-4.98169 1.05957,-1.64063 3.21289,-1.64063 2.16186,0 3.21289,1.64063 1.05957,1.64062 1.05957,4.98169 0,2.5122 -0.5896,4.05029 -0.58106,1.52954 -1.7688,2.14478 l 1.70898,1.62353 -1.29028,0.85449 -1.99951,-2.07641 z m 2.13623,-6.59668 q 0,-2.81128 -0.58105,-4.01612 -0.57251,-1.20483 -1.88843,-1.20483 -1.30738,0 -1.88843,1.20483 -0.57251,1.20484 -0.57251,4.01612 0,2.80273 0.57251,4.00757 0.58105,1.20483 1.88843,1.20483 1.31592,0 1.88843,-1.19629 0.58105,-1.20483 0.58105,-4.01611 z"
         style="font-size:17.5px"
         id="path4325"
         inkscape:connector-curvature="0" />
      <path
         d="m 327.85959,178.01859 0,1.48681 q -0.64087,0.50415 -1.2561,0.74341 -0.60669,0.23071 -1.28174,0.23071 -0.76905,0 -1.73462,-0.43579 -0.18799,-0.0855 -0.28198,-0.11963 -0.65796,-0.28198 -1.1023,-0.38452 -0.43579,-0.10254 -0.87158,-0.10254 -0.67505,0 -1.28174,0.25635 -0.59814,0.2478 -1.22192,0.78613 l 0,-1.48681 q 0.6665,-0.5127 1.29028,-0.74341 0.62378,-0.23071 1.33301,-0.23071 0.45288,0 0.88012,0.094 0.42725,0.094 1.05957,0.35889 0.10254,0.0427 0.28199,0.12817 0.99121,0.46997 1.78589,0.46997 0.59814,0 1.17919,-0.25635 0.5896,-0.26489 1.22193,-0.79467 z"
         style="font-size:17.5px"
         id="path4327"
         inkscape:connector-curvature="0" />
      <path
         d="m 331.64499,179.18924 4.4519,0 0,1.40137 -4.4519,0 0,-1.40137 z"
         style="font-size:17.5px"
         id="path4329"
         inkscape:connector-curvature="0" />
      <path
         d="m 345.11179,174.67752 0,3.79395 3.80249,0 0,1.45263 -3.80249,0 0,3.79395 -1.43555,0 0,-3.79395 -3.79395,0 0,-1.45263 3.79395,0 0,-3.79395 1.43555,0 z"
         style="font-size:17.5px"
         id="path4331"
         inkscape:connector-curvature="0" />
      <path
         d="m 350.40964,180.20609 9.03198,0 0,1.46972 -9.03198,0 0,-1.46972 z m 0,-3.46924 9.03198,0 0,1.45263 -9.03198,0 0,-1.45263 z"
         style="font-size:17.5px"
         id="path4333"
         inkscape:connector-curvature="0" />
      <path
         d="m 360.93698,176.47195 0,-1.55517 9.03198,3.57178 0,1.41845 -9.03198,3.57178 0,-1.56372 7.26318,-2.70874 -7.26318,-2.73438 z"
         style="font-size:17.5px"
         id="path4335"
         inkscape:connector-curvature="0" />
    </g>
  </g>
</svg>
