<?xml version="1.0" encoding="UTF-8" standalone="no"?>
<svg
   version="1.1"
   id="svg2"
   viewBox="0 0 397.50022 106.93181"
   height="30.178532mm"
   width="112.1834mm"
   sodipodi:docname="DepartureMono Nerd Font.svg"
   xmlns:inkscape="http://www.inkscape.org/namespaces/inkscape"
   xmlns:sodipodi="http://sodipodi.sourceforge.net/DTD/sodipodi-0.dtd"
   xmlns="http://www.w3.org/2000/svg"
   xmlns:svg="http://www.w3.org/2000/svg"
   xmlns:rdf="http://www.w3.org/1999/02/22-rdf-syntax-ns#"
   xmlns:cc="http://creativecommons.org/ns#"
   xmlns:dc="http://purl.org/dc/elements/1.1/">
  <sodipodi:namedview
     id="namedview12"
     pagecolor="#ffffff"
     bordercolor="#666666"
     borderopacity="1.0"
     inkscape:showpageshadow="2"
     inkscape:pageopacity="0.0"
     inkscape:pagecheckerboard="0"
     inkscape:deskcolor="#d1d1d1"
     inkscape:document-units="mm" />
  <defs
     id="defs4" />
  <metadata
     id="metadata7">
    <rdf:RDF>
      <cc:Work
         rdf:about="">
        <dc:format>image/svg+xml</dc:format>
        <dc:type
           rdf:resource="http://purl.org/dc/dcmitype/StillImage" />
        <dc:title />
      </cc:Work>
    </rdf:RDF>
  </metadata>
  <g
     id="layer1"
     transform="translate(-65.357143,-80.933632)">
    <g
       aria-label="DepartureMono Nerd Font"
       id="text4136"
       style="font-size:27.5px;font-family:'DepartureMono Nerd Font';letter-spacing:0px;word-spacing:0px;fill:#ffffff">
      <path
         d="M 65.357143,80.933632 V 100.93363 H 75.357143 V 98.433632 H 67.857143 V 83.433632 H 75.357143 V 80.933632 Z M 75.357143,83.433632 V 98.433632 H 77.857143 V 83.433632 Z"
         id="path14" />
      <path
         d="M 85.357153,85.933632 V 88.433632 H 92.857153 V 85.933632 Z M 82.857153,88.433632 V 98.433632 H 85.357153 V 93.433632 H 95.357153 V 88.433632 H 92.857153 V 90.933632 H 85.357153 V 88.433632 Z M 85.357153,98.433632 V 100.93363 H 92.857153 V 98.433632 Z M 92.857153,95.933632 V 98.433632 H 95.357153 V 95.933632 Z"
         id="path16" />
      <path
         d="M 100.35716,85.933632 V 105.93363 H 102.85716 V 98.433632 H 105.35716 V 95.933632 H 102.85716 V 90.933632 H 105.35716 V 88.433632 H 102.85716 V 85.933632 Z M 105.35716,85.933632 V 88.433632 H 110.35716 V 85.933632 Z M 110.35716,88.433632 V 98.433632 H 112.85716 V 88.433632 Z M 105.35716,98.433632 V 100.93363 H 110.35716 V 98.433632 Z"
         id="path18" />
      <path
         d="M 117.85717,93.433632 V 98.433632 H 120.35717 V 93.433632 Z M 120.35717,98.433632 V 100.93363 H 125.35717 V 98.433632 Z M 125.35717,95.933632 V 98.433632 H 127.85717 V 100.93363 H 130.35717 V 88.433632 H 127.85717 V 90.933632 H 120.35717 V 93.433632 H 127.85717 V 95.933632 Z M 120.35717,85.933632 V 88.433632 H 127.85717 V 85.933632 Z"
         id="path20" />
      <path
         d="M 140.35718,85.933632 H 135.35718 V 88.433632 H 137.85718 V 98.433632 H 135.35718 V 100.93363 H 145.35718 V 98.433632 H 140.35718 V 90.933632 H 142.85718 V 88.433632 H 140.35718 Z M 147.85718,85.933632 H 142.85718 V 88.433632 H 147.85718 Z"
         id="path22" />
      <path
         d="M 155.35719,80.933632 V 85.933632 H 152.85719 V 88.433632 H 155.35719 V 98.433632 H 157.85719 V 88.433632 H 165.35719 V 85.933632 H 157.85719 V 80.933632 Z M 157.85719,98.433632 V 100.93363 H 162.85719 V 98.433632 Z M 162.85719,95.933632 V 98.433632 H 165.35719 V 95.933632 Z"
         id="path24" />
      <path
         d="M 170.3572,85.933632 V 98.433632 H 172.8572 V 85.933632 Z M 172.8572,98.433632 V 100.93363 H 177.8572 V 98.433632 Z M 180.3572,85.933632 V 95.933632 H 177.8572 V 98.433632 H 180.3572 V 100.93363 H 182.8572 V 85.933632 Z"
         id="path26" />
      <path
         d="M 192.85721,85.933632 H 187.85721 V 88.433632 H 190.35721 V 98.433632 H 187.85721 V 100.93363 H 197.85721 V 98.433632 H 192.85721 V 90.933632 H 195.35721 V 88.433632 H 192.85721 Z M 200.35721,85.933632 H 195.35721 V 88.433632 H 200.35721 Z"
         id="path28" />
      <path
         d="M 207.85722,85.933632 V 88.433632 H 215.35722 V 85.933632 Z M 205.35722,88.433632 V 98.433632 H 207.85722 V 93.433632 H 217.85722 V 88.433632 H 215.35722 V 90.933632 H 207.85722 V 88.433632 Z M 207.85722,98.433632 V 100.93363 H 215.35722 V 98.433632 Z M 215.35722,95.933632 V 98.433632 H 217.85722 V 95.933632 Z"
         id="path30" />
      <path
         d="M 222.85723,80.933632 V 100.93363 H 225.35723 V 88.433632 H 227.85723 V 85.933632 H 225.35723 V 80.933632 Z M 232.85723,88.433632 V 100.93363 H 235.35723 V 80.933632 H 232.85723 V 85.933632 H 230.35723 V 88.433632 Z M 227.85723,88.433632 V 93.433632 H 230.35723 V 88.433632 Z"
         id="path32" />
      <path
         d="M 242.85723,85.933632 V 88.433632 H 250.35723 V 85.933632 Z M 250.35723,88.433632 V 98.433632 H 252.85723 V 88.433632 Z M 240.35723,88.433632 V 98.433632 H 242.85723 V 88.433632 Z M 242.85723,98.433632 V 100.93363 H 250.35723 V 98.433632 Z"
         id="path34" />
      <path
         d="M 257.85725,85.933632 V 100.93363 H 260.35725 V 90.933632 H 262.85725 V 88.433632 H 260.35725 V 85.933632 Z M 262.85725,85.933632 V 88.433632 H 267.85725 V 85.933632 Z M 267.85725,88.433632 V 100.93363 H 270.35725 V 88.433632 Z"
         id="path36" />
      <path
         d="M 277.85727,85.933632 V 88.433632 H 285.35727 V 85.933632 Z M 285.35727,88.433632 V 98.433632 H 287.85727 V 88.433632 Z M 275.35727,88.433632 V 98.433632 H 277.85727 V 88.433632 Z M 277.85727,98.433632 V 100.93363 H 285.35727 V 98.433632 Z"
         id="path38" />
      <path
         d="M 310.35728,80.933632 V 100.93363 H 312.85728 V 88.433632 H 315.35728 V 85.933632 H 312.85728 V 80.933632 Z M 320.35728,93.433632 V 100.93363 H 322.85728 V 80.933632 H 320.35728 V 90.933632 H 317.85728 V 93.433632 Z M 317.85728,90.933632 V 88.433632 H 315.35728 V 90.933632 Z"
         id="path40" />
      <path
         d="M 330.3573,85.933632 V 88.433632 H 337.8573 V 85.933632 Z M 327.8573,88.433632 V 98.433632 H 330.3573 V 93.433632 H 340.3573 V 88.433632 H 337.8573 V 90.933632 H 330.3573 V 88.433632 Z M 330.3573,98.433632 V 100.93363 H 337.8573 V 98.433632 Z M 337.8573,95.933632 V 98.433632 H 340.3573 V 95.933632 Z"
         id="path42" />
      <path
         d="M 350.3573,85.933632 H 345.3573 V 88.433632 H 347.8573 V 98.433632 H 345.3573 V 100.93363 H 355.3573 V 98.433632 H 350.3573 V 90.933632 H 352.8573 V 88.433632 H 350.3573 Z M 357.8573,85.933632 H 352.8573 V 88.433632 H 357.8573 Z"
         id="path44" />
      <path
         d="M 372.8573,80.933632 V 88.433632 H 370.3573 V 90.933632 H 372.8573 V 95.933632 H 370.3573 V 98.433632 H 372.8573 V 100.93363 H 375.3573 V 80.933632 Z M 370.3573,98.433632 H 365.3573 V 100.93363 H 370.3573 Z M 365.3573,98.433632 V 88.433632 H 362.8573 V 98.433632 Z M 370.3573,88.433632 V 85.933632 H 365.3573 V 88.433632 Z"
         id="path46" />
      <path
         d="M 397.85733,80.933632 V 100.93363 H 400.35733 V 90.933632 H 407.85733 V 88.433632 H 400.35733 V 83.433632 H 410.35733 V 80.933632 Z"
         id="path48" />
      <path
         d="M 417.85733,85.933632 V 88.433632 H 425.35733 V 85.933632 Z M 425.35733,88.433632 V 98.433632 H 427.85733 V 88.433632 Z M 415.35733,88.433632 V 98.433632 H 417.85733 V 88.433632 Z M 417.85733,98.433632 V 100.93363 H 425.35733 V 98.433632 Z"
         id="path50" />
      <path
         d="M 432.85736,85.933632 V 100.93363 H 435.35736 V 90.933632 H 437.85736 V 88.433632 H 435.35736 V 85.933632 Z M 437.85736,85.933632 V 88.433632 H 442.85736 V 85.933632 Z M 442.85736,88.433632 V 100.93363 H 445.35736 V 88.433632 Z"
         id="path52" />
      <path
         d="M 452.85736,80.933632 V 85.933632 H 450.35736 V 88.433632 H 452.85736 V 98.433632 H 455.35736 V 88.433632 H 462.85736 V 85.933632 H 455.35736 V 80.933632 Z M 455.35736,98.433632 V 100.93363 H 460.35736 V 98.433632 Z M 460.35736,95.933632 V 98.433632 H 462.85736 V 95.933632 Z"
         id="path54" />
    </g>
    <g
       aria-label="abcdefghijklmnopqrstuvwxyzABCDEFGHIJKLMNOPQRSTUVWXYZ oO08 iIlL1 {} [] g9qCGQ ~-+=&gt;"
       id="text4140"
       style="font-size:17.5px;font-family:'DepartureMono Nerd Font';letter-spacing:0px;word-spacing:0px;fill:#ffffff">
      <path
         d="M 67.010312,136.1609 V 139.34272 H 68.601221 V 136.1609 Z M 68.601221,139.34272 V 140.93362 H 71.783039 V 139.34272 Z M 71.783039,137.75181 V 139.34272 H 73.373949 V 140.93362 H 74.964858 V 132.97908 H 73.373949 V 134.56999 H 68.601221 V 136.1609 H 73.373949 V 137.75181 Z M 68.601221,131.38817 V 132.97908 H 73.373949 V 131.38817 Z"
         id="path57" />
      <path
         d="M 78.146682,128.20635 V 140.93362 H 79.737591 V 139.34272 H 81.3285 V 137.75181 H 79.737591 V 134.56999 H 81.3285 V 132.97908 H 79.737591 V 128.20635 Z M 81.3285,139.34272 V 140.93362 H 84.510318 V 139.34272 Z M 84.510318,132.97908 V 139.34272 H 86.101227 V 132.97908 Z M 81.3285,131.38817 V 132.97908 H 84.510318 V 131.38817 Z"
         id="path59" />
      <path
         d="M 90.873961,131.38817 V 132.97908 H 95.646688 V 131.38817 Z M 89.283052,132.97908 V 139.34272 H 90.873961 V 132.97908 Z M 90.873961,139.34272 V 140.93362 H 95.646688 V 139.34272 Z M 95.646688,132.97908 V 134.56999 H 97.237597 V 132.97908 Z M 95.646688,137.75181 V 139.34272 H 97.237597 V 137.75181 Z"
         id="path61" />
      <path
         d="M 106.78306,128.20635 V 132.97908 H 105.19215 V 134.56999 H 106.78306 V 137.75181 H 105.19215 V 139.34272 H 106.78306 V 140.93362 H 108.37397 V 128.20635 Z M 105.19215,139.34272 H 102.01033 V 140.93362 H 105.19215 Z M 102.01033,139.34272 V 132.97908 H 100.41942 V 139.34272 Z M 105.19215,132.97908 V 131.38817 H 102.01033 V 132.97908 Z"
         id="path63" />
      <path
         d="M 113.1467,131.38817 V 132.97908 H 117.91943 V 131.38817 Z M 111.55579,132.97908 V 139.34272 H 113.1467 V 136.1609 H 119.51034 V 132.97908 H 117.91943 V 134.56999 H 113.1467 V 132.97908 Z M 113.1467,139.34272 V 140.93362 H 117.91943 V 139.34272 Z M 117.91943,137.75181 V 139.34272 H 119.51034 V 137.75181 Z"
         id="path65" />
      <path
         d="M 124.28307,132.97908 V 139.34272 H 122.69216 V 140.93362 H 129.0558 V 139.34272 H 125.87398 V 132.97908 H 130.6467 V 131.38817 H 125.87398 V 129.79726 H 124.28307 V 131.38817 H 122.69216 V 132.97908 Z M 125.87398,128.20635 V 129.79726 H 130.6467 V 128.20635 Z"
         id="path67" />
      <path
         d="M 135.41944,131.38817 V 132.97908 H 138.60126 V 131.38817 Z M 133.82853,132.97908 V 139.34272 H 135.41944 V 132.97908 Z M 135.41944,139.34272 V 140.93362 H 138.60126 V 139.34272 Z M 135.41944,142.52453 V 144.11544 H 140.19217 V 142.52453 Z M 138.60126,137.75181 V 139.34272 H 140.19217 V 142.52453 H 141.78308 V 131.38817 H 140.19217 V 132.97908 H 138.60126 V 134.56999 H 140.19217 V 137.75181 Z"
         id="path69" />
      <path
         d="M 144.9649,128.20635 V 140.93362 H 146.55581 V 134.56999 H 148.14672 V 132.97908 H 146.55581 V 128.20635 Z M 151.32854,132.97908 V 140.93362 H 152.91945 V 132.97908 Z M 148.14672,131.38817 V 132.97908 H 151.32854 V 131.38817 Z"
         id="path71" />
      <path
         d="M 159.28309,132.97908 V 139.34272 H 156.10127 V 140.93362 H 164.05582 V 139.34272 H 160.874 V 131.38817 H 156.10127 V 132.97908 Z M 159.28309,128.20635 V 129.79726 H 160.874 V 128.20635 Z"
         id="path73" />
      <path
         d="M 172.01036,128.20635 V 129.79726 H 173.60127 V 128.20635 Z M 172.01036,132.97908 V 142.52453 H 173.60127 V 131.38817 H 168.82855 V 132.97908 Z M 172.01036,142.52453 H 168.82855 V 144.11544 H 172.01036 Z M 168.82855,142.52453 V 140.93362 H 167.23764 V 142.52453 Z"
         id="path75" />
      <path
         d="M 178.37401,128.20635 V 140.93362 H 179.96491 V 137.75181 H 183.14673 V 134.56999 H 181.55582 V 136.1609 H 179.96491 V 128.20635 Z M 184.73764,131.38817 V 132.97908 H 186.32855 V 131.38817 Z M 183.14673,132.97908 V 134.56999 H 184.73764 V 132.97908 Z M 183.14673,137.75181 V 139.34272 H 184.73764 V 137.75181 Z M 184.73764,139.34272 V 140.93362 H 186.32855 V 139.34272 Z"
         id="path77" />
      <path
         d="M 192.6922,129.79726 V 139.34272 H 189.51038 V 140.93362 H 197.46493 V 139.34272 H 194.28311 V 128.20635 H 189.51038 V 129.79726 Z"
         id="path79" />
      <path
         d="M 200.64676,131.38817 V 140.93362 H 202.23767 V 132.97908 H 203.82857 V 131.38817 Z M 203.82857,132.97908 V 140.93362 H 205.41948 V 132.97908 Z M 207.01039,132.97908 V 131.38817 H 205.41948 V 132.97908 Z M 207.01039,132.97908 V 140.93362 H 208.6013 V 132.97908 Z"
         id="path81" />
      <path
         d="M 211.78312,131.38817 V 140.93362 H 213.37403 V 134.56999 H 214.96494 V 132.97908 H 213.37403 V 131.38817 Z M 214.96494,131.38817 V 132.97908 H 218.14676 V 131.38817 Z M 218.14676,132.97908 V 140.93362 H 219.73767 V 132.97908 Z"
         id="path83" />
      <path
         d="M 224.5104,131.38817 V 132.97908 H 229.28313 V 131.38817 Z M 229.28313,132.97908 V 139.34272 H 230.87404 V 132.97908 Z M 222.91949,132.97908 V 139.34272 H 224.5104 V 132.97908 Z M 224.5104,139.34272 V 140.93362 H 229.28313 V 139.34272 Z"
         id="path85" />
      <path
         d="M 234.05586,131.38817 V 144.11544 H 235.64677 V 139.34272 H 237.23768 V 137.75181 H 235.64677 V 134.56999 H 237.23768 V 132.97908 H 235.64677 V 131.38817 Z M 237.23768,131.38817 V 132.97908 H 240.4195 V 131.38817 Z M 240.4195,132.97908 V 139.34272 H 242.01041 V 132.97908 Z M 237.23768,139.34272 V 140.93362 H 240.4195 V 139.34272 Z"
         id="path87" />
      <path
         d="M 246.78314,131.38817 V 132.97908 H 249.96495 V 131.38817 Z M 249.96495,132.97908 V 134.56999 H 251.55586 V 137.75181 H 249.96495 V 139.34272 H 251.55586 V 144.11544 H 253.14677 V 131.38817 H 251.55586 V 132.97908 Z M 245.19223,132.97908 V 139.34272 H 246.78314 V 132.97908 Z M 246.78314,139.34272 V 140.93362 H 249.96495 V 139.34272 Z"
         id="path89" />
      <path
         d="M 259.51041,131.38817 H 256.3286 V 132.97908 H 257.9195 V 139.34272 H 256.3286 V 140.93362 H 262.69223 V 139.34272 H 259.51041 V 134.56999 H 261.10132 V 132.97908 H 259.51041 Z M 264.28314,131.38817 H 261.10132 V 132.97908 H 264.28314 Z"
         id="path91" />
      <path
         d="M 273.8286,139.34272 H 269.05587 V 140.93362 H 273.8286 Z M 269.05587,139.34272 V 137.75181 H 267.46496 V 139.34272 Z M 273.8286,131.38817 H 269.05587 V 132.97908 H 273.8286 Z M 267.46496,132.97908 V 134.56999 H 269.05587 V 132.97908 Z M 269.05587,134.56999 V 136.1609 H 273.8286 V 134.56999 Z M 273.8286,136.1609 V 139.34272 H 275.41951 V 136.1609 Z M 273.8286,132.97908 V 134.56999 H 275.41951 V 132.97908 Z"
         id="path93" />
      <path
         d="M 280.19224,128.20635 V 131.38817 H 278.60133 V 132.97908 H 280.19224 V 139.34272 H 281.78315 V 132.97908 H 286.55588 V 131.38817 H 281.78315 V 128.20635 Z M 281.78315,139.34272 V 140.93362 H 284.96497 V 139.34272 Z M 284.96497,137.75181 V 139.34272 H 286.55588 V 137.75181 Z"
         id="path95" />
      <path
         d="M 289.7377,131.38817 V 139.34272 H 291.32861 V 131.38817 Z M 291.32861,139.34272 V 140.93362 H 294.51043 V 139.34272 Z M 296.10134,131.38817 V 137.75181 H 294.51043 V 139.34272 H 296.10134 V 140.93362 H 297.69224 V 131.38817 Z"
         id="path97" />
      <path
         d="M 300.87408,131.38817 V 136.1609 H 302.46499 V 131.38817 Z M 307.23772,131.38817 V 136.1609 H 308.82863 V 131.38817 Z M 304.0559,139.34272 V 136.1609 H 302.46499 V 139.34272 Z M 304.0559,139.34272 V 140.93362 H 305.64681 V 139.34272 Z M 305.64681,136.1609 V 139.34272 H 307.23772 V 136.1609 Z"
         id="path99" />
      <path
         d="M 312.01045,131.38817 V 139.34272 H 313.60136 V 131.38817 Z M 318.37409,131.38817 V 139.34272 H 316.78318 V 140.93362 H 319.96499 V 131.38817 Z M 316.78318,139.34272 V 131.38817 H 315.19227 V 139.34272 Z M 313.60136,139.34272 V 140.93362 H 315.19227 V 139.34272 Z"
         id="path101" />
      <path
         d="M 323.14682,131.38817 V 132.97908 H 324.73773 V 131.38817 Z M 329.51045,131.38817 V 132.97908 H 331.10136 V 131.38817 Z M 323.14682,137.75181 V 140.93362 H 324.73773 V 137.75181 Z M 327.91954,132.97908 V 134.56999 H 329.51045 V 132.97908 Z M 324.73773,132.97908 V 134.56999 H 326.32864 V 132.97908 Z M 326.32864,134.56999 V 136.1609 H 327.91954 V 134.56999 Z M 324.73773,136.1609 V 137.75181 H 326.32864 V 136.1609 Z M 327.91954,136.1609 V 137.75181 H 329.51045 V 136.1609 Z M 329.51045,137.75181 V 140.93362 H 331.10136 V 137.75181 Z"
         id="path103" />
      <path
         d="M 334.2832,131.38817 V 136.1609 H 335.87411 V 131.38817 Z M 340.64684,131.38817 V 136.1609 H 342.23775 V 131.38817 Z M 337.46502,139.34272 V 142.52453 H 339.05593 V 139.34272 Z M 337.46502,142.52453 H 334.2832 V 144.11544 H 337.46502 Z M 339.05593,136.1609 V 139.34272 H 340.64684 V 136.1609 Z M 335.87411,136.1609 V 139.34272 H 337.46502 V 136.1609 Z"
         id="path105" />
      <path
         d="M 345.41955,131.38817 V 132.97908 H 350.19228 V 134.56999 H 351.78319 V 132.97908 H 353.3741 V 131.38817 Z M 348.60137,134.56999 V 136.1609 H 350.19228 V 134.56999 Z M 347.01046,136.1609 V 137.75181 H 348.60137 V 136.1609 Z M 345.41955,137.75181 V 140.93362 H 353.3741 V 139.34272 H 347.01046 V 137.75181 Z"
         id="path107" />
      <path
         d="M 67.010312,153.26317 V 162.80862 H 68.601221 V 158.0359 H 73.373949 V 162.80862 H 74.964858 V 153.26317 H 73.373949 V 156.44499 H 68.601221 V 153.26317 Z M 70.19213,150.08135 V 151.67226 H 71.783039 V 150.08135 Z M 68.601221,151.67226 V 153.26317 H 70.19213 V 151.67226 Z M 71.783039,151.67226 V 153.26317 H 73.373949 V 151.67226 Z"
         id="path109" />
      <path
         d="M 78.146682,150.08135 V 162.80862 H 84.510318 V 161.21772 H 79.737591 V 156.44499 H 84.510318 V 154.85408 H 79.737591 V 151.67226 H 84.510318 V 150.08135 Z M 84.510318,156.44499 V 161.21772 H 86.101227 V 156.44499 Z M 84.510318,151.67226 V 154.85408 H 86.101227 V 151.67226 Z"
         id="path111" />
      <path
         d="M 89.283052,151.67226 V 161.21772 H 90.873961 V 151.67226 Z M 90.873961,161.21772 V 162.80862 H 95.646688 V 161.21772 Z M 95.646688,159.62681 V 161.21772 H 97.237597 V 159.62681 Z M 90.873961,150.08135 V 151.67226 H 95.646688 V 150.08135 Z M 95.646688,151.67226 V 153.26317 H 97.237597 V 151.67226 Z"
         id="path113" />
      <path
         d="M 100.41942,150.08135 V 162.80862 H 106.78306 V 161.21772 H 102.01033 V 151.67226 H 106.78306 V 150.08135 Z M 106.78306,151.67226 V 161.21772 H 108.37397 V 151.67226 Z"
         id="path115" />
      <path
         d="M 111.55579,150.08135 V 162.80862 H 119.51034 V 161.21772 H 113.1467 V 156.44499 H 117.91943 V 154.85408 H 113.1467 V 151.67226 H 119.51034 V 150.08135 Z"
         id="path117" />
      <path
         d="M 122.69216,150.08135 V 162.80862 H 124.28307 V 156.44499 H 129.0558 V 154.85408 H 124.28307 V 151.67226 H 130.6467 V 150.08135 Z"
         id="path119" />
      <path
         d="M 133.82853,151.67226 V 161.21772 H 135.41944 V 151.67226 Z M 135.41944,161.21772 V 162.80862 H 140.19217 V 161.21772 Z M 140.19217,158.0359 V 161.21772 H 141.78308 V 156.44499 H 138.60126 V 158.0359 Z M 135.41944,150.08135 V 151.67226 H 140.19217 V 150.08135 Z M 140.19217,151.67226 V 153.26317 H 141.78308 V 151.67226 Z"
         id="path121" />
      <path
         d="M 144.9649,150.08135 V 162.80862 H 146.55581 V 156.44499 H 151.32854 V 162.80862 H 152.91945 V 150.08135 H 151.32854 V 154.85408 H 146.55581 V 150.08135 Z"
         id="path123" />
      <path
         d="M 159.28309,161.21772 H 156.10127 V 162.80862 H 164.05582 V 161.21772 H 160.874 V 151.67226 H 164.05582 V 150.08135 H 156.10127 V 151.67226 H 159.28309 Z"
         id="path125" />
      <path
         d="M 168.82855,161.21772 V 159.62681 H 167.23764 V 161.21772 Z M 168.82855,161.21772 V 162.80862 H 173.60127 V 161.21772 Z M 173.60127,151.67226 V 161.21772 H 175.19218 V 150.08135 H 170.41946 V 151.67226 Z"
         id="path127" />
      <path
         d="M 178.37401,150.08135 V 162.80862 H 179.96491 V 156.44499 H 183.14673 V 153.26317 H 181.55582 V 154.85408 H 179.96491 V 150.08135 Z M 184.73764,150.08135 V 151.67226 H 186.32855 V 150.08135 Z M 183.14673,151.67226 V 153.26317 H 184.73764 V 151.67226 Z M 184.73764,159.62681 V 156.44499 H 183.14673 V 159.62681 Z M 184.73764,159.62681 V 162.80862 H 186.32855 V 159.62681 Z"
         id="path129" />
      <path
         d="M 189.51038,150.08135 V 162.80862 H 197.46493 V 161.21772 H 191.10129 V 150.08135 Z"
         id="path131" />
      <path
         d="M 200.64676,150.08135 V 162.80862 H 202.23767 V 154.85408 H 203.82857 V 153.26317 H 202.23767 V 150.08135 Z M 207.01039,154.85408 V 162.80862 H 208.6013 V 150.08135 H 207.01039 V 153.26317 H 205.41948 V 154.85408 Z M 203.82857,154.85408 V 158.0359 H 205.41948 V 154.85408 Z"
         id="path133" />
      <path
         d="M 211.78312,150.08135 V 162.80862 H 213.37403 V 154.85408 H 214.96494 V 153.26317 H 213.37403 V 150.08135 Z M 218.14676,158.0359 V 162.80862 H 219.73767 V 150.08135 H 218.14676 V 156.44499 H 216.55585 V 158.0359 Z M 216.55585,156.44499 V 154.85408 H 214.96494 V 156.44499 Z"
         id="path135" />
      <path
         d="M 222.91949,151.67226 V 161.21772 H 224.5104 V 151.67226 Z M 224.5104,161.21772 V 162.80862 H 229.28313 V 161.21772 Z M 229.28313,151.67226 V 161.21772 H 230.87404 V 151.67226 Z M 224.5104,150.08135 V 151.67226 H 229.28313 V 150.08135 Z"
         id="path137" />
      <path
         d="M 234.05586,150.08135 V 162.80862 H 235.64677 V 158.0359 H 240.4195 V 156.44499 H 235.64677 V 151.67226 H 240.4195 V 150.08135 Z M 240.4195,151.67226 V 156.44499 H 242.01041 V 151.67226 Z"
         id="path139" />
      <path
         d="M 245.19223,151.67226 V 161.21772 H 246.78314 V 151.67226 Z M 246.78314,161.21772 V 162.80862 H 249.96495 V 164.39953 H 253.14677 V 162.80862 H 251.55586 V 161.21772 Z M 251.55586,151.67226 V 161.21772 H 253.14677 V 151.67226 Z M 251.55586,151.67226 V 150.08135 H 246.78314 V 151.67226 Z"
         id="path141" />
      <path
         d="M 256.3286,150.08135 V 162.80862 H 257.9195 V 158.0359 H 261.10132 V 159.62681 H 262.69223 V 156.44499 H 257.9195 V 151.67226 H 262.69223 V 150.08135 Z M 262.69223,151.67226 V 156.44499 H 264.28314 V 151.67226 Z M 262.69223,159.62681 V 162.80862 H 264.28314 V 159.62681 Z"
         id="path143" />
      <path
         d="M 267.46496,151.67226 V 154.85408 H 269.05587 V 151.67226 Z M 269.05587,154.85408 V 156.44499 H 273.8286 V 154.85408 Z M 273.8286,161.21772 H 269.05587 V 162.80862 H 273.8286 Z M 269.05587,161.21772 V 159.62681 H 267.46496 V 161.21772 Z M 273.8286,156.44499 V 161.21772 H 275.41951 V 156.44499 Z M 269.05587,150.08135 V 151.67226 H 273.8286 V 150.08135 Z M 273.8286,151.67226 V 153.26317 H 275.41951 V 151.67226 Z"
         id="path145" />
      <path
         d="M 278.60133,150.08135 V 151.67226 H 281.78315 V 162.80862 H 283.37406 V 151.67226 H 286.55588 V 150.08135 Z"
         id="path147" />
      <path
         d="M 289.7377,150.08135 V 161.21772 H 291.32861 V 150.08135 Z M 291.32861,161.21772 V 162.80862 H 296.10134 V 161.21772 Z M 296.10134,150.08135 V 161.21772 H 297.69224 V 150.08135 Z"
         id="path149" />
      <path
         d="M 304.0559,161.21772 V 158.0359 H 302.46499 V 161.21772 Z M 304.0559,161.21772 V 162.80862 H 305.64681 V 161.21772 Z M 300.87408,150.08135 V 158.0359 H 302.46499 V 150.08135 Z M 307.23772,150.08135 V 158.0359 H 308.82863 V 150.08135 Z M 305.64681,158.0359 V 161.21772 H 307.23772 V 158.0359 Z"
         id="path151" />
      <path
         d="M 312.01045,150.08135 V 158.0359 H 313.60136 V 150.08135 Z M 313.60136,158.0359 V 162.80862 H 315.19227 V 158.0359 Z M 318.37409,150.08135 V 158.0359 H 319.96499 V 150.08135 Z M 316.78318,158.0359 V 162.80862 H 318.37409 V 158.0359 Z M 315.19227,154.85408 V 158.0359 H 316.78318 V 154.85408 Z"
         id="path153" />
      <path
         d="M 329.51045,158.0359 V 162.80862 H 331.10136 V 158.0359 Z M 323.14682,158.0359 V 162.80862 H 324.73773 V 158.0359 Z M 326.32864,154.85408 V 153.26317 H 324.73773 V 154.85408 Z M 326.32864,154.85408 V 156.44499 H 327.91954 V 154.85408 Z M 327.91954,153.26317 V 154.85408 H 329.51045 V 153.26317 Z M 324.73773,153.26317 V 150.08135 H 323.14682 V 153.26317 Z M 324.73773,156.44499 V 158.0359 H 326.32864 V 156.44499 Z M 329.51045,150.08135 V 153.26317 H 331.10136 V 150.08135 Z M 327.91954,156.44499 V 158.0359 H 329.51045 V 156.44499 Z"
         id="path155" />
      <path
         d="M 334.2832,150.08135 V 154.85408 H 335.87411 V 150.08135 Z M 340.64684,150.08135 V 154.85408 H 342.23775 V 150.08135 Z M 337.46502,156.44499 V 162.80862 H 339.05593 V 156.44499 Z M 335.87411,154.85408 V 156.44499 H 337.46502 V 154.85408 Z M 339.05593,154.85408 V 156.44499 H 340.64684 V 154.85408 Z"
         id="path157" />
      <path
         d="M 347.01046,161.21772 V 158.0359 H 345.41955 V 162.80862 H 353.3741 V 161.21772 Z M 350.19228,153.26317 V 154.85408 H 351.78319 V 153.26317 Z M 347.01046,156.44499 V 158.0359 H 348.60137 V 156.44499 Z M 353.3741,150.08135 H 345.41955 V 151.67226 H 351.78319 V 153.26317 H 353.3741 Z M 348.60137,154.85408 V 156.44499 H 350.19228 V 154.85408 Z"
         id="path159" />
      <path
         d="M 68.601221,175.13817 V 176.72908 H 73.373949 V 175.13817 Z M 73.373949,176.72908 V 183.09272 H 74.964858 V 176.72908 Z M 67.010312,176.72908 V 183.09272 H 68.601221 V 176.72908 Z M 68.601221,183.09272 V 184.68362 H 73.373949 V 183.09272 Z"
         id="path161" />
      <path
         d="M 78.146682,173.54726 V 183.09272 H 79.737591 V 173.54726 Z M 79.737591,183.09272 V 184.68362 H 84.510318 V 183.09272 Z M 84.510318,173.54726 V 183.09272 H 86.101227 V 173.54726 Z M 79.737591,171.95635 V 173.54726 H 84.510318 V 171.95635 Z"
         id="path163" />
      <path
         d="M 89.283052,173.54726 V 183.09272 H 90.873961 V 179.9109 H 92.46487 V 178.31999 H 90.873961 V 173.54726 Z M 90.873961,183.09272 V 184.68362 H 95.646688 V 183.09272 Z M 90.873961,171.95635 V 173.54726 H 95.646688 V 171.95635 Z M 95.646688,173.54726 V 175.13817 H 94.055779 V 176.72908 H 95.646688 V 183.09272 H 97.237597 V 173.54726 Z M 92.46487,176.72908 V 178.31999 H 94.055779 V 176.72908 Z"
         id="path165" />
      <path
         d="M 100.41942,173.54726 V 176.72908 H 102.01033 V 173.54726 Z M 106.78306,173.54726 V 171.95635 H 102.01033 V 173.54726 Z M 106.78306,173.54726 V 176.72908 H 108.37397 V 173.54726 Z M 102.01033,176.72908 V 178.31999 H 106.78306 V 176.72908 Z M 106.78306,178.31999 V 183.09272 H 108.37397 V 178.31999 Z M 100.41942,178.31999 V 183.09272 H 102.01033 V 178.31999 Z M 106.78306,183.09272 H 102.01033 V 184.68362 H 106.78306 Z"
         id="path167" />
      <path
         d="M 125.87398,176.72908 V 183.09272 H 122.69216 V 184.68362 H 130.6467 V 183.09272 H 127.46489 V 175.13817 H 122.69216 V 176.72908 Z M 125.87398,171.95635 V 173.54726 H 127.46489 V 171.95635 Z"
         id="path169" />
      <path
         d="M 137.01035,183.09272 H 133.82853 V 184.68362 H 141.78308 V 183.09272 H 138.60126 V 173.54726 H 141.78308 V 171.95635 H 133.82853 V 173.54726 H 137.01035 Z"
         id="path171" />
      <path
         d="M 148.14672,173.54726 V 183.09272 H 144.9649 V 184.68362 H 152.91945 V 183.09272 H 149.73763 V 171.95635 H 144.9649 V 173.54726 Z"
         id="path173" />
      <path
         d="M 156.10127,171.95635 V 184.68362 H 164.05582 V 183.09272 H 157.69218 V 171.95635 Z"
         id="path175" />
      <path
         d="M 170.41946,175.13817 V 183.09272 H 167.23764 V 184.68362 H 175.19218 V 183.09272 H 172.01036 V 171.95635 H 170.41946 V 173.54726 H 167.23764 V 175.13817 Z"
         id="path177" />
      <path
         d="M 191.10129,176.72908 H 187.91947 V 178.31999 H 191.10129 Z M 191.10129,171.95635 V 176.72908 H 192.6922 V 171.95635 Z M 191.10129,178.31999 V 184.68362 H 192.6922 V 178.31999 Z M 192.6922,184.68362 V 186.27453 H 195.87402 V 184.68362 Z M 192.6922,170.36544 V 171.95635 H 195.87402 V 170.36544 Z"
         id="path179" />
      <path
         d="M 205.41948,171.95635 V 176.72908 H 207.01039 V 171.95635 Z M 210.19221,176.72908 H 207.01039 V 178.31999 H 210.19221 Z M 205.41948,178.31999 V 184.68362 H 207.01039 V 178.31999 Z M 205.41948,184.68362 H 202.23767 V 186.27453 H 205.41948 Z M 205.41948,170.36544 H 202.23767 V 171.95635 H 205.41948 Z"
         id="path181" />
      <path
         d="M 224.5104,170.36544 V 186.27453 H 229.28313 V 184.68362 H 226.10131 V 171.95635 H 229.28313 V 170.36544 Z"
         id="path183" />
      <path
         d="M 238.82859,171.95635 V 184.68362 H 235.64677 V 186.27453 H 240.4195 V 170.36544 H 235.64677 V 171.95635 Z"
         id="path185" />
      <path
         d="M 257.9195,175.13817 V 176.72908 H 261.10132 V 175.13817 Z M 256.3286,176.72908 V 183.09272 H 257.9195 V 176.72908 Z M 257.9195,183.09272 V 184.68362 H 261.10132 V 183.09272 Z M 257.9195,186.27453 V 187.86544 H 262.69223 V 186.27453 Z M 261.10132,181.50181 V 183.09272 H 262.69223 V 186.27453 H 264.28314 V 175.13817 H 262.69223 V 176.72908 H 261.10132 V 178.31999 H 262.69223 V 181.50181 Z"
         id="path187" />
      <path
         d="M 273.8286,183.09272 H 269.05587 V 184.68362 H 273.8286 Z M 269.05587,183.09272 V 181.50181 H 267.46496 V 183.09272 Z M 273.8286,178.31999 H 269.05587 V 179.9109 H 273.8286 V 183.09272 H 275.41951 V 173.54726 H 273.8286 Z M 269.05587,178.31999 V 173.54726 H 267.46496 V 178.31999 Z M 269.05587,171.95635 V 173.54726 H 273.8286 V 171.95635 Z"
         id="path189" />
      <path
         d="M 280.19224,175.13817 V 176.72908 H 283.37406 V 175.13817 Z M 283.37406,176.72908 V 178.31999 H 284.96497 V 181.50181 H 283.37406 V 183.09272 H 284.96497 V 187.86544 H 286.55588 V 175.13817 H 284.96497 V 176.72908 Z M 278.60133,176.72908 V 183.09272 H 280.19224 V 176.72908 Z M 280.19224,183.09272 V 184.68362 H 283.37406 V 183.09272 Z"
         id="path191" />
      <path
         d="M 289.7377,173.54726 V 183.09272 H 291.32861 V 173.54726 Z M 291.32861,183.09272 V 184.68362 H 296.10134 V 183.09272 Z M 296.10134,181.50181 V 183.09272 H 297.69224 V 181.50181 Z M 291.32861,171.95635 V 173.54726 H 296.10134 V 171.95635 Z M 296.10134,173.54726 V 175.13817 H 297.69224 V 173.54726 Z"
         id="path193" />
      <path
         d="M 300.87408,173.54726 V 183.09272 H 302.46499 V 173.54726 Z M 302.46499,183.09272 V 184.68362 H 307.23772 V 183.09272 Z M 307.23772,179.9109 V 183.09272 H 308.82863 V 178.31999 H 305.64681 V 179.9109 Z M 302.46499,171.95635 V 173.54726 H 307.23772 V 171.95635 Z M 307.23772,173.54726 V 175.13817 H 308.82863 V 173.54726 Z"
         id="path195" />
      <path
         d="M 312.01045,173.54726 V 183.09272 H 313.60136 V 173.54726 Z M 313.60136,183.09272 V 184.68362 H 316.78318 V 186.27453 H 319.96499 V 184.68362 H 318.37409 V 183.09272 Z M 318.37409,173.54726 V 183.09272 H 319.96499 V 173.54726 Z M 318.37409,173.54726 V 171.95635 H 313.60136 V 173.54726 Z"
         id="path197" />
      <path
         d="M 337.46502,178.31999 V 176.72908 H 335.87411 V 178.31999 Z M 337.46502,178.31999 V 179.9109 H 339.05593 V 178.31999 Z M 339.05593,179.9109 V 181.50181 H 340.64684 V 179.9109 Z M 340.64684,178.31999 V 179.9109 H 342.23775 V 178.31999 Z M 334.2832,178.31999 V 179.9109 H 335.87411 V 178.31999 Z"
         id="path199" />
      <path
         d="M 351.78319,178.31999 H 347.01046 V 179.9109 H 351.78319 Z"
         id="path201" />
      <path
         d="M 356.55594,178.31999 V 179.9109 H 359.73775 V 183.09272 H 361.32866 V 179.9109 H 364.51048 V 178.31999 H 361.32866 V 175.13817 H 359.73775 V 178.31999 Z"
         id="path203" />
      <path
         d="M 375.64683,176.72908 H 367.69229 V 178.31999 H 375.64683 Z M 375.64683,179.9109 H 367.69229 V 181.50181 H 375.64683 Z"
         id="path205" />
      <path
         d="M 382.01049,175.13817 V 173.54726 H 380.41958 V 175.13817 Z M 382.01049,175.13817 V 176.72908 H 383.6014 V 175.13817 Z M 383.6014,176.72908 V 178.31999 H 385.19231 V 176.72908 Z M 382.01049,181.50181 V 183.09272 H 383.6014 V 181.50181 Z M 383.6014,179.9109 V 181.50181 H 385.19231 V 179.9109 Z M 385.19231,178.31999 V 179.9109 H 386.78322 V 178.31999 Z M 380.41958,183.09272 V 184.68362 H 382.01049 V 183.09272 Z"
         id="path207" />
    </g>
  </g>
</svg>
