<?xml version="1.0" encoding="UTF-8" standalone="no"?>
<svg
   version="1.1"
   id="svg2"
   viewBox="0 0 325.51514 108.85619"
   height="30.721636mm"
   width="91.867607mm"
   sodipodi:docname="DroidSansM Nerd Font.svg"
   xmlns:inkscape="http://www.inkscape.org/namespaces/inkscape"
   xmlns:sodipodi="http://sodipodi.sourceforge.net/DTD/sodipodi-0.dtd"
   xmlns="http://www.w3.org/2000/svg"
   xmlns:svg="http://www.w3.org/2000/svg"
   xmlns:rdf="http://www.w3.org/1999/02/22-rdf-syntax-ns#"
   xmlns:cc="http://creativecommons.org/ns#"
   xmlns:dc="http://purl.org/dc/elements/1.1/">
  <sodipodi:namedview
     id="namedview12"
     pagecolor="#ffffff"
     bordercolor="#666666"
     borderopacity="1.0"
     inkscape:showpageshadow="2"
     inkscape:pageopacity="0.0"
     inkscape:pagecheckerboard="0"
     inkscape:deskcolor="#d1d1d1"
     inkscape:document-units="mm" />
  <defs
     id="defs4" />
  <metadata
     id="metadata7">
    <rdf:RDF>
      <cc:Work
         rdf:about="">
        <dc:format>image/svg+xml</dc:format>
        <dc:type
           rdf:resource="http://purl.org/dc/dcmitype/StillImage" />
        <dc:title />
      </cc:Work>
    </rdf:RDF>
  </metadata>
  <g
     id="layer1"
     transform="translate(-64.669888,-80.040077)">
    <g
       aria-label="DroidSansM Nerd Font"
       id="text4136"
       style="font-size:27.5px;font-family:'DroidSansM Nerd Font';letter-spacing:0px;word-spacing:0px;fill:#ffffff">
      <path
         d="M 64.669888,100.93363 H 68.711636 C 71.800014,100.93363 74.163296,100.07426 75.801479,98.355507 77.439663,96.636757 78.258755,94.166054 78.258755,90.92997 78.258755,87.895302 77.466518,85.532021 75.882046,83.840126 74.297573,82.148232 72.095425,81.302284 69.262173,81.302284 H 64.669888 Z M 67.180874,83.437294 H 68.993618 C 73.397915,83.437294 75.613491,85.961708 75.613491,91.010536 75.613491,96.193642 73.223354,98.785194 68.469936,98.785194 H 67.180874 Z"
         id="path14" />
      <path
         d="M 93.5798,86.525673 C 92.478725,86.122841 91.404507,85.921425 90.357143,85.921425 89.215786,85.921425 88.262417,86.149696 87.483608,86.606239 86.7048,87.062782 85.966274,87.828163 85.294888,88.888954 H 85.187466 L 84.892056,86.18998 H 82.904751 V 100.93363 H 85.348598 V 92.984413 C 85.348598,91.426796 85.738003,90.231728 86.530239,89.399208 87.322475,88.566689 88.450405,88.150429 89.914028,88.150429 90.813686,88.150429 91.820766,88.351845 92.921841,88.754677 Z"
         id="path16" />
      <path
         d="M 104.05343,101.20219 C 106.09445,101.20219 107.7192,100.51737 108.95456,99.147743 110.17648,97.778114 110.79416,95.911659 110.79416,93.53495 110.79416,91.238808 110.16305,89.399208 108.9277,88.016151 107.67892,86.619667 106.08102,85.934853 104.134,85.934853 102.06613,85.934853 100.42794,86.606239 99.219448,87.975868 98.010952,89.332069 97.406704,91.185097 97.406704,93.53495 97.406704,95.871376 98.02438,97.724403 99.273159,99.120888 100.52194,100.51737 102.11984,101.20219 104.05343,101.20219 Z M 104.10714,99.174599 C 101.31417,99.174599 99.931118,97.294716 99.931118,93.53495 99.931118,89.815468 101.31417,87.949013 104.08029,87.949013 106.87326,87.949013 108.26974,89.815468 108.26974,93.53495 108.26974,97.294716 106.87326,99.174599 104.10714,99.174599 Z"
         id="path18" />
      <path
         d="M 120.86496,80.120644 C 119.89816,80.120644 119.42819,80.630898 119.42819,81.651405 119.42819,82.685341 119.89816,83.195595 120.86496,83.195595 121.24093,83.195595 121.57663,83.074745 121.85861,82.819618 122.14059,82.564491 122.2883,82.175087 122.2883,81.651405 122.2883,80.630898 121.8049,80.120644 120.86496,80.120644 Z M 119.6296,88.123573 V 99.013466 L 115.01046,99.282021 V 100.93363 H 126.80001 V 99.282021 L 122.07345,99.013466 V 86.18998 H 116.01754 V 87.841591 Z"
         id="path20" />
      <path
         d="M 140.91256,98.959755 141.27511,100.93363 H 143.24899 V 80.040077 H 140.80514 V 85.894569 C 140.80514,86.18998 140.85885,86.915077 140.96627,88.069862 H 140.80514 C 139.75778,86.646523 138.32101,85.921425 136.48141,85.921425 134.68209,85.921425 133.27218,86.606239 132.25167,87.949013 131.21774,89.291786 130.70749,91.171669 130.70749,93.588661 130.70749,95.992226 131.21774,97.858681 132.23825,99.201454 133.25875,100.54423 134.68209,101.21561 136.48141,101.21561 138.34787,101.21561 139.78463,100.46366 140.80514,98.973183 Z M 140.80514,94.152626 C 140.76486,95.925087 140.44259,97.200722 139.85177,97.992958 139.26095,98.785194 138.28073,99.188026 136.92453,99.188026 134.46725,99.188026 133.24533,97.334999 133.24533,93.628944 133.24533,89.842323 134.45382,87.96244 136.89767,87.96244 138.25387,87.96244 139.24752,88.392128 139.8652,89.251503 140.48288,90.110878 140.80514,91.561073 140.80514,93.588661 Z"
         id="path22" />
      <path
         d="M 147.26388,100.27567 C 148.59323,100.89335 150.44625,101.20219 152.82296,101.20219 155.10568,101.20219 156.86471,100.71879 158.10006,99.738564 159.33541,98.758339 159.96652,97.402138 159.96652,95.683388 159.96652,94.36747 159.59054,93.293251 158.85202,92.460732 158.11349,91.628212 156.64987,90.80912 154.44772,90.016884 152.60812,89.38578 151.39962,88.79496 150.8088,88.244423 150.21798,87.680458 149.92257,86.95536 149.92257,86.042274 149.92257,84.162392 151.23849,83.235878 153.8569,83.235878 155.36081,83.235878 156.97213,83.584999 158.69088,84.283241 L 159.55026,82.081093 C 157.88522,81.382851 156.01876,81.03373 153.96432,81.03373 151.96359,81.03373 150.39254,81.463417 149.23776,82.349648 148.08297,83.235878 147.50558,84.457802 147.50558,86.015419 147.50558,87.465614 147.92184,88.633827 148.7275,89.546913 149.53317,90.459999 150.87594,91.238808 152.72897,91.896767 154.66256,92.581581 155.9382,93.172401 156.5693,93.682655 157.20041,94.179482 157.50924,94.891151 157.50924,95.817665 157.50924,97.966103 155.95163,99.040321 152.80954,99.040321 150.99679,99.040321 149.14376,98.664345 147.25045,97.885536 Z"
         id="path24" />
      <path
         d="M 173.89108,100.93363 H 175.65011 V 90.835976 C 175.65011,89.117226 175.19357,87.868446 174.28048,87.089638 173.3674,86.310829 171.90377,85.921425 169.87619,85.921425 168.19772,85.921425 166.47897,86.351112 164.71994,87.210487 L 165.56588,89.050087 C 167.19064,88.324989 168.65426,87.949013 169.97018,87.949013 172.1589,87.949013 173.24655,89.009804 173.24655,91.117958 V 92.044472 L 170.52072,92.138466 C 165.95529,92.286171 163.67257,93.843788 163.67257,96.811317 163.67257,98.207802 164.08883,99.282021 164.92135,100.0474 165.75387,100.82621 166.89523,101.20219 168.35885,101.20219 169.50021,101.20219 170.44015,101.04105 171.16525,100.70536 171.89035,100.36967 172.58859,99.765419 173.28683,98.892616 H 173.39425 Z M 173.23312,93.722939 V 95.052284 C 173.23312,96.38163 172.83029,97.415565 172.05148,98.140663 171.27267,98.865761 170.22531,99.22831 168.90939,99.22831 167.11007,99.22831 166.22384,98.436073 166.22384,96.838173 166.22384,95.857948 166.58639,95.132851 167.32492,94.649452 168.05001,94.166054 169.29879,93.897499 171.05783,93.816933 Z"
         id="path26" />
      <path
         d="M 190.28634,100.93363 H 192.73019 V 91.305946 C 192.73019,87.720741 190.98458,85.921425 187.5068,85.921425 185.41208,85.921425 183.90817,86.673378 182.99508,88.177284 H 182.86081 L 182.49826,86.18998 H 180.52438 V 100.93363 H 182.96823 V 93.293251 C 182.96823,89.734901 184.33786,87.949013 187.09054,87.949013 189.21212,87.949013 190.28634,89.117226 190.28634,91.440224 Z"
         id="path28" />
      <path
         d="M 197.60446,100.27567 C 198.73239,100.89335 200.41085,101.20219 202.63986,101.20219 204.5466,101.20219 206.03708,100.82621 207.08444,100.06083 208.1318,99.295448 208.65548,98.234657 208.65548,96.891884 208.65548,95.925087 208.33322,95.119423 207.71554,94.448036 207.09787,93.776649 205.83566,93.105263 203.95578,92.407021 202.31759,91.829628 201.28366,91.373085 200.82711,91.050819 200.37057,90.728554 200.15573,90.285439 200.15573,89.748329 200.15573,88.553261 201.20309,87.96244 203.32467,87.96244 204.5466,87.96244 205.96994,88.284706 207.59469,88.929237 L 208.40036,86.928505 C 206.86959,86.257118 205.21798,85.934853 203.44552,85.934853 201.68649,85.934853 200.30343,86.270546 199.30978,86.968788 198.31613,87.66703 197.8193,88.620399 197.8193,89.842323 197.8193,90.728554 198.08786,91.493935 198.62497,92.138466 199.16208,92.782997 200.47799,93.508095 202.55929,94.286903 204.14376,94.850868 205.16427,95.334267 205.59396,95.710243 206.03708,96.08622 206.25192,96.529335 206.25192,97.039589 206.25192,98.489784 205.02999,99.214882 202.55929,99.214882 200.97482,99.214882 199.32321,98.825478 197.59103,98.060097 Z"
         id="path30" />
      <path
         d="M 218.52487,100.93363 H 220.59274 L 224.39279,83.772987 H 224.50021 C 224.36593,86.36454 224.31222,88.110146 224.31222,89.023232 V 100.93363 H 226.36666 V 81.302284 H 222.98288 L 219.62594,97.308144 H 219.54538 L 216.2153,81.302284 H 212.89865 V 100.93363 H 214.92624 V 89.197792 C 214.92624,87.949013 214.84567,86.136269 214.68454,83.75956 H 214.79196 Z"
         id="path32" />
      <path
         d="M 259.04977,100.93363 V 81.302284 H 256.71334 V 92.044472 C 256.71334,92.957558 256.76706,94.756874 256.90133,97.469276 H 256.82077 L 249.05954,81.302284 H 246.19943 V 100.93363 H 248.509 V 90.285439 C 248.509,89.036659 248.42843,87.170204 248.2673,84.686073 H 248.37472 L 256.16281,100.93363 Z"
         id="path34" />
      <path
         d="M 275.60617,94.031776 V 92.514442 C 275.60617,90.527138 275.02877,88.929237 273.90084,87.720741 272.77291,86.525673 271.25558,85.921425 269.36227,85.921425 267.32125,85.921425 265.6965,86.619667 264.488,88.016151 263.27951,89.412636 262.67526,91.292519 262.67526,93.669228 262.67526,96.019081 263.33322,97.858681 264.64914,99.201454 265.96505,100.54423 267.71066,101.21561 269.91281,101.21561 271.68527,101.21561 273.31002,100.87992 274.8005,100.20853 V 98.060097 C 273.22946,98.731483 271.57785,99.080605 269.83224,99.080605 266.82443,99.080605 265.28024,97.402138 265.2131,94.045204 Z M 265.26681,92.057899 C 265.49508,89.318642 266.83786,87.96244 269.30856,87.96244 271.73898,87.96244 272.9609,89.318642 272.9609,92.057899 Z"
         id="path36" />
      <path
         d="M 291.61203,86.525673 C 290.51095,86.122841 289.43673,85.921425 288.38937,85.921425 287.24801,85.921425 286.29464,86.149696 285.51583,86.606239 284.73703,87.062782 283.9985,87.828163 283.32711,88.888954 H 283.21969 L 282.92428,86.18998 H 280.93698 V 100.93363 H 283.38083 V 92.984413 C 283.38083,91.426796 283.77023,90.231728 284.56247,89.399208 285.3547,88.566689 286.48263,88.150429 287.94625,88.150429 288.84591,88.150429 289.85299,88.351845 290.95407,88.754677 Z"
         id="path38" />
      <path
         d="M 305.93942,98.959755 306.30197,100.93363 H 308.27584 V 80.040077 H 305.832 V 85.894569 C 305.832,86.18998 305.88571,86.915077 305.99313,88.069862 H 305.832 C 304.78463,86.646523 303.34787,85.921425 301.50827,85.921425 299.70895,85.921425 298.29904,86.606239 297.27853,87.949013 296.24459,89.291786 295.73434,91.171669 295.73434,93.588661 295.73434,95.992226 296.24459,97.858681 297.2651,99.201454 298.28561,100.54423 299.70895,101.21561 301.50827,101.21561 303.37472,101.21561 304.81149,100.46366 305.832,98.973183 Z M 305.832,94.152626 C 305.79171,95.925087 305.46945,97.200722 304.87863,97.992958 304.28781,98.785194 303.30758,99.188026 301.95138,99.188026 299.49411,99.188026 298.27218,97.334999 298.27218,93.628944 298.27218,89.842323 299.48068,87.96244 301.92453,87.96244 303.28073,87.96244 304.27438,88.392128 304.89206,89.251503 305.50973,90.110878 305.832,91.561073 305.832,93.588661 Z"
         id="path40" />
      <path
         d="M 332.67404,100.93363 V 92.635292 H 340.95895 V 90.433144 H 332.67404 V 83.504433 H 341.4692 V 81.302284 H 330.17648 V 100.93363 Z"
         id="path42" />
      <path
         d="M 351.59372,101.20219 C 353.63473,101.20219 355.25949,100.51737 356.49484,99.147743 357.71676,97.778114 358.33444,95.911659 358.33444,93.53495 358.33444,91.238808 357.70333,89.399208 356.46798,88.016151 355.2192,86.619667 353.6213,85.934853 351.67428,85.934853 349.60641,85.934853 347.96823,86.606239 346.75973,87.975868 345.55124,89.332069 344.94699,91.185097 344.94699,93.53495 344.94699,95.871376 345.56466,97.724403 346.81344,99.120888 348.06222,100.51737 349.66012,101.20219 351.59372,101.20219 Z M 351.64743,99.174599 C 348.85446,99.174599 347.4714,97.294716 347.4714,93.53495 347.4714,89.815468 348.85446,87.949013 351.62057,87.949013 354.41354,87.949013 355.81002,89.815468 355.81002,93.53495 355.81002,97.294716 354.41354,99.174599 351.64743,99.174599 Z"
         id="path44" />
      <path
         d="M 371.81588,100.93363 H 374.25973 V 91.305946 C 374.25973,87.720741 372.51413,85.921425 369.03634,85.921425 366.94162,85.921425 365.43771,86.673378 364.52462,88.177284 H 364.39035 L 364.0278,86.18998 H 362.05392 V 100.93363 H 364.49777 V 93.293251 C 364.49777,89.734901 365.8674,87.949013 368.62008,87.949013 370.74166,87.949013 371.81588,89.117226 371.81588,91.440224 Z"
         id="path46" />
      <path
         d="M 390.10446,98.919472 C 388.78854,99.10746 387.71432,99.201454 386.8818,99.201454 385.16305,99.201454 384.30368,98.328651 384.30368,96.583046 V 88.029579 H 390.18502 V 86.18998 H 384.30368 V 82.255653 H 382.89376 L 381.85983,86.109413 378.27462,86.767372 V 88.029579 H 381.85983 V 96.583046 C 381.85983,99.671425 383.47116,101.20219 386.72067,101.20219 387.80832,101.20219 388.93624,101.06791 390.10446,100.7725 Z"
         id="path48" />
    </g>
    <g
       aria-label="abcdefghijklmnopqrstuvwxyzABCDEFGHIJKLMNOPQRSTUVWXYZ oO08 iIlL1 {} [] g9qCGQ ~-+=&gt;"
       id="text4140"
       style="font-size:17.5px;font-family:'DroidSansM Nerd Font';letter-spacing:0px;word-spacing:0px;fill:#ffffff">
      <path
         d="M 73.067108,140.93362 H 74.186493 V 134.50784 C 74.186493,133.41409 73.895966,132.61942 73.314911,132.12381 72.733856,131.6282 71.80246,131.3804 70.512177,131.3804 69.444061,131.3804 68.350311,131.65384 67.230927,132.20071 L 67.769257,133.37137 C 68.803192,132.90994 69.734589,132.67068 70.571991,132.67068 71.964813,132.67068 72.656952,133.34573 72.656952,134.68729 V 135.27689 L 70.922333,135.3367 C 68.017059,135.43069 66.564423,136.42191 66.564423,138.31033 66.564423,139.19901 66.829315,139.8826 67.3591,140.36966 67.888885,140.86526 68.615204,141.10452 69.5466,141.10452 70.272919,141.10452 70.871063,141.00198 71.332489,140.78836 71.793915,140.57474 72.238251,140.19022 72.682587,139.6348 H 72.750946 Z M 72.648407,136.345 V 137.19095 C 72.648407,138.0369 72.392059,138.69485 71.896454,139.15628 71.400848,139.61771 70.734344,139.84842 69.896942,139.84842 68.751923,139.84842 68.187958,139.34427 68.187958,138.32742 68.187958,137.70364 68.418671,137.24222 68.888641,136.9346 69.350067,136.62698 70.144745,136.45609 71.26413,136.40482 Z"
         id="path51" />
      <path
         d="M 78.826385,139.74588 C 79.4758,140.65164 80.398651,141.10452 81.57785,141.10452 82.714325,141.10452 83.611542,140.67728 84.269501,139.82278 84.918915,138.96829 85.252167,137.76346 85.252167,136.22537 85.252167,134.70438 84.918915,133.51663 84.269501,132.66214 83.620087,131.80765 82.72287,131.3804 81.57785,131.3804 80.347382,131.3804 79.433075,131.85037 78.826385,132.78177 H 78.758026 C 78.800751,131.96146 78.826385,131.31204 78.826385,130.85062 V 127.63773 H 77.27121 V 140.93362 H 78.407684 L 78.723846,139.74588 Z M 78.826385,136.22537 C 78.826385,134.92654 79.014374,134.01224 79.398895,133.47391 79.774872,132.94412 80.407196,132.67068 81.295868,132.67068 82.851044,132.67068 83.637177,133.84988 83.637177,136.20828 83.637177,138.61795 82.859589,139.81424 81.312958,139.81424 80.441376,139.81424 79.809052,139.5408 79.415985,138.99393 79.022919,138.44705 78.826385,137.5242 78.826385,136.22537 Z"
         id="path53" />
      <path
         d="M 95.488983,131.88455 C 94.583221,131.5513 93.62619,131.3804 92.617889,131.3804 91.113983,131.3804 89.951874,131.7991 89.131561,132.63651 88.302704,133.47391 87.892548,134.69583 87.892548,136.29373 87.892548,137.84891 88.294159,139.03665 89.105927,139.86551 89.909149,140.69437 91.045624,141.10452 92.51535,141.10452 93.62619,141.10452 94.557587,140.93362 95.32663,140.58328 V 139.21609 C 94.386688,139.57498 93.472382,139.74588 92.58371,139.74588 90.524384,139.74588 89.498993,138.59232 89.498993,136.27664 89.498993,133.92679 90.550018,132.74759 92.669159,132.74759 93.335663,132.74759 94.104706,132.90994 94.959198,133.23465 Z"
         id="path55" />
      <path
         d="M 104.58932,139.67752 104.82004,140.93362 H 106.07614 V 127.63773 H 104.52097 V 131.36331 C 104.52097,131.5513 104.55515,132.01273 104.6235,132.74759 H 104.52097 C 103.85446,131.84183 102.94016,131.3804 101.7695,131.3804 100.62448,131.3804 99.727264,131.81619 99.07785,132.67068 98.419891,133.52518 98.095184,134.72147 98.095184,136.25955 98.095184,137.78909 98.419891,138.97684 99.069305,139.83133 99.718719,140.68582 100.62448,141.11307 101.7695,141.11307 102.95724,141.11307 103.87155,140.63455 104.52097,139.68607 Z M 104.52097,136.61844 C 104.49533,137.74637 104.29025,138.55814 103.91428,139.06229 103.5383,139.56644 102.91452,139.82278 102.05148,139.82278 100.48776,139.82278 99.710175,138.64359 99.710175,136.28519 99.710175,133.87552 100.47922,132.67923 102.03439,132.67923 102.89743,132.67923 103.52975,132.95267 103.92282,133.49954 104.31589,134.04642 104.52097,134.96927 104.52097,136.25955 Z"
         id="path57" />
      <path
         d="M 116.79147,136.54153 V 135.57596 C 116.79147,134.31131 116.42404,133.29446 115.70627,132.52542 114.98849,131.76492 114.02292,131.3804 112.81808,131.3804 111.51926,131.3804 110.48532,131.82474 109.71628,132.71341 108.94724,133.60208 108.56271,134.79837 108.56271,136.31082 108.56271,137.80618 108.98141,138.97684 109.81882,139.83133 110.65622,140.68582 111.76706,141.11307 113.16843,141.11307 114.29636,141.11307 115.33029,140.89944 116.27878,140.4722 V 139.10501 C 115.27902,139.53226 114.228,139.75443 113.11716,139.75443 111.20309,139.75443 110.22043,138.68631 110.1777,136.55008 Z M 110.21188,135.28543 C 110.35715,133.54227 111.21164,132.67923 112.78391,132.67923 114.33054,132.67923 115.10812,133.54227 115.10812,135.28543 Z"
         id="path59" />
      <path
         d="M 126.84885,132.72195 V 131.5513 H 123.52487 V 130.66263 C 123.52487,130.01321 123.6445,129.54324 123.90085,129.25272 124.14865,128.97073 124.62717,128.82547 125.32785,128.82547 125.90891,128.82547 126.4985,128.91092 127.09665,129.06473 L 127.44699,127.8428 C 126.74631,127.64627 126.02853,127.54373 125.29367,127.54373 124.09738,127.54373 123.25143,127.79153 122.73874,128.28714 122.22604,128.78275 121.9697,129.58597 121.9697,130.67972 V 131.50003 L 119.26096,131.78201 V 132.72195 H 121.9697 V 140.93362 H 123.52487 V 132.72195 Z"
         id="path61" />
      <path
         d="M 138.05124,131.5513 H 134.82126 C 134.45383,131.44022 134.02658,131.3804 133.53952,131.3804 132.41159,131.3804 131.54855,131.66238 130.94186,132.22635 130.33517,132.79031 130.0361,133.58499 130.0361,134.61893 130.0361,135.19998 130.18137,135.72977 130.47189,136.21683 130.76242,136.70389 131.15549,137.05423 131.66818,137.25931 130.90768,137.72073 130.53171,138.26761 130.53171,138.89993 130.53171,139.51517 130.80515,139.95096 131.35202,140.21585 129.98483,140.5491 129.30124,141.31815 129.30124,142.52298 129.30124,143.35184 129.6174,143.99271 130.26682,144.45413 130.91623,144.91556 131.85617,145.13773 133.10373,145.13773 136.31662,145.13773 137.93161,144.06961 137.93161,141.91629 137.93161,141.10452 137.66672,140.48074 137.14548,140.04495 136.61569,139.60062 135.86374,139.38699 134.87253,139.38699 H 133.27463 C 132.35178,139.38699 131.8989,139.14774 131.8989,138.66922 131.8989,138.22488 132.18088,137.84891 132.75339,137.53275 132.92429,137.56693 133.17209,137.58401 133.48825,137.58401 134.56491,137.58401 135.41086,137.31058 136.01755,136.7637 136.62424,136.21683 136.93185,135.49051 136.93185,134.5762 136.93185,133.84134 136.74387,133.23465 136.37643,132.75613 L 138.05124,132.52542 Z M 133.50534,136.5159 C 132.20651,136.5159 131.56564,135.86649 131.56564,134.5762 131.56564,133.19193 132.20651,132.50833 133.48825,132.50833 134.76999,132.50833 135.41086,133.18338 135.41086,134.55057 135.41086,135.85794 134.76999,136.5159 133.50534,136.5159 Z M 134.34274,140.78836 C 135.18015,140.78836 135.74411,140.87381 136.03464,141.04471 136.31662,141.21561 136.46188,141.5574 136.46188,142.06155 136.46188,143.3262 135.33395,143.96707 133.08664,143.96707 131.54001,143.96707 130.77097,143.47147 130.77097,142.48026 130.77097,141.35233 131.42038,140.78836 132.7363,140.78836 Z"
         id="path63" />
      <path
         d="M 146.51071,140.93362 H 148.06589 V 134.80692 C 148.06589,132.52542 146.95505,131.3804 144.74191,131.3804 143.40891,131.3804 142.45187,131.85892 141.87082,132.81595 H 141.78537 L 141.85373,131.58548 V 127.63773 H 140.29855 V 140.93362 H 141.85373 V 136.07156 C 141.85373,133.80716 142.72531,132.67068 144.47702,132.67068 145.82712,132.67068 146.51071,133.41409 146.51071,134.89236 Z"
         id="path65" />
      <path
         d="M 154.84201,127.689 C 154.22678,127.689 153.9277,128.0137 153.9277,128.66312 153.9277,129.32108 154.22678,129.64578 154.84201,129.64578 155.08127,129.64578 155.29489,129.56888 155.47433,129.40652 155.65378,129.24417 155.74777,128.99637 155.74777,128.66312 155.74777,128.0137 155.44016,127.689 154.84201,127.689 Z M 154.05588,132.78177 V 139.7117 L 151.11642,139.8826 V 140.93362 H 158.61887 V 139.8826 L 155.61105,139.7117 V 131.5513 H 151.75729 V 132.60233 Z"
         id="path67" />
      <path
         d="M 166.28366,127.689 C 165.67697,127.689 165.3779,128.0137 165.3779,128.66312 165.3779,129.32108 165.67697,129.64578 166.28366,129.64578 166.89035,129.64578 167.19797,129.32108 167.19797,128.66312 167.19797,128.0137 166.89035,127.689 166.28366,127.689 Z M 161.08835,144.83865 C 161.78903,145.04373 162.6008,145.13773 163.54074,145.13773 164.7114,145.13773 165.61716,144.86429 166.25803,144.30887 166.90744,143.75345 167.2236,142.95877 167.2236,141.93338 V 131.5513 H 162.07956 V 132.60233 L 165.66843,132.78177 V 142.01883 C 165.66843,142.59988 165.48898,143.04422 165.11301,143.36893 164.73703,143.69363 164.21579,143.85599 163.54929,143.85599 162.66916,143.85599 161.84885,143.7449 161.08835,143.52274 Z"
         id="path69" />
      <path
         d="M 173.7092,136.20828 H 173.67502 L 173.81174,133.7388 V 127.63773 H 172.27365 V 140.93362 H 173.81174 V 137.32767 L 174.91403,136.62698 178.55417,140.93362 H 180.37424 L 175.91379,135.61014 180.13498,131.5513 H 178.23801 L 174.86276,134.90945 Z"
         id="path71" />
      <path
         d="M 185.4841,128.85965 V 139.7117 L 182.54465,139.8826 V 140.93362 H 190.05563 V 139.8826 L 187.04782,139.7117 V 127.63773 H 183.19406 V 128.68021 Z"
         id="path73" />
      <path
         d="M 199.7883,140.93362 H 201.17258 V 134.80692 C 201.17258,133.57645 201.00168,132.70486 200.67697,132.17508 200.34372,131.64529 199.81393,131.3804 199.08762,131.3804 198.2673,131.3804 197.64352,131.90164 197.21628,132.93558 H 197.16501 C 196.87448,131.90164 196.26779,131.3804 195.34494,131.3804 194.5759,131.3804 194.00339,131.85892 193.62741,132.81595 H 193.54196 L 193.31125,131.5513 H 192.22604 V 140.93362 H 193.61032 V 136.07156 C 193.61032,134.71292 193.71286,133.80716 193.91794,133.35428 194.12302,132.9014 194.46481,132.67068 194.94333,132.67068 195.65256,132.67068 196.01144,133.41409 196.01144,134.89236 V 140.93362 H 197.38718 V 135.7554 C 197.38718,134.64456 197.49826,133.85843 197.72043,133.37991 197.9426,132.90994 198.31003,132.67068 198.80563,132.67068 199.15598,132.67068 199.40378,132.83304 199.55759,133.15775 199.7114,133.48245 199.7883,134.06351 199.7883,134.89236 Z"
         id="path75" />
      <path
         d="M 209.52097,140.93362 H 211.07614 V 134.80692 C 211.07614,132.52542 209.9653,131.3804 207.75217,131.3804 206.41916,131.3804 205.46213,131.85892 204.88107,132.81595 H 204.79562 L 204.56491,131.5513 H 203.30881 V 140.93362 H 204.86398 V 136.07156 C 204.86398,133.80716 205.73557,132.67068 207.48727,132.67068 208.83737,132.67068 209.52097,133.41409 209.52097,134.89236 Z"
         id="path77" />
      <path
         d="M 217.65573,141.10452 C 218.95456,141.10452 219.98849,140.66873 220.77463,139.79715 221.55222,138.92557 221.94528,137.73782 221.94528,136.22537 221.94528,134.76419 221.54367,133.59354 220.75754,132.71341 219.96286,131.82474 218.94601,131.38895 217.707,131.38895 216.39108,131.38895 215.3486,131.81619 214.57956,132.68777 213.81052,133.55081 213.42599,134.73001 213.42599,136.22537 213.42599,137.71219 213.81906,138.89139 214.61374,139.78006 215.40842,140.66873 216.42526,141.10452 217.65573,141.10452 Z M 217.68991,139.81424 C 215.91257,139.81424 215.03244,138.61795 215.03244,136.22537 215.03244,133.85843 215.91257,132.67068 217.67282,132.67068 219.45016,132.67068 220.33884,133.85843 220.33884,136.22537 220.33884,138.61795 219.45016,139.81424 217.68991,139.81424 Z"
         id="path79" />
      <path
         d="M 225.85031,139.74588 C 226.49973,140.65164 227.42258,141.10452 228.60178,141.10452 229.73825,141.10452 230.63547,140.67728 231.29343,139.82278 231.94284,138.96829 232.27609,137.76346 232.27609,136.22537 232.27609,134.70438 231.94284,133.51663 231.29343,132.66214 230.64401,131.80765 229.7468,131.3804 228.60178,131.3804 227.3884,131.3804 226.47409,131.85892 225.85031,132.81595 H 225.78195 L 225.55124,131.5513 H 224.29514 V 145.13773 H 225.85031 V 141.13016 C 225.85031,140.94217 225.81613,140.48074 225.74777,139.74588 Z M 225.85031,135.87503 C 225.8674,134.7471 226.07248,133.92679 226.44846,133.42264 226.82443,132.92703 227.44821,132.67068 228.31979,132.67068 229.87497,132.67068 230.6611,133.84988 230.6611,136.20828 230.6611,138.61795 229.88351,139.81424 228.33688,139.81424 227.4653,139.81424 226.83298,139.5408 226.43991,138.99393 226.04684,138.44705 225.85031,137.5242 225.85031,136.22537 Z"
         id="path81" />
      <path
         d="M 241.04318,132.81595 C 240.38522,131.85892 239.47092,131.3804 238.29172,131.3804 237.1467,131.3804 236.24948,131.81619 235.60007,132.67068 234.94211,133.52518 234.6174,134.72147 234.6174,136.25955 234.6174,137.78909 234.94211,138.97684 235.59152,139.83133 236.24094,140.68582 237.1467,141.11307 238.29172,141.11307 239.47946,141.11307 240.39377,140.63455 241.03464,139.68607 H 241.13718 C 241.06882,140.42093 241.03464,140.89944 241.03464,141.1387 V 145.14627 H 242.58981 V 131.55984 H 241.33371 L 241.103,132.82449 Z M 241.03464,136.61844 C 241.01755,137.74637 240.81247,138.55814 240.43649,139.06229 240.06052,139.56644 239.43674,139.82278 238.5737,139.82278 237.00998,139.82278 236.23239,138.64359 236.23239,136.28519 236.23239,133.87552 237.00143,132.67923 238.55661,132.67923 239.41965,132.67923 240.05197,132.95267 240.44504,133.49954 240.8381,134.04642 241.03464,134.96927 241.03464,136.25955 Z"
         id="path83" />
      <path
         d="M 252.99753,131.76492 C 252.29684,131.50858 251.61325,131.3804 250.94675,131.3804 250.22043,131.3804 249.61374,131.52567 249.11813,131.81619 248.62253,132.10672 248.15256,132.59378 247.72531,133.26883 H 247.65695 L 247.46896,131.5513 H 246.20432 V 140.93362 H 247.75949 V 135.87503 C 247.75949,134.88382 248.00729,134.12332 248.51144,133.59354 249.01559,133.06375 249.73337,132.79886 250.66476,132.79886 251.23727,132.79886 251.87814,132.92703 252.57883,133.18338 Z"
         id="path85" />
      <path
         d="M 256.18478,140.51492 C 256.90256,140.90799 257.97067,141.10452 259.38913,141.10452 260.60251,141.10452 261.55099,140.86526 262.2175,140.3782 262.884,139.89114 263.21725,139.21609 263.21725,138.3616 263.21725,137.74637 263.01218,137.23367 262.61911,136.80643 262.22604,136.37918 261.42282,135.95193 260.22653,135.5076 259.18405,135.14017 258.52609,134.84964 258.23557,134.64456 257.94504,134.43948 257.80832,134.1575 257.80832,133.8157 257.80832,133.05521 258.47482,132.67923 259.82492,132.67923 260.60251,132.67923 261.50827,132.88431 262.54221,133.29446 L 263.0549,132.02127 C 262.08078,131.59402 261.02975,131.38895 259.90182,131.38895 258.78244,131.38895 257.90231,131.60257 257.26999,132.04691 256.63766,132.49124 256.3215,133.09793 256.3215,133.87552 256.3215,134.43948 256.4924,134.92654 256.8342,135.3367 257.17599,135.74686 258.0134,136.20828 259.33786,136.70389 260.34616,137.06277 260.99557,137.37039 261.26901,137.60965 261.55099,137.84891 261.68771,138.13089 261.68771,138.4556 261.68771,139.37845 260.91013,139.83987 259.33786,139.83987 258.32956,139.83987 257.27853,139.59207 256.17624,139.10501 Z"
         id="path87" />
      <path
         d="M 273.66769,139.65189 C 272.83029,139.77151 272.1467,139.83133 271.61691,139.83133 270.52316,139.83133 269.97629,139.27591 269.97629,138.16507 V 132.72195 H 273.71896 V 131.5513 H 269.97629 V 129.04764 H 269.07907 L 268.42111,131.50003 266.13962,131.91873 V 132.72195 H 268.42111 V 138.16507 C 268.42111,140.1304 269.4465,141.10452 271.51437,141.10452 272.20651,141.10452 272.92429,141.01907 273.66769,140.83109 Z"
         id="path89" />
      <path
         d="M 283.332,140.93362 H 284.5881 V 131.5513 H 283.03293 V 136.42191 C 283.03293,137.63528 282.81931,138.49832 282.4006,139.02811 281.97336,139.55789 281.30685,139.81424 280.39255,139.81424 279.04245,139.81424 278.37595,139.07938 278.37595,137.59256 V 131.5513 H 276.82077 V 137.67801 C 276.82077,139.96805 277.93161,141.10452 280.16183,141.10452 281.46066,141.10452 282.41769,140.63455 283.01584,139.67752 H 283.10129 Z"
         id="path91" />
      <path
         d="M 290.21066,140.93362 H 292.18454 L 295.73923,131.5513 H 294.12424 L 292.082,137.12259 C 291.54367,138.72903 291.25314,139.65189 291.21042,139.89969 H 291.15915 C 291.0737,139.3699 290.79172,138.43851 290.30466,137.12259 L 288.25388,131.5513 H 286.64743 Z"
         id="path93" />
      <path
         d="M 303.40402,140.93362 H 305.07028 L 306.99289,131.5513 H 305.64279 L 304.77121,136.19119 C 304.60031,137.05423 304.42941,138.17361 304.25851,139.54935 H 304.20724 C 304.07053,138.6265 303.87399,137.6011 303.63474,136.49026 L 302.54953,131.5513 H 300.90036 L 299.76389,136.49026 C 299.55026,137.48148 299.35373,138.49832 299.17429,139.54935 H 299.12302 C 298.99484,138.37015 298.83249,137.25076 298.63596,136.19119 L 297.79855,131.5513 H 296.41428 L 298.31979,140.93362 H 299.93478 L 301.08835,135.87503 301.64377,133.02103 H 301.69504 L 302.27609,135.84085 Z"
         id="path95" />
      <path
         d="M 311.31662,136.12283 307.77902,140.93362 H 309.54782 L 312.20529,137.20804 314.85422,140.93362 H 316.61447 L 313.08542,136.12283 316.46066,131.5513 H 314.69186 L 312.20529,135.05472 309.72726,131.5513 H 307.95847 Z"
         id="path97" />
      <path
         d="M 318.1611,131.5513 322.06613,141.01907 321.57053,142.30081 C 321.33127,142.87332 321.05783,143.27493 320.75021,143.50565 320.4426,143.7449 320.0239,143.85599 319.47702,143.85599 319.04977,143.85599 318.66525,143.82181 318.31491,143.75345 V 144.99246 C 318.77634,145.095 319.25485,145.13773 319.75046,145.13773 320.63913,145.13773 321.33981,144.88992 321.85251,144.39432 322.35666,143.89871 322.80099,143.14676 323.18552,142.15555 L 327.24435,131.5513 H 325.62936 L 323.58713,137.12259 C 323.20261,138.14798 322.94626,138.98538 322.81808,139.61771 H 322.76682 C 322.72409,139.13919 322.46774,138.31033 322.00632,137.13968 L 319.76755,131.5513 Z"
         id="path99" />
      <path
         d="M 336.88303,140.93362 V 139.76297 H 331.20065 L 336.72922,132.79886 V 131.5513 H 329.79929 V 132.72195 H 335.15695 L 329.5173,139.86551 V 140.93362 Z"
         id="path101" />
      <path
         d="M 73.998505,162.80862 H 75.63913 L 71.494843,150.26468 H 69.828583 L 65.701385,162.80862 H 67.324921 L 68.572479,158.93777 H 72.768036 Z M 72.315155,157.52786 H 69.02536 L 70.255829,153.53738 C 70.401093,153.05887 70.529266,152.53763 70.64035,151.97366 70.777069,152.55472 70.947968,153.20413 71.170135,153.90482 Z"
         id="path103" />
      <path
         d="M 77.074677,150.31595 V 162.80862 H 81.57785 C 82.825409,162.80862 83.81662,162.49246 84.542938,161.84305 85.269257,161.20218 85.636688,160.31351 85.636688,159.18558 85.636688,157.54495 84.688202,156.57083 82.799774,156.26321 V 156.17776 C 83.560272,156.07523 84.166962,155.7847 84.611298,155.29764 85.055634,154.81912 85.277802,154.21243 85.277802,153.47757 85.277802,152.36673 84.92746,151.56351 84.226776,151.0679 83.526093,150.5723 82.389618,150.31595 80.825897,150.31595 Z M 78.664032,155.6138 V 151.67459 H 80.919891 C 81.868378,151.67459 82.560516,151.8284 82.996307,152.11893 83.432098,152.418 83.645721,152.90506 83.645721,153.58865 83.645721,154.31497 83.449188,154.83621 83.039032,155.15237 82.628876,155.45999 81.979462,155.62234 81.09079,155.62234 Z M 78.664032,156.95535 H 81.176239 C 83.021942,156.95535 83.944794,157.67313 83.944794,159.12576 83.944794,160.68094 83.064667,161.46707 81.287323,161.46707 H 78.664032 Z"
         id="path105" />
      <path
         d="M 96.027313,161.09109 C 94.899384,161.42435 93.967987,161.5867 93.233124,161.5867 91.917206,161.5867 90.91745,161.15945 90.233856,160.30496 89.550262,159.45047 89.208466,158.20291 89.208466,156.57083 89.208466,155.0242 89.567352,153.80228 90.302216,152.89651 91.028534,151.99075 92.002655,151.53787 93.224579,151.53787 94.087616,151.53787 94.959198,151.76004 95.839325,152.20438 L 96.505829,150.87137 C 95.574432,150.38431 94.480682,150.13651 93.224579,150.13651 91.464325,150.13651 90.071503,150.71756 89.046112,151.86258 88.029266,153.01614 87.516571,154.57986 87.516571,156.55374 87.516571,158.60452 87.986542,160.19388 88.917938,161.31326 89.85788,162.4241 91.199432,162.98807 92.959686,162.98807 94.173065,162.98807 95.189911,162.81717 96.018768,162.48392 Z"
         id="path107" />
      <path
         d="M 98.078094,162.80862 H 100.65012 C 102.61545,162.80862 104.11935,162.26175 105.16183,161.168 106.20432,160.07425 106.72556,158.50198 106.72556,156.44266 106.72556,154.51151 106.22141,153.0076 105.2131,151.93094 104.2048,150.85428 102.80344,150.31595 101.00046,150.31595 H 98.078094 Z M 99.675995,151.67459 H 100.82956 C 103.63229,151.67459 105.04221,153.28104 105.04221,156.49393 105.04221,159.79227 103.52121,161.44144 100.49631,161.44144 H 99.675995 Z"
         id="path109" />
      <path
         d="M 116.47531,162.80862 V 161.40726 H 110.86984 V 156.9639 H 116.14206 V 155.57962 H 110.86984 V 151.71732 H 116.47531 V 150.31595 H 109.28049 V 162.80862 Z"
         id="path111" />
      <path
         d="M 121.60226,162.80862 V 157.52786 H 126.87448 V 156.1265 H 121.60226 V 151.71732 H 127.19919 V 150.31595 H 120.01291 V 162.80862 Z"
         id="path113" />
      <path
         d="M 134.17184,156.21194 V 157.61331 H 136.19699 V 161.3389 C 135.59885,161.5098 135.01779,161.5867 134.47092,161.5867 132.2236,161.5867 131.10422,159.9119 131.10422,156.56229 131.10422,154.99002 131.40329,153.75955 132.01852,152.87088 132.62521,151.98221 133.47971,151.53787 134.57346,151.53787 135.33395,151.53787 136.12863,151.77713 136.95749,152.25565 L 137.57272,150.87137 C 136.70114,150.38431 135.70993,150.13651 134.61618,150.13651 133.00119,150.13651 131.728,150.70901 130.80515,151.84549 129.88229,152.98196 129.42087,154.54568 129.42087,156.5452 129.42087,158.5618 129.84811,160.14261 130.68552,161.27908 131.52292,162.41556 132.69357,162.97952 134.18039,162.97952 135.46213,162.97952 136.65842,162.7659 137.76926,162.33865 V 156.21194 Z"
         id="path115" />
      <path
         d="M 148.27951,162.80862 V 150.31595 H 146.68161 V 155.57962 H 141.68283 V 150.31595 H 140.08493 V 162.80862 H 141.68283 V 156.98099 H 146.68161 V 162.80862 Z"
         id="path117" />
      <path
         d="M 157.98654,162.80862 V 161.7576 L 155.47433,161.5867 V 151.53787 L 157.98654,151.36697 V 150.31595 H 151.35568 V 151.36697 L 153.87643,151.53787 V 161.5867 L 151.35568,161.7576 V 162.80862 Z"
         id="path119" />
      <path
         d="M 161.10544,162.47537 C 161.71213,162.81717 162.63498,162.97952 163.87399,162.97952 165.22409,162.97952 166.29221,162.62064 167.09543,161.89432 167.89865,161.168 168.30026,160.18533 168.30026,158.95486 V 150.31595 H 166.71091 V 158.97195 C 166.71091,159.80936 166.44601,160.45877 165.91623,160.91165 165.38644,161.36453 164.66013,161.5867 163.74582,161.5867 162.90842,161.5867 162.02829,161.4158 161.10544,161.05692 Z"
         id="path121" />
      <path
         d="M 180.67331,162.80862 176.0676,155.75906 180.5195,150.31595 H 178.73361 L 174.86276,155.12674 173.82883,156.56229 V 150.31595 H 172.23947 V 162.80862 H 173.82883 V 157.81839 L 175.02512,156.84427 178.87033,162.80862 Z"
         id="path123" />
      <path
         d="M 182.92917,162.80862 H 189.95309 V 161.39017 H 184.52707 V 150.31595 H 182.92917 Z"
         id="path125" />
      <path
         d="M 195.98581,162.80862 H 197.30173 L 199.71994,151.88821 H 199.7883 C 199.70285,153.53738 199.66867,154.64822 199.66867,155.22928 V 162.80862 H 200.97604 V 150.31595 H 198.82272 L 196.68649,160.5015 H 196.63522 L 194.51608,150.31595 H 192.40549 V 162.80862 H 193.69577 V 155.34036 C 193.69577,154.54568 193.6445,153.39212 193.54196,151.87967 H 193.61032 Z"
         id="path127" />
      <path
         d="M 211.27267,162.80862 V 150.31595 H 209.78586 V 157.15189 C 209.78586,157.73294 209.82004,158.87796 209.90549,160.60403 H 209.85422 L 204.91525,150.31595 H 203.09518 V 162.80862 H 204.56491 V 156.0325 C 204.56491,155.23782 204.51364,154.05008 204.4111,152.46927 H 204.47946 L 209.43552,162.80862 Z"
         id="path129" />
      <path
         d="M 217.707,162.97952 C 219.15964,162.97952 220.27902,162.4241 221.06516,161.30472 221.85129,160.19388 222.24435,158.60452 222.24435,156.5452 222.24435,154.49442 221.85129,152.90506 221.0737,151.79422 220.29611,150.68338 219.17673,150.11942 217.72409,150.11942 214.6821,150.11942 213.1611,152.25565 213.1611,156.52811 213.1611,160.83475 214.67355,162.97952 217.707,162.97952 Z M 217.707,161.5867 C 215.79294,161.5867 214.84445,159.9119 214.84445,156.5452 214.84445,153.19559 215.80148,151.52078 217.72409,151.52078 218.68112,151.52078 219.3989,151.93094 219.86032,152.74271 220.32175,153.55447 220.561,154.81912 220.561,156.5452 220.561,158.25418 220.33029,159.52737 219.86887,160.34769 219.40744,161.17654 218.68967,161.5867 217.707,161.5867 Z"
         id="path131" />
      <path
         d="M 226.0383,157.94656 H 227.67038 C 229.17429,157.94656 230.31931,157.59622 231.10544,156.89554 231.89157,156.19485 232.29318,155.22073 232.29318,153.97318 232.29318,151.53787 230.82346,150.31595 227.90109,150.31595 H 224.44894 V 162.80862 H 226.0383 Z M 226.0383,156.59647 V 151.67459 H 227.75583 C 229.67844,151.67459 230.64401,152.46927 230.64401,154.05862 230.64401,154.93021 230.39621,155.57108 229.90915,155.98123 229.42209,156.39139 228.61887,156.59647 227.49094,156.59647 Z"
         id="path133" />
      <path
         d="M 240.81247,162.47537 C 242.436,161.51834 243.24777,159.54446 243.24777,156.5452 243.24777,154.49442 242.85471,152.90506 242.07712,151.79422 241.29953,150.68338 240.18015,150.11942 238.72751,150.11942 235.68552,150.11942 234.16452,152.25565 234.16452,156.52811 234.16452,160.83475 235.67697,162.97952 238.71042,162.97952 238.93259,162.97952 239.15475,162.96243 239.35983,162.92825 239.88107,164.23563 240.81247,165.3721 242.15402,166.34622 L 243.18796,165.13284 C 242.08566,164.38943 241.29099,163.50076 240.81247,162.47537 Z M 238.70187,161.5867 C 236.79636,161.5867 235.83932,159.9119 235.83932,156.5452 235.83932,153.19559 236.8049,151.52078 238.71896,151.52078 239.68454,151.52078 240.40231,151.93094 240.86374,152.74271 241.32516,153.55447 241.55588,154.81912 241.55588,156.5452 241.55588,158.25418 241.33371,159.52737 240.87228,160.34769 240.41086,161.17654 239.69308,161.5867 238.70187,161.5867 Z"
         id="path135" />
      <path
         d="M 247.13571,157.64749 H 249.0925 L 252.08322,162.80862 H 253.95456 L 250.56223,157.2117 C 252.20285,156.61356 253.03171,155.50272 253.03171,153.86209 253.03171,151.50369 251.54489,150.31595 248.58835,150.31595 H 245.53781 V 162.80862 H 247.13571 Z M 247.13571,156.29739 V 151.67459 H 248.49435 C 249.50266,151.67459 250.23752,151.85403 250.69894,152.20438 251.15182,152.56326 251.38254,153.13577 251.38254,153.939 251.38254,154.75931 251.15182,155.35745 250.6904,155.73343 250.22897,156.10941 249.5112,156.29739 248.53708,156.29739 Z"
         id="path137" />
      <path
         d="M 255.655,162.38992 C 256.50095,162.78299 257.68015,162.97952 259.1926,162.97952 260.64523,162.97952 261.76462,162.67191 262.55075,162.04813 263.33688,161.42435 263.73849,160.56131 263.73849,159.46756 263.73849,158.63016 263.49924,157.94656 263.02927,157.41678 262.5593,156.88699 261.6279,156.36575 260.22653,155.8616 259.05588,155.45999 258.28683,155.08401 257.91086,154.73367 257.53488,154.37479 257.34689,153.91336 257.34689,153.33231 257.34689,152.13602 258.1843,151.54642 259.85056,151.54642 260.80759,151.54642 261.83298,151.76859 262.92673,152.21292 L 263.4736,150.81155 C 262.41403,150.36722 261.22629,150.14505 259.91891,150.14505 258.64572,150.14505 257.64597,150.41849 256.9111,150.98245 256.17624,151.54642 255.80881,152.32401 255.80881,153.31522 255.80881,154.23807 256.0737,154.98148 256.5864,155.56253 257.09909,156.14359 257.95358,156.63919 259.13278,157.05789 260.36325,157.49368 261.17502,157.86966 261.57663,158.19437 261.97824,158.51053 262.17477,158.96341 262.17477,159.55301 262.17477,160.9202 261.18356,161.60379 259.18405,161.60379 258.03049,161.60379 256.85129,161.36453 255.64645,160.86893 Z"
         id="path139" />
      <path
         d="M 270.99313,162.80862 V 151.71732 H 274.55637 V 150.31595 H 265.82346 V 151.71732 H 269.39523 V 162.80862 Z"
         id="path141" />
      <path
         d="M 284.88718,150.29886 H 283.29782 V 158.26273 C 283.26364,160.48441 282.40915,161.5867 280.73434,161.5867 278.98264,161.5867 278.11105,160.48441 278.11105,158.27982 V 150.31595 H 276.5217 V 158.36526 C 276.5217,161.44144 277.89743,162.97952 280.6489,162.97952 282.03317,162.97952 283.09274,162.58646 283.81052,161.80032 284.52829,161.01419 284.88718,159.88626 284.88718,158.39944 Z"
         id="path143" />
      <path
         d="M 294.47458,150.31595 291.97946,158.18582 C 291.62057,159.29666 291.35568,160.27078 291.18478,161.09109 290.91135,159.9119 290.66354,158.96341 290.43283,158.23709 L 287.91208,150.31595 H 286.23727 L 290.39865,162.80862 H 291.99655 L 296.17502,150.31595 Z"
         id="path145" />
      <path
         d="M 300.96872,154.19534 299.76389,158.60452 C 299.49899,159.52737 299.30246,160.41605 299.16574,161.27054 299.16574,161.04837 299.11447,160.36478 299.02048,159.21121 298.91794,158.06619 298.80685,156.98953 298.67868,155.98123 L 297.92673,150.31595 H 296.47409 L 298.20871,162.80862 H 299.83224 L 301.16525,157.86966 C 301.35324,157.23734 301.53268,156.43411 301.72067,155.4429 301.86594,156.26321 302.05392,157.06644 302.28464,157.85257 L 303.72018,162.80862 H 305.34372 L 306.94162,150.31595 H 305.48898 L 304.89084,155.98123 C 304.53195,159.21121 304.34396,160.97147 304.33542,161.27054 304.26706,160.77493 304.06198,159.89481 303.72018,158.64725 L 302.48117,154.19534 Z"
         id="path147" />
      <path
         d="M 316.99045,162.80862 313.08542,156.22903 316.69138,150.31595 H 315.0593 L 312.20529,155.09256 309.37692,150.31595 H 307.67648 L 311.28244,156.2803 307.41159,162.80862 H 309.02658 L 312.15402,157.3826 315.18747,162.80862 Z"
         id="path149" />
      <path
         d="M 322.68991,156.63065 319.47702,150.31595 H 317.7424 L 321.90378,158.03201 V 162.80862 H 323.50168 V 157.94656 L 327.66306,150.31595 H 325.94553 Z"
         id="path151" />
      <path
         d="M 337.56662,162.80862 V 161.39017 H 330.6196 L 337.39572,151.55496 V 150.31595 H 329.01315 V 151.73441 H 335.60983 L 328.83371,161.56961 V 162.80862 Z"
         id="path153" />
      <path
         d="M 70.631805,184.85452 C 71.930634,184.85452 72.964569,184.41873 73.750702,183.54715 74.52829,182.67557 74.921356,181.48782 74.921356,179.97537 74.921356,178.51419 74.519745,177.34354 73.733612,176.46341 72.938934,175.57474 71.922089,175.13895 70.683075,175.13895 69.367157,175.13895 68.324677,175.56619 67.555634,176.43777 66.786591,177.30081 66.402069,178.48001 66.402069,179.97537 66.402069,181.46219 66.795135,182.64139 67.589813,183.53006 68.384491,184.41873 69.401337,184.85452 70.631805,184.85452 Z M 70.665985,183.56424 C 68.888641,183.56424 68.008514,182.36795 68.008514,179.97537 68.008514,177.60843 68.888641,176.42068 70.648895,176.42068 72.426239,176.42068 73.314911,177.60843 73.314911,179.97537 73.314911,182.36795 72.426239,183.56424 70.665985,183.56424 Z"
         id="path155" />
      <path
         d="M 81.184784,184.85452 C 82.637421,184.85452 83.756805,184.2991 84.542938,183.17972 85.329071,182.06888 85.722137,180.47952 85.722137,178.4202 85.722137,176.36942 85.329071,174.78006 84.551483,173.66922 83.773895,172.55838 82.65451,171.99442 81.201874,171.99442 78.159882,171.99442 76.638885,174.13065 76.638885,178.40311 76.638885,182.70975 78.151337,184.85452 81.184784,184.85452 Z M 81.184784,183.4617 C 79.270721,183.4617 78.322235,181.7869 78.322235,178.4202 78.322235,175.07059 79.279266,173.39578 81.201874,173.39578 82.158905,173.39578 82.876678,173.80594 83.338104,174.61771 83.79953,175.42947 84.038788,176.69412 84.038788,178.4202 84.038788,180.12918 83.808075,181.40237 83.346649,182.22269 82.885223,183.05154 82.16745,183.4617 81.184784,183.4617 Z"
         id="path157" />
      <path
         d="M 91.652313,184.85452 C 94.318329,184.85452 95.659882,182.70975 95.659882,178.4202 95.659882,176.34378 95.318085,174.75443 94.643036,173.65213 93.967987,172.54984 92.968231,171.99442 91.652313,171.99442 89.003387,171.99442 87.678925,174.13919 87.678925,178.4202 87.678925,180.50516 88.012177,182.10306 88.687225,183.20535 89.353729,184.30765 90.34494,184.85452 91.652313,184.85452 Z M 91.652313,183.53006 C 90.823456,183.53006 90.216766,183.13699 89.832245,182.33377 89.447723,181.53909 89.259735,180.23172 89.259735,178.4202 89.259735,176.61722 89.447723,175.31839 89.832245,174.52371 90.216766,173.72903 90.823456,173.32742 91.652313,173.32742 92.489716,173.32742 93.10495,173.72903 93.498016,174.53226 93.891083,175.33548 94.087616,176.62576 94.087616,178.4202 94.087616,180.23172 93.891083,181.53055 93.498016,182.33377 93.10495,183.13699 92.489716,183.53006 91.652313,183.53006 Z"
         id="path159" />
      <path
         d="M 103.45285,178.06985 C 104.93967,177.33499 105.69162,176.31815 105.69162,175.00223 105.69162,174.07938 105.36691,173.35306 104.7175,172.80618 104.06808,172.26785 103.21359,171.99442 102.17111,171.99442 101.15427,171.99442 100.31686,172.26785 99.65036,172.80618 98.983856,173.34451 98.650604,174.07083 98.650604,174.98514 98.650604,176.25833 99.325653,177.30936 100.65866,178.13821 99.052216,178.9158 98.248993,180.03519 98.248993,181.49637 98.248993,182.55594 98.599335,183.3848 99.282928,183.9744 99.975067,184.564 100.9321,184.85452 102.16257,184.85452 103.34177,184.85452 104.29025,184.54691 105.00803,183.91458 105.7258,183.2908 106.08469,182.46194 106.08469,181.42801 106.08469,180.10355 105.2131,178.98416 103.45285,178.06985 Z M 102.17966,177.43753 C 101.41061,177.07864 100.88083,176.7283 100.59885,176.36942 100.31686,176.01053 100.1716,175.57474 100.1716,175.06204 100.1716,174.48953 100.35104,174.05374 100.70993,173.75467 101.06882,173.44705 101.54733,173.30179 102.15402,173.30179 102.7778,173.30179 103.27341,173.44705 103.63229,173.75467 103.99118,174.05374 104.17062,174.48953 104.17062,175.06204 104.17062,176.0618 103.50412,176.85648 102.17966,177.43753 Z M 101.94894,178.7449 102.20529,178.86453 C 103.05978,179.28323 103.67502,179.69339 104.03391,180.08646 104.39279,180.47952 104.57224,180.9324 104.57224,181.4451 104.57224,182.1116 104.35861,182.63284 103.93137,183.00882 103.50412,183.3848 102.90598,183.56424 102.12839,183.56424 100.55612,183.56424 99.769989,182.88065 99.769989,181.51346 99.769989,180.35135 100.49631,179.4285 101.94894,178.7449 Z"
         id="path161" />
      <path
         d="M 123.33688,171.439 C 122.72165,171.439 122.42258,171.7637 122.42258,172.41312 122.42258,173.07108 122.72165,173.39578 123.33688,173.39578 123.57614,173.39578 123.78976,173.31888 123.96921,173.15652 124.14865,172.99417 124.24265,172.74637 124.24265,172.41312 124.24265,171.7637 123.93503,171.439 123.33688,171.439 Z M 122.55075,176.53177 V 183.4617 L 119.6113,183.6326 V 184.68362 H 127.11374 V 183.6326 L 124.10593,183.4617 V 175.3013 H 120.25217 V 176.35233 Z"
         id="path163" />
      <path
         d="M 136.98312,184.68362 V 183.6326 L 134.47092,183.4617 V 173.41287 L 136.98312,173.24197 V 172.19095 H 130.35226 V 173.24197 L 132.87302,173.41287 V 183.4617 L 130.35226,183.6326 V 184.68362 Z"
         id="path165" />
      <path
         d="M 143.47726,172.60965 V 183.4617 L 140.53781,183.6326 V 184.68362 H 148.0488 V 183.6326 L 145.04099,183.4617 V 171.38773 H 141.18723 V 172.43021 Z"
         id="path167" />
      <path
         d="M 151.42404,184.68362 H 158.44797 V 183.26517 H 153.02194 V 172.19095 H 151.42404 Z"
         id="path169" />
      <path
         d="M 166.41183,184.68362 V 172.19095 H 165.1301 L 161.85739,174.74588 162.68625,175.79691 163.94235,174.76297 C 164.40378,174.3699 164.75412,174.0452 164.97629,173.79739 164.92502,175.16458 164.90793,176.18997 164.90793,176.88211 V 184.68362 Z"
         id="path171" />
      <path
         d="M 187.30417,184.82034 V 181.99197 C 187.30417,180.81277 186.63766,180.11209 185.3132,179.87283 V 179.77029 C 186.63766,179.53958 187.30417,178.83035 187.30417,177.65115 V 174.81424 C 187.30417,174.35281 187.45798,174.01956 187.78268,173.80594 188.09885,173.59232 188.67136,173.48123 189.49167,173.46414 V 172.19095 C 186.99655,172.22513 185.74899,173.06253 185.74899,174.69461 V 177.54007 C 185.74899,178.61673 184.78342,179.15506 182.86081,179.15506 V 180.47952 C 184.78342,180.47952 185.74899,181.01785 185.74899,182.09451 V 184.94852 C 185.74899,186.58914 186.99655,187.418 189.49167,187.45218 V 186.17044 C 188.67136,186.1619 188.09885,186.05081 187.78268,185.83719 187.45798,185.62357 187.30417,185.28177 187.30417,184.82034 Z"
         id="path173" />
      <path
         d="M 195.56711,181.99197 V 184.82034 C 195.56711,185.28177 195.40475,185.62357 195.08005,185.83719 194.75534,186.05936 194.19138,186.17044 193.37961,186.17044 V 187.45218 C 195.87473,187.418 197.13083,186.58914 197.13083,184.94852 V 182.09451 C 197.13083,181.01785 198.08786,180.47952 200.01901,180.47952 V 179.15506 C 198.08786,179.15506 197.13083,178.61673 197.13083,177.54007 V 174.69461 C 197.13083,173.06253 195.87473,172.22513 193.37961,172.19095 V 173.46414 C 194.19138,173.47269 194.75534,173.58377 195.08005,173.79739 195.40475,174.01956 195.56711,174.35281 195.56711,174.81424 V 177.65115 C 195.56711,178.83035 196.23361,179.53958 197.56662,179.77029 V 179.87283 C 196.23361,180.11209 195.56711,180.81277 195.56711,181.99197 Z"
         id="path175" />
      <path
         d="M 220.47556,187.45218 V 186.17044 H 217.51901 V 173.46414 H 220.47556 V 172.19095 H 215.96384 V 187.45218 Z"
         id="path177" />
      <path
         d="M 225.41452,186.17044 V 187.45218 H 229.92624 V 172.19095 H 225.41452 V 173.46414 H 228.37106 V 186.17044 Z"
         id="path179" />
      <path
         d="M 253.57004,175.3013 H 250.34006 C 249.97263,175.19022 249.54538,175.1304 249.05832,175.1304 247.93039,175.1304 247.06735,175.41238 246.46066,175.97635 245.85397,176.54031 245.5549,177.33499 245.5549,178.36893 245.5549,178.94998 245.70016,179.47977 245.99069,179.96683 246.28122,180.45389 246.67429,180.80423 247.18698,181.00931 246.42648,181.47073 246.05051,182.01761 246.05051,182.64993 246.05051,183.26517 246.32394,183.70096 246.87082,183.96585 245.50363,184.2991 244.82004,185.06815 244.82004,186.27298 244.82004,187.10184 245.1362,187.74271 245.78561,188.20413 246.43503,188.66556 247.37497,188.88773 248.62253,188.88773 251.83542,188.88773 253.45041,187.81961 253.45041,185.66629 253.45041,184.85452 253.18552,184.23074 252.66428,183.79495 252.13449,183.35062 251.38254,183.13699 250.39133,183.13699 H 248.79343 C 247.87057,183.13699 247.41769,182.89774 247.41769,182.41922 247.41769,181.97488 247.69968,181.59891 248.27219,181.28275 248.44308,181.31693 248.69089,181.33401 249.00705,181.33401 250.08371,181.33401 250.92966,181.06058 251.53635,180.5137 252.14304,179.96683 252.45065,179.24051 252.45065,178.3262 252.45065,177.59134 252.26266,176.98465 251.89523,176.50613 L 253.57004,176.27542 Z M 249.02414,180.2659 C 247.72531,180.2659 247.08444,179.61649 247.08444,178.3262 247.08444,176.94193 247.72531,176.25833 249.00705,176.25833 250.28879,176.25833 250.92966,176.93338 250.92966,178.30057 250.92966,179.60794 250.28879,180.2659 249.02414,180.2659 Z M 249.86154,184.53836 C 250.69894,184.53836 251.26291,184.62381 251.55344,184.79471 251.83542,184.96561 251.98068,185.3074 251.98068,185.81155 251.98068,187.0762 250.85275,187.71707 248.60544,187.71707 247.05881,187.71707 246.28976,187.22147 246.28976,186.23026 246.28976,185.10233 246.93918,184.53836 248.2551,184.53836 Z"
         id="path181" />
      <path
         d="M 256.70602,184.70071 C 257.082,184.80325 257.57761,184.85452 258.17575,184.85452 261.81589,184.85452 263.63596,182.41068 263.63596,177.52298 263.63596,175.79691 263.26852,174.44681 262.53366,173.47269 261.7988,172.49857 260.80759,172.01151 259.55148,172.01151 258.39792,172.01151 257.47507,172.38748 256.79147,173.13943 256.10788,173.89139 255.76608,174.91678 255.76608,176.21561 255.76608,177.40335 256.0737,178.33475 256.70602,179.0098 257.33835,179.6763 258.20139,180.0181 259.31223,180.0181 260.51706,180.0181 261.39719,179.53104 261.94406,178.56546 H 262.0466 C 261.98679,180.30862 261.63644,181.58182 260.99557,182.38504 260.35471,183.18826 259.39767,183.58987 258.12448,183.58987 257.56052,183.58987 257.082,183.51297 256.70602,183.37625 Z M 257.26999,176.22415 C 257.26999,175.28421 257.46652,174.57498 257.87668,174.07938 258.27829,173.58377 258.84225,173.33597 259.56857,173.33597 260.32907,173.33597 260.93576,173.65213 261.38864,174.28445 261.85007,174.91678 262.07224,175.66019 262.07224,176.52322 262.07224,177.10428 261.83298,177.63406 261.33737,178.09549 260.85031,178.55692 260.24362,178.79617 259.5173,178.79617 258.79953,178.79617 258.24411,178.57401 257.85104,178.12967 257.45798,177.68533 257.26999,177.04446 257.26999,176.22415 Z"
         id="path183" />
      <path
         d="M 272.54831,176.56595 C 271.89035,175.60892 270.97604,175.1304 269.79684,175.1304 268.65182,175.1304 267.75461,175.56619 267.10519,176.42068 266.44724,177.27518 266.12253,178.47147 266.12253,180.00955 266.12253,181.53909 266.44724,182.72684 267.09665,183.58133 267.74606,184.43582 268.65182,184.86307 269.79684,184.86307 270.98459,184.86307 271.8989,184.38455 272.53976,183.43607 H 272.6423 C 272.57394,184.17093 272.53976,184.64944 272.53976,184.8887 V 188.89627 H 274.09494 V 175.30984 H 272.83884 L 272.60812,176.57449 Z M 272.53976,180.36844 C 272.52267,181.49637 272.3176,182.30814 271.94162,182.81229 271.56564,183.31644 270.94186,183.57278 270.07883,183.57278 268.51511,183.57278 267.73752,182.39359 267.73752,180.03519 267.73752,177.62552 268.50656,176.42923 270.06174,176.42923 270.92477,176.42923 271.5571,176.70267 271.95016,177.24954 272.34323,177.79642 272.53976,178.71927 272.53976,180.00955 Z"
         id="path185" />
      <path
         d="M 285.05807,182.96609 C 283.93015,183.29935 282.99875,183.4617 282.26389,183.4617 280.94797,183.4617 279.94821,183.03445 279.26462,182.17996 278.58102,181.32547 278.23923,180.07791 278.23923,178.44583 278.23923,176.8992 278.59811,175.67728 279.33298,174.77151 280.0593,173.86575 281.03342,173.41287 282.25534,173.41287 283.11838,173.41287 283.98996,173.63504 284.87009,174.07938 L 285.53659,172.74637 C 284.60519,172.25931 283.51144,172.01151 282.25534,172.01151 280.49509,172.01151 279.10226,172.59256 278.07687,173.73758 277.06003,174.89114 276.54733,176.45486 276.54733,178.42874 276.54733,180.47952 277.0173,182.06888 277.9487,183.18826 278.88864,184.2991 280.23019,184.86307 281.99045,184.86307 283.20383,184.86307 284.22067,184.69217 285.04953,184.35892 Z"
         id="path187" />
      <path
         d="M 291.69748,178.08694 V 179.48831 H 293.72263 V 183.2139 C 293.12448,183.3848 292.54343,183.4617 291.99655,183.4617 289.74924,183.4617 288.62985,181.7869 288.62985,178.43729 288.62985,176.86502 288.92892,175.63455 289.54416,174.74588 290.15085,173.85721 291.00534,173.41287 292.09909,173.41287 292.85959,173.41287 293.65427,173.65213 294.48312,174.13065 L 295.09836,172.74637 C 294.22678,172.25931 293.23557,172.01151 292.14182,172.01151 290.52682,172.01151 289.25363,172.58401 288.33078,173.72049 287.40793,174.85696 286.9465,176.42068 286.9465,178.4202 286.9465,180.4368 287.37375,182.01761 288.21115,183.15408 289.04855,184.29056 290.21921,184.85452 291.70602,184.85452 292.98776,184.85452 294.18405,184.6409 295.29489,184.21365 V 178.08694 Z"
         id="path189" />
      <path
         d="M 303.82272,184.35037 C 305.44626,183.39334 306.25803,181.41946 306.25803,178.4202 306.25803,176.36942 305.86496,174.78006 305.08737,173.66922 304.30978,172.55838 303.1904,171.99442 301.73776,171.99442 298.69577,171.99442 297.17477,174.13065 297.17477,178.40311 297.17477,182.70975 298.68723,184.85452 301.72067,184.85452 301.94284,184.85452 302.16501,184.83743 302.37009,184.80325 302.89133,186.11063 303.82272,187.2471 305.16428,188.22122 L 306.19821,187.00784 C 305.09592,186.26443 304.30124,185.37576 303.82272,184.35037 Z M 301.71213,183.4617 C 299.80661,183.4617 298.84958,181.7869 298.84958,178.4202 298.84958,175.07059 299.81516,173.39578 301.72922,173.39578 302.69479,173.39578 303.41257,173.80594 303.87399,174.61771 304.33542,175.42947 304.56613,176.69412 304.56613,178.4202 304.56613,180.12918 304.34396,181.40237 303.88254,182.22269 303.42111,183.05154 302.70334,183.4617 301.71213,183.4617 Z"
         id="path191" />
      <path
         d="M 318.75925,179.6763 C 319.4343,178.99271 320.08371,178.64236 320.69894,178.64236 321.09201,178.64236 321.66452,178.80472 322.41647,179.12088 323.25388,179.47977 323.95456,179.65921 324.52707,179.65921 325.37302,179.65921 326.08224,179.35159 326.64621,178.73636 V 177.35208 C 325.96262,178.04422 325.32175,178.38602 324.70651,178.38602 324.29636,178.38602 323.72385,178.23221 322.98898,177.9075 322.14304,177.54861 321.43381,177.36917 320.8613,177.36917 320.0239,177.36917 319.31467,177.67679 318.7507,178.29202 Z"
         id="path193" />
      <path
         d="M 330.39743,180.71024 H 336.02853 V 179.27469 H 330.39743 Z"
         id="path195" />
      <path
         d="M 343.06955,179.15506 V 182.44485 H 344.34274 V 179.15506 H 347.64963 V 177.87332 H 344.34274 V 174.54935 H 343.06955 V 177.87332 H 339.76266 V 179.15506 Z"
         id="path197" />
      <path
         d="M 350.26437,177.40335 H 358.15134 V 176.13016 H 350.26437 Z M 350.26437,180.90677 H 358.15134 V 179.62503 H 350.26437 Z"
         id="path199" />
      <path
         d="M 360.76608,181.42801 V 182.7952 L 368.65305,178.94144 V 178.06985 L 360.76608,174.21609 V 175.58328 L 366.86716,178.50565 Z"
         id="path201" />
    </g>
  </g>
</svg>
