<svg xmlns="http://www.w3.org/2000/svg" width="399.71" height="116.113" viewBox="0 0 374.728 108.856"><g font-weight="400" font-family="DroidSansMono Nerd Font" letter-spacing="0" word-spacing="0" fill="#fff"><g style="line-height:125%;text-decoration-line:underline" font-size="27.5" text-decoration="underline"><path d="M0 20.894h4.042c3.088 0 5.451-.86 7.09-2.579 1.638-1.718 2.457-4.189 2.457-7.425 0-3.035-.792-5.398-2.377-7.09-1.584-1.692-3.786-2.538-6.62-2.538H0v19.632zM2.511 3.397h1.813c4.404 0 6.62 2.525 6.62 7.573 0 5.184-2.39 7.775-7.144 7.775H2.511V3.397zM28.896 6.486c-1.1-.403-2.175-.605-3.222-.605-1.142 0-2.095.229-2.874.685-.779.457-1.517 1.222-2.188 2.283h-.108l-.295-2.7H18.22v14.745h2.444v-7.95c0-1.557.39-2.752 1.182-3.585.792-.832 1.92-1.249 3.384-1.249.9 0 1.906.202 3.008.605l.657-2.23zM39.357 21.162c2.04 0 3.665-.685 4.9-2.054 1.223-1.37 1.84-3.236 1.84-5.613 0-2.296-.63-4.136-1.866-5.519-1.249-1.396-2.847-2.081-4.794-2.081-2.068 0-3.706.671-4.914 2.04-1.209 1.357-1.813 3.21-1.813 5.56 0 2.336.618 4.19 1.866 5.586 1.25 1.396 2.847 2.081 4.78 2.081zm.053-2.027c-2.793 0-4.176-1.88-4.176-5.64 0-3.72 1.383-5.586 4.15-5.586 2.793 0 4.189 1.866 4.189 5.586 0 3.76-1.396 5.64-4.163 5.64zM56.155.08c-.967 0-1.437.51-1.437 1.531 0 1.034.47 1.545 1.437 1.545.376 0 .711-.121.993-.376.282-.256.43-.645.43-1.169 0-1.02-.483-1.53-1.423-1.53zm-1.236 8.003v10.89l-4.619.269v1.652h11.79v-1.652l-4.727-.269V6.15h-6.056v1.652l3.612.281zM76.189 18.92l.363 1.974h1.973V0h-2.443v5.854c0 .296.053 1.021.16 2.176h-.16c-1.048-1.424-2.485-2.149-4.324-2.149-1.8 0-3.21.685-4.23 2.028-1.034 1.343-1.544 3.223-1.544 5.64 0 2.403.51 4.27 1.53 5.612 1.021 1.343 2.444 2.015 4.244 2.015 1.866 0 3.303-.752 4.324-2.243l.107-.013zm-.107-4.807c-.04 1.772-.363 3.048-.954 3.84-.59.792-1.57 1.195-2.927 1.195-2.457 0-3.68-1.853-3.68-5.56 0-3.786 1.21-5.666 3.653-5.666 1.356 0 2.35.43 2.968 1.29.617.859.94 2.309.94 4.337v.564zM82.527 20.236c1.33.617 3.182.926 5.559.926 2.283 0 4.042-.483 5.277-1.464 1.235-.98 1.866-2.336 1.866-4.055 0-1.316-.375-2.39-1.114-3.222-.739-.833-2.202-1.652-4.404-2.444-1.84-.631-3.048-1.222-3.64-1.773-.59-.564-.885-1.289-.885-2.202 0-1.88 1.315-2.806 3.934-2.806 1.504 0 3.115.349 4.834 1.047l.86-2.202C93.147 1.343 91.281.994 89.226.994c-2 0-3.571.43-4.726 1.316-1.155.886-1.732 2.108-1.732 3.665 0 1.45.416 2.619 1.221 3.532.806.913 2.149 1.692 4.002 2.35 1.934.685 3.21 1.275 3.84 1.786.631.496.94 1.208.94 2.135 0 2.148-1.557 3.222-4.7 3.222-1.812 0-3.665-.376-5.559-1.155l.014 2.39zM109.14 20.894h1.76V10.796c0-1.719-.457-2.968-1.37-3.746-.913-.78-2.377-1.169-4.404-1.169-1.679 0-3.397.43-5.157 1.29l.846 1.839c1.625-.725 3.089-1.101 4.405-1.101 2.188 0 3.276 1.06 3.276 3.169v.926l-2.726.094c-4.565.148-6.848 1.706-6.848 4.673 0 1.397.416 2.47 1.249 3.236.832.78 1.974 1.155 3.437 1.155 1.142 0 2.082-.161 2.807-.497.725-.335 1.423-.94 2.121-1.812h.108l.497 2.04zm-.657-7.211v1.33c0 1.329-.403 2.362-1.182 3.088-.779.725-1.826 1.087-3.142 1.087-1.8 0-2.686-.792-2.686-2.39 0-.98.363-1.705 1.101-2.189.726-.483 1.974-.752 3.733-.832l2.176-.094zM125.522 20.894h2.444v-9.628c0-3.585-1.745-5.385-5.223-5.385-2.095 0-3.599.752-4.512 2.256h-.134l-.363-1.987h-1.973v14.744h2.443v-7.64c0-3.56 1.37-5.345 4.123-5.345 2.121 0 3.195 1.168 3.195 3.491v9.494zM132.827 20.236c1.128.617 2.807.926 5.036.926 1.906 0 3.397-.376 4.444-1.141 1.047-.766 1.571-1.826 1.571-3.17 0-.966-.322-1.772-.94-2.443-.617-.671-1.88-1.343-3.76-2.041-1.638-.577-2.672-1.034-3.128-1.356a1.514 1.514 0 0 1-.672-1.303c0-1.195 1.048-1.786 3.17-1.786 1.221 0 2.645.323 4.27.967l.805-2c-1.53-.672-3.182-.994-4.955-.994-1.759 0-3.142.335-4.136 1.034-.993.698-1.49 1.651-1.49 2.873 0 .886.269 1.652.806 2.296.537.645 1.853 1.37 3.934 2.149 1.584.564 2.605 1.047 3.035 1.423.443.376.658.82.658 1.33 0 1.45-1.222 2.175-3.693 2.175-1.584 0-3.236-.39-4.968-1.155l.013 2.216zM153.734 20.894h2.068l3.8-17.161h.107c-.134 2.591-.188 4.337-.188 5.25v11.91h2.055V1.264h-3.384l-3.357 16.005h-.08l-3.33-16.006h-3.317v19.632h2.027V9.158c0-1.25-.08-3.062-.241-5.439H150l3.733 17.175zM171.27 21.162c2.042 0 3.667-.685 4.902-2.054 1.222-1.37 1.84-3.236 1.84-5.613 0-2.296-.632-4.136-1.867-5.519-1.249-1.396-2.847-2.081-4.794-2.081-2.068 0-3.706.671-4.914 2.04-1.209 1.357-1.813 3.21-1.813 5.56 0 2.336.618 4.19 1.866 5.586 1.25 1.396 2.847 2.081 4.78 2.081zm.054-2.027c-2.793 0-4.176-1.88-4.176-5.64 0-3.72 1.383-5.586 4.15-5.586 2.793 0 4.19 1.866 4.19 5.586 0 3.76-1.397 5.64-4.164 5.64zM191.48 20.894h2.443v-9.628c0-3.585-1.745-5.385-5.223-5.385-2.095 0-3.599.752-4.512 2.256h-.134l-.363-1.987h-1.973v14.744h2.443v-7.64c0-3.56 1.37-5.345 4.123-5.345 2.121 0 3.195 1.168 3.195 3.491v9.494zM204.25 21.162c2.04 0 3.665-.685 4.9-2.054 1.222-1.37 1.84-3.236 1.84-5.613 0-2.296-.631-4.136-1.866-5.519-1.25-1.396-2.847-2.081-4.794-2.081-2.068 0-3.706.671-4.915 2.04-1.208 1.357-1.812 3.21-1.812 5.56 0 2.336.617 4.19 1.866 5.586s2.847 2.081 4.78 2.081zm.053-2.027c-2.793 0-4.176-1.88-4.176-5.64 0-3.72 1.383-5.586 4.15-5.586 2.792 0 4.189 1.866 4.189 5.586 0 3.76-1.397 5.64-4.163 5.64zM243.7 20.894V1.262h-2.336v10.742c0 .913.053 2.713.188 5.425h-.081L233.71 1.262h-2.86v19.632h2.31V10.245c0-1.248-.081-3.115-.243-5.599h.108l7.788 16.248h2.887zM260.243 13.992v-1.518c0-1.987-.577-3.585-1.705-4.793-1.128-1.195-2.646-1.8-4.539-1.8-2.041 0-3.666.699-4.874 2.095-1.209 1.397-1.813 3.276-1.813 5.653 0 2.35.658 4.19 1.974 5.532 1.316 1.343 3.061 2.015 5.264 2.015 1.772 0 3.397-.336 4.887-1.008V18.02a12.507 12.507 0 0 1-4.968 1.02c-3.008 0-4.552-1.678-4.62-5.035l10.394-.013zm-10.34-1.974c.229-2.74 1.572-4.096 4.042-4.096 2.43 0 3.653 1.357 3.653 4.096h-7.694zM276.235 6.486c-1.1-.403-2.175-.605-3.222-.605-1.142 0-2.095.229-2.874.685-.779.457-1.517 1.222-2.189 2.283h-.107l-.295-2.7h-1.988v14.745h2.444v-7.95c0-1.557.39-2.752 1.182-3.585.792-.832 1.92-1.249 3.384-1.249.9 0 1.906.202 3.007.605l.658-2.23zM290.55 18.92l.362 1.974h1.974V0h-2.444v5.854c0 .296.054 1.021.161 2.176h-.161c-1.047-1.424-2.484-2.149-4.324-2.149-1.8 0-3.21.685-4.23 2.028-1.034 1.343-1.544 3.223-1.544 5.64 0 2.403.51 4.27 1.531 5.612 1.02 1.343 2.444 2.015 4.243 2.015 1.867 0 3.303-.752 4.324-2.243l.107-.013zm-.108-4.807c-.04 1.772-.363 3.048-.953 3.84-.591.792-1.572 1.195-2.928 1.195-2.457 0-3.679-1.853-3.679-5.56 0-3.786 1.209-5.666 3.652-5.666 1.357 0 2.35.43 2.968 1.29.618.859.94 2.309.94 4.337v.564zM317.257 20.894v-8.299h8.285v-2.202h-8.285V3.464h8.795V1.262H314.76v19.632h2.497zM336.163 21.162c2.041 0 3.666-.685 4.901-2.054 1.222-1.37 1.84-3.236 1.84-5.613 0-2.296-.631-4.136-1.866-5.519-1.25-1.396-2.847-2.081-4.794-2.081-2.068 0-3.706.671-4.915 2.04-1.208 1.357-1.812 3.21-1.812 5.56 0 2.336.617 4.19 1.866 5.586s2.847 2.081 4.78 2.081zm.054-2.027c-2.793 0-4.176-1.88-4.176-5.64 0-3.72 1.383-5.586 4.15-5.586 2.792 0 4.189 1.866 4.189 5.586 0 3.76-1.397 5.64-4.163 5.64zM356.372 20.894h2.444v-9.628c0-3.585-1.746-5.385-5.223-5.385-2.095 0-3.6.752-4.512 2.256h-.134l-.363-1.987h-1.974v14.744h2.444v-7.64c0-3.56 1.37-5.345 4.122-5.345 2.122 0 3.196 1.168 3.196 3.491v9.494zM374.647 18.88c-1.316.187-2.39.281-3.222.281-1.72 0-2.579-.872-2.579-2.618V7.99h5.882V6.15h-5.882V2.216h-1.41l-1.033 3.853-3.586.658V7.99h3.586v8.553c0 3.088 1.61 4.62 4.86 4.62 1.088 0 2.216-.135 3.384-.43v-1.854z"/></g><g style="line-height:125%" font-size="17.5"><path d="M8.397 60.894h1.12v-6.426c0-1.094-.29-1.889-.872-2.384-.581-.496-1.512-.744-2.803-.744-1.068 0-2.162.274-3.281.82l.538 1.171c1.034-.461 1.966-.7 2.803-.7 1.393 0 2.085.675 2.085 2.016v.59l-1.735.06c-2.905.094-4.357 1.085-4.357 2.973 0 .889.264 1.573.794 2.06.53.495 1.256.734 2.188.734.726 0 1.324-.102 1.786-.316.461-.213.905-.598 1.35-1.153h.068l.316 1.299zm-.418-4.59v.847c0 .846-.257 1.504-.752 1.965-.496.462-1.163.692-2 .692-1.145 0-1.709-.504-1.709-1.52 0-.624.23-1.086.7-1.393.462-.308 1.257-.479 2.376-.53l1.385-.06zM14.148 59.706c.65.906 1.572 1.358 2.751 1.358 1.137 0 2.034-.427 2.692-1.281.65-.855.983-2.06.983-3.598 0-1.52-.334-2.708-.983-3.563-.65-.854-1.547-1.282-2.692-1.282-1.23 0-2.144.47-2.751 1.402h-.068c.042-.82.068-1.47.068-1.931v-3.213h-1.555v13.296h1.136l.316-1.188h.103zm0-3.52c0-1.3.188-2.214.572-2.752.376-.53 1.009-.803 1.897-.803 1.556 0 2.342 1.179 2.342 3.537 0 2.41-.778 3.606-2.324 3.606-.872 0-1.504-.273-1.897-.82-.394-.547-.59-1.47-.59-2.769zM30.802 51.844a8.251 8.251 0 0 0-2.871-.504c-1.504 0-2.666.419-3.486 1.256-.83.838-1.24 2.06-1.24 3.658 0 1.555.402 2.743 1.214 3.571.803.83 1.94 1.24 3.41 1.24 1.11 0 2.042-.171 2.81-.522v-1.367c-.94.359-1.854.53-2.742.53-2.06 0-3.085-1.154-3.085-3.47 0-2.35 1.051-3.528 3.17-3.528.667 0 1.436.162 2.29.487l.53-1.35zM39.894 59.637l.23 1.257h1.257V47.598h-1.556v3.725c0 .188.035.65.103 1.385h-.103c-.666-.906-1.58-1.368-2.751-1.368-1.145 0-2.042.436-2.692 1.29-.658.855-.982 2.051-.982 3.59 0 1.529.324 2.717.974 3.571.65.855 1.555 1.282 2.7 1.282 1.188 0 2.102-.479 2.751-1.427l.069-.009zm-.069-3.059c-.025 1.128-.23 1.94-.606 2.444s-1 .76-1.863.76c-1.564 0-2.341-1.178-2.341-3.537 0-2.41.769-3.606 2.324-3.606.863 0 1.495.274 1.888.82.393.547.598 1.47.598 2.76v.36zM52.087 56.501v-.965c0-1.265-.367-2.282-1.085-3.05-.718-.761-1.683-1.146-2.888-1.146-1.299 0-2.333.445-3.102 1.333-.769.889-1.153 2.085-1.153 3.598 0 1.495.418 2.666 1.256 3.52.837.855 1.948 1.282 3.35 1.282 1.127 0 2.161-.214 3.11-.64v-1.368c-1 .427-2.051.65-3.162.65-1.914 0-2.897-1.069-2.94-3.205l6.614-.009zm-6.58-1.256c.146-1.743 1-2.606 2.573-2.606 1.546 0 2.324.863 2.324 2.606h-4.896zM62.136 52.682v-1.17h-3.324v-.89c0-.649.12-1.119.376-1.41.248-.281.727-.427 1.427-.427.581 0 1.17.086 1.769.24l.35-1.222a7.94 7.94 0 0 0-2.153-.3c-1.196 0-2.042.248-2.555.744-.513.496-.769 1.299-.769 2.393v.82l-2.709.282v.94h2.71v8.212h1.554v-8.212h3.324zM73.33 51.511H70.1a4.434 4.434 0 0 0-1.282-.17c-1.128 0-1.99.281-2.597.845s-.906 1.359-.906 2.393c0 .58.145 1.11.436 1.598.29.487.683.837 1.196 1.042-.76.462-1.136 1.009-1.136 1.64 0 .616.273 1.052.82 1.317-1.367.333-2.05 1.102-2.05 2.307 0 .829.315 1.47.965 1.931.65.461 1.589.684 2.837.684 3.212 0 4.827-1.068 4.827-3.222 0-.812-.264-1.435-.786-1.871-.53-.444-1.281-.658-2.273-.658h-1.598c-.922 0-1.375-.24-1.375-.718 0-.444.282-.82.854-1.136.171.034.419.051.735.051 1.077 0 1.923-.273 2.53-.82.606-.547.914-1.274.914-2.188 0-.735-.188-1.341-.556-1.82l1.675-.23v-.975zm-4.546 4.965c-1.299 0-1.94-.65-1.94-1.94 0-1.384.641-2.068 1.923-2.068s1.923.675 1.923 2.042c0 1.308-.641 1.966-1.906 1.966zm.838 4.272c.837 0 1.401.086 1.691.257.282.17.428.512.428 1.016 0 1.265-1.128 1.906-3.376 1.906-1.546 0-2.315-.496-2.315-1.487 0-1.128.65-1.692 1.965-1.692h1.607zM81.781 60.894h1.555v-6.127c0-2.282-1.11-3.427-3.324-3.427-1.333 0-2.29.479-2.87 1.436h-.086l.068-1.23v-3.948H75.57v13.296h1.555V56.03c0-2.264.872-3.4 2.623-3.4 1.35 0 2.034.743 2.034 2.221v6.042zM90.104 47.649c-.615 0-.915.325-.915.974 0 .658.3.983.915.983.239 0 .453-.077.632-.24.18-.162.274-.41.274-.743 0-.65-.308-.974-.906-.974zm-.786 5.093v6.93l-2.94.17v1.052h7.503v-1.051l-3.008-.171v-8.16h-3.854v1.05l2.299.18zM101.537 47.649c-.607 0-.906.325-.906.974 0 .658.3.983.906.983.607 0 .914-.325.914-.983 0-.65-.307-.974-.914-.974zm-5.195 17.15c.7.205 1.512.299 2.452.299 1.17 0 2.076-.274 2.717-.83.65-.555.966-1.35.966-2.375V51.511h-5.144v1.051l3.589.18v9.237c0 .58-.18 1.025-.556 1.35-.376.325-.897.487-1.564.487-.88 0-1.7-.111-2.46-.333v1.316zM108.954 56.168h-.034l.136-2.47v-6.1h-1.538v13.296h1.538v-3.606l1.103-.701 3.64 4.307h1.82l-4.46-5.324 4.22-4.059h-1.896l-3.376 3.358-1.153 1.3zM120.72 48.82v10.852l-2.94.17v1.052h7.512v-1.051l-3.008-.171V47.598h-3.854v1.042l2.29.18zM135.016 60.894h1.384v-6.127c0-1.23-.17-2.102-.495-2.632-.334-.53-.863-.795-1.59-.795-.82 0-1.444.522-1.871 1.556h-.051c-.291-1.034-.898-1.556-1.82-1.556-.77 0-1.342.479-1.718 1.436h-.085l-.231-1.265h-1.085v9.383h1.384V56.03c0-1.358.102-2.264.308-2.717.205-.453.546-.683 1.025-.683.71 0 1.068.743 1.068 2.221v6.042h1.376v-5.179c0-1.11.11-1.897.333-2.375.222-.47.59-.71 1.085-.71.35 0 .598.163.752.488.154.324.23.905.23 1.734v6.042zM144.74 60.894h1.555v-6.127c0-2.282-1.11-3.427-3.324-3.427-1.333 0-2.29.479-2.87 1.436h-.086l-.231-1.265h-1.256v9.383h1.555V56.03c0-2.264.872-3.4 2.623-3.4 1.35 0 2.034.743 2.034 2.221v6.042zM152.866 61.064c1.299 0 2.333-.435 3.12-1.307.777-.872 1.17-2.06 1.17-3.572 0-1.46-.402-2.632-1.188-3.512-.795-.888-1.811-1.324-3.05-1.324-1.316 0-2.359.427-3.128 1.299-.769.863-1.154 2.042-1.154 3.537 0 1.487.394 2.666 1.188 3.555.795.889 1.812 1.324 3.042 1.324zm.034-1.29c-1.777 0-2.657-1.196-2.657-3.589 0-2.367.88-3.554 2.64-3.554 1.778 0 2.666 1.187 2.666 3.554 0 2.393-.888 3.59-2.649 3.59zM161.052 59.706c.65.906 1.573 1.358 2.752 1.358 1.136 0 2.033-.427 2.691-1.281.65-.855.983-2.06.983-3.598 0-1.52-.333-2.708-.983-3.563-.649-.854-1.546-1.282-2.691-1.282-1.214 0-2.128.479-2.752 1.436h-.068l-.23-1.265h-1.257v13.587h1.555V61.09c0-.188-.034-.65-.102-1.384h.102zm0-3.871c.017-1.128.222-1.948.598-2.452.376-.496 1-.752 1.872-.752 1.555 0 2.341 1.179 2.341 3.537 0 2.41-.778 3.606-2.324 3.606-.872 0-1.504-.273-1.897-.82-.393-.547-.59-1.47-.59-2.769v-.35zM176.237 52.776c-.658-.957-1.573-1.436-2.752-1.436-1.145 0-2.042.436-2.692 1.29-.657.855-.982 2.051-.982 3.59 0 1.529.325 2.717.974 3.571.65.855 1.555 1.282 2.7 1.282 1.188 0 2.102-.479 2.743-1.427h.103c-.069.735-.103 1.213-.103 1.453v4.007h1.555V51.52h-1.256l-.23 1.264-.06-.009zm-.01 3.802c-.017 1.128-.222 1.94-.598 2.444s-1 .76-1.862.76c-1.564 0-2.342-1.178-2.342-3.537 0-2.41.77-3.606 2.325-3.606.863 0 1.495.274 1.888.82.393.547.59 1.47.59 2.76v.36zM188.182 51.725a5.949 5.949 0 0 0-2.05-.385c-.727 0-1.333.146-1.829.436-.496.29-.966.778-1.393 1.453h-.068l-.188-1.718h-1.265v9.383h1.555v-5.059c0-.991.248-1.752.752-2.282s1.222-.794 2.154-.794c.572 0 1.213.128 1.914.384l.418-1.418zM191.361 60.475c.718.393 1.786.59 3.204.59 1.214 0 2.162-.24 2.829-.727.666-.487 1-1.162 1-2.016 0-.616-.206-1.128-.599-1.556-.393-.427-1.196-.854-2.392-1.298-1.043-.368-1.7-.658-1.991-.864a.963.963 0 0 1-.427-.828c0-.76.666-1.137 2.016-1.137.778 0 1.684.205 2.718.615l.512-1.273c-.974-.427-2.025-.632-3.153-.632-1.12 0-2 .213-2.632.658-.632.444-.948 1.05-.948 1.828 0 .564.17 1.051.513 1.462.341.41 1.179.871 2.503 1.367 1.008.359 1.658.666 1.931.906.282.239.419.52.419.846 0 .922-.778 1.384-2.35 1.384-1.008 0-2.06-.248-3.161-.735l.009 1.41zM208.835 59.612c-.837.12-1.52.18-2.05.18-1.094 0-1.641-.556-1.641-1.667v-5.443h3.743v-1.17h-3.743v-2.504h-.897l-.658 2.452-2.282.419v.803h2.282v5.443c0 1.965 1.025 2.94 3.093 2.94.692 0 1.41-.086 2.153-.274v-1.18zM218.491 60.894h1.256V51.51h-1.555v4.87c0 1.214-.213 2.077-.632 2.607-.427.53-1.094.786-2.008.786-1.35 0-2.017-.735-2.017-2.222v-6.04h-1.555v6.126c0 2.29 1.11 3.426 3.341 3.426 1.299 0 2.256-.47 2.854-1.427h.085l.231 1.257zM225.361 60.894h1.974l3.555-9.383h-1.615l-2.042 5.572c-.539 1.606-.83 2.529-.872 2.777h-.051c-.086-.53-.368-1.462-.855-2.777l-2.05-5.572h-1.607l3.563 9.383zM238.546 60.894h1.666l1.923-9.383h-1.35l-.872 4.64c-.17.863-.341 1.983-.512 3.358h-.052a48.667 48.667 0 0 0-.572-3.059l-1.085-4.939h-1.65l-1.136 4.94c-.214.99-.41 2.007-.59 3.058h-.05a45.244 45.244 0 0 0-.488-3.358l-.837-4.64h-1.385l1.906 9.383h1.615l1.153-5.059.556-2.854h.051l.581 2.82 1.128 5.093zM246.45 56.083l-3.537 4.81h1.768l2.658-3.725 2.649 3.726h1.76l-3.529-4.811 3.375-4.572h-1.769l-2.486 3.504-2.478-3.504h-1.769l3.358 4.572zM253.286 51.511l3.905 9.468-.495 1.282c-.24.572-.513.974-.82 1.205-.308.239-.727.35-1.274.35-.427 0-.812-.034-1.162-.103v1.24a6.6 6.6 0 0 0 1.435.145c.89 0 1.59-.248 2.103-.744.504-.495.948-1.247 1.333-2.239l4.058-10.604h-1.615l-2.042 5.572c-.384 1.025-.64 1.862-.769 2.495h-.051c-.043-.479-.3-1.308-.76-2.478l-2.24-5.589h-1.606zM272 60.894v-1.171h-5.683l5.529-6.964V51.51h-6.93v1.17h5.357l-5.64 7.144v1.069H272zM9.329 82.769h1.64L6.825 70.225H5.159L1.03 82.769h1.624l1.248-3.871h4.195l1.23 3.87zm-1.684-5.281h-3.29l1.23-3.99c.146-.48.274-1 .385-1.564.137.58.308 1.23.53 1.93l1.145 3.624zM12.396 70.276v12.493H16.9c1.248 0 2.24-.317 2.966-.966.726-.64 1.093-1.53 1.093-2.657 0-1.641-.948-2.615-2.837-2.923v-.085c.76-.103 1.368-.393 1.812-.88.444-.479.666-1.086.666-1.82 0-1.111-.35-1.915-1.05-2.41-.701-.496-1.838-.752-3.402-.752h-3.75zm1.59 5.298v-3.94h2.255c.949 0 1.641.154 2.077.445.436.299.65.786.65 1.47 0 .726-.197 1.247-.607 1.563-.41.308-1.06.47-1.949.47l-2.426-.009zm0 1.341h2.512c1.846 0 2.768.718 2.768 2.17 0 1.556-.88 2.342-2.657 2.342h-2.623v-4.512zM31.34 81.051c-1.128.333-2.059.496-2.794.496-1.316 0-2.316-.428-3-1.282-.683-.855-1.025-2.102-1.025-3.734 0-1.547.36-2.769 1.094-3.675.727-.905 1.7-1.358 2.923-1.358.863 0 1.734.222 2.614.666l.667-1.333c-.932-.487-2.025-.735-3.281-.735-1.76 0-3.153.581-4.179 1.727-1.017 1.153-1.53 2.717-1.53 4.69 0 2.051.47 3.64 1.402 4.76.94 1.111 2.281 1.675 4.042 1.675 1.213 0 2.23-.17 3.059-.504l.008-1.393zM33.383 82.769h2.572c1.965 0 3.469-.547 4.511-1.641 1.043-1.094 1.564-2.666 1.564-4.725 0-1.932-.504-3.435-1.512-4.512-1.009-1.077-2.41-1.615-4.213-1.615h-2.922v12.493zm1.597-11.134h1.154c2.803 0 4.213 1.606 4.213 4.819 0 3.298-1.521 4.947-4.546 4.947h-.82v-9.766zM51.771 82.769v-1.402h-5.605v-4.443h5.272V75.54h-5.272v-3.863h5.605v-1.401h-7.195v12.493h7.195zM56.89 82.769v-5.281h5.272v-1.402H56.89v-4.409h5.597v-1.401H55.3v12.493h1.59zM69.45 76.172v1.401h2.026V81.3c-.598.17-1.18.248-1.726.248-2.248 0-3.367-1.675-3.367-5.025 0-1.572.3-2.803.914-3.691.607-.889 1.462-1.333 2.555-1.333.76 0 1.555.24 2.384.718l.616-1.385c-.872-.487-1.863-.735-2.957-.735-1.615 0-2.888.573-3.811 1.71-.923 1.136-1.384 2.7-1.384 4.7 0 2.016.427 3.597 1.264 4.733.838 1.136 2.008 1.7 3.495 1.7 1.282 0 2.478-.213 3.59-.64v-6.127H69.45zM83.55 82.769V70.276h-1.598v5.264h-4.999v-5.264h-1.598v12.493h1.598V76.94h4.999v5.828h1.598zM93.248 82.769v-1.051l-2.512-.171v-10.05l2.512-.17v-1.051h-6.63v1.05l2.52.172v10.049l-2.52.17v1.052h6.63zM96.359 82.435c.606.342 1.53.504 2.768.504 1.35 0 2.418-.358 3.222-1.085.803-.726 1.204-1.709 1.204-2.94v-8.638h-1.589v8.656c0 .837-.265 1.487-.795 1.94-.53.452-1.256.675-2.17.675-.837 0-1.717-.171-2.64-.53v1.418zM115.918 82.769l-4.606-7.05 4.452-5.443h-1.786l-3.87 4.81-1.035 1.436v-6.246h-1.589v12.493h1.59v-4.99l1.196-.975 3.845 5.965h1.803zM118.165 82.769h7.024V81.35h-5.426V70.276h-1.598v12.493zM131.213 82.769h1.316l2.419-10.92h.068c-.085 1.648-.12 2.76-.12 3.34v7.58h1.308V70.276h-2.154l-2.136 10.185h-.051l-2.12-10.185h-2.11v12.493h1.29V75.3c0-.794-.05-1.948-.153-3.46h.068l2.375 10.929zM146.492 82.769V70.276h-1.487v6.836c0 .58.034 1.726.12 3.452h-.052l-4.939-10.288h-1.82v12.493h1.47v-6.777c0-.794-.051-1.982-.154-3.563h.069l4.956 10.34h1.837zM152.917 82.94c1.453 0 2.573-.556 3.359-1.675.786-1.111 1.179-2.7 1.179-4.76 0-2.05-.393-3.64-1.17-4.75-.778-1.112-1.898-1.676-3.35-1.676-3.042 0-4.563 2.137-4.563 6.409 0 4.307 1.512 6.451 4.545 6.451zm0-1.393c-1.914 0-2.862-1.675-2.862-5.042 0-3.35.957-5.024 2.88-5.024.957 0 1.674.41 2.136 1.222.461.811.7 2.076.7 3.802 0 1.71-.23 2.982-.692 3.803-.461.828-1.179 1.239-2.162 1.239zM161.24 77.906h1.632c1.504 0 2.65-.35 3.435-1.05.787-.701 1.188-1.675 1.188-2.923 0-2.435-1.47-3.657-4.392-3.657h-3.452v12.493h1.59v-4.863zm0-1.35v-4.921h1.718c1.922 0 2.888.794 2.888 2.384 0 .871-.248 1.512-.735 1.922-.487.41-1.29.615-2.418.615h-1.453zM176.006 82.435c1.623-.957 2.435-2.93 2.435-5.93 0-2.05-.393-3.64-1.17-4.75-.778-1.112-1.897-1.676-3.35-1.676-3.042 0-4.563 2.137-4.563 6.409 0 4.307 1.512 6.451 4.546 6.451.222 0 .444-.017.65-.05.52 1.307 1.452 2.443 2.793 3.417l1.034-1.213c-1.102-.744-1.897-1.632-2.375-2.658zm-2.11-.888c-1.906 0-2.863-1.675-2.863-5.042 0-3.35.965-5.024 2.88-5.024.965 0 1.683.41 2.144 1.222.462.811.692 2.076.692 3.802 0 1.71-.222 2.982-.683 3.803-.462.828-1.18 1.239-2.17 1.239zM182.32 77.607h1.957l2.991 5.162h1.871l-3.392-5.597c1.64-.599 2.47-1.71 2.47-3.35 0-2.358-1.487-3.546-4.444-3.546h-3.05v12.493h1.598v-5.162zm0-1.35v-4.622h1.36c1.008 0 1.742.179 2.204.53.453.358.683.93.683 1.734 0 .82-.23 1.418-.692 1.794-.461.376-1.179.564-2.153.564h-1.401zM190.831 82.35c.846.393 2.025.59 3.538.59 1.453 0 2.572-.308 3.358-.932.786-.624 1.188-1.487 1.188-2.58 0-.838-.24-1.522-.71-2.051-.47-.53-1.4-1.051-2.802-1.555-1.17-.402-1.94-.778-2.316-1.128-.376-.36-.564-.82-.564-1.402 0-1.196.838-1.786 2.504-1.786.957 0 1.982.223 3.076.667l.547-1.402c-1.06-.444-2.247-.666-3.555-.666-1.273 0-2.273.273-3.008.837-.734.564-1.102 1.342-1.102 2.333 0 .923.265 1.666.778 2.247.512.582 1.367 1.077 2.546 1.496 1.23.436 2.042.812 2.444 1.136.402.316.598.77.598 1.359 0 1.367-.991 2.05-2.99 2.05-1.154 0-2.333-.239-3.538-.734l.009 1.52zM206.16 82.769V71.677h3.564v-1.401h-8.733v1.401h3.572V82.77h1.598zM220.046 70.259h-1.589v7.964c-.034 2.221-.889 3.324-2.563 3.324-1.752 0-2.624-1.103-2.624-3.307v-7.964h-1.59v8.05c0 3.075 1.377 4.613 4.128 4.613 1.384 0 2.444-.393 3.162-1.179s1.076-1.914 1.076-3.4v-8.101zM229.625 70.276l-2.495 7.87a28.715 28.715 0 0 0-.795 2.905c-.273-1.18-.52-2.128-.751-2.854l-2.521-7.921h-1.675l4.161 12.493h1.598l4.179-12.493h-1.7zM236.11 74.155l-1.204 4.41a22.606 22.606 0 0 0-.598 2.665c0-.222-.051-.905-.145-2.059a88.09 88.09 0 0 0-.342-3.23l-.752-5.665h-1.453l1.735 12.493h1.623l1.333-4.94c.188-.632.368-1.435.556-2.426.145.82.333 1.623.564 2.41l1.435 4.956h1.624l1.598-12.493h-1.453l-.598 5.665c-.359 3.23-.547 4.99-.555 5.29-.069-.496-.274-1.376-.616-2.624l-1.239-4.452h-1.512zM252.124 82.769l-3.905-6.58 3.606-5.913h-1.632l-2.854 4.776-2.828-4.776h-1.7l3.605 5.964-3.87 6.529h1.614l3.128-5.426 3.033 5.426h1.803zM257.815 76.59l-3.213-6.314h-1.735l4.162 7.716v4.777h1.598v-4.863l4.161-7.63h-1.717l-3.256 6.315zM272.683 82.769V81.35h-6.947l6.776-9.835v-1.24h-8.382v1.42h6.596l-6.776 9.835v1.239h8.733zM5.962 104.814c1.299 0 2.333-.435 3.119-1.307.777-.872 1.17-2.06 1.17-3.572 0-1.46-.401-2.632-1.187-3.512-.795-.888-1.812-1.324-3.05-1.324-1.317 0-2.36.427-3.128 1.299-.77.863-1.154 2.042-1.154 3.537 0 1.487.393 2.666 1.188 3.555.795.889 1.811 1.324 3.042 1.324zm.034-1.29c-1.777 0-2.657-1.196-2.657-3.589 0-2.367.88-3.554 2.64-3.554 1.777 0 2.666 1.187 2.666 3.554 0 2.393-.889 3.59-2.649 3.59zM16.506 104.814c1.453 0 2.572-.555 3.359-1.674.786-1.111 1.179-2.7 1.179-4.76 0-2.05-.393-3.64-1.171-4.75-.778-1.112-1.897-1.676-3.35-1.676-3.042 0-4.563 2.137-4.563 6.409 0 4.307 1.513 6.451 4.546 6.451zm0-1.392c-1.914 0-2.862-1.675-2.862-5.042 0-3.35.957-5.024 2.88-5.024.956 0 1.674.41 2.136 1.222.461.811.7 2.076.7 3.802 0 1.71-.23 2.982-.692 3.803-.461.828-1.179 1.239-2.162 1.239zM26.965 104.814c2.666 0 4.008-2.144 4.008-6.434 0-2.076-.342-3.666-1.017-4.768-.675-1.102-1.675-1.658-2.99-1.658-2.65 0-3.974 2.145-3.974 6.426 0 2.085.333 3.683 1.008 4.785.667 1.103 1.658 1.65 2.965 1.65zm0-1.324c-.829 0-1.435-.393-1.82-1.196-.384-.795-.572-2.102-.572-3.914 0-1.803.188-3.102.572-3.896.385-.795.991-1.197 1.82-1.197.838 0 1.453.402 1.846 1.205s.59 2.094.59 3.888c0 1.812-.197 3.11-.59 3.914-.393.803-1.008 1.196-1.846 1.196zM38.757 98.03c1.487-.735 2.24-1.752 2.24-3.068 0-.923-.326-1.649-.975-2.196-.65-.538-1.504-.812-2.546-.812-1.017 0-1.855.274-2.521.812-.667.538-1 1.265-1 2.18 0 1.272.675 2.323 2.008 3.152-1.606.778-2.41 1.897-2.41 3.358 0 1.06.35 1.889 1.034 2.478.693.59 1.65.88 2.88.88 1.18 0 2.128-.307 2.846-.94.717-.623 1.076-1.452 1.076-2.486 0-1.325-.871-2.444-2.632-3.358zm-1.273-.633c-.769-.358-1.299-.709-1.58-1.068-.283-.359-.428-.794-.428-1.307 0-.573.18-1.008.538-1.307.36-.308.838-.453 1.445-.453.623 0 1.119.145 1.478.453.359.299.538.734.538 1.307 0 1-.666 1.794-1.99 2.375zm-.23 1.308l.256.12c.854.418 1.47.828 1.828 1.221.36.393.539.846.539 1.359 0 .667-.214 1.188-.641 1.564-.427.376-1.026.555-1.803.555-1.572 0-2.359-.683-2.359-2.05 0-1.163.727-2.086 2.18-2.77zM58.624 91.399c-.615 0-.914.325-.914.974 0 .658.299.983.914.983.24 0 .453-.077.633-.24.179-.162.273-.41.273-.743 0-.65-.308-.974-.906-.974zm-.786 5.093v6.93l-2.94.17v1.052h7.503v-1.051l-3.008-.171v-8.16H55.54v1.05l2.298.18zM72.262 104.644v-1.051l-2.512-.171v-10.05l2.512-.17V92.15h-6.63v1.05l2.52.172v10.049l-2.52.17v1.052h6.63zM78.748 92.57v10.852l-2.94.17v1.052h7.511v-1.051l-3.008-.171V91.348h-3.853v1.042l2.29.18zM86.686 104.644h7.024v-1.419h-5.426V92.151h-1.598v12.493zM101.665 104.644V92.15h-1.282l-3.272 2.555.828 1.05 1.257-1.033c.461-.393.811-.718 1.033-.966a85.015 85.015 0 0 0-.068 3.085v7.802h1.504zM122.54 104.78v-2.828c0-1.18-.666-1.88-1.99-2.12v-.102c1.324-.23 1.99-.94 1.99-2.119v-2.837c0-.461.154-.795.479-1.008.316-.214.888-.325 1.709-.342v-1.273c-2.495.034-3.743.871-3.743 2.504V97.5c0 1.077-.965 1.615-2.888 1.615v1.324c1.923 0 2.888.539 2.888 1.615v2.854c0 1.641 1.248 2.47 3.743 2.504v-1.282c-.82-.009-1.393-.12-1.71-.333-.324-.214-.478-.555-.478-1.017zM130.795 101.952v2.828c0 .462-.163.803-.487 1.017-.325.222-.889.333-1.7.333v1.282c2.494-.034 3.75-.863 3.75-2.504v-2.854c0-1.076.957-1.615 2.889-1.615v-1.324c-1.932 0-2.889-.538-2.889-1.615v-2.845c0-1.633-1.256-2.47-3.75-2.504v1.273c.811.01 1.375.12 1.7.333.324.222.487.556.487 1.017v2.837c0 1.18.666 1.889 2 2.12v.102c-1.334.239-2 .94-2 2.119zM155.686 107.412v-1.282h-2.957V93.424h2.957v-1.273h-4.512v15.261h4.512zM160.616 106.13v1.282h4.512V92.151h-4.512v1.273h2.957v12.706h-2.957zM188.755 95.261h-3.23a4.434 4.434 0 0 0-1.282-.17c-1.128 0-1.99.281-2.597.845s-.906 1.359-.906 2.393c0 .58.145 1.11.436 1.598.29.487.683.837 1.196 1.042-.76.462-1.137 1.009-1.137 1.64 0 .616.274 1.052.82 1.317-1.367.333-2.05 1.102-2.05 2.307 0 .829.316 1.47.965 1.931.65.461 1.59.684 2.837.684 3.213 0 4.828-1.068 4.828-3.222 0-.812-.265-1.435-.786-1.871-.53-.444-1.282-.658-2.273-.658h-1.598c-.923 0-1.375-.24-1.375-.718 0-.444.282-.82.854-1.136.17.034.419.051.735.051 1.077 0 1.923-.273 2.53-.82.606-.547.914-1.274.914-2.188 0-.735-.188-1.341-.556-1.82l1.675-.23v-.975zm-4.546 4.965c-1.299 0-1.94-.65-1.94-1.94 0-1.384.641-2.068 1.923-2.068s1.923.675 1.923 2.042c0 1.308-.641 1.966-1.906 1.966zm.837 4.272c.838 0 1.402.086 1.692.257.282.17.428.512.428 1.016 0 1.265-1.128 1.906-3.376 1.906-1.546 0-2.315-.496-2.315-1.487 0-1.128.649-1.692 1.965-1.692h1.606zM191.882 104.66c.376.103.872.154 1.47.154 3.64 0 5.46-2.443 5.46-7.331 0-1.726-.367-3.076-1.102-4.05-.735-.975-1.726-1.462-2.982-1.462-1.154 0-2.077.376-2.76 1.128-.684.752-1.026 1.778-1.026 3.077 0 1.187.308 2.119.94 2.794.633.666 1.496 1.008 2.607 1.008 1.204 0 2.084-.487 2.631-1.453h.103c-.06 1.744-.41 3.017-1.051 3.82-.641.803-1.598 1.205-2.871 1.205-.564 0-1.043-.077-1.419-.214v1.325zm.564-8.476c0-.94.197-1.65.607-2.145.402-.495.966-.743 1.692-.743.76 0 1.367.316 1.82.948.461.633.684 1.376.684 2.24 0 .58-.24 1.11-.735 1.571-.487.462-1.094.701-1.82.701-.718 0-1.274-.222-1.667-.666-.393-.445-.58-1.086-.58-1.906zM207.716 96.526c-.658-.957-1.572-1.436-2.751-1.436-1.145 0-2.043.436-2.692 1.29-.658.855-.983 2.051-.983 3.59 0 1.529.325 2.717.974 3.571.65.855 1.556 1.282 2.7 1.282 1.188 0 2.103-.479 2.744-1.427h.102c-.068.735-.102 1.213-.102 1.453v4.007h1.555V95.27h-1.256l-.231 1.264-.06-.009zm-.009 3.802c-.017 1.128-.222 1.94-.598 2.444s-1 .76-1.863.76c-1.564 0-2.341-1.178-2.341-3.537 0-2.41.769-3.606 2.324-3.606.863 0 1.495.274 1.888.82.394.547.59 1.47.59 2.76v.36zM220.217 102.926c-1.128.333-2.059.496-2.794.496-1.316 0-2.316-.428-3-1.282-.683-.855-1.025-2.102-1.025-3.734 0-1.547.36-2.769 1.094-3.675.727-.905 1.7-1.358 2.923-1.358.863 0 1.734.222 2.614.666l.667-1.333c-.932-.487-2.025-.735-3.281-.735-1.76 0-3.154.581-4.179 1.727-1.017 1.153-1.53 2.717-1.53 4.69 0 2.051.47 3.64 1.402 4.76.94 1.111 2.281 1.675 4.042 1.675 1.213 0 2.23-.17 3.059-.504l.009-1.393zM226.848 98.047v1.401h2.025v3.726c-.598.17-1.179.248-1.726.248-2.247 0-3.366-1.675-3.366-5.025 0-1.572.299-2.803.914-3.691.607-.889 1.461-1.333 2.555-1.333.76 0 1.555.24 2.384.718l.615-1.385c-.872-.487-1.863-.735-2.957-.735-1.615 0-2.888.573-3.81 1.71-.923 1.136-1.385 2.7-1.385 4.7 0 2.016.427 3.597 1.265 4.733.837 1.136 2.008 1.7 3.495 1.7 1.281 0 2.478-.213 3.589-.64v-6.127h-3.598zM238.965 104.31c1.623-.957 2.435-2.93 2.435-5.93 0-2.05-.393-3.64-1.17-4.75-.778-1.112-1.897-1.676-3.35-1.676-3.042 0-4.563 2.137-4.563 6.409 0 4.307 1.512 6.451 4.546 6.451.222 0 .444-.017.65-.05.52 1.307 1.452 2.443 2.793 3.417l1.034-1.213c-1.102-.744-1.897-1.632-2.375-2.658zm-2.11-.888c-1.906 0-2.863-1.675-2.863-5.042 0-3.35.965-5.024 2.88-5.024.965 0 1.683.41 2.144 1.222.462.811.692 2.076.692 3.802 0 1.71-.222 2.982-.683 3.803-.462.828-1.18 1.239-2.17 1.239zM253.884 99.636c.675-.683 1.325-1.034 1.94-1.034.393 0 .966.163 1.718.479.837.359 1.538.538 2.11.538.846 0 1.555-.307 2.12-.923v-1.384c-.684.692-1.325 1.034-1.94 1.034-.41 0-.983-.154-1.718-.479-.846-.358-1.555-.538-2.128-.538-.837 0-1.546.308-2.11.923l.009 1.384zM265.514 100.67h5.631v-1.435h-5.631v1.435zM278.177 99.115v3.29h1.274v-3.29h3.307v-1.282h-3.307V94.51h-1.274v3.324h-3.306v1.282h3.306zM285.364 97.363h7.887V96.09h-7.887v1.273zm0 3.504h7.887v-1.282h-7.887v1.282zM295.857 101.388v1.367l7.887-3.854v-.871l-7.887-3.854v1.367l6.101 2.923-6.101 2.922z"/></g></g></svg>