<?xml version="1.0" encoding="UTF-8" standalone="no"?>
<!-- Created with Inkscape (http://www.inkscape.org/) -->

<svg
   xmlns:dc="http://purl.org/dc/elements/1.1/"
   xmlns:cc="http://creativecommons.org/ns#"
   xmlns:rdf="http://www.w3.org/1999/02/22-rdf-syntax-ns#"
   xmlns:svg="http://www.w3.org/2000/svg"
   xmlns="http://www.w3.org/2000/svg"
   xmlns:sodipodi="http://sodipodi.sourceforge.net/DTD/sodipodi-0.dtd"
   xmlns:inkscape="http://www.inkscape.org/namespaces/inkscape"
   width="105.75651mm"
   height="30.721636mm"
   viewBox="0 0 374.72778 108.85619"
   id="svg2"
   version="1.1"
   inkscape:version="0.91 r13725"
   sodipodi:docname="DroidSansMono Nerd Font.svg">
  <defs
     id="defs4" />
  <sodipodi:namedview
     id="base"
     pagecolor="#ffffff"
     bordercolor="#666666"
     borderopacity="1.0"
     inkscape:pageopacity="0.0"
     inkscape:pageshadow="2"
     inkscape:zoom="0.7"
     inkscape:cx="-54.669892"
     inkscape:cy="-400.60879"
     inkscape:document-units="px"
     inkscape:current-layer="layer1"
     showgrid="false"
     inkscape:window-width="1861"
     inkscape:window-height="1056"
     inkscape:window-x="59"
     inkscape:window-y="24"
     inkscape:window-maximized="1" />
  <metadata
     id="metadata7">
    <rdf:RDF>
      <cc:Work
         rdf:about="">
        <dc:format>image/svg+xml</dc:format>
        <dc:type
           rdf:resource="http://purl.org/dc/dcmitype/StillImage" />
        <dc:title />
      </cc:Work>
    </rdf:RDF>
  </metadata>
  <g
     inkscape:label="Layer 1"
     inkscape:groupmode="layer"
     id="layer1"
     transform="translate(-64.669888,-80.040077)">
    <g
       style="font-style:normal;font-weight:normal;font-size:27.5px;line-height:125%;font-family:'DroidSansMono Nerd Font';text-decoration: underline;text-decoration-line: underline;letter-spacing:0px;word-spacing:0px;fill:#ffffff;fill-opacity:1;stroke:none;stroke-width:1px;stroke-linecap:butt;stroke-linejoin:miter;stroke-opacity:1"
       id="text4136">
      <path
         d="m 64.669888,100.93363 4.041748,0 c 3.088378,0 5.45166,-0.85937 7.089843,-2.578123 1.638184,-1.71875 2.457276,-4.189453 2.457276,-7.425537 0,-3.034668 -0.792237,-5.397949 -2.376709,-7.089844 -1.584473,-1.691894 -3.786621,-2.537842 -6.619873,-2.537842 l -4.592285,0 0,19.631346 z m 2.510986,-17.496336 1.812744,0 c 4.404297,0 6.619873,2.524414 6.619873,7.573242 0,5.183106 -2.390137,7.774658 -7.143555,7.774658 l -1.289062,0 0,-15.3479 z"
         id="path4140"
         inkscape:connector-curvature="0" />
      <path
         d="m 93.566372,86.525673 c -1.101074,-0.402832 -2.175293,-0.604248 -3.222656,-0.604248 -1.141358,0 -2.094727,0.228271 -2.873535,0.684814 -0.778809,0.456543 -1.517334,1.221924 -2.188721,2.282715 l -0.107422,0 -0.29541,-2.698974 -1.987305,0 0,14.74365 2.443848,0 0,-7.949217 c 0,-1.557617 0.389404,-2.752685 1.18164,-3.585205 0.792237,-0.832519 1.920166,-1.248779 3.383789,-1.248779 0.899659,0 1.906739,0.201416 3.007813,0.604248 l 0.657959,-2.229004 z"
         id="path4142"
         inkscape:connector-curvature="0" />
      <path
         d="m 104.02658,101.20219 c 2.04101,0 3.66577,-0.68482 4.90112,-2.054447 1.22192,-1.369629 1.8396,-3.236084 1.8396,-5.612793 0,-2.296142 -0.6311,-4.135742 -1.86646,-5.518799 -1.24877,-1.396484 -2.84668,-2.081298 -4.7937,-2.081298 -2.06787,0 -3.70605,0.671386 -4.914547,2.041015 -1.208496,1.356201 -1.812745,3.209229 -1.812745,5.559082 0,2.336426 0.617676,4.189453 1.866456,5.585938 1.248776,1.396482 2.846676,2.081302 4.780276,2.081302 z m 0.0537,-2.027591 c -2.79297,0 -4.176027,-1.879883 -4.176027,-5.639649 0,-3.719482 1.383057,-5.585937 4.149167,-5.585937 2.79297,0 4.18946,1.866455 4.18946,5.585937 0,3.759766 -1.39649,5.639649 -4.1626,5.639649 z"
         id="path4144"
         inkscape:connector-curvature="0" />
      <path
         d="m 120.82467,80.120644 c -0.96679,0 -1.43676,0.510254 -1.43676,1.530761 0,1.033936 0.46997,1.54419 1.43676,1.54419 0.37598,0 0.71167,-0.12085 0.99366,-0.375977 0.28198,-0.255127 0.42968,-0.644531 0.42968,-1.168213 0,-1.020507 -0.4834,-1.530761 -1.42334,-1.530761 z m -1.23535,8.002929 0,10.889893 -4.61914,0.268555 0,1.651609 11.78955,0 0,-1.651609 -4.72656,-0.268555 0,-12.823486 -6.05591,0 0,1.651611 3.61206,0.281982 z"
         id="path4146"
         inkscape:connector-curvature="0" />
      <path
         d="m 140.85885,98.959755 0.36255,1.973875 1.97388,0 0,-20.893553 -2.44385,0 0,5.854492 c 0,0.295411 0.0537,1.020508 0.16113,2.175293 l -0.16113,0 c -1.04736,-1.423339 -2.48413,-2.148437 -4.32373,-2.148437 -1.79932,0 -3.20923,0.684814 -4.22974,2.027588 -1.03393,1.342773 -1.54419,3.222656 -1.54419,5.639648 0,2.403565 0.51026,4.27002 1.53077,5.612793 1.0205,1.342776 2.44384,2.014156 4.24316,2.014156 1.86646,0 3.30322,-0.75195 4.32373,-2.242427 l 0.10742,-0.01343 z m -0.10742,-4.807129 c -0.0403,1.772461 -0.36255,3.048096 -0.95337,3.840332 -0.59082,0.792236 -1.57104,1.195068 -2.92724,1.195068 -2.45728,0 -3.6792,-1.853027 -3.6792,-5.559082 0,-3.786621 1.20849,-5.666504 3.65234,-5.666504 1.3562,0 2.34985,0.429688 2.96753,1.289063 0.61767,0.859375 0.93994,2.30957 0.93994,4.337158 l 0,0.563965 z"
         id="path4148"
         inkscape:connector-curvature="0" />
      <path
         d="m 147.19674,100.27567 c 1.32935,0.61768 3.18238,0.92652 5.55909,0.92652 2.28271,0 4.04174,-0.4834 5.27709,-1.463626 1.23536,-0.980225 1.86646,-2.336426 1.86646,-4.055176 0,-1.315918 -0.37598,-2.390137 -1.1145,-3.222656 -0.73853,-0.83252 -2.20215,-1.651612 -4.4043,-2.443848 -1.8396,-0.631104 -3.04809,-1.221924 -3.63892,-1.772461 -0.59082,-0.563965 -0.88623,-1.289063 -0.88623,-2.202149 0,-1.879882 1.31592,-2.806396 3.93433,-2.806396 1.50391,0 3.11523,0.349121 4.83398,1.047363 l 0.85938,-2.202148 c -1.66504,-0.698242 -3.53149,-1.047363 -5.58594,-1.047363 -2.00073,0 -3.57177,0.429687 -4.72656,1.315918 -1.15479,0.88623 -1.73218,2.108154 -1.73218,3.665771 0,1.450195 0.41626,2.618408 1.22193,3.531494 0.80566,0.913086 2.14843,1.691895 4.00146,2.349854 1.93359,0.684814 3.20923,1.275634 3.84033,1.785888 0.63111,0.496827 0.93994,1.208496 0.93994,2.13501 0,2.148438 -1.55761,3.222656 -4.6997,3.222656 -1.81275,0 -3.66577,-0.375976 -5.55908,-1.154785 l 0.0134,2.390134 z"
         id="path4150"
         inkscape:connector-curvature="0" />
      <path
         d="m 173.81051,100.93363 1.75904,0 0,-10.097654 c 0,-1.71875 -0.45655,-2.96753 -1.36963,-3.746338 -0.91309,-0.778809 -2.37671,-1.168213 -4.4043,-1.168213 -1.67847,0 -3.39722,0.429687 -5.15625,1.289062 l 0.84595,1.8396 c 1.62475,-0.725098 3.08838,-1.101074 4.40429,-1.101074 2.18872,0 3.27637,1.060791 3.27637,3.168945 l 0,0.926514 -2.72583,0.09399 c -4.56543,0.147705 -6.84814,1.705322 -6.84814,4.672851 0,1.396485 0.41626,2.470704 1.24878,3.236087 0.83252,0.77881 1.97387,1.15479 3.4375,1.15479 1.14135,0 2.08129,-0.16114 2.80639,-0.49683 0.7251,-0.33569 1.42334,-0.939945 2.12158,-1.812748 l 0.10743,0 0.49682,2.041018 z m -0.65796,-7.210691 0,1.329345 c 0,1.329346 -0.40283,2.363281 -1.18164,3.088379 -0.77881,0.725098 -1.82617,1.087647 -3.14209,1.087647 -1.79931,0 -2.68554,-0.792237 -2.68554,-2.390137 0,-0.980225 0.36255,-1.705322 1.10107,-2.188721 0.7251,-0.483398 1.97388,-0.751953 3.73291,-0.832519 l 2.17529,-0.09399 z"
         id="path4152"
         inkscape:connector-curvature="0" />
      <path
         d="m 190.19235,100.93363 2.44385,0 0,-9.627684 c 0,-3.585205 -1.74561,-5.384521 -5.22339,-5.384521 -2.09473,0 -3.59864,0.751953 -4.51172,2.255859 l -0.13428,0 -0.36255,-1.987304 -1.97387,0 0,14.74365 2.44384,0 0,-7.640379 c 0,-3.55835 1.36963,-5.344238 4.12232,-5.344238 2.12158,0 3.1958,1.168213 3.1958,3.491211 l 0,9.493406 z"
         id="path4154"
         inkscape:connector-curvature="0" />
      <path
         d="m 197.49704,100.27567 c 1.12793,0.61768 2.80639,0.92652 5.0354,0.92652 1.90673,0 3.39721,-0.37598 4.44458,-1.14136 1.04736,-0.765382 1.57104,-1.826173 1.57104,-3.168946 0,-0.966797 -0.32226,-1.772461 -0.93994,-2.443848 -0.61768,-0.671387 -1.87988,-1.342773 -3.75977,-2.041015 -1.63818,-0.577393 -2.67211,-1.033936 -3.12866,-1.356202 -0.45654,-0.322265 -0.67138,-0.76538 -0.67138,-1.30249 0,-1.195068 1.04736,-1.785889 3.16894,-1.785889 1.22192,0 2.64526,0.322266 4.27002,0.966797 l 0.80566,-2.000732 c -1.53076,-0.671387 -3.18237,-0.993652 -4.95483,-0.993652 -1.75903,0 -3.14209,0.335693 -4.13574,1.033935 -0.99365,0.698242 -1.49048,1.651611 -1.49048,2.873535 0,0.886231 0.26855,1.651612 0.80566,2.296143 0.53711,0.644531 1.85303,1.369629 3.93433,2.148437 1.58447,0.563965 2.60498,1.047364 3.03467,1.42334 0.44311,0.375977 0.65796,0.819092 0.65796,1.329346 0,1.450195 -1.22193,2.175293 -3.69263,2.175293 -1.58447,0 -3.23608,-0.389404 -4.96826,-1.154785 l 0.0134,2.215573 z"
         id="path4156"
         inkscape:connector-curvature="0" />
      <path
         d="m 218.40402,100.93363 2.06787,0 3.80005,-17.160643 0.10742,0 c -0.13428,2.591553 -0.18799,4.337159 -0.18799,5.250245 l 0,11.910398 2.05445,0 0,-19.631346 -3.38379,0 -3.35694,16.00586 -0.0806,0 -3.33008,-16.00586 -3.31665,0 0,19.631346 2.02759,0 0,-11.735838 c 0,-1.248779 -0.0806,-3.061523 -0.2417,-5.438232 l 0.10742,0 3.73291,17.17407 z"
         id="path4158"
         inkscape:connector-curvature="0" />
      <path
         d="m 235.94064,101.20219 c 2.04102,0 3.66577,-0.68482 4.90112,-2.054447 1.22193,-1.369629 1.8396,-3.236084 1.8396,-5.612793 0,-2.296142 -0.6311,-4.135742 -1.86645,-5.518799 -1.24878,-1.396484 -2.84668,-2.081298 -4.7937,-2.081298 -2.06788,0 -3.70606,0.671386 -4.91455,2.041015 -1.2085,1.356201 -1.81275,3.209229 -1.81275,5.559082 0,2.336426 0.61768,4.189453 1.86646,5.585938 1.24878,1.396482 2.84668,2.081302 4.78027,2.081302 z m 0.0537,-2.027591 c -2.79297,0 -4.17602,-1.879883 -4.17602,-5.639649 0,-3.719482 1.38305,-5.585937 4.14916,-5.585937 2.79297,0 4.18946,1.866455 4.18946,5.585937 0,3.759766 -1.39649,5.639649 -4.1626,5.639649 z"
         id="path4160"
         inkscape:connector-curvature="0" />
      <path
         d="m 256.14938,100.93363 2.44385,0 0,-9.627684 c 0,-3.585205 -1.74561,-5.384521 -5.22339,-5.384521 -2.09473,0 -3.59863,0.751953 -4.51172,2.255859 l -0.13428,0 -0.36255,-1.987304 -1.97387,0 0,14.74365 2.44384,0 0,-7.640379 c 0,-3.55835 1.36963,-5.344238 4.12232,-5.344238 2.12158,0 3.1958,1.168213 3.1958,3.491211 l 0,9.493406 z"
         id="path4162"
         inkscape:connector-curvature="0" />
      <path
         d="m 268.91916,101.20219 c 2.04101,0 3.66577,-0.68482 4.90112,-2.054447 1.22192,-1.369629 1.8396,-3.236084 1.8396,-5.612793 0,-2.296142 -0.63111,-4.135742 -1.86646,-5.518799 -1.24878,-1.396484 -2.84668,-2.081298 -4.7937,-2.081298 -2.06787,0 -3.70605,0.671386 -4.91455,2.041015 -1.2085,1.356201 -1.81274,3.209229 -1.81274,5.559082 0,2.336426 0.61767,4.189453 1.86645,5.585938 1.24878,1.396482 2.84668,2.081302 4.78028,2.081302 z m 0.0537,-2.027591 c -2.79297,0 -4.17603,-1.879883 -4.17603,-5.639649 0,-3.719482 1.38306,-5.585937 4.14917,-5.585937 2.79297,0 4.18945,1.866455 4.18945,5.585937 0,3.759766 -1.39648,5.639649 -4.16259,5.639649 z"
         id="path4164"
         inkscape:connector-curvature="0" />
      <path
         d="m 308.36984,100.93363 0,-19.631346 -2.33643,0 0,10.742188 c 0,0.913086 0.0537,2.712402 0.18799,5.424804 l -0.0806,0 -7.76123,-16.166992 -2.8601,0 0,19.631346 2.30957,0 0,-10.648191 c 0,-1.24878 -0.0806,-3.115235 -0.2417,-5.599366 l 0.10742,0 7.78809,16.247557 2.88696,0 z"
         id="path4166"
         inkscape:connector-curvature="0" />
      <path
         d="m 324.91281,94.031776 0,-1.517334 c 0,-1.987304 -0.5774,-3.585205 -1.70532,-4.793701 -1.12793,-1.195068 -2.64527,-1.799316 -4.53858,-1.799316 -2.04101,0 -3.66577,0.698242 -4.87427,2.094726 -1.20849,1.396485 -1.81274,3.276368 -1.81274,5.653077 0,2.349853 0.65796,4.189453 1.97388,5.532226 1.31591,1.342776 3.06152,2.014156 5.26367,2.014156 1.77246,0 3.39721,-0.33569 4.88769,-1.00708 l 0,-2.148433 c -1.57104,0.671386 -3.22265,1.020508 -4.96826,1.020508 -3.00781,0 -4.552,-1.678467 -4.61914,-5.035401 l 10.39307,-0.01343 z m -10.33936,-1.973877 c 0.22827,-2.739257 1.57105,-4.095459 4.04175,-4.095459 2.43042,0 3.65234,1.356202 3.65234,4.095459 l -7.69409,0 z"
         id="path4168"
         inkscape:connector-curvature="0" />
      <path
         d="m 340.90524,86.525673 c -1.10108,-0.402832 -2.17529,-0.604248 -3.22266,-0.604248 -1.14135,0 -2.09472,0.228271 -2.87353,0.684814 -0.77881,0.456543 -1.51734,1.221924 -2.18872,2.282715 l -0.10742,0 -0.29542,-2.698974 -1.9873,0 0,14.74365 2.44385,0 0,-7.949217 c 0,-1.557617 0.3894,-2.752685 1.18164,-3.585205 0.79223,-0.832519 1.92016,-1.248779 3.38379,-1.248779 0.89966,0 1.90674,0.201416 3.00781,0.604248 l 0.65796,-2.229004 z"
         id="path4170"
         inkscape:connector-curvature="0" />
      <path
         d="m 355.2192,98.959755 0.36255,1.973875 1.97388,0 0,-20.893553 -2.44385,0 0,5.854492 c 0,0.295411 0.0537,1.020508 0.16113,2.175293 l -0.16113,0 c -1.04736,-1.423339 -2.48413,-2.148437 -4.32373,-2.148437 -1.79931,0 -3.20923,0.684814 -4.22973,2.027588 -1.03394,1.342773 -1.54419,3.222656 -1.54419,5.639648 0,2.403565 0.51025,4.27002 1.53076,5.612793 1.02051,1.342776 2.44385,2.014156 4.24316,2.014156 1.86646,0 3.30322,-0.75195 4.32373,-2.242427 l 0.10742,-0.01343 z m -0.10742,-4.807129 c -0.0403,1.772461 -0.36255,3.048096 -0.95337,3.840332 -0.59082,0.792236 -1.57104,1.195068 -2.92724,1.195068 -2.45728,0 -3.6792,-1.853027 -3.6792,-5.559082 0,-3.786621 1.20849,-5.666504 3.65234,-5.666504 1.3562,0 2.34985,0.429688 2.96753,1.289063 0.61768,0.859375 0.93994,2.30957 0.93994,4.337158 l 0,0.563965 z"
         id="path4172"
         inkscape:connector-curvature="0" />
      <path
         d="m 381.92697,100.93363 0,-8.298338 8.28491,0 0,-2.202148 -8.28491,0 0,-6.928711 8.79516,0 0,-2.202149 -11.29272,0 0,19.631346 2.49756,0 z"
         id="path4174"
         inkscape:connector-curvature="0" />
      <path
         d="m 400.83322,101.20219 c 2.04101,0 3.66577,-0.68482 4.90112,-2.054447 1.22192,-1.369629 1.8396,-3.236084 1.8396,-5.612793 0,-2.296142 -0.6311,-4.135742 -1.86645,-5.518799 -1.24878,-1.396484 -2.84668,-2.081298 -4.79371,-2.081298 -2.06787,0 -3.70605,0.671386 -4.91455,2.041015 -1.20849,1.356201 -1.81274,3.209229 -1.81274,5.559082 0,2.336426 0.61767,4.189453 1.86645,5.585938 1.24878,1.396482 2.84668,2.081302 4.78028,2.081302 z m 0.0537,-2.027591 c -2.79297,0 -4.17603,-1.879883 -4.17603,-5.639649 0,-3.719482 1.38306,-5.585937 4.14917,-5.585937 2.79297,0 4.18946,1.866455 4.18946,5.585937 0,3.759766 -1.39649,5.639649 -4.1626,5.639649 z"
         id="path4176"
         inkscape:connector-curvature="0" />
      <path
         d="m 421.04196,100.93363 2.44385,0 0,-9.627684 c 0,-3.585205 -1.74561,-5.384521 -5.22339,-5.384521 -2.09473,0 -3.59864,0.751953 -4.51172,2.255859 l -0.13428,0 -0.36255,-1.987304 -1.97388,0 0,14.74365 2.44385,0 0,-7.640379 c 0,-3.55835 1.36963,-5.344238 4.12232,-5.344238 2.12158,0 3.1958,1.168213 3.1958,3.491211 l 0,9.493406 z"
         id="path4178"
         inkscape:connector-curvature="0" />
      <path
         d="m 439.3171,98.919472 c -1.31591,0.187988 -2.39013,0.281982 -3.22265,0.281982 -1.71875,0 -2.57813,-0.872803 -2.57813,-2.618408 l 0,-8.553467 5.88135,0 0,-1.839599 -5.88135,0 0,-3.934327 -1.40991,0 -1.03393,3.85376 -3.58521,0.657959 0,1.262207 3.58521,0 0,8.553467 c 0,3.088379 1.61132,4.619144 4.86084,4.619144 1.08764,0 2.21557,-0.13428 3.38378,-0.42969 l 0,-1.853028 z"
         id="path4180"
         inkscape:connector-curvature="0" />
    </g>
    <g
       style="font-style:normal;font-weight:normal;font-size:27.5px;line-height:125%;font-family:'DroidSansMono Nerd Font';letter-spacing:0px;word-spacing:0px;fill:#ffffff;fill-opacity:1;stroke:none;stroke-width:1px;stroke-linecap:butt;stroke-linejoin:miter;stroke-opacity:1"
       id="text4140">
      <path
         d="m 73.067108,140.93362 1.119385,0 0,-6.42578 c 0,-1.09375 -0.290527,-1.88842 -0.871582,-2.38403 -0.581055,-0.49561 -1.512451,-0.74341 -2.802734,-0.74341 -1.068116,0 -2.161866,0.27344 -3.28125,0.82031 l 0.53833,1.17066 c 1.033935,-0.46143 1.965332,-0.70069 2.802734,-0.70069 1.392822,0 2.084961,0.67505 2.084961,2.01661 l 0,0.5896 -1.734619,0.0598 c -2.905274,0.094 -4.35791,1.08521 -4.35791,2.97363 0,0.88868 0.264892,1.57227 0.794677,2.05933 0.529785,0.4956 1.256104,0.73486 2.1875,0.73486 0.726319,0 1.324463,-0.10254 1.785889,-0.31616 0.461426,-0.21362 0.905762,-0.59814 1.350098,-1.15356 l 0.06836,0 0.316162,1.29882 z m -0.418701,-4.58862 0,0.84595 c 0,0.84595 -0.256348,1.5039 -0.751953,1.96533 -0.495606,0.46143 -1.16211,0.69214 -1.999512,0.69214 -1.145019,0 -1.708984,-0.50415 -1.708984,-1.521 0,-0.62378 0.230713,-1.0852 0.700683,-1.39282 0.461426,-0.30762 1.256104,-0.47851 2.375489,-0.52978 l 1.384277,-0.0598 z"
         style="font-size:17.5px"
         id="path4183"
         inkscape:connector-curvature="0" />
      <path
         d="m 78.817841,139.74588 c 0.649414,0.90576 1.572265,1.35864 2.751464,1.35864 1.136475,0 2.033692,-0.42724 2.691651,-1.28174 0.649414,-0.85449 0.982666,-2.05932 0.982666,-3.59741 0,-1.52099 -0.333252,-2.70874 -0.982666,-3.56323 -0.649414,-0.85449 -1.546631,-1.28174 -2.691651,-1.28174 -1.230468,0 -2.144775,0.46997 -2.751464,1.40137 l -0.06836,0 c 0.04272,-0.82031 0.06836,-1.46973 0.06836,-1.93115 l 0,-3.21289 -1.555176,0 0,13.29589 1.136474,0 0.316163,-1.18774 0.102539,0 z m 0,-3.52051 c 0,-1.29883 0.187988,-2.21313 0.572509,-2.75146 0.375977,-0.52979 1.008301,-0.80323 1.896973,-0.80323 1.555176,0 2.341309,1.1792 2.341309,3.5376 0,2.40967 -0.777588,3.60596 -2.324219,3.60596 -0.871582,0 -1.503906,-0.27344 -1.896973,-0.82031 -0.393066,-0.54688 -0.589599,-1.46973 -0.589599,-2.76856 z"
         style="font-size:17.5px"
         id="path4185"
         inkscape:connector-curvature="0" />
      <path
         d="M 95.471893,131.88455 C 94.566132,131.5513 93.6091,131.3804 92.6008,131.3804 c -1.503907,0 -2.666016,0.4187 -3.486329,1.25611 -0.828857,0.8374 -1.239013,2.05932 -1.239013,3.65722 0,1.55518 0.401611,2.74292 1.213379,3.57178 0.803222,0.82886 1.939697,1.23901 3.409423,1.23901 1.11084,0 2.042237,-0.1709 2.81128,-0.52124 l 0,-1.36719 c -0.939942,0.35889 -1.854248,0.52979 -2.74292,0.52979 -2.059326,0 -3.084717,-1.15356 -3.084717,-3.46924 0,-2.34985 1.051025,-3.52905 3.170166,-3.52905 0.666504,0 1.435547,0.16235 2.290039,0.48706 l 0.529785,-1.3501 z"
         style="font-size:17.5px"
         id="path4187"
         inkscape:connector-curvature="0" />
      <path
         d="m 104.56369,139.67752 0.23071,1.2561 1.25611,0 0,-13.29589 -1.55518,0 0,3.72558 c 0,0.18799 0.0342,0.64942 0.10254,1.38428 l -0.10254,0 c -0.6665,-0.90576 -1.58081,-1.36719 -2.75146,-1.36719 -1.14502,0 -2.04224,0.43579 -2.691654,1.29028 -0.657959,0.8545 -0.982666,2.05079 -0.982666,3.58887 0,1.52954 0.324707,2.71729 0.974121,3.57178 0.649414,0.85449 1.555179,1.28174 2.700199,1.28174 1.18774,0 2.10205,-0.47852 2.75146,-1.427 l 0.0684,-0.009 z m -0.0684,-3.05908 c -0.0256,1.12793 -0.23071,1.9397 -0.60669,2.44385 -0.37598,0.50415 -0.99975,0.76049 -1.86279,0.76049 -1.56372,0 -2.34131,-1.17919 -2.34131,-3.53759 0,-2.40967 0.76904,-3.60596 2.32422,-3.60596 0.86304,0 1.49536,0.27344 1.88843,0.82031 0.39306,0.54688 0.59814,1.46973 0.59814,2.76001 l 0,0.35889 z"
         style="font-size:17.5px"
         id="path4189"
         inkscape:connector-curvature="0" />
      <path
         d="m 116.75729,136.54153 0,-0.96557 c 0,-1.26465 -0.36743,-2.2815 -1.0852,-3.05054 -0.71777,-0.7605 -1.68335,-1.14502 -2.88818,-1.14502 -1.29883,0 -2.33277,0.44434 -3.10181,1.33301 -0.76904,0.88867 -1.15357,2.08496 -1.15357,3.59741 0,1.49536 0.41871,2.66602 1.25611,3.52051 0.8374,0.85449 1.94824,1.28174 3.34961,1.28174 1.12793,0 2.16186,-0.21363 3.11035,-0.64087 l 0,-1.36719 c -0.99976,0.42725 -2.05078,0.64942 -3.16162,0.64942 -1.91407,0 -2.89673,-1.06812 -2.93946,-3.20435 l 6.61377,-0.009 z m -6.57959,-1.2561 c 0.14527,-1.74316 0.99976,-2.6062 2.57203,-2.6062 1.54663,0 2.32421,0.86304 2.32421,2.6062 l -4.89624,0 z"
         style="font-size:17.5px"
         id="path4191"
         inkscape:connector-curvature="0" />
      <path
         d="m 126.80612,132.72195 0,-1.17065 -3.32397,0 0,-0.88867 c 0,-0.64942 0.11963,-1.11939 0.37597,-1.40991 0.24781,-0.28199 0.72632,-0.42725 1.42701,-0.42725 0.58105,0 1.17065,0.0855 1.76879,0.23926 l 0.35035,-1.22193 c -0.70069,-0.19653 -1.41846,-0.29907 -2.15332,-0.29907 -1.19629,0 -2.04224,0.2478 -2.55494,0.74341 -0.51269,0.49561 -0.76904,1.29883 -0.76904,2.39258 l 0,0.82031 -2.70874,0.28198 0,0.93994 2.70874,0 0,8.21167 1.55518,0 0,-8.21167 3.32397,0 z"
         style="font-size:17.5px"
         id="path4193"
         inkscape:connector-curvature="0" />
      <path
         d="m 137.99997,131.5513 -3.22998,0 c -0.36743,-0.11108 -0.79468,-0.1709 -1.28174,-0.1709 -1.12793,0 -1.99097,0.28198 -2.59766,0.84595 -0.60668,0.56396 -0.90576,1.35864 -0.90576,2.39258 0,0.58105 0.14527,1.11084 0.43579,1.5979 0.29053,0.48706 0.6836,0.8374 1.19629,1.04248 -0.7605,0.46142 -1.13647,1.0083 -1.13647,1.64062 0,0.61524 0.27344,1.05103 0.82031,1.31592 -1.36719,0.33325 -2.05078,1.1023 -2.05078,2.30713 0,0.82886 0.31616,1.46973 0.96558,1.93115 0.64941,0.46143 1.58935,0.6836 2.83691,0.6836 3.21289,0 4.82788,-1.06812 4.82788,-3.22144 0,-0.81177 -0.26489,-1.43555 -0.78613,-1.87134 -0.52979,-0.44433 -1.28174,-0.65796 -2.27295,-0.65796 l -1.5979,0 c -0.92285,0 -1.37573,-0.23925 -1.37573,-0.71777 0,-0.44434 0.28198,-0.82031 0.85449,-1.13647 0.1709,0.0342 0.4187,0.0513 0.73486,0.0513 1.07666,0 1.92261,-0.27343 2.5293,-0.82031 0.60669,-0.54687 0.9143,-1.27319 0.9143,-2.1875 0,-0.73486 -0.18798,-1.34155 -0.55542,-1.82007 l 1.67481,-0.23071 0,-0.97412 z m -4.5459,4.9646 c -1.29883,0 -1.9397,-0.64941 -1.9397,-1.9397 0,-1.38427 0.64087,-2.06787 1.92261,-2.06787 1.28174,0 1.92261,0.67505 1.92261,2.04224 0,1.30737 -0.64087,1.96533 -1.90552,1.96533 z m 0.8374,4.27246 c 0.83741,0 1.40137,0.0854 1.6919,0.25635 0.28198,0.1709 0.42724,0.51269 0.42724,1.01684 0,1.26465 -1.12793,1.90552 -3.37524,1.90552 -1.54663,0 -2.31567,-0.4956 -2.31567,-1.48681 0,-1.12793 0.64941,-1.6919 1.96533,-1.6919 l 1.60644,0 z"
         style="font-size:17.5px"
         id="path4195"
         inkscape:connector-curvature="0" />
      <path
         d="m 146.4509,140.93362 1.55517,0 0,-6.1267 c 0,-2.2815 -1.11084,-3.42652 -3.32397,-3.42652 -1.33301,0 -2.29004,0.47852 -2.8711,1.43555 l -0.0854,0 0.0684,-1.23047 0,-3.94775 -1.55517,0 0,13.29589 1.55517,0 0,-4.86206 c 0,-2.2644 0.87159,-3.40088 2.6233,-3.40088 1.35009,0 2.03369,0.74341 2.03369,2.22168 l 0,6.04126 z"
         style="font-size:17.5px"
         id="path4197"
         inkscape:connector-curvature="0" />
      <path
         d="m 154.77365,127.689 c -0.61523,0 -0.91431,0.3247 -0.91431,0.97412 0,0.65796 0.29908,0.98266 0.91431,0.98266 0.23926,0 0.45288,-0.0769 0.63233,-0.23926 0.17944,-0.16235 0.27343,-0.41015 0.27343,-0.7434 0,-0.64942 -0.30761,-0.97412 -0.90576,-0.97412 z m -0.78613,5.09277 0,6.92993 -2.93945,0.1709 0,1.05102 7.50244,0 0,-1.05102 -3.00782,-0.1709 0,-8.1604 -3.85376,0 0,1.05103 2.29859,0.17944 z"
         style="font-size:17.5px"
         id="path4199"
         inkscape:connector-curvature="0" />
      <path
         d="m 166.20676,127.689 c -0.60669,0 -0.90577,0.3247 -0.90577,0.97412 0,0.65796 0.29908,0.98266 0.90577,0.98266 0.60669,0 0.9143,-0.3247 0.9143,-0.98266 0,-0.64942 -0.30761,-0.97412 -0.9143,-0.97412 z m -5.19532,17.14965 c 0.70069,0.20508 1.51246,0.29908 2.4524,0.29908 1.17065,0 2.07641,-0.27344 2.71728,-0.82886 0.64942,-0.55542 0.96558,-1.3501 0.96558,-2.37549 l 0,-10.38208 -5.14404,0 0,1.05103 3.58886,0.17944 0,9.23706 c 0,0.58105 -0.17944,1.02539 -0.55542,1.3501 -0.37597,0.3247 -0.89721,0.48706 -1.56372,0.48706 -0.88013,0 -1.70044,-0.11109 -2.46094,-0.33325 l 0,1.31591 z"
         style="font-size:17.5px"
         id="path4201"
         inkscape:connector-curvature="0" />
      <path
         d="m 173.62375,136.20828 -0.0342,0 0.13672,-2.46948 0,-6.10107 -1.53809,0 0,13.29589 1.53809,0 0,-3.60595 1.10229,-0.70069 3.64014,4.30664 1.82007,0 -4.46045,-5.32348 4.22119,-4.05884 -1.89697,0 -3.37525,3.35815 -1.15356,1.29883 z"
         style="font-size:17.5px"
         id="path4203"
         inkscape:connector-curvature="0" />
      <path
         d="m 185.39011,128.85965 0,10.85205 -2.93946,0.1709 0,1.05102 7.51099,0 0,-1.05102 -3.00781,-0.1709 0,-12.07397 -3.85376,0 0,1.04248 2.29004,0.17944 z"
         style="font-size:17.5px"
         id="path4205"
         inkscape:connector-curvature="0" />
      <path
         d="m 199.68576,140.93362 1.38428,0 0,-6.1267 c 0,-1.23047 -0.1709,-2.10206 -0.49561,-2.63184 -0.33325,-0.52979 -0.86303,-0.79468 -1.58935,-0.79468 -0.82032,0 -1.44409,0.52124 -1.87134,1.55518 l -0.0513,0 c -0.29053,-1.03394 -0.89722,-1.55518 -1.82007,-1.55518 -0.76904,0 -1.34155,0.47852 -1.71753,1.43555 l -0.0854,0 -0.23071,-1.26465 -1.08521,0 0,9.38232 1.38428,0 0,-4.86206 c 0,-1.35864 0.10254,-2.2644 0.30762,-2.71728 0.20508,-0.45288 0.54687,-0.6836 1.02539,-0.6836 0.70923,0 1.06812,0.74341 1.06812,2.22168 l 0,6.04126 1.37573,0 0,-5.17822 c 0,-1.11084 0.11108,-1.89697 0.33325,-2.37549 0.22217,-0.46997 0.5896,-0.70923 1.0852,-0.70923 0.35035,0 0.59815,0.16236 0.75196,0.48707 0.15381,0.3247 0.23071,0.90576 0.23071,1.73461 l 0,6.04126 z"
         style="font-size:17.5px"
         id="path4207"
         inkscape:connector-curvature="0" />
      <path
         d="m 209.40988,140.93362 1.55518,0 0,-6.1267 c 0,-2.2815 -1.11084,-3.42652 -3.32398,-3.42652 -1.33301,0 -2.29004,0.47852 -2.87109,1.43555 l -0.0855,0 -0.23071,-1.26465 -1.25611,0 0,9.38232 1.55518,0 0,-4.86206 c 0,-2.2644 0.87158,-3.40088 2.62329,-3.40088 1.3501,0 2.03369,0.74341 2.03369,2.22168 l 0,6.04126 z"
         style="font-size:17.5px"
         id="path4209"
         inkscape:connector-curvature="0" />
      <path
         d="m 217.5361,141.10452 c 1.29883,0 2.33277,-0.43579 3.1189,-1.30737 0.77759,-0.87158 1.17065,-2.05933 1.17065,-3.57178 0,-1.46118 -0.40161,-2.63183 -1.18774,-3.51196 -0.79468,-0.88867 -1.81152,-1.32446 -3.05054,-1.32446 -1.31592,0 -2.3584,0.42724 -3.12744,1.29882 -0.76904,0.86304 -1.15356,2.04224 -1.15356,3.5376 0,1.48682 0.39306,2.66602 1.18774,3.55469 0.79468,0.88867 1.81152,1.32446 3.04199,1.32446 z m 0.0342,-1.29028 c -1.77734,0 -2.65747,-1.19629 -2.65747,-3.58887 0,-2.36694 0.88013,-3.55469 2.64038,-3.55469 1.77735,0 2.66602,1.18775 2.66602,3.55469 0,2.39258 -0.88867,3.58887 -2.64893,3.58887 z"
         style="font-size:17.5px"
         id="path4211"
         inkscape:connector-curvature="0" />
      <path
         d="m 225.72214,139.74588 c 0.64941,0.90576 1.57226,1.35864 2.75146,1.35864 1.13648,0 2.03369,-0.42724 2.69165,-1.28174 0.64942,-0.85449 0.98267,-2.05932 0.98267,-3.59741 0,-1.52099 -0.33325,-2.70874 -0.98267,-3.56323 -0.64941,-0.85449 -1.54663,-1.28174 -2.69165,-1.28174 -1.21338,0 -2.12768,0.47852 -2.75146,1.43555 l -0.0684,0 -0.23071,-1.26465 -1.25611,0 0,13.58643 1.55518,0 0,-4.00757 c 0,-0.18799 -0.0342,-0.64942 -0.10254,-1.38428 l 0.10254,0 z m 0,-3.87085 c 0.0171,-1.12793 0.22217,-1.94824 0.59814,-2.45239 0.37598,-0.49561 0.99976,-0.75196 1.87134,-0.75196 1.55518,0 2.34131,1.1792 2.34131,3.5376 0,2.40967 -0.77759,3.60596 -2.32422,3.60596 -0.87158,0 -1.50391,-0.27344 -1.89697,-0.82031 -0.39307,-0.54688 -0.5896,-1.46973 -0.5896,-2.76856 l 0,-0.35034 z"
         style="font-size:17.5px"
         id="path4213"
         inkscape:connector-curvature="0" />
      <path
         d="m 240.90646,132.81595 c -0.65796,-0.95703 -1.57226,-1.43555 -2.75146,-1.43555 -1.14502,0 -2.04224,0.43579 -2.69165,1.29028 -0.65796,0.8545 -0.98267,2.05079 -0.98267,3.58887 0,1.52954 0.32471,2.71729 0.97412,3.57178 0.64942,0.85449 1.55518,1.28174 2.7002,1.28174 1.18774,0 2.10205,-0.47852 2.74292,-1.427 l 0.10254,0 c -0.0684,0.73486 -0.10254,1.21337 -0.10254,1.45263 l 0,4.00757 1.55517,0 0,-13.58643 -1.2561,0 -0.23071,1.26465 -0.0598,-0.009 z m -0.009,3.80249 c -0.0171,1.12793 -0.22217,1.9397 -0.59815,2.44385 -0.37597,0.50415 -0.99975,0.76049 -1.86279,0.76049 -1.56372,0 -2.34131,-1.17919 -2.34131,-3.53759 0,-2.40967 0.76905,-3.60596 2.32422,-3.60596 0.86304,0 1.49536,0.27344 1.88843,0.82031 0.39307,0.54688 0.5896,1.46973 0.5896,2.76001 l 0,0.35889 z"
         style="font-size:17.5px"
         id="path4215"
         inkscape:connector-curvature="0" />
      <path
         d="m 252.85226,131.76492 c -0.70068,-0.25634 -1.38427,-0.38452 -2.05078,-0.38452 -0.72632,0 -1.333,0.14527 -1.82861,0.43579 -0.49561,0.29053 -0.96558,0.77759 -1.39282,1.45264 l -0.0684,0 -0.18799,-1.71753 -1.26465,0 0,9.38232 1.55518,0 0,-5.05859 c 0,-0.99121 0.2478,-1.75171 0.75195,-2.28149 0.50415,-0.52979 1.22192,-0.79468 2.15332,-0.79468 0.57251,0 1.21338,0.12817 1.91406,0.38452 l 0.4187,-1.41846 z"
         style="font-size:17.5px"
         id="path4217"
         inkscape:connector-curvature="0" />
      <path
         d="m 256.03098,140.51492 c 0.71777,0.39307 1.78588,0.5896 3.20434,0.5896 1.21338,0 2.16187,-0.23926 2.82837,-0.72632 0.6665,-0.48706 0.99976,-1.16211 0.99976,-2.0166 0,-0.61523 -0.20508,-1.12793 -0.59815,-1.55517 -0.39306,-0.42725 -1.19629,-0.8545 -2.39258,-1.29883 -1.04248,-0.36743 -1.70044,-0.65796 -1.99096,-0.86304 -0.29053,-0.20508 -0.42725,-0.48706 -0.42725,-0.82886 0,-0.76049 0.6665,-1.13647 2.0166,-1.13647 0.77759,0 1.68335,0.20508 2.71729,0.61523 l 0.51269,-1.27319 c -0.97412,-0.42725 -2.02514,-0.63232 -3.15307,-0.63232 -1.11939,0 -1.99952,0.21362 -2.63184,0.65796 -0.63232,0.44433 -0.94849,1.05102 -0.94849,1.82861 0,0.56396 0.1709,1.05102 0.5127,1.46118 0.3418,0.41016 1.1792,0.87158 2.50366,1.36719 1.0083,0.35888 1.65772,0.6665 1.93115,0.90576 0.28199,0.23926 0.41871,0.52124 0.41871,0.84595 0,0.92285 -0.77759,1.38427 -2.34986,1.38427 -1.0083,0 -2.05932,-0.2478 -3.16162,-0.73486 l 0.009,1.40991 z"
         style="font-size:17.5px"
         id="path4219"
         inkscape:connector-curvature="0" />
      <path
         d="m 273.50534,139.65189 c -0.8374,0.11962 -1.521,0.17944 -2.05078,0.17944 -1.09375,0 -1.64063,-0.55542 -1.64063,-1.66626 l 0,-5.44312 3.74268,0 0,-1.17065 -3.74268,0 0,-2.50366 -0.89721,0 -0.65796,2.45239 -2.2815,0.4187 0,0.80322 2.2815,0 0,5.44312 c 0,1.96533 1.02539,2.93945 3.09326,2.93945 0.69214,0 1.40991,-0.0855 2.15332,-0.27343 l 0,-1.1792 z"
         style="font-size:17.5px"
         id="path4221"
         inkscape:connector-curvature="0" />
      <path
         d="m 283.1611,140.93362 1.25611,0 0,-9.38232 -1.55518,0 0,4.87061 c 0,1.21337 -0.21362,2.07641 -0.63232,2.6062 -0.42725,0.52978 -1.09375,0.78613 -2.00806,0.78613 -1.3501,0 -2.0166,-0.73486 -2.0166,-2.22168 l 0,-6.04126 -1.55518,0 0,6.12671 c 0,2.29004 1.11084,3.42651 3.34107,3.42651 1.29882,0 2.25586,-0.46997 2.854,-1.427 l 0.0854,0 0.23071,1.2561 z"
         style="font-size:17.5px"
         id="path4223"
         inkscape:connector-curvature="0" />
      <path
         d="m 290.03122,140.93362 1.97388,0 3.55468,-9.38232 -1.61499,0 -2.04223,5.57129 c -0.53833,1.60644 -0.82886,2.5293 -0.87158,2.7771 l -0.0513,0 c -0.0855,-0.52979 -0.36744,-1.46118 -0.8545,-2.7771 l -2.05078,-5.57129 -1.60644,0 3.56323,9.38232 z"
         style="font-size:17.5px"
         id="path4225"
         inkscape:connector-curvature="0" />
      <path
         d="m 303.21603,140.93362 1.66626,0 1.92261,-9.38232 -1.3501,0 -0.87158,4.63989 c -0.1709,0.86304 -0.3418,1.98242 -0.51269,3.35816 l -0.0513,0 c -0.13672,-0.92285 -0.33326,-1.94825 -0.57251,-3.05909 l -1.08521,-4.93896 -1.64917,0 -1.13647,4.93896 c -0.21363,0.99122 -0.41016,2.00806 -0.5896,3.05909 l -0.0513,0 c -0.12818,-1.1792 -0.29053,-2.29859 -0.48706,-3.35816 l -0.8374,-4.63989 -1.38428,0 1.90552,9.38232 1.61499,0 1.15356,-5.05859 0.55542,-2.854 0.0513,0 0.58105,2.81982 1.12793,5.09277 z"
         style="font-size:17.5px"
         id="path4227"
         inkscape:connector-curvature="0" />
      <path
         d="m 311.12009,136.12283 -3.5376,4.81079 1.7688,0 2.65747,-3.72558 2.64892,3.72558 1.76026,0 -3.52905,-4.81079 3.37524,-4.57153 -1.7688,0 -2.48657,3.50342 -2.47803,-3.50342 -1.7688,0 3.35816,4.57153 z"
         style="font-size:17.5px"
         id="path4229"
         inkscape:connector-curvature="0" />
      <path
         d="m 317.95602,131.5513 3.90503,9.46777 -0.4956,1.28174 c -0.23926,0.57251 -0.5127,0.97412 -0.82031,1.20484 -0.30762,0.23925 -0.72632,0.35034 -1.2732,0.35034 -0.42724,0 -0.81177,-0.0342 -1.16211,-0.10254 l 0,1.23901 c 0.46143,0.10254 0.93994,0.14527 1.43555,0.14527 0.88867,0 1.58936,-0.24781 2.10205,-0.74341 0.50415,-0.49561 0.94849,-1.24756 1.33301,-2.23877 l 4.05884,-10.60425 -1.61499,0 -2.04224,5.57129 c -0.38452,1.02539 -0.64087,1.86279 -0.76904,2.49512 l -0.0513,0 c -0.0427,-0.47852 -0.29908,-1.30738 -0.7605,-2.47803 l -2.23877,-5.58838 -1.60645,0 z"
         style="font-size:17.5px"
         id="path4231"
         inkscape:connector-curvature="0" />
      <path
         d="m 336.6694,140.93362 0,-1.17065 -5.68237,0 5.52856,-6.96411 0,-1.24756 -6.92993,0 0,1.17065 5.35767,0 -5.63965,7.14356 0,1.06811 7.36572,0 z"
         style="font-size:17.5px"
         id="path4233"
         inkscape:connector-curvature="0" />
      <path
         d="m 73.998505,162.80862 1.640625,0 -4.144287,-12.54394 -1.66626,0 -4.127198,12.54394 1.623536,0 1.247558,-3.87085 4.195557,0 1.230469,3.87085 z m -1.68335,-5.28076 -3.289795,0 1.230469,-3.99048 c 0.145264,-0.47851 0.273437,-0.99975 0.384521,-1.56372 0.136719,0.58106 0.307618,1.23047 0.529785,1.93116 l 1.14502,3.62304 z"
         style="font-size:17.5px"
         id="path4235"
         inkscape:connector-curvature="0" />
      <path
         d="m 77.066132,150.31595 0,12.49267 4.503173,0 c 1.247559,0 2.23877,-0.31616 2.965088,-0.96557 0.726319,-0.64087 1.09375,-1.52954 1.09375,-2.65747 0,-1.64063 -0.948486,-2.61475 -2.836914,-2.92237 l 0,-0.0854 c 0.760498,-0.10253 1.367188,-0.39306 1.811524,-0.88012 0.444336,-0.47852 0.666504,-1.08521 0.666504,-1.82007 0,-1.11084 -0.350342,-1.91406 -1.051026,-2.40967 -0.700683,-0.4956 -1.837158,-0.75195 -3.400879,-0.75195 l -3.75122,0 z m 1.589355,5.29785 0,-3.93921 2.255859,0 c 0.948487,0 1.640625,0.15381 2.076416,0.44434 0.435791,0.29907 0.649415,0.78613 0.649415,1.46972 0,0.72632 -0.196534,1.24756 -0.60669,1.56372 -0.410156,0.30762 -1.05957,0.46997 -1.948242,0.46997 l -2.426758,-0.009 z m 0,1.34155 2.512207,0 c 1.845703,0 2.768555,0.71778 2.768555,2.17041 0,1.55518 -0.880127,2.34131 -2.657471,2.34131 l -2.623291,0 0,-4.51172 z"
         style="font-size:17.5px"
         id="path4237"
         inkscape:connector-curvature="0" />
      <path
         d="m 96.010223,161.09109 c -1.127929,0.33326 -2.059326,0.49561 -2.794189,0.49561 -1.315918,0 -2.315674,-0.42725 -2.999268,-1.28174 -0.683593,-0.85449 -1.02539,-2.10205 -1.02539,-3.73413 0,-1.54663 0.358886,-2.76855 1.09375,-3.67432 0.726318,-0.90576 1.700439,-1.35864 2.922363,-1.35864 0.863037,0 1.734619,0.22217 2.614746,0.66651 l 0.666504,-1.33301 c -0.931396,-0.48706 -2.025146,-0.73486 -3.28125,-0.73486 -1.760254,0 -3.153076,0.58105 -4.178467,1.72607 -1.016845,1.15356 -1.529541,2.71728 -1.529541,4.69116 0,2.05078 0.469971,3.64014 1.401367,4.75952 0.939942,1.11084 2.281495,1.67481 4.041748,1.67481 1.213379,0 2.230225,-0.1709 3.059082,-0.50415 l 0.0085,-1.39283 z"
         style="font-size:17.5px"
         id="path4239"
         inkscape:connector-curvature="0" />
      <path
         d="m 98.05246,162.80862 2.57202,0 c 1.96533,0 3.46924,-0.54687 4.51172,-1.64062 1.04248,-1.09375 1.56372,-2.66602 1.56372,-4.72534 0,-1.93115 -0.50415,-3.43506 -1.51245,-4.51172 -1.0083,-1.07666 -2.40967,-1.61499 -4.21265,-1.61499 l -2.92236,0 0,12.49267 z m 1.5979,-11.13403 1.15356,0 c 2.80274,0 4.21265,1.60645 4.21265,4.81934 0,3.29834 -1.521,4.94751 -4.5459,4.94751 l -0.82031,0 0,-9.76685 z"
         style="font-size:17.5px"
         id="path4241"
         inkscape:connector-curvature="0" />
      <path
         d="m 116.44113,162.80862 0,-1.40136 -5.60547,0 0,-4.44336 5.27222,0 0,-1.38428 -5.27222,0 0,-3.8623 5.60547,0 0,-1.40137 -7.19482,0 0,12.49267 7.19482,0 z"
         style="font-size:17.5px"
         id="path4243"
         inkscape:connector-curvature="0" />
      <path
         d="m 121.55954,162.80862 0,-5.28076 5.27222,0 0,-1.40136 -5.27222,0 0,-4.40918 5.59692,0 0,-1.40137 -7.18628,0 0,12.49267 1.58936,0 z"
         style="font-size:17.5px"
         id="path4245"
         inkscape:connector-curvature="0" />
      <path
         d="m 134.12057,156.21194 0,1.40137 2.02515,0 0,3.72559 c -0.59814,0.1709 -1.1792,0.2478 -1.72607,0.2478 -2.24732,0 -3.3667,-1.6748 -3.3667,-5.02441 0,-1.57227 0.29907,-2.80274 0.9143,-3.69141 0.60669,-0.88867 1.46119,-1.33301 2.55494,-1.33301 0.76049,0 1.55517,0.23926 2.38403,0.71778 l 0.61523,-1.38428 c -0.87158,-0.48706 -1.86279,-0.73486 -2.95654,-0.73486 -1.61499,0 -2.88818,0.5725 -3.81103,1.70898 -0.92286,1.13647 -1.38428,2.70019 -1.38428,4.69971 0,2.0166 0.42724,3.59741 1.26465,4.73388 0.8374,1.13648 2.00805,1.70044 3.49487,1.70044 1.28174,0 2.47803,-0.21362 3.58887,-0.64087 l 0,-6.12671 -3.59742,0 z"
         style="font-size:17.5px"
         id="path4247"
         inkscape:connector-curvature="0" />
      <path
         d="m 148.2197,162.80862 0,-12.49267 -1.5979,0 0,5.26367 -4.99878,0 0,-5.26367 -1.5979,0 0,12.49267 1.5979,0 0,-5.82763 4.99878,0 0,5.82763 1.5979,0 z"
         style="font-size:17.5px"
         id="path4249"
         inkscape:connector-curvature="0" />
      <path
         d="m 157.91818,162.80862 0,-1.05102 -2.5122,-0.1709 0,-10.04883 2.5122,-0.1709 0,-1.05102 -6.63086,0 0,1.05102 2.52075,0.1709 0,10.04883 -2.52075,0.1709 0,1.05102 6.63086,0 z"
         style="font-size:17.5px"
         id="path4251"
         inkscape:connector-curvature="0" />
      <path
         d="m 161.02853,162.47537 c 0.60669,0.3418 1.52954,0.50415 2.76856,0.50415 1.3501,0 2.41821,-0.35888 3.22143,-1.0852 0.80323,-0.72632 1.20484,-1.70899 1.20484,-2.93946 l 0,-8.63891 -1.58936,0 0,8.656 c 0,0.83741 -0.26489,1.48682 -0.79468,1.9397 -0.52978,0.45288 -1.2561,0.67505 -2.17041,0.67505 -0.8374,0 -1.71752,-0.1709 -2.64038,-0.52978 l 0,1.41845 z"
         style="font-size:17.5px"
         id="path4253"
         inkscape:connector-curvature="0" />
      <path
         d="m 180.58786,162.80862 -4.60571,-7.04956 4.4519,-5.44311 -1.78589,0 -3.87085,4.81079 -1.03393,1.43555 0,-6.24634 -1.58936,0 0,12.49267 1.58936,0 0,-4.99023 1.19629,-0.97412 3.84521,5.96435 1.80298,0 z"
         style="font-size:17.5px"
         id="path4255"
         inkscape:connector-curvature="0" />
      <path
         d="m 182.83517,162.80862 7.02393,0 0,-1.41845 -5.42603,0 0,-11.07422 -1.5979,0 0,12.49267 z"
         style="font-size:17.5px"
         id="path4257"
         inkscape:connector-curvature="0" />
      <path
         d="m 195.88327,162.80862 1.31592,0 2.41821,-10.92041 0.0684,0 c -0.0854,1.64917 -0.11963,2.76001 -0.11963,3.34107 l 0,7.57934 1.30737,0 0,-12.49267 -2.15332,0 -2.13623,10.18555 -0.0513,0 -2.11914,-10.18555 -2.11059,0 0,12.49267 1.29028,0 0,-7.46826 c 0,-0.79468 -0.0513,-1.94824 -0.15381,-3.46069 l 0.0684,0 2.37549,10.92895 z"
         style="font-size:17.5px"
         id="path4259"
         inkscape:connector-curvature="0" />
      <path
         d="m 211.16159,162.80862 0,-12.49267 -1.48682,0 0,6.83594 c 0,0.58105 0.0342,1.72607 0.11963,3.45214 l -0.0513,0 -4.93896,-10.28808 -1.82007,0 0,12.49267 1.46973,0 0,-6.77612 c 0,-0.79468 -0.0513,-1.98242 -0.15381,-3.56323 l 0.0684,0 4.95605,10.33935 1.83716,0 z"
         style="font-size:17.5px"
         id="path4261"
         inkscape:connector-curvature="0" />
      <path
         d="m 217.58737,162.97952 c 1.45264,0 2.57202,-0.55542 3.35816,-1.6748 0.78613,-1.11084 1.1792,-2.7002 1.1792,-4.75952 0,-2.05078 -0.39307,-3.64014 -1.17066,-4.75098 -0.77759,-1.11084 -1.89697,-1.6748 -3.34961,-1.6748 -3.04199,0 -4.56299,2.13623 -4.56299,6.40869 0,4.30664 1.51245,6.45141 4.5459,6.45141 z m 0,-1.39282 c -1.91406,0 -2.86255,-1.6748 -2.86255,-5.0415 0,-3.34961 0.95703,-5.02442 2.87964,-5.02442 0.95703,0 1.67481,0.41016 2.13623,1.22193 0.46143,0.81176 0.70069,2.07641 0.70069,3.80249 0,1.70898 -0.23072,2.98217 -0.69214,3.80249 -0.46143,0.82885 -1.1792,1.23901 -2.16187,1.23901 z"
         style="font-size:17.5px"
         id="path4263"
         inkscape:connector-curvature="0" />
      <path
         d="m 225.91013,157.94656 1.63208,0 c 1.5039,0 2.64892,-0.35034 3.43505,-1.05102 0.78614,-0.70069 1.18775,-1.67481 1.18775,-2.92236 0,-2.43531 -1.46973,-3.65723 -4.39209,-3.65723 l -3.45215,0 0,12.49267 1.58936,0 0,-4.86206 z m 0,-1.35009 0,-4.92188 1.71753,0 c 1.9226,0 2.88818,0.79468 2.88818,2.38403 0,0.87159 -0.2478,1.51246 -0.73486,1.92261 -0.48707,0.41016 -1.29029,0.61524 -2.41822,0.61524 l -1.45263,0 z"
         style="font-size:17.5px"
         id="path4265"
         inkscape:connector-curvature="0" />
      <path
         d="m 240.67575,162.47537 c 1.62354,-0.95703 2.4353,-2.93091 2.4353,-5.93017 0,-2.05078 -0.39306,-3.64014 -1.17065,-4.75098 -0.77759,-1.11084 -1.89697,-1.6748 -3.34961,-1.6748 -3.04199,0 -4.56299,2.13623 -4.56299,6.40869 0,4.30664 1.51245,6.45141 4.5459,6.45141 0.22217,0 0.44434,-0.0171 0.64941,-0.0513 0.52124,1.30738 1.45264,2.44385 2.79419,3.41797 l 1.03394,-1.21338 c -1.1023,-0.74341 -1.89697,-1.63208 -2.37549,-2.65747 z m -2.11059,-0.88867 c -1.90552,0 -2.86255,-1.6748 -2.86255,-5.0415 0,-3.34961 0.96557,-5.02442 2.87963,-5.02442 0.96558,0 1.68335,0.41016 2.14478,1.22193 0.46143,0.81176 0.69214,2.07641 0.69214,3.80249 0,1.70898 -0.22217,2.98217 -0.68359,3.80249 -0.46143,0.82885 -1.1792,1.23901 -2.17041,1.23901 z"
         style="font-size:17.5px"
         id="path4267"
         inkscape:connector-curvature="0" />
      <path
         d="m 246.99045,157.64749 1.95679,0 2.99072,5.16113 1.87134,0 -3.39234,-5.59692 c 1.64063,-0.59814 2.46948,-1.70898 2.46948,-3.34961 0,-2.3584 -1.48681,-3.54614 -4.44336,-3.54614 l -3.05053,0 0,12.49267 1.5979,0 0,-5.16113 z m 0,-1.3501 0,-4.6228 1.35864,0 c 1.0083,0 1.74316,0.17944 2.20459,0.52979 0.45288,0.35888 0.68359,0.93139 0.68359,1.73462 0,0.82031 -0.23071,1.41845 -0.69213,1.79443 -0.46143,0.37598 -1.1792,0.56396 -2.15332,0.56396 l -1.40137,0 z"
         style="font-size:17.5px"
         id="path4269"
         inkscape:connector-curvature="0" />
      <path
         d="m 255.50119,162.38992 c 0.84595,0.39307 2.02515,0.5896 3.5376,0.5896 1.45263,0 2.57202,-0.30761 3.35815,-0.93139 0.78613,-0.62378 1.18775,-1.48682 1.18775,-2.58057 0,-0.8374 -0.23926,-1.521 -0.70923,-2.05078 -0.46997,-0.52979 -1.40137,-1.05103 -2.80274,-1.55518 -1.17065,-0.40161 -1.93969,-0.77759 -2.31567,-1.12793 -0.37598,-0.35888 -0.56397,-0.82031 -0.56397,-1.40136 0,-1.19629 0.83741,-1.78589 2.50367,-1.78589 0.95703,0 1.98242,0.22217 3.07617,0.6665 l 0.54687,-1.40137 c -1.05957,-0.44433 -2.24731,-0.6665 -3.55468,-0.6665 -1.2732,0 -2.27295,0.27344 -3.00782,0.8374 -0.73486,0.56397 -1.10229,1.34156 -1.10229,2.33277 0,0.92285 0.26489,1.66626 0.77759,2.24731 0.51269,0.58106 1.36718,1.07666 2.54638,1.49536 1.23047,0.43579 2.04224,0.81177 2.44385,1.13648 0.40161,0.31616 0.59815,0.76904 0.59815,1.35864 0,1.36719 -0.99122,2.05078 -2.99073,2.05078 -1.15356,0 -2.33276,-0.23926 -3.53759,-0.73486 l 0.009,1.52099 z"
         style="font-size:17.5px"
         id="path4271"
         inkscape:connector-curvature="0" />
      <path
         d="m 270.83078,162.80862 0,-11.0913 3.56323,0 0,-1.40137 -8.73291,0 0,1.40137 3.57178,0 0,11.0913 1.5979,0 z"
         style="font-size:17.5px"
         id="path4273"
         inkscape:connector-curvature="0" />
      <path
         d="m 284.71628,150.29886 -1.58936,0 0,7.96387 c -0.0342,2.22168 -0.88867,3.32397 -2.56347,3.32397 -1.75171,0 -2.62329,-1.10229 -2.62329,-3.30688 l 0,-7.96387 -1.58936,0 0,8.04931 c 0,3.07618 1.37573,4.61426 4.1272,4.61426 1.38427,0 2.44384,-0.39306 3.16162,-1.1792 0.71777,-0.78613 1.07666,-1.91406 1.07666,-3.40088 l 0,-8.10058 z"
         style="font-size:17.5px"
         id="path4275"
         inkscape:connector-curvature="0" />
      <path
         d="m 294.29514,150.31595 -2.49512,7.86987 c -0.35889,1.11084 -0.62378,2.08496 -0.79468,2.90527 -0.27344,-1.17919 -0.52124,-2.12768 -0.75195,-2.854 l -2.52075,-7.92114 -1.67481,0 4.16138,12.49267 1.5979,0 4.17846,-12.49267 -1.70043,0 z"
         style="font-size:17.5px"
         id="path4277"
         inkscape:connector-curvature="0" />
      <path
         d="m 300.78073,154.19534 -1.20483,4.40918 c -0.2649,0.92285 -0.46143,1.81153 -0.59815,2.66602 0,-0.22217 -0.0513,-0.90576 -0.14526,-2.05933 -0.10254,-1.14502 -0.21362,-2.22168 -0.3418,-3.22998 l -0.75195,-5.66528 -1.45264,0 1.73462,12.49267 1.62354,0 1.333,-4.93896 c 0.18799,-0.63232 0.36744,-1.43555 0.55542,-2.42676 0.14527,0.82031 0.33326,1.62354 0.56397,2.40967 l 1.43555,4.95605 1.62353,0 1.5979,-12.49267 -1.45264,0 -0.59814,5.66528 c -0.35889,3.22998 -0.54687,4.99024 -0.55542,5.28931 -0.0684,-0.49561 -0.27344,-1.37573 -0.61523,-2.62329 l -1.23902,-4.45191 -1.51245,0 z"
         style="font-size:17.5px"
         id="path4279"
         inkscape:connector-curvature="0" />
      <path
         d="m 316.79391,162.80862 -3.90502,-6.57959 3.60595,-5.91308 -1.63208,0 -2.854,4.77661 -2.82837,-4.77661 -1.70044,0 3.60596,5.96435 -3.87085,6.52832 1.61499,0 3.12744,-5.42602 3.03345,5.42602 1.80297,0 z"
         style="font-size:17.5px"
         id="path4281"
         inkscape:connector-curvature="0" />
      <path
         d="m 322.48483,156.63065 -3.21289,-6.3147 -1.73462,0 4.16138,7.71606 0,4.77661 1.5979,0 0,-4.86206 4.16138,-7.63061 -1.71753,0 -3.25562,6.3147 z"
         style="font-size:17.5px"
         id="path4283"
         inkscape:connector-curvature="0" />
      <path
         d="m 337.353,162.80862 0,-1.41845 -6.94702,0 6.77612,-9.83521 0,-1.23901 -8.38257,0 0,1.41846 6.59668,0 -6.77612,9.8352 0,1.23901 8.73291,0 z"
         style="font-size:17.5px"
         id="path4285"
         inkscape:connector-curvature="0" />
      <path
         d="m 70.631805,184.85452 c 1.298829,0 2.332764,-0.43579 3.118897,-1.30737 0.777588,-0.87158 1.170654,-2.05933 1.170654,-3.57178 0,-1.46118 -0.401611,-2.63183 -1.187744,-3.51196 -0.794678,-0.88867 -1.811523,-1.32446 -3.050537,-1.32446 -1.315918,0 -2.358398,0.42724 -3.127441,1.29882 -0.769043,0.86304 -1.153565,2.04224 -1.153565,3.5376 0,1.48682 0.393066,2.66602 1.187744,3.55469 0.794678,0.88867 1.811524,1.32446 3.041992,1.32446 z m 0.03418,-1.29028 c -1.777344,0 -2.657471,-1.19629 -2.657471,-3.58887 0,-2.36694 0.880127,-3.55469 2.640381,-3.55469 1.777344,0 2.666016,1.18775 2.666016,3.55469 0,2.39258 -0.888672,3.58887 -2.648926,3.58887 z"
         style="font-size:17.5px"
         id="path4287"
         inkscape:connector-curvature="0" />
      <path
         d="m 81.176239,184.85452 c 1.452637,0 2.572021,-0.55542 3.358154,-1.6748 0.786133,-1.11084 1.1792,-2.7002 1.1792,-4.75952 0,-2.05078 -0.393067,-3.64014 -1.170655,-4.75098 -0.777588,-1.11084 -1.896972,-1.6748 -3.349609,-1.6748 -3.041992,0 -4.562988,2.13623 -4.562988,6.40869 0,4.30664 1.512451,6.45141 4.545898,6.45141 z m 0,-1.39282 c -1.914062,0 -2.862549,-1.6748 -2.862549,-5.0415 0,-3.34961 0.957031,-5.02442 2.879639,-5.02442 0.957031,0 1.674805,0.41016 2.13623,1.22193 0.461426,0.81176 0.700684,2.07641 0.700684,3.80249 0,1.70898 -0.230713,2.98217 -0.692139,3.80249 -0.461426,0.82885 -1.179199,1.23901 -2.161865,1.23901 z"
         style="font-size:17.5px"
         id="path4289"
         inkscape:connector-curvature="0" />
      <path
         d="m 91.635223,184.85452 c 2.666016,0 4.007569,-2.14477 4.007569,-6.43432 0,-2.07642 -0.341797,-3.66577 -1.016846,-4.76807 -0.675049,-1.10229 -1.674805,-1.65771 -2.990723,-1.65771 -2.648925,0 -3.973388,2.14477 -3.973388,6.42578 0,2.08496 0.333252,3.68286 1.0083,4.78515 0.666504,1.1023 1.657715,1.64917 2.965088,1.64917 z m 0,-1.32446 c -0.828857,0 -1.435546,-0.39307 -1.820068,-1.19629 -0.384521,-0.79468 -0.57251,-2.10205 -0.57251,-3.91357 0,-1.80298 0.187989,-3.10181 0.57251,-3.89649 0.384522,-0.79468 0.991211,-1.19629 1.820068,-1.19629 0.837403,0 1.452637,0.40161 1.845704,1.20484 0.393066,0.80322 0.589599,2.0935 0.589599,3.88794 0,1.81152 -0.196533,3.11035 -0.589599,3.91357 -0.393067,0.80322 -1.008301,1.19629 -1.845704,1.19629 z"
         style="font-size:17.5px"
         id="path4291"
         inkscape:connector-curvature="0" />
      <path
         d="m 103.42722,178.06985 c 1.48681,-0.73486 2.23877,-1.7517 2.23877,-3.06762 0,-0.92285 -0.32471,-1.64917 -0.97413,-2.19605 -0.64941,-0.53833 -1.5039,-0.81176 -2.54638,-0.81176 -1.01685,0 -1.85425,0.27343 -2.520755,0.81176 -0.666504,0.53833 -0.999756,1.26465 -0.999756,2.17896 0,1.27319 0.675049,2.32422 2.008061,3.15307 -1.606449,0.77759 -2.409672,1.89698 -2.409672,3.35816 0,1.05957 0.350342,1.88843 1.033936,2.47803 0.692138,0.5896 1.649166,0.88012 2.879636,0.88012 1.1792,0 2.12769,-0.30761 2.84546,-0.93994 0.71777,-0.62378 1.07666,-1.45264 1.07666,-2.48657 0,-1.32446 -0.87158,-2.44385 -2.63183,-3.35816 z m -1.2732,-0.63232 c -0.76904,-0.35889 -1.29883,-0.70923 -1.58081,-1.06811 -0.28198,-0.35889 -0.42724,-0.79468 -0.42724,-1.30738 0,-0.57251 0.17944,-1.0083 0.53833,-1.30737 0.35888,-0.30762 0.8374,-0.45288 1.44409,-0.45288 0.62378,0 1.11938,0.14526 1.47827,0.45288 0.35889,0.29907 0.53833,0.73486 0.53833,1.30737 0,0.99976 -0.6665,1.79444 -1.99097,2.37549 z m -0.23071,1.30737 0.25635,0.11963 c 0.85449,0.4187 1.46972,0.82886 1.82861,1.22193 0.35889,0.39306 0.53833,0.84594 0.53833,1.35864 0,0.6665 -0.21362,1.18774 -0.64087,1.56372 -0.42724,0.37598 -1.02539,0.55542 -1.80298,0.55542 -1.57226,0 -2.358396,-0.68359 -2.358396,-2.05078 0,-1.16211 0.726316,-2.08496 2.178956,-2.76856 z"
         style="font-size:17.5px"
         id="path4293"
         inkscape:connector-curvature="0" />
      <path
         d="m 123.29416,171.439 c -0.61524,0 -0.91431,0.3247 -0.91431,0.97412 0,0.65796 0.29907,0.98266 0.91431,0.98266 0.23926,0 0.45288,-0.0769 0.63232,-0.23926 0.17945,-0.16235 0.27344,-0.41015 0.27344,-0.7434 0,-0.64942 -0.30762,-0.97412 -0.90576,-0.97412 z m -0.78613,5.09277 0,6.92993 -2.93946,0.1709 0,1.05102 7.50244,0 0,-1.05102 -3.00781,-0.1709 0,-8.1604 -3.85376,0 0,1.05103 2.29859,0.17944 z"
         style="font-size:17.5px"
         id="path4295"
         inkscape:connector-curvature="0" />
      <path
         d="m 136.93185,184.68362 0,-1.05102 -2.5122,-0.1709 0,-10.04883 2.5122,-0.1709 0,-1.05102 -6.63086,0 0,1.05102 2.52076,0.1709 0,10.04883 -2.52076,0.1709 0,1.05102 6.63086,0 z"
         style="font-size:17.5px"
         id="path4297"
         inkscape:connector-curvature="0" />
      <path
         d="m 143.41745,172.60965 0,10.85205 -2.93945,0.1709 0,1.05102 7.51098,0 0,-1.05102 -3.00781,-0.1709 0,-12.07397 -3.85376,0 0,1.04248 2.29004,0.17944 z"
         style="font-size:17.5px"
         id="path4299"
         inkscape:connector-curvature="0" />
      <path
         d="m 151.35568,184.68362 7.02393,0 0,-1.41845 -5.42603,0 0,-11.07422 -1.5979,0 0,12.49267 z"
         style="font-size:17.5px"
         id="path4301"
         inkscape:connector-curvature="0" />
      <path
         d="m 166.33493,184.68362 0,-12.49267 -1.28174,0 -3.2727,2.55493 0.82885,1.05103 1.25611,-1.03394 c 0.46142,-0.39307 0.81177,-0.71777 1.03393,-0.96558 -0.0513,1.36719 -0.0684,2.39258 -0.0684,3.08472 l 0,7.80151 1.50391,0 z"
         style="font-size:17.5px"
         id="path4303"
         inkscape:connector-curvature="0" />
      <path
         d="m 187.21017,184.82034 0,-2.82837 c 0,-1.1792 -0.6665,-1.87988 -1.99096,-2.11914 l 0,-0.10254 c 1.32446,-0.23071 1.99096,-0.93994 1.99096,-2.11914 l 0,-2.83691 c 0,-0.46143 0.15381,-0.79468 0.47852,-1.0083 0.31616,-0.21362 0.88867,-0.32471 1.70898,-0.3418 l 0,-1.27319 c -2.49511,0.0342 -3.74267,0.87158 -3.74267,2.50366 l 0,2.84546 c 0,1.07666 -0.96558,1.61499 -2.88818,1.61499 l 0,1.32446 c 1.9226,0 2.88818,0.53833 2.88818,1.61499 l 0,2.85401 c 0,1.64062 1.24756,2.46948 3.74267,2.50366 l 0,-1.28174 c -0.82031,-0.009 -1.39282,-0.11963 -1.70898,-0.33325 -0.32471,-0.21362 -0.47852,-0.55542 -0.47852,-1.01685 z"
         style="font-size:17.5px"
         id="path4305"
         inkscape:connector-curvature="0" />
      <path
         d="m 195.46457,181.99197 0,2.82837 c 0,0.46143 -0.16235,0.80323 -0.48706,1.01685 -0.32471,0.22217 -0.88867,0.33325 -1.70044,0.33325 l 0,1.28174 c 2.49512,-0.0342 3.75122,-0.86304 3.75122,-2.50366 l 0,-2.85401 c 0,-1.07666 0.95703,-1.61499 2.88818,-1.61499 l 0,-1.32446 c -1.93115,0 -2.88818,-0.53833 -2.88818,-1.61499 l 0,-2.84546 c 0,-1.63208 -1.2561,-2.46948 -3.75122,-2.50366 l 0,1.27319 c 0.81177,0.009 1.37573,0.11963 1.70044,0.33325 0.32471,0.22217 0.48706,0.55542 0.48706,1.01685 l 0,2.83691 c 0,1.1792 0.6665,1.88843 1.99951,2.11914 l 0,0.10254 c -1.33301,0.23926 -1.99951,0.93994 -1.99951,2.11914 z"
         style="font-size:17.5px"
         id="path4307"
         inkscape:connector-curvature="0" />
      <path
         d="m 220.35593,187.45218 0,-1.28174 -2.95655,0 0,-12.7063 2.95655,0 0,-1.27319 -4.51172,0 0,15.26123 4.51172,0 z"
         style="font-size:17.5px"
         id="path4309"
         inkscape:connector-curvature="0" />
      <path
         d="m 225.28635,186.17044 0,1.28174 4.51172,0 0,-15.26123 -4.51172,0 0,1.27319 2.95654,0 0,12.7063 -2.95654,0 z"
         style="font-size:17.5px"
         id="path4311"
         inkscape:connector-curvature="0" />
      <path
         d="m 253.42477,175.3013 -3.22998,0 c -0.36743,-0.11108 -0.79467,-0.1709 -1.28173,-0.1709 -1.12793,0 -1.99097,0.28198 -2.59766,0.84595 -0.60669,0.56396 -0.90576,1.35864 -0.90576,2.39258 0,0.58105 0.14526,1.11084 0.43579,1.5979 0.29053,0.48706 0.68359,0.8374 1.19629,1.04248 -0.7605,0.46142 -1.13648,1.0083 -1.13648,1.64062 0,0.61524 0.27344,1.05103 0.82032,1.31592 -1.36719,0.33325 -2.05079,1.1023 -2.05079,2.30713 0,0.82886 0.31617,1.46973 0.96558,1.93115 0.64941,0.46143 1.58936,0.6836 2.83691,0.6836 3.2129,0 4.82789,-1.06812 4.82789,-3.22144 0,-0.81177 -0.2649,-1.43555 -0.78614,-1.87134 -0.52978,-0.44433 -1.28174,-0.65796 -2.27295,-0.65796 l -1.5979,0 c -0.92285,0 -1.37573,-0.23925 -1.37573,-0.71777 0,-0.44434 0.28198,-0.82031 0.85449,-1.13647 0.1709,0.0342 0.4187,0.0513 0.73487,0.0513 1.07666,0 1.9226,-0.27343 2.52929,-0.82031 0.60669,-0.54687 0.91431,-1.27319 0.91431,-2.1875 0,-0.73486 -0.18799,-1.34155 -0.55542,-1.82007 l 1.6748,-0.23071 0,-0.97412 z m -4.54589,4.9646 c -1.29883,0 -1.9397,-0.64941 -1.9397,-1.9397 0,-1.38427 0.64087,-2.06787 1.92261,-2.06787 1.28173,0 1.9226,0.67505 1.9226,2.04224 0,1.30737 -0.64087,1.96533 -1.90551,1.96533 z m 0.8374,4.27246 c 0.8374,0 1.40137,0.0854 1.69189,0.25635 0.28199,0.1709 0.42725,0.51269 0.42725,1.01684 0,1.26465 -1.12793,1.90552 -3.37525,1.90552 -1.54663,0 -2.31567,-0.4956 -2.31567,-1.48681 0,-1.12793 0.64941,-1.6919 1.96533,-1.6919 l 1.60645,0 z"
         style="font-size:17.5px"
         id="path4313"
         inkscape:connector-curvature="0" />
      <path
         d="m 256.55222,184.70071 c 0.37597,0.10254 0.87158,0.15381 1.46972,0.15381 3.64014,0 5.46021,-2.44384 5.46021,-7.33154 0,-1.72607 -0.36743,-3.07617 -1.1023,-4.05029 -0.73486,-0.97412 -1.72607,-1.46118 -2.98218,-1.46118 -1.15356,0 -2.07641,0.37597 -2.76001,1.12792 -0.68359,0.75196 -1.02539,1.77735 -1.02539,3.07618 0,1.18774 0.30762,2.11914 0.93995,2.79419 0.63232,0.6665 1.49536,1.0083 2.6062,1.0083 1.20483,0 2.08496,-0.48706 2.63183,-1.45264 l 0.10254,0 c -0.0598,1.74316 -0.41015,3.01636 -1.05102,3.81958 -0.64087,0.80322 -1.5979,1.20483 -2.8711,1.20483 -0.56396,0 -1.04248,-0.0769 -1.41845,-0.21362 l 0,1.32446 z m 0.56396,-8.47656 c 0,-0.93994 0.19653,-1.64917 0.60669,-2.14477 0.40161,-0.49561 0.96558,-0.74341 1.69189,-0.74341 0.7605,0 1.36719,0.31616 1.82007,0.94848 0.46143,0.63233 0.6836,1.37574 0.6836,2.23877 0,0.58106 -0.23926,1.11084 -0.73487,1.57227 -0.48706,0.46143 -1.09375,0.70068 -1.82007,0.70068 -0.71777,0 -1.27319,-0.22216 -1.66625,-0.6665 -0.39307,-0.44434 -0.58106,-1.08521 -0.58106,-1.90552 z"
         style="font-size:17.5px"
         id="path4315"
         inkscape:connector-curvature="0" />
      <path
         d="m 272.38596,176.56595 c -0.65796,-0.95703 -1.57227,-1.43555 -2.75147,-1.43555 -1.14502,0 -2.04224,0.43579 -2.69165,1.29028 -0.65796,0.8545 -0.98267,2.05079 -0.98267,3.58887 0,1.52954 0.32471,2.71729 0.97413,3.57178 0.64941,0.85449 1.55517,1.28174 2.70019,1.28174 1.18775,0 2.10205,-0.47852 2.74292,-1.427 l 0.10254,0 c -0.0684,0.73486 -0.10254,1.21337 -0.10254,1.45263 l 0,4.00757 1.55518,0 0,-13.58643 -1.25611,0 -0.23071,1.26465 -0.0598,-0.009 z m -0.009,3.80249 c -0.0171,1.12793 -0.22217,1.9397 -0.59814,2.44385 -0.37598,0.50415 -0.99976,0.76049 -1.8628,0.76049 -1.56372,0 -2.34131,-1.17919 -2.34131,-3.53759 0,-2.40967 0.76905,-3.60596 2.32422,-3.60596 0.86304,0 1.49536,0.27344 1.88843,0.82031 0.39307,0.54688 0.5896,1.46973 0.5896,2.76001 l 0,0.35889 z"
         style="font-size:17.5px"
         id="path4317"
         inkscape:connector-curvature="0" />
      <path
         d="m 284.88718,182.96609 c -1.12793,0.33326 -2.05933,0.49561 -2.79419,0.49561 -1.31592,0 -2.31568,-0.42725 -2.99927,-1.28174 -0.68359,-0.85449 -1.02539,-2.10205 -1.02539,-3.73413 0,-1.54663 0.35889,-2.76855 1.09375,-3.67432 0.72632,-0.90576 1.70044,-1.35864 2.92236,-1.35864 0.86304,0 1.73462,0.22217 2.61475,0.66651 l 0.6665,-1.33301 c -0.93139,-0.48706 -2.02514,-0.73486 -3.28125,-0.73486 -1.76025,0 -3.15307,0.58105 -4.17846,1.72607 -1.01685,1.15356 -1.52955,2.71728 -1.52955,4.69116 0,2.05078 0.46998,3.64014 1.40137,4.75952 0.93994,1.11084 2.2815,1.67481 4.04175,1.67481 1.21338,0 2.23022,-0.1709 3.05908,-0.50415 l 0.009,-1.39283 z"
         style="font-size:17.5px"
         id="path4319"
         inkscape:connector-curvature="0" />
      <path
         d="m 291.51804,178.08694 0,1.40137 2.02514,0 0,3.72559 c -0.59814,0.1709 -1.1792,0.2478 -1.72607,0.2478 -2.24732,0 -3.3667,-1.6748 -3.3667,-5.02441 0,-1.57227 0.29907,-2.80274 0.91431,-3.69141 0.60669,-0.88867 1.46118,-1.33301 2.55493,-1.33301 0.7605,0 1.55517,0.23926 2.38403,0.71778 l 0.61523,-1.38428 c -0.87158,-0.48706 -1.86279,-0.73486 -2.95654,-0.73486 -1.61499,0 -2.88818,0.5725 -3.81103,1.70898 -0.92285,1.13647 -1.38428,2.70019 -1.38428,4.69971 0,2.0166 0.42725,3.59741 1.26465,4.73388 0.8374,1.13648 2.00805,1.70044 3.49487,1.70044 1.28174,0 2.47803,-0.21362 3.58887,-0.64087 l 0,-6.12671 -3.59741,0 z"
         style="font-size:17.5px"
         id="path4321"
         inkscape:connector-curvature="0" />
      <path
         d="m 303.63474,184.35037 c 1.62353,-0.95703 2.4353,-2.93091 2.4353,-5.93017 0,-2.05078 -0.39307,-3.64014 -1.17066,-4.75098 -0.77758,-1.11084 -1.89697,-1.6748 -3.34961,-1.6748 -3.04199,0 -4.56298,2.13623 -4.56298,6.40869 0,4.30664 1.51245,6.45141 4.54589,6.45141 0.22217,0 0.44434,-0.0171 0.64942,-0.0513 0.52124,1.30738 1.45264,2.44385 2.79419,3.41797 l 1.03393,-1.21338 c -1.10229,-0.74341 -1.89697,-1.63208 -2.37548,-2.65747 z m -2.1106,-0.88867 c -1.90552,0 -2.86255,-1.6748 -2.86255,-5.0415 0,-3.34961 0.96558,-5.02442 2.87964,-5.02442 0.96558,0 1.68335,0.41016 2.14477,1.22193 0.46143,0.81176 0.69214,2.07641 0.69214,3.80249 0,1.70898 -0.22216,2.98217 -0.68359,3.80249 -0.46143,0.82885 -1.1792,1.23901 -2.17041,1.23901 z"
         style="font-size:17.5px"
         id="path4323"
         inkscape:connector-curvature="0" />
      <path
         d="m 318.55417,179.6763 c 0.67505,-0.68359 1.32446,-1.03394 1.9397,-1.03394 0.39306,0 0.96557,0.16236 1.71753,0.47852 0.8374,0.35889 1.53808,0.53833 2.11059,0.53833 0.84595,0 1.55518,-0.30762 2.11914,-0.92285 l 0,-1.38428 c -0.68359,0.69214 -1.32446,1.03394 -1.9397,1.03394 -0.41015,0 -0.98266,-0.15381 -1.71752,-0.47852 -0.84595,-0.35889 -1.55518,-0.53833 -2.12769,-0.53833 -0.8374,0 -1.54663,0.30762 -2.1106,0.92285 l 0.009,1.38428 z"
         style="font-size:17.5px"
         id="path4325"
         inkscape:connector-curvature="0" />
      <path
         d="m 330.18381,180.71024 5.6311,0 0,-1.43555 -5.6311,0 0,1.43555 z"
         style="font-size:17.5px"
         id="path4327"
         inkscape:connector-curvature="0" />
      <path
         d="m 342.84738,179.15506 0,3.28979 1.27319,0 0,-3.28979 3.30689,0 0,-1.28174 -3.30689,0 0,-3.32397 -1.27319,0 0,3.32397 -3.30688,0 0,1.28174 3.30688,0 z"
         style="font-size:17.5px"
         id="path4329"
         inkscape:connector-curvature="0" />
      <path
         d="m 350.03366,177.40335 7.88696,0 0,-1.27319 -7.88696,0 0,1.27319 z m 0,3.50342 7.88696,0 0,-1.28174 -7.88696,0 0,1.28174 z"
         style="font-size:17.5px"
         id="path4331"
         inkscape:connector-curvature="0" />
      <path
         d="m 360.52682,181.42801 0,1.36719 7.88697,-3.85376 0,-0.87159 -7.88697,-3.85376 0,1.36719 6.10108,2.92237 -6.10108,2.92236 z"
         style="font-size:17.5px"
         id="path4333"
         inkscape:connector-curvature="0" />
    </g>
  </g>
</svg>
