<?xml version="1.0" encoding="UTF-8" standalone="no"?>
<svg
   version="1.1"
   id="svg2"
   viewBox="0 0 276.47706 106.89453"
   height="30.168011mm"
   width="78.027969mm"
   sodipodi:docname="EnvyCodeR Nerd Font.svg"
   xmlns:inkscape="http://www.inkscape.org/namespaces/inkscape"
   xmlns:sodipodi="http://sodipodi.sourceforge.net/DTD/sodipodi-0.dtd"
   xmlns="http://www.w3.org/2000/svg"
   xmlns:svg="http://www.w3.org/2000/svg"
   xmlns:rdf="http://www.w3.org/1999/02/22-rdf-syntax-ns#"
   xmlns:cc="http://creativecommons.org/ns#"
   xmlns:dc="http://purl.org/dc/elements/1.1/">
  <sodipodi:namedview
     id="namedview12"
     pagecolor="#ffffff"
     bordercolor="#666666"
     borderopacity="1.0"
     inkscape:showpageshadow="2"
     inkscape:pageopacity="0.0"
     inkscape:pagecheckerboard="0"
     inkscape:deskcolor="#d1d1d1"
     inkscape:document-units="mm" />
  <defs
     id="defs4" />
  <metadata
     id="metadata7">
    <rdf:RDF>
      <cc:Work
         rdf:about="">
        <dc:format>image/svg+xml</dc:format>
        <dc:type
           rdf:resource="http://purl.org/dc/dcmitype/StillImage" />
        <dc:title />
      </cc:Work>
    </rdf:RDF>
  </metadata>
  <g
     id="layer1"
     transform="translate(-64.978725,-81.839394)">
    <g
       aria-label="EnvyCodeR Nerd Font"
       id="text4136"
       style="font-size:27.5px;font-family:'EnvyCodeR Nerd Font';letter-spacing:0px;word-spacing:0px;fill:#ffffff">
      <path
         d="M 64.978725,81.839394 H 75.586636 V 83.960976 H 67.100307 V 90.325722 H 73.465054 V 92.447304 H 67.100307 V 98.81205 H 75.586636 V 100.93363 H 64.978725 Z"
         id="path14" />
      <path
         d="M 85.053188,88.20414 Q 84.408657,88.20414 83.831264,88.445839 83.2673,88.687538 82.837612,89.103798 82.407925,89.50663 82.152798,90.070595 81.897671,90.621132 81.870815,91.252235 V 100.93363 H 79.749233 V 86.082558 H 81.870815 V 87.156776 Q 82.542202,86.646523 83.347866,86.36454 84.15353,86.082558 85.053188,86.082558 86.154263,86.082558 87.121059,86.498817 88.087856,86.915077 88.799526,87.640175 89.524624,88.351845 89.940884,89.318642 90.357143,90.285439 90.357143,91.386513 V 100.93363 H 88.235561 V 91.386513 Q 88.235561,90.728554 87.980434,90.151161 87.738735,89.573769 87.29562,89.144081 86.865932,88.700966 86.28854,88.459267 85.711147,88.20414 85.053188,88.20414 Z"
         id="path16" />
      <path
         d="M 105.12765,86.082558 100.88449,100.93363 H 98.762905 L 94.519741,86.082558 H 96.641323 L 99.823696,97.751259 103.00607,86.082558 Z"
         id="path18" />
      <path
         d="M 111.41183,95.629677 Q 111.41183,96.287636 111.65353,96.865028 111.90866,97.442421 112.33834,97.885536 112.78146,98.315224 113.35885,98.570351 113.93624,98.81205 114.5942,98.81205 115.23874,98.81205 115.8027,98.583778 116.36666,98.342079 116.79635,97.925819 117.22604,97.50956 117.48117,96.959023 117.74972,96.408485 117.77658,95.629677 V 86.082558 H 119.89816 V 101.99442 Q 119.89816,103.0955 119.4819,104.06229 119.06564,105.02909 118.34054,105.74076 117.62887,106.46586 116.66208,106.88212 115.69528,107.29838 114.5942,107.29838 H 111.41183 V 105.1768 H 114.5942 Q 115.25216,105.1768 115.82956,104.92167 116.40695,104.67997 116.83664,104.23685 117.27975,103.80717 117.52145,103.22977 117.77658,102.65238 117.77658,101.99442 V 99.872841 Q 117.10519,100.36967 116.29953,100.65165 115.49386,100.93363 114.5942,100.93363 113.49313,100.93363 112.52633,100.51737 111.55954,100.10111 110.83444,99.389442 110.12277,98.664345 109.70651,97.697548 109.29025,96.730751 109.29025,95.629677 V 86.082558 H 111.41183 Z"
         id="path20" />
      <path
         d="M 129.40499,83.960976 Q 128.72018,83.960976 128.12936,84.216103 127.53854,84.457802 127.10885,84.900917 126.67916,85.330605 126.42404,85.907997 126.18234,86.48539 126.18234,87.143349 V 95.629677 Q 126.18234,96.287636 126.42404,96.865028 126.67916,97.442421 127.10885,97.885536 127.53854,98.315224 128.12936,98.570351 128.72018,98.81205 129.40499,98.81205 129.96896,98.81205 130.46579,98.664345 130.96261,98.503212 131.36544,98.22123 131.7817,97.939247 132.07711,97.549843 132.38595,97.160439 132.54708,96.690468 H 134.66867 Q 134.48068,97.603554 134.01071,98.382362 133.54074,99.161171 132.84249,99.725136 132.15768,100.2891 131.28488,100.61137 130.41208,100.93363 129.40499,100.93363 128.27707,100.93363 127.29684,100.51737 126.33004,100.10111 125.60495,99.389442 124.87985,98.664345 124.46359,97.697548 124.06076,96.730751 124.06076,95.629677 V 87.143349 Q 124.06076,86.042274 124.46359,85.075478 124.87985,84.108681 125.60495,83.397011 126.33004,82.671913 127.29684,82.255653 128.27707,81.839394 129.40499,81.839394 130.41208,81.839394 131.28488,82.161659 132.17111,82.483925 132.85592,83.061317 133.54074,83.625282 134.01071,84.404091 134.48068,85.182899 134.66867,86.082558 H 132.54708 Q 132.38595,85.626015 132.07711,85.23661 131.7817,84.847206 131.37887,84.565224 130.97604,84.283241 130.46579,84.122108 129.96896,83.960976 129.40499,83.960976 Z"
         id="path22" />
      <path
         d="M 138.83126,91.386513 Q 138.83126,90.285439 139.24752,89.318642 139.66378,88.351845 140.37545,87.640175 141.10055,86.915077 142.06735,86.498817 143.03415,86.082558 144.13522,86.082558 145.23629,86.082558 146.20309,86.498817 147.16989,86.915077 147.88156,87.640175 148.60666,88.351845 149.02291,89.318642 149.43917,90.285439 149.43917,91.386513 V 95.629677 Q 149.43917,96.730751 149.02291,97.697548 148.60666,98.664345 147.88156,99.389442 147.16989,100.10111 146.20309,100.51737 145.23629,100.93363 144.13522,100.93363 143.03415,100.93363 142.06735,100.51737 141.10055,100.10111 140.37545,99.389442 139.66378,98.664345 139.24752,97.697548 138.83126,96.730751 138.83126,95.629677 Z M 140.95285,95.629677 Q 140.95285,96.287636 141.19455,96.865028 141.44967,97.442421 141.87936,97.885536 142.32248,98.315224 142.89987,98.570351 143.47726,98.81205 144.13522,98.81205 144.79318,98.81205 145.37057,98.570351 145.94796,98.315224 146.37765,97.885536 146.82077,97.442421 147.06247,96.865028 147.31759,96.287636 147.31759,95.629677 V 91.386513 Q 147.31759,90.728554 147.06247,90.151161 146.82077,89.573769 146.37765,89.144081 145.94796,88.700966 145.37057,88.459267 144.79318,88.20414 144.13522,88.20414 143.47726,88.20414 142.89987,88.459267 142.32248,88.700966 141.87936,89.144081 141.44967,89.573769 141.19455,90.151161 140.95285,90.728554 140.95285,91.386513 Z"
         id="path24" />
      <path
         d="M 164.20968,100.93363 H 162.0881 V 99.886269 Q 161.57785,100.26225 160.9736,100.51737 160.0068,100.93363 158.90573,100.93363 157.80465,100.93363 156.83786,100.51737 155.87106,100.10111 155.14596,99.389442 154.43429,98.664345 154.01803,97.697548 153.60177,96.730751 153.60177,95.629677 V 91.386513 Q 153.60177,90.285439 154.01803,89.318642 154.43429,88.351845 155.14596,87.640175 155.87106,86.915077 156.83786,86.498817 157.80465,86.082558 158.90573,86.082558 160.0068,86.082558 160.9736,86.498817 161.57785,86.767372 162.0881,87.143349 V 81.839394 H 164.20968 Z M 161.8464,90.151161 Q 161.59127,89.573769 161.14816,89.144081 160.71847,88.700966 160.14108,88.459267 159.56369,88.20414 158.90573,88.20414 158.24777,88.20414 157.67038,88.459267 157.09298,88.700966 156.64987,89.144081 156.22018,89.573769 155.96505,90.151161 155.72335,90.728554 155.72335,91.386513 V 95.629677 Q 155.72335,96.287636 155.96505,96.865028 156.22018,97.442421 156.64987,97.885536 157.09298,98.315224 157.67038,98.570351 158.24777,98.81205 158.90573,98.81205 159.56369,98.81205 160.14108,98.570351 160.71847,98.315224 161.14816,97.885536 161.59127,97.442421 161.83297,96.865028 162.0881,96.287636 162.0881,95.629677 V 91.265663 Z"
         id="path26" />
      <path
         d="M 170.49386,95.629677 Q 170.49386,96.287636 170.73556,96.865028 170.99069,97.442421 171.42038,97.885536 171.86349,98.315224 172.44088,98.570351 173.01828,98.81205 173.67624,98.81205 H 178.98019 V 100.93363 H 173.67624 Q 172.57516,100.93363 171.60836,100.51737 170.64157,100.10111 169.91647,99.389442 169.2048,98.664345 168.78854,97.697548 168.37228,96.730751 168.37228,95.629677 V 91.386513 Q 168.37228,90.285439 168.78854,89.318642 169.2048,88.351845 169.91647,87.640175 170.64157,86.915077 171.60836,86.498817 172.57516,86.082558 173.67624,86.082558 174.77731,86.082558 175.74411,86.498817 176.7109,86.915077 177.42257,87.640175 178.14767,88.351845 178.56393,89.318642 178.98019,90.285439 178.98019,91.386513 V 94.568886 H 170.49386 Z M 170.49386,92.447304 H 176.85861 V 91.386513 Q 176.85861,90.728554 176.60348,90.151161 176.36178,89.573769 175.91867,89.144081 175.48898,88.700966 174.91159,88.459267 174.33419,88.20414 173.67624,88.20414 173.01828,88.20414 172.44088,88.459267 171.86349,88.700966 171.42038,89.144081 170.99069,89.573769 170.73556,90.151161 170.49386,90.728554 170.49386,91.386513 Z"
         id="path28" />
      <path
         d="M 189.65524,92.313026 Q 193.84469,100.89335 193.84469,100.93363 H 191.41427 Q 187.27853,92.487587 187.27853,92.447304 H 185.26437 V 100.93363 H 183.14279 V 81.839394 H 188.44674 Q 189.54782,81.839394 190.51461,82.255653 191.48141,82.671913 192.19308,83.397011 192.91818,84.108681 193.33444,85.075478 193.7507,86.042274 193.7507,87.143349 193.7507,88.08329 193.44186,88.929237 193.13302,89.775185 192.58249,90.459999 192.03195,91.144814 191.27999,91.628212 190.52804,92.11161 189.65524,92.313026 Z M 188.44674,90.325722 Q 189.1047,90.325722 189.68209,90.084023 190.25949,89.828896 190.68917,89.399208 191.13229,88.956093 191.37399,88.3787 191.62912,87.801308 191.62912,87.143349 191.62912,86.48539 191.37399,85.907997 191.13229,85.330605 190.68917,84.900917 190.25949,84.457802 189.68209,84.216103 189.1047,83.960976 188.44674,83.960976 H 185.26437 V 90.325722 Z"
         id="path30" />
      <path
         d="M 212.6838,100.93363 V 81.839394 H 214.80539 L 221.17013,95.96537 V 81.839394 H 223.29171 V 100.93363 H 221.17013 L 214.80539,86.807655 V 100.93363 Z"
         id="path32" />
      <path
         d="M 229.57589,95.629677 Q 229.57589,96.287636 229.81759,96.865028 230.07272,97.442421 230.50241,97.885536 230.94552,98.315224 231.52291,98.570351 232.10031,98.81205 232.75827,98.81205 H 238.06222 V 100.93363 H 232.75827 Q 231.65719,100.93363 230.6904,100.51737 229.7236,100.10111 228.9985,99.389442 228.28683,98.664345 227.87057,97.697548 227.45431,96.730751 227.45431,95.629677 V 91.386513 Q 227.45431,90.285439 227.87057,89.318642 228.28683,88.351845 228.9985,87.640175 229.7236,86.915077 230.6904,86.498817 231.65719,86.082558 232.75827,86.082558 233.85934,86.082558 234.82614,86.498817 235.79293,86.915077 236.5046,87.640175 237.2297,88.351845 237.64596,89.318642 238.06222,90.285439 238.06222,91.386513 V 94.568886 H 229.57589 Z M 229.57589,92.447304 H 235.94064 V 91.386513 Q 235.94064,90.728554 235.68551,90.151161 235.44381,89.573769 235.0007,89.144081 234.57101,88.700966 233.99362,88.459267 233.41623,88.20414 232.75827,88.20414 232.10031,88.20414 231.52291,88.459267 230.94552,88.700966 230.50241,89.144081 230.07272,89.573769 229.81759,90.151161 229.57589,90.728554 229.57589,91.386513 Z"
         id="path34" />
      <path
         d="M 242.22482,100.93363 V 86.082558 H 244.3464 V 88.230995 Q 244.57467,87.814735 245.09835,87.438759 245.62204,87.049355 246.23971,86.753944 246.87082,86.445107 247.50192,86.270546 248.14645,86.082558 248.58957,86.082558 249.55636,86.082558 250.24118,86.404823 250.93942,86.727089 251.42282,87.304482 251.91964,87.868446 252.22848,88.647255 252.53732,89.426064 252.72531,90.325722 H 250.52316 Q 250.36203,89.869179 250.22775,89.479774 250.1069,89.09037 249.90548,88.808388 249.71749,88.526405 249.40866,88.365273 249.11325,88.20414 248.58957,88.20414 248.15988,88.20414 247.67648,88.3787 247.19308,88.539833 246.72311,88.848671 246.25314,89.144081 245.82345,89.560341 245.39376,89.963173 245.05807,90.433144 244.73581,90.903114 244.53439,91.426796 244.3464,91.93705 244.3464,92.460732 V 100.93363 Z"
         id="path36" />
      <path
         d="M 267.60324,100.93363 H 265.48166 V 99.886269 Q 264.9714,100.26225 264.36715,100.51737 263.40036,100.93363 262.29928,100.93363 261.19821,100.93363 260.23141,100.51737 259.26461,100.10111 258.53952,99.389442 257.82785,98.664345 257.41159,97.697548 256.99533,96.730751 256.99533,95.629677 V 91.386513 Q 256.99533,90.285439 257.41159,89.318642 257.82785,88.351845 258.53952,87.640175 259.26461,86.915077 260.23141,86.498817 261.19821,86.082558 262.29928,86.082558 263.40036,86.082558 264.36715,86.498817 264.9714,86.767372 265.48166,87.143349 V 81.839394 H 267.60324 Z M 265.23996,90.151161 Q 264.98483,89.573769 264.54171,89.144081 264.11203,88.700966 263.53463,88.459267 262.95724,88.20414 262.29928,88.20414 261.64132,88.20414 261.06393,88.459267 260.48654,88.700966 260.04342,89.144081 259.61374,89.573769 259.35861,90.151161 259.11691,90.728554 259.11691,91.386513 V 95.629677 Q 259.11691,96.287636 259.35861,96.865028 259.61374,97.442421 260.04342,97.885536 260.48654,98.315224 261.06393,98.570351 261.64132,98.81205 262.29928,98.81205 262.95724,98.81205 263.53463,98.570351 264.11203,98.315224 264.54171,97.885536 264.98483,97.442421 265.22653,96.865028 265.48166,96.287636 265.48166,95.629677 V 91.265663 Z"
         id="path38" />
      <path
         d="M 286.53634,81.839394 H 297.14425 V 83.960976 H 288.65792 V 90.325722 H 295.02267 V 92.447304 H 288.65792 V 100.93363 H 286.53634 Z"
         id="path40" />
      <path
         d="M 301.30685,91.386513 Q 301.30685,90.285439 301.72311,89.318642 302.13937,88.351845 302.85104,87.640175 303.57614,86.915077 304.54293,86.498817 305.50973,86.082558 306.61081,86.082558 307.71188,86.082558 308.67868,86.498817 309.64547,86.915077 310.35714,87.640175 311.08224,88.351845 311.4985,89.318642 311.91476,90.285439 311.91476,91.386513 V 95.629677 Q 311.91476,96.730751 311.4985,97.697548 311.08224,98.664345 310.35714,99.389442 309.64547,100.10111 308.67868,100.51737 307.71188,100.93363 306.61081,100.93363 305.50973,100.93363 304.54293,100.51737 303.57614,100.10111 302.85104,99.389442 302.13937,98.664345 301.72311,97.697548 301.30685,96.730751 301.30685,95.629677 Z M 303.42843,95.629677 Q 303.42843,96.287636 303.67013,96.865028 303.92526,97.442421 304.35495,97.885536 304.79806,98.315224 305.37545,98.570351 305.95285,98.81205 306.61081,98.81205 307.26876,98.81205 307.84616,98.570351 308.42355,98.315224 308.85324,97.885536 309.29635,97.442421 309.53805,96.865028 309.79318,96.287636 309.79318,95.629677 V 91.386513 Q 309.79318,90.728554 309.53805,90.151161 309.29635,89.573769 308.85324,89.144081 308.42355,88.700966 307.84616,88.459267 307.26876,88.20414 306.61081,88.20414 305.95285,88.20414 305.37545,88.459267 304.79806,88.700966 304.35495,89.144081 303.92526,89.573769 303.67013,90.151161 303.42843,90.728554 303.42843,91.386513 Z"
         id="path42" />
      <path
         d="M 321.38131,88.20414 Q 320.73678,88.20414 320.15939,88.445839 319.59542,88.687538 319.16574,89.103798 318.73605,89.50663 318.48092,90.070595 318.2258,90.621132 318.19894,91.252235 V 100.93363 H 316.07736 V 86.082558 H 318.19894 V 87.156776 Q 318.87033,86.646523 319.67599,86.36454 320.48166,86.082558 321.38131,86.082558 322.48239,86.082558 323.44918,86.498817 324.41598,86.915077 325.12765,87.640175 325.85275,88.351845 326.26901,89.318642 326.68527,90.285439 326.68527,91.386513 V 100.93363 H 324.56369 V 91.386513 Q 324.56369,90.728554 324.30856,90.151161 324.06686,89.573769 323.62374,89.144081 323.19406,88.700966 322.61666,88.459267 322.03927,88.20414 321.38131,88.20414 Z"
         id="path44" />
      <path
         d="M 330.84787,86.082558 H 332.96945 V 81.839394 H 335.09103 V 86.082558 H 339.33419 V 88.20414 H 335.09103 V 95.629677 Q 335.09103,96.287636 335.33273,96.865028 335.58786,97.442421 336.01754,97.885536 336.46066,98.315224 337.03805,98.570351 337.61544,98.81205 338.2734,98.81205 H 341.45578 V 100.93363 H 338.2734 Q 337.17233,100.93363 336.20553,100.51737 335.23874,100.10111 334.51364,99.389442 333.80197,98.664345 333.38571,97.697548 332.96945,96.730751 332.96945,95.629677 V 88.20414 H 330.84787 Z"
         id="path46" />
    </g>
    <g
       aria-label="abcdefghijklmnopqrstuvwxyzABCDEFGHIJKLMNOPQRSTUVWXYZ oO08 iIlL1 {} [] g9qCGQ ~-+=&gt;"
       id="text4140"
       style="font-size:17.5px;font-family:'EnvyCodeR Nerd Font';letter-spacing:0px;word-spacing:0px;fill:#ffffff">
      <path
         d="M 69.469696,140.93362 Q 68.914276,140.93362 68.418671,140.72 67.93161,140.50638 67.564178,140.13895 67.196747,139.77151 66.983124,139.28445 66.769501,138.78885 66.769501,138.23343 66.769501,137.67801 66.983124,137.19095 67.196747,136.69534 67.564178,136.32791 67.93161,135.96048 68.418671,135.74686 68.914276,135.53323 69.469696,135.53323 H 72.169891 V 134.85818 Q 72.169891,134.43948 72.007538,134.07205 71.853729,133.70462 71.571747,133.43118 71.298309,133.1492 70.930878,132.99539 70.563446,132.83304 70.144745,132.83304 H 68.119598 V 131.48294 H 70.144745 Q 70.845428,131.48294 71.460663,131.74783 72.075897,132.01273 72.528778,132.47415 72.990204,132.92703 73.255096,133.54227 73.519989,134.1575 73.519989,134.85818 V 140.93362 Z M 69.469696,136.88333 Q 69.187714,136.88333 68.939911,136.99442 68.700653,137.09695 68.512665,137.28494 68.333221,137.46439 68.222137,137.71219 68.119598,137.95145 68.119598,138.23343 68.119598,138.51541 68.222137,138.76321 68.333221,139.00247 68.512665,139.19046 68.700653,139.3699 68.939911,139.48099 69.187714,139.58353 69.469696,139.58353 H 72.169891 V 136.88333 Z"
         id="path49" />
      <path
         d="M 76.168915,128.78275 H 77.519012 V 132.15799 Q 77.843719,131.91873 78.228241,131.74783 78.843475,131.48294 79.544159,131.48294 80.244843,131.48294 80.860077,131.74783 81.475311,132.01273 81.928192,132.47415 82.389618,132.92703 82.65451,133.54227 82.919403,134.1575 82.919403,134.85818 V 137.55838 Q 82.919403,138.25906 82.65451,138.8743 82.389618,139.48953 81.928192,139.95096 81.475311,140.40384 80.860077,140.66873 80.244843,140.93362 79.544159,140.93362 78.843475,140.93362 78.228241,140.66873 77.843719,140.50638 77.519012,140.26712 V 140.93362 H 76.168915 Z M 77.519012,134.78128 V 137.55838 Q 77.519012,137.97708 77.672821,138.34451 77.835175,138.71194 78.108612,138.99393 78.390594,139.26736 78.758026,139.42972 79.125458,139.58353 79.544159,139.58353 79.96286,139.58353 80.330292,139.42972 80.697723,139.26736 80.971161,138.99393 81.253143,138.71194 81.406952,138.34451 81.569305,137.97708 81.569305,137.55838 V 134.85818 Q 81.569305,134.43948 81.406952,134.07205 81.253143,133.70462 80.971161,133.43118 80.697723,133.1492 80.330292,132.99539 79.96286,132.83304 79.544159,132.83304 79.125458,132.83304 78.758026,132.99539 78.390594,133.1492 78.108612,133.43118 77.835175,133.70462 77.672821,134.07205 Z"
         id="path51" />
      <path
         d="M 86.918427,137.55838 Q 86.918427,137.97708 87.09787,138.34451 87.277313,138.71194 87.567841,138.99393 87.866913,139.26736 88.251434,139.42972 88.644501,139.58353 89.063202,139.58353 89.396454,139.58353 89.695526,139.48953 89.994598,139.38699 90.242401,139.20755 90.490204,139.02811 90.678192,138.7803 90.86618,138.5325 90.968719,138.23343 H 92.318817 Q 92.199188,138.81448 91.891571,139.31009 91.592499,139.79715 91.156708,140.16458 90.720917,140.52347 90.174042,140.72855 89.627167,140.93362 89.011932,140.93362 88.311249,140.93362 87.687469,140.66873 87.06369,140.40384 86.593719,139.95096 86.123749,139.48953 85.841766,138.8743 85.568329,138.25906 85.568329,137.55838 V 134.85818 Q 85.568329,134.1575 85.841766,133.54227 86.123749,132.92703 86.593719,132.47415 87.06369,132.01273 87.687469,131.74783 88.311249,131.48294 89.011932,131.48294 89.627167,131.48294 90.174042,131.68802 90.720917,131.8931 91.156708,132.26053 91.592499,132.61942 91.891571,133.11502 92.199188,133.61063 92.318817,134.18314 H 90.968719 Q 90.86618,133.89261 90.678192,133.64481 90.490204,133.397 90.242401,133.21756 89.994598,133.03812 89.695526,132.93558 89.396454,132.83304 89.063202,132.83304 88.644501,132.83304 88.251434,132.99539 87.866913,133.1492 87.567841,133.43118 87.277313,133.70462 87.09787,134.07205 86.918427,134.43948 86.918427,134.85818 Z"
         id="path53" />
      <path
         d="M 101.71823,140.93362 H 100.36813 V 140.26712 Q 100.04343,140.50638 99.658905,140.66873 99.043671,140.93362 98.342987,140.93362 97.642303,140.93362 97.027069,140.66873 96.411835,140.40384 95.950409,139.95096 95.497528,139.48953 95.232635,138.8743 94.967743,138.25906 94.967743,137.55838 V 134.85818 Q 94.967743,134.1575 95.232635,133.54227 95.497528,132.92703 95.950409,132.47415 96.411835,132.01273 97.027069,131.74783 97.642303,131.48294 98.342987,131.48294 99.043671,131.48294 99.658905,131.74783 100.04343,131.91873 100.36813,132.15799 V 128.78275 H 101.71823 Z M 100.21432,134.07205 Q 100.05197,133.70462 99.769989,133.43118 99.496552,133.1492 99.12912,132.99539 98.761688,132.83304 98.342987,132.83304 97.924286,132.83304 97.556854,132.99539 97.189423,133.1492 96.90744,133.43118 96.634003,133.70462 96.471649,134.07205 96.317841,134.43948 96.317841,134.85818 V 137.55838 Q 96.317841,137.97708 96.471649,138.34451 96.634003,138.71194 96.90744,138.99393 97.189423,139.26736 97.556854,139.42972 97.924286,139.58353 98.342987,139.58353 98.761688,139.58353 99.12912,139.42972 99.496552,139.26736 99.769989,138.99393 100.05197,138.71194 100.20578,138.34451 100.36813,137.97708 100.36813,137.55838 V 134.78128 Z"
         id="path55" />
      <path
         d="M 105.71725,137.55838 Q 105.71725,137.97708 105.87106,138.34451 106.03342,138.71194 106.30685,138.99393 106.58884,139.26736 106.95627,139.42972 107.3237,139.58353 107.7424,139.58353 H 111.11765 V 140.93362 H 107.7424 Q 107.04172,140.93362 106.42648,140.66873 105.81125,140.40384 105.34982,139.95096 104.89694,139.48953 104.63205,138.8743 104.36716,138.25906 104.36716,137.55838 V 134.85818 Q 104.36716,134.1575 104.63205,133.54227 104.89694,132.92703 105.34982,132.47415 105.81125,132.01273 106.42648,131.74783 107.04172,131.48294 107.7424,131.48294 108.44308,131.48294 109.05832,131.74783 109.67355,132.01273 110.12643,132.47415 110.58786,132.92703 110.85275,133.54227 111.11765,134.1575 111.11765,134.85818 V 136.88333 H 105.71725 Z M 105.71725,135.53323 H 109.76755 V 134.85818 Q 109.76755,134.43948 109.60519,134.07205 109.45139,133.70462 109.1694,133.43118 108.89597,133.1492 108.52853,132.99539 108.1611,132.83304 107.7424,132.83304 107.3237,132.83304 106.95627,132.99539 106.58884,133.1492 106.30685,133.43118 106.03342,133.70462 105.87106,134.07205 105.71725,134.43948 105.71725,134.85818 Z"
         id="path57" />
      <path
         d="M 113.76657,132.83304 H 115.11667 V 132.15799 Q 115.11667,131.45731 115.38156,130.84207 115.64645,130.22684 116.09933,129.77396 116.56076,129.31253 117.17599,129.04764 117.79123,128.78275 118.49191,128.78275 H 120.51706 V 130.13284 H 118.49191 Q 118.07321,130.13284 117.70578,130.2952 117.33835,130.44901 117.05637,130.73099 116.78293,131.00443 116.62057,131.37186 116.46677,131.73929 116.46677,132.15799 V 132.83304 H 119.16696 V 134.18314 H 116.46677 V 140.93362 H 115.11667 V 134.18314 H 113.76657 Z"
         id="path59" />
      <path
         d="M 124.51608,143.63382 H 126.54123 Q 126.95993,143.63382 127.32736,143.47147 127.69479,143.31766 127.96823,143.03568 128.25021,142.76224 128.40402,142.39481 128.56638,142.02737 128.56638,141.60867 V 140.25858 Q 128.13913,140.57474 127.62643,140.75418 127.11374,140.93362 126.54123,140.93362 125.84055,140.93362 125.22531,140.66873 124.61008,140.40384 124.14865,139.95096 123.69577,139.48953 123.43088,138.8743 123.16599,138.25906 123.16599,137.55838 V 134.85818 Q 123.16599,134.1575 123.43088,133.54227 123.69577,132.92703 124.14865,132.47415 124.61008,132.01273 125.22531,131.74783 125.84055,131.48294 126.54123,131.48294 127.11374,131.48294 127.62643,131.66238 128.13913,131.84183 128.56638,132.16653 V 131.48294 H 129.91647 V 141.60867 Q 129.91647,142.30936 129.65158,142.92459 129.38669,143.53983 128.92526,143.99271 128.47238,144.45413 127.85715,144.71902 127.24191,144.98392 126.54123,144.98392 H 124.51608 Z M 124.51608,137.55838 Q 124.51608,137.97708 124.66989,138.34451 124.83224,138.71194 125.10568,138.99393 125.38766,139.26736 125.7551,139.42972 126.12253,139.58353 126.54123,139.58353 126.95139,139.58353 127.31027,139.43826 127.66916,139.28445 127.9426,139.01956 128.21603,138.75467 128.37839,138.40433 128.54929,138.05399 128.56638,137.64383 V 134.77274 Q 128.54929,134.37112 128.37839,134.02078 128.21603,133.6619 127.9426,133.40555 127.66916,133.14066 127.31027,132.98685 126.95139,132.83304 126.54123,132.83304 126.12253,132.83304 125.7551,132.99539 125.38766,133.1492 125.10568,133.43118 124.83224,133.70462 124.66989,134.07205 124.51608,134.43948 124.51608,134.85818 Z"
         id="path61" />
      <path
         d="M 137.96579,134.85818 Q 137.96579,134.43948 137.80344,134.07205 137.64963,133.70462 137.36765,133.43118 137.09421,133.1492 136.72678,132.99539 136.35934,132.83304 135.94064,132.83304 135.53049,132.83304 135.16306,132.98685 134.80417,133.14066 134.53073,133.40555 134.25729,133.6619 134.09494,134.02078 133.93259,134.37112 133.9155,134.77274 V 140.93362 H 132.5654 V 128.78275 H 133.9155 V 132.16653 Q 134.34274,131.84183 134.85544,131.66238 135.36813,131.48294 135.94064,131.48294 136.64133,131.48294 137.25656,131.74783 137.8718,132.01273 138.32468,132.47415 138.7861,132.92703 139.05099,133.54227 139.31589,134.1575 139.31589,134.85818 V 140.93362 H 137.96579 Z"
         id="path63" />
      <path
         d="M 144.66501,132.83304 H 143.31491 V 131.48294 H 146.01511 V 140.93362 H 144.66501 Z M 144.66501,128.78275 H 146.01511 V 130.13284 H 144.66501 Z"
         id="path65" />
      <path
         d="M 151.36423,142.28372 H 153.38937 Q 155.41452,142.28372 155.41452,140.25858 V 132.83304 H 154.06442 V 131.48294 H 156.76462 V 140.93362 Q 156.76462,141.43777 156.53391,141.92484 156.30319,142.4119 155.91867,142.78787 155.54269,143.17239 155.05563,143.40311 154.56857,143.63382 154.06442,143.63382 H 151.36423 Z M 155.41452,128.78275 H 156.76462 V 130.13284 H 155.41452 Z"
         id="path67" />
      <path
         d="M 162.11374,135.53323 H 162.43845 L 165.85641,131.48294 H 167.51413 L 163.64328,136.20828 167.51413,140.93362 H 165.85641 L 162.43845,136.88333 H 162.11374 V 140.93362 H 160.76364 V 128.78275 H 162.11374 Z"
         id="path69" />
      <path
         d="M 172.86325,130.13284 H 171.51315 V 128.78275 H 174.21335 V 140.93362 H 172.86325 Z"
         id="path71" />
      <path
         d="M 182.26266,133.50809 H 182.25412 Q 182.26266,132.83304 181.58762,132.83304 180.91257,132.83304 180.92111,133.50809 H 180.91257 V 140.93362 H 179.56247 V 131.48294 H 181.24582 Q 181.55344,131.48294 181.82687,131.58548 182.10031,131.68802 182.31393,131.86746 182.5361,132.04691 182.68991,132.29471 182.84372,132.54251 182.90353,132.83304 H 182.96335 Q 183.02316,132.54251 183.16843,132.29471 183.32224,132.04691 183.53586,131.86746 183.75803,131.68802 184.03146,131.58548 184.31345,131.48294 184.62106,131.48294 184.97141,131.48294 185.27902,131.61966 185.58664,131.74783 185.81735,131.97855 186.04807,132.20071 186.17624,132.50833 186.31296,132.81595 186.31296,133.16629 V 140.93362 H 184.96286 V 133.50809 Q 184.96286,132.83304 184.28781,132.83304 183.61276,132.83304 183.61276,133.50809 V 140.93362 H 182.26266 Z"
         id="path73" />
      <path
         d="M 192.33713,132.83304 Q 191.92697,132.83304 191.55954,132.98685 191.20065,133.14066 190.92722,133.40555 190.65378,133.6619 190.49142,134.02078 190.32907,134.37112 190.31198,134.77274 V 140.93362 H 188.96188 V 131.48294 H 190.31198 V 132.16653 Q 190.73923,131.84183 191.25192,131.66238 191.76462,131.48294 192.33713,131.48294 193.03781,131.48294 193.65305,131.74783 194.26828,132.01273 194.72116,132.47415 195.18259,132.92703 195.44748,133.54227 195.71237,134.1575 195.71237,134.85818 V 140.93362 H 194.36227 V 134.85818 Q 194.36227,134.43948 194.19992,134.07205 194.04611,133.70462 193.76413,133.43118 193.49069,133.1492 193.12326,132.99539 192.75583,132.83304 192.33713,132.83304 Z"
         id="path75" />
      <path
         d="M 198.3613,134.85818 Q 198.3613,134.1575 198.62619,133.54227 198.89108,132.92703 199.34396,132.47415 199.80539,132.01273 200.42062,131.74783 201.03586,131.48294 201.73654,131.48294 202.43723,131.48294 203.05246,131.74783 203.66769,132.01273 204.12057,132.47415 204.582,132.92703 204.84689,133.54227 205.11179,134.1575 205.11179,134.85818 V 137.55838 Q 205.11179,138.25906 204.84689,138.8743 204.582,139.48953 204.12057,139.95096 203.66769,140.40384 203.05246,140.66873 202.43723,140.93362 201.73654,140.93362 201.03586,140.93362 200.42062,140.66873 199.80539,140.40384 199.34396,139.95096 198.89108,139.48953 198.62619,138.8743 198.3613,138.25906 198.3613,137.55838 Z M 199.7114,137.55838 Q 199.7114,137.97708 199.8652,138.34451 200.02756,138.71194 200.30099,138.99393 200.58298,139.26736 200.95041,139.42972 201.31784,139.58353 201.73654,139.58353 202.15524,139.58353 202.52267,139.42972 202.89011,139.26736 203.16354,138.99393 203.44553,138.71194 203.59933,138.34451 203.76169,137.97708 203.76169,137.55838 V 134.85818 Q 203.76169,134.43948 203.59933,134.07205 203.44553,133.70462 203.16354,133.43118 202.89011,133.1492 202.52267,132.99539 202.15524,132.83304 201.73654,132.83304 201.31784,132.83304 200.95041,132.99539 200.58298,133.1492 200.30099,133.43118 200.02756,133.70462 199.8652,134.07205 199.7114,134.43948 199.7114,134.85818 Z"
         id="path77" />
      <path
         d="M 207.76071,131.48294 H 209.11081 V 132.16653 Q 209.53806,131.84183 210.05075,131.66238 210.56345,131.48294 211.13596,131.48294 211.83664,131.48294 212.45187,131.74783 213.06711,132.01273 213.51999,132.47415 213.98141,132.92703 214.24631,133.54227 214.5112,134.1575 214.5112,134.85818 V 137.55838 Q 214.5112,138.25906 214.24631,138.8743 213.98141,139.48953 213.51999,139.95096 213.06711,140.40384 212.45187,140.66873 211.83664,140.93362 211.13596,140.93362 210.56345,140.93362 210.05075,140.75418 209.53806,140.57474 209.11081,140.25858 V 144.98392 H 207.76071 Z M 211.13596,132.83304 Q 210.7258,132.83304 210.35837,132.96121 209.99094,133.08939 209.70895,133.34573 209.43552,133.59354 209.27316,133.97806 209.11081,134.35403 209.11081,134.85818 V 137.55838 Q 209.11081,138.06253 209.27316,138.44705 209.43552,138.82303 209.70895,139.07938 209.99094,139.32718 210.35837,139.45535 210.7258,139.58353 211.13596,139.58353 211.55466,139.58353 211.92209,139.42972 212.28952,139.26736 212.56296,138.99393 212.84494,138.71194 212.99875,138.34451 213.1611,137.97708 213.1611,137.55838 V 134.85818 Q 213.1611,134.43948 212.99875,134.07205 212.84494,133.70462 212.56296,133.43118 212.28952,133.1492 211.92209,132.99539 211.55466,132.83304 211.13596,132.83304 Z"
         id="path79" />
      <path
         d="M 222.56052,140.25858 Q 222.13327,140.57474 221.62057,140.75418 221.10788,140.93362 220.53537,140.93362 219.83469,140.93362 219.21945,140.66873 218.60422,140.40384 218.14279,139.95096 217.68991,139.48953 217.42502,138.8743 217.16013,138.25906 217.16013,137.55838 V 134.85818 Q 217.16013,134.1575 217.42502,133.54227 217.68991,132.92703 218.14279,132.47415 218.60422,132.01273 219.21945,131.74783 219.83469,131.48294 220.53537,131.48294 221.10788,131.48294 221.62057,131.66238 222.13327,131.84183 222.56052,132.16653 V 131.48294 H 223.91061 V 144.98392 H 222.56052 Z M 218.51022,137.55838 Q 218.51022,137.97708 218.66403,138.34451 218.82639,138.71194 219.09982,138.99393 219.38181,139.26736 219.74924,139.42972 220.11667,139.58353 220.53537,139.58353 220.94553,139.58353 221.31296,139.45535 221.68039,139.32718 221.95383,139.07938 222.23581,138.82303 222.39816,138.44705 222.56052,138.06253 222.56052,137.55838 V 134.85818 Q 222.56052,134.35403 222.39816,133.97806 222.23581,133.59354 221.95383,133.34573 221.68039,133.08939 221.31296,132.96121 220.94553,132.83304 220.53537,132.83304 220.11667,132.83304 219.74924,132.99539 219.38181,133.1492 219.09982,133.43118 218.82639,133.70462 218.66403,134.07205 218.51022,134.43948 218.51022,134.85818 Z"
         id="path81" />
      <path
         d="M 226.55954,140.93362 V 131.48294 H 227.90964 V 132.85013 Q 228.0549,132.58524 228.38815,132.34598 228.72141,132.09818 229.11447,131.91019 229.51608,131.71365 229.91769,131.60257 230.32785,131.48294 230.60983,131.48294 231.22507,131.48294 231.66086,131.68802 232.10519,131.8931 232.41281,132.26053 232.72897,132.61942 232.92551,133.11502 233.12204,133.61063 233.24167,134.18314 H 231.8403 Q 231.73776,133.89261 231.65231,133.64481 231.57541,133.397 231.44724,133.21756 231.32761,133.03812 231.13107,132.93558 230.94308,132.83304 230.60983,132.83304 230.3364,132.83304 230.02878,132.94412 229.72116,133.04666 229.42209,133.24319 229.12302,133.43118 228.84958,133.69608 228.57614,133.95242 228.36252,134.2515 228.15744,134.55057 228.02927,134.88382 227.90964,135.20853 227.90964,135.54178 V 140.93362 Z"
         id="path83" />
      <path
         d="M 242.70944,131.48294 V 132.83304 H 239.3342 Q 238.83005,132.83304 238.44553,132.95267 238.06955,133.06375 237.8132,133.26028 237.5654,133.44827 237.43723,133.68753 237.30905,133.92679 237.30905,134.18314 237.30905,134.43948 237.43723,134.67874 237.5654,134.918 237.8132,135.11453 238.06955,135.30252 238.44553,135.42215 238.83005,135.53323 239.3342,135.53323 239.66745,135.53323 240.05197,135.59305 240.43649,135.65286 240.81247,135.78104 241.18845,135.90921 241.53024,136.12283 241.87204,136.32791 242.12839,136.62698 242.39328,136.92606 242.54709,137.31912 242.70944,137.71219 242.70944,138.21634 242.70944,138.72903 242.46164,139.21609 242.22238,139.70316 241.77805,140.08768 241.34225,140.4722 240.71848,140.70291 240.0947,140.93362 239.3342,140.93362 H 235.95895 V 139.58353 H 239.3342 Q 239.83835,139.58353 240.21432,139.47244 240.59885,139.35281 240.84665,139.16483 241.103,138.96829 241.23117,138.72049 241.35934,138.47269 241.35934,138.21634 241.35934,137.96854 241.23117,137.72928 241.103,137.49002 240.84665,137.30203 240.59885,137.11404 240.21432,137.00296 239.83835,136.88333 239.3342,136.88333 239.00095,136.88333 238.61642,136.82352 238.2319,136.7637 237.85593,136.63553 237.47995,136.49881 237.13815,136.29373 236.79636,136.08011 236.53146,135.78104 236.27512,135.48196 236.11276,135.0889 235.95895,134.68729 235.95895,134.18314 235.95895,133.67899 236.19821,133.19193 236.44601,132.70486 236.88181,132.32889 237.32614,131.94437 237.94992,131.71365 238.5737,131.48294 239.3342,131.48294 Z"
         id="path85" />
      <path
         d="M 245.35837,131.48294 H 246.70847 V 128.78275 H 248.05856 V 131.48294 H 250.75876 V 132.83304 H 248.05856 V 137.55838 Q 248.05856,137.97708 248.21237,138.34451 248.37473,138.71194 248.64816,138.99393 248.93015,139.26736 249.29758,139.42972 249.66501,139.58353 250.08371,139.58353 H 252.10886 V 140.93362 H 250.08371 Q 249.38303,140.93362 248.76779,140.66873 248.15256,140.40384 247.69113,139.95096 247.23825,139.48953 246.97336,138.8743 246.70847,138.25906 246.70847,137.55838 V 132.83304 H 245.35837 Z"
         id="path87" />
      <path
         d="M 256.10788,137.55838 Q 256.10788,137.97708 256.26169,138.34451 256.42404,138.71194 256.69748,138.99393 256.97946,139.26736 257.34689,139.42972 257.71432,139.58353 258.13303,139.58353 258.54318,139.58353 258.91061,139.42117 259.27805,139.25882 259.55148,138.98538 259.83347,138.7034 259.99582,138.33597 260.15817,137.96854 260.15817,137.55838 V 131.48294 H 261.50827 V 140.93362 H 260.15817 V 140.25858 Q 259.73093,140.57474 259.21823,140.75418 258.70554,140.93362 258.13303,140.93362 257.43234,140.93362 256.81711,140.66873 256.20187,140.40384 255.74045,139.95096 255.28757,139.48953 255.02267,138.8743 254.75778,138.25906 254.75778,137.55838 V 131.48294 H 256.10788 Z"
         id="path89" />
      <path
         d="M 270.90768,131.48294 268.20749,140.93362 H 266.85739 L 264.1572,131.48294 H 265.50729 L 267.53244,138.90848 269.55759,131.48294 Z"
         id="path91" />
      <path
         d="M 277.6069,138.90848 Q 277.6069,139.58353 278.28195,139.58353 278.957,139.58353 278.957,138.90848 V 131.48294 H 280.3071 V 139.25027 Q 280.3071,139.60062 280.17038,139.90823 280.04221,140.21585 279.81149,140.44656 279.58078,140.66873 279.27316,140.80545 278.96555,140.93362 278.6152,140.93362 278.30759,140.93362 278.0256,140.83109 277.75217,140.72855 277.53,140.5491 277.31638,140.36966 277.16257,140.12186 277.0173,139.87405 276.95749,139.58353 H 276.89767 Q 276.83786,139.87405 276.68405,140.12186 276.53024,140.36966 276.30807,140.5491 276.09445,140.72855 275.82101,140.83109 275.54758,140.93362 275.23996,140.93362 274.88962,140.93362 274.582,140.80545 274.27438,140.66873 274.04367,140.44656 273.8215,140.21585 273.68478,139.90823 273.55661,139.60062 273.55661,139.25027 V 131.48294 H 274.90671 V 138.90848 H 274.91525 Q 274.90671,139.58353 275.58176,139.58353 276.25681,139.58353 276.24826,138.90848 H 276.25681 V 135.53323 H 277.6069 Z"
         id="path93" />
      <path
         d="M 286.33127,134.90091 288.24533,131.48294 H 289.7236 L 287.06613,136.20828 289.7236,140.93362 H 288.24533 L 286.33127,137.53275 284.40866,140.93362 H 282.93039 L 285.58786,136.20828 282.93039,131.48294 H 284.40866 Z"
         id="path95" />
      <path
         d="M 293.70554,137.55838 Q 293.70554,137.97708 293.85934,138.34451 294.0217,138.71194 294.29514,138.99393 294.57712,139.26736 294.94455,139.42972 295.31198,139.58353 295.73068,139.58353 296.14084,139.58353 296.49973,139.43826 296.85861,139.28445 297.13205,139.01956 297.40549,138.75467 297.56784,138.40433 297.73874,138.05399 297.75583,137.55838 V 131.48294 H 299.10593 V 141.60867 Q 299.10593,142.30936 298.84103,142.92459 298.57614,143.53983 298.11472,143.99271 297.66183,144.45413 297.0466,144.71902 296.43137,144.98392 295.73068,144.98392 H 293.70554 V 143.63382 H 295.73068 Q 296.14938,143.63382 296.51682,143.47147 296.88425,143.31766 297.15768,143.03568 297.43967,142.76224 297.59348,142.39481 297.75583,142.02737 297.75583,141.60867 V 140.25858 Q 297.32858,140.57474 296.81589,140.75418 296.30319,140.93362 295.73068,140.93362 295.03,140.93362 294.41476,140.66873 293.79953,140.40384 293.3381,139.95096 292.88522,139.48953 292.62033,138.8743 292.35544,138.25906 292.35544,137.55838 V 131.48294 H 293.70554 Z"
         id="path97" />
      <path
         d="M 306.8989,132.83304 H 301.75485 V 131.48294 H 308.50534 V 132.83304 L 303.35275,139.58353 H 308.50534 V 140.93362 H 301.75485 V 139.58353 Z"
         id="path99" />
      <path
         d="M 66.769501,154.03299 Q 66.769501,153.33231 67.034393,152.71707 67.299286,152.10184 67.752167,151.64896 68.213593,151.18753 68.828827,150.92264 69.444061,150.65775 70.144745,150.65775 70.845428,150.65775 71.460663,150.92264 72.075897,151.18753 72.528778,151.64896 72.990204,152.10184 73.255096,152.71707 73.519989,153.33231 73.519989,154.03299 V 162.80862 H 72.169891 V 157.40823 H 68.119598 V 162.80862 H 66.769501 Z M 72.169891,156.05814 V 154.03299 Q 72.169891,153.61429 72.007538,153.24686 71.853729,152.87943 71.571747,152.60599 71.298309,152.32401 70.930878,152.1702 70.563446,152.00784 70.144745,152.00784 69.726044,152.00784 69.358612,152.1702 68.99118,152.32401 68.709198,152.60599 68.43576,152.87943 68.273407,153.24686 68.119598,153.61429 68.119598,154.03299 V 156.05814 Z"
         id="path101" />
      <path
         d="M 76.168915,150.65775 H 79.544159 Q 80.244843,150.65775 80.860077,150.92264 81.475311,151.18753 81.928192,151.64896 82.389618,152.10184 82.65451,152.71707 82.919403,153.33231 82.919403,154.03299 82.919403,154.87039 82.543427,155.57108 82.175995,156.27176 81.56076,156.73318 82.175995,157.19461 82.543427,157.90384 82.919403,158.60452 82.919403,159.43338 82.919403,160.13406 82.65451,160.7493 82.389618,161.36453 81.928192,161.82596 81.475311,162.27884 80.860077,162.54373 80.244843,162.80862 79.544159,162.80862 H 76.168915 Z M 79.544159,156.05814 Q 79.96286,156.05814 80.330292,155.90433 80.697723,155.74197 80.971161,155.46854 81.253143,155.18655 81.406952,154.81912 81.569305,154.45169 81.569305,154.03299 81.569305,153.61429 81.406952,153.24686 81.253143,152.87943 80.971161,152.60599 80.697723,152.32401 80.330292,152.1702 79.96286,152.00784 79.544159,152.00784 H 77.519012 V 156.05814 Z M 79.544159,161.45853 Q 79.96286,161.45853 80.330292,161.30472 80.697723,161.14236 80.971161,160.86893 81.253143,160.58694 81.406952,160.21951 81.569305,159.85208 81.569305,159.43338 81.569305,159.01468 81.406952,158.64725 81.253143,158.27982 80.971161,158.00638 80.697723,157.7244 80.330292,157.57059 79.96286,157.40823 79.544159,157.40823 H 77.519012 V 161.45853 Z"
         id="path103" />
      <path
         d="M 88.969208,152.00784 Q 88.533417,152.00784 88.15744,152.1702 87.781464,152.32401 87.508026,152.60599 87.234589,152.87943 87.072235,153.24686 86.918427,153.61429 86.918427,154.03299 V 159.43338 Q 86.918427,159.85208 87.072235,160.21951 87.234589,160.58694 87.508026,160.86893 87.781464,161.14236 88.15744,161.30472 88.533417,161.45853 88.969208,161.45853 89.328094,161.45853 89.644257,161.36453 89.960419,161.26199 90.216766,161.08255 90.481659,160.90311 90.669647,160.6553 90.86618,160.4075 90.968719,160.10843 H 92.318817 Q 92.199188,160.68948 91.900116,161.18509 91.601044,161.68069 91.156708,162.03958 90.720917,162.39847 90.165497,162.60355 89.610077,162.80862 88.969208,162.80862 88.251434,162.80862 87.627655,162.54373 87.012421,162.27884 86.550995,161.82596 86.089569,161.36453 85.824677,160.7493 85.568329,160.13406 85.568329,159.43338 V 154.03299 Q 85.568329,153.33231 85.824677,152.71707 86.089569,152.10184 86.550995,151.64896 87.012421,151.18753 87.627655,150.92264 88.251434,150.65775 88.969208,150.65775 89.610077,150.65775 90.165497,150.86282 90.729462,151.0679 91.165253,151.43533 91.601044,151.79422 91.900116,152.28983 92.199188,152.78543 92.318817,153.35794 H 90.968719 Q 90.86618,153.06741 90.669647,152.81961 90.481659,152.57181 90.225311,152.39236 89.968964,152.21292 89.644257,152.11038 89.328094,152.00784 88.969208,152.00784 Z"
         id="path105" />
      <path
         d="M 94.967743,150.65775 H 98.342987 Q 99.043671,150.65775 99.658905,150.92264 100.27414,151.18753 100.72702,151.64896 101.18845,152.10184 101.45334,152.71707 101.71823,153.33231 101.71823,154.03299 V 159.43338 Q 101.71823,160.13406 101.45334,160.7493 101.18845,161.36453 100.72702,161.82596 100.27414,162.27884 99.658905,162.54373 99.043671,162.80862 98.342987,162.80862 H 94.967743 Z M 98.342987,161.45853 Q 98.761688,161.45853 99.12912,161.30472 99.496552,161.14236 99.769989,160.86893 100.05197,160.58694 100.20578,160.21951 100.36813,159.85208 100.36813,159.43338 V 154.03299 Q 100.36813,153.61429 100.20578,153.24686 100.05197,152.87943 99.769989,152.60599 99.496552,152.32401 99.12912,152.1702 98.761688,152.00784 98.342987,152.00784 H 96.317841 V 161.45853 Z"
         id="path107" />
      <path
         d="M 104.36716,150.65775 H 111.11765 V 152.00784 H 105.71725 V 156.05814 H 109.76755 V 157.40823 H 105.71725 V 161.45853 H 111.11765 V 162.80862 H 104.36716 Z"
         id="path109" />
      <path
         d="M 113.76657,150.65775 H 120.51706 V 152.00784 H 115.11667 V 156.05814 H 119.16696 V 157.40823 H 115.11667 V 162.80862 H 113.76657 Z"
         id="path111" />
      <path
         d="M 128.56638,161.45853 Q 128.56638,161.71487 128.35275,161.95413 128.14767,162.19339 127.84006,162.38992 127.53244,162.57791 127.17355,162.69754 126.82321,162.80862 126.54123,162.80862 125.84055,162.80862 125.22531,162.54373 124.61008,162.27884 124.14865,161.82596 123.69577,161.36453 123.43088,160.7493 123.16599,160.13406 123.16599,159.43338 V 154.03299 Q 123.16599,153.33231 123.43088,152.71707 123.69577,152.10184 124.14865,151.64896 124.61008,151.18753 125.22531,150.92264 125.84055,150.65775 126.54123,150.65775 127.15646,150.65775 127.70334,150.86282 128.25021,151.0679 128.686,151.43533 129.1218,151.79422 129.42087,152.28983 129.72849,152.78543 129.84811,153.35794 H 128.44675 Q 128.34421,153.06741 128.15622,152.81961 127.96823,152.57181 127.72043,152.39236 127.47263,152.21292 127.17355,152.11038 126.87448,152.00784 126.54123,152.00784 126.12253,152.00784 125.7551,152.1702 125.38766,152.32401 125.10568,152.60599 124.83224,152.87943 124.66989,153.24686 124.51608,153.61429 124.51608,154.03299 V 159.43338 Q 124.51608,159.85208 124.66989,160.21951 124.83224,160.58694 125.10568,160.86893 125.38766,161.14236 125.7551,161.30472 126.12253,161.45853 126.54123,161.45853 126.95139,161.45853 127.31882,161.23636 127.68625,161.01419 127.95969,160.69803 128.24167,160.38187 128.40402,160.04007 128.56638,159.68973 128.56638,159.43338 V 157.40823 H 127.21628 V 156.05814 H 129.91647 V 162.80862 H 128.56638 Z"
         id="path113" />
      <path
         d="M 132.5654,150.65775 H 133.9155 V 156.05814 H 137.96579 V 150.65775 H 139.31589 V 162.80862 H 137.96579 V 157.40823 H 133.9155 V 162.80862 H 132.5654 Z"
         id="path115" />
      <path
         d="M 141.96481,161.45853 H 144.66501 V 152.00784 H 141.96481 V 150.65775 H 148.7153 V 152.00784 H 146.01511 V 161.45853 H 148.7153 V 162.80862 H 141.96481 Z"
         id="path117" />
      <path
         d="M 151.36423,158.75833 H 152.71432 V 159.43338 Q 152.71432,159.85208 152.86813,160.21951 153.03049,160.58694 153.30392,160.86893 153.58591,161.14236 153.95334,161.30472 154.32077,161.45853 154.73947,161.45853 155.15817,161.45853 155.5256,161.30472 155.89304,161.14236 156.16647,160.86893 156.44846,160.58694 156.60226,160.21951 156.76462,159.85208 156.76462,159.43338 V 150.65775 H 158.11472 V 159.43338 Q 158.11472,160.13406 157.84982,160.7493 157.58493,161.36453 157.1235,161.82596 156.67062,162.27884 156.05539,162.54373 155.44016,162.80862 154.73947,162.80862 154.03879,162.80862 153.42355,162.54373 152.80832,162.27884 152.34689,161.82596 151.89401,161.36453 151.62912,160.7493 151.36423,160.13406 151.36423,159.43338 Z"
         id="path119" />
      <path
         d="M 162.11374,156.30594 165.99313,150.65775 H 167.51413 L 163.46384,156.73318 167.51413,162.80862 H 165.97604 L 162.11374,157.11771 V 162.80862 H 160.76364 V 150.65775 H 162.11374 Z"
         id="path121" />
      <path
         d="M 170.16306,150.65775 H 171.51315 V 161.45853 H 176.91354 V 162.80862 H 170.16306 Z"
         id="path123" />
      <path
         d="M 184.96286,153.35794 182.93771,156.89554 180.91257,153.35794 V 162.80862 H 179.56247 V 150.65775 H 180.91257 L 182.93771,154.70804 184.96286,150.65775 H 186.31296 V 162.80862 H 184.96286 Z"
         id="path125" />
      <path
         d="M 188.96188,162.80862 V 150.65775 H 190.31198 L 194.36227,159.647 V 150.65775 H 195.71237 V 162.80862 H 194.36227 L 190.31198,153.81937 V 162.80862 Z"
         id="path127" />
      <path
         d="M 198.3613,154.03299 Q 198.3613,153.33231 198.62619,152.71707 198.89108,152.10184 199.34396,151.64896 199.80539,151.18753 200.42062,150.92264 201.03586,150.65775 201.73654,150.65775 202.43723,150.65775 203.05246,150.92264 203.66769,151.18753 204.12057,151.64896 204.582,152.10184 204.84689,152.71707 205.11179,153.33231 205.11179,154.03299 V 159.43338 Q 205.11179,160.13406 204.84689,160.7493 204.582,161.36453 204.12057,161.82596 203.66769,162.27884 203.05246,162.54373 202.43723,162.80862 201.73654,162.80862 201.03586,162.80862 200.42062,162.54373 199.80539,162.27884 199.34396,161.82596 198.89108,161.36453 198.62619,160.7493 198.3613,160.13406 198.3613,159.43338 Z M 201.73654,152.00784 Q 201.31784,152.00784 200.95041,152.1702 200.58298,152.32401 200.30099,152.60599 200.02756,152.87943 199.8652,153.24686 199.7114,153.61429 199.7114,154.03299 V 159.43338 Q 199.7114,159.85208 199.8652,160.21951 200.02756,160.58694 200.30099,160.86893 200.58298,161.14236 200.95041,161.30472 201.31784,161.45853 201.73654,161.45853 202.15524,161.45853 202.52267,161.30472 202.89011,161.14236 203.16354,160.86893 203.44553,160.58694 203.59933,160.21951 203.76169,159.85208 203.76169,159.43338 V 154.03299 Q 203.76169,153.61429 203.59933,153.24686 203.44553,152.87943 203.16354,152.60599 202.89011,152.32401 202.52267,152.1702 202.15524,152.00784 201.73654,152.00784 Z"
         id="path129" />
      <path
         d="M 209.11081,162.80862 H 207.76071 V 150.65775 H 211.13596 Q 211.83664,150.65775 212.45187,150.92264 213.06711,151.18753 213.51999,151.64896 213.98141,152.10184 214.24631,152.71707 214.5112,153.33231 214.5112,154.03299 214.5112,154.73367 214.24631,155.34891 213.98141,155.96414 213.51999,156.42557 213.06711,156.87845 212.45187,157.14334 211.83664,157.40823 211.13596,157.40823 H 209.11081 Z M 211.13596,156.05814 Q 211.55466,156.05814 211.92209,155.90433 212.28952,155.74197 212.56296,155.46854 212.84494,155.18655 212.99875,154.81912 213.1611,154.45169 213.1611,154.03299 213.1611,153.61429 212.99875,153.24686 212.84494,152.87943 212.56296,152.60599 212.28952,152.32401 211.92209,152.1702 211.55466,152.00784 211.13596,152.00784 H 209.11081 V 156.05814 Z"
         id="path131" />
      <path
         d="M 221.72311,162.595 Q 221.1506,162.80862 220.53537,162.80862 219.83469,162.80862 219.21945,162.54373 218.60422,162.27884 218.14279,161.82596 217.68991,161.36453 217.42502,160.7493 217.16013,160.13406 217.16013,159.43338 V 154.03299 Q 217.16013,153.33231 217.42502,152.71707 217.68991,152.10184 218.14279,151.64896 218.60422,151.18753 219.21945,150.92264 219.83469,150.65775 220.53537,150.65775 221.23605,150.65775 221.85129,150.92264 222.46652,151.18753 222.9194,151.64896 223.38083,152.10184 223.64572,152.71707 223.91061,153.33231 223.91061,154.03299 V 159.43338 Q 223.91061,160.16824 223.62009,160.80911 223.32956,161.44998 222.83395,161.91141 L 223.96188,164.15872 H 222.50925 Z M 220.53537,152.00784 Q 220.11667,152.00784 219.74924,152.1702 219.38181,152.32401 219.09982,152.60599 218.82639,152.87943 218.66403,153.24686 218.51022,153.61429 218.51022,154.03299 V 159.43338 Q 218.51022,159.85208 218.66403,160.21951 218.82639,160.58694 219.09982,160.86893 219.38181,161.14236 219.74924,161.30472 220.11667,161.45853 220.53537,161.45853 220.85153,161.45853 221.11642,161.37308 L 219.80905,158.75833 H 221.26169 L 222.18454,160.61258 Q 222.35544,160.36478 222.45798,160.0657 222.56052,159.76663 222.56052,159.43338 V 154.03299 Q 222.56052,153.61429 222.39816,153.24686 222.24435,152.87943 221.96237,152.60599 221.68893,152.32401 221.3215,152.1702 220.95407,152.00784 220.53537,152.00784 Z"
         id="path133" />
      <path
         d="M 230.70383,157.32278 Q 233.36984,162.78299 233.36984,162.80862 H 231.82321 Q 229.19138,157.43387 229.19138,157.40823 H 227.90964 V 162.80862 H 226.55954 V 150.65775 H 229.93478 Q 230.63547,150.65775 231.2507,150.92264 231.86594,151.18753 232.31882,151.64896 232.78024,152.10184 233.04514,152.71707 233.31003,153.33231 233.31003,154.03299 233.31003,154.63113 233.11349,155.16946 232.91696,155.70779 232.56662,156.14359 232.21628,156.57938 231.73776,156.88699 231.25925,157.19461 230.70383,157.32278 Z M 229.93478,156.05814 Q 230.35349,156.05814 230.72092,155.90433 231.08835,155.74197 231.36179,155.46854 231.64377,155.18655 231.79758,154.81912 231.95993,154.45169 231.95993,154.03299 231.95993,153.61429 231.79758,153.24686 231.64377,152.87943 231.36179,152.60599 231.08835,152.32401 230.72092,152.1702 230.35349,152.00784 229.93478,152.00784 H 227.90964 V 156.05814 Z"
         id="path135" />
      <path
         d="M 237.30905,154.03299 Q 237.30905,154.45169 237.46286,154.81912 237.62521,155.18655 237.89865,155.46854 238.18063,155.74197 238.54807,155.90433 238.9155,156.05814 239.3342,156.05814 240.03488,156.05814 240.65012,156.32303 241.26535,156.58792 241.71823,157.04935 242.17966,157.50223 242.44455,158.11746 242.70944,158.7327 242.70944,159.43338 242.70944,160.13406 242.44455,160.7493 242.17966,161.36453 241.71823,161.82596 241.26535,162.27884 240.65012,162.54373 240.03488,162.80862 239.3342,162.80862 H 235.95895 V 161.45853 H 239.3342 Q 239.7529,161.45853 240.12033,161.30472 240.48776,161.14236 240.7612,160.86893 241.04318,160.58694 241.19699,160.21951 241.35934,159.85208 241.35934,159.43338 241.35934,159.01468 241.19699,158.64725 241.04318,158.27982 240.7612,158.00638 240.48776,157.7244 240.12033,157.57059 239.7529,157.40823 239.3342,157.40823 238.63351,157.40823 238.01828,157.14334 237.40305,156.87845 236.94162,156.42557 236.48874,155.96414 236.22385,155.34891 235.95895,154.73367 235.95895,154.03299 235.95895,153.33231 236.22385,152.71707 236.48874,152.10184 236.94162,151.64896 237.40305,151.18753 238.01828,150.92264 238.63351,150.65775 239.3342,150.65775 H 242.70944 V 152.00784 H 239.3342 Q 238.9155,152.00784 238.54807,152.1702 238.18063,152.32401 237.89865,152.60599 237.62521,152.87943 237.46286,153.24686 237.30905,153.61429 237.30905,154.03299 Z"
         id="path137" />
      <path
         d="M 248.05856,152.00784 H 245.35837 V 150.65775 H 252.10886 V 152.00784 H 249.40866 V 162.80862 H 248.05856 Z"
         id="path139" />
      <path
         d="M 254.75778,150.65775 H 256.10788 V 159.43338 Q 256.10788,159.85208 256.26169,160.21951 256.42404,160.58694 256.69748,160.86893 256.97946,161.14236 257.34689,161.30472 257.71432,161.45853 258.13303,161.45853 258.55173,161.45853 258.91916,161.30472 259.28659,161.14236 259.56003,160.86893 259.84201,160.58694 259.99582,160.21951 260.15817,159.85208 260.15817,159.43338 V 150.65775 H 261.50827 V 159.43338 Q 261.50827,160.13406 261.24338,160.7493 260.97849,161.36453 260.51706,161.82596 260.06418,162.27884 259.44894,162.54373 258.83371,162.80862 258.13303,162.80862 257.43234,162.80862 256.81711,162.54373 256.20187,162.27884 255.74045,161.82596 255.28757,161.36453 255.02267,160.7493 254.75778,160.13406 254.75778,159.43338 V 156.05814 Z"
         id="path141" />
      <path
         d="M 265.50729,150.65775 267.53244,159.54446 269.55759,150.65775 H 270.90768 L 268.20749,162.80862 H 266.85739 L 264.1572,150.65775 Z"
         id="path143" />
      <path
         d="M 278.957,150.65775 H 280.3071 V 162.80862 H 278.957 L 276.93185,158.75833 274.90671,162.80862 H 273.55661 V 150.65775 H 274.90671 V 160.10843 L 276.93185,156.57083 278.957,160.10843 Z"
         id="path145" />
      <path
         d="M 286.33127,155.08401 288.2966,150.65775 H 289.71506 L 287.06613,156.73318 289.71506,162.80862 H 288.2966 L 286.33127,158.3909 284.36594,162.80862 H 282.95602 L 285.59641,156.73318 282.94748,150.65775 H 284.36594 Z"
         id="path147" />
      <path
         d="M 295.05563,158.77542 292.35544,150.65775 H 293.70554 L 295.73068,156.73318 297.75583,150.65775 H 299.10593 L 296.40573,158.75833 V 162.80862 H 295.05563 Z"
         id="path149" />
      <path
         d="M 301.75485,161.45853 306.95871,152.00784 H 301.75485 V 150.65775 H 308.50534 V 152.00784 L 303.40402,161.45853 H 308.50534 V 162.80862 H 301.75485 Z"
         id="path151" />
      <path
         d="M 66.769501,178.60818 Q 66.769501,177.9075 67.034393,177.29227 67.299286,176.67703 67.752167,176.22415 68.213593,175.76273 68.828827,175.49783 69.444061,175.23294 70.144745,175.23294 70.845428,175.23294 71.460663,175.49783 72.075897,175.76273 72.528778,176.22415 72.990204,176.67703 73.255096,177.29227 73.519989,177.9075 73.519989,178.60818 V 181.30838 Q 73.519989,182.00906 73.255096,182.6243 72.990204,183.23953 72.528778,183.70096 72.075897,184.15384 71.460663,184.41873 70.845428,184.68362 70.144745,184.68362 69.444061,184.68362 68.828827,184.41873 68.213593,184.15384 67.752167,183.70096 67.299286,183.23953 67.034393,182.6243 66.769501,182.00906 66.769501,181.30838 Z M 68.119598,181.30838 Q 68.119598,181.72708 68.273407,182.09451 68.43576,182.46194 68.709198,182.74393 68.99118,183.01736 69.358612,183.17972 69.726044,183.33353 70.144745,183.33353 70.563446,183.33353 70.930878,183.17972 71.298309,183.01736 71.571747,182.74393 71.853729,182.46194 72.007538,182.09451 72.169891,181.72708 72.169891,181.30838 V 178.60818 Q 72.169891,178.18948 72.007538,177.82205 71.853729,177.45462 71.571747,177.18118 71.298309,176.8992 70.930878,176.74539 70.563446,176.58304 70.144745,176.58304 69.726044,176.58304 69.358612,176.74539 68.99118,176.8992 68.709198,177.18118 68.43576,177.45462 68.273407,177.82205 68.119598,178.18948 68.119598,178.60818 Z"
         id="path153" />
      <path
         d="M 76.168915,175.90799 Q 76.168915,175.20731 76.433807,174.59207 76.6987,173.97684 77.151581,173.52396 77.613007,173.06253 78.228241,172.79764 78.843475,172.53275 79.544159,172.53275 80.244843,172.53275 80.860077,172.79764 81.475311,173.06253 81.928192,173.52396 82.389618,173.97684 82.65451,174.59207 82.919403,175.20731 82.919403,175.90799 V 181.30838 Q 82.919403,182.00906 82.65451,182.6243 82.389618,183.23953 81.928192,183.70096 81.475311,184.15384 80.860077,184.41873 80.244843,184.68362 79.544159,184.68362 78.843475,184.68362 78.228241,184.41873 77.613007,184.15384 77.151581,183.70096 76.6987,183.23953 76.433807,182.6243 76.168915,182.00906 76.168915,181.30838 Z M 79.544159,173.88284 Q 79.125458,173.88284 78.758026,174.0452 78.390594,174.19901 78.108612,174.48099 77.835175,174.75443 77.672821,175.12186 77.519012,175.48929 77.519012,175.90799 V 181.30838 Q 77.519012,181.72708 77.672821,182.09451 77.835175,182.46194 78.108612,182.74393 78.390594,183.01736 78.758026,183.17972 79.125458,183.33353 79.544159,183.33353 79.96286,183.33353 80.330292,183.17972 80.697723,183.01736 80.971161,182.74393 81.253143,182.46194 81.406952,182.09451 81.569305,181.72708 81.569305,181.30838 V 175.90799 Q 81.569305,175.48929 81.406952,175.12186 81.253143,174.75443 80.971161,174.48099 80.697723,174.19901 80.330292,174.0452 79.96286,173.88284 79.544159,173.88284 Z"
         id="path155" />
      <path
         d="M 85.568329,175.90799 Q 85.568329,175.20731 85.833221,174.59207 86.098114,173.97684 86.550995,173.52396 87.012421,173.06253 87.627655,172.79764 88.242889,172.53275 88.943573,172.53275 89.644257,172.53275 90.259491,172.79764 90.874725,173.06253 91.327606,173.52396 91.789032,173.97684 92.053925,174.59207 92.318817,175.20731 92.318817,175.90799 V 181.30838 Q 92.318817,182.00906 92.053925,182.6243 91.789032,183.23953 91.327606,183.70096 90.874725,184.15384 90.259491,184.41873 89.644257,184.68362 88.943573,184.68362 88.242889,184.68362 87.627655,184.41873 87.012421,184.15384 86.550995,183.70096 86.098114,183.23953 85.833221,182.6243 85.568329,182.00906 85.568329,181.30838 Z M 88.943573,183.33353 Q 89.362274,183.33353 89.729706,183.17972 90.097137,183.01736 90.370575,182.74393 90.652557,182.46194 90.806366,182.09451 90.968719,181.72708 90.968719,181.30838 V 177.76224 L 86.918427,180.96658 V 181.30838 Q 86.918427,181.72708 87.072235,182.09451 87.234589,182.46194 87.508026,182.74393 87.790009,183.01736 88.15744,183.17972 88.524872,183.33353 88.943573,183.33353 Z M 88.943573,173.88284 Q 88.524872,173.88284 88.15744,174.0452 87.790009,174.19901 87.508026,174.48099 87.234589,174.75443 87.072235,175.12186 86.918427,175.48929 86.918427,175.90799 V 179.24051 L 90.968719,176.03616 V 175.90799 Q 90.968719,175.48929 90.806366,175.12186 90.652557,174.75443 90.370575,174.48099 90.097137,174.19901 89.729706,174.0452 89.362274,173.88284 88.943573,173.88284 Z"
         id="path157" />
      <path
         d="M 94.967743,181.30838 Q 94.967743,180.89822 95.070282,180.5137 95.181366,180.12064 95.369354,179.77884 95.565887,179.4285 95.83078,179.13797 96.095673,178.8389 96.40329,178.60818 96.095673,178.37747 95.83078,178.08694 95.565887,177.78787 95.369354,177.44608 95.181366,177.10428 95.070282,176.71976 94.967743,176.32669 94.967743,175.90799 94.967743,175.20731 95.232635,174.59207 95.497528,173.97684 95.950409,173.52396 96.411835,173.06253 97.027069,172.79764 97.642303,172.53275 98.342987,172.53275 99.043671,172.53275 99.658905,172.79764 100.27414,173.06253 100.72702,173.52396 101.18845,173.97684 101.45334,174.59207 101.71823,175.20731 101.71823,175.90799 101.71823,176.32669 101.60715,176.71976 101.49606,177.10428 101.29953,177.44608 101.11154,177.78787 100.84665,178.08694 100.58176,178.37747 100.27414,178.60818 100.58176,178.8389 100.84665,179.13797 101.11154,179.4285 101.29953,179.77884 101.49606,180.12064 101.60715,180.5137 101.71823,180.89822 101.71823,181.30838 101.71823,182.00906 101.45334,182.6243 101.18845,183.23953 100.72702,183.70096 100.27414,184.15384 99.658905,184.41873 99.043671,184.68362 98.342987,184.68362 97.642303,184.68362 97.027069,184.41873 96.411835,184.15384 95.950409,183.70096 95.497528,183.23953 95.232635,182.6243 94.967743,182.00906 94.967743,181.30838 Z M 96.317841,181.30838 Q 96.317841,181.72708 96.471649,182.09451 96.634003,182.46194 96.90744,182.74393 97.189423,183.01736 97.556854,183.17972 97.924286,183.33353 98.342987,183.33353 98.761688,183.33353 99.12912,183.17972 99.496552,183.01736 99.769989,182.74393 100.05197,182.46194 100.20578,182.09451 100.36813,181.72708 100.36813,181.30838 100.36813,180.88968 100.23996,180.52225 100.11179,180.15482 99.855438,179.88138 99.607635,179.5994 99.223114,179.44559 98.847137,179.28323 98.342987,179.28323 97.838837,179.28323 97.454315,179.44559 97.078339,179.5994 96.821991,179.88138 96.574188,180.15482 96.446014,180.52225 96.317841,180.88968 96.317841,181.30838 Z M 96.317841,175.90799 Q 96.317841,176.32669 96.446014,176.69412 96.574188,177.06155 96.821991,177.34354 97.078339,177.61697 97.454315,177.77933 97.838837,177.93314 98.342987,177.93314 98.847137,177.93314 99.223114,177.77933 99.607635,177.61697 99.855438,177.34354 100.11179,177.06155 100.23996,176.69412 100.36813,176.32669 100.36813,175.90799 100.36813,175.48929 100.20578,175.12186 100.05197,174.75443 99.769989,174.48099 99.496552,174.19901 99.12912,174.0452 98.761688,173.88284 98.342987,173.88284 97.924286,173.88284 97.556854,174.0452 97.189423,174.19901 96.90744,174.48099 96.634003,174.75443 96.471649,175.12186 96.317841,175.48929 96.317841,175.90799 Z"
         id="path159" />
      <path
         d="M 116.46677,176.58304 H 115.11667 V 175.23294 H 117.81686 V 184.68362 H 116.46677 Z M 116.46677,172.53275 H 117.81686 V 173.88284 H 116.46677 Z"
         id="path161" />
      <path
         d="M 123.16599,183.33353 H 125.86618 V 173.88284 H 123.16599 V 172.53275 H 129.91647 V 173.88284 H 127.21628 V 183.33353 H 129.91647 V 184.68362 H 123.16599 Z"
         id="path163" />
      <path
         d="M 135.26559,173.88284 H 133.9155 V 172.53275 H 136.61569 V 184.68362 H 135.26559 Z"
         id="path165" />
      <path
         d="M 141.96481,172.53275 H 143.31491 V 183.33353 H 148.7153 V 184.68362 H 141.96481 Z"
         id="path167" />
      <path
         d="M 152.71432,173.88284 H 153.04758 Q 153.2612,173.88284 153.44064,173.80594 153.62863,173.72903 153.76535,173.59232 153.90207,173.4556 153.97897,173.27615 154.06442,173.08817 154.06442,172.87454 V 172.53275 H 155.41452 V 183.33353 H 156.76462 V 184.68362 H 152.71432 V 183.33353 H 154.06442 V 175.23294 H 152.71432 Z"
         id="path169" />
      <path
         d="M 173.22214,178.42874 Q 173.22214,178.60818 173.28195,178.76199 173.35031,178.9158 173.4614,179.03543 173.57248,179.14651 173.72629,179.21487 173.8801,179.28323 174.05099,179.28323 174.19626,179.28323 174.2048,179.57376 174.21335,179.85574 174.11935,180.31717 174.02536,180.77859 173.86301,181.36819 173.7092,181.94925 173.52121,182.54739 173.34177,183.14554 173.16232,183.7095 172.98288,184.27347 172.86325,184.68362 172.86325,184.93997 173.08542,185.17923 173.30759,185.41849 173.62375,185.60648 173.93991,185.80301 174.28171,185.91409 174.63205,186.03372 174.8884,186.03372 H 176.91354 V 187.38382 H 174.8884 Q 174.1279,187.38382 173.50412,187.15311 172.88034,186.92239 172.436,186.53787 172.00021,186.1619 171.75241,185.67484 171.51315,185.18777 171.51315,184.68362 171.68405,183.67532 171.88913,182.88065 172.10275,182.08597 172.29074,181.48782 172.47873,180.88113 172.6069,180.46243 172.74362,180.04373 172.76071,179.78738 172.7778,179.52249 172.64963,179.40286 172.52145,179.28323 172.1882,179.28323 H 170.16306 V 177.93314 H 172.1882 Q 172.52145,177.93314 172.6069,177.82205 172.69235,177.71097 172.61545,177.4888 172.53854,177.25809 172.3591,176.92484 172.17966,176.58304 171.99167,176.1387 171.80368,175.68582 171.65842,175.12186 171.51315,174.55789 171.51315,173.88284 171.51315,173.37869 171.75241,172.89163 172.00021,172.40457 172.436,172.02859 172.88034,171.64407 173.50412,171.41336 174.1279,171.18265 174.8884,171.18265 H 176.91354 V 172.53275 H 174.8884 Q 174.38425,172.53275 173.99973,172.65237 173.62375,172.76346 173.3674,172.95999 173.1196,173.14798 172.99142,173.38724 172.86325,173.6265 172.86325,173.88284 172.90598,174.07938 173.0256,174.42972 173.14523,174.77151 173.2905,175.18167 173.43576,175.59183 173.58102,176.01907 173.73483,176.44632 173.85446,176.78812 173.97409,177.12991 174.03391,177.35208 174.09372,177.57425 174.05099,177.57425 173.8801,177.57425 173.72629,177.64261 173.57248,177.71097 173.4614,177.8306 173.35031,177.94168 173.28195,178.09549 173.22214,178.2493 173.22214,178.42874 Z"
         id="path171" />
      <path
         d="M 183.25388,178.42874 Q 183.25388,178.2493 183.18552,178.09549 183.1257,177.94168 183.01462,177.8306 182.90353,177.71097 182.74973,177.64261 182.59592,177.57425 182.42502,177.57425 182.38229,177.57425 182.44211,177.35208 182.50192,177.12991 182.62155,176.78812 182.74118,176.44632 182.88644,176.01907 183.04025,175.59183 183.18552,175.18167 183.33078,174.77151 183.45041,174.42972 183.57004,174.07938 183.61276,173.88284 183.61276,173.6265 183.48459,173.38724 183.35641,173.14798 183.10007,172.95999 182.85226,172.76346 182.46774,172.65237 182.09177,172.53275 181.58762,172.53275 H 179.56247 V 171.18265 H 181.58762 Q 182.34811,171.18265 182.97189,171.41336 183.59567,171.64407 184.03146,172.02859 184.4758,172.40457 184.71506,172.89163 184.96286,173.37869 184.96286,173.88284 184.96286,174.55789 184.8176,175.12186 184.67233,175.68582 184.48434,176.1387 184.29636,176.58304 184.11691,176.92484 183.93747,177.25809 183.86057,177.4888 183.78366,177.71097 183.86057,177.82205 183.94601,177.93314 184.28781,177.93314 H 186.31296 V 179.28323 H 184.28781 Q 183.94601,179.28323 183.81784,179.40286 183.69821,179.52249 183.7153,179.78738 183.73239,180.04373 183.86057,180.46243 183.99728,180.88113 184.18527,181.48782 184.37326,182.08597 184.57834,182.88065 184.79196,183.67532 184.96286,184.68362 184.96286,185.18777 184.71506,185.67484 184.4758,186.1619 184.03146,186.53787 183.59567,186.92239 182.97189,187.15311 182.34811,187.38382 181.58762,187.38382 H 179.56247 V 186.03372 H 181.58762 Q 181.84396,186.03372 182.18576,185.91409 182.5361,185.80301 182.85226,185.60648 183.16843,185.41849 183.39059,185.17923 183.61276,184.93997 183.61276,184.68362 183.48459,184.27347 183.30515,183.7095 183.13425,183.14554 182.94626,182.54739 182.76682,181.94925 182.60446,181.36819 182.45065,180.77859 182.35666,180.31717 182.26266,179.85574 182.27121,179.57376 182.27975,179.28323 182.42502,179.28323 182.59592,179.28323 182.74973,179.21487 182.90353,179.14651 183.01462,179.03543 183.1257,178.9158 183.18552,178.76199 183.25388,178.60818 183.25388,178.42874 Z"
         id="path173" />
      <path
         d="M 199.7114,171.18265 H 203.76169 V 172.53275 H 201.06149 V 186.03372 H 203.76169 V 187.38382 H 199.7114 Z"
         id="path175" />
      <path
         d="M 213.1611,187.38382 H 209.11081 V 186.03372 H 211.811 V 172.53275 H 209.11081 V 171.18265 H 213.1611 Z"
         id="path177" />
      <path
         d="M 227.90964,187.38382 H 229.93478 Q 230.35349,187.38382 230.72092,187.22147 231.08835,187.06766 231.36179,186.78568 231.64377,186.51224 231.79758,186.14481 231.95993,185.77737 231.95993,185.35867 V 184.00858 Q 231.53268,184.32474 231.01999,184.50418 230.50729,184.68362 229.93478,184.68362 229.2341,184.68362 228.61887,184.41873 228.00363,184.15384 227.54221,183.70096 227.08932,183.23953 226.82443,182.6243 226.55954,182.00906 226.55954,181.30838 V 178.60818 Q 226.55954,177.9075 226.82443,177.29227 227.08932,176.67703 227.54221,176.22415 228.00363,175.76273 228.61887,175.49783 229.2341,175.23294 229.93478,175.23294 230.50729,175.23294 231.01999,175.41238 231.53268,175.59183 231.95993,175.91653 V 175.23294 H 233.31003 V 185.35867 Q 233.31003,186.05936 233.04514,186.67459 232.78024,187.28983 232.31882,187.74271 231.86594,188.20413 231.2507,188.46902 230.63547,188.73392 229.93478,188.73392 H 227.90964 Z M 227.90964,181.30838 Q 227.90964,181.72708 228.06345,182.09451 228.2258,182.46194 228.49924,182.74393 228.78122,183.01736 229.14865,183.17972 229.51608,183.33353 229.93478,183.33353 230.34494,183.33353 230.70383,183.18826 231.06271,183.03445 231.33615,182.76956 231.60959,182.50467 231.77194,182.15433 231.94284,181.80399 231.95993,181.39383 V 178.52274 Q 231.94284,178.12112 231.77194,177.77078 231.60959,177.4119 231.33615,177.15555 231.06271,176.89066 230.70383,176.73685 230.34494,176.58304 229.93478,176.58304 229.51608,176.58304 229.14865,176.74539 228.78122,176.8992 228.49924,177.18118 228.2258,177.45462 228.06345,177.82205 227.90964,178.18948 227.90964,178.60818 Z"
         id="path179" />
      <path
         d="M 239.3342,172.53275 Q 240.03488,172.53275 240.65012,172.79764 241.26535,173.06253 241.71823,173.52396 242.17966,173.97684 242.44455,174.59207 242.70944,175.20731 242.70944,175.90799 242.70944,176.68558 242.66672,177.36063 242.63254,178.03568 242.49582,178.67654 242.36765,179.30887 242.10275,179.94974 241.83786,180.59061 241.38498,181.30838 240.94064,182.01761 240.27414,182.84647 239.60764,183.66678 238.65915,184.68362 H 237.30905 Q 239.0864,182.43631 240.03488,181.1973 240.99191,179.95828 241.20554,178.71072 240.79538,178.98416 240.32541,179.13797 239.85544,179.28323 239.3342,179.28323 238.63351,179.28323 238.01828,179.01834 237.40305,178.75345 236.94162,178.30057 236.48874,177.83914 236.22385,177.22391 235.95895,176.60867 235.95895,175.90799 235.95895,175.20731 236.22385,174.59207 236.48874,173.97684 236.94162,173.52396 237.40305,173.06253 238.01828,172.79764 238.63351,172.53275 239.3342,172.53275 Z M 241.35934,175.90799 Q 241.35934,175.48929 241.19699,175.12186 241.04318,174.75443 240.7612,174.48099 240.48776,174.19901 240.12033,174.0452 239.7529,173.88284 239.3342,173.88284 238.9155,173.88284 238.54807,174.0452 238.18063,174.19901 237.89865,174.48099 237.62521,174.75443 237.46286,175.12186 237.30905,175.48929 237.30905,175.90799 237.30905,176.32669 237.46286,176.69412 237.62521,177.06155 237.89865,177.34354 238.18063,177.61697 238.54807,177.77933 238.9155,177.93314 239.3342,177.93314 239.7529,177.93314 240.12033,177.77933 240.48776,177.61697 240.7612,177.34354 241.04318,177.06155 241.19699,176.69412 241.35934,176.32669 241.35934,175.90799 Z"
         id="path181" />
      <path
         d="M 250.75876,184.00858 Q 250.33151,184.32474 249.81882,184.50418 249.30612,184.68362 248.73361,184.68362 248.03293,184.68362 247.41769,184.41873 246.80246,184.15384 246.34103,183.70096 245.88815,183.23953 245.62326,182.6243 245.35837,182.00906 245.35837,181.30838 V 178.60818 Q 245.35837,177.9075 245.62326,177.29227 245.88815,176.67703 246.34103,176.22415 246.80246,175.76273 247.41769,175.49783 248.03293,175.23294 248.73361,175.23294 249.30612,175.23294 249.81882,175.41238 250.33151,175.59183 250.75876,175.91653 V 175.23294 H 252.10886 V 188.73392 H 250.75876 Z M 246.70847,181.30838 Q 246.70847,181.72708 246.86227,182.09451 247.02463,182.46194 247.29807,182.74393 247.58005,183.01736 247.94748,183.17972 248.31491,183.33353 248.73361,183.33353 249.14377,183.33353 249.5112,183.20535 249.87863,183.07718 250.15207,182.82938 250.43405,182.57303 250.59641,182.19705 250.75876,181.81253 250.75876,181.30838 V 178.60818 Q 250.75876,178.10403 250.59641,177.72806 250.43405,177.34354 250.15207,177.09573 249.87863,176.83939 249.5112,176.71121 249.14377,176.58304 248.73361,176.58304 248.31491,176.58304 247.94748,176.74539 247.58005,176.8992 247.29807,177.18118 247.02463,177.45462 246.86227,177.82205 246.70847,178.18948 246.70847,178.60818 Z"
         id="path183" />
      <path
         d="M 258.15866,173.88284 Q 257.72287,173.88284 257.34689,174.0452 256.97092,174.19901 256.69748,174.48099 256.42404,174.75443 256.26169,175.12186 256.10788,175.48929 256.10788,175.90799 V 181.30838 Q 256.10788,181.72708 256.26169,182.09451 256.42404,182.46194 256.69748,182.74393 256.97092,183.01736 257.34689,183.17972 257.72287,183.33353 258.15866,183.33353 258.51755,183.33353 258.83371,183.23953 259.14987,183.13699 259.40622,182.95755 259.67111,182.77811 259.8591,182.5303 260.05563,182.2825 260.15817,181.98343 H 261.50827 Q 261.38864,182.56448 261.08957,183.06009 260.7905,183.55569 260.34616,183.91458 259.91037,184.27347 259.35495,184.47855 258.79953,184.68362 258.15866,184.68362 257.44089,184.68362 256.81711,184.41873 256.20187,184.15384 255.74045,183.70096 255.27902,183.23953 255.01413,182.6243 254.75778,182.00906 254.75778,181.30838 V 175.90799 Q 254.75778,175.20731 255.01413,174.59207 255.27902,173.97684 255.74045,173.52396 256.20187,173.06253 256.81711,172.79764 257.44089,172.53275 258.15866,172.53275 258.79953,172.53275 259.35495,172.73782 259.91891,172.9429 260.35471,173.31033 260.7905,173.66922 261.08957,174.16483 261.38864,174.66043 261.50827,175.23294 H 260.15817 Q 260.05563,174.94241 259.8591,174.69461 259.67111,174.44681 259.41476,174.26736 259.15842,174.08792 258.83371,173.98538 258.51755,173.88284 258.15866,173.88284 Z"
         id="path185" />
      <path
         d="M 269.55759,183.33353 Q 269.55759,183.58987 269.34396,183.82913 269.13889,184.06839 268.83127,184.26492 268.52365,184.45291 268.16476,184.57254 267.81442,184.68362 267.53244,184.68362 266.83176,184.68362 266.21652,184.41873 265.60129,184.15384 265.13986,183.70096 264.68698,183.23953 264.42209,182.6243 264.1572,182.00906 264.1572,181.30838 V 175.90799 Q 264.1572,175.20731 264.42209,174.59207 264.68698,173.97684 265.13986,173.52396 265.60129,173.06253 266.21652,172.79764 266.83176,172.53275 267.53244,172.53275 268.14767,172.53275 268.69455,172.73782 269.24142,172.9429 269.67722,173.31033 270.11301,173.66922 270.41208,174.16483 270.7197,174.66043 270.83932,175.23294 H 269.43796 Q 269.33542,174.94241 269.14743,174.69461 268.95944,174.44681 268.71164,174.26736 268.46384,174.08792 268.16476,173.98538 267.86569,173.88284 267.53244,173.88284 267.11374,173.88284 266.74631,174.0452 266.37888,174.19901 266.09689,174.48099 265.82346,174.75443 265.6611,175.12186 265.50729,175.48929 265.50729,175.90799 V 181.30838 Q 265.50729,181.72708 265.6611,182.09451 265.82346,182.46194 266.09689,182.74393 266.37888,183.01736 266.74631,183.17972 267.11374,183.33353 267.53244,183.33353 267.9426,183.33353 268.31003,183.11136 268.67746,182.88919 268.9509,182.57303 269.23288,182.25687 269.39523,181.91507 269.55759,181.56473 269.55759,181.30838 V 179.28323 H 268.20749 V 177.93314 H 270.90768 V 184.68362 H 269.55759 Z"
         id="path187" />
      <path
         d="M 278.1196,184.47 Q 277.54709,184.68362 276.93185,184.68362 276.23117,184.68362 275.61594,184.41873 275.0007,184.15384 274.53928,183.70096 274.0864,183.23953 273.8215,182.6243 273.55661,182.00906 273.55661,181.30838 V 175.90799 Q 273.55661,175.20731 273.8215,174.59207 274.0864,173.97684 274.53928,173.52396 275.0007,173.06253 275.61594,172.79764 276.23117,172.53275 276.93185,172.53275 277.63254,172.53275 278.24777,172.79764 278.86301,173.06253 279.31589,173.52396 279.77731,173.97684 280.04221,174.59207 280.3071,175.20731 280.3071,175.90799 V 181.30838 Q 280.3071,182.04324 280.01657,182.68411 279.72604,183.32498 279.23044,183.78641 L 280.35837,186.03372 H 278.90573 Z M 276.93185,173.88284 Q 276.51315,173.88284 276.14572,174.0452 275.77829,174.19901 275.49631,174.48099 275.22287,174.75443 275.06052,175.12186 274.90671,175.48929 274.90671,175.90799 V 181.30838 Q 274.90671,181.72708 275.06052,182.09451 275.22287,182.46194 275.49631,182.74393 275.77829,183.01736 276.14572,183.17972 276.51315,183.33353 276.93185,183.33353 277.24802,183.33353 277.51291,183.24808 L 276.20554,180.63333 H 277.65817 L 278.58102,182.48758 Q 278.75192,182.23978 278.85446,181.9407 278.957,181.64163 278.957,181.30838 V 175.90799 Q 278.957,175.48929 278.79465,175.12186 278.64084,174.75443 278.35886,174.48099 278.08542,174.19901 277.71799,174.0452 277.35056,173.88284 276.93185,173.88284 Z"
         id="path189" />
      <path
         d="M 299.10593,176.58304 Q 299.10593,176.92484 299.09738,177.35208 299.08884,177.77933 299.02902,178.23221 298.97775,178.68509 298.84958,179.12088 298.72995,179.54813 298.49924,179.88992 298.27707,180.22318 297.92673,180.42825 297.58493,180.63333 297.08078,180.63333 296.73898,180.63333 296.457,180.46243 296.17502,180.28299 295.92722,180.00955 295.68796,179.73611 295.47433,179.41141 295.26926,179.07816 295.08127,178.77908 294.89328,178.48001 294.72238,178.2493 294.55148,178.01859 294.38058,177.93314 294.22678,177.85623 294.11569,177.98441 294.01315,178.10403 293.93625,178.35184 293.85934,178.59109 293.81662,178.9158 293.7739,179.24051 293.74826,179.56522 293.72263,179.88992 293.71408,180.18045 293.70554,180.46243 293.70554,180.63333 H 292.35544 Q 292.35544,180.30008 292.36398,179.87283 292.37253,179.43704 292.4238,178.98416 292.48361,178.53128 292.60324,178.10403 292.73141,177.66824 292.95358,177.33499 293.1843,176.99319 293.52609,176.78812 293.87643,176.58304 294.38058,176.58304 294.71384,176.58304 294.99582,176.76248 295.28635,176.94193 295.5256,177.22391 295.77341,177.49734 295.97849,177.8306 296.19211,178.16385 296.3801,178.46292 296.56808,178.76199 296.73898,178.99271 296.90988,179.21487 297.08078,179.28323 297.23459,179.35159 297.34567,179.22342 297.45676,179.0867 297.53366,178.84744 297.61057,178.59964 297.65329,178.28348 297.69601,177.95877 297.7131,177.64261 297.73874,177.3179 297.74728,177.03592 297.75583,176.75394 297.75583,176.58304 Z"
         id="path191" />
      <path
         d="M 301.75485,177.93314 H 308.50534 V 179.28323 H 301.75485 Z"
         id="path193" />
      <path
         d="M 313.85446,179.28323 H 311.15427 V 177.93314 H 313.85446 V 175.23294 H 315.20456 V 177.93314 H 317.90475 V 179.28323 H 315.20456 V 181.98343 H 313.85446 Z"
         id="path195" />
      <path
         d="M 319.20358,180.63333 V 179.28323 H 327.30417 V 180.63333 Z M 319.20358,177.93314 V 176.58304 H 327.30417 V 177.93314 Z"
         id="path197" />
      <path
         d="M 330.92722,173.88284 335.1655,178.12112 V 179.09525 L 330.92722,183.33353 H 329.95309 V 182.35941 L 333.70432,178.60818 329.95309,174.85696 V 173.88284 Z"
         id="path199" />
    </g>
  </g>
</svg>
