<svg xmlns="http://www.w3.org/2000/svg" width="407.057" height="113.243" viewBox="0 0 381.616 106.166"><g font-weight="400" font-family="FantasqueSansMono Nerd Font" letter-spacing="0" word-spacing="0" fill="#fff"><g style="line-height:125%;text-decoration-line:underline" font-size="27.5" text-decoration="underline"><path d="M2.162 18.96L0 18.906V1.517h9.198q1.302.054 2.135.47l-.752 1.96q-.242-.134-.39-.187-.134-.054-.55-.121-.403-.067-1.02-.067h-.94q-.672 0-5.586.027v4.404q.805 0 2.068-.013 1.262-.027 2.08-.027.243 0 .484.013.242.014.43.027t.363.04q.174.014.295.04.134.014.215.027.094.014.147.027l.054.014.242.067-.483 1.947q-.78-.188-1.786-.188-2.66 0-4.11.04 0 .86.028 4.62.04 3.746.04 4.323zM15.818 14.77q0 1.048.524 1.639.537.577 1.477.577.792 0 1.517-.228.738-.242 1.208-.537.47-.31.9-.739.443-.43.618-.658.174-.241.335-.51v-1.276q-1.396-.859-3.155-.859-1.423.013-2.43.725-.994.712-.994 1.867zm8.688-.093q0 1.718.174 1.947.08.107.242.241l.43.336q.268.188.389.282l-1.115 1.598q-.094-.08-.416-.296-.309-.214-.443-.335-.134-.135-.349-.363-.215-.242-.35-.537-.12-.309-.187-.698-.484.47-.886.779-.39.308-1.02.671-.632.363-1.424.55-.792.175-1.732.175-1.706 0-2.9-1.208-1.196-1.222-1.196-2.914 0-.792.309-1.612.309-.832.886-1.423.9-.913 1.907-1.262 1.007-.363 2.31-.363 2.148 0 3.262.685 0-1.933-.765-2.846-.752-.914-2.444-.914-1.437 0-2.215.457-.766.457-1.558 1.866l-1.746-1.1q.927-1.76 2.256-2.498 1.343-.752 3.236-.752 2.417 0 3.881 1.41t1.464 3.692v4.432zM30.535 6.499q1.302-.685 2.31-.98 1.006-.296 2.094-.296.631 0 1.316.202.685.201 1.289.564.618.362 1.007.967.403.59.403 1.302v7.855q0 .296.08.524.094.228.323.416.228.188.362.282.148.094.51.282.04.027.054.04.014 0 .04.014l.054.027-1.128 1.504q-.55-.269-.9-.484-.335-.215-.738-.564-.39-.362-.59-.846-.189-.483-.189-1.1V8.673q0-.684-.711-1.06-.699-.376-1.477-.376-.605 0-1.531.362-.927.35-2.578 1.141v10.206l-2.122.013V9.48q0-1.168-.054-1.853-.04-.698-.107-1.034-.067-.336-.269-1.115l2.149-.496q.255.617.403 1.517zM45.963 13.079v.537q0 3.088 1.974 3.29.363.04 1.45.04 1.49 0 2.068-.322.725-.39 1.101-1.397l1.692.752q0 .013-.054.161-.04.134-.08.215l-.094.242q-.067.16-.148.282-.067.12-.188.308-.107.175-.242.323-.134.147-.308.322-.162.161-.376.322-.215.161-.457.296-.98.577-2.887.577-.82 0-1.396-.04-.564-.04-1.169-.175-.604-.134-1.034-.376-.416-.241-.805-.644-.376-.417-.658-1.007-.524-1.075-.524-3.129v-.577q.027-.726.067-2.619.054-1.893.094-3.128h-.188q-.55 0-1.1.147l-.27-1.96q.43-.161 1.37-.161h.202V3.787q.013-1.101.013-1.571l2.122.013q0 1.235-.027 3.062h1.638l4.015-.027h.241v1.974H47.75q-.309 0-.806.026-.483.014-.792.014-.067 1.584-.12 3.504-.055 1.907-.068 2.297zM58.518 14.77q0 1.048.524 1.639.537.577 1.477.577.792 0 1.517-.228.739-.242 1.209-.537.47-.31.9-.739.442-.43.617-.658.175-.241.336-.51v-1.276q-1.397-.859-3.156-.859-1.423.013-2.43.725-.994.712-.994 1.867zm8.688-.093q0 1.718.174 1.947.081.107.242.241.175.135.43.336.268.188.39.282l-1.115 1.598q-.094-.08-.417-.296-.308-.214-.443-.335-.134-.135-.349-.363-.215-.242-.349-.537-.12-.309-.188-.698-.483.47-.886.779-.39.308-1.02.671-.632.363-1.424.55-.792.175-1.732.175-1.706 0-2.9-1.208-1.196-1.222-1.196-2.914 0-.792.31-1.612.308-.832.885-1.423.9-.913 1.907-1.262 1.007-.363 2.31-.363 2.148 0 3.263.685 0-1.933-.766-2.846-.752-.914-2.444-.914-1.436 0-2.215.457-.766.457-1.558 1.866l-1.745-1.1q.926-1.76 2.255-2.498 1.343-.752 3.237-.752 2.417 0 3.88 1.41 1.464 1.41 1.464 3.692v4.432zM73.208 11.306q-1.558-.832-1.558-2.873.014-1.639 1.316-2.471 1.303-.833 3.223-.833 1.41 0 2.873.484 1.464.47 2.23 1.41l-1.518 1.49q-.524-.604-1.517-.993-.98-.403-1.88-.403-1.141 0-1.88.322-.738.322-.738.94 0 .47.188.738.2.269.617.457.578.242 1.343.524l1.302.456q.551.188 1.182.457.645.255 1.074.51.443.242.887.604.443.363.698.78.268.415.43.993.16.577.16 1.275 0 1.518-.872 2.484-.873.967-2.095 1.29-1.155.268-2.323.268-2.524 0-3.84-1.235-1.316-1.249-1.316-3.465l2.108.014q0 2.766 3.008 2.766 1.343 0 2.296-.564.953-.577.953-1.625 0-.59-.268-.953-.269-.376-.886-.846-.551-.403-2.565-1.034-2-.631-2.632-.967zM87.468 11.87q0 5.09 3.76 5.09.35 0 .698-.108.363-.121.55-.202.202-.094.565-.402.376-.323.43-.376.067-.054.456-.444V9.574q-.524-.833-.927-1.249-.389-.43-.993-.658-.604-.241-1.518-.241-1.638 0-2.336 1.14-.685 1.129-.685 3.304zm8.567-3.169v12.273q0 1.343.202 3.303l-2.135.121q-.175-1.41-.175-3.491v-2.712l-.215.134q-.161.107-.215.148-.053.026-.215.12-.147.094-.241.135-.08.026-.242.094-.148.067-.282.094-.134.026-.322.053-.175.04-.376.054-.188.013-.403.013-6.042 0-6.042-7.425 0-1.383.282-2.498.295-1.128.886-1.973.59-.86 1.598-1.33 1.007-.47 2.35-.47 2.067 0 3.437 1.222.013-.403.148-1.289l2.202.269q-.242 1.598-.242 3.155zM110.242 19.08q-.484-.348-.766-.577-.268-.241-.577-.684-.309-.457-.443-.994-.954.98-2 1.53-1.048.538-2.445.565h-.12q-1.961 0-2.78-.564-1.504-1.034-1.504-2.283-.013-.806-.013-2.323t-.014-2.632q0-1.114-.027-2.336-.027-1.236-.094-2.041-.053-.82-.16-1.142l2.148-.362q.08.349.134 1.02.054.658.067 1.813.027 1.141.027 2.041.013.9.013 2.7.014 1.785.014 2.779.107.604.671 1.02.336.242 1.423.242 1.303-.054 2.135-.564.04-.027.323-.188.282-.161.389-.228.107-.068.35-.256.254-.188.389-.335.147-.161.322-.416.174-.256.295-.538V5.25h2.122v10.487q.027.82 1.222 1.773l-1.101 1.57zM115.479 11.158q4.283-.026 7.09-.349-.162-1.611-1.102-2.564-.926-.967-2.31-.967-1.65 0-2.658 1.141-1.007 1.128-1.02 2.74zm3.665-5.921q1.048 0 1.894.295.859.296 1.423.752.564.457.994 1.115.43.644.658 1.275.228.618.362 1.33.148.711.188 1.208.04.497.04.98 0 .47-.013.578-6.002.403-9.211.443 0 1.665.966 2.74.98 1.073 2.928 1.073 1.289 0 2.175-.537.886-.537 1.396-1.249l1.652 1.464q-.295.322-.47.497-.161.174-.698.59-.524.404-1.034.645-.51.229-1.343.443-.832.202-1.732.202-2.914 0-4.445-1.907-1.517-1.907-1.517-5.156 0-2.995 1.517-4.888 1.518-1.893 4.27-1.893zM129.86 9.426q-1.02-.483-1.692-1.436-.658-.954-.658-2.323 0-2.055 1.53-3.13 1.531-1.073 3.814-1.073h.12q5.09.067 5.788 3.84l-2.135.39q-.362-1.236-1.222-1.693-.86-.47-2.484-.47-1.907 0-2.806.887-.47.483-.47 1.181 0 .766.362 1.222.363.443 1.007.752.538.255 2.525.685 1.987.43 2.927.86 1.195.577 2 1.785.82 1.195.82 2.834 0 1.315-.443 2.35-.443 1.033-1.236 1.678-.778.644-1.812.98-1.034.322-2.256.322h-.255q-1.72-.04-2.954-.496-1.236-.47-1.92-1.263-.672-.805-.98-1.759-.31-.966-.31-2.148h2.122q0 1.705.98 2.672.994.967 3.142.967 3.773 0 3.773-3.196 0-1.034-.51-1.732-.497-.712-1.343-1.074-.725-.31-2.605-.739-1.88-.443-2.82-.873zM143.918 14.77q0 1.048.524 1.639.537.577 1.477.577.792 0 1.518-.228.738-.242 1.208-.537.47-.31.9-.739.443-.43.617-.658.175-.241.336-.51v-1.276q-1.396-.859-3.155-.859-1.424.013-2.43.725-.995.712-.995 1.867zm8.688-.093q0 1.718.175 1.947.08.107.241.241.175.135.43.336.269.188.39.282l-1.115 1.598q-.094-.08-.416-.296-.31-.214-.443-.335-.135-.135-.35-.363-.214-.242-.349-.537-.12-.309-.188-.698-.483.47-.886.779-.39.308-1.02.671-.631.363-1.424.55-.792.175-1.732.175-1.705 0-2.9-1.208-1.195-1.222-1.195-2.914 0-.792.309-1.612.308-.832.886-1.423.9-.913 1.907-1.262 1.007-.363 2.31-.363 2.148 0 3.262.685 0-1.933-.765-2.846-.752-.914-2.444-.914-1.437 0-2.216.457-.765.457-1.557 1.866l-1.746-1.1q.927-1.76 2.256-2.498 1.343-.752 3.236-.752 2.417 0 3.88 1.41 1.464 1.41 1.464 3.692v4.432zM158.635 6.499q1.303-.685 2.31-.98 1.007-.296 2.095-.296.63 0 1.315.202.685.201 1.29.564.617.362 1.007.967.402.59.402 1.302v7.855q0 .296.081.524.094.228.322.416.229.188.363.282.148.094.51.282.04.027.054.04.013 0 .04.014l.054.027-1.128 1.504q-.55-.269-.9-.484-.335-.215-.738-.564-.39-.362-.591-.846-.188-.483-.188-1.1V8.673q0-.684-.712-1.06-.698-.376-1.477-.376-.604 0-1.53.362-.927.35-2.579 1.141v10.206l-2.121.013V9.48q0-1.168-.054-1.853-.04-.698-.107-1.034-.068-.336-.269-1.115l2.148-.496q.256.617.403 1.517zM172.842 11.306q-1.558-.832-1.558-2.873.014-1.639 1.316-2.471 1.303-.833 3.223-.833 1.41 0 2.873.484 1.464.47 2.23 1.41l-1.518 1.49q-.524-.604-1.517-.993-.98-.403-1.88-.403-1.142 0-1.88.322-.739.322-.739.94 0 .47.188.738.202.269.618.457.577.242 1.343.524l1.302.456q.55.188 1.182.457.644.255 1.074.51.443.242.886.604.443.363.699.78.268.415.43.993.16.577.16 1.275 0 1.518-.872 2.484-.873.967-2.095 1.29-1.155.268-2.323.268-2.525 0-3.84-1.235-1.316-1.249-1.316-3.465l2.108.014q0 2.766 3.008 2.766 1.342 0 2.296-.564.953-.577.953-1.625 0-.59-.268-.953-.269-.376-.887-.846-.55-.403-2.564-1.034-2.001-.631-2.632-.967zM184.269 1.598l2.081.013q.47 1.437.913 2.444.457 1.007 1.182 2.296.738 1.33 1.275 2.404l.699-1.303q.59-1.1.86-1.61.268-.511.724-1.41.47-.914.766-1.585.308-.685.51-1.236h2.108l.013 17.403h-2.108l-.027-12.421q-.362.698-1.074 1.974-.698 1.276-1.141 2.108-.43.82-.497 1.034l-1.638-.04q-.04-.094-.296-.564-.241-.47-.765-1.45-.51-.994-1.007-1.947-.296-.632-.416-.846v12.152h-2.122l-.04-17.416zM206.492 16.06q1.195-1.128 1.195-4.23v-.242q-.027-2.014-.806-3.223-.779-1.208-2.457-1.208-1.02 0-1.746.39-.711.389-1.114 1.14-.403.753-.591 1.72-.175.953-.175 2.242 0 1.987.873 3.102.873 1.1 2.538 1.1.765-.013 1.262-.187.51-.175 1.02-.604zm-2.31 2.873q-2.685-.013-4.095-1.665-1.41-1.665-1.41-4.552 0-1.222.16-2.296.175-1.088.565-2.068.403-.994.994-1.705.604-.712 1.517-1.128.913-.43 2.054-.43 1.934 0 3.129.671 1.208.658 1.934 2.028.792 1.53.792 3.867 0 1.209-.175 2.243-.16 1.02-.564 1.974-.403.94-1.034 1.61-.617.659-1.598 1.062-.98.39-2.242.39h-.027zM215.569 6.499q1.302-.685 2.31-.98 1.006-.296 2.094-.296.631 0 1.316.202.685.201 1.29.564.617.362 1.006.967.403.59.403 1.302v7.855q0 .296.08.524.095.228.323.416.228.188.362.282.148.094.51.282.041.027.054.04.014 0 .04.014l.054.027-1.128 1.504q-.55-.269-.9-.484-.335-.215-.738-.564-.39-.362-.59-.846-.189-.483-.189-1.1V8.673q0-.684-.711-1.06-.698-.376-1.477-.376-.604 0-1.531.362-.927.35-2.578 1.141v10.206l-2.122.013V9.48q0-1.168-.053-1.853-.04-.698-.108-1.034-.067-.336-.268-1.115l2.148-.496q.255.617.403 1.517zM234.958 16.06q1.196-1.128 1.196-4.23v-.242q-.027-2.014-.806-3.223-.779-1.208-2.457-1.208-1.02 0-1.746.39-.712.389-1.114 1.14-.403.753-.591 1.72-.175.953-.175 2.242 0 1.987.873 3.102.873 1.1 2.538 1.1.765-.013 1.262-.187.51-.175 1.02-.604zm-2.31 2.873q-2.685-.013-4.095-1.665-1.41-1.665-1.41-4.552 0-1.222.162-2.296.174-1.088.564-2.068.402-.994.993-1.705.605-.712 1.518-1.128.913-.43 2.054-.43 1.934 0 3.129.671 1.208.658 1.933 2.028.793 1.53.793 3.867 0 1.209-.175 2.243-.161 1.02-.564 1.974-.403.94-1.034 1.61-.618.659-1.598 1.062-.98.39-2.242.39h-.027zM264.741 19.027q-3.034-6.647-6.969-13.522v8.822q.014 3.881.014 4.66h-2.135V1.517l2.135.054q1.222 1.786 3.477 5.881 2.27 4.096 3.492 6.7-.04-2.618-.04-5.37 0-4.19.16-7.251h2.068q-.107 2.027-.107 5.707 0 1.503.027 4.74.027 3.236.027 4.793 0 .39-.014 1.142v1.1l-2.135.014zM272.046 11.158q4.283-.026 7.09-.349-.161-1.611-1.101-2.564-.927-.967-2.31-.967-1.652 0-2.659 1.141-1.007 1.128-1.02 2.74zm3.666-5.921q1.047 0 1.893.295.86.296 1.423.752.564.457.994 1.115.43.644.658 1.275.228.618.362 1.33.148.711.188 1.208.04.497.04.98 0 .47-.013.578-6.002.403-9.211.443 0 1.665.967 2.74.98 1.073 2.927 1.073 1.289 0 2.175-.537.887-.537 1.397-1.249l1.651 1.464q-.295.322-.47.497-.16.174-.698.59-.524.404-1.034.645-.51.229-1.343.443-.832.202-1.732.202-2.914 0-4.444-1.907-1.518-1.907-1.518-5.156 0-2.995 1.518-4.888 1.517-1.893 4.27-1.893zM288.079 7.197q.913-1.114 2.014-1.557 1.1-.457 2.712-.457 1.598 0 2.216 1.007.63.994.63 2.968v.08h-2.094q0-.134-.013-.43-.014-.308-.027-.43 0-.12-.04-.335-.027-.228-.108-.309-.067-.094-.188-.201-.12-.12-.309-.161-.188-.04-.443-.04-.577 0-1.087.134t-1.115.483q-.59.336-1.155 1.061-.564.725-1.047 1.8v8.137l-2.095-.014V8.688q0-.121-.013-.228-.014-.121-.067-.229-.054-.12-.094-.201-.027-.094-.135-.202l-.147-.188q-.04-.067-.188-.201t-.215-.188q-.067-.067-.255-.228-.175-.161-.255-.229l1.396-1.893q.094.08.39.322.308.229.43.323.12.094.348.322.242.215.376.39.135.16.296.416.16.255.282.523zM300.446 12.528q0 2.189.67 3.317.686 1.128 2.324 1.128.913 0 1.517-.229.605-.241.994-.658.403-.43.926-1.262V8.956q-.63-.617-1.597-1.141-.954-.524-1.786-.524-1.652 0-2.35 1.195-.698 1.195-.698 4.042zm8.54 2.833v.35q0 1.57.241 3.142l-2.202.255q-.134-.887-.148-1.29-1.37 1.223-3.437 1.223-2.632 0-3.88-1.692-1.236-1.692-1.236-4.566 0-1.437.134-2.524.148-1.101.51-2.082.363-.98.954-1.61.59-.632 1.53-.994.954-.363 2.23-.363 1.638 0 3.182.994v-2.78q0-1.356-.201-3.317L308.81 0q.188 1.53.188 3.478l-.013 11.883zM329.53 18.96l-2.162-.054V1.517h9.198q1.303.054 2.135.47l-.752 1.96q-.241-.134-.39-.187-.133-.054-.55-.121-.403-.067-1.02-.067h-.94q-.672 0-5.586.027v4.404q.806 0 2.068-.013 1.262-.027 2.081-.027.242 0 .483.013.242.014.43.027t.363.04q.174.014.295.04.134.014.215.027.094.014.148.027l.053.014.242.067-.483 1.947q-.78-.188-1.786-.188-2.659 0-4.11.04 0 .86.028 4.62.04 3.746.04 4.323zM348.826 16.06q1.195-1.128 1.195-4.23v-.242q-.027-2.014-.806-3.223-.779-1.208-2.457-1.208-1.02 0-1.746.39-.711.389-1.114 1.14-.403.753-.591 1.72-.175.953-.175 2.242 0 1.987.873 3.102.873 1.1 2.538 1.1.765-.013 1.262-.187.51-.175 1.02-.604zm-2.31 2.873q-2.685-.013-4.095-1.665-1.41-1.665-1.41-4.552 0-1.222.16-2.296.175-1.088.565-2.068.403-.994.993-1.705.605-.712 1.518-1.128.913-.43 2.054-.43 1.934 0 3.129.671 1.208.658 1.934 2.028.792 1.53.792 3.867 0 1.209-.175 2.243-.16 1.02-.564 1.974-.403.94-1.034 1.61-.617.659-1.598 1.062-.98.39-2.242.39h-.027zM357.903 6.499q1.302-.685 2.31-.98 1.006-.296 2.094-.296.631 0 1.316.202.685.201 1.29.564.617.362 1.006.967.403.59.403 1.302v7.855q0 .296.08.524.095.228.323.416.228.188.362.282.148.094.51.282.041.027.054.04.014 0 .04.014l.054.027-1.128 1.504q-.55-.269-.9-.484-.335-.215-.738-.564-.39-.362-.59-.846-.189-.483-.189-1.1V8.673q0-.684-.711-1.06-.698-.376-1.477-.376-.605 0-1.531.362-.927.35-2.578 1.141v10.206l-2.122.013V9.48q0-1.168-.053-1.853-.04-.698-.108-1.034-.067-.336-.268-1.115l2.148-.496q.255.617.403 1.517zM373.331 13.079v.537q0 3.088 1.974 3.29.363.04 1.45.04 1.49 0 2.068-.322.725-.39 1.101-1.397l1.692.752q0 .013-.053.161-.04.134-.081.215l-.094.242q-.067.16-.148.282-.067.12-.188.308-.107.175-.241.323-.135.147-.31.322-.16.161-.375.322t-.457.296q-.98.577-2.887.577-.819 0-1.396-.04-.564-.04-1.169-.175-.604-.134-1.033-.376-.417-.241-.806-.644-.376-.417-.658-1.007-.524-1.075-.524-3.129v-.577q.027-.726.067-2.619.054-1.893.094-3.128h-.188q-.55 0-1.1.147l-.27-1.96q.43-.161 1.37-.161h.202V3.787q.013-1.101.013-1.571l2.122.013q0 1.235-.027 3.062h1.638l4.015-.027h.242v1.974h-4.257q-.309 0-.806.026-.483.014-.792.014-.067 1.584-.12 3.504-.054 1.907-.068 2.297z"/></g><g style="line-height:125%" font-size="17.5"><path d="M3.004 56.29q0 .666.333 1.042.342.367.94.367.504 0 .966-.145.47-.154.769-.342.299-.197.572-.47.282-.273.394-.419.11-.154.213-.324v-.812q-.889-.547-2.008-.547-.906.009-1.547.461-.632.453-.632 1.188zm5.529-.06q0 1.093.11 1.238.052.069.155.154l.273.214q.17.12.248.18l-.71 1.016q-.06-.051-.264-.188-.197-.137-.282-.214-.086-.085-.222-.23-.137-.154-.223-.342-.076-.197-.12-.444-.307.299-.563.495-.248.197-.65.427-.401.231-.905.35-.505.112-1.103.112-1.085 0-1.845-.77-.76-.777-.76-1.853 0-.505.196-1.026.196-.53.564-.906.572-.58 1.213-.803.64-.23 1.47-.23 1.367 0 2.076.435 0-1.23-.487-1.811-.478-.581-1.555-.581-.914 0-1.41.29-.487.29-.991 1.188l-1.111-.7q.59-1.12 1.436-1.59.854-.479 2.059-.479 1.538 0 2.47.898.93.897.93 2.35v2.82zM16.462 54.862q0-3.307-2.35-3.307-.145 0-.29.034-.137.035-.248.069-.102.025-.248.12-.145.085-.213.128-.06.034-.214.17-.154.137-.188.163l-.188.188-.162.162v3.734q.487.786.914 1.077.427.29 1.265.29 1.042 0 1.478-.717.444-.727.444-2.11zm1.342.162q0 .88-.188 1.59-.18.709-.564 1.256-.376.547-1.017.846-.632.29-1.495.29-1.308 0-2.18-.777-.008.256-.093.82l-1.41-.162q.162-1.068.162-2.017v-.205q0-1.034-.008-3.7V49.06q0-.854-.128-2.102l1.358-.077q.12.974.12 2.222v1.734q.29-.213.427-.307.145-.094.47-.197.333-.102.735-.102 3.811 0 3.811 4.793zM21.085 54.443q0 .65.103 1.171.11.521.265.855.153.333.401.572.257.23.47.35.222.12.53.188.308.06.487.077.188.01.453.01h.111q.931 0 1.487-.334.555-.342.931-.966l1.077.778q-.017.017-.154.214-.128.188-.248.316-.11.128-.324.35-.214.222-.47.376-.248.145-.581.3-.325.144-.76.23-.437.077-.924.077-.846 0-1.53-.137-.674-.137-1.23-.547-.794-.615-1.128-1.564-.324-.957-.324-2.315 0-1.162.273-1.974.273-.82.829-1.299.555-.487 1.307-.7.76-.223 1.803-.223 1.18 0 1.957.598.59.453.974 1.359l-1.316.513q-.043-.154-.085-.257-.034-.11-.163-.299-.128-.188-.299-.299-.162-.12-.47-.213-.307-.094-.692-.094-1.427 0-2.093.683-.667.684-.667 2.205zM30.151 54.862q0 1.393.428 2.11.435.718 1.478.718.58 0 .965-.145.385-.154.633-.419.256-.273.59-.803V52.59q-.402-.393-1.017-.726-.607-.333-1.137-.333-1.051 0-1.495.76-.445.76-.445 2.572zm5.435 1.803v.222q0 1 .154 2l-1.402.162q-.085-.564-.094-.82-.871.777-2.187.777-1.675 0-2.47-1.076-.786-1.077-.786-2.906 0-.914.086-1.606.094-.7.324-1.324.231-.624.607-1.026t.974-.632q.607-.23 1.419-.23 1.042 0 2.025.631V49.07q0-.863-.128-2.111l1.367-.068q.12.974.12 2.213l-.01 7.562zM39.252 53.99q2.726-.017 4.511-.222-.102-1.025-.7-1.632-.59-.615-1.47-.615-1.051 0-1.692.726-.64.718-.65 1.743zm2.332-3.768q.667 0 1.205.188.547.188.906.479.359.29.632.709.274.41.42.812.144.393.23.846.094.452.12.769.025.316.025.623 0 .3-.009.368-3.82.256-5.862.282 0 1.06.615 1.743.624.684 1.863.684.82 0 1.385-.342.563-.342.888-.795l1.051.932q-.188.205-.299.316-.102.11-.444.376-.333.256-.658.41-.325.145-.855.282-.53.128-1.102.128-1.854 0-2.828-1.213-.966-1.214-.966-3.282 0-1.905.966-3.11.965-1.205 2.717-1.205zM51.146 48.129q-.367 0-.624.102-.247.103-.393.248-.136.145-.213.402-.069.247-.086.461-.017.214-.017.547v.333q.282 0 1.137.01h1.179q.889.025 1.376.17l-.248 1.248q-.333-.111-.838-.111h-2.606q.026 3.947.026 7.408h-1.342q0-5.52-.025-7.408H47.25V50.23h1.23q0-.068-.009-.18v-.196q0-.436.043-.786.043-.359.197-.795.153-.444.418-.734.274-.3.77-.505.503-.205 1.178-.205 1.564 0 2.453.325.897.325 1.401 1.324l-1.076.658q-.317-.623-.846-.811-.53-.197-1.863-.197zM57.375 59.596q0 .769.428 1.051.436.282 1.341.282h.898q.401 0 .751-.086.36-.076.693-.264.333-.188.53-.556.196-.359.196-.863 0-.82-2.307-.82-.564 0-1.812.017-.342.137-.53.478-.188.342-.188.76zm2.043-5.409q.854 0 1.401-.333t.547-.94q0-.786-.47-1.111-.461-.325-1.342-.325-.871 0-1.46.41-.582.41-.582 1 0 1.299 1.906 1.299zm-3.256-1.213q0-1.333.897-2.06.906-.735 2.495-.735 1.333 0 2.17.513.343-.325.736-.427.401-.103 1.136-.103v1.402q-.256-.043-.376-.043-.59 0-.777.188.256.461.256 1.17 0 1.197-.889 1.898-.888.692-2.35.692-.99 0-1.7-.274-.367.428-.367.838 0 1.008 1.538 1.008.11 0 .769-.009.658-.009.777-.009.641 0 1.162.111.53.103.975.342.444.23.692.658.256.427.256 1.017 0 1.59-.966 2.35-.957.76-2.606.76h-.88q-1.41 0-2.247-.658-.83-.658-.83-1.957 0-1.222.744-1.871-.726-.538-.726-1.632 0-.974.632-1.7-.52-.582-.52-1.47zM70.723 54.025q0-.77-.077-1.214-.069-.444-.3-.752-.221-.307-.606-.41-.385-.11-1.042-.11-.616 0-1.197.367-.58.367-.794.794v4.555q0 .905-.086 1.692l-1.35-.069q.094-.846.094-1.675l-.009-10.236h1.359v3.947q.512-.324.982-.504t1.06-.18q.94 0 1.564.172.623.17 1.085.726.419.495.538 1 .12.504.12 1.333v.564q0 .752-.01 1.674v1.342q0 .342.163.564.171.222.573.487l-.752 1q-.3-.171-.504-.316-.197-.146-.402-.368-.205-.23-.308-.538-.102-.308-.102-.7v-3.145zM76.14 46.932h2.008v1.923H76.14v-1.923zm.889 3.359h.991l.009 6.861q.026.487.282.615.256.12.923.12.666 0 1.35-.154.684-.162 1.094-.47l.58.974q-.52.428-1.34.65-.821.213-1.676.213-1.153 0-1.751-.324-.795-.436-.795-1.59v-5.562q-1.17 0-2.205.239l-.247-1.214q1.546-.358 2.785-.358zM87.308 46.95l2 .025v1.923l-2-.026V46.95zm.573 12.97l-.01-8.356h-.136q-.991 0-2.05.248l-.24-1.214q1.547-.359 2.769-.359h1v9.716q0 .393-.069.718-.068.324-.248.623-.18.3-.461.505-.282.205-.735.324-.453.128-1.043.128-.461 0-.828-.06-.368-.06-.83-.247-.452-.188-.888-.598-.427-.41-.812-1.034l1.077-.838q.299.496.598.804.3.316.581.444.282.128.47.162.197.034.453.034h.145q.334 0 .59-.11.265-.112.393-.283.137-.17.196-.324.069-.154.077-.282zM96.588 54.11q.615 0 .974-.461.36-.462.36-1.068 0-.248-.06-.428-.078-.256-.308-.453-.222-.205-.59-.205-.342 0-.726.188-1.205.573-2.154 1.214v.769q.667.102 1.692.333.513.111.812.111zm-2.504-2.683q.633-.427 1.419-.795.786-.367 1.384-.367.889 0 1.564.487.684.487.769 1.239.043.325.043.7 0 .436-.069.795-.051.308-.427.812-.367.496-.948.77.367.273.572.691.214.419.376.932.162.512.325.777.222.368.709.718l-.718.923q-.29-.137-.53-.35-.239-.223-.384-.394-.137-.17-.29-.478-.146-.316-.189-.427-.042-.12-.153-.453-.026-.06-.035-.094-.153-.436-.564-.803-.401-.376-.914-.607-.513-.23-1.008-.368-.487-.145-.923-.196-.017 1.623-.017 2.905v.607q.009.376.009.496h-1.342V48.453q0-.7-.196-1.324l1.307-.376q.23.59.23 1.145v3.529zM104.185 46.787h.99l.026 10.348q.026.487.282.615.257.12.923.12.667 0 1.35-.154.684-.162 1.094-.47l.581.974q-.521.427-1.341.65-.82.213-1.675.213-1.154 0-1.752-.324-.795-.436-.795-1.59l-.025-9.057h-.274q-.213-.01-.359-.01-.99 0-1.623.146l-.24-1.222q1.035-.24 2.838-.24zM116.233 50.18q.436 0 .743.264.308.257.453.675.145.41.197.778.06.367.06.735V57.1q0 .299.239.538.24.23.547.35l-.522 1.137q-.247-.051-.487-.17-.239-.12-.47-.326-.222-.205-.367-.547-.137-.341-.137-.769v-4.972q0-.855-.547-.855-.675 0-1.384 1.546v5.914h-1.205v-6.888q0-.162-.017-.265-.017-.102-.12-.205-.093-.102-.273-.102-.35 0-.76.376-.402.376-.77 1.179v5.905h-1.204l-.026-6.965q0-.905-.256-1.64l1.282-.342q.094.188.17.658.077.47.094.795.308-.53.804-.898.504-.376.957-.376.59 0 .948.393.368.394.368.88.692-1.273 1.683-1.273zM121.06 51.025q.83-.435 1.47-.623.641-.188 1.334-.188.401 0 .837.128.436.128.82.359.393.23.641.615.256.376.256.829v4.999q0 .188.052.333.06.145.205.265.145.12.23.18.095.059.325.179.026.017.034.025.01 0 .026.01l.034.016-.718.957q-.35-.17-.572-.307-.214-.137-.47-.36-.248-.23-.376-.538-.12-.307-.12-.7V52.41q0-.436-.452-.675-.445-.24-.94-.24-.385 0-.975.232-.59.222-1.64.726v6.494l-1.35.009v-6.033q0-.743-.034-1.179-.026-.444-.069-.658-.043-.214-.17-.71l1.366-.315q.163.393.257.965zM133.4 57.11q.76-.718.76-2.692v-.154q-.017-1.282-.513-2.05-.495-.77-1.563-.77-.65 0-1.111.248-.453.248-.71.726-.256.479-.375 1.094-.111.607-.111 1.427 0 1.265.555 1.974.555.7 1.615.7.487-.008.803-.12.325-.11.65-.384zm-1.47 1.828q-1.71-.009-2.606-1.06-.897-1.06-.897-2.896 0-.778.102-1.461.111-.693.359-1.316.256-.633.632-1.086.385-.453.966-.717.58-.274 1.307-.274 1.23 0 1.991.427.77.42 1.23 1.29.505.975.505 2.462 0 .769-.111 1.427-.103.65-.36 1.256-.256.598-.657 1.025-.393.419-1.017.675-.624.248-1.427.248h-.017zM143.389 54.443q0-1.392-.436-2.11t-1.478-.718q-.581 0-.966.154-.384.145-.64.418-.249.265-.582.795v3.726q.538.521.778.683.444.29.931.29 2.393 0 2.393-3.238zm-5.435-1.811v-.205q0-.94-.162-2.008l1.401-.171q.086.564.094.82.872-.777 2.18-.777 1.674 0 2.469 1.085.794 1.076.794 2.905 0 4.725-3.854 4.725-.153 0-.299-.017-.145-.009-.247-.025-.103-.017-.231-.06-.12-.043-.18-.06-.06-.026-.179-.085-.111-.069-.154-.086-.034-.025-.154-.102l-.145-.103v1.769q0 .777.137 2.102l-1.359.077q-.12-.974-.12-2.222l.01-7.562zM148.234 54.443q0 3.239 2.392 3.239.222 0 .445-.069.23-.076.35-.128.128-.06.359-.256.239-.205.273-.24.043-.033.29-.281v-3.726q-.333-.53-.589-.795-.248-.273-.632-.418-.385-.154-.966-.154-1.042 0-1.487.726-.435.718-.435 2.102zm5.451-2.016v7.81q0 .854.128 2.102l-1.358.077q-.111-.897-.111-2.222v-1.726l-.137.086q-.103.068-.137.094-.034.017-.136.076-.094.06-.154.086-.052.017-.154.06-.094.042-.18.06-.085.017-.205.034-.11.025-.239.034-.12.009-.256.009-3.845 0-3.845-4.725 0-.88.18-1.59.187-.718.563-1.256.376-.547 1.017-.846.64-.299 1.495-.299 1.316 0 2.188.778.009-.257.094-.82l1.401.17q-.154 1.017-.154 2.008zM158.146 51.47q.58-.71 1.281-.991.701-.291 1.727-.291 1.016 0 1.41.64.401.633.401 1.89v.05h-1.333q0-.085-.009-.273-.009-.196-.017-.273 0-.077-.026-.214-.017-.145-.068-.196-.043-.06-.12-.129-.076-.077-.196-.102-.12-.026-.282-.026-.368 0-.692.086-.325.085-.71.307-.375.214-.734.675-.36.462-.667 1.145v5.179l-1.333-.01v-6.52q0-.076-.009-.144-.009-.077-.043-.146-.034-.077-.06-.128-.016-.06-.085-.128l-.094-.12q-.025-.042-.12-.128-.093-.085-.136-.12-.043-.042-.162-.145-.111-.102-.163-.145l.889-1.205q.06.051.248.205l.273.205q.077.06.222.205.154.137.24.248.085.103.188.265.102.162.179.333zM166.332 54.084q-.991-.53-.991-1.828.009-1.043.837-1.572.829-.53 2.05-.53.898 0 1.83.307.93.3 1.418.898l-.966.948q-.333-.384-.965-.632-.624-.257-1.197-.257-.726 0-1.196.206-.47.205-.47.598 0 .299.12.47.128.17.393.29.367.154.854.333l.83.291q.35.12.751.29.41.163.684.325.282.154.564.385.282.23.444.495.17.265.273.633.103.367.103.811 0 .966-.555 1.581-.556.615-1.333.82-.735.171-1.479.171-1.606 0-2.444-.786-.837-.794-.837-2.204l1.342.009q0 1.76 1.914 1.76.854 0 1.46-.359.608-.367.608-1.034 0-.376-.171-.607-.171-.239-.564-.538-.35-.256-1.632-.658-1.274-.401-1.675-.615zM176.167 55.212v.342q0 1.966 1.256 2.094.23.025.923.025.948 0 1.316-.205.461-.248.7-.888l1.077.478q0 .01-.034.103-.026.085-.051.136l-.06.154q-.043.103-.094.18-.043.076-.12.196-.068.111-.154.205-.085.094-.196.205-.103.103-.24.205-.136.103-.29.188-.624.368-1.837.368-.521 0-.889-.026-.359-.025-.743-.11-.385-.086-.658-.24-.265-.154-.513-.41-.239-.265-.418-.641-.334-.684-.334-1.991v-.368q.017-.461.043-1.666.034-1.205.06-1.99h-.12q-.35 0-.7.093l-.171-1.247q.273-.103.871-.103h.128v-1q.01-.7.01-1l1.35.01q0 .786-.018 1.948h1.043l2.555-.017h.154v1.256h-2.71q-.196 0-.512.017-.307.009-.504.009-.043 1.008-.077 2.23-.034 1.214-.043 1.461zM189.899 59.032q-.308-.222-.487-.367-.171-.154-.368-.436-.196-.29-.282-.633-.606.624-1.273.975-.666.341-1.555.358h-.077q-1.248 0-1.769-.358-.957-.658-.957-1.453-.009-.513-.009-1.478 0-.966-.009-1.675 0-.71-.017-1.487-.017-.786-.06-1.299-.034-.521-.102-.726l1.367-.23q.051.221.085.649.035.418.043 1.153.017.726.017 1.299.01.572.01 1.717.008 1.137.008 1.77.069.384.427.649.214.154.906.154.829-.035 1.359-.36.025-.016.205-.119t.248-.145q.068-.043.222-.163.162-.12.248-.213.094-.103.205-.265.11-.162.188-.342v-5.776h1.35v6.673q.017.522.777 1.128l-.7 1zM192.522 49.991q.419.445.615.804.205.359.393.897l.607 1.615q.581 1.547.948 2.64.368 1.094.41 1.487.82-.948 1.479-2.563.658-1.615.692-2.906.009-.239.009-.829 0-.675-.017-.828l1.299-.035q.042.231.042 1.658-.009 1.495-.777 3.333-.77 1.837-1.76 3.076-.334.41-.812.521-.47.111-1.299.111 0-.777-.812-3.213-.812-2.435-1.435-3.982-.052-.136-.29-.47-.232-.341-.394-.495l1.102-.82zM200.323 50.607l1.265-.65q.496.863.752 2.196.137.727.222 1.581.094.846.12 1.333.025.487.051 1.444.026.957.034 1.162.752 0 1.145-.923.402-.922.402-2.597v-2.247h1.196v2.597q0 .282.017.547.018.265.06.538.043.265.077.453.034.18.111.47.077.282.103.393l.128.419q.102.308.12.367.615 0 1.008-1.145t.393-3.418q0-1.7-.205-2.896h1.333q.068.64.068 2.649 0 3.067-.76 4.571-.76 1.496-2.154 1.496H205.348q-.034-.137-.23-.804-.189-.675-.257-.982-.82 1.786-2.675 1.811H202.084q-.29-.009-.513-.102 0-.052-.034-.83-.026-.785-.06-1.426-.034-.65-.102-1.53-.06-.88-.163-1.632-.102-.76-.23-1.256-.095-.35-.3-.837t-.359-.752zM216.678 51.572q-.358.607-1 1.59-.64.974-1.119 1.615.265.35.744 1.05.478.693.82 1.18.342.478.419.53.102.077.461.077.171 0 .445-.052v1.308q-.342.05-.53.05-.539 0-1.026-.34-.213-.138-.52-.497-.309-.358-.54-.683-.23-.333-.614-.897-.376-.564-.547-.795-.906 1.18-2.752 3.392l-1.034-.871q.043-.06.47-.598.436-.547 1.154-1.436.726-.889 1.324-1.615-1.384-1.94-2.82-3.837l1.111-.863q.633.872 1.624 2.299 1 1.418 1.008 1.435.65-.786 1.692-2.614.188-.334.29-.76l1.35-.01q-.102.855-.41 1.342zM221.259 60.852q.145 0 .282-.051.136-.052.256-.163.128-.11.23-.222.103-.11.206-.307.102-.197.17-.334.077-.128.171-.367.094-.24.137-.359.043-.12.128-.367l.111-.317q-1.495-5.22-2.999-6.57-.29-.265-.94-.265v-1.308q.47 0 .949.069 1.709.256 3.777 6.203.504-1.478.854-3.179.359-1.7.41-3.084h1.35q0 .76-.12 1.435-.811 4.41-2.546 8.494-.376.957-.94 1.478-.555.521-1.452.521-2.427 0-2.427-3.212h1.333q0 1.085.256 1.495.257.41.804.41zM228.265 51.478l.231-1.29q.393.043 2.376.043h4.084l.205.982-.393.445q-.384.435-1.11 1.23-.719.786-1.496 1.59-.7.709-1.043 1.076-.341.36-.811.949-.462.58-.76 1.11l4.596.01q.607 0 1.444.273l-.341 1.239q-.052-.017-.197-.06-.145-.043-.196-.06-.052-.009-.171-.034-.12-.017-.24-.025-.12-.01-.282-.01h-6.11v-.17q0-1.051.189-1.444.188-.393.418-.76.24-.368.573-.77.342-.41.564-.666.23-.257.7-.752.48-.505.676-.718 1.102-1.205 2.033-2.077h-.265q-.264 0-.982-.009t-1.111-.009q-1.982 0-2.58-.094zM7.123 76.506L5.465 71.49l-1.59 5.187q.377-.085 1.701-.145l1.547-.026zm-2.41-6.801h1.461l3.23 9.647q.24.812.265 1.47H8.268q0-.146-.06-.505-.06-.367-.111-.538l-.598-1.794q-.086 0-.419.009-.333.009-.478.017-.137 0-.47.009-.325.009-.513.017l-.479.025q-.29.01-.495.035-.197.017-.427.042-.231.017-.42.052-.187.034-.341.068l-.504 1.53q-.205.598-.205 1.033H1.364q.008-.179.094-.623.094-.453.179-.735l3.076-9.758zM10.891 73.79q0-2.505-.102-3.949.145-.009.572-.042.427-.043.743-.06.325-.017.761-.017h.154q.692 0 1.282.145.598.137 1.085.427.495.29.777.795.29.504.29 1.17 0 1.334-.734 2.009 1.051.35 1.718 1.196.675.837.675 2 0 1.384-.787 2.29-.786.905-1.914 1.042-.53.068-1.016.068-.342 0-1.137-.034-.795-.034-1.282-.034h-1.162q0-.59.034-2.786.043-2.204.043-4.22zm4.221-1.445q0-.692-.538-1.017-.53-.333-1.461-.333h-.145q-.3 0-.727.043.034.418.034 1.093 0 .282-.008.898-.009.606-.009.93h.479q.333-.008.427-.008.094-.01.325-.026.23-.017.325-.042l.273-.069q.17-.051.308-.12.145-.068.307-.17.171-.103.29-.419.12-.316.12-.692v-.069zm1 3.538q-.444-.368-.872-.487-.418-.12-1.085-.12-.18 0-.692.009-.513.009-.846.009h-.376l-.017 1.786q0 .982-.008 1.572-.009.581-.009.863.496 0 1.06.034.564.026.846.026.52 0 .94-.06.709-.085 1.204-.692.496-.607.496-1.495 0-.496-.154-.83-.145-.333-.487-.615zM23.982 70.978q-.684 0-1.248.324-.564.325-.905.804-.872 1.256-.872 3.375 0 2.401 1.102 3.426.385.36.744.496.359.128.897.128h.12q1.709-.06 2.426-1.632l1.188.65q-.504 1.05-1.376 1.674-.863.624-2.025.624h-.025q-1.855 0-2.88-1-1.53-1.555-1.53-4.349 0-2.495 1.137-4.153.495-.735 1.35-1.205.863-.478 1.923-.478.905 0 1.691.538.795.53 1.35 1.538l-1.162.692q-.734-1.452-1.905-1.452zM30.818 70.978h-.256q-.291 0-.385.017.009.214.009.735 0 .256-.009.829v.863q0 2.888-.034 6.17.752.025 1.649.025.598 0 1.017-.06.427-.06.837-.24.419-.179.718-.538.3-.359.504-.914.103-.273.163-.752.068-.478.068-.846 0-1.042-.23-2.017-.223-.982-.633-1.58-.41-.59-.812-.932-.402-.35-1.05-.555-.642-.205-1.556-.205zm-2.042 8.775l.008-1.204q.017-1.077.026-2.581.017-1.512.017-2.692v-.632q0-1.794-.111-2.854 1.128-.111 1.922-.111 1.718 0 2.803.53 1.094.521 1.897 1.683.538.786.829 1.863.29 1.068.29 2.213 0 .812-.179 1.709-.29 1.444-1.196 2.256-.906.803-2.128.914-.658.06-1.376.06-.324 0-1.316-.034-.99-.026-1.512-.026 0-.273.026-1.094zM38.107 69.773q.478-.034 1.743-.034h1.777q.718 0 1.769.017 1.06.009 1.299.009h.137v1.282h-5.375v2.802h3.742v1.282h-3.742v.256q0 1-.017 2.496-.01 1.486-.01 1.683l4.487-.017q.213 0 .461-.052.248-.06.393-.11l.146-.06.375 1.264q-.076.026-.281.086-.206.06-.317.094-.11.025-.324.051-.205.026-.436.026h-5.828V69.773zM48.66 80.83l-1.376-.034V69.73h5.853q.83.034 1.359.3l-.479 1.247q-.153-.086-.247-.12-.086-.034-.35-.077-.257-.042-.65-.042h-.598q-.428 0-3.555.017v2.802q.513 0 1.316-.009.803-.017 1.324-.017.154 0 .308.01.154.008.273.016.12.01.231.026.111.009.188.026.085.009.137.017.06.009.094.017l.034.009.154.043-.308 1.239q-.495-.12-1.136-.12-1.692 0-2.615.026 0 .546.017 2.939.026 2.384.026 2.751zM62.708 74.558q.487 0 1.119-.06v1.154q0 1.359-.18 2.316-.179.948-.546 1.512-.36.564-.795.863-.436.29-1.051.453-.419.094-1.29.094-.915 0-1.658-.282-.744-.282-1.256-.77-.513-.495-.863-1.187-.342-.692-.504-1.487-.163-.803-.163-1.709 0-3.247 1.573-4.768 1.127-.99 2.81-.99h.172q2.555.059 3.614 2.357l-1.222.59q-.752-1.65-2.486-1.65-.624 0-1.034.12-.41.112-.872.505-1.17 1-1.17 3.93 0 .88.145 1.573.154.683.495 1.256.342.572.975.88.632.307 1.529.307.427 0 .71-.076.427-.094.709-.291.281-.197.504-.598.222-.402.324-1.085.111-.692.111-1.71-.222.018-.623.018h-.393q-.248-.01-.368-.01-1.076 0-1.965.326l-.342-1.24q.957-.358 2.572-.358.24 0 .71.009.478.009.709.009zM66.288 69.747l-.01 4.674q1.052-.239 2.624-.239h1.948q0-1.29-.009-2.555V69.79H72.2v11.032h-1.35V75.48h-1.102q-2.342 0-3.47.24 0 1.64.01 3.075.008 1.427.008 2.026h-1.375V69.764l1.367-.017zM74.764 69.73q1.333-.034 2.846-.034 1.017 0 3.11.026v1.298q-.555 0-1.23-.017-.667-.025-1.051-.025v8.545h.504q.325-.01.547-.01.64 0 1.23.035v1.282q-.871-.052-1.794-.052-.188 0-.624.01h-.7q-.231 0-1.146.034-.914.025-1.666.025v-1.273q.906-.043 1.64-.043h.642v-8.545q-1.641.026-2.256.06l-.052-1.316zM86.06 80.89q-.683 0-1.23-.205-.547-.214-.905-.564-.36-.35-.607-.838-.24-.487-.342-1.008-.102-.521-.111-1.094l1.367.01q.017.504.12.922.11.419.307.77.206.341.556.538.359.188.829.188t.803-.188q.342-.197.547-.539.213-.35.333-.914.12-.573.162-1.213.043-.65.043-1.564 0-1.41-.24-4.144-.221 0-.743-.01-.52-.008-.666-.008-.308.009-.538.034-.231.017-.317.034-.085.009-.213.043l-.154.042-.325-1.264q.718-.171 1.53-.188.607 0 2.179.009h2.247l-.017 1.307h-.786q-.581-.009-.795-.009.188 2.094.188 4.298 0 .7-.034 1.265-.026.564-.111 1.162-.085.59-.23 1.034-.146.444-.394.854-.248.41-.58.675-.334.257-.813.41-.47.154-1.06.154zM95.717 74.626q.922.898 2.52 2.906 1.607 2 1.906 2.785l-1.145.65q-.282-.675-1.76-2.547-1.47-1.88-2.342-2.725-.718.837-.974 1.444v3.725h-1.35v-11.22h1.35v5.17q.812-1.127 2.136-2.503.718-.735 1.393-1.359t1.068-.957q.402-.342.428-.367l.948.905q-1.017.735-2.29 2.043-1.265 1.299-1.888 2.05zM101.843 80.847V69.73h1.376v9.801h4.452q.564-.025 1.034-.188l.35 1.248q-.752.256-1.367.256h-5.845zM110.2 69.781l1.325.01q.299.914.58 1.555.291.64.753 1.46.47.847.811 1.53l.445-.828q.376-.701.547-1.026.17-.325.461-.897.3-.581.487-1.008.197-.436.325-.787h1.341l.01 11.075h-1.342l-.017-7.904q-.231.444-.684 1.256-.444.812-.726 1.341-.274.522-.316.658l-1.043-.025q-.025-.06-.188-.36-.154-.298-.487-.922-.325-.632-.64-1.24-.189-.4-.266-.537v7.733h-1.35l-.025-11.083zM125.18 80.873q-1.932-4.23-4.435-8.605v5.614q.009 2.47.009 2.965h-1.359V69.73l1.359.034q.777 1.137 2.213 3.743 1.444 2.606 2.221 4.264-.025-1.666-.025-3.418 0-2.666.102-4.614h1.316q-.068 1.29-.068 3.631 0 .957.017 3.017t.017 3.05q0 .248-.009.727v.7l-1.358.01zM132.118 69.491q.265 0 .547.051.282.043.666.205.393.154.735.41.342.248.692.71.36.453.607 1.05.256.599.419 1.496.17.897.18 1.983v.094q0 .99-.232 1.922-.222.932-.555 1.581-.487.931-1.299 1.436-.812.504-1.863.504-.828 0-1.58-.3-.744-.307-1.24-.922-1.179-1.444-1.179-3.777 0-1.991.342-3.128.342-1.145.906-1.905.453-.624 1.18-1.008.725-.385 1.674-.402zm-2.034 9.237q.675.897 1.931.897 1.308 0 2-1.281.248-.394.419-1.274.17-.88.179-1.606v-.162q0-2.009-.598-3.17-.675-1.334-1.846-1.334-.607 0-1.017.205-.41.197-.777.684-1.009 1.299-1.009 4.213 0 .735.188 1.563.197.83.53 1.265zM143.568 73.131q0-.658-.188-1.077-.188-.418-.615-.64-.427-.231-.966-.317-.53-.094-1.384-.11-.299 0-.743.025-.436.017-.547.017v1.077l-.01 3.477q.308.01.88.01 1.915 0 2.744-.522.829-.53.829-1.94zm-4.46 7.776l-1.35-.009V69.764q.487 0 1.187-.034.701-.034 1.282-.034.65 0 1.077.025.427.017.897.094.478.069.812.205.341.137.675.376.342.24.632.59.632.76.632 2.093 0 1.53-.58 2.376-.599.863-1.462 1.153-.863.282-2.486.282-.616 0-1.308-.025 0 1.239-.009 2.367v1.674zM153.523 82.07q-.855 0-1.487-.317-.632-.316-.786-1.06-.573.154-1.042.154-1.556 0-2.59-1.06-1.264-1.315-1.264-4.34 0-3.093 1.06-4.452.572-.735 1.213-1.026.64-.299 1.478-.299 2.11 0 3.093 1.76.342.607.521 1.325.188.718.223 1.18.034.46.034 1.085 0 2.478-.795 3.828-.547.897-.795 1.179.069.453.291.615.222.154.752.171h.094q.376 0 .718-.086v1.265q-.342.077-.718.077zm-3.307-4.923q1.513 0 1.812 1.23.59-.743.59-3.23v-.23q0-.573-.026-.94-.026-.376-.163-.914-.136-.539-.401-.983-.308-.513-.812-.803-.496-.3-1.128-.3-1.154 0-1.769 1.026-.607 1.026-.607 2.914 0 2.7.641 3.649.12-.402.334-.692.222-.3.495-.445.274-.154.521-.213.257-.069.513-.069zm.897 2.248q-.017-.633-.256-.898-.23-.273-.76-.273-.428 0-.735.282-.3.282-.3.692v.034q.334.36 1.052.36.555 0 1-.197zM160.555 76.207q.052.077.41.641.36.564.496.786l.419.641q.273.41.453.658.188.248.324.41l.103.094q.086.077.137.128.06.043.145.112.094.068.188.12.103.042.205.068l-.504 1.145q-.359-.052-.692-.265-.325-.214-.556-.496-.82-.897-2.657-3.99-.658-.069-1.931-.282l.009 4.845h-1.35v-9.51q0-.847-.043-1.496 1.341-.128 1.863-.128.726 0 1.205.025.487.017 1.033.103.547.077.932.23.384.146.76.41.385.257.693.633.316.393.512.923.197.521.197 1.042 0 2.769-2.35 3.153zm1.026-3.033q0-.752-.487-1.308-.419-.487-1.214-.675-.794-.196-2.264-.196-.29 0-.538.009l.017 3.674q.213.043.735.154.52.103.846.154.324.042.64.042.214 0 .42-.025.495-.06.802-.154.308-.102.564-.299.257-.197.368-.53.11-.333.11-.846zM166.152 74.763q-.65-.307-1.076-.914-.419-.607-.419-1.478 0-1.308.974-1.991.974-.684 2.427-.684h.077q3.238.043 3.683 2.444l-1.359.248q-.23-.786-.778-1.077-.546-.299-1.58-.299-1.214 0-1.786.564-.3.308-.3.752 0 .487.231.777.231.282.641.479.342.162 1.607.436 1.264.273 1.862.547.76.367 1.274 1.136.52.76.52 1.803 0 .838-.281 1.495-.282.658-.786 1.069-.496.41-1.154.623-.658.205-1.435.205h-.163q-1.093-.025-1.88-.316-.786-.299-1.222-.803-.427-.513-.623-1.12-.197-.615-.197-1.367h1.35q0 1.086.624 1.7.632.616 2 .616 2.4 0 2.4-2.034 0-.658-.324-1.102-.316-.453-.855-.683-.46-.197-1.657-.47-1.197-.282-1.795-.556zM176.543 80.898v-9.852q-.974 0-1.948.01h-1.162V69.73h3.05q2.606-.01 3.478-.01.427 0 1.196.129l-.282 1.299q-.53-.103-.957-.103h-2.008v9.852h-1.367zM188.796 69.602l1.342.111q-.077.513-.077 1.342 0 .658.009 1.751.009 1.086.009 1.521v.496q0 .931-.026 1.495-.017.564-.11 1.29-.086.727-.3 1.265-.213.539-.555.932-.496.572-1.162.82-.667.248-1.564.282-.974 0-1.658-.248-.675-.256-1.085-.777-.41-.522-.615-1.214-.205-.692-.265-1.666-.06-.897-.06-2.837 0-2.444.077-4.469h1.35q-.068 2.82-.068 4.905 0 1.752.06 2.47.11 1.332.64 1.939t1.513.607q.666-.035 1.06-.188.401-.163.751-.53.667-.735.667-4.076 0-.479-.026-1.726-.017-1.248-.017-2.025 0-.778.111-1.47zM194.744 80.864q-.146-1.153-1.47-5.298-1.325-4.152-1.991-5.733l1.299-.453q.692 1.734 1.47 4.084.786 2.342 1.384 4.58.752-3.195 2.93-8.544l1.291.452q-.778 1.829-2.11 5.794-1.325 3.956-1.428 5.11l-1.375.009zM203.11 80.822h-1.12q-.205-.804-.855-5.46-.65-4.666-.812-5.53l1.316-.273q.453 2.419.641 3.965.188 1.538.265 2.683.077 1.145.205 2.068.402-1.333.795-3.196.393-1.871.444-2.435 1.137 0 1.427-.103.034.171.24 1.29.205 1.12.307 1.658.103.53.3 1.376.196.838.367 1.393.085-.726.136-1.846.06-1.128.248-2.657.188-1.538.675-4.17l1.35.273q-.247 1.214-.888 5.81-.641 4.598-.744 5.154h-1.162q-1.247-3.666-1.52-5.239-.394 1.872-1.616 5.239zM216.115 69.371l1.145.727-3.077 5.11q.282.444.786 1.247.505.803.744 1.18.248.367.615.905.368.53.684.906.324.376.675.718l-.889.965q-.196-.188-.384-.384-.188-.205-.342-.368-.145-.17-.342-.427-.197-.256-.308-.393-.11-.137-.324-.453-.214-.325-.3-.444-.085-.129-.333-.513-.247-.385-.324-.496-.069-.12-.36-.58-.29-.462-.367-.59l-2.717 4.605-1.128-.726 3.008-5.127q-.3-.504-.914-1.658-.616-1.162-1.111-1.948-.487-.786-1.026-1.384l1.068-.795q.496.556.966 1.316.47.752 1.017 1.777.547 1.017.812 1.453l2.726-4.623zM221.797 80.873v-1.205q0-.35.025-1.897.035-1.547.035-2.085-.47-.658-1.64-2.734-1.172-2.085-1.548-2.871l1.197-.607q.401.769 1.316 2.435.922 1.658 1.41 2.427.59-.837 1.597-2.598 1.009-1.76 1.274-2.375l1.187.675q-.94 1.88-1.922 3.452-.308.461-.667 1.017-.35.547-.564.863-.205.316-.273.41 0 .197-.01.615-.008.419-.008.658-.043 1.88-.043 2.7v1.12h-1.367zM228.496 80.864l-.812-.752 6.212-9.117q-1.016 0-3.161.025-2.145.018-2.53.018l-.008-1.308q.444 0 2.905-.017 2.46-.017 3.332-.017.223 0 .436.017.214.017.333.043.129.017.265.051.137.026.163.026-.052.598-.154 1.17l-5.785 8.528 4.161.01q.539 0 .812-.035.282-.043.7-.18l.343 1.265q-.718.257-1.35.257h-2.077q-1.077 0-2.384.009l-1.342.009h-.06zM6.593 100.86q.76-.718.76-2.692v-.154q-.017-1.282-.512-2.05-.496-.77-1.564-.77-.65 0-1.11.248-.454.248-.71.726-.256.479-.376 1.094-.111.607-.111 1.427 0 1.265.555 1.974.556.7 1.615.7.487-.008.804-.12.324-.11.649-.384zm-1.47 1.828q-1.709-.009-2.606-1.06-.897-1.06-.897-2.896 0-.778.102-1.461.111-.693.36-1.316.256-.633.632-1.086.384-.453.965-.717.581-.274 1.308-.274 1.23 0 1.99.427.77.42 1.231 1.29.504.975.504 2.462 0 .769-.11 1.427-.103.65-.36 1.256-.256.598-.658 1.025-.393.419-1.017.675-.623.248-1.427.248h-.017zM14.369 91.366q.265 0 .547.051.282.043.666.205.393.154.735.41.342.248.692.71.36.453.607 1.05.256.599.419 1.496.17.897.18 1.983v.094q0 .99-.232 1.922-.222.932-.555 1.581-.487.931-1.299 1.436-.812.504-1.863.504-.828 0-1.58-.3-.744-.307-1.24-.922-1.179-1.444-1.179-3.777 0-1.991.342-3.128.342-1.145.906-1.905.453-.624 1.18-1.008.725-.385 1.674-.402zm-2.034 9.237q.675.897 1.931.897 1.308 0 2-1.281.248-.394.419-1.274.17-.88.179-1.606v-.162q0-2.009-.598-3.17-.675-1.334-1.846-1.334-.607 0-1.017.205-.41.197-.777.684-1.009 1.299-1.009 4.213 0 .735.188 1.563.197.83.53 1.265zM21.512 98.809l3.324-4.256q-.12-.401-.222-.64-.102-.248-.282-.53-.17-.282-.427-.42-.256-.136-.59-.136-1.905 0-1.905 4.76 0 .606.102 1.222zm3.64-3.102l-3.349 4.28q.197.719.538 1.129.342.41.992.41.367 0 .657-.162.291-.171.488-.42.196-.256.333-.657.137-.402.213-.778.077-.376.12-.88.043-.513.051-.88.009-.376.009-.854 0-.658-.051-1.188zm-1.845-4.187q.743 0 1.324.342.581.333.932.871.35.53.572 1.282.222.743.308 1.478.085.735.085 1.564 0 5.776-3.195 5.776-.744 0-1.325-.316-.572-.316-.931-.829-.35-.521-.581-1.239-.231-.718-.325-1.452-.086-.735-.086-1.564 0-.59.043-1.145.043-.564.145-1.162.103-.598.265-1.111.163-.521.41-.983.257-.47.582-.794.333-.334.786-.522.453-.196.99-.196zM30.69 100.936q.598.504 1.649.504 1.05 0 1.649-.504.598-.512.598-1.384 0-.461-.18-.846-.179-.393-.529-.692-.35-.3-.7-.504-.343-.205-.838-.427-.496.222-.846.427-.342.205-.692.504-.35.299-.53.692-.18.385-.18.846 0 .872.599 1.384zm1.649-5.255q.675-.17 1.12-.58.444-.42.444-.855 0-.53-.428-.89-.418-.367-1.153-.367-.735 0-1.162.368-.419.359-.419.889 0 .427.453.846.461.418 1.145.59zm-2.162-3.29q.778-.743 2.145-.743t2.145.743q.777.744.777 1.889 0 .64-.436 1.247-.427.607-1.016.863.854.41 1.503 1.214.65.803.65 1.863 0 1.444-.991 2.375-.983.931-2.615.931-1.632 0-2.623-.931-.983-.931-.983-2.375 0-1.06.65-1.863.649-.803 1.503-1.214-.59-.265-1.042-.871-.445-.607-.445-1.24 0-1.144.778-1.888zM48.967 90.682h2.008v1.923h-2.008v-1.923zm.889 3.359h.991l.01 6.861q.025.487.281.615.256.12.923.12t1.35-.154q.684-.162 1.094-.47l.58.974q-.52.428-1.34.65-.821.213-1.675.213-1.154 0-1.752-.324-.795-.436-.795-1.59v-5.562q-1.17 0-2.204.239l-.248-1.214q1.546-.358 2.785-.358zM56.65 91.605q1.332-.034 2.845-.034 1.016 0 3.11.026v1.298q-.555 0-1.23-.017-.667-.025-1.052-.025v8.545h.505q.324-.01.547-.01.64 0 1.23.035v1.282q-.872-.052-1.794-.052-.188 0-.624.01h-.7q-.232 0-1.146.034-.914.025-1.666.025v-1.273q.906-.043 1.64-.043h.641v-8.545q-1.64.026-2.256.06l-.05-1.316zM67.954 90.537h.991l.026 10.348q.026.487.282.615.256.12.923.12.666 0 1.35-.154.683-.162 1.094-.47l.58.974q-.52.427-1.34.65-.821.213-1.676.213-1.153 0-1.751-.324-.795-.436-.795-1.59l-.026-9.057h-.273q-.214-.01-.359-.01-.991 0-1.624.146l-.239-1.222q1.034-.24 2.837-.24zM74.67 102.722V91.605h1.376v9.801h4.452q.564-.025 1.034-.188l.35 1.248q-.752.256-1.367.256H74.67zM86.761 91.571l1.692.103v11.1h-1.401l-.017-9.092q-.667.837-2.726 2.34l-.863-1.29q.53-.316.991-.649.47-.333.795-.632.325-.3.581-.564.265-.273.427-.504.171-.24.274-.402.11-.162.17-.282.069-.12.077-.128zM102.988 98.168V96.8q.385-.112.624-.188.248-.077.564-.231.316-.163.496-.325.18-.17.307-.436.137-.273.137-.606 0-.376-.18-.889-.008-.034-.06-.162-.05-.137-.068-.18-.017-.043-.06-.162-.042-.128-.06-.188-.016-.06-.06-.171-.033-.12-.05-.188-.01-.068-.035-.171-.025-.111-.034-.188l-.017-.18q-.009-.102-.009-.187 0-.701.47-1.256.282-.334.65-.547.375-.214.837-.317.47-.11.829-.145.359-.042.888-.068l.043 1.35q-1.17.06-1.52.154-.727.256-.753.905 0 .42.257 1.282.264.855.264 1.359 0 .914-.512 1.59-.513.666-1.17.828.657.162 1.17.837.512.667.512 1.581 0 .504-.264 1.367-.257.855-.257 1.274 0 .273.111.461t.274.29q.17.103.461.163.29.06.547.077.256.025.658.043.145.009.222.009l-.043 1.35q-.546-.026-.897-.06-.342-.034-.812-.137-.47-.102-.845-.325-.368-.213-.65-.538-.47-.555-.47-1.256 0-.103.01-.197.008-.102.025-.213.025-.111.034-.188.017-.086.051-.214l.06-.188q.017-.06.068-.205.052-.154.06-.188.017-.034.077-.196.06-.171.069-.188.179-.513.179-.889 0-.333-.137-.598-.128-.274-.307-.436-.18-.17-.496-.325-.316-.162-.564-.239-.24-.077-.624-.188zM116.387 98.168q-.385.11-.633.188-.239.077-.555.239-.316.154-.496.325-.18.162-.316.435-.128.265-.128.599 0 .376.18.888.008.034.06.171l.068.171q.017.043.06.171.042.12.06.18l.05.179q.043.11.052.18l.043.179q.025.102.034.188.009.077.017.18.009.093.009.179 0 .7-.47 1.256-.282.324-.658.538-.367.222-.837.325-.47.102-.82.136-.343.035-.89.06l-.042-1.35q1.162-.06 1.495-.137.71-.179.77-.777.008-.06.008-.128 0-.419-.265-1.273-.256-.864-.256-1.368 0-.914.513-1.58.512-.676 1.17-.838-.658-.162-1.17-.829-.513-.675-.513-1.59 0-.503.256-1.358.265-.863.265-1.281 0-.231-.068-.402-.06-.171-.23-.282-.172-.111-.308-.18-.137-.068-.453-.102-.308-.043-.479-.051-.162-.017-.564-.035-.11-.009-.17-.009l.042-1.35q.53.026.889.069.359.034.82.145.47.103.837.316.376.214.658.547.47.555.47 1.256 0 .103-.009.205-.009.094-.034.205-.017.111-.034.197-.01.077-.051.213l-.052.188-.068.206q-.051.145-.069.179-.009.034-.068.205-.06.162-.068.18-.18.512-.18.888 0 .333.128.607.137.265.317.436.179.162.495.324.316.154.556.231.247.077.632.188v1.367zM135.023 90.024l.274 1.316q-.564.052-3.11.111v12.109q1.093-.035 1.88-.035h.11q.863 0 1.222.077v1.385q-.64-.077-1.162-.077-.214 0-1.59.017-1.375.025-1.81.025 0-.76.008-1.88.01-1.119.01-1.888 0-.273-.018-3.332 0-.795-.009-2.197-.009-1.41-.009-1.922v-3.598q.444 0 1.795-.025 1.35-.034 1.52-.034.573-.026.89-.052zM138.57 90.024q.315.026.888.052.17 0 1.521.034 1.35.026 1.794.026v3.597q0 .513-.009 1.923-.009 1.4-.009 2.196-.017 3.059-.017 3.332 0 .77.01 1.889.008 1.119.008 1.88-.435 0-1.811-.026-1.376-.017-1.59-.017-.52 0-1.162.077v-1.385q.36-.077 1.222-.077h.111q.786 0 1.88.035V91.45q-2.546-.06-3.11-.11l.273-1.317zM157.01 103.346q0 .769.427 1.051.435.282 1.341.282h.897q.402 0 .752-.086.36-.076.692-.264.334-.188.53-.556.197-.359.197-.863 0-.82-2.307-.82-.564 0-1.812.017-.342.137-.53.478-.188.342-.188.76zm2.042-5.409q.854 0 1.4-.333.548-.333.548-.94 0-.786-.47-1.111-.462-.325-1.342-.325-.871 0-1.46.41-.582.41-.582 1 0 1.299 1.906 1.299zm-3.256-1.213q0-1.333.897-2.06.906-.735 2.495-.735 1.333 0 2.17.513.342-.325.736-.427.401-.103 1.136-.103v1.402q-.256-.043-.376-.043-.59 0-.778.188.257.461.257 1.17 0 1.197-.889 1.898-.889.692-2.35.692-.991 0-1.7-.274-.368.428-.368.838 0 1.008 1.538 1.008.112 0 .77-.009.657-.009.777-.009.641 0 1.162.111.53.103.974.342.445.23.692.658.257.427.257 1.017 0 1.59-.966 2.35-.957.76-2.606.76h-.88q-1.41 0-2.247-.658-.83-.658-.83-1.957 0-1.222.744-1.871-.726-.538-.726-1.632 0-.974.632-1.7-.521-.582-.521-1.47zM168.348 92.853q-.914 0-1.52.427-.607.427-.607 1.282 0 .777.606 1.179.607.393 1.462.393.752 0 1.29-.427.547-.427.692-.94-.085-.735-.64-1.325-.556-.59-1.283-.59zm-3.486 1.683q0-1.359.914-2.162.915-.803 2.359-.803.683 0 1.222.18.547.17.923.46.376.283.649.727.282.436.444.897.163.453.257 1.06.094.598.12 1.128.033.521.033 1.17 0 .898-.085 1.65-.085.743-.325 1.487-.239.734-.632 1.247-.384.504-1.034.82-.64.317-1.504.317-1.504 0-2.341-.667-.829-.675-1.265-2.034l1.308-.384q.162.513.307.803.145.29.393.53.257.24.633.333.384.086.965.086.462 0 .82-.146.36-.145.599-.418.247-.274.41-.616.17-.35.256-.803.086-.453.12-.889.042-.444.042-.965l-.025-.914q-.419.418-.94.615-.513.188-1.316.188-1.444 0-2.375-.752-.932-.76-.932-2.145zM175.406 98.193q0 3.239 2.393 3.239.222 0 .444-.069.231-.076.35-.128.129-.06.36-.256.239-.205.273-.24.043-.033.29-.281v-3.726q-.333-.53-.589-.795-.248-.273-.632-.418-.385-.154-.966-.154-1.042 0-1.487.726-.436.718-.436 2.102zm5.452-2.016v7.81q0 .854.128 2.102l-1.358.077q-.111-.897-.111-2.222v-1.726l-.137.086q-.103.068-.137.094-.034.017-.137.076-.094.06-.153.086-.052.017-.154.06-.094.042-.18.06-.085.017-.205.034-.11.025-.239.034-.12.009-.256.009-3.846 0-3.846-4.725 0-.88.18-1.59.188-.718.564-1.256.376-.547 1.017-.846.64-.299 1.495-.299 1.316 0 2.188.778.009-.257.094-.82l1.401.17q-.154 1.017-.154 2.008zM187.019 92.853q-.684 0-1.248.324-.563.325-.905.804-.872 1.256-.872 3.375 0 2.401 1.102 3.426.385.36.744.496.359.128.897.128h.12q1.709-.06 2.426-1.632l1.188.65q-.504 1.05-1.376 1.674-.863.624-2.025.624h-.025q-1.855 0-2.88-1-1.53-1.555-1.53-4.349 0-2.495 1.137-4.153.496-.735 1.35-1.205.863-.478 1.923-.478.905 0 1.692.538.794.53 1.35 1.538l-1.162.692q-.735-1.452-1.906-1.452zM198.572 96.433q.487 0 1.12-.06v1.154q0 1.359-.18 2.316-.18.948-.547 1.512-.359.564-.795.863-.436.29-1.05.453-.42.094-1.291.094-.914 0-1.658-.282-.743-.282-1.256-.77-.513-.495-.863-1.187-.342-.692-.504-1.487-.163-.803-.163-1.709 0-3.247 1.573-4.768 1.128-.99 2.811-.99h.17q2.556.059 3.615 2.357l-1.221.59q-.752-1.65-2.487-1.65-.624 0-1.034.12-.41.112-.872.505-1.17 1-1.17 3.93 0 .88.145 1.573.154.683.496 1.256.341.572.974.88.632.307 1.53.307.427 0 .709-.076.427-.094.709-.291.282-.197.504-.598.222-.402.325-1.085.11-.692.11-1.71-.221.018-.623.018h-.393q-.248-.01-.368-.01-1.076 0-1.965.326l-.342-1.24q.957-.358 2.572-.358.24 0 .71.009.478.009.709.009zM207.869 103.944q-.855 0-1.487-.316-.632-.316-.786-1.06-.573.154-1.043.154-1.555 0-2.589-1.06-1.265-1.315-1.265-4.34 0-3.093 1.06-4.452.573-.735 1.213-1.026.641-.299 1.479-.299 2.11 0 3.093 1.76.342.607.521 1.325.188.718.222 1.18.035.46.035 1.085 0 2.478-.795 3.828-.547.897-.795 1.179.069.453.29.615.223.154.753.171h.094q.376 0 .717-.086v1.265q-.341.077-.717.077zm-3.307-4.922q1.512 0 1.811 1.23.59-.743.59-3.23v-.23q0-.573-.026-.94-.025-.376-.162-.914-.137-.539-.402-.983-.307-.513-.811-.803-.496-.3-1.128-.3-1.154 0-1.77 1.026-.606 1.026-.606 2.914 0 2.7.641 3.649.12-.402.333-.692.222-.3.496-.445.273-.154.521-.213.256-.069.513-.069zm.897 2.248q-.017-.633-.256-.898-.231-.273-.76-.273-.428 0-.736.282-.299.282-.299.692v.034q.333.36 1.051.36.556 0 1-.197zM221.25 96.288q.453 0 .948.24.505.23.855.512.359.273.743.512.393.231.641.231.265 0 .479-.145.222-.145.359-.385.145-.247.23-.478.086-.23.137-.47l1.222.521q-.59 2.265-2.46 2.265-.394 0-.787-.154-.385-.154-.7-.368-.308-.222-.599-.435-.29-.223-.59-.376-.299-.154-.563-.154-.35 0-.727.333-.367.333-.683.906l-1.103-.778q.479-.923 1.06-1.35.581-.427 1.538-.427zM228.744 97.57h6.725v1.333h-6.725V97.57zM240.194 94.493h1.325v3.077h3.29v1.333h-3.29v3.358h-1.325v-3.358h-3.162V97.57h3.162v-3.077zM245.988 99.714q1.196-.068 3.127-.068.778 0 2.085.034 1.316.034 2.025.034l-.017 1.376q-.735 0-2.11-.017-1.376-.026-2.171-.026h-.65q-.427-.009-.649-.009-.906 0-1.64.043v-1.367zm-.018-4.067q.983.06 2.188.06h.786q.812 0 2.11-.017 1.3-.026 2.154-.026v1.359q-.82 0-2.128.034-1.307.034-2.153.034-1.47 0-2.982-.094 0-.914.025-1.35zM262.53 97.646v1q-.162.12-1.46 1.18-1.29 1.059-2.547 1.973-1.248.906-1.923 1.154l-.58-1.188q1.469-.786 4.93-3.563-3.017-2.153-4.136-3.196-.436-.402-.581-.632l1.008-.872q.402.479 1.496 1.342 1.093.854 2.4 1.803 1.317.94 1.394 1z"/></g></g></svg>