<?xml version="1.0" encoding="UTF-8" standalone="no"?>
<svg
   version="1.1"
   id="svg2"
   viewBox="0 0 302.62768 108.71749"
   height="30.682491mm"
   width="85.408257mm"
   sodipodi:docname="FiraMono Nerd Font.svg"
   xmlns:inkscape="http://www.inkscape.org/namespaces/inkscape"
   xmlns:sodipodi="http://sodipodi.sourceforge.net/DTD/sodipodi-0.dtd"
   xmlns="http://www.w3.org/2000/svg"
   xmlns:svg="http://www.w3.org/2000/svg"
   xmlns:rdf="http://www.w3.org/1999/02/22-rdf-syntax-ns#"
   xmlns:cc="http://creativecommons.org/ns#"
   xmlns:dc="http://purl.org/dc/elements/1.1/">
  <sodipodi:namedview
     id="namedview12"
     pagecolor="#ffffff"
     bordercolor="#666666"
     borderopacity="1.0"
     inkscape:showpageshadow="2"
     inkscape:pageopacity="0.0"
     inkscape:pagecheckerboard="0"
     inkscape:deskcolor="#d1d1d1"
     inkscape:document-units="mm" />
  <defs
     id="defs4" />
  <metadata
     id="metadata7">
    <rdf:RDF>
      <cc:Work
         rdf:about="">
        <dc:format>image/svg+xml</dc:format>
        <dc:type
           rdf:resource="http://purl.org/dc/dcmitype/StillImage" />
        <dc:title />
      </cc:Work>
    </rdf:RDF>
  </metadata>
  <g
     id="layer1"
     transform="translate(-65.769403,-79.676132)">
    <g
       aria-label="FiraMono Nerd Font"
       id="text4136"
       style="font-size:27.5px;font-family:'FiraMono Nerd Font';letter-spacing:0px;word-spacing:0px;fill:#ffffff">
      <path
         d="M 69.044643,83.966132 H 77.542143 L 77.817143,81.986132 H 66.652143 V 100.93363 H 69.044643 V 92.518632 H 76.469643 V 90.593632 H 69.044643 Z"
         id="path14" />
      <path
         d="M 87.607155,79.676132 C 86.617155,79.676132 85.957155,80.363632 85.957155,81.298632 85.957155,82.233632 86.617155,82.921132 87.607155,82.921132 88.624655,82.921132 89.312155,82.233632 89.312155,81.298632 89.312155,80.363632 88.624655,79.676132 87.607155,79.676132 Z M 89.449655,86.441132 H 82.822155 V 88.283632 H 87.139655 V 99.091132 H 82.684655 V 100.93363 H 93.519655 V 99.091132 H 89.449655 Z"
         id="path16" />
      <path
         d="M 108.39717,86.138632 C 105.78467,86.138632 104.29967,87.513632 103.19967,89.878632 L 102.75967,86.441132 H 98.744666 V 88.228632 H 101.02717 V 99.146132 H 98.744666 V 100.93363 H 106.27967 V 99.146132 H 103.33717 V 93.041132 C 104.27217,89.851132 105.86717,88.256132 108.09467,88.256132 H 108.23217 V 91.363632 H 110.10217 L 110.43217,86.441132 C 109.79967,86.276132 109.19467,86.138632 108.39717,86.138632 Z"
         id="path18" />
      <path
         d="M 125.50218,97.771132 V 90.813632 C 125.50218,87.953632 123.68718,86.138632 120.08468,86.138632 118.65468,86.138632 117.11468,86.413632 115.32718,87.046132 L 115.95968,88.806132 C 117.44468,88.283632 118.76468,88.063632 119.72718,88.063632 121.87218,88.063632 123.16468,88.833632 123.16468,90.951132 V 92.133632 H 121.01968 C 116.64718,92.133632 114.25468,93.811132 114.25468,96.781132 114.25468,99.476132 116.01468,101.23613 118.92968,101.23613 120.79968,101.23613 122.42218,100.54863 123.46718,99.201132 123.85218,100.52113 124.86968,101.09863 126.10718,101.26363 L 126.68468,99.613632 C 125.85968,99.366132 125.50218,98.926132 125.50218,97.771132 Z M 119.50718,99.503632 C 117.60968,99.503632 116.72968,98.568632 116.72968,96.753632 116.72968,94.883632 117.88468,93.728632 121.07468,93.728632 H 123.16468 V 97.441132 C 122.31218,98.733632 120.93718,99.503632 119.50718,99.503632 Z"
         id="path20" />
      <path
         d="M 143.45969,81.986132 H 140.10469 L 137.16219,94.966132 134.08219,81.986132 H 130.75469 L 129.68219,100.93363 H 131.93719 L 132.43219,91.033632 C 132.56969,88.668632 132.54219,85.231132 132.48719,84.186132 L 135.89719,97.523632 H 138.28969 L 141.47969,84.186132 C 141.47969,85.121132 141.47969,88.421132 141.64469,91.033632 L 142.22219,100.93363 H 144.53219 Z"
         id="path22" />
      <path
         d="M 153.6347,86.138632 C 149.5647,86.138632 147.3647,89.246132 147.3647,93.701132 147.3647,98.266132 149.5372,101.23613 153.6072,101.23613 157.6497,101.23613 159.8497,98.128632 159.8497,93.673632 159.8497,89.108632 157.7047,86.138632 153.6347,86.138632 Z M 153.6347,88.036132 C 156.1097,88.036132 157.3472,89.851132 157.3472,93.673632 157.3472,97.551132 156.1097,99.338632 153.6072,99.338632 151.1047,99.338632 149.8672,97.551132 149.8672,93.701132 149.8672,89.851132 151.1322,88.036132 153.6347,88.036132 Z"
         id="path24" />
      <path
         d="M 164.60721,100.93363 H 166.91721 V 90.401132 C 167.68721,89.246132 169.14471,87.981132 170.84971,87.981132 173.02221,87.981132 173.32471,89.163632 173.32471,92.133632 V 100.93363 H 175.63471 V 90.428632 C 175.63471,87.733632 174.39721,86.138632 171.56471,86.138632 169.85971,86.138632 167.93471,86.991132 166.77971,88.476132 L 166.58721,86.441132 H 164.60721 Z"
         id="path26" />
      <path
         d="M 186.63472,86.138632 C 182.56472,86.138632 180.36472,89.246132 180.36472,93.701132 180.36472,98.266132 182.53722,101.23613 186.60722,101.23613 190.64972,101.23613 192.84972,98.128632 192.84972,93.673632 192.84972,89.108632 190.70472,86.138632 186.63472,86.138632 Z M 186.63472,88.036132 C 189.10972,88.036132 190.34722,89.851132 190.34722,93.673632 190.34722,97.551132 189.10972,99.338632 186.60722,99.338632 184.10472,99.338632 182.86722,97.551132 182.86722,93.701132 182.86722,89.851132 184.13222,88.036132 186.63472,88.036132 Z"
         id="path28" />
      <path
         d="M 222.21975,100.93363 H 225.57475 V 81.986132 H 223.34725 V 91.473632 C 223.34725,94.883632 223.64975,97.936132 223.67725,98.706132 L 216.88475,81.986132 H 213.63975 V 100.93363 H 215.86725 V 91.446132 C 215.86725,88.531132 215.59225,85.121132 215.53725,84.296132 Z"
         id="path30" />
      <path
         d="M 232.44977,94.498632 H 242.18477 C 242.21227,94.196132 242.23977,93.756132 242.23977,93.261132 242.23977,88.861132 239.98477,86.138632 236.32727,86.138632 232.47727,86.138632 230.02977,89.328632 230.02977,93.701132 230.02977,98.211132 232.42227,101.23613 236.65727,101.23613 238.44477,101.23613 240.25977,100.60363 241.60727,99.558632 L 240.53477,98.018632 C 239.24227,98.871132 238.14227,99.311132 236.65727,99.311132 234.42977,99.311132 232.55977,97.853632 232.44977,94.498632 Z M 236.35477,88.036132 C 238.55477,88.036132 239.92977,89.631132 239.98477,92.738632 H 232.44977 C 232.64227,89.548632 234.20977,88.036132 236.35477,88.036132 Z"
         id="path32" />
      <path
         d="M 256.89727,86.138632 C 254.28477,86.138632 252.79977,87.513632 251.69977,89.878632 L 251.25977,86.441132 H 247.24477 V 88.228632 H 249.52727 V 99.146132 H 247.24477 V 100.93363 H 254.77977 V 99.146132 H 251.83727 V 93.041132 C 252.77227,89.851132 254.36727,88.256132 256.59477,88.256132 H 256.73227 V 91.363632 H 258.60227 L 258.93227,86.441132 C 258.29977,86.276132 257.69477,86.138632 256.89727,86.138632 Z"
         id="path34" />
      <path
         d="M 272.29728,80.336132 V 87.871132 C 271.30728,86.743632 270.06978,86.138632 268.39228,86.138632 264.84478,86.138632 262.72728,89.356132 262.72728,93.701132 262.72728,98.211132 264.45978,101.23613 268.25478,101.23613 269.82228,101.23613 271.27978,100.54863 272.35228,99.036132 L 272.57228,100.93363 H 274.60728 V 80.611132 Z M 268.99728,88.008632 C 270.34478,88.008632 271.49978,88.696132 272.29728,89.878632 V 97.083632 C 271.49978,98.293632 270.37228,99.393632 268.72228,99.393632 266.43978,99.393632 265.22978,97.468632 265.22978,93.701132 265.22978,89.878632 266.60478,88.008632 268.99728,88.008632 Z"
         id="path36" />
      <path
         d="M 300.0448,83.966132 H 308.5423 L 308.8173,81.986132 H 297.6523 V 100.93363 H 300.0448 V 92.518632 H 307.4698 V 90.593632 H 300.0448 Z"
         id="path38" />
      <path
         d="M 318.63481,86.138632 C 314.56481,86.138632 312.36481,89.246132 312.36481,93.701132 312.36481,98.266132 314.53731,101.23613 318.60731,101.23613 322.64981,101.23613 324.84981,98.128632 324.84981,93.673632 324.84981,89.108632 322.70481,86.138632 318.63481,86.138632 Z M 318.63481,88.036132 C 321.10981,88.036132 322.34731,89.851132 322.34731,93.673632 322.34731,97.551132 321.10981,99.338632 318.60731,99.338632 316.10481,99.338632 314.86731,97.551132 314.86731,93.701132 314.86731,89.851132 316.13231,88.036132 318.63481,88.036132 Z"
         id="path40" />
      <path
         d="M 329.60733,100.93363 H 331.91733 V 90.401132 C 332.68733,89.246132 334.14483,87.981132 335.84983,87.981132 338.02233,87.981132 338.32483,89.163632 338.32483,92.133632 V 100.93363 H 340.63483 V 90.428632 C 340.63483,87.733632 339.39733,86.138632 336.56483,86.138632 334.85983,86.138632 332.93483,86.991132 331.77983,88.476132 L 331.58733,86.441132 H 329.60733 Z"
         id="path42" />
      <path
         d="M 357.62983,100.19113 356.72233,98.623632 C 355.95233,99.036132 355.01733,99.311132 353.94483,99.311132 351.96483,99.311132 351.16733,98.458632 351.16733,96.863632 V 88.256132 H 355.89733 L 356.19983,86.441132 H 351.16733 V 82.893632 L 348.85733,83.168632 V 86.441132 H 345.52983 V 88.256132 H 348.85733 V 96.891132 C 348.85733,99.421132 350.61733,101.23613 353.72483,101.23613 355.09983,101.23613 356.61233,100.85113 357.62983,100.19113 Z"
         id="path44" />
    </g>
    <g
       aria-label="abcdefghijklmnopqrstuvwxyzABCDEFGHIJKLMNOPQRSTUVWXYZ oO08 iIlL1 {} [] g9qCGQ ~-+=&gt;"
       id="text4140"
       style="font-size:17.5px;font-family:'FiraMono Nerd Font';letter-spacing:0px;word-spacing:0px;fill:#ffffff">
      <path
         d="M 73.784403,138.92112 V 134.49362 C 73.784403,132.67362 72.629403,131.51862 70.336903,131.51862 69.426903,131.51862 68.446903,131.69362 67.309403,132.09612 L 67.711903,133.21612 C 68.656903,132.88362 69.496903,132.74362 70.109403,132.74362 71.474403,132.74362 72.296903,133.23362 72.296903,134.58112 V 135.33362 H 70.931903 C 68.149403,135.33362 66.626903,136.40112 66.626903,138.29112 66.626903,140.00612 67.746903,141.12612 69.601903,141.12612 70.791903,141.12612 71.824403,140.68862 72.489403,139.83112 72.734403,140.67112 73.381903,141.03862 74.169403,141.14362 L 74.536903,140.09362 C 74.011903,139.93612 73.784403,139.65612 73.784403,138.92112 Z M 69.969403,140.02362 C 68.761903,140.02362 68.201903,139.42862 68.201903,138.27362 68.201903,137.08362 68.936903,136.34862 70.966903,136.34862 H 72.296903 V 138.71112 C 71.754403,139.53362 70.879403,140.02362 69.969403,140.02362 Z"
         id="path47" />
      <path
         d="M 79.13941,132.91862 V 127.82612 L 77.66941,128.00112 V 140.93362 H 78.96441 L 79.06941,139.97112 C 79.69941,140.77612 80.52191,141.12612 81.57191,141.12612 83.95191,141.12612 85.22941,139.11362 85.22941,136.31362 85.22941,133.42612 84.23191,131.51862 81.78191,131.51862 80.71441,131.51862 79.82191,132.02612 79.13941,132.91862 Z M 81.23941,139.93612 C 80.38191,139.93612 79.62941,139.49862 79.13941,138.74612 V 134.17862 C 79.64691,133.44362 80.43441,132.70862 81.44941,132.70862 82.88441,132.70862 83.63691,133.91612 83.63691,136.31362 83.63691,138.76362 82.76191,139.93612 81.23941,139.93612 Z"
         id="path49" />
      <path
         d="M 92.351916,139.86612 C 90.759416,139.86612 89.604416,138.83362 89.604416,136.36612 89.604416,133.93362 90.741916,132.76112 92.334416,132.76112 93.156916,132.76112 93.926916,133.04112 94.714416,133.56612 L 95.431916,132.60362 C 94.574416,131.88612 93.541916,131.51862 92.351916,131.51862 89.604416,131.51862 88.011916,133.60112 88.011916,136.36612 88.011916,139.25362 89.586916,141.12612 92.351916,141.12612 93.419416,141.12612 94.661916,140.70612 95.449416,140.02362 L 94.749416,139.06112 C 94.049416,139.53362 93.279416,139.86612 92.351916,139.86612 Z"
         id="path51" />
      <path
         d="M 104.19942,127.82612 V 132.62112 C 103.56942,131.90362 102.78192,131.51862 101.71442,131.51862 99.456922,131.51862 98.109422,133.56612 98.109422,136.33112 98.109422,139.20112 99.211922,141.12612 101.62692,141.12612 102.62442,141.12612 103.55192,140.68862 104.23442,139.72612 L 104.37442,140.93362 H 105.66942 V 128.00112 Z M 102.09942,132.70862 C 102.95692,132.70862 103.69192,133.14612 104.19942,133.89862 V 138.48362 C 103.69192,139.25362 102.97442,139.95362 101.92442,139.95362 100.47192,139.95362 99.701922,138.72862 99.701922,136.33112 99.701922,133.89862 100.57692,132.70862 102.09942,132.70862 Z"
         id="path53" />
      <path
         d="M 110.34193,136.83862 H 116.53693 C 116.55443,136.64612 116.57193,136.36612 116.57193,136.05112 116.57193,133.25112 115.13693,131.51862 112.80943,131.51862 110.35943,131.51862 108.80193,133.54862 108.80193,136.33112 108.80193,139.20112 110.32443,141.12612 113.01943,141.12612 114.15693,141.12612 115.31193,140.72362 116.16943,140.05862 L 115.48693,139.07862 C 114.66443,139.62112 113.96443,139.90112 113.01943,139.90112 111.60193,139.90112 110.41193,138.97362 110.34193,136.83862 Z M 112.82693,132.72612 C 114.22693,132.72612 115.10193,133.74112 115.13693,135.71862 H 110.34193 C 110.46443,133.68862 111.46193,132.72612 112.82693,132.72612 Z"
         id="path55" />
      <path
         d="M 125.11194,127.82612 C 123.20444,127.82612 121.75194,128.89362 121.75194,130.59112 V 132.42862 H 119.56444 V 133.60112 H 121.75194 V 140.93362 H 123.23944 V 133.60112 H 126.19694 L 126.35444,132.42862 H 123.23944 V 130.55612 C 123.23944,129.54112 123.88694,129.03362 125.16444,129.03362 125.86444,129.03362 126.54694,129.15612 127.14194,129.41862 L 127.61444,128.31612 C 126.89694,128.01862 126.10944,127.82612 125.11194,127.82612 Z"
         id="path57" />
      <path
         d="M 137.67694,130.74862 C 136.59194,131.20362 135.78694,131.51862 133.47694,131.51862 131.28944,131.51862 129.80194,132.84862 129.80194,134.72112 129.80194,135.91112 130.29194,136.71612 131.34194,137.25862 130.67694,137.69612 130.32694,138.29112 130.32694,138.86862 130.32694,139.79612 131.04444,140.61862 132.65444,140.61862 H 134.29944 C 135.47194,140.61862 136.36444,141.05612 136.36444,141.93112 136.36444,142.92862 135.47194,143.45362 133.45944,143.45362 131.39444,143.45362 130.90444,142.94612 130.90444,141.86112 H 129.57444 C 129.57444,143.73362 130.51944,144.64362 133.45944,144.64362 136.25944,144.64362 137.85194,143.64612 137.85194,141.84362 137.85194,140.40862 136.45194,139.34112 134.59694,139.34112 H 132.93444 C 131.98944,139.34112 131.70944,138.99112 131.70944,138.55362 131.70944,138.22112 131.91944,137.87112 132.18194,137.66112 132.58444,137.80112 132.95194,137.85362 133.56444,137.85362 135.75194,137.85362 137.02944,136.54112 137.02944,134.72112 137.02944,133.67112 136.50444,132.88362 135.41944,132.39362 136.45194,132.39362 137.34444,132.37612 138.11444,132.13112 Z M 133.45944,132.60362 C 134.82444,132.60362 135.50694,133.32112 135.50694,134.70362 135.50694,136.06862 134.80694,136.87362 133.49444,136.87362 131.98944,136.87362 131.30694,135.98112 131.30694,134.72112 131.30694,133.47862 131.97194,132.60362 133.45944,132.60362 Z"
         id="path59" />
      <path
         d="M 142.13945,127.86112 140.66945,128.01862 V 140.93362 H 142.13945 V 134.21362 C 142.62945,133.49612 143.57445,132.69112 144.60695,132.69112 145.70945,132.69112 146.21695,133.16362 146.21695,134.26612 V 140.93362 H 147.68695 V 134.24862 C 147.68695,132.53362 146.89945,131.51862 145.09695,131.51862 143.99445,131.51862 142.87445,132.02612 142.13945,132.98862 Z"
         id="path61" />
      <path
         d="M 154.66946,127.40612 C 154.03946,127.40612 153.61946,127.84362 153.61946,128.43862 153.61946,129.03362 154.03946,129.47112 154.66946,129.47112 155.31696,129.47112 155.75446,129.03362 155.75446,128.43862 155.75446,127.84362 155.31696,127.40612 154.66946,127.40612 Z M 155.84196,131.71112 H 151.62446 V 132.88362 H 154.37196 V 139.76112 H 151.53696 V 140.93362 H 158.43196 V 139.76112 H 155.84196 Z"
         id="path63" />
      <path
         d="M 166.34196,127.40612 C 165.71196,127.40612 165.27446,127.84362 165.27446,128.43862 165.27446,129.03362 165.71196,129.47112 166.34196,129.47112 166.98946,129.47112 167.40946,129.03362 167.40946,128.43862 167.40946,127.84362 166.98946,127.40612 166.34196,127.40612 Z M 167.70696,131.71112 H 162.40446 V 132.88362 H 166.23696 V 139.55112 C 166.23696,142.03612 164.31196,143.05112 161.59946,143.50612 L 161.84446,144.64362 C 165.55446,144.01362 167.70696,142.54362 167.70696,139.46362 Z"
         id="path65" />
      <path
         d="M 173.74447,127.82612 172.27447,128.00112 V 140.93362 H 173.74447 Z M 179.88697,131.71112 H 177.99697 L 173.90197,135.89362 178.43447,140.93362 H 180.37697 L 175.75697,135.87612 Z"
         id="path67" />
      <path
         d="M 186.27448,128.00112 H 181.96948 V 129.17362 H 184.80448 V 138.58862 C 184.80448,140.18112 185.90698,141.12612 187.53448,141.12612 188.47948,141.12612 189.23198,140.91612 189.72198,140.65362 L 189.33698,139.58612 C 188.82948,139.77862 188.33948,139.90112 187.79698,139.90112 186.90448,139.90112 186.27448,139.56862 186.27448,138.65862 Z"
         id="path69" />
      <path
         d="M 199.24198,131.51862 C 198.31448,131.51862 197.71948,132.00862 197.21198,132.74362 196.93198,131.79862 196.24948,131.51862 195.54948,131.51862 194.62198,131.51862 194.04448,132.07862 193.55448,132.79612 L 193.44948,131.71112 H 192.31198 V 140.93362 H 193.65948 V 133.77612 C 194.16698,132.98862 194.69198,132.67362 195.26948,132.67362 195.93448,132.67362 195.98698,133.14612 195.98698,134.31862 V 140.93362 H 197.35198 V 133.77612 C 197.85948,132.98862 198.40198,132.67362 198.96198,132.67362 199.62698,132.67362 199.67948,133.14612 199.67948,134.31862 V 140.93362 H 201.02698 V 134.07362 C 201.02698,131.95612 200.13448,131.51862 199.24198,131.51862 Z"
         id="path71" />
      <path
         d="M 203.66949,140.93362 H 205.13949 V 134.23112 C 205.62949,133.49612 206.55699,132.69112 207.64199,132.69112 209.02449,132.69112 209.21699,133.44362 209.21699,135.33362 V 140.93362 H 210.68699 V 134.24862 C 210.68699,132.53362 209.89949,131.51862 208.09699,131.51862 207.01199,131.51862 205.78699,132.06112 205.05199,133.00612 L 204.92949,131.71112 H 203.66949 Z"
         id="path73" />
      <path
         d="M 217.68699,131.51862 C 215.09699,131.51862 213.69699,133.49612 213.69699,136.33112 213.69699,139.23612 215.07949,141.12612 217.66949,141.12612 220.24199,141.12612 221.64199,139.14862 221.64199,136.31362 221.64199,133.40862 220.27699,131.51862 217.68699,131.51862 Z M 217.68699,132.72612 C 219.26199,132.72612 220.04949,133.88112 220.04949,136.31362 220.04949,138.78112 219.26199,139.91862 217.66949,139.91862 216.07699,139.91862 215.28949,138.78112 215.28949,136.33112 215.28949,133.88112 216.09449,132.72612 217.68699,132.72612 Z"
         id="path75" />
      <path
         d="M 228.79951,131.51862 C 227.69701,131.51862 226.71701,132.06112 226.05201,133.00612 L 225.92951,131.71112 H 224.66951 V 144.64362 L 226.13951,144.46862 V 140.07612 C 226.76951,140.77612 227.57451,141.12612 228.58951,141.12612 230.98701,141.12612 232.14201,139.11362 232.14201,136.31362 232.14201,133.42612 231.24951,131.51862 228.79951,131.51862 Z M 228.44951,132.70862 C 229.90201,132.70862 230.54951,133.91612 230.54951,136.31362 230.54951,138.76362 229.77951,139.90112 228.25701,139.90112 227.38201,139.90112 226.62951,139.46362 226.13951,138.74612 V 134.17862 C 226.64701,133.44362 227.43451,132.70862 228.44951,132.70862 Z"
         id="path77" />
      <path
         d="M 238.21451,131.51862 C 235.93951,131.51862 234.69701,133.56612 234.69701,136.33112 234.69701,139.23612 235.62451,141.12612 238.09201,141.12612 239.10701,141.12612 240.01701,140.72362 240.69951,139.77862 V 144.46862 L 242.16951,144.64362 V 131.71112 H 240.90951 L 240.78701,132.72612 C 240.17451,131.95612 239.31701,131.51862 238.21451,131.51862 Z M 238.58201,132.70862 C 239.45701,132.70862 240.20951,133.14612 240.69951,133.89862 V 138.48362 C 240.19201,139.25362 239.42201,139.90112 238.40701,139.90112 236.97201,139.90112 236.28951,138.72862 236.28951,136.33112 236.28951,133.89862 237.05951,132.70862 238.58201,132.70862 Z"
         id="path79" />
      <path
         d="M 251.89951,131.51862 C 250.23701,131.51862 249.29201,132.39362 248.59201,133.89862 L 248.31201,131.71112 H 245.75701 V 132.84862 H 247.20951 V 139.79612 H 245.75701 V 140.93362 H 250.55201 V 139.79612 H 248.67951 V 135.91112 C 249.27451,133.88112 250.28951,132.86612 251.70701,132.86612 H 251.79451 V 134.84362 H 252.98451 L 253.19451,131.71112 C 252.79201,131.60612 252.40701,131.51862 251.89951,131.51862 Z"
         id="path81" />
      <path
         d="M 259.31953,139.91862 C 258.23453,139.91862 257.25453,139.51612 256.53703,138.92112 L 255.71453,139.88362 C 256.50203,140.56612 257.63953,141.12612 259.31953,141.12612 261.27953,141.12612 263.18703,140.35612 263.18703,138.37862 263.18703,136.66362 261.99703,136.03362 260.19453,135.54362 258.33953,135.03612 257.76203,134.75612 257.76203,133.91612 257.76203,133.21612 258.28703,132.70862 259.75703,132.70862 260.94703,132.70862 261.73453,133.07612 262.41703,133.54862 L 263.08203,132.53362 C 262.29453,131.97362 261.20953,131.51862 259.72203,131.51862 257.63953,131.51862 256.22203,132.49862 256.22203,134.03862 256.22203,135.64862 257.46453,136.22612 259.37203,136.69862 261.33203,137.18862 261.59453,137.62612 261.59453,138.44862 261.59453,139.34112 260.73703,139.91862 259.31953,139.91862 Z"
         id="path83" />
      <path
         d="M 274.00203,140.46112 273.42453,139.46362 C 272.93453,139.72612 272.33953,139.90112 271.65703,139.90112 270.39703,139.90112 269.88953,139.35862 269.88953,138.34362 V 132.86612 H 272.89953 L 273.09203,131.71112 H 269.88953 V 129.45362 L 268.41953,129.62862 V 131.71112 H 266.30203 V 132.86612 H 268.41953 V 138.36112 C 268.41953,139.97112 269.53953,141.12612 271.51703,141.12612 272.39203,141.12612 273.35453,140.88112 274.00203,140.46112 Z"
         id="path85" />
      <path
         d="M 278.63954,131.71112 H 277.16954 V 138.41362 C 277.16954,140.12862 278.04454,141.12612 279.82954,141.12612 280.91454,141.12612 282.05204,140.61862 282.78704,139.69112 L 282.90954,140.93362 H 284.16954 V 131.71112 H 282.69954 V 138.50112 C 282.19204,139.28862 281.21204,139.97112 280.19704,139.97112 279.12954,139.97112 278.63954,139.44612 278.63954,138.25612 Z"
         id="path87" />
      <path
         d="M 295.36954,131.71112 H 293.82954 L 291.20454,139.60362 288.54454,131.71112 H 286.96954 L 290.31204,140.93362 H 292.00954 Z"
         id="path89" />
      <path
         d="M 305.01206,140.93362 306.60456,131.71112 H 305.18706 L 303.99706,140.02362 302.61456,132.88362 H 300.88206 L 299.41206,140.02362 298.22206,131.71112 H 296.73456 L 298.39706,140.93362 H 300.42706 L 301.72206,134.17862 302.92956,140.93362 Z"
         id="path91" />
      <path
         d="M 309.57956,140.93362 312.11706,136.97862 314.65456,140.93362 H 316.43956 L 313.04456,135.99862 316.03706,131.71112 H 314.33956 L 312.18706,135.14112 310.05206,131.71112 H 308.30206 L 311.29456,136.06862 307.89956,140.93362 Z"
         id="path93" />
      <path
         d="M 326.83456,131.71112 H 325.31206 L 322.70456,139.81362 320.06206,131.71112 H 318.50456 L 321.70706,140.93362 H 322.19706 C 321.72456,142.35112 321.16456,143.13862 319.27456,143.47112 L 319.48456,144.64362 C 321.93456,144.38112 322.96706,142.87612 323.61456,140.98612 Z"
         id="path95" />
      <path
         d="M 331.50706,139.67362 336.58206,132.86612 V 131.71112 H 330.10706 V 133.00612 H 334.81456 L 329.70456,139.81362 V 140.93362 H 336.45956 L 336.63456,139.67362 Z"
         id="path97" />
      <path
         d="M 73.014403,159.72862 73.976903,162.80862 H 75.551903 L 71.631903,150.75112 H 69.706903 L 65.769403,162.80862 H 67.274403 L 68.236903,159.72862 Z M 68.639403,158.46862 70.634403,152.04612 72.611903,158.46862 Z"
         id="path99" />
      <path
         d="M 85.36941,159.37862 C 85.36941,157.33112 83.93441,156.64862 82.58691,156.42112 83.74191,156.15862 84.84441,155.35362 84.84441,153.79612 84.84441,151.43362 82.69191,150.75112 80.57441,150.75112 H 77.59941 V 162.80862 H 80.85441 C 83.05941,162.80862 85.36941,162.00362 85.36941,159.37862 Z M 83.28691,153.88362 C 83.28691,155.28362 82.48191,155.87862 81.06441,155.87862 H 79.12191 V 151.99362 H 80.92441 C 82.37691,151.99362 83.28691,152.50112 83.28691,153.88362 Z M 83.75941,159.43112 C 83.75941,161.21612 82.28941,161.54862 81.11691,161.54862 H 79.12191 V 157.13862 H 81.16941 C 82.58691,157.13862 83.75941,157.59362 83.75941,159.43112 Z"
         id="path101" />
      <path
         d="M 92.684416,150.55862 C 89.901916,150.55862 87.521916,152.71112 87.521916,156.77112 87.521916,160.83112 89.814416,163.00112 92.754416,163.00112 94.469416,163.00112 95.624416,162.40612 96.359416,161.68862 L 95.571916,160.70862 C 94.924416,161.21612 94.119416,161.70612 92.771916,161.70612 90.706916,161.70612 89.114416,160.35862 89.114416,156.77112 89.114416,153.09612 90.829416,151.83612 92.789416,151.83612 93.716916,151.83612 94.556916,152.08112 95.326916,152.72862 L 96.184416,151.73112 C 95.221916,150.97862 94.259416,150.55862 92.684416,150.55862 Z"
         id="path103" />
      <path
         d="M 106.59692,156.71862 C 106.59692,151.71362 103.77942,150.75112 100.94442,150.75112 H 98.371922 V 162.80862 H 101.13692 C 103.63942,162.80862 106.59692,161.77612 106.59692,156.71862 Z M 104.96942,156.71862 C 104.96942,160.70862 103.06192,161.58362 101.32942,161.58362 H 99.894422 V 151.99362 H 101.31192 C 102.97442,151.99362 104.96942,152.51862 104.96942,156.71862 Z"
         id="path105" />
      <path
         d="M 111.12943,152.01112 H 116.29193 L 116.46693,150.75112 H 109.62443 V 162.80862 H 116.62443 V 161.58362 H 111.12943 V 157.31362 H 115.60943 V 156.07112 H 111.12943 Z"
         id="path107" />
      <path
         d="M 121.85694,152.01112 H 127.26444 L 127.43944,150.75112 H 120.33444 V 162.80862 H 121.85694 V 157.45362 H 126.58194 V 156.22862 H 121.85694 Z"
         id="path109" />
      <path
         d="M 133.91444,163.00112 C 135.61194,163.00112 136.76694,162.56362 137.85194,161.95112 V 156.21112 H 133.79194 L 133.96694,157.48862 H 136.32944 V 161.14612 C 135.64694,161.53112 134.87694,161.72362 134.03694,161.72362 131.93694,161.72362 130.83444,160.27112 130.83444,156.77112 130.83444,153.06112 132.51444,151.83612 134.26444,151.83612 135.26194,151.83612 136.04944,152.15112 136.78444,152.83362 L 137.69444,151.88862 C 136.74944,151.01362 135.83944,150.55862 134.26444,150.55862 131.65694,150.55862 129.20694,152.62362 129.20694,156.77112 129.20694,160.93612 131.04444,163.00112 133.91444,163.00112 Z"
         id="path111" />
      <path
         d="M 146.44445,162.80862 H 147.96695 V 150.75112 H 146.44445 V 155.84362 H 141.89445 V 150.75112 H 140.37195 V 162.80862 H 141.89445 V 157.08612 H 146.44445 Z"
         id="path113" />
      <path
         d="M 158.11696,150.75112 H 151.22196 V 151.97612 H 153.89946 V 161.60112 H 151.22196 V 162.80862 H 158.11696 V 161.60112 H 155.43946 V 151.97612 H 158.11696 Z"
         id="path115" />
      <path
         d="M 168.61696,150.75112 H 163.52446 V 151.99362 H 167.09446 V 158.73112 C 167.09446,160.60362 166.14946,161.74112 164.46946,161.74112 163.76946,161.74112 162.89446,161.56612 161.86196,160.91862 L 161.19696,161.91612 C 162.14196,162.63362 163.31446,163.01862 164.48696,163.01862 167.67196,163.01862 168.61696,160.81362 168.61696,158.80112 Z"
         id="path117" />
      <path
         d="M 173.77947,162.80862 V 150.75112 H 172.25697 V 162.80862 Z M 173.86697,156.36862 178.78447,162.80862 H 180.69197 L 175.65197,156.28112 180.35947,150.75112 H 178.59197 Z"
         id="path119" />
      <path
         d="M 183.29948,162.80862 H 190.12448 L 190.31698,161.46112 H 184.80448 V 150.75112 H 183.29948 Z"
         id="path121" />
      <path
         d="M 200.71198,150.75112 H 198.57698 L 196.70448,159.01112 194.74448,150.75112 H 192.62698 L 191.94448,162.80862 H 193.37948 L 193.69448,156.50862 C 193.78198,155.00362 193.76448,152.81612 193.72948,152.15112 L 195.89948,160.63862 H 197.42198 L 199.45198,152.15112 C 199.45198,152.74612 199.45198,154.84612 199.55698,156.50862 L 199.92448,162.80862 H 201.39448 Z"
         id="path123" />
      <path
         d="M 208.83199,162.80862 H 210.96699 V 150.75112 H 209.54949 V 156.78862 C 209.54949,158.95862 209.74199,160.90112 209.75949,161.39112 L 205.43699,150.75112 H 203.37199 V 162.80862 H 204.78949 V 156.77112 C 204.78949,154.91612 204.61449,152.74612 204.57949,152.22112 Z"
         id="path125" />
      <path
         d="M 222.09699,156.78862 C 222.09699,153.07862 220.59199,150.55862 217.66949,150.55862 214.74699,150.55862 213.24199,153.16612 213.24199,156.80612 213.24199,160.53362 214.74699,163.00112 217.66949,163.00112 220.59199,163.00112 222.09699,160.44612 222.09699,156.78862 Z M 220.52199,156.78862 C 220.52199,160.00862 219.69949,161.72362 217.66949,161.72362 215.69199,161.72362 214.81699,160.02612 214.81699,156.80612 214.81699,153.60362 215.63949,151.83612 217.66949,151.83612 219.69949,151.83612 220.52199,153.58612 220.52199,156.78862 Z"
         id="path127" />
      <path
         d="M 232.66701,154.46112 C 232.66701,151.94112 230.89951,150.75112 228.01201,150.75112 H 224.94951 V 162.80862 H 226.45451 V 158.32862 H 228.01201 C 230.72451,158.32862 232.66701,157.27862 232.66701,154.46112 Z M 231.03951,154.47862 C 231.03951,156.54362 229.81451,157.12112 228.15201,157.12112 H 226.45451 V 151.95862 H 228.20451 C 229.83201,151.95862 231.03951,152.62362 231.03951,154.47862 Z"
         id="path129" />
      <path
         d="M 243.11451,156.78862 C 243.11451,153.07862 241.59201,150.55862 238.66951,150.55862 235.72951,150.55862 234.20701,153.16612 234.20701,156.80612 234.20701,160.53362 235.72951,162.98362 238.49451,162.98362 240.57701,162.98362 241.45201,163.98112 242.18701,165.83612 L 243.79701,165.20612 C 243.20201,163.43862 242.30951,162.68612 240.61201,162.33612 242.46701,161.32112 243.11451,159.34362 243.11451,156.78862 Z M 241.52201,156.78862 C 241.52201,160.00862 240.69951,161.72362 238.66951,161.72362 236.69201,161.72362 235.79951,160.02612 235.79951,156.80612 235.79951,153.60362 236.63951,151.83612 238.66951,151.83612 240.69951,151.83612 241.52201,153.58612 241.52201,156.78862 Z"
         id="path131" />
      <path
         d="M 253.31701,154.14612 C 253.31701,151.90612 251.75951,150.75112 248.78451,150.75112 H 245.70451 V 162.80862 H 247.20951 V 157.64612 H 248.83701 L 252.14451,162.80862 H 253.96451 L 250.37701,157.47112 C 252.03951,157.05112 253.31701,155.94862 253.31701,154.14612 Z M 251.70701,154.14612 C 251.70701,155.80862 250.70951,156.45612 248.97701,156.45612 H 247.20951 V 151.97612 H 248.95951 C 250.81451,151.97612 251.70701,152.58862 251.70701,154.14612 Z"
         id="path133" />
      <path
         d="M 263.81703,159.46612 C 263.81703,157.17362 262.17203,156.38612 260.28203,155.84362 257.98953,155.17862 257.25453,154.65362 257.25453,153.62112 257.25453,152.41362 258.33953,151.83612 259.66953,151.83612 260.68453,151.83612 261.69953,152.16862 262.55703,152.92112 L 263.46703,151.94112 C 262.45203,151.06612 261.26203,150.55862 259.61703,150.55862 257.30703,150.55862 255.71453,151.85362 255.71453,153.67362 255.71453,155.58112 257.20203,156.45612 259.59953,157.15612 261.66453,157.75112 262.22453,158.32862 262.22453,159.50112 262.22453,161.02362 260.89453,161.74112 259.42453,161.74112 257.95453,161.74112 256.92203,161.23362 256.08203,160.44612 L 255.17203,161.47862 C 256.18703,162.45862 257.63953,163.00112 259.40703,163.00112 262.20703,163.00112 263.81703,161.54862 263.81703,159.46612 Z"
         id="path135" />
      <path
         d="M 270.90453,152.06362 H 274.54453 L 274.70203,150.75112 H 265.61953 V 152.06362 H 269.38203 V 162.80862 H 270.90453 Z"
         id="path137" />
      <path
         d="M 284.65954,150.75112 H 283.11954 V 158.95862 C 283.11954,160.79612 282.22704,161.68862 280.65204,161.68862 279.09454,161.68862 278.20204,160.79612 278.20204,158.95862 V 150.75112 H 276.67954 V 158.90612 C 276.67954,161.33862 278.16704,163.00112 280.65204,163.00112 283.08454,163.00112 284.65954,161.35612 284.65954,158.90612 Z"
         id="path139" />
      <path
         d="M 291.20454,161.07612 287.98454,150.75112 H 286.35704 L 290.38204,162.80862 H 291.95704 L 295.98204,150.75112 H 294.45954 Z"
         id="path141" />
      <path
         d="M 306.83206,150.75112 H 305.43206 L 303.99706,161.14612 302.61456,152.15112 H 300.75956 L 299.30706,161.14612 298.02956,150.75112 H 296.50706 L 298.18706,162.80862 H 300.23456 L 301.63456,153.70862 303.01706,162.80862 H 305.01206 Z"
         id="path143" />
      <path
         d="M 307.77706,150.75112 311.24206,156.38612 307.46206,162.80862 H 309.08956 L 312.13456,157.36612 315.12706,162.80862 H 316.87706 L 313.04456,156.29862 316.45706,150.75112 H 314.82956 L 312.16956,155.38862 309.52706,150.75112 Z"
         id="path145" />
      <path
         d="M 323.43956,158.15362 327.51706,150.75112 H 325.94206 L 322.70456,156.80612 319.50206,150.75112 H 317.82206 L 321.89956,158.17112 V 162.80862 H 323.43956 Z"
         id="path147" />
      <path
         d="M 330.84206,161.49612 337.15956,152.01112 V 150.75112 H 329.80956 V 152.06362 H 335.53206 L 329.17956,161.58362 V 162.80862 H 336.96706 L 337.14206,161.49612 Z"
         id="path149" />
      <path
         d="M 70.686903,175.26862 C 68.096903,175.26862 66.696903,177.24612 66.696903,180.08112 66.696903,182.98612 68.079403,184.87612 70.669403,184.87612 73.241903,184.87612 74.641903,182.89862 74.641903,180.06362 74.641903,177.15862 73.276903,175.26862 70.686903,175.26862 Z M 70.686903,176.47612 C 72.261903,176.47612 73.049403,177.63112 73.049403,180.06362 73.049403,182.53112 72.261903,183.66862 70.669403,183.66862 69.076903,183.66862 68.289403,182.53112 68.289403,180.08112 68.289403,177.63112 69.094403,176.47612 70.686903,176.47612 Z"
         id="path151" />
      <path
         d="M 85.59691,178.66362 C 85.59691,174.95362 84.09191,172.43362 81.16941,172.43362 78.24691,172.43362 76.74191,175.04112 76.74191,178.68112 76.74191,182.40862 78.24691,184.87612 81.16941,184.87612 84.09191,184.87612 85.59691,182.32112 85.59691,178.66362 Z M 84.02191,178.66362 C 84.02191,181.88362 83.19941,183.59862 81.16941,183.59862 79.19191,183.59862 78.31691,181.90112 78.31691,178.68112 78.31691,175.47862 79.13941,173.71112 81.16941,173.71112 83.19941,173.71112 84.02191,175.46112 84.02191,178.66362 Z"
         id="path153" />
      <path
         d="M 91.669416,172.43362 C 89.079416,172.43362 87.731916,174.65612 87.731916,178.64612 87.731916,182.65362 89.079416,184.87612 91.669416,184.87612 94.259416,184.87612 95.606916,182.65362 95.606916,178.64612 95.606916,174.65612 94.259416,172.43362 91.669416,172.43362 Z M 91.669416,173.62362 C 93.174416,173.62362 94.066916,175.09362 94.066916,178.64612 94.066916,182.21612 93.174416,183.68612 91.669416,183.68612 90.181916,183.68612 89.271916,182.21612 89.271916,178.64612 89.271916,175.09362 90.181916,173.62362 91.669416,173.62362 Z M 91.669416,177.50862 C 91.021916,177.50862 90.531916,178.01612 90.531916,178.64612 90.531916,179.29362 91.021916,179.80112 91.669416,179.80112 92.334416,179.80112 92.824416,179.29362 92.824416,178.64612 92.824416,178.01612 92.334416,177.50862 91.669416,177.50862 Z"
         id="path155" />
      <path
         d="M 105.77442,175.49612 C 105.77442,173.36112 103.91942,172.43362 102.16942,172.43362 100.57692,172.43362 98.564422,173.37862 98.564422,175.58362 98.564422,176.93112 99.194422,177.71862 100.48942,178.33112 99.019422,179.01362 98.056922,180.01112 98.056922,181.48112 98.056922,183.38862 99.544422,184.87612 102.13442,184.87612 104.67192,184.87612 106.28192,183.42362 106.28192,181.44612 106.28192,179.97612 105.26692,178.87362 103.69192,178.22612 105.02192,177.49112 105.77442,176.66862 105.77442,175.49612 Z M 99.999422,175.60112 C 99.999422,174.32362 100.80442,173.58862 102.16942,173.58862 103.55192,173.58862 104.33942,174.35862 104.33942,175.56612 104.33942,176.65112 103.77942,177.21112 102.65942,177.85862 101.01442,177.31612 99.999422,176.98362 99.999422,175.60112 Z M 104.72442,181.48112 C 104.72442,182.74112 103.81442,183.68612 102.13442,183.68612 100.47192,183.68612 99.614422,182.84612 99.614422,181.48112 99.614422,179.97612 100.50692,179.20612 101.48692,178.75112 103.39442,179.41612 104.72442,179.85362 104.72442,181.48112 Z"
         id="path157" />
      <path
         d="M 123.16944,171.15612 C 122.53944,171.15612 122.11944,171.59362 122.11944,172.18862 122.11944,172.78362 122.53944,173.22112 123.16944,173.22112 123.81694,173.22112 124.25444,172.78362 124.25444,172.18862 124.25444,171.59362 123.81694,171.15612 123.16944,171.15612 Z M 124.34194,175.46112 H 120.12444 V 176.63362 H 122.87194 V 183.51112 H 120.03694 V 184.68362 H 126.93194 V 183.51112 H 124.34194 Z"
         id="path159" />
      <path
         d="M 137.11694,172.62612 H 130.22194 V 173.85112 H 132.89944 V 183.47612 H 130.22194 V 184.68362 H 137.11694 V 183.47612 H 134.43944 V 173.85112 H 137.11694 Z"
         id="path161" />
      <path
         d="M 144.27445,171.75112 H 139.96945 V 172.92362 H 142.80445 V 182.33862 C 142.80445,183.93112 143.90695,184.87612 145.53445,184.87612 146.47945,184.87612 147.23195,184.66612 147.72195,184.40362 L 147.33695,183.33612 C 146.82945,183.52862 146.33945,183.65112 145.79695,183.65112 144.90445,183.65112 144.27445,183.31862 144.27445,182.40862 Z"
         id="path163" />
      <path
         d="M 151.79946,184.68362 H 158.62446 L 158.81696,183.33612 H 153.30446 V 172.62612 H 151.79946 Z"
         id="path165" />
      <path
         d="M 166.46446,183.49362 V 172.62612 H 165.16946 L 161.58196,174.86612 162.22946,175.89862 164.97696,174.23612 V 183.49362 H 162.01946 V 184.68362 H 168.96696 V 183.49362 Z"
         id="path167" />
      <path
         d="M 188.81198,170.05362 C 186.85198,170.05362 185.03198,170.64862 185.25948,172.78362 L 185.62698,176.14362 C 185.74948,177.33362 185.32948,177.96362 182.96698,177.96362 V 179.15362 C 185.32948,179.15362 185.74948,179.80112 185.62698,181.00862 L 185.25948,184.33362 C 185.03198,186.46862 186.85198,187.06362 188.81198,187.06362 V 185.89112 C 187.53448,185.89112 186.51948,185.59362 186.62448,184.49112 L 186.97448,180.90362 C 187.13198,179.36362 186.57198,178.78612 185.34698,178.55862 186.55448,178.33112 187.13198,177.68362 186.97448,176.21362 L 186.62448,172.62612 C 186.51948,171.54112 187.53448,171.22612 188.81198,171.22612 Z"
         id="path169" />
      <path
         d="M 194.02698,170.05362 V 171.22612 C 195.30448,171.22612 196.31948,171.54112 196.21448,172.62612 L 195.86448,176.21362 C 195.70698,177.68362 196.30198,178.33112 197.68448,178.57612 196.24948,178.78612 195.70698,179.36362 195.86448,180.90362 L 196.21448,184.49112 C 196.31948,185.59362 195.30448,185.89112 194.02698,185.89112 V 187.06362 C 195.98698,187.06362 197.80698,186.46862 197.57948,184.33362 L 197.21198,181.00862 C 197.08948,179.80112 197.70198,179.15362 199.87198,179.15362 V 177.96362 C 197.71948,177.96362 197.08948,177.33362 197.21198,176.14362 L 197.57948,172.78362 C 197.80698,170.64862 195.98698,170.05362 194.02698,170.05362 Z"
         id="path171" />
      <path
         d="M 215.63949,186.69612 H 220.03199 V 185.45362 H 217.03949 V 171.68112 H 220.03199 V 170.42112 H 215.63949 Z"
         id="path173" />
      <path
         d="M 230.19951,170.42112 H 225.80701 V 171.68112 H 228.79951 V 185.45362 H 225.80701 V 186.69612 H 230.19951 Z"
         id="path175" />
      <path
         d="M 253.17701,174.49862 C 252.09201,174.95362 251.28701,175.26862 248.97701,175.26862 246.78951,175.26862 245.30201,176.59862 245.30201,178.47112 245.30201,179.66112 245.79201,180.46612 246.84201,181.00862 246.17701,181.44612 245.82701,182.04112 245.82701,182.61862 245.82701,183.54612 246.54451,184.36862 248.15451,184.36862 H 249.79951 C 250.97201,184.36862 251.86451,184.80612 251.86451,185.68112 251.86451,186.67862 250.97201,187.20362 248.95951,187.20362 246.89451,187.20362 246.40451,186.69612 246.40451,185.61112 H 245.07451 C 245.07451,187.48362 246.01951,188.39362 248.95951,188.39362 251.75951,188.39362 253.35201,187.39612 253.35201,185.59362 253.35201,184.15862 251.95201,183.09112 250.09701,183.09112 H 248.43451 C 247.48951,183.09112 247.20951,182.74112 247.20951,182.30362 247.20951,181.97112 247.41951,181.62112 247.68201,181.41112 248.08451,181.55112 248.45201,181.60362 249.06451,181.60362 251.25201,181.60362 252.52951,180.29112 252.52951,178.47112 252.52951,177.42112 252.00451,176.63362 250.91951,176.14362 251.95201,176.14362 252.84451,176.12612 253.61451,175.88112 Z M 248.95951,176.35362 C 250.32451,176.35362 251.00701,177.07112 251.00701,178.45362 251.00701,179.81862 250.30701,180.62362 248.99451,180.62362 247.48951,180.62362 246.80701,179.73112 246.80701,178.47112 246.80701,177.22862 247.47201,176.35362 248.95951,176.35362 Z"
         id="path177" />
      <path
         d="M 259.47703,172.45112 C 257.30703,172.45112 255.57453,173.83362 255.57453,176.42362 255.57453,178.82112 257.02703,180.29112 259.03953,180.27362 260.36953,180.23862 261.31453,179.55612 261.85703,178.78612 261.82203,181.70862 259.86203,183.07362 256.64203,183.93112 L 256.99203,185.05112 C 261.48953,183.79112 263.41453,182.25112 263.41453,177.10612 263.41453,174.23612 262.17203,172.45112 259.47703,172.45112 Z M 259.30203,179.08362 C 257.93703,179.10112 257.11453,178.31362 257.11453,176.47612 257.11453,174.62112 257.91953,173.64112 259.47703,173.64112 261.15703,173.64112 261.94453,174.60362 261.89203,177.47362 261.24453,178.43612 260.43953,179.06612 259.30203,179.08362 Z"
         id="path179" />
      <path
         d="M 269.71453,175.26862 C 267.43953,175.26862 266.19703,177.31612 266.19703,180.08112 266.19703,182.98612 267.12453,184.87612 269.59203,184.87612 270.60703,184.87612 271.51703,184.47362 272.19953,183.52862 V 188.21862 L 273.66953,188.39362 V 175.46112 H 272.40953 L 272.28703,176.47612 C 271.67453,175.70612 270.81703,175.26862 269.71453,175.26862 Z M 270.08203,176.45862 C 270.95703,176.45862 271.70953,176.89612 272.19953,177.64862 V 182.23362 C 271.69203,183.00362 270.92203,183.65112 269.90703,183.65112 268.47203,183.65112 267.78953,182.47862 267.78953,180.08112 267.78953,177.64862 268.55953,176.45862 270.08203,176.45862 Z"
         id="path181" />
      <path
         d="M 281.68454,172.43362 C 278.90204,172.43362 276.52204,174.58612 276.52204,178.64612 276.52204,182.70612 278.81454,184.87612 281.75454,184.87612 283.46954,184.87612 284.62454,184.28112 285.35954,183.56362 L 284.57204,182.58362 C 283.92454,183.09112 283.11954,183.58112 281.77204,183.58112 279.70704,183.58112 278.11454,182.23362 278.11454,178.64612 278.11454,174.97112 279.82954,173.71112 281.78954,173.71112 282.71704,173.71112 283.55704,173.95612 284.32704,174.60362 L 285.18454,173.60612 C 284.22204,172.85362 283.25954,172.43362 281.68454,172.43362 Z"
         id="path183" />
      <path
         d="M 291.41454,184.87612 C 293.11204,184.87612 294.26704,184.43862 295.35204,183.82612 V 178.08612 H 291.29204 L 291.46704,179.36362 H 293.82954 V 183.02112 C 293.14704,183.40612 292.37704,183.59862 291.53704,183.59862 289.43704,183.59862 288.33454,182.14612 288.33454,178.64612 288.33454,174.93612 290.01454,173.71112 291.76454,173.71112 292.76204,173.71112 293.54954,174.02612 294.28454,174.70862 L 295.19454,173.76362 C 294.24954,172.88862 293.33954,172.43362 291.76454,172.43362 289.15704,172.43362 286.70704,174.49862 286.70704,178.64612 286.70704,182.81112 288.54454,184.87612 291.41454,184.87612 Z"
         id="path185" />
      <path
         d="M 306.11456,178.66362 C 306.11456,174.95362 304.59206,172.43362 301.66956,172.43362 298.72956,172.43362 297.20706,175.04112 297.20706,178.68112 297.20706,182.40862 298.72956,184.85862 301.49456,184.85862 303.57706,184.85862 304.45206,185.85612 305.18706,187.71112 L 306.79706,187.08112 C 306.20206,185.31362 305.30956,184.56112 303.61206,184.21112 305.46706,183.19612 306.11456,181.21862 306.11456,178.66362 Z M 304.52206,178.66362 C 304.52206,181.88362 303.69956,183.59862 301.66956,183.59862 299.69206,183.59862 298.79956,181.90112 298.79956,178.68112 298.79956,175.47862 299.63956,173.71112 301.66956,173.71112 303.69956,173.71112 304.52206,175.46112 304.52206,178.66362 Z"
         id="path187" />
      <path
         d="M 321.00706,177.66612 C 319.44956,177.66612 318.69706,178.89112 318.17206,179.90612 L 319.22206,180.43112 C 319.67706,179.59112 320.20206,178.94362 320.95456,178.94362 322.07456,178.94362 322.68706,180.69362 324.33206,180.69362 325.87206,180.69362 326.64206,179.48612 327.16706,178.48862 L 326.11706,177.92862 C 325.66206,178.76862 325.10206,179.41612 324.38456,179.41612 323.31706,179.41612 322.75706,177.66612 321.00706,177.66612 Z"
         id="path189" />
      <path
         d="M 330.10706,179.83612 H 336.23206 V 178.57612 H 330.10706 Z"
         id="path191" />
      <path
         d="M 344.33459,176.02112 H 342.96959 V 178.62862 H 340.44959 V 179.85362 H 342.96959 V 182.46112 H 344.33459 V 179.85362 H 346.88959 V 178.62862 H 344.33459 Z"
         id="path193" />
      <path
         d="M 357.56459,176.94862 H 350.77459 V 178.20862 H 357.56459 Z M 357.56459,180.27362 H 350.77459 V 181.53362 H 357.56459 Z"
         id="path195" />
      <path
         d="M 361.67709,174.28862 360.95959,175.40862 367.13709,179.20612 360.95959,183.02112 361.74709,184.10612 368.39709,179.95862 V 178.45362 Z"
         id="path197" />
    </g>
  </g>
</svg>
