<?xml version="1.0" encoding="UTF-8" standalone="no"?>
<!-- Created with Inkscape (http://www.inkscape.org/) -->

<svg
   xmlns:dc="http://purl.org/dc/elements/1.1/"
   xmlns:cc="http://creativecommons.org/ns#"
   xmlns:rdf="http://www.w3.org/1999/02/22-rdf-syntax-ns#"
   xmlns:svg="http://www.w3.org/2000/svg"
   xmlns="http://www.w3.org/2000/svg"
   xmlns:sodipodi="http://sodipodi.sourceforge.net/DTD/sodipodi-0.dtd"
   xmlns:inkscape="http://www.inkscape.org/namespaces/inkscape"
   width="85.349251mm"
   height="30.682491mm"
   viewBox="0 0 302.41861 108.71749"
   id="svg2"
   version="1.1"
   inkscape:version="0.91 r13725"
   sodipodi:docname="FiraMono Nerd Font.svg">
  <defs
     id="defs4" />
  <sodipodi:namedview
     id="base"
     pagecolor="#ffffff"
     bordercolor="#666666"
     borderopacity="1.0"
     inkscape:pageopacity="0.0"
     inkscape:pageshadow="2"
     inkscape:zoom="0.7"
     inkscape:cx="-55.786907"
     inkscape:cy="-401.11144"
     inkscape:document-units="px"
     inkscape:current-layer="layer1"
     showgrid="false"
     inkscape:window-width="1861"
     inkscape:window-height="1056"
     inkscape:window-x="59"
     inkscape:window-y="24"
     inkscape:window-maximized="1" />
  <metadata
     id="metadata7">
    <rdf:RDF>
      <cc:Work
         rdf:about="">
        <dc:format>image/svg+xml</dc:format>
        <dc:type
           rdf:resource="http://purl.org/dc/dcmitype/StillImage" />
        <dc:title />
      </cc:Work>
    </rdf:RDF>
  </metadata>
  <g
     inkscape:label="Layer 1"
     inkscape:groupmode="layer"
     id="layer1"
     transform="translate(-65.786903,-79.676132)">
    <g
       style="font-style:normal;font-weight:normal;font-size:27.5px;line-height:125%;font-family:'FiraMono Nerd Font';text-decoration: underline;text-decoration-line: underline;letter-spacing:0px;word-spacing:0px;fill:#ffffff;fill-opacity:1;stroke:none;stroke-width:1px;stroke-linecap:butt;stroke-linejoin:miter;stroke-opacity:1"
       id="text4136">
      <path
         d="m 69.017143,90.593632 0,-6.655 8.4975,0 0.3025,-1.925 -11.1375,0 0,18.919998 2.3375,0 0,-8.442498 7.425,0 0,-1.8975 -7.425,0 z"
         id="path4140"
         inkscape:connector-curvature="0" />
      <path
         d="m 87.596401,79.676132 c -0.9625,0 -1.65,0.715 -1.65,1.6225 0,0.935 0.6875,1.6225 1.65,1.6225 1.0175,0 1.6775,-0.6875 1.6775,-1.6225 0,-0.9075 -0.66,-1.6225 -1.6775,-1.6225 z m 1.8425,19.4425 0,-12.65 -6.6275,0 0,1.7875 4.345,0 0,10.8625 -4.4825,0 0,1.814998 10.835,0 0,-1.814998 -4.07,0 z"
         id="path4142"
         inkscape:connector-curvature="0" />
      <path
         d="m 98.420659,100.93363 9.735001,0 0,-1.814998 -4.07,0 0,-6.8475 c 0.495,-2.0075 2.0075,-3.905 3.96,-3.905 0.605,0 1.045,0.0825 1.6775,0.2475 l 0.4125,-2.255 c -0.6875,-0.165 -1.1825,-0.22 -1.8975,-0.22 -1.7325,0 -3.3275,1.045 -4.18,3.1075 l -0.275,-2.7775 -5.362501,0 0,1.7875 3.382501,0 0,10.8625 -3.382501,0 0,1.814998 z"
         id="path4144"
         inkscape:connector-curvature="0" />
      <path
         d="m 125.44242,97.798632 0,-6.985 c 0,-2.86 -1.815,-4.675 -5.4175,-4.675 -1.4025,0 -2.9425,0.275 -4.7025,0.935 l 0.605,1.705 c 1.485,-0.5225 2.805,-0.715 3.7675,-0.715 2.145,0 3.4375,0.77 3.4375,2.86 l 0,1.21 -2.1175,0 c -4.4,0 -6.7925,1.6775 -6.7925,4.6475 0,2.695 1.76,4.454998 4.675,4.454998 1.87,0 3.4925,-0.6875 4.5375,-2.034998 0.4125,1.292498 1.4025,1.897498 2.64,2.062498 l 0.55,-1.622498 c -0.7975,-0.2475 -1.1825,-0.6875 -1.1825,-1.8425 z m -5.9675,1.705 c -1.8975,0 -2.805,-0.935 -2.805,-2.75 0,-1.87 1.155,-3.0525 4.3725,-3.0525 l 2.09,0 0,3.74 c -0.8525,1.32 -2.2275,2.0625 -3.6575,2.0625 z"
         id="path4146"
         inkscape:connector-curvature="0" />
      <path
         d="m 144.46167,100.93363 -1.0725,-18.919998 -3.3275,0 -2.9425,12.9525 -3.08,-12.9525 -3.3,0 -1.0725,18.919998 2.2,0 0.5225,-9.927498 c 0.11,-2.365 0.11,-5.83 0.11,-6.2975 l 0.11,0 3.245,12.815 2.3925,0 3.135,-12.815 0.055,0 c 0,0.385 0.0275,3.685 0.165,6.2975 l 0.605,9.927498 2.255,0 z"
         id="path4148"
         inkscape:connector-curvature="0" />
      <path
         d="m 153.58093,86.138632 c -4.07,0 -6.2425,3.1075 -6.2425,7.5625 0,4.565 2.145,7.534998 6.215,7.534998 4.0425,0 6.215,-3.134998 6.215,-7.562498 0,-4.565 -2.1175,-7.535 -6.1875,-7.535 z m 0,1.87 c 2.475,0 3.74,1.815 3.74,5.665 0,3.8775 -1.265,5.6925 -3.7675,5.6925 -2.5025,0 -3.7675,-1.815 -3.7675,-5.665 0,-3.8775 1.2925,-5.6925 3.795,-5.6925 z"
         id="path4150"
         inkscape:connector-curvature="0" />
      <path
         d="m 164.57019,86.468632 0,14.464998 2.2825,0 0,-10.559998 c 0.7425,-1.1275 2.2,-2.42 3.9325,-2.42 2.2,0 2.475,1.21 2.475,4.18 l 0,8.799998 2.2825,0 0,-10.504998 c 0,-2.695 -1.2375,-4.29 -4.07,-4.29 -1.705,0 -3.6025,0.8525 -4.785,2.3375 l -0.165,-2.0075 -1.9525,0 z"
         id="path4152"
         inkscape:connector-curvature="0" />
      <path
         d="m 186.55945,86.138632 c -4.07,0 -6.2425,3.1075 -6.2425,7.5625 0,4.565 2.145,7.534998 6.215,7.534998 4.0425,0 6.215,-3.134998 6.215,-7.562498 0,-4.565 -2.1175,-7.535 -6.1875,-7.535 z m 0,1.87 c 2.475,0 3.74,1.815 3.74,5.665 0,3.8775 -1.265,5.6925 -3.7675,5.6925 -2.5025,0 -3.7675,-1.815 -3.7675,-5.665 0,-3.8775 1.2925,-5.6925 3.795,-5.6925 z"
         id="path4154"
         inkscape:connector-curvature="0" />
      <path
         d="m 215.55046,84.736132 6.6,16.197498 3.3,0 0,-18.919998 -2.2,0 0,9.4875 c 0,3.41 0.3025,6.4625 0.33,6.7925 l -0.11,0 -6.71,-16.28 -3.19,0 0,18.919998 2.2,0 0,-9.514998 c 0,-2.915 -0.3025,-6.325 -0.33,-6.6825 l 0.11,0 z"
         id="path4156"
         inkscape:connector-curvature="0" />
      <path
         d="m 232.31472,94.498632 9.735,0 c 0.0275,-0.3025 0.055,-0.7425 0.055,-1.2375 0,-4.4 -2.2275,-7.1225 -5.9675,-7.1225 -3.74,0 -6.215,3.19 -6.215,7.5625 0,4.51 2.3925,7.534998 6.6275,7.534998 1.7875,0 3.6025,-0.6325 4.95,-1.677498 l -1.0725,-1.5675 c -1.265,1.0175 -2.5575,1.3475 -3.8775,1.3475 -2.2275,0 -4.125,-1.4575 -4.235,-4.84 z m 3.85,-6.4625 c 2.2825,0 3.685,1.595 3.74,4.7025 l -7.59,0 c 0.1925,-3.19 1.7875,-4.7025 3.85,-4.7025 z"
         id="path4158"
         inkscape:connector-curvature="0" />
      <path
         d="m 246.82398,100.93363 9.735,0 0,-1.814998 -4.07,0 0,-6.8475 c 0.495,-2.0075 2.0075,-3.905 3.96,-3.905 0.605,0 1.045,0.0825 1.6775,0.2475 l 0.4125,-2.255 c -0.6875,-0.165 -1.1825,-0.22 -1.8975,-0.22 -1.7325,0 -3.3275,1.045 -4.18,3.1075 l -0.275,-2.7775 -5.3625,0 0,1.7875 3.3825,0 0,10.8625 -3.3825,0 0,1.814998 z"
         id="path4160"
         inkscape:connector-curvature="0" />
      <path
         d="m 274.45074,80.611132 -2.2825,-0.275 0,7.535 c -0.9625,-1.1275 -2.2275,-1.7325 -3.8775,-1.7325 -3.575,0 -5.6925,3.2175 -5.6925,7.59 0,4.4825 1.7325,7.507498 5.5275,7.507498 1.595,0 3.025,-0.6875 4.0975,-2.199998 l 0.22,1.897498 2.0075,0 0,-20.322498 z m -5.5825,7.37 c 1.3475,0 2.53,0.715 3.3,1.87 l 0,7.26 c -0.77,1.1825 -1.925,2.2825 -3.575,2.2825 -2.2825,0 -3.4925,-1.925 -3.4925,-5.6925 0,-3.8225 1.3475,-5.72 3.7675,-5.72 z"
         id="path4162"
         inkscape:connector-curvature="0" />
      <path
         d="m 299.86675,90.593632 0,-6.655 8.4975,0 0.3025,-1.925 -11.1375,0 0,18.919998 2.3375,0 0,-8.442498 7.425,0 0,-1.8975 -7.425,0 z"
         id="path4164"
         inkscape:connector-curvature="0" />
      <path
         d="m 318.47351,86.138632 c -4.07,0 -6.2425,3.1075 -6.2425,7.5625 0,4.565 2.145,7.534998 6.215,7.534998 4.0425,0 6.215,-3.134998 6.215,-7.562498 0,-4.565 -2.1175,-7.535 -6.1875,-7.535 z m 0,1.87 c 2.475,0 3.74,1.815 3.74,5.665 0,3.8775 -1.265,5.6925 -3.7675,5.6925 -2.5025,0 -3.7675,-1.815 -3.7675,-5.665 0,-3.8775 1.2925,-5.6925 3.795,-5.6925 z"
         id="path4166"
         inkscape:connector-curvature="0" />
      <path
         d="m 329.46277,86.468632 0,14.464998 2.2825,0 0,-10.559998 c 0.7425,-1.1275 2.2,-2.42 3.9325,-2.42 2.2,0 2.475,1.21 2.475,4.18 l 0,8.799998 2.2825,0 0,-10.504998 c 0,-2.695 -1.2375,-4.29 -4.07,-4.29 -1.705,0 -3.6025,0.8525 -4.785,2.3375 l -0.165,-2.0075 -1.9525,0 z"
         id="path4168"
         inkscape:connector-curvature="0" />
      <path
         d="m 357.41953,100.21863 -0.88,-1.567498 c -0.7975,0.4125 -1.705,0.6875 -2.7775,0.6875 -2.0075,0 -2.7775,-0.8525 -2.7775,-2.475 l 0,-8.635 4.73,0 0.275,-1.76 -5.005,0 0,-3.575 -2.2825,0.275 0,3.3 -3.3275,0 0,1.76 3.3275,0 0,8.6625 c 0,2.5575 1.76,4.344998 4.84,4.344998 1.3475,0 2.8875,-0.385 3.8775,-1.0175 z"
         id="path4170"
         inkscape:connector-curvature="0" />
    </g>
    <g
       style="font-style:normal;font-weight:normal;font-size:27.5px;line-height:125%;font-family:'FiraMono Nerd Font';letter-spacing:0px;word-spacing:0px;fill:#ffffff;fill-opacity:1;stroke:none;stroke-width:1px;stroke-linecap:butt;stroke-linejoin:miter;stroke-opacity:1"
       id="text4140">
      <path
         d="m 73.766903,138.93862 0,-4.445 c 0,-1.82 -1.155,-2.975 -3.4475,-2.975 -0.8925,0 -1.8725,0.175 -2.9925,0.595 l 0.385,1.085 c 0.945,-0.3325 1.785,-0.455 2.3975,-0.455 1.365,0 2.1875,0.49 2.1875,1.82 l 0,0.77 -1.3475,0 c -2.8,0 -4.3225,1.0675 -4.3225,2.9575 0,1.715 1.12,2.835 2.975,2.835 1.19,0 2.2225,-0.4375 2.8875,-1.295 0.2625,0.8225 0.8925,1.2075 1.68,1.3125 l 0.35,-1.0325 c -0.5075,-0.1575 -0.7525,-0.4375 -0.7525,-1.1725 z m -3.7975,1.085 c -1.2075,0 -1.785,-0.595 -1.785,-1.75 0,-1.19 0.735,-1.9425 2.7825,-1.9425 l 1.33,0 0,2.38 c -0.5425,0.84 -1.4175,1.3125 -2.3275,1.3125 z"
         style="font-size:17.5px"
         id="path4173"
         inkscape:connector-curvature="0" />
      <path
         d="m 79.132567,132.91862 0,-5.0925 -1.4525,0.175 0,12.9325 1.2775,0 0.105,-0.9625 c 0.6125,0.805 1.435,1.155 2.5025,1.155 2.38,0 3.6575,-2.0125 3.6575,-4.8125 0,-2.8875 -0.9975,-4.795 -3.465,-4.795 -1.05,0 -1.96,0.5075 -2.625,1.4 z m 2.1,7.035 c -0.8575,0 -1.61,-0.455 -2.1,-1.19 l 0,-4.585 c 0.49,-0.735 1.2775,-1.4875 2.31,-1.4875 1.435,0 2.1875,1.2075 2.1875,3.6225 0,2.4675 -0.8575,3.64 -2.3975,3.64 z"
         style="font-size:17.5px"
         id="path4175"
         inkscape:connector-curvature="0" />
      <path
         d="m 92.320731,139.88362 c -1.575,0 -2.73,-1.05 -2.73,-3.5175 0,-2.4325 1.1375,-3.6225 2.73,-3.6225 0.8225,0 1.5925,0.28 2.3625,0.8575 l 0.735,-0.9975 c -0.875,-0.7175 -1.89,-1.085 -3.08,-1.085 -2.7475,0 -4.3225,2.0825 -4.3225,4.8475 0,2.8875 1.5575,4.76 4.305,4.76 1.085,0 2.31,-0.42 3.115,-1.1025 l -0.7,-1.015 c -0.6825,0.5425 -1.47,0.875 -2.415,0.875 z"
         style="font-size:17.5px"
         id="path4177"
         inkscape:connector-curvature="0" />
      <path
         d="m 105.6314,128.00112 -1.4525,-0.175 0,4.795 c -0.6125,-0.7175 -1.4175,-1.1025 -2.4675,-1.1025 -2.275005,0 -3.622505,2.0475 -3.622505,4.83 0,2.8525 1.1025,4.7775 3.517505,4.7775 1.015,0 1.925,-0.4375 2.6075,-1.4 l 0.14,1.2075 1.2775,0 0,-12.9325 z m -3.5525,4.69 c 0.8575,0 1.61,0.455 2.1,1.19 l 0,4.62 c -0.49,0.7525 -1.225,1.4525 -2.275,1.4525 -1.4525,0 -2.222505,-1.225 -2.222505,-3.6225 0,-2.4325 0.857505,-3.64 2.397505,-3.64 z"
         style="font-size:17.5px"
         id="path4179"
         inkscape:connector-curvature="0" />
      <path
         d="m 110.29706,136.83862 6.195,0 c 0.0175,-0.1925 0.035,-0.4725 0.035,-0.7875 0,-2.8 -1.4175,-4.5325 -3.7975,-4.5325 -2.38,0 -3.955,2.03 -3.955,4.8125 0,2.87 1.5225,4.795 4.2175,4.795 1.1375,0 2.2925,-0.4025 3.15,-1.0675 l -0.6825,-0.9975 c -0.805,0.6475 -1.6275,0.8575 -2.4675,0.8575 -1.4175,0 -2.625,-0.9275 -2.695,-3.08 z m 2.45,-4.1125 c 1.4525,0 2.345,1.015 2.38,2.9925 l -4.83,0 c 0.1225,-2.03 1.1375,-2.9925 2.45,-2.9925 z"
         style="font-size:17.5px"
         id="path4181"
         inkscape:connector-curvature="0" />
      <path
         d="m 125.07772,127.82612 c -1.89,0 -3.3425,1.0675 -3.3425,2.765 l 0,1.8375 -2.205,0 0,1.155 2.205,0 0,7.35 1.4525,0 0,-7.35 2.975,0 0.1575,-1.155 -3.1325,0 0,-1.8725 c 0,-1.0325 0.6475,-1.54 1.9425,-1.54 0.7,0 1.3825,0.1225 1.9775,0.4025 l 0.4725,-1.085 c -0.735,-0.315 -1.505,-0.5075 -2.5025,-0.5075 z"
         style="font-size:17.5px"
         id="path4183"
         inkscape:connector-curvature="0" />
      <path
         d="m 138.07339,132.13112 -0.455,-1.3825 c -1.0675,0.4725 -1.8725,0.77 -4.1825,0.77 -2.1875,0 -3.675,1.33 -3.675,3.2025 0,1.19 0.49,1.995 1.54,2.5375 -0.665,0.4375 -1.015,1.0325 -1.015,1.61 0,0.91 0.7175,1.7325 2.3275,1.7325 l 1.645,0 c 1.1725,0 2.0825,0.455 2.0825,1.33 0,1.015 -0.91,1.5225 -2.94,1.5225 -2.065,0 -2.555,-0.5075 -2.555,-1.5925 l -1.3125,0 c 0,1.89 0.945,2.7825 3.885,2.7825 2.8,0 4.3925,-0.9975 4.3925,-2.8 0,-1.4175 -1.4,-2.5025 -3.255,-2.5025 l -1.6625,0 c -0.945,0 -1.225,-0.3325 -1.225,-0.77 0,-0.35 0.1925,-0.7 0.4725,-0.91 0.385,0.1225 0.7525,0.1925 1.3825,0.1925 2.17,0 3.465,-1.3125 3.465,-3.15 0,-1.05 -0.5425,-1.82 -1.61,-2.31 1.0325,0 1.9075,-0.035 2.695,-0.2625 z m -4.655,0.455 c 1.365,0 2.0475,0.735 2.0475,2.1175 0,1.365 -0.7,2.17 -2.0125,2.17 -1.505,0 -2.205,-0.8925 -2.205,-2.1525 0,-1.2425 0.6825,-2.135 2.17,-2.135 z"
         style="font-size:17.5px"
         id="path4185"
         inkscape:connector-curvature="0" />
      <path
         d="m 142.09155,132.98862 0,-5.1275 -1.4525,0.175 0,12.8975 1.4525,0 0,-6.72 c 0.4725,-0.7175 1.4175,-1.54 2.485,-1.54 1.085,0 1.5925,0.49 1.5925,1.5925 l 0,6.6675 1.4525,0 0,-6.685 c 0,-1.715 -0.7875,-2.73 -2.59,-2.73 -1.085,0 -2.2225,0.5075 -2.94,1.47 z"
         style="font-size:17.5px"
         id="path4187"
         inkscape:connector-curvature="0" />
      <path
         d="m 154.61472,127.40612 c -0.6125,0 -1.05,0.455 -1.05,1.0325 0,0.595 0.4375,1.0325 1.05,1.0325 0.6475,0 1.0675,-0.4375 1.0675,-1.0325 0,-0.5775 -0.42,-1.0325 -1.0675,-1.0325 z m 1.1725,12.3725 0,-8.05 -4.2175,0 0,1.1375 2.765,0 0,6.9125 -2.8525,0 0,1.155 6.895,0 0,-1.155 -2.59,0 z"
         style="font-size:17.5px"
         id="path4189"
         inkscape:connector-curvature="0" />
      <path
         d="m 166.28038,127.40612 c -0.63,0 -1.05,0.455 -1.05,1.0325 0,0.595 0.42,1.0325 1.05,1.0325 0.63,0 1.0675,-0.4375 1.0675,-1.0325 0,-0.5775 -0.4375,-1.0325 -1.0675,-1.0325 z m 1.365,12.075 0,-7.7525 -5.3025,0 0,1.1375 3.85,0 0,6.7025 c 0,2.4675 -1.925,3.5 -4.655,3.955 l 0.245,1.12 c 3.6925,-0.63 5.8625,-2.1 5.8625,-5.1625 z"
         style="font-size:17.5px"
         id="path4191"
         inkscape:connector-curvature="0" />
      <path
         d="m 173.65854,140.93362 0,-13.1075 -1.4525,0.175 0,12.9325 1.4525,0 z m 1.995,-5.0575 4.165,-4.1475 -1.89,0 -4.095,4.165 4.55,5.04 1.925,0 -4.655,-5.0575 z"
         style="font-size:17.5px"
         id="path4193"
         inkscape:connector-curvature="0" />
      <path
         d="m 186.18171,138.67612 0,-10.675 -4.2875,0 0,1.155 2.835,0 0,9.4325 c 0,1.5925 1.12,2.5375 2.73,2.5375 0.945,0 1.6975,-0.21 2.1875,-0.4725 l -0.385,-1.05 c -0.5075,0.1925 -0.9975,0.315 -1.5575,0.315 -0.8925,0 -1.5225,-0.3325 -1.5225,-1.2425 z"
         style="font-size:17.5px"
         id="path4195"
         inkscape:connector-curvature="0" />
      <path
         d="m 199.15987,131.51862 c -0.945,0 -1.5225,0.5075 -2.03,1.225 -0.28,-0.945 -0.9625,-1.225 -1.6625,-1.225 -0.9275,0 -1.505,0.56 -2.0125,1.2775 l -0.0875,-1.0675 -1.1375,0 0,9.205 1.3475,0 0,-7.1575 c 0.5075,-0.7875 1.0325,-1.12 1.61,-1.12 0.665,0 0.7175,0.49 0.7175,1.6625 l 0,6.615 1.365,0 0,-7.1575 c 0.5075,-0.7875 1.0675,-1.12 1.61,-1.12 0.665,0 0.7175,0.49 0.7175,1.6625 l 0,6.615 1.3475,0 0,-6.86 c 0,-2.1175 -0.91,-2.555 -1.785,-2.555 z"
         style="font-size:17.5px"
         id="path4197"
         inkscape:connector-curvature="0" />
      <path
         d="m 203.59804,131.72862 0,9.205 1.4525,0 0,-6.72 c 0.4725,-0.7175 1.4,-1.54 2.5025,-1.54 1.4,0 1.575,0.77 1.575,2.66 l 0,5.6 1.4525,0 0,-6.685 c 0,-1.715 -0.7875,-2.73 -2.59,-2.73 -1.085,0 -2.2925,0.5425 -3.045,1.4875 l -0.105,-1.2775 -1.2425,0 z"
         style="font-size:17.5px"
         id="path4199"
         inkscape:connector-curvature="0" />
      <path
         d="m 217.5912,131.51862 c -2.59,0 -3.9725,1.9775 -3.9725,4.8125 0,2.905 1.365,4.795 3.955,4.795 2.5725,0 3.955,-1.995 3.955,-4.8125 0,-2.905 -1.3475,-4.795 -3.9375,-4.795 z m 0,1.19 c 1.575,0 2.38,1.155 2.38,3.605 0,2.4675 -0.805,3.6225 -2.3975,3.6225 -1.5925,0 -2.3975,-1.155 -2.3975,-3.605 0,-2.4675 0.8225,-3.6225 2.415,-3.6225 z"
         style="font-size:17.5px"
         id="path4201"
         inkscape:connector-curvature="0" />
      <path
         d="m 228.69686,131.51862 c -1.12,0 -2.0825,0.5425 -2.765,1.4875 l -0.1225,-1.2775 -1.225,0 0,12.915 1.4525,-0.175 0,-4.3925 c 0.6125,0.7 1.435,1.05 2.4325,1.05 2.3975,0 3.5525,-2.0125 3.5525,-4.8125 0,-2.8875 -0.875,-4.795 -3.325,-4.795 z m -0.35,1.1725 c 1.4525,0 2.1175,1.2075 2.1175,3.6225 0,2.4675 -0.77,3.605 -2.31,3.605 -0.875,0 -1.645,-0.4375 -2.1175,-1.155 l 0,-4.585 c 0.49,-0.735 1.2775,-1.4875 2.31,-1.4875 z"
         style="font-size:17.5px"
         id="path4203"
         inkscape:connector-curvature="0" />
      <path
         d="m 238.10503,131.51862 c -2.275,0 -3.5,2.0475 -3.5,4.83 0,2.8875 0.91,4.7775 3.395,4.7775 0.9975,0 1.9075,-0.42 2.59,-1.365 l 0,4.7075 1.4525,0.175 0,-12.915 -1.2425,0 -0.1225,0.9975 c -0.6125,-0.77 -1.4525,-1.2075 -2.5725,-1.2075 z m 0.3675,1.1725 c 0.875,0 1.645,0.455 2.1175,1.19 l 0,4.62 c -0.49,0.7525 -1.26,1.4175 -2.2925,1.4175 -1.435,0 -2.135,-1.19 -2.135,-3.5875 0,-2.4325 0.77,-3.64 2.31,-3.64 z"
         style="font-size:17.5px"
         id="path4205"
         inkscape:connector-curvature="0" />
      <path
         d="m 245.44819,140.93362 6.195,0 0,-1.155 -2.59,0 0,-4.3575 c 0.315,-1.2775 1.2775,-2.485 2.52,-2.485 0.385,0 0.665,0.0525 1.0675,0.1575 l 0.2625,-1.435 c -0.4375,-0.105 -0.7525,-0.14 -1.2075,-0.14 -1.1025,0 -2.1175,0.665 -2.66,1.9775 l -0.175,-1.7675 -3.4125,0 0,1.1375 2.1525,0 0,6.9125 -2.1525,0 0,1.155 z"
         style="font-size:17.5px"
         id="path4207"
         inkscape:connector-curvature="0" />
      <path
         d="m 259.19636,139.93612 c -1.085,0 -2.065,-0.4025 -2.7825,-0.9975 l -0.8225,0.945 c 0.7875,0.6825 1.925,1.2425 3.5875,1.2425 1.9775,0 3.885,-0.77 3.885,-2.73 0,-1.7325 -1.19,-2.3625 -2.9925,-2.8525 -1.8725,-0.5075 -2.45,-0.7875 -2.45,-1.6275 0,-0.7 0.5425,-1.2075 2.0125,-1.2075 1.19,0 1.9775,0.35 2.66,0.8225 l 0.6475,-0.98 c -0.77,-0.5775 -1.855,-1.0325 -3.3425,-1.0325 -2.065,0 -3.4825,0.98 -3.4825,2.52 0,1.61 1.225,2.17 3.15,2.6425 1.9425,0.49 2.2225,0.945 2.2225,1.785 0,0.8925 -0.875,1.47 -2.2925,1.47 z"
         style="font-size:17.5px"
         id="path4209"
         inkscape:connector-curvature="0" />
      <path
         d="m 273.85452,140.47862 -0.56,-0.9975 c -0.5075,0.2625 -1.085,0.4375 -1.7675,0.4375 -1.2775,0 -1.7675,-0.5425 -1.7675,-1.575 l 0,-5.495 3.01,0 0.175,-1.12 -3.185,0 0,-2.275 -1.4525,0.175 0,2.1 -2.1175,0 0,1.12 2.1175,0 0,5.5125 c 0,1.6275 1.12,2.765 3.08,2.765 0.8575,0 1.8375,-0.245 2.4675,-0.6475 z"
         style="font-size:17.5px"
         id="path4211"
         inkscape:connector-curvature="0" />
      <path
         d="m 278.50268,138.25612 0,-6.5275 -1.4525,0 0,6.7025 c 0,1.6975 0.875,2.695 2.66,2.695 1.0675,0 2.2225,-0.5075 2.94,-1.435 l 0.1225,1.2425 1.2425,0 0,-9.205 -1.4525,0 0,6.7725 c -0.49,0.7875 -1.4875,1.47 -2.5025,1.47 -1.0675,0 -1.5575,-0.5075 -1.5575,-1.715 z"
         style="font-size:17.5px"
         id="path4213"
         inkscape:connector-curvature="0" />
      <path
         d="m 291.84835,140.93362 3.36,-9.205 -1.505,0 -2.6425,7.875 -2.6775,-7.875 -1.54,0 3.325,9.205 1.68,0 z"
         style="font-size:17.5px"
         id="path4215"
         inkscape:connector-curvature="0" />
      <path
         d="m 302.77901,140.93362 2.065,0 1.61,-9.205 -1.4175,0 -1.19,8.05 -0.07,0 -1.3125,-6.8775 -1.7325,0 -1.4,6.9125 -0.07,0 -1.19,-8.085 -1.4875,0 1.68,9.205 2.0125,0 1.2425,-6.615 0.07,0 1.19,6.615 z"
         style="font-size:17.5px"
         id="path4217"
         inkscape:connector-curvature="0" />
      <path
         d="m 307.74218,140.93362 1.6625,0 2.555,-3.955 2.5375,3.955 1.785,0 -3.395,-4.935 2.975,-4.27 -1.6625,0 -2.17,3.43 -2.1525,-3.43 -1.715,0 2.9925,4.34 -3.4125,4.865 z"
         style="font-size:17.5px"
         id="path4219"
         inkscape:connector-curvature="0" />
      <path
         d="m 323.43284,140.98612 3.2375,-9.2575 -1.505,0 -2.6075,8.1025 -2.66,-8.1025 -1.5575,0 3.22,9.205 0.49,0 c -0.49,1.435 -1.0325,2.205 -2.94,2.5375 l 0.2275,1.1725 c 2.4325,-0.2625 3.4475,-1.785 4.095,-3.6575 z"
         style="font-size:17.5px"
         id="path4221"
         inkscape:connector-curvature="0" />
      <path
         d="m 336.4635,139.69112 -5.145,0 5.0925,-6.8425 0,-1.12 -6.4575,0 0,1.26 4.7075,0 -5.11,6.8425 0,1.1025 6.72,0 0.1925,-1.2425 z"
         style="font-size:17.5px"
         id="path4223"
         inkscape:connector-curvature="0" />
      <path
         d="m 68.236903,159.72862 4.7775,0 0.9625,3.08 1.575,0 -3.92,-12.04 -1.925,0 -3.92,12.04 1.47,0 0.98,-3.08 z m 4.3925,-1.2425 -4.0075,0 2.0125,-6.4575 1.995,6.4575 z"
         style="font-size:17.5px"
         id="path4225"
         inkscape:connector-curvature="0" />
      <path
         d="m 85.345067,159.37862 c 0,-2.0475 -1.435,-2.73 -2.765,-2.9575 1.155,-0.245 2.24,-1.0675 2.24,-2.625 0,-2.3625 -2.1525,-3.0275 -4.2525,-3.0275 l -2.9575,0 0,12.04 3.22,0 c 2.2225,0 4.515,-0.805 4.515,-3.43 z m -2.065,-5.495 c 0,1.4 -0.7875,2.0125 -2.2225,2.0125 l -1.96,0 0,-3.92 1.82,0 c 1.4525,0 2.3625,0.525 2.3625,1.9075 z m 0.49,5.5475 c 0,1.785 -1.4875,2.135 -2.66,2.135 l -2.0125,0 0,-4.4275 2.0825,0 c 1.4,0 2.59,0.455 2.59,2.2925 z"
         style="font-size:17.5px"
         id="path4227"
         inkscape:connector-curvature="0" />
      <path
         d="m 92.670731,150.55862 c -2.7825,0 -5.145,2.1525 -5.145,6.2125 0,4.06 2.275,6.23 5.215,6.23 1.715,0 2.87,-0.595 3.5875,-1.295 l -0.77,-0.9975 c -0.6475,0.525 -1.4525,1.015 -2.8,1.015 -2.065,0 -3.675,-1.3475 -3.675,-4.9525 0,-3.6925 1.715,-4.9525 3.6925,-4.9525 0.9275,0 1.7675,0.2625 2.5375,0.8925 l 0.84,-0.98 c -0.945,-0.7525 -1.9075,-1.1725 -3.4825,-1.1725 z"
         style="font-size:17.5px"
         id="path4229"
         inkscape:connector-curvature="0" />
      <path
         d="m 106.5589,156.71862 c 0,-5.005 -2.8175,-5.95 -5.635,-5.95 l -2.555005,0 0,12.04 2.747505,0 c 2.5025,0 5.4425,-1.0325 5.4425,-6.09 z m -1.5925,0 c 0,4.0075 -1.925,4.8825 -3.6575,4.8825 l -1.452505,0 0,-9.6075 1.435005,0 c 1.6625,0 3.675,0.525 3.675,4.725 z"
         style="font-size:17.5px"
         id="path4231"
         inkscape:connector-curvature="0" />
      <path
         d="m 111.10206,156.07112 0,-4.0775 5.145,0 0.175,-1.225 -6.825,0 0,12.04 6.9825,0 0,-1.2075 -5.4775,0 0,-4.2875 4.4625,0 0,-1.2425 -4.4625,0 z"
         style="font-size:17.5px"
         id="path4233"
         inkscape:connector-curvature="0" />
      <path
         d="m 121.80522,156.22862 0,-4.235 5.4075,0 0.1925,-1.225 -7.0875,0 0,12.04 1.4875,0 0,-5.3725 4.725,0 0,-1.2075 -4.725,0 z"
         style="font-size:17.5px"
         id="path4235"
         inkscape:connector-curvature="0" />
      <path
         d="m 133.87339,163.00112 c 1.6975,0 2.835,-0.455 3.92,-1.0325 l 0,-5.74 -4.0425,0 0.175,1.2425 2.38,0 0,3.6925 c -0.7,0.385 -1.47,0.5775 -2.31,0.5775 -2.1,0 -3.22,-1.4525 -3.22,-4.97 0,-3.71 1.6975,-4.935 3.4475,-4.935 0.9975,0 1.785,0.315 2.52,0.9975 l 0.91,-0.945 c -0.945,-0.875 -1.8725,-1.33 -3.43,-1.33 -2.59,0 -5.04,2.065 -5.04,6.2125 0,4.165 1.8375,6.23 4.69,6.23 z"
         style="font-size:17.5px"
         id="path4237"
         inkscape:connector-curvature="0" />
      <path
         d="m 146.41405,157.06862 0,5.74 1.4875,0 0,-12.04 -1.4875,0 0,5.0925 -4.585,0 0,-5.0925 -1.4875,0 0,12.04 1.4875,0 0,-5.74 4.585,0 z"
         style="font-size:17.5px"
         id="path4239"
         inkscape:connector-curvature="0" />
      <path
         d="m 158.06222,151.95862 0,-1.19 -6.895,0 0,1.19 2.695,0 0,9.6425 -2.695,0 0,1.2075 6.895,0 0,-1.2075 -2.695,0 0,-9.6425 2.695,0 z"
         style="font-size:17.5px"
         id="path4241"
         inkscape:connector-curvature="0" />
      <path
         d="m 168.53788,158.81862 0,-8.05 -5.0575,0 0,1.225 3.57,0 0,6.7375 c 0,1.8725 -0.945,3.0275 -2.625,3.0275 -0.7175,0 -1.575,-0.175 -2.625,-0.84 l -0.665,0.9975 c 0.945,0.7175 2.1175,1.1025 3.3075,1.1025 3.1675,0 4.095,-2.205 4.095,-4.2 z"
         style="font-size:17.5px"
         id="path4243"
         inkscape:connector-curvature="0" />
      <path
         d="m 172.20604,162.80862 1.4875,0 0,-12.04 -1.4875,0 0,12.04 z m 6.335,-12.04 -4.76,5.6 4.9525,6.44 1.8725,0 -5.0575,-6.5275 4.725,-5.5125 -1.7325,0 z"
         style="font-size:17.5px"
         id="path4245"
         inkscape:connector-curvature="0" />
      <path
         d="m 183.22421,150.76862 0,12.04 6.825,0 0.175,-1.3475 -5.495,0 0,-10.6925 -1.505,0 z"
         style="font-size:17.5px"
         id="path4247"
         inkscape:connector-curvature="0" />
      <path
         d="m 201.29487,162.80862 -0.6825,-12.04 -2.1175,0 -1.8725,8.2425 -1.96,-8.2425 -2.1,0 -0.6825,12.04 1.4,0 0.3325,-6.3175 c 0.07,-1.505 0.07,-3.71 0.07,-4.0075 l 0.07,0 2.065,8.155 1.5225,0 1.995,-8.155 0.035,0 c 0,0.245 0.0175,2.345 0.105,4.0075 l 0.385,6.3175 1.435,0 z"
         style="font-size:17.5px"
         id="path4249"
         inkscape:connector-curvature="0" />
      <path
         d="m 204.56054,152.50112 4.2,10.3075 2.1,0 0,-12.04 -1.4,0 0,6.0375 c 0,2.17 0.1925,4.1125 0.21,4.3225 l -0.07,0 -4.27,-10.36 -2.03,0 0,12.04 1.4,0 0,-6.055 c 0,-1.855 -0.1925,-4.025 -0.21,-4.2525 l 0.07,0 z"
         style="font-size:17.5px"
         id="path4251"
         inkscape:connector-curvature="0" />
      <path
         d="m 222.0012,156.78862 c 0,-3.71 -1.505,-6.23 -4.4275,-6.23 -2.9225,0 -4.4275,2.6075 -4.4275,6.265 0,3.71 1.505,6.1775 4.4275,6.1775 2.9225,0 4.4275,-2.555 4.4275,-6.2125 z m -1.5575,0 c 0,3.22 -0.84,4.9525 -2.87,4.9525 -1.9775,0 -2.87,-1.715 -2.87,-4.9175 0,-3.22 0.8225,-4.9875 2.87,-4.9875 2.0475,0 2.87,1.75 2.87,4.9525 z"
         style="font-size:17.5px"
         id="path4253"
         inkscape:connector-curvature="0" />
      <path
         d="m 232.56436,154.46112 c 0,-2.52 -1.785,-3.6925 -4.655,-3.6925 l -3.045,0 0,12.04 1.4875,0 0,-4.48 1.5575,0 c 2.7125,0 4.655,-1.05 4.655,-3.8675 z m -1.61,0.0175 c 0,2.065 -1.225,2.6425 -2.905,2.6425 l -1.6975,0 0,-5.1625 1.75,0 c 1.645,0 2.8525,0.6475 2.8525,2.52 z"
         style="font-size:17.5px"
         id="path4255"
         inkscape:connector-curvature="0" />
      <path
         d="m 242.98753,156.78862 c 0,-3.71 -1.505,-6.23 -4.4275,-6.23 -2.94,0 -4.445,2.6075 -4.445,6.265 0,3.71 1.505,6.1425 4.27,6.1425 2.0825,0 2.9575,1.015 3.6925,2.87 l 1.5925,-0.63 c -0.595,-1.75 -1.4875,-2.52 -3.08,-2.8525 1.75,-1.0325 2.3975,-2.9925 2.3975,-5.565 z m -1.5575,0 c 0,3.22 -0.84,4.9525 -2.87,4.9525 -1.995,0 -2.8875,-1.715 -2.8875,-4.9175 0,-3.22 0.84,-5.005 2.8875,-5.005 2.03,0 2.87,1.7675 2.87,4.97 z"
         style="font-size:17.5px"
         id="path4257"
         inkscape:connector-curvature="0" />
      <path
         d="m 253.20069,154.12862 c 0,-2.2225 -1.5575,-3.36 -4.5325,-3.36 l -3.08,0 0,12.04 1.505,0 0,-5.18 1.645,0 3.29,5.18 1.8025,0 -3.5875,-5.355 c 1.68,-0.4025 2.9575,-1.505 2.9575,-3.325 z m -1.61,0 c 0,1.68 -0.9975,2.3275 -2.73,2.3275 l -1.7675,0 0,-4.4975 1.75,0 c 1.8725,0 2.7475,0.63 2.7475,2.17 z"
         style="font-size:17.5px"
         id="path4259"
         inkscape:connector-curvature="0" />
      <path
         d="m 263.67636,159.46612 c 0,-2.2925 -1.645,-3.08 -3.5175,-3.6225 -2.2925,-0.665 -3.045,-1.19 -3.045,-2.2225 0,-1.2075 1.1025,-1.8025 2.415,-1.8025 1.0325,0 2.0475,0.3325 2.905,1.1025 l 0.8925,-0.98 c -1.015,-0.875 -2.1875,-1.3825 -3.8325,-1.3825 -2.31,0 -3.9025,1.295 -3.9025,3.0975 0,1.925 1.505,2.7825 3.885,3.4825 2.0825,0.6125 2.6425,1.19 2.6425,2.3625 0,1.5225 -1.3475,2.24 -2.8,2.24 -1.4875,0 -2.52,-0.49 -3.36,-1.2775 l -0.8925,1.015 c 1.015,0.98 2.4675,1.5225 4.2175,1.5225 2.8,0 4.3925,-1.4525 4.3925,-3.535 z"
         style="font-size:17.5px"
         id="path4261"
         inkscape:connector-curvature="0" />
      <path
         d="m 270.75702,162.80862 0,-10.7625 3.6575,0 0.1575,-1.2775 -9.0825,0 0,1.2775 3.78,0 0,10.7625 1.4875,0 z"
         style="font-size:17.5px"
         id="path4263"
         inkscape:connector-curvature="0" />
      <path
         d="m 284.50518,158.90612 0,-8.1375 -1.505,0 0,8.2075 c 0,1.8375 -0.91,2.73 -2.485,2.73 -1.5575,0 -2.4675,-0.8925 -2.4675,-2.73 l 0,-8.2075 -1.4875,0 0,8.1375 c 0,2.4325 1.4875,4.095 3.955,4.095 2.4325,0 3.99,-1.645 3.99,-4.095 z"
         style="font-size:17.5px"
         id="path4265"
         inkscape:connector-curvature="0" />
      <path
         d="m 294.33335,150.76862 -3.2725,10.325 -3.2375,-10.325 -1.61,0 4.0425,12.04 1.54,0 4.0425,-12.04 -1.505,0 z"
         style="font-size:17.5px"
         id="path4267"
         inkscape:connector-curvature="0" />
      <path
         d="m 304.84401,162.80862 1.8375,-12.04 -1.3825,0 -1.435,10.1675 -0.07,0 -1.33,-8.7675 -1.855,0 -1.435,8.8375 -0.07,0 -1.2425,-10.2375 -1.505,0 1.6975,12.04 2.03,0 1.365,-8.8375 0.07,0 1.3475,8.8375 1.9775,0 z"
         style="font-size:17.5px"
         id="path4269"
         inkscape:connector-curvature="0" />
      <path
         d="m 309.35218,150.76862 -1.715,0 3.465,5.6175 -3.7975,6.4225 1.61,0 3.0625,-5.46 3.01,5.46 1.7325,0 -3.85,-6.51 3.43,-5.53 -1.6275,0 -2.66,4.6375 -2.66,-4.6375 z"
         style="font-size:17.5px"
         id="path4271"
         inkscape:connector-curvature="0" />
      <path
         d="m 323.25784,162.80862 0,-4.655 4.0775,-7.385 -1.5575,0 -3.2375,6.0375 -3.2025,-6.0375 -1.6625,0 4.0775,7.4025 0,4.6375 1.505,0 z"
         style="font-size:17.5px"
         id="path4273"
         inkscape:connector-curvature="0" />
      <path
         d="m 336.971,161.51362 -6.3175,0 6.335,-9.52 0,-1.225 -7.35,0 0,1.2775 5.74,0 -6.37,9.5375 0,1.225 7.7875,0 0.175,-1.295 z"
         style="font-size:17.5px"
         id="path4275"
         inkscape:connector-curvature="0" />
      <path
         d="m 70.686903,175.26862 c -2.59,0 -3.9725,1.9775 -3.9725,4.8125 0,2.905 1.365,4.795 3.955,4.795 2.5725,0 3.955,-1.995 3.955,-4.8125 0,-2.905 -1.3475,-4.795 -3.9375,-4.795 z m 0,1.19 c 1.575,0 2.38,1.155 2.38,3.605 0,2.4675 -0.805,3.6225 -2.3975,3.6225 -1.5925,0 -2.3975,-1.155 -2.3975,-3.605 0,-2.4675 0.8225,-3.6225 2.415,-3.6225 z"
         style="font-size:17.5px"
         id="path4277"
         inkscape:connector-curvature="0" />
      <path
         d="m 85.590067,178.66362 c 0,-3.71 -1.505,-6.23 -4.4275,-6.23 -2.9225,0 -4.4275,2.6075 -4.4275,6.265 0,3.71 1.505,6.1775 4.4275,6.1775 2.9225,0 4.4275,-2.555 4.4275,-6.2125 z m -1.5575,0 c 0,3.22 -0.84,4.9525 -2.87,4.9525 -1.9775,0 -2.87,-1.715 -2.87,-4.9175 0,-3.22 0.8225,-4.9875 2.87,-4.9875 2.0475,0 2.87,1.75 2.87,4.9525 z"
         style="font-size:17.5px"
         id="path4279"
         inkscape:connector-curvature="0" />
      <path
         d="m 91.655731,172.43362 c -2.59,0 -3.9375,2.2225 -3.9375,6.2125 0,4.0075 1.3475,6.23 3.9375,6.23 2.59,0 3.9375,-2.2225 3.9375,-6.23 0,-3.99 -1.3475,-6.2125 -3.9375,-6.2125 z m 0,1.19 c 1.5225,0 2.415,1.47 2.415,5.0225 0,3.5875 -0.8925,5.0575 -2.415,5.0575 -1.505,0 -2.415,-1.4875 -2.415,-5.0575 0,-3.57 0.9275,-5.0225 2.415,-5.0225 z m 0,3.885 c -0.6475,0 -1.1375,0.5075 -1.1375,1.1375 0,0.6475 0.49,1.155 1.1375,1.155 0.665,0 1.155,-0.5075 1.155,-1.155 0,-0.63 -0.49,-1.1375 -1.155,-1.1375 z"
         style="font-size:17.5px"
         id="path4281"
         inkscape:connector-curvature="0" />
      <path
         d="m 105.7539,175.49612 c 0,-2.135 -1.855,-3.0625 -3.605,-3.0625 -1.575,0 -3.605005,0.945 -3.605005,3.15 0,1.3475 0.6475,2.1525 1.925005,2.7475 -1.470005,0.6825 -2.415005,1.6625 -2.415005,3.15 0,1.9075 1.4875,3.395 4.060005,3.395 2.5375,0 4.13,-1.4525 4.13,-3.43 0,-1.47 -1.015,-2.5725 -2.5725,-3.22 1.33,-0.735 2.0825,-1.54 2.0825,-2.73 z m -5.775005,0.105 c 0,-1.2775 0.805005,-2.03 2.170005,-2.03 1.3825,0 2.17,0.77 2.17,1.995 0,1.1025 -0.56,1.6625 -1.68,2.2925 -1.645,-0.525 -2.660005,-0.8575 -2.660005,-2.2575 z m 4.742505,5.88 c 0,1.26 -0.9275,2.2225 -2.6075,2.2225 -1.68,0 -2.537505,-0.84 -2.537505,-2.2225 0,-1.5225 0.892505,-2.275 1.890005,-2.73 1.9075,0.665 3.255,1.1025 3.255,2.73 z"
         style="font-size:17.5px"
         id="path4283"
         inkscape:connector-curvature="0" />
      <path
         d="m 123.13522,171.15612 c -0.6125,0 -1.05,0.455 -1.05,1.0325 0,0.595 0.4375,1.0325 1.05,1.0325 0.6475,0 1.0675,-0.4375 1.0675,-1.0325 0,-0.5775 -0.42,-1.0325 -1.0675,-1.0325 z m 1.1725,12.3725 0,-8.05 -4.2175,0 0,1.1375 2.765,0 0,6.9125 -2.8525,0 0,1.155 6.895,0 0,-1.155 -2.59,0 z"
         style="font-size:17.5px"
         id="path4285"
         inkscape:connector-curvature="0" />
      <path
         d="m 137.07589,173.83362 0,-1.19 -6.895,0 0,1.19 2.695,0 0,9.6425 -2.695,0 0,1.2075 6.895,0 0,-1.2075 -2.695,0 0,-9.6425 2.695,0 z"
         style="font-size:17.5px"
         id="path4287"
         inkscape:connector-curvature="0" />
      <path
         d="m 144.20905,182.42612 0,-10.675 -4.2875,0 0,1.155 2.835,0 0,9.4325 c 0,1.5925 1.12,2.5375 2.73,2.5375 0.945,0 1.6975,-0.21 2.1875,-0.4725 l -0.385,-1.05 c -0.5075,0.1925 -0.9975,0.315 -1.5575,0.315 -0.8925,0 -1.5225,-0.3325 -1.5225,-1.2425 z"
         style="font-size:17.5px"
         id="path4289"
         inkscape:connector-curvature="0" />
      <path
         d="m 151.74472,172.64362 0,12.04 6.825,0 0.175,-1.3475 -5.495,0 0,-10.6925 -1.505,0 z"
         style="font-size:17.5px"
         id="path4291"
         inkscape:connector-curvature="0" />
      <path
         d="m 168.90538,183.49362 -2.52,0 0,-10.85 -1.2775,0 -3.57,2.205 0.63,1.0325 2.765,-1.6625 0,9.275 -2.975,0 0,1.19 6.9475,0 0,-1.19 z"
         style="font-size:17.5px"
         id="path4293"
         inkscape:connector-curvature="0" />
      <path
         d="m 188.73671,171.20862 0,-1.1375 c -1.9425,0 -3.7625,0.5775 -3.535,2.7125 l 0.35,3.36 c 0.1225,1.19 -0.28,1.8375 -2.66,1.8375 l 0,1.155 c 2.3625,0 2.7825,0.665 2.66,1.855 l -0.35,3.3425 c -0.2275,2.135 1.5925,2.7125 3.535,2.7125 l 0,-1.1375 c -1.2775,0 -2.31,-0.315 -2.205,-1.4 l 0.3675,-3.605 c 0.14,-1.54 -0.4025,-2.1175 -1.6275,-2.345 1.19,-0.2275 1.7675,-0.875 1.6275,-2.345 l -0.3675,-3.605 c -0.105,-1.0675 0.9275,-1.4 2.205,-1.4 z"
         style="font-size:17.5px"
         id="path4295"
         inkscape:connector-curvature="0" />
      <path
         d="m 193.94487,170.07112 0,1.1375 c 1.2775,0 2.31,0.3325 2.205,1.4 l -0.3675,3.605 c -0.14,1.47 0.4375,2.1175 1.82,2.3625 -1.435,0.21 -1.96,0.7875 -1.82,2.3275 l 0.3675,3.605 c 0.105,1.085 -0.9275,1.4 -2.205,1.4 l 0,1.1375 c 1.9425,0 3.7625,-0.5775 3.535,-2.7125 l -0.35,-3.3425 c -0.1225,-1.19 0.49,-1.855 2.66,-1.855 l 0,-1.155 c -2.17,0 -2.7825,-0.6475 -2.66,-1.8375 l 0.35,-3.36 c 0.2275,-2.135 -1.5925,-2.7125 -3.535,-2.7125 z"
         style="font-size:17.5px"
         id="path4297"
         inkscape:connector-curvature="0" />
      <path
         d="m 215.5437,170.42112 0,16.275 4.375,0 0,-1.225 -2.9925,0 0,-13.8075 2.9925,0 0,-1.2425 -4.375,0 z"
         style="font-size:17.5px"
         id="path4299"
         inkscape:connector-curvature="0" />
      <path
         d="m 230.09686,186.69612 0,-16.275 -4.375,0 0,1.2425 2.9925,0 0,13.8075 -2.9925,0 0,1.225 4.375,0 z"
         style="font-size:17.5px"
         id="path4301"
         inkscape:connector-curvature="0" />
      <path
         d="m 253.49819,175.88112 -0.455,-1.3825 c -1.0675,0.4725 -1.8725,0.77 -4.1825,0.77 -2.1875,0 -3.675,1.33 -3.675,3.2025 0,1.19 0.49,1.995 1.54,2.5375 -0.665,0.4375 -1.015,1.0325 -1.015,1.61 0,0.91 0.7175,1.7325 2.3275,1.7325 l 1.645,0 c 1.1725,0 2.0825,0.455 2.0825,1.33 0,1.015 -0.91,1.5225 -2.94,1.5225 -2.065,0 -2.555,-0.5075 -2.555,-1.5925 l -1.3125,0 c 0,1.89 0.945,2.7825 3.885,2.7825 2.8,0 4.3925,-0.9975 4.3925,-2.8 0,-1.4175 -1.4,-2.5025 -3.255,-2.5025 l -1.6625,0 c -0.945,0 -1.225,-0.3325 -1.225,-0.77 0,-0.35 0.1925,-0.7 0.4725,-0.91 0.385,0.1225 0.7525,0.1925 1.3825,0.1925 2.17,0 3.465,-1.3125 3.465,-3.15 0,-1.05 -0.5425,-1.82 -1.61,-2.31 1.0325,0 1.9075,-0.035 2.695,-0.2625 z m -4.655,0.455 c 1.365,0 2.0475,0.735 2.0475,2.1175 0,1.365 -0.7,2.17 -2.0125,2.17 -1.505,0 -2.205,-0.8925 -2.205,-2.1525 0,-1.2425 0.6825,-2.135 2.17,-2.135 z"
         style="font-size:17.5px"
         id="path4303"
         inkscape:connector-curvature="0" />
      <path
         d="m 259.35386,172.45112 c -2.1525,0 -3.885,1.3825 -3.885,3.9725 0,2.3975 1.435,3.8675 3.4475,3.8325 1.33,-0.0175 2.31,-0.7 2.835,-1.4875 -0.035,2.94 -1.995,4.305 -5.215,5.18 l 0.3325,1.1025 c 4.4975,-1.2775 6.405,-2.7825 6.405,-7.945 0,-2.87 -1.2425,-4.655 -3.92,-4.655 z m -0.175,6.65 c -1.3825,0.0175 -2.205,-0.7875 -2.205,-2.625 0,-1.855 0.805,-2.835 2.38,-2.835 1.68,0 2.4675,0.945 2.4325,3.7975 -0.6475,0.9975 -1.4525,1.645 -2.6075,1.6625 z"
         style="font-size:17.5px"
         id="path4305"
         inkscape:connector-curvature="0" />
      <path
         d="m 269.58452,175.26862 c -2.275,0 -3.5,2.0475 -3.5,4.83 0,2.8875 0.91,4.7775 3.395,4.7775 0.9975,0 1.9075,-0.42 2.59,-1.365 l 0,4.7075 1.4525,0.175 0,-12.915 -1.2425,0 -0.1225,0.9975 c -0.6125,-0.77 -1.4525,-1.2075 -2.5725,-1.2075 z m 0.3675,1.1725 c 0.875,0 1.645,0.455 2.1175,1.19 l 0,4.62 c -0.49,0.7525 -1.26,1.4175 -2.2925,1.4175 -1.435,0 -2.135,-1.19 -2.135,-3.5875 0,-2.4325 0.77,-3.64 2.31,-3.64 z"
         style="font-size:17.5px"
         id="path4307"
         inkscape:connector-curvature="0" />
      <path
         d="m 281.54768,172.43362 c -2.7825,0 -5.145,2.1525 -5.145,6.2125 0,4.06 2.275,6.23 5.215,6.23 1.715,0 2.87,-0.595 3.5875,-1.295 l -0.77,-0.9975 c -0.6475,0.525 -1.4525,1.015 -2.8,1.015 -2.065,0 -3.675,-1.3475 -3.675,-4.9525 0,-3.6925 1.715,-4.9525 3.6925,-4.9525 0.9275,0 1.7675,0.2625 2.5375,0.8925 l 0.84,-0.98 c -0.945,-0.7525 -1.9075,-1.1725 -3.4825,-1.1725 z"
         style="font-size:17.5px"
         id="path4309"
         inkscape:connector-curvature="0" />
      <path
         d="m 291.27085,184.87612 c 1.6975,0 2.835,-0.455 3.92,-1.0325 l 0,-5.74 -4.0425,0 0.175,1.2425 2.38,0 0,3.6925 c -0.7,0.385 -1.47,0.5775 -2.31,0.5775 -2.1,0 -3.22,-1.4525 -3.22,-4.97 0,-3.71 1.6975,-4.935 3.4475,-4.935 0.9975,0 1.785,0.315 2.52,0.9975 l 0.91,-0.945 c -0.945,-0.875 -1.8725,-1.33 -3.43,-1.33 -2.59,0 -5.04,2.065 -5.04,6.2125 0,4.165 1.8375,6.23 4.69,6.23 z"
         style="font-size:17.5px"
         id="path4311"
         inkscape:connector-curvature="0" />
      <path
         d="m 305.94651,178.66362 c 0,-3.71 -1.505,-6.23 -4.4275,-6.23 -2.94,0 -4.445,2.6075 -4.445,6.265 0,3.71 1.505,6.1425 4.27,6.1425 2.0825,0 2.9575,1.015 3.6925,2.87 l 1.5925,-0.63 c -0.595,-1.75 -1.4875,-2.52 -3.08,-2.8525 1.75,-1.0325 2.3975,-2.9925 2.3975,-5.565 z m -1.5575,0 c 0,3.22 -0.84,4.9525 -2.87,4.9525 -1.995,0 -2.8875,-1.715 -2.8875,-4.9175 0,-3.22 0.84,-5.005 2.8875,-5.005 2.03,0 2.87,1.7675 2.87,4.97 z"
         style="font-size:17.5px"
         id="path4313"
         inkscape:connector-curvature="0" />
      <path
         d="m 320.84284,177.68362 c -1.5575,0 -2.31,1.2075 -2.8175,2.2225 l 1.0325,0.525 c 0.455,-0.84 0.98,-1.4875 1.7325,-1.4875 1.12,0 1.7325,1.75 3.3775,1.75 1.54,0 2.31,-1.225 2.8175,-2.205 l -1.0325,-0.5425 c -0.455,0.8225 -1.015,1.4875 -1.7325,1.4875 -1.085,0 -1.61,-1.75 -3.3775,-1.75 z"
         style="font-size:17.5px"
         id="path4315"
         inkscape:connector-curvature="0" />
      <path
         d="m 329.936,178.57612 0,1.26 6.125,0 0,-1.26 -6.125,0 z"
         style="font-size:17.5px"
         id="path4317"
         inkscape:connector-curvature="0" />
      <path
         d="m 344.15667,178.62862 0,-2.6075 -1.365,0 0,2.6075 -2.52,0 0,1.225 2.52,0 0,2.59 1.365,0 0,-2.59 2.555,0 0,-1.225 -2.555,0 z"
         style="font-size:17.5px"
         id="path4319"
         inkscape:connector-curvature="0" />
      <path
         d="m 357.37983,178.20862 0,-1.26 -6.79,0 0,1.26 6.79,0 z m 0,3.325 0,-1.26 -6.79,0 0,1.26 6.79,0 z"
         style="font-size:17.5px"
         id="path4321"
         inkscape:connector-curvature="0" />
      <path
         d="m 368.2055,178.45362 -6.72,-4.165 -0.7175,1.1025 6.195,3.815 -6.195,3.815 0.7875,1.085 6.65,-4.165 0,-1.4875 z"
         style="font-size:17.5px"
         id="path4323"
         inkscape:connector-curvature="0" />
    </g>
  </g>
</svg>
