<?xml version="1.0" encoding="UTF-8" standalone="no"?>
<!-- Created with Inkscape (http://www.inkscape.org/) -->

<svg
   xmlns:dc="http://purl.org/dc/elements/1.1/"
   xmlns:cc="http://creativecommons.org/ns#"
   xmlns:rdf="http://www.w3.org/1999/02/22-rdf-syntax-ns#"
   xmlns:svg="http://www.w3.org/2000/svg"
   xmlns="http://www.w3.org/2000/svg"
   xmlns:sodipodi="http://sodipodi.sourceforge.net/DTD/sodipodi-0.dtd"
   xmlns:inkscape="http://www.inkscape.org/namespaces/inkscape"
   width="85.442627mm"
   height="30.682491mm"
   viewBox="0 0 302.74947 108.71749"
   id="svg2"
   version="1.1"
   inkscape:version="0.91 r13725"
   sodipodi:docname="FiraCode Nerd Font.svg">
  <defs
     id="defs4" />
  <sodipodi:namedview
     id="base"
     pagecolor="#ffffff"
     bordercolor="#666666"
     borderopacity="1.0"
     inkscape:pageopacity="0.0"
     inkscape:pageshadow="2"
     inkscape:zoom="0.7"
     inkscape:cx="-55.769407"
     inkscape:cy="-401.11144"
     inkscape:document-units="px"
     inkscape:current-layer="layer1"
     showgrid="false"
     inkscape:window-width="1861"
     inkscape:window-height="1056"
     inkscape:window-x="59"
     inkscape:window-y="24"
     inkscape:window-maximized="1" />
  <metadata
     id="metadata7">
    <rdf:RDF>
      <cc:Work
         rdf:about="">
        <dc:format>image/svg+xml</dc:format>
        <dc:type
           rdf:resource="http://purl.org/dc/dcmitype/StillImage" />
        <dc:title />
      </cc:Work>
    </rdf:RDF>
  </metadata>
  <g
     inkscape:label="Layer 1"
     inkscape:groupmode="layer"
     id="layer1"
     transform="translate(-65.769403,-79.676132)">
    <g
       style="font-style:normal;font-weight:normal;font-size:27.5px;line-height:125%;font-family:'FiraCode Nerd Font';text-decoration: underline;text-decoration-line: underline;letter-spacing:0px;word-spacing:0px;fill:#ffffff;fill-opacity:1;stroke:none;stroke-width:1px;stroke-linecap:butt;stroke-linejoin:miter;stroke-opacity:1"
       id="text4136">
      <path
         d="m 69.044643,83.966132 8.4975,0 0.275,-1.98 -11.165,0 0,18.947498 2.3925,0 0,-8.414998 7.425,0 0,-1.925 -7.425,0 0,-6.6275 z"
         id="path4140"
         inkscape:connector-curvature="0" />
      <path
         d="m 87.596401,79.676132 c -0.99,0 -1.65,0.6875 -1.65,1.6225 0,0.935 0.66,1.6225 1.65,1.6225 1.0175,0 1.705,-0.6875 1.705,-1.6225 0,-0.935 -0.6875,-1.6225 -1.705,-1.6225 z m 1.8425,6.765 -6.6275,0 0,1.8425 4.3175,0 0,10.8075 -4.455,0 0,1.842498 10.835,0 0,-1.842498 -4.07,0 0,-12.65 z"
         id="path4142"
         inkscape:connector-curvature="0" />
      <path
         d="m 108.37566,86.138632 c -2.6125,0 -4.0975,1.375 -5.1975,3.74 l -0.44,-3.4375 -4.015001,0 0,1.7875 2.282501,0 0,10.9175 -2.282501,0 0,1.787498 7.535001,0 0,-1.787498 -2.9425,0 0,-6.105 c 0.935,-3.19 2.53,-4.785 4.7575,-4.785 l 0.1375,0 0,3.1075 1.87,0 0.33,-4.9225 c -0.6325,-0.165 -1.2375,-0.3025 -2.035,-0.3025 z"
         id="path4144"
         inkscape:connector-curvature="0" />
      <path
         d="m 125.46992,97.771132 0,-6.9575 c 0,-2.86 -1.815,-4.675 -5.4175,-4.675 -1.43,0 -2.97,0.275 -4.7575,0.9075 l 0.6325,1.76 c 1.485,-0.5225 2.805,-0.7425 3.7675,-0.7425 2.145,0 3.4375,0.77 3.4375,2.8875 l 0,1.1825 -2.145,0 c -4.3725,0 -6.765,1.6775 -6.765,4.6475 0,2.695 1.76,4.454998 4.675,4.454998 1.87,0 3.4925,-0.6875 4.5375,-2.034998 0.385,1.319998 1.4025,1.897498 2.64,2.062498 l 0.5775,-1.649998 c -0.825,-0.2475 -1.1825,-0.6875 -1.1825,-1.8425 z m -5.995,1.7325 c -1.8975,0 -2.7775,-0.935 -2.7775,-2.75 0,-1.87 1.155,-3.025 4.345,-3.025 l 2.09,0 0,3.7125 c -0.8525,1.2925 -2.2275,2.0625 -3.6575,2.0625 z"
         id="path4146"
         inkscape:connector-curvature="0" />
      <path
         d="m 138.65917,81.683632 c -4.3725,0 -8.1125,3.3825 -8.1125,9.7625 0,6.38 3.6025,9.789998 8.2225,9.789998 2.695,0 4.51,-0.935 5.665,-2.062498 l -1.2375,-1.54 c -1.0175,0.7975 -2.2825,1.5675 -4.4,1.5675 -3.245,0 -5.7475,-2.1175 -5.7475,-7.755 0,-5.775 2.695,-7.755 5.775,-7.755 1.4575,0 2.7775,0.385 3.9875,1.4025 l 1.3475,-1.5675 c -1.5125,-1.1825 -3.025,-1.8425 -5.5,-1.8425 z"
         id="path4148"
         inkscape:connector-curvature="0" />
      <path
         d="m 153.58093,86.138632 c -4.07,0 -6.27,3.1075 -6.27,7.5625 0,4.565 2.1725,7.534998 6.2425,7.534998 4.0425,0 6.2425,-3.107498 6.2425,-7.562498 0,-4.565 -2.145,-7.535 -6.215,-7.535 z m 0,1.8975 c 2.475,0 3.7125,1.815 3.7125,5.6375 0,3.8775 -1.2375,5.665 -3.74,5.665 -2.5025,0 -3.74,-1.7875 -3.74,-5.6375 0,-3.85 1.265,-5.665 3.7675,-5.665 z"
         id="path4150"
         inkscape:connector-curvature="0" />
      <path
         d="m 173.23269,80.336132 0,7.535 c -0.99,-1.1275 -2.2275,-1.7325 -3.905,-1.7325 -3.5475,0 -5.665,3.2175 -5.665,7.5625 0,4.51 1.7325,7.534998 5.5275,7.534998 1.5675,0 3.025,-0.6875 4.0975,-2.199998 l 0.22,1.897498 2.035,0 0,-20.322498 -2.31,-0.275 z m -3.3,7.6725 c 1.3475,0 2.5025,0.6875 3.3,1.87 l 0,7.205 c -0.7975,1.21 -1.925,2.31 -3.575,2.31 -2.2825,0 -3.4925,-1.925 -3.4925,-5.6925 0,-3.8225 1.375,-5.6925 3.7675,-5.6925 z"
         id="path4152"
         inkscape:connector-curvature="0" />
      <path
         d="m 182.87445,94.498632 9.735,0 c 0.0275,-0.3025 0.055,-0.7425 0.055,-1.2375 0,-4.4 -2.255,-7.1225 -5.9125,-7.1225 -3.85,0 -6.2975,3.19 -6.2975,7.5625 0,4.51 2.3925,7.534998 6.6275,7.534998 1.7875,0 3.6025,-0.6325 4.95,-1.677498 l -1.0725,-1.54 c -1.2925,0.8525 -2.3925,1.2925 -3.8775,1.2925 -2.2275,0 -4.0975,-1.4575 -4.2075,-4.8125 z m 3.905,-6.4625 c 2.2,0 3.575,1.595 3.63,4.7025 l -7.535,0 c 0.1925,-3.19 1.76,-4.7025 3.905,-4.7025 z"
         id="path4154"
         inkscape:connector-curvature="0" />
      <path
         d="m 222.12296,100.93363 3.355,0 0,-18.947498 -2.2275,0 0,9.4875 c 0,3.41 0.3025,6.4625 0.33,7.2325 l -6.7925,-16.72 -3.245,0 0,18.947498 2.2275,0 0,-9.487498 c 0,-2.915 -0.275,-6.325 -0.33,-7.15 l 6.6825,16.637498 z"
         id="path4156"
         inkscape:connector-curvature="0" />
      <path
         d="m 232.34222,94.498632 9.735,0 c 0.0275,-0.3025 0.055,-0.7425 0.055,-1.2375 0,-4.4 -2.255,-7.1225 -5.9125,-7.1225 -3.85,0 -6.2975,3.19 -6.2975,7.5625 0,4.51 2.3925,7.534998 6.6275,7.534998 1.7875,0 3.6025,-0.6325 4.95,-1.677498 l -1.0725,-1.54 c -1.2925,0.8525 -2.3925,1.2925 -3.8775,1.2925 -2.2275,0 -4.0975,-1.4575 -4.2075,-4.8125 z m 3.905,-6.4625 c 2.2,0 3.575,1.595 3.63,4.7025 l -7.535,0 c 0.1925,-3.19 1.76,-4.7025 3.905,-4.7025 z"
         id="path4158"
         inkscape:connector-curvature="0" />
      <path
         d="m 256.77898,86.138632 c -2.6125,0 -4.0975,1.375 -5.1975,3.74 l -0.44,-3.4375 -4.015,0 0,1.7875 2.2825,0 0,10.9175 -2.2825,0 0,1.787498 7.535,0 0,-1.787498 -2.9425,0 0,-6.105 c 0.935,-3.19 2.53,-4.785 4.7575,-4.785 l 0.1375,0 0,3.1075 1.87,0 0.33,-4.9225 c -0.6325,-0.165 -1.2375,-0.3025 -2.035,-0.3025 z"
         id="path4160"
         inkscape:connector-curvature="0" />
      <path
         d="m 272.16824,80.336132 0,7.535 c -0.99,-1.1275 -2.2275,-1.7325 -3.905,-1.7325 -3.5475,0 -5.665,3.2175 -5.665,7.5625 0,4.51 1.7325,7.534998 5.5275,7.534998 1.5675,0 3.025,-0.6875 4.0975,-2.199998 l 0.22,1.897498 2.035,0 0,-20.322498 -2.31,-0.275 z m -3.3,7.6725 c 1.3475,0 2.5025,0.6875 3.3,1.87 l 0,7.205 c -0.7975,1.21 -1.925,2.31 -3.575,2.31 -2.2825,0 -3.4925,-1.925 -3.4925,-5.6925 0,-3.8225 1.375,-5.6925 3.7675,-5.6925 z"
         id="path4162"
         inkscape:connector-curvature="0" />
      <path
         d="m 299.89425,83.966132 8.4975,0 0.275,-1.98 -11.165,0 0,18.947498 2.3925,0 0,-8.414998 7.425,0 0,-1.925 -7.425,0 0,-6.6275 z"
         id="path4164"
         inkscape:connector-curvature="0" />
      <path
         d="m 318.47351,86.138632 c -4.07,0 -6.27,3.1075 -6.27,7.5625 0,4.565 2.1725,7.534998 6.2425,7.534998 4.0425,0 6.2425,-3.107498 6.2425,-7.562498 0,-4.565 -2.145,-7.535 -6.215,-7.535 z m 0,1.8975 c 2.475,0 3.7125,1.815 3.7125,5.6375 0,3.8775 -1.2375,5.665 -3.74,5.665 -2.5025,0 -3.74,-1.7875 -3.74,-5.6375 0,-3.85 1.265,-5.665 3.7675,-5.665 z"
         id="path4166"
         inkscape:connector-curvature="0" />
      <path
         d="m 329.43527,100.93363 2.31,0 0,-10.532498 c 0.77,-1.155 2.2275,-2.42 3.9325,-2.42 2.1725,0 2.475,1.1825 2.475,4.1525 l 0,8.799998 2.31,0 0,-10.504998 c 0,-2.695 -1.2375,-4.29 -4.07,-4.29 -1.705,0 -3.63,0.8525 -4.785,2.3375 l -0.1925,-2.035 -1.98,0 0,14.492498 z"
         id="path4168"
         inkscape:connector-curvature="0" />
      <path
         d="m 357.44703,100.19113 -0.9075,-1.567498 c -0.77,0.4125 -1.705,0.6875 -2.7775,0.6875 -1.98,0 -2.7775,-0.8525 -2.7775,-2.4475 l 0,-8.6075 4.73,0 0.3025,-1.815 -5.0325,0 0,-3.5475 -2.31,0.275 0,3.2725 -3.3275,0 0,1.815 3.3275,0 0,8.635 c 0,2.53 1.76,4.344998 4.8675,4.344998 1.375,0 2.8875,-0.385 3.905,-1.045 z"
         id="path4170"
         inkscape:connector-curvature="0" />
    </g>
    <g
       style="font-style:normal;font-weight:normal;font-size:27.5px;line-height:125%;font-family:'FiraCode Nerd Font';letter-spacing:0px;word-spacing:0px;fill:#ffffff;fill-opacity:1;stroke:none;stroke-width:1px;stroke-linecap:butt;stroke-linejoin:miter;stroke-opacity:1"
       id="text4140">
      <path
         d="m 73.784403,138.92112 0,-4.4275 c 0,-1.82 -1.155,-2.975 -3.4475,-2.975 -0.91,0 -1.89,0.175 -3.0275,0.5775 l 0.4025,1.12 c 0.945,-0.3325 1.785,-0.4725 2.3975,-0.4725 1.365,0 2.1875,0.49 2.1875,1.8375 l 0,0.7525 -1.365,0 c -2.7825,0 -4.305,1.0675 -4.305,2.9575 0,1.715 1.12,2.835 2.975,2.835 1.19,0 2.2225,-0.4375 2.8875,-1.295 0.245,0.84 0.8925,1.2075 1.68,1.3125 l 0.3675,-1.05 c -0.525,-0.1575 -0.7525,-0.4375 -0.7525,-1.1725 z m -3.815,1.1025 c -1.2075,0 -1.7675,-0.595 -1.7675,-1.75 0,-1.19 0.735,-1.925 2.765,-1.925 l 1.33,0 0,2.3625 c -0.5425,0.8225 -1.4175,1.3125 -2.3275,1.3125 z"
         style="font-size:17.5px"
         id="path4173"
         inkscape:connector-curvature="0" />
      <path
         d="m 79.132567,132.91862 0,-5.0925 -1.47,0.175 0,12.9325 1.295,0 0.105,-0.9625 c 0.63,0.805 1.4525,1.155 2.5025,1.155 2.38,0 3.6575,-2.0125 3.6575,-4.8125 0,-2.8875 -0.9975,-4.795 -3.4475,-4.795 -1.0675,0 -1.96,0.5075 -2.6425,1.4 z m 2.1,7.0175 c -0.8575,0 -1.61,-0.4375 -2.1,-1.19 l 0,-4.5675 c 0.5075,-0.735 1.295,-1.47 2.31,-1.47 1.435,0 2.1875,1.2075 2.1875,3.605 0,2.45 -0.875,3.6225 -2.3975,3.6225 z"
         style="font-size:17.5px"
         id="path4175"
         inkscape:connector-curvature="0" />
      <path
         d="m 92.338231,139.86612 c -1.5925,0 -2.7475,-1.0325 -2.7475,-3.5 0,-2.4325 1.1375,-3.605 2.73,-3.605 0.8225,0 1.5925,0.28 2.38,0.805 l 0.7175,-0.9625 c -0.8575,-0.7175 -1.89,-1.085 -3.08,-1.085 -2.7475,0 -4.34,2.0825 -4.34,4.8475 0,2.8875 1.575,4.76 4.34,4.76 1.0675,0 2.31,-0.42 3.0975,-1.1025 l -0.7,-0.9625 c -0.7,0.4725 -1.47,0.805 -2.3975,0.805 z"
         style="font-size:17.5px"
         id="path4177"
         inkscape:connector-curvature="0" />
      <path
         d="m 104.1789,127.82612 0,4.795 c -0.63,-0.7175 -1.4175,-1.1025 -2.485,-1.1025 -2.257505,0 -3.605005,2.0475 -3.605005,4.8125 0,2.87 1.1025,4.795 3.517505,4.795 0.9975,0 1.925,-0.4375 2.6075,-1.4 l 0.14,1.2075 1.295,0 0,-12.9325 -1.47,-0.175 z m -2.1,4.8825 c 0.8575,0 1.5925,0.4375 2.1,1.19 l 0,4.585 c -0.5075,0.77 -1.225,1.47 -2.275,1.47 -1.4525,0 -2.222505,-1.225 -2.222505,-3.6225 0,-2.4325 0.875005,-3.6225 2.397505,-3.6225 z"
         style="font-size:17.5px"
         id="path4179"
         inkscape:connector-curvature="0" />
      <path
         d="m 110.31456,136.83862 6.195,0 c 0.0175,-0.1925 0.035,-0.4725 0.035,-0.7875 0,-2.8 -1.435,-4.5325 -3.7625,-4.5325 -2.45,0 -4.0075,2.03 -4.0075,4.8125 0,2.87 1.5225,4.795 4.2175,4.795 1.1375,0 2.2925,-0.4025 3.15,-1.0675 l -0.6825,-0.98 c -0.8225,0.5425 -1.5225,0.8225 -2.4675,0.8225 -1.4175,0 -2.6075,-0.9275 -2.6775,-3.0625 z m 2.485,-4.1125 c 1.4,0 2.275,1.015 2.31,2.9925 l -4.795,0 c 0.1225,-2.03 1.12,-2.9925 2.485,-2.9925 z"
         style="font-size:17.5px"
         id="path4181"
         inkscape:connector-curvature="0" />
      <path
         d="m 125.07772,127.82612 c -1.9075,0 -3.36,1.0675 -3.36,2.765 l 0,1.8375 -2.1875,0 0,1.1725 2.1875,0 0,7.3325 1.4875,0 0,-7.3325 2.9575,0 0.1575,-1.1725 -3.115,0 0,-1.8725 c 0,-1.015 0.6475,-1.5225 1.925,-1.5225 0.7,0 1.3825,0.1225 1.9775,0.385 l 0.4725,-1.1025 c -0.7175,-0.2975 -1.505,-0.49 -2.5025,-0.49 z"
         style="font-size:17.5px"
         id="path4183"
         inkscape:connector-curvature="0" />
      <path
         d="m 137.63589,130.74862 c -1.085,0.455 -1.89,0.77 -4.2,0.77 -2.1875,0 -3.675,1.33 -3.675,3.2025 0,1.19 0.49,1.995 1.54,2.5375 -0.665,0.4375 -1.015,1.0325 -1.015,1.61 0,0.9275 0.7175,1.75 2.3275,1.75 l 1.645,0 c 1.1725,0 2.065,0.4375 2.065,1.3125 0,0.9975 -0.8925,1.5225 -2.905,1.5225 -2.065,0 -2.555,-0.5075 -2.555,-1.5925 l -1.33,0 c 0,1.8725 0.945,2.7825 3.885,2.7825 2.8,0 4.3925,-0.9975 4.3925,-2.8 0,-1.435 -1.4,-2.5025 -3.255,-2.5025 l -1.6625,0 c -0.945,0 -1.225,-0.35 -1.225,-0.7875 0,-0.3325 0.21,-0.6825 0.4725,-0.8925 0.4025,0.14 0.77,0.1925 1.3825,0.1925 2.1875,0 3.465,-1.3125 3.465,-3.1325 0,-1.05 -0.525,-1.8375 -1.61,-2.3275 1.0325,0 1.925,-0.0175 2.695,-0.2625 l -0.4375,-1.3825 z m -4.2175,1.855 c 1.365,0 2.0475,0.7175 2.0475,2.1 0,1.365 -0.7,2.17 -2.0125,2.17 -1.505,0 -2.1875,-0.8925 -2.1875,-2.1525 0,-1.2425 0.665,-2.1175 2.1525,-2.1175 z"
         style="font-size:17.5px"
         id="path4185"
         inkscape:connector-curvature="0" />
      <path
         d="m 142.09155,127.86112 -1.47,0.1575 0,12.915 1.47,0 0,-6.72 c 0.49,-0.7175 1.435,-1.5225 2.4675,-1.5225 1.1025,0 1.61,0.4725 1.61,1.575 l 0,6.6675 1.47,0 0,-6.685 c 0,-1.715 -0.7875,-2.73 -2.59,-2.73 -1.1025,0 -2.2225,0.5075 -2.9575,1.47 l 0,-5.1275 z"
         style="font-size:17.5px"
         id="path4187"
         inkscape:connector-curvature="0" />
      <path
         d="m 154.61472,127.40612 c -0.63,0 -1.05,0.4375 -1.05,1.0325 0,0.595 0.42,1.0325 1.05,1.0325 0.6475,0 1.085,-0.4375 1.085,-1.0325 0,-0.595 -0.4375,-1.0325 -1.085,-1.0325 z m 1.1725,4.305 -4.2175,0 0,1.1725 2.7475,0 0,6.8775 -2.835,0 0,1.1725 6.895,0 0,-1.1725 -2.59,0 0,-8.05 z"
         style="font-size:17.5px"
         id="path4189"
         inkscape:connector-curvature="0" />
      <path
         d="m 166.28038,127.40612 c -0.63,0 -1.0675,0.4375 -1.0675,1.0325 0,0.595 0.4375,1.0325 1.0675,1.0325 0.6475,0 1.0675,-0.4375 1.0675,-1.0325 0,-0.595 -0.42,-1.0325 -1.0675,-1.0325 z m 1.365,4.305 -5.3025,0 0,1.1725 3.8325,0 0,6.6675 c 0,2.485 -1.925,3.5 -4.6375,3.955 l 0.245,1.1375 c 3.71,-0.63 5.8625,-2.1 5.8625,-5.18 l 0,-7.7525 z"
         style="font-size:17.5px"
         id="path4191"
         inkscape:connector-curvature="0" />
      <path
         d="m 173.67604,127.82612 -1.47,0.175 0,12.9325 1.47,0 0,-13.1075 z m 6.1425,3.885 -1.89,0 -4.095,4.1825 4.5325,5.04 1.9425,0 -4.62,-5.0575 4.13,-4.165 z"
         style="font-size:17.5px"
         id="path4193"
         inkscape:connector-curvature="0" />
      <path
         d="m 186.19921,128.00112 -4.305,0 0,1.1725 2.835,0 0,9.415 c 0,1.5925 1.1025,2.5375 2.73,2.5375 0.945,0 1.6975,-0.21 2.1875,-0.4725 l -0.385,-1.0675 c -0.5075,0.1925 -0.9975,0.315 -1.54,0.315 -0.8925,0 -1.5225,-0.3325 -1.5225,-1.2425 l 0,-10.6575 z"
         style="font-size:17.5px"
         id="path4195"
         inkscape:connector-curvature="0" />
      <path
         d="m 199.15987,131.51862 c -0.9275,0 -1.5225,0.49 -2.03,1.225 -0.28,-0.945 -0.9625,-1.225 -1.6625,-1.225 -0.9275,0 -1.505,0.56 -1.995,1.2775 l -0.105,-1.085 -1.1375,0 0,9.2225 1.3475,0 0,-7.1575 c 0.5075,-0.7875 1.0325,-1.1025 1.61,-1.1025 0.665,0 0.7175,0.4725 0.7175,1.645 l 0,6.615 1.365,0 0,-7.1575 c 0.5075,-0.7875 1.05,-1.1025 1.61,-1.1025 0.665,0 0.7175,0.4725 0.7175,1.645 l 0,6.615 1.3475,0 0,-6.86 c 0,-2.1175 -0.8925,-2.555 -1.785,-2.555 z"
         style="font-size:17.5px"
         id="path4197"
         inkscape:connector-curvature="0" />
      <path
         d="m 203.58054,140.93362 1.47,0 0,-6.7025 c 0.49,-0.735 1.4175,-1.54 2.5025,-1.54 1.3825,0 1.575,0.7525 1.575,2.6425 l 0,5.6 1.47,0 0,-6.685 c 0,-1.715 -0.7875,-2.73 -2.59,-2.73 -1.085,0 -2.31,0.5425 -3.045,1.4875 l -0.1225,-1.295 -1.26,0 0,9.2225 z"
         style="font-size:17.5px"
         id="path4199"
         inkscape:connector-curvature="0" />
      <path
         d="m 217.5912,131.51862 c -2.59,0 -3.99,1.9775 -3.99,4.8125 0,2.905 1.3825,4.795 3.9725,4.795 2.5725,0 3.9725,-1.9775 3.9725,-4.8125 0,-2.905 -1.365,-4.795 -3.955,-4.795 z m 0,1.2075 c 1.575,0 2.3625,1.155 2.3625,3.5875 0,2.4675 -0.7875,3.605 -2.38,3.605 -1.5925,0 -2.38,-1.1375 -2.38,-3.5875 0,-2.45 0.805,-3.605 2.3975,-3.605 z"
         style="font-size:17.5px"
         id="path4201"
         inkscape:connector-curvature="0" />
      <path
         d="m 228.69686,131.51862 c -1.1025,0 -2.0825,0.5425 -2.7475,1.4875 l -0.1225,-1.295 -1.26,0 0,12.9325 1.47,-0.175 0,-4.3925 c 0.63,0.7 1.435,1.05 2.45,1.05 2.3975,0 3.5525,-2.0125 3.5525,-4.8125 0,-2.8875 -0.8925,-4.795 -3.3425,-4.795 z m -0.35,1.19 c 1.4525,0 2.1,1.2075 2.1,3.605 0,2.45 -0.77,3.5875 -2.2925,3.5875 -0.875,0 -1.6275,-0.4375 -2.1175,-1.155 l 0,-4.5675 c 0.5075,-0.735 1.295,-1.47 2.31,-1.47 z"
         style="font-size:17.5px"
         id="path4203"
         inkscape:connector-curvature="0" />
      <path
         d="m 238.13921,131.51862 c -2.275,0 -3.5175,2.0475 -3.5175,4.8125 0,2.905 0.9275,4.795 3.395,4.795 1.015,0 1.925,-0.4025 2.6075,-1.3475 l 0,4.69 1.47,0.175 0,-12.9325 -1.26,0 -0.1225,1.015 c -0.6125,-0.77 -1.47,-1.2075 -2.5725,-1.2075 z m 0.3675,1.19 c 0.875,0 1.6275,0.4375 2.1175,1.19 l 0,4.585 c -0.5075,0.77 -1.2775,1.4175 -2.2925,1.4175 -1.435,0 -2.1175,-1.1725 -2.1175,-3.57 0,-2.4325 0.77,-3.6225 2.2925,-3.6225 z"
         style="font-size:17.5px"
         id="path4205"
         inkscape:connector-curvature="0" />
      <path
         d="m 251.81737,131.51862 c -1.6625,0 -2.6075,0.875 -3.3075,2.38 l -0.28,-2.1875 -2.555,0 0,1.1375 1.4525,0 0,6.9475 -1.4525,0 0,1.1375 4.795,0 0,-1.1375 -1.8725,0 0,-3.885 c 0.595,-2.03 1.61,-3.045 3.0275,-3.045 l 0.0875,0 0,1.9775 1.19,0 0.21,-3.1325 c -0.4025,-0.105 -0.7875,-0.1925 -1.295,-0.1925 z"
         style="font-size:17.5px"
         id="path4207"
         inkscape:connector-curvature="0" />
      <path
         d="m 259.23054,139.91862 c -1.085,0 -2.065,-0.4025 -2.7825,-0.9975 l -0.8225,0.9625 c 0.7875,0.6825 1.925,1.2425 3.605,1.2425 1.96,0 3.8675,-0.77 3.8675,-2.7475 0,-1.715 -1.19,-2.345 -2.9925,-2.835 -1.855,-0.5075 -2.4325,-0.7875 -2.4325,-1.6275 0,-0.7 0.525,-1.2075 1.995,-1.2075 1.19,0 1.9775,0.3675 2.66,0.84 l 0.665,-1.015 c -0.7875,-0.56 -1.8725,-1.015 -3.36,-1.015 -2.0825,0 -3.5,0.98 -3.5,2.52 0,1.61 1.2425,2.1875 3.15,2.66 1.96,0.49 2.2225,0.9275 2.2225,1.75 0,0.8925 -0.8575,1.47 -2.275,1.47 z"
         style="font-size:17.5px"
         id="path4209"
         inkscape:connector-curvature="0" />
      <path
         d="m 273.9062,140.46112 -0.5775,-0.9975 c -0.49,0.2625 -1.085,0.4375 -1.7675,0.4375 -1.26,0 -1.7675,-0.5425 -1.7675,-1.5575 l 0,-5.4775 3.01,0 0.1925,-1.155 -3.2025,0 0,-2.2575 -1.47,0.175 0,2.0825 -2.1175,0 0,1.155 2.1175,0 0,5.495 c 0,1.61 1.12,2.765 3.0975,2.765 0.875,0 1.8375,-0.245 2.485,-0.665 z"
         style="font-size:17.5px"
         id="path4211"
         inkscape:connector-curvature="0" />
      <path
         d="m 278.53686,131.71112 -1.47,0 0,6.7025 c 0,1.715 0.875,2.7125 2.66,2.7125 1.085,0 2.2225,-0.5075 2.9575,-1.435 l 0.1225,1.2425 1.26,0 0,-9.2225 -1.47,0 0,6.79 c -0.5075,0.7875 -1.4875,1.47 -2.5025,1.47 -1.0675,0 -1.5575,-0.525 -1.5575,-1.715 l 0,-6.545 z"
         style="font-size:17.5px"
         id="path4213"
         inkscape:connector-curvature="0" />
      <path
         d="m 295.26003,131.71112 -1.54,0 -2.625,7.8925 -2.66,-7.8925 -1.575,0 3.3425,9.2225 1.6975,0 3.36,-9.2225 z"
         style="font-size:17.5px"
         id="path4215"
         inkscape:connector-curvature="0" />
      <path
         d="m 304.89569,140.93362 1.5925,-9.2225 -1.4175,0 -1.19,8.3125 -1.3825,-7.14 -1.7325,0 -1.47,7.14 -1.19,-8.3125 -1.4875,0 1.6625,9.2225 2.03,0 1.295,-6.755 1.2075,6.755 2.0825,0 z"
         style="font-size:17.5px"
         id="path4217"
         inkscape:connector-curvature="0" />
      <path
         d="m 309.45636,140.93362 2.5375,-3.955 2.5375,3.955 1.785,0 -3.395,-4.935 2.9925,-4.2875 -1.6975,0 -2.1525,3.43 -2.135,-3.43 -1.75,0 2.9925,4.3575 -3.395,4.865 1.68,0 z"
         style="font-size:17.5px"
         id="path4219"
         inkscape:connector-curvature="0" />
      <path
         d="m 326.70452,131.71112 -1.5225,0 -2.6075,8.1025 -2.6425,-8.1025 -1.5575,0 3.2025,9.2225 0.49,0 c -0.4725,1.4175 -1.0325,2.205 -2.9225,2.5375 l 0.21,1.1725 c 2.45,-0.2625 3.4825,-1.7675 4.13,-3.6575 l 3.22,-9.275 z"
         style="font-size:17.5px"
         id="path4221"
         inkscape:connector-curvature="0" />
      <path
         d="m 331.37018,139.67362 5.075,-6.8075 0,-1.155 -6.475,0 0,1.295 4.7075,0 -5.11,6.8075 0,1.12 6.755,0 0.175,-1.26 -5.1275,0 z"
         style="font-size:17.5px"
         id="path4223"
         inkscape:connector-curvature="0" />
      <path
         d="m 73.014403,159.72862 0.9625,3.08 1.575,0 -3.92,-12.0575 -1.925,0 -3.9375,12.0575 1.505,0 0.9625,-3.08 4.7775,0 z m -4.375,-1.26 1.995,-6.4225 1.9775,6.4225 -3.9725,0 z"
         style="font-size:17.5px"
         id="path4225"
         inkscape:connector-curvature="0" />
      <path
         d="m 85.362567,159.37862 c 0,-2.0475 -1.435,-2.73 -2.7825,-2.9575 1.155,-0.2625 2.2575,-1.0675 2.2575,-2.625 0,-2.3625 -2.1525,-3.045 -4.27,-3.045 l -2.975,0 0,12.0575 3.255,0 c 2.205,0 4.515,-0.805 4.515,-3.43 z m -2.0825,-5.495 c 0,1.4 -0.805,1.995 -2.2225,1.995 l -1.9425,0 0,-3.885 1.8025,0 c 1.4525,0 2.3625,0.5075 2.3625,1.89 z m 0.4725,5.5475 c 0,1.785 -1.47,2.1175 -2.6425,2.1175 l -1.995,0 0,-4.41 2.0475,0 c 1.4175,0 2.59,0.455 2.59,2.2925 z"
         style="font-size:17.5px"
         id="path4227"
         inkscape:connector-curvature="0" />
      <path
         d="m 92.670731,150.55862 c -2.7825,0 -5.1625,2.1525 -5.1625,6.2125 0,4.06 2.2925,6.23 5.2325,6.23 1.715,0 2.87,-0.595 3.605,-1.3125 l -0.7875,-0.98 c -0.6475,0.5075 -1.4525,0.9975 -2.8,0.9975 -2.065,0 -3.6575,-1.3475 -3.6575,-4.935 0,-3.675 1.715,-4.935 3.675,-4.935 0.9275,0 1.7675,0.245 2.5375,0.8925 l 0.8575,-0.9975 c -0.9625,-0.7525 -1.925,-1.1725 -3.5,-1.1725 z"
         style="font-size:17.5px"
         id="path4229"
         inkscape:connector-curvature="0" />
      <path
         d="m 106.5764,156.71862 c 0,-5.005 -2.8175,-5.9675 -5.6525,-5.9675 l -2.572505,0 0,12.0575 2.765005,0 c 2.5025,0 5.46,-1.0325 5.46,-6.09 z m -1.6275,0 c 0,3.99 -1.9075,4.865 -3.64,4.865 l -1.435005,0 0,-9.59 1.417505,0 c 1.6625,0 3.6575,0.525 3.6575,4.725 z"
         style="font-size:17.5px"
         id="path4231"
         inkscape:connector-curvature="0" />
      <path
         d="m 111.10206,152.01112 5.1625,0 0.175,-1.26 -6.8425,0 0,12.0575 7,0 0,-1.225 -5.495,0 0,-4.27 4.48,0 0,-1.2425 -4.48,0 0,-4.06 z"
         style="font-size:17.5px"
         id="path4233"
         inkscape:connector-curvature="0" />
      <path
         d="m 121.82272,152.01112 5.4075,0 0.175,-1.26 -7.105,0 0,12.0575 1.5225,0 0,-5.355 4.725,0 0,-1.225 -4.725,0 0,-4.2175 z"
         style="font-size:17.5px"
         id="path4235"
         inkscape:connector-curvature="0" />
      <path
         d="m 133.87339,163.00112 c 1.6975,0 2.8525,-0.4375 3.9375,-1.05 l 0,-5.74 -4.06,0 0.175,1.2775 2.3625,0 0,3.6575 c -0.6825,0.385 -1.4525,0.5775 -2.2925,0.5775 -2.1,0 -3.2025,-1.4525 -3.2025,-4.9525 0,-3.71 1.68,-4.935 3.43,-4.935 0.9975,0 1.785,0.315 2.52,0.9975 l 0.91,-0.945 c -0.945,-0.875 -1.855,-1.33 -3.43,-1.33 -2.6075,0 -5.0575,2.065 -5.0575,6.2125 0,4.165 1.8375,6.23 4.7075,6.23 z"
         style="font-size:17.5px"
         id="path4237"
         inkscape:connector-curvature="0" />
      <path
         d="m 146.39655,162.80862 1.5225,0 0,-12.0575 -1.5225,0 0,5.0925 -4.55,0 0,-5.0925 -1.5225,0 0,12.0575 1.5225,0 0,-5.7225 4.55,0 0,5.7225 z"
         style="font-size:17.5px"
         id="path4239"
         inkscape:connector-curvature="0" />
      <path
         d="m 158.06222,150.75112 -6.895,0 0,1.225 2.6775,0 0,9.625 -2.6775,0 0,1.2075 6.895,0 0,-1.2075 -2.6775,0 0,-9.625 2.6775,0 0,-1.225 z"
         style="font-size:17.5px"
         id="path4241"
         inkscape:connector-curvature="0" />
      <path
         d="m 168.55538,150.75112 -5.0925,0 0,1.2425 3.57,0 0,6.7375 c 0,1.8725 -0.945,3.01 -2.625,3.01 -0.7,0 -1.575,-0.175 -2.6075,-0.8225 l -0.665,0.9975 c 0.945,0.7175 2.1175,1.1025 3.29,1.1025 3.185,0 4.13,-2.205 4.13,-4.2175 l 0,-8.05 z"
         style="font-size:17.5px"
         id="path4243"
         inkscape:connector-curvature="0" />
      <path
         d="m 173.71104,162.80862 0,-12.0575 -1.5225,0 0,12.0575 1.5225,0 z m 0.0875,-6.44 4.9175,6.44 1.9075,0 -5.04,-6.5275 4.7075,-5.53 -1.7675,0 -4.725,5.6175 z"
         style="font-size:17.5px"
         id="path4245"
         inkscape:connector-curvature="0" />
      <path
         d="m 183.22421,162.80862 6.825,0 0.1925,-1.3475 -5.5125,0 0,-10.71 -1.505,0 0,12.0575 z"
         style="font-size:17.5px"
         id="path4247"
         inkscape:connector-curvature="0" />
      <path
         d="m 200.62987,150.75112 -2.135,0 -1.8725,8.26 -1.96,-8.26 -2.1175,0 -0.6825,12.0575 1.435,0 0.315,-6.3 c 0.0875,-1.505 0.07,-3.6925 0.035,-4.3575 l 2.17,8.4875 1.5225,0 2.03,-8.4875 c 0,0.595 0,2.695 0.105,4.3575 l 0.3675,6.3 1.47,0 -0.6825,-12.0575 z"
         style="font-size:17.5px"
         id="path4249"
         inkscape:connector-curvature="0" />
      <path
         d="m 208.74304,162.80862 2.135,0 0,-12.0575 -1.4175,0 0,6.0375 c 0,2.17 0.1925,4.1125 0.21,4.6025 l -4.3225,-10.64 -2.065,0 0,12.0575 1.4175,0 0,-6.0375 c 0,-1.855 -0.175,-4.025 -0.21,-4.55 l 4.2525,10.5875 z"
         style="font-size:17.5px"
         id="path4251"
         inkscape:connector-curvature="0" />
      <path
         d="m 222.0012,156.78862 c 0,-3.71 -1.505,-6.23 -4.4275,-6.23 -2.9225,0 -4.4275,2.6075 -4.4275,6.2475 0,3.7275 1.505,6.195 4.4275,6.195 2.9225,0 4.4275,-2.555 4.4275,-6.2125 z m -1.575,0 c 0,3.22 -0.8225,4.935 -2.8525,4.935 -1.9775,0 -2.8525,-1.6975 -2.8525,-4.9175 0,-3.2025 0.8225,-4.97 2.8525,-4.97 2.03,0 2.8525,1.75 2.8525,4.9525 z"
         style="font-size:17.5px"
         id="path4253"
         inkscape:connector-curvature="0" />
      <path
         d="m 232.56436,154.46112 c 0,-2.52 -1.7675,-3.71 -4.655,-3.71 l -3.0625,0 0,12.0575 1.505,0 0,-4.48 1.5575,0 c 2.7125,0 4.655,-1.05 4.655,-3.8675 z m -1.6275,0.0175 c 0,2.065 -1.225,2.6425 -2.8875,2.6425 l -1.6975,0 0,-5.1625 1.75,0 c 1.6275,0 2.835,0.665 2.835,2.52 z"
         style="font-size:17.5px"
         id="path4255"
         inkscape:connector-curvature="0" />
      <path
         d="m 243.00503,156.78862 c 0,-3.71 -1.5225,-6.23 -4.445,-6.23 -2.94,0 -4.4625,2.6075 -4.4625,6.2475 0,3.7275 1.5225,6.1775 4.2875,6.1775 2.0825,0 2.9575,0.9975 3.6925,2.8525 l 1.61,-0.63 c -0.595,-1.7675 -1.4875,-2.52 -3.185,-2.87 1.855,-1.015 2.5025,-2.9925 2.5025,-5.5475 z m -1.5925,0 c 0,3.22 -0.8225,4.935 -2.8525,4.935 -1.9775,0 -2.87,-1.6975 -2.87,-4.9175 0,-3.2025 0.84,-4.97 2.87,-4.97 2.03,0 2.8525,1.75 2.8525,4.9525 z"
         style="font-size:17.5px"
         id="path4257"
         inkscape:connector-curvature="0" />
      <path
         d="m 253.20069,154.14612 c 0,-2.24 -1.5575,-3.395 -4.5325,-3.395 l -3.08,0 0,12.0575 1.505,0 0,-5.1625 1.6275,0 3.3075,5.1625 1.82,0 -3.5875,-5.3375 c 1.6625,-0.42 2.94,-1.5225 2.94,-3.325 z m -1.61,0 c 0,1.6625 -0.9975,2.31 -2.73,2.31 l -1.7675,0 0,-4.48 1.75,0 c 1.855,0 2.7475,0.6125 2.7475,2.17 z"
         style="font-size:17.5px"
         id="path4259"
         inkscape:connector-curvature="0" />
      <path
         d="m 263.69386,159.46612 c 0,-2.2925 -1.645,-3.08 -3.535,-3.6225 -2.2925,-0.665 -3.0275,-1.19 -3.0275,-2.2225 0,-1.2075 1.085,-1.785 2.415,-1.785 1.015,0 2.03,0.3325 2.8875,1.085 l 0.91,-0.98 c -1.015,-0.875 -2.205,-1.3825 -3.85,-1.3825 -2.31,0 -3.9025,1.295 -3.9025,3.115 0,1.9075 1.4875,2.7825 3.885,3.4825 2.065,0.595 2.625,1.1725 2.625,2.345 0,1.5225 -1.33,2.24 -2.8,2.24 -1.47,0 -2.5025,-0.5075 -3.3425,-1.295 l -0.91,1.0325 c 1.015,0.98 2.4675,1.5225 4.235,1.5225 2.8,0 4.41,-1.4525 4.41,-3.535 z"
         style="font-size:17.5px"
         id="path4261"
         inkscape:connector-curvature="0" />
      <path
         d="m 270.77452,152.06362 3.64,0 0.1575,-1.3125 -9.0825,0 0,1.3125 3.7625,0 0,10.745 1.5225,0 0,-10.745 z"
         style="font-size:17.5px"
         id="path4263"
         inkscape:connector-curvature="0" />
      <path
         d="m 284.52268,150.75112 -1.54,0 0,8.2075 c 0,1.8375 -0.8925,2.73 -2.4675,2.73 -1.5575,0 -2.45,-0.8925 -2.45,-2.73 l 0,-8.2075 -1.5225,0 0,8.155 c 0,2.4325 1.4875,4.095 3.9725,4.095 2.4325,0 4.0075,-1.645 4.0075,-4.095 l 0,-8.155 z"
         style="font-size:17.5px"
         id="path4265"
         inkscape:connector-curvature="0" />
      <path
         d="m 291.06085,161.07612 -3.22,-10.325 -1.6275,0 4.025,12.0575 1.575,0 4.025,-12.0575 -1.5225,0 -3.255,10.325 z"
         style="font-size:17.5px"
         id="path4267"
         inkscape:connector-curvature="0" />
      <path
         d="m 306.68151,150.75112 -1.4,0 -1.435,10.395 -1.3825,-8.995 -1.855,0 -1.4525,8.995 -1.2775,-10.395 -1.5225,0 1.68,12.0575 2.0475,0 1.4,-9.1 1.3825,9.1 1.995,0 1.82,-12.0575 z"
         style="font-size:17.5px"
         id="path4269"
         inkscape:connector-curvature="0" />
      <path
         d="m 307.61968,150.75112 3.465,5.635 -3.78,6.4225 1.6275,0 3.045,-5.4425 2.9925,5.4425 1.75,0 -3.8325,-6.51 3.4125,-5.5475 -1.6275,0 -2.66,4.6375 -2.6425,-4.6375 -1.75,0 z"
         style="font-size:17.5px"
         id="path4271"
         inkscape:connector-curvature="0" />
      <path
         d="m 323.27534,158.15362 4.0775,-7.4025 -1.575,0 -3.2375,6.055 -3.2025,-6.055 -1.68,0 4.0775,7.42 0,4.6375 1.54,0 0,-4.655 z"
         style="font-size:17.5px"
         id="path4273"
         inkscape:connector-curvature="0" />
      <path
         d="m 330.671,161.49612 6.3175,-9.485 0,-1.26 -7.35,0 0,1.3125 5.7225,0 -6.3525,9.52 0,1.225 7.7875,0 0.175,-1.3125 -6.3,0 z"
         style="font-size:17.5px"
         id="path4275"
         inkscape:connector-curvature="0" />
      <path
         d="m 70.686903,175.26862 c -2.59,0 -3.99,1.9775 -3.99,4.8125 0,2.905 1.3825,4.795 3.9725,4.795 2.5725,0 3.9725,-1.9775 3.9725,-4.8125 0,-2.905 -1.365,-4.795 -3.955,-4.795 z m 0,1.2075 c 1.575,0 2.3625,1.155 2.3625,3.5875 0,2.4675 -0.7875,3.605 -2.38,3.605 -1.5925,0 -2.38,-1.1375 -2.38,-3.5875 0,-2.45 0.805,-3.605 2.3975,-3.605 z"
         style="font-size:17.5px"
         id="path4277"
         inkscape:connector-curvature="0" />
      <path
         d="m 85.590067,178.66362 c 0,-3.71 -1.505,-6.23 -4.4275,-6.23 -2.9225,0 -4.4275,2.6075 -4.4275,6.2475 0,3.7275 1.505,6.195 4.4275,6.195 2.9225,0 4.4275,-2.555 4.4275,-6.2125 z m -1.575,0 c 0,3.22 -0.8225,4.935 -2.8525,4.935 -1.9775,0 -2.8525,-1.6975 -2.8525,-4.9175 0,-3.2025 0.8225,-4.97 2.8525,-4.97 2.03,0 2.8525,1.75 2.8525,4.9525 z"
         style="font-size:17.5px"
         id="path4279"
         inkscape:connector-curvature="0" />
      <path
         d="m 91.655731,172.43362 c -2.59,0 -3.9375,2.2225 -3.9375,6.2125 0,4.0075 1.3475,6.23 3.9375,6.23 2.59,0 3.9375,-2.2225 3.9375,-6.23 0,-3.99 -1.3475,-6.2125 -3.9375,-6.2125 z m 0,1.19 c 0.6825,0 1.2075,0.245 1.5925,0.77 l -3.675,7.4025 c -0.21,-0.77 -0.315,-1.8025 -0.315,-3.15 0,-3.5525 0.91,-5.0225 2.3975,-5.0225 z m 0,10.0625 c -0.6825,0 -1.19,-0.2275 -1.575,-0.7525 l 3.6575,-7.455 c 0.21,0.77 0.315,1.82 0.315,3.1675 0,3.57 -0.8925,5.04 -2.3975,5.04 z"
         style="font-size:17.5px"
         id="path4281"
         inkscape:connector-curvature="0" />
      <path
         d="m 105.7539,175.49612 c 0,-2.135 -1.855,-3.0625 -3.605,-3.0625 -1.5925,0 -3.605005,0.945 -3.605005,3.15 0,1.3475 0.63,2.135 1.925005,2.7475 -1.470005,0.6825 -2.432505,1.68 -2.432505,3.15 0,1.9075 1.4875,3.395 4.077505,3.395 2.5375,0 4.1475,-1.4525 4.1475,-3.43 0,-1.47 -1.015,-2.5725 -2.59,-3.22 1.33,-0.735 2.0825,-1.5575 2.0825,-2.73 z m -5.775005,0.105 c 0,-1.2775 0.805005,-2.0125 2.170005,-2.0125 1.3825,0 2.17,0.77 2.17,1.9775 0,1.085 -0.56,1.645 -1.68,2.2925 -1.645,-0.5425 -2.660005,-0.875 -2.660005,-2.2575 z m 4.725005,5.88 c 0,1.26 -0.91,2.205 -2.59,2.205 -1.6625,0 -2.520005,-0.84 -2.520005,-2.205 0,-1.505 0.892505,-2.275 1.872505,-2.73 1.9075,0.665 3.2375,1.1025 3.2375,2.73 z"
         style="font-size:17.5px"
         id="path4283"
         inkscape:connector-curvature="0" />
      <path
         d="m 123.13522,171.15612 c -0.63,0 -1.05,0.4375 -1.05,1.0325 0,0.595 0.42,1.0325 1.05,1.0325 0.6475,0 1.085,-0.4375 1.085,-1.0325 0,-0.595 -0.4375,-1.0325 -1.085,-1.0325 z m 1.1725,4.305 -4.2175,0 0,1.1725 2.7475,0 0,6.8775 -2.835,0 0,1.1725 6.895,0 0,-1.1725 -2.59,0 0,-8.05 z"
         style="font-size:17.5px"
         id="path4285"
         inkscape:connector-curvature="0" />
      <path
         d="m 137.07589,172.62612 -6.895,0 0,1.225 2.6775,0 0,9.625 -2.6775,0 0,1.2075 6.895,0 0,-1.2075 -2.6775,0 0,-9.625 2.6775,0 0,-1.225 z"
         style="font-size:17.5px"
         id="path4287"
         inkscape:connector-curvature="0" />
      <path
         d="m 144.22655,171.75112 -4.305,0 0,1.1725 2.835,0 0,9.415 c 0,1.5925 1.1025,2.5375 2.73,2.5375 0.945,0 1.6975,-0.21 2.1875,-0.4725 l -0.385,-1.0675 c -0.5075,0.1925 -0.9975,0.315 -1.54,0.315 -0.8925,0 -1.5225,-0.3325 -1.5225,-1.2425 l 0,-10.6575 z"
         style="font-size:17.5px"
         id="path4289"
         inkscape:connector-curvature="0" />
      <path
         d="m 151.74472,184.68362 6.825,0 0.1925,-1.3475 -5.5125,0 0,-10.71 -1.505,0 0,12.0575 z"
         style="font-size:17.5px"
         id="path4291"
         inkscape:connector-curvature="0" />
      <path
         d="m 166.40288,183.49362 0,-10.8675 -1.295,0 -3.5875,2.24 0.6475,1.0325 2.7475,-1.6625 0,9.2575 -2.9575,0 0,1.19 6.9475,0 0,-1.19 -2.5025,0 z"
         style="font-size:17.5px"
         id="path4293"
         inkscape:connector-curvature="0" />
      <path
         d="m 188.73671,170.05362 c -1.96,0 -3.78,0.595 -3.5525,2.73 l 0.3675,3.36 c 0.1225,1.19 -0.2975,1.82 -2.66,1.82 l 0,1.19 c 2.3625,0 2.7825,0.6475 2.66,1.855 l -0.3675,3.325 c -0.2275,2.135 1.5925,2.73 3.5525,2.73 l 0,-1.1725 c -1.2775,0 -2.2925,-0.2975 -2.1875,-1.4 l 0.35,-3.5875 c 0.1575,-1.54 -0.4025,-2.1175 -1.6275,-2.345 1.2075,-0.2275 1.785,-0.875 1.6275,-2.345 l -0.35,-3.5875 c -0.105,-1.085 0.91,-1.4 2.1875,-1.4 l 0,-1.1725 z"
         style="font-size:17.5px"
         id="path4295"
         inkscape:connector-curvature="0" />
      <path
         d="m 193.94487,170.05362 0,1.1725 c 1.2775,0 2.2925,0.315 2.1875,1.4 l -0.35,3.5875 c -0.1575,1.47 0.4375,2.1175 1.82,2.3625 -1.435,0.21 -1.9775,0.7875 -1.82,2.3275 l 0.35,3.5875 c 0.105,1.1025 -0.91,1.4 -2.1875,1.4 l 0,1.1725 c 1.96,0 3.78,-0.595 3.5525,-2.73 l -0.3675,-3.325 c -0.1225,-1.2075 0.49,-1.855 2.66,-1.855 l 0,-1.19 c -2.1525,0 -2.7825,-0.63 -2.66,-1.82 l 0.3675,-3.36 c 0.2275,-2.135 -1.5925,-2.73 -3.5525,-2.73 z"
         style="font-size:17.5px"
         id="path4297"
         inkscape:connector-curvature="0" />
      <path
         d="m 215.5437,186.69612 4.3925,0 0,-1.2425 -2.9925,0 0,-13.7725 2.9925,0 0,-1.26 -4.3925,0 0,16.275 z"
         style="font-size:17.5px"
         id="path4299"
         inkscape:connector-curvature="0" />
      <path
         d="m 230.09686,170.42112 -4.3925,0 0,1.26 2.9925,0 0,13.7725 -2.9925,0 0,1.2425 4.3925,0 0,-16.275 z"
         style="font-size:17.5px"
         id="path4301"
         inkscape:connector-curvature="0" />
      <path
         d="m 253.06069,174.49862 c -1.085,0.455 -1.89,0.77 -4.2,0.77 -2.1875,0 -3.675,1.33 -3.675,3.2025 0,1.19 0.49,1.995 1.54,2.5375 -0.665,0.4375 -1.015,1.0325 -1.015,1.61 0,0.9275 0.7175,1.75 2.3275,1.75 l 1.645,0 c 1.1725,0 2.065,0.4375 2.065,1.3125 0,0.9975 -0.8925,1.5225 -2.905,1.5225 -2.065,0 -2.555,-0.5075 -2.555,-1.5925 l -1.33,0 c 0,1.8725 0.945,2.7825 3.885,2.7825 2.8,0 4.3925,-0.9975 4.3925,-2.8 0,-1.435 -1.4,-2.5025 -3.255,-2.5025 l -1.6625,0 c -0.945,0 -1.225,-0.35 -1.225,-0.7875 0,-0.3325 0.21,-0.6825 0.4725,-0.8925 0.4025,0.14 0.77,0.1925 1.3825,0.1925 2.1875,0 3.465,-1.3125 3.465,-3.1325 0,-1.05 -0.525,-1.8375 -1.61,-2.3275 1.0325,0 1.925,-0.0175 2.695,-0.2625 l -0.4375,-1.3825 z m -4.2175,1.855 c 1.365,0 2.0475,0.7175 2.0475,2.1 0,1.365 -0.7,2.17 -2.0125,2.17 -1.505,0 -2.1875,-0.8925 -2.1875,-2.1525 0,-1.2425 0.665,-2.1175 2.1525,-2.1175 z"
         style="font-size:17.5px"
         id="path4303"
         inkscape:connector-curvature="0" />
      <path
         d="m 259.35386,172.45112 c -2.17,0 -3.9025,1.3825 -3.9025,3.9725 0,2.3975 1.4525,3.8675 3.465,3.85 1.33,-0.035 2.2925,-0.7175 2.8175,-1.4875 -0.0525,2.9225 -1.995,4.305 -5.215,5.145 l 0.35,1.12 c 4.4975,-1.26 6.4225,-2.8 6.4225,-7.945 0,-2.87 -1.2425,-4.655 -3.9375,-4.655 z m -0.175,6.6325 c -1.365,0.0175 -2.1875,-0.77 -2.1875,-2.6075 0,-1.855 0.805,-2.835 2.3625,-2.835 1.68,0 2.4675,0.9625 2.415,3.85 -0.6475,0.945 -1.47,1.575 -2.59,1.5925 z"
         style="font-size:17.5px"
         id="path4305"
         inkscape:connector-curvature="0" />
      <path
         d="m 269.58452,175.26862 c -2.275,0 -3.5175,2.0475 -3.5175,4.8125 0,2.905 0.9275,4.795 3.395,4.795 1.015,0 1.925,-0.4025 2.6075,-1.3475 l 0,4.69 1.47,0.175 0,-12.9325 -1.26,0 -0.1225,1.015 c -0.6125,-0.77 -1.47,-1.2075 -2.5725,-1.2075 z m 0.3675,1.19 c 0.875,0 1.6275,0.4375 2.1175,1.19 l 0,4.585 c -0.5075,0.77 -1.2775,1.4175 -2.2925,1.4175 -1.435,0 -2.1175,-1.1725 -2.1175,-3.57 0,-2.4325 0.77,-3.6225 2.2925,-3.6225 z"
         style="font-size:17.5px"
         id="path4307"
         inkscape:connector-curvature="0" />
      <path
         d="m 281.54768,172.43362 c -2.7825,0 -5.1625,2.1525 -5.1625,6.2125 0,4.06 2.2925,6.23 5.2325,6.23 1.715,0 2.87,-0.595 3.605,-1.3125 l -0.7875,-0.98 c -0.6475,0.5075 -1.4525,0.9975 -2.8,0.9975 -2.065,0 -3.6575,-1.3475 -3.6575,-4.935 0,-3.675 1.715,-4.935 3.675,-4.935 0.9275,0 1.7675,0.245 2.5375,0.8925 l 0.8575,-0.9975 c -0.9625,-0.7525 -1.925,-1.1725 -3.5,-1.1725 z"
         style="font-size:17.5px"
         id="path4309"
         inkscape:connector-curvature="0" />
      <path
         d="m 291.27085,184.87612 c 1.6975,0 2.8525,-0.4375 3.9375,-1.05 l 0,-5.74 -4.06,0 0.175,1.2775 2.3625,0 0,3.6575 c -0.6825,0.385 -1.4525,0.5775 -2.2925,0.5775 -2.1,0 -3.2025,-1.4525 -3.2025,-4.9525 0,-3.71 1.68,-4.935 3.43,-4.935 0.9975,0 1.785,0.315 2.52,0.9975 l 0.91,-0.945 c -0.945,-0.875 -1.855,-1.33 -3.43,-1.33 -2.6075,0 -5.0575,2.065 -5.0575,6.2125 0,4.165 1.8375,6.23 4.7075,6.23 z"
         style="font-size:17.5px"
         id="path4311"
         inkscape:connector-curvature="0" />
      <path
         d="m 305.96401,178.66362 c 0,-3.71 -1.5225,-6.23 -4.445,-6.23 -2.94,0 -4.4625,2.6075 -4.4625,6.2475 0,3.7275 1.5225,6.1775 4.2875,6.1775 2.0825,0 2.9575,0.9975 3.6925,2.8525 l 1.61,-0.63 c -0.595,-1.7675 -1.4875,-2.52 -3.185,-2.87 1.855,-1.015 2.5025,-2.9925 2.5025,-5.5475 z m -1.5925,0 c 0,3.22 -0.8225,4.935 -2.8525,4.935 -1.9775,0 -2.87,-1.6975 -2.87,-4.9175 0,-3.2025 0.84,-4.97 2.87,-4.97 2.03,0 2.8525,1.75 2.8525,4.9525 z"
         style="font-size:17.5px"
         id="path4313"
         inkscape:connector-curvature="0" />
      <path
         d="m 320.48518,180.48362 c 0.455,-0.84 1.015,-1.4875 1.7325,-1.4875 1.0675,0 1.6275,1.75 3.3775,1.75 1.435,0 1.5225,-0.8925 2.9225,-0.91 l 7.5775,0 0,-1.26 -7.8575,0 c -1.3125,0 -1.4875,0.8925 -2.59,0.8925 -1.12,0 -1.7325,-1.75 -3.3775,-1.75 -1.54,0 -2.31,1.2075 -2.835,2.205 l 1.05,0.56 z"
         style="font-size:17.5px"
         id="path4315"
         inkscape:connector-curvature="0" />
      <path
         d="m 344.19085,175.14612 -1.365,0 0,3.4825 -3.395,0 0,1.225 3.395,0 0,3.4825 1.365,0 0,-3.4825 3.43,0 0,-1.225 -3.43,0 0,-3.4825 z"
         style="font-size:17.5px"
         id="path4317"
         inkscape:connector-curvature="0" />
      <path
         d="m 363.77636,173.90362 -1.1025,0.945 1.1025,1.19 c 0.2625,0.2975 0.56,0.595 1.085,0.91 l -13.8425,0 0,1.26 14.735,0 0.9275,1.0325 -0.9275,1.0325 -14.735,0 0,1.26 13.8425,0 c -0.525,0.315 -0.8225,0.595 -1.085,0.8925 l -1.1025,1.2075 1.1025,0.945 4.7425,-5.3375 -4.7425,-5.3375 z"
         style="font-size:17.5px"
         id="path4319"
         inkscape:connector-curvature="0" />
    </g>
  </g>
</svg>
