<?xml version="1.0" encoding="UTF-8" standalone="no"?>
<svg
   version="1.1"
   id="svg2"
   viewBox="0 0 302.62676 108.71749"
   height="30.682491mm"
   width="85.407997mm"
   sodipodi:docname="FiraMono Nerd Font.svg"
   inkscape:version="1.1.2 (0a00cf5339, 2022-02-04)"
   xmlns:inkscape="http://www.inkscape.org/namespaces/inkscape"
   xmlns:sodipodi="http://sodipodi.sourceforge.net/DTD/sodipodi-0.dtd"
   xmlns="http://www.w3.org/2000/svg"
   xmlns:svg="http://www.w3.org/2000/svg"
   xmlns:rdf="http://www.w3.org/1999/02/22-rdf-syntax-ns#"
   xmlns:cc="http://creativecommons.org/ns#"
   xmlns:dc="http://purl.org/dc/elements/1.1/">
  <sodipodi:namedview
     id="namedview12"
     pagecolor="#ffffff"
     bordercolor="#666666"
     borderopacity="1.0"
     inkscape:pageshadow="2"
     inkscape:pageopacity="0.0"
     inkscape:pagecheckerboard="0"
     inkscape:document-units="mm"
     showgrid="false"
     inkscape:zoom="0.64052329"
     inkscape:cx="327.07632"
     inkscape:cy="476.95377"
     inkscape:window-width="1458"
     inkscape:window-height="976"
     inkscape:window-x="0"
     inkscape:window-y="32"
     inkscape:window-maximized="0"
     inkscape:current-layer="svg2" />
  <defs
     id="defs4" />
  <metadata
     id="metadata7">
    <rdf:RDF>
      <cc:Work
         rdf:about="">
        <dc:format>image/svg+xml</dc:format>
        <dc:type
           rdf:resource="http://purl.org/dc/dcmitype/StillImage" />
      </cc:Work>
    </rdf:RDF>
  </metadata>
  <g
     id="layer1"
     transform="translate(-65.769403,-79.676132)">
    <g
       aria-label="FiraMono Nerd Font"
       id="text4136"
       style="font-size:27.5px;line-height:125%;font-family:'FiraMono Nerd Font';text-decoration:underline;text-decoration-line:underline;letter-spacing:0px;word-spacing:0px;fill:#ffffff;stroke-width:1px">
      <path
         d="M 69.044643,83.966132 H 77.542143 L 77.817143,81.986132 H 66.652143 V 100.93363 H 69.044643 V 92.518632 H 76.469643 V 90.593632 H 69.044643 Z"
         id="path829" />
      <path
         d="M 87.607101,79.676132 C 86.617101,79.676132 85.957101,80.363632 85.957101,81.298632 85.957101,82.233632 86.617101,82.921132 87.607101,82.921132 88.624601,82.921132 89.312101,82.233632 89.312101,81.298632 89.312101,80.363632 88.624601,79.676132 87.607101,79.676132 Z M 89.449601,86.441132 H 82.822101 V 88.283632 H 87.139601 V 99.091132 H 82.684601 V 100.93363 H 93.519601 V 99.091132 H 89.449601 Z"
         id="path831" />
      <path
         d="M 108.39706,86.138632 C 105.78456,86.138632 104.29956,87.513632 103.19956,89.878632 L 102.75956,86.441132 H 98.744559 V 88.228632 H 101.02706 V 99.146132 H 98.744559 V 100.93363 H 106.27956 V 99.146132 H 103.33706 V 93.041132 C 104.27206,89.851132 105.86706,88.256132 108.09456,88.256132 H 108.23206 V 91.363632 H 110.10206 L 110.43206,86.441132 C 109.79956,86.276132 109.19456,86.138632 108.39706,86.138632 Z"
         id="path833" />
      <path
         d="M 125.50202,97.771132 V 90.813632 C 125.50202,87.953632 123.68702,86.138632 120.08452,86.138632 118.65452,86.138632 117.11452,86.413632 115.32702,87.046132 L 115.95952,88.806132 C 117.44452,88.283632 118.76452,88.063632 119.72702,88.063632 121.87202,88.063632 123.16452,88.833632 123.16452,90.951132 V 92.133632 H 121.01952 C 116.64702,92.133632 114.25452,93.811132 114.25452,96.781132 114.25452,99.476132 116.01452,101.23613 118.92952,101.23613 120.79952,101.23613 122.42202,100.54863 123.46702,99.201132 123.85202,100.52113 124.86952,101.09863 126.10702,101.26363 L 126.68452,99.613632 C 125.85952,99.366132 125.50202,98.926132 125.50202,97.771132 Z M 119.50702,99.503632 C 117.60952,99.503632 116.72952,98.568632 116.72952,96.753632 116.72952,94.883632 117.88452,93.728632 121.07452,93.728632 H 123.16452 V 97.441132 C 122.31202,98.733632 120.93702,99.503632 119.50702,99.503632 Z"
         id="path835" />
      <path
         d="M 143.45948,81.986132 H 140.10448 L 137.16198,94.966132 134.08198,81.986132 H 130.75448 L 129.68198,100.93363 H 131.93698 L 132.43198,91.033632 C 132.56948,88.668632 132.54198,85.231132 132.48698,84.186132 L 135.89698,97.523632 H 138.28948 L 141.47948,84.186132 C 141.47948,85.121132 141.47948,88.421132 141.64448,91.033632 L 142.22198,100.93363 H 144.53198 Z"
         id="path837" />
      <path
         d="M 153.63443,86.138632 C 149.56443,86.138632 147.36443,89.246132 147.36443,93.701132 147.36443,98.266132 149.53693,101.23613 153.60693,101.23613 157.64943,101.23613 159.84943,98.128632 159.84943,93.673632 159.84943,89.108632 157.70443,86.138632 153.63443,86.138632 Z M 153.63443,88.036132 C 156.10943,88.036132 157.34693,89.851132 157.34693,93.673632 157.34693,97.551132 156.10943,99.338632 153.60693,99.338632 151.10443,99.338632 149.86693,97.551132 149.86693,93.701132 149.86693,89.851132 151.13193,88.036132 153.63443,88.036132 Z"
         id="path839" />
      <path
         d="M 164.60689,100.93363 H 166.91689 V 90.401132 C 167.68689,89.246132 169.14439,87.981132 170.84939,87.981132 173.02189,87.981132 173.32439,89.163632 173.32439,92.133632 V 100.93363 H 175.63439 V 90.428632 C 175.63439,87.733632 174.39689,86.138632 171.56439,86.138632 169.85939,86.138632 167.93439,86.991132 166.77939,88.476132 L 166.58689,86.441132 H 164.60689 Z"
         id="path841" />
      <path
         d="M 186.63435,86.138632 C 182.56435,86.138632 180.36435,89.246132 180.36435,93.701132 180.36435,98.266132 182.53685,101.23613 186.60685,101.23613 190.64935,101.23613 192.84935,98.128632 192.84935,93.673632 192.84935,89.108632 190.70435,86.138632 186.63435,86.138632 Z M 186.63435,88.036132 C 189.10935,88.036132 190.34685,89.851132 190.34685,93.673632 190.34685,97.551132 189.10935,99.338632 186.60685,99.338632 184.10435,99.338632 182.86685,97.551132 182.86685,93.701132 182.86685,89.851132 184.13185,88.036132 186.63435,88.036132 Z"
         id="path843" />
      <path
         d="M 222.21926,100.93363 H 225.57426 V 81.986132 H 223.34676 V 91.473632 C 223.34676,94.883632 223.64926,97.936132 223.67676,98.706132 L 216.88426,81.986132 H 213.63926 V 100.93363 H 215.86676 V 91.446132 C 215.86676,88.531132 215.59176,85.121132 215.53676,84.296132 Z"
         id="path845" />
      <path
         d="M 232.44922,94.498632 H 242.18422 C 242.21172,94.196132 242.23922,93.756132 242.23922,93.261132 242.23922,88.861132 239.98422,86.138632 236.32672,86.138632 232.47672,86.138632 230.02922,89.328632 230.02922,93.701132 230.02922,98.211132 232.42172,101.23613 236.65672,101.23613 238.44422,101.23613 240.25922,100.60363 241.60672,99.558632 L 240.53422,98.018632 C 239.24172,98.871132 238.14172,99.311132 236.65672,99.311132 234.42922,99.311132 232.55922,97.853632 232.44922,94.498632 Z M 236.35422,88.036132 C 238.55422,88.036132 239.92922,89.631132 239.98422,92.738632 H 232.44922 C 232.64172,89.548632 234.20922,88.036132 236.35422,88.036132 Z"
         id="path847" />
      <path
         d="M 256.89669,86.138632 C 254.28419,86.138632 252.79919,87.513632 251.69919,89.878632 L 251.25919,86.441132 H 247.24419 V 88.228632 H 249.52669 V 99.146132 H 247.24419 V 100.93363 H 254.77919 V 99.146132 H 251.83669 V 93.041132 C 252.77169,89.851132 254.36669,88.256132 256.59419,88.256132 H 256.73169 V 91.363632 H 258.60169 L 258.93169,86.441132 C 258.29919,86.276132 257.69419,86.138632 256.89669,86.138632 Z"
         id="path849" />
      <path
         d="M 272.29664,80.336132 V 87.871132 C 271.30664,86.743632 270.06914,86.138632 268.39164,86.138632 264.84414,86.138632 262.72664,89.356132 262.72664,93.701132 262.72664,98.211132 264.45914,101.23613 268.25414,101.23613 269.82164,101.23613 271.27914,100.54863 272.35164,99.036132 L 272.57164,100.93363 H 274.60664 V 80.611132 Z M 268.99664,88.008632 C 270.34414,88.008632 271.49914,88.696132 272.29664,89.878632 V 97.083632 C 271.49914,98.293632 270.37164,99.393632 268.72164,99.393632 266.43914,99.393632 265.22914,97.468632 265.22914,93.701132 265.22914,89.878632 266.60414,88.008632 268.99664,88.008632 Z"
         id="path851" />
      <path
         d="M 300.04406,83.966132 H 308.54156 L 308.81656,81.986132 H 297.65156 V 100.93363 H 300.04406 V 92.518632 H 307.46906 V 90.593632 H 300.04406 Z"
         id="path853" />
      <path
         d="M 318.63402,86.138632 C 314.56402,86.138632 312.36402,89.246132 312.36402,93.701132 312.36402,98.266132 314.53652,101.23613 318.60652,101.23613 322.64902,101.23613 324.84902,98.128632 324.84902,93.673632 324.84902,89.108632 322.70402,86.138632 318.63402,86.138632 Z M 318.63402,88.036132 C 321.10902,88.036132 322.34652,89.851132 322.34652,93.673632 322.34652,97.551132 321.10902,99.338632 318.60652,99.338632 316.10402,99.338632 314.86652,97.551132 314.86652,93.701132 314.86652,89.851132 316.13152,88.036132 318.63402,88.036132 Z"
         id="path855" />
      <path
         d="M 329.60647,100.93363 H 331.91647 V 90.401132 C 332.68647,89.246132 334.14397,87.981132 335.84897,87.981132 338.02147,87.981132 338.32397,89.163632 338.32397,92.133632 V 100.93363 H 340.63397 V 90.428632 C 340.63397,87.733632 339.39647,86.138632 336.56397,86.138632 334.85897,86.138632 332.93397,86.991132 331.77897,88.476132 L 331.58647,86.441132 H 329.60647 Z"
         id="path857" />
      <path
         d="M 357.62894,100.19113 356.72144,98.623632 C 355.95144,99.036132 355.01644,99.311132 353.94394,99.311132 351.96394,99.311132 351.16644,98.458632 351.16644,96.863632 V 88.256132 H 355.89644 L 356.19894,86.441132 H 351.16644 V 82.893632 L 348.85644,83.168632 V 86.441132 H 345.52894 V 88.256132 H 348.85644 V 96.891132 C 348.85644,99.421132 350.61644,101.23613 353.72394,101.23613 355.09894,101.23613 356.61144,100.85113 357.62894,100.19113 Z"
         id="path859" />
    </g>
    <g
       aria-label="abcdefghijklmnopqrstuvwxyzABCDEFGHIJKLMNOPQRSTUVWXYZ oO08 iIlL1 {} [] g9qCGQ ~-+=&gt;"
       id="text4140"
       style="font-size:27.5px;line-height:125%;font-family:'FiraMono Nerd Font';letter-spacing:0px;word-spacing:0px;fill:#ffffff;stroke-width:1px">
      <path
         d="M 73.784403,138.92112 V 134.49362 C 73.784403,132.67362 72.629403,131.51862 70.336903,131.51862 69.426903,131.51862 68.446903,131.69362 67.309403,132.09612 L 67.711903,133.21612 C 68.656903,132.88362 69.496903,132.74362 70.109403,132.74362 71.474403,132.74362 72.296903,133.23362 72.296903,134.58112 V 135.33362 H 70.931903 C 68.149403,135.33362 66.626903,136.40112 66.626903,138.29112 66.626903,140.00612 67.746903,141.12612 69.601903,141.12612 70.791903,141.12612 71.824403,140.68862 72.489403,139.83112 72.734403,140.67112 73.381903,141.03862 74.169403,141.14362 L 74.536903,140.09362 C 74.011903,139.93612 73.784403,139.65612 73.784403,138.92112 Z M 69.969403,140.02362 C 68.761903,140.02362 68.201903,139.42862 68.201903,138.27362 68.201903,137.08362 68.936903,136.34862 70.966903,136.34862 H 72.296903 V 138.71112 C 71.754403,139.53362 70.879403,140.02362 69.969403,140.02362 Z"
         style="font-size:17.5px"
         id="path862" />
      <path
         d="M 79.139376,132.91862 V 127.82612 L 77.669376,128.00112 V 140.93362 H 78.964376 L 79.069376,139.97112 C 79.699376,140.77612 80.521876,141.12612 81.571876,141.12612 83.951876,141.12612 85.229376,139.11362 85.229376,136.31362 85.229376,133.42612 84.231876,131.51862 81.781876,131.51862 80.714376,131.51862 79.821876,132.02612 79.139376,132.91862 Z M 81.239376,139.93612 C 80.381876,139.93612 79.629376,139.49862 79.139376,138.74612 V 134.17862 C 79.646876,133.44362 80.434376,132.70862 81.449376,132.70862 82.884376,132.70862 83.636876,133.91612 83.636876,136.31362 83.636876,138.76362 82.761876,139.93612 81.239376,139.93612 Z"
         style="font-size:17.5px"
         id="path864" />
      <path
         d="M 92.35185,139.86612 C 90.75935,139.86612 89.60435,138.83362 89.60435,136.36612 89.60435,133.93362 90.74185,132.76112 92.33435,132.76112 93.15685,132.76112 93.92685,133.04112 94.71435,133.56612 L 95.43185,132.60362 C 94.57435,131.88612 93.54185,131.51862 92.35185,131.51862 89.60435,131.51862 88.01185,133.60112 88.01185,136.36612 88.01185,139.25362 89.58685,141.12612 92.35185,141.12612 93.41935,141.12612 94.66185,140.70612 95.44935,140.02362 L 94.74935,139.06112 C 94.04935,139.53362 93.27935,139.86612 92.35185,139.86612 Z"
         style="font-size:17.5px"
         id="path866" />
      <path
         d="M 104.19932,127.82612 V 132.62112 C 103.56932,131.90362 102.78182,131.51862 101.71432,131.51862 99.456823,131.51862 98.109323,133.56612 98.109323,136.33112 98.109323,139.20112 99.211823,141.12612 101.62682,141.12612 102.62432,141.12612 103.55182,140.68862 104.23432,139.72612 L 104.37432,140.93362 H 105.66932 V 128.00112 Z M 102.09932,132.70862 C 102.95682,132.70862 103.69182,133.14612 104.19932,133.89862 V 138.48362 C 103.69182,139.25362 102.97432,139.95362 101.92432,139.95362 100.47182,139.95362 99.701823,138.72862 99.701823,136.33112 99.701823,133.89862 100.57682,132.70862 102.09932,132.70862 Z"
         style="font-size:17.5px"
         id="path868" />
      <path
         d="M 110.3418,136.83862 H 116.5368 C 116.5543,136.64612 116.5718,136.36612 116.5718,136.05112 116.5718,133.25112 115.1368,131.51862 112.8093,131.51862 110.3593,131.51862 108.8018,133.54862 108.8018,136.33112 108.8018,139.20112 110.3243,141.12612 113.0193,141.12612 114.1568,141.12612 115.3118,140.72362 116.1693,140.05862 L 115.4868,139.07862 C 114.6643,139.62112 113.9643,139.90112 113.0193,139.90112 111.6018,139.90112 110.4118,138.97362 110.3418,136.83862 Z M 112.8268,132.72612 C 114.2268,132.72612 115.1018,133.74112 115.1368,135.71862 H 110.3418 C 110.4643,133.68862 111.4618,132.72612 112.8268,132.72612 Z"
         style="font-size:17.5px"
         id="path870" />
      <path
         d="M 125.11177,127.82612 C 123.20427,127.82612 121.75177,128.89362 121.75177,130.59112 V 132.42862 H 119.56427 V 133.60112 H 121.75177 V 140.93362 H 123.23927 V 133.60112 H 126.19677 L 126.35427,132.42862 H 123.23927 V 130.55612 C 123.23927,129.54112 123.88677,129.03362 125.16427,129.03362 125.86427,129.03362 126.54677,129.15612 127.14177,129.41862 L 127.61427,128.31612 C 126.89677,128.01862 126.10927,127.82612 125.11177,127.82612 Z"
         style="font-size:17.5px"
         id="path872" />
      <path
         d="M 137.67674,130.74862 C 136.59174,131.20362 135.78674,131.51862 133.47674,131.51862 131.28924,131.51862 129.80174,132.84862 129.80174,134.72112 129.80174,135.91112 130.29174,136.71612 131.34174,137.25862 130.67674,137.69612 130.32674,138.29112 130.32674,138.86862 130.32674,139.79612 131.04424,140.61862 132.65424,140.61862 H 134.29924 C 135.47174,140.61862 136.36424,141.05612 136.36424,141.93112 136.36424,142.92862 135.47174,143.45362 133.45924,143.45362 131.39424,143.45362 130.90424,142.94612 130.90424,141.86112 H 129.57424 C 129.57424,143.73362 130.51924,144.64362 133.45924,144.64362 136.25924,144.64362 137.85174,143.64612 137.85174,141.84362 137.85174,140.40862 136.45174,139.34112 134.59674,139.34112 H 132.93424 C 131.98924,139.34112 131.70924,138.99112 131.70924,138.55362 131.70924,138.22112 131.91924,137.87112 132.18174,137.66112 132.58424,137.80112 132.95174,137.85362 133.56424,137.85362 135.75174,137.85362 137.02924,136.54112 137.02924,134.72112 137.02924,133.67112 136.50424,132.88362 135.41924,132.39362 136.45174,132.39362 137.34424,132.37612 138.11424,132.13112 Z M 133.45924,132.60362 C 134.82424,132.60362 135.50674,133.32112 135.50674,134.70362 135.50674,136.06862 134.80674,136.87362 133.49424,136.87362 131.98924,136.87362 131.30674,135.98112 131.30674,134.72112 131.30674,133.47862 131.97174,132.60362 133.45924,132.60362 Z"
         style="font-size:17.5px"
         id="path874" />
      <path
         d="M 142.13922,127.86112 140.66922,128.01862 V 140.93362 H 142.13922 V 134.21362 C 142.62922,133.49612 143.57422,132.69112 144.60672,132.69112 145.70922,132.69112 146.21672,133.16362 146.21672,134.26612 V 140.93362 H 147.68672 V 134.24862 C 147.68672,132.53362 146.89922,131.51862 145.09672,131.51862 143.99422,131.51862 142.87422,132.02612 142.13922,132.98862 Z"
         style="font-size:17.5px"
         id="path876" />
      <path
         d="M 154.66919,127.40612 C 154.03919,127.40612 153.61919,127.84362 153.61919,128.43862 153.61919,129.03362 154.03919,129.47112 154.66919,129.47112 155.31669,129.47112 155.75419,129.03362 155.75419,128.43862 155.75419,127.84362 155.31669,127.40612 154.66919,127.40612 Z M 155.84169,131.71112 H 151.62419 V 132.88362 H 154.37169 V 139.76112 H 151.53669 V 140.93362 H 158.43169 V 139.76112 H 155.84169 Z"
         style="font-size:17.5px"
         id="path878" />
      <path
         d="M 166.34166,127.40612 C 165.71166,127.40612 165.27416,127.84362 165.27416,128.43862 165.27416,129.03362 165.71166,129.47112 166.34166,129.47112 166.98916,129.47112 167.40916,129.03362 167.40916,128.43862 167.40916,127.84362 166.98916,127.40612 166.34166,127.40612 Z M 167.70666,131.71112 H 162.40416 V 132.88362 H 166.23666 V 139.55112 C 166.23666,142.03612 164.31166,143.05112 161.59916,143.50612 L 161.84416,144.64362 C 165.55416,144.01362 167.70666,142.54362 167.70666,139.46362 Z"
         style="font-size:17.5px"
         id="path880" />
      <path
         d="M 173.74414,127.82612 172.27414,128.00112 V 140.93362 H 173.74414 Z M 179.88664,131.71112 H 177.99664 L 173.90164,135.89362 178.43414,140.93362 H 180.37664 L 175.75664,135.87612 Z"
         style="font-size:17.5px"
         id="path882" />
      <path
         d="M 186.27411,128.00112 H 181.96911 V 129.17362 H 184.80411 V 138.58862 C 184.80411,140.18112 185.90661,141.12612 187.53411,141.12612 188.47911,141.12612 189.23161,140.91612 189.72161,140.65362 L 189.33661,139.58612 C 188.82911,139.77862 188.33911,139.90112 187.79661,139.90112 186.90411,139.90112 186.27411,139.56862 186.27411,138.65862 Z"
         style="font-size:17.5px"
         id="path884" />
      <path
         d="M 199.24158,131.51862 C 198.31408,131.51862 197.71908,132.00862 197.21158,132.74362 196.93158,131.79862 196.24908,131.51862 195.54908,131.51862 194.62158,131.51862 194.04408,132.07862 193.55408,132.79612 L 193.44908,131.71112 H 192.31158 V 140.93362 H 193.65908 V 133.77612 C 194.16658,132.98862 194.69158,132.67362 195.26908,132.67362 195.93408,132.67362 195.98658,133.14612 195.98658,134.31862 V 140.93362 H 197.35158 V 133.77612 C 197.85908,132.98862 198.40158,132.67362 198.96158,132.67362 199.62658,132.67362 199.67908,133.14612 199.67908,134.31862 V 140.93362 H 201.02658 V 134.07362 C 201.02658,131.95612 200.13408,131.51862 199.24158,131.51862 Z"
         style="font-size:17.5px"
         id="path886" />
      <path
         d="M 203.66905,140.93362 H 205.13905 V 134.23112 C 205.62905,133.49612 206.55655,132.69112 207.64155,132.69112 209.02405,132.69112 209.21655,133.44362 209.21655,135.33362 V 140.93362 H 210.68655 V 134.24862 C 210.68655,132.53362 209.89905,131.51862 208.09655,131.51862 207.01155,131.51862 205.78655,132.06112 205.05155,133.00612 L 204.92905,131.71112 H 203.66905 Z"
         style="font-size:17.5px"
         id="path888" />
      <path
         d="M 217.68654,131.51862 C 215.09654,131.51862 213.69654,133.49612 213.69654,136.33112 213.69654,139.23612 215.07904,141.12612 217.66904,141.12612 220.24154,141.12612 221.64154,139.14862 221.64154,136.31362 221.64154,133.40862 220.27654,131.51862 217.68654,131.51862 Z M 217.68654,132.72612 C 219.26154,132.72612 220.04904,133.88112 220.04904,136.31362 220.04904,138.78112 219.26154,139.91862 217.66904,139.91862 216.07654,139.91862 215.28904,138.78112 215.28904,136.33112 215.28904,133.88112 216.09404,132.72612 217.68654,132.72612 Z"
         style="font-size:17.5px"
         id="path890" />
      <path
         d="M 228.79901,131.51862 C 227.69651,131.51862 226.71651,132.06112 226.05151,133.00612 L 225.92901,131.71112 H 224.66901 V 144.64362 L 226.13901,144.46862 V 140.07612 C 226.76901,140.77612 227.57401,141.12612 228.58901,141.12612 230.98651,141.12612 232.14151,139.11362 232.14151,136.31362 232.14151,133.42612 231.24901,131.51862 228.79901,131.51862 Z M 228.44901,132.70862 C 229.90151,132.70862 230.54901,133.91612 230.54901,136.31362 230.54901,138.76362 229.77901,139.90112 228.25651,139.90112 227.38151,139.90112 226.62901,139.46362 226.13901,138.74612 V 134.17862 C 226.64651,133.44362 227.43401,132.70862 228.44901,132.70862 Z"
         style="font-size:17.5px"
         id="path892" />
      <path
         d="M 238.21398,131.51862 C 235.93898,131.51862 234.69648,133.56612 234.69648,136.33112 234.69648,139.23612 235.62398,141.12612 238.09148,141.12612 239.10648,141.12612 240.01648,140.72362 240.69898,139.77862 V 144.46862 L 242.16898,144.64362 V 131.71112 H 240.90898 L 240.78648,132.72612 C 240.17398,131.95612 239.31648,131.51862 238.21398,131.51862 Z M 238.58148,132.70862 C 239.45648,132.70862 240.20898,133.14612 240.69898,133.89862 V 138.48362 C 240.19148,139.25362 239.42148,139.90112 238.40648,139.90112 236.97148,139.90112 236.28898,138.72862 236.28898,136.33112 236.28898,133.89862 237.05898,132.70862 238.58148,132.70862 Z"
         style="font-size:17.5px"
         id="path894" />
      <path
         d="M 251.89895,131.51862 C 250.23645,131.51862 249.29145,132.39362 248.59145,133.89862 L 248.31145,131.71112 H 245.75645 V 132.84862 H 247.20895 V 139.79612 H 245.75645 V 140.93362 H 250.55145 V 139.79612 H 248.67895 V 135.91112 C 249.27395,133.88112 250.28895,132.86612 251.70645,132.86612 H 251.79395 V 134.84362 H 252.98395 L 253.19395,131.71112 C 252.79145,131.60612 252.40645,131.51862 251.89895,131.51862 Z"
         style="font-size:17.5px"
         id="path896" />
      <path
         d="M 259.31891,139.91862 C 258.23391,139.91862 257.25391,139.51612 256.53641,138.92112 L 255.71391,139.88362 C 256.50141,140.56612 257.63891,141.12612 259.31891,141.12612 261.27891,141.12612 263.18641,140.35612 263.18641,138.37862 263.18641,136.66362 261.99641,136.03362 260.19391,135.54362 258.33891,135.03612 257.76141,134.75612 257.76141,133.91612 257.76141,133.21612 258.28641,132.70862 259.75641,132.70862 260.94641,132.70862 261.73391,133.07612 262.41641,133.54862 L 263.08141,132.53362 C 262.29391,131.97362 261.20891,131.51862 259.72141,131.51862 257.63891,131.51862 256.22141,132.49862 256.22141,134.03862 256.22141,135.64862 257.46391,136.22612 259.37141,136.69862 261.33141,137.18862 261.59391,137.62612 261.59391,138.44862 261.59391,139.34112 260.73641,139.91862 259.31891,139.91862 Z"
         style="font-size:17.5px"
         id="path898" />
      <path
         d="M 274.0014,140.46112 273.4239,139.46362 C 272.9339,139.72612 272.3389,139.90112 271.6564,139.90112 270.3964,139.90112 269.8889,139.35862 269.8889,138.34362 V 132.86612 H 272.8989 L 273.0914,131.71112 H 269.8889 V 129.45362 L 268.4189,129.62862 V 131.71112 H 266.3014 V 132.86612 H 268.4189 V 138.36112 C 268.4189,139.97112 269.5389,141.12612 271.5164,141.12612 272.3914,141.12612 273.3539,140.88112 274.0014,140.46112 Z"
         style="font-size:17.5px"
         id="path900" />
      <path
         d="M 278.63887,131.71112 H 277.16887 V 138.41362 C 277.16887,140.12862 278.04387,141.12612 279.82887,141.12612 280.91387,141.12612 282.05137,140.61862 282.78637,139.69112 L 282.90887,140.93362 H 284.16887 V 131.71112 H 282.69887 V 138.50112 C 282.19137,139.28862 281.21137,139.97112 280.19637,139.97112 279.12887,139.97112 278.63887,139.44612 278.63887,138.25612 Z"
         style="font-size:17.5px"
         id="path902" />
      <path
         d="M 295.36884,131.71112 H 293.82884 L 291.20384,139.60362 288.54384,131.71112 H 286.96884 L 290.31134,140.93362 H 292.00884 Z"
         style="font-size:17.5px"
         id="path904" />
      <path
         d="M 305.01132,140.93362 306.60382,131.71112 H 305.18632 L 303.99632,140.02362 302.61382,132.88362 H 300.88132 L 299.41132,140.02362 298.22132,131.71112 H 296.73382 L 298.39632,140.93362 H 300.42632 L 301.72132,134.17862 302.92882,140.93362 Z"
         style="font-size:17.5px"
         id="path906" />
      <path
         d="M 309.57879,140.93362 312.11629,136.97862 314.65379,140.93362 H 316.43879 L 313.04379,135.99862 316.03629,131.71112 H 314.33879 L 312.18629,135.14112 310.05129,131.71112 H 308.30129 L 311.29379,136.06862 307.89879,140.93362 Z"
         style="font-size:17.5px"
         id="path908" />
      <path
         d="M 326.83376,131.71112 H 325.31126 L 322.70376,139.81362 320.06126,131.71112 H 318.50376 L 321.70626,140.93362 H 322.19626 C 321.72376,142.35112 321.16376,143.13862 319.27376,143.47112 L 319.48376,144.64362 C 321.93376,144.38112 322.96626,142.87612 323.61376,140.98612 Z"
         style="font-size:17.5px"
         id="path910" />
      <path
         d="M 331.50623,139.67362 336.58123,132.86612 V 131.71112 H 330.10623 V 133.00612 H 334.81373 L 329.70373,139.81362 V 140.93362 H 336.45873 L 336.63373,139.67362 Z"
         style="font-size:17.5px"
         id="path912" />
      <path
         d="M 73.014403,159.72862 73.976903,162.80862 H 75.551903 L 71.631903,150.75112 H 69.706903 L 65.769403,162.80862 H 67.274403 L 68.236903,159.72862 Z M 68.639403,158.46862 70.634403,152.04612 72.611903,158.46862 Z"
         style="font-size:17.5px"
         id="path914" />
      <path
         d="M 85.369376,159.37862 C 85.369376,157.33112 83.934376,156.64862 82.586876,156.42112 83.741876,156.15862 84.844376,155.35362 84.844376,153.79612 84.844376,151.43362 82.691876,150.75112 80.574376,150.75112 H 77.599376 V 162.80862 H 80.854376 C 83.059376,162.80862 85.369376,162.00362 85.369376,159.37862 Z M 83.286876,153.88362 C 83.286876,155.28362 82.481876,155.87862 81.064376,155.87862 H 79.121876 V 151.99362 H 80.924376 C 82.376876,151.99362 83.286876,152.50112 83.286876,153.88362 Z M 83.759376,159.43112 C 83.759376,161.21612 82.289376,161.54862 81.116876,161.54862 H 79.121876 V 157.13862 H 81.169376 C 82.586876,157.13862 83.759376,157.59362 83.759376,159.43112 Z"
         style="font-size:17.5px"
         id="path916" />
      <path
         d="M 92.68435,150.55862 C 89.90185,150.55862 87.52185,152.71112 87.52185,156.77112 87.52185,160.83112 89.81435,163.00112 92.75435,163.00112 94.46935,163.00112 95.62435,162.40612 96.35935,161.68862 L 95.57185,160.70862 C 94.92435,161.21612 94.11935,161.70612 92.77185,161.70612 90.70685,161.70612 89.11435,160.35862 89.11435,156.77112 89.11435,153.09612 90.82935,151.83612 92.78935,151.83612 93.71685,151.83612 94.55685,152.08112 95.32685,152.72862 L 96.18435,151.73112 C 95.22185,150.97862 94.25935,150.55862 92.68435,150.55862 Z"
         style="font-size:17.5px"
         id="path918" />
      <path
         d="M 106.59682,156.71862 C 106.59682,151.71362 103.77932,150.75112 100.94432,150.75112 H 98.371823 V 162.80862 H 101.13682 C 103.63932,162.80862 106.59682,161.77612 106.59682,156.71862 Z M 104.96932,156.71862 C 104.96932,160.70862 103.06182,161.58362 101.32932,161.58362 H 99.894323 V 151.99362 H 101.31182 C 102.97432,151.99362 104.96932,152.51862 104.96932,156.71862 Z"
         style="font-size:17.5px"
         id="path920" />
      <path
         d="M 111.1293,152.01112 H 116.2918 L 116.4668,150.75112 H 109.6243 V 162.80862 H 116.6243 V 161.58362 H 111.1293 V 157.31362 H 115.6093 V 156.07112 H 111.1293 Z"
         style="font-size:17.5px"
         id="path922" />
      <path
         d="M 121.85677,152.01112 H 127.26427 L 127.43927,150.75112 H 120.33427 V 162.80862 H 121.85677 V 157.45362 H 126.58177 V 156.22862 H 121.85677 Z"
         style="font-size:17.5px"
         id="path924" />
      <path
         d="M 133.91424,163.00112 C 135.61174,163.00112 136.76674,162.56362 137.85174,161.95112 V 156.21112 H 133.79174 L 133.96674,157.48862 H 136.32924 V 161.14612 C 135.64674,161.53112 134.87674,161.72362 134.03674,161.72362 131.93674,161.72362 130.83424,160.27112 130.83424,156.77112 130.83424,153.06112 132.51424,151.83612 134.26424,151.83612 135.26174,151.83612 136.04924,152.15112 136.78424,152.83362 L 137.69424,151.88862 C 136.74924,151.01362 135.83924,150.55862 134.26424,150.55862 131.65674,150.55862 129.20674,152.62362 129.20674,156.77112 129.20674,160.93612 131.04424,163.00112 133.91424,163.00112 Z"
         style="font-size:17.5px"
         id="path926" />
      <path
         d="M 146.44422,162.80862 H 147.96672 V 150.75112 H 146.44422 V 155.84362 H 141.89422 V 150.75112 H 140.37172 V 162.80862 H 141.89422 V 157.08612 H 146.44422 Z"
         style="font-size:17.5px"
         id="path928" />
      <path
         d="M 158.11669,150.75112 H 151.22169 V 151.97612 H 153.89919 V 161.60112 H 151.22169 V 162.80862 H 158.11669 V 161.60112 H 155.43919 V 151.97612 H 158.11669 Z"
         style="font-size:17.5px"
         id="path930" />
      <path
         d="M 168.61666,150.75112 H 163.52416 V 151.99362 H 167.09416 V 158.73112 C 167.09416,160.60362 166.14916,161.74112 164.46916,161.74112 163.76916,161.74112 162.89416,161.56612 161.86166,160.91862 L 161.19666,161.91612 C 162.14166,162.63362 163.31416,163.01862 164.48666,163.01862 167.67166,163.01862 168.61666,160.81362 168.61666,158.80112 Z"
         style="font-size:17.5px"
         id="path932" />
      <path
         d="M 173.77914,162.80862 V 150.75112 H 172.25664 V 162.80862 Z M 173.86664,156.36862 178.78414,162.80862 H 180.69164 L 175.65164,156.28112 180.35914,150.75112 H 178.59164 Z"
         style="font-size:17.5px"
         id="path934" />
      <path
         d="M 183.29911,162.80862 H 190.12411 L 190.31661,161.46112 H 184.80411 V 150.75112 H 183.29911 Z"
         style="font-size:17.5px"
         id="path936" />
      <path
         d="M 200.71158,150.75112 H 198.57658 L 196.70408,159.01112 194.74408,150.75112 H 192.62658 L 191.94408,162.80862 H 193.37908 L 193.69408,156.50862 C 193.78158,155.00362 193.76408,152.81612 193.72908,152.15112 L 195.89908,160.63862 H 197.42158 L 199.45158,152.15112 C 199.45158,152.74612 199.45158,154.84612 199.55658,156.50862 L 199.92408,162.80862 H 201.39408 Z"
         style="font-size:17.5px"
         id="path938" />
      <path
         d="M 208.83155,162.80862 H 210.96655 V 150.75112 H 209.54905 V 156.78862 C 209.54905,158.95862 209.74155,160.90112 209.75905,161.39112 L 205.43655,150.75112 H 203.37155 V 162.80862 H 204.78905 V 156.77112 C 204.78905,154.91612 204.61405,152.74612 204.57905,152.22112 Z"
         style="font-size:17.5px"
         id="path940" />
      <path
         d="M 222.09654,156.78862 C 222.09654,153.07862 220.59154,150.55862 217.66904,150.55862 214.74654,150.55862 213.24154,153.16612 213.24154,156.80612 213.24154,160.53362 214.74654,163.00112 217.66904,163.00112 220.59154,163.00112 222.09654,160.44612 222.09654,156.78862 Z M 220.52154,156.78862 C 220.52154,160.00862 219.69904,161.72362 217.66904,161.72362 215.69154,161.72362 214.81654,160.02612 214.81654,156.80612 214.81654,153.60362 215.63904,151.83612 217.66904,151.83612 219.69904,151.83612 220.52154,153.58612 220.52154,156.78862 Z"
         style="font-size:17.5px"
         id="path942" />
      <path
         d="M 232.66651,154.46112 C 232.66651,151.94112 230.89901,150.75112 228.01151,150.75112 H 224.94901 V 162.80862 H 226.45401 V 158.32862 H 228.01151 C 230.72401,158.32862 232.66651,157.27862 232.66651,154.46112 Z M 231.03901,154.47862 C 231.03901,156.54362 229.81401,157.12112 228.15151,157.12112 H 226.45401 V 151.95862 H 228.20401 C 229.83151,151.95862 231.03901,152.62362 231.03901,154.47862 Z"
         style="font-size:17.5px"
         id="path944" />
      <path
         d="M 243.11398,156.78862 C 243.11398,153.07862 241.59148,150.55862 238.66898,150.55862 235.72898,150.55862 234.20648,153.16612 234.20648,156.80612 234.20648,160.53362 235.72898,162.98362 238.49398,162.98362 240.57648,162.98362 241.45148,163.98112 242.18648,165.83612 L 243.79648,165.20612 C 243.20148,163.43862 242.30898,162.68612 240.61148,162.33612 242.46648,161.32112 243.11398,159.34362 243.11398,156.78862 Z M 241.52148,156.78862 C 241.52148,160.00862 240.69898,161.72362 238.66898,161.72362 236.69148,161.72362 235.79898,160.02612 235.79898,156.80612 235.79898,153.60362 236.63898,151.83612 238.66898,151.83612 240.69898,151.83612 241.52148,153.58612 241.52148,156.78862 Z"
         style="font-size:17.5px"
         id="path946" />
      <path
         d="M 253.31645,154.14612 C 253.31645,151.90612 251.75895,150.75112 248.78395,150.75112 H 245.70395 V 162.80862 H 247.20895 V 157.64612 H 248.83645 L 252.14395,162.80862 H 253.96395 L 250.37645,157.47112 C 252.03895,157.05112 253.31645,155.94862 253.31645,154.14612 Z M 251.70645,154.14612 C 251.70645,155.80862 250.70895,156.45612 248.97645,156.45612 H 247.20895 V 151.97612 H 248.95895 C 250.81395,151.97612 251.70645,152.58862 251.70645,154.14612 Z"
         style="font-size:17.5px"
         id="path948" />
      <path
         d="M 263.81641,159.46612 C 263.81641,157.17362 262.17141,156.38612 260.28141,155.84362 257.98891,155.17862 257.25391,154.65362 257.25391,153.62112 257.25391,152.41362 258.33891,151.83612 259.66891,151.83612 260.68391,151.83612 261.69891,152.16862 262.55641,152.92112 L 263.46641,151.94112 C 262.45141,151.06612 261.26141,150.55862 259.61641,150.55862 257.30641,150.55862 255.71391,151.85362 255.71391,153.67362 255.71391,155.58112 257.20141,156.45612 259.59891,157.15612 261.66391,157.75112 262.22391,158.32862 262.22391,159.50112 262.22391,161.02362 260.89391,161.74112 259.42391,161.74112 257.95391,161.74112 256.92141,161.23362 256.08141,160.44612 L 255.17141,161.47862 C 256.18641,162.45862 257.63891,163.00112 259.40641,163.00112 262.20641,163.00112 263.81641,161.54862 263.81641,159.46612 Z"
         style="font-size:17.5px"
         id="path950" />
      <path
         d="M 270.9039,152.06362 H 274.5439 L 274.7014,150.75112 H 265.6189 V 152.06362 H 269.3814 V 162.80862 H 270.9039 Z"
         style="font-size:17.5px"
         id="path952" />
      <path
         d="M 284.65887,150.75112 H 283.11887 V 158.95862 C 283.11887,160.79612 282.22637,161.68862 280.65137,161.68862 279.09387,161.68862 278.20137,160.79612 278.20137,158.95862 V 150.75112 H 276.67887 V 158.90612 C 276.67887,161.33862 278.16637,163.00112 280.65137,163.00112 283.08387,163.00112 284.65887,161.35612 284.65887,158.90612 Z"
         style="font-size:17.5px"
         id="path954" />
      <path
         d="M 291.20384,161.07612 287.98384,150.75112 H 286.35634 L 290.38134,162.80862 H 291.95634 L 295.98134,150.75112 H 294.45884 Z"
         style="font-size:17.5px"
         id="path956" />
      <path
         d="M 306.83132,150.75112 H 305.43132 L 303.99632,161.14612 302.61382,152.15112 H 300.75882 L 299.30632,161.14612 298.02882,150.75112 H 296.50632 L 298.18632,162.80862 H 300.23382 L 301.63382,153.70862 303.01632,162.80862 H 305.01132 Z"
         style="font-size:17.5px"
         id="path958" />
      <path
         d="M 307.77629,150.75112 311.24129,156.38612 307.46129,162.80862 H 309.08879 L 312.13379,157.36612 315.12629,162.80862 H 316.87629 L 313.04379,156.29862 316.45629,150.75112 H 314.82879 L 312.16879,155.38862 309.52629,150.75112 Z"
         style="font-size:17.5px"
         id="path960" />
      <path
         d="M 323.43876,158.15362 327.51626,150.75112 H 325.94126 L 322.70376,156.80612 319.50126,150.75112 H 317.82126 L 321.89876,158.17112 V 162.80862 H 323.43876 Z"
         style="font-size:17.5px"
         id="path962" />
      <path
         d="M 330.84123,161.49612 337.15873,152.01112 V 150.75112 H 329.80873 V 152.06362 H 335.53123 L 329.17873,161.58362 V 162.80862 H 336.96623 L 337.14123,161.49612 Z"
         style="font-size:17.5px"
         id="path964" />
      <path
         d="M 70.686903,175.26862 C 68.096903,175.26862 66.696903,177.24612 66.696903,180.08112 66.696903,182.98612 68.079403,184.87612 70.669403,184.87612 73.241903,184.87612 74.641903,182.89862 74.641903,180.06362 74.641903,177.15862 73.276903,175.26862 70.686903,175.26862 Z M 70.686903,176.47612 C 72.261903,176.47612 73.049403,177.63112 73.049403,180.06362 73.049403,182.53112 72.261903,183.66862 70.669403,183.66862 69.076903,183.66862 68.289403,182.53112 68.289403,180.08112 68.289403,177.63112 69.094403,176.47612 70.686903,176.47612 Z"
         style="font-size:17.5px"
         id="path966" />
      <path
         d="M 85.596876,178.66362 C 85.596876,174.95362 84.091876,172.43362 81.169376,172.43362 78.246876,172.43362 76.741876,175.04112 76.741876,178.68112 76.741876,182.40862 78.246876,184.87612 81.169376,184.87612 84.091876,184.87612 85.596876,182.32112 85.596876,178.66362 Z M 84.021876,178.66362 C 84.021876,181.88362 83.199376,183.59862 81.169376,183.59862 79.191876,183.59862 78.316876,181.90112 78.316876,178.68112 78.316876,175.47862 79.139376,173.71112 81.169376,173.71112 83.199376,173.71112 84.021876,175.46112 84.021876,178.66362 Z"
         style="font-size:17.5px"
         id="path968" />
      <path
         d="M 91.66935,172.43362 C 89.07935,172.43362 87.73185,174.65612 87.73185,178.64612 87.73185,182.65362 89.07935,184.87612 91.66935,184.87612 94.25935,184.87612 95.60685,182.65362 95.60685,178.64612 95.60685,174.65612 94.25935,172.43362 91.66935,172.43362 Z M 91.66935,173.62362 C 93.17435,173.62362 94.06685,175.09362 94.06685,178.64612 94.06685,182.21612 93.17435,183.68612 91.66935,183.68612 90.18185,183.68612 89.27185,182.21612 89.27185,178.64612 89.27185,175.09362 90.18185,173.62362 91.66935,173.62362 Z M 91.66935,177.50862 C 91.02185,177.50862 90.53185,178.01612 90.53185,178.64612 90.53185,179.29362 91.02185,179.80112 91.66935,179.80112 92.33435,179.80112 92.82435,179.29362 92.82435,178.64612 92.82435,178.01612 92.33435,177.50862 91.66935,177.50862 Z"
         style="font-size:17.5px"
         id="path970" />
      <path
         d="M 105.77432,175.49612 C 105.77432,173.36112 103.91932,172.43362 102.16932,172.43362 100.57682,172.43362 98.564323,173.37862 98.564323,175.58362 98.564323,176.93112 99.194323,177.71862 100.48932,178.33112 99.019323,179.01362 98.056823,180.01112 98.056823,181.48112 98.056823,183.38862 99.544323,184.87612 102.13432,184.87612 104.67182,184.87612 106.28182,183.42362 106.28182,181.44612 106.28182,179.97612 105.26682,178.87362 103.69182,178.22612 105.02182,177.49112 105.77432,176.66862 105.77432,175.49612 Z M 99.999323,175.60112 C 99.999323,174.32362 100.80432,173.58862 102.16932,173.58862 103.55182,173.58862 104.33932,174.35862 104.33932,175.56612 104.33932,176.65112 103.77932,177.21112 102.65932,177.85862 101.01432,177.31612 99.999323,176.98362 99.999323,175.60112 Z M 104.72432,181.48112 C 104.72432,182.74112 103.81432,183.68612 102.13432,183.68612 100.47182,183.68612 99.614323,182.84612 99.614323,181.48112 99.614323,179.97612 100.50682,179.20612 101.48682,178.75112 103.39432,179.41612 104.72432,179.85362 104.72432,181.48112 Z"
         style="font-size:17.5px"
         id="path972" />
      <path
         d="M 123.16927,171.15612 C 122.53927,171.15612 122.11927,171.59362 122.11927,172.18862 122.11927,172.78362 122.53927,173.22112 123.16927,173.22112 123.81677,173.22112 124.25427,172.78362 124.25427,172.18862 124.25427,171.59362 123.81677,171.15612 123.16927,171.15612 Z M 124.34177,175.46112 H 120.12427 V 176.63362 H 122.87177 V 183.51112 H 120.03677 V 184.68362 H 126.93177 V 183.51112 H 124.34177 Z"
         style="font-size:17.5px"
         id="path974" />
      <path
         d="M 137.11674,172.62612 H 130.22174 V 173.85112 H 132.89924 V 183.47612 H 130.22174 V 184.68362 H 137.11674 V 183.47612 H 134.43924 V 173.85112 H 137.11674 Z"
         style="font-size:17.5px"
         id="path976" />
      <path
         d="M 144.27422,171.75112 H 139.96922 V 172.92362 H 142.80422 V 182.33862 C 142.80422,183.93112 143.90672,184.87612 145.53422,184.87612 146.47922,184.87612 147.23172,184.66612 147.72172,184.40362 L 147.33672,183.33612 C 146.82922,183.52862 146.33922,183.65112 145.79672,183.65112 144.90422,183.65112 144.27422,183.31862 144.27422,182.40862 Z"
         style="font-size:17.5px"
         id="path978" />
      <path
         d="M 151.79919,184.68362 H 158.62419 L 158.81669,183.33612 H 153.30419 V 172.62612 H 151.79919 Z"
         style="font-size:17.5px"
         id="path980" />
      <path
         d="M 166.46416,183.49362 V 172.62612 H 165.16916 L 161.58166,174.86612 162.22916,175.89862 164.97666,174.23612 V 183.49362 H 162.01916 V 184.68362 H 168.96666 V 183.49362 Z"
         style="font-size:17.5px"
         id="path982" />
      <path
         d="M 188.81161,170.05362 C 186.85161,170.05362 185.03161,170.64862 185.25911,172.78362 L 185.62661,176.14362 C 185.74911,177.33362 185.32911,177.96362 182.96661,177.96362 V 179.15362 C 185.32911,179.15362 185.74911,179.80112 185.62661,181.00862 L 185.25911,184.33362 C 185.03161,186.46862 186.85161,187.06362 188.81161,187.06362 V 185.89112 C 187.53411,185.89112 186.51911,185.59362 186.62411,184.49112 L 186.97411,180.90362 C 187.13161,179.36362 186.57161,178.78612 185.34661,178.55862 186.55411,178.33112 187.13161,177.68362 186.97411,176.21362 L 186.62411,172.62612 C 186.51911,171.54112 187.53411,171.22612 188.81161,171.22612 Z"
         style="font-size:17.5px"
         id="path984" />
      <path
         d="M 194.02658,170.05362 V 171.22612 C 195.30408,171.22612 196.31908,171.54112 196.21408,172.62612 L 195.86408,176.21362 C 195.70658,177.68362 196.30158,178.33112 197.68408,178.57612 196.24908,178.78612 195.70658,179.36362 195.86408,180.90362 L 196.21408,184.49112 C 196.31908,185.59362 195.30408,185.89112 194.02658,185.89112 V 187.06362 C 195.98658,187.06362 197.80658,186.46862 197.57908,184.33362 L 197.21158,181.00862 C 197.08908,179.80112 197.70158,179.15362 199.87158,179.15362 V 177.96362 C 197.71908,177.96362 197.08908,177.33362 197.21158,176.14362 L 197.57908,172.78362 C 197.80658,170.64862 195.98658,170.05362 194.02658,170.05362 Z"
         style="font-size:17.5px"
         id="path986" />
      <path
         d="M 215.63904,186.69612 H 220.03154 V 185.45362 H 217.03904 V 171.68112 H 220.03154 V 170.42112 H 215.63904 Z"
         style="font-size:17.5px"
         id="path988" />
      <path
         d="M 230.19901,170.42112 H 225.80651 V 171.68112 H 228.79901 V 185.45362 H 225.80651 V 186.69612 H 230.19901 Z"
         style="font-size:17.5px"
         id="path990" />
      <path
         d="M 253.17645,174.49862 C 252.09145,174.95362 251.28645,175.26862 248.97645,175.26862 246.78895,175.26862 245.30145,176.59862 245.30145,178.47112 245.30145,179.66112 245.79145,180.46612 246.84145,181.00862 246.17645,181.44612 245.82645,182.04112 245.82645,182.61862 245.82645,183.54612 246.54395,184.36862 248.15395,184.36862 H 249.79895 C 250.97145,184.36862 251.86395,184.80612 251.86395,185.68112 251.86395,186.67862 250.97145,187.20362 248.95895,187.20362 246.89395,187.20362 246.40395,186.69612 246.40395,185.61112 H 245.07395 C 245.07395,187.48362 246.01895,188.39362 248.95895,188.39362 251.75895,188.39362 253.35145,187.39612 253.35145,185.59362 253.35145,184.15862 251.95145,183.09112 250.09645,183.09112 H 248.43395 C 247.48895,183.09112 247.20895,182.74112 247.20895,182.30362 247.20895,181.97112 247.41895,181.62112 247.68145,181.41112 248.08395,181.55112 248.45145,181.60362 249.06395,181.60362 251.25145,181.60362 252.52895,180.29112 252.52895,178.47112 252.52895,177.42112 252.00395,176.63362 250.91895,176.14362 251.95145,176.14362 252.84395,176.12612 253.61395,175.88112 Z M 248.95895,176.35362 C 250.32395,176.35362 251.00645,177.07112 251.00645,178.45362 251.00645,179.81862 250.30645,180.62362 248.99395,180.62362 247.48895,180.62362 246.80645,179.73112 246.80645,178.47112 246.80645,177.22862 247.47145,176.35362 248.95895,176.35362 Z"
         style="font-size:17.5px"
         id="path992" />
      <path
         d="M 259.47641,172.45112 C 257.30641,172.45112 255.57391,173.83362 255.57391,176.42362 255.57391,178.82112 257.02641,180.29112 259.03891,180.27362 260.36891,180.23862 261.31391,179.55612 261.85641,178.78612 261.82141,181.70862 259.86141,183.07362 256.64141,183.93112 L 256.99141,185.05112 C 261.48891,183.79112 263.41391,182.25112 263.41391,177.10612 263.41391,174.23612 262.17141,172.45112 259.47641,172.45112 Z M 259.30141,179.08362 C 257.93641,179.10112 257.11391,178.31362 257.11391,176.47612 257.11391,174.62112 257.91891,173.64112 259.47641,173.64112 261.15641,173.64112 261.94391,174.60362 261.89141,177.47362 261.24391,178.43612 260.43891,179.06612 259.30141,179.08362 Z"
         style="font-size:17.5px"
         id="path994" />
      <path
         d="M 269.7139,175.26862 C 267.4389,175.26862 266.1964,177.31612 266.1964,180.08112 266.1964,182.98612 267.1239,184.87612 269.5914,184.87612 270.6064,184.87612 271.5164,184.47362 272.1989,183.52862 V 188.21862 L 273.6689,188.39362 V 175.46112 H 272.4089 L 272.2864,176.47612 C 271.6739,175.70612 270.8164,175.26862 269.7139,175.26862 Z M 270.0814,176.45862 C 270.9564,176.45862 271.7089,176.89612 272.1989,177.64862 V 182.23362 C 271.6914,183.00362 270.9214,183.65112 269.9064,183.65112 268.4714,183.65112 267.7889,182.47862 267.7889,180.08112 267.7889,177.64862 268.5589,176.45862 270.0814,176.45862 Z"
         style="font-size:17.5px"
         id="path996" />
      <path
         d="M 281.68387,172.43362 C 278.90137,172.43362 276.52137,174.58612 276.52137,178.64612 276.52137,182.70612 278.81387,184.87612 281.75387,184.87612 283.46887,184.87612 284.62387,184.28112 285.35887,183.56362 L 284.57137,182.58362 C 283.92387,183.09112 283.11887,183.58112 281.77137,183.58112 279.70637,183.58112 278.11387,182.23362 278.11387,178.64612 278.11387,174.97112 279.82887,173.71112 281.78887,173.71112 282.71637,173.71112 283.55637,173.95612 284.32637,174.60362 L 285.18387,173.60612 C 284.22137,172.85362 283.25887,172.43362 281.68387,172.43362 Z"
         style="font-size:17.5px"
         id="path998" />
      <path
         d="M 291.41384,184.87612 C 293.11134,184.87612 294.26634,184.43862 295.35134,183.82612 V 178.08612 H 291.29134 L 291.46634,179.36362 H 293.82884 V 183.02112 C 293.14634,183.40612 292.37634,183.59862 291.53634,183.59862 289.43634,183.59862 288.33384,182.14612 288.33384,178.64612 288.33384,174.93612 290.01384,173.71112 291.76384,173.71112 292.76134,173.71112 293.54884,174.02612 294.28384,174.70862 L 295.19384,173.76362 C 294.24884,172.88862 293.33884,172.43362 291.76384,172.43362 289.15634,172.43362 286.70634,174.49862 286.70634,178.64612 286.70634,182.81112 288.54384,184.87612 291.41384,184.87612 Z"
         style="font-size:17.5px"
         id="path1000" />
      <path
         d="M 306.11382,178.66362 C 306.11382,174.95362 304.59132,172.43362 301.66882,172.43362 298.72882,172.43362 297.20632,175.04112 297.20632,178.68112 297.20632,182.40862 298.72882,184.85862 301.49382,184.85862 303.57632,184.85862 304.45132,185.85612 305.18632,187.71112 L 306.79632,187.08112 C 306.20132,185.31362 305.30882,184.56112 303.61132,184.21112 305.46632,183.19612 306.11382,181.21862 306.11382,178.66362 Z M 304.52132,178.66362 C 304.52132,181.88362 303.69882,183.59862 301.66882,183.59862 299.69132,183.59862 298.79882,181.90112 298.79882,178.68112 298.79882,175.47862 299.63882,173.71112 301.66882,173.71112 303.69882,173.71112 304.52132,175.46112 304.52132,178.66362 Z"
         style="font-size:17.5px"
         id="path1002" />
      <path
         d="M 321.00626,177.66612 C 319.44876,177.66612 318.69626,178.89112 318.17126,179.90612 L 319.22126,180.43112 C 319.67626,179.59112 320.20126,178.94362 320.95376,178.94362 322.07376,178.94362 322.68626,180.69362 324.33126,180.69362 325.87126,180.69362 326.64126,179.48612 327.16626,178.48862 L 326.11626,177.92862 C 325.66126,178.76862 325.10126,179.41612 324.38376,179.41612 323.31626,179.41612 322.75626,177.66612 321.00626,177.66612 Z"
         style="font-size:17.5px"
         id="path1004" />
      <path
         d="M 330.10623,179.83612 H 336.23123 V 178.57612 H 330.10623 Z"
         style="font-size:17.5px"
         id="path1006" />
      <path
         d="M 344.3337,176.02112 H 342.9687 V 178.62862 H 340.4487 V 179.85362 H 342.9687 V 182.46112 H 344.3337 V 179.85362 H 346.8887 V 178.62862 H 344.3337 Z"
         style="font-size:17.5px"
         id="path1008" />
      <path
         d="M 357.56367,176.94862 H 350.77367 V 178.20862 H 357.56367 Z M 357.56367,180.27362 H 350.77367 V 181.53362 H 357.56367 Z"
         style="font-size:17.5px"
         id="path1010" />
      <path
         d="M 361.67617,174.28862 360.95867,175.40862 367.13617,179.20612 360.95867,183.02112 361.74617,184.10612 368.39617,179.95862 V 178.45362 Z"
         style="font-size:17.5px"
         id="path1012" />
    </g>
  </g>
</svg>
