<?xml version="1.0" encoding="UTF-8" standalone="no"?>
<svg
   version="1.1"
   id="svg2"
   viewBox="0 0 309.74033 109.35768"
   height="30.863169mm"
   width="87.415604mm"
   sodipodi:docname="FiraCode Nerd Font.svg"
   inkscape:version="1.1.2 (0a00cf5339, 2022-02-04)"
   xmlns:inkscape="http://www.inkscape.org/namespaces/inkscape"
   xmlns:sodipodi="http://sodipodi.sourceforge.net/DTD/sodipodi-0.dtd"
   xmlns="http://www.w3.org/2000/svg"
   xmlns:svg="http://www.w3.org/2000/svg"
   xmlns:rdf="http://www.w3.org/1999/02/22-rdf-syntax-ns#"
   xmlns:cc="http://creativecommons.org/ns#"
   xmlns:dc="http://purl.org/dc/elements/1.1/">
  <sodipodi:namedview
     id="namedview12"
     pagecolor="#ffffff"
     bordercolor="#666666"
     borderopacity="1.0"
     inkscape:pageshadow="2"
     inkscape:pageopacity="0.0"
     inkscape:pagecheckerboard="0"
     inkscape:document-units="mm"
     showgrid="false"
     inkscape:zoom="0.64052329"
     inkscape:cx="327.07632"
     inkscape:cy="476.95377"
     inkscape:window-width="1458"
     inkscape:window-height="976"
     inkscape:window-x="0"
     inkscape:window-y="32"
     inkscape:window-maximized="0"
     inkscape:current-layer="svg2" />
  <defs
     id="defs4" />
  <metadata
     id="metadata7">
    <rdf:RDF>
      <cc:Work
         rdf:about="">
        <dc:format>image/svg+xml</dc:format>
        <dc:type
           rdf:resource="http://purl.org/dc/dcmitype/StillImage" />
      </cc:Work>
    </rdf:RDF>
  </metadata>
  <g
     id="layer1"
     transform="translate(-65.787352,-79.131068)">
    <g
       aria-label="FiraCode Nerd Font"
       id="text4136"
       style="font-size:27.5px;line-height:125%;font-family:'FiraCode Nerd Font';text-decoration:underline;text-decoration-line:underline;letter-spacing:0px;word-spacing:0px;fill:#ffffff;stroke-width:1px">
      <path
         d="M 69.189195,83.516965 V 90.314401 H 76.804579 V 92.28876 H 69.189195 V 100.93363 H 66.763554 V 81.514401 H 78.200733 L 77.904579,83.516965 Z"
         id="path829" />
      <path
         d="M 88.241718,79.131068 Q 89.031462,79.131068 89.496847,79.610555 89.976334,80.090042 89.976334,80.781068 89.976334,81.500299 89.496847,81.993888 89.031462,82.473375 88.241718,82.473375 87.494283,82.473375 87.014795,81.993888 86.535308,81.500299 86.535308,80.781068 86.535308,80.090042 87.014795,79.610555 87.494283,79.131068 88.241718,79.131068 Z M 90.131462,86.083632 V 99.057991 H 94.319924 V 100.93363 H 83.178898 V 99.057991 H 87.762231 V 87.959273 H 83.319924 V 86.083632 Z"
         id="path831" />
      <path
         d="M 99.678858,100.93363 V 99.114401 H 101.99168 V 87.902863 H 99.678858 V 86.083632 H 103.79681 L 104.23399,89.59517 Q 105.09424,87.761837 106.32117,86.760555 107.54809,85.759273 109.56476,85.759273 110.18527,85.759273 110.66476,85.857991 111.15834,85.942606 111.66604,86.083632 L 111.32758,91.104145 H 109.38142 V 87.94517 Q 109.32501,87.94517 109.2545,87.94517 105.84168,87.94517 104.36091,92.824658 V 99.114401 H 107.37886 V 100.93363 Z"
         id="path833" />
      <path
         d="M 127.0942,97.690042 Q 127.0942,98.592606 127.39036,99.001581 127.68651,99.410555 128.30702,99.593888 L 127.72882,101.25799 Q 126.76984,101.13107 126.05061,100.65158 125.33138,100.15799 125.00702,99.170811 124.20318,100.2003 122.99036,100.7362 121.79164,101.25799 120.35318,101.25799 118.12497,101.25799 116.84164,100.00286 115.55831,98.747734 115.55831,96.674658 115.55831,94.37594 117.34933,93.149017 119.14036,91.922093 122.52497,91.922093 H 124.71087 V 90.681068 Q 124.71087,89.073375 123.766,88.410555 122.83523,87.733632 121.17113,87.733632 120.43779,87.733632 119.45061,87.916965 118.46343,88.086196 117.30702,88.49517 L 116.68651,86.704145 Q 118.04036,86.196452 119.23908,85.984914 120.4519,85.773375 121.53779,85.773375 124.3019,85.773375 125.69805,87.070811 127.0942,88.368247 127.0942,90.568247 Z M 120.95959,99.452863 Q 122.05959,99.452863 123.04677,98.902863 124.04805,98.33876 124.71087,97.351581 V 93.529786 H 122.56728 Q 120.11343,93.529786 119.09805,94.37594 118.09677,95.222093 118.09677,96.646452 118.09677,99.452863 120.95959,99.452863 Z"
         id="path835" />
      <path
         d="M 140.64673,81.204145 Q 142.55057,81.204145 143.83391,81.683632 145.11724,82.163119 146.27365,83.093888 L 144.9057,84.687478 Q 143.98903,83.911837 142.95955,83.587478 141.94416,83.249017 140.83006,83.249017 139.23647,83.249017 137.88262,84.010555 136.52878,84.757991 135.69673,86.506709 134.87878,88.241324 134.87878,91.216965 134.87878,94.107991 135.65442,95.856709 136.44416,97.605427 137.78391,98.381068 139.12365,99.156709 140.77365,99.156709 142.39544,99.156709 143.45314,98.663119 144.52493,98.169529 145.28647,97.534914 L 146.5557,99.142606 Q 145.66724,100.00286 144.24288,100.63748 142.81852,101.25799 140.74544,101.25799 138.37621,101.25799 136.47237,100.11568 134.56852,98.959273 133.45442,96.716965 132.34032,94.474658 132.34032,91.216965 132.34032,87.94517 133.46852,85.716965 134.61083,83.474658 136.50057,82.346452 138.39032,81.204145 140.64673,81.204145 Z"
         id="path837" />
      <path
         d="M 155.96207,85.773375 Q 159.10694,85.773375 160.71463,87.874658 162.32232,89.97594 162.32232,93.501581 162.32232,95.772093 161.58899,97.520811 160.85566,99.269529 159.4313,100.27081 158.00694,101.25799 155.93386,101.25799 152.78899,101.25799 151.1672,99.142606 149.5454,97.027222 149.5454,93.529786 149.5454,91.24517 150.27873,89.496452 151.01207,87.733632 152.43643,86.760555 153.87489,85.773375 155.96207,85.773375 Z M 155.96207,87.705427 Q 154.04412,87.705427 153.05694,89.129786 152.08386,90.554145 152.08386,93.529786 152.08386,96.477222 153.04284,97.901581 154.01591,99.311837 155.93386,99.311837 157.85181,99.311837 158.81079,97.887478 159.78386,96.463119 159.78386,93.501581 159.78386,90.540042 158.82489,89.129786 157.86591,87.705427 155.96207,87.705427 Z"
         id="path839" />
      <path
         d="M 176.1146,79.807991 178.48383,80.104145 V 100.93363 H 176.41075 L 176.18511,98.973375 Q 175.35306,100.15799 174.26716,100.70799 173.19537,101.25799 171.96844,101.25799 170.03639,101.25799 168.78126,100.28491 167.52614,99.311837 166.91973,97.577222 166.31332,95.828504 166.31332,93.529786 166.31332,91.301581 167.00434,89.552863 167.69537,87.790042 168.9928,86.78876 170.30434,85.773375 172.13767,85.773375 174.60562,85.773375 176.1146,87.522093 Z M 172.75819,87.677222 Q 170.89665,87.677222 169.89537,89.129786 168.89408,90.58235 168.89408,93.529786 168.89408,99.340042 172.46203,99.340042 173.71716,99.340042 174.61973,98.634914 175.52229,97.915683 176.1146,96.999017 V 89.581068 Q 175.50819,88.678504 174.64793,88.184914 173.78767,87.677222 172.75819,87.677222 Z"
         id="path841" />
      <path
         d="M 186.01456,94.347734 Q 186.11327,96.928504 187.3684,98.113119 188.63763,99.283632 190.35814,99.283632 191.50045,99.283632 192.41712,98.94517 193.33379,98.606709 194.32097,97.943888 L 195.43507,99.509273 Q 194.40558,100.32722 193.06584,100.79261 191.72609,101.25799 190.32994,101.25799 188.15814,101.25799 186.63507,100.28491 185.12609,99.311837 184.32225,97.577222 183.5325,95.828504 183.5325,93.529786 183.5325,91.273375 184.32225,89.524658 185.12609,87.77594 186.57866,86.774658 188.04532,85.773375 190.01968,85.773375 192.82609,85.773375 194.43379,87.719529 196.05558,89.665683 196.05558,93.050299 196.05558,93.431068 196.02738,93.769529 196.01327,94.107991 195.99917,94.347734 Z M 190.04789,87.719529 Q 188.39789,87.719529 187.28379,88.890042 186.16968,90.060555 186.02866,92.514401 H 193.77097 Q 193.72866,90.131068 192.72738,88.93235 191.72609,87.719529 190.04789,87.719529 Z"
         id="path843" />
      <path
         d="M 226.3055,100.93363 219.46575,83.855427 Q 219.47986,84.278504 219.56447,85.463119 219.64909,86.633632 219.7196,88.170811 219.79011,89.693888 219.79011,91.202863 V 100.93363 H 217.5196 V 81.514401 H 220.8337 L 227.78627,98.663119 Q 227.77216,98.254145 227.68755,97.168247 227.60293,96.068247 227.53242,94.531068 227.46191,92.979786 227.46191,91.231068 V 81.514401 H 229.73242 V 100.93363 Z"
         id="path845" />
      <path
         d="M 236.78366,94.347734 Q 236.88238,96.928504 238.13751,98.113119 239.40674,99.283632 241.12725,99.283632 242.26956,99.283632 243.18622,98.94517 244.10289,98.606709 245.09007,97.943888 L 246.20417,99.509273 Q 245.17468,100.32722 243.83494,100.79261 242.4952,101.25799 241.09904,101.25799 238.92725,101.25799 237.40417,100.28491 235.8952,99.311837 235.09135,97.577222 234.30161,95.828504 234.30161,93.529786 234.30161,91.273375 235.09135,89.524658 235.8952,87.77594 237.34776,86.774658 238.81443,85.773375 240.78879,85.773375 243.5952,85.773375 245.20289,87.719529 246.82468,89.665683 246.82468,93.050299 246.82468,93.431068 246.79648,93.769529 246.78238,94.107991 246.76827,94.347734 Z M 240.81699,87.719529 Q 239.16699,87.719529 238.05289,88.890042 236.93879,90.060555 236.79776,92.514401 H 244.54007 Q 244.49776,90.131068 243.49648,88.93235 242.4952,87.719529 240.81699,87.719529 Z"
         id="path847" />
      <path
         d="M 251.98618,100.93363 V 99.114401 H 254.299 V 87.902863 H 251.98618 V 86.083632 H 256.10413 L 256.54131,89.59517 Q 257.40157,87.761837 258.62849,86.760555 259.85541,85.759273 261.87208,85.759273 262.49259,85.759273 262.97208,85.857991 263.46567,85.942606 263.97336,86.083632 L 263.6349,91.104145 H 261.68875 V 87.94517 Q 261.63233,87.94517 261.56182,87.94517 258.149,87.94517 256.66823,92.824658 V 99.114401 H 259.68618 V 100.93363 Z"
         id="path849" />
      <path
         d="M 277.65282,79.807991 280.02205,80.104145 V 100.93363 H 277.94897 L 277.72333,98.973375 Q 276.89128,100.15799 275.80538,100.70799 274.73359,101.25799 273.50667,101.25799 271.57462,101.25799 270.31949,100.28491 269.06436,99.311837 268.45795,97.577222 267.85154,95.828504 267.85154,93.529786 267.85154,91.301581 268.54256,89.552863 269.23359,87.790042 270.53103,86.78876 271.84256,85.773375 273.6759,85.773375 276.14385,85.773375 277.65282,87.522093 Z M 274.29641,87.677222 Q 272.43487,87.677222 271.43359,89.129786 270.43231,90.58235 270.43231,93.529786 270.43231,99.340042 274.00026,99.340042 275.25538,99.340042 276.15795,98.634914 277.06051,97.915683 277.65282,96.999017 V 89.581068 Q 277.04641,88.678504 276.18615,88.184914 275.3259,87.677222 274.29641,87.677222 Z"
         id="path851" />
      <path
         d="M 306.11171,83.516965 V 90.314401 H 313.7271 V 92.28876 H 306.11171 V 100.93363 H 303.68607 V 81.514401 H 315.12325 L 314.8271,83.516965 Z"
         id="path853" />
      <path
         d="M 325.19244,85.773375 Q 328.33731,85.773375 329.945,87.874658 331.55269,89.97594 331.55269,93.501581 331.55269,95.772093 330.81936,97.520811 330.08603,99.269529 328.66167,100.27081 327.23731,101.25799 325.16423,101.25799 322.01936,101.25799 320.39757,99.142606 318.77577,97.027222 318.77577,93.529786 318.77577,91.24517 319.5091,89.496452 320.24244,87.733632 321.6668,86.760555 323.10526,85.773375 325.19244,85.773375 Z M 325.19244,87.705427 Q 323.27449,87.705427 322.28731,89.129786 321.31423,90.554145 321.31423,93.529786 321.31423,96.477222 322.27321,97.901581 323.24628,99.311837 325.16423,99.311837 327.08218,99.311837 328.04116,97.887478 329.01423,96.463119 329.01423,93.501581 329.01423,90.540042 328.05526,89.129786 327.09628,87.705427 325.19244,87.705427 Z"
         id="path855" />
      <path
         d="M 336.46034,100.93363 V 86.083632 H 338.47701 L 338.66034,88.142606 Q 339.56291,87.000299 340.91675,86.393888 342.2706,85.773375 343.56804,85.773375 345.75393,85.773375 346.74111,86.929786 347.7424,88.086196 347.7424,90.14517 V 100.93363 H 345.37316 V 91.893888 Q 345.37316,90.370811 345.20393,89.440042 345.0347,88.509273 344.4847,88.072093 343.94881,87.634914 342.8347,87.634914 341.96034,87.634914 341.1847,88.015683 340.42316,88.396452 339.81675,88.974658 339.22445,89.53876 338.82957,90.116965 V 100.93363 Z"
         id="path857" />
      <path
         d="M 365.17312,100.1862 Q 364.41158,100.69389 363.32569,100.97594 362.23979,101.25799 361.1962,101.25799 358.79876,101.25799 357.50133,100.00286 356.20389,98.747734 356.20389,96.773375 V 87.916965 H 352.79107 V 86.083632 H 356.20389 V 82.713119 L 358.57312,82.431068 V 86.083632 H 363.70646 L 363.4244,87.916965 H 358.57312 V 96.74517 Q 358.57312,97.986196 359.22184,98.634914 359.88466,99.283632 361.40774,99.283632 362.23979,99.283632 362.94492,99.086196 363.65005,98.88876 364.25646,98.578504 Z"
         id="path859" />
    </g>
    <g
       aria-label="abcdefghijklmnopqrstuvwxyzABCDEFGHIJKLMNOPQRSTUVWXYZ oO08 iIlL1 {} [] g9qCGQ ~-+=&gt;"
       id="text4140"
       style="font-size:27.5px;line-height:125%;font-family:'FiraCode Nerd Font';letter-spacing:0px;word-spacing:0px;fill:#ffffff;stroke-width:1px">
      <path
         d="M 73.989916,138.86952 Q 73.989916,139.44388 74.178377,139.70414 74.366839,139.96439 74.761711,140.08106 L 74.393762,141.14003 Q 73.783506,141.05927 73.325813,140.75414 72.868121,140.44003 72.661711,139.81183 72.150172,140.46696 71.378377,140.80798 70.615557,141.14003 69.700172,141.14003 68.282224,141.14003 67.465557,140.34132 66.64889,139.5426 66.64889,138.22337 66.64889,136.76055 67.788634,135.97978 68.928377,135.19901 71.082224,135.19901 H 72.473249 V 134.40927 Q 72.473249,133.38619 71.871967,132.96439 71.279659,132.53362 70.220685,132.53362 69.754018,132.53362 69.125813,132.65029 68.497608,132.75798 67.761711,133.01824 L 67.366839,131.8785 Q 68.228377,131.55542 68.991198,131.4208 69.762993,131.28619 70.454018,131.28619 72.212993,131.28619 73.101454,132.11183 73.989916,132.93747 73.989916,134.33747 Z M 70.08607,139.99132 Q 70.78607,139.99132 71.414275,139.64132 72.051454,139.28234 72.473249,138.65414 V 136.22209 H 71.109147 Q 69.547608,136.22209 68.901454,136.76055 68.264275,137.29901 68.264275,138.20542 68.264275,139.99132 70.08607,139.99132 Z"
         style="font-size:17.5px"
         id="path862" />
      <path
         d="M 79.500147,132.71311 Q 80.011685,132.03106 80.693736,131.66311 81.384762,131.28619 82.192454,131.28619 83.457839,131.28619 84.238608,131.89644 85.019377,132.5067 85.378352,133.61952 85.737326,134.72337 85.737326,136.20414 85.737326,137.63106 85.306557,138.75286 84.884762,139.86568 84.050147,140.50286 83.215531,141.14003 81.995018,141.14003 80.352711,141.14003 79.419377,139.95542 L 79.311685,140.93362 H 77.992454 V 127.6785 L 79.500147,127.49003 Z M 81.636044,139.91952 Q 82.820659,139.91952 83.457839,139.00414 84.095018,138.08875 84.095018,136.19516 84.095018,132.49773 81.869377,132.49773 81.079634,132.49773 80.478352,132.97337 79.87707,133.44003 79.500147,134.01439 V 138.69901 Q 79.868095,139.26439 80.424506,139.59644 80.98989,139.91952 81.636044,139.91952 Z"
         style="font-size:17.5px"
         id="path864" />
      <path
         d="M 93.033454,139.83875 Q 93.742429,139.83875 94.352685,139.61439 94.971916,139.38106 95.492429,139.01311 L 96.228326,140.00029 Q 95.609095,140.52978 94.738582,140.83491 93.86807,141.14003 93.033454,141.14003 91.62448,141.14003 90.628326,140.53875 89.641147,139.9285 89.120634,138.83362 88.600121,137.72978 88.600121,136.24901 88.600121,134.83106 89.120634,133.70927 89.641147,132.58747 90.6373,131.94132 91.633454,131.28619 93.051403,131.28619 94.855249,131.28619 96.210377,132.38106 L 95.47448,133.38619 Q 94.244993,132.5426 93.033454,132.5426 91.812941,132.5426 91.023198,133.46696 90.233454,134.38234 90.233454,136.24901 90.233454,138.1426 91.023198,138.99516 91.812941,139.83875 93.033454,139.83875 Z"
         style="font-size:17.5px"
         id="path866" />
      <path
         d="M 105.18471,127.49003 106.6924,127.6785 V 140.93362 H 105.37317 L 105.22958,139.68619 Q 104.7001,140.44003 104.00907,140.79003 103.32702,141.14003 102.54625,141.14003 101.31676,141.14003 100.51805,140.5208 99.719328,139.90157 99.333431,138.79773 98.947533,137.68491 98.947533,136.22209 98.947533,134.80414 99.387277,133.69132 99.82702,132.56952 100.65266,131.93234 101.48728,131.28619 102.65394,131.28619 104.22446,131.28619 105.18471,132.39901 Z M 103.04882,132.49773 Q 101.8642,132.49773 101.22702,133.42209 100.58984,134.34644 100.58984,136.22209 100.58984,139.91952 102.86035,139.91952 103.65907,139.91952 104.23343,139.4708 104.80779,139.01311 105.18471,138.42978 V 133.70927 Q 104.79882,133.13491 104.25138,132.8208 103.70394,132.49773 103.04882,132.49773 Z"
         style="font-size:17.5px"
         id="path868" />
      <path
         d="M 111.48468,136.7426 Q 111.54751,138.38491 112.34622,139.13875 113.15392,139.88362 114.24879,139.88362 114.97571,139.88362 115.55904,139.66824 116.14238,139.45286 116.77058,139.03106 L 117.47956,140.02721 Q 116.82443,140.54773 115.97186,140.84388 115.1193,141.14003 114.23084,141.14003 112.84879,141.14003 111.87956,140.5208 110.9193,139.90157 110.40776,138.79773 109.9052,137.68491 109.9052,136.22209 109.9052,134.78619 110.40776,133.67337 110.9193,132.56055 111.84366,131.92337 112.77699,131.28619 114.0334,131.28619 115.8193,131.28619 116.84238,132.52465 117.87443,133.76311 117.87443,135.91696 117.87443,136.15927 117.85648,136.37465 117.84751,136.59003 117.83853,136.7426 Z M 114.05135,132.52465 Q 113.00135,132.52465 112.29238,133.26952 111.5834,134.01439 111.49366,135.57593 H 116.42058 Q 116.39366,134.05927 115.75648,133.29644 115.1193,132.52465 114.05135,132.52465 Z"
         style="font-size:17.5px"
         id="path870" />
      <path
         d="M 126.65132,127.49003 Q 127.41414,127.49003 128.03338,127.62465 128.65261,127.75927 129.20902,128.00157 L 128.7244,129.12337 Q 128.26671,128.92593 127.7462,128.82721 127.23466,128.7285 126.6962,128.7285 124.71286,128.7285 124.71286,130.29901 V 132.21952 H 127.91671 L 127.75517,133.40414 H 124.71286 V 140.93362 H 123.20517 V 133.40414 H 120.95261 V 132.21952 H 123.20517 V 130.33491 Q 123.20517,129.45542 123.65389,128.81824 124.11158,128.18106 124.89235,127.84003 125.67312,127.49003 126.65132,127.49003 Z"
         style="font-size:17.5px"
         id="path872" />
      <path
         d="M 139.52053,130.4785 139.9872,131.89644 Q 139.37695,132.08491 138.69489,132.12978 138.02182,132.17465 137.2231,132.17465 138.86541,132.9285 138.86541,134.55286 138.86541,135.95286 137.9231,136.85927 136.98977,137.76568 135.31156,137.76568 134.83592,137.76568 134.51284,137.7208 134.19874,137.67593 133.90259,137.58619 133.6872,137.73875 133.54361,137.99003 133.409,138.23234 133.409,138.50157 133.409,138.8426 133.67823,139.06696 133.94746,139.29132 134.67438,139.29132 H 136.37951 Q 137.33079,139.29132 138.08464,139.63234 138.83848,139.97337 139.27823,140.5567 139.71797,141.13106 139.71797,141.85798 139.71797,143.24901 138.53336,143.99388 137.35771,144.73875 135.20387,144.73875 133.69618,144.73875 132.82566,144.42465 131.95515,144.11952 131.57823,143.48234 131.21028,142.85414 131.21028,141.89388 H 132.57438 Q 132.57438,142.44132 132.78977,142.80029 133.00515,143.15927 133.57053,143.32978 134.13592,143.50927 135.19489,143.50927 136.75643,143.50927 137.47438,143.11439 138.19233,142.7285 138.19233,141.9567 138.19233,141.28362 137.58207,140.9426 136.97182,140.60157 136.05643,140.60157 H 134.36925 Q 133.13977,140.60157 132.56541,140.06311 131.99105,139.52465 131.99105,138.82465 131.99105,137.85542 133.03207,137.17337 131.44361,136.32978 131.44361,134.56183 131.44361,133.60157 131.91925,132.86568 132.39489,132.1208 133.24746,131.69901 134.10002,131.27721 135.21284,131.27721 136.40643,131.27721 137.1513,131.1785 137.89618,131.07978 138.42566,130.90029 138.96412,130.7208 139.52053,130.4785 Z M 135.21284,132.38106 Q 134.0731,132.38106 133.52566,133.00029 132.9872,133.61952 132.9872,134.56183 132.9872,135.52209 133.53464,136.14132 134.09105,136.76055 135.24874,136.76055 136.24489,136.76055 136.77438,136.17721 137.30387,135.59388 137.30387,134.55286 137.30387,132.38106 135.21284,132.38106 Z"
         style="font-size:17.5px"
         id="path874" />
      <path
         d="M 144.11538,127.53491 V 132.77593 Q 144.67179,132.04003 145.47948,131.66311 146.29615,131.28619 147.13076,131.28619 148.51281,131.28619 149.14999,132.02209 149.78717,132.75798 149.78717,134.06824 V 140.93362 H 148.27948 V 134.10414 Q 148.27948,133.25157 147.88461,132.86568 147.48974,132.4708 146.64615,132.4708 146.10769,132.4708 145.62307,132.71311 145.13846,132.95542 144.75256,133.31439 144.36666,133.67337 144.11538,134.05029 V 140.93362 H 142.60769 V 127.69644 Z"
         style="font-size:17.5px"
         id="path876" />
      <path
         d="M 156.95766,127.05927 Q 157.46022,127.05927 157.75638,127.36439 158.06151,127.66952 158.06151,128.10927 158.06151,128.56696 157.75638,128.88106 157.46022,129.18619 156.95766,129.18619 156.48202,129.18619 156.17689,128.88106 155.87176,128.56696 155.87176,128.10927 155.87176,127.66952 156.17689,127.36439 156.48202,127.05927 156.95766,127.05927 Z M 158.16022,131.48362 V 139.74003 H 160.82561 V 140.93362 H 153.73586 V 139.74003 H 156.65253 V 132.67721 H 153.82561 V 131.48362 Z"
         style="font-size:17.5px"
         id="path878" />
      <path
         d="M 168.92045,127.05927 Q 169.42302,127.05927 169.72814,127.36439 170.03327,127.66952 170.03327,128.10927 170.03327,128.56696 169.72814,128.88106 169.42302,129.18619 168.92045,129.18619 168.43584,129.18619 168.13968,128.88106 167.84353,128.56696 167.84353,128.10927 167.84353,127.66952 168.13968,127.36439 168.43584,127.05927 168.92045,127.05927 Z M 170.32943,131.48362 V 139.41696 Q 170.32943,140.99644 169.61148,142.06439 168.9025,143.13234 167.55635,143.76952 166.2102,144.41568 164.30763,144.73875 L 164.05635,143.57209 Q 165.45635,143.33875 166.53327,142.87209 167.6102,142.40542 168.21148,141.59773 168.82173,140.79003 168.82173,139.51568 V 132.67721 H 164.89096 V 131.48362 Z"
         style="font-size:17.5px"
         id="path880" />
      <path
         d="M 176.52171,127.49003 V 140.93362 H 175.01401 V 127.6785 Z M 182.83068,131.48362 178.57683,135.73747 183.32427,140.93362 H 181.34094 L 176.69222,135.77337 180.87427,131.48362 Z"
         style="font-size:17.5px"
         id="path882" />
      <path
         d="M 189.36399,127.6785 V 138.60029 Q 189.36399,139.30029 189.79476,139.59644 190.23451,139.88362 190.92553,139.88362 191.34733,139.88362 191.73323,139.79388 192.1281,139.70414 192.51399,139.55157 L 192.91784,140.65542 Q 192.53194,140.84388 191.95758,140.98747 191.3922,141.14003 190.67425,141.14003 189.41784,141.14003 188.63707,140.44901 187.8563,139.74901 187.8563,138.51952 V 128.87209 H 184.95758 V 127.6785 Z"
         style="font-size:17.5px"
         id="path884" />
      <path
         d="M 202.68192,131.28619 Q 203.13064,131.28619 203.55244,131.48362 203.97423,131.68106 204.24346,132.24644 204.51269,132.81183 204.51269,133.89773 V 140.93362 H 203.11269 V 134.14003 Q 203.11269,133.25157 203.005,132.8567 202.89731,132.46183 202.38577,132.46183 201.96397,132.46183 201.54218,132.73106 201.12038,132.99132 200.73449,133.5926 V 140.93362 H 199.32551 V 134.14003 Q 199.32551,133.25157 199.21782,132.8567 199.11013,132.46183 198.59859,132.46183 198.15885,132.46183 197.74603,132.73106 197.33321,132.99132 196.94731,133.5926 V 140.93362 H 195.55628 V 131.48362 H 196.7409 L 196.83064,132.5785 Q 197.21654,132.03106 197.69218,131.66311 198.17679,131.28619 198.88577,131.28619 199.42423,131.28619 199.89987,131.54644 200.37551,131.79773 200.59987,132.53362 200.98577,131.97721 201.47038,131.63619 201.955,131.28619 202.68192,131.28619 Z"
         style="font-size:17.5px"
         id="path886" />
      <path
         d="M 207.22291,140.93362 V 131.48362 H 208.50625 L 208.62291,132.79388 Q 209.19727,132.06696 210.05881,131.68106 210.92035,131.28619 211.74599,131.28619 213.13702,131.28619 213.76522,132.02209 214.4024,132.75798 214.4024,134.06824 V 140.93362 H 212.89471 V 135.18106 Q 212.89471,134.21183 212.78702,133.61952 212.67932,133.02721 212.32932,132.74901 211.9883,132.4708 211.27932,132.4708 210.72291,132.4708 210.22932,132.71311 209.74471,132.95542 209.35881,133.32337 208.98189,133.68234 208.73061,134.05029 V 140.93362 Z"
         style="font-size:17.5px"
         id="path888" />
      <path
         d="M 221.59084,131.28619 Q 223.59212,131.28619 224.6152,132.62337 225.63828,133.96055 225.63828,136.20414 225.63828,137.64901 225.17161,138.76183 224.70494,139.87465 223.79853,140.51183 222.89212,141.14003 221.57289,141.14003 219.57161,141.14003 218.53956,139.79388 217.50751,138.44773 217.50751,136.22209 217.50751,134.76824 217.97418,133.65542 218.44084,132.53362 219.34725,131.91439 220.26264,131.28619 221.59084,131.28619 Z M 221.59084,132.51568 Q 220.37033,132.51568 219.74212,133.42209 219.12289,134.3285 219.12289,136.22209 219.12289,138.09773 219.73315,139.00414 220.35238,139.90157 221.57289,139.90157 222.79341,139.90157 223.40366,138.99516 224.02289,138.08875 224.02289,136.20414 224.02289,134.31952 223.41264,133.42209 222.80238,132.51568 221.59084,132.51568 Z"
         style="font-size:17.5px"
         id="path890" />
      <path
         d="M 232.98824,131.28619 Q 234.24465,131.28619 234.98953,131.89644 235.74337,132.5067 236.07542,133.61952 236.40747,134.72337 236.40747,136.20414 236.40747,137.63106 236.00363,138.75286 235.60876,139.86568 234.80106,140.50286 233.99337,141.14003 232.76388,141.14003 231.21132,141.14003 230.26901,140.04516 V 144.55029 L 228.76132,144.73875 V 131.48362 H 230.04465 L 230.17029,132.80286 Q 230.69081,132.07593 231.40876,131.68106 232.1267,131.28619 232.98824,131.28619 Z M 232.62927,132.49773 Q 231.8485,132.49773 231.24722,132.97337 230.64594,133.44003 230.26901,134.01439 V 138.69901 Q 230.63696,139.24644 231.19337,139.56952 231.75876,139.88362 232.43183,139.88362 233.60747,139.88362 234.19978,138.98619 234.79209,138.08875 234.79209,136.19516 234.79209,132.49773 232.62927,132.49773 Z"
         style="font-size:17.5px"
         id="path892" />
      <path
         d="M 242.64463,131.28619 Q 243.4972,131.28619 244.14335,131.60029 244.79848,131.91439 245.28309,132.51568 L 245.40874,131.48362 H 246.69207 V 144.73875 L 245.18438,144.55029 V 139.74003 Q 244.66386,140.46696 243.98181,140.80798 243.29976,141.14003 242.52797,141.14003 241.25361,141.14003 240.49079,140.52978 239.72797,139.91952 239.38694,138.81568 239.04592,137.70286 239.04592,136.22209 239.04592,134.80414 239.45874,133.69132 239.87156,132.56952 240.67027,131.93234 241.47797,131.28619 242.64463,131.28619 Z M 243.02156,132.49773 Q 240.6613,132.49773 240.6613,136.22209 240.6613,139.88362 242.84207,139.88362 243.62284,139.88362 244.20617,139.45286 244.79848,139.01311 245.18438,138.42978 V 133.70927 Q 244.81643,133.13491 244.25104,132.8208 243.68566,132.49773 243.02156,132.49773 Z"
         style="font-size:17.5px"
         id="path894" />
      <path
         d="M 250.38949,140.93362 V 139.77593 H 251.86128 V 132.64132 H 250.38949 V 131.48362 H 253.01 L 253.2882,133.71824 Q 253.83564,132.55157 254.61641,131.91439 255.39718,131.27721 256.68051,131.27721 257.07538,131.27721 257.38051,131.34003 257.69461,131.39388 258.01769,131.48362 L 257.80231,134.6785 H 256.56384 V 132.66824 Q 256.52795,132.66824 256.48307,132.66824 254.31128,132.66824 253.36897,135.77337 V 139.77593 H 255.28949 V 140.93362 Z"
         style="font-size:17.5px"
         id="path896" />
      <path
         d="M 264.28176,139.8926 Q 265.37663,139.8926 266.00483,139.48875 266.63304,139.08491 266.63304,138.39388 266.63304,137.97209 266.4715,137.65798 266.31894,137.34388 265.83432,137.0926 265.34971,136.83234 264.34458,136.58106 263.36637,136.33875 262.63945,136.02465 261.9215,135.70157 261.51766,135.19003 261.12278,134.6785 261.12278,133.86183 261.12278,132.66824 262.11894,131.97721 263.11509,131.28619 264.71253,131.28619 265.85227,131.28619 266.69586,131.59132 267.54842,131.89644 268.14073,132.32721 L 267.47663,133.35029 Q 266.94714,132.98234 266.29201,132.74901 265.64586,132.5067 264.73048,132.5067 263.61766,132.5067 263.15099,132.8567 262.68432,133.19773 262.68432,133.74516 262.68432,134.16696 262.90868,134.44516 263.14201,134.71439 263.68945,134.92978 264.23689,135.14516 265.19714,135.40542 266.1215,135.6567 266.81253,135.99773 267.50355,136.33875 267.88048,136.89516 268.26637,137.4426 268.26637,138.32209 268.26637,139.32721 267.69201,139.95542 267.11766,140.57465 266.20227,140.86183 265.29586,141.14003 264.28176,141.14003 262.99842,141.14003 262.09201,140.77209 261.19458,140.39516 260.58432,139.86568 L 261.44586,138.86952 Q 262.00227,139.32721 262.72022,139.61439 263.44714,139.8926 264.28176,139.8926 Z"
         style="font-size:17.5px"
         id="path898" />
      <path
         d="M 279.34071,140.45798 Q 278.8561,140.78106 278.16507,140.96055 277.47405,141.14003 276.80994,141.14003 275.2843,141.14003 274.45866,140.34132 273.63302,139.5426 273.63302,138.28619 V 132.65029 H 271.46122 V 131.48362 H 273.63302 V 129.33875 L 275.14071,129.15927 V 131.48362 H 278.40738 L 278.22789,132.65029 H 275.14071 V 138.26824 Q 275.14071,139.05798 275.55353,139.4708 275.97533,139.88362 276.94456,139.88362 277.47405,139.88362 277.92276,139.75798 278.37148,139.63234 278.75738,139.43491 Z"
         style="font-size:17.5px"
         id="path900" />
      <path
         d="M 284.11504,131.48362 V 138.1785 Q 284.11504,139.11183 284.50093,139.52465 284.88683,139.93747 285.7035,139.93747 286.48427,139.93747 287.17529,139.49773 287.87529,139.04901 288.26119,138.43875 V 131.48362 H 289.76888 V 140.93362 H 288.48555 L 288.35991,139.65927 Q 287.8035,140.37721 286.97786,140.76311 286.16119,141.14003 285.33555,141.14003 283.96247,141.14003 283.28042,140.41311 282.60734,139.67721 282.60734,138.35798 V 131.48362 Z"
         style="font-size:17.5px"
         id="path902" />
      <path
         d="M 301.25604,131.48362 297.81886,140.93362 H 296.06886 L 292.65861,131.48362 H 294.25604 L 296.99322,139.56055 299.6945,131.48362 Z"
         style="font-size:17.5px"
         id="path904" />
      <path
         d="M 311.14577,140.93362 H 309.00987 L 307.78935,133.99644 306.46115,140.93362 H 304.3791 L 302.65602,131.48362 H 304.19961 L 305.40218,140.00029 306.90987,132.68619 H 308.69577 L 310.12269,140.00029 311.32525,131.48362 H 312.79705 Z"
         style="font-size:17.5px"
         id="path906" />
      <path
         d="M 315.83035,140.93362 H 314.10727 L 317.59829,135.94388 314.53804,131.48362 H 316.32394 L 318.51368,135.00157 320.73035,131.48362 H 322.45342 L 319.40214,135.88106 322.88419,140.93362 H 321.03547 L 318.45086,136.87721 Z"
         style="font-size:17.5px"
         id="path908" />
      <path
         d="M 333.54573,131.48362 330.22521,140.99644 Q 329.89316,141.9567 329.38162,142.75542 328.87906,143.55414 328.06239,144.07465 327.2547,144.60414 326.00726,144.72978 L 325.77393,143.52721 Q 326.75214,143.36568 327.31752,143.03362 327.8829,142.70157 328.20598,142.18106 328.53803,141.66952 328.78931,140.93362 H 328.28675 L 324.98419,131.48362 H 326.59957 L 329.30983,139.78491 331.98419,131.48362 Z"
         style="font-size:17.5px"
         id="path910" />
      <path
         d="M 338.338,139.65029 H 343.59697 L 343.39954,140.93362 H 336.48928 V 139.79388 L 341.73031,132.79388 H 336.9021 V 131.48362 H 343.54313 V 132.65029 Z"
         style="font-size:17.5px"
         id="path912" />
      <path
         d="M 73.200172,159.65862 H 68.309147 L 67.321967,162.80862 H 65.787352 L 69.807865,150.45093 H 71.800172 L 75.820685,162.80862 H 74.187352 Z M 68.712993,158.36632 H 72.796326 L 70.768121,151.76119 Z"
         style="font-size:17.5px"
         id="path914" />
      <path
         d="M 85.871942,159.2817 Q 85.871942,160.2958 85.468095,160.97786 85.073224,161.65093 84.400147,162.05478 83.736044,162.45862 82.910403,162.63811 82.093736,162.80862 81.241172,162.80862 H 77.920659 V 150.45093 H 80.962967 Q 81.770659,150.45093 82.551429,150.6035 83.332198,150.74709 83.960403,151.10606 84.588608,151.45606 84.956557,152.05734 85.33348,152.65862 85.33348,153.56503 85.33348,154.36375 85.001429,154.92016 84.678352,155.4676 84.148865,155.79965 83.628352,156.1317 83.036044,156.26632 83.718095,156.38298 84.364249,156.69709 85.019377,157.00221 85.441172,157.62144 85.871942,158.24068 85.871942,159.2817 Z M 83.736044,153.6458 Q 83.736044,152.5958 83.080916,152.15606 82.434762,151.70734 81.312967,151.70734 H 79.473224 V 155.70991 H 81.465531 Q 82.560403,155.70991 83.143736,155.22529 83.736044,154.7317 83.736044,153.6458 Z M 84.229634,159.33555 Q 84.229634,158.40221 83.861685,157.89965 83.502711,157.38811 82.901429,157.19068 82.300147,156.99324 81.582198,156.99324 H 79.473224 V 161.52529 H 81.510403 Q 82.120659,161.52529 82.748865,161.36375 83.37707,161.19324 83.798865,160.72657 84.229634,160.25093 84.229634,159.33555 Z"
         style="font-size:17.5px"
         id="path916" />
      <path
         d="M 93.383454,150.2535 Q 94.594993,150.2535 95.411659,150.55862 96.228326,150.86375 96.964224,151.45606 L 96.093711,152.47016 Q 95.510377,151.97657 94.855249,151.77016 94.209095,151.55478 93.500121,151.55478 92.486018,151.55478 91.62448,152.03939 90.762941,152.51503 90.233454,153.62786 89.712941,154.7317 89.712941,156.62529 89.712941,158.46503 90.206531,159.57786 90.709095,160.69068 91.561659,161.18427 92.414224,161.67786 93.464224,161.67786 94.496275,161.67786 95.169352,161.36375 95.851403,161.04965 96.336018,160.6458 L 97.143711,161.66888 Q 96.578326,162.21632 95.671916,162.62016 94.765506,163.01503 93.446275,163.01503 91.938582,163.01503 90.727044,162.28811 89.515506,161.55221 88.806531,160.12529 88.097557,158.69837 88.097557,156.62529 88.097557,154.54324 88.815506,153.12529 89.542429,151.69837 90.744993,150.98042 91.947557,150.2535 93.383454,150.2535 Z"
         style="font-size:17.5px"
         id="path918" />
      <path
         d="M 107.64369,156.57144 Q 107.64369,158.50991 107.14112,159.73939 106.63856,160.95991 105.81292,161.63298 104.98728,162.29709 104.0001,162.55734 103.02189,162.80862 102.06164,162.80862 H 99.225738 V 150.45093 H 101.8642 Q 102.9501,150.45093 103.97317,150.69324 105.00523,150.93555 105.83087,151.59068 106.66548,152.23683 107.1501,153.43939 107.64369,154.64196 107.64369,156.57144 Z M 105.98343,156.57144 Q 105.98343,154.95606 105.6424,153.98683 105.30138,153.0176 104.74497,152.53298 104.18856,152.04837 103.52446,151.88683 102.86933,151.72529 102.23215,151.72529 H 100.7783 V 161.56119 H 102.2501 Q 102.9142,161.56119 103.5783,161.35478 104.2424,161.13939 104.78087,160.60093 105.3283,160.06247 105.65138,159.08427 105.98343,158.10606 105.98343,156.57144 Z"
         style="font-size:17.5px"
         id="path920" />
      <path
         d="M 112.31033,151.72529 V 155.88939 H 116.88725 V 157.17273 H 112.31033 V 161.56119 H 117.92827 V 162.80862 H 110.74879 V 150.45093 H 117.76674 L 117.58725,151.72529 Z"
         style="font-size:17.5px"
         id="path922" />
      <path
         d="M 123.29491,151.72529 V 156.05093 H 128.14107 V 157.30734 H 123.29491 V 162.80862 H 121.75132 V 150.45093 H 129.02953 L 128.84107,151.72529 Z"
         style="font-size:17.5px"
         id="path924" />
      <path
         d="M 135.66156,163.01503 Q 133.46284,163.01503 132.15259,161.42657 130.8513,159.82914 130.8513,156.62529 130.8513,155.02786 131.2731,153.83427 131.70387,152.64068 132.43977,151.84196 133.17566,151.04324 134.10002,150.64837 135.02438,150.2535 136.02053,150.2535 137.23207,150.2535 138.03079,150.6035 138.82951,150.94452 139.55643,151.60862 L 138.61412,152.58683 Q 137.51028,151.55478 136.02951,151.55478 135.13207,151.55478 134.32438,152.03042 133.52566,152.50606 133.0231,153.60991 132.52053,154.71375 132.52053,156.62529 132.52053,159.3176 133.35515,160.51119 134.18977,161.70478 135.80515,161.70478 137.06156,161.70478 138.15643,161.11247 V 157.34324 H 135.72438 L 135.53592,156.05093 H 139.70002 V 161.93811 Q 138.86541,162.3958 137.91412,162.70991 136.97182,163.01503 135.66156,163.01503 Z"
         style="font-size:17.5px"
         id="path926" />
      <path
         d="M 148.52179,162.80862 V 156.94837 H 143.85512 V 162.80862 H 142.30256 V 150.45093 H 143.85512 V 155.67401 H 148.52179 V 150.45093 H 150.07435 V 162.80862 Z"
         style="font-size:17.5px"
         id="path928" />
      <path
         d="M 160.49356,150.45093 V 151.69837 H 157.7474 V 161.56119 H 160.49356 V 162.80862 H 153.42176 V 161.56119 H 156.16792 V 151.69837 H 153.42176 V 150.45093 Z"
         style="font-size:17.5px"
         id="path930" />
      <path
         d="M 171.25379,150.45093 V 158.70734 Q 171.25379,159.47914 171.04738,160.24196 170.84096,161.00478 170.36532,161.63298 169.88968,162.26119 169.07302,162.63811 168.25635,163.01503 167.03584,163.01503 165.14225,163.01503 163.64353,161.89324 L 164.33455,160.86119 Q 165.13327,161.37273 165.79738,161.54324 166.47045,161.71375 167.01789,161.71375 168.30122,161.71375 169.00122,160.88811 169.70122,160.06247 169.70122,158.6176 V 151.72529 H 166.03968 V 150.45093 Z"
         style="font-size:17.5px"
         id="path932" />
      <path
         d="M 176.54863,162.80862 H 174.99607 V 150.45093 H 176.54863 Z M 176.63837,156.21247 181.50248,150.45093 H 183.29735 L 178.46914,156.11375 183.63837,162.80862 H 181.69991 Z"
         style="font-size:17.5px"
         id="path934" />
      <path
         d="M 186.31271,162.80862 V 150.45093 H 187.87425 V 161.4176 H 193.51015 L 193.33066,162.80862 Z"
         style="font-size:17.5px"
         id="path936" />
      <path
         d="M 204.17167,150.45093 204.87167,162.80862 H 203.37295 L 202.98705,156.35606 Q 202.94218,155.49452 202.91526,154.59709 202.89731,153.69965 202.88833,152.97273 202.87936,152.23683 202.88833,151.87786 L 200.80628,160.59196 H 199.24474 L 197.01013,151.87786 Q 197.02808,152.22786 197.03705,152.99068 197.04603,153.7535 197.03705,154.65991 197.02808,155.56632 196.99218,156.33811 L 196.66013,162.80862 H 195.19731 L 195.89731,150.45093 H 198.0691 L 200.07038,158.91375 201.98192,150.45093 Z"
         style="font-size:17.5px"
         id="path938" />
      <path
         d="M 212.50881,162.80862 208.15625,151.94068 Q 208.16522,152.20991 208.21907,152.96375 208.27291,153.70862 208.31779,154.68683 208.36266,155.65606 208.36266,156.61632 V 162.80862 H 206.91779 V 150.45093 H 209.02676 L 213.45112,161.36375 Q 213.44214,161.1035 213.3883,160.41247 213.33445,159.71247 213.28958,158.73427 213.24471,157.74709 213.24471,156.63427 V 150.45093 H 214.68958 V 162.80862 Z"
         style="font-size:17.5px"
         id="path940" />
      <path
         d="M 226.12289,156.64324 Q 226.12289,158.51888 225.61136,159.95478 225.09982,161.39068 224.08571,162.20734 223.08059,163.01503 221.57289,163.01503 220.0652,163.01503 219.0511,162.22529 218.04597,161.42657 217.53443,159.99965 217.02289,158.57273 217.02289,156.66119 217.02289,154.78555 217.53443,153.34068 218.04597,151.8958 219.0511,151.07914 220.0652,150.2535 221.57289,150.2535 223.08059,150.2535 224.08571,151.05221 225.09982,151.85093 225.61136,153.2958 226.12289,154.7317 226.12289,156.64324 Z M 224.48956,156.64324 Q 224.48956,154.17529 223.80751,152.86503 223.13443,151.55478 221.57289,151.55478 220.01136,151.55478 219.3293,152.87401 218.65623,154.19324 218.65623,156.66119 218.65623,159.12914 219.35623,160.42144 220.05623,161.70478 221.57289,161.70478 223.13443,161.70478 223.80751,160.41247 224.48956,159.11119 224.48956,156.64324 Z"
         style="font-size:17.5px"
         id="path942" />
      <path
         d="M 236.95491,154.24709 Q 236.95491,155.69196 236.33568,156.56247 235.72542,157.43298 234.6485,157.82786 233.57158,158.22273 232.17158,158.22273 H 230.59209 V 162.80862 H 229.03055 V 150.45093 H 232.18953 Q 234.39722,150.45093 235.67158,151.37529 236.95491,152.29965 236.95491,154.24709 Z M 235.28568,154.26503 Q 235.28568,153.31375 234.90876,152.74837 234.53183,152.18298 233.86773,151.94068 233.2126,151.68939 232.37799,151.68939 H 230.59209 V 156.96632 H 232.31517 Q 233.1767,156.96632 233.84978,156.73298 234.52286,156.49965 234.89978,155.91632 235.28568,155.32401 235.28568,154.26503 Z"
         style="font-size:17.5px"
         id="path944" />
      <path
         d="M 247.6613,156.64324 Q 247.6613,158.60862 247.08694,160.08042 246.52156,161.55221 245.10361,162.33298 246.40489,162.58427 247.15874,163.24837 247.91258,163.91247 248.3613,165.2676 L 246.71899,165.91375 Q 246.35104,164.96247 245.8754,164.30734 245.39976,163.65221 244.69976,163.31119 243.99976,162.97914 242.93181,162.97914 241.51386,162.97914 240.53566,162.19837 239.55745,161.40862 239.04592,159.99068 238.54335,158.57273 238.54335,156.66119 238.54335,154.78555 239.05489,153.34068 239.5754,151.8958 240.58951,151.07914 241.60361,150.2535 243.10233,150.2535 244.61002,150.2535 245.62412,151.05221 246.63822,151.85093 247.14976,153.2958 247.6613,154.7317 247.6613,156.64324 Z M 246.04592,156.64324 Q 246.04592,154.16632 245.35489,152.86503 244.66386,151.55478 243.10233,151.55478 241.54079,151.55478 240.84976,152.87401 240.15874,154.18427 240.15874,156.66119 240.15874,159.12914 240.86771,160.42144 241.58566,161.70478 243.10233,161.70478 244.66386,161.70478 245.35489,160.41247 246.04592,159.11119 246.04592,156.64324 Z"
         style="font-size:17.5px"
         id="path946" />
      <path
         d="M 258.14333,153.91503 Q 258.14333,155.30606 257.27282,156.1676 256.40231,157.02016 255.12795,157.32529 L 258.78949,162.80862 H 256.92282 L 253.54846,157.50478 H 251.87923 V 162.80862 H 250.31769 V 150.45093 H 253.49461 Q 255.78307,150.45093 256.95872,151.33042 258.14333,152.20093 258.14333,153.91503 Z M 256.4741,153.91503 Q 256.4741,152.73042 255.78307,152.20991 255.10102,151.68939 253.6741,151.68939 H 251.87923 V 156.28427 H 253.6741 Q 255.00231,156.28427 255.7382,155.7458 256.4741,155.19837 256.4741,153.91503 Z"
         style="font-size:17.5px"
         id="path948" />
      <path
         d="M 268.89458,159.38939 Q 268.89458,160.45734 268.36509,161.27401 267.8356,162.09068 266.8215,162.55734 265.81637,163.01503 264.38048,163.01503 263.02535,163.01503 261.9215,162.60221 260.82663,162.18939 260.04586,161.43555 L 260.97022,160.39452 Q 261.6074,160.9958 262.44201,161.35478 263.27663,161.70478 264.4074,161.70478 265.16124,161.70478 265.81637,161.46247 266.4715,161.21119 266.87535,160.70862 267.27919,160.19709 267.27919,159.41632 267.27919,158.82401 267.04586,158.40221 266.81253,157.97144 266.22022,157.64837 265.62791,157.31632 264.56894,157.00221 263.34842,156.64324 262.45099,156.19452 261.56253,155.73683 261.06894,155.0817 260.58432,154.4176 260.58432,153.43042 260.58432,152.50606 261.09586,151.78811 261.6074,151.07016 262.50483,150.66632 263.41124,150.2535 264.58689,150.2535 265.87022,150.2535 266.81253,150.62144 267.76381,150.98042 268.5356,151.66247 L 267.62022,152.67657 Q 266.95612,152.09324 266.1933,151.82401 265.43048,151.55478 264.64073,151.55478 263.62663,151.55478 262.89971,152.0035 262.17278,152.45221 262.17278,153.37657 262.17278,153.91503 262.45996,154.30093 262.74714,154.67786 263.42919,155.00093 264.11124,155.32401 265.28689,155.66503 266.24714,155.94324 267.06381,156.36503 267.88945,156.77786 268.39201,157.4958 268.89458,158.20478 268.89458,159.38939 Z"
         style="font-size:17.5px"
         id="path950" />
      <path
         d="M 276.16379,151.78811 V 162.80862 H 274.61122 V 151.78811 H 270.75225 V 150.45093 H 280.07661 L 279.91507,151.78811 Z"
         style="font-size:17.5px"
         id="path952" />
      <path
         d="M 290.27145,150.45093 V 158.80606 Q 290.27145,160.0535 289.76888,161.00478 289.26632,161.95606 288.34196,162.48555 287.4176,163.01503 286.17016,163.01503 284.89581,163.01503 283.98042,162.48555 283.07401,161.94709 282.58939,161.00478 282.10478,160.0535 282.10478,158.80606 V 150.45093 H 283.64837 V 158.85991 Q 283.64837,160.26888 284.3035,160.96888 284.9676,161.66888 286.17016,161.66888 287.3817,161.66888 288.03683,160.96888 288.70093,160.26888 288.70093,158.85991 V 150.45093 Z"
         style="font-size:17.5px"
         id="path954" />
      <path
         d="M 296.99322,161.04068 300.33168,150.45093 H 301.9022 L 297.76502,162.80862 H 296.14963 L 292.01245,150.45093 H 293.69066 Z"
         style="font-size:17.5px"
         id="path956" />
      <path
         d="M 313.03038,150.45093 311.14577,162.80862 H 309.09961 L 307.68166,153.48427 306.25474,162.80862 H 304.16371 L 302.42269,150.45093 H 303.98423 L 305.30346,161.09452 306.78423,151.88683 H 308.69577 L 310.10474,161.09452 311.58551,150.45093 Z"
         style="font-size:17.5px"
         id="path958" />
      <path
         d="M 313.99958,150.45093 H 315.78547 L 318.49573,155.19837 321.21496,150.45093 H 322.90214 L 319.39317,156.14068 323.32394,162.80862 H 321.53804 L 318.45983,157.22657 315.34573,162.80862 H 313.66752 L 317.54445,156.22144 Z"
         style="font-size:17.5px"
         id="path960" />
      <path
         d="M 330.0547,158.04324 V 162.80862 H 328.47521 V 158.06119 L 324.30214,150.45093 H 326.02521 L 329.30085,156.64324 332.61239,150.45093 H 334.22778 Z"
         style="font-size:17.5px"
         id="path962" />
      <path
         d="M 337.64697,161.46247 H 344.11748 L 343.92902,162.80862 H 335.93287 V 161.54324 L 342.4662,151.77914 H 336.57902 V 150.45093 H 344.13543 V 151.72529 Z"
         style="font-size:17.5px"
         id="path964" />
      <path
         d="M 70.821967,175.03619 Q 72.823249,175.03619 73.846326,176.37337 74.869403,177.71055 74.869403,179.95414 74.869403,181.39901 74.402736,182.51183 73.93607,183.62465 73.029659,184.26183 72.123249,184.89003 70.804018,184.89003 68.802736,184.89003 67.770685,183.54388 66.738634,182.19773 66.738634,179.97209 66.738634,178.51824 67.205301,177.40542 67.671967,176.28362 68.578377,175.66439 69.493762,175.03619 70.821967,175.03619 Z M 70.821967,176.26568 Q 69.601454,176.26568 68.973249,177.17209 68.354018,178.0785 68.354018,179.97209 68.354018,181.84773 68.964275,182.75414 69.583506,183.65157 70.804018,183.65157 72.024531,183.65157 72.634788,182.74516 73.254018,181.83875 73.254018,179.95414 73.254018,178.06952 72.643762,177.17209 72.033506,176.26568 70.821967,176.26568 Z"
         style="font-size:17.5px"
         id="path966" />
      <path
         d="M 86.123224,178.51824 Q 86.123224,180.39388 85.611685,181.82978 85.100147,183.26568 84.086044,184.08234 83.080916,184.89003 81.573224,184.89003 80.065531,184.89003 79.051429,184.10029 78.0463,183.30157 77.534762,181.87465 77.023224,180.44773 77.023224,178.53619 77.023224,176.66055 77.534762,175.21568 78.0463,173.7708 79.051429,172.95414 80.065531,172.1285 81.573224,172.1285 83.080916,172.1285 84.086044,172.92721 85.100147,173.72593 85.611685,175.1708 86.123224,176.6067 86.123224,178.51824 Z M 84.48989,178.51824 Q 84.48989,176.05029 83.807839,174.74003 83.134762,173.42978 81.573224,173.42978 80.011685,173.42978 79.329634,174.74901 78.656557,176.06824 78.656557,178.53619 78.656557,181.00414 79.356557,182.29644 80.056557,183.57978 81.573224,183.57978 83.134762,183.57978 83.807839,182.28747 84.48989,180.98619 84.48989,178.51824 Z"
         style="font-size:17.5px"
         id="path968" />
      <path
         d="M 92.342429,172.1285 Q 94.334736,172.1285 95.357813,173.77978 96.389865,175.43106 96.389865,178.50029 96.389865,181.5785 95.357813,183.23875 94.334736,184.89003 92.342429,184.89003 90.350121,184.89003 89.31807,183.23875 88.294993,181.5785 88.294993,178.50029 88.294993,175.43106 89.31807,173.77978 90.350121,172.1285 92.342429,172.1285 Z M 92.342429,173.34003 Q 91.202685,173.34003 90.547557,174.55157 89.892429,175.75414 89.892429,178.50029 89.892429,180.55542 90.206531,181.73106 L 93.984736,174.13875 Q 93.419352,173.34003 92.342429,173.34003 Z M 94.801403,178.50029 Q 94.801403,176.42721 94.478326,175.26055 L 90.71807,182.87978 Q 91.283454,183.66952 92.342429,183.66952 93.491147,183.66952 94.146275,182.45798 94.801403,181.24644 94.801403,178.50029 Z"
         style="font-size:17.5px"
         id="path970" />
      <path
         d="M 106.81805,175.26952 Q 106.81805,176.17593 106.26164,176.83106 105.70523,177.48619 104.67317,178.05157 105.88471,178.55414 106.60266,179.39773 107.32061,180.23234 107.32061,181.37209 107.32061,182.37721 106.8001,183.17593 106.27958,183.97465 105.3283,184.43234 104.37702,184.89003 103.07574,184.89003 101.75651,184.89003 100.82317,184.43234 99.889841,183.96568 99.396251,183.17593 98.902661,182.38619 98.902661,181.39901 98.902661,180.25927 99.575738,179.4785 100.25779,178.69773 101.37958,178.17721 100.40138,177.71055 99.898815,177.04644 99.405225,176.38234 99.405225,175.35029 99.405225,174.49773 99.746251,173.88747 100.09625,173.27721 100.64369,172.89132 101.2001,172.49644 101.84625,172.31696 102.50138,172.1285 103.11164,172.1285 104.00907,172.1285 104.86164,172.46055 105.7142,172.78362 106.26164,173.48362 106.81805,174.17465 106.81805,175.26952 Z M 100.89497,175.36824 Q 100.89497,176.07721 101.21805,176.49003 101.5501,176.89388 102.16035,177.15414 102.77061,177.40542 103.60523,177.67465 104.46676,177.19003 104.89753,176.6785 105.3283,176.16696 105.3283,175.32337 105.3283,174.39003 104.74497,173.8426 104.17061,173.29516 103.11164,173.29516 102.06164,173.29516 101.4783,173.8426 100.89497,174.39003 100.89497,175.36824 Z M 105.73215,181.39003 Q 105.73215,180.55542 105.31035,180.0708 104.88856,179.58619 104.14369,179.26311 103.39882,178.94003 102.42061,178.60798 101.65779,178.95798 101.07446,179.60414 100.49112,180.24132 100.49112,181.40798 100.49112,182.45798 101.13728,183.06824 101.78343,183.66952 103.06676,183.66952 104.35907,183.66952 105.04112,183.02337 105.73215,182.36824 105.73215,181.39003 Z"
         style="font-size:17.5px"
         id="path972" />
      <path
         d="M 124.65004,170.80927 Q 125.15261,170.80927 125.44876,171.11439 125.75389,171.41952 125.75389,171.85927 125.75389,172.31696 125.44876,172.63106 125.15261,172.93619 124.65004,172.93619 124.1744,172.93619 123.86927,172.63106 123.56414,172.31696 123.56414,171.85927 123.56414,171.41952 123.86927,171.11439 124.1744,170.80927 124.65004,170.80927 Z M 125.85261,175.23362 V 183.49003 H 128.51799 V 184.68362 H 121.42825 V 183.49003 H 124.34491 V 176.42721 H 121.51799 V 175.23362 Z"
         style="font-size:17.5px"
         id="path974" />
      <path
         d="M 138.95515,172.32593 V 173.57337 H 136.209 V 183.43619 H 138.95515 V 184.68362 H 131.88336 V 183.43619 H 134.62951 V 173.57337 H 131.88336 V 172.32593 Z"
         style="font-size:17.5px"
         id="path976" />
      <path
         d="M 146.28717,172.32593 V 182.35029 Q 146.28717,183.05029 146.71794,183.34644 147.15769,183.63362 147.84871,183.63362 148.27051,183.63362 148.6564,183.54388 149.05128,183.45414 149.43717,183.30157 L 149.84102,184.40542 Q 149.45512,184.59388 148.88076,184.73747 148.31538,184.89003 147.59743,184.89003 146.34102,184.89003 145.56025,184.19901 144.77948,183.49901 144.77948,182.26952 V 173.66311 H 141.88076 V 172.32593 Z"
         style="font-size:17.5px"
         id="path978" />
      <path
         d="M 154.0051,184.68362 V 172.32593 H 155.56663 V 183.2926 H 161.20253 L 161.02304,184.68362 Z"
         style="font-size:17.5px"
         id="path980" />
      <path
         d="M 171.63071,183.45414 V 184.68362 H 164.49609 V 183.45414 H 167.5384 V 173.95927 L 164.7025,175.68234 164.04738,174.60542 167.72686,172.32593 H 169.04609 V 183.45414 Z"
         style="font-size:17.5px"
         id="path982" />
      <path
         d="M 191.98451,169.68747 V 170.87209 Q 191.32938,170.87209 190.79092,171.0067 190.26143,171.13234 189.96528,171.44644 189.66912,171.76055 189.72297,172.30798 L 190.09989,175.98747 Q 190.21656,177.11824 189.77681,177.67465 189.34605,178.23106 188.42169,178.40157 189.36399,178.57209 189.79476,179.10157 190.22553,179.62209 190.09989,180.81568 L 189.72297,184.49516 Q 189.66912,185.05157 189.96528,185.36568 190.26143,185.67978 190.79092,185.80542 191.3204,185.93106 191.98451,185.93106 V 187.11568 Q 190.97938,187.11568 190.09989,186.87337 189.2204,186.63106 188.71784,186.0208 188.21528,185.41952 188.34092,184.31568 L 188.69989,180.90542 Q 188.77169,180.29516 188.58323,179.87337 188.40374,179.4426 187.79348,179.22721 187.1922,179.00286 185.98964,179.00286 V 177.80029 Q 187.1922,177.80029 187.79348,177.58491 188.40374,177.36952 188.58323,176.94773 188.77169,176.52593 188.69989,175.91568 L 188.34092,172.48747 Q 188.22425,171.38362 188.71784,170.78234 189.2204,170.17209 190.09989,169.92978 190.97938,169.68747 191.98451,169.68747 Z"
         style="font-size:17.5px"
         id="path984" />
      <path
         d="M 197.31526,169.68747 Q 198.32038,169.68747 199.19987,169.92978 200.07936,170.17209 200.58192,170.78234 201.08449,171.38362 200.95885,172.48747 L 200.59987,175.91568 Q 200.50115,176.83106 201.07551,177.31568 201.64987,177.80029 203.31013,177.80029 V 179.00286 Q 201.65885,179.00286 201.07551,179.49644 200.50115,179.99003 200.59987,180.90542 L 200.95885,184.31568 Q 201.07551,185.41952 200.57295,186.0208 200.07936,186.63106 199.19987,186.87337 198.32038,187.11568 197.31526,187.11568 V 185.93106 Q 197.97038,185.93106 198.49987,185.80542 199.03833,185.67978 199.33449,185.36568 199.63064,185.05157 199.57679,184.49516 L 199.19987,180.81568 Q 199.07423,179.62209 199.52295,179.10157 199.98064,178.58106 201.07551,178.41952 200.01654,178.24003 199.54987,177.68362 199.08321,177.11824 199.19987,175.98747 L 199.57679,172.30798 Q 199.63064,171.76055 199.33449,171.44644 199.03833,171.13234 198.50885,171.0067 197.97936,170.87209 197.31526,170.87209 Z"
         style="font-size:17.5px"
         id="path986" />
      <path
         d="M 219.49084,186.7567 V 170.04644 H 223.987 V 171.34773 H 220.91777 V 185.47337 H 223.987 V 186.7567 Z"
         style="font-size:17.5px"
         id="path988" />
      <path
         d="M 234.42414,170.04644 V 186.7567 H 229.92799 V 185.48234 H 232.99722 V 171.34773 H 229.92799 V 170.04644 Z"
         style="font-size:17.5px"
         id="path990" />
      <path
         d="M 257.98179,174.2285 258.44846,175.64644 Q 257.8382,175.83491 257.15615,175.87978 256.48307,175.92465 255.68436,175.92465 257.32666,176.6785 257.32666,178.30286 257.32666,179.70286 256.38436,180.60927 255.45102,181.51568 253.77282,181.51568 253.29718,181.51568 252.9741,181.4708 252.66,181.42593 252.36384,181.33619 252.14846,181.48875 252.00487,181.74003 251.87025,181.98234 251.87025,182.25157 251.87025,182.5926 252.13949,182.81696 252.40872,183.04132 253.13564,183.04132 H 254.84077 Q 255.79205,183.04132 256.5459,183.38234 257.29974,183.72337 257.73949,184.3067 258.17923,184.88106 258.17923,185.60798 258.17923,186.99901 256.99461,187.74388 255.81897,188.48875 253.66513,188.48875 252.15743,188.48875 251.28692,188.17465 250.41641,187.86952 250.03949,187.23234 249.67154,186.60414 249.67154,185.64388 H 251.03564 Q 251.03564,186.19132 251.25102,186.55029 251.46641,186.90927 252.03179,187.07978 252.59718,187.25927 253.65615,187.25927 255.21769,187.25927 255.93564,186.86439 256.65359,186.4785 256.65359,185.7067 256.65359,185.03362 256.04333,184.6926 255.43307,184.35157 254.51769,184.35157 H 252.83051 Q 251.60102,184.35157 251.02666,183.81311 250.45231,183.27465 250.45231,182.57465 250.45231,181.60542 251.49333,180.92337 249.90487,180.07978 249.90487,178.31183 249.90487,177.35157 250.38051,176.61568 250.85615,175.8708 251.70872,175.44901 252.56128,175.02721 253.6741,175.02721 254.86769,175.02721 255.61256,174.9285 256.35743,174.82978 256.88692,174.65029 257.42538,174.4708 257.98179,174.2285 Z M 253.6741,176.13106 Q 252.53436,176.13106 251.98692,176.75029 251.44846,177.36952 251.44846,178.31183 251.44846,179.27209 251.9959,179.89132 252.55231,180.51055 253.71,180.51055 254.70615,180.51055 255.23564,179.92721 255.76513,179.34388 255.76513,178.30286 255.76513,176.13106 253.6741,176.13106 Z"
         style="font-size:17.5px"
         id="path992" />
      <path
         d="M 264.46124,172.14644 Q 266.48048,172.14644 267.4856,173.51055 268.49073,174.87465 268.49073,177.19901 268.49073,179.07465 268.10483,180.36696 267.72791,181.65927 266.92919,182.52978 266.13048,183.40029 264.88304,183.9926 263.6356,184.58491 261.90355,185.06055 L 261.55355,183.91183 Q 263.26766,183.43619 264.41637,182.78106 265.57407,182.12593 266.18432,181.13875 266.79458,180.1426 266.88432,178.67978 266.34586,179.33491 265.63689,179.74773 264.92791,180.15157 263.99458,180.15157 262.96253,180.15157 262.16381,179.68491 261.37407,179.20927 260.91637,178.32978 260.45868,177.44132 260.45868,176.20286 260.45868,174.88362 260.99714,173.97721 261.5356,173.0708 262.44201,172.61311 263.34842,172.14644 264.46124,172.14644 Z M 262.02022,176.2567 Q 262.02022,177.67465 262.61253,178.31183 263.21381,178.94901 264.27278,178.94901 265.1074,178.94901 265.7356,178.51824 266.37278,178.08747 266.92022,177.3426 266.8933,175.16183 266.29201,174.26439 265.69073,173.36696 264.46124,173.36696 262.02022,173.36696 262.02022,176.2567 Z"
         style="font-size:17.5px"
         id="path994" />
      <path
         d="M 274.95225,175.03619 Q 275.80481,175.03619 276.45097,175.35029 277.1061,175.66439 277.59071,176.26568 L 277.71635,175.23362 H 278.99969 V 188.48875 L 277.49199,188.30029 V 183.49003 Q 276.97148,184.21696 276.28943,184.55798 275.60738,184.89003 274.83558,184.89003 273.56122,184.89003 272.7984,184.27978 272.03558,183.66952 271.69456,182.56568 271.35353,181.45286 271.35353,179.97209 271.35353,178.55414 271.76635,177.44132 272.17917,176.31952 272.97789,175.68234 273.78558,175.03619 274.95225,175.03619 Z M 275.32917,176.24773 Q 272.96892,176.24773 272.96892,179.97209 272.96892,183.63362 275.14969,183.63362 275.93046,183.63362 276.51379,183.20286 277.1061,182.76311 277.49199,182.17978 V 177.45927 Q 277.12405,176.88491 276.55866,176.5708 275.99328,176.24773 275.32917,176.24773 Z"
         style="font-size:17.5px"
         id="path996" />
      <path
         d="M 287.22914,172.1285 Q 288.44068,172.1285 289.25734,172.43362 290.07401,172.73875 290.80991,173.33106 L 289.93939,174.34516 Q 289.35606,173.85157 288.70093,173.64516 288.05478,173.42978 287.34581,173.42978 286.3317,173.42978 285.47016,173.91439 284.60863,174.39003 284.07914,175.50286 283.55863,176.6067 283.55863,178.50029 283.55863,180.34003 284.05222,181.45286 284.55478,182.56568 285.40734,183.05927 286.25991,183.55286 287.30991,183.55286 288.34196,183.55286 289.01504,183.23875 289.69709,182.92465 290.1817,182.5208 L 290.98939,183.54388 Q 290.42401,184.09132 289.5176,184.49516 288.61119,184.89003 287.29196,184.89003 285.78427,184.89003 284.57273,184.16311 283.36119,183.42721 282.65222,182.00029 281.94324,180.57337 281.94324,178.50029 281.94324,176.41824 282.66119,175.00029 283.38811,173.57337 284.59068,172.85542 285.79324,172.1285 287.22914,172.1285 Z"
         style="font-size:17.5px"
         id="path998" />
      <path
         d="M 297.19963,184.89003 Q 295.00091,184.89003 293.69066,183.30157 292.38937,181.70414 292.38937,178.50029 292.38937,176.90286 292.81117,175.70927 293.24194,174.51568 293.97784,173.71696 294.71373,172.91824 295.63809,172.52337 296.56245,172.1285 297.55861,172.1285 298.77014,172.1285 299.56886,172.4785 300.36758,172.81952 301.0945,173.48362 L 300.1522,174.46183 Q 299.04835,173.42978 297.56758,173.42978 296.67014,173.42978 295.86245,173.90542 295.06373,174.38106 294.56117,175.48491 294.05861,176.58875 294.05861,178.50029 294.05861,181.1926 294.89322,182.38619 295.72784,183.57978 297.34322,183.57978 298.59963,183.57978 299.6945,182.98747 V 179.21824 H 297.26245 L 297.07399,177.92593 H 301.23809 V 183.81311 Q 300.40348,184.2708 299.4522,184.58491 298.50989,184.89003 297.19963,184.89003 Z"
         style="font-size:17.5px"
         id="path1000" />
      <path
         d="M 312.27653,178.51824 Q 312.27653,180.48362 311.70218,181.95542 311.13679,183.42721 309.71884,184.20798 311.02012,184.45927 311.77397,185.12337 312.52782,185.78747 312.97653,187.1426 L 311.33423,187.78875 Q 310.96628,186.83747 310.49064,186.18234 310.015,185.52721 309.315,185.18619 308.615,184.85414 307.54705,184.85414 306.1291,184.85414 305.15089,184.07337 304.17269,183.28362 303.66115,181.86568 303.15859,180.44773 303.15859,178.53619 303.15859,176.66055 303.67012,175.21568 304.19064,173.7708 305.20474,172.95414 306.21884,172.1285 307.71756,172.1285 309.22525,172.1285 310.23935,172.92721 311.25346,173.72593 311.765,175.1708 312.27653,176.6067 312.27653,178.51824 Z M 310.66115,178.51824 Q 310.66115,176.04132 309.97012,174.74003 309.2791,173.42978 307.71756,173.42978 306.15602,173.42978 305.465,174.74901 304.77397,176.05927 304.77397,178.53619 304.77397,181.00414 305.48294,182.29644 306.20089,183.57978 307.71756,183.57978 309.2791,183.57978 309.97012,182.28747 310.66115,180.98619 310.66115,178.51824 Z"
         style="font-size:17.5px"
         id="path1002" />
      <path
         d="M 327.1739,180.36696 326.09697,179.81055 Q 326.35723,179.29901 326.73415,178.7785 327.11107,178.24901 327.66748,177.89901 328.21492,177.54003 329.00466,177.54003 329.63287,177.54003 330.09954,177.80927 330.55723,178.0785 330.93415,178.43747 331.31107,178.78747 331.67005,179.06568 332.02902,179.33491 332.45082,179.33491 332.87261,179.33491 333.15979,179.20029 333.44697,179.0567 333.70723,178.87721 333.96748,178.68875 334.29954,178.55414 334.62261,178.41055 335.12518,178.41055 H 343.18415 V 179.7208 H 335.40338 Q 334.8739,179.72978 334.54184,179.87337 334.20082,180.00798 333.92261,180.18747 333.64441,180.36696 333.30338,180.50157 332.95338,180.63619 332.39697,180.63619 331.7239,180.63619 331.25723,180.36696 330.78159,180.09773 330.41364,179.74773 330.04569,179.38875 329.70466,179.11952 329.36364,178.84132 328.95082,178.84132 328.39441,178.84132 327.96364,179.28106 327.5239,179.7208 327.1739,180.36696 Z"
         style="font-size:17.5px"
         id="path1004" />
      <path
         d="M 351.4854,174.8926 V 178.47337 H 355.01232 V 179.73875 H 351.4854 V 183.2926 H 350.07642 V 179.73875 H 346.59437 V 178.47337 H 350.07642 V 174.8926 Z"
         style="font-size:17.5px"
         id="path1006" />
      <path
         d="M 358.42254,178.01568 V 176.70542 H 367.13665 V 178.01568 Z M 358.42254,181.42593 V 180.11568 H 367.13665 V 181.42593 Z"
         style="font-size:17.5px"
         id="path1008" />
      <path
         d="M 366.77767,181.42593 V 180.11568 H 372.68279 V 180.11568 L 373.64305,179.06568 372.68279,178.01568 V 178.01568 H 366.77767 V 176.70542 H 371.75844 Q 371.35459,176.48106 371.10331,176.24773 370.861,176.01439 370.65459,175.77209 L 369.53279,174.55157 370.64561,173.60029 375.52767,179.06568 370.64561,184.53106 369.53279,183.57978 370.65459,182.35927 Q 370.861,182.11696 371.10331,181.88362 371.35459,181.65029 371.75844,181.42593 Z"
         style="font-size:17.5px"
         id="path1010" />
    </g>
  </g>
</svg>
