<?xml version="1.0" encoding="UTF-8" standalone="no"?>
<!-- Created with Inkscape (http://www.inkscape.org/) -->

<svg
   xmlns:dc="http://purl.org/dc/elements/1.1/"
   xmlns:cc="http://creativecommons.org/ns#"
   xmlns:rdf="http://www.w3.org/1999/02/22-rdf-syntax-ns#"
   xmlns:svg="http://www.w3.org/2000/svg"
   xmlns="http://www.w3.org/2000/svg"
   xmlns:sodipodi="http://sodipodi.sourceforge.net/DTD/sodipodi-0.dtd"
   xmlns:inkscape="http://www.inkscape.org/namespaces/inkscape"
   width="87.6483mm"
   height="30.863169mm"
   viewBox="0 0 310.56484 109.35768"
   id="svg2"
   version="1.1"
   inkscape:version="0.91 r13725"
   sodipodi:docname="FiraCode Nerd Font.svg">
  <defs
     id="defs4" />
  <sodipodi:namedview
     id="base"
     pagecolor="#ffffff"
     bordercolor="#666666"
     borderopacity="1.0"
     inkscape:pageopacity="0.0"
     inkscape:pageshadow="2"
     inkscape:zoom="0.7"
     inkscape:cx="-55.787356"
     inkscape:cy="-401.01631"
     inkscape:document-units="px"
     inkscape:current-layer="layer1"
     showgrid="false"
     inkscape:window-width="1861"
     inkscape:window-height="1056"
     inkscape:window-x="59"
     inkscape:window-y="24"
     inkscape:window-maximized="1" />
  <metadata
     id="metadata7">
    <rdf:RDF>
      <cc:Work
         rdf:about="">
        <dc:format>image/svg+xml</dc:format>
        <dc:type
           rdf:resource="http://purl.org/dc/dcmitype/StillImage" />
        <dc:title />
      </cc:Work>
    </rdf:RDF>
  </metadata>
  <g
     inkscape:label="Layer 1"
     inkscape:groupmode="layer"
     id="layer1"
     transform="translate(-65.787352,-79.131068)">
    <g
       style="font-style:normal;font-weight:normal;font-size:27.5px;line-height:125%;font-family:'FiraCode Nerd Font';text-decoration: underline;text-decoration-line: underline;letter-spacing:0px;word-spacing:0px;fill:#ffffff;fill-opacity:1;stroke:none;stroke-width:1px;stroke-linecap:butt;stroke-linejoin:miter;stroke-opacity:1"
       id="text4136">
      <path
         d="m 69.189195,83.516965 8.715384,0 0.296154,-2.002564 -11.437179,0 0,19.419229 2.425641,0 0,-8.64487 7.615384,0 0,-1.974359 -7.615384,0 0,-6.797436 z"
         id="path4140"
         inkscape:connector-curvature="0" />
      <path
         d="m 88.237627,79.131068 c -1.001282,0 -1.70641,0.719231 -1.70641,1.65 0,0.958974 0.705128,1.692307 1.70641,1.692307 1.057692,0 1.734616,-0.733333 1.734616,-1.692307 0,-0.930769 -0.676924,-1.65 -1.734616,-1.65 z m 1.889744,6.952564 -6.811539,0 0,1.875641 4.442308,0 0,11.098718 -4.583333,0 0,1.875639 11.141025,0 0,-1.875639 -4.188461,0 0,-12.974359 z"
         id="path4142"
         inkscape:connector-curvature="0" />
      <path
         d="m 109.55657,85.759273 c -2.69359,0 -4.18846,1.396154 -5.33077,3.835897 l -0.43718,-3.511538 -4.117945,0 0,1.819231 2.312825,0 0,11.211538 -2.312825,0 0,1.819229 7.700005,0 0,-1.819229 -3.01795,0 0,-6.289743 c 0.98718,-3.271795 2.59487,-4.879488 4.89359,-4.879488 l 0.12692,0 0,3.158975 1.94615,0 0.33846,-5.020513 c -0.67692,-0.197436 -1.26923,-0.324359 -2.10128,-0.324359 z"
         id="path4144"
         inkscape:connector-curvature="0" />
      <path
         d="m 127.08193,97.690042 0,-7.121795 c 0,-2.933333 -1.86154,-4.794872 -5.55641,-4.794872 -1.43846,0 -3.04616,0.253847 -4.85128,0.93077 l 0.62051,1.791025 c 1.53718,-0.535897 2.87692,-0.761538 3.8641,-0.761538 2.2141,0 3.53974,0.803846 3.53974,2.947436 l 0,1.241025 -2.18589,0 c -4.51282,0 -6.96667,1.692308 -6.96667,4.752565 0,2.764102 1.81923,4.583332 4.79487,4.583332 1.91795,0 3.59616,-0.70513 4.65385,-2.087179 0.42308,1.325639 1.43846,1.917949 2.72179,2.087179 l 0.57821,-1.664102 c -0.83205,-0.253846 -1.21282,-0.705128 -1.21282,-1.903846 z m -6.13462,1.762821 c -1.93205,0 -2.86282,-0.958975 -2.86282,-2.806411 0,-1.903846 1.19872,-3.116666 4.47051,-3.116666 l 2.14359,0 0,3.821795 c -0.88846,1.325641 -2.28461,2.101282 -3.75128,2.101282 z"
         id="path4146"
         inkscape:connector-curvature="0" />
      <path
         d="m 140.63036,81.204145 c -4.49872,0 -8.30641,3.46923 -8.30641,10.01282 0,6.515385 3.66667,10.041025 8.40513,10.041025 2.7641,0 4.62564,-0.95897 5.81025,-2.115384 l -1.26923,-1.607692 c -1.02948,0.846154 -2.34102,1.621795 -4.51282,1.621795 -3.3,0 -5.89487,-2.157692 -5.89487,-7.939744 0,-5.937179 2.7641,-7.967948 5.95128,-7.967948 1.48077,0 2.84872,0.408974 4.07564,1.438461 l 1.36795,-1.59359 c -1.53718,-1.241025 -3.08846,-1.889743 -5.62692,-1.889743 z"
         id="path4148"
         inkscape:connector-curvature="0" />
      <path
         d="m 155.94161,85.773375 c -4.18846,0 -6.41666,3.173077 -6.41666,7.756411 0,4.667948 2.2,7.728204 6.38846,7.728204 4.16025,0 6.38846,-3.215384 6.38846,-7.756409 0,-4.710257 -2.17179,-7.728206 -6.36026,-7.728206 z m 0,1.932052 c 2.52436,0 3.8218,1.847436 3.8218,5.796154 0,3.948718 -1.29744,5.810256 -3.85,5.810256 -2.55257,0 -3.85,-1.861538 -3.85,-5.782051 0,-3.976923 1.32564,-5.824359 3.8782,-5.824359 z"
         id="path4150"
         inkscape:connector-curvature="0" />
      <path
         d="m 176.09005,79.807991 0,7.714102 c -0.98718,-1.15641 -2.27052,-1.748718 -3.97693,-1.748718 -3.66666,0 -5.82436,3.285898 -5.82436,7.756411 0,4.597436 1.77693,7.728204 5.65513,7.728204 1.6359,0 3.10257,-0.70513 4.21667,-2.284615 l 0.22564,1.960255 2.07308,0 0,-20.829485 -2.36923,-0.296154 z m -3.35641,7.869231 c 1.36794,0 2.55256,0.705128 3.35641,1.903846 l 0,7.417949 c -0.80385,1.21282 -1.97436,2.341025 -3.65257,2.341025 -2.32692,0 -3.56795,-1.960256 -3.56795,-5.810256 0,-3.920513 1.38205,-5.852564 3.86411,-5.852564 z"
         id="path4152"
         inkscape:connector-curvature="0" />
      <path
         d="m 185.98591,94.347734 9.98462,0 c 0.0282,-0.324359 0.0564,-0.789743 0.0564,-1.297435 0,-4.512821 -2.28462,-7.276924 -6.0359,-7.276924 -3.94872,0 -6.48718,3.257693 -6.48718,7.756411 0,4.611538 2.45385,7.728204 6.79744,7.728204 1.84743,0 3.72308,-0.66282 5.10513,-1.748717 l -1.11411,-1.565385 c -1.31153,0.888462 -2.45384,1.339744 -3.96282,1.339744 -2.29871,0 -4.21666,-1.494872 -4.34359,-4.935898 z m 4.03334,-6.628205 c 2.2282,0 3.66666,1.621795 3.72307,4.794872 l -7.7423,0 c 0.19743,-3.271795 1.80513,-4.794872 4.01923,-4.794872 z"
         id="path4154"
         inkscape:connector-curvature="0" />
      <path
         d="m 226.26868,100.93363 3.42692,0 0,-19.419229 -2.27051,0 0,9.716667 c 0,3.497436 0.29615,6.628205 0.32436,7.432051 l -6.95257,-17.148718 -3.3141,0 0,19.419229 2.27051,0 0,-9.730767 c 0,-3.003846 -0.29615,-6.501282 -0.32436,-7.347436 l 6.83975,17.078203 z"
         id="path4156"
         inkscape:connector-curvature="0" />
      <path
         d="m 236.74275,94.347734 9.98462,0 c 0.0282,-0.324359 0.0564,-0.789743 0.0564,-1.297435 0,-4.512821 -2.28462,-7.276924 -6.0359,-7.276924 -3.94872,0 -6.48718,3.257693 -6.48718,7.756411 0,4.611538 2.45385,7.728204 6.79743,7.728204 1.84744,0 3.72308,-0.66282 5.10513,-1.748717 l -1.1141,-1.565385 c -1.31154,0.888462 -2.45385,1.339744 -3.96282,1.339744 -2.29872,0 -4.21667,-1.494872 -4.34359,-4.935898 z m 4.03333,-6.628205 c 2.22821,0 3.66667,1.621795 3.72308,4.794872 l -7.74231,0 c 0.19744,-3.271795 1.80513,-4.794872 4.01923,-4.794872 z"
         id="path4158"
         inkscape:connector-curvature="0" />
      <path
         d="m 261.82708,85.759273 c -2.69359,0 -4.18846,1.396154 -5.33077,3.835897 l -0.43718,-3.511538 -4.11795,0 0,1.819231 2.31282,0 0,11.211538 -2.31282,0 0,1.819229 7.7,0 0,-1.819229 -3.01795,0 0,-6.289743 c 0.98718,-3.271795 2.59488,-4.879488 4.89359,-4.879488 l 0.12693,0 0,3.158975 1.94615,0 0.33846,-5.020513 c -0.67692,-0.197436 -1.26923,-0.324359 -2.10128,-0.324359 z"
         id="path4160"
         inkscape:connector-curvature="0" />
      <path
         d="m 277.60372,79.807991 0,7.714102 c -0.98718,-1.15641 -2.27051,-1.748718 -3.97693,-1.748718 -3.66666,0 -5.82435,3.285898 -5.82435,7.756411 0,4.597436 1.77692,7.728204 5.65512,7.728204 1.6359,0 3.10257,-0.70513 4.21667,-2.284615 l 0.22564,1.960255 2.07308,0 0,-20.829485 -2.36923,-0.296154 z m -3.35641,7.869231 c 1.36795,0 2.55256,0.705128 3.35641,1.903846 l 0,7.417949 c -0.80385,1.21282 -1.97436,2.341025 -3.65257,2.341025 -2.32692,0 -3.56794,-1.960256 -3.56794,-5.810256 0,-3.920513 1.38205,-5.852564 3.8641,-5.852564 z"
         id="path4162"
         inkscape:connector-curvature="0" />
      <path
         d="m 306.05443,83.516965 8.71538,0 0.29616,-2.002564 -11.43718,0 0,19.419229 2.42564,0 0,-8.64487 7.61538,0 0,-1.974359 -7.61538,0 0,-6.797436 z"
         id="path4164"
         inkscape:connector-curvature="0" />
      <path
         d="m 325.13107,85.773375 c -4.18846,0 -6.41667,3.173077 -6.41667,7.756411 0,4.667948 2.2,7.728204 6.38846,7.728204 4.16026,0 6.38846,-3.215384 6.38846,-7.756409 0,-4.710257 -2.17179,-7.728206 -6.36025,-7.728206 z m 0,1.932052 c 2.52436,0 3.82179,1.847436 3.82179,5.796154 0,3.948718 -1.29743,5.810256 -3.85,5.810256 -2.55256,0 -3.85,-1.861538 -3.85,-5.782051 0,-3.976923 1.32564,-5.824359 3.87821,-5.824359 z"
         id="path4166"
         inkscape:connector-curvature="0" />
      <path
         d="m 336.39488,100.93363 2.36923,0 0,-10.816665 c 0.77565,-1.15641 2.25641,-2.482051 4.00513,-2.482051 2.24231,0 2.53846,1.226923 2.53846,4.258974 l 0,9.039742 2.36924,0 0,-10.78846 c 0,-2.735897 -1.25513,-4.371795 -4.17436,-4.371795 -1.72052,0 -3.69488,0.846154 -4.9077,2.369231 l -0.18333,-2.058974 -2.01667,0 0,14.849998 z"
         id="path4168"
         inkscape:connector-curvature="0" />
      <path
         d="m 365.10357,100.1862 -0.91666,-1.607696 c -0.80385,0.423077 -1.73462,0.705128 -2.84872,0.705128 -2.03077,0 -2.83462,-0.888462 -2.83462,-2.538462 l 0,-8.828205 4.85128,0 0.28206,-1.833333 -5.13334,0 0,-3.652564 -2.36923,0.282051 0,3.370513 -3.41282,0 0,1.833333 3.41282,0 0,8.85641 c 0,2.623077 1.80513,4.484615 4.99231,4.484615 1.38205,0 2.96154,-0.40897 3.97692,-1.07179 z"
         id="path4170"
         inkscape:connector-curvature="0" />
    </g>
    <g
       style="font-style:normal;font-weight:normal;font-size:27.5px;line-height:125%;font-family:'FiraCode Nerd Font';letter-spacing:0px;word-spacing:0px;fill:#ffffff;fill-opacity:1;stroke:none;stroke-width:1px;stroke-linecap:butt;stroke-linejoin:miter;stroke-opacity:1"
       id="text4140">
      <path
         d="m 73.989916,138.86952 0,-4.53205 c 0,-1.86667 -1.184615,-3.05128 -3.535898,-3.05128 -0.915384,0 -1.938461,0.16154 -3.087179,0.59231 l 0.394872,1.13974 c 0.978205,-0.34103 1.830769,-0.48462 2.458974,-0.48462 1.408974,0 2.252564,0.51154 2.252564,1.87565 l 0,0.78974 -1.391025,0 c -2.871795,0 -4.433334,1.07692 -4.433334,3.02436 0,1.75897 1.157693,2.91666 3.051282,2.91666 1.220513,0 2.288462,-0.44871 2.961539,-1.3282 0.269231,0.84359 0.915384,1.22051 1.732051,1.3282 l 0.367949,-1.05897 c -0.529487,-0.16154 -0.771795,-0.44872 -0.771795,-1.21154 z m -3.903846,1.1218 c -1.229487,0 -1.821795,-0.61026 -1.821795,-1.7859 0,-1.21154 0.76282,-1.98333 2.844872,-1.98333 l 1.364102,0 0,2.43205 c -0.565384,0.84359 -1.453846,1.33718 -2.387179,1.33718 z"
         style="font-size:17.5px"
         id="path4173"
         inkscape:connector-curvature="0" />
      <path
         d="m 79.497543,132.71311 0,-5.22308 -1.507692,0.18847 0,13.25512 1.319231,0 0.107692,-0.9782 c 0.637179,0.80769 1.480769,1.18461 2.575641,1.18461 2.441026,0 3.742308,-2.07307 3.742308,-4.93589 0,-2.96154 -1.014103,-4.91795 -3.544872,-4.91795 -1.085898,0 -2.001282,0.52051 -2.692308,1.42692 z m 2.135898,7.20641 c -0.861539,0 -1.642308,-0.46666 -2.135898,-1.22051 l 0,-4.68462 c 0.511539,-0.76282 1.310257,-1.51666 2.369231,-1.51666 1.453846,0 2.225641,1.22948 2.225641,3.69743 0,2.5218 -0.879487,3.72436 -2.458974,3.72436 z"
         style="font-size:17.5px"
         id="path4175"
         inkscape:connector-curvature="0" />
      <path
         d="m 93.028247,139.83875 c -1.624359,0 -2.8,-1.06795 -2.8,-3.58974 0,-2.49487 1.166667,-3.70641 2.8,-3.70641 0.825641,0 1.633334,0.28718 2.441026,0.84359 l 0.735897,-1.00513 c -0.897436,-0.72692 -1.947436,-1.09487 -3.158974,-1.09487 -2.835897,0 -4.451282,2.12692 -4.451282,4.96282 0,2.96154 1.60641,4.89102 4.433333,4.89102 1.112821,0 2.369231,-0.43974 3.194872,-1.13974 l -0.735897,-0.98718 c -0.7,0.48462 -1.507693,0.82564 -2.458975,0.82564 z"
         style="font-size:17.5px"
         id="path4177"
         inkscape:connector-curvature="0" />
      <path
         d="m 105.1769,127.49003 0,4.90898 c -0.62821,-0.7359 -1.44487,-1.11282 -2.53077,-1.11282 -2.33333,0 -3.706409,2.09102 -3.706409,4.9359 0,2.92564 1.130769,4.91794 3.598719,4.91794 1.04102,0 1.97436,-0.44871 2.68333,-1.45384 l 0.14359,1.24743 1.31923,0 0,-13.25512 -1.50769,-0.18847 z m -2.1359,5.0077 c 0.87052,0 1.62436,0.44871 2.1359,1.21154 l 0,4.72051 c -0.51154,0.77179 -1.25641,1.48974 -2.32436,1.48974 -1.48077,0 -2.27051,-1.24743 -2.27051,-3.69743 0,-2.49488 0.87949,-3.72436 2.45897,-3.72436 z"
         style="font-size:17.5px"
         id="path4179"
         inkscape:connector-curvature="0" />
      <path
         d="m 111.47427,136.7426 6.35385,0 c 0.0179,-0.20641 0.0359,-0.50257 0.0359,-0.82564 0,-2.8718 -1.45384,-4.63077 -3.84102,-4.63077 -2.51282,0 -4.12821,2.07308 -4.12821,4.9359 0,2.93461 1.56154,4.91794 4.32564,4.91794 1.17565,0 2.36924,-0.42179 3.24872,-1.11282 l -0.70897,-0.99615 c -0.83462,0.56538 -1.56154,0.85256 -2.5218,0.85256 -1.46282,0 -2.68333,-0.95128 -2.7641,-3.14102 z m 2.56667,-4.21795 c 1.41795,0 2.33333,1.03205 2.36923,3.05128 l -4.92692,0 c 0.12564,-2.08205 1.14871,-3.05128 2.55769,-3.05128 z"
         style="font-size:17.5px"
         id="path4181"
         inkscape:connector-curvature="0" />
      <path
         d="m 126.63831,127.49003 c -1.96539,0 -3.44616,1.09488 -3.44616,2.84488 l 0,1.88461 -2.25256,0 0,1.18462 2.25256,0 0,7.52948 1.5077,0 0,-7.52948 3.0423,0 0.16154,-1.18462 -3.20384,0 0,-1.92051 c 0,-1.05898 0.6641,-1.57051 1.98333,-1.57051 0.72692,0 1.42692,0.12564 2.02821,0.39487 l 0.48461,-1.1218 c -0.74487,-0.32307 -1.54359,-0.51154 -2.55769,-0.51154 z"
         style="font-size:17.5px"
         id="path4183"
         inkscape:connector-curvature="0" />
      <path
         d="m 139.50491,130.4785 c -1.11282,0.48461 -1.92051,0.78974 -4.30769,0.79871 -2.22564,0 -3.76923,1.37308 -3.76923,3.28462 0,1.21154 0.50256,2.03718 1.58846,2.61154 -0.68205,0.44872 -1.04103,1.04102 -1.04103,1.65128 0,0.93333 0.74487,1.77692 2.37821,1.77692 l 1.68718,0 c 1.22051,0 2.13589,0.4577 2.13589,1.35513 0,1.03205 -0.91538,1.55257 -2.99743,1.55257 -2.11795,0 -2.62051,-0.51154 -2.62051,-1.61539 l -1.36411,0 c 0,1.92051 0.97821,2.84487 3.99359,2.84487 2.8718,0 4.51411,-1.02307 4.51411,-2.88077 0,-1.45384 -1.4359,-2.56666 -3.33847,-2.56666 l -1.70512,0 c -0.97821,0 -1.26539,-0.34103 -1.26539,-0.78975 0,-0.35897 0.20641,-0.71795 0.49359,-0.91538 0.39487,0.12564 0.7718,0.17949 1.40898,0.17949 2.23461,0 3.55384,-1.34616 3.55384,-3.21282 0,-1.07693 -0.54743,-1.87565 -1.64231,-2.37821 1.05898,0 1.95641,-0.0269 2.76411,-0.27821 l -0.46667,-1.41794 z m -4.30769,1.90256 c 1.38205,0 2.09102,0.74487 2.09102,2.1718 0,1.39102 -0.72692,2.20769 -2.05512,2.20769 -1.54359,0 -2.26154,-0.91539 -2.26154,-2.19872 0,-1.26539 0.7,-2.18077 2.22564,-2.18077 z"
         style="font-size:17.5px"
         id="path4185"
         inkscape:connector-curvature="0" />
      <path
         d="m 144.09715,127.53491 -1.50769,0.16153 0,13.23718 1.50769,0 0,-6.88333 c 0.49359,-0.74487 1.45385,-1.57949 2.53077,-1.57949 1.1218,0 1.63334,0.50257 1.63334,1.63334 l 0,6.82948 1.50769,0 0,-6.86538 c 0,-1.74103 -0.80769,-2.78205 -2.65641,-2.78205 -1.11282,0 -2.27052,0.50256 -3.01539,1.48974 l 0,-5.24102 z"
         style="font-size:17.5px"
         id="path4187"
         inkscape:connector-curvature="0" />
      <path
         d="m 156.93683,127.05927 c -0.63718,0 -1.0859,0.45769 -1.0859,1.05 0,0.61025 0.44872,1.07692 1.0859,1.07692 0.67308,0 1.10385,-0.46667 1.10385,-1.07692 0,-0.59231 -0.43077,-1.05 -1.10385,-1.05 z m 1.20257,4.42435 -4.33462,0 0,1.19359 2.82692,0 0,7.06282 -2.91666,0 0,1.19359 7.08974,0 0,-1.19359 -2.66538,0 0,-8.25641 z"
         style="font-size:17.5px"
         id="path4189"
         inkscape:connector-curvature="0" />
      <path
         d="m 168.89702,127.05927 c -0.64615,0 -1.07692,0.45769 -1.07692,1.05 0,0.61025 0.43077,1.07692 1.07692,1.07692 0.6641,0 1.11282,-0.46667 1.11282,-1.07692 0,-0.59231 -0.44872,-1.05 -1.11282,-1.05 z m 1.40898,4.42435 -5.43846,0 0,1.19359 3.93076,0 0,6.83847 c 0,2.53974 -1.96538,3.58974 -4.76538,4.05641 l 0.25128,1.16666 c 3.80513,-0.63718 6.0218,-2.16282 6.0218,-5.32179 l 0,-7.93334 z"
         style="font-size:17.5px"
         id="path4191"
         inkscape:connector-curvature="0" />
      <path
         d="m 176.49568,127.49003 -1.5077,0.18847 0,13.25512 1.5077,0 0,-13.44359 z m 6.30897,3.99359 -1.95641,0 -4.18205,4.28975 4.64872,5.16025 1.98333,0 -4.74744,-5.19615 4.25385,-4.25385 z"
         style="font-size:17.5px"
         id="path4193"
         inkscape:connector-curvature="0" />
      <path
         d="m 189.33535,127.6785 -4.40641,0 0,1.19359 2.89872,0 0,9.64743 c 0,1.64231 1.13974,2.62051 2.81795,2.62051 0.95128,0 1.73205,-0.23333 2.24359,-0.48461 l -0.40385,-1.10385 c -0.51153,0.20641 -1.02307,0.33205 -1.58846,0.33205 -0.91538,0 -1.56154,-0.35 -1.56154,-1.28333 l 0,-10.92179 z"
         style="font-size:17.5px"
         id="path4195"
         inkscape:connector-curvature="0" />
      <path
         d="m 202.65067,131.28619 c -0.96923,0 -1.57051,0.50256 -2.08205,1.24743 -0.29615,-0.9782 -0.99615,-1.24743 -1.7141,-1.24743 -0.94231,0 -1.54359,0.56538 -2.05513,1.29231 l -0.0897,-1.09488 -1.18462,0 0,9.45 1.39103,0 0,-7.34102 c 0.52051,-0.80769 1.06795,-1.13077 1.65128,-1.13077 0.68205,0 0.72692,0.49359 0.72692,1.6782 l 0,6.79359 1.40898,0 0,-7.34102 c 0.52051,-0.80769 1.08589,-1.13077 1.65128,-1.13077 0.68205,0 0.72692,0.49359 0.72692,1.6782 l 0,6.79359 1.4,0 0,-7.03589 c 0,-2.18077 -0.93333,-2.61154 -1.83077,-2.61154 z"
         style="font-size:17.5px"
         id="path4197"
         inkscape:connector-curvature="0" />
      <path
         d="m 207.18907,140.93362 1.50769,0 0,-6.88333 c 0.49359,-0.7359 1.4359,-1.57949 2.54872,-1.57949 1.42692,0 1.61538,0.78077 1.61538,2.71026 l 0,5.75256 1.5077,0 0,-6.86538 c 0,-1.74103 -0.79872,-2.78205 -2.65641,-2.78205 -1.09488,0 -2.35129,0.53846 -3.12308,1.50769 l -0.11667,-1.31026 -1.28333,0 0,9.45 z"
         style="font-size:17.5px"
         id="path4199"
         inkscape:connector-curvature="0" />
      <path
         d="m 221.55439,131.28619 c -2.66539,0 -4.08333,2.01923 -4.08333,4.9359 0,2.97051 1.4,4.91794 4.06538,4.91794 2.64744,0 4.06538,-2.04615 4.06538,-4.93589 0,-2.99744 -1.38205,-4.91795 -4.04743,-4.91795 z m 0,1.22949 c 1.60641,0 2.43205,1.17564 2.43205,3.68846 0,2.51282 -0.82564,3.69743 -2.45,3.69743 -1.62436,0 -2.45,-1.18461 -2.45,-3.67948 0,-2.53077 0.84359,-3.70641 2.46795,-3.70641 z"
         style="font-size:17.5px"
         id="path4201"
         inkscape:connector-curvature="0" />
      <path
         d="m 232.9492,131.28619 c -1.13975,0 -2.12693,0.54743 -2.81795,1.51667 l -0.12564,-1.31924 -1.28334,0 0,13.25513 1.50769,-0.18846 0,-4.50513 c 0.62821,0.7359 1.46283,1.09487 2.49488,1.09487 2.45897,0 3.64359,-2.07307 3.64359,-4.93589 0,-2.96154 -0.89744,-4.91795 -3.41923,-4.91795 z m -0.35898,1.21154 c 1.48077,0 2.16282,1.22948 2.16282,3.69743 0,2.5218 -0.78974,3.68846 -2.36025,3.68846 -0.89744,0 -1.66924,-0.44871 -2.16283,-1.18461 l 0,-4.68462 c 0.51154,-0.76282 1.31026,-1.51666 2.36026,-1.51666 z"
         style="font-size:17.5px"
         id="path4203"
         inkscape:connector-curvature="0" />
      <path
         d="m 242.60298,131.28619 c -2.34231,0 -3.59872,2.09102 -3.59872,4.9359 0,2.96153 0.93333,4.91794 3.48205,4.91794 1.02308,0 1.96538,-0.43076 2.65641,-1.4 l 0,4.81026 1.50769,0.18846 0,-13.25513 -1.28333,0 -0.12564,1.03206 c -0.63718,-0.79872 -1.49872,-1.22949 -2.63846,-1.22949 z m 0.37692,1.21154 c 0.88846,0 1.66923,0.44871 2.16282,1.21154 l 0,4.72051 c -0.51154,0.77179 -1.29231,1.45384 -2.34231,1.45384 -1.46282,0 -2.18077,-1.21153 -2.18077,-3.66153 0,-2.49488 0.78975,-3.72436 2.36026,-3.72436 z"
         style="font-size:17.5px"
         id="path4205"
         inkscape:connector-curvature="0" />
      <path
         d="m 256.63625,131.27721 c -1.71411,0 -2.66539,0.88847 -3.39231,2.44103 l -0.27821,-2.23462 -2.62051,0 0,1.1577 1.47179,0 0,7.13461 -1.47179,0 0,1.15769 4.9,0 0,-1.15769 -1.92051,0 0,-4.00256 c 0.6282,-2.08205 1.65128,-3.10513 3.1141,-3.10513 l 0.0808,0 0,2.01026 1.23846,0 0.21538,-3.19488 c -0.43076,-0.12564 -0.80769,-0.20641 -1.33717,-0.20641 z"
         style="font-size:17.5px"
         id="path4207"
         inkscape:connector-curvature="0" />
      <path
         d="m 264.2349,139.8926 c -1.11282,0 -2.1,-0.40385 -2.8359,-1.02308 l -0.86154,0.99616 c 0.80769,0.7 1.99231,1.27435 3.69744,1.27435 2.01923,0 3.98461,-0.79871 3.98461,-2.81794 0,-1.76795 -1.22051,-2.41411 -3.06923,-2.91667 -1.91154,-0.52051 -2.51282,-0.81667 -2.51282,-1.66026 0,-0.72692 0.55641,-1.23846 2.04616,-1.23846 1.22051,0 2.03718,0.35898 2.74615,0.84359 l 0.6641,-1.02308 c -0.78974,-0.58333 -1.91154,-1.04102 -3.4282,-1.04102 -2.1359,0 -3.58975,0.98718 -3.58975,2.57564 0,1.64231 1.25641,2.23461 3.2218,2.71923 2.00128,0.50256 2.28846,0.96026 2.28846,1.81282 0,0.91539 -0.89744,1.49872 -2.35128,1.49872 z"
         style="font-size:17.5px"
         id="path4209"
         inkscape:connector-curvature="0" />
      <path
         d="m 279.29124,140.45798 -0.58333,-1.02307 c -0.51154,0.26923 -1.10385,0.44871 -1.81282,0.44871 -1.29231,0 -1.80385,-0.56538 -1.80385,-1.61538 l 0,-5.61795 3.08718,0 0.17949,-1.16667 -3.26667,0 0,-2.32435 -1.50769,0.17948 0,2.14487 -2.17179,0 0,1.16667 2.17179,0 0,5.6359 c 0,1.66923 1.14872,2.85384 3.17692,2.85384 0.87949,0 1.88462,-0.26025 2.53077,-0.68205 z"
         style="font-size:17.5px"
         id="path4211"
         inkscape:connector-curvature="0" />
      <path
         d="m 284.06297,131.48362 -1.50769,0 0,6.87436 c 0,1.75 0.89744,2.78205 2.72821,2.78205 1.10384,0 2.27948,-0.52051 3.02435,-1.48076 l 0.12565,1.27435 1.28333,0 0,-9.45 -1.50769,0 0,6.95513 c -0.51154,0.80769 -1.52564,1.49872 -2.5577,1.49872 -1.09487,0 -1.58846,-0.52051 -1.58846,-1.75897 l 0,-6.69488 z"
         style="font-size:17.5px"
         id="path4213"
         inkscape:connector-curvature="0" />
      <path
         d="m 301.20137,131.48362 -1.56154,0 -2.70128,8.07693 -2.73718,-8.07693 -1.59744,0 3.41026,9.45 1.75,0 3.43718,-9.45 z"
         style="font-size:17.5px"
         id="path4215"
         inkscape:connector-curvature="0" />
      <path
         d="m 311.08848,140.93362 1.65129,-9.45 -1.4718,0 -1.20256,8.51667 -1.42693,-7.3141 -1.78589,0 -1.5077,7.3141 -1.20256,-8.51667 -1.54359,0 1.72308,9.45 2.08205,0 1.3282,-6.93718 1.22052,6.93718 2.13589,0 z"
         style="font-size:17.5px"
         id="path4217"
         inkscape:connector-curvature="0" />
      <path
         d="m 315.77047,140.93362 2.62051,-4.05641 2.58462,4.05641 1.84872,0 -3.48206,-5.05256 3.05129,-4.39744 -1.72308,0 -2.21667,3.51795 -2.18974,-3.51795 -1.7859,0 3.06026,4.46026 -3.49103,4.98974 1.72308,0 z"
         style="font-size:17.5px"
         id="path4219"
         inkscape:connector-curvature="0" />
      <path
         d="m 333.48323,131.48362 -1.56154,0 -2.67436,8.30129 -2.71026,-8.30129 -1.61538,0 3.30256,9.45 0.50256,0 c -0.50256,1.46282 -1.05897,2.26154 -3.01538,2.59359 l 0.23333,1.20257 c 2.50385,-0.25128 3.55385,-1.81282 4.21795,-3.73334 l 3.32052,-9.51282 z"
         style="font-size:17.5px"
         id="path4221"
         inkscape:connector-curvature="0" />
      <path
         d="m 338.2729,139.65029 5.20513,-7 0,-1.16667 -6.64102,0 0,1.31026 4.8282,0 -5.24102,7 0,1.13974 6.91025,0 0.19744,-1.28333 -5.25898,0 z"
         style="font-size:17.5px"
         id="path4223"
         inkscape:connector-curvature="0" />
      <path
         d="m 73.200172,159.65862 0.98718,3.15 1.633333,0 -4.020513,-12.35769 -1.992307,0 -4.020513,12.35769 1.534615,0 0.98718,-3.15 4.891025,0 z m -4.487179,-1.2923 2.055128,-6.60513 2.028205,6.60513 -4.083333,0 z"
         style="font-size:17.5px"
         id="path4225"
         inkscape:connector-curvature="0" />
      <path
         d="m 85.869338,159.2817 c 0,-2.09102 -1.471795,-2.78205 -2.835897,-3.01538 1.184615,-0.26923 2.297435,-1.11282 2.297435,-2.70129 0,-2.42307 -2.207692,-3.1141 -4.370512,-3.1141 l -3.042308,0 0,12.35769 3.320513,0 c 2.270513,0 4.630769,-0.83461 4.630769,-3.52692 z m -2.135897,-5.6359 c 0,1.45385 -0.807693,2.06411 -2.270513,2.06411 l -1.992308,0 0,-4.00257 1.839744,0 c 1.489743,0 2.423077,0.53846 2.423077,1.93846 z m 0.493589,5.68975 c 0,1.83077 -1.507692,2.18974 -2.71923,2.18974 l -2.03718,0 0,-4.53205 2.108974,0 c 1.435898,0 2.647436,0.47564 2.647436,2.34231 z"
         style="font-size:17.5px"
         id="path4227"
         inkscape:connector-curvature="0" />
      <path
         d="m 93.378247,150.2535 c -2.86282,0 -5.285897,2.20769 -5.285897,6.37179 0,4.14615 2.333333,6.38974 5.348718,6.38974 1.758974,0 2.943589,-0.61025 3.697436,-1.34615 l -0.807693,-1.02308 c -0.655128,0.53847 -1.489743,1.03206 -2.871795,1.03206 -2.1,0 -3.751282,-1.37308 -3.751282,-5.05257 0,-3.7782 1.758975,-5.07051 3.78718,-5.07051 0.942308,0 1.81282,0.26025 2.59359,0.91538 l 0.870512,-1.0141 c -0.978205,-0.78974 -1.965384,-1.20256 -3.580769,-1.20256 z"
         style="font-size:17.5px"
         id="path4229"
         inkscape:connector-curvature="0" />
      <path
         d="m 107.63587,156.57144 c 0,-5.13333 -2.88974,-6.12051 -5.77948,-6.12051 l -2.638464,0 0,12.35769 2.835894,0 c 2.5577,0 5.58205,-1.05897 5.58205,-6.23718 z m -1.66025,0 c 0,4.09231 -1.95641,4.98975 -3.73334,4.98975 l -1.47179,0 0,-9.8359 1.45385,0 c 1.69615,0 3.75128,0.53846 3.75128,4.84615 z"
         style="font-size:17.5px"
         id="path4231"
         inkscape:connector-curvature="0" />
      <path
         d="m 112.29991,151.72529 5.27692,0 0.17949,-1.27436 -7.01795,0 0,12.35769 7.17949,0 0,-1.24743 -5.61795,0 0,-4.38846 4.57692,0 0,-1.28334 -4.57692,0 0,-4.1641 z"
         style="font-size:17.5px"
         id="path4233"
         inkscape:connector-curvature="0" />
      <path
         d="m 123.2819,151.72529 5.54615,0 0.18846,-1.27436 -7.2782,0 0,12.35769 1.54359,0 0,-5.50128 4.84615,0 0,-1.25641 -4.84615,0 0,-4.32564 z"
         style="font-size:17.5px"
         id="path4235"
         inkscape:connector-curvature="0" />
      <path
         d="m 135.64594,163.01503 c 1.75,0 2.92564,-0.46666 4.03846,-1.07692 l 0,-5.88718 -4.16411,0 0.18847,1.29231 2.43205,0 0,3.76923 c -0.71795,0.3859 -1.49872,0.59231 -2.35128,0.59231 -2.15385,0 -3.28462,-1.48975 -3.28462,-5.07949 0,-3.8141 1.72308,-5.07051 3.50897,-5.07051 1.01411,0 1.83077,0.32308 2.58462,1.03205 l 0.94231,-0.97821 c -0.96923,-0.88846 -1.92052,-1.35512 -3.5359,-1.35512 -2.65641,0 -5.16923,2.11794 -5.16923,6.37179 0,4.2718 1.88461,6.38974 4.81026,6.38974 z"
         style="font-size:17.5px"
         id="path4237"
         inkscape:connector-curvature="0" />
      <path
         d="m 148.50356,162.80862 1.55257,0 0,-12.35769 -1.55257,0 0,5.22308 -4.66666,0 0,-5.22308 -1.55257,0 0,12.35769 1.55257,0 0,-5.86025 4.66666,0 0,5.86025 z"
         style="font-size:17.5px"
         id="path4239"
         inkscape:connector-curvature="0" />
      <path
         d="m 160.47273,150.45093 -7.0718,0 0,1.24744 2.74616,0 0,9.86282 -2.74616,0 0,1.24743 7.0718,0 0,-1.24743 -2.74616,0 0,-9.86282 2.74616,0 0,-1.24744 z"
         style="font-size:17.5px"
         id="path4241"
         inkscape:connector-curvature="0" />
      <path
         d="m 171.23036,150.45093 -5.21411,0 0,1.27436 3.66154,0 0,6.89231 c 0,1.92051 -0.96923,3.09615 -2.68333,3.09615 -0.7359,0 -1.61539,-0.17051 -2.68334,-0.85256 l -0.69102,1.03205 c 0.9782,0.7359 2.17179,1.12179 3.39231,1.12179 3.25769,0 4.21795,-2.24359 4.21795,-4.30769 l 0,-8.25641 z"
         style="font-size:17.5px"
         id="path4243"
         inkscape:connector-curvature="0" />
      <path
         d="m 176.5226,162.80862 0,-12.35769 -1.55257,0 0,12.35769 1.55257,0 z m 0.0897,-6.59615 5.06154,6.59615 1.93846,0 -5.16923,-6.69487 4.82821,-5.66282 -1.79488,0 -4.8641,5.76154 z"
         style="font-size:17.5px"
         id="path4245"
         inkscape:connector-curvature="0" />
      <path
         d="m 186.28407,162.80862 7.01795,0 0.17949,-1.39102 -5.6359,0 0,-10.96667 -1.56154,0 0,12.35769 z"
         style="font-size:17.5px"
         id="path4247"
         inkscape:connector-curvature="0" />
      <path
         d="m 204.14042,150.45093 -2.18975,0 -1.91154,8.46282 -2.00128,-8.46282 -2.17179,0 -0.7,12.35769 1.46282,0 0.33205,-6.47051 c 0.0718,-1.54359 0.0449,-3.76923 0.018,-4.46025 l 2.23461,8.7141 1.56154,0 2.08205,-8.7141 c -0.009,0.70897 0,2.75512 0.0987,4.4782 l 0.3859,6.45256 1.49872,0 -0.7,-12.35769 z"
         style="font-size:17.5px"
         id="path4249"
         inkscape:connector-curvature="0" />
      <path
         d="m 212.47497,162.80862 2.18077,0 0,-12.35769 -1.44488,0 0,6.18334 c 0,2.22564 0.18847,4.21794 0.20641,4.72948 l -4.42435,-10.91282 -2.10898,0 0,12.35769 1.44487,0 0,-6.1923 c 0,-1.91154 -0.18846,-4.13718 -0.20641,-4.67564 l 4.35257,10.86794 z"
         style="font-size:17.5px"
         id="path4251"
         inkscape:connector-curvature="0" />
      <path
         d="m 226.08644,156.64324 c 0,-3.82308 -1.54359,-6.38974 -4.55,-6.38974 -3.00641,0 -4.55,2.65641 -4.55,6.40769 0,3.82308 1.54359,6.35384 4.55,6.35384 3.00641,0 4.55,-2.62051 4.55,-6.37179 z m -1.63333,0 c 0,3.29359 -0.83462,5.06154 -2.91667,5.06154 -2.0282,0 -2.91667,-1.75 -2.91667,-5.04359 0,-3.29359 0.83462,-5.10641 2.91667,-5.10641 2.08205,0 2.91667,1.79487 2.91667,5.08846 z"
         style="font-size:17.5px"
         id="path4253"
         inkscape:connector-curvature="0" />
      <path
         d="m 236.91586,154.24709 c 0,-2.59359 -1.82179,-3.79616 -4.76538,-3.79616 l -3.15898,0 0,12.35769 1.56154,0 0,-4.58589 1.57949,0 c 2.79102,0 4.78333,-1.0859 4.78333,-3.97564 z m -1.66923,0.0179 c 0,2.11795 -1.24743,2.70129 -2.97051,2.70129 l -1.72308,0 0,-5.27693 1.7859,0 c 1.6782,0 2.90769,0.66411 2.90769,2.57564 z"
         style="font-size:17.5px"
         id="path4255"
         inkscape:connector-curvature="0" />
      <path
         d="m 247.61964,156.64324 c 0,-3.82308 -1.55256,-6.38974 -4.55897,-6.38974 -2.99744,0 -4.55898,2.65641 -4.55898,6.40769 0,3.82308 1.54359,6.31795 4.38847,6.31795 2.12692,0 3.0423,1.02307 3.78718,2.93461 l 1.6423,-0.64615 c -0.60128,-1.80385 -1.52564,-2.59359 -3.25769,-2.93462 1.89359,-1.04102 2.55769,-3.06923 2.55769,-5.68974 z m -1.61538,0 c 0,3.29359 -0.86154,5.06154 -2.94359,5.06154 -2.02821,0 -2.94359,-1.75 -2.94359,-5.04359 0,-3.30257 0.86154,-5.10641 2.94359,-5.10641 2.08205,0 2.94359,1.7859 2.94359,5.08846 z"
         style="font-size:17.5px"
         id="path4257"
         inkscape:connector-curvature="0" />
      <path
         d="m 258.09907,153.91503 c 0,-2.27948 -1.59744,-3.4641 -4.64872,-3.4641 l -3.17693,0 0,12.35769 1.56154,0 0,-5.30384 1.66923,0 3.37436,5.30384 1.86667,0 -3.66154,-5.48333 c 1.69615,-0.41282 3.01539,-1.55256 3.01539,-3.41026 z m -1.66924,0 c 0,1.71411 -1.02307,2.36924 -2.8,2.36924 l -1.79487,0 0,-4.59488 1.79487,0 c 1.90257,0 2.8,0.64616 2.8,2.22564 z"
         style="font-size:17.5px"
         id="path4259"
         inkscape:connector-curvature="0" />
      <path
         d="m 268.84772,159.38939 c 0,-2.36923 -1.68718,-3.16795 -3.60769,-3.72436 -2.35129,-0.69102 -3.11411,-1.21153 -3.11411,-2.28846 0,-1.22948 1.1218,-1.82179 2.46795,-1.82179 1.05,0 2.1,0.34102 2.97949,1.12179 l 0.91538,-1.0141 c -1.03205,-0.90641 -2.24359,-1.40897 -3.94871,-1.40897 -2.36026,0 -4.00257,1.3282 -4.00257,3.17692 0,1.96538 1.54359,2.85385 3.98462,3.57179 2.12692,0.62821 2.71025,1.22052 2.71025,2.41411 0,1.55256 -1.37307,2.28846 -2.87179,2.28846 -1.50769,0 -2.58462,-0.50257 -3.43718,-1.31026 l -0.92436,1.04103 c 1.04103,1.00513 2.53077,1.57948 4.33462,1.57948 2.87179,0 4.5141,-1.49871 4.5141,-3.62564 z"
         style="font-size:17.5px"
         id="path4261"
         inkscape:connector-curvature="0" />
      <path
         d="m 276.11432,151.78811 3.75128,0 0.16154,-1.33718 -9.32436,0 0,1.33718 3.85898,0 0,11.02051 1.55256,0 0,-11.02051 z"
         style="font-size:17.5px"
         id="path4263"
         inkscape:connector-curvature="0" />
      <path
         d="m 290.21938,150.45093 -1.57051,0 0,8.40898 c 0,1.87564 -0.91538,2.80897 -2.53077,2.80897 -1.60641,0 -2.52179,-0.93333 -2.52179,-2.80897 l 0,-8.40898 -1.54359,0 0,8.35513 c 0,2.49487 1.52564,4.20897 4.06538,4.20897 2.50385,0 4.10128,-1.70512 4.10128,-4.20897 l 0,-8.35513 z"
         style="font-size:17.5px"
         id="path4265"
         inkscape:connector-curvature="0" />
      <path
         d="m 296.93855,161.04068 -3.30257,-10.58975 -1.6782,0 4.13718,12.35769 1.61538,0 4.13718,-12.35769 -1.57051,0 -3.33846,10.58975 z"
         style="font-size:17.5px"
         id="path4267"
         inkscape:connector-curvature="0" />
      <path
         d="m 312.9731,150.45093 -1.44487,0 -1.48077,10.64359 -1.40898,-9.20769 -1.91153,0 -1.48077,9.20769 -1.31923,-10.64359 -1.56154,0 1.74102,12.35769 2.09103,0 1.42692,-9.32435 1.41795,9.32435 2.04615,0 1.88462,-12.35769 z"
         style="font-size:17.5px"
         id="path4269"
         inkscape:connector-curvature="0" />
      <path
         d="m 313.9397,150.45093 3.54487,5.77051 -3.87692,6.58718 1.6782,0 3.11411,-5.58205 3.0782,5.58205 1.7859,0 -3.93077,-6.66794 3.50897,-5.68975 -1.68717,0 -2.71924,4.74744 -2.71025,-4.74744 -1.7859,0 z"
         style="font-size:17.5px"
         id="path4271"
         inkscape:connector-curvature="0" />
      <path
         d="m 329.9922,158.04324 4.17308,-7.59231 -1.61539,0 -3.31154,6.19231 -3.27564,-6.19231 -1.72307,0 4.17307,7.61026 0,4.74743 1.57949,0 0,-4.76538 z"
         style="font-size:17.5px"
         id="path4273"
         inkscape:connector-curvature="0" />
      <path
         d="m 337.58188,161.46247 6.48846,-9.73718 0,-1.27436 -7.55641,0 0,1.32821 5.88718,0 -6.53333,9.7641 0,1.26538 7.99615,0 0.18846,-1.34615 -6.47051,0 z"
         style="font-size:17.5px"
         id="path4275"
         inkscape:connector-curvature="0" />
      <path
         d="m 70.821967,175.03619 c -2.665384,0 -4.083333,2.01923 -4.083333,4.9359 0,2.97051 1.4,4.91794 4.065384,4.91794 2.647436,0 4.065385,-2.04615 4.065385,-4.93589 0,-2.99744 -1.382051,-4.91795 -4.047436,-4.91795 z m 0,1.22949 c 1.60641,0 2.432051,1.17564 2.432051,3.68846 0,2.51282 -0.825641,3.69743 -2.45,3.69743 -1.624359,0 -2.45,-1.18461 -2.45,-3.67948 0,-2.53077 0.84359,-3.70641 2.467949,-3.70641 z"
         style="font-size:17.5px"
         id="path4277"
         inkscape:connector-curvature="0" />
      <path
         d="m 86.12062,178.51824 c 0,-3.82308 -1.54359,-6.38974 -4.55,-6.38974 -3.00641,0 -4.55,2.65641 -4.55,6.40769 0,3.82308 1.54359,6.35384 4.55,6.35384 3.00641,0 4.55,-2.62051 4.55,-6.37179 z m -1.633333,0 c 0,3.29359 -0.834616,5.06154 -2.916667,5.06154 -2.028205,0 -2.916667,-1.75 -2.916667,-5.04359 0,-3.29359 0.834616,-5.10641 2.916667,-5.10641 2.082051,0 2.916667,1.79487 2.916667,5.08846 z"
         style="font-size:17.5px"
         id="path4279"
         inkscape:connector-curvature="0" />
      <path
         d="m 92.337222,172.1285 c -2.656411,0 -4.047436,2.27948 -4.047436,6.37179 0,4.11026 1.391025,6.38974 4.047436,6.38974 2.65641,0 4.047435,-2.27948 4.047435,-6.38974 0,-4.09231 -1.391025,-6.37179 -4.047435,-6.37179 z m 0,1.21153 c 0.708974,0 1.25641,0.24231 1.642307,0.79872 l -3.778205,7.59231 c -0.215384,-0.79872 -0.314102,-1.85769 -0.314102,-3.23077 0,-3.66154 0.933333,-5.16026 2.45,-5.16026 z m 0,10.32949 c -0.7,0 -1.229488,-0.24231 -1.624359,-0.78974 l 3.760256,-7.62821 c 0.224359,0.79872 0.323077,1.86667 0.323077,3.24872 0,3.66154 -0.924359,5.16923 -2.458974,5.16923 z"
         style="font-size:17.5px"
         id="path4281"
         inkscape:connector-curvature="0" />
      <path
         d="m 106.81023,175.26952 c 0,-2.18974 -1.91154,-3.14102 -3.70641,-3.14102 -1.62436,0 -3.706407,0.96025 -3.706407,3.22179 0,1.38205 0.664107,2.19872 1.974357,2.82692 -1.498716,0.69103 -2.476921,1.70513 -2.476921,3.2218 0,1.96538 1.525641,3.49102 4.173081,3.49102 2.61153,0 4.24487,-1.49871 4.24487,-3.51794 0,-1.52565 -1.04103,-2.65641 -2.64744,-3.32052 1.37308,-0.75384 2.14487,-1.57948 2.14487,-2.78205 z m -5.92307,0.0987 c 0,-1.31026 0.81666,-2.07308 2.21666,-2.07308 1.40898,0 2.21667,0.78975 2.21667,2.02821 0,1.13077 -0.57436,1.70513 -1.72308,2.35128 -1.6782,-0.53846 -2.71025,-0.87949 -2.71025,-2.30641 z m 4.83718,6.02179 c 0,1.30129 -0.94231,2.27949 -2.66539,2.27949 -1.70513,0 -2.57564,-0.86154 -2.57564,-2.26154 0,-1.56154 0.90641,-2.33333 1.92949,-2.8 1.94743,0.67308 3.31154,1.1218 3.31154,2.78205 z"
         style="font-size:17.5px"
         id="path4283"
         inkscape:connector-curvature="0" />
      <path
         d="m 124.63703,170.80927 c -0.63718,0 -1.0859,0.45769 -1.0859,1.05 0,0.61025 0.44872,1.07692 1.0859,1.07692 0.67307,0 1.10384,-0.46667 1.10384,-1.07692 0,-0.59231 -0.43077,-1.05 -1.10384,-1.05 z m 1.20256,4.42435 -4.33462,0 0,1.19359 2.82693,0 0,7.06282 -2.91667,0 0,1.19359 7.08974,0 0,-1.19359 -2.66538,0 0,-8.25641 z"
         style="font-size:17.5px"
         id="path4285"
         inkscape:connector-curvature="0" />
      <path
         d="m 138.93953,172.32593 -7.0718,0 0,1.24744 2.74615,0 0,9.86282 -2.74615,0 0,1.24743 7.0718,0 0,-1.24743 -2.74616,0 0,-9.86282 2.74616,0 0,-1.24744 z"
         style="font-size:17.5px"
         id="path4287"
         inkscape:connector-curvature="0" />
      <path
         d="m 146.26895,171.4285 -4.40641,0 0,1.19359 2.89872,0 0,9.64743 c 0,1.64231 1.13974,2.62051 2.81794,2.62051 0.95129,0 1.73206,-0.23333 2.24359,-0.48461 l -0.40384,-1.10385 c -0.51154,0.20641 -1.02308,0.33205 -1.58846,0.33205 -0.91539,0 -1.56154,-0.35 -1.56154,-1.28333 l 0,-10.92179 z"
         style="font-size:17.5px"
         id="path4289"
         inkscape:connector-curvature="0" />
      <path
         d="m 153.98427,184.68362 7.01795,0 0.17948,-1.39102 -5.63589,0 0,-10.96667 -1.56154,0 0,12.35769 z"
         style="font-size:17.5px"
         id="path4291"
         inkscape:connector-curvature="0" />
      <path
         d="m 169.02266,183.45414 0,-11.12821 -1.31923,0 -3.67948,2.27949 0.65512,1.07692 2.8359,-1.72307 0,9.49487 -3.04231,0 0,1.22948 7.13462,0 0,-1.22948 -2.58462,0 z"
         style="font-size:17.5px"
         id="path4293"
         inkscape:connector-curvature="0" />
      <path
         d="m 191.95587,169.68747 c -2.01923,0 -3.8859,0.59231 -3.64359,2.8 l 0.35897,3.42821 c 0.13462,1.22051 -0.30513,1.88461 -2.71026,1.88461 l 0,1.20257 c 2.40513,0 2.84488,0.68205 2.71026,1.90256 l -0.35897,3.41026 c -0.24231,2.20769 1.62436,2.8 3.64359,2.8 l 0,-1.18462 c -1.31923,0 -2.36923,-0.32308 -2.26154,-1.4359 l 0.37692,-3.67948 c 0.16154,-1.58847 -0.42179,-2.18975 -1.6782,-2.41411 1.22948,-0.22436 1.83077,-0.90641 1.6782,-2.4141 l -0.37692,-3.67949 c -0.10769,-1.09487 0.94231,-1.43589 2.26154,-1.43589 l 0,-1.18462 z"
         style="font-size:17.5px"
         id="path4295"
         inkscape:connector-curvature="0" />
      <path
         d="m 197.28401,169.68747 0,1.18462 c 1.31923,0 2.36923,0.34102 2.26153,1.43589 l -0.37692,3.67949 c -0.15256,1.50769 0.45769,2.18974 1.87564,2.43205 -1.46282,0.20641 -2.03718,0.79872 -1.87564,2.39616 l 0.37692,3.67948 c 0.1077,1.11282 -0.9423,1.4359 -2.26153,1.4359 l 0,1.18462 c 2.01923,0 3.88589,-0.59231 3.64359,-2.8 l -0.35898,-3.41026 c -0.13461,-1.22051 0.50257,-1.90256 2.71026,-1.90256 l 0,-1.20257 c -2.20769,0 -2.84487,-0.6641 -2.71026,-1.88461 l 0.35898,-3.42821 c 0.2423,-2.20769 -1.62436,-2.8 -3.64359,-2.8 z"
         style="font-size:17.5px"
         id="path4297"
         inkscape:connector-curvature="0" />
      <path
         d="m 219.45439,186.7567 4.49615,0 0,-1.28333 -3.06923,0 0,-14.12564 3.06923,0 0,-1.30129 -4.49615,0 0,16.71026 z"
         style="font-size:17.5px"
         id="path4299"
         inkscape:connector-curvature="0" />
      <path
         d="m 234.38509,170.04644 -4.49615,0 0,1.30129 3.06923,0 0,14.13461 -3.06923,0 0,1.27436 4.49615,0 0,-16.71026 z"
         style="font-size:17.5px"
         id="path4301"
         inkscape:connector-curvature="0" />
      <path
         d="m 257.93753,174.2285 c -1.11282,0.48461 -1.92052,0.78974 -4.3077,0.79871 -2.22564,0 -3.76923,1.37308 -3.76923,3.28462 0,1.21154 0.50257,2.03718 1.58847,2.61154 -0.68206,0.44872 -1.04103,1.04102 -1.04103,1.65128 0,0.93333 0.74487,1.77692 2.37821,1.77692 l 1.68717,0 c 1.22052,0 2.1359,0.4577 2.1359,1.35513 0,1.03205 -0.91538,1.55257 -2.99743,1.55257 -2.11795,0 -2.62052,-0.51154 -2.62052,-1.61539 l -1.3641,0 c 0,1.92051 0.97821,2.84487 3.99359,2.84487 2.8718,0 4.5141,-1.02307 4.5141,-2.88077 0,-1.45384 -1.43589,-2.56666 -3.33846,-2.56666 l -1.70513,0 c -0.9782,0 -1.26538,-0.34103 -1.26538,-0.78975 0,-0.35897 0.20641,-0.71795 0.49359,-0.91538 0.39487,0.12564 0.77179,0.17949 1.40897,0.17949 2.23462,0 3.55385,-1.34616 3.55385,-3.21282 0,-1.07693 -0.54744,-1.87565 -1.64231,-2.37821 1.05898,0 1.95641,-0.0269 2.7641,-0.27821 l -0.46666,-1.41794 z m -4.3077,1.90256 c 1.38206,0 2.09103,0.74487 2.09103,2.1718 0,1.39102 -0.72692,2.20769 -2.05513,2.20769 -1.54359,0 -2.26154,-0.91539 -2.26154,-2.19872 0,-1.26539 0.7,-2.18077 2.22564,-2.18077 z"
         style="font-size:17.5px"
         id="path4303"
         inkscape:connector-curvature="0" />
      <path
         d="m 264.41439,172.14644 c -2.22565,0 -4.00257,1.40898 -4.00257,4.05642 0,2.47692 1.48077,3.94871 3.5359,3.94871 1.24743,0 2.18077,-0.60128 2.88974,-1.47179 -0.17051,2.93461 -1.91154,4.28077 -5.33077,5.23205 l 0.35,1.14872 c 4.6218,-1.27436 6.58718,-2.86282 6.58718,-7.86154 0,-3.10513 -1.33718,-5.05257 -4.02948,-5.05257 z m -0.18847,6.80257 c -1.40897,0 -2.25256,-0.80769 -2.25256,-2.69231 0,-1.89359 0.83461,-2.88974 2.44103,-2.88974 1.6423,0 2.42307,1.06795 2.45897,3.97564 -0.7359,0.99615 -1.53462,1.60641 -2.64744,1.60641 z"
         style="font-size:17.5px"
         id="path4305"
         inkscape:connector-curvature="0" />
      <path
         d="m 274.90278,175.03619 c -2.34231,0 -3.59872,2.09102 -3.59872,4.9359 0,2.96153 0.93334,4.91794 3.48205,4.91794 1.02308,0 1.96539,-0.43076 2.65642,-1.4 l 0,4.81026 1.50769,0.18846 0,-13.25513 -1.28334,0 -0.12564,1.03206 c -0.63718,-0.79872 -1.49871,-1.22949 -2.63846,-1.22949 z m 0.37692,1.21154 c 0.88847,0 1.66924,0.44871 2.16283,1.21154 l 0,4.72051 c -0.51154,0.77179 -1.29231,1.45384 -2.34231,1.45384 -1.46282,0 -2.18077,-1.21153 -2.18077,-3.66153 0,-2.49488 0.78974,-3.72436 2.36025,-3.72436 z"
         style="font-size:17.5px"
         id="path4307"
         inkscape:connector-curvature="0" />
      <path
         d="m 287.17708,172.1285 c -2.86283,0 -5.2859,2.20769 -5.2859,6.37179 0,4.14615 2.33333,6.38974 5.34872,6.38974 1.75897,0 2.94359,-0.61025 3.69743,-1.34615 l -0.80769,-1.02308 c -0.65513,0.53847 -1.48974,1.03206 -2.8718,1.03206 -2.1,0 -3.75128,-1.37308 -3.75128,-5.05257 0,-3.7782 1.75898,-5.07051 3.78718,-5.07051 0.94231,0 1.81282,0.26025 2.59359,0.91538 l 0.87051,-1.0141 c -0.9782,-0.78974 -1.96538,-1.20256 -3.58076,-1.20256 z"
         style="font-size:17.5px"
         id="path4309"
         inkscape:connector-curvature="0" />
      <path
         d="m 297.14496,184.89003 c 1.75,0 2.92564,-0.46666 4.03846,-1.07692 l 0,-5.88718 -4.1641,0 0.18846,1.29231 2.43205,0 0,3.76923 c -0.71795,0.3859 -1.49872,0.59231 -2.35128,0.59231 -2.15385,0 -3.28462,-1.48975 -3.28462,-5.07949 0,-3.8141 1.72308,-5.07051 3.50898,-5.07051 1.0141,0 1.83077,0.32308 2.58461,1.03205 l 0.94231,-0.97821 c -0.96923,-0.88846 -1.92051,-1.35512 -3.5359,-1.35512 -2.65641,0 -5.16923,2.11794 -5.16923,6.37179 0,4.2718 1.88462,6.38974 4.81026,6.38974 z"
         style="font-size:17.5px"
         id="path4311"
         inkscape:connector-curvature="0" />
      <path
         d="m 312.21925,178.51824 c 0,-3.82308 -1.55256,-6.38974 -4.55897,-6.38974 -2.99744,0 -4.55898,2.65641 -4.55898,6.40769 0,3.82308 1.54359,6.31795 4.38847,6.31795 2.12692,0 3.0423,1.02307 3.78718,2.93461 l 1.6423,-0.64615 c -0.60128,-1.80385 -1.52564,-2.59359 -3.25769,-2.93462 1.89359,-1.04102 2.55769,-3.06923 2.55769,-5.68974 z m -1.61538,0 c 0,3.29359 -0.86154,5.06154 -2.94359,5.06154 -2.02821,0 -2.94359,-1.75 -2.94359,-5.04359 0,-3.30257 0.86154,-5.10641 2.94359,-5.10641 2.08205,0 2.94359,1.7859 2.94359,5.08846 z"
         style="font-size:17.5px"
         id="path4313"
         inkscape:connector-curvature="0" />
      <path
         d="m 327.1088,180.36696 c 0.46667,-0.85257 1.03205,-1.52564 1.77692,-1.52564 1.09488,0 1.65129,1.79487 3.44616,1.79487 1.48077,0 1.57949,-0.89744 3.00641,-0.91539 l 7.78077,0 0,-1.31025 -8.05898,0 c -1.34615,0 -1.54359,0.92436 -2.67436,0.92436 -1.13077,0 -1.76794,-1.79488 -3.44615,-1.79488 -1.57949,0 -2.3782,1.24744 -2.90769,2.27052 l 1.07692,0.55641 z"
         style="font-size:17.5px"
         id="path4315"
         inkscape:connector-curvature="0" />
      <path
         d="m 351.41771,174.8926 -1.40897,0 0,3.58077 -3.48206,0 0,1.26538 3.48206,0 0,3.55385 1.40897,0 0,-3.55385 3.52692,0 0,-1.26538 -3.52692,0 0,-3.58077 z"
         style="font-size:17.5px"
         id="path4317"
         inkscape:connector-curvature="0" />
      <path
         d="m 371.47014,173.63619 -1.11282,0.95128 1.1218,1.22051 c 0.2782,0.31411 0.56538,0.62821 1.10384,0.94231 l -14.19743,0 0,1.30128 15.12179,0 0.96026,1.05 -0.96026,1.05 -15.12179,0 0,1.31026 14.19743,0 c -0.53846,0.30513 -0.82564,0.60128 -1.10384,0.91538 l -1.1218,1.23847 1.11282,0.95128 4.88206,-5.46539 -4.88206,-5.46538 z"
         style="font-size:17.5px"
         id="path4319"
         inkscape:connector-curvature="0" />
    </g>
  </g>
</svg>
