<svg xmlns="http://www.w3.org/2000/svg" width="322.58" height="115.261" viewBox="0 0 302.419 108.057"><g font-weight="400" font-family="FuraMono Nerd Font" letter-spacing="0" word-spacing="0" fill="#fff"><g style="line-height:125%;text-decoration-line:underline" font-size="27.5" text-decoration="underline"><path d="M3.23 10.257V3.602h8.498l.302-1.925H.893v18.92H3.23v-8.442h7.425v-1.898H3.23zM18.62 16.39V6.132h-2.283v10.533c0 2.667 1.375 4.235 4.18 4.235 1.677 0 3.492-.798 4.62-2.255l.192 1.952h1.953V6.132h-2.283v10.643c-.77 1.238-2.337 2.31-3.932 2.31-1.678 0-2.448-.798-2.448-2.695zM32.634 20.597h9.735v-1.815h-4.07v-6.847c.495-2.008 2.007-3.905 3.96-3.905.605 0 1.045.082 1.677.247l.413-2.255a7.311 7.311 0 0 0-1.898-.22c-1.732 0-3.327 1.045-4.18 3.108l-.275-2.778h-5.362V7.92h3.382v10.862h-3.382v1.815zM59.656 17.462v-6.985c0-2.86-1.815-4.675-5.418-4.675-1.402 0-2.942.275-4.702.935l.605 1.705c1.485-.522 2.805-.715 3.767-.715 2.145 0 3.438.77 3.438 2.86v1.21h-2.118c-4.4 0-6.792 1.678-6.792 4.648 0 2.695 1.76 4.455 4.675 4.455 1.87 0 3.492-.688 4.537-2.035.413 1.292 1.403 1.897 2.64 2.062l.55-1.622c-.797-.248-1.182-.688-1.182-1.843zm-5.968 1.705c-1.897 0-2.805-.935-2.805-2.75 0-1.87 1.155-3.052 4.373-3.052h2.09v3.74c-.853 1.32-2.228 2.062-3.658 2.062zM78.675 20.597l-1.073-18.92h-3.327L71.332 14.63l-3.08-12.953h-3.3l-1.072 18.92h2.2l.522-9.927c.11-2.365.11-5.83.11-6.298h.11l3.245 12.815h2.393l3.135-12.815h.055c0 .385.027 3.685.165 6.298l.605 9.927h2.255zM87.794 5.802c-4.07 0-6.242 3.108-6.242 7.563 0 4.565 2.145 7.535 6.215 7.535 4.042 0 6.215-3.135 6.215-7.563 0-4.565-2.118-7.535-6.188-7.535zm0 1.87c2.475 0 3.74 1.815 3.74 5.665 0 3.878-1.265 5.693-3.767 5.693-2.503 0-3.768-1.815-3.768-5.665 0-3.878 1.293-5.693 3.795-5.693zM98.783 6.132v14.465h2.283v-10.56c.742-1.127 2.2-2.42 3.932-2.42 2.2 0 2.475 1.21 2.475 4.18v8.8h2.283V10.092c0-2.695-1.238-4.29-4.07-4.29-1.705 0-3.603.853-4.785 2.338l-.165-2.008h-1.953zM120.773 5.802c-4.07 0-6.243 3.108-6.243 7.563 0 4.565 2.145 7.535 6.215 7.535 4.043 0 6.215-3.135 6.215-7.563 0-4.565-2.117-7.535-6.187-7.535zm0 1.87c2.475 0 3.74 1.815 3.74 5.665 0 3.878-1.265 5.693-3.768 5.693-2.502 0-3.767-1.815-3.767-5.665 0-3.878 1.292-5.693 3.795-5.693zM149.764 4.4l6.6 16.197h3.3V1.677h-2.2v9.488c0 3.41.302 6.462.33 6.792h-.11l-6.71-16.28h-3.19v18.92h2.2v-9.515c0-2.915-.303-6.325-.33-6.682h.11zM166.528 14.162h9.735c.027-.302.055-.742.055-1.237 0-4.4-2.228-7.123-5.968-7.123-3.74 0-6.215 3.19-6.215 7.563 0 4.51 2.393 7.535 6.628 7.535 1.787 0 3.602-.633 4.95-1.678l-1.073-1.567c-1.265 1.017-2.557 1.347-3.877 1.347-2.228 0-4.125-1.457-4.235-4.84zm3.85-6.462c2.282 0 3.685 1.595 3.74 4.702h-7.59c.192-3.19 1.787-4.702 3.85-4.702zM181.037 20.597h9.735v-1.815h-4.07v-6.847c.495-2.008 2.008-3.905 3.96-3.905.605 0 1.045.082 1.678.247l.412-2.255a7.311 7.311 0 0 0-1.897-.22c-1.733 0-3.328 1.045-4.18 3.108l-.275-2.778h-5.363V7.92h3.383v10.862h-3.383v1.815zM208.664.275L206.38 0v7.535c-.962-1.128-2.227-1.733-3.877-1.733-3.575 0-5.693 3.218-5.693 7.59 0 4.483 1.733 7.508 5.528 7.508 1.595 0 3.025-.688 4.097-2.2l.22 1.897h2.008V.275zm-5.583 7.37c1.348 0 2.53.715 3.3 1.87v7.26c-.77 1.182-1.925 2.282-3.575 2.282-2.282 0-3.492-1.925-3.492-5.692 0-3.823 1.347-5.72 3.767-5.72zM234.08 10.257V3.602h8.497l.303-1.925h-11.138v18.92h2.338v-8.442h7.425v-1.898h-7.425zM252.687 5.802c-4.07 0-6.243 3.108-6.243 7.563 0 4.565 2.145 7.535 6.215 7.535 4.043 0 6.215-3.135 6.215-7.563 0-4.565-2.117-7.535-6.187-7.535zm0 1.87c2.475 0 3.74 1.815 3.74 5.665 0 3.878-1.265 5.693-3.768 5.693-2.502 0-3.767-1.815-3.767-5.665 0-3.878 1.292-5.693 3.795-5.693zM263.676 6.132v14.465h2.282v-10.56c.743-1.127 2.2-2.42 3.933-2.42 2.2 0 2.475 1.21 2.475 4.18v8.8h2.282V10.092c0-2.695-1.237-4.29-4.07-4.29-1.705 0-3.602.853-4.785 2.338l-.165-2.008h-1.952zM291.633 19.882l-.88-1.567a5.927 5.927 0 0 1-2.778.687c-2.007 0-2.777-.852-2.777-2.475V7.892h4.73l.275-1.76h-5.005V2.557l-2.283.275v3.3h-3.327v1.76h3.327v8.663c0 2.557 1.76 4.345 4.84 4.345 1.348 0 2.888-.385 3.878-1.018z"/></g><g style="line-height:125%" font-size="17.5"><path d="M7.98 58.602v-4.445c0-1.82-1.155-2.975-3.447-2.975-.893 0-1.873.175-2.993.595l.385 1.085c.945-.332 1.785-.455 2.398-.455 1.365 0 2.187.49 2.187 1.82v.77H5.163c-2.8 0-4.323 1.068-4.323 2.958 0 1.715 1.12 2.835 2.975 2.835 1.19 0 2.223-.438 2.888-1.295.262.822.892 1.207 1.68 1.312l.35-1.032c-.508-.158-.753-.438-.753-1.173zm-3.797 1.085c-1.208 0-1.785-.595-1.785-1.75 0-1.19.735-1.942 2.782-1.942h1.33v2.38c-.542.84-1.417 1.312-2.327 1.312zM13.346 52.582V47.49l-1.453.175v12.932h1.278l.105-.962c.612.805 1.435 1.155 2.502 1.155 2.38 0 3.658-2.013 3.658-4.813 0-2.887-.998-4.795-3.465-4.795-1.05 0-1.96.508-2.625 1.4zm2.1 7.035c-.858 0-1.61-.455-2.1-1.19v-4.585c.49-.735 1.277-1.487 2.31-1.487 1.435 0 2.187 1.207 2.187 3.622 0 2.468-.857 3.64-2.397 3.64zM26.534 59.547c-1.575 0-2.73-1.05-2.73-3.517 0-2.433 1.137-3.623 2.73-3.623.822 0 1.592.28 2.362.858l.735-.998c-.875-.717-1.89-1.085-3.08-1.085-2.747 0-4.322 2.083-4.322 4.848 0 2.887 1.557 4.76 4.305 4.76 1.085 0 2.31-.42 3.115-1.103l-.7-1.015c-.683.543-1.47.875-2.415.875zM39.844 47.665l-1.452-.175v4.795c-.613-.718-1.418-1.103-2.468-1.103-2.275 0-3.622 2.048-3.622 4.83 0 2.853 1.102 4.778 3.517 4.778 1.015 0 1.925-.438 2.608-1.4l.14 1.207h1.277V47.665zm-3.552 4.69c.857 0 1.61.455 2.1 1.19v4.62c-.49.752-1.225 1.452-2.275 1.452-1.453 0-2.223-1.225-2.223-3.622 0-2.433.858-3.64 2.398-3.64zM44.51 56.502h6.195a8.92 8.92 0 0 0 .035-.787c0-2.8-1.417-4.533-3.797-4.533s-3.955 2.03-3.955 4.813c0 2.87 1.522 4.795 4.217 4.795a5.258 5.258 0 0 0 3.15-1.068l-.682-.997c-.805.647-1.628.857-2.468.857-1.417 0-2.625-.927-2.695-3.08zm2.45-4.112c1.453 0 2.345 1.015 2.38 2.992h-4.83c.123-2.03 1.138-2.992 2.45-2.992zM59.29 47.49c-1.89 0-3.342 1.067-3.342 2.765v1.837h-2.205v1.155h2.205v7.35h1.453v-7.35h2.975l.157-1.155h-3.132V50.22c0-1.033.647-1.54 1.942-1.54.7 0 1.383.122 1.978.402l.472-1.085a6.07 6.07 0 0 0-2.502-.507zM72.286 51.795l-.455-1.383c-1.067.473-1.872.77-4.182.77-2.188 0-3.675 1.33-3.675 3.203 0 1.19.49 1.995 1.54 2.537-.665.438-1.015 1.033-1.015 1.61 0 .91.717 1.733 2.327 1.733h1.645c1.173 0 2.083.455 2.083 1.33 0 1.015-.91 1.522-2.94 1.522-2.065 0-2.555-.507-2.555-1.592h-1.313c0 1.89.945 2.782 3.885 2.782 2.8 0 4.393-.997 4.393-2.8 0-1.417-1.4-2.502-3.255-2.502h-1.663c-.945 0-1.225-.333-1.225-.77 0-.35.193-.7.473-.91.385.122.752.192 1.382.192 2.17 0 3.465-1.312 3.465-3.15 0-1.05-.542-1.82-1.61-2.31 1.033 0 1.908-.035 2.695-.262zm-4.655.455c1.365 0 2.048.735 2.048 2.117 0 1.365-.7 2.17-2.013 2.17-1.505 0-2.205-.892-2.205-2.152 0-1.243.683-2.135 2.17-2.135zM76.305 52.652v-5.127l-1.453.175v12.897h1.453v-6.72c.472-.717 1.417-1.54 2.485-1.54 1.085 0 1.592.49 1.592 1.593v6.667h1.453v-6.685c0-1.715-.788-2.73-2.59-2.73a3.703 3.703 0 0 0-2.94 1.47zM88.828 47.07c-.613 0-1.05.455-1.05 1.032 0 .595.437 1.033 1.05 1.033.647 0 1.067-.438 1.067-1.033 0-.577-.42-1.032-1.067-1.032zM90 59.442v-8.05h-4.217v1.138h2.765v6.912h-2.853v1.155h6.895v-1.155H90zM100.493 47.07c-.63 0-1.05.455-1.05 1.032 0 .595.42 1.033 1.05 1.033.63 0 1.068-.438 1.068-1.033 0-.577-.438-1.032-1.068-1.032zm1.365 12.075v-7.753h-5.302v1.138h3.85v6.702c0 2.468-1.925 3.5-4.655 3.955l.245 1.12c3.692-.63 5.862-2.1 5.862-5.162zM107.872 60.597V47.49l-1.453.175v12.932h1.453zm1.995-5.057l4.165-4.148h-1.89l-4.095 4.165 4.55 5.04h1.925l-4.655-5.057zM120.395 58.34V47.665h-4.288v1.155h2.835v9.432c0 1.593 1.12 2.538 2.73 2.538.945 0 1.698-.21 2.188-.473l-.385-1.05c-.508.193-.998.315-1.558.315-.892 0-1.522-.332-1.522-1.242zM133.373 51.182c-.945 0-1.523.508-2.03 1.225-.28-.945-.963-1.225-1.663-1.225-.927 0-1.505.56-2.012 1.278l-.088-1.068h-1.137v9.205h1.347V53.44c.508-.788 1.033-1.12 1.61-1.12.665 0 .718.49.718 1.662v6.615h1.365V53.44c.507-.788 1.067-1.12 1.61-1.12.665 0 .717.49.717 1.662v6.615h1.348v-6.86c0-2.117-.91-2.555-1.785-2.555zM137.811 51.392v9.205h1.453v-6.72c.472-.717 1.4-1.54 2.502-1.54 1.4 0 1.575.77 1.575 2.66v5.6h1.453v-6.685c0-1.715-.788-2.73-2.59-2.73-1.085 0-2.293.543-3.045 1.488l-.105-1.278h-1.243zM151.804 51.182c-2.59 0-3.972 1.978-3.972 4.813 0 2.905 1.365 4.795 3.955 4.795 2.572 0 3.955-1.995 3.955-4.813 0-2.905-1.348-4.795-3.938-4.795zm0 1.19c1.575 0 2.38 1.155 2.38 3.605 0 2.468-.805 3.623-2.397 3.623-1.593 0-2.398-1.155-2.398-3.605 0-2.468.823-3.623 2.415-3.623zM162.91 51.182c-1.12 0-2.083.543-2.765 1.488l-.123-1.278h-1.225v12.915l1.453-.175V59.74c.612.7 1.435 1.05 2.432 1.05 2.398 0 3.553-2.013 3.553-4.813 0-2.887-.875-4.795-3.325-4.795zm-.35 1.173c1.452 0 2.117 1.207 2.117 3.622 0 2.468-.77 3.605-2.31 3.605a2.512 2.512 0 0 1-2.117-1.155v-4.585c.49-.735 1.277-1.487 2.31-1.487zM172.318 51.182c-2.275 0-3.5 2.048-3.5 4.83 0 2.888.91 4.778 3.395 4.778.998 0 1.908-.42 2.59-1.365v4.707l1.453.175V51.392h-1.243l-.122.998c-.613-.77-1.453-1.208-2.573-1.208zm.368 1.173c.875 0 1.645.455 2.117 1.19v4.62c-.49.752-1.26 1.417-2.292 1.417-1.435 0-2.135-1.19-2.135-3.587 0-2.433.77-3.64 2.31-3.64zM179.661 60.597h6.195v-1.155h-2.59v-4.357c.315-1.278 1.278-2.485 2.52-2.485.385 0 .665.052 1.068.157l.262-1.435a4.653 4.653 0 0 0-1.207-.14c-1.103 0-2.118.665-2.66 1.978l-.175-1.768h-3.413v1.138h2.153v6.912h-2.153v1.155zM193.41 59.6a4.38 4.38 0 0 1-2.783-.998l-.823.945c.788.683 1.925 1.243 3.588 1.243 1.977 0 3.885-.77 3.885-2.73 0-1.733-1.19-2.363-2.993-2.853-1.872-.507-2.45-.787-2.45-1.627 0-.7.543-1.208 2.013-1.208 1.19 0 1.977.35 2.66.823l.647-.98c-.77-.578-1.855-1.033-3.342-1.033-2.065 0-3.483.98-3.483 2.52 0 1.61 1.225 2.17 3.15 2.643 1.943.49 2.223.945 2.223 1.785 0 .892-.875 1.47-2.293 1.47zM208.068 60.142l-.56-.997a3.772 3.772 0 0 1-1.768.437c-1.277 0-1.767-.542-1.767-1.575v-5.495h3.01l.175-1.12h-3.185v-2.275l-1.453.175v2.1h-2.117v1.12h2.117v5.513c0 1.627 1.12 2.765 3.08 2.765.858 0 1.838-.245 2.468-.648zM212.716 57.92v-6.528h-1.453v6.703c0 1.697.875 2.695 2.66 2.695 1.068 0 2.223-.508 2.94-1.435l.123 1.242h1.242v-9.205h-1.452v6.773c-.49.787-1.488 1.47-2.503 1.47-1.067 0-1.557-.508-1.557-1.715zM226.061 60.597l3.36-9.205h-1.505l-2.642 7.875-2.678-7.875h-1.54l3.325 9.205h1.68zM236.992 60.597h2.065l1.61-9.205h-1.417l-1.19 8.05h-.07l-1.313-6.877h-1.732l-1.4 6.912h-.07l-1.19-8.085h-1.488l1.68 9.205h2.013l1.242-6.615h.07l1.19 6.615zM241.955 60.597h1.663l2.555-3.955 2.537 3.955h1.785l-3.395-4.935 2.975-4.27h-1.662l-2.17 3.43-2.153-3.43h-1.715l2.993 4.34-3.413 4.865zM257.646 60.65l3.237-9.258h-1.505l-2.607 8.103-2.66-8.103h-1.558l3.22 9.205h.49c-.49 1.435-1.032 2.205-2.94 2.538l.228 1.172c2.432-.262 3.447-1.785 4.095-3.657zM270.677 59.355h-5.145l5.092-6.843v-1.12h-6.457v1.26h4.707l-5.11 6.843v1.102h6.72l.193-1.242zM2.45 79.392h4.778l.962 3.08h1.575l-3.92-12.04H3.92L0 82.472h1.47l.98-3.08zm4.393-1.242H2.835l2.013-6.458 1.995 6.458zM19.558 79.042c0-2.047-1.435-2.73-2.765-2.957 1.155-.245 2.24-1.068 2.24-2.625 0-2.363-2.152-3.028-4.252-3.028h-2.958v12.04h3.22c2.223 0 4.515-.805 4.515-3.43zm-2.065-5.495c0 1.4-.787 2.013-2.222 2.013h-1.96v-3.92h1.82c1.452 0 2.362.525 2.362 1.907zm.49 5.548c0 1.785-1.487 2.135-2.66 2.135h-2.012v-4.428h2.082c1.4 0 2.59.455 2.59 2.293zM26.884 70.222c-2.783 0-5.145 2.153-5.145 6.213 0 4.06 2.275 6.23 5.215 6.23 1.715 0 2.87-.595 3.587-1.295l-.77-.998c-.647.525-1.452 1.015-2.8 1.015-2.065 0-3.675-1.347-3.675-4.952 0-3.693 1.715-4.953 3.693-4.953.927 0 1.767.263 2.537.893l.84-.98c-.945-.753-1.907-1.173-3.482-1.173zM40.772 76.382c0-5.005-2.818-5.95-5.635-5.95h-2.555v12.04h2.747c2.503 0 5.443-1.032 5.443-6.09zm-1.593 0c0 4.008-1.925 4.883-3.657 4.883h-1.453v-9.608h1.435c1.663 0 3.675.525 3.675 4.725zM45.315 75.735v-4.078h5.145l.175-1.225H43.81v12.04h6.983v-1.207h-5.478v-4.288h4.463v-1.242h-4.463zM56.018 75.892v-4.235h5.408l.192-1.225h-7.087v12.04h1.487V77.1h4.725v-1.208h-4.725zM68.086 82.665c1.698 0 2.835-.455 3.92-1.033v-5.74h-4.042l.175 1.243h2.38v3.692c-.7.385-1.47.578-2.31.578-2.1 0-3.22-1.453-3.22-4.97 0-3.71 1.697-4.935 3.447-4.935.998 0 1.785.315 2.52.997l.91-.945c-.945-.875-1.872-1.33-3.43-1.33-2.59 0-5.04 2.065-5.04 6.213 0 4.165 1.838 6.23 4.69 6.23zM80.627 76.732v5.74h1.488v-12.04h-1.488v5.093h-4.585v-5.093h-1.487v12.04h1.487v-5.74h4.585zM92.275 71.622v-1.19H85.38v1.19h2.695v9.643H85.38v1.207h6.895v-1.207H89.58v-9.643h2.695zM102.751 78.482v-8.05h-5.058v1.225h3.57v6.738c0 1.872-.945 3.027-2.625 3.027-.717 0-1.575-.175-2.625-.84l-.665.998a5.486 5.486 0 0 0 3.308 1.102c3.167 0 4.095-2.205 4.095-4.2zM106.42 82.472h1.487v-12.04h-1.488v12.04zm6.334-12.04l-4.76 5.6 4.953 6.44h1.872l-5.057-6.527 4.725-5.513h-1.733zM117.437 70.432v12.04h6.825l.175-1.347h-5.495V70.432h-1.505zM135.508 82.472l-.683-12.04h-2.117l-1.873 8.243-1.96-8.243h-2.1l-.682 12.04h1.4l.332-6.317c.07-1.505.07-3.71.07-4.008h.07l2.065 8.155h1.523l1.995-8.155h.035c0 .245.017 2.345.105 4.008l.385 6.317h1.435zM138.774 72.165l4.2 10.307h2.1v-12.04h-1.4v6.038c0 2.17.192 4.112.21 4.322h-.07l-4.27-10.36h-2.03v12.04h1.4v-6.055c0-1.855-.193-4.025-.21-4.252h.07zM156.214 76.452c0-3.71-1.505-6.23-4.427-6.23-2.923 0-4.428 2.608-4.428 6.265 0 3.71 1.505 6.178 4.428 6.178 2.922 0 4.427-2.555 4.427-6.213zm-1.557 0c0 3.22-.84 4.953-2.87 4.953-1.978 0-2.87-1.715-2.87-4.918 0-3.22.822-4.987 2.87-4.987 2.047 0 2.87 1.75 2.87 4.952zM166.777 74.125c0-2.52-1.785-3.693-4.655-3.693h-3.045v12.04h1.488v-4.48h1.557c2.713 0 4.655-1.05 4.655-3.867zm-1.61.017c0 2.065-1.225 2.643-2.905 2.643h-1.697v-5.163h1.75c1.645 0 2.852.648 2.852 2.52zM177.2 76.452c0-3.71-1.504-6.23-4.427-6.23-2.94 0-4.445 2.608-4.445 6.265 0 3.71 1.505 6.143 4.27 6.143 2.083 0 2.958 1.015 3.693 2.87l1.592-.63c-.595-1.75-1.487-2.52-3.08-2.853 1.75-1.032 2.398-2.992 2.398-5.565zm-1.557 0c0 3.22-.84 4.953-2.87 4.953-1.995 0-2.887-1.715-2.887-4.918 0-3.22.84-5.005 2.887-5.005 2.03 0 2.87 1.768 2.87 4.97zM187.414 73.792c0-2.222-1.558-3.36-4.533-3.36h-3.08v12.04h1.505v-5.18h1.645l3.29 5.18h1.803l-3.588-5.355c1.68-.402 2.958-1.505 2.958-3.325zm-1.61 0c0 1.68-.998 2.328-2.73 2.328h-1.768v-4.498h1.75c1.873 0 2.748.63 2.748 2.17zM197.89 79.13c0-2.293-1.646-3.08-3.518-3.623-2.293-.665-3.045-1.19-3.045-2.222 0-1.208 1.102-1.803 2.415-1.803a4.26 4.26 0 0 1 2.905 1.103l.892-.98c-1.015-.875-2.187-1.383-3.832-1.383-2.31 0-3.903 1.295-3.903 3.098 0 1.925 1.505 2.782 3.885 3.482 2.083.613 2.643 1.19 2.643 2.363 0 1.522-1.348 2.24-2.8 2.24-1.488 0-2.52-.49-3.36-1.278l-.893 1.015c1.015.98 2.468 1.523 4.218 1.523 2.8 0 4.392-1.453 4.392-3.535zM204.97 82.472V71.71h3.658l.157-1.278h-9.082v1.278h3.78v10.762h1.487zM218.718 78.57v-8.138h-1.505v8.208c0 1.837-.91 2.73-2.485 2.73-1.557 0-2.467-.893-2.467-2.73v-8.208h-1.488v8.138c0 2.432 1.488 4.095 3.955 4.095 2.433 0 3.99-1.645 3.99-4.095zM228.546 70.432l-3.272 10.325-3.238-10.325h-1.61l4.043 12.04h1.54l4.042-12.04h-1.505zM239.057 82.472l1.838-12.04h-1.383L238.077 80.6h-.07l-1.33-8.768h-1.855l-1.435 8.838h-.07l-1.242-10.238h-1.505l1.697 12.04h2.03l1.365-8.837h.07l1.348 8.837h1.977zM243.565 70.432h-1.715l3.465 5.618-3.797 6.422h1.61l3.062-5.46 3.01 5.46h1.733l-3.85-6.51 3.43-5.53h-1.628l-2.66 4.638-2.66-4.638zM257.47 82.472v-4.655l4.078-7.385h-1.557l-3.238 6.038-3.202-6.038h-1.663l4.078 7.403v4.637h1.505zM271.184 81.177h-6.317l6.335-9.52v-1.225h-7.35v1.278h5.74l-6.37 9.537v1.225h7.787l.175-1.295zM4.9 94.932c-2.59 0-3.972 1.978-3.972 4.813 0 2.905 1.365 4.795 3.955 4.795 2.572 0 3.955-1.995 3.955-4.813 0-2.905-1.348-4.795-3.938-4.795zm0 1.19c1.575 0 2.38 1.155 2.38 3.605 0 2.468-.805 3.623-2.397 3.623-1.593 0-2.398-1.155-2.398-3.605 0-2.468.823-3.623 2.415-3.623zM19.803 98.327c0-3.71-1.505-6.23-4.427-6.23-2.923 0-4.428 2.608-4.428 6.265 0 3.71 1.505 6.178 4.428 6.178 2.922 0 4.427-2.555 4.427-6.213zm-1.557 0c0 3.22-.84 4.953-2.87 4.953-1.978 0-2.87-1.715-2.87-4.918 0-3.22.822-4.987 2.87-4.987 2.047 0 2.87 1.75 2.87 4.952zM25.869 92.097c-2.59 0-3.938 2.223-3.938 6.213 0 4.007 1.348 6.23 3.938 6.23s3.937-2.223 3.937-6.23c0-3.99-1.347-6.213-3.937-6.213zm0 1.19c1.522 0 2.415 1.47 2.415 5.023 0 3.587-.893 5.057-2.415 5.057-1.505 0-2.415-1.487-2.415-5.057 0-3.57.927-5.023 2.415-5.023zm0 3.885c-.648 0-1.138.508-1.138 1.138 0 .647.49 1.155 1.138 1.155.665 0 1.155-.508 1.155-1.155 0-.63-.49-1.138-1.155-1.138zM39.967 95.16c0-2.135-1.855-3.063-3.605-3.063-1.575 0-3.605.945-3.605 3.15 0 1.348.647 2.153 1.925 2.748-1.47.682-2.415 1.662-2.415 3.15 0 1.907 1.487 3.395 4.06 3.395 2.537 0 4.13-1.453 4.13-3.43 0-1.47-1.015-2.573-2.573-3.22 1.33-.735 2.083-1.54 2.083-2.73zm-5.775.105c0-1.278.805-2.03 2.17-2.03 1.382 0 2.17.77 2.17 1.995 0 1.102-.56 1.662-1.68 2.292-1.645-.525-2.66-.857-2.66-2.257zm4.742 5.88c0 1.26-.927 2.222-2.607 2.222-1.68 0-2.538-.84-2.538-2.222 0-1.523.893-2.275 1.89-2.73 1.908.665 3.255 1.102 3.255 2.73zM57.348 90.82c-.612 0-1.05.455-1.05 1.032 0 .595.438 1.033 1.05 1.033.648 0 1.068-.438 1.068-1.033 0-.577-.42-1.032-1.068-1.032zm1.173 12.372v-8.05h-4.218v1.138h2.765v6.912h-2.852v1.155h6.895v-1.155h-2.59zM71.289 93.497v-1.19h-6.895v1.19h2.695v9.643h-2.695v1.207h6.895v-1.207h-2.695v-9.643h2.695zM78.422 102.09V91.415h-4.287v1.155h2.835v9.432c0 1.593 1.12 2.538 2.73 2.538.945 0 1.697-.21 2.187-.473l-.385-1.05c-.507.193-.997.315-1.557.315-.893 0-1.523-.332-1.523-1.242zM85.958 92.307v12.04h6.825l.175-1.347h-5.495V92.307h-1.505zM103.118 103.157h-2.52v-10.85h-1.277l-3.57 2.205.63 1.033 2.765-1.663v9.275h-2.975v1.19h6.947v-1.19zM122.95 90.872v-1.137c-1.943 0-3.763.577-3.535 2.712l.35 3.36c.122 1.19-.28 1.838-2.66 1.838V98.8c2.362 0 2.782.665 2.66 1.855l-.35 3.342c-.228 2.135 1.592 2.713 3.535 2.713v-1.138c-1.278 0-2.31-.315-2.205-1.4l.367-3.605c.14-1.54-.402-2.117-1.627-2.345 1.19-.227 1.767-.875 1.627-2.345l-.367-3.605c-.105-1.067.927-1.4 2.205-1.4zM128.158 89.735v1.137c1.277 0 2.31.333 2.205 1.4l-.368 3.605c-.14 1.47.438 2.118 1.82 2.363-1.435.21-1.96.787-1.82 2.327l.368 3.605c.105 1.085-.928 1.4-2.205 1.4v1.138c1.942 0 3.762-.578 3.535-2.713l-.35-3.342c-.123-1.19.49-1.855 2.66-1.855v-1.155c-2.17 0-2.783-.648-2.66-1.838l.35-3.36c.227-2.135-1.593-2.712-3.535-2.712zM149.757 90.085v16.275h4.375v-1.225h-2.993V91.327h2.993v-1.242h-4.375zM164.31 106.36V90.085h-4.375v1.242h2.992v13.808h-2.992v1.225h4.375zM187.711 95.545l-.455-1.383c-1.067.473-1.872.77-4.182.77-2.188 0-3.675 1.33-3.675 3.203 0 1.19.49 1.995 1.54 2.537-.665.438-1.015 1.033-1.015 1.61 0 .91.717 1.733 2.327 1.733h1.645c1.173 0 2.083.455 2.083 1.33 0 1.015-.91 1.522-2.94 1.522-2.065 0-2.555-.507-2.555-1.592h-1.313c0 1.89.945 2.782 3.885 2.782 2.8 0 4.393-.997 4.393-2.8 0-1.417-1.4-2.502-3.255-2.502h-1.663c-.945 0-1.225-.333-1.225-.77 0-.35.193-.7.473-.91.385.122.752.192 1.382.192 2.17 0 3.465-1.312 3.465-3.15 0-1.05-.542-1.82-1.61-2.31 1.033 0 1.908-.035 2.695-.262zm-4.655.455c1.365 0 2.048.735 2.048 2.117 0 1.365-.7 2.17-2.013 2.17-1.505 0-2.205-.892-2.205-2.152 0-1.243.683-2.135 2.17-2.135zM193.567 92.115c-2.153 0-3.885 1.382-3.885 3.972 0 2.398 1.435 3.868 3.447 3.833 1.33-.018 2.31-.7 2.835-1.488-.035 2.94-1.995 4.305-5.215 5.18l.333 1.103c4.497-1.278 6.405-2.783 6.405-7.945 0-2.87-1.243-4.655-3.92-4.655zm-.175 6.65c-1.383.017-2.205-.788-2.205-2.625 0-1.855.805-2.835 2.38-2.835 1.68 0 2.467.945 2.432 3.797-.647.998-1.452 1.645-2.607 1.663zM203.798 94.932c-2.275 0-3.5 2.048-3.5 4.83 0 2.888.91 4.778 3.395 4.778.997 0 1.907-.42 2.59-1.365v4.707l1.452.175V95.142h-1.242l-.123.998c-.612-.77-1.452-1.208-2.572-1.208zm.367 1.173c.875 0 1.645.455 2.118 1.19v4.62c-.49.752-1.26 1.417-2.293 1.417-1.435 0-2.135-1.19-2.135-3.587 0-2.433.77-3.64 2.31-3.64zM215.76 92.097c-2.782 0-5.144 2.153-5.144 6.213 0 4.06 2.275 6.23 5.215 6.23 1.715 0 2.87-.595 3.587-1.295l-.77-.998c-.647.525-1.452 1.015-2.8 1.015-2.065 0-3.675-1.347-3.675-4.952 0-3.693 1.715-4.953 3.693-4.953.927 0 1.767.263 2.537.893l.84-.98c-.945-.753-1.907-1.173-3.482-1.173zM225.484 104.54c1.697 0 2.835-.455 3.92-1.033v-5.74h-4.043l.175 1.243h2.38v3.692c-.7.385-1.47.578-2.31.578-2.1 0-3.22-1.453-3.22-4.97 0-3.71 1.698-4.935 3.448-4.935.997 0 1.785.315 2.52.997l.91-.945c-.945-.875-1.873-1.33-3.43-1.33-2.59 0-5.04 2.065-5.04 6.213 0 4.165 1.837 6.23 4.69 6.23zM240.16 98.327c0-3.71-1.505-6.23-4.428-6.23-2.94 0-4.445 2.608-4.445 6.265 0 3.71 1.505 6.143 4.27 6.143 2.083 0 2.958 1.015 3.693 2.87l1.592-.63c-.595-1.75-1.487-2.52-3.08-2.853 1.75-1.032 2.398-2.992 2.398-5.565zm-1.558 0c0 3.22-.84 4.953-2.87 4.953-1.995 0-2.887-1.715-2.887-4.918 0-3.22.84-5.005 2.887-5.005 2.03 0 2.87 1.768 2.87 4.97zM255.056 97.347c-1.558 0-2.31 1.208-2.818 2.223l1.033.525c.455-.84.98-1.488 1.732-1.488 1.12 0 1.733 1.75 3.378 1.75 1.54 0 2.31-1.225 2.817-2.205l-1.032-.542c-.455.822-1.015 1.487-1.733 1.487-1.085 0-1.61-1.75-3.377-1.75zM264.15 98.24v1.26h6.124v-1.26h-6.125zM278.37 98.292v-2.607h-1.365v2.607h-2.52v1.225h2.52v2.59h1.365v-2.59h2.555v-1.225h-2.555zM291.593 97.872v-1.26h-6.79v1.26h6.79zm0 3.325v-1.26h-6.79v1.26h6.79zM302.419 98.117l-6.72-4.165-.718 1.103 6.195 3.815-6.195 3.815.788 1.085 6.65-4.165v-1.488z"/></g></g></svg>