<?xml version="1.0" encoding="UTF-8" standalone="no"?>
<svg
   version="1.1"
   id="svg2"
   viewBox="0 0 302.11951 108.71749"
   height="30.682491mm"
   width="85.264839mm"
   sodipodi:docname="FuraMono Nerd Font.svg"
   inkscape:version="1.1.2 (0a00cf5339, 2022-02-04)"
   xmlns:inkscape="http://www.inkscape.org/namespaces/inkscape"
   xmlns:sodipodi="http://sodipodi.sourceforge.net/DTD/sodipodi-0.dtd"
   xmlns="http://www.w3.org/2000/svg"
   xmlns:svg="http://www.w3.org/2000/svg"
   xmlns:rdf="http://www.w3.org/1999/02/22-rdf-syntax-ns#"
   xmlns:cc="http://creativecommons.org/ns#"
   xmlns:dc="http://purl.org/dc/elements/1.1/">
  <sodipodi:namedview
     id="namedview12"
     pagecolor="#ffffff"
     bordercolor="#666666"
     borderopacity="1.0"
     inkscape:pageshadow="2"
     inkscape:pageopacity="0.0"
     inkscape:pagecheckerboard="0"
     inkscape:document-units="mm"
     showgrid="false"
     inkscape:zoom="0.64052329"
     inkscape:cx="327.07632"
     inkscape:cy="476.95377"
     inkscape:window-width="1458"
     inkscape:window-height="976"
     inkscape:window-x="0"
     inkscape:window-y="32"
     inkscape:window-maximized="0"
     inkscape:current-layer="svg2" />
  <defs
     id="defs4" />
  <metadata
     id="metadata7">
    <rdf:RDF>
      <cc:Work
         rdf:about="">
        <dc:format>image/svg+xml</dc:format>
        <dc:type
           rdf:resource="http://purl.org/dc/dcmitype/StillImage" />
      </cc:Work>
    </rdf:RDF>
  </metadata>
  <g
     id="layer1"
     transform="translate(-65.786903,-79.676132)">
    <g
       aria-label="FiraMono Nerd Font"
       id="text4136"
       style="font-size:27.5px;line-height:125%;font-family:'FuraMono Nerd Font';text-decoration:underline;text-decoration-line:underline;letter-spacing:0px;word-spacing:0px;fill:#ffffff;stroke-width:1px">
      <path
         d="M 69.017143,90.593632 V 83.938632 H 77.514643 L 77.817143,82.013632 H 66.679643 V 100.93363 H 69.017143 V 92.491132 H 76.442143 V 90.593632 Z"
         id="path829" />
      <path
         d="M 87.579617,79.676132 C 86.617117,79.676132 85.929617,80.391132 85.929617,81.298632 85.929617,82.233632 86.617117,82.921132 87.579617,82.921132 88.597117,82.921132 89.257117,82.233632 89.257117,81.298632 89.257117,80.391132 88.597117,79.676132 87.579617,79.676132 Z M 89.422117,99.118632 V 86.468632 H 82.794617 V 88.256132 H 87.139617 V 99.118632 H 82.657117 V 100.93363 H 93.492117 V 99.118632 Z"
         id="path831" />
      <path
         d="M 98.38709,100.93363 H 108.12209 V 99.118632 H 104.05209 V 92.271132 C 104.54709,90.263632 106.05959,88.366132 108.01209,88.366132 108.61709,88.366132 109.05709,88.448632 109.68959,88.613632 L 110.10209,86.358632 C 109.41459,86.193632 108.91959,86.138632 108.20459,86.138632 106.47209,86.138632 104.87709,87.183632 104.02459,89.246132 L 103.74959,86.468632 H 98.38709 V 88.256132 H 101.76959 V 99.118632 H 98.38709 Z"
         id="path833" />
      <path
         d="M 125.39206,97.798632 V 90.813632 C 125.39206,87.953632 123.57706,86.138632 119.97456,86.138632 118.57206,86.138632 117.03206,86.413632 115.27206,87.073632 L 115.87706,88.778632 C 117.36206,88.256132 118.68206,88.063632 119.64456,88.063632 121.78956,88.063632 123.08206,88.833632 123.08206,90.923632 V 92.133632 H 120.96456 C 116.56456,92.133632 114.17206,93.811132 114.17206,96.781132 114.17206,99.476132 115.93206,101.23613 118.84706,101.23613 120.71706,101.23613 122.33956,100.54863 123.38456,99.201132 123.79706,100.49363 124.78706,101.09863 126.02456,101.26363 L 126.57456,99.641132 C 125.77706,99.393632 125.39206,98.953632 125.39206,97.798632 Z M 119.42456,99.503632 C 117.52706,99.503632 116.61956,98.568632 116.61956,96.753632 116.61956,94.883632 117.77456,93.701132 120.99206,93.701132 H 123.08206 V 97.441132 C 122.22956,98.761132 120.85456,99.503632 119.42456,99.503632 Z"
         id="path835" />
      <path
         d="M 144.39454,100.93363 143.32204,82.013632 H 139.99454 L 137.05204,94.966132 133.97204,82.013632 H 130.67204 L 129.59954,100.93363 H 131.79954 L 132.32204,91.006132 C 132.43204,88.641132 132.43204,85.176132 132.43204,84.708632 H 132.54204 L 135.78704,97.523632 H 138.17954 L 141.31454,84.708632 H 141.36954 C 141.36954,85.093632 141.39704,88.393632 141.53454,91.006132 L 142.13954,100.93363 Z"
         id="path837" />
      <path
         d="M 153.49701,86.138632 C 149.42701,86.138632 147.25451,89.246132 147.25451,93.701132 147.25451,98.266132 149.39951,101.23613 153.46951,101.23613 157.51201,101.23613 159.68451,98.101132 159.68451,93.673632 159.68451,89.108632 157.56701,86.138632 153.49701,86.138632 Z M 153.49701,88.008632 C 155.97201,88.008632 157.23701,89.823632 157.23701,93.673632 157.23701,97.551132 155.97201,99.366132 153.46951,99.366132 150.96701,99.366132 149.70201,97.551132 149.70201,93.701132 149.70201,89.823632 150.99451,88.008632 153.49701,88.008632 Z"
         id="path839" />
      <path
         d="M 164.46948,86.468632 V 100.93363 H 166.75198 V 90.373632 C 167.49448,89.246132 168.95198,87.953632 170.68448,87.953632 172.88448,87.953632 173.15948,89.163632 173.15948,92.133632 V 100.93363 H 175.44198 V 90.428632 C 175.44198,87.733632 174.20448,86.138632 171.37198,86.138632 169.66698,86.138632 167.76948,86.991132 166.58698,88.476132 L 166.42198,86.468632 Z"
         id="path841" />
      <path
         d="M 186.44196,86.138632 C 182.37196,86.138632 180.19946,89.246132 180.19946,93.701132 180.19946,98.266132 182.34446,101.23613 186.41446,101.23613 190.45696,101.23613 192.62946,98.101132 192.62946,93.673632 192.62946,89.108632 190.51196,86.138632 186.44196,86.138632 Z M 186.44196,88.008632 C 188.91696,88.008632 190.18196,89.823632 190.18196,93.673632 190.18196,97.551132 188.91696,99.366132 186.41446,99.366132 183.91196,99.366132 182.64696,97.551132 182.64696,93.701132 182.64696,89.823632 183.93946,88.008632 186.44196,88.008632 Z"
         id="path843" />
      <path
         d="M 215.3994,84.736132 221.9994,100.93363 H 225.2994 V 82.013632 H 223.0994 V 91.501132 C 223.0994,94.911132 223.4019,97.963632 223.4294,98.293632 H 223.3194 L 216.6094,82.013632 H 213.4194 V 100.93363 H 215.6194 V 91.418632 C 215.6194,88.503632 215.3169,85.093632 215.2894,84.736132 Z"
         id="path845" />
      <path
         d="M 232.14687,94.498632 H 241.88187 C 241.90937,94.196132 241.93687,93.756132 241.93687,93.261132 241.93687,88.861132 239.70937,86.138632 235.96937,86.138632 232.22937,86.138632 229.75437,89.328632 229.75437,93.701132 229.75437,98.211132 232.14687,101.23613 236.38187,101.23613 238.16937,101.23613 239.98437,100.60363 241.33187,99.558632 L 240.25937,97.991132 C 238.99437,99.008632 237.70187,99.338632 236.38187,99.338632 234.15437,99.338632 232.25687,97.881132 232.14687,94.498632 Z M 235.99687,88.036132 C 238.27937,88.036132 239.68187,89.631132 239.73687,92.738632 H 232.14687 C 232.33937,89.548632 233.93437,88.036132 235.99687,88.036132 Z"
         id="path847" />
      <path
         d="M 246.63935,100.93363 H 256.37435 V 99.118632 H 252.30435 V 92.271132 C 252.79935,90.263632 254.31185,88.366132 256.26435,88.366132 256.86935,88.366132 257.30935,88.448632 257.94185,88.613632 L 258.35435,86.358632 C 257.66685,86.193632 257.17185,86.138632 256.45685,86.138632 254.72435,86.138632 253.12935,87.183632 252.27685,89.246132 L 252.00185,86.468632 H 246.63935 V 88.256132 H 250.02185 V 99.118632 H 246.63935 Z"
         id="path849" />
      <path
         d="M 274.24932,80.611132 271.96682,80.336132 V 87.871132 C 271.00432,86.743632 269.73932,86.138632 268.08932,86.138632 264.51432,86.138632 262.39682,89.356132 262.39682,93.728632 262.39682,98.211132 264.12932,101.23613 267.92432,101.23613 269.51932,101.23613 270.94932,100.54863 272.02182,99.036132 L 272.24182,100.93363 H 274.24932 Z M 268.66682,87.981132 C 270.01432,87.981132 271.19682,88.696132 271.96682,89.851132 V 97.111132 C 271.19682,98.293632 270.04182,99.393632 268.39182,99.393632 266.10932,99.393632 264.89932,97.468632 264.89932,93.701132 264.89932,89.878632 266.24682,87.981132 268.66682,87.981132 Z"
         id="path851" />
      <path
         d="M 299.63177,90.593632 V 83.938632 H 308.12927 L 308.43177,82.013632 H 297.29427 V 100.93363 H 299.63177 V 92.491132 H 307.05677 V 90.593632 Z"
         id="path853" />
      <path
         d="M 318.22174,86.138632 C 314.15174,86.138632 311.97924,89.246132 311.97924,93.701132 311.97924,98.266132 314.12424,101.23613 318.19424,101.23613 322.23674,101.23613 324.40924,98.101132 324.40924,93.673632 324.40924,89.108632 322.29174,86.138632 318.22174,86.138632 Z M 318.22174,88.008632 C 320.69674,88.008632 321.96174,89.823632 321.96174,93.673632 321.96174,97.551132 320.69674,99.366132 318.19424,99.366132 315.69174,99.366132 314.42674,97.551132 314.42674,93.701132 314.42674,89.823632 315.71924,88.008632 318.22174,88.008632 Z"
         id="path855" />
      <path
         d="M 329.19421,86.468632 V 100.93363 H 331.47671 V 90.373632 C 332.21921,89.246132 333.67671,87.953632 335.40921,87.953632 337.60921,87.953632 337.88421,89.163632 337.88421,92.133632 V 100.93363 H 340.16671 V 90.428632 C 340.16671,87.733632 338.92921,86.138632 336.09671,86.138632 334.39171,86.138632 332.49421,86.991132 331.31171,88.476132 L 331.14671,86.468632 Z"
         id="path857" />
      <path
         d="M 357.13419,100.21863 356.25419,98.651132 C 355.45669,99.063632 354.54919,99.338632 353.47669,99.338632 351.46919,99.338632 350.69919,98.486132 350.69919,96.863632 V 88.228632 H 355.42919 L 355.70419,86.468632 H 350.69919 V 82.893632 L 348.41669,83.168632 V 86.468632 H 345.08919 V 88.228632 H 348.41669 V 96.891132 C 348.41669,99.448632 350.17669,101.23613 353.25669,101.23613 354.60419,101.23613 356.14419,100.85113 357.13419,100.21863 Z"
         id="path859" />
    </g>
    <g
       aria-label="abcdefghijklmnopqrstuvwxyzABCDEFGHIJKLMNOPQRSTUVWXYZ oO08 iIlL1 {} [] g9qCGQ ~-+=&gt;"
       id="text4140"
       style="font-size:27.5px;line-height:125%;font-family:'FuraMono Nerd Font';letter-spacing:0px;word-spacing:0px;fill:#ffffff;stroke-width:1px">
      <path
         d="M 73.766903,138.93862 V 134.49362 C 73.766903,132.67362 72.611903,131.51862 70.319403,131.51862 69.426903,131.51862 68.446903,131.69362 67.326903,132.11362 L 67.711903,133.19862 C 68.656903,132.86612 69.496903,132.74362 70.109403,132.74362 71.474403,132.74362 72.296903,133.23362 72.296903,134.56362 V 135.33362 H 70.949403 C 68.149403,135.33362 66.626903,136.40112 66.626903,138.29112 66.626903,140.00612 67.746903,141.12612 69.601903,141.12612 70.791903,141.12612 71.824403,140.68862 72.489403,139.83112 72.751903,140.65362 73.381903,141.03862 74.169403,141.14362 L 74.519403,140.11112 C 74.011903,139.95362 73.766903,139.67362 73.766903,138.93862 Z M 69.969403,140.02362 C 68.761903,140.02362 68.184403,139.42862 68.184403,138.27362 68.184403,137.08362 68.919403,136.33112 70.966903,136.33112 H 72.296903 V 138.71112 C 71.754403,139.55112 70.879403,140.02362 69.969403,140.02362 Z"
         style="font-size:17.5px"
         id="path862" />
      <path
         d="M 79.121886,132.91862 V 127.82612 L 77.669386,128.00112 V 140.93362 H 78.946886 L 79.051886,139.97112 C 79.664386,140.77612 80.486886,141.12612 81.554386,141.12612 83.934386,141.12612 85.211886,139.11362 85.211886,136.31362 85.211886,133.42612 84.214386,131.51862 81.746886,131.51862 80.696886,131.51862 79.786886,132.02612 79.121886,132.91862 Z M 81.221886,139.95362 C 80.364386,139.95362 79.611886,139.49862 79.121886,138.76362 V 134.17862 C 79.611886,133.44362 80.399386,132.69112 81.431886,132.69112 82.866886,132.69112 83.619386,133.89862 83.619386,136.31362 83.619386,138.78112 82.761886,139.95362 81.221886,139.95362 Z"
         style="font-size:17.5px"
         id="path864" />
      <path
         d="M 92.299369,139.88362 C 90.724369,139.88362 89.569369,138.83362 89.569369,136.36612 89.569369,133.93362 90.706869,132.74362 92.299369,132.74362 93.121869,132.74362 93.891869,133.02362 94.661869,133.60112 L 95.396869,132.60362 C 94.521869,131.88612 93.506869,131.51862 92.316869,131.51862 89.569369,131.51862 87.994369,133.60112 87.994369,136.36612 87.994369,139.25362 89.551869,141.12612 92.299369,141.12612 93.384369,141.12612 94.609369,140.70612 95.414369,140.02362 L 94.714369,139.00862 C 94.031869,139.55112 93.244369,139.88362 92.299369,139.88362 Z"
         style="font-size:17.5px"
         id="path866" />
      <path
         d="M 105.59935,128.00112 104.14685,127.82612 V 132.62112 C 103.53435,131.90362 102.72935,131.51862 101.67935,131.51862 99.404352,131.51862 98.056852,133.56612 98.056852,136.34862 98.056852,139.20112 99.159352,141.12612 101.57435,141.12612 102.58935,141.12612 103.49935,140.68862 104.18185,139.72612 L 104.32185,140.93362 H 105.59935 Z M 102.04685,132.69112 C 102.90435,132.69112 103.65685,133.14612 104.14685,133.88112 V 138.50112 C 103.65685,139.25362 102.92185,139.95362 101.87185,139.95362 100.41935,139.95362 99.649352,138.72862 99.649352,136.33112 99.649352,133.89862 100.50685,132.69112 102.04685,132.69112 Z"
         style="font-size:17.5px"
         id="path868" />
      <path
         d="M 110.25433,136.83862 H 116.44933 C 116.46683,136.64612 116.48433,136.36612 116.48433,136.05112 116.48433,133.25112 115.06683,131.51862 112.68683,131.51862 110.30683,131.51862 108.73183,133.54862 108.73183,136.33112 108.73183,139.20112 110.25433,141.12612 112.94933,141.12612 114.08683,141.12612 115.24183,140.72362 116.09933,140.05862 L 115.41683,139.06112 C 114.61183,139.70862 113.78933,139.91862 112.94933,139.91862 111.53183,139.91862 110.32433,138.99112 110.25433,136.83862 Z M 112.70433,132.72612 C 114.15683,132.72612 115.04933,133.74112 115.08433,135.71862 H 110.25433 C 110.37683,133.68862 111.39183,132.72612 112.70433,132.72612 Z"
         style="font-size:17.5px"
         id="path870" />
      <path
         d="M 125.02432,127.82612 C 123.13432,127.82612 121.68182,128.89362 121.68182,130.59112 V 132.42862 H 119.47682 V 133.58362 H 121.68182 V 140.93362 H 123.13432 V 133.58362 H 126.10932 L 126.26682,132.42862 H 123.13432 V 130.55612 C 123.13432,129.52362 123.78182,129.01612 125.07682,129.01612 125.77682,129.01612 126.45932,129.13862 127.05432,129.41862 L 127.52682,128.33362 C 126.79182,128.01862 126.02182,127.82612 125.02432,127.82612 Z"
         style="font-size:17.5px"
         id="path872" />
      <path
         d="M 138.0093,132.13112 137.5543,130.74862 C 136.4868,131.22112 135.6818,131.51862 133.3718,131.51862 131.1843,131.51862 129.6968,132.84862 129.6968,134.72112 129.6968,135.91112 130.1868,136.71612 131.2368,137.25862 130.5718,137.69612 130.2218,138.29112 130.2218,138.86862 130.2218,139.77862 130.9393,140.60112 132.5493,140.60112 H 134.1943 C 135.3668,140.60112 136.2768,141.05612 136.2768,141.93112 136.2768,142.94612 135.3668,143.45362 133.3368,143.45362 131.2718,143.45362 130.7818,142.94612 130.7818,141.86112 H 129.4693 C 129.4693,143.75112 130.4143,144.64362 133.3543,144.64362 136.1543,144.64362 137.7468,143.64612 137.7468,141.84362 137.7468,140.42612 136.3468,139.34112 134.4918,139.34112 H 132.8293 C 131.8843,139.34112 131.6043,139.00862 131.6043,138.57112 131.6043,138.22112 131.7968,137.87112 132.0768,137.66112 132.4618,137.78362 132.8293,137.85362 133.4593,137.85362 135.6293,137.85362 136.9243,136.54112 136.9243,134.70362 136.9243,133.65362 136.3818,132.88362 135.3143,132.39362 136.3468,132.39362 137.2218,132.35862 138.0093,132.13112 Z M 133.3543,132.58612 C 134.7193,132.58612 135.4018,133.32112 135.4018,134.70362 135.4018,136.06862 134.7018,136.87362 133.3893,136.87362 131.8843,136.87362 131.1843,135.98112 131.1843,134.72112 131.1843,133.47862 131.8668,132.58612 133.3543,132.58612 Z"
         style="font-size:17.5px"
         id="path874" />
      <path
         d="M 142.01678,132.98862 V 127.86112 L 140.56428,128.03612 V 140.93362 H 142.01678 V 134.21362 C 142.48928,133.49612 143.43428,132.67362 144.50178,132.67362 145.58678,132.67362 146.09428,133.16362 146.09428,134.26612 V 140.93362 H 147.54678 V 134.24862 C 147.54678,132.53362 146.75928,131.51862 144.95678,131.51862 143.87178,131.51862 142.73428,132.02612 142.01678,132.98862 Z"
         style="font-size:17.5px"
         id="path876" />
      <path
         d="M 154.52927,127.40612 C 153.91677,127.40612 153.47927,127.86112 153.47927,128.43862 153.47927,129.03362 153.91677,129.47112 154.52927,129.47112 155.17677,129.47112 155.59677,129.03362 155.59677,128.43862 155.59677,127.86112 155.17677,127.40612 154.52927,127.40612 Z M 155.70177,139.77862 V 131.72862 H 151.48427 V 132.86612 H 154.24927 V 139.77862 H 151.39677 V 140.93362 H 158.29177 V 139.77862 Z"
         style="font-size:17.5px"
         id="path878" />
      <path
         d="M 166.18425,127.40612 C 165.55425,127.40612 165.13425,127.86112 165.13425,128.43862 165.13425,129.03362 165.55425,129.47112 166.18425,129.47112 166.81425,129.47112 167.25175,129.03362 167.25175,128.43862 167.25175,127.86112 166.81425,127.40612 166.18425,127.40612 Z M 167.54925,139.48112 V 131.72862 H 162.24675 V 132.86612 H 166.09675 V 139.56862 C 166.09675,142.03612 164.17175,143.06862 161.44175,143.52362 L 161.68675,144.64362 C 165.37925,144.01362 167.54925,142.54362 167.54925,139.48112 Z"
         style="font-size:17.5px"
         id="path880" />
      <path
         d="M 173.55173,140.93362 V 127.82612 L 172.09923,128.00112 V 140.93362 Z M 175.54673,135.87612 179.71173,131.72862 H 177.82173 L 173.72673,135.89362 178.27673,140.93362 H 180.20173 Z"
         style="font-size:17.5px"
         id="path882" />
      <path
         d="M 186.06422,138.67612 V 128.00112 H 181.77672 V 129.15612 H 184.61172 V 138.58862 C 184.61172,140.18112 185.73172,141.12612 187.34172,141.12612 188.28672,141.12612 189.03922,140.91612 189.52922,140.65362 L 189.14422,139.60362 C 188.63672,139.79612 188.14672,139.91862 187.58672,139.91862 186.69422,139.91862 186.06422,139.58612 186.06422,138.67612 Z"
         style="font-size:17.5px"
         id="path884" />
      <path
         d="M 199.0317,131.51862 C 198.0867,131.51862 197.5092,132.02612 197.0017,132.74362 196.7217,131.79862 196.0392,131.51862 195.3392,131.51862 194.4117,131.51862 193.8342,132.07862 193.3267,132.79612 L 193.2392,131.72862 H 192.1017 V 140.93362 H 193.4492 V 133.77612 C 193.9567,132.98862 194.4817,132.65612 195.0592,132.65612 195.7242,132.65612 195.7767,133.14612 195.7767,134.31862 V 140.93362 H 197.1417 V 133.77612 C 197.6492,132.98862 198.2092,132.65612 198.7517,132.65612 199.4167,132.65612 199.4692,133.14612 199.4692,134.31862 V 140.93362 H 200.8167 V 134.07362 C 200.8167,131.95612 199.9067,131.51862 199.0317,131.51862 Z"
         style="font-size:17.5px"
         id="path886" />
      <path
         d="M 203.45918,131.72862 V 140.93362 H 204.91168 V 134.21362 C 205.38418,133.49612 206.31168,132.67362 207.41418,132.67362 208.81418,132.67362 208.98918,133.44362 208.98918,135.33362 V 140.93362 H 210.44168 V 134.24862 C 210.44168,132.53362 209.65418,131.51862 207.85168,131.51862 206.76668,131.51862 205.55918,132.06112 204.80668,133.00612 L 204.70168,131.72862 Z"
         style="font-size:17.5px"
         id="path888" />
      <path
         d="M 217.44166,131.51862 C 214.85166,131.51862 213.46916,133.49612 213.46916,136.33112 213.46916,139.23612 214.83416,141.12612 217.42416,141.12612 219.99666,141.12612 221.37916,139.13112 221.37916,136.31362 221.37916,133.40862 220.03166,131.51862 217.44166,131.51862 Z M 217.44166,132.70862 C 219.01666,132.70862 219.82166,133.86362 219.82166,136.31362 219.82166,138.78112 219.01666,139.93612 217.42416,139.93612 215.83166,139.93612 215.02666,138.78112 215.02666,136.33112 215.02666,133.86362 215.84916,132.70862 217.44166,132.70862 Z"
         style="font-size:17.5px"
         id="path890" />
      <path
         d="M 228.53665,131.51862 C 227.41665,131.51862 226.45415,132.06112 225.77165,133.00612 L 225.64915,131.72862 H 224.42415 V 144.64362 L 225.87665,144.46862 V 140.07612 C 226.48915,140.77612 227.31165,141.12612 228.30915,141.12612 230.70665,141.12612 231.86165,139.11362 231.86165,136.31362 231.86165,133.42612 230.98665,131.51862 228.53665,131.51862 Z M 228.18665,132.69112 C 229.63915,132.69112 230.30415,133.89862 230.30415,136.31362 230.30415,138.78112 229.53415,139.91862 227.99415,139.91862 227.11915,139.91862 226.34915,139.48112 225.87665,138.76362 V 134.17862 C 226.36665,133.44362 227.15415,132.69112 228.18665,132.69112 Z"
         style="font-size:17.5px"
         id="path892" />
      <path
         d="M 237.93413,131.51862 C 235.65913,131.51862 234.43413,133.56612 234.43413,136.34862 234.43413,139.23612 235.34413,141.12612 237.82913,141.12612 238.82663,141.12612 239.73663,140.70612 240.41913,139.76112 V 144.46862 L 241.87163,144.64362 V 131.72862 H 240.62913 L 240.50663,132.72612 C 239.89413,131.95612 239.05413,131.51862 237.93413,131.51862 Z M 238.30163,132.69112 C 239.17663,132.69112 239.94663,133.14612 240.41913,133.88112 V 138.50112 C 239.92913,139.25362 239.15913,139.91862 238.12663,139.91862 236.69163,139.91862 235.99163,138.72862 235.99163,136.33112 235.99163,133.89862 236.76163,132.69112 238.30163,132.69112 Z"
         style="font-size:17.5px"
         id="path894" />
      <path
         d="M 245.26661,140.93362 H 251.46161 V 139.77862 H 248.87161 V 135.42112 C 249.18661,134.14362 250.14911,132.93612 251.39161,132.93612 251.77661,132.93612 252.05661,132.98862 252.45911,133.09362 L 252.72161,131.65862 C 252.28411,131.55362 251.96911,131.51862 251.51411,131.51862 250.41161,131.51862 249.39661,132.18362 248.85411,133.49612 L 248.67911,131.72862 H 245.26661 V 132.86612 H 247.41911 V 139.77862 H 245.26661 Z"
         style="font-size:17.5px"
         id="path896" />
      <path
         d="M 259.0041,139.93612 C 257.9191,139.93612 256.9391,139.53362 256.2216,138.93862 L 255.3991,139.88362 C 256.1866,140.56612 257.3241,141.12612 258.9866,141.12612 260.9641,141.12612 262.8716,140.35612 262.8716,138.39612 262.8716,136.66362 261.6816,136.03362 259.8791,135.54362 258.0066,135.03612 257.4291,134.75612 257.4291,133.91612 257.4291,133.21612 257.9716,132.70862 259.4416,132.70862 260.6316,132.70862 261.4191,133.05862 262.1016,133.53112 L 262.7491,132.55112 C 261.9791,131.97362 260.8941,131.51862 259.4066,131.51862 257.3416,131.51862 255.9241,132.49862 255.9241,134.03862 255.9241,135.64862 257.1491,136.20862 259.0741,136.68112 261.0166,137.17112 261.2966,137.62612 261.2966,138.46612 261.2966,139.35862 260.4216,139.93612 259.0041,139.93612 Z"
         style="font-size:17.5px"
         id="path898" />
      <path
         d="M 273.65158,140.47862 273.09158,139.48112 C 272.58408,139.74362 272.00658,139.91862 271.32408,139.91862 270.04658,139.91862 269.55658,139.37612 269.55658,138.34362 V 132.84862 H 272.56658 L 272.74158,131.72862 H 269.55658 V 129.45362 L 268.10408,129.62862 V 131.72862 H 265.98658 V 132.84862 H 268.10408 V 138.36112 C 268.10408,139.98862 269.22408,141.12612 271.18408,141.12612 272.04158,141.12612 273.02158,140.88112 273.65158,140.47862 Z"
         style="font-size:17.5px"
         id="path900" />
      <path
         d="M 278.28906,138.25612 V 131.72862 H 276.83656 V 138.43112 C 276.83656,140.12862 277.71156,141.12612 279.49656,141.12612 280.56406,141.12612 281.71906,140.61862 282.43656,139.69112 L 282.55906,140.93362 H 283.80156 V 131.72862 H 282.34906 V 138.50112 C 281.85906,139.28862 280.86156,139.97112 279.84656,139.97112 278.77906,139.97112 278.28906,139.46362 278.28906,138.25612 Z"
         style="font-size:17.5px"
         id="path902" />
      <path
         d="M 291.62404,140.93362 294.98404,131.72862 H 293.47904 L 290.83654,139.60362 288.15904,131.72862 H 286.61904 L 289.94404,140.93362 Z"
         style="font-size:17.5px"
         id="path904" />
      <path
         d="M 302.54403,140.93362 H 304.60903 L 306.21903,131.72862 H 304.80153 L 303.61153,139.77862 H 303.54153 L 302.22903,132.90112 H 300.49653 L 299.09653,139.81362 H 299.02653 L 297.83653,131.72862 H 296.34903 L 298.02903,140.93362 H 300.04153 L 301.28403,134.31862 H 301.35403 Z"
         style="font-size:17.5px"
         id="path906" />
      <path
         d="M 307.49651,140.93362 H 309.15901 L 311.71401,136.97862 314.25151,140.93362 H 316.03651 L 312.64151,135.99862 315.61651,131.72862 H 313.95401 L 311.78401,135.15862 309.63151,131.72862 H 307.91651 L 310.90901,136.06862 Z"
         style="font-size:17.5px"
         id="path908" />
      <path
         d="M 323.17649,140.98612 326.41399,131.72862 H 324.90899 L 322.30149,139.83112 319.64149,131.72862 H 318.08399 L 321.30399,140.93362 H 321.79399 C 321.30399,142.36862 320.76149,143.13862 318.85399,143.47112 L 319.08149,144.64362 C 321.51399,144.38112 322.52899,142.85862 323.17649,140.98612 Z"
         style="font-size:17.5px"
         id="path910" />
      <path
         d="M 336.19648,139.69112 H 331.05148 L 336.14398,132.84862 V 131.72862 H 329.68648 V 132.98862 H 334.39398 L 329.28398,139.83112 V 140.93362 H 336.00398 Z"
         style="font-size:17.5px"
         id="path912" />
      <path
         d="M 68.236903,159.72862 H 73.014403 L 73.976903,162.80862 H 75.551903 L 71.631903,150.76862 H 69.706903 L 65.786903,162.80862 H 67.256903 Z M 72.629403,158.48612 H 68.621903 L 70.634403,152.02862 Z"
         style="font-size:17.5px"
         id="path914" />
      <path
         d="M 85.334386,159.37862 C 85.334386,157.33112 83.899386,156.64862 82.569386,156.42112 83.724386,156.17612 84.809386,155.35362 84.809386,153.79612 84.809386,151.43362 82.656886,150.76862 80.556886,150.76862 H 77.599386 V 162.80862 H 80.819386 C 83.041886,162.80862 85.334386,162.00362 85.334386,159.37862 Z M 83.269386,153.88362 C 83.269386,155.28362 82.481886,155.89612 81.046886,155.89612 H 79.086886 V 151.97612 H 80.906886 C 82.359386,151.97612 83.269386,152.50112 83.269386,153.88362 Z M 83.759386,159.43112 C 83.759386,161.21612 82.271886,161.56612 81.099386,161.56612 H 79.086886 V 157.13862 H 81.169386 C 82.569386,157.13862 83.759386,157.59362 83.759386,159.43112 Z"
         style="font-size:17.5px"
         id="path916" />
      <path
         d="M 92.649369,150.55862 C 89.866869,150.55862 87.504369,152.71112 87.504369,156.77112 87.504369,160.83112 89.779369,163.00112 92.719369,163.00112 94.434369,163.00112 95.589369,162.40612 96.306869,161.70612 L 95.536869,160.70862 C 94.889369,161.23362 94.084369,161.72362 92.736869,161.72362 90.671869,161.72362 89.061869,160.37612 89.061869,156.77112 89.061869,153.07862 90.776869,151.81862 92.754369,151.81862 93.681869,151.81862 94.521869,152.08112 95.291869,152.71112 L 96.131869,151.73112 C 95.186869,150.97862 94.224369,150.55862 92.649369,150.55862 Z"
         style="font-size:17.5px"
         id="path918" />
      <path
         d="M 106.52685,156.71862 C 106.52685,151.71362 103.70935,150.76862 100.89185,150.76862 H 98.336852 V 162.80862 H 101.08435 C 103.58685,162.80862 106.52685,161.77612 106.52685,156.71862 Z M 104.93435,156.71862 C 104.93435,160.72612 103.00935,161.60112 101.27685,161.60112 H 99.824352 V 151.99362 H 101.25935 C 102.92185,151.99362 104.93435,152.51862 104.93435,156.71862 Z"
         style="font-size:17.5px"
         id="path920" />
      <path
         d="M 111.05933,156.07112 V 151.99362 H 116.20433 L 116.37933,150.76862 H 109.55433 V 162.80862 H 116.53683 V 161.60112 H 111.05933 V 157.31362 H 115.52183 V 156.07112 Z"
         style="font-size:17.5px"
         id="path922" />
      <path
         d="M 121.75182,156.22862 V 151.99362 H 127.15932 L 127.35182,150.76862 H 120.26432 V 162.80862 H 121.75182 V 157.43612 H 126.47682 V 156.22862 Z"
         style="font-size:17.5px"
         id="path924" />
      <path
         d="M 133.8093,163.00112 C 135.5068,163.00112 136.6443,162.54612 137.7293,161.96862 V 156.22862 H 133.6868 L 133.8618,157.47112 H 136.2418 V 161.16362 C 135.5418,161.54862 134.7718,161.74112 133.9318,161.74112 131.8318,161.74112 130.7118,160.28862 130.7118,156.77112 130.7118,153.06112 132.4093,151.83612 134.1593,151.83612 135.1568,151.83612 135.9443,152.15112 136.6793,152.83362 L 137.5893,151.88862 C 136.6443,151.01362 135.7168,150.55862 134.1593,150.55862 131.5693,150.55862 129.1193,152.62362 129.1193,156.77112 129.1193,160.93612 130.9568,163.00112 133.8093,163.00112 Z"
         style="font-size:17.5px"
         id="path926" />
      <path
         d="M 146.33928,157.06862 V 162.80862 H 147.82678 V 150.76862 H 146.33928 V 155.86112 H 141.75428 V 150.76862 H 140.26678 V 162.80862 H 141.75428 V 157.06862 Z"
         style="font-size:17.5px"
         id="path928" />
      <path
         d="M 157.97677,151.95862 V 150.76862 H 151.08177 V 151.95862 H 153.77677 V 161.60112 H 151.08177 V 162.80862 H 157.97677 V 161.60112 H 155.28177 V 151.95862 Z"
         style="font-size:17.5px"
         id="path930" />
      <path
         d="M 168.44175,158.81862 V 150.76862 H 163.38425 V 151.99362 H 166.95425 V 158.73112 C 166.95425,160.60362 166.00925,161.75862 164.32925,161.75862 163.61175,161.75862 162.75425,161.58362 161.70425,160.91862 L 161.03925,161.91612 C 161.98425,162.63362 163.15675,163.01862 164.34675,163.01862 167.51425,163.01862 168.44175,160.81362 168.44175,158.81862 Z"
         style="font-size:17.5px"
         id="path932" />
      <path
         d="M 172.09923,162.80862 H 173.58673 V 150.76862 H 172.09923 Z M 178.43423,150.76862 173.67423,156.36862 178.62673,162.80862 H 180.49923 L 175.44173,156.28112 180.16673,150.76862 Z"
         style="font-size:17.5px"
         id="path934" />
      <path
         d="M 183.10672,150.76862 V 162.80862 H 189.93172 L 190.10672,161.46112 H 184.61172 V 150.76862 Z"
         style="font-size:17.5px"
         id="path936" />
      <path
         d="M 201.1667,162.80862 200.4842,150.76862 H 198.3667 L 196.4942,159.01112 194.5342,150.76862 H 192.4342 L 191.7517,162.80862 H 193.1517 L 193.4842,156.49112 C 193.5542,154.98612 193.5542,152.78112 193.5542,152.48362 H 193.6242 L 195.6892,160.63862 H 197.2117 L 199.2067,152.48362 H 199.2417 C 199.2417,152.72862 199.2592,154.82862 199.3467,156.49112 L 199.7317,162.80862 Z"
         style="font-size:17.5px"
         id="path938" />
      <path
         d="M 204.42168,152.50112 208.62168,162.80862 H 210.72168 V 150.76862 H 209.32168 V 156.80612 C 209.32168,158.97612 209.51418,160.91862 209.53168,161.12862 H 209.46168 L 205.19168,150.76862 H 203.16168 V 162.80862 H 204.56168 V 156.75362 C 204.56168,154.89862 204.36918,152.72862 204.35168,152.50112 Z"
         style="font-size:17.5px"
         id="path940" />
      <path
         d="M 221.85166,156.78862 C 221.85166,153.07862 220.34666,150.55862 217.42416,150.55862 214.50166,150.55862 212.99666,153.16612 212.99666,156.82362 212.99666,160.53362 214.50166,163.00112 217.42416,163.00112 220.34666,163.00112 221.85166,160.44612 221.85166,156.78862 Z M 220.29416,156.78862 C 220.29416,160.00862 219.45416,161.74112 217.42416,161.74112 215.44666,161.74112 214.55416,160.02612 214.55416,156.82362 214.55416,153.60362 215.37666,151.83612 217.42416,151.83612 219.47166,151.83612 220.29416,153.58612 220.29416,156.78862 Z"
         style="font-size:17.5px"
         id="path942" />
      <path
         d="M 232.40415,154.46112 C 232.40415,151.94112 230.61915,150.76862 227.74915,150.76862 H 224.70415 V 162.80862 H 226.19165 V 158.32862 H 227.74915 C 230.46165,158.32862 232.40415,157.27862 232.40415,154.46112 Z M 230.79415,154.47862 C 230.79415,156.54362 229.56915,157.12112 227.88915,157.12112 H 226.19165 V 151.95862 H 227.94165 C 229.58665,151.95862 230.79415,152.60612 230.79415,154.47862 Z"
         style="font-size:17.5px"
         id="path944" />
      <path
         d="M 242.81663,156.78862 C 242.81663,153.07862 241.31163,150.55862 238.38913,150.55862 235.44913,150.55862 233.94413,153.16612 233.94413,156.82362 233.94413,160.53362 235.44913,162.96612 238.21413,162.96612 240.29663,162.96612 241.17163,163.98112 241.90663,165.83612 L 243.49913,165.20612 C 242.90413,163.45612 242.01163,162.68612 240.41913,162.35362 242.16913,161.32112 242.81663,159.36112 242.81663,156.78862 Z M 241.25913,156.78862 C 241.25913,160.00862 240.41913,161.74112 238.38913,161.74112 236.39413,161.74112 235.50163,160.02612 235.50163,156.82362 235.50163,153.60362 236.34163,151.81862 238.38913,151.81862 240.41913,151.81862 241.25913,153.58612 241.25913,156.78862 Z"
         style="font-size:17.5px"
         id="path946" />
      <path
         d="M 253.01911,154.12862 C 253.01911,151.90612 251.46161,150.76862 248.48661,150.76862 H 245.40661 V 162.80862 H 246.91161 V 157.62862 H 248.55661 L 251.84661,162.80862 H 253.64911 L 250.06161,157.45362 C 251.74161,157.05112 253.01911,155.94862 253.01911,154.12862 Z M 251.40911,154.12862 C 251.40911,155.80862 250.41161,156.45612 248.67911,156.45612 H 246.91161 V 151.95862 H 248.66161 C 250.53411,151.95862 251.40911,152.58862 251.40911,154.12862 Z"
         style="font-size:17.5px"
         id="path948" />
      <path
         d="M 263.4841,159.46612 C 263.4841,157.17362 261.8391,156.38612 259.9666,155.84362 257.6741,155.17862 256.9216,154.65362 256.9216,153.62112 256.9216,152.41362 258.0241,151.81862 259.3366,151.81862 260.3691,151.81862 261.3841,152.15112 262.2416,152.92112 L 263.1341,151.94112 C 262.1191,151.06612 260.9466,150.55862 259.3016,150.55862 256.9916,150.55862 255.3991,151.85362 255.3991,153.65612 255.3991,155.58112 256.9041,156.43862 259.2841,157.13862 261.3666,157.75112 261.9266,158.32862 261.9266,159.50112 261.9266,161.02362 260.5791,161.74112 259.1266,161.74112 257.6391,161.74112 256.6066,161.25112 255.7666,160.46362 L 254.8741,161.47862 C 255.8891,162.45862 257.3416,163.00112 259.0916,163.00112 261.8916,163.00112 263.4841,161.54862 263.4841,159.46612 Z"
         style="font-size:17.5px"
         id="path950" />
      <path
         d="M 270.55408,162.80862 V 152.04612 H 274.21158 L 274.36908,150.76862 H 265.28658 V 152.04612 H 269.06658 V 162.80862 Z"
         style="font-size:17.5px"
         id="path952" />
      <path
         d="M 284.29156,158.90612 V 150.76862 H 282.78656 V 158.97612 C 282.78656,160.81362 281.87656,161.70612 280.30156,161.70612 278.74406,161.70612 277.83406,160.81362 277.83406,158.97612 V 150.76862 H 276.34656 V 158.90612 C 276.34656,161.33862 277.83406,163.00112 280.30156,163.00112 282.73406,163.00112 284.29156,161.35612 284.29156,158.90612 Z"
         style="font-size:17.5px"
         id="path954" />
      <path
         d="M 294.10904,150.76862 290.83654,161.09362 287.59904,150.76862 H 285.98904 L 290.03154,162.80862 H 291.57154 L 295.61404,150.76862 Z"
         style="font-size:17.5px"
         id="path956" />
      <path
         d="M 304.60903,162.80862 306.44653,150.76862 H 305.06403 L 303.62903,160.93612 H 303.55903 L 302.22903,152.16862 H 300.37403 L 298.93903,161.00612 H 298.86903 L 297.62653,150.76862 H 296.12153 L 297.81903,162.80862 H 299.84903 L 301.21403,153.97112 H 301.28403 L 302.63153,162.80862 Z"
         style="font-size:17.5px"
         id="path958" />
      <path
         d="M 309.10651,150.76862 H 307.39151 L 310.85651,156.38612 307.05901,162.80862 H 308.66901 L 311.73151,157.34862 314.74151,162.80862 H 316.47401 L 312.62401,156.29862 316.05401,150.76862 H 314.42651 L 311.76651,155.40612 Z"
         style="font-size:17.5px"
         id="path960" />
      <path
         d="M 323.00149,162.80862 V 158.15362 L 327.07899,150.76862 H 325.52149 L 322.28399,156.80612 319.08149,150.76862 H 317.41899 L 321.49649,158.17112 V 162.80862 Z"
         style="font-size:17.5px"
         id="path962" />
      <path
         d="M 336.70398,161.51362 H 330.38648 L 336.72148,151.99362 V 150.76862 H 329.37148 V 152.04612 H 335.11148 L 328.74148,161.58362 V 162.80862 H 336.52898 Z"
         style="font-size:17.5px"
         id="path964" />
      <path
         d="M 70.686903,175.26862 C 68.096903,175.26862 66.714403,177.24612 66.714403,180.08112 66.714403,182.98612 68.079403,184.87612 70.669403,184.87612 73.241903,184.87612 74.624403,182.88112 74.624403,180.06362 74.624403,177.15862 73.276903,175.26862 70.686903,175.26862 Z M 70.686903,176.45862 C 72.261903,176.45862 73.066903,177.61362 73.066903,180.06362 73.066903,182.53112 72.261903,183.68612 70.669403,183.68612 69.076903,183.68612 68.271903,182.53112 68.271903,180.08112 68.271903,177.61362 69.094403,176.45862 70.686903,176.45862 Z"
         style="font-size:17.5px"
         id="path966" />
      <path
         d="M 85.579386,178.66362 C 85.579386,174.95362 84.074386,172.43362 81.151886,172.43362 78.229386,172.43362 76.724386,175.04112 76.724386,178.69862 76.724386,182.40862 78.229386,184.87612 81.151886,184.87612 84.074386,184.87612 85.579386,182.32112 85.579386,178.66362 Z M 84.021886,178.66362 C 84.021886,181.88362 83.181886,183.61612 81.151886,183.61612 79.174386,183.61612 78.281886,181.90112 78.281886,178.69862 78.281886,175.47862 79.104386,173.71112 81.151886,173.71112 83.199386,173.71112 84.021886,175.46112 84.021886,178.66362 Z"
         style="font-size:17.5px"
         id="path968" />
      <path
         d="M 91.634369,172.43362 C 89.044369,172.43362 87.696869,174.65612 87.696869,178.64612 87.696869,182.65362 89.044369,184.87612 91.634369,184.87612 94.224369,184.87612 95.571869,182.65362 95.571869,178.64612 95.571869,174.65612 94.224369,172.43362 91.634369,172.43362 Z M 91.634369,173.62362 C 93.156869,173.62362 94.049369,175.09362 94.049369,178.64612 94.049369,182.23362 93.156869,183.70362 91.634369,183.70362 90.129369,183.70362 89.219369,182.21612 89.219369,178.64612 89.219369,175.07612 90.146869,173.62362 91.634369,173.62362 Z M 91.634369,177.50862 C 90.986869,177.50862 90.496869,178.01612 90.496869,178.64612 90.496869,179.29362 90.986869,179.80112 91.634369,179.80112 92.299369,179.80112 92.789369,179.29362 92.789369,178.64612 92.789369,178.01612 92.299369,177.50862 91.634369,177.50862 Z"
         style="font-size:17.5px"
         id="path970" />
      <path
         d="M 105.72185,175.49612 C 105.72185,173.36112 103.86685,172.43362 102.11685,172.43362 100.54185,172.43362 98.511852,173.37862 98.511852,175.58362 98.511852,176.93112 99.159352,177.73612 100.43685,178.33112 98.966852,179.01362 98.021852,179.99362 98.021852,181.48112 98.021852,183.38862 99.509352,184.87612 102.08185,184.87612 104.61935,184.87612 106.21185,183.42362 106.21185,181.44612 106.21185,179.97612 105.19685,178.87362 103.63935,178.22612 104.96935,177.49112 105.72185,176.68612 105.72185,175.49612 Z M 99.946852,175.60112 C 99.946852,174.32362 100.75185,173.57112 102.11685,173.57112 103.49935,173.57112 104.28685,174.34112 104.28685,175.56612 104.28685,176.66862 103.72685,177.22862 102.60685,177.85862 100.96185,177.33362 99.946852,177.00112 99.946852,175.60112 Z M 104.68935,181.48112 C 104.68935,182.74112 103.76185,183.70362 102.08185,183.70362 100.40185,183.70362 99.544352,182.86362 99.544352,181.48112 99.544352,179.95862 100.43685,179.20612 101.43435,178.75112 103.34185,179.41612 104.68935,179.85362 104.68935,181.48112 Z"
         style="font-size:17.5px"
         id="path972" />
      <path
         d="M 123.08182,171.15612 C 122.46932,171.15612 122.03182,171.61112 122.03182,172.18862 122.03182,172.78362 122.46932,173.22112 123.08182,173.22112 123.72932,173.22112 124.14932,172.78362 124.14932,172.18862 124.14932,171.61112 123.72932,171.15612 123.08182,171.15612 Z M 124.25432,183.52862 V 175.47862 H 120.03682 V 176.61612 H 122.80182 V 183.52862 H 119.94932 V 184.68362 H 126.84432 V 183.52862 Z"
         style="font-size:17.5px"
         id="path974" />
      <path
         d="M 137.0118,173.83362 V 172.64362 H 130.1168 V 173.83362 H 132.8118 V 183.47612 H 130.1168 V 184.68362 H 137.0118 V 183.47612 H 134.3168 V 173.83362 Z"
         style="font-size:17.5px"
         id="path976" />
      <path
         d="M 144.13428,182.42612 V 171.75112 H 139.84678 V 172.90612 H 142.68178 V 182.33862 C 142.68178,183.93112 143.80178,184.87612 145.41178,184.87612 146.35678,184.87612 147.10928,184.66612 147.59928,184.40362 L 147.21428,183.35362 C 146.70678,183.54612 146.21678,183.66862 145.65678,183.66862 144.76428,183.66862 144.13428,183.33612 144.13428,182.42612 Z"
         style="font-size:17.5px"
         id="path978" />
      <path
         d="M 151.65927,172.64362 V 184.68362 H 158.48427 L 158.65927,183.33612 H 153.16427 V 172.64362 Z"
         style="font-size:17.5px"
         id="path980" />
      <path
         d="M 168.80925,183.49362 H 166.28925 V 172.64362 H 165.01175 L 161.44175,174.84862 162.07175,175.88112 164.83675,174.21862 V 183.49362 H 161.86175 V 184.68362 H 168.80925 Z"
         style="font-size:17.5px"
         id="path982" />
      <path
         d="M 188.61922,171.20862 V 170.07112 C 186.67672,170.07112 184.85672,170.64862 185.08422,172.78362 L 185.43422,176.14362 C 185.55672,177.33362 185.15422,177.98112 182.77422,177.98112 V 179.13612 C 185.13672,179.13612 185.55672,179.80112 185.43422,180.99112 L 185.08422,184.33362 C 184.85672,186.46862 186.67672,187.04612 188.61922,187.04612 V 185.90862 C 187.34172,185.90862 186.30922,185.59362 186.41422,184.50862 L 186.78172,180.90362 C 186.92172,179.36362 186.37922,178.78612 185.15422,178.55862 186.34422,178.33112 186.92172,177.68362 186.78172,176.21362 L 186.41422,172.60862 C 186.30922,171.54112 187.34172,171.20862 188.61922,171.20862 Z"
         style="font-size:17.5px"
         id="path984" />
      <path
         d="M 193.8167,170.07112 V 171.20862 C 195.0942,171.20862 196.1267,171.54112 196.0217,172.60862 L 195.6542,176.21362 C 195.5142,177.68362 196.0917,178.33112 197.4742,178.57612 196.0392,178.78612 195.5142,179.36362 195.6542,180.90362 L 196.0217,184.50862 C 196.1267,185.59362 195.0942,185.90862 193.8167,185.90862 V 187.04612 C 195.7592,187.04612 197.5792,186.46862 197.3517,184.33362 L 197.0017,180.99112 C 196.8792,179.80112 197.4917,179.13612 199.6617,179.13612 V 177.98112 C 197.4917,177.98112 196.8792,177.33362 197.0017,176.14362 L 197.3517,172.78362 C 197.5792,170.64862 195.7592,170.07112 193.8167,170.07112 Z"
         style="font-size:17.5px"
         id="path986" />
      <path
         d="M 215.39416,170.42112 V 186.69612 H 219.76916 V 185.47112 H 216.77666 V 171.66362 H 219.76916 V 170.42112 Z"
         style="font-size:17.5px"
         id="path988" />
      <path
         d="M 229.93665,186.69612 V 170.42112 H 225.56165 V 171.66362 H 228.55415 V 185.47112 H 225.56165 V 186.69612 Z"
         style="font-size:17.5px"
         id="path990" />
      <path
         d="M 253.31661,175.88112 252.86161,174.49862 C 251.79411,174.97112 250.98911,175.26862 248.67911,175.26862 246.49161,175.26862 245.00411,176.59862 245.00411,178.47112 245.00411,179.66112 245.49411,180.46612 246.54411,181.00862 245.87911,181.44612 245.52911,182.04112 245.52911,182.61862 245.52911,183.52862 246.24661,184.35112 247.85661,184.35112 H 249.50161 C 250.67411,184.35112 251.58411,184.80612 251.58411,185.68112 251.58411,186.69612 250.67411,187.20362 248.64411,187.20362 246.57911,187.20362 246.08911,186.69612 246.08911,185.61112 H 244.77661 C 244.77661,187.50112 245.72161,188.39362 248.66161,188.39362 251.46161,188.39362 253.05411,187.39612 253.05411,185.59362 253.05411,184.17612 251.65411,183.09112 249.79911,183.09112 H 248.13661 C 247.19161,183.09112 246.91161,182.75862 246.91161,182.32112 246.91161,181.97112 247.10411,181.62112 247.38411,181.41112 247.76911,181.53362 248.13661,181.60362 248.76661,181.60362 250.93661,181.60362 252.23161,180.29112 252.23161,178.45362 252.23161,177.40362 251.68911,176.63362 250.62161,176.14362 251.65411,176.14362 252.52911,176.10862 253.31661,175.88112 Z M 248.66161,176.33612 C 250.02661,176.33612 250.70911,177.07112 250.70911,178.45362 250.70911,179.81862 250.00911,180.62362 248.69661,180.62362 247.19161,180.62362 246.49161,179.73112 246.49161,178.47112 246.49161,177.22862 247.17411,176.33612 248.66161,176.33612 Z"
         style="font-size:17.5px"
         id="path992" />
      <path
         d="M 259.1616,172.45112 C 257.0091,172.45112 255.2766,173.83362 255.2766,176.42362 255.2766,178.82112 256.7116,180.29112 258.7241,180.25612 260.0541,180.23862 261.0341,179.55612 261.5591,178.76862 261.5241,181.70862 259.5641,183.07362 256.3441,183.94862 L 256.6766,185.05112 C 261.1741,183.77362 263.0816,182.26862 263.0816,177.10612 263.0816,174.23612 261.8391,172.45112 259.1616,172.45112 Z M 258.9866,179.10112 C 257.6041,179.11862 256.7816,178.31362 256.7816,176.47612 256.7816,174.62112 257.5866,173.64112 259.1616,173.64112 260.8416,173.64112 261.6291,174.58612 261.5941,177.43862 260.9466,178.43612 260.1416,179.08362 258.9866,179.10112 Z"
         style="font-size:17.5px"
         id="path994" />
      <path
         d="M 269.38158,175.26862 C 267.10658,175.26862 265.88158,177.31612 265.88158,180.09862 265.88158,182.98612 266.79158,184.87612 269.27658,184.87612 270.27408,184.87612 271.18408,184.45612 271.86658,183.51112 V 188.21862 L 273.31908,188.39362 V 175.47862 H 272.07658 L 271.95408,176.47612 C 271.34158,175.70612 270.50158,175.26862 269.38158,175.26862 Z M 269.74908,176.44112 C 270.62408,176.44112 271.39408,176.89612 271.86658,177.63112 V 182.25112 C 271.37658,183.00362 270.60658,183.66862 269.57408,183.66862 268.13908,183.66862 267.43908,182.47862 267.43908,180.08112 267.43908,177.64862 268.20908,176.44112 269.74908,176.44112 Z"
         style="font-size:17.5px"
         id="path996" />
      <path
         d="M 281.33406,172.43362 C 278.55156,172.43362 276.18906,174.58612 276.18906,178.64612 276.18906,182.70612 278.46406,184.87612 281.40406,184.87612 283.11906,184.87612 284.27406,184.28112 284.99156,183.58112 L 284.22156,182.58362 C 283.57406,183.10862 282.76906,183.59862 281.42156,183.59862 279.35656,183.59862 277.74656,182.25112 277.74656,178.64612 277.74656,174.95362 279.46156,173.69362 281.43906,173.69362 282.36656,173.69362 283.20656,173.95612 283.97656,174.58612 L 284.81656,173.60612 C 283.87156,172.85362 282.90906,172.43362 281.33406,172.43362 Z"
         style="font-size:17.5px"
         id="path998" />
      <path
         d="M 291.04654,184.87612 C 292.74404,184.87612 293.88154,184.42112 294.96654,183.84362 V 178.10362 H 290.92404 L 291.09904,179.34612 H 293.47904 V 183.03862 C 292.77904,183.42362 292.00904,183.61612 291.16904,183.61612 289.06904,183.61612 287.94904,182.16362 287.94904,178.64612 287.94904,174.93612 289.64654,173.71112 291.39654,173.71112 292.39404,173.71112 293.18154,174.02612 293.91654,174.70862 L 294.82654,173.76362 C 293.88154,172.88862 292.95404,172.43362 291.39654,172.43362 288.80654,172.43362 286.35654,174.49862 286.35654,178.64612 286.35654,182.81112 288.19404,184.87612 291.04654,184.87612 Z"
         style="font-size:17.5px"
         id="path1000" />
      <path
         d="M 305.71153,178.66362 C 305.71153,174.95362 304.20653,172.43362 301.28403,172.43362 298.34403,172.43362 296.83903,175.04112 296.83903,178.69862 296.83903,182.40862 298.34403,184.84112 301.10903,184.84112 303.19153,184.84112 304.06653,185.85612 304.80153,187.71112 L 306.39403,187.08112 C 305.79903,185.33112 304.90653,184.56112 303.31403,184.22862 305.06403,183.19612 305.71153,181.23612 305.71153,178.66362 Z M 304.15403,178.66362 C 304.15403,181.88362 303.31403,183.61612 301.28403,183.61612 299.28903,183.61612 298.39653,181.90112 298.39653,178.69862 298.39653,175.47862 299.23653,173.69362 301.28403,173.69362 303.31403,173.69362 304.15403,175.46112 304.15403,178.66362 Z"
         style="font-size:17.5px"
         id="path1002" />
      <path
         d="M 320.58649,177.68362 C 319.02899,177.68362 318.27649,178.89112 317.76899,179.90612 L 318.80149,180.43112 C 319.25649,179.59112 319.78149,178.94362 320.53399,178.94362 321.65399,178.94362 322.26649,180.69362 323.91149,180.69362 325.45149,180.69362 326.22149,179.46862 326.72899,178.48862 L 325.69649,177.94612 C 325.24149,178.76862 324.68149,179.43362 323.96399,179.43362 322.87899,179.43362 322.35399,177.68362 320.58649,177.68362 Z"
         style="font-size:17.5px"
         id="path1004" />
      <path
         d="M 329.66898,178.57612 V 179.83612 H 335.79398 V 178.57612 Z"
         style="font-size:17.5px"
         id="path1006" />
      <path
         d="M 343.87896,178.62862 V 176.02112 H 342.51396 V 178.62862 H 339.99396 V 179.85362 H 342.51396 V 182.44362 H 343.87896 V 179.85362 H 346.43396 V 178.62862 Z"
         style="font-size:17.5px"
         id="path1008" />
      <path
         d="M 357.09144,178.20862 V 176.94862 H 350.30144 V 178.20862 Z M 357.09144,181.53362 V 180.27362 H 350.30144 V 181.53362 Z"
         style="font-size:17.5px"
         id="path1010" />
      <path
         d="M 367.90642,178.45362 361.18642,174.28862 360.46892,175.39112 366.66392,179.20612 360.46892,183.02112 361.25642,184.10612 367.90642,179.94112 Z"
         style="font-size:17.5px"
         id="path1012" />
    </g>
  </g>
</svg>
