<?xml version="1.0" encoding="UTF-8" standalone="no"?>
<svg
   version="1.1"
   id="svg2"
   viewBox="0 0 310.09022 106.54999"
   height="30.070774mm"
   width="87.514351mm"
   sodipodi:docname="GeistMono NF.svg"
   xmlns:inkscape="http://www.inkscape.org/namespaces/inkscape"
   xmlns:sodipodi="http://sodipodi.sourceforge.net/DTD/sodipodi-0.dtd"
   xmlns="http://www.w3.org/2000/svg"
   xmlns:svg="http://www.w3.org/2000/svg"
   xmlns:rdf="http://www.w3.org/1999/02/22-rdf-syntax-ns#"
   xmlns:cc="http://creativecommons.org/ns#"
   xmlns:dc="http://purl.org/dc/elements/1.1/">
  <sodipodi:namedview
     id="namedview12"
     pagecolor="#ffffff"
     bordercolor="#666666"
     borderopacity="1.0"
     inkscape:showpageshadow="2"
     inkscape:pageopacity="0.0"
     inkscape:pagecheckerboard="0"
     inkscape:deskcolor="#d1d1d1"
     inkscape:document-units="mm" />
  <defs
     id="defs4" />
  <metadata
     id="metadata7">
    <rdf:RDF>
      <cc:Work
         rdf:about="">
        <dc:format>image/svg+xml</dc:format>
        <dc:type
           rdf:resource="http://purl.org/dc/dcmitype/StillImage" />
        <dc:title />
      </cc:Work>
    </rdf:RDF>
  </metadata>
  <g
     id="layer1"
     transform="translate(-63.847143,-80.968632)">
    <g
       aria-label="GeistMono Nerd Font"
       id="text4136"
       style="font-size:27.5px;font-family:'GeistMono NF';letter-spacing:0px;word-spacing:0px;fill:#ffffff">
      <path
         d="M 78.174643,100.93363 V 91.033632 H 71.299643 V 93.398632 H 75.892143 C 75.699643,96.561132 73.857143,99.008632 71.299643,99.008632 68.137143,99.008632 66.377143,96.203632 66.377143,91.198632 66.377143,86.166132 68.137143,83.333632 71.299643,83.333632 73.362143,83.333632 75.039643,84.956132 75.672143,87.293632 L 78.202143,87.128632 C 77.349643,83.498632 74.599643,80.968632 71.299643,80.968632 66.734643,80.968632 63.847143,84.901132 63.847143,91.198632 63.847143,97.441132 66.734643,101.37363 71.299643,101.37363 73.444643,101.37363 75.314643,100.10863 76.167143,98.183632 L 76.524643,100.93363 Z"
         id="path14" />
      <path
         d="M 81.172155,93.646132 C 81.172155,98.293632 83.812155,101.26363 87.854655,101.26363 90.659655,101.26363 93.134655,99.558632 93.987155,96.808632 L 91.457155,96.616132 C 90.797155,98.128632 89.394655,99.008632 87.854655,99.008632 85.379655,99.008632 83.894655,97.303632 83.674655,94.388632 H 94.207155 L 94.179655,93.316132 C 93.932155,88.091132 91.044655,86.028632 87.854655,86.028632 83.812155,86.028632 81.172155,88.998632 81.172155,93.646132 Z M 83.729655,92.298632 C 84.114655,89.768632 85.572155,88.283632 87.854655,88.283632 89.587155,88.283632 91.209655,89.273632 91.622155,92.298632 Z"
         id="path16" />
      <path
         d="M 106.25217,86.358632 H 98.662166 V 88.448632 H 103.88717 V 98.843632 H 98.112166 V 100.93363 H 111.22967 V 98.843632 H 106.25217 Z M 103.58467,84.213632 H 106.25217 V 81.408632 H 103.58467 Z"
         id="path18" />
      <path
         d="M 124.15468,90.868632 126.51968,90.703632 C 126.05218,87.871132 123.71468,86.028632 120.66218,86.028632 117.69218,86.028632 115.05218,87.678632 115.05218,90.648632 115.05218,93.343632 117.91218,94.278632 120.55218,94.911132 122.09218,95.268632 124.12718,95.488632 124.12718,97.083632 124.12718,98.623632 122.44968,99.008632 120.90968,99.008632 118.90218,99.008632 117.33468,97.908632 117.03218,96.176132 L 114.58468,96.341132 C 114.80468,99.366132 117.55468,101.26363 120.90968,101.26363 123.76968,101.26363 126.60218,100.08113 126.60218,97.221132 126.60218,94.416132 123.68718,93.536132 120.96468,92.848632 119.42468,92.436132 117.52718,92.106132 117.52718,90.511132 117.52718,89.026132 118.92968,88.283632 120.41468,88.283632 122.25718,88.283632 123.82468,89.246132 124.15468,90.868632 Z"
         id="path20" />
      <path
         d="M 134.74219,82.508632 V 86.358632 H 130.56219 V 88.448632 H 134.74219 V 96.891132 C 134.74219,99.338632 135.97969,100.93363 138.97719,100.93363 H 142.88219 V 98.843632 H 138.97719 C 137.76719,98.843632 137.10719,98.101132 137.10719,96.891132 V 88.448632 H 142.93719 V 86.358632 H 137.10719 V 82.508632 Z"
         id="path22" />
      <path
         d="M 147.0897,81.408632 V 100.93363 H 149.5097 V 83.911132 L 152.5622,99.558632 H 154.6522 L 157.7047,83.911132 V 100.93363 H 160.1247 V 81.408632 H 156.2197 L 153.6072,95.323632 150.9947,81.408632 Z"
         id="path24" />
      <path
         d="M 170.10721,101.26363 C 174.14971,101.26363 176.78971,98.293632 176.78971,93.646132 176.78971,88.998632 174.14971,86.028632 170.10721,86.028632 166.06471,86.028632 163.42471,88.998632 163.42471,93.646132 163.42471,98.293632 166.06471,101.26363 170.10721,101.26363 Z M 165.89971,93.646132 C 165.89971,90.291132 167.43971,88.283632 170.10721,88.283632 172.77471,88.283632 174.31471,90.291132 174.31471,93.646132 174.31471,97.001132 172.77471,99.008632 170.10721,99.008632 167.43971,99.008632 165.89971,97.001132 165.89971,93.646132 Z"
         id="path26" />
      <path
         d="M 180.96972,86.358632 V 100.93363 H 183.33472 V 92.216132 C 183.33472,89.548632 184.84722,88.118632 187.15722,88.118632 189.32972,88.118632 190.20972,89.548632 190.20972,92.216132 V 100.93363 H 192.57472 V 91.556132 C 192.57472,88.476132 190.97972,86.028632 187.65222,86.028632 185.64472,86.028632 183.93972,86.908632 183.19722,88.861132 L 183.11472,86.358632 Z"
         id="path28" />
      <path
         d="M 203.10723,101.26363 C 207.14973,101.26363 209.78973,98.293632 209.78973,93.646132 209.78973,88.998632 207.14973,86.028632 203.10723,86.028632 199.06473,86.028632 196.42473,88.998632 196.42473,93.646132 196.42473,98.293632 199.06473,101.26363 203.10723,101.26363 Z M 198.89973,93.646132 C 198.89973,90.291132 200.43973,88.283632 203.10723,88.283632 205.77473,88.283632 207.31473,90.291132 207.31473,93.646132 207.31473,97.001132 205.77473,99.008632 203.10723,99.008632 200.43973,99.008632 198.89973,97.001132 198.89973,93.646132 Z"
         id="path30" />
      <path
         d="M 230.00227,81.408632 V 100.93363 H 232.42227 V 85.066132 L 238.49977,100.93363 H 242.21227 V 81.408632 H 239.79227 V 97.881132 L 233.43977,81.408632 Z"
         id="path32" />
      <path
         d="M 246.17227,93.646132 C 246.17227,98.293632 248.81227,101.26363 252.85477,101.26363 255.65977,101.26363 258.13477,99.558632 258.98727,96.808632 L 256.45727,96.616132 C 255.79727,98.128632 254.39477,99.008632 252.85477,99.008632 250.37977,99.008632 248.89477,97.303632 248.67477,94.388632 H 259.20727 L 259.17977,93.316132 C 258.93227,88.091132 256.04477,86.028632 252.85477,86.028632 248.81227,86.028632 246.17227,88.998632 246.17227,93.646132 Z M 248.72977,92.298632 C 249.11477,89.768632 250.57227,88.283632 252.85477,88.283632 254.58727,88.283632 256.20977,89.273632 256.62227,92.298632 Z"
         id="path34" />
      <path
         d="M 268.88728,86.358632 H 263.27728 V 88.448632 H 267.07228 V 98.843632 H 263.27728 V 100.93363 H 274.19478 V 98.843632 H 269.43728 V 92.243632 C 269.43728,89.741132 270.45478,88.448632 272.68228,88.448632 H 275.62478 V 86.358632 H 272.68228 C 270.75728,86.358632 269.57478,87.211132 269.07978,89.053632 Z"
         id="path36" />
      <path
         d="M 291.6573,81.408632 H 289.2923 V 88.228632 C 288.4673,86.798632 286.9823,86.028632 284.8373,86.028632 280.6023,86.028632 278.6773,89.658632 278.6773,93.646132 278.6773,97.633632 280.6023,101.26363 284.8373,101.26363 287.0923,101.26363 288.6323,100.38363 289.4298,98.898632 L 289.5123,100.93363 H 291.6573 Z M 281.1523,93.646132 C 281.1523,90.813632 282.3073,88.173632 285.3323,88.173632 288.3298,88.173632 289.5123,90.841132 289.5123,93.646132 289.5123,96.341132 288.3298,99.008632 285.3323,99.008632 282.3073,99.008632 281.1523,96.368632 281.1523,93.646132 Z"
         id="path38" />
      <path
         d="M 312.91481,81.408632 V 100.93363 H 315.33481 V 92.546132 H 324.43731 V 90.236132 H 315.33481 V 83.773632 H 324.93231 V 81.408632 Z"
         id="path40" />
      <path
         d="M 335.10733,101.26363 C 339.14983,101.26363 341.78983,98.293632 341.78983,93.646132 341.78983,88.998632 339.14983,86.028632 335.10733,86.028632 331.06483,86.028632 328.42483,88.998632 328.42483,93.646132 328.42483,98.293632 331.06483,101.26363 335.10733,101.26363 Z M 330.89983,93.646132 C 330.89983,90.291132 332.43983,88.283632 335.10733,88.283632 337.77483,88.283632 339.31483,90.291132 339.31483,93.646132 339.31483,97.001132 337.77483,99.008632 335.10733,99.008632 332.43983,99.008632 330.89983,97.001132 330.89983,93.646132 Z"
         id="path42" />
      <path
         d="M 345.96983,86.358632 V 100.93363 H 348.33483 V 92.216132 C 348.33483,89.548632 349.84733,88.118632 352.15733,88.118632 354.32983,88.118632 355.20983,89.548632 355.20983,92.216132 V 100.93363 H 357.57483 V 91.556132 C 357.57483,88.476132 355.97983,86.028632 352.65233,86.028632 350.64483,86.028632 348.93983,86.908632 348.19733,88.861132 L 348.11483,86.358632 Z"
         id="path44" />
      <path
         d="M 365.74236,82.508632 V 86.358632 H 361.56236 V 88.448632 H 365.74236 V 96.891132 C 365.74236,99.338632 366.97986,100.93363 369.97736,100.93363 H 373.88236 V 98.843632 H 369.97736 C 368.76736,98.843632 368.10736,98.101132 368.10736,96.891132 V 88.448632 H 373.93736 V 86.358632 H 368.10736 V 82.508632 Z"
         id="path46" />
    </g>
    <g
       aria-label="abcdefghijklmnopqrstuvwxyzABCDEFGHIJKLMNOPQRSTUVWXYZ oO08 iIlL1 {} [] g9qCGQ ~-+=&gt;"
       id="text4140"
       style="font-size:17.5px;font-family:'GeistMono NF';letter-spacing:0px;word-spacing:0px;fill:#ffffff">
      <path
         d="M 66.714403,134.38862 68.324403,134.51112 C 68.551903,133.56612 69.374403,132.88362 70.511903,132.88362 71.859403,132.88362 72.734403,133.61862 72.751903,135.17612 L 70.056903,135.70112 C 67.991903,136.10362 66.556903,136.57612 66.556903,138.50112 66.556903,140.16362 68.061903,141.14362 69.899403,141.14362 71.369403,141.14362 72.419403,140.35612 72.769403,139.51612 72.944403,140.33862 73.609403,140.93362 74.729403,140.93362 H 75.201903 V 139.60362 H 74.816903 C 74.431903,139.60362 74.256903,139.42862 74.256903,139.04362 V 135.33362 C 74.256903,132.74362 72.751903,131.44862 70.511903,131.44862 68.586903,131.44862 67.064403,132.63862 66.714403,134.38862 Z M 68.131903,138.50112 C 68.131903,137.20612 69.251903,137.13612 70.616903,136.89112 L 72.786903,136.50612 V 136.94362 C 72.786903,138.76362 71.596903,139.81362 70.091903,139.81362 68.744403,139.81362 68.131903,139.21862 68.131903,138.50112 Z"
         id="path49" />
      <path
         d="M 77.31941,128.50862 V 140.93362 H 78.68441 L 78.73691,139.63862 C 79.24441,140.58362 80.22441,141.14362 81.65941,141.14362 84.35441,141.14362 85.57941,138.83362 85.57941,136.29612 85.57941,133.75862 84.35441,131.44862 81.65941,131.44862 80.29441,131.44862 79.34941,131.93862 78.82441,132.84862 V 128.50862 Z M 78.68441,136.29612 C 78.68441,134.51112 79.43691,132.81362 81.34441,132.81362 83.26941,132.81362 84.00441,134.49362 84.00441,136.29612 84.00441,138.02862 83.26941,139.70862 81.34441,139.70862 79.43691,139.70862 78.68441,138.01112 78.68441,136.29612 Z"
         id="path51" />
      <path
         d="M 94.189416,134.77362 95.764416,134.66862 C 95.519416,132.67362 93.786916,131.44862 91.896916,131.44862 89.324416,131.44862 87.644416,133.33862 87.644416,136.29612 87.644416,139.25362 89.324416,141.14362 91.896916,141.14362 93.856916,141.14362 95.554416,139.84862 95.851916,137.74862 L 94.259416,137.64362 C 94.049416,138.95612 93.051916,139.70862 91.896916,139.70862 90.199416,139.70862 89.219416,138.43112 89.219416,136.29612 89.219416,134.16112 90.199416,132.88362 91.896916,132.88362 92.999416,132.88362 93.996916,133.58362 94.189416,134.77362 Z"
         id="path53" />
      <path
         d="M 106.01942,128.50862 H 104.51442 V 132.84862 C 103.98942,131.93862 103.04442,131.44862 101.67942,131.44862 98.984422,131.44862 97.759422,133.75862 97.759422,136.29612 97.759422,138.83362 98.984422,141.14362 101.67942,141.14362 103.11442,141.14362 104.09442,140.58362 104.60192,139.63862 L 104.65442,140.93362 H 106.01942 Z M 99.334422,136.29612 C 99.334422,134.49362 100.06942,132.81362 101.99442,132.81362 103.90192,132.81362 104.65442,134.51112 104.65442,136.29612 104.65442,138.01112 103.90192,139.70862 101.99442,139.70862 100.06942,139.70862 99.334422,138.02862 99.334422,136.29612 Z"
         id="path55" />
      <path
         d="M 108.57443,136.29612 C 108.57443,139.25362 110.25443,141.14362 112.82693,141.14362 114.61193,141.14362 116.18693,140.05862 116.72943,138.30862 L 115.11943,138.18612 C 114.69943,139.14862 113.80693,139.70862 112.82693,139.70862 111.25193,139.70862 110.30693,138.62362 110.16693,136.76862 H 116.86943 L 116.85193,136.08612 C 116.69443,132.76112 114.85693,131.44862 112.82693,131.44862 110.25443,131.44862 108.57443,133.33862 108.57443,136.29612 Z M 110.20193,135.43862 C 110.44693,133.82862 111.37443,132.88362 112.82693,132.88362 113.92943,132.88362 114.96193,133.51362 115.22443,135.43862 Z"
         id="path57" />
      <path
         d="M 121.61194,131.08112 V 132.18362 H 119.14444 V 133.51362 H 121.61194 V 140.93362 H 123.11694 V 133.51362 H 126.66944 V 132.18362 H 123.11694 V 131.08112 C 123.11694,130.31112 123.53694,129.83862 124.13194,129.83862 H 126.79194 V 128.50862 H 124.13194 C 122.39944,128.50862 121.61194,129.52362 121.61194,131.08112 Z"
         id="path59" />
      <path
         d="M 133.45944,140.44362 C 134.57944,140.44362 135.69944,139.77862 136.18944,138.85112 V 140.37362 C 136.18944,141.65112 135.20944,142.33362 133.58194,142.33362 132.44444,142.33362 131.65694,141.82612 131.27194,140.96862 L 129.69694,141.07362 C 130.13444,142.70112 131.60444,143.76862 133.58194,143.76862 136.01444,143.76862 137.69444,142.47362 137.69444,140.02362 V 131.65862 H 136.25944 V 133.09362 C 135.85694,132.13112 134.70194,131.44862 133.45944,131.44862 131.11444,131.44862 129.45194,133.30362 129.45194,135.94612 129.45194,138.58862 131.11444,140.44362 133.45944,140.44362 Z M 131.02694,135.94612 C 131.02694,134.16112 132.00694,132.88362 133.63444,132.88362 135.26194,132.88362 136.24194,134.16112 136.20694,135.94612 136.18944,137.73112 135.20944,139.00862 133.63444,139.00862 132.00694,139.00862 131.02694,137.73112 131.02694,135.94612 Z"
         id="path61" />
      <path
         d="M 140.66945,128.50862 V 140.93362 H 142.17445 V 135.49112 C 142.17445,133.79362 143.13695,132.88362 144.60695,132.88362 145.98945,132.88362 146.54945,133.79362 146.54945,135.49112 V 140.93362 H 148.05445 V 134.96612 C 148.05445,133.00612 147.03945,131.44862 144.92195,131.44862 143.80195,131.44862 142.71695,131.90362 142.17445,132.88362 V 128.50862 Z"
         id="path63" />
      <path
         d="M 156.03446,131.65862 H 151.20446 V 132.98862 H 154.52946 V 139.60362 H 150.85446 V 140.93362 H 159.20196 V 139.60362 H 156.03446 Z M 154.33696,130.29362 H 156.03446 V 128.50862 H 154.33696 Z"
         id="path65" />
      <path
         d="M 167.61946,140.93362 V 131.65862 H 161.93196 V 132.98862 H 166.11446 V 140.93362 C 166.11446,141.68612 165.71196,142.22862 165.09946,142.22862 H 161.91446 V 143.55862 H 165.27446 C 166.83196,143.55862 167.61946,142.49112 167.61946,140.93362 Z M 165.92196,130.29362 H 167.61946 V 128.50862 H 165.92196 Z"
         id="path67" />
      <path
         d="M 171.99447,128.50862 V 140.93362 H 173.49947 V 138.79862 L 175.31947,136.66362 178.25947,140.93362 H 180.11447 L 176.31697,135.59612 179.93947,131.65862 H 177.89197 L 173.49947,136.61112 V 128.50862 Z"
         id="path69" />
      <path
         d="M 182.35448,139.60362 V 140.93362 H 190.70198 V 139.60362 H 187.44698 V 130.90612 C 187.44698,129.36612 186.53698,128.50862 184.92698,128.50862 H 182.70448 V 129.83862 H 184.92698 C 185.62698,129.83862 185.94198,130.17112 185.94198,130.90612 V 139.60362 Z"
         id="path71" />
      <path
         d="M 192.24198,131.65862 V 140.93362 H 193.74698 V 135.38612 C 193.74698,133.70612 194.18448,132.77862 194.88448,132.77862 195.67198,132.77862 195.96948,133.49612 195.96948,135.38612 V 140.93362 H 197.47448 V 135.38612 C 197.47448,133.70612 197.92948,132.77862 198.73448,132.77862 199.43448,132.77862 199.69698,133.49612 199.69698,135.38612 V 140.93362 H 201.20198 V 135.38612 C 201.20198,132.63862 200.58948,131.44862 199.17198,131.44862 198.22698,131.44862 197.45698,132.11362 197.14198,133.16362 196.84448,131.97362 196.37198,131.44862 195.56698,131.44862 194.63948,131.44862 194.00948,131.97362 193.65948,132.91862 L 193.60698,131.65862 Z"
         id="path73" />
      <path
         d="M 203.58199,131.65862 V 140.93362 H 205.08699 V 135.38612 C 205.08699,133.68862 206.04949,132.77862 207.51949,132.77862 208.90199,132.77862 209.46199,133.68862 209.46199,135.38612 V 140.93362 H 210.96699 V 134.96612 C 210.96699,133.00612 209.95199,131.44862 207.83449,131.44862 206.55699,131.44862 205.47199,132.00862 204.99949,133.25112 L 204.94699,131.65862 Z"
         id="path75" />
      <path
         d="M 217.66949,141.14362 C 220.24199,141.14362 221.92199,139.25362 221.92199,136.29612 221.92199,133.33862 220.24199,131.44862 217.66949,131.44862 215.09699,131.44862 213.41699,133.33862 213.41699,136.29612 213.41699,139.25362 215.09699,141.14362 217.66949,141.14362 Z M 214.99199,136.29612 C 214.99199,134.16112 215.97199,132.88362 217.66949,132.88362 219.36699,132.88362 220.34699,134.16112 220.34699,136.29612 220.34699,138.43112 219.36699,139.70862 217.66949,139.70862 215.97199,139.70862 214.99199,138.43112 214.99199,136.29612 Z"
         id="path77" />
      <path
         d="M 224.31951,143.55862 H 225.82451 V 139.69112 C 226.33201,140.65362 227.29451,141.14362 228.57201,141.14362 231.35451,141.14362 232.57951,138.83362 232.57951,136.29612 232.57951,133.75862 231.35451,131.44862 228.57201,131.44862 227.22451,131.44862 226.24451,132.00862 225.73701,133.00612 L 225.68451,131.65862 H 224.31951 Z M 225.64951,136.29612 C 225.64951,134.58112 226.41951,132.88362 228.30951,132.88362 230.21701,132.88362 230.96951,134.56362 230.96951,136.29612 230.96951,138.02862 230.21701,139.70862 228.30951,139.70862 226.41951,139.70862 225.64951,138.01112 225.64951,136.29612 Z"
         id="path79" />
      <path
         d="M 242.51951,143.55862 V 131.65862 H 241.15451 L 241.10201,133.00612 C 240.59451,132.00862 239.61451,131.44862 238.26701,131.44862 235.48451,131.44862 234.25951,133.75862 234.25951,136.29612 234.25951,138.83362 235.48451,141.14362 238.26701,141.14362 239.54451,141.14362 240.50701,140.65362 241.01451,139.69112 V 143.55862 Z M 235.86951,136.29612 C 235.86951,134.56362 236.62201,132.88362 238.52951,132.88362 240.41951,132.88362 241.18951,134.58112 241.18951,136.29612 241.18951,138.01112 240.41951,139.70862 238.52951,139.70862 236.62201,139.70862 235.86951,138.02862 235.86951,136.29612 Z"
         id="path81" />
      <path
         d="M 249.02951,131.65862 H 245.45951 V 132.98862 H 247.87451 V 139.60362 H 245.45951 V 140.93362 H 252.40701 V 139.60362 H 249.37951 V 135.40362 C 249.37951,133.81112 250.02701,132.98862 251.44451,132.98862 H 253.31701 V 131.65862 H 251.44451 C 250.21951,131.65862 249.46701,132.20112 249.15201,133.37362 Z"
         id="path83" />
      <path
         d="M 261.92703,134.52862 263.43203,134.42362 C 263.13453,132.62112 261.64703,131.44862 259.70453,131.44862 257.81453,131.44862 256.13453,132.49862 256.13453,134.38862 256.13453,136.10362 257.95453,136.69862 259.63453,137.10112 260.61453,137.32862 261.90953,137.46862 261.90953,138.48362 261.90953,139.46362 260.84203,139.70862 259.86203,139.70862 258.58453,139.70862 257.58703,139.00862 257.39453,137.90612 L 255.83703,138.01112 C 255.97703,139.93612 257.72703,141.14362 259.86203,141.14362 261.68203,141.14362 263.48453,140.39112 263.48453,138.57112 263.48453,136.78612 261.62953,136.22612 259.89703,135.78862 258.91703,135.52612 257.70953,135.31612 257.70953,134.30112 257.70953,133.35612 258.60203,132.88362 259.54703,132.88362 260.71953,132.88362 261.71703,133.49612 261.92703,134.52862 Z"
         id="path85" />
      <path
         d="M 268.66453,129.20862 V 131.65862 H 266.00453 V 132.98862 H 268.66453 V 138.36112 C 268.66453,139.91862 269.45203,140.93362 271.35953,140.93362 H 273.84453 V 139.60362 H 271.35953 C 270.58953,139.60362 270.16953,139.13112 270.16953,138.36112 V 132.98862 H 273.87953 V 131.65862 H 270.16953 V 129.20862 Z"
         id="path87" />
      <path
         d="M 284.25704,140.93362 V 131.65862 H 282.75204 V 137.18862 C 282.75204,138.90362 281.78954,139.81362 280.37204,139.81362 279.04204,139.81362 278.48204,138.90362 278.48204,137.18862 V 131.65862 H 276.97704 V 137.62612 C 276.97704,139.58612 277.99204,141.14362 280.05704,141.14362 281.26454,141.14362 282.33204,140.60112 282.82204,139.41112 V 140.93362 Z"
         id="path89" />
      <path
         d="M 295.49204,131.65862 H 293.88204 L 291.16954,139.35862 288.45704,131.65862 H 286.84704 L 290.22454,140.93362 H 292.11454 Z"
         id="path91" />
      <path
         d="M 302.47456,132.88362 H 300.86456 L 299.53456,138.92112 298.29206,131.65862 H 296.71706 L 298.60706,140.93362 H 300.42706 L 301.66956,135.31612 302.91206,140.93362 H 304.73206 L 306.62206,131.65862 H 305.04706 L 303.80456,138.92112 Z"
         id="path93" />
      <path
         d="M 314.46206,131.65862 312.16956,135.01862 309.85956,131.65862 H 308.02206 L 311.24206,136.17362 307.84706,140.93362 H 309.68456 L 312.16956,137.34612 314.63706,140.93362 H 316.47456 L 313.11456,136.19112 316.31706,131.65862 Z"
         id="path95" />
      <path
         d="M 318.39956,131.65862 321.77706,140.75862 H 322.28456 L 321.95206,141.61612 C 321.79456,142.05362 321.51456,142.22862 321.07706,142.22862 H 320.09706 V 143.55862 H 321.23456 C 322.28456,143.55862 322.94956,143.10362 323.29956,142.10612 L 327.04456,131.65862 H 325.45206 L 322.77456,139.32362 320.00956,131.65862 Z"
         id="path97" />
      <path
         d="M 336.84456,133.32112 V 131.65862 H 329.52956 V 132.98862 H 335.23456 L 329.35456,139.30612 V 140.93362 H 336.98456 V 139.60362 H 330.98206 Z"
         id="path99" />
      <path
         d="M 65.856903,162.80862 H 67.431903 L 68.464403,159.29112 H 72.874403 L 73.906903,162.80862 H 75.481903 L 71.701903,150.38362 H 69.636903 Z M 68.866903,157.89112 70.669403,151.73112 72.471903,157.89112 Z"
         id="path101" />
      <path
         d="M 77.28441,162.80862 H 81.43191 C 84.03941,162.80862 85.66691,161.44362 85.66691,159.29112 85.66691,157.68112 84.63441,156.59612 82.93691,156.38612 84.26691,156.12362 85.14191,155.14362 85.14191,153.83112 85.14191,151.62612 83.56691,150.38362 80.73191,150.38362 H 77.28441 Z M 78.82441,161.30362 V 157.24362 H 81.43191 C 83.11191,157.24362 84.05691,157.97862 84.05691,159.29112 84.05691,160.53362 83.04191,161.30362 81.43191,161.30362 Z M 78.82441,155.73862 V 151.88862 H 80.73191 C 82.53441,151.88862 83.53191,152.58862 83.53191,153.83112 83.53191,155.05612 82.53441,155.73862 80.73191,155.73862 Z"
         id="path103" />
      <path
         d="M 96.341916,158.88862 94.714416,158.78362 C 94.329416,160.58612 93.331916,161.58362 91.914416,161.58362 89.849416,161.58362 88.694416,159.79862 88.694416,156.61362 88.694416,153.41112 89.849416,151.60862 91.914416,151.60862 93.191916,151.60862 94.154416,152.51862 94.591916,154.12862 L 96.236916,154.02362 C 95.659416,151.60862 94.101916,150.10362 91.914416,150.10362 88.816916,150.10362 87.084416,152.60612 87.084416,156.61362 87.084416,160.58612 88.816916,163.08862 91.914416,163.08862 94.259416,163.08862 95.851916,161.46112 96.341916,158.88862 Z"
         id="path105" />
      <path
         d="M 101.27692,150.38362 H 98.231922 V 162.80862 H 101.38192 C 104.81192,162.80862 106.91192,160.58612 106.91192,156.61362 106.91192,152.62362 104.75942,150.38362 101.27692,150.38362 Z M 99.771922,161.30362 V 151.88862 H 101.27692 C 103.84942,151.88862 105.30192,153.44612 105.30192,156.61362 105.30192,159.74612 103.84942,161.30362 101.27692,161.30362 Z"
         id="path107" />
      <path
         d="M 108.99443,150.38362 V 162.80862 H 116.95693 V 161.30362 H 110.53443 V 157.31362 H 116.60693 V 155.84362 H 110.53443 V 151.88862 H 116.81693 V 150.38362 Z"
         id="path109" />
      <path
         d="M 119.54694,150.38362 V 162.80862 H 121.08694 V 157.47112 H 126.87944 V 156.00112 H 121.08694 V 151.88862 H 127.19444 V 150.38362 Z"
         id="path111" />
      <path
         d="M 138.16694,162.80862 V 156.50862 H 133.79194 V 158.01362 H 136.71444 C 136.59194,160.02612 135.41944,161.58362 133.79194,161.58362 131.77944,161.58362 130.65944,159.79862 130.65944,156.61362 130.65944,153.41112 131.77944,151.60862 133.79194,151.60862 135.10444,151.60862 136.17194,152.64112 136.57444,154.12862 L 138.18444,154.02362 C 137.64194,151.71362 135.89194,150.10362 133.79194,150.10362 130.88694,150.10362 129.04944,152.60612 129.04944,156.61362 129.04944,160.58612 130.88694,163.08862 133.79194,163.08862 135.15694,163.08862 136.34694,162.28362 136.88944,161.05862 L 137.11694,162.80862 Z"
         id="path113" />
      <path
         d="M 140.14445,162.80862 H 141.68445 V 157.31362 H 146.65445 V 162.80862 H 148.19445 V 150.38362 H 146.65445 V 155.80862 H 141.68445 V 150.38362 H 140.14445 Z"
         id="path115" />
      <path
         d="M 158.23946,150.38362 H 151.09946 V 151.88862 H 153.89946 V 161.30362 H 150.99446 V 162.80862 H 158.34446 V 161.30362 H 155.43946 V 151.88862 H 158.23946 Z"
         id="path117" />
      <path
         d="M 162.10696,158.64362 160.53196,158.78362 C 160.54946,161.30362 162.17696,163.08862 164.66196,163.08862 167.28696,163.08862 168.82696,161.30362 168.82696,158.46862 V 150.38362 H 167.28696 V 158.46862 C 167.28696,160.46362 166.41196,161.58362 164.66196,161.58362 162.98196,161.58362 162.12446,160.53362 162.10696,158.64362 Z"
         id="path119" />
      <path
         d="M 171.39947,150.38362 V 162.80862 H 172.93947 V 157.89112 L 174.04197,156.77112 178.52197,162.80862 H 180.39447 L 175.10947,155.66862 180.06197,150.38362 H 178.11947 L 172.93947,155.73862 V 150.38362 Z"
         id="path121" />
      <path
         d="M 182.49448,162.80862 H 190.57948 V 161.30362 H 184.03448 V 150.38362 H 182.49448 Z"
         id="path123" />
      <path
         d="M 192.52198,150.38362 V 162.80862 H 194.06198 V 151.97612 L 196.00448,161.93362 H 197.33448 L 199.27698,151.97612 V 162.80862 H 200.81698 V 150.38362 H 198.33198 L 196.66948,159.23862 195.00698,150.38362 Z"
         id="path125" />
      <path
         d="M 203.28449,150.38362 V 162.80862 H 204.82449 V 152.71112 L 208.69199,162.80862 H 211.05449 V 150.38362 H 209.51449 V 160.86612 L 205.47199,150.38362 Z"
         id="path127" />
      <path
         d="M 217.66949,163.08862 C 220.60949,163.08862 222.25449,160.76112 222.25449,156.61362 222.25449,152.43112 220.60949,150.10362 217.66949,150.10362 214.72949,150.10362 213.08449,152.43112 213.08449,156.61362 213.08449,160.76112 214.72949,163.08862 217.66949,163.08862 Z M 214.69449,156.61362 C 214.69449,153.41112 215.76199,151.60862 217.66949,151.60862 219.57699,151.60862 220.64449,153.41112 220.64449,156.61362 220.64449,159.79862 219.57699,161.58362 217.66949,161.58362 215.76199,161.58362 214.69449,159.79862 214.69449,156.61362 Z"
         id="path129" />
      <path
         d="M 228.25701,150.38362 H 224.49451 V 162.80862 H 226.03451 V 157.99612 H 228.25701 C 231.03951,157.99612 232.66701,156.56112 232.66701,154.14612 232.66701,151.78362 231.03951,150.38362 228.25701,150.38362 Z M 226.03451,156.49112 V 151.88862 H 228.25701 C 230.12951,151.88862 231.05701,152.64112 231.05701,154.14612 231.05701,155.70362 230.12951,156.49112 228.25701,156.49112 Z"
         id="path131" />
      <path
         d="M 238.66951,163.08862 C 239.31701,163.08862 239.89451,162.98362 240.40201,162.75612 L 241.25951,164.01612 H 242.99201 L 241.59201,161.96862 C 242.67701,160.90112 243.25451,159.08112 243.25451,156.61362 243.25451,152.43112 241.60951,150.10362 238.66951,150.10362 235.72951,150.10362 234.08451,152.43112 234.08451,156.61362 234.08451,160.76112 235.72951,163.08862 238.66951,163.08862 Z M 235.69451,156.61362 C 235.69451,153.41112 236.76201,151.60862 238.66951,151.60862 240.57701,151.60862 241.64451,153.41112 241.64451,156.61362 241.64451,158.41612 241.29451,159.78112 240.66451,160.60362 L 239.66701,159.16862 H 237.93451 L 239.50951,161.46112 C 239.24701,161.54862 238.96701,161.58362 238.66951,161.58362 236.76201,161.58362 235.69451,159.79862 235.69451,156.61362 Z"
         id="path133" />
      <path
         d="M 249.13451,150.38362 H 245.19701 V 162.80862 H 246.73701 V 157.82112 H 248.97701 C 250.77951,157.82112 251.51451,158.18862 251.61951,159.30862 L 251.93451,162.80862 H 253.49201 L 253.14201,159.15112 C 253.01951,157.89112 252.52951,157.26112 251.37451,157.03362 252.42451,156.68362 253.36951,155.56362 253.36951,154.14612 253.36951,151.83612 251.74201,150.38362 249.13451,150.38362 Z M 246.73701,156.31612 V 151.88862 H 249.13451 C 250.81451,151.88862 251.75951,152.69362 251.75951,154.11112 251.75951,155.52862 250.81451,156.31612 249.13451,156.31612 Z"
         id="path135" />
      <path
         d="M 256.83453,158.73112 255.22453,158.83612 C 255.43453,161.35612 257.42953,163.01862 259.98453,163.01862 262.04953,163.01862 264.16703,161.82862 264.16703,159.51862 264.16703,157.61112 262.34703,156.49112 260.28203,155.86112 258.75953,155.44112 257.09703,155.03862 257.09703,153.51612 257.09703,152.34362 258.12953,151.60862 259.35453,151.60862 260.87703,151.60862 262.06703,152.62362 262.29453,154.16362 L 263.90453,154.05862 C 263.64203,151.76612 261.87453,150.10362 259.37203,150.10362 257.16703,150.10362 255.48703,151.41612 255.48703,153.51612 255.48703,155.52862 257.34203,156.52612 259.17953,157.03362 261.47203,157.66362 262.55703,158.41612 262.55703,159.67612 262.55703,160.90112 261.50703,161.51362 260.10703,161.51362 258.32203,161.51362 257.16703,160.39362 256.83453,158.73112 Z"
         id="path137" />
      <path
         d="M 274.70203,150.38362 H 265.63703 V 151.88862 H 269.39953 V 162.80862 H 270.93953 V 151.88862 H 274.70203 Z"
         id="path139" />
      <path
         d="M 284.83454,158.46862 V 150.36612 H 283.29454 V 158.46862 C 283.29454,160.46362 282.41954,161.58362 280.66954,161.58362 278.91954,161.58362 278.04454,160.46362 278.04454,158.46862 V 150.36612 H 276.50454 V 158.46862 C 276.50454,161.30362 278.04454,163.08862 280.66954,163.08862 283.29454,163.08862 284.83454,161.30362 284.83454,158.46862 Z"
         id="path141" />
      <path
         d="M 286.33954,150.38362 290.15454,162.80862 H 292.18454 L 295.99954,150.38362 H 294.33704 L 291.16954,161.12862 288.00204,150.38362 Z"
         id="path143" />
      <path
         d="M 298.22206,162.80862 H 300.65456 L 301.66956,154.19862 302.68456,162.80862 H 305.11706 L 306.34206,150.38362 H 304.76706 L 303.71706,161.23362 302.43956,151.43362 H 300.89956 L 299.62206,161.23362 298.57206,150.38362 H 296.99706 Z"
         id="path145" />
      <path
         d="M 314.68956,150.38362 312.18706,155.38862 309.68456,150.38362 H 307.88206 L 311.20706,156.56112 307.84706,162.80862 H 309.61456 L 312.15206,157.75112 314.68956,162.80862 H 316.49206 L 313.13206,156.57862 316.45706,150.38362 Z"
         id="path147" />
      <path
         d="M 318.22456,150.38362 321.91706,157.73362 V 162.80862 H 323.45706 V 157.73362 L 327.13206,150.38362 H 325.38206 L 322.68706,155.94862 319.97456,150.38362 Z"
         id="path149" />
      <path
         d="M 337.38706,152.04612 V 150.38362 H 329.09206 V 151.88862 H 335.60206 L 328.79456,161.21612 V 162.80862 H 337.52706 V 161.30362 H 330.61456 Z"
         id="path151" />
      <path
         d="M 70.669403,184.89362 C 73.241903,184.89362 74.921903,183.00362 74.921903,180.04612 74.921903,177.08862 73.241903,175.19862 70.669403,175.19862 68.096903,175.19862 66.416903,177.08862 66.416903,180.04612 66.416903,183.00362 68.096903,184.89362 70.669403,184.89362 Z M 67.991903,180.04612 C 67.991903,177.91112 68.971903,176.63362 70.669403,176.63362 72.366903,176.63362 73.346903,177.91112 73.346903,180.04612 73.346903,182.18112 72.366903,183.45862 70.669403,183.45862 68.971903,183.45862 67.991903,182.18112 67.991903,180.04612 Z"
         id="path153" />
      <path
         d="M 81.16941,184.96362 C 84.10941,184.96362 85.75441,182.63612 85.75441,178.48862 85.75441,174.30612 84.10941,171.97862 81.16941,171.97862 78.22941,171.97862 76.58441,174.30612 76.58441,178.48862 76.58441,182.63612 78.22941,184.96362 81.16941,184.96362 Z M 78.19441,178.48862 C 78.19441,175.28612 79.26191,173.48362 81.16941,173.48362 83.07691,173.48362 84.14441,175.28612 84.14441,178.48862 84.14441,181.67362 83.07691,183.45862 81.16941,183.45862 79.26191,183.45862 78.19441,181.67362 78.19441,178.48862 Z"
         id="path155" />
      <path
         d="M 91.669416,184.96362 C 94.381916,184.96362 96.079416,182.46112 96.079416,178.48862 96.079416,174.48112 94.381916,171.97862 91.669416,171.97862 88.956916,171.97862 87.259416,174.48112 87.259416,178.48862 87.259416,182.46112 88.956916,184.96362 91.669416,184.96362 Z M 88.869416,178.48862 C 88.869416,175.40862 89.954416,173.48362 91.669416,173.48362 92.299416,173.48362 92.841916,173.74612 93.279416,174.21862 L 89.289416,181.37612 C 89.026916,180.60612 88.869416,179.62612 88.869416,178.48862 Z M 90.041916,182.70612 94.031916,175.53112 C 94.311916,176.31862 94.469416,177.31612 94.469416,178.48862 94.469416,181.53362 93.384416,183.45862 91.669416,183.45862 91.039416,183.45862 90.479416,183.19612 90.041916,182.70612 Z"
         id="path157" />
      <path
         d="M 102.16942,184.96362 C 104.67192,184.96362 106.57942,183.54612 106.57942,181.27112 106.57942,179.74862 105.68692,178.55862 104.19942,177.94612 105.31942,177.45612 105.98442,176.65112 105.98442,175.39112 105.98442,173.43112 104.32192,171.97862 102.16942,171.97862 100.03442,171.97862 98.354422,173.43112 98.354422,175.39112 98.354422,176.65112 99.001922,177.45612 100.13942,177.94612 98.651922,178.54112 97.759422,179.73112 97.759422,181.27112 97.759422,183.54612 99.666922,184.96362 102.16942,184.96362 Z M 99.369422,181.14862 C 99.369422,179.78362 100.52442,178.83862 102.16942,178.83862 103.81442,178.83862 104.96942,179.78362 104.96942,181.14862 104.96942,182.51362 103.81442,183.45862 102.16942,183.45862 100.52442,183.45862 99.369422,182.51362 99.369422,181.14862 Z M 99.964422,175.39112 C 99.964422,174.27112 100.87442,173.48362 102.16942,173.48362 103.46442,173.48362 104.37442,174.27112 104.37442,175.39112 104.37442,176.51112 103.46442,177.29862 102.16942,177.29862 100.87442,177.29862 99.964422,176.51112 99.964422,175.39112 Z"
         id="path159" />
      <path
         d="M 124.53444,175.40862 H 119.70444 V 176.73862 H 123.02944 V 183.35362 H 119.35444 V 184.68362 H 127.70194 V 183.35362 H 124.53444 Z M 122.83694,174.04362 H 124.53444 V 172.25862 H 122.83694 Z"
         id="path161" />
      <path
         d="M 137.23944,172.25862 H 130.09944 V 173.76362 H 132.89944 V 183.17862 H 129.99444 V 184.68362 H 137.34444 V 183.17862 H 134.43944 V 173.76362 H 137.23944 Z"
         id="path163" />
      <path
         d="M 140.35445,183.35362 V 184.68362 H 148.70195 V 183.35362 H 145.44695 V 174.65612 C 145.44695,173.11612 144.53695,172.25862 142.92695,172.25862 H 140.70445 V 173.58862 H 142.92695 C 143.62695,173.58862 143.94195,173.92112 143.94195,174.65612 V 183.35362 Z"
         id="path165" />
      <path
         d="M 150.99446,184.68362 H 159.07946 V 183.17862 H 152.53446 V 172.25862 H 150.99446 Z"
         id="path167" />
      <path
         d="M 160.93446,183.17862 V 184.68362 H 169.71946 V 183.17862 H 166.25446 V 172.25862 H 165.04696 C 165.04696,173.60612 164.46946,174.18362 163.13946,174.18362 H 161.61696 V 175.49612 H 164.71446 V 183.17862 Z"
         id="path169" />
      <path
         d="M 182.75698,178.03362 V 179.52112 C 184.66448,179.48612 185.43448,180.20362 185.43448,181.88362 V 183.33612 C 185.43448,185.10362 186.72948,186.34612 188.58448,186.34612 H 189.58198 V 184.94612 C 187.55198,185.01612 186.85198,184.57862 186.85198,183.37112 V 181.76112 C 186.85198,180.16862 185.99448,179.01362 184.71698,178.76862 V 178.75112 C 185.95948,178.50612 186.85198,177.36862 186.85198,175.79362 V 174.18362 C 186.85198,172.97612 187.55198,172.53862 189.58198,172.60862 V 171.20862 H 188.58448 C 186.72948,171.20862 185.43448,172.45112 185.43448,174.21862 V 175.67112 C 185.43448,177.35112 184.66448,178.06862 182.75698,178.03362 Z"
         id="path171" />
      <path
         d="M 200.08198,179.52112 V 178.03362 C 198.17448,178.06862 197.40448,177.35112 197.40448,175.67112 V 174.21862 C 197.40448,172.45112 196.10948,171.20862 194.25448,171.20862 H 193.25698 V 172.60862 C 195.28698,172.53862 195.98698,172.97612 195.98698,174.18362 V 175.79362 C 195.98698,177.36862 196.87948,178.50612 198.12198,178.75112 V 178.76862 C 196.84448,179.01362 195.98698,180.16862 195.98698,181.76112 V 183.37112 C 195.98698,184.57862 195.28698,185.01612 193.25698,184.94612 V 186.34612 H 194.25448 C 196.10948,186.34612 197.40448,185.10362 197.40448,183.33612 V 181.88362 C 197.40448,180.20362 198.17448,179.48612 200.08198,179.52112 Z"
         id="path173" />
      <path
         d="M 215.34199,171.20862 V 186.25862 H 220.46949 V 184.85862 H 216.77699 V 172.60862 H 220.46949 V 171.20862 Z"
         id="path175" />
      <path
         d="M 230.49701,171.20862 H 225.36951 V 172.60862 H 229.06201 V 184.85862 H 225.36951 V 186.25862 H 230.49701 Z"
         id="path177" />
      <path
         d="M 248.95951,184.19362 C 250.07951,184.19362 251.19951,183.52862 251.68951,182.60112 V 184.12362 C 251.68951,185.40112 250.70951,186.08362 249.08201,186.08362 247.94451,186.08362 247.15701,185.57612 246.77201,184.71862 L 245.19701,184.82362 C 245.63451,186.45112 247.10451,187.51862 249.08201,187.51862 251.51451,187.51862 253.19451,186.22362 253.19451,183.77362 V 175.40862 H 251.75951 V 176.84362 C 251.35701,175.88112 250.20201,175.19862 248.95951,175.19862 246.61451,175.19862 244.95201,177.05362 244.95201,179.69612 244.95201,182.33862 246.61451,184.19362 248.95951,184.19362 Z M 246.52701,179.69612 C 246.52701,177.91112 247.50701,176.63362 249.13451,176.63362 250.76201,176.63362 251.74201,177.91112 251.70701,179.69612 251.68951,181.48112 250.70951,182.75862 249.13451,182.75862 247.50701,182.75862 246.52701,181.48112 246.52701,179.69612 Z"
         id="path179" />
      <path
         d="M 256.85203,181.90112 255.24203,182.02362 C 255.80203,183.93112 257.34203,184.96362 259.23203,184.96362 262.81953,184.96362 264.00953,181.46362 264.00953,177.73612 264.00953,175.79362 263.57203,174.21862 262.67953,173.29112 261.76953,172.36362 260.66703,171.97862 259.58203,171.97862 257.00953,171.97862 255.18953,173.67612 255.18953,176.38862 255.18953,178.94362 256.85203,180.72862 259.31953,180.72862 260.64953,180.72862 261.75203,180.11612 262.43453,178.99612 262.18953,181.86612 261.06953,183.45862 259.23203,183.45862 258.07703,183.45862 257.21953,182.89862 256.85203,181.90112 Z M 256.79953,176.38862 C 256.79953,174.69112 257.93703,173.48362 259.54703,173.48362 261.20953,173.48362 262.36453,174.69112 262.32953,176.38862 262.31203,178.05112 261.10453,179.22362 259.42453,179.22362 257.88453,179.22362 256.79953,178.05112 256.79953,176.38862 Z"
         id="path181" />
      <path
         d="M 274.01953,187.30862 V 175.40862 H 272.65453 L 272.60203,176.75612 C 272.09453,175.75862 271.11453,175.19862 269.76703,175.19862 266.98453,175.19862 265.75953,177.50862 265.75953,180.04612 265.75953,182.58362 266.98453,184.89362 269.76703,184.89362 271.04453,184.89362 272.00703,184.40362 272.51453,183.44112 V 187.30862 Z M 267.36953,180.04612 C 267.36953,178.31362 268.12203,176.63362 270.02953,176.63362 271.91953,176.63362 272.68953,178.33112 272.68953,180.04612 272.68953,181.76112 271.91953,183.45862 270.02953,183.45862 268.12203,183.45862 267.36953,181.77862 267.36953,180.04612 Z"
         id="path183" />
      <path
         d="M 285.34204,180.76362 283.71454,180.65862 C 283.32954,182.46112 282.33204,183.45862 280.91454,183.45862 278.84954,183.45862 277.69454,181.67362 277.69454,178.48862 277.69454,175.28612 278.84954,173.48362 280.91454,173.48362 282.19204,173.48362 283.15454,174.39362 283.59204,176.00362 L 285.23704,175.89862 C 284.65954,173.48362 283.10204,171.97862 280.91454,171.97862 277.81704,171.97862 276.08454,174.48112 276.08454,178.48862 276.08454,182.46112 277.81704,184.96362 280.91454,184.96362 283.25954,184.96362 284.85204,183.33612 285.34204,180.76362 Z"
         id="path185" />
      <path
         d="M 295.66704,184.68362 V 178.38362 H 291.29204 V 179.88862 H 294.21454 C 294.09204,181.90112 292.91954,183.45862 291.29204,183.45862 289.27954,183.45862 288.15954,181.67362 288.15954,178.48862 288.15954,175.28612 289.27954,173.48362 291.29204,173.48362 292.60454,173.48362 293.67204,174.51612 294.07454,176.00362 L 295.68454,175.89862 C 295.14204,173.58862 293.39204,171.97862 291.29204,171.97862 288.38704,171.97862 286.54954,174.48112 286.54954,178.48862 286.54954,182.46112 288.38704,184.96362 291.29204,184.96362 292.65704,184.96362 293.84704,184.15862 294.38954,182.93362 L 294.61704,184.68362 Z"
         id="path187" />
      <path
         d="M 301.66956,184.96362 C 302.31706,184.96362 302.89456,184.85862 303.40206,184.63112 L 304.25956,185.89112 H 305.99206 L 304.59206,183.84362 C 305.67706,182.77612 306.25456,180.95612 306.25456,178.48862 306.25456,174.30612 304.60956,171.97862 301.66956,171.97862 298.72956,171.97862 297.08456,174.30612 297.08456,178.48862 297.08456,182.63612 298.72956,184.96362 301.66956,184.96362 Z M 298.69456,178.48862 C 298.69456,175.28612 299.76206,173.48362 301.66956,173.48362 303.57706,173.48362 304.64456,175.28612 304.64456,178.48862 304.64456,180.29112 304.29456,181.65612 303.66456,182.47862 L 302.66706,181.04362 H 300.93456 L 302.50956,183.33612 C 302.24706,183.42362 301.96706,183.45862 301.66956,183.45862 299.76206,183.45862 298.69456,181.67362 298.69456,178.48862 Z"
         id="path189" />
      <path
         d="M 329.03956,179.17112 C 328.00706,179.17112 328.25206,177.14112 326.25706,177.14112 324.41956,177.14112 324.55956,179.17112 323.47456,179.17112 322.87956,179.17112 322.51206,178.38362 322.51206,177.14112 H 321.02456 C 321.02456,178.54112 321.56706,180.57112 323.47456,180.57112 325.46956,180.57112 325.22456,178.54112 326.25706,178.54112 327.34206,178.54112 327.20206,180.57112 329.03956,180.57112 H 334.84956 V 179.17112 Z"
         id="path191" />
      <path
         d="M 339.50459,178.64612 V 180.04612 H 342.96959 V 183.51112 H 344.36959 V 180.04612 H 347.83459 V 178.64612 H 344.36959 V 175.18112 H 342.96959 V 178.64612 Z"
         id="path193" />
      <path
         d="M 350.00459,176.66862 V 178.06862 H 365.84209 L 366.94459,179.17112 365.84209,180.27362 H 350.00459 V 181.67362 H 364.44209 L 362.37709,183.73862 364.28459,183.72112 368.83459,179.17112 364.28459,174.60362 H 362.39459 L 364.45959,176.66862 Z"
         id="path195" />
    </g>
  </g>
</svg>
