<svg xmlns="http://www.w3.org/2000/svg" width="325.378" height="115.777" viewBox="0 0 305.042 108.541"><g font-weight="400" font-family="GoMono Nerd Font" letter-spacing="0" word-spacing="0" fill="#fff"><g style="line-height:125%;text-decoration-line:underline" font-size="27.5" text-decoration="underline"><path d="M13.522 20.209q-2.444 1.49-5.143 1.49-3.975 0-6.177-2.766Q0 16.18 0 11.172q0-5.009 2.108-7.68Q4.23.818 8.245.818q2.323 0 4.954.833v4.444h-1.651l-.39-2.9q-1.53-.725-2.86-.725-5.438 0-5.438 8.835 0 4.122 1.544 6.351 1.544 2.283 4.284 2.283 1.047 0 2.175-.43v-5.518h-2.31V12.34h4.969v7.869zM23.74 6.298q3.156 0 4.955 2.027 1.813 2.028 1.813 5.573 0 3.598-1.813 5.612-1.813 2.028-5.062 2.028-2.753 0-4.485-1.678-2.162-2.082-2.162-5.949 0-3.558 1.813-5.586 1.813-2.027 4.941-2.027zm0 1.651q-3.894 0-3.894 5.935 0 6.002 3.894 6.002 3.908 0 3.908-6.002 0-5.935-3.908-5.935zM32.32 21.202v-1.651h1.155V2.98h-1.154V1.329h3.826L40.257 15h.026l4.257-13.67h3.612v1.652h-1.155v16.57h1.155v1.651h-4.297v-1.651h.967V6.056h-.027l-3.907 12.541h-1.813L35.167 5.546h-.027V19.55h1.155v1.651h-3.974zM56.719 6.298q3.155 0 4.955 2.027 1.812 2.028 1.812 5.573 0 3.598-1.812 5.612-1.813 2.028-5.063 2.028-2.752 0-4.485-1.678-2.161-2.082-2.161-5.949 0-3.558 1.812-5.586 1.813-2.027 4.942-2.027zm0 1.651q-3.894 0-3.894 5.935 0 6.002 3.894 6.002 3.907 0 3.907-6.002 0-5.935-3.907-5.935zM66.064 21.202v-1.651h1.478V8.285H65.93V6.62h4.27v2.82q.927-1.41 1.84-2.122 1.289-1.02 2.887-1.02 4.042 0 4.042 5.21v8.043h1.61v1.651h-4.256v-9.466q0-3.451-2.188-3.451-2.015 0-3.935 3.464v7.802h1.343v1.651h-5.479zM89.697 6.298q3.156 0 4.955 2.027 1.813 2.028 1.813 5.573 0 3.598-1.813 5.612-1.813 2.028-5.062 2.028-2.753 0-4.485-1.678-2.162-2.082-2.162-5.949 0-3.558 1.813-5.586 1.813-2.027 4.941-2.027zm0 1.651q-3.894 0-3.894 5.935 0 6.002 3.894 6.002 3.908 0 3.908-6.002 0-5.935-3.908-5.935zM115.425 21.202v-1.651h1.49V2.98h-1.49V1.329h3.142l8.19 14.435h.028V2.981h-1.477V1.329h4.632v1.652h-1.49v18.221h-1.665l-8.178-14.448h-.04v12.797h1.49v1.651h-4.632zM145.758 14.408h-10.353q.188 1.813.55 2.618 1.223 2.753 4.727 2.753 2.162 0 4.687-1.41v2q-2.35 1.17-5.036 1.17-3.478 0-5.626-2.136-2.135-2.135-2.135-5.6 0-3.37 1.987-5.438 1.974-2.067 5.224-2.067 5.975 0 5.975 7.29v.82zm-10.326-1.652h7.506v-.617q0-4.19-3.343-4.19-2.068 0-3.196 1.652-.792 1.155-.967 3.155zM154.526 11.776v7.775h4.834v1.651h-10.836v-1.651h3.357V8.285h-3.478V6.62h6.123v2.833q.994-1.423 1.894-2.135 1.289-1.02 2.78-1.02 1.584 0 3.06.913v3.974h-1.664l-.269-2.094q-.752-.484-1.584-.484-2.471 0-4.217 3.17zM175.259 1.652h-3.303V0h5.961v19.55h1.652v1.652h-4.31v-2.98q-1.007 1.49-1.947 2.242-1.37 1.074-2.968 1.074-2.215 0-3.585-1.934-1.37-1.92-1.37-5.089 0-3.827 1.813-6.015 1.8-2.202 4.995-2.202 1.168 0 3.062.322V1.652zm0 6.7q-1.826-.295-2.86-.295-2.216 0-3.21 1.436-.98 1.424-.98 4.942 0 5.116 2.874 5.116 2.202 0 4.176-3.142V8.352zM203.994 19.55h3.652v1.652h-9.278v-1.651h2.98V2.98h-2.98V1.329h13.763v4.969h-1.651V2.98h-6.486v7.788h4.002V9.104h1.651v4.982h-1.651V12.42h-4.002v7.13zM221.611 6.298q3.156 0 4.955 2.027 1.813 2.028 1.813 5.573 0 3.598-1.813 5.612-1.813 2.028-5.062 2.028-2.753 0-4.485-1.678-2.162-2.082-2.162-5.949 0-3.558 1.813-5.586 1.813-2.027 4.941-2.027zm0 1.651q-3.894 0-3.894 5.935 0 6.002 3.894 6.002 3.908 0 3.908-6.002 0-5.935-3.908-5.935zM230.957 21.202v-1.651h1.477V8.285h-1.611V6.62h4.27v2.82q.926-1.41 1.84-2.122 1.288-1.02 2.886-1.02 4.042 0 4.042 5.21v8.043h1.611v1.651h-4.256v-9.466q0-3.451-2.189-3.451-2.014 0-3.934 3.464v7.802h1.343v1.651h-5.479zM260.203 20.383q-2.216 1.155-4.512 1.155-2.162 0-3.088-1.007-.927-.994-.927-3.343V8.782h-3.733V6.956h3.733V3.182h2.645v3.774h5.72v1.826h-5.72v7.21q0 2.149.43 2.847.43.712 1.705.712 1.424 0 3.747-1.034v1.866z"/></g><g style="line-height:125%" font-size="17.5"><path d="M8.695 60.186q-1.478 1.23-3 1.23-1.307 0-2.084-.735-.778-.726-.778-1.982 0-1.624 1.214-2.359 1.213-.726 3.922-.726h.726v-1.436q0-1.41-1.743-1.41-.88 0-2.196.496l-.214 1.085h-1.05v-1.845q1.956-.795 3.99-.795 1.615 0 2.256.555.64.564.64 1.94v5.947h1.163v1.051H8.866l-.17-1.016zm0-1.282v-2.239h-.453q-1.965 0-2.794.444-.82.445-.82 1.675 0 1.513 1.589 1.513 1.256 0 2.478-1.393zM15.334 61.202h-1.691V48.761h-1.051V47.71h2.742v6.11q.641-.949 1.248-1.419.872-.683 1.88-.683 1.41 0 2.281 1.221.872 1.23.872 3.239 0 2.444-1.154 3.837-1.145 1.401-3.153 1.401-.752 0-1.974-.214zm0-1.102q1.163.197 1.812.197 1.427 0 2.05-.915.625-.914.625-3.119 0-3.178-1.83-3.178-1.4 0-2.657 2V60.1zM32.04 60.81q-1.384.606-3.367.606-2.418 0-3.802-1.35-1.376-1.35-1.376-3.606 0-2.222 1.35-3.478 1.342-1.264 3.794-1.264 1.82 0 3.29.461v2.649h-1.06l-.299-1.683q-1.034-.376-2.025-.376-1.504 0-2.393 1.008-.82 1.008-.82 2.709 0 1.88.923 2.845.991.966 2.751.966 1.436 0 3.034-.693v1.205zM40.277 48.761h-2.102V47.71h3.794v12.441h1.051v1.051h-2.743v-1.897q-.64.949-1.239 1.427-.871.684-1.888.684-1.41 0-2.282-1.23-.871-1.222-.871-3.239 0-2.435 1.153-3.828 1.145-1.401 3.179-1.401.743 0 1.948.205V48.76zm0 4.264q-1.162-.188-1.82-.188-1.41 0-2.042.914-.624.906-.624 3.145 0 3.255 1.829 3.255 1.401 0 2.657-2v-5.126zM52.983 56.879h-6.588q.12 1.153.35 1.666.778 1.752 3.008 1.752 1.376 0 2.983-.898v1.274q-1.496.743-3.205.743-2.213 0-3.58-1.359-1.359-1.358-1.359-3.563 0-2.145 1.265-3.46 1.256-1.316 3.324-1.316 3.802 0 3.802 4.64v.52zm-6.57-1.051h4.776v-.393q0-2.666-2.128-2.666-1.316 0-2.033 1.05-.505.735-.616 2.009zM55.393 61.202v-1.05h2.222v-6.683h-2.316v-1.162h2.316v-1.18q0-1.922.777-2.776.778-.855 2.504-.855 1.461 0 3.11.684v2.11h-1.05l-.266-1.332q-.863-.402-1.572-.402-1.017 0-1.41.513-.401.512-.401 1.87v1.368H63.1v1.162h-3.794v6.682h2.734v1.051h-6.648zM73.448 52.974v6.904q0 .598-.025 1.196-.017.59-.137 1.137-.12.547-.367 1.017-.248.47-.7.811-.445.35-1.129.547-.683.205-1.675.205-.735 0-1.606-.12-.863-.11-1.735-.452v-2.11h1.051l.222 1.161q.18.086.42.171.247.086.52.145.274.069.564.103.29.043.581.043.573 0 .966-.137.402-.128.658-.367.256-.231.393-.556.145-.325.214-.718.068-.384.077-.82.017-.436.017-.897v-1.7q-.65.965-1.24 1.426-.88.684-1.888.684-1.41 0-2.281-1.23-.872-1.214-.872-2.897 0-1.051.282-1.872.29-.828.872-1.53 1.145-1.4 3.187-1.4.572 0 1.025.06.453.06.915.145h2.708v1.05H73.45zm-1.691.205q-.59-.094-1.043-.146-.453-.05-.777-.05-1.41 0-2.043.913-.316.462-.47 1.069-.153.606-.153 1.46 0 2.846 1.828 2.846 1.401 0 2.658-2V53.18zM75.721 61.202v-1.05h.94V48.76h-1.05V47.71h2.742v6.007q.59-.897 1.17-1.35.821-.65 1.838-.65 2.572 0 2.572 3.316v5.118h1.06v1.051H82.25v-6.024q0-2.196-1.393-2.196-1.282 0-2.504 2.205v4.964h.949v1.051h-3.58zM86.779 61.202v-1.05h3.332v-7.17H86.78v-1.06h5.015v8.23h3.162v1.05H86.78zm3.076-11.381V47.71h2.068v2.11h-2.068zM97.366 64.142v-2.726h1.05l.266 1.863q.58.453 1.256.453 1.128 0 1.606-.82.487-.82.487-2.795v-7.135h-3.794v-1.06h5.486v8.716q0 1.966-.965 3.06-.966 1.093-2.684 1.093-1.187 0-2.708-.65zm4.392-14.321V47.71h2.068v2.11h-2.068zM113.516 61.202v-1.05l-3.435-3.427h-.206v3.426h.846v1.051h-3.588v-1.05h1.05V48.76h-1.05V47.71h2.742v8.434h.206l3.059-3.162h-.992v-1.06h3.692v1.06h-1.205l-3.102 3.093 4.17 4.076h.846v1.051h-3.033zM126.521 60.681q-1.418.735-2.871.735-.786 0-1.316-.188-.521-.18-.837-.572-.308-.402-.445-1.026-.128-.624-.128-1.495V48.76h-3.162V47.71h4.845v9.86q0 .795.06 1.3.06.504.23.786.18.282.505.384.325.103.863.103 1.06 0 2.256-.658v1.196zM128.341 61.202v-8.22h-.632v-1.06h2.162v1.855q.572-1.196.94-1.59.444-.47 1.093-.47.855 0 1.248.795.205.427.299 1.265.359-.974.76-1.419.564-.64 1.333-.64 1.598 0 1.598 2.332v6.101h.598v1.051h-2.127v-6.425q0-1.795-.556-1.795-.41 0-.914.752-.265.419-.41.778-.222.555-.222.786v4.853h.598v1.051h-2.128v-6.818q0-1.402-.564-1.402-.743 0-1.546 2.316v4.853h.598v1.051h-2.128zM138.68 61.202v-1.05h.94v-7.17h-1.025v-1.06h2.717v1.795q.59-.897 1.17-1.35.821-.65 1.838-.65 2.572 0 2.572 3.316v5.118h1.025v1.051h-2.708v-6.024q0-2.196-1.393-2.196-1.282 0-2.504 2.205v4.964h.855v1.051h-3.487zM153.72 51.718q2.008 0 3.153 1.29 1.153 1.29 1.153 3.546 0 2.29-1.153 3.572-1.154 1.29-3.222 1.29-1.752 0-2.854-1.068-1.376-1.325-1.376-3.786 0-2.264 1.154-3.554t3.144-1.29zm0 1.05q-2.479 0-2.479 3.777 0 3.82 2.478 3.82 2.487 0 2.487-3.82 0-3.776-2.487-3.776zM162.239 63.527h2.11v1.05h-4.853v-1.05h1.05V52.982h-1.05v-1.06h2.743v1.898q.64-.949 1.247-1.419.872-.683 1.88-.683 1.41 0 2.282 1.221.871 1.23.871 3.239 0 2.444-1.153 3.837-1.145 1.401-3.153 1.401-.752 0-1.974-.214v2.325zm0-3.572q1.162.196 1.811.196 1.427 0 2.051-.914.624-.914.624-3.068 0-3.187-1.829-3.187-1.401 0-2.657 2.102v4.87zM176.688 59.305q-.64.949-1.239 1.427-.871.684-1.888.684-1.41 0-2.282-1.23-.871-1.222-.871-3.239 0-2.435 1.153-3.828 1.145-1.401 3.188-1.401l1.94.205h1.691v11.604h1.051v1.05h-4.845v-1.059h2.102v-4.213zm0-6.126q-1.162-.197-1.82-.197-1.41 0-2.042.914-.624.915-.624 2.957 0 3.187 1.829 3.187 1.401 0 2.657-2V53.18zM184.481 55.204v4.947h3.076v1.051h-6.895v-1.05h2.136v-7.17h-2.213v-1.06h3.896v1.804q.633-.906 1.205-1.36.82-.648 1.769-.648 1.008 0 1.948.58v2.53h-1.06l-.17-1.333q-.479-.308-1.009-.308-1.572 0-2.683 2.017zM191.924 60.681v-2.538h1.05l.214 1.564q1.675.65 2.846.65 2.034 0 2.034-1.436 0-.564-.342-.872-.342-.316-1.222-.547l-1.743-.461q-1.461-.385-2.128-1.008-.658-.607-.658-1.615 0-2.709 3.692-2.709 1.888 0 3.435.615v2.444h-1.051l-.214-1.547q-.931-.452-2.179-.452-.94 0-1.461.299-.615.35-.615 1.076 0 .957 1.76 1.419l1.726.453q1.435.376 2.06.957.614.572.614 1.555 0 1.341-1.05 2.11-1.052.778-2.931.778-1.932 0-3.837-.735zM209.757 60.681q-1.41.735-2.871.735-1.376 0-1.965-.64-.59-.633-.59-2.129v-5.349h-2.375v-1.162h2.375v-2.4h1.683v2.4h3.64v1.162h-3.64v4.589q0 1.367.274 1.811.273.453 1.085.453.906 0 2.384-.658v1.188zM217.704 51.923h2.64v8.228h1.051v1.051h-2.743v-1.785q-.59.897-1.17 1.35-.82.649-1.837.649-2.581 0-2.581-3.315v-5.119h-1.051v-1.06h2.743v6.033q0 2.18 1.393 2.18 1.273 0 2.503-2.197v-4.956h-.948v-1.06zM226.317 61.202l-3.29-8.22h-.632v-1.06h3.82v1.06h-1.368l2.658 6.648h.017l2.657-6.648h-1.367v-1.06h3.136v1.06h-.632l-3.29 8.22h-1.709zM234.486 61.202l-1.453-8.22h-.418v-1.06h2.657v1.06h-.735l1.103 6.187h.017l1.512-5.854h1.427l1.521 5.88h.017l1.111-6.213h-.837v-1.06h2.324v1.06h-.419l-1.452 8.22h-1.65l-1.53-6.007h-.016l-1.555 6.007h-1.624zM243.527 61.202v-1.05h.94l2.828-3.59-2.828-3.58h-1.051v-1.06h3.742v1.06h-.743l2.23 2.829 2.222-2.829h-.88v-1.06h3.084v1.06h-1l-2.828 3.589 2.82 3.58h1.008v1.051h-3.802v-1.05h.846l-2.162-2.744-2.153 2.743h.854v1.051h-3.127zM257.797 61.202l-3.29-8.22h-.632v-1.06h3.82v1.06h-1.368l2.657 6.648h.017l2.658-6.648h-1.367v-1.06h3.136v1.06h-.633l-3.29 8.22-.922 2.316h1.264v1.06h-4.093v-1.06h1.692l.923-2.316h-.572zM264.949 61.202v-1.05l5.981-7.17h-4.614v1.684h-1.051v-2.743h7.656v1.06l-5.904 7.1h5.16v-1.666h1.06v2.785h-8.288zM4.363 79.283l-.846 2.743h1.222v1.051H1.782v-1.05h.633L6.012 70.43h1.615l3.589 11.595h.632v1.051H8.114v-1.05h1.342L8.6 79.282H4.363zm.333-1.06h3.58L6.5 72.457h-.017l-1.786 5.768zM14.172 82.026V71.482h-1.478V70.43h5.28q3.197 0 3.197 2.777 0 1.436-.872 2.333-.513.538-1.487.948.838.222 1.265.479 1.487.897 1.487 2.888 0 3.221-3.794 3.221h-5.076v-1.05h1.478zm1.684-.068h1.393q2.52 0 2.52-2.23 0-1.205-.829-1.94-.82-.726-2.255-.726h-.83v4.896zm0-5.947h.837q2.675 0 2.675-2.666 0-1.863-1.803-1.863h-1.71v4.529zM32.185 82.445q-1.769.949-3.315.949-2.47 0-3.863-1.76-1.401-1.761-1.401-4.948 0-3.153 1.333-4.862 1.333-1.71 3.811-1.71 1.401 0 3.256.548v2.802h-1.051l-.248-1.845q-.966-.453-1.914-.453-1.598 0-2.487 1.504-.88 1.495-.88 4.135 0 2.555.983 4.034.99 1.435 2.683 1.435 1.504 0 3.093-1.179v1.35zM33.467 83.077v-1.05h1.264V71.481h-1.264V70.43h4.358q5.195 0 5.195 6.024 0 3.042-1.367 4.837-1.367 1.785-3.674 1.785h-4.512zm2.956-1.119h1.009q3.768 0 3.768-5.323 0-2.64-.949-3.897-.957-1.256-2.939-1.256h-.889v10.476zM44.174 83.077v-1.05h1.58V71.481h-1.58V70.43h8.39v3.033h-1.05v-1.982h-4.068v4.64h2.487v-1.06h1.05v3.17h-1.05v-1.06h-2.487v4.786h4.486v-2.11h1.06v3.23h-8.818zM58.563 82.026h2.324v1.051h-5.904v-1.05h1.897V71.481h-1.897V70.43h8.758v3.162h-1.05v-2.111h-4.128v4.956h2.547v-1.06h1.05v3.17h-1.05V77.49h-2.547v4.537zM73.765 82.445q-1.556.949-3.273.949-2.53 0-3.93-1.76-1.402-1.752-1.402-4.94 0-3.187 1.341-4.887 1.35-1.7 3.905-1.7 1.479 0 3.154.529v2.828h-1.051l-.248-1.845q-.974-.462-1.82-.462-3.461 0-3.461 5.623 0 2.623.983 4.042.982 1.452 2.725 1.452.667 0 1.385-.273v-3.512h-1.47v-1.051h3.162v5.007zM78.182 77.07v4.956h.846v1.051h-3.477v-1.05h.948V71.481h-.948V70.43h3.477v1.05h-.846v4.53h4.179v-4.53h-.846v-1.05H85v1.05h-.948v10.545H85v1.051h-3.486v-1.05h.846V77.07h-4.179zM86.881 83.077v-1.05h3.034V71.481H86.88V70.43h7.759v1.05h-3.034v10.545h3.034v1.051H86.88zM96.956 82.812v-3.529h1.05l.334 2.572q.965.42 1.658.42.99 0 1.427-.47.444-.462.444-1.48v-8.843h-3.375V70.43h7.28v1.05h-2.222v8.503q0 1.829-.786 2.615-.786.795-2.598.795-1.35 0-3.212-.582zM107.133 83.077v-1.05h1.11V71.481h-1.11V70.43h3.691v1.05h-.897v5.136h.06l3.674-5.135h-.949V70.43h3.042v1.05h-.786l-3.392 4.666 4.52 5.88h.633v1.05h-3.632v-1.05h.948l-4.058-5.273h-.06v5.272h1.05v1.051h-3.844zM126.829 83.077h-9.1v-1.05h2.11V71.481h-2.11V70.43h5.801v1.05h-2.008v10.477h4.256V79.01h1.05v4.067zM127.7 83.077v-1.05h.735V71.481h-.735V70.43h2.436l2.614 8.699h.017l2.71-8.7h2.298v1.052h-.735v10.544h.735v1.051h-2.735v-1.05h.616v-8.588h-.018l-2.486 7.98h-1.154l-2.486-8.305h-.017v8.912h.734v1.051H127.7zM138.612 83.077v-1.05h.949V71.481h-.949V70.43h2l5.212 9.186h.017v-8.135h-.94V70.43h2.948v1.05h-.948v11.596h-1.06l-5.204-9.194h-.025v8.143h.948v1.051h-2.948zM153.728 70.115q2.076 0 3.4 1.845 1.325 1.846 1.325 4.777 0 2.974-1.324 4.81-1.325 1.847-3.46 1.847-1.83 0-3.068-1.496-1.598-1.922-1.598-5.152 0-2.931 1.316-4.777 1.324-1.854 3.409-1.854zm0 1.136q-1.376 0-2.136 1.427-.77 1.453-.77 4.093 0 2.615.761 4.06.752 1.46 2.136 1.46 1.385 0 2.103-1.256.811-1.401.811-4.247 0-2.674-.769-4.11-.777-1.427-2.136-1.427zM163.076 77.959v4.067h2.427v1.051H159.7v-1.05h1.683V71.481h-1.683V70.43h5.648q3.222 0 3.222 3.085 0 2.059-1.197 3.255-1.196 1.188-3.29 1.188h-1.008zm0-1.051h.949q2.751 0 2.751-3.136 0-2.29-1.982-2.29h-1.718v5.426zM174.714 83.394q-1.333-.214-2.042-.564-.854-.42-1.52-1.504-1.163-1.906-1.163-4.572 0-2.93 1.316-4.785 1.316-1.854 3.41-1.854 2.084 0 3.4 1.854 1.325 1.854 1.325 4.777 0 2.734-1.145 4.546-.778 1.221-2.094 1.802 1.384.864 3.709 1.376-.59.727-1.436 1.35-1.786-.675-3.76-2.426zm0-12.16q-1.375 0-2.136 1.444-.769 1.427-.769 4.076 0 2.615.76 4.068.753 1.47 2.137 1.47t2.102-1.265q.812-1.41.812-4.256 0-2.674-.77-4.101-.777-1.436-2.136-1.436zM180.687 83.077v-1.05h1.111V71.481h-1.11V70.43h5.015q1.504 0 2.367.829.872.829.872 2.264 0 1.308-.786 2.316-.462.58-1.342 1.179l2.675 5.007h.751v1.051h-2.161l-2.897-5.537h-1.7v4.486h1.11v1.051h-3.905zm2.794-6.588h.846q2.82 0 2.82-2.777 0-2.23-2.136-2.23h-1.53v5.007zM191.736 82.556v-3.059h1.06l.204 2q1.598.777 2.658.777 1.085 0 1.76-.675.675-.666.675-1.64 0-1.342-1.709-2.23l-1.623-.847q-1.615-.837-2.188-1.546-.564-.684-.564-1.855 0-3.366 3.828-3.366 1.564 0 3.205.624v2.725h-1.051l-.214-1.666q-1.068-.632-2.068-.632-2.06 0-2.06 2.102 0 .863.48 1.273.418.359 1.495.94l1.444.778q1.666.897 2.179 1.52.521.633.521 1.77 0 1.743-1.145 2.794-1.154 1.05-3.068 1.05-1.751 0-3.82-.837zM203.135 83.077v-1.05h2.213V71.481h-2.828v1.982h-1.051v-3.033h9.45v3.033h-1.06v-1.982h-2.82v10.544h2.214v1.051h-6.118zM213.013 71.482h-1.051V70.43h3.905v1.05h-1.162v7.127q0 1.795.615 2.76.607.975 1.717.975 2.265 0 2.265-3.812v-7.05h-1.162v-1.05h3.272v1.05h-1.06v7.358q0 2.153-.948 3.35-.94 1.205-2.666 1.205-3.725 0-3.725-5.016v-6.896zM226.368 83.077l-3.588-11.595h-.633V70.43h3.734v1.05h-1.341l2.956 9.571h.017l2.966-9.57h-1.222V70.43h2.956v1.05h-.632l-3.598 11.596h-1.615zM234.486 83.077l-1.453-11.595h-.418V70.43h2.597v1.05h-.854l1.162 9.247h.086l1.572-8.306 1.273-.01 1.572 8.264h.077l1.145-9.195h-.854v-1.05h2.341v1.05h-.427l-1.453 11.596h-1.52l-1.59-8.323h-.069l-1.572 8.323h-1.615zM243.33 83.077v-1.05h.949l2.99-5.187-3.093-5.358h-.846V70.43h3.589v1.05h-.855l2.461 4.273 2.47-4.272H249.9V70.43h3.085v1.05h-.897l-3.017 5.222 3.076 5.323h.838v1.051H249.2v-1.05h1.06l-2.444-4.239-2.444 4.238h1.316v1.051h-3.358zM255.917 83.077v-1.05h1.897v-4.59l-3.444-5.955h-.735V70.43h3.957v1.05h-1.274l2.692 4.65h.017l2.692-4.65h-1.265v-1.05h3.213v1.05h-.735l-3.435 5.948v4.597h1.897v1.051h-5.477zM265.162 83.077v-1.162l5.982-10.433h-4.768v1.982h-1.051v-3.033h7.699v1.05l-6.05 10.477h5.101v-2.53h1.06v3.65h-7.973zM6.815 95.468q2.008 0 3.153 1.29 1.154 1.29 1.154 3.546 0 2.29-1.154 3.572-1.153 1.29-3.221 1.29-1.752 0-2.854-1.068-1.376-1.325-1.376-3.786 0-2.264 1.154-3.554 1.153-1.29 3.144-1.29zm0 1.05q-2.478 0-2.478 3.777 0 3.82 2.478 3.82 2.487 0 2.487-3.82 0-3.776-2.487-3.776zM17.317 91.99q2.076 0 3.4 1.845 1.325 1.846 1.325 4.777 0 2.974-1.324 4.81-1.325 1.847-3.46 1.847-1.83 0-3.069-1.496-1.597-1.922-1.597-5.152 0-2.931 1.315-4.777 1.325-1.854 3.41-1.854zm0 1.136q-1.376 0-2.136 1.427-.77 1.453-.77 4.093 0 2.615.761 4.06.752 1.46 2.136 1.46 1.385 0 2.102-1.256.812-1.401.812-4.247 0-2.674-.769-4.11-.777-1.427-2.136-1.427zM27.802 91.99q2.05 0 3.238 1.777 1.188 1.769 1.188 4.845 0 3.127-1.188 4.888-1.188 1.769-3.307 1.769-1.803 0-2.93-1.445-1.428-1.828-1.428-5.203 0-3.085 1.188-4.854 1.188-1.777 3.239-1.777zm-1.932 10.758q.667 1.47 1.923 1.47 2.623 0 2.623-5.589 0-1.153-.128-2.06l-4.768 5.17q.145.564.35 1.009zm1.932-9.707q-1.257 0-1.932 1.452-.675 1.462-.675 4.12 0 1.153.12 2.075l4.777-5.178q-.146-.572-.35-1.025-.684-1.444-1.94-1.444zM36.577 98.09l-.453-.341q-1.47-1.11-1.47-2.58 0-1.385 1.069-2.282 1.06-.897 2.743-.897 1.597 0 2.58.777.983.778.983 2.06 0 1.008-.496 1.683-.376.504-1.273 1.307l-.402.36.581.392q1.23.83 1.675 1.496.445.658.445 1.632 0 1.59-1.188 2.58-1.188.992-3.102.992t-3.05-.957q-1.146-.958-1.146-2.538 0-1.914 2.034-3.35l.47-.333zm2.299-.503q1.572-1.444 1.572-2.666 0-.906-.547-1.393-.555-.487-1.623-.487-.932 0-1.496.512-.555.505-.555 1.282 0 .83 1.085 1.658l.837.64.727.454zm-1.453 1.017q-.965 1.05-1.299 1.632-.367.64-.367 1.495 0 1.094.743 1.786.744.7 1.897.7 1.068 0 1.718-.615.65-.606.65-1.598 0-.7-.334-1.153-.316-.445-1.282-1.094l-1.726-1.153zM55.3 104.952v-1.05h3.332v-7.17h-3.333v-1.06h5.016v8.23h3.162v1.05h-8.178zm3.075-11.381V91.46h2.068v2.11h-2.068zM65.895 104.952v-1.05h3.033V93.356h-3.033v-1.051h7.759v1.05H70.62v10.545h3.034v1.051h-7.76zM84.548 104.431q-1.418.735-2.87.735-.787 0-1.317-.188-.52-.18-.837-.572-.308-.402-.444-1.026-.129-.624-.129-1.495V92.51H75.79V91.46h4.845v9.86q0 .795.06 1.3.06.504.23.786.18.282.504.384.325.103.863.103 1.06 0 2.256-.658v1.196zM95.35 104.952h-9.101v-1.05h2.11V93.356h-2.11v-1.051h5.802v1.05h-2.008v10.477h4.255v-2.948h1.051v4.067zM96.973 104.952v-1.05h3.794v-10.1l-3.794 1.512v-1.128l5.486-2.196V103.9h3.793v1.051h-9.28zM125.555 107.482h-1.119q-1.47 0-2.401-.812-.94-.812-.94-2.12 0-.452.111-1.102l.18-1.033q.068-.402.068-.77 0-1.649-1.94-1.649h-.957v-1.05h.957q1.94 0 1.94-1.684 0-.333-.068-.735l-.18-1.034q-.111-.65-.111-1.145 0-1.273.948-2.085.94-.803 2.393-.803h1.12v1.051h-.505q-2.375 0-2.375 1.769 0 .342.068.735l.188 1.068q.069.393.069.718 0 1.102-.667 1.854-.393.436-1.128.812.803.41 1.205.905.581.727.581 1.795 0 .35-.06.692l-.188 1.068q-.068.393-.068.778 0 1.726 2.375 1.726h.504v1.05zM129.426 91.46h1.12q1.47 0 2.4.812.94.82.94 2.11 0 .47-.11 1.111l-.18 1.034q-.068.393-.068.77 0 1.648 1.94 1.648h.957v1.051h-.958q-1.94 0-1.94 1.684 0 .35.07.735l.179 1.025q.11.632.11 1.154 0 1.264-.948 2.076-.94.812-2.392.812h-1.12v-1.051h.504q2.376 0 2.376-1.76 0-.36-.068-.744l-.188-1.068q-.06-.342-.06-.726 0-1.094.658-1.846.384-.436 1.128-.82-.795-.41-1.197-.906-.59-.727-.59-1.786 0-.35.06-.692l.189-1.068q.068-.385.068-.778 0-1.726-2.376-1.726h-.504V91.46zM151.848 107.482V91.46h4.64v1.051h-3.162v13.92h3.162v1.05h-4.64zM166.093 107.482h-4.64v-1.051h3.161V92.51h-3.161V91.46h4.64v16.022zM188.873 96.724v6.904q0 .598-.025 1.196-.017.59-.137 1.137-.12.547-.367 1.017-.248.47-.701.811-.444.35-1.128.547-.684.205-1.675.205-.735 0-1.606-.12-.863-.11-1.735-.452v-2.11h1.051l.222 1.161q.18.086.419.171.248.086.521.145.274.069.564.103.29.043.581.043.573 0 .966-.137.401-.128.658-.367.256-.231.393-.556.145-.325.213-.718.069-.384.077-.82.017-.436.017-.897v-1.7q-.649.965-1.239 1.426-.88.684-1.888.684-1.41 0-2.282-1.23-.871-1.214-.871-2.897 0-1.051.282-1.872.29-.828.871-1.53 1.145-1.4 3.188-1.4.572 0 1.025.06.453.06.914.145h2.71v1.05h-1.018zm-1.692.205q-.59-.094-1.042-.146-.453-.05-.778-.05-1.41 0-2.042.913-.316.462-.47 1.069-.154.606-.154 1.46 0 2.846 1.829 2.846 1.401 0 2.657-2V96.93zM198.076 98.911q-.547.744-1.145 1.12-.88.546-2.034.546-1.623 0-2.623-1.145-1.008-1.136-1.008-2.973 0-1.983 1.17-3.222 1.171-1.247 3.017-1.247 2.085 0 3.264 1.692 1.18 1.692 1.18 4.69 0 3.29-1.394 5.094-1.392 1.803-3.87 1.803-1.094 0-2.786-.607v-2.709h1.051l.205 1.795q.735.47 1.521.47 1.829 0 2.769-1.846.658-1.29.683-3.46zm-2.845-5.87q-.94 0-1.521.675-.735.854-.735 2.546 0 3.213 2.247 3.213 1.145 0 1.94-.88.786-.872.786-2.188 0-1.367-.803-2.366-.803-1-1.914-1zM208.168 103.055q-.641.949-1.24 1.427-.87.684-1.888.684-1.41 0-2.281-1.23-.872-1.222-.872-3.239 0-2.435 1.154-3.828 1.145-1.401 3.187-1.401l1.94.205h1.692v11.604h1.05v1.05h-4.844v-1.059h2.102v-4.213zm0-6.126q-1.162-.197-1.82-.197-1.41 0-2.043.914-.623.915-.623 2.957 0 3.187 1.828 3.187 1.402 0 2.658-2V96.93zM221.062 104.32q-1.769.949-3.315.949-2.47 0-3.863-1.76-1.401-1.761-1.401-4.948 0-3.153 1.333-4.862 1.333-1.71 3.811-1.71 1.401 0 3.256.548v2.802h-1.051l-.248-1.845q-.966-.453-1.914-.453-1.598 0-2.487 1.504-.88 1.495-.88 4.135 0 2.555.983 4.034.99 1.435 2.683 1.435 1.504 0 3.093-1.179v1.35zM231.162 104.32q-1.555.949-3.273.949-2.529 0-3.93-1.76-1.402-1.752-1.402-4.94 0-3.187 1.342-4.887 1.35-1.7 3.905-1.7 1.478 0 3.153.529v2.828h-1.051l-.248-1.845q-.974-.462-1.82-.462-3.46 0-3.46 5.623 0 2.623.982 4.042.983 1.452 2.726 1.452.666 0 1.384-.273v-3.512H228v-1.051h3.162v5.007zM237.673 105.269q-1.333-.214-2.042-.564-.854-.42-1.52-1.504-1.163-1.906-1.163-4.572 0-2.93 1.316-4.785 1.316-1.854 3.41-1.854 2.084 0 3.4 1.854 1.325 1.854 1.325 4.777 0 2.734-1.145 4.546-.778 1.221-2.094 1.802 1.384.864 3.709 1.376-.59.727-1.436 1.35-1.786-.675-3.76-2.426zm0-12.16q-1.375 0-2.136 1.444-.769 1.427-.769 4.076 0 2.615.76 4.068.753 1.47 2.137 1.47t2.102-1.265q.812-1.41.812-4.256 0-2.674-.77-4.101-.777-1.436-2.136-1.436zM255.515 100.945h-1.265q.035-.906.197-1.376.521-1.427 2.17-1.427.88 0 1.778.59l1 .658.598.393q.256.17.717.17 1.051 0 1.086-1.537h1.264q-.025.905-.196 1.375-.513 1.427-2.162 1.427-.889 0-1.777-.59l-1-.657-.598-.393q-.265-.171-.744-.171-1.034 0-1.068 1.538zM264.744 100.312v-1.264h8.81v1.264h-8.81zM279.014 104.09v-3.778h-3.777v-1.264h3.777V95.27h1.264v3.777h3.769v1.264h-3.769v3.777h-1.264zM285.73 101.996v-1.265h8.81v1.265h-8.81zm0-3.367v-1.265h8.81v1.265h-8.81zM296.223 104.952v-1.478l6.349-3.794-6.349-3.794v-1.478l8.819 5.272-8.819 5.272z"/></g></g></svg>