<?xml version="1.0" encoding="UTF-8" standalone="no"?>
<!-- Created with Inkscape (http://www.inkscape.org/) -->

<svg
   xmlns:dc="http://purl.org/dc/elements/1.1/"
   xmlns:cc="http://creativecommons.org/ns#"
   xmlns:rdf="http://www.w3.org/1999/02/22-rdf-syntax-ns#"
   xmlns:svg="http://www.w3.org/2000/svg"
   xmlns="http://www.w3.org/2000/svg"
   xmlns:sodipodi="http://sodipodi.sourceforge.net/DTD/sodipodi-0.dtd"
   xmlns:inkscape="http://www.inkscape.org/namespaces/inkscape"
   width="86.089493mm"
   height="30.632753mm"
   viewBox="0 0 305.04151 108.54125"
   id="svg2"
   version="1.1"
   inkscape:version="0.91 r13725"
   sodipodi:docname="Go-Mono Nerd Font.svg">
  <defs
     id="defs4" />
  <sodipodi:namedview
     id="base"
     pagecolor="#ffffff"
     bordercolor="#666666"
     borderopacity="1.0"
     inkscape:pageopacity="0.0"
     inkscape:pageshadow="2"
     inkscape:zoom="0.7"
     inkscape:cx="-53.8508"
     inkscape:cy="-401.23257"
     inkscape:document-units="px"
     inkscape:current-layer="layer1"
     showgrid="false"
     inkscape:window-width="1861"
     inkscape:window-height="1056"
     inkscape:window-x="59"
     inkscape:window-y="24"
     inkscape:window-maximized="1" />
  <metadata
     id="metadata7">
    <rdf:RDF>
      <cc:Work
         rdf:about="">
        <dc:format>image/svg+xml</dc:format>
        <dc:type
           rdf:resource="http://purl.org/dc/dcmitype/StillImage" />
        <dc:title />
      </cc:Work>
    </rdf:RDF>
  </metadata>
  <g
     inkscape:label="Layer 1"
     inkscape:groupmode="layer"
     id="layer1"
     transform="translate(-63.850796,-79.731239)">
    <g
       style="font-style:normal;font-weight:normal;font-size:27.5px;line-height:125%;font-family:'GoMono Nerd Font';text-decoration: underline;text-decoration-line: underline;letter-spacing:0px;word-spacing:0px;fill:#ffffff;fill-opacity:1;stroke:none;stroke-width:1px;stroke-linecap:butt;stroke-linejoin:miter;stroke-opacity:1"
       id="text4136">
      <path
         d="m 77.372524,99.93998 q -2.443847,1.49048 -5.142822,1.49048 -3.974609,0 -6.176758,-2.766115 -2.202148,-2.752686 -2.202148,-7.761231 0,-5.008545 2.108154,-7.680664 2.121582,-2.672119 6.136475,-2.672119 2.322998,0 4.954834,0.83252 l 0,4.44458 -1.651612,0 -0.389404,-2.900391 q -1.530762,-0.725098 -2.860107,-0.725098 -5.438233,0 -5.438233,8.83545 0,4.122314 1.54419,6.351318 1.544189,2.282715 4.283447,2.282715 1.047363,0 2.175293,-0.429688 l 0,-5.518798 -2.30957,0 0,-1.651612 4.968261,0 0,7.868653 z"
         id="path4140"
         inkscape:connector-curvature="0" />
      <path
         d="m 87.59103,86.028847 q 3.155518,0 4.954834,2.027588 1.812744,2.027588 1.812744,5.572509 0,3.598633 -1.812744,5.612793 -1.812744,2.027593 -5.062256,2.027593 -2.752685,0 -4.484863,-1.678472 -2.161865,-2.081298 -2.161865,-5.948486 0,-3.558349 1.812744,-5.585937 1.812744,-2.027588 4.941406,-2.027588 z m 0,1.651611 q -3.894043,0 -3.894043,5.935059 0,6.002197 3.894043,6.002197 3.907471,0 3.907471,-6.002197 0,-5.935059 -3.907471,-5.935059 z"
         id="path4142"
         inkscape:connector-curvature="0" />
      <path
         d="m 97.165005,93.642372 0,-1.987305 13.843995,0 0,1.987305 -13.843995,0 z"
         id="path4144"
         inkscape:connector-curvature="0" />
      <path
         d="m 112.66061,100.93363 0,-1.651609 1.15479,0 0,-16.569825 -1.15479,0 0,-1.651611 3.8269,0 4.10889,13.669434 0.0269,0 4.25659,-13.669434 3.61206,0 0,1.651611 -1.15479,0 0,16.569825 1.15479,0 0,1.651609 -4.29688,0 0,-1.651609 0.9668,0 0,-13.494873 -0.0268,0 -3.90748,12.541503 -1.81274,0 -3.90747,-13.051757 -0.0269,0 0,14.005127 1.15479,0 0,1.651609 -3.97461,0 z"
         id="path4146"
         inkscape:connector-curvature="0" />
      <path
         d="m 137.0588,86.028847 q 3.15552,0 4.95484,2.027588 1.81274,2.027588 1.81274,5.572509 0,3.598633 -1.81274,5.612793 -1.81275,2.027593 -5.06226,2.027593 -2.75268,0 -4.48486,-1.678472 -2.16187,-2.081298 -2.16187,-5.948486 0,-3.558349 1.81275,-5.585937 1.81274,-2.027588 4.9414,-2.027588 z m 0,1.651611 q -3.89404,0 -3.89404,5.935059 0,6.002197 3.89404,6.002197 3.90747,0 3.90747,-6.002197 0,-5.935059 -3.90747,-5.935059 z"
         id="path4148"
         inkscape:connector-curvature="0" />
      <path
         d="m 146.40451,100.93363 0,-1.651609 1.47705,0 0,-11.26587 -1.61133,0 0,-1.665039 4.27002,0 0,2.819825 q 0.92651,-1.409913 1.8396,-2.121582 1.28906,-1.020508 2.88696,-1.020508 4.04175,0 4.04175,5.209961 l 0,8.043213 1.61133,0 0,1.651609 -4.25659,0 0,-9.466551 q 0,-3.450928 -2.18872,-3.450928 -2.01417,0 -3.93433,3.464356 l 0,7.801514 1.34277,0 0,1.651609 -5.47851,0 z"
         id="path4150"
         inkscape:connector-curvature="0" />
      <path
         d="m 170.03732,86.028847 q 3.15552,0 4.95483,2.027588 1.81275,2.027588 1.81275,5.572509 0,3.598633 -1.81275,5.612793 -1.81274,2.027593 -5.06225,2.027593 -2.75269,0 -4.48487,-1.678472 -2.16186,-2.081298 -2.16186,-5.948486 0,-3.558349 1.81274,-5.585937 1.81275,-2.027588 4.94141,-2.027588 z m 0,1.651611 q -3.89404,0 -3.89404,5.935059 0,6.002197 3.89404,6.002197 3.90747,0 3.90747,-6.002197 0,-5.935059 -3.90747,-5.935059 z"
         id="path4152"
         inkscape:connector-curvature="0" />
      <path
         d="m 195.76486,100.93363 0,-1.651609 1.49048,0 0,-16.569825 -1.49048,0 0,-1.651611 3.14209,0 8.19092,14.434814 0.0268,0 0,-12.783203 -1.47705,0 0,-1.651611 4.63257,0 0,1.651611 -1.49048,0 0,18.221434 -1.66504,0 -8.17749,-14.44824 -0.0403,0 0,12.796631 1.49048,0 0,1.651609 -4.63257,0 z"
         id="path4154"
         inkscape:connector-curvature="0" />
      <path
         d="m 226.09811,94.139198 -10.35278,0 q 0.18799,1.812744 0.55053,2.618409 1.22193,2.752685 4.72657,2.752685 2.16186,0 4.68628,-1.409912 l 0,2.00073 q -2.34986,1.16822 -5.0354,1.16822 -3.47779,0 -5.62623,-2.135015 -2.135,-2.135009 -2.135,-5.599365 0,-3.370361 1.9873,-5.438232 1.97388,-2.067871 5.22339,-2.067871 5.97534,0 5.97534,7.29126 l 0,0.819091 z m -10.32593,-1.651611 7.50611,0 0,-0.617676 q 0,-4.189453 -3.34351,-4.189453 -2.06787,0 -3.1958,1.651611 -0.79224,1.154786 -0.9668,3.155518 z"
         id="path4156"
         inkscape:connector-curvature="0" />
      <path
         d="m 234.86642,91.507362 0,7.774659 4.83399,0 0,1.651609 -10.83619,0 0,-1.651609 3.35694,0 0,-11.26587 -3.47779,0 0,-1.665039 6.12305,0 0,2.833252 q 0.99365,-1.42334 1.89331,-2.135009 1.28906,-1.020508 2.77954,-1.020508 1.58447,0 3.06153,0.913086 l 0,3.974609 -1.66504,0 -0.26856,-2.094727 q -0.75195,-0.483398 -1.58447,-0.483398 -2.4707,0 -4.21631,3.168945 z"
         id="path4158"
         inkscape:connector-curvature="0" />
      <path
         d="m 255.59884,81.382851 -3.30322,0 0,-1.651612 5.96191,0 0,19.550782 1.65162,0 0,1.651609 -4.31031,0 0,-2.980955 q -1.00708,1.490478 -1.94702,2.242435 -1.36963,1.07422 -2.96753,1.07422 -2.21557,0 -3.5852,-1.933598 -1.36963,-1.920167 -1.36963,-5.089112 0,-3.826904 1.81274,-6.015625 1.79932,-2.202148 4.99512,-2.202148 1.16821,0 3.06152,0.322265 l 0,-4.968261 z m 0,6.700439 q -1.82617,-0.29541 -2.8601,-0.29541 -2.21558,0 -3.20923,1.436768 -0.98023,1.423339 -0.98023,4.941406 0,5.115967 2.87354,5.115967 2.20215,0 4.17602,-3.14209 l 0,-8.056641 z"
         id="path4160"
         inkscape:connector-curvature="0" />
      <path
         d="m 284.33419,99.282021 3.65235,0 0,1.651609 -9.27857,0 0,-1.651609 2.98096,0 0,-16.569825 -2.98096,0 0,-1.651611 13.76343,0 0,4.968262 -1.65161,0 0,-3.316651 -6.4856,0 0,7.788086 4.00147,0 0,-1.665039 1.65161,0 0,4.98169 -1.65161,0 0,-1.665039 -4.00147,0 0,7.130127 z"
         id="path4162"
         inkscape:connector-curvature="0" />
      <path
         d="m 301.95138,86.028847 q 3.15552,0 4.95484,2.027588 1.81274,2.027588 1.81274,5.572509 0,3.598633 -1.81274,5.612793 -1.81275,2.027593 -5.06226,2.027593 -2.75269,0 -4.48486,-1.678472 -2.16187,-2.081298 -2.16187,-5.948486 0,-3.558349 1.81275,-5.585937 1.81274,-2.027588 4.9414,-2.027588 z m 0,1.651611 q -3.89404,0 -3.89404,5.935059 0,6.002197 3.89404,6.002197 3.90747,0 3.90747,-6.002197 0,-5.935059 -3.90747,-5.935059 z"
         id="path4164"
         inkscape:connector-curvature="0" />
      <path
         d="m 311.29708,100.93363 0,-1.651609 1.47706,0 0,-11.26587 -1.61133,0 0,-1.665039 4.27002,0 0,2.819825 q 0.92651,-1.409913 1.8396,-2.121582 1.28906,-1.020508 2.88696,-1.020508 4.04175,0 4.04175,5.209961 l 0,8.043213 1.61133,0 0,1.651609 -4.2566,0 0,-9.466551 q 0,-3.450928 -2.18872,-3.450928 -2.01416,0 -3.93432,3.464356 l 0,7.801514 1.34277,0 0,1.651609 -5.47852,0 z"
         id="path4166"
         inkscape:connector-curvature="0" />
      <path
         d="m 340.54269,100.11454 q -2.21558,1.15479 -4.51172,1.15479 -2.16186,0 -3.08838,-1.00708 -0.92651,-0.993657 -0.92651,-3.343511 l 0,-8.405761 -3.73291,0 0,-1.826172 3.73291,0 0,-3.773194 2.64526,0 0,3.773194 5.72022,0 0,1.826172 -5.72022,0 0,7.210693 q 0,2.148437 0.42969,2.84668 0.42969,0.71167 1.70532,0.71167 1.42334,0 3.74634,-1.033936 l 0,1.866455 z"
         id="path4168"
         inkscape:connector-curvature="0" />
    </g>
    <g
       style="font-style:normal;font-weight:normal;font-size:27.5px;line-height:125%;font-family:'GoMono Nerd Font';letter-spacing:0px;word-spacing:0px;fill:#ffffff;fill-opacity:1;stroke:none;stroke-width:1px;stroke-linecap:butt;stroke-linejoin:miter;stroke-opacity:1"
       id="text4140">
      <path
         d="m 72.545868,139.91678 q -1.478272,1.23047 -2.999268,1.23047 -1.307373,0 -2.084961,-0.73487 -0.777587,-0.72631 -0.777587,-1.98242 0,-1.62353 1.213378,-2.3584 1.213379,-0.72631 3.92212,-0.72631 l 0.726318,0 0,-1.43555 q 0,-1.40991 -1.743164,-1.40991 -0.880127,0 -2.196045,0.4956 l -0.213623,1.08521 -1.051026,0 0,-1.84571 q 1.956788,-0.79467 3.990479,-0.79467 1.61499,0 2.255859,0.55542 0.64087,0.56396 0.64087,1.93969 l 0,5.94727 1.162109,0 0,1.05102 -2.674561,0 -0.170898,-1.01684 z m 0,-1.28174 0,-2.23877 -0.452881,0 q -1.965332,0 -2.794189,0.44434 -0.820313,0.44433 -0.820313,1.6748 0,1.51245 1.589356,1.51245 1.256103,0 2.478027,-1.39282 z"
         style="font-size:17.5px"
         id="path4171"
         inkscape:connector-curvature="0" />
      <path
         d="m 79.185272,140.93362 -1.691894,0 0,-12.4414 -1.051026,0 0,-1.05103 2.74292,0 0,6.10962 q 0.640869,-0.94848 1.247559,-1.41846 0.871582,-0.68359 1.879883,-0.68359 1.409912,0 2.281494,1.22192 0.871582,1.23047 0.871582,3.23853 0,2.44385 -1.153565,3.83667 -1.145019,1.40137 -3.153076,1.40137 -0.751953,0 -1.973877,-0.21363 z m 0,-1.10229 q 1.16211,0.19653 1.811524,0.19653 1.427002,0 2.050781,-0.9143 0.623779,-0.91431 0.623779,-3.1189 0,-3.17871 -1.828613,-3.17871 -1.401367,0 -2.657471,1.99951 l 0,5.01587 z"
         style="font-size:17.5px"
         id="path4173"
         inkscape:connector-curvature="0" />
      <path
         d="m 95.890594,140.54056 q -1.384277,0.60669 -3.366699,0.60669 -2.418213,0 -3.80249,-1.3501 -1.375732,-1.3501 -1.375732,-3.60596 0,-2.22168 1.350097,-3.47778 1.341553,-1.26465 3.793946,-1.26465 1.820068,0 3.289794,0.46143 l 0,2.64892 -1.05957,0 -0.299072,-1.68335 q -1.033936,-0.37597 -2.025147,-0.37597 -1.503906,0 -2.392578,1.0083 -0.820312,1.0083 -0.820312,2.70874 0,1.87988 0.922851,2.84546 0.991211,0.96557 2.751465,0.96557 1.435547,0 3.033447,-0.69214 l 0,1.20484 z"
         style="font-size:17.5px"
         id="path4175"
         inkscape:connector-curvature="0" />
      <path
         d="m 104.1279,128.49222 -2.10205,0 0,-1.05103 3.79394,0 0,12.44141 1.05103,0 0,1.05102 -2.74292,0 0,-1.89697 q -0.64087,0.94849 -1.23901,1.427 -0.87159,0.6836 -1.88843,0.6836 -1.409914,0 -2.281496,-1.23047 -0.871582,-1.22193 -0.871582,-3.23853 0,-2.4353 1.153564,-3.82812 1.145024,-1.40137 3.178714,-1.40137 0.74341,0 1.94824,0.20508 l 0,-3.16162 z m 0,4.26391 q -1.16211,-0.18798 -1.82007,-0.18798 -1.40991,0 -2.04224,0.9143 -0.623775,0.90576 -0.623775,3.14453 0,3.25562 1.828615,3.25562 1.40137,0 2.65747,-1.99951 l 0,-5.12696 z"
         style="font-size:17.5px"
         id="path4177"
         inkscape:connector-curvature="0" />
      <path
         d="m 116.8342,136.60989 -6.58814,0 q 0.11963,1.15357 0.35035,1.66626 0.77758,1.75171 3.00781,1.75171 1.37573,0 2.98218,-0.89721 l 0,1.27319 q -1.49537,0.74341 -3.20435,0.74341 -2.21314,0 -3.58032,-1.35865 -1.35865,-1.35864 -1.35865,-3.56323 0,-2.14477 1.26465,-3.46069 1.25611,-1.31592 3.32398,-1.31592 3.80249,0 3.80249,4.63989 l 0,0.52124 z m -6.57105,-1.05102 4.77661,0 0,-0.39307 q 0,-2.66601 -2.12768,-2.66601 -1.31592,0 -2.03369,1.05102 -0.50415,0.73487 -0.61524,2.00806 z"
         style="font-size:17.5px"
         id="path4179"
         inkscape:connector-curvature="0" />
      <path
         d="m 119.24387,140.93362 0,-1.05102 2.22168,0 0,-6.68213 -2.31568,0 0,-1.16211 2.31568,0 0,-1.1792 q 0,-1.92261 0.77758,-2.7771 0.77759,-0.85449 2.50367,-0.85449 1.46118,0 3.11035,0.68359 l 0,2.1106 -1.05103,0 -0.26489,-1.33301 q -0.86304,-0.40161 -1.57227,-0.40161 -1.01684,0 -1.40991,0.5127 -0.40161,0.51269 -0.40161,1.87133 l 0,1.36719 3.79395,0 0,1.16211 -3.79395,0 0,6.68213 2.73438,0 0,1.05102 -6.64795,0 z"
         style="font-size:17.5px"
         id="path4181"
         inkscape:connector-curvature="0" />
      <path
         d="m 137.29929,132.70486 0,6.9043 q 0,0.59815 -0.0256,1.19629 -0.0171,0.5896 -0.13672,1.13648 -0.11963,0.54687 -0.36743,1.01684 -0.2478,0.46997 -0.70068,0.81177 -0.44434,0.35034 -1.12793,0.54687 -0.6836,0.20508 -1.67481,0.20508 -0.73486,0 -1.60644,-0.11963 -0.86304,-0.11108 -1.73462,-0.45288 l 0,-2.11059 1.05102,0 0.22217,1.16211 q 0.17945,0.0854 0.4187,0.17089 0.24781,0.0854 0.52124,0.14527 0.27344,0.0684 0.56397,0.10254 0.29053,0.0427 0.58105,0.0427 0.57251,0 0.96558,-0.13672 0.40161,-0.12817 0.65796,-0.36743 0.25635,-0.23071 0.39306,-0.55542 0.14527,-0.32471 0.21363,-0.71777 0.0684,-0.38452 0.0769,-0.82032 0.0171,-0.43579 0.0171,-0.89721 l 0,-1.70044 q -0.64941,0.96557 -1.23901,1.427 -0.88013,0.68359 -1.88843,0.68359 -1.40991,0 -2.28149,-1.23046 -0.87159,-1.21338 -0.87159,-2.89673 0,-1.05103 0.28199,-1.87134 0.29052,-0.82886 0.87158,-1.52954 1.14502,-1.40137 3.18725,-1.40137 0.57251,0 1.02539,0.0598 0.45289,0.0598 0.91431,0.14526 l 2.70874,0 0,1.05102 -1.01684,0 z m -1.6919,0.20508 q -0.5896,-0.094 -1.04248,-0.14526 -0.45288,-0.0513 -0.77759,-0.0513 -1.40991,0 -2.04223,0.91431 -0.31617,0.46142 -0.46997,1.06811 -0.15381,0.60669 -0.15381,1.46118 0,2.84546 1.82861,2.84546 1.40137,0 2.65747,-1.99951 l 0,-4.09302 z"
         style="font-size:17.5px"
         id="path4183"
         inkscape:connector-curvature="0" />
      <path
         d="m 139.57224,140.93362 0,-1.05102 0.93994,0 0,-11.39038 -1.05103,0 0,-1.05103 2.74292,0 0,6.00708 q 0.5896,-0.89721 1.17066,-1.35009 0.82031,-0.64942 1.83715,-0.64942 2.57203,0 2.57203,3.31543 l 0,5.11841 1.05957,0 0,1.05102 -2.74292,0 0,-6.02417 q 0,-2.19604 -1.39283,-2.19604 -1.28174,0 -2.50366,2.20459 l 0,4.9646 0.94849,0 0,1.05102 -3.58032,0 z"
         style="font-size:17.5px"
         id="path4185"
         inkscape:connector-curvature="0" />
      <path
         d="m 150.62936,140.93362 0,-1.05102 3.33252,0 0,-7.16919 -3.33252,0 0,-1.05957 5.01587,0 0,8.22876 3.16162,0 0,1.05102 -8.17749,0 z m 3.07618,-11.38183 0,-2.1106 2.06787,0 0,2.1106 -2.06787,0 z"
         style="font-size:17.5px"
         id="path4187"
         inkscape:connector-curvature="0" />
      <path
         d="m 161.21652,143.87308 0,-2.72583 1.05103,0 0.26489,1.86279 q 0.58105,0.45288 1.2561,0.45288 1.12793,0 1.60645,-0.82031 0.48706,-0.82031 0.48706,-2.79419 l 0,-7.13501 -3.79395,0 0,-1.05957 5.48584,0 0,8.71582 q 0,1.96533 -0.96557,3.05908 -0.96558,1.09375 -2.68311,1.09375 -1.18774,0 -2.70874,-0.64941 z m 4.39209,-14.32129 0,-2.1106 2.06787,0 0,2.1106 -2.06787,0 z"
         style="font-size:17.5px"
         id="path4189"
         inkscape:connector-curvature="0" />
      <path
         d="m 177.36642,140.93362 0,-1.05102 -3.43505,-3.42651 -0.20508,0 0,3.42651 0.84595,0 0,1.05102 -3.58887,0 0,-1.05102 1.05102,0 0,-11.39038 -1.05102,0 0,-1.05103 2.74292,0 0,8.43384 0.20508,0 3.05908,-3.16162 -0.99121,0 0,-1.05957 3.6914,0 0,1.05957 -1.20483,0 -3.10181,3.09326 4.16992,4.07593 0.84595,0 0,1.05102 -3.03345,0 z"
         style="font-size:17.5px"
         id="path4191"
         inkscape:connector-curvature="0" />
      <path
         d="m 190.3718,140.41238 q -1.41846,0.73487 -2.8711,0.73487 -0.78613,0 -1.31592,-0.18799 -0.52124,-0.17944 -0.8374,-0.57251 -0.30762,-0.40161 -0.44433,-1.02539 -0.12818,-0.62378 -0.12818,-1.49536 l 0,-9.37378 -3.16162,0 0,-1.05103 4.84497,0 0,9.86084 q 0,0.79468 0.0598,1.29883 0.0598,0.50415 0.23071,0.78613 0.17944,0.28199 0.50415,0.38452 0.32471,0.10254 0.86304,0.10254 1.05957,0 2.25586,-0.65796 l 0,1.19629 z"
         style="font-size:17.5px"
         id="path4193"
         inkscape:connector-curvature="0" />
      <path
         d="m 192.19186,140.93362 0,-8.22021 -0.63232,0 0,-1.05957 2.16187,0 0,1.85425 q 0.5725,-1.19629 0.93994,-1.58936 0.44433,-0.46997 1.09375,-0.46997 0.85449,0 1.24756,0.79468 0.20507,0.42724 0.29907,1.26465 0.35888,-0.97412 0.7605,-1.41846 0.56396,-0.64087 1.333,-0.64087 1.5979,0 1.5979,2.33276 l 0,6.10108 0.59815,0 0,1.05102 -2.12769,0 0,-6.42578 q 0,-1.79443 -0.55542,-1.79443 -0.41015,0 -0.9143,0.75195 -0.2649,0.4187 -0.41016,0.77759 -0.22217,0.55542 -0.22217,0.78613 l 0,4.85352 0.59815,0 0,1.05102 -2.12769,0 0,-6.81884 q 0,-1.40137 -0.56396,-1.40137 -0.74341,0 -1.54663,2.31567 l 0,4.85352 0.59814,0 0,1.05102 -2.12769,0 z"
         style="font-size:17.5px"
         id="path4195"
         inkscape:connector-curvature="0" />
      <path
         d="m 202.53122,140.93362 0,-1.05102 0.93994,0 0,-7.16919 -1.02539,0 0,-1.05957 2.71729,0 0,1.79443 q 0.5896,-0.89721 1.17065,-1.35009 0.82031,-0.64942 1.83716,-0.64942 2.57202,0 2.57202,3.31543 l 0,5.11841 1.02539,0 0,1.05102 -2.70874,0 0,-6.02417 q 0,-2.19604 -1.39282,-2.19604 -1.28174,0 -2.50366,2.20459 l 0,4.9646 0.85449,0 0,1.05102 -3.48633,0 z"
         style="font-size:17.5px"
         id="path4197"
         inkscape:connector-curvature="0" />
      <path
         d="m 217.57028,131.44876 q 2.00806,0 3.15308,1.29028 1.15356,1.29029 1.15356,3.54615 0,2.29004 -1.15356,3.57177 -1.15357,1.29029 -3.22144,1.29029 -1.75171,0 -2.854,-1.06812 -1.37573,-1.32446 -1.37573,-3.7854 0,-2.2644 1.15356,-3.55469 1.15357,-1.29028 3.14453,-1.29028 z m 0,1.05103 q -2.47803,0 -2.47803,3.77685 0,3.81958 2.47803,3.81958 2.48657,0 2.48657,-3.81958 0,-3.77685 -2.48657,-3.77685 z"
         style="font-size:17.5px"
         id="path4199"
         inkscape:connector-curvature="0" />
      <path
         d="m 226.08957,143.25784 2.11059,0 0,1.05103 -4.85351,0 0,-1.05103 1.05102,0 0,-10.54443 -1.05102,0 0,-1.05957 2.74292,0 0,1.89697 q 0.64087,-0.94848 1.24756,-1.41846 0.87158,-0.68359 1.87988,-0.68359 1.40991,0 2.28149,1.22192 0.87159,1.23047 0.87159,3.23853 0,2.44385 -1.15357,3.83667 -1.14502,1.40137 -3.15307,1.40137 -0.75196,0 -1.97388,-0.21363 l 0,2.32422 z m 0,-3.57177 q 1.16211,0.19653 1.81152,0.19653 1.427,0 2.05078,-0.91431 0.62378,-0.9143 0.62378,-3.06762 0,-3.18726 -1.82861,-3.18726 -1.40137,0 -2.65747,2.10205 l 0,4.87061 z"
         style="font-size:17.5px"
         id="path4201"
         inkscape:connector-curvature="0" />
      <path
         d="m 240.53903,139.03665 q -0.64087,0.94849 -1.23901,1.427 -0.87158,0.6836 -1.88843,0.6836 -1.40991,0 -2.28149,-1.23047 -0.87159,-1.22193 -0.87159,-3.23853 0,-2.4353 1.15357,-3.82812 1.14502,-1.40137 3.18725,-1.40137 l 1.9397,0.20508 1.6919,0 0,11.604 1.05102,0 0,1.05103 -4.84497,0 0,-1.05957 2.10205,0 0,-4.21265 z m 0,-6.12671 q -1.16211,-0.19653 -1.82007,-0.19653 -1.40991,0 -2.04223,0.91431 -0.62378,0.9143 -0.62378,2.95654 0,3.18725 1.82861,3.18725 1.40137,0 2.65747,-1.99951 l 0,-4.86206 z"
         style="font-size:17.5px"
         id="path4203"
         inkscape:connector-curvature="0" />
      <path
         d="m 248.332,134.93509 0,4.94751 3.07617,0 0,1.05102 -6.89575,0 0,-1.05102 2.13623,0 0,-7.16919 -2.21313,0 0,-1.05957 3.89648,0 0,1.80298 q 0.63232,-0.90576 1.20483,-1.35864 0.82032,-0.64942 1.7688,-0.64942 1.0083,0 1.94825,0.58106 l 0,2.52929 -1.05957,0 -0.1709,-1.33301 q -0.47852,-0.30761 -1.0083,-0.30761 -1.57227,0 -2.68311,2.0166 z"
         style="font-size:17.5px"
         id="path4205"
         inkscape:connector-curvature="0" />
      <path
         d="m 255.77463,140.41238 0,-2.53784 1.05102,0 0.21363,1.56372 q 1.6748,0.64942 2.84546,0.64942 2.03369,0 2.03369,-1.43555 0,-0.56396 -0.3418,-0.87158 -0.3418,-0.31616 -1.22192,-0.54688 l -1.74317,-0.46142 q -1.46118,-0.38452 -2.12768,-1.0083 -0.65796,-0.60669 -0.65796,-1.61499 0,-2.70874 3.6914,-2.70874 1.88843,0 3.43506,0.61523 l 0,2.44385 -1.05102,0 -0.21363,-1.54663 q -0.93139,-0.45288 -2.17895,-0.45288 -0.93994,0 -1.46118,0.29907 -0.61524,0.35034 -0.61524,1.07666 0,0.95703 1.76026,1.41846 l 1.72607,0.45288 q 1.43555,0.37597 2.05933,0.95703 0.61523,0.57251 0.61523,1.55517 0,1.34156 -1.05102,2.1106 -1.05103,0.77759 -2.93091,0.77759 -1.93115,0 -3.83667,-0.73487 z"
         style="font-size:17.5px"
         id="path4207"
         inkscape:connector-curvature="0" />
      <path
         d="m 273.60788,140.41238 q -1.40991,0.73487 -2.87109,0.73487 -1.37574,0 -1.96534,-0.64087 -0.5896,-0.63233 -0.5896,-2.12769 l 0,-5.34912 -2.37548,0 0,-1.16211 2.37548,0 0,-2.40112 1.68335,0 0,2.40112 3.64014,0 0,1.16211 -3.64014,0 0,4.58862 q 0,1.36719 0.27344,1.81153 0.27344,0.45288 1.08521,0.45288 0.90576,0 2.38403,-0.65796 l 0,1.18774 z"
         style="font-size:17.5px"
         id="path4209"
         inkscape:connector-curvature="0" />
      <path
         d="m 281.55466,131.65384 2.64038,0 0,8.22876 1.05102,0 0,1.05102 -2.74292,0 0,-1.78588 q -0.5896,0.89721 -1.17065,1.35009 -0.82031,0.64942 -1.83716,0.64942 -2.58057,0 -2.58057,-3.31543 l 0,-5.11841 -1.05102,0 0,-1.05957 2.74292,0 0,6.03271 q 0,2.17896 1.39282,2.17896 1.27319,0 2.50366,-2.19605 l 0,-4.95605 -0.94848,0 0,-1.05957 z"
         style="font-size:17.5px"
         id="path4211"
         inkscape:connector-curvature="0" />
      <path
         d="m 290.16794,140.93362 -3.2898,-8.22021 -0.63232,0 0,-1.05957 3.81958,0 0,1.05957 -1.36719,0 2.65747,6.64795 0.0171,0 2.65747,-6.64795 -1.36718,0 0,-1.05957 3.13598,0 0,1.05957 -0.63232,0 -3.2898,8.22021 -1.70898,0 z"
         style="font-size:17.5px"
         id="path4213"
         inkscape:connector-curvature="0" />
      <path
         d="m 298.33688,140.93362 -1.45263,-8.22021 -0.4187,0 0,-1.05957 2.65747,0 0,1.05957 -0.73487,0 1.1023,6.18652 0.0171,0 1.51245,-5.85327 1.427,0 1.521,5.87891 0.0171,0 1.11084,-6.21216 -0.83741,0 0,-1.05957 2.32422,0 0,1.05957 -0.4187,0 -1.45263,8.22021 -1.64917,0 -1.52955,-6.00708 -0.0171,0 -1.55517,6.00708 -1.62354,0 z"
         style="font-size:17.5px"
         id="path4215"
         inkscape:connector-curvature="0" />
      <path
         d="m 307.37741,140.93362 0,-1.05102 0.93994,0 2.82837,-3.58887 -2.82837,-3.58032 -1.05102,0 0,-1.05957 3.74267,0 0,1.05957 -0.74341,0 2.23023,2.82837 2.22168,-2.82837 -0.88013,0 0,-1.05957 3.08472,0 0,1.05957 -0.99976,0 -2.82837,3.58887 2.81983,3.58032 1.0083,0 0,1.05102 -3.80249,0 0,-1.05102 0.84595,0 -2.16187,-2.74292 -2.15332,2.74292 0.85449,0 0,1.05102 -3.12744,0 z"
         style="font-size:17.5px"
         id="path4217"
         inkscape:connector-curvature="0" />
      <path
         d="m 321.64743,140.93362 -3.28979,-8.22021 -0.63233,0 0,-1.05957 3.81958,0 0,1.05957 -1.36719,0 2.65747,6.64795 0.0171,0 2.65748,-6.64795 -1.36719,0 0,-1.05957 3.13598,0 0,1.05957 -0.63232,0 -3.2898,8.22021 -0.92285,2.31568 1.26465,0 0,1.05957 -4.09302,0 0,-1.05957 1.6919,0 0.92285,-2.31568 -0.57251,0 z"
         style="font-size:17.5px"
         id="path4219"
         inkscape:connector-curvature="0" />
      <path
         d="m 328.79953,140.93362 0,-1.05102 5.98145,-7.16919 -4.61426,0 0,1.68335 -1.05103,0 0,-2.74292 7.65625,0 0,1.05957 -5.90454,7.10083 5.16113,0 0,-1.66626 1.05957,0 0,2.78564 -8.28857,0 z"
         style="font-size:17.5px"
         id="path4221"
         inkscape:connector-curvature="0" />
      <path
         d="m 68.213593,159.01468 -0.845948,2.74292 1.221924,0 0,1.05102 -2.956543,0 0,-1.05102 0.632324,0 3.597412,-11.59546 1.614991,0 3.588867,11.59546 0.632324,0 0,1.05102 -3.734131,0 0,-1.05102 1.341553,0 -0.854492,-2.74292 -4.238281,0 z m 0.333251,-1.05957 3.580323,0 -1.777344,-5.76782 -0.01709,0 -1.785889,5.76782 z"
         style="font-size:17.5px"
         id="path4223"
         inkscape:connector-curvature="0" />
      <path
         d="m 78.023163,161.7576 0,-10.54443 -1.478272,0 0,-1.05103 5.280762,0 q 3.195801,0 3.195801,2.7771 0,1.43555 -0.871582,2.33276 -0.512695,0.53833 -1.486817,0.94849 0.837403,0.22217 1.264649,0.47852 1.486816,0.89721 1.486816,2.88818 0,3.22143 -3.793945,3.22143 l -5.075684,0 0,-1.05102 1.478272,0 z m 1.683349,-0.0684 1.392823,0 q 2.520752,0 2.520752,-2.23023 0,-1.20483 -0.828858,-1.93969 Q 81.970917,156.793 80.53537,156.793 l -0.828858,0 0,4.89624 z m 0,-5.94727 0.837403,0 q 2.67456,0 2.67456,-2.66601 0,-1.86279 -1.802978,-1.86279 l -1.708985,0 0,4.5288 z"
         style="font-size:17.5px"
         id="path4225"
         inkscape:connector-curvature="0" />
      <path
         d="m 96.035858,162.1763 q -1.768799,0.94849 -3.31543,0.94849 -2.469482,0 -3.862304,-1.76026 -1.401367,-1.76025 -1.401367,-4.94751 0,-3.15307 1.333007,-4.86206 1.333008,-1.70898 3.811036,-1.70898 1.401367,0 3.255615,0.54687 l 0,2.80274 -1.051026,0 -0.247802,-1.84571 Q 93.59201,150.897 92.643524,150.897 q -1.5979,0 -2.486572,1.50391 -0.880127,1.49536 -0.880127,4.13574 0,2.55493 0.982666,4.0332 0.991211,1.43555 2.683105,1.43555 1.503907,0 3.093262,-1.1792 l 0,1.3501 z"
         style="font-size:17.5px"
         id="path4227"
         inkscape:connector-curvature="0" />
      <path
         d="m 97.317596,162.80862 0,-1.05102 1.264649,0 0,-10.54443 -1.264649,0 0,-1.05103 4.357914,0 q 5.19531,0 5.19531,6.02417 0,3.04199 -1.36719,4.83643 -1.36719,1.78588 -3.67431,1.78588 l -4.511724,0 z m 2.956544,-1.11938 1.0083,0 q 3.76831,0 3.76831,-5.32349 0,-2.64038 -0.94849,-3.89648 -0.95703,-1.2561 -2.93945,-1.2561 l -0.88867,0 0,10.47607 z"
         style="font-size:17.5px"
         id="path4229"
         inkscape:connector-curvature="0" />
      <path
         d="m 108.02438,162.80862 0,-1.05102 1.58081,0 0,-10.54443 -1.58081,0 0,-1.05103 8.39112,0 0,3.03345 -1.05103,0 0,-1.98242 -4.06738,0 0,4.63989 2.48657,0 0,-1.05957 1.05103,0 0,3.17016 -1.05103,0 0,-1.05957 -2.48657,0 0,4.78516 4.48608,0 0,-2.1106 1.05957,0 0,3.22998 -8.81836,0 z"
         style="font-size:17.5px"
         id="path4231"
         inkscape:connector-curvature="0" />
      <path
         d="m 122.41403,161.7576 2.32422,0 0,1.05102 -5.90454,0 0,-1.05102 1.89697,0 0,-10.54443 -1.89697,0 0,-1.05103 8.75854,0 0,3.16162 -1.05102,0 0,-2.11059 -4.1272,0 0,4.95605 2.54639,0 0,-1.05957 1.05102,0 0,3.17017 -1.05102,0 0,-1.05957 -2.54639,0 0,4.53735 z"
         style="font-size:17.5px"
         id="path4233"
         inkscape:connector-curvature="0" />
      <path
         d="m 137.61545,162.1763 q -1.55518,0.94849 -3.27271,0.94849 -2.52929,0 -3.93066,-1.76026 -1.40137,-1.75171 -1.40137,-4.93896 0,-3.18726 1.34155,-4.8877 1.3501,-1.70044 3.90503,-1.70044 1.47828,0 3.15308,0.52979 l 0,2.82837 -1.05103,0 -0.2478,-1.84571 q -0.97412,-0.46142 -1.82007,-0.46142 -3.46069,0 -3.46069,5.62256 0,2.62329 0.98267,4.04174 0.98266,1.45264 2.72583,1.45264 0.6665,0 1.38427,-0.27344 l 0,-3.51196 -1.46972,0 0,-1.05102 3.16162,0 0,5.00732 z"
         style="font-size:17.5px"
         id="path4235"
         inkscape:connector-curvature="0" />
      <path
         d="m 142.03317,156.80154 0,4.95606 0.84595,0 0,1.05102 -3.47778,0 0,-1.05102 0.94848,0 0,-10.54443 -0.94848,0 0,-1.05103 3.47778,0 0,1.05103 -0.84595,0 0,4.5288 4.17847,0 0,-4.5288 -0.84595,0 0,-1.05103 3.48633,0 0,1.05103 -0.94849,0 0,10.54443 0.94849,0 0,1.05102 -3.48633,0 0,-1.05102 0.84595,0 0,-4.95606 -4.17847,0 z"
         style="font-size:17.5px"
         id="path4237"
         inkscape:connector-curvature="0" />
      <path
         d="m 150.7319,162.80862 0,-1.05102 3.03345,0 0,-10.54443 -3.03345,0 0,-1.05103 7.75879,0 0,1.05103 -3.03345,0 0,10.54443 3.03345,0 0,1.05102 -7.75879,0 z"
         style="font-size:17.5px"
         id="path4239"
         inkscape:connector-curvature="0" />
      <path
         d="m 160.80637,162.54373 0,-3.52905 1.05102,0 0.33325,2.57202 q 0.96558,0.4187 1.65772,0.4187 0.99121,0 1.427,-0.46997 0.44434,-0.46142 0.44434,-1.47827 l 0,-8.84399 -3.37525,0 0,-1.05103 7.28028,0 0,1.05103 -2.22168,0 0,8.50219 q 0,1.82862 -0.78614,2.61475 -0.78613,0.79468 -2.59765,0.79468 -1.3501,0 -3.21289,-0.58106 z"
         style="font-size:17.5px"
         id="path4241"
         inkscape:connector-curvature="0" />
      <path
         d="m 170.98337,162.80862 0,-1.05102 1.11084,0 0,-10.54443 -1.11084,0 0,-1.05103 3.6914,0 0,1.05103 -0.89721,0 0,5.13549 0.0598,0 3.67432,-5.13549 -0.94849,0 0,-1.05103 3.04199,0 0,1.05103 -0.78613,0 -3.39233,4.66552 4.52026,5.87891 0.63233,0 0,1.05102 -3.6316,0 0,-1.05102 0.94849,0 -4.05884,-5.27222 -0.0598,0 0,5.27222 1.05102,0 0,1.05102 -3.84521,0 z"
         style="font-size:17.5px"
         id="path4243"
         inkscape:connector-curvature="0" />
      <path
         d="m 190.67941,162.80862 -9.10034,0 0,-1.05102 2.1106,0 0,-10.54443 -2.1106,0 0,-1.05103 5.802,0 0,1.05103 -2.00805,0 0,10.47607 4.25537,0 0,-2.948 1.05102,0 0,4.06738 z"
         style="font-size:17.5px"
         id="path4245"
         inkscape:connector-curvature="0" />
      <path
         d="m 191.55099,162.80862 0,-1.05102 0.73487,0 0,-10.54443 -0.73487,0 0,-1.05103 2.43531,0 2.61474,8.69873 0.0171,0 2.70874,-8.69873 2.29859,0 0,1.05103 -0.73487,0 0,10.54443 0.73487,0 0,1.05102 -2.73438,0 0,-1.05102 0.61524,0 0,-8.58765 -0.0171,0 -2.48657,7.98096 -1.15357,0 -2.48657,-8.30566 -0.0171,0 0,8.91235 0.73486,0 0,1.05102 -2.5293,0 z"
         style="font-size:17.5px"
         id="path4247"
         inkscape:connector-curvature="0" />
      <path
         d="m 202.46286,162.80862 0,-1.05102 0.94849,0 0,-10.54443 -0.94849,0 0,-1.05103 1.99951,0 5.2124,9.18579 0.0171,0 0,-8.13476 -0.93994,0 0,-1.05103 2.948,0 0,1.05103 -0.94849,0 0,11.59545 -1.05957,0 -5.20385,-9.19433 -0.0256,0 0,8.14331 0.94849,0 0,1.05102 -2.948,0 z"
         style="font-size:17.5px"
         id="path4249"
         inkscape:connector-curvature="0" />
      <path
         d="m 217.57883,149.84598 q 2.07641,0 3.40088,1.8457 1.32446,1.8457 1.32446,4.77661 0,2.97364 -1.32446,4.81079 -1.32447,1.84571 -3.4607,1.84571 -1.82861,0 -3.06762,-1.49536 -1.5979,-1.92261 -1.5979,-5.15259 0,-2.93091 1.31591,-4.77661 1.32447,-1.85425 3.40943,-1.85425 z m 0,1.13647 q -1.37574,0 -2.13623,1.427 -0.76905,1.45264 -0.76905,4.09302 0,2.61475 0.7605,4.05884 0.75195,1.46118 2.13623,1.46118 1.38428,0 2.10205,-1.2561 0.81177,-1.40137 0.81177,-4.24683 0,-2.67456 -0.76904,-4.11011 -0.77759,-1.427 -2.13623,-1.427 z"
         style="font-size:17.5px"
         id="path4251"
         inkscape:connector-curvature="0" />
      <path
         d="m 226.92697,157.69022 0,4.06738 2.42676,0 0,1.05102 -5.802,0 0,-1.05102 1.68335,0 0,-10.54443 -1.68335,0 0,-1.05103 5.64819,0 q 3.22144,0 3.22144,3.08472 0,2.05932 -1.19629,3.25561 -1.19629,1.18775 -3.2898,1.18775 l -1.0083,0 z m 0,-1.05103 0.94849,0 q 2.75146,0 2.75146,-3.13599 0,-2.29003 -1.98242,-2.29003 l -1.71753,0 0,5.42602 z"
         style="font-size:17.5px"
         id="path4253"
         inkscape:connector-curvature="0" />
      <path
         d="m 238.56516,163.12479 q -1.33301,-0.21363 -2.04224,-0.56397 -0.85449,-0.4187 -1.521,-1.5039 -1.16211,-1.90552 -1.16211,-4.57154 0,-2.93091 1.31592,-4.78515 1.31592,-1.85425 3.40943,-1.85425 2.08496,0 3.40087,1.85425 1.32447,1.85424 1.32447,4.77661 0,2.73437 -1.14502,4.5459 -0.77759,1.22192 -2.09351,1.80297 1.38428,0.86304 3.7085,1.37574 -0.5896,0.72631 -1.43555,1.35009 -1.78589,-0.67504 -3.75976,-2.42675 z m 0,-12.15943 q -1.37574,0 -2.13624,1.44409 -0.76904,1.42701 -0.76904,4.07593 0,2.61475 0.7605,4.06738 0.75195,1.46973 2.13623,1.46973 1.38428,0 2.10205,-1.26465 0.81177,-1.40991 0.81177,-4.25537 0,-2.67456 -0.76904,-4.10156 -0.77759,-1.43555 -2.13623,-1.43555 z"
         style="font-size:17.5px"
         id="path4255"
         inkscape:connector-curvature="0" />
      <path
         d="m 244.53806,162.80862 0,-1.05102 1.11084,0 0,-10.54443 -1.11084,0 0,-1.05103 5.01586,0 q 1.50391,0 2.36695,0.82886 0.87158,0.82885 0.87158,2.2644 0,1.30737 -0.78613,2.31568 -0.46143,0.58105 -1.34156,1.17919 l 2.67456,5.00733 0.75196,0 0,1.05102 -2.16187,0 -2.89673,-5.53711 -1.70044,0 0,4.48609 1.11084,0 0,1.05102 -3.90502,0 z m 2.79418,-6.58813 0.84595,0 q 2.81983,0 2.81983,-2.7771 0,-2.23022 -2.13623,-2.23022 l -1.52955,0 0,5.00732 z"
         style="font-size:17.5px"
         id="path4257"
         inkscape:connector-curvature="0" />
      <path
         d="m 255.58664,162.28738 0,-3.05908 1.05957,0 0.20508,1.99951 q 1.5979,0.77759 2.65747,0.77759 1.0852,0 1.76025,-0.67505 0.67505,-0.6665 0.67505,-1.64062 0,-1.34155 -1.70898,-2.23023 l -1.62354,-0.84594 q -1.61499,-0.83741 -2.1875,-1.54663 -0.56396,-0.6836 -0.56396,-1.85425 0,-3.3667 3.82812,-3.3667 1.56372,0 3.20435,0.62378 l 0,2.72583 -1.05103,0 -0.21362,-1.66626 q -1.06812,-0.63233 -2.06787,-0.63233 -2.05933,0 -2.05933,2.10205 0,0.86304 0.47852,1.2732 0.4187,0.35888 1.49536,0.93994 l 1.44409,0.77759 q 1.66626,0.89721 2.17896,1.52099 0.52124,0.63233 0.52124,1.7688 0,1.74317 -1.14502,2.79419 -1.15357,1.05103 -3.06763,1.05103 -1.75171,0 -3.81958,-0.83741 z"
         style="font-size:17.5px"
         id="path4259"
         inkscape:connector-curvature="0" />
      <path
         d="m 266.98557,162.80862 0,-1.05102 2.21313,0 0,-10.54443 -2.82837,0 0,1.98242 -1.05102,0 0,-3.03345 9.45068,0 0,3.03345 -1.05957,0 0,-1.98242 -2.81983,0 0,10.54443 2.21314,0 0,1.05102 -6.11816,0 z"
         style="font-size:17.5px"
         id="path4261"
         inkscape:connector-curvature="0" />
      <path
         d="m 276.86349,151.21317 -1.05102,0 0,-1.05103 3.90503,0 0,1.05103 -1.16211,0 0,7.12646 q 0,1.79443 0.61523,2.76001 0.60669,0.97412 1.71753,0.97412 2.26441,0 2.26441,-3.81103 l 0,-7.04956 -1.16211,0 0,-1.05103 3.2727,0 0,1.05103 -1.05957,0 0,7.35717 q 0,2.15332 -0.94848,3.34961 -0.93994,1.20484 -2.66602,1.20484 -3.72559,0 -3.72559,-5.01587 l 0,-6.89575 z"
         style="font-size:17.5px"
         id="path4263"
         inkscape:connector-curvature="0" />
      <path
         d="m 290.21921,162.80862 -3.58887,-11.59545 -0.63232,0 0,-1.05103 3.73413,0 0,1.05103 -1.34156,0 2.95655,9.57031 0.0171,0 2.96509,-9.57031 -1.22193,0 0,-1.05103 2.95654,0 0,1.05103 -0.63232,0 -3.59741,11.59545 -1.61499,0 z"
         style="font-size:17.5px"
         id="path4265"
         inkscape:connector-curvature="0" />
      <path
         d="m 298.33688,162.80862 -1.45263,-11.59545 -0.4187,0 0,-1.05103 2.59765,0 0,1.05103 -0.85449,0 1.16211,9.2456 0.0855,0 1.57226,-8.30566 1.2732,-0.009 1.57226,8.26294 0.0769,0 1.14502,-9.19433 -0.8545,0 0,-1.05103 2.34131,0 0,1.05103 -0.42724,0 -1.45264,11.59545 -1.521,0 -1.58935,-8.32275 -0.0684,0 -1.57227,8.32275 -1.61499,0 z"
         style="font-size:17.5px"
         id="path4267"
         inkscape:connector-curvature="0" />
      <path
         d="m 307.18088,162.80862 0,-1.05102 0.94848,0 2.99073,-5.18677 -3.09327,-5.35766 -0.84594,0 0,-1.05103 3.58886,0 0,1.05103 -0.85449,0 2.46094,4.27246 2.46948,-4.27246 -1.09375,0 0,-1.05103 3.08472,0 0,1.05103 -0.89722,0 -3.01635,5.22094 3.07617,5.32349 0.8374,0 0,1.05102 -3.7854,0 0,-1.05102 1.05957,0 -2.44385,-4.23828 -2.44385,4.23828 1.31592,0 0,1.05102 -3.35815,0 z"
         style="font-size:17.5px"
         id="path4269"
         inkscape:connector-curvature="0" />
      <path
         d="m 319.76755,162.80862 0,-1.05102 1.89697,0 0,-4.58862 -3.4436,-5.95581 -0.73487,0 0,-1.05103 3.9563,0 0,1.05103 -1.27319,0 2.69165,4.64843 0.0171,0 2.69165,-4.64843 -1.26465,0 0,-1.05103 3.21289,0 0,1.05103 -0.73486,0 -3.43506,5.94726 0,4.59717 1.89697,0 0,1.05102 -5.47729,0 z"
         style="font-size:17.5px"
         id="path4271"
         inkscape:connector-curvature="0" />
      <path
         d="m 329.01315,162.80862 0,-1.16211 5.98145,-10.43334 -4.76807,0 0,1.98242 -1.05102,0 0,-3.03345 7.69897,0 0,1.05103 -6.0498,10.47607 5.10131,0 0,-2.5293 1.05958,0 0,3.64868 -7.97242,0 z"
         style="font-size:17.5px"
         id="path4273"
         inkscape:connector-curvature="0" />
      <path
         d="m 70.665985,175.19876 q 2.008057,0 3.153076,1.29028 1.153565,1.29029 1.153565,3.54615 0,2.29004 -1.153565,3.57177 -1.153564,1.29029 -3.221435,1.29029 -1.751709,0 -2.854004,-1.06812 -1.375733,-1.32446 -1.375733,-3.7854 0,-2.2644 1.153565,-3.55469 1.153564,-1.29028 3.144531,-1.29028 z m 0,1.05103 q -2.478027,0 -2.478027,3.77685 0,3.81958 2.478027,3.81958 2.486572,0 2.486572,-3.81958 0,-3.77685 -2.486572,-3.77685 z"
         style="font-size:17.5px"
         id="path4275"
         inkscape:connector-curvature="0" />
      <path
         d="m 81.167694,171.72098 q 2.076416,0 3.400879,1.8457 1.324463,1.8457 1.324463,4.77661 0,2.97364 -1.324463,4.81079 -1.324463,1.84571 -3.460693,1.84571 -1.828614,0 -3.067627,-1.49536 -1.597901,-1.92261 -1.597901,-5.15259 0,-2.93091 1.315918,-4.77661 1.324463,-1.85425 3.409424,-1.85425 z m 0,1.13647 q -1.375732,0 -2.13623,1.427 -0.769043,1.45264 -0.769043,4.09302 0,2.61475 0.760498,4.05884 0.751953,1.46118 2.13623,1.46118 1.384278,0 2.102051,-1.2561 0.811768,-1.40137 0.811768,-4.24683 0,-2.67456 -0.769043,-4.11011 -0.777588,-1.427 -2.136231,-1.427 z"
         style="font-size:17.5px"
         id="path4277"
         inkscape:connector-curvature="0" />
      <path
         d="m 91.652313,171.72098 q 2.050781,0 3.238526,1.77734 1.187744,1.7688 1.187744,4.84497 0,3.12744 -1.187744,4.8877 -1.187745,1.7688 -3.306885,1.7688 -1.802979,0 -2.930908,-1.4441 -1.427002,-1.82861 -1.427002,-5.20385 0,-3.08472 1.187744,-4.85352 1.187744,-1.77734 3.238525,-1.77734 z m -1.931152,10.75805 q 0.666504,1.46973 1.922607,1.46973 2.623291,0 2.623291,-5.58838 0,-1.15356 -0.128174,-2.05932 l -4.768066,5.16967 q 0.145264,0.56397 0.350342,1.0083 z m 1.931152,-9.70703 q -1.256103,0 -1.931152,1.45264 -0.675049,1.46118 -0.675049,4.11865 0,1.15357 0.119629,2.07642 l 4.776611,-5.17822 q -0.145263,-0.57251 -0.350342,-1.0254 -0.683593,-1.44409 -1.939697,-1.44409 z"
         style="font-size:17.5px"
         id="path4279"
         inkscape:connector-curvature="0" />
      <path
         d="m 100.42795,177.82205 -0.452883,-0.34179 q -1.469726,-1.11084 -1.469726,-2.58057 0,-1.38428 1.068115,-2.2815 1.059574,-0.89721 2.742924,-0.89721 1.5979,0 2.58056,0.77759 0.98267,0.77758 0.98267,2.05932 0,1.0083 -0.49561,1.68335 -0.37597,0.50415 -1.27319,1.30737 l -0.40161,0.35889 0.58105,0.39307 q 1.23047,0.82886 1.67481,1.49536 0.44433,0.65796 0.44433,1.63208 0,1.58935 -1.18774,2.58057 -1.18774,0.99121 -3.10181,0.99121 -1.91406,0 -3.050535,-0.95703 -1.145019,-0.95704 -1.145019,-2.53785 0,-1.91406 2.033691,-3.34961 l 0.469973,-0.33325 z m 2.29858,-0.50415 q 1.57227,-1.44409 1.57227,-2.66601 0,-0.90577 -0.54688,-1.39283 -0.55542,-0.48706 -1.62353,-0.48706 -0.9314,0 -1.49536,0.5127 -0.55542,0.50415 -0.55542,1.28174 0,0.82885 1.0852,1.65771 l 0.8374,0.64087 0.72632,0.45288 z m -1.45263,1.01685 q -0.96558,1.05102 -1.298833,1.63208 -0.367432,0.64087 -0.367432,1.49536 0,1.09375 0.743405,1.78589 0.74341,0.70068 1.89698,0.70068 1.06811,0 1.71753,-0.61523 0.64941,-0.60669 0.64941,-1.5979 0,-0.70069 -0.33325,-1.15357 -0.31616,-0.44433 -1.28174,-1.09375 l -1.72607,-1.15356 z"
         style="font-size:17.5px"
         id="path4281"
         inkscape:connector-curvature="0" />
      <path
         d="m 119.14987,184.68362 0,-1.05102 3.33252,0 0,-7.16919 -3.33252,0 0,-1.05957 5.01587,0 0,8.22876 3.16162,0 0,1.05102 -8.17749,0 z m 3.07617,-11.38183 0,-2.1106 2.06787,0 0,2.1106 -2.06787,0 z"
         style="font-size:17.5px"
         id="path4283"
         inkscape:connector-curvature="0" />
      <path
         d="m 129.74557,184.68362 0,-1.05102 3.03345,0 0,-10.54443 -3.03345,0 0,-1.05103 7.75879,0 0,1.05103 -3.03344,0 0,10.54443 3.03344,0 0,1.05102 -7.75879,0 z"
         style="font-size:17.5px"
         id="path4285"
         inkscape:connector-curvature="0" />
      <path
         d="m 148.39914,184.16238 q -1.41846,0.73487 -2.87109,0.73487 -0.78614,0 -1.31592,-0.18799 -0.52124,-0.17944 -0.8374,-0.57251 -0.30762,-0.40161 -0.44434,-1.02539 -0.12817,-0.62378 -0.12817,-1.49536 l 0,-9.37378 -3.16163,0 0,-1.05103 4.84498,0 0,9.86084 q 0,0.79468 0.0598,1.29883 0.0598,0.50415 0.23071,0.78613 0.17945,0.28199 0.50415,0.38452 0.32471,0.10254 0.86304,0.10254 1.05957,0 2.25586,-0.65796 l 0,1.19629 z"
         style="font-size:17.5px"
         id="path4287"
         inkscape:connector-curvature="0" />
      <path
         d="m 159.19992,184.68362 -9.10034,0 0,-1.05102 2.11059,0 0,-10.54443 -2.11059,0 0,-1.05103 5.802,0 0,1.05103 -2.00806,0 0,10.47607 4.25538,0 0,-2.948 1.05102,0 0,4.06738 z"
         style="font-size:17.5px"
         id="path4289"
         inkscape:connector-curvature="0" />
      <path
         d="m 160.82346,184.68362 0,-1.05102 3.79394,0 0,-10.1001 -3.79394,1.51245 0,-1.12793 5.48584,-2.19604 0,11.91162 3.79394,0 0,1.05102 -9.27978,0 z"
         style="font-size:17.5px"
         id="path4291"
         inkscape:connector-curvature="0" />
      <path
         d="m 189.40622,187.21292 -1.11939,0 q -1.46972,0 -2.40112,-0.81177 -0.93994,-0.81176 -0.93994,-2.11914 0,-0.45288 0.11108,-1.10229 l 0.17945,-1.03394 q 0.0684,-0.40161 0.0684,-0.76904 0,-1.64917 -1.9397,-1.64917 l -0.95703,0 0,-1.05103 0.95703,0 q 1.9397,0 1.9397,-1.68335 0,-0.33325 -0.0684,-0.73486 l -0.17945,-1.03393 q -0.11108,-0.64942 -0.11108,-1.14502 0,-1.2732 0.94849,-2.08496 0.93994,-0.80323 2.39257,-0.80323 l 1.11939,0 0,1.05103 -0.50415,0 q -2.37549,0 -2.37549,1.7688 0,0.34179 0.0684,0.73486 l 0.18799,1.06812 q 0.0684,0.39306 0.0684,0.71777 0,1.10229 -0.66651,1.85425 -0.39306,0.43579 -1.12793,0.81176 0.80323,0.41016 1.20484,0.90577 0.58105,0.72631 0.58105,1.79443 0,0.35034 -0.0598,0.69214 l -0.18799,1.06811 q -0.0684,0.39307 -0.0684,0.77759 0,1.72608 2.37549,1.72608 l 0.50415,0 0,1.05102 z"
         style="font-size:17.5px"
         id="path4293"
         inkscape:connector-curvature="0" />
      <path
         d="m 193.27707,171.19119 1.11938,0 q 1.46973,0 2.40113,0.81177 0.93994,0.82031 0.93994,2.1106 0,0.46997 -0.11109,1.11084 l -0.17944,1.03393 q -0.0684,0.39307 -0.0684,0.76904 0,1.64917 1.9397,1.64917 l 0.95703,0 0,1.05103 -0.95703,0 q -1.9397,0 -1.9397,1.68335 0,0.35034 0.0684,0.73486 l 0.17944,1.02539 q 0.11109,0.63233 0.11109,1.15357 0,1.26465 -0.94849,2.07641 -0.93994,0.81177 -2.39258,0.81177 l -1.11938,0 0,-1.05102 0.50415,0 q 2.37549,0 2.37549,-1.76026 0,-0.35888 -0.0684,-0.74341 l -0.18799,-1.06811 q -0.0598,-0.3418 -0.0598,-0.72632 0,-1.09375 0.65795,-1.8457 0.38453,-0.43579 1.12793,-0.82032 -0.79467,-0.41015 -1.19628,-0.90576 -0.5896,-0.72632 -0.5896,-1.78589 0,-0.35034 0.0598,-0.69213 l 0.18799,-1.06812 q 0.0684,-0.38452 0.0684,-0.77759 0,-1.72607 -2.37549,-1.72607 l -0.50415,0 0,-1.05103 z"
         style="font-size:17.5px"
         id="path4295"
         inkscape:connector-curvature="0" />
      <path
         d="m 215.69894,187.21292 0,-16.02173 4.6399,0 0,1.05103 -3.16162,0 0,13.91968 3.16162,0 0,1.05102 -4.6399,0 z"
         style="font-size:17.5px"
         id="path4297"
         inkscape:connector-curvature="0" />
      <path
         d="m 229.94333,187.21292 -4.63989,0 0,-1.05102 3.16162,0 0,-13.91968 -3.16162,0 0,-1.05103 4.63989,0 0,16.02173 z"
         style="font-size:17.5px"
         id="path4299"
         inkscape:connector-curvature="0" />
      <path
         d="m 252.72409,176.45486 0,6.9043 q 0,0.59815 -0.0256,1.19629 -0.0171,0.5896 -0.13672,1.13648 -0.11963,0.54687 -0.36743,1.01684 -0.24781,0.46997 -0.70069,0.81177 -0.44433,0.35034 -1.12793,0.54687 -0.68359,0.20508 -1.6748,0.20508 -0.73487,0 -1.60645,-0.11963 -0.86303,-0.11108 -1.73462,-0.45288 l 0,-2.11059 1.05103,0 0.22217,1.16211 q 0.17944,0.0854 0.4187,0.17089 0.2478,0.0854 0.52124,0.14527 0.27344,0.0684 0.56396,0.10254 0.29053,0.0427 0.58106,0.0427 0.57251,0 0.96557,-0.13672 0.40161,-0.12817 0.65796,-0.36743 0.25635,-0.23071 0.39307,-0.55542 0.14526,-0.32471 0.21362,-0.71777 0.0684,-0.38452 0.0769,-0.82032 0.0171,-0.43579 0.0171,-0.89721 l 0,-1.70044 q -0.64942,0.96557 -1.23902,1.427 -0.88012,0.68359 -1.88843,0.68359 -1.40991,0 -2.28149,-1.23046 -0.87158,-1.21338 -0.87158,-2.89673 0,-1.05103 0.28198,-1.87134 0.29053,-0.82886 0.87158,-1.52954 1.14502,-1.40137 3.18726,-1.40137 0.57251,0 1.02539,0.0598 0.45288,0.0598 0.91431,0.14526 l 2.70874,0 0,1.05102 -1.01685,0 z m -1.69189,0.20508 q -0.5896,-0.094 -1.04248,-0.14526 -0.45289,-0.0513 -0.77759,-0.0513 -1.40991,0 -2.04224,0.91431 -0.31616,0.46142 -0.46997,1.06811 -0.15381,0.60669 -0.15381,1.46118 0,2.84546 1.82862,2.84546 1.40136,0 2.65747,-1.99951 l 0,-4.09302 z"
         style="font-size:17.5px"
         id="path4301"
         inkscape:connector-curvature="0" />
      <path
         d="m 261.92697,178.64236 q -0.54687,0.74341 -1.14502,1.11939 -0.88013,0.54687 -2.03369,0.54687 -1.62353,0 -2.62329,-1.14502 -1.0083,-1.13647 -1.0083,-2.97363 0,-1.98242 1.17065,-3.22143 1.17066,-1.24756 3.01636,-1.24756 2.08496,0 3.26416,1.69189 1.1792,1.6919 1.1792,4.69116 0,3.2898 -1.39282,5.09278 -1.39282,1.80298 -3.87085,1.80298 -1.09375,0 -2.78565,-0.60669 l 0,-2.70874 1.05103,0 0.20508,1.79443 q 0.73486,0.46997 1.52099,0.46997 1.82862,0 2.76856,-1.8457 0.65796,-1.29029 0.68359,-3.4607 z m -2.84546,-5.87036 q -0.93994,0 -1.52099,0.67505 -0.73487,0.85449 -0.73487,2.54639 0,3.21289 2.24732,3.21289 1.14502,0 1.93969,-0.88013 0.78614,-0.87158 0.78614,-2.1875 0,-1.36719 -0.80323,-2.36694 -0.80322,-0.99976 -1.91406,-0.99976 z"
         style="font-size:17.5px"
         id="path4303"
         inkscape:connector-curvature="0" />
      <path
         d="m 272.01852,182.78665 q -0.64086,0.94849 -1.23901,1.427 -0.87158,0.6836 -1.88843,0.6836 -1.40991,0 -2.28149,-1.23047 -0.87158,-1.22193 -0.87158,-3.23853 0,-2.4353 1.15356,-3.82812 1.14502,-1.40137 3.18726,-1.40137 l 1.93969,0.20508 1.6919,0 0,11.604 1.05102,0 0,1.05103 -4.84497,0 0,-1.05957 2.10205,0 0,-4.21265 z m 0,-6.12671 q -1.16211,-0.19653 -1.82006,-0.19653 -1.40992,0 -2.04224,0.91431 -0.62378,0.9143 -0.62378,2.95654 0,3.18725 1.82861,3.18725 1.40137,0 2.65747,-1.99951 l 0,-4.86206 z"
         style="font-size:17.5px"
         id="path4305"
         inkscape:connector-curvature="0" />
      <path
         d="m 284.91281,184.0513 q -1.7688,0.94849 -3.31543,0.94849 -2.46948,0 -3.8623,-1.76026 -1.40137,-1.76025 -1.40137,-4.94751 0,-3.15307 1.33301,-4.86206 1.33301,-1.70898 3.81103,-1.70898 1.40137,0 3.25562,0.54687 l 0,2.80274 -1.05103,0 -0.2478,-1.84571 q -0.96558,-0.45288 -1.91406,-0.45288 -1.5979,0 -2.48657,1.50391 -0.88013,1.49536 -0.88013,4.13574 0,2.55493 0.98266,4.0332 0.99122,1.43555 2.68311,1.43555 1.50391,0 3.09326,-1.1792 l 0,1.3501 z"
         style="font-size:17.5px"
         id="path4307"
         inkscape:connector-curvature="0" />
      <path
         d="m 295.01291,184.0513 q -1.55518,0.94849 -3.27271,0.94849 -2.52929,0 -3.93066,-1.76026 -1.40137,-1.75171 -1.40137,-4.93896 0,-3.18726 1.34156,-4.8877 1.35009,-1.70044 3.90502,-1.70044 1.47828,0 3.15308,0.52979 l 0,2.82837 -1.05102,0 -0.24781,-1.84571 q -0.97412,-0.46142 -1.82007,-0.46142 -3.46069,0 -3.46069,5.62256 0,2.62329 0.98267,4.04174 0.98266,1.45264 2.72583,1.45264 0.6665,0 1.38427,-0.27344 l 0,-3.51196 -1.46972,0 0,-1.05102 3.16162,0 0,5.00732 z"
         style="font-size:17.5px"
         id="path4309"
         inkscape:connector-curvature="0" />
      <path
         d="m 301.52414,184.99979 q -1.33301,-0.21363 -2.04224,-0.56397 -0.85449,-0.4187 -1.52099,-1.5039 -1.16211,-1.90552 -1.16211,-4.57154 0,-2.93091 1.31592,-4.78515 1.31591,-1.85425 3.40942,-1.85425 2.08496,0 3.40088,1.85425 1.32446,1.85424 1.32446,4.77661 0,2.73437 -1.14502,4.5459 -0.77759,1.22192 -2.0935,1.80297 1.38427,0.86304 3.70849,1.37574 -0.5896,0.72631 -1.43554,1.35009 -1.78589,-0.67504 -3.75977,-2.42675 z m 0,-12.15943 q -1.37573,0 -2.13623,1.44409 -0.76904,1.42701 -0.76904,4.07593 0,2.61475 0.76049,4.06738 0.75196,1.46973 2.13623,1.46973 1.38428,0 2.10206,-1.26465 0.81176,-1.40991 0.81176,-4.25537 0,-2.67456 -0.76904,-4.10156 -0.77759,-1.43555 -2.13623,-1.43555 z"
         style="font-size:17.5px"
         id="path4311"
         inkscape:connector-curvature="0" />
      <path
         d="m 319.36594,180.67606 -1.26465,0 q 0.0342,-0.90577 0.19653,-1.37574 0.52124,-1.427 2.17041,-1.427 0.88013,0 1.77734,0.5896 l 0.99976,0.65796 0.59815,0.39307 q 0.25634,0.17089 0.71777,0.17089 1.05102,0 1.0852,-1.53808 l 1.26465,0 q -0.0256,0.90576 -0.19653,1.37573 -0.5127,1.427 -2.16187,1.427 -0.88867,0 -1.77734,-0.5896 l -0.99976,-0.65796 -0.59814,-0.39306 q -0.26489,-0.1709 -0.74341,-0.1709 -1.03393,0 -1.06811,1.53809 z"
         style="font-size:17.5px"
         id="path4313"
         inkscape:connector-curvature="0" />
      <path
         d="m 328.59445,180.04373 0,-1.26465 8.80982,0 0,1.26465 -8.80982,0 z"
         style="font-size:17.5px"
         id="path4315"
         inkscape:connector-curvature="0" />
      <path
         d="m 342.86447,183.82059 0,-3.77686 -3.77685,0 0,-1.26465 3.77685,0 0,-3.77685 1.26465,0 0,3.77685 3.76831,0 0,1.26465 -3.76831,0 0,3.77686 -1.26465,0 z"
         style="font-size:17.5px"
         id="path4317"
         inkscape:connector-curvature="0" />
      <path
         d="m 349.58078,181.72708 0,-1.26465 8.80981,0 0,1.26465 -8.80981,0 z m 0,-3.3667 0,-1.26465 8.80981,0 0,1.26465 -8.80981,0 z"
         style="font-size:17.5px"
         id="path4319"
         inkscape:connector-curvature="0" />
      <path
         d="m 360.07394,184.68362 0,-1.47827 6.34888,-3.79394 -6.34888,-3.79395 0,-1.47827 8.81836,5.27222 -8.81836,5.27221 z"
         style="font-size:17.5px"
         id="path4321"
         inkscape:connector-curvature="0" />
    </g>
  </g>
</svg>
