<?xml version="1.0" encoding="UTF-8" standalone="no"?>
<svg
   version="1.1"
   id="svg2"
   viewBox="0 0 288.0359 107.15087"
   height="30.240356mm"
   width="81.290131mm"
   sodipodi:docname="GohuFont Nerd Font.svg"
   inkscape:version="1.1.2 (0a00cf5339, 2022-02-04)"
   xmlns:inkscape="http://www.inkscape.org/namespaces/inkscape"
   xmlns:sodipodi="http://sodipodi.sourceforge.net/DTD/sodipodi-0.dtd"
   xmlns="http://www.w3.org/2000/svg"
   xmlns:svg="http://www.w3.org/2000/svg"
   xmlns:rdf="http://www.w3.org/1999/02/22-rdf-syntax-ns#"
   xmlns:cc="http://creativecommons.org/ns#"
   xmlns:dc="http://purl.org/dc/elements/1.1/">
  <sodipodi:namedview
     id="namedview12"
     pagecolor="#ffffff"
     bordercolor="#666666"
     borderopacity="1.0"
     inkscape:pageshadow="2"
     inkscape:pageopacity="0.0"
     inkscape:pagecheckerboard="0"
     inkscape:document-units="mm"
     showgrid="false"
     inkscape:zoom="0.64052329"
     inkscape:cx="328.63754"
     inkscape:cy="473.83133"
     inkscape:window-width="1458"
     inkscape:window-height="976"
     inkscape:window-x="0"
     inkscape:window-y="32"
     inkscape:window-maximized="0"
     inkscape:current-layer="svg2" />
  <defs
     id="defs4" />
  <metadata
     id="metadata7">
    <rdf:RDF>
      <cc:Work
         rdf:about="">
        <dc:format>image/svg+xml</dc:format>
        <dc:type
           rdf:resource="http://purl.org/dc/dcmitype/StillImage" />
      </cc:Work>
    </rdf:RDF>
  </metadata>
  <g
     id="layer1"
     transform="translate(-64.817593,-81.275429)">
    <g
       aria-label="Gohu Nerd Font"
       id="text4136"
       style="font-size:27.5px;line-height:125%;font-family:'GohuFont Nerd Font';text-decoration:underline;text-decoration-line:underline;letter-spacing:0px;word-spacing:0px;fill:#ffffff;stroke-width:1px">
      <path
         d="M 66.778042,84.22953 V 83.235878 H 70.712368 74.646694 V 84.22953 85.209755 H 75.626919 76.607143 V 86.18998 87.170204 H 75.626919 74.646694 V 86.18998 85.209755 H 70.712368 66.778042 V 92.084755 98.959755 H 70.712368 74.646694 V 96.019081 93.06498 H 72.686245 70.712368 V 92.084755 91.10453 H 73.66647 76.607143 V 95.025429 98.959755 H 75.626919 74.646694 V 99.93998 100.9202 H 70.712368 66.778042 V 99.93998 98.959755 H 65.797817 64.817593 V 92.084755 85.209755 H 65.797817 66.778042 Z"
         id="path829" />
      <path
         d="M 82.488491,88.163857 V 87.183632 H 86.422817 90.357143 V 88.163857 89.144081 H 91.337368 92.317593 V 94.045204 98.959755 H 91.337368 90.357143 V 99.93998 100.9202 H 86.422817 82.488491 V 99.93998 98.959755 H 81.508266 80.528042 V 94.045204 89.144081 H 81.508266 82.488491 Z M 90.357143,94.045204 V 89.144081 H 86.422817 82.488491 V 94.045204 98.959755 H 86.422817 90.357143 Z"
         id="path831" />
      <path
         d="M 96.238491,91.10453 V 81.275429 H 97.218716 98.19894 V 85.209755 89.144081 H 99.192593 100.17282 V 88.163857 87.183632 H 103.12692 106.06759 V 88.163857 89.144081 H 107.04782 108.02804 V 95.025429 100.9202 H 107.04782 106.06759 V 95.025429 89.144081 H 103.12692 100.17282 V 90.124306 91.10453 H 99.192593 98.19894 V 96.019081 100.9202 H 97.218716 96.238491 Z"
         id="path833" />
      <path
         d="M 111.94894,93.06498 V 87.170204 H 112.92916 113.90939 V 93.06498 98.959755 H 116.86349 119.81759 V 97.97953 96.999306 H 120.79782 121.77804 V 92.084755 87.170204 H 122.75827 123.75192 V 94.045204 100.9202 H 122.75827 121.77804 V 99.93998 98.959755 H 120.79782 119.81759 V 99.93998 100.9202 H 116.86349 113.90939 V 99.93998 98.959755 H 112.92916 111.94894 Z"
         id="path835" />
      <path
         d="M 143.36984,92.084755 V 83.249306 H 144.35006 145.33029 V 84.22953 85.209755 H 146.32394 147.30416 V 87.170204 89.130653 H 148.28439 149.26461 V 91.10453 93.06498 H 150.25827 151.22506 V 95.038857 96.999306 H 152.21872 153.19894 V 90.124306 83.249306 H 154.17916 155.17282 V 92.084755 100.9202 H 153.19894 151.22506 V 98.959755 96.999306 H 150.25827 149.26461 V 95.038857 93.06498 H 148.28439 147.30416 V 91.10453 89.130653 H 146.32394 145.33029 V 95.025429 100.9202 H 144.35006 143.36984 Z"
         id="path837" />
      <path
         d="M 161.04074,88.163857 V 87.183632 H 164.97506 168.90939 V 88.163857 89.144081 H 169.88961 170.86984 V 92.084755 95.038857 H 165.95529 161.04074 V 96.999306 98.959755 H 165.95529 170.86984 V 99.93998 100.9202 H 165.95529 161.04074 V 99.93998 98.959755 H 160.06051 159.08029 V 94.045204 89.144081 H 160.06051 161.04074 Z M 168.90939,91.10453 V 89.144081 H 164.97506 161.04074 V 91.10453 93.078407 H 164.97506 168.90939 Z"
         id="path839" />
      <path
         d="M 174.79074,94.045204 V 87.183632 H 175.77096 176.75119 V 88.163857 89.144081 H 177.74484 178.72506 V 88.163857 87.183632 H 181.67916 184.61984 V 88.163857 89.144081 H 185.60006 186.58029 V 90.124306 91.10453 H 185.60006 184.61984 V 90.124306 89.144081 H 181.67916 178.72506 V 90.124306 91.10453 H 177.74484 176.75119 V 96.019081 100.9202 H 175.77096 174.79074 Z"
         id="path841" />
      <path
         d="M 200.33029,84.22953 V 81.275429 H 201.31051 202.30416 V 91.10453 100.9202 H 201.31051 200.33029 V 99.93998 98.959755 H 199.35006 198.36984 V 99.93998 100.9202 H 195.41574 192.46164 V 99.93998 98.959755 H 191.48141 190.50119 V 94.045204 89.144081 H 191.48141 192.46164 V 88.163857 87.183632 H 196.39596 200.33029 Z M 200.33029,93.06498 V 89.144081 H 196.39596 192.46164 V 94.045204 98.959755 H 195.41574 198.36984 V 97.97953 96.999306 H 199.35006 200.33029 Z"
         id="path843" />
      <path
         d="M 221.92208,92.084755 V 83.235878 H 227.81686 233.71164 V 84.22953 85.209755 H 228.79708 223.88253 V 88.163857 91.10453 H 226.83664 229.79074 V 92.084755 93.06498 H 226.83664 223.88253 V 96.999306 100.9202 H 222.90231 221.92208 Z"
         id="path845" />
      <path
         d="M 239.59298,88.163857 V 87.183632 H 243.52731 247.46164 V 88.163857 89.144081 H 248.44186 249.42208 V 94.045204 98.959755 H 248.44186 247.46164 V 99.93998 100.9202 H 243.52731 239.59298 V 99.93998 98.959755 H 238.61276 237.63253 V 94.045204 89.144081 H 238.61276 239.59298 Z M 247.46164,94.045204 V 89.144081 H 243.52731 239.59298 V 94.045204 98.959755 H 243.52731 247.46164 Z"
         id="path847" />
      <path
         d="M 253.34298,94.045204 V 87.183632 H 258.25753 263.17208 V 88.163857 89.144081 H 264.15231 265.13253 V 95.025429 100.9202 H 264.15231 263.17208 V 95.025429 89.144081 H 259.23776 255.30343 V 95.025429 100.9202 H 254.32321 253.34298 Z"
         id="path849" />
      <path
         d="M 272.98776,84.22953 V 81.275429 H 273.96798 274.94821 V 84.22953 87.183632 H 276.92208 278.88253 V 88.163857 89.144081 H 276.92208 274.94821 V 94.045204 98.959755 H 276.92208 278.88253 V 99.93998 100.9202 H 276.92208 274.94821 V 99.93998 98.959755 H 273.96798 272.98776 V 94.045204 89.144081 H 272.00753 271.02731 V 88.163857 87.183632 H 272.00753 272.98776 Z"
         id="path851" />
    </g>
    <g
       aria-label="abcdefghijklmnopqrstuvwxyzABCDEFGHIJKLMNOPQRSTUVWXYZ oO08 iIlL1 {} [] g9qCGQ ~-+=&gt;"
       id="text4140"
       style="font-size:27.5px;line-height:125%;font-family:'GohuFont Nerd Font';letter-spacing:0px;word-spacing:0px;fill:#ffffff;stroke-width:1px">
      <path
         d="M 67.91452,132.8074 V 132.18362 H 70.418182 72.921844 V 132.8074 133.43118 H 73.545624 74.177948 V 137.17386 140.92508 H 73.545624 72.921844 V 140.3013 139.67752 H 72.298065 71.674286 V 140.3013 140.92508 H 69.794403 67.91452 V 140.3013 139.67752 H 67.290741 66.666962 V 137.80618 135.9263 H 67.290741 67.91452 V 135.30252 134.67874 H 70.418182 72.921844 V 134.05496 133.43118 H 70.418182 67.91452 Z M 72.921844,137.1824 V 135.9263 H 70.418182 67.91452 V 137.80618 139.67752 H 69.794403 71.674286 V 139.05374 138.42996 H 72.298065 72.921844 Z"
         style="font-size:17.5px"
         id="path854" />
      <path
         d="M 76.66452,134.67874 V 128.42386 H 77.2883 77.912079 V 130.92752 133.43118 H 78.544403 79.168182 V 132.8074 132.18362 H 81.048065 82.919403 V 132.8074 133.43118 H 83.543182 84.166962 V 136.55008 139.67752 H 83.543182 82.919403 V 140.3013 140.92508 H 79.791962 76.66452 Z M 82.919403,136.55008 V 133.43118 H 81.048065 79.168182 V 134.05496 134.67874 H 78.544403 77.912079 V 137.17386 139.67752 H 80.415741 82.919403 Z"
         style="font-size:17.5px"
         id="path856" />
      <path
         d="M 87.909637,132.8074 V 132.18362 H 90.4133 92.916962 V 132.8074 133.43118 H 93.540741 94.16452 V 134.05496 134.67874 H 93.540741 92.916962 V 134.05496 133.43118 H 90.4133 87.909637 V 136.55008 139.67752 H 90.4133 92.916962 V 139.05374 138.42996 H 93.540741 94.16452 V 139.05374 139.67752 H 93.540741 92.916962 V 140.3013 140.92508 H 90.4133 87.909637 V 140.3013 139.67752 H 87.285858 86.662079 V 136.55008 133.43118 H 87.285858 87.909637 Z"
         style="font-size:17.5px"
         id="path858" />
      <path
         d="M 102.91452,130.30374 V 128.42386 H 103.5383 104.17062 V 134.67874 140.92508 H 103.5383 102.91452 V 140.3013 139.67752 H 102.29074 101.66696 V 140.3013 140.92508 H 99.787079 97.907196 V 140.3013 139.67752 H 97.283417 96.659637 V 136.55008 133.43118 H 97.283417 97.907196 V 132.8074 132.18362 H 100.41086 102.91452 Z M 102.91452,135.9263 V 133.43118 H 100.41086 97.907196 V 136.55008 139.67752 H 99.787079 101.66696 V 139.05374 138.42996 H 102.29074 102.91452 Z"
         style="font-size:17.5px"
         id="path860" />
      <path
         d="M 107.90475,132.8074 V 132.18362 H 110.40842 112.91208 V 132.8074 133.43118 H 113.53586 114.15964 V 135.30252 137.1824 H 111.0322 107.90475 V 138.42996 139.67752 H 111.0322 114.15964 V 140.3013 140.92508 H 111.0322 107.90475 V 140.3013 139.67752 H 107.28098 106.6572 V 136.55008 133.43118 H 107.28098 107.90475 Z M 112.91208,134.67874 V 133.43118 H 110.40842 107.90475 V 134.67874 135.93484 H 110.40842 112.91208 Z"
         style="font-size:17.5px"
         id="path862" />
      <path
         d="M 119.16696,129.04764 V 128.4324 H 121.0383 122.90964 V 129.04764 129.67996 H 121.0383 119.16696 V 131.5513 133.43118 H 121.0383 122.90964 V 134.05496 134.67874 H 121.0383 119.16696 V 137.80618 140.92508 H 118.53464 117.91086 V 135.30252 129.67996 H 118.53464 119.16696 Z"
         style="font-size:17.5px"
         id="path864" />
      <path
         d="M 127.89987,132.8074 V 132.18362 H 131.02731 134.1633 V 137.80618 143.42874 H 133.53098 132.9072 V 144.05252 144.6763 H 130.40353 127.89987 V 144.05252 143.42874 H 130.40353 132.9072 V 141.54886 139.67752 H 132.28342 131.65964 V 140.3013 140.92508 H 129.77975 127.89987 V 140.3013 139.67752 H 127.27609 126.65231 V 136.55008 133.43118 H 127.27609 127.89987 Z M 132.9072,135.9263 V 133.43118 H 130.40353 127.89987 V 136.55008 139.67752 H 129.77975 131.65964 V 139.05374 138.42996 H 132.28342 132.9072 Z"
         style="font-size:17.5px"
         id="path866" />
      <path
         d="M 136.64987,134.67874 V 128.42386 H 137.27365 137.89743 V 130.92752 133.43118 H 138.52975 139.15353 V 132.8074 132.18362 H 141.03342 142.90475 V 132.8074 133.43118 H 143.52853 144.15231 V 137.17386 140.92508 H 143.52853 142.90475 V 137.17386 133.43118 H 141.03342 139.15353 V 134.05496 134.67874 H 138.52975 137.89743 V 137.80618 140.92508 H 137.27365 136.64987 Z"
         style="font-size:17.5px"
         id="path868" />
      <path
         d="M 146.64743,132.8074 V 132.18362 H 148.52731 150.39865 V 135.9263 139.67752 H 151.65475 152.90231 V 140.3013 140.92508 H 151.03098 149.15109 V 137.17386 133.43118 H 147.90353 146.64743 Z M 149.15109,129.67996 V 128.42386 H 149.77487 150.39865 V 129.67996 130.92752 H 149.77487 149.15109 Z"
         style="font-size:17.5px"
         id="path870" />
      <path
         d="M 159.14865,132.8074 V 132.18362 H 160.39621 161.65231 V 137.80618 143.42874 H 161.02853 160.39621 V 144.05252 144.6763 H 158.52487 156.64499 V 144.05252 143.42874 H 158.52487 160.39621 V 138.42996 133.43118 H 159.77243 159.14865 Z M 160.39621,129.67996 V 128.42386 H 161.02853 161.65231 V 129.67996 130.92752 H 161.02853 160.39621 Z"
         style="font-size:17.5px"
         id="path872" />
      <path
         d="M 166.64255,134.67874 V 128.42386 H 167.26633 167.89011 V 132.17508 135.93484 H 169.14621 170.39377 V 135.30252 134.67874 H 171.02609 171.64133 V 134.05496 133.43118 H 172.27365 172.89743 V 134.05496 134.67874 H 172.27365 171.64133 V 135.30252 135.93484 H 171.02609 170.39377 V 136.55008 137.1824 H 171.02609 171.64133 V 137.80618 138.42996 H 172.27365 172.89743 V 139.05374 139.67752 H 173.52121 174.14499 V 140.3013 140.92508 H 173.52121 172.89743 V 140.3013 139.67752 H 172.27365 171.64133 V 139.05374 138.42996 H 171.02609 170.39377 V 137.80618 137.1824 H 169.14621 167.89011 V 139.05374 140.92508 H 167.26633 166.64255 Z"
         style="font-size:17.5px"
         id="path874" />
      <path
         d="M 177.89621,129.04764 V 128.4324 H 179.14377 180.39987 V 134.05496 139.67752 H 182.27121 184.14255 V 140.3013 140.92508 H 182.27121 180.39987 V 140.3013 139.67752 H 179.76755 179.14377 V 134.67874 129.67996 H 178.51999 177.89621 Z"
         style="font-size:17.5px"
         id="path876" />
      <path
         d="M 185.39011,136.55008 V 132.18362 H 189.14133 192.89255 V 132.8074 133.43118 H 193.51633 194.14011 V 137.17386 140.92508 H 193.51633 192.89255 V 137.17386 133.43118 H 191.64499 190.38889 V 137.17386 140.92508 H 189.76511 189.14133 V 137.17386 133.43118 H 187.89377 186.63766 V 137.17386 140.92508 H 186.01389 185.39011 Z"
         style="font-size:17.5px"
         id="path878" />
      <path
         d="M 196.63522,136.55008 V 132.18362 H 199.76266 202.89011 V 132.8074 133.43118 H 203.51389 204.13766 V 137.17386 140.92508 H 203.51389 202.89011 V 137.17386 133.43118 H 200.38644 197.88278 V 137.17386 140.92508 H 197.259 196.63522 Z"
         style="font-size:17.5px"
         id="path880" />
      <path
         d="M 207.88034,132.8074 V 132.18362 H 210.384 212.88766 V 132.8074 133.43118 H 213.51144 214.13522 V 136.55008 139.67752 H 213.51144 212.88766 V 140.3013 140.92508 H 210.384 207.88034 V 140.3013 139.67752 H 207.25656 206.63278 V 136.55008 133.43118 H 207.25656 207.88034 Z M 212.88766,136.55008 V 133.43118 H 210.384 207.88034 V 136.55008 139.67752 H 210.384 212.88766 Z"
         style="font-size:17.5px"
         id="path882" />
      <path
         d="M 216.63034,138.42996 V 132.18362 H 217.25412 217.8779 V 132.8074 133.43118 H 218.51022 219.134 V 132.8074 132.18362 H 221.01389 222.88522 V 132.8074 133.43118 H 223.509 224.13278 V 136.55008 139.67752 H 223.509 222.88522 V 140.3013 140.92508 H 220.38156 217.8779 V 142.80496 144.6763 H 217.25412 216.63034 Z M 222.88522,136.55008 V 133.43118 H 221.01389 219.134 V 134.05496 134.67874 H 218.51022 217.8779 V 137.17386 139.67752 H 220.38156 222.88522 Z"
         style="font-size:17.5px"
         id="path884" />
      <path
         d="M 227.87546,132.8074 V 132.18362 H 231.0029 234.13889 V 138.42996 144.6763 H 233.50656 232.88278 V 142.17264 139.67752 H 232.259 231.63522 V 140.3013 140.92508 H 229.75534 227.87546 V 140.3013 139.67752 H 227.25168 226.6279 V 136.55008 133.43118 H 227.25168 227.87546 Z M 232.88278,135.9263 V 133.43118 H 230.37912 227.87546 V 136.55008 139.67752 H 229.75534 231.63522 V 139.05374 138.42996 H 232.259 232.88278 Z"
         style="font-size:17.5px"
         id="path886" />
      <path
         d="M 236.62546,136.55008 V 132.18362 H 237.24924 237.87302 V 132.8074 133.43118 H 238.50534 239.12912 V 132.8074 132.18362 H 241.009 242.88034 V 132.8074 133.43118 H 243.50412 244.1279 V 134.05496 134.67874 H 243.50412 242.88034 V 134.05496 133.43118 H 241.009 239.12912 V 134.05496 134.67874 H 238.50534 237.87302 V 137.80618 140.92508 H 237.24924 236.62546 Z"
         style="font-size:17.5px"
         id="path888" />
      <path
         d="M 247.87057,132.8074 V 132.18362 H 250.37424 252.8779 V 132.8074 133.42264 H 250.37424 247.87057 V 134.67874 135.93484 H 250.37424 252.8779 V 136.55008 137.1824 H 253.50168 254.12546 V 138.42996 139.67752 H 253.50168 252.8779 V 140.3013 140.92508 H 249.75046 246.62302 V 140.3013 139.67752 H 249.75046 252.8779 V 138.42996 137.1824 H 250.37424 247.87057 V 136.55008 135.93484 H 247.2468 246.62302 V 134.67874 133.42264 H 247.2468 247.87057 Z"
         style="font-size:17.5px"
         id="path890" />
      <path
         d="M 259.12424,130.30374 V 128.42386 H 259.74802 260.3718 V 130.30374 132.18362 H 261.6279 262.87546 V 132.8074 133.43118 H 261.6279 260.3718 V 136.55008 139.67752 H 261.6279 262.87546 V 140.3013 140.92508 H 261.6279 260.3718 V 140.3013 139.67752 H 259.74802 259.12424 V 136.55008 133.43118 H 258.50046 257.87668 V 132.8074 132.18362 H 258.50046 259.12424 Z"
         style="font-size:17.5px"
         id="path892" />
      <path
         d="M 266.61813,135.9263 V 132.17508 H 267.24191 267.86569 V 135.9263 139.67752 H 269.74557 271.62546 V 139.05374 138.42996 H 272.24924 272.87302 V 135.30252 132.17508 H 273.4968 274.12912 V 136.55008 140.92508 H 273.4968 272.87302 V 140.3013 139.67752 H 272.24924 271.62546 V 140.3013 140.92508 H 269.74557 267.86569 V 140.3013 139.67752 H 267.24191 266.61813 Z"
         style="font-size:17.5px"
         id="path894" />
      <path
         d="M 276.61569,134.05496 V 132.17508 H 277.23947 277.86325 V 134.05496 135.9263 H 278.49557 279.1279 V 137.1824 138.42996 H 280.36691 281.62302 V 137.1824 135.9263 H 282.2468 282.87057 V 134.05496 132.17508 H 283.49435 284.11813 V 134.05496 135.9263 H 283.49435 282.87057 V 137.1824 138.42996 H 282.2468 281.62302 V 139.67752 140.92508 H 280.36691 279.1279 V 139.67752 138.42996 H 278.49557 277.86325 V 137.1824 135.9263 H 277.23947 276.61569 Z"
         style="font-size:17.5px"
         id="path896" />
      <path
         d="M 285.36569,135.30252 V 132.17508 H 285.98947 286.61325 V 135.30252 138.42996 H 287.23703 287.86081 V 137.80618 137.1824 H 288.49313 289.12546 V 135.9263 134.67874 H 289.74069 290.36447 V 135.9263 137.1824 H 290.9968 291.61203 V 137.80618 138.42996 H 292.24435 292.86813 V 135.30252 132.17508 H 293.49191 294.11569 V 135.30252 138.42996 H 293.49191 292.86813 V 139.67752 140.92508 H 292.24435 291.61203 V 139.67752 138.42996 H 290.9968 290.36447 V 137.80618 137.1824 H 289.74069 289.12546 V 137.80618 138.42996 H 288.49313 287.86081 V 139.67752 140.92508 H 287.23703 286.61325 V 139.67752 138.42996 H 285.98947 285.36569 Z"
         style="font-size:17.5px"
         id="path898" />
      <path
         d="M 296.61081,133.43118 V 132.17508 H 297.23459 297.85837 V 133.43118 134.67874 H 298.49069 299.12302 V 135.30252 135.93484 H 300.36203 301.61813 V 135.30252 134.67874 H 302.24191 302.86569 V 133.43118 132.17508 H 303.48947 304.11325 V 133.43118 134.67874 H 303.48947 302.86569 V 135.30252 135.93484 H 302.24191 301.61813 V 136.55008 137.1824 H 302.24191 302.86569 V 137.80618 138.42996 H 303.48947 304.11325 V 139.67752 140.92508 H 303.48947 302.86569 V 139.67752 138.42996 H 302.24191 301.61813 V 137.80618 137.1824 H 300.36203 299.12302 V 137.80618 138.42996 H 298.49069 297.85837 V 139.67752 140.92508 H 297.23459 296.61081 V 139.67752 138.42996 H 297.23459 297.85837 V 137.80618 137.1824 H 298.49069 299.12302 V 136.55008 135.93484 H 298.49069 297.85837 V 135.30252 134.67874 H 297.23459 296.61081 Z"
         style="font-size:17.5px"
         id="path900" />
      <path
         d="M 306.60837,135.9263 V 132.17508 H 307.23215 307.85593 V 135.9263 139.67752 H 309.73581 311.61569 V 139.05374 138.42996 H 312.23947 312.86325 V 135.30252 132.17508 H 313.48703 314.11935 V 137.80618 143.42874 H 313.48703 312.86325 V 144.05252 144.6763 H 310.35959 307.85593 V 144.05252 143.42874 H 310.35959 312.86325 V 141.54886 139.67752 H 312.23947 311.61569 V 140.3013 140.92508 H 309.73581 307.85593 V 140.3013 139.67752 H 307.23215 306.60837 Z"
         style="font-size:17.5px"
         id="path902" />
      <path
         d="M 316.60593,132.8074 V 132.17508 H 320.35715 324.10837 V 132.8074 133.43118 H 323.48459 322.86081 V 134.05496 134.67874 H 322.23703 321.60471 V 135.30252 135.93484 H 320.98947 320.35715 V 136.55008 137.1824 H 319.73337 319.11813 V 137.80618 138.42996 H 318.48581 317.85349 V 139.05374 139.67752 H 320.98093 324.10837 V 140.3013 140.92508 H 320.35715 316.60593 V 139.67752 138.42996 H 317.22971 317.85349 V 137.80618 137.1824 H 318.48581 319.11813 V 136.55008 135.93484 H 319.73337 320.35715 V 135.30252 134.67874 H 320.98947 321.60471 V 134.05496 133.43118 H 319.10959 316.60593 Z"
         style="font-size:17.5px"
         id="path904" />
      <path
         d="M 67.91452,152.17874 V 151.54642 H 70.418182 72.921844 V 152.17874 152.80252 H 73.545624 74.169403 V 157.8013 162.80008 H 73.545624 72.921844 V 160.30496 157.8013 H 70.418182 67.91452 V 160.30496 162.80008 H 67.290741 66.666962 V 157.8013 152.80252 H 67.290741 67.91452 Z M 72.921844,154.6824 V 152.80252 H 70.418182 67.91452 V 154.6824 156.55374 H 70.418182 72.921844 Z"
         style="font-size:17.5px"
         id="path906" />
      <path
         d="M 76.66452,157.17752 V 151.54642 H 79.791962 82.919403 V 152.17874 152.80252 H 83.543182 84.166962 V 154.6824 156.55374 H 83.543182 82.919403 V 157.17752 157.8013 H 83.543182 84.166962 V 159.68118 161.55252 H 83.543182 82.919403 V 162.1763 162.80008 H 79.791962 76.66452 Z M 82.919403,154.6824 V 152.80252 H 80.415741 77.912079 V 154.6824 156.55374 H 80.415741 82.919403 Z M 82.919403,159.68118 V 157.8013 H 80.415741 77.912079 V 159.68118 161.55252 H 80.415741 82.919403 Z"
         style="font-size:17.5px"
         id="path908" />
      <path
         d="M 87.909637,152.17874 V 151.54642 H 90.4133 92.916962 V 152.17874 152.80252 H 93.540741 94.16452 V 153.4263 154.05008 H 93.540741 92.916962 V 153.4263 152.80252 H 90.4133 87.909637 V 157.17752 161.55252 H 90.4133 92.916962 V 160.92874 160.30496 H 93.540741 94.16452 V 160.92874 161.55252 H 93.540741 92.916962 V 162.1763 162.80008 H 90.4133 87.909637 V 162.1763 161.55252 H 87.285858 86.662079 V 157.17752 152.80252 H 87.285858 87.909637 Z"
         style="font-size:17.5px"
         id="path910" />
      <path
         d="M 96.659637,157.17752 V 151.54642 H 99.1633 101.66696 V 152.17874 152.80252 H 102.29074 102.91452 V 153.4263 154.05008 H 103.5383 104.16208 V 157.17752 160.30496 H 103.5383 102.91452 V 160.92874 161.55252 H 102.29074 101.66696 V 162.1763 162.80008 H 99.1633 96.659637 Z M 101.66696,153.4263 V 152.80252 H 99.787079 97.907196 V 157.17752 161.55252 H 99.787079 101.66696 V 160.92874 160.30496 H 102.29074 102.91452 V 157.17752 154.05008 H 102.29074 101.66696 Z"
         style="font-size:17.5px"
         id="path912" />
      <path
         d="M 106.6572,157.17752 V 151.54642 H 110.40842 114.15964 V 152.17874 152.80252 H 111.0322 107.90475 V 154.6824 156.55374 H 109.78464 111.66452 V 157.17752 157.8013 H 109.78464 107.90475 V 159.68118 161.55252 H 111.0322 114.15964 V 162.1763 162.80008 H 110.40842 106.6572 Z"
         style="font-size:17.5px"
         id="path914" />
      <path
         d="M 116.65475,157.17752 V 151.54642 H 120.40598 124.1572 V 152.17874 152.80252 H 121.02975 117.90231 V 154.6824 156.55374 H 119.7822 121.66208 V 157.17752 157.8013 H 119.7822 117.90231 V 160.30496 162.80008 H 117.27853 116.65475 Z"
         style="font-size:17.5px"
         id="path916" />
      <path
         d="M 127.89987,152.17874 V 151.54642 H 130.40353 132.9072 V 152.17874 152.80252 H 133.53098 134.15475 V 153.4263 154.05008 H 133.53098 132.9072 V 153.4263 152.80252 H 130.40353 127.89987 V 157.17752 161.55252 H 130.40353 132.9072 V 159.68118 157.8013 H 131.65964 130.40353 V 157.17752 156.55374 H 132.28342 134.15475 V 159.04886 161.55252 H 133.53098 132.9072 V 162.1763 162.80008 H 130.40353 127.89987 V 162.1763 161.55252 H 127.27609 126.65231 V 157.17752 152.80252 H 127.27609 127.89987 Z"
         style="font-size:17.5px"
         id="path918" />
      <path
         d="M 136.64987,157.17752 V 151.55496 H 137.27365 137.89743 V 154.05008 156.55374 H 140.40109 142.90475 V 154.05008 151.55496 H 143.52853 144.15231 V 157.17752 162.80008 H 143.52853 142.90475 V 160.30496 157.8013 H 140.40109 137.89743 V 160.30496 162.80008 H 137.27365 136.64987 Z"
         style="font-size:17.5px"
         id="path920" />
      <path
         d="M 147.90353,152.17874 V 151.54642 H 149.77487 151.65475 V 152.17874 152.80252 H 151.03098 150.39865 V 157.17752 161.55252 H 151.03098 151.65475 V 162.1763 162.80008 H 149.77487 147.90353 V 162.1763 161.55252 H 148.52731 149.15109 V 157.17752 152.80252 H 148.52731 147.90353 Z"
         style="font-size:17.5px"
         id="path922" />
      <path
         d="M 162.89987,156.55374 V 151.55496 H 163.52365 164.14743 V 156.55374 161.55252 H 163.52365 162.89987 V 162.1763 162.80008 H 160.39621 157.89255 V 162.1763 161.55252 H 157.26877 156.64499 V 160.30496 159.0574 H 157.26877 157.89255 V 160.30496 161.55252 H 160.39621 162.89987 Z"
         style="font-size:17.5px"
         id="path924" />
      <path
         d="M 166.64255,157.17752 V 151.54642 H 167.26633 167.89011 V 154.05008 156.55374 H 168.52243 169.14621 V 155.92996 155.30618 H 169.76999 170.39377 V 154.6824 154.05862 H 171.02609 171.64133 V 153.4263 152.80252 H 172.27365 172.89743 V 152.17874 151.54642 H 173.52121 174.14499 V 152.17874 152.80252 H 173.52121 172.89743 V 153.4263 154.05862 H 172.27365 171.64133 V 154.6824 155.30618 H 171.02609 170.39377 V 155.92996 156.55374 H 169.76999 169.14621 V 157.17752 157.80984 H 169.76999 170.39377 V 158.42508 159.0574 H 171.02609 171.64133 V 159.68118 160.30496 H 172.27365 172.89743 V 160.92874 161.55252 H 173.52121 174.14499 V 162.1763 162.80008 H 173.52121 172.89743 V 162.1763 161.55252 H 172.27365 171.64133 V 160.92874 160.30496 H 171.02609 170.39377 V 159.68118 159.0574 H 169.76999 169.14621 V 158.42508 157.80984 H 168.52243 167.89011 V 160.30496 162.80008 H 167.26633 166.64255 Z"
         style="font-size:17.5px"
         id="path926" />
      <path
         d="M 176.64011,157.17752 V 151.55496 H 177.26389 177.88766 V 156.55374 161.55252 H 181.01511 184.14255 V 162.1763 162.80008 H 180.39133 176.64011 Z"
         style="font-size:17.5px"
         id="path928" />
      <path
         d="M 185.39011,157.17752 V 151.55496 H 186.01389 186.63766 V 152.17874 152.80252 H 187.26144 187.89377 V 153.4263 154.05862 H 188.51755 189.14987 V 154.6824 155.29764 H 189.76511 190.38889 V 154.6824 154.05862 H 191.02121 191.63644 V 153.4263 152.80252 H 192.26877 192.89255 V 152.17874 151.55496 H 193.51633 194.14865 V 157.17752 162.80008 H 193.51633 192.89255 V 158.42508 154.05862 H 192.26877 191.63644 V 154.6824 155.29764 H 191.02121 190.38889 V 156.55374 157.8013 H 189.76511 189.14987 V 156.55374 155.29764 H 188.51755 187.89377 V 154.6824 154.05862 H 187.26144 186.63766 V 158.42508 162.80008 H 186.01389 185.39011 Z"
         style="font-size:17.5px"
         id="path930" />
      <path
         d="M 196.63522,157.17752 V 151.55496 H 197.259 197.88278 V 152.17874 152.80252 H 198.51511 199.13889 V 154.05008 155.29764 H 199.76266 200.38644 V 156.55374 157.8013 H 201.01877 201.634 V 159.0574 160.30496 H 202.26633 202.89011 V 155.92996 151.55496 H 203.51389 204.14621 V 157.17752 162.80008 H 202.89011 201.634 V 161.55252 160.30496 H 201.01877 200.38644 V 159.0574 157.8013 H 199.76266 199.13889 V 156.55374 155.29764 H 198.51511 197.88278 V 159.04886 162.80008 H 197.259 196.63522 Z"
         style="font-size:17.5px"
         id="path932" />
      <path
         d="M 207.88034,152.17874 V 151.54642 H 210.384 212.88766 V 152.17874 152.80252 H 213.51144 214.13522 V 157.17752 161.55252 H 213.51144 212.88766 V 162.1763 162.80008 H 210.384 207.88034 V 162.1763 161.55252 H 207.25656 206.63278 V 157.17752 152.80252 H 207.25656 207.88034 Z M 212.88766,157.17752 V 152.80252 H 210.384 207.88034 V 157.17752 161.55252 H 210.384 212.88766 Z"
         style="font-size:17.5px"
         id="path934" />
      <path
         d="M 216.63034,157.17752 V 151.54642 H 219.75778 222.88522 V 152.17874 152.80252 H 223.509 224.13278 V 154.6824 156.55374 H 223.509 222.88522 V 157.17752 157.8013 H 220.38156 217.8779 V 160.30496 162.80008 H 217.25412 216.63034 Z M 222.88522,154.6824 V 152.80252 H 220.38156 217.8779 V 154.6824 156.55374 H 220.38156 222.88522 Z"
         style="font-size:17.5px"
         id="path936" />
      <path
         d="M 230.37912,159.0574 V 157.8013 H 231.01144 231.62668 V 159.0574 160.30496 H 231.01144 230.37912 Z M 227.87546,152.17874 V 151.54642 H 230.37912 232.88278 V 152.17874 152.80252 H 233.50656 234.13034 V 156.55374 160.30496 H 233.50656 232.88278 V 160.92874 161.54398 H 233.50656 234.13034 V 162.80008 164.04764 H 233.50656 232.88278 V 162.80008 161.54398 H 232.259 231.62668 V 162.1763 162.80008 H 229.75534 227.87546 V 162.1763 161.54398 H 227.25168 226.6279 V 157.17752 152.80252 H 227.25168 227.87546 Z M 232.88278,156.55374 V 152.80252 H 230.37912 227.87546 V 157.17752 161.54398 H 229.75534 231.62668 V 160.92874 160.30496 H 232.259 232.88278 Z"
         style="font-size:17.5px"
         id="path938" />
      <path
         d="M 236.62546,157.17752 V 151.54642 H 239.7529 242.88034 V 152.17874 152.80252 H 243.50412 244.1279 V 154.6824 156.55374 H 243.50412 242.88034 V 157.17752 157.8013 H 242.25656 241.62424 V 158.42508 159.0574 H 242.25656 242.88034 V 159.68118 160.30496 H 243.50412 244.1279 V 161.55252 162.80008 H 243.50412 242.88034 V 161.55252 160.30496 H 242.25656 241.62424 V 159.68118 159.0574 H 241.009 240.37668 V 158.42508 157.8013 H 239.12912 237.87302 V 160.30496 162.80008 H 237.24924 236.62546 Z M 242.88034,154.6824 V 152.80252 H 240.37668 237.87302 V 154.6824 156.55374 H 240.37668 242.88034 Z"
         style="font-size:17.5px"
         id="path940" />
      <path
         d="M 247.87057,152.17874 V 151.54642 H 250.37424 252.8779 V 152.17874 152.80252 H 253.50168 254.12546 V 153.4263 154.05008 H 253.50168 252.8779 V 153.4263 152.80252 H 250.37424 247.87057 V 154.6824 156.55374 H 250.37424 252.8779 V 157.17752 157.8013 H 253.50168 254.12546 V 159.68118 161.55252 H 253.50168 252.8779 V 162.1763 162.80008 H 250.37424 247.87057 V 162.1763 161.55252 H 247.2468 246.62302 V 160.92874 160.30496 H 247.2468 247.87057 V 160.92874 161.55252 H 250.37424 252.8779 V 159.68118 157.8013 H 250.37424 247.87057 V 157.17752 156.55374 H 247.2468 246.62302 V 154.6824 152.80252 H 247.2468 247.87057 Z"
         style="font-size:17.5px"
         id="path942" />
      <path
         d="M 255.37302,152.17874 V 151.54642 H 259.74802 264.12302 V 152.17874 152.80252 H 262.25168 260.3718 V 157.8013 162.80008 H 259.74802 259.12424 V 157.8013 152.80252 H 257.2529 255.37302 Z"
         style="font-size:17.5px"
         id="path944" />
      <path
         d="M 266.61813,156.55374 V 151.55496 H 267.24191 267.86569 V 156.55374 161.55252 H 270.36935 272.87302 V 156.55374 151.55496 H 273.4968 274.12057 V 156.55374 161.55252 H 273.4968 272.87302 V 162.1763 162.80008 H 270.36935 267.86569 V 162.1763 161.55252 H 267.24191 266.61813 Z"
         style="font-size:17.5px"
         id="path946" />
      <path
         d="M 276.61569,154.05008 V 151.55496 H 277.23947 277.86325 V 154.05008 156.55374 H 278.49557 279.1279 V 158.42508 160.30496 H 280.36691 281.62302 V 158.42508 156.55374 H 282.2468 282.87057 V 154.05008 151.55496 H 283.49435 284.11813 V 154.05008 156.55374 H 283.49435 282.87057 V 158.42508 160.30496 H 282.2468 281.62302 V 161.55252 162.80008 H 280.36691 279.1279 V 161.55252 160.30496 H 278.49557 277.86325 V 158.42508 156.55374 H 277.23947 276.61569 Z"
         style="font-size:17.5px"
         id="path948" />
      <path
         d="M 285.36569,155.30618 V 151.55496 H 285.98947 286.61325 V 155.30618 159.04886 H 287.23703 287.86081 V 158.42508 157.80984 H 288.49313 289.12546 V 155.92996 154.05008 H 289.74069 290.36447 V 155.92996 157.80984 H 290.9968 291.61203 V 158.42508 159.04886 H 292.24435 292.86813 V 155.30618 151.55496 H 293.49191 294.11569 V 155.30618 159.04886 H 293.49191 292.86813 V 160.92874 162.80008 H 292.24435 291.61203 V 160.92874 159.04886 H 290.9968 290.36447 V 158.42508 157.80984 H 289.74069 289.12546 V 158.42508 159.04886 H 288.49313 287.86081 V 160.92874 162.80008 H 287.23703 286.61325 V 160.92874 159.04886 H 285.98947 285.36569 Z"
         style="font-size:17.5px"
         id="path950" />
      <path
         d="M 296.61081,152.80252 V 151.54642 H 297.23459 297.85837 V 152.80252 154.05008 H 298.49069 299.12302 V 155.30618 156.55374 H 300.36203 301.61813 V 155.30618 154.05008 H 302.24191 302.86569 V 152.80252 151.54642 H 303.48947 304.11325 V 152.80252 154.05008 H 303.48947 302.86569 V 155.30618 156.55374 H 302.24191 301.61813 V 157.17752 157.8013 H 302.24191 302.86569 V 159.0574 160.30496 H 303.48947 304.11325 V 161.55252 162.80008 H 303.48947 302.86569 V 161.55252 160.30496 H 302.24191 301.61813 V 159.0574 157.8013 H 300.36203 299.12302 V 159.0574 160.30496 H 298.49069 297.85837 V 161.55252 162.80008 H 297.23459 296.61081 V 161.55252 160.30496 H 297.23459 297.85837 V 159.0574 157.8013 H 298.49069 299.12302 V 157.17752 156.55374 H 298.49069 297.85837 V 155.30618 154.05008 H 297.23459 296.61081 Z"
         style="font-size:17.5px"
         id="path952" />
      <path
         d="M 305.36081,152.80252 V 151.54642 H 305.98459 306.60837 V 152.80252 154.05008 H 307.23215 307.85593 V 155.30618 156.55374 H 308.48825 309.12057 V 157.17752 157.8013 H 309.73581 310.35959 V 157.17752 156.55374 H 310.99191 311.60715 V 155.30618 154.05008 H 312.23947 312.86325 V 152.80252 151.54642 H 313.48703 314.11081 V 152.80252 154.05008 H 313.48703 312.86325 V 155.30618 156.55374 H 312.23947 311.60715 V 157.17752 157.8013 H 310.99191 310.35959 V 160.30496 162.80008 H 309.73581 309.12057 V 160.30496 157.8013 H 308.48825 307.85593 V 157.17752 156.55374 H 307.23215 306.60837 V 155.30618 154.05008 H 305.98459 305.36081 Z"
         style="font-size:17.5px"
         id="path954" />
      <path
         d="M 316.60593,152.17874 V 151.54642 H 320.35715 324.10837 V 152.80252 154.05862 H 323.48459 322.86081 V 154.6824 155.30618 H 322.23703 321.60471 V 155.92996 156.55374 H 320.98947 320.35715 V 157.17752 157.80984 H 319.73337 319.11813 V 158.42508 159.0574 H 318.48581 317.85349 V 160.30496 161.55252 H 320.98093 324.10837 V 162.1763 162.80008 H 320.35715 316.60593 V 160.92874 159.0574 H 317.22971 317.85349 V 158.42508 157.80984 H 318.48581 319.11813 V 157.17752 156.55374 H 319.73337 320.35715 V 155.92996 155.30618 H 320.98947 321.60471 V 154.6824 154.05862 H 322.23703 322.86081 V 153.4263 152.80252 H 319.73337 316.60593 Z"
         style="font-size:17.5px"
         id="path956" />
      <path
         d="M 67.91452,176.5574 V 175.93362 H 70.418182 72.921844 V 176.5574 177.18118 H 73.545624 74.169403 V 180.30008 183.42752 H 73.545624 72.921844 V 184.0513 184.67508 H 70.418182 67.91452 V 184.0513 183.42752 H 67.290741 66.666962 V 180.30008 177.18118 H 67.290741 67.91452 Z M 72.921844,180.30008 V 177.18118 H 70.418182 67.91452 V 180.30008 183.42752 H 70.418182 72.921844 Z"
         style="font-size:17.5px"
         id="path958" />
      <path
         d="M 77.912079,174.05374 V 173.42142 H 80.415741 82.919403 V 174.05374 174.67752 H 83.543182 84.166962 V 179.05252 183.42752 H 83.543182 82.919403 V 184.0513 184.67508 H 80.415741 77.912079 V 184.0513 183.42752 H 77.2883 76.66452 V 179.05252 174.67752 H 77.2883 77.912079 Z M 82.919403,179.05252 V 174.67752 H 80.415741 77.912079 V 179.05252 183.42752 H 80.415741 82.919403 Z"
         style="font-size:17.5px"
         id="path960" />
      <path
         d="M 90.4133,177.80496 V 177.18118 H 91.045624 91.660858 V 177.80496 178.42874 H 91.045624 90.4133 V 179.05252 179.68484 H 89.78952 89.165741 V 179.05252 178.42874 H 89.78952 90.4133 Z M 87.909637,174.05374 V 173.42142 H 90.4133 92.916962 V 174.05374 174.67752 H 93.540741 94.173065 V 179.05252 183.42752 H 93.540741 92.916962 V 184.0513 184.67508 H 90.4133 87.909637 V 184.0513 183.42752 H 87.285858 86.662079 V 179.05252 174.67752 H 87.285858 87.909637 Z M 92.916962,175.3013 V 174.67752 H 90.4133 87.909637 V 177.18118 179.68484 H 88.541962 89.165741 V 180.30008 180.9324 H 88.541962 87.909637 V 182.17996 183.42752 H 90.4133 92.916962 V 180.30008 177.18118 H 92.293182 91.660858 V 176.5574 175.93362 H 92.293182 92.916962 Z"
         style="font-size:17.5px"
         id="path962" />
      <path
         d="M 97.907196,174.05374 V 173.42142 H 100.41086 102.91452 V 174.05374 174.67752 H 103.5383 104.16208 V 176.5574 178.42874 H 103.5383 102.91452 V 179.05252 179.6763 H 103.5383 104.16208 V 181.55618 183.42752 H 103.5383 102.91452 V 184.0513 184.67508 H 100.41086 97.907196 V 184.0513 183.42752 H 97.283417 96.659637 V 181.55618 179.6763 H 97.283417 97.907196 V 179.05252 178.42874 H 97.283417 96.659637 V 176.5574 174.67752 H 97.283417 97.907196 Z M 102.91452,176.5574 V 174.67752 H 100.41086 97.907196 V 176.5574 178.42874 H 100.41086 102.91452 Z M 102.91452,181.55618 V 179.6763 H 100.41086 97.907196 V 181.55618 183.42752 H 100.41086 102.91452 Z"
         style="font-size:17.5px"
         id="path964" />
      <path
         d="M 116.65475,176.5574 V 175.93362 H 118.53464 120.40598 V 179.6763 183.42752 H 121.66208 122.90964 V 184.0513 184.67508 H 121.0383 119.15842 V 180.92386 177.18118 H 117.91086 116.65475 Z M 119.15842,173.42996 V 172.17386 H 119.7822 120.40598 V 173.42996 174.67752 H 119.7822 119.15842 Z"
         style="font-size:17.5px"
         id="path966" />
      <path
         d="M 127.90842,174.05374 V 173.42142 H 129.77975 131.65964 V 174.05374 174.67752 H 131.03586 130.40353 V 179.05252 183.42752 H 131.03586 131.65964 V 184.0513 184.67508 H 129.77975 127.90842 V 184.0513 183.42752 H 128.5322 129.15598 V 179.05252 174.67752 H 128.5322 127.90842 Z"
         style="font-size:17.5px"
         id="path968" />
      <path
         d="M 137.90598,172.79764 V 172.1824 H 139.15353 140.40964 V 177.80496 183.42752 H 142.28098 144.15231 V 184.0513 184.67508 H 142.28098 140.40964 V 184.0513 183.42752 H 139.77731 139.15353 V 178.42874 173.42996 H 138.52975 137.90598 Z"
         style="font-size:17.5px"
         id="path970" />
      <path
         d="M 146.64743,179.05252 V 173.42996 H 147.27121 147.89499 V 178.42874 183.42752 H 151.02243 154.14987 V 184.0513 184.67508 H 150.39865 146.64743 Z"
         style="font-size:17.5px"
         id="path972" />
      <path
         d="M 160.39621,174.05374 V 173.42996 H 161.02853 161.65231 V 179.05252 184.67508 H 161.02853 160.39621 V 180.30008 175.93362 H 159.77243 159.1572 V 176.5574 177.18118 H 158.52487 157.89255 V 177.80496 178.42874 H 157.26877 156.64499 V 177.80496 177.18118 H 157.26877 157.89255 V 176.5574 175.93362 H 158.52487 159.1572 V 175.3013 174.67752 H 159.77243 160.39621 Z"
         style="font-size:17.5px"
         id="path974" />
      <path
         d="M 180.39133,172.79764 V 172.1824 H 182.27121 184.14255 V 172.79764 173.42996 H 182.27121 180.39133 V 176.54886 179.68484 H 179.76755 179.14377 V 180.30008 180.9324 H 179.76755 180.39133 V 183.42752 185.93118 H 182.27121 184.14255 V 186.55496 187.17874 H 182.27121 180.39133 V 186.55496 185.93118 H 179.76755 179.14377 V 183.42752 180.9324 H 177.27243 175.39255 V 180.30008 179.68484 H 177.27243 179.14377 V 176.54886 173.42996 H 179.76755 180.39133 Z"
         style="font-size:17.5px"
         id="path976" />
      <path
         d="M 186.63766,172.79764 V 172.1824 H 188.51755 190.38889 V 172.79764 173.42996 H 191.02121 191.63644 V 176.54886 179.68484 H 193.51633 195.38766 V 180.30008 180.9324 H 193.51633 191.63644 V 183.42752 185.93118 H 191.02121 190.38889 V 186.55496 187.17874 H 188.51755 186.63766 V 186.55496 185.93118 H 188.51755 190.38889 V 183.42752 180.9324 H 191.02121 191.63644 V 180.30008 179.68484 H 191.02121 190.38889 V 176.54886 173.42996 H 188.51755 186.63766 Z"
         style="font-size:17.5px"
         id="path978" />
      <path
         d="M 209.13644,179.05252 V 172.1824 H 211.01633 212.88766 V 172.79764 173.42996 H 211.64011 210.384 V 179.05252 184.67508 H 211.64011 212.88766 V 185.29886 185.92264 H 211.01633 209.13644 Z"
         style="font-size:17.5px"
         id="path980" />
      <path
         d="M 217.88644,172.79764 V 172.1824 H 219.75778 221.63766 V 179.05252 185.92264 H 219.75778 217.88644 V 185.29886 184.67508 H 219.134 220.38156 V 179.05252 173.42996 H 219.134 217.88644 Z"
         style="font-size:17.5px"
         id="path982" />
      <path
         d="M 237.87302,176.5574 V 175.93362 H 241.00046 244.13644 V 181.55618 187.17874 H 243.50412 242.88034 V 187.80252 188.4263 H 240.37668 237.87302 V 187.80252 187.17874 H 240.37668 242.88034 V 185.29886 183.42752 H 242.25656 241.63278 V 184.0513 184.67508 H 239.7529 237.87302 V 184.0513 183.42752 H 237.24924 236.62546 V 180.30008 177.18118 H 237.24924 237.87302 Z M 242.88034,179.6763 V 177.18118 H 240.37668 237.87302 V 180.30008 183.42752 H 239.7529 241.63278 V 182.80374 182.17996 H 242.25656 242.88034 Z"
         style="font-size:17.5px"
         id="path984" />
      <path
         d="M 247.87057,174.05374 V 173.42142 H 250.37424 252.8779 V 174.05374 174.67752 H 253.50168 254.12546 V 178.42874 182.17996 H 253.50168 252.8779 V 182.80374 183.42752 H 252.25412 251.63034 V 184.0513 184.67508 H 249.75046 247.87057 V 184.0513 183.42752 H 249.75046 251.63034 V 182.80374 182.17996 H 252.25412 252.8779 V 180.9324 179.6763 H 250.37424 247.87057 V 179.05252 178.42874 H 247.2468 246.62302 V 176.5574 174.67752 H 247.2468 247.87057 Z M 252.8779,176.5574 V 174.67752 H 250.37424 247.87057 V 176.5574 178.42874 H 250.37424 252.8779 Z"
         style="font-size:17.5px"
         id="path986" />
      <path
         d="M 257.86813,176.5574 V 175.93362 H 260.99557 264.13156 V 182.17996 188.4263 H 263.49924 262.87546 V 185.92264 183.42752 H 262.25168 261.6279 V 184.0513 184.67508 H 259.74802 257.86813 V 184.0513 183.42752 H 257.24435 256.62057 V 180.30008 177.18118 H 257.24435 257.86813 Z M 262.87546,179.6763 V 177.18118 H 260.3718 257.86813 V 180.30008 183.42752 H 259.74802 261.6279 V 182.80374 182.17996 H 262.25168 262.87546 Z"
         style="font-size:17.5px"
         id="path988" />
      <path
         d="M 267.86569,174.05374 V 173.42142 H 270.36935 272.87302 V 174.05374 174.67752 H 273.4968 274.12057 V 175.3013 175.92508 H 273.4968 272.87302 V 175.3013 174.67752 H 270.36935 267.86569 V 179.05252 183.42752 H 270.36935 272.87302 V 182.80374 182.17996 H 273.4968 274.12057 V 182.80374 183.42752 H 273.4968 272.87302 V 184.0513 184.67508 H 270.36935 267.86569 V 184.0513 183.42752 H 267.24191 266.61813 V 179.05252 174.67752 H 267.24191 267.86569 Z"
         style="font-size:17.5px"
         id="path990" />
      <path
         d="M 277.86325,174.05374 V 173.42142 H 280.36691 282.87057 V 174.05374 174.67752 H 283.49435 284.11813 V 175.3013 175.92508 H 283.49435 282.87057 V 175.3013 174.67752 H 280.36691 277.86325 V 179.05252 183.42752 H 280.36691 282.87057 V 181.55618 179.6763 H 281.62302 280.36691 V 179.05252 178.42874 H 282.2468 284.11813 V 180.92386 183.42752 H 283.49435 282.87057 V 184.0513 184.67508 H 280.36691 277.86325 V 184.0513 183.42752 H 277.23947 276.61569 V 179.05252 174.67752 H 277.23947 277.86325 Z"
         style="font-size:17.5px"
         id="path992" />
      <path
         d="M 290.36447,180.9324 V 179.6763 H 290.9968 291.61203 V 180.9324 182.17996 H 290.9968 290.36447 Z M 287.86081,174.05374 V 173.42142 H 290.36447 292.86813 V 174.05374 174.67752 H 293.49191 294.11569 V 178.42874 182.17996 H 293.49191 292.86813 V 182.80374 183.41898 H 293.49191 294.11569 V 184.67508 185.92264 H 293.49191 292.86813 V 184.67508 183.41898 H 292.24435 291.61203 V 184.0513 184.67508 H 289.74069 287.86081 V 184.0513 183.41898 H 287.23703 286.61325 V 179.05252 174.67752 H 287.23703 287.86081 Z M 292.86813,178.42874 V 174.67752 H 290.36447 287.86081 V 179.05252 183.41898 H 289.74069 291.61203 V 182.80374 182.17996 H 292.24435 292.86813 Z"
         style="font-size:17.5px"
         id="path994" />
      <path
         d="M 306.60837,177.80496 V 177.18118 H 307.86447 309.11203 V 177.80496 178.42874 H 309.73581 310.35959 V 179.05252 179.68484 H 311.61569 312.86325 V 178.42874 177.18118 H 313.48703 314.11081 V 178.42874 179.68484 H 313.48703 312.86325 V 180.30008 180.9324 H 311.61569 310.35959 V 180.30008 179.68484 H 309.73581 309.11203 V 179.05252 178.42874 H 307.86447 306.60837 V 179.68484 180.9324 H 305.98459 305.36081 V 179.68484 178.42874 H 305.98459 306.60837 Z"
         style="font-size:17.5px"
         id="path996" />
      <path
         d="M 316.60593,179.05252 V 178.42874 H 320.35715 324.10837 V 179.05252 179.6763 H 320.35715 316.60593 Z"
         style="font-size:17.5px"
         id="path998" />
      <path
         d="M 329.10715,176.5574 V 174.67752 H 329.73093 330.35471 V 176.5574 178.42874 H 332.23459 334.10593 V 179.05252 179.6763 H 332.23459 330.35471 V 181.55618 183.42752 H 329.73093 329.10715 V 181.55618 179.6763 H 327.23581 325.35593 V 179.05252 178.42874 H 327.23581 329.10715 Z"
         style="font-size:17.5px"
         id="path1000" />
      <path
         d="M 336.60104,181.55618 V 180.9324 H 340.35226 344.10349 V 181.55618 182.17996 H 340.35226 336.60104 Z M 336.60104,176.5574 V 175.93362 H 340.35226 344.10349 V 176.5574 177.18118 H 340.35226 336.60104 Z"
         style="font-size:17.5px"
         id="path1002" />
      <path
         d="M 346.5986,175.3013 V 174.67752 H 347.22238 347.84616 V 175.3013 175.93362 H 348.47849 349.11081 V 176.5574 177.18118 H 349.72604 350.34982 V 177.80496 178.42874 H 350.98215 351.59738 V 179.05252 179.68484 H 352.22971 352.85349 V 180.30008 180.9324 H 352.22971 351.59738 V 181.55618 182.17996 H 350.98215 350.34982 V 182.80374 183.42752 H 349.72604 349.11081 V 184.0513 184.67508 H 348.47849 347.84616 V 185.29886 185.92264 H 347.22238 346.5986 V 185.29886 184.67508 H 347.22238 347.84616 V 184.0513 183.42752 H 348.47849 349.11081 V 182.80374 182.17996 H 349.72604 350.34982 V 181.55618 180.9324 H 350.98215 351.59738 V 180.30008 179.68484 H 350.98215 350.34982 V 179.05252 178.42874 H 349.72604 349.11081 V 177.80496 177.18118 H 348.47849 347.84616 V 176.5574 175.93362 H 347.22238 346.5986 Z"
         style="font-size:17.5px"
         id="path1004" />
    </g>
  </g>
</svg>
