<?xml version="1.0" encoding="UTF-8" standalone="no"?>
<svg
   version="1.1"
   id="svg2"
   viewBox="0 0 305.28075 108.54125"
   height="30.632753mm"
   width="86.157013mm"
   sodipodi:docname="GoMono Nerd Font.svg"
   xmlns:inkscape="http://www.inkscape.org/namespaces/inkscape"
   xmlns:sodipodi="http://sodipodi.sourceforge.net/DTD/sodipodi-0.dtd"
   xmlns="http://www.w3.org/2000/svg"
   xmlns:svg="http://www.w3.org/2000/svg"
   xmlns:rdf="http://www.w3.org/1999/02/22-rdf-syntax-ns#"
   xmlns:cc="http://creativecommons.org/ns#"
   xmlns:dc="http://purl.org/dc/elements/1.1/">
  <sodipodi:namedview
     id="namedview12"
     pagecolor="#ffffff"
     bordercolor="#666666"
     borderopacity="1.0"
     inkscape:showpageshadow="2"
     inkscape:pageopacity="0.0"
     inkscape:pagecheckerboard="0"
     inkscape:deskcolor="#d1d1d1"
     inkscape:document-units="mm" />
  <defs
     id="defs4" />
  <metadata
     id="metadata7">
    <rdf:RDF>
      <cc:Work
         rdf:about="">
        <dc:format>image/svg+xml</dc:format>
        <dc:type
           rdf:resource="http://purl.org/dc/dcmitype/StillImage" />
        <dc:title />
      </cc:Work>
    </rdf:RDF>
  </metadata>
  <g
     id="layer1"
     transform="translate(-63.850796,-79.731239)">
    <g
       aria-label="GoMono Nerd Font"
       id="text4136"
       style="font-size:27.5px;font-family:'GoMono Nerd Font';letter-spacing:0px;word-spacing:0px;fill:#ffffff">
      <path
         d="M 77.372524,99.93998 Q 74.928677,101.43046 72.229702,101.43046 68.255093,101.43046 66.052944,98.664345 63.850796,95.911659 63.850796,90.903114 63.850796,85.894569 65.95895,83.22245 68.080532,80.550331 72.095425,80.550331 74.418423,80.550331 77.050259,81.382851 V 85.827431 H 75.398647 L 75.009243,82.92704 Q 73.478481,82.201942 72.149136,82.201942 66.710903,82.201942 66.710903,91.037392 66.710903,95.159706 68.255093,97.38871 69.799282,99.671425 72.53854,99.671425 73.585903,99.671425 74.713833,99.241737 V 93.722939 H 72.404263 V 92.071327 H 77.372524 Z"
         id="path14" />
      <path
         d="M 87.604458,86.028847 Q 90.759975,86.028847 92.559292,88.056435 94.372036,90.084023 94.372036,93.628944 94.372036,97.227577 92.559292,99.241737 90.746548,101.26933 87.497036,101.26933 84.74435,101.26933 83.012173,99.590858 80.850307,97.50956 80.850307,93.642372 80.850307,90.084023 82.663052,88.056435 84.475796,86.028847 87.604458,86.028847 Z M 87.604458,87.680458 Q 83.710415,87.680458 83.710415,93.615517 83.710415,99.617714 87.604458,99.617714 91.511929,99.617714 91.511929,93.615517 91.511929,87.680458 87.604458,87.680458 Z"
         id="path16" />
      <path
         d="M 96.198208,100.93363 V 99.282021 H 97.352993 V 82.712196 H 96.198208 V 81.060585 H 100.02511 L 104.134,94.730019 H 104.16085 L 108.41745,81.060585 H 112.02951 V 82.712196 H 110.87472 V 99.282021 H 112.02951 V 100.93363 H 107.73263 V 99.282021 H 108.69943 V 85.787148 H 108.67257 L 104.7651,98.328651 H 102.95236 L 99.044888,85.276894 H 99.018032 V 99.282021 H 100.17282 V 100.93363 Z"
         id="path18" />
      <path
         d="M 120.60983,86.028847 Q 123.76535,86.028847 125.56466,88.056435 127.37741,90.084023 127.37741,93.628944 127.37741,97.227577 125.56466,99.241737 123.75192,101.26933 120.50241,101.26933 117.74972,101.26933 116.01754,99.590858 113.85568,97.50956 113.85568,93.642372 113.85568,90.084023 115.66842,88.056435 117.48117,86.028847 120.60983,86.028847 Z M 120.60983,87.680458 Q 116.71579,87.680458 116.71579,93.615517 116.71579,99.617714 120.60983,99.617714 124.5173,99.617714 124.5173,93.615517 124.5173,87.680458 120.60983,87.680458 Z"
         id="path20" />
      <path
         d="M 129.96896,100.93363 V 99.282021 H 131.44601 V 88.016151 H 129.83468 V 86.351112 H 134.1047 V 89.170937 Q 135.03122,87.761024 135.9443,87.049355 137.23336,86.028847 138.83126,86.028847 142.87301,86.028847 142.87301,91.238808 V 99.282021 H 144.48434 V 100.93363 H 140.22775 V 91.467079 Q 140.22775,88.016151 138.03903,88.016151 136.02487,88.016151 134.1047,91.480507 V 99.282021 H 135.44748 V 100.93363 Z"
         id="path22" />
      <path
         d="M 153.6152,86.028847 Q 156.77072,86.028847 158.57003,88.056435 160.38278,90.084023 160.38278,93.628944 160.38278,97.227577 158.57003,99.241737 156.75729,101.26933 153.50778,101.26933 150.75509,101.26933 149.02291,99.590858 146.86105,97.50956 146.86105,93.642372 146.86105,90.084023 148.67379,88.056435 150.48654,86.028847 153.6152,86.028847 Z M 153.6152,87.680458 Q 149.72116,87.680458 149.72116,93.615517 149.72116,99.617714 153.6152,99.617714 157.52267,99.617714 157.52267,93.615517 157.52267,87.680458 153.6152,87.680458 Z"
         id="path24" />
      <path
         d="M 179.36959,100.93363 V 99.282021 H 180.86007 V 82.712196 H 179.36959 V 81.060585 H 182.51168 L 190.7026,95.495399 H 190.72946 V 82.712196 H 189.25241 V 81.060585 H 193.88498 V 82.712196 H 192.3945 V 100.93363 H 190.72946 L 182.55197,86.48539 H 182.51168 V 99.282021 H 184.00216 V 100.93363 Z"
         id="path26" />
      <path
         d="M 209.71627,94.139198 H 199.36349 Q 199.55148,95.951942 199.91403,96.757607 201.13595,99.510292 204.64059,99.510292 206.80246,99.510292 209.32687,98.10038 V 100.10111 Q 206.97702,101.26933 204.29147,101.26933 200.81369,101.26933 198.66525,99.134315 196.53024,96.999306 196.53024,93.53495 196.53024,90.164589 198.51754,88.096718 200.49142,86.028847 203.74093,86.028847 209.71627,86.028847 209.71627,93.320107 Z M 199.39035,92.487587 H 206.89645 V 91.869911 Q 206.89645,87.680458 203.55294,87.680458 201.48507,87.680458 200.35714,89.332069 199.56491,90.486855 199.39035,92.487587 Z"
         id="path28" />
      <path
         d="M 218.49801,91.507362 V 99.282021 H 223.332 V 100.93363 H 212.49582 V 99.282021 H 215.85275 V 88.016151 H 212.37497 V 86.351112 H 218.49801 V 89.184364 Q 219.49166,87.761024 220.39132,87.049355 221.68039,86.028847 223.17086,86.028847 224.75534,86.028847 226.23239,86.941933 V 90.916542 H 224.56735 L 224.29879,88.821815 Q 223.54684,88.338417 222.71432,88.338417 220.24362,88.338417 218.49801,91.507362 Z"
         id="path30" />
      <path
         d="M 239.24386,81.382851 H 235.94064 V 79.731239 H 241.90255 V 99.282021 H 243.55416 V 100.93363 H 239.24386 V 97.952675 Q 238.23678,99.443153 237.29684,100.19511 235.92721,101.26933 234.32931,101.26933 232.11374,101.26933 230.74411,99.335732 229.37448,97.415565 229.37448,94.24662 229.37448,90.419716 231.18722,88.230995 232.98654,86.028847 236.18234,86.028847 237.35055,86.028847 239.24386,86.351112 Z M 239.24386,88.08329 Q 237.41769,87.78788 236.38375,87.78788 234.16818,87.78788 233.17453,89.224648 232.1943,90.647987 232.1943,94.166054 232.1943,99.282021 235.06784,99.282021 237.26999,99.282021 239.24386,96.139931 Z"
         id="path32" />
      <path
         d="M 268.00607,99.282021 H 271.65841 V 100.93363 H 262.37985 V 99.282021 H 265.36081 V 82.712196 H 262.37985 V 81.060585 H 276.14328 V 86.028847 H 274.49166 V 82.712196 H 268.00607 V 90.500282 H 272.00753 V 88.835243 H 273.65915 V 93.816933 H 272.00753 V 92.151894 H 268.00607 Z"
         id="path34" />
      <path
         d="M 285.63668,86.028847 Q 288.7922,86.028847 290.59152,88.056435 292.40426,90.084023 292.40426,93.628944 292.40426,97.227577 290.59152,99.241737 288.77877,101.26933 285.52926,101.26933 282.77658,101.26933 281.0444,99.590858 278.88253,97.50956 278.88253,93.642372 278.88253,90.084023 280.69528,88.056435 282.50802,86.028847 285.63668,86.028847 Z M 285.63668,87.680458 Q 281.74264,87.680458 281.74264,93.615517 281.74264,99.617714 285.63668,99.617714 289.54416,99.617714 289.54416,93.615517 289.54416,87.680458 285.63668,87.680458 Z"
         id="path36" />
      <path
         d="M 294.99582,100.93363 V 99.282021 H 296.47287 V 88.016151 H 294.86154 V 86.351112 H 299.13156 V 89.170937 Q 300.05807,87.761024 300.97116,87.049355 302.26022,86.028847 303.85812,86.028847 307.89987,86.028847 307.89987,91.238808 V 99.282021 H 309.5112 V 100.93363 H 305.2546 V 91.467079 Q 305.2546,88.016151 303.06588,88.016151 301.05172,88.016151 299.13156,91.480507 V 99.282021 H 300.47433 V 100.93363 Z"
         id="path38" />
      <path
         d="M 324.25485,100.11454 Q 322.03927,101.26933 319.74313,101.26933 317.58126,101.26933 316.65475,100.26225 315.72824,99.268593 315.72824,96.918739 V 88.512978 H 311.99533 V 86.686806 H 315.72824 V 82.913612 H 318.3735 V 86.686806 H 324.09372 V 88.512978 H 318.3735 V 95.723671 Q 318.3735,97.872108 318.80319,98.570351 319.23288,99.282021 320.50851,99.282021 321.93185,99.282021 324.25485,98.248085 Z"
         id="path40" />
    </g>
    <g
       aria-label="abcdefghijklmnopqrstuvwxyzABCDEFGHIJKLMNOPQRSTUVWXYZ oO08 iIlL1 {} [] g9qCGQ ~-+=&gt;"
       id="text4140"
       style="font-size:17.5px;font-family:'GoMono Nerd Font';letter-spacing:0px;word-spacing:0px;fill:#ffffff">
      <path
         d="M 72.545868,139.91678 Q 71.067596,141.14725 69.5466,141.14725 68.239227,141.14725 67.461639,140.41238 66.684052,139.68607 66.684052,138.42996 66.684052,136.80643 67.89743,136.07156 69.110809,135.34525 71.81955,135.34525 H 72.545868 V 133.9097 Q 72.545868,132.49979 70.802704,132.49979 69.922577,132.49979 68.606659,132.99539 L 68.393036,134.0806 H 67.34201 V 132.23489 Q 69.298798,131.44022 71.332489,131.44022 72.947479,131.44022 73.588348,131.99564 74.229218,132.5596 74.229218,133.93533 V 139.8826 H 75.391327 V 140.93362 H 72.716766 Z M 72.545868,138.63504 V 136.39627 H 72.092987 Q 70.127655,136.39627 69.298798,136.84061 68.478485,137.28494 68.478485,138.51541 68.478485,140.02786 70.067841,140.02786 71.323944,140.02786 72.545868,138.63504 Z"
         id="path43" />
      <path
         d="M 79.193817,140.93362 H 77.501923 V 128.49222 H 76.450897 V 127.44119 H 79.193817 V 133.55081 Q 79.834686,132.60233 80.441376,132.13235 81.312958,131.44876 82.321259,131.44876 83.731171,131.44876 84.602753,132.67068 85.474335,133.90115 85.474335,135.90921 85.474335,138.35306 84.32077,139.74588 83.175751,141.14725 81.167694,141.14725 80.415741,141.14725 79.193817,140.93362 Z M 79.193817,139.83133 Q 80.355927,140.02786 81.005341,140.02786 82.432343,140.02786 83.056122,139.11356 83.679901,138.19925 83.679901,135.99466 83.679901,132.81595 81.851288,132.81595 80.449921,132.81595 79.193817,134.81546 Z"
         id="path45" />
      <path
         d="M 95.907684,140.54056 Q 94.523407,141.14725 92.540985,141.14725 90.122772,141.14725 88.738495,139.79715 87.362762,138.44705 87.362762,136.19119 87.362762,133.96951 88.71286,132.71341 90.054413,131.44876 92.506805,131.44876 94.326874,131.44876 95.7966,131.91019 V 134.55911 H 94.73703 L 94.437958,132.87576 Q 93.404022,132.49979 92.412811,132.49979 90.908905,132.49979 90.020233,133.50809 89.199921,134.51639 89.199921,136.21683 89.199921,138.09671 90.122772,139.06229 91.113983,140.02786 92.874237,140.02786 94.309784,140.02786 95.907684,139.33572 Z"
         id="path47" />
      <path
         d="M 104.15353,128.49222 H 102.05148 V 127.44119 H 105.84543 V 139.8826 H 106.89645 V 140.93362 H 104.15353 V 139.03665 Q 103.51266,139.98514 102.91452,140.46365 102.04294,141.14725 101.02609,141.14725 99.61618,141.14725 98.744598,139.91678 97.873016,138.69485 97.873016,136.67825 97.873016,134.24295 99.026581,132.85013 100.1716,131.44876 102.20529,131.44876 102.9487,131.44876 104.15353,131.65384 Z M 104.15353,132.75613 Q 102.99142,132.56815 102.33347,132.56815 100.92355,132.56815 100.29123,133.48245 99.66745,134.38821 99.66745,136.62698 99.66745,139.8826 101.49606,139.8826 102.89743,139.8826 104.15353,137.88309 Z"
         id="path49" />
      <path
         d="M 116.86838,136.60989 H 110.28024 Q 110.39987,137.76346 110.63058,138.27615 111.40817,140.02786 113.6384,140.02786 115.01413,140.02786 116.62057,139.13065 V 140.40384 Q 115.12521,141.14725 113.41623,141.14725 111.20309,141.14725 109.83591,139.7886 108.47726,138.42996 108.47726,136.22537 108.47726,134.0806 109.74191,132.76468 110.99802,131.44876 113.06589,131.44876 116.86838,131.44876 116.86838,136.08865 Z M 110.29733,135.55887 H 115.07394 V 135.1658 Q 115.07394,132.49979 112.94626,132.49979 111.63034,132.49979 110.91257,133.55081 110.40842,134.28568 110.29733,135.55887 Z"
         id="path51" />
      <path
         d="M 119.28659,140.93362 V 139.8826 H 121.50827 V 133.20047 H 119.1926 V 132.03836 H 121.50827 V 130.85916 Q 121.50827,128.93655 122.28586,128.08206 123.06345,127.22757 124.78952,127.22757 126.2507,127.22757 127.89987,127.91116 V 130.02176 H 126.84885 L 126.58395,128.68875 Q 125.72092,128.28714 125.01169,128.28714 123.99484,128.28714 123.60178,128.79984 123.20016,129.31253 123.20016,130.67117 V 132.03836 H 126.99411 V 133.20047 H 123.20016 V 139.8826 H 125.93454 V 140.93362 Z"
         id="path53" />
      <path
         d="M 137.35056,132.70486 V 139.60916 Q 137.35056,140.20731 137.32492,140.80545 137.30783,141.39505 137.1882,141.94193 137.06857,142.4888 136.82077,142.95877 136.57297,143.42874 136.12009,143.77054 135.67575,144.12088 134.99216,144.31741 134.30856,144.52249 133.31735,144.52249 132.58249,144.52249 131.71091,144.40286 130.84787,144.29178 129.97629,143.94998 V 141.83939 H 131.02731 L 131.24948,143.0015 Q 131.42892,143.08694 131.66818,143.17239 131.91599,143.25784 132.18942,143.31766 132.46286,143.38602 132.75339,143.4202 133.04391,143.46292 133.33444,143.46292 133.90695,143.46292 134.30002,143.3262 134.70163,143.19803 134.95798,142.95877 135.21432,142.72806 135.35104,142.40335 135.49631,142.07864 135.56467,141.68558 135.63303,141.30106 135.64157,140.86526 135.65866,140.42947 135.65866,139.96805 V 138.26761 Q 135.00925,139.23318 134.41965,139.69461 133.53952,140.3782 132.53122,140.3782 131.12131,140.3782 130.24973,139.14774 129.37814,137.93436 129.37814,136.25101 129.37814,135.19998 129.66013,134.37967 129.95065,133.55081 130.53171,132.85013 131.67673,131.44876 133.71896,131.44876 134.29147,131.44876 134.74435,131.50858 135.19724,131.56839 135.65866,131.65384 H 138.3674 V 132.70486 Z M 135.65866,132.90994 Q 135.06906,132.81595 134.61618,132.76468 134.1633,132.71341 133.83859,132.71341 132.42868,132.71341 131.79636,133.62772 131.48019,134.08914 131.32639,134.69583 131.17258,135.30252 131.17258,136.15701 131.17258,139.00247 133.00119,139.00247 134.40256,139.00247 135.65866,137.00296 Z"
         id="path55" />
      <path
         d="M 139.63205,140.93362 V 139.8826 H 140.57199 V 128.49222 H 139.52097 V 127.44119 H 142.26389 V 133.44827 Q 142.85349,132.55106 143.43454,132.09818 144.25485,131.44876 145.2717,131.44876 147.84372,131.44876 147.84372,134.76419 V 139.8826 H 148.90329 V 140.93362 H 146.16037 V 134.90945 Q 146.16037,132.71341 144.76755,132.71341 143.48581,132.71341 142.26389,134.918 V 139.8826 H 143.21237 V 140.93362 Z"
         id="path57" />
      <path
         d="M 150.69772,140.93362 V 139.8826 H 154.03024 V 132.71341 H 150.69772 V 131.65384 H 155.71359 V 139.8826 H 158.87521 V 140.93362 Z M 153.7739,129.55179 V 127.44119 H 155.84177 V 129.55179 Z"
         id="path59" />
      <path
         d="M 161.29343,143.87308 V 141.14725 H 162.34445 L 162.60934,143.01004 Q 163.1904,143.46292 163.86545,143.46292 164.99338,143.46292 165.47189,142.64261 165.95895,141.8223 165.95895,139.84842 V 132.71341 H 162.16501 V 131.65384 H 167.65085 V 140.36966 Q 167.65085,142.33499 166.68527,143.42874 165.7197,144.52249 164.00217,144.52249 162.81442,144.52249 161.29343,143.87308 Z M 165.68552,129.55179 V 127.44119 H 167.75339 V 129.55179 Z"
         id="path61" />
      <path
         d="M 177.45187,140.93362 V 139.8826 L 174.01682,136.45609 H 173.81174 V 139.8826 H 174.65768 V 140.93362 H 171.06882 V 139.8826 H 172.11984 V 128.49222 H 171.06882 V 127.44119 H 173.81174 V 135.87503 H 174.01682 L 177.0759,132.71341 H 176.08469 V 131.65384 H 179.77609 V 132.71341 H 178.57126 L 175.46945,135.80667 179.63937,139.8826 H 180.48532 V 140.93362 Z"
         id="path63" />
      <path
         d="M 190.46579,140.41238 Q 189.04733,141.14725 187.5947,141.14725 186.80856,141.14725 186.27878,140.95926 185.75754,140.77982 185.44138,140.38675 185.13376,139.98514 184.99704,139.36136 184.86887,138.73758 184.86887,137.866 V 128.49222 H 181.70724 V 127.44119 H 186.55222 V 137.30203 Q 186.55222,138.09671 186.61203,138.60086 186.67184,139.10501 186.84274,139.38699 187.02219,139.66898 187.34689,139.77151 187.6716,139.87405 188.20993,139.87405 189.2695,139.87405 190.46579,139.21609 Z"
         id="path65" />
      <path
         d="M 192.2944,140.93362 V 132.71341 H 191.66208 V 131.65384 H 193.82394 V 133.50809 Q 194.39645,132.3118 194.76389,131.91873 195.20822,131.44876 195.85764,131.44876 196.71213,131.44876 197.10519,132.24344 197.31027,132.67068 197.40427,133.50809 197.76315,132.53397 198.16476,132.08963 198.72873,131.44876 199.49777,131.44876 201.09567,131.44876 201.09567,133.78152 V 139.8826 H 201.69382 V 140.93362 H 199.56613 V 134.50784 Q 199.56613,132.71341 199.01071,132.71341 198.60056,132.71341 198.09641,133.46536 197.83151,133.88406 197.68625,134.24295 197.46408,134.79837 197.46408,135.02908 V 139.8826 H 198.06223 V 140.93362 H 195.93454 V 134.11478 Q 195.93454,132.71341 195.37057,132.71341 194.62717,132.71341 193.82394,135.02908 V 139.8826 H 194.42209 V 140.93362 Z"
         id="path67" />
      <path
         d="M 202.6423,140.93362 V 139.8826 H 203.58224 V 132.71341 H 202.55685 V 131.65384 H 205.27414 V 133.44827 Q 205.86374,132.55106 206.44479,132.09818 207.26511,131.44876 208.28195,131.44876 210.85397,131.44876 210.85397,134.76419 V 139.8826 H 211.87936 V 140.93362 H 209.17062 V 134.90945 Q 209.17062,132.71341 207.7778,132.71341 206.49606,132.71341 205.27414,134.918 V 139.8826 H 206.12863 V 140.93362 Z"
         id="path69" />
      <path
         d="M 217.68991,131.44876 Q 219.69797,131.44876 220.84299,132.73904 221.99655,134.02933 221.99655,136.28519 221.99655,138.57523 220.84299,139.85696 219.68942,141.14725 217.62155,141.14725 215.86984,141.14725 214.76755,140.07913 213.39182,138.75467 213.39182,136.29373 213.39182,134.02933 214.54538,132.73904 215.69894,131.44876 217.68991,131.44876 Z M 217.68991,132.49979 Q 215.21188,132.49979 215.21188,136.27664 215.21188,140.09622 217.68991,140.09622 220.17648,140.09622 220.17648,136.27664 220.17648,132.49979 217.68991,132.49979 Z"
         id="path71" />
      <path
         d="M 226.21774,143.25784 H 228.32834 V 144.30887 H 223.47482 V 143.25784 H 224.52585 V 132.71341 H 223.47482 V 131.65384 H 226.21774 V 133.55081 Q 226.85861,132.60233 227.4653,132.13235 228.33688,131.44876 229.34518,131.44876 230.7551,131.44876 231.62668,132.67068 232.49826,133.90115 232.49826,135.90921 232.49826,138.35306 231.3447,139.74588 230.19968,141.14725 228.19162,141.14725 227.43967,141.14725 226.21774,140.93362 Z M 226.21774,139.68607 Q 227.37985,139.8826 228.02927,139.8826 229.45627,139.8826 230.08005,138.96829 230.70383,138.05399 230.70383,135.90067 230.70383,132.71341 228.87521,132.71341 227.47385,132.71341 226.21774,134.81546 Z"
         id="path73" />
      <path
         d="M 240.67575,139.03665 Q 240.03488,139.98514 239.43674,140.46365 238.56516,141.14725 237.54831,141.14725 236.1384,141.14725 235.26682,139.91678 234.39523,138.69485 234.39523,136.67825 234.39523,134.24295 235.5488,132.85013 236.69382,131.44876 238.73605,131.44876 L 240.67575,131.65384 H 242.36765 V 143.25784 H 243.41867 V 144.30887 H 238.5737 V 143.2493 H 240.67575 Z M 240.67575,132.90994 Q 239.51364,132.71341 238.85568,132.71341 237.44577,132.71341 236.81345,133.62772 236.18967,134.54202 236.18967,136.58426 236.18967,139.77151 238.01828,139.77151 239.41965,139.77151 240.67575,137.772 Z"
         id="path75" />
      <path
         d="M 248.47726,134.93509 V 139.8826 H 251.55344 V 140.93362 H 244.65768 V 139.8826 H 246.79391 V 132.71341 H 244.58078 V 131.65384 H 248.47726 V 133.45682 Q 249.10959,132.55106 249.6821,132.09818 250.50241,131.44876 251.4509,131.44876 252.4592,131.44876 253.39914,132.02982 V 134.55911 H 252.33957 L 252.16867,133.2261 Q 251.69016,132.91849 251.16037,132.91849 249.5881,132.91849 248.47726,134.93509 Z"
         id="path77" />
      <path
         d="M 255.92844,140.41238 V 137.87454 H 256.97946 L 257.19308,139.43826 Q 258.86789,140.08768 260.03854,140.08768 262.07224,140.08768 262.07224,138.65213 262.07224,138.08817 261.73044,137.78055 261.38864,137.46439 260.50851,137.23367 L 258.76535,136.77225 Q 257.30417,136.38773 256.63766,135.76395 255.97971,135.15726 255.97971,134.14896 255.97971,131.44022 259.67111,131.44022 261.55954,131.44022 263.10617,132.05545 V 134.4993 H 262.05515 L 261.84152,132.95267 Q 260.91013,132.49979 259.66257,132.49979 258.72263,132.49979 258.20139,132.79886 257.58615,133.1492 257.58615,133.87552 257.58615,134.83255 259.34641,135.29398 L 261.07248,135.74686 Q 262.50803,136.12283 263.13181,136.70389 263.74704,137.2764 263.74704,138.25906 263.74704,139.60062 262.69601,140.36966 261.64499,141.14725 259.76511,141.14725 257.83395,141.14725 255.92844,140.41238 Z"
         id="path79" />
      <path
         d="M 273.77023,140.41238 Q 272.36032,141.14725 270.89914,141.14725 269.52341,141.14725 268.93381,140.50638 268.34421,139.87405 268.34421,138.37869 V 133.02957 H 265.96872 V 131.86746 H 268.34421 V 129.46634 H 270.02756 V 131.86746 H 273.66769 V 133.02957 H 270.02756 V 137.61819 Q 270.02756,138.98538 270.30099,139.42972 270.57443,139.8826 271.3862,139.8826 272.29196,139.8826 273.77023,139.22464 Z"
         id="path81" />
      <path
         d="M 281.72556,131.65384 H 284.36594 V 139.8826 H 285.41696 V 140.93362 H 282.67404 V 139.14774 Q 282.08444,140.04495 281.50339,140.49783 280.68307,141.14725 279.66623,141.14725 277.08566,141.14725 277.08566,137.83182 V 132.71341 H 276.03464 V 131.65384 H 278.77756 V 137.68655 Q 278.77756,139.86551 280.17038,139.86551 281.44357,139.86551 282.67404,137.66946 V 132.71341 H 281.72556 Z"
         id="path83" />
      <path
         d="M 290.34738,140.93362 287.05759,132.71341 H 286.42526 V 131.65384 H 290.24484 V 132.71341 H 288.87766 L 291.53513,139.36136 H 291.55222 L 294.20969,132.71341 H 292.8425 V 131.65384 H 295.97849 V 132.71341 H 295.34616 L 292.05637,140.93362 Z"
         id="path85" />
      <path
         d="M 298.52487,140.93362 297.07224,132.71341 H 296.65353 V 131.65384 H 299.311 V 132.71341 H 298.57614 L 299.67844,138.89993 H 299.69553 L 301.20798,133.04666 H 302.63498 L 304.15598,138.92557 H 304.17307 L 305.28391,132.71341 H 304.4465 V 131.65384 H 306.77072 V 132.71341 H 306.35202 L 304.89938,140.93362 H 303.25021 L 301.72067,134.92654 H 301.70358 L 300.14841,140.93362 Z"
         id="path87" />
      <path
         d="M 307.57394,140.93362 V 139.8826 H 308.51389 L 311.34225,136.29373 308.51389,132.71341 H 307.46286 V 131.65384 H 311.20554 V 132.71341 H 310.46213 L 312.69235,135.54178 314.91403,132.71341 H 314.03391 V 131.65384 H 317.11862 V 132.71341 H 316.11887 L 313.2905,136.30228 316.11032,139.8826 H 317.11862 V 140.93362 H 313.31613 V 139.8826 H 314.16208 L 312.00021,137.13968 309.84689,139.8826 H 310.70139 V 140.93362 Z"
         id="path89" />
      <path
         d="M 321.85251,140.93362 318.56271,132.71341 H 317.93039 V 131.65384 H 321.74997 V 132.71341 H 320.38278 L 323.04025,139.36136 H 323.05734 L 325.71481,132.71341 H 324.34763 V 131.65384 H 327.48361 V 132.71341 H 326.85129 L 323.56149,140.93362 322.63864,143.2493 H 323.90329 V 144.30887 H 319.81027 V 143.2493 H 321.50217 L 322.42502,140.93362 Z"
         id="path91" />
      <path
         d="M 329.01315,140.93362 V 139.8826 L 334.9946,132.71341 H 330.38034 V 134.39676 H 329.32932 V 131.65384 H 336.98557 V 132.71341 L 331.08102,139.81424 H 336.24216 V 138.14798 H 337.30173 V 140.93362 Z"
         id="path93" />
      <path
         d="M 68.213593,159.01468 67.367645,161.7576 H 68.589569 V 162.80862 H 65.633026 V 161.7576 H 66.26535 L 69.862762,150.16214 H 71.477753 L 75.06662,161.7576 H 75.698944 V 162.80862 H 71.964813 V 161.7576 H 73.306366 L 72.451874,159.01468 Z M 68.546844,157.95511 H 72.127167 L 70.349823,152.18729 H 70.332733 Z"
         id="path95" />
      <path
         d="M 78.031708,161.7576 V 151.21317 H 76.553436 V 150.16214 H 81.834198 Q 85.029999,150.16214 85.029999,152.93924 85.029999,154.37479 84.158417,155.272 83.645721,155.81033 82.6716,156.22049 83.509003,156.44266 83.936249,156.69901 85.423065,157.59622 85.423065,159.58719 85.423065,162.80862 81.62912,162.80862 H 76.553436 V 161.7576 Z M 79.715057,161.68924 H 81.10788 Q 83.628632,161.68924 83.628632,159.45901 83.628632,158.25418 82.799774,157.51932 81.979462,156.793 80.543915,156.793 H 79.715057 Z M 79.715057,155.74197 H 80.55246 Q 83.22702,155.74197 83.22702,153.07596 83.22702,151.21317 81.424042,151.21317 H 79.715057 Z"
         id="path97" />
      <path
         d="M 96.052948,162.1763 Q 94.284149,163.12479 92.737518,163.12479 90.268036,163.12479 88.875214,161.36453 87.473846,159.60428 87.473846,156.41702 87.473846,153.26395 88.806854,151.55496 90.139862,149.84598 92.617889,149.84598 94.019257,149.84598 95.873505,150.39285 V 153.19559 H 94.822479 L 94.574677,151.34988 Q 93.6091,150.897 92.660614,150.897 91.062714,150.897 90.174042,152.40091 89.293915,153.89627 89.293915,156.53665 89.293915,159.09158 90.276581,160.56985 91.267792,162.0054 92.959686,162.0054 94.463593,162.0054 96.052948,160.8262 Z"
         id="path99" />
      <path
         d="M 97.343231,162.80862 V 161.7576 H 98.60788 V 151.21317 H 97.343231 V 150.16214 H 101.70114 Q 106.89645,150.16214 106.89645,156.18631 106.89645,159.2283 105.52927,161.02274 104.16208,162.80862 101.85495,162.80862 Z M 100.29977,161.68924 H 101.30807 Q 105.07639,161.68924 105.07639,156.36575 105.07639,153.72537 104.1279,152.46927 103.17087,151.21317 101.18845,151.21317 H 100.29977 Z"
         id="path101" />
      <path
         d="M 108.05856,162.80862 V 161.7576 H 109.63937 V 151.21317 H 108.05856 V 150.16214 H 116.44968 V 153.19559 H 115.39865 V 151.21317 H 111.33127 V 155.85306 H 113.81784 V 154.79349 H 114.86887 V 157.96365 H 113.81784 V 156.90408 H 111.33127 V 161.68924 H 115.81735 V 159.57864 H 116.87692 V 162.80862 Z"
         id="path103" />
      <path
         d="M 122.45676,161.7576 H 124.78098 V 162.80862 H 118.87643 V 161.7576 H 120.77341 V 151.21317 H 118.87643 V 150.16214 H 127.63498 V 153.32376 H 126.58395 V 151.21317 H 122.45676 V 156.16922 H 125.00314 V 155.10965 H 126.05417 V 158.27982 H 125.00314 V 157.22025 H 122.45676 Z"
         id="path105" />
      <path
         d="M 137.66672,162.1763 Q 136.11154,163.12479 134.39401,163.12479 131.86472,163.12479 130.46335,161.36453 129.06198,159.61282 129.06198,156.42557 129.06198,153.23831 130.40353,151.53787 131.75363,149.83743 134.30856,149.83743 135.78683,149.83743 137.46164,150.36722 V 153.19559 H 136.41061 L 136.16281,151.34988 Q 135.18869,150.88846 134.34274,150.88846 130.88205,150.88846 130.88205,156.51102 130.88205,159.13431 131.86472,160.55276 132.84738,162.0054 134.59055,162.0054 135.25705,162.0054 135.97482,161.73196 V 158.22 H 134.5051 V 157.16898 H 137.66672 Z"
         id="path107" />
      <path
         d="M 142.09299,156.80154 V 161.7576 H 142.93893 V 162.80862 H 139.46115 V 161.7576 H 140.40964 V 151.21317 H 139.46115 V 150.16214 H 142.93893 V 151.21317 H 142.09299 V 155.74197 H 146.27145 V 151.21317 H 145.42551 V 150.16214 H 148.91183 V 151.21317 H 147.96335 V 161.7576 H 148.91183 V 162.80862 H 145.42551 V 161.7576 H 146.27145 V 156.80154 Z"
         id="path109" />
      <path
         d="M 150.80026,162.80862 V 161.7576 H 153.83371 V 151.21317 H 150.80026 V 150.16214 H 158.55905 V 151.21317 H 155.5256 V 161.7576 H 158.55905 V 162.80862 Z"
         id="path111" />
      <path
         d="M 160.88327,162.54373 V 159.01468 H 161.9343 L 162.26755,161.5867 Q 163.23312,162.0054 163.92526,162.0054 164.91647,162.0054 165.35226,161.53543 165.7966,161.07401 165.7966,160.05716 V 151.21317 H 162.42136 V 150.16214 H 169.70163 V 151.21317 H 167.47995 V 159.71536 Q 167.47995,161.54398 166.69382,162.33011 165.90768,163.12479 164.09616,163.12479 162.74606,163.12479 160.88327,162.54373 Z"
         id="path113" />
      <path
         d="M 171.06882,162.80862 V 161.7576 H 172.17966 V 151.21317 H 171.06882 V 150.16214 H 174.76022 V 151.21317 H 173.86301 V 156.34866 H 173.92282 L 177.59714,151.21317 H 176.64865 V 150.16214 H 179.69064 V 151.21317 H 178.90451 L 175.51218,155.87869 180.03244,161.7576 H 180.66476 V 162.80862 H 177.03317 V 161.7576 H 177.98166 L 173.92282,156.48538 H 173.86301 V 161.7576 H 174.91403 V 162.80862 Z"
         id="path115" />
      <path
         d="M 190.77341,162.80862 H 181.67307 V 161.7576 H 183.78366 V 151.21317 H 181.67307 V 150.16214 H 187.47507 V 151.21317 H 185.46701 V 161.68924 H 189.72238 V 158.74124 H 190.77341 Z"
         id="path117" />
      <path
         d="M 191.65353,162.80862 V 161.7576 H 192.3884 V 151.21317 H 191.65353 V 150.16214 H 194.08884 L 196.70358,158.86087 H 196.72067 L 199.42941,150.16214 H 201.728 V 151.21317 H 200.99313 V 161.7576 H 201.728 V 162.80862 H 198.99362 V 161.7576 H 199.60886 V 153.16995 H 199.59177 L 197.10519,161.15091 H 195.95163 L 193.46506,152.84525 H 193.44797 V 161.7576 H 194.18283 V 162.80862 Z"
         id="path119" />
      <path
         d="M 202.57394,162.80862 V 161.7576 H 203.52243 V 151.21317 H 202.57394 V 150.16214 H 204.57346 L 209.78586,159.34793 H 209.80295 V 151.21317 H 208.86301 V 150.16214 H 211.811 V 151.21317 H 210.86252 V 162.80862 H 209.80295 L 204.59909,153.61429 H 204.57346 V 161.7576 H 205.52194 V 162.80862 Z"
         id="path121" />
      <path
         d="M 217.69846,149.84598 Q 219.77487,149.84598 221.09933,151.69168 222.4238,153.53738 222.4238,156.46829 222.4238,159.44193 221.09933,161.27908 219.77487,163.12479 217.63864,163.12479 215.81003,163.12479 214.57101,161.62943 212.97311,159.70682 212.97311,156.47684 212.97311,153.54593 214.28903,151.70023 215.61349,149.84598 217.69846,149.84598 Z M 217.69846,150.98245 Q 216.32272,150.98245 215.56223,152.40945 214.79318,153.86209 214.79318,156.50247 214.79318,159.11722 215.55368,160.56131 216.30563,162.02249 217.68991,162.02249 219.07419,162.02249 219.79196,160.76639 220.60373,159.36502 220.60373,156.51956 220.60373,153.845 219.83469,152.40945 219.0571,150.98245 217.69846,150.98245 Z"
         id="path123" />
      <path
         d="M 227.05515,157.69022 V 161.7576 H 229.4819 V 162.80862 H 223.6799 V 161.7576 H 225.36325 V 151.21317 H 223.6799 V 150.16214 H 229.32809 Q 232.54953,150.16214 232.54953,153.24686 232.54953,155.30618 231.35324,156.50247 230.15695,157.69022 228.06345,157.69022 Z M 227.05515,156.63919 H 228.00363 Q 230.7551,156.63919 230.7551,153.5032 230.7551,151.21317 228.77267,151.21317 H 227.05515 Z"
         id="path125" />
      <path
         d="M 238.70187,163.12479 Q 237.36887,162.91116 236.65964,162.56082 235.80515,162.14212 235.13864,161.05692 233.97653,159.1514 233.97653,156.48538 233.97653,153.55447 235.29245,151.70023 236.60837,149.84598 238.70187,149.84598 240.78683,149.84598 242.10275,151.70023 243.42722,153.55447 243.42722,156.47684 243.42722,159.21121 242.2822,161.02274 241.50461,162.24466 240.18869,162.82571 241.57297,163.68875 243.89719,164.20145 243.30759,164.92776 242.46164,165.55154 240.67575,164.8765 238.70187,163.12479 Z M 238.70187,150.96536 Q 237.32614,150.96536 236.56564,152.40945 235.7966,153.83646 235.7966,156.48538 235.7966,159.10013 236.5571,160.55276 237.30905,162.02249 238.69333,162.02249 240.07761,162.02249 240.79538,160.75784 241.60715,159.34793 241.60715,156.50247 241.60715,153.82791 240.8381,152.40091 240.06052,150.96536 238.70187,150.96536 Z"
         id="path127" />
      <path
         d="M 244.68332,162.80862 V 161.7576 H 245.79416 V 151.21317 H 244.68332 V 150.16214 H 249.69919 Q 251.20309,150.16214 252.06613,150.991 252.93771,151.81985 252.93771,153.2554 252.93771,154.56277 252.15158,155.57108 251.69016,156.15213 250.81003,156.75027 L 253.48459,161.7576 H 254.23654 V 162.80862 H 252.07468 L 249.17795,157.27151 H 247.47751 V 161.7576 H 248.58835 V 162.80862 Z M 247.47751,156.22049 H 248.32346 Q 251.14328,156.22049 251.14328,153.44339 251.14328,151.21317 249.00705,151.21317 H 247.47751 Z"
         id="path129" />
      <path
         d="M 255.74045,162.28738 V 159.2283 H 256.80002 L 257.0051,161.22781 Q 258.603,162.0054 259.66257,162.0054 260.74777,162.0054 261.42282,161.33035 262.09787,160.66385 262.09787,159.68973 262.09787,158.34818 260.38889,157.4595 L 258.76535,156.61356 Q 257.15036,155.77615 256.57785,155.06693 256.01389,154.38333 256.01389,153.21268 256.01389,149.84598 259.84201,149.84598 261.40573,149.84598 263.04636,150.46976 V 153.19559 H 261.99533 L 261.78171,151.52933 Q 260.71359,150.897 259.71384,150.897 257.65451,150.897 257.65451,152.99905 257.65451,153.86209 258.13303,154.27225 258.55173,154.63113 259.62839,155.21219 L 261.07248,155.98978 Q 262.73874,156.88699 263.25143,157.51077 263.77267,158.1431 263.77267,159.27957 263.77267,161.02274 262.62766,162.07376 261.47409,163.12479 259.56003,163.12479 257.80832,163.12479 255.74045,162.28738 Z"
         id="path131" />
      <path
         d="M 267.14792,162.80862 V 161.7576 H 269.36105 V 151.21317 H 266.53268 V 153.19559 H 265.48166 V 150.16214 H 274.93234 V 153.19559 H 273.87277 V 151.21317 H 271.05295 V 161.7576 H 273.26608 V 162.80862 Z"
         id="path133" />
      <path
         d="M 277.03439,151.21317 H 275.98337 V 150.16214 H 279.8884 V 151.21317 H 278.72629 V 158.33963 Q 278.72629,160.13406 279.34152,161.09964 279.94821,162.07376 281.05905,162.07376 283.32346,162.07376 283.32346,158.26273 V 151.21317 H 282.16135 V 150.16214 H 285.43405 V 151.21317 H 284.37448 V 158.57034 Q 284.37448,160.72366 283.42599,161.91995 282.48605,163.12479 280.75998,163.12479 277.03439,163.12479 277.03439,158.10892 Z"
         id="path135" />
      <path
         d="M 290.39865,162.80862 286.80978,151.21317 H 286.17746 V 150.16214 H 289.91159 V 151.21317 H 288.57004 L 291.52658,160.78348 H 291.54367 L 294.50876,151.21317 H 293.28683 V 150.16214 H 296.24338 V 151.21317 H 295.61105 L 292.01364,162.80862 Z"
         id="path137" />
      <path
         d="M 298.52487,162.80862 297.07224,151.21317 H 296.65353 V 150.16214 H 299.25119 V 151.21317 H 298.3967 L 299.55881,160.45877 H 299.64426 L 301.21652,152.15311 302.48972,152.14456 304.06198,160.4075 H 304.13889 L 305.28391,151.21317 H 304.42941 V 150.16214 H 306.77072 V 151.21317 H 306.34348 L 304.89084,162.80862 H 303.36984 L 301.78049,154.48587 H 301.71213 L 300.13986,162.80862 Z"
         id="path139" />
      <path
         d="M 307.37741,162.80862 V 161.7576 H 308.3259 L 311.31662,156.57083 308.22336,151.21317 H 307.37741 V 150.16214 H 310.96628 V 151.21317 H 310.11179 L 312.57272,155.48563 315.04221,151.21317 H 313.94846 V 150.16214 H 317.03317 V 151.21317 H 316.13596 L 313.1196,156.43411 316.19577,161.7576 H 317.03317 V 162.80862 H 313.24777 V 161.7576 H 314.30734 L 311.86349,157.51932 309.41965,161.7576 H 310.73557 V 162.80862 Z"
         id="path141" />
      <path
         d="M 319.97263,162.80862 V 161.7576 H 321.8696 V 157.16898 L 318.42599,151.21317 H 317.69113 V 150.16214 H 321.64743 V 151.21317 H 320.37424 L 323.06589,155.8616 H 323.08298 L 325.77463,151.21317 H 324.50998 V 150.16214 H 327.72287 V 151.21317 H 326.98801 L 323.55295,157.16043 V 161.7576 H 325.44992 V 162.80862 Z"
         id="path143" />
      <path
         d="M 329.22678,162.80862 V 161.64651 L 335.20822,151.21317 H 330.44016 V 153.19559 H 329.38913 V 150.16214 H 337.0881 V 151.21317 L 331.0383,161.68924 H 336.13962 V 159.15994 H 337.19919 V 162.80862 Z"
         id="path145" />
      <path
         d="M 70.665985,175.19876 Q 72.674042,175.19876 73.819061,176.48904 74.972626,177.77933 74.972626,180.03519 74.972626,182.32523 73.819061,183.60696 72.665497,184.89725 70.597626,184.89725 68.845917,184.89725 67.743622,183.82913 66.367889,182.50467 66.367889,180.04373 66.367889,177.77933 67.521454,176.48904 68.675018,175.19876 70.665985,175.19876 Z M 70.665985,176.24979 Q 68.187958,176.24979 68.187958,180.02664 68.187958,183.84622 70.665985,183.84622 73.152557,183.84622 73.152557,180.02664 73.152557,176.24979 70.665985,176.24979 Z"
         id="path147" />
      <path
         d="M 81.176239,171.72098 Q 83.252655,171.72098 84.577118,173.56668 85.901581,175.41238 85.901581,178.34329 85.901581,181.31693 84.577118,183.15408 83.252655,184.99979 81.116425,184.99979 79.287811,184.99979 78.048798,183.50443 76.450897,181.58182 76.450897,178.35184 76.450897,175.42093 77.766815,173.57523 79.091278,171.72098 81.176239,171.72098 Z M 81.176239,172.85745 Q 79.800507,172.85745 79.040009,174.28445 78.270966,175.73709 78.270966,178.37747 78.270966,180.99222 79.031464,182.43631 79.783417,183.89749 81.167694,183.89749 82.551971,183.89749 83.269745,182.64139 84.081512,181.24002 84.081512,178.39456 84.081512,175.72 83.312469,174.28445 82.534882,172.85745 81.176239,172.85745 Z"
         id="path149" />
      <path
         d="M 91.669403,171.72098 Q 93.720184,171.72098 94.907928,173.49832 96.095673,175.26712 96.095673,178.34329 96.095673,181.47073 94.907928,183.23099 93.720184,184.99979 91.601044,184.99979 89.798065,184.99979 88.670135,183.55569 87.243134,181.72708 87.243134,178.35184 87.243134,175.26712 88.430878,173.49832 89.618622,171.72098 91.669403,171.72098 Z M 89.738251,182.47903 Q 90.404755,183.94876 91.660858,183.94876 94.284149,183.94876 94.284149,178.36038 94.284149,177.20682 94.155975,176.30106 L 89.387909,181.47073 Q 89.533173,182.0347 89.738251,182.47903 Z M 91.669403,172.772 Q 90.4133,172.772 89.738251,174.22464 89.063202,175.68582 89.063202,178.34329 89.063202,179.49686 89.182831,180.41971 L 93.959442,175.24149 Q 93.814178,174.66898 93.6091,174.21609 92.925507,172.772 91.669403,172.772 Z"
         id="path151" />
      <path
         d="M 100.45358,177.82205 100.0007,177.48026 Q 98.530975,176.36942 98.530975,174.89969 98.530975,173.51541 99.599091,172.61819 100.65866,171.72098 102.34201,171.72098 103.93991,171.72098 104.92258,172.49857 105.90524,173.27615 105.90524,174.55789 105.90524,175.56619 105.40964,176.24124 105.03366,176.74539 104.13644,177.54861 L 103.73483,177.9075 104.31589,178.30057 Q 105.54636,179.12943 105.99069,179.79593 106.43503,180.45389 106.43503,181.42801 106.43503,183.01736 105.24728,184.00858 104.05954,184.99979 102.14548,184.99979 100.23141,184.99979 99.09494,184.04276 97.949921,183.08572 97.949921,181.50491 97.949921,179.59085 99.983612,178.1553 Z M 102.75217,177.3179 Q 104.32443,175.87381 104.32443,174.65189 104.32443,173.74612 103.77756,173.25906 103.22214,172.772 102.15402,172.772 101.22263,172.772 100.65866,173.2847 100.10324,173.78885 100.10324,174.56644 100.10324,175.39529 101.18845,176.22415 L 102.02585,176.86502 Z M 101.29953,178.33475 Q 100.33395,179.38577 100.0007,179.96683 99.63327,180.6077 99.63327,181.46219 99.63327,182.55594 100.37668,183.24808 101.12009,183.94876 102.27365,183.94876 103.34177,183.94876 103.99118,183.33353 104.64059,182.72684 104.64059,181.73563 104.64059,181.03494 104.30734,180.58206 103.99118,180.13773 103.0256,179.48831 Z"
         id="path153" />
      <path
         d="M 119.1926,184.68362 V 183.6326 H 122.52512 V 176.46341 H 119.1926 V 175.40384 H 124.20847 V 183.6326 H 127.37009 V 184.68362 Z M 122.26877,173.30179 V 171.19119 H 124.33664 V 173.30179 Z"
         id="path155" />
      <path
         d="M 129.79684,184.68362 V 183.6326 H 132.83029 V 173.08817 H 129.79684 V 172.03714 H 137.55563 V 173.08817 H 134.52219 V 183.6326 H 137.55563 V 184.68362 Z"
         id="path157" />
      <path
         d="M 148.45895,184.16238 Q 147.0405,184.89725 145.58786,184.89725 144.80173,184.89725 144.27194,184.70926 143.7507,184.52982 143.43454,184.13675 143.12692,183.73514 142.9902,183.11136 142.86203,182.48758 142.86203,181.616 V 172.24222 H 139.70041 V 171.19119 H 144.54538 V 181.05203 Q 144.54538,181.84671 144.60519,182.35086 144.66501,182.85501 144.83591,183.13699 145.01535,183.41898 145.34006,183.52151 145.66476,183.62405 146.20309,183.62405 147.26266,183.62405 148.45895,182.96609 Z"
         id="path159" />
      <path
         d="M 159.26828,184.68362 H 150.16794 V 183.6326 H 152.27853 V 173.08817 H 150.16794 V 172.03714 H 155.96994 V 173.08817 H 153.96188 V 183.56424 H 158.21725 V 180.61624 H 159.26828 Z"
         id="path161" />
      <path
         d="M 160.90036,184.68362 V 183.6326 H 164.69431 V 173.5325 L 160.90036,175.04495 V 173.91702 L 166.3862,171.72098 V 183.6326 H 170.18015 V 184.68362 Z"
         id="path163" />
      <path
         d="M 189.50021,187.21292 H 188.38083 Q 186.9111,187.21292 185.97971,186.40115 185.03976,185.58939 185.03976,184.28201 185.03976,183.82913 185.15085,183.17972 L 185.33029,182.14578 Q 185.39865,181.74417 185.39865,181.37674 185.39865,179.72757 183.45895,179.72757 H 182.50192 V 178.67654 H 183.45895 Q 185.39865,178.67654 185.39865,176.99319 185.39865,176.65994 185.33029,176.25833 L 185.15085,175.2244 Q 185.03976,174.57498 185.03976,174.07938 185.03976,172.80618 185.98825,171.99442 186.92819,171.19119 188.38083,171.19119 H 189.50021 V 172.24222 H 188.99606 Q 186.62057,172.24222 186.62057,174.01102 186.62057,174.35281 186.68893,174.74588 L 186.87692,175.814 Q 186.94528,176.20706 186.94528,176.53177 186.94528,177.63406 186.27878,178.38602 185.88571,178.82181 185.15085,179.19778 185.95407,179.60794 186.35568,180.10355 186.93674,180.82986 186.93674,181.89798 186.93674,182.24832 186.87692,182.59012 L 186.68893,183.65823 Q 186.62057,184.0513 186.62057,184.43582 186.62057,186.1619 188.99606,186.1619 H 189.50021 Z"
         id="path165" />
      <path
         d="M 193.37961,171.19119 H 194.49899 Q 195.96872,171.19119 196.90012,172.00296 197.84006,172.82327 197.84006,174.11356 197.84006,174.58353 197.72897,175.2244 L 197.54953,176.25833 Q 197.48117,176.6514 197.48117,177.02737 197.48117,178.67654 199.42087,178.67654 H 200.3779 V 179.72757 H 199.42087 Q 197.48117,179.72757 197.48117,181.41092 197.48117,181.76126 197.54953,182.14578 L 197.72897,183.17117 Q 197.84006,183.8035 197.84006,184.32474 197.84006,185.58939 196.89157,186.40115 195.95163,187.21292 194.49899,187.21292 H 193.37961 V 186.1619 H 193.88376 Q 196.25925,186.1619 196.25925,184.40164 196.25925,184.04276 196.19089,183.65823 L 196.0029,182.59012 Q 195.94308,182.24832 195.94308,181.8638 195.94308,180.77005 196.60104,180.0181 196.98557,179.58231 197.72897,179.19778 196.9343,178.78763 196.53268,178.29202 195.94308,177.5657 195.94308,176.50613 195.94308,176.15579 196.0029,175.814 L 196.19089,174.74588 Q 196.25925,174.36136 196.25925,173.96829 196.25925,172.24222 193.88376,172.24222 H 193.37961 Z"
         id="path167" />
      <path
         d="M 215.81857,187.21292 V 171.19119 H 220.45847 V 172.24222 H 217.29684 V 186.1619 H 220.45847 V 187.21292 Z"
         id="path169" />
      <path
         d="M 230.0715,187.21292 H 225.43161 V 186.1619 H 228.59323 V 172.24222 H 225.43161 V 171.19119 H 230.0715 Z"
         id="path171" />
      <path
         d="M 252.86935,176.45486 V 183.35916 Q 252.86935,183.95731 252.84372,184.55545 252.82663,185.14505 252.707,185.69193 252.58737,186.2388 252.33957,186.70877 252.09177,187.17874 251.63889,187.52054 251.19455,187.87088 250.51096,188.06741 249.82736,188.27249 248.83615,188.27249 248.10129,188.27249 247.22971,188.15286 246.36667,188.04178 245.49509,187.69998 V 185.58939 H 246.54611 L 246.76828,186.7515 Q 246.94772,186.83694 247.18698,186.92239 247.43478,187.00784 247.70822,187.06766 247.98166,187.13602 248.27219,187.1702 248.56271,187.21292 248.85324,187.21292 249.42575,187.21292 249.81882,187.0762 250.22043,186.94803 250.47678,186.70877 250.73312,186.47806 250.86984,186.15335 251.01511,185.82864 251.08347,185.43558 251.15182,185.05106 251.16037,184.61526 251.17746,184.17947 251.17746,183.71805 V 182.01761 Q 250.52805,182.98318 249.93845,183.44461 249.05832,184.1282 248.05002,184.1282 246.64011,184.1282 245.76852,182.89774 244.89694,181.68436 244.89694,180.00101 244.89694,178.94998 245.17892,178.12967 245.46945,177.30081 246.05051,176.60013 247.19553,175.19876 249.23776,175.19876 249.81027,175.19876 250.26315,175.25858 250.71603,175.31839 251.17746,175.40384 H 253.8862 V 176.45486 Z M 251.17746,176.65994 Q 250.58786,176.56595 250.13498,176.51468 249.6821,176.46341 249.35739,176.46341 247.94748,176.46341 247.31516,177.37772 246.99899,177.83914 246.84518,178.44583 246.69138,179.05252 246.69138,179.90701 246.69138,182.75247 248.51999,182.75247 249.92136,182.75247 251.17746,180.75296 Z"
         id="path173" />
      <path
         d="M 262.08078,178.64236 Q 261.53391,179.38577 260.93576,179.76175 260.05563,180.30862 258.90207,180.30862 257.27853,180.30862 256.27878,179.1636 255.27048,178.02713 255.27048,176.18997 255.27048,174.20755 256.44113,172.96854 257.61179,171.72098 259.45749,171.72098 261.54245,171.72098 262.72165,173.41287 263.90085,175.10477 263.90085,178.10403 263.90085,181.39383 262.50803,183.19681 261.1152,184.99979 258.63718,184.99979 257.54343,184.99979 255.85153,184.3931 V 181.68436 H 256.90256 L 257.10764,183.47879 Q 257.8425,183.94876 258.62863,183.94876 260.45724,183.94876 261.39719,182.10306 262.05515,180.81277 262.08078,178.64236 Z M 259.23532,172.772 Q 258.29538,172.772 257.71432,173.44705 256.97946,174.30154 256.97946,175.99344 256.97946,179.20633 259.22678,179.20633 260.3718,179.20633 261.16647,178.3262 261.95261,177.45462 261.95261,176.1387 261.95261,174.77151 261.14938,173.77176 260.34616,172.772 259.23532,172.772 Z"
         id="path175" />
      <path
         d="M 272.18088,182.78665 Q 271.54001,183.73514 270.94186,184.21365 270.07028,184.89725 269.05344,184.89725 267.64352,184.89725 266.77194,183.66678 265.90036,182.44485 265.90036,180.42825 265.90036,177.99295 267.05392,176.60013 268.19894,175.19876 270.24118,175.19876 L 272.18088,175.40384 H 273.87277 V 187.00784 H 274.9238 V 188.05887 H 270.07883 V 186.9993 H 272.18088 Z M 272.18088,176.65994 Q 271.01877,176.46341 270.36081,176.46341 268.9509,176.46341 268.31857,177.37772 267.69479,178.29202 267.69479,180.33426 267.69479,183.52151 269.52341,183.52151 270.92477,183.52151 272.18088,181.522 Z"
         id="path177" />
      <path
         d="M 285.08371,184.0513 Q 283.31491,184.99979 281.76828,184.99979 279.2988,184.99979 277.90598,183.23953 276.50461,181.47928 276.50461,178.29202 276.50461,175.13895 277.83762,173.42996 279.17062,171.72098 281.64865,171.72098 283.05002,171.72098 284.90427,172.26785 V 175.07059 H 283.85324 L 283.60544,173.22488 Q 282.63986,172.772 281.69138,172.772 280.09348,172.772 279.2048,174.27591 278.32468,175.77127 278.32468,178.41165 278.32468,180.96658 279.30734,182.44485 280.29855,183.8804 281.99045,183.8804 283.49435,183.8804 285.08371,182.7012 Z"
         id="path179" />
      <path
         d="M 295.19235,184.0513 Q 293.63718,184.99979 291.91965,184.99979 289.39035,184.99979 287.98898,183.23953 286.58762,181.48782 286.58762,178.30057 286.58762,175.11331 287.92917,173.41287 289.27927,171.71243 291.8342,171.71243 293.31247,171.71243 294.98727,172.24222 V 175.07059 H 293.93625 L 293.68845,173.22488 Q 292.71432,172.76346 291.86838,172.76346 288.40768,172.76346 288.40768,178.38602 288.40768,181.00931 289.39035,182.42776 290.37302,183.8804 292.11618,183.8804 292.78268,183.8804 293.50046,183.60696 V 180.095 H 292.03073 V 179.04398 H 295.19235 Z"
         id="path181" />
      <path
         d="M 301.71213,184.99979 Q 300.37912,184.78616 299.66989,184.43582 298.8154,184.01712 298.1489,182.93192 296.98679,181.0264 296.98679,178.36038 296.98679,175.42947 298.3027,173.57523 299.61862,171.72098 301.71213,171.72098 303.79709,171.72098 305.11301,173.57523 306.43747,175.42947 306.43747,178.35184 306.43747,181.08621 305.29245,182.89774 304.51486,184.11966 303.19894,184.70071 304.58322,185.56375 306.90744,186.07645 306.31784,186.80276 305.47189,187.42654 303.686,186.7515 301.71213,184.99979 Z M 301.71213,172.84036 Q 300.3364,172.84036 299.5759,174.28445 298.80685,175.71146 298.80685,178.36038 298.80685,180.97513 299.56735,182.42776 300.31931,183.89749 301.70358,183.89749 303.08786,183.89749 303.80563,182.63284 304.6174,181.22293 304.6174,178.37747 304.6174,175.70291 303.84836,174.27591 303.07077,172.84036 301.71213,172.84036 Z"
         id="path183" />
      <path
         d="M 319.57101,180.67606 H 318.30637 Q 318.34055,179.77029 318.5029,179.30032 319.02414,177.87332 320.67331,177.87332 321.55344,177.87332 322.45065,178.46292 L 323.45041,179.12088 324.04855,179.51395 Q 324.3049,179.68484 324.76633,179.68484 325.81735,179.68484 325.85153,178.14676 H 327.11618 Q 327.09055,179.05252 326.91965,179.52249 326.40695,180.94949 324.75778,180.94949 323.86911,180.94949 322.98044,180.35989 L 321.98068,179.70193 321.38254,179.30887 Q 321.11765,179.13797 320.63913,179.13797 319.60519,179.13797 319.57101,180.67606 Z"
         id="path185" />
      <path
         d="M 328.80807,180.04373 V 178.77908 H 337.61789 V 180.04373 Z"
         id="path187" />
      <path
         d="M 343.08664,183.82059 V 180.04373 H 339.30978 V 178.77908 H 343.08664 V 175.00223 H 344.35129 V 178.77908 H 348.1196 V 180.04373 H 344.35129 V 183.82059 Z"
         id="path189" />
      <path
         d="M 349.81149,181.72708 V 180.46243 H 358.62131 V 181.72708 Z M 349.81149,178.36038 V 177.09573 H 358.62131 V 178.36038 Z"
         id="path191" />
      <path
         d="M 360.3132,184.68362 V 183.20535 L 366.66208,179.41141 360.3132,175.61746 V 174.13919 L 369.13156,179.41141 Z"
         id="path193" />
    </g>
  </g>
</svg>
