<?xml version="1.0" encoding="UTF-8" standalone="no"?>
<!-- Created with Inkscape (http://www.inkscape.org/) -->

<svg
   xmlns:dc="http://purl.org/dc/elements/1.1/"
   xmlns:cc="http://creativecommons.org/ns#"
   xmlns:rdf="http://www.w3.org/1999/02/22-rdf-syntax-ns#"
   xmlns:svg="http://www.w3.org/2000/svg"
   xmlns="http://www.w3.org/2000/svg"
   xmlns:sodipodi="http://sodipodi.sourceforge.net/DTD/sodipodi-0.dtd"
   xmlns:inkscape="http://www.inkscape.org/namespaces/inkscape"
   width="86.154602mm"
   height="30.593824mm"
   viewBox="0 0 305.27221 108.40331"
   id="svg2"
   version="1.1"
   inkscape:version="0.91 r13725"
   sodipodi:docname="Hack Nerd Font.svg">
  <defs
     id="defs4" />
  <sodipodi:namedview
     id="base"
     pagecolor="#ffffff"
     bordercolor="#666666"
     borderopacity="1.0"
     inkscape:pageopacity="0.0"
     inkscape:pageshadow="2"
     inkscape:zoom="0.7"
     inkscape:cx="-54.696747"
     inkscape:cy="-401.06167"
     inkscape:document-units="px"
     inkscape:current-layer="layer1"
     showgrid="false"
     inkscape:window-width="1861"
     inkscape:window-height="1056"
     inkscape:window-x="59"
     inkscape:window-y="24"
     inkscape:window-maximized="1" />
  <metadata
     id="metadata7">
    <rdf:RDF>
      <cc:Work
         rdf:about="">
        <dc:format>image/svg+xml</dc:format>
        <dc:type
           rdf:resource="http://purl.org/dc/dcmitype/StillImage" />
        <dc:title />
      </cc:Work>
    </rdf:RDF>
  </metadata>
  <g
     inkscape:label="Layer 1"
     inkscape:groupmode="layer"
     id="layer1"
     transform="translate(-64.696743,-80.040077)">
    <g
       style="font-style:normal;font-weight:normal;font-size:27.5px;line-height:125%;font-family:'Hack Nerd Font';text-decoration: underline;text-decoration-line: underline;letter-spacing:0px;word-spacing:0px;fill:#ffffff;fill-opacity:1;stroke:none;stroke-width:1px;stroke-linecap:butt;stroke-linejoin:miter;stroke-opacity:1"
       id="text4136">
      <path
         d="m 64.696743,80.886024 2.72583,0 0,8.217774 7.425537,0 0,-8.217774 2.72583,0 0,20.047606 -2.72583,0 0,-9.547117 -7.425537,0 0,9.547117 -2.72583,0 0,-20.047606 z"
         id="path4140"
         inkscape:connector-curvature="0" />
      <path
         d="m 86.234829,101.32304 q -2.175293,0 -3.598633,-1.24878 -1.409912,-1.26221 -1.409912,-3.612064 0,-1.947021 0.939941,-3.034668 0.939942,-1.101074 2.457276,-1.544189 1.517334,-0.443115 3.236084,-0.443115 l 3.31665,0 0,-0.389405 q 0,-1.920166 -0.980224,-2.672119 -0.966797,-0.751953 -2.72583,-0.751953 -1.369629,0 -2.685547,0.375977 -1.315918,0.375976 -2.457276,1.047363 l 0,-2.470703 q 1.235352,-0.456543 2.497559,-0.751953 1.262207,-0.29541 2.578125,-0.29541 1.342773,0 2.60498,0.375976 1.275635,0.362549 2.202149,1.208496 0.926513,0.83252 1.235351,2.242432 0.214844,0.993652 0.214844,2.994385 l 0,3.074951 q 0,1.262207 0.134277,2.792969 0.147705,1.530761 0.657959,2.7124 l -2.48413,0 q -0.228272,-0.52368 -0.362549,-1.1145 -0.134278,-0.604248 -0.214844,-1.168213 -0.792236,1.356203 -2.202148,2.014163 -1.396485,0.65796 -2.954102,0.65796 z m 0.604248,-2.067875 q 1.530762,0 2.484131,-0.751953 0.966797,-0.751953 1.409912,-1.960449 0.443115,-1.221924 0.443115,-2.618408 l 0,-0.550538 -3.128662,0 q -1.047363,0 -2.054443,0.2417 -0.993653,0.228271 -1.651612,0.88623 -0.644531,0.657959 -0.644531,1.920166 0,1.42334 0.872803,2.13501 0.872803,0.698242 2.269287,0.698242 z"
         id="path4142"
         inkscape:connector-curvature="0" />
      <path
         d="m 105.40963,101.32304 q -2.37671,0 -4.00146,-0.99366 -1.611329,-1.007076 -2.443849,-2.792965 -0.819092,-1.785889 -0.819092,-4.108887 0,-2.336425 0.83252,-4.108886 0.832519,-1.785889 2.457271,-2.779541 1.62476,-1.00708 4.02832,-1.00708 1.24878,0 2.25586,0.29541 1.00708,0.281982 2.05445,0.859375 l 0,2.591552 q -0.95337,-0.845947 -1.92017,-1.248779 -0.95337,-0.402832 -2.17529,-0.402832 -1.81275,0 -2.90039,0.778809 -1.07422,0.778808 -1.55762,2.094726 -0.46997,1.315918 -0.46997,2.927246 0,1.597901 0.4834,2.927246 0.4834,1.315918 1.55762,2.094727 1.07421,0.778809 2.87353,0.778809 1.18164,0 2.20215,-0.389405 1.02051,-0.389404 1.90674,-1.235351 l 0,2.564696 q -1.92017,1.15479 -4.36402,1.15479 z"
         id="path4144"
         inkscape:connector-curvature="0" />
      <path
         d="m 115.52072,80.040077 2.55127,0 0,12.098389 6.48559,-6.243897 3.00782,0 -5.92164,5.666504 6.84815,9.372557 -3.02124,0 -5.55908,-7.761229 -1.8396,1.732178 0,6.029051 -2.55127,0 0,-20.893553 z"
         id="path4146"
         inkscape:connector-curvature="0" />
      <path
         d="m 147.43844,80.886024 3.4375,0 6.76758,16.502686 0,-16.502686 2.61841,0 0,20.047606 -3.4375,0 -6.76758,-16.502684 0,16.502684 -2.61841,0 0,-20.047606 z"
         id="path4148"
         inkscape:connector-curvature="0" />
      <path
         d="m 171.21896,101.32304 q -3.47778,0 -5.46509,-2.081303 -1.97388,-2.094726 -1.97388,-5.706787 0,-2.242431 0.77881,-4.055176 0.79224,-1.812744 2.33643,-2.873535 1.55762,-1.074218 3.84033,-1.074218 3.00781,0 4.65943,1.933593 1.66503,1.920166 1.66503,5.330811 l 0,1.208496 -10.7019,0 0,0.08057 q 0,2.349854 1.23535,3.746338 1.23535,1.396485 3.65235,1.396485 1.39648,0 2.69897,-0.443116 1.31592,-0.443115 2.53784,-1.074218 l 0,2.45727 q -1.27563,0.52368 -2.59155,0.83252 -1.30249,0.32227 -2.67212,0.32227 z m 3.37036,-9.251713 q 0,-1.248779 -0.37598,-2.255859 -0.37597,-1.00708 -1.20849,-1.597901 -0.81909,-0.59082 -2.17529,-0.59082 -1.36963,0 -2.29615,0.604248 -0.91308,0.59082 -1.43676,1.597901 -0.51026,1.00708 -0.64454,2.242431 l 8.13721,0 z"
         id="path4150"
         inkscape:connector-curvature="0" />
      <path
         d="m 182.7131,85.894569 2.24243,0 0.2417,2.940674 q 0.6311,-1.5979 1.89331,-2.443847 1.27564,-0.859375 3.0481,-0.859375 1.85302,0 3.22265,0.939941 l 0,2.524414 q -1.45019,-1.181641 -3.4375,-1.181641 -2.28271,0 -3.50463,1.463623 -1.22193,1.450196 -1.22193,4.176026 l 0,7.479246 -2.48413,0 0,-15.039061 z"
         id="path4152"
         inkscape:connector-curvature="0" />
      <path
         d="m 202.63986,101.32304 q -1.63819,0 -2.75269,-0.69825 -1.1145,-0.698238 -1.78589,-1.866451 -0.65795,-1.168213 -0.95337,-2.578125 -0.29541,-1.42334 -0.29541,-2.860107 0,-3.598633 1.57105,-5.69336 1.58447,-2.094726 4.27002,-2.094726 1.31592,0 2.36328,0.563964 1.04736,0.550538 1.66504,1.71875 l 0,-7.774658 2.4707,0 0,20.893553 -2.229,0 -0.2417,-1.893309 q -1.32935,2.282719 -4.08203,2.282719 z m 0.44311,-2.09473 q 1.16822,0 1.87989,-0.550537 0.72509,-0.550538 1.10107,-1.42334 0.3894,-0.886231 0.52368,-1.893311 0.13428,-1.020508 0.13428,-1.947021 0,-0.913086 -0.13428,-1.920166 -0.13428,-1.00708 -0.52368,-1.879883 -0.37598,-0.886231 -1.10107,-1.436768 -0.71167,-0.550537 -1.87989,-0.550537 -1.18164,0 -1.90673,0.550537 -0.71167,0.550537 -1.08765,1.436768 -0.36255,0.872803 -0.49683,1.879883 -0.13427,1.00708 -0.13427,1.920166 0,0.913086 0.13427,1.933593 0.13428,1.00708 0.49683,1.893311 0.37598,0.872803 1.08765,1.436768 0.72509,0.550537 1.90673,0.550537 z"
         id="path4154"
         inkscape:connector-curvature="0" />
      <path
         d="m 231.41549,80.886024 11.80298,0 0,2.282715 -9.07715,0 0,6.176758 8.2312,0 0,2.282715 -8.2312,0 0,9.305418 -2.72583,0 0,-20.047606 z"
         id="path4156"
         inkscape:connector-curvature="0" />
      <path
         d="m 253.12814,101.32304 q -3.14209,0 -4.80713,-2.027592 -1.65161,-2.041015 -1.65161,-5.854492 0,-3.826904 1.66504,-5.86792 1.66504,-2.041015 4.78027,-2.041015 3.11524,0 4.76685,2.041015 1.66504,2.027588 1.66504,5.881348 0,3.826904 -1.65161,5.854492 -1.65162,2.014164 -4.76685,2.014164 z m -0.0134,-2.09473 q 1.8396,0 2.81983,-1.503907 0.99365,-1.503906 0.99365,-4.310302 0,-2.792969 -0.99365,-4.283448 -0.98023,-1.503906 -2.81983,-1.503906 -1.85303,0 -2.84668,1.503906 -0.98022,1.490479 -0.98022,4.283448 0,2.806396 0.99365,4.310302 0.99365,1.503907 2.83325,1.503907 z"
         id="path4158"
         inkscape:connector-curvature="0" />
      <path
         d="m 263.99118,85.894569 2.229,0 0.2417,2.25586 q 1.3562,-2.618408 4.41772,-2.618408 4.60572,0 4.60572,6.082763 l 0,9.318846 -2.48413,0 0,-9.318846 q 0,-2.027588 -0.71167,-2.980957 -0.69825,-0.953369 -2.1753,-0.953369 -1.75903,0 -2.7124,1.248779 -0.93994,1.235352 -0.93994,3.504639 l 0,8.499754 -2.4707,0 0,-15.039061 z"
         id="path4160"
         inkscape:connector-curvature="0" />
      <path
         d="m 288.75192,100.98734 q -2.76611,0 -3.9209,-1.114499 -1.14136,-1.12793 -1.14136,-3.840332 l 0,-8.217774 -4.01489,0 0,-1.920166 4.01489,0 0,-3.934326 2.47071,-1.074219 0,5.008545 5.61279,0 0,1.920166 -5.61279,0 0,8.217774 q 0,1.651611 0.6311,2.322998 0.6311,0.657959 2.20215,0.657959 l 2.77954,0 0,1.973874 -3.02124,0 z"
         id="path4162"
         inkscape:connector-curvature="0" />
    </g>
    <g
       style="font-style:normal;font-weight:normal;font-size:27.5px;line-height:125%;font-family:'Hack Nerd Font';letter-spacing:0px;word-spacing:0px;fill:#ffffff;fill-opacity:1;stroke:none;stroke-width:1px;stroke-linecap:butt;stroke-linejoin:miter;stroke-opacity:1"
       id="text4140">
      <path
         d="m 69.768768,141.18143 q -1.384277,0 -2.290039,-0.79468 -0.897217,-0.80322 -0.897217,-2.29858 0,-1.23902 0.598145,-1.93116 0.598145,-0.70068 1.563721,-0.98266 0.965576,-0.28199 2.059326,-0.28199 l 2.110596,0 0,-0.2478 q 0,-1.22192 -0.62378,-1.70044 -0.615234,-0.47851 -1.734619,-0.47851 -0.871582,0 -1.708984,0.23925 -0.837403,0.23926 -1.563721,0.66651 l 0,-1.57227 q 0.786133,-0.29052 1.589356,-0.47851 0.803222,-0.18799 1.640625,-0.18799 0.854492,0 1.657714,0.23926 0.811768,0.23071 1.401368,0.76904 0.589599,0.52978 0.786132,1.427 0.136719,0.63233 0.136719,1.90552 l 0,1.95679 q 0,0.80322 0.08545,1.77734 0.09399,0.97412 0.418701,1.72607 l -1.58081,0 q -0.145264,-0.33325 -0.230713,-0.70922 -0.08545,-0.38453 -0.136719,-0.74341 -0.50415,0.86303 -1.401367,1.28174 -0.888672,0.4187 -1.879883,0.4187 z m 0.384522,-1.31592 q 0.974121,0 1.58081,-0.47852 0.615235,-0.47851 0.897217,-1.24756 0.281983,-0.77758 0.281983,-1.66625 l 0,-0.35035 -1.990967,0 q -0.666504,0 -1.307373,0.15381 -0.632325,0.14527 -1.051026,0.56397 -0.410156,0.4187 -0.410156,1.22192 0,0.90576 0.55542,1.35864 0.55542,0.44434 1.444092,0.44434 z"
         style="font-size:17.5px"
         id="path4165"
         inkscape:connector-curvature="0" />
      <path
         d="m 81.800018,141.18143 q -1.811523,0 -2.631836,-1.45264 l -0.153808,1.20483 -1.418457,0 0,-13.29589 1.572265,0 0,4.94751 q 0.393067,-0.74341 1.085205,-1.09375 0.692139,-0.35889 1.555176,-0.35889 1.025391,0 1.726074,0.44433 0.700684,0.4358 1.119385,1.17066 0.427246,0.72632 0.60669,1.61499 0.187988,0.88867 0.187988,1.77734 0,0.89722 -0.187988,1.79444 -0.187989,0.88867 -0.615235,1.62353 -0.418701,0.73487 -1.119384,1.1792 -0.700684,0.44434 -1.726075,0.44434 z m -0.316162,-1.33301 q 0.751953,0 1.204834,-0.35034 0.461426,-0.35034 0.692139,-0.91431 0.239258,-0.56396 0.324707,-1.20483 0.08545,-0.64087 0.08545,-1.22193 0,-0.58105 -0.08545,-1.22192 -0.08545,-0.64941 -0.324707,-1.20483 -0.230713,-0.56397 -0.692139,-0.91431 -0.452881,-0.35034 -1.204834,-0.35034 -0.743408,0 -1.204834,0.35034 -0.452881,0.35034 -0.700683,0.90576 -0.239258,0.55542 -0.324707,1.20483 -0.08545,0.64087 -0.08545,1.22193 0,0.5896 0.08545,1.23901 0.08545,0.64087 0.324707,1.20484 0.247802,0.55542 0.700683,0.90576 0.461426,0.35034 1.204834,0.35034 z"
         style="font-size:17.5px"
         id="path4167"
         inkscape:connector-curvature="0" />
      <path
         d="m 92.49826,141.18143 q -1.512451,0 -2.546386,-0.63233 -1.025391,-0.64087 -1.555176,-1.77734 -0.52124,-1.13648 -0.52124,-2.61475 0,-1.48681 0.529785,-2.61474 0.529785,-1.13648 1.563721,-1.7688 1.033935,-0.64087 2.563476,-0.64087 0.794678,0 1.435547,0.18799 0.640869,0.17944 1.307373,0.54687 l 0,1.64917 q -0.606689,-0.53833 -1.221924,-0.79468 -0.606689,-0.25634 -1.384277,-0.25634 -1.153565,0 -1.845703,0.4956 -0.683594,0.49561 -0.991211,1.33301 -0.299072,0.8374 -0.299072,1.86279 0,1.01685 0.307617,1.8628 0.307617,0.8374 0.991211,1.333 0.683593,0.49561 1.828613,0.49561 0.751953,0 1.401367,-0.2478 0.649414,-0.24781 1.213379,-0.78614 l 0,1.63208 q -1.221924,0.73487 -2.7771,0.73487 z"
         style="font-size:17.5px"
         id="path4169"
         inkscape:connector-curvature="0" />
      <path
         d="m 101.73532,141.18143 q -1.04248,0 -1.751708,-0.44434 -0.709228,-0.44433 -1.136475,-1.18774 -0.418701,-0.74341 -0.606689,-1.64063 -0.187988,-0.90576 -0.187988,-1.82007 0,-2.29004 0.999756,-3.62304 1.008304,-1.33301 2.717284,-1.33301 0.8374,0 1.50391,0.35889 0.6665,0.35034 1.05957,1.09375 l 0,-4.94751 1.57226,0 0,13.29589 -1.41845,0 -0.15381,-1.20483 q -0.84595,1.45264 -2.59766,1.45264 z m 0.28198,-1.33301 q 0.74341,0 1.19629,-0.35034 0.46143,-0.35034 0.70069,-0.90576 0.2478,-0.56397 0.33325,-1.20484 0.0855,-0.64941 0.0855,-1.23901 0,-0.58106 -0.0855,-1.22193 -0.0854,-0.64086 -0.33325,-1.19628 -0.23926,-0.56397 -0.70069,-0.91431 -0.45288,-0.35034 -1.19629,-0.35034 -0.75195,0 -1.21338,0.35034 -0.45288,0.35034 -0.69213,0.91431 -0.230717,0.55542 -0.316166,1.19628 -0.08545,0.64087 -0.08545,1.22193 0,0.58105 0.08545,1.23047 0.08545,0.64087 0.316166,1.20483 0.23925,0.55542 0.69213,0.91431 0.46143,0.35034 1.21338,0.35034 z"
         style="font-size:17.5px"
         id="path4171"
         inkscape:connector-curvature="0" />
      <path
         d="m 113.32224,141.18143 q -2.21314,0 -3.47779,-1.32447 -1.2561,-1.333 -1.2561,-3.63159 0,-1.427 0.4956,-2.58056 0.50415,-1.15357 1.48682,-1.82862 0.99121,-0.68359 2.44385,-0.68359 1.91406,0 2.96509,1.23047 1.05957,1.22192 1.05957,3.39233 l 0,0.76904 -6.81031,0 0,0.0513 q 0,1.49537 0.78614,2.38404 0.78613,0.88867 2.32421,0.88867 0.88868,0 1.71753,-0.28198 0.83741,-0.28199 1.61499,-0.6836 l 0,1.56372 q -0.81176,0.33326 -1.64917,0.52979 -0.82885,0.20508 -1.70043,0.20508 z m 2.14477,-5.88745 q 0,-0.79468 -0.23926,-1.43555 -0.23926,-0.64087 -0.76904,-1.01685 -0.52124,-0.37597 -1.38428,-0.37597 -0.87158,0 -1.46118,0.38452 -0.58105,0.37597 -0.91431,1.01684 -0.3247,0.64087 -0.41015,1.42701 l 5.17822,0 z"
         style="font-size:17.5px"
         id="path4173"
         inkscape:connector-curvature="0" />
      <path
         d="m 122.03806,132.58524 -2.55494,0 0,-1.22193 2.55494,0 0,-0.6665 q 0,-1.57227 0.71777,-2.31568 0.72632,-0.7434 2.25586,-0.7434 l 1.88843,0 0,1.30737 -1.78589,0 q -0.83741,0 -1.17066,0.35034 -0.33325,0.3418 -0.33325,1.22192 l 0,0.84595 3.2898,0 0,1.22193 -3.2898,0 0,8.34838 -1.57226,0 0,-8.34838 z"
         style="font-size:17.5px"
         id="path4175"
         inkscape:connector-curvature="0" />
      <path
         d="m 133.70187,144.69339 q -0.69213,0 -1.39282,-0.12817 -0.69214,-0.12818 -1.36719,-0.3418 l 0,-1.55518 q 0.64942,0.30762 1.36719,0.53833 0.72632,0.23072 1.47827,0.23072 0.92285,0 1.43555,-0.36744 0.5127,-0.36743 0.71777,-1.02539 0.21363,-0.64941 0.21363,-1.49536 l 0,-1.13647 q -0.38453,0.82031 -1.04248,1.20483 -0.65796,0.38452 -1.54663,0.38452 -1.01685,0 -1.72608,-0.43579 -0.70923,-0.43579 -1.14502,-1.15356 -0.42724,-0.72632 -0.62378,-1.5979 -0.19653,-0.88013 -0.19653,-1.75171 0,-0.87158 0.19653,-1.74317 0.19654,-0.87158 0.63233,-1.58935 0.43579,-0.72632 1.14502,-1.16211 0.71777,-0.43579 1.74316,-0.43579 0.86304,0 1.50391,0.35889 0.64087,0.35888 1.05957,1.14502 l 0.1538,-1.23902 1.41846,0 0,8.9209 q 0,2.00806 -0.95703,3.18726 -0.94849,1.18774 -3.06763,1.18774 z m 0.17945,-4.99878 q 1.11938,0 1.69189,-0.9314 0.58106,-0.93139 0.58106,-2.70874 0,-0.57251 -0.0855,-1.19629 -0.0854,-0.62377 -0.32471,-1.1621 -0.23071,-0.54688 -0.68359,-0.88868 -0.45288,-0.34179 -1.18775,-0.34179 -1.13647,0 -1.74316,0.90576 -0.59815,0.90576 -0.59815,2.66601 0,1.77735 0.61524,2.71729 0.61523,0.93994 1.73462,0.93994 z"
         style="font-size:17.5px"
         id="path4177"
         inkscape:connector-curvature="0" />
      <path
         d="m 140.77707,127.63773 1.57226,0 0,5.16113 q 0.86304,-1.66626 2.82837,-1.66626 1.1792,0 1.80298,0.54687 0.63233,0.54688 0.87158,1.42701 0.23926,0.88012 0.23926,1.89697 l 0,5.93017 -1.58081,0 0,-5.93017 q 0,-1.29028 -0.45288,-1.89697 -0.45288,-0.60669 -1.40991,-0.60669 -0.88867,0 -1.39282,0.44433 -0.49561,0.43579 -0.70069,1.12793 -0.20508,0.69214 -0.20508,1.45264 l 0,5.40893 -1.57226,0 0,-13.29589 z"
         style="font-size:17.5px"
         id="path4179"
         inkscape:connector-curvature="0" />
      <path
         d="m 154.10715,129.62869 q -0.25635,0 -0.25635,-0.25635 l 0,-1.47827 q 0,-0.25634 0.25635,-0.25634 l 1.23047,0 q 0.25634,0 0.25634,0.25634 l 0,1.47827 q 0,0.25635 -0.25634,0.25635 l -1.23047,0 z m 2.87109,11.37329 q -1.40991,0 -2.1875,-0.90576 -0.76904,-0.9143 -0.76904,-2.56347 l 0,-4.93897 -2.09351,0 0,-1.23047 3.66577,0 0,6.16944 q 0,1.04248 0.39307,1.58935 0.39307,0.54688 1.14502,0.54688 l 1.83716,0 0,1.333 -1.99097,0 z"
         style="font-size:17.5px"
         id="path4181"
         inkscape:connector-curvature="0" />
      <path
         d="m 165.73679,129.62869 q -0.25635,0 -0.25635,-0.25635 l 0,-1.47827 q 0,-0.25634 0.25635,-0.25634 l 1.23046,0 q 0.25635,0 0.25635,0.25634 l 0,1.47827 q 0,0.25635 -0.25635,0.25635 l -1.23046,0 z m -3.5376,13.61206 1.99951,0 q 1.53809,0 1.53809,-2.13623 l 0,-8.51928 -2.70874,0 0,-1.22193 4.281,0 0,9.74121 q 0,1.65772 -0.76904,2.56348 -0.76904,0.90576 -2.17041,0.90576 l -2.17041,0 0,-1.33301 z"
         style="font-size:17.5px"
         id="path4183"
         inkscape:connector-curvature="0" />
      <path
         d="m 172.62399,127.63773 1.62354,0 0,7.69897 4.1272,-3.97339 1.91406,0 -3.76831,3.60596 4.35791,5.96435 -1.92261,0 -3.5376,-4.93896 -1.17065,1.10229 0,3.83667 -1.62354,0 0,-13.29589 z"
         style="font-size:17.5px"
         id="path4185"
         inkscape:connector-curvature="0" />
      <path
         d="m 188.23557,141.00198 q -1.40992,0 -2.1875,-0.90576 -0.76905,-0.9143 -0.76905,-2.56347 l 0,-8.66456 -2.52075,0 0,-1.23046 4.09302,0 0,9.89502 q 0,1.04248 0.39306,1.58935 0.39307,0.54688 1.14502,0.54688 l 1.83716,0 0,1.333 -1.99096,0 z"
         style="font-size:17.5px"
         id="path4187"
         inkscape:connector-curvature="0" />
      <path
         d="m 192.67892,131.36331 1.29029,0 0.13672,0.82031 q 0.58105,-1.05102 1.71753,-1.05102 1.22192,0 1.70044,1.20483 0.58105,-1.20483 1.82861,-1.20483 1.16211,0 1.62353,0.87158 0.46997,0.89722 0.46997,3.38379 l 0,5.54565 -1.43554,0 0,-5.47729 q 0,-1.07666 -0.0598,-1.66626 -0.0513,-0.5896 -0.1709,-0.87158 -0.21362,-0.46997 -0.84594,-0.46997 -0.64942,0 -0.89722,0.51269 -0.14526,0.29907 -0.20508,0.87158 -0.0598,0.57251 -0.0598,1.62354 l 0,5.47729 -1.43555,0 0,-5.47729 q 0,-1.03394 -0.0598,-1.64063 -0.0598,-0.60669 -0.18799,-0.88867 -0.23071,-0.47851 -0.86304,-0.47851 -0.63232,0 -0.86304,0.50415 -0.13671,0.29052 -0.19653,0.88867 -0.0598,0.5896 -0.0598,1.61499 l 0,5.47729 -1.42701,0 0,-9.57031 z"
         style="font-size:17.5px"
         id="path4189"
         inkscape:connector-curvature="0" />
      <path
         d="m 203.94113,131.36331 1.41846,0 0.15381,1.43555 q 0.86303,-1.66626 2.81128,-1.66626 2.9309,0 2.9309,3.87085 l 0,5.93017 -1.58081,0 0,-5.93017 q 0,-1.29028 -0.45288,-1.89697 -0.44433,-0.60669 -1.38427,-0.60669 -1.11939,0 -1.72608,0.79467 -0.59814,0.78614 -0.59814,2.23023 l 0,5.40893 -1.57227,0 0,-9.57031 z"
         style="font-size:17.5px"
         id="path4191"
         inkscape:connector-curvature="0" />
      <path
         d="m 218.08298,141.18143 q -1.99951,0 -3.05908,-1.29029 -1.05103,-1.29882 -1.05103,-3.72558 0,-2.4353 1.05957,-3.73413 1.05957,-1.29883 3.04199,-1.29883 1.98242,0 3.03345,1.29883 1.05957,1.29028 1.05957,3.74267 0,2.43531 -1.05103,3.72559 -1.05102,1.28174 -3.03344,1.28174 z m -0.009,-1.33301 q 1.17066,0 1.79444,-0.95703 0.63232,-0.95703 0.63232,-2.74292 0,-1.77735 -0.63232,-2.72583 -0.62378,-0.95703 -1.79444,-0.95703 -1.1792,0 -1.81152,0.95703 -0.62378,0.94848 -0.62378,2.72583 0,1.78589 0.63232,2.74292 0.63233,0.95703 1.80298,0.95703 z"
         style="font-size:17.5px"
         id="path4193"
         inkscape:connector-curvature="0" />
      <path
         d="m 224.95309,131.36331 1.42701,0 0.15381,1.22193 q 0.82031,-1.45264 2.57202,-1.45264 1.71753,0 2.70019,1.34155 0.99121,1.34155 0.99121,3.66577 0,2.34131 -0.99975,3.69141 -0.99121,1.3501 -2.69165,1.3501 -1.79444,0 -2.57202,-1.45264 l 0,4.84497 -1.58082,0 0,-13.21045 z m 3.94776,8.48511 q 2.24731,0 2.24731,-3.69141 0,-3.6914 -2.24731,-3.6914 -1.15357,0 -1.76026,0.95703 -0.60668,0.95703 -0.60668,2.72583 0,1.77734 0.60668,2.74292 0.61524,0.95703 1.76026,0.95703 z"
         style="font-size:17.5px"
         id="path4195"
         inkscape:connector-curvature="0" />
      <path
         d="m 241.29099,139.74588 q -0.80323,1.46973 -2.60621,1.46973 -1.02539,0 -1.72607,-0.43579 -0.70068,-0.44434 -1.12793,-1.17066 -0.42725,-0.72632 -0.61523,-1.5979 -0.18799,-0.88013 -0.18799,-1.76025 0,-2.3584 0.99121,-3.71704 0.99975,-1.36719 2.71728,-1.36719 1.75171,0 2.55494,1.45264 l 0.1538,-1.22193 1.42701,0 0,13.21045 -1.58081,0 0,-4.86206 z m -2.29859,0.13672 q 1.1023,0 1.70044,-0.95703 0.59815,-0.96558 0.59815,-2.74292 0,-1.77735 -0.59815,-2.72583 -0.5896,-0.95703 -1.70044,-0.95703 -1.11084,0 -1.70898,0.95703 -0.5896,0.95703 -0.5896,2.73437 0,1.7688 0.5896,2.73438 0.59814,0.95703 1.70898,0.95703 z"
         style="font-size:17.5px"
         id="path4197"
         inkscape:connector-curvature="0" />
      <path
         d="m 246.96481,131.36331 1.42701,0 0.1538,1.87134 q 0.40162,-1.01685 1.20484,-1.55518 0.81177,-0.54687 1.9397,-0.54687 1.17919,0 2.05078,0.59814 l 0,1.60645 q -0.92286,-0.75195 -2.1875,-0.75195 -1.45264,0 -2.23023,0.93139 -0.77759,0.92285 -0.77759,2.65747 l 0,4.75952 -1.58081,0 0,-9.57031 z"
         style="font-size:17.5px"
         id="path4199"
         inkscape:connector-curvature="0" />
      <path
         d="m 259.94455,141.18143 q -1.36719,0 -3.21289,-0.59815 l 0,-1.62353 q 1.79443,0.90576 3.1958,0.90576 0.99976,0 1.5979,-0.4187 0.59814,-0.4187 0.59814,-1.11939 0,-0.60669 -0.50415,-0.97412 -0.4956,-0.37597 -1.58935,-0.60669 l -0.65796,-0.13672 q -1.3501,-0.27343 -1.98242,-0.89721 -0.62378,-0.63233 -0.62378,-1.71753 0,-1.37573 0.93994,-2.11914 0.93994,-0.74341 2.67456,-0.74341 1.46973,0 2.84546,0.56396 l 0,1.53809 q -1.34155,-0.78613 -2.80273,-0.78613 -2.06788,0 -2.06788,1.40991 0,0.46142 0.17945,0.73486 0.17944,0.26489 0.68359,0.45288 0.50415,0.17945 1.48682,0.37598 l 0.63232,0.11963 q 2.37549,0.46997 2.37549,2.58911 0,1.41846 -1.0083,2.23877 -1.0083,0.81177 -2.76001,0.81177 z"
         style="font-size:17.5px"
         id="path4201"
         inkscape:connector-curvature="0" />
      <path
         d="m 272.33469,140.9678 q -1.76026,0 -2.49512,-0.70922 -0.72632,-0.71778 -0.72632,-2.44385 l 0,-5.22949 -2.55493,0 0,-1.22193 2.55493,0 0,-2.50366 1.57227,-0.68359 0,3.18725 3.57177,0 0,1.22193 -3.57177,0 0,5.22949 q 0,1.05102 0.40161,1.47827 0.40161,0.4187 1.40136,0.4187 l 1.7688,0 0,1.2561 -1.9226,0 z"
         style="font-size:17.5px"
         id="path4203"
         inkscape:connector-curvature="0" />
      <path
         d="m 280.54636,141.18143 q -2.91382,0 -2.91382,-3.87085 l 0,-5.93018 1.57226,0 0,5.93018 q 0,2.50366 1.87134,2.50366 1.09375,0 1.6919,-0.78613 0.59814,-0.79468 0.59814,-2.23877 l 0,-5.40894 1.58081,0 0,9.55322 -1.427,0 -0.15381,-1.43554 q -0.85449,1.68335 -2.81982,1.68335 z"
         style="font-size:17.5px"
         id="path4205"
         inkscape:connector-curvature="0" />
      <path
         d="m 287.34811,131.36331 1.63208,0 2.7771,8.03223 2.78565,-8.03223 1.63208,0 -3.40088,9.57031 -2.02515,0 -3.40088,-9.57031 z"
         style="font-size:17.5px"
         id="path4207"
         inkscape:connector-curvature="0" />
      <path
         d="m 297.02097,131.36331 1.55517,0 1.66626,7.73316 1.36719,-4.93897 1.34155,0 1.38428,4.93897 1.66626,-7.73316 1.55517,0 -2.23877,9.57031 -1.5039,0 -1.52954,-5.24658 -1.521,5.24658 -1.5039,0 -2.23877,-9.57031 z"
         style="font-size:17.5px"
         id="path4209"
         inkscape:connector-curvature="0" />
      <path
         d="m 311.95749,135.94339 -3.42651,-4.58008 1.74316,0 2.53784,3.4607 2.52075,-3.4607 1.7688,0 -3.42651,4.58008 3.75976,4.99023 -1.82006,0 -2.80274,-3.83667 -2.79419,3.83667 -1.82007,0 3.75977,-4.99023 z"
         style="font-size:17.5px"
         id="path4211"
         inkscape:connector-curvature="0" />
      <path
         d="m 319.64792,143.25784 0.9314,0 q 0.69213,0 1.06811,-0.39306 0.4187,-0.43579 1.01685,-2.08496 l -3.69996,-9.41651 1.66626,0 2.83692,7.48535 2.79419,-7.48535 1.66626,0 -2.52075,6.49414 q -0.29908,0.76905 -0.52124,1.34156 -0.0684,0.17089 -0.11109,0.27343 -0.0342,0.094 -0.094,0.24781 -0.0513,0.1538 -0.1709,0.4956 l -0.10254,0.27344 q -0.33325,0.93139 -0.63232,1.63208 -0.29053,0.70923 -0.49561,1.06811 -0.76904,1.38428 -2.36694,1.38428 l -1.26465,0 0,-1.31592 z"
         style="font-size:17.5px"
         id="path4213"
         inkscape:connector-curvature="0" />
      <path
         d="m 330.33762,139.48099 5.49438,-6.87866 -5.28931,0 0,-1.25611 6.94703,0 0,1.43555 -5.49439,6.87012 5.49439,0 0,1.28173 -7.1521,0 0,-1.45263 z"
         style="font-size:17.5px"
         id="path4215"
         inkscape:connector-curvature="0" />
      <path
         d="m 69.640594,150.05106 2.093506,0 3.90503,12.75756 -1.785889,0 -0.939941,-3.32397 -4.468995,0 -0.922851,3.32397 -1.785889,0 3.905029,-12.75756 z m 2.862549,8.04931 -1.820068,-6.52832 -1.820068,6.52832 3.640136,0 z"
         style="font-size:17.5px"
         id="path4217"
         inkscape:connector-curvature="0" />
      <path
         d="m 77.365204,150.05106 3.776855,0 q 1.948243,0 3.016358,0.84594 1.05957,0.84595 1.05957,2.40113 0,0.59814 -0.145264,1.05957 -0.145263,0.45288 -0.410156,0.77758 -0.273437,0.32471 -0.692139,0.54688 -0.418701,0.21362 -0.99121,0.29907 1.264648,0.18799 1.973876,1.06812 0.709229,0.88012 0.709229,2.2644 0,1.72608 -1.136475,2.6062 -1.145019,0.88867 -3.383789,0.88867 l -3.776855,0 0,-12.75756 z m 3.742676,5.26367 q 1.264648,0 1.811523,-0.48706 0.55542,-0.47852 0.55542,-1.51245 0,-0.99976 -0.546875,-1.41846 -0.55542,-0.42725 -1.820068,-0.42725 l -2.008057,0 0,3.84522 2.008057,0 z m 0.03418,6.07544 q 1.486817,0 2.144776,-0.52979 0.640869,-0.52978 0.640869,-1.72607 0,-1.24756 -0.675049,-1.83716 -0.683594,-0.58106 -2.110596,-0.58106 l -2.042236,0 0,4.67408 2.042236,0 z"
         style="font-size:17.5px"
         id="path4219"
         inkscape:connector-curvature="0" />
      <path
         d="m 92.814423,163.05643 q -1.196289,0 -2.161866,-0.42725 -0.957031,-0.42725 -1.640625,-1.30737 -1.350097,-1.75171 -1.350097,-4.87061 0,-2.08496 0.615234,-3.56323 0.615234,-1.48682 1.768799,-2.27295 1.162109,-0.79468 2.768555,-0.79468 0.828857,0 1.486816,0.16236 0.666504,0.16235 1.341553,0.53833 l 0,1.7688 q -0.62378,-0.52124 -1.358643,-0.79468 -0.743408,-0.27344 -1.478271,-0.27344 -1.66626,0 -2.503662,1.29883 -0.837403,1.29883 -0.837403,3.92212 0,5.2124 3.358155,5.2124 0.734863,0 1.478271,-0.27344 0.717773,-0.27344 1.341553,-0.79468 l 0,1.7688 q -0.675049,0.35035 -1.350098,0.52979 -0.683594,0.1709 -1.478271,0.1709 z"
         style="font-size:17.5px"
         id="path4221"
         inkscape:connector-curvature="0" />
      <path
         d="m 98.172089,150.05106 2.589111,0 q 2.92236,0 4.30664,1.55517 1.38428,1.55518 1.38428,4.83643 0,3.25561 -1.38428,4.81079 -1.38428,1.55517 -4.30664,1.55517 l -2.589111,0 0,-12.75756 z m 2.554931,11.33911 q 2.1875,0 3.04199,-1.07666 0.86304,-1.06812 0.86304,-3.88794 0,-2.82837 -0.85449,-3.88794 -0.43579,-0.54688 -1.21338,-0.80322 -0.76904,-0.2649 -1.83716,-0.2649 l -0.820312,0 0,9.92066 0.820312,0 z"
         style="font-size:17.5px"
         id="path4223"
         inkscape:connector-curvature="0" />
      <path
         d="m 109.21213,150.05106 7.5708,0 0,1.45263 -5.84473,0 0,3.77686 5.58838,0 0,1.45263 -5.58838,0 0,4.62281 6.00708,0 0,1.45263 -7.73315,0 0,-12.75756 z"
         style="font-size:17.5px"
         id="path4225"
         inkscape:connector-curvature="0" />
      <path
         d="m 120.04709,150.05106 7.51098,0 0,1.45263 -5.77636,0 0,3.93067 5.23803,0 0,1.45263 -5.23803,0 0,5.92163 -1.73462,0 0,-12.75756 z"
         style="font-size:17.5px"
         id="path4227"
         inkscape:connector-curvature="0" />
      <path
         d="m 134.56491,163.05643 q -1.22192,0 -2.17041,-0.44434 -0.93994,-0.44433 -1.5979,-1.29883 -1.34155,-1.75171 -1.34155,-4.86206 0,-3.16162 1.36719,-4.89624 1.36718,-1.73462 3.76831,-1.73462 0.8374,0 1.57226,0.22217 0.75195,0.23926 1.41846,0.69214 l 0,1.7688 q -0.36743,-0.35034 -0.73486,-0.5896 -0.35889,-0.23926 -0.6836,-0.38452 -0.37598,-0.16236 -0.76904,-0.23072 -0.39307,-0.0769 -0.77759,-0.0769 -1.66626,0 -2.51221,1.29883 -0.84594,1.29883 -0.84594,3.93921 0,1.35009 0.20507,2.31567 0.20508,0.95703 0.61524,1.5979 0.81177,1.28174 2.51221,1.28174 0.56396,0 0.99975,-0.13672 0.20508,-0.0684 0.40161,-0.16235 0.19654,-0.10254 0.37598,-0.24781 l 0,-3.42651 -1.85425,0 0,-1.41846 3.50342,0 0,5.49439 q -0.70068,0.64941 -1.55518,0.96558 -0.87158,0.33325 -1.89697,0.33325 z"
         style="font-size:17.5px"
         id="path4229"
         inkscape:connector-curvature="0" />
      <path
         d="m 140.28146,150.05106 1.73462,0 0,5.22949 4.72534,0 0,-5.22949 1.73462,0 0,12.75756 -1.73462,0 0,-6.07544 -4.72534,0 0,6.07544 -1.73462,0 0,-12.75756 z"
         style="font-size:17.5px"
         id="path4231"
         inkscape:connector-curvature="0" />
      <path
         d="m 151.35568,161.35599 2.67456,0 0,-9.8523 -2.67456,0 0,-1.45263 7.08374,0 0,1.45263 -2.67456,0 0,9.8523 2.67456,0 0,1.45263 -7.08374,0 0,-1.45263 z"
         style="font-size:17.5px"
         id="path4233"
         inkscape:connector-curvature="0" />
      <path
         d="m 164.45505,163.05643 q -0.90576,0 -1.66626,-0.18799 -0.81177,-0.18799 -1.6919,-0.58106 l 0,-2.0166 q 0.77759,0.69214 1.60645,1.03394 0.85449,0.35034 1.72607,0.35034 0.57251,0 1.0083,-0.15381 0.44434,-0.15381 0.69214,-0.48706 0.47852,-0.63232 0.47852,-2.36694 l 0,-7.14356 -3.25562,0 0,-1.45263 4.98169,0 0,8.59619 q 0,1.60644 -0.39306,2.58056 -0.39307,0.96558 -1.24756,1.40137 -0.8545,0.42725 -2.23877,0.42725 z"
         style="font-size:17.5px"
         id="path4235"
         inkscape:connector-curvature="0" />
      <path
         d="m 171.86349,150.05106 1.73462,0 0,5.67382 5.39185,-5.67382 2.02515,0 -4.9646,5.2124 5.10986,7.54516 -2.08496,0 -4.16138,-6.3916 -1.31592,1.40137 0,4.99023 -1.73462,0 0,-12.75756 z"
         style="font-size:17.5px"
         id="path4237"
         inkscape:connector-curvature="0" />
      <path
         d="m 183.05734,150.05106 1.73462,0 0,11.30493 6.16089,0 0,1.45263 -7.89551,0 0,-12.75756 z"
         style="font-size:17.5px"
         id="path4239"
         inkscape:connector-curvature="0" />
      <path
         d="m 192.48239,150.05106 2.30713,0 2.20459,6.49414 2.22168,-6.49414 2.31567,0 0,12.75756 -1.5979,0 0,-11.27075 -2.27295,6.72486 -1.30737,0 -2.28149,-6.72486 0,11.27075 -1.58936,0 0,-12.75756 z"
         style="font-size:17.5px"
         id="path4241"
         inkscape:connector-curvature="0" />
      <path
         d="m 203.46262,150.05106 2.1875,0 4.30664,10.5017 0,-10.5017 1.66626,0 0,12.75756 -2.1875,0 -4.30664,-10.5017 0,10.5017 -1.66626,0 0,-12.75756 z"
         style="font-size:17.5px"
         id="path4243"
         inkscape:connector-curvature="0" />
      <path
         d="m 218.06589,163.05643 q -2.16187,0 -3.21289,-1.63208 -1.05103,-1.62354 -1.05103,-4.98169 0,-3.35816 1.05957,-4.98169 1.06812,-1.64063 3.20435,-1.64063 1.05102,0 1.86279,0.39307 0.81177,0.39307 1.35864,1.24756 1.05103,1.64062 1.05103,4.98169 0,3.33252 -1.05103,4.97314 -0.54687,0.85449 -1.35864,1.24756 -0.81177,0.39307 -1.86279,0.39307 z m 0,-1.40137 q 1.31592,0 1.89697,-1.20483 0.57251,-1.17066 0.57251,-4.00757 0,-2.83692 -0.57251,-4.01612 -0.58105,-1.20483 -1.89697,-1.20483 -1.29883,0 -1.87989,1.20483 -0.58105,1.23047 -0.58105,4.01612 0,2.7771 0.58105,4.00757 0.58106,1.20483 1.87989,1.20483 z"
         style="font-size:17.5px"
         id="path4245"
         inkscape:connector-curvature="0" />
      <path
         d="m 224.79929,150.05106 3.72558,0 q 2.11914,0 3.23853,0.96557 0.57251,0.50415 0.8374,1.23047 0.26489,0.71777 0.26489,1.62354 0,1.87988 -1.09375,2.84545 -1.0852,0.96558 -3.24707,0.96558 l -1.99951,0 0,5.12695 -1.72607,0 0,-12.75756 z m 3.72558,6.21215 q 0.64087,0 1.1023,-0.17089 0.46142,-0.1709 0.76904,-0.46143 0.6665,-0.63232 0.6665,-1.7688 0,-1.13647 -0.6665,-1.7688 -0.64941,-0.62378 -1.87134,-0.62378 l -1.99951,0 0,4.7937 1.99951,0 z"
         style="font-size:17.5px"
         id="path4247"
         inkscape:connector-curvature="0" />
      <path
         d="m 239.45383,163.03934 q -0.0427,0 -0.1709,0.009 -0.12818,0.009 -0.15381,0.009 -2.12769,0.0513 -3.21289,-1.64063 -1.08521,-1.70044 -1.05957,-4.97314 0,-3.35816 1.05957,-4.98169 1.06811,-1.64063 3.20434,-1.64063 1.05103,0 1.8628,0.39307 0.81177,0.39307 1.35864,1.24756 1.05103,1.64062 1.05103,4.98169 0,2.49511 -0.58106,4.04175 -0.28198,0.75195 -0.72632,1.29882 -0.44433,0.54688 -1.05102,0.8545 l 3.09326,3.16162 -2.0166,0 -2.65747,-2.76001 z m -0.33326,-1.38428 q 1.31592,0 1.89698,-1.20483 0.57251,-1.17066 0.57251,-4.00757 0,-2.83692 -0.57251,-4.01612 -0.58106,-1.20483 -1.89698,-1.20483 -1.29882,0 -1.87988,1.20483 -0.58105,1.23047 -0.58105,4.01612 0,2.7771 0.58105,4.00757 0.58106,1.20483 1.87988,1.20483 z"
         style="font-size:17.5px"
         id="path4249"
         inkscape:connector-curvature="0" />
      <path
         d="m 245.60617,150.05106 3.55469,0 q 2.11059,0 3.22143,0.94848 1.11939,0.95703 1.11939,2.70874 0,0.67505 -0.1709,1.18775 -0.1709,0.50415 -0.5127,0.90576 -0.67504,0.80322 -1.93969,0.98266 0.69214,0.1709 1.13647,0.64087 0.23926,0.24781 0.5127,0.70069 0.28198,0.44433 0.65796,1.19629 l 1.73462,3.48632 -1.85425,0 -1.521,-3.22143 q -0.33325,-0.70923 -0.63232,-1.14502 -0.29053,-0.43579 -0.54688,-0.63233 -0.26489,-0.20507 -0.62378,-0.29907 -0.35034,-0.094 -0.75195,-0.094 l -1.64917,0 0,5.39184 -1.73462,0 0,-12.75756 z m 3.62305,5.94726 q 1.23901,0 1.8457,-0.55542 0.60669,-0.55542 0.60669,-1.68335 0,-1.11938 -0.64087,-1.70898 -0.30762,-0.27344 -0.77759,-0.42725 -0.46142,-0.15381 -1.10229,-0.15381 l -1.82007,0 0,4.52881 1.88843,0 z"
         style="font-size:17.5px"
         id="path4251"
         inkscape:connector-curvature="0" />
      <path
         d="m 259.90182,163.05643 q -0.9143,0 -1.82006,-0.19654 -0.90577,-0.19653 -1.82007,-0.57251 l 0,-1.83715 q 0.96557,0.61523 1.86279,0.9143 0.86304,0.29053 1.75171,0.29053 1.30737,0 2.04224,-0.58105 0.72631,-0.58106 0.72631,-1.68335 0,-0.91431 -0.4956,-1.40992 -0.27344,-0.28198 -0.69214,-0.46142 -0.41016,-0.17945 -1.05102,-0.32471 l -0.92286,-0.21362 q -0.86303,-0.19654 -1.51245,-0.48706 -0.64087,-0.29053 -1.06811,-0.72632 -0.80323,-0.80322 -0.80323,-2.17896 0,-1.73462 1.15357,-2.75146 0.54687,-0.48706 1.30737,-0.75195 0.76905,-0.2649 1.74317,-0.2649 0.7434,0 1.54663,0.16236 0.39306,0.0855 0.82031,0.21362 0.43579,0.11963 0.88867,0.29053 l 0,1.75171 q -0.41015,-0.2649 -0.80322,-0.44434 -0.38452,-0.18799 -0.76904,-0.31616 -0.79468,-0.25635 -1.58936,-0.25635 -1.22192,0 -1.9397,0.57251 -0.70923,0.57251 -0.70923,1.57227 0,0.43579 0.11963,0.73486 0.12818,0.29053 0.35035,0.50415 0.48706,0.46143 1.73461,0.75195 l 0.90577,0.20508 q 1.7688,0.40161 2.6062,1.31592 0.82885,0.88013 0.82885,2.42676 0,0.97412 -0.29907,1.66626 -0.29907,0.68359 -0.82031,1.12793 -1.11938,0.95703 -3.27271,0.95703 z"
         style="font-size:17.5px"
         id="path4253"
         inkscape:connector-curvature="0" />
      <path
         d="m 269.84811,151.50369 -4.00756,0 0,-1.45263 9.73266,0 0,1.45263 -3.99048,0 0,11.30493 -1.73462,0 0,-11.30493 z"
         style="font-size:17.5px"
         id="path4255"
         inkscape:connector-curvature="0" />
      <path
         d="m 281.22995,163.05643 q -0.88867,0 -1.61499,-0.24781 -0.33325,-0.11962 -0.69214,-0.30761 -0.35034,-0.19654 -0.62378,-0.44434 -0.26489,-0.23926 -0.46997,-0.56396 -0.20508,-0.32471 -0.35034,-0.81177 -0.13672,-0.42725 -0.19653,-1.06812 -0.0598,-0.64941 -0.0598,-1.70044 l 0,-7.86132 1.73462,0 0,8.64746 q 0,0.93139 0.0513,1.32446 0.0513,0.39307 0.17944,0.61523 0.27344,0.50415 0.79468,0.7605 0.5127,0.25635 1.24756,0.25635 0.74341,0 1.2561,-0.25635 0.52979,-0.27344 0.79468,-0.7605 0.13672,-0.2478 0.17944,-0.60669 0.0513,-0.40161 0.0513,-1.31591 l 0,-8.66455 1.72608,0 0,7.86132 q 0,1.12793 -0.0684,1.76026 -0.0684,0.62378 -0.1709,1.0083 -0.23071,0.82886 -0.8374,1.37573 -0.28198,0.25635 -0.63233,0.44434 -0.34179,0.18799 -0.67504,0.30761 -0.31617,0.11109 -0.71778,0.17945 -0.40161,0.0684 -0.90576,0.0684 z"
         style="font-size:17.5px"
         id="path4257"
         inkscape:connector-curvature="0" />
      <path
         d="m 286.98068,150.05106 1.78589,0 2.99072,11.30493 2.99927,-11.30493 1.78589,0 -3.73413,12.75756 -2.09351,0 -3.73413,-12.75756 z"
         style="font-size:17.5px"
         id="path4259"
         inkscape:connector-curvature="0" />
      <path
         d="m 297.02097,150.05106 1.68335,0 1.22192,10.35644 1.45264,-6.85303 1.80297,0 1.46973,6.87012 1.22192,-10.37353 1.68335,0 -1.90551,12.75756 -1.63208,0 -1.73462,-7.57934 -1.72608,7.57934 -1.63208,0 -1.90551,-12.75756 z"
         style="font-size:17.5px"
         id="path4261"
         inkscape:connector-curvature="0" />
      <path
         d="m 311.97458,156.04959 -3.69141,-5.99853 1.85425,0 2.80274,4.81079 2.854,-4.81079 1.85425,0 -3.81958,5.99853 4.09301,6.75903 -1.85424,0 -3.12744,-5.49438 -3.37525,5.49438 -1.86279,0 4.27246,-6.75903 z"
         style="font-size:17.5px"
         id="path4263"
         inkscape:connector-curvature="0" />
      <path
         d="m 322.46774,157.08353 -4.07592,-7.03247 1.83715,0 3.11035,5.6311 3.10181,-5.6311 1.85425,0 -4.09302,7.03247 0,5.72509 -1.73462,0 0,-5.72509 z"
         style="font-size:17.5px"
         id="path4265"
         inkscape:connector-curvature="0" />
      <path
         d="m 329.54294,161.49271 6.48559,-9.98902 -6.2976,0 0,-1.45263 8.28003,0 0,1.31591 -6.66504,9.98902 6.85302,0 0,1.45263 -8.656,0 0,-1.31591 z"
         style="font-size:17.5px"
         id="path4267"
         inkscape:connector-curvature="0" />
      <path
         d="m 70.700165,184.93143 q -1.999512,0 -3.059082,-1.29029 -1.051026,-1.29882 -1.051026,-3.72558 0,-2.4353 1.059571,-3.73413 1.05957,-1.29883 3.041992,-1.29883 1.982422,0 3.033447,1.29883 1.05957,1.29028 1.05957,3.74267 0,2.43531 -1.051025,3.72559 -1.051025,1.28174 -3.033447,1.28174 z m -0.0085,-1.33301 q 1.170654,0 1.794433,-0.95703 0.632325,-0.95703 0.632325,-2.74292 0,-1.77735 -0.632325,-2.72583 -0.623779,-0.95703 -1.794433,-0.95703 -1.179199,0 -1.811524,0.95703 -0.623779,0.94848 -0.623779,2.72583 0,1.78589 0.632324,2.74292 0.632325,0.95703 1.802979,0.95703 z"
         style="font-size:17.5px"
         id="path4269"
         inkscape:connector-curvature="0" />
      <path
         d="m 81.210419,184.93143 q -2.161866,0 -3.212891,-1.63208 -1.051025,-1.62354 -1.051025,-4.98169 0,-3.35816 1.05957,-4.98169 1.068115,-1.64063 3.204346,-1.64063 1.051025,0 1.862793,0.39307 0.811767,0.39307 1.358642,1.24756 1.051026,1.64062 1.051026,4.98169 0,3.33252 -1.051026,4.97314 -0.546875,0.85449 -1.358642,1.24756 -0.811768,0.39307 -1.862793,0.39307 z m 0,-1.40137 q 1.315918,0 1.896972,-1.20483 0.57251,-1.17066 0.57251,-4.00757 0,-2.83692 -0.57251,-4.01612 -0.581054,-1.20483 -1.896972,-1.20483 -1.298828,0 -1.879883,1.20483 -0.581055,1.23047 -0.581055,4.01612 0,2.7771 0.581055,4.00757 0.581055,1.20483 1.879883,1.20483 z"
         style="font-size:17.5px"
         id="path4271"
         inkscape:connector-curvature="0" />
      <path
         d="m 91.737762,184.93143 q -2.050781,0 -3.084716,-1.67481 -1.042481,-1.68335 -1.042481,-4.93896 0,-3.26416 1.042481,-4.94751 1.033935,-1.67481 3.084716,-1.67481 2.050782,0 3.093262,1.67481 0.512695,0.82031 0.777588,2.05078 0.264893,1.22192 0.264893,2.89673 0,1.6748 -0.264893,2.89673 -0.264893,1.22192 -0.777588,2.04223 -1.051025,1.67481 -3.093262,1.67481 z m 0,-1.36719 q 1.221924,0 1.811524,-1.29883 0.589599,-1.29028 0.589599,-3.94775 0,-2.66602 -0.589599,-3.94776 -0.5896,-1.30737 -1.811524,-1.30737 -1.204834,0 -1.794433,1.29883 -0.299072,0.64087 -0.452881,1.61499 -0.145264,0.96558 -0.145264,2.34131 0,2.67456 0.598145,3.94775 0.598144,1.29883 1.794433,1.29883 z m 0.01709,-2.2644 q -0.273437,0 -0.427246,-0.36744 -0.145263,-0.36743 -0.247803,-0.86303 -0.08545,-0.39307 -0.145263,-0.94849 -0.05127,-0.55542 -0.05127,-0.84595 0,-0.20508 0.03418,-0.73486 0.03418,-0.52979 0.136719,-0.99976 0.247802,-1.22192 0.666504,-1.22192 0.239257,0 0.401611,0.32471 0.170898,0.3247 0.290527,0.92285 0.08545,0.42724 0.136719,0.95703 0.05127,0.52978 0.05127,0.82031 0,0.1709 -0.03418,0.67505 -0.02563,0.50415 -0.111084,1.03394 -0.213623,1.24756 -0.700684,1.24756 z"
         style="font-size:17.5px"
         id="path4273"
         inkscape:connector-curvature="0" />
      <path
         d="m 102.25656,184.93143 q -1.9397,0 -3.041991,-0.95703 -1.09375,-0.95704 -1.09375,-2.70874 0,-1.35865 0.683594,-2.22168 0.675049,-0.8545 1.956787,-1.13648 -0.52124,-0.12817 -0.965576,-0.39307 -0.444336,-0.26489 -0.751953,-0.64941 -0.324707,-0.40161 -0.478516,-0.88013 -0.145264,-0.47851 -0.145264,-1.01684 0,-1.47827 1.033936,-2.38404 0.50415,-0.43579 1.196293,-0.65795 0.70068,-0.23072 1.61499,-0.23072 1.78588,0 2.81982,0.88867 1.03394,0.88013 1.03394,2.39258 0,1.12793 -0.61524,1.88843 -0.60669,0.75195 -1.72607,1.04248 1.29028,0.28198 1.96533,1.13648 0.67505,0.85449 0.67505,2.20459 0,0.89721 -0.29053,1.58081 -0.28198,0.67505 -0.81177,1.13647 -1.11084,0.96558 -3.05908,0.96558 z m 0.009,-7.6648 q 1.04248,0 1.58935,-0.53833 0.54688,-0.53833 0.54688,-1.56372 0,-1.04248 -0.53833,-1.58935 -0.54688,-0.54688 -1.5979,-0.54688 -1.03394,0 -1.58081,0.54688 -0.54688,0.54687 -0.54688,1.58935 0,1.02539 0.54688,1.56372 0.54687,0.53833 1.58081,0.53833 z m 0.0256,6.3147 q 1.13648,0 1.76025,-0.64941 0.63233,-0.65796 0.63233,-1.82007 0,-0.63233 -0.1709,-1.08521 -0.16235,-0.45288 -0.46143,-0.75195 -0.64086,-0.64942 -1.78588,-0.64942 -1.14502,0 -1.77735,0.64087 -0.632322,0.64942 -0.632322,1.82007 0,1.1792 0.632322,1.83716 0.64942,0.65796 1.80298,0.65796 z"
         style="font-size:17.5px"
         id="path4275"
         inkscape:connector-curvature="0" />
      <path
         d="m 122.52512,173.37869 q -0.25635,0 -0.25635,-0.25635 l 0,-1.47827 q 0,-0.25634 0.25635,-0.25634 l 1.23046,0 q 0.25635,0 0.25635,0.25634 l 0,1.47827 q 0,0.25635 -0.25635,0.25635 l -1.23046,0 z m 2.87109,11.37329 q -1.40991,0 -2.1875,-0.90576 -0.76904,-0.9143 -0.76904,-2.56347 l 0,-4.93897 -2.09351,0 0,-1.23047 3.66577,0 0,6.16944 q 0,1.04248 0.39307,1.58935 0.39307,0.54688 1.14502,0.54688 l 1.83716,0 0,1.333 -1.99097,0 z"
         style="font-size:17.5px"
         id="path4277"
         inkscape:connector-curvature="0" />
      <path
         d="m 130.30099,183.23099 2.67457,0 0,-9.8523 -2.67457,0 0,-1.45263 7.08375,0 0,1.45263 -2.67457,0 0,9.8523 2.67457,0 0,1.45263 -7.08375,0 0,-1.45263 z"
         style="font-size:17.5px"
         id="path4279"
         inkscape:connector-curvature="0" />
      <path
         d="m 146.12619,184.75198 q -1.40991,0 -2.1875,-0.90576 -0.76904,-0.9143 -0.76904,-2.56347 l 0,-8.66456 -2.52075,0 0,-1.23046 4.09301,0 0,9.89502 q 0,1.04248 0.39307,1.58935 0.39307,0.54688 1.14502,0.54688 l 1.83716,0 0,1.333 -1.99097,0 z"
         style="font-size:17.5px"
         id="path4281"
         inkscape:connector-curvature="0" />
      <path
         d="m 151.47531,171.92606 1.73462,0 0,11.30493 6.16089,0 0,1.45263 -7.89551,0 0,-12.75756 z"
         style="font-size:17.5px"
         id="path4283"
         inkscape:connector-curvature="0" />
      <path
         d="m 162.47263,183.23099 2.6831,0 0,-9.15161 -2.03369,2.31567 -0.93994,-1.14502 2.95654,-3.32397 1.72608,0 0,11.30493 2.64892,0 0,1.45263 -7.04101,0 0,-1.45263 z"
         style="font-size:17.5px"
         id="path4285"
         inkscape:connector-curvature="0" />
      <path
         d="m 188.97897,186.84549 q -2.11059,0 -2.84546,-0.63232 -0.72631,-0.62378 -0.72631,-2.52076 l 0,-2.04223 q 0,-1.28174 -0.45288,-1.78589 -0.46143,-0.49561 -1.65772,-0.49561 l -0.99121,0 0,-1.22192 0.99121,0 q 1.20483,0 1.65772,-0.48706 0.45288,-0.50415 0.45288,-1.7688 l 0,-2.05078 q 0,-1.89697 0.72631,-2.52075 0.70069,-0.62378 2.84546,-0.62378 l 0.54688,0 0,1.22192 -0.59815,0 q -1.19629,0 -1.55517,0.36743 -0.36743,0.36743 -0.36743,1.58936 l 0,2.11914 q 0,1.34155 -0.38453,1.94824 -0.39306,0.60669 -1.333,0.82031 0.94848,0.23072 1.333,0.83741 0.38453,0.60669 0.38453,1.93969 l 0,2.11914 q 0,1.22193 0.36743,1.58936 0.35888,0.36743 1.55517,0.36743 l 0.59815,0 0,1.23047 -0.54688,0 z"
         style="font-size:17.5px"
         id="path4287"
         inkscape:connector-curvature="0" />
      <path
         d="m 193.97775,185.69193 0.58106,0 q 1.19629,0 1.57226,-0.37598 0.36743,-0.36743 0.36743,-1.58081 l 0,-2.11914 q 0,-1.33301 0.38453,-1.9397 0.38452,-0.60669 1.333,-0.8374 -0.93994,-0.22217 -1.32446,-0.82031 -0.18799,-0.29053 -0.29053,-0.75196 -0.10254,-0.46997 -0.10254,-1.19629 l 0,-2.11914 q 0,-1.21338 -0.36743,-1.58081 -0.37597,-0.37597 -1.57226,-0.37597 l -0.58106,0 0,-1.22193 0.52979,0 q 2.14477,0 2.84546,0.62378 0.71777,0.62378 0.71777,2.52075 l 0,2.05078 q 0,0.66651 0.17944,1.09375 0.17945,0.41871 0.53833,0.67505 0.3418,0.24781 0.82886,0.36743 0.49561,0.11963 1.08521,0.11963 l 0.54687,0 0,1.22193 -0.54687,0 q -1.25611,0 -1.91407,0.4956 -0.35888,0.2649 -0.53833,0.69214 -0.17944,0.42725 -0.17944,1.09375 l 0,2.04224 q 0,1.88843 -0.71777,2.52075 -0.73487,0.63232 -2.84546,0.63232 l -0.52979,0 0,-1.23046 z"
         style="font-size:17.5px"
         id="path4289"
         inkscape:connector-curvature="0" />
      <path
         d="m 215.56223,170.70413 5.33203,0 0,1.22193 -3.75977,0 0,13.84277 3.75977,0 0,1.22192 -5.33203,0 0,-16.28662 z"
         style="font-size:17.5px"
         id="path4291"
         inkscape:connector-curvature="0" />
      <path
         d="m 225.77341,185.76883 3.75976,0 0,-13.83423 -3.75976,0 0,-1.22192 5.33203,0 0,16.27807 -5.33203,0 0,-1.22192 z"
         style="font-size:17.5px"
         id="path4293"
         inkscape:connector-curvature="0" />
      <path
         d="m 249.50266,188.44339 q -0.69214,0 -1.39283,-0.12817 -0.69214,-0.12818 -1.36718,-0.3418 l 0,-1.55518 q 0.64941,0.30762 1.36718,0.53833 0.72632,0.23072 1.47827,0.23072 0.92286,0 1.43555,-0.36744 0.5127,-0.36743 0.71777,-1.02539 0.21363,-0.64941 0.21363,-1.49536 l 0,-1.13647 q -0.38452,0.82031 -1.04248,1.20483 -0.65796,0.38452 -1.54663,0.38452 -1.01685,0 -1.72608,-0.43579 -0.70923,-0.43579 -1.14502,-1.15356 -0.42724,-0.72632 -0.62378,-1.5979 -0.19653,-0.88013 -0.19653,-1.75171 0,-0.87158 0.19653,-1.74317 0.19654,-0.87158 0.63233,-1.58935 0.43579,-0.72632 1.14502,-1.16211 0.71777,-0.43579 1.74316,-0.43579 0.86304,0 1.50391,0.35889 0.64087,0.35888 1.05957,1.14502 l 0.15381,-1.23902 1.41845,0 0,8.9209 q 0,2.00806 -0.95703,3.18726 -0.94848,1.18774 -3.06762,1.18774 z m 0.17944,-4.99878 q 1.11938,0 1.69189,-0.9314 0.58106,-0.93139 0.58106,-2.70874 0,-0.57251 -0.0855,-1.19629 -0.0854,-0.62377 -0.32471,-1.1621 -0.23071,-0.54688 -0.68359,-0.88868 -0.45288,-0.34179 -1.18775,-0.34179 -1.13647,0 -1.74316,0.90576 -0.59815,0.90576 -0.59815,2.66601 0,1.77735 0.61524,2.71729 0.61523,0.93994 1.73462,0.93994 z"
         style="font-size:17.5px"
         id="path4295"
         inkscape:connector-curvature="0" />
      <path
         d="m 259.42331,184.93143 q -0.31616,0 -0.64941,-0.0342 -0.32471,-0.0256 -0.62378,-0.094 -0.56397,-0.11963 -1.22193,-0.38452 l 0,-1.58935 q 0.53833,0.31616 1.14502,0.47851 0.63233,0.1709 1.25611,0.1709 1.64917,0 2.49511,-1.23901 0.8374,-1.24756 0.8374,-3.6316 -0.19653,0.4358 -0.4956,0.76905 -0.29907,0.33325 -0.63232,0.54687 -0.70923,0.45288 -1.76026,0.45288 -1.74316,0 -2.76001,-1.13647 -1.01684,-1.14502 -1.01684,-3.18726 0,-1.0083 0.2478,-1.82861 0.25635,-0.82886 0.79468,-1.40991 1.01684,-1.11939 2.94799,-1.11939 1.17066,0 1.94825,0.4187 0.77758,0.41016 1.28173,1.18775 0.54688,0.85449 0.79468,2.07641 0.24781,1.22193 0.24781,2.76001 0,1.6919 -0.29908,2.96509 -0.29052,1.2732 -0.93139,2.13623 -1.25611,1.6919 -3.60596,1.6919 z m 0.55542,-5.90454 q 0.59814,0 1.03393,-0.20508 0.4358,-0.21363 0.72632,-0.58106 0.62378,-0.78613 0.62378,-2.20459 0,-1.41845 -0.62378,-2.20459 -0.29052,-0.36743 -0.72632,-0.57251 -0.43579,-0.21362 -1.03393,-0.21362 -0.52979,0 -0.96558,0.17944 -0.43579,0.17945 -0.73486,0.57251 -0.58105,0.7605 -0.58105,2.23877 0,1.47827 0.58105,2.23877 0.56396,0.75196 1.70044,0.75196 z"
         style="font-size:17.5px"
         id="path4297"
         inkscape:connector-curvature="0" />
      <path
         d="m 272.87302,183.49588 q -0.80323,1.46973 -2.6062,1.46973 -1.0254,0 -1.72608,-0.43579 -0.70068,-0.44434 -1.12793,-1.17066 -0.42724,-0.72632 -0.61523,-1.5979 -0.18799,-0.88013 -0.18799,-1.76025 0,-2.3584 0.99121,-3.71704 0.99976,-1.36719 2.71728,-1.36719 1.75171,0 2.55494,1.45264 l 0.1538,-1.22193 1.42701,0 0,13.21045 -1.58081,0 0,-4.86206 z m -2.29859,0.13672 q 1.1023,0 1.70044,-0.95703 0.59815,-0.96558 0.59815,-2.74292 0,-1.77735 -0.59815,-2.72583 -0.5896,-0.95703 -1.70044,-0.95703 -1.11084,0 -1.70898,0.95703 -0.5896,0.95703 -0.5896,2.73437 0,1.7688 0.5896,2.73438 0.59814,0.95703 1.70898,0.95703 z"
         style="font-size:17.5px"
         id="path4299"
         inkscape:connector-curvature="0" />
      <path
         d="m 282.30661,184.93143 q -1.19629,0 -2.16187,-0.42725 -0.95703,-0.42725 -1.64062,-1.30737 -1.3501,-1.75171 -1.3501,-4.87061 0,-2.08496 0.61524,-3.56323 0.61523,-1.48682 1.7688,-2.27295 1.1621,-0.79468 2.76855,-0.79468 0.82886,0 1.48682,0.16236 0.6665,0.16235 1.34155,0.53833 l 0,1.7688 q -0.62378,-0.52124 -1.35864,-0.79468 -0.74341,-0.27344 -1.47827,-0.27344 -1.66626,0 -2.50367,1.29883 -0.8374,1.29883 -0.8374,3.92212 0,5.2124 3.35816,5.2124 0.73486,0 1.47827,-0.27344 0.71777,-0.27344 1.34155,-0.79468 l 0,1.7688 q -0.67505,0.35035 -1.3501,0.52979 -0.68359,0.1709 -1.47827,0.1709 z"
         style="font-size:17.5px"
         id="path4301"
         inkscape:connector-curvature="0" />
      <path
         d="m 292.47507,184.93143 q -1.22193,0 -2.17041,-0.44434 -0.93994,-0.44433 -1.5979,-1.29883 -1.34156,-1.75171 -1.34156,-4.86206 0,-3.16162 1.36719,-4.89624 1.36719,-1.73462 3.76831,-1.73462 0.8374,0 1.57227,0.22217 0.75195,0.23926 1.41845,0.69214 l 0,1.7688 q -0.36743,-0.35034 -0.73486,-0.5896 -0.35889,-0.23926 -0.68359,-0.38452 -0.37598,-0.16236 -0.76905,-0.23072 -0.39306,-0.0769 -0.77758,-0.0769 -1.66626,0 -2.51221,1.29883 -0.84595,1.29883 -0.84595,3.93921 0,1.35009 0.20508,2.31567 0.20508,0.95703 0.61523,1.5979 0.81177,1.28174 2.51221,1.28174 0.56397,0 0.99976,-0.13672 0.20508,-0.0684 0.40161,-0.16235 0.19653,-0.10254 0.37598,-0.24781 l 0,-3.42651 -1.85425,0 0,-1.41846 3.50342,0 0,5.49439 q -0.70069,0.64941 -1.55518,0.96558 -0.87158,0.33325 -1.89697,0.33325 z"
         style="font-size:17.5px"
         id="path4303"
         inkscape:connector-curvature="0" />
      <path
         d="m 302.61789,184.91434 q -0.0427,0 -0.1709,0.009 -0.12817,0.009 -0.15381,0.009 -2.12768,0.0513 -3.21289,-1.64063 -1.0852,-1.70044 -1.05957,-4.97314 0,-3.35816 1.05957,-4.98169 1.06812,-1.64063 3.20435,-1.64063 1.05102,0 1.86279,0.39307 0.81177,0.39307 1.35864,1.24756 1.05103,1.64062 1.05103,4.98169 0,2.49511 -0.58106,4.04175 -0.28198,0.75195 -0.72631,1.29882 -0.44434,0.54688 -1.05103,0.8545 l 3.09326,3.16162 -2.0166,0 -2.65747,-2.76001 z m -0.33325,-1.38428 q 1.31592,0 1.89697,-1.20483 0.57251,-1.17066 0.57251,-4.00757 0,-2.83692 -0.57251,-4.01612 -0.58105,-1.20483 -1.89697,-1.20483 -1.29883,0 -1.87989,1.20483 -0.58105,1.23047 -0.58105,4.01612 0,2.7771 0.58105,4.00757 0.58106,1.20483 1.87989,1.20483 z"
         style="font-size:17.5px"
         id="path4305"
         inkscape:connector-curvature="0" />
      <path
         d="m 327.91086,177.50589 q -0.0342,0.95703 -0.15381,1.65771 -0.11108,0.70069 -0.42725,1.25611 -0.61523,1.23901 -2.02514,1.23901 -0.67505,0 -1.17066,-0.29053 -0.44433,-0.28198 -1.07666,-1.14501 -0.67505,-0.93995 -0.98266,-1.17066 -0.35035,-0.2478 -0.65796,-0.2478 -0.65796,0 -0.9314,0.61523 -0.29053,0.71778 -0.35889,2.17896 l -1.333,0 q 0.0342,-1.7688 0.58105,-2.90528 0.70923,-1.22192 1.99951,-1.22192 0.62378,0 1.12793,0.29907 0.25635,0.15381 0.54688,0.44434 0.29907,0.28198 0.57251,0.6665 0.46997,0.64087 0.89721,1.06812 0.35889,0.37597 0.75196,0.37597 0.68359,0 0.98266,-0.69213 0.30762,-0.70069 0.32471,-2.12769 l 1.33301,0 z"
         style="font-size:17.5px"
         id="path4307"
         inkscape:connector-curvature="0" />
      <path
         d="m 330.36325,178.84744 7.01538,0 0,1.40137 -7.01538,0 0,-1.40137 z"
         style="font-size:17.5px"
         id="path4309"
         inkscape:connector-curvature="0" />
      <path
         d="m 343.67624,179.9241 -3.79395,0 0,-1.45263 3.79395,0 0,-3.79395 1.43555,0 0,3.79395 3.80249,0 0,1.45263 -3.80249,0 0,3.79395 -1.43555,0 0,-3.79395 z"
         style="font-size:17.5px"
         id="path4311"
         inkscape:connector-curvature="0" />
      <path
         d="m 350.40964,176.73685 9.03198,0 0,1.45263 -9.03198,0 0,-1.45263 z m 0,3.46924 9.03198,0 0,1.46972 -9.03198,0 0,-1.46972 z"
         style="font-size:17.5px"
         id="path4313"
         inkscape:connector-curvature="0" />
      <path
         d="m 360.93698,181.91507 7.26318,-2.70874 -7.26318,-2.73438 0,-1.55517 9.03198,3.57178 0,1.41845 -9.03198,3.57178 0,-1.56372 z"
         style="font-size:17.5px"
         id="path4315"
         inkscape:connector-curvature="0" />
    </g>
  </g>
</svg>
