<svg xmlns="http://www.w3.org/2000/svg" width="325.624" height="115.63" viewBox="0 0 305.272 108.403"><g font-weight="400" font-family="Hack Nerd Font" letter-spacing="0" word-spacing="0" fill="#fff"><g style="line-height:125%;text-decoration-line:underline" font-size="27.5" text-decoration="underline"><path d="M0 .846h2.726v8.218h7.425V.846h2.726v20.048h-2.726v-9.548H2.726v9.548H0V.846zM21.538 21.283q-2.175 0-3.599-1.249-1.41-1.262-1.41-3.612 0-1.947.94-3.035.94-1.1 2.458-1.544 1.517-.443 3.236-.443h3.316v-.39q0-1.92-.98-2.671-.967-.752-2.726-.752-1.37 0-2.685.376-1.316.376-2.457 1.047V6.54q1.235-.457 2.497-.753 1.262-.295 2.578-.295 1.343 0 2.605.376 1.276.362 2.202 1.208.927.833 1.236 2.243.215.994.215 2.994v3.075q0 1.262.134 2.793.148 1.53.658 2.713h-2.484q-.229-.524-.363-1.115-.134-.604-.215-1.168-.792 1.356-2.202 2.014-1.396.658-2.954.658zm.604-2.068q1.531 0 2.484-.752.967-.752 1.41-1.96.443-1.222.443-2.619v-.55h-3.128q-1.048 0-2.055.241-.993.229-1.651.887-.645.658-.645 1.92 0 1.423.873 2.135.873.698 2.27.698zM40.713 21.283q-2.377 0-4.002-.994-1.61-1.007-2.443-2.793-.82-1.786-.82-4.109 0-2.336.833-4.108.833-1.786 2.457-2.78 1.625-1.007 4.029-1.007 1.248 0 2.255.295 1.008.282 2.055.86v2.591q-.953-.846-1.92-1.248-.954-.403-2.176-.403-1.812 0-2.9.778-1.074.78-1.558 2.095-.47 1.316-.47 2.927 0 1.598.484 2.928.483 1.316 1.557 2.094 1.075.78 2.874.78 1.182 0 2.202-.39t1.907-1.236v2.565q-1.92 1.155-4.364 1.155zM50.824 0h2.551v12.098l6.486-6.244h3.008l-5.922 5.667 6.848 9.373h-3.021l-5.56-7.762-1.839 1.733v6.029h-2.551V0zM82.742.846h3.437l6.768 16.503V.846h2.618v20.048h-3.437L85.36 4.39v16.503h-2.618V.846zM106.522 21.283q-3.478 0-5.465-2.081-1.974-2.095-1.974-5.707 0-2.243.78-4.055.791-1.813 2.335-2.874 1.558-1.074 3.84-1.074 3.009 0 4.66 1.934 1.665 1.92 1.665 5.33v1.209h-10.702v.08q0 2.35 1.236 3.747 1.235 1.396 3.652 1.396 1.397 0 2.699-.443 1.316-.443 2.538-1.074v2.457q-1.276.524-2.592.833-1.302.322-2.672.322zm3.37-9.252q0-1.249-.375-2.256-.376-1.007-1.209-1.598-.819-.59-2.175-.59-1.37 0-2.296.604-.913.59-1.437 1.598-.51 1.007-.645 2.242h8.138zM118.016 5.854h2.243l.241 2.941q.632-1.598 1.894-2.444 1.275-.86 3.048-.86 1.853 0 3.223.94v2.525q-1.45-1.181-3.438-1.181-2.283 0-3.505 1.463-1.222 1.45-1.222 4.176v7.48h-2.484V5.854zM137.943 21.283q-1.638 0-2.753-.698-1.114-.699-1.785-1.867-.658-1.168-.954-2.578-.295-1.423-.295-2.86 0-3.599 1.57-5.693 1.585-2.095 4.27-2.095 1.317 0 2.364.564 1.047.55 1.665 1.719V0h2.47v20.894h-2.228L142.025 19q-1.33 2.283-4.082 2.283zm.443-2.095q1.168 0 1.88-.55.725-.55 1.101-1.424.39-.886.524-1.893.134-1.02.134-1.947 0-.913-.134-1.92t-.524-1.88q-.376-.886-1.1-1.437-.713-.55-1.88-.55-1.182 0-1.908.55-.711.55-1.087 1.437-.363.873-.497 1.88t-.134 1.92q0 .913.134 1.934.134 1.007.497 1.893.376.873 1.087 1.437.726.55 1.907.55zM166.719.846h11.803v2.283h-9.077v6.176h8.23v2.283h-8.23v9.306h-2.726V.846zM188.431 21.283q-3.142 0-4.807-2.028-1.651-2.04-1.651-5.854 0-3.827 1.665-5.868 1.665-2.041 4.78-2.041t4.767 2.041q1.665 2.028 1.665 5.881 0 3.827-1.652 5.855-1.651 2.014-4.767 2.014zm-.013-2.095q1.84 0 2.82-1.504.993-1.504.993-4.31 0-2.793-.993-4.283-.98-1.504-2.82-1.504-1.853 0-2.847 1.504-.98 1.49-.98 4.283 0 2.806.994 4.31.993 1.504 2.833 1.504zM199.294 5.854h2.23l.241 2.256q1.356-2.618 4.418-2.618 4.606 0 4.606 6.083v9.319h-2.485v-9.32q0-2.027-.711-2.98-.698-.954-2.176-.954-1.759 0-2.712 1.25-.94 1.235-.94 3.504v8.5h-2.47V5.854zM224.055 20.947q-2.766 0-3.92-1.114-1.142-1.128-1.142-3.84V7.774h-4.015v-1.92h4.015V1.92l2.47-1.074v5.008h5.613v1.92h-5.612v8.218q0 1.652.63 2.323.632.658 2.203.658h2.78v1.974h-3.022z"/></g><g style="line-height:125%" font-size="17.5"><path d="M5.072 61.141q-1.384 0-2.29-.794-.897-.804-.897-2.299 0-1.239.598-1.931.598-.7 1.564-.983.965-.282 2.059-.282h2.11v-.248q0-1.221-.623-1.7-.615-.478-1.735-.478-.871 0-1.709.239-.837.239-1.564.666V51.76q.787-.29 1.59-.478t1.64-.188q.855 0 1.658.239.812.23 1.402.769.59.53.786 1.427.136.632.136 1.905v1.957q0 .803.086 1.777.094.975.419 1.727H8.72q-.146-.334-.231-.71-.085-.384-.137-.743-.504.863-1.401 1.282-.889.418-1.88.418zm.385-1.316q.974 0 1.58-.478.616-.479.898-1.248.282-.777.282-1.666v-.35H6.226q-.667 0-1.308.154-.632.145-1.05.564-.411.418-.411 1.221 0 .906.555 1.36.556.443 1.445.443zM17.103 61.141q-1.811 0-2.632-1.452l-.153 1.205h-1.419V47.598h1.572v4.947q.394-.743 1.086-1.094.692-.358 1.555-.358 1.025 0 1.726.444.7.436 1.12 1.17.427.727.606 1.616.188.888.188 1.777 0 .897-.188 1.794-.188.889-.615 1.624-.419.735-1.12 1.179-.7.444-1.726.444zm-.316-1.333q.752 0 1.205-.35.461-.35.692-.914.24-.564.325-1.205.085-.641.085-1.222t-.085-1.222q-.086-.65-.325-1.205-.23-.564-.692-.914-.453-.35-1.205-.35-.743 0-1.205.35-.453.35-.7.906-.24.555-.325 1.204-.086.641-.086 1.222 0 .59.086 1.24.085.64.325 1.204.247.556.7.906.462.35 1.205.35zM27.802 61.141q-1.513 0-2.547-.632-1.025-.64-1.555-1.777-.521-1.137-.521-2.615 0-1.487.53-2.615.53-1.136 1.563-1.769 1.034-.64 2.564-.64.794 0 1.435.188.641.179 1.308.546v1.65q-.607-.539-1.222-.795-.607-.256-1.385-.256-1.153 0-1.845.495-.684.496-.991 1.333-.3.838-.3 1.863 0 1.017.308 1.863.308.837.991 1.333.684.495 1.829.495.752 0 1.401-.247.65-.248 1.214-.787v1.632q-1.222.735-2.777.735zM37.039 61.141q-1.043 0-1.752-.444-.71-.444-1.137-1.188-.418-.743-.606-1.64-.188-.906-.188-1.82 0-2.29 1-3.623 1.008-1.333 2.717-1.333.837 0 1.504.358.666.35 1.06 1.094v-4.947h1.571v13.296H39.79l-.154-1.205q-.846 1.452-2.597 1.452zm.282-1.333q.743 0 1.196-.35.461-.35.7-.906.248-.564.334-1.205.085-.649.085-1.239 0-.58-.085-1.222-.086-.64-.333-1.196-.24-.564-.701-.914-.453-.35-1.196-.35-.752 0-1.214.35-.453.35-.692.914-.23.556-.316 1.196-.086.641-.086 1.222t.086 1.23q.085.642.316 1.206.24.555.692.914.462.35 1.214.35zM48.625 61.141q-2.213 0-3.477-1.324-1.256-1.333-1.256-3.632 0-1.427.495-2.58.504-1.154 1.487-1.829.991-.683 2.444-.683 1.914 0 2.965 1.23 1.06 1.222 1.06 3.392v.77h-6.81v.05q0 1.496.785 2.385.786.888 2.325.888.888 0 1.717-.282.838-.282 1.615-.683v1.564q-.812.333-1.65.53-.828.204-1.7.204zm2.145-5.887q0-.795-.239-1.436-.24-.64-.769-1.016-.521-.376-1.384-.376-.872 0-1.461.384-.582.376-.915 1.017-.325.64-.41 1.427h5.178zM57.341 52.545h-2.555v-1.222h2.555v-.666q0-1.573.718-2.316.726-.743 2.256-.743h1.888v1.307h-1.786q-.837 0-1.17.35-.333.342-.333 1.222v.846h3.29v1.222h-3.29v8.349H57.34v-8.349zM69.005 64.653q-.692 0-1.393-.128-.692-.128-1.367-.342v-1.555q.65.308 1.367.538.727.231 1.479.231.922 0 1.435-.367.513-.368.718-1.026.214-.649.214-1.495v-1.136q-.385.82-1.043 1.204-.658.385-1.547.385-1.016 0-1.726-.436-.709-.436-1.145-1.153-.427-.727-.623-1.598-.197-.88-.197-1.752t.197-1.743q.196-.872.632-1.59.436-.726 1.145-1.162.718-.435 1.743-.435.863 0 1.504.358.64.36 1.06 1.145l.153-1.239h1.419v8.921q0 2.008-.957 3.188-.949 1.187-3.068 1.187zm.18-4.998q1.119 0 1.691-.932.582-.931.582-2.709 0-.572-.086-1.196-.085-.624-.325-1.162-.23-.547-.683-.889-.453-.341-1.188-.341-1.136 0-1.743.905-.598.906-.598 2.666 0 1.778.615 2.718t1.735.94zM76.08 47.598h1.573v5.16q.863-1.665 2.828-1.665 1.18 0 1.803.546.632.547.872 1.427.239.88.239 1.897v5.93h-1.581v-5.93q0-1.29-.453-1.897-.453-.606-1.41-.606-.888 0-1.393.444-.495.436-.7 1.128-.205.692-.205 1.453v5.409H76.08V47.598zM89.41 49.589q-.256 0-.256-.257v-1.478q0-.256.256-.256h1.23q.257 0 .257.256v1.478q0 .257-.256.257h-1.23zm2.871 11.373q-1.41 0-2.187-.906-.769-.914-.769-2.563v-4.94h-2.094v-1.23h3.666v6.17q0 1.042.393 1.589.393.547 1.145.547h1.837v1.333h-1.99zM101.04 49.589q-.256 0-.256-.257v-1.478q0-.256.256-.256h1.23q.257 0 .257.256v1.478q0 .257-.256.257h-1.231zM97.502 63.2h2q1.538 0 1.538-2.137v-8.519h-2.709v-1.222h4.281v9.741q0 1.658-.769 2.564-.769.906-2.17.906h-2.17V63.2zM107.927 47.598h1.624v7.699l4.127-3.974h1.914l-3.768 3.606 4.358 5.965h-1.923l-3.538-4.94-1.17 1.103v3.837h-1.624V47.598zM123.539 60.962q-1.41 0-2.188-.906-.769-.914-.769-2.563v-8.665h-2.52v-1.23h4.093v9.895q0 1.042.393 1.589.393.547 1.145.547h1.837v1.333h-1.991zM127.982 51.323h1.29l.137.82q.581-1.05 1.718-1.05 1.222 0 1.7 1.204.581-1.204 1.829-1.204 1.162 0 1.623.871.47.897.47 3.384v5.546h-1.435v-5.478q0-1.076-.06-1.666-.051-.59-.171-.872-.214-.47-.846-.47-.65 0-.897.513-.145.3-.205.872-.06.572-.06 1.623v5.478h-1.436v-5.478q0-1.034-.06-1.64-.06-.607-.187-.889-.231-.479-.863-.479-.633 0-.863.505-.137.29-.197.888-.06.59-.06 1.615v5.478h-1.427v-9.57zM139.244 51.323h1.419l.154 1.436q.863-1.666 2.81-1.666 2.932 0 2.932 3.87v5.93h-1.581v-5.93q0-1.29-.453-1.897-.444-.606-1.384-.606-1.12 0-1.726.794-.598.787-.598 2.23v5.41h-1.573v-9.57zM153.386 61.141q-2 0-3.059-1.29-1.05-1.299-1.05-3.726 0-2.435 1.059-3.734 1.06-1.298 3.042-1.298 1.982 0 3.033 1.298 1.06 1.29 1.06 3.743 0 2.435-1.051 3.726-1.051 1.281-3.034 1.281zm-.009-1.333q1.17 0 1.795-.957.632-.957.632-2.743 0-1.777-.632-2.725-.624-.957-1.795-.957-1.179 0-1.811.957-.624.948-.624 2.725 0 1.786.632 2.743.633.957 1.803.957zM160.256 51.323h1.427l.154 1.222q.82-1.452 2.572-1.452 1.718 0 2.7 1.341.992 1.342.992 3.666 0 2.341-1 3.691-.991 1.35-2.692 1.35-1.794 0-2.572-1.452v4.845h-1.58v-13.21zm3.948 8.485q2.247 0 2.247-3.691t-2.247-3.691q-1.153 0-1.76.957t-.607 2.725q0 1.778.607 2.743.615.957 1.76.957zM176.594 59.706q-.803 1.47-2.606 1.47-1.025 0-1.726-.436-.7-.445-1.128-1.17-.427-.727-.615-1.599-.188-.88-.188-1.76 0-2.358.991-3.717 1-1.367 2.717-1.367 1.752 0 2.555 1.452l.154-1.222h1.427v13.21h-1.58v-4.861zm-2.298.137q1.102 0 1.7-.958.598-.965.598-2.742 0-1.778-.598-2.726-.59-.957-1.7-.957-1.111 0-1.71.957-.589.957-.589 2.734 0 1.769.59 2.734.598.958 1.709.958zM182.268 51.323h1.427l.154 1.872q.401-1.017 1.205-1.556.811-.546 1.94-.546 1.179 0 2.05.598v1.606q-.923-.752-2.187-.752-1.453 0-2.23.932-.778.922-.778 2.657v4.76h-1.58v-9.57zM195.248 61.141q-1.367 0-3.213-.598V58.92q1.794.905 3.196.905 1 0 1.598-.418.598-.419.598-1.12 0-.606-.504-.974-.496-.376-1.59-.606l-.658-.137q-1.35-.274-1.982-.897-.624-.633-.624-1.718 0-1.376.94-2.12.94-.742 2.675-.742 1.47 0 2.845.563v1.539q-1.341-.787-2.803-.787-2.068 0-2.068 1.41 0 .462.18.735.18.265.683.453.505.18 1.487.376l.633.12q2.375.47 2.375 2.589 0 1.418-1.008 2.239-1.008.811-2.76.811zM207.638 60.928q-1.76 0-2.495-.71-.726-.717-.726-2.443v-5.23h-2.555v-1.222h2.555V48.82l1.572-.684v3.187h3.572v1.222h-3.572v5.23q0 1.05.401 1.478.402.419 1.402.419h1.769v1.256h-1.923zM215.85 61.141q-2.914 0-2.914-3.87v-5.93h1.572v5.93q0 2.503 1.871 2.503 1.094 0 1.692-.786.598-.795.598-2.239V51.34h1.581v9.554h-1.427l-.154-1.436q-.854 1.683-2.82 1.683zM222.651 51.323h1.632l2.778 8.032 2.785-8.032h1.632l-3.4 9.57h-2.026l-3.4-9.57zM232.324 51.323h1.555l1.667 7.733 1.367-4.939h1.341l1.385 4.94 1.666-7.734h1.555l-2.239 9.57h-1.504l-1.53-5.246-1.52 5.247h-1.504l-2.239-9.57zM247.26 55.903l-3.426-4.58h1.743l2.538 3.46 2.521-3.46h1.769l-3.427 4.58 3.76 4.99h-1.82l-2.803-3.836-2.794 3.837h-1.82l3.76-4.99zM254.951 63.218h.932q.692 0 1.068-.393.418-.436 1.017-2.085l-3.7-9.417h1.666l2.837 7.486 2.794-7.486h1.666l-2.52 6.494-.522 1.342-.11.273-.095.248q-.051.154-.17.496l-.103.273q-.334.932-.633 1.632-.29.71-.495 1.068-.77 1.385-2.367 1.385h-1.265v-1.316zM265.64 59.44l5.495-6.878h-5.29v-1.256h6.948v1.436l-5.494 6.87h5.494v1.282h-7.152V59.44zM4.944 70.011h2.093l3.905 12.758H9.156l-.94-3.324H3.749l-.923 3.324H1.039L4.944 70.01zm2.862 8.05l-1.82-6.529-1.82 6.528h3.64zM12.668 70.011h3.777q1.949 0 3.017.846 1.06.846 1.06 2.401 0 .598-.146 1.06-.145.453-.41.777-.274.325-.692.547-.419.214-.992.3 1.265.187 1.974 1.067.71.88.71 2.265 0 1.726-1.137 2.606-1.145.889-3.384.889h-3.777V70.01zm3.743 5.264q1.265 0 1.812-.487.555-.479.555-1.513 0-1-.547-1.418-.555-.428-1.82-.428h-2.008v3.846h2.008zm.034 6.075q1.487 0 2.145-.53.641-.53.641-1.726 0-1.247-.675-1.837-.684-.581-2.11-.581h-2.043v4.674h2.042zM28.118 83.016q-1.197 0-2.162-.427-.957-.427-1.64-1.307-1.35-1.752-1.35-4.87 0-2.086.614-3.564.616-1.487 1.77-2.273 1.161-.795 2.768-.795.829 0 1.486.163.667.162 1.342.538v1.769q-.624-.521-1.359-.795-.743-.273-1.478-.273-1.666 0-2.504 1.298-.837 1.3-.837 3.923 0 5.212 3.358 5.212.735 0 1.478-.273.718-.274 1.342-.795v1.769q-.675.35-1.35.53-.684.17-1.478.17zM33.475 70.011h2.59q2.922 0 4.306 1.555t1.384 4.837q0 3.255-1.384 4.81-1.384 1.556-4.307 1.556h-2.589V70.01zm2.555 11.34q2.188 0 3.042-1.078.863-1.068.863-3.888 0-2.828-.854-3.887-.436-.547-1.214-.804-.769-.265-1.837-.265h-.82v9.921h.82zM44.515 70.011h7.571v1.453h-5.845v3.776h5.589v1.453H46.24v4.623h6.008v1.453h-7.734V70.01zM55.35 70.011h7.511v1.453h-5.776v3.93h5.238v1.453h-5.238v5.922H55.35V70.01zM69.868 83.016q-1.222 0-2.17-.444-.94-.444-1.598-1.299-1.342-1.752-1.342-4.862 0-3.161 1.367-4.896 1.368-1.735 3.769-1.735.837 0 1.572.222.752.24 1.419.693v1.768q-.368-.35-.735-.59-.36-.238-.684-.384-.376-.162-.769-.23-.393-.077-.778-.077-1.666 0-2.512 1.298-.846 1.3-.846 3.94 0 1.35.205 2.315.205.957.616 1.598.811 1.282 2.512 1.282.564 0 1-.137.205-.068.401-.162.197-.103.376-.248v-3.426h-1.854v-1.419h3.503v5.495q-.7.649-1.555.965-.871.333-1.897.333zM75.585 70.011h1.734v5.23h4.726v-5.23h1.734v12.758h-1.734v-6.076h-4.726v6.076h-1.734V70.01zM86.659 81.316h2.674v-9.852H86.66V70.01h7.084v1.453h-2.675v9.852h2.675v1.453h-7.084v-1.453zM99.758 83.016q-.905 0-1.666-.188-.812-.188-1.692-.58V80.23q.778.692 1.607 1.034.854.35 1.726.35.572 0 1.008-.154.444-.154.692-.487.479-.632.479-2.367v-7.143h-3.256V70.01h4.982v8.596q0 1.607-.393 2.58-.393.966-1.248 1.402-.854.427-2.239.427zM107.167 70.011h1.734v5.674l5.392-5.674h2.025l-4.964 5.212 5.11 7.546h-2.085l-4.162-6.392-1.316 1.401v4.99h-1.734V70.012zM118.36 70.011h1.735v11.305h6.161v1.453h-7.895V70.01zM127.786 70.011h2.307l2.204 6.494 2.222-6.494h2.316v12.758h-1.598V71.498l-2.273 6.725h-1.308l-2.281-6.725v11.27h-1.59V70.012zM138.766 70.011h2.187l4.307 10.502V70.01h1.666v12.758h-2.187l-4.307-10.502v10.502h-1.666V70.01zM153.37 83.016q-2.163 0-3.214-1.632-1.05-1.623-1.05-4.981 0-3.359 1.059-4.982 1.068-1.64 3.204-1.64 1.051 0 1.863.392.812.393 1.359 1.248 1.05 1.64 1.05 4.982 0 3.332-1.05 4.973-.547.854-1.36 1.247-.81.393-1.862.393zm0-1.401q1.315 0 1.896-1.205.573-1.17.573-4.007 0-2.837-.573-4.017-.58-1.204-1.897-1.204-1.299 0-1.88 1.204-.58 1.23-.58 4.017 0 2.777.58 4.007.581 1.205 1.88 1.205zM160.103 70.011h3.725q2.12 0 3.239.966.572.504.837 1.23.265.718.265 1.624 0 1.88-1.094 2.845-1.085.966-3.247.966h-2v5.127h-1.725V70.01zm3.725 6.212q.641 0 1.102-.17.462-.172.77-.462.666-.633.666-1.769t-.667-1.769q-.649-.624-1.87-.624h-2v4.794h2zM174.757 83q-.043 0-.17.008-.129.01-.155.01-2.127.05-3.213-1.641-1.085-1.7-1.06-4.974 0-3.358 1.06-4.981 1.069-1.64 3.205-1.64 1.05 0 1.863.392.811.393 1.358 1.248 1.051 1.64 1.051 4.981 0 2.496-.58 4.042-.283.752-.727 1.3-.444.546-1.051.854l3.093 3.161h-2.016L174.757 83zm-.333-1.385q1.316 0 1.897-1.205.572-1.17.572-4.007 0-2.837-.572-4.017-.581-1.204-1.897-1.204-1.299 0-1.88 1.204-.581 1.23-.581 4.017 0 2.777.58 4.007.582 1.205 1.88 1.205zM180.91 70.011h3.554q2.11 0 3.222.948 1.119.957 1.119 2.71 0 .674-.171 1.187-.17.504-.513.906-.675.803-1.94.982.693.171 1.137.641.24.248.513.7.282.445.658 1.197l1.734 3.487h-1.854l-1.52-3.222q-.334-.71-.633-1.145-.29-.436-.547-.632-.265-.205-.624-.3-.35-.093-.752-.093h-1.649v5.392h-1.735V70.01zm3.622 5.947q1.24 0 1.846-.555.607-.556.607-1.684 0-1.119-.641-1.709-.308-.273-.778-.427-.461-.154-1.102-.154h-1.82v4.53h1.888zM195.205 83.016q-.914 0-1.82-.196-.906-.197-1.82-.573V80.41q.966.615 1.863.914.863.291 1.751.291 1.308 0 2.043-.581.726-.581.726-1.683 0-.915-.496-1.41-.273-.282-.692-.462-.41-.18-1.05-.324l-.924-.214q-.863-.197-1.512-.487-.64-.29-1.068-.726-.803-.804-.803-2.18 0-1.734 1.153-2.75.547-.488 1.308-.753.769-.265 1.743-.265.743 0 1.546.163.393.085.82.213.436.12.89.29v1.752q-.41-.264-.804-.444-.384-.188-.769-.316-.795-.256-1.59-.256-1.221 0-1.939.572-.71.573-.71 1.572 0 .436.12.735.129.29.35.504.488.462 1.735.752l.906.205q1.769.402 2.606 1.316.83.88.83 2.427 0 .974-.3 1.666-.299.684-.82 1.128-1.12.957-3.273.957zM205.151 71.464h-4.007V70.01h9.732v1.453h-3.99v11.305h-1.735V71.464zM216.533 83.016q-.888 0-1.615-.247-.333-.12-.692-.308-.35-.197-.624-.444-.265-.24-.47-.564-.205-.325-.35-.812-.137-.427-.197-1.068-.06-.65-.06-1.7V70.01h1.735v8.647q0 .932.052 1.325.05.393.179.615.273.504.795.76.512.257 1.247.257.744 0 1.256-.256.53-.274.795-.76.137-.249.18-.608.05-.401.05-1.315V70.01h1.727v7.861q0 1.128-.069 1.76-.068.624-.17 1.009-.231.829-.838 1.376-.282.256-.632.444-.342.188-.675.308-.316.11-.718.179-.402.068-.906.068zM222.284 70.011h1.786l2.99 11.305 3-11.305h1.786l-3.734 12.758h-2.094l-3.734-12.758zM232.324 70.011h1.684l1.221 10.356 1.453-6.853h1.803l1.47 6.87 1.222-10.373h1.683l-1.905 12.758h-1.632l-1.735-7.58-1.726 7.58h-1.632l-1.906-12.758zM247.278 76.01l-3.692-5.999h1.855l2.802 4.81 2.854-4.81h1.855l-3.82 5.999 4.093 6.759h-1.854l-3.128-5.495-3.375 5.495h-1.863l4.273-6.76zM257.771 77.043l-4.076-7.032h1.837l3.11 5.631 3.102-5.631h1.855l-4.093 7.032v5.726h-1.735v-5.726zM264.846 81.453l6.486-9.99h-6.298v-1.452h8.28v1.316l-6.665 9.989h6.853v1.453h-8.656v-1.316zM6.003 104.891q-2 0-3.059-1.29-1.05-1.299-1.05-3.726 0-2.435 1.059-3.734 1.06-1.298 3.042-1.298 1.982 0 3.033 1.298 1.06 1.29 1.06 3.743 0 2.435-1.051 3.726-1.051 1.281-3.034 1.281zm-.008-1.333q1.17 0 1.794-.957.633-.957.633-2.743 0-1.777-.633-2.725-.623-.957-1.794-.957-1.18 0-1.812.957-.623.948-.623 2.725 0 1.786.632 2.743.632.957 1.803.957zM16.514 104.891q-2.162 0-3.213-1.632-1.051-1.623-1.051-4.981 0-3.359 1.06-4.982 1.067-1.64 3.204-1.64 1.05 0 1.862.392.812.393 1.36 1.248 1.05 1.64 1.05 4.982 0 3.332-1.05 4.973-.548.854-1.36 1.247-.811.393-1.862.393zm0-1.401q1.316 0 1.897-1.205.572-1.17.572-4.007 0-2.837-.572-4.017-.581-1.204-1.897-1.204-1.3 0-1.88 1.204-.581 1.23-.581 4.017 0 2.777.58 4.007.582 1.205 1.88 1.205zM27.041 104.891q-2.05 0-3.085-1.674-1.042-1.684-1.042-4.94 0-3.264 1.042-4.947 1.034-1.675 3.085-1.675 2.05 0 3.093 1.675.513.82.778 2.05.265 1.223.265 2.898 0 1.674-.265 2.896t-.778 2.043q-1.05 1.674-3.093 1.674zm0-1.367q1.222 0 1.812-1.299.59-1.29.59-3.947 0-2.666-.59-3.948-.59-1.308-1.812-1.308-1.205 0-1.794 1.3-.3.64-.453 1.614-.146.966-.146 2.342 0 2.674.599 3.947.598 1.3 1.794 1.3zm.017-2.264q-.273 0-.427-.368-.145-.367-.248-.863-.085-.393-.145-.948-.051-.556-.051-.846 0-.205.034-.735t.136-1q.248-1.222.667-1.222.24 0 .402.325.17.325.29.923.086.427.137.957.051.53.051.82 0 .171-.034.675-.026.504-.111 1.034-.214 1.248-.7 1.248zM37.56 104.891q-1.94 0-3.042-.957-1.094-.957-1.094-2.708 0-1.36.684-2.222.675-.855 1.956-1.137-.52-.128-.965-.393-.444-.265-.752-.65-.325-.4-.479-.88-.145-.478-.145-1.016 0-1.478 1.034-2.384.504-.436 1.196-.658.701-.23 1.615-.23 1.786 0 2.82.888 1.034.88 1.034 2.393 0 1.127-.615 1.888-.607.752-1.726 1.042 1.29.282 1.965 1.137.675.854.675 2.204 0 .898-.29 1.581-.282.675-.812 1.137-1.11.965-3.06.965zm.009-7.664q1.042 0 1.59-.539.546-.538.546-1.563 0-1.043-.538-1.59-.547-.547-1.598-.547-1.034 0-1.581.547-.547.547-.547 1.59 0 1.025.547 1.563.547.539 1.58.539zm.025 6.314q1.137 0 1.76-.65.633-.657.633-1.82 0-.632-.17-1.084-.163-.453-.462-.752-.641-.65-1.786-.65t-1.778.641q-.632.65-.632 1.82 0 1.18.632 1.837.65.658 1.803.658zM57.828 93.339q-.256 0-.256-.257v-1.478q0-.256.256-.256h1.23q.257 0 .257.256v1.478q0 .257-.256.257h-1.23zm2.871 11.373q-1.41 0-2.187-.906-.77-.914-.77-2.563v-4.94H55.65v-1.23h3.666v6.17q0 1.042.393 1.589.393.547 1.145.547h1.837v1.333H60.7zM65.604 103.19h2.675V93.34h-2.675v-1.453h7.084v1.453h-2.675v9.852h2.675v1.453h-7.084v-1.453zM81.43 104.712q-1.41 0-2.188-.906-.77-.914-.77-2.563v-8.665h-2.52v-1.23h4.093v9.895q0 1.042.393 1.589.393.547 1.145.547h1.837v1.333h-1.99zM86.779 91.886h1.734v11.305h6.161v1.453H86.78V91.886zM97.776 103.19h2.683v-9.15l-2.034 2.315-.94-1.145 2.957-3.324h1.726v11.305h2.649v1.453h-7.041v-1.453zM124.282 106.805q-2.11 0-2.845-.632-.727-.624-.727-2.52v-2.043q0-1.282-.452-1.786-.462-.495-1.658-.495h-.991v-1.222h.99q1.206 0 1.659-.487.452-.505.452-1.77V93.8q0-1.897.727-2.52.7-.624 2.845-.624h.547v1.221h-.598q-1.196 0-1.555.368-.368.367-.368 1.59v2.118q0 1.342-.384 1.949-.393.606-1.333.82.948.23 1.333.837.384.607.384 1.94v2.12q0 1.221.368 1.589.359.367 1.555.367h.598v1.23h-.547zM129.281 105.652h.581q1.196 0 1.572-.376.368-.368.368-1.58v-2.12q0-1.333.384-1.94.385-.606 1.333-.837-.94-.222-1.324-.82-.188-.291-.29-.752-.103-.47-.103-1.197v-2.119q0-1.213-.368-1.58-.376-.377-1.572-.377h-.581v-1.222h.53q2.145 0 2.845.624.718.624.718 2.52v2.052q0 .666.18 1.093.179.42.538.676.342.247.829.367.495.12 1.085.12h.547v1.222h-.547q-1.256 0-1.914.495-.36.265-.539.692-.179.428-.179 1.094v2.042q0 1.889-.718 2.521-.735.632-2.845.632h-.53v-1.23zM150.865 90.664h5.333v1.222h-3.76v13.843h3.76v1.222h-5.333V90.664zM161.077 105.729h3.76V91.895h-3.76v-1.222h5.332v16.278h-5.332v-1.222zM184.806 108.403q-.692 0-1.393-.128-.692-.128-1.367-.342v-1.555q.65.308 1.367.538.726.231 1.478.231.923 0 1.436-.367.513-.368.718-1.026.213-.649.213-1.495v-1.136q-.384.82-1.042 1.204-.658.385-1.547.385-1.017 0-1.726-.436-.71-.436-1.145-1.153-.427-.727-.624-1.598-.196-.88-.196-1.752t.196-1.743q.197-.872.633-1.59.435-.726 1.145-1.162.717-.435 1.743-.435.863 0 1.504.358.64.36 1.06 1.145l.153-1.239h1.419v8.921q0 2.008-.957 3.188-.949 1.187-3.068 1.187zm.18-4.998q1.119 0 1.691-.932.581-.931.581-2.709 0-.572-.085-1.196-.086-.624-.325-1.162-.23-.547-.683-.889-.453-.341-1.188-.341-1.137 0-1.743.905-.599.906-.599 2.666 0 1.778.616 2.718.615.94 1.734.94zM194.727 104.891q-.317 0-.65-.034-.325-.025-.624-.094-.564-.12-1.222-.384v-1.59q.539.316 1.145.479.633.17 1.257.17 1.649 0 2.495-1.238.837-1.248.837-3.632-.196.436-.496.77-.299.332-.632.546-.71.453-1.76.453-1.743 0-2.76-1.137-1.017-1.145-1.017-3.187 0-1.008.248-1.828.256-.83.795-1.41 1.016-1.12 2.948-1.12 1.17 0 1.948.419.777.41 1.282 1.188.546.854.794 2.076t.248 2.76q0 1.692-.3 2.965-.29 1.273-.93 2.136-1.257 1.692-3.606 1.692zm.555-5.904q.598 0 1.034-.205.436-.214.726-.581.624-.786.624-2.205 0-1.418-.624-2.205-.29-.367-.726-.572-.436-.214-1.034-.214-.53 0-.966.18-.435.18-.734.572-.582.76-.582 2.24 0 1.477.582 2.238.564.752 1.7.752zM208.176 103.456q-.803 1.47-2.606 1.47-1.025 0-1.726-.436-.7-.445-1.128-1.17-.427-.727-.615-1.599-.188-.88-.188-1.76 0-2.358.991-3.717 1-1.367 2.717-1.367 1.752 0 2.555 1.452l.154-1.222h1.427v13.21h-1.58v-4.861zm-2.298.137q1.102 0 1.7-.958.598-.965.598-2.742 0-1.778-.598-2.726-.59-.957-1.7-.957-1.111 0-1.71.957-.589.957-.589 2.734 0 1.769.59 2.734.598.958 1.709.958zM217.61 104.891q-1.196 0-2.162-.427-.957-.427-1.64-1.307-1.35-1.752-1.35-4.87 0-2.086.615-3.564.615-1.487 1.768-2.273 1.162-.795 2.769-.795.829 0 1.487.163.666.162 1.341.538v1.769q-.624-.521-1.358-.795-.744-.273-1.479-.273-1.666 0-2.503 1.298-.838 1.3-.838 3.923 0 5.212 3.358 5.212.735 0 1.479-.273.717-.274 1.341-.795v1.769q-.675.35-1.35.53-.683.17-1.478.17zM227.778 104.891q-1.222 0-2.17-.444-.94-.444-1.598-1.299-1.342-1.752-1.342-4.862 0-3.161 1.368-4.896 1.367-1.735 3.768-1.735.837 0 1.572.222.752.24 1.419.693v1.768q-.368-.35-.735-.59-.36-.238-.684-.384-.376-.162-.769-.23-.393-.077-.777-.077-1.667 0-2.513 1.298-.846 1.3-.846 3.94 0 1.35.206 2.315.205.957.615 1.598.812 1.282 2.512 1.282.564 0 1-.137.205-.068.401-.162.197-.103.376-.248v-3.426h-1.854v-1.419h3.503v5.495q-.7.649-1.555.965-.871.333-1.897.333zM237.921 104.874q-.043 0-.17.01-.129.008-.155.008-2.127.052-3.212-1.64-1.086-1.7-1.06-4.974 0-3.358 1.06-4.981 1.068-1.64 3.204-1.64 1.05 0 1.863.392.811.393 1.358 1.248 1.051 1.64 1.051 4.981 0 2.496-.58 4.042-.283.752-.727 1.3-.444.546-1.051.854l3.093 3.161h-2.016l-2.658-2.76zm-.333-1.384q1.316 0 1.897-1.205.572-1.17.572-4.007 0-2.837-.572-4.017-.581-1.204-1.897-1.204-1.299 0-1.88 1.204-.581 1.23-.581 4.017 0 2.777.581 4.007.581 1.205 1.88 1.205zM263.214 97.466q-.034.957-.154 1.658-.11.7-.427 1.256-.615 1.239-2.025 1.239-.675 0-1.17-.29-.445-.283-1.077-1.146-.675-.94-.983-1.17-.35-.248-.658-.248-.658 0-.931.615-.291.718-.36 2.179h-1.332q.034-1.769.58-2.905.71-1.222 2-1.222.624 0 1.128.299.257.154.547.444.3.282.573.667.47.64.897 1.068.359.376.752.376.683 0 .982-.692.308-.701.325-2.128h1.333zM265.667 98.807h7.015v1.402h-7.015v-1.402zM278.98 99.884h-3.794v-1.453h3.793v-3.794h1.436v3.794h3.803v1.453h-3.803v3.794h-1.436v-3.794zM285.713 96.697h9.032v1.452h-9.032v-1.452zm0 3.469h9.032v1.47h-9.032v-1.47zM296.24 101.875l7.263-2.709-7.263-2.734v-1.555l9.032 3.571v1.419l-9.032 3.572v-1.564z"/></g></g></svg>