<?xml version="1.0" encoding="UTF-8" standalone="no"?>
<svg
   xmlns:dc="http://purl.org/dc/elements/1.1/"
   xmlns:cc="http://creativecommons.org/ns#"
   xmlns:rdf="http://www.w3.org/1999/02/22-rdf-syntax-ns#"
   xmlns:svg="http://www.w3.org/2000/svg"
   xmlns="http://www.w3.org/2000/svg"
   xmlns:sodipodi="http://sodipodi.sourceforge.net/DTD/sodipodi-0.dtd"
   xmlns:inkscape="http://www.inkscape.org/namespaces/inkscape"
   width="86.154541mm"
   height="30.593832mm"
   viewBox="0 0 305.2718 108.40332"
   id="svg2"
   version="1.1"
   inkscape:version="0.91 r13725"
   sodipodi:docname="Hack Nerd Font.svg">
  <metadata
     id="metadata22">
    <rdf:RDF>
      <cc:Work
         rdf:about="">
        <dc:format>image/svg+xml</dc:format>
        <dc:type
           rdf:resource="http://purl.org/dc/dcmitype/StillImage" />
      </cc:Work>
    </rdf:RDF>
  </metadata>
  <defs
     id="defs20" />
  <sodipodi:namedview
     pagecolor="#ffffff"
     bordercolor="#666666"
     borderopacity="1"
     objecttolerance="10"
     gridtolerance="10"
     guidetolerance="10"
     inkscape:pageopacity="0"
     inkscape:pageshadow="2"
     inkscape:window-width="640"
     inkscape:window-height="480"
     id="namedview18"
     showgrid="false"
     inkscape:zoom="0.22425739"
     inkscape:cx="307.35046"
     inkscape:cy="-337.73731"
     inkscape:window-x="59"
     inkscape:window-y="24"
     inkscape:window-maximized="0"
     inkscape:current-layer="svg2" />
  <g
     font-weight="400"
     font-size="27.5"
     letter-spacing="0"
     word-spacing="0"
     id="g4"
     style="font-weight:400;font-size:27.5px;font-family:'Hack Nerd Font';letter-spacing:0;word-spacing:0;fill:#ffffff"
     transform="translate(-64.696781,-80.040443)">
    <g
       style="line-height:125%;text-decoration: underline;text-decoration-line: underline"
       id="text6">
      <path
         d="m 64.696598,80.886391 2.72583,0 0,8.217773 7.425537,0 0,-8.217773 2.72583,0 0,20.047609 -2.72583,0 0,-9.547121 -7.425537,0 0,9.547121 -2.72583,0 0,-20.047609 z"
         id="path4151"
         inkscape:connector-curvature="0" />
      <path
         d="m 86.234684,101.3234 q -2.175293,0 -3.598633,-1.24878 -1.409912,-1.262204 -1.409912,-3.612057 0,-1.947022 0.939941,-3.034668 0.939942,-1.101075 2.457276,-1.54419 1.517334,-0.443115 3.236084,-0.443115 l 3.31665,0 0,-0.389404 q 0,-1.920166 -0.980224,-2.67212 -0.966797,-0.751953 -2.72583,-0.751953 -1.369629,0 -2.685547,0.375977 -1.315918,0.375976 -2.457276,1.047363 l 0,-2.470703 q 1.235352,-0.456543 2.497559,-0.751953 1.262207,-0.29541 2.578125,-0.29541 1.342773,0 2.60498,0.375976 1.275635,0.362549 2.202149,1.208496 0.926513,0.83252 1.235351,2.242432 0.214844,0.993652 0.214844,2.994385 l 0,3.074951 q 0,1.262207 0.134277,2.792969 0.147706,1.530761 0.657959,2.712404 l -2.48413,0 q -0.228272,-0.52368 -0.362549,-1.114504 -0.134278,-0.604248 -0.214844,-1.168213 -0.792236,1.356197 -2.202148,2.014157 -1.396485,0.65796 -2.954102,0.65796 z m 0.604248,-2.067869 q 1.530762,0 2.484131,-0.751953 0.966797,-0.751953 1.409912,-1.960449 0.443115,-1.221924 0.443115,-2.618408 l 0,-0.550537 -3.128662,0 q -1.047363,0 -2.054443,0.241699 -0.993653,0.228271 -1.651612,0.88623 -0.644531,0.657959 -0.644531,1.920166 0,1.42334 0.872803,2.13501 0.872803,0.698242 2.269287,0.698242 z"
         id="path4153"
         inkscape:connector-curvature="0" />
      <path
         d="m 105.40949,101.3234 q -2.37671,0 -4.00147,-0.99365 -1.611324,-1.00708 -2.443844,-2.792969 -0.819092,-1.785888 -0.819092,-4.108886 0,-2.336426 0.83252,-4.108887 0.832519,-1.785889 2.457276,-2.779541 1.62476,-1.00708 4.02832,-1.00708 1.24878,0 2.25586,0.29541 1.00708,0.281982 2.05444,0.859375 l 0,2.591553 q -0.95337,-0.845948 -1.92016,-1.24878 -0.95337,-0.402832 -2.1753,-0.402832 -1.81274,0 -2.90039,0.778809 -1.07422,0.778809 -1.55761,2.094726 -0.46998,1.315918 -0.46998,2.927247 0,1.5979 0.4834,2.927246 0.4834,1.315918 1.55762,2.094726 1.07422,0.778809 2.87354,0.778809 1.18164,0 2.20214,-0.389404 1.02051,-0.389405 1.90674,-1.235352 l 0,2.5647 q -1.92016,1.15478 -4.36401,1.15478 z"
         id="path4155"
         inkscape:connector-curvature="0" />
      <path
         d="m 115.52057,80.040443 2.55127,0 0,12.098389 6.4856,-6.243896 3.00781,0 -5.92163,5.666504 6.84814,9.37256 -3.02124,0 -5.55908,-7.761232 -1.8396,1.732177 0,6.029055 -2.55127,0 0,-20.893557 z"
         id="path4157"
         inkscape:connector-curvature="0" />
      <path
         d="m 147.4383,80.886391 3.4375,0 6.76758,16.502685 0,-16.502685 2.6184,0 0,20.047609 -3.4375,0 -6.76757,-16.502687 0,16.502687 -2.61841,0 0,-20.047609 z"
         id="path4159"
         inkscape:connector-curvature="0" />
      <path
         d="m 171.21881,101.3234 q -3.47778,0 -5.46508,-2.081296 -1.97388,-2.094727 -1.97388,-5.706788 0,-2.242431 0.77881,-4.055175 0.79223,-1.812744 2.33642,-2.873535 1.55762,-1.074219 3.84034,-1.074219 3.00781,0 4.65942,1.933594 1.66504,1.920166 1.66504,5.33081 l 0,1.208496 -10.7019,0 0,0.08057 q 0,2.349853 1.23535,3.746337 1.23535,1.396485 3.65234,1.396485 1.39648,0 2.69897,-0.443115 1.31592,-0.443116 2.53785,-1.074219 l 0,2.457275 q -1.27564,0.52368 -2.59156,0.83252 -1.30249,0.32226 -2.67212,0.32226 z m 3.37037,-9.251707 q 0,-1.248779 -0.37598,-2.255859 -0.37598,-1.00708 -1.2085,-1.5979 -0.81909,-0.590821 -2.17529,-0.590821 -1.36963,0 -2.29614,0.604248 -0.91309,0.590821 -1.43677,1.597901 -0.51025,1.00708 -0.64453,2.242431 l 8.13721,0 z"
         id="path4161"
         inkscape:connector-curvature="0" />
      <path
         d="m 182.71296,85.894936 2.24243,0 0.2417,2.940673 q 0.6311,-1.5979 1.89331,-2.443847 1.27563,-0.859375 3.04809,-0.859375 1.85303,0 3.22266,0.939941 l 0,2.524414 q -1.4502,-1.18164 -3.4375,-1.18164 -2.28272,0 -3.50464,1.463623 -1.22192,1.450195 -1.22192,4.176025 l 0,7.47925 -2.48413,0 0,-15.039064 z"
         id="path4163"
         inkscape:connector-curvature="0" />
      <path
         d="m 202.63971,101.3234 q -1.63818,0 -2.75268,-0.69824 -1.1145,-0.698242 -1.78589,-1.866455 -0.65796,-1.168213 -0.95337,-2.578125 -0.29541,-1.42334 -0.29541,-2.860107 0,-3.598633 1.57104,-5.69336 1.58448,-2.094726 4.27002,-2.094726 1.31592,0 2.36329,0.563965 1.04736,0.550537 1.66503,1.71875 l 0,-7.774659 2.47071,0 0,20.893557 -2.22901,0 -0.2417,-1.893312 q -1.32934,2.282712 -4.08203,2.282712 z m 0.44312,-2.094724 q 1.16821,0 1.87988,-0.550537 0.7251,-0.550537 1.10108,-1.42334 0.3894,-0.886231 0.52368,-1.893311 0.13427,-1.020507 0.13427,-1.947021 0,-0.913086 -0.13427,-1.920166 -0.13428,-1.00708 -0.52368,-1.879883 -0.37598,-0.88623 -1.10108,-1.436768 -0.71167,-0.550537 -1.87988,-0.550537 -1.18164,0 -1.90674,0.550537 -0.71167,0.550538 -1.08765,1.436768 -0.36255,0.872803 -0.49682,1.879883 -0.13428,1.00708 -0.13428,1.920166 0,0.913086 0.13428,1.933594 0.13427,1.00708 0.49682,1.89331 0.37598,0.872803 1.08765,1.436768 0.7251,0.550537 1.90674,0.550537 z"
         id="path4165"
         inkscape:connector-curvature="0" />
      <path
         d="m 231.41535,80.886391 11.80298,0 0,2.282715 -9.07715,0 0,6.176757 8.2312,0 0,2.282715 -8.2312,0 0,9.305422 -2.72583,0 0,-20.047609 z"
         id="path4167"
         inkscape:connector-curvature="0" />
      <path
         d="m 253.12799,101.3234 q -3.14209,0 -4.80712,-2.027585 -1.65162,-2.041016 -1.65162,-5.854493 0,-3.826904 1.66504,-5.86792 1.66504,-2.041015 4.78028,-2.041015 3.11523,0 4.76684,2.041015 1.66504,2.027588 1.66504,5.881348 0,3.826904 -1.65161,5.854492 -1.65161,2.014158 -4.76685,2.014158 z m -0.0134,-2.094724 q 1.8396,0 2.81982,-1.503906 0.99365,-1.503907 0.99365,-4.310303 0,-2.792969 -0.99365,-4.283447 -0.98022,-1.503907 -2.81982,-1.503907 -1.85303,0 -2.84668,1.503907 -0.98023,1.490478 -0.98023,4.283447 0,2.806396 0.99365,4.310303 0.99366,1.503906 2.83326,1.503906 z"
         id="path4169"
         inkscape:connector-curvature="0" />
      <path
         d="m 263.99103,85.894936 2.22901,0 0.24169,2.255859 q 1.35621,-2.618408 4.41773,-2.618408 4.60571,0 4.60571,6.082763 l 0,9.31885 -2.48413,0 0,-9.31885 q 0,-2.027587 -0.71167,-2.980957 -0.69824,-0.953369 -2.17529,-0.953369 -1.75903,0 -2.7124,1.24878 -0.93995,1.235351 -0.93995,3.504638 l 0,8.499758 -2.4707,0 0,-15.039064 z"
         id="path4171"
         inkscape:connector-curvature="0" />
      <path
         d="m 288.75177,100.98771 q -2.76611,0 -3.92089,-1.114503 -1.14136,-1.12793 -1.14136,-3.840332 l 0,-8.217773 -4.01489,0 0,-1.920166 4.01489,0 0,-3.934327 2.4707,-1.074218 0,5.008545 5.61279,0 0,1.920166 -5.61279,0 0,8.217773 q 0,1.651611 0.6311,2.322998 0.63111,0.657959 2.20215,0.657959 l 2.77954,0 0,1.973878 -3.02124,0 z"
         id="path4173"
         inkscape:connector-curvature="0" />
    </g>
    <g
       style="line-height:125%"
       id="text10">
      <path
         d="m 69.768364,141.18181 q -1.384277,0 -2.290039,-0.79468 -0.897217,-0.80322 -0.897217,-2.29858 0,-1.23902 0.598145,-1.93116 0.598144,-0.70068 1.56372,-0.98266 0.965576,-0.28198 2.059326,-0.28198 l 2.110596,0 0,-0.24781 q 0,-1.22192 -0.623779,-1.70044 -0.615234,-0.47851 -1.734619,-0.47851 -0.871582,0 -1.708985,0.23926 -0.837402,0.23925 -1.56372,0.6665 l 0,-1.57227 q 0.786132,-0.29052 1.589355,-0.47851 0.803223,-0.18799 1.640625,-0.18799 0.854492,0 1.657715,0.23926 0.811768,0.23071 1.401367,0.76904 0.5896,0.52979 0.786133,1.427 0.136719,0.63233 0.136719,1.90552 l 0,1.95679 q 0,0.80322 0.08545,1.77734 0.09399,0.97412 0.418701,1.72608 l -1.58081,0 q -0.145264,-0.33326 -0.230713,-0.70923 -0.08545,-0.38452 -0.136719,-0.74341 -0.50415,0.86304 -1.401367,1.28174 -0.888672,0.4187 -1.879883,0.4187 z m 0.384521,-1.31592 q 0.974122,0 1.580811,-0.47852 0.615234,-0.47851 0.897217,-1.24755 0.281982,-0.77759 0.281982,-1.66626 l 0,-0.35035 -1.990967,0 q -0.666504,0 -1.307373,0.15381 -0.632324,0.14527 -1.051025,0.56397 -0.410156,0.4187 -0.410156,1.22192 0,0.90576 0.55542,1.35864 0.55542,0.44434 1.444091,0.44434 z"
         style="font-size:17.5px"
         id="path4176"
         inkscape:connector-curvature="0" />
      <path
         d="m 81.799614,141.18181 q -1.811523,0 -2.631836,-1.45264 l -0.153809,1.20484 -1.418457,0 0,-13.2959 1.572266,0 0,4.94751 q 0.393066,-0.74341 1.085205,-1.09375 0.692139,-0.35889 1.555176,-0.35889 1.02539,0 1.726074,0.44434 0.700684,0.43579 1.119385,1.17065 0.427246,0.72632 0.606689,1.61499 0.187989,0.88867 0.187989,1.77734 0,0.89722 -0.187989,1.79444 -0.187988,0.88867 -0.615234,1.62353 -0.418701,0.73487 -1.119385,1.1792 -0.700683,0.44434 -1.726074,0.44434 z m -0.316162,-1.33301 q 0.751953,0 1.204834,-0.35034 0.461426,-0.35034 0.692138,-0.91431 0.239258,-0.56396 0.324708,-1.20483 0.08545,-0.64087 0.08545,-1.22193 0,-0.58105 -0.08545,-1.22192 -0.08545,-0.64941 -0.324708,-1.20483 -0.230712,-0.56397 -0.692138,-0.91431 -0.452881,-0.35034 -1.204834,-0.35034 -0.743408,0 -1.204834,0.35034 -0.452881,0.35034 -0.700684,0.90576 -0.239258,0.55542 -0.324707,1.20484 -0.08545,0.64086 -0.08545,1.22192 0,0.5896 0.08545,1.23901 0.08545,0.64087 0.324707,1.20484 0.247803,0.55542 0.700684,0.90576 0.461426,0.35034 1.204834,0.35034 z"
         style="font-size:17.5px"
         id="path4178"
         inkscape:connector-curvature="0" />
      <path
         d="m 92.497856,141.18181 q -1.512451,0 -2.546387,-0.63233 -1.02539,-0.64086 -1.555175,-1.77734 -0.521241,-1.13647 -0.521241,-2.61475 0,-1.48681 0.529786,-2.61474 0.529785,-1.13648 1.56372,-1.7688 1.033936,-0.64087 2.563477,-0.64087 0.794678,0 1.435547,0.18799 0.640869,0.17944 1.307373,0.54687 l 0,1.64917 q -0.60669,-0.53833 -1.221924,-0.79467 -0.60669,-0.25635 -1.384277,-0.25635 -1.153565,0 -1.845704,0.4956 -0.683593,0.49561 -0.99121,1.33301 -0.299073,0.8374 -0.299073,1.86279 0,1.01685 0.307617,1.8628 0.307618,0.8374 0.991211,1.33301 0.683594,0.4956 1.828614,0.4956 0.751953,0 1.401367,-0.2478 0.649414,-0.2478 1.213379,-0.78613 l 0,1.63208 q -1.221924,0.73486 -2.7771,0.73486 z"
         style="font-size:17.5px"
         id="path4180"
         inkscape:connector-curvature="0" />
      <path
         d="m 101.73492,141.18181 q -1.04248,0 -1.751712,-0.44434 -0.709229,-0.44433 -1.136475,-1.18774 -0.418701,-0.74341 -0.606689,-1.64063 -0.187989,-0.90576 -0.187989,-1.82006 0,-2.29004 0.999756,-3.62305 1.008299,-1.33301 2.717289,-1.33301 0.8374,0 1.5039,0.35889 0.66651,0.35034 1.05957,1.09375 l 0,-4.94751 1.57227,0 0,13.2959 -1.41846,0 -0.15381,-1.20484 q -0.84594,1.45264 -2.59765,1.45264 z m 0.28198,-1.33301 q 0.74341,0 1.19629,-0.35034 0.46142,-0.35034 0.70068,-0.90576 0.2478,-0.56397 0.33325,-1.20484 0.0855,-0.64941 0.0855,-1.23901 0,-0.58106 -0.0855,-1.22192 -0.0854,-0.64087 -0.33325,-1.19629 -0.23926,-0.56397 -0.70068,-0.91431 -0.45288,-0.35034 -1.19629,-0.35034 -0.75195,0 -1.21338,0.35034 -0.45288,0.35034 -0.69214,0.91431 -0.230711,0.55542 -0.316161,1.19629 -0.08545,0.64086 -0.08545,1.22192 0,0.58105 0.08545,1.23047 0.08545,0.64087 0.316161,1.20483 0.23926,0.55542 0.69214,0.91431 0.46143,0.35034 1.21338,0.35034 z"
         style="font-size:17.5px"
         id="path4182"
         inkscape:connector-curvature="0" />
      <path
         d="m 113.32183,141.18181 q -2.21313,0 -3.47778,-1.32446 -1.25611,-1.33301 -1.25611,-3.6316 0,-1.427 0.49561,-2.58056 0.50415,-1.15357 1.48682,-1.82862 0.99121,-0.68359 2.44384,-0.68359 1.91407,0 2.96509,1.23047 1.05957,1.22192 1.05957,3.39233 l 0,0.76905 -6.8103,0 0,0.0513 q 0,1.49536 0.78613,2.38403 0.78613,0.88867 2.32422,0.88867 0.88867,0 1.71753,-0.28198 0.8374,-0.28198 1.61499,-0.6836 l 0,1.56373 q -0.81177,0.33325 -1.64917,0.52978 -0.82886,0.20508 -1.70044,0.20508 z m 2.14478,-5.88745 q 0,-0.79468 -0.23926,-1.43555 -0.23926,-0.64087 -0.76904,-1.01685 -0.52124,-0.37597 -1.38428,-0.37597 -0.87158,0 -1.46118,0.38452 -0.58106,0.37598 -0.91431,1.01685 -0.32471,0.64086 -0.41016,1.427 l 5.17823,0 z"
         style="font-size:17.5px"
         id="path4184"
         inkscape:connector-curvature="0" />
      <path
         d="m 122.03765,132.58562 -2.55493,0 0,-1.22193 2.55493,0 0,-0.6665 q 0,-1.57227 0.71777,-2.31567 0.72632,-0.74341 2.25586,-0.74341 l 1.88843,0 0,1.30737 -1.78589,0 q -0.8374,0 -1.17065,0.35034 -0.33325,0.3418 -0.33325,1.22193 l 0,0.84594 3.28979,0 0,1.22193 -3.28979,0 0,8.34839 -1.57227,0 0,-8.34839 z"
         style="font-size:17.5px"
         id="path4186"
         inkscape:connector-curvature="0" />
      <path
         d="m 133.70147,144.69377 q -0.69214,0 -1.39282,-0.12817 -0.69214,-0.12818 -1.36719,-0.3418 l 0,-1.55518 q 0.64941,0.30762 1.36719,0.53833 0.72632,0.23072 1.47827,0.23072 0.92285,0 1.43555,-0.36743 0.51269,-0.36744 0.71777,-1.02539 0.21362,-0.64942 0.21362,-1.49537 l 0,-1.13647 q -0.38452,0.82031 -1.04248,1.20483 -0.65796,0.38453 -1.54663,0.38453 -1.01685,0 -1.72607,-0.4358 -0.70923,-0.43579 -1.14502,-1.15356 -0.42725,-0.72632 -0.62378,-1.5979 -0.19654,-0.88013 -0.19654,-1.75171 0,-0.87158 0.19654,-1.74316 0.19653,-0.87159 0.63232,-1.58936 0.43579,-0.72632 1.14502,-1.16211 0.71777,-0.43579 1.74317,-0.43579 0.86303,0 1.5039,0.35889 0.64087,0.35888 1.05957,1.14502 l 0.15381,-1.23902 1.41846,0 0,8.9209 q 0,2.00806 -0.95703,3.18726 -0.94849,1.18774 -3.06763,1.18774 z m 0.17944,-4.99878 q 1.11939,0 1.6919,-0.93139 0.58105,-0.9314 0.58105,-2.70874 0,-0.57251 -0.0855,-1.19629 -0.0855,-0.62378 -0.3247,-1.16211 -0.23072,-0.54688 -0.6836,-0.88867 -0.45288,-0.3418 -1.18774,-0.3418 -1.13648,0 -1.74317,0.90576 -0.59814,0.90576 -0.59814,2.66602 0,1.77734 0.61523,2.71728 0.61524,0.93994 1.73462,0.93994 z"
         style="font-size:17.5px"
         id="path4188"
         inkscape:connector-curvature="0" />
      <path
         d="m 140.77666,127.63811 1.57227,0 0,5.16113 q 0.86304,-1.66626 2.82837,-1.66626 1.1792,0 1.80298,0.54688 0.63232,0.54687 0.87158,1.427 0.23926,0.88012 0.23926,1.89697 l 0,5.93018 -1.58081,0 0,-5.93018 q 0,-1.29028 -0.45288,-1.89697 -0.45288,-0.60669 -1.40992,-0.60669 -0.88867,0 -1.39282,0.44433 -0.4956,0.43579 -0.70068,1.12793 -0.20508,0.69214 -0.20508,1.45264 l 0,5.40894 -1.57227,0 0,-13.2959 z"
         style="font-size:17.5px"
         id="path4190"
         inkscape:connector-curvature="0" />
      <path
         d="m 154.10674,129.62907 q -0.25634,0 -0.25634,-0.25634 l 0,-1.47828 q 0,-0.25634 0.25634,-0.25634 l 1.23047,0 q 0.25635,0 0.25635,0.25634 l 0,1.47828 q 0,0.25634 -0.25635,0.25634 l -1.23047,0 z m 2.8711,11.3733 q -1.40992,0 -2.1875,-0.90577 -0.76905,-0.9143 -0.76905,-2.56347 l 0,-4.93897 -2.0935,0 0,-1.23047 3.66577,0 0,6.16944 q 0,1.04248 0.39307,1.58935 0.39306,0.54688 1.14502,0.54688 l 1.83715,0 0,1.33301 -1.99096,0 z"
         style="font-size:17.5px"
         id="path4192"
         inkscape:connector-curvature="0" />
      <path
         d="m 165.73638,129.62907 q -0.25635,0 -0.25635,-0.25634 l 0,-1.47828 q 0,-0.25634 0.25635,-0.25634 l 1.23047,0 q 0.25635,0 0.25635,0.25634 l 0,1.47828 q 0,0.25634 -0.25635,0.25634 l -1.23047,0 z m -3.5376,13.61206 1.99952,0 q 1.53808,0 1.53808,-2.13623 l 0,-8.51928 -2.70874,0 0,-1.22193 4.28101,0 0,9.74121 q 0,1.65772 -0.76905,2.56348 -0.76904,0.90576 -2.17041,0.90576 l -2.17041,0 0,-1.33301 z"
         style="font-size:17.5px"
         id="path4194"
         inkscape:connector-curvature="0" />
      <path
         d="m 172.62359,127.63811 1.62353,0 0,7.69897 4.1272,-3.97339 1.91406,0 -3.76831,3.60596 4.35791,5.96436 -1.9226,0 -3.5376,-4.93897 -1.17066,1.1023 0,3.83667 -1.62353,0 0,-13.2959 z"
         style="font-size:17.5px"
         id="path4196"
         inkscape:connector-curvature="0" />
      <path
         d="m 188.23516,141.00237 q -1.40991,0 -2.1875,-0.90577 -0.76904,-0.9143 -0.76904,-2.56347 l 0,-8.66455 -2.52075,0 0,-1.23047 4.09301,0 0,9.89502 q 0,1.04248 0.39307,1.58935 0.39307,0.54688 1.14502,0.54688 l 1.83716,0 0,1.33301 -1.99097,0 z"
         style="font-size:17.5px"
         id="path4198"
         inkscape:connector-curvature="0" />
      <path
         d="m 192.67852,131.36369 1.29028,0 0.13672,0.82032 q 0.58106,-1.05103 1.71753,-1.05103 1.22193,0 1.70044,1.20483 0.58106,-1.20483 1.82861,-1.20483 1.16211,0 1.62354,0.87158 0.46997,0.89722 0.46997,3.38379 l 0,5.54566 -1.43555,0 0,-5.4773 q 0,-1.07666 -0.0598,-1.66626 -0.0513,-0.5896 -0.1709,-0.87158 -0.21362,-0.46997 -0.84595,-0.46997 -0.64941,0 -0.89721,0.51269 -0.14527,0.29908 -0.20508,0.87159 -0.0598,0.57251 -0.0598,1.62353 l 0,5.4773 -1.43554,0 0,-5.4773 q 0,-1.03393 -0.0598,-1.64062 -0.0598,-0.60669 -0.18799,-0.88868 -0.23071,-0.47851 -0.86303,-0.47851 -0.63233,0 -0.86304,0.50415 -0.13672,0.29053 -0.19653,0.88867 -0.0598,0.5896 -0.0598,1.61499 l 0,5.4773 -1.427,0 0,-9.57032 z"
         style="font-size:17.5px"
         id="path4200"
         inkscape:connector-curvature="0" />
      <path
         d="m 203.94073,131.36369 1.41845,0 0.15381,1.43555 q 0.86304,-1.66626 2.81128,-1.66626 2.93091,0 2.93091,3.87085 l 0,5.93018 -1.58081,0 0,-5.93018 q 0,-1.29028 -0.45288,-1.89697 -0.44434,-0.60669 -1.38428,-0.60669 -1.11938,0 -1.72607,0.79468 -0.59815,0.78613 -0.59815,2.23022 l 0,5.40894 -1.57226,0 0,-9.57032 z"
         style="font-size:17.5px"
         id="path4202"
         inkscape:connector-curvature="0" />
      <path
         d="m 218.08257,141.18181 q -1.99951,0 -3.05908,-1.29028 -1.05102,-1.29883 -1.05102,-3.72559 0,-2.4353 1.05957,-3.73413 1.05957,-1.29883 3.04199,-1.29883 1.98242,0 3.03345,1.29883 1.05957,1.29028 1.05957,3.74267 0,2.43531 -1.05103,3.72559 -1.05103,1.28174 -3.03345,1.28174 z m -0.009,-1.33301 q 1.17065,0 1.79443,-0.95703 0.63233,-0.95703 0.63233,-2.74292 0,-1.77734 -0.63233,-2.72583 -0.62378,-0.95703 -1.79443,-0.95703 -1.1792,0 -1.81153,0.95703 -0.62377,0.94849 -0.62377,2.72583 0,1.78589 0.63232,2.74292 0.63232,0.95703 1.80298,0.95703 z"
         style="font-size:17.5px"
         id="path4204"
         inkscape:connector-curvature="0" />
      <path
         d="m 224.95269,131.36369 1.427,0 0.15381,1.22193 q 0.82031,-1.45264 2.57202,-1.45264 1.71753,0 2.7002,1.34155 0.99121,1.34156 0.99121,3.66577 0,2.34131 -0.99976,3.69141 -0.99121,1.3501 -2.69165,1.3501 -1.79443,0 -2.57202,-1.45264 l 0,4.84497 -1.58081,0 0,-13.21045 z m 3.94775,8.48511 q 2.24732,0 2.24732,-3.69141 0,-3.6914 -2.24732,-3.6914 -1.15356,0 -1.76025,0.95703 -0.60669,0.95703 -0.60669,2.72583 0,1.77734 0.60669,2.74292 0.61523,0.95703 1.76025,0.95703 z"
         style="font-size:17.5px"
         id="path4206"
         inkscape:connector-curvature="0" />
      <path
         d="m 241.29058,139.74626 q -0.80322,1.46973 -2.6062,1.46973 -1.02539,0 -1.72607,-0.43579 -0.70069,-0.44434 -1.12793,-1.17066 -0.42725,-0.72632 -0.61524,-1.5979 -0.18799,-0.88012 -0.18799,-1.76025 0,-2.3584 0.99121,-3.71704 0.99976,-1.36719 2.71729,-1.36719 1.75171,0 2.55493,1.45264 l 0.15381,-1.22193 1.427,0 0,13.21045 -1.58081,0 0,-4.86206 z m -2.29858,0.13672 q 1.10229,0 1.70044,-0.95703 0.59814,-0.96558 0.59814,-2.74292 0,-1.77734 -0.59814,-2.72583 -0.5896,-0.95703 -1.70044,-0.95703 -1.11084,0 -1.70899,0.95703 -0.5896,0.95703 -0.5896,2.73437 0,1.7688 0.5896,2.73438 0.59815,0.95703 1.70899,0.95703 z"
         style="font-size:17.5px"
         id="path4208"
         inkscape:connector-curvature="0" />
      <path
         d="m 246.96441,131.36369 1.427,0 0.15381,1.87134 q 0.40161,-1.01684 1.20483,-1.55517 0.81177,-0.54688 1.9397,-0.54688 1.1792,0 2.05078,0.59814 l 0,1.60645 q -0.92285,-0.75195 -2.1875,-0.75195 -1.45263,0 -2.23022,0.93139 -0.77759,0.92286 -0.77759,2.65747 l 0,4.75953 -1.58081,0 0,-9.57032 z"
         style="font-size:17.5px"
         id="path4210"
         inkscape:connector-curvature="0" />
      <path
         d="m 259.94415,141.18181 q -1.36719,0 -3.2129,-0.59815 l 0,-1.62353 q 1.79444,0.90576 3.19581,0.90576 0.99975,0 1.5979,-0.4187 0.59814,-0.4187 0.59814,-1.11939 0,-0.60668 -0.50415,-0.97412 -0.49561,-0.37597 -1.58936,-0.60669 l -0.65795,-0.13671 q -1.3501,-0.27344 -1.98243,-0.89722 -0.62378,-0.63233 -0.62378,-1.71753 0,-1.37573 0.93995,-2.11914 0.93994,-0.74341 2.67456,-0.74341 1.46972,0 2.84546,0.56397 l 0,1.53808 q -1.34156,-0.78613 -2.80274,-0.78613 -2.06787,0 -2.06787,1.40991 0,0.46143 0.17944,0.73486 0.17945,0.2649 0.6836,0.45288 0.50415,0.17945 1.48681,0.37598 l 0.63233,0.11963 q 2.37549,0.46997 2.37549,2.58911 0,1.41846 -1.00831,2.23877 -1.0083,0.81177 -2.76,0.81177 z"
         style="font-size:17.5px"
         id="path4212"
         inkscape:connector-curvature="0" />
      <path
         d="m 272.33428,140.96819 q -1.76025,0 -2.49512,-0.70923 -0.72631,-0.71778 -0.72631,-2.44385 l 0,-5.22949 -2.55494,0 0,-1.22193 2.55494,0 0,-2.50366 1.57226,-0.68359 0,3.18725 3.57178,0 0,1.22193 -3.57178,0 0,5.22949 q 0,1.05102 0.40161,1.47827 0.40161,0.4187 1.40137,0.4187 l 1.7688,0 0,1.25611 -1.92261,0 z"
         style="font-size:17.5px"
         id="path4214"
         inkscape:connector-curvature="0" />
      <path
         d="m 280.54595,141.18181 q -2.91382,0 -2.91382,-3.87085 l 0,-5.93018 1.57227,0 0,5.93018 q 0,2.50366 1.87134,2.50366 1.09375,0 1.69189,-0.78613 0.59815,-0.79468 0.59815,-2.23877 l 0,-5.40894 1.58081,0 0,9.55323 -1.42701,0 -0.1538,-1.43555 q -0.8545,1.68335 -2.81983,1.68335 z"
         style="font-size:17.5px"
         id="path4216"
         inkscape:connector-curvature="0" />
      <path
         d="m 287.34771,131.36369 1.63208,0 2.7771,8.03223 2.78564,-8.03223 1.63208,0 -3.40087,9.57032 -2.02515,0 -3.40088,-9.57032 z"
         style="font-size:17.5px"
         id="path4218"
         inkscape:connector-curvature="0" />
      <path
         d="m 297.02056,131.36369 1.55518,0 1.66626,7.73316 1.36718,-4.93897 1.34156,0 1.38427,4.93897 1.66626,-7.73316 1.55518,0 -2.23877,9.57032 -1.50391,0 -1.52954,-5.24659 -1.52099,5.24659 -1.50391,0 -2.23877,-9.57032 z"
         style="font-size:17.5px"
         id="path4220"
         inkscape:connector-curvature="0" />
      <path
         d="m 311.95708,135.94377 -3.42651,-4.58008 1.74317,0 2.53784,3.4607 2.52075,-3.4607 1.7688,0 -3.42652,4.58008 3.75977,4.99024 -1.82007,0 -2.80273,-3.83667 -2.79419,3.83667 -1.82007,0 3.75976,-4.99024 z"
         style="font-size:17.5px"
         id="path4222"
         inkscape:connector-curvature="0" />
      <path
         d="m 319.64751,143.25822 0.9314,0 q 0.69214,0 1.06812,-0.39306 0.4187,-0.43579 1.01684,-2.08496 l -3.69995,-9.41651 1.66626,0 2.83691,7.48535 2.79419,-7.48535 1.66626,0 -2.52075,6.49414 q -0.29907,0.76905 -0.52124,1.34156 -0.0684,0.1709 -0.11108,0.27343 -0.0342,0.094 -0.094,0.24781 -0.0513,0.15381 -0.1709,0.4956 l -0.10253,0.27344 q -0.33326,0.9314 -0.63233,1.63208 -0.29053,0.70923 -0.4956,1.06812 -0.76905,1.38427 -2.36695,1.38427 l -1.26465,0 0,-1.31592 z"
         style="font-size:17.5px"
         id="path4224"
         inkscape:connector-curvature="0" />
      <path
         d="m 330.33721,139.48137 5.49439,-6.87866 -5.28931,0 0,-1.25611 6.94702,0 0,1.43555 -5.49438,6.87012 5.49438,0 0,1.28174 -7.1521,0 0,-1.45264 z"
         style="font-size:17.5px"
         id="path4226"
         inkscape:connector-curvature="0" />
      <path
         d="m 69.64019,150.05144 2.093506,0 3.905029,12.75757 -1.785888,0 -0.939942,-3.32398 -4.468994,0 -0.922852,3.32398 -1.785888,0 3.905029,-12.75757 z m 2.862549,8.04931 -1.820068,-6.52832 -1.820069,6.52832 3.640137,0 z"
         style="font-size:17.5px"
         id="path4228"
         inkscape:connector-curvature="0" />
      <path
         d="m 77.364799,150.05144 3.776856,0 q 1.948242,0 3.016357,0.84594 1.059571,0.84595 1.059571,2.40113 0,0.59814 -0.145264,1.05957 -0.145264,0.45288 -0.410156,0.77759 -0.273438,0.3247 -0.692139,0.54687 -0.418701,0.21362 -0.991211,0.29907 1.264649,0.18799 1.973877,1.06812 0.709229,0.88013 0.709229,2.2644 0,1.72608 -1.136475,2.6062 -1.14502,0.88868 -3.383789,0.88868 l -3.776856,0 0,-12.75757 z m 3.742676,5.26367 q 1.264649,0 1.811524,-0.48706 0.55542,-0.47852 0.55542,-1.51245 0,-0.99976 -0.546875,-1.41846 -0.55542,-0.42725 -1.820069,-0.42725 l -2.008056,0 0,3.84522 2.008056,0 z m 0.03418,6.07544 q 1.486816,0 2.144775,-0.52979 0.640869,-0.52978 0.640869,-1.72607 0,-1.24756 -0.675048,-1.83716 -0.683594,-0.58105 -2.110596,-0.58105 l -2.042236,0 0,4.67407 2.042236,0 z"
         style="font-size:17.5px"
         id="path4230"
         inkscape:connector-curvature="0" />
      <path
         d="m 92.814018,163.05681 q -1.196289,0 -2.161865,-0.42725 -0.957031,-0.42724 -1.640625,-1.30737 -1.350098,-1.75171 -1.350098,-4.87061 0,-2.08496 0.615235,-3.56323 0.615234,-1.48681 1.768799,-2.27295 1.162109,-0.79468 2.768554,-0.79468 0.828858,0 1.486817,0.16236 0.666504,0.16235 1.341552,0.53833 l 0,1.7688 q -0.623779,-0.52124 -1.358642,-0.79468 -0.743408,-0.27344 -1.478272,-0.27344 -1.666259,0 -2.503662,1.29883 -0.837402,1.29883 -0.837402,3.92212 0,5.2124 3.358154,5.2124 0.734863,0 1.478272,-0.27344 0.717773,-0.27343 1.341552,-0.79467 l 0,1.76879 q -0.675048,0.35035 -1.350097,0.52979 -0.683594,0.1709 -1.478272,0.1709 z"
         style="font-size:17.5px"
         id="path4232"
         inkscape:connector-curvature="0" />
      <path
         d="m 98.171684,150.05144 2.589116,0 q 2.92236,0 4.30664,1.55517 1.38427,1.55518 1.38427,4.83643 0,3.25561 -1.38427,4.81079 -1.38428,1.55518 -4.30664,1.55518 l -2.589116,0 0,-12.75757 z m 2.554936,11.33911 q 2.1875,0 3.04199,-1.07666 0.86304,-1.06812 0.86304,-3.88794 0,-2.82837 -0.8545,-3.88794 -0.43579,-0.54688 -1.21338,-0.80322 -0.76904,-0.2649 -1.83715,-0.2649 l -0.820317,0 0,9.92066 0.820317,0 z"
         style="font-size:17.5px"
         id="path4234"
         inkscape:connector-curvature="0" />
      <path
         d="m 109.21172,150.05144 7.5708,0 0,1.45263 -5.84472,0 0,3.77686 5.58838,0 0,1.45264 -5.58838,0 0,4.6228 6.00708,0 0,1.45264 -7.73316,0 0,-12.75757 z"
         style="font-size:17.5px"
         id="path4236"
         inkscape:connector-curvature="0" />
      <path
         d="m 120.04668,150.05144 7.51099,0 0,1.45263 -5.77637,0 0,3.93067 5.23804,0 0,1.45263 -5.23804,0 0,5.92164 -1.73462,0 0,-12.75757 z"
         style="font-size:17.5px"
         id="path4238"
         inkscape:connector-curvature="0" />
      <path
         d="m 134.56451,163.05681 q -1.22193,0 -2.17041,-0.44434 -0.93995,-0.44433 -1.5979,-1.29883 -1.34156,-1.7517 -1.34156,-4.86206 0,-3.16162 1.36719,-4.89624 1.36719,-1.73462 3.76831,-1.73462 0.8374,0 1.57227,0.22217 0.75195,0.23926 1.41845,0.69214 l 0,1.7688 q -0.36743,-0.35034 -0.73486,-0.5896 -0.35889,-0.23926 -0.68359,-0.38452 -0.37598,-0.16235 -0.76905,-0.23071 -0.39306,-0.0769 -0.77758,-0.0769 -1.66626,0 -2.51221,1.29883 -0.84595,1.29883 -0.84595,3.93921 0,1.3501 0.20508,2.31567 0.20508,0.95703 0.61523,1.5979 0.81177,1.28174 2.51221,1.28174 0.56397,0 0.99976,-0.13672 0.20508,-0.0684 0.40161,-0.16235 0.19653,-0.10254 0.37598,-0.2478 l 0,-3.42652 -1.85425,0 0,-1.41845 3.50341,0 0,5.49438 q -0.70068,0.64941 -1.55517,0.96558 -0.87158,0.33325 -1.89697,0.33325 z"
         style="font-size:17.5px"
         id="path4240"
         inkscape:connector-curvature="0" />
      <path
         d="m 140.28106,150.05144 1.73462,0 0,5.22949 4.72534,0 0,-5.22949 1.73462,0 0,12.75757 -1.73462,0 0,-6.07544 -4.72534,0 0,6.07544 -1.73462,0 0,-12.75757 z"
         style="font-size:17.5px"
         id="path4242"
         inkscape:connector-curvature="0" />
      <path
         d="m 151.35528,161.35637 2.67456,0 0,-9.8523 -2.67456,0 0,-1.45263 7.08374,0 0,1.45263 -2.67456,0 0,9.8523 2.67456,0 0,1.45264 -7.08374,0 0,-1.45264 z"
         style="font-size:17.5px"
         id="path4244"
         inkscape:connector-curvature="0" />
      <path
         d="m 164.45464,163.05681 q -0.90576,0 -1.66626,-0.18799 -0.81176,-0.18799 -1.69189,-0.58105 l 0,-2.01661 q 0.77759,0.69214 1.60644,1.03394 0.8545,0.35034 1.72608,0.35034 0.57251,0 1.0083,-0.15381 0.44434,-0.15381 0.69214,-0.48706 0.47851,-0.63232 0.47851,-2.36694 l 0,-7.14356 -3.25561,0 0,-1.45263 4.98169,0 0,8.59619 q 0,1.60644 -0.39307,2.58057 -0.39307,0.96557 -1.24756,1.40136 -0.85449,0.42725 -2.23877,0.42725 z"
         style="font-size:17.5px"
         id="path4246"
         inkscape:connector-curvature="0" />
      <path
         d="m 171.86309,150.05144 1.73462,0 0,5.67383 5.39185,-5.67383 2.02514,0 -4.9646,5.2124 5.10987,7.54517 -2.08497,0 -4.16137,-6.39161 -1.31592,1.40137 0,4.99024 -1.73462,0 0,-12.75757 z"
         style="font-size:17.5px"
         id="path4248"
         inkscape:connector-curvature="0" />
      <path
         d="m 183.05694,150.05144 1.73462,0 0,11.30493 6.16089,0 0,1.45264 -7.89551,0 0,-12.75757 z"
         style="font-size:17.5px"
         id="path4250"
         inkscape:connector-curvature="0" />
      <path
         d="m 192.48199,150.05144 2.30713,0 2.20459,6.49414 2.22168,-6.49414 2.31567,0 0,12.75757 -1.5979,0 0,-11.27076 -2.27295,6.72486 -1.30737,0 -2.2815,-6.72486 0,11.27076 -1.58935,0 0,-12.75757 z"
         style="font-size:17.5px"
         id="path4252"
         inkscape:connector-curvature="0" />
      <path
         d="m 203.46221,150.05144 2.1875,0 4.30664,10.50171 0,-10.50171 1.66626,0 0,12.75757 -2.1875,0 -4.30664,-10.50171 0,10.50171 -1.66626,0 0,-12.75757 z"
         style="font-size:17.5px"
         id="path4254"
         inkscape:connector-curvature="0" />
      <path
         d="m 218.06548,163.05681 q -2.16186,0 -3.21289,-1.63208 -1.05102,-1.62354 -1.05102,-4.98169 0,-3.35816 1.05957,-4.98169 1.06811,-1.64063 3.20434,-1.64063 1.05103,0 1.8628,0.39307 0.81176,0.39307 1.35864,1.24756 1.05102,1.64062 1.05102,4.98169 0,3.33252 -1.05102,4.97314 -0.54688,0.8545 -1.35864,1.24756 -0.81177,0.39307 -1.8628,0.39307 z m 0,-1.40137 q 1.31592,0 1.89698,-1.20483 0.57251,-1.17066 0.57251,-4.00757 0,-2.83692 -0.57251,-4.01611 -0.58106,-1.20484 -1.89698,-1.20484 -1.29883,0 -1.87988,1.20484 -0.58105,1.23046 -0.58105,4.01611 0,2.7771 0.58105,4.00757 0.58105,1.20483 1.87988,1.20483 z"
         style="font-size:17.5px"
         id="path4256"
         inkscape:connector-curvature="0" />
      <path
         d="m 224.79888,150.05144 3.72559,0 q 2.11914,0 3.23852,0.96557 0.57251,0.50415 0.83741,1.23047 0.26489,0.71778 0.26489,1.62354 0,1.87988 -1.09375,2.84546 -1.08521,0.96557 -3.24707,0.96557 l -1.99951,0 0,5.12696 -1.72608,0 0,-12.75757 z m 3.72559,6.21216 q 0.64087,0 1.10229,-0.1709 0.46143,-0.1709 0.76905,-0.46143 0.6665,-0.63232 0.6665,-1.7688 0,-1.13647 -0.6665,-1.7688 -0.64942,-0.62378 -1.87134,-0.62378 l -1.99951,0 0,4.79371 1.99951,0 z"
         style="font-size:17.5px"
         id="path4258"
         inkscape:connector-curvature="0" />
      <path
         d="m 239.45342,163.03972 q -0.0427,0 -0.1709,0.009 -0.12817,0.009 -0.1538,0.009 -2.12769,0.0513 -3.2129,-1.64063 -1.0852,-1.70044 -1.05957,-4.97314 0,-3.35816 1.05957,-4.98169 1.06812,-1.64063 3.20435,-1.64063 1.05103,0 1.86279,0.39307 0.81177,0.39307 1.35865,1.24756 1.05102,1.64062 1.05102,4.98169 0,2.49512 -0.58105,4.04175 -0.28199,0.75195 -0.72632,1.29883 -0.44434,0.54687 -1.05103,0.85449 l 3.09326,3.16162 -2.0166,0 -2.65747,-2.76001 z m -0.33325,-1.38428 q 1.31592,0 1.89697,-1.20483 0.57251,-1.17066 0.57251,-4.00757 0,-2.83692 -0.57251,-4.01611 -0.58105,-1.20484 -1.89697,-1.20484 -1.29883,0 -1.87988,1.20484 -0.58106,1.23046 -0.58106,4.01611 0,2.7771 0.58106,4.00757 0.58105,1.20483 1.87988,1.20483 z"
         style="font-size:17.5px"
         id="path4260"
         inkscape:connector-curvature="0" />
      <path
         d="m 245.60577,150.05144 3.55468,0 q 2.1106,0 3.22144,0.94848 1.11938,0.95703 1.11938,2.70874 0,0.67505 -0.17089,1.18775 -0.1709,0.50415 -0.5127,0.90576 -0.67505,0.80322 -1.9397,0.98267 0.69214,0.17089 1.13648,0.64086 0.23926,0.24781 0.51269,0.70069 0.28199,0.44433 0.65796,1.19629 l 1.73462,3.48633 -1.85425,0 -1.52099,-3.22144 q -0.33325,-0.70923 -0.63233,-1.14502 -0.29052,-0.43579 -0.54687,-0.63232 -0.26489,-0.20508 -0.62378,-0.29908 -0.35034,-0.094 -0.75195,-0.094 l -1.64917,0 0,5.39185 -1.73462,0 0,-12.75757 z m 3.62304,5.94726 q 1.23902,0 1.84571,-0.55542 0.60669,-0.55542 0.60669,-1.68335 0,-1.11938 -0.64087,-1.70898 -0.30762,-0.27344 -0.77759,-0.42725 -0.46143,-0.15381 -1.1023,-0.15381 l -1.82006,0 0,4.52881 1.88842,0 z"
         style="font-size:17.5px"
         id="path4262"
         inkscape:connector-curvature="0" />
      <path
         d="m 259.90142,163.05681 q -0.91431,0 -1.82007,-0.19653 -0.90576,-0.19654 -1.82007,-0.57251 l 0,-1.83716 q 0.96558,0.61523 1.8628,0.9143 0.86303,0.29053 1.75171,0.29053 1.30737,0 2.04223,-0.58105 0.72632,-0.58106 0.72632,-1.68335 0,-0.91431 -0.4956,-1.40992 -0.27344,-0.28198 -0.69214,-0.46142 -0.41016,-0.17944 -1.05103,-0.32471 l -0.92285,-0.21362 q -0.86304,-0.19653 -1.51245,-0.48706 -0.64087,-0.29053 -1.06812,-0.72632 -0.80322,-0.80322 -0.80322,-2.17895 0,-1.73462 1.15356,-2.75147 0.54688,-0.48706 1.30738,-0.75195 0.76904,-0.2649 1.74316,-0.2649 0.74341,0 1.54663,0.16236 0.39307,0.0855 0.82032,0.21362 0.43579,0.11963 0.88867,0.29053 l 0,1.75171 q -0.41016,-0.2649 -0.80323,-0.44434 -0.38452,-0.18799 -0.76904,-0.31616 -0.79468,-0.25635 -1.58935,-0.25635 -1.22193,0 -1.9397,0.57251 -0.70923,0.57251 -0.70923,1.57227 0,0.43579 0.11963,0.73486 0.12817,0.29053 0.35034,0.50415 0.48706,0.46143 1.73462,0.75195 l 0.90576,0.20508 q 1.7688,0.40161 2.6062,1.31592 0.82886,0.88013 0.82886,2.42676 0,0.97412 -0.29907,1.66626 -0.29907,0.68359 -0.82031,1.12793 -1.11939,0.95703 -3.27271,0.95703 z"
         style="font-size:17.5px"
         id="path4264"
         inkscape:connector-curvature="0" />
      <path
         d="m 269.84771,151.50407 -4.00757,0 0,-1.45263 9.73267,0 0,1.45263 -3.99048,0 0,11.30494 -1.73462,0 0,-11.30494 z"
         style="font-size:17.5px"
         id="path4266"
         inkscape:connector-curvature="0" />
      <path
         d="m 281.22955,163.05681 q -0.88868,0 -1.61499,-0.2478 -0.33326,-0.11963 -0.69214,-0.30762 -0.35035,-0.19653 -0.62378,-0.44434 -0.2649,-0.23926 -0.46997,-0.56396 -0.20508,-0.32471 -0.35035,-0.81177 -0.13671,-0.42725 -0.19653,-1.06812 -0.0598,-0.64941 -0.0598,-1.70043 l 0,-7.86133 1.73462,0 0,8.64746 q 0,0.93139 0.0513,1.32446 0.0513,0.39307 0.17944,0.61524 0.27344,0.50415 0.79468,0.76049 0.51269,0.25635 1.24756,0.25635 0.7434,0 1.2561,-0.25635 0.52978,-0.27343 0.79468,-0.76049 0.13672,-0.24781 0.17944,-0.60669 0.0513,-0.40162 0.0513,-1.31592 l 0,-8.66455 1.72607,0 0,7.86133 q 0,1.12793 -0.0684,1.76025 -0.0684,0.62378 -0.17089,1.0083 -0.23072,0.82886 -0.83741,1.37573 -0.28198,0.25635 -0.63232,0.44434 -0.3418,0.18799 -0.67505,0.30762 -0.31616,0.11108 -0.71777,0.17944 -0.40161,0.0684 -0.90576,0.0684 z"
         style="font-size:17.5px"
         id="path4268"
         inkscape:connector-curvature="0" />
      <path
         d="m 286.98028,150.05144 1.78589,0 2.99072,11.30493 2.99927,-11.30493 1.78589,0 -3.73414,12.75757 -2.0935,0 -3.73413,-12.75757 z"
         style="font-size:17.5px"
         id="path4270"
         inkscape:connector-curvature="0" />
      <path
         d="m 297.02056,150.05144 1.68335,0 1.22192,10.35644 1.45264,-6.85302 1.80298,0 1.46973,6.87011 1.22192,-10.37353 1.68335,0 -1.90552,12.75757 -1.63208,0 -1.73462,-7.57935 -1.72607,7.57935 -1.63208,0 -1.90552,-12.75757 z"
         style="font-size:17.5px"
         id="path4272"
         inkscape:connector-curvature="0" />
      <path
         d="m 311.97417,156.04997 -3.6914,-5.99853 1.85425,0 2.80273,4.81079 2.854,-4.81079 1.85425,0 -3.81958,5.99853 4.09302,6.75904 -1.85425,0 -3.12744,-5.49439 -3.37524,5.49439 -1.8628,0 4.27246,-6.75904 z"
         style="font-size:17.5px"
         id="path4274"
         inkscape:connector-curvature="0" />
      <path
         d="m 322.46734,157.08391 -4.07593,-7.03247 1.83716,0 3.11035,5.6311 3.10181,-5.6311 1.85425,0 -4.09302,7.03247 0,5.7251 -1.73462,0 0,-5.7251 z"
         style="font-size:17.5px"
         id="path4276"
         inkscape:connector-curvature="0" />
      <path
         d="m 329.54253,161.49309 6.4856,-9.98902 -6.29761,0 0,-1.45263 8.28003,0 0,1.31592 -6.66504,9.98901 6.85303,0 0,1.45264 -8.65601,0 0,-1.31592 z"
         style="font-size:17.5px"
         id="path4278"
         inkscape:connector-curvature="0" />
      <path
         d="m 70.69976,184.93181 q -1.999511,0 -3.059082,-1.29028 -1.051025,-1.29883 -1.051025,-3.72559 0,-2.4353 1.05957,-3.73413 1.059571,-1.29883 3.041993,-1.29883 1.982421,0 3.033447,1.29883 1.05957,1.29028 1.05957,3.74267 0,2.43531 -1.051025,3.72559 -1.051026,1.28174 -3.033448,1.28174 z m -0.0085,-1.33301 q 1.170654,0 1.794433,-0.95703 0.632324,-0.95703 0.632324,-2.74292 0,-1.77734 -0.632324,-2.72583 -0.623779,-0.95703 -1.794433,-0.95703 -1.1792,0 -1.811524,0.95703 -0.623779,0.94849 -0.623779,2.72583 0,1.78589 0.632324,2.74292 0.632324,0.95703 1.802979,0.95703 z"
         style="font-size:17.5px"
         id="path4280"
         inkscape:connector-curvature="0" />
      <path
         d="m 81.210014,184.93181 q -2.161865,0 -3.21289,-1.63208 -1.051026,-1.62354 -1.051026,-4.98169 0,-3.35816 1.059571,-4.98169 1.068115,-1.64063 3.204345,-1.64063 1.051026,0 1.862793,0.39307 0.811768,0.39307 1.358643,1.24756 1.051025,1.64062 1.051025,4.98169 0,3.33252 -1.051025,4.97314 -0.546875,0.8545 -1.358643,1.24756 -0.811767,0.39307 -1.862793,0.39307 z m 0,-1.40137 q 1.315918,0 1.896973,-1.20483 0.57251,-1.17066 0.57251,-4.00757 0,-2.83692 -0.57251,-4.01611 -0.581055,-1.20484 -1.896973,-1.20484 -1.298828,0 -1.879882,1.20484 -0.581055,1.23046 -0.581055,4.01611 0,2.7771 0.581055,4.00757 0.581054,1.20483 1.879882,1.20483 z"
         style="font-size:17.5px"
         id="path4282"
         inkscape:connector-curvature="0" />
      <path
         d="m 91.737358,184.93181 q -2.050781,0 -3.084717,-1.67481 -1.04248,-1.68335 -1.04248,-4.93896 0,-3.26416 1.04248,-4.94751 1.033936,-1.67481 3.084717,-1.67481 2.050781,0 3.093262,1.67481 0.512695,0.82031 0.777588,2.05078 0.264892,1.22192 0.264892,2.89673 0,1.6748 -0.264892,2.89673 -0.264893,1.22192 -0.777588,2.04223 -1.051026,1.67481 -3.093262,1.67481 z m 0,-1.36719 q 1.221924,0 1.811524,-1.29883 0.589599,-1.29028 0.589599,-3.94775 0,-2.66602 -0.589599,-3.94775 -0.5896,-1.30738 -1.811524,-1.30738 -1.204834,0 -1.794434,1.29883 -0.299072,0.64087 -0.45288,1.61499 -0.145264,0.96558 -0.145264,2.34131 0,2.67456 0.598144,3.94775 0.598145,1.29883 1.794434,1.29883 z m 0.01709,-2.2644 q -0.273438,0 -0.427246,-0.36743 -0.145264,-0.36744 -0.247803,-0.86304 -0.08545,-0.39307 -0.145264,-0.94849 -0.05127,-0.55542 -0.05127,-0.84595 0,-0.20507 0.03418,-0.73486 0.03418,-0.52978 0.136718,-0.99975 0.247803,-1.22193 0.666504,-1.22193 0.239258,0 0.401612,0.32471 0.170898,0.32471 0.290527,0.92285 0.08545,0.42725 0.136719,0.95703 0.05127,0.52979 0.05127,0.82031 0,0.1709 -0.03418,0.67505 -0.02563,0.50415 -0.111084,1.03394 -0.213624,1.24756 -0.700684,1.24756 z"
         style="font-size:17.5px"
         id="path4284"
         inkscape:connector-curvature="0" />
      <path
         d="m 102.25616,184.93181 q -1.9397,0 -3.041995,-0.95703 -1.09375,-0.95703 -1.09375,-2.70874 0,-1.35865 0.683593,-2.22168 0.675049,-0.85449 1.956792,-1.13648 -0.52124,-0.12817 -0.965581,-0.39306 -0.444336,-0.2649 -0.751953,-0.64942 -0.324707,-0.40161 -0.478515,-0.88012 -0.145264,-0.47852 -0.145264,-1.01685 0,-1.47827 1.033936,-2.38403 0.50415,-0.43579 1.196287,-0.65796 0.70069,-0.23072 1.61499,-0.23072 1.78589,0 2.81983,0.88868 1.03393,0.88012 1.03393,2.39257 0,1.12793 -0.61523,1.88843 -0.60669,0.75196 -1.72608,1.04248 1.29029,0.28199 1.96534,1.13648 0.67504,0.85449 0.67504,2.20459 0,0.89721 -0.29052,1.58081 -0.28199,0.67505 -0.81177,1.13647 -1.11084,0.96558 -3.05908,0.96558 z m 0.009,-7.6648 q 1.04248,0 1.58936,-0.53833 0.54687,-0.53833 0.54687,-1.56372 0,-1.04248 -0.53833,-1.58935 -0.54687,-0.54688 -1.5979,-0.54688 -1.03393,0 -1.58081,0.54688 -0.54687,0.54687 -0.54687,1.58935 0,1.02539 0.54687,1.56372 0.54688,0.53833 1.58081,0.53833 z m 0.0256,6.3147 q 1.13647,0 1.76025,-0.64941 0.63232,-0.65796 0.63232,-1.82007 0,-0.63233 -0.17089,-1.08521 -0.16236,-0.45288 -0.46143,-0.75195 -0.64087,-0.64941 -1.78589,-0.64941 -1.14502,0 -1.77734,0.64087 -0.632326,0.64941 -0.632326,1.82006 0,1.1792 0.632326,1.83716 0.64941,0.65796 1.80298,0.65796 z"
         style="font-size:17.5px"
         id="path4286"
         inkscape:connector-curvature="0" />
      <path
         d="m 122.52471,173.37907 q -0.25635,0 -0.25635,-0.25634 l 0,-1.47828 q 0,-0.25634 0.25635,-0.25634 l 1.23047,0 q 0.25635,0 0.25635,0.25634 l 0,1.47828 q 0,0.25634 -0.25635,0.25634 l -1.23047,0 z m 2.8711,11.3733 q -1.40992,0 -2.1875,-0.90577 -0.76905,-0.9143 -0.76905,-2.56347 l 0,-4.93897 -2.0935,0 0,-1.23047 3.66577,0 0,6.16944 q 0,1.04248 0.39306,1.58935 0.39307,0.54688 1.14502,0.54688 l 1.83716,0 0,1.33301 -1.99096,0 z"
         style="font-size:17.5px"
         id="path4288"
         inkscape:connector-curvature="0" />
      <path
         d="m 130.30059,183.23137 2.67456,0 0,-9.8523 -2.67456,0 0,-1.45263 7.08374,0 0,1.45263 -2.67456,0 0,9.8523 2.67456,0 0,1.45264 -7.08374,0 0,-1.45264 z"
         style="font-size:17.5px"
         id="path4290"
         inkscape:connector-curvature="0" />
      <path
         d="m 146.12579,184.75237 q -1.40992,0 -2.1875,-0.90577 -0.76905,-0.9143 -0.76905,-2.56347 l 0,-8.66455 -2.52075,0 0,-1.23047 4.09302,0 0,9.89502 q 0,1.04248 0.39306,1.58935 0.39307,0.54688 1.14502,0.54688 l 1.83716,0 0,1.33301 -1.99096,0 z"
         style="font-size:17.5px"
         id="path4292"
         inkscape:connector-curvature="0" />
      <path
         d="m 151.47491,171.92644 1.73462,0 0,11.30493 6.16088,0 0,1.45264 -7.8955,0 0,-12.75757 z"
         style="font-size:17.5px"
         id="path4294"
         inkscape:connector-curvature="0" />
      <path
         d="m 162.47222,183.23137 2.68311,0 0,-9.15161 -2.03369,2.31567 -0.93995,-1.14502 2.95655,-3.32397 1.72607,0 0,11.30493 2.64893,0 0,1.45264 -7.04102,0 0,-1.45264 z"
         style="font-size:17.5px"
         id="path4296"
         inkscape:connector-curvature="0" />
      <path
         d="m 188.97857,186.84587 q -2.1106,0 -2.84546,-0.63232 -0.72632,-0.62378 -0.72632,-2.52076 l 0,-2.04223 q 0,-1.28174 -0.45288,-1.78589 -0.46142,-0.49561 -1.65771,-0.49561 l -0.99121,0 0,-1.22192 0.99121,0 q 1.20483,0 1.65771,-0.48706 0.45288,-0.50415 0.45288,-1.7688 l 0,-2.05078 q 0,-1.89697 0.72632,-2.52075 0.70068,-0.62378 2.84546,-0.62378 l 0.54687,0 0,1.22192 -0.59814,0 q -1.19629,0 -1.55518,0.36743 -0.36743,0.36744 -0.36743,1.58936 l 0,2.11914 q 0,1.34155 -0.38452,1.94824 -0.39307,0.60669 -1.33301,0.82031 0.94849,0.23072 1.33301,0.83741 0.38452,0.60669 0.38452,1.93969 l 0,2.11915 q 0,1.22192 0.36743,1.58935 0.35889,0.36743 1.55518,0.36743 l 0.59814,0 0,1.23047 -0.54687,0 z"
         style="font-size:17.5px"
         id="path4298"
         inkscape:connector-curvature="0" />
      <path
         d="m 193.97735,185.69231 0.58105,0 q 1.19629,0 1.57227,-0.37598 0.36743,-0.36743 0.36743,-1.58081 l 0,-2.11914 q 0,-1.33301 0.38452,-1.9397 0.38452,-0.60669 1.33301,-0.8374 -0.93994,-0.22217 -1.32446,-0.82031 -0.18799,-0.29053 -0.29053,-0.75196 -0.10254,-0.46997 -0.10254,-1.19629 l 0,-2.11914 q 0,-1.21338 -0.36743,-1.58081 -0.37598,-0.37597 -1.57227,-0.37597 l -0.58105,0 0,-1.22193 0.52978,0 q 2.14478,0 2.84546,0.62378 0.71778,0.62378 0.71778,2.52075 l 0,2.05079 q 0,0.6665 0.17944,1.09375 0.17944,0.4187 0.53833,0.67504 0.3418,0.24781 0.82886,0.36744 0.4956,0.11962 1.0852,0.11962 l 0.54688,0 0,1.22193 -0.54688,0 q -1.2561,0 -1.91406,0.4956 -0.35889,0.2649 -0.53833,0.69214 -0.17944,0.42725 -0.17944,1.09375 l 0,2.04224 q 0,1.88843 -0.71778,2.52075 -0.73486,0.63233 -2.84546,0.63233 l -0.52978,0 0,-1.23047 z"
         style="font-size:17.5px"
         id="path4300"
         inkscape:connector-curvature="0" />
      <path
         d="m 215.56182,170.70451 5.33203,0 0,1.22193 -3.75976,0 0,13.84277 3.75976,0 0,1.22192 -5.33203,0 0,-16.28662 z"
         style="font-size:17.5px"
         id="path4302"
         inkscape:connector-curvature="0" />
      <path
         d="m 225.773,185.76921 3.75977,0 0,-13.83423 -3.75977,0 0,-1.22192 5.33203,0 0,16.27807 -5.33203,0 0,-1.22192 z"
         style="font-size:17.5px"
         id="path4304"
         inkscape:connector-curvature="0" />
      <path
         d="m 249.50225,188.44377 q -0.69214,0 -1.39282,-0.12817 -0.69214,-0.12818 -1.36719,-0.3418 l 0,-1.55518 q 0.64941,0.30762 1.36719,0.53833 0.72632,0.23072 1.47827,0.23072 0.92285,0 1.43555,-0.36743 0.51269,-0.36744 0.71777,-1.02539 0.21362,-0.64942 0.21362,-1.49537 l 0,-1.13647 q -0.38452,0.82031 -1.04248,1.20483 -0.65796,0.38453 -1.54663,0.38453 -1.01684,0 -1.72607,-0.4358 -0.70923,-0.43579 -1.14502,-1.15356 -0.42725,-0.72632 -0.62378,-1.5979 -0.19653,-0.88013 -0.19653,-1.75171 0,-0.87158 0.19653,-1.74316 0.19653,-0.87159 0.63232,-1.58936 0.43579,-0.72632 1.14502,-1.16211 0.71778,-0.43579 1.74317,-0.43579 0.86303,0 1.5039,0.35889 0.64087,0.35888 1.05957,1.14502 l 0.15381,-1.23902 1.41846,0 0,8.9209 q 0,2.00806 -0.95703,3.18726 -0.94849,1.18774 -3.06763,1.18774 z m 0.17944,-4.99878 q 1.11939,0 1.6919,-0.93139 0.58105,-0.9314 0.58105,-2.70874 0,-0.57251 -0.0855,-1.19629 -0.0855,-0.62378 -0.3247,-1.16211 -0.23072,-0.54688 -0.6836,-0.88867 -0.45288,-0.3418 -1.18774,-0.3418 -1.13648,0 -1.74316,0.90576 -0.59815,0.90576 -0.59815,2.66602 0,1.77734 0.61523,2.71728 0.61524,0.93994 1.73462,0.93994 z"
         style="font-size:17.5px"
         id="path4306"
         inkscape:connector-curvature="0" />
      <path
         d="m 259.4229,184.93181 q -0.31616,0 -0.64941,-0.0342 -0.32471,-0.0256 -0.62378,-0.094 -0.56396,-0.11962 -1.22192,-0.38452 l 0,-1.58935 q 0.53833,0.31616 1.14502,0.47851 0.63232,0.1709 1.2561,0.1709 1.64917,0 2.49512,-1.23901 0.8374,-1.24756 0.8374,-3.63159 -0.19653,0.43579 -0.49561,0.76904 -0.29907,0.33325 -0.63232,0.54687 -0.70923,0.45289 -1.76025,0.45289 -1.74317,0 -2.76001,-1.13648 -1.01685,-1.14502 -1.01685,-3.18726 0,-1.0083 0.2478,-1.82861 0.25635,-0.82886 0.79468,-1.40991 1.01685,-1.11939 2.948,-1.11939 1.17065,0 1.94824,0.41871 0.77759,0.41015 1.28174,1.18774 0.54688,0.85449 0.79468,2.07642 0.2478,1.22192 0.2478,2.76001 0,1.69189 -0.29907,2.96508 -0.29053,1.2732 -0.9314,2.13623 -1.2561,1.6919 -3.60596,1.6919 z m 0.55542,-5.90454 q 0.59815,0 1.03394,-0.20508 0.43579,-0.21362 0.72632,-0.58106 0.62378,-0.78613 0.62378,-2.20459 0,-1.41845 -0.62378,-2.20459 -0.29053,-0.36743 -0.72632,-0.5725 -0.43579,-0.21363 -1.03394,-0.21363 -0.52978,0 -0.96557,0.17945 -0.43579,0.17944 -0.73486,0.57251 -0.58106,0.76049 -0.58106,2.23876 0,1.47828 0.58106,2.23877 0.56396,0.75196 1.70043,0.75196 z"
         style="font-size:17.5px"
         id="path4308"
         inkscape:connector-curvature="0" />
      <path
         d="m 272.87261,183.49626 q -0.80322,1.46973 -2.6062,1.46973 -1.02539,0 -1.72607,-0.43579 -0.70069,-0.44434 -1.12793,-1.17066 -0.42725,-0.72632 -0.61524,-1.5979 -0.18799,-0.88012 -0.18799,-1.76025 0,-2.3584 0.99122,-3.71704 0.99975,-1.36719 2.71728,-1.36719 1.75171,0 2.55493,1.45264 l 0.15381,-1.22193 1.427,0 0,13.21045 -1.58081,0 0,-4.86206 z m -2.29858,0.13672 q 1.10229,0 1.70044,-0.95703 0.59814,-0.96558 0.59814,-2.74292 0,-1.77734 -0.59814,-2.72583 -0.5896,-0.95703 -1.70044,-0.95703 -1.11084,0 -1.70899,0.95703 -0.5896,0.95703 -0.5896,2.73437 0,1.7688 0.5896,2.73438 0.59815,0.95703 1.70899,0.95703 z"
         style="font-size:17.5px"
         id="path4310"
         inkscape:connector-curvature="0" />
      <path
         d="m 282.30621,184.93181 q -1.19629,0 -2.16187,-0.42725 -0.95703,-0.42724 -1.64062,-1.30737 -1.3501,-1.75171 -1.3501,-4.87061 0,-2.08496 0.61523,-3.56323 0.61524,-1.48681 1.7688,-2.27295 1.16211,-0.79468 2.76856,-0.79468 0.82885,0 1.48681,0.16236 0.66651,0.16235 1.34155,0.53833 l 0,1.7688 q -0.62377,-0.52124 -1.35864,-0.79468 -0.74341,-0.27344 -1.47827,-0.27344 -1.66626,0 -2.50366,1.29883 -0.8374,1.29883 -0.8374,3.92212 0,5.2124 3.35815,5.2124 0.73486,0 1.47827,-0.27344 0.71778,-0.27343 1.34155,-0.79467 l 0,1.76879 q -0.67504,0.35035 -1.35009,0.52979 -0.6836,0.1709 -1.47827,0.1709 z"
         style="font-size:17.5px"
         id="path4312"
         inkscape:connector-curvature="0" />
      <path
         d="m 292.47466,184.93181 q -1.22192,0 -2.17041,-0.44434 -0.93994,-0.44433 -1.5979,-1.29883 -1.34155,-1.7517 -1.34155,-4.86206 0,-3.16162 1.36719,-4.89624 1.36718,-1.73462 3.76831,-1.73462 0.8374,0 1.57226,0.22217 0.75196,0.23926 1.41846,0.69214 l 0,1.7688 q -0.36743,-0.35034 -0.73486,-0.5896 -0.35889,-0.23926 -0.6836,-0.38452 -0.37597,-0.16235 -0.76904,-0.23071 -0.39307,-0.0769 -0.77759,-0.0769 -1.66626,0 -2.5122,1.29883 -0.84595,1.29883 -0.84595,3.93921 0,1.3501 0.20508,2.31567 0.20507,0.95703 0.61523,1.5979 0.81177,1.28174 2.51221,1.28174 0.56396,0 0.99975,-0.13672 0.20508,-0.0684 0.40161,-0.16235 0.19654,-0.10254 0.37598,-0.2478 l 0,-3.42652 -1.85425,0 0,-1.41845 3.50342,0 0,5.49438 q -0.70068,0.64941 -1.55517,0.96558 -0.87159,0.33325 -1.89698,0.33325 z"
         style="font-size:17.5px"
         id="path4314"
         inkscape:connector-curvature="0" />
      <path
         d="m 302.61749,184.91472 q -0.0427,0 -0.1709,0.009 -0.12818,0.009 -0.15381,0.009 -2.12769,0.0513 -3.21289,-1.64063 -1.08521,-1.70044 -1.05957,-4.97314 0,-3.35816 1.05957,-4.98169 1.06811,-1.64063 3.20434,-1.64063 1.05103,0 1.8628,0.39307 0.81176,0.39307 1.35864,1.24756 1.05102,1.64062 1.05102,4.98169 0,2.49512 -0.58105,4.04175 -0.28198,0.75195 -0.72632,1.29883 -0.44433,0.54687 -1.05102,0.85449 l 3.09326,3.16162 -2.0166,0 -2.65747,-2.76001 z m -0.33326,-1.38428 q 1.31592,0 1.89698,-1.20483 0.57251,-1.17066 0.57251,-4.00757 0,-2.83692 -0.57251,-4.01611 -0.58106,-1.20484 -1.89698,-1.20484 -1.29883,0 -1.87988,1.20484 -0.58105,1.23046 -0.58105,4.01611 0,2.7771 0.58105,4.00757 0.58105,1.20483 1.87988,1.20483 z"
         style="font-size:17.5px"
         id="path4316"
         inkscape:connector-curvature="0" />
      <path
         d="m 327.91045,177.50627 q -0.0342,0.95703 -0.1538,1.65772 -0.11109,0.70068 -0.42725,1.2561 -0.61524,1.23901 -2.02515,1.23901 -0.67505,0 -1.17065,-0.29052 -0.44434,-0.28199 -1.07666,-1.14502 -0.67505,-0.93994 -0.98267,-1.17066 -0.35034,-0.2478 -0.65796,-0.2478 -0.65796,0 -0.93139,0.61523 -0.29053,0.71778 -0.35889,2.17896 l -1.33301,0 q 0.0342,-1.7688 0.58106,-2.90527 0.70923,-1.22193 1.99951,-1.22193 0.62378,0 1.12793,0.29907 0.25635,0.15381 0.54687,0.44434 0.29908,0.28198 0.57251,0.6665 0.46997,0.64087 0.89722,1.06812 0.35889,0.37598 0.75195,0.37598 0.6836,0 0.98267,-0.69214 0.30762,-0.70069 0.32471,-2.12769 l 1.333,0 z"
         style="font-size:17.5px"
         id="path4318"
         inkscape:connector-curvature="0" />
      <path
         d="m 330.36285,178.84782 7.01538,0 0,1.40137 -7.01538,0 0,-1.40137 z"
         style="font-size:17.5px"
         id="path4320"
         inkscape:connector-curvature="0" />
      <path
         d="m 343.67583,179.92448 -3.79394,0 0,-1.45263 3.79394,0 0,-3.79395 1.43555,0 0,3.79395 3.80249,0 0,1.45263 -3.80249,0 0,3.79395 -1.43555,0 0,-3.79395 z"
         style="font-size:17.5px"
         id="path4322"
         inkscape:connector-curvature="0" />
      <path
         d="m 350.40923,176.73723 9.03199,0 0,1.45264 -9.03199,0 0,-1.45264 z m 0,3.46924 9.03199,0 0,1.46972 -9.03199,0 0,-1.46972 z"
         style="font-size:17.5px"
         id="path4324"
         inkscape:connector-curvature="0" />
      <path
         d="m 360.93658,181.91545 7.26318,-2.70874 -7.26318,-2.73437 0,-1.55518 9.03198,3.57178 0,1.41845 -9.03198,3.57178 0,-1.56372 z"
         style="font-size:17.5px"
         id="path4326"
         inkscape:connector-curvature="0" />
    </g>
  </g>
</svg>
