<?xml version="1.0" encoding="UTF-8" standalone="no"?>
<svg
   version="1.1"
   id="svg2"
   viewBox="0 0 305.51148 108.40331"
   height="30.593824mm"
   width="86.22213mm"
   sodipodi:docname="Hack Nerd Font.svg"
   xmlns:inkscape="http://www.inkscape.org/namespaces/inkscape"
   xmlns:sodipodi="http://sodipodi.sourceforge.net/DTD/sodipodi-0.dtd"
   xmlns="http://www.w3.org/2000/svg"
   xmlns:svg="http://www.w3.org/2000/svg"
   xmlns:rdf="http://www.w3.org/1999/02/22-rdf-syntax-ns#"
   xmlns:cc="http://creativecommons.org/ns#"
   xmlns:dc="http://purl.org/dc/elements/1.1/">
  <sodipodi:namedview
     id="namedview12"
     pagecolor="#ffffff"
     bordercolor="#666666"
     borderopacity="1.0"
     inkscape:showpageshadow="2"
     inkscape:pageopacity="0.0"
     inkscape:pagecheckerboard="0"
     inkscape:deskcolor="#d1d1d1"
     inkscape:document-units="mm" />
  <defs
     id="defs4" />
  <metadata
     id="metadata7">
    <rdf:RDF>
      <cc:Work
         rdf:about="">
        <dc:format>image/svg+xml</dc:format>
        <dc:type
           rdf:resource="http://purl.org/dc/dcmitype/StillImage" />
        <dc:title />
      </cc:Work>
    </rdf:RDF>
  </metadata>
  <g
     id="layer1"
     transform="translate(-64.696743,-80.040077)">
    <g
       aria-label="Hack Nerd Font"
       id="text4136"
       style="font-size:27.5px;font-family:'Hack Nerd Font';letter-spacing:0px;word-spacing:0px;fill:#ffffff">
      <path
         d="M 64.696743,80.886024 H 67.422573 V 89.103798 H 74.84811 V 80.886024 H 77.57394 V 100.93363 H 74.84811 V 91.386513 H 67.422573 V 100.93363 H 64.696743 Z"
         id="path14" />
      <path
         d="M 86.248257,101.32304 Q 84.072964,101.32304 82.649624,100.07426 81.239712,98.81205 81.239712,96.462196 81.239712,94.515175 82.179653,93.427528 83.119595,92.326454 84.636929,91.883339 86.154263,91.440224 87.873013,91.440224 H 91.189663 V 91.050819 Q 91.189663,89.130653 90.209438,88.3787 89.242641,87.626747 87.483608,87.626747 86.113979,87.626747 84.798061,88.002724 83.482143,88.3787 82.340786,89.050087 V 86.579384 Q 83.576138,86.122841 84.838345,85.827431 86.100552,85.532021 87.41647,85.532021 88.759243,85.532021 90.02145,85.907997 91.297085,86.270546 92.223598,87.116493 93.150112,87.949013 93.45895,89.358925 93.673794,90.352577 93.673794,92.35331 V 95.428261 Q 93.673794,96.690468 93.808071,98.22123 93.955776,99.751991 94.46603,100.93363 H 91.981899 Q 91.753628,100.40995 91.61935,99.81913 91.485073,99.214882 91.404507,98.650917 90.61227,100.00712 89.202358,100.66508 87.805874,101.32304 86.248257,101.32304 Z M 86.852505,99.255165 Q 88.383266,99.255165 89.336636,98.503212 90.303432,97.751259 90.746548,96.542763 91.189663,95.320839 91.189663,93.924355 V 93.373817 H 88.061001 Q 87.013638,93.373817 86.006557,93.615517 85.012905,93.843788 84.354946,94.501747 83.710415,95.159706 83.710415,96.421913 83.710415,97.845253 84.583218,98.556923 85.45602,99.255165 86.852505,99.255165 Z"
         id="path16" />
      <path
         d="M 105.43649,101.32304 Q 103.05978,101.32304 101.43502,100.32938 99.823696,99.322304 98.991177,97.536415 98.172085,95.750526 98.172085,93.427528 98.172085,91.091103 99.004604,89.318642 99.837124,87.532753 101.46188,86.539101 103.08664,85.532021 105.4902,85.532021 106.73898,85.532021 107.74606,85.827431 108.75314,86.109413 109.8005,86.686806 V 89.278358 Q 108.84713,88.432411 107.88034,88.029579 106.92697,87.626747 105.70504,87.626747 103.8923,87.626747 102.80465,88.405556 101.73043,89.184364 101.24704,90.500282 100.77707,91.8162 100.77707,93.427528 100.77707,95.025429 101.26046,96.354774 101.74386,97.670692 102.81808,98.449501 103.8923,99.22831 105.69162,99.22831 106.87326,99.22831 107.89376,98.838905 108.91427,98.449501 109.8005,97.603554 V 100.16825 Q 107.88034,101.32304 105.43649,101.32304 Z"
         id="path18" />
      <path
         d="M 115.561,80.040077 H 118.11227 V 92.138466 L 124.59787,85.894569 H 127.60568 L 121.68405,91.561073 128.53219,100.93363 H 125.51095 L 119.95187,93.172401 118.11227,94.904579 V 100.93363 H 115.561 Z"
         id="path20" />
      <path
         d="M 147.50558,80.886024 H 150.94308 L 157.71066,97.38871 V 80.886024 H 160.32907 V 100.93363 H 156.89157 L 150.12399,84.430946 V 100.93363 H 147.50558 Z"
         id="path22" />
      <path
         d="M 171.29953,101.32304 Q 167.82174,101.32304 165.83444,99.241737 163.86056,97.147011 163.86056,93.53495 163.86056,91.292519 164.63937,89.479774 165.43161,87.66703 166.9758,86.606239 168.53341,85.532021 170.81613,85.532021 173.82394,85.532021 175.47555,87.465614 177.14059,89.38578 177.14059,92.796425 V 94.004921 H 166.43869 V 94.085487 Q 166.43869,96.435341 167.67404,97.831825 168.90939,99.22831 171.32638,99.22831 172.72287,99.22831 174.02536,98.785194 175.34127,98.342079 176.5632,97.710976 V 100.16825 Q 175.28756,100.69193 173.97165,101.00077 172.66916,101.32304 171.29953,101.32304 Z M 174.66989,92.071327 Q 174.66989,90.822548 174.29391,89.815468 173.91793,88.808388 173.08541,88.217567 172.26632,87.626747 170.91012,87.626747 169.54049,87.626747 168.61398,88.230995 167.70089,88.821815 167.17721,89.828896 166.66696,90.835976 166.53268,92.071327 Z"
         id="path24" />
      <path
         d="M 182.80709,85.894569 H 185.04953 L 185.29123,88.835243 Q 185.92233,87.237343 187.18454,86.391396 188.46017,85.532021 190.23263,85.532021 192.08566,85.532021 193.45529,86.471962 V 88.996376 Q 192.00509,87.814735 190.01779,87.814735 187.73507,87.814735 186.51315,89.278358 185.29123,90.728554 185.29123,93.454384 V 100.93363 H 182.80709 Z"
         id="path26" />
      <path
         d="M 202.74728,101.32304 Q 201.1091,101.32304 199.99459,100.62479 198.88009,99.926552 198.20871,98.758339 197.55075,97.590126 197.25534,96.180214 196.95993,94.756874 196.95993,93.320107 196.95993,89.721474 198.53097,87.626747 200.11544,85.532021 202.80099,85.532021 204.11691,85.532021 205.16427,86.095985 206.21164,86.646523 206.82931,87.814735 V 80.040077 H 209.30001 V 100.93363 H 207.07101 L 206.82931,99.040321 Q 205.49997,101.32304 202.74728,101.32304 Z M 203.1904,99.22831 Q 204.35861,99.22831 205.07028,98.677773 205.79538,98.127235 206.17135,97.254433 206.56076,96.368202 206.69503,95.361122 206.82931,94.340614 206.82931,93.414101 206.82931,92.501015 206.69503,91.493935 206.56076,90.486855 206.17135,89.614052 205.79538,88.727821 205.07028,88.177284 204.35861,87.626747 203.1904,87.626747 202.00875,87.626747 201.28366,88.177284 200.57199,88.727821 200.19601,89.614052 199.83346,90.486855 199.69918,91.493935 199.56491,92.501015 199.56491,93.414101 199.56491,94.327187 199.69918,95.347694 199.83346,96.354774 200.19601,97.241005 200.57199,98.113808 201.28366,98.677773 202.00875,99.22831 203.1904,99.22831 Z"
         id="path28" />
      <path
         d="M 231.54977,80.886024 H 243.35275 V 83.168739 H 234.2756 V 89.345497 H 242.5068 V 91.628212 H 234.2756 V 100.93363 H 231.54977 Z"
         id="path30" />
      <path
         d="M 253.27584,101.32304 Q 250.13375,101.32304 248.46872,99.295448 246.8171,97.254433 246.8171,93.440956 246.8171,89.614052 248.48214,87.573036 250.14718,85.532021 253.26242,85.532021 256.37765,85.532021 258.02926,87.573036 259.6943,89.600624 259.6943,93.454384 259.6943,97.281288 258.04269,99.308876 256.39108,101.32304 253.27584,101.32304 Z M 253.26242,99.22831 Q 255.10202,99.22831 256.08224,97.724403 257.07589,96.220497 257.07589,93.414101 257.07589,90.621132 256.08224,89.130653 255.10202,87.626747 253.26242,87.626747 251.40939,87.626747 250.41574,89.130653 249.43551,90.621132 249.43551,93.414101 249.43551,96.220497 250.42916,97.724403 251.42282,99.22831 253.26242,99.22831 Z"
         id="path32" />
      <path
         d="M 264.15231,85.894569 H 266.38131 L 266.62301,88.150429 Q 267.97921,85.532021 271.04074,85.532021 275.64645,85.532021 275.64645,91.614784 V 100.93363 H 273.16232 V 91.614784 Q 273.16232,89.587196 272.45065,88.633827 271.75241,87.680458 270.27536,87.680458 268.51632,87.680458 267.56295,88.929237 266.62301,90.164589 266.62301,92.433876 V 100.93363 H 264.15231 Z"
         id="path34" />
      <path
         d="M 288.92648,100.98734 Q 286.16037,100.98734 285.00558,99.872841 283.86422,98.744911 283.86422,96.032509 V 87.814735 H 279.84933 V 85.894569 H 283.86422 V 81.960243 L 286.33493,80.886024 V 85.894569 H 291.94772 V 87.814735 H 286.33493 V 96.032509 Q 286.33493,97.68412 286.96603,98.355507 287.59713,99.013466 289.16818,99.013466 H 291.94772 V 100.98734 Z"
         id="path36" />
    </g>
    <g
       aria-label="abcdefghijklmnopqrstuvwxyzABCDEFGHIJKLMNOPQRSTUVWXYZ oO08 iIlL1 {} [] g9qCGQ ~-+=&gt;"
       id="text4140"
       style="font-size:17.5px;font-family:'Hack Nerd Font';letter-spacing:0px;word-spacing:0px;fill:#ffffff">
      <path
         d="M 69.768768,141.18143 Q 68.384491,141.18143 67.478729,140.38675 66.581512,139.58353 66.581512,138.08817 66.581512,136.84915 67.179657,136.15701 67.777802,135.45633 68.743378,135.17435 69.708954,134.89236 70.802704,134.89236 H 72.9133 V 134.64456 Q 72.9133,133.42264 72.28952,132.94412 71.674286,132.46561 70.554901,132.46561 69.683319,132.46561 68.845917,132.70486 68.008514,132.94412 67.282196,133.37137 V 131.7991 Q 68.068329,131.50858 68.871552,131.32059 69.674774,131.1326 70.512177,131.1326 71.366669,131.1326 72.169891,131.37186 72.981659,131.60257 73.571259,132.1409 74.160858,132.67068 74.357391,133.5679 74.49411,134.20023 74.49411,135.47342 V 137.43021 Q 74.49411,138.23343 74.579559,139.20755 74.673553,140.18167 74.99826,140.93362 H 73.41745 Q 73.272186,140.60037 73.186737,140.2244 73.101288,139.83987 73.050018,139.48099 72.545868,140.34402 71.648651,140.76273 70.759979,141.18143 69.768768,141.18143 Z M 70.15329,139.86551 Q 71.127411,139.86551 71.7341,139.38699 72.349335,138.90848 72.631317,138.13943 72.9133,137.36185 72.9133,136.47318 V 136.12283 H 70.922333 Q 70.255829,136.12283 69.61496,136.27664 68.982635,136.42191 68.563934,136.84061 68.153778,137.25931 68.153778,138.06253 68.153778,138.96829 68.709198,139.42117 69.264618,139.86551 70.15329,139.86551 Z"
         id="path39" />
      <path
         d="M 81.808563,141.18143 Q 79.99704,141.18143 79.176727,139.72879 L 79.022919,140.93362 H 77.604462 V 127.63773 H 79.176727 V 132.58524 Q 79.569794,131.84183 80.261932,131.49149 80.954071,131.1326 81.817108,131.1326 82.842499,131.1326 83.543182,131.57693 84.243866,132.01273 84.662567,132.74759 85.089813,133.47391 85.269257,134.36258 85.457245,135.25125 85.457245,136.13992 85.457245,137.03714 85.269257,137.93436 85.081268,138.82303 84.654022,139.55789 84.235321,140.29276 83.534637,140.73709 82.833954,141.18143 81.808563,141.18143 Z M 81.492401,139.84842 Q 82.244354,139.84842 82.697235,139.49808 83.158661,139.14774 83.389374,138.58377 83.628632,138.01981 83.714081,137.37894 83.79953,136.73807 83.79953,136.15701 83.79953,135.57596 83.714081,134.93509 83.628632,134.28568 83.389374,133.73026 83.158661,133.16629 82.697235,132.81595 82.244354,132.46561 81.492401,132.46561 80.748993,132.46561 80.287567,132.81595 79.834686,133.16629 79.586884,133.72171 79.347626,134.27713 79.262177,134.92654 79.176727,135.56741 79.176727,136.14847 79.176727,136.73807 79.262177,137.38748 79.347626,138.02835 79.586884,138.59232 79.834686,139.14774 80.287567,139.49808 80.748993,139.84842 81.492401,139.84842 Z"
         id="path41" />
      <path
         d="M 92.51535,141.18143 Q 91.002899,141.18143 89.968964,140.5491 88.943573,139.90823 88.413788,138.77176 87.892548,137.63528 87.892548,136.15701 87.892548,134.6702 88.422333,133.54227 88.952118,132.40579 89.986053,131.77347 91.019989,131.1326 92.54953,131.1326 93.344208,131.1326 93.985077,131.32059 94.625946,131.50003 95.29245,131.86746 V 133.51663 Q 94.68576,132.9783 94.070526,132.72195 93.463837,132.46561 92.686249,132.46561 91.532684,132.46561 90.840546,132.96121 90.156952,133.45682 89.849335,134.29422 89.550262,135.13162 89.550262,136.15701 89.550262,137.17386 89.85788,138.01981 90.165497,138.85721 90.849091,139.35281 91.532684,139.84842 92.677704,139.84842 93.429657,139.84842 94.079071,139.60062 94.728485,139.35281 95.29245,138.81448 V 140.44656 Q 94.070526,141.18143 92.51535,141.18143 Z"
         id="path43" />
      <path
         d="M 101.76096,141.18143 Q 100.71848,141.18143 100.00925,140.73709 99.300018,140.29276 98.872772,139.54935 98.454071,138.80594 98.266083,137.90872 98.078094,137.00296 98.078094,136.08865 98.078094,133.79861 99.07785,132.46561 100.08615,131.1326 101.79514,131.1326 102.63254,131.1326 103.29904,131.49149 103.96555,131.84183 104.35861,132.58524 V 127.63773 H 105.93088 V 140.93362 H 104.51242 L 104.35861,139.72879 Q 103.51266,141.18143 101.76096,141.18143 Z M 102.04294,139.84842 Q 102.78635,139.84842 103.23923,139.49808 103.70065,139.14774 103.93991,138.59232 104.18771,138.02835 104.27316,137.38748 104.35861,136.73807 104.35861,136.14847 104.35861,135.56741 104.27316,134.92654 104.18771,134.28568 103.93991,133.73026 103.70065,133.16629 103.23923,132.81595 102.78635,132.46561 102.04294,132.46561 101.29099,132.46561 100.82956,132.81595 100.37668,133.16629 100.13742,133.73026 99.906708,134.28568 99.821259,134.92654 99.735809,135.56741 99.735809,136.14847 99.735809,136.72952 99.821259,137.37894 99.906708,138.01981 100.13742,138.58377 100.37668,139.13919 100.82956,139.49808 101.29099,139.84842 102.04294,139.84842 Z"
         id="path45" />
      <path
         d="M 113.35641,141.18143 Q 111.14328,141.18143 109.87863,139.85696 108.62253,138.52396 108.62253,136.22537 108.62253,134.79837 109.11813,133.64481 109.62228,132.49124 110.60495,131.81619 111.59616,131.1326 113.0488,131.1326 114.96286,131.1326 116.01389,132.36307 117.07346,133.58499 117.07346,135.7554 V 136.52444 H 110.26315 V 136.57571 Q 110.26315,138.07108 111.04929,138.95975 111.83542,139.84842 113.3735,139.84842 114.26218,139.84842 115.09103,139.56644 115.92844,139.28445 116.70602,138.88284 V 140.44656 Q 115.89426,140.77982 115.05685,140.97635 114.228,141.18143 113.35641,141.18143 Z M 115.50119,135.29398 Q 115.50119,134.4993 115.26193,133.85843 115.02267,133.21756 114.49289,132.84158 113.97165,132.46561 113.10861,132.46561 112.23703,132.46561 111.64743,132.85013 111.06638,133.2261 110.73312,133.86697 110.40842,134.50784 110.32297,135.29398 Z"
         id="path47" />
      <path
         d="M 122.08078,132.58524 H 119.52585 V 131.36331 H 122.08078 V 130.69681 Q 122.08078,129.12454 122.79855,128.38113 123.52487,127.63773 125.05441,127.63773 H 126.94284 V 128.9451 H 125.15695 Q 124.31955,128.9451 123.9863,129.29544 123.65305,129.63724 123.65305,130.51736 V 131.36331 H 126.94284 V 132.58524 H 123.65305 V 140.93362 H 122.08078 Z"
         id="path49" />
      <path
         d="M 133.75314,144.69339 Q 133.061,144.69339 132.36032,144.56522 131.66818,144.43704 130.99313,144.22342 V 142.66824 Q 131.64255,142.97586 132.36032,143.20657 133.08664,143.43729 133.83859,143.43729 134.76144,143.43729 135.27414,143.06985 135.78683,142.70242 135.99191,142.04446 136.20554,141.39505 136.20554,140.5491 V 139.41263 Q 135.82101,140.23294 135.16306,140.61746 134.5051,141.00198 133.61642,141.00198 132.59958,141.00198 131.89035,140.56619 131.18112,140.1304 130.74533,139.41263 130.31808,138.68631 130.12155,137.81473 129.92502,136.9346 129.92502,136.06302 129.92502,135.19144 130.12155,134.31985 130.31808,133.44827 130.75388,132.7305 131.18967,132.00418 131.8989,131.56839 132.61667,131.1326 133.64206,131.1326 134.5051,131.1326 135.14597,131.49149 135.78683,131.85037 136.20554,132.63651 L 136.35934,131.39749 H 137.7778 V 140.31839 Q 137.7778,142.32645 136.82077,143.50565 135.87228,144.69339 133.75314,144.69339 Z M 133.93259,139.69461 Q 135.05197,139.69461 135.62448,138.76321 136.20554,137.83182 136.20554,136.05447 136.20554,135.48196 136.12009,134.85818 136.03464,134.23441 135.79538,133.69608 135.56467,133.1492 135.11179,132.8074 134.65891,132.46561 133.92404,132.46561 132.78757,132.46561 132.18088,133.37137 131.58273,134.27713 131.58273,136.03738 131.58273,137.81473 132.19797,138.75467 132.8132,139.69461 133.93259,139.69461 Z"
         id="path51" />
      <path
         d="M 140.83688,127.63773 H 142.40915 V 132.79886 Q 143.27219,131.1326 145.23752,131.1326 146.41672,131.1326 147.0405,131.67947 147.67282,132.22635 147.91208,133.10648 148.15134,133.9866 148.15134,135.00345 V 140.93362 H 146.57053 V 135.00345 Q 146.57053,133.71317 146.11765,133.10648 145.66476,132.49979 144.70773,132.49979 143.81906,132.49979 143.31491,132.94412 142.81931,133.37991 142.61423,134.07205 142.40915,134.76419 142.40915,135.52469 V 140.93362 H 140.83688 Z"
         id="path53" />
      <path
         d="M 154.17551,129.62869 Q 153.91916,129.62869 153.91916,129.37234 V 127.89407 Q 153.91916,127.63773 154.17551,127.63773 H 155.40598 Q 155.66232,127.63773 155.66232,127.89407 V 129.37234 Q 155.66232,129.62869 155.40598,129.62869 Z M 157.0466,141.00198 Q 155.63669,141.00198 154.8591,140.09622 154.09006,139.18192 154.09006,137.53275 V 132.59378 H 151.99655 V 131.36331 H 155.66232 V 137.53275 Q 155.66232,138.57523 156.05539,139.1221 156.44846,139.66898 157.20041,139.66898 H 159.03757 V 141.00198 Z"
         id="path55" />
      <path
         d="M 165.81369,129.62869 Q 165.55734,129.62869 165.55734,129.37234 V 127.89407 Q 165.55734,127.63773 165.81369,127.63773 H 167.04416 Q 167.30051,127.63773 167.30051,127.89407 V 129.37234 Q 167.30051,129.62869 167.04416,129.62869 Z M 162.27609,143.24075 H 164.2756 Q 165.81369,143.24075 165.81369,141.10452 V 132.58524 H 163.10495 V 131.36331 H 167.38596 V 141.10452 Q 167.38596,142.76224 166.61691,143.668 165.84787,144.57376 164.4465,144.57376 H 162.27609 Z"
         id="path57" />
      <path
         d="M 172.70944,127.63773 H 174.33298 V 135.3367 L 178.46017,131.36331 H 180.37424 L 176.60593,134.96927 180.96384,140.93362 H 179.04123 L 175.50363,135.99466 174.33298,137.09695 V 140.93362 H 172.70944 Z"
         id="path59" />
      <path
         d="M 188.32956,141.00198 Q 186.91965,141.00198 186.14206,140.09622 185.37302,139.18192 185.37302,137.53275 V 128.86819 H 182.85226 V 127.63773 H 186.94528 V 137.53275 Q 186.94528,138.57523 187.33835,139.1221 187.73141,139.66898 188.48337,139.66898 H 190.32053 V 141.00198 Z"
         id="path61" />
      <path
         d="M 192.78146,131.36331 H 194.07175 L 194.20847,132.18362 Q 194.78952,131.1326 195.92599,131.1326 197.14792,131.1326 197.62643,132.33743 198.20749,131.1326 199.45505,131.1326 200.61716,131.1326 201.07858,132.00418 201.54855,132.9014 201.54855,135.38797 V 140.93362 H 200.11301 V 135.45633 Q 200.11301,134.37967 200.05319,133.79007 200.00192,133.20047 199.88229,132.91849 199.66867,132.44852 199.03635,132.44852 198.38693,132.44852 198.13913,132.96121 197.99387,133.26028 197.93405,133.83279 197.87424,134.4053 197.87424,135.45633 V 140.93362 H 196.43869 V 135.45633 Q 196.43869,134.42239 196.37888,133.8157 196.31906,133.20901 196.19089,132.92703 195.96017,132.44852 195.32785,132.44852 194.69553,132.44852 194.46481,132.95267 194.32809,133.24319 194.26828,133.84134 194.20847,134.43094 194.20847,135.45633 V 140.93362 H 192.78146 Z"
         id="path63" />
      <path
         d="M 204.05222,131.36331 H 205.47067 L 205.62448,132.79886 Q 206.48752,131.1326 208.43576,131.1326 211.36667,131.1326 211.36667,135.00345 V 140.93362 H 209.78586 V 135.00345 Q 209.78586,133.71317 209.33298,133.10648 208.88864,132.49979 207.9487,132.49979 206.82932,132.49979 206.22263,133.29446 205.62448,134.0806 205.62448,135.52469 V 140.93362 H 204.05222 Z"
         id="path65" />
      <path
         d="M 218.20261,141.18143 Q 216.20309,141.18143 215.14352,139.89114 214.0925,138.59232 214.0925,136.16556 214.0925,133.73026 215.15207,132.43143 216.21164,131.1326 218.19406,131.1326 220.17648,131.1326 221.22751,132.43143 222.28708,133.72171 222.28708,136.1741 222.28708,138.60941 221.23605,139.89969 220.18503,141.18143 218.20261,141.18143 Z M 218.19406,139.84842 Q 219.36472,139.84842 219.98849,138.89139 220.62082,137.93436 220.62082,136.14847 220.62082,134.37112 219.98849,133.42264 219.36472,132.46561 218.19406,132.46561 217.01486,132.46561 216.38254,133.42264 215.75876,134.37112 215.75876,136.14847 215.75876,137.93436 216.39108,138.89139 217.02341,139.84842 218.19406,139.84842 Z"
         id="path67" />
      <path
         d="M 225.08127,131.36331 H 226.50827 L 226.66208,132.58524 Q 227.48239,131.1326 229.2341,131.1326 230.95163,131.1326 231.9343,132.47415 232.92551,133.8157 232.92551,136.13992 232.92551,138.48123 231.92575,139.83133 230.93454,141.18143 229.2341,141.18143 227.43967,141.18143 226.66208,139.72879 V 144.57376 H 225.08127 Z M 229.02902,139.84842 Q 231.27634,139.84842 231.27634,136.15701 231.27634,132.46561 229.02902,132.46561 227.87546,132.46561 227.26877,133.42264 226.66208,134.37967 226.66208,136.14847 226.66208,137.92581 227.26877,138.89139 227.884,139.84842 229.02902,139.84842 Z"
         id="path69" />
      <path
         d="M 241.4277,139.74588 Q 240.62448,141.21561 238.8215,141.21561 237.79611,141.21561 237.09543,140.77982 236.39474,140.33548 235.9675,139.60916 235.54025,138.88284 235.35226,138.01126 235.16428,137.13113 235.16428,136.25101 235.16428,133.89261 236.15549,132.53397 237.15524,131.16678 238.87277,131.16678 240.62448,131.16678 241.4277,132.61942 L 241.58151,131.39749 H 243.00851 V 144.60794 H 241.4277 Z M 239.12912,139.8826 Q 240.23141,139.8826 240.82956,138.92557 241.4277,137.95999 241.4277,136.18265 241.4277,134.4053 240.82956,133.45682 240.23996,132.49979 239.12912,132.49979 238.01828,132.49979 237.42014,133.45682 236.83054,134.41385 236.83054,136.19119 236.83054,137.95999 237.42014,138.92557 238.01828,139.8826 239.12912,139.8826 Z"
         id="path71" />
      <path
         d="M 247.11008,131.36331 H 248.53708 L 248.69089,133.23465 Q 249.0925,132.2178 249.89572,131.67947 250.70749,131.1326 251.83542,131.1326 253.01462,131.1326 253.8862,131.73074 V 133.33719 Q 252.96335,132.58524 251.6987,132.58524 250.24606,132.58524 249.46848,133.51663 248.69089,134.43948 248.69089,136.1741 V 140.93362 H 247.11008 Z"
         id="path73" />
      <path
         d="M 260.09836,141.18143 Q 258.73117,141.18143 256.88547,140.58328 V 138.95975 Q 258.6799,139.86551 260.08127,139.86551 261.08102,139.86551 261.67917,139.44681 262.27731,139.02811 262.27731,138.32742 262.27731,137.72073 261.77316,137.3533 261.27756,136.97733 260.18381,136.74661 L 259.52585,136.60989 Q 258.17575,136.33646 257.54343,135.71268 256.91965,135.08035 256.91965,133.99515 256.91965,132.61942 257.85959,131.87601 258.79953,131.1326 260.53415,131.1326 262.00388,131.1326 263.37961,131.69656 V 133.23465 Q 262.03806,132.44852 260.57687,132.44852 258.509,132.44852 258.509,133.85843 258.509,134.31985 258.68845,134.59329 258.86789,134.85818 259.37204,135.04617 259.87619,135.22562 260.85886,135.42215 L 261.49118,135.54178 Q 263.86667,136.01175 263.86667,138.13089 263.86667,139.54935 262.85837,140.36966 261.85007,141.18143 260.09836,141.18143 Z"
         id="path75" />
      <path
         d="M 272.49704,140.9678 Q 270.73679,140.9678 270.00192,140.25858 269.2756,139.5408 269.2756,137.81473 V 132.58524 H 266.72067 V 131.36331 H 269.2756 V 128.85965 L 270.84787,128.17606 V 131.36331 H 274.41965 V 132.58524 H 270.84787 V 137.81473 Q 270.84787,138.86575 271.24948,139.293 271.65109,139.7117 272.65085,139.7117 H 274.41965 V 140.9678 Z"
         id="path77" />
      <path
         d="M 280.71725,141.18143 Q 277.80344,141.18143 277.80344,137.31058 V 131.3804 H 279.3757 V 137.31058 Q 279.3757,139.81424 281.24704,139.81424 282.34079,139.81424 282.93893,139.02811 283.53708,138.23343 283.53708,136.78934 V 131.3804 H 285.11789 V 140.93362 H 283.69089 L 283.53708,139.49808 Q 282.68259,141.18143 280.71725,141.18143 Z"
         id="path79" />
      <path
         d="M 287.52756,131.36331 H 289.15964 L 291.93674,139.39554 294.72238,131.36331 H 296.35446 L 292.95358,140.93362 H 290.92844 Z"
         id="path81" />
      <path
         d="M 297.20895,131.36331 H 298.76413 L 300.43039,139.09647 301.79758,134.1575 H 303.13913 L 304.52341,139.09647 306.18967,131.36331 H 307.74484 L 305.50607,140.93362 H 304.00217 L 302.47263,135.68704 300.95163,140.93362 H 299.44772 Z"
         id="path83" />
      <path
         d="M 312.15402,135.94339 308.72751,131.36331 H 310.47067 L 313.00851,134.82401 315.52927,131.36331 H 317.29807 L 313.87155,135.94339 317.63132,140.93362 H 315.81125 L 313.00851,137.09695 310.21432,140.93362 H 308.39426 Z"
         id="path85" />
      <path
         d="M 319.853,143.25784 H 320.78439 Q 321.47653,143.25784 321.85251,142.86478 322.27121,142.42899 322.86935,140.77982 L 319.1694,131.36331 H 320.83566 L 323.67258,138.84866 326.46677,131.36331 H 328.13303 L 325.61227,137.85745 Q 325.3132,138.6265 325.09103,139.19901 325.02267,139.3699 324.97995,139.47244 324.94577,139.56644 324.88596,139.72025 324.83469,139.87405 324.71506,140.21585 L 324.61252,140.48929 Q 324.27927,141.42068 323.98019,142.12137 323.68967,142.8306 323.48459,143.18948 322.71555,144.57376 321.11765,144.57376 H 319.853 Z"
         id="path87" />
      <path
         d="M 330.55124,139.48099 336.04562,132.60233 H 330.75632 V 131.34622 H 337.70334 V 132.78177 L 332.20895,139.65189 H 337.70334 V 140.93362 H 330.55124 Z"
         id="path89" />
      <path
         d="M 69.640594,150.05106 H 71.7341 L 75.63913,162.80862 H 73.853241 L 72.9133,159.48465 H 68.444305 L 67.521454,162.80862 H 65.735565 Z M 72.503143,158.10037 70.683075,151.57205 68.863007,158.10037 Z"
         id="path91" />
      <path
         d="M 77.373749,150.05106 H 81.150604 Q 83.098846,150.05106 84.166962,150.897 85.226532,151.74295 85.226532,153.29813 85.226532,153.89627 85.081268,154.3577 84.936005,154.81058 84.671112,155.13528 84.397675,155.45999 83.978973,155.68216 83.560272,155.89578 82.987762,155.98123 84.252411,156.16922 84.961639,157.04935 85.670868,157.92947 85.670868,159.31375 85.670868,161.03983 84.534393,161.91995 83.389374,162.80862 81.150604,162.80862 H 77.373749 Z M 81.116425,155.31473 Q 82.381073,155.31473 82.927948,154.82767 83.483368,154.34915 83.483368,153.31522 83.483368,152.31546 82.936493,151.89676 82.381073,151.46951 81.116425,151.46951 H 79.108368 V 155.31473 Z M 81.150604,161.39017 Q 82.637421,161.39017 83.29538,160.86038 83.936249,160.3306 83.936249,159.13431 83.936249,157.88675 83.2612,157.29715 82.577606,156.71609 81.150604,156.71609 H 79.108368 V 161.39017 Z"
         id="path93" />
      <path
         d="M 92.831512,163.05643 Q 91.635223,163.05643 90.669647,162.62918 89.712616,162.20193 89.029022,161.32181 87.678925,159.5701 87.678925,156.4512 87.678925,154.36624 88.294159,152.88797 88.909393,151.40115 90.062958,150.61502 91.225067,149.82034 92.831512,149.82034 93.66037,149.82034 94.318329,149.9827 94.984833,150.14505 95.659882,150.52103 V 152.28983 Q 95.036102,151.76859 94.301239,151.49515 93.557831,151.22171 92.822968,151.22171 91.156708,151.22171 90.319305,152.52054 89.481903,153.81937 89.481903,156.44266 89.481903,161.65506 92.840057,161.65506 93.574921,161.65506 94.318329,161.38162 95.036102,161.10818 95.659882,160.58694 V 162.35574 Q 94.984833,162.70609 94.309784,162.88553 93.62619,163.05643 92.831512,163.05643 Z"
         id="path95" />
      <path
         d="M 98.197723,150.05106 H 100.78683 Q 103.7092,150.05106 105.09348,151.60623 106.47775,153.16141 106.47775,156.44266 106.47775,159.69827 105.09348,161.25345 103.7092,162.80862 100.78683,162.80862 H 98.197723 Z M 100.75266,161.39017 Q 102.94016,161.39017 103.79465,160.31351 104.65768,159.24539 104.65768,156.42557 104.65768,153.5972 103.80319,152.53763 103.3674,151.99075 102.58981,151.73441 101.82077,151.46951 100.75266,151.46951 H 99.932343 V 161.39017 Z"
         id="path97" />
      <path
         d="M 109.24631,150.05106 H 116.81711 V 151.50369 H 110.97238 V 155.28055 H 116.56076 V 156.73318 H 110.97238 V 161.35599 H 116.97946 V 162.80862 H 109.24631 Z"
         id="path99" />
      <path
         d="M 120.08981,150.05106 H 127.6008 V 151.50369 H 121.82443 V 155.43436 H 127.06247 V 156.88699 H 121.82443 V 162.80862 H 120.08981 Z"
         id="path101" />
      <path
         d="M 134.61618,163.05643 Q 133.39426,163.05643 132.44577,162.61209 131.50583,162.16776 130.84787,161.31326 129.50632,159.56155 129.50632,156.4512 129.50632,153.28958 130.8735,151.55496 132.24069,149.82034 134.64182,149.82034 135.47922,149.82034 136.21408,150.04251 136.96603,150.28177 137.63254,150.73465 V 152.50345 Q 137.26511,152.15311 136.89767,151.91385 136.53879,151.67459 136.21408,151.52933 135.8381,151.36697 135.44504,151.29861 135.05197,151.22171 134.66745,151.22171 133.00119,151.22171 132.15524,152.52054 131.3093,153.81937 131.3093,156.45975 131.3093,157.80984 131.51437,158.77542 131.71945,159.73245 132.12961,160.37332 132.94138,161.65506 134.64182,161.65506 135.20578,161.65506 135.64157,161.51834 135.84665,161.44998 136.04318,161.35599 136.23972,161.25345 136.41916,161.10818 V 157.68167 H 134.56491 V 156.26321 H 138.06833 V 161.7576 Q 137.36765,162.40701 136.51315,162.72318 135.64157,163.05643 134.61618,163.05643 Z"
         id="path103" />
      <path
         d="M 140.34128,150.05106 H 142.0759 V 155.28055 H 146.80124 V 150.05106 H 148.53586 V 162.80862 H 146.80124 V 156.73318 H 142.0759 V 162.80862 H 140.34128 Z"
         id="path105" />
      <path
         d="M 151.42404,161.35599 H 154.0986 V 151.50369 H 151.42404 V 150.05106 H 158.50778 V 151.50369 H 155.83322 V 161.35599 H 158.50778 V 162.80862 H 151.42404 Z"
         id="path107" />
      <path
         d="M 164.53195,163.05643 Q 163.62619,163.05643 162.86569,162.86844 162.05392,162.68045 161.1738,162.28738 V 160.27078 Q 161.95139,160.96292 162.78024,161.30472 163.63474,161.65506 164.50632,161.65506 165.07883,161.65506 165.51462,161.50125 165.95895,161.34744 166.20676,161.01419 166.68527,160.38187 166.68527,158.64725 V 151.50369 H 163.42966 V 150.05106 H 168.41135 V 158.64725 Q 168.41135,160.25369 168.01828,161.22781 167.62521,162.19339 166.77072,162.62918 165.91623,163.05643 164.53195,163.05643 Z"
         id="path109" />
      <path
         d="M 171.94894,150.05106 H 173.68356 V 155.72488 L 179.07541,150.05106 H 181.10056 L 176.13596,155.26346 181.24582,162.80862 H 179.16086 L 174.99948,156.41702 173.68356,157.81839 V 162.80862 H 171.94894 Z"
         id="path111" />
      <path
         d="M 183.15134,150.05106 H 184.88596 V 161.35599 H 191.04684 V 162.80862 H 183.15134 Z"
         id="path113" />
      <path
         d="M 192.58493,150.05106 H 194.89206 L 197.09665,156.5452 199.31833,150.05106 H 201.634 V 162.80862 H 200.0361 V 151.53787 L 197.76315,158.26273 H 196.45578 L 194.17429,151.53787 V 162.80862 H 192.58493 Z"
         id="path115" />
      <path
         d="M 203.5737,150.05106 H 205.7612 L 210.06784,160.55276 V 150.05106 H 211.7341 V 162.80862 H 209.5466 L 205.23996,152.30692 V 162.80862 H 203.5737 Z"
         id="path117" />
      <path
         d="M 218.18552,163.05643 Q 216.02365,163.05643 214.97263,161.42435 213.9216,159.80081 213.9216,156.44266 213.9216,153.0845 214.98117,151.46097 216.04929,149.82034 218.18552,149.82034 219.23654,149.82034 220.04831,150.21341 220.86008,150.60648 221.40695,151.46097 222.45798,153.10159 222.45798,156.44266 222.45798,159.77518 221.40695,161.4158 220.86008,162.27029 220.04831,162.66336 219.23654,163.05643 218.18552,163.05643 Z M 218.18552,161.65506 Q 219.50143,161.65506 220.08249,160.45023 220.655,159.27957 220.655,156.44266 220.655,153.60574 220.08249,152.42654 219.50143,151.22171 218.18552,151.22171 216.88669,151.22171 216.30563,152.42654 215.72458,153.65701 215.72458,156.44266 215.72458,159.21976 216.30563,160.45023 216.88669,161.65506 218.18552,161.65506 Z"
         id="path119" />
      <path
         d="M 224.92746,150.05106 H 228.65305 Q 230.77219,150.05106 231.89157,151.01663 232.46408,151.52078 232.72897,152.2471 232.99387,152.96487 232.99387,153.87064 232.99387,155.75052 231.90012,156.71609 230.81491,157.68167 228.65305,157.68167 H 226.65353 V 162.80862 H 224.92746 Z M 228.65305,156.26321 Q 229.29391,156.26321 229.75534,156.09232 230.21677,155.92142 230.52438,155.63089 231.19089,154.99857 231.19089,153.86209 231.19089,152.72562 230.52438,152.09329 229.87497,151.46951 228.65305,151.46951 H 226.65353 V 156.26321 Z"
         id="path121" />
      <path
         d="M 239.59055,163.03934 Q 239.54782,163.03934 239.41965,163.04788 239.29147,163.05643 239.26584,163.05643 237.13815,163.1077 236.05295,161.4158 234.96774,159.71536 234.99338,156.44266 234.99338,153.0845 236.05295,151.46097 237.12106,149.82034 239.25729,149.82034 240.30832,149.82034 241.12009,150.21341 241.93185,150.60648 242.47873,151.46097 243.52975,153.10159 243.52975,156.44266 243.52975,158.93777 242.9487,160.48441 242.66672,161.23636 242.22238,161.78323 241.77805,162.33011 241.17136,162.63773 L 244.26462,165.79935 H 242.24802 Z M 239.25729,161.65506 Q 240.57321,161.65506 241.15427,160.45023 241.72678,159.27957 241.72678,156.44266 241.72678,153.60574 241.15427,152.42654 240.57321,151.22171 239.25729,151.22171 237.95847,151.22171 237.37741,152.42654 236.79636,153.65701 236.79636,156.44266 236.79636,159.21976 237.37741,160.45023 237.95847,161.65506 239.25729,161.65506 Z"
         id="path123" />
      <path
         d="M 245.75143,150.05106 H 249.30612 Q 251.41672,150.05106 252.52756,150.99954 253.64694,151.95657 253.64694,153.70828 253.64694,154.38333 253.47604,154.89603 253.30515,155.40018 252.96335,155.80179 252.2883,156.60501 251.02365,156.78445 251.71579,156.95535 252.16013,157.42532 252.39938,157.67313 252.67282,158.12601 252.9548,158.57034 253.33078,159.3223 L 255.0654,162.80862 H 253.21115 L 251.69016,159.58719 Q 251.3569,158.87796 251.05783,158.44217 250.7673,158.00638 250.51096,157.80984 250.24606,157.60477 249.88718,157.51077 249.53683,157.41678 249.13522,157.41678 H 247.48605 V 162.80862 H 245.75143 Z M 249.37448,155.99832 Q 250.61349,155.99832 251.22018,155.4429 251.82687,154.88748 251.82687,153.75955 251.82687,152.64017 251.186,152.05057 250.87839,151.77713 250.40842,151.62332 249.94699,151.46951 249.30612,151.46951 H 247.48605 V 155.99832 Z"
         id="path125" />
      <path
         d="M 260.05563,163.05643 Q 259.14133,163.05643 258.23557,162.85989 257.3298,162.66336 256.4155,162.28738 V 160.45023 Q 257.38107,161.06546 258.27829,161.36453 259.14133,161.65506 260.03,161.65506 261.33737,161.65506 262.07224,161.07401 262.79855,160.49295 262.79855,159.39066 262.79855,158.47635 262.30295,157.98074 262.02951,157.69876 261.61081,157.51932 261.20065,157.33987 260.55978,157.19461 L 259.63693,156.98099 Q 258.7739,156.78445 258.12448,156.49393 257.48361,156.2034 257.05637,155.76761 256.25314,154.96439 256.25314,153.58865 256.25314,151.85403 257.40671,150.83719 257.95358,150.35013 258.71408,150.08524 259.48312,149.82034 260.45724,149.82034 261.20065,149.82034 262.00388,149.9827 262.39694,150.06815 262.82419,150.19632 263.25998,150.31595 263.71286,150.48685 V 152.23856 Q 263.3027,151.97366 262.90964,151.79422 262.52512,151.60623 262.14059,151.47806 261.34592,151.22171 260.55124,151.22171 259.32932,151.22171 258.61154,151.79422 257.90231,152.36673 257.90231,153.36649 257.90231,153.80228 258.02194,154.10135 258.15012,154.39188 258.37228,154.6055 258.85934,155.06693 260.1069,155.35745 L 261.01266,155.56253 Q 262.78146,155.96414 263.61887,156.87845 264.44772,157.75858 264.44772,159.30521 264.44772,160.27933 264.14865,160.97147 263.84958,161.65506 263.32834,162.0994 262.20895,163.05643 260.05563,163.05643 Z"
         id="path127" />
      <path
         d="M 270.01047,151.50369 H 266.0029 V 150.05106 H 275.73557 V 151.50369 H 271.74509 V 162.80862 H 270.01047 Z"
         id="path129" />
      <path
         d="M 281.40085,163.05643 Q 280.51218,163.05643 279.78586,162.80862 279.45261,162.689 279.09372,162.50101 278.74338,162.30447 278.46994,162.05667 278.20505,161.81741 277.99997,161.49271 277.79489,161.168 277.64963,160.68094 277.51291,160.25369 277.45309,159.61282 277.39328,158.96341 277.39328,157.91238 V 150.05106 H 279.1279 V 158.69852 Q 279.1279,159.62991 279.17917,160.02298 279.23044,160.41605 279.35861,160.63821 279.63205,161.14236 280.15329,161.39871 280.66599,161.65506 281.40085,161.65506 282.14426,161.65506 282.65695,161.39871 283.18674,161.12527 283.45163,160.63821 283.58835,160.39041 283.63107,160.03152 283.68234,159.62991 283.68234,158.71561 V 150.05106 H 285.40842 V 157.91238 Q 285.40842,159.04031 285.34006,159.67264 285.2717,160.29642 285.16916,160.68094 284.93845,161.5098 284.33176,162.05667 284.04977,162.31302 283.69943,162.50101 283.35764,162.689 283.02438,162.80862 282.70822,162.91971 282.30661,162.98807 281.905,163.05643 281.40085,163.05643 Z"
         id="path131" />
      <path
         d="M 287.16013,150.05106 H 288.94601 L 291.93674,161.35599 294.936,150.05106 H 296.72189 L 292.98776,162.80862 H 290.89426 Z"
         id="path133" />
      <path
         d="M 297.20895,150.05106 H 298.8923 L 300.11423,160.4075 301.56686,153.55447 H 303.36984 L 304.83957,160.42459 306.06149,150.05106 H 307.74484 L 305.83932,162.80862 H 304.20724 L 302.47263,155.22928 300.74655,162.80862 H 299.11447 Z"
         id="path135" />
      <path
         d="M 312.17111,156.04959 308.47971,150.05106 H 310.33395 L 313.13669,154.86185 315.99069,150.05106 H 317.84494 L 314.02536,156.04959 318.11838,162.80862 H 316.26413 L 313.13669,157.31424 309.76144,162.80862 H 307.89865 Z"
         id="path137" />
      <path
         d="M 322.67282,157.08353 318.59689,150.05106 H 320.43405 L 323.5444,155.68216 326.64621,150.05106 H 328.50046 L 324.40744,157.08353 V 162.80862 H 322.67282 Z"
         id="path139" />
      <path
         d="M 329.75656,161.49271 336.24216,151.50369 H 329.94455 V 150.05106 H 338.22458 V 151.36697 L 331.55954,161.35599 H 338.41257 V 162.80862 H 329.75656 Z"
         id="path141" />
      <path
         d="M 70.700165,184.93143 Q 68.700653,184.93143 67.641083,183.64114 66.590057,182.34232 66.590057,179.91556 66.590057,177.48026 67.649628,176.18143 68.709198,174.8826 70.69162,174.8826 72.674042,174.8826 73.725067,176.18143 74.784637,177.47171 74.784637,179.9241 74.784637,182.35941 73.733612,183.64969 72.682587,184.93143 70.700165,184.93143 Z M 70.69162,183.59842 Q 71.862274,183.59842 72.486053,182.64139 73.118378,181.68436 73.118378,179.89847 73.118378,178.12112 72.486053,177.17264 71.862274,176.21561 70.69162,176.21561 69.512421,176.21561 68.880096,177.17264 68.256317,178.12112 68.256317,179.89847 68.256317,181.68436 68.888641,182.64139 69.520966,183.59842 70.69162,183.59842 Z"
         id="path143" />
      <path
         d="M 81.218964,184.93143 Q 79.057098,184.93143 78.006073,183.29935 76.955048,181.67581 76.955048,178.31766 76.955048,174.9595 78.014618,173.33597 79.082733,171.69534 81.218964,171.69534 82.269989,171.69534 83.081757,172.08841 83.893524,172.48148 84.440399,173.33597 85.491425,174.97659 85.491425,178.31766 85.491425,181.65018 84.440399,183.2908 83.893524,184.14529 83.081757,184.53836 82.269989,184.93143 81.218964,184.93143 Z M 81.218964,183.53006 Q 82.534882,183.53006 83.115936,182.32523 83.688446,181.15457 83.688446,178.31766 83.688446,175.48074 83.115936,174.30154 82.534882,173.09671 81.218964,173.09671 79.920135,173.09671 79.339081,174.30154 78.758026,175.53201 78.758026,178.31766 78.758026,181.09476 79.339081,182.32523 79.920135,183.53006 81.218964,183.53006 Z"
         id="path145" />
      <path
         d="M 91.754852,184.93143 Q 89.704071,184.93143 88.670135,183.25662 87.627655,181.57327 87.627655,178.31766 87.627655,175.0535 88.670135,173.37015 89.704071,171.69534 91.754852,171.69534 93.805634,171.69534 94.848114,173.37015 95.360809,174.19046 95.625702,175.42093 95.890594,176.64285 95.890594,178.31766 95.890594,179.99246 95.625702,181.21439 95.360809,182.43631 94.848114,183.25662 93.797089,184.93143 91.754852,184.93143 Z M 91.754852,183.56424 Q 92.976776,183.56424 93.566376,182.26541 94.155975,180.97513 94.155975,178.31766 94.155975,175.65164 93.566376,174.3699 92.976776,173.06253 91.754852,173.06253 90.550018,173.06253 89.960419,174.36136 89.661346,175.00223 89.507538,175.97635 89.362274,176.94193 89.362274,178.31766 89.362274,180.99222 89.960419,182.26541 90.558563,183.56424 91.754852,183.56424 Z M 91.771942,181.29984 Q 91.498505,181.29984 91.344696,180.9324 91.199432,180.56497 91.096893,180.06937 91.011444,179.6763 90.95163,179.12088 90.90036,178.56546 90.90036,178.27493 90.90036,178.06985 90.93454,177.54007 90.968719,177.01028 91.071259,176.54031 91.319061,175.31839 91.737762,175.31839 91.97702,175.31839 92.139374,175.6431 92.310272,175.9678 92.429901,176.56595 92.51535,176.99319 92.56662,177.52298 92.617889,178.05276 92.617889,178.34329 92.617889,178.51419 92.58371,179.01834 92.558075,179.52249 92.472626,180.05228 92.259003,181.29984 91.771942,181.29984 Z"
         id="path147" />
      <path
         d="M 102.2822,184.93143 Q 100.3425,184.93143 99.240204,183.9744 98.146454,183.01736 98.146454,181.26566 98.146454,179.90701 98.830048,179.04398 99.505096,178.18948 100.78683,177.9075 100.26559,177.77933 99.821259,177.51443 99.376923,177.24954 99.069305,176.86502 98.744598,176.46341 98.59079,175.98489 98.445526,175.50638 98.445526,174.96805 98.445526,173.48978 99.479462,172.58401 99.983612,172.14822 100.67575,171.92606 101.37643,171.69534 102.29074,171.69534 104.07663,171.69534 105.11057,172.58401 106.1445,173.46414 106.1445,174.97659 106.1445,176.10452 105.52927,176.86502 104.92258,177.61697 103.80319,177.9075 105.09348,178.18948 105.76852,179.04398 106.44357,179.89847 106.44357,181.24857 106.44357,182.14578 106.15305,182.82938 105.87106,183.50443 105.34128,183.96585 104.23044,184.93143 102.2822,184.93143 Z M 102.29074,177.26663 Q 103.33322,177.26663 103.8801,176.7283 104.42697,176.18997 104.42697,175.16458 104.42697,174.1221 103.88864,173.57523 103.34177,173.02835 102.29074,173.02835 101.25681,173.02835 100.70993,173.57523 100.16306,174.1221 100.16306,175.16458 100.16306,176.18997 100.70993,176.7283 101.25681,177.26663 102.29074,177.26663 Z M 102.31638,183.58133 Q 103.45285,183.58133 104.07663,182.93192 104.70895,182.27396 104.70895,181.11185 104.70895,180.47952 104.53806,180.02664 104.3757,179.57376 104.07663,179.27469 103.43576,178.62527 102.29074,178.62527 101.14572,178.62527 100.5134,179.26614 99.881073,179.91556 99.881073,181.08621 99.881073,182.26541 100.5134,182.92337 101.16281,183.58133 102.31638,183.58133 Z"
         id="path149" />
      <path
         d="M 122.56784,173.37869 Q 122.31149,173.37869 122.31149,173.12234 V 171.64407 Q 122.31149,171.38773 122.56784,171.38773 H 123.79831 Q 124.05466,171.38773 124.05466,171.64407 V 173.12234 Q 124.05466,173.37869 123.79831,173.37869 Z M 125.43893,184.75198 Q 124.02902,184.75198 123.25143,183.84622 122.48239,182.93192 122.48239,181.28275 V 176.34378 H 120.38889 V 175.11331 H 124.05466 V 181.28275 Q 124.05466,182.32523 124.44772,182.8721 124.84079,183.41898 125.59274,183.41898 H 127.4299 V 184.75198 Z"
         id="path151" />
      <path
         d="M 130.35226,183.23099 H 133.02682 V 173.37869 H 130.35226 V 171.92606 H 137.436 V 173.37869 H 134.76144 V 183.23099 H 137.436 V 184.68362 H 130.35226 Z"
         id="path153" />
      <path
         d="M 146.186,184.75198 Q 144.77609,184.75198 143.9985,183.84622 143.22946,182.93192 143.22946,181.28275 V 172.61819 H 140.70871 V 171.38773 H 144.80173 V 181.28275 Q 144.80173,182.32523 145.19479,182.8721 145.58786,183.41898 146.33981,183.41898 H 148.17697 V 184.75198 Z"
         id="path155" />
      <path
         d="M 151.54367,171.92606 H 153.27829 V 183.23099 H 159.43918 V 184.68362 H 151.54367 Z"
         id="path157" />
      <path
         d="M 162.54953,183.23099 H 165.23264 V 174.07938 L 163.19894,176.39505 162.259,175.25003 165.21555,171.92606 H 166.94162 V 183.23099 H 169.59055 V 184.68362 H 162.54953 Z"
         id="path159" />
      <path
         d="M 189.07297,186.84549 Q 186.96237,186.84549 186.22751,186.21317 185.50119,185.58939 185.50119,183.69241 V 181.65018 Q 185.50119,180.36844 185.04831,179.86429 184.58688,179.36868 183.39059,179.36868 H 182.39938 V 178.14676 H 183.39059 Q 184.59543,178.14676 185.04831,177.6597 185.50119,177.15555 185.50119,175.8909 V 173.84012 Q 185.50119,171.94315 186.22751,171.31937 186.92819,170.69559 189.07297,170.69559 H 189.61984 V 171.91751 H 189.0217 Q 187.82541,171.91751 187.46652,172.28494 187.09909,172.65237 187.09909,173.8743 V 175.99344 Q 187.09909,177.33499 186.71457,177.94168 186.3215,178.54837 185.38156,178.76199 186.33005,178.99271 186.71457,179.5994 187.09909,180.20609 187.09909,181.53909 V 183.65823 Q 187.09909,184.88016 187.46652,185.24759 187.82541,185.61502 189.0217,185.61502 H 189.61984 V 186.84549 Z"
         id="path161" />
      <path
         d="M 194.08029,185.69193 H 194.66135 Q 195.85764,185.69193 196.23361,185.31595 196.60104,184.94852 196.60104,183.73514 V 181.616 Q 196.60104,180.28299 196.98557,179.6763 197.37009,179.06961 198.31857,178.8389 197.37863,178.61673 196.99411,178.01859 196.80612,177.72806 196.70358,177.26663 196.60104,176.79666 196.60104,176.07034 V 173.9512 Q 196.60104,172.73782 196.23361,172.37039 195.85764,171.99442 194.66135,171.99442 H 194.08029 V 170.77249 H 194.61008 Q 196.75485,170.77249 197.45554,171.39627 198.17331,172.02005 198.17331,173.91702 V 175.9678 Q 198.17331,176.63431 198.35275,177.06155 198.5322,177.48026 198.89108,177.7366 199.23288,177.98441 199.71994,178.10403 200.21555,178.22366 200.80515,178.22366 H 201.35202 V 179.44559 H 200.80515 Q 199.54904,179.44559 198.89108,179.94119 198.5322,180.20609 198.35275,180.63333 198.17331,181.06058 198.17331,181.72708 V 183.76932 Q 198.17331,185.65775 197.45554,186.29007 196.72067,186.92239 194.61008,186.92239 H 194.08029 Z"
         id="path163" />
      <path
         d="M 215.68185,170.70413 H 221.01389 V 171.92606 H 217.25412 V 185.76883 H 221.01389 V 186.99075 H 215.68185 Z"
         id="path165" />
      <path
         d="M 225.90158,185.76883 H 229.66135 V 171.9346 H 225.90158 V 170.71268 H 231.23361 V 186.99075 H 225.90158 Z"
         id="path167" />
      <path
         d="M 249.64792,188.44339 Q 248.95578,188.44339 248.2551,188.31522 247.56296,188.18704 246.88791,187.97342 V 186.41824 Q 247.53732,186.72586 248.2551,186.95657 248.98141,187.18729 249.73337,187.18729 250.65622,187.18729 251.16891,186.81985 251.68161,186.45242 251.88669,185.79446 252.10031,185.14505 252.10031,184.2991 V 183.16263 Q 251.71579,183.98294 251.05783,184.36746 250.39987,184.75198 249.5112,184.75198 248.49435,184.75198 247.78513,184.31619 247.0759,183.8804 246.64011,183.16263 246.21286,182.43631 246.01633,181.56473 245.81979,180.6846 245.81979,179.81302 245.81979,178.94144 246.01633,178.06985 246.21286,177.19827 246.64865,176.4805 247.08444,175.75418 247.79367,175.31839 248.51144,174.8826 249.53683,174.8826 250.39987,174.8826 251.04074,175.24149 251.68161,175.60037 252.10031,176.38651 L 252.25412,175.14749 H 253.67258 V 184.06839 Q 253.67258,186.07645 252.71555,187.25565 251.76706,188.44339 249.64792,188.44339 Z M 249.82736,183.44461 Q 250.94675,183.44461 251.51926,182.51321 252.10031,181.58182 252.10031,179.80447 252.10031,179.23196 252.01486,178.60818 251.92941,177.98441 251.69016,177.44608 251.45944,176.8992 251.00656,176.5574 250.55368,176.21561 249.81882,176.21561 248.68234,176.21561 248.07565,177.12137 247.47751,178.02713 247.47751,179.78738 247.47751,181.56473 248.09274,182.50467 248.70798,183.44461 249.82736,183.44461 Z"
         id="path169" />
      <path
         d="M 259.57712,184.93143 Q 259.26096,184.93143 258.9277,184.89725 258.603,184.87161 258.30392,184.80325 257.73996,184.68362 257.082,184.41873 V 182.82938 Q 257.62033,183.14554 258.22702,183.30789 258.85934,183.47879 259.48312,183.47879 261.13229,183.47879 261.97824,182.23978 262.81564,180.99222 262.81564,178.60818 262.61911,179.04398 262.32004,179.37723 262.02097,179.71048 261.68771,179.9241 260.97849,180.37698 259.92746,180.37698 258.1843,180.37698 257.16745,179.24051 256.1506,178.09549 256.1506,176.05325 256.1506,175.04495 256.39841,174.22464 256.65475,173.39578 257.19308,172.81473 258.20993,171.69534 260.14108,171.69534 261.31174,171.69534 262.08932,172.11404 262.86691,172.5242 263.37106,173.30179 263.91794,174.15628 264.16574,175.3782 264.41354,176.60013 264.41354,178.13821 264.41354,179.83011 264.11447,181.1033 263.82394,182.3765 263.18307,183.23953 261.92697,184.93143 259.57712,184.93143 Z M 260.13254,179.02689 Q 260.73068,179.02689 261.16647,178.82181 261.60226,178.60818 261.89279,178.24075 262.51657,177.45462 262.51657,176.03616 262.51657,174.61771 261.89279,173.83157 261.60226,173.46414 261.16647,173.25906 260.73068,173.04544 260.13254,173.04544 259.60275,173.04544 259.16696,173.22488 258.73117,173.40433 258.4321,173.79739 257.85104,174.55789 257.85104,176.03616 257.85104,177.51443 258.4321,178.27493 258.99606,179.02689 260.13254,179.02689 Z"
         id="path171" />
      <path
         d="M 273.03537,183.49588 Q 272.23215,184.96561 270.42917,184.96561 269.40378,184.96561 268.70309,184.52982 268.00241,184.08548 267.57516,183.35916 267.14792,182.63284 266.95993,181.76126 266.77194,180.88113 266.77194,180.00101 266.77194,177.64261 267.76315,176.28397 268.76291,174.91678 270.48044,174.91678 272.23215,174.91678 273.03537,176.36942 L 273.18918,175.14749 H 274.61618 V 188.35794 H 273.03537 Z M 270.73679,183.6326 Q 271.83908,183.6326 272.43723,182.67557 273.03537,181.70999 273.03537,179.93265 273.03537,178.1553 272.43723,177.20682 271.84763,176.24979 270.73679,176.24979 269.62595,176.24979 269.0278,177.20682 268.4382,178.16385 268.4382,179.94119 268.4382,181.70999 269.0278,182.67557 269.62595,183.6326 270.73679,183.6326 Z"
         id="path173" />
      <path
         d="M 282.47751,184.93143 Q 281.28122,184.93143 280.31564,184.50418 279.35861,184.07693 278.67502,183.19681 277.32492,181.4451 277.32492,178.3262 277.32492,176.24124 277.94016,174.76297 278.55539,173.27615 279.70895,172.49002 280.87106,171.69534 282.47751,171.69534 283.30637,171.69534 283.96432,171.8577 284.63083,172.02005 285.30588,172.39603 V 174.16483 Q 284.6821,173.64359 283.94724,173.37015 283.20383,173.09671 282.46896,173.09671 280.8027,173.09671 279.9653,174.39554 279.1279,175.69437 279.1279,178.31766 279.1279,183.53006 282.48605,183.53006 283.22092,183.53006 283.96432,183.25662 284.6821,182.98318 285.30588,182.46194 V 184.23074 Q 284.63083,184.58109 283.95578,184.76053 283.27219,184.93143 282.47751,184.93143 Z"
         id="path175" />
      <path
         d="M 292.65451,184.93143 Q 291.43259,184.93143 290.4841,184.48709 289.54416,184.04276 288.8862,183.18826 287.54465,181.43655 287.54465,178.3262 287.54465,175.16458 288.91183,173.42996 290.27902,171.69534 292.68015,171.69534 293.51755,171.69534 294.25241,171.91751 295.00436,172.15677 295.67087,172.60965 V 174.37845 Q 295.30344,174.02811 294.936,173.78885 294.57712,173.54959 294.25241,173.40433 293.87643,173.24197 293.48337,173.17361 293.0903,173.09671 292.70578,173.09671 291.03952,173.09671 290.19357,174.39554 289.34763,175.69437 289.34763,178.33475 289.34763,179.68484 289.5527,180.65042 289.75778,181.60745 290.16794,182.24832 290.97971,183.53006 292.68015,183.53006 293.24411,183.53006 293.6799,183.39334 293.88498,183.32498 294.08151,183.23099 294.27805,183.12845 294.45749,182.98318 V 179.55667 H 292.60324 V 178.13821 H 296.10666 V 183.6326 Q 295.40598,184.28201 294.55148,184.59818 293.6799,184.93143 292.65451,184.93143 Z"
         id="path177" />
      <path
         d="M 302.80588,184.91434 Q 302.76315,184.91434 302.63498,184.92288 302.50681,184.93143 302.48117,184.93143 300.35349,184.9827 299.26828,183.2908 298.18307,181.59036 298.20871,178.31766 298.20871,174.9595 299.26828,173.33597 300.3364,171.69534 302.47263,171.69534 303.52365,171.69534 304.33542,172.08841 305.14719,172.48148 305.69406,173.33597 306.74509,174.97659 306.74509,178.31766 306.74509,180.81277 306.16403,182.35941 305.88205,183.11136 305.43771,183.65823 304.99338,184.20511 304.38669,184.51273 L 307.47995,187.67435 H 305.46335 Z M 302.47263,183.53006 Q 303.78854,183.53006 304.3696,182.32523 304.94211,181.15457 304.94211,178.31766 304.94211,175.48074 304.3696,174.30154 303.78854,173.09671 302.47263,173.09671 301.1738,173.09671 300.59274,174.30154 300.01169,175.53201 300.01169,178.31766 300.01169,181.09476 300.59274,182.32523 301.1738,183.53006 302.47263,183.53006 Z"
         id="path179" />
      <path
         d="M 328.11594,177.50589 Q 328.08176,178.46292 327.96213,179.1636 327.85104,179.86429 327.53488,180.41971 326.91965,181.65872 325.50974,181.65872 324.83469,181.65872 324.33908,181.36819 323.89474,181.08621 323.26242,180.22318 322.58737,179.28323 322.27975,179.05252 321.92941,178.80472 321.6218,178.80472 320.96384,178.80472 320.6904,179.41995 320.39987,180.13773 320.33151,181.59891 H 318.9985 Q 319.03268,179.83011 319.57956,178.69363 320.28879,177.47171 321.57907,177.47171 322.20285,177.47171 322.707,177.77078 322.96335,177.92459 323.25388,178.21512 323.55295,178.4971 323.82639,178.88162 324.29636,179.52249 324.7236,179.94974 325.08249,180.32571 325.47556,180.32571 326.15915,180.32571 326.45822,179.63358 326.76584,178.93289 326.78293,177.50589 Z"
         id="path181" />
      <path
         d="M 330.57687,178.84744 H 337.59225 V 180.24881 H 330.57687 Z"
         id="path183" />
      <path
         d="M 343.89841,179.9241 H 340.10446 V 178.47147 H 343.89841 V 174.67752 H 345.33395 V 178.47147 H 349.13644 V 179.9241 H 345.33395 V 183.71805 H 343.89841 Z"
         id="path185" />
      <path
         d="M 350.64035,176.73685 H 359.67233 V 178.18948 H 350.64035 Z M 350.64035,180.20609 H 359.67233 V 181.67581 H 350.64035 Z"
         id="path187" />
      <path
         d="M 361.17624,181.91507 368.43942,179.20633 361.17624,176.47195 V 174.91678 L 370.20822,178.48856 V 179.90701 L 361.17624,183.47879 Z"
         id="path189" />
    </g>
  </g>
</svg>
