<?xml version="1.0" encoding="UTF-8" standalone="no"?>
<svg
   version="1.1"
   id="svg2"
   viewBox="0 0 303.61153 107.24999"
   height="30.26833mm"
   width="85.685921mm"
   sodipodi:docname="Hasklug Nerd Font.svg"
   inkscape:version="1.1.2 (0a00cf5339, 2022-02-04)"
   xmlns:inkscape="http://www.inkscape.org/namespaces/inkscape"
   xmlns:sodipodi="http://sodipodi.sourceforge.net/DTD/sodipodi-0.dtd"
   xmlns="http://www.w3.org/2000/svg"
   xmlns:svg="http://www.w3.org/2000/svg"
   xmlns:rdf="http://www.w3.org/1999/02/22-rdf-syntax-ns#"
   xmlns:cc="http://creativecommons.org/ns#"
   xmlns:dc="http://purl.org/dc/elements/1.1/">
  <sodipodi:namedview
     id="namedview12"
     pagecolor="#ffffff"
     bordercolor="#666666"
     borderopacity="1.0"
     inkscape:pageshadow="2"
     inkscape:pageopacity="0.0"
     inkscape:pagecheckerboard="0"
     inkscape:document-units="mm"
     showgrid="false"
     inkscape:zoom="0.64052329"
     inkscape:cx="328.63754"
     inkscape:cy="473.83133"
     inkscape:window-width="1458"
     inkscape:window-height="976"
     inkscape:window-x="0"
     inkscape:window-y="32"
     inkscape:window-maximized="0"
     inkscape:current-layer="svg2" />
  <defs
     id="defs4" />
  <metadata
     id="metadata7">
    <rdf:RDF>
      <cc:Work
         rdf:about="">
        <dc:format>image/svg+xml</dc:format>
        <dc:type
           rdf:resource="http://purl.org/dc/dcmitype/StillImage" />
      </cc:Work>
    </rdf:RDF>
  </metadata>
  <g
     id="layer1"
     transform="translate(-65.029643,-81.353632)">
    <g
       aria-label="Hasklug Nerd Font"
       id="text4136"
       style="font-size:27.5px;line-height:125%;font-family:'Hasklug Nerd Font';text-decoration:underline;text-decoration-line:underline;letter-spacing:0px;word-spacing:0px;fill:#ffffff;stroke-width:1px">
      <path
         d="M 65.029643,100.93363 H 67.339643 V 92.436132 H 74.874643 V 100.93363 H 77.184643 V 82.893632 H 74.874643 V 90.456132 H 67.339643 V 82.893632 H 65.029643 Z"
         id="path829" />
      <path
         d="M 86.122101,101.26363 C 88.019601,101.26363 89.917101,100.27363 91.402101,99.118632 H 91.484601 L 91.677101,100.93363 H 93.519601 V 92.738632 C 93.519601,89.411132 91.759601,87.238632 88.102101,87.238632 85.764601,87.238632 83.509601,88.283632 82.162101,89.163632 L 83.042101,90.703632 C 84.279601,89.933632 85.984601,89.108632 87.717101,89.108632 90.302101,89.108632 91.209601,90.648632 91.264601,92.463632 84.362101,93.013632 81.584601,94.471132 81.584601,97.468632 81.584601,99.861132 83.619601,101.26363 86.122101,101.26363 Z M 86.727101,99.448632 C 85.187101,99.448632 83.784601,98.816132 83.784601,97.303632 83.784601,95.543632 85.544601,94.416132 91.264601,93.948632 V 97.468632 C 89.752101,98.733632 88.239601,99.448632 86.727101,99.448632 Z"
         id="path831" />
      <path
         d="M 104.38206,101.26363 C 108.20456,101.26363 110.32206,99.448632 110.32206,97.276132 110.32206,95.241132 109.24956,94.113632 104.79456,93.151132 102.07206,92.573632 100.91706,92.078632 100.91706,90.923632 100.91706,89.906132 101.71456,88.998632 103.99706,88.998632 105.70206,88.998632 107.24206,89.548632 108.47956,90.401132 L 109.57956,88.943632 C 108.25956,88.036132 106.22456,87.238632 104.18956,87.238632 100.53206,87.238632 98.634559,88.888632 98.634559,91.033632 98.634559,93.041132 100.39456,94.223632 103.85956,94.938632 107.48956,95.681132 108.03956,96.396132 108.03956,97.413632 108.03956,98.541132 106.91206,99.503632 104.65706,99.503632 102.18206,99.503632 100.39456,98.788632 98.854559,97.688632 L 97.809559,99.173632 C 99.432059,100.30113 101.76956,101.26363 104.38206,101.26363 Z"
         id="path833" />
      <path
         d="M 115.27202,100.93363 H 117.52702 V 97.303632 L 120.68952,94.196132 125.61202,100.93363 H 128.14202 L 122.09202,92.821132 127.42702,87.568632 H 124.84202 L 117.63702,94.608632 H 117.52702 V 81.353632 H 115.27202 Z"
         id="path835" />
      <path
         d="M 140.04948,101.26363 C 141.50698,101.26363 142.38698,100.98863 143.62448,100.46613 L 143.04698,98.788632 C 142.13948,99.201132 141.31448,99.393632 140.54448,99.393632 138.94948,99.393632 137.90448,98.568632 137.90448,96.616132 V 81.353632 H 130.89198 V 83.196132 H 135.64948 V 96.451132 C 135.64948,99.613632 137.21698,101.26363 140.04948,101.26363 Z"
         id="path837" />
      <path
         d="M 152.12193,101.26363 C 154.18443,101.26363 155.75193,100.16363 157.09943,98.596132 H 157.20943 L 157.40193,100.93363 H 159.24443 V 87.568632 H 156.98943 V 96.836132 C 155.50443,98.568632 154.37693,99.311132 152.83693,99.311132 150.60943,99.311132 149.75693,98.101132 149.75693,95.571132 V 87.568632 H 147.47443 V 95.873632 C 147.47443,99.393632 148.93193,101.26363 152.12193,101.26363 Z"
         id="path839" />
      <path
         d="M 169.99689,107.09363 C 174.53439,107.09363 177.42189,104.92113 177.42189,102.41863 177.42189,100.16363 175.77189,99.283632 172.33439,99.283632 H 169.33689 C 167.57689,99.283632 166.55939,98.788632 166.55939,97.743632 166.55939,97.111132 166.94439,96.616132 167.60439,96.203632 168.34689,96.533632 169.17189,96.698632 169.85939,96.698632 172.74689,96.698632 175.02939,94.966132 175.02939,92.106132 175.02939,91.033632 174.50689,90.043632 173.90189,89.411132 H 177.36689 V 87.568632 H 171.83939 C 171.26189,87.348632 170.62939,87.238632 169.85939,87.238632 167.02689,87.238632 164.60689,89.108632 164.60689,92.023632 164.60689,93.618632 165.34939,94.801132 166.25689,95.488632 V 95.598632 C 165.23939,96.286132 164.66189,97.248632 164.66189,98.101132 164.66189,99.228632 165.32189,99.916132 166.03689,100.30113 V 100.41113 C 164.60689,101.23613 163.83689,102.30863 163.83689,103.38113 163.83689,105.74613 166.09189,107.09363 169.99689,107.09363 Z M 169.85939,95.186132 C 168.18189,95.186132 166.77939,93.948632 166.77939,92.023632 166.77939,90.153632 168.18189,88.888632 169.85939,88.888632 171.56439,88.888632 172.93939,90.153632 172.93939,92.023632 172.93939,93.948632 171.56439,95.186132 169.85939,95.186132 Z M 170.16189,105.44363 C 167.30189,105.44363 165.78939,104.56363 165.78939,103.16113 165.78939,102.39113 166.22939,101.62113 167.49439,100.93363 168.07189,101.09863 168.75939,101.15363 169.52939,101.15363 H 172.14189 C 174.17689,101.15363 175.19439,101.51113 175.19439,102.77613 175.19439,104.15113 173.26939,105.44363 170.16189,105.44363 Z"
         id="path841" />
      <path
         d="M 197.11181,100.93363 H 199.31181 V 91.501132 C 199.31181,89.631132 199.09181,87.706132 199.00931,85.863632 H 199.06431 L 200.79681,89.603632 206.57181,100.93363 H 209.10181 V 82.893632 H 206.90181 V 92.243632 C 206.90181,94.141132 207.12181,96.176132 207.20431,97.963632 H 207.14931 L 205.41681,94.223632 199.64181,82.893632 H 197.11181 Z"
         id="path843" />
      <path
         d="M 220.10176,89.026132 C 222.38426,89.026132 223.89676,90.373632 224.08926,93.123632 H 215.56426 C 215.97676,90.483632 217.90176,89.026132 220.10176,89.026132 Z M 220.43176,101.26363 C 222.57676,101.26363 224.28176,100.54863 225.60176,99.668632 L 224.77676,98.183632 C 223.56676,98.953632 222.30176,99.448632 220.70676,99.448632 217.92926,99.448632 215.78426,97.908632 215.50926,94.883632 H 226.04176 C 226.09676,94.526132 226.15176,94.031132 226.15176,93.508632 226.15176,89.741132 223.89676,87.238632 220.04676,87.238632 216.47176,87.238632 213.22676,89.878632 213.22676,94.223632 213.22676,98.678632 216.41676,101.26363 220.43176,101.26363 Z"
         id="path845" />
      <path
         d="M 231.87172,100.93363 H 234.12672 V 93.096132 C 235.72172,90.318632 237.61922,89.273632 239.62672,89.273632 240.67172,89.273632 241.16672,89.411132 242.10172,89.741132 L 242.62422,87.788632 C 241.79922,87.376132 240.97422,87.238632 239.98422,87.238632 237.50922,87.238632 235.41922,88.586132 234.01672,90.731132 H 233.93422 L 233.74172,87.568632 H 231.87172 Z"
         id="path847" />
      <path
         d="M 251.80919,101.26363 C 253.45919,101.26363 255.05419,100.30113 256.15419,99.173632 H 256.23669 L 256.42919,100.93363 H 258.29919 V 81.353632 H 256.04419 V 86.496132 L 256.15419,88.971132 H 256.07169 C 254.91669,87.871132 253.67919,87.238632 252.08419,87.238632 248.92169,87.238632 246.00669,89.933632 246.00669,94.278632 246.00669,98.733632 248.31669,101.26363 251.80919,101.26363 Z M 252.27669,99.366132 C 249.80169,99.366132 248.34419,97.441132 248.34419,94.251132 248.34419,91.198632 250.21419,89.136132 252.52419,89.136132 253.67919,89.136132 254.83419,89.576132 256.04419,90.703632 V 97.358632 C 254.86169,98.678632 253.59669,99.366132 252.27669,99.366132 Z"
         id="path849" />
      <path
         d="M 281.01409,100.93363 H 283.32409 V 92.848632 H 290.74909 V 90.923632 H 283.32409 V 84.818632 H 292.09659 V 82.893632 H 281.01409 Z"
         id="path851" />
      <path
         d="M 302.10656,101.26363 C 305.62656,101.26363 308.70656,98.706132 308.70656,94.278632 308.70656,89.796132 305.62656,87.238632 302.10656,87.238632 298.58656,87.238632 295.50656,89.796132 295.50656,94.278632 295.50656,98.706132 298.58656,101.26363 302.10656,101.26363 Z M 302.10656,99.393632 C 299.54906,99.393632 297.84406,97.331132 297.84406,94.278632 297.84406,91.198632 299.54906,89.108632 302.10656,89.108632 304.66406,89.108632 306.36906,91.198632 306.36906,94.278632 306.36906,97.331132 304.66406,99.393632 302.10656,99.393632 Z"
         id="path853" />
      <path
         d="M 312.91402,100.93363 H 315.16902 V 91.611132 C 316.73652,89.988632 317.80902,89.191132 319.40402,89.191132 321.60402,89.191132 322.48402,90.401132 322.48402,92.931132 V 100.93363 H 324.73902 V 92.628632 C 324.73902,89.108632 323.28152,87.238632 320.11902,87.238632 318.02902,87.238632 316.48902,88.366132 315.08652,89.851132 H 314.97652 L 314.78402,87.568632 H 312.91402 Z"
         id="path855" />
      <path
         d="M 337.69147,101.26363 C 339.36897,101.26363 340.66147,100.90613 341.87147,100.46613 L 341.37647,98.816132 C 340.41397,99.173632 339.42397,99.421132 338.15897,99.421132 335.57397,99.421132 334.77647,98.156132 334.77647,95.763632 V 89.411132 H 341.34897 V 87.568632 H 334.77647 V 83.278632 H 332.90647 L 332.60397,87.568632 328.75397,87.706132 V 89.411132 H 332.52147 V 95.736132 C 332.52147,99.036132 333.78647,101.26363 337.69147,101.26363 Z"
         id="path857" />
    </g>
    <g
       aria-label="abcdefghijklmnopqrstuvwxyzABCDEFGHIJKLMNOPQRSTUVWXYZ oO08 iIlL1 {} [] g9qCGQ ~-+=&gt;"
       id="text4140"
       style="font-size:27.5px;line-height:125%;font-family:'Hasklug Nerd Font';letter-spacing:0px;word-spacing:0px;fill:#ffffff;stroke-width:1px">
      <path
         d="M 69.724403,141.14362 C 70.931903,141.14362 72.139403,140.51362 73.084403,139.77862 H 73.136903 L 73.259403,140.93362 H 74.431903 V 135.71862 C 74.431903,133.60112 73.311903,132.21862 70.984403,132.21862 69.496903,132.21862 68.061903,132.88362 67.204403,133.44362 L 67.764403,134.42362 C 68.551903,133.93362 69.636903,133.40862 70.739403,133.40862 72.384403,133.40862 72.961903,134.38862 72.996903,135.54362 68.604403,135.89362 66.836903,136.82112 66.836903,138.72862 66.836903,140.25112 68.131903,141.14362 69.724403,141.14362 Z M 70.109403,139.98862 C 69.129403,139.98862 68.236903,139.58612 68.236903,138.62362 68.236903,137.50362 69.356903,136.78612 72.996903,136.48862 V 138.72862 C 72.034403,139.53362 71.071903,139.98862 70.109403,139.98862 Z"
         style="font-size:17.5px"
         id="path860" />
      <path
         d="M 81.519376,141.14362 C 83.549376,141.14362 85.369376,139.44612 85.369376,136.54112 85.369376,133.91612 84.126876,132.21862 81.834376,132.21862 80.836876,132.21862 79.751876,132.72612 78.981876,133.51362 H 78.929376 L 78.981876,131.86862 V 128.47362 H 77.546876 V 140.93362 H 78.701876 L 78.824376,139.98862 H 78.876876 C 79.681876,140.70612 80.696876,141.14362 81.519376,141.14362 Z M 81.291876,139.93612 C 80.679376,139.93612 79.786876,139.65612 78.981876,138.93862 V 134.70362 C 79.856876,133.82862 80.731876,133.42612 81.484376,133.42612 83.181876,133.42612 83.881876,134.68612 83.881876,136.55862 83.881876,138.65862 82.779376,139.93612 81.291876,139.93612 Z"
         style="font-size:17.5px"
         id="path862" />
      <path
         d="M 92.47435,141.14362 C 93.73435,141.14362 94.90685,140.65362 95.85185,139.81362 L 95.20435,138.88612 C 94.50435,139.48112 93.62935,139.95362 92.57935,139.95362 90.61935,139.95362 89.30685,138.64112 89.30685,136.69862 89.30685,134.73862 90.65435,133.40862 92.61435,133.40862 93.50685,133.40862 94.24185,133.77612 94.94185,134.38862 L 95.65935,133.46112 C 94.95935,132.77862 93.94435,132.21862 92.56185,132.21862 89.98935,132.21862 87.81935,133.84612 87.81935,136.69862 87.81935,139.51612 89.81435,141.14362 92.47435,141.14362 Z"
         style="font-size:17.5px"
         id="path864" />
      <path
         d="M 101.66182,141.14362 C 102.71182,141.14362 103.72682,140.53112 104.42682,139.81362 H 104.47932 L 104.60182,140.93362 H 105.79182 V 128.47362 H 104.35682 V 131.74612 L 104.42682,133.32112 H 104.37432 C 103.63932,132.62112 102.85182,132.21862 101.83682,132.21862 99.824323,132.21862 97.969323,133.93362 97.969323,136.69862 97.969323,139.53362 99.439323,141.14362 101.66182,141.14362 Z M 101.95932,139.93612 C 100.38432,139.93612 99.456823,138.71112 99.456823,136.68112 99.456823,134.73862 100.64682,133.42612 102.11682,133.42612 102.85182,133.42612 103.58682,133.70612 104.35682,134.42362 V 138.65862 C 103.60432,139.49862 102.79932,139.93612 101.95932,139.93612 Z"
         style="font-size:17.5px"
         id="path866" />
      <path
         d="M 112.9843,133.35612 C 114.4368,133.35612 115.3993,134.21362 115.5218,135.96362 H 110.0968 C 110.3593,134.28362 111.5843,133.35612 112.9843,133.35612 Z M 113.1943,141.14362 C 114.5593,141.14362 115.6443,140.68862 116.4843,140.12862 L 115.9593,139.18362 C 115.1893,139.67362 114.3843,139.98862 113.3693,139.98862 111.6018,139.98862 110.2368,139.00862 110.0618,137.08362 H 116.7643 C 116.7993,136.85612 116.8343,136.54112 116.8343,136.20862 116.8343,133.81112 115.3993,132.21862 112.9493,132.21862 110.6743,132.21862 108.6093,133.89862 108.6093,136.66362 108.6093,139.49862 110.6393,141.14362 113.1943,141.14362 Z"
         style="font-size:17.5px"
         id="path868" />
      <path
         d="M 122.15427,140.93362 H 123.57177 V 133.60112 H 127.14177 V 132.42862 H 123.57177 V 131.65862 C 123.57177,130.27612 124.20177,129.43612 125.72427,129.43612 126.45927,129.43612 127.00177,129.52362 127.70177,129.83862 L 128.03427,128.75362 C 127.22927,128.42112 126.42427,128.26362 125.58427,128.26362 123.23927,128.26362 122.15427,129.62862 122.15427,131.71112 V 132.42862 L 119.72177,132.51612 V 133.60112 H 122.15427 Z"
         style="font-size:17.5px"
         id="path870" />
      <path
         d="M 133.59924,144.85362 C 136.48674,144.85362 138.32424,143.47112 138.32424,141.87862 138.32424,140.44362 137.27424,139.88362 135.08674,139.88362 H 133.17924 C 132.05924,139.88362 131.41174,139.56862 131.41174,138.90362 131.41174,138.50112 131.65674,138.18612 132.07674,137.92362 132.54924,138.13362 133.07424,138.23862 133.51174,138.23862 135.34924,138.23862 136.80174,137.13612 136.80174,135.31612 136.80174,134.63362 136.46924,134.00362 136.08424,133.60112 H 138.28924 V 132.42862 H 134.77174 C 134.40424,132.28862 134.00174,132.21862 133.51174,132.21862 131.70924,132.21862 130.16924,133.40862 130.16924,135.26362 130.16924,136.27862 130.64174,137.03112 131.21924,137.46862 V 137.53862 C 130.57174,137.97612 130.20424,138.58862 130.20424,139.13112 130.20424,139.84862 130.62424,140.28612 131.07924,140.53112 V 140.60112 C 130.16924,141.12612 129.67924,141.80862 129.67924,142.49112 129.67924,143.99612 131.11424,144.85362 133.59924,144.85362 Z M 133.51174,137.27612 C 132.44424,137.27612 131.55174,136.48862 131.55174,135.26362 131.55174,134.07362 132.44424,133.26862 133.51174,133.26862 134.59674,133.26862 135.47174,134.07362 135.47174,135.26362 135.47174,136.48862 134.59674,137.27612 133.51174,137.27612 Z M 133.70424,143.80362 C 131.88424,143.80362 130.92174,143.24362 130.92174,142.35112 130.92174,141.86112 131.20174,141.37112 132.00674,140.93362 132.37424,141.03862 132.81174,141.07362 133.30174,141.07362 H 134.96424 C 136.25924,141.07362 136.90674,141.30112 136.90674,142.10612 136.90674,142.98112 135.68174,143.80362 133.70424,143.80362 Z"
         style="font-size:17.5px"
         id="path872" />
      <path
         d="M 140.54672,140.93362 H 141.98172 V 135.00112 C 142.97922,133.96862 143.66172,133.46112 144.67672,133.46112 146.07672,133.46112 146.63672,134.23112 146.63672,135.84112 V 140.93362 H 148.07172 V 135.64862 C 148.07172,133.40862 147.14422,132.21862 145.13172,132.21862 143.80172,132.21862 142.82172,132.93612 141.94672,133.88112 H 141.89422 L 141.98172,131.86862 V 128.47362 H 140.54672 Z"
         style="font-size:17.5px"
         id="path874" />
      <path
         d="M 154.94919,140.93362 H 156.38419 V 132.42862 H 150.99419 V 133.60112 H 154.94919 Z M 155.50919,130.64362 C 156.15669,130.64362 156.66419,130.20612 156.66419,129.52362 156.66419,128.85862 156.15669,128.40362 155.50919,128.40362 154.86169,128.40362 154.35419,128.85862 154.35419,129.52362 154.35419,130.20612 154.86169,130.64362 155.50919,130.64362 Z"
         style="font-size:17.5px"
         id="path876" />
      <path
         d="M 163.31416,144.73112 C 166.06166,144.73112 166.88416,143.24362 166.88416,141.14362 V 132.42862 H 161.49416 V 133.60112 H 165.44916 V 141.24862 C 165.44916,142.70112 164.99416,143.55862 163.29666,143.55862 162.64916,143.55862 161.96666,143.38362 161.35416,143.08612 L 160.88166,144.15362 C 161.56416,144.48612 162.42166,144.73112 163.31416,144.73112 Z M 166.00916,130.64362 C 166.65666,130.64362 167.16416,130.20612 167.16416,129.52362 167.16416,128.85862 166.65666,128.40362 166.00916,128.40362 165.36166,128.40362 164.85416,128.85862 164.85416,129.52362 164.85416,130.20612 165.36166,130.64362 166.00916,130.64362 Z"
         style="font-size:17.5px"
         id="path878" />
      <path
         d="M 172.27414,140.93362 H 173.70914 V 138.62362 L 175.72164,136.64612 178.85414,140.93362 H 180.46414 L 176.61414,135.77112 180.00914,132.42862 H 178.36414 L 173.77914,136.90862 H 173.70914 V 128.47362 H 172.27414 Z"
         style="font-size:17.5px"
         id="path880" />
      <path
         d="M 188.04161,141.14362 C 188.96911,141.14362 189.52911,140.96862 190.31661,140.63612 L 189.94911,139.56862 C 189.37161,139.83112 188.84661,139.95362 188.35661,139.95362 187.34161,139.95362 186.67661,139.42862 186.67661,138.18612 V 128.47362 H 182.21411 V 129.64612 H 185.24161 V 138.08112 C 185.24161,140.09362 186.23911,141.14362 188.04161,141.14362 Z"
         style="font-size:17.5px"
         id="path882" />
      <path
         d="M 192.43408,140.93362 H 193.86908 V 134.77362 C 194.28908,133.89862 194.67408,133.46112 195.26908,133.46112 195.89908,133.46112 196.14408,133.96862 196.14408,134.94862 V 140.93362 H 197.47408 V 134.77362 C 197.92908,133.89862 198.24408,133.46112 198.83908,133.46112 199.46908,133.46112 199.74908,133.96862 199.74908,134.94862 V 140.93362 H 201.18408 V 134.84362 C 201.18408,133.14612 200.48408,132.21862 199.29408,132.21862 198.31408,132.21862 197.78908,132.77862 197.29908,133.68862 197.05408,132.70862 196.52908,132.21862 195.68908,132.21862 194.70908,132.21862 194.18408,132.76112 193.74658,133.54862 H 193.71158 L 193.58908,132.42862 H 192.43408 Z"
         style="font-size:17.5px"
         id="path884" />
      <path
         d="M 203.54655,140.93362 H 204.98155 V 135.00112 C 205.97905,133.96862 206.66155,133.46112 207.67655,133.46112 209.07655,133.46112 209.63655,134.23112 209.63655,135.84112 V 140.93362 H 211.07155 V 135.64862 C 211.07155,133.40862 210.14405,132.21862 208.13155,132.21862 206.80155,132.21862 205.82155,132.93612 204.92905,133.88112 H 204.85905 L 204.73655,132.42862 H 203.54655 Z"
         style="font-size:17.5px"
         id="path886" />
      <path
         d="M 217.66904,141.14362 C 219.90904,141.14362 221.86904,139.51612 221.86904,136.69862 221.86904,133.84612 219.90904,132.21862 217.66904,132.21862 215.42904,132.21862 213.46904,133.84612 213.46904,136.69862 213.46904,139.51612 215.42904,141.14362 217.66904,141.14362 Z M 217.66904,139.95362 C 216.04154,139.95362 214.95654,138.64112 214.95654,136.69862 214.95654,134.73862 216.04154,133.40862 217.66904,133.40862 219.29654,133.40862 220.38154,134.73862 220.38154,136.69862 220.38154,138.64112 219.29654,139.95362 217.66904,139.95362 Z"
         style="font-size:17.5px"
         id="path888" />
      <path
         d="M 224.54651,144.52112 H 225.98151 V 141.65112 L 225.91151,140.04112 H 225.96401 C 226.71651,140.74112 227.71401,141.14362 228.50151,141.14362 230.54901,141.14362 232.36901,139.44612 232.36901,136.55862 232.36901,133.91612 231.14401,132.21862 228.85151,132.21862 227.80151,132.21862 226.69901,132.76112 225.91151,133.51362 H 225.85901 L 225.73651,132.42862 H 224.54651 Z M 228.25651,139.93612 C 227.67901,139.93612 226.78651,139.65612 225.98151,138.93862 V 134.70362 C 226.85651,133.82862 227.73151,133.42612 228.48401,133.42612 230.18151,133.42612 230.88151,134.68612 230.88151,136.55862 230.88151,138.65862 229.77901,139.93612 228.25651,139.93612 Z"
         style="font-size:17.5px"
         id="path890" />
      <path
         d="M 240.85648,144.52112 H 242.29148 V 132.42862 H 241.13648 L 241.01398,133.37362 H 240.96148 C 240.15648,132.62112 239.36898,132.21862 238.33648,132.21862 236.32398,132.21862 234.46898,133.93362 234.46898,136.69862 234.46898,139.53362 235.93898,141.14362 238.14398,141.14362 239.19398,141.14362 240.17398,140.56612 240.87398,139.84862 H 240.92648 L 240.85648,141.42362 Z M 238.45898,139.93612 C 236.88398,139.93612 235.95648,138.71112 235.95648,136.68112 235.95648,134.73862 237.14648,133.42612 238.61648,133.42612 239.35148,133.42612 240.08648,133.70612 240.85648,134.42362 V 138.65862 C 240.10398,139.49862 239.29898,139.93612 238.45898,139.93612 Z"
         style="font-size:17.5px"
         id="path892" />
      <path
         d="M 246.47395,140.93362 H 247.90895 V 135.94612 C 248.92395,134.17862 250.13145,133.51362 251.40895,133.51362 252.07395,133.51362 252.38895,133.60112 252.98395,133.81112 L 253.31645,132.56862 C 252.79145,132.30612 252.26645,132.21862 251.63645,132.21862 250.06145,132.21862 248.73145,133.07612 247.83895,134.44112 H 247.78645 L 247.66395,132.42862 H 246.47395 Z"
         style="font-size:17.5px"
         id="path894" />
      <path
         d="M 259.84391,141.14362 C 262.27641,141.14362 263.62391,139.98862 263.62391,138.60612 263.62391,137.31112 262.94141,136.59362 260.10641,135.98112 258.37391,135.61362 257.63891,135.29862 257.63891,134.56362 257.63891,133.91612 258.14641,133.33862 259.59891,133.33862 260.68391,133.33862 261.66391,133.68862 262.45141,134.23112 L 263.15141,133.30362 C 262.31141,132.72612 261.01641,132.21862 259.72141,132.21862 257.39391,132.21862 256.18641,133.26862 256.18641,134.63362 256.18641,135.91112 257.30641,136.66362 259.51141,137.11862 261.82141,137.59112 262.17141,138.04612 262.17141,138.69362 262.17141,139.41112 261.45391,140.02362 260.01891,140.02362 258.44391,140.02362 257.30641,139.56862 256.32641,138.86862 L 255.66141,139.81362 C 256.69391,140.53112 258.18141,141.14362 259.84391,141.14362 Z"
         style="font-size:17.5px"
         id="path896" />
      <path
         d="M 271.8139,141.14362 C 272.8814,141.14362 273.7039,140.91612 274.4739,140.63612 L 274.1589,139.58612 C 273.5464,139.81362 272.9164,139.97112 272.1114,139.97112 270.4664,139.97112 269.9589,139.16612 269.9589,137.64362 V 133.60112 H 274.1414 V 132.42862 H 269.9589 V 129.69862 H 268.7689 L 268.5764,132.42862 266.1264,132.51612 V 133.60112 H 268.5239 V 137.62612 C 268.5239,139.72612 269.3289,141.14362 271.8139,141.14362 Z"
         style="font-size:17.5px"
         id="path898" />
      <path
         d="M 279.72387,141.14362 C 281.03637,141.14362 282.03387,140.44362 282.89137,139.44612 H 282.96137 L 283.08387,140.93362 H 284.25637 V 132.42862 H 282.82137 V 138.32612 C 281.87637,139.42862 281.15887,139.90112 280.17887,139.90112 278.76137,139.90112 278.21887,139.13112 278.21887,137.52112 V 132.42862 H 276.76637 V 137.71362 C 276.76637,139.95362 277.69387,141.14362 279.72387,141.14362 Z"
         style="font-size:17.5px"
         id="path900" />
      <path
         d="M 290.39884,140.93362 H 292.00884 L 295.52634,132.42862 H 294.14384 L 292.18384,137.25862 C 291.83384,138.11612 291.55384,138.95612 291.25634,139.76112 H 291.18634 C 290.88884,138.95612 290.57384,138.11612 290.22384,137.25862 L 288.26384,132.42862 H 286.81134 Z"
         style="font-size:17.5px"
         id="path902" />
      <path
         d="M 298.41382,140.93362 H 300.26882 L 301.21382,136.87362 C 301.35382,136.27862 301.49382,135.43862 301.63382,134.35362 H 301.70382 C 301.84382,135.43862 301.98382,136.27862 302.12382,136.87362 L 303.10382,140.93362 H 304.95882 L 306.77882,132.42862 H 305.44882 L 304.43382,137.36362 C 304.27632,138.16862 304.18882,138.90362 304.04882,139.70862 H 303.97882 C 303.87382,138.90362 303.64632,138.16862 303.45382,137.36362 L 302.43882,132.95362 H 301.00382 L 299.95382,137.36362 C 299.76132,138.15112 299.56882,138.90362 299.46382,139.70862 H 299.39382 C 299.28882,138.90362 299.16632,138.16862 299.00882,137.36362 L 297.99382,132.42862 H 296.55882 Z"
         style="font-size:17.5px"
         id="path904" />
      <path
         d="M 308.03879,140.93362 H 309.57879 L 310.97879,138.97362 C 311.32879,138.43112 311.67879,137.94112 312.02879,137.43362 H 312.09879 C 312.46629,137.92362 312.86879,138.48362 313.21879,138.97362 L 314.70629,140.93362 H 316.28129 L 313.02629,136.64612 316.05379,132.42862 H 314.53129 L 313.25379,134.26612 C 312.95629,134.73862 312.60629,135.26362 312.29129,135.73612 H 312.22129 C 311.87129,135.26362 311.52129,134.75612 311.22379,134.30112 L 309.87629,132.42862 H 308.28379 L 311.27629,136.52362 Z"
         style="font-size:17.5px"
         id="path906" />
      <path
         d="M 319.71126,144.59112 C 321.63626,144.59112 322.68626,143.31362 323.31626,141.63362 L 327.06126,132.42862 H 325.69626 L 323.84126,137.13612 C 323.56126,137.90612 323.22876,138.79862 322.93126,139.60362 H 322.86126 C 322.51126,138.78112 322.14376,137.88862 321.81126,137.13612 L 319.72876,132.42862 H 318.27626 L 322.24876,140.95112 321.98626,141.58112 C 321.56626,142.63112 320.84876,143.40112 319.65876,143.40112 319.39626,143.40112 319.11626,143.34862 318.88876,143.27862 L 318.59126,144.41612 C 318.88876,144.52112 319.30876,144.59112 319.71126,144.59112 Z"
         style="font-size:17.5px"
         id="path908" />
      <path
         d="M 329.16123,140.93362 H 337.21123 V 139.76112 H 331.20873 L 337.05373,133.19862 V 132.42862 H 329.80873 V 133.60112 H 334.98873 L 329.16123,140.16362 Z"
         style="font-size:17.5px"
         id="path910" />
      <path
         d="M 69.479403,156.38612 C 69.881903,155.10862 70.249403,153.84862 70.616903,152.51862 H 70.686903 C 71.036903,153.84862 71.421903,155.10862 71.824403,156.38612 L 72.366903,158.13612 H 68.936903 Z M 65.979403,162.80862 H 67.466903 L 68.569403,159.30862 H 72.734403 L 73.819403,162.80862 H 75.359403 L 71.491903,151.32862 H 69.846903 Z"
         style="font-size:17.5px"
         id="path912" />
      <path
         d="M 77.651876,162.80862 H 81.169376 C 83.741876,162.80862 85.491876,161.70612 85.491876,159.44862 85.491876,157.87362 84.511876,156.96362 82.831876,156.70112 V 156.63112 C 84.196876,156.28112 84.844376,155.26612 84.844376,154.12862 84.844376,152.11612 83.251876,151.32862 80.906876,151.32862 H 77.651876 Z M 79.104376,156.15862 V 152.55362 H 80.731876 C 82.499376,152.55362 83.409376,153.00862 83.409376,154.25112 83.409376,155.52862 82.621876,156.15862 80.661876,156.15862 Z M 79.104376,161.58362 V 157.38362 H 80.959376 C 82.971876,157.38362 84.056876,157.96112 84.056876,159.37862 84.056876,160.93612 82.919376,161.58362 80.959376,161.58362 Z"
         style="font-size:17.5px"
         id="path914" />
      <path
         d="M 92.56185,163.01862 C 94.08435,163.01862 95.20435,162.40612 96.11435,161.35612 L 95.29185,160.46362 C 94.55685,161.28612 93.75185,161.74112 92.70185,161.74112 90.49685,161.74112 89.06185,159.92112 89.06185,157.03362 89.06185,154.18112 90.49685,152.39612 92.70185,152.39612 93.66435,152.39612 94.41685,152.81612 95.01185,153.44612 L 95.83435,152.51862 C 95.16935,151.78362 94.06685,151.11862 92.70185,151.11862 89.70935,151.11862 87.55685,153.37612 87.55685,157.06862 87.55685,160.81362 89.72685,163.01862 92.56185,163.01862 Z"
         style="font-size:17.5px"
         id="path916" />
      <path
         d="M 98.441823,162.80862 H 101.34682 C 104.72432,162.80862 106.59682,160.67362 106.59682,157.01612 106.59682,153.37612 104.72432,151.32862 101.27682,151.32862 H 98.441823 Z M 99.894323,161.61862 V 152.51862 H 101.17182 C 103.79682,152.51862 105.09182,154.12862 105.09182,157.01612 105.09182,159.92112 103.79682,161.61862 101.17182,161.61862 Z"
         style="font-size:17.5px"
         id="path918" />
      <path
         d="M 109.4143,162.80862 H 116.6943 V 161.56612 H 110.8843 V 157.40112 H 115.6443 V 156.15862 H 110.8843 V 152.55362 H 116.5193 V 151.32862 H 109.4143 Z"
         style="font-size:17.5px"
         id="path920" />
      <path
         d="M 120.24677,162.80862 H 121.71677 V 157.66362 H 126.44177 V 156.43862 H 121.71677 V 152.55362 H 127.29927 V 151.32862 H 120.24677 Z"
         style="font-size:17.5px"
         id="path922" />
      <path
         d="M 134.31674,163.01862 C 135.80424,163.01862 137.02924,162.42362 137.74674,161.68862 V 156.85862 H 134.10674 V 158.06612 H 136.39924 V 161.05862 C 135.96174,161.47862 135.20924,161.74112 134.40424,161.74112 132.14674,161.74112 130.86924,159.92112 130.86924,157.03362 130.86924,154.18112 132.28674,152.39612 134.43924,152.39612 135.54174,152.39612 136.22424,152.85112 136.78424,153.44612 L 137.60674,152.51862 C 136.95924,151.83612 135.96174,151.11862 134.43924,151.11862 131.46424,151.11862 129.34674,153.35862 129.34674,157.06862 129.34674,160.81362 131.42924,163.01862 134.31674,163.01862 Z"
         style="font-size:17.5px"
         id="path924" />
      <path
         d="M 140.30172,162.80862 H 141.77172 V 157.40112 H 146.56672 V 162.80862 H 148.03672 V 151.32862 H 146.56672 V 156.14112 H 141.77172 V 151.32862 H 140.30172 Z"
         style="font-size:17.5px"
         id="path926" />
      <path
         d="M 151.08169,162.80862 H 158.25669 V 161.56612 H 155.40419 V 152.55362 H 158.25669 V 151.32862 H 151.08169 V 152.55362 H 153.93419 V 161.56612 H 151.08169 Z"
         style="font-size:17.5px"
         id="path928" />
      <path
         d="M 164.74916,163.01862 C 167.60166,163.01862 168.54666,161.26862 168.54666,159.13362 V 151.31112 H 162.28166 V 152.53612 H 167.09416 V 159.01112 C 167.09416,160.90112 166.35916,161.74112 164.71416,161.74112 163.82166,161.74112 162.89416,161.25112 162.24666,160.21862 L 161.33666,161.11112 C 162.12416,162.42362 163.47166,163.01862 164.74916,163.01862 Z"
         style="font-size:17.5px"
         id="path930" />
      <path
         d="M 172.13414,162.80862 H 173.60414 V 159.15112 L 175.58164,156.78862 178.92414,162.80862 H 180.56914 L 176.50914,155.68612 180.14914,151.32862 H 178.48664 L 173.65664,157.08612 H 173.60414 V 151.32862 H 172.13414 Z"
         style="font-size:17.5px"
         id="path932" />
      <path
         d="M 183.26411,162.80862 H 190.38661 V 161.56612 H 184.69911 V 151.32862 H 183.26411 Z"
         style="font-size:17.5px"
         id="path934" />
      <path
         d="M 192.67908,162.80862 H 194.04408 V 157.06862 C 194.04408,155.94862 193.90408,153.98862 193.79908,153.00862 H 193.83408 L 194.49908,155.24862 196.10908,159.76362 H 197.15908 L 198.80408,155.24862 199.45158,153.00862 H 199.50408 C 199.43408,153.98862 199.25908,155.94862 199.25908,157.06862 V 162.80862 H 200.65908 V 151.32862 H 198.87408 L 197.24658,156.22862 196.70408,158.08362 H 196.63408 L 196.07408,156.22862 194.46408,151.32862 H 192.67908 Z"
         style="font-size:17.5px"
         id="path936" />
      <path
         d="M 203.35405,162.80862 H 204.75405 V 156.80612 C 204.75405,155.61612 204.61405,154.39112 204.56155,153.21862 H 204.59655 L 205.69905,155.59862 209.37405,162.80862 H 210.98405 V 151.32862 H 209.58405 V 157.27862 C 209.58405,158.48612 209.72405,159.78112 209.77655,160.91862 H 209.74155 L 208.63905,158.53862 204.96405,151.32862 H 203.35405 Z"
         style="font-size:17.5px"
         id="path938" />
      <path
         d="M 217.66904,163.01862 C 220.25904,163.01862 222.07904,160.77862 222.07904,157.01612 222.07904,153.30612 220.25904,151.11862 217.66904,151.11862 215.07904,151.11862 213.25904,153.30612 213.25904,157.01612 213.25904,160.77862 215.07904,163.01862 217.66904,163.01862 Z M 217.66904,161.74112 C 215.91904,161.74112 214.76404,159.95612 214.76404,157.01612 214.76404,154.12862 215.91904,152.39612 217.66904,152.39612 219.41904,152.39612 220.57404,154.12862 220.57404,157.01612 220.57404,159.95612 219.41904,161.74112 217.66904,161.74112 Z"
         style="font-size:17.5px"
         id="path940" />
      <path
         d="M 224.70401,162.80862 H 226.15651 V 158.25862 H 228.16901 C 230.68901,158.25862 232.42151,157.12112 232.42151,154.70612 232.42151,152.18612 230.70651,151.32862 228.16901,151.32862 H 224.70401 Z M 226.15651,157.06862 V 152.50112 H 227.99401 C 229.97151,152.50112 230.95151,153.04362 230.95151,154.70612 230.95151,156.33362 230.00651,157.06862 227.99401,157.06862 Z"
         style="font-size:17.5px"
         id="path942" />
      <path
         d="M 238.66898,161.81112 C 236.91898,161.81112 235.76398,160.06112 235.76398,157.01612 235.76398,154.12862 236.91898,152.39612 238.66898,152.39612 240.41898,152.39612 241.57398,154.12862 241.57398,157.01612 241.57398,160.06112 240.41898,161.81112 238.66898,161.81112 Z M 241.83648,165.66112 C 242.32648,165.66112 242.74648,165.55612 243.13148,165.41612 L 242.85148,164.24362 C 242.64148,164.33112 242.34398,164.41862 241.99398,164.41862 240.80398,164.41862 239.91148,163.92862 239.50898,162.93112 241.64398,162.49362 243.07898,160.35862 243.07898,157.01612 243.07898,153.30612 241.25898,151.11862 238.66898,151.11862 236.07898,151.11862 234.25898,153.30612 234.25898,157.01612 234.25898,160.42862 235.74648,162.58112 237.96898,162.96612 238.52898,164.50612 239.80648,165.66112 241.83648,165.66112 Z"
         style="font-size:17.5px"
         id="path944" />
      <path
         d="M 245.66895,162.80862 H 247.12145 V 157.96112 H 249.16895 L 251.93395,162.80862 H 253.59645 L 250.67395,157.80362 C 252.23145,157.40112 253.24645,156.33362 253.24645,154.54862 253.24645,152.16862 251.56645,151.32862 249.23895,151.32862 H 245.66895 Z M 247.12145,156.77112 V 152.50112 H 249.02895 C 250.81395,152.50112 251.79395,153.04362 251.79395,154.54862 251.79395,156.03612 250.81395,156.77112 249.02895,156.77112 Z"
         style="font-size:17.5px"
         id="path946" />
      <path
         d="M 259.75641,163.01862 C 262.27641,163.01862 263.81641,161.56612 263.81641,159.74612 263.81641,158.04862 262.69641,157.26112 261.27891,156.68362 L 259.66891,155.98362 C 258.68891,155.58112 257.62141,155.17862 257.62141,154.07612 257.62141,153.04362 258.51391,152.39612 259.84391,152.39612 261.03391,152.39612 261.90891,152.81612 262.66141,153.48112 L 263.43141,152.53612 C 262.59141,151.69612 261.33141,151.11862 259.89641,151.11862 257.70891,151.11862 256.13391,152.41362 256.13391,154.16362 256.13391,155.84362 257.46391,156.66612 258.61891,157.12112 L 260.26391,157.83862 C 261.43641,158.34612 262.32891,158.69612 262.32891,159.92112 262.32891,160.98862 261.40141,161.74112 259.82641,161.74112 258.51391,161.74112 257.32391,161.16362 256.46641,160.30612 L 255.59141,161.32112 C 256.62391,162.35362 258.07641,163.01862 259.75641,163.01862 Z"
         style="font-size:17.5px"
         id="path948" />
      <path
         d="M 269.4339,162.80862 H 270.9039 V 152.55362 H 274.6839 V 151.32862 H 265.6539 V 152.55362 H 269.4339 Z"
         style="font-size:17.5px"
         id="path950" />
      <path
         d="M 280.68637,163.01862 C 282.92637,163.01862 284.53637,161.75862 284.53637,158.46862 V 151.32862 H 283.11887 V 158.50362 C 283.11887,160.88362 282.06887,161.74112 280.68637,161.74112 279.30387,161.74112 278.27137,160.88362 278.27137,158.50362 V 151.32862 H 276.80137 V 158.46862 C 276.80137,161.75862 278.42887,163.01862 280.68637,163.01862 Z"
         style="font-size:17.5px"
         id="path952" />
      <path
         d="M 290.32884,162.80862 H 292.02634 L 295.66634,151.32862 H 294.17884 L 292.34134,157.52362 C 291.95634,158.88862 291.65884,159.97362 291.23884,161.32112 H 291.16884 C 290.74884,159.97362 290.46884,158.88862 290.06634,157.52362 L 288.21134,151.32862 H 286.67134 Z"
         style="font-size:17.5px"
         id="path954" />
      <path
         d="M 298.34382,162.80862 H 300.12882 L 301.24882,158.18862 C 301.42382,157.48862 301.52882,156.82362 301.65132,156.12362 H 301.70382 C 301.80882,156.82362 301.94882,157.48862 302.12382,158.18862 L 303.24382,162.80862 H 305.06382 L 306.74382,151.31112 H 305.16882 L 304.36382,158.53862 C 304.25882,159.48362 304.22382,160.04362 304.15382,161.18112 H 304.08382 C 303.87382,160.04362 303.76882,159.48362 303.52382,158.53862 L 302.43882,154.26862 H 301.03882 L 299.91882,158.53862 C 299.69132,159.48362 299.56882,160.04362 299.35882,161.18112 H 299.30632 C 299.25382,160.04362 299.18382,159.48362 299.07882,158.52112 L 298.23882,151.31112 H 296.59382 Z"
         style="font-size:17.5px"
         id="path956" />
      <path
         d="M 307.86379,162.80862 H 309.40379 L 311.11879,159.71112 C 311.41629,159.15112 311.71379,158.57362 312.04629,157.87362 H 312.11629 C 312.50129,158.57362 312.81629,159.15112 313.13129,159.71112 L 314.86379,162.80862 H 316.47379 L 313.04379,156.94612 316.24629,151.32862 H 314.70629 L 313.13129,154.26862 C 312.85129,154.79362 312.62379,155.26612 312.30879,155.93112 H 312.23879 C 311.87129,155.26612 311.60879,154.79362 311.31129,154.26862 L 309.70129,151.32862 H 308.09129 L 311.29379,156.87612 Z"
         style="font-size:17.5px"
         id="path958" />
      <path
         d="M 321.93376,162.80862 H 323.40376 V 158.71362 L 327.25376,151.32862 H 325.74876 L 324.08626,154.72362 C 323.64876,155.61612 323.19376,156.49112 322.73876,157.41862 H 322.66876 C 322.19626,156.49112 321.79376,155.61612 321.35626,154.74112 L 319.62376,151.32862 H 318.08376 L 321.93376,158.71362 Z"
         style="font-size:17.5px"
         id="path960" />
      <path
         d="M 329.05623,162.80862 H 337.35123 V 161.56612 H 330.84123 L 337.26373,152.18612 V 151.31112 H 329.61623 V 152.53612 H 335.46123 L 329.05623,161.93362 Z"
         style="font-size:17.5px"
         id="path962" />
      <path
         d="M 70.669403,184.89362 C 72.909403,184.89362 74.869403,183.26612 74.869403,180.44862 74.869403,177.59612 72.909403,175.96862 70.669403,175.96862 68.429403,175.96862 66.469403,177.59612 66.469403,180.44862 66.469403,183.26612 68.429403,184.89362 70.669403,184.89362 Z M 70.669403,183.70362 C 69.041903,183.70362 67.956903,182.39112 67.956903,180.44862 67.956903,178.48862 69.041903,177.15862 70.669403,177.15862 72.296903,177.15862 73.381903,178.48862 73.381903,180.44862 73.381903,182.39112 72.296903,183.70362 70.669403,183.70362 Z"
         style="font-size:17.5px"
         id="path964" />
      <path
         d="M 81.169376,184.89362 C 83.759376,184.89362 85.579376,182.65362 85.579376,178.89112 85.579376,175.18112 83.759376,172.99362 81.169376,172.99362 78.579376,172.99362 76.759376,175.18112 76.759376,178.89112 76.759376,182.65362 78.579376,184.89362 81.169376,184.89362 Z M 81.169376,183.61612 C 79.419376,183.61612 78.264376,181.83112 78.264376,178.89112 78.264376,176.00362 79.419376,174.27112 81.169376,174.27112 82.919376,174.27112 84.074376,176.00362 84.074376,178.89112 84.074376,181.83112 82.919376,183.61612 81.169376,183.61612 Z"
         style="font-size:17.5px"
         id="path966" />
      <path
         d="M 91.66935,184.89362 C 94.15435,184.89362 95.67685,182.77612 95.67685,179.06612 95.67685,175.32112 94.15435,173.30862 91.66935,173.30862 89.18435,173.30862 87.66185,175.32112 87.66185,179.06612 87.66185,182.77612 89.18435,184.89362 91.66935,184.89362 Z M 91.66935,183.73862 C 90.11185,183.73862 89.00935,182.26862 89.00935,179.06612 89.00935,175.84612 90.11185,174.46362 91.66935,174.46362 93.22685,174.46362 94.32935,175.84612 94.32935,179.06612 94.32935,182.26862 93.22685,183.73862 91.66935,183.73862 Z M 91.66935,180.11612 C 92.24685,180.11612 92.75435,179.67862 92.75435,178.94362 92.75435,178.22612 92.24685,177.78862 91.66935,177.78862 91.09185,177.78862 90.58435,178.22612 90.58435,178.94362 90.58435,179.67862 91.09185,180.11612 91.66935,180.11612 Z"
         style="font-size:17.5px"
         id="path968" />
      <path
         d="M 102.20432,184.89362 C 104.75932,184.89362 106.21182,183.58112 106.21182,181.91862 106.21182,180.32612 105.24932,179.62612 104.02432,179.01362 V 178.94362 C 104.95182,178.29612 105.72182,177.33362 105.72182,176.28362 105.72182,174.55112 104.44432,173.30862 102.25682,173.30862 100.26182,173.30862 98.809323,174.46362 98.809323,176.17862 98.809323,177.35112 99.579323,178.20862 100.50682,178.78612 V 178.85612 C 99.316823,179.41612 98.109323,180.29112 98.109323,181.83112 98.109323,183.59862 99.684323,184.89362 102.20432,184.89362 Z M 103.07932,178.59362 C 101.41682,178.06862 100.12182,177.50862 100.12182,176.17862 100.12182,175.09362 100.97932,174.37612 102.22182,174.37612 103.69182,174.37612 104.47932,175.25112 104.47932,176.35362 104.47932,177.17612 103.98932,177.92862 103.07932,178.59362 Z M 102.23932,183.82612 C 100.52432,183.82612 99.421823,182.93362 99.421823,181.69112 99.421823,180.57112 100.24432,179.85362 101.32932,179.25862 103.28932,179.92362 104.82932,180.30862 104.82932,181.86612 104.82932,183.02112 103.90182,183.82612 102.23932,183.82612 Z"
         style="font-size:17.5px"
         id="path970" />
      <path
         d="M 123.44927,184.68362 H 124.88427 V 176.17862 H 119.49427 V 177.35112 H 123.44927 Z M 124.00927,174.39362 C 124.65677,174.39362 125.16427,173.95612 125.16427,173.27362 125.16427,172.60862 124.65677,172.15362 124.00927,172.15362 123.36177,172.15362 122.85427,172.60862 122.85427,173.27362 122.85427,173.95612 123.36177,174.39362 124.00927,174.39362 Z"
         style="font-size:17.5px"
         id="path972" />
      <path
         d="M 130.08174,184.68362 H 137.25674 V 183.44112 H 134.40424 V 174.42862 H 137.25674 V 173.20362 H 130.08174 V 174.42862 H 132.93424 V 183.44112 H 130.08174 Z"
         style="font-size:17.5px"
         id="path974" />
      <path
         d="M 146.04172,184.89362 C 146.96922,184.89362 147.52922,184.71862 148.31672,184.38612 L 147.94922,183.31862 C 147.37172,183.58112 146.84672,183.70362 146.35672,183.70362 145.34172,183.70362 144.67672,183.17862 144.67672,181.93612 V 172.22362 H 140.21422 V 173.39612 H 143.24172 V 181.83112 C 143.24172,183.84362 144.23922,184.89362 146.04172,184.89362 Z"
         style="font-size:17.5px"
         id="path976" />
      <path
         d="M 151.76419,184.68362 H 158.88669 V 183.44112 H 153.19919 V 173.20362 H 151.76419 Z"
         style="font-size:17.5px"
         id="path978" />
      <path
         d="M 161.61666,184.68362 H 169.19416 V 183.49362 H 166.27166 V 173.51862 H 165.20416 C 164.48666,173.90362 163.64666,174.16612 162.33416,174.34112 V 175.26862 H 164.83666 V 183.49362 H 161.61666 Z"
         style="font-size:17.5px"
         id="path980" />
      <path
         d="M 188.63661,187.34362 H 189.70411 V 186.52112 H 188.79411 C 187.00911,186.52112 186.62411,186.06612 186.62411,184.92862 186.62411,183.86112 186.72911,182.95112 186.72911,181.76112 186.72911,180.62362 186.34411,180.06362 185.13661,179.85362 V 179.78362 C 186.34411,179.57362 186.72911,179.01362 186.72911,177.87612 186.72911,176.79112 186.62411,175.70612 186.62411,174.70862 186.62411,173.57112 187.00911,173.11612 188.79411,173.11612 H 189.70411 V 172.29362 H 188.63661 C 186.43161,172.29362 185.39911,172.81862 185.39911,174.62112 185.39911,175.82862 185.55661,176.89612 185.55661,177.99862 185.55661,178.68112 185.08411,179.34612 183.01911,179.36362 V 180.27362 C 185.08411,180.29112 185.55661,180.95612 185.55661,181.63862 185.55661,182.81112 185.39911,183.73862 185.39911,185.01612 185.39911,186.81862 186.43161,187.34362 188.63661,187.34362 Z"
         style="font-size:17.5px"
         id="path982" />
      <path
         d="M 193.15158,187.34362 H 194.21908 C 196.40658,187.34362 197.43908,186.81862 197.43908,185.01612 197.43908,183.73862 197.28158,182.81112 197.28158,181.63862 197.28158,180.95612 197.75408,180.29112 199.81908,180.27362 V 179.36362 C 197.75408,179.34612 197.28158,178.68112 197.28158,177.99862 197.28158,176.89612 197.43908,175.82862 197.43908,174.62112 197.43908,172.81862 196.40658,172.29362 194.21908,172.29362 H 193.15158 V 173.11612 H 194.04408 C 195.82908,173.11612 196.23158,173.57112 196.23158,174.70862 196.23158,175.70612 196.12658,176.79112 196.12658,177.87612 196.12658,179.01362 196.49408,179.57362 197.70158,179.78362 V 179.85362 C 196.49408,180.06362 196.12658,180.62362 196.12658,181.76112 196.12658,182.95112 196.23158,183.86112 196.23158,184.92862 196.23158,186.06612 195.82908,186.52112 194.04408,186.52112 H 193.15158 Z"
         style="font-size:17.5px"
         id="path984" />
      <path
         d="M 216.35654,187.34362 H 221.20404 V 186.52112 H 217.51154 V 173.11612 H 221.20404 V 172.29362 H 216.35654 Z"
         style="font-size:17.5px"
         id="path986" />
      <path
         d="M 224.63401,187.34362 H 229.48151 V 172.29362 H 224.63401 V 173.11612 H 228.32651 V 186.52112 H 224.63401 Z"
         style="font-size:17.5px"
         id="path988" />
      <path
         d="M 249.09895,188.60362 C 251.98645,188.60362 253.82395,187.22112 253.82395,185.62862 253.82395,184.19362 252.77395,183.63362 250.58645,183.63362 H 248.67895 C 247.55895,183.63362 246.91145,183.31862 246.91145,182.65362 246.91145,182.25112 247.15645,181.93612 247.57645,181.67362 248.04895,181.88362 248.57395,181.98862 249.01145,181.98862 250.84895,181.98862 252.30145,180.88612 252.30145,179.06612 252.30145,178.38362 251.96895,177.75362 251.58395,177.35112 H 253.78895 V 176.17862 H 250.27145 C 249.90395,176.03862 249.50145,175.96862 249.01145,175.96862 247.20895,175.96862 245.66895,177.15862 245.66895,179.01362 245.66895,180.02862 246.14145,180.78112 246.71895,181.21862 V 181.28862 C 246.07145,181.72612 245.70395,182.33862 245.70395,182.88112 245.70395,183.59862 246.12395,184.03612 246.57895,184.28112 V 184.35112 C 245.66895,184.87612 245.17895,185.55862 245.17895,186.24112 245.17895,187.74612 246.61395,188.60362 249.09895,188.60362 Z M 249.01145,181.02612 C 247.94395,181.02612 247.05145,180.23862 247.05145,179.01362 247.05145,177.82362 247.94395,177.01862 249.01145,177.01862 250.09645,177.01862 250.97145,177.82362 250.97145,179.01362 250.97145,180.23862 250.09645,181.02612 249.01145,181.02612 Z M 249.20395,187.55362 C 247.38395,187.55362 246.42145,186.99362 246.42145,186.10112 246.42145,185.61112 246.70145,185.12112 247.50645,184.68362 247.87395,184.78862 248.31145,184.82362 248.80145,184.82362 H 250.46395 C 251.75895,184.82362 252.40645,185.05112 252.40645,185.85612 252.40645,186.73112 251.18145,187.55362 249.20395,187.55362 Z"
         style="font-size:17.5px"
         id="path990" />
      <path
         d="M 256.95641,176.89612 C 256.95641,175.42612 257.98891,174.44612 259.31891,174.44612 260.96391,174.44612 261.96141,175.60112 262.18891,177.77112 261.27891,178.82112 260.21141,179.25862 259.33641,179.25862 257.77891,179.25862 256.95641,178.41862 256.95641,176.89612 Z M 258.91641,184.89362 C 261.33141,184.89362 263.58891,183.16112 263.58891,178.68112 263.58891,175.09362 261.73391,173.30862 259.30141,173.30862 257.32391,173.30862 255.59141,174.76112 255.59141,176.89612 255.59141,179.18862 256.99141,180.34362 259.05641,180.34362 260.19391,180.34362 261.31391,179.80112 262.22391,178.90862 262.15391,182.47862 260.59641,183.70362 258.82891,183.70362 257.97141,183.70362 257.16641,183.35362 256.60641,182.81112 L 255.80141,183.72112 C 256.53641,184.38612 257.55141,184.89362 258.91641,184.89362 Z"
         style="font-size:17.5px"
         id="path992" />
      <path
         d="M 272.3564,188.27112 H 273.7914 V 176.17862 H 272.6364 L 272.5139,177.12362 H 272.4614 C 271.6564,176.37112 270.8689,175.96862 269.8364,175.96862 267.8239,175.96862 265.9689,177.68362 265.9689,180.44862 265.9689,183.28362 267.4389,184.89362 269.6439,184.89362 270.6939,184.89362 271.6739,184.31612 272.3739,183.59862 H 272.4264 L 272.3564,185.17362 Z M 269.9589,183.68612 C 268.3839,183.68612 267.4564,182.46112 267.4564,180.43112 267.4564,178.48862 268.6464,177.17612 270.1164,177.17612 270.8514,177.17612 271.5864,177.45612 272.3564,178.17362 V 182.40862 C 271.6039,183.24862 270.7989,183.68612 269.9589,183.68612 Z"
         style="font-size:17.5px"
         id="path994" />
      <path
         d="M 281.56137,184.89362 C 283.08387,184.89362 284.20387,184.28112 285.11387,183.23112 L 284.29137,182.33862 C 283.55637,183.16112 282.75137,183.61612 281.70137,183.61612 279.49637,183.61612 278.06137,181.79612 278.06137,178.90862 278.06137,176.05612 279.49637,174.27112 281.70137,174.27112 282.66387,174.27112 283.41637,174.69112 284.01137,175.32112 L 284.83387,174.39362 C 284.16887,173.65862 283.06637,172.99362 281.70137,172.99362 278.70887,172.99362 276.55637,175.25112 276.55637,178.94362 276.55637,182.68862 278.72637,184.89362 281.56137,184.89362 Z"
         style="font-size:17.5px"
         id="path996" />
      <path
         d="M 291.81634,184.89362 C 293.30384,184.89362 294.52884,184.29862 295.24634,183.56362 V 178.73362 H 291.60634 V 179.94112 H 293.89884 V 182.93362 C 293.46134,183.35362 292.70884,183.61612 291.90384,183.61612 289.64634,183.61612 288.36884,181.79612 288.36884,178.90862 288.36884,176.05612 289.78634,174.27112 291.93884,174.27112 293.04134,174.27112 293.72384,174.72612 294.28384,175.32112 L 295.10634,174.39362 C 294.45884,173.71112 293.46134,172.99362 291.93884,172.99362 288.96384,172.99362 286.84634,175.23362 286.84634,178.94362 286.84634,182.68862 288.92884,184.89362 291.81634,184.89362 Z"
         style="font-size:17.5px"
         id="path998" />
      <path
         d="M 301.66882,183.68612 C 299.91882,183.68612 298.76382,181.93612 298.76382,178.89112 298.76382,176.00362 299.91882,174.27112 301.66882,174.27112 303.41882,174.27112 304.57382,176.00362 304.57382,178.89112 304.57382,181.93612 303.41882,183.68612 301.66882,183.68612 Z M 304.83632,187.53612 C 305.32632,187.53612 305.74632,187.43112 306.13132,187.29112 L 305.85132,186.11862 C 305.64132,186.20612 305.34382,186.29362 304.99382,186.29362 303.80382,186.29362 302.91132,185.80362 302.50882,184.80612 304.64382,184.36862 306.07882,182.23362 306.07882,178.89112 306.07882,175.18112 304.25882,172.99362 301.66882,172.99362 299.07882,172.99362 297.25882,175.18112 297.25882,178.89112 297.25882,182.30362 298.74632,184.45612 300.96882,184.84112 301.52882,186.38112 302.80632,187.53612 304.83632,187.53612 Z"
         style="font-size:17.5px"
         id="path1000" />
      <path
         d="M 324.20876,180.18612 C 325.10126,180.18612 325.97626,179.64362 326.58876,178.01612 L 325.66126,177.59612 C 325.25876,178.82112 324.78626,179.10112 324.24376,179.10112 323.24626,179.10112 322.51126,177.63112 321.12876,177.63112 320.23626,177.63112 319.36126,178.17362 318.74876,179.81862 L 319.67626,180.22112 C 320.07876,179.01362 320.55126,178.71612 321.09376,178.71612 322.09126,178.71612 322.82626,180.18612 324.20876,180.18612 Z"
         style="font-size:17.5px"
         id="path1002" />
      <path
         d="M 329.40623,179.45112 H 336.93123 V 178.36612 H 329.40623 Z"
         style="font-size:17.5px"
         id="path1004" />
      <path
         d="M 343.0912,182.86362 H 344.2462 V 179.45112 H 347.4312 V 178.36612 H 344.2462 V 174.95362 H 343.0912 V 178.36612 H 339.9062 V 179.45112 H 343.0912 Z"
         style="font-size:17.5px"
         id="path1006" />
      <path
         d="M 361.29117,173.90362 V 175.28612 L 363.05867,176.49362 H 350.40617 V 177.57862 H 364.66867 L 366.59367,178.89112 364.59867,180.23862 H 350.40617 V 181.30612 H 363.00617 L 361.29117,182.46112 V 183.84362 L 368.64117,178.87362 Z"
         style="font-size:17.5px"
         id="path1008" />
    </g>
  </g>
</svg>
