<?xml version="1.0" encoding="UTF-8" standalone="no"?>
<!-- Created with Inkscape (http://www.inkscape.org/) -->

<svg
   xmlns:dc="http://purl.org/dc/elements/1.1/"
   xmlns:cc="http://creativecommons.org/ns#"
   xmlns:rdf="http://www.w3.org/1999/02/22-rdf-syntax-ns#"
   xmlns:svg="http://www.w3.org/2000/svg"
   xmlns="http://www.w3.org/2000/svg"
   xmlns:sodipodi="http://sodipodi.sourceforge.net/DTD/sodipodi-0.dtd"
   xmlns:inkscape="http://www.inkscape.org/namespaces/inkscape"
   width="85.632111mm"
   height="30.26833mm"
   viewBox="0 0 303.42086 107.24999"
   id="svg2"
   version="1.1"
   inkscape:version="0.91 r13725"
   sodipodi:docname="Hasklug Nerd Font.svg">
  <defs
     id="defs4" />
  <sodipodi:namedview
     id="base"
     pagecolor="#ffffff"
     bordercolor="#666666"
     borderopacity="1.0"
     inkscape:pageopacity="0.0"
     inkscape:pageshadow="2"
     inkscape:zoom="0.7"
     inkscape:cx="-55.029647"
     inkscape:cy="-400.90144"
     inkscape:document-units="px"
     inkscape:current-layer="layer1"
     showgrid="false"
     inkscape:window-width="1861"
     inkscape:window-height="1056"
     inkscape:window-x="59"
     inkscape:window-y="24"
     inkscape:window-maximized="1" />
  <metadata
     id="metadata7">
    <rdf:RDF>
      <cc:Work
         rdf:about="">
        <dc:format>image/svg+xml</dc:format>
        <dc:type
           rdf:resource="http://purl.org/dc/dcmitype/StillImage" />
        <dc:title />
      </cc:Work>
    </rdf:RDF>
  </metadata>
  <g
     inkscape:label="Layer 1"
     inkscape:groupmode="layer"
     id="layer1"
     transform="translate(-65.029643,-81.353632)">
    <g
       style="font-style:normal;font-weight:normal;font-size:27.5px;line-height:125%;font-family:'Hasklug Nerd Font';text-decoration: underline;text-decoration-line: underline;letter-spacing:0px;word-spacing:0px;fill:#ffffff;fill-opacity:1;stroke:none;stroke-width:1px;stroke-linecap:butt;stroke-linejoin:miter;stroke-opacity:1"
       id="text4136">
      <path
         d="m 65.029643,100.93363 0,-18.039998 2.31,0 0,7.5625 7.535,0 0,-7.5625 2.31,0 0,18.039998 -2.31,0 0,-8.497498 -7.535,0 0,8.497498 -2.31,0 z"
         id="path4140"
         inkscape:connector-curvature="0" />
      <path
         d="m 86.111401,101.26363 q -1.9525,0 -3.245,-1.0175 -1.2925,-1.044998 -1.2925,-2.777498 0,-2.255 2.255,-3.41 2.255,-1.1825 7.425,-1.595 -0.055,-1.5125 -0.9075,-2.42 -0.825,-0.935 -2.64,-0.935 -2.1175,0 -4.675,1.595 l -0.88,-1.54 q 2.9425,-1.925 5.94,-1.925 2.6675,0 4.0425,1.485 1.375,1.4575 1.375,4.015 l 0,8.194998 -1.8425,0 -0.1925,-1.814998 -0.0825,0 q -2.75,2.144998 -5.28,2.144998 z m 0.605,-1.814998 q 2.1725,0 4.5375,-1.98 l 0,-3.52 q -4.125,0.33 -5.8025,1.155 -1.6775,0.825 -1.6775,2.2 0,1.0725 0.825,1.6225 0.8525,0.5225 2.1175,0.5225 z"
         id="path4142"
         inkscape:connector-curvature="0" />
      <path
         d="m 104.36066,101.26363 q -3.575,0 -6.572501,-2.089998 l 1.045,-1.485 q 2.530001,1.815 5.802501,1.815 1.6225,0 2.5025,-0.5775 0.88,-0.605 0.88,-1.5125 0,-0.8525 -0.825,-1.4025 -0.825,-0.55 -3.355,-1.0725 -2.64,-0.55 -3.932501,-1.485 -1.2925,-0.935 -1.2925,-2.42 0,-1.6775 1.457501,-2.7225 1.4575,-1.0725 4.0975,-1.0725 2.915,0 5.39,1.705 l -1.1,1.4575 q -2.035,-1.4025 -4.4825,-1.4025 -1.595,0 -2.3375,0.55 -0.7425,0.5225 -0.7425,1.375 0,0.825 0.8525,1.2925 0.88,0.4675 3.025,0.935 3.2175,0.6875 4.3725,1.6225 1.155,0.9075 1.155,2.5025 0,1.705 -1.595,2.859998 -1.5675,1.1275 -4.345,1.1275 z"
         id="path4144"
         inkscape:connector-curvature="0" />
      <path
         d="m 115.23992,100.93363 0,-19.579998 2.255,0 0,13.255 0.11,0 7.205,-7.04 2.585,0 -5.335,5.2525 6.05,8.112498 -2.53,0 -4.9225,-6.737498 -3.1625,3.1075 0,3.629998 -2.255,0 z"
         id="path4146"
         inkscape:connector-curvature="0" />
      <path
         d="m 140.00667,101.26363 q -2.145,0 -3.2725,-1.21 -1.1275,-1.237498 -1.1275,-3.602498 l 0,-13.255 -4.7575,0 0,-1.8425 7.0125,0 0,15.2625 q 0,2.7775 2.64,2.7775 1.1825,0 2.5025,-0.605 l 0.5775,1.677498 q -1.8975,0.7975 -3.575,0.7975 z"
         id="path4148"
         inkscape:connector-curvature="0" />
      <path
         d="m 152.06843,101.26363 q -4.6475,0 -4.6475,-5.389998 l 0,-8.305 2.2825,0 0,8.0025 q 0,1.925 0.715,2.8325 0.715,0.9075 2.365,0.9075 1.1275,0 2.0625,-0.5775 0.9625,-0.5775 2.09,-1.8975 l 0,-9.2675 2.255,0 0,13.364998 -1.8425,0 -0.1925,-2.337498 -0.11,0 q -2.2825,2.667498 -4.9775,2.667498 z"
         id="path4150"
         inkscape:connector-curvature="0" />
      <path
         d="m 169.93269,107.09363 q -2.9425,0 -4.565,-0.99 -1.595,-0.9625 -1.595,-2.7225 0,-1.705 2.2,-2.97 l 0,-0.11 q -1.375,-0.742498 -1.375,-2.199998 0,-1.43 1.595,-2.5025 l 0,-0.11 q -1.65,-1.2375 -1.65,-3.465 0,-2.1175 1.5125,-3.4375 1.54,-1.3475 3.74,-1.3475 1.1275,0 1.98,0.33 l 5.5275,0 0,1.8425 -3.465,0 q 1.1275,1.1825 1.1275,2.695 0,2.09 -1.485,3.355 -1.4575,1.2375 -3.685,1.2375 -1.1275,0 -2.255,-0.495 -1.045,0.66 -1.045,1.54 0,1.54 2.7775,1.54 l 2.9975,0 q 2.6125,0 3.85,0.742498 1.2375,0.715 1.2375,2.3925 0,1.9525 -2.0625,3.3 -2.0625,1.375 -5.3625,1.375 z m -0.1375,-11.907498 q 1.32,0 2.2,-0.88 0.88,-0.88 0.88,-2.2825 0,-1.375 -0.9075,-2.255 -0.88,-0.88 -2.1725,-0.88 -1.2925,0 -2.2,0.88 -0.88,0.88 -0.88,2.255 0,1.4025 0.88,2.2825 0.9075,0.88 2.2,0.88 z m 0.3025,10.257498 q 2.255,0 3.63,-0.7975 1.4025,-0.7975 1.4025,-1.87 0,-0.9075 -0.7425,-1.265 -0.715,-0.3575 -2.31,-0.3575 l -2.6125,0 q -1.265,0 -2.035,-0.22 -1.705,0.935 -1.705,2.2275 0,1.0725 1.1275,1.6775 1.1275,0.605 3.245,0.605 z"
         id="path4152"
         inkscape:connector-curvature="0" />
      <path
         d="m 197.02621,100.93363 0,-18.039998 2.53,0 5.775,11.33 1.7325,3.74 0.055,0 q -0.0275,-0.3575 -0.165,-2.475 -0.1375,-2.1175 -0.1375,-3.245 l 0,-9.35 2.2,0 0,18.039998 -2.53,0 -5.775,-11.329998 -1.7325,-3.74 -0.055,0 q 0.0275,0.495 0.165,2.53 0.1375,2.0075 0.1375,3.1075 l 0,9.432498 -2.2,0 z"
         id="path4154"
         inkscape:connector-curvature="0" />
      <path
         d="m 220.33546,101.26363 q -3.1075,0 -5.17,-1.897498 -2.035,-1.8975 -2.035,-5.1425 0,-3.135 2.0075,-5.06 2.0075,-1.925 4.8125,-1.925 2.86,0 4.4825,1.705 1.6225,1.705 1.6225,4.565 0,0.66 -0.11,1.375 l -10.5325,0 q 0.1925,2.2 1.6225,3.3825 1.43,1.1825 3.575,1.1825 2.09,0 4.07,-1.265 l 0.825,1.485 q -2.3925,1.594998 -5.17,1.594998 z m -0.33,-12.237498 q -1.705,0 -2.97,1.1 -1.265,1.0725 -1.5675,2.9975 l 8.525,0 q -0.1375,-2.035 -1.1825,-3.0525 -1.045,-1.045 -2.805,-1.045 z"
         id="path4156"
         inkscape:connector-curvature="0" />
      <path
         d="m 231.76472,100.93363 0,-13.364998 1.87,0 0.1925,3.1625 0.0825,0 q 2.2825,-3.4925 5.9675,-3.4925 1.54,0 2.64,0.55 l -0.5225,1.9525 q -1.32,-0.4675 -2.475,-0.4675 -3.3,0 -5.5,3.8225 l 0,7.837498 -2.255,0 z"
         id="path4158"
         inkscape:connector-curvature="0" />
      <path
         d="m 251.69148,101.26363 q -2.6675,0 -4.235,-1.842498 -1.5675,-1.8425 -1.5675,-5.1425 0,-3.135 1.7875,-5.0875 1.815,-1.9525 4.29,-1.9525 2.1725,0 3.9875,1.7325 l 0.0825,0 -0.11,-2.475 0,-5.1425 2.255,0 0,19.579998 -1.87,0 -0.1925,-1.759998 -0.0825,0 q -2.035,2.089998 -4.345,2.089998 z m 0.4675,-1.897498 q 1.98,0 3.7675,-2.0075 l 0,-6.655 q -1.6775,-1.5675 -3.52,-1.5675 -1.76,0 -2.97,1.43 -1.21,1.43 -1.21,3.685 0,2.3925 1.045,3.7675 1.045,1.3475 2.8875,1.3475 z"
         id="path4160"
         inkscape:connector-curvature="0" />
      <path
         d="m 280.87499,100.93363 0,-18.039998 11.0825,0 0,1.925 -8.7725,0 0,6.105 7.425,0 0,1.925 -7.425,0 0,8.084998 -2.31,0 z"
         id="path4162"
         inkscape:connector-curvature="0" />
      <path
         d="m 306.63175,99.366132 q -1.925,1.897498 -4.675,1.897498 -2.75,0 -4.675,-1.897498 -1.925,-1.8975 -1.925,-5.0875 0,-3.245 1.8975,-5.1425 1.925,-1.8975 4.7025,-1.8975 2.7775,0 4.675,1.8975 1.925,1.8975 1.925,5.1425 0,3.19 -1.925,5.0875 z m -7.7825,-1.375 q 1.1825,1.4025 3.1075,1.4025 1.925,0 3.08,-1.4025 1.1825,-1.43 1.1825,-3.7125 0,-2.31 -1.1825,-3.74 -1.155,-1.43 -3.08,-1.43 -1.925,0 -3.1075,1.43 -1.155,1.43 -1.155,3.74 0,2.2825 1.155,3.7125 z"
         id="path4164"
         inkscape:connector-curvature="0" />
      <path
         d="m 312.75351,100.93363 0,-13.364998 1.87,0 0.1925,2.2825 0.11,0 q 2.475,-2.6125 5.0325,-2.6125 4.62,0 4.62,5.39 l 0,8.304998 -2.255,0 0,-8.002498 q 0,-1.925 -0.7425,-2.8325 -0.715,-0.9075 -2.3375,-0.9075 -1.1275,0 -2.0625,0.5775 -0.9075,0.55 -2.1725,1.8425 l 0,9.322498 -2.255,0 z"
         id="path4166"
         inkscape:connector-curvature="0" />
      <path
         d="m 337.52027,101.26363 q -2.7775,0 -3.9875,-1.429998 -1.1825,-1.4575 -1.1825,-4.0975 l 0,-6.325 -3.7675,0 0,-1.705 3.85,-0.1375 0.3025,-4.29 1.87,0 0,4.29 6.5725,0 0,1.8425 -6.5725,0 0,6.3525 q 0,1.87 0.7425,2.7775 0.77,0.88 2.64,0.88 1.595,0 3.2175,-0.605 l 0.495,1.649998 q -2.2,0.7975 -4.18,0.7975 z"
         id="path4168"
         inkscape:connector-curvature="0" />
    </g>
    <g
       style="font-style:normal;font-weight:normal;font-size:27.5px;line-height:125%;font-family:'Hasklug Nerd Font';letter-spacing:0px;word-spacing:0px;fill:#ffffff;fill-opacity:1;stroke:none;stroke-width:1px;stroke-linecap:butt;stroke-linejoin:miter;stroke-opacity:1"
       id="text4140">
      <path
         d="m 69.724403,141.14362 q -1.2425,0 -2.065,-0.6475 -0.8225,-0.665 -0.8225,-1.7675 0,-1.435 1.435,-2.17 1.435,-0.7525 4.725,-1.015 -0.035,-0.9625 -0.5775,-1.54 -0.525,-0.595 -1.68,-0.595 -1.3475,0 -2.975,1.015 l -0.56,-0.98 q 1.8725,-1.225 3.78,-1.225 1.6975,0 2.5725,0.945 0.875,0.9275 0.875,2.555 l 0,5.215 -1.1725,0 -0.1225,-1.155 -0.0525,0 q -1.75,1.365 -3.36,1.365 z m 0.385,-1.155 q 1.3825,0 2.8875,-1.26 l 0,-2.24 q -2.625,0.21 -3.6925,0.735 -1.0675,0.525 -1.0675,1.4 0,0.6825 0.525,1.0325 0.5425,0.3325 1.3475,0.3325 z"
         style="font-size:17.5px"
         id="path4171"
         inkscape:connector-curvature="0" />
      <path
         d="m 81.512567,141.14362 q -1.3475,0 -2.6425,-1.155 l -0.0525,0 -0.1225,0.945 -1.155,0 0,-12.46 1.435,0 0,3.395 -0.0525,1.645 0.0525,0 q 0.5775,-0.595 1.3475,-0.945 0.77,-0.35 1.505,-0.35 1.6975,0 2.6075,1.1725 0.9275,1.155 0.9275,3.15 0,2.1 -1.1375,3.36 -1.12,1.2425 -2.7125,1.2425 z m -0.2275,-1.2075 q 1.1375,0 1.855,-0.91 0.735,-0.9275 0.735,-2.4675 0,-3.1325 -2.3975,-3.1325 -1.225,0 -2.5025,1.2775 l 0,4.235 q 1.12,0.9975 2.31,0.9975 z"
         style="font-size:17.5px"
         id="path4173"
         inkscape:connector-curvature="0" />
      <path
         d="m 92.460731,141.14362 q -2.0475,0 -3.36,-1.19 -1.295,-1.19 -1.295,-3.255 0,-2.065 1.365,-3.2725 1.365,-1.2075 3.3775,-1.2075 1.82,0 3.0975,1.2425 l -0.7175,0.9275 q -1.12,-0.98 -2.3275,-0.98 -1.47,0 -2.3975,0.91 -0.91,0.91 -0.91,2.38 0,1.4525 0.8925,2.3625 0.91,0.8925 2.38,0.8925 1.365,0 2.625,-1.0675 l 0.6475,0.9275 q -1.4875,1.33 -3.3775,1.33 z"
         style="font-size:17.5px"
         id="path4175"
         inkscape:connector-curvature="0" />
      <path
         d="m 101.6414,141.14362 q -1.697505,0 -2.695005,-1.1725 -0.9975,-1.1725 -0.9975,-3.2725 0,-1.995 1.1375,-3.2375 1.155005,-1.2425 2.730005,-1.2425 1.3825,0 2.5375,1.1025 l 0.0525,0 -0.07,-1.575 0,-3.2725 1.435,0 0,12.46 -1.19,0 -0.1225,-1.12 -0.0525,0 q -1.295,1.33 -2.765,1.33 z m 0.2975,-1.2075 q 1.26,0 2.3975,-1.2775 l 0,-4.235 q -1.0675,-0.9975 -2.24,-0.9975 -1.12,0 -1.89,0.91 -0.770005,0.91 -0.770005,2.345 0,1.5225 0.665005,2.3975 0.665,0.8575 1.8375,0.8575 z"
         style="font-size:17.5px"
         id="path4177"
         inkscape:connector-curvature="0" />
      <path
         d="m 113.16706,141.14362 q -1.9775,0 -3.29,-1.2075 -1.295,-1.2075 -1.295,-3.2725 0,-1.995 1.2775,-3.22 1.2775,-1.225 3.0625,-1.225 1.82,0 2.8525,1.085 1.0325,1.085 1.0325,2.905 0,0.42 -0.07,0.875 l -6.7025,0 q 0.1225,1.4 1.0325,2.1525 0.91,0.7525 2.275,0.7525 1.33,0 2.59,-0.805 l 0.525,0.945 q -1.5225,1.015 -3.29,1.015 z m -0.21,-7.7875 q -1.085,0 -1.89,0.7 -0.805,0.6825 -0.9975,1.9075 l 5.425,0 q -0.0875,-1.295 -0.7525,-1.9425 -0.665,-0.665 -1.785,-0.665 z"
         style="font-size:17.5px"
         id="path4179"
         inkscape:connector-curvature="0" />
      <path
         d="m 122.12022,140.93362 0,-7.3325 -2.4325,0 0,-1.085 2.4325,-0.0875 0,-0.7175 q 0,-1.61 0.8575,-2.52 0.8575,-0.9275 2.5725,-0.9275 1.26,0 2.45,0.49 l -0.3325,1.085 q -0.8925,-0.4025 -1.9775,-0.4025 -2.1525,0 -2.1525,2.2225 l 0,0.77 3.57,0 0,1.1725 -3.57,0 0,7.3325 -1.4175,0 z"
         style="font-size:17.5px"
         id="path4181"
         inkscape:connector-curvature="0" />
      <path
         d="m 133.55839,144.85362 q -1.8725,0 -2.905,-0.63 -1.015,-0.6125 -1.015,-1.7325 0,-1.085 1.4,-1.89 l 0,-0.07 q -0.875,-0.4725 -0.875,-1.4 0,-0.91 1.015,-1.5925 l 0,-0.07 q -1.05,-0.7875 -1.05,-2.205 0,-1.3475 0.9625,-2.1875 0.98,-0.8575 2.38,-0.8575 0.7175,0 1.26,0.21 l 3.5175,0 0,1.1725 -2.205,0 q 0.7175,0.7525 0.7175,1.715 0,1.33 -0.945,2.135 -0.9275,0.7875 -2.345,0.7875 -0.7175,0 -1.435,-0.315 -0.665,0.42 -0.665,0.98 0,0.98 1.7675,0.98 l 1.9075,0 q 1.6625,0 2.45,0.4725 0.7875,0.455 0.7875,1.5225 0,1.2425 -1.3125,2.1 -1.3125,0.875 -3.4125,0.875 z m -0.0875,-7.5775 q 0.84,0 1.4,-0.56 0.56,-0.56 0.56,-1.4525 0,-0.875 -0.5775,-1.435 -0.56,-0.56 -1.3825,-0.56 -0.8225,0 -1.4,0.56 -0.56,0.56 -0.56,1.435 0,0.8925 0.56,1.4525 0.5775,0.56 1.4,0.56 z m 0.1925,6.5275 q 1.435,0 2.31,-0.5075 0.8925,-0.5075 0.8925,-1.19 0,-0.5775 -0.4725,-0.805 -0.455,-0.2275 -1.47,-0.2275 l -1.6625,0 q -0.805,0 -1.295,-0.14 -1.085,0.595 -1.085,1.4175 0,0.6825 0.7175,1.0675 0.7175,0.385 2.065,0.385 z"
         style="font-size:17.5px"
         id="path4183"
         inkscape:connector-curvature="0" />
      <path
         d="m 140.49905,140.93362 0,-12.46 1.435,0 0,3.395 -0.0875,2.0125 0.0525,0 q 1.54,-1.6625 3.185,-1.6625 2.94,0 2.94,3.43 l 0,5.285 -1.435,0 0,-5.0925 q 0,-1.225 -0.4725,-1.8025 -0.455,-0.5775 -1.4875,-0.5775 -0.7175,0 -1.3125,0.3675 -0.5775,0.35 -1.3825,1.1725 l 0,5.9325 -1.435,0 z"
         style="font-size:17.5px"
         id="path4185"
         inkscape:connector-curvature="0" />
      <path
         d="m 154.89472,140.93362 0,-7.3325 -3.955,0 0,-1.1725 5.39,0 0,8.505 -1.435,0 z m 1.3825,-10.5875 q -0.3325,0.2975 -0.8225,0.2975 -0.49,0 -0.8225,-0.2975 -0.3325,-0.315 -0.3325,-0.8225 0,-0.49 0.3325,-0.805 0.3325,-0.315 0.8225,-0.315 0.49,0 0.8225,0.315 0.3325,0.315 0.3325,0.805 0,0.5075 -0.3325,0.8225 z"
         style="font-size:17.5px"
         id="path4187"
         inkscape:connector-curvature="0" />
      <path
         d="m 163.25288,144.73112 q -1.2425,0 -2.4325,-0.5775 l 0.4725,-1.0675 q 0.98,0.4725 1.9425,0.4725 1.2075,0 1.68,-0.5775 0.4725,-0.56 0.4725,-1.7325 l 0,-7.6475 -3.955,0 0,-1.1725 5.39,0 0,8.715 q 0,1.715 -0.8225,2.6425 -0.805,0.945 -2.7475,0.945 z m 3.5175,-14.385 q -0.3325,0.2975 -0.8225,0.2975 -0.49,0 -0.8225,-0.2975 -0.3325,-0.315 -0.3325,-0.8225 0,-0.49 0.3325,-0.805 0.3325,-0.315 0.8225,-0.315 0.49,0 0.8225,0.315 0.3325,0.315 0.3325,0.805 0,0.5075 -0.3325,0.8225 z"
         style="font-size:17.5px"
         id="path4189"
         inkscape:connector-curvature="0" />
      <path
         d="m 172.20604,140.93362 0,-12.46 1.435,0 0,8.435 0.07,0 4.585,-4.48 1.645,0 -3.395,3.3425 3.85,5.1625 -1.61,0 -3.1325,-4.2875 -2.0125,1.9775 0,2.31 -1.435,0 z"
         style="font-size:17.5px"
         id="path4191"
         inkscape:connector-curvature="0" />
      <path
         d="m 187.96671,141.14362 q -1.365,0 -2.0825,-0.77 -0.7175,-0.7875 -0.7175,-2.2925 l 0,-8.435 -3.0275,0 0,-1.1725 4.4625,0 0,9.7125 q 0,1.7675 1.68,1.7675 0.7525,0 1.5925,-0.385 l 0.3675,1.0675 q -1.2075,0.5075 -2.275,0.5075 z"
         style="font-size:17.5px"
         id="path4193"
         inkscape:connector-curvature="0" />
      <path
         d="m 192.35237,140.93362 0,-8.505 1.155,0 0.1225,1.12 0.035,0 q 0.735,-1.33 1.9425,-1.33 1.2425,0 1.61,1.47 0.4025,-0.735 0.84,-1.1025 0.455,-0.3675 1.155,-0.3675 0.8925,0 1.3825,0.6825 0.5075,0.6825 0.5075,1.9425 l 0,6.09 -1.435,0 0,-5.985 q 0,-1.4875 -0.91,-1.4875 -0.42,0 -0.7175,0.2975 -0.28,0.2975 -0.6475,1.015 l 0,6.16 -1.33,0 0,-5.985 q 0,-1.4875 -0.875,-1.4875 -0.4375,0 -0.7525,0.315 -0.315,0.315 -0.6475,0.9975 l 0,6.16 -1.435,0 z"
         style="font-size:17.5px"
         id="path4195"
         inkscape:connector-curvature="0" />
      <path
         d="m 203.45804,140.93362 0,-8.505 1.19,0 0.1225,1.4525 0.07,0 q 1.575,-1.6625 3.2025,-1.6625 2.94,0 2.94,3.43 l 0,5.285 -1.435,0 0,-5.0925 q 0,-1.225 -0.4725,-1.8025 -0.455,-0.5775 -1.4875,-0.5775 -0.7175,0 -1.3125,0.3675 -0.5775,0.35 -1.3825,1.1725 l 0,5.9325 -1.435,0 z"
         style="font-size:17.5px"
         id="path4197"
         inkscape:connector-curvature="0" />
      <path
         d="m 220.5487,139.93612 q -1.225,1.2075 -2.975,1.2075 -1.75,0 -2.975,-1.2075 -1.225,-1.2075 -1.225,-3.2375 0,-2.065 1.2075,-3.2725 1.225,-1.2075 2.9925,-1.2075 1.7675,0 2.975,1.2075 1.225,1.2075 1.225,3.2725 0,2.03 -1.225,3.2375 z m -4.9525,-0.875 q 0.7525,0.8925 1.9775,0.8925 1.225,0 1.96,-0.8925 0.7525,-0.91 0.7525,-2.3625 0,-1.47 -0.7525,-2.38 -0.735,-0.91 -1.96,-0.91 -1.225,0 -1.9775,0.91 -0.735,0.91 -0.735,2.38 0,1.4525 0.735,2.3625 z"
         style="font-size:17.5px"
         id="path4199"
         inkscape:connector-curvature="0" />
      <path
         d="m 224.44436,144.52112 0,-12.0925 1.19,0 0.1225,1.085 0.0525,0 q 1.3475,-1.295 2.94,-1.295 1.6975,0 2.6075,1.1725 0.91,1.155 0.91,3.1675 0,2.0825 -1.1375,3.3425 -1.12,1.2425 -2.73,1.2425 -1.3475,0 -2.5375,-1.1025 l -0.0525,0 0.07,1.61 0,2.87 -1.435,0 z m 1.435,-5.5825 q 1.12,0.9975 2.275,0.9975 1.155,0 1.89,-0.91 0.735,-0.91 0.735,-2.4675 0,-3.1325 -2.3975,-3.1325 -1.225,0 -2.5025,1.2775 l 0,4.235 z"
         style="font-size:17.5px"
         id="path4201"
         inkscape:connector-curvature="0" />
      <path
         d="m 240.74753,144.52112 0,-3.0975 0.07,-1.575 -0.0525,0 q -1.26,1.295 -2.73,1.295 -1.68,0 -2.6775,-1.1725 -0.9975,-1.1725 -0.9975,-3.2725 0,-1.995 1.1375,-3.2375 1.155,-1.2425 2.73,-1.2425 1.3825,0 2.625,1.155 l 0.0525,0 0.1225,-0.945 1.155,0 0,12.0925 -1.435,0 z m -2.3975,-4.585 q 1.26,0 2.3975,-1.2775 l 0,-4.235 q -1.0675,-0.9975 -2.24,-0.9975 -1.12,0 -1.89,0.91 -0.77,0.91 -0.77,2.345 0,1.5225 0.665,2.3975 0.665,0.8575 1.8375,0.8575 z"
         style="font-size:17.5px"
         id="path4203"
         inkscape:connector-curvature="0" />
      <path
         d="m 246.35819,140.93362 0,-8.505 1.19,0 0.1225,2.0125 0.0525,0 q 1.4525,-2.2225 3.7975,-2.2225 0.98,0 1.68,0.35 l -0.3325,1.2425 q -0.84,-0.2975 -1.575,-0.2975 -2.1,0 -3.5,2.4325 l 0,4.9875 -1.435,0 z"
         style="font-size:17.5px"
         id="path4205"
         inkscape:connector-curvature="0" />
      <path
         d="m 259.72136,141.14362 q -2.275,0 -4.1825,-1.33 l 0.665,-0.945 q 1.61,1.155 3.6925,1.155 1.0325,0 1.5925,-0.3675 0.56,-0.385 0.56,-0.9625 0,-0.5425 -0.525,-0.8925 -0.525,-0.35 -2.135,-0.6825 -1.68,-0.35 -2.5025,-0.945 -0.8225,-0.595 -0.8225,-1.54 0,-1.0675 0.9275,-1.7325 0.9275,-0.6825 2.6075,-0.6825 1.855,0 3.43,1.085 l -0.7,0.9275 q -1.295,-0.8925 -2.8525,-0.8925 -1.015,0 -1.4875,0.35 -0.4725,0.3325 -0.4725,0.875 0,0.525 0.5425,0.8225 0.56,0.2975 1.925,0.595 2.0475,0.4375 2.7825,1.0325 0.735,0.5775 0.735,1.5925 0,1.085 -1.015,1.82 -0.9975,0.7175 -2.765,0.7175 z"
         style="font-size:17.5px"
         id="path4207"
         inkscape:connector-curvature="0" />
      <path
         d="m 271.68452,141.14362 q -1.7675,0 -2.5375,-0.91 -0.7525,-0.9275 -0.7525,-2.6075 l 0,-4.025 -2.3975,0 0,-1.085 2.45,-0.0875 0.1925,-2.73 1.19,0 0,2.73 4.1825,0 0,1.1725 -4.1825,0 0,4.0425 q 0,1.19 0.4725,1.7675 0.49,0.56 1.68,0.56 1.015,0 2.0475,-0.385 l 0.315,1.05 q -1.4,0.5075 -2.66,0.5075 z"
         style="font-size:17.5px"
         id="path4209"
         inkscape:connector-curvature="0" />
      <path
         d="m 279.58768,141.14362 q -2.9575,0 -2.9575,-3.43 l 0,-5.285 1.4525,0 0,5.0925 q 0,1.225 0.455,1.8025 0.455,0.5775 1.505,0.5775 0.7175,0 1.3125,-0.3675 0.6125,-0.3675 1.33,-1.2075 l 0,-5.8975 1.435,0 0,8.505 -1.1725,0 -0.1225,-1.4875 -0.07,0 q -1.4525,1.6975 -3.1675,1.6975 z"
         style="font-size:17.5px"
         id="path4211"
         inkscape:connector-curvature="0" />
      <path
         d="m 290.25585,140.93362 -3.5875,-8.505 1.4525,0 1.96,4.83 q 0.4025,0.98 0.9625,2.5025 l 0.07,0 q 0.8925,-2.4325 0.9275,-2.5025 l 1.96,-4.83 1.3825,0 -3.5175,8.505 -1.61,0 z"
         style="font-size:17.5px"
         id="path4213"
         inkscape:connector-curvature="0" />
      <path
         d="m 298.26401,140.93362 -1.855,-8.505 1.435,0 1.015,4.935 q 0.245,1.2075 0.385,2.345 l 0.07,0 q 0.0875,-0.735 0.49,-2.345 l 1.05,-4.41 1.435,0 1.015,4.41 q 0.49,2.0125 0.525,2.345 l 0.07,0 q 0.0525,-0.2975 0.175,-1.085 0.1225,-0.805 0.21,-1.26 l 1.015,-4.935 1.33,0 -1.82,8.505 -1.855,0 -0.98,-4.06 q -0.21,-0.8925 -0.42,-2.52 l -0.07,0 q -0.21,1.6275 -0.42,2.52 l -0.945,4.06 -1.855,0 z"
         style="font-size:17.5px"
         id="path4215"
         inkscape:connector-curvature="0" />
      <path
         d="m 307.88218,140.93362 3.2375,-4.41 -2.9925,-4.095 1.5925,0 1.3475,1.8725 q 0.49,0.7525 0.9975,1.435 l 0.07,0 q 0.665,-0.9975 0.9625,-1.47 l 1.2775,-1.8375 1.5225,0 -3.0275,4.2175 3.255,4.2875 -1.575,0 -1.4875,-1.96 q -0.7,-0.98 -1.12,-1.54 l -0.07,0 q -0.875,1.26 -1.05,1.54 l -1.4,1.96 -1.54,0 z"
         style="font-size:17.5px"
         id="path4217"
         inkscape:connector-curvature="0" />
      <path
         d="m 319.54784,144.59112 q -0.63,0 -1.12,-0.175 l 0.2975,-1.1375 q 0.4025,0.1225 0.77,0.1225 1.5925,0 2.3275,-1.82 l 0.2625,-0.63 -3.9725,-8.5225 1.4525,0 2.0825,4.7075 q 0.14,0.3325 0.315,0.7525 0.175,0.4025 0.385,0.9275 0.2275,0.5075 0.35,0.7875 l 0.07,0 q 0.7875,-2.1525 0.91,-2.4675 l 1.855,-4.7075 1.365,0 -3.745,9.205 q -1.1025,2.9575 -3.605,2.9575 z"
         style="font-size:17.5px"
         id="path4219"
         inkscape:connector-curvature="0" />
      <path
         d="m 328.991,140.93362 0,-0.77 5.8275,-6.5625 -5.18,0 0,-1.1725 7.245,0 0,0.77 -5.845,6.5625 6.0025,0 0,1.1725 -8.05,0 z"
         style="font-size:17.5px"
         id="path4221"
         inkscape:connector-curvature="0" />
      <path
         d="m 69.479403,156.38612 -0.5425,1.75 3.43,0 -0.5425,-1.75 q -0.735,-2.31 -1.1375,-3.8675 l -0.07,0 q -0.5775,2.0825 -1.1375,3.8675 z m -3.5,6.4225 3.8675,-11.48 1.645,0 3.8675,11.48 -1.54,0 -1.085,-3.5 -4.165,0 -1.1025,3.5 -1.4875,0 z"
         style="font-size:17.5px"
         id="path4223"
         inkscape:connector-curvature="0" />
      <path
         d="m 77.645067,162.80862 0,-11.48 3.255,0 q 3.9375,0 3.9375,2.8 0,0.8925 -0.525,1.575 -0.5075,0.6825 -1.4875,0.9275 l 0,0.07 q 2.66,0.42 2.66,2.7475 0,1.645 -1.1725,2.5025 -1.155,0.8575 -3.15,0.8575 l -3.5175,0 z m 1.4525,-6.65 1.5575,0 q 1.4525,0 2.1,-0.455 0.6475,-0.4725 0.6475,-1.4525 0,-0.91 -0.665,-1.295 -0.6475,-0.4025 -2.0125,-0.4025 l -1.6275,0 0,3.605 z m 0,5.425 1.855,0 q 3.0975,0 3.0975,-2.205 0,-1.995 -3.0975,-1.995 l -1.855,0 0,4.2 z"
         style="font-size:17.5px"
         id="path4225"
         inkscape:connector-curvature="0" />
      <path
         d="m 92.548231,163.01862 q -2.1875,0 -3.605,-1.5925 -1.4,-1.61 -1.4,-4.3575 0,-2.73 1.435,-4.34 1.435,-1.61 3.71,-1.61 1.8725,0 3.1325,1.4 l -0.8225,0.9275 q -0.9975,-1.05 -2.31,-1.05 -1.6625,0 -2.66,1.26 -0.98,1.2425 -0.98,3.3775 0,2.1525 0.98,3.43 0.9975,1.2775 2.66,1.2775 1.4525,0 2.59,-1.2775 l 0.8225,0.8925 q -1.435,1.6625 -3.5525,1.6625 z"
         style="font-size:17.5px"
         id="path4227"
         inkscape:connector-curvature="0" />
      <path
         d="m 98.421395,162.80862 0,-11.48 2.835005,0 q 2.5725,0 3.9375,1.4875 1.3825,1.47 1.3825,4.2 0,2.7475 -1.365,4.27 -1.365,1.5225 -3.885,1.5225 l -2.905005,0 z m 1.4525,-1.19 1.277505,0 q 1.9425,0 2.9225,-1.19 0.9975,-1.2075 0.9975,-3.4125 0,-2.1875 -0.9975,-3.3425 -0.98,-1.155 -2.9225,-1.155 l -1.277505,0 0,9.1 z"
         style="font-size:17.5px"
         id="path4229"
         inkscape:connector-curvature="0" />
      <path
         d="m 109.38706,162.80862 0,-11.48 7.105,0 0,1.225 -5.635,0 0,3.605 4.76,0 0,1.2425 -4.76,0 0,4.165 5.81,0 0,1.2425 -7.28,0 z"
         style="font-size:17.5px"
         id="path4231"
         inkscape:connector-curvature="0" />
      <path
         d="m 120.21272,162.80862 0,-11.48 7.0525,0 0,1.225 -5.5825,0 0,3.885 4.725,0 0,1.225 -4.725,0 0,5.145 -1.47,0 z"
         style="font-size:17.5px"
         id="path4233"
         inkscape:connector-curvature="0" />
      <path
         d="m 134.27589,163.01862 q -2.205,0 -3.5875,-1.5925 -1.3825,-1.5925 -1.3825,-4.3575 0,-2.7475 1.4,-4.34 1.4175,-1.61 3.6925,-1.61 1.8375,0 3.1675,1.4 l -0.8225,0.9275 q -0.98,-1.05 -2.345,-1.05 -1.6275,0 -2.6075,1.26 -0.9625,1.2425 -0.9625,3.3775 0,2.1875 0.9275,3.4475 0.9275,1.26 2.6075,1.26 1.2775,0 1.995,-0.6825 l 0,-2.9925 -2.2925,0 0,-1.2075 3.64,0 0,4.83 q -1.295,1.33 -3.43,1.33 z"
         style="font-size:17.5px"
         id="path4235"
         inkscape:connector-curvature="0" />
      <path
         d="m 140.25405,162.80862 0,-11.48 1.47,0 0,4.8125 4.795,0 0,-4.8125 1.47,0 0,11.48 -1.47,0 0,-5.4075 -4.795,0 0,5.4075 -1.47,0 z"
         style="font-size:17.5px"
         id="path4237"
         inkscape:connector-curvature="0" />
      <path
         d="m 151.02722,162.80862 0,-1.2425 2.8525,0 0,-9.0125 -2.8525,0 0,-1.225 7.175,0 0,1.225 -2.8525,0 0,9.0125 2.8525,0 0,1.2425 -7.175,0 z"
         style="font-size:17.5px"
         id="path4239"
         inkscape:connector-curvature="0" />
      <path
         d="m 164.68788,163.01862 q -1.015,0 -1.9425,-0.4725 -0.91,-0.49 -1.47,-1.435 l 0.91,-0.8925 q 0.9625,1.5225 2.4675,1.5225 1.2425,0 1.8025,-0.6475 0.5775,-0.665 0.5775,-2.0825 l 0,-6.475 -4.8125,0 0,-1.225 6.265,0 0,7.8225 q 0,1.75 -0.8925,2.8175 -0.8925,1.0675 -2.905,1.0675 z"
         style="font-size:17.5px"
         id="path4241"
         inkscape:connector-curvature="0" />
      <path
         d="m 172.06604,162.80862 0,-11.48 1.47,0 0,5.7575 0.0525,0 4.83,-5.7575 1.6625,0 -3.64,4.3575 4.06,7.1225 -1.645,0 -3.3425,-6.02 -1.9775,2.3625 0,3.6575 -1.47,0 z"
         style="font-size:17.5px"
         id="path4243"
         inkscape:connector-curvature="0" />
      <path
         d="m 183.18921,162.80862 0,-11.48 1.435,0 0,10.2375 5.6875,0 0,1.2425 -7.1225,0 z"
         style="font-size:17.5px"
         id="path4245"
         inkscape:connector-curvature="0" />
      <path
         d="m 192.59737,162.80862 0,-11.48 1.785,0 1.61,4.9 0.56,1.855 0.07,0 0.5425,-1.855 1.6275,-4.9 1.785,0 0,11.48 -1.4,0 0,-5.74 q 0,-0.63 0.245,-4.06 l -0.0525,0 -0.6475,2.24 -1.645,4.515 -1.05,0 -1.61,-4.515 -0.665,-2.24 -0.035,0 q 0.245,2.2925 0.245,4.06 l 0,5.74 -1.365,0 z"
         style="font-size:17.5px"
         id="path4247"
         inkscape:connector-curvature="0" />
      <path
         d="m 203.26554,162.80862 0,-11.48 1.61,0 3.675,7.21 1.1025,2.38 0.035,0 q -0.0175,-0.2275 -0.105,-1.575 -0.0875,-1.3475 -0.0875,-2.065 l 0,-5.95 1.4,0 0,11.48 -1.61,0 -3.675,-7.21 -1.1025,-2.38 -0.035,0 q 0.0175,0.315 0.105,1.61 0.0875,1.2775 0.0875,1.9775 l 0,6.0025 -1.4,0 z"
         style="font-size:17.5px"
         id="path4249"
         inkscape:connector-curvature="0" />
      <path
         d="m 220.7587,161.40862 q -1.2075,1.61 -3.185,1.61 -1.9775,0 -3.2025,-1.61 -1.2075,-1.61 -1.2075,-4.3925 0,-2.7475 1.2075,-4.3225 1.225,-1.575 3.2025,-1.575 1.9775,0 3.185,1.575 1.225,1.575 1.225,4.3225 0,2.7825 -1.225,4.3925 z m -5.3025,-0.9275 q 0.7875,1.26 2.1175,1.26 1.33,0 2.1175,-1.26 0.7875,-1.2775 0.7875,-3.465 0,-2.1525 -0.7875,-3.3775 -0.7875,-1.2425 -2.1175,-1.2425 -1.33,0 -2.1175,1.2425 -0.7875,1.225 -0.7875,3.3775 0,2.1875 0.7875,3.465 z"
         style="font-size:17.5px"
         id="path4251"
         inkscape:connector-curvature="0" />
      <path
         d="m 224.60186,162.80862 0,-11.48 3.465,0 q 4.2525,0 4.2525,3.3775 0,1.75 -1.155,2.66 -1.1375,0.8925 -3.0975,0.8925 l -2.0125,0 0,4.55 -1.4525,0 z m 1.4525,-5.74 1.8375,0 q 1.5225,0 2.24,-0.56 0.7175,-0.5775 0.7175,-1.8025 0,-1.2075 -0.7175,-1.6975 -0.7,-0.5075 -2.24,-0.5075 l -1.8375,0 0,4.5675 z"
         style="font-size:17.5px"
         id="path4253"
         inkscape:connector-curvature="0" />
      <path
         d="m 236.44253,160.55112 q 0.7875,1.26 2.1175,1.26 1.33,0 2.1175,-1.26 0.7875,-1.2775 0.7875,-3.535 0,-2.1525 -0.7875,-3.3775 -0.7875,-1.2425 -2.1175,-1.2425 -1.33,0 -2.1175,1.2425 -0.7875,1.225 -0.7875,3.3775 0,2.2575 0.7875,3.535 z m 5.285,5.11 q -1.4525,0 -2.45,-0.735 -0.98,-0.735 -1.4175,-1.96 -1.6975,-0.2975 -2.7125,-1.855 -0.9975,-1.575 -0.9975,-4.095 0,-2.7475 1.2075,-4.3225 1.225,-1.575 3.2025,-1.575 1.9775,0 3.185,1.575 1.225,1.575 1.225,4.3225 0,2.4675 -0.98,4.025 -0.9625,1.5575 -2.59,1.89 0.595,1.4875 2.485,1.4875 0.4375,0 0.8575,-0.175 l 0.28,1.1725 q -0.6825,0.245 -1.295,0.245 z"
         style="font-size:17.5px"
         id="path4255"
         inkscape:connector-curvature="0" />
      <path
         d="m 245.55319,162.80862 0,-11.48 3.57,0 q 4.0075,0 4.0075,3.22 0,1.295 -0.6825,2.1175 -0.6825,0.8225 -1.89,1.1375 l 2.9225,5.005 -1.6625,0 -2.765,-4.8475 -2.0475,0 0,4.8475 -1.4525,0 z m 1.4525,-6.0375 1.9075,0 q 2.765,0 2.765,-2.2225 0,-1.1025 -0.7,-1.575 -0.6825,-0.4725 -2.065,-0.4725 l -1.9075,0 0,4.27 z"
         style="font-size:17.5px"
         id="path4257"
         inkscape:connector-curvature="0" />
      <path
         d="m 259.63386,163.01862 q -2.4675,0 -4.165,-1.6975 l 0.875,-1.015 q 1.435,1.435 3.36,1.435 1.155,0 1.82,-0.49 0.6825,-0.5075 0.6825,-1.33 0,-0.4375 -0.14,-0.7525 -0.1225,-0.315 -0.49,-0.56 -0.35,-0.2625 -0.595,-0.385 -0.2275,-0.1225 -0.84,-0.385 l -1.645,-0.7175 q -2.485,-0.98 -2.485,-2.9575 0,-1.3125 1.0675,-2.17 1.0675,-0.875 2.695,-0.875 2.1175,0 3.535,1.4175 l -0.77,0.945 q -1.225,-1.085 -2.8175,-1.085 -0.9975,0 -1.61,0.455 -0.6125,0.455 -0.6125,1.225 0,0.385 0.1575,0.7 0.1575,0.2975 0.525,0.5425 0.385,0.2275 0.595,0.3325 0.2275,0.105 0.77,0.3325 l 1.61,0.7 q 1.2075,0.49 1.8725,1.19 0.665,0.7 0.665,1.8725 0,1.4 -1.12,2.345 -1.1025,0.9275 -2.94,0.9275 z"
         style="font-size:17.5px"
         id="path4259"
         inkscape:connector-curvature="0" />
      <path
         d="m 269.30452,162.80862 0,-10.255 -3.78,0 0,-1.225 9.03,0 0,1.225 -3.78,0 0,10.255 -1.47,0 z"
         style="font-size:17.5px"
         id="path4261"
         inkscape:connector-curvature="0" />
      <path
         d="m 280.55018,163.01862 q -1.8025,0 -2.8525,-1.1025 -1.0325,-1.1025 -1.0325,-3.4475 l 0,-7.14 1.47,0 0,7.175 q 0,3.2375 2.415,3.2375 1.12,0 1.7675,-0.77 0.665,-0.77 0.665,-2.4675 l 0,-7.175 1.4175,0 0,7.14 q 0,2.3625 -1.0325,3.465 -1.0325,1.085 -2.8175,1.085 z"
         style="font-size:17.5px"
         id="path4263"
         inkscape:connector-curvature="0" />
      <path
         d="m 290.18585,162.80862 -3.6575,-11.48 1.54,0 1.855,6.195 q 0.1225,0.4375 0.49,1.7325 0.3675,1.295 0.6125,2.065 l 0.07,0 q 0.3325,-1.0675 1.1025,-3.7975 l 1.8375,-6.195 1.4875,0 -3.64,11.48 -1.6975,0 z"
         style="font-size:17.5px"
         id="path4265"
         inkscape:connector-curvature="0" />
      <path
         d="m 298.19401,162.80862 -1.75,-11.4975 1.645,0 0.84,7.21 q 0.175,1.6625 0.2275,2.66 l 0.0525,0 q 0.245,-1.365 0.56,-2.6425 l 1.12,-4.27 1.4,0 1.085,4.27 q 0.245,0.9625 0.56,2.6425 l 0.07,0 q 0.105,-1.68 0.21,-2.6425 l 0.805,-7.2275 1.575,0 -1.68,11.4975 -1.82,0 -1.12,-4.62 q -0.28,-1.1025 -0.42,-2.065 l -0.0525,0 q -0.2625,1.5225 -0.4025,2.065 l -1.12,4.62 -1.785,0 z"
         style="font-size:17.5px"
         id="path4267"
         inkscape:connector-curvature="0" />
      <path
         d="m 307.70718,162.80862 3.43,-5.9325 -3.2025,-5.5475 1.61,0 1.61,2.94 q 0.35,0.63 0.9275,1.6625 l 0.07,0 q 0.5075,-1.0675 0.8225,-1.6625 l 1.575,-2.94 1.54,0 -3.2025,5.6175 3.43,5.8625 -1.61,0 -1.7325,-3.0975 q -0.1925,-0.35 -1.015,-1.8375 l -0.07,0 q -0.4025,0.8575 -0.9275,1.8375 l -1.715,3.0975 -1.54,0 z"
         style="font-size:17.5px"
         id="path4269"
         inkscape:connector-curvature="0" />
      <path
         d="m 321.77034,162.80862 0,-4.095 -3.85,-7.385 1.54,0 1.7325,3.4125 q 0.1925,0.3675 0.6125,1.2775 0.4375,0.8925 0.7,1.4 l 0.07,0 q 0.2275,-0.4725 0.6825,-1.365 0.455,-0.8925 0.665,-1.33 l 1.6625,-3.395 1.505,0 -3.85,7.385 0,4.095 -1.47,0 z"
         style="font-size:17.5px"
         id="path4271"
         inkscape:connector-curvature="0" />
      <path
         d="m 328.886,162.80862 0,-0.875 6.405,-9.3975 -5.845,0 0,-1.225 7.6475,0 0,0.875 -6.4225,9.38 6.51,0 0,1.2425 -8.295,0 z"
         style="font-size:17.5px"
         id="path4273"
         inkscape:connector-curvature="0" />
      <path
         d="m 73.644403,183.68612 q -1.225,1.2075 -2.975,1.2075 -1.75,0 -2.975,-1.2075 -1.225,-1.2075 -1.225,-3.2375 0,-2.065 1.2075,-3.2725 1.225,-1.2075 2.9925,-1.2075 1.7675,0 2.975,1.2075 1.225,1.2075 1.225,3.2725 0,2.03 -1.225,3.2375 z m -4.9525,-0.875 q 0.7525,0.8925 1.9775,0.8925 1.225,0 1.96,-0.8925 0.7525,-0.91 0.7525,-2.3625 0,-1.47 -0.7525,-2.38 -0.735,-0.91 -1.96,-0.91 -1.225,0 -1.9775,0.91 -0.735,0.91 -0.735,2.38 0,1.4525 0.735,2.3625 z"
         style="font-size:17.5px"
         id="path4275"
         inkscape:connector-curvature="0" />
      <path
         d="m 84.347567,183.28362 q -1.2075,1.61 -3.185,1.61 -1.9775,0 -3.2025,-1.61 -1.2075,-1.61 -1.2075,-4.3925 0,-2.7475 1.2075,-4.3225 1.225,-1.575 3.2025,-1.575 1.9775,0 3.185,1.575 1.225,1.575 1.225,4.3225 0,2.7825 -1.225,4.3925 z m -5.3025,-0.9275 q 0.7875,1.26 2.1175,1.26 1.33,0 2.1175,-1.26 0.7875,-1.2775 0.7875,-3.465 0,-2.1525 -0.7875,-3.3775 -0.7875,-1.2425 -2.1175,-1.2425 -1.33,0 -2.1175,1.2425 -0.7875,1.225 -0.7875,3.3775 0,2.1875 0.7875,3.465 z"
         style="font-size:17.5px"
         id="path4277"
         inkscape:connector-curvature="0" />
      <path
         d="m 94.595731,183.37112 q -1.0675,1.5225 -2.94,1.5225 -1.8725,0 -2.94,-1.5225 -1.0675,-1.54 -1.0675,-4.305 0,-2.7825 1.05,-4.27 1.0675,-1.4875 2.9575,-1.4875 1.89,0 2.94,1.4875 1.0675,1.4875 1.0675,4.27 0,2.765 -1.0675,4.305 z m -4.8825,-0.805 q 0.7175,1.1725 1.9425,1.1725 1.225,0 1.9425,-1.1725 0.7175,-1.1725 0.7175,-3.5 0,-2.3275 -0.7175,-3.465 -0.7175,-1.1375 -1.9425,-1.1375 -1.225,0 -1.9425,1.1375 -0.7175,1.1375 -0.7175,3.465 0,2.3275 0.7175,3.5 z m 2.7125,-2.765 q -0.315,0.315 -0.77,0.315 -0.455,0 -0.77,-0.315 -0.315,-0.3325 -0.315,-0.8575 0,-0.525 0.315,-0.84 0.315,-0.315 0.77,-0.315 0.455,0 0.77,0.315 0.315,0.315 0.315,0.84 0,0.525 -0.315,0.8575 z"
         style="font-size:17.5px"
         id="path4279"
         inkscape:connector-curvature="0" />
      <path
         d="m 105.1064,184.05362 q -1.0675,0.84 -2.9225,0.84 -1.855,0 -2.975005,-0.8575 -1.12,-0.8575 -1.12,-2.205 0,-1.855 2.397505,-2.975 l 0,-0.07 q -1.697505,-1.05 -1.697505,-2.6075 0,-1.2775 0.9625,-2.065 0.980005,-0.805 2.485005,-0.805 1.61,0 2.5375,0.8225 0.9275,0.8225 0.9275,2.1525 0,1.47 -1.6975,2.66 l 0,0.07 q 1.0675,0.5425 1.6275,1.1725 0.56,0.63 0.56,1.7325 0,1.295 -1.085,2.135 z m -2.0475,-5.46 q 1.4,-1.015 1.4,-2.24 0,-0.8575 -0.595,-1.4175 -0.595,-0.56 -1.6625,-0.56 -0.9275,0 -1.5225,0.5075 -0.5775,0.49 -0.5775,1.295 0,0.91 0.735,1.435 0.7525,0.5075 2.2225,0.98 z m -0.84,5.2325 q 1.225,0 1.9075,-0.525 0.6825,-0.5425 0.6825,-1.435 0,-0.525 -0.2275,-0.8925 -0.21,-0.385 -0.665,-0.6475 -0.4375,-0.28 -0.945,-0.4725 -0.49,-0.21 -1.225,-0.455 -0.28,-0.0875 -0.4375,-0.14 -1.907505,1.05 -1.907505,2.4325 0,0.945 0.770005,1.54 0.77,0.595 2.0475,0.595 z"
         style="font-size:17.5px"
         id="path4281"
         inkscape:connector-curvature="0" />
      <path
         d="m 123.41522,184.68362 0,-7.3325 -3.955,0 0,-1.1725 5.39,0 0,8.505 -1.435,0 z m 1.3825,-10.5875 q -0.3325,0.2975 -0.8225,0.2975 -0.49,0 -0.8225,-0.2975 -0.3325,-0.315 -0.3325,-0.8225 0,-0.49 0.3325,-0.805 0.3325,-0.315 0.8225,-0.315 0.49,0 0.8225,0.315 0.3325,0.315 0.3325,0.805 0,0.5075 -0.3325,0.8225 z"
         style="font-size:17.5px"
         id="path4283"
         inkscape:connector-curvature="0" />
      <path
         d="m 130.04089,184.68362 0,-1.2425 2.8525,0 0,-9.0125 -2.8525,0 0,-1.225 7.175,0 0,1.225 -2.8525,0 0,9.0125 2.8525,0 0,1.2425 -7.175,0 z"
         style="font-size:17.5px"
         id="path4285"
         inkscape:connector-curvature="0" />
      <path
         d="m 145.99405,184.89362 q -1.365,0 -2.0825,-0.77 -0.7175,-0.7875 -0.7175,-2.2925 l 0,-8.435 -3.0275,0 0,-1.1725 4.4625,0 0,9.7125 q 0,1.7675 1.68,1.7675 0.7525,0 1.5925,-0.385 l 0.3675,1.0675 q -1.2075,0.5075 -2.275,0.5075 z"
         style="font-size:17.5px"
         id="path4287"
         inkscape:connector-curvature="0" />
      <path
         d="m 151.70972,184.68362 0,-11.48 1.435,0 0,10.2375 5.6875,0 0,1.2425 -7.1225,0 z"
         style="font-size:17.5px"
         id="path4289"
         inkscape:connector-curvature="0" />
      <path
         d="m 161.55538,184.68362 0,-1.19 3.22,0 0,-8.225 -2.5025,0 0,-0.9275 q 1.785,-0.245 2.87,-0.8225 l 1.0675,0 0,9.975 2.9225,0 0,1.19 -7.5775,0 z"
         style="font-size:17.5px"
         id="path4291"
         inkscape:connector-curvature="0" />
      <path
         d="m 188.56171,187.34362 q -1.715,0 -2.485,-0.5075 -0.7525,-0.5075 -0.7525,-1.82 0,-0.6475 0.07,-1.715 0.0875,-1.085 0.0875,-1.6625 0,-1.3475 -2.5375,-1.365 l 0,-0.91 q 2.5375,-0.0175 2.5375,-1.365 0,-0.5425 -0.0875,-1.645 -0.07,-1.12 -0.07,-1.7325 0,-1.3125 0.7525,-1.82 0.77,-0.5075 2.485,-0.5075 l 1.0675,0 0,0.8225 -0.91,0 q -1.295,0 -1.7325,0.35 -0.4375,0.35 -0.4375,1.2425 0,0.49 0.0525,1.5575 0.0525,1.05 0.0525,1.61 0,0.875 -0.35,1.3125 -0.35,0.4375 -1.2425,0.595 l 0,0.07 q 0.8925,0.1575 1.2425,0.595 0.35,0.4375 0.35,1.3125 0,0.6125 -0.0525,1.6275 -0.0525,1.015 -0.0525,1.54 0,0.8925 0.4375,1.2425 0.4375,0.35 1.7325,0.35 l 0.91,0 0,0.8225 -1.0675,0 z"
         style="font-size:17.5px"
         id="path4293"
         inkscape:connector-curvature="0" />
      <path
         d="m 193.06987,187.34362 0,-0.8225 0.8925,0 q 1.295,0 1.7325,-0.35 0.455,-0.35 0.455,-1.2425 0,-0.525 -0.0525,-1.54 -0.0525,-1.015 -0.0525,-1.6275 0,-0.875 0.3325,-1.3125 0.35,-0.4375 1.2425,-0.595 l 0,-0.07 q -0.8925,-0.1575 -1.2425,-0.595 -0.3325,-0.4375 -0.3325,-1.3125 0,-0.56 0.0525,-1.61 0.0525,-1.0675 0.0525,-1.5575 0,-0.8925 -0.455,-1.2425 -0.4375,-0.35 -1.7325,-0.35 l -0.8925,0 0,-0.8225 1.0675,0 q 1.6975,0 2.45,0.5075 0.77,0.5075 0.77,1.82 0,0.6125 -0.0875,1.7325 -0.07,1.1025 -0.07,1.645 0,1.3475 2.5375,1.365 l 0,0.91 q -2.5375,0.0175 -2.5375,1.365 0,0.5775 0.07,1.6625 0.0875,1.0675 0.0875,1.715 0,1.3125 -0.77,1.82 -0.7525,0.5075 -2.45,0.5075 l -1.0675,0 z"
         style="font-size:17.5px"
         id="path4295"
         inkscape:connector-curvature="0" />
      <path
         d="m 216.2612,187.34362 0,-15.05 4.8475,0 0,0.8225 -3.6925,0 0,13.405 3.6925,0 0,0.8225 -4.8475,0 z"
         style="font-size:17.5px"
         id="path4297"
         inkscape:connector-curvature="0" />
      <path
         d="m 224.53186,187.34362 0,-0.8225 3.6925,0 0,-13.405 -3.6925,0 0,-0.8225 4.8475,0 0,15.05 -4.8475,0 z"
         style="font-size:17.5px"
         id="path4299"
         inkscape:connector-curvature="0" />
      <path
         d="m 248.98319,188.60362 q -1.8725,0 -2.905,-0.63 -1.015,-0.6125 -1.015,-1.7325 0,-1.085 1.4,-1.89 l 0,-0.07 q -0.875,-0.4725 -0.875,-1.4 0,-0.91 1.015,-1.5925 l 0,-0.07 q -1.05,-0.7875 -1.05,-2.205 0,-1.3475 0.9625,-2.1875 0.98,-0.8575 2.38,-0.8575 0.7175,0 1.26,0.21 l 3.5175,0 0,1.1725 -2.205,0 q 0.7175,0.7525 0.7175,1.715 0,1.33 -0.945,2.135 -0.9275,0.7875 -2.345,0.7875 -0.7175,0 -1.435,-0.315 -0.665,0.42 -0.665,0.98 0,0.98 1.7675,0.98 l 1.9075,0 q 1.6625,0 2.45,0.4725 0.7875,0.455 0.7875,1.5225 0,1.2425 -1.3125,2.1 -1.3125,0.875 -3.4125,0.875 z m -0.0875,-7.5775 q 0.84,0 1.4,-0.56 0.56,-0.56 0.56,-1.4525 0,-0.875 -0.5775,-1.435 -0.56,-0.56 -1.3825,-0.56 -0.8225,0 -1.4,0.56 -0.56,0.56 -0.56,1.435 0,0.8925 0.56,1.4525 0.5775,0.56 1.4,0.56 z m 0.1925,6.5275 q 1.435,0 2.31,-0.5075 0.8925,-0.5075 0.8925,-1.19 0,-0.5775 -0.4725,-0.805 -0.455,-0.2275 -1.47,-0.2275 l -1.6625,0 q -0.805,0 -1.295,-0.14 -1.085,0.595 -1.085,1.4175 0,0.6825 0.7175,1.0675 0.7175,0.385 2.065,0.385 z"
         style="font-size:17.5px"
         id="path4301"
         inkscape:connector-curvature="0" />
      <path
         d="m 259.21386,179.25862 q 1.5575,0 2.8525,-1.4875 -0.175,-1.6275 -0.91,-2.4675 -0.7175,-0.8575 -1.96,-0.8575 -1.015,0 -1.6975,0.6825 -0.665,0.6825 -0.665,1.7675 0,1.1375 0.595,1.75 0.6125,0.6125 1.785,0.6125 z m -0.42,5.635 q -1.82,0 -3.115,-1.1725 l 0.805,-0.91 q 0.9275,0.8925 2.2225,0.8925 1.47,0 2.3975,-1.1375 0.945,-1.155 0.9975,-3.6575 -1.47,1.435 -3.1675,1.435 -1.5925,0 -2.5375,-0.875 -0.9275,-0.8925 -0.9275,-2.5725 0,-1.5575 1.085,-2.5725 1.1025,-1.015 2.625,-1.015 1.9075,0 3.0975,1.4 1.19,1.3825 1.19,3.9725 0,3.15 -1.3475,4.69 -1.33,1.5225 -3.325,1.5225 z"
         style="font-size:17.5px"
         id="path4303"
         inkscape:connector-curvature="0" />
      <path
         d="m 272.22702,188.27112 0,-3.0975 0.07,-1.575 -0.0525,0 q -1.26,1.295 -2.73,1.295 -1.68,0 -2.6775,-1.1725 -0.9975,-1.1725 -0.9975,-3.2725 0,-1.995 1.1375,-3.2375 1.155,-1.2425 2.73,-1.2425 1.3825,0 2.625,1.155 l 0.0525,0 0.1225,-0.945 1.155,0 0,12.0925 -1.435,0 z m -2.3975,-4.585 q 1.26,0 2.3975,-1.2775 l 0,-4.235 q -1.0675,-0.9975 -2.24,-0.9975 -1.12,0 -1.89,0.91 -0.77,0.91 -0.77,2.345 0,1.5225 0.665,2.3975 0.665,0.8575 1.8375,0.8575 z"
         style="font-size:17.5px"
         id="path4305"
         inkscape:connector-curvature="0" />
      <path
         d="m 281.42518,184.89362 q -2.1875,0 -3.605,-1.5925 -1.4,-1.61 -1.4,-4.3575 0,-2.73 1.435,-4.34 1.435,-1.61 3.71,-1.61 1.8725,0 3.1325,1.4 l -0.8225,0.9275 q -0.9975,-1.05 -2.31,-1.05 -1.6625,0 -2.66,1.26 -0.98,1.2425 -0.98,3.3775 0,2.1525 0.98,3.43 0.9975,1.2775 2.66,1.2775 1.4525,0 2.59,-1.2775 l 0.8225,0.8925 q -1.435,1.6625 -3.5525,1.6625 z"
         style="font-size:17.5px"
         id="path4307"
         inkscape:connector-curvature="0" />
      <path
         d="m 291.67335,184.89362 q -2.205,0 -3.5875,-1.5925 -1.3825,-1.5925 -1.3825,-4.3575 0,-2.7475 1.4,-4.34 1.4175,-1.61 3.6925,-1.61 1.8375,0 3.1675,1.4 l -0.8225,0.9275 q -0.98,-1.05 -2.345,-1.05 -1.6275,0 -2.6075,1.26 -0.9625,1.2425 -0.9625,3.3775 0,2.1875 0.9275,3.4475 0.9275,1.26 2.6075,1.26 1.2775,0 1.995,-0.6825 l 0,-2.9925 -2.2925,0 0,-1.2075 3.64,0 0,4.83 q -1.295,1.33 -3.43,1.33 z"
         style="font-size:17.5px"
         id="path4309"
         inkscape:connector-curvature="0" />
      <path
         d="m 299.40151,182.42612 q 0.7875,1.26 2.1175,1.26 1.33,0 2.1175,-1.26 0.7875,-1.2775 0.7875,-3.535 0,-2.1525 -0.7875,-3.3775 -0.7875,-1.2425 -2.1175,-1.2425 -1.33,0 -2.1175,1.2425 -0.7875,1.225 -0.7875,3.3775 0,2.2575 0.7875,3.535 z m 5.285,5.11 q -1.4525,0 -2.45,-0.735 -0.98,-0.735 -1.4175,-1.96 -1.6975,-0.2975 -2.7125,-1.855 -0.9975,-1.575 -0.9975,-4.095 0,-2.7475 1.2075,-4.3225 1.225,-1.575 3.2025,-1.575 1.9775,0 3.185,1.575 1.225,1.575 1.225,4.3225 0,2.4675 -0.98,4.025 -0.9625,1.5575 -2.59,1.89 0.595,1.4875 2.485,1.4875 0.4375,0 0.8575,-0.175 l 0.28,1.1725 q -0.6825,0.245 -1.295,0.245 z"
         style="font-size:17.5px"
         id="path4311"
         inkscape:connector-curvature="0" />
      <path
         d="m 324.04534,180.18612 q -0.595,0 -1.155,-0.3675 -0.56,-0.3675 -1.0675,-0.735 -0.49,-0.3675 -0.8925,-0.3675 -0.455,0 -0.805,0.3325 -0.3325,0.315 -0.6125,1.1725 l -0.9275,-0.4025 q 0.8225,-2.1875 2.38,-2.1875 0.595,0 1.155,0.3675 0.56,0.3675 1.05,0.735 0.5075,0.3675 0.91,0.3675 0.455,0 0.7875,-0.315 0.35,-0.3325 0.63,-1.19 l 0.9275,0.42 q -0.8225,2.17 -2.38,2.17 z"
         style="font-size:17.5px"
         id="path4313"
         inkscape:connector-curvature="0" />
      <path
         d="m 329.236,179.45112 0,-1.085 7.525,0 0,1.085 -7.525,0 z"
         style="font-size:17.5px"
         id="path4315"
         inkscape:connector-curvature="0" />
      <path
         d="m 342.91417,182.86362 0,-3.4125 -3.185,0 0,-1.085 3.185,0 0,-3.4125 1.155,0 0,3.4125 3.185,0 0,1.085 -3.185,0 0,3.4125 -1.155,0 z"
         style="font-size:17.5px"
         id="path4317"
         inkscape:connector-curvature="0" />
      <path
         d="m 361.1005,173.90362 7.35,4.97 -7.35,4.97 0,-1.3825 1.715,-1.155 -12.6,0 0,-1.0675 14.1925,0 1.995,-1.3475 -1.925,-1.3125 -14.2625,0 0,-1.085 12.6525,0 -1.7675,-1.2075 0,-1.3825 z"
         style="font-size:17.5px"
         id="path4319"
         inkscape:connector-curvature="0" />
    </g>
  </g>
</svg>
