<svg xmlns="http://www.w3.org/2000/svg" width="323.649" height="114.4" viewBox="0 0 303.421 107.25"><g font-weight="400" font-family="Hasklug Nerd Font" letter-spacing="0" word-spacing="0" fill="#fff"><g style="line-height:125%;text-decoration-line:underline" font-size="27.5" text-decoration="underline"><path d="M0 19.58V1.54h2.31v7.562h7.535V1.54h2.31v18.04h-2.31v-8.498H2.31v8.498H0zM21.082 19.91q-1.953 0-3.245-1.018-1.293-1.044-1.293-2.777 0-2.255 2.255-3.41 2.255-1.182 7.425-1.595-.055-1.512-.907-2.42-.825-.935-2.64-.935-2.118 0-4.675 1.595l-.88-1.54q2.942-1.925 5.94-1.925 2.667 0 4.042 1.485 1.375 1.458 1.375 4.015v8.195h-1.842l-.193-1.815h-.082q-2.75 2.145-5.28 2.145zm.605-1.815q2.172 0 4.537-1.98v-3.52q-4.125.33-5.802 1.155-1.678.825-1.678 2.2 0 1.073.825 1.623.853.522 2.118.522zM39.331 19.91q-3.575 0-6.572-2.09l1.045-1.485q2.53 1.815 5.802 1.815 1.623 0 2.503-.577.88-.605.88-1.513 0-.852-.825-1.402-.825-.55-3.355-1.073-2.64-.55-3.933-1.485-1.292-.935-1.292-2.42 0-1.677 1.457-2.722 1.458-1.073 4.098-1.073 2.915 0 5.39 1.705l-1.1 1.458q-2.035-1.403-4.483-1.403-1.595 0-2.337.55-.743.523-.743 1.375 0 .825.853 1.293.88.467 3.025.935 3.217.687 4.372 1.622 1.155.908 1.155 2.503 0 1.705-1.595 2.86-1.567 1.127-4.345 1.127zM50.21 19.58V0h2.255v13.255h.11l7.205-7.04h2.585l-5.335 5.252 6.05 8.113h-2.53l-4.922-6.738-3.163 3.108v3.63H50.21zM74.977 19.91q-2.145 0-3.272-1.21-1.128-1.237-1.128-3.602V1.841H65.82V0h7.012v15.262q0 2.778 2.64 2.778 1.183 0 2.503-.605l.577 1.677q-1.897.798-3.575.798zM87.039 19.91q-4.648 0-4.648-5.39V6.215h2.283v8.003q0 1.925.715 2.832.715.907 2.365.907 1.127 0 2.062-.577.963-.578 2.09-1.897V6.214h2.255V19.58H92.32l-.193-2.338h-.11q-2.282 2.668-4.977 2.668zM104.903 25.74q-2.942 0-4.565-.99-1.595-.963-1.595-2.723 0-1.705 2.2-2.97v-.11q-1.375-.742-1.375-2.2 0-1.43 1.595-2.502v-.11q-1.65-1.237-1.65-3.465 0-2.117 1.513-3.437 1.54-1.348 3.74-1.348 1.127 0 1.98.33h5.527v1.843h-3.465q1.128 1.182 1.128 2.695 0 2.09-1.485 3.355-1.458 1.237-3.685 1.237-1.128 0-2.255-.495-1.045.66-1.045 1.54 0 1.54 2.777 1.54h2.998q2.612 0 3.85.742 1.237.715 1.237 2.393 0 1.952-2.062 3.3-2.063 1.375-5.363 1.375zm-.137-11.907q1.32 0 2.2-.88.88-.88.88-2.283 0-1.375-.908-2.255-.88-.88-2.172-.88-1.293 0-2.2.88-.88.88-.88 2.255 0 1.402.88 2.282.907.88 2.2.88zm.302 10.257q2.255 0 3.63-.798 1.403-.797 1.403-1.87 0-.907-.743-1.265-.715-.357-2.31-.357h-2.612q-1.265 0-2.035-.22-1.705.935-1.705 2.227 0 1.073 1.127 1.678 1.128.605 3.245.605zM131.997 19.58V1.54h2.53l5.775 11.33 1.732 3.74h.055q-.027-.358-.165-2.475-.137-2.118-.137-3.245V1.54h2.2v18.04h-2.53l-5.775-11.33-1.733-3.74h-.055q.028.495.165 2.53.138 2.007.138 3.107v9.433h-2.2zM155.306 19.91q-3.108 0-5.17-1.897-2.035-1.898-2.035-5.143 0-3.135 2.007-5.06 2.008-1.925 4.813-1.925 2.86 0 4.482 1.705 1.623 1.705 1.623 4.565 0 .66-.11 1.375h-10.533q.193 2.2 1.623 3.383 1.43 1.182 3.575 1.182 2.09 0 4.07-1.265l.825 1.485q-2.393 1.595-5.17 1.595zm-.33-12.237q-1.705 0-2.97 1.1-1.265 1.072-1.568 2.997h8.525q-.137-2.035-1.182-3.052-1.045-1.045-2.805-1.045zM166.735 19.58V6.215h1.87l.193 3.162h.082q2.283-3.492 5.968-3.492 1.54 0 2.64.55l-.523 1.952q-1.32-.467-2.475-.467-3.3 0-5.5 3.822v7.838h-2.255zM186.662 19.91q-2.668 0-4.235-1.842-1.568-1.843-1.568-5.143 0-3.135 1.788-5.087 1.815-1.953 4.29-1.953 2.172 0 3.987 1.733h.083l-.11-2.475V0h2.255v19.58h-1.87l-.193-1.76h-.082q-2.035 2.09-4.345 2.09zm.467-1.897q1.98 0 3.768-2.008V9.35q-1.678-1.567-3.52-1.567-1.76 0-2.97 1.43-1.21 1.43-1.21 3.685 0 2.392 1.045 3.767 1.045 1.348 2.887 1.348zM215.845 19.58V1.54h11.083v1.925h-8.773V9.57h7.425v1.925h-7.425v8.085h-2.31zM241.602 18.012q-1.925 1.898-4.675 1.898t-4.675-1.898q-1.925-1.897-1.925-5.087 0-3.245 1.898-5.143 1.925-1.897 4.702-1.897 2.778 0 4.675 1.897 1.925 1.898 1.925 5.143 0 3.19-1.925 5.087zm-7.782-1.375q1.182 1.403 3.107 1.403 1.925 0 3.08-1.403 1.183-1.43 1.183-3.712 0-2.31-1.183-3.74-1.155-1.43-3.08-1.43t-3.107 1.43q-1.155 1.43-1.155 3.74 0 2.282 1.155 3.712zM247.724 19.58V6.215h1.87l.192 2.282h.11q2.475-2.612 5.033-2.612 4.62 0 4.62 5.39v8.305h-2.255v-8.003q0-1.925-.743-2.832-.715-.908-2.337-.908-1.128 0-2.063.578-.907.55-2.172 1.842v9.323h-2.255zM272.49 19.91q-2.777 0-3.987-1.43-1.182-1.458-1.182-4.098V8.059h-3.768V6.353l3.85-.138.303-4.29h1.87v4.29h6.572v1.843h-6.572v6.352q0 1.87.742 2.777.77.88 2.64.88 1.595 0 3.218-.605l.495 1.65q-2.2.798-4.18.798z"/></g><g style="line-height:125%" font-size="17.5"><path d="M4.695 59.79q-1.243 0-2.065-.648-.823-.665-.823-1.767 0-1.435 1.435-2.17 1.435-.753 4.725-1.015-.035-.963-.577-1.54-.525-.595-1.68-.595-1.348 0-2.975 1.015l-.56-.98q1.872-1.225 3.78-1.225 1.697 0 2.572.945.875.927.875 2.555v5.215H8.23l-.123-1.155h-.052q-1.75 1.365-3.36 1.365zm.385-1.155q1.382 0 2.887-1.26v-2.24q-2.625.21-3.692.735-1.068.525-1.068 1.4 0 .682.525 1.032.543.333 1.348.333zM16.483 59.79q-1.348 0-2.643-1.155h-.052l-.123.945H12.51V47.12h1.435v3.395l-.052 1.645h.052q.578-.595 1.348-.945.77-.35 1.505-.35 1.697 0 2.607 1.172.928 1.155.928 3.15 0 2.1-1.138 3.36-1.12 1.243-2.712 1.243zm-.228-1.208q1.138 0 1.855-.91.735-.927.735-2.467 0-3.133-2.397-3.133-1.225 0-2.503 1.278v4.235q1.12.997 2.31.997zM27.431 59.79q-2.047 0-3.36-1.19-1.295-1.19-1.295-3.255t1.365-3.273q1.365-1.207 3.378-1.207 1.82 0 3.097 1.242l-.717.928q-1.12-.98-2.328-.98-1.47 0-2.397.91-.91.91-.91 2.38 0 1.452.892 2.362.91.893 2.38.893 1.365 0 2.625-1.068l.648.928q-1.488 1.33-3.378 1.33zM36.612 59.79q-1.698 0-2.695-1.173-.998-1.172-.998-3.272 0-1.995 1.138-3.238 1.155-1.242 2.73-1.242 1.382 0 2.537 1.102h.053l-.07-1.575V47.12h1.435v12.46h-1.19l-.123-1.12h-.052q-1.295 1.33-2.765 1.33zm.297-1.208q1.26 0 2.398-1.277V53.07q-1.068-.998-2.24-.998-1.12 0-1.89.91-.77.91-.77 2.345 0 1.523.665 2.398.665.857 1.837.857zM48.137 59.79q-1.977 0-3.29-1.208-1.295-1.207-1.295-3.272 0-1.995 1.278-3.22 1.277-1.225 3.062-1.225 1.82 0 2.853 1.085 1.032 1.085 1.032 2.905 0 .42-.07.875h-6.702q.122 1.4 1.032 2.152.91.753 2.275.753 1.33 0 2.59-.805l.525.945q-1.522 1.015-3.29 1.015zm-.21-7.788q-1.085 0-1.89.7-.805.683-.997 1.908h5.425q-.088-1.295-.753-1.943-.665-.665-1.785-.665zM57.09 59.58v-7.333h-2.432v-1.085l2.433-.087v-.718q0-1.61.857-2.52.858-.927 2.573-.927 1.26 0 2.45.49l-.333 1.085q-.892-.403-1.977-.403-2.153 0-2.153 2.223v.77h3.57v1.172h-3.57v7.333h-1.417zM68.529 63.5q-1.873 0-2.905-.63-1.015-.613-1.015-1.733 0-1.085 1.4-1.89v-.07q-.875-.472-.875-1.4 0-.91 1.015-1.592v-.07q-1.05-.788-1.05-2.205 0-1.348.962-2.188.98-.857 2.38-.857.718 0 1.26.21h3.518v1.172h-2.205q.717.753.717 1.715 0 1.33-.945 2.135-.927.788-2.345.788-.717 0-1.435-.315-.665.42-.665.98 0 .98 1.768.98h1.907q1.663 0 2.45.472.788.455.788 1.523 0 1.242-1.313 2.1-1.312.875-3.412.875zm-.088-7.578q.84 0 1.4-.56.56-.56.56-1.452 0-.875-.577-1.435-.56-.56-1.383-.56-.822 0-1.4.56-.56.56-.56 1.435 0 .892.56 1.452.578.56 1.4.56zm.193 6.528q1.435 0 2.31-.508.892-.507.892-1.19 0-.577-.472-.805-.455-.227-1.47-.227H68.23q-.805 0-1.295-.14-1.085.595-1.085 1.417 0 .683.718 1.068.717.385 2.065.385zM75.47 59.58V47.12h1.434v3.395l-.087 2.012h.052q1.54-1.662 3.185-1.662 2.94 0 2.94 3.43v5.285H81.56v-5.093q0-1.225-.472-1.802-.455-.578-1.488-.578-.717 0-1.312.368-.578.35-1.383 1.172v5.933H75.47zM89.865 59.58v-7.333H85.91v-1.172h5.39v8.505h-1.435zm1.383-10.588q-.333.298-.823.298-.49 0-.822-.298-.333-.315-.333-.822 0-.49.333-.805.332-.315.822-.315.49 0 .823.315.332.315.332.805 0 .507-.332.822zM98.223 63.377q-1.242 0-2.432-.577l.472-1.068q.98.473 1.943.473 1.207 0 1.68-.578.472-.56.472-1.732v-7.648h-3.955v-1.172h5.39v8.715q0 1.715-.822 2.642-.805.945-2.748.945zm3.518-14.385q-.333.298-.823.298-.49 0-.822-.298-.333-.315-.333-.822 0-.49.333-.805.332-.315.822-.315.49 0 .823.315.332.315.332.805 0 .507-.332.822zM107.176 59.58V47.12h1.435v8.435h.07l4.585-4.48h1.645l-3.395 3.342 3.85 5.163h-1.61l-3.132-4.288-2.013 1.978v2.31h-1.435zM122.937 59.79q-1.365 0-2.082-.77-.718-.788-.718-2.293v-8.435h-3.027V47.12h4.462v9.712q0 1.768 1.68 1.768.753 0 1.593-.385l.367 1.067q-1.207.508-2.275.508zM127.323 59.58v-8.505h1.155l.122 1.12h.035q.735-1.33 1.943-1.33 1.242 0 1.61 1.47.402-.735.84-1.103.455-.367 1.155-.367.892 0 1.382.682.508.683.508 1.943v6.09h-1.435v-5.985q0-1.488-.91-1.488-.42 0-.718.298-.28.297-.647 1.015v6.16h-1.33v-5.985q0-1.488-.875-1.488-.438 0-.753.315t-.647.998v6.16h-1.435zM138.428 59.58v-8.505h1.19l.123 1.452h.07q1.575-1.662 3.202-1.662 2.94 0 2.94 3.43v5.285h-1.435v-5.093q0-1.225-.472-1.802-.455-.578-1.488-.578-.717 0-1.312.368-.578.35-1.383 1.172v5.933h-1.435zM155.52 58.582q-1.226 1.208-2.976 1.208t-2.975-1.208q-1.225-1.207-1.225-3.237 0-2.065 1.208-3.273 1.225-1.207 2.992-1.207 1.768 0 2.975 1.207 1.225 1.208 1.225 3.273 0 2.03-1.225 3.237zm-4.953-.875q.752.893 1.977.893t1.96-.893q.753-.91.753-2.362 0-1.47-.753-2.38-.735-.91-1.96-.91t-1.977.91q-.735.91-.735 2.38 0 1.452.735 2.362zM159.415 63.167V51.075h1.19l.122 1.085h.053q1.347-1.295 2.94-1.295 1.697 0 2.607 1.172.91 1.155.91 3.168 0 2.082-1.137 3.342-1.12 1.243-2.73 1.243-1.348 0-2.538-1.103h-.052l.07 1.61v2.87h-1.435zm1.435-5.582q1.12.997 2.275.997 1.155 0 1.89-.91.735-.91.735-2.467 0-3.133-2.398-3.133-1.225 0-2.502 1.278v4.235zM175.718 63.167V60.07l.07-1.575h-.053q-1.26 1.295-2.73 1.295-1.68 0-2.677-1.173-.998-1.172-.998-3.272 0-1.995 1.138-3.238 1.155-1.242 2.73-1.242 1.382 0 2.625 1.155h.052l.123-.945h1.155v12.092h-1.435zm-2.398-4.585q1.26 0 2.398-1.277V53.07q-1.068-.998-2.24-.998-1.12 0-1.89.91-.77.91-.77 2.345 0 1.523.665 2.398.665.857 1.837.857zM181.329 59.58v-8.505h1.19l.122 2.012h.053q1.452-2.222 3.797-2.222.98 0 1.68.35l-.332 1.242q-.84-.297-1.575-.297-2.1 0-3.5 2.432v4.988h-1.435zM194.692 59.79q-2.275 0-4.183-1.33l.665-.945q1.61 1.155 3.693 1.155 1.032 0 1.592-.368.56-.385.56-.962 0-.543-.525-.893t-2.135-.682q-1.68-.35-2.502-.945-.823-.595-.823-1.54 0-1.068.928-1.733.927-.682 2.607-.682 1.855 0 3.43 1.085l-.7.927q-1.295-.892-2.852-.892-1.015 0-1.488.35-.472.332-.472.875 0 .525.542.822.56.298 1.925.595 2.048.438 2.783 1.033.735.577.735 1.592 0 1.085-1.015 1.82-.998.718-2.765.718zM206.655 59.79q-1.768 0-2.538-.91-.752-.928-.752-2.608v-4.025h-2.398v-1.085l2.45-.087.193-2.73h1.19v2.73h4.182v1.172H204.8v4.043q0 1.19.472 1.767.49.56 1.68.56 1.015 0 2.048-.385l.315 1.05q-1.4.508-2.66.508zM214.558 59.79q-2.957 0-2.957-3.43v-5.285h1.452v5.092q0 1.225.455 1.803.455.577 1.505.577.718 0 1.313-.367.612-.368 1.33-1.208v-5.897h1.435v8.505h-1.173l-.122-1.488h-.07q-1.453 1.698-3.168 1.698zM225.226 59.58l-3.587-8.505h1.452l1.96 4.83q.403.98.963 2.502h.07q.892-2.432.927-2.502l1.96-4.83h1.383l-3.518 8.505h-1.61zM233.234 59.58l-1.855-8.505h1.435l1.015 4.935q.245 1.207.385 2.345h.07q.088-.735.49-2.345l1.05-4.41h1.435l1.015 4.41q.49 2.012.525 2.345h.07q.053-.298.175-1.085.123-.805.21-1.26l1.015-4.935h1.33l-1.82 8.505h-1.855l-.98-4.06q-.21-.893-.42-2.52h-.07q-.21 1.627-.42 2.52l-.945 4.06h-1.855zM242.853 59.58l3.237-4.41-2.992-4.095h1.592l1.348 1.872q.49.753.997 1.435h.07q.665-.997.963-1.47l1.277-1.837h1.523l-3.028 4.217 3.255 4.288h-1.575l-1.487-1.96q-.7-.98-1.12-1.54h-.07q-.875 1.26-1.05 1.54l-1.4 1.96h-1.54zM254.518 63.237q-.63 0-1.12-.175l.298-1.137q.402.122.77.122 1.592 0 2.327-1.82l.263-.63-3.973-8.522h1.453l2.082 4.707.315.753q.175.402.385.927.228.508.35.788h.07q.788-2.153.91-2.468l1.855-4.707h1.365l-3.745 9.205q-1.102 2.957-3.605 2.957zM263.961 59.58v-.77l5.828-6.563h-5.18v-1.172h7.245v.77l-5.845 6.562h6.002v1.173h-8.05zM4.45 75.032l-.543 1.75h3.43l-.542-1.75q-.735-2.31-1.138-3.867h-.07q-.577 2.082-1.137 3.867zm-3.5 6.423l3.867-11.48h1.645l3.868 11.48H8.79l-1.085-3.5H3.54l-1.103 3.5H.95zM12.615 81.455v-11.48h3.255q3.938 0 3.938 2.8 0 .892-.525 1.575-.508.682-1.488.927v.07q2.66.42 2.66 2.748 0 1.645-1.172 2.502-1.155.858-3.15.858h-3.518zm1.453-6.65h1.557q1.453 0 2.1-.455.648-.473.648-1.453 0-.91-.665-1.295-.648-.402-2.013-.402h-1.627v3.605zm0 5.425h1.855q3.097 0 3.097-2.205 0-1.995-3.097-1.995h-1.855v4.2zM27.519 81.665q-2.188 0-3.605-1.593-1.4-1.61-1.4-4.357 0-2.73 1.435-4.34 1.435-1.61 3.71-1.61 1.872 0 3.132 1.4l-.822.927q-.998-1.05-2.31-1.05-1.663 0-2.66 1.26-.98 1.243-.98 3.378 0 2.152.98 3.43.997 1.277 2.66 1.277 1.452 0 2.59-1.277l.822.892q-1.435 1.663-3.552 1.663zM33.392 81.455v-11.48h2.835q2.572 0 3.937 1.487 1.383 1.47 1.383 4.2 0 2.748-1.365 4.27-1.365 1.523-3.885 1.523h-2.905zm1.452-1.19h1.278q1.942 0 2.922-1.19.998-1.208.998-3.413 0-2.187-.998-3.342-.98-1.155-2.922-1.155h-1.278v9.1zM44.357 81.455v-11.48h7.105V71.2h-5.635v3.605h4.76v1.242h-4.76v4.165h5.81v1.243h-7.28zM55.183 81.455v-11.48h7.053V71.2h-5.583v3.885h4.725v1.225h-4.725v5.145h-1.47zM69.246 81.665q-2.205 0-3.587-1.593-1.383-1.592-1.383-4.357 0-2.748 1.4-4.34 1.418-1.61 3.693-1.61 1.837 0 3.167 1.4l-.822.927q-.98-1.05-2.345-1.05-1.628 0-2.608 1.26-.962 1.243-.962 3.378 0 2.187.927 3.447.928 1.26 2.608 1.26 1.277 0 1.995-.682v-2.993h-2.293v-1.207h3.64v4.83q-1.295 1.33-3.43 1.33zM75.224 81.455v-11.48h1.47v4.812h4.795v-4.812h1.47v11.48h-1.47v-5.408h-4.795v5.408h-1.47zM85.998 81.455v-1.243h2.852V71.2h-2.852v-1.225h7.175V71.2H90.32v9.012h2.853v1.243h-7.175zM99.658 81.665q-1.015 0-1.942-.473-.91-.49-1.47-1.435l.91-.892q.962 1.522 2.467 1.522 1.243 0 1.803-.647.577-.665.577-2.083v-6.475h-4.812v-1.225h6.265v7.823q0 1.75-.893 2.817-.892 1.068-2.905 1.068zM107.036 81.455v-11.48h1.47v5.757h.053l4.83-5.757h1.662l-3.64 4.357 4.06 7.123h-1.645l-3.342-6.02-1.978 2.362v3.658h-1.47zM118.16 81.455v-11.48h1.435v10.237h5.687v1.243h-7.122zM127.568 81.455v-11.48h1.785l1.61 4.9.56 1.855h.07l.542-1.855 1.628-4.9h1.785v11.48h-1.4v-5.74q0-.63.245-4.06h-.053l-.647 2.24-1.645 4.515h-1.05l-1.61-4.515-.665-2.24h-.035q.245 2.292.245 4.06v5.74h-1.365zM138.236 81.455v-11.48h1.61l3.675 7.21 1.102 2.38h.035q-.017-.228-.105-1.575-.087-1.348-.087-2.065v-5.95h1.4v11.48h-1.61l-3.675-7.21-1.103-2.38h-.035q.018.315.105 1.61.088 1.277.088 1.977v6.003h-1.4zM155.73 80.055q-1.208 1.61-3.186 1.61-1.977 0-3.202-1.61-1.208-1.61-1.208-4.393 0-2.747 1.208-4.322 1.225-1.575 3.202-1.575 1.978 0 3.185 1.575 1.225 1.575 1.225 4.322 0 2.783-1.225 4.393zm-5.303-.928q.787 1.26 2.117 1.26t2.118-1.26q.787-1.277.787-3.465 0-2.152-.787-3.377-.788-1.243-2.118-1.243-1.33 0-2.117 1.243-.788 1.225-.788 3.377 0 2.188.788 3.465zM159.572 81.455v-11.48h3.465q4.253 0 4.253 3.377 0 1.75-1.155 2.66-1.138.893-3.098.893h-2.012v4.55h-1.453zm1.453-5.74h1.837q1.523 0 2.24-.56.718-.578.718-1.803 0-1.207-.718-1.697-.7-.508-2.24-.508h-1.837v4.568zM171.413 79.197q.787 1.26 2.117 1.26t2.118-1.26q.787-1.277.787-3.535 0-2.152-.787-3.377-.788-1.243-2.118-1.243-1.33 0-2.117 1.243-.788 1.225-.788 3.377 0 2.258.788 3.535zm5.285 5.11q-1.453 0-2.45-.735-.98-.735-1.418-1.96-1.697-.297-2.712-1.855-.998-1.575-.998-4.095 0-2.747 1.208-4.322 1.225-1.575 3.202-1.575 1.978 0 3.185 1.575 1.225 1.575 1.225 4.322 0 2.468-.98 4.025-.962 1.558-2.59 1.89.595 1.488 2.485 1.488.438 0 .858-.175l.28 1.172q-.683.245-1.295.245zM180.524 81.455v-11.48h3.57q4.007 0 4.007 3.22 0 1.295-.682 2.117-.683.823-1.89 1.138l2.922 5.005h-1.662l-2.765-4.848h-2.048v4.848h-1.452zm1.452-6.038h1.908q2.765 0 2.765-2.222 0-1.103-.7-1.575-.683-.473-2.065-.473h-1.908v4.27zM194.604 81.665q-2.467 0-4.165-1.698l.875-1.015q1.435 1.435 3.36 1.435 1.155 0 1.82-.49.683-.507.683-1.33 0-.437-.14-.752-.123-.315-.49-.56-.35-.263-.595-.385-.228-.123-.84-.385l-1.645-.718q-2.485-.98-2.485-2.957 0-1.313 1.067-2.17 1.068-.875 2.695-.875 2.118 0 3.535 1.417l-.77.945q-1.225-1.085-2.817-1.085-.998 0-1.61.455-.613.455-.613 1.225 0 .385.158.7.157.298.525.543.385.227.595.332.227.105.77.333l1.61.7q1.207.49 1.872 1.19t.665 1.872q0 1.4-1.12 2.345-1.102.928-2.94.928zM204.275 81.455V71.2h-3.78v-1.225h9.03V71.2h-3.78v10.255h-1.47zM215.52 81.665q-1.802 0-2.852-1.103-1.032-1.102-1.032-3.447v-7.14h1.47v7.175q0 3.237 2.415 3.237 1.12 0 1.767-.77.665-.77.665-2.467v-7.175h1.418v7.14q0 2.362-1.033 3.465-1.032 1.085-2.817 1.085zM225.156 81.455l-3.657-11.48h1.54l1.855 6.195q.122.437.49 1.732.367 1.295.612 2.065h.07q.333-1.067 1.103-3.797l1.837-6.195h1.488l-3.64 11.48h-1.698zM233.164 81.455l-1.75-11.498h1.645l.84 7.21q.175 1.663.228 2.66h.052q.245-1.365.56-2.642l1.12-4.27h1.4l1.085 4.27q.245.962.56 2.642h.07q.105-1.68.21-2.642l.805-7.228h1.575l-1.68 11.498h-1.82l-1.12-4.62q-.28-1.103-.42-2.065h-.052q-.263 1.522-.403 2.065l-1.12 4.62h-1.785zM242.678 81.455l3.43-5.933-3.203-5.547h1.61l1.61 2.94q.35.63.928 1.662h.07q.507-1.067.822-1.662l1.575-2.94h1.54l-3.202 5.617 3.43 5.863h-1.61l-1.733-3.098q-.192-.35-1.015-1.837h-.07q-.402.857-.927 1.837l-1.715 3.098h-1.54zM256.74 81.455V77.36l-3.85-7.385h1.54l1.733 3.412q.193.368.613 1.278.437.892.7 1.4h.07q.227-.473.682-1.365.455-.893.665-1.33l1.663-3.395h1.505l-3.85 7.385v4.095h-1.47zM263.856 81.455v-.875l6.405-9.398h-5.845v-1.225h7.648v.875l-6.423 9.38h6.51v1.243h-8.295zM8.615 102.332Q7.39 103.54 5.64 103.54t-2.975-1.208q-1.225-1.207-1.225-3.237 0-2.065 1.207-3.273 1.225-1.207 2.993-1.207 1.767 0 2.975 1.207Q9.84 97.03 9.84 99.095q0 2.03-1.225 3.237zm-4.953-.875q.753.893 1.978.893t1.96-.893q.752-.91.752-2.362 0-1.47-.752-2.38-.735-.91-1.96-.91t-1.978.91q-.735.91-.735 2.38 0 1.452.735 2.362zM19.318 101.93q-1.208 1.61-3.185 1.61-1.978 0-3.203-1.61-1.207-1.61-1.207-4.393 0-2.747 1.207-4.322 1.225-1.575 3.203-1.575 1.977 0 3.185 1.575 1.225 1.575 1.225 4.322 0 2.783-1.225 4.393zm-5.303-.928q.788 1.26 2.118 1.26 1.33 0 2.117-1.26.788-1.277.788-3.465 0-2.152-.788-3.377-.787-1.243-2.117-1.243t-2.118 1.243q-.787 1.225-.787 3.377 0 2.188.787 3.465zM29.566 102.017q-1.067 1.523-2.94 1.523-1.872 0-2.94-1.523-1.067-1.54-1.067-4.305 0-2.782 1.05-4.27 1.067-1.487 2.957-1.487t2.94 1.487q1.068 1.488 1.068 4.27 0 2.765-1.068 4.305zm-4.882-.805q.717 1.173 1.942 1.173t1.943-1.173q.717-1.172.717-3.5 0-2.327-.717-3.465-.718-1.137-1.943-1.137t-1.942 1.137q-.718 1.138-.718 3.465 0 2.328.718 3.5zm2.712-2.765q-.315.315-.77.315t-.77-.315q-.315-.332-.315-.857 0-.525.315-.84.315-.315.77-.315t.77.315q.315.315.315.84 0 .525-.315.857zM40.077 102.7q-1.068.84-2.923.84t-2.975-.858q-1.12-.857-1.12-2.205 0-1.855 2.398-2.975v-.07q-1.698-1.05-1.698-2.607 0-1.278.963-2.065.98-.805 2.485-.805 1.61 0 2.537.822.928.823.928 2.153 0 1.47-1.698 2.66v.07q1.068.542 1.628 1.172.56.63.56 1.733 0 1.295-1.085 2.135zm-2.048-5.46q1.4-1.015 1.4-2.24 0-.858-.595-1.418-.595-.56-1.662-.56-.928 0-1.523.508-.577.49-.577 1.295 0 .91.735 1.435.752.507 2.222.98zm-.84 5.232q1.225 0 1.908-.525.682-.542.682-1.435 0-.525-.227-.892-.21-.385-.665-.648-.438-.28-.945-.472-.49-.21-1.225-.455-.28-.088-.438-.14-1.907 1.05-1.907 2.432 0 .945.77 1.54.77.595 2.047.595zM58.386 103.33v-7.333H54.43v-1.172h5.39v8.505h-1.435zm1.382-10.588q-.332.298-.822.298-.49 0-.823-.298-.332-.315-.332-.822 0-.49.332-.805.333-.315.823-.315.49 0 .822.315.333.315.333.805 0 .507-.333.822zM65.011 103.33v-1.243h2.853v-9.012H65.01V91.85h7.175v1.225h-2.852v9.012h2.852v1.243h-7.175zM80.964 103.54q-1.365 0-2.082-.77-.718-.788-.718-2.293v-8.435h-3.027V90.87h4.462v9.712q0 1.768 1.68 1.768.753 0 1.593-.385l.367 1.067q-1.207.508-2.275.508zM86.68 103.33V91.85h1.435v10.237h5.688v1.243H86.68zM96.526 103.33v-1.19h3.22v-8.225h-2.503v-.928q1.785-.245 2.87-.822h1.068v9.975h2.922v1.19h-7.577zM123.532 105.99q-1.715 0-2.485-.508-.752-.507-.752-1.82 0-.647.07-1.715.087-1.085.087-1.662 0-1.348-2.537-1.365v-.91q2.537-.018 2.537-1.365 0-.543-.087-1.645-.07-1.12-.07-1.733 0-1.312.752-1.82.77-.507 2.485-.507h1.068v.822h-.91q-1.295 0-1.733.35-.437.35-.437 1.243 0 .49.052 1.557.053 1.05.053 1.61 0 .875-.35 1.313-.35.437-1.243.595v.07q.893.157 1.243.595.35.437.35 1.312 0 .613-.053 1.628-.052 1.015-.052 1.54 0 .892.437 1.242.438.35 1.733.35h.91v.823h-1.068zM128.04 105.99v-.823h.893q1.295 0 1.732-.35.455-.35.455-1.242 0-.525-.052-1.54-.053-1.015-.053-1.628 0-.875.333-1.312.35-.438 1.242-.595v-.07q-.892-.158-1.242-.595-.333-.438-.333-1.313 0-.56.053-1.61.052-1.067.052-1.557 0-.893-.455-1.243-.437-.35-1.732-.35h-.893v-.822h1.068q1.697 0 2.45.507.77.508.77 1.82 0 .613-.088 1.733-.07 1.102-.07 1.645 0 1.347 2.538 1.365v.91q-2.538.017-2.538 1.365 0 .577.07 1.662.088 1.068.088 1.715 0 1.313-.77 1.82-.753.508-2.45.508h-1.068zM151.232 105.99V90.94h4.847v.822h-3.692v13.405h3.692v.823h-4.847zM159.502 105.99v-.823h3.693V91.762h-3.693v-.822h4.848v15.05h-4.848zM183.954 107.25q-1.873 0-2.905-.63-1.015-.613-1.015-1.733 0-1.085 1.4-1.89v-.07q-.875-.472-.875-1.4 0-.91 1.015-1.592v-.07q-1.05-.788-1.05-2.205 0-1.348.962-2.188.98-.857 2.38-.857.718 0 1.26.21h3.518v1.172h-2.205q.717.753.717 1.715 0 1.33-.945 2.135-.927.788-2.345.788-.717 0-1.435-.315-.665.42-.665.98 0 .98 1.768.98h1.907q1.663 0 2.45.472.788.455.788 1.523 0 1.242-1.313 2.1-1.312.875-3.412.875zm-.088-7.578q.84 0 1.4-.56.56-.56.56-1.452 0-.875-.577-1.435-.56-.56-1.383-.56-.822 0-1.4.56-.56.56-.56 1.435 0 .892.56 1.452.578.56 1.4.56zm.193 6.528q1.435 0 2.31-.508.892-.507.892-1.19 0-.577-.472-.805-.455-.227-1.47-.227h-1.663q-.805 0-1.295-.14-1.085.595-1.085 1.417 0 .683.718 1.068.717.385 2.065.385zM194.184 97.905q1.558 0 2.853-1.488-.175-1.627-.91-2.467-.718-.858-1.96-.858-1.015 0-1.698.683-.665.682-.665 1.767 0 1.138.595 1.75.613.613 1.785.613zm-.42 5.635q-1.82 0-3.115-1.173l.805-.91q.928.893 2.223.893 1.47 0 2.397-1.138.945-1.155.998-3.657-1.47 1.435-3.168 1.435-1.592 0-2.537-.875-.928-.893-.928-2.573 0-1.557 1.085-2.572 1.103-1.015 2.625-1.015 1.908 0 3.098 1.4 1.19 1.382 1.19 3.972 0 3.15-1.348 4.69-1.33 1.523-3.325 1.523zM207.197 106.917v-3.097l.07-1.575h-.052q-1.26 1.295-2.73 1.295-1.68 0-2.678-1.173-.997-1.172-.997-3.272 0-1.995 1.137-3.238 1.155-1.242 2.73-1.242 1.383 0 2.625 1.155h.053l.122-.945h1.155v12.092h-1.435zm-2.397-4.585q1.26 0 2.397-1.277V96.82q-1.067-.998-2.24-.998-1.12 0-1.89.91-.77.91-.77 2.345 0 1.523.665 2.398.665.857 1.838.857zM216.396 103.54q-2.188 0-3.605-1.593-1.4-1.61-1.4-4.357 0-2.73 1.435-4.34 1.435-1.61 3.71-1.61 1.872 0 3.132 1.4l-.822.927q-.998-1.05-2.31-1.05-1.663 0-2.66 1.26-.98 1.243-.98 3.378 0 2.152.98 3.43.997 1.277 2.66 1.277 1.452 0 2.59-1.277l.822.892q-1.435 1.663-3.552 1.663zM226.644 103.54q-2.205 0-3.588-1.593-1.382-1.592-1.382-4.357 0-2.748 1.4-4.34 1.417-1.61 3.692-1.61 1.838 0 3.168 1.4l-.823.927q-.98-1.05-2.345-1.05-1.627 0-2.607 1.26-.963 1.243-.963 3.378 0 2.187.928 3.447.927 1.26 2.607 1.26 1.278 0 1.995-.682v-2.993h-2.292V97.38h3.64v4.83q-1.295 1.33-3.43 1.33zM234.372 101.072q.787 1.26 2.117 1.26t2.118-1.26q.787-1.277.787-3.535 0-2.152-.787-3.377-.788-1.243-2.118-1.243-1.33 0-2.117 1.243-.788 1.225-.788 3.377 0 2.258.788 3.535zm5.285 5.11q-1.453 0-2.45-.735-.98-.735-1.418-1.96-1.697-.297-2.712-1.855-.998-1.575-.998-4.095 0-2.747 1.208-4.322 1.225-1.575 3.202-1.575 1.978 0 3.185 1.575 1.225 1.575 1.225 4.322 0 2.468-.98 4.025-.962 1.558-2.59 1.89.595 1.488 2.485 1.488.438 0 .858-.175l.28 1.172q-.683.245-1.295.245zM259.016 98.832q-.595 0-1.155-.367-.56-.368-1.068-.735-.49-.368-.892-.368-.455 0-.805.333-.333.315-.613 1.172l-.927-.402q.822-2.188 2.38-2.188.595 0 1.155.368.56.367 1.05.735.507.367.91.367.455 0 .787-.315.35-.332.63-1.19l.928.42q-.823 2.17-2.38 2.17zM264.206 98.097v-1.085h7.525v1.085h-7.525zM277.885 101.51v-3.413H274.7v-1.085h3.185V93.6h1.155v3.412h3.185v1.085h-3.185v3.413h-1.155zM296.07 92.55l7.35 4.97-7.35 4.97v-1.383l1.716-1.155h-12.6v-1.067h14.192l1.995-1.348-1.925-1.312h-14.262V95.14h12.652l-1.767-1.208V92.55z"/></g></g></svg>