<?xml version="1.0" encoding="UTF-8" standalone="no"?>
<svg
   version="1.1"
   id="svg2"
   viewBox="0 0 264.28467 102.52197"
   height="28.933977mm"
   width="74.587006mm"
   sodipodi:docname="HeavyData Nerd Font.svg"
   xmlns:inkscape="http://www.inkscape.org/namespaces/inkscape"
   xmlns:sodipodi="http://sodipodi.sourceforge.net/DTD/sodipodi-0.dtd"
   xmlns="http://www.w3.org/2000/svg"
   xmlns:svg="http://www.w3.org/2000/svg"
   xmlns:rdf="http://www.w3.org/1999/02/22-rdf-syntax-ns#"
   xmlns:cc="http://creativecommons.org/ns#"
   xmlns:dc="http://purl.org/dc/elements/1.1/">
  <sodipodi:namedview
     id="namedview12"
     pagecolor="#ffffff"
     bordercolor="#666666"
     borderopacity="1.0"
     inkscape:showpageshadow="2"
     inkscape:pageopacity="0.0"
     inkscape:pagecheckerboard="0"
     inkscape:deskcolor="#d1d1d1"
     inkscape:document-units="mm" />
  <defs
     id="defs4" />
  <metadata
     id="metadata7">
    <rdf:RDF>
      <cc:Work
         rdf:about="">
        <dc:format>image/svg+xml</dc:format>
        <dc:type
           rdf:resource="http://purl.org/dc/dcmitype/StillImage" />
        <dc:title />
      </cc:Work>
    </rdf:RDF>
  </metadata>
  <g
     id="layer1"
     transform="translate(-64.199917,-84.699501)">
    <g
       aria-label="HeavyData Nerd Font"
       id="text4136"
       style="font-size:27.5px;font-family:'HeavyData Nerd Font';letter-spacing:0px;word-spacing:0px;fill:#ffffff">
      <path
         d="M 70.967495,86.163124 Q 70.967495,84.847206 72.229702,84.847206 H 74.955532 Q 76.27145,84.847206 76.27145,86.216835 L 76.258022,99.564003 Q 76.258022,100.94706 74.915249,100.94706 73.612759,100.93363 73.626186,99.550575 L 73.639614,94.24662 69.571011,94.233192 V 99.590858 Q 69.571011,100.9202 68.228237,100.9202 L 65.54269,100.93363 Q 64.199917,100.93363 64.199917,99.604286 V 86.176552 Q 64.199917,84.833778 65.54269,84.833778 66.885464,84.833778 66.885464,86.163124 V 91.534218 H 70.967495 Z"
         id="path14" />
      <path
         d="M 89.658901,91.440224 Q 91.001675,91.440224 91.001675,92.82328 91.001675,94.166054 89.658901,94.166054 H 81.642544 V 98.288368 L 89.672329,98.315224 Q 91.041958,98.288368 91.02853,99.604286 91.055386,100.93363 89.712612,100.93363 H 80.29977 Q 78.956997,100.93363 78.956997,99.590858 L 78.970425,92.809853 Q 78.956997,91.467079 80.29977,91.453651 L 80.313198,86.122841 Q 80.313198,84.780067 81.655972,84.780067 L 89.699184,84.76664 Q 91.041958,84.76664 91.041958,86.176552 91.041958,87.452187 89.699184,87.452187 H 85.684292 V 91.426796 Z"
         id="path16" />
      <path
         d="M 93.378384,100.87992 Q 92.720425,100.87992 92.720425,100.20853 92.720425,99.980263 92.800991,99.832558 L 92.787563,99.81913 95.540249,88.311562 95.996792,86.391396 96.131069,85.840858 Q 96.386196,84.793495 97.326138,84.793495 97.433559,84.793495 97.554409,84.806923 V 84.793495 H 101.95871 V 84.806923 Q 102.07956,84.793495 102.18698,84.793495 103.12692,84.793495 103.38205,85.840858 L 103.51632,86.391396 106.81955,99.805702 Q 106.85983,99.966835 106.85983,100.24882 106.85983,100.9202 106.18844,100.9202 H 102.67038 Q 102.54953,100.93363 102.4421,100.93363 101.50216,100.93363 101.24704,99.886269 L 98.413784,88.311562 H 98.400356 L 95.687954,99.859413 Q 95.432827,100.90678 94.492886,100.90678 Z M 99.823696,99.590858 Q 99.716274,100.9202 98.480923,100.93363 97.138149,100.93363 97.138149,99.617714 L 97.124722,96.891884 Q 97.124722,95.54911 98.467495,95.54911 99.702847,95.562538 99.810268,96.905312 Z"
         id="path18" />
      <path
         d="M 120.98581,84.847206 Q 121.64376,84.847206 121.64376,85.518593 121.64376,85.746864 121.5632,85.894569 L 121.57663,85.907997 118.82394,97.415565 118.3674,99.335732 118.23312,99.886269 Q 117.97799,100.93363 117.03805,100.93363 116.93063,100.93363 116.80978,100.9202 V 100.93363 H 112.40548 V 100.9202 Q 112.28463,100.93363 112.17721,100.93363 111.23727,100.93363 110.98214,99.886269 L 110.84787,99.335732 107.54464,85.921425 Q 107.50436,85.760292 107.50436,85.47831 107.50436,84.806923 108.17575,84.806923 H 111.69381 Q 111.81466,84.793495 111.92208,84.793495 112.86203,84.793495 113.11715,85.840858 L 115.95041,97.415565 H 115.96383 L 118.67624,85.867714 Q 118.93136,84.820351 119.8713,84.820351 Z"
         id="path20" />
      <path
         d="M 126.61203,94.018349 122.83883,86.874794 Q 122.6777,86.48539 122.6777,86.163124 122.6777,85.438026 123.49679,85.008339 123.89962,84.793495 124.24874,84.793495 L 126.39718,84.753212 Q 127.04171,84.753212 127.45797,85.532021 L 130.17038,90.970253 133.12448,85.464882 Q 133.54074,84.699501 134.1987,84.699501 134.53439,84.699501 134.93722,84.900917 135.75631,85.330605 135.75631,86.055702 135.75631,86.377968 135.59518,86.767372 L 131.99655,93.843788 131.98312,99.604286 Q 131.8757,100.93363 130.70749,100.94706 H 127.9548 Q 126.61203,100.94706 126.61203,99.617714 Z"
         id="path22" />
      <path
         d="M 142.76559,87.465614 140.738,87.479042 140.76486,98.234657 H 142.87301 L 145.55856,92.930702 Z M 143.75924,100.93363 H 139.3818 Q 138.03903,100.93363 138.03903,99.604286 V 86.122841 Q 138.03903,84.780067 139.3818,84.780067 L 144.72604,84.76664 V 84.793495 H 145.94796 Q 146.59249,84.793495 147.00875,85.572304 L 150.11056,91.507362 Q 150.45968,92.192177 150.45968,92.863564 150.45968,93.561806 150.09713,94.24662 L 147.08932,100.19511 Q 146.67306,100.94706 146.0151,100.94706 H 143.9338 Q 143.85324,100.94706 143.75924,100.93363 Z"
         id="path24" />
      <path
         d="M 152.46041,100.87992 Q 151.80246,100.87992 151.80246,100.20853 151.80246,99.980263 151.88302,99.832558 L 151.86959,99.81913 154.62228,88.311562 155.07882,86.391396 155.2131,85.840858 Q 155.46823,84.793495 156.40817,84.793495 156.51559,84.793495 156.63644,84.806923 V 84.793495 H 161.04074 V 84.806923 Q 161.16159,84.793495 161.26901,84.793495 162.20895,84.793495 162.46408,85.840858 L 162.59835,86.391396 165.90158,99.805702 Q 165.94186,99.966835 165.94186,100.24882 165.94186,100.9202 165.27047,100.9202 H 161.75241 Q 161.63156,100.93363 161.52414,100.93363 160.58419,100.93363 160.32907,99.886269 L 157.49582,88.311562 H 157.48239 L 154.76999,99.859413 Q 154.51486,100.90678 153.57492,100.90678 Z M 158.90573,99.590858 Q 158.79831,100.9202 157.56295,100.93363 156.22018,100.93363 156.22018,99.617714 L 156.20675,96.891884 Q 156.20675,95.54911 157.54953,95.54911 158.78488,95.562538 158.8923,96.905312 Z"
         id="path26" />
      <path
         d="M 174.34762,99.590858 Q 174.2402,100.93363 172.89743,100.93363 171.55465,100.93363 171.55465,99.590858 L 171.56808,90.084023 H 168.27829 Q 166.90866,90.084023 166.90866,88.848671 V 86.001991 Q 166.90866,84.712929 168.22458,84.712929 H 177.65084 Q 178.99362,84.712929 178.99362,86.028847 V 86.230263 Q 178.99362,87.438759 177.63742,87.438759 H 174.34762 Z"
         id="path28" />
      <path
         d="M 180.65866,100.87992 Q 180.0007,100.87992 180.0007,100.20853 180.0007,99.980263 180.08126,99.832558 L 180.06784,99.81913 182.82052,88.311562 183.27707,86.391396 183.41134,85.840858 Q 183.66647,84.793495 184.60641,84.793495 184.71383,84.793495 184.83468,84.806923 V 84.793495 H 189.23898 V 84.806923 Q 189.35983,84.793495 189.46725,84.793495 190.40719,84.793495 190.66232,85.840858 L 190.7966,86.391396 194.09982,99.805702 Q 194.1401,99.966835 194.1401,100.24882 194.1401,100.9202 193.46872,100.9202 H 189.95065 Q 189.8298,100.93363 189.72238,100.93363 188.78244,100.93363 188.52731,99.886269 L 185.69406,88.311562 H 185.68063 L 182.96823,99.859413 Q 182.7131,100.90678 181.77316,100.90678 Z M 187.10397,99.590858 Q 186.99655,100.9202 185.7612,100.93363 184.41842,100.93363 184.41842,99.617714 L 184.40499,96.891884 Q 184.40499,95.54911 185.74777,95.54911 186.98312,95.562538 187.09054,96.905312 Z"
         id="path30" />
      <path
         d="M 206.10421,88.311562 V 99.69828 Q 206.09079,100.93363 204.74801,100.93363 203.40524,100.93363 203.40524,99.617714 V 86.055702 Q 203.40524,84.793495 204.76144,84.753212 L 206.72189,84.76664 Q 207.48727,84.76664 207.97067,85.612587 L 211.47531,94.891151 V 86.06913 Q 211.58273,84.726357 212.76437,84.712929 H 215.50363 Q 216.8464,84.712929 216.8464,86.055702 L 216.83297,99.644569 Q 216.83297,100.93363 215.51706,100.93363 H 211.89157 Q 210.79049,100.93363 210.4548,100.06083 Z"
         id="path32" />
      <path
         d="M 230.23385,91.440224 Q 231.57663,91.440224 231.57663,92.82328 231.57663,94.166054 230.23385,94.166054 H 222.21749 V 98.288368 L 230.24728,98.315224 Q 231.61691,98.288368 231.60348,99.604286 231.63034,100.93363 230.28756,100.93363 H 220.87472 Q 219.53195,100.93363 219.53195,99.590858 L 219.54538,92.809853 Q 219.53195,91.467079 220.87472,91.453651 L 220.88815,86.122841 Q 220.88815,84.780067 222.23092,84.780067 L 230.27414,84.76664 Q 231.61691,84.76664 231.61691,86.176552 231.61691,87.452187 230.27414,87.452187 H 226.25924 V 91.426796 Z"
         id="path34" />
      <path
         d="M 241.01632,87.398476 236.97458,87.425331 V 91.534218 H 241.0029 Z M 240.60006,94.24662 239.66012,94.233192 239.70041,99.537148 Q 239.70041,100.93363 238.35763,100.93363 H 235.6318 Q 234.28903,100.93363 234.28903,99.604286 V 86.122841 Q 234.28903,84.780067 235.6318,84.780067 L 245.04464,84.76664 Q 246.36056,84.76664 246.36056,86.136269 L 246.33371,92.890419 Q 246.33371,94.273476 244.99093,94.273476 L 243.74215,94.260048 246.17257,98.973183 Q 246.70968,100.22196 245.51461,100.83964 244.33297,101.45731 243.70187,100.27567 Z"
         id="path36" />
      <path
         d="M 253.77267,87.465614 251.74508,87.479042 251.77194,98.234657 H 253.88009 L 256.56564,92.930702 Z M 254.76632,100.93363 H 250.38888 Q 249.04611,100.93363 249.04611,99.604286 V 86.122841 Q 249.04611,84.780067 250.38888,84.780067 L 255.73312,84.76664 V 84.793495 H 256.95504 Q 257.59958,84.793495 258.01583,85.572304 L 261.11764,91.507362 Q 261.46676,92.192177 261.46676,92.863564 261.46676,93.561806 261.10421,94.24662 L 258.0964,100.19511 Q 257.68014,100.94706 257.02218,100.94706 H 254.94088 Q 254.86032,100.94706 254.76632,100.93363 Z"
         id="path38" />
      <path
         d="M 276.81466,94.233192 276.85495,99.537148 Q 276.85495,100.93363 275.51217,100.93363 H 272.78634 Q 271.44357,100.93363 271.44357,99.604286 V 86.122841 Q 271.44357,84.780067 272.78634,84.780067 L 282.19918,84.76664 Q 283.5151,84.76664 283.5151,86.055702 V 86.136269 Q 283.5151,87.425331 282.1589,87.398476 L 274.12912,87.425331 V 91.534218 H 282.14547 Q 283.48825,91.534218 283.48825,92.876991 283.48825,94.273476 282.14547,94.273476 Z"
         id="path40" />
      <path
         d="M 288.98019,90.164589 V 98.248085 H 295.60006 V 90.178017 Z M 296.94284,84.726357 Q 298.28561,84.726357 298.28561,86.06913 V 99.617714 Q 298.28561,100.93363 296.94284,100.93363 H 287.51657 Q 286.18722,100.93363 286.20065,99.617714 L 286.18722,86.055702 Q 286.18722,84.712929 287.52999,84.712929 Z"
         id="path42" />
      <path
         d="M 303.64328,88.311562 V 99.69828 Q 303.62985,100.93363 302.28708,100.93363 300.9443,100.93363 300.9443,99.617714 V 86.055702 Q 300.9443,84.793495 302.3005,84.753212 L 304.26095,84.76664 Q 305.02633,84.76664 305.50973,85.612587 L 309.01437,94.891151 V 86.06913 Q 309.12179,84.726357 310.30343,84.712929 H 313.04269 Q 314.38546,84.712929 314.38546,86.055702 L 314.37204,99.644569 Q 314.37204,100.93363 313.05612,100.93363 H 309.43063 Q 308.32956,100.93363 307.99386,100.06083 Z"
         id="path44" />
      <path
         d="M 323.83859,99.590858 Q 323.73117,100.93363 322.38839,100.93363 321.04562,100.93363 321.04562,99.590858 L 321.05905,90.084023 H 317.76925 Q 316.39962,90.084023 316.39962,88.848671 V 86.001991 Q 316.39962,84.712929 317.71554,84.712929 H 327.14181 Q 328.48458,84.712929 328.48458,86.028847 V 86.230263 Q 328.48458,87.438759 327.12838,87.438759 H 323.83859 Z"
         id="path46" />
    </g>
    <g
       aria-label="abcdefghijklmnopqrstuvwxyzABCDEFGHIJKLMNOPQRSTUVWXYZ oO08 iIlL1 {} [] g9qCGQ ~-+=&gt;"
       id="text4140"
       style="font-size:17.5px;font-family:'HeavyData Nerd Font';letter-spacing:0px;word-spacing:0px;fill:#ffffff">
      <path
         d="M 66.060272,140.89944 Q 65.641571,140.89944 65.641571,140.4722 65.641571,140.32693 65.692841,140.23294 L 65.684296,140.2244 67.436005,132.9014 67.726532,131.67947 67.811981,131.32913 Q 67.974335,130.66263 68.572479,130.66263 68.640839,130.66263 68.717743,130.67117 V 130.66263 H 71.520477 V 130.67117 Q 71.597382,130.66263 71.665741,130.66263 72.263885,130.66263 72.426239,131.32913 L 72.511688,131.67947 74.613739,140.21585 Q 74.639374,140.31839 74.639374,140.49783 74.639374,140.92508 74.212128,140.92508 H 71.973358 Q 71.896454,140.93362 71.828094,140.93362 71.22995,140.93362 71.067596,140.26712 L 69.264618,132.9014 H 69.256073 L 67.529999,140.25003 Q 67.367645,140.91653 66.769501,140.91653 Z M 70.161835,140.07913 Q 70.093475,140.92508 69.307343,140.93362 68.45285,140.93362 68.45285,140.09622 L 68.444305,138.3616 Q 68.444305,137.50711 69.298798,137.50711 70.08493,137.51566 70.15329,138.37015 Z"
         id="path49" />
      <path
         d="M 79.954315,132.3887 77.390839,132.38016 V 134.95218 H 79.954315 Z M 81.509491,134.97781 82.534882,134.96927 Q 83.372284,134.96927 83.372284,135.84085 L 83.355194,140.06204 Q 83.355194,140.94217 82.500702,140.94217 L 78.407684,140.92508 Q 78.339325,140.93362 78.270966,140.93362 H 76.536346 Q 75.681854,140.93362 75.681854,140.08768 V 131.54276 Q 75.681854,130.68826 76.536346,130.68826 L 80.672089,130.69681 Q 81.509491,130.69681 81.509491,131.56839 Z M 79.099823,136.66971 V 139.23318 H 81.671844 L 81.688934,136.67825 Z"
         id="path51" />
      <path
         d="M 91.908661,140.07913 Q 91.840302,140.93362 91.096893,140.93362 H 85.918671 Q 85.064178,140.93362 85.064178,140.07913 L 85.072723,131.43167 Q 85.072723,130.61136 85.910126,130.61136 H 91.908661 Q 92.763153,130.61136 92.763153,131.44876 V 133.18338 Q 92.763153,133.99515 91.908661,134.01224 91.045624,134.00369 91.045624,133.20047 V 132.3887 L 88.490692,132.38016 88.499237,139.22464 H 91.037079 Q 91.874481,139.22464 91.908661,140.07913 Z"
         id="path53" />
      <path
         d="M 97.471405,132.36307 96.181122,132.37161 96.198212,139.21609 H 97.539764 L 99.248749,135.84085 Z M 98.103729,140.93362 H 95.318085 Q 94.463593,140.93362 94.463593,140.08768 V 131.50858 Q 94.463593,130.65408 95.318085,130.65408 L 98.718964,130.64554 V 130.66263 H 99.496552 Q 99.906708,130.66263 100.1716,131.15823 L 102.14548,134.93509 Q 102.36765,135.37088 102.36765,135.79813 102.36765,136.24246 102.13693,136.67825 L 100.22287,140.46365 Q 99.957977,140.94217 99.539276,140.94217 H 98.214813 Q 98.163544,140.94217 98.103729,140.93362 Z"
         id="path55" />
      <path
         d="M 110.66476,134.89236 Q 111.51926,134.89236 111.51926,135.77249 111.51926,136.62698 110.66476,136.62698 H 105.56345 V 139.25027 L 110.67331,139.26736 Q 111.54489,139.25027 111.53635,140.08768 111.55344,140.93362 110.69894,140.93362 H 104.70895 Q 103.85446,140.93362 103.85446,140.07913 L 103.86301,135.76395 Q 103.85446,134.90945 104.70895,134.90091 L 104.7175,131.50858 Q 104.7175,130.65408 105.57199,130.65408 L 110.6904,130.64554 Q 111.54489,130.64554 111.54489,131.54276 111.54489,132.35452 110.6904,132.35452 H 108.13547 V 134.88382 Z"
         id="path57" />
      <path
         d="M 116.6633,136.66971 116.68893,140.04495 Q 116.68893,140.93362 115.83444,140.93362 H 114.09982 Q 113.24533,140.93362 113.24533,140.08768 V 131.50858 Q 113.24533,130.65408 114.09982,130.65408 L 120.08981,130.64554 Q 120.92722,130.64554 120.92722,131.46585 V 131.51712 Q 120.92722,132.33743 120.06418,132.32034 L 114.95432,132.33743 V 134.95218 H 120.05563 Q 120.91013,134.95218 120.91013,135.80667 120.91013,136.69534 120.05563,136.69534 Z"
         id="path59" />
      <path
         d="M 128.6091,131.46585 Q 128.57492,132.32034 127.73752,132.32034 H 124.35373 L 124.33664,137.49002 128.61765,137.51566 V 135.80667 L 126.92575,135.78958 Q 126.06271,135.78104 126.06271,134.92654 126.07126,134.06351 126.9343,134.06351 L 128.6091,134.0806 129.47214,134.07205 Q 130.32663,134.08914 130.32663,134.90091 V 140.09622 Q 130.32663,140.93362 129.47214,140.93362 128.6091,140.93362 128.61765,140.04495 V 139.22464 Q 127.76315,140.93362 126.48141,140.93362 H 123.4736 Q 122.6362,140.93362 122.6362,140.11331 L 122.62766,131.46585 Q 122.62766,130.61136 123.48215,130.61136 H 127.79733 Q 128.54074,130.61136 128.6091,131.46585 Z"
         id="path61" />
      <path
         d="M 136.33371,131.53421 Q 136.33371,130.69681 137.13693,130.69681 H 138.87155 Q 139.70895,130.69681 139.70895,131.56839 L 139.70041,140.06204 Q 139.70041,140.94217 138.84592,140.94217 138.01706,140.93362 138.0256,140.0535 L 138.03415,136.67825 135.44504,136.66971 V 140.07913 Q 135.44504,140.92508 134.59055,140.92508 L 132.88156,140.93362 Q 132.02707,140.93362 132.02707,140.08768 V 131.54276 Q 132.02707,130.68826 132.88156,130.68826 133.73605,130.68826 133.73605,131.53421 V 134.95218 H 136.33371 Z"
         id="path63" />
      <path
         d="M 145.69894,140.08768 Q 145.63058,140.93362 144.88718,140.94217 H 143.13547 Q 142.28098,140.94217 142.28098,140.09622 L 142.27243,131.50003 Q 142.27243,130.64554 143.12692,130.64554 H 144.91281 Q 145.65622,130.65408 145.72458,131.50858 Z"
         id="path65" />
      <path
         d="M 149.94577,131.50858 Q 150.04831,130.65408 150.79172,130.64554 L 152.54343,130.61136 Q 153.39792,130.61136 153.39792,131.46585 L 153.38083,138.42996 Q 153.38937,140.93362 150.80026,140.93362 H 148.22824 Q 147.38229,140.93362 147.38229,140.09622 147.37375,139.19046 148.22824,139.17337 H 149.09982 Q 149.97141,139.17337 149.97995,138.39578 Z"
         id="path67" />
      <path
         d="M 159.55881,136.67825 158.48215,136.66971 158.50778,140.04495 Q 158.50778,140.93362 157.65329,140.93362 H 155.91867 Q 155.06418,140.93362 155.06418,140.08768 V 131.50858 Q 155.06418,130.65408 155.91867,130.65408 L 157.65329,130.64554 Q 158.49069,130.64554 158.49069,131.51712 L 158.48215,134.90945 159.61862,134.90091 161.6694,130.97879 Q 161.9343,130.48318 162.34445,130.48318 162.56662,130.48318 162.82297,130.6199 163.34421,130.89334 163.34421,131.35477 163.34421,131.55984 163.24167,131.80765 L 161.15671,135.84085 163.21603,139.8826 Q 163.31857,140.1304 163.31857,140.33548 163.31857,140.79691 162.79733,141.07034 162.54099,141.19852 162.32736,141.19852 161.90866,141.19852 161.64377,140.71146 Z"
         id="path69" />
      <path
         d="M 168.13791,139.17337 170.69284,139.19901 V 138.34451 Q 170.69284,137.54129 171.55588,137.53275 172.41037,137.54984 172.41037,138.3616 V 140.09622 Q 172.41037,140.93362 171.55588,140.93362 H 165.55734 Q 164.71994,140.93362 164.71994,140.11331 L 164.7114,131.46585 Q 164.7114,130.61136 165.56589,130.61136 H 167.3176 Q 168.061,130.6199 168.12936,131.4744 Z"
         id="path71" />
      <path
         d="M 180.74167,138.6265 Q 180.52805,139.18192 179.82736,139.18192 V 139.17337 Q 179.13522,139.17337 178.9216,138.61795 L 177.52023,134.84964 V 140.07059 Q 177.45187,140.92508 176.69992,140.93362 H 174.95676 Q 174.10226,140.93362 174.10226,140.07913 L 174.11081,131.43167 Q 174.11081,130.61136 174.94821,130.61136 H 177.25534 V 130.63699 Q 177.69968,130.67972 177.98166,131.17532 L 179.82736,136.08011 181.68161,131.18387 Q 181.83542,130.74808 182.29684,130.64554 L 182.97189,130.63699 Q 183.83493,130.66263 183.83493,131.46585 V 140.09622 Q 183.83493,140.93362 182.98044,140.93362 182.12595,140.93362 182.1174,140.14749 V 134.92654 Z"
         id="path73" />
      <path
         d="M 187.28708,132.9014 V 140.14749 Q 187.27853,140.93362 186.42404,140.93362 185.56955,140.93362 185.56955,140.09622 V 131.46585 Q 185.56955,130.66263 186.43259,130.63699 L 187.68015,130.64554 Q 188.16721,130.64554 188.47482,131.18387 L 190.70505,137.08841 V 131.4744 Q 190.77341,130.6199 191.52536,130.61136 H 193.26852 Q 194.12302,130.61136 194.12302,131.46585 L 194.11447,140.11331 Q 194.11447,140.93362 193.27707,140.93362 H 190.96994 Q 190.26926,140.93362 190.05563,140.3782 Z"
         id="path75" />
      <path
         d="M 197.6008,134.0806 V 139.22464 H 201.81345 V 134.08914 Z M 202.66794,130.6199 Q 203.52243,130.6199 203.52243,131.4744 V 140.09622 Q 203.52243,140.93362 202.66794,140.93362 H 196.6694 Q 195.82346,140.93362 195.832,140.09622 L 195.82346,131.46585 Q 195.82346,130.61136 196.67795,130.61136 Z"
         id="path77" />
      <path
         d="M 209.51242,132.32889 206.93185,132.33743 V 134.95218 H 209.49533 Z M 212.88766,135.81522 Q 212.88766,136.69534 212.03317,136.69534 L 208.64084,136.66971 208.66647,140.04495 Q 208.66647,140.93362 207.81198,140.93362 H 206.07736 Q 205.22287,140.93362 205.22287,140.08768 V 131.50858 Q 205.22287,130.65408 206.07736,130.65408 L 212.06735,130.64554 Q 212.90475,130.64554 212.90475,131.51712 Z"
         id="path79" />
      <path
         d="M 220.59518,139.20755 V 134.07205 H 216.38254 V 139.21609 Z M 218.70676,140.92508 215.45969,140.93362 Q 214.60519,140.93362 214.60519,140.07913 L 214.61374,131.44876 Q 214.60519,130.61136 215.45114,130.61136 H 221.44968 Q 222.30417,130.61136 222.30417,131.44876 V 140.07059 Q 222.30417,140.92508 221.44968,140.92508 H 220.71481 L 221.33859,142.15555 Q 221.44113,142.40335 221.44113,142.60843 221.44113,143.06985 220.91989,143.34329 220.66354,143.47147 220.44992,143.47147 220.03122,143.47147 219.76633,142.98441 Z"
         id="path81" />
      <path
         d="M 228.28561,132.32034 225.71359,132.33743 V 134.95218 H 228.27707 Z M 228.02072,136.67825 227.42258,136.66971 227.44821,140.04495 Q 227.44821,140.93362 226.59372,140.93362 H 224.8591 Q 224.00461,140.93362 224.00461,140.08768 V 131.50858 Q 224.00461,130.65408 224.8591,130.65408 L 230.84909,130.64554 Q 231.68649,130.64554 231.68649,131.51712 L 231.6694,135.81522 Q 231.6694,136.69534 230.81491,136.69534 L 230.02023,136.6868 231.56686,139.68607 Q 231.90866,140.48074 231.14816,140.87381 230.39621,141.26688 229.9946,140.51492 Z"
         id="path83" />
      <path
         d="M 240.23141,134.0806 Q 241.08591,134.0806 241.08591,134.918 V 140.11331 Q 241.08591,140.9678 240.23141,140.9678 H 235.15573 Q 234.26706,140.95926 234.28415,140.11331 234.29269,139.25882 235.13864,139.25882 H 239.37692 V 137.49857 L 234.23288,137.50711 Q 233.42111,137.50711 233.39548,136.66971 L 233.38693,131.50003 Q 233.38693,130.64554 234.24142,130.64554 L 240.1716,130.65408 Q 241.00046,130.72244 241.03464,131.50858 241.02609,132.36307 240.1716,132.36307 L 235.13864,132.37161 235.16428,134.08914 Z"
         id="path85" />
      <path
         d="M 247.09299,140.07913 Q 247.02463,140.93362 246.17014,140.93362 245.31564,140.93362 245.31564,140.07913 L 245.32419,134.02933 H 243.23068 Q 242.3591,134.02933 242.3591,133.24319 V 131.43167 Q 242.3591,130.61136 243.1965,130.61136 H 249.19504 Q 250.04953,130.61136 250.04953,131.44876 V 131.57693 Q 250.04953,132.34598 249.18649,132.34598 H 247.09299 Z"
         id="path87" />
      <path
         d="M 252.16867,130.61136 Q 253.02316,130.61136 253.09152,131.46585 V 137.51566 H 257.30417 V 131.4744 Q 257.30417,130.6199 258.15866,130.6199 259.01315,130.6199 259.01315,131.4744 V 140.09622 Q 259.01315,140.93362 258.15866,140.93362 H 252.16013 Q 251.31418,140.93362 251.32272,140.09622 L 251.31418,131.46585 Q 251.31418,130.61136 252.16867,130.61136 Z"
         id="path89" />
      <path
         d="M 268.66037,130.69681 Q 269.07907,130.69681 269.07907,131.12405 269.07907,131.26932 269.0278,131.36331 L 269.03635,131.37186 267.28464,138.69485 266.99411,139.91678 266.90866,140.26712 Q 266.74631,140.93362 266.14816,140.93362 266.0798,140.93362 266.0029,140.92508 V 140.93362 H 263.20016 V 140.92508 Q 263.12326,140.93362 263.0549,140.93362 262.45676,140.93362 262.2944,140.26712 L 262.20895,139.91678 260.1069,131.3804 Q 260.08127,131.27786 260.08127,131.09842 260.08127,130.67117 260.50851,130.67117 H 262.74728 Q 262.82419,130.66263 262.89255,130.66263 263.49069,130.66263 263.65305,131.32913 L 265.45602,138.69485 H 265.46457 L 267.19064,131.34622 Q 267.353,130.67972 267.95114,130.67972 Z"
         id="path91" />
      <path
         d="M 276.44479,135.85794 275.7612,138.69485 275.47067,139.91678 275.38522,140.26712 Q 275.25705,140.78836 274.86398,140.89944 V 140.93362 H 272.60812 V 140.92508 Q 272.53122,140.93362 272.46286,140.93362 271.86472,140.93362 271.70236,140.26712 L 271.61691,139.91678 269.51486,131.3804 Q 269.48923,131.27786 269.48923,131.09842 269.48923,130.67117 269.91647,130.67117 H 272.15524 Q 272.23215,130.66263 272.30051,130.66263 272.89865,130.66263 273.061,131.32913 L 274.39401,136.77225 275.5134,131.98709 275.66721,131.34622 Q 275.82101,130.72244 276.35934,130.67972 H 276.5217 Q 277.06003,130.72244 277.21384,131.34622 L 277.36765,131.98709 278.4614,136.66116 279.70895,131.34622 Q 279.87131,130.67972 280.46945,130.67972 L 281.17868,130.69681 Q 281.59738,130.69681 281.59738,131.12405 281.59738,131.26932 281.54611,131.36331 L 281.55466,131.37186 279.80295,138.69485 279.51242,139.91678 279.42697,140.26712 Q 279.30734,140.76273 278.94846,140.8909 V 140.93362 H 277.97433 V 140.8909 Q 277.61545,140.76273 277.49582,140.26712 L 277.41037,139.91678 277.11984,138.69485 Z"
         id="path93" />
      <path
         d="M 287.37375,134.59329 288.86057,131.08987 Q 289.12546,130.60281 289.54416,130.60281 289.75778,130.60281 290.01413,130.73099 290.53537,131.00443 290.53537,131.46585 290.53537,131.67093 290.43283,131.91873 L 288.51877,136.45609 290.42429,139.61771 Q 290.52682,139.86551 290.52682,140.07059 290.52682,140.53201 290.01413,140.80545 289.75778,140.94217 289.53561,140.94217 L 288.16843,140.93362 Q 287.75827,140.93362 287.49338,140.43802 L 285.40842,137.03714 283.87888,140.46365 Q 283.61398,140.95071 283.19528,140.95071 282.98166,140.95071 282.72531,140.82254 282.20407,140.5491 282.20407,140.08768 282.20407,139.8826 282.30661,139.6348 L 284.32321,135.24271 282.31516,131.98709 Q 282.21262,131.73929 282.21262,131.53421 282.21262,131.07278 282.73386,130.79935 282.9902,130.66263 283.21237,130.66263 L 284.57956,130.63699 Q 284.98972,130.63699 285.25461,131.1326 Z"
         id="path95" />
      <path
         d="M 294.0986,136.53299 291.69748,131.98709 Q 291.59494,131.73929 291.59494,131.53421 291.59494,131.07278 292.11618,130.79935 292.37253,130.66263 292.5947,130.66263 L 293.96188,130.63699 Q 294.37204,130.63699 294.63693,131.1326 L 296.36301,134.59329 298.24289,131.08987 Q 298.50778,130.60281 298.92648,130.60281 299.14011,130.60281 299.39645,130.73099 299.91769,131.00443 299.91769,131.46585 299.91769,131.67093 299.81516,131.91873 L 297.52512,136.42191 297.51657,140.08768 Q 297.44821,140.93362 296.7048,140.94217 H 294.95309 Q 294.0986,140.94217 294.0986,140.09622 Z"
         id="path97" />
      <path
         d="M 304.07053,137.49002 H 308.19772 Q 309.05222,137.49002 309.06076,138.32742 V 140.08768 Q 309.04367,140.87381 308.18918,140.94217 H 302.22482 Q 301.37888,140.87381 301.37033,140.09622 V 138.32742 Q 301.37033,137.93436 301.6694,137.62674 L 306.30075,132.37161 H 302.22482 Q 301.37888,132.30325 301.37033,131.52567 301.37033,130.67117 302.21628,130.67117 H 307.92429 L 308.30881,130.66263 Q 308.87277,130.7139 309.03513,131.29495 309.06931,131.40604 309.06931,131.52567 309.06931,131.68802 308.9924,131.86746 308.94968,131.98709 308.86423,132.08109 308.85568,132.10672 308.83859,132.12381 Z"
         id="path99" />
      <path
         d="M 66.060272,162.77444 Q 65.641571,162.77444 65.641571,162.3472 65.641571,162.20193 65.692841,162.10794 L 65.684296,162.0994 67.436005,154.7764 67.726532,153.55447 67.811981,153.20413 Q 67.974335,152.53763 68.572479,152.53763 68.640839,152.53763 68.717743,152.54617 V 152.53763 H 71.520477 V 152.54617 Q 71.597382,152.53763 71.665741,152.53763 72.263885,152.53763 72.426239,153.20413 L 72.511688,153.55447 74.613739,162.09085 Q 74.639374,162.19339 74.639374,162.37283 74.639374,162.80008 74.212128,162.80008 H 71.973358 Q 71.896454,162.80862 71.828094,162.80862 71.22995,162.80862 71.067596,162.14212 L 69.264618,154.7764 H 69.256073 L 67.529999,162.12503 Q 67.367645,162.79153 66.769501,162.79153 Z M 70.161835,161.95413 Q 70.093475,162.80008 69.307343,162.80862 68.45285,162.80862 68.45285,161.97122 L 68.444305,160.2366 Q 68.444305,159.38211 69.298798,159.38211 70.08493,159.39066 70.15329,160.24515 Z"
         id="path101" />
      <path
         d="M 79.954315,154.2637 77.390839,154.25516 V 156.82718 H 79.954315 Z M 81.509491,156.85281 82.534882,156.84427 Q 83.372284,156.84427 83.372284,157.71585 L 83.355194,161.93704 Q 83.355194,162.81717 82.500702,162.81717 L 78.407684,162.80008 Q 78.339325,162.80862 78.270966,162.80862 H 76.536346 Q 75.681854,162.80862 75.681854,161.96268 V 153.41776 Q 75.681854,152.56326 76.536346,152.56326 L 80.672089,152.57181 Q 81.509491,152.57181 81.509491,153.44339 Z M 79.099823,158.54471 V 161.10818 H 81.671844 L 81.688934,158.55325 Z"
         id="path103" />
      <path
         d="M 91.908661,161.95413 Q 91.840302,162.80862 91.096893,162.80862 H 85.918671 Q 85.064178,162.80862 85.064178,161.95413 L 85.072723,153.30667 Q 85.072723,152.48636 85.910126,152.48636 H 91.908661 Q 92.763153,152.48636 92.763153,153.32376 V 155.05838 Q 92.763153,155.87015 91.908661,155.88724 91.045624,155.87869 91.045624,155.07547 V 154.2637 L 88.490692,154.25516 88.499237,161.09964 H 91.037079 Q 91.874481,161.09964 91.908661,161.95413 Z"
         id="path105" />
      <path
         d="M 97.471405,154.23807 96.181122,154.24661 96.198212,161.09109 H 97.539764 L 99.248749,157.71585 Z M 98.103729,162.80862 H 95.318085 Q 94.463593,162.80862 94.463593,161.96268 V 153.38358 Q 94.463593,152.52908 95.318085,152.52908 L 98.718964,152.52054 V 152.53763 H 99.496552 Q 99.906708,152.53763 100.1716,153.03323 L 102.14548,156.81009 Q 102.36765,157.24588 102.36765,157.67313 102.36765,158.11746 102.13693,158.55325 L 100.22287,162.33865 Q 99.957977,162.81717 99.539276,162.81717 H 98.214813 Q 98.163544,162.81717 98.103729,162.80862 Z"
         id="path107" />
      <path
         d="M 110.66476,156.76736 Q 111.51926,156.76736 111.51926,157.64749 111.51926,158.50198 110.66476,158.50198 H 105.56345 V 161.12527 L 110.67331,161.14236 Q 111.54489,161.12527 111.53635,161.96268 111.55344,162.80862 110.69894,162.80862 H 104.70895 Q 103.85446,162.80862 103.85446,161.95413 L 103.86301,157.63895 Q 103.85446,156.78445 104.70895,156.77591 L 104.7175,153.38358 Q 104.7175,152.52908 105.57199,152.52908 L 110.6904,152.52054 Q 111.54489,152.52054 111.54489,153.41776 111.54489,154.22952 110.6904,154.22952 H 108.13547 V 156.75882 Z"
         id="path109" />
      <path
         d="M 116.6633,158.54471 116.68893,161.91995 Q 116.68893,162.80862 115.83444,162.80862 H 114.09982 Q 113.24533,162.80862 113.24533,161.96268 V 153.38358 Q 113.24533,152.52908 114.09982,152.52908 L 120.08981,152.52054 Q 120.92722,152.52054 120.92722,153.34085 V 153.39212 Q 120.92722,154.21243 120.06418,154.19534 L 114.95432,154.21243 V 156.82718 H 120.05563 Q 120.91013,156.82718 120.91013,157.68167 120.91013,158.57034 120.05563,158.57034 Z"
         id="path111" />
      <path
         d="M 128.6091,153.34085 Q 128.57492,154.19534 127.73752,154.19534 H 124.35373 L 124.33664,159.36502 128.61765,159.39066 V 157.68167 L 126.92575,157.66458 Q 126.06271,157.65604 126.06271,156.80154 126.07126,155.93851 126.9343,155.93851 L 128.6091,155.9556 129.47214,155.94705 Q 130.32663,155.96414 130.32663,156.77591 V 161.97122 Q 130.32663,162.80862 129.47214,162.80862 128.6091,162.80862 128.61765,161.91995 V 161.09964 Q 127.76315,162.80862 126.48141,162.80862 H 123.4736 Q 122.6362,162.80862 122.6362,161.98831 L 122.62766,153.34085 Q 122.62766,152.48636 123.48215,152.48636 H 127.79733 Q 128.54074,152.48636 128.6091,153.34085 Z"
         id="path113" />
      <path
         d="M 136.33371,153.40921 Q 136.33371,152.57181 137.13693,152.57181 H 138.87155 Q 139.70895,152.57181 139.70895,153.44339 L 139.70041,161.93704 Q 139.70041,162.81717 138.84592,162.81717 138.01706,162.80862 138.0256,161.9285 L 138.03415,158.55325 135.44504,158.54471 V 161.95413 Q 135.44504,162.80008 134.59055,162.80008 L 132.88156,162.80862 Q 132.02707,162.80862 132.02707,161.96268 V 153.41776 Q 132.02707,152.56326 132.88156,152.56326 133.73605,152.56326 133.73605,153.40921 V 156.82718 H 136.33371 Z"
         id="path115" />
      <path
         d="M 145.69894,161.96268 Q 145.63058,162.80862 144.88718,162.81717 H 143.13547 Q 142.28098,162.81717 142.28098,161.97122 L 142.27243,153.37503 Q 142.27243,152.52054 143.12692,152.52054 H 144.91281 Q 145.65622,152.52908 145.72458,153.38358 Z"
         id="path117" />
      <path
         d="M 149.94577,153.38358 Q 150.04831,152.52908 150.79172,152.52054 L 152.54343,152.48636 Q 153.39792,152.48636 153.39792,153.34085 L 153.38083,160.30496 Q 153.38937,162.80862 150.80026,162.80862 H 148.22824 Q 147.38229,162.80862 147.38229,161.97122 147.37375,161.06546 148.22824,161.04837 H 149.09982 Q 149.97141,161.04837 149.97995,160.27078 Z"
         id="path119" />
      <path
         d="M 159.55881,158.55325 158.48215,158.54471 158.50778,161.91995 Q 158.50778,162.80862 157.65329,162.80862 H 155.91867 Q 155.06418,162.80862 155.06418,161.96268 V 153.38358 Q 155.06418,152.52908 155.91867,152.52908 L 157.65329,152.52054 Q 158.49069,152.52054 158.49069,153.39212 L 158.48215,156.78445 159.61862,156.77591 161.6694,152.85379 Q 161.9343,152.35818 162.34445,152.35818 162.56662,152.35818 162.82297,152.4949 163.34421,152.76834 163.34421,153.22977 163.34421,153.43484 163.24167,153.68265 L 161.15671,157.71585 163.21603,161.7576 Q 163.31857,162.0054 163.31857,162.21048 163.31857,162.67191 162.79733,162.94534 162.54099,163.07352 162.32736,163.07352 161.90866,163.07352 161.64377,162.58646 Z"
         id="path121" />
      <path
         d="M 168.13791,161.04837 170.69284,161.07401 V 160.21951 Q 170.69284,159.41629 171.55588,159.40775 172.41037,159.42484 172.41037,160.2366 V 161.97122 Q 172.41037,162.80862 171.55588,162.80862 H 165.55734 Q 164.71994,162.80862 164.71994,161.98831 L 164.7114,153.34085 Q 164.7114,152.48636 165.56589,152.48636 H 167.3176 Q 168.061,152.4949 168.12936,153.3494 Z"
         id="path123" />
      <path
         d="M 180.74167,160.5015 Q 180.52805,161.05692 179.82736,161.05692 V 161.04837 Q 179.13522,161.04837 178.9216,160.49295 L 177.52023,156.72464 V 161.94559 Q 177.45187,162.80008 176.69992,162.80862 H 174.95676 Q 174.10226,162.80862 174.10226,161.95413 L 174.11081,153.30667 Q 174.11081,152.48636 174.94821,152.48636 H 177.25534 V 152.51199 Q 177.69968,152.55472 177.98166,153.05032 L 179.82736,157.95511 181.68161,153.05887 Q 181.83542,152.62308 182.29684,152.52054 L 182.97189,152.51199 Q 183.83493,152.53763 183.83493,153.34085 V 161.97122 Q 183.83493,162.80862 182.98044,162.80862 182.12595,162.80862 182.1174,162.02249 V 156.80154 Z"
         id="path125" />
      <path
         d="M 187.28708,154.7764 V 162.02249 Q 187.27853,162.80862 186.42404,162.80862 185.56955,162.80862 185.56955,161.97122 V 153.34085 Q 185.56955,152.53763 186.43259,152.51199 L 187.68015,152.52054 Q 188.16721,152.52054 188.47482,153.05887 L 190.70505,158.96341 V 153.3494 Q 190.77341,152.4949 191.52536,152.48636 H 193.26852 Q 194.12302,152.48636 194.12302,153.34085 L 194.11447,161.98831 Q 194.11447,162.80862 193.27707,162.80862 H 190.96994 Q 190.26926,162.80862 190.05563,162.2532 Z"
         id="path127" />
      <path
         d="M 197.6008,155.9556 V 161.09964 H 201.81345 V 155.96414 Z M 202.66794,152.4949 Q 203.52243,152.4949 203.52243,153.3494 V 161.97122 Q 203.52243,162.80862 202.66794,162.80862 H 196.6694 Q 195.82346,162.80862 195.832,161.97122 L 195.82346,153.34085 Q 195.82346,152.48636 196.67795,152.48636 Z"
         id="path129" />
      <path
         d="M 209.51242,154.20389 206.93185,154.21243 V 156.82718 H 209.49533 Z M 212.88766,157.69022 Q 212.88766,158.57034 212.03317,158.57034 L 208.64084,158.54471 208.66647,161.91995 Q 208.66647,162.80862 207.81198,162.80862 H 206.07736 Q 205.22287,162.80862 205.22287,161.96268 V 153.38358 Q 205.22287,152.52908 206.07736,152.52908 L 212.06735,152.52054 Q 212.90475,152.52054 212.90475,153.39212 Z"
         id="path131" />
      <path
         d="M 220.59518,161.08255 V 155.94705 H 216.38254 V 161.09109 Z M 218.70676,162.80008 215.45969,162.80862 Q 214.60519,162.80862 214.60519,161.95413 L 214.61374,153.32376 Q 214.60519,152.48636 215.45114,152.48636 H 221.44968 Q 222.30417,152.48636 222.30417,153.32376 V 161.94559 Q 222.30417,162.80008 221.44968,162.80008 H 220.71481 L 221.33859,164.03055 Q 221.44113,164.27835 221.44113,164.48343 221.44113,164.94485 220.91989,165.21829 220.66354,165.34647 220.44992,165.34647 220.03122,165.34647 219.76633,164.85941 Z"
         id="path133" />
      <path
         d="M 228.28561,154.19534 225.71359,154.21243 V 156.82718 H 228.27707 Z M 228.02072,158.55325 227.42258,158.54471 227.44821,161.91995 Q 227.44821,162.80862 226.59372,162.80862 H 224.8591 Q 224.00461,162.80862 224.00461,161.96268 V 153.38358 Q 224.00461,152.52908 224.8591,152.52908 L 230.84909,152.52054 Q 231.68649,152.52054 231.68649,153.39212 L 231.6694,157.69022 Q 231.6694,158.57034 230.81491,158.57034 L 230.02023,158.5618 231.56686,161.56107 Q 231.90866,162.35574 231.14816,162.74881 230.39621,163.14188 229.9946,162.38992 Z"
         id="path135" />
      <path
         d="M 240.23141,155.9556 Q 241.08591,155.9556 241.08591,156.793 V 161.98831 Q 241.08591,162.8428 240.23141,162.8428 H 235.15573 Q 234.26706,162.83426 234.28415,161.98831 234.29269,161.13382 235.13864,161.13382 H 239.37692 V 159.37357 L 234.23288,159.38211 Q 233.42111,159.38211 233.39548,158.54471 L 233.38693,153.37503 Q 233.38693,152.52054 234.24142,152.52054 L 240.1716,152.52908 Q 241.00046,152.59744 241.03464,153.38358 241.02609,154.23807 240.1716,154.23807 L 235.13864,154.24661 235.16428,155.96414 Z"
         id="path137" />
      <path
         d="M 247.09299,161.95413 Q 247.02463,162.80862 246.17014,162.80862 245.31564,162.80862 245.31564,161.95413 L 245.32419,155.90433 H 243.23068 Q 242.3591,155.90433 242.3591,155.11819 V 153.30667 Q 242.3591,152.48636 243.1965,152.48636 H 249.19504 Q 250.04953,152.48636 250.04953,153.32376 V 153.45193 Q 250.04953,154.22098 249.18649,154.22098 H 247.09299 Z"
         id="path139" />
      <path
         d="M 252.16867,152.48636 Q 253.02316,152.48636 253.09152,153.34085 V 159.39066 H 257.30417 V 153.3494 Q 257.30417,152.4949 258.15866,152.4949 259.01315,152.4949 259.01315,153.3494 V 161.97122 Q 259.01315,162.80862 258.15866,162.80862 H 252.16013 Q 251.31418,162.80862 251.32272,161.97122 L 251.31418,153.34085 Q 251.31418,152.48636 252.16867,152.48636 Z"
         id="path141" />
      <path
         d="M 268.66037,152.57181 Q 269.07907,152.57181 269.07907,152.99905 269.07907,153.14432 269.0278,153.23831 L 269.03635,153.24686 267.28464,160.56985 266.99411,161.79178 266.90866,162.14212 Q 266.74631,162.80862 266.14816,162.80862 266.0798,162.80862 266.0029,162.80008 V 162.80862 H 263.20016 V 162.80008 Q 263.12326,162.80862 263.0549,162.80862 262.45676,162.80862 262.2944,162.14212 L 262.20895,161.79178 260.1069,153.2554 Q 260.08127,153.15286 260.08127,152.97342 260.08127,152.54617 260.50851,152.54617 H 262.74728 Q 262.82419,152.53763 262.89255,152.53763 263.49069,152.53763 263.65305,153.20413 L 265.45602,160.56985 H 265.46457 L 267.19064,153.22122 Q 267.353,152.55472 267.95114,152.55472 Z"
         id="path143" />
      <path
         d="M 276.44479,157.73294 275.7612,160.56985 275.47067,161.79178 275.38522,162.14212 Q 275.25705,162.66336 274.86398,162.77444 V 162.80862 H 272.60812 V 162.80008 Q 272.53122,162.80862 272.46286,162.80862 271.86472,162.80862 271.70236,162.14212 L 271.61691,161.79178 269.51486,153.2554 Q 269.48923,153.15286 269.48923,152.97342 269.48923,152.54617 269.91647,152.54617 H 272.15524 Q 272.23215,152.53763 272.30051,152.53763 272.89865,152.53763 273.061,153.20413 L 274.39401,158.64725 275.5134,153.86209 275.66721,153.22122 Q 275.82101,152.59744 276.35934,152.55472 H 276.5217 Q 277.06003,152.59744 277.21384,153.22122 L 277.36765,153.86209 278.4614,158.53616 279.70895,153.22122 Q 279.87131,152.55472 280.46945,152.55472 L 281.17868,152.57181 Q 281.59738,152.57181 281.59738,152.99905 281.59738,153.14432 281.54611,153.23831 L 281.55466,153.24686 279.80295,160.56985 279.51242,161.79178 279.42697,162.14212 Q 279.30734,162.63773 278.94846,162.7659 V 162.80862 H 277.97433 V 162.7659 Q 277.61545,162.63773 277.49582,162.14212 L 277.41037,161.79178 277.11984,160.56985 Z"
         id="path145" />
      <path
         d="M 287.37375,156.46829 288.86057,152.96487 Q 289.12546,152.47781 289.54416,152.47781 289.75778,152.47781 290.01413,152.60599 290.53537,152.87943 290.53537,153.34085 290.53537,153.54593 290.43283,153.79373 L 288.51877,158.33109 290.42429,161.49271 Q 290.52682,161.74051 290.52682,161.94559 290.52682,162.40701 290.01413,162.68045 289.75778,162.81717 289.53561,162.81717 L 288.16843,162.80862 Q 287.75827,162.80862 287.49338,162.31302 L 285.40842,158.91214 283.87888,162.33865 Q 283.61398,162.82571 283.19528,162.82571 282.98166,162.82571 282.72531,162.69754 282.20407,162.4241 282.20407,161.96268 282.20407,161.7576 282.30661,161.5098 L 284.32321,157.11771 282.31516,153.86209 Q 282.21262,153.61429 282.21262,153.40921 282.21262,152.94778 282.73386,152.67435 282.9902,152.53763 283.21237,152.53763 L 284.57956,152.51199 Q 284.98972,152.51199 285.25461,153.0076 Z"
         id="path147" />
      <path
         d="M 294.0986,158.40799 291.69748,153.86209 Q 291.59494,153.61429 291.59494,153.40921 291.59494,152.94778 292.11618,152.67435 292.37253,152.53763 292.5947,152.53763 L 293.96188,152.51199 Q 294.37204,152.51199 294.63693,153.0076 L 296.36301,156.46829 298.24289,152.96487 Q 298.50778,152.47781 298.92648,152.47781 299.14011,152.47781 299.39645,152.60599 299.91769,152.87943 299.91769,153.34085 299.91769,153.54593 299.81516,153.79373 L 297.52512,158.29691 297.51657,161.96268 Q 297.44821,162.80862 296.7048,162.81717 H 294.95309 Q 294.0986,162.81717 294.0986,161.97122 Z"
         id="path149" />
      <path
         d="M 304.07053,159.36502 H 308.19772 Q 309.05222,159.36502 309.06076,160.20242 V 161.96268 Q 309.04367,162.74881 308.18918,162.81717 H 302.22482 Q 301.37888,162.74881 301.37033,161.97122 V 160.20242 Q 301.37033,159.80936 301.6694,159.50174 L 306.30075,154.24661 H 302.22482 Q 301.37888,154.17825 301.37033,153.40067 301.37033,152.54617 302.21628,152.54617 H 307.92429 L 308.30881,152.53763 Q 308.87277,152.5889 309.03513,153.16995 309.06931,153.28104 309.06931,153.40067 309.06931,153.56302 308.9924,153.74246 308.94968,153.86209 308.86423,153.95609 308.85568,153.98172 308.83859,153.99881 Z"
         id="path151" />
      <path
         d="M 68.042694,177.8306 V 182.97464 H 72.255341 V 177.83914 Z M 73.109833,174.3699 Q 73.964325,174.3699 73.964325,175.2244 V 183.84622 Q 73.964325,184.68362 73.109833,184.68362 H 67.111298 Q 66.26535,184.68362 66.273895,183.84622 L 66.26535,175.21585 Q 66.26535,174.36136 67.119843,174.36136 Z"
         id="path153" />
      <path
         d="M 77.433563,177.8306 V 182.97464 H 81.64621 V 177.83914 Z M 82.500702,174.3699 Q 83.355194,174.3699 83.355194,175.2244 V 183.84622 Q 83.355194,184.68362 82.500702,184.68362 H 76.502167 Q 75.656219,184.68362 75.664764,183.84622 L 75.656219,175.21585 Q 75.656219,174.36136 76.510712,174.36136 Z"
         id="path155" />
      <path
         d="M 86.824432,176.11307 V 181.25711 H 91.037079 V 176.12161 Z M 91.891571,174.3699 Q 92.746063,174.3699 92.746063,175.2244 V 183.84622 Q 92.746063,184.68362 91.891571,184.68362 H 85.893036 Q 85.047089,184.68362 85.055634,183.84622 L 85.047089,175.21585 Q 85.047089,174.36136 85.901581,174.36136 Z M 89.798065,179.53958 Q 89.729706,180.38553 88.943573,180.40262 88.089081,180.40262 88.089081,179.55667 L 88.080536,177.82205 Q 88.080536,176.96756 88.935028,176.96756 89.721161,176.9761 89.78952,177.8306 Z"
         id="path157" />
      <path
         d="M 97.855927,178.70218 H 100.4194 V 176.13016 L 97.855927,176.1387 Z M 94.455048,180.41116 Q 94.455048,178.71927 96.138397,178.71927 94.446503,178.70218 94.446503,176.98465 V 175.31839 Q 94.446503,174.44681 95.283905,174.44681 L 101.2739,174.43826 Q 102.12839,174.43826 102.12839,175.29276 V 178.71072 Q 102.1113,180.40262 100.39377,180.42825 102.1113,180.4368 102.12839,182.13724 V 183.83768 Q 102.12839,184.68362 101.2739,184.68362 H 99.539276 Q 99.470917,184.68362 99.402557,184.67508 L 95.30954,184.69217 Q 94.455048,184.69217 94.455048,183.81204 Z M 96.121307,180.42825 96.138397,182.98318 H 98.710419 V 180.41971 Z"
         id="path159" />
      <path
         d="M 112.98044,183.83768 Q 112.91208,184.68362 112.16867,184.69217 H 110.41696 Q 109.56247,184.69217 109.56247,183.84622 L 109.55392,175.25003 Q 109.55392,174.39554 110.40842,174.39554 H 112.19431 Q 112.93771,174.40408 113.00607,175.25858 Z"
         id="path161" />
      <path
         d="M 119.79929,183.83768 Q 119.73093,184.68362 118.98752,184.69217 H 117.23581 Q 116.38132,184.69217 116.38132,183.84622 L 116.37277,175.25003 Q 116.37277,174.39554 117.22726,174.39554 H 119.01315 Q 119.75656,174.40408 119.82492,175.25858 Z"
         id="path163" />
      <path
         d="M 125.7551,182.92337 128.31003,182.94901 V 182.09451 Q 128.31003,181.29129 129.17307,181.28275 130.02756,181.29984 130.02756,182.1116 V 183.84622 Q 130.02756,184.68362 129.17307,184.68362 H 123.17453 Q 122.33713,184.68362 122.33713,183.86331 L 122.32858,175.21585 Q 122.32858,174.36136 123.18307,174.36136 H 124.93478 Q 125.67819,174.3699 125.74655,175.2244 Z"
         id="path165" />
      <path
         d="M 135.14597,182.92337 137.7009,182.94901 V 182.09451 Q 137.7009,181.29129 138.56393,181.28275 139.41843,181.29984 139.41843,182.1116 V 183.84622 Q 139.41843,184.68362 138.56393,184.68362 H 132.5654 Q 131.728,184.68362 131.728,183.86331 L 131.71945,175.21585 Q 131.71945,174.36136 132.57394,174.36136 H 134.32565 Q 135.06906,174.3699 135.13742,175.2244 Z"
         id="path167" />
      <path
         d="M 141.99045,184.68362 Q 141.11887,184.67508 141.11887,183.87186 V 183.83768 Q 141.12741,182.98318 141.97336,182.98318 H 142.8364 L 142.82785,176.11307 H 141.99045 Q 141.11887,176.10452 141.11887,175.3013 V 175.26712 Q 141.12741,174.41263 141.97336,174.41263 H 143.46017 Q 143.56271,174.39554 143.68234,174.39554 H 145.43405 Q 146.17746,174.40408 146.24582,175.25858 L 146.25436,182.97464 H 147.09177 Q 147.93771,182.97464 147.94626,183.82913 V 183.86331 Q 147.94626,184.66653 147.07468,184.67508 Z"
         id="path169" />
      <path
         d="M 191.6279,175.21585 Q 191.59372,176.07034 190.75632,176.07034 H 187.37253 L 187.35544,181.24002 191.63644,181.26566 V 179.55667 L 189.94455,179.53958 Q 189.08151,179.53104 189.08151,178.67654 189.09006,177.81351 189.95309,177.81351 L 191.6279,177.8306 192.49094,177.82205 Q 193.34543,177.83914 193.34543,178.65091 V 183.84622 Q 193.34543,184.68362 192.49094,184.68362 191.6279,184.68362 191.63644,183.79495 V 182.97464 Q 190.78195,184.68362 189.50021,184.68362 H 186.4924 Q 185.655,184.68362 185.655,183.86331 L 185.64645,175.21585 Q 185.64645,174.36136 186.50095,174.36136 H 190.81613 Q 191.55954,174.36136 191.6279,175.21585 Z"
         id="path171" />
      <path
         d="M 195.88327,180.41116 Q 195.04587,180.41116 195.04587,179.53958 L 195.06296,175.31839 Q 195.06296,174.43826 195.91745,174.43826 L 201.88181,174.44681 Q 202.7363,174.44681 202.7363,175.29276 V 183.83768 Q 202.7363,184.69217 201.88181,184.69217 L 196.78049,184.68362 Q 195.90891,184.69217 195.90891,183.84622 195.90891,183.00027 196.78049,183.00882 L 199.30978,183.00027 V 180.39407 Z M 201.02731,178.71072 V 176.14725 H 196.74631 V 178.72781 Z"
         id="path173" />
      <path
         d="M 210.41818,182.95755 V 177.82205 H 206.20554 V 182.96609 Z M 208.52975,184.67508 205.28268,184.68362 Q 204.42819,184.68362 204.42819,183.82913 L 204.43674,175.19876 Q 204.42819,174.36136 205.27414,174.36136 H 211.27267 Q 212.12717,174.36136 212.12717,175.19876 V 183.82059 Q 212.12717,184.67508 211.27267,184.67508 H 210.53781 L 211.16159,185.90555 Q 211.26413,186.15335 211.26413,186.35843 211.26413,186.81985 210.74289,187.09329 210.48654,187.22147 210.27292,187.22147 209.85422,187.22147 209.58932,186.73441 Z"
         id="path175" />
      <path
         d="M 220.66354,183.82913 Q 220.59518,184.68362 219.85178,184.68362 H 214.67355 Q 213.81906,184.68362 213.81906,183.82913 L 213.82761,175.18167 Q 213.82761,174.36136 214.66501,174.36136 H 220.66354 Q 221.51804,174.36136 221.51804,175.19876 V 176.93338 Q 221.51804,177.74515 220.66354,177.76224 219.80051,177.75369 219.80051,176.95047 V 176.1387 L 217.24557,176.13016 217.25412,182.97464 H 219.79196 Q 220.62936,182.97464 220.66354,183.82913 Z"
         id="path177" />
      <path
         d="M 229.19138,175.21585 Q 229.1572,176.07034 228.31979,176.07034 H 224.936 L 224.91891,181.24002 229.19992,181.26566 V 179.55667 L 227.50803,179.53958 Q 226.64499,179.53104 226.64499,178.67654 226.65353,177.81351 227.51657,177.81351 L 229.19138,177.8306 230.05441,177.82205 Q 230.90891,177.83914 230.90891,178.65091 V 183.84622 Q 230.90891,184.68362 230.05441,184.68362 229.19138,184.68362 229.19992,183.79495 V 182.97464 Q 228.34543,184.68362 227.06369,184.68362 H 224.05588 Q 223.21848,184.68362 223.21848,183.86331 L 223.20993,175.21585 Q 223.20993,174.36136 224.06442,174.36136 H 228.37961 Q 229.12302,174.36136 229.19138,175.21585 Z"
         id="path179" />
      <path
         d="M 238.59079,182.95755 V 177.82205 H 234.37814 V 182.96609 Z M 236.70236,184.67508 233.45529,184.68362 Q 232.6008,184.68362 232.6008,183.82913 L 232.60934,175.19876 Q 232.6008,174.36136 233.44675,174.36136 H 239.44528 Q 240.29977,174.36136 240.29977,175.19876 V 183.82059 Q 240.29977,184.67508 239.44528,184.67508 H 238.71042 L 239.3342,185.90555 Q 239.43674,186.15335 239.43674,186.35843 239.43674,186.81985 238.9155,187.09329 238.65915,187.22147 238.44553,187.22147 238.02682,187.22147 237.76193,186.73441 Z"
         id="path181" />
      <path
         d="M 257.92795,180.40262 Q 257.082,180.35135 257.07346,179.83011 L 257.06491,179.24905 Q 257.06491,178.67654 257.91086,178.67654 L 260.49997,178.668 Q 261.35446,178.668 261.35446,179.24051 V 179.83865 Q 261.34592,180.3428 260.49142,180.39407 Z"
         id="path183" />
    </g>
  </g>
</svg>
