<svg xmlns="http://www.w3.org/2000/svg" width="281.961" height="109.694" viewBox="0 0 264.338 102.838"><g font-weight="400" font-family="HeavyData Nerd Font" letter-spacing="0" word-spacing="0" fill="#fff"><g style="line-height:125%;text-decoration-line:underline" font-size="27.5" text-decoration="underline"><path d="M6.768 1.464Q6.768.148 8.03.148h2.726q1.316 0 1.316 1.37l-.014 13.346q0 1.384-1.343 1.384-1.302-.014-1.289-1.397l.014-5.304-4.069-.013v5.357q0 1.33-1.343 1.33l-2.685.013Q0 16.234 0 14.904V1.478Q0 .134 1.343.134t1.343 1.33v5.37h4.082v-5.37zM25.472 6.74q1.343 0 1.343 1.384 0 1.343-1.343 1.343h-8.016v4.122l8.03.027q1.37-.027 1.356 1.289.027 1.33-1.316 1.33h-9.413q-1.342 0-1.342-1.344l.013-6.78q-.013-1.343 1.33-1.357l.013-5.33q0-1.343 1.342-1.343l8.044-.014q1.342 0 1.342 1.41 0 1.276-1.342 1.276h-4.015v3.974l3.974.014zM29.205 16.18q-.658 0-.658-.671 0-.228.08-.376l-.012-.013 2.752-11.508.457-1.92.134-.55Q32.213.093 33.153.093q.107 0 .228.013V.094h4.405v.013q.12-.013.228-.013.94 0 1.195 1.047l.134.55 3.303 13.415q.04.161.04.443 0 .672-.67.672h-3.519q-.12.013-.228.013-.94 0-1.195-1.047L34.241 3.612h-.014L31.515 15.16q-.255 1.047-1.195 1.047l-1.115-.027zm6.446-1.289q-.108 1.33-1.343 1.343-1.343 0-1.343-1.316l-.013-2.726q0-1.342 1.342-1.342 1.236.013 1.343 1.356l.014 2.685zM56.8.148q.657 0 .657.671 0 .228-.08.376l.013.013-2.753 11.508-.456 1.92-.134.55q-.256 1.048-1.195 1.048-.108 0-.229-.013v.013H48.22v-.013q-.12.013-.228.013-.94 0-1.195-1.047l-.135-.55-3.303-13.415q-.04-.161-.04-.443 0-.672.671-.672h3.518q.121-.013.229-.013.94 0 1.195 1.047l2.833 11.575h.013L54.49 1.168Q54.745.121 55.685.121l1.114.027zM62.412 9.319L58.64 2.175q-.161-.39-.161-.711 0-.725.819-1.155.403-.215.752-.215l2.148-.04q.645 0 1.061.779L65.97 6.27 68.925.765Q69.34 0 69.999 0q.335 0 .738.201.82.43.82 1.155 0 .322-.162.712l-3.598 7.076-.014 5.76q-.107 1.33-1.275 1.344h-2.753q-1.343 0-1.343-1.33v-5.6zM78.58 2.766l-2.028.014.026 10.755h2.109l2.685-5.304-2.793-5.465zm.993 13.468h-4.378q-1.342 0-1.342-1.33V1.425q0-1.343 1.342-1.343L80.54.067v.027h1.221q.645 0 1.061.779l3.102 5.935q.35.685.35 1.356 0 .698-.363 1.383l-3.008 5.949q-.416.752-1.074.752h-2.082q-.08 0-.174-.014zM88.287 16.18q-.658 0-.658-.671 0-.228.081-.376l-.013-.013 2.752-11.508.457-1.92.134-.55Q91.295.093 92.235.093q.108 0 .228.013V.094h4.405v.013q.12-.013.228-.013.94 0 1.195 1.047l.134.55 3.304 13.415q.04.161.04.443 0 .672-.672.672H97.58q-.12.013-.228.013-.94 0-1.195-1.047L93.323 3.612h-.014L90.597 15.16q-.255 1.047-1.195 1.047l-1.115-.027zm6.446-1.289q-.108 1.33-1.343 1.343-1.343 0-1.343-1.316l-.013-2.726q0-1.342 1.342-1.342 1.236.013 1.343 1.356l.014 2.685zM110.161 14.891q-.107 1.343-1.45 1.343t-1.343-1.343l.014-9.506h-3.29q-1.37 0-1.37-1.236V1.302q0-1.289 1.316-1.289h9.426q1.343 0 1.343 1.316v.202q0 1.208-1.356 1.208h-3.29v12.152zM116.486 16.18q-.658 0-.658-.671 0-.228.08-.376l-.013-.013 2.753-11.508.456-1.92.134-.55q.255-1.048 1.195-1.048.108 0 .229.013V.094h4.404v.013q.12-.013.228-.013.94 0 1.195 1.047l.135.55 3.303 13.415q.04.161.04.443 0 .672-.671.672h-3.518q-.121.013-.229.013-.94 0-1.195-1.047l-2.833-11.575h-.013l-2.713 11.548q-.255 1.047-1.195 1.047l-1.114-.027zm6.445-1.289q-.108 1.33-1.343 1.343-1.343 0-1.343-1.316l-.013-2.726q0-1.342 1.343-1.342 1.235.013 1.343 1.356l.013 2.685zM141.904 3.612V15q-.013 1.235-1.356 1.235-1.343 0-1.343-1.316V1.356q0-1.262 1.357-1.302l1.96.013q.765 0 1.249.846l3.504 9.279V1.37q.108-1.343 1.29-1.357h2.739q1.342 0 1.342 1.343l-.013 13.59q0 1.288-1.316 1.288h-3.625q-1.101 0-1.437-.873l-4.35-11.749zM166.034 6.74q1.343 0 1.343 1.384 0 1.343-1.343 1.343h-8.016v4.122l8.03.027q1.369-.027 1.356 1.289.026 1.33-1.316 1.33h-9.413q-1.343 0-1.343-1.344l.013-6.78q-.013-1.343 1.33-1.357l.013-5.33q0-1.343 1.343-1.343l8.043-.014q1.343 0 1.343 1.41 0 1.276-1.343 1.276h-4.015v3.974l3.975.014zM176.83 2.699l-4.042.027v4.109h4.028l.014-4.136zm-.416 6.848l-.94-.013.04 5.304q0 1.396-1.343 1.396h-2.726q-1.342 0-1.342-1.33V1.425q0-1.343 1.342-1.343l9.413-.014q1.316 0 1.316 1.37l-.027 6.754q0 1.383-1.343 1.383l-1.248-.013 2.43 4.713q.537 1.248-.658 1.866-1.182.618-1.813-.564l-3.101-6.029zM189.6 2.766l-2.028.014.027 10.755h2.108l2.686-5.304-2.793-5.465zm.993 13.468h-4.377q-1.343 0-1.343-1.33V1.425q0-1.343 1.343-1.343l5.344-.014v.027h1.222q.645 0 1.06.779l3.103 5.935q.349.685.349 1.356 0 .698-.363 1.383l-3.008 5.949q-.416.752-1.074.752h-2.081q-.08 0-.175-.014zM212.642 9.534l.04 5.304q0 1.396-1.343 1.396h-2.726q-1.342 0-1.342-1.33V1.425q0-1.343 1.342-1.343l9.413-.014q1.316 0 1.316 1.29v.08q0 1.289-1.356 1.262l-8.03.027v4.109h8.016q1.343 0 1.343 1.342 0 1.397-1.343 1.397l-5.33-.04zM224.82 5.465v8.084h6.62v-8.07l-6.62-.014zm7.963-5.438q1.343 0 1.343 1.343v13.548q0 1.316-1.343 1.316h-9.426q-1.33 0-1.316-1.316l-.013-13.562q0-1.343 1.342-1.343l9.413.014zM239.497 3.612V15q-.013 1.235-1.356 1.235-1.343 0-1.343-1.316V1.356q0-1.262 1.356-1.302l1.96.013q.766 0 1.25.846l3.504 9.279V1.37q.108-1.343 1.29-1.357h2.738q1.343 0 1.343 1.343l-.013 13.59q0 1.288-1.316 1.288h-3.626q-1.1 0-1.436-.873l-4.35-11.749zM259.692 14.891q-.107 1.343-1.45 1.343t-1.343-1.343l.014-9.506h-3.29q-1.37 0-1.37-1.236V1.302q0-1.289 1.316-1.289h9.427q1.342 0 1.342 1.316v.202q0 1.208-1.356 1.208h-3.29v12.152z"/></g><g style="line-height:125%" font-size="17.5"><path d="M1.86 56.2q-.418 0-.418-.427 0-.146.05-.24l-.008-.009 1.752-7.323.29-1.221.086-.35q.162-.667.76-.667.069 0 .146.009v-.01H7.32v.01q.077-.01.145-.01.598 0 .76.667l.086.35 2.102 8.537q.026.102.026.282 0 .427-.428.427H7.773q-.076.01-.145.01-.598 0-.76-.667l-1.803-7.366h-.009L3.33 55.55q-.162.666-.76.666l-.71-.017zm4.102-.82q-.068.846-.855.854-.854 0-.854-.837l-.009-1.735q0-.854.855-.854.786.009.854.863l.009 1.709zM15.746 47.69l-2.564-.01v2.572h2.564V47.69zm1.555 2.588l1.025-.009q.838 0 .838.872l-.017 4.221q0 .88-.855.88l-4.093-.017q-.068.01-.136.01h-1.735q-.855 0-.855-.847v-8.545q0-.854.855-.854l4.136.009q.837 0 .837.871v3.41zm-2.41 1.692v2.564h2.572l.017-2.555-2.589-.01zM27.709 55.38q-.069.854-.812.854h-5.178q-.855 0-.855-.854l.009-8.648q0-.82.837-.82h5.999q.854 0 .854.837v1.735q0 .812-.854.829-.863-.01-.863-.812v-.812l-2.555-.009.008 6.845h2.538q.837 0 .872.854zM33.28 47.664l-1.29.009.017 6.844h1.341l1.71-3.375-1.778-3.478zm.632 8.57h-2.785q-.855 0-.855-.846V46.81q0-.854.855-.854l3.4-.01v.018h.778q.41 0 .675.495l1.974 3.777q.222.436.222.863 0 .445-.23.88l-1.915 3.786q-.264.478-.683.478h-1.325q-.05 0-.11-.009zM46.482 50.193q.854 0 .854.88 0 .854-.854.854H41.38v2.624l5.11.017q.871-.017.863.82.017.846-.838.846h-5.99q-.854 0-.854-.854l.009-4.316q-.01-.854.846-.863l.009-3.392q0-.854.854-.854l5.118-.01q.855 0 .855.898 0 .812-.855.812h-2.554v2.529l2.529.009zM52.489 51.97l.026 3.375q0 .89-.855.89h-1.734q-.855 0-.855-.847V46.81q0-.854.855-.854l5.99-.01q.837 0 .837.82v.052q0 .82-.863.803l-5.11.018v2.614h5.101q.855 0 .855.855 0 .888-.855.888l-3.392-.025zM64.443 46.766q-.034.855-.871.855h-3.384l-.017 5.17 4.28.025v-1.709l-1.691-.017q-.863-.009-.863-.863.009-.863.872-.863l1.674.017.863-.009q.855.017.855.829v5.195q0 .838-.855.838-.863 0-.854-.889v-.82q-.855 1.709-2.136 1.709h-3.008q-.838 0-.838-.82l-.009-8.648q0-.855.855-.855h4.315q.744 0 .812.855zM72.177 46.835q0-.838.803-.838h1.734q.838 0 .838.872l-.01 8.494q0 .88-.854.88-.829-.01-.82-.889l.009-3.375-2.59-.01v3.41q0 .846-.854.846l-1.709.01q-.854 0-.854-.847v-8.545q0-.854.854-.854.855 0 .855.846v3.418h2.598v-3.418zM81.55 55.388q-.068.846-.811.855h-1.752q-.855 0-.855-.846l-.009-8.596q0-.855.855-.855h1.786q.743.009.811.863l-.025 8.58zM85.814 46.81q.103-.855.846-.864l1.752-.034q.854 0 .854.854l-.017 6.964q.01 2.504-2.58 2.504h-2.572q-.846 0-.846-.837-.01-.906.846-.923h.871q.872 0 .88-.778l-.034-6.887zM95.436 51.979l-1.077-.01.026 3.376q0 .889-.855.889h-1.734q-.855 0-.855-.846v-8.58q0-.854.855-.854l1.734-.009q.838 0 .838.872l-.01 3.392 1.137-.009 2.05-3.922q.266-.496.676-.496.222 0 .478.137.522.273.522.735 0 .205-.103.453l-2.085 4.033 2.06 4.042q.102.248.102.453 0 .461-.521.734-.257.129-.47.129-.419 0-.684-.487l-2.085-4.034zM104.032 54.474l2.555.025v-.854q0-.803.863-.812.854.017.854.83v1.734q0 .837-.854.837h-5.999q-.837 0-.837-.82l-.009-8.648q0-.854.855-.854h1.751q.744.009.812.863l.009 7.699zM116.644 53.927q-.213.555-.914.555v-.009q-.692 0-.906-.555l-1.401-3.768v5.22q-.069.855-.82.864h-1.744q-.854 0-.854-.855l.009-8.647q0-.82.837-.82h2.307v.025q.445.043.727.538l1.845 4.905 1.855-4.896q.153-.436.615-.538l.675-.01q.863.026.863.83v8.63q0 .837-.854.837-.855 0-.864-.786v-5.22l-1.375 3.7zM123.207 48.202v7.246q-.01.786-.863.786-.855 0-.855-.837v-8.63q0-.804.863-.83l1.248.01q.487 0 .795.538l2.23 5.904v-5.614q.068-.854.82-.863h1.743q.855 0 .855.855l-.01 8.647q0 .82-.837.82h-2.307q-.7 0-.914-.555l-2.769-7.477zM133.52 49.381v5.144h4.213V49.39l-4.212-.01zm5.068-3.46q.854 0 .854.854v8.622q0 .837-.854.837h-5.999q-.846 0-.837-.837l-.01-8.63q0-.855.855-.855l5.99.009zM145.44 47.63l-2.58.008v2.615h2.564l.017-2.623zm3.376 3.486q0 .88-.855.88l-3.392-.026.026 3.375q0 .89-.855.89h-1.734q-.855 0-.855-.847V46.81q0-.854.855-.854l5.99-.01q.837 0 .837.872l-.017 4.298zM156.532 54.508v-5.135h-4.213v5.144l4.213-.01zm-1.888 1.718l-3.248.009q-.854 0-.854-.855l.009-8.63q-.009-.838.837-.838h5.999q.854 0 .854.838v8.622q0 .854-.854.854h-.735l.624 1.23q.102.248.102.453 0 .462-.52.735-.257.128-.47.128-.42 0-.684-.487l-1.06-2.059zM164.231 47.62l-2.572.018v2.615h2.563l.01-2.632zm-.265 4.359l-.598-.01.026 3.376q0 .889-.855.889h-1.735q-.854 0-.854-.846v-8.58q0-.854.854-.854l5.99-.009q.838 0 .838.872l-.017 4.298q0 .88-.855.88l-.794-.01 1.546 3q.342.795-.419 1.188-.751.393-1.153-.359l-1.974-3.837zM176.185 49.381q.855 0 .855.837v5.196q0 .854-.855.854h-5.075q-.889-.009-.872-.854.009-.855.855-.855h4.238V52.8l-5.144.01q-.812 0-.838-.838l-.009-5.17q0-.855.855-.855l5.93.01q.829.068.863.854-.009.854-.863.854l-5.033.01.026 1.717 5.067-.009zM183.055 55.38q-.068.854-.922.854-.855 0-.855-.854l.01-6.05h-2.094q-.872 0-.872-.786v-1.812q0-.82.837-.82h5.999q.854 0 .854.837v.128q0 .77-.863.77h-2.093v7.733zM188.14 45.912q.854 0 .923.854v6.05h4.212v-6.041q0-.855.855-.855.854 0 .854.855v8.622q0 .837-.854.837h-5.999q-.846 0-.837-.837l-.01-8.63q0-.855.855-.855zM204.64 45.997q.419 0 .419.428 0 .145-.052.239l.01.009-1.752 7.323-.29 1.222-.086.35q-.163.667-.76.667-.07 0-.146-.01v.01h-2.803v-.01q-.077.01-.145.01-.598 0-.76-.667l-.086-.35-2.102-8.537q-.026-.102-.026-.282 0-.427.428-.427h2.238q.077-.009.146-.009.598 0 .76.667l1.803 7.365h.009l1.726-7.348q.162-.667.76-.667l.71.017zM212.416 51.158l-.684 2.837-.29 1.222-.086.35q-.128.522-.521.633v.034h-2.256v-.009q-.077.01-.145.01-.598 0-.76-.667l-.086-.35-2.102-8.537q-.026-.103-.026-.282 0-.427.427-.427h2.24q.076-.01.145-.01.598 0 .76.667l1.333 5.443 1.12-4.785.153-.64q.154-.625.692-.667h.163q.538.042.692.666l.154.641 1.093 4.674 1.248-5.315q.162-.666.76-.666l.71.017q.418 0 .418.427 0 .145-.05.24l.008.008-1.752 7.323-.29 1.222-.086.35q-.12.496-.478.624v.043h-.974v-.043q-.36-.128-.479-.623l-.085-.35-.29-1.223-.676-2.837zM223.353 49.894l1.487-3.504q.265-.487.684-.487.213 0 .47.128.52.274.52.735 0 .205-.102.453l-1.914 4.538 1.906 3.161q.102.248.102.453 0 .462-.512.735-.257.137-.479.137l-1.367-.01q-.41 0-.675-.495l-2.085-3.4-1.53 3.426q-.264.487-.683.487-.214 0-.47-.128-.521-.274-.521-.735 0-.205.102-.453l2.017-4.392-2.008-3.256q-.103-.248-.103-.453 0-.461.521-.735.257-.136.479-.136l1.367-.026q.41 0 .675.496l2.12 3.46zM230.087 51.833l-2.401-4.545q-.103-.248-.103-.453 0-.462.521-.735.257-.137.479-.137l1.367-.025q.41 0 .675.495l1.726 3.46 1.88-3.503q.265-.487.684-.487.213 0 .47.129.52.273.52.734 0 .205-.102.453l-2.29 4.503-.009 3.666q-.068.846-.812.855h-1.751q-.855 0-.855-.846v-3.563zM240.067 52.79h4.127q.855 0 .863.838v1.76q-.017.786-.871.855h-5.965q-.846-.069-.854-.846v-1.77q0-.392.299-.7l4.631-5.255h-4.076q-.846-.068-.854-.846 0-.854.846-.854h5.708l.384-.01q.564.052.727.633.034.111.034.23 0 .163-.077.342-.043.12-.128.214-.01.026-.026.043l-4.768 5.366zM1.86 78.075q-.418 0-.418-.427 0-.146.05-.24l-.008-.009 1.752-7.323.29-1.221.086-.35q.162-.667.76-.667.069 0 .146.009v-.01H7.32v.01q.077-.01.145-.01.598 0 .76.667l.086.35 2.102 8.537q.026.102.026.282 0 .427-.428.427H7.773q-.076.01-.145.01-.598 0-.76-.667l-1.803-7.366h-.009L3.33 77.426q-.162.666-.76.666l-.71-.017zm4.102-.82q-.068.846-.855.854-.854 0-.854-.837l-.009-1.735q0-.854.855-.854.786.009.854.863l.009 1.709zM15.746 69.564l-2.564-.009v2.572h2.564v-2.563zm1.555 2.59l1.025-.01q.838 0 .838.872l-.017 4.221q0 .88-.855.88L14.2 78.1q-.068.01-.136.01h-1.735q-.855 0-.855-.847v-8.545q0-.854.855-.854l4.136.009q.837 0 .837.871v3.41zm-2.41 1.691v2.564h2.572l.017-2.555-2.589-.01zM27.709 77.255q-.069.854-.812.854h-5.178q-.855 0-.855-.854l.009-8.648q0-.82.837-.82h5.999q.854 0 .854.837v1.735q0 .812-.854.829-.863-.01-.863-.812v-.812l-2.555-.009.008 6.845h2.538q.837 0 .872.854zM33.28 69.539l-1.29.009.017 6.844h1.341l1.71-3.375-1.778-3.478zm.632 8.57h-2.785q-.855 0-.855-.846v-8.579q0-.854.855-.854l3.4-.01v.018h.778q.41 0 .675.495l1.974 3.777q.222.436.222.863 0 .445-.23.88L36.03 77.64q-.264.478-.683.478h-1.325q-.05 0-.11-.009zM46.482 72.068q.854 0 .854.88 0 .854-.854.854H41.38v2.624l5.11.017q.871-.017.863.82.017.846-.838.846h-5.99q-.854 0-.854-.854l.009-4.316q-.01-.854.846-.863l.009-3.392q0-.854.854-.854l5.118-.01q.855 0 .855.898 0 .812-.855.812h-2.554v2.529l2.529.009zM52.489 73.845l.026 3.375q0 .89-.855.89h-1.734q-.855 0-.855-.847v-8.579q0-.854.855-.854l5.99-.01q.837 0 .837.82v.052q0 .82-.863.803l-5.11.018v2.614h5.101q.855 0 .855.855 0 .888-.855.888l-3.392-.025zM64.443 68.641q-.034.855-.871.855h-3.384l-.017 5.17 4.28.025v-1.709l-1.691-.017q-.863-.009-.863-.863.009-.863.872-.863l1.674.017.863-.009q.855.017.855.829v5.195q0 .838-.855.838-.863 0-.854-.889v-.82q-.855 1.709-2.136 1.709h-3.008q-.838 0-.838-.82l-.009-8.648q0-.855.855-.855h4.315q.744 0 .812.855zM72.177 68.71q0-.838.803-.838h1.734q.838 0 .838.872l-.01 8.494q0 .88-.854.88-.829-.01-.82-.889l.009-3.375-2.59-.01v3.41q0 .846-.854.846l-1.709.01q-.854 0-.854-.847v-8.545q0-.854.854-.854.855 0 .855.846v3.418h2.598V68.71zM81.55 77.263q-.068.846-.811.855h-1.752q-.855 0-.855-.846l-.009-8.596q0-.855.855-.855h1.786q.743.009.811.863l-.025 8.58zM85.814 68.684q.103-.854.846-.863l1.752-.034q.854 0 .854.854l-.017 6.964q.01 2.504-2.58 2.504h-2.572q-.846 0-.846-.837-.01-.906.846-.923h.871q.872 0 .88-.778l-.034-6.887zM95.436 73.854l-1.077-.01.026 3.376q0 .889-.855.889h-1.734q-.855 0-.855-.846v-8.58q0-.854.855-.854l1.734-.009q.838 0 .838.872l-.01 3.392 1.137-.009 2.05-3.922q.266-.496.676-.496.222 0 .478.137.522.273.522.735 0 .205-.103.453l-2.085 4.033 2.06 4.042q.102.248.102.453 0 .461-.521.734-.257.129-.47.129-.419 0-.684-.487l-2.085-4.034zM104.032 76.349l2.555.025v-.854q0-.803.863-.812.854.017.854.83v1.734q0 .837-.854.837h-5.999q-.837 0-.837-.82l-.009-8.648q0-.854.855-.854h1.751q.744.009.812.863l.009 7.699zM116.644 75.802q-.213.555-.914.555v-.009q-.692 0-.906-.555l-1.401-3.768v5.22q-.069.855-.82.864h-1.744q-.854 0-.854-.855l.009-8.647q0-.82.837-.82h2.307v.025q.445.043.727.538l1.845 4.905 1.855-4.896q.153-.436.615-.538l.675-.01q.863.026.863.83v8.63q0 .837-.854.837-.855 0-.864-.786v-5.22l-1.375 3.7zM123.207 70.077v7.246q-.01.786-.863.786-.855 0-.855-.837v-8.63q0-.804.863-.83l1.248.01q.487 0 .795.538l2.23 5.904V68.65q.068-.854.82-.863h1.743q.855 0 .855.855l-.01 8.647q0 .82-.837.82h-2.307q-.7 0-.914-.555l-2.769-7.477zM133.52 71.256V76.4h4.213v-5.135l-4.212-.01zm5.068-3.46q.854 0 .854.854v8.622q0 .837-.854.837h-5.999q-.846 0-.837-.837l-.01-8.63q0-.855.855-.855l5.99.009zM145.44 69.504l-2.58.01v2.614h2.564l.017-2.623zm3.376 3.487q0 .88-.855.88l-3.392-.026.026 3.375q0 .89-.855.89h-1.734q-.855 0-.855-.847v-8.579q0-.854.855-.854l5.99-.01q.837 0 .837.872l-.017 4.298zM156.532 76.383v-5.135h-4.213v5.144l4.213-.01zm-1.888 1.718l-3.248.009q-.854 0-.854-.855l.009-8.63q-.009-.838.837-.838h5.999q.854 0 .854.838v8.622q0 .854-.854.854h-.735l.624 1.23q.102.248.102.453 0 .462-.52.735-.257.128-.47.128-.42 0-.684-.487l-1.06-2.059zM164.231 69.496l-2.572.017v2.615h2.563l.01-2.632zm-.265 4.358l-.598-.01.026 3.376q0 .889-.855.889h-1.735q-.854 0-.854-.846v-8.58q0-.854.854-.854l5.99-.009q.838 0 .838.872l-.017 4.298q0 .88-.855.88l-.794-.01 1.546 3q.342.795-.419 1.188-.751.393-1.153-.359l-1.974-3.837zM176.185 71.256q.855 0 .855.837v5.196q0 .854-.855.854h-5.075q-.889-.009-.872-.854.009-.855.855-.855h4.238v-1.76l-5.144.01q-.812 0-.838-.838l-.009-5.17q0-.855.855-.855l5.93.01q.829.068.863.854-.009.854-.863.854l-5.033.01.026 1.717 5.067-.009zM183.055 77.255q-.068.854-.922.854-.855 0-.855-.854l.01-6.05h-2.094q-.872 0-.872-.786v-1.812q0-.82.837-.82h5.999q.854 0 .854.837v.128q0 .77-.863.77h-2.093v7.733zM188.14 67.787q.854 0 .923.854v6.05h4.212V68.65q0-.855.855-.855.854 0 .854.855v8.622q0 .837-.854.837h-5.999q-.846 0-.837-.837l-.01-8.63q0-.855.855-.855zM204.64 67.872q.419 0 .419.428 0 .145-.052.239l.01.009-1.752 7.323-.29 1.222-.086.35q-.163.667-.76.667-.07 0-.146-.01v.01h-2.803v-.01q-.077.01-.145.01-.598 0-.76-.667l-.086-.35-2.102-8.537q-.026-.102-.026-.282 0-.427.428-.427h2.238q.077-.009.146-.009.598 0 .76.667l1.803 7.365h.009l1.726-7.348q.162-.667.76-.667l.71.017zM212.416 73.033l-.684 2.837-.29 1.222-.086.35q-.128.522-.521.633v.034h-2.256V78.1q-.077.01-.145.01-.598 0-.76-.667l-.086-.35-2.102-8.537q-.026-.103-.026-.282 0-.427.427-.427h2.24q.076-.01.145-.01.598 0 .76.667l1.333 5.443 1.12-4.785.153-.64q.154-.625.692-.667h.163q.538.042.692.666l.154.641 1.093 4.674 1.248-5.315q.162-.666.76-.666l.71.017q.418 0 .418.427 0 .145-.05.24l.008.008-1.752 7.323-.29 1.222-.086.35q-.12.496-.478.624v.043h-.974v-.043q-.36-.128-.479-.623l-.085-.35-.29-1.223-.676-2.837zM223.353 71.769l1.487-3.504q.265-.487.684-.487.213 0 .47.128.52.274.52.735 0 .205-.102.453l-1.914 4.538 1.906 3.161q.102.248.102.453 0 .462-.512.735-.257.137-.479.137l-1.367-.01q-.41 0-.675-.495l-2.085-3.4-1.53 3.426q-.264.487-.683.487-.214 0-.47-.128-.521-.274-.521-.735 0-.205.102-.453l2.017-4.392-2.008-3.256q-.103-.248-.103-.453 0-.461.521-.735.257-.136.479-.136l1.367-.026q.41 0 .675.496l2.12 3.46zM230.087 73.708l-2.401-4.545q-.103-.248-.103-.453 0-.462.521-.735.257-.137.479-.137l1.367-.025q.41 0 .675.495l1.726 3.46 1.88-3.503q.265-.487.684-.487.213 0 .47.129.52.273.52.734 0 .205-.102.453l-2.29 4.503-.009 3.666q-.068.846-.812.855h-1.751q-.855 0-.855-.846v-3.563zM240.067 74.666h4.127q.855 0 .863.837v1.76q-.017.786-.871.855h-5.965q-.846-.069-.854-.846v-1.77q0-.392.299-.7l4.631-5.255h-4.076q-.846-.068-.854-.846 0-.854.846-.854h5.708l.384-.01q.564.052.727.633.034.111.034.23 0 .163-.077.342-.043.12-.128.214-.01.026-.026.043l-4.768 5.366zM3.843 93.131v5.144h4.212V93.14l-4.212-.01zm5.067-3.46q.854 0 .854.854v8.622q0 .837-.854.837H2.91q-.846 0-.837-.837l-.009-8.63q0-.855.855-.855l5.99.009zM13.242 93.131v5.144h4.213V93.14l-4.213-.01zm5.067-3.46q.855 0 .855.854v8.622q0 .837-.855.837h-5.998q-.846 0-.838-.837l-.008-8.63q0-.855.854-.855l5.99.009zM22.642 91.414v5.144h4.212v-5.136l-4.212-.009zm5.067-1.744q.854 0 .854.855v8.622q0 .837-.854.837H21.71q-.846 0-.837-.837l-.009-8.63q0-.855.855-.855l5.99.009zm-2.094 5.17q-.068.846-.854.863-.855 0-.855-.846l-.008-1.734q0-.855.854-.855.786.01.855.863l.008 1.71zM33.682 94.003h2.563V91.43l-2.563.009v2.563zm-3.401 1.709q0-1.692 1.683-1.692-1.692-.017-1.692-1.735V90.62q0-.872.838-.872l5.99-.009q.854 0 .854.855v3.418q-.017 1.692-1.735 1.717 1.718.01 1.735 1.71v1.7q0 .846-.854.846h-1.735q-.068 0-.137-.01l-4.093.018q-.854 0-.854-.88V95.71zm1.666.017l.017 2.555h2.572V95.72l-2.589.01zM48.806 99.138q-.068.846-.812.855h-1.751q-.855 0-.855-.846l-.009-8.596q0-.855.855-.855h1.786q.743.009.811.863l-.025 8.58zM55.642 99.138q-.068.846-.812.855H53.08q-.855 0-.855-.846l-.009-8.596q0-.855.855-.855h1.786q.743.009.811.863l-.025 8.58zM61.615 98.224l2.555.025v-.854q0-.803.863-.812.854.017.854.83v1.734q0 .837-.854.837h-5.999q-.837 0-.837-.82l-.009-8.648q0-.854.855-.854h1.751q.744.009.812.863l.009 7.699zM71.014 98.224l2.555.025v-.854q0-.803.863-.812.855.017.855.83v1.734q0 .837-.855.837h-5.998q-.838 0-.838-.82l-.009-8.648q0-.854.855-.854h1.752q.743.009.811.863l.01 7.699zM77.867 99.984q-.871-.009-.871-.812v-.034q.009-.854.854-.854h.863l-.009-6.87h-.837q-.872-.01-.872-.812v-.034q.01-.855.855-.855h1.487q.102-.017.222-.017h1.752q.743.009.811.863l.01 7.716h.837q.846 0 .854.855v.034q0 .803-.871.812l-5.085.009zM98.486 101.608v1.23h-.53q-2.127 0-2.853-.632-.718-.633-.718-2.521v-2.042q0-1.29-.462-1.786-.461-.496-1.674-.496h-.522V94.14h.522q1.221 0 1.674-.487.462-.495.462-1.768v-2.051q0-1.889.718-2.512.726-.633 2.854-.633h.53v1.222h-.582q-1.205 0-1.572.376t-.367 1.58v2.12q0 1.342-.393 1.948-.385.607-1.325.82.949.231 1.333.838.385.607.385 1.94v2.119q0 1.205.367 1.58.367.377 1.572.377h.581zM102.87 101.608h.598q1.196 0 1.555-.368.368-.367.368-1.59v-2.118q0-1.333.384-1.94.385-.607 1.333-.837-.948-.214-1.333-.82-.384-.607-.384-1.949v-2.12q0-1.212-.368-1.58-.359-.376-1.555-.376h-.598v-1.222h.538q2.128 0 2.837.633.718.623.718 2.512v2.05q0 1.274.461 1.77.462.486 1.675.486h.53v1.222h-.53q-1.213 0-1.675.496-.461.496-.461 1.786v2.042q0 1.888-.718 2.52-.71.633-2.837.633h-.538v-1.23zM118.9 86.688h3.623v1.222h-2.05v13.16h2.05v1.221H118.9V86.688zM129.556 86.688v15.603h-3.623v-1.222h2.042V87.91h-2.042v-1.222h3.623zM143.467 90.516q-.034.855-.872.855h-3.384l-.017 5.17 4.281.025v-1.709l-1.692-.017q-.863-.009-.863-.863.01-.863.872-.863l1.675.017.863-.009q.854.017.854.829v5.195q0 .838-.854.838-.863 0-.855-.889v-.82q-.854 1.709-2.136 1.709h-3.008q-.837 0-.837-.82l-.01-8.648q0-.855.855-.855h4.316q.743 0 .811.855zM147.73 95.712q-.837 0-.837-.872l.017-4.221q0-.88.855-.88l5.964.009q.855 0 .855.846v8.545q0 .854-.855.854l-5.101-.009q-.872.01-.872-.837 0-.846.872-.838l2.53-.009v-2.606l-3.427.017zm5.145-1.7v-2.564h-4.281v2.58l4.28-.017zM162.274 98.258v-5.135h-4.212v5.144l4.212-.01zm-1.888 1.718l-3.247.009q-.855 0-.855-.855l.01-8.63q-.01-.838.837-.838h5.998q.855 0 .855.838v8.622q0 .854-.855.854h-.735l.624 1.23q.103.248.103.453 0 .462-.522.735-.256.128-.47.128-.418 0-.683-.487l-1.06-2.059zM172.528 99.13q-.068.854-.812.854h-5.178q-.854 0-.854-.854l.009-8.648q0-.82.837-.82h5.999q.854 0 .854.837v1.735q0 .812-.854.829-.864-.01-.864-.812v-.812l-2.554-.009.009 6.845h2.537q.838 0 .872.854zM181.064 90.516q-.034.855-.871.855h-3.384l-.017 5.17 4.281.025v-1.709l-1.692-.017q-.863-.009-.863-.863.01-.863.872-.863l1.674.017.863-.009q.855.017.855.829v5.195q0 .838-.855.838-.863 0-.854-.889v-.82q-.854 1.709-2.136 1.709h-3.008q-.837 0-.837-.82l-.01-8.648q0-.855.855-.855h4.315q.744 0 .812.855zM190.472 98.258v-5.135h-4.212v5.144l4.212-.01zm-1.888 1.718l-3.247.009q-.855 0-.855-.855l.01-8.63q-.01-.838.837-.838h5.998q.855 0 .855.838v8.622q0 .854-.855.854h-.735l.624 1.23q.103.248.103.453 0 .462-.521.735-.257.128-.47.128-.42 0-.684-.487l-1.06-2.059zM210.698 93.003v1.52q-.897.676-1.666.966-.76.291-1.59.291-.94 0-2.187-.504l-.137-.051q-.06-.026-.188-.069-1.324-.53-2.127-.53-.752 0-1.487.334-.735.324-1.572 1.034v-1.521q.897-.675 1.657-.966.77-.3 1.598-.3.94 0 2.196.514l.128.05q.069.027.188.07 1.325.53 2.128.53.735 0 1.453-.326.726-.324 1.606-1.042zM214.253 95.703q-.846-.051-.855-.572l-.009-.581q0-.573.846-.573l2.59-.009q.854 0 .854.573v.598q-.009.504-.863.555l-2.564.01zM226.583 89.012v4.76h4.76v1.453h-4.76v4.76h-1.435v-4.76h-4.76v-1.453h4.76v-4.76h1.435zM235.051 92.037h10.955v1.436H235.05v-1.436zm0 3.487h10.955v1.452H235.05v-1.452zM249.714 91.37v-1.554l10.955 3.973v1.419l-10.955 3.973v-1.555l8.802-3.12-8.802-3.135z"/></g></g></svg>