<?xml version="1.0" encoding="UTF-8" standalone="no"?>
<svg
   version="1.1"
   id="svg2"
   viewBox="0 0 311.4966 108.74999"
   height="30.691664mm"
   width="87.911263mm"
   sodipodi:docname="Hurmit Nerd Font.svg"
   inkscape:version="1.1.2 (0a00cf5339, 2022-02-04)"
   xmlns:inkscape="http://www.inkscape.org/namespaces/inkscape"
   xmlns:sodipodi="http://sodipodi.sourceforge.net/DTD/sodipodi-0.dtd"
   xmlns="http://www.w3.org/2000/svg"
   xmlns:svg="http://www.w3.org/2000/svg"
   xmlns:rdf="http://www.w3.org/1999/02/22-rdf-syntax-ns#"
   xmlns:cc="http://creativecommons.org/ns#"
   xmlns:dc="http://purl.org/dc/elements/1.1/">
  <sodipodi:namedview
     id="namedview12"
     pagecolor="#ffffff"
     bordercolor="#666666"
     borderopacity="1.0"
     inkscape:pageshadow="2"
     inkscape:pageopacity="0.0"
     inkscape:pagecheckerboard="0"
     inkscape:document-units="mm"
     showgrid="false"
     inkscape:zoom="0.64052329"
     inkscape:cx="328.63754"
     inkscape:cy="475.39255"
     inkscape:window-width="1458"
     inkscape:window-height="976"
     inkscape:window-x="0"
     inkscape:window-y="32"
     inkscape:window-maximized="0"
     inkscape:current-layer="svg2" />
  <defs
     id="defs4" />
  <metadata
     id="metadata7">
    <rdf:RDF>
      <cc:Work
         rdf:about="">
        <dc:format>image/svg+xml</dc:format>
        <dc:type
           rdf:resource="http://purl.org/dc/dcmitype/StillImage" />
      </cc:Work>
    </rdf:RDF>
  </metadata>
  <g
     id="layer1"
     transform="translate(-65.002143,-80.308632)">
    <g
       aria-label="Hurmit Nerd Font"
       id="text4136"
       style="font-size:27.5px;line-height:125%;font-family:'Hurmit Nerd Font';text-decoration:underline;text-decoration-line:underline;letter-spacing:0px;word-spacing:0px;fill:#ffffff;stroke-width:1px">
      <path
         d="M 65.002143,80.308632 V 100.93363 H 67.477143 V 91.858632 H 75.204643 V 100.93363 H 77.679643 V 80.308632 H 75.204643 V 89.383632 H 67.477143 V 80.308632 Z"
         id="path829" />
      <path
         d="M 92.172108,87.183632 V 94.608632 C 92.172108,98.458632 92.144608,98.458632 88.294608,98.458632 84.444608,98.458632 84.444608,94.608632 84.444608,94.608632 V 87.183632 H 81.969608 V 94.608632 C 81.969608,94.608632 81.969608,100.93363 88.294608,100.93363 94.619608,100.93363 94.647108,100.93363 94.647108,94.608632 V 87.183632 Z"
         id="path831" />
      <path
         d="M 101.41207,94.058632 C 101.41207,89.658632 101.41207,89.658632 105.26207,89.658632 H 105.31707 C 106.58207,89.658632 109.13957,89.658632 109.13957,91.583632 H 111.61457 C 111.61457,87.183632 107.73707,87.183632 105.26207,87.183632 98.937072,87.183632 98.937072,87.183632 98.937072,94.058632 V 100.93363 H 101.41207 Z"
         id="path833" />
      <path
         d="M 118.37954,100.93363 V 93.508632 C 118.37954,89.658632 118.37954,89.713632 121.01954,89.658632 V 100.93363 H 123.49454 V 89.658632 C 126.07954,89.658632 126.10704,89.658632 126.10704,93.288632 V 93.508632 100.93363 H 128.58204 V 93.508632 C 128.58204,87.183632 128.55454,87.183632 122.22954,87.183632 115.90454,87.183632 115.90454,87.183632 115.90454,93.508632 V 100.93363 Z"
         id="path835" />
      <path
         d="M 134.1095,87.183632 V 89.658632 H 137.987 V 98.458632 H 132.872 V 100.93363 H 145.5495 V 98.458632 H 140.462 V 87.183632 Z M 137.987,80.308632 C 136.7495,80.308632 135.512,81.546132 135.512,82.783632 135.512,84.021132 136.7495,85.258632 137.987,85.258632 139.2245,85.258632 140.462,84.021132 140.462,82.783632 140.462,81.546132 139.2245,80.308632 137.987,80.308632 Z"
         id="path837" />
      <path
         d="M 152.97447,94.058632 V 89.658632 H 160.72947 V 87.183632 H 152.97447 V 80.308632 H 150.49947 V 94.058632 95.296132 C 150.49947,96.478632 150.91197,100.93363 156.85197,100.93363 158.91447,100.93363 160.81197,100.13613 162.51697,99.283632 L 161.41697,97.221132 C 160.17947,97.826132 159.05197,98.458632 156.85197,98.458632 154.78947,98.458632 152.97447,97.936132 152.97447,95.296132 Z"
         id="path839" />
      <path
         d="M 193.97689,80.308632 V 95.818632 C 191.47439,90.648632 188.99939,85.478632 186.52439,80.308632 H 183.77439 V 100.93363 H 186.24939 V 85.423632 C 188.72439,90.593632 191.22689,95.763632 193.72939,100.93363 H 196.45189 V 80.308632 Z"
         id="path841" />
      <path
         d="M 203.21686,92.821132 C 203.21686,89.658632 204.59186,89.658632 207.06686,89.658632 209.54186,89.658632 210.94436,89.658632 210.94436,92.821132 Z M 207.06686,87.183632 C 203.21686,87.183632 200.74186,87.183632 200.74186,94.058632 200.74186,100.93363 203.21686,100.93363 207.06686,100.93363 H 212.18186 V 98.458632 H 207.06686 C 204.59186,98.458632 203.21686,98.458632 203.21686,95.296132 H 213.41936 V 94.058632 C 213.41936,87.183632 210.91686,87.183632 207.06686,87.183632 Z"
         id="path843" />
      <path
         d="M 220.18433,94.058632 C 220.18433,89.658632 220.18433,89.658632 224.03433,89.658632 H 224.08933 C 225.35433,89.658632 227.91183,89.658632 227.91183,91.583632 H 230.38683 C 230.38683,87.183632 226.50933,87.183632 224.03433,87.183632 217.70933,87.183632 217.70933,87.183632 217.70933,94.058632 V 100.93363 H 220.18433 Z"
         id="path845" />
      <path
         d="M 234.6768,94.058632 C 234.6768,94.058632 234.6768,100.93363 241.0018,100.93363 H 244.2743 247.3543 V 90.978632 80.308632 H 244.8793 V 83.746132 86.633632 87.183632 H 244.4118 241.0018 C 234.6768,87.183632 234.6768,94.058632 234.6768,94.058632 Z M 244.3018,98.458632 H 241.0018 C 237.1518,98.458632 237.1518,94.058632 237.1518,94.058632 237.1518,94.058632 237.1518,89.658632 241.0018,89.658632 H 244.4118 244.8793 V 98.458632 Z"
         id="path847" />
      <path
         d="M 268.61172,80.308632 V 100.93363 H 271.08672 V 91.858632 H 276.20172 V 89.383632 H 271.08672 V 82.783632 H 281.28922 V 80.308632 Z"
         id="path849" />
      <path
         d="M 298.25669,94.058632 C 298.25669,87.183632 295.75419,87.183632 291.90419,87.183632 288.05419,87.183632 285.57919,87.183632 285.57919,94.058632 285.57919,100.93363 288.05419,100.93363 291.90419,100.93363 295.75419,100.93363 298.25669,100.93363 298.25669,94.058632 Z M 291.90419,89.658632 C 294.37919,89.658632 295.78169,89.658632 295.78169,94.058632 295.78169,98.458632 294.37919,98.458632 291.90419,98.458632 289.42919,98.458632 288.05419,98.458632 288.05419,94.058632 288.05419,89.658632 289.42919,89.658632 291.90419,89.658632 Z"
         id="path851" />
      <path
         d="M 305.02164,100.93363 V 93.508632 C 305.02164,89.658632 305.02164,89.658632 308.87164,89.658632 312.72164,89.658632 312.74914,93.508632 312.74914,93.508632 V 100.93363 H 315.22414 V 93.508632 C 315.22414,93.508632 315.19664,87.183632 308.87164,87.183632 302.54664,87.183632 302.54664,87.183632 302.54664,93.508632 V 100.93363 Z"
         id="path853" />
      <path
         d="M 322.64911,94.058632 V 89.658632 H 330.40411 V 87.183632 H 322.64911 V 80.308632 H 320.17411 V 94.058632 95.296132 C 320.17411,96.478632 320.58661,100.93363 326.52661,100.93363 328.58911,100.93363 330.48661,100.13613 332.19161,99.283632 L 331.09161,97.221132 C 329.85411,97.826132 328.72661,98.458632 326.52661,98.458632 324.46411,98.458632 322.64911,97.936132 322.64911,95.296132 Z"
         id="path855" />
    </g>
    <g
       aria-label="abcdefghijklmnopqrstuvwxyzABCDEFGHIJKLMNOPQRSTUVWXYZ oO08 iIlL1 {} [] g9qCGQ ~-+=&gt;"
       id="text4140"
       style="font-size:27.5px;line-height:125%;font-family:'Hurmit Nerd Font';letter-spacing:0px;word-spacing:0px;fill:#ffffff;stroke-width:1px">
      <path
         d="M 68.359403,138.34362 C 68.359403,137.36362 69.706903,137.34612 70.704403,137.34612 H 70.809403 72.909403 73.276903 V 139.35862 H 72.856903 70.809403 C 69.549403,139.35862 68.359403,139.35862 68.359403,138.34362 Z M 67.904403,134.54612 C 68.691903,134.16112 69.409403,133.75862 70.809403,133.75862 72.121903,133.75862 73.276903,134.09112 73.276903,135.77112 H 72.979403 70.809403 C 68.359403,135.77112 66.784403,136.13862 66.784403,138.34362 66.784403,140.30362 68.359403,140.93362 70.809403,140.93362 H 72.909403 74.851903 V 135.77112 C 74.851903,135.01862 74.589403,132.18362 70.809403,132.18362 69.496903,132.18362 68.289403,132.69112 67.204403,133.23362 Z"
         style="font-size:17.5px"
         id="path858" />
      <path
         d="M 85.64938,136.55862 C 85.64938,136.55862 85.63188,132.18362 81.60688,132.18362 H 79.47188 79.15688 V 131.83362 129.99612 127.80862 H 77.58188 V 134.59862 140.93362 H 79.54188 81.60688 C 85.63188,140.93362 85.64938,136.55862 85.64938,136.55862 Z M 79.54188,139.35862 H 79.15688 V 133.75862 H 79.43688 81.60688 C 84.05688,133.75862 84.07438,136.55862 84.07438,136.55862 84.07438,136.55862 84.05688,139.35862 81.60688,139.35862 Z"
         style="font-size:17.5px"
         id="path860" />
      <path
         d="M 96.446857,138.13362 H 94.871857 C 94.871857,139.35862 93.244357,139.35862 92.439357,139.35862 H 92.404357 C 90.829357,139.35862 89.954357,138.13362 89.954357,136.55862 89.954357,134.98362 90.829357,133.75862 92.404357,133.75862 H 92.439357 C 93.244357,133.75862 94.871857,133.75862 94.871857,134.98362 H 96.446857 C 96.446857,132.18362 93.979357,132.18362 92.404357,132.18362 89.954357,132.18362 88.379357,133.75862 88.379357,136.55862 88.379357,139.35862 89.954357,140.93362 92.404357,140.93362 93.979357,140.93362 96.446857,140.93362 96.446857,138.13362 Z"
         style="font-size:17.5px"
         id="path862" />
      <path
         d="M 99.176832,136.55862 C 99.176832,136.55862 99.176832,140.93362 103.20183,140.93362 H 105.28433 107.24433 V 134.59862 127.80862 H 105.66933 V 129.99612 131.83362 132.18362 H 105.37183 103.20183 C 99.176832,132.18362 99.176832,136.55862 99.176832,136.55862 Z M 105.30183,139.35862 H 103.20183 C 100.75183,139.35862 100.75183,136.55862 100.75183,136.55862 100.75183,136.55862 100.75183,133.75862 103.20183,133.75862 H 105.37183 105.66933 V 139.35862 Z"
         style="font-size:17.5px"
         id="path864" />
      <path
         d="M 111.54931,135.77112 C 111.54931,133.75862 112.42431,133.75862 113.99931,133.75862 115.57431,133.75862 116.46681,133.75862 116.46681,135.77112 Z M 113.99931,132.18362 C 111.54931,132.18362 109.97431,132.18362 109.97431,136.55862 109.97431,140.93362 111.54931,140.93362 113.99931,140.93362 H 117.25431 V 139.35862 H 113.99931 C 112.42431,139.35862 111.54931,139.35862 111.54931,137.34612 H 118.04181 V 136.55862 C 118.04181,132.18362 116.44931,132.18362 113.99931,132.18362 Z"
         style="font-size:17.5px"
         id="path866" />
      <path
         d="M 121.99679,140.93362 H 123.57179 V 136.55862 H 126.02179 V 134.98362 H 123.57179 V 131.39612 C 123.57179,130.13612 123.92179,129.38362 125.23429,129.38362 126.63429,129.38362 127.35179,129.78612 128.13929,130.17112 L 128.83929,128.85862 C 127.75429,128.31612 126.54679,127.80862 125.23429,127.80862 122.01429,127.80862 121.99679,130.59112 121.99679,131.37862 V 131.39612 Z"
         style="font-size:17.5px"
         id="path868" />
      <path
         d="M 139.63676,140.93362 V 136.55862 C 139.63676,132.18362 138.04426,132.18362 135.59426,132.18362 133.14426,132.18362 131.56926,132.18362 131.56926,136.55862 131.56926,140.93362 133.14426,140.93362 135.59426,140.93362 138.04426,140.93362 138.06176,140.65362 138.06176,140.65362 V 140.93362 141.72112 C 138.06176,143.40112 136.90676,143.73362 135.59426,143.73362 134.19426,143.73362 133.47676,143.33112 132.68926,142.94612 L 131.98926,144.25862 C 133.07426,144.80112 134.28176,145.30862 135.59426,145.30862 139.37426,145.30862 139.63676,142.47362 139.63676,141.72112 Z M 135.59426,133.75862 C 137.16926,133.75862 138.06176,133.75862 138.06176,136.55862 138.06176,139.35862 137.16926,139.35862 135.59426,139.35862 134.01926,139.35862 133.14426,139.35862 133.14426,136.55862 133.14426,133.75862 134.01926,133.75862 135.59426,133.75862 Z"
         style="font-size:17.5px"
         id="path870" />
      <path
         d="M 150.43424,140.93362 V 136.55862 C 150.43424,136.55862 150.41674,132.18362 146.39174,132.18362 H 144.25674 143.94174 V 131.83362 129.99612 127.80862 H 142.36674 V 134.59862 140.93362 H 143.94174 V 133.75862 H 144.22174 146.39174 C 148.84174,133.75862 148.85924,136.55862 148.85924,136.55862 V 140.93362 Z"
         style="font-size:17.5px"
         id="path872" />
      <path
         d="M 153.95172,132.18362 V 133.75862 H 156.41922 V 139.35862 H 153.16422 V 140.93362 H 161.23172 V 139.35862 H 157.99422 V 132.18362 Z M 156.41922,127.80862 C 155.63172,127.80862 154.84422,128.59612 154.84422,129.38362 154.84422,130.17112 155.63172,130.95862 156.41922,130.95862 157.20672,130.95862 157.99422,130.17112 157.99422,129.38362 157.99422,128.59612 157.20672,127.80862 156.41922,127.80862 Z"
         style="font-size:17.5px"
         id="path874" />
      <path
         d="M 171.87169,140.93362 V 132.18362 H 165.36169 V 133.75862 H 170.29669 V 140.93362 141.72112 C 170.29669,143.40112 169.14169,143.73362 167.82919,143.73362 166.42919,143.73362 165.71169,143.33112 164.92419,142.94612 L 164.22419,144.25862 C 165.30919,144.80112 166.51669,145.30862 167.82919,145.30862 171.60919,145.30862 171.87169,142.47362 171.87169,141.72112 Z M 169.38669,127.80862 C 168.59919,127.80862 167.82919,128.59612 167.82919,129.38362 167.82919,130.17112 168.59919,130.95862 169.38669,130.95862 170.17419,130.95862 170.96169,130.17112 170.96169,129.38362 170.96169,128.59612 170.17419,127.80862 169.38669,127.80862 Z"
         style="font-size:17.5px"
         id="path876" />
      <path
         d="M 182.82667,140.93362 179.76417,136.55862 C 180.77917,135.10612 181.81167,133.63612 182.82667,132.18362 H 180.91917 C 179.39667,134.35362 177.85667,136.52362 176.33417,138.69362 V 127.80862 H 174.75917 V 140.93362 H 176.68417 C 177.38417,139.91862 178.08417,138.93862 178.78417,137.92362 L 180.91917,140.93362 Z"
         style="font-size:17.5px"
         id="path878" />
      <path
         d="M 187.23665,127.80862 V 129.38362 H 188.81165 V 139.35862 H 185.55665 V 140.93362 H 193.62415 V 139.35862 H 190.38665 V 127.80862 Z"
         style="font-size:17.5px"
         id="path880" />
      <path
         d="M 197.92912,140.93362 V 136.20862 C 197.92912,133.75862 197.92912,133.79362 199.60912,133.75862 V 140.93362 H 201.18412 V 133.75862 C 202.82912,133.75862 202.84662,133.75862 202.84662,136.06862 V 136.20862 140.93362 H 204.42162 V 136.20862 C 204.42162,132.18362 204.40412,132.18362 200.37912,132.18362 196.35412,132.18362 196.35412,132.18362 196.35412,136.20862 V 140.93362 Z"
         style="font-size:17.5px"
         id="path882" />
      <path
         d="M 208.72661,140.93362 V 136.20862 C 208.72661,133.75862 208.72661,133.75862 211.17661,133.75862 213.62661,133.75862 213.64411,136.20862 213.64411,136.20862 V 140.93362 H 215.21911 V 136.20862 C 215.21911,136.20862 215.20161,132.18362 211.17661,132.18362 207.15161,132.18362 207.15161,132.18362 207.15161,136.20862 V 140.93362 Z"
         style="font-size:17.5px"
         id="path884" />
      <path
         d="M 226.01658,136.55862 C 226.01658,132.18362 224.42408,132.18362 221.97408,132.18362 219.52408,132.18362 217.94908,132.18362 217.94908,136.55862 217.94908,140.93362 219.52408,140.93362 221.97408,140.93362 224.42408,140.93362 226.01658,140.93362 226.01658,136.55862 Z M 221.97408,133.75862 C 223.54908,133.75862 224.44158,133.75862 224.44158,136.55862 224.44158,139.35862 223.54908,139.35862 221.97408,139.35862 220.39908,139.35862 219.52408,139.35862 219.52408,136.55862 219.52408,133.75862 220.39908,133.75862 221.97408,133.75862 Z"
         style="font-size:17.5px"
         id="path886" />
      <path
         d="M 236.81406,136.55862 C 236.81406,136.55862 236.79656,132.18362 232.77156,132.18362 H 230.70656 228.74656 V 138.51862 145.30862 H 230.32156 V 143.12112 141.28362 140.93362 H 230.63656 232.77156 C 236.79656,140.93362 236.81406,136.55862 236.81406,136.55862 Z M 230.70656,133.75862 H 232.77156 C 235.22156,133.75862 235.23906,136.55862 235.23906,136.55862 235.23906,136.55862 235.22156,139.35862 232.77156,139.35862 H 230.60156 230.32156 V 133.75862 Z"
         style="font-size:17.5px"
         id="path888" />
      <path
         d="M 239.54403,136.55862 C 239.54403,136.55862 239.54403,140.93362 243.56903,140.93362 H 245.73903 246.03653 V 141.28362 143.12112 145.30862 H 247.61153 V 138.51862 132.18362 H 245.65153 243.56903 C 239.54403,132.18362 239.54403,136.55862 239.54403,136.55862 Z M 245.66903,133.75862 H 246.03653 V 139.35862 H 245.73903 243.56903 C 241.11903,139.35862 241.11903,136.55862 241.11903,136.55862 241.11903,136.55862 241.11903,133.75862 243.56903,133.75862 Z"
         style="font-size:17.5px"
         id="path890" />
      <path
         d="M 251.9165,136.55862 C 251.9165,133.75862 251.9165,133.75862 254.3665,133.75862 H 254.4015 C 255.2065,133.75862 256.834,133.75862 256.834,134.98362 H 258.409 C 258.409,132.18362 255.9415,132.18362 254.3665,132.18362 250.3415,132.18362 250.3415,132.18362 250.3415,136.55862 V 140.93362 H 251.9165 Z"
         style="font-size:17.5px"
         id="path892" />
      <path
         d="M 265.32149,137.34612 C 266.79149,137.34612 267.63149,137.36362 267.63149,138.34362 267.63149,139.35862 266.73899,139.35862 265.16399,139.35862 263.58899,139.35862 262.71399,139.35862 262.71399,138.34362 H 261.13899 C 261.13899,140.93362 262.71399,140.93362 265.16399,140.93362 267.61399,140.93362 269.20649,140.93362 269.20649,138.34362 269.20649,135.78862 267.07149,135.77112 265.23399,135.77112 H 265.00649 C 263.53649,135.77112 262.71399,135.75362 262.71399,134.77362 262.71399,133.75862 263.58899,133.75862 265.16399,133.75862 266.73899,133.75862 267.63149,133.75862 267.63149,134.77362 H 269.20649 C 269.20649,132.18362 267.61399,132.18362 265.16399,132.18362 262.71399,132.18362 261.13899,132.18362 261.13899,134.77362 261.13899,137.32862 263.25649,137.34612 265.09399,137.34612 Z"
         style="font-size:17.5px"
         id="path894" />
      <path
         d="M 273.93146,136.55862 V 133.75862 H 278.86646 V 132.18362 H 273.93146 V 127.80862 H 272.35646 V 136.55862 137.34612 C 272.35646,138.09862 272.61896,140.93362 276.39896,140.93362 277.71146,140.93362 278.91896,140.42612 280.00396,139.88362 L 279.30396,138.57112 C 278.51646,138.95612 277.79896,139.35862 276.39896,139.35862 275.08646,139.35862 273.93146,139.02612 273.93146,137.34612 Z"
         style="font-size:17.5px"
         id="path896" />
      <path
         d="M 289.22644,132.18362 V 136.90862 C 289.22644,139.35862 289.20894,139.35862 286.75894,139.35862 284.30894,139.35862 284.30894,136.90862 284.30894,136.90862 V 132.18362 H 282.73394 V 136.90862 C 282.73394,136.90862 282.73394,140.93362 286.75894,140.93362 290.78394,140.93362 290.80144,140.93362 290.80144,136.90862 V 132.18362 Z"
         style="font-size:17.5px"
         id="path898" />
      <path
         d="M 298.39641,140.93362 301.59891,132.18362 H 299.90141 L 297.55641,138.65862 295.22891,132.18362 H 293.53141 L 296.71641,140.93362 Z"
         style="font-size:17.5px"
         id="path900" />
      <path
         d="M 306.4989,137.31112 305.9214,132.18362 H 304.3289 L 305.3264,140.93362 H 306.9189 L 308.3539,136.76862 309.8239,140.93362 H 311.3989 L 312.3964,132.18362 H 310.8039 L 310.2264,137.31112 309.1589,134.19612 H 307.5839 Z"
         style="font-size:17.5px"
         id="path902" />
      <path
         d="M 318.20637,136.55862 315.12637,140.93362 H 317.05137 L 319.15137,137.92362 321.28637,140.93362 H 323.19387 L 320.13137,136.55862 323.19387,132.18362 H 321.28637 L 319.15137,135.19362 317.05137,132.18362 H 315.12637 Z"
         style="font-size:17.5px"
         id="path904" />
      <path
         d="M 329.10884,140.93362 327.53384,145.30862 H 329.17884 L 330.78884,140.93362 333.99134,132.18362 H 332.29384 L 329.94884,138.65862 327.62134,132.18362 H 325.92384 Z"
         style="font-size:17.5px"
         id="path906" />
      <path
         d="M 339.74882,139.35862 C 341.42882,136.97862 343.10882,134.56362 344.78882,132.18362 H 336.72132 V 133.75862 H 341.76132 C 340.08132,136.13862 338.40132,138.55362 336.72132,140.93362 H 344.78882 V 139.35862 Z"
         style="font-size:17.5px"
         id="path908" />
      <path
         d="M 71.649403,149.68362 H 69.969403 L 66.784403,162.80862 H 68.411903 L 69.269403,159.22112 H 72.349403 L 73.224403,162.80862 H 74.851903 Z M 71.964403,157.64612 H 69.671903 L 70.809403,152.93862 Z"
         style="font-size:17.5px"
         id="path910" />
      <path
         d="M 79.15688,161.23362 V 156.05362 H 81.60688 C 84.05688,156.05362 84.07438,158.64362 84.07438,158.64362 84.07438,158.64362 84.05688,161.23362 81.60688,161.23362 Z M 77.58188,156.05362 V 162.80862 H 81.60688 C 85.63188,162.80862 85.64938,158.64362 85.64938,158.64362 85.64938,158.64362 85.63188,156.38612 83.77688,155.37112 84.86188,154.77612 84.86188,153.07862 84.86188,153.07862 84.86188,153.07862 84.86188,149.68362 81.60688,149.68362 H 77.58188 V 154.88112 Z M 81.60688,154.88112 H 79.15688 V 151.25862 H 81.60688 C 83.28688,151.25862 83.28688,153.07862 83.28688,153.07862 83.28688,153.07862 83.28688,154.88112 81.60688,154.88112 Z"
         style="font-size:17.5px"
         id="path912" />
      <path
         d="M 96.446857,160.00862 H 94.871857 C 94.871857,161.23362 93.244357,161.23362 92.439357,161.23362 H 92.404357 C 90.829357,161.23362 89.954357,160.00862 89.954357,156.24612 89.954357,152.48362 90.829357,151.25862 92.404357,151.25862 H 92.439357 C 93.244357,151.25862 94.871857,151.25862 94.871857,152.48362 H 96.446857 C 96.446857,149.68362 93.979357,149.68362 92.404357,149.68362 89.954357,149.68362 88.379357,151.25862 88.379357,156.24612 88.379357,161.23362 89.954357,162.80862 92.404357,162.80862 93.979357,162.80862 96.446857,162.80862 96.446857,160.00862 Z"
         style="font-size:17.5px"
         id="path914" />
      <path
         d="M 100.75183,149.68362 H 99.176832 V 152.09862 162.80862 H 101.13683 103.20183 C 107.22683,162.80862 107.24433,156.24612 107.24433,156.24612 107.24433,156.24612 107.22683,149.68362 103.20183,149.68362 H 101.06683 Z M 101.13683,161.23362 H 100.75183 V 151.25862 H 101.03183 103.20183 C 105.65183,151.25862 105.66933,156.24612 105.66933,156.24612 105.66933,156.24612 105.65183,161.23362 103.20183,161.23362 Z"
         style="font-size:17.5px"
         id="path916" />
      <path
         d="M 109.97431,149.68362 V 162.80862 H 118.04181 V 161.23362 H 111.54931 V 157.03362 H 114.80431 V 155.45862 H 111.54931 V 151.25862 H 118.04181 V 149.68362 Z"
         style="font-size:17.5px"
         id="path918" />
      <path
         d="M 120.77179,149.68362 V 162.80862 H 122.34679 V 157.03362 H 125.60179 V 155.45862 H 122.34679 V 151.25862 H 128.83929 V 149.68362 Z"
         style="font-size:17.5px"
         id="path920" />
      <path
         d="M 138.06176,156.24612 H 135.59426 V 157.82112 H 138.06176 V 160.00862 C 138.06176,161.23362 136.43426,161.23362 135.62926,161.23362 H 135.59426 C 134.01926,161.23362 133.14426,160.00862 133.14426,156.24612 133.14426,152.48362 134.01926,151.25862 135.59426,151.25862 H 135.62926 C 136.43426,151.25862 138.06176,151.25862 138.06176,152.48362 H 139.63676 C 139.63676,149.68362 137.16926,149.68362 135.59426,149.68362 133.14426,149.68362 131.56926,151.25862 131.56926,156.24612 131.56926,161.23362 133.14426,162.80862 135.59426,162.80862 137.16926,162.80862 139.63676,162.80862 139.63676,160.00862 V 157.82112 C 139.63676,156.24612 138.06176,156.24612 138.06176,156.24612 Z"
         style="font-size:17.5px"
         id="path922" />
      <path
         d="M 142.36674,149.68362 V 162.80862 H 143.94174 V 157.03362 H 148.85924 V 162.80862 H 150.43424 V 149.68362 H 148.85924 V 155.45862 H 143.94174 V 149.68362 Z"
         style="font-size:17.5px"
         id="path924" />
      <path
         d="M 160.89922,149.68362 H 153.51422 V 151.25862 H 156.41922 V 161.23362 H 153.51422 V 162.80862 H 160.89922 V 161.23362 H 157.99422 V 151.25862 H 160.89922 Z"
         style="font-size:17.5px"
         id="path926" />
      <path
         d="M 170.45419,151.25862 V 158.43362 C 170.45419,161.23362 169.56169,161.23362 167.98669,161.23362 166.41169,161.23362 165.53669,161.23362 165.53669,158.43362 H 163.96169 C 163.96169,162.80862 165.53669,162.80862 167.98669,162.80862 170.43669,162.80862 172.02919,162.80862 172.02919,158.43362 V 149.68362 H 167.98669 V 151.25862 Z"
         style="font-size:17.5px"
         id="path928" />
      <path
         d="M 174.75917,149.68362 V 162.80862 H 176.50917 L 178.78417,158.04862 181.09417,162.80862 H 182.82667 L 179.65917,156.24612 182.82667,149.68362 H 181.09417 C 179.50167,152.97362 177.92667,156.26362 176.33417,159.55362 V 149.68362 Z"
         style="font-size:17.5px"
         id="path930" />
      <path
         d="M 185.55665,149.68362 V 162.80862 H 193.62415 V 161.28612 L 187.13165,161.23362 V 149.68362 Z"
         style="font-size:17.5px"
         id="path932" />
      <path
         d="M 202.84662,152.86862 V 162.80862 H 204.42162 V 149.68362 H 202.68912 L 200.37912,154.47862 198.10412,149.68362 H 196.35412 V 162.80862 H 197.92912 V 152.86862 L 199.52162,156.24612 H 201.28912 Z"
         style="font-size:17.5px"
         id="path934" />
      <path
         d="M 213.64411,149.68362 V 159.55362 C 212.05161,156.26362 210.47661,152.97362 208.90161,149.68362 H 207.15161 V 162.80862 H 208.72661 V 152.93862 C 210.30161,156.22862 211.89411,159.51862 213.48661,162.80862 H 215.21911 V 149.68362 Z"
         style="font-size:17.5px"
         id="path936" />
      <path
         d="M 226.01658,156.24612 C 226.01658,149.68362 224.42408,149.68362 221.97408,149.68362 219.52408,149.68362 217.94908,149.68362 217.94908,156.24612 217.94908,162.80862 219.52408,162.80862 221.97408,162.80862 224.42408,162.80862 226.01658,162.80862 226.01658,156.24612 Z M 221.97408,151.25862 C 223.54908,151.25862 224.44158,151.25862 224.44158,156.24612 224.44158,161.23362 223.54908,161.23362 221.97408,161.23362 220.39908,161.23362 219.52408,161.23362 219.52408,156.24612 219.52408,151.25862 220.39908,151.25862 221.97408,151.25862 Z"
         style="font-size:17.5px"
         id="path938" />
      <path
         d="M 230.32156,155.45862 V 151.25862 H 232.77156 C 235.22156,151.25862 235.23906,153.35862 235.23906,153.35862 235.23906,153.35862 235.22156,155.45862 232.77156,155.45862 Z M 228.74656,149.68362 V 162.80862 H 230.32156 V 157.03362 H 232.77156 C 236.79656,157.03362 236.81406,153.35862 236.81406,153.35862 236.81406,153.35862 236.79656,149.68362 232.77156,149.68362 Z"
         style="font-size:17.5px"
         id="path940" />
      <path
         d="M 243.56903,151.25862 C 245.14403,151.25862 246.03653,151.25862 246.03653,156.24612 246.03653,157.33112 245.94903,158.24112 245.77403,158.97612 L 245.21403,157.82112 H 243.46403 C 244.18153,159.32612 244.16403,159.23862 244.88153,160.74362 244.53153,161.09362 244.05903,161.23362 243.56903,161.23362 241.99403,161.23362 241.11903,161.23362 241.11903,156.24612 241.11903,151.25862 241.99403,151.25862 243.56903,151.25862 Z M 245.44153,161.91612 245.87903,162.80862 H 247.61153 L 246.50903,160.53362 C 247.15653,159.41362 247.61153,157.96112 247.61153,156.24612 247.61153,149.68362 246.01903,149.68362 243.56903,149.68362 241.11903,149.68362 239.54403,149.68362 239.54403,156.24612 239.54403,162.80862 241.11903,162.80862 243.56903,162.80862 244.14653,162.80862 244.82903,162.49362 245.44153,161.91612 Z"
         style="font-size:17.5px"
         id="path942" />
      <path
         d="M 250.3415,149.68362 V 162.80862 H 251.9165 V 157.03362 H 253.8765 L 256.6765,162.80862 H 258.409 L 255.574,156.91112 C 256.099,156.91112 258.409,155.84362 258.409,153.35862 258.409,153.35862 258.3915,149.68362 254.3665,149.68362 Z M 251.9165,155.45862 V 151.25862 H 254.3665 C 256.8165,151.25862 256.834,153.35862 256.834,153.35862 256.834,153.35862 256.8165,155.45862 254.3665,155.45862 Z"
         style="font-size:17.5px"
         id="path944" />
      <path
         d="M 261.13899,152.97362 C 261.13899,156.64862 262.71399,156.64862 265.16399,156.64862 H 265.26899 C 267.29899,156.64862 267.63149,156.66612 267.63149,158.74862 267.63149,161.23362 266.73899,161.23362 265.16399,161.23362 H 265.12899 C 263.58899,161.23362 262.71399,161.21612 262.71399,159.65862 H 261.13899 C 261.13899,162.80862 262.71399,162.80862 265.16399,162.80862 267.61399,162.80862 269.20649,162.80862 269.20649,158.74862 269.20649,155.09112 267.64899,155.07362 265.23399,155.07362 H 265.16399 C 263.04649,155.07362 262.71399,155.07362 262.71399,152.97362 262.71399,151.25862 263.58899,151.25862 265.16399,151.25862 H 265.79399 C 266.98399,151.25862 267.63149,151.36362 267.63149,152.83362 H 269.20649 C 269.20649,150.27862 267.61399,149.68362 265.16399,149.68362 262.71399,149.68362 261.13899,149.68362 261.13899,152.97362 Z"
         style="font-size:17.5px"
         id="path946" />
      <path
         d="M 271.93646,149.68362 V 151.08362 H 275.19146 V 162.80862 H 276.76646 V 151.08362 H 280.00396 V 149.68362 Z"
         style="font-size:17.5px"
         id="path948" />
      <path
         d="M 289.22644,149.68362 V 158.78362 C 289.22644,161.23362 289.20894,161.23362 286.75894,161.23362 284.30894,161.23362 284.30894,158.78362 284.30894,158.78362 V 149.68362 H 282.73394 V 158.78362 C 282.73394,158.78362 282.73394,162.80862 286.75894,162.80862 290.78394,162.80862 290.80144,162.80862 290.80144,158.78362 V 149.68362 Z"
         style="font-size:17.5px"
         id="path950" />
      <path
         d="M 298.39641,162.80862 301.59891,149.68362 H 299.97141 L 297.55641,159.55362 295.15891,149.68362 H 293.53141 L 296.71641,162.80862 Z"
         style="font-size:17.5px"
         id="path952" />
      <path
         d="M 306.5514,158.01362 305.9214,149.68362 H 304.3289 L 305.3264,162.80862 H 306.9189 L 308.3539,157.15612 309.8239,162.80862 H 311.3989 L 312.3964,149.68362 H 310.8039 L 310.1739,158.04862 309.1589,154.05862 H 307.5489 Z"
         style="font-size:17.5px"
         id="path954" />
      <path
         d="M 321.46137,149.68362 319.15137,154.44362 316.87637,149.68362 H 315.12637 L 318.29387,156.24612 315.12637,162.80862 H 316.87637 L 319.15137,158.04862 321.46137,162.80862 H 323.19387 L 320.02637,156.24612 323.19387,149.68362 Z"
         style="font-size:17.5px"
         id="path956" />
      <path
         d="M 329.17884,156.24612 V 162.80862 H 330.75384 V 156.24612 L 333.99134,149.68362 H 332.22384 L 329.94884,154.30362 327.67384,149.68362 H 325.92384 Z"
         style="font-size:17.5px"
         id="path958" />
      <path
         d="M 344.78882,162.80862 V 161.23362 H 339.20632 C 341.06132,157.38362 342.93382,153.53362 344.78882,149.68362 H 336.72132 V 151.25862 H 342.28632 L 336.72132,162.80862 Z"
         style="font-size:17.5px"
         id="path960" />
      <path
         d="M 74.851903,180.30862 C 74.851903,175.93362 73.259403,175.93362 70.809403,175.93362 68.359403,175.93362 66.784403,175.93362 66.784403,180.30862 66.784403,184.68362 68.359403,184.68362 70.809403,184.68362 73.259403,184.68362 74.851903,184.68362 74.851903,180.30862 Z M 70.809403,177.50862 C 72.384403,177.50862 73.276903,177.50862 73.276903,180.30862 73.276903,183.10862 72.384403,183.10862 70.809403,183.10862 69.234403,183.10862 68.359403,183.10862 68.359403,180.30862 68.359403,177.50862 69.234403,177.50862 70.809403,177.50862 Z"
         style="font-size:17.5px"
         id="path962" />
      <path
         d="M 85.64938,178.12112 C 85.64938,171.55862 84.05688,171.55862 81.60688,171.55862 79.15688,171.55862 77.58188,171.55862 77.58188,178.12112 77.58188,184.68362 79.15688,184.68362 81.60688,184.68362 84.05688,184.68362 85.64938,184.68362 85.64938,178.12112 Z M 81.60688,173.13362 C 83.18188,173.13362 84.07438,173.13362 84.07438,178.12112 84.07438,183.10862 83.18188,183.10862 81.60688,183.10862 80.03188,183.10862 79.15688,183.10862 79.15688,178.12112 79.15688,173.13362 80.03188,173.13362 81.60688,173.13362 Z"
         style="font-size:17.5px"
         id="path964" />
      <path
         d="M 96.446857,178.12112 C 96.446857,171.55862 94.854357,171.55862 92.404357,171.55862 89.954357,171.55862 88.379357,171.55862 88.379357,178.12112 88.379357,184.68362 89.954357,184.68362 92.404357,184.68362 94.854357,184.68362 96.446857,184.68362 96.446857,178.12112 Z M 94.784357,175.93362 C 94.836857,176.52862 94.871857,177.22862 94.871857,178.12112 94.871857,183.10862 93.979357,183.10862 92.404357,183.10862 91.424357,183.10862 90.934357,183.03862 90.549357,182.40862 Z M 94.276857,173.83362 90.041857,180.32612 C 89.989357,179.73112 89.954357,179.01362 89.954357,178.12112 89.954357,173.13362 90.829357,173.13362 92.404357,173.13362 93.419357,173.13362 93.891857,173.20362 94.276857,173.83362 Z"
         style="font-size:17.5px"
         id="path966" />
      <path
         d="M 103.20183,173.13362 C 104.42683,173.13362 105.28433,173.79862 105.28433,175.02362 105.28433,176.24862 104.42683,176.91362 103.20183,176.91362 101.97683,176.91362 101.13683,176.24862 101.13683,175.02362 101.13683,173.79862 101.97683,173.13362 103.20183,173.13362 Z M 107.24433,180.79862 C 107.24433,178.73362 106.12433,178.24362 105.66933,177.71862 106.12433,177.19362 106.84183,176.49362 106.84183,175.02362 106.84183,172.92362 105.65183,171.55862 103.20183,171.55862 100.75183,171.55862 99.561832,172.92362 99.561832,175.02362 99.561832,176.49362 100.29683,177.19362 100.75183,177.71862 100.29683,178.24362 99.176832,178.71612 99.176832,180.79862 99.176832,182.89862 100.75183,184.68362 103.20183,184.68362 105.65183,184.68362 107.24433,182.89862 107.24433,180.79862 Z M 103.20183,178.48862 C 104.77683,178.48862 105.66933,179.22362 105.66933,180.79862 105.66933,182.37362 104.77683,183.10862 103.20183,183.10862 101.62683,183.10862 100.75183,182.37362 100.75183,180.79862 100.75183,179.22362 101.62683,178.48862 103.20183,178.48862 Z"
         style="font-size:17.5px"
         id="path968" />
      <path
         d="M 121.55929,175.93362 V 177.50862 H 124.02679 V 183.10862 H 120.77179 V 184.68362 H 128.83929 V 183.10862 H 125.60179 V 175.93362 Z M 124.02679,171.55862 C 123.23929,171.55862 122.45179,172.34612 122.45179,173.13362 122.45179,173.92112 123.23929,174.70862 124.02679,174.70862 124.81429,174.70862 125.60179,173.92112 125.60179,173.13362 125.60179,172.34612 124.81429,171.55862 124.02679,171.55862 Z"
         style="font-size:17.5px"
         id="path970" />
      <path
         d="M 139.30426,171.55862 H 131.91926 V 173.13362 H 134.82426 V 183.10862 H 131.91926 V 184.68362 H 139.30426 V 183.10862 H 136.39926 V 173.13362 H 139.30426 Z"
         style="font-size:17.5px"
         id="path972" />
      <path
         d="M 144.04674,171.55862 V 173.13362 H 145.62174 V 183.10862 H 142.36674 V 184.68362 H 150.43424 V 183.10862 H 147.19674 V 171.55862 Z"
         style="font-size:17.5px"
         id="path974" />
      <path
         d="M 153.16422,171.55862 V 184.68362 H 161.23172 V 183.16112 L 154.73922,183.10862 V 171.55862 Z"
         style="font-size:17.5px"
         id="path976" />
      <path
         d="M 165.88669,177.75362 168.79169,173.74612 V 184.68362 H 170.36669 V 171.55862 H 168.40669 L 163.96169,177.75362 Z"
         style="font-size:17.5px"
         id="path978" />
      <path
         d="M 186.23915,179.69612 C 188.79415,179.69612 188.81165,179.71362 188.81165,182.19862 188.81165,186.25862 190.38665,186.25862 192.94165,186.25862 V 184.68362 C 190.38665,184.68362 190.38665,184.68362 190.38665,182.19862 190.38665,180.48362 190.38665,179.48612 190.07165,178.90862 190.38665,178.33112 190.38665,177.33362 190.38665,175.61862 190.38665,173.13362 190.38665,173.13362 192.94165,173.13362 V 171.55862 C 190.38665,171.55862 188.81165,171.55862 188.81165,175.61862 188.81165,178.10362 188.79415,178.12112 186.23915,178.12112 Z"
         style="font-size:17.5px"
         id="path980" />
      <path
         d="M 203.73912,179.69612 V 178.12112 C 201.18412,178.12112 201.18412,178.10362 201.18412,175.61862 201.18412,171.55862 199.59162,171.55862 197.03662,171.55862 V 173.13362 C 199.59162,173.13362 199.60912,173.13362 199.60912,175.61862 V 176.10862 C 199.60912,177.52612 199.62662,178.38362 199.90662,178.90862 199.62662,179.43362 199.60912,180.29112 199.60912,181.70862 V 182.19862 C 199.60912,184.68362 199.59162,184.68362 197.03662,184.68362 V 186.25862 C 199.59162,186.25862 201.18412,186.25862 201.18412,182.19862 201.18412,179.71362 201.18412,179.69612 203.73912,179.69612 Z"
         style="font-size:17.5px"
         id="path982" />
      <path
         d="M 218.63158,171.55862 V 186.25862 H 225.33408 V 184.68362 H 220.20658 V 173.13362 H 225.33408 V 171.55862 Z"
         style="font-size:17.5px"
         id="path984" />
      <path
         d="M 236.13156,171.55862 H 229.42906 V 173.13362 H 234.55656 V 184.68362 H 229.42906 V 186.25862 H 236.13156 Z"
         style="font-size:17.5px"
         id="path986" />
      <path
         d="M 258.409,184.68362 V 180.30862 C 258.409,175.93362 256.8165,175.93362 254.3665,175.93362 251.9165,175.93362 250.3415,175.93362 250.3415,180.30862 250.3415,184.68362 251.9165,184.68362 254.3665,184.68362 256.8165,184.68362 256.834,184.40362 256.834,184.40362 V 184.68362 185.47112 C 256.834,187.15112 255.679,187.48362 254.3665,187.48362 252.9665,187.48362 252.249,187.08112 251.4615,186.69612 L 250.7615,188.00862 C 251.8465,188.55112 253.054,189.05862 254.3665,189.05862 258.1465,189.05862 258.409,186.22362 258.409,185.47112 Z M 254.3665,177.50862 C 255.9415,177.50862 256.834,177.50862 256.834,180.30862 256.834,183.10862 255.9415,183.10862 254.3665,183.10862 252.7915,183.10862 251.9165,183.10862 251.9165,180.30862 251.9165,177.50862 252.7915,177.50862 254.3665,177.50862 Z"
         style="font-size:17.5px"
         id="path988" />
      <path
         d="M 265.16399,173.13362 C 266.73899,173.13362 267.63149,174.04362 267.63149,175.61862 267.63149,177.19362 266.73899,178.12112 265.16399,178.12112 263.58899,178.12112 262.71399,177.19362 262.71399,175.61862 262.71399,174.04362 263.58899,173.13362 265.16399,173.13362 Z M 267.63149,178.80362 V 184.68362 H 269.20649 V 175.61862 C 269.20649,173.13362 267.61399,171.55862 265.16399,171.55862 262.71399,171.55862 261.13899,173.13362 261.13899,175.61862 261.13899,178.10362 262.71399,179.69612 265.16399,179.69612 266.14399,179.69612 267.21149,179.22362 267.63149,178.80362 Z"
         style="font-size:17.5px"
         id="path990" />
      <path
         d="M 271.93646,180.30862 C 271.93646,180.30862 271.93646,184.68362 275.96146,184.68362 H 278.13146 278.42896 V 185.03362 186.87112 189.05862 H 280.00396 V 182.26862 175.93362 H 278.04396 275.96146 C 271.93646,175.93362 271.93646,180.30862 271.93646,180.30862 Z M 278.06146,177.50862 H 278.42896 V 183.10862 H 278.13146 275.96146 C 273.51146,183.10862 273.51146,180.30862 273.51146,180.30862 273.51146,180.30862 273.51146,177.50862 275.96146,177.50862 Z"
         style="font-size:17.5px"
         id="path992" />
      <path
         d="M 290.80144,181.88362 H 289.22644 C 289.22644,183.10862 287.59894,183.10862 286.79394,183.10862 H 286.75894 C 285.18394,183.10862 284.30894,181.88362 284.30894,178.12112 284.30894,174.35862 285.18394,173.13362 286.75894,173.13362 H 286.79394 C 287.59894,173.13362 289.22644,173.13362 289.22644,174.35862 H 290.80144 C 290.80144,171.55862 288.33394,171.55862 286.75894,171.55862 284.30894,171.55862 282.73394,173.13362 282.73394,178.12112 282.73394,183.10862 284.30894,184.68362 286.75894,184.68362 288.33394,184.68362 290.80144,184.68362 290.80144,181.88362 Z"
         style="font-size:17.5px"
         id="path994" />
      <path
         d="M 300.02391,178.12112 H 297.55641 V 179.69612 H 300.02391 V 181.88362 C 300.02391,183.10862 298.39641,183.10862 297.59141,183.10862 H 297.55641 C 295.98141,183.10862 295.10641,181.88362 295.10641,178.12112 295.10641,174.35862 295.98141,173.13362 297.55641,173.13362 H 297.59141 C 298.39641,173.13362 300.02391,173.13362 300.02391,174.35862 H 301.59891 C 301.59891,171.55862 299.13141,171.55862 297.55641,171.55862 295.10641,171.55862 293.53141,173.13362 293.53141,178.12112 293.53141,183.10862 295.10641,184.68362 297.55641,184.68362 299.13141,184.68362 301.59891,184.68362 301.59891,181.88362 V 179.69612 C 301.59891,178.12112 300.02391,178.12112 300.02391,178.12112 Z"
         style="font-size:17.5px"
         id="path996" />
      <path
         d="M 308.3539,173.13362 C 309.9289,173.13362 310.8214,173.13362 310.8214,178.12112 310.8214,179.20612 310.7339,180.11612 310.5589,180.85112 L 309.9989,179.69612 H 308.2489 C 308.9664,181.20112 308.9489,181.11362 309.6664,182.61862 309.3164,182.96862 308.8439,183.10862 308.3539,183.10862 306.7789,183.10862 305.9039,183.10862 305.9039,178.12112 305.9039,173.13362 306.7789,173.13362 308.3539,173.13362 Z M 310.2264,183.79112 310.6639,184.68362 H 312.3964 L 311.2939,182.40862 C 311.9414,181.28862 312.3964,179.83612 312.3964,178.12112 312.3964,171.55862 310.8039,171.55862 308.3539,171.55862 305.9039,171.55862 304.3289,171.55862 304.3289,178.12112 304.3289,184.68362 305.9039,184.68362 308.3539,184.68362 308.9314,184.68362 309.6139,184.36862 310.2264,183.79112 Z"
         style="font-size:17.5px"
         id="path998" />
      <path
         d="M 325.92384,179.73112 H 327.49884 C 327.49884,179.73112 327.49884,178.90862 328.32134,178.90862 329.17884,178.90862 329.17884,180.48362 331.59384,180.48362 333.97384,180.48362 333.99134,178.24362 333.99134,178.12112 H 332.41634 C 332.41634,178.15612 332.41634,178.90862 331.59384,178.90862 330.75384,178.90862 330.75384,177.33362 328.33884,177.33362 325.92384,177.33362 325.92384,179.73112 325.92384,179.73112 Z"
         style="font-size:17.5px"
         id="path1000" />
      <path
         d="M 336.72132,178.12112 V 179.69612 H 344.78882 V 178.12112 Z"
         style="font-size:17.5px"
         id="path1002" />
      <path
         d="M 355.58631,178.12112 H 352.34881 V 174.53362 H 350.77381 V 178.12112 H 347.51881 V 179.69612 H 350.77381 V 183.28362 H 352.34881 V 179.69612 H 355.58631 Z"
         style="font-size:17.5px"
         id="path1004" />
      <path
         d="M 358.31626,175.93362 V 177.50862 H 366.38376 V 175.93362 Z M 358.31626,180.30862 V 181.88362 H 366.38376 V 180.30862 Z"
         style="font-size:17.5px"
         id="path1006" />
      <path
         d="M 376.49875,179.69612 V 178.12112 L 369.79625,174.53362 V 176.31862 L 374.60875,178.90862 369.79625,181.49862 V 183.28362 Z"
         style="font-size:17.5px"
         id="path1008" />
    </g>
  </g>
</svg>
