<svg xmlns="http://www.w3.org/2000/svg" width="332.362" height="116" viewBox="0 0 311.589 108.75"><g font-weight="400" font-family="Hurmit Nerd Font" letter-spacing="0" word-spacing="0" fill="#fff"><g style="line-height:125%;text-decoration-line:underline" font-size="27.5" text-decoration="underline"><path d="M0 0v20.625h2.475V11.55h7.728v9.075h2.475V0h-2.476v9.075H2.476V0H0zM27.175 6.875V14.3c0 3.85-.027 3.85-3.877 3.85-3.85 0-3.85-3.85-3.85-3.85V6.875h-2.475V14.3s0 6.325 6.325 6.325 6.352 0 6.352-6.325V6.875h-2.475zM36.42 13.75c0-4.4 0-4.4 3.85-4.4h.055c1.265 0 3.823 0 3.823 1.925h2.475c0-4.4-3.878-4.4-6.353-4.4-6.325 0-6.325 0-6.325 6.875v6.875h2.475V13.75zM53.393 20.625V13.2c0-3.85 0-3.795 2.64-3.85v11.275h2.475V9.35c2.585 0 2.612 0 2.612 3.63v7.645h2.475V13.2c0-6.325-.027-6.325-6.352-6.325s-6.325 0-6.325 6.325v7.425h2.475zM69.128 6.875V9.35h3.878v8.8H67.89v2.475h12.677V18.15h-5.087V6.875h-6.353zM73.006 0c-1.238 0-2.475 1.238-2.475 2.475 0 1.238 1.237 2.475 2.475 2.475 1.237 0 2.475-1.238 2.475-2.475C75.48 1.237 74.243 0 73.006 0zM87.998 13.75v-4.4h7.755V6.875h-7.755V0h-2.475v14.988c0 1.182.413 5.637 6.353 5.637 2.062 0 3.96-.798 5.665-1.65l-1.1-2.063c-1.238.606-2.365 1.238-4.565 1.238-2.063 0-3.878-.522-3.878-3.162V13.75zM129.011 0v15.51C126.51 10.34 124.034 5.17 121.56 0h-2.75v20.625h2.475V5.115a3990.06 3990.06 0 0 0 7.48 15.51h2.722V0h-2.475zM138.256 12.513c0-3.163 1.375-3.163 3.85-3.163s3.878 0 3.878 3.163h-7.728zm3.85-5.638c-3.85 0-6.325 0-6.325 6.875s2.475 6.875 6.325 6.875h5.115V18.15h-5.115c-2.475 0-3.85 0-3.85-3.162h10.203V13.75c0-6.875-2.503-6.875-6.353-6.875zM155.229 13.75c0-4.4 0-4.4 3.85-4.4h.055c1.265 0 3.822 0 3.822 1.925h2.475c0-4.4-3.877-4.4-6.352-4.4-6.325 0-6.325 0-6.325 6.875v6.875h2.475V13.75zM169.727 13.75s0 6.875 6.325 6.875h6.352V0h-2.475V6.875H176.052c-6.325 0-6.325 6.875-6.325 6.875zm9.625 4.4h-3.3c-3.85 0-3.85-4.4-3.85-4.4s0-4.4 3.85-4.4H179.929v8.8h-.577zM203.672 0v20.625h2.475V11.55h5.115V9.075h-5.115v-6.6h10.202V0h-12.677zM233.322 13.75c0-6.875-2.502-6.875-6.352-6.875-3.85 0-6.325 0-6.325 6.875s2.475 6.875 6.325 6.875 6.352 0 6.352-6.875zm-6.352-4.4c2.475 0 3.877 0 3.877 4.4s-1.402 4.4-3.877 4.4c-2.475 0-3.85 0-3.85-4.4s1.375-4.4 3.85-4.4zM240.092 20.625V13.2c0-3.85 0-3.85 3.85-3.85s3.878 3.85 3.878 3.85v7.425h2.475V13.2s-.028-6.325-6.353-6.325-6.325 0-6.325 6.325v7.425h2.475zM257.725 13.75v-4.4h7.755V6.875h-7.755V0h-2.475v14.988c0 1.182.412 5.637 6.352 5.637 2.063 0 3.96-.798 5.665-1.65l-1.1-2.063c-1.237.606-2.365 1.238-4.565 1.238-2.062 0-3.877-.522-3.877-3.162V13.75z"/></g><g style="line-height:125%" font-size="17.5"><path d="M3.357 58.035c0-.98 1.348-.998 2.345-.998h2.573v2.013H5.807c-1.26 0-2.45 0-2.45-1.015zm-.455-3.798c.788-.385 1.505-.787 2.905-.787 1.313 0 2.468.332 2.468 2.012H5.807c-2.45 0-4.025.368-4.025 2.573 0 1.96 1.575 2.59 4.025 2.59H9.85v-5.163c0-.752-.263-3.587-4.043-3.587-1.312 0-2.52.507-3.605 1.05l.7 1.312zM20.65 56.25s-.017-4.375-4.042-4.375H14.158V47.5h-1.575v13.125h4.025c4.025 0 4.043-4.375 4.043-4.375zm-6.107 2.8h-.385v-5.6h2.45c2.45 0 2.468 2.8 2.468 2.8s-.018 2.8-2.468 2.8h-2.065zM31.451 57.825h-1.575c0 1.225-1.627 1.225-2.432 1.225h-.035c-1.575 0-2.45-1.225-2.45-2.8 0-1.575.875-2.8 2.45-2.8h.035c.805 0 2.432 0 2.432 1.225h1.575c0-2.8-2.467-2.8-4.042-2.8-2.45 0-4.025 1.575-4.025 4.375s1.575 4.375 4.025 4.375c1.575 0 4.042 0 4.042-2.8zM34.185 56.25s0 4.375 4.025 4.375h4.042V47.5h-1.575v4.375H38.21c-4.025 0-4.025 4.375-4.025 4.375zm6.125 2.8h-2.1c-2.45 0-2.45-2.8-2.45-2.8s0-2.8 2.45-2.8h2.467v5.6h-.367zM46.56 55.462c0-2.012.875-2.012 2.45-2.012 1.575 0 2.468 0 2.468 2.012H46.56zm2.45-3.587c-2.45 0-4.025 0-4.025 4.375s1.575 4.375 4.025 4.375h3.255V59.05H49.01c-1.575 0-2.45 0-2.45-2.013h6.493v-.787c0-4.375-1.593-4.375-4.043-4.375zM57.011 60.625h1.575V56.25h2.45v-1.575h-2.45v-3.588c0-1.26.35-2.012 1.663-2.012 1.4 0 2.117.402 2.905.787l.7-1.312c-1.085-.543-2.293-1.05-3.605-1.05-3.22 0-3.238 2.782-3.238 3.57v9.555zM74.654 60.625V56.25c0-4.375-1.592-4.375-4.042-4.375-2.45 0-4.025 0-4.025 4.375s1.575 4.375 4.025 4.375 2.467-.28 2.467-.28V61.412c0 1.68-1.155 2.013-2.467 2.013-1.4 0-2.118-.403-2.905-.788l-.7 1.313c1.085.542 2.292 1.05 3.605 1.05 3.78 0 4.042-2.835 4.042-3.588v-.787zm-4.042-7.175c1.575 0 2.467 0 2.467 2.8s-.892 2.8-2.467 2.8c-1.575 0-2.45 0-2.45-2.8s.875-2.8 2.45-2.8zM85.455 60.625V56.25s-.017-4.375-4.042-4.375H78.963V47.5h-1.575v13.125h1.575V53.45h2.45c2.45 0 2.467 2.8 2.467 2.8v4.375h1.575zM88.976 51.875v1.575h2.468v5.6h-3.255v1.575h8.067V59.05h-3.237v-7.175h-4.043zm2.468-4.375c-.788 0-1.575.787-1.575 1.575 0 .787.787 1.575 1.575 1.575.787 0 1.575-.788 1.575-1.575 0-.788-.788-1.575-1.575-1.575zM106.9 60.625v-8.75h-6.51v1.575h4.934v7.962c0 1.68-1.155 2.013-2.467 2.013-1.4 0-2.118-.403-2.905-.788l-.7 1.313c1.085.542 2.292 1.05 3.605 1.05 3.78 0 4.042-2.835 4.042-3.588v-.787zM104.413 47.5c-.787 0-1.557.787-1.557 1.575 0 .787.77 1.575 1.557 1.575.788 0 1.575-.788 1.575-1.575 0-.788-.787-1.575-1.575-1.575zM117.858 60.625l-3.063-4.375c1.015-1.453 2.048-2.923 3.063-4.375h-1.908c-1.522 2.17-3.062 4.34-4.585 6.51V47.5h-1.575v13.125h1.925c.7-1.015 1.4-1.995 2.1-3.01l2.135 3.01h1.908zM122.27 47.5v1.575h1.576v9.975h-3.255v1.575h8.067V59.05h-3.237V47.5h-3.15zM132.967 60.625V55.9c0-2.45 0-2.415 1.68-2.45v7.175h1.575V53.45c1.645 0 1.662 0 1.662 2.31V60.625h1.575V55.9c0-4.025-.017-4.025-4.042-4.025-4.025 0-4.025 0-4.025 4.025v4.725h1.575zM143.767 60.625V55.9c0-2.45 0-2.45 2.45-2.45s2.468 2.45 2.468 2.45v4.725h1.575V55.9s-.018-4.025-4.043-4.025-4.025 0-4.025 4.025v4.725h1.575zM161.06 56.25c0-4.375-1.592-4.375-4.042-4.375-2.45 0-4.025 0-4.025 4.375s1.575 4.375 4.025 4.375 4.043 0 4.043-4.375zm-4.042-2.8c1.575 0 2.468 0 2.468 2.8s-.893 2.8-2.468 2.8-2.45 0-2.45-2.8.875-2.8 2.45-2.8zM171.861 56.25s-.017-4.375-4.042-4.375h-4.025V65h1.575v-4.375H167.819c4.025 0 4.042-4.375 4.042-4.375zm-6.107-2.8h2.065c2.45 0 2.467 2.8 2.467 2.8s-.017 2.8-2.467 2.8h-2.45v-5.6h.385zM174.595 56.25s0 4.375 4.025 4.375h2.467V65h1.575V51.875h-4.042c-4.025 0-4.025 4.375-4.025 4.375zm6.125-2.8h.367v5.6h-2.467c-2.45 0-2.45-2.8-2.45-2.8s0-2.8 2.45-2.8h2.1zM186.97 56.25c0-2.8 0-2.8 2.45-2.8h.036c.805 0 2.432 0 2.432 1.225h1.575c0-2.8-2.467-2.8-4.042-2.8-4.025 0-4.025 0-4.025 4.375v4.375h1.575V56.25zM200.379 57.037c1.47 0 2.31.018 2.31.998 0 1.015-.893 1.015-2.468 1.015s-2.45 0-2.45-1.015h-1.575c0 2.59 1.575 2.59 4.025 2.59s4.043 0 4.043-2.59c0-2.555-2.135-2.573-3.973-2.573h-.227c-1.47 0-2.293-.017-2.293-.997 0-1.015.875-1.015 2.45-1.015 1.575 0 2.468 0 2.468 1.015h1.575c0-2.59-1.593-2.59-4.043-2.59s-4.025 0-4.025 2.59c0 2.555 2.118 2.572 3.955 2.572h.228zM208.992 56.25v-2.8h4.935v-1.575h-4.935V47.5h-1.575v9.537c0 .753.263 3.588 4.043 3.588 1.312 0 2.52-.508 3.605-1.05l-.7-1.313c-.788.385-1.505.788-2.905.788-1.313 0-2.468-.333-2.468-2.013v-.787zM224.29 51.875V56.6c0 2.45-.017 2.45-2.467 2.45s-2.45-2.45-2.45-2.45v-4.725h-1.575V56.6s0 4.025 4.025 4.025 4.042 0 4.042-4.025v-4.725h-1.575zM233.464 60.625l3.202-8.75h-1.697l-2.345 6.475-2.328-6.475H228.6l3.185 8.75h1.68zM241.57 57.002l-.578-5.127h-1.593l.998 8.75h1.592l1.435-4.165 1.47 4.165h1.575l.998-8.75h-1.593l-.577 5.127-1.068-3.115h-1.575l-1.085 3.115zM253.28 56.25l-3.08 4.375h1.925l2.1-3.01 2.135 3.01h1.908l-3.063-4.375 3.063-4.375h-1.908l-2.135 3.01-2.1-3.01H250.2l3.08 4.375zM264.186 60.625L262.611 65h1.645l1.61-4.375 3.203-8.75h-1.698l-2.345 6.475-2.327-6.475H261l3.185 8.75zM274.83 59.05c1.68-2.38 3.36-4.795 5.04-7.175h-8.068v1.575h5.04c-1.68 2.38-3.36 4.795-5.04 7.175h8.067V59.05h-5.04zM6.647 69.375h-1.68L1.782 82.5H3.41l.857-3.588h3.08l.875 3.588H9.85L6.647 69.375zm.315 7.962H4.67l1.137-4.707 1.155 4.707zM14.158 80.925v-5.18h2.45c2.45 0 2.468 2.59 2.468 2.59s-.018 2.59-2.468 2.59h-2.45zm-1.575-5.18V82.5h4.025c4.025 0 4.043-4.165 4.043-4.165s-.018-2.258-1.873-3.273c1.085-.595 1.085-2.292 1.085-2.292s0-3.395-3.255-3.395h-4.025v6.37zm4.025-1.173h-2.45V70.95h2.45c1.68 0 1.68 1.82 1.68 1.82s0 1.802-1.68 1.802zM31.451 79.7h-1.575c0 1.225-1.627 1.225-2.432 1.225h-.035c-1.575 0-2.45-1.225-2.45-4.988 0-3.762.875-4.987 2.45-4.987h.035c.805 0 2.432 0 2.432 1.225h1.575c0-2.8-2.467-2.8-4.042-2.8-2.45 0-4.025 1.575-4.025 6.562 0 4.988 1.575 6.563 4.025 6.563 1.575 0 4.042 0 4.042-2.8zM35.76 69.375h-1.575V82.5h4.025c4.025 0 4.042-6.563 4.042-6.563s-.017-6.562-4.042-6.562H35.76zm.385 11.55h-.385V70.95h2.45c2.45 0 2.467 4.987 2.467 4.987s-.017 4.988-2.467 4.988h-2.065zM44.985 69.375V82.5h8.068v-1.575H46.56v-4.2h3.255V75.15H46.56v-4.2h6.493v-1.575h-8.068zM55.786 69.375V82.5h1.575v-5.775h3.255V75.15h-3.255v-4.2h6.493v-1.575h-8.068zM73.08 75.937h-2.468v1.575h2.467V79.7c0 1.225-1.627 1.225-2.432 1.225h-.035c-1.575 0-2.45-1.225-2.45-4.988 0-3.762.875-4.987 2.45-4.987h.035c.805 0 2.432 0 2.432 1.225h1.575c0-2.8-2.467-2.8-4.042-2.8-2.45 0-4.025 1.575-4.025 6.562 0 4.988 1.575 6.563 4.025 6.563 1.575 0 4.042 0 4.042-2.8v-2.188c0-1.575-1.575-1.575-1.575-1.575zM77.388 69.375V82.5h1.575v-5.775h4.917V82.5h1.575V69.375H83.88v5.775h-4.917v-5.775h-1.575zM95.924 69.375h-7.385v1.575h2.905v9.975h-2.905V82.5h7.385v-1.575h-2.905V70.95h2.905v-1.575zM105.482 70.95v7.175c0 2.8-.893 2.8-2.468 2.8s-2.45 0-2.45-2.8H98.99c0 4.375 1.575 4.375 4.025 4.375s4.043 0 4.043-4.375v-8.75h-4.043v1.575h2.468zM109.79 69.375V82.5h1.75l2.275-4.76 2.31 4.76h1.733l-3.168-6.563 3.168-6.562h-1.733c-1.592 3.29-3.167 6.58-4.76 9.87v-9.87h-1.575zM120.59 69.375V82.5h8.068v-1.523l-6.492-.052v-11.55h-1.575zM137.884 72.56v9.94h1.575V69.375h-1.732l-2.31 4.795-2.275-4.795h-1.75V82.5h1.575v-9.94l1.592 3.377h1.768l1.557-3.377zM148.685 69.375v9.87c-1.593-3.29-3.168-6.58-4.743-9.87h-1.75V82.5h1.575v-9.87c1.575 3.29 3.168 6.58 4.76 9.87h1.733V69.375h-1.575zM161.06 75.937c0-6.562-1.592-6.562-4.042-6.562-2.45 0-4.025 0-4.025 6.562 0 6.563 1.575 6.563 4.025 6.563s4.043 0 4.043-6.563zm-4.042-4.987c1.575 0 2.468 0 2.468 4.987 0 4.988-.893 4.988-2.468 4.988s-2.45 0-2.45-4.988c0-4.987.875-4.987 2.45-4.987zM165.369 75.15v-4.2h2.45c2.45 0 2.467 2.1 2.467 2.1s-.017 2.1-2.467 2.1h-2.45zm-1.575-5.775V82.5h1.575v-5.775h2.45c4.025 0 4.042-3.675 4.042-3.675s-.017-3.675-4.042-3.675h-4.025zM178.62 70.95c1.575 0 2.467 0 2.467 4.987 0 1.085-.087 1.995-.262 2.73l-.56-1.155h-1.75c.717 1.505.7 1.418 1.417 2.923-.35.35-.822.49-1.312.49-1.575 0-2.45 0-2.45-4.988 0-4.987.875-4.987 2.45-4.987zm1.872 10.657l.438.893h1.732l-1.102-2.275c.647-1.12 1.102-2.573 1.102-4.288 0-6.562-1.592-6.562-4.042-6.562-2.45 0-4.025 0-4.025 6.562 0 6.563 1.575 6.563 4.025 6.563.577 0 1.26-.315 1.872-.893zM185.396 69.375V82.5h1.575v-5.775h1.96l2.8 5.775h1.732l-2.835-5.898c.525 0 2.835-1.067 2.835-3.552 0 0-.017-3.675-4.042-3.675h-4.025zm1.575 5.775v-4.2h2.45c2.45 0 2.467 2.1 2.467 2.1s-.017 2.1-2.467 2.1h-2.45zM196.196 72.665c0 3.675 1.575 3.675 4.025 3.675h.105c2.03 0 2.363.017 2.363 2.1 0 2.485-.893 2.485-2.468 2.485h-.035c-1.54 0-2.415-.018-2.415-1.575h-1.575c0 3.15 1.575 3.15 4.025 3.15s4.043 0 4.043-4.06c0-3.658-1.558-3.675-3.973-3.675h-.07c-2.117 0-2.45 0-2.45-2.1 0-1.715.875-1.715 2.45-1.715h.63c1.19 0 1.838.105 1.838 1.575h1.575c0-2.555-1.593-3.15-4.043-3.15s-4.025 0-4.025 3.29zM206.997 69.375v1.4h3.255V82.5h1.575V70.775h3.238v-1.4h-8.068zM224.29 69.375v9.1c0 2.45-.017 2.45-2.467 2.45s-2.45-2.45-2.45-2.45v-9.1h-1.575v9.1s0 4.025 4.025 4.025 4.042 0 4.042-4.025v-9.1h-1.575zM233.464 82.5l3.202-13.125h-1.627l-2.415 9.87-2.398-9.87H228.6l3.185 13.125h1.68zM241.622 77.705l-.63-8.33h-1.593l.998 13.125h1.592l1.435-5.653 1.47 5.653h1.575l.998-13.125h-1.593l-.63 8.365-1.015-3.99h-1.61l-.997 3.955zM256.535 69.375l-2.31 4.76-2.275-4.76h-1.75l3.168 6.562L250.2 82.5h1.75l2.275-4.76 2.31 4.76h1.733l-3.168-6.563 3.168-6.562h-1.733zM264.256 75.937V82.5h1.575v-6.563l3.238-6.562H267.3l-2.275 4.62-2.275-4.62h-1.75l3.255 6.562zM279.87 82.5v-1.575h-5.583c1.855-3.85 3.727-7.7 5.582-11.55h-8.067v1.575h5.565l-5.565 11.55h8.067zM9.85 100c0-4.375-1.593-4.375-4.043-4.375s-4.025 0-4.025 4.375 1.575 4.375 4.025 4.375 4.043 0 4.043-4.375zm-4.043-2.8c1.575 0 2.468 0 2.468 2.8s-.893 2.8-2.468 2.8-2.45 0-2.45-2.8.875-2.8 2.45-2.8zM20.65 97.812c0-6.562-1.592-6.562-4.042-6.562-2.45 0-4.025 0-4.025 6.562 0 6.563 1.575 6.563 4.025 6.563s4.043 0 4.043-6.563zm-4.042-4.987c1.575 0 2.468 0 2.468 4.987 0 4.988-.893 4.988-2.468 4.988s-2.45 0-2.45-4.988c0-4.987.875-4.987 2.45-4.987zM31.451 97.812c0-6.562-1.592-6.562-4.042-6.562-2.45 0-4.025 0-4.025 6.562 0 6.563 1.575 6.563 4.025 6.563s4.042 0 4.042-6.563zm-1.662-2.187c.052.595.087 1.295.087 2.187 0 4.988-.892 4.988-2.467 4.988-.98 0-1.47-.07-1.855-.7l4.235-6.475zm-.508-2.1l-4.235 6.492a25.02 25.02 0 0 1-.087-2.205c0-4.987.875-4.987 2.45-4.987 1.015 0 1.487.07 1.872.7zM38.21 92.825c1.225 0 2.082.665 2.082 1.89 0 1.225-.857 1.89-2.082 1.89-1.225 0-2.065-.665-2.065-1.89 0-1.225.84-1.89 2.065-1.89zm4.042 7.665c0-2.065-1.12-2.555-1.575-3.08.455-.525 1.173-1.225 1.173-2.695 0-2.1-1.19-3.465-3.64-3.465s-3.64 1.365-3.64 3.465c0 1.47.735 2.17 1.19 2.695-.455.525-1.575.997-1.575 3.08 0 2.1 1.575 3.885 4.025 3.885s4.042-1.785 4.042-3.885zm-4.042-2.31c1.575 0 2.467.735 2.467 2.31 0 1.575-.892 2.31-2.467 2.31-1.575 0-2.45-.735-2.45-2.31 0-1.575.875-2.31 2.45-2.31zM56.574 95.625V97.2h2.467v5.6h-3.255v1.575h8.068V102.8h-3.238v-7.175h-4.042zm2.467-4.375c-.787 0-1.575.787-1.575 1.575 0 .787.788 1.575 1.575 1.575.788 0 1.575-.788 1.575-1.575 0-.788-.787-1.575-1.575-1.575zM74.322 91.25h-7.385v1.575h2.905v9.975h-2.905v1.575h7.385V102.8h-2.905v-9.975h2.905V91.25zM79.068 91.25v1.575h1.575v9.975h-3.255v1.575h8.067V102.8h-3.237V91.25h-3.15zM88.189 91.25v13.125h8.067v-1.523l-6.492-.052V91.25h-1.575zM100.914 97.445l2.905-4.008v10.938h1.575V91.25h-1.96l-4.445 6.195h1.925zM121.273 99.387c2.555 0 2.573.018 2.573 2.503 0 4.06 1.575 4.06 4.13 4.06v-1.575c-2.555 0-2.555 0-2.555-2.485 0-1.715 0-2.713-.315-3.29.315-.578.315-1.575.315-3.29 0-2.485 0-2.485 2.555-2.485V91.25c-2.555 0-4.13 0-4.13 4.06 0 2.485-.018 2.502-2.573 2.502v1.575zM138.777 99.387v-1.575c-2.555 0-2.555-.017-2.555-2.502 0-4.06-1.593-4.06-4.148-4.06v1.575c2.555 0 2.573 0 2.573 2.485v.49c0 1.417.017 2.275.297 2.8-.28.525-.297 1.382-.297 2.8v.49c0 2.485-.018 2.485-2.573 2.485v1.575c2.555 0 4.148 0 4.148-4.06 0-2.485 0-2.503 2.555-2.503zM153.676 91.25v14.7h6.702v-1.575h-5.127v-11.55h5.127V91.25h-6.702zM171.179 91.25h-6.703v1.575h5.128v11.55h-5.128v1.575h6.703v-14.7zM193.463 104.375V100c0-4.375-1.592-4.375-4.042-4.375-2.45 0-4.025 0-4.025 4.375s1.575 4.375 4.025 4.375 2.467-.28 2.467-.28V105.162c0 1.68-1.155 2.013-2.467 2.013-1.4 0-2.118-.403-2.905-.788l-.7 1.313c1.085.542 2.292 1.05 3.605 1.05 3.78 0 4.042-2.835 4.042-3.588v-.787zm-4.042-7.175c1.575 0 2.467 0 2.467 2.8s-.892 2.8-2.467 2.8c-1.575 0-2.45 0-2.45-2.8s.875-2.8 2.45-2.8zM200.221 92.825c1.575 0 2.468.91 2.468 2.485 0 1.575-.893 2.502-2.468 2.502s-2.45-.927-2.45-2.502c0-1.575.875-2.485 2.45-2.485zm2.468 5.67v5.88h1.575V95.31c0-2.485-1.593-4.06-4.043-4.06s-4.025 1.575-4.025 4.06c0 2.485 1.575 4.077 4.025 4.077.98 0 2.048-.472 2.468-.892zM206.997 100s0 4.375 4.025 4.375h2.468v4.375h1.575V95.625h-4.043c-4.025 0-4.025 4.375-4.025 4.375zm6.125-2.8h.368v5.6h-2.468c-2.45 0-2.45-2.8-2.45-2.8s0-2.8 2.45-2.8h2.1zM225.865 101.575h-1.575c0 1.225-1.627 1.225-2.432 1.225h-.035c-1.575 0-2.45-1.225-2.45-4.988 0-3.762.875-4.987 2.45-4.987h.035c.805 0 2.432 0 2.432 1.225h1.575c0-2.8-2.467-2.8-4.042-2.8-2.45 0-4.025 1.575-4.025 6.562 0 4.988 1.575 6.563 4.025 6.563 1.575 0 4.042 0 4.042-2.8zM235.091 97.812h-2.467v1.575h2.467v2.188c0 1.225-1.627 1.225-2.432 1.225h-.035c-1.575 0-2.45-1.225-2.45-4.988 0-3.762.875-4.987 2.45-4.987h.035c.805 0 2.432 0 2.432 1.225h1.575c0-2.8-2.467-2.8-4.042-2.8-2.45 0-4.025 1.575-4.025 6.562 0 4.988 1.575 6.563 4.025 6.563 1.575 0 4.042 0 4.042-2.8v-2.188c0-1.575-1.575-1.575-1.575-1.575zM243.424 92.825c1.575 0 2.468 0 2.468 4.987 0 1.085-.088 1.995-.263 2.73l-.56-1.155h-1.75c.718 1.505.7 1.418 1.418 2.923-.35.35-.823.49-1.313.49-1.575 0-2.45 0-2.45-4.988 0-4.987.875-4.987 2.45-4.987zm1.873 10.657l.437.893h1.733l-1.103-2.275c.648-1.12 1.103-2.573 1.103-4.288 0-6.562-1.593-6.562-4.043-6.562s-4.025 0-4.025 6.562c0 6.563 1.575 6.563 4.025 6.563.578 0 1.26-.315 1.873-.893zM261.001 99.422h1.575s0-.822.823-.822c.857 0 .857 1.575 3.272 1.575 2.38 0 2.398-2.24 2.398-2.363h-1.575c0 .035 0 .788-.823.788-.84 0-.84-1.575-3.255-1.575s-2.415 2.397-2.415 2.397zM271.802 97.812v1.575h8.067v-1.575h-8.067zM290.67 97.812h-3.237v-3.587h-1.575v3.587h-3.255v1.575h3.255v3.588h1.575v-3.588h3.237v-1.575zM293.403 95.625V97.2h8.068v-1.575h-8.068zm0 4.375v1.575h8.068V100h-8.068zM311.59 99.387v-1.575l-6.703-3.587v1.785l4.812 2.59-4.812 2.59v1.785l6.702-3.588z"/></g></g></svg>