<?xml version="1.0" encoding="UTF-8" standalone="no"?>
<svg
   version="1.1"
   id="svg2"
   viewBox="0 0 312.00385 108.74999"
   height="30.691664mm"
   width="88.05442mm"
   sodipodi:docname="Hurmit Nerd Font.svg"
   inkscape:version="1.1.2 (0a00cf5339, 2022-02-04)"
   xmlns:inkscape="http://www.inkscape.org/namespaces/inkscape"
   xmlns:sodipodi="http://sodipodi.sourceforge.net/DTD/sodipodi-0.dtd"
   xmlns="http://www.w3.org/2000/svg"
   xmlns:svg="http://www.w3.org/2000/svg"
   xmlns:rdf="http://www.w3.org/1999/02/22-rdf-syntax-ns#"
   xmlns:cc="http://creativecommons.org/ns#"
   xmlns:dc="http://purl.org/dc/elements/1.1/">
  <sodipodi:namedview
     id="namedview12"
     pagecolor="#ffffff"
     bordercolor="#666666"
     borderopacity="1.0"
     inkscape:pageshadow="2"
     inkscape:pageopacity="0.0"
     inkscape:pagecheckerboard="0"
     inkscape:document-units="mm"
     showgrid="false"
     inkscape:zoom="0.64052329"
     inkscape:cx="328.63754"
     inkscape:cy="475.39255"
     inkscape:window-width="1458"
     inkscape:window-height="976"
     inkscape:window-x="0"
     inkscape:window-y="32"
     inkscape:window-maximized="0"
     inkscape:current-layer="svg2" />
  <defs
     id="defs4" />
  <metadata
     id="metadata7">
    <rdf:RDF>
      <cc:Work
         rdf:about="">
        <dc:format>image/svg+xml</dc:format>
        <dc:type
           rdf:resource="http://purl.org/dc/dcmitype/StillImage" />
      </cc:Work>
    </rdf:RDF>
  </metadata>
  <g
     id="layer1"
     transform="translate(-65.002143,-80.308632)">
    <g
       aria-label="Hurmit Nerd Font"
       id="text4136"
       style="font-size:27.5px;line-height:125%;font-family:'Hurmit Nerd Font';text-decoration:underline;text-decoration-line:underline;letter-spacing:0px;word-spacing:0px;fill:#ffffff;stroke-width:1px">
      <path
         d="M 65.002143,100.93363 H 67.477143 V 91.858632 H 75.232143 V 100.93363 H 77.707143 V 80.308632 H 75.232143 V 89.383632 H 67.477143 V 80.308632 H 65.002143 Z"
         id="path829" />
      <path
         d="M 88.349593,100.93363 C 94.674593,100.93363 94.702093,100.93363 94.702093,94.608632 V 87.183632 H 92.227093 V 94.608632 C 92.227093,98.458632 92.199593,98.458632 88.349593,98.458632 84.499593,98.458632 84.472093,94.608632 84.472093,94.608632 V 87.183632 H 81.997093 V 94.608632 C 81.997093,94.608632 82.024593,100.93363 88.349593,100.93363 Z"
         id="path831" />
      <path
         d="M 98.992042,100.93363 H 101.46704 V 94.058632 C 101.46704,89.658632 101.49454,89.658632 105.34454,89.658632 H 105.39954 C 106.66454,89.658632 109.22204,89.658632 109.22204,91.583632 H 111.69704 C 111.69704,87.183632 107.81954,87.183632 105.34454,87.183632 99.019542,87.183632 98.992042,87.183632 98.992042,94.058632 Z"
         id="path833" />
      <path
         d="M 115.54699,100.93363 H 118.02199 V 93.508632 C 118.02199,90.318632 118.13199,89.961132 121.07449,89.961132 V 100.93363 H 123.54949 V 89.961132 C 126.49199,89.961132 126.65699,90.318632 126.65699,93.288632 V 100.93363 H 129.13199 V 93.508632 C 129.13199,87.458632 128.99449,87.183632 122.31199,87.183632 115.65699,87.183632 115.54699,87.486132 115.54699,93.508632 Z"
         id="path835" />
      <path
         d="M 138.81194,80.308632 C 137.57444,80.308632 136.33694,81.546132 136.33694,82.783632 136.33694,84.021132 137.57444,85.258632 138.81194,85.258632 140.04944,85.258632 141.28694,84.021132 141.28694,82.783632 141.28694,81.546132 140.04944,80.308632 138.81194,80.308632 Z M 132.98194,100.93363 H 145.68694 V 98.458632 H 140.57194 V 87.183632 H 134.21944 V 89.658632 H 138.09694 V 98.458632 H 132.98194 Z"
         id="path837" />
      <path
         d="M 157.45689,100.93363 H 161.30689 V 98.458632 C 154.73439,98.458632 153.82689,97.523632 153.82689,94.058632 V 89.658632 H 161.30689 V 87.183632 H 153.82689 V 80.308632 H 151.07689 V 94.058632 C 151.07689,99.201132 152.75439,100.93363 157.45689,100.93363 Z"
         id="path839" />
      <path
         d="M 183.96679,100.93363 H 186.44179 V 85.423632 L 193.92179,100.93363 H 196.67179 V 80.308632 H 194.19679 V 95.818632 L 186.71679,80.308632 H 183.96679 Z"
         id="path841" />
      <path
         d="M 207.31424,100.93363 H 212.42924 V 98.458632 H 207.31424 C 204.83924,98.458632 203.43674,98.458632 203.43674,95.296132 H 213.66674 V 94.058632 C 213.66674,87.183632 211.16424,87.183632 207.31424,87.183632 203.46424,87.183632 200.96174,87.183632 200.96174,94.058632 200.96174,100.93363 203.46424,100.93363 207.31424,100.93363 Z M 203.43674,92.821132 C 203.43674,89.658632 204.83924,89.658632 207.31424,89.658632 209.78924,89.658632 211.19174,89.658632 211.19174,92.821132 Z"
         id="path843" />
      <path
         d="M 217.95669,100.93363 H 220.43169 V 94.058632 C 220.43169,89.658632 220.45919,89.658632 224.30919,89.658632 H 224.36419 C 225.62919,89.658632 228.18669,89.658632 228.18669,91.583632 H 230.66169 C 230.66169,87.183632 226.78419,87.183632 224.30919,87.183632 217.98419,87.183632 217.95669,87.183632 217.95669,94.058632 Z"
         id="path845" />
      <path
         d="M 241.27664,100.93363 H 247.65664 V 80.308632 H 245.18164 V 87.183632 H 241.27664 C 234.95164,87.183632 234.95164,94.058632 234.95164,94.058632 234.95164,94.058632 234.95164,100.93363 241.27664,100.93363 Z M 241.27664,98.458632 C 237.42664,98.458632 237.42664,94.058632 237.42664,94.058632 237.42664,94.058632 237.42664,89.658632 241.27664,89.658632 H 245.18164 V 98.458632 Z"
         id="path847" />
      <path
         d="M 268.94154,100.93363 H 271.41654 V 91.858632 H 276.53154 V 89.383632 H 271.41654 V 82.783632 H 281.64654 V 80.308632 H 268.94154 Z"
         id="path849" />
      <path
         d="M 292.28898,100.93363 C 296.13898,100.93363 298.64148,100.93363 298.64148,94.058632 298.64148,87.183632 296.13898,87.183632 292.28898,87.183632 288.43898,87.183632 285.93648,87.183632 285.93648,94.058632 285.93648,100.93363 288.43898,100.93363 292.28898,100.93363 Z M 292.28898,98.458632 C 289.81398,98.458632 288.41148,98.458632 288.41148,94.058632 288.41148,89.658632 289.81398,89.658632 292.28898,89.658632 294.76398,89.658632 296.16648,89.658632 296.16648,94.058632 296.16648,98.458632 294.76398,98.458632 292.28898,98.458632 Z"
         id="path851" />
      <path
         d="M 302.93143,100.93363 H 305.40643 V 93.508632 C 305.40643,89.658632 305.43393,89.658632 309.28393,89.658632 313.13393,89.658632 313.16143,93.508632 313.16143,93.508632 V 100.93363 H 315.63643 V 93.508632 C 315.63643,93.508632 315.60893,87.183632 309.28393,87.183632 302.95893,87.183632 302.93143,87.183632 302.93143,93.508632 Z"
         id="path853" />
      <path
         d="M 327.40638,100.93363 H 331.25638 V 98.458632 C 324.68388,98.458632 323.77638,97.523632 323.77638,94.058632 V 89.658632 H 331.25638 V 87.183632 H 323.77638 V 80.308632 H 321.02638 V 94.058632 C 321.02638,99.201132 322.70388,100.93363 327.40638,100.93363 Z"
         id="path855" />
    </g>
    <g
       aria-label="abcdefghijklmnopqrstuvwxyzABCDEFGHIJKLMNOPQRSTUVWXYZ oO08 iIlL1 {} [] g9qCGQ ~-+=&gt;"
       id="text4140"
       style="font-size:27.5px;line-height:125%;font-family:'Hurmit Nerd Font';letter-spacing:0px;word-spacing:0px;fill:#ffffff;stroke-width:1px">
      <path
         d="M 70.826903,140.93362 H 74.869403 V 135.77112 C 74.869403,135.01862 74.624403,132.18362 70.826903,132.18362 69.514403,132.18362 68.289403,132.69112 67.204403,133.23362 L 67.904403,134.54612 C 68.691903,134.16112 69.426903,133.75862 70.826903,133.75862 72.139403,133.75862 73.294403,134.09112 73.294403,135.77112 H 70.826903 C 68.376903,135.77112 66.784403,136.13862 66.784403,138.34362 66.784403,140.30362 68.376903,140.93362 70.826903,140.93362 Z M 70.826903,139.35862 C 69.566903,139.35862 68.359403,139.35862 68.359403,138.34362 68.359403,137.36362 69.566903,137.34612 70.826903,137.34612 H 73.294403 V 139.35862 Z"
         style="font-size:17.5px"
         id="path858" />
      <path
         d="M 77.59937,140.93362 H 81.64187 C 85.66687,140.93362 85.68437,136.55862 85.68437,136.55862 85.68437,136.55862 85.66687,132.18362 81.64187,132.18362 H 79.17437 V 127.80862 H 77.59937 Z M 79.17437,139.35862 V 133.75862 H 81.64187 C 84.09187,133.75862 84.10937,136.55862 84.10937,136.55862 84.10937,136.55862 84.09187,139.35862 81.64187,139.35862 Z"
         style="font-size:17.5px"
         id="path860" />
      <path
         d="M 92.456837,140.93362 C 94.031837,140.93362 96.499337,140.93362 96.499337,138.13362 H 94.924337 C 94.924337,139.35862 93.296837,139.35862 92.491837,139.35862 H 92.456837 C 90.881837,139.35862 89.989337,138.13362 89.989337,136.55862 89.989337,134.98362 90.881837,133.75862 92.456837,133.75862 H 92.491837 C 93.296837,133.75862 94.924337,133.75862 94.924337,134.98362 H 96.499337 C 96.499337,132.18362 94.031837,132.18362 92.456837,132.18362 90.006837,132.18362 88.414337,133.75862 88.414337,136.55862 88.414337,139.35862 90.006837,140.93362 92.456837,140.93362 Z"
         style="font-size:17.5px"
         id="path862" />
      <path
         d="M 103.2543,140.93362 H 107.3143 V 127.80862 H 105.7393 V 132.18362 H 103.2543 C 99.229304,132.18362 99.229304,136.55862 99.229304,136.55862 99.229304,136.55862 99.229304,140.93362 103.2543,140.93362 Z M 103.2543,139.35862 C 100.8043,139.35862 100.8043,136.55862 100.8043,136.55862 100.8043,136.55862 100.8043,133.75862 103.2543,133.75862 H 105.7393 V 139.35862 Z"
         style="font-size:17.5px"
         id="path864" />
      <path
         d="M 114.08677,140.93362 H 117.34177 V 139.35862 H 114.08677 C 112.51177,139.35862 111.61927,139.35862 111.61927,137.34612 H 118.12927 V 136.55862 C 118.12927,132.18362 116.53677,132.18362 114.08677,132.18362 111.63677,132.18362 110.04427,132.18362 110.04427,136.55862 110.04427,140.93362 111.63677,140.93362 114.08677,140.93362 Z M 111.61927,135.77112 C 111.61927,133.75862 112.51177,133.75862 114.08677,133.75862 115.66177,133.75862 116.55427,133.75862 116.55427,135.77112 Z"
         style="font-size:17.5px"
         id="path866" />
      <path
         d="M 123.25674,140.93362 H 125.00674 V 134.28362 H 127.96424 V 132.70862 H 125.00674 V 132.18362 C 125.00674,129.90862 125.49674,129.38362 126.84424,129.38362 H 128.82174 V 127.80862 H 126.84424 C 124.07924,127.80862 123.25674,128.96362 123.25674,132.16612 V 132.70862 H 121.68174 V 134.28362 H 123.25674 Z"
         style="font-size:17.5px"
         id="path868" />
      <path
         d="M 135.7167,145.30862 C 139.4967,145.30862 139.7592,142.47362 139.7592,141.72112 V 136.55862 C 139.7592,132.18362 138.1667,132.18362 135.7167,132.18362 133.2667,132.18362 131.6742,132.18362 131.6742,136.55862 131.6742,140.93362 133.2667,140.93362 135.7167,140.93362 138.1667,140.93362 138.1842,140.65362 138.1842,140.65362 V 141.72112 C 138.1842,143.40112 137.0292,143.73362 135.7167,143.73362 134.3167,143.73362 133.5817,143.33112 132.7942,142.94612 L 132.0942,144.25862 C 133.1792,144.80112 134.4042,145.30862 135.7167,145.30862 Z M 135.7167,139.35862 C 134.1417,139.35862 133.2492,139.35862 133.2492,136.55862 133.2492,133.75862 134.1417,133.75862 135.7167,133.75862 137.2917,133.75862 138.1842,133.75862 138.1842,136.55862 138.1842,139.35862 137.2917,139.35862 135.7167,139.35862 Z"
         style="font-size:17.5px"
         id="path870" />
      <path
         d="M 142.48918,140.93362 H 144.06418 V 133.75862 H 146.53168 C 148.98168,133.75862 148.99918,136.55862 148.99918,136.55862 V 140.93362 H 150.57418 V 136.55862 C 150.57418,136.55862 150.55668,132.18362 146.53168,132.18362 H 144.06418 V 127.80862 H 142.48918 Z"
         style="font-size:17.5px"
         id="path872" />
      <path
         d="M 157.01414,127.80862 C 156.22664,127.80862 155.43914,128.59612 155.43914,129.38362 155.43914,130.17112 156.22664,130.95862 157.01414,130.95862 157.80164,130.95862 158.58914,130.17112 158.58914,129.38362 158.58914,128.59612 157.80164,127.80862 157.01414,127.80862 Z M 153.30414,140.93362 H 161.38914 V 139.35862 H 158.13414 V 132.18362 H 154.09164 V 133.75862 H 156.55914 V 139.35862 H 153.30414 Z"
         style="font-size:17.5px"
         id="path874" />
      <path
         d="M 169.5441,127.80862 C 168.7566,127.80862 167.9866,128.59612 167.9866,129.38362 167.9866,130.17112 168.7566,130.95862 169.5441,130.95862 170.3316,130.95862 171.1191,130.17112 171.1191,129.38362 171.1191,128.59612 170.3316,127.80862 169.5441,127.80862 Z M 167.9866,145.30862 C 171.7666,145.30862 172.0291,142.47362 172.0291,141.72112 V 132.18362 H 165.5191 V 133.75862 H 170.4541 V 141.72112 C 170.4541,143.40112 169.2991,143.73362 167.9866,143.73362 166.5866,143.73362 165.8691,143.33112 165.0816,142.94612 L 164.3816,144.25862 C 165.4666,144.80112 166.6741,145.30862 167.9866,145.30862 Z"
         style="font-size:17.5px"
         id="path876" />
      <path
         d="M 174.93408,140.93362 H 176.85908 L 178.97658,137.92362 181.11158,140.93362 H 183.01908 L 179.95658,136.55862 183.01908,132.18362 H 181.11158 L 176.50908,138.69362 V 127.80862 H 174.93408 Z"
         style="font-size:17.5px"
         id="path878" />
      <path
         d="M 185.74904,140.93362 H 193.83404 V 139.35862 H 190.57904 V 127.80862 H 187.42904 V 129.38362 H 189.00404 V 139.35862 H 185.74904 Z"
         style="font-size:17.5px"
         id="path880" />
      <path
         d="M 196.28401,140.93362 H 197.85901 V 136.20862 C 197.85901,134.17862 197.92901,133.95112 199.80151,133.95112 V 140.93362 H 201.37651 V 133.95112 C 203.24901,133.95112 203.35401,134.17862 203.35401,136.06862 V 140.93362 H 204.92901 V 136.20862 C 204.92901,132.35862 204.84151,132.18362 200.58901,132.18362 196.35401,132.18362 196.28401,132.37612 196.28401,136.20862 Z"
         style="font-size:17.5px"
         id="path882" />
      <path
         d="M 207.37898,140.93362 H 208.95398 V 136.20862 C 208.95398,133.75862 208.97148,133.75862 211.42148,133.75862 213.87148,133.75862 213.88898,136.20862 213.88898,136.20862 V 140.93362 H 215.46398 V 136.20862 C 215.46398,136.20862 215.44648,132.18362 211.42148,132.18362 207.39648,132.18362 207.37898,132.18362 207.37898,136.20862 Z"
         style="font-size:17.5px"
         id="path884" />
      <path
         d="M 222.23645,140.93362 C 224.68645,140.93362 226.27895,140.93362 226.27895,136.55862 226.27895,132.18362 224.68645,132.18362 222.23645,132.18362 219.78645,132.18362 218.19395,132.18362 218.19395,136.55862 218.19395,140.93362 219.78645,140.93362 222.23645,140.93362 Z M 222.23645,139.35862 C 220.66145,139.35862 219.76895,139.35862 219.76895,136.55862 219.76895,133.75862 220.66145,133.75862 222.23645,133.75862 223.81145,133.75862 224.70395,133.75862 224.70395,136.55862 224.70395,139.35862 223.81145,139.35862 222.23645,139.35862 Z"
         style="font-size:17.5px"
         id="path886" />
      <path
         d="M 229.00891,145.30862 H 230.58391 V 140.93362 H 233.05141 C 237.07641,140.93362 237.09391,136.55862 237.09391,136.55862 237.09391,136.55862 237.07641,132.18362 233.05141,132.18362 H 229.00891 Z M 230.58391,139.35862 V 133.75862 H 233.05141 C 235.50141,133.75862 235.51891,136.55862 235.51891,136.55862 235.51891,136.55862 235.50141,139.35862 233.05141,139.35862 Z"
         style="font-size:17.5px"
         id="path888" />
      <path
         d="M 246.33388,145.30862 H 247.90888 V 132.18362 H 243.86638 C 239.84138,132.18362 239.82388,136.55862 239.82388,136.55862 239.82388,136.55862 239.84138,140.93362 243.86638,140.93362 H 246.33388 Z M 243.86638,139.35862 C 241.41638,139.35862 241.39888,136.55862 241.39888,136.55862 241.39888,136.55862 241.41638,133.75862 243.86638,133.75862 H 246.33388 V 139.35862 Z"
         style="font-size:17.5px"
         id="path890" />
      <path
         d="M 250.63885,140.93362 H 252.21385 V 136.55862 C 252.21385,133.75862 252.23135,133.75862 254.68135,133.75862 H 254.71635 C 255.52135,133.75862 257.14885,133.75862 257.14885,134.98362 H 258.72385 C 258.72385,132.18362 256.25635,132.18362 254.68135,132.18362 250.65635,132.18362 250.63885,132.18362 250.63885,136.55862 Z"
         style="font-size:17.5px"
         id="path892" />
      <path
         d="M 265.49631,140.93362 C 267.94631,140.93362 269.53881,140.93362 269.53881,138.34362 269.53881,135.78862 267.40381,135.77112 265.56631,135.77112 H 265.33881 C 263.86881,135.77112 263.02881,135.75362 263.02881,134.77362 263.02881,133.75862 263.92131,133.75862 265.49631,133.75862 267.07131,133.75862 267.96381,133.75862 267.96381,134.77362 H 269.53881 C 269.53881,132.18362 267.94631,132.18362 265.49631,132.18362 263.04631,132.18362 261.45381,132.18362 261.45381,134.77362 261.45381,137.32862 263.58881,137.34612 265.42631,137.34612 H 265.65381 C 267.12381,137.34612 267.96381,137.36362 267.96381,138.34362 267.96381,139.35862 267.07131,139.35862 265.49631,139.35862 263.92131,139.35862 263.02881,139.35862 263.02881,138.34362 H 261.45381 C 261.45381,140.93362 263.04631,140.93362 265.49631,140.93362 Z"
         style="font-size:17.5px"
         id="path894" />
      <path
         d="M 277.02878,140.93362 H 279.47878 V 139.35862 C 275.29628,139.35862 274.71878,138.76362 274.71878,136.55862 V 133.75862 H 279.47878 V 132.18362 H 274.71878 V 127.80862 H 272.96878 V 136.55862 C 272.96878,139.83112 274.03628,140.93362 277.02878,140.93362 Z"
         style="font-size:17.5px"
         id="path896" />
      <path
         d="M 287.12625,140.93362 C 291.15125,140.93362 291.16875,140.93362 291.16875,136.90862 V 132.18362 H 289.59375 V 136.90862 C 289.59375,139.35862 289.57625,139.35862 287.12625,139.35862 284.67625,139.35862 284.65875,136.90862 284.65875,136.90862 V 132.18362 H 283.08375 V 136.90862 C 283.08375,136.90862 283.10125,140.93362 287.12625,140.93362 Z"
         style="font-size:17.5px"
         id="path898" />
      <path
         d="M 297.10121,140.93362 H 298.78121 L 301.98371,132.18362 H 300.28621 L 297.94121,138.65862 295.59621,132.18362 H 293.89871 Z"
         style="font-size:17.5px"
         id="path900" />
      <path
         d="M 305.71118,140.93362 H 307.30368 L 308.75618,136.76862 310.20868,140.93362 H 311.80118 L 312.79868,132.18362 H 311.20618 L 310.62868,137.31112 309.54368,134.19612 H 307.96868 L 306.88368,137.31112 306.30618,132.18362 H 304.71368 Z"
         style="font-size:17.5px"
         id="path902" />
      <path
         d="M 315.52865,140.93362 H 317.45365 L 319.57115,137.92362 321.68865,140.93362 H 323.59615 L 320.53365,136.55862 323.59615,132.18362 H 321.68865 L 319.57115,135.19362 317.45365,132.18362 H 315.52865 L 318.60865,136.55862 Z"
         style="font-size:17.5px"
         id="path904" />
      <path
         d="M 327.97111,145.30862 H 329.61611 L 334.41111,132.18362 H 332.71361 L 330.38611,138.65862 328.04111,132.18362 H 326.34361 L 329.54611,140.93362 Z"
         style="font-size:17.5px"
         id="path906" />
      <path
         d="M 337.15858,140.93362 H 345.24358 V 139.35862 H 340.18608 L 345.24358,132.18362 H 337.15858 V 133.75862 H 342.21608 Z"
         style="font-size:17.5px"
         id="path908" />
      <path
         d="M 66.784403,162.80862 H 68.411903 L 69.286903,159.22112 H 72.366903 L 73.241903,162.80862 H 74.869403 L 71.666903,149.68362 H 69.986903 Z M 69.671903,157.64612 70.826903,152.93862 71.981903,157.64612 Z"
         style="font-size:17.5px"
         id="path910" />
      <path
         d="M 77.59937,162.80862 H 81.64187 C 85.66687,162.80862 85.68437,158.64362 85.68437,158.64362 85.68437,158.64362 85.66687,156.38612 83.81187,155.37112 84.89687,154.77612 84.89687,153.07862 84.89687,153.07862 84.89687,153.07862 84.89687,149.68362 81.64187,149.68362 H 77.59937 Z M 79.17437,154.88112 V 151.25862 H 81.64187 C 83.32187,151.25862 83.32187,153.07862 83.32187,153.07862 83.32187,153.07862 83.32187,154.88112 81.64187,154.88112 Z M 79.17437,161.23362 V 156.05362 H 81.64187 C 84.09187,156.05362 84.10937,158.64362 84.10937,158.64362 84.10937,158.64362 84.09187,161.23362 81.64187,161.23362 Z"
         style="font-size:17.5px"
         id="path912" />
      <path
         d="M 92.456837,162.80862 C 94.031837,162.80862 96.499337,162.80862 96.499337,160.00862 H 94.924337 C 94.924337,161.23362 93.296837,161.23362 92.491837,161.23362 H 92.456837 C 90.881837,161.23362 89.989337,160.00862 89.989337,156.24612 89.989337,152.48362 90.881837,151.25862 92.456837,151.25862 H 92.491837 C 93.296837,151.25862 94.924337,151.25862 94.924337,152.48362 H 96.499337 C 96.499337,149.68362 94.031837,149.68362 92.456837,149.68362 90.006837,149.68362 88.414337,151.25862 88.414337,156.24612 88.414337,161.23362 90.006837,162.80862 92.456837,162.80862 Z"
         style="font-size:17.5px"
         id="path914" />
      <path
         d="M 99.229304,162.80862 H 103.2718 C 107.2968,162.80862 107.3143,156.24612 107.3143,156.24612 107.3143,156.24612 107.2968,149.68362 103.2718,149.68362 H 99.229304 Z M 100.8043,161.23362 V 151.25862 H 103.2718 C 105.7218,151.25862 105.7393,156.24612 105.7393,156.24612 105.7393,156.24612 105.7218,161.23362 103.2718,161.23362 Z"
         style="font-size:17.5px"
         id="path916" />
      <path
         d="M 110.04427,162.80862 H 118.12927 V 161.23362 H 111.61927 V 157.03362 H 114.87427 V 155.45862 H 111.61927 V 151.25862 H 118.12927 V 149.68362 H 110.04427 Z"
         style="font-size:17.5px"
         id="path918" />
      <path
         d="M 120.85924,162.80862 H 122.43424 V 157.03362 H 125.68924 V 155.45862 H 122.43424 V 151.25862 H 128.94424 V 149.68362 H 120.85924 Z"
         style="font-size:17.5px"
         id="path920" />
      <path
         d="M 135.7167,162.80862 C 137.2917,162.80862 139.7592,162.80862 139.7592,160.00862 V 157.82112 C 139.7592,156.24612 138.1842,156.24612 138.1842,156.24612 H 135.7167 V 157.82112 H 138.1842 V 160.00862 C 138.1842,161.23362 136.5567,161.23362 135.7517,161.23362 H 135.7167 C 134.1417,161.23362 133.2492,160.00862 133.2492,156.24612 133.2492,152.48362 134.1417,151.25862 135.7167,151.25862 H 135.7517 C 136.5567,151.25862 138.1842,151.25862 138.1842,152.48362 H 139.7592 C 139.7592,149.68362 137.2917,149.68362 135.7167,149.68362 133.2667,149.68362 131.6742,151.25862 131.6742,156.24612 131.6742,161.23362 133.2667,162.80862 135.7167,162.80862 Z"
         style="font-size:17.5px"
         id="path922" />
      <path
         d="M 142.48918,162.80862 H 144.06418 V 157.03362 H 148.99918 V 162.80862 H 150.57418 V 149.68362 H 148.99918 V 155.45862 H 144.06418 V 149.68362 H 142.48918 Z"
         style="font-size:17.5px"
         id="path924" />
      <path
         d="M 153.65414,162.80862 H 161.03914 V 161.23362 H 158.13414 V 151.25862 H 161.03914 V 149.68362 H 153.65414 V 151.25862 H 156.55914 V 161.23362 H 153.65414 Z"
         style="font-size:17.5px"
         id="path926" />
      <path
         d="M 168.1616,162.80862 C 170.6291,162.80862 172.2041,162.80862 172.2041,158.43362 V 149.68362 H 168.1616 V 151.25862 H 170.6291 V 158.43362 C 170.6291,161.23362 169.7366,161.23362 168.1616,161.23362 166.5866,161.23362 165.6941,161.23362 165.6941,158.43362 H 164.1191 C 164.1191,162.80862 165.6941,162.80862 168.1616,162.80862 Z"
         style="font-size:17.5px"
         id="path928" />
      <path
         d="M 174.93408,162.80862 H 176.68408 L 178.97658,158.04862 181.28658,162.80862 H 183.01908 L 179.85158,156.24612 183.01908,149.68362 H 181.28658 L 176.50908,159.55362 V 149.68362 H 174.93408 Z"
         style="font-size:17.5px"
         id="path930" />
      <path
         d="M 185.74904,162.80862 H 193.83404 V 161.28612 L 187.32404,161.23362 V 149.68362 H 185.74904 Z"
         style="font-size:17.5px"
         id="path932" />
      <path
         d="M 196.56401,162.80862 H 198.13901 V 152.86862 L 199.73151,156.24612 H 201.51651 L 203.07401,152.86862 V 162.80862 H 204.64901 V 149.68362 H 202.91651 L 200.62401,154.47862 198.31401,149.68362 H 196.56401 Z"
         style="font-size:17.5px"
         id="path934" />
      <path
         d="M 207.37898,162.80862 H 208.95398 V 152.93862 L 213.71398,162.80862 H 215.46398 V 149.68362 H 213.88898 V 159.55362 L 209.12898,149.68362 H 207.37898 Z"
         style="font-size:17.5px"
         id="path936" />
      <path
         d="M 222.25395,162.80862 C 224.70395,162.80862 226.27895,162.80862 226.27895,156.24612 226.27895,149.68362 224.70395,149.68362 222.25395,149.68362 219.80395,149.68362 218.19395,149.68362 218.19395,156.24612 218.19395,162.80862 219.80395,162.80862 222.25395,162.80862 Z M 222.25395,161.23362 C 220.67895,161.23362 219.76895,161.23362 219.76895,156.24612 219.76895,151.25862 220.67895,151.25862 222.25395,151.25862 223.82895,151.25862 224.70395,151.25862 224.70395,156.24612 224.70395,161.23362 223.82895,161.23362 222.25395,161.23362 Z"
         style="font-size:17.5px"
         id="path938" />
      <path
         d="M 229.00891,162.80862 H 230.58391 V 157.03362 H 233.05141 C 237.07641,157.03362 237.09391,153.35862 237.09391,153.35862 237.09391,153.35862 237.07641,149.68362 233.05141,149.68362 H 229.00891 Z M 230.58391,155.45862 V 151.25862 H 233.05141 C 235.50141,151.25862 235.51891,153.35862 235.51891,153.35862 235.51891,153.35862 235.50141,155.45862 233.05141,155.45862 Z"
         style="font-size:17.5px"
         id="path940" />
      <path
         d="M 243.86638,162.80862 C 244.44388,162.80862 245.12638,162.49362 245.73888,161.91612 L 246.17638,162.80862 H 247.90888 L 246.80638,160.53362 C 247.45388,159.41362 247.90888,157.96112 247.90888,156.24612 247.90888,149.68362 246.31638,149.68362 243.86638,149.68362 241.41638,149.68362 239.82388,149.68362 239.82388,156.24612 239.82388,162.80862 241.41638,162.80862 243.86638,162.80862 Z M 243.86638,161.23362 C 242.29138,161.23362 241.39888,161.23362 241.39888,156.24612 241.39888,151.25862 242.29138,151.25862 243.86638,151.25862 245.44138,151.25862 246.33388,151.25862 246.33388,156.24612 246.33388,157.33112 246.24638,158.24112 246.07138,158.97612 L 245.51138,157.82112 H 243.76138 C 244.47888,159.32612 244.46138,159.23862 245.17888,160.74362 244.82888,161.09362 244.35638,161.23362 243.86638,161.23362 Z"
         style="font-size:17.5px"
         id="path942" />
      <path
         d="M 250.63885,162.80862 H 252.21385 V 157.03362 H 254.17385 L 256.99135,162.80862 H 258.72385 L 255.88885,156.91112 C 256.41385,156.91112 258.72385,155.84362 258.72385,153.35862 258.72385,153.35862 258.70635,149.68362 254.68135,149.68362 H 250.63885 Z M 252.21385,155.45862 V 151.25862 H 254.68135 C 257.13135,151.25862 257.14885,153.35862 257.14885,153.35862 257.14885,153.35862 257.13135,155.45862 254.68135,155.45862 Z"
         style="font-size:17.5px"
         id="path944" />
      <path
         d="M 265.49631,162.80862 C 267.94631,162.80862 269.53881,162.80862 269.53881,158.74862 269.53881,155.70362 268.76881,155.07362 265.49631,155.07362 263.37881,155.07362 263.02881,155.07362 263.02881,152.97362 263.02881,151.25862 263.92131,151.25862 265.49631,151.25862 267.54381,151.25862 267.96381,151.38112 267.96381,152.83362 H 269.53881 C 269.53881,150.27862 267.94631,149.68362 265.49631,149.68362 263.04631,149.68362 261.45381,149.68362 261.45381,152.97362 261.45381,156.64862 263.04631,156.64862 265.49631,156.64862 267.71881,156.64862 267.96381,156.71862 267.96381,158.74862 267.96381,161.23362 267.07131,161.23362 265.49631,161.23362 263.57131,161.23362 263.02881,161.02362 263.02881,159.65862 H 261.45381 C 261.45381,162.80862 263.04631,162.80862 265.49631,162.80862 Z"
         style="font-size:17.5px"
         id="path946" />
      <path
         d="M 275.52378,162.80862 H 277.09878 V 151.08362 H 280.35378 V 149.68362 H 272.26878 V 151.08362 H 275.52378 Z"
         style="font-size:17.5px"
         id="path948" />
      <path
         d="M 287.12625,162.80862 C 291.15125,162.80862 291.16875,162.80862 291.16875,158.78362 V 149.68362 H 289.59375 V 158.78362 C 289.59375,161.23362 289.57625,161.23362 287.12625,161.23362 284.67625,161.23362 284.65875,158.78362 284.65875,158.78362 V 149.68362 H 283.08375 V 158.78362 C 283.08375,158.78362 283.10125,162.80862 287.12625,162.80862 Z"
         style="font-size:17.5px"
         id="path950" />
      <path
         d="M 297.10121,162.80862 H 298.78121 L 301.98371,149.68362 H 300.35621 L 297.94121,159.55362 295.52621,149.68362 H 293.89871 Z"
         style="font-size:17.5px"
         id="path952" />
      <path
         d="M 305.71118,162.80862 H 307.30368 L 308.75618,157.15612 310.22618,162.80862 H 311.80118 L 312.79868,149.68362 H 311.20618 L 310.57618,158.04862 309.56118,154.05862 H 307.95118 L 306.93618,158.01362 306.30618,149.68362 H 304.71368 Z"
         style="font-size:17.5px"
         id="path954" />
      <path
         d="M 315.52865,162.80862 H 317.27865 L 319.57115,158.04862 321.88115,162.80862 H 323.61365 L 320.44615,156.24612 323.61365,149.68362 H 321.88115 L 319.57115,154.44362 317.27865,149.68362 H 315.52865 L 318.69615,156.24612 Z"
         style="font-size:17.5px"
         id="path956" />
      <path
         d="M 329.59861,162.80862 H 331.17361 V 156.24612 L 334.42861,149.68362 H 332.66111 L 330.38611,154.30362 328.09361,149.68362 H 326.34361 L 329.59861,156.24612 Z"
         style="font-size:17.5px"
         id="path958" />
      <path
         d="M 337.15858,162.80862 H 345.24358 V 161.23362 H 339.64358 L 345.24358,149.68362 H 337.15858 V 151.25862 H 342.74108 Z"
         style="font-size:17.5px"
         id="path960" />
      <path
         d="M 70.826903,184.68362 C 73.276903,184.68362 74.869403,184.68362 74.869403,180.30862 74.869403,175.93362 73.276903,175.93362 70.826903,175.93362 68.376903,175.93362 66.784403,175.93362 66.784403,180.30862 66.784403,184.68362 68.376903,184.68362 70.826903,184.68362 Z M 70.826903,183.10862 C 69.251903,183.10862 68.359403,183.10862 68.359403,180.30862 68.359403,177.50862 69.251903,177.50862 70.826903,177.50862 72.401903,177.50862 73.294403,177.50862 73.294403,180.30862 73.294403,183.10862 72.401903,183.10862 70.826903,183.10862 Z"
         style="font-size:17.5px"
         id="path962" />
      <path
         d="M 81.65937,184.68362 C 84.10937,184.68362 85.68437,184.68362 85.68437,178.12112 85.68437,171.55862 84.10937,171.55862 81.65937,171.55862 79.20937,171.55862 77.59937,171.55862 77.59937,178.12112 77.59937,184.68362 79.20937,184.68362 81.65937,184.68362 Z M 81.65937,183.10862 C 80.08437,183.10862 79.17437,183.10862 79.17437,178.12112 79.17437,173.13362 80.08437,173.13362 81.65937,173.13362 83.23437,173.13362 84.10937,173.13362 84.10937,178.12112 84.10937,183.10862 83.23437,183.10862 81.65937,183.10862 Z"
         style="font-size:17.5px"
         id="path964" />
      <path
         d="M 92.456837,184.68362 C 94.906837,184.68362 96.499337,184.68362 96.499337,178.12112 96.499337,171.55862 94.906837,171.55862 92.456837,171.55862 90.006837,171.55862 88.414337,171.55862 88.414337,178.12112 88.414337,184.68362 90.006837,184.68362 92.456837,184.68362 Z M 90.076837,180.32612 C 90.024337,179.73112 89.989337,179.01362 89.989337,178.12112 89.989337,173.13362 90.881837,173.13362 92.456837,173.13362 93.471837,173.13362 93.944337,173.20362 94.329337,173.83362 Z M 92.456837,183.10862 C 91.476837,183.10862 90.969337,183.03862 90.584337,182.40862 L 94.836837,175.93362 C 94.889337,176.52862 94.924337,177.22862 94.924337,178.12112 94.924337,183.10862 94.031837,183.10862 92.456837,183.10862 Z"
         style="font-size:17.5px"
         id="path966" />
      <path
         d="M 103.2718,184.68362 C 105.7218,184.68362 107.3143,182.89862 107.3143,180.79862 107.3143,178.73362 106.1768,178.24362 105.7218,177.71862 106.1768,177.19362 106.9293,176.49362 106.9293,175.02362 106.9293,172.92362 105.7218,171.55862 103.2718,171.55862 100.8218,171.55862 99.614304,172.92362 99.614304,175.02362 99.614304,176.49362 100.3493,177.19362 100.8043,177.71862 100.3493,178.24362 99.229304,178.71612 99.229304,180.79862 99.229304,182.89862 100.8218,184.68362 103.2718,184.68362 Z M 103.2718,176.91362 C 102.0468,176.91362 101.1893,176.24862 101.1893,175.02362 101.1893,173.79862 102.0468,173.13362 103.2718,173.13362 104.4968,173.13362 105.3543,173.79862 105.3543,175.02362 105.3543,176.24862 104.4968,176.91362 103.2718,176.91362 Z M 103.2718,183.10862 C 101.6968,183.10862 100.8043,182.37362 100.8043,180.79862 100.8043,179.22362 101.6968,178.48862 103.2718,178.48862 104.8468,178.48862 105.7393,179.22362 105.7393,180.79862 105.7393,182.37362 104.8468,183.10862 103.2718,183.10862 Z"
         style="font-size:17.5px"
         id="path968" />
      <path
         d="M 124.56924,171.55862 C 123.78174,171.55862 122.99424,172.34612 122.99424,173.13362 122.99424,173.92112 123.78174,174.70862 124.56924,174.70862 125.35674,174.70862 126.14424,173.92112 126.14424,173.13362 126.14424,172.34612 125.35674,171.55862 124.56924,171.55862 Z M 120.85924,184.68362 H 128.94424 V 183.10862 H 125.68924 V 175.93362 H 121.64674 V 177.50862 H 124.11424 V 183.10862 H 120.85924 Z"
         style="font-size:17.5px"
         id="path970" />
      <path
         d="M 132.0242,184.68362 H 139.4092 V 183.10862 H 136.5042 V 173.13362 H 139.4092 V 171.55862 H 132.0242 V 173.13362 H 134.9292 V 183.10862 H 132.0242 Z"
         style="font-size:17.5px"
         id="path972" />
      <path
         d="M 142.48918,184.68362 H 150.57418 V 183.10862 H 147.31918 V 171.55862 H 144.16918 V 173.13362 H 145.74418 V 183.10862 H 142.48918 Z"
         style="font-size:17.5px"
         id="path974" />
      <path
         d="M 153.30414,184.68362 H 161.38914 V 183.16112 L 154.87914,183.10862 V 171.55862 H 153.30414 Z"
         style="font-size:17.5px"
         id="path976" />
      <path
         d="M 168.9666,184.68362 H 170.5416 V 171.55862 H 168.5816 L 164.1191,177.75362 H 166.0441 L 168.9666,173.74612 Z"
         style="font-size:17.5px"
         id="path978" />
      <path
         d="M 193.15154,186.25862 V 184.68362 C 190.59654,184.68362 190.57904,184.68362 190.57904,182.19862 190.57904,180.48362 190.57904,179.48612 190.26404,178.90862 190.57904,178.33112 190.57904,177.33362 190.57904,175.61862 190.57904,173.13362 190.59654,173.13362 193.15154,173.13362 V 171.55862 C 190.59654,171.55862 189.00404,171.55862 189.00404,175.61862 189.00404,178.10362 188.98654,178.12112 186.43154,178.12112 V 179.69612 C 188.98654,179.69612 189.00404,179.71362 189.00404,182.19862 189.00404,186.25862 190.59654,186.25862 193.15154,186.25862 Z"
         style="font-size:17.5px"
         id="path980" />
      <path
         d="M 197.24651,186.25862 C 199.80151,186.25862 201.39401,186.25862 201.39401,182.19862 201.39401,179.71362 201.41151,179.69612 203.96651,179.69612 V 178.12112 C 201.41151,178.12112 201.39401,178.10362 201.39401,175.61862 201.39401,171.55862 199.80151,171.55862 197.24651,171.55862 V 173.13362 C 199.80151,173.13362 199.81901,173.13362 199.81901,175.61862 199.81901,177.33362 199.81901,178.33112 200.13401,178.90862 199.81901,179.48612 199.81901,180.48362 199.81901,182.19862 199.81901,184.68362 199.80151,184.68362 197.24651,184.68362 Z"
         style="font-size:17.5px"
         id="path982" />
      <path
         d="M 218.87645,186.25862 H 225.59645 V 184.68362 H 220.45145 V 173.13362 H 225.59645 V 171.55862 H 218.87645 Z"
         style="font-size:17.5px"
         id="path984" />
      <path
         d="M 229.69141,186.25862 H 236.41141 V 171.55862 H 229.69141 V 173.13362 H 234.83641 V 184.68362 H 229.69141 Z"
         style="font-size:17.5px"
         id="path986" />
      <path
         d="M 254.68135,189.05862 C 258.46135,189.05862 258.72385,186.22362 258.72385,185.47112 V 180.30862 C 258.72385,175.93362 257.13135,175.93362 254.68135,175.93362 252.23135,175.93362 250.63885,175.93362 250.63885,180.30862 250.63885,184.68362 252.23135,184.68362 254.68135,184.68362 257.13135,184.68362 257.14885,184.40362 257.14885,184.40362 V 185.47112 C 257.14885,187.15112 255.99385,187.48362 254.68135,187.48362 253.28135,187.48362 252.54635,187.08112 251.75885,186.69612 L 251.05885,188.00862 C 252.14385,188.55112 253.36885,189.05862 254.68135,189.05862 Z M 254.68135,183.10862 C 253.10635,183.10862 252.21385,183.10862 252.21385,180.30862 252.21385,177.50862 253.10635,177.50862 254.68135,177.50862 256.25635,177.50862 257.14885,177.50862 257.14885,180.30862 257.14885,183.10862 256.25635,183.10862 254.68135,183.10862 Z"
         style="font-size:17.5px"
         id="path988" />
      <path
         d="M 267.96381,184.68362 H 269.53881 V 175.61862 C 269.53881,173.13362 267.94631,171.55862 265.49631,171.55862 263.04631,171.55862 261.45381,173.13362 261.45381,175.61862 261.45381,178.10362 263.04631,179.69612 265.49631,179.69612 266.47631,179.69612 267.54381,179.22362 267.96381,178.80362 Z M 265.49631,178.12112 C 263.92131,178.12112 263.02881,177.19362 263.02881,175.61862 263.02881,174.04362 263.92131,173.13362 265.49631,173.13362 267.07131,173.13362 267.96381,174.04362 267.96381,175.61862 267.96381,177.19362 267.07131,178.12112 265.49631,178.12112 Z"
         style="font-size:17.5px"
         id="path990" />
      <path
         d="M 278.77878,189.05862 H 280.35378 V 175.93362 H 276.31128 C 272.28628,175.93362 272.26878,180.30862 272.26878,180.30862 272.26878,180.30862 272.28628,184.68362 276.31128,184.68362 H 278.77878 Z M 276.31128,183.10862 C 273.86128,183.10862 273.84378,180.30862 273.84378,180.30862 273.84378,180.30862 273.86128,177.50862 276.31128,177.50862 H 278.77878 V 183.10862 Z"
         style="font-size:17.5px"
         id="path992" />
      <path
         d="M 287.12625,184.68362 C 288.70125,184.68362 291.16875,184.68362 291.16875,181.88362 H 289.59375 C 289.59375,183.10862 287.96625,183.10862 287.16125,183.10862 H 287.12625 C 285.55125,183.10862 284.65875,181.88362 284.65875,178.12112 284.65875,174.35862 285.55125,173.13362 287.12625,173.13362 H 287.16125 C 287.96625,173.13362 289.59375,173.13362 289.59375,174.35862 H 291.16875 C 291.16875,171.55862 288.70125,171.55862 287.12625,171.55862 284.67625,171.55862 283.08375,173.13362 283.08375,178.12112 283.08375,183.10862 284.67625,184.68362 287.12625,184.68362 Z"
         style="font-size:17.5px"
         id="path994" />
      <path
         d="M 297.94121,184.68362 C 299.51621,184.68362 301.98371,184.68362 301.98371,181.88362 V 179.69612 C 301.98371,178.12112 300.40871,178.12112 300.40871,178.12112 H 297.94121 V 179.69612 H 300.40871 V 181.88362 C 300.40871,183.10862 298.78121,183.10862 297.97621,183.10862 H 297.94121 C 296.36621,183.10862 295.47371,181.88362 295.47371,178.12112 295.47371,174.35862 296.36621,173.13362 297.94121,173.13362 H 297.97621 C 298.78121,173.13362 300.40871,173.13362 300.40871,174.35862 H 301.98371 C 301.98371,171.55862 299.51621,171.55862 297.94121,171.55862 295.49121,171.55862 293.89871,173.13362 293.89871,178.12112 293.89871,183.10862 295.49121,184.68362 297.94121,184.68362 Z"
         style="font-size:17.5px"
         id="path996" />
      <path
         d="M 308.75618,184.68362 C 309.33368,184.68362 310.01618,184.36862 310.62868,183.79112 L 311.06618,184.68362 H 312.79868 L 311.69618,182.40862 C 312.34368,181.28862 312.79868,179.83612 312.79868,178.12112 312.79868,171.55862 311.20618,171.55862 308.75618,171.55862 306.30618,171.55862 304.71368,171.55862 304.71368,178.12112 304.71368,184.68362 306.30618,184.68362 308.75618,184.68362 Z M 308.75618,183.10862 C 307.18118,183.10862 306.28868,183.10862 306.28868,178.12112 306.28868,173.13362 307.18118,173.13362 308.75618,173.13362 310.33118,173.13362 311.22368,173.13362 311.22368,178.12112 311.22368,179.20612 311.13618,180.11612 310.96118,180.85112 L 310.40118,179.69612 H 308.65118 C 309.36868,181.20112 309.35118,181.11362 310.06868,182.61862 309.71868,182.96862 309.24618,183.10862 308.75618,183.10862 Z"
         style="font-size:17.5px"
         id="path998" />
      <path
         d="M 332.01361,180.48362 C 334.39361,180.48362 334.42861,178.12112 334.42861,178.12112 H 332.85361 C 332.85361,178.12112 332.83611,178.90862 332.01361,178.90862 331.17361,178.90862 331.17361,177.33362 328.75861,177.33362 326.34361,177.33362 326.34361,179.69612 326.34361,179.69612 H 327.91861 C 327.91861,179.69612 327.91861,178.90862 328.74111,178.90862 329.59861,178.90862 329.59861,180.48362 332.01361,180.48362 Z"
         style="font-size:17.5px"
         id="path1000" />
      <path
         d="M 337.15858,179.69612 H 345.24358 V 178.12112 H 337.15858 Z"
         style="font-size:17.5px"
         id="path1002" />
      <path
         d="M 351.22855,183.28362 H 352.80355 V 179.69612 H 356.05855 V 178.12112 H 352.80355 V 174.53362 H 351.22855 V 178.12112 H 347.97355 V 179.69612 H 351.22855 Z"
         style="font-size:17.5px"
         id="path1004" />
      <path
         d="M 358.78852,177.50862 H 366.87352 V 175.93362 H 358.78852 Z M 358.78852,181.88362 H 366.87352 V 180.30862 H 358.78852 Z"
         style="font-size:17.5px"
         id="path1006" />
      <path
         d="M 370.28599,183.28362 377.00599,179.69612 V 178.12112 L 370.28599,174.53362 V 176.31862 L 375.11599,178.90862 370.28599,181.49862 Z"
         style="font-size:17.5px"
         id="path1008" />
    </g>
  </g>
</svg>
