<?xml version="1.0" encoding="UTF-8" standalone="no"?>
<!-- Created with Inkscape (http://www.inkscape.org/) -->

<svg
   xmlns:dc="http://purl.org/dc/elements/1.1/"
   xmlns:cc="http://creativecommons.org/ns#"
   xmlns:rdf="http://www.w3.org/1999/02/22-rdf-syntax-ns#"
   xmlns:svg="http://www.w3.org/2000/svg"
   xmlns="http://www.w3.org/2000/svg"
   xmlns:sodipodi="http://sodipodi.sourceforge.net/DTD/sodipodi-0.dtd"
   xmlns:inkscape="http://www.inkscape.org/namespaces/inkscape"
   width="87.937378mm"
   height="30.691664mm"
   viewBox="0 0 311.58913 108.74999"
   id="svg2"
   version="1.1"
   inkscape:version="0.91 r13725"
   sodipodi:docname="Hurmit Nerd Font.svg">
  <defs
     id="defs4" />
  <sodipodi:namedview
     id="base"
     pagecolor="#ffffff"
     bordercolor="#666666"
     borderopacity="1.0"
     inkscape:pageopacity="0.0"
     inkscape:pageshadow="2"
     inkscape:zoom="0.7"
     inkscape:cx="-55.002147"
     inkscape:cy="-400.44644"
     inkscape:document-units="px"
     inkscape:current-layer="layer1"
     showgrid="false"
     inkscape:window-width="1861"
     inkscape:window-height="1056"
     inkscape:window-x="59"
     inkscape:window-y="24"
     inkscape:window-maximized="1" />
  <metadata
     id="metadata7">
    <rdf:RDF>
      <cc:Work
         rdf:about="">
        <dc:format>image/svg+xml</dc:format>
        <dc:type
           rdf:resource="http://purl.org/dc/dcmitype/StillImage" />
        <dc:title />
      </cc:Work>
    </rdf:RDF>
  </metadata>
  <g
     inkscape:label="Layer 1"
     inkscape:groupmode="layer"
     id="layer1"
     transform="translate(-65.002143,-80.308632)">
    <g
       style="font-style:normal;font-weight:normal;font-size:27.5px;line-height:125%;font-family:'Hurmit Nerd Font';text-decoration: underline;text-decoration-line: underline;letter-spacing:0px;word-spacing:0px;fill:#ffffff;fill-opacity:1;stroke:none;stroke-width:1px;stroke-linecap:butt;stroke-linejoin:miter;stroke-opacity:1"
       id="text4136">
      <path
         d="m 65.002143,80.308632 0,20.624998 2.475,0 0,-9.074998 7.7275,0 0,9.074998 2.475,0 0,-20.624998 -2.475,0 0,9.075 -7.7275,0 0,-9.075 -2.475,0 z"
         id="path4140"
         inkscape:connector-curvature="0" />
      <path
         d="m 92.1773,87.183632 0,7.425 c 0,3.85 -0.0275,3.85 -3.8775,3.85 -3.85,0 -3.85,-3.85 -3.85,-3.85 l 0,-7.425 -2.475,0 0,7.425 c 0,0 0,6.324998 6.325,6.324998 6.325,0 6.3525,0 6.3525,-6.324998 l 0,-7.425 -2.475,0 z"
         id="path4142"
         inkscape:connector-curvature="0" />
      <path
         d="m 101.42246,94.058632 c 0,-4.4 0,-4.4 3.85,-4.4 l 0.055,0 c 1.265,0 3.8225,0 3.8225,1.925 l 2.475,0 c 0,-4.4 -3.8775,-4.4 -6.3525,-4.4 -6.325004,0 -6.325004,0 -6.325004,6.875 l 0,6.874998 2.475004,0 0,-6.874998 z"
         id="path4144"
         inkscape:connector-curvature="0" />
      <path
         d="m 118.39511,100.93363 0,-7.424998 c 0,-3.85 0,-3.795 2.64,-3.85 l 0,11.274998 2.475,0 0,-11.274998 c 2.585,0 2.6125,0 2.6125,3.63 l 0,0.22 0,7.424998 2.475,0 0,-7.424998 c 0,-6.325 -0.0275,-6.325 -6.3525,-6.325 -6.325,0 -6.325,0 -6.325,6.325 l 0,7.424998 2.475,0 z"
         id="path4146"
         inkscape:connector-curvature="0" />
      <path
         d="m 134.13027,87.183632 0,2.475 3.8775,0 0,8.8 -5.115,0 0,2.474998 12.6775,0 0,-2.474998 -5.0875,0 0,-11.275 -6.3525,0 z m 3.8775,-6.875 c -1.2375,0 -2.475,1.2375 -2.475,2.475 0,1.2375 1.2375,2.475 2.475,2.475 1.2375,0 2.475,-1.2375 2.475,-2.475 0,-1.2375 -1.2375,-2.475 -2.475,-2.475 z"
         id="path4148"
         inkscape:connector-curvature="0" />
      <path
         d="m 153.00042,94.058632 0,-4.4 7.755,0 0,-2.475 -7.755,0 0,-6.875 -2.475,0 0,13.75 0,1.2375 c 0,1.1825 0.4125,5.637498 6.3525,5.637498 2.0625,0 3.96,-0.7975 5.665,-1.649998 l -1.1,-2.0625 c -1.2375,0.605 -2.365,1.2375 -4.565,1.2375 -2.0625,0 -3.8775,-0.5225 -3.8775,-3.1625 l 0,-1.2375 z"
         id="path4150"
         inkscape:connector-curvature="0" />
      <path
         d="m 194.01324,80.308632 0,15.51 c -2.5025,-5.17 -4.9775,-10.34 -7.4525,-15.51 l -2.75,0 0,20.624998 2.475,0 0,-15.509998 c 2.475,5.17 4.9775,10.34 7.48,15.509998 l 2.7225,0 0,-20.624998 -2.475,0 z"
         id="path4152"
         inkscape:connector-curvature="0" />
      <path
         d="m 203.25839,92.821132 c 0,-3.1625 1.375,-3.1625 3.85,-3.1625 2.475,0 3.8775,0 3.8775,3.1625 l -7.7275,0 z m 3.85,-5.6375 c -3.85,0 -6.325,0 -6.325,6.875 0,6.874998 2.475,6.874998 6.325,6.874998 l 5.115,0 0,-2.474998 -5.115,0 c -2.475,0 -3.85,0 -3.85,-3.1625 l 10.2025,0 0,-1.2375 c 0,-6.875 -2.5025,-6.875 -6.3525,-6.875 z"
         id="path4154"
         inkscape:connector-curvature="0" />
      <path
         d="m 220.23105,94.058632 c 0,-4.4 0,-4.4 3.85,-4.4 l 0.055,0 c 1.265,0 3.8225,0 3.8225,1.925 l 2.475,0 c 0,-4.4 -3.8775,-4.4 -6.3525,-4.4 -6.325,0 -6.325,0 -6.325,6.875 l 0,6.874998 2.475,0 0,-6.874998 z"
         id="path4156"
         inkscape:connector-curvature="0" />
      <path
         d="m 234.72871,94.058632 c 0,0 0,6.874998 6.325,6.874998 l 3.2725,0 3.08,0 0,-9.954998 0,-10.67 -2.475,0 0,3.4375 0,2.8875 0,0.55 -0.4675,0 -3.41,0 c -6.325,0 -6.325,6.875 -6.325,6.875 z m 9.625,4.4 -3.3,0 c -3.85,0 -3.85,-4.4 -3.85,-4.4 0,0 0,-4.4 3.85,-4.4 l 3.41,0 0.4675,0 0,8.8 -0.5775,0 z"
         id="path4158"
         inkscape:connector-curvature="0" />
      <path
         d="m 268.67402,80.308632 0,20.624998 2.475,0 0,-9.074998 5.115,0 0,-2.475 -5.115,0 0,-6.6 10.2025,0 0,-2.475 -12.6775,0 z"
         id="path4160"
         inkscape:connector-curvature="0" />
      <path
         d="m 298.32417,94.058632 c 0,-6.875 -2.5025,-6.875 -6.3525,-6.875 -3.85,0 -6.325,0 -6.325,6.875 0,6.874998 2.475,6.874998 6.325,6.874998 3.85,0 6.3525,0 6.3525,-6.874998 z m -6.3525,-4.4 c 2.475,0 3.8775,0 3.8775,4.4 0,4.4 -1.4025,4.4 -3.8775,4.4 -2.475,0 -3.85,0 -3.85,-4.4 0,-4.4 1.375,-4.4 3.85,-4.4 z"
         id="path4162"
         inkscape:connector-curvature="0" />
      <path
         d="m 305.09433,100.93363 0,-7.424998 c 0,-3.85 0,-3.85 3.85,-3.85 3.85,0 3.8775,3.85 3.8775,3.85 l 0,7.424998 2.475,0 0,-7.424998 c 0,0 -0.0275,-6.325 -6.3525,-6.325 -6.325,0 -6.325,0 -6.325,6.325 l 0,7.424998 2.475,0 z"
         id="path4164"
         inkscape:connector-curvature="0" />
      <path
         d="m 322.72699,94.058632 0,-4.4 7.755,0 0,-2.475 -7.755,0 0,-6.875 -2.475,0 0,13.75 0,1.2375 c 0,1.1825 0.4125,5.637498 6.3525,5.637498 2.0625,0 3.96,-0.7975 5.665,-1.649998 l -1.1,-2.0625 c -1.2375,0.605 -2.365,1.2375 -4.565,1.2375 -2.0625,0 -3.8775,-0.5225 -3.8775,-3.1625 l 0,-1.2375 z"
         id="path4166"
         inkscape:connector-curvature="0" />
    </g>
    <g
       style="font-style:normal;font-weight:normal;font-size:27.5px;line-height:125%;font-family:'Hurmit Nerd Font';letter-spacing:0px;word-spacing:0px;fill:#ffffff;fill-opacity:1;stroke:none;stroke-width:1px;stroke-linecap:butt;stroke-linejoin:miter;stroke-opacity:1"
       id="text4140">
      <path
         d="m 68.359403,138.34362 c 0,-0.98 1.3475,-0.9975 2.345,-0.9975 l 0.105,0 2.1,0 0.3675,0 0,2.0125 -0.42,0 -2.0475,0 c -1.26,0 -2.45,0 -2.45,-1.015 z m -0.455,-3.7975 c 0.7875,-0.385 1.505,-0.7875 2.905,-0.7875 1.3125,0 2.4675,0.3325 2.4675,2.0125 l -0.2975,0 -2.17,0 c -2.45,0 -4.025,0.3675 -4.025,2.5725 0,1.96 1.575,2.59 4.025,2.59 l 2.1,0 1.9425,0 0,-5.1625 c 0,-0.7525 -0.2625,-3.5875 -4.0425,-3.5875 -1.3125,0 -2.52,0.5075 -3.605,1.05 l 0.7,1.3125 z"
         style="font-size:17.5px"
         id="path4169"
         inkscape:connector-curvature="0" />
      <path
         d="m 85.652684,136.55862 c 0,0 -0.0175,-4.375 -4.0425,-4.375 l -2.135,0 -0.315,0 0,-0.35 0,-1.8375 0,-2.1875 -1.575,0 0,6.79 0,6.335 1.96,0 2.065,0 c 4.025,0 4.0425,-4.375 4.0425,-4.375 z m -6.1075,2.8 -0.385,0 0,-5.6 0.28,0 2.17,0 c 2.45,0 2.4675,2.8 2.4675,2.8 0,0 -0.0175,2.8 -2.4675,2.8 l -2.065,0 z"
         style="font-size:17.5px"
         id="path4171"
         inkscape:connector-curvature="0" />
      <path
         d="m 96.453466,138.13362 -1.575,0 c 0,1.225 -1.6275,1.225 -2.4325,1.225 l -0.035,0 c -1.575,0 -2.45,-1.225 -2.45,-2.8 0,-1.575 0.875,-2.8 2.45,-2.8 l 0.035,0 c 0.805,0 2.4325,0 2.4325,1.225 l 1.575,0 c 0,-2.8 -2.4675,-2.8 -4.0425,-2.8 -2.45,0 -4.025,1.575 -4.025,4.375 0,2.8 1.575,4.375 4.025,4.375 1.575,0 4.0425,0 4.0425,-2.8 z"
         style="font-size:17.5px"
         id="path4173"
         inkscape:connector-curvature="0" />
      <path
         d="m 99.186747,136.55862 c 0,0 0,4.375 4.025003,4.375 l 2.0825,0 1.96,0 0,-6.335 0,-6.79 -1.575,0 0,2.1875 0,1.8375 0,0.35 -0.2975,0 -2.17,0 c -4.025003,0 -4.025003,4.375 -4.025003,4.375 z m 6.125003,2.8 -2.1,0 c -2.45,0 -2.45,-2.8 -2.45,-2.8 0,0 0,-2.8 2.45,-2.8 l 2.17,0 0.2975,0 0,5.6 -0.3675,0 z"
         style="font-size:17.5px"
         id="path4175"
         inkscape:connector-curvature="0" />
      <path
         d="m 111.56253,135.77112 c 0,-2.0125 0.875,-2.0125 2.45,-2.0125 1.575,0 2.4675,0 2.4675,2.0125 l -4.9175,0 z m 2.45,-3.5875 c -2.45,0 -4.025,0 -4.025,4.375 0,4.375 1.575,4.375 4.025,4.375 l 3.255,0 0,-1.575 -3.255,0 c -1.575,0 -2.45,0 -2.45,-2.0125 l 6.4925,0 0,-0.7875 c 0,-4.375 -1.5925,-4.375 -4.0425,-4.375 z"
         style="font-size:17.5px"
         id="path4177"
         inkscape:connector-curvature="0" />
      <path
         d="m 122.01331,140.93362 1.575,0 0,-4.375 2.45,0 0,-1.575 -2.45,0 0,-3.5875 c 0,-1.26 0.35,-2.0125 1.6625,-2.0125 1.4,0 2.1175,0.4025 2.905,0.7875 l 0.7,-1.3125 c -1.085,-0.5425 -2.2925,-1.05 -3.605,-1.05 -3.22,0 -3.2375,2.7825 -3.2375,3.57 l 0,0.0175 0,9.5375 z"
         style="font-size:17.5px"
         id="path4179"
         inkscape:connector-curvature="0" />
      <path
         d="m 139.65659,140.93362 0,-4.375 c 0,-4.375 -1.5925,-4.375 -4.0425,-4.375 -2.45,0 -4.025,0 -4.025,4.375 0,4.375 1.575,4.375 4.025,4.375 2.45,0 2.4675,-0.28 2.4675,-0.28 l 0,0.28 0,0.7875 c 0,1.68 -1.155,2.0125 -2.4675,2.0125 -1.4,0 -2.1175,-0.4025 -2.905,-0.7875 l -0.7,1.3125 c 1.085,0.5425 2.2925,1.05 3.605,1.05 3.78,0 4.0425,-2.835 4.0425,-3.5875 l 0,-0.7875 z m -4.0425,-7.175 c 1.575,0 2.4675,0 2.4675,2.8 0,2.8 -0.8925,2.8 -2.4675,2.8 -1.575,0 -2.45,0 -2.45,-2.8 0,-2.8 0.875,-2.8 2.45,-2.8 z"
         style="font-size:17.5px"
         id="path4181"
         inkscape:connector-curvature="0" />
      <path
         d="m 150.45737,140.93362 0,-4.375 c 0,0 -0.0175,-4.375 -4.0425,-4.375 l -2.135,0 -0.315,0 0,-0.35 0,-1.8375 0,-2.1875 -1.575,0 0,6.79 0,6.335 1.575,0 0,-7.175 0.28,0 2.17,0 c 2.45,0 2.4675,2.8 2.4675,2.8 l 0,4.375 1.575,0 z"
         style="font-size:17.5px"
         id="path4183"
         inkscape:connector-curvature="0" />
      <path
         d="m 153.97815,132.18362 0,1.575 2.4675,0 0,5.6 -3.255,0 0,1.575 8.0675,0 0,-1.575 -3.2375,0 0,-7.175 -4.0425,0 z m 2.4675,-4.375 c -0.7875,0 -1.575,0.7875 -1.575,1.575 0,0.7875 0.7875,1.575 1.575,1.575 0.7875,0 1.575,-0.7875 1.575,-1.575 0,-0.7875 -0.7875,-1.575 -1.575,-1.575 z"
         style="font-size:17.5px"
         id="path4185"
         inkscape:connector-curvature="0" />
      <path
         d="m 171.90143,140.93362 0,-8.75 -6.51,0 0,1.575 4.935,0 0,7.175 0,0.7875 c 0,1.68 -1.155,2.0125 -2.4675,2.0125 -1.4,0 -2.1175,-0.4025 -2.905,-0.7875 l -0.7,1.3125 c 1.085,0.5425 2.2925,1.05 3.605,1.05 3.78,0 4.0425,-2.835 4.0425,-3.5875 l 0,-0.7875 z m -2.485,-13.125 c -0.7875,0 -1.5575,0.7875 -1.5575,1.575 0,0.7875 0.77,1.575 1.5575,1.575 0.7875,0 1.575,-0.7875 1.575,-1.575 0,-0.7875 -0.7875,-1.575 -1.575,-1.575 z"
         style="font-size:17.5px"
         id="path4187"
         inkscape:connector-curvature="0" />
      <path
         d="m 182.85972,140.93362 -3.0625,-4.375 c 1.015,-1.4525 2.0475,-2.9225 3.0625,-4.375 l -1.9075,0 c -1.5225,2.17 -3.0625,4.34 -4.585,6.51 l 0,-10.885 -1.575,0 0,13.125 1.925,0 c 0.7,-1.015 1.4,-1.995 2.1,-3.01 l 2.135,3.01 1.9075,0 z"
         style="font-size:17.5px"
         id="path4189"
         inkscape:connector-curvature="0" />
      <path
         d="m 187.273,127.80862 0,1.575 1.575,0 0,9.975 -3.255,0 0,1.575 8.0675,0 0,-1.575 -3.2375,0 0,-11.55 -3.15,0 z"
         style="font-size:17.5px"
         id="path4191"
         inkscape:connector-curvature="0" />
      <path
         d="m 197.96878,140.93362 0,-4.725 c 0,-2.45 0,-2.415 1.68,-2.45 l 0,7.175 1.575,0 0,-7.175 c 1.645,0 1.6625,0 1.6625,2.31 l 0,0.14 0,4.725 1.575,0 0,-4.725 c 0,-4.025 -0.0175,-4.025 -4.0425,-4.025 -4.025,0 -4.025,0 -4.025,4.025 l 0,4.725 1.575,0 z"
         style="font-size:17.5px"
         id="path4193"
         inkscape:connector-curvature="0" />
      <path
         d="m 208.76956,140.93362 0,-4.725 c 0,-2.45 0,-2.45 2.45,-2.45 2.45,0 2.4675,2.45 2.4675,2.45 l 0,4.725 1.575,0 0,-4.725 c 0,0 -0.0175,-4.025 -4.0425,-4.025 -4.025,0 -4.025,0 -4.025,4.025 l 0,4.725 1.575,0 z"
         style="font-size:17.5px"
         id="path4195"
         inkscape:connector-curvature="0" />
      <path
         d="m 226.06284,136.55862 c 0,-4.375 -1.5925,-4.375 -4.0425,-4.375 -2.45,0 -4.025,0 -4.025,4.375 0,4.375 1.575,4.375 4.025,4.375 2.45,0 4.0425,0 4.0425,-4.375 z m -4.0425,-2.8 c 1.575,0 2.4675,0 2.4675,2.8 0,2.8 -0.8925,2.8 -2.4675,2.8 -1.575,0 -2.45,0 -2.45,-2.8 0,-2.8 0.875,-2.8 2.45,-2.8 z"
         style="font-size:17.5px"
         id="path4197"
         inkscape:connector-curvature="0" />
      <path
         d="m 236.86362,136.55862 c 0,0 -0.0175,-4.375 -4.0425,-4.375 l -2.065,0 -1.96,0 0,6.335 0,6.79 1.575,0 0,-2.1875 0,-1.8375 0,-0.35 0.315,0 2.135,0 c 4.025,0 4.0425,-4.375 4.0425,-4.375 z m -6.1075,-2.8 2.065,0 c 2.45,0 2.4675,2.8 2.4675,2.8 0,0 -0.0175,2.8 -2.4675,2.8 l -2.17,0 -0.28,0 0,-5.6 0.385,0 z"
         style="font-size:17.5px"
         id="path4199"
         inkscape:connector-curvature="0" />
      <path
         d="m 239.5969,136.55862 c 0,0 0,4.375 4.025,4.375 l 2.17,0 0.2975,0 0,0.35 0,1.8375 0,2.1875 1.575,0 0,-6.79 0,-6.335 -1.96,0 -2.0825,0 c -4.025,0 -4.025,4.375 -4.025,4.375 z m 6.125,-2.8 0.3675,0 0,5.6 -0.2975,0 -2.17,0 c -2.45,0 -2.45,-2.8 -2.45,-2.8 0,0 0,-2.8 2.45,-2.8 l 2.1,0 z"
         style="font-size:17.5px"
         id="path4201"
         inkscape:connector-curvature="0" />
      <path
         d="m 251.97268,136.55862 c 0,-2.8 0,-2.8 2.45,-2.8 l 0.035,0 c 0.805,0 2.4325,0 2.4325,1.225 l 1.575,0 c 0,-2.8 -2.4675,-2.8 -4.0425,-2.8 -4.025,0 -4.025,0 -4.025,4.375 l 0,4.375 1.575,0 0,-4.375 z"
         style="font-size:17.5px"
         id="path4203"
         inkscape:connector-curvature="0" />
      <path
         d="m 265.38097,137.34612 c 1.47,0 2.31,0.0175 2.31,0.9975 0,1.015 -0.8925,1.015 -2.4675,1.015 -1.575,0 -2.45,0 -2.45,-1.015 l -1.575,0 c 0,2.59 1.575,2.59 4.025,2.59 2.45,0 4.0425,0 4.0425,-2.59 0,-2.555 -2.135,-2.5725 -3.9725,-2.5725 l -0.2275,0 c -1.47,0 -2.2925,-0.0175 -2.2925,-0.9975 0,-1.015 0.875,-1.015 2.45,-1.015 1.575,0 2.4675,0 2.4675,1.015 l 1.575,0 c 0,-2.59 -1.5925,-2.59 -4.0425,-2.59 -2.45,0 -4.025,0 -4.025,2.59 0,2.555 2.1175,2.5725 3.955,2.5725 l 0.2275,0 z"
         style="font-size:17.5px"
         id="path4205"
         inkscape:connector-curvature="0" />
      <path
         d="m 273.99425,136.55862 0,-2.8 4.935,0 0,-1.575 -4.935,0 0,-4.375 -1.575,0 0,8.75 0,0.7875 c 0,0.7525 0.2625,3.5875 4.0425,3.5875 1.3125,0 2.52,-0.5075 3.605,-1.05 l -0.7,-1.3125 c -0.7875,0.385 -1.505,0.7875 -2.905,0.7875 -1.3125,0 -2.4675,-0.3325 -2.4675,-2.0125 l 0,-0.7875 z"
         style="font-size:17.5px"
         id="path4207"
         inkscape:connector-curvature="0" />
      <path
         d="m 289.29253,132.18362 0,4.725 c 0,2.45 -0.0175,2.45 -2.4675,2.45 -2.45,0 -2.45,-2.45 -2.45,-2.45 l 0,-4.725 -1.575,0 0,4.725 c 0,0 0,4.025 4.025,4.025 4.025,0 4.0425,0 4.0425,-4.025 l 0,-4.725 -1.575,0 z"
         style="font-size:17.5px"
         id="path4209"
         inkscape:connector-curvature="0" />
      <path
         d="m 298.46581,140.93362 3.2025,-8.75 -1.6975,0 -2.345,6.475 -2.3275,-6.475 -1.6975,0 3.185,8.75 1.68,0 z"
         style="font-size:17.5px"
         id="path4211"
         inkscape:connector-curvature="0" />
      <path
         d="m 306.57159,137.31112 -0.5775,-5.1275 -1.5925,0 0.9975,8.75 1.5925,0 1.435,-4.165 1.47,4.165 1.575,0 0.9975,-8.75 -1.5925,0 -0.5775,5.1275 -1.0675,-3.115 -1.575,0 -1.085,3.115 z"
         style="font-size:17.5px"
         id="path4213"
         inkscape:connector-curvature="0" />
      <path
         d="m 318.28237,136.55862 -3.08,4.375 1.925,0 2.1,-3.01 2.135,3.01 1.9075,0 -3.0625,-4.375 3.0625,-4.375 -1.9075,0 -2.135,3.01 -2.1,-3.01 -1.925,0 3.08,4.375 z"
         style="font-size:17.5px"
         id="path4215"
         inkscape:connector-curvature="0" />
      <path
         d="m 329.18815,140.93362 -1.575,4.375 1.645,0 1.61,-4.375 3.2025,-8.75 -1.6975,0 -2.345,6.475 -2.3275,-6.475 -1.6975,0 3.185,8.75 z"
         style="font-size:17.5px"
         id="path4217"
         inkscape:connector-curvature="0" />
      <path
         d="m 339.83143,139.35862 c 1.68,-2.38 3.36,-4.795 5.04,-7.175 l -8.0675,0 0,1.575 5.04,0 c -1.68,2.38 -3.36,4.795 -5.04,7.175 l 8.0675,0 0,-1.575 -5.04,0 z"
         style="font-size:17.5px"
         id="path4219"
         inkscape:connector-curvature="0" />
      <path
         d="m 71.649403,149.68362 -1.68,0 -3.185,13.125 1.6275,0 0.8575,-3.5875 3.08,0 0.875,3.5875 1.6275,0 -3.2025,-13.125 z m 0.315,7.9625 -2.2925,0 1.1375,-4.7075 1.155,4.7075 z"
         style="font-size:17.5px"
         id="path4221"
         inkscape:connector-curvature="0" />
      <path
         d="m 79.160184,161.23362 0,-5.18 2.45,0 c 2.45,0 2.4675,2.59 2.4675,2.59 0,0 -0.0175,2.59 -2.4675,2.59 l -2.45,0 z m -1.575,-5.18 0,6.755 4.025,0 c 4.025,0 4.0425,-4.165 4.0425,-4.165 0,0 -0.0175,-2.2575 -1.8725,-3.2725 1.085,-0.595 1.085,-2.2925 1.085,-2.2925 0,0 0,-3.395 -3.255,-3.395 l -4.025,0 0,5.1975 0,1.1725 z m 4.025,-1.1725 -2.45,0 0,-3.6225 2.45,0 c 1.68,0 1.68,1.82 1.68,1.82 0,0 0,1.8025 -1.68,1.8025 z"
         style="font-size:17.5px"
         id="path4223"
         inkscape:connector-curvature="0" />
      <path
         d="m 96.453466,160.00862 -1.575,0 c 0,1.225 -1.6275,1.225 -2.4325,1.225 l -0.035,0 c -1.575,0 -2.45,-1.225 -2.45,-4.9875 0,-3.7625 0.875,-4.9875 2.45,-4.9875 l 0.035,0 c 0.805,0 2.4325,0 2.4325,1.225 l 1.575,0 c 0,-2.8 -2.4675,-2.8 -4.0425,-2.8 -2.45,0 -4.025,1.575 -4.025,6.5625 0,4.9875 1.575,6.5625 4.025,6.5625 1.575,0 4.0425,0 4.0425,-2.8 z"
         style="font-size:17.5px"
         id="path4225"
         inkscape:connector-curvature="0" />
      <path
         d="m 100.76175,149.68362 -1.575003,0 0,2.415 0,10.71 1.960003,0 2.065,0 c 4.025,0 4.0425,-6.5625 4.0425,-6.5625 0,0 -0.0175,-6.5625 -4.0425,-6.5625 l -2.135,0 -0.315,0 z m 0.385,11.55 -0.385,0 0,-9.975 0.28,0 2.17,0 c 2.45,0 2.4675,4.9875 2.4675,4.9875 0,0 -0.0175,4.9875 -2.4675,4.9875 l -2.065,0 z"
         style="font-size:17.5px"
         id="path4227"
         inkscape:connector-curvature="0" />
      <path
         d="m 109.98753,149.68362 0,13.125 8.0675,0 0,-1.575 -6.4925,0 0,-4.2 3.255,0 0,-1.575 -3.255,0 0,-4.2 6.4925,0 0,-1.575 -8.0675,0 z"
         style="font-size:17.5px"
         id="path4229"
         inkscape:connector-curvature="0" />
      <path
         d="m 120.78831,149.68362 0,13.125 1.575,0 0,-5.775 3.255,0 0,-1.575 -3.255,0 0,-4.2 6.4925,0 0,-1.575 -8.0675,0 z"
         style="font-size:17.5px"
         id="path4231"
         inkscape:connector-curvature="0" />
      <path
         d="m 138.08159,156.24612 -2.4675,0 0,1.575 2.4675,0 0,2.1875 c 0,1.225 -1.6275,1.225 -2.4325,1.225 l -0.035,0 c -1.575,0 -2.45,-1.225 -2.45,-4.9875 0,-3.7625 0.875,-4.9875 2.45,-4.9875 l 0.035,0 c 0.805,0 2.4325,0 2.4325,1.225 l 1.575,0 c 0,-2.8 -2.4675,-2.8 -4.0425,-2.8 -2.45,0 -4.025,1.575 -4.025,6.5625 0,4.9875 1.575,6.5625 4.025,6.5625 1.575,0 4.0425,0 4.0425,-2.8 l 0,-2.1875 c 0,-1.575 -1.575,-1.575 -1.575,-1.575 z"
         style="font-size:17.5px"
         id="path4233"
         inkscape:connector-curvature="0" />
      <path
         d="m 142.38987,149.68362 0,13.125 1.575,0 0,-5.775 4.9175,0 0,5.775 1.575,0 0,-13.125 -1.575,0 0,5.775 -4.9175,0 0,-5.775 -1.575,0 z"
         style="font-size:17.5px"
         id="path4235"
         inkscape:connector-curvature="0" />
      <path
         d="m 160.92565,149.68362 -7.385,0 0,1.575 2.905,0 0,9.975 -2.905,0 0,1.575 7.385,0 0,-1.575 -2.905,0 0,-9.975 2.905,0 0,-1.575 z"
         style="font-size:17.5px"
         id="path4237"
         inkscape:connector-curvature="0" />
      <path
         d="m 170.48393,151.25862 0,7.175 c 0,2.8 -0.8925,2.8 -2.4675,2.8 -1.575,0 -2.45,0 -2.45,-2.8 l -1.575,0 c 0,4.375 1.575,4.375 4.025,4.375 2.45,0 4.0425,0 4.0425,-4.375 l 0,-8.75 -4.0425,0 0,1.575 2.4675,0 z"
         style="font-size:17.5px"
         id="path4239"
         inkscape:connector-curvature="0" />
      <path
         d="m 174.79222,149.68362 0,13.125 1.75,0 2.275,-4.76 2.31,4.76 1.7325,0 -3.1675,-6.5625 3.1675,-6.5625 -1.7325,0 c -1.5925,3.29 -3.1675,6.58 -4.76,9.87 l 0,-9.87 -1.575,0 z"
         style="font-size:17.5px"
         id="path4241"
         inkscape:connector-curvature="0" />
      <path
         d="m 185.593,149.68362 0,13.125 8.0675,0 0,-1.5225 -6.4925,-0.0525 0,-11.55 -1.575,0 z"
         style="font-size:17.5px"
         id="path4243"
         inkscape:connector-curvature="0" />
      <path
         d="m 202.88628,152.86862 0,9.94 1.575,0 0,-13.125 -1.7325,0 -2.31,4.795 -2.275,-4.795 -1.75,0 0,13.125 1.575,0 0,-9.94 1.5925,3.3775 1.7675,0 1.5575,-3.3775 z"
         style="font-size:17.5px"
         id="path4245"
         inkscape:connector-curvature="0" />
      <path
         d="m 213.68706,149.68362 0,9.87 c -1.5925,-3.29 -3.1675,-6.58 -4.7425,-9.87 l -1.75,0 0,13.125 1.575,0 0,-9.87 c 1.575,3.29 3.1675,6.58 4.76,9.87 l 1.7325,0 0,-13.125 -1.575,0 z"
         style="font-size:17.5px"
         id="path4247"
         inkscape:connector-curvature="0" />
      <path
         d="m 226.06284,156.24612 c 0,-6.5625 -1.5925,-6.5625 -4.0425,-6.5625 -2.45,0 -4.025,0 -4.025,6.5625 0,6.5625 1.575,6.5625 4.025,6.5625 2.45,0 4.0425,0 4.0425,-6.5625 z m -4.0425,-4.9875 c 1.575,0 2.4675,0 2.4675,4.9875 0,4.9875 -0.8925,4.9875 -2.4675,4.9875 -1.575,0 -2.45,0 -2.45,-4.9875 0,-4.9875 0.875,-4.9875 2.45,-4.9875 z"
         style="font-size:17.5px"
         id="path4249"
         inkscape:connector-curvature="0" />
      <path
         d="m 230.37112,155.45862 0,-4.2 2.45,0 c 2.45,0 2.4675,2.1 2.4675,2.1 0,0 -0.0175,2.1 -2.4675,2.1 l -2.45,0 z m -1.575,-5.775 0,13.125 1.575,0 0,-5.775 2.45,0 c 4.025,0 4.0425,-3.675 4.0425,-3.675 0,0 -0.0175,-3.675 -4.0425,-3.675 l -4.025,0 z"
         style="font-size:17.5px"
         id="path4251"
         inkscape:connector-curvature="0" />
      <path
         d="m 243.6219,151.25862 c 1.575,0 2.4675,0 2.4675,4.9875 0,1.085 -0.0875,1.995 -0.2625,2.73 l -0.56,-1.155 -1.75,0 c 0.7175,1.505 0.7,1.4175 1.4175,2.9225 -0.35,0.35 -0.8225,0.49 -1.3125,0.49 -1.575,0 -2.45,0 -2.45,-4.9875 0,-4.9875 0.875,-4.9875 2.45,-4.9875 z m 1.8725,10.6575 0.4375,0.8925 1.7325,0 -1.1025,-2.275 c 0.6475,-1.12 1.1025,-2.5725 1.1025,-4.2875 0,-6.5625 -1.5925,-6.5625 -4.0425,-6.5625 -2.45,0 -4.025,0 -4.025,6.5625 0,6.5625 1.575,6.5625 4.025,6.5625 0.5775,0 1.26,-0.315 1.8725,-0.8925 z"
         style="font-size:17.5px"
         id="path4253"
         inkscape:connector-curvature="0" />
      <path
         d="m 250.39768,149.68362 0,13.125 1.575,0 0,-5.775 1.96,0 2.8,5.775 1.7325,0 -2.835,-5.8975 c 0.525,0 2.835,-1.0675 2.835,-3.5525 0,0 -0.0175,-3.675 -4.0425,-3.675 l -4.025,0 z m 1.575,5.775 0,-4.2 2.45,0 c 2.45,0 2.4675,2.1 2.4675,2.1 0,0 -0.0175,2.1 -2.4675,2.1 l -2.45,0 z"
         style="font-size:17.5px"
         id="path4255"
         inkscape:connector-curvature="0" />
      <path
         d="m 261.19847,152.97362 c 0,3.675 1.575,3.675 4.025,3.675 l 0.105,0 c 2.03,0 2.3625,0.0175 2.3625,2.1 0,2.485 -0.8925,2.485 -2.4675,2.485 l -0.035,0 c -1.54,0 -2.415,-0.0175 -2.415,-1.575 l -1.575,0 c 0,3.15 1.575,3.15 4.025,3.15 2.45,0 4.0425,0 4.0425,-4.06 0,-3.6575 -1.5575,-3.675 -3.9725,-3.675 l -0.07,0 c -2.1175,0 -2.45,0 -2.45,-2.1 0,-1.715 0.875,-1.715 2.45,-1.715 l 0.63,0 c 1.19,0 1.8375,0.105 1.8375,1.575 l 1.575,0 c 0,-2.555 -1.5925,-3.15 -4.0425,-3.15 -2.45,0 -4.025,0 -4.025,3.29 z"
         style="font-size:17.5px"
         id="path4257"
         inkscape:connector-curvature="0" />
      <path
         d="m 271.99925,149.68362 0,1.4 3.255,0 0,11.725 1.575,0 0,-11.725 3.2375,0 0,-1.4 -8.0675,0 z"
         style="font-size:17.5px"
         id="path4259"
         inkscape:connector-curvature="0" />
      <path
         d="m 289.29253,149.68362 0,9.1 c 0,2.45 -0.0175,2.45 -2.4675,2.45 -2.45,0 -2.45,-2.45 -2.45,-2.45 l 0,-9.1 -1.575,0 0,9.1 c 0,0 0,4.025 4.025,4.025 4.025,0 4.0425,0 4.0425,-4.025 l 0,-9.1 -1.575,0 z"
         style="font-size:17.5px"
         id="path4261"
         inkscape:connector-curvature="0" />
      <path
         d="m 298.46581,162.80862 3.2025,-13.125 -1.6275,0 -2.415,9.87 -2.3975,-9.87 -1.6275,0 3.185,13.125 1.68,0 z"
         style="font-size:17.5px"
         id="path4263"
         inkscape:connector-curvature="0" />
      <path
         d="m 306.62409,158.01362 -0.63,-8.33 -1.5925,0 0.9975,13.125 1.5925,0 1.435,-5.6525 1.47,5.6525 1.575,0 0.9975,-13.125 -1.5925,0 -0.63,8.365 -1.015,-3.99 -1.61,0 -0.9975,3.955 z"
         style="font-size:17.5px"
         id="path4265"
         inkscape:connector-curvature="0" />
      <path
         d="m 321.53737,149.68362 -2.31,4.76 -2.275,-4.76 -1.75,0 3.1675,6.5625 -3.1675,6.5625 1.75,0 2.275,-4.76 2.31,4.76 1.7325,0 -3.1675,-6.5625 3.1675,-6.5625 -1.7325,0 z"
         style="font-size:17.5px"
         id="path4267"
         inkscape:connector-curvature="0" />
      <path
         d="m 329.25815,156.24612 0,6.5625 1.575,0 0,-6.5625 3.2375,-6.5625 -1.7675,0 -2.275,4.62 -2.275,-4.62 -1.75,0 3.255,6.5625 z"
         style="font-size:17.5px"
         id="path4269"
         inkscape:connector-curvature="0" />
      <path
         d="m 344.87143,162.80862 0,-1.575 -5.5825,0 c 1.855,-3.85 3.7275,-7.7 5.5825,-11.55 l -8.0675,0 0,1.575 5.565,0 -5.565,11.55 8.0675,0 z"
         style="font-size:17.5px"
         id="path4271"
         inkscape:connector-curvature="0" />
      <path
         d="m 74.851903,180.30862 c 0,-4.375 -1.5925,-4.375 -4.0425,-4.375 -2.45,0 -4.025,0 -4.025,4.375 0,4.375 1.575,4.375 4.025,4.375 2.45,0 4.0425,0 4.0425,-4.375 z m -4.0425,-2.8 c 1.575,0 2.4675,0 2.4675,2.8 0,2.8 -0.8925,2.8 -2.4675,2.8 -1.575,0 -2.45,0 -2.45,-2.8 0,-2.8 0.875,-2.8 2.45,-2.8 z"
         style="font-size:17.5px"
         id="path4273"
         inkscape:connector-curvature="0" />
      <path
         d="m 85.652684,178.12112 c 0,-6.5625 -1.5925,-6.5625 -4.0425,-6.5625 -2.45,0 -4.025,0 -4.025,6.5625 0,6.5625 1.575,6.5625 4.025,6.5625 2.45,0 4.0425,0 4.0425,-6.5625 z m -4.0425,-4.9875 c 1.575,0 2.4675,0 2.4675,4.9875 0,4.9875 -0.8925,4.9875 -2.4675,4.9875 -1.575,0 -2.45,0 -2.45,-4.9875 0,-4.9875 0.875,-4.9875 2.45,-4.9875 z"
         style="font-size:17.5px"
         id="path4275"
         inkscape:connector-curvature="0" />
      <path
         d="m 96.453466,178.12112 c 0,-6.5625 -1.5925,-6.5625 -4.0425,-6.5625 -2.45,0 -4.025,0 -4.025,6.5625 0,6.5625 1.575,6.5625 4.025,6.5625 2.45,0 4.0425,0 4.0425,-6.5625 z m -1.6625,-2.1875 c 0.0525,0.595 0.0875,1.295 0.0875,2.1875 0,4.9875 -0.8925,4.9875 -2.4675,4.9875 -0.98,0 -1.47,-0.07 -1.855,-0.7 l 4.235,-6.475 z m -0.5075,-2.1 -4.235,6.4925 c -0.0525,-0.595 -0.0875,-1.3125 -0.0875,-2.205 0,-4.9875 0.875,-4.9875 2.45,-4.9875 1.015,0 1.4875,0.07 1.8725,0.7 z"
         style="font-size:17.5px"
         id="path4277"
         inkscape:connector-curvature="0" />
      <path
         d="m 103.21175,173.13362 c 1.225,0 2.0825,0.665 2.0825,1.89 0,1.225 -0.8575,1.89 -2.0825,1.89 -1.225,0 -2.065,-0.665 -2.065,-1.89 0,-1.225 0.84,-1.89 2.065,-1.89 z m 4.0425,7.665 c 0,-2.065 -1.12,-2.555 -1.575,-3.08 0.455,-0.525 1.1725,-1.225 1.1725,-2.695 0,-2.1 -1.19,-3.465 -3.64,-3.465 -2.45,0 -3.640003,1.365 -3.640003,3.465 0,1.47 0.735003,2.17 1.190003,2.695 -0.455,0.525 -1.575003,0.9975 -1.575003,3.08 0,2.1 1.575003,3.885 4.025003,3.885 2.45,0 4.0425,-1.785 4.0425,-3.885 z m -4.0425,-2.31 c 1.575,0 2.4675,0.735 2.4675,2.31 0,1.575 -0.8925,2.31 -2.4675,2.31 -1.575,0 -2.45,-0.735 -2.45,-2.31 0,-1.575 0.875,-2.31 2.45,-2.31 z"
         style="font-size:17.5px"
         id="path4279"
         inkscape:connector-curvature="0" />
      <path
         d="m 121.57581,175.93362 0,1.575 2.4675,0 0,5.6 -3.255,0 0,1.575 8.0675,0 0,-1.575 -3.2375,0 0,-7.175 -4.0425,0 z m 2.4675,-4.375 c -0.7875,0 -1.575,0.7875 -1.575,1.575 0,0.7875 0.7875,1.575 1.575,1.575 0.7875,0 1.575,-0.7875 1.575,-1.575 0,-0.7875 -0.7875,-1.575 -1.575,-1.575 z"
         style="font-size:17.5px"
         id="path4281"
         inkscape:connector-curvature="0" />
      <path
         d="m 139.32409,171.55862 -7.385,0 0,1.575 2.905,0 0,9.975 -2.905,0 0,1.575 7.385,0 0,-1.575 -2.905,0 0,-9.975 2.905,0 0,-1.575 z"
         style="font-size:17.5px"
         id="path4283"
         inkscape:connector-curvature="0" />
      <path
         d="m 144.06987,171.55862 0,1.575 1.575,0 0,9.975 -3.255,0 0,1.575 8.0675,0 0,-1.575 -3.2375,0 0,-11.55 -3.15,0 z"
         style="font-size:17.5px"
         id="path4285"
         inkscape:connector-curvature="0" />
      <path
         d="m 153.19065,171.55862 0,13.125 8.0675,0 0,-1.5225 -6.4925,-0.0525 0,-11.55 -1.575,0 z"
         style="font-size:17.5px"
         id="path4287"
         inkscape:connector-curvature="0" />
      <path
         d="m 165.91643,177.75362 2.905,-4.0075 0,10.9375 1.575,0 0,-13.125 -1.96,0 -4.445,6.195 1.925,0 z"
         style="font-size:17.5px"
         id="path4289"
         inkscape:connector-curvature="0" />
      <path
         d="m 186.2755,179.69612 c 2.555,0 2.5725,0.0175 2.5725,2.5025 0,4.06 1.575,4.06 4.13,4.06 l 0,-1.575 c -2.555,0 -2.555,0 -2.555,-2.485 0,-1.715 0,-2.7125 -0.315,-3.29 0.315,-0.5775 0.315,-1.575 0.315,-3.29 0,-2.485 0,-2.485 2.555,-2.485 l 0,-1.575 c -2.555,0 -4.13,0 -4.13,4.06 0,2.485 -0.0175,2.5025 -2.5725,2.5025 l 0,1.575 z"
         style="font-size:17.5px"
         id="path4291"
         inkscape:connector-curvature="0" />
      <path
         d="m 203.77878,179.69612 0,-1.575 c -2.555,0 -2.555,-0.0175 -2.555,-2.5025 0,-4.06 -1.5925,-4.06 -4.1475,-4.06 l 0,1.575 c 2.555,0 2.5725,0 2.5725,2.485 l 0,0.49 c 0,1.4175 0.0175,2.275 0.2975,2.8 -0.28,0.525 -0.2975,1.3825 -0.2975,2.8 l 0,0.49 c 0,2.485 -0.0175,2.485 -2.5725,2.485 l 0,1.575 c 2.555,0 4.1475,0 4.1475,-4.06 0,-2.485 0,-2.5025 2.555,-2.5025 z"
         style="font-size:17.5px"
         id="path4293"
         inkscape:connector-curvature="0" />
      <path
         d="m 218.67784,171.55862 0,14.7 6.7025,0 0,-1.575 -5.1275,0 0,-11.55 5.1275,0 0,-1.575 -6.7025,0 z"
         style="font-size:17.5px"
         id="path4295"
         inkscape:connector-curvature="0" />
      <path
         d="m 236.18112,171.55862 -6.7025,0 0,1.575 5.1275,0 0,11.55 -5.1275,0 0,1.575 6.7025,0 0,-14.7 z"
         style="font-size:17.5px"
         id="path4297"
         inkscape:connector-curvature="0" />
      <path
         d="m 258.46518,184.68362 0,-4.375 c 0,-4.375 -1.5925,-4.375 -4.0425,-4.375 -2.45,0 -4.025,0 -4.025,4.375 0,4.375 1.575,4.375 4.025,4.375 2.45,0 2.4675,-0.28 2.4675,-0.28 l 0,0.28 0,0.7875 c 0,1.68 -1.155,2.0125 -2.4675,2.0125 -1.4,0 -2.1175,-0.4025 -2.905,-0.7875 l -0.7,1.3125 c 1.085,0.5425 2.2925,1.05 3.605,1.05 3.78,0 4.0425,-2.835 4.0425,-3.5875 l 0,-0.7875 z m -4.0425,-7.175 c 1.575,0 2.4675,0 2.4675,2.8 0,2.8 -0.8925,2.8 -2.4675,2.8 -1.575,0 -2.45,0 -2.45,-2.8 0,-2.8 0.875,-2.8 2.45,-2.8 z"
         style="font-size:17.5px"
         id="path4299"
         inkscape:connector-curvature="0" />
      <path
         d="m 265.22347,173.13362 c 1.575,0 2.4675,0.91 2.4675,2.485 0,1.575 -0.8925,2.5025 -2.4675,2.5025 -1.575,0 -2.45,-0.9275 -2.45,-2.5025 0,-1.575 0.875,-2.485 2.45,-2.485 z m 2.4675,5.67 0,5.88 1.575,0 0,-9.065 c 0,-2.485 -1.5925,-4.06 -4.0425,-4.06 -2.45,0 -4.025,1.575 -4.025,4.06 0,2.485 1.575,4.0775 4.025,4.0775 0.98,0 2.0475,-0.4725 2.4675,-0.8925 z"
         style="font-size:17.5px"
         id="path4301"
         inkscape:connector-curvature="0" />
      <path
         d="m 271.99925,180.30862 c 0,0 0,4.375 4.025,4.375 l 2.17,0 0.2975,0 0,0.35 0,1.8375 0,2.1875 1.575,0 0,-6.79 0,-6.335 -1.96,0 -2.0825,0 c -4.025,0 -4.025,4.375 -4.025,4.375 z m 6.125,-2.8 0.3675,0 0,5.6 -0.2975,0 -2.17,0 c -2.45,0 -2.45,-2.8 -2.45,-2.8 0,0 0,-2.8 2.45,-2.8 l 2.1,0 z"
         style="font-size:17.5px"
         id="path4303"
         inkscape:connector-curvature="0" />
      <path
         d="m 290.86753,181.88362 -1.575,0 c 0,1.225 -1.6275,1.225 -2.4325,1.225 l -0.035,0 c -1.575,0 -2.45,-1.225 -2.45,-4.9875 0,-3.7625 0.875,-4.9875 2.45,-4.9875 l 0.035,0 c 0.805,0 2.4325,0 2.4325,1.225 l 1.575,0 c 0,-2.8 -2.4675,-2.8 -4.0425,-2.8 -2.45,0 -4.025,1.575 -4.025,6.5625 0,4.9875 1.575,6.5625 4.025,6.5625 1.575,0 4.0425,0 4.0425,-2.8 z"
         style="font-size:17.5px"
         id="path4305"
         inkscape:connector-curvature="0" />
      <path
         d="m 300.09331,178.12112 -2.4675,0 0,1.575 2.4675,0 0,2.1875 c 0,1.225 -1.6275,1.225 -2.4325,1.225 l -0.035,0 c -1.575,0 -2.45,-1.225 -2.45,-4.9875 0,-3.7625 0.875,-4.9875 2.45,-4.9875 l 0.035,0 c 0.805,0 2.4325,0 2.4325,1.225 l 1.575,0 c 0,-2.8 -2.4675,-2.8 -4.0425,-2.8 -2.45,0 -4.025,1.575 -4.025,6.5625 0,4.9875 1.575,6.5625 4.025,6.5625 1.575,0 4.0425,0 4.0425,-2.8 l 0,-2.1875 c 0,-1.575 -1.575,-1.575 -1.575,-1.575 z"
         style="font-size:17.5px"
         id="path4307"
         inkscape:connector-curvature="0" />
      <path
         d="m 308.42659,173.13362 c 1.575,0 2.4675,0 2.4675,4.9875 0,1.085 -0.0875,1.995 -0.2625,2.73 l -0.56,-1.155 -1.75,0 c 0.7175,1.505 0.7,1.4175 1.4175,2.9225 -0.35,0.35 -0.8225,0.49 -1.3125,0.49 -1.575,0 -2.45,0 -2.45,-4.9875 0,-4.9875 0.875,-4.9875 2.45,-4.9875 z m 1.8725,10.6575 0.4375,0.8925 1.7325,0 -1.1025,-2.275 c 0.6475,-1.12 1.1025,-2.5725 1.1025,-4.2875 0,-6.5625 -1.5925,-6.5625 -4.0425,-6.5625 -2.45,0 -4.025,0 -4.025,6.5625 0,6.5625 1.575,6.5625 4.025,6.5625 0.5775,0 1.26,-0.315 1.8725,-0.8925 z"
         style="font-size:17.5px"
         id="path4309"
         inkscape:connector-curvature="0" />
      <path
         d="m 326.00315,179.73112 1.575,0 c 0,0 0,-0.8225 0.8225,-0.8225 0.8575,0 0.8575,1.575 3.2725,1.575 2.38,0 2.3975,-2.24 2.3975,-2.3625 l -1.575,0 c 0,0.035 0,0.7875 -0.8225,0.7875 -0.84,0 -0.84,-1.575 -3.255,-1.575 -2.415,0 -2.415,2.3975 -2.415,2.3975 z"
         style="font-size:17.5px"
         id="path4311"
         inkscape:connector-curvature="0" />
      <path
         d="m 336.80393,178.12112 0,1.575 8.0675,0 0,-1.575 -8.0675,0 z"
         style="font-size:17.5px"
         id="path4313"
         inkscape:connector-curvature="0" />
      <path
         d="m 355.67222,178.12112 -3.2375,0 0,-3.5875 -1.575,0 0,3.5875 -3.255,0 0,1.575 3.255,0 0,3.5875 1.575,0 0,-3.5875 3.2375,0 0,-1.575 z"
         style="font-size:17.5px"
         id="path4315"
         inkscape:connector-curvature="0" />
      <path
         d="m 358.4055,175.93362 0,1.575 8.0675,0 0,-1.575 -8.0675,0 z m 0,4.375 0,1.575 8.0675,0 0,-1.575 -8.0675,0 z"
         style="font-size:17.5px"
         id="path4317"
         inkscape:connector-curvature="0" />
      <path
         d="m 376.59128,179.69612 0,-1.575 -6.7025,-3.5875 0,1.785 4.8125,2.59 -4.8125,2.59 0,1.785 6.7025,-3.5875 z"
         style="font-size:17.5px"
         id="path4319"
         inkscape:connector-curvature="0" />
    </g>
  </g>
</svg>
