<?xml version="1.0" encoding="UTF-8" standalone="no"?>
<svg
   version="1.1"
   id="svg2"
   viewBox="0 0 308.98923 107.80999"
   height="30.426374mm"
   width="87.203629mm"
   sodipodi:docname="iMWritingMono Nerd Font.svg"
   inkscape:version="1.1.2 (0a00cf5339, 2022-02-04)"
   xmlns:inkscape="http://www.inkscape.org/namespaces/inkscape"
   xmlns:sodipodi="http://sodipodi.sourceforge.net/DTD/sodipodi-0.dtd"
   xmlns="http://www.w3.org/2000/svg"
   xmlns:svg="http://www.w3.org/2000/svg"
   xmlns:rdf="http://www.w3.org/1999/02/22-rdf-syntax-ns#"
   xmlns:cc="http://creativecommons.org/ns#"
   xmlns:dc="http://purl.org/dc/elements/1.1/">
  <sodipodi:namedview
     id="namedview12"
     pagecolor="#ffffff"
     bordercolor="#666666"
     borderopacity="1.0"
     inkscape:pageshadow="2"
     inkscape:pageopacity="0.0"
     inkscape:pagecheckerboard="0"
     inkscape:document-units="mm"
     showgrid="false"
     inkscape:zoom="0.64052329"
     inkscape:cx="327.07632"
     inkscape:cy="475.39255"
     inkscape:window-width="1458"
     inkscape:window-height="976"
     inkscape:window-x="0"
     inkscape:window-y="32"
     inkscape:window-maximized="0"
     inkscape:current-layer="svg2" />
  <defs
     id="defs4" />
  <metadata
     id="metadata7">
    <rdf:RDF>
      <cc:Work
         rdf:about="">
        <dc:format>image/svg+xml</dc:format>
        <dc:type
           rdf:resource="http://purl.org/dc/dcmitype/StillImage" />
      </cc:Work>
    </rdf:RDF>
  </metadata>
  <g
     id="layer1"
     transform="translate(-65.332143,-80.583632)">
    <g
       aria-label="iMWriting Nerd Font"
       id="text4136"
       style="font-size:27.5px;line-height:125%;font-family:'iMWritingMono Nerd Font';text-decoration:underline;text-decoration-line:underline;letter-spacing:0px;word-spacing:0px;fill:#ffffff;stroke-width:1px">
      <path
         d="M 72.894643,80.583632 V 83.498632 H 69.979643 V 80.583632 Z M 65.332143,99.008632 H 70.529643 V 88.696132 H 65.332143 V 86.743632 H 72.729643 V 99.008632 H 77.487143 V 100.93363 H 65.332143 Z"
         id="path829" />
      <path
         d="M 91.869601,85.231132 H 91.649601 L 87.607101,95.103632 83.564601,85.231132 H 83.344601 V 100.93363 H 81.227101 V 81.738632 H 84.197101 L 87.579601,90.208632 H 87.744601 L 91.127101,81.738632 H 93.987101 V 100.93363 H 91.869601 Z"
         id="path831" />
      <path
         d="M 98.332059,100.93363 96.819559,81.738632 H 98.882059 L 99.679559,92.738632 100.09206,98.541132 H 100.31206 L 102.84206,86.743632 H 105.42706 L 107.95706,98.541132 H 108.17706 L 108.58956,92.738632 109.38706,81.738632 H 111.39456 L 109.88206,100.93363 H 106.55456 L 104.21706,89.466132 H 103.99706 L 101.65956,100.93363 Z"
         id="path833" />
      <path
         d="M 114.47452,99.063632 H 118.62702 V 88.613632 H 114.47452 V 86.743632 H 120.82702 V 90.318632 H 120.96452 Q 122.00952,86.743632 125.74952,86.743632 H 127.72952 V 88.943632 H 125.06202 Q 123.05452,88.943632 121.92702,90.071132 120.82702,91.198632 120.82702,92.931132 V 99.063632 H 126.32702 V 100.93363 H 114.47452 Z"
         id="path835" />
      <path
         d="M 138.89448,80.583632 V 83.498632 H 135.97948 V 80.583632 Z M 131.33198,99.008632 H 136.52948 V 88.696132 H 131.33198 V 86.743632 H 138.72948 V 99.008632 H 143.48698 V 100.93363 H 131.33198 Z"
         id="path837" />
      <path
         d="M 153.35943,96.203632 Q 153.35943,97.523632 153.77193,98.156132 154.18443,98.761132 154.95443,98.926132 155.75193,99.063632 157.31943,99.063632 H 159.05193 V 100.93363 H 157.34693 Q 155.17443,100.93363 153.85443,100.57613 152.56193,100.19113 151.84693,99.146132 151.15943,98.101132 151.15943,96.176132 V 88.613632 H 146.42943 V 86.743632 H 151.15943 V 81.738632 H 153.35943 V 86.743632 H 159.82193 V 88.613632 H 153.35943 Z"
         id="path839" />
      <path
         d="M 171.89439,80.583632 V 83.498632 H 168.97939 V 80.583632 Z M 164.33189,99.008632 H 169.52939 V 88.696132 H 164.33189 V 86.743632 H 171.72939 V 99.008632 H 176.48689 V 100.93363 H 164.33189 Z"
         id="path841" />
      <path
         d="M 181.05185,100.93363 V 86.743632 H 183.25185 V 89.053632 H 183.36185 Q 184.48935,86.413632 187.40435,86.413632 189.65935,86.413632 190.97935,87.843632 192.32685,89.273632 192.32685,91.831132 V 100.93363 H 190.12685 V 92.216132 Q 190.12685,90.291132 189.27435,89.328632 188.42185,88.366132 186.77185,88.366132 185.31435,88.366132 184.26935,89.081132 183.25185,89.768632 183.25185,91.088632 V 100.93363 Z"
         id="path843" />
      <path
         d="M 208.74431,100.46613 Q 208.74431,103.40863 207.09431,105.08613 205.44431,106.76363 202.50181,106.76363 199.31181,106.76363 197.41431,104.81113 L 198.70681,103.29863 Q 200.19181,104.83863 202.52931,104.83863 206.54431,104.83863 206.54431,100.60363 V 98.238632 H 206.43431 Q 205.05931,100.87863 202.06181,100.87863 199.47681,100.87863 197.99181,98.953632 196.50681,97.001132 196.50681,93.646132 196.50681,90.291132 197.99181,88.366132 199.47681,86.413632 202.06181,86.413632 205.05931,86.413632 206.43431,89.053632 H 206.54431 V 86.743632 H 208.74431 Z M 202.91431,98.926132 Q 204.45431,98.926132 205.49931,98.156132 206.54431,97.386132 206.54431,96.011132 V 91.281132 Q 206.54431,89.906132 205.49931,89.136132 204.45431,88.366132 202.91431,88.366132 201.01681,88.366132 199.94431,89.521132 198.87181,90.676132 198.87181,92.628632 V 94.663632 Q 198.87181,96.616132 199.94431,97.771132 201.01681,98.926132 202.91431,98.926132 Z"
         id="path845" />
      <path
         d="M 232.33922,84.681132 H 232.14672 V 100.93363 H 230.05672 V 81.738632 H 233.32922 L 239.87422,97.826132 H 240.06672 V 81.738632 H 242.15672 V 100.93363 H 238.88422 Z"
         id="path847" />
      <path
         d="M 252.85419,101.26363 Q 250.84669,101.26363 249.33419,100.35613 247.82169,99.448632 246.99669,97.771132 246.19919,96.093632 246.19919,93.866132 246.19919,91.638632 247.02419,89.961132 247.84919,88.256132 249.30669,87.348632 250.79169,86.413632 252.71669,86.413632 254.58669,86.413632 256.01669,87.321132 257.44669,88.201132 258.21669,89.768632 259.01419,91.336132 259.01419,93.343632 V 94.388632 H 248.50919 V 95.048632 Q 248.50919,96.946132 249.69169,98.156132 250.87419,99.366132 252.85419,99.366132 254.25669,99.366132 255.30169,98.733632 256.34669,98.073632 256.92419,96.891132 L 258.54669,97.991132 Q 257.88669,99.476132 256.37419,100.38363 254.88919,101.26363 252.85419,101.26363 Z M 252.71669,88.228632 Q 251.53419,88.228632 250.57169,88.806132 249.60919,89.356132 249.05919,90.346132 248.50919,91.336132 248.50919,92.546132 V 92.738632 H 256.64919 V 92.436132 Q 256.64919,90.566132 255.54919,89.411132 254.47669,88.228632 252.71669,88.228632 Z"
         id="path849" />
      <path
         d="M 262.97414,99.063632 H 267.12664 V 88.613632 H 262.97414 V 86.743632 H 269.32664 V 90.318632 H 269.46414 Q 270.50914,86.743632 274.24914,86.743632 H 276.22914 V 88.943632 H 273.56164 Q 271.55414,88.943632 270.42664,90.071132 269.32664,91.198632 269.32664,92.931132 V 99.063632 H 274.82664 V 100.93363 H 262.97414 Z"
         id="path851" />
      <path
         d="M 289.04409,98.623632 H 288.93409 Q 287.55909,101.26363 284.56159,101.26363 281.94909,101.26363 280.46409,99.311132 279.00659,97.331132 279.00659,93.838632 279.00659,90.346132 280.46409,88.393632 281.94909,86.413632 284.56159,86.413632 287.55909,86.413632 288.93409,89.053632 H 289.04409 V 80.583632 H 291.24409 V 100.93363 H 289.04409 Z M 285.41409,99.311132 Q 286.95409,99.311132 287.99909,98.541132 289.04409,97.771132 289.04409,96.396132 V 91.281132 Q 289.04409,89.906132 287.99909,89.136132 286.95409,88.366132 285.41409,88.366132 283.51659,88.366132 282.44409,89.521132 281.37159,90.676132 281.37159,92.628632 V 95.048632 Q 281.37159,97.001132 282.44409,98.156132 283.51659,99.311132 285.41409,99.311132 Z"
         id="path853" />
      <path
         d="M 312.83152,100.93363 V 81.738632 H 324.93152 V 83.746132 H 315.14152 V 90.208632 H 324.10652 V 92.216132 H 315.14152 V 100.93363 Z"
         id="path855" />
      <path
         d="M 335.10647,101.26363 Q 333.12647,101.26363 331.66897,100.35613 330.23897,99.448632 329.44147,97.771132 328.67147,96.093632 328.67147,93.838632 328.67147,91.583632 329.44147,89.906132 330.23897,88.228632 331.66897,87.321132 333.12647,86.413632 335.10647,86.413632 337.08647,86.413632 338.51647,87.321132 339.97397,88.228632 340.74397,89.906132 341.54147,91.583632 341.54147,93.838632 341.54147,96.093632 340.74397,97.771132 339.97397,99.448632 338.51647,100.35613 337.08647,101.26363 335.10647,101.26363 Z M 335.10647,99.366132 Q 337.00397,99.366132 338.10397,98.238632 339.20397,97.083632 339.20397,94.856132 V 92.821132 Q 339.20397,90.593632 338.10397,89.466132 337.00397,88.311132 335.10647,88.311132 333.20897,88.311132 332.10897,89.466132 331.00897,90.593632 331.00897,92.821132 V 94.856132 Q 331.00897,97.083632 332.10897,98.238632 333.20897,99.366132 335.10647,99.366132 Z"
         id="path857" />
      <path
         d="M 346.05144,100.93363 V 86.743632 H 348.25144 V 89.053632 H 348.36144 Q 349.48894,86.413632 352.40394,86.413632 354.65894,86.413632 355.97894,87.843632 357.32644,89.273632 357.32644,91.831132 V 100.93363 H 355.12644 V 92.216132 Q 355.12644,90.291132 354.27394,89.328632 353.42144,88.366132 351.77144,88.366132 350.31394,88.366132 349.26894,89.081132 348.25144,89.768632 348.25144,91.088632 V 100.93363 Z"
         id="path859" />
      <path
         d="M 367.85888,96.203632 Q 367.85888,97.523632 368.27138,98.156132 368.68388,98.761132 369.45388,98.926132 370.25138,99.063632 371.81888,99.063632 H 373.55138 V 100.93363 H 371.84638 Q 369.67388,100.93363 368.35388,100.57613 367.06138,100.19113 366.34638,99.146132 365.65888,98.101132 365.65888,96.176132 V 88.613632 H 360.92888 V 86.743632 H 365.65888 V 81.738632 H 367.85888 V 86.743632 H 374.32138 V 88.613632 H 367.85888 Z"
         id="path861" />
    </g>
    <g
       aria-label="abcdefghijklmnopqrstuvwxyzABCDEFGHIJKLMNOPQRSTUVWXYZ oO08 iIlL1 {} [] g9qCGQ ~-+=&gt;"
       id="text4140"
       style="font-size:27.5px;line-height:125%;font-family:'iMWritingMono Nerd Font';letter-spacing:0px;word-spacing:0px;fill:#ffffff;stroke-width:1px">
      <path
         d="M 74.081903,140.93362 Q 72.664403,140.93362 72.471903,139.46362 H 72.384403 Q 71.754403,141.14362 69.671903,141.14362 68.254403,141.14362 67.414403,140.40862 66.574403,139.67362 66.574403,138.39612 66.574403,135.77112 70.459403,135.77112 H 72.384403 V 134.87862 Q 72.384403,133.89862 71.824403,133.39112 71.264403,132.88362 70.231903,132.88362 68.586903,132.88362 67.816903,134.21362 L 66.871903,133.51362 Q 67.239403,132.74362 68.131903,132.21862 69.024403,131.69362 70.319403,131.69362 71.911903,131.69362 72.839403,132.51612 73.784403,133.32112 73.784403,134.73862 V 139.07862 Q 73.784403,139.34112 73.959403,139.53362 74.151903,139.70862 74.414403,139.70862 H 75.044403 V 140.93362 Z M 69.916903,139.97112 Q 70.984403,139.97112 71.684403,139.49862 72.384403,139.00862 72.384403,138.30862 V 136.82112 H 70.459403 Q 68.044403,136.82112 68.044403,138.18612 V 138.55362 Q 68.044403,139.23612 68.534403,139.60362 69.041903,139.97112 69.916903,139.97112 Z"
         style="font-size:17.5px"
         id="path864" />
      <path
         d="M 77.581876,127.98362 H 78.981876 V 133.37362 H 79.051876 Q 79.926876,131.69362 81.834376,131.69362 83.496876,131.69362 84.424376,132.95362 85.369376,134.19612 85.369376,136.41862 85.369376,138.64112 84.424376,139.90112 83.496876,141.14362 81.834376,141.14362 79.926876,141.14362 79.051876,139.46362 H 78.981876 V 140.93362 H 77.581876 Z M 81.291876,139.90112 Q 82.499376,139.90112 83.181876,139.16612 83.864376,138.43112 83.864376,137.18862 V 135.64862 Q 83.864376,134.40612 83.181876,133.67112 82.499376,132.93612 81.291876,132.93612 80.311876,132.93612 79.646876,133.42612 78.981876,133.91612 78.981876,134.79112 V 138.04612 Q 78.981876,138.92112 79.646876,139.41112 80.311876,139.90112 81.291876,139.90112 Z"
         style="font-size:17.5px"
         id="path866" />
      <path
         d="M 91.98435,141.14362 Q 90.05935,141.14362 88.97435,139.86612 87.88935,138.58862 87.88935,136.41862 87.88935,134.24862 88.97435,132.97112 90.05935,131.69362 91.96685,131.69362 93.22685,131.69362 94.06685,132.25362 94.90685,132.81362 95.30935,133.77612 L 94.18935,134.37112 Q 93.94435,133.67112 93.36685,133.28612 92.78935,132.90112 91.96685,132.90112 90.75935,132.90112 90.07685,133.67112 89.39435,134.42362 89.39435,135.64862 V 137.18862 Q 89.39435,138.41362 90.07685,139.18362 90.75935,139.93612 92.00185,139.93612 93.71685,139.93612 94.45185,138.36112 L 95.44935,139.04362 Q 95.02935,140.00612 94.15435,140.58362 93.27935,141.14362 91.98435,141.14362 Z"
         style="font-size:17.5px"
         id="path868" />
      <path
         d="M 104.35682,139.46362 H 104.28682 Q 103.41182,141.14362 101.50432,141.14362 99.841823,141.14362 98.896823,139.90112 97.969323,138.64112 97.969323,136.41862 97.969323,134.19612 98.896823,132.95362 99.841823,131.69362 101.50432,131.69362 103.41182,131.69362 104.28682,133.37362 H 104.35682 V 127.98362 H 105.75682 V 140.93362 H 104.35682 Z M 102.04682,139.90112 Q 103.02682,139.90112 103.69182,139.41112 104.35682,138.92112 104.35682,138.04612 V 134.79112 Q 104.35682,133.91612 103.69182,133.42612 103.02682,132.93612 102.04682,132.93612 100.83932,132.93612 100.15682,133.67112 99.474323,134.40612 99.474323,135.64862 V 137.18862 Q 99.474323,138.43112 100.15682,139.16612 100.83932,139.90112 102.04682,139.90112 Z"
         style="font-size:17.5px"
         id="path870" />
      <path
         d="M 112.8268,141.14362 Q 111.5493,141.14362 110.5868,140.56612 109.6243,139.98862 109.0993,138.92112 108.5918,137.85362 108.5918,136.43612 108.5918,135.01862 109.1168,133.95112 109.6418,132.86612 110.5693,132.28862 111.5143,131.69362 112.7393,131.69362 113.9293,131.69362 114.8393,132.27112 115.7493,132.83112 116.2393,133.82862 116.7468,134.82612 116.7468,136.10362 V 136.76862 H 110.0618 V 137.18862 Q 110.0618,138.39612 110.8143,139.16612 111.5668,139.93612 112.8268,139.93612 113.7193,139.93612 114.3843,139.53362 115.0493,139.11362 115.4168,138.36112 L 116.4493,139.06112 Q 116.0293,140.00612 115.0668,140.58362 114.1218,141.14362 112.8268,141.14362 Z M 112.7393,132.84862 Q 111.9868,132.84862 111.3743,133.21612 110.7618,133.56612 110.4118,134.19612 110.0618,134.82612 110.0618,135.59612 V 135.71862 H 115.2418 V 135.52612 Q 115.2418,134.33612 114.5418,133.60112 113.8593,132.84862 112.7393,132.84862 Z"
         style="font-size:17.5px"
         id="path872" />
      <path
         d="M 119.37177,139.74362 H 122.41677 V 133.09362 H 119.19677 V 131.90362 H 122.41677 V 131.01112 Q 122.41677,129.78612 122.85427,129.12112 123.30927,128.45612 124.13177,128.22862 124.97177,127.98362 126.35427,127.98362 H 127.43927 V 129.17362 H 126.33677 Q 125.33927,129.17362 124.83177,129.27862 124.34177,129.36612 124.07927,129.76862 123.81677,130.15362 123.81677,130.99362 V 131.90362 H 127.43927 V 133.09362 H 123.81677 V 139.74362 H 127.03677 V 140.93362 H 119.37177 Z"
         style="font-size:17.5px"
         id="path874" />
      <path
         d="M 137.25674,140.63612 Q 137.25674,142.50862 136.20674,143.57612 135.15674,144.64362 133.28424,144.64362 131.25424,144.64362 130.04674,143.40112 L 130.86924,142.43862 Q 131.81424,143.41862 133.30174,143.41862 135.85674,143.41862 135.85674,140.72362 V 139.21862 H 135.78674 Q 134.91174,140.89862 133.00424,140.89862 131.35924,140.89862 130.41424,139.67362 129.46924,138.43112 129.46924,136.29612 129.46924,134.16112 130.41424,132.93612 131.35924,131.69362 133.00424,131.69362 134.91174,131.69362 135.78674,133.37362 H 135.85674 V 131.90362 H 137.25674 Z M 133.54674,139.65612 Q 134.52674,139.65612 135.19174,139.16612 135.85674,138.67612 135.85674,137.80112 V 134.79112 Q 135.85674,133.91612 135.19174,133.42612 134.52674,132.93612 133.54674,132.93612 132.33924,132.93612 131.65674,133.67112 130.97424,134.40612 130.97424,135.64862 V 136.94362 Q 130.97424,138.18612 131.65674,138.92112 132.33924,139.65612 133.54674,139.65612 Z"
         style="font-size:17.5px"
         id="path876" />
      <path
         d="M 140.63422,127.98362 H 142.03422 V 133.37362 H 142.10422 Q 142.82172,131.69362 144.67672,131.69362 146.11172,131.69362 146.95172,132.60362 147.80922,133.51362 147.80922,135.14112 V 140.93362 H 146.40922 V 135.38612 Q 146.40922,134.16112 145.86672,133.54862 145.32422,132.93612 144.27422,132.93612 143.34672,132.93612 142.68172,133.39112 142.03422,133.82862 142.03422,134.66862 V 140.93362 H 140.63422 Z"
         style="font-size:17.5px"
         id="path878" />
      <path
         d="M 155.80669,127.98362 V 129.83862 H 153.95169 V 127.98362 Z M 150.99419,139.70862 H 154.30169 V 133.14612 H 150.99419 V 131.90362 H 155.70169 V 139.70862 H 158.72919 V 140.93362 H 150.99419 Z"
         style="font-size:17.5px"
         id="path880" />
      <path
         d="M 167.70666,127.98362 V 129.83862 H 165.85166 V 127.98362 Z M 167.47916,131.90362 V 141.40612 Q 167.47916,142.63112 167.02416,143.29612 166.58666,143.96112 165.74666,144.18862 164.92416,144.43362 163.54166,144.43362 H 161.70416 V 143.24362 H 163.55916 Q 164.55666,143.24362 165.04666,143.13862 165.55416,143.05112 165.81666,142.64862 166.07916,142.26362 166.07916,141.42362 V 133.09362 H 161.54666 V 131.90362 Z"
         style="font-size:17.5px"
         id="path882" />
      <path
         d="M 172.25664,127.98362 H 173.65664 V 136.15612 H 173.72664 L 175.30164,134.66862 178.31164,131.90362 H 180.02664 L 176.28164,135.43862 180.46414,140.93362 H 178.73164 L 175.21414,136.24362 173.65664,137.66112 V 140.93362 H 172.25664 Z"
         style="font-size:17.5px"
         id="path884" />
      <path
         d="M 182.31911,139.74362 H 185.46911 V 129.17362 H 182.31911 V 127.98362 H 186.86911 V 139.74362 H 190.01911 V 140.93362 H 182.31911 Z"
         style="font-size:17.5px"
         id="path886" />
      <path
         d="M 192.36408,140.93362 V 131.90362 H 193.65908 V 132.95362 H 193.72908 Q 193.97408,132.35862 194.35908,132.02612 194.76158,131.69362 195.46158,131.69362 196.21408,131.69362 196.61658,132.07862 197.01908,132.44612 197.10658,133.11112 H 197.15908 Q 197.43908,132.44612 197.89408,132.07862 198.36658,131.69362 199.11908,131.69362 200.16908,131.69362 200.57158,132.42862 200.97408,133.14612 200.97408,134.66862 V 140.93362 H 199.67908 V 134.89612 Q 199.67908,133.74112 199.43408,133.30362 199.20658,132.84862 198.57658,132.84862 197.99908,132.84862 197.64908,133.23362 197.31658,133.60112 197.31658,134.30112 V 140.93362 H 196.02158 V 134.89612 Q 196.02158,133.74112 195.77658,133.30362 195.54908,132.84862 194.93658,132.84862 194.35908,132.84862 194.00908,133.23362 193.65908,133.60112 193.65908,134.30112 V 140.93362 Z"
         style="font-size:17.5px"
         id="path888" />
      <path
         d="M 203.63405,140.93362 V 131.90362 H 205.03405 V 133.37362 H 205.10405 Q 205.82155,131.69362 207.67655,131.69362 209.11155,131.69362 209.95155,132.60362 210.80905,133.51362 210.80905,135.14112 V 140.93362 H 209.40905 V 135.38612 Q 209.40905,134.16112 208.86655,133.54862 208.32405,132.93612 207.27405,132.93612 206.34655,132.93612 205.68155,133.39112 205.03405,133.82862 205.03405,134.66862 V 140.93362 Z"
         style="font-size:17.5px"
         id="path890" />
      <path
         d="M 217.66904,141.14362 Q 216.40904,141.14362 215.48154,140.56612 214.57154,139.98862 214.06404,138.92112 213.57404,137.85362 213.57404,136.41862 213.57404,134.98362 214.06404,133.91612 214.57154,132.84862 215.48154,132.27112 216.40904,131.69362 217.66904,131.69362 218.92904,131.69362 219.83904,132.27112 220.76654,132.84862 221.25654,133.91612 221.76404,134.98362 221.76404,136.41862 221.76404,137.85362 221.25654,138.92112 220.76654,139.98862 219.83904,140.56612 218.92904,141.14362 217.66904,141.14362 Z M 217.66904,139.93612 Q 218.87654,139.93612 219.57654,139.21862 220.27654,138.48362 220.27654,137.06612 V 135.77112 Q 220.27654,134.35362 219.57654,133.63612 218.87654,132.90112 217.66904,132.90112 216.46154,132.90112 215.76154,133.63612 215.06154,134.35362 215.06154,135.77112 V 137.06612 Q 215.06154,138.48362 215.76154,139.21862 216.46154,139.93612 217.66904,139.93612 Z"
         style="font-size:17.5px"
         id="path892" />
      <path
         d="M 224.58151,131.90362 H 225.98151 V 133.37362 H 226.05151 Q 226.92651,131.69362 228.83401,131.69362 230.49651,131.69362 231.42401,132.95362 232.36901,134.19612 232.36901,136.41862 232.36901,138.64112 231.42401,139.90112 230.49651,141.14362 228.83401,141.14362 226.92651,141.14362 226.05151,139.46362 H 225.98151 V 144.43362 H 224.58151 Z M 228.29151,139.90112 Q 229.49901,139.90112 230.18151,139.16612 230.86401,138.43112 230.86401,137.18862 V 135.64862 Q 230.86401,134.40612 230.18151,133.67112 229.49901,132.93612 228.29151,132.93612 227.31151,132.93612 226.64651,133.42612 225.98151,133.91612 225.98151,134.79112 V 138.04612 Q 225.98151,138.92112 226.64651,139.41112 227.31151,139.90112 228.29151,139.90112 Z"
         style="font-size:17.5px"
         id="path894" />
      <path
         d="M 240.85648,139.46362 H 240.78648 Q 239.91148,141.14362 238.00398,141.14362 236.34148,141.14362 235.39648,139.90112 234.46898,138.64112 234.46898,136.41862 234.46898,134.19612 235.39648,132.95362 236.34148,131.69362 238.00398,131.69362 239.91148,131.69362 240.78648,133.37362 H 240.85648 V 131.90362 H 242.25648 V 144.43362 H 240.85648 Z M 238.54648,139.90112 Q 239.52648,139.90112 240.19148,139.41112 240.85648,138.92112 240.85648,138.04612 V 134.79112 Q 240.85648,133.91612 240.19148,133.42612 239.52648,132.93612 238.54648,132.93612 237.33898,132.93612 236.65648,133.67112 235.97398,134.40612 235.97398,135.64862 V 137.18862 Q 235.97398,138.43112 236.65648,139.16612 237.33898,139.90112 238.54648,139.90112 Z"
         style="font-size:17.5px"
         id="path896" />
      <path
         d="M 245.26645,139.74362 H 247.90895 V 133.09362 H 245.26645 V 131.90362 H 249.30895 V 134.17862 H 249.39645 Q 250.06145,131.90362 252.44145,131.90362 H 253.70145 V 133.30362 H 252.00395 Q 250.72645,133.30362 250.00895,134.02112 249.30895,134.73862 249.30895,135.84112 V 139.74362 H 252.80895 V 140.93362 H 245.26645 Z"
         style="font-size:17.5px"
         id="path898" />
      <path
         d="M 259.77391,141.14362 Q 257.14891,141.14362 255.59141,139.37612 L 256.53641,138.55362 Q 257.20141,139.27112 257.98891,139.62112 258.77641,139.97112 259.80891,139.97112 260.91141,139.97112 261.55891,139.58612 262.20641,139.18362 262.20641,138.41362 262.20641,137.76612 261.78641,137.48612 261.36641,137.20612 260.61391,137.10112 L 259.19641,136.89112 Q 258.33891,136.76862 257.69141,136.55862 257.04391,136.33112 256.57141,135.82362 256.09891,135.29862 256.09891,134.38862 256.09891,133.07612 257.09641,132.39362 258.09391,131.69362 259.73891,131.69362 262.04891,131.69362 263.41391,133.14612 L 262.50391,134.00362 Q 261.55891,132.86612 259.68641,132.86612 258.61891,132.86612 258.04141,133.23362 257.48141,133.60112 257.48141,134.30112 257.48141,134.94862 257.90141,135.22862 258.33891,135.50862 259.07391,135.61362 L 260.49141,135.82362 Q 261.36641,135.94612 262.01391,136.17362 262.66141,136.38362 263.11641,136.90862 263.58891,137.41612 263.58891,138.32612 263.58891,139.65612 262.55641,140.40862 261.52391,141.14362 259.77391,141.14362 Z"
         style="font-size:17.5px"
         id="path900" />
      <path
         d="M 270.0114,137.92362 Q 270.0114,138.76362 270.2739,139.16612 270.5364,139.55112 271.0264,139.65612 271.5339,139.74362 272.5314,139.74362 H 273.6339 V 140.93362 H 272.5489 Q 271.1664,140.93362 270.3264,140.70612 269.5039,140.46112 269.0489,139.79612 268.6114,139.13112 268.6114,137.90612 V 133.09362 H 265.6014 V 131.90362 H 268.6114 V 128.71862 H 270.0114 V 131.90362 H 274.1239 V 133.09362 H 270.0114 Z"
         style="font-size:17.5px"
         id="path902" />
      <path
         d="M 282.80387,139.46362 H 282.73387 Q 282.01637,141.14362 280.16137,141.14362 278.72637,141.14362 277.86887,140.23362 277.02887,139.32362 277.02887,137.69612 V 131.90362 H 278.42887 V 137.45112 Q 278.42887,138.67612 278.97137,139.28862 279.51387,139.90112 280.56387,139.90112 281.49137,139.90112 282.13887,139.46362 282.80387,139.00862 282.80387,138.16862 V 131.90362 H 284.20387 V 140.93362 H 282.80387 Z"
         style="font-size:17.5px"
         id="path904" />
      <path
         d="M 290.27634,140.93362 287.03884,131.90362 H 288.45634 L 291.15134,139.76112 H 291.22134 L 293.91634,131.90362 H 295.29884 L 292.06134,140.93362 Z"
         style="font-size:17.5px"
         id="path906" />
      <path
         d="M 296.94382,131.90362 H 298.18632 L 299.21882,139.70862 H 299.37632 L 300.91632,131.90362 H 302.45632 L 303.99632,139.70862 H 304.15382 L 305.18632,131.90362 H 306.39382 L 305.01132,140.93362 H 303.19132 L 301.75632,133.37362 H 301.61632 L 300.14632,140.93362 H 298.32632 Z"
         style="font-size:17.5px"
         id="path908" />
      <path
         d="M 307.98629,140.93362 311.34629,136.34862 308.07379,131.90362 H 309.75379 L 311.11879,133.81112 312.20379,135.31612 H 312.27379 L 313.32379,133.81112 314.67129,131.90362 H 316.28129 L 312.97379,136.33112 316.36879,140.93362 H 314.68879 L 312.13379,137.38112 H 312.06379 L 309.59629,140.93362 Z"
         style="font-size:17.5px"
         id="path910" />
      <path
         d="M 325.59126,131.90362 H 326.99126 L 322.51126,142.91112 Q 322.17876,143.73362 321.67126,144.08362 321.18126,144.43362 320.20126,144.43362 H 318.87126 V 143.24362 H 320.46376 Q 320.98876,143.24362 321.16376,142.77112 L 321.98626,140.75862 318.34626,131.90362 H 319.78126 L 321.30376,135.68362 322.65126,139.11362 H 322.72126 L 324.06876,135.68362 Z"
         style="font-size:17.5px"
         id="path912" />
      <path
         d="M 329.40623,140.93362 V 139.58612 L 335.23373,133.09362 H 329.59873 V 131.90362 H 336.75623 V 133.25112 L 330.92873,139.74362 H 336.93123 V 140.93362 Z"
         style="font-size:17.5px"
         id="path914" />
      <path
         d="M 73.836903,162.80862 72.804403,159.32612 H 68.516903 L 67.484403,162.80862 H 65.961903 L 69.706903,150.59362 H 71.649403 L 75.394403,162.80862 Z M 70.739403,152.15112 H 70.581903 L 68.866903,158.04862 H 72.454403 Z"
         style="font-size:17.5px"
         id="path916" />
      <path
         d="M 77.459376,150.59362 H 81.606876 Q 83.164376,150.59362 84.056876,151.45112 84.966876,152.30862 84.966876,153.74362 84.966876,154.79362 84.459376,155.44112 83.951876,156.08862 83.059376,156.36862 V 156.42112 Q 84.161876,156.66612 84.791876,157.38362 85.421876,158.08362 85.421876,159.29112 85.421876,160.27112 84.984376,161.07612 84.564376,161.88112 83.811876,162.35362 83.059376,162.80862 82.131876,162.80862 H 77.459376 Z M 81.449376,155.89612 Q 82.394376,155.89612 82.901876,155.47612 83.426876,155.05612 83.426876,154.23362 V 153.55112 Q 83.426876,152.72862 82.901876,152.30862 82.394376,151.87112 81.449376,151.87112 H 78.929376 V 155.89612 Z M 81.694376,161.53112 Q 82.726876,161.53112 83.286876,161.05862 83.864376,160.58612 83.864376,159.67612 V 158.95862 Q 83.864376,158.04862 83.286876,157.57612 82.726876,157.10362 81.694376,157.10362 H 78.929376 V 161.53112 Z"
         style="font-size:17.5px"
         id="path918" />
      <path
         d="M 92.07185,163.01862 Q 89.86685,163.01862 88.74685,161.40862 87.64435,159.78112 87.64435,156.70112 87.64435,153.62112 88.74685,152.01112 89.86685,150.38362 92.07185,150.38362 93.59435,150.38362 94.43435,151.11862 95.29185,151.83612 95.83435,153.06112 L 94.57435,153.63862 Q 94.18935,152.67612 93.62935,152.16862 93.08685,151.66112 92.07185,151.66112 90.65435,151.66112 89.91935,152.74612 89.20185,153.81362 89.20185,155.70362 V 157.69862 Q 89.20185,159.58862 89.91935,160.67362 90.65435,161.74112 92.07185,161.74112 93.08685,161.74112 93.62935,161.23362 94.18935,160.72612 94.57435,159.76362 L 95.83435,160.34112 Q 95.29185,161.56612 94.43435,162.30112 93.59435,163.01862 92.07185,163.01862 Z"
         style="font-size:17.5px"
         id="path920" />
      <path
         d="M 98.581823,150.59362 H 101.99432 Q 104.21682,150.59362 105.31932,152.13362 106.43932,153.67362 106.43932,156.70112 106.43932,159.72862 105.31932,161.26862 104.21682,162.80862 101.99432,162.80862 H 98.581823 Z M 101.92432,161.53112 Q 103.35932,161.53112 104.11182,160.51612 104.88182,159.50112 104.88182,157.64612 V 155.75612 Q 104.88182,153.90112 104.11182,152.88612 103.35932,151.87112 101.92432,151.87112 H 100.05182 V 161.53112 Z"
         style="font-size:17.5px"
         id="path922" />
      <path
         d="M 108.9943,162.80862 V 150.59362 H 116.5193 V 151.87112 H 110.4643 V 155.98362 H 116.3093 V 157.26112 H 110.4643 V 161.53112 H 116.5193 V 162.80862 Z"
         style="font-size:17.5px"
         id="path924" />
      <path
         d="M 119.49427,162.80862 V 150.59362 H 127.19427 V 151.87112 H 120.96427 V 155.98362 H 126.66927 V 157.26112 H 120.96427 V 162.80862 Z"
         style="font-size:17.5px"
         id="path926" />
      <path
         d="M 136.18924,161.18112 H 136.10174 Q 135.75174,162.02112 135.12174,162.52862 134.49174,163.01862 133.33674,163.01862 131.37674,163.01862 130.37924,161.42612 129.39924,159.81612 129.39924,156.78862 129.39924,153.63862 130.48424,152.01112 131.56924,150.38362 133.75674,150.38362 135.31424,150.38362 136.18924,151.13612 137.08174,151.87112 137.55424,153.06112 L 136.29424,153.63862 Q 135.90924,152.67612 135.36674,152.16862 134.82424,151.66112 133.80924,151.66112 132.37424,151.66112 131.65674,152.72862 130.95674,153.79612 130.95674,155.70362 V 157.59362 Q 130.95674,159.55362 131.60424,160.67362 132.25174,161.77612 133.66924,161.77612 134.82424,161.77612 135.50674,161.07612 136.18924,160.35862 136.18924,159.20362 V 157.94362 H 133.61674 V 156.77112 H 137.55424 V 162.80862 H 136.18924 Z"
         style="font-size:17.5px"
         id="path928" />
      <path
         d="M 146.54922,157.26112 H 141.78922 V 162.80862 H 140.31922 V 150.59362 H 141.78922 V 155.98362 H 146.54922 V 150.59362 H 148.01922 V 162.80862 H 146.54922 Z"
         style="font-size:17.5px"
         id="path930" />
      <path
         d="M 150.88919,162.80862 V 161.63612 H 153.93419 V 151.76612 H 150.88919 V 150.59362 H 158.44919 V 151.76612 H 155.40419 V 161.63612 H 158.44919 V 162.80862 Z"
         style="font-size:17.5px"
         id="path932" />
      <path
         d="M 168.31916,150.59362 V 159.64112 Q 168.31916,160.65612 167.86416,161.42612 167.40916,162.19612 166.58666,162.61612 165.76416,163.01862 164.71416,163.01862 163.33166,163.01862 162.40416,162.30112 161.49416,161.56612 161.21416,160.25362 L 162.61416,159.95612 Q 162.80666,160.77862 163.29666,161.25112 163.80416,161.72362 164.74916,161.72362 165.76416,161.72362 166.30666,161.14612 166.84916,160.55112 166.84916,159.37862 V 151.87112 H 162.43916 V 150.59362 Z"
         style="font-size:17.5px"
         id="path934" />
      <path
         d="M 175.12664,156.82362 173.37664,158.88862 V 162.80862 H 171.90664 V 150.59362 H 173.37664 V 156.96362 H 173.42914 L 175.03914,154.93362 178.64414,150.59362 H 180.41164 L 176.12414,155.73862 180.53414,162.80862 H 178.81914 Z"
         style="font-size:17.5px"
         id="path936" />
      <path
         d="M 183.01911,162.80862 V 150.59362 H 184.48911 V 161.53112 H 190.28161 V 162.80862 Z"
         style="font-size:17.5px"
         id="path938" />
      <path
         d="M 199.38158,152.81612 H 199.24158 L 196.66908,159.09862 194.09658,152.81612 H 193.95658 V 162.80862 H 192.60908 V 150.59362 H 194.49908 L 196.65158,155.98362 H 196.75658 L 198.90908,150.59362 H 200.72908 V 162.80862 H 199.38158 Z"
         style="font-size:17.5px"
         id="path940" />
      <path
         d="M 204.77155,152.46612 H 204.64905 V 162.80862 H 203.31905 V 150.59362 H 205.40155 L 209.56655,160.83112 H 209.68905 V 150.59362 H 211.01905 V 162.80862 H 208.93655 Z"
         style="font-size:17.5px"
         id="path942" />
      <path
         d="M 217.66904,163.01862 Q 213.39904,163.01862 213.39904,156.70112 213.39904,150.38362 217.66904,150.38362 221.93904,150.38362 221.93904,156.70112 221.93904,163.01862 217.66904,163.01862 Z M 217.66904,161.74112 Q 219.06904,161.74112 219.71654,160.69112 220.38154,159.62362 220.38154,157.69862 V 155.70362 Q 220.38154,153.77862 219.71654,152.72862 219.06904,151.66112 217.66904,151.66112 216.26904,151.66112 215.60404,152.72862 214.95654,153.77862 214.95654,155.70362 V 157.69862 Q 214.95654,159.62362 215.60404,160.69112 216.26904,161.74112 217.66904,161.74112 Z"
         style="font-size:17.5px"
         id="path944" />
      <path
         d="M 224.49401,162.80862 V 150.59362 H 228.93901 Q 230.61901,150.59362 231.51151,151.52112 232.42151,152.44862 232.42151,154.11112 232.42151,155.77362 231.51151,156.70112 230.61901,157.62862 228.93901,157.62862 H 225.96401 V 162.80862 Z M 225.96401,156.35112 H 228.90401 Q 229.83151,156.35112 230.33901,155.89612 230.86401,155.42362 230.86401,154.56612 V 153.65612 Q 230.86401,152.79862 230.33901,152.34362 229.83151,151.87112 228.90401,151.87112 H 225.96401 Z"
         style="font-size:17.5px"
         id="path946" />
      <path
         d="M 242.69398,163.47362 241.27648,162.12612 Q 240.24398,163.01862 238.66898,163.01862 234.39898,163.01862 234.39898,156.70112 234.39898,150.38362 238.66898,150.38362 242.93898,150.38362 242.93898,156.70112 242.93898,159.53612 242.06398,161.11112 L 244.56648,163.47362 Z M 238.66898,161.74112 Q 239.64898,161.74112 240.29648,161.19862 L 237.88148,158.90612 H 239.75398 L 241.01398,160.09612 Q 241.38148,159.11612 241.38148,157.69862 V 155.70362 Q 241.38148,153.77862 240.71648,152.72862 240.06898,151.66112 238.66898,151.66112 237.26898,151.66112 236.60398,152.72862 235.95648,153.77862 235.95648,155.70362 V 157.69862 Q 235.95648,159.62362 236.60398,160.69112 237.26898,161.74112 238.66898,161.74112 Z"
         style="font-size:17.5px"
         id="path948" />
      <path
         d="M 246.96395,162.80862 H 245.49395 V 150.59362 H 249.93895 Q 251.61895,150.59362 252.51145,151.52112 253.42145,152.44862 253.42145,154.11112 253.42145,155.59862 252.63395,156.49112 251.86395,157.38362 250.41145,157.52362 L 253.52645,162.80862 H 251.88145 L 248.90645,157.59362 H 246.96395 Z M 249.90395,156.35112 Q 250.83145,156.35112 251.33895,155.89612 251.86395,155.42362 251.86395,154.56612 V 153.65612 Q 251.86395,152.79862 251.33895,152.34362 250.83145,151.87112 249.90395,151.87112 H 246.96395 V 156.35112 Z"
         style="font-size:17.5px"
         id="path950" />
      <path
         d="M 259.63391,163.01862 Q 258.07641,163.01862 257.00891,162.45862 255.94141,161.88112 255.20641,160.86612 L 256.27391,159.99112 Q 256.99141,160.90112 257.79641,161.33862 258.60141,161.75862 259.68641,161.75862 260.99891,161.75862 261.69891,161.14612 262.41641,160.53362 262.41641,159.43112 262.41641,158.52112 261.89141,158.03112 261.36641,157.54112 260.14141,157.33112 L 258.77641,157.10362 Q 257.09641,156.82362 256.36141,155.94862 255.62641,155.05612 255.62641,153.77862 255.62641,152.13362 256.71141,151.25862 257.79641,150.38362 259.70391,150.38362 262.48641,150.38362 263.79891,152.25612 L 262.76641,153.14862 Q 262.20641,152.41362 261.47141,152.02862 260.75391,151.64362 259.68641,151.64362 258.44391,151.64362 257.77891,152.18612 257.11391,152.71112 257.11391,153.74362 257.11391,154.60112 257.62141,155.10862 258.14641,155.61612 259.40641,155.82612 L 260.71891,156.05362 Q 263.90391,156.61362 263.90391,159.39612 263.90391,161.09362 262.78391,162.05612 261.66391,163.01862 259.63391,163.01862 Z"
         style="font-size:17.5px"
         id="path952" />
      <path
         d="M 270.9039,151.87112 V 162.80862 H 269.4339 V 151.87112 H 265.3564 V 150.59362 H 274.9814 V 151.87112 Z"
         style="font-size:17.5px"
         id="path954" />
      <path
         d="M 278.28887,150.59362 V 157.92612 Q 278.28887,159.34362 278.41137,160.11362 278.55137,160.86612 279.05887,161.30362 279.56637,161.74112 280.66887,161.74112 281.77137,161.74112 282.27887,161.30362 282.78637,160.86612 282.90887,160.11362 283.04887,159.34362 283.04887,157.92612 V 150.59362 H 284.51887 V 157.57612 Q 284.51887,159.55362 284.22137,160.70862 283.94137,161.84612 283.11887,162.44112 282.29637,163.01862 280.66887,163.01862 279.04137,163.01862 278.21887,162.44112 277.39637,161.84612 277.09887,160.70862 276.81887,159.55362 276.81887,157.57612 V 150.59362 Z"
         style="font-size:17.5px"
         id="path956" />
      <path
         d="M 290.17134,162.80862 286.54884,150.59362 H 288.10634 L 291.15134,161.32112 H 291.23884 L 294.28384,150.59362 H 295.78884 L 292.16634,162.80862 Z"
         style="font-size:17.5px"
         id="path958" />
      <path
         d="M 297.99382,162.80862 297.03132,150.59362 H 298.34382 L 298.85132,157.59362 299.11382,161.28612 H 299.25382 L 300.86382,153.77862 H 302.50882 L 304.11882,161.28612 H 304.25882 L 304.52132,157.59362 305.02882,150.59362 H 306.30632 L 305.34382,162.80862 H 303.22632 L 301.73882,155.51112 H 301.59882 L 300.11132,162.80862 Z"
         style="font-size:17.5px"
         id="path960" />
      <path
         d="M 316.98129,162.80862 H 315.31879 L 313.86629,160.37612 312.25629,157.71612 H 312.18629 L 310.52379,160.37612 308.98379,162.80862 H 307.37379 L 311.36379,156.57862 307.60129,150.59362 H 309.26379 L 310.68129,152.95612 312.20379,155.42362 H 312.27379 L 313.77879,152.95612 315.24879,150.59362 H 316.85879 L 313.07879,156.56112 Z"
         style="font-size:17.5px"
         id="path962" />
      <path
         d="M 321.93376,162.80862 V 158.01362 L 317.71626,150.59362 H 319.39626 L 321.14626,153.77862 322.63376,156.56112 H 322.70376 L 325.97626,150.59362 H 327.62126 L 323.40376,158.01362 V 162.80862 Z"
         style="font-size:17.5px"
         id="path964" />
      <path
         d="M 337.57873,162.80862 H 328.75873 V 161.49612 L 335.67123,151.87112 H 329.05623 V 150.59362 H 337.28123 V 151.90612 L 330.35123,161.53112 H 337.57873 Z"
         style="font-size:17.5px"
         id="path966" />
      <path
         d="M 70.669403,184.89362 Q 69.409403,184.89362 68.481903,184.31612 67.571903,183.73862 67.064403,182.67112 66.574403,181.60362 66.574403,180.16862 66.574403,178.73362 67.064403,177.66612 67.571903,176.59862 68.481903,176.02112 69.409403,175.44362 70.669403,175.44362 71.929403,175.44362 72.839403,176.02112 73.766903,176.59862 74.256903,177.66612 74.764403,178.73362 74.764403,180.16862 74.764403,181.60362 74.256903,182.67112 73.766903,183.73862 72.839403,184.31612 71.929403,184.89362 70.669403,184.89362 Z M 70.669403,183.68612 Q 71.876903,183.68612 72.576903,182.96862 73.276903,182.23362 73.276903,180.81612 V 179.52112 Q 73.276903,178.10362 72.576903,177.38612 71.876903,176.65112 70.669403,176.65112 69.461903,176.65112 68.761903,177.38612 68.061903,178.10362 68.061903,179.52112 V 180.81612 Q 68.061903,182.23362 68.761903,182.96862 69.461903,183.68612 70.669403,183.68612 Z"
         style="font-size:17.5px"
         id="path968" />
      <path
         d="M 81.169376,184.89362 Q 76.899376,184.89362 76.899376,178.57612 76.899376,172.25862 81.169376,172.25862 85.439376,172.25862 85.439376,178.57612 85.439376,184.89362 81.169376,184.89362 Z M 81.169376,183.61612 Q 82.569376,183.61612 83.216876,182.56612 83.881876,181.49862 83.881876,179.57362 V 177.57862 Q 83.881876,175.65362 83.216876,174.60362 82.569376,173.53612 81.169376,173.53612 79.769376,173.53612 79.104376,174.60362 78.456876,175.65362 78.456876,177.57862 V 179.57362 Q 78.456876,181.49862 79.104376,182.56612 79.769376,183.61612 81.169376,183.61612 Z"
         style="font-size:17.5px"
         id="path970" />
      <path
         d="M 91.66935,184.89362 Q 87.39935,184.89362 87.39935,178.57612 87.39935,172.25862 91.66935,172.25862 95.93935,172.25862 95.93935,178.57612 95.93935,184.89362 91.66935,184.89362 Z M 91.66935,183.61612 Q 93.08685,183.61612 93.75185,182.56612 94.41685,181.49862 94.41685,179.57362 V 177.57862 Q 94.41685,175.65362 93.75185,174.60362 93.08685,173.53612 91.66935,173.53612 90.25185,173.53612 89.58685,174.60362 88.92185,175.65362 88.92185,177.57862 V 179.57362 Q 88.92185,181.49862 89.58685,182.56612 90.25185,183.61612 91.66935,183.61612 Z M 91.66935,179.60862 Q 90.58435,179.60862 90.58435,178.76862 V 178.38362 Q 90.58435,177.54362 91.66935,177.54362 92.75435,177.54362 92.75435,178.38362 V 178.76862 Q 92.75435,179.60862 91.66935,179.60862 Z"
         style="font-size:17.5px"
         id="path972" />
      <path
         d="M 102.16932,184.89362 Q 100.78682,184.89362 99.824323,184.43862 98.861823,183.98362 98.371823,183.17862 97.881823,182.37362 97.881823,181.35862 97.881823,180.15112 98.529323,179.39862 99.194323,178.64612 100.36682,178.33112 V 178.19112 Q 99.386823,177.85862 98.809323,177.10612 98.249323,176.35362 98.249323,175.32112 98.249323,173.92112 99.281823,173.09862 100.33182,172.25862 102.16932,172.25862 104.00682,172.25862 105.03932,173.09862 106.08932,173.92112 106.08932,175.32112 106.08932,176.35362 105.51182,177.10612 104.95182,177.85862 103.97182,178.19112 V 178.33112 Q 105.14432,178.64612 105.79182,179.39862 106.45682,180.15112 106.45682,181.35862 106.45682,182.37362 105.96682,183.17862 105.47682,183.98362 104.51432,184.43862 103.55182,184.89362 102.16932,184.89362 Z M 102.16932,177.66612 Q 103.34182,177.66612 103.97182,177.15862 104.60182,176.65112 104.60182,175.70612 V 175.46112 Q 104.60182,174.53362 103.95432,174.02612 103.32432,173.50112 102.16932,173.50112 101.01432,173.50112 100.36682,174.02612 99.736823,174.53362 99.736823,175.46112 V 175.70612 Q 99.736823,176.65112 100.36682,177.15862 100.99682,177.66612 102.16932,177.66612 Z M 102.16932,183.65112 Q 103.46432,183.65112 104.19932,183.07362 104.93432,182.47862 104.93432,181.44612 V 181.06112 Q 104.93432,180.01112 104.19932,179.43362 103.48182,178.85612 102.16932,178.85612 100.85682,178.85612 100.12182,179.43362 99.404323,180.01112 99.404323,181.06112 V 181.44612 Q 99.404323,182.47862 100.13932,183.07362 100.87432,183.65112 102.16932,183.65112 Z"
         style="font-size:17.5px"
         id="path974" />
      <path
         d="M 124.30677,171.73362 V 173.58862 H 122.45177 V 171.73362 Z M 119.49427,183.45862 H 122.80177 V 176.89612 H 119.49427 V 175.65362 H 124.20177 V 183.45862 H 127.22927 V 184.68362 H 119.49427 Z"
         style="font-size:17.5px"
         id="path976" />
      <path
         d="M 129.88924,184.68362 V 183.51112 H 132.93424 V 173.64112 H 129.88924 V 172.46862 H 137.44924 V 173.64112 H 134.40424 V 183.51112 H 137.44924 V 184.68362 Z"
         style="font-size:17.5px"
         id="path978" />
      <path
         d="M 140.31922,183.49362 H 143.46922 V 172.92362 H 140.31922 V 171.73362 H 144.86922 V 183.49362 H 148.01922 V 184.68362 H 140.31922 Z"
         style="font-size:17.5px"
         id="path980" />
      <path
         d="M 151.51919,184.68362 V 172.46862 H 152.98919 V 183.40612 H 158.78169 V 184.68362 Z"
         style="font-size:17.5px"
         id="path982" />
      <path
         d="M 161.40666,184.68362 V 183.40612 H 164.90666 V 173.55362 H 164.78416 L 161.70416,176.42362 160.84666,175.49612 164.08416,172.46862 H 166.37666 V 183.40612 H 169.59666 V 184.68362 Z"
         style="font-size:17.5px"
         id="path984" />
      <path
         d="M 186.50161,187.09862 Q 185.80161,187.09862 185.41661,186.69612 185.03161,186.29362 185.03161,185.66362 V 184.56112 Q 185.03161,183.98362 185.17161,183.56362 185.31161,183.12612 185.46911,182.89862 185.64411,182.65362 186.01161,182.19862 186.30911,181.84862 186.41411,181.60362 186.53661,181.34112 186.53661,181.06112 186.53661,179.78362 184.12161,179.78362 H 182.75661 V 178.69862 H 184.12161 Q 186.53661,178.69862 186.53661,177.42112 186.53661,177.14112 186.41411,176.89612 186.30911,176.63362 186.01161,176.28362 185.95911,176.21362 185.66161,175.86362 185.36411,175.49612 185.18911,175.00612 185.03161,174.49862 185.03161,173.92112 V 172.81862 Q 185.03161,172.18862 185.41661,171.78612 185.80161,171.38362 186.50161,171.38362 H 189.58161 V 172.46862 H 186.23911 V 173.81612 Q 186.23911,174.46362 186.39661,174.83112 186.57161,175.18112 186.93911,175.67112 187.35911,176.23112 187.55161,176.59862 187.76161,176.94862 187.76161,177.43862 187.76161,178.15612 187.23661,178.62862 186.72911,179.08362 185.83661,179.20612 V 179.27612 Q 186.72911,179.39862 187.23661,179.87112 187.76161,180.32612 187.76161,181.04362 187.76161,181.53362 187.55161,181.90112 187.35911,182.25112 186.93911,182.81112 186.57161,183.30112 186.39661,183.66862 186.23911,184.01862 186.23911,184.66612 V 186.01362 H 189.58161 V 187.09862 Z"
         style="font-size:17.5px"
         id="path986" />
      <path
         d="M 196.33658,171.38362 Q 197.03658,171.38362 197.42158,171.78612 197.80658,172.18862 197.80658,172.81862 V 173.92112 Q 197.80658,174.49862 197.66658,174.93612 197.52658,175.35612 197.35158,175.60112 197.19408,175.82862 196.82658,176.28362 196.52908,176.63362 196.40658,176.89612 196.30158,177.14112 196.30158,177.42112 196.30158,178.69862 198.71658,178.69862 H 200.08158 V 179.78362 H 198.71658 Q 196.30158,179.78362 196.30158,181.06112 196.30158,181.34112 196.40658,181.60362 196.52908,181.84862 196.82658,182.19862 196.87908,182.26862 197.17658,182.63612 197.47408,182.98612 197.63158,183.49362 197.80658,183.98362 197.80658,184.56112 V 185.66362 Q 197.80658,186.29362 197.42158,186.69612 197.03658,187.09862 196.33658,187.09862 H 193.25658 V 186.01362 H 196.59908 V 184.66612 Q 196.59908,184.01862 196.42408,183.66862 196.26658,183.30112 195.89908,182.81112 195.47908,182.25112 195.26908,181.90112 195.07658,181.53362 195.07658,181.04362 195.07658,180.32612 195.58408,179.87112 196.10908,179.39862 197.00158,179.27612 V 179.20612 Q 196.10908,179.08362 195.58408,178.62862 195.07658,178.15612 195.07658,177.43862 195.07658,176.94862 195.26908,176.59862 195.47908,176.23112 195.89908,175.67112 196.26658,175.18112 196.42408,174.83112 196.59908,174.46362 196.59908,173.81612 V 172.46862 H 193.25658 V 171.38362 Z"
         style="font-size:17.5px"
         id="path988" />
      <path
         d="M 216.35654,187.09862 V 171.38362 H 221.25654 V 172.46862 H 217.56404 V 186.01362 H 221.25654 V 187.09862 Z"
         style="font-size:17.5px"
         id="path990" />
      <path
         d="M 229.48151,171.38362 V 187.09862 H 224.58151 V 186.01362 H 228.27401 V 172.46862 H 224.58151 V 171.38362 Z"
         style="font-size:17.5px"
         id="path992" />
      <path
         d="M 252.75645,184.38612 Q 252.75645,186.25862 251.70645,187.32612 250.65645,188.39362 248.78395,188.39362 246.75395,188.39362 245.54645,187.15112 L 246.36895,186.18862 Q 247.31395,187.16862 248.80145,187.16862 251.35645,187.16862 251.35645,184.47362 V 182.96862 H 251.28645 Q 250.41145,184.64862 248.50395,184.64862 246.85895,184.64862 245.91395,183.42362 244.96895,182.18112 244.96895,180.04612 244.96895,177.91112 245.91395,176.68612 246.85895,175.44362 248.50395,175.44362 250.41145,175.44362 251.28645,177.12362 H 251.35645 V 175.65362 H 252.75645 Z M 249.04645,183.40612 Q 250.02645,183.40612 250.69145,182.91612 251.35645,182.42612 251.35645,181.55112 V 178.54112 Q 251.35645,177.66612 250.69145,177.17612 250.02645,176.68612 249.04645,176.68612 247.83895,176.68612 247.15645,177.42112 246.47395,178.15612 246.47395,179.39862 V 180.69362 Q 246.47395,181.93612 247.15645,182.67112 247.83895,183.40612 249.04645,183.40612 Z"
         style="font-size:17.5px"
         id="path994" />
      <path
         d="M 263.79891,176.94862 Q 263.79891,178.64612 263.13391,180.16862 262.48641,181.69112 261.47141,182.84612 260.45641,183.98362 259.37141,184.68362 H 257.48141 Q 259.59891,183.16112 260.70141,181.77862 261.80391,180.37862 262.29391,178.34862 L 262.20641,178.31362 Q 261.71641,179.13612 260.98141,179.60862 260.26391,180.06362 259.19641,180.06362 258.12891,180.06362 257.28891,179.60862 256.46641,179.13612 255.99391,178.29612 255.53891,177.43862 255.53891,176.30112 255.53891,175.11112 256.04641,174.20112 256.55391,173.27362 257.48141,172.76612 258.42641,172.25862 259.65141,172.25862 261.57641,172.25862 262.67891,173.51862 263.79891,174.76112 263.79891,176.94862 Z M 259.66891,178.85612 Q 260.91141,178.85612 261.61141,178.17362 262.31141,177.47362 262.31141,176.24862 V 176.10862 Q 262.31141,174.88362 261.61141,174.20112 260.91141,173.50112 259.66891,173.50112 258.42641,173.50112 257.72641,174.20112 257.02641,174.88362 257.02641,176.10862 V 176.24862 Q 257.02641,177.47362 257.72641,178.17362 258.42641,178.85612 259.66891,178.85612 Z"
         style="font-size:17.5px"
         id="path996" />
      <path
         d="M 272.3564,183.21362 H 272.2864 Q 271.4114,184.89362 269.5039,184.89362 267.8414,184.89362 266.8964,183.65112 265.9689,182.39112 265.9689,180.16862 265.9689,177.94612 266.8964,176.70362 267.8414,175.44362 269.5039,175.44362 271.4114,175.44362 272.2864,177.12362 H 272.3564 V 175.65362 H 273.7564 V 188.18362 H 272.3564 Z M 270.0464,183.65112 Q 271.0264,183.65112 271.6914,183.16112 272.3564,182.67112 272.3564,181.79612 V 178.54112 Q 272.3564,177.66612 271.6914,177.17612 271.0264,176.68612 270.0464,176.68612 268.8389,176.68612 268.1564,177.42112 267.4739,178.15612 267.4739,179.39862 V 180.93862 Q 267.4739,182.18112 268.1564,182.91612 268.8389,183.65112 270.0464,183.65112 Z"
         style="font-size:17.5px"
         id="path998" />
      <path
         d="M 281.07137,184.89362 Q 278.86637,184.89362 277.74637,183.28362 276.64387,181.65612 276.64387,178.57612 276.64387,175.49612 277.74637,173.88612 278.86637,172.25862 281.07137,172.25862 282.59387,172.25862 283.43387,172.99362 284.29137,173.71112 284.83387,174.93612 L 283.57387,175.51362 Q 283.18887,174.55112 282.62887,174.04362 282.08637,173.53612 281.07137,173.53612 279.65387,173.53612 278.91887,174.62112 278.20137,175.68862 278.20137,177.57862 V 179.57362 Q 278.20137,181.46362 278.91887,182.54862 279.65387,183.61612 281.07137,183.61612 282.08637,183.61612 282.62887,183.10862 283.18887,182.60112 283.57387,181.63862 L 284.83387,182.21612 Q 284.29137,183.44112 283.43387,184.17612 282.59387,184.89362 281.07137,184.89362 Z"
         style="font-size:17.5px"
         id="path1000" />
      <path
         d="M 293.68884,183.05612 H 293.60134 Q 293.25134,183.89612 292.62134,184.40362 291.99134,184.89362 290.83634,184.89362 288.87634,184.89362 287.87884,183.30112 286.89884,181.69112 286.89884,178.66362 286.89884,175.51362 287.98384,173.88612 289.06884,172.25862 291.25634,172.25862 292.81384,172.25862 293.68884,173.01112 294.58134,173.74612 295.05384,174.93612 L 293.79384,175.51362 Q 293.40884,174.55112 292.86634,174.04362 292.32384,173.53612 291.30884,173.53612 289.87384,173.53612 289.15634,174.60362 288.45634,175.67112 288.45634,177.57862 V 179.46862 Q 288.45634,181.42862 289.10384,182.54862 289.75134,183.65112 291.16884,183.65112 292.32384,183.65112 293.00634,182.95112 293.68884,182.23362 293.68884,181.07862 V 179.81862 H 291.11634 V 178.64612 H 295.05384 V 184.68362 H 293.68884 Z"
         style="font-size:17.5px"
         id="path1002" />
      <path
         d="M 305.69382,185.34862 304.27632,184.00112 Q 303.24382,184.89362 301.66882,184.89362 297.39882,184.89362 297.39882,178.57612 297.39882,172.25862 301.66882,172.25862 305.93882,172.25862 305.93882,178.57612 305.93882,181.41112 305.06382,182.98612 L 307.56632,185.34862 Z M 301.66882,183.61612 Q 302.64882,183.61612 303.29632,183.07362 L 300.88132,180.78112 H 302.75382 L 304.01382,181.97112 Q 304.38132,180.99112 304.38132,179.57362 V 177.57862 Q 304.38132,175.65362 303.71632,174.60362 303.06882,173.53612 301.66882,173.53612 300.26882,173.53612 299.60382,174.60362 298.95632,175.65362 298.95632,177.57862 V 179.57362 Q 298.95632,181.49862 299.60382,182.56612 300.26882,183.61612 301.66882,183.61612 Z"
         style="font-size:17.5px"
         id="path1004" />
      <path
         d="M 324.55876,180.53612 Q 324.06876,180.53612 323.59626,180.39612 323.12376,180.23862 322.58126,179.97612 322.47626,179.92362 322.07376,179.73112 321.68876,179.53862 321.35626,179.43362 321.02376,179.32862 320.76126,179.32862 320.28876,179.32862 319.95626,179.64362 319.64126,179.95862 319.39626,180.53612 L 318.32876,180.09862 Q 318.57376,179.22362 319.20376,178.69862 319.85126,178.15612 320.77876,178.15612 321.26876,178.15612 321.74126,178.31362 322.21376,178.45362 322.75626,178.71612 322.86126,178.76862 323.24626,178.96112 323.64876,179.15362 323.98126,179.25862 324.31376,179.36362 324.57626,179.36362 325.04876,179.36362 325.36376,179.04862 325.69626,178.73362 325.94126,178.15612 L 327.00876,178.59362 Q 326.76376,179.46862 326.11626,180.01112 325.48626,180.53612 324.55876,180.53612 Z"
         style="font-size:17.5px"
         id="path1006" />
      <path
         d="M 330.63123,180.09862 V 178.62862 H 335.70623 V 180.09862 Z"
         style="font-size:17.5px"
         id="path1008" />
      <path
         d="M 343.0037,183.59862 V 179.94112 H 339.5037 V 178.75112 H 343.0037 V 175.09362 H 344.3337 V 178.75112 H 347.8337 V 179.94112 H 344.3337 V 183.59862 Z"
         style="font-size:17.5px"
         id="path1010" />
      <path
         d="M 350.00367,178.17362 V 176.98362 H 358.33367 V 178.17362 Z M 350.00367,181.67362 V 180.48362 H 358.33367 V 181.67362 Z"
         style="font-size:17.5px"
         id="path1012" />
      <path
         d="M 360.90617,182.95112 367.11867,179.43362 V 179.29362 L 360.90617,175.77612 V 174.28862 L 368.43117,178.64612 V 180.04612 L 360.90617,184.40362 Z"
         style="font-size:17.5px"
         id="path1014" />
    </g>
  </g>
</svg>
