<?xml version="1.0" encoding="UTF-8" standalone="no"?>
<svg
   version="1.1"
   id="svg2"
   viewBox="0 0 308.99021 107.80999"
   height="30.426374mm"
   width="87.203903mm"
   sodipodi:docname="iMWritingMono Nerd Font.svg"
   xmlns:inkscape="http://www.inkscape.org/namespaces/inkscape"
   xmlns:sodipodi="http://sodipodi.sourceforge.net/DTD/sodipodi-0.dtd"
   xmlns="http://www.w3.org/2000/svg"
   xmlns:svg="http://www.w3.org/2000/svg"
   xmlns:rdf="http://www.w3.org/1999/02/22-rdf-syntax-ns#"
   xmlns:cc="http://creativecommons.org/ns#"
   xmlns:dc="http://purl.org/dc/elements/1.1/">
  <sodipodi:namedview
     id="namedview12"
     pagecolor="#ffffff"
     bordercolor="#666666"
     borderopacity="1.0"
     inkscape:showpageshadow="2"
     inkscape:pageopacity="0.0"
     inkscape:pagecheckerboard="0"
     inkscape:deskcolor="#d1d1d1"
     inkscape:document-units="mm" />
  <defs
     id="defs4" />
  <metadata
     id="metadata7">
    <rdf:RDF>
      <cc:Work
         rdf:about="">
        <dc:format>image/svg+xml</dc:format>
        <dc:type
           rdf:resource="http://purl.org/dc/dcmitype/StillImage" />
        <dc:title />
      </cc:Work>
    </rdf:RDF>
  </metadata>
  <g
     id="layer1"
     transform="translate(-65.332143,-80.583632)">
    <g
       aria-label="iMWriting Nerd Font"
       id="text4136"
       style="font-size:27.5px;font-family:'iMWritingMono Nerd Font';letter-spacing:0px;word-spacing:0px;fill:#ffffff">
      <path
         d="M 72.894643,80.583632 V 83.498632 H 69.979643 V 80.583632 Z M 65.332143,99.008632 H 70.529643 V 88.696132 H 65.332143 V 86.743632 H 72.729643 V 99.008632 H 77.487143 V 100.93363 H 65.332143 Z"
         id="path14" />
      <path
         d="M 91.869655,85.231132 H 91.649655 L 87.607155,95.103632 83.564655,85.231132 H 83.344655 V 100.93363 H 81.227155 V 81.738632 H 84.197155 L 87.579655,90.208632 H 87.744655 L 91.127155,81.738632 H 93.987155 V 100.93363 H 91.869655 Z"
         id="path16" />
      <path
         d="M 98.332166,100.93363 96.819666,81.738632 H 98.882166 L 99.679666,92.738632 100.09217,98.541132 H 100.31217 L 102.84217,86.743632 H 105.42717 L 107.95717,98.541132 H 108.17717 L 108.58967,92.738632 109.38717,81.738632 H 111.39467 L 109.88217,100.93363 H 106.55467 L 104.21717,89.466132 H 103.99717 L 101.65967,100.93363 Z"
         id="path18" />
      <path
         d="M 114.47468,99.063632 H 118.62718 V 88.613632 H 114.47468 V 86.743632 H 120.82718 V 90.318632 H 120.96468 Q 122.00968,86.743632 125.74968,86.743632 H 127.72968 V 88.943632 H 125.06218 Q 123.05468,88.943632 121.92718,90.071132 120.82718,91.198632 120.82718,92.931132 V 99.063632 H 126.32718 V 100.93363 H 114.47468 Z"
         id="path20" />
      <path
         d="M 138.89469,80.583632 V 83.498632 H 135.97969 V 80.583632 Z M 131.33219,99.008632 H 136.52969 V 88.696132 H 131.33219 V 86.743632 H 138.72969 V 99.008632 H 143.48719 V 100.93363 H 131.33219 Z"
         id="path22" />
      <path
         d="M 153.3597,96.203632 Q 153.3597,97.523632 153.7722,98.156132 154.1847,98.761132 154.9547,98.926132 155.7522,99.063632 157.3197,99.063632 H 159.0522 V 100.93363 H 157.3472 Q 155.1747,100.93363 153.8547,100.57613 152.5622,100.19113 151.8472,99.146132 151.1597,98.101132 151.1597,96.176132 V 88.613632 H 146.4297 V 86.743632 H 151.1597 V 81.738632 H 153.3597 V 86.743632 H 159.8222 V 88.613632 H 153.3597 Z"
         id="path24" />
      <path
         d="M 171.89471,80.583632 V 83.498632 H 168.97971 V 80.583632 Z M 164.33221,99.008632 H 169.52971 V 88.696132 H 164.33221 V 86.743632 H 171.72971 V 99.008632 H 176.48721 V 100.93363 H 164.33221 Z"
         id="path26" />
      <path
         d="M 181.05222,100.93363 V 86.743632 H 183.25222 V 89.053632 H 183.36222 Q 184.48972,86.413632 187.40472,86.413632 189.65972,86.413632 190.97972,87.843632 192.32722,89.273632 192.32722,91.831132 V 100.93363 H 190.12722 V 92.216132 Q 190.12722,90.291132 189.27472,89.328632 188.42222,88.366132 186.77222,88.366132 185.31472,88.366132 184.26972,89.081132 183.25222,89.768632 183.25222,91.088632 V 100.93363 Z"
         id="path28" />
      <path
         d="M 208.74473,100.46613 Q 208.74473,103.40863 207.09473,105.08613 205.44473,106.76363 202.50223,106.76363 199.31223,106.76363 197.41473,104.81113 L 198.70723,103.29863 Q 200.19223,104.83863 202.52973,104.83863 206.54473,104.83863 206.54473,100.60363 V 98.238632 H 206.43473 Q 205.05973,100.87863 202.06223,100.87863 199.47723,100.87863 197.99223,98.953632 196.50723,97.001132 196.50723,93.646132 196.50723,90.291132 197.99223,88.366132 199.47723,86.413632 202.06223,86.413632 205.05973,86.413632 206.43473,89.053632 H 206.54473 V 86.743632 H 208.74473 Z M 202.91473,98.926132 Q 204.45473,98.926132 205.49973,98.156132 206.54473,97.386132 206.54473,96.011132 V 91.281132 Q 206.54473,89.906132 205.49973,89.136132 204.45473,88.366132 202.91473,88.366132 201.01723,88.366132 199.94473,89.521132 198.87223,90.676132 198.87223,92.628632 V 94.663632 Q 198.87223,96.616132 199.94473,97.771132 201.01723,98.926132 202.91473,98.926132 Z"
         id="path30" />
      <path
         d="M 232.33977,84.681132 H 232.14727 V 100.93363 H 230.05727 V 81.738632 H 233.32977 L 239.87477,97.826132 H 240.06727 V 81.738632 H 242.15727 V 100.93363 H 238.88477 Z"
         id="path32" />
      <path
         d="M 252.85477,101.26363 Q 250.84727,101.26363 249.33477,100.35613 247.82227,99.448632 246.99727,97.771132 246.19977,96.093632 246.19977,93.866132 246.19977,91.638632 247.02477,89.961132 247.84977,88.256132 249.30727,87.348632 250.79227,86.413632 252.71727,86.413632 254.58727,86.413632 256.01727,87.321132 257.44727,88.201132 258.21727,89.768632 259.01477,91.336132 259.01477,93.343632 V 94.388632 H 248.50977 V 95.048632 Q 248.50977,96.946132 249.69227,98.156132 250.87477,99.366132 252.85477,99.366132 254.25727,99.366132 255.30227,98.733632 256.34727,98.073632 256.92477,96.891132 L 258.54727,97.991132 Q 257.88727,99.476132 256.37477,100.38363 254.88977,101.26363 252.85477,101.26363 Z M 252.71727,88.228632 Q 251.53477,88.228632 250.57227,88.806132 249.60977,89.356132 249.05977,90.346132 248.50977,91.336132 248.50977,92.546132 V 92.738632 H 256.64977 V 92.436132 Q 256.64977,90.566132 255.54977,89.411132 254.47727,88.228632 252.71727,88.228632 Z"
         id="path34" />
      <path
         d="M 262.97478,99.063632 H 267.12728 V 88.613632 H 262.97478 V 86.743632 H 269.32728 V 90.318632 H 269.46478 Q 270.50978,86.743632 274.24978,86.743632 H 276.22978 V 88.943632 H 273.56228 Q 271.55478,88.943632 270.42728,90.071132 269.32728,91.198632 269.32728,92.931132 V 99.063632 H 274.82728 V 100.93363 H 262.97478 Z"
         id="path36" />
      <path
         d="M 289.0448,98.623632 H 288.9348 Q 287.5598,101.26363 284.5623,101.26363 281.9498,101.26363 280.4648,99.311132 279.0073,97.331132 279.0073,93.838632 279.0073,90.346132 280.4648,88.393632 281.9498,86.413632 284.5623,86.413632 287.5598,86.413632 288.9348,89.053632 H 289.0448 V 80.583632 H 291.2448 V 100.93363 H 289.0448 Z M 285.4148,99.311132 Q 286.9548,99.311132 287.9998,98.541132 289.0448,97.771132 289.0448,96.396132 V 91.281132 Q 289.0448,89.906132 287.9998,89.136132 286.9548,88.366132 285.4148,88.366132 283.5173,88.366132 282.4448,89.521132 281.3723,90.676132 281.3723,92.628632 V 95.048632 Q 281.3723,97.001132 282.4448,98.156132 283.5173,99.311132 285.4148,99.311132 Z"
         id="path38" />
      <path
         d="M 312.83231,100.93363 V 81.738632 H 324.93231 V 83.746132 H 315.14231 V 90.208632 H 324.10731 V 92.216132 H 315.14231 V 100.93363 Z"
         id="path40" />
      <path
         d="M 335.10733,101.26363 Q 333.12733,101.26363 331.66983,100.35613 330.23983,99.448632 329.44233,97.771132 328.67233,96.093632 328.67233,93.838632 328.67233,91.583632 329.44233,89.906132 330.23983,88.228632 331.66983,87.321132 333.12733,86.413632 335.10733,86.413632 337.08733,86.413632 338.51733,87.321132 339.97483,88.228632 340.74483,89.906132 341.54233,91.583632 341.54233,93.838632 341.54233,96.093632 340.74483,97.771132 339.97483,99.448632 338.51733,100.35613 337.08733,101.26363 335.10733,101.26363 Z M 335.10733,99.366132 Q 337.00483,99.366132 338.10483,98.238632 339.20483,97.083632 339.20483,94.856132 V 92.821132 Q 339.20483,90.593632 338.10483,89.466132 337.00483,88.311132 335.10733,88.311132 333.20983,88.311132 332.10983,89.466132 331.00983,90.593632 331.00983,92.821132 V 94.856132 Q 331.00983,97.083632 332.10983,98.238632 333.20983,99.366132 335.10733,99.366132 Z"
         id="path42" />
      <path
         d="M 346.05233,100.93363 V 86.743632 H 348.25233 V 89.053632 H 348.36233 Q 349.48983,86.413632 352.40483,86.413632 354.65983,86.413632 355.97983,87.843632 357.32733,89.273632 357.32733,91.831132 V 100.93363 H 355.12733 V 92.216132 Q 355.12733,90.291132 354.27483,89.328632 353.42233,88.366132 351.77233,88.366132 350.31483,88.366132 349.26983,89.081132 348.25233,89.768632 348.25233,91.088632 V 100.93363 Z"
         id="path44" />
      <path
         d="M 367.85986,96.203632 Q 367.85986,97.523632 368.27236,98.156132 368.68486,98.761132 369.45486,98.926132 370.25236,99.063632 371.81986,99.063632 H 373.55236 V 100.93363 H 371.84736 Q 369.67486,100.93363 368.35486,100.57613 367.06236,100.19113 366.34736,99.146132 365.65986,98.101132 365.65986,96.176132 V 88.613632 H 360.92986 V 86.743632 H 365.65986 V 81.738632 H 367.85986 V 86.743632 H 374.32236 V 88.613632 H 367.85986 Z"
         id="path46" />
    </g>
    <g
       aria-label="abcdefghijklmnopqrstuvwxyzABCDEFGHIJKLMNOPQRSTUVWXYZ oO08 iIlL1 {} [] g9qCGQ ~-+=&gt;"
       id="text4140"
       style="font-size:17.5px;font-family:'iMWritingMono Nerd Font';letter-spacing:0px;word-spacing:0px;fill:#ffffff">
      <path
         d="M 74.081903,140.93362 Q 72.664403,140.93362 72.471903,139.46362 H 72.384403 Q 71.754403,141.14362 69.671903,141.14362 68.254403,141.14362 67.414403,140.40862 66.574403,139.67362 66.574403,138.39612 66.574403,135.77112 70.459403,135.77112 H 72.384403 V 134.87862 Q 72.384403,133.89862 71.824403,133.39112 71.264403,132.88362 70.231903,132.88362 68.586903,132.88362 67.816903,134.21362 L 66.871903,133.51362 Q 67.239403,132.74362 68.131903,132.21862 69.024403,131.69362 70.319403,131.69362 71.911903,131.69362 72.839403,132.51612 73.784403,133.32112 73.784403,134.73862 V 139.07862 Q 73.784403,139.34112 73.959403,139.53362 74.151903,139.70862 74.414403,139.70862 H 75.044403 V 140.93362 Z M 69.916903,139.97112 Q 70.984403,139.97112 71.684403,139.49862 72.384403,139.00862 72.384403,138.30862 V 136.82112 H 70.459403 Q 68.044403,136.82112 68.044403,138.18612 V 138.55362 Q 68.044403,139.23612 68.534403,139.60362 69.041903,139.97112 69.916903,139.97112 Z"
         id="path49" />
      <path
         d="M 77.58191,127.98362 H 78.98191 V 133.37362 H 79.05191 Q 79.92691,131.69362 81.83441,131.69362 83.49691,131.69362 84.42441,132.95362 85.36941,134.19612 85.36941,136.41862 85.36941,138.64112 84.42441,139.90112 83.49691,141.14362 81.83441,141.14362 79.92691,141.14362 79.05191,139.46362 H 78.98191 V 140.93362 H 77.58191 Z M 81.29191,139.90112 Q 82.49941,139.90112 83.18191,139.16612 83.86441,138.43112 83.86441,137.18862 V 135.64862 Q 83.86441,134.40612 83.18191,133.67112 82.49941,132.93612 81.29191,132.93612 80.31191,132.93612 79.64691,133.42612 78.98191,133.91612 78.98191,134.79112 V 138.04612 Q 78.98191,138.92112 79.64691,139.41112 80.31191,139.90112 81.29191,139.90112 Z"
         id="path51" />
      <path
         d="M 91.984416,141.14362 Q 90.059416,141.14362 88.974416,139.86612 87.889416,138.58862 87.889416,136.41862 87.889416,134.24862 88.974416,132.97112 90.059416,131.69362 91.966916,131.69362 93.226916,131.69362 94.066916,132.25362 94.906916,132.81362 95.309416,133.77612 L 94.189416,134.37112 Q 93.944416,133.67112 93.366916,133.28612 92.789416,132.90112 91.966916,132.90112 90.759416,132.90112 90.076916,133.67112 89.394416,134.42362 89.394416,135.64862 V 137.18862 Q 89.394416,138.41362 90.076916,139.18362 90.759416,139.93612 92.001916,139.93612 93.716916,139.93612 94.451916,138.36112 L 95.449416,139.04362 Q 95.029416,140.00612 94.154416,140.58362 93.279416,141.14362 91.984416,141.14362 Z"
         id="path53" />
      <path
         d="M 104.35692,139.46362 H 104.28692 Q 103.41192,141.14362 101.50442,141.14362 99.841922,141.14362 98.896922,139.90112 97.969422,138.64112 97.969422,136.41862 97.969422,134.19612 98.896922,132.95362 99.841922,131.69362 101.50442,131.69362 103.41192,131.69362 104.28692,133.37362 H 104.35692 V 127.98362 H 105.75692 V 140.93362 H 104.35692 Z M 102.04692,139.90112 Q 103.02692,139.90112 103.69192,139.41112 104.35692,138.92112 104.35692,138.04612 V 134.79112 Q 104.35692,133.91612 103.69192,133.42612 103.02692,132.93612 102.04692,132.93612 100.83942,132.93612 100.15692,133.67112 99.474422,134.40612 99.474422,135.64862 V 137.18862 Q 99.474422,138.43112 100.15692,139.16612 100.83942,139.90112 102.04692,139.90112 Z"
         id="path55" />
      <path
         d="M 112.82693,141.14362 Q 111.54943,141.14362 110.58693,140.56612 109.62443,139.98862 109.09943,138.92112 108.59193,137.85362 108.59193,136.43612 108.59193,135.01862 109.11693,133.95112 109.64193,132.86612 110.56943,132.28862 111.51443,131.69362 112.73943,131.69362 113.92943,131.69362 114.83943,132.27112 115.74943,132.83112 116.23943,133.82862 116.74693,134.82612 116.74693,136.10362 V 136.76862 H 110.06193 V 137.18862 Q 110.06193,138.39612 110.81443,139.16612 111.56693,139.93612 112.82693,139.93612 113.71943,139.93612 114.38443,139.53362 115.04943,139.11362 115.41693,138.36112 L 116.44943,139.06112 Q 116.02943,140.00612 115.06693,140.58362 114.12193,141.14362 112.82693,141.14362 Z M 112.73943,132.84862 Q 111.98693,132.84862 111.37443,133.21612 110.76193,133.56612 110.41193,134.19612 110.06193,134.82612 110.06193,135.59612 V 135.71862 H 115.24193 V 135.52612 Q 115.24193,134.33612 114.54193,133.60112 113.85943,132.84862 112.73943,132.84862 Z"
         id="path57" />
      <path
         d="M 119.37194,139.74362 H 122.41694 V 133.09362 H 119.19694 V 131.90362 H 122.41694 V 131.01112 Q 122.41694,129.78612 122.85444,129.12112 123.30944,128.45612 124.13194,128.22862 124.97194,127.98362 126.35444,127.98362 H 127.43944 V 129.17362 H 126.33694 Q 125.33944,129.17362 124.83194,129.27862 124.34194,129.36612 124.07944,129.76862 123.81694,130.15362 123.81694,130.99362 V 131.90362 H 127.43944 V 133.09362 H 123.81694 V 139.74362 H 127.03694 V 140.93362 H 119.37194 Z"
         id="path59" />
      <path
         d="M 137.25694,140.63612 Q 137.25694,142.50862 136.20694,143.57612 135.15694,144.64362 133.28444,144.64362 131.25444,144.64362 130.04694,143.40112 L 130.86944,142.43862 Q 131.81444,143.41862 133.30194,143.41862 135.85694,143.41862 135.85694,140.72362 V 139.21862 H 135.78694 Q 134.91194,140.89862 133.00444,140.89862 131.35944,140.89862 130.41444,139.67362 129.46944,138.43112 129.46944,136.29612 129.46944,134.16112 130.41444,132.93612 131.35944,131.69362 133.00444,131.69362 134.91194,131.69362 135.78694,133.37362 H 135.85694 V 131.90362 H 137.25694 Z M 133.54694,139.65612 Q 134.52694,139.65612 135.19194,139.16612 135.85694,138.67612 135.85694,137.80112 V 134.79112 Q 135.85694,133.91612 135.19194,133.42612 134.52694,132.93612 133.54694,132.93612 132.33944,132.93612 131.65694,133.67112 130.97444,134.40612 130.97444,135.64862 V 136.94362 Q 130.97444,138.18612 131.65694,138.92112 132.33944,139.65612 133.54694,139.65612 Z"
         id="path61" />
      <path
         d="M 140.63445,127.98362 H 142.03445 V 133.37362 H 142.10445 Q 142.82195,131.69362 144.67695,131.69362 146.11195,131.69362 146.95195,132.60362 147.80945,133.51362 147.80945,135.14112 V 140.93362 H 146.40945 V 135.38612 Q 146.40945,134.16112 145.86695,133.54862 145.32445,132.93612 144.27445,132.93612 143.34695,132.93612 142.68195,133.39112 142.03445,133.82862 142.03445,134.66862 V 140.93362 H 140.63445 Z"
         id="path63" />
      <path
         d="M 155.80696,127.98362 V 129.83862 H 153.95196 V 127.98362 Z M 150.99446,139.70862 H 154.30196 V 133.14612 H 150.99446 V 131.90362 H 155.70196 V 139.70862 H 158.72946 V 140.93362 H 150.99446 Z"
         id="path65" />
      <path
         d="M 167.70696,127.98362 V 129.83862 H 165.85196 V 127.98362 Z M 167.47946,131.90362 V 141.40612 Q 167.47946,142.63112 167.02446,143.29612 166.58696,143.96112 165.74696,144.18862 164.92446,144.43362 163.54196,144.43362 H 161.70446 V 143.24362 H 163.55946 Q 164.55696,143.24362 165.04696,143.13862 165.55446,143.05112 165.81696,142.64862 166.07946,142.26362 166.07946,141.42362 V 133.09362 H 161.54696 V 131.90362 Z"
         id="path67" />
      <path
         d="M 172.25697,127.98362 H 173.65697 V 136.15612 H 173.72697 L 175.30197,134.66862 178.31197,131.90362 H 180.02697 L 176.28197,135.43862 180.46447,140.93362 H 178.73197 L 175.21447,136.24362 173.65697,137.66112 V 140.93362 H 172.25697 Z"
         id="path69" />
      <path
         d="M 182.31948,139.74362 H 185.46948 V 129.17362 H 182.31948 V 127.98362 H 186.86948 V 139.74362 H 190.01948 V 140.93362 H 182.31948 Z"
         id="path71" />
      <path
         d="M 192.36448,140.93362 V 131.90362 H 193.65948 V 132.95362 H 193.72948 Q 193.97448,132.35862 194.35948,132.02612 194.76198,131.69362 195.46198,131.69362 196.21448,131.69362 196.61698,132.07862 197.01948,132.44612 197.10698,133.11112 H 197.15948 Q 197.43948,132.44612 197.89448,132.07862 198.36698,131.69362 199.11948,131.69362 200.16948,131.69362 200.57198,132.42862 200.97448,133.14612 200.97448,134.66862 V 140.93362 H 199.67948 V 134.89612 Q 199.67948,133.74112 199.43448,133.30362 199.20698,132.84862 198.57698,132.84862 197.99948,132.84862 197.64948,133.23362 197.31698,133.60112 197.31698,134.30112 V 140.93362 H 196.02198 V 134.89612 Q 196.02198,133.74112 195.77698,133.30362 195.54948,132.84862 194.93698,132.84862 194.35948,132.84862 194.00948,133.23362 193.65948,133.60112 193.65948,134.30112 V 140.93362 Z"
         id="path73" />
      <path
         d="M 203.63449,140.93362 V 131.90362 H 205.03449 V 133.37362 H 205.10449 Q 205.82199,131.69362 207.67699,131.69362 209.11199,131.69362 209.95199,132.60362 210.80949,133.51362 210.80949,135.14112 V 140.93362 H 209.40949 V 135.38612 Q 209.40949,134.16112 208.86699,133.54862 208.32449,132.93612 207.27449,132.93612 206.34699,132.93612 205.68199,133.39112 205.03449,133.82862 205.03449,134.66862 V 140.93362 Z"
         id="path75" />
      <path
         d="M 217.66949,141.14362 Q 216.40949,141.14362 215.48199,140.56612 214.57199,139.98862 214.06449,138.92112 213.57449,137.85362 213.57449,136.41862 213.57449,134.98362 214.06449,133.91612 214.57199,132.84862 215.48199,132.27112 216.40949,131.69362 217.66949,131.69362 218.92949,131.69362 219.83949,132.27112 220.76699,132.84862 221.25699,133.91612 221.76449,134.98362 221.76449,136.41862 221.76449,137.85362 221.25699,138.92112 220.76699,139.98862 219.83949,140.56612 218.92949,141.14362 217.66949,141.14362 Z M 217.66949,139.93612 Q 218.87699,139.93612 219.57699,139.21862 220.27699,138.48362 220.27699,137.06612 V 135.77112 Q 220.27699,134.35362 219.57699,133.63612 218.87699,132.90112 217.66949,132.90112 216.46199,132.90112 215.76199,133.63612 215.06199,134.35362 215.06199,135.77112 V 137.06612 Q 215.06199,138.48362 215.76199,139.21862 216.46199,139.93612 217.66949,139.93612 Z"
         id="path77" />
      <path
         d="M 224.58201,131.90362 H 225.98201 V 133.37362 H 226.05201 Q 226.92701,131.69362 228.83451,131.69362 230.49701,131.69362 231.42451,132.95362 232.36951,134.19612 232.36951,136.41862 232.36951,138.64112 231.42451,139.90112 230.49701,141.14362 228.83451,141.14362 226.92701,141.14362 226.05201,139.46362 H 225.98201 V 144.43362 H 224.58201 Z M 228.29201,139.90112 Q 229.49951,139.90112 230.18201,139.16612 230.86451,138.43112 230.86451,137.18862 V 135.64862 Q 230.86451,134.40612 230.18201,133.67112 229.49951,132.93612 228.29201,132.93612 227.31201,132.93612 226.64701,133.42612 225.98201,133.91612 225.98201,134.79112 V 138.04612 Q 225.98201,138.92112 226.64701,139.41112 227.31201,139.90112 228.29201,139.90112 Z"
         id="path79" />
      <path
         d="M 240.85701,139.46362 H 240.78701 Q 239.91201,141.14362 238.00451,141.14362 236.34201,141.14362 235.39701,139.90112 234.46951,138.64112 234.46951,136.41862 234.46951,134.19612 235.39701,132.95362 236.34201,131.69362 238.00451,131.69362 239.91201,131.69362 240.78701,133.37362 H 240.85701 V 131.90362 H 242.25701 V 144.43362 H 240.85701 Z M 238.54701,139.90112 Q 239.52701,139.90112 240.19201,139.41112 240.85701,138.92112 240.85701,138.04612 V 134.79112 Q 240.85701,133.91612 240.19201,133.42612 239.52701,132.93612 238.54701,132.93612 237.33951,132.93612 236.65701,133.67112 235.97451,134.40612 235.97451,135.64862 V 137.18862 Q 235.97451,138.43112 236.65701,139.16612 237.33951,139.90112 238.54701,139.90112 Z"
         id="path81" />
      <path
         d="M 245.26701,139.74362 H 247.90951 V 133.09362 H 245.26701 V 131.90362 H 249.30951 V 134.17862 H 249.39701 Q 250.06201,131.90362 252.44201,131.90362 H 253.70201 V 133.30362 H 252.00451 Q 250.72701,133.30362 250.00951,134.02112 249.30951,134.73862 249.30951,135.84112 V 139.74362 H 252.80951 V 140.93362 H 245.26701 Z"
         id="path83" />
      <path
         d="M 259.77453,141.14362 Q 257.14953,141.14362 255.59203,139.37612 L 256.53703,138.55362 Q 257.20203,139.27112 257.98953,139.62112 258.77703,139.97112 259.80953,139.97112 260.91203,139.97112 261.55953,139.58612 262.20703,139.18362 262.20703,138.41362 262.20703,137.76612 261.78703,137.48612 261.36703,137.20612 260.61453,137.10112 L 259.19703,136.89112 Q 258.33953,136.76862 257.69203,136.55862 257.04453,136.33112 256.57203,135.82362 256.09953,135.29862 256.09953,134.38862 256.09953,133.07612 257.09703,132.39362 258.09453,131.69362 259.73953,131.69362 262.04953,131.69362 263.41453,133.14612 L 262.50453,134.00362 Q 261.55953,132.86612 259.68703,132.86612 258.61953,132.86612 258.04203,133.23362 257.48203,133.60112 257.48203,134.30112 257.48203,134.94862 257.90203,135.22862 258.33953,135.50862 259.07453,135.61362 L 260.49203,135.82362 Q 261.36703,135.94612 262.01453,136.17362 262.66203,136.38362 263.11703,136.90862 263.58953,137.41612 263.58953,138.32612 263.58953,139.65612 262.55703,140.40862 261.52453,141.14362 259.77453,141.14362 Z"
         id="path85" />
      <path
         d="M 270.01203,137.92362 Q 270.01203,138.76362 270.27453,139.16612 270.53703,139.55112 271.02703,139.65612 271.53453,139.74362 272.53203,139.74362 H 273.63453 V 140.93362 H 272.54953 Q 271.16703,140.93362 270.32703,140.70612 269.50453,140.46112 269.04953,139.79612 268.61203,139.13112 268.61203,137.90612 V 133.09362 H 265.60203 V 131.90362 H 268.61203 V 128.71862 H 270.01203 V 131.90362 H 274.12453 V 133.09362 H 270.01203 Z"
         id="path87" />
      <path
         d="M 282.80454,139.46362 H 282.73454 Q 282.01704,141.14362 280.16204,141.14362 278.72704,141.14362 277.86954,140.23362 277.02954,139.32362 277.02954,137.69612 V 131.90362 H 278.42954 V 137.45112 Q 278.42954,138.67612 278.97204,139.28862 279.51454,139.90112 280.56454,139.90112 281.49204,139.90112 282.13954,139.46362 282.80454,139.00862 282.80454,138.16862 V 131.90362 H 284.20454 V 140.93362 H 282.80454 Z"
         id="path89" />
      <path
         d="M 290.27704,140.93362 287.03954,131.90362 H 288.45704 L 291.15204,139.76112 H 291.22204 L 293.91704,131.90362 H 295.29954 L 292.06204,140.93362 Z"
         id="path91" />
      <path
         d="M 296.94456,131.90362 H 298.18706 L 299.21956,139.70862 H 299.37706 L 300.91706,131.90362 H 302.45706 L 303.99706,139.70862 H 304.15456 L 305.18706,131.90362 H 306.39456 L 305.01206,140.93362 H 303.19206 L 301.75706,133.37362 H 301.61706 L 300.14706,140.93362 H 298.32706 Z"
         id="path93" />
      <path
         d="M 307.98706,140.93362 311.34706,136.34862 308.07456,131.90362 H 309.75456 L 311.11956,133.81112 312.20456,135.31612 H 312.27456 L 313.32456,133.81112 314.67206,131.90362 H 316.28206 L 312.97456,136.33112 316.36956,140.93362 H 314.68956 L 312.13456,137.38112 H 312.06456 L 309.59706,140.93362 Z"
         id="path95" />
      <path
         d="M 325.59206,131.90362 H 326.99206 L 322.51206,142.91112 Q 322.17956,143.73362 321.67206,144.08362 321.18206,144.43362 320.20206,144.43362 H 318.87206 V 143.24362 H 320.46456 Q 320.98956,143.24362 321.16456,142.77112 L 321.98706,140.75862 318.34706,131.90362 H 319.78206 L 321.30456,135.68362 322.65206,139.11362 H 322.72206 L 324.06956,135.68362 Z"
         id="path97" />
      <path
         d="M 329.40706,140.93362 V 139.58612 L 335.23456,133.09362 H 329.59956 V 131.90362 H 336.75706 V 133.25112 L 330.92956,139.74362 H 336.93206 V 140.93362 Z"
         id="path99" />
      <path
         d="M 73.836903,162.80862 72.804403,159.32612 H 68.516903 L 67.484403,162.80862 H 65.961903 L 69.706903,150.59362 H 71.649403 L 75.394403,162.80862 Z M 70.739403,152.15112 H 70.581903 L 68.866903,158.04862 H 72.454403 Z"
         id="path101" />
      <path
         d="M 77.45941,150.59362 H 81.60691 Q 83.16441,150.59362 84.05691,151.45112 84.96691,152.30862 84.96691,153.74362 84.96691,154.79362 84.45941,155.44112 83.95191,156.08862 83.05941,156.36862 V 156.42112 Q 84.16191,156.66612 84.79191,157.38362 85.42191,158.08362 85.42191,159.29112 85.42191,160.27112 84.98441,161.07612 84.56441,161.88112 83.81191,162.35362 83.05941,162.80862 82.13191,162.80862 H 77.45941 Z M 81.44941,155.89612 Q 82.39441,155.89612 82.90191,155.47612 83.42691,155.05612 83.42691,154.23362 V 153.55112 Q 83.42691,152.72862 82.90191,152.30862 82.39441,151.87112 81.44941,151.87112 H 78.92941 V 155.89612 Z M 81.69441,161.53112 Q 82.72691,161.53112 83.28691,161.05862 83.86441,160.58612 83.86441,159.67612 V 158.95862 Q 83.86441,158.04862 83.28691,157.57612 82.72691,157.10362 81.69441,157.10362 H 78.92941 V 161.53112 Z"
         id="path103" />
      <path
         d="M 92.071916,163.01862 Q 89.866916,163.01862 88.746916,161.40862 87.644416,159.78112 87.644416,156.70112 87.644416,153.62112 88.746916,152.01112 89.866916,150.38362 92.071916,150.38362 93.594416,150.38362 94.434416,151.11862 95.291916,151.83612 95.834416,153.06112 L 94.574416,153.63862 Q 94.189416,152.67612 93.629416,152.16862 93.086916,151.66112 92.071916,151.66112 90.654416,151.66112 89.919416,152.74612 89.201916,153.81362 89.201916,155.70362 V 157.69862 Q 89.201916,159.58862 89.919416,160.67362 90.654416,161.74112 92.071916,161.74112 93.086916,161.74112 93.629416,161.23362 94.189416,160.72612 94.574416,159.76362 L 95.834416,160.34112 Q 95.291916,161.56612 94.434416,162.30112 93.594416,163.01862 92.071916,163.01862 Z"
         id="path105" />
      <path
         d="M 98.581922,150.59362 H 101.99442 Q 104.21692,150.59362 105.31942,152.13362 106.43942,153.67362 106.43942,156.70112 106.43942,159.72862 105.31942,161.26862 104.21692,162.80862 101.99442,162.80862 H 98.581922 Z M 101.92442,161.53112 Q 103.35942,161.53112 104.11192,160.51612 104.88192,159.50112 104.88192,157.64612 V 155.75612 Q 104.88192,153.90112 104.11192,152.88612 103.35942,151.87112 101.92442,151.87112 H 100.05192 V 161.53112 Z"
         id="path107" />
      <path
         d="M 108.99443,162.80862 V 150.59362 H 116.51943 V 151.87112 H 110.46443 V 155.98362 H 116.30943 V 157.26112 H 110.46443 V 161.53112 H 116.51943 V 162.80862 Z"
         id="path109" />
      <path
         d="M 119.49444,162.80862 V 150.59362 H 127.19444 V 151.87112 H 120.96444 V 155.98362 H 126.66944 V 157.26112 H 120.96444 V 162.80862 Z"
         id="path111" />
      <path
         d="M 136.18944,161.18112 H 136.10194 Q 135.75194,162.02112 135.12194,162.52862 134.49194,163.01862 133.33694,163.01862 131.37694,163.01862 130.37944,161.42612 129.39944,159.81612 129.39944,156.78862 129.39944,153.63862 130.48444,152.01112 131.56944,150.38362 133.75694,150.38362 135.31444,150.38362 136.18944,151.13612 137.08194,151.87112 137.55444,153.06112 L 136.29444,153.63862 Q 135.90944,152.67612 135.36694,152.16862 134.82444,151.66112 133.80944,151.66112 132.37444,151.66112 131.65694,152.72862 130.95694,153.79612 130.95694,155.70362 V 157.59362 Q 130.95694,159.55362 131.60444,160.67362 132.25194,161.77612 133.66944,161.77612 134.82444,161.77612 135.50694,161.07612 136.18944,160.35862 136.18944,159.20362 V 157.94362 H 133.61694 V 156.77112 H 137.55444 V 162.80862 H 136.18944 Z"
         id="path113" />
      <path
         d="M 146.54945,157.26112 H 141.78945 V 162.80862 H 140.31945 V 150.59362 H 141.78945 V 155.98362 H 146.54945 V 150.59362 H 148.01945 V 162.80862 H 146.54945 Z"
         id="path115" />
      <path
         d="M 150.88946,162.80862 V 161.63612 H 153.93446 V 151.76612 H 150.88946 V 150.59362 H 158.44946 V 151.76612 H 155.40446 V 161.63612 H 158.44946 V 162.80862 Z"
         id="path117" />
      <path
         d="M 168.31946,150.59362 V 159.64112 Q 168.31946,160.65612 167.86446,161.42612 167.40946,162.19612 166.58696,162.61612 165.76446,163.01862 164.71446,163.01862 163.33196,163.01862 162.40446,162.30112 161.49446,161.56612 161.21446,160.25362 L 162.61446,159.95612 Q 162.80696,160.77862 163.29696,161.25112 163.80446,161.72362 164.74946,161.72362 165.76446,161.72362 166.30696,161.14612 166.84946,160.55112 166.84946,159.37862 V 151.87112 H 162.43946 V 150.59362 Z"
         id="path119" />
      <path
         d="M 175.12697,156.82362 173.37697,158.88862 V 162.80862 H 171.90697 V 150.59362 H 173.37697 V 156.96362 H 173.42947 L 175.03947,154.93362 178.64447,150.59362 H 180.41197 L 176.12447,155.73862 180.53447,162.80862 H 178.81947 Z"
         id="path121" />
      <path
         d="M 183.01948,162.80862 V 150.59362 H 184.48948 V 161.53112 H 190.28198 V 162.80862 Z"
         id="path123" />
      <path
         d="M 199.38198,152.81612 H 199.24198 L 196.66948,159.09862 194.09698,152.81612 H 193.95698 V 162.80862 H 192.60948 V 150.59362 H 194.49948 L 196.65198,155.98362 H 196.75698 L 198.90948,150.59362 H 200.72948 V 162.80862 H 199.38198 Z"
         id="path125" />
      <path
         d="M 204.77199,152.46612 H 204.64949 V 162.80862 H 203.31949 V 150.59362 H 205.40199 L 209.56699,160.83112 H 209.68949 V 150.59362 H 211.01949 V 162.80862 H 208.93699 Z"
         id="path127" />
      <path
         d="M 217.66949,163.01862 Q 213.39949,163.01862 213.39949,156.70112 213.39949,150.38362 217.66949,150.38362 221.93949,150.38362 221.93949,156.70112 221.93949,163.01862 217.66949,163.01862 Z M 217.66949,161.74112 Q 219.06949,161.74112 219.71699,160.69112 220.38199,159.62362 220.38199,157.69862 V 155.70362 Q 220.38199,153.77862 219.71699,152.72862 219.06949,151.66112 217.66949,151.66112 216.26949,151.66112 215.60449,152.72862 214.95699,153.77862 214.95699,155.70362 V 157.69862 Q 214.95699,159.62362 215.60449,160.69112 216.26949,161.74112 217.66949,161.74112 Z"
         id="path129" />
      <path
         d="M 224.49451,162.80862 V 150.59362 H 228.93951 Q 230.61951,150.59362 231.51201,151.52112 232.42201,152.44862 232.42201,154.11112 232.42201,155.77362 231.51201,156.70112 230.61951,157.62862 228.93951,157.62862 H 225.96451 V 162.80862 Z M 225.96451,156.35112 H 228.90451 Q 229.83201,156.35112 230.33951,155.89612 230.86451,155.42362 230.86451,154.56612 V 153.65612 Q 230.86451,152.79862 230.33951,152.34362 229.83201,151.87112 228.90451,151.87112 H 225.96451 Z"
         id="path131" />
      <path
         d="M 242.69451,163.47362 241.27701,162.12612 Q 240.24451,163.01862 238.66951,163.01862 234.39951,163.01862 234.39951,156.70112 234.39951,150.38362 238.66951,150.38362 242.93951,150.38362 242.93951,156.70112 242.93951,159.53612 242.06451,161.11112 L 244.56701,163.47362 Z M 238.66951,161.74112 Q 239.64951,161.74112 240.29701,161.19862 L 237.88201,158.90612 H 239.75451 L 241.01451,160.09612 Q 241.38201,159.11612 241.38201,157.69862 V 155.70362 Q 241.38201,153.77862 240.71701,152.72862 240.06951,151.66112 238.66951,151.66112 237.26951,151.66112 236.60451,152.72862 235.95701,153.77862 235.95701,155.70362 V 157.69862 Q 235.95701,159.62362 236.60451,160.69112 237.26951,161.74112 238.66951,161.74112 Z"
         id="path133" />
      <path
         d="M 246.96451,162.80862 H 245.49451 V 150.59362 H 249.93951 Q 251.61951,150.59362 252.51201,151.52112 253.42201,152.44862 253.42201,154.11112 253.42201,155.59862 252.63451,156.49112 251.86451,157.38362 250.41201,157.52362 L 253.52701,162.80862 H 251.88201 L 248.90701,157.59362 H 246.96451 Z M 249.90451,156.35112 Q 250.83201,156.35112 251.33951,155.89612 251.86451,155.42362 251.86451,154.56612 V 153.65612 Q 251.86451,152.79862 251.33951,152.34362 250.83201,151.87112 249.90451,151.87112 H 246.96451 V 156.35112 Z"
         id="path135" />
      <path
         d="M 259.63453,163.01862 Q 258.07703,163.01862 257.00953,162.45862 255.94203,161.88112 255.20703,160.86612 L 256.27453,159.99112 Q 256.99203,160.90112 257.79703,161.33862 258.60203,161.75862 259.68703,161.75862 260.99953,161.75862 261.69953,161.14612 262.41703,160.53362 262.41703,159.43112 262.41703,158.52112 261.89203,158.03112 261.36703,157.54112 260.14203,157.33112 L 258.77703,157.10362 Q 257.09703,156.82362 256.36203,155.94862 255.62703,155.05612 255.62703,153.77862 255.62703,152.13362 256.71203,151.25862 257.79703,150.38362 259.70453,150.38362 262.48703,150.38362 263.79953,152.25612 L 262.76703,153.14862 Q 262.20703,152.41362 261.47203,152.02862 260.75453,151.64362 259.68703,151.64362 258.44453,151.64362 257.77953,152.18612 257.11453,152.71112 257.11453,153.74362 257.11453,154.60112 257.62203,155.10862 258.14703,155.61612 259.40703,155.82612 L 260.71953,156.05362 Q 263.90453,156.61362 263.90453,159.39612 263.90453,161.09362 262.78453,162.05612 261.66453,163.01862 259.63453,163.01862 Z"
         id="path137" />
      <path
         d="M 270.90453,151.87112 V 162.80862 H 269.43453 V 151.87112 H 265.35703 V 150.59362 H 274.98203 V 151.87112 Z"
         id="path139" />
      <path
         d="M 278.28954,150.59362 V 157.92612 Q 278.28954,159.34362 278.41204,160.11362 278.55204,160.86612 279.05954,161.30362 279.56704,161.74112 280.66954,161.74112 281.77204,161.74112 282.27954,161.30362 282.78704,160.86612 282.90954,160.11362 283.04954,159.34362 283.04954,157.92612 V 150.59362 H 284.51954 V 157.57612 Q 284.51954,159.55362 284.22204,160.70862 283.94204,161.84612 283.11954,162.44112 282.29704,163.01862 280.66954,163.01862 279.04204,163.01862 278.21954,162.44112 277.39704,161.84612 277.09954,160.70862 276.81954,159.55362 276.81954,157.57612 V 150.59362 Z"
         id="path141" />
      <path
         d="M 290.17204,162.80862 286.54954,150.59362 H 288.10704 L 291.15204,161.32112 H 291.23954 L 294.28454,150.59362 H 295.78954 L 292.16704,162.80862 Z"
         id="path143" />
      <path
         d="M 297.99456,162.80862 297.03206,150.59362 H 298.34456 L 298.85206,157.59362 299.11456,161.28612 H 299.25456 L 300.86456,153.77862 H 302.50956 L 304.11956,161.28612 H 304.25956 L 304.52206,157.59362 305.02956,150.59362 H 306.30706 L 305.34456,162.80862 H 303.22706 L 301.73956,155.51112 H 301.59956 L 300.11206,162.80862 Z"
         id="path145" />
      <path
         d="M 316.98206,162.80862 H 315.31956 L 313.86706,160.37612 312.25706,157.71612 H 312.18706 L 310.52456,160.37612 308.98456,162.80862 H 307.37456 L 311.36456,156.57862 307.60206,150.59362 H 309.26456 L 310.68206,152.95612 312.20456,155.42362 H 312.27456 L 313.77956,152.95612 315.24956,150.59362 H 316.85956 L 313.07956,156.56112 Z"
         id="path147" />
      <path
         d="M 321.93456,162.80862 V 158.01362 L 317.71706,150.59362 H 319.39706 L 321.14706,153.77862 322.63456,156.56112 H 322.70456 L 325.97706,150.59362 H 327.62206 L 323.40456,158.01362 V 162.80862 Z"
         id="path149" />
      <path
         d="M 337.57956,162.80862 H 328.75956 V 161.49612 L 335.67206,151.87112 H 329.05706 V 150.59362 H 337.28206 V 151.90612 L 330.35206,161.53112 H 337.57956 Z"
         id="path151" />
      <path
         d="M 70.669403,184.89362 Q 69.409403,184.89362 68.481903,184.31612 67.571903,183.73862 67.064403,182.67112 66.574403,181.60362 66.574403,180.16862 66.574403,178.73362 67.064403,177.66612 67.571903,176.59862 68.481903,176.02112 69.409403,175.44362 70.669403,175.44362 71.929403,175.44362 72.839403,176.02112 73.766903,176.59862 74.256903,177.66612 74.764403,178.73362 74.764403,180.16862 74.764403,181.60362 74.256903,182.67112 73.766903,183.73862 72.839403,184.31612 71.929403,184.89362 70.669403,184.89362 Z M 70.669403,183.68612 Q 71.876903,183.68612 72.576903,182.96862 73.276903,182.23362 73.276903,180.81612 V 179.52112 Q 73.276903,178.10362 72.576903,177.38612 71.876903,176.65112 70.669403,176.65112 69.461903,176.65112 68.761903,177.38612 68.061903,178.10362 68.061903,179.52112 V 180.81612 Q 68.061903,182.23362 68.761903,182.96862 69.461903,183.68612 70.669403,183.68612 Z"
         id="path153" />
      <path
         d="M 81.16941,184.89362 Q 76.89941,184.89362 76.89941,178.57612 76.89941,172.25862 81.16941,172.25862 85.43941,172.25862 85.43941,178.57612 85.43941,184.89362 81.16941,184.89362 Z M 81.16941,183.61612 Q 82.56941,183.61612 83.21691,182.56612 83.88191,181.49862 83.88191,179.57362 V 177.57862 Q 83.88191,175.65362 83.21691,174.60362 82.56941,173.53612 81.16941,173.53612 79.76941,173.53612 79.10441,174.60362 78.45691,175.65362 78.45691,177.57862 V 179.57362 Q 78.45691,181.49862 79.10441,182.56612 79.76941,183.61612 81.16941,183.61612 Z"
         id="path155" />
      <path
         d="M 91.669416,184.89362 Q 87.399416,184.89362 87.399416,178.57612 87.399416,172.25862 91.669416,172.25862 95.939416,172.25862 95.939416,178.57612 95.939416,184.89362 91.669416,184.89362 Z M 91.669416,183.61612 Q 93.086916,183.61612 93.751916,182.56612 94.416916,181.49862 94.416916,179.57362 V 177.57862 Q 94.416916,175.65362 93.751916,174.60362 93.086916,173.53612 91.669416,173.53612 90.251916,173.53612 89.586916,174.60362 88.921916,175.65362 88.921916,177.57862 V 179.57362 Q 88.921916,181.49862 89.586916,182.56612 90.251916,183.61612 91.669416,183.61612 Z M 91.669416,179.60862 Q 90.584416,179.60862 90.584416,178.76862 V 178.38362 Q 90.584416,177.54362 91.669416,177.54362 92.754416,177.54362 92.754416,178.38362 V 178.76862 Q 92.754416,179.60862 91.669416,179.60862 Z"
         id="path157" />
      <path
         d="M 102.16942,184.89362 Q 100.78692,184.89362 99.824422,184.43862 98.861922,183.98362 98.371922,183.17862 97.881922,182.37362 97.881922,181.35862 97.881922,180.15112 98.529422,179.39862 99.194422,178.64612 100.36692,178.33112 V 178.19112 Q 99.386922,177.85862 98.809422,177.10612 98.249422,176.35362 98.249422,175.32112 98.249422,173.92112 99.281922,173.09862 100.33192,172.25862 102.16942,172.25862 104.00692,172.25862 105.03942,173.09862 106.08942,173.92112 106.08942,175.32112 106.08942,176.35362 105.51192,177.10612 104.95192,177.85862 103.97192,178.19112 V 178.33112 Q 105.14442,178.64612 105.79192,179.39862 106.45692,180.15112 106.45692,181.35862 106.45692,182.37362 105.96692,183.17862 105.47692,183.98362 104.51442,184.43862 103.55192,184.89362 102.16942,184.89362 Z M 102.16942,177.66612 Q 103.34192,177.66612 103.97192,177.15862 104.60192,176.65112 104.60192,175.70612 V 175.46112 Q 104.60192,174.53362 103.95442,174.02612 103.32442,173.50112 102.16942,173.50112 101.01442,173.50112 100.36692,174.02612 99.736922,174.53362 99.736922,175.46112 V 175.70612 Q 99.736922,176.65112 100.36692,177.15862 100.99692,177.66612 102.16942,177.66612 Z M 102.16942,183.65112 Q 103.46442,183.65112 104.19942,183.07362 104.93442,182.47862 104.93442,181.44612 V 181.06112 Q 104.93442,180.01112 104.19942,179.43362 103.48192,178.85612 102.16942,178.85612 100.85692,178.85612 100.12192,179.43362 99.404422,180.01112 99.404422,181.06112 V 181.44612 Q 99.404422,182.47862 100.13942,183.07362 100.87442,183.65112 102.16942,183.65112 Z"
         id="path159" />
      <path
         d="M 124.30694,171.73362 V 173.58862 H 122.45194 V 171.73362 Z M 119.49444,183.45862 H 122.80194 V 176.89612 H 119.49444 V 175.65362 H 124.20194 V 183.45862 H 127.22944 V 184.68362 H 119.49444 Z"
         id="path161" />
      <path
         d="M 129.88944,184.68362 V 183.51112 H 132.93444 V 173.64112 H 129.88944 V 172.46862 H 137.44944 V 173.64112 H 134.40444 V 183.51112 H 137.44944 V 184.68362 Z"
         id="path163" />
      <path
         d="M 140.31945,183.49362 H 143.46945 V 172.92362 H 140.31945 V 171.73362 H 144.86945 V 183.49362 H 148.01945 V 184.68362 H 140.31945 Z"
         id="path165" />
      <path
         d="M 151.51946,184.68362 V 172.46862 H 152.98946 V 183.40612 H 158.78196 V 184.68362 Z"
         id="path167" />
      <path
         d="M 161.40696,184.68362 V 183.40612 H 164.90696 V 173.55362 H 164.78446 L 161.70446,176.42362 160.84696,175.49612 164.08446,172.46862 H 166.37696 V 183.40612 H 169.59696 V 184.68362 Z"
         id="path169" />
      <path
         d="M 186.50198,187.09862 Q 185.80198,187.09862 185.41698,186.69612 185.03198,186.29362 185.03198,185.66362 V 184.56112 Q 185.03198,183.98362 185.17198,183.56362 185.31198,183.12612 185.46948,182.89862 185.64448,182.65362 186.01198,182.19862 186.30948,181.84862 186.41448,181.60362 186.53698,181.34112 186.53698,181.06112 186.53698,179.78362 184.12198,179.78362 H 182.75698 V 178.69862 H 184.12198 Q 186.53698,178.69862 186.53698,177.42112 186.53698,177.14112 186.41448,176.89612 186.30948,176.63362 186.01198,176.28362 185.95948,176.21362 185.66198,175.86362 185.36448,175.49612 185.18948,175.00612 185.03198,174.49862 185.03198,173.92112 V 172.81862 Q 185.03198,172.18862 185.41698,171.78612 185.80198,171.38362 186.50198,171.38362 H 189.58198 V 172.46862 H 186.23948 V 173.81612 Q 186.23948,174.46362 186.39698,174.83112 186.57198,175.18112 186.93948,175.67112 187.35948,176.23112 187.55198,176.59862 187.76198,176.94862 187.76198,177.43862 187.76198,178.15612 187.23698,178.62862 186.72948,179.08362 185.83698,179.20612 V 179.27612 Q 186.72948,179.39862 187.23698,179.87112 187.76198,180.32612 187.76198,181.04362 187.76198,181.53362 187.55198,181.90112 187.35948,182.25112 186.93948,182.81112 186.57198,183.30112 186.39698,183.66862 186.23948,184.01862 186.23948,184.66612 V 186.01362 H 189.58198 V 187.09862 Z"
         id="path171" />
      <path
         d="M 196.33698,171.38362 Q 197.03698,171.38362 197.42198,171.78612 197.80698,172.18862 197.80698,172.81862 V 173.92112 Q 197.80698,174.49862 197.66698,174.93612 197.52698,175.35612 197.35198,175.60112 197.19448,175.82862 196.82698,176.28362 196.52948,176.63362 196.40698,176.89612 196.30198,177.14112 196.30198,177.42112 196.30198,178.69862 198.71698,178.69862 H 200.08198 V 179.78362 H 198.71698 Q 196.30198,179.78362 196.30198,181.06112 196.30198,181.34112 196.40698,181.60362 196.52948,181.84862 196.82698,182.19862 196.87948,182.26862 197.17698,182.63612 197.47448,182.98612 197.63198,183.49362 197.80698,183.98362 197.80698,184.56112 V 185.66362 Q 197.80698,186.29362 197.42198,186.69612 197.03698,187.09862 196.33698,187.09862 H 193.25698 V 186.01362 H 196.59948 V 184.66612 Q 196.59948,184.01862 196.42448,183.66862 196.26698,183.30112 195.89948,182.81112 195.47948,182.25112 195.26948,181.90112 195.07698,181.53362 195.07698,181.04362 195.07698,180.32612 195.58448,179.87112 196.10948,179.39862 197.00198,179.27612 V 179.20612 Q 196.10948,179.08362 195.58448,178.62862 195.07698,178.15612 195.07698,177.43862 195.07698,176.94862 195.26948,176.59862 195.47948,176.23112 195.89948,175.67112 196.26698,175.18112 196.42448,174.83112 196.59948,174.46362 196.59948,173.81612 V 172.46862 H 193.25698 V 171.38362 Z"
         id="path173" />
      <path
         d="M 216.35699,187.09862 V 171.38362 H 221.25699 V 172.46862 H 217.56449 V 186.01362 H 221.25699 V 187.09862 Z"
         id="path175" />
      <path
         d="M 229.48201,171.38362 V 187.09862 H 224.58201 V 186.01362 H 228.27451 V 172.46862 H 224.58201 V 171.38362 Z"
         id="path177" />
      <path
         d="M 252.75701,184.38612 Q 252.75701,186.25862 251.70701,187.32612 250.65701,188.39362 248.78451,188.39362 246.75451,188.39362 245.54701,187.15112 L 246.36951,186.18862 Q 247.31451,187.16862 248.80201,187.16862 251.35701,187.16862 251.35701,184.47362 V 182.96862 H 251.28701 Q 250.41201,184.64862 248.50451,184.64862 246.85951,184.64862 245.91451,183.42362 244.96951,182.18112 244.96951,180.04612 244.96951,177.91112 245.91451,176.68612 246.85951,175.44362 248.50451,175.44362 250.41201,175.44362 251.28701,177.12362 H 251.35701 V 175.65362 H 252.75701 Z M 249.04701,183.40612 Q 250.02701,183.40612 250.69201,182.91612 251.35701,182.42612 251.35701,181.55112 V 178.54112 Q 251.35701,177.66612 250.69201,177.17612 250.02701,176.68612 249.04701,176.68612 247.83951,176.68612 247.15701,177.42112 246.47451,178.15612 246.47451,179.39862 V 180.69362 Q 246.47451,181.93612 247.15701,182.67112 247.83951,183.40612 249.04701,183.40612 Z"
         id="path179" />
      <path
         d="M 263.79953,176.94862 Q 263.79953,178.64612 263.13453,180.16862 262.48703,181.69112 261.47203,182.84612 260.45703,183.98362 259.37203,184.68362 H 257.48203 Q 259.59953,183.16112 260.70203,181.77862 261.80453,180.37862 262.29453,178.34862 L 262.20703,178.31362 Q 261.71703,179.13612 260.98203,179.60862 260.26453,180.06362 259.19703,180.06362 258.12953,180.06362 257.28953,179.60862 256.46703,179.13612 255.99453,178.29612 255.53953,177.43862 255.53953,176.30112 255.53953,175.11112 256.04703,174.20112 256.55453,173.27362 257.48203,172.76612 258.42703,172.25862 259.65203,172.25862 261.57703,172.25862 262.67953,173.51862 263.79953,174.76112 263.79953,176.94862 Z M 259.66953,178.85612 Q 260.91203,178.85612 261.61203,178.17362 262.31203,177.47362 262.31203,176.24862 V 176.10862 Q 262.31203,174.88362 261.61203,174.20112 260.91203,173.50112 259.66953,173.50112 258.42703,173.50112 257.72703,174.20112 257.02703,174.88362 257.02703,176.10862 V 176.24862 Q 257.02703,177.47362 257.72703,178.17362 258.42703,178.85612 259.66953,178.85612 Z"
         id="path181" />
      <path
         d="M 272.35703,183.21362 H 272.28703 Q 271.41203,184.89362 269.50453,184.89362 267.84203,184.89362 266.89703,183.65112 265.96953,182.39112 265.96953,180.16862 265.96953,177.94612 266.89703,176.70362 267.84203,175.44362 269.50453,175.44362 271.41203,175.44362 272.28703,177.12362 H 272.35703 V 175.65362 H 273.75703 V 188.18362 H 272.35703 Z M 270.04703,183.65112 Q 271.02703,183.65112 271.69203,183.16112 272.35703,182.67112 272.35703,181.79612 V 178.54112 Q 272.35703,177.66612 271.69203,177.17612 271.02703,176.68612 270.04703,176.68612 268.83953,176.68612 268.15703,177.42112 267.47453,178.15612 267.47453,179.39862 V 180.93862 Q 267.47453,182.18112 268.15703,182.91612 268.83953,183.65112 270.04703,183.65112 Z"
         id="path183" />
      <path
         d="M 281.07204,184.89362 Q 278.86704,184.89362 277.74704,183.28362 276.64454,181.65612 276.64454,178.57612 276.64454,175.49612 277.74704,173.88612 278.86704,172.25862 281.07204,172.25862 282.59454,172.25862 283.43454,172.99362 284.29204,173.71112 284.83454,174.93612 L 283.57454,175.51362 Q 283.18954,174.55112 282.62954,174.04362 282.08704,173.53612 281.07204,173.53612 279.65454,173.53612 278.91954,174.62112 278.20204,175.68862 278.20204,177.57862 V 179.57362 Q 278.20204,181.46362 278.91954,182.54862 279.65454,183.61612 281.07204,183.61612 282.08704,183.61612 282.62954,183.10862 283.18954,182.60112 283.57454,181.63862 L 284.83454,182.21612 Q 284.29204,183.44112 283.43454,184.17612 282.59454,184.89362 281.07204,184.89362 Z"
         id="path185" />
      <path
         d="M 293.68954,183.05612 H 293.60204 Q 293.25204,183.89612 292.62204,184.40362 291.99204,184.89362 290.83704,184.89362 288.87704,184.89362 287.87954,183.30112 286.89954,181.69112 286.89954,178.66362 286.89954,175.51362 287.98454,173.88612 289.06954,172.25862 291.25704,172.25862 292.81454,172.25862 293.68954,173.01112 294.58204,173.74612 295.05454,174.93612 L 293.79454,175.51362 Q 293.40954,174.55112 292.86704,174.04362 292.32454,173.53612 291.30954,173.53612 289.87454,173.53612 289.15704,174.60362 288.45704,175.67112 288.45704,177.57862 V 179.46862 Q 288.45704,181.42862 289.10454,182.54862 289.75204,183.65112 291.16954,183.65112 292.32454,183.65112 293.00704,182.95112 293.68954,182.23362 293.68954,181.07862 V 179.81862 H 291.11704 V 178.64612 H 295.05454 V 184.68362 H 293.68954 Z"
         id="path187" />
      <path
         d="M 305.69456,185.34862 304.27706,184.00112 Q 303.24456,184.89362 301.66956,184.89362 297.39956,184.89362 297.39956,178.57612 297.39956,172.25862 301.66956,172.25862 305.93956,172.25862 305.93956,178.57612 305.93956,181.41112 305.06456,182.98612 L 307.56706,185.34862 Z M 301.66956,183.61612 Q 302.64956,183.61612 303.29706,183.07362 L 300.88206,180.78112 H 302.75456 L 304.01456,181.97112 Q 304.38206,180.99112 304.38206,179.57362 V 177.57862 Q 304.38206,175.65362 303.71706,174.60362 303.06956,173.53612 301.66956,173.53612 300.26956,173.53612 299.60456,174.60362 298.95706,175.65362 298.95706,177.57862 V 179.57362 Q 298.95706,181.49862 299.60456,182.56612 300.26956,183.61612 301.66956,183.61612 Z"
         id="path189" />
      <path
         d="M 324.55956,180.53612 Q 324.06956,180.53612 323.59706,180.39612 323.12456,180.23862 322.58206,179.97612 322.47706,179.92362 322.07456,179.73112 321.68956,179.53862 321.35706,179.43362 321.02456,179.32862 320.76206,179.32862 320.28956,179.32862 319.95706,179.64362 319.64206,179.95862 319.39706,180.53612 L 318.32956,180.09862 Q 318.57456,179.22362 319.20456,178.69862 319.85206,178.15612 320.77956,178.15612 321.26956,178.15612 321.74206,178.31362 322.21456,178.45362 322.75706,178.71612 322.86206,178.76862 323.24706,178.96112 323.64956,179.15362 323.98206,179.25862 324.31456,179.36362 324.57706,179.36362 325.04956,179.36362 325.36456,179.04862 325.69706,178.73362 325.94206,178.15612 L 327.00956,178.59362 Q 326.76456,179.46862 326.11706,180.01112 325.48706,180.53612 324.55956,180.53612 Z"
         id="path191" />
      <path
         d="M 330.63206,180.09862 V 178.62862 H 335.70706 V 180.09862 Z"
         id="path193" />
      <path
         d="M 343.00459,183.59862 V 179.94112 H 339.50459 V 178.75112 H 343.00459 V 175.09362 H 344.33459 V 178.75112 H 347.83459 V 179.94112 H 344.33459 V 183.59862 Z"
         id="path195" />
      <path
         d="M 350.00459,178.17362 V 176.98362 H 358.33459 V 178.17362 Z M 350.00459,181.67362 V 180.48362 H 358.33459 V 181.67362 Z"
         id="path197" />
      <path
         d="M 360.90709,182.95112 367.11959,179.43362 V 179.29362 L 360.90709,175.77612 V 174.28862 L 368.43209,178.64612 V 180.04612 L 360.90709,184.40362 Z"
         id="path199" />
    </g>
  </g>
</svg>
