<?xml version="1.0" encoding="UTF-8" standalone="no"?>
<!-- Created with Inkscape (http://www.inkscape.org/) -->

<svg
   xmlns:dc="http://purl.org/dc/elements/1.1/"
   xmlns:cc="http://creativecommons.org/ns#"
   xmlns:rdf="http://www.w3.org/1999/02/22-rdf-syntax-ns#"
   xmlns:svg="http://www.w3.org/2000/svg"
   xmlns="http://www.w3.org/2000/svg"
   xmlns:sodipodi="http://sodipodi.sourceforge.net/DTD/sodipodi-0.dtd"
   xmlns:inkscape="http://www.inkscape.org/namespaces/inkscape"
   width="88.189507mm"
   height="29.646736mm"
   viewBox="0 0 312.4825 105.04749"
   id="svg2"
   version="1.1"
   inkscape:version="0.91 r13725"
   sodipodi:docname="InconsolataGo Nerd Font.svg">
  <defs
     id="defs4" />
  <sodipodi:namedview
     id="base"
     pagecolor="#ffffff"
     bordercolor="#666666"
     borderopacity="1.0"
     inkscape:pageopacity="0.0"
     inkscape:pageshadow="2"
     inkscape:zoom="0.7"
     inkscape:cx="-55.084647"
     inkscape:cy="-401.81144"
     inkscape:document-units="px"
     inkscape:current-layer="layer1"
     showgrid="false"
     inkscape:window-width="1861"
     inkscape:window-height="1056"
     inkscape:window-x="59"
     inkscape:window-y="24"
     inkscape:window-maximized="1" />
  <metadata
     id="metadata7">
    <rdf:RDF>
      <cc:Work
         rdf:about="">
        <dc:format>image/svg+xml</dc:format>
        <dc:type
           rdf:resource="http://purl.org/dc/dcmitype/StillImage" />
        <dc:title />
      </cc:Work>
    </rdf:RDF>
  </metadata>
  <g
     inkscape:label="Layer 1"
     inkscape:groupmode="layer"
     id="layer1"
     transform="translate(-65.084643,-82.646132)">
    <g
       style="font-style:normal;font-weight:normal;font-size:27.5px;line-height:125%;font-family:'InconsolataGo Nerd Font';text-decoration: underline;text-decoration-line: underline;letter-spacing:0px;word-spacing:0px;fill:#ffffff;fill-opacity:1;stroke:none;stroke-width:1px;stroke-linecap:butt;stroke-linejoin:miter;stroke-opacity:1"
       id="text4136">
      <path
         d="m 65.277143,83.801132 8.4975,0 0,1.6225 -3.3825,0 0,13.9425 3.5475,0 0,1.594998 -8.855,0 0,-1.622498 3.3825,0 0,-13.915 -3.19,0 0,-1.6225 z"
         id="path4140"
         inkscape:connector-curvature="0" />
      <path
         d="m 78.477143,100.93363 0,-12.567498 2.035,0 0,2.2275 q 0.715,-1.155 1.815,-1.8425 1.1275,-0.6875 2.2825,-0.6875 0.825,0 1.54,0.3025 0.715,0.275 1.2375,0.9075 0.5225,0.6325 0.7975,1.6225 0.3025,0.99 0.3025,2.42 l 0,7.617498 -1.9525,0 0,-7.562498 q 0,-1.98 -0.6875,-2.7775 -0.66,-0.7975 -1.6225,-0.7975 -0.6325,0 -1.2925,0.275 -0.66,0.275 -1.21,0.7975 -0.5225,0.495 -0.88,1.21 -0.33,0.715 -0.33,1.6225 l 0,7.232498 -2.035,0 z"
         id="path4142"
         inkscape:connector-curvature="0" />
      <path
         d="m 102.92464,90.456132 -1.4025,1.6225 q -0.1375,-0.0825 -0.1375,-0.165 0.0275,-0.11 -0.0275,-0.275 -0.0275,-0.165 -0.1925,-0.4125 -0.165,-0.2475 -0.66,-0.66 -0.934997,-0.77 -2.557497,-0.77 -0.7975,0 -1.54,0.33 -0.715,0.33 -1.265,0.9625 -0.55,0.605 -0.88,1.485 -0.33,0.8525 -0.33,1.925 0,1.0725 0.33,1.98 0.33,0.9075 0.9075,1.5675 0.5775,0.66 1.375,1.045 0.7975,0.3575 1.76,0.3575 1.897497,0 3.272497,-1.54 l 1.155,1.3475 q -1.87,1.979998 -4.592497,1.979998 -1.3475,0 -2.5025,-0.495 -1.1275,-0.495 -1.98,-1.374998 -0.825,-0.88 -1.2925,-2.0625 -0.4675,-1.21 -0.4675,-2.64 0,-1.4025 0.4675,-2.6125 0.4675,-1.21 1.2925,-2.0625 0.8525,-0.88 2.0075,-1.375 1.1825,-0.495 2.5575,-0.495 1.485,0 2.694997,0.6325 1.2375,0.605 2.0075,1.705 z"
         id="path4144"
         inkscape:connector-curvature="0" />
      <path
         d="m 111.09214,88.091132 q 1.155,0 2.1725,0.4675 1.045,0.44 1.815,1.2925 0.77,0.8525 1.21,2.09 0.4675,1.21 0.4675,2.7225 0,1.54 -0.44,2.75 -0.44,1.21 -1.21,2.09 -0.77,0.852498 -1.815,1.319998 -1.045,0.44 -2.2275,0.44 -1.21,0 -2.2825,-0.495 -1.045,-0.495 -1.8425,-1.347498 -0.7975,-0.88 -1.265,-2.09 -0.4675,-1.21 -0.4675,-2.6125 0,-1.4025 0.4675,-2.64 0.495,-1.2375 1.2925,-2.09 0.825,-0.88 1.8975,-1.375 1.0725,-0.5225 2.2275,-0.5225 z m 3.685,6.6275 q 0,-1.1825 -0.33,-2.09 -0.3025,-0.935 -0.825,-1.5675 -0.5225,-0.6325 -1.21,-0.9625 -0.66,-0.33 -1.4025,-0.33 -0.7425,0 -1.43,0.33 -0.66,0.33 -1.1825,0.9625 -0.495,0.6325 -0.7975,1.54 -0.3025,0.88 -0.3025,2.0075 0,1.1 0.3025,2.0075 0.3025,0.9075 0.7975,1.5675 0.5225,0.66 1.21,1.0175 0.6875,0.3575 1.4575,0.3575 0.77,0 1.43,-0.3025 0.6875,-0.33 1.1825,-0.935 0.5225,-0.6325 0.7975,-1.54 0.3025,-0.9075 0.3025,-2.0625 z"
         id="path4146"
         inkscape:connector-curvature="0" />
      <path
         d="m 119.72714,100.93363 0,-12.567498 2.035,0 0,2.2275 q 0.715,-1.155 1.815,-1.8425 1.1275,-0.6875 2.2825,-0.6875 0.825,0 1.54,0.3025 0.715,0.275 1.2375,0.9075 0.5225,0.6325 0.7975,1.6225 0.3025,0.99 0.3025,2.42 l 0,7.617498 -1.9525,0 0,-7.562498 q 0,-1.98 -0.6875,-2.7775 -0.66,-0.7975 -1.6225,-0.7975 -0.6325,0 -1.2925,0.275 -0.66,0.275 -1.21,0.7975 -0.5225,0.495 -0.88,1.21 -0.33,0.715 -0.33,1.6225 l 0,7.232498 -2.035,0 z"
         id="path4148"
         inkscape:connector-curvature="0" />
      <path
         d="m 143.48714,90.043632 -1.155,1.7325 q -0.1375,-0.0275 -0.1375,-0.22 0,-0.1925 -0.055,-0.275 -0.495,-0.6325 -1.4025,-1.155 -0.9075,-0.55 -2.0625,-0.55 -0.5225,0 -1.0175,0.1375 -0.4675,0.11 -0.8525,0.33 -0.3575,0.22 -0.5775,0.5775 -0.22,0.33 -0.22,0.77 0,0.33 0.165,0.605 0.165,0.2475 0.5225,0.495 0.3575,0.2475 0.99,0.495 0.66,0.2475 1.705,0.55 2.365,0.6325 3.3275,1.5125 0.99,0.8525 0.99,2.1175 0,0.825 -0.3575,1.5675 -0.3575,0.7425 -1.045,1.292498 -0.6875,0.55 -1.65,0.88 -0.9625,0.3025 -2.1725,0.3025 -3.1625,0 -5.3075,-1.979998 l 1.1275,-1.98 q 0.0825,0.0825 0.11,0.275 0.0275,0.165 0.1925,0.4125 0.165,0.2475 0.605,0.5775 0.44,0.3025 1.3475,0.6875 0.4125,0.1925 0.935,0.275 0.5225,0.0825 1.045,0.0825 0.55,0 1.1,-0.1375 0.5775,-0.1375 1.0175,-0.385 0.4675,-0.275 0.7425,-0.6325 0.275,-0.385 0.275,-0.8525 0,-0.715 -0.66,-1.21 -0.66,-0.495 -2.42,-1.0175 -1.21,-0.3575 -1.595,-0.495 -0.99,-0.385 -1.43,-0.66 -0.44,-0.3025 -0.7975,-0.6875 -0.3575,-0.4125 -0.5775,-0.9075 -0.22,-0.5225 -0.22,-1.1275 0,-0.66 0.3575,-1.265 0.3575,-0.605 0.99,-1.0725 0.66,-0.4675 1.54,-0.7425 0.9075,-0.3025 1.9525,-0.3025 2.8875,0 4.675,1.98 z"
         id="path4150"
         inkscape:connector-curvature="0" />
      <path
         d="m 152.34214,88.091132 q 1.155,0 2.1725,0.4675 1.045,0.44 1.815,1.2925 0.77,0.8525 1.21,2.09 0.4675,1.21 0.4675,2.7225 0,1.54 -0.44,2.75 -0.44,1.21 -1.21,2.09 -0.77,0.852498 -1.815,1.319998 -1.045,0.44 -2.2275,0.44 -1.21,0 -2.2825,-0.495 -1.045,-0.495 -1.8425,-1.347498 -0.7975,-0.88 -1.265,-2.09 -0.4675,-1.21 -0.4675,-2.6125 0,-1.4025 0.4675,-2.64 0.495,-1.2375 1.2925,-2.09 0.825,-0.88 1.8975,-1.375 1.0725,-0.5225 2.2275,-0.5225 z m 3.685,6.6275 q 0,-1.1825 -0.33,-2.09 -0.3025,-0.935 -0.825,-1.5675 -0.5225,-0.6325 -1.21,-0.9625 -0.66,-0.33 -1.4025,-0.33 -0.7425,0 -1.43,0.33 -0.66,0.33 -1.1825,0.9625 -0.495,0.6325 -0.7975,1.54 -0.3025,0.88 -0.3025,2.0075 0,1.1 0.3025,2.0075 0.3025,0.9075 0.7975,1.5675 0.5225,0.66 1.21,1.0175 0.6875,0.3575 1.4575,0.3575 0.77,0 1.43,-0.3025 0.6875,-0.33 1.1825,-0.935 0.5225,-0.6325 0.7975,-1.54 0.3025,-0.9075 0.3025,-2.0625 z"
         id="path4152"
         inkscape:connector-curvature="0" />
      <path
         d="m 161.44464,82.646132 5.555,0 0,16.6925 3.685,0 0,1.594998 -9.405,0 0,-1.594998 3.7125,0 0,-15.0975 -3.5475,0 0,-1.595 z"
         id="path4154"
         inkscape:connector-curvature="0" />
      <path
         d="m 175.35964,89.851132 q 1.6775,-1.76 4.4825,-1.76 2.31,0 3.63,1.1825 1.3475,1.155 1.3475,3.8775 l 0,7.782498 -1.87,0 0,-1.374998 q -2.0075,1.677498 -4.51,1.677498 -0.99,0 -1.7875,-0.3025 -0.77,-0.3025 -1.32,-0.7975 -0.55,-0.494998 -0.8525,-1.127498 -0.275,-0.6325 -0.275,-1.265 0,-1.8975 1.6225,-2.9975 1.65,-1.1 4.73,-1.21 l 2.365,0 0,-0.4675 q 0,-1.87 -0.7975,-2.6125 -0.77,-0.7425 -2.42,-0.7425 -2.035,0 -3.3825,1.4025 l -0.9625,-1.265 z m 7.645,5.1975 -0.4675,0 q -0.385,0 -0.7425,0 -0.33,-0.0275 -0.66,-0.0275 -1.5125,0 -2.475,0.22 -0.9625,0.1925 -1.5125,0.55 -0.55,0.3575 -0.77,0.825 -0.1925,0.44 -0.1925,0.9625 0,0.88 0.77,1.5125 0.77,0.6325 1.8975,0.6325 0.825,0 1.485,-0.2475 0.66,-0.275 1.155,-0.6325 0.495,-0.385 0.7975,-0.77 0.3025,-0.4125 0.44,-0.715 0.275,-0.55 0.275,-1.485 l 0,-0.825 z"
         id="path4156"
         inkscape:connector-curvature="0" />
      <path
         d="m 191.77714,85.011132 2.1725,-0.3575 q 0,0.2475 -0.0825,0.44 -0.055,0.1925 -0.0825,0.3025 l -0.33,2.97 4.125,0 0,1.6225 -4.125,0 q -0.2475,2.4475 -0.2475,4.5925 0,1.32 0.055,2.2275 0.055,0.9075 0.275,1.43 0.2475,0.5225 0.6875,0.825 0.44,0.275 1.1825,0.275 1.265,0 2.805,-1.1275 l 0.605,1.5675 q -1.8975,1.402498 -3.905,1.402498 -1.98,0 -2.8875,-1.182498 -0.9075,-1.21 -0.825,-3.905 0,-0.99 0.055,-2.53 0.055,-1.54 0.22,-3.575 l -2.9425,0 0,-1.6225 3.025,0 0.22,-3.355 z"
         id="path4158"
         inkscape:connector-curvature="0" />
      <path
         d="m 202.85964,89.851132 q 1.6775,-1.76 4.4825,-1.76 2.31,0 3.63,1.1825 1.3475,1.155 1.3475,3.8775 l 0,7.782498 -1.87,0 0,-1.374998 q -2.0075,1.677498 -4.51,1.677498 -0.99,0 -1.7875,-0.3025 -0.77,-0.3025 -1.32,-0.7975 -0.55,-0.494998 -0.8525,-1.127498 -0.275,-0.6325 -0.275,-1.265 0,-1.8975 1.6225,-2.9975 1.65,-1.1 4.73,-1.21 l 2.365,0 0,-0.4675 q 0,-1.87 -0.7975,-2.6125 -0.77,-0.7425 -2.42,-0.7425 -2.035,0 -3.3825,1.4025 l -0.9625,-1.265 z m 7.645,5.1975 -0.4675,0 q -0.385,0 -0.7425,0 -0.33,-0.0275 -0.66,-0.0275 -1.5125,0 -2.475,0.22 -0.9625,0.1925 -1.5125,0.55 -0.55,0.3575 -0.77,0.825 -0.1925,0.44 -0.1925,0.9625 0,0.88 0.77,1.5125 0.77,0.6325 1.8975,0.6325 0.825,0 1.485,-0.2475 0.66,-0.275 1.155,-0.6325 0.495,-0.385 0.7975,-0.77 0.3025,-0.4125 0.44,-0.715 0.275,-0.55 0.275,-1.485 l 0,-0.825 z"
         id="path4160"
         inkscape:connector-curvature="0" />
      <path
         d="m 226.70214,86.496132 -1.3475,1.375 q -0.165,-0.11 -0.3575,-0.5225 -0.4125,-0.9075 -1.2925,-1.4575 -0.8525,-0.5775 -2.0075,-0.5775 -0.7975,0 -1.65,0.33 -0.825,0.33 -1.5125,1.1275 -0.6875,0.7975 -1.1275,2.1175 -0.4125,1.2925 -0.4125,3.2725 0,1.7875 0.3575,3.1625 0.3575,1.375 0.99,2.31 0.6325,0.9075 1.485,1.4025 0.88,0.4675 1.8975,0.4675 1.7875,0 3.245,-1.045 l 0,-4.07 -3.1075,0 0,-1.6775 4.895,0 0,6.71 q -2.4475,1.787498 -5.0325,1.787498 -1.54,0 -2.7775,-0.605 -1.21,-0.632498 -2.09,-1.759998 -0.8525,-1.1275 -1.32,-2.7225 -0.44,-1.595 -0.44,-3.5475 0,-2.695 0.66,-4.51 0.6875,-1.815 1.76,-2.75 1.0725,-0.9625 2.1725,-1.32 1.1275,-0.3575 2.035,-0.3575 1.5675,0 2.915,0.7975 1.3475,0.77 2.0625,2.0625 z"
         id="path4162"
         inkscape:connector-curvature="0" />
      <path
         d="m 234.84214,88.091132 q 1.155,0 2.1725,0.4675 1.045,0.44 1.815,1.2925 0.77,0.8525 1.21,2.09 0.4675,1.21 0.4675,2.7225 0,1.54 -0.44,2.75 -0.44,1.21 -1.21,2.09 -0.77,0.852498 -1.815,1.319998 -1.045,0.44 -2.2275,0.44 -1.21,0 -2.2825,-0.495 -1.045,-0.495 -1.8425,-1.347498 -0.7975,-0.88 -1.265,-2.09 -0.4675,-1.21 -0.4675,-2.6125 0,-1.4025 0.4675,-2.64 0.495,-1.2375 1.2925,-2.09 0.825,-0.88 1.8975,-1.375 1.0725,-0.5225 2.2275,-0.5225 z m 3.685,6.6275 q 0,-1.1825 -0.33,-2.09 -0.3025,-0.935 -0.825,-1.5675 -0.5225,-0.6325 -1.21,-0.9625 -0.66,-0.33 -1.4025,-0.33 -0.7425,0 -1.43,0.33 -0.66,0.33 -1.1825,0.9625 -0.495,0.6325 -0.7975,1.54 -0.3025,0.88 -0.3025,2.0075 0,1.1 0.3025,2.0075 0.3025,0.9075 0.7975,1.5675 0.5225,0.66 1.21,1.0175 0.6875,0.3575 1.4575,0.3575 0.77,0 1.43,-0.3025 0.6875,-0.33 1.1825,-0.935 0.5225,-0.6325 0.7975,-1.54 0.3025,-0.9075 0.3025,-2.0625 z"
         id="path4164"
         inkscape:connector-curvature="0" />
      <path
         d="m 256.73214,100.93363 0,-17.132498 1.87,0 7.205,12.705 0,-12.7325 2.035,0 q 0,0.165 -0.11,0.3575 -0.0825,0.1925 -0.0825,0.385 l 0,16.417498 -1.5125,0 -7.5625,-13.474998 0,13.474998 -1.8425,0 z"
         id="path4166"
         inkscape:connector-curvature="0" />
      <path
         d="m 276.22964,88.063632 q 0.99,0 1.925,0.3575 0.935,0.3575 1.6225,1.1 0.715,0.715 1.1275,1.8425 0.44,1.1275 0.44,2.6675 0,0.22 -0.0275,0.4675 0,0.22 -0.0275,0.44 l -8.9375,0 q 0.055,1.32 0.44,2.2275 0.4125,0.88 1.0175,1.43 0.605,0.55 1.3475,0.7975 0.7425,0.22 1.485,0.22 1.9525,0 3.245,-1.4025 l 1.1,1.0725 q -1.595,1.924998 -4.4,1.924998 -1.375,0 -2.53,-0.4125 -1.1275,-0.44 -1.925,-1.264998 -0.7975,-0.825 -1.2375,-2.035 -0.44,-1.2375 -0.44,-2.805 0,-1.595 0.44,-2.8325 0.4675,-1.2375 1.2375,-2.0625 0.7975,-0.8525 1.8425,-1.2925 1.045,-0.44 2.255,-0.44 z m -3.795,5.335 6.9025,0 q 0,-0.11 0,-0.1925 0.0275,-0.11 0.0275,-0.2475 0,-0.6875 -0.275,-1.2925 -0.2475,-0.6325 -0.6875,-1.0725 -0.44,-0.4675 -1.045,-0.7425 -0.5775,-0.275 -1.265,-0.275 -1.2925,0 -2.3375,0.935 -1.045,0.9075 -1.32,2.8875 z"
         id="path4168"
         inkscape:connector-curvature="0" />
      <path
         d="m 285.57964,88.366132 2.0625,0 -0.055,2.42 q 0.5775,-1.32 1.815,-2.0075 1.265,-0.715 2.695,-0.715 2.035,0 3.355,1.375 l -0.9075,1.8975 q -0.3025,-0.4125 -0.55,-0.6875 -0.2475,-0.275 -0.55,-0.4675 -0.275,-0.1925 -0.6325,-0.3025 -0.33,-0.11 -0.825,-0.11 -0.9075,0 -1.705,0.44 -0.7975,0.4125 -1.4025,1.1275 -0.5775,0.6875 -0.935,1.595 -0.3575,0.9075 -0.3575,1.8975 l 0,6.132498 -2.0075,0 0,-12.594998 z"
         id="path4170"
         inkscape:connector-curvature="0" />
      <path
         d="m 306.80964,90.208632 0,-7.5625 2.1175,0 q 0,0.165 -0.1375,0.385 -0.1375,0.1925 -0.1375,0.385 l 0.0275,16.3625 q 0,0.659998 0.1375,1.154998 l -1.98,0 q -0.11,-0.33 -0.11,-0.934998 l 0,-1.0725 q -0.605,1.045 -1.65,1.677498 -1.045,0.605 -2.1175,0.605 -1.045,0 -1.98,-0.4125 -0.9075,-0.4125 -1.6225,-1.237498 -0.6875,-0.825 -1.1,-2.0625 -0.4125,-1.265 -0.4125,-2.97 0,-1.7325 0.4675,-2.9425 0.4675,-1.2375 1.21,-2.0075 0.77,-0.7975 1.705,-1.155 0.935,-0.385 1.8975,-0.385 1.32,0 2.255,0.605 0.9625,0.5775 1.43,1.5675 z m -5.8575,0.385 q -1.1825,1.0725 -1.1825,3.63 0,2.365 0.9075,3.8225 0.9075,1.43 2.6675,1.43 0.4125,0 0.88,-0.1375 0.4675,-0.165 0.88,-0.4675 0.4125,-0.3025 0.7425,-0.715 0.33,-0.4125 0.495,-0.935 0.3025,-0.99 0.3025,-2.64 0,-1.045 -0.0825,-1.7325 -0.0825,-0.715 -0.275,-1.21 -0.165,-0.495 -0.44,-0.7975 -0.275,-0.33 -0.6875,-0.5775 -0.495,-0.3025 -0.935,-0.44 -0.4125,-0.165 -0.7975,-0.165 -0.7975,0 -1.375,0.22 -0.55,0.22 -1.1,0.715 z"
         id="path4172"
         inkscape:connector-curvature="0" />
      <path
         d="m 326.25214,83.773632 9.8725,0 0,1.6775 -7.9475,0 0,5.39 6.4075,0 0,1.6775 -6.4075,0 0,8.414998 -1.925,0 0,-17.159998 z"
         id="path4174"
         inkscape:connector-curvature="0" />
      <path
         d="m 344.84214,88.091132 q 1.155,0 2.1725,0.4675 1.045,0.44 1.815,1.2925 0.77,0.8525 1.21,2.09 0.4675,1.21 0.4675,2.7225 0,1.54 -0.44,2.75 -0.44,1.21 -1.21,2.09 -0.77,0.852498 -1.815,1.319998 -1.045,0.44 -2.2275,0.44 -1.21,0 -2.2825,-0.495 -1.045,-0.495 -1.8425,-1.347498 -0.7975,-0.88 -1.265,-2.09 -0.4675,-1.21 -0.4675,-2.6125 0,-1.4025 0.4675,-2.64 0.495,-1.2375 1.2925,-2.09 0.825,-0.88 1.8975,-1.375 1.0725,-0.5225 2.2275,-0.5225 z m 3.685,6.6275 q 0,-1.1825 -0.33,-2.09 -0.3025,-0.935 -0.825,-1.5675 -0.5225,-0.6325 -1.21,-0.9625 -0.66,-0.33 -1.4025,-0.33 -0.7425,0 -1.43,0.33 -0.66,0.33 -1.1825,0.9625 -0.495,0.6325 -0.7975,1.54 -0.3025,0.88 -0.3025,2.0075 0,1.1 0.3025,2.0075 0.3025,0.9075 0.7975,1.5675 0.5225,0.66 1.21,1.0175 0.6875,0.3575 1.4575,0.3575 0.77,0 1.43,-0.3025 0.6875,-0.33 1.1825,-0.935 0.5225,-0.6325 0.7975,-1.54 0.3025,-0.9075 0.3025,-2.0625 z"
         id="path4176"
         inkscape:connector-curvature="0" />
      <path
         d="m 353.47714,100.93363 0,-12.567498 2.035,0 0,2.2275 q 0.715,-1.155 1.815,-1.8425 1.1275,-0.6875 2.2825,-0.6875 0.825,0 1.54,0.3025 0.715,0.275 1.2375,0.9075 0.5225,0.6325 0.7975,1.6225 0.3025,0.99 0.3025,2.42 l 0,7.617498 -1.9525,0 0,-7.562498 q 0,-1.98 -0.6875,-2.7775 -0.66,-0.7975 -1.6225,-0.7975 -0.6325,0 -1.2925,0.275 -0.66,0.275 -1.21,0.7975 -0.5225,0.495 -0.88,1.21 -0.33,0.715 -0.33,1.6225 l 0,7.232498 -2.035,0 z"
         id="path4178"
         inkscape:connector-curvature="0" />
      <path
         d="m 370.52714,85.011132 2.1725,-0.3575 q 0,0.2475 -0.0825,0.44 -0.055,0.1925 -0.0825,0.3025 l -0.33,2.97 4.125,0 0,1.6225 -4.125,0 q -0.2475,2.4475 -0.2475,4.5925 0,1.32 0.055,2.2275 0.055,0.9075 0.275,1.43 0.2475,0.5225 0.6875,0.825 0.44,0.275 1.1825,0.275 1.265,0 2.805,-1.1275 l 0.605,1.5675 q -1.8975,1.402498 -3.905,1.402498 -1.98,0 -2.8875,-1.182498 -0.9075,-1.21 -0.825,-3.905 0,-0.99 0.055,-2.53 0.055,-1.54 0.22,-3.575 l -2.9425,0 0,-1.6225 3.025,0 0.22,-3.355 z"
         id="path4180"
         inkscape:connector-curvature="0" />
    </g>
    <g
       style="font-style:normal;font-weight:normal;font-size:27.5px;line-height:125%;font-family:'InconsolataGo Nerd Font';letter-spacing:0px;word-spacing:0px;fill:#ffffff;fill-opacity:1;stroke:none;stroke-width:1px;stroke-linecap:butt;stroke-linejoin:miter;stroke-opacity:1"
       id="text4140">
      <path
         d="m 67.011903,133.88112 q 1.0675,-1.12 2.8525,-1.12 1.47,0 2.31,0.7525 0.8575,0.735 0.8575,2.4675 l 0,4.9525 -1.19,0 0,-0.875 q -1.2775,1.0675 -2.87,1.0675 -0.63,0 -1.1375,-0.1925 -0.49,-0.1925 -0.84,-0.5075 -0.35,-0.315 -0.5425,-0.7175 -0.175,-0.4025 -0.175,-0.805 0,-1.2075 1.0325,-1.9075 1.05,-0.7 3.01,-0.77 l 1.505,0 0,-0.2975 q 0,-1.19 -0.5075,-1.6625 -0.49,-0.4725 -1.54,-0.4725 -1.295,0 -2.1525,0.8925 l -0.6125,-0.805 z m 4.865,3.3075 -0.2975,0 q -0.245,0 -0.4725,0 -0.21,-0.0175 -0.42,-0.0175 -0.9625,0 -1.575,0.14 -0.6125,0.1225 -0.9625,0.35 -0.35,0.2275 -0.49,0.525 -0.1225,0.28 -0.1225,0.6125 0,0.56 0.49,0.9625 0.49,0.4025 1.2075,0.4025 0.525,0 0.945,-0.1575 0.42,-0.175 0.735,-0.4025 0.315,-0.245 0.5075,-0.49 0.1925,-0.2625 0.28,-0.455 0.175,-0.35 0.175,-0.945 l 0,-0.525 z"
         style="font-size:17.5px"
         id="path4183"
         inkscape:connector-curvature="0" />
      <path
         d="m 75.219403,129.29612 1.47,0 0,0.035 q 0,0.0875 -0.105,0.175 -0.0875,0.07 -0.0875,0.175 l 0,4.48 q 0.385,-0.6475 1.0325,-1.0325 0.665,-0.385 1.3475,-0.385 0.665,0 1.26,0.2625 0.595,0.245 1.05,0.77 0.455,0.5075 0.7175,1.2775 0.2625,0.77 0.2625,1.8025 0,1.085 -0.2975,1.89 -0.28,0.7875 -0.7525,1.33 -0.4725,0.525 -1.0675,0.7875 -0.595,0.2625 -1.225,0.2625 -0.735,0 -1.3475,-0.3325 -0.6125,-0.3325 -1.015,-0.91 l -0.4375,1.05 -0.805,0 0,-11.6375 z m 2.1875,10.4125 q 0.3325,0.175 0.595,0.245 0.2625,0.0525 0.49,0.0525 0.35,0 0.77,-0.1225 0.42,-0.14 0.77,-0.4725 0.3675,-0.3325 0.595,-0.8925 0.245,-0.56 0.245,-1.4175 0,-1.5925 -0.6475,-2.4325 -0.6475,-0.84 -1.8725,-0.84 -0.4375,0 -0.9275,0.315 -0.49,0.315 -0.7175,0.84 -0.21,0.525 -0.21,1.715 0,0.735 0.035,1.2425 0.035,0.5075 0.14,0.8575 0.105,0.3325 0.28,0.5425 0.175,0.21 0.455,0.3675 z"
         style="font-size:17.5px"
         id="path4185"
         inkscape:connector-curvature="0" />
      <path
         d="m 90.916903,134.26612 -0.8925,1.0325 q -0.0875,-0.0525 -0.0875,-0.105 0.0175,-0.07 -0.0175,-0.175 -0.0175,-0.105 -0.1225,-0.2625 -0.105,-0.1575 -0.42,-0.42 -0.595,-0.49 -1.6275,-0.49 -0.5075,0 -0.98,0.21 -0.455,0.21 -0.805,0.6125 -0.35,0.385 -0.56,0.945 -0.21,0.5425 -0.21,1.225 0,0.6825 0.21,1.26 0.21,0.5775 0.5775,0.9975 0.3675,0.42 0.875,0.665 0.5075,0.2275 1.12,0.2275 1.2075,0 2.0825,-0.98 l 0.735,0.8575 q -1.19,1.26 -2.9225,1.26 -0.8575,0 -1.5925,-0.315 -0.7175,-0.315 -1.26,-0.875 -0.525,-0.56 -0.8225,-1.3125 -0.2975,-0.77 -0.2975,-1.68 0,-0.8925 0.2975,-1.6625 0.2975,-0.77 0.8225,-1.3125 0.5425,-0.56 1.2775,-0.875 0.7525,-0.315 1.6275,-0.315 0.945,0 1.715,0.4025 0.7875,0.385 1.2775,1.085 z"
         style="font-size:17.5px"
         id="path4187"
         inkscape:connector-curvature="0" />
      <path
         d="m 98.161903,134.10862 0,-4.8125 1.3475,0 q 0,0.105 -0.0875,0.245 -0.0875,0.1225 -0.0875,0.245 l 0.0175,10.4125 q 0,0.42 0.0875,0.735 l -1.26,0 q -0.07,-0.21 -0.07,-0.595 l 0,-0.6825 q -0.385,0.665 -1.05,1.0675 -0.665,0.385 -1.3475,0.385 -0.665,0 -1.26,-0.2625 -0.5775,-0.2625 -1.0325,-0.7875 -0.4375,-0.525 -0.7,-1.3125 -0.2625,-0.805 -0.2625,-1.89 0,-1.1025 0.2975,-1.8725 0.2975,-0.7875 0.77,-1.2775 0.49,-0.5075 1.085,-0.735 0.595,-0.245 1.2075,-0.245 0.84,0 1.435,0.385 0.6125,0.3675 0.91,0.9975 z m -3.7275,0.245 q -0.7525,0.6825 -0.7525,2.31 0,1.505 0.5775,2.4325 0.5775,0.91 1.6975,0.91 0.2625,0 0.56,-0.0875 0.2975,-0.105 0.56,-0.2975 0.2625,-0.1925 0.4725,-0.455 0.21,-0.2625 0.315,-0.595 0.1925,-0.63 0.1925,-1.68 0,-0.665 -0.0525,-1.1025 -0.0525,-0.455 -0.175,-0.77 -0.105,-0.315 -0.28,-0.5075 -0.175,-0.21 -0.4375,-0.3675 -0.315,-0.1925 -0.595,-0.28 -0.2625,-0.105 -0.5075,-0.105 -0.5075,0 -0.875,0.14 -0.35,0.14 -0.7,0.455 z"
         style="font-size:17.5px"
         id="path4189"
         inkscape:connector-curvature="0" />
      <path
         d="m 104.9519,132.74362 q 0.63,0 1.225,0.2275 0.595,0.2275 1.0325,0.7 0.455,0.455 0.7175,1.1725 0.28,0.7175 0.28,1.6975 0,0.14 -0.0175,0.2975 0,0.14 -0.0175,0.28 l -5.6875,0 q 0.035,0.84 0.28,1.4175 0.2625,0.56 0.6475,0.91 0.385,0.35 0.8575,0.5075 0.4725,0.14 0.945,0.14 1.2425,0 2.065,-0.8925 l 0.7,0.6825 q -1.015,1.225 -2.8,1.225 -0.875,0 -1.61,-0.2625 -0.7175,-0.28 -1.225,-0.805 -0.5075,-0.525 -0.7875,-1.295 -0.28,-0.7875 -0.28,-1.785 0,-1.015 0.28,-1.8025 0.2975,-0.7875 0.7875,-1.3125 0.5075,-0.5425 1.1725,-0.8225 0.665,-0.28 1.435,-0.28 z m -2.415,3.395 4.3925,0 q 0,-0.07 0,-0.1225 0.0175,-0.07 0.0175,-0.1575 0,-0.4375 -0.175,-0.8225 -0.1575,-0.4025 -0.4375,-0.6825 -0.28,-0.2975 -0.665,-0.4725 -0.3675,-0.175 -0.805,-0.175 -0.8225,0 -1.4875,0.595 -0.665,0.5775 -0.84,1.8375 z"
         style="font-size:17.5px"
         id="path4191"
         inkscape:connector-curvature="0" />
      <path
         d="m 115.1719,129.19112 q 1.5225,0 2.45,1.1025 l -0.5775,1.155 q -0.14,0 -0.14,-0.14 0,-0.14 -0.035,-0.21 -0.28,-0.4025 -0.7525,-0.6475 -0.455,-0.2625 -0.9975,-0.2625 -0.455,0 -0.7875,0.14 -0.3325,0.1225 -0.595,0.42 -0.2625,0.2975 -0.4025,0.805 -0.1225,0.5075 -0.1225,1.2425 l 0,0.6125 2.625,0 0,0.9975 -2.625,0 0,6.5275 -1.2075,0 0,-6.5275 -1.7325,0 0,-0.9975 1.7325,0 0,-0.7875 q 0,-0.9275 0.2275,-1.575 0.245,-0.665 0.6825,-1.0675 0.455,-0.4025 1.015,-0.595 0.5775,-0.1925 1.2425,-0.1925 z"
         style="font-size:17.5px"
         id="path4193"
         inkscape:connector-curvature="0" />
      <path
         d="m 120.6319,134.19612 q -0.2625,0.2625 -0.385,0.5775 -0.1225,0.315 -0.1225,0.665 0,0.35 0.14,0.6825 0.14,0.315 0.3675,0.56 0.245,0.2275 0.56,0.3675 0.3325,0.14 0.6825,0.14 0.3675,0 0.6825,-0.14 0.315,-0.14 0.56,-0.385 0.245,-0.245 0.385,-0.56 0.14,-0.315 0.14,-0.665 0,-0.35 -0.14,-0.665 -0.14,-0.3325 -0.385,-0.5775 -0.245,-0.245 -0.5775,-0.385 -0.315,-0.14 -0.665,-0.14 -0.7175,0 -1.2425,0.525 z m 3.22,-0.7525 q 0.84,-0.7175 1.995,-0.7175 l 0.2275,0 0.1575,1.0325 q -0.1225,-0.0175 -0.245,-0.0175 -0.105,-0.0175 -0.2275,-0.0175 -0.77,0 -1.3825,0.385 0.4025,0.6125 0.4025,1.3475 0,0.56 -0.2275,1.0675 -0.2275,0.49 -0.63,0.875 -0.385,0.3675 -0.91,0.595 -0.525,0.21 -1.12,0.21 -0.49,0 -1.015,-0.1925 -0.56,0.5425 -0.56,0.91 0,0.2975 0.3325,0.4725 0.35,0.1575 0.945,0.1575 0.3325,0 0.665,-0.0175 0.35,-0.035 0.6475,-0.035 0.7875,0 1.3475,0.1575 0.5775,0.14 0.9275,0.42 0.35,0.2625 0.525,0.63 0.175,0.3675 0.175,0.7875 0,0.4725 -0.2275,0.91 -0.2275,0.455 -0.6825,0.7875 -0.455,0.35 -1.155,0.5425 -0.6825,0.21 -1.61,0.21 -0.9625,0 -1.6625,-0.1575 -0.6825,-0.14 -1.1025,-0.4025 -0.42,-0.2625 -0.6475,-0.6125 -0.21,-0.3325 -0.21,-0.7175 0,-0.945 1.3125,-1.7675 -0.6475,-0.3325 -0.6475,-1.1025 0,-0.7525 0.91,-1.505 -0.56,-0.3675 -0.875,-0.945 -0.315,-0.5775 -0.315,-1.225 0,-0.595 0.245,-1.1025 0.245,-0.525 0.6475,-0.91 0.42,-0.385 0.945,-0.595 0.5425,-0.2275 1.1025,-0.2275 1.1725,0 1.9425,0.77 z m -3.115,7.07 q -0.9975,0.56 -0.9975,1.225 0,0.35 0.1925,0.5775 0.21,0.245 0.5425,0.385 0.35,0.1575 0.805,0.2275 0.4725,0.07 0.98,0.07 1.0675,0 1.7675,-0.385 0.7,-0.385 0.7,-1.0325 -0.035,-0.4725 -0.4025,-0.735 -0.35,-0.2625 -1.12,-0.2625 -0.0875,0 -0.175,0.0175 -0.0875,0 -0.175,0 -0.665,0 -1.19,-0.0175 -0.525,-0.035 -0.9275,-0.07 z"
         style="font-size:17.5px"
         id="path4195"
         inkscape:connector-curvature="0" />
      <path
         d="m 127.8944,140.93362 0,-11.6375 1.4525,0 q 0,0.0175 0,0.0175 0.0175,0 0.0175,0.0175 0,0.0525 -0.0875,0.1575 -0.07,0.0875 -0.105,0.2275 l 0,4.6375 q 0.4725,-0.735 1.1725,-1.1725 0.7175,-0.4375 1.4525,-0.4375 0.5425,0 0.98,0.1925 0.455,0.175 0.7875,0.5775 0.3325,0.4025 0.5075,1.0325 0.175,0.63 0.175,1.54 l 0,4.8475 -1.2425,0 0,-4.8125 q 0,-1.26 -0.4375,-1.7675 -0.42,-0.5075 -1.0325,-0.5075 -0.4025,0 -0.805,0.175 -0.4025,0.175 -0.7875,0.49 -0.3675,0.315 -0.5775,0.77 -0.1925,0.455 -0.1925,1.05 l 0,4.6025 -1.2775,0 z"
         style="font-size:17.5px"
         id="path4197"
         inkscape:connector-curvature="0" />
      <path
         d="m 137.2744,132.93612 3.2025,0 0,6.9825 1.8725,0 0,1.015 -5.18,0 0,-1.015 2.0475,0 0,-5.9675 -1.9425,0 0,-1.015 z m 1.96,-3.22 q 0.2625,-0.2625 0.63,-0.2625 0.3675,0 0.63,0.28 0.28,0.2625 0.28,0.63 0,0.3675 -0.28,0.63 -0.2625,0.2625 -0.63,0.2625 -0.3675,0 -0.63,-0.2625 -0.2625,-0.2625 -0.2625,-0.63 0,-0.385 0.2625,-0.6475 z"
         style="font-size:17.5px"
         id="path4199"
         inkscape:connector-curvature="0" />
      <path
         d="m 146.3744,132.93612 4.2525,0 0,7.6125 q 0,0.91 -0.245,1.54 -0.245,0.6475 -0.6825,1.05 -0.42,0.4025 -0.9975,0.595 -0.5775,0.21 -1.2425,0.245 -1.54,0 -2.45,-1.12 l 0.8225,-1.085 q 0.0875,0.0875 0.0875,0.175 0.0175,0.0875 0.07,0.1925 0.0525,0.105 0.21,0.2275 0.1575,0.14 0.525,0.3325 0.385,0.1925 0.8225,0.1925 0.7875,0 1.295,-0.5425 0.5075,-0.525 0.5075,-1.7325 l 0,-6.65 -2.975,0 0,-1.0325 z m 2.975,-3.22 q 0.2625,-0.2625 0.6475,-0.2625 0.3675,0 0.63,0.2625 0.28,0.2625 0.28,0.6475 0,0.3675 -0.28,0.63 -0.2625,0.2625 -0.63,0.2625 -0.3675,0 -0.6475,-0.2625 -0.2625,-0.2625 -0.2625,-0.63 0,-0.385 0.2625,-0.6475 z"
         style="font-size:17.5px"
         id="path4201"
         inkscape:connector-curvature="0" />
      <path
         d="m 154.0744,129.29612 1.435,0 q 0,0.105 -0.0875,0.2275 -0.07,0.1225 -0.07,0.2275 l 0,6.86 4.0075,-3.71 q 0.4025,0.0875 0.9275,0.0875 l 0.455,0 -3.36,3.1675 3.92,4.7775 -1.6275,0.07 -3.2725,-4.0775 -1.05,0.98 0,3.0275 -1.2775,0 0,-11.6375 z"
         style="font-size:17.5px"
         id="path4203"
         inkscape:connector-curvature="0" />
      <path
         d="m 163.1569,129.29612 3.535,0 0,10.6225 2.345,0 0,1.015 -5.985,0 0,-1.015 2.3625,0 0,-9.6075 -2.2575,0 0,-1.015 z"
         style="font-size:17.5px"
         id="path4205"
         inkscape:connector-curvature="0" />
      <path
         d="m 171.0844,140.93362 0,-7.9975 1.155,0 0,0.7875 q 0.28,-0.4375 0.7175,-0.7 0.4375,-0.28 0.9275,-0.28 0.5075,0 0.8925,0.3325 0.4025,0.3325 0.5075,0.84 0.2275,-0.525 0.7175,-0.84 0.49,-0.3325 1.0675,-0.3325 0.8225,0 1.2075,0.595 0.385,0.5775 0.35,1.4525 l 0,6.1425 -1.155,0 0,-5.67 q 0,-0.5425 -0.0525,-0.8575 -0.0525,-0.315 -0.175,-0.4725 -0.1225,-0.175 -0.245,-0.21 -0.1225,-0.0525 -0.315,-0.0525 -0.2275,0 -0.455,0.1925 -0.2275,0.175 -0.4025,0.455 -0.175,0.28 -0.28,0.6475 -0.105,0.35 -0.105,0.6825 l 0,5.285 -1.1725,0 0,-5.565 q 0,-0.9975 -0.1925,-1.33 -0.175,-0.3325 -0.63,-0.3325 -0.42,0 -0.8225,0.5075 -0.385,0.49 -0.385,1.3825 l 0,5.3375 -1.155,0 z"
         style="font-size:17.5px"
         id="path4207"
         inkscape:connector-curvature="0" />
      <path
         d="m 180.3594,140.93362 0,-7.9975 1.295,0 0,1.4175 q 0.455,-0.735 1.155,-1.1725 0.7175,-0.4375 1.4525,-0.4375 0.525,0 0.98,0.1925 0.455,0.175 0.7875,0.5775 0.3325,0.4025 0.5075,1.0325 0.1925,0.63 0.1925,1.54 l 0,4.8475 -1.2425,0 0,-4.8125 q 0,-1.26 -0.4375,-1.7675 -0.42,-0.5075 -1.0325,-0.5075 -0.4025,0 -0.8225,0.175 -0.42,0.175 -0.77,0.5075 -0.3325,0.315 -0.56,0.77 -0.21,0.455 -0.21,1.0325 l 0,4.6025 -1.295,0 z"
         style="font-size:17.5px"
         id="path4209"
         inkscape:connector-curvature="0" />
      <path
         d="m 192.3644,132.76112 q 0.735,0 1.3825,0.2975 0.665,0.28 1.155,0.8225 0.49,0.5425 0.77,1.33 0.2975,0.77 0.2975,1.7325 0,0.98 -0.28,1.75 -0.28,0.77 -0.77,1.33 -0.49,0.5425 -1.155,0.84 -0.665,0.28 -1.4175,0.28 -0.77,0 -1.4525,-0.315 -0.665,-0.315 -1.1725,-0.8575 -0.5075,-0.56 -0.805,-1.33 -0.2975,-0.77 -0.2975,-1.6625 0,-0.8925 0.2975,-1.68 0.315,-0.7875 0.8225,-1.33 0.525,-0.56 1.2075,-0.875 0.6825,-0.3325 1.4175,-0.3325 z m 2.345,4.2175 q 0,-0.7525 -0.21,-1.33 -0.1925,-0.595 -0.525,-0.9975 -0.3325,-0.4025 -0.77,-0.6125 -0.42,-0.21 -0.8925,-0.21 -0.4725,0 -0.91,0.21 -0.42,0.21 -0.7525,0.6125 -0.315,0.4025 -0.5075,0.98 -0.1925,0.56 -0.1925,1.2775 0,0.7 0.1925,1.2775 0.1925,0.5775 0.5075,0.9975 0.3325,0.42 0.77,0.6475 0.4375,0.2275 0.9275,0.2275 0.49,0 0.91,-0.1925 0.4375,-0.21 0.7525,-0.595 0.3325,-0.4025 0.5075,-0.98 0.1925,-0.5775 0.1925,-1.3125 z"
         style="font-size:17.5px"
         id="path4211"
         inkscape:connector-curvature="0" />
      <path
         d="m 197.7194,132.93612 1.2775,0 0,1.225 q 0.4025,-0.6475 1.0675,-1.015 0.6825,-0.385 1.365,-0.385 0.665,0 1.26,0.2625 0.6125,0.245 1.0675,0.7525 0.4725,0.5075 0.735,1.2775 0.28,0.77 0.28,1.82 0,1.05 -0.2975,1.855 -0.28,0.805 -0.7525,1.3475 -0.4725,0.525 -1.085,0.805 -0.595,0.2625 -1.225,0.2625 -0.735,0 -1.365,-0.3325 -0.63,-0.3325 -1.0325,-0.9275 l 0,3.9725 -1.295,0 0,-10.92 z m 1.2775,4.6725 q 0.035,1.295 0.595,1.855 0.56,0.56 1.3825,0.56 0.4375,0 0.875,-0.14 0.4375,-0.14 0.805,-0.4725 0.3675,-0.35 0.5775,-0.91 0.2275,-0.56 0.2275,-1.4 0,-1.54 -0.6475,-2.38 -0.63,-0.8575 -1.785,-0.8925 -0.35,0 -0.7175,0.1225 -0.3675,0.1225 -0.665,0.42 -0.28,0.2975 -0.4725,0.805 -0.175,0.49 -0.175,1.225 l 0,1.2075 z"
         style="font-size:17.5px"
         id="path4213"
         inkscape:connector-curvature="0" />
      <path
         d="m 211.9644,134.10862 0,-1.1725 1.19,0 0,10.92 -1.26,0 0,-4.2 q -0.3675,0.665 -1.0325,1.0675 -0.665,0.385 -1.4175,0.385 -0.6825,0 -1.295,-0.2975 -0.595,-0.315 -1.05,-0.875 -0.4375,-0.56 -0.7,-1.3475 -0.245,-0.7875 -0.245,-1.75 0,-0.9625 0.28,-1.715 0.28,-0.77 0.7525,-1.295 0.49,-0.5425 1.12,-0.8225 0.6475,-0.28 1.365,-0.28 1.47,0 2.17,1.1725 0.1225,0.175 0.1225,0.21 z m -2.2925,-0.35 q -0.455,0 -0.8575,0.1925 -0.4025,0.175 -0.7175,0.5425 -0.2975,0.3675 -0.49,0.945 -0.175,0.56 -0.175,1.3125 0,0.77 0.175,1.3825 0.1925,0.595 0.5075,1.015 0.315,0.42 0.7175,0.6475 0.42,0.21 0.8925,0.21 0.9975,0 1.5575,-0.7525 0.5775,-0.7525 0.5775,-2.4325 0,-1.715 -0.595,-2.38 -0.595,-0.6825 -1.5925,-0.6825 z"
         style="font-size:17.5px"
         id="path4215"
         inkscape:connector-curvature="0" />
      <path
         d="m 215.9019,132.93612 1.3125,0 -0.035,1.54 q 0.3675,-0.84 1.155,-1.2775 0.805,-0.455 1.715,-0.455 1.295,0 2.135,0.875 l -0.5775,1.2075 q -0.1925,-0.2625 -0.35,-0.4375 -0.1575,-0.175 -0.35,-0.2975 -0.175,-0.1225 -0.4025,-0.1925 -0.21,-0.07 -0.525,-0.07 -0.5775,0 -1.085,0.28 -0.5075,0.2625 -0.8925,0.7175 -0.3675,0.4375 -0.595,1.015 -0.2275,0.5775 -0.2275,1.2075 l 0,3.9025 -1.2775,0 0,-8.015 z"
         style="font-size:17.5px"
         id="path4217"
         inkscape:connector-curvature="0" />
      <path
         d="m 230.4794,134.00362 -0.735,1.1025 q -0.0875,-0.0175 -0.0875,-0.14 0,-0.1225 -0.035,-0.175 -0.315,-0.4025 -0.8925,-0.735 -0.5775,-0.35 -1.3125,-0.35 -0.3325,0 -0.6475,0.0875 -0.2975,0.07 -0.5425,0.21 -0.2275,0.14 -0.3675,0.3675 -0.14,0.21 -0.14,0.49 0,0.21 0.105,0.385 0.105,0.1575 0.3325,0.315 0.2275,0.1575 0.63,0.315 0.42,0.1575 1.085,0.35 1.505,0.4025 2.1175,0.9625 0.63,0.5425 0.63,1.3475 0,0.525 -0.2275,0.9975 -0.2275,0.4725 -0.665,0.8225 -0.4375,0.35 -1.05,0.56 -0.6125,0.1925 -1.3825,0.1925 -2.0125,0 -3.3775,-1.26 l 0.7175,-1.26 q 0.0525,0.0525 0.07,0.175 0.0175,0.105 0.1225,0.2625 0.105,0.1575 0.385,0.3675 0.28,0.1925 0.8575,0.4375 0.2625,0.1225 0.595,0.175 0.3325,0.0525 0.665,0.0525 0.35,0 0.7,-0.0875 0.3675,-0.0875 0.6475,-0.245 0.2975,-0.175 0.4725,-0.4025 0.175,-0.245 0.175,-0.5425 0,-0.455 -0.42,-0.77 -0.42,-0.315 -1.54,-0.6475 -0.77,-0.2275 -1.015,-0.315 -0.63,-0.245 -0.91,-0.42 -0.28,-0.1925 -0.5075,-0.4375 -0.2275,-0.2625 -0.3675,-0.5775 -0.14,-0.3325 -0.14,-0.7175 0,-0.42 0.2275,-0.805 0.2275,-0.385 0.63,-0.6825 0.42,-0.2975 0.98,-0.4725 0.5775,-0.1925 1.2425,-0.1925 1.8375,0 2.975,1.26 z"
         style="font-size:17.5px"
         id="path4219"
         inkscape:connector-curvature="0" />
      <path
         d="m 234.9594,130.80112 1.3825,-0.2275 q 0,0.1575 -0.0525,0.28 -0.035,0.1225 -0.0525,0.1925 l -0.21,1.89 2.625,0 0,1.0325 -2.625,0 q -0.1575,1.5575 -0.1575,2.9225 0,0.84 0.035,1.4175 0.035,0.5775 0.175,0.91 0.1575,0.3325 0.4375,0.525 0.28,0.175 0.7525,0.175 0.805,0 1.785,-0.7175 l 0.385,0.9975 q -1.2075,0.8925 -2.485,0.8925 -1.26,0 -1.8375,-0.7525 -0.5775,-0.77 -0.525,-2.485 0,-0.63 0.035,-1.61 0.035,-0.98 0.14,-2.275 l -1.8725,0 0,-1.0325 1.925,0 0.14,-2.135 z"
         style="font-size:17.5px"
         id="path4221"
         inkscape:connector-curvature="0" />
      <path
         d="m 241.5219,132.93612 1.26,0 0,4.4625 q 0,0.77 0.14,1.295 0.14,0.5075 0.385,0.8225 0.2625,0.315 0.5775,0.455 0.3325,0.14 0.7175,0.14 0.42,-0.035 0.805,-0.21 0.385,-0.175 0.6825,-0.49 0.315,-0.3325 0.49,-0.84 0.175,-0.5075 0.175,-1.225 l 0,-4.41 1.2775,0 0,7.28 q 0,0.4025 0.0875,0.7175 l -1.33,0 q -0.0175,-0.1225 -0.035,-0.2625 -0.0175,-0.1575 0,-0.35 l 0.0175,-0.6125 q -0.385,0.665 -1.05,1.05 -0.6475,0.3675 -1.435,0.3675 -0.6125,0 -1.1025,-0.21 -0.49,-0.2275 -0.8925,-0.6825 -0.385,-0.455 -0.595,-1.155 -0.1925,-0.7 -0.1925,-1.68 l 0.0175,-4.4625 z"
         style="font-size:17.5px"
         id="path4223"
         inkscape:connector-curvature="0" />
      <path
         d="m 250.0444,133.37362 -0.175,-0.4375 1.505,0 q 0,0.1225 -0.035,0.2275 -0.0175,0.0875 -0.0175,0.1575 0,0.035 0.0175,0.0525 l 2.31,5.845 1.295,-2.975 q 0.42,-0.9625 0.6825,-1.785 0.2625,-0.8225 0.4025,-1.5225 l 1.1375,0 q -0.35,1.47 -1.2075,3.5 l -1.9425,4.55 -0.98,0 -2.9925,-7.6125 z"
         style="font-size:17.5px"
         id="path4225"
         inkscape:connector-curvature="0" />
      <path
         d="m 258.1994,132.93612 1.2775,0 0,0.07 q 0,0.105 -0.035,0.245 -0.035,0.1225 -0.035,0.245 0,0.07 0.0175,0.105 l 1.1725,5.7575 1.365,-5.67 0.77,0 1.6975,5.6525 q 0.2275,-1.54 0.3675,-2.5375 0.1575,-0.9975 0.2275,-1.645 0.0875,-0.665 0.105,-1.085 0.035,-0.4375 0.035,-0.875 l 0,-0.2625 1.1725,0 q -0.2625,2.03 -0.595,4.025 -0.3325,1.995 -0.735,3.99 l -1.19,0 -1.47,-5.18 -1.4,5.18 -1.1375,0 -1.61,-8.015 z"
         style="font-size:17.5px"
         id="path4227"
         inkscape:connector-curvature="0" />
      <path
         d="m 273.0044,132.93612 1.295,0 -2.59,3.885 2.94,4.1125 -1.435,0 -2.205,-3.115 -2.0825,3.115 -1.435,0 2.8175,-4.06 -2.765,-3.9375 1.3825,0 2.0825,2.9575 1.995,-2.9575 z"
         style="font-size:17.5px"
         id="path4229"
         inkscape:connector-curvature="0" />
      <path
         d="m 276.4519,133.49612 -0.2275,-0.56 1.5575,0 q 0,0.14 -0.035,0.245 -0.035,0.0875 -0.035,0.175 0,0.07 0.035,0.105 l 2.345,5.88 1.5225,-4.2875 q 0.2275,-0.6125 0.3675,-1.1375 0.14,-0.5425 0.2275,-0.98 l 1.3125,0 q -0.1575,0.455 -0.35,1.0325 -0.175,0.5775 -0.4375,1.2775 l -2.17,5.7225 -0.3325,0.875 q -0.42,1.1725 -1.085,1.645 -0.6475,0.49 -1.505,0.49 -1.1375,0 -1.8375,-0.6825 l 0.665,-1.12 q 0.0525,0.0525 0.0875,0.1575 0.035,0.1225 0.0525,0.1575 0,0 0.07,0.07 0.07,0.0875 0.175,0.1575 0.1225,0.0875 0.2975,0.1575 0.175,0.07 0.385,0.07 0.5075,0 0.8925,-0.315 0.4025,-0.315 0.7875,-1.1375 l 0.245,-0.595 -3.01,-7.4025 z"
         style="font-size:17.5px"
         id="path4231"
         inkscape:connector-curvature="0" />
      <path
         d="m 285.4119,132.93612 6.2125,0 0,0.8575 -4.865,6.055 4.7425,0 q 0.1225,0 0.2625,-0.0525 0.1575,-0.0525 0.28,-0.0525 l 0,1.19 -7,0 0,-0.8575 4.9525,-6.0375 -4.585,0 0,-1.1025 z"
         style="font-size:17.5px"
         id="path4233"
         inkscape:connector-curvature="0" />
      <path
         d="m 65.681903,162.80862 3.85,-11.095 0.14,0 4.2,11.095 -1.26,0 -1.2075,-3.185 -3.465,0 -1.05,3.185 -1.2075,0 z m 5.4425,-4.13 -1.54,-4.165 -1.4,4.165 2.94,0 z"
         style="font-size:17.5px"
         id="path4235"
         inkscape:connector-curvature="0" />
      <path
         d="m 75.009403,151.90612 3.0975,0 q 0.945,0 1.6275,0.1925 0.7,0.175 1.12,0.5425 0.42,0.3675 0.6475,0.8575 0.2275,0.4725 0.2275,1.05 0,0.77 -0.42,1.4525 -0.42,0.6825 -1.19,0.9625 0.455,0.1575 0.8225,0.455 0.385,0.28 0.665,0.6475 0.28,0.3675 0.42,0.805 0.14,0.42 0.14,0.875 0,1.3825 -0.98,2.2225 -0.98,0.84 -3.0975,0.84 l -3.08,0 0,-10.9025 z m 1.2075,1.0325 0,3.4825 1.715,0 q 0.735,0 1.2075,-0.1225 0.4725,-0.14 0.7525,-0.3675 0.2975,-0.2275 0.4375,-0.5425 0.14,-0.3325 0.175,-0.7 -0.035,-0.3675 -0.175,-0.6825 -0.1225,-0.315 -0.4025,-0.5425 -0.28,-0.245 -0.7175,-0.385 -0.4375,-0.14 -1.085,-0.14 l -1.9075,0 z m 0,4.515 0,4.2875 2.0825,0 q 1.4,0 1.9425,-0.5775 0.56,-0.595 0.63,-1.4875 -0.035,-0.49 -0.1925,-0.8925 -0.1575,-0.4025 -0.49,-0.7 -0.315,-0.315 -0.875,-0.4725 -0.5425,-0.1575 -1.3125,-0.1575 l -1.785,0 z"
         style="font-size:17.5px"
         id="path4237"
         inkscape:connector-curvature="0" />
      <path
         d="m 89.884403,154.37362 q 0,-0.21 -0.0525,-0.315 -0.35,-0.5775 -0.91,-0.91 -0.56,-0.35 -1.19,-0.35 -0.595,0 -1.12,0.315 -0.525,0.2975 -0.9275,0.8925 -0.4025,0.5775 -0.63,1.4175 -0.2275,0.84 -0.2275,1.9075 0,1.0325 0.2275,1.89 0.2275,0.84 0.63,1.4525 0.42,0.595 0.9625,0.9275 0.56,0.3325 1.19,0.3325 0.6475,0 1.2425,-0.35 0.6125,-0.3675 0.98,-0.98 l 0.91,0.595 q -0.2625,0.4375 -0.63,0.77 -0.3675,0.3325 -0.7875,0.56 -0.4025,0.2275 -0.8225,0.3325 -0.4025,0.1225 -0.8225,0.1225 -0.945,0 -1.68,-0.315 -0.7175,-0.3325 -1.33,-1.015 -0.595,-0.6825 -0.9275,-1.7325 -0.3325,-1.05 -0.3325,-2.5025 0,-1.61 0.385,-2.6775 0.385,-1.085 1.015,-1.7325 0.63,-0.6475 1.33,-0.91 0.7175,-0.28 1.3825,-0.28 0.5425,0 1.05,0.1575 0.525,0.1575 0.9625,0.4375 0.455,0.28 0.805,0.6825 0.35,0.385 0.56,0.875 l -1.1725,0.5775 q -0.07,-0.0525 -0.07,-0.175 z"
         style="font-size:17.5px"
         id="path4239"
         inkscape:connector-curvature="0" />
      <path
         d="m 92.614403,151.90612 2.5375,0 q 1.4,0 2.17,0.385 0.7875,0.385 1.33,1.1025 0.5425,0.7175 0.805,1.7325 0.2625,1.015 0.2625,2.2925 0,1.26 -0.315,2.2575 -0.315,0.9975 -0.875,1.715 -0.5425,0.7 -1.4175,1.0675 -0.875,0.3675 -2.17,0.3675 l -2.3275,0 0,-10.92 z m 1.155,1.0325 0,8.925 1.12,0 q 1.8725,0 2.73,-1.12 0.875,-1.1375 0.875,-3.255 -0.0175,-2.135 -0.805,-3.3425 -0.77,-1.2075 -2.6075,-1.2075 l -1.3125,0 z"
         style="font-size:17.5px"
         id="path4241"
         inkscape:connector-curvature="0" />
      <path
         d="m 101.4519,151.88862 6.685,0 0,1.085 -5.53,0 0,3.5875 4.5675,0 0,1.12 -4.5675,0 0,4.0425 5.4775,0 0,1.085 -6.6325,0 0,-10.92 z"
         style="font-size:17.5px"
         id="path4243"
         inkscape:connector-curvature="0" />
      <path
         d="m 110.5344,151.88862 6.2825,0 0,1.0675 -5.0575,0 0,3.43 4.0775,0 0,1.0675 -4.0775,0 0,5.355 -1.225,0 0,-10.92 z"
         style="font-size:17.5px"
         id="path4245"
         inkscape:connector-curvature="0" />
      <path
         d="m 125.9344,153.62112 -0.8575,0.875 q -0.105,-0.07 -0.2275,-0.3325 -0.2625,-0.5775 -0.8225,-0.9275 -0.5425,-0.3675 -1.2775,-0.3675 -0.5075,0 -1.05,0.21 -0.525,0.21 -0.9625,0.7175 -0.4375,0.5075 -0.7175,1.3475 -0.2625,0.8225 -0.2625,2.0825 0,1.1375 0.2275,2.0125 0.2275,0.875 0.63,1.47 0.4025,0.5775 0.945,0.8925 0.56,0.2975 1.2075,0.2975 1.1375,0 2.065,-0.665 l 0,-2.59 -1.9775,0 0,-1.0675 3.115,0 0,4.27 q -1.5575,1.1375 -3.2025,1.1375 -0.98,0 -1.7675,-0.385 -0.77,-0.4025 -1.33,-1.12 -0.5425,-0.7175 -0.84,-1.7325 -0.28,-1.015 -0.28,-2.2575 0,-1.715 0.42,-2.87 0.4375,-1.155 1.12,-1.75 0.6825,-0.6125 1.3825,-0.84 0.7175,-0.2275 1.295,-0.2275 0.9975,0 1.855,0.5075 0.8575,0.49 1.3125,1.3125 z"
         style="font-size:17.5px"
         id="path4247"
         inkscape:connector-curvature="0" />
      <path
         d="m 127.6144,151.90612 1.365,0 q 0.0175,0.0175 0.0175,0.0525 0,0.0525 -0.0525,0.14 -0.035,0.0875 -0.0525,0.2275 l 0,4.2525 4.27,0 0,-4.6725 1.33,0 q 0.0175,0.0175 0.0175,0.0525 0,0.07 -0.0525,0.1575 -0.0525,0.07 -0.07,0.175 l 0,10.535 -1.2425,0 0,-5.215 -4.2525,0 0,5.1975 -1.2775,0 0,-10.9025 z"
         style="font-size:17.5px"
         id="path4249"
         inkscape:connector-curvature="0" />
      <path
         d="m 136.9594,151.90612 5.4075,0 0,1.0325 -2.1525,0 0,8.8725 2.2575,0 0,1.015 -5.635,0 0,-1.0325 2.1525,0 0,-8.855 -2.03,0 0,-1.0325 z"
         style="font-size:17.5px"
         id="path4251"
         inkscape:connector-curvature="0" />
      <path
         d="m 147.1794,151.90612 4.9875,0 0,1.0325 -1.68,0 0,6.2125 q 0,1.0675 -0.21,1.785 -0.1925,0.7175 -0.63,1.19 -0.4375,0.4725 -0.945,0.6825 -0.5075,0.1925 -1.1025,0.1925 -1.5575,0 -2.5725,-1.2075 l 0.8225,-0.9975 q 0.0525,0.0525 0.0525,0.175 0.0175,0.105 0.07,0.175 l 0.21,0.21 q 0.07,0.0875 0.2275,0.1925 0.1575,0.0875 0.35,0.175 0.21,0.07 0.42,0.14 0.21,0.0525 0.42,0.0525 0.875,0 1.2775,-0.6125 0.4025,-0.6125 0.4025,-2.135 l 0,-6.23 -2.1,0 0,-1.0325 z"
         style="font-size:17.5px"
         id="path4253"
         inkscape:connector-curvature="0" />
      <path
         d="m 153.6544,151.88862 1.47,0 q 0,0.105 -0.0875,0.2275 -0.07,0.105 -0.07,0.2275 l 0,4.585 4.55,-5.11 q 0.385,0.0875 0.91,0.0875 l 0.455,0 -4.13,4.7075 4.41,6.195 -1.575,0.07 -3.7625,-5.53 -0.8575,0.945 0,4.515 -1.3125,0 0,-10.92 z"
         style="font-size:17.5px"
         id="path4255"
         inkscape:connector-curvature="0" />
      <path
         d="m 162.8244,151.90612 1.435,0 q 0,0.1225 -0.0875,0.28 -0.07,0.1575 -0.07,0.315 l 0,9.24 5.25,0 0,1.0675 -6.5275,0 0,-10.9025 z"
         style="font-size:17.5px"
         id="path4257"
         inkscape:connector-curvature="0" />
      <path
         d="m 171.1369,151.90612 0.9625,0 2.695,5.3375 2.7475,-5.355 0.9275,0 0,10.92 -1.155,0 0,-8.225 -2.3625,4.3925 -0.4725,0 -2.205,-4.34 0,8.1725 -1.1375,0 0,-10.9025 z"
         style="font-size:17.5px"
         id="path4259"
         inkscape:connector-curvature="0" />
      <path
         d="m 180.0444,162.80862 0,-10.9025 1.19,0 4.585,8.085 0,-8.1025 1.295,0 q 0,0.105 -0.07,0.2275 -0.0525,0.1225 -0.0525,0.245 l 0,10.4475 -0.9625,0 -4.8125,-8.575 0,8.575 -1.1725,0 z"
         style="font-size:17.5px"
         id="path4261"
         inkscape:connector-curvature="0" />
      <path
         d="m 192.3644,162.98362 q -0.8925,0 -1.6275,-0.4025 -0.7175,-0.42 -1.2425,-1.155 -0.5075,-0.7525 -0.7875,-1.785 -0.28,-1.05 -0.28,-2.31 0,-1.26 0.28,-2.2925 0.2975,-1.0325 0.8225,-1.75 0.525,-0.7175 1.26,-1.1025 0.735,-0.4025 1.61,-0.4025 0.77,0 1.435,0.3325 0.665,0.3325 1.2075,1.015 0.56,0.665 0.84,1.715 0.28,1.05 0.28,2.5025 0,1.575 -0.3325,2.66 -0.3325,1.0675 -0.875,1.7325 -0.5425,0.665 -1.225,0.9625 -0.665,0.28 -1.365,0.28 z m -1.82,-2.1875 q 0.8225,0.98 1.82,0.98 0.4725,0 0.9275,-0.1925 0.455,-0.21 0.8225,-0.7175 0.385,-0.5075 0.595,-1.365 0.2275,-0.8575 0.2275,-2.1875 0,-1.295 -0.245,-2.1175 -0.245,-0.84 -0.63,-1.33 -0.3675,-0.49 -0.7875,-0.7 -0.4025,-0.2275 -0.875,-0.2275 -0.5425,-0.0175 -0.9975,0.1925 -0.455,0.21 -0.8575,0.6825 -0.4025,0.4725 -0.665,1.295 -0.245,0.8225 -0.245,2.1175 0,1.2075 0.245,2.135 0.2625,0.9275 0.665,1.435 z"
         style="font-size:17.5px"
         id="path4263"
         inkscape:connector-curvature="0" />
      <path
         d="m 197.7019,151.90612 3.5,0 q 0.91,0 1.54,0.245 0.6475,0.2275 1.05,0.665 0.42,0.42 0.6125,0.98 0.21,0.56 0.245,1.19 -0.035,0.63 -0.245,1.19 -0.1925,0.5425 -0.595,0.945 -0.385,0.4025 -1.015,0.6475 -0.6125,0.2275 -1.505,0.2275 l -2.3275,0 0,4.8125 -1.26,0 0,-10.9025 z m 1.26,1.155 0,3.85 2.1875,0 q 1.19,0 1.68,-0.5075 0.5075,-0.525 0.56,-1.3825 -0.035,-0.4025 -0.175,-0.7525 -0.1225,-0.3675 -0.385,-0.63 -0.2625,-0.2625 -0.6825,-0.42 -0.4025,-0.1575 -0.98,-0.1575 l -2.205,0 z"
         style="font-size:17.5px"
         id="path4265"
         inkscape:connector-curvature="0" />
      <path
         d="m 208.0269,153.81362 q -0.91,1.0325 -0.91,3.3425 0,1.05 0.175,1.9075 0.1925,0.8575 0.5425,1.47 0.3675,0.6125 0.8925,0.9625 0.5425,0.35 1.1725,0.35 0.4375,0 0.8925,-0.21 0.4725,-0.2275 0.8575,-0.7175 0.385,-0.5075 0.6125,-1.295 0.2275,-0.805 0.2275,-1.96 0,-1.47 -0.245,-2.3975 -0.245,-0.9275 -0.6825,-1.4525 -0.42,-0.525 -0.875,-0.7175 -0.455,-0.21 -0.875,-0.21 -0.525,0 -0.98,0.2625 -0.455,0.2625 -0.805,0.665 z m 5.635,3.5525 q 0,2.415 -0.8225,3.815 -0.805,1.4 -2.3975,1.75 0.035,0.5775 0.2975,0.945 0.2625,0.3675 0.9975,0.3675 0.0875,0 0.28,-0.0175 0.1925,-0.0175 0.42,-0.035 0.2275,0 0.42,-0.0175 0.21,-0.0175 0.2975,-0.0175 l -0.035,1.19 -0.6825,0 q -0.8575,0 -1.4525,-0.0875 -0.5775,-0.0875 -0.945,-0.4025 -0.35,-0.315 -0.5075,-0.7875 -0.1575,-0.455 -0.1575,-1.1375 -0.665,-0.0875 -1.2775,-0.455 -0.6125,-0.385 -1.1025,-1.0675 -0.49,-0.6825 -0.7875,-1.6625 -0.28,-0.9975 -0.28,-2.3275 0,-1.645 0.3675,-2.73 0.385,-1.085 0.9625,-1.715 0.5775,-0.63 1.26,-0.91 0.6825,-0.28 1.295,-0.28 0.7525,0 1.435,0.315 0.7,0.315 1.26,1.015 0.5775,0.6825 0.8575,1.715 0.2975,1.0325 0.2975,2.5375 z"
         style="font-size:17.5px"
         id="path4267"
         inkscape:connector-curvature="0" />
      <path
         d="m 215.1494,151.90612 3.22,0 q 1.925,0 2.765,0.8575 0.8575,0.8575 0.8575,2.2575 0,0.4725 -0.1575,0.945 -0.1575,0.455 -0.455,0.8575 -0.28,0.4025 -0.7,0.7 -0.4025,0.2975 -0.91,0.42 l 2.52,4.865 -1.365,0 -2.415,-4.8125 -2.1175,0 0,4.8125 -1.2425,0 0,-10.9025 z m 1.2425,1.155 0,3.85 2.1175,0 q 1.1725,0 1.6975,-0.5075 0.525,-0.525 0.525,-1.3825 0,-0.42 -0.14,-0.77 -0.14,-0.35 -0.4025,-0.6125 -0.245,-0.2625 -0.665,-0.42 -0.42,-0.1575 -1.015,-0.1575 l -2.1175,0 z"
         style="font-size:17.5px"
         id="path4269"
         inkscape:connector-curvature="0" />
      <path
         d="m 230.5319,153.20112 -0.77,1.05 q -0.0875,-0.035 -0.105,-0.14 0,-0.1225 -0.035,-0.175 -0.3325,-0.49 -0.91,-0.7875 -0.56,-0.2975 -1.4,-0.2975 -0.805,0 -1.3475,0.4725 -0.525,0.4725 -0.525,1.12 0,0.385 0.1225,0.665 0.14,0.28 0.4025,0.5425 0.28,0.2625 0.805,0.5425 0.525,0.2625 1.365,0.595 0.805,0.3325 1.33,0.665 0.525,0.315 0.84,0.6825 0.315,0.3675 0.4375,0.7875 0.14,0.4025 0.14,0.91 0,0.56 -0.21,1.1375 -0.21,0.56 -0.665,1.015 -0.4375,0.4375 -1.12,0.7175 -0.6825,0.28 -1.645,0.28 -2.1175,0 -3.4125,-1.4 l 0.7175,-1.26 q 0.0875,0.0525 0.0875,0.175 0,0.1225 0.0525,0.1925 0.4025,0.5075 1.085,0.8575 0.6825,0.3325 1.645,0.3325 0.49,0 0.8925,-0.1575 0.42,-0.175 0.7175,-0.4375 0.2975,-0.28 0.4725,-0.6475 0.175,-0.385 0.175,-0.805 0,-0.3325 -0.1225,-0.595 -0.105,-0.28 -0.3675,-0.5075 -0.2625,-0.245 -0.7525,-0.4725 -0.4725,-0.245 -1.26,-0.56 -0.8575,-0.3325 -1.435,-0.665 -0.56,-0.35 -0.91,-0.7 -0.35,-0.35 -0.5075,-0.7525 -0.14,-0.4025 -0.14,-0.875 0,-0.595 0.245,-1.12 0.2625,-0.525 0.7,-0.91 0.455,-0.4025 1.0675,-0.6125 0.6125,-0.2275 1.3125,-0.2275 0.8925,0 1.68,0.3675 0.7875,0.35 1.3475,0.9975 z"
         style="font-size:17.5px"
         id="path4271"
         inkscape:connector-curvature="0" />
      <path
         d="m 232.2119,151.88862 7.56,0 0,1.1025 -3.22,0 0,9.8175 -1.2425,0 0,-9.8175 -3.0975,0 0,-1.1025 z"
         style="font-size:17.5px"
         id="path4273"
         inkscape:connector-curvature="0" />
      <path
         d="m 241.2944,151.90612 1.3825,0 q 0.0175,0 0.0175,0.035 0,0.07 -0.0875,0.21 -0.07,0.1225 -0.105,0.315 l 0,6.5975 q 0,0.91 0.175,1.4175 0.175,0.49 0.49,0.8225 0.315,0.315 0.735,0.4725 0.4375,0.1575 0.9275,0.1925 0.49,-0.035 0.91,-0.175 0.4375,-0.14 0.7525,-0.4725 0.3325,-0.35 0.5075,-0.8575 0.1925,-0.5075 0.1925,-1.4525 l 0,-7.105 1.1725,0 0,7.0875 q 0,1.0675 -0.245,1.8025 -0.2275,0.735 -0.7175,1.225 -0.49,0.49 -1.1375,0.735 -0.6475,0.245 -1.4525,0.245 -0.7875,0 -1.435,-0.245 -0.6475,-0.245 -1.12,-0.7175 -0.455,-0.4725 -0.7175,-1.155 -0.245,-0.6825 -0.245,-1.8375 l 0,-7.14 z"
         style="font-size:17.5px"
         id="path4275"
         inkscape:connector-curvature="0" />
      <path
         d="m 249.6069,151.88862 1.2775,0 2.8,8.3825 2.6425,-8.365 1.2075,0 -3.6575,10.9725 -0.56,0 -3.71,-10.99 z"
         style="font-size:17.5px"
         id="path4277"
         inkscape:connector-curvature="0" />
      <path
         d="m 258.2169,151.90612 1.1375,0 1.1725,7.3675 1.75,-6.5625 0.385,0 1.7675,6.5975 0.9975,-7.4025 1.0325,0 -1.7325,10.9725 -0.4725,0 -1.8725,-7.1925 -1.9075,7.1925 -0.5075,0 -1.75,-10.9725 z"
         style="font-size:17.5px"
         id="path4279"
         inkscape:connector-curvature="0" />
      <path
         d="m 273.3019,151.88862 1.225,0 -2.765,5.3375 3.0975,5.5825 -1.3825,0 -2.415,-4.3225 -2.345,4.3225 -1.33,0 2.975,-5.565 -2.9225,-5.355 1.3125,0 2.2925,4.1475 2.2575,-4.1475 z"
         style="font-size:17.5px"
         id="path4281"
         inkscape:connector-curvature="0" />
      <path
         d="m 275.9094,151.90612 1.4,0 2.6775,5.285 2.415,-5.285 1.295,0 -3.0975,6.5975 0,4.305 -1.33,0 0,-4.305 -3.36,-6.5975 z"
         style="font-size:17.5px"
         id="path4283"
         inkscape:connector-curvature="0" />
      <path
         d="m 285.2544,151.90612 6.7375,0 0,0.8575 -5.4075,8.96 5.145,0 q 0.1225,0 0.2625,-0.0525 0.1575,-0.0525 0.28,-0.0525 l 0,1.19 -7.2275,0 0,-0.8575 5.495,-8.9425 -5.285,0 0,-1.1025 z"
         style="font-size:17.5px"
         id="path4285"
         inkscape:connector-curvature="0" />
      <path
         d="m 69.864403,176.51112 q 0.735,0 1.3825,0.2975 0.665,0.28 1.155,0.8225 0.49,0.5425 0.77,1.33 0.2975,0.77 0.2975,1.7325 0,0.98 -0.28,1.75 -0.28,0.77 -0.77,1.33 -0.49,0.5425 -1.155,0.84 -0.665,0.28 -1.4175,0.28 -0.77,0 -1.4525,-0.315 -0.665,-0.315 -1.1725,-0.8575 -0.5075,-0.56 -0.805,-1.33 -0.2975,-0.77 -0.2975,-1.6625 0,-0.8925 0.2975,-1.68 0.315,-0.7875 0.8225,-1.33 0.525,-0.56 1.2075,-0.875 0.6825,-0.3325 1.4175,-0.3325 z m 2.345,4.2175 q 0,-0.7525 -0.21,-1.33 -0.1925,-0.595 -0.525,-0.9975 -0.3325,-0.4025 -0.77,-0.6125 -0.42,-0.21 -0.8925,-0.21 -0.4725,0 -0.91,0.21 -0.42,0.21 -0.7525,0.6125 -0.315,0.4025 -0.5075,0.98 -0.1925,0.56 -0.1925,1.2775 0,0.7 0.1925,1.2775 0.1925,0.5775 0.5075,0.9975 0.3325,0.42 0.77,0.6475 0.4375,0.2275 0.9275,0.2275 0.49,0 0.91,-0.1925 0.4375,-0.21 0.7525,-0.595 0.3325,-0.4025 0.5075,-0.98 0.1925,-0.5775 0.1925,-1.3125 z"
         style="font-size:17.5px"
         id="path4287"
         inkscape:connector-curvature="0" />
      <path
         d="m 78.614403,184.85862 q -0.8925,0 -1.6275,-0.4025 -0.7175,-0.42 -1.2425,-1.155 -0.5075,-0.7525 -0.7875,-1.785 -0.28,-1.05 -0.28,-2.31 0,-1.26 0.28,-2.2925 0.2975,-1.0325 0.8225,-1.75 0.525,-0.7175 1.26,-1.1025 0.735,-0.4025 1.61,-0.4025 0.77,0 1.435,0.3325 0.665,0.3325 1.2075,1.015 0.56,0.665 0.84,1.715 0.28,1.05 0.28,2.5025 0,1.575 -0.3325,2.66 -0.3325,1.0675 -0.875,1.7325 -0.5425,0.665 -1.225,0.9625 -0.665,0.28 -1.365,0.28 z m -1.82,-2.1875 q 0.8225,0.98 1.82,0.98 0.4725,0 0.9275,-0.1925 0.455,-0.21 0.8225,-0.7175 0.385,-0.5075 0.595,-1.365 0.2275,-0.8575 0.2275,-2.1875 0,-1.295 -0.245,-2.1175 -0.245,-0.84 -0.63,-1.33 -0.3675,-0.49 -0.7875,-0.7 -0.4025,-0.2275 -0.875,-0.2275 -0.5425,-0.0175 -0.9975,0.1925 -0.455,0.21 -0.8575,0.6825 -0.4025,0.4725 -0.665,1.295 -0.245,0.8225 -0.245,2.1175 0,1.2075 0.245,2.135 0.2625,0.9275 0.665,1.435 z"
         style="font-size:17.5px"
         id="path4289"
         inkscape:connector-curvature="0" />
      <path
         d="m 89.674403,175.16362 q 0.5075,0.6825 0.805,1.785 0.315,1.1025 0.315,2.4675 0,1.3825 -0.315,2.415 -0.2975,1.015 -0.805,1.6975 -0.49,0.6825 -1.12,1.015 -0.63,0.3325 -1.2775,0.3325 -0.665,0 -1.295,-0.4025 -0.63,-0.4025 -1.12,-1.12 -0.49,-0.735 -0.7875,-1.75 -0.28,-1.0325 -0.28,-2.275 0,-1.2425 0.28,-2.275 0.2975,-1.0325 0.7875,-1.7675 0.49,-0.7525 1.12,-1.155 0.63,-0.42 1.295,-0.42 1.365,0 2.3975,1.4525 z m -0.6475,1.0325 q -0.35,-0.7 -0.805,-1.05 -0.455,-0.3675 -0.9275,-0.3675 -0.4375,0 -0.875,0.315 -0.42,0.315 -0.7525,0.875 -0.3325,0.56 -0.5425,1.365 -0.1925,0.805 -0.1925,1.7675 0,1.085 0.245,2.065 l 3.85,-4.97 z m 0.4025,1.1725 -3.85,4.9 q 0.42,0.7875 0.875,1.1375 0.4725,0.35 0.9275,0.35 0.4725,0 0.875,-0.28 0.42,-0.2975 0.7175,-0.84 0.315,-0.5425 0.49,-1.3125 0.1925,-0.7875 0.1925,-1.7675 0,-0.6125 -0.0525,-1.155 -0.0525,-0.5425 -0.175,-1.0325 z"
         style="font-size:17.5px"
         id="path4291"
         inkscape:connector-curvature="0" />
      <path
         d="m 99.019403,176.23112 q 0,0.7875 -0.4725,1.505 -0.4725,0.7 -1.26,1.12 0.945,0.4375 1.5225,1.26 0.5775,0.805 0.5775,1.75 0,0.63 -0.2625,1.19 -0.2625,0.5425 -0.7175,0.945 -0.4375,0.4025 -1.05,0.63 -0.6125,0.2275 -1.3125,0.2275 -0.7,0 -1.3125,-0.2275 -0.6125,-0.2275 -1.0675,-0.6125 -0.4375,-0.4025 -0.7,-0.9275 -0.245,-0.5425 -0.245,-1.155 0,-0.945 0.595,-1.7675 0.595,-0.8225 1.5925,-1.2775 -0.7525,-0.385 -1.2075,-1.0675 -0.455,-0.7 -0.455,-1.4875 0,-0.56 0.2275,-1.05 0.2275,-0.49 0.63,-0.8575 0.4025,-0.3675 0.9275,-0.5775 0.525,-0.21 1.1375,-0.21 0.6125,0 1.1375,0.21 0.525,0.1925 0.8925,0.56 0.385,0.35 0.595,0.8225 0.2275,0.4725 0.2275,0.9975 z m -3.2025,3.15 q -0.7875,0.3325 -1.3125,0.9975 -0.525,0.6475 -0.525,1.435 0,0.4025 0.1575,0.7525 0.175,0.35 0.455,0.6125 0.2975,0.2625 0.665,0.42 0.385,0.1575 0.8225,0.1575 0.4375,0 0.805,-0.14 0.385,-0.1575 0.665,-0.4025 0.28,-0.2625 0.4375,-0.595 0.1575,-0.35 0.1575,-0.7525 0,-0.805 -0.63,-1.47 -0.63,-0.6825 -1.6975,-1.015 z m -1.1025,-2.205 q 0.21,0.35 0.5425,0.6125 0.35,0.245 0.7875,0.4725 l 0.2975,0.1575 q 0.6475,-0.35 1.0675,-0.945 0.42,-0.595 0.42,-1.2075 0,-0.315 -0.14,-0.595 -0.1225,-0.28 -0.3675,-0.5075 -0.2275,-0.2275 -0.5425,-0.35 -0.315,-0.14 -0.6825,-0.14 -0.3675,0 -0.6825,0.14 -0.2975,0.1225 -0.525,0.3325 -0.2275,0.21 -0.35,0.49 -0.1225,0.28 -0.1225,0.5775 0,0.525 0.2975,0.9625 z"
         style="font-size:17.5px"
         id="path4293"
         inkscape:connector-curvature="0" />
      <path
         d="m 111.0244,176.68612 3.2025,0 0,6.9825 1.8725,0 0,1.015 -5.18,0 0,-1.015 2.0475,0 0,-5.9675 -1.9425,0 0,-1.015 z m 1.96,-3.22 q 0.2625,-0.2625 0.63,-0.2625 0.3675,0 0.63,0.28 0.28,0.2625 0.28,0.63 0,0.3675 -0.28,0.63 -0.2625,0.2625 -0.63,0.2625 -0.3675,0 -0.63,-0.2625 -0.2625,-0.2625 -0.2625,-0.63 0,-0.385 0.2625,-0.6475 z"
         style="font-size:17.5px"
         id="path4295"
         inkscape:connector-curvature="0" />
      <path
         d="m 119.4594,173.78112 5.4075,0 0,1.0325 -2.1525,0 0,8.8725 2.2575,0 0,1.015 -5.635,0 0,-1.0325 2.1525,0 0,-8.855 -2.03,0 0,-1.0325 z"
         style="font-size:17.5px"
         id="path4297"
         inkscape:connector-curvature="0" />
      <path
         d="m 128.1569,173.04612 3.535,0 0,10.6225 2.345,0 0,1.015 -5.985,0 0,-1.015 2.3625,0 0,-9.6075 -2.2575,0 0,-1.015 z"
         style="font-size:17.5px"
         id="path4299"
         inkscape:connector-curvature="0" />
      <path
         d="m 136.5744,173.78112 1.435,0 q 0,0.1225 -0.0875,0.28 -0.07,0.1575 -0.07,0.315 l 0,9.24 5.25,0 0,1.0675 -6.5275,0 0,-10.9025 z"
         style="font-size:17.5px"
         id="path4301"
         inkscape:connector-curvature="0" />
      <path
         d="m 149.4019,173.76362 0,10.92 -1.2075,0 0,-9.3975 -2.205,0.6475 -0.28,-0.6825 2.8525,-1.4875 0.84,0 z"
         style="font-size:17.5px"
         id="path4303"
         inkscape:connector-curvature="0" />
      <path
         d="m 164.4519,184.40362 0.07,-1.75 q 0,-1.155 -0.42,-1.5575 -0.4025,-0.4025 -1.155,-0.4025 l -0.35,0 0,-0.98 0.3325,0 q 0.805,0 1.2075,-0.4375 0.42,-0.4375 0.42,-1.435 l -0.035,-1.26 q 0,-3.045 3.185,-3.045 l 1.1025,0 0,0.9975 -1.435,0 q -1.6275,0 -1.6275,1.855 l 0.035,1.225 q 0,1.9425 -1.5225,2.59 1.4875,0.49 1.4875,2.7125 l -0.0525,1.47 q 0,1.19 0.5075,1.645 0.525,0.455 1.6975,0.455 l 0.8925,0 0,0.98 -0.63,0 q -0.84,0 -1.5225,-0.07 -0.665,-0.0525 -1.2075,-0.455 -0.98,-0.77 -0.98,-2.5375 z"
         style="font-size:17.5px"
         id="path4305"
         inkscape:connector-curvature="0" />
      <path
         d="m 176.3344,176.58112 -0.0525,1.26 q 0,0.9975 0.42,1.435 0.42,0.4375 1.2075,0.4375 l 0.35,0 0,0.98 -0.3675,0 q -0.7525,0 -1.155,0.4025 -0.4025,0.4025 -0.4025,1.5575 l 0.0525,1.75 q 0,1.5575 -0.7,2.31 -0.7,0.7525 -2.205,0.7525 l -1.435,0 0,-0.98 0.9625,0 q 0.385,0 0.6125,-0.0175 0.245,-0.0175 0.385,-0.07 0.1575,-0.035 0.245,-0.0875 0.105,-0.0525 0.1925,-0.1225 0.7175,-0.5075 0.7175,-1.8025 l -0.0525,-1.47 q 0,-2.205 1.47,-2.7125 -1.5225,-0.6475 -1.5225,-2.59 l 0.0525,-1.225 q 0,-0.9975 -0.4375,-1.4175 -0.4375,-0.4375 -1.33,-0.4375 l -1.3125,0 0,-0.9975 0.5425,0 q 0.595,0 1.26,0.0525 0.665,0.035 1.225,0.3675 0.56,0.3325 0.91,0.945 0.3675,0.6125 0.3675,1.68 z"
         style="font-size:17.5px"
         id="path4307"
         inkscape:connector-curvature="0" />
      <path
         d="m 190.2119,172.95862 5.005,0 0,1.05 -3.885,0 0,11.235 3.9025,0 0,0.9975 -5.0225,0 0,-13.2825 z"
         style="font-size:17.5px"
         id="path4309"
         inkscape:connector-curvature="0" />
      <path
         d="m 203.1269,172.95862 0,13.2825 -5.005,0 0,-0.9975 3.9025,0 0,-11.235 -3.885,0 0,-1.05 4.9875,0 z"
         style="font-size:17.5px"
         id="path4311"
         inkscape:connector-curvature="0" />
      <path
         d="m 216.8819,177.94612 q -0.2625,0.2625 -0.385,0.5775 -0.1225,0.315 -0.1225,0.665 0,0.35 0.14,0.6825 0.14,0.315 0.3675,0.56 0.245,0.2275 0.56,0.3675 0.3325,0.14 0.6825,0.14 0.3675,0 0.6825,-0.14 0.315,-0.14 0.56,-0.385 0.245,-0.245 0.385,-0.56 0.14,-0.315 0.14,-0.665 0,-0.35 -0.14,-0.665 -0.14,-0.3325 -0.385,-0.5775 -0.245,-0.245 -0.5775,-0.385 -0.315,-0.14 -0.665,-0.14 -0.7175,0 -1.2425,0.525 z m 3.22,-0.7525 q 0.84,-0.7175 1.995,-0.7175 l 0.2275,0 0.1575,1.0325 q -0.1225,-0.0175 -0.245,-0.0175 -0.105,-0.0175 -0.2275,-0.0175 -0.77,0 -1.3825,0.385 0.4025,0.6125 0.4025,1.3475 0,0.56 -0.2275,1.0675 -0.2275,0.49 -0.63,0.875 -0.385,0.3675 -0.91,0.595 -0.525,0.21 -1.12,0.21 -0.49,0 -1.015,-0.1925 -0.56,0.5425 -0.56,0.91 0,0.2975 0.3325,0.4725 0.35,0.1575 0.945,0.1575 0.3325,0 0.665,-0.0175 0.35,-0.035 0.6475,-0.035 0.7875,0 1.3475,0.1575 0.5775,0.14 0.9275,0.42 0.35,0.2625 0.525,0.63 0.175,0.3675 0.175,0.7875 0,0.4725 -0.2275,0.91 -0.2275,0.455 -0.6825,0.7875 -0.455,0.35 -1.155,0.5425 -0.6825,0.21 -1.61,0.21 -0.9625,0 -1.6625,-0.1575 -0.6825,-0.14 -1.1025,-0.4025 -0.42,-0.2625 -0.6475,-0.6125 -0.21,-0.3325 -0.21,-0.7175 0,-0.945 1.3125,-1.7675 -0.6475,-0.3325 -0.6475,-1.1025 0,-0.7525 0.91,-1.505 -0.56,-0.3675 -0.875,-0.945 -0.315,-0.5775 -0.315,-1.225 0,-0.595 0.245,-1.1025 0.245,-0.525 0.6475,-0.91 0.42,-0.385 0.945,-0.595 0.5425,-0.2275 1.1025,-0.2275 1.1725,0 1.9425,0.77 z m -3.115,7.07 q -0.9975,0.56 -0.9975,1.225 0,0.35 0.1925,0.5775 0.21,0.245 0.5425,0.385 0.35,0.1575 0.805,0.2275 0.4725,0.07 0.98,0.07 1.0675,0 1.7675,-0.385 0.7,-0.385 0.7,-1.0325 -0.035,-0.4725 -0.4025,-0.735 -0.35,-0.2625 -1.12,-0.2625 -0.0875,0 -0.175,0.0175 -0.0875,0 -0.175,0 -0.665,0 -1.19,-0.0175 -0.525,-0.035 -0.9275,-0.07 z"
         style="font-size:17.5px"
         id="path4313"
         inkscape:connector-curvature="0" />
      <path
         d="m 226.7169,184.85862 q -1.4,0 -2.415,-0.9975 l 0.8575,-0.9275 q 0.0875,0.0525 0.14,0.21 0.07,0.1575 0.14,0.21 0.5075,0.4025 1.2425,0.4025 1.3125,0 1.96,-0.98 0.6475,-0.9975 0.7175,-3.22 -0.385,0.5425 -0.98,0.8575 -0.595,0.315 -1.2775,0.315 -0.6125,0 -1.155,-0.245 -0.5425,-0.2625 -0.9625,-0.7175 -0.4025,-0.455 -0.6475,-1.085 -0.2275,-0.6475 -0.2275,-1.4175 0,-0.77 0.245,-1.4175 0.245,-0.665 0.665,-1.1375 0.4375,-0.49 0.9975,-0.7525 0.5775,-0.28 1.225,-0.28 1.5925,0 2.45,1.3825 0.875,1.365 0.875,4.3925 0,1.3825 -0.315,2.3975 -0.2975,1.015 -0.8225,1.68 -0.525,0.6475 -1.225,0.98 -0.7,0.3325 -1.4875,0.35 z m 2.5725,-6.5275 q 0.0175,-0.14 0.0175,-0.2625 0,-0.14 0,-0.28 0,-0.6825 -0.175,-1.2425 -0.1575,-0.56 -0.4375,-0.945 -0.28,-0.4025 -0.6475,-0.6125 -0.3675,-0.2275 -0.7525,-0.2275 -0.8925,0 -1.4525,0.665 -0.5425,0.665 -0.5425,1.82 0,0.56 0.1575,1.015 0.1575,0.4375 0.4025,0.7525 0.2625,0.315 0.5775,0.49 0.3325,0.1575 0.6825,0.1575 0.7,0 1.2425,-0.35 0.56,-0.3675 0.9275,-0.98 z"
         style="font-size:17.5px"
         id="path4315"
         inkscape:connector-curvature="0" />
      <path
         d="m 238.2144,177.85862 0,-1.1725 1.19,0 0,10.92 -1.26,0 0,-4.2 q -0.3675,0.665 -1.0325,1.0675 -0.665,0.385 -1.4175,0.385 -0.6825,0 -1.295,-0.2975 -0.595,-0.315 -1.05,-0.875 -0.4375,-0.56 -0.7,-1.3475 -0.245,-0.7875 -0.245,-1.75 0,-0.9625 0.28,-1.715 0.28,-0.77 0.7525,-1.295 0.49,-0.5425 1.12,-0.8225 0.6475,-0.28 1.365,-0.28 1.47,0 2.17,1.1725 0.1225,0.175 0.1225,0.21 z m -2.2925,-0.35 q -0.455,0 -0.8575,0.1925 -0.4025,0.175 -0.7175,0.5425 -0.2975,0.3675 -0.49,0.945 -0.175,0.56 -0.175,1.3125 0,0.77 0.175,1.3825 0.1925,0.595 0.5075,1.015 0.315,0.42 0.7175,0.6475 0.42,0.21 0.8925,0.21 0.9975,0 1.5575,-0.7525 0.5775,-0.7525 0.5775,-2.4325 0,-1.715 -0.595,-2.38 -0.595,-0.6825 -1.5925,-0.6825 z"
         style="font-size:17.5px"
         id="path4317"
         inkscape:connector-curvature="0" />
      <path
         d="m 247.3844,176.24862 q 0,-0.21 -0.0525,-0.315 -0.35,-0.5775 -0.91,-0.91 -0.56,-0.35 -1.19,-0.35 -0.595,0 -1.12,0.315 -0.525,0.2975 -0.9275,0.8925 -0.4025,0.5775 -0.63,1.4175 -0.2275,0.84 -0.2275,1.9075 0,1.0325 0.2275,1.89 0.2275,0.84 0.63,1.4525 0.42,0.595 0.9625,0.9275 0.56,0.3325 1.19,0.3325 0.6475,0 1.2425,-0.35 0.6125,-0.3675 0.98,-0.98 l 0.91,0.595 q -0.2625,0.4375 -0.63,0.77 -0.3675,0.3325 -0.7875,0.56 -0.4025,0.2275 -0.8225,0.3325 -0.4025,0.1225 -0.8225,0.1225 -0.945,0 -1.68,-0.315 -0.7175,-0.3325 -1.33,-1.015 -0.595,-0.6825 -0.9275,-1.7325 -0.3325,-1.05 -0.3325,-2.5025 0,-1.61 0.385,-2.6775 0.385,-1.085 1.015,-1.7325 0.63,-0.6475 1.33,-0.91 0.7175,-0.28 1.3825,-0.28 0.5425,0 1.05,0.1575 0.525,0.1575 0.9625,0.4375 0.455,0.28 0.805,0.6825 0.35,0.385 0.56,0.875 l -1.1725,0.5775 q -0.07,-0.0525 -0.07,-0.175 z"
         style="font-size:17.5px"
         id="path4319"
         inkscape:connector-curvature="0" />
      <path
         d="m 257.1844,175.49612 -0.8575,0.875 q -0.105,-0.07 -0.2275,-0.3325 -0.2625,-0.5775 -0.8225,-0.9275 -0.5425,-0.3675 -1.2775,-0.3675 -0.5075,0 -1.05,0.21 -0.525,0.21 -0.9625,0.7175 -0.4375,0.5075 -0.7175,1.3475 -0.2625,0.8225 -0.2625,2.0825 0,1.1375 0.2275,2.0125 0.2275,0.875 0.63,1.47 0.4025,0.5775 0.945,0.8925 0.56,0.2975 1.2075,0.2975 1.1375,0 2.065,-0.665 l 0,-2.59 -1.9775,0 0,-1.0675 3.115,0 0,4.27 q -1.5575,1.1375 -3.2025,1.1375 -0.98,0 -1.7675,-0.385 -0.77,-0.4025 -1.33,-1.12 -0.5425,-0.7175 -0.84,-1.7325 -0.28,-1.015 -0.28,-2.2575 0,-1.715 0.42,-2.87 0.4375,-1.155 1.12,-1.75 0.6825,-0.6125 1.3825,-0.84 0.7175,-0.2275 1.295,-0.2275 0.9975,0 1.855,0.5075 0.8575,0.49 1.3125,1.3125 z"
         style="font-size:17.5px"
         id="path4321"
         inkscape:connector-curvature="0" />
      <path
         d="m 260.5269,175.68862 q -0.91,1.0325 -0.91,3.3425 0,1.05 0.175,1.9075 0.1925,0.8575 0.5425,1.47 0.3675,0.6125 0.8925,0.9625 0.5425,0.35 1.1725,0.35 0.4375,0 0.8925,-0.21 0.4725,-0.2275 0.8575,-0.7175 0.385,-0.5075 0.6125,-1.295 0.2275,-0.805 0.2275,-1.96 0,-1.47 -0.245,-2.3975 -0.245,-0.9275 -0.6825,-1.4525 -0.42,-0.525 -0.875,-0.7175 -0.455,-0.21 -0.875,-0.21 -0.525,0 -0.98,0.2625 -0.455,0.2625 -0.805,0.665 z m 5.635,3.5525 q 0,2.415 -0.8225,3.815 -0.805,1.4 -2.3975,1.75 0.035,0.5775 0.2975,0.945 0.2625,0.3675 0.9975,0.3675 0.0875,0 0.28,-0.0175 0.1925,-0.0175 0.42,-0.035 0.2275,0 0.42,-0.0175 0.21,-0.0175 0.2975,-0.0175 l -0.035,1.19 -0.6825,0 q -0.8575,0 -1.4525,-0.0875 -0.5775,-0.0875 -0.945,-0.4025 -0.35,-0.315 -0.5075,-0.7875 -0.1575,-0.455 -0.1575,-1.1375 -0.665,-0.0875 -1.2775,-0.455 -0.6125,-0.385 -1.1025,-1.0675 -0.49,-0.6825 -0.7875,-1.6625 -0.28,-0.9975 -0.28,-2.3275 0,-1.645 0.3675,-2.73 0.385,-1.085 0.9625,-1.715 0.5775,-0.63 1.26,-0.91 0.6825,-0.28 1.295,-0.28 0.7525,0 1.435,0.315 0.7,0.315 1.26,1.015 0.5775,0.6825 0.8575,1.715 0.2975,1.0325 0.2975,2.5375 z"
         style="font-size:17.5px"
         id="path4323"
         inkscape:connector-curvature="0" />
      <path
         d="m 277.0119,180.22112 -0.875,-0.5775 q 0.42,-0.6825 1.05,-1.12 0.6475,-0.4375 1.2425,-0.4375 0.6125,0 1.0325,0.21 0.4375,0.1925 0.7,0.4375 0.7175,0.665 1.19,0.665 0.49,0 0.8225,-0.28 0.3325,-0.28 0.77,-0.8575 l 0.805,0.665 q -0.21,0.315 -0.49,0.6125 -0.28,0.2975 -0.5775,0.525 -0.2975,0.21 -0.6125,0.35 -0.315,0.1225 -0.63,0.1225 -0.595,0 -1.015,-0.21 -0.42,-0.2275 -0.665,-0.49 -0.6475,-0.7 -1.295,-0.7 -0.7875,0 -1.4525,1.085 z"
         style="font-size:17.5px"
         id="path4325"
         inkscape:connector-curvature="0" />
      <path
         d="m 285.4119,178.59362 6.3,0 0,1.1725 -6.3,0 0,-1.1725 z"
         style="font-size:17.5px"
         id="path4327"
         inkscape:connector-curvature="0" />
      <path
         d="m 296.8044,175.53112 1.1025,0 0,2.9925 2.9925,0 0,1.0675 -2.9925,0 0,3.2725 -1.1025,0 0,-3.2725 -3.0975,0 0,-1.0675 3.0975,0 0,-2.9925 z"
         style="font-size:17.5px"
         id="path4329"
         inkscape:connector-curvature="0" />
      <path
         d="m 302.4569,177.01862 7.1925,0 0,1.0675 -7.1925,0 0,-1.0675 z m 0,3.6225 7.1925,0 0,1.0675 -7.1925,0 0,-1.0675 z"
         style="font-size:17.5px"
         id="path4331"
         inkscape:connector-curvature="0" />
      <path
         d="m 311.1544,176.00362 0,-1.2425 7.42,3.9025 0,0.84 -7.455,4.3575 0,-1.33 6.1075,-3.43 -6.0725,-3.0975 z"
         style="font-size:17.5px"
         id="path4333"
         inkscape:connector-curvature="0" />
    </g>
  </g>
</svg>
