<?xml version="1.0" encoding="UTF-8" standalone="no"?>
<svg
   version="1.1"
   id="svg2"
   viewBox="0 0 284.98146 105.04749"
   height="29.646736mm"
   width="80.428101mm"
   sodipodi:docname="Inconsolata Nerd Font.svg"
   inkscape:version="1.1.2 (0a00cf5339, 2022-02-04)"
   xmlns:inkscape="http://www.inkscape.org/namespaces/inkscape"
   xmlns:sodipodi="http://sodipodi.sourceforge.net/DTD/sodipodi-0.dtd"
   xmlns="http://www.w3.org/2000/svg"
   xmlns:svg="http://www.w3.org/2000/svg"
   xmlns:rdf="http://www.w3.org/1999/02/22-rdf-syntax-ns#"
   xmlns:cc="http://creativecommons.org/ns#"
   xmlns:dc="http://purl.org/dc/elements/1.1/">
  <sodipodi:namedview
     id="namedview12"
     pagecolor="#ffffff"
     bordercolor="#666666"
     borderopacity="1.0"
     inkscape:pageshadow="2"
     inkscape:pageopacity="0.0"
     inkscape:pagecheckerboard="0"
     inkscape:document-units="mm"
     showgrid="false"
     inkscape:zoom="0.64052329"
     inkscape:cx="328.63754"
     inkscape:cy="473.83133"
     inkscape:window-width="1458"
     inkscape:window-height="976"
     inkscape:window-x="0"
     inkscape:window-y="32"
     inkscape:window-maximized="0"
     inkscape:current-layer="svg2" />
  <defs
     id="defs4" />
  <metadata
     id="metadata7">
    <rdf:RDF>
      <cc:Work
         rdf:about="">
        <dc:format>image/svg+xml</dc:format>
        <dc:type
           rdf:resource="http://purl.org/dc/dcmitype/StillImage" />
      </cc:Work>
    </rdf:RDF>
  </metadata>
  <g
     id="layer1"
     transform="translate(-65.084643,-82.646132)">
    <g
       aria-label="Inconsolata Nerd Font"
       id="text4136"
       style="font-size:27.5px;line-height:125%;font-family:'Inconsolata Nerd Font';text-decoration:underline;text-decoration-line:underline;letter-spacing:0px;word-spacing:0px;fill:#ffffff;stroke-width:1px">
      <path
         d="M 65.084643,100.93363 V 99.311132 H 68.467143 V 85.423632 H 65.277143 V 83.801132 H 73.774643 V 85.423632 H 70.392143 V 99.338632 H 73.939643 V 100.93363 Z"
         id="path829" />
      <path
         d="M 78.587091,100.93363 V 88.366132 H 80.512091 V 90.593632 Q 81.227091,89.438632 82.354591,88.751132 83.509591,88.063632 84.774591,88.063632 86.314591,88.063632 87.387091,89.273632 88.459591,90.456132 88.459591,93.316132 V 100.93363 H 86.534591 V 93.371132 Q 86.534591,91.391132 85.847091,90.593632 85.187091,89.796132 84.224591,89.796132 83.399591,89.796132 82.519591,90.291132 81.667091,90.758632 81.089591,91.638632 80.512091,92.491132 80.512091,93.701132 V 100.93363 Z"
         id="path831" />
      <path
         d="M 98.194538,101.23613 Q 96.379538,101.23613 94.949538,100.38363 93.519538,99.531132 92.694538,98.046132 91.897038,96.561132 91.897038,94.663632 91.897038,92.766132 92.694538,91.308632 93.519538,89.823632 94.922038,88.971132 96.352038,88.118632 98.167038,88.118632 99.707038,88.118632 100.91704,88.751132 102.15454,89.356132 102.92454,90.456132 L 101.68704,91.666132 101.49454,91.858632 101.35704,91.721132 Q 101.35704,91.501132 101.24704,91.308632 101.16454,91.116132 100.83454,90.786132 100.22954,90.236132 99.542038,90.016132 98.854538,89.796132 97.947038,89.796132 96.902038,89.796132 95.967038,90.373632 95.059538,90.951132 94.482038,92.023632 93.932038,93.068632 93.932038,94.526132 93.932038,95.928632 94.482038,97.056132 95.059538,98.156132 96.049538,98.816132 97.039538,99.448632 98.304538,99.448632 100.20204,99.448632 101.57704,97.908632 L 102.73204,99.256132 Q 100.88954,101.23613 98.194538,101.23613 Z"
         id="path833" />
      <path
         d="M 110.98199,101.15363 Q 109.27699,101.15363 107.95699,100.32863 106.66449,99.476132 105.92199,98.018632 105.17949,96.533632 105.17949,94.636132 105.17949,92.711132 105.92199,91.253632 106.66449,89.768632 107.95699,88.943632 109.27699,88.091132 110.98199,88.091132 112.68699,88.091132 113.97949,88.943632 115.29949,89.768632 116.04199,91.253632 116.78449,92.711132 116.78449,94.636132 116.78449,96.533632 116.04199,98.018632 115.29949,99.476132 113.97949,100.32863 112.68699,101.15363 110.98199,101.15363 Z M 110.98199,99.503632 Q 112.08199,99.503632 112.90699,98.871132 113.73199,98.238632 114.19949,97.138632 114.69449,96.038632 114.69449,94.608632 114.69449,92.463632 113.64949,91.116132 112.60449,89.741132 110.98199,89.741132 109.35949,89.741132 108.31449,91.116132 107.26949,92.463632 107.26949,94.608632 107.26949,96.038632 107.73699,97.138632 108.23199,98.238632 109.05699,98.871132 109.90949,99.503632 110.98199,99.503632 Z"
         id="path835" />
      <path
         d="M 119.83693,100.93363 V 88.366132 H 121.76193 V 90.593632 Q 122.47693,89.438632 123.60443,88.751132 124.75943,88.063632 126.02443,88.063632 127.56443,88.063632 128.63693,89.273632 129.70943,90.456132 129.70943,93.316132 V 100.93363 H 127.78443 V 93.371132 Q 127.78443,91.391132 127.09693,90.593632 126.43693,89.796132 125.47443,89.796132 124.64943,89.796132 123.76943,90.291132 122.91693,90.758632 122.33943,91.638632 121.76193,92.491132 121.76193,93.701132 V 100.93363 Z"
         id="path837" />
      <path
         d="M 138.50938,101.20863 Q 135.31938,101.20863 133.17438,99.228632 L 134.27438,97.358632 134.43938,97.111132 134.60438,97.221132 Q 134.65938,97.441132 134.71438,97.688632 134.79688,97.908632 135.09938,98.238632 135.67688,98.816132 136.47438,99.201132 137.29938,99.558632 138.56438,99.558632 140.07688,99.558632 140.90188,99.036132 141.75438,98.486132 141.75438,97.551132 141.75438,96.753632 141.03938,96.231132 140.35188,95.708632 138.59188,95.131132 136.41938,94.498632 135.12688,93.563632 133.86188,92.628632 133.86188,91.226132 133.86188,89.796132 135.01688,88.943632 136.19938,88.063632 138.48188,88.063632 140.24188,88.063632 141.39688,88.558632 142.55188,89.053632 143.48688,90.043632 L 142.35938,91.418632 142.16688,91.638632 142.02938,91.501132 Q 142.00188,91.281132 141.89188,91.088632 141.80938,90.868632 141.50688,90.566132 140.87438,90.071132 140.07688,89.823632 139.27938,89.548632 138.53688,89.548632 137.43688,89.548632 136.63938,89.933632 135.84188,90.318632 135.84188,91.116132 135.84188,91.528632 136.11688,91.941132 136.41938,92.326132 137.18938,92.738632 137.95938,93.123632 139.38938,93.536132 141.75438,94.251132 142.71688,95.103632 143.70688,95.928632 143.70688,97.276132 143.70688,98.321132 143.12938,99.228632 142.57938,100.13613 141.42438,100.68613 140.26938,101.20863 138.50938,101.20863 Z"
         id="path839" />
      <path
         d="M 152.23183,101.15363 Q 150.52683,101.15363 149.20683,100.32863 147.91433,99.476132 147.17183,98.018632 146.42933,96.533632 146.42933,94.636132 146.42933,92.711132 147.17183,91.253632 147.91433,89.768632 149.20683,88.943632 150.52683,88.091132 152.23183,88.091132 153.93683,88.091132 155.22933,88.943632 156.54933,89.768632 157.29183,91.253632 158.03433,92.711132 158.03433,94.636132 158.03433,96.533632 157.29183,98.018632 156.54933,99.476132 155.22933,100.32863 153.93683,101.15363 152.23183,101.15363 Z M 152.23183,99.503632 Q 153.33183,99.503632 154.15683,98.871132 154.98183,98.238632 155.44933,97.138632 155.94433,96.038632 155.94433,94.608632 155.94433,92.463632 154.89933,91.116132 153.85433,89.741132 152.23183,89.741132 150.60933,89.741132 149.56433,91.116132 148.51933,92.463632 148.51933,94.608632 148.51933,96.038632 148.98683,97.138632 149.48183,98.238632 150.30683,98.871132 151.15933,99.503632 152.23183,99.503632 Z"
         id="path841" />
      <path
         d="M 161.27928,100.93363 V 99.338632 H 164.99178 V 84.241132 H 161.44428 V 82.646132 H 166.99928 V 99.338632 H 170.68428 V 100.93363 Z"
         id="path843" />
      <path
         d="M 178.65922,101.23613 Q 176.51422,101.23613 175.35922,100.27363 174.20422,99.283632 174.20422,97.771132 174.20422,96.423632 175.05672,95.461132 175.90922,94.471132 177.33922,93.948632 178.79672,93.398632 180.52922,93.398632 181.16172,93.398632 181.84922,93.426132 182.56422,93.453632 183.36172,93.563632 183.19672,91.363632 182.20672,90.538632 181.24422,89.713632 179.42922,89.713632 178.52172,89.713632 177.64172,90.071132 176.76172,90.401132 176.04672,91.116132 L 175.08422,89.851132 Q 175.96422,88.971132 177.11922,88.531132 178.27422,88.091132 179.56672,88.091132 181.24422,88.091132 182.48172,88.641132 183.71922,89.191132 184.40672,90.538632 185.09422,91.886132 185.09422,94.251132 V 100.93363 H 182.94922 V 99.008632 Q 182.48172,99.916132 181.73922,100.41113 181.02422,100.87863 180.19922,101.04363 179.40172,101.23613 178.65922,101.23613 Z M 176.18422,97.661132 Q 176.18422,98.843632 176.95422,99.283632 177.72422,99.723632 178.85172,99.723632 180.88672,99.723632 182.06922,98.541132 183.25172,97.331132 183.36172,95.076132 181.93172,94.883632 180.69422,94.883632 178.71422,94.883632 177.44922,95.543632 176.18422,96.203632 176.18422,97.661132 Z"
         id="path845" />
      <path
         d="M 194.82917,101.12613 Q 193.20667,101.12613 192.35417,100.38363 191.52917,99.641132 191.25417,98.101132 190.97917,96.533632 191.06167,94.113632 L 191.22667,89.988632 H 188.53167 V 88.366132 H 191.28167 L 191.39167,85.148632 193.45417,84.901132 193.72917,84.873632 193.75667,85.066132 Q 193.61917,85.258632 193.50917,85.451132 193.42667,85.643632 193.37167,86.111132 L 193.17917,88.366132 H 197.57917 V 89.988632 H 193.20667 L 193.01417,94.251132 Q 192.93167,96.341132 193.12417,97.496132 193.31667,98.623632 193.81167,99.063632 194.30667,99.476132 195.13167,99.476132 196.03917,99.476132 196.72667,99.118632 197.44167,98.761132 198.21167,98.211132 L 198.81667,99.778632 Q 197.88167,100.46613 196.89167,100.79613 195.90167,101.12613 194.82917,101.12613 Z"
         id="path847" />
      <path
         d="M 206.15912,101.23613 Q 204.01412,101.23613 202.85912,100.27363 201.70412,99.283632 201.70412,97.771132 201.70412,96.423632 202.55662,95.461132 203.40912,94.471132 204.83912,93.948632 206.29662,93.398632 208.02912,93.398632 208.66162,93.398632 209.34912,93.426132 210.06412,93.453632 210.86162,93.563632 210.69662,91.363632 209.70662,90.538632 208.74412,89.713632 206.92912,89.713632 206.02162,89.713632 205.14162,90.071132 204.26162,90.401132 203.54662,91.116132 L 202.58412,89.851132 Q 203.46412,88.971132 204.61912,88.531132 205.77412,88.091132 207.06662,88.091132 208.74412,88.091132 209.98162,88.641132 211.21912,89.191132 211.90662,90.538632 212.59412,91.886132 212.59412,94.251132 V 100.93363 H 210.44912 V 99.008632 Q 209.98162,99.916132 209.23912,100.41113 208.52412,100.87863 207.69912,101.04363 206.90162,101.23613 206.15912,101.23613 Z M 203.68412,97.661132 Q 203.68412,98.843632 204.45412,99.283632 205.22412,99.723632 206.35162,99.723632 208.38662,99.723632 209.56912,98.541132 210.75162,97.331132 210.86162,95.076132 209.43162,94.883632 208.19412,94.883632 206.21412,94.883632 204.94912,95.543632 203.68412,96.203632 203.68412,97.661132 Z"
         id="path849" />
      <path
         d="M 229.23152,83.801132 H 231.10152 L 238.30652,96.506132 V 83.801132 H 240.39652 V 83.993632 Q 240.23152,84.158632 240.17652,84.351132 240.14902,84.543632 240.14902,85.011132 V 100.93363 H 238.63652 L 231.07402,87.458632 V 100.93363 H 229.23152 Z"
         id="path851" />
      <path
         d="M 249.08646,101.20863 Q 246.33646,101.20863 244.63146,99.531132 242.95396,97.853632 242.95396,94.691132 242.95396,92.546132 243.72396,91.088632 244.52146,89.603632 245.81396,88.833632 247.13396,88.063632 248.72896,88.063632 250.15896,88.063632 251.31396,88.696132 252.46896,89.328632 253.15646,90.648632 253.84396,91.968632 253.84396,94.031132 253.84396,94.251132 253.81646,94.498632 253.81646,94.718632 253.78896,94.938632 H 244.85146 Q 244.96146,97.358632 246.19896,98.486132 247.46396,99.613632 249.14146,99.613632 251.12146,99.613632 252.38646,98.211132 L 253.48646,99.283632 Q 251.89146,101.20863 249.08646,101.20863 Z M 244.93396,93.398632 H 251.83646 Q 251.83646,91.638632 250.92896,90.621132 250.04896,89.576132 248.59146,89.576132 247.29896,89.576132 246.25396,90.511132 245.20896,91.418632 244.93396,93.398632 Z"
         id="path853" />
      <path
         d="M 258.62891,88.366132 H 260.69141 L 260.63641,90.676132 Q 261.15891,89.411132 262.25891,88.751132 263.35891,88.063632 264.62391,88.063632 266.63141,88.063632 267.95141,89.438632 L 267.07141,90.978632 266.96141,91.226132 266.76891,91.116132 Q 266.71391,90.896132 266.60391,90.703632 266.49391,90.511132 266.13641,90.236132 265.69641,89.961132 265.31141,89.878632 264.95391,89.768632 264.48641,89.768632 263.57891,89.768632 262.67141,90.236132 261.79141,90.703632 261.21391,91.693632 260.63641,92.683632 260.63641,94.278632 V 100.96113 H 258.62891 Z"
         id="path855" />
      <path
         d="M 275.54135,101.20863 Q 274.27635,101.20863 273.06635,100.49363 271.88385,99.751132 271.11385,98.266132 270.34385,96.781132 270.34385,94.526132 270.34385,92.216132 271.14135,90.786132 271.93885,89.356132 273.14885,88.696132 274.38635,88.036132 275.65135,88.036132 276.94385,88.036132 277.87885,88.641132 278.84135,89.218632 279.30885,90.208632 V 82.646132 H 281.39885 V 82.838632 Q 281.23385,83.003632 281.17885,83.196132 281.15135,83.388632 281.15135,83.856132 L 281.17885,98.981132 Q 281.17885,99.476132 281.20635,99.971132 281.26135,100.43863 281.45385,100.93363 H 279.50135 Q 279.30885,100.43863 279.25385,99.971132 279.22635,99.476132 279.22635,98.981132 278.62135,99.998632 277.68635,100.60363 276.75135,101.20863 275.54135,101.20863 Z M 275.84385,99.476132 Q 277.05385,99.476132 277.76885,98.816132 278.51135,98.156132 278.81385,97.056132 279.14385,95.928632 279.14385,94.581132 279.14385,92.463632 278.31885,91.061132 277.49385,89.658632 275.67885,89.658632 274.00135,89.658632 273.12135,90.896132 272.26885,92.133632 272.26885,94.223632 272.26885,96.588632 273.17635,98.046132 274.08385,99.476132 275.84385,99.476132 Z"
         id="path857" />
      <path
         d="M 298.75126,100.93363 V 83.773632 H 308.62376 V 85.451132 H 300.67626 V 90.841132 H 307.08376 V 92.518632 H 300.67626 V 100.93363 Z"
         id="path859" />
      <path
         d="M 317.2312,101.15363 Q 315.5262,101.15363 314.2062,100.32863 312.9137,99.476132 312.1712,98.018632 311.4287,96.533632 311.4287,94.636132 311.4287,92.711132 312.1712,91.253632 312.9137,89.768632 314.2062,88.943632 315.5262,88.091132 317.2312,88.091132 318.9362,88.091132 320.2287,88.943632 321.5487,89.768632 322.2912,91.253632 323.0337,92.711132 323.0337,94.636132 323.0337,96.533632 322.2912,98.018632 321.5487,99.476132 320.2287,100.32863 318.9362,101.15363 317.2312,101.15363 Z M 317.2312,99.503632 Q 318.3312,99.503632 319.1562,98.871132 319.9812,98.238632 320.4487,97.138632 320.9437,96.038632 320.9437,94.608632 320.9437,92.463632 319.8987,91.116132 318.8537,89.741132 317.2312,89.741132 315.6087,89.741132 314.5637,91.116132 313.5187,92.463632 313.5187,94.608632 313.5187,96.038632 313.9862,97.138632 314.4812,98.238632 315.3062,98.871132 316.1587,99.503632 317.2312,99.503632 Z"
         id="path861" />
      <path
         d="M 326.08614,100.93363 V 88.366132 H 328.01114 V 90.593632 Q 328.72614,89.438632 329.85364,88.751132 331.00864,88.063632 332.27364,88.063632 333.81364,88.063632 334.88614,89.273632 335.95864,90.456132 335.95864,93.316132 V 100.93363 H 334.03364 V 93.371132 Q 334.03364,91.391132 333.34614,90.593632 332.68614,89.796132 331.72364,89.796132 330.89864,89.796132 330.01864,90.291132 329.16614,90.758632 328.58864,91.638632 328.01114,92.491132 328.01114,93.701132 V 100.93363 Z"
         id="path863" />
      <path
         d="M 346.07861,101.12613 Q 344.45611,101.12613 343.60361,100.38363 342.77861,99.641132 342.50361,98.101132 342.22861,96.533632 342.31111,94.113632 L 342.47611,89.988632 H 339.78111 V 88.366132 H 342.53111 L 342.64111,85.148632 344.70361,84.901132 344.97861,84.873632 345.00611,85.066132 Q 344.86861,85.258632 344.75861,85.451132 344.67611,85.643632 344.62111,86.111132 L 344.42861,88.366132 H 348.82861 V 89.988632 H 344.45611 L 344.26361,94.251132 Q 344.18111,96.341132 344.37361,97.496132 344.56611,98.623632 345.06111,99.063632 345.55611,99.476132 346.38111,99.476132 347.28861,99.476132 347.97611,99.118632 348.69111,98.761132 349.46111,98.211132 L 350.06611,99.778632 Q 349.13111,100.46613 348.14111,100.79613 347.15111,101.12613 346.07861,101.12613 Z"
         id="path865" />
    </g>
    <g
       aria-label="abcdefghijklmnopqrstuvwxyzABCDEFGHIJKLMNOPQRSTUVWXYZ oO08 iIlL1 {} [] g9qCGQ ~-+=&gt;"
       id="text4140"
       style="font-size:27.5px;line-height:125%;font-family:'Inconsolata Nerd Font';letter-spacing:0px;word-spacing:0px;fill:#ffffff;stroke-width:1px">
      <path
         d="M 69.111903,141.12612 Q 67.746903,141.12612 67.011903,140.51362 66.276903,139.88362 66.276903,138.92112 66.276903,138.06362 66.819403,137.45112 67.361903,136.82112 68.271903,136.48862 69.199403,136.13862 70.301903,136.13862 70.704403,136.13862 71.141903,136.15612 71.596903,136.17362 72.104403,136.24362 71.999403,134.84362 71.369403,134.31862 70.756903,133.79362 69.601903,133.79362 69.024403,133.79362 68.464403,134.02112 67.904403,134.23112 67.449403,134.68612 L 66.836903,133.88112 Q 67.396903,133.32112 68.131903,133.04112 68.866903,132.76112 69.689403,132.76112 70.756903,132.76112 71.544403,133.11112 72.331903,133.46112 72.769403,134.31862 73.206903,135.17612 73.206903,136.68112 V 140.93362 H 71.841903 V 139.70862 Q 71.544403,140.28612 71.071903,140.60112 70.616903,140.89862 70.091903,141.00362 69.584403,141.12612 69.111903,141.12612 Z M 67.536903,138.85112 Q 67.536903,139.60362 68.026903,139.88362 68.516903,140.16362 69.234403,140.16362 70.529403,140.16362 71.281903,139.41112 72.034403,138.64112 72.104403,137.20612 71.194403,137.08362 70.406903,137.08362 69.146903,137.08362 68.341903,137.50362 67.536903,137.92362 67.536903,138.85112 Z"
         style="font-size:17.5px"
         id="path868" />
      <path
         d="M 78.82437,141.12612 Q 78.08937,141.12612 77.47687,140.79362 76.86437,140.46112 76.46187,139.88362 L 76.02437,140.93362 H 75.21937 V 129.29612 H 76.65437 V 129.41862 Q 76.54937,129.52362 76.51437,129.64612 76.49687,129.76862 76.49687,130.06612 V 134.16112 Q 76.88187,133.51362 77.52937,133.12862 78.19437,132.74362 78.87687,132.74362 80.32937,132.74362 81.23937,133.77612 82.16687,134.79112 82.16687,136.85612 82.16687,138.29112 81.67687,139.23612 81.18687,140.18112 80.41687,140.65362 79.66437,141.12612 78.82437,141.12612 Z M 78.66687,140.00612 Q 79.22687,140.00612 79.73437,139.72612 80.24187,139.42862 80.55687,138.74612 80.87187,138.06362 80.87187,136.92612 80.87187,135.33362 80.25937,134.58112 79.66437,133.82862 78.70187,133.82862 77.73937,133.82862 77.10937,134.70362 76.49687,135.56112 76.49687,136.96112 76.49687,138.34362 76.98687,139.18362 77.49437,140.00612 78.66687,140.00612 Z"
         style="font-size:17.5px"
         id="path870" />
      <path
         d="M 87.906836,141.12612 Q 86.751836,141.12612 85.841836,140.58362 84.931836,140.04112 84.406836,139.09612 83.899336,138.15112 83.899336,136.94362 83.899336,135.73612 84.406836,134.80862 84.931836,133.86362 85.824336,133.32112 86.734336,132.77862 87.889336,132.77862 88.869336,132.77862 89.639336,133.18112 90.426836,133.56612 90.916836,134.26612 L 90.129336,135.03612 90.006836,135.15862 89.919336,135.07112 Q 89.919336,134.93112 89.849336,134.80862 89.796836,134.68612 89.586836,134.47612 89.201836,134.12612 88.764336,133.98612 88.326836,133.84612 87.749336,133.84612 87.084336,133.84612 86.489336,134.21362 85.911836,134.58112 85.544336,135.26362 85.194336,135.92862 85.194336,136.85612 85.194336,137.74862 85.544336,138.46612 85.911836,139.16612 86.541836,139.58612 87.171836,139.98862 87.976836,139.98862 89.184336,139.98862 90.059336,139.00862 L 90.794336,139.86612 Q 89.621836,141.12612 87.906836,141.12612 Z"
         style="font-size:17.5px"
         id="path872" />
      <path
         d="M 95.764304,141.10862 Q 94.959304,141.10862 94.189304,140.65362 93.436804,140.18112 92.946804,139.23612 92.456804,138.29112 92.456804,136.85612 92.456804,135.38612 92.964304,134.47612 93.471804,133.56612 94.241804,133.14612 95.029304,132.72612 95.834304,132.72612 96.656804,132.72612 97.251804,133.11112 97.864304,133.47862 98.161804,134.10862 V 129.29612 H 99.491804 V 129.41862 Q 99.386804,129.52362 99.351804,129.64612 99.334304,129.76862 99.334304,130.06612 L 99.351804,139.69112 Q 99.351804,140.00612 99.369304,140.32112 99.404304,140.61862 99.526804,140.93362 H 98.284304 Q 98.161804,140.61862 98.126804,140.32112 98.109304,140.00612 98.109304,139.69112 97.724304,140.33862 97.129304,140.72362 96.534304,141.10862 95.764304,141.10862 Z M 95.956804,140.00612 Q 96.726804,140.00612 97.181804,139.58612 97.654304,139.16612 97.846804,138.46612 98.056804,137.74862 98.056804,136.89112 98.056804,135.54362 97.531804,134.65112 97.006804,133.75862 95.851804,133.75862 94.784304,133.75862 94.224304,134.54612 93.681804,135.33362 93.681804,136.66362 93.681804,138.16862 94.259304,139.09612 94.836804,140.00612 95.956804,140.00612 Z"
         style="font-size:17.5px"
         id="path874" />
      <path
         d="M 105.17927,141.10862 Q 103.42927,141.10862 102.34427,140.04112 101.27677,138.97362 101.27677,136.96112 101.27677,135.59612 101.76677,134.66862 102.27427,133.72362 103.09677,133.23362 103.93677,132.74362 104.95177,132.74362 105.86177,132.74362 106.59677,133.14612 107.33177,133.54862 107.76927,134.38862 108.20677,135.22862 108.20677,136.54112 108.20677,136.68112 108.18927,136.83862 108.18927,136.97862 108.17177,137.11862 H 102.48427 Q 102.55427,138.65862 103.34177,139.37612 104.14677,140.09362 105.21427,140.09362 106.47427,140.09362 107.27927,139.20112 L 107.97927,139.88362 Q 106.96427,141.10862 105.17927,141.10862 Z M 102.53677,136.13862 H 106.92927 Q 106.92927,135.01862 106.35177,134.37112 105.79177,133.70612 104.86427,133.70612 104.04177,133.70612 103.37677,134.30112 102.71177,134.87862 102.53677,136.13862 Z"
         style="font-size:17.5px"
         id="path876" />
      <path
         d="M 112.00424,133.93362 H 110.27174 V 132.93612 H 112.00424 V 132.27112 Q 112.00424,130.66112 112.82674,129.92612 113.66674,129.19112 114.94424,129.19112 115.69674,129.19112 116.34424,129.47112 117.00924,129.73362 117.44674,130.29362 L 116.78174,131.22112 116.67674,131.36112 116.57174,131.29112 Q 116.55424,131.15112 116.50174,131.01112 116.44924,130.87112 116.25674,130.66112 115.97674,130.41612 115.69674,130.31112 115.41674,130.20612 114.97924,130.20612 114.22674,130.20612 113.71924,130.67862 113.21174,131.13362 113.21174,132.27112 V 132.93612 H 115.83674 V 133.93362 H 113.21174 V 140.93362 H 112.00424 Z"
         style="font-size:17.5px"
         id="path878" />
      <path
         d="M 121.8742,138.22112 Q 121.1917,138.22112 120.6317,137.97612 120.3167,138.36112 120.3167,138.71112 120.3167,139.13112 120.8417,139.32362 121.3667,139.49862 122.7667,139.49862 123.9917,139.49862 124.6217,139.76112 125.2517,140.02362 125.4792,140.47862 125.7067,140.93362 125.7067,141.52862 125.7067,142.14112 125.3742,142.70112 125.0417,143.26112 124.2717,143.59362 123.5192,143.94362 122.2417,143.94362 120.5617,143.94362 119.5642,143.41862 118.5842,142.91112 118.5842,141.87862 118.5842,141.23112 118.9517,140.77612 119.3192,140.30362 119.8267,140.07612 119.2492,139.69112 119.2492,139.00862 119.2492,138.62362 119.4417,138.25612 119.6342,137.88862 119.9667,137.53862 119.0742,136.75112 119.0742,135.42112 119.0742,134.65112 119.4067,134.02112 119.7567,133.39112 120.3867,133.02362 121.0167,132.63862 121.8742,132.63862 122.5217,132.63862 123.0292,132.86612 123.5542,133.07612 123.9217,133.46112 124.3767,133.04112 124.8842,132.86612 125.3917,132.67362 126.0742,132.72612 L 126.2317,133.75862 Q 125.7067,133.70612 125.2342,133.77612 124.7792,133.84612 124.3767,134.10862 124.6742,134.70362 124.6742,135.42112 124.6742,136.19112 124.3242,136.83862 123.9917,137.46862 123.3617,137.85362 122.7492,138.22112 121.8742,138.22112 Z M 121.8742,137.17112 Q 122.6442,137.17112 123.1342,136.66362 123.6242,136.13862 123.6242,135.42112 123.6242,134.70362 123.1342,134.19612 122.6442,133.67112 121.8742,133.67112 121.1217,133.67112 120.6142,134.19612 120.1242,134.70362 120.1242,135.42112 120.1242,136.13862 120.6142,136.66362 121.1217,137.17112 121.8742,137.17112 Z M 119.7392,141.73862 Q 119.7392,142.33362 120.4042,142.66612 121.0867,142.99862 122.2592,142.99862 123.4492,142.99862 123.9917,142.63112 124.5517,142.28112 124.5517,141.72112 124.5517,141.33612 124.4117,141.09112 124.2717,140.84612 123.8342,140.72362 123.3967,140.60112 122.5042,140.60112 121.8917,140.60112 121.3842,140.54862 120.8942,140.49612 120.4917,140.37362 120.0892,140.65362 119.9142,140.93362 119.7392,141.23112 119.7392,141.73862 Z"
         style="font-size:17.5px"
         id="path880" />
      <path
         d="M 127.94667,129.29612 H 129.32917 V 129.41862 Q 129.22417,129.52362 129.18917,129.64612 129.17167,129.76862 129.17167,130.06612 V 134.35362 Q 129.64417,133.61862 130.34417,133.18112 131.06167,132.74362 131.79667,132.74362 132.88167,132.74362 133.54667,133.51362 134.22917,134.26612 134.22917,136.08612 V 140.93362 H 133.00417 V 136.12112 Q 133.00417,134.86112 132.56667,134.35362 132.14667,133.84612 131.53417,133.84612 131.00917,133.84612 130.44917,134.14362 129.90667,134.44112 129.53917,135.00112 129.17167,135.54362 129.17167,136.33112 V 140.93362 H 127.94667 Z"
         style="font-size:17.5px"
         id="path882" />
      <path
         d="M 137.16914,140.93362 V 139.91862 H 139.21664 V 133.95112 H 137.27414 V 132.93612 H 140.47664 V 139.91862 H 142.34914 V 140.93362 Z M 139.77664,131.25612 Q 139.40914,131.25612 139.14664,130.99362 138.88414,130.73112 138.88414,130.36362 138.88414,129.97862 139.12914,129.71612 139.39164,129.45362 139.77664,129.45362 140.14414,129.45362 140.40664,129.73362 140.68664,129.99612 140.68664,130.36362 140.68664,130.73112 140.40664,130.99362 140.14414,131.25612 139.77664,131.25612 Z"
         style="font-size:17.5px"
         id="path884" />
      <path
         d="M 147.56411,143.97862 Q 146.81161,143.97862 146.12911,143.69862 145.46411,143.41862 145.00911,142.85862 L 145.70911,141.91362 145.81411,141.77362 145.91911,141.84362 Q 145.95411,141.98362 146.00661,142.10612 146.05911,142.24612 146.25161,142.45612 146.49661,142.64862 146.81161,142.77112 147.14411,142.89362 147.54661,142.89362 148.33411,142.89362 148.84161,142.35112 149.34911,141.82612 149.34911,140.61862 V 133.96862 H 146.37411 V 132.93612 H 150.62661 V 140.54862 Q 150.62661,141.75612 150.20661,142.50862 149.78661,143.27862 149.08661,143.62862 148.40411,143.97862 147.56411,143.97862 Z M 149.89161,131.25612 Q 149.52411,131.25612 149.26161,130.99362 148.99911,130.73112 148.99911,130.36362 148.99911,129.97862 149.24411,129.71612 149.50661,129.45362 149.89161,129.45362 150.25911,129.45362 150.52161,129.73362 150.80161,129.99612 150.80161,130.36362 150.80161,130.73112 150.52161,130.99362 150.25911,131.25612 149.89161,131.25612 Z"
         style="font-size:17.5px"
         id="path886" />
      <path
         d="M 156.40157,136.92612 155.35157,137.90612 V 140.93362 H 154.07407 V 129.29612 H 155.50907 V 129.41862 Q 155.40407,129.52362 155.36907,129.64612 155.35157,129.76862 155.35157,130.06612 V 136.61112 L 159.35907,132.90112 Q 159.55157,132.93612 159.77907,132.97112 160.02407,132.98862 160.28657,132.98862 H 160.74157 L 157.38157,136.15612 161.30157,140.93362 159.67407,141.00362 Z"
         style="font-size:17.5px"
         id="path888" />
      <path
         d="M 163.05154,140.93362 V 139.91862 H 165.41404 V 130.31112 H 163.15654 V 129.29612 H 166.69154 V 139.91862 H 169.03654 V 140.93362 Z"
         style="font-size:17.5px"
         id="path890" />
      <path
         d="M 171.08401,140.93362 V 132.93612 H 172.23901 V 133.72362 Q 172.51901,133.28612 172.95651,133.02362 173.39401,132.74362 173.86651,132.74362 174.39151,132.74362 174.77651,133.07612 175.17901,133.40862 175.28401,133.91612 175.51151,133.39112 176.00151,133.07612 176.49151,132.74362 177.08651,132.74362 177.90901,132.74362 178.27651,133.33862 178.66151,133.91612 178.62651,134.79112 V 140.93362 H 177.47151 V 135.26362 Q 177.47151,134.52862 177.36651,134.19612 177.27901,133.86362 177.10401,133.77612 176.92901,133.67112 176.71901,133.67112 176.38651,133.67112 176.08901,133.98612 175.80901,134.28362 175.61651,134.73862 175.44151,135.19362 175.44151,135.64862 V 140.93362 H 174.26901 V 135.36862 Q 174.26901,134.37112 174.07651,134.03862 173.90151,133.70612 173.39401,133.70612 173.00901,133.70612 172.62401,134.21362 172.23901,134.70362 172.23901,135.59612 V 140.93362 Z"
         style="font-size:17.5px"
         id="path892" />
      <path
         d="M 180.42897,140.93362 V 132.93612 H 181.65397 V 134.35362 Q 182.10897,133.61862 182.82647,133.18112 183.56147,132.74362 184.36647,132.74362 185.34647,132.74362 186.02897,133.51362 186.71147,134.26612 186.71147,136.08612 V 140.93362 H 185.48647 V 136.12112 Q 185.48647,134.86112 185.04897,134.35362 184.62897,133.84612 184.01647,133.84612 183.49147,133.84612 182.93147,134.16112 182.38897,134.45862 182.02147,135.01862 181.65397,135.56112 181.65397,136.33112 V 140.93362 Z"
         style="font-size:17.5px"
         id="path894" />
      <path
         d="M 192.29394,141.07362 Q 191.20894,141.07362 190.36894,140.54862 189.54644,140.00612 189.07394,139.07862 188.60144,138.13362 188.60144,136.92612 188.60144,135.70112 189.07394,134.77362 189.54644,133.82862 190.36894,133.30362 191.20894,132.76112 192.29394,132.76112 193.37894,132.76112 194.20144,133.30362 195.04144,133.82862 195.51394,134.77362 195.98644,135.70112 195.98644,136.92612 195.98644,138.13362 195.51394,139.07862 195.04144,140.00612 194.20144,140.54862 193.37894,141.07362 192.29394,141.07362 Z M 192.29394,140.02362 Q 192.99394,140.02362 193.51894,139.62112 194.04394,139.21862 194.34144,138.51862 194.65644,137.81862 194.65644,136.90862 194.65644,135.54362 193.99144,134.68612 193.32644,133.81112 192.29394,133.81112 191.26144,133.81112 190.59644,134.68612 189.93144,135.54362 189.93144,136.90862 189.93144,137.81862 190.22894,138.51862 190.54394,139.21862 191.06894,139.62112 191.61144,140.02362 192.29394,140.02362 Z"
         style="font-size:17.5px"
         id="path896" />
      <path
         d="M 197.7189,143.85612 V 132.93612 H 198.9964 V 134.51112 Q 199.2764,133.60112 199.9239,133.18112 200.5889,132.76112 201.4289,132.76112 202.3214,132.76112 203.0739,133.21612 203.8439,133.65362 204.2989,134.56362 204.7714,135.47362 204.7714,136.87362 204.7714,138.27362 204.2814,139.23612 203.7914,140.18112 203.0214,140.67112 202.2514,141.14362 201.3939,141.14362 200.6764,141.14362 200.0464,140.81112 199.4164,140.47862 199.0139,139.88362 V 143.85612 Z M 201.1839,140.02362 Q 201.7439,140.02362 202.2689,139.76112 202.7939,139.48112 203.1264,138.79862 203.4589,138.11612 203.4589,136.92612 203.4589,135.49112 202.9164,134.70362 202.3739,133.89862 201.3764,133.84612 200.7289,133.81112 200.1864,134.14362 199.6439,134.45862 199.3114,135.21112 198.9964,135.96362 198.9964,137.20612 199.0314,138.62362 199.6264,139.32362 200.2214,140.02362 201.1839,140.02362 Z"
         style="font-size:17.5px"
         id="path898" />
      <path
         d="M 211.89387,143.85612 V 139.65612 Q 211.52637,140.32112 210.87887,140.72362 210.23137,141.10862 209.44387,141.10862 208.53387,141.10862 207.78137,140.58362 207.02887,140.05862 206.59137,139.11362 206.15387,138.15112 206.15387,136.90862 206.15387,135.57862 206.62637,134.65112 207.11637,133.72362 207.92137,133.23362 208.72637,132.72612 209.67137,132.72612 210.51137,132.72612 211.08887,133.09362 211.66637,133.46112 211.96387,134.10862 V 132.93612 H 213.15387 V 143.85612 Z M 209.67137,140.00612 Q 210.58137,140.00612 211.21137,139.23612 211.85887,138.46612 211.85887,136.71612 211.85887,135.07112 211.28137,134.42362 210.70387,133.75862 209.81137,133.75862 208.81387,133.75862 208.11387,134.51112 207.43137,135.24612 207.43137,136.85612 207.43137,138.30862 208.04387,139.16612 208.65637,140.00612 209.67137,140.00612 Z"
         style="font-size:17.5px"
         id="path900" />
      <path
         d="M 216.25134,132.93612 H 217.56384 L 217.52884,134.40612 Q 217.86134,133.60112 218.56134,133.18112 219.26134,132.74362 220.06634,132.74362 221.34384,132.74362 222.18384,133.61862 L 221.62384,134.59862 221.55384,134.75612 221.43134,134.68612 Q 221.39634,134.54612 221.32634,134.42362 221.25634,134.30112 221.02884,134.12612 220.74884,133.95112 220.50384,133.89862 220.27634,133.82862 219.97884,133.82862 219.40134,133.82862 218.82384,134.12612 218.26384,134.42362 217.89634,135.05362 217.52884,135.68362 217.52884,136.69862 V 140.95112 H 216.25134 Z"
         style="font-size:17.5px"
         id="path902" />
      <path
         d="M 227.31131,141.10862 Q 225.28131,141.10862 223.91631,139.84862 L 224.61631,138.65862 224.72131,138.50112 224.82631,138.57112 Q 224.86131,138.71112 224.89631,138.86862 224.94881,139.00862 225.14131,139.21862 225.50881,139.58612 226.01631,139.83112 226.54131,140.05862 227.34631,140.05862 228.30881,140.05862 228.83381,139.72612 229.37631,139.37612 229.37631,138.78112 229.37631,138.27362 228.92131,137.94112 228.48381,137.60862 227.36381,137.24112 225.98131,136.83862 225.15881,136.24362 224.35381,135.64862 224.35381,134.75612 224.35381,133.84612 225.08881,133.30362 225.84131,132.74362 227.29381,132.74362 228.41381,132.74362 229.14881,133.05862 229.88381,133.37362 230.47881,134.00362 L 229.76131,134.87862 229.63881,135.01862 229.55131,134.93112 Q 229.53381,134.79112 229.46381,134.66862 229.41131,134.52862 229.21881,134.33612 228.81631,134.02112 228.30881,133.86362 227.80131,133.68862 227.32881,133.68862 226.62881,133.68862 226.12131,133.93362 225.61381,134.17862 225.61381,134.68612 225.61381,134.94862 225.78881,135.21112 225.98131,135.45612 226.47131,135.71862 226.96131,135.96362 227.87131,136.22612 229.37631,136.68112 229.98881,137.22362 230.61881,137.74862 230.61881,138.60612 230.61881,139.27112 230.25131,139.84862 229.90131,140.42612 229.16631,140.77612 228.43131,141.10862 227.31131,141.10862 Z"
         style="font-size:17.5px"
         id="path904" />
      <path
         d="M 236.90126,141.05612 Q 235.86876,141.05612 235.32626,140.58362 234.80126,140.11112 234.62626,139.13112 234.45126,138.13362 234.50376,136.59362 L 234.60876,133.96862 H 232.89376 V 132.93612 H 234.64376 L 234.71376,130.88862 236.02626,130.73112 236.20126,130.71362 236.21876,130.83612 Q 236.13126,130.95862 236.06126,131.08112 236.00876,131.20362 235.97376,131.50112 L 235.85126,132.93612 H 238.65126 V 133.96862 H 235.86876 L 235.74626,136.68112 Q 235.69376,138.01112 235.81626,138.74612 235.93876,139.46362 236.25376,139.74362 236.56876,140.00612 237.09376,140.00612 237.67126,140.00612 238.10876,139.77862 238.56376,139.55112 239.05376,139.20112 L 239.43876,140.19862 Q 238.84376,140.63612 238.21376,140.84612 237.58376,141.05612 236.90126,141.05612 Z"
         style="font-size:17.5px"
         id="path906" />
      <path
         d="M 244.28623,141.12612 Q 243.09623,141.12612 242.30873,140.23362 241.52123,139.34112 241.53873,137.39862 L 241.55623,132.93612 H 242.78123 V 137.39862 Q 242.78123,138.92112 243.30623,139.51612 243.84873,140.11112 244.60123,140.11112 245.16123,140.11112 245.65123,139.81362 246.14123,139.51612 246.43873,138.90362 246.75373,138.29112 246.75373,137.34612 V 132.93612 H 247.97873 V 139.69112 Q 247.97873,140.00612 247.99623,140.32112 248.03123,140.61862 248.15373,140.93362 H 246.94623 Q 246.82373,140.63612 246.78873,140.32112 246.77123,140.00612 246.77123,139.70862 246.38623,140.37362 245.72123,140.75862 245.07373,141.12612 244.28623,141.12612 Z"
         style="font-size:17.5px"
         id="path908" />
      <path
         d="M 253.0362,140.93362 249.8687,132.93612 H 251.1287 L 253.5962,139.20112 254.8912,136.24362 Q 255.3112,135.28112 255.5562,134.45862 255.8187,133.63612 255.9412,132.93612 H 257.1312 Q 256.9912,133.67112 256.6937,134.54612 256.3962,135.42112 255.9587,136.43612 L 254.0162,140.93362 Z"
         style="font-size:17.5px"
         id="path910" />
      <path
         d="M 259.80867,140.95112 258.19867,132.93612 H 259.30117 L 260.59617,139.35862 261.96117,133.68862 H 262.73117 L 264.42867,139.34112 Q 264.65617,137.78362 264.79617,136.78612 264.95367,135.78862 265.02367,135.15862 265.11117,134.51112 265.12867,134.07362 265.16367,133.63612 265.16367,133.19862 V 132.93612 H 266.33617 Q 265.81117,136.99612 265.00617,140.95112 H 263.81617 L 262.34617,135.77112 260.94617,140.95112 Z"
         style="font-size:17.5px"
         id="path912" />
      <path
         d="M 267.49114,140.93362 270.30864,136.87362 267.54364,132.93612 H 268.92614 L 271.00864,135.89362 273.00364,132.93612 H 274.29864 L 271.70864,136.82112 274.64864,140.93362 H 273.21364 L 271.00864,137.81862 268.92614,140.93362 Z"
         style="font-size:17.5px"
         id="path914" />
      <path
         d="M 277.64111,143.97862 Q 276.52111,143.97862 275.80361,143.29612 L 276.34611,142.43862 276.45111,142.28112 276.55611,142.35112 Q 276.59111,142.49112 276.67861,142.57862 276.76611,142.68362 277.01111,142.84112 277.32611,142.94612 277.71111,142.94612 278.39361,142.94612 278.77861,142.45612 279.16361,141.98362 279.49611,140.98612 L 276.22361,132.93612 H 277.53611 L 280.02111,139.34112 281.07111,136.12112 Q 281.33361,135.31612 281.57861,134.52862 281.82361,133.74112 281.91111,132.93612 H 283.17111 Q 283.04861,133.74112 282.78611,134.56362 282.52361,135.38612 282.22611,136.20862 L 280.23111,141.84362 Q 279.81111,143.01612 279.14611,143.48862 278.49861,143.97862 277.64111,143.97862 Z"
         style="font-size:17.5px"
         id="path916" />
      <path
         d="M 285.04356,140.07612 289.99606,134.03862 H 285.41106 V 132.93612 H 291.62356 V 133.79362 L 286.75856,139.84862 H 291.27356 Q 291.57106,139.84862 291.69356,139.81362 291.81606,139.77862 291.92106,139.67362 H 292.04356 V 140.93362 H 285.04356 Z"
         style="font-size:17.5px"
         id="path918" />
      <path
         d="M 72.629403,162.80862 71.526903,159.62362 H 68.009403 L 66.906903,162.80862 H 65.699403 L 69.724403,151.71362 H 69.864403 L 73.889403,162.80862 Z M 69.776903,154.51362 68.341903,158.67862 H 71.211903 Z"
         style="font-size:17.5px"
         id="path920" />
      <path
         d="M 75.00937,162.80862 V 151.90612 H 78.10687 Q 79.99687,151.90612 80.85437,152.64112 81.72937,153.37612 81.72937,154.54862 81.72937,155.31862 81.30937,156.00112 80.88937,156.68362 80.11937,156.96362 81.04687,157.27862 81.60687,158.06612 82.16687,158.83612 82.16687,159.74612 82.16687,161.12862 81.18687,161.96862 80.20687,162.80862 78.08937,162.80862 Z M 76.21687,156.42112 H 77.93187 Q 79.38437,156.42112 79.94437,155.93112 80.50437,155.44112 80.50437,154.68862 80.50437,153.97112 79.96187,153.46362 79.41937,152.93862 78.12437,152.93862 H 76.21687 Z M 76.21687,161.74112 H 78.29937 Q 79.43687,161.74112 80.15437,161.28612 80.87187,160.81362 80.87187,159.67612 80.87187,158.69612 80.22437,158.08362 79.59437,157.45362 78.00187,157.45362 H 76.21687 Z"
         style="font-size:17.5px"
         id="path922" />
      <path
         d="M 87.906836,162.98362 Q 86.734336,162.98362 85.754336,162.40612 84.791836,161.81112 84.214336,160.58612 83.654336,159.34362 83.636836,157.41862 83.636836,155.80862 84.004336,154.74112 84.389336,153.65612 85.001836,153.02612 85.614336,152.37862 86.349336,152.09862 87.101836,151.81862 87.836836,151.81862 89.026836,151.81862 89.866836,152.41362 90.706836,152.99112 91.126836,153.97112 L 90.076836,154.46112 89.919336,154.53112 89.866836,154.40862 Q 89.919336,154.26862 89.866836,154.16362 89.814336,154.04112 89.674336,153.79612 89.236836,153.20112 88.764336,153.00862 88.309336,152.79862 87.801836,152.79862 86.419336,152.79862 85.614336,154.00612 84.826836,155.19612 84.826836,157.33112 84.826836,158.69612 85.229336,159.74612 85.649336,160.77862 86.331836,161.35612 87.014336,161.93362 87.854336,161.93362 88.519336,161.93362 89.096836,161.58362 89.691836,161.21612 90.059336,160.60362 L 90.969336,161.19862 Q 90.444336,162.07362 89.709336,162.52862 88.974336,162.98362 87.906836,162.98362 Z"
         style="font-size:17.5px"
         id="path924" />
      <path
         d="M 92.614304,162.82612 V 151.90612 H 95.151804 Q 96.551804,151.90612 97.321804,152.29112 98.109304,152.67612 98.651804,153.39362 99.719304,154.82862 99.719304,157.41862 99.649304,159.08112 99.159304,160.30612 98.686804,161.51362 97.654304,162.17862 96.639304,162.82612 94.941804,162.82612 Z M 93.769304,161.86362 H 94.889304 Q 96.761804,161.86362 97.636804,160.74362 98.511804,159.60612 98.494304,157.48862 98.476804,155.35362 97.689304,154.14612 96.919304,152.93862 95.081804,152.93862 H 93.769304 Z"
         style="font-size:17.5px"
         id="path926" />
      <path
         d="M 101.45177,162.80862 V 151.88862 H 108.13677 V 152.97362 H 102.60677 V 156.56112 H 107.17427 V 157.68112 H 102.60677 V 161.72362 H 108.08427 V 162.80862 Z"
         style="font-size:17.5px"
         id="path928" />
      <path
         d="M 110.53424,162.80862 V 151.88862 H 116.81674 V 152.95612 H 111.75924 V 156.38612 H 115.83674 V 157.45362 H 111.75924 V 162.80862 Z"
         style="font-size:17.5px"
         id="path930" />
      <path
         d="M 122.7667,162.98362 Q 121.4717,162.98362 120.5092,162.30112 119.5642,161.61862 119.0567,160.37612 118.5492,159.13362 118.5492,157.48862 118.5317,155.72112 118.9342,154.60112 119.3542,153.48112 120.0017,152.86862 120.6667,152.25612 121.3842,152.02862 122.1192,151.78362 122.7142,151.78362 123.6942,151.80112 124.5867,152.30862 125.4792,152.79862 125.9342,153.62112 L 125.0767,154.30362 124.9367,154.42612 124.8667,154.32112 Q 124.8842,154.18112 124.8142,154.07612 124.7617,153.95362 124.5692,153.72612 124.1667,153.27112 123.7292,153.07862 123.3092,152.86862 122.6967,152.86862 121.9092,152.86862 121.2267,153.27112 120.5617,153.65612 120.1592,154.60112 119.7567,155.54612 119.7567,157.22612 119.7567,159.50112 120.5617,160.70862 121.3842,161.89862 122.7667,161.89862 123.2392,161.89862 123.8167,161.74112 124.4117,161.58362 124.8317,161.23362 V 158.64362 H 122.8542 V 157.57612 H 125.9692 V 161.84612 Q 124.4117,162.98362 122.7667,162.98362 Z"
         style="font-size:17.5px"
         id="path932" />
      <path
         d="M 127.54417,151.90612 H 128.97917 V 152.02862 Q 128.87417,152.13362 128.83917,152.25612 128.82167,152.37862 128.82167,152.67612 V 156.56112 H 133.09167 V 151.90612 H 134.52667 V 152.02862 Q 134.42167,152.13362 134.38667,152.25612 134.36917,152.37862 134.36917,152.67612 V 162.80862 H 133.07417 V 157.61112 H 128.82167 V 162.80862 H 127.54417 Z"
         style="font-size:17.5px"
         id="path934" />
      <path
         d="M 136.83664,162.80862 V 161.77612 H 138.98914 V 152.93862 H 136.95914 V 151.90612 H 142.36664 V 152.93862 H 140.21414 V 161.79362 H 142.47164 V 162.80862 Z"
         style="font-size:17.5px"
         id="path936" />
      <path
         d="M 147.59911,163.00112 Q 146.05911,163.00112 145.02661,161.79362 L 145.72661,160.91862 145.84911,160.77862 145.93661,160.84862 Q 145.95411,161.00612 146.00661,161.12862 146.07661,161.25112 146.30411,161.44362 146.60161,161.67112 146.89911,161.79362 147.21411,161.91612 147.59911,161.91612 148.47411,161.91612 148.87661,161.30362 149.27911,160.69112 149.27911,159.16862 V 152.93862 H 147.17911 V 151.90612 H 152.16661 V 152.93862 H 150.48661 V 159.15112 Q 150.53911,160.55112 150.11911,161.40862 149.71661,162.24862 149.03411,162.63362 148.36911,163.00112 147.59911,163.00112 Z"
         style="font-size:17.5px"
         id="path938" />
      <path
         d="M 155.82407,157.34862 154.96657,158.29362 V 162.80862 H 153.65407 V 151.90612 H 155.12407 V 152.02862 Q 155.01907,152.13362 154.98407,152.25612 154.96657,152.37862 154.96657,152.67612 V 156.92862 L 159.51657,151.81862 Q 159.70907,151.85362 159.93657,151.88862 160.16407,151.90612 160.42657,151.90612 H 160.88157 L 156.75157,156.61362 161.16157,162.80862 159.58657,162.87862 Z"
         style="font-size:17.5px"
         id="path940" />
      <path
         d="M 162.82404,151.90612 H 164.25904 V 152.02862 Q 164.15404,152.13362 164.11904,152.25612 164.10154,152.37862 164.10154,152.67612 V 161.75862 H 169.35154 V 162.80862 H 162.82404 Z"
         style="font-size:17.5px"
         id="path942" />
      <path
         d="M 171.13651,162.80862 V 151.90612 H 172.09901 L 174.79401,157.24362 177.54151,151.88862 H 178.46901 V 162.80862 H 177.31401 V 154.58362 L 174.95151,158.97612 H 174.47901 L 172.27401,154.63612 V 162.80862 Z"
         style="font-size:17.5px"
         id="path944" />
      <path
         d="M 180.04397,151.90612 H 181.23397 L 185.81897,159.99112 V 151.90612 H 187.14897 V 152.02862 Q 187.04397,152.13362 187.00897,152.25612 186.99147,152.37862 186.99147,152.67612 V 162.80862 H 186.02897 L 181.21647,154.23362 V 162.80862 H 180.04397 Z"
         style="font-size:17.5px"
         id="path946" />
      <path
         d="M 192.29394,163.00112 Q 190.42144,163.00112 189.40644,161.54862 188.39144,160.09612 188.39144,157.41862 188.39144,154.82862 189.40644,153.34112 190.42144,151.83612 192.29394,151.83612 194.16644,151.83612 195.18144,153.34112 196.19644,154.82862 196.19644,157.41862 196.19644,160.09612 195.18144,161.54862 194.16644,163.00112 192.29394,163.00112 Z M 192.29394,161.93362 Q 193.53644,161.93362 194.23644,160.76112 194.93644,159.58862 194.93644,157.41862 194.93644,155.35362 194.23644,154.12862 193.53644,152.90362 192.29394,152.90362 191.05144,152.90362 190.35144,154.12862 189.65144,155.35362 189.65144,157.41862 189.65144,159.58862 190.35144,160.76112 191.05144,161.93362 192.29394,161.93362 Z"
         style="font-size:17.5px"
         id="path948" />
      <path
         d="M 197.7014,162.80862 V 151.90612 H 201.2014 Q 202.4264,151.90612 203.1789,152.32612 203.9314,152.74612 204.2814,153.44612 204.6489,154.12862 204.6489,154.98612 204.6489,155.82612 204.2989,156.50862 203.9489,157.19112 203.2139,157.59362 202.4789,157.99612 201.2889,157.99612 H 198.9614 V 162.80862 Z M 198.9614,156.91112 H 201.1489 Q 202.3389,156.91112 202.8639,156.40362 203.3889,155.87862 203.3889,155.02112 203.3889,154.21612 202.8639,153.63862 202.3389,153.06112 201.1664,153.06112 H 198.9614 Z"
         style="font-size:17.5px"
         id="path950" />
      <path
         d="M 212.43637,165.34612 Q 210.72137,165.41612 210.03887,164.83862 209.37387,164.27862 209.37387,162.93112 208.49887,162.80862 207.71137,162.17862 206.92387,161.54862 206.41637,160.35862 205.92637,159.16862 205.92637,157.41862 205.92637,155.79112 206.29387,154.70612 206.66137,153.60362 207.25637,152.97362 207.85137,152.32612 208.51637,152.06362 209.19887,151.78362 209.81137,151.78362 210.80887,151.78362 211.70137,152.36112 212.59387,152.93862 213.15387,154.16362 213.71387,155.38862 213.66137,157.36612 213.66137,162.21362 210.44137,162.93112 210.47637,163.50862 210.73887,163.87612 211.00137,164.24362 211.73637,164.24362 L 213.15387,164.15612 213.11887,165.34612 Z M 209.89887,161.84612 Q 210.49387,161.84612 211.08887,161.44362 211.68387,161.04112 212.08637,160.13112 212.48887,159.20362 212.48887,157.66362 212.48887,156.19362 212.22637,155.26612 211.98137,154.32112 211.56137,153.79612 211.15887,153.27112 210.68637,153.06112 210.23137,152.85112 209.81137,152.85112 208.90137,152.85112 208.28887,153.46362 207.69387,154.07612 207.39637,155.05612 207.11637,156.03612 207.11637,157.15612 207.11637,158.53862 207.44887,159.60612 207.78137,160.65612 208.39387,161.25112 209.02387,161.84612 209.89887,161.84612 Z"
         style="font-size:17.5px"
         id="path952" />
      <path
         d="M 215.14884,162.80862 V 151.90612 H 218.36884 Q 220.29384,151.90612 221.13384,152.76362 221.99134,153.62112 221.99134,155.02112 221.99134,155.63362 221.71134,156.24612 221.44884,156.85862 220.94134,157.31362 220.45134,157.76862 219.76884,157.94362 L 222.28884,162.80862 H 220.92384 L 218.50884,157.99612 H 216.39134 V 162.80862 Z M 216.39134,156.91112 H 218.50884 Q 219.68134,156.91112 220.20634,156.40362 220.73134,155.87862 220.73134,155.02112 220.73134,154.19862 220.20634,153.63862 219.68134,153.06112 218.50884,153.06112 H 216.39134 Z"
         style="font-size:17.5px"
         id="path954" />
      <path
         d="M 227.24131,162.98362 Q 225.12381,162.98362 223.82881,161.60112 L 224.45881,160.49862 224.52881,160.34112 224.65131,160.41112 Q 224.68631,160.53362 224.73881,160.69112 224.79131,160.83112 224.98381,161.04112 225.43881,161.42612 226.03381,161.65362 226.64631,161.88112 227.41631,161.88112 228.39631,161.88112 229.02631,161.33862 229.67381,160.77862 229.67381,160.00862 229.67381,159.50112 229.46381,159.15112 229.27131,158.80112 228.72881,158.46862 228.20381,158.13612 227.17131,157.69862 225.47381,157.03362 224.82631,156.21112 224.17881,155.38862 224.17881,154.46112 224.17881,153.25362 225.07131,152.51862 225.96381,151.76612 227.50381,151.76612 228.39631,151.76612 229.18381,152.13362 229.97131,152.48362 230.53131,153.13112 L 229.74381,154.18112 229.63881,154.11112 Q 229.62131,153.97112 229.56881,153.83112 229.51631,153.69112 229.32381,153.48112 228.90381,153.07862 228.43131,152.93862 227.95881,152.78112 227.31131,152.78112 226.45381,152.78112 225.94631,153.25362 225.43881,153.72612 225.43881,154.37362 225.43881,154.86362 225.64881,155.24862 225.87631,155.61612 226.45381,155.98362 227.03131,156.35112 228.13381,156.78862 229.20131,157.22612 229.79631,157.68112 230.39131,158.11862 230.63631,158.64362 230.88131,159.15112 230.88131,159.83362 230.88131,160.58612 230.49631,161.32112 230.12881,162.03862 229.32381,162.51112 228.51881,162.98362 227.24131,162.98362 Z"
         style="font-size:17.5px"
         id="path956" />
      <path
         d="M 235.30876,162.80862 V 152.99112 H 232.21126 V 151.88862 H 239.77126 V 152.99112 H 236.55126 V 162.80862 Z"
         style="font-size:17.5px"
         id="path958" />
      <path
         d="M 244.81123,163.00112 Q 243.06123,163.00112 242.16873,161.96862 241.29373,160.91862 241.29373,159.04612 V 151.90612 H 242.65873 V 152.02862 Q 242.55373,152.13362 242.51873,152.25612 242.50123,152.37862 242.50123,152.67612 V 159.06362 Q 242.50123,160.39362 243.00873,161.18112 243.53373,161.96862 244.82873,161.96862 246.14123,161.96862 246.66623,161.18112 247.19123,160.39362 247.19123,159.01112 V 151.90612 H 248.36373 V 158.99362 Q 248.36373,161.05862 247.38373,162.03862 246.42123,163.00112 244.81123,163.00112 Z"
         style="font-size:17.5px"
         id="path960" />
      <path
         d="M 253.3162,162.87862 249.6062,151.88862 H 250.8837 L 253.6837,160.27112 256.3262,151.90612 H 257.5337 L 253.8762,162.87862 Z"
         style="font-size:17.5px"
         id="path962" />
      <path
         d="M 259.96617,162.80862 258.21617,151.90612 H 259.35367 L 260.52617,159.27362 262.27617,152.71112 H 262.66117 L 264.42867,159.30862 265.42617,151.90612 H 266.45867 L 264.72617,162.80862 H 264.25367 L 262.38117,155.68612 260.47367,162.80862 Z"
         style="font-size:17.5px"
         id="path964" />
      <path
         d="M 267.38614,162.80862 270.36114,157.24362 267.43864,151.88862 H 268.75114 L 271.04364,156.03612 273.30114,151.88862 H 274.52614 L 271.76114,157.22612 274.85864,162.80862 H 273.47614 L 271.06114,158.48612 268.71614,162.80862 Z"
         style="font-size:17.5px"
         id="path966" />
      <path
         d="M 279.26861,162.80862 V 158.50362 L 275.90861,151.90612 H 277.30861 L 279.98611,157.19112 282.40111,151.90612 H 283.69611 L 280.59861,158.50362 V 162.80862 Z"
         style="font-size:17.5px"
         id="path968" />
      <path
         d="M 285.04356,161.95112 290.53856,153.00862 H 285.25356 V 151.90612 H 291.99106 V 152.76362 L 286.58356,161.72362 H 291.50106 Q 291.79856,161.72362 291.92106,161.68862 292.04356,161.65362 292.14856,161.54862 H 292.27106 V 162.80862 H 285.04356 Z"
         style="font-size:17.5px"
         id="path970" />
      <path
         d="M 69.794403,184.82362 Q 68.709403,184.82362 67.869403,184.29862 67.046903,183.75612 66.574403,182.82862 66.101903,181.88362 66.101903,180.67612 66.101903,179.45112 66.574403,178.52362 67.046903,177.57862 67.869403,177.05362 68.709403,176.51112 69.794403,176.51112 70.879403,176.51112 71.701903,177.05362 72.541903,177.57862 73.014403,178.52362 73.486903,179.45112 73.486903,180.67612 73.486903,181.88362 73.014403,182.82862 72.541903,183.75612 71.701903,184.29862 70.879403,184.82362 69.794403,184.82362 Z M 69.794403,183.77362 Q 70.494403,183.77362 71.019403,183.37112 71.544403,182.96862 71.841903,182.26862 72.156903,181.56862 72.156903,180.65862 72.156903,179.29362 71.491903,178.43612 70.826903,177.56112 69.794403,177.56112 68.761903,177.56112 68.096903,178.43612 67.431903,179.29362 67.431903,180.65862 67.431903,181.56862 67.729403,182.26862 68.044403,182.96862 68.569403,183.37112 69.111903,183.77362 69.794403,183.77362 Z"
         style="font-size:17.5px"
         id="path972" />
      <path
         d="M 78.54437,184.87612 Q 76.67187,184.87612 75.65687,183.42362 74.64187,181.97112 74.64187,179.29362 74.64187,176.70362 75.65687,175.21612 76.67187,173.71112 78.54437,173.71112 80.41687,173.71112 81.43187,175.21612 82.44687,176.70362 82.44687,179.29362 82.44687,181.97112 81.43187,183.42362 80.41687,184.87612 78.54437,184.87612 Z M 78.54437,183.80862 Q 79.78687,183.80862 80.48687,182.63612 81.18687,181.46362 81.18687,179.29362 81.18687,177.22862 80.48687,176.00362 79.78687,174.77862 78.54437,174.77862 77.30187,174.77862 76.60187,176.00362 75.90187,177.22862 75.90187,179.29362 75.90187,181.46362 76.60187,182.63612 77.30187,183.80862 78.54437,183.80862 Z"
         style="font-size:17.5px"
         id="path974" />
      <path
         d="M 87.294336,184.87612 Q 85.666836,184.87612 84.791836,183.42362 83.916836,181.97112 83.916836,179.29362 83.916836,176.70362 84.791836,175.21612 85.666836,173.71112 87.294336,173.71112 88.921836,173.71112 89.796836,175.21612 90.671836,176.70362 90.671836,179.29362 90.671836,181.97112 89.796836,183.42362 88.921836,184.87612 87.294336,184.87612 Z M 85.176836,179.29362 Q 85.176836,180.41362 85.334336,181.28862 L 89.044336,176.51112 Q 88.781836,175.68862 88.326836,175.23362 87.889336,174.77862 87.294336,174.77862 86.296836,174.77862 85.736836,176.00362 85.176836,177.22862 85.176836,179.29362 Z M 87.294336,183.80862 Q 88.291836,183.80862 88.851836,182.63612 89.411836,181.46362 89.411836,179.29362 89.411836,178.33112 89.289336,177.54362 L 85.579336,182.25112 Q 86.121836,183.80862 87.294336,183.80862 Z"
         style="font-size:17.5px"
         id="path976" />
      <path
         d="M 96.044304,184.85862 Q 95.011804,184.85862 94.259304,184.47362 93.524304,184.07112 93.121804,183.40612 92.719304,182.74112 92.719304,181.93612 92.719304,180.99112 93.314304,180.16862 93.909304,179.34612 94.906804,178.89112 94.154304,178.50612 93.699304,177.82362 93.244304,177.12362 93.244304,176.33612 93.244304,175.21612 93.961804,174.42862 94.696804,173.64112 96.131804,173.64112 97.146804,173.64112 97.776804,173.99112 98.406804,174.34112 98.704304,174.93612 99.019304,175.51362 99.019304,176.23112 99.019304,177.01862 98.546804,177.73612 98.074304,178.43612 97.286804,178.85612 98.231804,179.29362 98.809304,180.11612 99.386804,180.92112 99.386804,181.86612 99.386804,182.72362 98.966804,183.40612 98.564304,184.07112 97.811804,184.47362 97.076804,184.85862 96.044304,184.85862 Z M 96.341804,178.41862 Q 96.989304,178.06862 97.409304,177.47362 97.829304,176.87862 97.829304,176.26612 97.829304,175.65362 97.391804,175.16362 96.971804,174.67362 96.096804,174.67362 95.239304,174.67362 94.819304,175.14612 94.416804,175.61862 94.416804,176.21362 94.416804,177.01862 94.976804,177.50862 95.536804,177.98112 96.341804,178.41862 Z M 96.079304,183.75612 Q 97.094304,183.75612 97.619304,183.21362 98.144304,182.65362 98.144304,181.86612 98.144304,181.06112 97.514304,180.39612 96.884304,179.71362 95.816804,179.38112 95.029304,179.71362 94.504304,180.37862 93.979304,181.02612 93.979304,181.81362 93.979304,182.60112 94.521804,183.17862 95.081804,183.75612 96.079304,183.75612 Z"
         style="font-size:17.5px"
         id="path978" />
      <path
         d="M 110.91924,184.68362 V 183.66862 H 112.96674 V 177.70112 H 111.02424 V 176.68612 H 114.22674 V 183.66862 H 116.09924 V 184.68362 Z M 113.52674,175.00612 Q 113.15924,175.00612 112.89674,174.74362 112.63424,174.48112 112.63424,174.11362 112.63424,173.72862 112.87924,173.46612 113.14174,173.20362 113.52674,173.20362 113.89424,173.20362 114.15674,173.48362 114.43674,173.74612 114.43674,174.11362 114.43674,174.48112 114.15674,174.74362 113.89424,175.00612 113.52674,175.00612 Z"
         style="font-size:17.5px"
         id="path980" />
      <path
         d="M 119.3367,184.68362 V 183.65112 H 121.4892 V 174.81362 H 119.4592 V 173.78112 H 124.8667 V 174.81362 H 122.7142 V 183.66862 H 124.9717 V 184.68362 Z"
         style="font-size:17.5px"
         id="path982" />
      <path
         d="M 128.05167,184.68362 V 183.66862 H 130.41417 V 174.06112 H 128.15667 V 173.04612 H 131.69167 V 183.66862 H 134.03667 V 184.68362 Z"
         style="font-size:17.5px"
         id="path984" />
      <path
         d="M 136.57414,173.78112 H 138.00914 V 173.90362 Q 137.90414,174.00862 137.86914,174.13112 137.85164,174.25362 137.85164,174.55112 V 183.63362 H 143.10164 V 184.68362 H 136.57414 Z"
         style="font-size:17.5px"
         id="path986" />
      <path
         d="M 148.19411,184.68362 V 175.28612 L 145.98911,175.93362 145.70911,175.25112 148.56161,173.76362 H 149.41911 V 184.68362 Z"
         style="font-size:17.5px"
         id="path988" />
      <path
         d="M 168.16154,186.34612 Q 166.90154,186.34612 166.06154,186.08362 165.22154,185.83862 164.80154,185.17362 164.39904,184.50862 164.45154,183.28362 L 164.52154,181.53362 Q 164.52154,180.37862 164.10154,179.97612 163.69904,179.57362 162.94654,179.57362 H 162.59654 V 178.59362 H 162.92904 Q 163.73404,178.59362 164.13654,178.15612 164.55654,177.71862 164.55654,176.72112 L 164.52154,175.46112 Q 164.52154,172.41612 167.70654,172.41612 H 168.80904 V 173.41362 H 167.37404 Q 165.74654,173.41362 165.74654,175.26862 L 165.78154,176.49362 Q 165.78154,178.41862 164.25904,179.08362 165.74654,179.57362 165.74654,181.79612 L 165.69404,183.26612 Q 165.69404,184.45612 166.20154,184.91112 166.72654,185.36612 167.89904,185.36612 H 168.79154 V 186.34612 Z"
         style="font-size:17.5px"
         id="path990" />
      <path
         d="M 172.01151,186.34612 Q 173.27151,186.34612 174.11151,186.08362 174.95151,185.83862 175.35401,185.17362 175.77401,184.50862 175.72151,183.28362 L 175.65151,181.53362 Q 175.65151,180.37862 176.05401,179.97612 176.47401,179.57362 177.22651,179.57362 H 177.57651 V 178.59362 H 177.24401 Q 176.43901,178.59362 176.01901,178.15612 175.61651,177.71862 175.61651,176.72112 L 175.65151,175.46112 Q 175.65151,172.41612 172.46651,172.41612 H 171.36401 V 173.41362 H 172.79901 Q 174.42651,173.41362 174.42651,175.26862 L 174.39151,176.49362 Q 174.39151,178.41862 175.91401,179.08362 174.42651,179.57362 174.42651,181.79612 L 174.47901,183.26612 Q 174.47901,184.45612 173.95401,184.91112 173.44651,185.36612 172.27401,185.36612 H 171.38151 V 186.34612 Z"
         style="font-size:17.5px"
         id="path992" />
      <path
         d="M 190.21144,186.24112 V 172.95862 H 195.21644 V 174.00862 H 191.33144 V 185.24362 H 195.23394 V 186.24112 Z"
         style="font-size:17.5px"
         id="path994" />
      <path
         d="M 203.9839,186.24112 V 172.95862 H 198.9789 V 174.00862 H 202.8639 V 185.24362 H 198.9614 V 186.24112 Z"
         style="font-size:17.5px"
         id="path996" />
      <path
         d="M 218.12384,181.97112 Q 217.44134,181.97112 216.88134,181.72612 216.56634,182.11112 216.56634,182.46112 216.56634,182.88112 217.09134,183.07362 217.61634,183.24862 219.01634,183.24862 220.24134,183.24862 220.87134,183.51112 221.50134,183.77362 221.72884,184.22862 221.95634,184.68362 221.95634,185.27862 221.95634,185.89112 221.62384,186.45112 221.29134,187.01112 220.52134,187.34362 219.76884,187.69362 218.49134,187.69362 216.81134,187.69362 215.81384,187.16862 214.83384,186.66112 214.83384,185.62862 214.83384,184.98112 215.20134,184.52612 215.56884,184.05362 216.07634,183.82612 215.49884,183.44112 215.49884,182.75862 215.49884,182.37362 215.69134,182.00612 215.88384,181.63862 216.21634,181.28862 215.32384,180.50112 215.32384,179.17112 215.32384,178.40112 215.65634,177.77112 216.00634,177.14112 216.63634,176.77362 217.26634,176.38862 218.12384,176.38862 218.77134,176.38862 219.27884,176.61612 219.80384,176.82612 220.17134,177.21112 220.62634,176.79112 221.13384,176.61612 221.64134,176.42362 222.32384,176.47612 L 222.48134,177.50862 Q 221.95634,177.45612 221.48384,177.52612 221.02884,177.59612 220.62634,177.85862 220.92384,178.45362 220.92384,179.17112 220.92384,179.94112 220.57384,180.58862 220.24134,181.21862 219.61134,181.60362 218.99884,181.97112 218.12384,181.97112 Z M 218.12384,180.92112 Q 218.89384,180.92112 219.38384,180.41362 219.87384,179.88862 219.87384,179.17112 219.87384,178.45362 219.38384,177.94612 218.89384,177.42112 218.12384,177.42112 217.37134,177.42112 216.86384,177.94612 216.37384,178.45362 216.37384,179.17112 216.37384,179.88862 216.86384,180.41362 217.37134,180.92112 218.12384,180.92112 Z M 215.98884,185.48862 Q 215.98884,186.08362 216.65384,186.41612 217.33634,186.74862 218.50884,186.74862 219.69884,186.74862 220.24134,186.38112 220.80134,186.03112 220.80134,185.47112 220.80134,185.08612 220.66134,184.84112 220.52134,184.59612 220.08384,184.47362 219.64634,184.35112 218.75384,184.35112 218.14134,184.35112 217.63384,184.29862 217.14384,184.24612 216.74134,184.12362 216.33884,184.40362 216.16384,184.68362 215.98884,184.98112 215.98884,185.48862 Z"
         style="font-size:17.5px"
         id="path998" />
      <path
         d="M 226.90881,184.85862 Q 225.33381,184.85862 224.30131,183.86112 L 225.05381,183.00362 225.17631,182.86362 225.26381,182.95112 Q 225.28131,183.09112 225.35131,183.21362 225.42131,183.31862 225.63131,183.51112 226.10381,183.80862 226.80381,183.80862 227.64381,183.80862 228.18631,183.23112 228.74631,182.65362 229.04381,181.74362 229.34131,180.81612 229.41131,179.76612 228.99131,180.13362 228.48381,180.34362 227.97631,180.55362 227.27631,180.55362 226.38381,180.55362 225.66631,180.13362 224.94881,179.71362 224.52881,178.97862 224.10881,178.22612 224.10881,177.26362 224.10881,176.23112 224.52881,175.44362 224.94881,174.63862 225.66631,174.18362 226.38381,173.71112 227.24131,173.71112 228.27381,173.71112 229.02631,174.30612 229.77881,174.90112 230.18131,175.95112 230.60131,176.98362 230.60131,178.33112 230.60131,181.62112 229.62131,183.23112 228.64131,184.82362 226.90881,184.85862 Z M 225.29881,177.24612 Q 225.29881,178.27862 225.89381,178.89112 226.48881,179.48612 227.29381,179.48612 228.02881,179.48612 228.51881,179.27612 229.00881,179.06612 229.42881,178.57612 229.30631,174.77862 227.29381,174.77862 226.40131,174.77862 225.84131,175.44362 225.29881,176.09112 225.29881,177.24612 Z"
         style="font-size:17.5px"
         id="path1000" />
      <path
         d="M 238.14376,187.60612 V 183.40612 Q 237.77626,184.07112 237.12876,184.47362 236.48126,184.85862 235.69376,184.85862 234.78376,184.85862 234.03126,184.33362 233.27876,183.80862 232.84126,182.86362 232.40376,181.90112 232.40376,180.65862 232.40376,179.32862 232.87626,178.40112 233.36626,177.47362 234.17126,176.98362 234.97626,176.47612 235.92126,176.47612 236.76126,176.47612 237.33876,176.84362 237.91626,177.21112 238.21376,177.85862 V 176.68612 H 239.40376 V 187.60612 Z M 235.92126,183.75612 Q 236.83126,183.75612 237.46126,182.98612 238.10876,182.21612 238.10876,180.46612 238.10876,178.82112 237.53126,178.17362 236.95376,177.50862 236.06126,177.50862 235.06376,177.50862 234.36376,178.26112 233.68126,178.99612 233.68126,180.60612 233.68126,182.05862 234.29376,182.91612 234.90626,183.75612 235.92126,183.75612 Z"
         style="font-size:17.5px"
         id="path1002" />
      <path
         d="M 245.40623,184.85862 Q 244.23373,184.85862 243.25373,184.28112 242.29123,183.68612 241.71373,182.46112 241.15373,181.21862 241.13623,179.29362 241.13623,177.68362 241.50373,176.61612 241.88873,175.53112 242.50123,174.90112 243.11373,174.25362 243.84873,173.97362 244.60123,173.69362 245.33623,173.69362 246.52623,173.69362 247.36623,174.28862 248.20623,174.86612 248.62623,175.84612 L 247.57623,176.33612 247.41873,176.40612 247.36623,176.28362 Q 247.41873,176.14362 247.36623,176.03862 247.31373,175.91612 247.17373,175.67112 246.73623,175.07612 246.26373,174.88362 245.80873,174.67362 245.30123,174.67362 243.91873,174.67362 243.11373,175.88112 242.32623,177.07112 242.32623,179.20612 242.32623,180.57112 242.72873,181.62112 243.14873,182.65362 243.83123,183.23112 244.51373,183.80862 245.35373,183.80862 246.01873,183.80862 246.59623,183.45862 247.19123,183.09112 247.55873,182.47862 L 248.46873,183.07362 Q 247.94373,183.94862 247.20873,184.40362 246.47373,184.85862 245.40623,184.85862 Z"
         style="font-size:17.5px"
         id="path1004" />
      <path
         d="M 254.0162,184.85862 Q 252.7212,184.85862 251.7587,184.17612 250.8137,183.49362 250.3062,182.25112 249.7987,181.00862 249.7987,179.36362 249.7812,177.59612 250.1837,176.47612 250.6037,175.35612 251.2512,174.74362 251.9162,174.13112 252.6337,173.90362 253.3687,173.65862 253.9637,173.65862 254.9437,173.67612 255.8362,174.18362 256.7287,174.67362 257.1837,175.49612 L 256.3262,176.17862 256.1862,176.30112 256.1162,176.19612 Q 256.1337,176.05612 256.0637,175.95112 256.0112,175.82862 255.8187,175.60112 255.4162,175.14612 254.9787,174.95362 254.5587,174.74362 253.9462,174.74362 253.1587,174.74362 252.4762,175.14612 251.8112,175.53112 251.4087,176.47612 251.0062,177.42112 251.0062,179.10112 251.0062,181.37612 251.8112,182.58362 252.6337,183.77362 254.0162,183.77362 254.4887,183.77362 255.0662,183.61612 255.6612,183.45862 256.0812,183.10862 V 180.51862 H 254.1037 V 179.45112 H 257.2187 V 183.72112 Q 255.6612,184.85862 254.0162,184.85862 Z"
         style="font-size:17.5px"
         id="path1006" />
      <path
         d="M 264.93617,187.22112 Q 263.22117,187.29112 262.53867,186.71362 261.87367,186.15362 261.87367,184.80612 260.99867,184.68362 260.21117,184.05362 259.42367,183.42362 258.91617,182.23362 258.42617,181.04362 258.42617,179.29362 258.42617,177.66612 258.79367,176.58112 259.16117,175.47862 259.75617,174.84862 260.35117,174.20112 261.01617,173.93862 261.69867,173.65862 262.31117,173.65862 263.30867,173.65862 264.20117,174.23612 265.09367,174.81362 265.65367,176.03862 266.21367,177.26362 266.16117,179.24112 266.16117,184.08862 262.94117,184.80612 262.97617,185.38362 263.23867,185.75112 263.50117,186.11862 264.23617,186.11862 L 265.65367,186.03112 265.61867,187.22112 Z M 262.39867,183.72112 Q 262.99367,183.72112 263.58867,183.31862 264.18367,182.91612 264.58617,182.00612 264.98867,181.07862 264.98867,179.53862 264.98867,178.06862 264.72617,177.14112 264.48117,176.19612 264.06117,175.67112 263.65867,175.14612 263.18617,174.93612 262.73117,174.72612 262.31117,174.72612 261.40117,174.72612 260.78867,175.33862 260.19367,175.95112 259.89617,176.93112 259.61617,177.91112 259.61617,179.03112 259.61617,180.41362 259.94867,181.48112 260.28117,182.53112 260.89367,183.12612 261.52367,183.72112 262.39867,183.72112 Z"
         style="font-size:17.5px"
         id="path1008" />
      <path
         d="M 281.50861,180.02862 Q 280.91361,180.02862 280.47611,179.80112 280.05611,179.55612 279.67111,179.32862 279.30361,179.08362 278.84861,179.08362 278.44611,179.08362 278.13111,179.25862 277.81611,179.43362 277.51861,179.90612 L 276.66111,179.52112 Q 276.94111,178.92612 277.46611,178.52362 278.00861,178.12112 278.81361,178.12112 279.26861,178.12112 279.60111,178.26112 279.93361,178.40112 280.21361,178.59362 280.49361,178.78612 280.77361,178.92612 281.07111,179.06612 281.43861,179.06612 281.82361,179.06612 282.08611,178.89112 282.34861,178.71612 282.68111,178.22612 L 283.48611,178.71612 Q 283.03111,179.45112 282.59361,179.74862 282.15611,180.02862 281.50861,180.02862 Z"
         style="font-size:17.5px"
         id="path1010" />
      <path
         d="M 286.11106,179.76612 V 178.59362 H 291.01106 V 179.76612 Z"
         style="font-size:17.5px"
         id="path1012" />
      <path
         d="M 296.80353,182.86362 V 179.59112 H 293.70603 V 178.52362 H 296.80353 V 175.53112 H 297.90603 V 178.52362 H 300.89853 V 179.59112 H 297.90603 V 182.86362 Z"
         style="font-size:17.5px"
         id="path1014" />
      <path
         d="M 302.456,177.87612 V 176.80862 H 309.6485 V 177.87612 Z M 302.456,181.49862 V 180.43112 H 309.6485 V 181.49862 Z"
         style="font-size:17.5px"
         id="path1016" />
      <path
         d="M 311.11847,183.86112 V 182.53112 L 317.22597,179.10112 311.15347,176.00362 V 174.76112 L 318.57347,178.66362 V 179.50362 Z"
         style="font-size:17.5px"
         id="path1018" />
    </g>
  </g>
</svg>
