<?xml version="1.0" encoding="UTF-8" standalone="no"?>
<svg
   version="1.1"
   id="svg2"
   viewBox="0 0 312.4825 105.04749"
   height="29.646736mm"
   width="88.189507mm"
   sodipodi:docname="InconsolataGo Nerd Font.svg"
   xmlns:inkscape="http://www.inkscape.org/namespaces/inkscape"
   xmlns:sodipodi="http://sodipodi.sourceforge.net/DTD/sodipodi-0.dtd"
   xmlns="http://www.w3.org/2000/svg"
   xmlns:svg="http://www.w3.org/2000/svg"
   xmlns:rdf="http://www.w3.org/1999/02/22-rdf-syntax-ns#"
   xmlns:cc="http://creativecommons.org/ns#"
   xmlns:dc="http://purl.org/dc/elements/1.1/">
  <sodipodi:namedview
     id="namedview12"
     pagecolor="#ffffff"
     bordercolor="#666666"
     borderopacity="1.0"
     inkscape:showpageshadow="2"
     inkscape:pageopacity="0.0"
     inkscape:pagecheckerboard="0"
     inkscape:deskcolor="#d1d1d1"
     inkscape:document-units="mm" />
  <defs
     id="defs4" />
  <metadata
     id="metadata7">
    <rdf:RDF>
      <cc:Work
         rdf:about="">
        <dc:format>image/svg+xml</dc:format>
        <dc:type
           rdf:resource="http://purl.org/dc/dcmitype/StillImage" />
        <dc:title />
      </cc:Work>
    </rdf:RDF>
  </metadata>
  <g
     id="layer1"
     transform="translate(-65.084643,-82.646132)">
    <g
       aria-label="InconsolataGo Nerd Font"
       id="text4136"
       style="font-size:27.5px;font-family:'InconsolataGo Nerd Font';letter-spacing:0px;word-spacing:0px;fill:#ffffff">
      <path
         d="M 65.277143,83.801132 H 73.774643 V 85.423632 H 70.392143 V 99.366132 H 73.939643 V 100.96113 H 65.084643 V 99.338632 H 68.467143 V 85.423632 H 65.277143 Z"
         id="path14" />
      <path
         d="M 78.477143,100.93363 V 88.366132 H 80.512143 V 90.593632 Q 81.227143,89.438632 82.327143,88.751132 83.454643,88.063632 84.609643,88.063632 85.434643,88.063632 86.149643,88.366132 86.864643,88.641132 87.387143,89.273632 87.909643,89.906132 88.184643,90.896132 88.487143,91.886132 88.487143,93.316132 V 100.93363 H 86.534643 V 93.371132 Q 86.534643,91.391132 85.847143,90.593632 85.187143,89.796132 84.224643,89.796132 83.592143,89.796132 82.932143,90.071132 82.272143,90.346132 81.722143,90.868632 81.199643,91.363632 80.842143,92.078632 80.512143,92.793632 80.512143,93.701132 V 100.93363 Z"
         id="path16" />
      <path
         d="M 102.92464,90.456132 101.52214,92.078632 Q 101.38464,91.996132 101.38464,91.913632 101.41214,91.803632 101.35714,91.638632 101.32964,91.473632 101.16464,91.226132 100.99964,90.978632 100.50464,90.566132 99.569643,89.796132 97.947143,89.796132 97.149643,89.796132 96.407143,90.126132 95.692143,90.456132 95.142143,91.088632 94.592143,91.693632 94.262143,92.573632 93.932143,93.426132 93.932143,94.498632 93.932143,95.571132 94.262143,96.478632 94.592143,97.386132 95.169643,98.046132 95.747143,98.706132 96.544643,99.091132 97.342143,99.448632 98.304643,99.448632 100.20214,99.448632 101.57714,97.908632 L 102.73214,99.256132 Q 100.86214,101.23613 98.139643,101.23613 96.792143,101.23613 95.637143,100.74113 94.509643,100.24613 93.657143,99.366132 92.832143,98.486132 92.364643,97.303632 91.897143,96.093632 91.897143,94.663632 91.897143,93.261132 92.364643,92.051132 92.832143,90.841132 93.657143,89.988632 94.509643,89.108632 95.664643,88.613632 96.847143,88.118632 98.222143,88.118632 99.707143,88.118632 100.91714,88.751132 102.15464,89.356132 102.92464,90.456132 Z"
         id="path18" />
      <path
         d="M 111.09214,88.091132 Q 112.24714,88.091132 113.26464,88.558632 114.30964,88.998632 115.07964,89.851132 115.84964,90.703632 116.28964,91.941132 116.75714,93.151132 116.75714,94.663632 116.75714,96.203632 116.31714,97.413632 115.87714,98.623632 115.10714,99.503632 114.33714,100.35613 113.29214,100.82363 112.24714,101.26363 111.06464,101.26363 109.85464,101.26363 108.78214,100.76863 107.73714,100.27363 106.93964,99.421132 106.14214,98.541132 105.67464,97.331132 105.20714,96.121132 105.20714,94.718632 105.20714,93.316132 105.67464,92.078632 106.16964,90.841132 106.96714,89.988632 107.79214,89.108632 108.86464,88.613632 109.93714,88.091132 111.09214,88.091132 Z M 114.77714,94.718632 Q 114.77714,93.536132 114.44714,92.628632 114.14464,91.693632 113.62214,91.061132 113.09964,90.428632 112.41214,90.098632 111.75214,89.768632 111.00964,89.768632 110.26714,89.768632 109.57964,90.098632 108.91964,90.428632 108.39714,91.061132 107.90214,91.693632 107.59964,92.601132 107.29714,93.481132 107.29714,94.608632 107.29714,95.708632 107.59964,96.616132 107.90214,97.523632 108.39714,98.183632 108.91964,98.843632 109.60714,99.201132 110.29464,99.558632 111.06464,99.558632 111.83464,99.558632 112.49464,99.256132 113.18214,98.926132 113.67714,98.321132 114.19964,97.688632 114.47464,96.781132 114.77714,95.873632 114.77714,94.718632 Z"
         id="path20" />
      <path
         d="M 119.72714,100.93363 V 88.366132 H 121.76214 V 90.593632 Q 122.47714,89.438632 123.57714,88.751132 124.70464,88.063632 125.85964,88.063632 126.68464,88.063632 127.39964,88.366132 128.11464,88.641132 128.63714,89.273632 129.15964,89.906132 129.43464,90.896132 129.73714,91.886132 129.73714,93.316132 V 100.93363 H 127.78464 V 93.371132 Q 127.78464,91.391132 127.09714,90.593632 126.43714,89.796132 125.47464,89.796132 124.84214,89.796132 124.18214,90.071132 123.52214,90.346132 122.97214,90.868632 122.44964,91.363632 122.09214,92.078632 121.76214,92.793632 121.76214,93.701132 V 100.93363 Z"
         id="path22" />
      <path
         d="M 143.48714,90.043632 142.33214,91.776132 Q 142.19464,91.748632 142.19464,91.556132 142.19464,91.363632 142.13964,91.281132 141.64464,90.648632 140.73714,90.126132 139.82964,89.576132 138.67464,89.576132 138.15214,89.576132 137.65714,89.713632 137.18964,89.823632 136.80464,90.043632 136.44714,90.263632 136.22714,90.621132 136.00714,90.951132 136.00714,91.391132 136.00714,91.721132 136.17214,91.996132 136.33714,92.243632 136.69464,92.491132 137.05214,92.738632 137.68464,92.986132 138.34464,93.233632 139.38964,93.536132 141.75464,94.168632 142.71714,95.048632 143.70714,95.901132 143.70714,97.166132 143.70714,97.991132 143.34964,98.733632 142.99214,99.476132 142.30464,100.02613 141.61714,100.57613 140.65464,100.90613 139.69214,101.20863 138.48214,101.20863 135.31964,101.20863 133.17464,99.228632 L 134.30214,97.248632 Q 134.38464,97.331132 134.41214,97.523632 134.43964,97.688632 134.60464,97.936132 134.76964,98.183632 135.20964,98.513632 135.64964,98.816132 136.55714,99.201132 136.96964,99.393632 137.49214,99.476132 138.01464,99.558632 138.53714,99.558632 139.08714,99.558632 139.63714,99.421132 140.21464,99.283632 140.65464,99.036132 141.12214,98.761132 141.39714,98.403632 141.67214,98.018632 141.67214,97.551132 141.67214,96.836132 141.01214,96.341132 140.35214,95.846132 138.59214,95.323632 137.38214,94.966132 136.99714,94.828632 136.00714,94.443632 135.56714,94.168632 135.12714,93.866132 134.76964,93.481132 134.41214,93.068632 134.19214,92.573632 133.97214,92.051132 133.97214,91.446132 133.97214,90.786132 134.32964,90.181132 134.68714,89.576132 135.31964,89.108632 135.97964,88.641132 136.85964,88.366132 137.76714,88.063632 138.81214,88.063632 141.69964,88.063632 143.48714,90.043632 Z"
         id="path24" />
      <path
         d="M 152.34214,88.091132 Q 153.49714,88.091132 154.51464,88.558632 155.55964,88.998632 156.32964,89.851132 157.09964,90.703632 157.53964,91.941132 158.00714,93.151132 158.00714,94.663632 158.00714,96.203632 157.56714,97.413632 157.12714,98.623632 156.35714,99.503632 155.58714,100.35613 154.54214,100.82363 153.49714,101.26363 152.31464,101.26363 151.10464,101.26363 150.03214,100.76863 148.98714,100.27363 148.18964,99.421132 147.39214,98.541132 146.92464,97.331132 146.45714,96.121132 146.45714,94.718632 146.45714,93.316132 146.92464,92.078632 147.41964,90.841132 148.21714,89.988632 149.04214,89.108632 150.11464,88.613632 151.18714,88.091132 152.34214,88.091132 Z M 156.02714,94.718632 Q 156.02714,93.536132 155.69714,92.628632 155.39464,91.693632 154.87214,91.061132 154.34964,90.428632 153.66214,90.098632 153.00214,89.768632 152.25964,89.768632 151.51714,89.768632 150.82964,90.098632 150.16964,90.428632 149.64714,91.061132 149.15214,91.693632 148.84964,92.601132 148.54714,93.481132 148.54714,94.608632 148.54714,95.708632 148.84964,96.616132 149.15214,97.523632 149.64714,98.183632 150.16964,98.843632 150.85714,99.201132 151.54464,99.558632 152.31464,99.558632 153.08464,99.558632 153.74464,99.256132 154.43214,98.926132 154.92714,98.321132 155.44964,97.688632 155.72464,96.781132 156.02714,95.873632 156.02714,94.718632 Z"
         id="path26" />
      <path
         d="M 161.44464,82.646132 H 166.99964 V 99.338632 H 170.68464 V 100.93363 H 161.27964 V 99.338632 H 164.99214 V 84.241132 H 161.44464 Z"
         id="path28" />
      <path
         d="M 175.35964,89.851132 Q 177.03714,88.091132 179.84214,88.091132 182.15214,88.091132 183.47214,89.273632 184.81964,90.428632 184.81964,93.151132 V 100.93363 H 182.94964 V 99.558632 Q 180.94214,101.23613 178.43964,101.23613 177.44964,101.23613 176.65214,100.93363 175.88214,100.63113 175.33214,100.13613 174.78214,99.641132 174.47964,99.008632 174.20464,98.376132 174.20464,97.743632 174.20464,95.846132 175.82714,94.746132 177.47714,93.646132 180.55714,93.536132 H 182.92214 V 93.068632 Q 182.92214,91.198632 182.12464,90.456132 181.35464,89.713632 179.70464,89.713632 177.66964,89.713632 176.32214,91.116132 Z M 183.00464,95.048632 H 182.53714 Q 182.15214,95.048632 181.79464,95.048632 181.46464,95.021132 181.13464,95.021132 179.62214,95.021132 178.65964,95.241132 177.69714,95.433632 177.14714,95.791132 176.59714,96.148632 176.37714,96.616132 176.18464,97.056132 176.18464,97.578632 176.18464,98.458632 176.95464,99.091132 177.72464,99.723632 178.85214,99.723632 179.67714,99.723632 180.33714,99.476132 180.99714,99.201132 181.49214,98.843632 181.98714,98.458632 182.28964,98.073632 182.59214,97.661132 182.72964,97.358632 183.00464,96.808632 183.00464,95.873632 Z"
         id="path30" />
      <path
         d="M 191.77714,85.011132 193.94964,84.653632 Q 193.94964,84.901132 193.86714,85.093632 193.81214,85.286132 193.78464,85.396132 L 193.45464,88.366132 H 197.57964 V 89.988632 H 193.45464 Q 193.20714,92.436132 193.20714,94.581132 193.20714,95.901132 193.26214,96.808632 193.31714,97.716132 193.53714,98.238632 193.78464,98.761132 194.22464,99.063632 194.66464,99.338632 195.40714,99.338632 196.67214,99.338632 198.21214,98.211132 L 198.81714,99.778632 Q 196.91964,101.18113 194.91214,101.18113 192.93214,101.18113 192.02464,99.998632 191.11714,98.788632 191.19964,96.093632 191.19964,95.103632 191.25464,93.563632 191.30964,92.023632 191.47464,89.988632 H 188.53214 V 88.366132 H 191.55714 Z"
         id="path32" />
      <path
         d="M 202.85964,89.851132 Q 204.53714,88.091132 207.34214,88.091132 209.65214,88.091132 210.97214,89.273632 212.31964,90.428632 212.31964,93.151132 V 100.93363 H 210.44964 V 99.558632 Q 208.44214,101.23613 205.93964,101.23613 204.94964,101.23613 204.15214,100.93363 203.38214,100.63113 202.83214,100.13613 202.28214,99.641132 201.97964,99.008632 201.70464,98.376132 201.70464,97.743632 201.70464,95.846132 203.32714,94.746132 204.97714,93.646132 208.05714,93.536132 H 210.42214 V 93.068632 Q 210.42214,91.198632 209.62464,90.456132 208.85464,89.713632 207.20464,89.713632 205.16964,89.713632 203.82214,91.116132 Z M 210.50464,95.048632 H 210.03714 Q 209.65214,95.048632 209.29464,95.048632 208.96464,95.021132 208.63464,95.021132 207.12214,95.021132 206.15964,95.241132 205.19714,95.433632 204.64714,95.791132 204.09714,96.148632 203.87714,96.616132 203.68464,97.056132 203.68464,97.578632 203.68464,98.458632 204.45464,99.091132 205.22464,99.723632 206.35214,99.723632 207.17714,99.723632 207.83714,99.476132 208.49714,99.201132 208.99214,98.843632 209.48714,98.458632 209.78964,98.073632 210.09214,97.661132 210.22964,97.358632 210.50464,96.808632 210.50464,95.873632 Z"
         id="path34" />
      <path
         d="M 226.70214,86.496132 225.35464,87.871132 Q 225.18964,87.761132 224.99714,87.348632 224.58464,86.441132 223.70464,85.891132 222.85214,85.313632 221.69714,85.313632 220.89964,85.313632 220.04714,85.643632 219.22214,85.973632 218.53464,86.771132 217.84714,87.568632 217.40714,88.888632 216.99464,90.181132 216.99464,92.161132 216.99464,93.948632 217.35214,95.323632 217.70964,96.698632 218.34214,97.633632 218.97464,98.541132 219.82714,99.036132 220.70714,99.503632 221.72464,99.503632 223.51214,99.503632 224.96964,98.458632 V 94.388632 H 221.86214 V 92.711132 H 226.75714 V 99.421132 Q 224.30964,101.20863 221.72464,101.20863 220.18464,101.20863 218.94714,100.60363 217.73714,99.971132 216.85714,98.843632 216.00464,97.716132 215.53714,96.121132 215.09714,94.526132 215.09714,92.573632 215.09714,89.878632 215.75714,88.063632 216.44464,86.248632 217.51714,85.313632 218.58964,84.351132 219.68964,83.993632 220.81714,83.636132 221.72464,83.636132 223.29214,83.636132 224.63964,84.433632 225.98714,85.203632 226.70214,86.496132 Z"
         id="path36" />
      <path
         d="M 234.84214,88.091132 Q 235.99714,88.091132 237.01464,88.558632 238.05964,88.998632 238.82964,89.851132 239.59964,90.703632 240.03964,91.941132 240.50714,93.151132 240.50714,94.663632 240.50714,96.203632 240.06714,97.413632 239.62714,98.623632 238.85714,99.503632 238.08714,100.35613 237.04214,100.82363 235.99714,101.26363 234.81464,101.26363 233.60464,101.26363 232.53214,100.76863 231.48714,100.27363 230.68964,99.421132 229.89214,98.541132 229.42464,97.331132 228.95714,96.121132 228.95714,94.718632 228.95714,93.316132 229.42464,92.078632 229.91964,90.841132 230.71714,89.988632 231.54214,89.108632 232.61464,88.613632 233.68714,88.091132 234.84214,88.091132 Z M 238.52714,94.718632 Q 238.52714,93.536132 238.19714,92.628632 237.89464,91.693632 237.37214,91.061132 236.84964,90.428632 236.16214,90.098632 235.50214,89.768632 234.75964,89.768632 234.01714,89.768632 233.32964,90.098632 232.66964,90.428632 232.14714,91.061132 231.65214,91.693632 231.34964,92.601132 231.04714,93.481132 231.04714,94.608632 231.04714,95.708632 231.34964,96.616132 231.65214,97.523632 232.14714,98.183632 232.66964,98.843632 233.35714,99.201132 234.04464,99.558632 234.81464,99.558632 235.58464,99.558632 236.24464,99.256132 236.93214,98.926132 237.42714,98.321132 237.94964,97.688632 238.22464,96.781132 238.52714,95.873632 238.52714,94.718632 Z"
         id="path38" />
      <path
         d="M 256.73214,100.93363 V 83.801132 H 258.60214 L 265.80714,96.506132 V 83.773632 H 267.84214 Q 267.84214,83.938632 267.73214,84.131132 267.64964,84.323632 267.64964,84.516132 V 100.93363 H 266.13714 L 258.57464,87.458632 V 100.93363 Z"
         id="path40" />
      <path
         d="M 276.22964,88.063632 Q 277.21964,88.063632 278.15464,88.421132 279.08964,88.778632 279.77714,89.521132 280.49214,90.236132 280.90464,91.363632 281.34464,92.491132 281.34464,94.031132 281.34464,94.251132 281.31714,94.498632 281.31714,94.718632 281.28964,94.938632 H 272.35214 Q 272.40714,96.258632 272.79214,97.166132 273.20464,98.046132 273.80964,98.596132 274.41464,99.146132 275.15714,99.393632 275.89964,99.613632 276.64214,99.613632 278.59464,99.613632 279.88714,98.211132 L 280.98714,99.283632 Q 279.39214,101.20863 276.58714,101.20863 275.21214,101.20863 274.05714,100.79613 272.92964,100.35613 272.13214,99.531132 271.33464,98.706132 270.89464,97.496132 270.45464,96.258632 270.45464,94.691132 270.45464,93.096132 270.89464,91.858632 271.36214,90.621132 272.13214,89.796132 272.92964,88.943632 273.97464,88.503632 275.01964,88.063632 276.22964,88.063632 Z M 272.43464,93.398632 H 279.33714 Q 279.33714,93.288632 279.33714,93.206132 279.36464,93.096132 279.36464,92.958632 279.36464,92.271132 279.08964,91.666132 278.84214,91.033632 278.40214,90.593632 277.96214,90.126132 277.35714,89.851132 276.77964,89.576132 276.09214,89.576132 274.79964,89.576132 273.75464,90.511132 272.70964,91.418632 272.43464,93.398632 Z"
         id="path42" />
      <path
         d="M 285.57964,88.366132 H 287.64214 L 287.58714,90.786132 Q 288.16464,89.466132 289.40214,88.778632 290.66714,88.063632 292.09714,88.063632 294.13214,88.063632 295.45214,89.438632 L 294.54464,91.336132 Q 294.24214,90.923632 293.99464,90.648632 293.74714,90.373632 293.44464,90.181132 293.16964,89.988632 292.81214,89.878632 292.48214,89.768632 291.98714,89.768632 291.07964,89.768632 290.28214,90.208632 289.48464,90.621132 288.87964,91.336132 288.30214,92.023632 287.94464,92.931132 287.58714,93.838632 287.58714,94.828632 V 100.96113 H 285.57964 Z"
         id="path44" />
      <path
         d="M 306.80964,90.208632 V 82.646132 H 308.92714 Q 308.92714,82.811132 308.78964,83.031132 308.65214,83.223632 308.65214,83.416132 L 308.67964,99.778632 Q 308.67964,100.43863 308.81714,100.93363 H 306.83714 Q 306.72714,100.60363 306.72714,99.998632 V 98.926132 Q 306.12214,99.971132 305.07714,100.60363 304.03214,101.20863 302.95964,101.20863 301.91464,101.20863 300.97964,100.79613 300.07214,100.38363 299.35714,99.558632 298.66964,98.733632 298.25714,97.496132 297.84464,96.231132 297.84464,94.526132 297.84464,92.793632 298.31214,91.583632 298.77964,90.346132 299.52214,89.576132 300.29214,88.778632 301.22714,88.421132 302.16214,88.036132 303.12464,88.036132 304.44464,88.036132 305.37964,88.641132 306.34214,89.218632 306.80964,90.208632 Z M 300.95214,90.593632 Q 299.76964,91.666132 299.76964,94.223632 299.76964,96.588632 300.67714,98.046132 301.58464,99.476132 303.34464,99.476132 303.75714,99.476132 304.22464,99.338632 304.69214,99.173632 305.10464,98.871132 305.51714,98.568632 305.84714,98.156132 306.17714,97.743632 306.34214,97.221132 306.64464,96.231132 306.64464,94.581132 306.64464,93.536132 306.56214,92.848632 306.47964,92.133632 306.28714,91.638632 306.12214,91.143632 305.84714,90.841132 305.57214,90.511132 305.15964,90.263632 304.66464,89.961132 304.22464,89.823632 303.81214,89.658632 303.42714,89.658632 302.62964,89.658632 302.05214,89.878632 301.50214,90.098632 300.95214,90.593632 Z"
         id="path46" />
      <path
         d="M 326.25214,83.773632 H 336.12464 V 85.451132 H 328.17714 V 90.841132 H 334.58464 V 92.518632 H 328.17714 V 100.93363 H 326.25214 Z"
         id="path48" />
      <path
         d="M 344.84214,88.091132 Q 345.99714,88.091132 347.01464,88.558632 348.05964,88.998632 348.82964,89.851132 349.59964,90.703632 350.03964,91.941132 350.50714,93.151132 350.50714,94.663632 350.50714,96.203632 350.06714,97.413632 349.62714,98.623632 348.85714,99.503632 348.08714,100.35613 347.04214,100.82363 345.99714,101.26363 344.81464,101.26363 343.60464,101.26363 342.53214,100.76863 341.48714,100.27363 340.68964,99.421132 339.89214,98.541132 339.42464,97.331132 338.95714,96.121132 338.95714,94.718632 338.95714,93.316132 339.42464,92.078632 339.91964,90.841132 340.71714,89.988632 341.54214,89.108632 342.61464,88.613632 343.68714,88.091132 344.84214,88.091132 Z M 348.52714,94.718632 Q 348.52714,93.536132 348.19714,92.628632 347.89464,91.693632 347.37214,91.061132 346.84964,90.428632 346.16214,90.098632 345.50214,89.768632 344.75964,89.768632 344.01714,89.768632 343.32964,90.098632 342.66964,90.428632 342.14714,91.061132 341.65214,91.693632 341.34964,92.601132 341.04714,93.481132 341.04714,94.608632 341.04714,95.708632 341.34964,96.616132 341.65214,97.523632 342.14714,98.183632 342.66964,98.843632 343.35714,99.201132 344.04464,99.558632 344.81464,99.558632 345.58464,99.558632 346.24464,99.256132 346.93214,98.926132 347.42714,98.321132 347.94964,97.688632 348.22464,96.781132 348.52714,95.873632 348.52714,94.718632 Z"
         id="path50" />
      <path
         d="M 353.47714,100.93363 V 88.366132 H 355.51214 V 90.593632 Q 356.22714,89.438632 357.32714,88.751132 358.45464,88.063632 359.60964,88.063632 360.43464,88.063632 361.14964,88.366132 361.86464,88.641132 362.38714,89.273632 362.90964,89.906132 363.18464,90.896132 363.48714,91.886132 363.48714,93.316132 V 100.93363 H 361.53464 V 93.371132 Q 361.53464,91.391132 360.84714,90.593632 360.18714,89.796132 359.22464,89.796132 358.59214,89.796132 357.93214,90.071132 357.27214,90.346132 356.72214,90.868632 356.19964,91.363632 355.84214,92.078632 355.51214,92.793632 355.51214,93.701132 V 100.93363 Z"
         id="path52" />
      <path
         d="M 370.52714,85.011132 372.69964,84.653632 Q 372.69964,84.901132 372.61714,85.093632 372.56214,85.286132 372.53464,85.396132 L 372.20464,88.366132 H 376.32964 V 89.988632 H 372.20464 Q 371.95714,92.436132 371.95714,94.581132 371.95714,95.901132 372.01214,96.808632 372.06714,97.716132 372.28714,98.238632 372.53464,98.761132 372.97464,99.063632 373.41464,99.338632 374.15714,99.338632 375.42214,99.338632 376.96214,98.211132 L 377.56714,99.778632 Q 375.66964,101.18113 373.66214,101.18113 371.68214,101.18113 370.77464,99.998632 369.86714,98.788632 369.94964,96.093632 369.94964,95.103632 370.00464,93.563632 370.05964,92.023632 370.22464,89.988632 H 367.28214 V 88.366132 H 370.30714 Z"
         id="path54" />
    </g>
    <g
       aria-label="abcdefghijklmnopqrstuvwxyzABCDEFGHIJKLMNOPQRSTUVWXYZ oO08 iIlL1 {} [] g9qCGQ ~-+=&gt;"
       id="text4140"
       style="font-size:17.5px;font-family:'InconsolataGo Nerd Font';letter-spacing:0px;word-spacing:0px;fill:#ffffff">
      <path
         d="M 67.011903,133.88112 Q 68.079403,132.76112 69.864403,132.76112 71.334403,132.76112 72.174403,133.51362 73.031903,134.24862 73.031903,135.98112 V 140.93362 H 71.841903 V 140.05862 Q 70.564403,141.12612 68.971903,141.12612 68.341903,141.12612 67.834403,140.93362 67.344403,140.74112 66.994403,140.42612 66.644403,140.11112 66.451903,139.70862 66.276903,139.30612 66.276903,138.90362 66.276903,137.69612 67.309403,136.99612 68.359403,136.29612 70.319403,136.22612 H 71.824403 V 135.92862 Q 71.824403,134.73862 71.316903,134.26612 70.826903,133.79362 69.776903,133.79362 68.481903,133.79362 67.624403,134.68612 Z M 71.876903,137.18862 H 71.579403 Q 71.334403,137.18862 71.106903,137.18862 70.896903,137.17112 70.686903,137.17112 69.724403,137.17112 69.111903,137.31112 68.499403,137.43362 68.149403,137.66112 67.799403,137.88862 67.659403,138.18612 67.536903,138.46612 67.536903,138.79862 67.536903,139.35862 68.026903,139.76112 68.516903,140.16362 69.234403,140.16362 69.759403,140.16362 70.179403,140.00612 70.599403,139.83112 70.914403,139.60362 71.229403,139.35862 71.421903,139.11362 71.614403,138.85112 71.701903,138.65862 71.876903,138.30862 71.876903,137.71362 Z"
         id="path57" />
      <path
         d="M 75.219403,129.29612 H 76.689403 V 129.33112 Q 76.689403,129.41862 76.584403,129.50612 76.496903,129.57612 76.496903,129.68112 V 134.16112 Q 76.881903,133.51362 77.529403,133.12862 78.194403,132.74362 78.876903,132.74362 79.541903,132.74362 80.136903,133.00612 80.731903,133.25112 81.186903,133.77612 81.641903,134.28362 81.904403,135.05362 82.166903,135.82362 82.166903,136.85612 82.166903,137.94112 81.869403,138.74612 81.589403,139.53362 81.116903,140.07612 80.644403,140.60112 80.049403,140.86362 79.454403,141.12612 78.824403,141.12612 78.089403,141.12612 77.476903,140.79362 76.864403,140.46112 76.461903,139.88362 L 76.024403,140.93362 H 75.219403 Z M 77.406903,139.70862 Q 77.739403,139.88362 78.001903,139.95362 78.264403,140.00612 78.491903,140.00612 78.841903,140.00612 79.261903,139.88362 79.681903,139.74362 80.031903,139.41112 80.399403,139.07862 80.626903,138.51862 80.871903,137.95862 80.871903,137.10112 80.871903,135.50862 80.224403,134.66862 79.576903,133.82862 78.351903,133.82862 77.914403,133.82862 77.424403,134.14362 76.934403,134.45862 76.706903,134.98362 76.496903,135.50862 76.496903,136.69862 76.496903,137.43362 76.531903,137.94112 76.566903,138.44862 76.671903,138.79862 76.776903,139.13112 76.951903,139.34112 77.126903,139.55112 77.406903,139.70862 Z"
         id="path59" />
      <path
         d="M 90.916903,134.26612 90.024403,135.29862 Q 89.936903,135.24612 89.936903,135.19362 89.954403,135.12362 89.919403,135.01862 89.901903,134.91362 89.796903,134.75612 89.691903,134.59862 89.376903,134.33612 88.781903,133.84612 87.749403,133.84612 87.241903,133.84612 86.769403,134.05612 86.314403,134.26612 85.964403,134.66862 85.614403,135.05362 85.404403,135.61362 85.194403,136.15612 85.194403,136.83862 85.194403,137.52112 85.404403,138.09862 85.614403,138.67612 85.981903,139.09612 86.349403,139.51612 86.856903,139.76112 87.364403,139.98862 87.976903,139.98862 89.184403,139.98862 90.059403,139.00862 L 90.794403,139.86612 Q 89.604403,141.12612 87.871903,141.12612 87.014403,141.12612 86.279403,140.81112 85.561903,140.49612 85.019403,139.93612 84.494403,139.37612 84.196903,138.62362 83.899403,137.85362 83.899403,136.94362 83.899403,136.05112 84.196903,135.28112 84.494403,134.51112 85.019403,133.96862 85.561903,133.40862 86.296903,133.09362 87.049403,132.77862 87.924403,132.77862 88.869403,132.77862 89.639403,133.18112 90.426903,133.56612 90.916903,134.26612 Z"
         id="path61" />
      <path
         d="M 98.161903,134.10862 V 129.29612 H 99.509403 Q 99.509403,129.40112 99.421903,129.54112 99.334403,129.66362 99.334403,129.78612 L 99.351903,140.19862 Q 99.351903,140.61862 99.439403,140.93362 H 98.179403 Q 98.109403,140.72362 98.109403,140.33862 V 139.65612 Q 97.724403,140.32112 97.059403,140.72362 96.394403,141.10862 95.711903,141.10862 95.046903,141.10862 94.451903,140.84612 93.874403,140.58362 93.419403,140.05862 92.981903,139.53362 92.719403,138.74612 92.456903,137.94112 92.456903,136.85612 92.456903,135.75362 92.754403,134.98362 93.051903,134.19612 93.524403,133.70612 94.014403,133.19862 94.609403,132.97112 95.204403,132.72612 95.816903,132.72612 96.656903,132.72612 97.251903,133.11112 97.864403,133.47862 98.161903,134.10862 Z M 94.434403,134.35362 Q 93.681903,135.03612 93.681903,136.66362 93.681903,138.16862 94.259403,139.09612 94.836903,140.00612 95.956903,140.00612 96.219403,140.00612 96.516903,139.91862 96.814403,139.81362 97.076903,139.62112 97.339403,139.42862 97.549403,139.16612 97.759403,138.90362 97.864403,138.57112 98.056903,137.94112 98.056903,136.89112 98.056903,136.22612 98.004403,135.78862 97.951903,135.33362 97.829403,135.01862 97.724403,134.70362 97.549403,134.51112 97.374403,134.30112 97.111903,134.14362 96.796903,133.95112 96.516903,133.86362 96.254403,133.75862 96.009403,133.75862 95.501903,133.75862 95.134403,133.89862 94.784403,134.03862 94.434403,134.35362 Z"
         id="path63" />
      <path
         d="M 104.9519,132.74362 Q 105.5819,132.74362 106.1769,132.97112 106.7719,133.19862 107.2094,133.67112 107.6644,134.12612 107.9269,134.84362 108.2069,135.56112 108.2069,136.54112 108.2069,136.68112 108.1894,136.83862 108.1894,136.97862 108.1719,137.11862 H 102.4844 Q 102.5194,137.95862 102.7644,138.53612 103.0269,139.09612 103.4119,139.44612 103.7969,139.79612 104.2694,139.95362 104.7419,140.09362 105.2144,140.09362 106.4569,140.09362 107.2794,139.20112 L 107.9794,139.88362 Q 106.9644,141.10862 105.1794,141.10862 104.3044,141.10862 103.5694,140.84612 102.8519,140.56612 102.3444,140.04112 101.8369,139.51612 101.5569,138.74612 101.2769,137.95862 101.2769,136.96112 101.2769,135.94612 101.5569,135.15862 101.8544,134.37112 102.3444,133.84612 102.8519,133.30362 103.5169,133.02362 104.1819,132.74362 104.9519,132.74362 Z M 102.5369,136.13862 H 106.9294 Q 106.9294,136.06862 106.9294,136.01612 106.9469,135.94612 106.9469,135.85862 106.9469,135.42112 106.7719,135.03612 106.6144,134.63362 106.3344,134.35362 106.0544,134.05612 105.6694,133.88112 105.3019,133.70612 104.8644,133.70612 104.0419,133.70612 103.3769,134.30112 102.7119,134.87862 102.5369,136.13862 Z"
         id="path65" />
      <path
         d="M 115.1719,129.19112 Q 116.6944,129.19112 117.6219,130.29362 L 117.0444,131.44862 Q 116.9044,131.44862 116.9044,131.30862 116.9044,131.16862 116.8694,131.09862 116.5894,130.69612 116.1169,130.45112 115.6619,130.18862 115.1194,130.18862 114.6644,130.18862 114.3319,130.32862 113.9994,130.45112 113.7369,130.74862 113.4744,131.04612 113.3344,131.55362 113.2119,132.06112 113.2119,132.79612 V 133.40862 H 115.8369 V 134.40612 H 113.2119 V 140.93362 H 112.0044 V 134.40612 H 110.2719 V 133.40862 H 112.0044 V 132.62112 Q 112.0044,131.69362 112.2319,131.04612 112.4769,130.38112 112.9144,129.97862 113.3694,129.57612 113.9294,129.38362 114.5069,129.19112 115.1719,129.19112 Z"
         id="path67" />
      <path
         d="M 120.6319,134.19612 Q 120.3694,134.45862 120.2469,134.77362 120.1244,135.08862 120.1244,135.43862 120.1244,135.78862 120.2644,136.12112 120.4044,136.43612 120.6319,136.68112 120.8769,136.90862 121.1919,137.04862 121.5244,137.18862 121.8744,137.18862 122.2419,137.18862 122.5569,137.04862 122.8719,136.90862 123.1169,136.66362 123.3619,136.41862 123.5019,136.10362 123.6419,135.78862 123.6419,135.43862 123.6419,135.08862 123.5019,134.77362 123.3619,134.44112 123.1169,134.19612 122.8719,133.95112 122.5394,133.81112 122.2244,133.67112 121.8744,133.67112 121.1569,133.67112 120.6319,134.19612 Z M 123.8519,133.44362 Q 124.6919,132.72612 125.8469,132.72612 H 126.0744 L 126.2319,133.75862 Q 126.1094,133.74112 125.9869,133.74112 125.8819,133.72362 125.7594,133.72362 124.9894,133.72362 124.3769,134.10862 124.7794,134.72112 124.7794,135.45612 124.7794,136.01612 124.5519,136.52362 124.3244,137.01362 123.9219,137.39862 123.5369,137.76612 123.0119,137.99362 122.4869,138.20362 121.8919,138.20362 121.4019,138.20362 120.8769,138.01112 120.3169,138.55362 120.3169,138.92112 120.3169,139.21862 120.6494,139.39362 120.9994,139.55112 121.5944,139.55112 121.9269,139.55112 122.2594,139.53362 122.6094,139.49862 122.9069,139.49862 123.6944,139.49862 124.2544,139.65612 124.8319,139.79612 125.1819,140.07612 125.5319,140.33862 125.7069,140.70612 125.8819,141.07362 125.8819,141.49362 125.8819,141.96612 125.6544,142.40362 125.4269,142.85862 124.9719,143.19112 124.5169,143.54112 123.8169,143.73362 123.1344,143.94362 122.2069,143.94362 121.2444,143.94362 120.5444,143.78612 119.8619,143.64612 119.4419,143.38362 119.0219,143.12112 118.7944,142.77112 118.5844,142.43862 118.5844,142.05362 118.5844,141.10862 119.8969,140.28612 119.2494,139.95362 119.2494,139.18362 119.2494,138.43112 120.1594,137.67862 119.5994,137.31112 119.2844,136.73362 118.9694,136.15612 118.9694,135.50862 118.9694,134.91362 119.2144,134.40612 119.4594,133.88112 119.8619,133.49612 120.2819,133.11112 120.8069,132.90112 121.3494,132.67362 121.9094,132.67362 123.0819,132.67362 123.8519,133.44362 Z M 120.7369,140.51362 Q 119.7394,141.07362 119.7394,141.73862 119.7394,142.08862 119.9319,142.31612 120.1419,142.56112 120.4744,142.70112 120.8244,142.85862 121.2794,142.92862 121.7519,142.99862 122.2594,142.99862 123.3269,142.99862 124.0269,142.61362 124.7269,142.22862 124.7269,141.58112 124.6919,141.10862 124.3244,140.84612 123.9744,140.58362 123.2044,140.58362 123.1169,140.58362 123.0294,140.60112 122.9419,140.60112 122.8544,140.60112 122.1894,140.60112 121.6644,140.58362 121.1394,140.54862 120.7369,140.51362 Z"
         id="path69" />
      <path
         d="M 127.8944,140.93362 V 129.29612 H 129.3469 Q 129.3469,129.31362 129.3469,129.31362 129.3644,129.31362 129.3644,129.33112 129.3644,129.38362 129.2769,129.48862 129.2069,129.57612 129.1719,129.71612 V 134.35362 Q 129.6444,133.61862 130.3444,133.18112 131.0619,132.74362 131.7969,132.74362 132.3394,132.74362 132.7769,132.93612 133.2319,133.11112 133.5644,133.51362 133.8969,133.91612 134.0719,134.54612 134.2469,135.17612 134.2469,136.08612 V 140.93362 H 133.0044 V 136.12112 Q 133.0044,134.86112 132.5669,134.35362 132.1469,133.84612 131.5344,133.84612 131.1319,133.84612 130.7294,134.02112 130.3269,134.19612 129.9419,134.51112 129.5744,134.82612 129.3644,135.28112 129.1719,135.73612 129.1719,136.33112 V 140.93362 Z"
         id="path71" />
      <path
         d="M 137.2744,132.93612 H 140.4769 V 139.91862 H 142.3494 V 140.93362 H 137.1694 V 139.91862 H 139.2169 V 133.95112 H 137.2744 Z M 139.2344,129.71612 Q 139.4969,129.45362 139.8644,129.45362 140.2319,129.45362 140.4944,129.73362 140.7744,129.99612 140.7744,130.36362 140.7744,130.73112 140.4944,130.99362 140.2319,131.25612 139.8644,131.25612 139.4969,131.25612 139.2344,130.99362 138.9719,130.73112 138.9719,130.36362 138.9719,129.97862 139.2344,129.71612 Z"
         id="path73" />
      <path
         d="M 146.3744,132.93612 H 150.6269 V 140.54862 Q 150.6269,141.45862 150.3819,142.08862 150.1369,142.73612 149.6994,143.13862 149.2794,143.54112 148.7019,143.73362 148.1244,143.94362 147.4594,143.97862 145.9194,143.97862 145.0094,142.85862 L 145.8319,141.77362 Q 145.9194,141.86112 145.9194,141.94862 145.9369,142.03612 145.9894,142.14112 146.0419,142.24612 146.1994,142.36862 146.3569,142.50862 146.7244,142.70112 147.1094,142.89362 147.5469,142.89362 148.3344,142.89362 148.8419,142.35112 149.3494,141.82612 149.3494,140.61862 V 133.96862 H 146.3744 Z M 149.3494,129.71612 Q 149.6119,129.45362 149.9969,129.45362 150.3644,129.45362 150.6269,129.71612 150.9069,129.97862 150.9069,130.36362 150.9069,130.73112 150.6269,130.99362 150.3644,131.25612 149.9969,131.25612 149.6294,131.25612 149.3494,130.99362 149.0869,130.73112 149.0869,130.36362 149.0869,129.97862 149.3494,129.71612 Z"
         id="path75" />
      <path
         d="M 154.0744,129.29612 H 155.5094 Q 155.5094,129.40112 155.4219,129.52362 155.3519,129.64612 155.3519,129.75112 V 136.61112 L 159.3594,132.90112 Q 159.7619,132.98862 160.2869,132.98862 H 160.7419 L 157.3819,136.15612 161.3019,140.93362 159.6744,141.00362 156.4019,136.92612 155.3519,137.90612 V 140.93362 H 154.0744 Z"
         id="path77" />
      <path
         d="M 163.1569,129.29612 H 166.6919 V 139.91862 H 169.0369 V 140.93362 H 163.0519 V 139.91862 H 165.4144 V 130.31112 H 163.1569 Z"
         id="path79" />
      <path
         d="M 171.0844,140.93362 V 132.93612 H 172.2394 V 133.72362 Q 172.5194,133.28612 172.9569,133.02362 173.3944,132.74362 173.8844,132.74362 174.3919,132.74362 174.7769,133.07612 175.1794,133.40862 175.2844,133.91612 175.5119,133.39112 176.0019,133.07612 176.4919,132.74362 177.0694,132.74362 177.8919,132.74362 178.2769,133.33862 178.6619,133.91612 178.6269,134.79112 V 140.93362 H 177.4719 V 135.26362 Q 177.4719,134.72112 177.4194,134.40612 177.3669,134.09112 177.2444,133.93362 177.1219,133.75862 176.9994,133.72362 176.8769,133.67112 176.6844,133.67112 176.4569,133.67112 176.2294,133.86362 176.0019,134.03862 175.8269,134.31862 175.6519,134.59862 175.5469,134.96612 175.4419,135.31612 175.4419,135.64862 V 140.93362 H 174.2694 V 135.36862 Q 174.2694,134.37112 174.0769,134.03862 173.9019,133.70612 173.4469,133.70612 173.0269,133.70612 172.6244,134.21362 172.2394,134.70362 172.2394,135.59612 V 140.93362 Z"
         id="path81" />
      <path
         d="M 180.3594,140.93362 V 132.93612 H 181.6544 V 134.35362 Q 182.1094,133.61862 182.8094,133.18112 183.5269,132.74362 184.2619,132.74362 184.7869,132.74362 185.2419,132.93612 185.6969,133.11112 186.0294,133.51362 186.3619,133.91612 186.5369,134.54612 186.7294,135.17612 186.7294,136.08612 V 140.93362 H 185.4869 V 136.12112 Q 185.4869,134.86112 185.0494,134.35362 184.6294,133.84612 184.0169,133.84612 183.6144,133.84612 183.1944,134.02112 182.7744,134.19612 182.4244,134.52862 182.0919,134.84362 181.8644,135.29862 181.6544,135.75362 181.6544,136.33112 V 140.93362 Z"
         id="path83" />
      <path
         d="M 192.3644,132.76112 Q 193.0994,132.76112 193.7469,133.05862 194.4119,133.33862 194.9019,133.88112 195.3919,134.42362 195.6719,135.21112 195.9694,135.98112 195.9694,136.94362 195.9694,137.92362 195.6894,138.69362 195.4094,139.46362 194.9194,140.02362 194.4294,140.56612 193.7644,140.86362 193.0994,141.14362 192.3469,141.14362 191.5769,141.14362 190.8944,140.82862 190.2294,140.51362 189.7219,139.97112 189.2144,139.41112 188.9169,138.64112 188.6194,137.87112 188.6194,136.97862 188.6194,136.08612 188.9169,135.29862 189.2319,134.51112 189.7394,133.96862 190.2644,133.40862 190.9469,133.09362 191.6294,132.76112 192.3644,132.76112 Z M 194.7094,136.97862 Q 194.7094,136.22612 194.4994,135.64862 194.3069,135.05362 193.9744,134.65112 193.6419,134.24862 193.2044,134.03862 192.7844,133.82862 192.3119,133.82862 191.8394,133.82862 191.4019,134.03862 190.9819,134.24862 190.6494,134.65112 190.3344,135.05362 190.1419,135.63112 189.9494,136.19112 189.9494,136.90862 189.9494,137.60862 190.1419,138.18612 190.3344,138.76362 190.6494,139.18362 190.9819,139.60362 191.4194,139.83112 191.8569,140.05862 192.3469,140.05862 192.8369,140.05862 193.2569,139.86612 193.6944,139.65612 194.0094,139.27112 194.3419,138.86862 194.5169,138.29112 194.7094,137.71362 194.7094,136.97862 Z"
         id="path85" />
      <path
         d="M 197.7194,132.93612 H 198.9969 V 134.16112 Q 199.3994,133.51362 200.0644,133.14612 200.7469,132.76112 201.4294,132.76112 202.0944,132.76112 202.6894,133.02362 203.3019,133.26862 203.7569,133.77612 204.2294,134.28362 204.4919,135.05362 204.7719,135.82362 204.7719,136.87362 204.7719,137.92362 204.4744,138.72862 204.1944,139.53362 203.7219,140.07612 203.2494,140.60112 202.6369,140.88112 202.0419,141.14362 201.4119,141.14362 200.6769,141.14362 200.0469,140.81112 199.4169,140.47862 199.0144,139.88362 V 143.85612 H 197.7194 Z M 198.9969,137.60862 Q 199.0319,138.90362 199.5919,139.46362 200.1519,140.02362 200.9744,140.02362 201.4119,140.02362 201.8494,139.88362 202.2869,139.74362 202.6544,139.41112 203.0219,139.06112 203.2319,138.50112 203.4594,137.94112 203.4594,137.10112 203.4594,135.56112 202.8119,134.72112 202.1819,133.86362 201.0269,133.82862 200.6769,133.82862 200.3094,133.95112 199.9419,134.07362 199.6444,134.37112 199.3644,134.66862 199.1719,135.17612 198.9969,135.66612 198.9969,136.40112 Z"
         id="path87" />
      <path
         d="M 211.9644,134.10862 V 132.93612 H 213.1544 V 143.85612 H 211.8944 V 139.65612 Q 211.5269,140.32112 210.8619,140.72362 210.1969,141.10862 209.4444,141.10862 208.7619,141.10862 208.1494,140.81112 207.5544,140.49612 207.0994,139.93612 206.6619,139.37612 206.3994,138.58862 206.1544,137.80112 206.1544,136.83862 206.1544,135.87612 206.4344,135.12362 206.7144,134.35362 207.1869,133.82862 207.6769,133.28612 208.3069,133.00612 208.9544,132.72612 209.6719,132.72612 211.1419,132.72612 211.8419,133.89862 211.9644,134.07362 211.9644,134.10862 Z M 209.6719,133.75862 Q 209.2169,133.75862 208.8144,133.95112 208.4119,134.12612 208.0969,134.49362 207.7994,134.86112 207.6069,135.43862 207.4319,135.99862 207.4319,136.75112 207.4319,137.52112 207.6069,138.13362 207.7994,138.72862 208.1144,139.14862 208.4294,139.56862 208.8319,139.79612 209.2519,140.00612 209.7244,140.00612 210.7219,140.00612 211.2819,139.25362 211.8594,138.50112 211.8594,136.82112 211.8594,135.10612 211.2644,134.44112 210.6694,133.75862 209.6719,133.75862 Z"
         id="path89" />
      <path
         d="M 215.9019,132.93612 H 217.2144 L 217.1794,134.47612 Q 217.5469,133.63612 218.3344,133.19862 219.1394,132.74362 220.0494,132.74362 221.3444,132.74362 222.1844,133.61862 L 221.6069,134.82612 Q 221.4144,134.56362 221.2569,134.38862 221.0994,134.21362 220.9069,134.09112 220.7319,133.96862 220.5044,133.89862 220.2944,133.82862 219.9794,133.82862 219.4019,133.82862 218.8944,134.10862 218.3869,134.37112 218.0019,134.82612 217.6344,135.26362 217.4069,135.84112 217.1794,136.41862 217.1794,137.04862 V 140.95112 H 215.9019 Z"
         id="path91" />
      <path
         d="M 230.4794,134.00362 229.7444,135.10612 Q 229.6569,135.08862 229.6569,134.96612 229.6569,134.84362 229.6219,134.79112 229.3069,134.38862 228.7294,134.05612 228.1519,133.70612 227.4169,133.70612 227.0844,133.70612 226.7694,133.79362 226.4719,133.86362 226.2269,134.00362 225.9994,134.14362 225.8594,134.37112 225.7194,134.58112 225.7194,134.86112 225.7194,135.07112 225.8244,135.24612 225.9294,135.40362 226.1569,135.56112 226.3844,135.71862 226.7869,135.87612 227.2069,136.03362 227.8719,136.22612 229.3769,136.62862 229.9894,137.18862 230.6194,137.73112 230.6194,138.53612 230.6194,139.06112 230.3919,139.53362 230.1644,140.00612 229.7269,140.35612 229.2894,140.70612 228.6769,140.91612 228.0644,141.10862 227.2944,141.10862 225.2819,141.10862 223.9169,139.84862 L 224.6344,138.58862 Q 224.6869,138.64112 224.7044,138.76362 224.7219,138.86862 224.8269,139.02612 224.9319,139.18362 225.2119,139.39362 225.4919,139.58612 226.0694,139.83112 226.3319,139.95362 226.6644,140.00612 226.9969,140.05862 227.3294,140.05862 227.6794,140.05862 228.0294,139.97112 228.3969,139.88362 228.6769,139.72612 228.9744,139.55112 229.1494,139.32362 229.3244,139.07862 229.3244,138.78112 229.3244,138.32612 228.9044,138.01112 228.4844,137.69612 227.3644,137.36362 226.5944,137.13612 226.3494,137.04862 225.7194,136.80362 225.4394,136.62862 225.1594,136.43612 224.9319,136.19112 224.7044,135.92862 224.5644,135.61362 224.4244,135.28112 224.4244,134.89612 224.4244,134.47612 224.6519,134.09112 224.8794,133.70612 225.2819,133.40862 225.7019,133.11112 226.2619,132.93612 226.8394,132.74362 227.5044,132.74362 229.3419,132.74362 230.4794,134.00362 Z"
         id="path93" />
      <path
         d="M 234.9594,130.80112 236.3419,130.57362 Q 236.3419,130.73112 236.2894,130.85362 236.2544,130.97612 236.2369,131.04612 L 236.0269,132.93612 H 238.6519 V 133.96862 H 236.0269 Q 235.8694,135.52612 235.8694,136.89112 235.8694,137.73112 235.9044,138.30862 235.9394,138.88612 236.0794,139.21862 236.2369,139.55112 236.5169,139.74362 236.7969,139.91862 237.2694,139.91862 238.0744,139.91862 239.0544,139.20112 L 239.4394,140.19862 Q 238.2319,141.09112 236.9544,141.09112 235.6944,141.09112 235.1169,140.33862 234.5394,139.56862 234.5919,137.85362 234.5919,137.22362 234.6269,136.24362 234.6619,135.26362 234.7669,133.96862 H 232.8944 V 132.93612 H 234.8194 Z"
         id="path95" />
      <path
         d="M 241.5219,132.93612 H 242.7819 V 137.39862 Q 242.7819,138.16862 242.9219,138.69362 243.0619,139.20112 243.3069,139.51612 243.5694,139.83112 243.8844,139.97112 244.2169,140.11112 244.6019,140.11112 245.0219,140.07612 245.4069,139.90112 245.7919,139.72612 246.0894,139.41112 246.4044,139.07862 246.5794,138.57112 246.7544,138.06362 246.7544,137.34612 V 132.93612 H 248.0319 V 140.21612 Q 248.0319,140.61862 248.1194,140.93362 H 246.7894 Q 246.7719,140.81112 246.7544,140.67112 246.7369,140.51362 246.7544,140.32112 L 246.7719,139.70862 Q 246.3869,140.37362 245.7219,140.75862 245.0744,141.12612 244.2869,141.12612 243.6744,141.12612 243.1844,140.91612 242.6944,140.68862 242.2919,140.23362 241.9069,139.77862 241.6969,139.07862 241.5044,138.37862 241.5044,137.39862 Z"
         id="path97" />
      <path
         d="M 250.0444,133.37362 249.8694,132.93612 H 251.3744 Q 251.3744,133.05862 251.3394,133.16362 251.3219,133.25112 251.3219,133.32112 251.3219,133.35612 251.3394,133.37362 L 253.6494,139.21862 254.9444,136.24362 Q 255.3644,135.28112 255.6269,134.45862 255.8894,133.63612 256.0294,132.93612 H 257.1669 Q 256.8169,134.40612 255.9594,136.43612 L 254.0169,140.98612 H 253.0369 Z"
         id="path99" />
      <path
         d="M 258.1994,132.93612 H 259.4769 V 133.00612 Q 259.4769,133.11112 259.4419,133.25112 259.4069,133.37362 259.4069,133.49612 259.4069,133.56612 259.4244,133.60112 L 260.5969,139.35862 261.9619,133.68862 H 262.7319 L 264.4294,139.34112 Q 264.6569,137.80112 264.7969,136.80362 264.9544,135.80612 265.0244,135.15862 265.1119,134.49362 265.1294,134.07362 265.1644,133.63612 265.1644,133.19862 V 132.93612 H 266.3369 Q 266.0744,134.96612 265.7419,136.96112 265.4094,138.95612 265.0069,140.95112 H 263.8169 L 262.3469,135.77112 260.9469,140.95112 H 259.8094 Z"
         id="path101" />
      <path
         d="M 273.0044,132.93612 H 274.2994 L 271.7094,136.82112 274.6494,140.93362 H 273.2144 L 271.0094,137.81862 268.9269,140.93362 H 267.4919 L 270.3094,136.87362 267.5444,132.93612 H 268.9269 L 271.0094,135.89362 Z"
         id="path103" />
      <path
         d="M 276.4519,133.49612 276.2244,132.93612 H 277.7819 Q 277.7819,133.07612 277.7469,133.18112 277.7119,133.26862 277.7119,133.35612 277.7119,133.42612 277.7469,133.46112 L 280.0919,139.34112 281.6144,135.05362 Q 281.8419,134.44112 281.9819,133.91612 282.1219,133.37362 282.2094,132.93612 H 283.5219 Q 283.3644,133.39112 283.1719,133.96862 282.9969,134.54612 282.7344,135.24612 L 280.5644,140.96862 280.2319,141.84362 Q 279.8119,143.01612 279.1469,143.48862 278.4994,143.97862 277.6419,143.97862 276.5044,143.97862 275.8044,143.29612 L 276.4694,142.17612 Q 276.5219,142.22862 276.5569,142.33362 276.5919,142.45612 276.6094,142.49112 276.6094,142.49112 276.6794,142.56112 276.7494,142.64862 276.8544,142.71862 276.9769,142.80612 277.1519,142.87612 277.3269,142.94612 277.5369,142.94612 278.0444,142.94612 278.4294,142.63112 278.8319,142.31612 279.2169,141.49362 L 279.4619,140.89862 Z"
         id="path105" />
      <path
         d="M 285.4119,132.93612 H 291.6244 V 133.79362 L 286.7594,139.84862 H 291.5019 Q 291.6244,139.84862 291.7644,139.79612 291.9219,139.74362 292.0444,139.74362 V 140.93362 H 285.0444 V 140.07612 L 289.9969,134.03862 H 285.4119 Z"
         id="path107" />
      <path
         d="M 65.681903,162.80862 69.531903,151.71362 H 69.671903 L 73.871903,162.80862 H 72.611903 L 71.404403,159.62362 H 67.939403 L 66.889403,162.80862 Z M 71.124403,158.67862 69.584403,154.51362 68.184403,158.67862 Z"
         id="path109" />
      <path
         d="M 75.009403,151.90612 H 78.106903 Q 79.051903,151.90612 79.734403,152.09862 80.434403,152.27362 80.854403,152.64112 81.274403,153.00862 81.501903,153.49862 81.729403,153.97112 81.729403,154.54862 81.729403,155.31862 81.309403,156.00112 80.889403,156.68362 80.119403,156.96362 80.574403,157.12112 80.941903,157.41862 81.326903,157.69862 81.606903,158.06612 81.886903,158.43362 82.026903,158.87112 82.166903,159.29112 82.166903,159.74612 82.166903,161.12862 81.186903,161.96862 80.206903,162.80862 78.089403,162.80862 H 75.009403 Z M 76.216903,152.93862 V 156.42112 H 77.931903 Q 78.666903,156.42112 79.139403,156.29862 79.611903,156.15862 79.891903,155.93112 80.189403,155.70362 80.329403,155.38862 80.469403,155.05612 80.504403,154.68862 80.469403,154.32112 80.329403,154.00612 80.206903,153.69112 79.926903,153.46362 79.646903,153.21862 79.209403,153.07862 78.771903,152.93862 78.124403,152.93862 Z M 76.216903,157.45362 V 161.74112 H 78.299403 Q 79.699403,161.74112 80.241903,161.16362 80.801903,160.56862 80.871903,159.67612 80.836903,159.18612 80.679403,158.78362 80.521903,158.38112 80.189403,158.08362 79.874403,157.76862 79.314403,157.61112 78.771903,157.45362 78.001903,157.45362 Z"
         id="path111" />
      <path
         d="M 89.884403,154.37362 Q 89.884403,154.16362 89.831903,154.05862 89.481903,153.48112 88.921903,153.14862 88.361903,152.79862 87.731903,152.79862 87.136903,152.79862 86.611903,153.11362 86.086903,153.41112 85.684403,154.00612 85.281903,154.58362 85.054403,155.42362 84.826903,156.26362 84.826903,157.33112 84.826903,158.36362 85.054403,159.22112 85.281903,160.06112 85.684403,160.67362 86.104403,161.26862 86.646903,161.60112 87.206903,161.93362 87.836903,161.93362 88.484403,161.93362 89.079403,161.58362 89.691903,161.21612 90.059403,160.60362 L 90.969403,161.19862 Q 90.706903,161.63612 90.339403,161.96862 89.971903,162.30112 89.551903,162.52862 89.149403,162.75612 88.729403,162.86112 88.326903,162.98362 87.906903,162.98362 86.961903,162.98362 86.226903,162.66862 85.509403,162.33612 84.896903,161.65362 84.301903,160.97112 83.969403,159.92112 83.636903,158.87112 83.636903,157.41862 83.636903,155.80862 84.021903,154.74112 84.406903,153.65612 85.036903,153.00862 85.666903,152.36112 86.366903,152.09862 87.084403,151.81862 87.749403,151.81862 88.291903,151.81862 88.799403,151.97612 89.324403,152.13362 89.761903,152.41362 90.216903,152.69362 90.566903,153.09612 90.916903,153.48112 91.126903,153.97112 L 89.954403,154.54862 Q 89.884403,154.49612 89.884403,154.37362 Z"
         id="path113" />
      <path
         d="M 92.614403,151.90612 H 95.151903 Q 96.551903,151.90612 97.321903,152.29112 98.109403,152.67612 98.651903,153.39362 99.194403,154.11112 99.456903,155.12612 99.719403,156.14112 99.719403,157.41862 99.719403,158.67862 99.404403,159.67612 99.089403,160.67362 98.529403,161.39112 97.986903,162.09112 97.111903,162.45862 96.236903,162.82612 94.941903,162.82612 H 92.614403 Z M 93.769403,152.93862 V 161.86362 H 94.889403 Q 96.761903,161.86362 97.619403,160.74362 98.494403,159.60612 98.494403,157.48862 98.476903,155.35362 97.689403,154.14612 96.919403,152.93862 95.081903,152.93862 Z"
         id="path115" />
      <path
         d="M 101.4519,151.88862 H 108.1369 V 152.97362 H 102.6069 V 156.56112 H 107.1744 V 157.68112 H 102.6069 V 161.72362 H 108.0844 V 162.80862 H 101.4519 Z"
         id="path117" />
      <path
         d="M 110.5344,151.88862 H 116.8169 V 152.95612 H 111.7594 V 156.38612 H 115.8369 V 157.45362 H 111.7594 V 162.80862 H 110.5344 Z"
         id="path119" />
      <path
         d="M 125.9344,153.62112 125.0769,154.49612 Q 124.9719,154.42612 124.8494,154.16362 124.5869,153.58612 124.0269,153.23612 123.4844,152.86862 122.7494,152.86862 122.2419,152.86862 121.6994,153.07862 121.1744,153.28862 120.7369,153.79612 120.2994,154.30362 120.0194,155.14362 119.7569,155.96612 119.7569,157.22612 119.7569,158.36362 119.9844,159.23862 120.2119,160.11362 120.6144,160.70862 121.0169,161.28612 121.5594,161.60112 122.1194,161.89862 122.7669,161.89862 123.9044,161.89862 124.8319,161.23362 V 158.64362 H 122.8544 V 157.57612 H 125.9694 V 161.84612 Q 124.4119,162.98362 122.7669,162.98362 121.7869,162.98362 120.9994,162.59862 120.2294,162.19612 119.6694,161.47862 119.1269,160.76112 118.8294,159.74612 118.5494,158.73112 118.5494,157.48862 118.5494,155.77362 118.9694,154.61862 119.4069,153.46362 120.0894,152.86862 120.7719,152.25612 121.4719,152.02862 122.1894,151.80112 122.7669,151.80112 123.7644,151.80112 124.6219,152.30862 125.4794,152.79862 125.9344,153.62112 Z"
         id="path121" />
      <path
         d="M 127.6144,151.90612 H 128.9794 Q 128.9969,151.92362 128.9969,151.95862 128.9969,152.01112 128.9444,152.09862 128.9094,152.18612 128.8919,152.32612 V 156.57862 H 133.1619 V 151.90612 H 134.4919 Q 134.5094,151.92362 134.5094,151.95862 134.5094,152.02862 134.4569,152.11612 134.4044,152.18612 134.3869,152.29112 V 162.82612 H 133.1444 V 157.61112 H 128.8919 V 162.80862 H 127.6144 Z"
         id="path123" />
      <path
         d="M 136.9594,151.90612 H 142.3669 V 152.93862 H 140.2144 V 161.81112 H 142.4719 V 162.82612 H 136.8369 V 161.79362 H 138.9894 V 152.93862 H 136.9594 Z"
         id="path125" />
      <path
         d="M 147.1794,151.90612 H 152.1669 V 152.93862 H 150.4869 V 159.15112 Q 150.4869,160.21862 150.2769,160.93612 150.0844,161.65362 149.6469,162.12612 149.2094,162.59862 148.7019,162.80862 148.1944,163.00112 147.5994,163.00112 146.0419,163.00112 145.0269,161.79362 L 145.8494,160.79612 Q 145.9019,160.84862 145.9019,160.97112 145.9194,161.07612 145.9719,161.14612 L 146.1819,161.35612 Q 146.2519,161.44362 146.4094,161.54862 146.5669,161.63612 146.7594,161.72362 146.9694,161.79362 147.1794,161.86362 147.3894,161.91612 147.5994,161.91612 148.4744,161.91612 148.8769,161.30362 149.2794,160.69112 149.2794,159.16862 V 152.93862 H 147.1794 Z"
         id="path127" />
      <path
         d="M 153.6544,151.88862 H 155.1244 Q 155.1244,151.99362 155.0369,152.11612 154.9669,152.22112 154.9669,152.34362 V 156.92862 L 159.5169,151.81862 Q 159.9019,151.90612 160.4269,151.90612 H 160.8819 L 156.7519,156.61362 161.1619,162.80862 159.5869,162.87862 155.8244,157.34862 154.9669,158.29362 V 162.80862 H 153.6544 Z"
         id="path129" />
      <path
         d="M 162.8244,151.90612 H 164.2594 Q 164.2594,152.02862 164.1719,152.18612 164.1019,152.34362 164.1019,152.50112 V 161.74112 H 169.3519 V 162.80862 H 162.8244 Z"
         id="path131" />
      <path
         d="M 171.1369,151.90612 H 172.0994 L 174.7944,157.24362 177.5419,151.88862 H 178.4694 V 162.80862 H 177.3144 V 154.58362 L 174.9519,158.97612 H 174.4794 L 172.2744,154.63612 V 162.80862 H 171.1369 Z"
         id="path133" />
      <path
         d="M 180.0444,162.80862 V 151.90612 H 181.2344 L 185.8194,159.99112 V 151.88862 H 187.1144 Q 187.1144,151.99362 187.0444,152.11612 186.9919,152.23862 186.9919,152.36112 V 162.80862 H 186.0294 L 181.2169,154.23362 V 162.80862 Z"
         id="path135" />
      <path
         d="M 192.3644,162.98362 Q 191.4719,162.98362 190.7369,162.58112 190.0194,162.16112 189.4944,161.42612 188.9869,160.67362 188.7069,159.64112 188.4269,158.59112 188.4269,157.33112 188.4269,156.07112 188.7069,155.03862 189.0044,154.00612 189.5294,153.28862 190.0544,152.57112 190.7894,152.18612 191.5244,151.78362 192.3994,151.78362 193.1694,151.78362 193.8344,152.11612 194.4994,152.44862 195.0419,153.13112 195.6019,153.79612 195.8819,154.84612 196.1619,155.89612 196.1619,157.34862 196.1619,158.92362 195.8294,160.00862 195.4969,161.07612 194.9544,161.74112 194.4119,162.40612 193.7294,162.70362 193.0644,162.98362 192.3644,162.98362 Z M 190.5444,160.79612 Q 191.3669,161.77612 192.3644,161.77612 192.8369,161.77612 193.2919,161.58362 193.7469,161.37362 194.1144,160.86612 194.4994,160.35862 194.7094,159.50112 194.9369,158.64362 194.9369,157.31362 194.9369,156.01862 194.6919,155.19612 194.4469,154.35612 194.0619,153.86612 193.6944,153.37612 193.2744,153.16612 192.8719,152.93862 192.3994,152.93862 191.8569,152.92112 191.4019,153.13112 190.9469,153.34112 190.5444,153.81362 190.1419,154.28612 189.8794,155.10862 189.6344,155.93112 189.6344,157.22612 189.6344,158.43362 189.8794,159.36112 190.1419,160.28862 190.5444,160.79612 Z"
         id="path137" />
      <path
         d="M 197.7019,151.90612 H 201.2019 Q 202.1119,151.90612 202.7419,152.15112 203.3894,152.37862 203.7919,152.81612 204.2119,153.23612 204.4044,153.79612 204.6144,154.35612 204.6494,154.98612 204.6144,155.61612 204.4044,156.17612 204.2119,156.71862 203.8094,157.12112 203.4244,157.52362 202.7944,157.76862 202.1819,157.99612 201.2894,157.99612 H 198.9619 V 162.80862 H 197.7019 Z M 198.9619,153.06112 V 156.91112 H 201.1494 Q 202.3394,156.91112 202.8294,156.40362 203.3369,155.87862 203.3894,155.02112 203.3544,154.61862 203.2144,154.26862 203.0919,153.90112 202.8294,153.63862 202.5669,153.37612 202.1469,153.21862 201.7444,153.06112 201.1669,153.06112 Z"
         id="path139" />
      <path
         d="M 208.0269,153.81362 Q 207.1169,154.84612 207.1169,157.15612 207.1169,158.20612 207.2919,159.06362 207.4844,159.92112 207.8344,160.53362 208.2019,161.14612 208.7269,161.49612 209.2694,161.84612 209.8994,161.84612 210.3369,161.84612 210.7919,161.63612 211.2644,161.40862 211.6494,160.91862 212.0344,160.41112 212.2619,159.62362 212.4894,158.81862 212.4894,157.66362 212.4894,156.19362 212.2444,155.26612 211.9994,154.33862 211.5619,153.81362 211.1419,153.28862 210.6869,153.09612 210.2319,152.88612 209.8119,152.88612 209.2869,152.88612 208.8319,153.14862 208.3769,153.41112 208.0269,153.81362 Z M 213.6619,157.36612 Q 213.6619,159.78112 212.8394,161.18112 212.0344,162.58112 210.4419,162.93112 210.4769,163.50862 210.7394,163.87612 211.0019,164.24362 211.7369,164.24362 211.8244,164.24362 212.0169,164.22612 212.2094,164.20862 212.4369,164.19112 212.6644,164.19112 212.8569,164.17362 213.0669,164.15612 213.1544,164.15612 L 213.1194,165.34612 H 212.4369 Q 211.5794,165.34612 210.9844,165.25862 210.4069,165.17112 210.0394,164.85612 209.6894,164.54112 209.5319,164.06862 209.3744,163.61362 209.3744,162.93112 208.7094,162.84362 208.0969,162.47612 207.4844,162.09112 206.9944,161.40862 206.5044,160.72612 206.2069,159.74612 205.9269,158.74862 205.9269,157.41862 205.9269,155.77362 206.2944,154.68862 206.6794,153.60362 207.2569,152.97362 207.8344,152.34362 208.5169,152.06362 209.1994,151.78362 209.8119,151.78362 210.5644,151.78362 211.2469,152.09862 211.9469,152.41362 212.5069,153.11362 213.0844,153.79612 213.3644,154.82862 213.6619,155.86112 213.6619,157.36612 Z"
         id="path141" />
      <path
         d="M 215.1494,151.90612 H 218.3694 Q 220.2944,151.90612 221.1344,152.76362 221.9919,153.62112 221.9919,155.02112 221.9919,155.49362 221.8344,155.96612 221.6769,156.42112 221.3794,156.82362 221.0994,157.22612 220.6794,157.52362 220.2769,157.82112 219.7694,157.94362 L 222.2894,162.80862 H 220.9244 L 218.5094,157.99612 H 216.3919 V 162.80862 H 215.1494 Z M 216.3919,153.06112 V 156.91112 H 218.5094 Q 219.6819,156.91112 220.2069,156.40362 220.7319,155.87862 220.7319,155.02112 220.7319,154.60112 220.5919,154.25112 220.4519,153.90112 220.1894,153.63862 219.9444,153.37612 219.5244,153.21862 219.1044,153.06112 218.5094,153.06112 Z"
         id="path143" />
      <path
         d="M 230.5319,153.20112 229.7619,154.25112 Q 229.6744,154.21612 229.6569,154.11112 229.6569,153.98862 229.6219,153.93612 229.2894,153.44612 228.7119,153.14862 228.1519,152.85112 227.3119,152.85112 226.5069,152.85112 225.9644,153.32362 225.4394,153.79612 225.4394,154.44362 225.4394,154.82862 225.5619,155.10862 225.7019,155.38862 225.9644,155.65112 226.2444,155.91362 226.7694,156.19362 227.2944,156.45612 228.1344,156.78862 228.9394,157.12112 229.4644,157.45362 229.9894,157.76862 230.3044,158.13612 230.6194,158.50362 230.7419,158.92362 230.8819,159.32612 230.8819,159.83362 230.8819,160.39362 230.6719,160.97112 230.4619,161.53112 230.0069,161.98612 229.5694,162.42362 228.8869,162.70362 228.2044,162.98362 227.2419,162.98362 225.1244,162.98362 223.8294,161.58362 L 224.5469,160.32362 Q 224.6344,160.37612 224.6344,160.49862 224.6344,160.62112 224.6869,160.69112 225.0894,161.19862 225.7719,161.54862 226.4544,161.88112 227.4169,161.88112 227.9069,161.88112 228.3094,161.72362 228.7294,161.54862 229.0269,161.28612 229.3244,161.00612 229.4994,160.63862 229.6744,160.25362 229.6744,159.83362 229.6744,159.50112 229.5519,159.23862 229.4469,158.95862 229.1844,158.73112 228.9219,158.48612 228.4319,158.25862 227.9594,158.01362 227.1719,157.69862 226.3144,157.36612 225.7369,157.03362 225.1769,156.68362 224.8269,156.33362 224.4769,155.98362 224.3194,155.58112 224.1794,155.17862 224.1794,154.70612 224.1794,154.11112 224.4244,153.58612 224.6869,153.06112 225.1244,152.67612 225.5794,152.27362 226.1919,152.06362 226.8044,151.83612 227.5044,151.83612 228.3969,151.83612 229.1844,152.20362 229.9719,152.55362 230.5319,153.20112 Z"
         id="path145" />
      <path
         d="M 232.2119,151.88862 H 239.7719 V 152.99112 H 236.5519 V 162.80862 H 235.3094 V 152.99112 H 232.2119 Z"
         id="path147" />
      <path
         d="M 241.2944,151.90612 H 242.6769 Q 242.6944,151.90612 242.6944,151.94112 242.6944,152.01112 242.6069,152.15112 242.5369,152.27362 242.5019,152.46612 V 159.06362 Q 242.5019,159.97362 242.6769,160.48112 242.8519,160.97112 243.1669,161.30362 243.4819,161.61862 243.9019,161.77612 244.3394,161.93362 244.8294,161.96862 245.3194,161.93362 245.7394,161.79362 246.1769,161.65362 246.4919,161.32112 246.8244,160.97112 246.9994,160.46362 247.1919,159.95612 247.1919,159.01112 V 151.90612 H 248.3644 V 158.99362 Q 248.3644,160.06112 248.1194,160.79612 247.8919,161.53112 247.4019,162.02112 246.9119,162.51112 246.2644,162.75612 245.6169,163.00112 244.8119,163.00112 244.0244,163.00112 243.3769,162.75612 242.7294,162.51112 242.2569,162.03862 241.8019,161.56612 241.5394,160.88362 241.2944,160.20112 241.2944,159.04612 Z"
         id="path149" />
      <path
         d="M 249.6069,151.88862 H 250.8844 L 253.6844,160.27112 256.3269,151.90612 H 257.5344 L 253.8769,162.87862 H 253.3169 Z"
         id="path151" />
      <path
         d="M 258.2169,151.90612 H 259.3544 L 260.5269,159.27362 262.2769,152.71112 H 262.6619 L 264.4294,159.30862 265.4269,151.90612 H 266.4594 L 264.7269,162.87862 H 264.2544 L 262.3819,155.68612 260.4744,162.87862 H 259.9669 Z"
         id="path153" />
      <path
         d="M 273.3019,151.88862 H 274.5269 L 271.7619,157.22612 274.8594,162.80862 H 273.4769 L 271.0619,158.48612 268.7169,162.80862 H 267.3869 L 270.3619,157.24362 267.4394,151.88862 H 268.7519 L 271.0444,156.03612 Z"
         id="path155" />
      <path
         d="M 275.9094,151.90612 H 277.3094 L 279.9869,157.19112 282.4019,151.90612 H 283.6969 L 280.5994,158.50362 V 162.80862 H 279.2694 V 158.50362 Z"
         id="path157" />
      <path
         d="M 285.2544,151.90612 H 291.9919 V 152.76362 L 286.5844,161.72362 H 291.7294 Q 291.8519,161.72362 291.9919,161.67112 292.1494,161.61862 292.2719,161.61862 V 162.80862 H 285.0444 V 161.95112 L 290.5394,153.00862 H 285.2544 Z"
         id="path159" />
      <path
         d="M 69.864403,176.51112 Q 70.599403,176.51112 71.246903,176.80862 71.911903,177.08862 72.401903,177.63112 72.891903,178.17362 73.171903,178.96112 73.469403,179.73112 73.469403,180.69362 73.469403,181.67362 73.189403,182.44362 72.909403,183.21362 72.419403,183.77362 71.929403,184.31612 71.264403,184.61362 70.599403,184.89362 69.846903,184.89362 69.076903,184.89362 68.394403,184.57862 67.729403,184.26362 67.221903,183.72112 66.714403,183.16112 66.416903,182.39112 66.119403,181.62112 66.119403,180.72862 66.119403,179.83612 66.416903,179.04862 66.731903,178.26112 67.239403,177.71862 67.764403,177.15862 68.446903,176.84362 69.129403,176.51112 69.864403,176.51112 Z M 72.209403,180.72862 Q 72.209403,179.97612 71.999403,179.39862 71.806903,178.80362 71.474403,178.40112 71.141903,177.99862 70.704403,177.78862 70.284403,177.57862 69.811903,177.57862 69.339403,177.57862 68.901903,177.78862 68.481903,177.99862 68.149403,178.40112 67.834403,178.80362 67.641903,179.38112 67.449403,179.94112 67.449403,180.65862 67.449403,181.35862 67.641903,181.93612 67.834403,182.51362 68.149403,182.93362 68.481903,183.35362 68.919403,183.58112 69.356903,183.80862 69.846903,183.80862 70.336903,183.80862 70.756903,183.61612 71.194403,183.40612 71.509403,183.02112 71.841903,182.61862 72.016903,182.04112 72.209403,181.46362 72.209403,180.72862 Z"
         id="path161" />
      <path
         d="M 78.614403,184.85862 Q 77.721903,184.85862 76.986903,184.45612 76.269403,184.03612 75.744403,183.30112 75.236903,182.54862 74.956903,181.51612 74.676903,180.46612 74.676903,179.20612 74.676903,177.94612 74.956903,176.91362 75.254403,175.88112 75.779403,175.16362 76.304403,174.44612 77.039403,174.06112 77.774403,173.65862 78.649403,173.65862 79.419403,173.65862 80.084403,173.99112 80.749403,174.32362 81.291903,175.00612 81.851903,175.67112 82.131903,176.72112 82.411903,177.77112 82.411903,179.22362 82.411903,180.79862 82.079403,181.88362 81.746903,182.95112 81.204403,183.61612 80.661903,184.28112 79.979403,184.57862 79.314403,184.85862 78.614403,184.85862 Z M 76.794403,182.67112 Q 77.616903,183.65112 78.614403,183.65112 79.086903,183.65112 79.541903,183.45862 79.996903,183.24862 80.364403,182.74112 80.749403,182.23362 80.959403,181.37612 81.186903,180.51862 81.186903,179.18862 81.186903,177.89362 80.941903,177.07112 80.696903,176.23112 80.311903,175.74112 79.944403,175.25112 79.524403,175.04112 79.121903,174.81362 78.649403,174.81362 78.106903,174.79612 77.651903,175.00612 77.196903,175.21612 76.794403,175.68862 76.391903,176.16112 76.129403,176.98362 75.884403,177.80612 75.884403,179.10112 75.884403,180.30862 76.129403,181.23612 76.391903,182.16362 76.794403,182.67112 Z"
         id="path163" />
      <path
         d="M 89.674403,175.16362 Q 90.181903,175.84612 90.479403,176.94862 90.794403,178.05112 90.794403,179.41612 90.794403,180.79862 90.479403,181.83112 90.181903,182.84612 89.674403,183.52862 89.184403,184.21112 88.554403,184.54362 87.924403,184.87612 87.276903,184.87612 86.611903,184.87612 85.981903,184.47362 85.351903,184.07112 84.861903,183.35362 84.371903,182.61862 84.074403,181.60362 83.794403,180.57112 83.794403,179.32862 83.794403,178.08612 84.074403,177.05362 84.371903,176.02112 84.861903,175.28612 85.351903,174.53362 85.981903,174.13112 86.611903,173.71112 87.276903,173.71112 88.641903,173.71112 89.674403,175.16362 Z M 89.026903,176.19612 Q 88.676903,175.49612 88.221903,175.14612 87.766903,174.77862 87.294403,174.77862 86.856903,174.77862 86.419403,175.09362 85.999403,175.40862 85.666903,175.96862 85.334403,176.52862 85.124403,177.33362 84.931903,178.13862 84.931903,179.10112 84.931903,180.18612 85.176903,181.16612 Z M 89.429403,177.36862 85.579403,182.26862 Q 85.999403,183.05612 86.454403,183.40612 86.926903,183.75612 87.381903,183.75612 87.854403,183.75612 88.256903,183.47612 88.676903,183.17862 88.974403,182.63612 89.289403,182.09362 89.464403,181.32362 89.656903,180.53612 89.656903,179.55612 89.656903,178.94362 89.604403,178.40112 89.551903,177.85862 89.429403,177.36862 Z"
         id="path165" />
      <path
         d="M 99.019403,176.23112 Q 99.019403,177.01862 98.546903,177.73612 98.074403,178.43612 97.286903,178.85612 98.231903,179.29362 98.809403,180.11612 99.386903,180.92112 99.386903,181.86612 99.386903,182.49612 99.124403,183.05612 98.861903,183.59862 98.406903,184.00112 97.969403,184.40362 97.356903,184.63112 96.744403,184.85862 96.044403,184.85862 95.344403,184.85862 94.731903,184.63112 94.119403,184.40362 93.664403,184.01862 93.226903,183.61612 92.964403,183.09112 92.719403,182.54862 92.719403,181.93612 92.719403,180.99112 93.314403,180.16862 93.909403,179.34612 94.906903,178.89112 94.154403,178.50612 93.699403,177.82362 93.244403,177.12362 93.244403,176.33612 93.244403,175.77612 93.471903,175.28612 93.699403,174.79612 94.101903,174.42862 94.504403,174.06112 95.029403,173.85112 95.554403,173.64112 96.166903,173.64112 96.779403,173.64112 97.304403,173.85112 97.829403,174.04362 98.196903,174.41112 98.581903,174.76112 98.791903,175.23362 99.019403,175.70612 99.019403,176.23112 Z M 95.816903,179.38112 Q 95.029403,179.71362 94.504403,180.37862 93.979403,181.02612 93.979403,181.81362 93.979403,182.21612 94.136903,182.56612 94.311903,182.91612 94.591903,183.17862 94.889403,183.44112 95.256903,183.59862 95.641903,183.75612 96.079403,183.75612 96.516903,183.75612 96.884403,183.61612 97.269403,183.45862 97.549403,183.21362 97.829403,182.95112 97.986903,182.61862 98.144403,182.26862 98.144403,181.86612 98.144403,181.06112 97.514403,180.39612 96.884403,179.71362 95.816903,179.38112 Z M 94.714403,177.17612 Q 94.924403,177.52612 95.256903,177.78862 95.606903,178.03362 96.044403,178.26112 L 96.341903,178.41862 Q 96.989403,178.06862 97.409403,177.47362 97.829403,176.87862 97.829403,176.26612 97.829403,175.95112 97.689403,175.67112 97.566903,175.39112 97.321903,175.16362 97.094403,174.93612 96.779403,174.81362 96.464403,174.67362 96.096903,174.67362 95.729403,174.67362 95.414403,174.81362 95.116903,174.93612 94.889403,175.14612 94.661903,175.35612 94.539403,175.63612 94.416903,175.91612 94.416903,176.21362 94.416903,176.73862 94.714403,177.17612 Z"
         id="path167" />
      <path
         d="M 111.0244,176.68612 H 114.2269 V 183.66862 H 116.0994 V 184.68362 H 110.9194 V 183.66862 H 112.9669 V 177.70112 H 111.0244 Z M 112.9844,173.46612 Q 113.2469,173.20362 113.6144,173.20362 113.9819,173.20362 114.2444,173.48362 114.5244,173.74612 114.5244,174.11362 114.5244,174.48112 114.2444,174.74362 113.9819,175.00612 113.6144,175.00612 113.2469,175.00612 112.9844,174.74362 112.7219,174.48112 112.7219,174.11362 112.7219,173.72862 112.9844,173.46612 Z"
         id="path169" />
      <path
         d="M 119.4594,173.78112 H 124.8669 V 174.81362 H 122.7144 V 183.68612 H 124.9719 V 184.70112 H 119.3369 V 183.66862 H 121.4894 V 174.81362 H 119.4594 Z"
         id="path171" />
      <path
         d="M 128.1569,173.04612 H 131.6919 V 183.66862 H 134.0369 V 184.68362 H 128.0519 V 183.66862 H 130.4144 V 174.06112 H 128.1569 Z"
         id="path173" />
      <path
         d="M 136.5744,173.78112 H 138.0094 Q 138.0094,173.90362 137.9219,174.06112 137.8519,174.21862 137.8519,174.37612 V 183.61612 H 143.1019 V 184.68362 H 136.5744 Z"
         id="path175" />
      <path
         d="M 149.4019,173.76362 V 184.68362 H 148.1944 V 175.28612 L 145.9894,175.93362 145.7094,175.25112 148.5619,173.76362 Z"
         id="path177" />
      <path
         d="M 164.4519,184.40362 164.5219,182.65362 Q 164.5219,181.49862 164.1019,181.09612 163.6994,180.69362 162.9469,180.69362 H 162.5969 V 179.71362 H 162.9294 Q 163.7344,179.71362 164.1369,179.27612 164.5569,178.83862 164.5569,177.84112 L 164.5219,176.58112 Q 164.5219,173.53612 167.7069,173.53612 H 168.8094 V 174.53362 H 167.3744 Q 165.7469,174.53362 165.7469,176.38862 L 165.7819,177.61362 Q 165.7819,179.55612 164.2594,180.20362 165.7469,180.69362 165.7469,182.91612 L 165.6944,184.38612 Q 165.6944,185.57612 166.2019,186.03112 166.7269,186.48612 167.8994,186.48612 H 168.7919 V 187.46612 H 168.1619 Q 167.3219,187.46612 166.6394,187.39612 165.9744,187.34362 165.4319,186.94112 164.4519,186.17112 164.4519,184.40362 Z"
         id="path179" />
      <path
         d="M 176.3344,176.58112 176.2819,177.84112 Q 176.2819,178.83862 176.7019,179.27612 177.1219,179.71362 177.9094,179.71362 H 178.2594 V 180.69362 H 177.8919 Q 177.1394,180.69362 176.7369,181.09612 176.3344,181.49862 176.3344,182.65362 L 176.3869,184.40362 Q 176.3869,185.96112 175.6869,186.71362 174.9869,187.46612 173.4819,187.46612 H 172.0469 V 186.48612 H 173.0094 Q 173.3944,186.48612 173.6219,186.46862 173.8669,186.45112 174.0069,186.39862 174.1644,186.36362 174.2519,186.31112 174.3569,186.25862 174.4444,186.18862 175.1619,185.68112 175.1619,184.38612 L 175.1094,182.91612 Q 175.1094,180.71112 176.5794,180.20362 175.0569,179.55612 175.0569,177.61362 L 175.1094,176.38862 Q 175.1094,175.39112 174.6719,174.97112 174.2344,174.53362 173.3419,174.53362 H 172.0294 V 173.53612 H 172.5719 Q 173.1669,173.53612 173.8319,173.58862 174.4969,173.62362 175.0569,173.95612 175.6169,174.28862 175.9669,174.90112 176.3344,175.51362 176.3344,176.58112 Z"
         id="path181" />
      <path
         d="M 190.2119,172.95862 H 195.2169 V 174.00862 H 191.3319 V 185.24362 H 195.2344 V 186.24112 H 190.2119 Z"
         id="path183" />
      <path
         d="M 203.1269,172.95862 V 186.24112 H 198.1219 V 185.24362 H 202.0244 V 174.00862 H 198.1394 V 172.95862 Z"
         id="path185" />
      <path
         d="M 216.8819,177.94612 Q 216.6194,178.20862 216.4969,178.52362 216.3744,178.83862 216.3744,179.18862 216.3744,179.53862 216.5144,179.87112 216.6544,180.18612 216.8819,180.43112 217.1269,180.65862 217.4419,180.79862 217.7744,180.93862 218.1244,180.93862 218.4919,180.93862 218.8069,180.79862 219.1219,180.65862 219.3669,180.41362 219.6119,180.16862 219.7519,179.85362 219.8919,179.53862 219.8919,179.18862 219.8919,178.83862 219.7519,178.52362 219.6119,178.19112 219.3669,177.94612 219.1219,177.70112 218.7894,177.56112 218.4744,177.42112 218.1244,177.42112 217.4069,177.42112 216.8819,177.94612 Z M 220.1019,177.19362 Q 220.9419,176.47612 222.0969,176.47612 H 222.3244 L 222.4819,177.50862 Q 222.3594,177.49112 222.2369,177.49112 222.1319,177.47362 222.0094,177.47362 221.2394,177.47362 220.6269,177.85862 221.0294,178.47112 221.0294,179.20612 221.0294,179.76612 220.8019,180.27362 220.5744,180.76362 220.1719,181.14862 219.7869,181.51612 219.2619,181.74362 218.7369,181.95362 218.1419,181.95362 217.6519,181.95362 217.1269,181.76112 216.5669,182.30362 216.5669,182.67112 216.5669,182.96862 216.8994,183.14362 217.2494,183.30112 217.8444,183.30112 218.1769,183.30112 218.5094,183.28362 218.8594,183.24862 219.1569,183.24862 219.9444,183.24862 220.5044,183.40612 221.0819,183.54612 221.4319,183.82612 221.7819,184.08862 221.9569,184.45612 222.1319,184.82362 222.1319,185.24362 222.1319,185.71612 221.9044,186.15362 221.6769,186.60862 221.2219,186.94112 220.7669,187.29112 220.0669,187.48362 219.3844,187.69362 218.4569,187.69362 217.4944,187.69362 216.7944,187.53612 216.1119,187.39612 215.6919,187.13362 215.2719,186.87112 215.0444,186.52112 214.8344,186.18862 214.8344,185.80362 214.8344,184.85862 216.1469,184.03612 215.4994,183.70362 215.4994,182.93362 215.4994,182.18112 216.4094,181.42862 215.8494,181.06112 215.5344,180.48362 215.2194,179.90612 215.2194,179.25862 215.2194,178.66362 215.4644,178.15612 215.7094,177.63112 216.1119,177.24612 216.5319,176.86112 217.0569,176.65112 217.5994,176.42362 218.1594,176.42362 219.3319,176.42362 220.1019,177.19362 Z M 216.9869,184.26362 Q 215.9894,184.82362 215.9894,185.48862 215.9894,185.83862 216.1819,186.06612 216.3919,186.31112 216.7244,186.45112 217.0744,186.60862 217.5294,186.67862 218.0019,186.74862 218.5094,186.74862 219.5769,186.74862 220.2769,186.36362 220.9769,185.97862 220.9769,185.33112 220.9419,184.85862 220.5744,184.59612 220.2244,184.33362 219.4544,184.33362 219.3669,184.33362 219.2794,184.35112 219.1919,184.35112 219.1044,184.35112 218.4394,184.35112 217.9144,184.33362 217.3894,184.29862 216.9869,184.26362 Z"
         id="path187" />
      <path
         d="M 226.7169,184.85862 Q 225.3169,184.85862 224.3019,183.86112 L 225.1594,182.93362 Q 225.2469,182.98612 225.2994,183.14362 225.3694,183.30112 225.4394,183.35362 225.9469,183.75612 226.6819,183.75612 227.9944,183.75612 228.6419,182.77612 229.2894,181.77862 229.3594,179.55612 228.9744,180.09862 228.3794,180.41362 227.7844,180.72862 227.1019,180.72862 226.4894,180.72862 225.9469,180.48362 225.4044,180.22112 224.9844,179.76612 224.5819,179.31112 224.3369,178.68112 224.1094,178.03362 224.1094,177.26362 224.1094,176.49362 224.3544,175.84612 224.5994,175.18112 225.0194,174.70862 225.4569,174.21862 226.0169,173.95612 226.5944,173.67612 227.2419,173.67612 228.8344,173.67612 229.6919,175.05862 230.5669,176.42362 230.5669,179.45112 230.5669,180.83362 230.2519,181.84862 229.9544,182.86362 229.4294,183.52862 228.9044,184.17612 228.2044,184.50862 227.5044,184.84112 226.7169,184.85862 Z M 229.2894,178.33112 Q 229.3069,178.19112 229.3069,178.06862 229.3069,177.92862 229.3069,177.78862 229.3069,177.10612 229.1319,176.54612 228.9744,175.98612 228.6944,175.60112 228.4144,175.19862 228.0469,174.98862 227.6794,174.76112 227.2944,174.76112 226.4019,174.76112 225.8419,175.42612 225.2994,176.09112 225.2994,177.24612 225.2994,177.80612 225.4569,178.26112 225.6144,178.69862 225.8594,179.01362 226.1219,179.32862 226.4369,179.50362 226.7694,179.66112 227.1194,179.66112 227.8194,179.66112 228.3619,179.31112 228.9219,178.94362 229.2894,178.33112 Z"
         id="path189" />
      <path
         d="M 238.2144,177.85862 V 176.68612 H 239.4044 V 187.60612 H 238.1444 V 183.40612 Q 237.7769,184.07112 237.1119,184.47362 236.4469,184.85862 235.6944,184.85862 235.0119,184.85862 234.3994,184.56112 233.8044,184.24612 233.3494,183.68612 232.9119,183.12612 232.6494,182.33862 232.4044,181.55112 232.4044,180.58862 232.4044,179.62612 232.6844,178.87362 232.9644,178.10362 233.4369,177.57862 233.9269,177.03612 234.5569,176.75612 235.2044,176.47612 235.9219,176.47612 237.3919,176.47612 238.0919,177.64862 238.2144,177.82362 238.2144,177.85862 Z M 235.9219,177.50862 Q 235.4669,177.50862 235.0644,177.70112 234.6619,177.87612 234.3469,178.24362 234.0494,178.61112 233.8569,179.18862 233.6819,179.74862 233.6819,180.50112 233.6819,181.27112 233.8569,181.88362 234.0494,182.47862 234.3644,182.89862 234.6794,183.31862 235.0819,183.54612 235.5019,183.75612 235.9744,183.75612 236.9719,183.75612 237.5319,183.00362 238.1094,182.25112 238.1094,180.57112 238.1094,178.85612 237.5144,178.19112 236.9194,177.50862 235.9219,177.50862 Z"
         id="path191" />
      <path
         d="M 247.3844,176.24862 Q 247.3844,176.03862 247.3319,175.93362 246.9819,175.35612 246.4219,175.02362 245.8619,174.67362 245.2319,174.67362 244.6369,174.67362 244.1119,174.98862 243.5869,175.28612 243.1844,175.88112 242.7819,176.45862 242.5544,177.29862 242.3269,178.13862 242.3269,179.20612 242.3269,180.23862 242.5544,181.09612 242.7819,181.93612 243.1844,182.54862 243.6044,183.14362 244.1469,183.47612 244.7069,183.80862 245.3369,183.80862 245.9844,183.80862 246.5794,183.45862 247.1919,183.09112 247.5594,182.47862 L 248.4694,183.07362 Q 248.2069,183.51112 247.8394,183.84362 247.4719,184.17612 247.0519,184.40362 246.6494,184.63112 246.2294,184.73612 245.8269,184.85862 245.4069,184.85862 244.4619,184.85862 243.7269,184.54362 243.0094,184.21112 242.3969,183.52862 241.8019,182.84612 241.4694,181.79612 241.1369,180.74612 241.1369,179.29362 241.1369,177.68362 241.5219,176.61612 241.9069,175.53112 242.5369,174.88362 243.1669,174.23612 243.8669,173.97362 244.5844,173.69362 245.2494,173.69362 245.7919,173.69362 246.2994,173.85112 246.8244,174.00862 247.2619,174.28862 247.7169,174.56862 248.0669,174.97112 248.4169,175.35612 248.6269,175.84612 L 247.4544,176.42362 Q 247.3844,176.37112 247.3844,176.24862 Z"
         id="path193" />
      <path
         d="M 257.1844,175.49612 256.3269,176.37112 Q 256.2219,176.30112 256.0994,176.03862 255.8369,175.46112 255.2769,175.11112 254.7344,174.74362 253.9994,174.74362 253.4919,174.74362 252.9494,174.95362 252.4244,175.16362 251.9869,175.67112 251.5494,176.17862 251.2694,177.01862 251.0069,177.84112 251.0069,179.10112 251.0069,180.23862 251.2344,181.11362 251.4619,181.98862 251.8644,182.58362 252.2669,183.16112 252.8094,183.47612 253.3694,183.77362 254.0169,183.77362 255.1544,183.77362 256.0819,183.10862 V 180.51862 H 254.1044 V 179.45112 H 257.2194 V 183.72112 Q 255.6619,184.85862 254.0169,184.85862 253.0369,184.85862 252.2494,184.47362 251.4794,184.07112 250.9194,183.35362 250.3769,182.63612 250.0794,181.62112 249.7994,180.60612 249.7994,179.36362 249.7994,177.64862 250.2194,176.49362 250.6569,175.33862 251.3394,174.74362 252.0219,174.13112 252.7219,173.90362 253.4394,173.67612 254.0169,173.67612 255.0144,173.67612 255.8719,174.18362 256.7294,174.67362 257.1844,175.49612 Z"
         id="path195" />
      <path
         d="M 260.5269,175.68862 Q 259.6169,176.72112 259.6169,179.03112 259.6169,180.08112 259.7919,180.93862 259.9844,181.79612 260.3344,182.40862 260.7019,183.02112 261.2269,183.37112 261.7694,183.72112 262.3994,183.72112 262.8369,183.72112 263.2919,183.51112 263.7644,183.28362 264.1494,182.79362 264.5344,182.28612 264.7619,181.49862 264.9894,180.69362 264.9894,179.53862 264.9894,178.06862 264.7444,177.14112 264.4994,176.21362 264.0619,175.68862 263.6419,175.16362 263.1869,174.97112 262.7319,174.76112 262.3119,174.76112 261.7869,174.76112 261.3319,175.02362 260.8769,175.28612 260.5269,175.68862 Z M 266.1619,179.24112 Q 266.1619,181.65612 265.3394,183.05612 264.5344,184.45612 262.9419,184.80612 262.9769,185.38362 263.2394,185.75112 263.5019,186.11862 264.2369,186.11862 264.3244,186.11862 264.5169,186.10112 264.7094,186.08362 264.9369,186.06612 265.1644,186.06612 265.3569,186.04862 265.5669,186.03112 265.6544,186.03112 L 265.6194,187.22112 H 264.9369 Q 264.0794,187.22112 263.4844,187.13362 262.9069,187.04612 262.5394,186.73112 262.1894,186.41612 262.0319,185.94362 261.8744,185.48862 261.8744,184.80612 261.2094,184.71862 260.5969,184.35112 259.9844,183.96612 259.4944,183.28362 259.0044,182.60112 258.7069,181.62112 258.4269,180.62362 258.4269,179.29362 258.4269,177.64862 258.7944,176.56362 259.1794,175.47862 259.7569,174.84862 260.3344,174.21862 261.0169,173.93862 261.6994,173.65862 262.3119,173.65862 263.0644,173.65862 263.7469,173.97362 264.4469,174.28862 265.0069,174.98862 265.5844,175.67112 265.8644,176.70362 266.1619,177.73612 266.1619,179.24112 Z"
         id="path197" />
      <path
         d="M 277.0119,180.22112 276.1369,179.64362 Q 276.5569,178.96112 277.1869,178.52362 277.8344,178.08612 278.4294,178.08612 279.0419,178.08612 279.4619,178.29612 279.8994,178.48862 280.1619,178.73362 280.8794,179.39862 281.3519,179.39862 281.8419,179.39862 282.1744,179.11862 282.5069,178.83862 282.9444,178.26112 L 283.7494,178.92612 Q 283.5394,179.24112 283.2594,179.53862 282.9794,179.83612 282.6819,180.06362 282.3844,180.27362 282.0694,180.41362 281.7544,180.53612 281.4394,180.53612 280.8444,180.53612 280.4244,180.32612 280.0044,180.09862 279.7594,179.83612 279.1119,179.13612 278.4644,179.13612 277.6769,179.13612 277.0119,180.22112 Z"
         id="path199" />
      <path
         d="M 285.4119,178.59362 H 291.7119 V 179.76612 H 285.4119 Z"
         id="path201" />
      <path
         d="M 296.8044,175.53112 H 297.9069 V 178.52362 H 300.8994 V 179.59112 H 297.9069 V 182.86362 H 296.8044 V 179.59112 H 293.7069 V 178.52362 H 296.8044 Z"
         id="path203" />
      <path
         d="M 302.4569,177.01862 H 309.6494 V 178.08612 H 302.4569 Z M 302.4569,180.64112 H 309.6494 V 181.70862 H 302.4569 Z"
         id="path205" />
      <path
         d="M 311.1544,176.00362 V 174.76112 L 318.5744,178.66362 V 179.50362 L 311.1194,183.86112 V 182.53112 L 317.2269,179.10112 Z"
         id="path207" />
    </g>
  </g>
</svg>
