<?xml version="1.0" encoding="UTF-8" standalone="no"?>
<svg
   xmlns:dc="http://purl.org/dc/elements/1.1/"
   xmlns:cc="http://creativecommons.org/ns#"
   xmlns:rdf="http://www.w3.org/1999/02/22-rdf-syntax-ns#"
   xmlns:svg="http://www.w3.org/2000/svg"
   xmlns="http://www.w3.org/2000/svg"
   xmlns:sodipodi="http://sodipodi.sourceforge.net/DTD/sodipodi-0.dtd"
   xmlns:inkscape="http://www.inkscape.org/namespaces/inkscape"
   width="110.30786mm"
   height="30.607599mm"
   viewBox="0 0 390.85437 108.4521"
   id="svg2"
   version="1.1"
   inkscape:version="0.91 r13725"
   sodipodi:docname="InconsolataLGC Nerd Font.svg">
  <metadata
     id="metadata22">
    <rdf:RDF>
      <cc:Work
         rdf:about="">
        <dc:format>image/svg+xml</dc:format>
        <dc:type
           rdf:resource="http://purl.org/dc/dcmitype/StillImage" />
      </cc:Work>
    </rdf:RDF>
  </metadata>
  <defs
     id="defs20" />
  <sodipodi:namedview
     pagecolor="#ffffff"
     bordercolor="#666666"
     borderopacity="1"
     objecttolerance="10"
     gridtolerance="10"
     guidetolerance="10"
     inkscape:pageopacity="0"
     inkscape:pageshadow="2"
     inkscape:window-width="640"
     inkscape:window-height="480"
     id="namedview18"
     showgrid="false"
     inkscape:zoom="0.22425739"
     inkscape:cx="306.34338"
     inkscape:cy="-338.01079"
     inkscape:window-x="59"
     inkscape:window-y="24"
     inkscape:window-maximized="0"
     inkscape:current-layer="svg2" />
  <g
     font-weight="400"
     font-size="27.5"
     letter-spacing="0"
     word-spacing="0"
     id="g4"
     style="font-weight:400;font-size:27.5px;font-family:'InconsolataLGC Nerd Font';letter-spacing:0;word-spacing:0;fill:#ffffff"
     transform="translate(-65.703861,-79.718178)">
    <g
       style="line-height:125%;text-decoration: underline;text-decoration-line: underline"
       id="text6">
      <path
         d="m 65.945377,81.087807 9.829102,0 0,1.853027 -3.920899,0 0,16.166992 4.108887,0 0,1.853024 -10.258789,0 0,-1.879879 3.920899,0 0,-16.140137 -3.6792,0 0,-1.853027 z"
         id="path4151"
         inkscape:connector-curvature="0" />
      <path
         d="m 81.790104,100.934 0,-14.555666 2.336426,0 0,2.578125 q 0.859375,-1.289062 2.121582,-2.094727 1.289062,-0.832519 2.712402,-0.832519 1.262207,0 2.30957,0.698242 1.047364,0.671387 1.584473,1.879883 0.510254,1.181641 0.510254,3.491211 l 0,8.835451 -2.255859,0 0,-8.78174 q 0,-2.282715 -0.778809,-3.222656 -0.751953,-0.913086 -1.987305,-0.913086 -1.020508,0 -1.960449,0.644531 -0.939941,0.617676 -1.530762,1.369629 -0.725097,0.939941 -0.725097,2.524414 l 0,8.378908 -2.336426,0 z"
         id="path4153"
         inkscape:connector-curvature="0" />
      <path
         d="m 110.65973,88.768471 -1.61133,1.906738 q -0.13427,-0.107422 -0.16113,-0.375977 0,-0.268554 -0.0537,-0.349121 -0.0537,-0.08057 -0.18799,-0.241699 -0.13427,-0.187988 -0.45654,-0.483398 -0.32227,-0.322266 -0.7251,-0.563965 -0.40283,-0.241699 -1.04736,-0.429688 -0.64453,-0.187988 -1.34277,-0.187988 -2.06788,0 -3.4375,1.477051 -1.36963,1.450195 -1.36963,3.894043 0,2.551269 1.42334,4.189453 1.42334,1.638184 3.57177,1.638184 2.28272,0 3.86719,-1.799317 l 1.31592,1.530762 q -2.14844,2.309571 -5.37109,2.309571 -3.08838,0 -5.129399,-2.175294 -2.041016,-2.175293 -2.041016,-5.45166 0,-3.303223 2.041016,-5.424805 2.067869,-2.148437 5.263669,-2.148437 1.74561,0 3.16895,0.698242 1.42334,0.698242 2.28271,1.987305 z"
         id="path4155"
         inkscape:connector-curvature="0" />
      <path
         d="m 127.25641,93.709877 q 0,3.491211 -1.93359,5.559082 -1.90674,2.041011 -4.61914,2.041011 -2.81983,0 -4.83399,-2.148433 -1.9873,-2.148437 -1.9873,-5.397949 0,-3.303223 2.01416,-5.505371 2.04101,-2.202149 4.88769,-2.202149 2.6587,0 4.56543,2.041016 1.90674,2.041016 1.90674,5.612793 z m -6.6333,-5.693359 q -1.77246,0 -3.06152,1.503906 -1.26221,1.503906 -1.26221,4.055176 0,2.60498 1.28906,4.189453 1.31592,1.584472 3.14209,1.584472 1.71875,0 2.95411,-1.450195 1.2622,-1.477051 1.2622,-4.082031 0,-2.819824 -1.28906,-4.296875 -1.28906,-1.503906 -3.03467,-1.503906 z"
         id="path4157"
         inkscape:connector-curvature="0" />
      <path
         d="m 131.25788,100.934 0,-14.555666 2.33642,0 0,2.578125 q 0.85938,-1.289062 2.12159,-2.094727 1.28906,-0.832519 2.7124,-0.832519 1.2622,0 2.30957,0.698242 1.04736,0.671387 1.58447,1.879883 0.51025,1.181641 0.51025,3.491211 l 0,8.835451 -2.25585,0 0,-8.78174 q 0,-2.282715 -0.77881,-3.222656 -0.75196,-0.913086 -1.98731,-0.913086 -1.02051,0 -1.96045,0.644531 -0.93994,0.617676 -1.53076,1.369629 -0.7251,0.939941 -0.7251,2.524414 l 0,8.378908 -2.33642,0 z"
         id="path4159"
         inkscape:connector-curvature="0" />
      <path
         d="m 159.3487,88.311928 -1.34278,2.01416 q -0.16113,0 -0.16113,-0.29541 0,-0.161133 -0.0806,-0.268555 -1.61133,-1.987305 -4.02833,-1.987305 -1.2622,0 -2.17529,0.563965 -0.88623,0.53711 -0.88623,1.396485 0,1.047363 1.42334,1.772461 0.56397,0.268554 2.49756,0.832519 1.96045,0.563965 2.87353,1.074219 2.12159,1.208496 2.12159,3.303223 0,1.799316 -1.61133,3.168945 -1.61133,1.369625 -4.43115,1.369625 -3.6792,0 -6.14991,-2.309567 l 1.31592,-2.282714 q 0.13428,0.08057 0.13428,0.29541 0,0.214843 0.10742,0.349121 1.82617,2.041015 4.53858,2.041015 1.58447,0 2.65869,-0.644531 1.07422,-0.644531 1.07422,-1.665039 0,-1.154785 -1.4502,-1.853027 -0.61768,-0.29541 -2.06787,-0.751953 -1.4502,-0.456543 -1.82617,-0.590821 -0.61768,-0.241699 -0.93994,-0.375976 -0.29541,-0.161133 -1.07422,-0.617676 -0.75196,-0.483398 -1.15479,-1.181641 -0.37597,-0.698242 -0.37597,-1.584472 0,-1.691895 1.55761,-2.873535 1.55762,-1.181641 4.02832,-1.181641 3.35694,0 5.42481,2.282715 z"
         id="path4161"
         inkscape:connector-curvature="0" />
      <path
         d="m 176.72419,93.709877 q 0,3.491211 -1.9336,5.559082 -1.90674,2.041011 -4.61914,2.041011 -2.81982,0 -4.83398,-2.148433 -1.98731,-2.148437 -1.98731,-5.397949 0,-3.303223 2.01416,-5.505371 2.04102,-2.202149 4.8877,-2.202149 2.65869,0 4.56543,2.041016 1.90674,2.041016 1.90674,5.612793 z m -6.6333,-5.693359 q -1.77247,0 -3.06153,1.503906 -1.26221,1.503906 -1.26221,4.055176 0,2.60498 1.28907,4.189453 1.31592,1.584472 3.14209,1.584472 1.71875,0 2.9541,-1.450195 1.26221,-1.477051 1.26221,-4.082031 0,-2.819824 -1.28907,-4.296875 -1.28906,-1.503906 -3.03466,-1.503906 z"
         id="path4163"
         inkscape:connector-curvature="0" />
      <path
         d="m 181.26276,79.771889 6.41846,0 0,19.309082 4.29687,0 0,1.853029 -10.93017,0 0,-1.853029 4.32373,0 0,-17.48291 -4.10889,0 0,-1.826172 z"
         id="path4165"
         inkscape:connector-curvature="0" />
      <path
         d="m 197.94001,88.097084 q 1.96045,-2.041016 5.1831,-2.041016 3.59863,0 5.07569,2.416993 0.69824,1.18164 0.69824,3.4375 l 0,9.023439 -2.1753,0 0,-1.584475 q -2.39013,1.933595 -5.20996,1.933595 -2.20214,0 -3.54492,-1.2085 -1.34277,-1.208493 -1.34277,-2.900388 0,-1.289062 0.83252,-2.416992 0.85937,-1.127929 2.49756,-1.745605 1.69189,-0.644531 5.80078,-0.644531 l 0.4834,0 0.45654,0 0,-0.53711 q 0,-1.691894 -0.45654,-2.497558 -0.80567,-1.396485 -3.00782,-1.396485 -2.63183,0 -4.16259,1.611328 l -1.12793,-1.450195 z m 8.83545,6.015625 -0.51026,0 -1.71875,0 q -2.06787,0 -3.06152,0.214844 -1.28906,0.29541 -1.9336,1.074219 -0.61767,0.751953 -0.61767,1.638183 0,1.020508 0.80566,1.772461 0.83252,0.725098 2.22901,0.725098 2.20215,0 3.84033,-1.71875 0.45654,-0.483399 0.67139,-1.047364 0.24169,-0.563964 0.26855,-0.859375 0.0269,-0.29541 0.0269,-0.832519 l 0,-0.966797 z"
         id="path4167"
         inkscape:connector-curvature="0" />
      <path
         d="m 217.51764,82.484291 2.52442,-0.402832 q 0.0268,0.05371 0.0268,0.161133 0,0.134277 -0.10742,0.349121 -0.10742,0.214844 -0.13428,0.322266 l -0.34912,3.4375 4.75342,0 0,1.906738 -4.78027,0 q -0.26856,2.712402 -0.26856,5.693359 0,0.939942 0,1.611328 0.0269,0.644532 0.0537,0.913086 l 0.0269,0.268555 q 0.16113,1.208496 0.83252,1.772461 0.69824,0.563965 1.61133,0.563965 1.5039,0 3.27636,-1.315918 l 0.7251,1.826172 q -2.17529,1.611325 -4.646,1.611325 -2.229,0 -3.33007,-1.530759 -0.85938,-1.208496 -0.85938,-3.974609 0,-3.518067 0.29541,-7.438965 l -3.41064,0 0.0268,-1.879883 3.46436,0 0.26855,-3.894043 z"
         id="path4169"
         inkscape:connector-curvature="0" />
      <path
         d="m 230.91852,88.097084 q 1.96045,-2.041016 5.18311,-2.041016 3.59863,0 5.07568,2.416993 0.69824,1.18164 0.69824,3.4375 l 0,9.023439 -2.17529,0 0,-1.584475 q -2.39014,1.933595 -5.20996,1.933595 -2.20215,0 -3.54492,-1.2085 -1.34278,-1.208493 -1.34278,-2.900388 0,-1.289062 0.83252,-2.416992 0.85938,-1.127929 2.49756,-1.745605 1.6919,-0.644531 5.80078,-0.644531 l 0.4834,0 0.45654,0 0,-0.53711 q 0,-1.691894 -0.45654,-2.497558 -0.80566,-1.396485 -3.00781,-1.396485 -2.63184,0 -4.1626,1.611328 l -1.12793,-1.450195 z m 8.83545,6.015625 -0.51025,0 -1.71875,0 q -2.06787,0 -3.06153,0.214844 -1.28906,0.29541 -1.93359,1.074219 -0.61768,0.751953 -0.61768,1.638183 0,1.020508 0.80567,1.772461 0.83252,0.725098 2.229,0.725098 2.20215,0 3.84033,-1.71875 0.45655,-0.483399 0.67139,-1.047364 0.2417,-0.563964 0.26856,-0.859375 0.0268,-0.29541 0.0268,-0.832519 l 0,-0.966797 z"
         id="path4171"
         inkscape:connector-curvature="0" />
      <path
         d="m 246.62897,81.087807 2.57813,0 q 0.0268,0.268554 -0.10743,0.483398 -0.16113,0.375977 -0.16113,0.59082 l 0,16.865235 9.56055,0 0,1.93359 -11.87012,0 0,-19.873043 z"
         id="path4173"
         inkscape:connector-curvature="0" />
      <path
         d="m 269.8321,80.899818 q 1.85302,0 3.38379,0.886231 1.55761,0.859375 2.39013,2.416992 l -1.55762,1.611328 q -0.16113,-0.107422 -0.42968,-0.644531 -0.4834,-1.047363 -1.50391,-1.691895 -0.99365,-0.644531 -2.28271,-0.644531 -1.31592,0 -2.55127,0.725098 -1.2085,0.725097 -1.9336,2.121582 -0.99365,1.853027 -0.99365,5.102539 0,4.619141 1.90674,6.767578 1.53076,1.745606 3.75976,1.745606 1.9336,0 3.57178,-1.208497 l 0,-4.753418 -3.59863,0 0,-1.906738 5.6665,0 0,7.734375 q -2.84668,2.067873 -5.82763,2.067873 -1.39649,0 -2.68555,-0.51026 -1.28906,-0.53711 -2.44385,-1.638179 -1.15478,-1.101074 -1.85303,-3.115235 -0.69824,-2.041015 -0.69824,-4.726562 0,-2.470703 0.53711,-4.377442 0.56397,-1.933593 1.39649,-3.007812 0.83252,-1.101074 1.90673,-1.799316 1.10108,-0.698243 2.01416,-0.913086 0.91309,-0.2417 1.82618,-0.2417 z"
         id="path4175"
         inkscape:connector-curvature="0" />
      <path
         d="m 286.34821,80.926674 q 1.96045,0 3.59863,1.074219 1.66504,1.047363 2.47071,2.846679 l -2.12159,1.047364 q -0.13427,-0.107422 -0.13427,-0.322266 0,-0.05371 0,-0.134277 0.0268,-0.08057 0.0268,-0.107422 0,-0.05371 -0.13428,-0.322266 -0.61767,-1.047363 -1.63818,-1.665039 -0.99365,-0.644531 -2.14844,-0.644531 -2.229,0 -3.78662,2.229004 -1.53076,2.202148 -1.53076,5.988769 0,3.867188 1.58447,6.149903 1.61133,2.282714 3.9209,2.282714 1.18164,0 2.28272,-0.644531 1.10107,-0.671387 1.77246,-1.799316 l 1.63818,1.074219 q -0.91309,1.530761 -2.49756,2.416993 -1.55762,0.85937 -3.33008,0.85937 -1.31591,0 -2.57812,-0.51025 -1.26221,-0.53711 -2.41699,-1.638184 -1.15479,-1.127929 -1.85303,-3.168945 -0.69824,-2.067871 -0.69824,-4.807129 0,-2.282715 0.4834,-4.108887 0.51025,-1.826172 1.28906,-2.927246 0.77881,-1.127929 1.79931,-1.853027 1.04737,-0.751953 2.01416,-1.020508 0.99366,-0.29541 1.98731,-0.29541 z"
         id="path4177"
         inkscape:connector-curvature="0" />
      <path
         d="m 312.07575,100.934 0,-19.846193 2.17529,0 8.3252,14.716797 0,-14.743653 2.36328,0 q 0,0.05371 -0.10742,0.402832 -0.10743,0.187989 -0.10743,0.429688 l 0,19.067379 -1.77246,0 -8.72802,-15.656735 0,15.629885 -2.14844,0 z"
         id="path4179"
         inkscape:connector-curvature="0" />
      <path
         d="m 335.19831,86.029213 q 2.04101,0 3.65234,1.262207 1.63818,1.235352 2.09473,3.920898 0.16113,0.805664 0.16113,1.71875 0,0.698243 -0.0269,1.047364 l -10.33935,0 q 0.0537,1.557617 0.53711,2.685547 0.51025,1.127929 1.26221,1.691894 0.7788,0.563965 1.55761,0.83252 0.77881,0.241699 1.58448,0.241699 2.25585,0 3.75976,-1.665039 l 1.26221,1.235351 q -1.87988,2.255856 -5.20996,2.255856 -3.06153,0 -5.02198,-1.960445 -1.96044,-1.96045 -1.96044,-5.478516 0,-3.786621 1.93359,-5.773926 1.93359,-2.01416 4.75342,-2.01416 z m -4.37744,6.176758 8.00293,0 q 0.0268,-0.161133 0.0268,-0.483399 0,-1.638183 -1.10107,-2.766113 -1.07422,-1.154785 -2.71241,-1.154785 -1.42334,0 -2.68554,1.047363 -1.23535,1.020508 -1.53076,3.356934 z"
         id="path4181"
         inkscape:connector-curvature="0" />
      <path
         d="m 346.61188,86.378334 2.39014,0 -0.0806,2.819824 q 0.69824,-1.503906 2.12158,-2.336426 1.4502,-0.832519 3.11524,-0.832519 2.36328,0 3.89404,1.584473 l -1.07422,2.202148 q -0.13428,-0.134277 -0.32226,-0.402832 -0.16114,-0.268555 -0.21485,-0.322266 -0.85937,-1.074218 -2.41699,-1.074218 -2.55127,0 -4.08203,2.443847 -1.02051,1.611328 -1.02051,3.410645 l 0,7.08984 -2.30957,0 0,-14.582516 z"
         id="path4183"
         inkscape:connector-curvature="0" />
      <path
         d="m 371.77546,88.499916 0,-8.781738 2.44384,0 q 0,0.107422 -0.18799,0.483398 -0.13427,0.241699 -0.13427,0.429688 l 0.0268,18.959961 q 0,0.644535 0.16114,1.342775 l -2.28272,0 q -0.16113,-0.53711 -0.16113,-1.074221 l 0,-1.262207 q -0.69824,1.235352 -1.90674,1.960448 -1.18164,0.69824 -2.57813,0.69824 -2.33642,0 -4.08203,-1.987301 -1.71875,-1.987305 -1.71875,-5.74707 0,-1.987305 0.56397,-3.491211 0.56396,-1.530762 1.47705,-2.363281 0.93994,-0.859375 1.96045,-1.262207 1.04736,-0.402833 2.14844,-0.402833 1.47705,0 2.60498,0.671387 1.12793,0.671387 1.66504,1.826172 z m -4.1626,-0.617676 q -1.55762,0 -2.79297,1.235352 -1.23535,1.235351 -1.23535,4.02832 0,3.222656 1.2622,4.672852 1.28907,1.42334 2.84668,1.42334 1.18164,0 2.14844,-0.725098 0.99365,-0.751953 1.42334,-2.041016 0.32227,-0.966797 0.32227,-2.658691 0,-2.255859 -0.2417,-3.115234 -0.40283,-1.477051 -1.50391,-2.148438 -1.07422,-0.671387 -2.229,-0.671387 z"
         id="path4185"
         inkscape:connector-curvature="0" />
      <path
         d="m 395.38141,81.060951 11.44043,0 0,1.933594 -9.18457,0 0,6.257324 7.43897,0 0,1.906738 -7.43897,0 0,9.775393 -2.25586,0 0,-19.873049 z"
         id="path4187"
         inkscape:connector-curvature="0" />
      <path
         d="m 424.06305,93.709877 q 0,3.491211 -1.93359,5.559082 -1.90674,2.041011 -4.61914,2.041011 -2.81983,0 -4.83399,-2.148433 -1.9873,-2.148437 -1.9873,-5.397949 0,-3.303223 2.01416,-5.505371 2.04102,-2.202149 4.8877,-2.202149 2.65869,0 4.56542,2.041016 1.90674,2.041016 1.90674,5.612793 z m -6.6333,-5.693359 q -1.77246,0 -3.06152,1.503906 -1.26221,1.503906 -1.26221,4.055176 0,2.60498 1.28906,4.189453 1.31592,1.584472 3.14209,1.584472 1.71875,0 2.95411,-1.450195 1.2622,-1.477051 1.2622,-4.082031 0,-2.819824 -1.28906,-4.296875 -1.28906,-1.503906 -3.03467,-1.503906 z"
         id="path4189"
         inkscape:connector-curvature="0" />
      <path
         d="m 428.06452,100.934 0,-14.555666 2.33642,0 0,2.578125 q 0.85938,-1.289062 2.12159,-2.094727 1.28906,-0.832519 2.7124,-0.832519 1.26221,0 2.30957,0.698242 1.04736,0.671387 1.58447,1.879883 0.51026,1.181641 0.51026,3.491211 l 0,8.835451 -2.25586,0 0,-8.78174 q 0,-2.282715 -0.77881,-3.222656 -0.75196,-0.913086 -1.98731,-0.913086 -1.02051,0 -1.96045,0.644531 -0.93994,0.617676 -1.53076,1.369629 -0.7251,0.939941 -0.7251,2.524414 l 0,8.378908 -2.33642,0 z"
         id="path4191"
         inkscape:connector-curvature="0" />
      <path
         d="m 448.36725,82.484291 2.52442,-0.402832 q 0.0269,0.05371 0.0269,0.161133 0,0.134277 -0.10742,0.349121 -0.10742,0.214844 -0.13428,0.322266 l -0.34912,3.4375 4.75342,0 0,1.906738 -4.78027,0 q -0.26856,2.712402 -0.26856,5.693359 0,0.939942 0,1.611328 0.0269,0.644532 0.0537,0.913086 l 0.0269,0.268555 q 0.16113,1.208496 0.83252,1.772461 0.69824,0.563965 1.61133,0.563965 1.5039,0 3.27636,-1.315918 l 0.7251,1.826172 q -2.17529,1.611325 -4.646,1.611325 -2.229,0 -3.33007,-1.530759 -0.85938,-1.208496 -0.85938,-3.974609 0,-3.518067 0.29541,-7.438965 l -3.41064,0 0.0269,-1.879883 3.46436,0 0.26855,-3.894043 z"
         id="path4193"
         inkscape:connector-curvature="0" />
    </g>
    <g
       style="line-height:125%"
       id="text10">
      <path
         d="m 67.4356,132.76506 q 1.247559,-1.29883 3.29834,-1.29883 2.290039,0 3.229981,1.53809 0.444336,0.75195 0.444336,2.1875 l 0,5.74219 -1.384278,0 0,-1.00831 q -1.520996,1.23047 -3.31543,1.23047 -1.401367,0 -2.255859,-0.76904 -0.854492,-0.76904 -0.854492,-1.8457 0,-0.82031 0.529785,-1.53809 0.546875,-0.71777 1.589356,-1.11084 1.07666,-0.41015 3.691406,-0.41015 l 0.307617,0 0.290527,0 0,-0.3418 q 0,-1.07666 -0.290527,-1.58936 -0.512695,-0.88867 -1.914063,-0.88867 -1.674804,0 -2.648925,1.02539 L 67.4356,132.76506 Z m 5.622559,3.82813 -0.324707,0 -1.09375,0 q -1.315918,0 -1.948242,0.13671 -0.820313,0.18799 -1.230469,0.6836 -0.393067,0.47851 -0.393067,1.04248 0,0.64941 0.512696,1.12793 0.529785,0.46142 1.418457,0.46142 1.401367,0 2.443847,-1.09375 0.290528,-0.30761 0.427247,-0.6665 0.153808,-0.35889 0.170898,-0.54688 0.01709,-0.18798 0.01709,-0.52978 l 0,-0.61523 z"
         style="font-size:17.5px"
         id="path4196"
         inkscape:connector-curvature="0" />
      <path
         d="m 77.29644,127.43303 1.708984,0 q 0.03418,0.10254 -0.102539,0.23926 -0.119628,0.0854 -0.119628,0.22216 l 0,5.19532 q 0.444335,-0.75196 1.196289,-1.19629 0.769043,-0.44434 1.657714,-0.44434 1.503907,0 2.614747,1.23047 1.110839,1.23047 1.110839,3.50342 0,2.37549 -1.162109,3.67432 -1.14502,1.29882 -2.700195,1.29882 -1.760254,0 -2.751465,-1.45263 l -0.512695,1.23047 -0.939942,0 0,-13.50098 z m 3.828125,5.28076 q -0.683594,0 -1.264648,0.37598 -0.581055,0.35888 -0.837403,0.97412 -0.239257,0.59814 -0.239257,1.93115 0,1.3501 0.05127,1.8457 0.08545,0.61524 0.358887,1.05957 0.273437,0.42725 0.632324,0.61524 0.375977,0.18799 0.683594,0.27344 0.307617,0.0684 0.598144,0.0684 0.410157,0 0.820313,-0.13672 0.410156,-0.13672 0.871582,-0.46143 0.461426,-0.3418 0.751953,-1.05957 0.290527,-0.71777 0.290527,-1.70898 0,-0.92286 -0.205078,-1.64063 -0.205078,-0.71777 -0.495605,-1.11084 -0.290528,-0.39306 -0.683594,-0.63232 -0.393066,-0.23926 -0.717774,-0.30762 -0.307617,-0.0855 -0.615234,-0.0855 z"
         style="font-size:17.5px"
         id="path4198"
         inkscape:connector-curvature="0" />
      <path
         d="m 95.838921,133.19231 -1.025391,1.21338 q -0.08545,-0.0684 -0.102539,-0.23926 0,-0.1709 -0.03418,-0.22217 -0.03418,-0.0513 -0.119629,-0.15381 -0.08545,-0.11963 -0.290527,-0.30762 -0.205078,-0.20507 -0.461426,-0.35888 -0.256347,-0.15381 -0.666504,-0.27344 -0.410156,-0.11963 -0.854492,-0.11963 -1.315918,0 -2.1875,0.93994 -0.871582,0.92285 -0.871582,2.47803 0,1.62353 0.905762,2.66602 0.905761,1.04248 2.272949,1.04248 1.452637,0 2.460937,-1.14502 l 0.837403,0.97412 q -1.367188,1.46972 -3.417969,1.46972 -1.965332,0 -3.26416,-1.38427 -1.298828,-1.38428 -1.298828,-3.46924 0,-2.10205 1.298828,-3.45215 1.315918,-1.36719 3.349609,-1.36719 1.11084,0 2.016602,0.44434 0.905762,0.44433 1.452637,1.26465 z"
         style="font-size:17.5px"
         id="path4200"
         inkscape:connector-curvature="0" />
      <path
         d="m 104.60601,133.02141 0,-5.58838 1.55518,0 q 0,0.0684 -0.11963,0.30762 -0.0855,0.1538 -0.0855,0.27343 l 0.0171,12.06543 q 0,0.41016 0.10254,0.8545 l -1.45264,0 q -0.10254,-0.3418 -0.10254,-0.6836 l 0,-0.80322 q -0.44433,0.78613 -1.21338,1.24756 -0.75195,0.44433 -1.64062,0.44433 -1.48682,0 -2.597659,-1.26464 -1.09375,-1.26465 -1.09375,-3.65723 0,-1.26465 0.358887,-2.22168 0.358886,-0.97412 0.939941,-1.50391 0.598145,-0.54687 1.247561,-0.80322 0.6665,-0.25635 1.36719,-0.25635 0.93994,0 1.65771,0.42725 0.71777,0.42724 1.05957,1.16211 z m -2.64893,-0.39307 q -0.99121,0 -1.77734,0.78613 -0.786132,0.78614 -0.786132,2.56348 0,2.05078 0.803222,2.97363 0.82031,0.90577 1.81152,0.90577 0.75196,0 1.36719,-0.46143 0.63233,-0.47852 0.90576,-1.29883 0.20508,-0.61523 0.20508,-1.69189 0,-1.43555 -0.15381,-1.98242 -0.25634,-0.93995 -0.95703,-1.36719 -0.68359,-0.42725 -1.41846,-0.42725 z"
         style="font-size:17.5px"
         id="path4202"
         inkscape:connector-curvature="0" />
      <path
         d="m 112.80914,131.44914 q 1.29882,0 2.32421,0.80323 1.04248,0.78613 1.33301,2.49511 0.10254,0.5127 0.10254,1.09375 0,0.44434 -0.0171,0.66651 l -6.57959,0 q 0.0342,0.99121 0.3418,1.70898 0.32471,0.71777 0.80322,1.07666 0.49561,0.35889 0.99121,0.52979 0.49561,0.1538 1.0083,0.1538 1.43555,0 2.39258,-1.05957 l 0.80322,0.78614 q -1.19629,1.43554 -3.31543,1.43554 -1.94824,0 -3.1958,-1.24755 -1.24756,-1.24756 -1.24756,-3.48633 0,-2.40967 1.23047,-3.67432 1.23047,-1.28174 3.02491,-1.28174 z m -2.78565,3.93067 5.09277,0 q 0.0171,-0.10254 0.0171,-0.30762 0,-1.04248 -0.70068,-1.76025 -0.68359,-0.73487 -1.72607,-0.73487 -0.90577,0 -1.70899,0.66651 -0.78613,0.64941 -0.97412,2.13623 z"
         style="font-size:17.5px"
         id="path4204"
         inkscape:connector-curvature="0" />
      <path
         d="m 125.02837,127.33049 q 1.79444,0 2.83692,1.26465 l -0.66651,1.3501 q -0.1538,0 -0.1538,-0.1709 -0.0342,-0.1709 -0.0854,-0.23926 -0.70069,-1.05957 -1.99952,-1.05957 -1.29882,0 -1.87988,1.02539 -0.32471,0.56397 -0.32471,1.81152 l 0,0.18799 0,0.71778 3.02491,0 0,1.1621 -3.02491,0 0,7.55372 -1.40136,0 0,-7.55372 -2.0166,0 0,-1.1621 2.0166,0 0,-0.90577 q 0,-1.55517 0.4956,-2.35839 0.47852,-0.76905 1.33301,-1.19629 0.85449,-0.42725 1.8457,-0.42725 z"
         style="font-size:17.5px"
         id="path4206"
         inkscape:connector-curvature="0" />
      <path
         d="m 131.11236,134.55949 q 0,0.83741 0.59814,1.43555 0.59815,0.59815 1.43555,0.59815 0.85449,0 1.43555,-0.58106 0.59814,-0.59814 0.59814,-1.45264 0,-0.85449 -0.59814,-1.45263 -0.58106,-0.59815 -1.41846,-0.59815 -0.85449,0 -1.45264,0.59815 -0.59814,0.59814 -0.59814,1.45263 z m 2.13623,-3.1958 q 1.29883,0 2.1875,0.88868 1.02539,-0.83741 2.30713,-0.83741 0.0342,0 0.11963,0.0171 0.0854,0 0.13672,0 l 0.17089,1.19629 q -0.25634,-0.0513 -0.52978,-0.0513 -0.87158,0 -1.62354,0.44434 0.47852,0.71777 0.47852,1.57226 0,1.28174 -0.99121,2.23877 -0.97412,0.93994 -2.34131,0.93994 -0.54688,0 -1.1792,-0.22216 -0.6665,0.52978 -0.6665,1.04248 0,0.44433 0.56396,0.61523 0.47852,0.11963 1.33301,0.11963 0.20508,0 0.63232,-0.0171 0.44434,-0.0171 0.66651,-0.0171 1.14502,0 1.82861,0.29053 0.70068,0.29053 1.05957,0.8374 0.37598,0.54688 0.37598,1.1792 0,1.09375 -1.05957,1.94824 -1.04248,0.87158 -3.1958,0.87158 -2.22168,0 -3.21289,-0.64941 -0.99122,-0.64941 -0.99122,-1.53809 0,-1.07666 1.521,-2.05078 -0.75195,-0.39306 -0.75195,-1.24756 0,-0.88867 1.05957,-1.77734 -0.64942,-0.42725 -1.0083,-1.09375 -0.35889,-0.6665 -0.35889,-1.41846 0,-1.35009 1.02539,-2.30713 1.04248,-0.97412 2.44385,-0.97412 z m -1.41846,9.07471 q -1.16211,0.59814 -1.16211,1.43555 0,0.80322 0.90576,1.14502 0.75196,0.29052 1.91407,0.29052 1.38427,0 2.08496,-0.39306 0.87158,-0.46143 0.87158,-1.23047 0,-0.37598 -0.25635,-0.68359 -0.25635,-0.30762 -0.8374,-0.39307 -0.41016,-0.0513 -0.93994,-0.0513 l -0.3418,0 q -0.46142,0 -0.68359,-0.0171 -0.70069,-0.0171 -1.55518,-0.10254 z"
         style="font-size:17.5px"
         id="path4208"
         inkscape:connector-curvature="0" />
      <path
         d="m 140.4605,140.93401 0,-13.4668 1.67481,0 q 0,0 0.0171,0.0171 0.0171,0.0171 0.0171,0.0342 0,0.0855 -0.13672,0.22217 -0.0855,0.0854 -0.0855,0.18798 l 0,5.38331 q 0.54687,-0.82032 1.3501,-1.33301 0.82031,-0.52979 1.72607,-0.52979 0.80322,0 1.46973,0.44434 0.6665,0.42724 1.0083,1.19629 0.32471,0.75195 0.32471,2.22168 l 0,5.62256 -1.43555,0 0,-5.58838 q 0,-1.45264 -0.49561,-2.05078 -0.47851,-0.58106 -1.26465,-0.58106 -0.64941,0 -1.24755,0.41016 -0.59815,0.39306 -0.97413,0.87158 -0.46142,0.59814 -0.46142,1.60644 l 0,5.33204 -1.48682,0 z"
         style="font-size:17.5px"
         id="path4210"
         inkscape:connector-curvature="0" />
      <path
         d="m 151.68853,131.65422 3.7085,0 0,8.10059 2.17041,0 0,1.1792 -5.99854,0 0,-1.1792 2.3584,0 0,-6.9043 -2.23877,0 0,-1.19629 z m 2.25586,-3.7085 q 0.30762,-0.30761 0.75195,-0.30761 0.44434,0 0.75196,0.30761 0.30761,0.30762 0.30761,0.73487 0,0.42724 -0.30761,0.73486 -0.30762,0.30762 -0.75196,0.30762 -0.44433,0 -0.75195,-0.30762 -0.29053,-0.30762 -0.29053,-0.73486 0,-0.42725 0.29053,-0.73487 z"
         style="font-size:17.5px"
         id="path4212"
         inkscape:connector-curvature="0" />
      <path
         d="m 162.59185,131.65422 4.90479,0 0,8.63037 q 0,1.53809 -0.41016,2.34131 -0.46143,0.88867 -1.3501,1.36719 -0.87158,0.47851 -1.89697,0.47851 -1.76026,0 -2.81983,-1.29882 l 0.93995,-1.26465 q 0.0684,0.0513 0.10254,0.18799 0.0342,0.13671 0.0683,0.18798 0.0684,0.11963 0.23926,0.29053 0.1709,0.18799 0.61524,0.41016 0.44433,0.22216 0.95703,0.22216 0.59814,0 1.09375,-0.30761 0.51269,-0.30762 0.76904,-0.85449 0.22217,-0.49561 0.22217,-1.48682 l 0,-7.69043 -3.43506,0 0,-1.21338 z m 3.45215,-3.7085 q 0.30762,-0.30761 0.75195,-0.30761 0.44434,0 0.73487,0.30761 0.30761,0.30762 0.30761,0.73487 0,0.42724 -0.30761,0.73486 -0.29053,0.30762 -0.73487,0.30762 -0.44433,0 -0.75195,-0.30762 -0.30762,-0.30762 -0.30762,-0.73486 0,-0.42725 0.30762,-0.73487 z"
         style="font-size:17.5px"
         id="path4214"
         inkscape:connector-curvature="0" />
      <path
         d="m 171.87164,127.46721 1.65771,0 q 0.0171,0.13672 -0.10254,0.29053 -0.0854,0.10254 -0.0854,0.22216 l 0,7.94678 4.63135,-4.30664 q 0.44434,0.10254 1.09375,0.10254 l 0.52978,0 -3.91357,3.67432 4.56299,5.5542 q 0,0 -0.15381,0 0,0 -1.74316,0.0684 l -3.77686,-4.71679 -1.23047,1.12793 0,3.52051 -1.46972,0 0,-13.48389 z"
         style="font-size:17.5px"
         id="path4216"
         inkscape:connector-curvature="0" />
      <path
         d="m 182.74078,127.46721 4.08447,0 0,12.2876 2.73437,0 0,1.1792 -6.95556,0 0,-1.1792 2.75146,0 0,-11.12549 -2.61474,0 0,-1.16211 z"
         style="font-size:17.5px"
         id="path4218"
         inkscape:connector-curvature="0" />
      <path
         d="m 192.27691,140.93401 0,-9.2627 1.3501,0 -0.0171,0.92285 q 0.3247,-0.51269 0.8374,-0.82031 0.51269,-0.32471 1.05957,-0.32471 0.61523,0 1.07666,0.39307 0.46143,0.37598 0.56396,0.95703 0.27344,-0.61523 0.83741,-0.97412 0.58105,-0.37598 1.24756,-0.37598 0.97412,0 1.43554,0.73487 0.37598,0.52978 0.37598,1.8457 l 0,0.32471 0,6.59668 -1.38428,0 0,-6.57959 q 0,-0.0684 0,-0.23926 0.0171,-0.18799 0.0171,-0.27344 0,-0.49561 -0.13672,-0.8374 -0.23926,-0.5127 -0.73486,-0.5127 -0.56397,0 -1.07666,0.85449 -0.39307,0.6836 -0.39307,1.45264 l 0,6.11817 -1.36718,0 0,-6.44288 q 0,-0.0684 0,-0.20507 0.0171,-0.13672 0.0171,-0.22217 0,-0.49561 -0.10253,-0.80322 -0.20508,-0.6836 -0.8545,-0.6836 -0.6665,0 -1.11084,0.85449 -0.30761,0.59815 -0.30761,1.33301 l 0,6.16944 -1.33301,0 z"
         style="font-size:17.5px"
         id="path4220"
         inkscape:connector-curvature="0" />
      <path
         d="m 203.38531,140.93401 0,-9.2627 1.48681,0 0,1.64063 q 0.54688,-0.82032 1.3501,-1.33301 0.82031,-0.52979 1.72608,-0.52979 0.80322,0 1.46972,0.44434 0.66651,0.42724 1.0083,1.19629 0.32471,0.75195 0.32471,2.22168 l 0,5.62256 -1.43555,0 0,-5.58838 q 0,-1.45264 -0.4956,-2.05078 -0.47852,-0.58106 -1.26465,-0.58106 -0.64941,0 -1.24756,0.41016 -0.59814,0.39306 -0.97412,0.87158 -0.46143,0.59814 -0.46143,1.60644 l 0,5.33204 -1.48681,0 z"
         style="font-size:17.5px"
         id="path4222"
         inkscape:connector-curvature="0" />
      <path
         d="m 221.82525,136.33684 q 0,2.22168 -1.23047,3.5376 -1.21338,1.29882 -2.93945,1.29882 -1.79444,0 -3.07618,-1.36718 -1.26464,-1.36719 -1.26464,-3.43506 0,-2.10205 1.28173,-3.50342 1.29883,-1.40137 3.11036,-1.40137 1.69189,0 2.90527,1.29883 1.21338,1.29883 1.21338,3.57178 z m -4.22119,-3.62305 q -1.12793,0 -1.94824,0.95703 -0.80323,0.95703 -0.80323,2.58057 0,1.65771 0.82031,2.66601 0.83741,1.0083 1.99952,1.0083 1.09375,0 1.87988,-0.92285 0.80322,-0.93994 0.80322,-2.59765 0,-1.79444 -0.82031,-2.73438 -0.82031,-0.95703 -1.93115,-0.95703 z"
         style="font-size:17.5px"
         id="path4224"
         inkscape:connector-curvature="0" />
      <path
         d="m 224.20074,131.67131 1.48681,0 0,1.41846 q 0.47852,-0.75196 1.24756,-1.1792 0.78613,-0.44434 1.67481,-0.44434 1.5039,0 2.63183,1.21338 1.12793,1.21338 1.12793,3.50342 0,2.39258 -1.16211,3.69141 -1.14502,1.29882 -2.71728,1.29882 -0.8374,0 -1.58936,-0.39306 -0.73486,-0.39307 -1.19629,-1.07666 l 0,4.61425 -1.48681,0 -0.0171,-12.64648 z m 3.87939,1.04248 q -0.71777,0 -1.31592,0.37598 -0.58105,0.35888 -0.8374,0.97412 -0.23926,0.56396 -0.23926,1.81152 0,2.10205 0.25635,2.73438 0.27344,0.61523 0.85449,0.95703 0.58106,0.32471 1.26465,0.32471 0.39307,0 0.80322,-0.11963 0.42725,-0.13672 0.90577,-0.46143 0.47851,-0.3418 0.76904,-1.05957 0.30762,-0.71777 0.30762,-1.74316 0,-1.1792 -0.30762,-1.99952 -0.30762,-0.82031 -0.80322,-1.17919 -0.47852,-0.35889 -0.87159,-0.47852 -0.39306,-0.13672 -0.78613,-0.13672 z"
         style="font-size:17.5px"
         id="path4226"
         inkscape:connector-curvature="0" />
      <path
         d="m 241.06841,133.02141 0,-1.3501 1.38428,0 0,12.64648 -1.45264,0 0,-4.8706 q -0.44433,0.76904 -1.21338,1.23047 -0.75195,0.46142 -1.62353,0.46142 -1.58936,0 -2.71729,-1.36718 -1.11084,-1.36719 -1.11084,-3.55469 0,-2.23877 1.19629,-3.50342 1.19629,-1.28174 2.83692,-1.28174 0.58105,0 1.05957,0.1709 0.4956,0.15381 0.78613,0.39307 0.29053,0.23926 0.49561,0.47851 0.20507,0.22217 0.29052,0.39307 l 0.0684,0.15381 z m -2.64892,-0.39307 q -1.05957,0 -1.84571,0.85449 -0.76904,0.83741 -0.76904,2.51221 0,1.8457 0.78613,2.854 0.80323,1.00831 1.87989,1.00831 0.73486,0 1.36718,-0.47852 0.64942,-0.47852 0.90577,-1.28174 0.18798,-0.58105 0.18798,-1.6748 0,-1.62354 -0.22216,-2.22168 -0.29053,-0.78614 -0.93995,-1.1792 -0.64941,-0.39307 -1.35009,-0.39307 z"
         style="font-size:17.5px"
         id="path4228"
         inkscape:connector-curvature="0" />
      <path
         d="m 245.99029,131.67131 1.52099,0 -0.0513,1.79443 q 0.44434,-0.95703 1.3501,-1.48681 0.92285,-0.52979 1.98242,-0.52979 1.50391,0 2.47803,1.0083 l -0.68359,1.40137 q -0.0855,-0.0855 -0.20508,-0.25635 -0.10254,-0.1709 -0.13672,-0.20508 -0.54687,-0.68359 -1.53809,-0.68359 -1.62353,0 -2.59765,1.55518 -0.64942,1.02539 -0.64942,2.17041 l 0,4.51172 -1.46972,0 0,-9.27979 z"
         style="font-size:17.5px"
         id="path4230"
         inkscape:connector-curvature="0" />
      <path
         d="m 263.23394,132.90178 -0.85449,1.28174 q -0.10254,0 -0.10254,-0.18799 0,-0.10254 -0.0513,-0.1709 -1.02539,-1.26465 -2.56348,-1.26465 -0.80322,0 -1.38427,0.35889 -0.56397,0.3418 -0.56397,0.88867 0,0.6665 0.90576,1.12793 0.35889,0.1709 1.58936,0.52979 1.24756,0.35888 1.82861,0.68359 1.3501,0.76904 1.3501,2.10205 0,1.14502 -1.02539,2.0166 -1.02539,0.87158 -2.81983,0.87158 -2.3413,0 -3.91357,-1.46972 l 0.8374,-1.45264 q 0.0854,0.0513 0.0854,0.18799 0,0.13672 0.0684,0.22217 1.16211,1.29882 2.88818,1.29882 1.0083,0 1.6919,-0.41015 0.68359,-0.41016 0.68359,-1.05957 0,-0.73486 -0.92285,-1.1792 -0.39307,-0.18799 -1.31592,-0.47852 -0.92285,-0.29052 -1.16211,-0.37597 -0.39306,-0.15381 -0.59814,-0.23926 -0.18799,-0.10254 -0.68359,-0.39307 -0.47852,-0.30761 -0.73487,-0.75195 -0.23926,-0.44434 -0.23926,-1.0083 0,-1.07666 0.99122,-1.82861 0.99121,-0.75196 2.56347,-0.75196 2.13623,0 3.45215,1.45264 z"
         style="font-size:17.5px"
         id="path4232"
         inkscape:connector-curvature="0" />
      <path
         d="m 268.77105,129.19328 1.60644,-0.25634 q 0.0171,0.0342 0.0171,0.10253 0,0.0855 -0.0684,0.22217 -0.0684,0.13672 -0.0855,0.20508 l -0.22217,2.1875 3.0249,0 0,1.21338 -3.04199,0 q -0.1709,1.72607 -0.1709,3.62305 0,0.59814 0,1.02539 0.0171,0.41015 0.0342,0.58105 l 0.0171,0.1709 q 0.10254,0.76904 0.52978,1.12793 0.44434,0.35889 1.0254,0.35889 0.95703,0 2.08496,-0.83741 l 0.46142,1.16211 q -1.38428,1.02539 -2.95654,1.02539 -1.41846,0 -2.11914,-0.97412 -0.54688,-0.76904 -0.54688,-2.52929 0,-2.23877 0.18799,-4.73389 l -2.17041,0 0.0171,-1.19629 2.20459,0 0.1709,-2.47803 z"
         style="font-size:17.5px"
         id="path4234"
         inkscape:connector-curvature="0" />
      <path
         d="m 276.73492,131.67131 1.46972,0 0,5.16113 q 0,1.3501 0.32471,1.99951 0.58105,1.14502 1.77734,1.14502 0.64942,0 1.23047,-0.37597 0.58106,-0.39307 0.90576,-0.99121 0.35889,-0.6836 0.35889,-1.84571 l 0,-5.09277 1.46973,0 0,8.42529 q 0,0.5127 0.10254,0.83741 l -1.53809,0 q -0.0342,-0.23926 -0.0342,-0.71778 l 0.0171,-0.70068 q -0.44433,0.75195 -1.21338,1.19629 -0.76904,0.44433 -1.64062,0.44433 -0.93994,0 -1.72608,-0.47851 -0.76904,-0.49561 -1.16211,-1.40137 -0.35888,-0.76904 -0.35888,-2.44385 l 0.0171,-5.16113 z"
         style="font-size:17.5px"
         id="path4236"
         inkscape:connector-curvature="0" />
      <path
         d="m 286.74957,131.65422 1.76025,0 q 0.0171,0.10254 -0.0342,0.23926 -0.0342,0.13672 -0.0342,0.1709 0,0.0171 0.0342,0.11963 l 2.66601,6.76757 1.48682,-3.43505 q 0.97412,-2.23877 1.26465,-3.86231 l 1.31592,0 q -0.3418,1.60645 -1.38428,4.06738 l -2.25586,5.28077 -1.14502,0 -3.67431,-9.34815 z"
         style="font-size:17.5px"
         id="path4238"
         inkscape:connector-curvature="0" />
      <path
         d="m 296.76421,131.65422 1.48682,0 q 0.0513,0.15381 -0.0342,0.41016 -0.0684,0.18799 -0.0171,0.35888 l 1.33301,6.69922 1.60644,-6.59668 0.88868,0 1.96533,6.5625 q 0.85449,-5.57129 0.85449,-7.02392 0,0 0,-0.39307 l 1.3501,0 q -0.63233,4.78516 -1.55518,9.27979 l -1.3501,0 -1.72607,-5.99854 -1.62354,5.99854 -1.31591,0 -1.8628,-9.29688 z"
         style="font-size:17.5px"
         id="path4240"
         inkscape:connector-curvature="0" />
      <path
         d="m 314.2813,131.65422 1.48682,0 -2.99072,4.51172 3.40088,4.76807 -1.65772,0 -2.56348,-3.60596 -2.40966,3.60596 -1.64063,0 3.24707,-4.7168 -3.1958,-4.56299 1.58936,0 2.42675,3.43506 2.30713,-3.43506 z"
         style="font-size:17.5px"
         id="path4242"
         inkscape:connector-curvature="0" />
      <path
         d="m 318.36578,131.67131 1.81152,0 q 0.0171,0.10254 -0.0342,0.23926 -0.0513,0.13672 -0.0513,0.20508 0,0.0513 0.0342,0.1538 l 2.71729,6.81885 1.76025,-4.95605 q 0.51269,-1.40137 0.70068,-2.47803 l 1.521,0 q -0.27344,0.90576 -0.92285,2.68311 l -2.88819,7.63916 q -0.39306,1.0083 -0.80322,1.46972 -0.88867,1.0083 -2.32422,1.0083 -1.19629,0 -1.99951,-0.76904 l 0.75195,-1.31592 q 0.0513,0.0342 0.0684,0.0855 0.0342,0.0684 0.0513,0.13672 0.0171,0.0684 0.0342,0.10254 0.0342,0.0854 0.13672,0.18799 0.11963,0.11963 0.37598,0.23926 0.27343,0.13671 0.58105,0.13671 0.71778,0 1.29883,-0.59814 0.3418,-0.35889 0.63232,-1.07666 l 0.30762,-0.68359 -3.75976,-9.22852 z"
         style="font-size:17.5px"
         id="path4244"
         inkscape:connector-curvature="0" />
      <path
         d="m 329.35455,131.65422 7.21191,0 0,1.0083 -5.65674,7.02393 5.52002,0 q 0.13672,0 0.29053,-0.0513 0.1709,-0.0684 0.25635,-0.0684 l 0.0684,0 0,1.38428 -8.10059,0 0,-0.99122 5.74219,-7.02392 -5.33203,0 0,-1.28174 z"
         style="font-size:17.5px"
         id="path4246"
         inkscape:connector-curvature="0" />
      <path
         d="m 65.897514,162.8261 4.46045,-12.88575 0.153808,0 4.887695,12.86866 -1.469726,0 -1.401367,-3.69141 -4.016114,0 -1.213378,3.7085 -1.401368,0 z m 6.306153,-4.81934 -1.777344,-4.80225 -1.623535,4.80225 3.400879,0 z"
         style="font-size:17.5px"
         id="path4248"
         inkscape:connector-curvature="0" />
      <path
         d="m 77.074272,150.17961 3.588867,0 q 1.572266,0 2.358399,0.3418 0.871582,0.37597 1.350097,1.12793 0.478516,0.73486 0.478516,1.60644 0,0.90576 -0.512695,1.67481 -0.512696,0.76904 -1.350098,1.11084 1.05957,0.35888 1.708984,1.26465 0.649415,0.88867 0.649415,1.99951 0,1.0083 -0.546875,1.86279 -0.546875,0.8374 -1.555176,1.26465 -0.871582,0.37598 -2.614746,0.37598 l -3.554688,0 0,-12.6294 z m 1.401367,1.19629 0,4.0332 1.965332,0 q 1.14502,0 1.760254,-0.27343 0.581055,-0.25635 0.888672,-0.71778 0.324707,-0.46142 0.324707,-1.02539 0,-0.56396 -0.341797,-1.04248 -0.324707,-0.47851 -0.939941,-0.73486 -0.615234,-0.23926 -1.674805,-0.23926 l -1.982422,0 z m 0,5.2124 0,4.97315 2.409668,0 q 1.042481,0 1.623535,-0.25635 0.649415,-0.29053 0.991211,-0.85449 0.358887,-0.58106 0.358887,-1.28174 0,-0.70068 -0.375976,-1.31592 -0.375977,-0.61523 -1.059571,-0.93994 -0.666504,-0.32471 -1.896972,-0.32471 l -2.050782,0 z"
         style="font-size:17.5px"
         id="path4250"
         inkscape:connector-curvature="0" />
      <path
         d="m 92.215874,150.07707 q 1.247558,0 2.290039,0.6836 1.05957,0.6665 1.572265,1.81152 l -1.350097,0.6665 q -0.08545,-0.0684 -0.08545,-0.20507 0,-0.0342 0,-0.0855 0.01709,-0.0513 0.01709,-0.0684 0,-0.0342 -0.08545,-0.20508 -0.393066,-0.66651 -1.04248,-1.05957 -0.632325,-0.41016 -1.367188,-0.41016 -1.418457,0 -2.409668,1.41846 -0.974121,1.40137 -0.974121,3.81103 0,2.46094 1.008301,3.91358 1.025391,1.45263 2.495117,1.45263 0.751953,0 1.452637,-0.41015 0.700683,-0.42725 1.127929,-1.14502 l 1.042481,0.68359 q -0.581055,0.97412 -1.589356,1.53809 -0.99121,0.54687 -2.11914,0.54687 -0.837402,0 -1.640625,-0.3247 -0.803223,-0.3418 -1.538086,-1.04248 -0.734863,-0.71778 -1.179199,-2.01661 -0.444336,-1.31591 -0.444336,-3.05908 0,-1.45263 0.307617,-2.61474 0.324707,-1.16211 0.820312,-1.8628 0.495606,-0.71777 1.14502,-1.1792 0.666504,-0.47851 1.281738,-0.64941 0.632324,-0.18799 1.264649,-0.18799 z"
         style="font-size:17.5px"
         id="path4252"
         inkscape:connector-curvature="0" />
      <path
         d="m 98.163139,150.17961 2.956541,0 q 0.97412,0 1.64063,0.13672 0.6665,0.11963 1.29883,0.52979 1.17919,0.76904 1.76025,2.25585 0.58105,1.46973 0.58105,3.3667 0,2.08496 -0.73486,3.62305 -0.71777,1.53809 -2.06787,2.22168 -0.99121,0.5127 -2.73438,0.5127 l -2.700191,0 0,-12.64649 z m 1.350098,1.19629 0,10.32227 1.281743,0 q 1.53808,0 2.37548,-0.56397 1.79444,-1.21338 1.79444,-4.47754 0,-3.29834 -1.55518,-4.58008 -0.85449,-0.70068 -2.37549,-0.70068 l -1.520993,0 z"
         style="font-size:17.5px"
         id="path4254"
         inkscape:connector-curvature="0" />
      <path
         d="m 108.75884,150.16252 7.75879,0 0,1.24756 -6.40869,0 0,4.15283 5.28076,0 0,1.29883 -5.28076,0 0,4.68262 6.34033,0 0,1.26465 -7.69043,0 0,-12.64649 z"
         style="font-size:17.5px"
         id="path4256"
         inkscape:connector-curvature="0" />
      <path
         d="m 119.62798,150.16252 7.28028,0 0,1.23047 -5.84473,0 0,3.98193 4.73389,0 0,1.21338 -4.73389,0 0,6.22071 -1.43555,0 0,-12.64649 z"
         style="font-size:17.5px"
         id="path4258"
         inkscape:connector-curvature="0" />
      <path
         d="m 134.17144,150.05998 q 1.1792,0 2.15332,0.56397 0.99121,0.54687 1.521,1.53808 l -0.99121,1.02539 q -0.10254,-0.0684 -0.27344,-0.41015 -0.30762,-0.66651 -0.95703,-1.07666 -0.63233,-0.41016 -1.45264,-0.41016 -0.8374,0 -1.62354,0.46143 -0.76904,0.46142 -1.23046,1.35009 -0.63233,1.1792 -0.63233,3.24707 0,2.93946 1.21338,4.30665 0.97412,1.11084 2.39258,1.11084 1.23047,0 2.27295,-0.76905 l 0,-3.0249 -2.29004,0 0,-1.21338 3.60596,0 0,4.92188 q -1.81153,1.31591 -3.7085,1.31591 -0.88867,0 -1.70898,-0.3247 -0.82032,-0.3418 -1.55518,-1.04248 -0.73486,-0.70069 -1.1792,-1.98243 -0.44434,-1.29882 -0.44434,-3.00781 0,-1.57226 0.3418,-2.78564 0.35889,-1.23047 0.88867,-1.91406 0.52979,-0.70069 1.21338,-1.14502 0.70069,-0.44434 1.28174,-0.58106 0.58106,-0.15381 1.16211,-0.15381 z"
         style="font-size:17.5px"
         id="path4260"
         inkscape:connector-curvature="0" />
      <path
         d="m 140.15289,150.17961 1.57226,0 q 0.0171,0.0342 0.0171,0.0855 0,0.0684 -0.0684,0.1709 -0.0513,0.10254 -0.0513,0.22217 l 0,4.92187 4.95606,0 0,-5.40039 1.53808,0 q 0.0171,0.0171 0.0171,0.0855 0,0.0684 -0.0684,0.1709 -0.0684,0.0855 -0.0684,0.18799 l 0,12.20215 -1.43554,0 0,-6.03272 -4.93897,0 0,6.01563 -1.46972,0 0,-12.6294 z"
         style="font-size:17.5px"
         id="path4262"
         inkscape:connector-curvature="0" />
      <path
         d="m 151.32964,150.17961 6.25489,0 0,1.1792 -2.49512,0 0,10.28809 2.61474,0 0,1.1792 -6.52832,0 0,-1.19629 2.49512,0 0,-10.271 -2.34131,0 0,-1.1792 z"
         style="font-size:17.5px"
         id="path4264"
         inkscape:connector-curvature="0" />
      <path
         d="m 163.5147,150.17961 5.77637,0 0,1.1792 -1.94824,0 0,7.21191 q 0,0.64942 -0.0171,0.97413 0,0.30761 -0.11963,0.85449 -0.11963,0.52978 -0.3418,0.95703 -0.44433,0.80322 -1.21338,1.24756 -0.75195,0.42724 -1.6748,0.42724 -1.76026,0 -2.93946,-1.40136 l 0.93995,-1.14502 q 0.0684,0.0513 0.0684,0.18799 0.0171,0.11962 0.0513,0.17089 0.93995,0.93995 1.91407,0.93995 0.97412,0 1.48681,-0.82032 0.44434,-0.64941 0.44434,-2.20459 l 0,-0.1709 0,-7.229 -2.42676,0 0,-1.1792 z"
         style="font-size:17.5px"
         id="path4266"
         inkscape:connector-curvature="0" />
      <path
         d="m 171.37603,150.16252 1.70898,0 q 0.0171,0.11963 -0.11962,0.29053 -0.0855,0.10254 -0.0855,0.22217 l 0,5.33203 5.29785,-5.93018 q 0.41015,0.10254 1.04248,0.10254 l 0.52978,0 -4.78515,5.45166 5.10986,7.19483 q 0,0 -1.79443,0.0684 l -4.39209,-6.40869 -1.0083,1.09375 0,5.2295 -1.50391,0 0,-12.64649 z"
         style="font-size:17.5px"
         id="path4268"
         inkscape:connector-curvature="0" />
      <path
         d="m 182.3648,150.17961 1.64062,0 q 0.0171,0.1709 -0.0683,0.30762 -0.10254,0.23926 -0.10254,0.37597 l 0,10.73243 6.08398,0 0,1.23047 -7.55371,0 0,-12.64649 z"
         style="font-size:17.5px"
         id="path4270"
         inkscape:connector-curvature="0" />
      <path
         d="m 192.32818,150.17961 1.12793,0 3.12744,6.16943 3.1958,-6.18652 1.05957,0 0,12.66358 -1.3501,0 0,-9.55323 -2.73437,5.09278 -0.52979,0 -2.56347,-5.02442 0,9.48487 -1.33301,0 0,-12.64649 z"
         style="font-size:17.5px"
         id="path4272"
         inkscape:connector-curvature="0" />
      <path
         d="m 203.02642,162.80901 0,-12.6294 1.38428,0 5.29785,9.36524 0,-9.38233 1.50391,0 q 0,0.0342 -0.0684,0.25635 -0.0684,0.11963 -0.0684,0.27344 l 0,12.13379 -1.12793,0 -5.5542,-9.96338 0,9.94629 -1.36719,0 z"
         style="font-size:17.5px"
         id="path4274"
         inkscape:connector-curvature="0" />
      <path
         d="m 222.04742,156.51994 q 0,2.51221 -0.75196,4.03321 -0.59814,1.21338 -1.58935,1.82861 -0.97412,0.61523 -2.05078,0.61523 -0.78614,0 -1.53809,-0.3247 -0.75195,-0.3418 -1.46973,-1.05957 -0.70068,-0.71778 -1.12793,-2.03369 -0.42724,-1.33301 -0.42724,-3.11036 0,-1.43554 0.29053,-2.56347 0.30761,-1.14502 0.76904,-1.84571 0.46142,-0.71777 1.07666,-1.1792 0.61523,-0.47851 1.21338,-0.6665 0.59814,-0.18799 1.19629,-0.18799 1.07666,0 2.05078,0.61524 0.99121,0.61523 1.58935,1.77734 0.76905,1.521 0.76905,4.10156 z m -4.46045,-5.16113 q -0.54688,0 -1.05957,0.25635 -0.5127,0.23926 -0.99121,0.78613 -0.46143,0.52979 -0.75196,1.53809 -0.29052,1.0083 -0.29052,2.34131 0,2.73437 0.95703,4.0332 0.95703,1.29883 2.20459,1.29883 0.70068,0 1.35009,-0.41016 0.64942,-0.42725 1.05957,-1.29883 0.56397,-1.1792 0.56397,-3.1958 0,-2.17041 -0.47852,-3.34961 -0.41015,-1.02539 -1.11084,-1.5039 -0.70068,-0.49561 -1.45263,-0.49561 z"
         style="font-size:17.5px"
         id="path4276"
         inkscape:connector-curvature="0" />
      <path
         d="m 225.65337,151.49553 -0.0171,4.49463 2.54639,0 q 0.90576,0 1.46973,-0.27344 1.12793,-0.58105 1.12793,-1.91406 0,-0.63233 -0.30762,-1.1792 -0.30762,-0.54688 -0.88867,-0.8374 -0.59815,-0.29053 -1.55518,-0.29053 l -2.37549,0 z m -1.46972,-1.31592 3.84521,0 q 1.58936,0 2.39258,0.42725 0.87158,0.44433 1.33301,1.29883 0.47851,0.8374 0.47851,1.82861 0,0.99121 -0.47851,1.82861 -0.46143,0.82031 -1.31592,1.26465 -0.76904,0.39307 -2.30713,0.39307 l -2.47803,0 0,5.58838 -1.46972,0 0,-12.6294 z"
         style="font-size:17.5px"
         id="path4278"
         inkscape:connector-curvature="0" />
      <path
         d="m 238.55621,151.32463 q -1.21338,0 -2.15332,1.21338 -0.93995,1.19629 -0.93995,3.72559 0,2.75146 0.93995,4.08447 0.95703,1.33301 2.23876,1.33301 0.35889,0 0.71778,-0.10254 0.37597,-0.10254 0.80322,-0.42725 0.42725,-0.3418 0.75195,-0.85449 0.32471,-0.52979 0.52979,-1.45264 0.22217,-0.92285 0.22217,-2.11914 0,-2.1875 -0.49561,-3.38379 -0.42724,-1.04248 -1.14502,-1.52099 -0.71777,-0.49561 -1.46972,-0.49561 z m 4.47753,5.2124 q 0,2.51221 -0.75195,4.03321 -0.51269,1.0083 -1.29883,1.62353 -0.76904,0.59815 -1.6748,0.75195 0.0342,1.521 1.48682,1.521 0.25634,0 0.8374,-0.0513 0.59814,-0.0342 0.82031,-0.0513 l -0.0513,1.38428 -0.39307,0 -0.75195,0 q -1.3501,0 -1.98242,-0.30762 -1.19629,-0.59814 -1.19629,-2.40967 l 0,-0.0855 q -0.73486,-0.10253 -1.41846,-0.4956 -0.6665,-0.41016 -1.26465,-1.14502 -0.59814,-0.73486 -0.95703,-1.98242 -0.35888,-1.24756 -0.35888,-2.85401 0,-1.77734 0.42724,-3.09326 0.44434,-1.31592 1.14502,-1.99951 0.70069,-0.70068 1.45264,-1.02539 0.75195,-0.32471 1.521,-0.32471 1.09375,0 2.06787,0.63233 0.99121,0.61523 1.58935,1.79443 0.75195,1.521 0.75195,4.08447 z"
         style="font-size:17.5px"
         id="path4280"
         inkscape:connector-curvature="0" />
      <path
         d="m 245.11871,150.17961 3.72558,0 q 1.57227,0 2.40967,0.42725 0.85449,0.44433 1.31592,1.24756 0.47851,0.80322 0.47851,1.77734 0,1.26465 -0.71777,2.25586 -0.71777,0.97412 -1.86279,1.28174 l 2.92236,5.63965 -1.58936,0 -2.80273,-5.58838 -2.44385,0 0,5.58838 -1.43554,0 0,-12.6294 z m 1.43554,1.31592 0,4.49463 2.44385,0 q 0.93994,0 1.46973,-0.25635 1.12793,-0.58105 1.12793,-1.93115 0,-0.63233 -0.32471,-1.1792 -0.30762,-0.56397 -0.87158,-0.85449 -0.54688,-0.27344 -1.55518,-0.27344 l -2.29004,0 z"
         style="font-size:17.5px"
         id="path4282"
         inkscape:connector-curvature="0" />
      <path
         d="m 263.28521,151.68352 -0.88867,1.19629 q -0.10254,-0.0342 -0.10254,-0.15381 0,-0.11963 -0.0513,-0.20508 -0.85449,-1.24756 -2.56348,-1.24756 -1.04248,0 -1.6748,0.54688 -0.61524,0.52978 -0.61524,1.29882 0,1.14502 1.29883,1.89698 0.29053,0.1709 1.8457,0.82031 1.55518,0.63232 2.1875,1.24756 0.97413,0.93994 0.97413,2.29004 0,1.40136 -1.05957,2.52929 -1.04248,1.11084 -3.14454,1.11084 -2.47802,0 -3.96484,-1.62353 l 0.8374,-1.45264 q 0.0855,0.0342 0.0855,0.18799 0,0.13672 0.0684,0.22217 0.46143,0.59814 1.24756,1.0083 0.78613,0.39307 1.76025,0.39307 1.28174,0 2.01661,-0.70069 0.75195,-0.71777 0.75195,-1.60644 0,-1.07666 -1.05957,-1.74317 -0.37598,-0.23926 -1.8457,-0.82031 -1.45264,-0.58105 -2.10206,-1.07666 -1.35009,-1.0083 -1.35009,-2.46094 0,-1.33301 1.07666,-2.27295 1.09375,-0.95703 2.76855,-0.95703 2.17041,0 3.50342,1.57227 z"
         style="font-size:17.5px"
         id="path4284"
         inkscape:connector-curvature="0" />
      <path
         d="m 265.59234,150.16252 8.75,0 0,1.26465 -3.72559,0 0,11.39893 -1.43554,0 0,-11.39893 -3.58887,0 0,-1.26465 z"
         style="font-size:17.5px"
         id="path4286"
         inkscape:connector-curvature="0" />
      <path
         d="m 276.47857,150.17961 1.58935,0 q 0.0171,0.0342 0.0171,0.10254 0,0.0855 -0.13671,0.27344 -0.0684,0.10254 -0.0684,0.27344 l 0,7.63916 q 0,1.24755 0.29052,1.86279 0.3418,0.71777 0.99121,1.11084 0.64942,0.39306 1.41846,0.39306 0.76904,0 1.41846,-0.37597 0.64941,-0.39307 0.99121,-1.11084 0.32471,-0.6836 0.32471,-1.93115 l 0,-8.23731 1.35009,0 0,8.20313 q 0,1.72607 -0.51269,2.6831 -0.5127,0.95703 -1.48682,1.46973 -0.95703,0.4956 -2.10205,0.4956 -1.14502,0 -2.11914,-0.51269 -0.97412,-0.5127 -1.48682,-1.45264 -0.47851,-0.90576 -0.47851,-2.61474 l 0,-8.27149 z"
         style="font-size:17.5px"
         id="path4288"
         inkscape:connector-curvature="0" />
      <path
         d="m 286.45904,150.16252 1.48681,0 3.22998,9.70703 3.07618,-9.68994 1.40136,0 -4.23828,12.71484 -0.64941,0 -4.30664,-12.73193 z"
         style="font-size:17.5px"
         id="path4290"
         inkscape:connector-curvature="0" />
      <path
         d="m 296.79839,150.17961 1.31592,0 1.3501,8.52783 2.03369,-7.60498 0.44434,0 2.05078,7.63916 1.14502,-8.56201 1.19629,0 -1.99952,12.71484 -0.56396,0 -2.17041,-8.33984 -2.20459,8.33984 -0.56397,0 -2.03369,-12.71484 z"
         style="font-size:17.5px"
         id="path4292"
         inkscape:connector-curvature="0" />
      <path
         d="m 314.6231,150.16252 1.41846,0 -3.1958,6.16943 3.57177,6.47706 -1.58935,0 -2.80274,-5.00733 -2.70019,5.00733 -1.57227,0 3.46924,-6.44288 -3.40088,-6.20361 1.53809,0 2.64892,4.80225 2.61475,-4.80225 z"
         style="font-size:17.5px"
         id="path4294"
         inkscape:connector-curvature="0" />
      <path
         d="m 318.00689,150.16252 1.60644,0 3.09327,6.13526 2.80273,-6.11817 1.50391,0 -3.58887,7.63916 0,4.99024 -1.53809,0 0,-4.99024 -3.87939,-7.65625 z"
         style="font-size:17.5px"
         id="path4296"
         inkscape:connector-curvature="0" />
      <path
         d="m 329.18365,150.17961 7.81006,0 -0.0171,0.99121 -6.25489,10.39063 5.96436,0 q 0.11963,0 0.29053,-0.0513 0.17089,-0.0684 0.25634,-0.0684 l 0.0684,0 0,1.38428 -8.35693,0 0,-0.99122 6.35742,-10.39062 -6.11816,0 0,-1.26465 z"
         style="font-size:17.5px"
         id="path4298"
         inkscape:connector-curvature="0" />
      <path
         d="m 74.920952,180.08684 q 0,2.22168 -1.230469,3.5376 -1.213379,1.29882 -2.939453,1.29882 -1.794434,0 -3.076172,-1.36718 -1.264648,-1.36719 -1.264648,-3.43506 0,-2.10205 1.281738,-3.50342 1.298828,-1.40137 3.110351,-1.40137 1.691895,0 2.905274,1.29883 1.213379,1.29883 1.213379,3.57178 z m -4.221192,-3.62305 q -1.127929,0 -1.948242,0.95703 -0.803222,0.95703 -0.803222,2.58057 0,1.65771 0.820312,2.66601 0.837402,1.0083 1.999512,1.0083 1.09375,0 1.879883,-0.92285 0.803222,-0.93994 0.803222,-2.59765 0,-1.79444 -0.820312,-2.73438 -0.820313,-0.95703 -1.931153,-0.95703 z"
         style="font-size:17.5px"
         id="path4300"
         inkscape:connector-curvature="0" />
      <path
         d="m 85.636284,178.39494 q 0,2.51221 -0.751953,4.03321 -0.598145,1.21338 -1.589356,1.82861 -0.974121,0.61523 -2.050781,0.61523 -0.786133,0 -1.538086,-0.3247 -0.751953,-0.3418 -1.469726,-1.05957 -0.700684,-0.71778 -1.12793,-2.03369 -0.427246,-1.33301 -0.427246,-3.11036 0,-1.43554 0.290527,-2.56347 0.307617,-1.14502 0.769043,-1.84571 0.461426,-0.71777 1.07666,-1.1792 0.615235,-0.47851 1.213379,-0.6665 0.598145,-0.18799 1.196289,-0.18799 1.07666,0 2.050781,0.61524 0.991211,0.61523 1.589356,1.77734 0.769043,1.521 0.769043,4.10156 z m -4.460449,-5.16113 q -0.546875,0 -1.059571,0.25635 -0.512695,0.23926 -0.991211,0.78613 -0.461425,0.52979 -0.751953,1.53809 -0.290527,1.0083 -0.290527,2.34131 0,2.73437 0.957031,4.0332 0.957031,1.29883 2.20459,1.29883 0.700684,0 1.350098,-0.41016 0.649414,-0.42725 1.05957,-1.29883 0.563965,-1.1792 0.563965,-3.1958 0,-2.17041 -0.478516,-3.34961 -0.410156,-1.02539 -1.11084,-1.5039 -0.700683,-0.49561 -1.452636,-0.49561 z"
         style="font-size:17.5px"
         id="path4302"
         inkscape:connector-curvature="0" />
      <path
         d="m 88.832085,173.78069 q 1.247558,-1.81153 2.836914,-1.81153 1.589355,0 2.802734,1.79444 1.230469,1.77734 1.230469,4.81933 0,1.55518 -0.375977,2.80274 -0.358886,1.24755 -0.957031,1.99951 -0.581055,0.73486 -1.281738,1.12793 -0.683594,0.39306 -1.384278,0.39306 -1.606445,0 -2.854004,-1.76025 -1.247558,-1.77734 -1.247558,-4.68262 0,-2.88818 1.230469,-4.68261 z m 4.819336,1.07666 q -0.393067,-0.80323 -0.939942,-1.23047 -0.529785,-0.42725 -1.05957,-0.42725 -1.025391,0 -1.879883,1.38428 -0.854492,1.36719 -0.854492,3.64013 0,1.19629 0.290527,2.39258 l 4.44336,-5.75927 z m 0.461425,1.35009 -4.443359,5.69092 q 0.410156,0.82031 0.957031,1.28174 0.563965,0.44434 1.12793,0.44434 0.991211,0 1.811523,-1.23047 0.820313,-1.23047 0.820313,-3.65723 0,-1.38428 -0.273438,-2.5293 z"
         style="font-size:17.5px"
         id="path4304"
         inkscape:connector-curvature="0" />
      <path
         d="m 102.31597,171.88371 q 1.38428,0 2.32422,0.87158 0.95703,0.87159 0.95703,2.11915 0,0.90576 -0.54687,1.74316 -0.54688,0.8374 -1.46973,1.31592 1.07666,0.4956 1.76025,1.45263 0.6836,0.93995 0.6836,2.0337 0,1.45263 -1.12793,2.46093 -1.11084,1.0083 -2.76856,1.0083 -1.62353,0 -2.734372,-0.97412 -1.09375,-0.99121 -1.09375,-2.40967 0,-1.07666 0.683594,-2.03369 0.700683,-0.97412 1.828618,-1.5039 -0.871587,-0.44434 -1.401372,-1.23047 -0.512695,-0.80322 -0.512695,-1.72608 0,-1.29882 0.991211,-2.20459 0.991206,-0.92285 2.426756,-0.92285 z m -0.42724,6.66504 q -0.92286,0.37598 -1.53809,1.14502 -0.598145,0.75195 -0.598145,1.62354 0,0.95703 0.700685,1.64062 0.71777,0.66651 1.74316,0.66651 1.0083,0 1.6919,-0.64942 0.70068,-0.6665 0.70068,-1.58935 0,-0.92286 -0.73486,-1.67481 -0.73487,-0.76904 -1.96533,-1.16211 z m 0.30761,-5.46875 q -0.82031,0 -1.38427,0.52979 -0.54688,0.52978 -0.54688,1.28174 0,0.46142 0.22217,0.90576 0.23926,0.42724 0.56396,0.71777 0.32471,0.27344 0.64942,0.49561 0.3247,0.22216 0.56396,0.3247 l 0.22217,0.0854 q 0.76904,-0.41015 1.24756,-1.05957 0.47851,-0.6665 0.47851,-1.38428 0,-0.80322 -0.59814,-1.35009 -0.58106,-0.54688 -1.41846,-0.54688 z"
         style="font-size:17.5px"
         id="path4306"
         inkscape:connector-curvature="0" />
      <path
         d="m 120.20904,175.40422 3.70849,0 0,8.10059 2.17041,0 0,1.1792 -5.99853,0 0,-1.1792 2.3584,0 0,-6.9043 -2.23877,0 0,-1.19629 z m 2.25586,-3.7085 q 0.30761,-0.30761 0.75195,-0.30761 0.44434,0 0.75195,0.30761 0.30762,0.30762 0.30762,0.73487 0,0.42724 -0.30762,0.73486 -0.30761,0.30762 -0.75195,0.30762 -0.44434,0 -0.75195,-0.30762 -0.29053,-0.30762 -0.29053,-0.73486 0,-0.42725 0.29053,-0.73487 z"
         style="font-size:17.5px"
         id="path4308"
         inkscape:connector-curvature="0" />
      <path
         d="m 130.34332,172.05461 6.25488,0 0,1.1792 -2.49512,0 0,10.28809 2.61475,0 0,1.1792 -6.52832,0 0,-1.19629 2.49511,0 0,-10.271 -2.3413,0 0,-1.1792 z"
         style="font-size:17.5px"
         id="path4310"
         inkscape:connector-curvature="0" />
      <path
         d="m 140.76812,171.21721 4.08447,0 0,12.2876 2.73438,0 0,1.1792 -6.95557,0 0,-1.1792 2.75147,0 0,-11.12549 -2.61475,0 0,-1.16211 z"
         style="font-size:17.5px"
         id="path4312"
         inkscape:connector-curvature="0" />
      <path
         d="m 150.88531,172.05461 1.64062,0 q 0.0171,0.1709 -0.0684,0.30762 -0.10254,0.23926 -0.10254,0.37597 l 0,10.73243 6.08399,0 0,1.23047 -7.55371,0 0,-12.64649 z"
         style="font-size:17.5px"
         id="path4314"
         inkscape:connector-curvature="0" />
      <path
         d="m 166.11236,172.03752 0,12.66358 -1.41846,0 0,-10.90332 -2.54639,0.75195 -0.3247,-0.78613 3.29834,-1.72608 0.99121,0 z"
         style="font-size:17.5px"
         id="path4316"
         inkscape:connector-curvature="0" />
      <path
         d="m 182.09136,178.92473 0.39307,0 q 0.90576,0 1.36719,-0.46143 0.52978,-0.56396 0.52978,-1.70898 0,-0.23926 -0.0342,-0.71778 -0.0171,-0.47851 -0.0171,-0.73486 0,-1.81152 0.99121,-2.73437 0.87158,-0.80323 2.90528,-0.80323 l 0.46142,0 0.61524,0 0,1.16211 -0.70069,0 q -0.15381,0 -0.42724,0 -0.25635,-0.0171 -0.37598,-0.0171 -0.78613,0 -1.24756,0.27344 -0.82031,0.5127 -0.82031,1.89697 0,0.23926 0.0342,0.70069 0.0342,0.46142 0.0342,0.71777 0,0.93994 -0.3418,1.62354 -0.46142,0.97412 -1.43555,1.36718 1.72608,0.58106 1.72608,3.14453 0,0.32471 -0.0342,0.88868 -0.0342,0.56396 -0.0342,0.82031 0,1.50391 0.8374,2.08496 0.5127,0.3418 1.62354,0.3418 l 0.39306,0 0.75196,0 0,1.12793 -0.73487,0 -0.63232,0 q -0.59815,0 -0.95703,-0.0342 -0.35889,-0.0171 -0.80323,-0.15381 -0.44433,-0.13672 -0.78613,-0.41016 -1.12793,-0.87158 -1.12793,-2.93945 0,-0.41016 0.0342,-1.07666 0.0513,-0.66651 0.0513,-0.95703 0,-1.33301 -0.54687,-1.8628 -0.41016,-0.39306 -1.28174,-0.39306 l -0.41016,0 0,-1.14502 z"
         style="font-size:17.5px"
         id="path4318"
         inkscape:connector-curvature="0" />
      <path
         d="m 200.59966,178.92473 0,1.14502 -0.42724,0 q -0.87159,0 -1.28174,0.39306 -0.52979,0.5127 -0.52979,1.8628 0,0.29052 0.0342,0.95703 0.0513,0.6665 0.0513,1.07666 0,2.05078 -1.14502,2.93945 -0.47851,0.37598 -1.05957,0.47852 -0.58105,0.11963 -1.46972,0.11963 l -0.63233,0 -0.73486,0 0,-1.12793 0.75195,0 0.37598,0 q 1.12793,0 1.64062,-0.3418 0.83741,-0.58105 0.83741,-2.08496 0,-0.25635 -0.0342,-0.82031 -0.0342,-0.56397 -0.0342,-0.88868 0,-2.58056 1.70898,-3.14453 -0.97412,-0.39306 -1.43555,-1.36718 -0.3247,-0.64942 -0.3247,-1.62354 0,-0.25635 0.0342,-0.71777 0.0342,-0.46143 0.0342,-0.70069 0,-1.38427 -0.82032,-1.89697 -0.46142,-0.27344 -1.24756,-0.27344 -0.11962,0 -0.39306,0.0171 -0.25635,0 -0.41016,0 l -0.70068,0 0,-1.16211 0.61523,0 0.44434,0 q 2.03369,0 2.90527,0.80323 1.0083,0.92285 1.0083,2.73437 0,0.25635 -0.0342,0.73486 -0.0171,0.47852 -0.0171,0.71778 0,1.16211 0.5127,1.70898 0.46142,0.46143 1.36719,0.46143 l 0.41015,0 z"
         style="font-size:17.5px"
         id="path4320"
         inkscape:connector-curvature="0" />
      <path
         d="m 215.16021,171.09758 5.79346,0 0,1.21338 -4.49463,0 0,13.02246 4.51172,0 0,1.14502 -5.81055,0 0,-15.38086 z"
         style="font-size:17.5px"
         id="path4322"
         inkscape:connector-curvature="0" />
      <path
         d="m 230.4898,171.09758 0,15.38086 -5.81055,0 0,-1.14502 4.51172,0 0,-13.02246 -4.49463,0 0,-1.21338 5.79346,0 z"
         style="font-size:17.5px"
         id="path4324"
         inkscape:connector-curvature="0" />
      <path
         d="m 246.53716,178.30949 q 0,0.83741 0.59815,1.43555 0.59814,0.59815 1.43554,0.59815 0.8545,0 1.43555,-0.58106 0.59815,-0.59814 0.59815,-1.45264 0,-0.85449 -0.59815,-1.45263 -0.58105,-0.59815 -1.41846,-0.59815 -0.85449,0 -1.45263,0.59815 -0.59815,0.59814 -0.59815,1.45263 z m 2.13623,-3.1958 q 1.29883,0 2.1875,0.88868 1.02539,-0.83741 2.30713,-0.83741 0.0342,0 0.11963,0.0171 0.0854,0 0.13672,0 l 0.1709,1.19629 q -0.25635,-0.0513 -0.52979,-0.0513 -0.87158,0 -1.62353,0.44434 0.47851,0.71777 0.47851,1.57226 0,1.28174 -0.99121,2.23877 -0.97412,0.93994 -2.34131,0.93994 -0.54687,0 -1.1792,-0.22216 -0.6665,0.52978 -0.6665,1.04248 0,0.44433 0.56397,0.61523 0.47851,0.11963 1.333,0.11963 0.20508,0 0.63233,-0.0171 0.44433,-0.0171 0.6665,-0.0171 1.14502,0 1.82861,0.29053 0.70069,0.29053 1.05958,0.8374 0.37597,0.54688 0.37597,1.1792 0,1.09375 -1.05957,1.94824 -1.04248,0.87158 -3.1958,0.87158 -2.22168,0 -3.21289,-0.64941 -0.99121,-0.64941 -0.99121,-1.53809 0,-1.07666 1.521,-2.05078 -0.75196,-0.39306 -0.75196,-1.24756 0,-0.88867 1.05957,-1.77734 -0.64941,-0.42725 -1.0083,-1.09375 -0.35889,-0.6665 -0.35889,-1.41846 0,-1.35009 1.0254,-2.30713 1.04248,-0.97412 2.44384,-0.97412 z m -1.41845,9.07471 q -1.16211,0.59814 -1.16211,1.43555 0,0.80322 0.90576,1.14502 0.75195,0.29052 1.91406,0.29052 1.38428,0 2.08496,-0.39306 0.87158,-0.46143 0.87158,-1.23047 0,-0.37598 -0.25634,-0.68359 -0.25635,-0.30762 -0.83741,-0.39307 -0.41015,-0.0513 -0.93994,-0.0513 l -0.34179,0 q -0.46143,0 -0.6836,-0.0171 -0.70068,-0.0171 -1.55517,-0.10254 z"
         style="font-size:17.5px"
         id="path4326"
         inkscape:connector-curvature="0" />
      <path
         d="m 258.87603,184.88908 q -1.62354,0 -2.80273,-1.14502 l 0.99121,-1.09375 q 0.10254,0.0684 0.17089,0.25635 0.0684,0.1709 0.15381,0.23926 0.61524,0.46143 1.521,0.46143 0.75195,0 1.43555,-0.42725 0.70068,-0.42725 1.07666,-1.31592 0.44433,-1.14502 0.4956,-3.12744 -0.95703,1.36719 -2.59765,1.36719 -1.43555,0 -2.46094,-1.11084 -1.0083,-1.11084 -1.0083,-2.88819 0,-1.81152 1.05957,-2.99072 1.05957,-1.1792 2.56347,-1.1792 1.07666,0 2.01661,0.6836 0.93994,0.68359 1.41845,2.05078 0.42725,1.26465 0.42725,3.53759 0,2.23877 -0.52979,3.74268 -0.54687,1.43555 -1.62353,2.1875 -1.07666,0.75195 -2.30713,0.75195 z m 0.58105,-6.03271 q 0.6836,0 1.31592,-0.41016 0.64942,-0.42724 1.07666,-1.12793 0.0342,-0.41015 0.0342,-0.61523 0,-1.58936 -0.71777,-2.54639 -0.70068,-0.97412 -1.72608,-0.97412 -0.92285,0 -1.57226,0.76904 -0.63233,0.76905 -0.63233,2.10205 0,1.33301 0.64942,2.06788 0.6665,0.73486 1.57226,0.73486 z"
         style="font-size:17.5px"
         id="path4328"
         inkscape:connector-curvature="0" />
      <path
         d="m 272.5479,176.77141 0,-1.3501 1.38428,0 0,12.64648 -1.45263,0 0,-4.8706 q -0.44434,0.76904 -1.21338,1.23047 -0.75196,0.46142 -1.62354,0.46142 -1.58935,0 -2.71728,-1.36718 -1.11084,-1.36719 -1.11084,-3.55469 0,-2.23877 1.19629,-3.50342 1.19628,-1.28174 2.83691,-1.28174 0.58105,0 1.05957,0.1709 0.49561,0.15381 0.78613,0.39307 0.29053,0.23926 0.49561,0.47851 0.20508,0.22217 0.29053,0.39307 l 0.0684,0.15381 z m -2.64892,-0.39307 q -1.05957,0 -1.8457,0.85449 -0.76905,0.83741 -0.76905,2.51221 0,1.8457 0.78614,2.854 0.80322,1.00831 1.87988,1.00831 0.73486,0 1.36719,-0.47852 0.64941,-0.47852 0.90576,-1.28174 0.18799,-0.58105 0.18799,-1.6748 0,-1.62354 -0.22217,-2.22168 -0.29053,-0.78614 -0.93994,-1.1792 -0.64942,-0.39307 -1.3501,-0.39307 z"
         style="font-size:17.5px"
         id="path4330"
         inkscape:connector-curvature="0" />
      <path
         d="m 281.09283,171.95207 q 1.24756,0 2.29004,0.6836 1.05957,0.6665 1.57226,1.81152 l -1.3501,0.6665 q -0.0854,-0.0684 -0.0854,-0.20507 0,-0.0342 0,-0.0855 0.0171,-0.0513 0.0171,-0.0684 0,-0.0342 -0.0854,-0.20508 -0.39307,-0.66651 -1.04249,-1.05957 -0.63232,-0.41016 -1.36718,-0.41016 -1.41846,0 -2.40967,1.41846 -0.97412,1.40137 -0.97412,3.81103 0,2.46094 1.0083,3.91358 1.02539,1.45263 2.49512,1.45263 0.75195,0 1.45263,-0.41015 0.70069,-0.42725 1.12793,-1.14502 l 1.04248,0.68359 q -0.58105,0.97412 -1.58935,1.53809 -0.99121,0.54687 -2.11914,0.54687 -0.83741,0 -1.64063,-0.3247 -0.80322,-0.3418 -1.53808,-1.04248 -0.73487,-0.71778 -1.1792,-2.01661 -0.44434,-1.31591 -0.44434,-3.05908 0,-1.45263 0.30762,-2.61474 0.32471,-1.16211 0.82031,-1.8628 0.49561,-0.71777 1.14502,-1.1792 0.6665,-0.47851 1.28174,-0.64941 0.63232,-0.18799 1.26465,-0.18799 z"
         style="font-size:17.5px"
         id="path4332"
         inkscape:connector-curvature="0" />
      <path
         d="m 291.5689,171.93498 q 1.1792,0 2.15332,0.56397 0.99121,0.54687 1.521,1.53808 l -0.99121,1.02539 q -0.10254,-0.0684 -0.27344,-0.41015 -0.30762,-0.66651 -0.95703,-1.07666 -0.63233,-0.41016 -1.45264,-0.41016 -0.8374,0 -1.62353,0.46143 -0.76905,0.46142 -1.23047,1.35009 -0.63233,1.1792 -0.63233,3.24707 0,2.93946 1.21338,4.30665 0.97412,1.11084 2.39258,1.11084 1.23047,0 2.27295,-0.76905 l 0,-3.0249 -2.29004,0 0,-1.21338 3.60596,0 0,4.92188 q -1.81153,1.31591 -3.7085,1.31591 -0.88867,0 -1.70898,-0.3247 -0.82032,-0.3418 -1.55518,-1.04248 -0.73486,-0.70069 -1.1792,-1.98243 -0.44433,-1.29882 -0.44433,-3.00781 0,-1.57226 0.34179,-2.78564 0.35889,-1.23047 0.88867,-1.91406 0.52979,-0.70069 1.21338,-1.14502 0.70069,-0.44434 1.28174,-0.58106 0.58106,-0.15381 1.16211,-0.15381 z"
         style="font-size:17.5px"
         id="path4334"
         inkscape:connector-curvature="0" />
      <path
         d="m 301.51519,173.19963 q -1.21338,0 -2.15332,1.21338 -0.93994,1.19629 -0.93994,3.72559 0,2.75146 0.93994,4.08447 0.95703,1.33301 2.23877,1.33301 0.35889,0 0.71777,-0.10254 0.37598,-0.10254 0.80323,-0.42725 0.42724,-0.3418 0.75195,-0.85449 0.32471,-0.52979 0.52978,-1.45264 0.22217,-0.92285 0.22217,-2.11914 0,-2.1875 -0.4956,-3.38379 -0.42725,-1.04248 -1.14502,-1.52099 -0.71778,-0.49561 -1.46973,-0.49561 z m 4.47754,5.2124 q 0,2.51221 -0.75195,4.03321 -0.5127,1.0083 -1.29883,1.62353 -0.76905,0.59815 -1.67481,0.75195 0.0342,1.521 1.48682,1.521 0.25635,0 0.8374,-0.0513 0.59815,-0.0342 0.82031,-0.0513 l -0.0513,1.38428 -0.39306,0 -0.75195,0 q -1.3501,0 -1.98243,-0.30762 -1.19629,-0.59814 -1.19629,-2.40967 l 0,-0.0855 q -0.73486,-0.10253 -1.41845,-0.4956 -0.66651,-0.41016 -1.26465,-1.14502 -0.59815,-0.73486 -0.95703,-1.98242 -0.35889,-1.24756 -0.35889,-2.85401 0,-1.77734 0.42725,-3.09326 0.44433,-1.31592 1.14502,-1.99951 0.70068,-0.70068 1.45263,-1.02539 0.75196,-0.32471 1.521,-0.32471 1.09375,0 2.06787,0.63233 0.99121,0.61523 1.58936,1.79443 0.75195,1.521 0.75195,4.08447 z"
         style="font-size:17.5px"
         id="path4336"
         inkscape:connector-curvature="0" />
      <path
         d="m 319.28863,177.74553 -1.02539,-0.64941 q 0.47851,-0.80323 1.21338,-1.31592 0.75195,-0.5127 1.57226,-0.5127 0.56397,0 1.05957,0.23926 0.5127,0.23926 0.82031,0.52978 0.30762,0.27344 0.70069,0.5127 0.41015,0.23926 0.78613,0.23926 0.46143,0 0.8374,-0.32471 0.39307,-0.32471 0.88867,-0.99121 l 0.92286,0.76904 q -1.24756,1.87989 -2.80274,1.87989 -0.54687,0 -1.04248,-0.25635 -0.47851,-0.25635 -0.76904,-0.54688 -0.29053,-0.30761 -0.6836,-0.56396 -0.39306,-0.25635 -0.80322,-0.25635 -0.90576,0 -1.6748,1.24756 z"
         style="font-size:17.5px"
         id="path4338"
         inkscape:connector-curvature="0" />
      <path
         d="m 329.35455,177.6259 7.29736,0 0,1.3501 -7.29736,0 0,-1.3501 z"
         style="font-size:17.5px"
         id="path4340"
         inkscape:connector-curvature="0" />
      <path
         d="m 342.90679,174.07121 1.28174,0 0,3.46924 3.46924,0 0,1.24756 -3.46924,0 0,3.79394 -1.28174,0 0,-3.79394 -3.58887,0 0,-1.24756 3.58887,0 0,-3.46924 z"
         style="font-size:17.5px"
         id="path4342"
         inkscape:connector-curvature="0" />
      <path
         d="m 349.81109,175.7802 8.33984,0 0,1.24756 -8.33984,0 0,-1.24756 z m 0,4.2041 8.33984,0 0,1.24756 -8.33984,0 0,-1.24756 z"
         style="font-size:17.5px"
         id="path4344"
         inkscape:connector-curvature="0" />
      <path
         d="m 360.25298,174.61809 0,-1.43555 8.59619,4.51172 0,0.99121 -8.64746,5.0415 0,-1.52099 7.09229,-3.99903 -7.04102,-3.58886 z"
         style="font-size:17.5px"
         id="path4346"
         inkscape:connector-curvature="0" />
    </g>
  </g>
</svg>
