<?xml version="1.0" encoding="UTF-8" standalone="no"?>
<!-- Created with Inkscape (http://www.inkscape.org/) -->

<svg
   xmlns:dc="http://purl.org/dc/elements/1.1/"
   xmlns:cc="http://creativecommons.org/ns#"
   xmlns:rdf="http://www.w3.org/1999/02/22-rdf-syntax-ns#"
   xmlns:svg="http://www.w3.org/2000/svg"
   xmlns="http://www.w3.org/2000/svg"
   xmlns:sodipodi="http://sodipodi.sourceforge.net/DTD/sodipodi-0.dtd"
   xmlns:inkscape="http://www.inkscape.org/namespaces/inkscape"
   width="80.428391mm"
   height="29.646736mm"
   viewBox="0 0 284.98249 105.04749"
   id="svg2"
   version="1.1"
   inkscape:version="0.91 r13725"
   sodipodi:docname="Inconsolata Nerd Font.svg">
  <defs
     id="defs4" />
  <sodipodi:namedview
     id="base"
     pagecolor="#ffffff"
     bordercolor="#666666"
     borderopacity="1.0"
     inkscape:pageopacity="0.0"
     inkscape:pageshadow="2"
     inkscape:zoom="0.7"
     inkscape:cx="-55.084647"
     inkscape:cy="-401.81144"
     inkscape:document-units="px"
     inkscape:current-layer="layer1"
     showgrid="false"
     inkscape:window-width="1861"
     inkscape:window-height="1056"
     inkscape:window-x="59"
     inkscape:window-y="24"
     inkscape:window-maximized="1" />
  <metadata
     id="metadata7">
    <rdf:RDF>
      <cc:Work
         rdf:about="">
        <dc:format>image/svg+xml</dc:format>
        <dc:type
           rdf:resource="http://purl.org/dc/dcmitype/StillImage" />
        <dc:title />
      </cc:Work>
    </rdf:RDF>
  </metadata>
  <g
     inkscape:label="Layer 1"
     inkscape:groupmode="layer"
     id="layer1"
     transform="translate(-65.084643,-82.646132)">
    <g
       style="font-style:normal;font-weight:normal;font-size:27.5px;line-height:125%;font-family:'Inconsolata Nerd Font';text-decoration: underline;text-decoration-line: underline;letter-spacing:0px;word-spacing:0px;fill:#ffffff;fill-opacity:1;stroke:none;stroke-width:1px;stroke-linecap:butt;stroke-linejoin:miter;stroke-opacity:1"
       id="text4136">
      <path
         d="m 65.084643,100.93363 8.855,0 0,-1.594998 -3.5475,0 0,-13.915 3.3825,0 0,-1.6225 -8.4975,0 0,1.6225 3.19,0 0,13.8875 -3.3825,0 0,1.622498 z"
         id="path4140"
         inkscape:connector-curvature="0" />
      <path
         d="m 78.587143,100.93363 1.925,0 0,-7.232498 c 0,-2.3925 2.035,-3.905 3.7125,-3.905 1.2925,0 2.31,0.935 2.31,3.575 l 0,7.562498 1.925,0 0,-7.617498 c 0,-3.795 -1.6225,-5.2525 -3.685,-5.2525 -1.705,0 -3.3,0.99 -4.2625,2.53 l 0,-2.2275 -1.925,0 0,12.567498 z"
         id="path4142"
         inkscape:connector-curvature="0" />
      <path
         d="m 98.194643,101.23613 c 1.76,0 3.299997,-0.66 4.537497,-1.979998 l -1.155,-1.3475 c -0.9075,1.0175 -2.007497,1.54 -3.272497,1.54 -2.53,0 -4.3725,-2.09 -4.3725,-4.9225 0,-2.8875 1.8975,-4.73 4.015,-4.73 1.21,0 2.089997,0.275 2.887497,0.99 0.44,0.44 0.5225,0.6325 0.5225,0.935 l 0.1375,0.1375 0.1925,-0.1925 1.2375,-1.21 c -1.0175,-1.4575 -2.7225,-2.3375 -4.757497,-2.3375 -3.63,0 -6.27,2.7775 -6.27,6.545 0,3.795 2.64,6.572498 6.2975,6.572498 z"
         id="path4144"
         inkscape:connector-curvature="0" />
      <path
         d="m 110.98214,101.15363 c 3.41,0 5.8025,-2.694998 5.8025,-6.517498 0,-3.8225 -2.3925,-6.545 -5.8025,-6.545 -3.41,0 -5.8025,2.7225 -5.8025,6.545 0,3.8225 2.3925,6.517498 5.8025,6.517498 z m 0,-1.649998 c -2.1725,0 -3.7125,-2.035 -3.7125,-4.895 0,-2.86 1.54,-4.8675 3.7125,-4.8675 2.1725,0 3.7125,2.0075 3.7125,4.8675 0,2.86 -1.54,4.895 -3.7125,4.895 z"
         id="path4146"
         inkscape:connector-curvature="0" />
      <path
         d="m 119.83714,100.93363 1.925,0 0,-7.232498 c 0,-2.3925 2.035,-3.905 3.7125,-3.905 1.2925,0 2.31,0.935 2.31,3.575 l 0,7.562498 1.925,0 0,-7.617498 c 0,-3.795 -1.6225,-5.2525 -3.685,-5.2525 -1.705,0 -3.3,0.99 -4.2625,2.53 l 0,-2.2275 -1.925,0 0,12.567498 z"
         id="path4148"
         inkscape:connector-curvature="0" />
      <path
         d="m 138.50964,101.20863 c 3.52,0 5.1975,-1.814998 5.1975,-3.932498 0,-1.7875 -1.1825,-2.7775 -4.3175,-3.74 -2.86,-0.825 -3.5475,-1.5675 -3.5475,-2.42 0,-1.045 1.21,-1.5675 2.695,-1.5675 0.99,0 2.1175,0.3575 2.97,1.0175 0.4125,0.4125 0.495,0.6325 0.5225,0.935 l 0.1375,0.1375 0.1925,-0.22 1.1275,-1.375 c -1.2375,-1.32 -2.6675,-1.98 -5.005,-1.98 -3.0525,0 -4.62,1.265 -4.62,3.1625 0,1.87 1.8425,3.08 4.73,3.905 2.3375,0.77 3.1625,1.3475 3.1625,2.42 0,1.2375 -1.1825,2.0075 -3.19,2.0075 -1.705,0 -2.695,-0.55 -3.465,-1.32 -0.4125,-0.44 -0.44,-0.715 -0.495,-1.0175 l -0.165,-0.11 -0.165,0.2475 -1.1,1.87 c 1.43,1.319998 3.245,1.979998 5.335,1.979998 z"
         id="path4150"
         inkscape:connector-curvature="0" />
      <path
         d="m 152.23214,101.15363 c 3.41,0 5.8025,-2.694998 5.8025,-6.517498 0,-3.8225 -2.3925,-6.545 -5.8025,-6.545 -3.41,0 -5.8025,2.7225 -5.8025,6.545 0,3.8225 2.3925,6.517498 5.8025,6.517498 z m 0,-1.649998 c -2.1725,0 -3.7125,-2.035 -3.7125,-4.895 0,-2.86 1.54,-4.8675 3.7125,-4.8675 2.1725,0 3.7125,2.0075 3.7125,4.8675 0,2.86 -1.54,4.895 -3.7125,4.895 z"
         id="path4152"
         inkscape:connector-curvature="0" />
      <path
         d="m 161.27964,100.93363 9.405,0 0,-1.594998 -3.685,0 0,-16.6925 -5.555,0 0,1.595 3.5475,0 0,15.0975 -3.7125,0 0,1.594998 z"
         id="path4154"
         inkscape:connector-curvature="0" />
      <path
         d="m 179.56714,88.091132 c -1.7325,0 -3.3,0.5775 -4.4825,1.76 l 0.9625,1.265 c 0.9625,-0.935 2.1725,-1.4025 3.3825,-1.4025 2.42,0 3.7125,0.935 3.9325,3.85 -1.045,-0.1375 -1.98,-0.165 -2.8325,-0.165 -3.465,0 -6.325,1.6775 -6.325,4.3725 0,2.035 1.595,3.464998 4.455,3.464998 1.4575,0 3.3275,-0.385 4.29,-2.227498 l 0,1.924998 2.145,0 0,-6.682498 c 0,-4.73 -2.2,-6.16 -5.5275,-6.16 z m -0.715,11.6325 c -1.5125,0 -2.6675,-0.495 -2.6675,-2.0625 0,-1.9525 1.87,-2.7775 4.51,-2.7775 0.825,0 1.7875,0.055 2.6675,0.1925 -0.165,2.9975 -1.7875,4.6475 -4.51,4.6475 z"
         id="path4156"
         inkscape:connector-curvature="0" />
      <path
         d="m 198.21214,98.211132 c -1.0175,0.7425 -1.87,1.265 -3.08,1.265 -1.5675,0 -2.3375,-0.8525 -2.09,-5.225 l 0.2475,-4.2625 4.29,0 0,-1.6225 -4.18,0 0.3025,-2.5025 c 0.055,-0.605 0.22,-0.7975 0.4125,-1.0725 l -0.0275,-0.165 -0.275,0.0275 -2.2,0.3575 -0.1925,3.355 -2.8875,0 0,1.6225 2.7775,0 -0.2475,4.125 c -0.275,4.84 0.5225,7.012498 3.7675,7.012498 1.43,0 2.7225,-0.4125 3.9875,-1.347498 l -0.605,-1.5675 z"
         id="path4158"
         inkscape:connector-curvature="0" />
      <path
         d="m 207.06714,88.091132 c -1.7325,0 -3.3,0.5775 -4.4825,1.76 l 0.9625,1.265 c 0.9625,-0.935 2.1725,-1.4025 3.3825,-1.4025 2.42,0 3.7125,0.935 3.9325,3.85 -1.045,-0.1375 -1.98,-0.165 -2.8325,-0.165 -3.465,0 -6.325,1.6775 -6.325,4.3725 0,2.035 1.595,3.464998 4.455,3.464998 1.4575,0 3.3275,-0.385 4.29,-2.227498 l 0,1.924998 2.145,0 0,-6.682498 c 0,-4.73 -2.2,-6.16 -5.5275,-6.16 z m -0.715,11.6325 c -1.5125,0 -2.6675,-0.495 -2.6675,-2.0625 0,-1.9525 1.87,-2.7775 4.51,-2.7775 0.825,0 1.7875,0.055 2.6675,0.1925 -0.165,2.9975 -1.7875,4.6475 -4.51,4.6475 z"
         id="path4160"
         inkscape:connector-curvature="0" />
      <path
         d="m 229.23214,100.93363 1.8425,0 0,-13.474998 7.5625,13.474998 1.5125,0 0,-15.922498 c 0,-0.605 0.0275,-0.7975 0.2475,-1.0175 l 0,-0.1925 -2.09,0 0,12.705 -7.205,-12.705 -1.87,0 0,17.132498 z"
         id="path4162"
         inkscape:connector-curvature="0" />
      <path
         d="m 249.08714,101.20863 c 1.87,0 3.3275,-0.6325 4.4,-1.924998 l -1.1,-1.0725 c -0.8525,0.935 -1.9525,1.4025 -3.245,1.4025 -2.255,0 -4.1525,-1.43 -4.29,-4.675 l 8.9375,0 c 0.0275,-0.3025 0.055,-0.605 0.055,-0.9075 0,-4.0975 -2.255,-5.9675 -5.115,-5.9675 -3.19,0 -5.775,2.365 -5.775,6.6275 0,4.2075 2.4475,6.517498 6.1325,6.517498 z m -4.1525,-7.809998 c 0.3575,-2.64 1.925,-3.8225 3.6575,-3.8225 1.9525,0 3.245,1.485 3.245,3.8225 l -6.9025,0 z"
         id="path4164"
         inkscape:connector-curvature="0" />
      <path
         d="m 264.62464,88.063632 c -1.6775,0 -3.2725,0.935 -3.9875,2.6125 l 0.055,-2.31 -2.0625,0 0,12.594998 2.0075,0 0,-6.682498 c 0,-3.1625 2.0075,-4.51 3.85,-4.51 0.605,0 1.0725,0.11 1.65,0.4675 0.4675,0.385 0.55,0.605 0.6325,0.88 l 0.1925,0.11 0.11,-0.2475 0.88,-1.54 c -0.88,-0.9075 -2.0075,-1.375 -3.3275,-1.375 z"
         id="path4166"
         inkscape:connector-curvature="0" />
      <path
         d="m 275.54214,101.20863 c 1.6225,0 2.8875,-0.88 3.685,-2.227498 0,0.66 0,1.292498 0.275,1.952498 l 1.9525,0 c -0.275,-0.66 -0.275,-1.292498 -0.275,-1.952498 l -0.0275,-15.125 c 0,-0.605 0.0275,-0.7975 0.2475,-1.0175 l 0,-0.1925 -2.09,0 0,7.5625 c -0.6325,-1.32 -1.925,-2.1725 -3.6575,-2.1725 -2.5575,0 -5.3075,1.8975 -5.3075,6.49 0,4.51 2.64,6.682498 5.1975,6.682498 z m 0.3025,-1.732498 c -2.3375,0 -3.575,-2.09 -3.575,-5.2525 0,-2.7775 1.1825,-4.565 3.41,-4.565 2.42,0 3.465,2.1175 3.465,4.9225 0,2.7225 -0.88,4.895 -3.3,4.895 z"
         id="path4168"
         inkscape:connector-curvature="0" />
      <path
         d="m 298.75214,100.93363 1.925,0 0,-8.414998 6.4075,0 0,-1.6775 -6.4075,0 0,-5.39 7.9475,0 0,-1.6775 -9.8725,0 0,17.159998 z"
         id="path4170"
         inkscape:connector-curvature="0" />
      <path
         d="m 317.23214,101.15363 c 3.41,0 5.8025,-2.694998 5.8025,-6.517498 0,-3.8225 -2.3925,-6.545 -5.8025,-6.545 -3.41,0 -5.8025,2.7225 -5.8025,6.545 0,3.8225 2.3925,6.517498 5.8025,6.517498 z m 0,-1.649998 c -2.1725,0 -3.7125,-2.035 -3.7125,-4.895 0,-2.86 1.54,-4.8675 3.7125,-4.8675 2.1725,0 3.7125,2.0075 3.7125,4.8675 0,2.86 -1.54,4.895 -3.7125,4.895 z"
         id="path4172"
         inkscape:connector-curvature="0" />
      <path
         d="m 326.08714,100.93363 1.925,0 0,-7.232498 c 0,-2.3925 2.035,-3.905 3.7125,-3.905 1.2925,0 2.31,0.935 2.31,3.575 l 0,7.562498 1.925,0 0,-7.617498 c 0,-3.795 -1.6225,-5.2525 -3.685,-5.2525 -1.705,0 -3.3,0.99 -4.2625,2.53 l 0,-2.2275 -1.925,0 0,12.567498 z"
         id="path4174"
         inkscape:connector-curvature="0" />
      <path
         d="m 349.46214,98.211132 c -1.0175,0.7425 -1.87,1.265 -3.08,1.265 -1.5675,0 -2.3375,-0.8525 -2.09,-5.225 l 0.2475,-4.2625 4.29,0 0,-1.6225 -4.18,0 0.3025,-2.5025 c 0.055,-0.605 0.22,-0.7975 0.4125,-1.0725 l -0.0275,-0.165 -0.275,0.0275 -2.2,0.3575 -0.1925,3.355 -2.8875,0 0,1.6225 2.7775,0 -0.2475,4.125 c -0.275,4.84 0.5225,7.012498 3.7675,7.012498 1.43,0 2.7225,-0.4125 3.9875,-1.347498 l -0.605,-1.5675 z"
         id="path4176"
         inkscape:connector-curvature="0" />
    </g>
    <g
       style="font-style:normal;font-weight:normal;font-size:27.5px;line-height:125%;font-family:'Inconsolata Nerd Font';letter-spacing:0px;word-spacing:0px;fill:#ffffff;fill-opacity:1;stroke:none;stroke-width:1px;stroke-linecap:butt;stroke-linejoin:miter;stroke-opacity:1"
       id="text4140">
      <path
         d="m 69.689403,132.76112 c -1.1025,0 -2.1,0.3675 -2.8525,1.12 l 0.6125,0.805 c 0.6125,-0.595 1.3825,-0.8925 2.1525,-0.8925 1.54,0 2.3625,0.595 2.5025,2.45 -0.665,-0.0875 -1.26,-0.105 -1.8025,-0.105 -2.205,0 -4.025,1.0675 -4.025,2.7825 0,1.295 1.015,2.205 2.835,2.205 0.9275,0 2.1175,-0.245 2.73,-1.4175 l 0,1.225 1.365,0 0,-4.2525 c 0,-3.01 -1.4,-3.92 -3.5175,-3.92 z m -0.455,7.4025 c -0.9625,0 -1.6975,-0.315 -1.6975,-1.3125 0,-1.2425 1.19,-1.7675 2.87,-1.7675 0.525,0 1.1375,0.035 1.6975,0.1225 -0.105,1.9075 -1.1375,2.9575 -2.87,2.9575 z"
         style="font-size:17.5px"
         id="path4179"
         inkscape:connector-curvature="0" />
      <path
         d="m 78.824403,141.12612 c 1.6625,0 3.3425,-1.4 3.3425,-4.27 0,-2.7475 -1.3475,-4.1125 -3.29,-4.1125 -0.91,0 -1.8725,0.56 -2.38,1.4175 l 0,-4.095 c 0,-0.385 0.0175,-0.5075 0.1575,-0.6475 l 0,-0.1225 -1.435,0 0,11.6375 0.805,0 0.4375,-1.05 c 0.5425,0.77 1.3825,1.2425 2.3625,1.2425 z m -0.1575,-1.12 c -1.575,0 -2.17,-1.2075 -2.17,-3.045 0,-1.855 0.91,-3.1325 2.205,-3.1325 1.2775,0 2.17,0.98 2.17,3.0975 0,2.2925 -1.085,3.08 -2.205,3.08 z"
         style="font-size:17.5px"
         id="path4181"
         inkscape:connector-curvature="0" />
      <path
         d="m 87.906903,141.12612 c 1.12,0 2.1,-0.42 2.8875,-1.26 l -0.735,-0.8575 c -0.5775,0.6475 -1.2775,0.98 -2.0825,0.98 -1.61,0 -2.7825,-1.33 -2.7825,-3.1325 0,-1.8375 1.2075,-3.01 2.555,-3.01 0.77,0 1.33,0.175 1.8375,0.63 0.28,0.28 0.3325,0.4025 0.3325,0.595 l 0.0875,0.0875 0.1225,-0.1225 0.7875,-0.77 c -0.6475,-0.9275 -1.7325,-1.4875 -3.0275,-1.4875 -2.31,0 -3.99,1.7675 -3.99,4.165 0,2.415 1.68,4.1825 4.0075,4.1825 z"
         style="font-size:17.5px"
         id="path4183"
         inkscape:connector-curvature="0" />
      <path
         d="m 95.764403,141.10862 c 1.0325,0 1.8375,-0.56 2.345,-1.4175 0,0.42 0,0.8225 0.175,1.2425 l 1.2425,0 c -0.175,-0.42 -0.175,-0.8225 -0.175,-1.2425 l -0.0175,-9.625 c 0,-0.385 0.0175,-0.5075 0.1575,-0.6475 l 0,-0.1225 -1.33,0 0,4.8125 c -0.4025,-0.84 -1.225,-1.3825 -2.3275,-1.3825 -1.6275,0 -3.3775,1.2075 -3.3775,4.13 0,2.87 1.68,4.2525 3.3075,4.2525 z m 0.1925,-1.1025 c -1.4875,0 -2.275,-1.33 -2.275,-3.3425 0,-1.7675 0.7525,-2.905 2.17,-2.905 1.54,0 2.205,1.3475 2.205,3.1325 0,1.7325 -0.56,3.115 -2.1,3.115 z"
         style="font-size:17.5px"
         id="path4185"
         inkscape:connector-curvature="0" />
      <path
         d="m 105.1794,141.10862 c 1.19,0 2.1175,-0.4025 2.8,-1.225 l -0.7,-0.6825 c -0.5425,0.595 -1.2425,0.8925 -2.065,0.8925 -1.435,0 -2.6425,-0.91 -2.73,-2.975 l 5.6875,0 c 0.0175,-0.1925 0.035,-0.385 0.035,-0.5775 0,-2.6075 -1.435,-3.7975 -3.255,-3.7975 -2.03,0 -3.675,1.505 -3.675,4.2175 0,2.6775 1.5575,4.1475 3.9025,4.1475 z m -2.6425,-4.97 c 0.2275,-1.68 1.225,-2.4325 2.3275,-2.4325 1.2425,0 2.065,0.945 2.065,2.4325 l -4.3925,0 z"
         style="font-size:17.5px"
         id="path4187"
         inkscape:connector-curvature="0" />
      <path
         d="m 112.0044,140.93362 1.2075,0 0,-7 2.625,0 0,-0.9975 -2.625,0 0,-0.665 c 0,-1.5225 0.7525,-2.065 1.7675,-2.065 0.5775,0 0.91,0.1225 1.2775,0.455 0.2625,0.28 0.28,0.4375 0.315,0.63 l 0.105,0.07 0.105,-0.14 0.665,-0.9275 c -0.5775,-0.735 -1.505,-1.1025 -2.5025,-1.1025 -1.715,0 -2.94,0.945 -2.94,3.08 l 0,0.665 -1.7325,0 0,0.9975 1.7325,0 0,7 z"
         style="font-size:17.5px"
         id="path4189"
         inkscape:connector-curvature="0" />
      <path
         d="m 126.2319,133.75862 -0.1575,-1.0325 c -0.91,-0.07 -1.54,0.175 -2.1525,0.735 -0.4725,-0.5075 -1.1725,-0.8225 -2.0475,-0.8225 -1.7325,0 -2.8,1.2425 -2.8,2.7825 0,0.8575 0.315,1.61 0.8925,2.1175 -0.4375,0.4725 -0.7175,0.9625 -0.7175,1.47 0,0.4725 0.21,0.8225 0.5775,1.0675 -0.6825,0.315 -1.2425,0.9275 -1.2425,1.8025 0,1.3825 1.4175,2.065 3.6575,2.065 2.555,0 3.465,-1.1725 3.465,-2.415 0,-1.1725 -0.49,-2.03 -2.94,-2.03 -1.8725,0 -2.45,-0.2275 -2.45,-0.7875 0,-0.245 0.0875,-0.455 0.315,-0.735 0.3675,0.1575 0.7875,0.245 1.2425,0.245 1.7325,0 2.8,-1.2425 2.8,-2.8 0,-0.4725 -0.105,-0.9275 -0.2975,-1.3125 0.5425,-0.35 1.155,-0.42 1.855,-0.35 z m -4.3575,3.4125 c -1.015,0 -1.75,-0.7875 -1.75,-1.75 0,-0.9625 0.735,-1.75 1.75,-1.75 1.015,0 1.75,0.7875 1.75,1.75 0,0.9625 -0.735,1.75 -1.75,1.75 z m 2.6775,4.55 c 0,0.7525 -0.7,1.2775 -2.2925,1.2775 -1.575,0 -2.52,-0.455 -2.52,-1.26 0,-0.665 0.21,-0.9975 0.7525,-1.365 0.525,0.1575 1.2075,0.2275 2.0125,0.2275 1.7675,0 2.0475,0.35 2.0475,1.12 z"
         style="font-size:17.5px"
         id="path4191"
         inkscape:connector-curvature="0" />
      <path
         d="m 127.9469,140.93362 1.225,0 0,-4.6025 c 0,-1.5575 1.295,-2.485 2.3625,-2.485 0.8225,0 1.47,0.595 1.47,2.275 l 0,4.8125 1.225,0 0,-4.8475 c 0,-2.415 -0.9975,-3.3425 -2.4325,-3.3425 -0.98,0 -1.995,0.63 -2.625,1.61 l 0,-4.2875 c 0,-0.385 0.0175,-0.5075 0.1575,-0.6475 l 0,-0.1225 -1.3825,0 0,11.6375 z"
         style="font-size:17.5px"
         id="path4193"
         inkscape:connector-curvature="0" />
      <path
         d="m 139.7769,131.25612 c 0.49,0 0.91,-0.4025 0.91,-0.8925 0,-0.49 -0.42,-0.91 -0.91,-0.91 -0.5075,0 -0.8925,0.4025 -0.8925,0.91 0,0.49 0.4025,0.8925 0.8925,0.8925 z m -2.6075,9.6775 5.18,0 0,-1.015 -1.8725,0 0,-6.9825 -3.2025,0 0,1.015 1.9425,0 0,5.9675 -2.0475,0 0,1.015 z"
         style="font-size:17.5px"
         id="path4195"
         inkscape:connector-curvature="0" />
      <path
         d="m 149.8919,131.25612 c 0.49,0 0.91,-0.4025 0.91,-0.8925 0,-0.49 -0.42,-0.91 -0.91,-0.91 -0.5075,0 -0.8925,0.4025 -0.8925,0.91 0,0.49 0.4025,0.8925 0.8925,0.8925 z m -2.3275,12.7225 c 1.6625,0 3.0625,-0.9975 3.0625,-3.43 l 0,-7.6125 -4.2525,0 0,1.0325 2.975,0 0,6.65 c 0,1.61 -0.7525,2.275 -1.8025,2.275 -0.5425,0 -0.9625,-0.175 -1.295,-0.4375 -0.2625,-0.28 -0.2975,-0.42 -0.3325,-0.6125 l -0.105,-0.07 -0.105,0.14 -0.7,0.945 c 0.6125,0.7525 1.54,1.12 2.555,1.12 z"
         style="font-size:17.5px"
         id="path4197"
         inkscape:connector-curvature="0" />
      <path
         d="m 159.6744,141.00362 1.6275,-0.07 -3.92,-4.7775 3.36,-3.1675 -0.455,0 c -0.35,0 -0.665,-0.035 -0.9275,-0.0875 l -4.0075,3.71 0,-6.545 c 0,-0.385 0.0175,-0.5075 0.1575,-0.6475 l 0,-0.1225 -1.435,0 0,11.6375 1.2775,0 0,-3.0275 1.05,-0.98 3.2725,4.0775 z"
         style="font-size:17.5px"
         id="path4199"
         inkscape:connector-curvature="0" />
      <path
         d="m 163.0519,140.93362 5.985,0 0,-1.015 -2.345,0 0,-10.6225 -3.535,0 0,1.015 2.2575,0 0,9.6075 -2.3625,0 0,1.015 z"
         style="font-size:17.5px"
         id="path4201"
         inkscape:connector-curvature="0" />
      <path
         d="m 171.0844,140.93362 1.155,0 0,-5.3375 c 0,-1.19 0.6475,-1.89 1.155,-1.89 0.665,0 0.875,0.3325 0.875,1.6625 l 0,5.565 1.1725,0 0,-5.285 c 0,-0.91 0.6125,-1.9775 1.2775,-1.9775 0.42,0 0.7525,0.14 0.7525,1.5925 l 0,5.67 1.155,0 0,-6.1425 c 0.0525,-1.1725 -0.455,-2.0475 -1.54,-2.0475 -0.7875,0 -1.505,0.4725 -1.8025,1.1725 -0.14,-0.6825 -0.7175,-1.1725 -1.4175,-1.1725 -0.63,0 -1.26,0.4025 -1.6275,0.98 l 0,-0.7875 -1.155,0 0,7.9975 z"
         style="font-size:17.5px"
         id="path4203"
         inkscape:connector-curvature="0" />
      <path
         d="m 180.4294,140.93362 1.225,0 0,-4.6025 c 0,-1.5225 1.295,-2.485 2.3625,-2.485 0.8225,0 1.47,0.595 1.47,2.275 l 0,4.8125 1.225,0 0,-4.8475 c 0,-2.415 -1.0325,-3.3425 -2.345,-3.3425 -1.085,0 -2.1,0.63 -2.7125,1.61 l 0,-1.4175 -1.225,0 0,7.9975 z"
         style="font-size:17.5px"
         id="path4205"
         inkscape:connector-curvature="0" />
      <path
         d="m 192.2944,141.07362 c 2.17,0 3.6925,-1.715 3.6925,-4.1475 0,-2.4325 -1.5225,-4.165 -3.6925,-4.165 -2.17,0 -3.6925,1.7325 -3.6925,4.165 0,2.4325 1.5225,4.1475 3.6925,4.1475 z m 0,-1.05 c -1.3825,0 -2.3625,-1.295 -2.3625,-3.115 0,-1.82 0.98,-3.0975 2.3625,-3.0975 1.3825,0 2.3625,1.2775 2.3625,3.0975 0,1.82 -0.98,3.115 -2.3625,3.115 z"
         style="font-size:17.5px"
         id="path4207"
         inkscape:connector-curvature="0" />
      <path
         d="m 197.7194,143.85612 1.295,0 0,-3.9725 c 0.5425,0.7875 1.4175,1.26 2.38,1.26 1.6975,0 3.3775,-1.4525 3.3775,-4.27 0,-2.7825 -1.575,-4.1125 -3.3425,-4.1125 -1.12,0 -2.065,0.5425 -2.4325,1.75 l 0,-1.575 -1.2775,0 0,10.92 z m 3.465,-3.8325 c -1.295,0 -2.135,-0.9275 -2.1875,-2.8175 0,-2.485 1.085,-3.43 2.38,-3.36 1.33,0.07 2.0825,1.1725 2.0825,3.08 0,2.3975 -1.155,3.0975 -2.275,3.0975 z"
         style="font-size:17.5px"
         id="path4209"
         inkscape:connector-curvature="0" />
      <path
         d="m 211.8944,143.85612 1.26,0 0,-10.92 -1.19,0 0,1.1725 c -0.4025,-0.8575 -1.1725,-1.3825 -2.2925,-1.3825 -1.9075,0 -3.5175,1.54 -3.5175,4.1825 0,2.5025 1.4525,4.2 3.29,4.2 1.05,0 1.96,-0.56 2.45,-1.4525 l 0,4.2 z m -2.2225,-3.85 c -1.365,0 -2.24,-1.2075 -2.24,-3.15 0,-2.135 1.05,-3.0975 2.38,-3.0975 1.19,0 2.0475,0.77 2.0475,2.9575 0,2.345 -0.98,3.29 -2.1875,3.29 z"
         style="font-size:17.5px"
         id="path4211"
         inkscape:connector-curvature="0" />
      <path
         d="m 220.0669,132.74362 c -1.0675,0 -2.0825,0.595 -2.5375,1.6625 l 0.035,-1.47 -1.3125,0 0,8.015 1.2775,0 0,-4.2525 c 0,-2.0125 1.2775,-2.87 2.45,-2.87 0.385,0 0.6825,0.07 1.05,0.2975 0.2975,0.245 0.35,0.385 0.4025,0.56 l 0.1225,0.07 0.07,-0.1575 0.56,-0.98 c -0.56,-0.5775 -1.2775,-0.875 -2.1175,-0.875 z"
         style="font-size:17.5px"
         id="path4213"
         inkscape:connector-curvature="0" />
      <path
         d="m 227.3119,141.10862 c 2.24,0 3.3075,-1.155 3.3075,-2.5025 0,-1.1375 -0.7525,-1.7675 -2.7475,-2.38 -1.82,-0.525 -2.2575,-0.9975 -2.2575,-1.54 0,-0.665 0.77,-0.9975 1.715,-0.9975 0.63,0 1.3475,0.2275 1.89,0.6475 0.2625,0.2625 0.315,0.4025 0.3325,0.595 l 0.0875,0.0875 0.1225,-0.14 0.7175,-0.875 c -0.7875,-0.84 -1.6975,-1.26 -3.185,-1.26 -1.9425,0 -2.94,0.805 -2.94,2.0125 0,1.19 1.1725,1.96 3.01,2.485 1.4875,0.49 2.0125,0.8575 2.0125,1.54 0,0.7875 -0.7525,1.2775 -2.03,1.2775 -1.085,0 -1.715,-0.35 -2.205,-0.84 -0.2625,-0.28 -0.28,-0.455 -0.315,-0.6475 l -0.105,-0.07 -0.105,0.1575 -0.7,1.19 c 0.91,0.84 2.065,1.26 3.395,1.26 z"
         style="font-size:17.5px"
         id="path4215"
         inkscape:connector-curvature="0" />
      <path
         d="m 239.0544,139.20112 c -0.6475,0.4725 -1.19,0.805 -1.96,0.805 -0.9975,0 -1.4875,-0.5425 -1.33,-3.325 l 0.1575,-2.7125 2.73,0 0,-1.0325 -2.66,0 0.1925,-1.5925 c 0.035,-0.385 0.14,-0.5075 0.2625,-0.6825 l -0.0175,-0.105 -0.175,0.0175 -1.4,0.2275 -0.1225,2.135 -1.8375,0 0,1.0325 1.7675,0 -0.1575,2.625 c -0.175,3.08 0.3325,4.4625 2.3975,4.4625 0.91,0 1.7325,-0.2625 2.5375,-0.8575 l -0.385,-0.9975 z"
         style="font-size:17.5px"
         id="path4217"
         inkscape:connector-curvature="0" />
      <path
         d="m 244.2869,141.12612 c 1.05,0 1.9775,-0.525 2.485,-1.4175 0,0.4025 0,0.8225 0.175,1.225 l 1.2075,0 c -0.175,-0.42 -0.175,-0.8225 -0.175,-1.2425 l 0,-6.755 -1.225,0 0,4.41 c 0,1.9075 -1.0325,2.765 -2.1525,2.765 -0.9975,0 -1.82,-0.6825 -1.82,-2.7125 l 0,-4.4625 -1.225,0 -0.0175,4.4625 c -0.0175,2.59 1.155,3.7275 2.7475,3.7275 z"
         style="font-size:17.5px"
         id="path4219"
         inkscape:connector-curvature="0" />
      <path
         d="m 255.9419,132.93612 c -0.1575,0.9275 -0.49,2.03 -1.05,3.3075 l -1.295,2.9575 -2.4675,-6.265 -1.26,0 3.1675,7.9975 0.98,0 1.9425,-4.4975 c 0.5775,-1.3475 0.98,-2.52 1.1725,-3.5 l -1.19,0 z"
         style="font-size:17.5px"
         id="path4221"
         inkscape:connector-curvature="0" />
      <path
         d="m 259.8094,140.95112 1.1375,0 1.4,-5.18 1.47,5.18 1.19,0 c 0.5425,-2.66 0.98,-5.3025 1.33,-8.015 l -1.1725,0 0,0.2625 c 0,1.155 -0.1225,2.0125 -0.735,6.1425 l -1.6975,-5.6525 -0.77,0 -1.365,5.67 -1.295,-6.4225 -1.1025,0 1.61,8.015 z"
         style="font-size:17.5px"
         id="path4223"
         inkscape:connector-curvature="0" />
      <path
         d="m 267.4919,140.93362 1.435,0 2.0825,-3.115 2.205,3.115 1.435,0 -2.94,-4.1125 2.59,-3.885 -1.295,0 -1.995,2.9575 -2.0825,-2.9575 -1.3825,0 2.765,3.9375 -2.8175,4.06 z"
         style="font-size:17.5px"
         id="path4225"
         inkscape:connector-curvature="0" />
      <path
         d="m 281.9119,132.93612 c -0.1225,1.0675 -0.49,2.1175 -0.84,3.185 l -1.05,3.22 -2.485,-6.405 -1.3125,0 3.2725,8.05 c -0.455,1.33 -0.875,1.96 -1.785,1.96 -0.2625,0 -0.49,-0.035 -0.7,-0.105 -0.3325,-0.21 -0.42,-0.2975 -0.455,-0.49 l -0.105,-0.07 -0.105,0.1575 -0.5425,0.8575 c 0.4725,0.455 1.085,0.6825 1.8375,0.6825 1.1375,0 2.03,-0.5775 2.59,-2.135 l 1.995,-5.635 c 0.385,-1.085 0.7875,-2.1875 0.945,-3.2725 l -1.26,0 z"
         style="font-size:17.5px"
         id="path4227"
         inkscape:connector-curvature="0" />
      <path
         d="m 285.0444,140.93362 7,0 0,-1.26 -0.1225,0 c -0.14,0.14 -0.2625,0.175 -0.6475,0.175 l -4.515,0 4.865,-6.055 0,-0.8575 -6.2125,0 0,1.1025 4.585,0 -4.9525,6.0375 0,0.8575 z"
         style="font-size:17.5px"
         id="path4229"
         inkscape:connector-curvature="0" />
      <path
         d="m 72.629403,162.80862 1.26,0 -4.025,-11.095 -0.14,0 -4.025,11.095 1.2075,0 1.1025,-3.185 3.5175,0 1.1025,3.185 z m -4.2875,-4.13 1.435,-4.165 1.435,4.165 -2.87,0 z"
         style="font-size:17.5px"
         id="path4231"
         inkscape:connector-curvature="0" />
      <path
         d="m 75.009403,162.80862 3.08,0 c 2.8175,0 4.0775,-1.225 4.0775,-3.0625 0,-1.2075 -0.8225,-2.3625 -2.0475,-2.7825 1.0325,-0.3675 1.61,-1.3825 1.61,-2.415 0,-1.5575 -1.1025,-2.6425 -3.6225,-2.6425 l -3.0975,0 0,10.9025 z m 1.2075,-6.3875 0,-3.4825 1.9075,0 c 1.715,0 2.38,0.7875 2.38,1.75 0,0.9975 -0.6475,1.7325 -2.5725,1.7325 l -1.715,0 z m 0,5.32 0,-4.2875 1.785,0 c 2.1175,0 2.87,0.9275 2.87,2.2225 0,1.5225 -1.05,2.065 -2.5725,2.065 l -2.0825,0 z"
         style="font-size:17.5px"
         id="path4233"
         inkscape:connector-curvature="0" />
      <path
         d="m 87.906903,162.98362 c 1.4175,0 2.3625,-0.6125 3.0625,-1.785 l -0.91,-0.595 c -0.49,0.8225 -1.33,1.33 -2.205,1.33 -1.68,0 -3.0275,-1.855 -3.0275,-4.6025 0,-2.8525 1.1375,-4.5325 2.975,-4.5325 0.665,0 1.295,0.21 1.8725,0.9975 0.1925,0.3325 0.2625,0.4375 0.1925,0.6125 l 0.0525,0.1225 0.1575,-0.07 1.05,-0.49 c -0.56,-1.295 -1.715,-2.1525 -3.29,-2.1525 -1.96,0 -4.2,1.3125 -4.2,5.6 0.0175,3.8675 1.9075,5.565 4.27,5.565 z"
         style="font-size:17.5px"
         id="path4235"
         inkscape:connector-curvature="0" />
      <path
         d="m 92.614403,162.82612 2.3275,0 c 3.395,0.0175 4.6375,-2.065 4.7775,-5.4075 0,-1.6975 -0.35,-3.0625 -1.0675,-4.025 -0.7175,-0.9625 -1.6275,-1.4875 -3.5,-1.4875 l -2.5375,0 0,10.92 z m 1.155,-0.9625 0,-8.925 1.3125,0 c 2.45,0 3.395,1.6975 3.4125,4.55 0,2.8175 -1.1025,4.375 -3.605,4.375 l -1.12,0 z"
         style="font-size:17.5px"
         id="path4237"
         inkscape:connector-curvature="0" />
      <path
         d="m 101.4519,162.80862 6.6325,0 0,-1.085 -5.4775,0 0,-4.0425 4.5675,0 0,-1.12 -4.5675,0 0,-3.5875 5.53,0 0,-1.085 -6.685,0 0,10.92 z"
         style="font-size:17.5px"
         id="path4239"
         inkscape:connector-curvature="0" />
      <path
         d="m 110.5344,162.80862 1.225,0 0,-5.355 4.0775,0 0,-1.0675 -4.0775,0 0,-3.43 5.0575,0 0,-1.0675 -6.2825,0 0,10.92 z"
         style="font-size:17.5px"
         id="path4241"
         inkscape:connector-curvature="0" />
      <path
         d="m 122.7669,162.98362 c 1.1025,0 2.17,-0.385 3.2025,-1.1375 l 0,-4.27 -3.115,0 0,1.0675 1.9775,0 0,2.59 c -0.56,0.4725 -1.435,0.665 -2.065,0.665 -1.855,0 -3.01,-1.645 -3.01,-4.6725 0,-3.3425 1.365,-4.3575 2.94,-4.3575 0.805,0 1.33,0.2625 1.8725,0.8575 0.245,0.2975 0.315,0.4025 0.2975,0.595 l 0.07,0.105 0.14,-0.1225 0.8575,-0.6825 c -0.6125,-1.1025 -1.925,-1.82 -3.22,-1.8375 -1.5925,-0.0175 -4.2175,0.9975 -4.165,5.705 0,3.3075 1.61,5.495 4.2175,5.495 z"
         style="font-size:17.5px"
         id="path4243"
         inkscape:connector-curvature="0" />
      <path
         d="m 127.5444,162.80862 1.2775,0 0,-5.1975 4.2525,0 0,5.1975 1.295,0 0,-10.1325 c 0,-0.385 0.0175,-0.5075 0.1575,-0.6475 l 0,-0.1225 -1.435,0 0,4.655 -4.27,0 0,-3.885 c 0,-0.385 0.0175,-0.5075 0.1575,-0.6475 l 0,-0.1225 -1.435,0 0,10.9025 z"
         style="font-size:17.5px"
         id="path4245"
         inkscape:connector-curvature="0" />
      <path
         d="m 136.8369,162.80862 5.635,0 0,-1.015 -2.2575,0 0,-8.855 2.1525,0 0,-1.0325 -5.4075,0 0,1.0325 2.03,0 0,8.8375 -2.1525,0 0,1.0325 z"
         style="font-size:17.5px"
         id="path4247"
         inkscape:connector-curvature="0" />
      <path
         d="m 147.5994,163.00112 c 1.5225,0.0175 2.975,-1.05 2.8875,-3.85 l 0,-6.2125 1.68,0 0,-1.0325 -4.9875,0 0,1.0325 2.1,0 0,6.23 c 0,2.03 -0.5075,2.7475 -1.68,2.7475 -0.5075,0 -0.8925,-0.1575 -1.295,-0.4725 -0.2975,-0.2625 -0.35,-0.385 -0.3675,-0.595 l -0.0875,-0.07 -0.1225,0.14 -0.7,0.875 c 0.6825,0.805 1.54,1.2075 2.5725,1.2075 z"
         style="font-size:17.5px"
         id="path4249"
         inkscape:connector-curvature="0" />
      <path
         d="m 159.5869,162.87862 1.575,-0.07 -4.41,-6.195 4.13,-4.7075 -0.455,0 c -0.35,0 -0.6475,-0.035 -0.91,-0.0875 l -4.55,5.11 0,-4.2525 c 0,-0.385 0.0175,-0.5075 0.1575,-0.6475 l 0,-0.1225 -1.47,0 0,10.9025 1.3125,0 0,-4.515 0.8575,-0.945 3.7625,5.53 z"
         style="font-size:17.5px"
         id="path4251"
         inkscape:connector-curvature="0" />
      <path
         d="m 162.8244,162.80862 6.5275,0 0,-1.05 -5.25,0 0,-9.0825 c 0,-0.385 0.0175,-0.5075 0.1575,-0.6475 l 0,-0.1225 -1.435,0 0,10.9025 z"
         style="font-size:17.5px"
         id="path4253"
         inkscape:connector-curvature="0" />
      <path
         d="m 171.1369,162.80862 1.1375,0 0,-8.1725 2.205,4.34 0.4725,0 2.3625,-4.3925 0,8.225 1.155,0 0,-10.92 -0.9275,0 -2.7475,5.355 -2.695,-5.3375 -0.9625,0 0,10.9025 z"
         style="font-size:17.5px"
         id="path4255"
         inkscape:connector-curvature="0" />
      <path
         d="m 180.0444,162.80862 1.1725,0 0,-8.575 4.8125,8.575 0.9625,0 0,-10.1325 c 0,-0.385 0.0175,-0.5075 0.1575,-0.6475 l 0,-0.1225 -1.33,0 0,8.085 -4.585,-8.085 -1.19,0 0,10.9025 z"
         style="font-size:17.5px"
         id="path4257"
         inkscape:connector-curvature="0" />
      <path
         d="m 192.2944,163.00112 c 2.5025,0 3.9025,-2.0125 3.9025,-5.5825 0,-3.4475 -1.4,-5.5825 -3.9025,-5.5825 -2.5025,0 -3.9025,2.135 -3.9025,5.5825 0,3.57 1.4,5.5825 3.9025,5.5825 z m 0,-1.0675 c -1.6625,0 -2.6425,-1.61 -2.6425,-4.515 0,-2.7475 0.98,-4.515 2.6425,-4.515 1.6625,0 2.6425,1.7675 2.6425,4.515 0,2.905 -0.98,4.515 -2.6425,4.515 z"
         style="font-size:17.5px"
         id="path4259"
         inkscape:connector-curvature="0" />
      <path
         d="m 197.7019,162.80862 1.26,0 0,-4.8125 2.3275,0 c 2.3625,0 3.36,-1.33 3.36,-3.01 0,-1.6975 -1.015,-3.08 -3.4475,-3.08 l -3.5,0 0,10.9025 z m 1.26,-5.8975 0,-3.85 2.205,0 c 1.5575,0 2.2225,0.8925 2.2225,1.96 0,1.1375 -0.6475,1.89 -2.24,1.89 l -2.1875,0 z"
         style="font-size:17.5px"
         id="path4261"
         inkscape:connector-curvature="0" />
      <path
         d="m 212.4369,165.34612 0.6825,0 0.035,-1.19 -1.4175,0.0875 c -0.98,0 -1.2425,-0.5425 -1.295,-1.3125 2.1175,-0.4725 3.22,-2.345 3.22,-5.565 0.0875,-3.9375 -1.8725,-5.5825 -3.85,-5.5825 -1.6275,0 -3.885,1.2775 -3.885,5.635 0,3.5175 1.6975,5.285 3.4475,5.5125 0,1.8025 0.77,2.52 3.0625,2.415 z m -2.5375,-3.5 c -1.75,0 -2.7825,-1.925 -2.7825,-4.69 0,-2.2225 0.8575,-4.305 2.695,-4.305 1.1025,0 2.6775,0.91 2.6775,4.8125 0,3.08 -1.4,4.1825 -2.59,4.1825 z"
         style="font-size:17.5px"
         id="path4263"
         inkscape:connector-curvature="0" />
      <path
         d="m 215.1494,162.80862 1.2425,0 0,-4.8125 2.1175,0 2.415,4.8125 1.365,0 -2.52,-4.865 c 1.3475,-0.3325 2.2225,-1.68 2.2225,-2.9225 0,-1.8725 -1.05,-3.115 -3.6225,-3.115 l -3.22,0 0,10.9025 z m 1.2425,-5.8975 0,-3.85 2.1175,0 c 1.5575,0 2.2225,0.875 2.2225,1.96 0,1.1375 -0.665,1.89 -2.2225,1.89 l -2.1175,0 z"
         style="font-size:17.5px"
         id="path4265"
         inkscape:connector-curvature="0" />
      <path
         d="m 227.2419,162.98362 c 2.555,0 3.64,-1.645 3.64,-3.15 0,-1.3475 -0.6125,-2.17 -2.7475,-3.045 -2.205,-0.875 -2.695,-1.435 -2.695,-2.415 0,-0.8575 0.7175,-1.5925 1.8725,-1.5925 0.8575,0 1.4525,0.175 2.0125,0.7 0.2625,0.28 0.28,0.4375 0.315,0.63 l 0.105,0.07 0.7875,-1.05 c -0.7525,-0.8575 -1.8375,-1.365 -3.0275,-1.365 -2.065,0 -3.325,1.085 -3.325,2.695 0,1.2425 0.7175,2.3625 2.9925,3.2375 2.0475,0.8925 2.5025,1.3125 2.5025,2.31 0,1.0325 -0.9625,1.8725 -2.2575,1.8725 -1.0325,0 -1.8375,-0.3325 -2.4325,-0.84 -0.2625,-0.28 -0.28,-0.455 -0.3325,-0.63 l -0.1225,-0.07 -0.07,0.1575 -0.63,1.1025 c 0.8575,0.91 1.995,1.3825 3.4125,1.3825 z"
         style="font-size:17.5px"
         id="path4267"
         inkscape:connector-curvature="0" />
      <path
         d="m 235.3094,162.80862 1.2425,0 0,-9.8175 3.22,0 0,-1.1025 -7.56,0 0,1.1025 3.0975,0 0,9.8175 z"
         style="font-size:17.5px"
         id="path4269"
         inkscape:connector-curvature="0" />
      <path
         d="m 244.8119,163.00112 c 2.1525,0 3.5525,-1.2425 3.5525,-4.0075 l 0,-7.0875 -1.1725,0 0,7.105 c 0,1.8375 -0.6125,2.9575 -2.3625,2.9575 -1.7325,0 -2.3275,-1.1375 -2.3275,-2.905 l 0,-6.3875 c 0,-0.385 0.0175,-0.5075 0.1575,-0.6475 l 0,-0.1225 -1.365,0 0,7.14 c 0,2.5025 1.19,3.955 3.5175,3.955 z"
         style="font-size:17.5px"
         id="path4271"
         inkscape:connector-curvature="0" />
      <path
         d="m 253.3169,162.87862 0.56,0 3.6575,-10.9725 -1.2075,0 -2.6425,8.365 -2.8,-8.3825 -1.2775,0 3.71,10.99 z"
         style="font-size:17.5px"
         id="path4273"
         inkscape:connector-curvature="0" />
      <path
         d="m 259.9669,162.80862 0.5075,0 1.9075,-7.1225 1.8725,7.1225 0.4725,0 1.7325,-10.9025 -1.0325,0 -0.9975,7.4025 -1.7675,-6.5975 -0.385,0 -1.75,6.5625 -1.1725,-7.3675 -1.1375,0 1.75,10.9025 z"
         style="font-size:17.5px"
         id="path4275"
         inkscape:connector-curvature="0" />
      <path
         d="m 267.3869,162.80862 1.33,0 2.345,-4.3225 2.415,4.3225 1.3825,0 -3.0975,-5.5825 2.765,-5.3375 -1.225,0 -2.2575,4.1475 -2.2925,-4.1475 -1.3125,0 2.9225,5.355 -2.975,5.565 z"
         style="font-size:17.5px"
         id="path4277"
         inkscape:connector-curvature="0" />
      <path
         d="m 279.2694,162.80862 1.33,0 0,-4.305 3.0975,-6.5975 -1.295,0 -2.415,5.285 -2.6775,-5.285 -1.4,0 3.36,6.5975 0,4.305 z"
         style="font-size:17.5px"
         id="path4279"
         inkscape:connector-curvature="0" />
      <path
         d="m 285.0444,162.80862 7.2275,0 0,-1.26 -0.1225,0 c -0.14,0.14 -0.2625,0.175 -0.6475,0.175 l -4.9175,0 5.4075,-8.96 0,-0.8575 -6.7375,0 0,1.1025 5.285,0 -5.495,8.9425 0,0.8575 z"
         style="font-size:17.5px"
         id="path4281"
         inkscape:connector-curvature="0" />
      <path
         d="m 69.794403,184.82362 c 2.17,0 3.6925,-1.715 3.6925,-4.1475 0,-2.4325 -1.5225,-4.165 -3.6925,-4.165 -2.17,0 -3.6925,1.7325 -3.6925,4.165 0,2.4325 1.5225,4.1475 3.6925,4.1475 z m 0,-1.05 c -1.3825,0 -2.3625,-1.295 -2.3625,-3.115 0,-1.82 0.98,-3.0975 2.3625,-3.0975 1.3825,0 2.3625,1.2775 2.3625,3.0975 0,1.82 -0.98,3.115 -2.3625,3.115 z"
         style="font-size:17.5px"
         id="path4283"
         inkscape:connector-curvature="0" />
      <path
         d="m 78.544403,184.87612 c 2.5025,0 3.9025,-2.0125 3.9025,-5.5825 0,-3.4475 -1.4,-5.5825 -3.9025,-5.5825 -2.5025,0 -3.9025,2.135 -3.9025,5.5825 0,3.57 1.4,5.5825 3.9025,5.5825 z m 0,-1.0675 c -1.6625,0 -2.6425,-1.61 -2.6425,-4.515 0,-2.7475 0.98,-4.515 2.6425,-4.515 1.6625,0 2.6425,1.7675 2.6425,4.515 0,2.905 -0.98,4.515 -2.6425,4.515 z"
         style="font-size:17.5px"
         id="path4285"
         inkscape:connector-curvature="0" />
      <path
         d="m 87.294403,173.71112 c -2.17,0 -3.3775,2.135 -3.3775,5.5825 0,3.57 1.2075,5.5825 3.3775,5.5825 2.17,0 3.3775,-2.0125 3.3775,-5.5825 0,-3.4475 -1.2075,-5.5825 -3.3775,-5.5825 z m 0,1.0675 c 0.805,0 1.4,0.63 1.75,1.7325 l -3.71,4.795 c -0.105,-0.5775 -0.1575,-1.2425 -0.1575,-2.0125 0,-2.7475 0.7875,-4.515 2.1175,-4.515 z m 0,9.03 c -0.77,0 -1.3475,-0.525 -1.715,-1.54 l 3.71,-4.725 c 0.0875,0.525 0.1225,1.1025 0.1225,1.75 0,2.905 -0.7875,4.515 -2.1175,4.515 z"
         style="font-size:17.5px"
         id="path4287"
         inkscape:connector-curvature="0" />
      <path
         d="m 96.044403,184.85862 c 2.0475,0 3.3425,-1.295 3.3425,-2.9925 0,-1.26 -0.84,-2.4325 -2.1,-3.01 1.05,-0.56 1.7325,-1.575 1.7325,-2.625 0,-1.4175 -0.875,-2.59 -2.8875,-2.59 -1.925,0 -2.8875,1.2075 -2.8875,2.695 0,1.05 0.665,2.0475 1.6625,2.555 -1.33,0.6125 -2.1875,1.785 -2.1875,3.045 0,1.6275 1.26,2.9225 3.325,2.9225 z m 0.2975,-6.44 c -1.085,-0.5775 -1.925,-1.12 -1.925,-2.205 0,-0.7875 0.525,-1.54 1.68,-1.54 1.155,0 1.7325,0.77 1.7325,1.5925 0,0.8225 -0.63,1.68 -1.4875,2.1525 z m -0.2625,5.3375 c -1.33,0 -2.1,-0.8925 -2.1,-1.9425 0,-1.05 0.7875,-1.995 1.8375,-2.4325 1.4175,0.4375 2.3275,1.4175 2.3275,2.485 0,1.05 -0.7175,1.89 -2.065,1.89 z"
         style="font-size:17.5px"
         id="path4289"
         inkscape:connector-curvature="0" />
      <path
         d="m 113.5269,175.00612 c 0.49,0 0.91,-0.4025 0.91,-0.8925 0,-0.49 -0.42,-0.91 -0.91,-0.91 -0.5075,0 -0.8925,0.4025 -0.8925,0.91 0,0.49 0.4025,0.8925 0.8925,0.8925 z m -2.6075,9.6775 5.18,0 0,-1.015 -1.8725,0 0,-6.9825 -3.2025,0 0,1.015 1.9425,0 0,5.9675 -2.0475,0 0,1.015 z"
         style="font-size:17.5px"
         id="path4291"
         inkscape:connector-curvature="0" />
      <path
         d="m 119.3369,184.68362 5.635,0 0,-1.015 -2.2575,0 0,-8.855 2.1525,0 0,-1.0325 -5.4075,0 0,1.0325 2.03,0 0,8.8375 -2.1525,0 0,1.0325 z"
         style="font-size:17.5px"
         id="path4293"
         inkscape:connector-curvature="0" />
      <path
         d="m 128.0519,184.68362 5.985,0 0,-1.015 -2.345,0 0,-10.6225 -3.535,0 0,1.015 2.2575,0 0,9.6075 -2.3625,0 0,1.015 z"
         style="font-size:17.5px"
         id="path4295"
         inkscape:connector-curvature="0" />
      <path
         d="m 136.5744,184.68362 6.5275,0 0,-1.05 -5.25,0 0,-9.0825 c 0,-0.385 0.0175,-0.5075 0.1575,-0.6475 l 0,-0.1225 -1.435,0 0,10.9025 z"
         style="font-size:17.5px"
         id="path4297"
         inkscape:connector-curvature="0" />
      <path
         d="m 148.1944,184.68362 1.225,0 0,-10.92 -0.8575,0 -2.8525,1.4875 0.28,0.6825 2.205,-0.6475 0,9.3975 z"
         style="font-size:17.5px"
         id="path4299"
         inkscape:connector-curvature="0" />
      <path
         d="m 168.1619,186.34612 0.63,0 0,-0.98 -0.8925,0 c -1.5575,0 -2.205,-0.5075 -2.205,-2.1 l 0.0525,-1.47 c 0,-1.4875 -0.49,-2.38 -1.4875,-2.7125 1.015,-0.4375 1.5225,-1.295 1.5225,-2.59 l -0.035,-1.225 c 0,-1.2425 0.5425,-1.855 1.6275,-1.855 l 1.435,0 0,-0.9975 -1.1025,0 c -2.1175,0 -3.185,1.015 -3.185,3.045 l 0.035,1.26 c 0,1.33 -0.56,1.8725 -1.6275,1.8725 l -0.3325,0 0,0.98 0.35,0 c 0.9975,0 1.575,0.42 1.575,1.96 l -0.07,1.75 c -0.105,2.45 1.19,3.0625 3.71,3.0625 z"
         style="font-size:17.5px"
         id="path4301"
         inkscape:connector-curvature="0" />
      <path
         d="m 172.0119,186.34612 c 2.52,0 3.815,-0.6125 3.71,-3.0625 l -0.07,-1.75 c 0,-1.54 0.5775,-1.96 1.575,-1.96 l 0.35,0 0,-0.98 -0.3325,0 c -1.0675,0 -1.6275,-0.5425 -1.6275,-1.8725 l 0.035,-1.26 c 0,-2.03 -1.0675,-3.045 -3.185,-3.045 l -1.1025,0 0,0.9975 1.435,0 c 1.085,0 1.6275,0.6125 1.6275,1.855 l -0.035,1.225 c 0,1.295 0.5075,2.1525 1.5225,2.59 -0.9975,0.3325 -1.4875,1.225 -1.4875,2.7125 l 0.0525,1.47 c 0,1.5925 -0.6475,2.1 -2.205,2.1 l -0.8925,0 0,0.98 0.63,0 z"
         style="font-size:17.5px"
         id="path4303"
         inkscape:connector-curvature="0" />
      <path
         d="m 190.2119,186.24112 5.0225,0 0,-0.9975 -3.9025,0 0,-11.235 3.885,0 0,-1.05 -5.005,0 0,13.2825 z"
         style="font-size:17.5px"
         id="path4305"
         inkscape:connector-curvature="0" />
      <path
         d="m 203.9844,186.24112 0,-13.2825 -5.005,0 0,1.05 3.885,0 0,11.235 -3.9025,0 0,0.9975 5.0225,0 z"
         style="font-size:17.5px"
         id="path4307"
         inkscape:connector-curvature="0" />
      <path
         d="m 222.4819,177.50862 -0.1575,-1.0325 c -0.91,-0.07 -1.54,0.175 -2.1525,0.735 -0.4725,-0.5075 -1.1725,-0.8225 -2.0475,-0.8225 -1.7325,0 -2.8,1.2425 -2.8,2.7825 0,0.8575 0.315,1.61 0.8925,2.1175 -0.4375,0.4725 -0.7175,0.9625 -0.7175,1.47 0,0.4725 0.21,0.8225 0.5775,1.0675 -0.6825,0.315 -1.2425,0.9275 -1.2425,1.8025 0,1.3825 1.4175,2.065 3.6575,2.065 2.555,0 3.465,-1.1725 3.465,-2.415 0,-1.1725 -0.49,-2.03 -2.94,-2.03 -1.8725,0 -2.45,-0.2275 -2.45,-0.7875 0,-0.245 0.0875,-0.455 0.315,-0.735 0.3675,0.1575 0.7875,0.245 1.2425,0.245 1.7325,0 2.8,-1.2425 2.8,-2.8 0,-0.4725 -0.105,-0.9275 -0.2975,-1.3125 0.5425,-0.35 1.155,-0.42 1.855,-0.35 z m -4.3575,3.4125 c -1.015,0 -1.75,-0.7875 -1.75,-1.75 0,-0.9625 0.735,-1.75 1.75,-1.75 1.015,0 1.75,0.7875 1.75,1.75 0,0.9625 -0.735,1.75 -1.75,1.75 z m 2.6775,4.55 c 0,0.7525 -0.7,1.2775 -2.2925,1.2775 -1.575,0 -2.52,-0.455 -2.52,-1.26 0,-0.665 0.21,-0.9975 0.7525,-1.365 0.525,0.1575 1.2075,0.2275 2.0125,0.2275 1.7675,0 2.0475,0.35 2.0475,1.12 z"
         style="font-size:17.5px"
         id="path4309"
         inkscape:connector-curvature="0" />
      <path
         d="m 227.2419,173.71112 c -1.7325,0 -3.1325,1.505 -3.1325,3.5525 0,1.9425 1.365,3.29 3.1675,3.29 0.9275,0 1.575,-0.2975 2.135,-0.7875 -0.14,2.1 -0.9275,4.0425 -2.6075,4.0425 -0.49,0 -0.84,-0.0875 -1.1725,-0.2975 -0.28,-0.2625 -0.35,-0.3675 -0.3675,-0.56 l -0.0875,-0.0875 -0.875,0.9975 c 0.6825,0.665 1.54,0.9975 2.6075,0.9975 2.31,-0.0525 3.6925,-2.135 3.6925,-6.5275 0,-2.695 -1.3125,-4.62 -3.36,-4.62 z m 0.0525,5.775 c -1.085,0 -1.995,-0.8575 -1.995,-2.24 0,-1.54 0.805,-2.4675 1.995,-2.4675 1.3825,0 2.0475,1.2425 2.135,3.7975 -0.5425,0.6475 -1.155,0.91 -2.135,0.91 z"
         style="font-size:17.5px"
         id="path4311"
         inkscape:connector-curvature="0" />
      <path
         d="m 238.1444,187.60612 1.26,0 0,-10.92 -1.19,0 0,1.1725 c -0.4025,-0.8575 -1.1725,-1.3825 -2.2925,-1.3825 -1.9075,0 -3.5175,1.54 -3.5175,4.1825 0,2.5025 1.4525,4.2 3.29,4.2 1.05,0 1.96,-0.56 2.45,-1.4525 l 0,4.2 z m -2.2225,-3.85 c -1.365,0 -2.24,-1.2075 -2.24,-3.15 0,-2.135 1.05,-3.0975 2.38,-3.0975 1.19,0 2.0475,0.77 2.0475,2.9575 0,2.345 -0.98,3.29 -2.1875,3.29 z"
         style="font-size:17.5px"
         id="path4313"
         inkscape:connector-curvature="0" />
      <path
         d="m 245.4069,184.85862 c 1.4175,0 2.3625,-0.6125 3.0625,-1.785 l -0.91,-0.595 c -0.49,0.8225 -1.33,1.33 -2.205,1.33 -1.68,0 -3.0275,-1.855 -3.0275,-4.6025 0,-2.8525 1.1375,-4.5325 2.975,-4.5325 0.665,0 1.295,0.21 1.8725,0.9975 0.1925,0.3325 0.2625,0.4375 0.1925,0.6125 l 0.0525,0.1225 0.1575,-0.07 1.05,-0.49 c -0.56,-1.295 -1.715,-2.1525 -3.29,-2.1525 -1.96,0 -4.2,1.3125 -4.2,5.6 0.0175,3.8675 1.9075,5.565 4.27,5.565 z"
         style="font-size:17.5px"
         id="path4315"
         inkscape:connector-curvature="0" />
      <path
         d="m 254.0169,184.85862 c 1.1025,0 2.17,-0.385 3.2025,-1.1375 l 0,-4.27 -3.115,0 0,1.0675 1.9775,0 0,2.59 c -0.56,0.4725 -1.435,0.665 -2.065,0.665 -1.855,0 -3.01,-1.645 -3.01,-4.6725 0,-3.3425 1.365,-4.3575 2.94,-4.3575 0.805,0 1.33,0.2625 1.8725,0.8575 0.245,0.2975 0.315,0.4025 0.2975,0.595 l 0.07,0.105 0.14,-0.1225 0.8575,-0.6825 c -0.6125,-1.1025 -1.925,-1.82 -3.22,-1.8375 -1.5925,-0.0175 -4.2175,0.9975 -4.165,5.705 0,3.3075 1.61,5.495 4.2175,5.495 z"
         style="font-size:17.5px"
         id="path4317"
         inkscape:connector-curvature="0" />
      <path
         d="m 264.9369,187.22112 0.6825,0 0.035,-1.19 -1.4175,0.0875 c -0.98,0 -1.2425,-0.5425 -1.295,-1.3125 2.1175,-0.4725 3.22,-2.345 3.22,-5.565 0.0875,-3.9375 -1.8725,-5.5825 -3.85,-5.5825 -1.6275,0 -3.885,1.2775 -3.885,5.635 0,3.5175 1.6975,5.285 3.4475,5.5125 0,1.8025 0.77,2.52 3.0625,2.415 z m -2.5375,-3.5 c -1.75,0 -2.7825,-1.925 -2.7825,-4.69 0,-2.2225 0.8575,-4.305 2.695,-4.305 1.1025,0 2.6775,0.91 2.6775,4.8125 0,3.08 -1.4,4.1825 -2.59,4.1825 z"
         style="font-size:17.5px"
         id="path4319"
         inkscape:connector-curvature="0" />
      <path
         d="m 281.5094,180.02862 c 0.8575,0 1.365,-0.3325 1.9775,-1.3125 l -0.805,-0.49 c -0.455,0.6475 -0.735,0.84 -1.2425,0.84 -0.9625,0 -1.435,-0.945 -2.625,-0.945 -1.085,0 -1.785,0.6125 -2.1525,1.4 l 0.8575,0.385 c 0.385,-0.63 0.7875,-0.8225 1.33,-0.8225 0.91,0 1.4525,0.945 2.66,0.945 z"
         style="font-size:17.5px"
         id="path4321"
         inkscape:connector-curvature="0" />
      <path
         d="m 286.1119,179.76612 4.9,0 0,-1.1725 -4.9,0 0,1.1725 z"
         style="font-size:17.5px"
         id="path4323"
         inkscape:connector-curvature="0" />
      <path
         d="m 296.8044,182.86362 1.1025,0 0,-3.2725 2.9925,0 0,-1.0675 -2.9925,0 0,-2.9925 -1.1025,0 0,2.9925 -3.0975,0 0,1.0675 3.0975,0 0,3.2725 z"
         style="font-size:17.5px"
         id="path4325"
         inkscape:connector-curvature="0" />
      <path
         d="m 309.1769,173.86862 0,2.6775 -6.7375,0 0,1.0675 7.805,0 0,-1.925 6.3175,3.395 -6.3175,3.395 0,-1.925 -7.805,0 0,1.0675 6.7375,0 0,2.6775 8.8725,-4.725 0,-0.98 -8.8725,-4.725 z"
         style="font-size:17.5px"
         id="path4327"
         inkscape:connector-curvature="0" />
    </g>
  </g>
</svg>
