<svg xmlns="http://www.w3.org/2000/svg" width="303.981" height="112.051" viewBox="0 0 284.982 105.047"><g font-weight="400" font-family="Inconsolata Nerd Font" letter-spacing="0" word-spacing="0" fill="#fff"><g style="line-height:125%;text-decoration-line:underline" font-size="27.5" text-decoration="underline"><path d="M0 16.665h3.382V2.778H.192V1.155H8.69v1.623H5.308v13.915h3.547v1.594H0v-1.622zM13.502 5.72h1.925v2.227q.743-1.155 1.87-1.842 1.128-.688 2.393-.688 1.677 0 2.667 1.293 1.018 1.265 1.018 3.96v7.617H21.45v-7.562q0-1.87-.632-2.723-.633-.852-1.678-.852-.853 0-1.732.495-.853.495-1.43 1.403-.55.88-.55 2.007v7.232h-1.926V5.72zM33.11 18.59q-1.815 0-3.245-.853-1.43-.852-2.255-2.337-.797-1.512-.797-3.382t.797-3.355q.825-1.485 2.255-2.338 1.43-.852 3.217-.852 1.513 0 2.75.632 1.238.605 2.008 1.705l-1.238 1.21-.192.193-.138-.138q0-.247-.11-.44-.082-.22-.412-.495-.578-.522-1.265-.742-.688-.248-1.623-.248-1.072 0-2.007.605-.908.578-1.458 1.65-.55 1.073-.55 2.475 0 1.403.55 2.53.578 1.128 1.568 1.76 1.017.633 2.255.633 1.897 0 3.272-1.54l1.155 1.347q-1.842 1.98-4.537 1.98zM45.897 18.507q-1.677 0-2.997-.825-1.32-.824-2.063-2.31-.742-1.484-.742-3.382 0-1.897.742-3.382.743-1.485 2.063-2.31 1.32-.853 2.997-.853 1.678 0 2.998.853 1.32.825 2.062 2.31.743 1.485.743 3.382 0 1.898-.743 3.383-.742 1.485-2.062 2.31-1.32.824-2.998.824zm0-1.65q1.073 0 1.898-.632.852-.632 1.32-1.732.495-1.128.495-2.53 0-2.145-1.045-3.493-1.045-1.375-2.668-1.375-1.622 0-2.667 1.375-1.045 1.348-1.045 3.493 0 1.402.467 2.53.495 1.1 1.32 1.732.853.633 1.925.633zM54.752 5.72h1.925v2.227q.743-1.155 1.87-1.842 1.128-.688 2.393-.688 1.677 0 2.667 1.293 1.018 1.265 1.018 3.96v7.617H62.7v-7.562q0-1.87-.633-2.723-.632-.852-1.677-.852-.853 0-1.733.495-.852.495-1.43 1.403-.55.88-.55 2.007v7.232h-1.925V5.72zM73.425 18.562q-3.19 0-5.335-1.98l1.1-1.87.165-.247.165.11q0 .055.027.248.055.192.165.385.11.192.303.385.632.632 1.43.99.825.33 2.035.33 1.485 0 2.337-.523.853-.55.853-1.485 0-.797-.688-1.32-.687-.522-2.475-1.1-4.73-1.347-4.73-3.905 0-1.457 1.183-2.31 1.21-.852 3.437-.852 1.705 0 2.86.495 1.183.467 2.145 1.485l-1.127 1.375-.193.22-.137-.138q-.028-.302-.138-.495-.082-.192-.385-.44-.632-.495-1.43-.742-.77-.275-1.54-.275-1.182 0-1.952.412-.743.413-.743 1.155 0 .688.77 1.265.77.578 2.778 1.155 2.365.715 3.327 1.568.99.825.99 2.172 0 1.705-1.347 2.832-1.32 1.1-3.85 1.1zM87.147 18.507q-1.677 0-2.997-.825-1.32-.824-2.063-2.31-.742-1.484-.742-3.382 0-1.897.742-3.382.743-1.485 2.063-2.31 1.32-.853 2.997-.853 1.678 0 2.998.853 1.32.825 2.062 2.31.743 1.485.743 3.382 0 1.898-.743 3.383-.742 1.485-2.062 2.31-1.32.824-2.998.824zm0-1.65q1.073 0 1.898-.632.852-.632 1.32-1.732.495-1.128.495-2.53 0-2.145-1.045-3.493-1.045-1.375-2.668-1.375-1.622 0-2.667 1.375-1.045 1.348-1.045 3.493 0 1.402.467 2.53.495 1.1 1.32 1.732.853.633 1.925.633zM96.195 16.693h3.712V1.595H96.36V0h5.555v16.693h3.685v1.594h-9.405v-1.594zM114.482 5.445q2.695 0 4.098 1.403 1.43 1.402 1.43 4.757v6.682h-2.145v-1.924q-1.155 2.227-4.29 2.227-2.09 0-3.273-.935-1.182-.962-1.182-2.53 0-1.32.852-2.31.853-.99 2.283-1.512 1.457-.55 3.19-.55 1.567 0 2.832.165-.165-2.118-1.127-2.97-.935-.88-2.805-.88-.935 0-1.815.357-.853.358-1.568 1.045L110 7.205q1.76-1.76 4.482-1.76zm-.715 11.633q2.035 0 3.218-1.183 1.182-1.21 1.292-3.465-1.237-.192-2.667-.192-2.09 0-3.3.687-1.21.688-1.21 2.09 0 2.063 2.667 2.063zM133.732 17.133q-1.815 1.347-3.987 1.347-2.09 0-2.97-1.265-.853-1.265-.853-4.125 0-.467.055-1.622l.248-4.125h-2.778V5.72h2.888l.192-3.355 2.2-.357.275-.028.028.165q-.193.275-.303.468-.082.192-.11.605l-.302 2.502h4.18v1.623h-4.29l-.248 4.262q-.055 1.1-.055 1.458 0 2.2.495 2.997.523.77 1.65.77.825 0 1.513-.302.687-.303 1.567-.963l.605 1.568zM141.982 5.445q2.695 0 4.098 1.403 1.43 1.402 1.43 4.757v6.682h-2.145v-1.924q-1.155 2.227-4.29 2.227-2.09 0-3.273-.935-1.182-.962-1.182-2.53 0-1.32.852-2.31.853-.99 2.283-1.512 1.457-.55 3.19-.55 1.567 0 2.832.165-.165-2.118-1.127-2.97-.935-.88-2.805-.88-.935 0-1.815.357-.853.358-1.568 1.045l-.962-1.265q1.76-1.76 4.482-1.76zm-.715 11.633q2.035 0 3.218-1.183 1.182-1.21 1.292-3.465-1.237-.192-2.667-.192-2.09 0-3.3.687-1.21.688-1.21 2.09 0 2.063 2.667 2.063zM164.147 1.155h1.87l7.205 12.705V1.155h2.09v.193q-.165.165-.22.357-.027.193-.027.66v15.922h-1.513L165.99 4.813v13.474h-1.843V1.155zM184.002 18.562q-2.805 0-4.482-1.704-1.65-1.705-1.65-4.813 0-2.062.77-3.547.77-1.513 2.062-2.283 1.32-.797 2.943-.797 2.282 0 3.685 1.512 1.43 1.513 1.43 4.455 0 .303-.055.908h-8.938q.11 2.31 1.293 3.492 1.182 1.183 2.997 1.183 1.98 0 3.245-1.403l1.1 1.073q-1.595 1.924-4.4 1.924zm2.75-7.81q0-1.76-.907-2.777-.88-1.045-2.338-1.045-1.375 0-2.392.963-1.018.962-1.265 2.86h6.902zM199.54 5.418q2.007 0 3.327 1.375l-.88 1.54-.11.247-.192-.11q-.083-.302-.193-.467-.11-.193-.467-.413-.715-.467-1.623-.467-.99 0-1.87.495-.88.495-1.43 1.512-.55.99-.55 2.503v6.682h-2.007V5.72h2.062l-.055 2.31q.523-1.237 1.595-1.925 1.1-.687 2.393-.687zM210.457 18.562q-1.347 0-2.53-.742-1.182-.77-1.925-2.282-.742-1.513-.742-3.658 0-2.172.77-3.63.77-1.457 1.98-2.145 1.21-.715 2.557-.715 1.265 0 2.2.578.963.577 1.458 1.595V0h2.09v.193q-.165.165-.22.357-.028.193-.028.66l.028 15.125q0 .66.027 1.1.055.412.248.852h-1.953q-.192-.44-.247-.852-.028-.44-.028-1.1-.605 1.045-1.567 1.65-.935.577-2.118.577zm.303-1.732q1.705 0 2.502-1.347.798-1.348.798-3.548 0-2.227-.88-3.575-.853-1.347-2.585-1.347-1.65 0-2.53 1.237-.88 1.21-.88 3.328 0 2.42.907 3.85.935 1.402 2.668 1.402zM233.667 1.128h9.873v1.677h-7.948v5.39H242v1.678h-6.408v8.414h-1.925V1.127zM252.147 18.507q-1.677 0-2.997-.825-1.32-.824-2.063-2.31-.742-1.484-.742-3.382 0-1.897.742-3.382.743-1.485 2.063-2.31 1.32-.853 2.997-.853 1.678 0 2.998.853 1.32.825 2.062 2.31.743 1.485.743 3.382 0 1.898-.743 3.383-.742 1.485-2.062 2.31-1.32.824-2.998.824zm0-1.65q1.073 0 1.898-.632.852-.632 1.32-1.732.495-1.128.495-2.53 0-2.145-1.045-3.493-1.045-1.375-2.668-1.375-1.622 0-2.667 1.375-1.045 1.348-1.045 3.493 0 1.402.467 2.53.495 1.1 1.32 1.732.853.633 1.925.633zM261.002 5.72h1.925v2.227q.743-1.155 1.87-1.842 1.128-.688 2.393-.688 1.677 0 2.667 1.293 1.018 1.265 1.018 3.96v7.617h-1.925v-7.562q0-1.87-.633-2.723-.632-.852-1.677-.852-.853 0-1.733.495-.852.495-1.43 1.403-.55.88-.55 2.007v7.232h-1.925V5.72zM284.982 17.133q-1.815 1.347-3.987 1.347-2.09 0-2.97-1.265-.853-1.265-.853-4.125 0-.467.055-1.622l.248-4.125h-2.778V5.72h2.888l.192-3.355 2.2-.357.275-.028.028.165q-.193.275-.303.468-.082.192-.11.605l-.302 2.502h4.18v1.623h-4.29l-.248 4.262q-.055 1.1-.055 1.458 0 2.2.495 2.997.523.77 1.65.77.825 0 1.513-.302.687-.303 1.567-.963l.605 1.568z"/></g><g style="line-height:125%" font-size="17.5"><path d="M4.605 50.115q1.715 0 2.607.892.91.893.91 3.028v4.252H6.757v-1.225q-.735 1.418-2.73 1.418-1.33 0-2.082-.595-.753-.613-.753-1.61 0-.84.543-1.47.542-.63 1.452-.963.928-.35 2.03-.35.998 0 1.803.105-.105-1.347-.718-1.89-.595-.56-1.785-.56-.595 0-1.155.228-.542.227-.997.665l-.613-.805q1.12-1.12 2.853-1.12zm-.455 7.402q1.295 0 2.047-.752.753-.77.823-2.205-.788-.123-1.698-.123-1.33 0-2.1.438-.77.437-.77 1.33 0 1.312 1.698 1.312zM13.74 58.48q-.718 0-1.33-.315-.613-.333-1.033-.928l-.437 1.05h-.805V46.65h1.435v.122q-.105.105-.14.228-.018.122-.018.42v4.095q.385-.648 1.033-1.033.665-.385 1.347-.385 1.505 0 2.398 1.05.892 1.05.892 3.063 0 1.365-.472 2.345-.473.962-1.243 1.452-.77.473-1.627.473zm-.158-1.12q.945 0 1.575-.735.63-.753.63-2.345 0-1.54-.595-2.31-.577-.788-1.575-.788-.98 0-1.592.875-.613.875-.613 2.258 0 3.045 2.17 3.045zM22.822 58.48q-1.155 0-2.065-.543-.91-.542-1.435-1.487-.507-.963-.507-2.153t.507-2.135q.525-.945 1.435-1.487.91-.543 2.048-.543.962 0 1.75.403.787.385 1.277 1.085l-.787.77-.123.122-.087-.087q0-.158-.07-.28-.053-.14-.263-.315-.367-.333-.805-.473-.437-.157-1.032-.157-.683 0-1.278.385-.577.367-.927 1.05-.35.682-.35 1.575 0 .892.35 1.61.367.717.997 1.12.648.402 1.435.402 1.208 0 2.083-.98l.735.858q-1.173 1.26-2.888 1.26zM30.68 58.462q-.858 0-1.61-.472-.753-.49-1.225-1.453-.473-.962-.473-2.327 0-1.383.49-2.31.49-.928 1.26-1.365.77-.455 1.628-.455.805 0 1.4.367.612.368.927 1.015V46.65h1.33v.122q-.105.105-.14.228-.017.122-.017.42l.017 9.625q0 .42.018.7.035.262.157.542H33.2q-.123-.28-.158-.542-.017-.28-.017-.7-.385.665-.998 1.05-.595.367-1.347.367zm.192-1.102q1.085 0 1.593-.858.507-.857.507-2.257 0-1.418-.56-2.275-.542-.858-1.645-.858-1.05 0-1.61.788-.56.77-.56 2.117 0 1.54.578 2.45.595.893 1.697.893zM40.095 58.462q-1.785 0-2.853-1.085-1.05-1.085-1.05-3.062 0-1.313.49-2.258.49-.962 1.313-1.452.84-.508 1.872-.508 1.453 0 2.345.963.91.962.91 2.835 0 .192-.035.577H37.4q.07 1.47.822 2.223.753.752 1.908.752 1.26 0 2.065-.892l.7.682q-1.015 1.225-2.8 1.225zm1.75-4.97q0-1.12-.578-1.767-.56-.665-1.487-.665-.875 0-1.523.612-.647.613-.805 1.82h4.393zM46.92 51.287h-1.733v-.997h1.733v-.665q0-1.54.787-2.31.805-.77 2.153-.77.77 0 1.417.28.665.28 1.085.822l-.665.928-.105.14-.105-.07q0-.035-.035-.14-.017-.123-.087-.245-.07-.123-.21-.245-.263-.245-.543-.35-.28-.105-.717-.105-.823 0-1.295.49-.473.49-.473 1.575v.665h2.625v.997h-2.625v7H46.92v-7zM61.147 51.112q-.157-.017-.455-.017-.84 0-1.4.367.298.595.298 1.313 0 .787-.35 1.435-.333.63-.98.997-.63.368-1.47.368-.665 0-1.243-.245-.315.385-.315.735 0 .42.525.612.543.175 1.925.175 1.698 0 2.31.525.63.508.63 1.505 0 1.033-.84 1.715-.84.7-2.625.7-1.715 0-2.695-.525-.962-.525-.962-1.54 0-.63.35-1.085.35-.455.892-.717-.577-.385-.577-1.068 0-.7.717-1.47-.437-.385-.665-.927-.227-.543-.227-1.19 0-.77.332-1.4.35-.648.98-1.015.648-.368 1.488-.368 1.277 0 2.047.823.42-.385.858-.56.455-.193.997-.193l.298.018.157 1.032zm-4.357 3.413q.752 0 1.242-.508.508-.507.508-1.242t-.508-1.243q-.49-.507-1.242-.507-.753 0-1.26.507-.49.508-.49 1.243 0 .735.49 1.242.507.508 1.26.508zm2.677 4.55q0-.42-.157-.665-.14-.228-.578-.333-.437-.122-1.312-.122-1.26 0-2.013-.228-.42.28-.595.578-.157.297-.157.787 0 .595.665.928.665.332 1.855.332 1.155 0 1.715-.35.577-.332.577-.927zM62.862 46.65h1.383v.122q-.105.105-.14.228-.018.122-.018.42v4.287q.473-.735 1.173-1.172.717-.438 1.452-.438 1.138 0 1.785.805.648.805.648 2.538v4.847H67.92v-4.812q0-1.19-.403-1.733-.402-.542-1.067-.542-.56 0-1.103.315-.542.297-.91.875-.35.56-.35 1.295v4.602h-1.225V46.65zM72.085 57.272h2.047v-5.967H72.19V50.29h3.202v6.982h1.873v1.015h-5.18v-1.015zm2.607-8.662q-.367 0-.63-.263-.262-.262-.262-.63 0-.385.245-.647.262-.263.647-.263.368 0 .63.28.28.263.28.63 0 .368-.28.63-.262.263-.63.263zM82.48 61.332q-.77 0-1.435-.28t-1.12-.84l.7-.945.105-.14.105.07q0 .035.017.14.035.123.105.245.07.123.21.228.56.437 1.295.437.823 0 1.313-.56t.49-1.715v-6.65H81.29V50.29h4.252v7.612q0 1.733-.857 2.573-.858.857-2.205.857zm2.327-12.722q-.367 0-.63-.263-.262-.262-.262-.63 0-.385.245-.647.262-.263.647-.263.368 0 .63.28.28.263.28.63 0 .368-.28.63-.262.263-.63.263zM91.317 54.28l-1.05.98v3.027H88.99V46.65h1.435v.122q-.105.105-.14.228-.018.122-.018.42v6.545l4.008-3.71q.437.087.927.087h.455l-3.36 3.168 3.92 4.777-1.627.07-3.273-4.077zM97.967 57.272h2.363v-9.607h-2.258V46.65h3.535v10.622h2.345v1.015h-5.985v-1.015zM106 50.29h1.155v.787q.28-.437.717-.7.438-.28.91-.28.525 0 .91.333.403.332.508.84.227-.525.717-.84.49-.333 1.085-.333.788 0 1.173.578.402.56.367 1.47v6.142h-1.155v-5.67q0-.997-.192-1.295-.193-.297-.56-.297-.315 0-.613.297-.297.298-.49.77-.175.455-.175.91v5.285h-1.172v-5.565q0-.98-.193-1.312-.175-.35-.682-.35-.263 0-.543.245-.262.227-.437.665-.175.42-.175.98v5.337H106V50.29zM115.345 50.29h1.225v1.417q.472-.735 1.19-1.172.717-.438 1.522-.438 1.068 0 1.698.823.647.805.647 2.52v4.847h-1.225v-4.812q0-1.19-.402-1.733-.403-.542-1.068-.542-.542 0-1.102.315-.543.315-.91.892-.35.56-.35 1.278v4.602h-1.225V50.29zM127.21 58.427q-1.068 0-1.908-.525-.84-.525-1.312-1.47-.473-.945-.473-2.152 0-1.208.473-2.153.472-.945 1.312-1.47.84-.542 1.908-.542 1.067 0 1.907.542.84.525 1.313 1.47.472.945.472 2.153 0 1.207-.472 2.152-.473.945-1.313 1.47t-1.907.525zm0-1.05q.682 0 1.207-.402.543-.403.84-1.103.315-.717.315-1.61 0-1.365-.665-2.222-.665-.875-1.697-.875-1.033 0-1.698.875-.665.857-.665 2.222 0 .893.298 1.61.315.7.84 1.103.542.402 1.225.402zM132.635 50.29h1.277v1.575q.263-.875.91-1.313.648-.437 1.523-.437.91 0 1.662.472.77.455 1.225 1.383.455.927.455 2.257 0 1.348-.472 2.328-.473.962-1.26 1.452-.77.49-1.645.49-.718 0-1.348-.332-.63-.333-1.032-.928v3.973h-1.295V50.29zm3.465 7.087q.962 0 1.61-.717.665-.735.665-2.38 0-1.488-.578-2.275-.577-.805-1.645-.805-.997 0-1.627.84-.613.822-.613 2.52.035 1.382.613 2.1.577.717 1.575.717zM146.81 57.01q-.368.682-1.015 1.067-.648.385-1.435.385-.91 0-1.663-.525-.752-.542-1.19-1.487-.437-.963-.437-2.188 0-1.277.472-2.222.473-.963 1.278-1.453.805-.507 1.767-.507.823 0 1.4.367.578.35.893 1.015V50.29h1.19v10.92h-1.26v-4.2zm-2.223.35q.98 0 1.575-.805.613-.823.613-2.485 0-2.958-2.048-2.958-1.05 0-1.715.788-.665.787-.665 2.31 0 1.452.595 2.31.613.84 1.645.84zM154.982 50.097q1.278 0 2.118.875l-.56.98-.07.158-.123-.07q-.052-.193-.122-.298-.07-.122-.298-.262-.455-.298-1.032-.298-.63 0-1.19.315-.56.315-.91.963-.35.63-.35 1.592v4.253h-1.278V50.29h1.313l-.035 1.47q.332-.788 1.015-1.225.7-.438 1.522-.438zM162.227 58.462q-2.03 0-3.395-1.26l.7-1.19.105-.157.105.07q0 .035.018.157.035.123.105.245.07.123.192.245.403.403.91.63.525.21 1.295.21.945 0 1.488-.332.542-.35.542-.945 0-.508-.437-.84-.438-.333-1.575-.7-3.01-.858-3.01-2.485 0-.928.752-1.47.77-.543 2.188-.543 1.085 0 1.82.315.752.298 1.365.945l-.718.875-.122.14-.088-.087q-.017-.193-.087-.315-.053-.123-.245-.28-.403-.315-.91-.473-.49-.175-.98-.175-.753 0-1.243.263-.472.262-.472.735 0 .437.49.805.49.367 1.767.735 1.505.455 2.118.997.63.525.63 1.383 0 1.085-.858 1.802-.84.7-2.45.7zM174.355 57.552q-1.155.858-2.538.858-1.33 0-1.89-.805-.542-.805-.542-2.625 0-.298.035-1.033l.157-2.625h-1.767V50.29h1.837l.123-2.135 1.4-.228.175-.017.017.105q-.122.175-.192.297-.053.123-.07.385l-.193 1.593h2.66v1.032h-2.73l-.157 2.713q-.035.7-.035.927 0 1.4.315 1.908.332.49 1.05.49.525 0 .962-.193.438-.192.998-.612l.385.997zM179.202 58.48q-1.26 0-2.012-.928-.753-.945-.735-2.8l.017-4.462h1.225v4.462q0 1.435.49 2.083.508.63 1.33.63.91 0 1.523-.7.63-.718.63-2.065v-4.41h1.225v6.755q0 .42.017.7.035.262.158.542h-1.208q-.122-.262-.157-.542-.018-.28-.018-.683-.385.665-1.05 1.05-.647.368-1.435.368zM192.047 50.29q-.28 1.417-1.172 3.5l-1.943 4.497h-.98l-3.167-7.997h1.26l2.467 6.265 1.295-2.958q.805-1.82 1.05-3.307h1.19zM193.115 50.29h1.102l1.295 6.422 1.365-5.67h.77l1.698 5.653q.49-3.273.612-4.288.123-1.032.123-1.855v-.262h1.172q-.525 4.06-1.33 8.015h-1.19l-1.47-5.18-1.4 5.18h-1.137l-1.61-8.015zM205.225 54.227l-2.765-3.937h1.382l2.083 2.957 1.995-2.957h1.295l-2.59 3.885 2.94 4.112h-1.435l-2.205-3.115-2.083 3.115h-1.435l2.818-4.06zM218.087 50.29q-.105.717-.332 1.417-.21.7-.613 1.855l-1.995 5.635q-.402 1.12-1.05 1.628-.647.507-1.54.507-1.12 0-1.837-.682l.542-.858.105-.157.105.07q.035.175.123.28.087.122.332.21.315.105.7.105.648 0 1.033-.455.385-.455.752-1.505l-3.272-8.05h1.312l2.485 6.405 1.05-3.22q.385-1.208.56-1.838.193-.647.28-1.347h1.26zM219.96 57.43l4.952-6.038h-4.585V50.29h6.213v.857l-4.865 6.055h4.515q.28 0 .402-.035.14-.035.245-.14h.123v1.26h-7v-.857zM6.442 76.977H2.925l-1.103 3.185H.615L4.64 69.067h.14l4.025 11.095h-1.26l-1.103-3.185zm-.315-.945l-1.435-4.165-1.435 4.165h2.87zM9.925 69.26h3.097q1.82 0 2.713.717.91.7.91 1.925 0 .805-.438 1.488-.42.665-1.172.927.91.315 1.47 1.103.577.77.577 1.68 0 1.435-1.015 2.257-1.015.805-3.062.805h-3.08V69.26zm2.922 4.515q2.573 0 2.573-1.733 0-.787-.578-1.26-.577-.49-1.802-.49h-1.908v3.483h1.715zm.368 5.32q2.572 0 2.572-2.065 0-2.223-2.87-2.223h-1.785v4.288h2.083zM22.822 80.337q-1.225 0-2.187-.595-.945-.612-1.523-1.855-.56-1.242-.56-3.115 0-2.012.613-3.255.612-1.26 1.557-1.802.945-.543 2.03-.543 1.155 0 1.995.578.858.577 1.295 1.575l-1.05.49-.157.07-.053-.123.035-.14q0-.175-.245-.49-.402-.542-.857-.752-.455-.228-.998-.228-1.382 0-2.187 1.208-.788 1.19-.788 3.325 0 1.347.403 2.397.402 1.05 1.085 1.628.7.577 1.54.577.647 0 1.242-.35.595-.367.963-.98l.91.595q-.543.893-1.278 1.348-.735.437-1.785.437zM27.53 69.26h2.537q1.348 0 2.135.367.788.35 1.365 1.12 1.068 1.435 1.068 4.025-.105 2.643-1.225 4.043-1.12 1.382-3.553 1.365H27.53V69.26zm2.275 9.957q3.605 0 3.605-4.375-.018-2.222-.823-3.377-.805-1.173-2.59-1.173h-1.312v8.925h1.12zM36.367 69.242h6.685v1.085h-5.53v3.588h4.568v1.12h-4.568v4.042H43v1.085h-6.633v-10.92zM45.45 69.242h6.282v1.068h-5.057v3.43h4.077v1.067h-4.077v5.355H45.45v-10.92zM57.682 80.337q-1.295 0-2.257-.682-.945-.683-1.453-1.925-.507-1.243-.507-2.888-.018-2.17.63-3.43.647-1.277 1.592-1.767.945-.508 1.908-.508.98 0 1.89.508.91.507 1.365 1.33l-.858.682-.14.123-.07-.105q.018-.14-.052-.263-.053-.122-.245-.332-.42-.455-.858-.648-.42-.21-1.015-.21-1.312 0-2.135 1.015-.805 1.015-.805 3.343 0 2.24.788 3.465.805 1.207 2.222 1.207.525 0 1.103-.157.577-.175.962-.508v-2.59H57.77V74.93h3.115v4.27q-1.558 1.137-3.203 1.137zM62.46 69.26h1.435v.122q-.105.105-.14.228-.018.122-.018.42v3.885h4.27V69.26h1.435v.122q-.105.105-.14.228-.017.122-.017.42v10.132H67.99v-5.197h-4.253v5.197H62.46V69.26zM71.752 79.13h2.153v-8.838h-2.03V69.26h5.407v1.032H75.13v8.855h2.257v1.015h-5.635V79.13zM82.55 80.355q-1.61 0-2.608-1.208l.7-.875.123-.14.087.07q.018.175.088.298.07.122.28.297.612.473 1.295.473.892 0 1.277-.613.403-.63.403-2.135v-6.23h-2.1V69.26h4.987v1.032h-1.68v6.213q.035 1.33-.35 2.187-.385.858-1.05 1.26-.647.403-1.452.403zM90.74 74.702l-.858.945v4.515H88.57V69.26h1.47v.122q-.105.105-.14.228-.018.122-.018.42v4.252l4.55-5.11q.438.088.91.088h.455l-4.13 4.707 4.41 6.195-1.575.07-3.762-5.53zM97.74 69.26h1.435v.122q-.105.105-.14.228-.018.122-.018.42v9.082h5.25v1.05H97.74V69.26zM106.052 69.26h.963l2.695 5.337 2.747-5.355h.928v10.92h-1.155v-8.225l-2.363 4.393h-.472l-2.205-4.34v8.172h-1.138V69.26zM114.96 69.26h1.19l4.585 8.085V69.26h1.33v.122q-.105.105-.14.228-.018.122-.018.42v10.132h-.962l-4.813-8.575v8.575h-1.172V69.26zM127.21 80.355q-1.873 0-2.888-1.453-1.015-1.452-1.015-4.13 0-2.607 1.015-4.095 1.033-1.487 2.888-1.487t2.87 1.487q1.032 1.488 1.032 4.095 0 2.678-1.015 4.13-1.015 1.453-2.887 1.453zm0-1.068q1.26 0 1.942-1.172.7-1.173.7-3.343 0-2.082-.7-3.29-.7-1.225-1.942-1.225-1.243 0-1.943 1.225-.7 1.208-.7 3.29 0 2.17.683 3.343.7 1.172 1.96 1.172zM132.617 69.26h3.5q1.733 0 2.59.857.858.858.858 2.223 0 1.347-.84 2.187-.84.823-2.52.823h-2.328v4.812h-1.26V69.26zm3.448 5.005q1.155 0 1.697-.49.543-.508.543-1.4 0-.858-.56-1.4-.56-.56-1.663-.56h-2.205v3.85h2.188zM147.352 82.7q-1.697.07-2.38-.49-.682-.543-.682-1.925-.91-.123-1.698-.77-.787-.665-1.277-1.855-.473-1.208-.473-2.888 0-2.03.595-3.29.595-1.26 1.47-1.802.893-.543 1.82-.543 1.05 0 1.943.595.892.595 1.417 1.855t.49 3.133q0 2.415-.822 3.815-.805 1.4-2.398 1.75.035.647.315.98.298.332.98.332l1.418-.087-.035 1.19h-.683zm-2.537-3.5q.647 0 1.225-.42.595-.438.98-1.365.385-.945.385-2.398 0-1.82-.42-2.887-.403-1.068-1.015-1.488-.595-.437-1.243-.437-1.295 0-1.995 1.26-.7 1.242-.7 3.045 0 2.1.735 3.395.753 1.295 2.048 1.295zM150.065 69.26h3.22q1.855 0 2.73.822.892.823.892 2.293 0 .962-.63 1.82-.612.857-1.592 1.102l2.52 4.865h-1.365l-2.415-4.812h-2.118v4.812h-1.242V69.26zm3.36 5.005q1.137 0 1.68-.49.542-.508.542-1.4 0-.875-.56-1.418-.542-.542-1.662-.542h-2.118v3.85h2.118zM162.157 80.337q-2.117 0-3.412-1.382l.63-1.103.07-.157.122.07q.018.052.035.175.035.122.088.245.07.105.21.21.98.84 2.432.84.963 0 1.61-.543.648-.542.648-1.33 0-.507-.21-.84-.193-.35-.718-.682-.525-.333-1.575-.788-1.61-.63-2.31-1.435-.682-.805-.682-1.802 0-1.225.892-1.96.893-.735 2.433-.735.892 0 1.662.367.788.35 1.365.998l-.787 1.05-.105-.07q0-.035-.035-.158-.018-.122-.088-.227-.07-.123-.192-.245-.403-.385-.875-.543-.473-.157-1.138-.157-.84 0-1.365.472-.507.455-.507 1.12 0 .508.21.893.227.367.805.735.577.35 1.68.787 1.557.648 2.152 1.33.595.683.595 1.715 0 .805-.402 1.523-.385.717-1.208 1.172-.822.455-2.03.455zM170.225 70.345h-3.098v-1.103h7.56v1.103h-3.22v9.817h-1.242v-9.817zM179.727 80.355q-1.732 0-2.625-1.033-.892-1.032-.892-2.922v-7.14h1.365v.122q-.105.105-.14.228-.018.122-.018.42v6.387q0 1.4.543 2.153.542.752 1.785.752 1.26 0 1.802-.752.56-.753.56-2.205V69.26h1.173v7.087q0 2.013-.945 3.01-.928.998-2.608.998zM184.522 69.242h1.278l2.8 8.383 2.642-8.365h1.208l-3.658 10.972h-.56l-3.71-10.99zM193.132 69.26h1.138l1.172 7.367 1.75-6.562h.385l1.768 6.597.997-7.402h1.033l-1.733 10.902h-.472l-1.873-7.122-1.907 7.122h-.508l-1.75-10.902zM205.277 74.597l-2.922-5.355h1.312l2.293 4.148 2.257-4.148h1.225l-2.765 5.338 3.098 5.582h-1.383l-2.415-4.322-2.345 4.322h-1.33l2.975-5.565zM214.185 75.857l-3.36-6.597h1.4l2.677 5.285 2.415-5.285h1.295l-3.097 6.597v4.305h-1.33v-4.305zM219.96 79.305l5.495-8.943h-5.285V69.26h6.737v.857l-5.407 8.96h4.917q.28 0 .403-.035.14-.035.245-.14h.122v1.26h-7.227v-.857zM4.71 102.177q-1.068 0-1.908-.525-.84-.525-1.312-1.47-.473-.945-.473-2.152 0-1.208.473-2.153.472-.945 1.312-1.47.84-.542 1.908-.542 1.067 0 1.907.542.84.525 1.313 1.47.472.945.472 2.153 0 1.207-.472 2.152-.473.945-1.313 1.47t-1.907.525zm0-1.05q.682 0 1.207-.402.543-.403.84-1.103.315-.717.315-1.61 0-1.365-.665-2.222-.665-.875-1.697-.875-1.033 0-1.698.875-.665.857-.665 2.222 0 .893.298 1.61.315.7.84 1.103.542.402 1.225.402zM13.46 102.23q-1.873 0-2.888-1.453-1.015-1.452-1.015-4.13 0-2.607 1.015-4.095 1.033-1.487 2.888-1.487t2.87 1.487q1.032 1.488 1.032 4.095 0 2.678-1.015 4.13-1.015 1.453-2.887 1.453zm0-1.068q1.26 0 1.942-1.172.7-1.173.7-3.343 0-2.082-.7-3.29-.7-1.225-1.942-1.225-1.243 0-1.943 1.225-.7 1.208-.7 3.29 0 2.17.683 3.343.7 1.172 1.96 1.172zM22.21 91.065q1.61 0 2.485 1.487.892 1.488.892 4.095 0 2.678-.875 4.13-.875 1.453-2.502 1.453-1.628 0-2.503-1.453-.875-1.452-.875-4.13 0-2.607.875-4.095.893-1.487 2.503-1.487zm0 1.067q-.998 0-1.558 1.225-.56 1.208-.56 3.29 0 1.138.158 2.013l3.71-4.795q-.263-.84-.718-1.278-.437-.455-1.032-.455zm0 9.03q.997 0 1.557-1.172.56-1.173.56-3.343 0-1.015-.122-1.75l-3.71 4.725q.56 1.54 1.715 1.54zM30.96 102.212q-.998 0-1.768-.385-.752-.385-1.155-1.05-.402-.665-.402-1.487 0-.945.595-1.768.595-.822 1.592-1.277-.752-.385-1.207-1.068-.455-.7-.455-1.487 0-1.173.752-1.925.753-.77 2.135-.77 1.435 0 2.153.735.735.717.735 1.855 0 .787-.473 1.505-.472.7-1.26 1.12.945.437 1.523 1.26.577.805.577 1.75 0 .84-.42 1.522-.402.683-1.172 1.085-.753.385-1.75.385zm.297-6.44q.648-.367 1.068-.945.42-.595.42-1.207 0-.665-.455-1.12-.455-.473-1.278-.473-.822 0-1.26.455-.42.438-.42 1.085 0 .735.473 1.208.472.472 1.452.997zm-.262 5.338q.98 0 1.522-.525.543-.543.543-1.365 0-.805-.63-1.47-.63-.683-1.698-1.015-.805.332-1.33.997-.507.665-.507 1.435 0 .823.56 1.383.577.56 1.54.56zM45.835 101.022h2.047v-5.967H45.94V94.04h3.202v6.982h1.873v1.015h-5.18v-1.015zm2.607-8.662q-.367 0-.63-.263-.262-.262-.262-.63 0-.385.245-.647.262-.263.647-.263.368 0 .63.28.28.263.28.63 0 .368-.28.63-.262.263-.63.263zM54.252 101.005h2.153v-8.838h-2.03v-1.032h5.407v1.032H57.63v8.855h2.257v1.015h-5.635v-1.032zM62.967 101.022h2.363v-9.607h-2.258V90.4h3.535v10.622h2.345v1.015h-5.985v-1.015zM71.49 91.135h1.435v.122q-.105.105-.14.228-.018.122-.018.42v9.082h5.25v1.05H71.49V91.135zM83.11 92.64l-2.205.647-.28-.682 2.852-1.488h.858v10.92H83.11V92.64zM103.077 104.82q-1.33 0-2.152-.263-.823-.262-1.225-.927-.385-.665-.333-1.873l.07-1.75q0-1.102-.385-1.522-.385-.438-1.19-.438h-.35v-.98h.333q.822 0 1.225-.437.402-.455.402-1.435l-.035-1.26q0-3.045 3.185-3.045h1.103v.997h-1.435q-1.628 0-1.628 1.855l.035 1.225q0 1.925-1.522 2.59 1.487.49 1.487 2.713l-.052 1.47q0 1.172.507 1.627.508.473 1.698.473h.892v.98h-.63zM106.297 104.82v-.98h.893q1.19 0 1.697-.473.508-.455.508-1.627l-.053-1.47q0-2.223 1.488-2.713-1.523-.665-1.523-2.59l.035-1.225q0-1.855-1.627-1.855h-1.435v-.997h1.102q3.185 0 3.185 3.045l-.035 1.26q0 .98.403 1.435.402.437 1.225.437h.332v.98h-.35q-.805 0-1.19.438-.385.42-.385 1.522l.07 1.75q.053 1.208-.35 1.873-.385.665-1.207.927-.823.263-2.153.263h-.63zM125.127 90.312h5.005v1.05h-3.885v11.235h3.903v.998h-5.023V90.312zM133.877 103.595v-.998h3.903V91.362h-3.885v-1.05h5.005v13.283h-5.023zM157.397 94.862q-.157-.017-.455-.017-.84 0-1.4.367.298.595.298 1.313 0 .787-.35 1.435-.333.63-.98.997-.63.368-1.47.368-.665 0-1.243-.245-.315.385-.315.735 0 .42.525.612.543.175 1.925.175 1.698 0 2.31.525.63.508.63 1.505 0 1.033-.84 1.715-.84.7-2.625.7-1.715 0-2.695-.525-.962-.525-.962-1.54 0-.63.35-1.085.35-.455.892-.717-.577-.385-.577-1.068 0-.7.717-1.47-.437-.385-.665-.927-.227-.543-.227-1.19 0-.77.332-1.4.35-.648.98-1.015.648-.368 1.488-.368 1.277 0 2.047.823.42-.385.858-.56.455-.193.997-.193l.298.018.157 1.032zm-4.357 3.413q.752 0 1.242-.508.508-.507.508-1.242t-.508-1.243q-.49-.507-1.242-.507-.753 0-1.26.507-.49.508-.49 1.243 0 .735.49 1.242.507.508 1.26.508zm2.677 4.55q0-.42-.157-.665-.14-.228-.578-.333-.437-.122-1.312-.122-1.26 0-2.013-.228-.42.28-.595.578-.157.297-.157.787 0 .595.665.928.665.332 1.855.332 1.155 0 1.715-.35.577-.332.577-.927zM162.157 91.065q1.015 0 1.768.595.77.577 1.172 1.627.42 1.05.42 2.398 0 3.22-.962 4.865-.963 1.627-2.73 1.662-1.575 0-2.608-.997l.875-.998.088.088q.017.175.087.297.07.123.28.263.473.297 1.173.297 1.19 0 1.837-1.155.648-1.155.77-2.887-.437.385-.962.595-.508.192-1.173.192-.892 0-1.627-.42-.718-.42-1.138-1.155-.402-.752-.402-1.715 0-.997.42-1.802.42-.823 1.137-1.278.718-.472 1.575-.472zm.053 5.775q.735 0 1.225-.21.507-.21.91-.7-.07-1.925-.595-2.853-.508-.945-1.54-.945-.91 0-1.453.665-.542.665-.542 1.803 0 1.015.577 1.627.578.613 1.418.613zM173.06 100.76q-.368.682-1.015 1.067-.648.385-1.435.385-.91 0-1.663-.525-.752-.542-1.19-1.487-.437-.963-.437-2.188 0-1.277.472-2.222.473-.963 1.278-1.453.805-.507 1.767-.507.823 0 1.4.367.578.35.893 1.015V94.04h1.19v10.92h-1.26v-4.2zm-2.223.35q.98 0 1.575-.805.613-.823.613-2.485 0-2.958-2.048-2.958-1.05 0-1.715.788-.665.787-.665 2.31 0 1.452.595 2.31.613.84 1.645.84zM180.322 102.212q-1.225 0-2.187-.595-.945-.612-1.523-1.855-.56-1.242-.56-3.115 0-2.012.613-3.255.612-1.26 1.557-1.802.945-.543 2.03-.543 1.155 0 1.995.578.858.577 1.295 1.575l-1.05.49-.157.07-.053-.123.035-.14q0-.175-.245-.49-.402-.542-.857-.752-.455-.228-.998-.228-1.382 0-2.187 1.208-.788 1.19-.788 3.325 0 1.347.403 2.397.402 1.05 1.085 1.628.7.577 1.54.577.647 0 1.242-.35.595-.367.963-.98l.91.595q-.543.893-1.278 1.348-.735.437-1.785.437zM188.932 102.212q-1.295 0-2.257-.682-.945-.683-1.453-1.925-.507-1.243-.507-2.888-.018-2.17.63-3.43.647-1.277 1.592-1.767.945-.508 1.908-.508.98 0 1.89.508.91.507 1.365 1.33l-.858.682-.14.123-.07-.105q.018-.14-.052-.263-.053-.122-.245-.332-.42-.455-.858-.648-.42-.21-1.015-.21-1.312 0-2.135 1.015-.805 1.015-.805 3.343 0 2.24.788 3.465.805 1.207 2.222 1.207.525 0 1.103-.157.577-.175.962-.508v-2.59h-1.977v-1.067h3.115v4.27q-1.558 1.137-3.203 1.137zM199.852 104.575q-1.697.07-2.38-.49-.682-.543-.682-1.925-.91-.123-1.698-.77-.787-.665-1.277-1.855-.473-1.208-.473-2.888 0-2.03.595-3.29.595-1.26 1.47-1.802.893-.543 1.82-.543 1.05 0 1.943.595.892.595 1.417 1.855t.49 3.133q0 2.415-.822 3.815-.805 1.4-2.398 1.75.035.647.315.98.298.332.98.332l1.418-.087-.035 1.19h-.683zm-2.537-3.5q.647 0 1.225-.42.595-.438.98-1.365.385-.945.385-2.398 0-1.82-.42-2.887-.403-1.068-1.015-1.488-.595-.437-1.243-.437-1.295 0-1.995 1.26-.7 1.242-.7 3.045 0 2.1.735 3.395.753 1.295 2.048 1.295zM216.425 97.382q-.438 0-.788-.14-.332-.14-.735-.385-.385-.21-.63-.315-.227-.105-.507-.105-.42 0-.735.193-.315.175-.595.63l-.858-.385q.298-.63.84-1.015.543-.385 1.313-.385.42 0 .717.14.315.122.735.367.35.228.613.333.262.105.56.105.385 0 .63-.175.262-.175.612-.665l.805.49q-.455.735-.892 1.032-.438.28-1.085.28zM220.327 95.947h6.3v1.173h-6.3v-1.173zM231.72 96.945h-3.098v-1.068h3.098v-2.992h1.102v2.992h2.993v1.068h-2.993v3.272h-1.102v-3.272zM237.372 94.372h7.193v1.068h-7.193v-1.068zm0 2.748h7.193v1.067h-7.193V97.12zM246.035 99.885l6.107-3.43-6.072-3.098v-1.242l7.42 3.902v.84l-7.455 4.358v-1.33z"/></g></g></svg>