<svg xmlns="http://www.w3.org/2000/svg" width="416.912" height="115.682" viewBox="0 0 390.855 108.452"><g font-weight="400" font-family="InconsolataLGC Nerd Font" letter-spacing="0" word-spacing="0" fill="#fff"><g style="line-height:125%;text-decoration-line:underline" font-size="27.5" text-decoration="underline"><path d="M.242 1.37h9.829v1.853H6.15V19.39h4.109v1.853H0v-1.88h3.92V3.223H.243V1.37zM16.086 21.216V6.66h2.337v2.578q.86-1.289 2.121-2.094 1.29-.833 2.713-.833 1.262 0 2.31.698 1.047.672 1.584 1.88.51 1.182.51 3.491v8.836h-2.256v-8.782q0-2.283-.779-3.223-.751-.913-1.987-.913-1.02 0-1.96.645-.94.618-1.531 1.37-.725.94-.725 2.524v8.379h-2.337zM44.956 9.05l-1.611 1.907q-.135-.107-.161-.376 0-.268-.054-.35-.054-.08-.188-.24-.134-.189-.457-.484-.322-.322-.725-.564-.403-.242-1.047-.43-.645-.188-1.343-.188-2.068 0-3.437 1.477-1.37 1.45-1.37 3.894 0 2.552 1.423 4.19 1.424 1.638 3.572 1.638 2.283 0 3.867-1.8l1.316 1.531q-2.148 2.31-5.37 2.31-3.09 0-5.13-2.175-2.041-2.176-2.041-5.452 0-3.303 2.04-5.425 2.069-2.148 5.264-2.148 1.746 0 3.17.698 1.423.698 2.282 1.987zM61.553 13.992q0 3.49-1.934 5.559-1.907 2.04-4.619 2.04-2.82 0-4.834-2.148-1.987-2.148-1.987-5.398 0-3.303 2.014-5.505 2.04-2.202 4.888-2.202 2.658 0 4.565 2.04 1.907 2.042 1.907 5.614zm-6.634-5.694q-1.772 0-3.061 1.504-1.262 1.504-1.262 4.055 0 2.605 1.289 4.19 1.316 1.584 3.142 1.584 1.719 0 2.954-1.45 1.262-1.477 1.262-4.082 0-2.82-1.289-4.297-1.289-1.504-3.035-1.504zM65.554 21.216V6.66h2.337v2.578q.859-1.289 2.121-2.094 1.29-.833 2.713-.833 1.262 0 2.31.698 1.047.672 1.584 1.88.51 1.182.51 3.491v8.836h-2.256v-8.782q0-2.283-.779-3.223-.752-.913-1.987-.913-1.02 0-1.96.645-.94.618-1.531 1.37-.725.94-.725 2.524v8.379h-2.337zM93.645 8.594l-1.343 2.014q-.16 0-.16-.296 0-.16-.081-.268-1.612-1.987-4.029-1.987-1.262 0-2.175.564-.886.537-.886 1.396 0 1.047 1.423 1.773.564.268 2.498.832 1.96.564 2.873 1.074 2.122 1.209 2.122 3.304 0 1.799-1.612 3.168-1.611 1.37-4.43 1.37-3.68 0-6.15-2.31l1.315-2.282q.134.08.134.295 0 .215.108.35 1.826 2.04 4.538 2.04 1.585 0 2.66-.644 1.073-.645 1.073-1.665 0-1.155-1.45-1.853-.617-.296-2.068-.752-1.45-.457-1.826-.591-.618-.242-.94-.376-.295-.161-1.074-.618-.752-.483-1.155-1.181-.376-.699-.376-1.585 0-1.692 1.558-2.873Q85.749 6.31 88.22 6.31q3.357 0 5.425 2.283zM111.02 13.992q0 3.49-1.933 5.559-1.907 2.04-4.62 2.04-2.82 0-4.833-2.148-1.988-2.148-1.988-5.398 0-3.303 2.015-5.505 2.04-2.202 4.887-2.202 2.659 0 4.566 2.04 1.907 2.042 1.907 5.614zm-6.633-5.694q-1.772 0-3.061 1.504-1.263 1.504-1.263 4.055 0 2.605 1.29 4.19 1.315 1.584 3.142 1.584 1.718 0 2.954-1.45 1.262-1.477 1.262-4.082 0-2.82-1.29-4.297-1.288-1.504-3.034-1.504zM115.56.054h6.418v19.309h4.296v1.853h-10.93v-1.853h4.324V1.88h-4.109V.054zM132.236 8.379q1.96-2.041 5.183-2.041 3.6 0 5.076 2.417.698 1.182.698 3.437v9.024h-2.175V19.63q-2.39 1.934-5.21 1.934-2.202 0-3.545-1.209-1.343-1.208-1.343-2.9 0-1.289.833-2.417.86-1.128 2.497-1.746 1.692-.644 5.801-.644h.94v-.537q0-1.692-.456-2.498-.806-1.396-3.008-1.396-2.632 0-4.163 1.611l-1.128-1.45zm8.836 6.016h-2.23q-2.067 0-3.06.214-1.29.296-1.934 1.075-.618.752-.618 1.638 0 1.02.806 1.772.832.725 2.229.725 2.202 0 3.84-1.718.457-.484.671-1.048.242-.564.269-.86.027-.295.027-.832v-.966zM151.814 2.766l2.524-.403q.027.054.027.161 0 .135-.107.35-.108.214-.134.322l-.35 3.437h4.754V8.54h-4.78q-.269 2.712-.269 5.693v1.612q.027.644.054.913l.027.268q.16 1.209.832 1.773.698.564 1.611.564 1.504 0 3.277-1.316l.725 1.826q-2.175 1.611-4.646 1.611-2.23 0-3.33-1.53-.86-1.209-.86-3.975 0-3.518.296-7.439h-3.41l.026-1.88h3.464l.269-3.894zM165.215 8.379q1.96-2.041 5.183-2.041 3.599 0 5.076 2.417.698 1.182.698 3.437v9.024h-2.175V19.63q-2.39 1.934-5.21 1.934-2.203 0-3.545-1.209-1.343-1.208-1.343-2.9 0-1.289.832-2.417.86-1.128 2.498-1.746 1.692-.644 5.8-.644H173.97v-.537q0-1.692-.457-2.498-.805-1.396-3.008-1.396-2.631 0-4.162 1.611l-1.128-1.45zm8.835 6.016h-2.229q-2.068 0-3.061.214-1.29.296-1.934 1.075-.618.752-.618 1.638 0 1.02.806 1.772.833.725 2.23.725 2.201 0 3.84-1.718.456-.484.67-1.048.243-.564.27-.86.026-.295.026-.832v-.966zM180.925 1.37h2.578q.027.268-.107.483-.161.376-.161.59V19.31h9.56v1.934h-11.87V1.37zM204.128 1.182q1.853 0 3.384.886 1.558.86 2.39 2.417l-1.557 1.611q-.161-.107-.43-.644-.483-1.048-1.504-1.692-.994-.645-2.283-.645-1.316 0-2.55.725-1.21.725-1.934 2.122-.994 1.853-.994 5.102 0 4.62 1.907 6.768 1.53 1.746 3.76 1.746 1.933 0 3.571-1.209v-4.753h-3.598v-1.907h5.666v7.734q-2.847 2.068-5.828 2.068-1.396 0-2.685-.51-1.29-.537-2.444-1.638-1.155-1.101-1.853-3.115-.698-2.041-.698-4.727 0-2.47.537-4.377.564-1.934 1.396-3.008.833-1.101 1.907-1.8 1.101-.698 2.014-.913.913-.241 1.826-.241zM220.645 1.208q1.96 0 3.598 1.075 1.665 1.047 2.47 2.846l-2.12 1.048q-.135-.108-.135-.323V5.72q.027-.08.027-.107 0-.054-.134-.322-.618-1.048-1.639-1.666-.993-.644-2.148-.644-2.229 0-3.787 2.229-1.53 2.202-1.53 5.989 0 3.867 1.584 6.15 1.611 2.282 3.921 2.282 1.182 0 2.283-.644 1.1-.672 1.772-1.8l1.638 1.075q-.913 1.53-2.497 2.417-1.558.86-3.33.86-1.316 0-2.578-.511-1.263-.537-2.417-1.638-1.155-1.128-1.853-3.17-.699-2.067-.699-4.806 0-2.283.484-4.11.51-1.825 1.289-2.927.779-1.127 1.8-1.853 1.046-.752 2.013-1.02.994-.296 1.988-.296zM246.372 21.216V1.37h2.175l8.326 14.716V1.343h2.363q0 .053-.108.403-.107.188-.107.43v19.067h-1.772L248.52 5.586v15.63h-2.149zM269.495 6.311q2.04 0 3.652 1.262 1.638 1.236 2.095 3.921.16.806.16 1.719 0 .698-.026 1.047h-10.34q.054 1.558.538 2.686.51 1.128 1.262 1.692.779.564 1.558.832.778.242 1.584.242 2.256 0 3.76-1.665L275 19.282q-1.88 2.256-5.21 2.256-3.062 0-5.022-1.96-1.96-1.96-1.96-5.479 0-3.786 1.933-5.774 1.934-2.014 4.754-2.014zm-4.378 6.177h8.003q.027-.161.027-.484 0-1.638-1.101-2.766-1.074-1.155-2.712-1.155-1.424 0-2.686 1.048-1.235 1.02-1.53 3.357zM280.908 6.66h2.39l-.08 2.82q.698-1.504 2.121-2.336 1.45-.833 3.116-.833 2.363 0 3.894 1.585l-1.075 2.202q-.134-.135-.322-.403-.161-.269-.215-.322-.86-1.075-2.417-1.075-2.551 0-4.082 2.444-1.02 1.612-1.02 3.41v7.09h-2.31V6.66zM306.072 8.782V0h2.444q0 .107-.188.483-.135.242-.135.43l.027 18.96q0 .645.161 1.343H306.1q-.161-.537-.161-1.074v-1.263q-.699 1.236-1.907 1.96-1.182.7-2.578.7-2.337 0-4.082-1.988-1.72-1.988-1.72-5.747 0-1.988.565-3.492.564-1.53 1.477-2.363.94-.86 1.96-1.262 1.048-.403 2.149-.403 1.477 0 2.605.672 1.128.671 1.665 1.826zm-4.163-.618q-1.557 0-2.793 1.235-1.235 1.236-1.235 4.029 0 3.222 1.262 4.673 1.29 1.423 2.847 1.423 1.181 0 2.148-.725.994-.752 1.424-2.041.322-.967.322-2.659 0-2.256-.242-3.115-.403-1.477-1.504-2.149-1.074-.67-2.229-.67zM329.678 1.343h11.44v1.933h-9.184v6.258h7.439v1.906h-7.44v9.776h-2.255V1.343zM358.36 13.992q0 3.49-1.934 5.559-1.907 2.04-4.62 2.04-2.82 0-4.833-2.148-1.988-2.148-1.988-5.398 0-3.303 2.015-5.505 2.04-2.202 4.887-2.202 2.659 0 4.566 2.04 1.906 2.042 1.906 5.614zm-6.634-5.694q-1.772 0-3.061 1.504-1.263 1.504-1.263 4.055 0 2.605 1.29 4.19 1.315 1.584 3.141 1.584 1.72 0 2.955-1.45 1.262-1.477 1.262-4.082 0-2.82-1.29-4.297-1.288-1.504-3.034-1.504zM362.36 21.216V6.66h2.337v2.578q.86-1.289 2.122-2.094 1.289-.833 2.712-.833 1.262 0 2.31.698 1.047.672 1.584 1.88.51 1.182.51 3.491v8.836h-2.255v-8.782q0-2.283-.78-3.223-.751-.913-1.986-.913-1.02 0-1.96.645-.94.618-1.532 1.37-.725.94-.725 2.524v8.379h-2.336zM382.664 2.766l2.524-.403q.027.054.027.161 0 .135-.108.35-.107.214-.134.322l-.349 3.437h4.753V8.54h-4.78q-.268 2.712-.268 5.693v1.612q.026.644.053.913l.027.268q.161 1.209.833 1.773.698.564 1.611.564 1.504 0 3.276-1.316l.726 1.826q-2.176 1.611-4.646 1.611-2.23 0-3.33-1.53-.86-1.209-.86-3.975 0-3.518.296-7.439h-3.411l.027-1.88h3.464l.269-3.894z"/></g><g style="line-height:125%" font-size="17.5"><path d="M1.732 53.047q1.248-1.299 3.299-1.299 2.29 0 3.23 1.538.444.752.444 2.188v5.742H7.32v-1.008q-1.521 1.23-3.316 1.23-1.401 0-2.256-.77-.854-.768-.854-1.845 0-.82.53-1.538.546-.718 1.589-1.11 1.077-.41 3.691-.41h.598v-.343q0-1.076-.29-1.589-.513-.889-1.914-.889-1.675 0-2.649 1.026l-.718-.923zm5.623 3.828H5.936q-1.316 0-1.948.137-.82.188-1.23.683-.393.479-.393 1.043 0 .65.512 1.128.53.461 1.419.461 1.401 0 2.444-1.094.29-.307.427-.666.154-.359.17-.547.018-.188.018-.53v-.615zM11.593 47.715h1.709q.034.102-.103.24-.12.084-.12.221v5.196q.445-.752 1.197-1.197.77-.444 1.658-.444 1.504 0 2.615 1.23 1.11 1.23 1.11 3.504 0 2.375-1.162 3.674-1.145 1.299-2.7 1.299-1.76 0-2.751-1.453l-.513 1.23h-.94v-13.5zm3.828 5.28q-.683 0-1.265.377-.58.358-.837.974-.24.598-.24 1.93 0 1.35.052 1.847.086.615.359 1.06.273.426.632.614.376.188.684.274.308.068.598.068.41 0 .82-.137.41-.136.872-.461.461-.342.752-1.06.29-.717.29-1.709 0-.922-.205-1.64-.205-.718-.495-1.111-.29-.393-.684-.632-.393-.24-.718-.308-.307-.085-.615-.085zM30.136 53.474l-1.026 1.213q-.085-.068-.102-.239 0-.17-.035-.222-.034-.051-.12-.154-.085-.12-.29-.307-.205-.205-.461-.36-.257-.153-.667-.273-.41-.12-.854-.12-1.316 0-2.188.94-.871.923-.871 2.479 0 1.623.905 2.666.906 1.042 2.273 1.042 1.453 0 2.461-1.145l.838.974q-1.367 1.47-3.418 1.47-1.966 0-3.264-1.384-1.3-1.385-1.3-3.47 0-2.102 1.3-3.452 1.316-1.367 3.35-1.367 1.11 0 2.016.444.906.445 1.453 1.265zM38.903 53.303v-5.588h1.555q0 .068-.12.307-.085.154-.085.274l.017 12.065q0 .41.102.855H38.92q-.103-.342-.103-.684v-.803q-.444.786-1.213 1.248-.752.444-1.64.444-1.488 0-2.599-1.265-1.093-1.264-1.093-3.657 0-1.265.359-2.222.358-.974.94-1.504.598-.546 1.247-.803.667-.256 1.367-.256.94 0 1.658.427t1.06 1.162zm-2.65-.393q-.99 0-1.777.786-.786.786-.786 2.564 0 2.05.803 2.973.82.906 1.812.906.752 0 1.367-.461.632-.479.906-1.3.205-.614.205-1.691 0-1.436-.154-1.982-.256-.94-.957-1.368-.683-.427-1.418-.427zM47.106 51.73q1.299 0 2.324.804 1.042.786 1.333 2.495.102.513.102 1.094 0 .444-.017.667h-6.58q.035.99.343 1.709.324.717.803 1.076.495.36.991.53.496.154 1.008.154 1.436 0 2.393-1.06l.803.786q-1.196 1.436-3.315 1.436-1.949 0-3.196-1.248-1.248-1.247-1.248-3.486 0-2.41 1.23-3.674 1.231-1.282 3.026-1.282zm-2.786 3.932h5.093q.017-.103.017-.308 0-1.042-.7-1.76-.684-.735-1.727-.735-.906 0-1.709.666-.786.65-.974 2.137zM59.325 47.612q1.794 0 2.837 1.265l-.667 1.35q-.153 0-.153-.17-.035-.172-.086-.24-.7-1.06-2-1.06-1.298 0-1.88 1.026-.324.564-.324 1.811V52.5h3.025v1.162h-3.025v7.554h-1.401v-7.554h-2.017V52.5h2.017v-.906q0-1.555.495-2.358.479-.77 1.333-1.196.855-.428 1.846-.428zM65.409 54.841q0 .838.598 1.436t1.436.598q.854 0 1.435-.581.598-.598.598-1.453 0-.854-.598-1.452-.58-.598-1.418-.598-.855 0-1.453.598-.598.598-.598 1.452zm2.136-3.196q1.299 0 2.188.89 1.025-.838 2.307-.838.034 0 .12.017h.136l.171 1.196q-.256-.051-.53-.051-.871 0-1.623.444.478.718.478 1.572 0 1.282-.991 2.24-.974.94-2.341.94-.547 0-1.18-.223-.666.53-.666 1.042 0 .445.564.616.478.12 1.333.12.205 0 .632-.018.445-.017.667-.017 1.145 0 1.828.29.701.291 1.06.838.376.547.376 1.18 0 1.093-1.06 1.948-1.042.871-3.195.871-2.222 0-3.213-.65-.991-.649-.991-1.537 0-1.077 1.52-2.051-.751-.393-.751-1.248 0-.888 1.06-1.777-.65-.427-1.01-1.094-.358-.666-.358-1.418 0-1.35 1.025-2.307 1.043-.975 2.444-.975zm-1.418 9.075q-1.162.598-1.162 1.436 0 .803.905 1.145.752.29 1.914.29 1.385 0 2.085-.393.872-.461.872-1.23 0-.376-.256-.684-.257-.307-.838-.393-.41-.051-.94-.051h-.342q-.46 0-.683-.017-.7-.017-1.555-.103zM74.757 61.216V47.749h1.675l.017.017q.017.017.017.034 0 .086-.137.222-.085.086-.085.188v5.384q.547-.82 1.35-1.333.82-.53 1.726-.53.803 0 1.47.444.666.428 1.008 1.197.325.752.325 2.221v5.623h-1.436v-5.589q0-1.452-.495-2.05-.479-.581-1.265-.581-.65 0-1.248.41-.598.393-.974.871-.461.599-.461 1.607v5.332h-1.487zM85.985 51.936h3.709v8.1h2.17v1.18h-5.999v-1.18h2.359v-6.904h-2.239v-1.196zm2.256-3.708q.308-.308.752-.308t.752.308q.307.307.307.734 0 .428-.307.735-.308.308-.752.308t-.752-.308q-.29-.307-.29-.735 0-.427.29-.734zM96.888 51.936h4.905v8.63q0 1.538-.41 2.342-.461.888-1.35 1.367-.872.478-1.897.478-1.76 0-2.82-1.298l.94-1.265q.069.051.103.188.034.137.068.188.068.12.24.29.17.188.615.41.444.223.957.223.598 0 1.093-.308.513-.307.77-.854.222-.496.222-1.487v-7.69h-3.436v-1.214zm3.453-3.708q.307-.308.752-.308.444 0 .734.308.308.307.308.734 0 .428-.308.735-.29.308-.734.308-.445 0-.752-.308-.308-.307-.308-.735 0-.427.308-.734zM106.168 47.749h1.658q.017.137-.103.29-.085.103-.085.223v7.946l4.631-4.306q.445.102 1.094.102h.53l-3.914 3.675 4.563 5.554h-.154l-1.743.068-3.777-4.716-1.23 1.127v3.52h-1.47V47.75zM117.037 47.749h4.085v12.288h2.734v1.179h-6.955v-1.18h2.751V48.912h-2.615V47.75zM126.573 61.216v-9.263h1.35l-.017.923q.325-.513.838-.82.513-.325 1.06-.325.615 0 1.076.393.462.376.564.957.274-.615.837-.974.582-.376 1.248-.376.974 0 1.436.735.376.53.376 1.846v6.921h-1.385v-6.58-.239q.017-.188.017-.273 0-.496-.136-.838-.24-.512-.735-.512-.564 0-1.077.854-.393.684-.393 1.453v6.118h-1.367v-6.443-.205q.017-.137.017-.222 0-.496-.103-.804-.205-.683-.854-.683-.667 0-1.11.854-.308.599-.308 1.333v6.17h-1.334zM137.682 61.216v-9.263h1.487v1.64q.547-.82 1.35-1.332.82-.53 1.726-.53.803 0 1.47.444.666.428 1.008 1.197.325.752.325 2.221v5.623h-1.436v-5.589q0-1.452-.496-2.05-.478-.581-1.264-.581-.65 0-1.248.41-.598.393-.974.871-.461.598-.461 1.607v5.332h-1.487zM156.122 56.619q0 2.221-1.23 3.537-1.214 1.3-2.94 1.3-1.795 0-3.076-1.368-1.265-1.367-1.265-3.435 0-2.102 1.282-3.504 1.299-1.401 3.11-1.401 1.692 0 2.905 1.299 1.214 1.299 1.214 3.572zm-4.221-3.623q-1.128 0-1.949.957-.803.957-.803 2.58 0 1.658.82 2.666.838 1.009 2 1.009 1.094 0 1.88-.923.803-.94.803-2.598 0-1.794-.82-2.734-.82-.957-1.931-.957zM158.497 51.953h1.487v1.419q.479-.752 1.248-1.18.786-.444 1.674-.444 1.504 0 2.632 1.213 1.128 1.214 1.128 3.504 0 2.392-1.162 3.691-1.145 1.3-2.717 1.3-.838 0-1.59-.394-.734-.393-1.196-1.077V64.6h-1.487l-.017-12.647zm3.88 1.043q-.718 0-1.316.376-.581.358-.838.974-.239.564-.239 1.811 0 2.102.256 2.735.274.615.855.957.581.324 1.265.324.393 0 .803-.12.427-.136.906-.46.478-.343.769-1.06.307-.718.307-1.743 0-1.18-.307-2-.308-.82-.804-1.18-.478-.358-.871-.478-.393-.136-.786-.136zM175.365 53.303v-1.35h1.384V64.6h-1.452v-4.871q-.445.769-1.214 1.23-.752.462-1.623.462-1.59 0-2.718-1.367-1.11-1.367-1.11-3.555 0-2.239 1.196-3.503 1.196-1.282 2.837-1.282.58 0 1.06.17.495.155.785.394.291.24.496.478.205.223.29.393l.069.154zm-2.649-.393q-1.06 0-1.846.855-.769.837-.769 2.512 0 1.846.786 2.854.804 1.008 1.88 1.008.735 0 1.368-.478.649-.479.905-1.282.188-.581.188-1.675 0-1.623-.222-2.222-.29-.786-.94-1.179-.65-.393-1.35-.393zM180.287 51.953h1.52l-.05 1.795q.444-.957 1.35-1.487.923-.53 1.982-.53 1.504 0 2.478 1.008l-.683 1.402q-.086-.086-.206-.257-.102-.17-.136-.205-.547-.683-1.538-.683-1.624 0-2.598 1.555-.65 1.025-.65 2.17v4.512h-1.47v-9.28zM197.53 53.184l-.854 1.281q-.103 0-.103-.188 0-.102-.05-.17-1.026-1.265-2.564-1.265-.804 0-1.385.359-.564.341-.564.888 0 .667.906 1.128.36.171 1.59.53 1.247.359 1.828.684 1.35.769 1.35 2.102 0 1.145-1.025 2.016-1.025.872-2.82.872-2.341 0-3.913-1.47l.837-1.452q.085.05.085.188 0 .136.069.222 1.162 1.299 2.888 1.299 1.008 0 1.692-.41.683-.41.683-1.06 0-.735-.922-1.18-.394-.187-1.316-.478-.923-.29-1.162-.376-.394-.154-.599-.24-.188-.102-.683-.392-.479-.308-.735-.752-.24-.445-.24-1.008 0-1.077.992-1.83.991-.751 2.563-.751 2.137 0 3.452 1.453zM203.068 49.475l1.606-.256q.017.034.017.102 0 .086-.068.222-.069.137-.086.206l-.222 2.187h3.025v1.213h-3.042q-.17 1.726-.17 3.623v1.026q.016.41.033.58l.017.172q.103.769.53 1.128.445.359 1.026.359.957 0 2.085-.838l.461 1.162q-1.384 1.026-2.957 1.026-1.418 0-2.119-.974-.547-.77-.547-2.53 0-2.238.188-4.734h-2.17l.017-1.196h2.205l.17-2.478zM211.031 51.953h1.47v5.161q0 1.35.325 2 .581 1.145 1.777 1.145.65 0 1.23-.376.582-.393.907-.991.358-.684.358-1.846v-5.093h1.47v8.425q0 .513.103.838h-1.538q-.035-.24-.035-.718l.017-.7q-.444.751-1.213 1.196-.769.444-1.64.444-.94 0-1.727-.479-.769-.495-1.162-1.4-.359-.77-.359-2.445l.017-5.16zM221.046 51.936h1.76q.017.103-.034.24-.034.136-.034.17 0 .017.034.12l2.666 6.767 1.487-3.435q.974-2.238 1.265-3.862h1.316q-.342 1.606-1.385 4.067l-2.256 5.281h-1.145l-3.674-9.348zM231.06 51.936h1.488q.05.154-.035.41-.068.188-.017.36l1.333 6.698 1.607-6.596h.888l1.966 6.562q.854-5.571.854-7.024v-.393h1.35q-.632 4.785-1.555 9.28h-1.35l-1.726-5.999-1.624 5.999h-1.315l-1.863-9.297zM248.578 51.936h1.487l-2.991 4.512 3.4 4.768h-1.657l-2.563-3.606-2.41 3.606h-1.64l3.246-4.717-3.195-4.563h1.589l2.427 3.435 2.307-3.435zM252.662 51.953h1.812q.017.103-.034.24-.052.136-.052.204 0 .052.035.154l2.717 6.82 1.76-4.957q.513-1.401.7-2.478h1.522q-.274.906-.923 2.683l-2.888 7.64q-.393 1.008-.803 1.469-.89 1.008-2.325 1.008-1.196 0-2-.769l.753-1.316q.051.035.068.086.034.068.051.137.018.068.035.102.034.086.136.188.12.12.376.24.274.136.581.136.718 0 1.3-.598.341-.359.632-1.077l.307-.683-3.76-9.229zM263.651 51.936h7.212v1.008l-5.657 7.024h5.52q.137 0 .29-.051.172-.068.257-.068h.069v1.384h-8.101v-.991l5.742-7.024h-5.332v-1.282zM.194 83.108l4.46-12.886h.154l4.888 12.869h-1.47l-1.401-3.692H2.809l-1.214 3.709h-1.4zm6.306-4.82l-1.777-4.802-1.624 4.803H6.5zM11.37 70.461h3.59q1.572 0 2.358.342.872.376 1.35 1.128.479.735.479 1.607 0 .905-.513 1.674-.513.77-1.35 1.111 1.06.36 1.709 1.265.65.889.65 2 0 1.008-.548 1.862-.546.838-1.555 1.265-.871.376-2.614.376H11.37V70.46zm1.402 1.197v4.033h1.966q1.145 0 1.76-.274.58-.256.888-.717.325-.462.325-1.026 0-.564-.342-1.042-.324-.479-.94-.735-.615-.24-1.674-.24h-1.983zm0 5.212v4.973h2.41q1.042 0 1.623-.256.65-.29.992-.855.359-.58.359-1.281t-.376-1.316q-.376-.615-1.06-.94-.667-.325-1.897-.325h-2.05zM26.512 70.359q1.248 0 2.29.683 1.06.667 1.573 1.812l-1.35.666q-.086-.068-.086-.205v-.085q.017-.051.017-.068 0-.035-.085-.205-.393-.667-1.043-1.06-.632-.41-1.367-.41-1.418 0-2.41 1.418-.974 1.402-.974 3.811 0 2.461 1.009 3.914 1.025 1.453 2.495 1.453.752 0 1.452-.41.701-.428 1.128-1.146l1.043.684q-.581.974-1.59 1.538-.99.547-2.119.547-.837 0-1.64-.325-.803-.342-1.538-1.042-.735-.718-1.18-2.017-.444-1.316-.444-3.059 0-1.453.308-2.615.324-1.162.82-1.863.496-.717 1.145-1.179.667-.478 1.282-.65.632-.187 1.264-.187zM32.46 70.461h2.956q.974 0 1.64.137.667.12 1.3.53 1.179.769 1.76 2.256.581 1.47.581 3.366 0 2.085-.735 3.624-.718 1.538-2.068 2.221-.99.513-2.734.513h-2.7V70.46zm1.35 1.197V81.98h1.282q1.538 0 2.375-.564 1.794-1.213 1.794-4.478 0-3.298-1.555-4.58-.854-.7-2.375-.7H33.81zM43.055 70.444h7.76v1.248h-6.41v4.153h5.281v1.299h-5.28v4.682h6.34v1.265h-7.69V70.444zM53.925 70.444h7.28v1.23H55.36v3.983h4.734v1.213H55.36v6.22h-1.435V70.445zM68.468 70.342q1.18 0 2.153.564.992.547 1.521 1.538l-.99 1.025q-.103-.068-.274-.41-.308-.666-.957-1.077-.633-.41-1.453-.41-.837 0-1.624.462-.769.461-1.23 1.35-.632 1.179-.632 3.247 0 2.94 1.213 4.306.974 1.111 2.393 1.111 1.23 0 2.273-.769v-3.025h-2.29v-1.213h3.606v4.922q-1.812 1.316-3.709 1.316-.889 0-1.709-.325-.82-.342-1.555-1.042-.735-.701-1.18-1.983-.444-1.299-.444-3.008 0-1.572.342-2.785.359-1.23.889-1.914.53-.701 1.213-1.145.7-.445 1.282-.581.581-.154 1.162-.154zM74.45 70.461h1.572q.017.035.017.086 0 .068-.069.17-.05.103-.05.223v4.922h4.955v-5.4h1.538q.017.017.017.085t-.068.17q-.068.086-.068.189v12.202h-1.436v-6.033h-4.939v6.016h-1.47V70.46zM85.626 70.461h6.255v1.18h-2.495v10.288h2.615v1.179h-6.529v-1.196h2.496V71.64h-2.342v-1.18zM97.811 70.461h5.777v1.18h-1.949v7.212q0 .649-.017.974 0 .307-.12.854-.119.53-.341.957-.444.803-1.213 1.248-.752.427-1.675.427-1.76 0-2.94-1.401l.94-1.145q.069.05.069.188.017.12.05.17.94.94 1.915.94.974 0 1.487-.82.444-.65.444-2.204V71.64h-2.427v-1.179zM105.673 70.444h1.709q.017.12-.12.29-.086.103-.086.223v5.332l5.298-5.93q.41.102 1.043.102h.53l-4.786 5.452 5.11 7.195-1.794.068-4.392-6.408-1.009 1.093v5.23h-1.503V70.444zM116.661 70.461h1.641q.017.171-.068.308-.103.24-.103.376v10.732h6.084v1.23h-7.554V70.462zM126.625 70.461h1.128l3.127 6.17 3.196-6.187h1.06v12.664h-1.35v-9.553l-2.735 5.092h-.53l-2.563-5.024v9.485h-1.333V70.46zM137.323 83.09V70.462h1.384l5.298 9.366v-9.383h1.504q0 .035-.068.257-.069.12-.069.273v12.134h-1.128l-5.554-9.963v9.946h-1.367zM156.344 76.802q0 2.512-.752 4.033-.598 1.213-1.59 1.829-.973.615-2.05.615-.786 0-1.538-.325-.752-.342-1.47-1.06-.7-.717-1.128-2.033-.427-1.333-.427-3.11 0-1.436.29-2.564.308-1.145.77-1.846.46-.717 1.076-1.179.615-.478 1.214-.666.598-.188 1.196-.188 1.076 0 2.05.615.992.615 1.59 1.777.769 1.521.769 4.102zm-4.46-5.161q-.547 0-1.06.256-.513.24-.991.786-.462.53-.752 1.538t-.29 2.341q0 2.735.956 4.034.957 1.299 2.205 1.299.7 0 1.35-.41.65-.428 1.06-1.3.564-1.179.564-3.195 0-2.17-.479-3.35-.41-1.025-1.11-1.504-.702-.495-1.453-.495zM159.95 71.777l-.017 4.495h2.546q.906 0 1.47-.273 1.128-.582 1.128-1.915 0-.632-.308-1.179-.307-.547-.888-.837-.599-.29-1.556-.29h-2.375zm-1.47-1.316h3.845q1.59 0 2.393.428.872.444 1.333 1.298.479.838.479 1.83 0 .99-.479 1.828-.461.82-1.316 1.264-.769.393-2.307.393h-2.478v5.589h-1.47V70.46zM172.853 71.606q-1.214 0-2.154 1.214-.94 1.196-.94 3.725 0 2.752.94 4.085.957 1.333 2.24 1.333.358 0 .717-.103.376-.102.803-.427.427-.342.752-.854.325-.53.53-1.453.222-.923.222-2.12 0-2.187-.495-3.383-.428-1.042-1.145-1.521-.718-.496-1.47-.496zm4.477 5.213q0 2.512-.752 4.033-.512 1.008-1.298 1.624-.77.598-1.675.752.034 1.52 1.487 1.52.256 0 .837-.05.598-.035.82-.052l-.051 1.384h-1.145q-1.35 0-1.982-.307-1.197-.599-1.197-2.41v-.086q-.735-.102-1.418-.495-.667-.41-1.265-1.145-.598-.735-.957-1.983-.359-1.247-.359-2.854 0-1.777.427-3.093.445-1.316 1.145-2 .701-.7 1.453-1.025.752-.325 1.521-.325 1.094 0 2.068.633.991.615 1.59 1.794.751 1.521.751 4.085zM179.415 70.461h3.726q1.572 0 2.41.428.854.444 1.315 1.247.479.803.479 1.778 0 1.264-.718 2.255-.718.975-1.863 1.282l2.923 5.64h-1.59l-2.802-5.589h-2.444v5.589h-1.436V70.46zm1.436 1.316v4.495h2.444q.94 0 1.47-.256 1.127-.581 1.127-1.932 0-.632-.324-1.179-.308-.564-.872-.854-.547-.274-1.555-.274h-2.29zM197.582 71.965l-.889 1.197q-.102-.035-.102-.154 0-.12-.052-.205-.854-1.248-2.563-1.248-1.043 0-1.675.547-.615.53-.615 1.299 0 1.145 1.299 1.897.29.17 1.845.82 1.555.632 2.188 1.248.974.94.974 2.29 0 1.401-1.06 2.529-1.042 1.11-3.144 1.11-2.478 0-3.965-1.623l.837-1.452q.086.034.086.188 0 .136.068.222.462.598 1.248 1.008.786.393 1.76.393 1.282 0 2.017-.7.752-.718.752-1.607 0-1.077-1.06-1.743-.376-.24-1.846-.82-1.452-.581-2.102-1.077-1.35-1.008-1.35-2.461 0-1.333 1.077-2.273 1.094-.957 2.768-.957 2.17 0 3.504 1.572zM199.889 70.444h8.75v1.265h-3.726v11.399h-1.435V71.709h-3.59v-1.265zM210.775 70.461h1.59q.017.035.017.103 0 .085-.137.273-.069.103-.069.274v7.639q0 1.248.291 1.863.342.718.991 1.11.65.394 1.419.394t1.418-.376q.65-.393.991-1.111.325-.684.325-1.931V70.46h1.35v8.204q0 1.726-.513 2.683-.512.957-1.486 1.47-.957.495-2.102.495t-2.12-.513q-.974-.512-1.486-1.452-.479-.906-.479-2.615V70.46zM220.756 70.444h1.486l3.23 9.707 3.077-9.69h1.401l-4.238 12.715h-.65l-4.306-12.732zM231.095 70.461h1.316l1.35 8.528 2.034-7.605h.444l2.05 7.64 1.146-8.563h1.196l-2 12.715h-.563l-2.17-8.34-2.205 8.34h-.564l-2.034-12.715zM248.92 70.444h1.418l-3.196 6.17 3.572 6.477h-1.59l-2.802-5.008-2.7 5.008h-1.572l3.469-6.443-3.401-6.204h1.538l2.649 4.803 2.615-4.803zM252.303 70.444h1.607l3.093 6.136 2.803-6.119h1.504l-3.59 7.64v4.99h-1.537V78.1l-3.88-7.657zM263.48 70.461h7.81l-.017.992-6.255 10.39h5.965q.12 0 .29-.051.171-.068.257-.068h.068v1.384h-8.357v-.991l6.357-10.391h-6.118v-1.265zM9.218 100.369q0 2.221-1.23 3.537-1.214 1.3-2.94 1.3-1.795 0-3.077-1.368-1.264-1.367-1.264-3.435 0-2.102 1.282-3.504 1.298-1.401 3.11-1.401 1.692 0 2.905 1.299 1.214 1.299 1.214 3.572zm-4.222-3.623q-1.128 0-1.948.957-.803.957-.803 2.58 0 1.658.82 2.666.838 1.009 2 1.009 1.093 0 1.88-.923.803-.94.803-2.598 0-1.794-.82-2.734-.82-.957-1.932-.957zM19.933 98.677q0 2.512-.752 4.033-.598 1.213-1.59 1.829-.974.615-2.05.615-.786 0-1.538-.325-.752-.342-1.47-1.06-.7-.717-1.128-2.033-.427-1.333-.427-3.11 0-1.436.29-2.564.308-1.145.77-1.846.46-.717 1.076-1.179.615-.478 1.213-.666.599-.188 1.197-.188 1.076 0 2.05.615.992.615 1.59 1.777.769 1.521.769 4.102zm-4.46-5.161q-.547 0-1.06.256-.513.24-.991.786-.462.53-.752 1.538t-.29 2.341q0 2.735.956 4.034.957 1.299 2.205 1.299.7 0 1.35-.41.65-.428 1.06-1.3.563-1.179.563-3.195 0-2.17-.478-3.35-.41-1.025-1.11-1.504-.702-.495-1.454-.495zM23.129 94.062q1.247-1.811 2.837-1.811 1.589 0 2.802 1.794 1.23 1.778 1.23 4.82 0 1.555-.375 2.802-.36 1.248-.957 2-.581.735-1.282 1.128-.684.393-1.384.393-1.607 0-2.854-1.76-1.248-1.778-1.248-4.683 0-2.888 1.23-4.683zm4.819 1.077q-.393-.803-.94-1.23-.53-.428-1.06-.428-1.025 0-1.88 1.385-.854 1.367-.854 3.64 0 1.196.29 2.392l4.444-5.759zm.461 1.35l-4.443 5.691q.41.82.957 1.282.564.444 1.128.444.991 0 1.812-1.23.82-1.23.82-3.657 0-1.385-.274-2.53zM36.613 92.166q1.384 0 2.324.871.957.872.957 2.12 0 .905-.547 1.742-.547.838-1.47 1.316 1.077.496 1.76 1.453.684.94.684 2.034 0 1.452-1.128 2.46-1.11 1.009-2.768 1.009-1.624 0-2.735-.974-1.094-.991-1.094-2.41 0-1.077.684-2.034.7-.974 1.829-1.503-.872-.445-1.402-1.231-.512-.803-.512-1.726 0-1.299.99-2.205.992-.922 2.428-.922zm-.428 6.665q-.923.376-1.538 1.145-.598.752-.598 1.623 0 .957.7 1.64.719.667 1.744.667 1.008 0 1.692-.65.7-.666.7-1.589 0-.922-.734-1.674-.735-.77-1.966-1.162zm.308-5.47q-.82 0-1.384.53-.547.53-.547 1.282 0 .462.222.906.24.427.564.718.325.273.65.495.324.223.563.325l.222.086q.77-.41 1.248-1.06.479-.666.479-1.384 0-.803-.599-1.35-.58-.547-1.418-.547zM54.506 95.686h3.708v8.1h2.17v1.18h-5.998v-1.18h2.358v-6.904h-2.238v-1.196zm2.255-3.708q.308-.308.752-.308.445 0 .752.308.308.307.308.734 0 .428-.308.735-.307.308-.752.308-.444 0-.752-.308-.29-.307-.29-.735 0-.427.29-.734zM64.64 92.336h6.255v1.18H68.4v10.288h2.614v1.179h-6.528v-1.196h2.495V93.516H64.64v-1.18zM75.065 91.499h4.084v12.288h2.735v1.179h-6.956v-1.18h2.751V92.662h-2.614V91.5zM85.182 92.336h1.64q.018.171-.068.308-.102.24-.102.376v10.732h6.084v1.23h-7.554V92.337zM100.409 92.32v12.663H98.99V94.08l-2.546.752-.325-.787 3.299-1.726h.99zM116.388 99.207h.393q.906 0 1.367-.462.53-.564.53-1.709 0-.24-.034-.718-.017-.478-.017-.735 0-1.811.99-2.734.872-.803 2.906-.803h1.077v1.162h-1.128q-.256-.017-.376-.017-.786 0-1.248.273-.82.513-.82 1.897 0 .24.034.701.034.461.034.718 0 .94-.341 1.623-.462.974-1.436 1.367 1.726.582 1.726 3.145 0 .325-.034.889-.034.564-.034.82 0 1.504.837 2.085.513.342 1.624.342h1.145v1.128h-1.367q-.599 0-.957-.035-.36-.017-.804-.153-.444-.137-.786-.41-1.128-.872-1.128-2.94 0-.41.034-1.077.052-.666.052-.957 0-1.333-.547-1.862-.41-.393-1.282-.393h-.41v-1.146zM134.896 99.207v1.145h-.427q-.872 0-1.282.393-.53.512-.53 1.862 0 .29.035.957.051.667.051 1.077 0 2.05-1.145 2.94-.479.376-1.06.478-.58.12-1.47.12h-1.367v-1.128H128.83q1.128 0 1.641-.342.837-.581.837-2.085 0-.256-.034-.82t-.034-.889q0-2.58 1.709-3.145-.974-.393-1.436-1.367-.324-.65-.324-1.623 0-.257.034-.718.034-.461.034-.7 0-1.385-.82-1.898-.462-.273-1.248-.273-.12 0-.393.017H127.685v-1.162h1.059q2.034 0 2.905.803 1.009.923 1.009 2.734 0 .257-.035.735-.017.479-.017.718 0 1.162.513 1.71.461.46 1.367.46h.41zM149.457 91.38h5.793v1.213h-4.494v13.022h4.511v1.145h-5.81V91.38zM164.786 91.38v15.38h-5.81v-1.145h4.512V92.593h-4.495v-1.214h5.793zM180.834 98.591q0 .838.598 1.436t1.435.598q.855 0 1.436-.581.598-.598.598-1.453 0-.854-.598-1.452-.581-.598-1.418-.598-.855 0-1.453.598-.598.598-.598 1.452zm2.136-3.196q1.299 0 2.187.89 1.026-.838 2.308-.838.034 0 .12.017h.136l.17 1.196q-.256-.051-.529-.051-.872 0-1.623.444.478.718.478 1.572 0 1.282-.991 2.24-.974.94-2.341.94-.547 0-1.18-.223-.666.53-.666 1.042 0 .445.564.616.478.12 1.333.12.205 0 .632-.018.444-.017.667-.017 1.145 0 1.828.29.7.291 1.06.838.376.547.376 1.18 0 1.093-1.06 1.948-1.042.871-3.196.871-2.221 0-3.212-.65-.992-.649-.992-1.537 0-1.077 1.521-2.051-.752-.393-.752-1.248 0-.888 1.06-1.777-.65-.427-1.008-1.094-.36-.666-.36-1.418 0-1.35 1.026-2.307 1.043-.975 2.444-.975zm-1.418 9.075q-1.163.598-1.163 1.436 0 .803.906 1.145.752.29 1.914.29 1.385 0 2.085-.393.872-.461.872-1.23 0-.376-.257-.684-.256-.307-.837-.393-.41-.051-.94-.051h-.342q-.461 0-.683-.017-.701-.017-1.555-.103zM193.173 105.17q-1.624 0-2.803-1.144l.991-1.094q.103.069.171.256.068.171.154.24.615.461 1.52.461.753 0 1.436-.427.701-.427 1.077-1.316.444-1.145.496-3.127-.957 1.367-2.598 1.367-1.436 0-2.461-1.111-1.008-1.11-1.008-2.888 0-1.812 1.06-2.991 1.059-1.18 2.563-1.18 1.076 0 2.016.684t1.419 2.051q.427 1.265.427 3.538 0 2.239-.53 3.742-.547 1.436-1.623 2.188-1.077.752-2.307.752zm.58-6.032q.684 0 1.317-.41.649-.427 1.076-1.128.034-.41.034-.615 0-1.59-.717-2.547-.701-.974-1.726-.974-.923 0-1.573.77-.632.768-.632 2.101t.65 2.068q.666.735 1.572.735zM206.844 97.053v-1.35h1.385v12.647h-1.453v-4.871q-.444.769-1.213 1.23-.752.462-1.624.462-1.59 0-2.717-1.367-1.11-1.367-1.11-3.555 0-2.239 1.195-3.503 1.197-1.282 2.837-1.282.581 0 1.06.17.495.155.786.394.29.24.496.478.205.223.29.393l.069.154zm-2.648-.393q-1.06 0-1.846.855-.77.837-.77 2.512 0 1.846.787 2.854.803 1.008 1.88 1.008.735 0 1.367-.478.65-.479.906-1.282.188-.581.188-1.675 0-1.623-.222-2.222-.29-.786-.94-1.179-.65-.393-1.35-.393zM215.39 92.234q1.247 0 2.29.683 1.059.667 1.572 1.812l-1.35.666q-.086-.068-.086-.205v-.085q.017-.051.017-.068 0-.035-.085-.205-.393-.667-1.043-1.06-.632-.41-1.367-.41-1.418 0-2.41 1.418-.974 1.402-.974 3.811 0 2.461 1.009 3.914 1.025 1.453 2.495 1.453.752 0 1.453-.41.7-.428 1.127-1.146l1.043.684q-.581.974-1.59 1.538-.99.547-2.119.547-.837 0-1.64-.325-.803-.342-1.538-1.042-.735-.718-1.18-2.017-.444-1.316-.444-3.059 0-1.453.308-2.615.325-1.162.82-1.863.496-.717 1.145-1.179.667-.478 1.282-.65.632-.187 1.265-.187zM225.865 92.217q1.18 0 2.154.564.991.547 1.52 1.538l-.99 1.025q-.103-.068-.274-.41-.307-.666-.957-1.077-.632-.41-1.453-.41-.837 0-1.623.462-.77.461-1.23 1.35-.633 1.179-.633 3.247 0 2.94 1.214 4.306.974 1.111 2.392 1.111 1.23 0 2.273-.769v-3.025h-2.29v-1.213h3.606v4.922q-1.812 1.316-3.709 1.316-.888 0-1.709-.325-.82-.342-1.555-1.042-.735-.701-1.179-1.983-.444-1.299-.444-3.008 0-1.572.342-2.785.358-1.23.888-1.914.53-.701 1.214-1.145.7-.445 1.281-.581.581-.154 1.162-.154zM235.812 93.481q-1.214 0-2.154 1.214-.94 1.196-.94 3.725 0 2.752.94 4.085.957 1.333 2.24 1.333.358 0 .717-.103.376-.102.803-.427.427-.342.752-.854.325-.53.53-1.453.222-.923.222-2.12 0-2.187-.495-3.383-.428-1.042-1.146-1.521-.717-.496-1.47-.496zm4.477 5.213q0 2.512-.752 4.033-.512 1.008-1.298 1.624-.77.598-1.675.752.034 1.52 1.487 1.52.256 0 .837-.05.598-.035.82-.052l-.051 1.384h-1.145q-1.35 0-1.982-.307-1.197-.599-1.197-2.41v-.086q-.735-.102-1.418-.495-.667-.41-1.265-1.145-.598-.735-.957-1.983-.359-1.247-.359-2.854 0-1.777.427-3.093.445-1.316 1.145-2 .701-.7 1.453-1.025.752-.325 1.521-.325 1.094 0 2.068.633.991.615 1.59 1.794.751 1.521.751 4.085zM253.585 98.027l-1.025-.65q.478-.802 1.213-1.315.752-.513 1.572-.513.564 0 1.06.24.513.239.82.53.308.273.701.512.41.24.786.24.462 0 .838-.325.393-.325.888-.992l.923.77q-1.247 1.88-2.803 1.88-.547 0-1.042-.257-.479-.256-.77-.547-.29-.308-.683-.564-.393-.256-.803-.256-.906 0-1.675 1.247zM263.651 97.908h7.297v1.35h-7.297v-1.35zM277.203 94.353h1.282v3.47h3.47v1.247h-3.47v3.794h-1.282V99.07h-3.588v-1.248h3.588v-3.469zM284.108 96.062h8.34v1.248h-8.34v-1.248zm0 4.204h8.34v1.248h-8.34v-1.248zM294.55 94.9v-1.436l8.596 4.512v.991l-8.648 5.042v-1.521l7.093-4-7.041-3.588z"/></g></g></svg>