<?xml version="1.0" encoding="UTF-8" standalone="no"?>
<svg
   version="1.1"
   id="svg2"
   viewBox="0 0 332.34791 107.45749"
   height="30.326891mm"
   width="93.795967mm"
   sodipodi:docname="IntoneMono Nerd Font.svg"
   xmlns:inkscape="http://www.inkscape.org/namespaces/inkscape"
   xmlns:sodipodi="http://sodipodi.sourceforge.net/DTD/sodipodi-0.dtd"
   xmlns="http://www.w3.org/2000/svg"
   xmlns:svg="http://www.w3.org/2000/svg"
   xmlns:rdf="http://www.w3.org/1999/02/22-rdf-syntax-ns#"
   xmlns:cc="http://creativecommons.org/ns#"
   xmlns:dc="http://purl.org/dc/elements/1.1/">
  <sodipodi:namedview
     id="namedview12"
     pagecolor="#ffffff"
     bordercolor="#000000"
     borderopacity="0.25"
     inkscape:showpageshadow="2"
     inkscape:pageopacity="0.0"
     inkscape:pagecheckerboard="0"
     inkscape:deskcolor="#d1d1d1"
     inkscape:document-units="mm" />
  <defs
     id="defs4" />
  <metadata
     id="metadata7">
    <rdf:RDF>
      <cc:Work
         rdf:about="">
        <dc:format>image/svg+xml</dc:format>
        <dc:type
           rdf:resource="http://purl.org/dc/dcmitype/StillImage" />
        <dc:title />
      </cc:Work>
    </rdf:RDF>
  </metadata>
  <g
     id="layer1"
     transform="translate(-66.119403,-81.408632)">
    <g
       aria-label="IntoneMono Nerd Font"
       id="text4136"
       style="font-size:27.5px;line-height:125%;font-family:'IntoneMono Nerd Font';text-decoration:underline;text-decoration-line:underline;letter-spacing:0px;word-spacing:0px;fill:#ffffff;stroke-width:1px">
      <path
         d="m 66.459643,100.93363 v -1.182498 l 3.6575,-0.6325 v -14.3825 l -3.6575,-0.6325 v -1.1825 h 9.68 v 1.1825 l -3.63,0.6325 v 14.3825 l 3.63,0.6325 v 1.182498 z"
         id="path14" />
      <path
         d="m 82.354653,88.146132 h 2.0075 l 0.2475,2.86 q 1.7875,-1.705 3.025,-2.365 1.2375,-0.6875 2.585,-0.6875 1.87,0 2.86,1.0725 1.0175,1.045 1.0175,2.9975 v 8.909998 h -2.365 v -8.497498 q 0,-1.21 -0.5225,-1.76 -0.5225,-0.5775 -1.65,-0.5775 -0.9625,0 -2.035,0.66 -1.045,0.66 -2.805,2.31 v 7.864998 h -2.365 z"
         id="path16" />
      <path
         d="m 102.64966,96.066132 v -5.94 h -4.317497 v -1.98 h 4.344997 v -4.7575 h 2.2825 v 4.7575 h 5.6925 v 1.98 h -5.665 v 5.61 q 0,1.76 0.5225,2.42 0.5225,0.66 2.035,0.7425 l 3.8775,0.22 -0.165,2.007498 -4.2625,-0.1925 q -2.53,-0.1375 -3.4375,-1.154998 -0.9075,-1.0175 -0.9075,-3.7125 z"
         id="path18" />
      <path
         d="m 128.63717,94.581132 q 0,2.9975 -1.8975,4.895 -1.87,1.869998 -4.84,1.869998 -2.9425,0 -4.785,-1.897498 -1.8425,-1.8975 -1.8425,-4.95 0,-2.97 1.8975,-4.8675 1.8975,-1.8975 4.84,-1.8975 2.915,0 4.7575,1.925 1.87,1.8975 1.87,4.9225 z m -10.9725,-0.055 q 0,2.2275 1.155,3.5475 1.1825,1.2925 3.135,1.2925 1.98,0 3.135,-1.2925 1.155,-1.2925 1.155,-3.52 0,-2.1725 -1.1825,-3.52 -1.1825,-1.3475 -3.1075,-1.3475 -1.925,0 -3.1075,1.32 -1.1825,1.32 -1.1825,3.52 z"
         id="path20" />
      <path
         d="m 133.00968,88.146132 h 2.0075 l 0.2475,2.86 q 1.7875,-1.705 3.025,-2.365 1.2375,-0.6875 2.585,-0.6875 1.87,0 2.86,1.0725 1.0175,1.045 1.0175,2.9975 v 8.909998 h -2.365 v -8.497498 q 0,-1.21 -0.5225,-1.76 -0.5225,-0.5775 -1.65,-0.5775 -0.9625,0 -2.035,0.66 -1.045,0.66 -2.805,2.31 v 7.864998 h -2.365 z"
         id="path22" />
      <path
         d="m 157.09969,99.201132 2.64,0.0825 -0.0825,1.842498 -3.245,-0.055 q -3.5475,-0.055 -5.3075,-1.622498 -1.76,-1.595 -1.76,-4.7025 0,-3.0525 1.87,-5.0325 1.8975,-1.98 4.785,-1.98 2.8875,0 4.51,1.76 1.6225,1.7325 1.6225,4.895 0,0.3025 -0.0275,0.55 -0.0275,0.2475 -0.055,0.44 h -10.3675 q 0.1925,1.925 1.4575,2.8325 1.2925,0.9075 3.96,0.99 z m -1.1,-9.5975 q -1.6775,0 -2.86,1.1 -1.155,1.0725 -1.4025,2.915 h 8.0575 q -0.1375,-1.98 -1.1,-2.9975 -0.9625,-1.0175 -2.695,-1.0175 z"
         id="path24" />
      <path
         d="m 175.9647,82.921132 h 2.64 l 0.7425,18.012498 h -2.255 l -0.4675,-15.262498 -3.74,10.34 h -0.55 l -3.74,-10.0375 -0.4675,14.959998 h -2.255 l 0.7425,-18.012498 h 2.6675 l 3.355,8.9925 z"
         id="path26" />
      <path
         d="m 196.17721,94.581132 q 0,2.9975 -1.8975,4.895 -1.87,1.869998 -4.84,1.869998 -2.9425,0 -4.785,-1.897498 -1.8425,-1.8975 -1.8425,-4.95 0,-2.97 1.8975,-4.8675 1.8975,-1.8975 4.84,-1.8975 2.915,0 4.7575,1.925 1.87,1.8975 1.87,4.9225 z m -10.9725,-0.055 q 0,2.2275 1.155,3.5475 1.1825,1.2925 3.135,1.2925 1.98,0 3.135,-1.2925 1.155,-1.2925 1.155,-3.52 0,-2.1725 -1.1825,-3.52 -1.1825,-1.3475 -3.1075,-1.3475 -1.925,0 -3.1075,1.32 -1.1825,1.32 -1.1825,3.52 z"
         id="path28" />
      <path
         d="m 200.54972,88.146132 h 2.0075 l 0.2475,2.86 q 1.7875,-1.705 3.025,-2.365 1.2375,-0.6875 2.585,-0.6875 1.87,0 2.86,1.0725 1.0175,1.045 1.0175,2.9975 v 8.909998 h -2.365 v -8.497498 q 0,-1.21 -0.5225,-1.76 -0.5225,-0.5775 -1.65,-0.5775 -0.9625,0 -2.035,0.66 -1.045,0.66 -2.805,2.31 v 7.864998 h -2.365 z"
         id="path30" />
      <path
         d="m 229.94723,94.581132 q 0,2.9975 -1.8975,4.895 -1.87,1.869998 -4.84,1.869998 -2.9425,0 -4.785,-1.897498 -1.8425,-1.8975 -1.8425,-4.95 0,-2.97 1.8975,-4.8675 1.8975,-1.8975 4.84,-1.8975 2.915,0 4.7575,1.925 1.87,1.8975 1.87,4.9225 z m -10.9725,-0.055 q 0,2.2275 1.155,3.5475 1.1825,1.2925 3.135,1.2925 1.98,0 3.135,-1.2925 1.155,-1.2925 1.155,-3.52 0,-2.1725 -1.1825,-3.52 -1.1825,-1.3475 -3.1075,-1.3475 -1.925,0 -3.1075,1.32 -1.1825,1.32 -1.1825,3.52 z"
         id="path32" />
      <path
         d="m 253.15725,85.836132 0.1375,15.097498 h -2.2275 V 82.921132 h 3.0525 l 6.7925,14.74 -0.1375,-14.74 h 2.2275 v 18.012498 h -2.8875 z"
         id="path34" />
      <path
         d="m 275.29476,99.201132 2.64,0.0825 -0.0825,1.842498 -3.245,-0.055 q -3.5475,-0.055 -5.3075,-1.622498 -1.76,-1.595 -1.76,-4.7025 0,-3.0525 1.87,-5.0325 1.8975,-1.98 4.785,-1.98 2.8875,0 4.51,1.76 1.6225,1.7325 1.6225,4.895 0,0.3025 -0.0275,0.55 -0.0275,0.2475 -0.055,0.44 h -10.3675 q 0.1925,1.925 1.4575,2.8325 1.2925,0.9075 3.96,0.99 z m -1.1,-9.5975 q -1.6775,0 -2.86,1.1 -1.155,1.0725 -1.4025,2.915 h 8.0575 q -0.1375,-1.98 -1.1,-2.9975 -0.9625,-1.0175 -2.695,-1.0175 z"
         id="path36" />
      <path
         d="m 283.76477,100.93363 v -1.979998 h 3.355 v -8.8275 h -2.805 v -1.98 h 4.895 l 0.1375,4.455 q 1.7325,-2.4475 2.8325,-3.355 1.1,-0.935 2.7775,-1.045 l 2.695,-0.165 0.165,2.3375 -2.6125,0.22 q -1.32,0.0825 -1.9525,0.385 -0.6325,0.275 -1.3475,0.9625 -0.4125,0.3575 -0.9625,0.99 -0.5225,0.605 -1.485,1.76 v 4.2625 h 4.0975 v 1.979998 z"
         id="path38" />
      <path
         d="m 306.56228,101.18113 q -2.4475,0 -4.07,-1.814998 -1.6225,-1.815 -1.6225,-4.675 0,-2.9425 1.815,-4.84 1.8425,-1.8975 4.6475,-1.8975 1.1275,0 2.0625,0.3575 0.9625,0.3575 1.8425,1.1 v -8.0025 h 2.365 v 19.524998 h -2.0075 l -0.22,-2.117498 q -1.21,1.264998 -2.3375,1.814998 -1.1,0.55 -2.475,0.55 z m 1.1275,-11.302498 q -1.98,0 -3.19,1.32 -1.21,1.2925 -1.21,3.41 0,2.035 1.1,3.3275 1.1275,1.2925 2.8325,1.2925 1.0175,0 1.925,-0.5225 0.935,-0.5225 2.09,-1.6775 v -5.5275 q -0.9075,-0.825 -1.7875,-1.21 -0.8525,-0.4125 -1.76,-0.4125 z"
         id="path40" />
      <path
         d="M 335.7948,100.93363 V 82.921132 h 11.8525 v 1.98 h -9.46 v 6.82 h 8.5525 v 1.98 h -8.5525 v 7.232498 z"
         id="path42" />
      <path
         d="m 365.02731,94.581132 q 0,2.9975 -1.8975,4.895 -1.87,1.869998 -4.84,1.869998 -2.9425,0 -4.785,-1.897498 -1.8425,-1.8975 -1.8425,-4.95 0,-2.97 1.8975,-4.8675 1.8975,-1.8975 4.84,-1.8975 2.915,0 4.7575,1.925 1.87,1.8975 1.87,4.9225 z m -10.9725,-0.055 q 0,2.2275 1.155,3.5475 1.1825,1.2925 3.135,1.2925 1.98,0 3.135,-1.2925 1.155,-1.2925 1.155,-3.52 0,-2.1725 -1.1825,-3.52 -1.1825,-1.3475 -3.1075,-1.3475 -1.925,0 -3.1075,1.32 -1.1825,1.32 -1.1825,3.52 z"
         id="path44" />
      <path
         d="m 369.39982,88.146132 h 2.0075 l 0.2475,2.86 q 1.7875,-1.705 3.025,-2.365 1.2375,-0.6875 2.585,-0.6875 1.87,0 2.86,1.0725 1.0175,1.045 1.0175,2.9975 v 8.909998 h -2.365 v -8.497498 q 0,-1.21 -0.5225,-1.76 -0.5225,-0.5775 -1.65,-0.5775 -0.9625,0 -2.035,0.66 -1.045,0.66 -2.805,2.31 v 7.864998 h -2.365 z"
         id="path46" />
      <path
         d="m 389.69483,96.066132 v -5.94 h -4.3175 v -1.98 h 4.345 v -4.7575 h 2.2825 v 4.7575 h 5.6925 v 1.98 h -5.665 v 5.61 q 0,1.76 0.5225,2.42 0.5225,0.66 2.035,0.7425 l 3.8775,0.22 -0.165,2.007498 -4.2625,-0.1925 q -2.53,-0.1375 -3.4375,-1.154998 -0.9075,-1.0175 -0.9075,-3.7125 z"
         id="path48" />
    </g>
    <g
       aria-label="abcdefghijklmnopqrstuvwxyzABCDEFGHIJKLMNOPQRSTUVWXYZ oO08 iIlL1 {} [] g9qCGQ ~-+=&gt;"
       id="text4140"
       style="font-size:27.5px;line-height:125%;font-family:'IntoneMono Nerd Font';letter-spacing:0px;word-spacing:0px;fill:#ffffff;stroke-width:1px">
      <path
         d="m 73.976903,135.31612 v 3.57 q 0,0.525 0.14,0.7 0.14,0.175 0.5775,0.21 l 0.7875,0.0525 -0.105,1.155 -0.8225,-0.035 q -0.91,-0.035 -1.365,-0.315 -0.455,-0.28 -0.63,-0.875 h -0.1575 q -0.805,0.665 -1.6275,0.98 -0.805,0.2975 -1.715,0.2975 -1.1375,0 -1.8025,-0.6125 -0.665,-0.63 -0.665,-1.6975 0,-1.2075 0.6475,-1.7675 0.665,-0.56 2.24,-0.735 l 3.0275,-0.35 v -0.6125 q 0,-0.8225 -0.455,-1.1025 -0.455,-0.2975 -1.68,-0.2975 -0.5075,0 -1.295,0.0875 -0.77,0.07 -1.5925,0.21 l -0.1575,-1.2075 q 0.875,-0.1575 1.68,-0.2275 0.8225,-0.0875 1.4175,-0.0875 1.925,0 2.73,0.595 0.8225,0.595 0.8225,2.065 z m -5.8975,3.325 q 0,0.6125 0.3325,0.9275 0.3325,0.315 0.98,0.315 0.7175,0 1.4175,-0.2975 0.7,-0.315 1.6975,-1.05 v -1.6625 l -2.765,0.3675 q -0.8925,0.1225 -1.2775,0.4375 -0.385,0.2975 -0.385,0.9625 z"
         style="font-size:17.5px"
         id="path51" />
      <path
         d="m 77.774409,128.50862 h 1.505 v 5.5475 q 0.735,-0.77 1.4175,-1.1025 0.7,-0.3325 1.5575,-0.3325 1.5575,0 2.59,1.155 1.0325,1.155 1.0325,2.975 0,1.855 -1.2425,3.0975 -1.2425,1.225 -3.15,1.225 -0.665,0 -1.295,-0.1575 -0.63,-0.175 -1.225,-0.5075 l -0.7525,0.5425 h -0.4375 z m 6.5625,8.295 q 0,-1.295 -0.7175,-2.1 -0.7,-0.8225 -1.785,-0.8225 -0.63,0 -1.225,0.3325 -0.595,0.315 -1.33,1.05 v 3.885 q 0.5075,0.3325 0.9975,0.5075 0.49,0.1575 0.9975,0.1575 1.365,0 2.205,-0.8575 0.8575,-0.8575 0.8575,-2.1525 z"
         style="font-size:17.5px"
         id="path53" />
      <path
         d="m 92.649414,133.81112 q -1.3125,0 -2.135,0.84 -0.8225,0.84 -0.8225,2.17 0,1.365 0.7875,2.24 0.7875,0.8575 2.0125,0.8575 0.7875,0 1.54,-0.245 0.77,-0.245 1.7675,-0.805 l 0.6475,1.05 q -1.19,0.6825 -2.1,0.98 -0.91,0.2975 -1.925,0.2975 -1.925,0 -3.115,-1.19 -1.1725,-1.2075 -1.1725,-3.2025 0,-1.8025 1.295,-3.0275 1.295,-1.2425 3.2025,-1.2425 0.98,0 1.855,0.315 0.875,0.2975 1.925,0.9975 l -0.7,1.1025 q -0.945,-0.6125 -1.6275,-0.875 -0.6825,-0.2625 -1.435,-0.2625 z"
         style="font-size:17.5px"
         id="path55" />
      <path
         d="m 102.30942,141.09112 q -1.5575,0 -2.590001,-1.155 -1.0325,-1.155 -1.0325,-2.975 0,-1.8725 1.155,-3.08 1.172501,-1.2075 2.957501,-1.2075 0.7175,0 1.3125,0.2275 0.6125,0.2275 1.1725,0.7 v -5.0925 h 1.505 v 12.425 h -1.2775 l -0.14,-1.3475 q -0.77,0.805 -1.4875,1.155 -0.7,0.35 -1.575,0.35 z m 0.7175,-7.1925 q -1.26,0 -2.03,0.84 -0.77,0.8225 -0.77,2.17 0,1.295 0.7,2.1175 0.7175,0.8225 1.8025,0.8225 0.6475,0 1.225,-0.3325 0.595,-0.3325 1.33,-1.0675 v -3.5175 q -0.5775,-0.525 -1.1375,-0.77 -0.5425,-0.2625 -1.12,-0.2625 z"
         style="font-size:17.5px"
         id="path57" />
      <path
         d="m 114.64693,139.83112 1.68,0.0525 -0.0525,1.1725 -2.065,-0.035 q -2.2575,-0.035 -3.3775,-1.0325 -1.12,-1.015 -1.12,-2.9925 0,-1.9425 1.19,-3.2025 1.2075,-1.26 3.045,-1.26 1.8375,0 2.87,1.12 1.0325,1.1025 1.0325,3.115 0,0.1925 -0.0175,0.35 -0.0175,0.1575 -0.035,0.28 h -6.5975 q 0.1225,1.225 0.9275,1.8025 0.8225,0.5775 2.52,0.63 z m -0.7,-6.1075 q -1.0675,0 -1.82,0.7 -0.735,0.6825 -0.8925,1.855 h 5.1275 q -0.0875,-1.26 -0.7,-1.9075 -0.6125,-0.6475 -1.715,-0.6475 z"
         style="font-size:17.5px"
         id="path59" />
      <path
         d="m 123.20443,134.14362 h -2.7475 v -1.26 h 2.7475 v -1.12 q 0,-1.6975 0.7175,-2.415 0.735,-0.735 2.52,-0.8575 l 2.24,-0.14 0.105,1.2775 -2.1875,0.1575 q -1.0675,0.07 -1.505,0.49 -0.42,0.4025 -0.42,1.435 v 1.1725 h 3.4125 v 1.26 h -3.395 v 6.79 h -1.4875 z"
         style="font-size:17.5px"
         id="path61" />
      <path
         d="m 134.52693,140.67112 q -1.5575,0 -2.59,-1.1025 -1.015,-1.1025 -1.015,-2.835 0,-1.75 1.2425,-2.9225 1.2425,-1.19 3.15,-1.19 0.665,0 1.2775,0.1575 0.6125,0.1575 1.19,0.4725 l 0.84,-0.525 h 0.4025 v 8.365 q 0,1.9775 -0.8575,2.87 -0.8575,0.8925 -2.8525,0.9975 l -3.01,0.1575 -0.0525,-1.2775 2.87,-0.1575 q 1.295,-0.07 1.855,-0.665 0.56,-0.5775 0.56,-1.8725 v -1.9075 q -0.7175,0.77 -1.4175,1.1025 -0.7,0.3325 -1.5925,0.3325 z m 0.9975,-6.79 q -1.3825,0 -2.2225,0.805 -0.84,0.7875 -0.84,2.0125 0,1.19 0.7175,1.96 0.7175,0.77 1.785,0.77 0.6475,0 1.225,-0.3325 0.595,-0.3325 1.3475,-1.085 v -3.465 q -0.525,-0.3325 -1.0325,-0.49 -0.49,-0.175 -0.98,-0.175 z"
         style="font-size:17.5px"
         id="path63" />
      <path
         d="m 142.29695,128.50862 h 1.505 v 6.0375 q 1.1025,-1.0325 1.8725,-1.4525 0.7875,-0.42 1.6275,-0.42 1.19,0 1.82,0.6825 0.6475,0.665 0.6475,1.9075 v 5.67 h -1.505 v -5.4075 q 0,-0.77 -0.3325,-1.12 -0.3325,-0.3675 -1.05,-0.3675 -0.6125,0 -1.295,0.42 -0.665,0.42 -1.785,1.47 v 5.005 h -1.505 z"
         style="font-size:17.5px"
         id="path65" />
      <path
         d="m 158.11695,129.29612 q 0,0.5075 -0.35,0.805 -0.35,0.28 -0.9625,0.28 -0.595,0 -0.945,-0.2975 -0.3325,-0.2975 -0.3325,-0.8225 0,-0.49 0.35,-0.7875 0.3675,-0.315 0.9625,-0.315 0.63,0 0.945,0.2975 0.3325,0.28 0.3325,0.84 z m -4.7425,11.6375 v -1.26 h 2.8875 v -5.6175 h -2.5375 v -1.26 h 4.0425 v 6.8775 h 2.905 v 1.26 z"
         style="font-size:17.5px"
         id="path67" />
      <path
         d="m 169.77195,129.29612 q 0,0.5075 -0.35,0.805 -0.35,0.28 -0.9625,0.28 -0.6125,0 -0.9625,-0.2975 -0.3325,-0.2975 -0.3325,-0.8225 0,-0.4725 0.3675,-0.77 0.3675,-0.315 0.945,-0.315 0.63,0 0.9625,0.2975 0.3325,0.28 0.3325,0.8225 z m -0.3325,3.5 v 8.995 q 0,1.6275 -0.735,2.345 -0.7175,0.7175 -2.485,0.8225 l -2.2925,0.14 -0.0525,-1.295 2.24,-0.1575 q 0.9975,-0.0875 1.4,-0.5075 0.42,-0.4025 0.42,-1.33 v -7.7525 h -3.7275 v -1.26 z"
         style="font-size:17.5px"
         id="path69" />
      <path
         d="m 174.81196,128.50862 h 1.4875 v 7.9275 l 4.3225,-3.64 h 1.925 v 0.035 l -4.62,3.815 4.6375,4.2525 v 0.035 h -2.0125 l -4.2525,-4.0075 v 4.0075 h -1.4875 z"
         style="font-size:17.5px"
         id="path71" />
      <path
         d="m 187.84946,138.04612 v -8.2775 h -3.2025 v -1.26 h 4.69 v 9.38 q 0,0.9275 0.35,1.33 0.3675,0.385 1.26,0.42 l 1.9075,0.1225 -0.0875,1.295 -2.0825,-0.1225 q -1.61,-0.0875 -2.2225,-0.7175 -0.6125,-0.63 -0.6125,-2.17 z"
         style="font-size:17.5px"
         id="path73" />
      <path
         d="m 195.28697,132.79612 h 1.12 l 0.1575,1.8025 h 0.1225 q 0.6475,-0.98 1.225,-1.435 0.595,-0.455 1.2075,-0.455 0.665,0 0.9625,0.3675 0.315,0.3675 0.315,1.155 v 0.2975 h 0.14 q 0.63,-0.945 1.1725,-1.365 0.56,-0.4375 1.19,-0.4375 0.6825,0 0.9975,0.385 0.315,0.385 0.315,1.19 v 6.6325 h -1.3825 v -6.195 q 0,-0.315 -0.1225,-0.4375 -0.1225,-0.14 -0.4025,-0.14 -0.3325,0 -0.77,0.35 -0.42,0.35 -1.12,1.19 v 5.2325 h -1.33 v -6.2125 q 0,-0.2975 -0.1225,-0.42 -0.1225,-0.14 -0.4025,-0.14 -0.35,0 -0.7875,0.3675 -0.42,0.35 -1.12,1.19 v 5.215 h -1.365 z"
         style="font-size:17.5px"
         id="path75" />
      <path
         d="m 206.76698,132.79612 h 1.2775 l 0.1575,1.82 q 1.1375,-1.085 1.925,-1.505 0.7875,-0.4375 1.645,-0.4375 1.19,0 1.82,0.6825 0.6475,0.665 0.6475,1.9075 v 5.67 h -1.505 v -5.4075 q 0,-0.77 -0.3325,-1.12 -0.3325,-0.3675 -1.05,-0.3675 -0.6125,0 -1.295,0.42 -0.665,0.42 -1.785,1.47 v 5.005 h -1.505 z"
         style="font-size:17.5px"
         id="path77" />
      <path
         d="m 225.47449,136.89112 q 0,1.9075 -1.2075,3.115 -1.19,1.19 -3.08,1.19 -1.8725,0 -3.045,-1.2075 -1.1725,-1.2075 -1.1725,-3.15 0,-1.89 1.2075,-3.0975 1.2075,-1.2075 3.08,-1.2075 1.855,0 3.0275,1.225 1.19,1.2075 1.19,3.1325 z m -6.9825,-0.035 q 0,1.4175 0.735,2.2575 0.7525,0.8225 1.995,0.8225 1.26,0 1.995,-0.8225 0.735,-0.8225 0.735,-2.24 0,-1.3825 -0.7525,-2.24 -0.7525,-0.8575 -1.9775,-0.8575 -1.225,0 -1.9775,0.84 -0.7525,0.84 -0.7525,2.24 z"
         style="font-size:17.5px"
         id="path79" />
      <path
         d="m 229.70948,144.95862 h -1.505 v -12.1625 h 1.2775 l 0.14,1.4175 q 0.77,-0.84 1.47,-1.2075 0.7175,-0.3675 1.61,-0.3675 1.54,0 2.5725,1.1725 1.0325,1.155 1.0325,2.9575 0,1.855 -1.155,3.08 -1.1375,1.2075 -2.8525,1.2075 -0.735,0 -1.365,-0.2625 -0.6125,-0.2625 -1.225,-0.8225 z m 5.0575,-8.155 q 0,-1.2775 -0.7175,-2.1 -0.7175,-0.8225 -1.785,-0.8225 -0.6475,0 -1.2425,0.3325 -0.5775,0.3325 -1.3125,1.0675 v 3.5 q 0.5775,0.525 1.12,0.7875 0.56,0.245 1.12,0.245 1.2775,0 2.0475,-0.8225 0.77,-0.84 0.77,-2.1875 z"
         style="font-size:17.5px"
         id="path81" />
      <path
         d="m 241.99449,141.10862 q -1.5575,0 -2.59,-1.155 -1.0325,-1.155 -1.0325,-2.975 0,-1.855 1.2425,-3.08 1.2425,-1.2425 3.15,-1.2425 0.7,0 1.3125,0.175 0.63,0.1575 1.2075,0.49 l 0.7525,-0.56 h 0.4375 v 12.1975 h -1.505 v -5.285 q -0.735,0.77 -1.435,1.1025 -0.6825,0.3325 -1.54,0.3325 z m 0.98,-7.21 q -1.3825,0 -2.2225,0.8575 -0.84,0.8575 -0.84,2.17 0,1.295 0.7,2.1175 0.7175,0.805 1.8025,0.805 0.63,0 1.225,-0.315 0.595,-0.3325 1.33,-1.0675 v -3.9025 q -0.5075,-0.3325 -0.9975,-0.49 -0.49,-0.175 -0.9975,-0.175 z"
         style="font-size:17.5px"
         id="path83" />
      <path
         d="m 248.977,140.93362 v -1.26 h 2.135 v -5.6175 h -1.785 v -1.26 h 3.115 l 0.0875,2.835 q 1.1025,-1.5575 1.8025,-2.135 0.7,-0.595 1.7675,-0.665 l 1.715,-0.105 0.105,1.4875 -1.6625,0.14 q -0.84,0.0525 -1.2425,0.245 -0.4025,0.175 -0.8575,0.6125 -0.2625,0.2275 -0.6125,0.63 -0.3325,0.385 -0.945,1.12 v 2.7125 h 2.6075 v 1.26 z"
         style="font-size:17.5px"
         id="path85" />
      <path
         d="m 267.9645,138.65862 q 0,1.1725 -1.0675,1.8375 -1.05,0.665 -2.9925,0.665 -0.8575,0 -1.6975,-0.0875 -0.8225,-0.0875 -1.7325,-0.2625 l 0.2275,-1.2775 q 0.8575,0.175 1.715,0.28 0.875,0.105 1.505,0.105 1.2775,0 1.89,-0.28 0.63,-0.2975 0.63,-0.875 0,-0.4725 -0.35,-0.7175 -0.3325,-0.2625 -1.2075,-0.4725 l -1.5225,-0.35 q -1.4875,-0.3675 -2.0825,-0.8575 -0.595,-0.49 -0.595,-1.47 0,-1.1375 0.9975,-1.7325 0.9975,-0.595 2.9225,-0.595 0.595,0 1.435,0.0875 0.84,0.0875 1.5925,0.2275 l -0.21,1.2775 q -0.7875,-0.175 -1.54,-0.2625 -0.735,-0.105 -1.295,-0.105 -1.2075,0 -1.785,0.245 -0.5775,0.2275 -0.5775,0.735 0,0.455 0.3325,0.7 0.35,0.2275 1.2075,0.455 l 1.505,0.35 q 1.505,0.35 2.1,0.8575 0.595,0.5075 0.595,1.5225 z"
         style="font-size:17.5px"
         id="path87" />
      <path
         d="m 273.40701,137.83612 v -3.78 h -2.7475 v -1.26 h 2.765 v -3.0275 h 1.4525 v 3.0275 h 3.6225 v 1.26 h -3.605 v 3.57 q 0,1.12 0.3325,1.54 0.3325,0.42 1.295,0.4725 l 2.4675,0.14 -0.105,1.2775 -2.7125,-0.1225 q -1.61,-0.0875 -2.1875,-0.735 -0.5775,-0.6475 -0.5775,-2.3625 z"
         style="font-size:17.5px"
         id="path89" />
      <path
         d="m 289.40202,132.79612 v 8.1375 h -1.365 l -0.0875,-1.8025 q -1.1375,1.085 -1.925,1.505 -0.7875,0.42 -1.6275,0.42 -1.19,0 -1.8375,-0.665 -0.63,-0.6825 -0.63,-1.925 v -5.67 h 1.505 v 5.4075 q 0,0.77 0.3325,1.1375 0.35,0.35 1.05,0.35 0.6125,0 1.2775,-0.42 0.6825,-0.42 1.8025,-1.4875 v -4.9875 z"
         style="font-size:17.5px"
         id="path91" />
      <path
         d="m 295.56201,140.93362 -3.535,-8.1375 h 1.68 l 2.765,6.79 2.7825,-6.79 h 1.5925 l -3.5175,8.1375 z"
         style="font-size:17.5px"
         id="path93" />
      <path
         d="m 311.80202,132.79612 -1.715,8.1375 h -1.505 l -1.4175,-4.305 -1.435,4.305 h -1.4875 l -1.6625,-8.1375 h 1.4175 l 1.225,6.5275 1.82,-5.4075 h 0.2975 l 1.82,5.39 1.225,-6.51 z"
         style="font-size:17.5px"
         id="path95" />
      <path
         d="m 315.42453,140.93362 h -1.75 l 3.325,-4.2 -3.0975,-3.9375 h 1.855 l 2.1875,3.01 2.24,-3.01 h 1.7325 l -3.0975,3.92 3.395,4.2175 h -1.8375 l -2.485,-3.3425 z"
         style="font-size:17.5px"
         id="path97" />
      <path
         d="m 333.09953,132.79612 -4.3575,10.29 q -0.4025,0.945 -0.9975,1.365 -0.595,0.4375 -1.68,0.49 l -1.9425,0.0875 -0.035,-1.2775 1.645,-0.0875 q 0.735,-0.035 1.05,-0.2275 0.3325,-0.1925 0.5775,-0.7 l 0.595,-1.3475 -3.6575,-8.5925 h 1.68 l 2.8,6.86 2.73,-6.86 z"
         style="font-size:17.5px"
         id="path99" />
      <path
         d="m 343.47706,140.93362 h -7.9275 v -1.0325 l 5.565,-5.845 v -0.0525 h -5.355 v -1.2075 h 7.4375 v 1.05 l -5.495,5.81 v 0.0525 h 5.775 z"
         style="font-size:17.5px"
         id="path101" />
      <path
         d="m 68.639403,159.69362 -0.98,3.115 h -1.54 l 3.745,-11.4625 h 1.8725 l 3.7275,11.4625 h -1.5925 l -1.015,-3.115 z m 2.1,-6.79 -1.715,5.565 h 3.465 z"
         style="font-size:17.5px"
         id="path103" />
      <path
         d="m 77.826909,162.80862 v -11.4625 h 4.165 q 1.715,0 2.59,0.6825 0.8925,0.6825 0.8925,1.995 0,1.1025 -0.6825,1.82 -0.665,0.7175 -2.0125,1.05 v 0.07 q 1.575,0.21 2.415,0.98 0.84,0.77 0.84,2.0125 0,1.4 -0.98,2.135 -0.98,0.7175 -2.8875,0.7175 z m 6.1075,-8.54 q 0,-0.8575 -0.525,-1.295 -0.525,-0.4375 -1.5575,-0.4375 h -2.5375 v 3.955 l 1.75,-0.0875 q 1.365,-0.07 2.1175,-0.63 0.7525,-0.5775 0.7525,-1.505 z m 0.595,5.53 q 0,-0.9625 -0.805,-1.5225 -0.805,-0.5775 -2.2925,-0.63 l -2.1175,-0.0875 v 4.06 h 2.835 q 1.155,0 1.7675,-0.4725 0.6125,-0.4725 0.6125,-1.3475 z"
         style="font-size:17.5px"
         id="path105" />
      <path
         d="m 92.579414,163.07112 q -2.2225,0 -3.465,-1.5575 -1.225,-1.575 -1.225,-4.41 0,-2.6775 1.3825,-4.34 1.3825,-1.68 3.57,-1.68 0.9625,0 1.785,0.35 0.84,0.3325 2.0475,1.225 l -0.77,1.1025 q -0.9625,-0.7525 -1.6625,-1.085 -0.6825,-0.3325 -1.3825,-0.3325 -1.5225,0 -2.4675,1.295 -0.945,1.2775 -0.945,3.43 0,2.275 0.875,3.5175 0.8925,1.225 2.4675,1.225 0.7,0 1.4875,-0.35 0.7875,-0.35 1.785,-1.12 l 0.7175,1.0325 q -1.155,0.8925 -2.1525,1.295 -0.9975,0.4025 -2.0475,0.4025 z"
         style="font-size:17.5px"
         id="path107" />
      <path
         d="m 99.264419,162.80862 v -11.4625 h 1.890001 q 3.01,0 4.6725,1.47 1.6625,1.4525 1.6625,4.1125 0,2.8175 -1.8025,4.3575 -1.8025,1.5225 -5.1275,1.5225 z m 6.667501,-5.845 q 0,-2.065 -1.1375,-3.185 -1.1375,-1.12 -3.22,-1.155 l -0.7875,-0.035 v 8.96 l 0.315,-0.0175 q 2.38,-0.035 3.605,-1.19 1.225,-1.155 1.225,-3.3775 z"
         style="font-size:17.5px"
         id="path109" />
      <path
         d="m 110.11443,162.80862 v -11.4625 h 7.6475 v 1.26 h -6.125 v 3.78 h 5.18 v 1.26 h -5.18 v 3.9025 h 6.2475 v 1.26 z"
         style="font-size:17.5px"
         id="path111" />
      <path
         d="m 120.91193,162.80862 v -11.4625 h 7.5425 v 1.26 h -6.02 v 4.34 h 5.4425 v 1.26 h -5.4425 v 4.6025 z"
         style="font-size:17.5px"
         id="path113" />
      <path
         d="m 138.74443,151.34612 -0.1225,1.2775 q -0.56,-0.0875 -0.9275,-0.1225 -0.3675,-0.035 -0.8225,-0.035 -2.1,0 -3.2725,1.2075 -1.1725,1.2075 -1.1725,3.395 0,2.3625 0.9975,3.5525 1.015,1.19 3.0275,1.19 0.3675,0 0.7875,-0.0525 0.42,-0.0525 0.84,-0.14 v -3.7625 h -2.7475 v -1.225 h 4.2 v 5.985 q -0.8575,0.2275 -1.645,0.3325 -0.7875,0.1225 -1.5575,0.1225 -2.7125,0 -4.095,-1.505 -1.3825,-1.505 -1.3825,-4.445 0,-2.765 1.61,-4.34 1.61,-1.5925 4.375,-1.5925 0.4725,0 0.8925,0.035 0.42,0.035 1.015,0.1225 z"
         style="font-size:17.5px"
         id="path115" />
      <path
         d="m 142.24445,162.80862 v -11.4625 h 1.5225 v 5.04 h 4.48 v -5.04 h 1.5225 v 11.4625 h -1.5225 v -5.145 h -4.48 v 5.145 z"
         style="font-size:17.5px"
         id="path117" />
      <path
         d="m 153.67195,162.80862 v -0.7525 l 2.3275,-0.4025 v -9.1525 l -2.3275,-0.4025 v -0.7525 h 6.16 v 0.7525 l -2.31,0.4025 v 9.1525 l 2.31,0.4025 v 0.7525 z"
         style="font-size:17.5px"
         id="path119" />
      <path
         d="m 167.75945,163.01862 q -1.19,0 -2.205,-0.5425 -1.015,-0.5425 -2.5725,-1.9775 l 0.9625,-1.0675 q 1.295,1.225 2.135,1.75 0.84,0.5075 1.645,0.5075 0.945,0 1.4175,-0.5425 0.4725,-0.56 0.4725,-1.6625 v -8.1375 h 1.5225 v 8.225 q 0,1.645 -0.875,2.555 -0.875,0.8925 -2.5025,0.8925 z"
         style="font-size:17.5px"
         id="path121" />
      <path
         d="m 174.53196,151.34612 h 1.5225 v 5.53 l 5.075,-5.53 h 1.8725 v 0.035 l -5.18,5.53 5.39,5.8625 v 0.035 h -1.995 l -5.1625,-5.6175 v 5.6175 h -1.5225 z"
         style="font-size:17.5px"
         id="path123" />
      <path
         d="m 185.32946,162.80862 v -11.4625 h 1.5225 v 10.22 h 6.265 v 1.2425 z"
         style="font-size:17.5px"
         id="path125" />
      <path
         d="m 201.86697,151.34612 h 1.68 l 0.4725,11.4625 h -1.435 l -0.2975,-9.7125 -2.38,6.58 h -0.35 l -2.38,-6.3875 -0.2975,9.52 h -1.435 l 0.4725,-11.4625 h 1.6975 l 2.135,5.7225 z"
         style="font-size:17.5px"
         id="path127" />
      <path
         d="m 208.00948,153.20112 0.0875,9.6075 h -1.4175 v -11.4625 h 1.9425 l 4.3225,9.38 -0.0875,-9.38 h 1.4175 v 11.4625 h -1.8375 z"
         style="font-size:17.5px"
         id="path129" />
      <path
         d="m 221.23949,151.08362 q 2.065,0 3.22,1.575 1.155,1.5575 1.155,4.3925 0,2.87 -1.1725,4.445 -1.155,1.575 -3.2375,1.575 -2.0825,0 -3.2375,-1.5575 -1.1375,-1.5575 -1.1375,-4.3925 0,-2.8525 1.1725,-4.445 1.1725,-1.5925 3.2375,-1.5925 z m -0.0175,1.26 q -1.3825,0 -2.1175,1.2075 -0.7175,1.2075 -0.7175,3.535 0,2.3275 0.7175,3.535 0.735,1.19 2.1175,1.19 1.3825,0 2.1,-1.19 0.735,-1.2075 0.735,-3.535 0,-2.3275 -0.735,-3.535 -0.7175,-1.2075 -2.1,-1.2075 z"
         style="font-size:17.5px"
         id="path131" />
      <path
         d="m 228.25698,162.80862 v -11.4625 h 3.9025 q 2.0825,0 3.2375,0.98 1.155,0.9625 1.155,2.7125 0,1.785 -1.225,2.7825 -1.2075,0.98 -3.395,0.98 h -2.1525 v 4.0075 z m 6.755,-7.735 q 0,-1.19 -0.735,-1.82 -0.735,-0.6475 -2.1175,-0.6475 h -2.38 v 4.9525 h 2.2575 q 1.4,0 2.1875,-0.6475 0.7875,-0.665 0.7875,-1.8375 z"
         style="font-size:17.5px"
         id="path133" />
      <path
         d="m 245.61699,161.79362 2.3275,2.87 -1.2425,0.8575 -2.03,-2.975 q -0.4375,0.245 -0.945,0.3675 -0.49,0.14 -1.0325,0.14 -2.0825,0 -3.2375,-1.54 -1.1375,-1.5575 -1.1375,-4.3925 0,-2.8525 1.1725,-4.445 1.1725,-1.5925 3.2375,-1.5925 2.0825,0 3.22,1.575 1.155,1.5575 1.155,4.41 0,1.5225 -0.385,2.73 -0.385,1.2075 -1.1025,1.995 z m -2.905,-9.45 q -1.3825,0 -2.1175,1.2075 -0.7175,1.2075 -0.7175,3.535 0,2.3275 0.7175,3.535 0.735,1.2075 2.1175,1.2075 0.3675,0 0.6825,-0.07 0.3325,-0.0875 0.6125,-0.245 l -1.8025,-2.3625 0.9625,-0.665 1.61,2.2925 q 0.385,-0.5775 0.5775,-1.4875 0.1925,-0.9275 0.1925,-2.1875 0,-2.345 -0.735,-3.5525 -0.7175,-1.2075 -2.1,-1.2075 z"
         style="font-size:17.5px"
         id="path135" />
      <path
         d="m 255.5045,159.53612 2.7475,3.2025 v 0.07 h -1.925 l -2.4325,-3.0275 q -0.6475,-0.8575 -1.155,-1.1375 -0.5075,-0.2975 -1.47,-0.385 v 4.55 h -1.5225 v -11.4625 h 4.1825 q 1.68,0 2.6425,0.84 0.9625,0.8225 0.9625,2.275 0,1.54 -0.98,2.3275 -0.9625,0.7875 -3.0625,1.0675 v 0.105 q 0.63,0.245 1.015,0.56 0.385,0.315 0.9975,1.015 z m 0.5075,-4.9525 q 0,-0.9625 -0.6125,-1.4875 -0.595,-0.525 -1.7325,-0.525 h -2.3975 v 4.655 l 0.805,-0.105 q 2.1175,-0.245 3.0275,-0.805 0.91,-0.5775 0.91,-1.7325 z"
         style="font-size:17.5px"
         id="path137" />
      <path
         d="m 264.2195,161.77612 q 1.225,0 1.8725,-0.5075 0.6475,-0.525 0.6475,-1.4875 0,-0.735 -0.4725,-1.1725 -0.4725,-0.455 -1.54,-0.7875 l -1.2425,-0.4025 q -1.54,-0.4725 -2.2575,-1.26 -0.7175,-0.805 -0.7175,-2.0475 0,-1.3125 1.0675,-2.1525 1.0675,-0.84 2.8525,-0.84 0.84,0 1.61,0.1225 0.7875,0.1225 1.9075,0.4375 l -0.2625,1.3125 q -1.05,-0.315 -1.855,-0.455 -0.7875,-0.1575 -1.435,-0.1575 -1.1375,0 -1.75,0.42 -0.595,0.42 -0.595,1.2075 0,0.7875 0.455,1.26 0.4725,0.455 1.575,0.805 l 1.26,0.4025 q 1.61,0.5075 2.275,1.2425 0.665,0.735 0.665,1.995 0,1.5575 -1.085,2.45 -1.0675,0.875 -2.9925,0.875 -0.98,0 -1.995,-0.21 -1.015,-0.21 -2.1525,-0.6475 l 0.3675,-1.295 q 1.2075,0.4375 2.17,0.665 0.9625,0.2275 1.6275,0.2275 z"
         style="font-size:17.5px"
         id="path139" />
      <path
         d="m 274.19451,152.60612 h -3.7275 v -1.26 h 8.96 v 1.26 h -3.71 v 10.2025 h -1.5225 z"
         style="font-size:17.5px"
         id="path141" />
      <path
         d="m 285.69202,161.74112 q 1.2775,0 1.89,-0.735 0.63,-0.735 0.63,-2.2575 v -7.4025 h 1.505 v 7.4025 q 0,2.1525 -1.015,3.2375 -1.015,1.085 -3.045,1.085 -1.9775,0 -2.9925,-1.085 -0.9975,-1.1025 -0.9975,-3.2375 v -7.4025 h 1.5225 v 7.4025 q 0,1.505 0.6125,2.2575 0.63,0.735 1.89,0.735 z"
         style="font-size:17.5px"
         id="path143" />
      <path
         d="m 295.52701,162.80862 -3.7625,-11.4625 h 1.5925 l 3.1325,9.7475 3.115,-9.7475 h 1.505 l -3.745,11.4625 z"
         style="font-size:17.5px"
         id="path145" />
      <path
         d="m 311.74952,151.34612 -1.5575,11.4625 h -1.5575 l -1.4875,-6.1775 -1.47,6.1775 h -1.5225 l -1.54,-11.4625 h 1.4875 l 1.085,9.345 1.8025,-7.175 h 0.42 l 1.82,7.21 1.085,-9.38 z"
         style="font-size:17.5px"
         id="path147" />
      <path
         d="m 315.02203,162.80862 h -1.6625 l 3.6925,-5.88 -3.4475,-5.5825 h 1.7675 l 2.555,4.41 2.5375,-4.41 h 1.715 l -3.43,5.495 3.745,5.9675 h -1.8025 l -2.8175,-4.7775 z"
         style="font-size:17.5px"
         id="path149" />
      <path
         d="m 331.62953,151.34612 h 1.6975 l -3.885,6.545 v 4.9175 h -1.5225 v -4.8825 l -3.9025,-6.58 h 1.75 l 2.94,5.1275 z"
         style="font-size:17.5px"
         id="path151" />
      <path
         d="m 343.63456,162.80862 h -8.4175 v -0.9975 l 6.125,-9.065 v -0.0875 h -5.845 v -1.3125 h 7.875 v 0.9975 l -6.1775,9.065 v 0.105 h 6.44 z"
         style="font-size:17.5px"
         id="path153" />
      <path
         d="m 75.044403,180.64112 q 0,1.9075 -1.2075,3.115 -1.19,1.19 -3.08,1.19 -1.8725,0 -3.045,-1.2075 -1.1725,-1.2075 -1.1725,-3.15 0,-1.89 1.2075,-3.0975 1.2075,-1.2075 3.08,-1.2075 1.855,0 3.0275,1.225 1.19,1.2075 1.19,3.1325 z m -6.9825,-0.035 q 0,1.4175 0.735,2.2575 0.7525,0.8225 1.995,0.8225 1.26,0 1.995,-0.8225 0.735,-0.8225 0.735,-2.24 0,-1.3825 -0.7525,-2.24 -0.7525,-0.8575 -1.9775,-0.8575 -1.225,0 -1.9775,0.84 -0.7525,0.84 -0.7525,2.24 z"
         style="font-size:17.5px"
         id="path155" />
      <path
         d="m 81.554409,172.95862 q 2.065,0 3.22,1.575 1.155,1.5575 1.155,4.3925 0,2.87 -1.1725,4.445 -1.155,1.575 -3.2375,1.575 -2.0825,0 -3.2375,-1.5575 -1.1375,-1.5575 -1.1375,-4.3925 0,-2.8525 1.1725,-4.445 1.1725,-1.5925 3.2375,-1.5925 z m -0.0175,1.26 q -1.3825,0 -2.1175,1.2075 -0.7175,1.2075 -0.7175,3.535 0,2.3275 0.7175,3.535 0.735,1.19 2.1175,1.19 1.3825,0 2.1,-1.19 0.735,-1.2075 0.735,-3.535 0,-2.3275 -0.735,-3.535 -0.7175,-1.2075 -2.1,-1.2075 z"
         style="font-size:17.5px"
         id="path157" />
      <path
         d="m 92.299414,172.95862 q 1.995,0 3.08,1.5575 1.1025,1.5575 1.1025,4.41 0,2.87 -1.1025,4.445 -1.1025,1.575 -3.115,1.575 -2.0125,0 -3.0975,-1.54 -1.085,-1.54 -1.085,-4.41 0,-2.87 1.1025,-4.445 1.12,-1.5925 3.115,-1.5925 z m -0.0175,1.295 q -1.3475,0 -2.03,1.1725 -0.6825,1.1725 -0.6825,3.535 0,0.4375 0.0175,0.7875 0.0175,0.3325 0.0525,0.63 l 5.075,-3.92 q -0.2975,-1.1025 -0.91,-1.645 -0.6125,-0.56 -1.5225,-0.56 z m 0,9.3975 q 1.3475,0 2.03,-1.1725 0.6825,-1.19 0.6825,-3.5175 0,-0.42 -0.0175,-0.7525 -0.0175,-0.35 -0.0525,-0.63 l -5.075,3.92 q 0.315,1.0675 0.91,1.61 0.6125,0.5425 1.5225,0.5425 z"
         style="font-size:17.5px"
         id="path159" />
      <path
         d="m 107.06942,181.62112 q 0,1.4875 -1.1375,2.415 -1.12,0.91 -2.9225,0.91 -1.785,0 -2.905,-0.91 -1.120001,-0.91 -1.120001,-2.38 0,-0.9975 0.7,-1.7675 0.700001,-0.7875 1.890001,-1.1025 v -0.0875 q -1.0325,-0.315 -1.645001,-0.9975 -0.595,-0.7 -0.595,-1.5925 0,-1.4 1.032501,-2.275 1.05,-0.875 2.695,-0.875 1.6275,0 2.6425,0.8575 1.015,0.8575 1.015,2.2575 0,0.8925 -0.595,1.5925 -0.595,0.7 -1.6275,1.0325 v 0.0875 q 1.1725,0.315 1.8725,1.085 0.7,0.7525 0.7,1.75 z m -6.23,-5.4425 q 0,0.875 0.63,1.4525 0.63,0.5775 1.575,0.5775 0.91,0 1.54,-0.5775 0.63,-0.595 0.63,-1.4875 0,-0.8925 -0.6125,-1.435 -0.595,-0.5425 -1.575,-0.5425 -0.98,0 -1.5925,0.56 -0.595,0.5425 -0.595,1.4525 z m -0.35,5.4075 q 0,0.9625 0.7,1.5575 0.7175,0.595 1.855,0.595 1.12,0 1.82,-0.595 0.7,-0.6125 0.7,-1.5925 0,-0.9625 -0.7175,-1.575 -0.7175,-0.63 -1.82,-0.63 -1.085,0 -1.82,0.63 -0.7175,0.63 -0.7175,1.61 z"
         style="font-size:17.5px"
         id="path161" />
      <path
         d="m 125.88193,173.04612 q 0,0.5075 -0.35,0.805 -0.35,0.28 -0.9625,0.28 -0.595,0 -0.945,-0.2975 -0.3325,-0.2975 -0.3325,-0.8225 0,-0.49 0.35,-0.7875 0.3675,-0.315 0.9625,-0.315 0.63,0 0.945,0.2975 0.3325,0.28 0.3325,0.84 z m -4.7425,11.6375 v -1.26 h 2.8875 v -5.6175 h -2.5375 v -1.26 h 4.0425 v 6.8775 h 2.905 v 1.26 z"
         style="font-size:17.5px"
         id="path163" />
      <path
         d="m 132.18193,184.68362 v -0.7525 l 2.3275,-0.4025 v -9.1525 l -2.3275,-0.4025 v -0.7525 h 6.16 v 0.7525 l -2.31,0.4025 v 9.1525 l 2.31,0.4025 v 0.7525 z"
         style="font-size:17.5px"
         id="path165" />
      <path
         d="m 144.86945,181.79612 v -8.2775 h -3.2025 v -1.26 h 4.69 v 9.38 q 0,0.9275 0.35,1.33 0.3675,0.385 1.26,0.42 l 1.9075,0.1225 -0.0875,1.295 -2.0825,-0.1225 q -1.61,-0.0875 -2.2225,-0.7175 -0.6125,-0.63 -0.6125,-2.17 z"
         style="font-size:17.5px"
         id="path167" />
      <path
         d="m 153.09445,184.68362 v -11.4625 h 1.5225 v 10.22 h 6.265 v 1.2425 z"
         style="font-size:17.5px"
         id="path169" />
      <path
         d="m 171.38195,184.68362 h -7.2625 v -1.26 h 2.94 v -8.2775 l -2.9575,1.54 v -1.5575 l 4.06,-2.1 h 0.42 v 10.395 h 2.8 z"
         style="font-size:17.5px"
         id="path171" />
      <path
         d="m 187.02696,184.98112 q 0,-0.3675 0.21,-0.77 0.2275,-0.4025 0.7,-0.91 l 0.84,-0.9625 q 0.3325,-0.385 0.455,-0.5775 0.1225,-0.1925 0.1225,-0.3675 0,-0.315 -0.4725,-0.56 -0.4725,-0.245 -1.575,-0.595 -0.4725,-0.14 -1.0675,-0.2975 -0.595,-0.175 -1.33,-0.3675 v -1.365 q 0.735,-0.1925 1.33,-0.35 0.595,-0.175 1.0675,-0.315 1.1025,-0.3325 1.575,-0.5775 0.4725,-0.245 0.4725,-0.5775 0,-0.175 -0.1225,-0.3675 -0.1225,-0.1925 -0.455,-0.595 l -0.84,-0.945 q -0.4725,-0.5075 -0.7,-0.91 -0.21,-0.4025 -0.21,-0.77 0,-0.665 0.455,-1.0325 0.4725,-0.3675 1.47,-0.525 l 4.06,-0.5775 0.175,1.2425 -3.8675,0.5425 q -0.35,0.0525 -0.525,0.175 -0.1575,0.1225 -0.1575,0.3325 0,0.14 0.1225,0.3325 0.1225,0.1925 0.42,0.5425 l 0.8575,0.9625 q 0.5425,0.6125 0.7525,0.9625 0.2275,0.35 0.2275,0.7 0,0.5425 -0.49,0.8925 -0.49,0.35 -1.6275,0.735 -0.525,0.175 -1.225,0.3675 -0.6825,0.1925 -1.54,0.4025 v 0.07 q 0.8575,0.21 1.54,0.4025 0.7,0.1925 1.225,0.3675 1.1375,0.385 1.6275,0.735 0.49,0.35 0.49,0.8925 0,0.35 -0.2275,0.7 -0.21,0.35 -0.7525,0.9625 l -0.8575,0.9625 q -0.2975,0.35 -0.42,0.5425 -0.1225,0.1925 -0.1225,0.3325 0,0.21 0.1575,0.3325 0.175,0.1225 0.525,0.175 l 3.8675,0.5425 -0.175,1.2425 -4.06,-0.5775 q -0.9975,-0.1575 -1.47,-0.525 -0.455,-0.3675 -0.455,-1.0325 z"
         style="font-size:17.5px"
         id="path173" />
      <path
         d="m 201.69197,184.98112 q 0,0.665 -0.4725,1.0325 -0.455,0.3675 -1.4525,0.525 l -4.06,0.5775 -0.175,-1.2425 3.8675,-0.5425 q 0.35,-0.0525 0.5075,-0.175 0.175,-0.1225 0.175,-0.3325 0,-0.14 -0.1225,-0.3325 -0.1225,-0.1925 -0.42,-0.5425 l -0.8575,-0.9625 q -0.5425,-0.6125 -0.77,-0.9625 -0.21,-0.35 -0.21,-0.7 0,-0.5425 0.49,-0.8925 0.49,-0.35 1.6275,-0.735 0.525,-0.175 1.2075,-0.3675 0.7,-0.1925 1.5575,-0.4025 v -0.07 q -0.8575,-0.21 -1.5575,-0.4025 -0.6825,-0.1925 -1.2075,-0.3675 -1.1375,-0.385 -1.6275,-0.735 -0.49,-0.35 -0.49,-0.8925 0,-0.35 0.21,-0.7 0.2275,-0.35 0.77,-0.9625 l 0.8575,-0.9625 q 0.2975,-0.35 0.42,-0.5425 0.1225,-0.1925 0.1225,-0.3325 0,-0.21 -0.175,-0.3325 -0.1575,-0.1225 -0.5075,-0.175 l -3.8675,-0.5425 0.175,-1.2425 4.06,0.5775 q 0.9975,0.1575 1.4525,0.525 0.4725,0.3675 0.4725,1.0325 0,0.3675 -0.2275,0.77 -0.21,0.4025 -0.6825,0.91 l -0.84,0.945 q -0.3325,0.4025 -0.455,0.595 -0.1225,0.1925 -0.1225,0.3675 0,0.315 0.4725,0.56 0.4725,0.245 1.575,0.595 0.4725,0.14 1.0675,0.315 0.595,0.1575 1.33,0.35 v 1.365 q -0.735,0.1925 -1.33,0.3675 -0.595,0.1575 -1.0675,0.2975 -1.1025,0.35 -1.575,0.595 -0.4725,0.245 -0.4725,0.56 0,0.175 0.1225,0.3675 0.1225,0.1925 0.455,0.5775 l 0.84,0.9625 q 0.4725,0.5075 0.6825,0.91 0.2275,0.4025 0.2275,0.77 z"
         style="font-size:17.5px"
         id="path175" />
      <path
         d="m 225.01949,187.04612 h -5.8625 v -16.135 h 5.8625 v 1.26 h -4.34 v 13.615 h 4.34 z"
         style="font-size:17.5px"
         id="path177" />
      <path
         d="m 232.50948,172.17112 h -4.34 v -1.26 h 5.8625 v 16.135 h -5.8625 v -1.26 h 4.34 z"
         style="font-size:17.5px"
         id="path179" />
      <path
         d="m 252.722,184.42112 q -1.5575,0 -2.59,-1.1025 -1.015,-1.1025 -1.015,-2.835 0,-1.75 1.2425,-2.9225 1.2425,-1.19 3.15,-1.19 0.665,0 1.2775,0.1575 0.6125,0.1575 1.19,0.4725 l 0.84,-0.525 h 0.4025 v 8.365 q 0,1.9775 -0.8575,2.87 -0.8575,0.8925 -2.8525,0.9975 l -3.01,0.1575 -0.0525,-1.2775 2.87,-0.1575 q 1.295,-0.07 1.855,-0.665 0.56,-0.5775 0.56,-1.8725 v -1.9075 q -0.7175,0.77 -1.4175,1.1025 -0.7,0.3325 -1.5925,0.3325 z m 0.9975,-6.79 q -1.3825,0 -2.2225,0.805 -0.84,0.7875 -0.84,2.0125 0,1.19 0.7175,1.96 0.7175,0.77 1.785,0.77 0.6475,0 1.225,-0.3325 0.595,-0.3325 1.3475,-1.085 v -3.465 q -0.525,-0.3325 -1.0325,-0.49 -0.49,-0.175 -0.98,-0.175 z"
         style="font-size:17.5px"
         id="path181" />
      <path
         d="m 268.2795,177.19362 q 0,1.645 -0.6825,3.01 -0.6825,1.3475 -2.2925,2.87 l -1.6975,1.61 h -2.0825 l -0.0175,-0.035 2.45,-2.1875 q 0.63,-0.56 1.085,-1.0675 0.455,-0.525 0.77,-1.0325 -0.5075,0.1575 -0.9625,0.245 -0.455,0.07 -0.945,0.07 -1.715,0 -2.7475,-1.015 -1.015,-1.015 -1.015,-2.7125 0,-1.7675 1.1725,-2.87 1.1725,-1.12 3.0275,-1.12 1.7325,0 2.835,1.1725 1.1025,1.155 1.1025,3.0625 z m -1.8725,1.995 q 0.175,-0.4725 0.245,-0.945 0.0875,-0.4725 0.0875,-0.98 0,-1.3825 -0.7175,-2.2225 -0.7,-0.84 -1.82,-0.84 -1.12,0 -1.82,0.77 -0.6825,0.77 -0.6825,2.0125 0,1.1725 0.6825,1.855 0.6825,0.6825 1.8725,0.6825 0.5425,0 1.0675,-0.07 0.5425,-0.0875 1.085,-0.2625 z"
         style="font-size:17.5px"
         id="path183" />
      <path
         d="m 274.22951,184.85862 q -1.5575,0 -2.59,-1.155 -1.0325,-1.155 -1.0325,-2.975 0,-1.855 1.2425,-3.08 1.2425,-1.2425 3.15,-1.2425 0.7,0 1.3125,0.175 0.63,0.1575 1.2075,0.49 l 0.7525,-0.56 h 0.4375 v 12.1975 h -1.505 v -5.285 q -0.735,0.77 -1.435,1.1025 -0.6825,0.3325 -1.54,0.3325 z m 0.98,-7.21 q -1.3825,0 -2.2225,0.8575 -0.84,0.8575 -0.84,2.17 0,1.295 0.7,2.1175 0.7175,0.805 1.8025,0.805 0.63,0 1.225,-0.315 0.595,-0.3325 1.33,-1.0675 v -3.9025 q -0.5075,-0.3325 -0.9975,-0.49 -0.49,-0.175 -0.9975,-0.175 z"
         style="font-size:17.5px"
         id="path185" />
      <path
         d="m 285.98952,184.94612 q -2.2225,0 -3.465,-1.5575 -1.225,-1.575 -1.225,-4.41 0,-2.6775 1.3825,-4.34 1.3825,-1.68 3.57,-1.68 0.9625,0 1.785,0.35 0.84,0.3325 2.0475,1.225 l -0.77,1.1025 q -0.9625,-0.7525 -1.6625,-1.085 -0.6825,-0.3325 -1.3825,-0.3325 -1.5225,0 -2.4675,1.295 -0.945,1.2775 -0.945,3.43 0,2.275 0.875,3.5175 0.8925,1.225 2.4675,1.225 0.7,0 1.4875,-0.35 0.7875,-0.35 1.785,-1.12 l 0.7175,1.0325 q -1.155,0.8925 -2.1525,1.295 -0.9975,0.4025 -2.0475,0.4025 z"
         style="font-size:17.5px"
         id="path187" />
      <path
         d="m 299.91951,173.22112 -0.1225,1.2775 q -0.56,-0.0875 -0.9275,-0.1225 -0.3675,-0.035 -0.8225,-0.035 -2.1,0 -3.2725,1.2075 -1.1725,1.2075 -1.1725,3.395 0,2.3625 0.9975,3.5525 1.015,1.19 3.0275,1.19 0.3675,0 0.7875,-0.0525 0.42,-0.0525 0.84,-0.14 v -3.7625 h -2.7475 v -1.225 h 4.2 v 5.985 q -0.8575,0.2275 -1.645,0.3325 -0.7875,0.1225 -1.5575,0.1225 -2.7125,0 -4.095,-1.505 -1.3825,-1.505 -1.3825,-4.445 0,-2.765 1.61,-4.34 1.61,-1.5925 4.375,-1.5925 0.4725,0 0.8925,0.035 0.42,0.035 1.015,0.1225 z"
         style="font-size:17.5px"
         id="path189" />
      <path
         d="m 310.08702,183.66862 2.3275,2.87 -1.2425,0.8575 -2.03,-2.975 q -0.4375,0.245 -0.945,0.3675 -0.49,0.14 -1.0325,0.14 -2.0825,0 -3.2375,-1.54 -1.1375,-1.5575 -1.1375,-4.3925 0,-2.8525 1.1725,-4.445 1.1725,-1.5925 3.2375,-1.5925 2.0825,0 3.22,1.575 1.155,1.5575 1.155,4.41 0,1.5225 -0.385,2.73 -0.385,1.2075 -1.1025,1.995 z m -2.905,-9.45 q -1.3825,0 -2.1175,1.2075 -0.7175,1.2075 -0.7175,3.535 0,2.3275 0.7175,3.535 0.735,1.2075 2.1175,1.2075 0.3675,0 0.6825,-0.07 0.3325,-0.0875 0.6125,-0.245 l -1.8025,-2.3625 0.9625,-0.665 1.61,2.2925 q 0.385,-0.5775 0.5775,-1.4875 0.1925,-0.9275 0.1925,-2.1875 0,-2.345 -0.735,-3.5525 -0.7175,-1.2075 -2.1,-1.2075 z"
         style="font-size:17.5px"
         id="path191" />
      <path
         d="m 332.17203,176.86112 1.1725,0.4025 q -0.6475,1.9425 -1.2075,2.7475 -0.56,0.7875 -1.3825,0.7875 -0.385,0 -0.805,-0.21 -0.4025,-0.2275 -1.4875,-1.05 -0.8925,-0.6825 -1.2425,-0.8925 -0.35,-0.21 -0.63,-0.21 -0.2625,0 -0.5075,0.42 -0.245,0.4025 -0.91,2.065 l -1.1725,-0.4025 q 0.6475,-1.96 1.2075,-2.7475 0.56,-0.805 1.3825,-0.805 0.385,0 0.7875,0.2275 0.42,0.21 1.505,1.0325 0.8925,0.6825 1.2425,0.8925 0.35,0.21 0.63,0.21 0.2625,0 0.5075,-0.4025 0.245,-0.4025 0.91,-2.065 z"
         style="font-size:17.5px"
         id="path193" />
      <path
         d="m 336.14456,180.50112 v -1.435 h 6.545 v 1.435 z"
         style="font-size:17.5px"
         id="path195" />
      <path
         d="m 349.44455,179.57362 h -3.43 v -1.2425 h 3.43 v -3.57 h 1.4175 v 3.57 h 3.4475 v 1.2425 h -3.4475 v 3.5875 h -1.4175 z"
         style="font-size:17.5px"
         id="path197" />
      <path
         d="m 364.65205,177.85862 h -7.49 v -1.2425 h 7.49 z m 0,3.43 h -7.49 v -1.26 h 7.49 z"
         style="font-size:17.5px"
         id="path199" />
      <path
         d="m 375.83457,178.36612 v 1.3825 l -8.225,3.5525 v -1.4 l 6.86,-2.8525 -6.86,-2.835 v -1.3825 z"
         style="font-size:17.5px"
         id="path201" />
    </g>
  </g>
</svg>
