<?xml version="1.0" encoding="UTF-8" standalone="no"?>
<svg
   version="1.1"
   id="svg2"
   viewBox="0 0 332.34791 107.45749"
   height="30.326891mm"
   width="93.795967mm"
   sodipodi:docname="IntoneMono Nerd Font.svg"
   xmlns:inkscape="http://www.inkscape.org/namespaces/inkscape"
   xmlns:sodipodi="http://sodipodi.sourceforge.net/DTD/sodipodi-0.dtd"
   xmlns="http://www.w3.org/2000/svg"
   xmlns:svg="http://www.w3.org/2000/svg"
   xmlns:rdf="http://www.w3.org/1999/02/22-rdf-syntax-ns#"
   xmlns:cc="http://creativecommons.org/ns#"
   xmlns:dc="http://purl.org/dc/elements/1.1/">
  <sodipodi:namedview
     id="namedview12"
     pagecolor="#ffffff"
     bordercolor="#666666"
     borderopacity="1.0"
     inkscape:showpageshadow="2"
     inkscape:pageopacity="0.0"
     inkscape:pagecheckerboard="0"
     inkscape:deskcolor="#d1d1d1"
     inkscape:document-units="mm" />
  <defs
     id="defs4" />
  <metadata
     id="metadata7">
    <rdf:RDF>
      <cc:Work
         rdf:about="">
        <dc:format>image/svg+xml</dc:format>
        <dc:type
           rdf:resource="http://purl.org/dc/dcmitype/StillImage" />
        <dc:title />
      </cc:Work>
    </rdf:RDF>
  </metadata>
  <g
     id="layer1"
     transform="translate(-66.119403,-81.408632)">
    <g
       aria-label="IntoneMono Nerd Font"
       id="text4136"
       style="font-size:27.5px;font-family:'IntoneMono Nerd Font';letter-spacing:0px;word-spacing:0px;fill:#ffffff">
      <path
         d="M 66.459643,100.93363 V 99.751132 L 70.117143,99.118632 V 84.736132 L 66.459643,84.103632 V 82.921132 H 76.139643 V 84.103632 L 72.509643,84.736132 V 99.118632 L 76.139643,99.751132 V 100.93363 Z"
         id="path14" />
      <path
         d="M 82.354653,88.146132 H 84.362153 L 84.609653,91.006132 Q 86.397153,89.301132 87.634653,88.641132 88.872153,87.953632 90.219653,87.953632 92.089653,87.953632 93.079653,89.026132 94.097153,90.071132 94.097153,92.023632 V 100.93363 H 91.732153 V 92.436132 Q 91.732153,91.226132 91.209653,90.676132 90.687153,90.098632 89.559653,90.098632 88.597153,90.098632 87.524653,90.758632 86.479653,91.418632 84.719653,93.068632 V 100.93363 H 82.354653 Z"
         id="path16" />
      <path
         d="M 102.64966,96.066132 V 90.126132 H 98.332163 V 88.146132 H 102.67716 V 83.388632 H 104.95966 V 88.146132 H 110.65216 V 90.126132 H 104.98716 V 95.736132 Q 104.98716,97.496132 105.50966,98.156132 106.03216,98.816132 107.54466,98.898632 L 111.42216,99.118632 111.25716,101.12613 106.99466,100.93363 Q 104.46466,100.79613 103.55716,99.778632 102.64966,98.761132 102.64966,96.066132 Z"
         id="path18" />
      <path
         d="M 128.63717,94.581132 Q 128.63717,97.578632 126.73967,99.476132 124.86967,101.34613 121.89967,101.34613 118.95717,101.34613 117.11467,99.448632 115.27217,97.551132 115.27217,94.498632 115.27217,91.528632 117.16967,89.631132 119.06717,87.733632 122.00967,87.733632 124.92467,87.733632 126.76717,89.658632 128.63717,91.556132 128.63717,94.581132 Z M 117.66467,94.526132 Q 117.66467,96.753632 118.81967,98.073632 120.00217,99.366132 121.95467,99.366132 123.93467,99.366132 125.08967,98.073632 126.24467,96.781132 126.24467,94.553632 126.24467,92.381132 125.06217,91.033632 123.87967,89.686132 121.95467,89.686132 120.02967,89.686132 118.84717,91.006132 117.66467,92.326132 117.66467,94.526132 Z"
         id="path20" />
      <path
         d="M 133.00968,88.146132 H 135.01718 L 135.26468,91.006132 Q 137.05218,89.301132 138.28968,88.641132 139.52718,87.953632 140.87468,87.953632 142.74468,87.953632 143.73468,89.026132 144.75218,90.071132 144.75218,92.023632 V 100.93363 H 142.38718 V 92.436132 Q 142.38718,91.226132 141.86468,90.676132 141.34218,90.098632 140.21468,90.098632 139.25218,90.098632 138.17968,90.758632 137.13468,91.418632 135.37468,93.068632 V 100.93363 H 133.00968 Z"
         id="path22" />
      <path
         d="M 157.09969,99.201132 159.73969,99.283632 159.65719,101.12613 156.41219,101.07113 Q 152.86469,101.01613 151.10469,99.448632 149.34469,97.853632 149.34469,94.746132 149.34469,91.693632 151.21469,89.713632 153.11219,87.733632 155.99969,87.733632 158.88719,87.733632 160.50969,89.493632 162.13219,91.226132 162.13219,94.388632 162.13219,94.691132 162.10469,94.938632 162.07719,95.186132 162.04969,95.378632 H 151.68219 Q 151.87469,97.303632 153.13969,98.211132 154.43219,99.118632 157.09969,99.201132 Z M 155.99969,89.603632 Q 154.32219,89.603632 153.13969,90.703632 151.98469,91.776132 151.73719,93.618632 H 159.79469 Q 159.65719,91.638632 158.69469,90.621132 157.73219,89.603632 155.99969,89.603632 Z"
         id="path24" />
      <path
         d="M 175.9647,82.921132 H 178.6047 L 179.3472,100.93363 H 177.0922 L 176.6247,85.671132 172.8847,96.011132 H 172.3347 L 168.5947,85.973632 168.1272,100.93363 H 165.8722 L 166.6147,82.921132 H 169.2822 L 172.6372,91.913632 Z"
         id="path26" />
      <path
         d="M 196.17721,94.581132 Q 196.17721,97.578632 194.27971,99.476132 192.40971,101.34613 189.43971,101.34613 186.49721,101.34613 184.65471,99.448632 182.81221,97.551132 182.81221,94.498632 182.81221,91.528632 184.70971,89.631132 186.60721,87.733632 189.54971,87.733632 192.46471,87.733632 194.30721,89.658632 196.17721,91.556132 196.17721,94.581132 Z M 185.20471,94.526132 Q 185.20471,96.753632 186.35971,98.073632 187.54221,99.366132 189.49471,99.366132 191.47471,99.366132 192.62971,98.073632 193.78471,96.781132 193.78471,94.553632 193.78471,92.381132 192.60221,91.033632 191.41971,89.686132 189.49471,89.686132 187.56971,89.686132 186.38721,91.006132 185.20471,92.326132 185.20471,94.526132 Z"
         id="path28" />
      <path
         d="M 200.54972,88.146132 H 202.55722 L 202.80472,91.006132 Q 204.59222,89.301132 205.82972,88.641132 207.06722,87.953632 208.41472,87.953632 210.28472,87.953632 211.27472,89.026132 212.29222,90.071132 212.29222,92.023632 V 100.93363 H 209.92722 V 92.436132 Q 209.92722,91.226132 209.40472,90.676132 208.88222,90.098632 207.75472,90.098632 206.79222,90.098632 205.71972,90.758632 204.67472,91.418632 202.91472,93.068632 V 100.93363 H 200.54972 Z"
         id="path30" />
      <path
         d="M 229.94723,94.581132 Q 229.94723,97.578632 228.04973,99.476132 226.17973,101.34613 223.20973,101.34613 220.26723,101.34613 218.42473,99.448632 216.58223,97.551132 216.58223,94.498632 216.58223,91.528632 218.47973,89.631132 220.37723,87.733632 223.31973,87.733632 226.23473,87.733632 228.07723,89.658632 229.94723,91.556132 229.94723,94.581132 Z M 218.97473,94.526132 Q 218.97473,96.753632 220.12973,98.073632 221.31223,99.366132 223.26473,99.366132 225.24473,99.366132 226.39973,98.073632 227.55473,96.781132 227.55473,94.553632 227.55473,92.381132 226.37223,91.033632 225.18973,89.686132 223.26473,89.686132 221.33973,89.686132 220.15723,91.006132 218.97473,92.326132 218.97473,94.526132 Z"
         id="path32" />
      <path
         d="M 253.15725,85.836132 253.29475,100.93363 H 251.06725 V 82.921132 H 254.11975 L 260.91225,97.661132 260.77475,82.921132 H 263.00225 V 100.93363 H 260.11475 Z"
         id="path34" />
      <path
         d="M 275.29476,99.201132 277.93476,99.283632 277.85226,101.12613 274.60726,101.07113 Q 271.05976,101.01613 269.29976,99.448632 267.53976,97.853632 267.53976,94.746132 267.53976,91.693632 269.40976,89.713632 271.30726,87.733632 274.19476,87.733632 277.08226,87.733632 278.70476,89.493632 280.32726,91.226132 280.32726,94.388632 280.32726,94.691132 280.29976,94.938632 280.27226,95.186132 280.24476,95.378632 H 269.87726 Q 270.06976,97.303632 271.33476,98.211132 272.62726,99.118632 275.29476,99.201132 Z M 274.19476,89.603632 Q 272.51726,89.603632 271.33476,90.703632 270.17976,91.776132 269.93226,93.618632 H 277.98976 Q 277.85226,91.638632 276.88976,90.621132 275.92726,89.603632 274.19476,89.603632 Z"
         id="path36" />
      <path
         d="M 283.76477,100.93363 V 98.953632 H 287.11977 V 90.126132 H 284.31477 V 88.146132 H 289.20977 L 289.34727,92.601132 Q 291.07977,90.153632 292.17977,89.246132 293.27977,88.311132 294.95727,88.201132 L 297.65227,88.036132 297.81727,90.373632 295.20477,90.593632 Q 293.88477,90.676132 293.25227,90.978632 292.61977,91.253632 291.90477,91.941132 291.49227,92.298632 290.94227,92.931132 290.41977,93.536132 289.45727,94.691132 V 98.953632 H 293.55477 V 100.93363 Z"
         id="path38" />
      <path
         d="M 306.56228,101.18113 Q 304.11478,101.18113 302.49228,99.366132 300.86978,97.551132 300.86978,94.691132 300.86978,91.748632 302.68478,89.851132 304.52728,87.953632 307.33228,87.953632 308.45978,87.953632 309.39478,88.311132 310.35728,88.668632 311.23728,89.411132 V 81.408632 H 313.60228 V 100.93363 H 311.59478 L 311.37478,98.816132 Q 310.16478,100.08113 309.03728,100.63113 307.93728,101.18113 306.56228,101.18113 Z M 307.68978,89.878632 Q 305.70978,89.878632 304.49978,91.198632 303.28978,92.491132 303.28978,94.608632 303.28978,96.643632 304.38978,97.936132 305.51728,99.228632 307.22228,99.228632 308.23978,99.228632 309.14728,98.706132 310.08228,98.183632 311.23728,97.028632 V 91.501132 Q 310.32978,90.676132 309.44978,90.291132 308.59728,89.878632 307.68978,89.878632 Z"
         id="path40" />
      <path
         d="M 335.7948,100.93363 V 82.921132 H 347.6473 V 84.901132 H 338.1873 V 91.721132 H 346.7398 V 93.701132 H 338.1873 V 100.93363 Z"
         id="path42" />
      <path
         d="M 365.02731,94.581132 Q 365.02731,97.578632 363.12981,99.476132 361.25981,101.34613 358.28981,101.34613 355.34731,101.34613 353.50481,99.448632 351.66231,97.551132 351.66231,94.498632 351.66231,91.528632 353.55981,89.631132 355.45731,87.733632 358.39981,87.733632 361.31481,87.733632 363.15731,89.658632 365.02731,91.556132 365.02731,94.581132 Z M 354.05481,94.526132 Q 354.05481,96.753632 355.20981,98.073632 356.39231,99.366132 358.34481,99.366132 360.32481,99.366132 361.47981,98.073632 362.63481,96.781132 362.63481,94.553632 362.63481,92.381132 361.45231,91.033632 360.26981,89.686132 358.34481,89.686132 356.41981,89.686132 355.23731,91.006132 354.05481,92.326132 354.05481,94.526132 Z"
         id="path44" />
      <path
         d="M 369.39982,88.146132 H 371.40732 L 371.65482,91.006132 Q 373.44232,89.301132 374.67982,88.641132 375.91732,87.953632 377.26482,87.953632 379.13482,87.953632 380.12482,89.026132 381.14232,90.071132 381.14232,92.023632 V 100.93363 H 378.77732 V 92.436132 Q 378.77732,91.226132 378.25482,90.676132 377.73232,90.098632 376.60482,90.098632 375.64232,90.098632 374.56982,90.758632 373.52482,91.418632 371.76482,93.068632 V 100.93363 H 369.39982 Z"
         id="path46" />
      <path
         d="M 389.69483,96.066132 V 90.126132 H 385.37733 V 88.146132 H 389.72233 V 83.388632 H 392.00483 V 88.146132 H 397.69733 V 90.126132 H 392.03233 V 95.736132 Q 392.03233,97.496132 392.55483,98.156132 393.07733,98.816132 394.58983,98.898632 L 398.46733,99.118632 398.30233,101.12613 394.03983,100.93363 Q 391.50983,100.79613 390.60233,99.778632 389.69483,98.761132 389.69483,96.066132 Z"
         id="path48" />
    </g>
    <g
       aria-label="abcdefghijklmnopqrstuvwxyzABCDEFGHIJKLMNOPQRSTUVWXYZ oO08 iIlL1 {} [] g9qCGQ ~-+=&gt;"
       id="text4140"
       style="font-size:17.5px;font-family:'IntoneMono Nerd Font';letter-spacing:0px;word-spacing:0px;fill:#ffffff">
      <path
         d="M 73.976903,135.31612 V 138.88612 Q 73.976903,139.41112 74.116903,139.58612 74.256903,139.76112 74.694403,139.79612 L 75.481903,139.84862 75.376903,141.00362 74.554403,140.96862 Q 73.644403,140.93362 73.189403,140.65362 72.734403,140.37362 72.559403,139.77862 H 72.401903 Q 71.596903,140.44362 70.774403,140.75862 69.969403,141.05612 69.059403,141.05612 67.921903,141.05612 67.256903,140.44362 66.591903,139.81362 66.591903,138.74612 66.591903,137.53862 67.239403,136.97862 67.904403,136.41862 69.479403,136.24362 L 72.506903,135.89362 V 135.28112 Q 72.506903,134.45862 72.051903,134.17862 71.596903,133.88112 70.371903,133.88112 69.864403,133.88112 69.076903,133.96862 68.306903,134.03862 67.484403,134.17862 L 67.326903,132.97112 Q 68.201903,132.81362 69.006903,132.74362 69.829403,132.65612 70.424403,132.65612 72.349403,132.65612 73.154403,133.25112 73.976903,133.84612 73.976903,135.31612 Z M 68.079403,138.64112 Q 68.079403,139.25362 68.411903,139.56862 68.744403,139.88362 69.391903,139.88362 70.109403,139.88362 70.809403,139.58612 71.509403,139.27112 72.506903,138.53612 V 136.87362 L 69.741903,137.24112 Q 68.849403,137.36362 68.464403,137.67862 68.079403,137.97612 68.079403,138.64112 Z"
         id="path51" />
      <path
         d="M 77.774409,128.50862 H 79.279409 V 134.05612 Q 80.014409,133.28612 80.696909,132.95362 81.396909,132.62112 82.254409,132.62112 83.811909,132.62112 84.844409,133.77612 85.876909,134.93112 85.876909,136.75112 85.876909,138.60612 84.634409,139.84862 83.391909,141.07362 81.484409,141.07362 80.819409,141.07362 80.189409,140.91612 79.559409,140.74112 78.964409,140.40862 L 78.211909,140.95112 H 77.774409 Z M 84.336909,136.80362 Q 84.336909,135.50862 83.619409,134.70362 82.919409,133.88112 81.834409,133.88112 81.204409,133.88112 80.609409,134.21362 80.014409,134.52862 79.279409,135.26362 V 139.14862 Q 79.786909,139.48112 80.276909,139.65612 80.766909,139.81362 81.274409,139.81362 82.639409,139.81362 83.479409,138.95612 84.336909,138.09862 84.336909,136.80362 Z"
         id="path53" />
      <path
         d="M 92.649414,133.81112 Q 91.336914,133.81112 90.514414,134.65112 89.691914,135.49112 89.691914,136.82112 89.691914,138.18612 90.479414,139.06112 91.266914,139.91862 92.491914,139.91862 93.279414,139.91862 94.031914,139.67362 94.801914,139.42862 95.799414,138.86862 L 96.446914,139.91862 Q 95.256914,140.60112 94.346914,140.89862 93.436914,141.19612 92.421914,141.19612 90.496914,141.19612 89.306914,140.00612 88.134414,138.79862 88.134414,136.80362 88.134414,135.00112 89.429414,133.77612 90.724414,132.53362 92.631914,132.53362 93.611914,132.53362 94.486914,132.84862 95.361914,133.14612 96.411914,133.84612 L 95.711914,134.94862 Q 94.766914,134.33612 94.084414,134.07362 93.401914,133.81112 92.649414,133.81112 Z"
         id="path55" />
      <path
         d="M 102.30942,141.09112 Q 100.75192,141.09112 99.719419,139.93612 98.686919,138.78112 98.686919,136.96112 98.686919,135.08862 99.841919,133.88112 101.01442,132.67362 102.79942,132.67362 103.51692,132.67362 104.11192,132.90112 104.72442,133.12862 105.28442,133.60112 V 128.50862 H 106.78942 V 140.93362 H 105.51192 L 105.37192,139.58612 Q 104.60192,140.39112 103.88442,140.74112 103.18442,141.09112 102.30942,141.09112 Z M 103.02692,133.89862 Q 101.76692,133.89862 100.99692,134.73862 100.22692,135.56112 100.22692,136.90862 100.22692,138.20362 100.92692,139.02612 101.64442,139.84862 102.72942,139.84862 103.37692,139.84862 103.95442,139.51612 104.54942,139.18362 105.28442,138.44862 V 134.93112 Q 104.70692,134.40612 104.14692,134.16112 103.60442,133.89862 103.02692,133.89862 Z"
         id="path57" />
      <path
         d="M 114.64693,139.83112 116.32693,139.88362 116.27443,141.05612 114.20943,141.02112 Q 111.95193,140.98612 110.83193,139.98862 109.71193,138.97362 109.71193,136.99612 109.71193,135.05362 110.90193,133.79362 112.10943,132.53362 113.94693,132.53362 115.78443,132.53362 116.81693,133.65362 117.84943,134.75612 117.84943,136.76862 117.84943,136.96112 117.83193,137.11862 117.81443,137.27612 117.79693,137.39862 H 111.19943 Q 111.32193,138.62362 112.12693,139.20112 112.94943,139.77862 114.64693,139.83112 Z M 113.94693,133.72362 Q 112.87943,133.72362 112.12693,134.42362 111.39193,135.10612 111.23443,136.27862 H 116.36193 Q 116.27443,135.01862 115.66193,134.37112 115.04943,133.72362 113.94693,133.72362 Z"
         id="path59" />
      <path
         d="M 123.20443,134.14362 H 120.45693 V 132.88362 H 123.20443 V 131.76362 Q 123.20443,130.06612 123.92193,129.34862 124.65693,128.61362 126.44193,128.49112 L 128.68193,128.35112 128.78693,129.62862 126.59943,129.78612 Q 125.53193,129.85612 125.09443,130.27612 124.67443,130.67862 124.67443,131.71112 V 132.88362 H 128.08693 V 134.14362 H 124.69193 V 140.93362 H 123.20443 Z"
         id="path61" />
      <path
         d="M 134.52693,140.67112 Q 132.96943,140.67112 131.93693,139.56862 130.92193,138.46612 130.92193,136.73362 130.92193,134.98362 132.16443,133.81112 133.40693,132.62112 135.31443,132.62112 135.97943,132.62112 136.59193,132.77862 137.20443,132.93612 137.78193,133.25112 L 138.62193,132.72612 H 139.02443 V 141.09112 Q 139.02443,143.06862 138.16693,143.96112 137.30943,144.85362 135.31443,144.95862 L 132.30443,145.11612 132.25193,143.83862 135.12193,143.68112 Q 136.41693,143.61112 136.97693,143.01612 137.53693,142.43862 137.53693,141.14362 V 139.23612 Q 136.81943,140.00612 136.11943,140.33862 135.41943,140.67112 134.52693,140.67112 Z M 135.52443,133.88112 Q 134.14193,133.88112 133.30193,134.68612 132.46193,135.47362 132.46193,136.69862 132.46193,137.88862 133.17943,138.65862 133.89693,139.42862 134.96443,139.42862 135.61193,139.42862 136.18943,139.09612 136.78443,138.76362 137.53693,138.01112 V 134.54612 Q 137.01193,134.21362 136.50443,134.05612 136.01443,133.88112 135.52443,133.88112 Z"
         id="path63" />
      <path
         d="M 142.29695,128.50862 H 143.80195 V 134.54612 Q 144.90445,133.51362 145.67445,133.09362 146.46195,132.67362 147.30195,132.67362 148.49195,132.67362 149.12195,133.35612 149.76945,134.02112 149.76945,135.26362 V 140.93362 H 148.26445 V 135.52612 Q 148.26445,134.75612 147.93195,134.40612 147.59945,134.03862 146.88195,134.03862 146.26945,134.03862 145.58695,134.45862 144.92195,134.87862 143.80195,135.92862 V 140.93362 H 142.29695 Z"
         id="path65" />
      <path
         d="M 158.11695,129.29612 Q 158.11695,129.80362 157.76695,130.10112 157.41695,130.38112 156.80445,130.38112 156.20945,130.38112 155.85945,130.08362 155.52695,129.78612 155.52695,129.26112 155.52695,128.77112 155.87695,128.47362 156.24445,128.15862 156.83945,128.15862 157.46945,128.15862 157.78445,128.45612 158.11695,128.73612 158.11695,129.29612 Z M 153.37445,140.93362 V 139.67362 H 156.26195 V 134.05612 H 153.72445 V 132.79612 H 157.76695 V 139.67362 H 160.67195 V 140.93362 Z"
         id="path67" />
      <path
         d="M 169.77195,129.29612 Q 169.77195,129.80362 169.42195,130.10112 169.07195,130.38112 168.45945,130.38112 167.84695,130.38112 167.49695,130.08362 167.16445,129.78612 167.16445,129.26112 167.16445,128.78862 167.53195,128.49112 167.89945,128.17612 168.47695,128.17612 169.10695,128.17612 169.43945,128.47362 169.77195,128.75362 169.77195,129.29612 Z M 169.43945,132.79612 V 141.79112 Q 169.43945,143.41862 168.70445,144.13612 167.98695,144.85362 166.21945,144.95862 L 163.92695,145.09862 163.87445,143.80362 166.11445,143.64612 Q 167.11195,143.55862 167.51445,143.13862 167.93445,142.73612 167.93445,141.80862 V 134.05612 H 164.20695 V 132.79612 Z"
         id="path69" />
      <path
         d="M 174.81196,128.50862 H 176.29946 V 136.43612 L 180.62196,132.79612 H 182.54696 V 132.83112 L 177.92696,136.64612 182.56446,140.89862 V 140.93362 H 180.55196 L 176.29946,136.92612 V 140.93362 H 174.81196 Z"
         id="path71" />
      <path
         d="M 187.84946,138.04612 V 129.76862 H 184.64696 V 128.50862 H 189.33696 V 137.88862 Q 189.33696,138.81612 189.68696,139.21862 190.05446,139.60362 190.94696,139.63862 L 192.85446,139.76112 192.76696,141.05612 190.68446,140.93362 Q 189.07446,140.84612 188.46196,140.21612 187.84946,139.58612 187.84946,138.04612 Z"
         id="path73" />
      <path
         d="M 195.28697,132.79612 H 196.40697 L 196.56447,134.59862 H 196.68697 Q 197.33447,133.61862 197.91197,133.16362 198.50697,132.70862 199.11947,132.70862 199.78447,132.70862 200.08197,133.07612 200.39697,133.44362 200.39697,134.23112 V 134.52862 H 200.53697 Q 201.16697,133.58362 201.70947,133.16362 202.26947,132.72612 202.89947,132.72612 203.58197,132.72612 203.89697,133.11112 204.21197,133.49612 204.21197,134.30112 V 140.93362 H 202.82947 V 134.73862 Q 202.82947,134.42362 202.70697,134.30112 202.58447,134.16112 202.30447,134.16112 201.97197,134.16112 201.53447,134.51112 201.11447,134.86112 200.41447,135.70112 V 140.93362 H 199.08447 V 134.72112 Q 199.08447,134.42362 198.96197,134.30112 198.83947,134.16112 198.55947,134.16112 198.20947,134.16112 197.77197,134.52862 197.35197,134.87862 196.65197,135.71862 V 140.93362 H 195.28697 Z"
         id="path75" />
      <path
         d="M 206.76698,132.79612 H 208.04448 L 208.20198,134.61612 Q 209.33948,133.53112 210.12698,133.11112 210.91448,132.67362 211.77198,132.67362 212.96198,132.67362 213.59198,133.35612 214.23948,134.02112 214.23948,135.26362 V 140.93362 H 212.73448 V 135.52612 Q 212.73448,134.75612 212.40198,134.40612 212.06948,134.03862 211.35198,134.03862 210.73948,134.03862 210.05698,134.45862 209.39198,134.87862 208.27198,135.92862 V 140.93362 H 206.76698 Z"
         id="path77" />
      <path
         d="M 225.47449,136.89112 Q 225.47449,138.79862 224.26699,140.00612 223.07699,141.19612 221.18699,141.19612 219.31449,141.19612 218.14199,139.98862 216.96949,138.78112 216.96949,136.83862 216.96949,134.94862 218.17699,133.74112 219.38449,132.53362 221.25699,132.53362 223.11199,132.53362 224.28449,133.75862 225.47449,134.96612 225.47449,136.89112 Z M 218.49199,136.85612 Q 218.49199,138.27362 219.22699,139.11362 219.97949,139.93612 221.22199,139.93612 222.48199,139.93612 223.21699,139.11362 223.95199,138.29112 223.95199,136.87362 223.95199,135.49112 223.19949,134.63362 222.44699,133.77612 221.22199,133.77612 219.99699,133.77612 219.24449,134.61612 218.49199,135.45612 218.49199,136.85612 Z"
         id="path79" />
      <path
         d="M 229.70948,144.95862 H 228.20448 V 132.79612 H 229.48198 L 229.62198,134.21362 Q 230.39198,133.37362 231.09198,133.00612 231.80948,132.63862 232.70198,132.63862 234.24198,132.63862 235.27448,133.81112 236.30698,134.96612 236.30698,136.76862 236.30698,138.62362 235.15198,139.84862 234.01448,141.05612 232.29948,141.05612 231.56448,141.05612 230.93448,140.79362 230.32198,140.53112 229.70948,139.97112 Z M 234.76698,136.80362 Q 234.76698,135.52612 234.04948,134.70362 233.33198,133.88112 232.26448,133.88112 231.61698,133.88112 231.02198,134.21362 230.44448,134.54612 229.70948,135.28112 V 138.78112 Q 230.28698,139.30612 230.82948,139.56862 231.38948,139.81362 231.94948,139.81362 233.22698,139.81362 233.99698,138.99112 234.76698,138.15112 234.76698,136.80362 Z"
         id="path81" />
      <path
         d="M 241.99449,141.10862 Q 240.43699,141.10862 239.40449,139.95362 238.37199,138.79862 238.37199,136.97862 238.37199,135.12362 239.61449,133.89862 240.85699,132.65612 242.76449,132.65612 243.46449,132.65612 244.07699,132.83112 244.70699,132.98862 245.28449,133.32112 L 246.03699,132.76112 H 246.47449 V 144.95862 H 244.96949 V 139.67362 Q 244.23449,140.44362 243.53449,140.77612 242.85199,141.10862 241.99449,141.10862 Z M 242.97449,133.89862 Q 241.59199,133.89862 240.75199,134.75612 239.91199,135.61362 239.91199,136.92612 239.91199,138.22112 240.61199,139.04362 241.32949,139.84862 242.41449,139.84862 243.04449,139.84862 243.63949,139.53362 244.23449,139.20112 244.96949,138.46612 V 134.56362 Q 244.46199,134.23112 243.97199,134.07362 243.48199,133.89862 242.97449,133.89862 Z"
         id="path83" />
      <path
         d="M 248.977,140.93362 V 139.67362 H 251.112 V 134.05612 H 249.327 V 132.79612 H 252.442 L 252.5295,135.63112 Q 253.632,134.07362 254.332,133.49612 255.032,132.90112 256.0995,132.83112 L 257.8145,132.72612 257.9195,134.21362 256.257,134.35362 Q 255.417,134.40612 255.0145,134.59862 254.612,134.77362 254.157,135.21112 253.8945,135.43862 253.5445,135.84112 253.212,136.22612 252.5995,136.96112 V 139.67362 H 255.207 V 140.93362 Z"
         id="path85" />
      <path
         d="M 267.9645,138.65862 Q 267.9645,139.83112 266.897,140.49612 265.847,141.16112 263.9045,141.16112 263.047,141.16112 262.207,141.07362 261.3845,140.98612 260.4745,140.81112 L 260.702,139.53362 Q 261.5595,139.70862 262.417,139.81362 263.292,139.91862 263.922,139.91862 265.1995,139.91862 265.812,139.63862 266.442,139.34112 266.442,138.76362 266.442,138.29112 266.092,138.04612 265.7595,137.78362 264.8845,137.57362 L 263.362,137.22362 Q 261.8745,136.85612 261.2795,136.36612 260.6845,135.87612 260.6845,134.89612 260.6845,133.75862 261.682,133.16362 262.6795,132.56862 264.6045,132.56862 265.1995,132.56862 266.0395,132.65612 266.8795,132.74362 267.632,132.88362 L 267.422,134.16112 Q 266.6345,133.98612 265.882,133.89862 265.147,133.79362 264.587,133.79362 263.3795,133.79362 262.802,134.03862 262.2245,134.26612 262.2245,134.77362 262.2245,135.22862 262.557,135.47362 262.907,135.70112 263.7645,135.92862 L 265.2695,136.27862 Q 266.7745,136.62862 267.3695,137.13612 267.9645,137.64362 267.9645,138.65862 Z"
         id="path87" />
      <path
         d="M 273.40701,137.83612 V 134.05612 H 270.65951 V 132.79612 H 273.42451 V 129.76862 H 274.87701 V 132.79612 H 278.49951 V 134.05612 H 274.89451 V 137.62612 Q 274.89451,138.74612 275.22701,139.16612 275.55951,139.58612 276.52201,139.63862 L 278.98951,139.77862 278.88451,141.05612 276.17201,140.93362 Q 274.56201,140.84612 273.98451,140.19862 273.40701,139.55112 273.40701,137.83612 Z"
         id="path89" />
      <path
         d="M 289.40202,132.79612 V 140.93362 H 288.03702 L 287.94952,139.13112 Q 286.81202,140.21612 286.02452,140.63612 285.23702,141.05612 284.39702,141.05612 283.20702,141.05612 282.55952,140.39112 281.92952,139.70862 281.92952,138.46612 V 132.79612 H 283.43452 V 138.20362 Q 283.43452,138.97362 283.76702,139.34112 284.11702,139.69112 284.81702,139.69112 285.42952,139.69112 286.09452,139.27112 286.77702,138.85112 287.89702,137.78362 V 132.79612 Z"
         id="path91" />
      <path
         d="M 295.56201,140.93362 292.02701,132.79612 H 293.70701 L 296.47201,139.58612 299.25451,132.79612 H 300.84701 L 297.32951,140.93362 Z"
         id="path93" />
      <path
         d="M 311.80202,132.79612 310.08702,140.93362 H 308.58202 L 307.16452,136.62862 305.72952,140.93362 H 304.24202 L 302.57952,132.79612 H 303.99702 L 305.22202,139.32362 307.04202,133.91612 H 307.33952 L 309.15952,139.30612 310.38452,132.79612 Z"
         id="path95" />
      <path
         d="M 315.42453,140.93362 H 313.67453 L 316.99953,136.73362 313.90203,132.79612 H 315.75703 L 317.94453,135.80612 320.18453,132.79612 H 321.91703 L 318.81953,136.71612 322.21453,140.93362 H 320.37703 L 317.89203,137.59112 Z"
         id="path97" />
      <path
         d="M 333.09953,132.79612 328.74203,143.08612 Q 328.33953,144.03112 327.74453,144.45112 327.14953,144.88862 326.06453,144.94112 L 324.12203,145.02862 324.08703,143.75112 325.73203,143.66362 Q 326.46703,143.62862 326.78203,143.43612 327.11453,143.24362 327.35953,142.73612 L 327.95453,141.38862 324.29703,132.79612 H 325.97703 L 328.77703,139.65612 331.50703,132.79612 Z"
         id="path99" />
      <path
         d="M 343.47706,140.93362 H 335.54956 V 139.90112 L 341.11456,134.05612 V 134.00362 H 335.75956 V 132.79612 H 343.19706 V 133.84612 L 337.70206,139.65612 V 139.70862 H 343.47706 Z"
         id="path101" />
      <path
         d="M 68.639403,159.69362 67.659403,162.80862 H 66.119403 L 69.864403,151.34612 H 71.736903 L 75.464403,162.80862 H 73.871903 L 72.856903,159.69362 Z M 70.739403,152.90362 69.024403,158.46862 H 72.489403 Z"
         id="path103" />
      <path
         d="M 77.826909,162.80862 V 151.34612 H 81.991909 Q 83.706909,151.34612 84.581909,152.02862 85.474409,152.71112 85.474409,154.02362 85.474409,155.12612 84.791909,155.84362 84.126909,156.56112 82.779409,156.89362 V 156.96362 Q 84.354409,157.17362 85.194409,157.94362 86.034409,158.71362 86.034409,159.95612 86.034409,161.35612 85.054409,162.09112 84.074409,162.80862 82.166909,162.80862 Z M 83.934409,154.26862 Q 83.934409,153.41112 83.409409,152.97362 82.884409,152.53612 81.851909,152.53612 H 79.314409 V 156.49112 L 81.064409,156.40362 Q 82.429409,156.33362 83.181909,155.77362 83.934409,155.19612 83.934409,154.26862 Z M 84.529409,159.79862 Q 84.529409,158.83612 83.724409,158.27612 82.919409,157.69862 81.431909,157.64612 L 79.314409,157.55862 V 161.61862 H 82.149409 Q 83.304409,161.61862 83.916909,161.14612 84.529409,160.67362 84.529409,159.79862 Z"
         id="path105" />
      <path
         d="M 92.579414,163.07112 Q 90.356914,163.07112 89.114414,161.51362 87.889414,159.93862 87.889414,157.10362 87.889414,154.42612 89.271914,152.76362 90.654414,151.08362 92.841914,151.08362 93.804414,151.08362 94.626914,151.43362 95.466914,151.76612 96.674414,152.65862 L 95.904414,153.76112 Q 94.941914,153.00862 94.241914,152.67612 93.559414,152.34362 92.859414,152.34362 91.336914,152.34362 90.391914,153.63862 89.446914,154.91612 89.446914,157.06862 89.446914,159.34362 90.321914,160.58612 91.214414,161.81112 92.789414,161.81112 93.489414,161.81112 94.276914,161.46112 95.064414,161.11112 96.061914,160.34112 L 96.779414,161.37362 Q 95.624414,162.26612 94.626914,162.66862 93.629414,163.07112 92.579414,163.07112 Z"
         id="path107" />
      <path
         d="M 99.264419,162.80862 V 151.34612 H 101.15442 Q 104.16442,151.34612 105.82692,152.81612 107.48942,154.26862 107.48942,156.92862 107.48942,159.74612 105.68692,161.28612 103.88442,162.80862 100.55942,162.80862 Z M 105.93192,156.96362 Q 105.93192,154.89862 104.79442,153.77862 103.65692,152.65862 101.57442,152.62362 L 100.78692,152.58862 V 161.54862 L 101.10192,161.53112 Q 103.48192,161.49612 104.70692,160.34112 105.93192,159.18612 105.93192,156.96362 Z"
         id="path109" />
      <path
         d="M 110.11443,162.80862 V 151.34612 H 117.76193 V 152.60612 H 111.63693 V 156.38612 H 116.81693 V 157.64612 H 111.63693 V 161.54862 H 117.88443 V 162.80862 Z"
         id="path111" />
      <path
         d="M 120.91193,162.80862 V 151.34612 H 128.45443 V 152.60612 H 122.43443 V 156.94612 H 127.87693 V 158.20612 H 122.43443 V 162.80862 Z"
         id="path113" />
      <path
         d="M 138.74443,151.34612 138.62193,152.62362 Q 138.06193,152.53612 137.69443,152.50112 137.32693,152.46612 136.87193,152.46612 134.77193,152.46612 133.59943,153.67362 132.42693,154.88112 132.42693,157.06862 132.42693,159.43112 133.42443,160.62112 134.43943,161.81112 136.45193,161.81112 136.81943,161.81112 137.23943,161.75862 137.65943,161.70612 138.07943,161.61862 V 157.85612 H 135.33193 V 156.63112 H 139.53193 V 162.61612 Q 138.67443,162.84362 137.88693,162.94862 137.09943,163.07112 136.32943,163.07112 133.61693,163.07112 132.23443,161.56612 130.85193,160.06112 130.85193,157.12112 130.85193,154.35612 132.46193,152.78112 134.07193,151.18862 136.83693,151.18862 137.30943,151.18862 137.72943,151.22362 138.14943,151.25862 138.74443,151.34612 Z"
         id="path115" />
      <path
         d="M 142.24445,162.80862 V 151.34612 H 143.76695 V 156.38612 H 148.24695 V 151.34612 H 149.76945 V 162.80862 H 148.24695 V 157.66362 H 143.76695 V 162.80862 Z"
         id="path117" />
      <path
         d="M 153.67195,162.80862 V 162.05612 L 155.99945,161.65362 V 152.50112 L 153.67195,152.09862 V 151.34612 H 159.83195 V 152.09862 L 157.52195,152.50112 V 161.65362 L 159.83195,162.05612 V 162.80862 Z"
         id="path119" />
      <path
         d="M 167.75945,163.01862 Q 166.56945,163.01862 165.55445,162.47612 164.53945,161.93362 162.98195,160.49862 L 163.94445,159.43112 Q 165.23945,160.65612 166.07945,161.18112 166.91945,161.68862 167.72445,161.68862 168.66945,161.68862 169.14195,161.14612 169.61445,160.58612 169.61445,159.48362 V 151.34612 H 171.13695 V 159.57112 Q 171.13695,161.21612 170.26195,162.12612 169.38695,163.01862 167.75945,163.01862 Z"
         id="path121" />
      <path
         d="M 174.53196,151.34612 H 176.05446 V 156.87612 L 181.12946,151.34612 H 183.00196 V 151.38112 L 177.82196,156.91112 183.21196,162.77362 V 162.80862 H 181.21696 L 176.05446,157.19112 V 162.80862 H 174.53196 Z"
         id="path123" />
      <path
         d="M 185.32946,162.80862 V 151.34612 H 186.85196 V 161.56612 H 193.11696 V 162.80862 Z"
         id="path125" />
      <path
         d="M 201.86697,151.34612 H 203.54697 L 204.01947,162.80862 H 202.58447 L 202.28697,153.09612 199.90697,159.67612 H 199.55697 L 197.17697,153.28862 196.87947,162.80862 H 195.44447 L 195.91697,151.34612 H 197.61447 L 199.74947,157.06862 Z"
         id="path127" />
      <path
         d="M 208.00948,153.20112 208.09698,162.80862 H 206.67948 V 151.34612 H 208.62198 L 212.94448,160.72612 212.85698,151.34612 H 214.27448 V 162.80862 H 212.43698 Z"
         id="path129" />
      <path
         d="M 221.23949,151.08362 Q 223.30449,151.08362 224.45949,152.65862 225.61449,154.21612 225.61449,157.05112 225.61449,159.92112 224.44199,161.49612 223.28699,163.07112 221.20449,163.07112 219.12199,163.07112 217.96699,161.51362 216.82949,159.95612 216.82949,157.12112 216.82949,154.26862 218.00199,152.67612 219.17449,151.08362 221.23949,151.08362 Z M 221.22199,152.34362 Q 219.83949,152.34362 219.10449,153.55112 218.38699,154.75862 218.38699,157.08612 218.38699,159.41362 219.10449,160.62112 219.83949,161.81112 221.22199,161.81112 222.60449,161.81112 223.32199,160.62112 224.05699,159.41362 224.05699,157.08612 224.05699,154.75862 223.32199,153.55112 222.60449,152.34362 221.22199,152.34362 Z"
         id="path131" />
      <path
         d="M 228.25698,162.80862 V 151.34612 H 232.15948 Q 234.24198,151.34612 235.39698,152.32612 236.55198,153.28862 236.55198,155.03862 236.55198,156.82362 235.32698,157.82112 234.11948,158.80112 231.93198,158.80112 H 229.77948 V 162.80862 Z M 235.01198,155.07362 Q 235.01198,153.88362 234.27698,153.25362 233.54198,152.60612 232.15948,152.60612 H 229.77948 V 157.55862 H 232.03698 Q 233.43698,157.55862 234.22448,156.91112 235.01198,156.24612 235.01198,155.07362 Z"
         id="path133" />
      <path
         d="M 245.61699,161.79362 247.94449,164.66362 246.70199,165.52112 244.67199,162.54612 Q 244.23449,162.79112 243.72699,162.91362 243.23699,163.05362 242.69449,163.05362 240.61199,163.05362 239.45699,161.51362 238.31949,159.95612 238.31949,157.12112 238.31949,154.26862 239.49199,152.67612 240.66449,151.08362 242.72949,151.08362 244.81199,151.08362 245.94949,152.65862 247.10449,154.21612 247.10449,157.06862 247.10449,158.59112 246.71949,159.79862 246.33449,161.00612 245.61699,161.79362 Z M 242.71199,152.34362 Q 241.32949,152.34362 240.59449,153.55112 239.87699,154.75862 239.87699,157.08612 239.87699,159.41362 240.59449,160.62112 241.32949,161.82862 242.71199,161.82862 243.07949,161.82862 243.39449,161.75862 243.72699,161.67112 244.00699,161.51362 L 242.20449,159.15112 243.16699,158.48612 244.77699,160.77862 Q 245.16199,160.20112 245.35449,159.29112 245.54699,158.36362 245.54699,157.10362 245.54699,154.75862 244.81199,153.55112 244.09449,152.34362 242.71199,152.34362 Z"
         id="path135" />
      <path
         d="M 255.5045,159.53612 258.252,162.73862 V 162.80862 H 256.327 L 253.8945,159.78112 Q 253.247,158.92362 252.7395,158.64362 252.232,158.34612 251.2695,158.25862 V 162.80862 H 249.747 V 151.34612 H 253.9295 Q 255.6095,151.34612 256.572,152.18612 257.5345,153.00862 257.5345,154.46112 257.5345,156.00112 256.5545,156.78862 255.592,157.57612 253.492,157.85612 V 157.96112 Q 254.122,158.20612 254.507,158.52112 254.892,158.83612 255.5045,159.53612 Z M 256.012,154.58362 Q 256.012,153.62112 255.3995,153.09612 254.8045,152.57112 253.667,152.57112 H 251.2695 V 157.22612 L 252.0745,157.12112 Q 254.192,156.87612 255.102,156.31612 256.012,155.73862 256.012,154.58362 Z"
         id="path137" />
      <path
         d="M 264.2195,161.77612 Q 265.4445,161.77612 266.092,161.26862 266.7395,160.74362 266.7395,159.78112 266.7395,159.04612 266.267,158.60862 265.7945,158.15362 264.727,157.82112 L 263.4845,157.41862 Q 261.9445,156.94612 261.227,156.15862 260.5095,155.35362 260.5095,154.11112 260.5095,152.79862 261.577,151.95862 262.6445,151.11862 264.4295,151.11862 265.2695,151.11862 266.0395,151.24112 266.827,151.36362 267.947,151.67862 L 267.6845,152.99112 Q 266.6345,152.67612 265.8295,152.53612 265.042,152.37862 264.3945,152.37862 263.257,152.37862 262.6445,152.79862 262.0495,153.21862 262.0495,154.00612 262.0495,154.79362 262.5045,155.26612 262.977,155.72112 264.0795,156.07112 L 265.3395,156.47362 Q 266.9495,156.98112 267.6145,157.71612 268.2795,158.45112 268.2795,159.71112 268.2795,161.26862 267.1945,162.16112 266.127,163.03612 264.202,163.03612 263.222,163.03612 262.207,162.82612 261.192,162.61612 260.0545,162.17862 L 260.422,160.88362 Q 261.6295,161.32112 262.592,161.54862 263.5545,161.77612 264.2195,161.77612 Z"
         id="path139" />
      <path
         d="M 274.19451,152.60612 H 270.46701 V 151.34612 H 279.42701 V 152.60612 H 275.71701 V 162.80862 H 274.19451 Z"
         id="path141" />
      <path
         d="M 285.69202,161.74112 Q 286.96952,161.74112 287.58202,161.00612 288.21202,160.27112 288.21202,158.74862 V 151.34612 H 289.71702 V 158.74862 Q 289.71702,160.90112 288.70202,161.98612 287.68702,163.07112 285.65702,163.07112 283.67952,163.07112 282.66452,161.98612 281.66702,160.88362 281.66702,158.74862 V 151.34612 H 283.18952 V 158.74862 Q 283.18952,160.25362 283.80202,161.00612 284.43202,161.74112 285.69202,161.74112 Z"
         id="path143" />
      <path
         d="M 295.52701,162.80862 291.76451,151.34612 H 293.35701 L 296.48951,161.09362 299.60451,151.34612 H 301.10951 L 297.36451,162.80862 Z"
         id="path145" />
      <path
         d="M 311.74952,151.34612 310.19202,162.80862 H 308.63452 L 307.14702,156.63112 305.67702,162.80862 H 304.15452 L 302.61452,151.34612 H 304.10202 L 305.18702,160.69112 306.98952,153.51612 H 307.40952 L 309.22952,160.72612 310.31452,151.34612 Z"
         id="path147" />
      <path
         d="M 315.02203,162.80862 H 313.35953 L 317.05203,156.92862 313.60453,151.34612 H 315.37203 L 317.92703,155.75612 320.46453,151.34612 H 322.17953 L 318.74953,156.84112 322.49453,162.80862 H 320.69203 L 317.87453,158.03112 Z"
         id="path149" />
      <path
         d="M 331.62953,151.34612 H 333.32703 L 329.44203,157.89112 V 162.80862 H 327.91953 V 157.92612 L 324.01703,151.34612 H 325.76703 L 328.70703,156.47362 Z"
         id="path151" />
      <path
         d="M 343.63456,162.80862 H 335.21706 V 161.81112 L 341.34206,152.74612 V 152.65862 H 335.49706 V 151.34612 H 343.37206 V 152.34362 L 337.19456,161.40862 V 161.51362 H 343.63456 Z"
         id="path153" />
      <path
         d="M 75.044403,180.64112 Q 75.044403,182.54862 73.836903,183.75612 72.646903,184.94612 70.756903,184.94612 68.884403,184.94612 67.711903,183.73862 66.539403,182.53112 66.539403,180.58862 66.539403,178.69862 67.746903,177.49112 68.954403,176.28362 70.826903,176.28362 72.681903,176.28362 73.854403,177.50862 75.044403,178.71612 75.044403,180.64112 Z M 68.061903,180.60612 Q 68.061903,182.02362 68.796903,182.86362 69.549403,183.68612 70.791903,183.68612 72.051903,183.68612 72.786903,182.86362 73.521903,182.04112 73.521903,180.62362 73.521903,179.24112 72.769403,178.38362 72.016903,177.52612 70.791903,177.52612 69.566903,177.52612 68.814403,178.36612 68.061903,179.20612 68.061903,180.60612 Z"
         id="path155" />
      <path
         d="M 81.554409,172.95862 Q 83.619409,172.95862 84.774409,174.53362 85.929409,176.09112 85.929409,178.92612 85.929409,181.79612 84.756909,183.37112 83.601909,184.94612 81.519409,184.94612 79.436909,184.94612 78.281909,183.38862 77.144409,181.83112 77.144409,178.99612 77.144409,176.14362 78.316909,174.55112 79.489409,172.95862 81.554409,172.95862 Z M 81.536909,174.21862 Q 80.154409,174.21862 79.419409,175.42612 78.701909,176.63362 78.701909,178.96112 78.701909,181.28862 79.419409,182.49612 80.154409,183.68612 81.536909,183.68612 82.919409,183.68612 83.636909,182.49612 84.371909,181.28862 84.371909,178.96112 84.371909,176.63362 83.636909,175.42612 82.919409,174.21862 81.536909,174.21862 Z"
         id="path157" />
      <path
         d="M 92.299414,172.95862 Q 94.294414,172.95862 95.379414,174.51612 96.481914,176.07362 96.481914,178.92612 96.481914,181.79612 95.379414,183.37112 94.276914,184.94612 92.264414,184.94612 90.251914,184.94612 89.166914,183.40612 88.081914,181.86612 88.081914,178.99612 88.081914,176.12612 89.184414,174.55112 90.304414,172.95862 92.299414,172.95862 Z M 92.281914,174.25362 Q 90.934414,174.25362 90.251914,175.42612 89.569414,176.59862 89.569414,178.96112 89.569414,179.39862 89.586914,179.74862 89.604414,180.08112 89.639414,180.37862 L 94.714414,176.45862 Q 94.416914,175.35612 93.804414,174.81362 93.191914,174.25362 92.281914,174.25362 Z M 92.281914,183.65112 Q 93.629414,183.65112 94.311914,182.47862 94.994414,181.28862 94.994414,178.96112 94.994414,178.54112 94.976914,178.20862 94.959414,177.85862 94.924414,177.57862 L 89.849414,181.49862 Q 90.164414,182.56612 90.759414,183.10862 91.371914,183.65112 92.281914,183.65112 Z"
         id="path159" />
      <path
         d="M 107.06942,181.62112 Q 107.06942,183.10862 105.93192,184.03612 104.81192,184.94612 103.00942,184.94612 101.22442,184.94612 100.10442,184.03612 98.984419,183.12612 98.984419,181.65612 98.984419,180.65862 99.684419,179.88862 100.38442,179.10112 101.57442,178.78612 V 178.69862 Q 100.54192,178.38362 99.929419,177.70112 99.334419,177.00112 99.334419,176.10862 99.334419,174.70862 100.36692,173.83362 101.41692,172.95862 103.06192,172.95862 104.68942,172.95862 105.70442,173.81612 106.71942,174.67362 106.71942,176.07362 106.71942,176.96612 106.12442,177.66612 105.52942,178.36612 104.49692,178.69862 V 178.78612 Q 105.66942,179.10112 106.36942,179.87112 107.06942,180.62362 107.06942,181.62112 Z M 100.83942,176.17862 Q 100.83942,177.05362 101.46942,177.63112 102.09942,178.20862 103.04442,178.20862 103.95442,178.20862 104.58442,177.63112 105.21442,177.03612 105.21442,176.14362 105.21442,175.25112 104.60192,174.70862 104.00692,174.16612 103.02692,174.16612 102.04692,174.16612 101.43442,174.72612 100.83942,175.26862 100.83942,176.17862 Z M 100.48942,181.58612 Q 100.48942,182.54862 101.18942,183.14362 101.90692,183.73862 103.04442,183.73862 104.16442,183.73862 104.86442,183.14362 105.56442,182.53112 105.56442,181.55112 105.56442,180.58862 104.84692,179.97612 104.12942,179.34612 103.02692,179.34612 101.94192,179.34612 101.20692,179.97612 100.48942,180.60612 100.48942,181.58612 Z"
         id="path161" />
      <path
         d="M 125.88193,173.04612 Q 125.88193,173.55362 125.53193,173.85112 125.18193,174.13112 124.56943,174.13112 123.97443,174.13112 123.62443,173.83362 123.29193,173.53612 123.29193,173.01112 123.29193,172.52112 123.64193,172.22362 124.00943,171.90862 124.60443,171.90862 125.23443,171.90862 125.54943,172.20612 125.88193,172.48612 125.88193,173.04612 Z M 121.13943,184.68362 V 183.42362 H 124.02693 V 177.80612 H 121.48943 V 176.54612 H 125.53193 V 183.42362 H 128.43693 V 184.68362 Z"
         id="path163" />
      <path
         d="M 132.18193,184.68362 V 183.93112 L 134.50943,183.52862 V 174.37612 L 132.18193,173.97362 V 173.22112 H 138.34193 V 173.97362 L 136.03193,174.37612 V 183.52862 L 138.34193,183.93112 V 184.68362 Z"
         id="path165" />
      <path
         d="M 144.86945,181.79612 V 173.51862 H 141.66695 V 172.25862 H 146.35695 V 181.63862 Q 146.35695,182.56612 146.70695,182.96862 147.07445,183.35362 147.96695,183.38862 L 149.87445,183.51112 149.78695,184.80612 147.70445,184.68362 Q 146.09445,184.59612 145.48195,183.96612 144.86945,183.33612 144.86945,181.79612 Z"
         id="path167" />
      <path
         d="M 153.09445,184.68362 V 173.22112 H 154.61695 V 183.44112 H 160.88195 V 184.68362 Z"
         id="path169" />
      <path
         d="M 171.38195,184.68362 H 164.11945 V 183.42362 H 167.05945 V 175.14612 L 164.10195,176.68612 V 175.12862 L 168.16195,173.02862 H 168.58195 V 183.42362 H 171.38195 Z"
         id="path171" />
      <path
         d="M 187.02696,184.98112 Q 187.02696,184.61362 187.23696,184.21112 187.46446,183.80862 187.93696,183.30112 L 188.77696,182.33862 Q 189.10946,181.95362 189.23196,181.76112 189.35446,181.56862 189.35446,181.39362 189.35446,181.07862 188.88196,180.83362 188.40946,180.58862 187.30696,180.23862 186.83446,180.09862 186.23946,179.94112 185.64446,179.76612 184.90946,179.57362 V 178.20862 Q 185.64446,178.01612 186.23946,177.85862 186.83446,177.68362 187.30696,177.54362 188.40946,177.21112 188.88196,176.96612 189.35446,176.72112 189.35446,176.38862 189.35446,176.21362 189.23196,176.02112 189.10946,175.82862 188.77696,175.42612 L 187.93696,174.48112 Q 187.46446,173.97362 187.23696,173.57112 187.02696,173.16862 187.02696,172.80112 187.02696,172.13612 187.48196,171.76862 187.95446,171.40112 188.95196,171.24362 L 193.01196,170.66612 193.18696,171.90862 189.31946,172.45112 Q 188.96946,172.50362 188.79446,172.62612 188.63696,172.74862 188.63696,172.95862 188.63696,173.09862 188.75946,173.29112 188.88196,173.48362 189.17946,173.83362 L 190.03696,174.79612 Q 190.57946,175.40862 190.78946,175.75862 191.01696,176.10862 191.01696,176.45862 191.01696,177.00112 190.52696,177.35112 190.03696,177.70112 188.89946,178.08612 188.37446,178.26112 187.67446,178.45362 186.99196,178.64612 186.13446,178.85612 V 178.92612 Q 186.99196,179.13612 187.67446,179.32862 188.37446,179.52112 188.89946,179.69612 190.03696,180.08112 190.52696,180.43112 191.01696,180.78112 191.01696,181.32362 191.01696,181.67362 190.78946,182.02362 190.57946,182.37362 190.03696,182.98612 L 189.17946,183.94862 Q 188.88196,184.29862 188.75946,184.49112 188.63696,184.68362 188.63696,184.82362 188.63696,185.03362 188.79446,185.15612 188.96946,185.27862 189.31946,185.33112 L 193.18696,185.87362 193.01196,187.11612 188.95196,186.53862 Q 187.95446,186.38112 187.48196,186.01362 187.02696,185.64612 187.02696,184.98112 Z"
         id="path173" />
      <path
         d="M 201.69197,184.98112 Q 201.69197,185.64612 201.21947,186.01362 200.76447,186.38112 199.76697,186.53862 L 195.70697,187.11612 195.53197,185.87362 199.39947,185.33112 Q 199.74947,185.27862 199.90697,185.15612 200.08197,185.03362 200.08197,184.82362 200.08197,184.68362 199.95947,184.49112 199.83697,184.29862 199.53947,183.94862 L 198.68197,182.98612 Q 198.13947,182.37362 197.91197,182.02362 197.70197,181.67362 197.70197,181.32362 197.70197,180.78112 198.19197,180.43112 198.68197,180.08112 199.81947,179.69612 200.34447,179.52112 201.02697,179.32862 201.72697,179.13612 202.58447,178.92612 V 178.85612 Q 201.72697,178.64612 201.02697,178.45362 200.34447,178.26112 199.81947,178.08612 198.68197,177.70112 198.19197,177.35112 197.70197,177.00112 197.70197,176.45862 197.70197,176.10862 197.91197,175.75862 198.13947,175.40862 198.68197,174.79612 L 199.53947,173.83362 Q 199.83697,173.48362 199.95947,173.29112 200.08197,173.09862 200.08197,172.95862 200.08197,172.74862 199.90697,172.62612 199.74947,172.50362 199.39947,172.45112 L 195.53197,171.90862 195.70697,170.66612 199.76697,171.24362 Q 200.76447,171.40112 201.21947,171.76862 201.69197,172.13612 201.69197,172.80112 201.69197,173.16862 201.46447,173.57112 201.25447,173.97362 200.78197,174.48112 L 199.94197,175.42612 Q 199.60947,175.82862 199.48697,176.02112 199.36447,176.21362 199.36447,176.38862 199.36447,176.70362 199.83697,176.94862 200.30947,177.19362 201.41197,177.54362 201.88447,177.68362 202.47947,177.85862 203.07447,178.01612 203.80947,178.20862 V 179.57362 Q 203.07447,179.76612 202.47947,179.94112 201.88447,180.09862 201.41197,180.23862 200.30947,180.58862 199.83697,180.83362 199.36447,181.07862 199.36447,181.39362 199.36447,181.56862 199.48697,181.76112 199.60947,181.95362 199.94197,182.33862 L 200.78197,183.30112 Q 201.25447,183.80862 201.46447,184.21112 201.69197,184.61362 201.69197,184.98112 Z"
         id="path175" />
      <path
         d="M 225.01949,187.04612 H 219.15699 V 170.91112 H 225.01949 V 172.17112 H 220.67949 V 185.78612 H 225.01949 Z"
         id="path177" />
      <path
         d="M 232.50948,172.17112 H 228.16948 V 170.91112 H 234.03198 V 187.04612 H 228.16948 V 185.78612 H 232.50948 Z"
         id="path179" />
      <path
         d="M 252.722,184.42112 Q 251.1645,184.42112 250.132,183.31862 249.117,182.21612 249.117,180.48362 249.117,178.73362 250.3595,177.56112 251.602,176.37112 253.5095,176.37112 254.1745,176.37112 254.787,176.52862 255.3995,176.68612 255.977,177.00112 L 256.817,176.47612 H 257.2195 V 184.84112 Q 257.2195,186.81862 256.362,187.71112 255.5045,188.60362 253.5095,188.70862 L 250.4995,188.86612 250.447,187.58862 253.317,187.43112 Q 254.612,187.36112 255.172,186.76612 255.732,186.18862 255.732,184.89362 V 182.98612 Q 255.0145,183.75612 254.3145,184.08862 253.6145,184.42112 252.722,184.42112 Z M 253.7195,177.63112 Q 252.337,177.63112 251.497,178.43612 250.657,179.22362 250.657,180.44862 250.657,181.63862 251.3745,182.40862 252.092,183.17862 253.1595,183.17862 253.807,183.17862 254.3845,182.84612 254.9795,182.51362 255.732,181.76112 V 178.29612 Q 255.207,177.96362 254.6995,177.80612 254.2095,177.63112 253.7195,177.63112 Z"
         id="path181" />
      <path
         d="M 268.2795,177.19362 Q 268.2795,178.83862 267.597,180.20362 266.9145,181.55112 265.3045,183.07362 L 263.607,184.68362 H 261.5245 L 261.507,184.64862 263.957,182.46112 Q 264.587,181.90112 265.042,181.39362 265.497,180.86862 265.812,180.36112 265.3045,180.51862 264.8495,180.60612 264.3945,180.67612 263.9045,180.67612 262.1895,180.67612 261.157,179.66112 260.142,178.64612 260.142,176.94862 260.142,175.18112 261.3145,174.07862 262.487,172.95862 264.342,172.95862 266.0745,172.95862 267.177,174.13112 268.2795,175.28612 268.2795,177.19362 Z M 266.407,179.18862 Q 266.582,178.71612 266.652,178.24362 266.7395,177.77112 266.7395,177.26362 266.7395,175.88112 266.022,175.04112 265.322,174.20112 264.202,174.20112 263.082,174.20112 262.382,174.97112 261.6995,175.74112 261.6995,176.98362 261.6995,178.15612 262.382,178.83862 263.0645,179.52112 264.2545,179.52112 264.797,179.52112 265.322,179.45112 265.8645,179.36362 266.407,179.18862 Z"
         id="path183" />
      <path
         d="M 274.22951,184.85862 Q 272.67201,184.85862 271.63951,183.70362 270.60701,182.54862 270.60701,180.72862 270.60701,178.87362 271.84951,177.64862 273.09201,176.40612 274.99951,176.40612 275.69951,176.40612 276.31201,176.58112 276.94201,176.73862 277.51951,177.07112 L 278.27201,176.51112 H 278.70951 V 188.70862 H 277.20451 V 183.42362 Q 276.46951,184.19362 275.76951,184.52612 275.08701,184.85862 274.22951,184.85862 Z M 275.20951,177.64862 Q 273.82701,177.64862 272.98701,178.50612 272.14701,179.36362 272.14701,180.67612 272.14701,181.97112 272.84701,182.79362 273.56451,183.59862 274.64951,183.59862 275.27951,183.59862 275.87451,183.28362 276.46951,182.95112 277.20451,182.21612 V 178.31362 Q 276.69701,177.98112 276.20701,177.82362 275.71701,177.64862 275.20951,177.64862 Z"
         id="path185" />
      <path
         d="M 285.98952,184.94612 Q 283.76702,184.94612 282.52452,183.38862 281.29952,181.81362 281.29952,178.97862 281.29952,176.30112 282.68202,174.63862 284.06452,172.95862 286.25202,172.95862 287.21452,172.95862 288.03702,173.30862 288.87702,173.64112 290.08452,174.53362 L 289.31452,175.63612 Q 288.35202,174.88362 287.65202,174.55112 286.96952,174.21862 286.26952,174.21862 284.74702,174.21862 283.80202,175.51362 282.85702,176.79112 282.85702,178.94362 282.85702,181.21862 283.73202,182.46112 284.62452,183.68612 286.19952,183.68612 286.89952,183.68612 287.68702,183.33612 288.47452,182.98612 289.47202,182.21612 L 290.18952,183.24862 Q 289.03452,184.14112 288.03702,184.54362 287.03952,184.94612 285.98952,184.94612 Z"
         id="path187" />
      <path
         d="M 299.91951,173.22112 299.79701,174.49862 Q 299.23701,174.41112 298.86951,174.37612 298.50201,174.34112 298.04701,174.34112 295.94701,174.34112 294.77451,175.54862 293.60201,176.75612 293.60201,178.94362 293.60201,181.30612 294.59951,182.49612 295.61451,183.68612 297.62701,183.68612 297.99451,183.68612 298.41451,183.63362 298.83451,183.58112 299.25451,183.49362 V 179.73112 H 296.50701 V 178.50612 H 300.70701 V 184.49112 Q 299.84951,184.71862 299.06201,184.82362 298.27451,184.94612 297.50451,184.94612 294.79201,184.94612 293.40951,183.44112 292.02701,181.93612 292.02701,178.99612 292.02701,176.23112 293.63701,174.65612 295.24701,173.06362 298.01201,173.06362 298.48451,173.06362 298.90451,173.09862 299.32451,173.13362 299.91951,173.22112 Z"
         id="path189" />
      <path
         d="M 310.08702,183.66862 312.41452,186.53862 311.17202,187.39612 309.14202,184.42112 Q 308.70452,184.66612 308.19702,184.78862 307.70702,184.92862 307.16452,184.92862 305.08202,184.92862 303.92702,183.38862 302.78952,181.83112 302.78952,178.99612 302.78952,176.14362 303.96202,174.55112 305.13452,172.95862 307.19952,172.95862 309.28202,172.95862 310.41952,174.53362 311.57452,176.09112 311.57452,178.94362 311.57452,180.46612 311.18952,181.67362 310.80452,182.88112 310.08702,183.66862 Z M 307.18202,174.21862 Q 305.79952,174.21862 305.06452,175.42612 304.34702,176.63362 304.34702,178.96112 304.34702,181.28862 305.06452,182.49612 305.79952,183.70362 307.18202,183.70362 307.54952,183.70362 307.86452,183.63362 308.19702,183.54612 308.47702,183.38862 L 306.67452,181.02612 307.63702,180.36112 309.24702,182.65362 Q 309.63202,182.07612 309.82452,181.16612 310.01702,180.23862 310.01702,178.97862 310.01702,176.63362 309.28202,175.42612 308.56452,174.21862 307.18202,174.21862 Z"
         id="path191" />
      <path
         d="M 332.17203,176.86112 333.34453,177.26362 Q 332.69703,179.20612 332.13703,180.01112 331.57703,180.79862 330.75453,180.79862 330.36953,180.79862 329.94953,180.58862 329.54703,180.36112 328.46203,179.53862 327.56953,178.85612 327.21953,178.64612 326.86953,178.43612 326.58953,178.43612 326.32703,178.43612 326.08203,178.85612 325.83703,179.25862 325.17203,180.92112 L 323.99953,180.51862 Q 324.64703,178.55862 325.20703,177.77112 325.76703,176.96612 326.58953,176.96612 326.97453,176.96612 327.37703,177.19362 327.79703,177.40362 328.88203,178.22612 329.77453,178.90862 330.12453,179.11862 330.47453,179.32862 330.75453,179.32862 331.01703,179.32862 331.26203,178.92612 331.50703,178.52362 332.17203,176.86112 Z"
         id="path193" />
      <path
         d="M 336.14456,180.50112 V 179.06612 H 342.68956 V 180.50112 Z"
         id="path195" />
      <path
         d="M 349.44455,179.57362 H 346.01455 V 178.33112 H 349.44455 V 174.76112 H 350.86205 V 178.33112 H 354.30955 V 179.57362 H 350.86205 V 183.16112 H 349.44455 Z"
         id="path197" />
      <path
         d="M 364.65205,177.85862 H 357.16205 V 176.61612 H 364.65205 Z M 364.65205,181.28862 H 357.16205 V 180.02862 H 364.65205 Z"
         id="path199" />
      <path
         d="M 375.83457,178.36612 V 179.74862 L 367.60957,183.30112 V 181.90112 L 374.46957,179.04862 367.60957,176.21362 V 174.83112 Z"
         id="path201" />
    </g>
  </g>
</svg>
