<?xml version="1.0" encoding="UTF-8" standalone="no"?>
<!-- Created with Inkscape (http://www.inkscape.org/) -->

<svg
   xmlns:dc="http://purl.org/dc/elements/1.1/"
   xmlns:cc="http://creativecommons.org/ns#"
   xmlns:rdf="http://www.w3.org/1999/02/22-rdf-syntax-ns#"
   xmlns:svg="http://www.w3.org/2000/svg"
   xmlns="http://www.w3.org/2000/svg"
   xmlns:sodipodi="http://sodipodi.sourceforge.net/DTD/sodipodi-0.dtd"
   xmlns:inkscape="http://www.inkscape.org/namespaces/inkscape"
   width="71.186958mm"
   height="30.392508mm"
   viewBox="0 0 252.23725 107.68999"
   id="svg2"
   version="1.1"
   inkscape:version="0.91 r13725"
   sodipodi:docname="Iosevka Nerd Font.svg">
  <defs
     id="defs4" />
  <sodipodi:namedview
     id="base"
     pagecolor="#ffffff"
     bordercolor="#666666"
     borderopacity="1.0"
     inkscape:pageopacity="0.0"
     inkscape:pageshadow="2"
     inkscape:zoom="0.7"
     inkscape:cx="-55.882147"
     inkscape:cy="-401.09394"
     inkscape:document-units="px"
     inkscape:current-layer="layer1"
     showgrid="false"
     inkscape:window-width="1861"
     inkscape:window-height="1056"
     inkscape:window-x="59"
     inkscape:window-y="24"
     inkscape:window-maximized="1" />
  <metadata
     id="metadata7">
    <rdf:RDF>
      <cc:Work
         rdf:about="">
        <dc:format>image/svg+xml</dc:format>
        <dc:type
           rdf:resource="http://purl.org/dc/dcmitype/StillImage" />
        <dc:title />
      </cc:Work>
    </rdf:RDF>
  </metadata>
  <g
     inkscape:label="Layer 1"
     inkscape:groupmode="layer"
     id="layer1"
     transform="translate(-65.882143,-80.721132)">
    <g
       style="font-style:normal;font-weight:normal;font-size:27.5px;line-height:125%;font-family:'Iosevka Nerd Font';text-decoration: underline;text-decoration-line: underline;letter-spacing:0px;word-spacing:0px;fill:#ffffff;fill-opacity:1;stroke:none;stroke-width:1px;stroke-linecap:butt;stroke-linejoin:miter;stroke-opacity:1"
       id="text4136">
      <path
         d="m 65.882143,100.93363 0,-1.979998 2.75,0 0,-16.2525 -2.75,0 0,-1.98 7.7,0 0,1.98 -2.75,0 0,16.2525 2.75,0 0,1.979998 -7.7,0 z"
         id="path4140"
         inkscape:connector-curvature="0" />
      <path
         d="m 83.482143,101.15363 q -1.1825,0 -2.2825,-0.4675 -1.1,-0.4675 -1.8425,-1.402498 -0.715,-0.935 -1.0175,-2.0625 -0.3025,-1.155 -0.3025,-2.3375 l 0,-2.475 q 0,-1.1825 0.3025,-2.31 0.3025,-1.155 1.0175,-2.09 0.7425,-0.935 1.8425,-1.4025 1.1,-0.4675 2.2825,-0.4675 1.1825,0 2.2825,0.4675 1.1,0.4675 1.815,1.4025 0.7425,0.935 1.045,2.09 0.3025,1.1275 0.3025,2.31 l 0,2.475 q 0,1.1825 -0.3025,2.3375 -0.3025,1.1275 -1.045,2.0625 -0.715,0.934998 -1.815,1.402498 -1.1,0.4675 -2.2825,0.4675 z m 0,-1.979998 q 0.77,0 1.43,-0.3575 0.6875,-0.385 1.1,-1.0175 0.4125,-0.66 0.55,-1.4025 0.165,-0.7425 0.165,-1.5125 l 0,-2.475 q 0,-0.77 -0.165,-1.5125 -0.1375,-0.7425 -0.55,-1.375 -0.4125,-0.66 -1.1,-1.0175 -0.66,-0.385 -1.43,-0.385 -0.77,0 -1.4575,0.385 -0.66,0.3575 -1.0725,1.0175 -0.4125,0.6325 -0.5775,1.375 -0.1375,0.7425 -0.1375,1.5125 l 0,2.475 q 0,0.77 0.1375,1.5125 0.165,0.7425 0.5775,1.4025 0.4125,0.6325 1.0725,1.0175 0.6875,0.3575 1.4575,0.3575 z"
         id="path4142"
         inkscape:connector-curvature="0" />
      <path
         d="m 97.177143,101.15363 q -1.1,0 -2.2,-0.3025 -1.0725,-0.3025 -1.8975,-1.099998 -0.825,-0.7975 -1.155,-1.8425 l 2.0625,-0.66 q 0.22,0.6325 0.715,1.1 0.495,0.4675 1.1275,0.66 0.66,0.165 1.3475,0.165 0.6875,0 1.375,-0.165 0.6875,-0.165 1.21,-0.6875 0.522497,-0.55 0.522497,-1.2375 0,-1.0175 -0.907497,-1.6225 -0.88,-0.6325 -1.8975,-0.6875 -0.99,-0.0825 -1.98,-0.275 -0.99,-0.22 -1.815,-0.825 -0.825,-0.605 -1.265,-1.5125 -0.44,-0.935 -0.44,-1.9525 0,-0.935 0.44,-1.7875 0.4675,-0.8525 1.265,-1.375 0.825,-0.5225 1.7325,-0.715 0.935,-0.1925 1.87,-0.1925 1.1,0 2.1725,0.3025 1.099997,0.3025 1.924997,1.1 0.825,0.7975 1.155,1.8425 l -2.0625,0.66 q -0.22,-0.6325 -0.714997,-1.1 -0.495,-0.4675 -1.155,-0.6325 -0.6325,-0.1925 -1.32,-0.1925 -0.6875,0 -1.375,0.165 -0.6875,0.165 -1.21,0.715 -0.5225,0.5225 -0.5225,1.21 0,1.0175 0.88,1.65 0.9075,0.605 1.8975,0.6875 1.0175,0.055 2.0075,0.275 0.99,0.1925 1.814997,0.7975 0.825,0.605 1.265,1.54 0.44,0.9075 0.44,1.925 0,0.935 -0.4675,1.7875 -0.44,0.8525 -1.265,1.374998 -0.797497,0.5225 -1.732497,0.715 -0.9075,0.1925 -1.8425,0.1925 z"
         id="path4144"
         inkscape:connector-curvature="0" />
      <path
         d="m 111.17464,101.15363 q -1.21,0 -2.3375,-0.44 -1.1275,-0.44 -1.8975,-1.374998 -0.77,-0.935 -1.1,-2.09 -0.3025,-1.1825 -0.3025,-2.365 l 0,-2.475 q 0,-1.1825 0.3025,-2.31 0.3025,-1.155 1.0175,-2.09 0.7425,-0.935 1.8425,-1.4025 1.1,-0.4675 2.2825,-0.4675 1.1825,0 2.2825,0.4675 1.1,0.4675 1.815,1.4025 0.7425,0.935 1.045,2.09 0.3025,1.1275 0.3025,2.31 l 0,2.2275 -8.69,0 0,0.2475 q 0,0.77 0.165,1.54 0.1925,0.77 0.6325,1.43 0.44,0.6325 1.155,0.99 0.715,0.33 1.485,0.33 0.7425,0 1.43,-0.3025 0.715,-0.33 1.155,-0.9625 0.4675,-0.6325 0.6875,-1.3475 l 2.0075,0.7975 q -0.3575,1.1275 -1.1275,2.035 -0.77,0.907498 -1.8975,1.347498 -1.1,0.4125 -2.255,0.4125 z m -3.4375,-8.497498 6.49,0 0,-0.2475 q 0,-0.77 -0.165,-1.5125 -0.1375,-0.7425 -0.55,-1.375 -0.4125,-0.66 -1.1,-1.0175 -0.66,-0.385 -1.43,-0.385 -0.77,0 -1.4575,0.385 -0.66,0.3575 -1.0725,1.0175 -0.4125,0.6325 -0.5775,1.375 -0.1375,0.7425 -0.1375,1.5125 l 0,0.2475 z"
         id="path4146"
         inkscape:connector-curvature="0" />
      <path
         d="m 123.46714,100.93363 q -3.96,-9.157498 -3.96,-13.117498 l 0,-1.4575 2.2,0 0,1.4575 q 0,3.5475 3.025,11.55 l 0.055,-0.1375 q 2.97,-7.8925 2.97,-11.4125 l 0,-1.4575 2.2,0 0,1.4575 q 0,3.96 -3.96,13.117498 l -2.53,0 z"
         id="path4148"
         inkscape:connector-curvature="0" />
      <path
         d="m 133.25714,100.93363 0,-20.212498 2.2,0 0,12.045 0.385,-0.3025 q 0.4675,-0.3575 0.935,-0.7425 0.4675,-0.385 0.9075,-0.77 0.4675,-0.4125 0.9075,-0.7975 0.44,-0.4125 0.8525,-0.825 0.44,-0.44 0.7975,-0.88 0.385,-0.4675 0.77,-0.9625 0.385,-0.5225 0.385,-1.1275 l 2.31,0 q 0,0.715 -0.4125,1.32 -0.4125,0.605 -0.8525,1.155 -0.44,0.55 -0.9075,1.0725 -0.4675,0.495 -0.9625,0.99 -0.495,0.4675 -0.9625,0.935 4.3175,6.7925 4.3175,9.102498 l -2.2,0 q 0,-1.979998 -3.7125,-7.699998 -0.3025,0.2475 -0.5775,0.495 -0.55,0.44 -1.1,0.88 -0.44,0.3575 -0.88,0.6875 l 0,5.637498 -2.2,0 z"
         id="path4150"
         inkscape:connector-curvature="0" />
      <path
         d="m 151.02214,101.15363 q -0.8525,0 -1.6775,-0.275 -0.825,-0.275 -1.43,-0.907498 -0.605,-0.6325 -0.88,-1.4575 -0.2475,-0.825 -0.2475,-1.6775 0,-0.8525 0.3025,-1.65 0.3025,-0.825 0.935,-1.4025 0.6325,-0.605 1.4025,-0.935 0.7975,-0.3575 1.6225,-0.495 0.8525,-0.1375 1.705,-0.1375 l 2.5025,0 0,-1.265 q 0,-0.605 -0.22,-1.155 -0.22,-0.5775 -0.6875,-0.9625 -0.44,-0.385 -1.0175,-0.55 -0.5775,-0.165 -1.1825,-0.165 -0.6875,0 -1.375,0.2475 -0.6875,0.22 -1.155,0.7975 -0.4675,0.5775 -0.55,1.265 l -2.1175,-0.495 q 0.165,-1.155 0.9625,-2.09 0.7975,-0.9625 1.925,-1.32 1.155,-0.385 2.31,-0.385 1.0175,0 2.0075,0.275 0.99,0.275 1.76,0.935 0.7975,0.66 1.155,1.6225 0.385,0.9625 0.385,1.98 l 0,9.982498 -2.2,0 0,-2.062498 q -0.1925,0.33 -0.44,0.6325 -0.6875,0.824998 -1.705,1.237498 -1.0175,0.4125 -2.09,0.4125 z m -0.66,-2.199998 q 0.66,0.22 1.3475,0.22 0.715,0 1.4025,-0.2475 0.6875,-0.2475 1.1825,-0.77 0.5225,-0.55 0.7425,-1.2375 0.22,-0.715 0.22,-1.43 l 0,-1.2925 -2.5025,0 q -0.6325,0 -1.2925,0.11 -0.6325,0.11 -1.21,0.44 -0.5775,0.3025 -0.935,0.88 -0.33,0.55 -0.33,1.21 0,0.66 0.3575,1.265 0.385,0.605 1.0175,0.8525 z"
         id="path4152"
         inkscape:connector-curvature="0" />
      <path
         d="m 174.50714,100.93363 0,-20.212498 0.935,0 2.1175,0 5.28,16.5275 q 0,-0.715 0,-1.43 l -0.0275,-0.275 0,-0.1375 0,-0.275 0,-0.275 0,-0.66 -0.0275,-0.275 0,-0.1375 0,-0.275 0,-0.5225 0,-0.275 q -0.0275,-1.87 -0.0275,-3.7675 l 0,-8.2225 2.2,0 0,20.212498 -0.935,0 -2.1175,0 -5.28,-16.527498 q 0,0.715 0,1.43 l 0.0275,0.275 0,0.1375 0,0.275 0,0.275 0,0.66 0.0275,0.275 0,0.1375 0,0.275 0,0.5225 0,0.275 q 0.0275,1.87 0.0275,3.7675 l 0,8.222498 -2.2,0 z"
         id="path4154"
         inkscape:connector-curvature="0" />
      <path
         d="m 193.67464,101.15363 q -1.21,0 -2.3375,-0.44 -1.1275,-0.44 -1.8975,-1.374998 -0.77,-0.935 -1.1,-2.09 -0.3025,-1.1825 -0.3025,-2.365 l 0,-2.475 q 0,-1.1825 0.3025,-2.31 0.3025,-1.155 1.0175,-2.09 0.7425,-0.935 1.8425,-1.4025 1.1,-0.4675 2.2825,-0.4675 1.1825,0 2.2825,0.4675 1.1,0.4675 1.815,1.4025 0.7425,0.935 1.045,2.09 0.3025,1.1275 0.3025,2.31 l 0,2.2275 -8.69,0 0,0.2475 q 0,0.77 0.165,1.54 0.1925,0.77 0.6325,1.43 0.44,0.6325 1.155,0.99 0.715,0.33 1.485,0.33 0.7425,0 1.43,-0.3025 0.715,-0.33 1.155,-0.9625 0.4675,-0.6325 0.6875,-1.3475 l 2.0075,0.7975 q -0.3575,1.1275 -1.1275,2.035 -0.77,0.907498 -1.8975,1.347498 -1.1,0.4125 -2.255,0.4125 z m -3.4375,-8.497498 6.49,0 0,-0.2475 q 0,-0.77 -0.165,-1.5125 -0.1375,-0.7425 -0.55,-1.375 -0.4125,-0.66 -1.1,-1.0175 -0.66,-0.385 -1.43,-0.385 -0.77,0 -1.4575,0.385 -0.66,0.3575 -1.0725,1.0175 -0.4125,0.6325 -0.5775,1.375 -0.1375,0.7425 -0.1375,1.5125 l 0,0.2475 z"
         id="path4156"
         inkscape:connector-curvature="0" />
      <path
         d="m 203.65714,100.93363 0,-14.574998 2.2,0 0,2.75 q 0.22,-0.605 0.55,-1.1825 0.4675,-0.77 1.265,-1.265 0.7975,-0.5225 1.705,-0.5225 0.7975,0 1.5125,0.3575 0.7425,0.33 1.2375,0.9625 0.5225,0.605 0.7425,1.375 l -2.0625,0.935 q -0.165,-0.66 -0.6875,-1.155 -0.5225,-0.495 -1.21,-0.495 -0.825,0 -1.5125,0.55 -0.66,0.55 -0.99,1.32 -0.3025,0.77 -0.44,1.595 -0.11,0.7975 -0.11,1.6225 l 0,7.727498 -2.2,0 z"
         id="path4158"
         inkscape:connector-curvature="0" />
      <path
         d="m 220.29464,101.15363 q -1.1275,0 -2.1175,-0.5225 -0.99,-0.55 -1.595,-1.512498 -0.5775,-0.9625 -0.825,-2.035 -0.22,-1.1 -0.22,-2.2 l 0,-2.475 q 0,-1.1 0.22,-2.1725 0.2475,-1.1 0.825,-2.0625 0.605,-0.9625 1.595,-1.485 0.99,-0.55 2.1175,-0.55 0.8525,0 1.6775,0.3575 0.825,0.33 1.4025,1.0175 0.3575,0.44 0.6325,0.935 l 0,-7.7275 2.2,0 0,20.212498 -2.2,0 0,-2.089998 q -0.275,0.495 -0.6325,0.935 -0.5775,0.687498 -1.4025,1.044998 -0.825,0.33 -1.6775,0.33 z m 0.66,-1.979998 q 0.7425,0 1.4025,-0.385 0.66,-0.385 1.0175,-1.045 0.3575,-0.66 0.495,-1.375 0.1375,-0.7425 0.1375,-1.485 l 0,-2.475 q 0,-0.7425 -0.1375,-1.4575 -0.1375,-0.7425 -0.495,-1.4025 -0.3575,-0.66 -1.0175,-1.045 -0.66,-0.385 -1.4025,-0.385 -0.7425,0 -1.43,0.385 -0.6875,0.3575 -1.1,1.0175 -0.385,0.66 -0.55,1.4025 -0.1375,0.7425 -0.1375,1.485 l 0,2.475 q 0,0.7425 0.1375,1.485 0.165,0.7425 0.55,1.4025 0.4125,0.66 1.1,1.045 0.6875,0.3575 1.43,0.3575 z m 3.8775,-4.1525 0,-0.11 0,0.11 z"
         id="path4160"
         inkscape:connector-curvature="0" />
      <path
         d="m 244.08214,100.93363 0,-20.212498 9.625,0 0,1.98 -7.425,0 0,6.325 5.8575,0 0,1.98 -5.8575,0 0,9.927498 -2.2,0 z"
         id="path4162"
         inkscape:connector-curvature="0" />
      <path
         d="m 262.23214,101.15363 q -1.1825,0 -2.2825,-0.4675 -1.1,-0.4675 -1.8425,-1.402498 -0.715,-0.935 -1.0175,-2.0625 -0.3025,-1.155 -0.3025,-2.3375 l 0,-2.475 q 0,-1.1825 0.3025,-2.31 0.3025,-1.155 1.0175,-2.09 0.7425,-0.935 1.8425,-1.4025 1.1,-0.4675 2.2825,-0.4675 1.1825,0 2.2825,0.4675 1.1,0.4675 1.815,1.4025 0.7425,0.935 1.045,2.09 0.3025,1.1275 0.3025,2.31 l 0,2.475 q 0,1.1825 -0.3025,2.3375 -0.3025,1.1275 -1.045,2.0625 -0.715,0.934998 -1.815,1.402498 -1.1,0.4675 -2.2825,0.4675 z m 0,-1.979998 q 0.77,0 1.43,-0.3575 0.6875,-0.385 1.1,-1.0175 0.4125,-0.66 0.55,-1.4025 0.165,-0.7425 0.165,-1.5125 l 0,-2.475 q 0,-0.77 -0.165,-1.5125 -0.1375,-0.7425 -0.55,-1.375 -0.4125,-0.66 -1.1,-1.0175 -0.66,-0.385 -1.43,-0.385 -0.77,0 -1.4575,0.385 -0.66,0.3575 -1.0725,1.0175 -0.4125,0.6325 -0.5775,1.375 -0.1375,0.7425 -0.1375,1.5125 l 0,2.475 q 0,0.77 0.1375,1.5125 0.165,0.7425 0.5775,1.4025 0.4125,0.6325 1.0725,1.0175 0.6875,0.3575 1.4575,0.3575 z"
         id="path4164"
         inkscape:connector-curvature="0" />
      <path
         d="m 270.75714,100.93363 0,-14.574998 2.2,0 0,2.09 q 0.275,-0.495 0.6325,-0.935 0.5775,-0.66 1.375,-1.0175 0.825,-0.3575 1.705,-0.3575 0.8525,0 1.6775,0.3575 0.825,0.3575 1.375,1.045 0.5775,0.66 0.9075,1.485 0.33,0.7975 0.44,1.65 0.1375,0.8525 0.1375,1.7325 l 0,8.524998 -2.2,0 0,-8.524998 q 0,-0.7425 -0.1375,-1.4575 -0.1375,-0.7425 -0.495,-1.375 -0.3575,-0.66 -1.0175,-1.045 -0.6325,-0.4125 -1.375,-0.4125 -0.7425,0 -1.4025,0.4125 -0.6325,0.385 -0.99,1.045 -0.3575,0.6325 -0.495,1.375 -0.1375,0.715 -0.1375,1.4575 l 0,8.524998 -2.2,0 z"
         id="path4166"
         inkscape:connector-curvature="0" />
      <path
         d="m 291.82214,101.15363 q -1.0175,0 -1.98,-0.44 -0.935,-0.44 -1.54,-1.264998 -0.5775,-0.8525 -0.825,-1.8425 -0.22,-0.99 -0.22,-2.0075 l 0,-7.26 -2.9975,0 0,-1.98 2.9975,0 0,-5.6375 2.2,0 0,5.6375 4.4275,0 0,1.98 -4.4275,0 0,7.26 q 0,0.7975 0.165,1.595 0.1925,0.77 0.7975,1.375 0.605,0.605 1.4025,0.605 0.6875,0 1.2375,-0.4675 0.5775,-0.4675 0.7975,-1.1275 0.2475,-0.66 0.3025,-1.375 l 2.145,0.4675 q -0.0825,0.88 -0.4125,1.705 -0.33,0.825 -0.935,1.485 -0.605,0.659998 -1.4575,0.989998 -0.825,0.3025 -1.6775,0.3025 z"
         id="path4168"
         inkscape:connector-curvature="0" />
    </g>
    <g
       style="font-style:normal;font-weight:normal;font-size:27.5px;line-height:125%;font-family:'Iosevka Nerd Font';letter-spacing:0px;word-spacing:0px;fill:#ffffff;fill-opacity:1;stroke:none;stroke-width:1px;stroke-linecap:butt;stroke-linejoin:miter;stroke-opacity:1"
       id="text4140">
      <path
         d="m 69.024403,141.07362 q -0.5425,0 -1.0675,-0.175 -0.525,-0.175 -0.91,-0.5775 -0.385,-0.4025 -0.56,-0.9275 -0.1575,-0.525 -0.1575,-1.0675 0,-0.5425 0.1925,-1.05 0.1925,-0.525 0.595,-0.8925 0.4025,-0.385 0.8925,-0.595 0.5075,-0.2275 1.0325,-0.315 0.5425,-0.0875 1.085,-0.0875 l 1.5925,0 0,-0.805 q 0,-0.385 -0.14,-0.735 -0.14,-0.3675 -0.4375,-0.6125 -0.28,-0.245 -0.6475,-0.35 -0.3675,-0.105 -0.7525,-0.105 -0.4375,0 -0.875,0.1575 -0.4375,0.14 -0.735,0.5075 -0.2975,0.3675 -0.35,0.805 l -1.3475,-0.315 q 0.105,-0.735 0.6125,-1.33 0.5075,-0.6125 1.225,-0.84 0.735,-0.245 1.47,-0.245 0.6475,0 1.2775,0.175 0.63,0.175 1.12,0.595 0.5075,0.42 0.735,1.0325 0.245,0.6125 0.245,1.26 l 0,6.3525 -1.4,0 0,-1.3125 q -0.1225,0.21 -0.28,0.4025 -0.4375,0.525 -1.085,0.7875 -0.6475,0.2625 -1.33,0.2625 z m -0.42,-1.4 q 0.42,0.14 0.8575,0.14 0.455,0 0.8925,-0.1575 0.4375,-0.1575 0.7525,-0.49 0.3325,-0.35 0.4725,-0.7875 0.14,-0.455 0.14,-0.91 l 0,-0.8225 -1.5925,0 q -0.4025,0 -0.8225,0.07 -0.4025,0.07 -0.77,0.28 -0.3675,0.1925 -0.595,0.56 -0.21,0.35 -0.21,0.77 0,0.42 0.2275,0.805 0.245,0.385 0.6475,0.5425 z"
         style="font-size:17.5px"
         id="path4171"
         inkscape:connector-curvature="0" />
      <path
         d="m 78.981903,141.07362 q -0.5425,0 -1.0675,-0.21 -0.525,-0.2275 -0.8925,-0.665 -0.2275,-0.28 -0.4025,-0.595 l 0,1.33 -1.4,0 0,-12.8625 1.4,0 0,4.9175 q 0.175,-0.315 0.4025,-0.595 0.3675,-0.4375 0.8925,-0.6475 0.525,-0.2275 1.0675,-0.2275 0.7175,0 1.3475,0.35 0.63,0.3325 0.9975,0.945 0.385,0.6125 0.525,1.3125 0.1575,0.6825 0.1575,1.3825 l 0,1.575 q 0,0.7 -0.1575,1.4 -0.14,0.6825 -0.525,1.295 -0.3675,0.6125 -0.9975,0.9625 -0.63,0.3325 -1.3475,0.3325 z m -0.42,-1.26 q 0.4725,0 0.91,-0.2275 0.4375,-0.245 0.6825,-0.665 0.2625,-0.42 0.35,-0.8925 0.105,-0.4725 0.105,-0.945 l 0,-1.575 q 0,-0.4725 -0.105,-0.945 -0.0875,-0.4725 -0.35,-0.8925 -0.245,-0.42 -0.6825,-0.6475 -0.4375,-0.245 -0.91,-0.245 -0.4725,0 -0.8925,0.245 -0.42,0.245 -0.6475,0.665 -0.2275,0.42 -0.315,0.8925 -0.0875,0.455 -0.0875,0.9275 l 0,1.575 q 0,0.4725 0.0875,0.945 0.0875,0.455 0.315,0.875 0.2275,0.42 0.6475,0.665 0.42,0.245 0.8925,0.245 z m -2.4675,-4.3225 0,-0.07 0,0.07 z"
         style="font-size:17.5px"
         id="path4173"
         inkscape:connector-curvature="0" />
      <path
         d="m 87.311903,141.07362 q -0.735,0 -1.4525,-0.28 -0.7,-0.2975 -1.1725,-0.8925 -0.4725,-0.6125 -0.665,-1.33 -0.1925,-0.735 -0.1925,-1.4875 l 0,-1.575 q 0,-0.7525 0.1925,-1.47 0.1925,-0.735 0.665,-1.33 0.4725,-0.6125 1.1725,-0.8925 0.7175,-0.2975 1.4525,-0.2975 0.6125,0 1.19,0.1925 0.595,0.175 1.05,0.5775 0.4725,0.4025 0.7525,0.945 0.28,0.5425 0.4025,1.1375 l -1.33,0.385 q -0.0875,-0.5075 -0.35,-0.98 -0.245,-0.4725 -0.7175,-0.735 -0.4725,-0.2625 -0.9975,-0.2625 -0.4725,0 -0.91,0.2275 -0.4375,0.2275 -0.7,0.6475 -0.2625,0.42 -0.3675,0.8925 -0.105,0.4725 -0.105,0.9625 l 0,1.575 q 0,0.49 0.105,0.9625 0.105,0.4725 0.3675,0.8925 0.2625,0.42 0.7,0.6475 0.4375,0.2275 0.91,0.2275 0.525,0 0.9975,-0.2625 0.4725,-0.2625 0.7175,-0.735 0.2625,-0.4725 0.35,-0.98 l 1.33,0.385 q -0.1225,0.595 -0.4025,1.1375 -0.28,0.5425 -0.7525,0.945 -0.455,0.4025 -1.05,0.595 -0.5775,0.175 -1.19,0.175 z"
         style="font-size:17.5px"
         id="path4175"
         inkscape:connector-curvature="0" />
      <path
         d="m 95.606903,141.07362 q -0.7175,0 -1.3475,-0.3325 -0.63,-0.35 -1.015,-0.9625 -0.3675,-0.6125 -0.525,-1.295 -0.14,-0.7 -0.14,-1.4 l 0,-1.575 q 0,-0.7 0.14,-1.3825 0.1575,-0.7 0.525,-1.3125 0.385,-0.6125 1.015,-0.945 0.63,-0.35 1.3475,-0.35 0.5425,0 1.0675,0.2275 0.525,0.21 0.8925,0.6475 0.2275,0.28 0.4025,0.595 l 0,-4.9175 1.4,0 0,12.8625 -1.4,0 0,-1.33 q -0.175,0.315 -0.4025,0.595 -0.3675,0.4375 -0.8925,0.665 -0.525,0.21 -1.0675,0.21 z m 0.42,-1.26 q 0.4725,0 0.8925,-0.245 0.42,-0.245 0.6475,-0.665 0.2275,-0.42 0.315,-0.875 0.0875,-0.4725 0.0875,-0.945 l 0,-1.575 q 0,-0.4725 -0.0875,-0.9275 -0.0875,-0.4725 -0.315,-0.8925 -0.2275,-0.42 -0.6475,-0.665 -0.42,-0.245 -0.8925,-0.245 -0.4725,0 -0.91,0.245 -0.4375,0.2275 -0.7,0.6475 -0.245,0.42 -0.35,0.8925 -0.0875,0.4725 -0.0875,0.945 l 0,1.575 q 0,0.4725 0.0875,0.945 0.105,0.4725 0.35,0.8925 0.2625,0.42 0.7,0.665 0.4375,0.2275 0.91,0.2275 z m 2.4675,-2.6425 0,-0.07 0,0.07 z"
         style="font-size:17.5px"
         id="path4177"
         inkscape:connector-curvature="0" />
      <path
         d="m 104.9169,141.07362 q -0.77,0 -1.4875,-0.28 -0.7175,-0.28 -1.2075,-0.875 -0.49,-0.595 -0.7,-1.33 -0.1925,-0.7525 -0.1925,-1.505 l 0,-1.575 q 0,-0.7525 0.1925,-1.47 0.1925,-0.735 0.6475,-1.33 0.4725,-0.595 1.1725,-0.8925 0.7,-0.2975 1.4525,-0.2975 0.7525,0 1.4525,0.2975 0.7,0.2975 1.155,0.8925 0.4725,0.595 0.665,1.33 0.1925,0.7175 0.1925,1.47 l 0,1.4175 -5.53,0 0,0.1575 q 0,0.49 0.105,0.98 0.1225,0.49 0.4025,0.91 0.28,0.4025 0.735,0.63 0.455,0.21 0.945,0.21 0.4725,0 0.91,-0.1925 0.455,-0.21 0.735,-0.6125 0.2975,-0.4025 0.4375,-0.8575 l 1.2775,0.5075 q -0.2275,0.7175 -0.7175,1.295 -0.49,0.5775 -1.2075,0.8575 -0.7,0.2625 -1.435,0.2625 z m -2.1875,-5.4075 4.13,0 0,-0.1575 q 0,-0.49 -0.105,-0.9625 -0.0875,-0.4725 -0.35,-0.875 -0.2625,-0.42 -0.7,-0.6475 -0.42,-0.245 -0.91,-0.245 -0.49,0 -0.9275,0.245 -0.42,0.2275 -0.6825,0.6475 -0.2625,0.4025 -0.3675,0.875 -0.0875,0.4725 -0.0875,0.9625 l 0,0.1575 z"
         style="font-size:17.5px"
         id="path4179"
         inkscape:connector-curvature="0" />
      <path
         d="m 112.1969,140.93362 0,-7.49 -1.9775,0 0,-1.26 1.9775,0 0,-1.6625 q 0,-0.5425 0.14,-1.0675 0.14,-0.525 0.49,-0.945 0.35,-0.4375 0.8575,-0.6475 0.5075,-0.21 1.05,-0.21 0.6125,0 1.1725,0.2625 0.56,0.2625 0.8925,0.7875 0.3325,0.525 0.42,1.12 l -1.3475,0.3325 q -0.035,-0.2975 -0.175,-0.5775 -0.1225,-0.2975 -0.385,-0.4725 -0.2625,-0.1925 -0.5775,-0.1925 -0.3675,0 -0.665,0.2625 -0.28,0.2625 -0.385,0.63 -0.0875,0.35 -0.0875,0.7175 l 0,1.6625 2.94,0 0,1.26 -2.94,0 0,7.49 -1.4,0 z"
         style="font-size:17.5px"
         id="path4181"
         inkscape:connector-curvature="0" />
      <path
         d="m 122.2944,144.66112 q -0.6475,0 -1.295,-0.1575 -0.6475,-0.14 -1.2075,-0.525 -0.5425,-0.385 -0.84,-0.9975 -0.28,-0.595 -0.28,-1.26 0,-0.5775 0.2275,-1.1025 0.245,-0.5425 0.7175,-0.875 l 0.07,-0.0525 q -0.1575,-0.1575 -0.2625,-0.3325 -0.245,-0.42 -0.245,-0.8925 0,-0.595 0.3675,-1.085 0.1575,-0.2275 0.35,-0.385 l -0.1225,-0.1225 q -0.49,-0.42 -0.7175,-1.0325 -0.2275,-0.6125 -0.2275,-1.2425 0,-0.6475 0.2275,-1.2425 0.2275,-0.6125 0.7175,-1.0325 0.49,-0.4375 1.1025,-0.6125 0.63,-0.1925 1.26,-0.1925 0.56,0 1.1025,0.14 l 0.0175,0 2.765,0 0,1.26 -1.0325,-0.035 q 0.14,0.21 0.2275,0.455 0.2275,0.6125 0.2275,1.26 0,0.63 -0.2275,1.2425 -0.2275,0.6125 -0.7175,1.05 -0.49,0.42 -1.12,0.595 -0.6125,0.175 -1.2425,0.175 -0.6125,0 -1.225,-0.1575 -0.1575,0.0875 -0.2975,0.2275 -0.1925,0.2275 -0.1925,0.5075 0,0.315 0.245,0.5425 0.245,0.2275 0.56,0.28 0.2625,0.035 0.5425,0.035 l 0.0875,0 0.875,0 q 0.5775,0 1.155,0.14 0.5775,0.14 1.0675,0.49 0.49,0.3325 0.735,0.8925 0.2625,0.5425 0.2625,1.12 0,0.665 -0.315,1.26 -0.2975,0.6125 -0.8575,0.98 -0.5425,0.385 -1.19,0.525 -0.63,0.1575 -1.295,0.1575 z m 0,-1.26 q 0.525,0 1.0325,-0.1575 0.5075,-0.14 0.8575,-0.56 0.3675,-0.42 0.3675,-0.9275 0,-0.3325 -0.1575,-0.63 -0.1575,-0.2975 -0.4375,-0.455 -0.28,-0.175 -0.595,-0.245 -0.315,-0.07 -0.63,-0.07 l -0.875,0 -0.0175,0 -0.07,0 -0.0525,0 q -0.3675,0.0175 -0.735,0.14 -0.4025,0.1225 -0.665,0.4725 -0.245,0.35 -0.245,0.7525 0,0.525 0.3325,0.945 0.35,0.4375 0.8575,0.5775 0.5075,0.1575 1.0325,0.1575 z m -0.4725,-3.045 -0.035,0 -0.0175,0 0.0525,0 z m 0.315,-3.955 q 0.49,0 0.9625,-0.1925 0.4725,-0.21 0.7,-0.665 0.245,-0.455 0.245,-0.945 0,-0.5075 -0.245,-0.9625 -0.2275,-0.455 -0.7,-0.6475 -0.385,-0.175 -0.7875,-0.21 l -0.175,0 q -0.49,0 -0.9625,0.21 -0.4725,0.1925 -0.7175,0.6475 -0.2275,0.455 -0.2275,0.9625 0,0.49 0.2275,0.945 0.245,0.455 0.7175,0.665 0.4725,0.1925 0.9625,0.1925 z"
         style="font-size:17.5px"
         id="path4183"
         inkscape:connector-curvature="0" />
      <path
         d="m 127.7194,140.93362 0,-12.8625 1.4,0 0,4.9175 q 0.175,-0.315 0.4025,-0.595 0.3675,-0.42 0.875,-0.6475 0.525,-0.2275 1.085,-0.2275 0.5425,0 1.0675,0.2275 0.525,0.2275 0.875,0.665 0.3675,0.42 0.5775,0.945 0.21,0.5075 0.28,1.05 0.0875,0.5425 0.0875,1.1025 l 0,5.425 -1.4,0 0,-5.425 q 0,-0.4725 -0.0875,-0.9275 -0.0875,-0.4725 -0.315,-0.875 -0.2275,-0.42 -0.6475,-0.665 -0.4025,-0.2625 -0.875,-0.2625 -0.4725,0 -0.8925,0.2625 -0.4025,0.245 -0.63,0.665 -0.2275,0.4025 -0.315,0.875 -0.0875,0.455 -0.0875,0.9275 l 0,5.425 -1.4,0 z"
         style="font-size:17.5px"
         id="path4185"
         inkscape:connector-curvature="0" />
      <path
         d="m 136.7319,140.93362 0,-1.26 2.485,0 0,-6.755 -2.24,0 0,-1.26 3.64,0 0,8.015 2.24,0 0,1.26 -6.125,0 z m 8.5225,-10.9025 q -0.2975,0 -0.5775,-0.1225 -0.2625,-0.1225 -0.4025,-0.385 -0.1225,-0.28 -0.105,-0.5775 -0.0175,-0.2975 0.105,-0.56 0.14,-0.28 0.4025,-0.4025 0.28,-0.14 0.5775,-0.14 0.2975,0 0.56,0.14 0.28,0.1225 0.4025,0.4025 0.1225,0.2625 0.14,0.56 -0.0175,0.2975 -0.14,0.5775 -0.1225,0.2625 -0.4025,0.385 -0.2625,0.1225 -0.56,0.1225 z"
         style="font-size:17.5px"
         id="path4187"
         inkscape:connector-curvature="0" />
      <path
         d="m 147.3194,144.66112 q -0.7,0 -1.3475,-0.315 -0.6475,-0.2975 -1.05,-0.91 -0.385,-0.595 -0.525,-1.2775 l 1.33,-0.42 q 0.0525,0.42 0.245,0.805 0.1925,0.385 0.56,0.6125 0.3675,0.245 0.7875,0.245 0.4025,0 0.7525,-0.21 0.35,-0.21 0.5425,-0.56 0.1925,-0.35 0.2625,-0.735 0.07,-0.385 0.07,-0.7875 l 0,-8.19 -2.3625,0 0,-1.26 3.7625,0 0,9.45 q 0,0.665 -0.175,1.295 -0.1575,0.6475 -0.56,1.19 -0.4025,0.5425 -1.015,0.805 -0.6125,0.2625 -1.2775,0.2625 z m 7.5425,-14.63 q -0.2975,0 -0.5775,-0.1225 -0.2625,-0.1225 -0.4025,-0.385 -0.1225,-0.28 -0.105,-0.5775 -0.0175,-0.2975 0.105,-0.56 0.14,-0.28 0.4025,-0.4025 0.28,-0.14 0.5775,-0.14 0.2975,0 0.56,0.14 0.28,0.1225 0.4025,0.4025 0.1225,0.2625 0.14,0.56 -0.0175,0.2975 -0.14,0.5775 -0.1225,0.2625 -0.4025,0.385 -0.2625,0.1225 -0.56,0.1225 z"
         style="font-size:17.5px"
         id="path4189"
         inkscape:connector-curvature="0" />
      <path
         d="m 153.9694,140.93362 0,-12.8625 1.4,0 0,7.665 0.245,-0.1925 q 0.2975,-0.2275 0.595,-0.4725 0.2975,-0.245 0.5775,-0.49 0.2975,-0.2625 0.5775,-0.5075 0.28,-0.2625 0.5425,-0.525 0.28,-0.28 0.5075,-0.56 0.245,-0.2975 0.49,-0.6125 0.245,-0.3325 0.245,-0.7175 l 1.47,0 q 0,0.455 -0.2625,0.84 -0.2625,0.385 -0.5425,0.735 -0.28,0.35 -0.5775,0.6825 -0.2975,0.315 -0.6125,0.63 -0.315,0.2975 -0.6125,0.595 2.7475,4.3225 2.7475,5.7925 l -1.4,0 q 0,-1.26 -2.3625,-4.9 -0.1925,0.1575 -0.3675,0.315 -0.35,0.28 -0.7,0.56 -0.28,0.2275 -0.56,0.4375 l 0,3.5875 -1.4,0 z"
         style="font-size:17.5px"
         id="path4191"
         inkscape:connector-curvature="0" />
      <path
         d="m 162.9819,140.93362 0,-1.26 2.485,0 0,-10.3425 -2.24,0 0,-1.26 3.64,0 0,11.6025 2.24,0 0,1.26 -6.125,0 z"
         style="font-size:17.5px"
         id="path4193"
         inkscape:connector-curvature="0" />
      <path
         d="m 171.3294,140.93362 0,-9.275 1.4,0 0,0.56 q 0.0525,-0.0875 0.1225,-0.175 0.4025,-0.525 0.9975,-0.525 0.6125,0 1.015,0.525 0.245,0.315 0.385,0.665 0.1225,-0.35 0.3675,-0.665 0.4025,-0.525 0.9975,-0.525 0.6125,0 1.015,0.525 0.4025,0.5075 0.5075,1.1025 0.1225,0.595 0.1225,1.2075 l 0,6.58 -1.4,0 0,-6.58 q 0,-0.315 -0.0525,-0.6125 -0.035,-0.315 -0.175,-0.63 -0.14,-0.3325 -0.455,-0.3325 -0.315,0 -0.455,0.3325 -0.14,0.315 -0.1925,0.6125 -0.035,0.2975 -0.035,0.63 l 0,6.58 -1.4,0 0,-6.58 q 0,-0.315 -0.0525,-0.6125 -0.035,-0.315 -0.175,-0.63 -0.14,-0.3325 -0.455,-0.3325 -0.315,0 -0.455,0.3325 -0.14,0.315 -0.1925,0.63 -0.035,0.2975 -0.035,0.6125 l 0,6.58 -1.4,0 z"
         style="font-size:17.5px"
         id="path4195"
         inkscape:connector-curvature="0" />
      <path
         d="m 180.2194,140.93362 0,-9.275 1.4,0 0,1.33 q 0.175,-0.315 0.4025,-0.595 0.3675,-0.42 0.875,-0.6475 0.525,-0.2275 1.085,-0.2275 0.5425,0 1.0675,0.2275 0.525,0.2275 0.875,0.665 0.3675,0.42 0.5775,0.945 0.21,0.5075 0.28,1.05 0.0875,0.5425 0.0875,1.1025 l 0,5.425 -1.4,0 0,-5.425 q 0,-0.4725 -0.0875,-0.9275 -0.0875,-0.4725 -0.315,-0.875 -0.2275,-0.42 -0.6475,-0.665 -0.4025,-0.2625 -0.875,-0.2625 -0.4725,0 -0.8925,0.2625 -0.4025,0.245 -0.63,0.665 -0.2275,0.4025 -0.315,0.875 -0.0875,0.455 -0.0875,0.9275 l 0,5.425 -1.4,0 z"
         style="font-size:17.5px"
         id="path4197"
         inkscape:connector-curvature="0" />
      <path
         d="m 192.2944,141.07362 q -0.7525,0 -1.4525,-0.2975 -0.7,-0.2975 -1.1725,-0.8925 -0.455,-0.595 -0.6475,-1.3125 -0.1925,-0.735 -0.1925,-1.4875 l 0,-1.575 q 0,-0.7525 0.1925,-1.47 0.1925,-0.735 0.6475,-1.33 0.4725,-0.595 1.1725,-0.8925 0.7,-0.2975 1.4525,-0.2975 0.7525,0 1.4525,0.2975 0.7,0.2975 1.155,0.8925 0.4725,0.595 0.665,1.33 0.1925,0.7175 0.1925,1.47 l 0,1.575 q 0,0.7525 -0.1925,1.4875 -0.1925,0.7175 -0.665,1.3125 -0.455,0.595 -1.155,0.8925 -0.7,0.2975 -1.4525,0.2975 z m 0,-1.26 q 0.49,0 0.91,-0.2275 0.4375,-0.245 0.7,-0.6475 0.2625,-0.42 0.35,-0.8925 0.105,-0.4725 0.105,-0.9625 l 0,-1.575 q 0,-0.49 -0.105,-0.9625 -0.0875,-0.4725 -0.35,-0.875 -0.2625,-0.42 -0.7,-0.6475 -0.42,-0.245 -0.91,-0.245 -0.49,0 -0.9275,0.245 -0.42,0.2275 -0.6825,0.6475 -0.2625,0.4025 -0.3675,0.875 -0.0875,0.4725 -0.0875,0.9625 l 0,1.575 q 0,0.49 0.0875,0.9625 0.105,0.4725 0.3675,0.8925 0.2625,0.4025 0.6825,0.6475 0.4375,0.2275 0.9275,0.2275 z"
         style="font-size:17.5px"
         id="path4199"
         inkscape:connector-curvature="0" />
      <path
         d="m 197.7194,144.52112 0,-12.8625 1.4,0 0,1.33 q 0.175,-0.315 0.4025,-0.595 0.3675,-0.4375 0.8925,-0.6475 0.525,-0.2275 1.0675,-0.2275 0.7175,0 1.3475,0.35 0.63,0.3325 0.9975,0.945 0.385,0.6125 0.525,1.3125 0.1575,0.6825 0.1575,1.3825 l 0,1.575 q 0,0.7 -0.1575,1.4 -0.14,0.6825 -0.525,1.295 -0.3675,0.6125 -0.9975,0.9625 -0.63,0.3325 -1.3475,0.3325 -0.5425,0 -1.0675,-0.21 -0.525,-0.2275 -0.8925,-0.665 -0.2275,-0.28 -0.4025,-0.595 l 0,4.9175 -1.4,0 z m 3.3425,-4.7075 q 0.4725,0 0.91,-0.2275 0.4375,-0.245 0.6825,-0.665 0.2625,-0.42 0.35,-0.8925 0.105,-0.4725 0.105,-0.945 l 0,-1.575 q 0,-0.4725 -0.105,-0.945 -0.0875,-0.4725 -0.35,-0.8925 -0.245,-0.42 -0.6825,-0.6475 -0.4375,-0.245 -0.91,-0.245 -0.4725,0 -0.8925,0.245 -0.42,0.245 -0.6475,0.665 -0.2275,0.42 -0.315,0.8925 -0.0875,0.455 -0.0875,0.9275 l 0,1.575 q 0,0.4725 0.0875,0.945 0.0875,0.455 0.315,0.875 0.2275,0.42 0.6475,0.665 0.42,0.245 0.8925,0.245 z m -2.4675,-4.3225 0,-0.07 0,0.07 z"
         style="font-size:17.5px"
         id="path4201"
         inkscape:connector-curvature="0" />
      <path
         d="m 211.7194,144.52112 0,-4.9175 q -0.175,0.315 -0.4025,0.595 -0.3675,0.4375 -0.8925,0.665 -0.525,0.21 -1.0675,0.21 -0.7175,0 -1.3475,-0.3325 -0.63,-0.35 -1.015,-0.9625 -0.3675,-0.6125 -0.525,-1.295 -0.14,-0.7 -0.14,-1.4 l 0,-1.575 q 0,-0.7 0.14,-1.3825 0.1575,-0.7 0.525,-1.3125 0.385,-0.6125 1.015,-0.945 0.63,-0.35 1.3475,-0.35 0.5425,0 1.0675,0.2275 0.525,0.21 0.8925,0.6475 0.2275,0.28 0.4025,0.595 l 0,-1.33 1.4,0 0,12.8625 -1.4,0 z m -1.9425,-4.7075 q 0.4725,0 0.8925,-0.245 0.42,-0.245 0.6475,-0.665 0.2275,-0.42 0.315,-0.875 0.0875,-0.4725 0.0875,-0.945 l 0,-1.575 q 0,-0.4725 -0.0875,-0.9275 -0.0875,-0.4725 -0.315,-0.8925 -0.2275,-0.42 -0.6475,-0.665 -0.42,-0.245 -0.8925,-0.245 -0.4725,0 -0.91,0.245 -0.4375,0.2275 -0.7,0.6475 -0.245,0.42 -0.35,0.8925 -0.0875,0.4725 -0.0875,0.945 l 0,1.575 q 0,0.4725 0.0875,0.945 0.105,0.4725 0.35,0.8925 0.2625,0.42 0.7,0.665 0.4375,0.2275 0.91,0.2275 z m 2.4675,-2.6425 0,-0.07 0,0.07 z"
         style="font-size:17.5px"
         id="path4203"
         inkscape:connector-curvature="0" />
      <path
         d="m 216.2694,140.93362 0,-9.275 1.4,0 0,1.75 q 0.14,-0.385 0.35,-0.7525 0.2975,-0.49 0.805,-0.805 0.5075,-0.3325 1.085,-0.3325 0.5075,0 0.9625,0.2275 0.4725,0.21 0.7875,0.6125 0.3325,0.385 0.4725,0.875 l -1.3125,0.595 q -0.105,-0.42 -0.4375,-0.735 -0.3325,-0.315 -0.77,-0.315 -0.525,0 -0.9625,0.35 -0.42,0.35 -0.63,0.84 -0.1925,0.49 -0.28,1.015 -0.07,0.5075 -0.07,1.0325 l 0,4.9175 -1.4,0 z"
         style="font-size:17.5px"
         id="path4205"
         inkscape:connector-curvature="0" />
      <path
         d="m 227.2594,141.07362 q -0.7,0 -1.4,-0.1925 -0.6825,-0.1925 -1.2075,-0.7 -0.525,-0.5075 -0.735,-1.1725 l 1.3125,-0.42 q 0.14,0.4025 0.455,0.7 0.315,0.2975 0.7175,0.42 0.42,0.105 0.8575,0.105 0.4375,0 0.875,-0.105 0.4375,-0.105 0.77,-0.4375 0.3325,-0.35 0.3325,-0.7875 0,-0.6475 -0.5775,-1.0325 -0.56,-0.4025 -1.2075,-0.4375 -0.63,-0.0525 -1.26,-0.175 -0.63,-0.14 -1.155,-0.525 -0.525,-0.385 -0.805,-0.9625 -0.28,-0.595 -0.28,-1.2425 0,-0.595 0.28,-1.1375 0.2975,-0.5425 0.805,-0.875 0.525,-0.3325 1.1025,-0.455 0.595,-0.1225 1.19,-0.1225 0.7,0 1.3825,0.1925 0.7,0.1925 1.225,0.7 0.525,0.5075 0.735,1.1725 l -1.3125,0.42 q -0.14,-0.4025 -0.455,-0.7 -0.315,-0.2975 -0.735,-0.4025 -0.4025,-0.1225 -0.84,-0.1225 -0.4375,0 -0.875,0.105 -0.4375,0.105 -0.77,0.455 -0.3325,0.3325 -0.3325,0.77 0,0.6475 0.56,1.05 0.5775,0.385 1.2075,0.4375 0.6475,0.035 1.2775,0.175 0.63,0.1225 1.155,0.5075 0.525,0.385 0.805,0.98 0.28,0.5775 0.28,1.225 0,0.595 -0.2975,1.1375 -0.28,0.5425 -0.805,0.875 -0.5075,0.3325 -1.1025,0.455 -0.5775,0.1225 -1.1725,0.1225 z"
         style="font-size:17.5px"
         id="path4207"
         inkscape:connector-curvature="0" />
      <path
         d="m 237.3744,141.07362 q -0.6475,0 -1.26,-0.28 -0.595,-0.28 -0.98,-0.805 -0.3675,-0.5425 -0.525,-1.1725 -0.14,-0.63 -0.14,-1.2775 l 0,-4.62 -1.9075,0 0,-1.26 1.9075,0 0,-3.5875 1.4,0 0,3.5875 2.8175,0 0,1.26 -2.8175,0 0,4.62 q 0,0.5075 0.105,1.015 0.1225,0.49 0.5075,0.875 0.385,0.385 0.8925,0.385 0.4375,0 0.7875,-0.2975 0.3675,-0.2975 0.5075,-0.7175 0.1575,-0.42 0.1925,-0.875 l 1.365,0.2975 q -0.0525,0.56 -0.2625,1.085 -0.21,0.525 -0.595,0.945 -0.385,0.42 -0.9275,0.63 -0.525,0.1925 -1.0675,0.1925 z"
         style="font-size:17.5px"
         id="path4209"
         inkscape:connector-curvature="0" />
      <path
         d="m 244.3569,141.07362 q -0.5425,0 -1.0675,-0.2275 -0.525,-0.2275 -0.8925,-0.6475 -0.35,-0.4375 -0.56,-0.945 -0.21,-0.525 -0.2975,-1.0675 -0.07,-0.5425 -0.07,-1.1025 l 0,-5.425 1.4,0 0,5.425 q 0,0.4725 0.0875,0.945 0.0875,0.455 0.315,0.875 0.2275,0.4025 0.63,0.665 0.42,0.245 0.8925,0.245 0.4725,0 0.875,-0.245 0.42,-0.2625 0.6475,-0.665 0.2275,-0.42 0.315,-0.875 0.0875,-0.4725 0.0875,-0.945 l 0,-5.425 1.4,0 0,9.275 -1.4,0 0,-1.33 q -0.175,0.315 -0.4025,0.595 -0.3675,0.42 -0.8925,0.6475 -0.5075,0.2275 -1.0675,0.2275 z"
         style="font-size:17.5px"
         id="path4211"
         inkscape:connector-curvature="0" />
      <path
         d="m 252.7394,140.93362 q -2.52,-5.8275 -2.52,-8.3475 l 0,-0.9275 1.4,0 0,0.9275 q 0,2.2575 1.925,7.35 l 0.035,-0.0875 q 1.89,-5.0225 1.89,-7.2625 l 0,-0.9275 1.4,0 0,0.9275 q 0,2.52 -2.52,8.3475 l -1.61,0 z"
         style="font-size:17.5px"
         id="path4213"
         inkscape:connector-curvature="0" />
      <path
         d="m 260.2819,140.93362 q -1.3125,-4.8475 -1.3125,-6.965 l 0,-2.31 1.4,0 0,2.31 q 0,1.82 0.455,5.67 l 0.98,-4.27 0.98,0 0.98,4.27 q 0.455,-3.85 0.455,-5.67 l 0,-2.31 1.4,0 0,2.31 q 0,2.1175 -1.3125,6.965 l -0.9625,0 -1.05,-4.585 -1.05,4.585 -0.9625,0 z"
         style="font-size:17.5px"
         id="path4215"
         inkscape:connector-curvature="0" />
      <path
         d="m 267.7194,140.93362 0,-0.0875 q 0,-0.3675 0.14,-0.6825 0.1575,-0.3325 0.315,-0.6475 0.1575,-0.315 0.3325,-0.6125 0.1925,-0.315 0.385,-0.6125 l 1.3475,-1.995 -1.3475,-1.995 q -0.1925,-0.2975 -0.385,-0.595 -0.175,-0.315 -0.3325,-0.63 -0.1575,-0.315 -0.315,-0.63 -0.14,-0.3325 -0.14,-0.7 l 0,-0.0875 1.4,0 0,0.0875 q 0,0.2625 0.105,0.5075 0.1225,0.245 0.245,0.4725 0.14,0.2275 0.28,0.455 0.1575,0.21 0.2975,0.42 l 0.9975,1.4875 0.9975,-1.4875 q 0.14,-0.21 0.28,-0.42 0.1575,-0.2275 0.28,-0.455 0.14,-0.2275 0.245,-0.4725 0.1225,-0.245 0.1225,-0.5075 l 0,-0.0875 1.4,0 0,0.0875 q 0,0.3675 -0.1575,0.7 -0.14,0.315 -0.2975,0.63 -0.1575,0.315 -0.35,0.63 -0.175,0.2975 -0.3675,0.595 l -1.3475,1.995 1.3475,1.995 q 0.1925,0.2975 0.3675,0.6125 0.1925,0.2975 0.35,0.6125 0.1575,0.315 0.2975,0.6475 0.1575,0.315 0.1575,0.6825 l 0,0.0875 -1.4,0 0,-0.0875 q 0,-0.2625 -0.1225,-0.5075 -0.105,-0.245 -0.245,-0.4725 -0.1225,-0.2275 -0.28,-0.4375 -0.14,-0.2275 -0.28,-0.4375 l -0.9975,-1.4875 -0.9975,1.4875 q -0.14,0.21 -0.2975,0.4375 -0.14,0.21 -0.28,0.4375 -0.1225,0.2275 -0.245,0.4725 -0.105,0.245 -0.105,0.5075 l 0,0.0875 -1.4,0 z"
         style="font-size:17.5px"
         id="path4217"
         inkscape:connector-curvature="0" />
      <path
         d="m 278.2194,144.52112 0,-0.1225 q 0,-1.05 0.21,-1.6625 l 0.6475,-1.89 -2.0125,-5.67 q -0.595,-1.6975 -0.595,-2.87 l 0,-0.6475 1.4,0 0,0.6475 q 0,0.91 0.525,2.45 l 1.3825,4.095 1.4175,-4.095 q 0.525,-1.505 0.525,-2.45 l 0,-0.6475 1.4,0 0,0.6475 q 0,1.1375 -0.595,2.87 l -2.765,7.98 q -0.14,0.385 -0.14,1.2425 l 0,0.1225 -1.4,0 z"
         style="font-size:17.5px"
         id="path4219"
         inkscape:connector-curvature="0" />
      <path
         d="m 285.2194,140.93362 0,-1.26 4.97,-6.755 -4.97,0 0,-1.26 6.65,0 0,1.26 -4.97,6.755 4.97,0 0,1.26 -6.65,0 z"
         style="font-size:17.5px"
         id="path4221"
         inkscape:connector-curvature="0" />
      <path
         d="m 66.469403,162.80862 0,-1.295 q 0,-3.4825 2.52,-11.5675 l 1.61,0 q 2.52,8.085 2.52,11.5675 l 0,1.295 -1.4,0 0,-1.295 q 0,-0.875 -0.1575,-2.0825 l -3.535,0 q -0.1575,1.2075 -0.1575,2.0825 l 0,1.295 -1.4,0 z m 1.7325,-4.6375 3.185,0 q -0.4725,-2.8175 -1.5925,-6.965 -1.12,4.1475 -1.5925,6.965 z"
         style="font-size:17.5px"
         id="path4223"
         inkscape:connector-curvature="0" />
      <path
         d="m 75.219403,162.80862 0,-12.8625 3.0625,0 q 0.665,0 1.295,0.2275 0.63,0.2275 1.0675,0.735 0.455,0.49 0.6475,1.12 0.1925,0.63 0.1925,1.295 0,0.63 -0.21,1.2425 -0.1925,0.6125 -0.665,1.05 -0.2975,0.28 -0.665,0.455 0.5425,0.21 0.9975,0.5775 0.5425,0.455 0.805,1.1375 0.2625,0.6825 0.2625,1.3825 0,0.735 -0.245,1.4525 -0.245,0.7 -0.7875,1.225 -0.5425,0.5075 -1.26,0.735 -0.7,0.2275 -1.435,0.2275 l -3.0625,0 z m 1.4,-1.26 1.6625,0 q 0.4725,0 0.9275,-0.1575 0.455,-0.1575 0.7875,-0.5075 0.3325,-0.35 0.4725,-0.805 0.14,-0.455 0.14,-0.9275 0,-0.4725 -0.14,-0.9275 -0.14,-0.455 -0.4725,-0.805 -0.3325,-0.35 -0.7875,-0.5075 -0.455,-0.1575 -0.9275,-0.1575 l -1.6625,0 0,4.795 z m 0,-6.055 1.6625,0 q 0.4025,0 0.77,-0.1575 0.3675,-0.175 0.595,-0.49 0.245,-0.3325 0.3325,-0.7175 0.105,-0.385 0.105,-0.77 0,-0.4025 -0.105,-0.7875 -0.0875,-0.4025 -0.3325,-0.7175 -0.2275,-0.315 -0.595,-0.4725 -0.3675,-0.175 -0.77,-0.175 l -1.6625,0 0,4.2875 z"
         style="font-size:17.5px"
         id="path4225"
         inkscape:connector-curvature="0" />
      <path
         d="m 87.294403,162.94862 q -0.7,0 -1.3825,-0.2275 -0.665,-0.2275 -1.1725,-0.735 -0.49,-0.525 -0.7,-1.2075 -0.21,-0.6825 -0.21,-1.3825 l 0,-6.0375 q 0,-0.7 0.21,-1.3825 0.21,-0.6825 0.7,-1.19 0.5075,-0.525 1.1725,-0.7525 0.6825,-0.2275 1.3825,-0.2275 0.8225,0 1.5925,0.3325 0.77,0.315 1.2425,1.015 0.4725,0.7 0.5775,1.505 l -1.365,0.245 q -0.07,-0.49 -0.35,-0.945 -0.2625,-0.455 -0.735,-0.665 -0.455,-0.2275 -0.9625,-0.2275 -0.4375,0 -0.8575,0.175 -0.4025,0.1575 -0.7,0.5075 -0.28,0.3325 -0.4025,0.7525 -0.105,0.42 -0.105,0.8575 l 0,6.0375 q 0,0.4375 0.105,0.8575 0.1225,0.42 0.4025,0.77 0.2975,0.3325 0.7,0.5075 0.42,0.1575 0.8575,0.1575 0.5075,0 0.9625,-0.21 0.4725,-0.2275 0.735,-0.6825 0.28,-0.455 0.35,-0.945 l 1.365,0.245 q -0.0875,0.6125 -0.3675,1.1725 -0.28,0.5425 -0.77,0.945 -0.4725,0.385 -1.0675,0.56 -0.595,0.175 -1.2075,0.175 z"
         style="font-size:17.5px"
         id="path4227"
         inkscape:connector-curvature="0" />
      <path
         d="m 92.719403,162.80862 0,-12.8625 2.8875,0 q 0.6825,0 1.33,0.2275 0.665,0.21 1.1725,0.6825 0.525,0.455 0.8225,1.0675 0.315,0.6125 0.4375,1.2775 0.14,0.665 0.14,1.3475 l 0,3.6575 q 0,0.6825 -0.14,1.3475 -0.1225,0.665 -0.4375,1.2775 -0.2975,0.6125 -0.8225,1.085 -0.5075,0.455 -1.1725,0.6825 -0.6475,0.21 -1.33,0.21 l -2.8875,0 z m 1.4,-1.26 1.4875,0 q 0.595,0 1.12,-0.28 0.525,-0.2975 0.8225,-0.805 0.315,-0.525 0.4375,-1.1025 0.1225,-0.5775 0.1225,-1.155 l 0,-3.6575 q 0,-0.5775 -0.1225,-1.155 -0.1225,-0.5775 -0.4375,-1.085 -0.2975,-0.525 -0.8225,-0.805 -0.525,-0.2975 -1.12,-0.2975 l -1.4875,0 0,10.3425 z"
         style="font-size:17.5px"
         id="path4229"
         inkscape:connector-curvature="0" />
      <path
         d="m 101.9944,162.80862 0,-12.8625 6.125,0 0,1.26 -4.725,0 0,4.025 3.7275,0 0,1.26 -3.7275,0 0,5.0575 4.725,0 0,1.26 -6.125,0 z"
         style="font-size:17.5px"
         id="path4231"
         inkscape:connector-curvature="0" />
      <path
         d="m 110.7444,162.80862 0,-12.8625 6.125,0 0,1.26 -4.725,0 0,4.025 3.7275,0 0,1.26 -3.7275,0 0,6.3175 -1.4,0 z"
         style="font-size:17.5px"
         id="path4233"
         inkscape:connector-curvature="0" />
      <path
         d="m 122.2769,162.94862 q -0.7,0 -1.365,-0.2275 -0.665,-0.245 -1.1725,-0.7525 -0.49,-0.525 -0.7,-1.19 -0.21,-0.6825 -0.21,-1.3825 l 0,-6.0375 q 0,-0.7 0.21,-1.3825 0.21,-0.6825 0.7,-1.19 0.5075,-0.525 1.1725,-0.7525 0.6825,-0.2275 1.3825,-0.2275 0.8225,0 1.5925,0.3325 0.77,0.315 1.2425,1.015 0.4725,0.7 0.5775,1.505 l -1.365,0.245 q -0.07,-0.49 -0.35,-0.945 -0.2625,-0.455 -0.735,-0.665 -0.455,-0.2275 -0.9625,-0.2275 -0.4375,0 -0.8575,0.175 -0.4025,0.1575 -0.7,0.5075 -0.28,0.3325 -0.4025,0.7525 -0.105,0.42 -0.105,0.8575 l 0,6.0375 q 0,0.4375 0.105,0.8575 0.1225,0.42 0.4025,0.77 0.28,0.3325 0.6825,0.5075 0.42,0.1575 0.8575,0.1575 0.42,0 0.8225,-0.175 0.4025,-0.175 0.6475,-0.5075 0.2625,-0.35 0.3675,-0.77 0.105,-0.42 0.105,-0.84 l 0,-2.3275 -1.925,0 0,-1.26 3.325,0 0,3.5875 q 0,0.6825 -0.1925,1.365 -0.1925,0.665 -0.665,1.19 -0.4725,0.525 -1.1375,0.77 -0.6475,0.2275 -1.3475,0.2275 z"
         style="font-size:17.5px"
         id="path4235"
         inkscape:connector-curvature="0" />
      <path
         d="m 127.7194,162.80862 0,-12.8625 1.4,0 0,5.4775 3.85,0 0,-5.4775 1.4,0 0,12.8625 -1.4,0 0,-6.125 -3.85,0 0,6.125 -1.4,0 z"
         style="font-size:17.5px"
         id="path4237"
         inkscape:connector-curvature="0" />
      <path
         d="m 137.3444,162.80862 0,-1.26 1.75,0 0,-10.3425 -1.75,0 0,-1.26 4.9,0 0,1.26 -1.75,0 0,10.3425 1.75,0 0,1.26 -4.9,0 z"
         style="font-size:17.5px"
         id="path4239"
         inkscape:connector-curvature="0" />
      <path
         d="m 148.1244,162.94862 q -0.595,0 -1.1725,-0.175 -0.5775,-0.175 -1.0325,-0.5775 -0.455,-0.42 -0.7175,-0.9625 -0.2625,-0.5425 -0.3325,-1.1375 l 1.365,-0.2625 q 0.0525,0.49 0.28,0.9275 0.245,0.4375 0.6825,0.6825 0.4375,0.245 0.9275,0.245 0.42,0 0.805,-0.175 0.4025,-0.175 0.6475,-0.525 0.2625,-0.35 0.35,-0.7525 0.105,-0.42 0.105,-0.84 l 0,-8.19 -2.3625,0 0,-1.26 3.7625,0 0,9.45 q 0,0.6825 -0.1925,1.3475 -0.1925,0.665 -0.665,1.19 -0.455,0.525 -1.12,0.77 -0.6475,0.245 -1.33,0.245 z"
         style="font-size:17.5px"
         id="path4241"
         inkscape:connector-curvature="0" />
      <path
         d="m 153.9694,162.80862 0,-12.8625 1.4,0 0,5.95 q 0.175,-0.1925 0.35,-0.4025 0.3675,-0.4025 0.7175,-0.8225 0.35,-0.4375 0.6825,-0.875 0.3325,-0.4375 0.6475,-0.8925 0.315,-0.455 0.595,-0.9275 0.28,-0.4725 0.525,-0.9625 0.2625,-0.5075 0.2625,-1.0675 l 1.47,0 q 0,0.6125 -0.28,1.19 -0.28,0.56 -0.5775,1.085 -0.2975,0.525 -0.6475,1.0325 -0.35,0.5075 -0.7175,0.9975 -0.21,0.28 -0.42,0.56 2.7825,5.9675 2.7825,7.9975 l -1.4,0 q 0,-1.785 -2.345,-6.825 l -0.14,0.1925 q -0.4025,0.455 -0.805,0.91 -0.35,0.385 -0.7,0.7525 l 0,4.97 -1.4,0 z"
         style="font-size:17.5px"
         id="path4243"
         inkscape:connector-curvature="0" />
      <path
         d="m 163.2444,162.80862 0,-12.8625 1.4,0 0,11.6025 4.865,0 0,1.26 -6.265,0 z"
         style="font-size:17.5px"
         id="path4245"
         inkscape:connector-curvature="0" />
      <path
         d="m 171.4694,162.80862 0,-12.8625 0.4725,0 1.0675,0 1.785,6.965 1.785,-6.965 1.0675,0 0.4725,0 0,12.8625 -1.4,0 0,-2.5725 q 0,-0.7 0.0175,-1.4 l 0,-0.175 q 0,-0.385 0.0175,-0.7875 l 0,-0.175 q 0.035,-0.735 0.07,-1.47 l 0.0175,-0.175 q 0,-0.2625 0.0175,-0.525 l 0.0175,-0.175 0.0175,-0.2625 q 0.0175,-0.385 0.0525,-0.7875 l 0,-0.175 0.0175,-0.2625 0,-0.175 q 0.035,-0.6475 0.0525,-1.3125 l -1.6975,6.5625 -1.05,0 -1.6975,-6.5625 q 0.0175,0.665 0.0525,1.3125 l 0,0.175 0.0175,0.175 0,0.0875 0,0.175 q 0.035,0.4025 0.0525,0.7875 l 0.0175,0.2625 0.0175,0.175 q 0.0175,0.2625 0.0175,0.525 l 0.0175,0.175 q 0.035,0.735 0.07,1.47 l 0,0.175 q 0.0175,0.4025 0.0175,0.7875 l 0,0.175 q 0.0175,0.7 0.0175,1.4 l 0,2.5725 -1.4,0 z"
         style="font-size:17.5px"
         id="path4247"
         inkscape:connector-curvature="0" />
      <path
         d="m 180.2194,162.80862 0,-12.8625 0.595,0 1.3475,0 3.36,10.5175 q 0,-0.455 0,-0.91 l -0.0175,-0.175 0,-0.0875 0,-0.175 0,-0.175 0,-0.42 -0.0175,-0.175 0,-0.0875 0,-0.175 0,-0.3325 0,-0.175 q -0.0175,-1.19 -0.0175,-2.3975 l 0,-5.2325 1.4,0 0,12.8625 -0.595,0 -1.3475,0 -3.36,-10.5175 q 0,0.455 0,0.91 l 0.0175,0.175 0,0.0875 0,0.175 0,0.175 0,0.42 0.0175,0.175 0,0.0875 0,0.175 0,0.3325 0,0.175 q 0.0175,1.19 0.0175,2.3975 l 0,5.2325 -1.4,0 z"
         style="font-size:17.5px"
         id="path4249"
         inkscape:connector-curvature="0" />
      <path
         d="m 192.2944,162.94862 q -0.7,0 -1.3825,-0.2275 -0.665,-0.2275 -1.1725,-0.735 -0.49,-0.525 -0.7,-1.2075 -0.21,-0.6825 -0.21,-1.3825 l 0,-6.0375 q 0,-0.7 0.21,-1.3825 0.21,-0.6825 0.7,-1.19 0.5075,-0.525 1.1725,-0.7525 0.6825,-0.2275 1.3825,-0.2275 0.7,0 1.365,0.2275 0.6825,0.2275 1.1725,0.7525 0.5075,0.5075 0.7175,1.19 0.21,0.6825 0.21,1.3825 l 0,6.0375 q 0,0.7 -0.21,1.3825 -0.21,0.6825 -0.7175,1.2075 -0.49,0.5075 -1.1725,0.735 -0.665,0.2275 -1.365,0.2275 z m 0,-1.26 q 0.4375,0 0.84,-0.1575 0.42,-0.175 0.7,-0.5075 0.2975,-0.35 0.4025,-0.77 0.1225,-0.42 0.1225,-0.8575 l 0,-6.0375 q 0,-0.4375 -0.1225,-0.8575 -0.105,-0.42 -0.4025,-0.7525 -0.28,-0.35 -0.7,-0.5075 -0.4025,-0.175 -0.84,-0.175 -0.4375,0 -0.8575,0.175 -0.4025,0.1575 -0.7,0.5075 -0.28,0.3325 -0.4025,0.7525 -0.105,0.42 -0.105,0.8575 l 0,6.0375 q 0,0.4375 0.105,0.8575 0.1225,0.42 0.4025,0.77 0.2975,0.3325 0.7,0.5075 0.42,0.1575 0.8575,0.1575 z"
         style="font-size:17.5px"
         id="path4251"
         inkscape:connector-curvature="0" />
      <path
         d="m 197.9819,162.80862 0,-12.8625 3.08,0 q 0.7175,0 1.4,0.245 0.6825,0.245 1.155,0.7875 0.49,0.5425 0.6825,1.2425 0.21,0.6825 0.21,1.4 0,0.7 -0.21,1.4 -0.1925,0.6825 -0.6825,1.225 -0.4725,0.5425 -1.155,0.805 -0.6825,0.245 -1.4,0.245 l -1.68,0 0,5.5125 -1.4,0 z m 3.08,-6.7725 q 0.455,0 0.8575,-0.175 0.42,-0.1925 0.7,-0.56 0.28,-0.3675 0.385,-0.805 0.105,-0.4375 0.105,-0.875 0,-0.455 -0.105,-0.8925 -0.105,-0.4375 -0.385,-0.7875 -0.28,-0.3675 -0.7,-0.5425 -0.4025,-0.1925 -0.8575,-0.1925 l -1.68,0 0,4.83 1.68,0 z"
         style="font-size:17.5px"
         id="path4253"
         inkscape:connector-curvature="0" />
      <path
         d="m 212.0169,165.52112 q -0.56,0 -1.1025,-0.175 -0.525,-0.1575 -0.945,-0.5425 -0.42,-0.3675 -0.6125,-0.91 -0.175,-0.49 -0.1925,-0.9975 -0.385,-0.0525 -0.7525,-0.175 -0.665,-0.2275 -1.1725,-0.735 -0.49,-0.525 -0.7,-1.2075 -0.21,-0.6825 -0.21,-1.3825 l 0,-6.0375 q 0,-0.7 0.21,-1.3825 0.21,-0.6825 0.7,-1.19 0.5075,-0.525 1.1725,-0.7525 0.6825,-0.2275 1.3825,-0.2275 0.7,0 1.365,0.2275 0.6825,0.2275 1.1725,0.7525 0.5075,0.5075 0.7175,1.19 0.21,0.6825 0.21,1.3825 l 0,6.0375 q 0,0.7 -0.21,1.3825 -0.21,0.6825 -0.7175,1.2075 -0.49,0.5075 -1.155,0.735 -0.2975,0.105 -0.6125,0.1575 0.0175,0.35 0.175,0.6825 0.175,0.35 0.525,0.525 0.3675,0.175 0.7525,0.175 l 0.7525,0 0,1.26 -0.7525,0 z m -2.2225,-3.8325 q 0.4375,0 0.84,-0.1575 0.42,-0.175 0.7,-0.5075 0.2975,-0.35 0.4025,-0.77 0.1225,-0.42 0.1225,-0.8575 l 0,-6.0375 q 0,-0.4375 -0.1225,-0.8575 -0.105,-0.42 -0.4025,-0.7525 -0.28,-0.35 -0.7,-0.5075 -0.4025,-0.175 -0.84,-0.175 -0.4375,0 -0.8575,0.175 -0.4025,0.1575 -0.7,0.5075 -0.28,0.3325 -0.4025,0.7525 -0.105,0.42 -0.105,0.8575 l 0,6.0375 q 0,0.4375 0.105,0.8575 0.1225,0.42 0.4025,0.77 0.2975,0.3325 0.7,0.5075 0.42,0.1575 0.8575,0.1575 z"
         style="font-size:17.5px"
         id="path4255"
         inkscape:connector-curvature="0" />
      <path
         d="m 215.2194,162.80862 0,-12.8625 3.3425,0 q 0.7175,0 1.4,0.245 0.6825,0.245 1.155,0.7875 0.49,0.5425 0.6825,1.2425 0.21,0.6825 0.21,1.4 0,0.7 -0.21,1.4 -0.1925,0.6825 -0.6825,1.225 -0.4725,0.5425 -1.155,0.7875 -0.1225,0.0525 -0.245,0.0875 2.2925,3.3425 2.2925,5.6875 l -1.4,0 q 0,-2.24 -2.4325,-5.5125 l -1.5575,0 0,5.5125 -1.4,0 z m 3.3425,-6.7725 q 0.455,0 0.8575,-0.175 0.42,-0.1925 0.7,-0.56 0.28,-0.3675 0.385,-0.805 0.105,-0.4375 0.105,-0.875 0,-0.455 -0.105,-0.8925 -0.105,-0.4375 -0.385,-0.7875 -0.28,-0.3675 -0.7,-0.5425 -0.4025,-0.1925 -0.8575,-0.1925 l -1.9425,0 0,4.83 1.9425,0 z"
         style="font-size:17.5px"
         id="path4257"
         inkscape:connector-curvature="0" />
      <path
         d="m 227.2419,162.94862 q -0.8225,0 -1.61,-0.2975 -0.77,-0.2975 -1.26,-0.9975 -0.49,-0.7 -0.49,-1.54 l 0,-0.0175 1.3825,-0.1925 q 0,0.07 0,0.1225 0,0.49 0.28,0.91 0.2975,0.4025 0.7525,0.5775 0.455,0.175 0.945,0.175 0.525,0 0.9975,-0.2275 0.49,-0.2275 0.735,-0.7 0.245,-0.49 0.245,-1.015 0,-0.8925 -0.665,-1.575 -0.665,-0.7 -1.47,-1.1025 -0.7875,-0.42 -1.5225,-0.9625 -0.7175,-0.5425 -1.155,-1.3475 -0.4375,-0.8225 -0.4375,-1.7325 0,-0.6475 0.245,-1.2775 0.245,-0.63 0.7175,-1.085 0.49,-0.455 1.12,-0.6475 0.6475,-0.21 1.295,-0.21 0.8225,0 1.5925,0.2975 0.7875,0.2975 1.2775,0.9975 0.49,0.7 0.49,1.54 l 0,0.0175 -1.3825,0.1925 q 0,-0.07 0,-0.1225 0,-0.49 -0.2975,-0.8925 -0.28,-0.42 -0.735,-0.595 -0.455,-0.175 -0.945,-0.175 -0.525,0 -1.015,0.2275 -0.4725,0.2275 -0.7175,0.7175 -0.245,0.4725 -0.245,0.9975 0,0.8925 0.665,1.5925 0.665,0.6825 1.4525,1.1025 0.805,0.4025 1.5225,0.945 0.735,0.5425 1.1725,1.365 0.4375,0.805 0.4375,1.715 0,0.6475 -0.245,1.2775 -0.245,0.63 -0.735,1.085 -0.4725,0.455 -1.12,0.665 -0.63,0.1925 -1.2775,0.1925 z"
         style="font-size:17.5px"
         id="path4259"
         inkscape:connector-curvature="0" />
      <path
         d="m 235.3444,162.80862 0,-11.6025 -2.625,0 0,-1.26 6.65,0 0,1.26 -2.625,0 0,11.6025 -1.4,0 z"
         style="font-size:17.5px"
         id="path4261"
         inkscape:connector-curvature="0" />
      <path
         d="m 244.7944,162.94862 q -0.6825,0 -1.3475,-0.245 -0.6475,-0.245 -1.12,-0.7525 -0.4725,-0.525 -0.665,-1.19 -0.1925,-0.6825 -0.1925,-1.365 l 0,-9.45 1.4,0 0,9.45 q 0,0.42 0.105,0.84 0.105,0.4025 0.35,0.7525 0.2625,0.35 0.6475,0.525 0.4025,0.175 0.8225,0.175 0.42,0 0.805,-0.175 0.4025,-0.175 0.6475,-0.525 0.2625,-0.35 0.3675,-0.7525 0.105,-0.42 0.105,-0.84 l 0,-9.45 1.4,0 0,9.45 q 0,0.6825 -0.1925,1.365 -0.1925,0.665 -0.665,1.19 -0.4725,0.5075 -1.1375,0.7525 -0.6475,0.245 -1.33,0.245 z"
         style="font-size:17.5px"
         id="path4263"
         inkscape:connector-curvature="0" />
      <path
         d="m 252.7394,162.80862 q -2.52,-8.085 -2.52,-11.585 l 0,-1.2775 1.4,0 0,1.2775 q 0,3.2025 1.925,10.325 1.925,-7.1225 1.925,-10.325 l 0,-1.2775 1.4,0 0,1.2775 q 0,3.5 -2.52,11.585 l -1.61,0 z"
         style="font-size:17.5px"
         id="path4265"
         inkscape:connector-curvature="0" />
      <path
         d="m 260.2819,162.80862 q -1.3125,-6.72 -1.3125,-9.6425 l 0,-3.22 1.4,0 0,3.22 q 0,2.52 0.455,7.8925 l 0.98,-5.9675 0.98,0 0.98,5.9675 q 0.455,-5.3725 0.455,-7.8925 l 0,-3.22 1.4,0 0,3.22 q 0,2.9225 -1.3125,9.6425 l -0.9625,0 -1.05,-6.3875 -1.05,6.3875 -0.9625,0 z"
         style="font-size:17.5px"
         id="path4267"
         inkscape:connector-curvature="0" />
      <path
         d="m 267.7194,162.80862 0,-0.6475 q 0,-1.785 1.155,-3.6225 l 1.365,-2.17 -1.365,-2.1525 q -1.155,-1.8375 -1.155,-3.6225 l 0,-0.6475 1.4,0 0,0.6475 q 0,1.4525 0.945,2.94 l 0.98,1.5575 0.98,-1.5575 q 0.945,-1.4875 0.945,-2.94 l 0,-0.6475 1.4,0 0,0.6475 q 0,1.785 -1.155,3.6225 l -1.365,2.1525 1.365,2.17 q 1.155,1.8375 1.155,3.6225 l 0,0.6475 -1.4,0 0,-0.6475 q 0,-1.4525 -0.945,-2.94 l -0.98,-1.5575 -0.98,1.5575 q -0.945,1.4875 -0.945,2.94 l 0,0.6475 -1.4,0 z"
         style="font-size:17.5px"
         id="path4269"
         inkscape:connector-curvature="0" />
      <path
         d="m 279.0944,162.80862 0,-5.0225 -1.4875,-2.835 q -1.1375,-2.1525 -1.1375,-4.235 l 0,-0.77 1.4,0 0,0.77 q 0,1.8025 0.9625,3.6575 l 0.9625,1.8375 0.9625,-1.8375 q 0.9625,-1.855 0.9625,-3.6575 l 0,-0.77 1.4,0 0,0.77 q 0,2.0825 -1.1375,4.235 l -1.4875,2.835 0,5.0225 -1.4,0 z"
         style="font-size:17.5px"
         id="path4271"
         inkscape:connector-curvature="0" />
      <path
         d="m 285.2194,162.80862 0,-1.26 5.04,-10.3425 -5.04,0 0,-1.26 6.65,0 0,1.26 -5.04,10.3425 5.04,0 0,1.26 -6.65,0 z"
         style="font-size:17.5px"
         id="path4273"
         inkscape:connector-curvature="0" />
      <path
         d="m 69.794403,184.82362 q -0.7525,0 -1.4525,-0.2975 -0.7,-0.2975 -1.1725,-0.8925 -0.455,-0.595 -0.6475,-1.3125 -0.1925,-0.735 -0.1925,-1.4875 l 0,-1.575 q 0,-0.7525 0.1925,-1.47 0.1925,-0.735 0.6475,-1.33 0.4725,-0.595 1.1725,-0.8925 0.7,-0.2975 1.4525,-0.2975 0.7525,0 1.4525,0.2975 0.7,0.2975 1.155,0.8925 0.4725,0.595 0.665,1.33 0.1925,0.7175 0.1925,1.47 l 0,1.575 q 0,0.7525 -0.1925,1.4875 -0.1925,0.7175 -0.665,1.3125 -0.455,0.595 -1.155,0.8925 -0.7,0.2975 -1.4525,0.2975 z m 0,-1.26 q 0.49,0 0.91,-0.2275 0.4375,-0.245 0.7,-0.6475 0.2625,-0.42 0.35,-0.8925 0.105,-0.4725 0.105,-0.9625 l 0,-1.575 q 0,-0.49 -0.105,-0.9625 -0.0875,-0.4725 -0.35,-0.875 -0.2625,-0.42 -0.7,-0.6475 -0.42,-0.245 -0.91,-0.245 -0.49,0 -0.9275,0.245 -0.42,0.2275 -0.6825,0.6475 -0.2625,0.4025 -0.3675,0.875 -0.0875,0.4725 -0.0875,0.9625 l 0,1.575 q 0,0.49 0.0875,0.9625 0.105,0.4725 0.3675,0.8925 0.2625,0.4025 0.6825,0.6475 0.4375,0.2275 0.9275,0.2275 z"
         style="font-size:17.5px"
         id="path4275"
         inkscape:connector-curvature="0" />
      <path
         d="m 78.544403,184.82362 q -0.7,0 -1.3825,-0.2275 -0.665,-0.2275 -1.1725,-0.735 -0.49,-0.525 -0.7,-1.2075 -0.21,-0.6825 -0.21,-1.3825 l 0,-6.0375 q 0,-0.7 0.21,-1.3825 0.21,-0.6825 0.7,-1.19 0.5075,-0.525 1.1725,-0.7525 0.6825,-0.2275 1.3825,-0.2275 0.7,0 1.365,0.2275 0.6825,0.2275 1.1725,0.7525 0.5075,0.5075 0.7175,1.19 0.21,0.6825 0.21,1.3825 l 0,6.0375 q 0,0.7 -0.21,1.3825 -0.21,0.6825 -0.7175,1.2075 -0.49,0.5075 -1.1725,0.735 -0.665,0.2275 -1.365,0.2275 z m 0,-1.26 q 0.4375,0 0.84,-0.1575 0.42,-0.175 0.7,-0.5075 0.2975,-0.35 0.4025,-0.77 0.1225,-0.42 0.1225,-0.8575 l 0,-6.0375 q 0,-0.4375 -0.1225,-0.8575 -0.105,-0.42 -0.4025,-0.7525 -0.28,-0.35 -0.7,-0.5075 -0.4025,-0.175 -0.84,-0.175 -0.4375,0 -0.8575,0.175 -0.4025,0.1575 -0.7,0.5075 -0.28,0.3325 -0.4025,0.7525 -0.105,0.42 -0.105,0.8575 l 0,6.0375 q 0,0.4375 0.105,0.8575 0.1225,0.42 0.4025,0.77 0.2975,0.3325 0.7,0.5075 0.42,0.1575 0.8575,0.1575 z"
         style="font-size:17.5px"
         id="path4277"
         inkscape:connector-curvature="0" />
      <path
         d="m 87.294403,184.82362 q -0.7525,0 -1.4525,-0.2975 -0.7,-0.2975 -1.1725,-0.8925 -0.455,-0.595 -0.6475,-1.3125 -0.1925,-0.735 -0.1925,-1.4875 l 0,-5.1625 q 0,-0.7525 0.1925,-1.47 0.1925,-0.735 0.6475,-1.33 0.4725,-0.595 1.1725,-0.8925 0.7,-0.2975 1.4525,-0.2975 0.7525,0 1.4525,0.2975 0.7,0.2975 1.155,0.8925 0.4725,0.595 0.665,1.33 0.1925,0.7175 0.1925,1.47 l 0,5.1625 q 0,0.7525 -0.1925,1.4875 -0.1925,0.7175 -0.665,1.3125 -0.455,0.595 -1.155,0.8925 -0.7,0.2975 -1.4525,0.2975 z m 0,-1.26 q 0.49,0 0.91,-0.2275 0.4375,-0.245 0.7,-0.6475 0.2625,-0.42 0.35,-0.8925 0.105,-0.4725 0.105,-0.9625 l 0,-4.13 -4.0075,5.1625 q 0.105,0.4375 0.3325,0.8225 0.2625,0.4025 0.6825,0.6475 0.4375,0.2275 0.9275,0.2275 z m -2.065,-3.7625 4.0075,-5.1625 q -0.105,-0.4375 -0.3325,-0.8225 -0.2625,-0.4025 -0.7,-0.63 -0.42,-0.245 -0.91,-0.245 -0.49,0 -0.9275,0.245 -0.42,0.2275 -0.6825,0.6475 -0.2625,0.4025 -0.3675,0.875 -0.0875,0.4725 -0.0875,0.9625 l 0,4.13 z"
         style="font-size:17.5px"
         id="path4279"
         inkscape:connector-curvature="0" />
      <path
         d="m 96.044403,184.82362 q -0.665,0 -1.3125,-0.175 -0.63,-0.1925 -1.1375,-0.63 -0.5075,-0.455 -0.77,-1.0675 -0.245,-0.63 -0.245,-1.295 0,-0.91 0.4725,-1.7325 0.4725,-0.8225 1.19,-1.365 0.315,-0.245 0.6475,-0.4725 -0.175,-0.1225 -0.3675,-0.2625 -0.7175,-0.56 -1.19,-1.365 -0.4725,-0.8225 -0.4725,-1.7325 0,-0.63 0.21,-1.2075 0.2275,-0.595 0.6825,-1.0325 0.4725,-0.4375 1.0675,-0.6125 0.6125,-0.1925 1.225,-0.1925 0.6125,0 1.2075,0.1925 0.6125,0.175 1.0675,0.6125 0.4725,0.4375 0.6825,1.0325 0.2275,0.5775 0.2275,1.2075 0,0.91 -0.4725,1.7325 -0.4725,0.805 -1.19,1.365 -0.1925,0.14 -0.3675,0.2625 0.3325,0.2275 0.6475,0.4725 0.7175,0.5425 1.19,1.365 0.4725,0.8225 0.4725,1.7325 0,0.665 -0.2625,1.295 -0.245,0.6125 -0.7525,1.0675 -0.5075,0.4375 -1.155,0.63 -0.63,0.175 -1.295,0.175 z m 0,-1.26 q 0.525,0 1.015,-0.21 0.5075,-0.21 0.77,-0.6825 0.28,-0.49 0.28,-1.015 0,-0.91 -0.6475,-1.6275 -0.63,-0.7175 -1.4175,-1.19 -0.7875,0.4725 -1.435,1.19 -0.63,0.7175 -0.63,1.6275 0,0.525 0.2625,1.015 0.28,0.4725 0.77,0.6825 0.5075,0.21 1.0325,0.21 z m 0,-6.195 q 0.63,-0.42 1.155,-1.015 0.63,-0.7175 0.63,-1.6275 0,-0.4725 -0.2275,-0.91 -0.21,-0.4375 -0.6475,-0.6475 -0.4375,-0.2275 -0.91,-0.2275 -0.4725,0 -0.91,0.2275 -0.4375,0.21 -0.665,0.6475 -0.21,0.4375 -0.21,0.91 0,0.91 0.63,1.6275 0.525,0.595 1.155,1.015 z"
         style="font-size:17.5px"
         id="path4281"
         inkscape:connector-curvature="0" />
      <path
         d="m 110.4819,184.68362 0,-1.26 2.485,0 0,-6.755 -2.24,0 0,-1.26 3.64,0 0,8.015 2.24,0 0,1.26 -6.125,0 z m 8.5225,-10.9025 q -0.2975,0 -0.5775,-0.1225 -0.2625,-0.1225 -0.4025,-0.385 -0.1225,-0.28 -0.105,-0.5775 -0.0175,-0.2975 0.105,-0.56 0.14,-0.28 0.4025,-0.4025 0.28,-0.14 0.5775,-0.14 0.2975,0 0.56,0.14 0.28,0.1225 0.4025,0.4025 0.1225,0.2625 0.14,0.56 -0.0175,0.2975 -0.14,0.5775 -0.1225,0.2625 -0.4025,0.385 -0.2625,0.1225 -0.56,0.1225 z"
         style="font-size:17.5px"
         id="path4283"
         inkscape:connector-curvature="0" />
      <path
         d="m 119.8444,184.68362 0,-1.26 1.75,0 0,-10.3425 -1.75,0 0,-1.26 4.9,0 0,1.26 -1.75,0 0,10.3425 1.75,0 0,1.26 -4.9,0 z"
         style="font-size:17.5px"
         id="path4285"
         inkscape:connector-curvature="0" />
      <path
         d="m 127.9819,184.68362 0,-1.26 2.485,0 0,-10.3425 -2.24,0 0,-1.26 3.64,0 0,11.6025 2.24,0 0,1.26 -6.125,0 z"
         style="font-size:17.5px"
         id="path4287"
         inkscape:connector-curvature="0" />
      <path
         d="m 136.9944,184.68362 0,-12.8625 1.4,0 0,11.6025 4.865,0 0,1.26 -6.265,0 z"
         style="font-size:17.5px"
         id="path4289"
         inkscape:connector-curvature="0" />
      <path
         d="m 148.3694,184.68362 0,-11.2875 -2.24,1.505 -0.77,-1.05 3.01,-2.03 1.4,0 0,12.8625 -1.4,0 z"
         style="font-size:17.5px"
         id="path4291"
         inkscape:connector-curvature="0" />
      <path
         d="m 169.0369,187.81612 q -0.6125,0 -1.225,-0.105 -0.595,-0.105 -1.155,-0.35 -0.56,-0.245 -1.015,-0.6825 -0.455,-0.42 -0.6825,-0.9975 -0.21,-0.5775 -0.21,-1.19 0,-0.6125 0.175,-1.19 0.1925,-0.595 0.455,-1.155 0.2625,-0.5775 0.2625,-1.19 0,-0.455 -0.21,-0.875 -0.21,-0.4375 -0.6125,-0.7 -0.385,-0.2625 -0.84,-0.35 -0.455,-0.105 -0.9275,-0.105 l 0,-1.26 q 0.4725,0 0.9275,-0.0875 0.455,-0.105 0.84,-0.3675 0.4025,-0.2625 0.6125,-0.6825 0.21,-0.4375 0.21,-0.8925 0,-0.6125 -0.2625,-1.1725 -0.2625,-0.5775 -0.455,-1.155 -0.175,-0.595 -0.175,-1.2075 0,-0.6125 0.21,-1.19 0.2275,-0.5775 0.6825,-0.9975 0.455,-0.4375 1.015,-0.6825 0.56,-0.245 1.155,-0.35 0.6125,-0.105 1.225,-0.105 l 0,1.26 q -0.49,0 -0.9975,0.105 -0.49,0.0875 -0.9275,0.3325 -0.4375,0.245 -0.7,0.7 -0.2625,0.4375 -0.2625,0.9275 0,0.6125 0.2625,1.19 0.2625,0.56 0.4375,1.155 0.1925,0.5775 0.1925,1.19 0,0.735 -0.315,1.4175 -0.2975,0.665 -0.91,1.1025 -0.105,0.07 -0.21,0.14 0.105,0.07 0.21,0.14 0.6125,0.4375 0.91,1.12 0.315,0.665 0.315,1.4 0,0.6125 -0.1925,1.2075 -0.175,0.5775 -0.4375,1.155 -0.2625,0.56 -0.2625,1.1725 0,0.49 0.2625,0.9275 0.2625,0.455 0.7,0.7 0.4375,0.245 0.9275,0.3325 0.5075,0.105 0.9975,0.105 l 0,1.26 z"
         style="font-size:17.5px"
         id="path4293"
         inkscape:connector-curvature="0" />
      <path
         d="m 171.8019,187.81612 0,-1.26 q 0.49,0 0.98,-0.105 0.5075,-0.0875 0.945,-0.3325 0.4375,-0.245 0.7,-0.7 0.2625,-0.4375 0.2625,-0.9275 0,-0.6125 -0.2625,-1.1725 -0.2625,-0.5775 -0.455,-1.155 -0.175,-0.595 -0.175,-1.2075 0,-0.735 0.2975,-1.4 0.315,-0.6825 0.9275,-1.12 0.105,-0.07 0.21,-0.14 -0.105,-0.07 -0.21,-0.14 -0.6125,-0.4375 -0.9275,-1.1025 -0.2975,-0.6825 -0.2975,-1.4175 0,-0.6125 0.175,-1.19 0.1925,-0.595 0.455,-1.155 0.2625,-0.5775 0.2625,-1.19 0,-0.49 -0.2625,-0.9275 -0.2625,-0.455 -0.7,-0.7 -0.4375,-0.245 -0.945,-0.3325 -0.49,-0.105 -0.98,-0.105 l 0,-1.26 q 0.6125,0 1.2075,0.105 0.6125,0.105 1.1725,0.35 0.56,0.245 1.015,0.6825 0.455,0.42 0.665,0.9975 0.2275,0.5775 0.2275,1.19 0,0.6125 -0.1925,1.2075 -0.175,0.5775 -0.4375,1.155 -0.2625,0.56 -0.2625,1.1725 0,0.455 0.21,0.8925 0.21,0.42 0.595,0.6825 0.4025,0.2625 0.8575,0.3675 0.455,0.0875 0.9275,0.0875 l 0,1.26 q -0.4725,0 -0.9275,0.105 -0.455,0.0875 -0.8575,0.35 -0.385,0.2625 -0.595,0.7 -0.21,0.42 -0.21,0.875 0,0.6125 0.2625,1.19 0.2625,0.56 0.4375,1.155 0.1925,0.5775 0.1925,1.19 0,0.6125 -0.2275,1.19 -0.21,0.5775 -0.665,0.9975 -0.455,0.4375 -1.015,0.6825 -0.56,0.245 -1.1725,0.35 -0.595,0.105 -1.2075,0.105 z"
         style="font-size:17.5px"
         id="path4295"
         inkscape:connector-curvature="0" />
      <path
         d="m 189.6344,187.62362 0,-18.655 5.6525,0 0,1.26 -4.2525,0 0,16.135 4.2525,0 0,1.26 -5.6525,0 z"
         style="font-size:17.5px"
         id="path4297"
         inkscape:connector-curvature="0" />
      <path
         d="m 198.0519,187.62362 0,-1.26 4.2525,0 0,-16.135 -4.2525,0 0,-1.26 5.6525,0 0,18.655 -5.6525,0 z"
         style="font-size:17.5px"
         id="path4299"
         inkscape:connector-curvature="0" />
      <path
         d="m 218.5444,188.41112 q -0.6475,0 -1.295,-0.1575 -0.6475,-0.14 -1.2075,-0.525 -0.5425,-0.385 -0.84,-0.9975 -0.28,-0.595 -0.28,-1.26 0,-0.5775 0.2275,-1.1025 0.245,-0.5425 0.7175,-0.875 l 0.07,-0.0525 q -0.1575,-0.1575 -0.2625,-0.3325 -0.245,-0.42 -0.245,-0.8925 0,-0.595 0.3675,-1.085 0.1575,-0.2275 0.35,-0.385 l -0.1225,-0.1225 q -0.49,-0.42 -0.7175,-1.0325 -0.2275,-0.6125 -0.2275,-1.2425 0,-0.6475 0.2275,-1.2425 0.2275,-0.6125 0.7175,-1.0325 0.49,-0.4375 1.1025,-0.6125 0.63,-0.1925 1.26,-0.1925 0.56,0 1.1025,0.14 l 0.0175,0 2.765,0 0,1.26 -1.0325,-0.035 q 0.14,0.21 0.2275,0.455 0.2275,0.6125 0.2275,1.26 0,0.63 -0.2275,1.2425 -0.2275,0.6125 -0.7175,1.05 -0.49,0.42 -1.12,0.595 -0.6125,0.175 -1.2425,0.175 -0.6125,0 -1.225,-0.1575 -0.1575,0.0875 -0.2975,0.2275 -0.1925,0.2275 -0.1925,0.5075 0,0.315 0.245,0.5425 0.245,0.2275 0.56,0.28 0.2625,0.035 0.5425,0.035 l 0.0875,0 0.875,0 q 0.5775,0 1.155,0.14 0.5775,0.14 1.0675,0.49 0.49,0.3325 0.735,0.8925 0.2625,0.5425 0.2625,1.12 0,0.665 -0.315,1.26 -0.2975,0.6125 -0.8575,0.98 -0.5425,0.385 -1.19,0.525 -0.63,0.1575 -1.295,0.1575 z m 0,-1.26 q 0.525,0 1.0325,-0.1575 0.5075,-0.14 0.8575,-0.56 0.3675,-0.42 0.3675,-0.9275 0,-0.3325 -0.1575,-0.63 -0.1575,-0.2975 -0.4375,-0.455 -0.28,-0.175 -0.595,-0.245 -0.315,-0.07 -0.63,-0.07 l -0.875,0 -0.0175,0 -0.07,0 -0.0525,0 q -0.3675,0.0175 -0.735,0.14 -0.4025,0.1225 -0.665,0.4725 -0.245,0.35 -0.245,0.7525 0,0.525 0.3325,0.945 0.35,0.4375 0.8575,0.5775 0.5075,0.1575 1.0325,0.1575 z m -0.4725,-3.045 -0.035,0 -0.0175,0 0.0525,0 z m 0.315,-3.955 q 0.49,0 0.9625,-0.1925 0.4725,-0.21 0.7,-0.665 0.245,-0.455 0.245,-0.945 0,-0.5075 -0.245,-0.9625 -0.2275,-0.455 -0.7,-0.6475 -0.385,-0.175 -0.7875,-0.21 l -0.175,0 q -0.49,0 -0.9625,0.21 -0.4725,0.1925 -0.7175,0.6475 -0.2275,0.455 -0.2275,0.9625 0,0.49 0.2275,0.945 0.245,0.455 0.7175,0.665 0.4725,0.1925 0.9625,0.1925 z"
         style="font-size:17.5px"
         id="path4301"
         inkscape:connector-curvature="0" />
      <path
         d="m 227.2244,184.82362 q -0.595,0 -1.1725,-0.1925 -0.5775,-0.21 -1.015,-0.6125 -0.4375,-0.42 -0.735,-0.945 -0.28,-0.525 -0.42,-1.1025 l 1.26,-0.56 q 0.105,0.525 0.35,1.0325 0.245,0.49 0.7175,0.805 0.4725,0.315 1.015,0.315 0.56,0 1.015,-0.3325 0.4725,-0.35 0.7,-0.8575 0.245,-0.525 0.3325,-1.0675 0.0875,-0.56 0.0875,-1.12 l 0,-1.3475 q -0.0875,0.14 -0.1925,0.2625 -0.35,0.4375 -0.875,0.665 -0.5075,0.2275 -1.05,0.2275 -0.735,0 -1.435,-0.2975 -0.6825,-0.315 -1.155,-0.91 -0.455,-0.6125 -0.6475,-1.33 -0.175,-0.7175 -0.175,-1.4525 l 0,-0.3325 q 0,-0.7525 0.1925,-1.47 0.1925,-0.735 0.6475,-1.33 0.4725,-0.595 1.1725,-0.8925 0.7,-0.2975 1.4525,-0.2975 0.7525,0 1.47,0.315 0.7175,0.315 1.1725,0.945 0.455,0.63 0.63,1.3825 0.1925,0.7525 0.1925,1.505 l 0,4.3575 q 0,0.6475 -0.105,1.3125 -0.105,0.6475 -0.3675,1.26 -0.2625,0.595 -0.7175,1.085 -0.455,0.49 -1.085,0.735 -0.6125,0.245 -1.26,0.245 z m 0.0525,-6.09 q 0.49,0 0.9275,-0.2275 0.4375,-0.245 0.6825,-0.6475 0.2625,-0.42 0.3675,-0.8925 0.105,-0.49 0.105,-0.9625 l 0,-0.1925 q 0,-0.49 -0.105,-0.98 -0.0875,-0.49 -0.3325,-0.9275 -0.245,-0.4375 -0.7,-0.7 -0.4375,-0.2625 -0.9275,-0.2625 -0.49,0 -0.9275,0.245 -0.4375,0.2275 -0.7,0.6475 -0.245,0.4025 -0.35,0.8925 -0.0875,0.4725 -0.0875,0.945 l 0,0.3325 q 0,0.4725 0.0875,0.945 0.105,0.4725 0.35,0.8925 0.2625,0.42 0.7,0.665 0.4375,0.2275 0.91,0.2275 z"
         style="font-size:17.5px"
         id="path4303"
         inkscape:connector-curvature="0" />
      <path
         d="m 237.9694,188.27112 0,-4.9175 q -0.175,0.315 -0.4025,0.595 -0.3675,0.4375 -0.8925,0.665 -0.525,0.21 -1.0675,0.21 -0.7175,0 -1.3475,-0.3325 -0.63,-0.35 -1.015,-0.9625 -0.3675,-0.6125 -0.525,-1.295 -0.14,-0.7 -0.14,-1.4 l 0,-1.575 q 0,-0.7 0.14,-1.3825 0.1575,-0.7 0.525,-1.3125 0.385,-0.6125 1.015,-0.945 0.63,-0.35 1.3475,-0.35 0.5425,0 1.0675,0.2275 0.525,0.21 0.8925,0.6475 0.2275,0.28 0.4025,0.595 l 0,-1.33 1.4,0 0,12.8625 -1.4,0 z m -1.9425,-4.7075 q 0.4725,0 0.8925,-0.245 0.42,-0.245 0.6475,-0.665 0.2275,-0.42 0.315,-0.875 0.0875,-0.4725 0.0875,-0.945 l 0,-1.575 q 0,-0.4725 -0.0875,-0.9275 -0.0875,-0.4725 -0.315,-0.8925 -0.2275,-0.42 -0.6475,-0.665 -0.42,-0.245 -0.8925,-0.245 -0.4725,0 -0.91,0.245 -0.4375,0.2275 -0.7,0.6475 -0.245,0.42 -0.35,0.8925 -0.0875,0.4725 -0.0875,0.945 l 0,1.575 q 0,0.4725 0.0875,0.945 0.105,0.4725 0.35,0.8925 0.2625,0.42 0.7,0.665 0.4375,0.2275 0.91,0.2275 z m 2.4675,-2.6425 0,-0.07 0,0.07 z"
         style="font-size:17.5px"
         id="path4305"
         inkscape:connector-curvature="0" />
      <path
         d="m 244.7944,184.82362 q -0.7,0 -1.3825,-0.2275 -0.665,-0.2275 -1.1725,-0.735 -0.49,-0.525 -0.7,-1.2075 -0.21,-0.6825 -0.21,-1.3825 l 0,-6.0375 q 0,-0.7 0.21,-1.3825 0.21,-0.6825 0.7,-1.19 0.5075,-0.525 1.1725,-0.7525 0.6825,-0.2275 1.3825,-0.2275 0.8225,0 1.5925,0.3325 0.77,0.315 1.2425,1.015 0.4725,0.7 0.5775,1.505 l -1.365,0.245 q -0.07,-0.49 -0.35,-0.945 -0.2625,-0.455 -0.735,-0.665 -0.455,-0.2275 -0.9625,-0.2275 -0.4375,0 -0.8575,0.175 -0.4025,0.1575 -0.7,0.5075 -0.28,0.3325 -0.4025,0.7525 -0.105,0.42 -0.105,0.8575 l 0,6.0375 q 0,0.4375 0.105,0.8575 0.1225,0.42 0.4025,0.77 0.2975,0.3325 0.7,0.5075 0.42,0.1575 0.8575,0.1575 0.5075,0 0.9625,-0.21 0.4725,-0.2275 0.735,-0.6825 0.28,-0.455 0.35,-0.945 l 1.365,0.245 q -0.0875,0.6125 -0.3675,1.1725 -0.28,0.5425 -0.77,0.945 -0.4725,0.385 -1.0675,0.56 -0.595,0.175 -1.2075,0.175 z"
         style="font-size:17.5px"
         id="path4307"
         inkscape:connector-curvature="0" />
      <path
         d="m 253.5269,184.82362 q -0.7,0 -1.365,-0.2275 -0.665,-0.245 -1.1725,-0.7525 -0.49,-0.525 -0.7,-1.19 -0.21,-0.6825 -0.21,-1.3825 l 0,-6.0375 q 0,-0.7 0.21,-1.3825 0.21,-0.6825 0.7,-1.19 0.5075,-0.525 1.1725,-0.7525 0.6825,-0.2275 1.3825,-0.2275 0.8225,0 1.5925,0.3325 0.77,0.315 1.2425,1.015 0.4725,0.7 0.5775,1.505 l -1.365,0.245 q -0.07,-0.49 -0.35,-0.945 -0.2625,-0.455 -0.735,-0.665 -0.455,-0.2275 -0.9625,-0.2275 -0.4375,0 -0.8575,0.175 -0.4025,0.1575 -0.7,0.5075 -0.28,0.3325 -0.4025,0.7525 -0.105,0.42 -0.105,0.8575 l 0,6.0375 q 0,0.4375 0.105,0.8575 0.1225,0.42 0.4025,0.77 0.28,0.3325 0.6825,0.5075 0.42,0.1575 0.8575,0.1575 0.42,0 0.8225,-0.175 0.4025,-0.175 0.6475,-0.5075 0.2625,-0.35 0.3675,-0.77 0.105,-0.42 0.105,-0.84 l 0,-2.3275 -1.925,0 0,-1.26 3.325,0 0,3.5875 q 0,0.6825 -0.1925,1.365 -0.1925,0.665 -0.665,1.19 -0.4725,0.525 -1.1375,0.77 -0.6475,0.2275 -1.3475,0.2275 z"
         style="font-size:17.5px"
         id="path4309"
         inkscape:connector-curvature="0" />
      <path
         d="m 264.5169,187.39612 q -0.56,0 -1.1025,-0.175 -0.525,-0.1575 -0.945,-0.5425 -0.42,-0.3675 -0.6125,-0.91 -0.175,-0.49 -0.1925,-0.9975 -0.385,-0.0525 -0.7525,-0.175 -0.665,-0.2275 -1.1725,-0.735 -0.49,-0.525 -0.7,-1.2075 -0.21,-0.6825 -0.21,-1.3825 l 0,-6.0375 q 0,-0.7 0.21,-1.3825 0.21,-0.6825 0.7,-1.19 0.5075,-0.525 1.1725,-0.7525 0.6825,-0.2275 1.3825,-0.2275 0.7,0 1.365,0.2275 0.6825,0.2275 1.1725,0.7525 0.5075,0.5075 0.7175,1.19 0.21,0.6825 0.21,1.3825 l 0,6.0375 q 0,0.7 -0.21,1.3825 -0.21,0.6825 -0.7175,1.2075 -0.49,0.5075 -1.155,0.735 -0.2975,0.105 -0.6125,0.1575 0.0175,0.35 0.175,0.6825 0.175,0.35 0.525,0.525 0.3675,0.175 0.7525,0.175 l 0.7525,0 0,1.26 -0.7525,0 z m -2.2225,-3.8325 q 0.4375,0 0.84,-0.1575 0.42,-0.175 0.7,-0.5075 0.2975,-0.35 0.4025,-0.77 0.1225,-0.42 0.1225,-0.8575 l 0,-6.0375 q 0,-0.4375 -0.1225,-0.8575 -0.105,-0.42 -0.4025,-0.7525 -0.28,-0.35 -0.7,-0.5075 -0.4025,-0.175 -0.84,-0.175 -0.4375,0 -0.8575,0.175 -0.4025,0.1575 -0.7,0.5075 -0.28,0.3325 -0.4025,0.7525 -0.105,0.42 -0.105,0.8575 l 0,6.0375 q 0,0.4375 0.105,0.8575 0.1225,0.42 0.4025,0.77 0.2975,0.3325 0.7,0.5075 0.42,0.1575 0.8575,0.1575 z"
         style="font-size:17.5px"
         id="path4311"
         inkscape:connector-curvature="0" />
      <path
         d="m 281.0894,180.44862 q -0.4725,0 -0.8575,-0.315 -0.385,-0.3325 -0.6475,-0.735 l -0.14,-0.21 -0.0875,-0.1575 -0.0875,-0.14 -0.1925,-0.2975 q -0.245,-0.385 -0.5775,-0.735 0,0.0875 -0.07,0.0875 -0.0875,0.0175 -0.14,0.07 -0.035,0.0525 -0.0875,0.105 -0.035,0.0525 -0.07,0.105 -0.035,0.0525 -0.07,0.105 l -0.0875,0.1225 q -0.035,0.0525 -0.07,0.105 l -0.0525,0.1225 q -0.035,0.0525 -0.07,0.1225 l -0.07,0.105 -0.0525,0.1225 -0.07,0.1225 -0.0525,0.1225 q -0.035,0.0525 -0.0525,0.1225 l -0.07,0.1225 q -0.0175,0.0525 -0.0525,0.1225 l -0.0525,0.1225 -0.0525,0.1225 -0.0525,0.1225 -0.0525,0.1225 q -0.0175,0.0525 -0.0525,0.1225 -0.0175,0.07 -0.0525,0.1225 l -1.155,-0.42 q 0.1925,-0.5075 0.42,-0.9975 0.245,-0.5075 0.5075,-0.98 0.28,-0.4725 0.7,-0.8575 0.4375,-0.4025 0.98,-0.4025 0.4725,0 0.8575,0.315 0.385,0.315 0.6475,0.7175 l 0.14,0.2275 0.0875,0.14 0.0875,0.1575 0.1925,0.28 q 0.245,0.4025 0.5775,0.735 0,-0.07 0.07,-0.0875 0.0875,0 0.1225,-0.0525 0.0525,-0.07 0.0875,-0.1225 0.0525,-0.0525 0.0875,-0.105 0.035,-0.0525 0.07,-0.105 l 0.0875,-0.105 q 0.035,-0.07 0.07,-0.1225 l 0.0525,-0.105 q 0.035,-0.07 0.07,-0.1225 l 0.07,-0.1225 0.0525,-0.1225 0.07,-0.105 0.0175,-0.0525 0.035,-0.07 q 0.035,-0.07 0.0525,-0.1225 l 0.07,-0.1225 q 0.0175,-0.07 0.0525,-0.1225 l 0.0525,-0.1225 0.0525,-0.1225 0.0525,-0.1225 0.0525,-0.1225 q 0.0175,-0.07 0.035,-0.1225 0.035,-0.07 0.07,-0.14 l 1.155,0.42 q -0.1925,0.525 -0.4375,1.015 -0.2275,0.49 -0.5075,0.9625 -0.2625,0.4725 -0.7,0.875 -0.42,0.4025 -0.9625,0.4025 z"
         style="font-size:17.5px"
         id="path4313"
         inkscape:connector-curvature="0" />
      <path
         d="m 292.9194,178.92612 0,-1.26 6.65,0 0,1.26 -6.65,0 z"
         style="font-size:17.5px"
         id="path4315"
         inkscape:connector-curvature="0" />
      <path
         d="m 296.5944,181.95362 0,-3.0275 -2.625,0 0,-1.26 2.625,0 0,-3.0275 1.4,0 0,3.0275 2.625,0 0,1.26 -2.625,0 0,3.0275 -1.4,0 z"
         style="font-size:17.5px"
         id="path4317"
         inkscape:connector-curvature="0" />
      <path
         d="m 302.7194,180.79862 0,-1.26 12.075,0 0,1.26 -12.075,0 z m 0,-3.745 0,-1.26 12.075,0 0,1.26 -12.075,0 z"
         style="font-size:17.5px"
         id="path4319"
         inkscape:connector-curvature="0" />
      <path
         d="m 311.8194,182.56612 -0.7,-1.085 5.705,-3.185 -5.705,-3.185 0.7,-1.085 6.3,3.5525 0,1.435 -6.3,3.5525 z"
         style="font-size:17.5px"
         id="path4321"
         inkscape:connector-curvature="0" />
    </g>
  </g>
</svg>
