<svg xmlns="http://www.w3.org/2000/svg" width="269.053" height="114.869" viewBox="0 0 252.237 107.69"><g font-weight="400" font-family="Iosevka Nerd Font" letter-spacing="0" word-spacing="0" fill="#fff"><g style="line-height:125%;text-decoration-line:underline" font-size="27.5" text-decoration="underline"><path d="M0 20.212v-1.98h2.75V1.98H0V0h7.7v1.98H4.95v16.252H7.7v1.98H0zM17.6 20.432q-1.183 0-2.283-.467-1.1-.468-1.842-1.402-.715-.935-1.018-2.063-.302-1.155-.302-2.337v-2.475q0-1.183.302-2.31.303-1.155 1.018-2.09.742-.935 1.842-1.403 1.1-.467 2.283-.467 1.182 0 2.282.467 1.1.468 1.815 1.403.743.935 1.045 2.09.303 1.127.303 2.31v2.475q0 1.182-.303 2.337-.302 1.128-1.045 2.063-.715.934-1.815 1.402-1.1.467-2.282.467zm0-1.98q.77 0 1.43-.357.687-.385 1.1-1.017.412-.66.55-1.403.165-.742.165-1.512v-2.475q0-.77-.165-1.513-.138-.742-.55-1.375-.413-.66-1.1-1.017-.66-.385-1.43-.385-.77 0-1.458.385-.66.357-1.072 1.017-.413.633-.578 1.375-.137.743-.137 1.513v2.475q0 .77.137 1.512.165.743.578 1.403.412.632 1.072 1.017.688.358 1.458.358zM31.295 20.432q-1.1 0-2.2-.302-1.072-.303-1.897-1.1-.825-.797-1.155-1.842l2.062-.66q.22.632.715 1.1.495.467 1.127.66.66.165 1.348.165.688 0 1.375-.165.688-.165 1.21-.688.522-.55.522-1.237 0-1.018-.907-1.623-.88-.632-1.897-.687-.99-.083-1.98-.275-.99-.22-1.815-.825t-1.265-1.513q-.44-.935-.44-1.952 0-.935.44-1.788.467-.852 1.265-1.375.825-.522 1.732-.715.935-.192 1.87-.192 1.1 0 2.173.302 1.1.303 1.924 1.1.825.798 1.155 1.843l-2.062.66q-.22-.633-.715-1.1-.495-.468-1.155-.633-.632-.192-1.32-.192-.687 0-1.375.165-.687.165-1.21.715-.522.522-.522 1.21 0 1.017.88 1.65.907.605 1.897.687 1.018.055 2.008.275.99.193 1.814.798.825.605 1.265 1.54.44.907.44 1.925 0 .935-.467 1.787-.44.853-1.265 1.375-.797.522-1.732.715-.908.192-1.843.192zM45.292 20.432q-1.21 0-2.337-.44-1.128-.44-1.898-1.374-.77-.935-1.1-2.09-.302-1.183-.302-2.365v-2.475q0-1.183.302-2.31.303-1.155 1.018-2.09.742-.935 1.842-1.403 1.1-.467 2.283-.467 1.182 0 2.282.467 1.1.468 1.815 1.403.743.935 1.045 2.09.303 1.127.303 2.31v2.227h-8.69v.248q0 .77.165 1.54.192.77.632 1.43.44.632 1.155.99.715.33 1.485.33.743 0 1.43-.303.715-.33 1.155-.962.468-.633.688-1.348l2.007.798q-.357 1.127-1.127 2.035-.77.907-1.898 1.347-1.1.412-2.255.412zm-3.437-8.497h6.49v-.247q0-.77-.165-1.513-.138-.742-.55-1.375-.413-.66-1.1-1.017-.66-.385-1.43-.385-.77 0-1.458.385-.66.357-1.072 1.017-.413.633-.578 1.375-.137.743-.137 1.513v.247zM57.585 20.212q-3.96-9.157-3.96-13.117V5.637h2.2v1.458q0 3.547 3.025 11.55l.055-.138q2.97-7.892 2.97-11.412V5.637h2.2v1.458q0 3.96-3.96 13.117h-2.53zM67.375 20.212V0h2.2v12.045l.385-.303q.467-.357.935-.742.467-.385.907-.77.468-.413.908-.798.44-.412.852-.825.44-.44.798-.88.385-.467.77-.962.385-.523.385-1.128h2.31q0 .715-.413 1.32-.412.605-.852 1.155t-.908 1.073q-.467.495-.962.99-.495.467-.963.935 4.318 6.792 4.318 9.102h-2.2q0-1.98-3.713-7.7-.302.248-.577.495l-1.1.88q-.44.358-.88.688v5.637h-2.2zM85.14 20.432q-.853 0-1.678-.275t-1.43-.907q-.605-.632-.88-1.457-.247-.825-.247-1.678 0-.852.302-1.65.303-.825.935-1.402.633-.605 1.403-.935.797-.358 1.622-.495.853-.138 1.705-.138h2.503V10.23q0-.605-.22-1.155-.22-.577-.688-.962-.44-.385-1.017-.55-.578-.165-1.183-.165-.687 0-1.375.247-.687.22-1.155.798-.467.577-.55 1.265l-2.117-.495q.165-1.155.962-2.09.798-.963 1.925-1.32 1.155-.385 2.31-.385 1.018 0 2.008.275t1.76.935q.797.66 1.155 1.622.385.963.385 1.98v9.982h-2.2V18.15q-.193.33-.44.633-.688.824-1.705 1.237-1.018.412-2.09.412zm-.66-2.2q.66.22 1.347.22.715 0 1.403-.247.687-.247 1.182-.77.523-.55.743-1.237.22-.715.22-1.43v-1.293h-2.503q-.632 0-1.292.11-.633.11-1.21.44-.578.303-.935.88-.33.55-.33 1.21 0 .66.357 1.265.385.605 1.018.853zM108.625 20.212V0h3.052l5.28 16.527v-1.43l-.027-.275v-1.347l-.028-.275v-1.21q-.027-1.87-.027-3.768V0h2.2v20.212h-3.053l-5.28-16.527v1.43l.028.275v1.347l.027.275v1.21q.028 1.87.028 3.768v8.222h-2.2zM127.792 20.432q-1.21 0-2.337-.44-1.128-.44-1.898-1.374-.77-.935-1.1-2.09-.302-1.183-.302-2.365v-2.475q0-1.183.302-2.31.303-1.155 1.018-2.09.742-.935 1.842-1.403 1.1-.467 2.283-.467 1.182 0 2.282.467 1.1.468 1.815 1.403.743.935 1.045 2.09.303 1.127.303 2.31v2.227h-8.69v.248q0 .77.165 1.54.192.77.632 1.43.44.632 1.155.99.715.33 1.485.33.743 0 1.43-.303.715-.33 1.155-.962.468-.633.688-1.348l2.007.798q-.357 1.127-1.127 2.035-.77.907-1.898 1.347-1.1.412-2.255.412zm-3.437-8.497h6.49v-.247q0-.77-.165-1.513-.138-.742-.55-1.375-.413-.66-1.1-1.017-.66-.385-1.43-.385-.77 0-1.458.385-.66.357-1.072 1.017-.413.633-.578 1.375-.137.743-.137 1.513v.247zM137.775 20.212V5.637h2.2v2.75q.22-.605.55-1.182.467-.77 1.265-1.265.797-.523 1.705-.523.797 0 1.512.358.743.33 1.238.962.522.605.742 1.375l-2.062.935q-.165-.66-.688-1.155-.522-.495-1.21-.495-.825 0-1.512.55-.66.55-.99 1.32-.303.77-.44 1.595-.11.798-.11 1.623v7.727h-2.2zM154.412 20.432q-1.127 0-2.117-.522-.99-.55-1.595-1.512-.578-.963-.825-2.035-.22-1.1-.22-2.2v-2.475q0-1.1.22-2.173.247-1.1.825-2.062.605-.963 1.595-1.485.99-.55 2.117-.55.853 0 1.678.357.825.33 1.402 1.018.358.44.633.935V0h2.2v20.212h-2.2v-2.09q-.275.496-.633.936-.577.687-1.402 1.044-.825.33-1.678.33zm.66-1.98q.743 0 1.403-.384.66-.385 1.017-1.045.358-.66.495-1.375.138-.743.138-1.485v-2.475q0-.743-.138-1.458-.137-.742-.495-1.402-.357-.66-1.017-1.045-.66-.385-1.403-.385-.742 0-1.43.385-.687.357-1.1 1.017-.385.66-.55 1.403-.137.742-.137 1.485v2.475q0 .742.137 1.485.165.742.55 1.402.413.66 1.1 1.045.688.358 1.43.358zm3.878-4.152v-.11.11zM178.2 20.212V0h9.625v1.98H180.4v6.325h5.857v1.98H180.4v9.927h-2.2zM196.35 20.432q-1.183 0-2.283-.467-1.1-.468-1.842-1.402-.715-.935-1.018-2.063-.302-1.155-.302-2.337v-2.475q0-1.183.302-2.31.303-1.155 1.018-2.09.742-.935 1.842-1.403 1.1-.467 2.283-.467 1.182 0 2.282.467 1.1.468 1.815 1.403.743.935 1.045 2.09.303 1.127.303 2.31v2.475q0 1.182-.303 2.337-.302 1.128-1.045 2.063-.715.934-1.815 1.402-1.1.467-2.282.467zm0-1.98q.77 0 1.43-.357.687-.385 1.1-1.017.412-.66.55-1.403.165-.742.165-1.512v-2.475q0-.77-.165-1.513-.138-.742-.55-1.375-.413-.66-1.1-1.017-.66-.385-1.43-.385-.77 0-1.458.385-.66.357-1.072 1.017-.413.633-.578 1.375-.137.743-.137 1.513v2.475q0 .77.137 1.512.165.743.578 1.403.412.632 1.072 1.017.688.358 1.458.358zM204.875 20.212V5.637h2.2v2.09q.275-.495.632-.935.578-.66 1.375-1.017.825-.358 1.705-.358.853 0 1.678.358.825.357 1.375 1.045.577.66.907 1.485.33.797.44 1.65.138.852.138 1.732v8.525h-2.2v-8.525q0-.742-.138-1.457-.137-.743-.495-1.375-.357-.66-1.017-1.045-.633-.413-1.375-.413-.743 0-1.403.413-.632.385-.99 1.045-.357.632-.495 1.375-.137.715-.137 1.457v8.525h-2.2zM225.94 20.432q-1.018 0-1.98-.44-.935-.44-1.54-1.264-.578-.853-.825-1.843-.22-.99-.22-2.007v-7.26h-2.998v-1.98h2.998V0h2.2v5.638h4.427v1.98h-4.427v7.26q0 .797.165 1.595.192.77.797 1.375t1.403.605q.687 0 1.237-.468.578-.467.798-1.127.247-.66.302-1.375l2.145.467q-.082.88-.412 1.705-.33.825-.935 1.485-.605.66-1.458.99-.825.302-1.677.302z"/></g><g style="line-height:125%" font-size="17.5"><path d="M3.142 60.352q-.542 0-1.067-.175-.525-.175-.91-.577-.385-.403-.56-.928-.158-.525-.158-1.067 0-.543.193-1.05.192-.525.595-.893.402-.385.892-.595.508-.227 1.033-.315.542-.087 1.085-.087h1.592v-.805q0-.385-.14-.735-.14-.368-.437-.613-.28-.245-.648-.35-.367-.105-.752-.105-.438 0-.875.158-.438.14-.735.507-.298.368-.35.805l-1.348-.315q.105-.735.613-1.33.507-.612 1.225-.84.735-.245 1.47-.245.647 0 1.277.175.63.175 1.12.595.508.42.735 1.033.245.612.245 1.26v6.352h-1.4V58.9q-.122.21-.28.402-.437.525-1.085.788-.647.262-1.33.262zm-.42-1.4q.42.14.858.14.455 0 .892-.157.438-.158.753-.49.332-.35.472-.788.14-.455.14-.91v-.822H4.245q-.403 0-.823.07-.402.07-.77.28-.367.192-.595.56-.21.35-.21.77 0 .42.228.805.245.385.647.542zM13.1 60.352q-.543 0-1.068-.21-.525-.227-.892-.665-.228-.28-.403-.595v1.33h-1.4V47.35h1.4v4.917q.175-.315.403-.595.367-.437.892-.647.525-.228 1.068-.228.717 0 1.347.35.63.333.998.945.385.613.525 1.313.157.682.157 1.382v1.575q0 .7-.157 1.4-.14.683-.525 1.295-.368.613-.998.963-.63.332-1.347.332zm-.42-1.26q.472 0 .91-.227.437-.245.682-.665.263-.42.35-.893.105-.472.105-.945v-1.575q0-.472-.105-.945-.087-.472-.35-.892-.245-.42-.682-.648-.438-.245-.91-.245-.473 0-.893.245-.42.245-.647.665-.228.42-.315.893-.088.455-.088.927v1.575q0 .473.088.945.087.455.315.875.227.42.647.665.42.245.893.245zm-2.468-4.322v-.07.07zM21.43 60.352q-.735 0-1.453-.28-.7-.297-1.172-.892-.473-.613-.665-1.33-.193-.735-.193-1.488v-1.575q0-.752.193-1.47.192-.735.665-1.33.472-.612 1.172-.892.718-.298 1.453-.298.612 0 1.19.193.595.175 1.05.577.472.403.752.945.28.543.403 1.138l-1.33.385q-.088-.508-.35-.98-.245-.473-.718-.735-.472-.263-.997-.263-.473 0-.91.228-.438.227-.7.647-.263.42-.368.893-.105.472-.105.962v1.575q0 .49.105.963.105.472.368.892.262.42.7.648.437.227.91.227.525 0 .997-.262.473-.263.718-.735.262-.473.35-.98l1.33.385q-.123.595-.403 1.137-.28.543-.752.945-.455.403-1.05.595-.578.175-1.19.175zM29.725 60.352q-.718 0-1.348-.332-.63-.35-1.015-.963-.367-.612-.525-1.295-.14-.7-.14-1.4v-1.575q0-.7.14-1.382.158-.7.525-1.313.385-.612 1.015-.945.63-.35 1.348-.35.542 0 1.067.228.525.21.893.647.227.28.402.595V47.35h1.4v12.862h-1.4v-1.33q-.175.315-.402.595-.368.438-.893.665-.525.21-1.067.21zm.42-1.26q.472 0 .892-.245.42-.245.648-.665.227-.42.315-.875.087-.472.087-.945v-1.575q0-.472-.087-.927-.088-.473-.315-.893-.228-.42-.648-.665-.42-.245-.892-.245-.473 0-.91.245-.438.228-.7.648-.245.42-.35.892-.088.473-.088.945v1.575q0 .473.088.945.105.473.35.893.262.42.7.665.437.227.91.227zm2.467-2.642v-.07.07zM39.035 60.352q-.77 0-1.488-.28-.717-.28-1.207-.875-.49-.595-.7-1.33-.193-.752-.193-1.505v-1.575q0-.752.193-1.47.192-.735.647-1.33.473-.595 1.173-.892.7-.298 1.452-.298.753 0 1.453.298.7.297 1.155.892.472.595.665 1.33.192.718.192 1.47v1.418h-5.53v.157q0 .49.105.98.123.49.403.91.28.403.735.63.455.21.945.21.472 0 .91-.192.455-.21.735-.613.297-.402.437-.857l1.278.507q-.228.718-.718 1.295-.49.578-1.207.858-.7.262-1.435.262zm-2.188-5.407h4.13v-.158q0-.49-.105-.962-.087-.473-.35-.875-.262-.42-.7-.648-.42-.245-.91-.245-.49 0-.927.245-.42.228-.683.648-.262.402-.367.875-.088.472-.088.962v.158zM46.315 60.212v-7.49h-1.978v-1.26h1.978V49.8q0-.543.14-1.068t.49-.945q.35-.437.857-.647.508-.21 1.05-.21.613 0 1.173.262.56.263.892.788.333.525.42 1.12l-1.347.332q-.035-.297-.175-.577-.123-.298-.385-.473-.263-.192-.578-.192-.367 0-.665.262-.28.263-.385.63-.087.35-.087.718v1.662h2.94v1.26h-2.94v7.49h-1.4zM56.412 63.94q-.647 0-1.295-.158-.647-.14-1.207-.525-.543-.385-.84-.997-.28-.595-.28-1.26 0-.578.227-1.103.245-.542.718-.875l.07-.052q-.158-.158-.263-.333-.245-.42-.245-.892 0-.595.368-1.085.157-.228.35-.385l-.123-.123q-.49-.42-.717-1.032-.228-.613-.228-1.243 0-.647.228-1.242.227-.613.717-1.033.49-.437 1.103-.612.63-.193 1.26-.193.56 0 1.102.14h2.783v1.26l-1.033-.035q.14.21.228.455.227.613.227 1.26 0 .63-.227 1.243-.228.612-.718 1.05-.49.42-1.12.595-.612.175-1.242.175-.613 0-1.225-.158-.158.088-.298.228-.192.227-.192.507 0 .315.245.543.245.227.56.28.262.035.542.035h.963q.577 0 1.155.14.577.14 1.067.49.49.332.735.892.263.543.263 1.12 0 .665-.315 1.26-.298.613-.858.98-.542.385-1.19.525-.63.158-1.295.158zm0-1.26q.525 0 1.033-.158.507-.14.857-.56.368-.42.368-.927 0-.333-.158-.63-.157-.298-.437-.455-.28-.175-.595-.245-.315-.07-.63-.07H55.835q-.368.017-.735.14-.403.122-.665.472-.245.35-.245.753 0 .525.332.945.35.437.858.577.507.158 1.032.158zm-.472-3.045H55.887h.053zm.315-3.955q.49 0 .962-.193.473-.21.7-.665.245-.455.245-.945 0-.507-.245-.962-.227-.455-.7-.648-.385-.175-.787-.21h-.175q-.49 0-.963.21-.472.193-.717.648-.228.455-.228.962 0 .49.228.945.245.455.717.665.473.193.963.193zM61.837 60.212V47.35h1.4v4.917q.175-.315.403-.595.367-.42.875-.647.525-.228 1.085-.228.542 0 1.067.228.525.227.875.665.368.42.578.945.21.507.28 1.05.087.542.087 1.102v5.425h-1.4v-5.425q0-.472-.087-.927-.088-.473-.315-.875-.228-.42-.648-.665-.402-.263-.875-.263-.472 0-.892.263-.403.245-.63.665-.228.402-.315.875-.088.455-.088.927v5.425h-1.4zM70.85 60.212v-1.26h2.485v-6.755h-2.24v-1.26h3.64v8.015h2.24v1.26H70.85zm8.522-10.902q-.297 0-.577-.123-.263-.122-.403-.385-.122-.28-.105-.577-.017-.298.105-.56.14-.28.403-.403.28-.14.577-.14.298 0 .56.14.28.123.403.403.122.262.14.56-.018.297-.14.577-.123.263-.403.385-.262.123-.56.123zM81.437 63.94q-.7 0-1.347-.315-.648-.298-1.05-.91-.385-.595-.525-1.278l1.33-.42q.052.42.245.805.192.385.56.613.367.245.787.245.403 0 .753-.21t.542-.56q.193-.35.263-.735t.07-.788v-8.19h-2.363v-1.26h3.763v9.45q0 .665-.175 1.295-.158.648-.56 1.19-.403.543-1.015.805-.613.263-1.278.263zm7.543-14.63q-.298 0-.578-.123-.262-.122-.402-.385-.123-.28-.105-.577-.018-.298.105-.56.14-.28.402-.403.28-.14.578-.14.297 0 .56.14.28.123.402.403.123.262.14.56-.017.297-.14.577-.122.263-.402.385-.263.123-.56.123z"/><path d="M88.087 60.212V47.35h1.4v7.665l.245-.193q.298-.227.595-.472.298-.245.578-.49.297-.263.577-.508.28-.262.543-.525.28-.28.507-.56.245-.297.49-.612.245-.333.245-.718h1.47q0 .455-.262.84-.263.385-.543.735t-.577.683q-.298.315-.613.63-.315.297-.612.595 2.747 4.322 2.747 5.792h-1.4q0-1.26-2.362-4.9-.193.158-.368.315l-.7.56q-.28.228-.56.438v3.587h-1.4zM97.1 60.212v-1.26h2.485V48.61h-2.24v-1.26h3.64v11.602h2.24v1.26H97.1zM105.447 60.212v-9.275h1.4v.56q.053-.087.123-.175.402-.525.997-.525.613 0 1.015.525.245.315.385.665.123-.35.368-.665.402-.525.997-.525.613 0 1.015.525.403.508.508 1.103.122.595.122 1.207v6.58h-1.4v-6.58q0-.315-.052-.612-.035-.315-.175-.63-.14-.333-.455-.333t-.455.333q-.14.315-.193.612-.035.298-.035.63v6.58h-1.4v-6.58q0-.315-.052-.612-.035-.315-.175-.63-.14-.333-.455-.333t-.455.333q-.14.315-.193.63-.035.297-.035.612v6.58h-1.4zM114.337 60.212v-9.275h1.4v1.33q.175-.315.403-.595.367-.42.875-.647.525-.228 1.085-.228.542 0 1.067.228.525.227.875.665.368.42.578.945.21.507.28 1.05.087.542.087 1.102v5.425h-1.4v-5.425q0-.472-.087-.927-.088-.473-.315-.875-.228-.42-.648-.665-.402-.263-.875-.263-.472 0-.892.263-.403.245-.63.665-.228.402-.315.875-.088.455-.088.927v5.425h-1.4zM126.412 60.352q-.752 0-1.452-.297-.7-.298-1.173-.893-.455-.595-.647-1.312-.193-.735-.193-1.488v-1.575q0-.752.193-1.47.192-.735.647-1.33.473-.595 1.173-.892.7-.298 1.452-.298.753 0 1.453.298.7.297 1.155.892.472.595.665 1.33.192.718.192 1.47v1.575q0 .753-.192 1.488-.193.717-.665 1.312-.455.595-1.155.893-.7.297-1.453.297zm0-1.26q.49 0 .91-.227.438-.245.7-.648.263-.42.35-.892.105-.473.105-.963v-1.575q0-.49-.105-.962-.087-.473-.35-.875-.262-.42-.7-.648-.42-.245-.91-.245-.49 0-.927.245-.42.228-.683.648-.262.402-.367.875-.088.472-.088.962v1.575q0 .49.088.963.105.472.367.892.263.403.683.648.437.227.927.227zM131.837 63.8V50.937h1.4v1.33q.175-.315.403-.595.367-.437.892-.647.525-.228 1.068-.228.717 0 1.347.35.63.333.998.945.385.613.525 1.313.157.682.157 1.382v1.575q0 .7-.157 1.4-.14.683-.525 1.295-.368.613-.998.963-.63.332-1.347.332-.543 0-1.068-.21-.525-.227-.892-.665-.228-.28-.403-.595V63.8h-1.4zm3.343-4.708q.472 0 .91-.227.437-.245.682-.665.263-.42.35-.893.105-.472.105-.945v-1.575q0-.472-.105-.945-.087-.472-.35-.892-.245-.42-.682-.648-.438-.245-.91-.245-.473 0-.893.245-.42.245-.647.665-.228.42-.315.893-.088.455-.088.927v1.575q0 .473.088.945.087.455.315.875.227.42.647.665.42.245.893.245zm-2.468-4.322v-.07.07zM145.837 63.8v-4.918q-.175.315-.402.595-.368.438-.893.665-.525.21-1.067.21-.718 0-1.348-.332-.63-.35-1.015-.963-.367-.612-.525-1.295-.14-.7-.14-1.4v-1.575q0-.7.14-1.382.158-.7.525-1.313.385-.612 1.015-.945.63-.35 1.348-.35.542 0 1.067.228.525.21.893.647.227.28.402.595v-1.33h1.4V63.8h-1.4zm-1.942-4.708q.472 0 .892-.245.42-.245.648-.665.227-.42.315-.875.087-.472.087-.945v-1.575q0-.472-.087-.927-.088-.473-.315-.893-.228-.42-.648-.665-.42-.245-.892-.245-.473 0-.91.245-.438.228-.7.648-.245.42-.35.892-.088.473-.088.945v1.575q0 .473.088.945.105.473.35.893.262.42.7.665.437.227.91.227zm2.467-2.642v-.07.07zM150.387 60.212v-9.275h1.4v1.75q.14-.385.35-.752.298-.49.805-.805.508-.333 1.085-.333.508 0 .963.228.472.21.787.612.333.385.473.875l-1.313.595q-.105-.42-.437-.735-.333-.315-.77-.315-.525 0-.963.35-.42.35-.63.84-.192.49-.28 1.015-.07.508-.07 1.033v4.917h-1.4zM161.377 60.352q-.7 0-1.4-.192-.682-.193-1.207-.7-.525-.508-.735-1.173l1.312-.42q.14.403.455.7.315.298.718.42.42.105.857.105.438 0 .875-.105.438-.105.77-.437.333-.35.333-.788 0-.647-.578-1.032-.56-.403-1.207-.438-.63-.052-1.26-.175-.63-.14-1.155-.525t-.805-.962q-.28-.595-.28-1.243 0-.595.28-1.137.297-.543.805-.875.525-.333 1.102-.455.595-.123 1.19-.123.7 0 1.383.193.7.192 1.225.7.525.507.735 1.172l-1.313.42q-.14-.402-.455-.7-.315-.297-.735-.402-.402-.123-.84-.123-.437 0-.875.105-.437.105-.77.455-.332.333-.332.77 0 .648.56 1.05.577.385 1.207.438.648.035 1.278.175.63.122 1.155.507t.805.98q.28.578.28 1.225 0 .595-.298 1.138-.28.542-.805.875-.507.332-1.102.455-.578.122-1.173.122zM171.492 60.352q-.647 0-1.26-.28-.595-.28-.98-.805-.367-.542-.525-1.172-.14-.63-.14-1.278v-4.62h-1.907v-1.26h1.907V47.35h1.4v3.587h2.818v1.26h-2.818v4.62q0 .508.105 1.015.123.49.508.875t.892.385q.438 0 .788-.297.367-.298.507-.718.158-.42.193-.875l1.365.298q-.053.56-.263 1.085-.21.525-.595.945-.385.42-.927.63-.525.192-1.068.192zM178.475 60.352q-.543 0-1.068-.227-.525-.228-.892-.648-.35-.437-.56-.945-.21-.525-.298-1.067-.07-.543-.07-1.103v-5.425h1.4v5.425q0 .473.088.945.087.455.315.875.227.403.63.665.42.245.892.245.473 0 .875-.245.42-.262.648-.665.227-.42.315-.875.087-.472.087-.945v-5.425h1.4v9.275h-1.4v-1.33q-.175.315-.402.595-.368.42-.893.648-.507.227-1.067.227zM186.857 60.212q-2.52-5.827-2.52-8.347v-.928h1.4v.928q0 2.257 1.925 7.35l.035-.088q1.89-5.022 1.89-7.262v-.928h1.4v.928q0 2.52-2.52 8.347h-1.61zM194.4 60.212q-1.313-4.847-1.313-6.965v-2.31h1.4v2.31q0 1.82.455 5.67l.98-4.27h.98l.98 4.27q.455-3.85.455-5.67v-2.31h1.4v2.31q0 2.118-1.312 6.965h-.963l-1.05-4.585-1.05 4.585h-.962zM201.837 60.212v-.087q0-.368.14-.683.158-.332.315-.647.158-.315.333-.613.192-.315.385-.612l1.347-1.995-1.347-1.995-.385-.595q-.175-.315-.333-.63l-.315-.63q-.14-.333-.14-.7v-.088h1.4v.088q0 .262.105.507.123.245.245.473l.28.455q.158.21.298.42l.997 1.487.998-1.487.28-.42q.157-.228.28-.455.14-.228.245-.473.122-.245.122-.507v-.088h1.4v.088q0 .367-.157.7-.14.315-.298.63-.157.315-.35.63-.175.297-.367.595l-1.348 1.995 1.348 1.995q.192.297.367.612.193.298.35.613.158.315.298.647.157.315.157.683v.087h-1.4v-.087q0-.263-.122-.508-.105-.245-.245-.472-.123-.228-.28-.438-.14-.227-.28-.437l-.998-1.488-.997 1.488q-.14.21-.298.437-.14.21-.28.438-.122.227-.245.472-.105.245-.105.508v.087h-1.4zM212.337 63.8v-.123q0-1.05.21-1.662l.648-1.89-2.013-5.67q-.595-1.698-.595-2.87v-.648h1.4v.648q0 .91.525 2.45l1.383 4.095 1.417-4.095q.525-1.505.525-2.45v-.648h1.4v.648q0 1.137-.595 2.87l-2.765 7.98q-.14.385-.14 1.242v.123h-1.4zM219.337 60.212v-1.26l4.97-6.755h-4.97v-1.26h6.65v1.26l-4.97 6.755h4.97v1.26h-6.65zM.587 82.087v-1.295q0-3.482 2.52-11.567h1.61q2.52 8.085 2.52 11.567v1.295h-1.4v-1.295q0-.875-.157-2.082H2.145q-.158 1.207-.158 2.082v1.295h-1.4zM2.32 77.45h3.185q-.473-2.818-1.593-6.965-1.12 4.147-1.592 6.965zM9.337 82.087V69.225H12.4q.665 0 1.295.227.63.228 1.067.735.455.49.648 1.12.192.63.192 1.295 0 .63-.21 1.243-.192.612-.665 1.05-.297.28-.665.455.543.21.998.577.542.455.805 1.138.262.682.262 1.382 0 .735-.245 1.453-.245.7-.787 1.225-.543.507-1.26.735-.7.227-1.435.227H9.337zm1.4-1.26H12.4q.472 0 .927-.157.455-.158.788-.508.332-.35.472-.805.14-.455.14-.927 0-.473-.14-.928-.14-.455-.472-.805-.333-.35-.788-.507-.455-.158-.927-.158h-1.663v4.795zm0-6.055H12.4q.402 0 .77-.157.367-.175.595-.49.245-.333.332-.718.105-.385.105-.77 0-.402-.105-.787-.087-.403-.332-.718-.228-.315-.595-.472-.368-.175-.77-.175h-1.663v4.287zM21.412 82.227q-.7 0-1.382-.227-.665-.228-1.173-.735-.49-.525-.7-1.208-.21-.682-.21-1.382v-6.038q0-.7.21-1.382.21-.683.7-1.19.508-.525 1.173-.753.682-.227 1.382-.227.823 0 1.593.332.77.315 1.242 1.015.473.7.578 1.505l-1.365.245q-.07-.49-.35-.945-.263-.455-.735-.665-.455-.227-.963-.227-.437 0-.857.175-.403.157-.7.507-.28.333-.403.753-.105.42-.105.857v6.038q0 .437.105.857.123.42.403.77.297.333.7.508.42.157.857.157.508 0 .963-.21.472-.227.735-.682.28-.455.35-.945l1.365.245q-.088.612-.368 1.172-.28.543-.77.945-.472.385-1.067.56-.595.175-1.208.175zM26.837 82.087V69.225h2.888q.682 0 1.33.227.665.21 1.172.683.525.455.823 1.067.315.613.437 1.278.14.665.14 1.347v3.658q0 .682-.14 1.347-.122.665-.437 1.278-.298.612-.823 1.085-.507.455-1.172.682-.648.21-1.33.21h-2.888zm1.4-1.26h1.488q.595 0 1.12-.28.525-.297.822-.805.315-.525.438-1.102.122-.578.122-1.155v-3.658q0-.577-.122-1.155-.123-.577-.438-1.085-.297-.525-.822-.805-.525-.297-1.12-.297h-1.488v10.342zM36.112 82.087V69.225h6.125v1.26h-4.725v4.025h3.728v1.26h-3.728v5.057h4.725v1.26h-6.125zM44.862 82.087V69.225h6.125v1.26h-4.725v4.025h3.728v1.26h-3.728v6.317h-1.4zM56.395 82.227q-.7 0-1.365-.227-.665-.245-1.173-.753-.49-.525-.7-1.19-.21-.682-.21-1.382v-6.038q0-.7.21-1.382.21-.683.7-1.19.508-.525 1.173-.753.682-.227 1.382-.227.823 0 1.593.332.77.315 1.242 1.015.473.7.578 1.505l-1.365.245q-.07-.49-.35-.945-.263-.455-.735-.665-.455-.227-.963-.227-.437 0-.857.175-.403.157-.7.507-.28.333-.403.753-.105.42-.105.857v6.038q0 .437.105.857.123.42.403.77.28.333.682.508.42.157.858.157.42 0 .822-.175.403-.175.648-.507.262-.35.367-.77.105-.42.105-.84v-2.328h-1.925v-1.26h3.325v3.588q0 .682-.192 1.365-.193.665-.665 1.19-.473.525-1.138.77-.647.227-1.347.227zM61.837 82.087V69.225h1.4v5.477h3.85v-5.477h1.4v12.862h-1.4v-6.125h-3.85v6.125h-1.4zM71.462 82.087v-1.26h1.75V70.485h-1.75v-1.26h4.9v1.26h-1.75v10.342h1.75v1.26h-4.9zM82.242 82.227q-.595 0-1.172-.175-.578-.175-1.033-.577-.455-.42-.717-.963-.263-.542-.333-1.137l1.365-.263q.053.49.28.928.245.437.683.682.437.245.927.245.42 0 .805-.175.403-.175.648-.525.262-.35.35-.752.105-.42.105-.84v-8.19h-2.363v-1.26h3.763v9.45q0 .682-.193 1.347-.192.665-.665 1.19-.455.525-1.12.77-.647.245-1.33.245zM88.087 82.087V69.225h1.4v5.95q.175-.193.35-.403.368-.402.718-.822.35-.438.682-.875.333-.438.648-.893t.595-.927q.28-.473.525-.963.262-.507.262-1.067h1.47q0 .612-.28 1.19-.28.56-.577 1.085-.298.525-.648 1.032-.35.508-.717.998l-.42.56q2.782 5.967 2.782 7.997h-1.4q0-1.785-2.345-6.825l-.14.193-.805.91q-.35.385-.7.752v4.97h-1.4zM97.362 82.087V69.225h1.4v11.602h4.865v1.26h-6.265zM105.587 82.087V69.225h1.54l1.785 6.965 1.785-6.965h1.54v12.862h-1.4v-2.572q0-.7.018-1.4v-.175q0-.385.017-.788v-.175l.07-1.47.018-.175q0-.262.017-.525l.018-.175.017-.262q.018-.385.053-.788v-.175l.017-.262v-.175q.035-.648.053-1.313l-1.698 6.563h-1.05l-1.697-6.563q.017.665.052 1.313v.175l.018.175v.262q.035.403.052.788l.018.262.017.175q.018.263.018.525l.017.175.07 1.47v.175q.018.403.018.788v.175q.017.7.017 1.4v2.572h-1.4zM114.337 82.087V69.225h1.943l3.36 10.517v-.91l-.018-.175V77.8l-.017-.175v-.77q-.018-1.19-.018-2.398v-5.232h1.4v12.862h-1.942l-3.36-10.517v.91l.017.175v.857l.018.175v.77q.017 1.19.017 2.398v5.232h-1.4zM126.412 82.227q-.7 0-1.382-.227-.665-.228-1.173-.735-.49-.525-.7-1.208-.21-.682-.21-1.382v-6.038q0-.7.21-1.382.21-.683.7-1.19.508-.525 1.173-.753.682-.227 1.382-.227.7 0 1.365.227.683.228 1.173.753.507.507.717 1.19.21.682.21 1.382v6.038q0 .7-.21 1.382-.21.683-.717 1.208-.49.507-1.173.735-.665.227-1.365.227zm0-1.26q.438 0 .84-.157.42-.175.7-.508.298-.35.403-.77.122-.42.122-.857v-6.038q0-.437-.122-.857-.105-.42-.403-.753-.28-.35-.7-.507-.402-.175-.84-.175-.437 0-.857.175-.403.157-.7.507-.28.333-.403.753-.105.42-.105.857v6.038q0 .437.105.857.123.42.403.77.297.333.7.508.42.157.857.157zM132.1 82.087V69.225h3.08q.717 0 1.4.245.682.245 1.155.787.49.543.682 1.243.21.682.21 1.4 0 .7-.21 1.4-.192.682-.682 1.225-.473.542-1.155.805-.683.245-1.4.245h-1.68v5.512h-1.4zm3.08-6.772q.455 0 .857-.175.42-.193.7-.56.28-.368.385-.805.105-.438.105-.875 0-.455-.105-.893-.105-.437-.385-.787-.28-.368-.7-.543-.402-.192-.857-.192h-1.68v4.83h1.68zM146.135 84.8q-.56 0-1.103-.175-.525-.158-.945-.543-.42-.367-.612-.91-.175-.49-.193-.997-.385-.053-.752-.175-.665-.228-1.173-.735-.49-.525-.7-1.208-.21-.682-.21-1.382v-6.038q0-.7.21-1.382.21-.683.7-1.19.508-.525 1.173-.753.682-.227 1.382-.227.7 0 1.365.227.683.228 1.173.753.507.507.717 1.19.21.682.21 1.382v6.038q0 .7-.21 1.382-.21.683-.717 1.208-.49.507-1.155.735-.298.105-.613.157.018.35.175.683.175.35.525.525.368.175.753.175h.752v1.26h-.752zm-2.223-3.833q.438 0 .84-.157.42-.175.7-.508.298-.35.403-.77.122-.42.122-.857v-6.038q0-.437-.122-.857-.105-.42-.403-.753-.28-.35-.7-.507-.402-.175-.84-.175-.437 0-.857.175-.403.157-.7.507-.28.333-.403.753-.105.42-.105.857v6.038q0 .437.105.857.123.42.403.77.297.333.7.508.42.157.857.157zM149.337 82.087V69.225h3.343q.717 0 1.4.245.682.245 1.155.787.49.543.682 1.243.21.682.21 1.4 0 .7-.21 1.4-.192.682-.682 1.225-.473.542-1.155.787-.123.053-.245.088 2.292 3.342 2.292 5.687h-1.4q0-2.24-2.432-5.512h-1.558v5.512h-1.4zm3.343-6.772q.455 0 .857-.175.42-.193.7-.56.28-.368.385-.805.105-.438.105-.875 0-.455-.105-.893-.105-.437-.385-.787-.28-.368-.7-.543-.402-.192-.857-.192h-1.943v4.83h1.943zM161.36 82.227q-.823 0-1.61-.297-.77-.298-1.26-.998t-.49-1.54v-.017l1.382-.193v.123q0 .49.28.91.298.402.753.577.455.175.945.175.525 0 .997-.227.49-.228.735-.7.245-.49.245-1.015 0-.893-.665-1.575-.665-.7-1.47-1.103-.787-.42-1.522-.962-.718-.543-1.155-1.348-.438-.822-.438-1.732 0-.648.245-1.278t.718-1.085q.49-.455 1.12-.647.647-.21 1.295-.21.822 0 1.592.297.788.298 1.278.998t.49 1.54v.017l-1.383.193v-.123q0-.49-.297-.892-.28-.42-.735-.595-.455-.175-.945-.175-.525 0-1.015.227-.473.228-.718.718-.245.472-.245.997 0 .893.665 1.593.665.682 1.453 1.102.805.403 1.522.945.735.543 1.173 1.365.437.805.437 1.715 0 .648-.245 1.278t-.735 1.085q-.472.455-1.12.665-.63.192-1.277.192zM169.462 82.087V70.485h-2.625v-1.26h6.65v1.26h-2.625v11.602h-1.4zM178.912 82.227q-.682 0-1.347-.245-.648-.245-1.12-.752-.473-.525-.665-1.19-.193-.683-.193-1.365v-9.45h1.4v9.45q0 .42.105.84.105.402.35.752.263.35.648.525.402.175.822.175.42 0 .805-.175.403-.175.648-.525.262-.35.367-.752.105-.42.105-.84v-9.45h1.4v9.45q0 .682-.192 1.365-.193.665-.665 1.19-.473.507-1.138.752-.647.245-1.33.245zM186.857 82.087q-2.52-8.085-2.52-11.585v-1.277h1.4v1.277q0 3.203 1.925 10.325 1.925-7.122 1.925-10.325v-1.277h1.4v1.277q0 3.5-2.52 11.585h-1.61zM194.4 82.087q-1.313-6.72-1.313-9.642v-3.22h1.4v3.22q0 2.52.455 7.892l.98-5.967h.98l.98 5.967q.455-5.372.455-7.892v-3.22h1.4v3.22q0 2.922-1.312 9.642h-.963l-1.05-6.387-1.05 6.387h-.962zM201.837 82.087v-.647q0-1.785 1.155-3.623l1.365-2.17-1.365-2.152q-1.155-1.838-1.155-3.623v-.647h1.4v.647q0 1.453.945 2.94l.98 1.558.98-1.558q.945-1.487.945-2.94v-.647h1.4v.647q0 1.785-1.155 3.623l-1.365 2.152 1.365 2.17q1.155 1.838 1.155 3.623v.647h-1.4v-.647q0-1.453-.945-2.94l-.98-1.558-.98 1.558q-.945 1.487-.945 2.94v.647h-1.4zM213.212 82.087v-5.022l-1.487-2.835q-1.138-2.153-1.138-4.235v-.77h1.4v.77q0 1.802.963 3.657l.962 1.838.963-1.838q.962-1.855.962-3.657v-.77h1.4v.77q0 2.082-1.137 4.235l-1.488 2.835v5.022h-1.4zM219.337 82.087v-1.26l5.04-10.342h-5.04v-1.26h6.65v1.26l-5.04 10.342h5.04v1.26h-6.65zM3.912 104.102q-.752 0-1.452-.297-.7-.298-1.173-.893-.455-.595-.647-1.312-.193-.735-.193-1.488v-1.575q0-.752.193-1.47.192-.735.647-1.33.473-.595 1.173-.892.7-.298 1.452-.298.753 0 1.453.298.7.297 1.155.892.472.595.665 1.33.192.718.192 1.47v1.575q0 .753-.192 1.488-.193.717-.665 1.312-.455.595-1.155.893-.7.297-1.453.297zm0-1.26q.49 0 .91-.227.438-.245.7-.648.263-.42.35-.892.105-.473.105-.963v-1.575q0-.49-.105-.962-.087-.473-.35-.875-.262-.42-.7-.648-.42-.245-.91-.245-.49 0-.927.245-.42.228-.683.648-.262.402-.367.875-.088.472-.088.962v1.575q0 .49.088.963.105.472.367.892.263.403.683.648.437.227.927.227zM12.662 104.102q-.7 0-1.382-.227-.665-.228-1.173-.735-.49-.525-.7-1.208-.21-.682-.21-1.382v-6.038q0-.7.21-1.382.21-.683.7-1.19.508-.525 1.173-.753.682-.227 1.382-.227.7 0 1.365.227.683.228 1.173.753.507.507.717 1.19.21.682.21 1.382v6.038q0 .7-.21 1.382-.21.683-.717 1.208-.49.507-1.173.735-.665.227-1.365.227zm0-1.26q.438 0 .84-.157.42-.175.7-.508.298-.35.403-.77.122-.42.122-.857v-6.038q0-.437-.122-.857-.105-.42-.403-.753-.28-.35-.7-.507-.402-.175-.84-.175-.437 0-.857.175-.403.157-.7.507-.28.333-.403.753-.105.42-.105.857v6.038q0 .437.105.857.123.42.403.77.297.333.7.508.42.157.857.157zM21.412 104.102q-.752 0-1.452-.297-.7-.298-1.173-.893-.455-.595-.647-1.312-.193-.735-.193-1.488V94.95q0-.753.193-1.47.192-.735.647-1.33.473-.595 1.173-.893.7-.297 1.452-.297.753 0 1.453.297.7.298 1.155.893.472.595.665 1.33.192.717.192 1.47v5.162q0 .753-.192 1.488-.193.717-.665 1.312-.455.595-1.155.893-.7.297-1.453.297zm0-1.26q.49 0 .91-.227.438-.245.7-.648.263-.42.35-.892.105-.473.105-.963v-4.13l-4.007 5.163q.105.437.332.822.263.403.683.648.437.227.927.227zm-2.065-3.762l4.008-5.163q-.105-.437-.333-.822-.262-.403-.7-.63-.42-.245-.91-.245-.49 0-.927.245-.42.227-.683.647-.262.403-.367.875-.088.473-.088.963v4.13zM30.162 104.102q-.665 0-1.312-.175-.63-.192-1.138-.63-.507-.455-.77-1.067-.245-.63-.245-1.295 0-.91.473-1.733.472-.822 1.19-1.365.315-.245.647-.472-.175-.123-.367-.263-.718-.56-1.19-1.365-.473-.822-.473-1.732 0-.63.21-1.208.228-.595.683-1.032.472-.438 1.067-.613.613-.192 1.225-.192.613 0 1.208.192.612.175 1.067.613.473.437.683 1.032.227.578.227 1.208 0 .91-.472 1.732-.473.805-1.19 1.365-.193.14-.368.263.333.227.648.472.717.543 1.19 1.365.472.823.472 1.733 0 .665-.262 1.295-.245.612-.753 1.067-.507.438-1.155.63-.63.175-1.295.175zm0-1.26q.525 0 1.015-.21.508-.21.77-.682.28-.49.28-1.015 0-.91-.647-1.628-.63-.717-1.418-1.19-.787.473-1.435 1.19-.63.718-.63 1.628 0 .525.263 1.015.28.472.77.682.507.21 1.032.21zm0-6.195q.63-.42 1.155-1.015.63-.717.63-1.627 0-.473-.227-.91-.21-.438-.648-.648-.437-.227-.91-.227-.472 0-.91.227-.437.21-.665.648-.21.437-.21.91 0 .91.63 1.627.525.595 1.155 1.015zM44.6 103.962v-1.26h2.485v-6.755h-2.24v-1.26h3.64v8.015h2.24v1.26H44.6zm8.522-10.902q-.297 0-.577-.123-.263-.122-.403-.385-.122-.28-.105-.577-.017-.298.105-.56.14-.28.403-.403.28-.14.577-.14.298 0 .56.14.28.123.403.403.122.262.14.56-.018.297-.14.577-.123.263-.403.385-.262.123-.56.123z"/><path d="M53.962 103.962v-1.26h1.75V92.36h-1.75V91.1h4.9v1.26h-1.75v10.342h1.75v1.26h-4.9zM62.1 103.962v-1.26h2.485V92.36h-2.24V91.1h3.64v11.602h2.24v1.26H62.1zM71.112 103.962V91.1h1.4v11.602h4.865v1.26h-6.265zM82.487 103.962V92.675l-2.24 1.505-.77-1.05 3.01-2.03h1.4v12.862h-1.4zM103.155 107.095q-.613 0-1.225-.105-.595-.105-1.155-.35t-1.015-.683q-.455-.42-.683-.997-.21-.578-.21-1.19 0-.613.175-1.19.193-.595.455-1.155.263-.578.263-1.19 0-.455-.21-.875-.21-.438-.613-.7-.385-.263-.84-.35-.455-.105-.927-.105v-1.26q.472 0 .927-.088.455-.105.84-.367.403-.263.613-.683.21-.437.21-.892 0-.613-.263-1.173-.262-.577-.455-1.155-.175-.595-.175-1.207 0-.613.21-1.19.228-.578.683-.998.455-.437 1.015-.682.56-.245 1.155-.35.612-.105 1.225-.105v1.26q-.49 0-.998.105-.49.087-.927.332-.438.245-.7.7-.263.438-.263.928 0 .612.263 1.19.262.56.437 1.155.193.577.193 1.19 0 .735-.315 1.417-.298.665-.91 1.103l-.21.14.21.14q.612.437.91 1.12.315.665.315 1.4 0 .612-.193 1.207-.175.578-.437 1.155-.263.56-.263 1.173 0 .49.263.927.262.455.7.7.437.245.927.333.508.105.998.105v1.26zM105.92 107.095v-1.26q.49 0 .98-.105.507-.088.945-.333.437-.245.7-.7.262-.437.262-.927 0-.613-.262-1.173-.263-.577-.455-1.155-.175-.595-.175-1.207 0-.735.297-1.4.315-.683.928-1.12l.21-.14-.21-.14q-.613-.438-.928-1.103-.297-.682-.297-1.417 0-.613.175-1.19.192-.595.455-1.155.262-.578.262-1.19 0-.49-.262-.928-.263-.455-.7-.7-.438-.245-.945-.332-.49-.105-.98-.105v-1.26q.612 0 1.207.105.613.105 1.173.35t1.015.682q.455.42.665.998.227.577.227 1.19 0 .612-.192 1.207-.175.578-.438 1.155-.262.56-.262 1.173 0 .455.21.892.21.42.595.683.402.262.857.367.455.088.928.088v1.26q-.473 0-.928.105-.455.087-.857.35-.385.262-.595.7-.21.42-.21.875 0 .612.262 1.19.263.56.438 1.155.192.577.192 1.19 0 .612-.227 1.19-.21.577-.665.997-.455.438-1.015.683-.56.245-1.173.35-.595.105-1.207.105zM123.752 106.902V88.247h5.653v1.26h-4.253v16.135h4.253v1.26h-5.653zM132.17 106.902v-1.26h4.252V89.507h-4.252v-1.26h5.652v18.655h-5.652zM152.662 107.69q-.647 0-1.295-.158-.647-.14-1.207-.525-.543-.385-.84-.997-.28-.595-.28-1.26 0-.578.227-1.103.245-.542.718-.875l.07-.052q-.158-.158-.263-.333-.245-.42-.245-.892 0-.595.368-1.085.157-.228.35-.385l-.123-.123q-.49-.42-.717-1.032-.228-.613-.228-1.243 0-.647.228-1.242.227-.613.717-1.033.49-.437 1.103-.612.63-.193 1.26-.193.56 0 1.102.14h2.783v1.26l-1.033-.035q.14.21.228.455.227.613.227 1.26 0 .63-.227 1.243-.228.612-.718 1.05-.49.42-1.12.595-.612.175-1.242.175-.613 0-1.225-.158-.158.088-.298.228-.192.227-.192.507 0 .315.245.543.245.227.56.28.262.035.542.035h.963q.577 0 1.155.14.577.14 1.067.49.49.332.735.892.263.543.263 1.12 0 .665-.315 1.26-.298.613-.858.98-.542.385-1.19.525-.63.158-1.295.158zm0-1.26q.525 0 1.033-.158.507-.14.857-.56.368-.42.368-.927 0-.333-.158-.63-.157-.298-.437-.455-.28-.175-.595-.245-.315-.07-.63-.07H152.085q-.368.017-.735.14-.403.122-.665.472-.245.35-.245.753 0 .525.332.945.35.437.858.577.507.158 1.032.158zm-.472-3.045H152.137h.053zm.315-3.955q.49 0 .962-.193.473-.21.7-.665.245-.455.245-.945 0-.507-.245-.962-.227-.455-.7-.648-.385-.175-.787-.21h-.175q-.49 0-.963.21-.472.193-.717.648-.228.455-.228.962 0 .49.228.945.245.455.717.665.473.193.963.193zM161.342 104.102q-.595 0-1.172-.192-.578-.21-1.015-.613-.438-.42-.735-.945-.28-.525-.42-1.102l1.26-.56q.105.525.35 1.032.245.49.717.805.473.315 1.015.315.56 0 1.015-.332.473-.35.7-.858.245-.525.333-1.067.087-.56.087-1.12v-1.348q-.087.14-.192.263-.35.437-.875.665-.508.227-1.05.227-.735 0-1.435-.297-.683-.315-1.155-.91-.455-.613-.648-1.33-.175-.718-.175-1.453v-.332q0-.753.193-1.47.192-.735.647-1.33.473-.595 1.173-.893.7-.297 1.452-.297.753 0 1.47.315.718.315 1.173.945.455.63.63 1.382.192.753.192 1.505v4.358q0 .647-.105 1.312-.105.648-.367 1.26-.263.595-.718 1.085-.455.49-1.085.735-.612.245-1.26.245zm.053-6.09q.49 0 .927-.227.438-.245.683-.648.262-.42.367-.892.105-.49.105-.963v-.192q0-.49-.105-.98-.087-.49-.332-.928-.245-.437-.7-.7-.438-.262-.928-.262-.49 0-.927.245-.438.227-.7.647-.245.403-.35.893-.088.472-.088.945v.332q0 .473.088.945.105.473.35.893.262.42.7.665.437.227.91.227zM172.087 107.55v-4.918q-.175.315-.402.595-.368.438-.893.665-.525.21-1.067.21-.718 0-1.348-.332-.63-.35-1.015-.963-.367-.612-.525-1.295-.14-.7-.14-1.4v-1.575q0-.7.14-1.382.158-.7.525-1.313.385-.612 1.015-.945.63-.35 1.348-.35.542 0 1.067.228.525.21.893.647.227.28.402.595v-1.33h1.4v12.863h-1.4zm-1.942-4.708q.472 0 .892-.245.42-.245.648-.665.227-.42.315-.875.087-.472.087-.945v-1.575q0-.472-.087-.927-.088-.473-.315-.893-.228-.42-.648-.665-.42-.245-.892-.245-.473 0-.91.245-.438.228-.7.648-.245.42-.35.892-.088.473-.088.945v1.575q0 .473.088.945.105.473.35.893.262.42.7.665.437.227.91.227zm2.467-2.642v-.07.07zM178.912 104.102q-.7 0-1.382-.227-.665-.228-1.173-.735-.49-.525-.7-1.208-.21-.682-.21-1.382v-6.038q0-.7.21-1.382.21-.683.7-1.19.508-.525 1.173-.753.682-.227 1.382-.227.823 0 1.593.332.77.315 1.242 1.015.473.7.578 1.505l-1.365.245q-.07-.49-.35-.945-.263-.455-.735-.665-.455-.227-.963-.227-.437 0-.857.175-.403.157-.7.507-.28.333-.403.753-.105.42-.105.857v6.038q0 .437.105.857.123.42.403.77.297.333.7.508.42.157.857.157.508 0 .963-.21.472-.227.735-.682.28-.455.35-.945l1.365.245q-.088.612-.368 1.172-.28.543-.77.945-.472.385-1.067.56-.595.175-1.208.175zM187.645 104.102q-.7 0-1.365-.227-.665-.245-1.173-.753-.49-.525-.7-1.19-.21-.682-.21-1.382v-6.038q0-.7.21-1.382.21-.683.7-1.19.508-.525 1.173-.753.682-.227 1.382-.227.823 0 1.593.332.77.315 1.242 1.015.473.7.578 1.505l-1.365.245q-.07-.49-.35-.945-.263-.455-.735-.665-.455-.227-.963-.227-.437 0-.857.175-.403.157-.7.507-.28.333-.403.753-.105.42-.105.857v6.038q0 .437.105.857.123.42.403.77.28.333.682.508.42.157.858.157.42 0 .822-.175.403-.175.648-.507.262-.35.367-.77.105-.42.105-.84v-2.328h-1.925v-1.26h3.325v3.588q0 .682-.192 1.365-.193.665-.665 1.19-.473.525-1.138.77-.647.227-1.347.227zM198.635 106.675q-.56 0-1.103-.175-.525-.158-.945-.543-.42-.367-.612-.91-.175-.49-.193-.997-.385-.053-.752-.175-.665-.228-1.173-.735-.49-.525-.7-1.208-.21-.682-.21-1.382v-6.038q0-.7.21-1.382.21-.683.7-1.19.508-.525 1.173-.753.682-.227 1.382-.227.7 0 1.365.227.683.228 1.173.753.507.507.717 1.19.21.682.21 1.382v6.038q0 .7-.21 1.382-.21.683-.717 1.208-.49.507-1.155.735-.298.105-.613.157.018.35.175.683.175.35.525.525.368.175.753.175h.752v1.26h-.752zm-2.223-3.833q.438 0 .84-.157.42-.175.7-.508.298-.35.403-.77.122-.42.122-.857v-6.038q0-.437-.122-.857-.105-.42-.403-.753-.28-.35-.7-.507-.402-.175-.84-.175-.437 0-.857.175-.403.157-.7.507-.28.333-.403.753-.105.42-.105.857v6.038q0 .437.105.857.123.42.403.77.297.333.7.508.42.157.857.157zM215.207 99.727q-.472 0-.857-.315-.385-.332-.648-.735l-.14-.21-.087-.157-.088-.14-.192-.298q-.245-.385-.578-.735 0 .088-.07.088-.087.017-.14.07-.035.052-.087.105l-.07.105-.07.105-.088.122-.07.105-.052.123q-.035.052-.07.122l-.07.105-.053.123-.07.122-.052.123q-.035.052-.053.122l-.07.123q-.017.052-.052.122l-.053.123-.052.122-.053.123-.052.122q-.018.053-.053.123-.017.07-.052.122l-1.155-.42q.192-.507.42-.997.245-.508.507-.98.28-.473.7-.858.438-.402.98-.402.473 0 .858.315t.647.717l.14.228.088.14.087.157.193.28q.245.403.577.735 0-.07.07-.087.088 0 .123-.053.052-.07.087-.122.053-.053.088-.105l.07-.105.087-.105q.035-.07.07-.123l.053-.105q.035-.07.07-.122l.07-.123.052-.122.07-.105.018-.053.035-.07q.035-.07.052-.122l.07-.123q.018-.07.053-.122l.052-.123.053-.122.052-.123.053-.122q.017-.07.035-.123l.07-.14 1.155.42q-.193.525-.438 1.015-.227.49-.507.963-.263.472-.7.875-.42.402-.963.402zM227.037 98.205v-1.26h6.65v1.26h-6.65z"/><path d="M230.712 101.232v-3.027h-2.625v-1.26h2.625v-3.028h1.4v3.028h2.625v1.26h-2.625v3.027h-1.4zM236.837 100.077v-1.26h12.075v1.26h-12.075zm0-3.745v-1.26h12.075v1.26h-12.075z"/><path d="M245.937 101.845l-.7-1.085 5.705-3.185-5.705-3.185.7-1.085 6.3 3.552v1.435l-6.3 3.553z"/></g></g></svg>