<?xml version="1.0" encoding="UTF-8" standalone="no"?>
<!-- Created with Inkscape (http://www.inkscape.org/) -->

<svg
   xmlns:dc="http://purl.org/dc/elements/1.1/"
   xmlns:cc="http://creativecommons.org/ns#"
   xmlns:rdf="http://www.w3.org/1999/02/22-rdf-syntax-ns#"
   xmlns:svg="http://www.w3.org/2000/svg"
   xmlns="http://www.w3.org/2000/svg"
   xmlns:sodipodi="http://sodipodi.sourceforge.net/DTD/sodipodi-0.dtd"
   xmlns:inkscape="http://www.inkscape.org/namespaces/inkscape"
   width="106.1053mm"
   height="30.388275mm"
   viewBox="0 0 375.96366 107.67499"
   id="svg2"
   version="1.1"
   inkscape:version="0.91 r13725"
   sodipodi:docname="JetBrainsMono Nerd Font.svg">
  <defs
     id="defs4" />
  <sodipodi:namedview
     id="base"
     pagecolor="#ffffff"
     bordercolor="#666666"
     borderopacity="1.0"
     inkscape:pageopacity="0.0"
     inkscape:pageshadow="2"
     inkscape:zoom="0.7"
     inkscape:cx="-54.094647"
     inkscape:cy="-401.93394"
     inkscape:document-units="px"
     inkscape:current-layer="layer1"
     showgrid="false"
     inkscape:window-width="1861"
     inkscape:window-height="1056"
     inkscape:window-x="59"
     inkscape:window-y="24"
     inkscape:window-maximized="1" />
  <metadata
     id="metadata7">
    <rdf:RDF>
      <cc:Work
         rdf:about="">
        <dc:format>image/svg+xml</dc:format>
        <dc:type
           rdf:resource="http://purl.org/dc/dcmitype/StillImage" />
        <dc:title />
      </cc:Work>
    </rdf:RDF>
  </metadata>
  <g
     inkscape:label="Layer 1"
     inkscape:groupmode="layer"
     id="layer1"
     transform="translate(-64.094643,-79.896132)">
    <g
       style="font-style:normal;font-weight:normal;font-size:27.5px;line-height:125%;font-family:'JetBrainsMono Nerd Font';text-decoration: underline;text-decoration-line: underline;letter-spacing:0px;word-spacing:0px;fill:#ffffff;fill-opacity:1;stroke:none;stroke-width:1px;stroke-linecap:butt;stroke-linejoin:miter;stroke-opacity:1"
       id="text4136">
      <path
         d="m 70.282143,99.008632 q 1.76,0 2.805,-0.99 1.045,-1.0175 1.045,-2.7225 l 0,-11.9625 -7.7,0 0,-2.2 10.175,0 0,14.1625 q 0,1.3475 -0.44,2.4475 -0.44,1.1 -1.265,1.87 -0.825,0.769998 -2.0075,1.182498 -1.155,0.4125 -2.6125,0.4125 -1.21,0 -2.255,-0.3575 -1.045,-0.3575 -1.87,-1.017498 -0.7975,-0.6875 -1.3475,-1.6225 -0.5225,-0.935 -0.715,-2.09 l 2.475,0 q 0.2475,1.32 1.265,2.1175 1.0175,0.77 2.4475,0.77 z"
         id="path4140"
         inkscape:connector-curvature="0" />
      <path
         d="m 87.596401,101.20863 q -2.8325,0 -4.455,-1.539998 -1.595,-1.54 -1.595,-4.235 l 0,-4.125 q 0,-2.695 1.595,-4.235 1.6225,-1.54 4.455,-1.54 2.8325,0 4.4275,1.54 1.6225,1.54 1.6225,4.235 l 0,2.7775 -9.625,0 0,1.21 q 0,1.7325 0.935,2.7225 0.9625,0.99 2.64,0.99 1.2375,0 2.145,-0.385 0.9075,-0.385 1.3475,-1.1275 l 2.475,0 q -0.4675,1.7325 -2.09,2.722498 -1.595,0.99 -3.8775,0.99 z m 3.575,-9.184998 0,-0.715 q 0,-1.705 -0.935,-2.64 -0.935,-0.935 -2.64,-0.935 -1.705,0 -2.64,0.935 -0.935,0.935 -0.935,2.64 l 0,0.715 7.15,0 z"
         id="path4142"
         inkscape:connector-curvature="0" />
      <path
         d="m 97.485659,85.808632 4.400001,0 0,-4.675 2.475,0 0,4.675 5.9125,0 0,2.255 -5.9125,0 0,8.965 q 0,0.77 0.4675,1.21 0.495,0.44 1.32,0.44 l 3.85,0 0,2.254998 -3.85,0 q -1.9525,0 -3.1075,-1.072498 -1.155,-1.0725 -1.155,-2.8325 l 0,-8.965 -4.400001,0 0,-2.255 z"
         id="path4144"
         inkscape:connector-curvature="0" />
      <path
         d="m 120.60242,81.133632 q 2.805,0 4.4,1.4025 1.595,1.4025 1.595,3.8225 0,1.76 -1.0175,2.8875 -0.99,1.1 -2.64,1.2375 l 0,0.165 q 1.8975,0.11 2.9425,1.3475 1.0725,1.2375 1.0725,3.355 0,1.2925 -0.4125,2.3375 -0.4125,1.0175 -1.21,1.76 -0.77,0.714998 -1.8975,1.099998 -1.1275,0.385 -2.53,0.385 l -6.105,0 0,-19.799998 5.8025,0 z m -3.355,17.545 3.3825,0 q 1.76,0 2.7225,-0.9075 0.99,-0.9075 0.99,-2.5025 0,-1.595 -0.99,-2.5025 -0.99,-0.9075 -2.7225,-0.9075 l -3.3825,0 0,6.82 z m 0,-15.29 0,6.325 3.3275,0 q 1.5675,0 2.475,-0.825 0.935,-0.8525 0.935,-2.3375 0,-1.485 -0.9075,-2.31 -0.9075,-0.8525 -2.475,-0.8525 l -3.355,0 z"
         id="path4146"
         inkscape:connector-curvature="0" />
      <path
         d="m 131.89417,85.808632 2.3375,0 0,2.6125 0.22,0 q 0.3575,-1.3475 1.485,-2.1175 1.1275,-0.77 2.7775,-0.77 2.3925,0 3.74,1.5125 1.375,1.485 1.375,4.0975 l 0,0.8525 -2.475,0 0,-0.55 q 0,-1.7875 -0.9075,-2.75 -0.88,-0.99 -2.53,-0.99 -1.6225,0 -2.585,1.0175 -0.9625,0.99 -0.9625,2.7225 l 0,9.487498 -2.475,0 0,-15.124998 z"
         id="path4148"
         inkscape:connector-curvature="0" />
      <path
         d="m 147.03593,96.533632 q 0,-1.0725 0.3575,-1.925 0.385,-0.88 1.0725,-1.485 0.715,-0.605 1.705,-0.935 0.99,-0.33 2.2275,-0.33 l 4.51,0 0,-1.2375 q 0,-1.4025 -0.935,-2.1725 -0.9075,-0.7975 -2.64,-0.7975 -1.265,0 -2.1725,0.4675 -0.88,0.4675 -1.1825,1.2925 l -2.475,0 q 0.385,-1.7875 1.9525,-2.8325 1.595,-1.045 3.9325,-1.045 2.805,0 4.4,1.32 1.595,1.2925 1.595,3.63 l 0,10.449998 -2.255,0 0,-2.887498 -0.22,0 q -0.3575,1.4575 -1.6775,2.309998 -1.32,0.8525 -3.2175,0.8525 -2.2825,0 -3.63,-1.264998 -1.3475,-1.265 -1.3475,-3.41 z m 5.5275,2.64 q 0.935,0 1.7325,-0.2475 0.7975,-0.2475 1.375,-0.6875 0.5775,-0.4675 0.9075,-1.0725 0.33,-0.605 0.33,-1.32 l 0,-2.0625 -4.455,0 q -1.375,0 -2.1725,0.715 -0.77,0.715 -0.77,1.98 0,1.265 0.7975,1.98 0.7975,0.715 2.255,0.715 z"
         id="path4150"
         inkscape:connector-curvature="0" />
      <path
         d="m 164.40519,100.93363 0,-2.254998 5.5,0 0,-10.615 -4.8125,0 0,-2.255 7.2875,0 0,12.87 4.5375,0 0,2.254998 -12.5125,0 z m 6.05,-21.037498 0.55,0 q 0.7975,0 1.2925,0.4675 0.495,0.4675 0.495,1.21 0,0.7425 -0.495,1.1825 -0.495,0.44 -1.2925,0.44 l -0.55,0 q -0.7975,0 -1.2925,-0.4125 -0.495,-0.44 -0.495,-1.21 0,-0.7425 0.495,-1.21 0.495,-0.4675 1.2925,-0.4675 z"
         id="path4152"
         inkscape:connector-curvature="0" />
      <path
         d="m 180.70195,100.93363 0,-15.124998 2.3375,0 0,2.6125 0.22,0 q 0.3575,-1.375 1.43,-2.1175 1.1,-0.77 2.7225,-0.77 1.1275,0 2.035,0.385 0.935,0.385 1.5675,1.1 0.66,0.6875 1.0175,1.6775 0.3575,0.9625 0.3575,2.1725 l 0,10.064998 -2.475,0 0,-9.652498 q 0,-1.7325 -0.88,-2.695 -0.88,-0.9625 -2.4475,-0.9625 -1.5675,0 -2.5025,1.045 -0.9075,1.0175 -0.9075,2.7775 l 0,9.487498 -2.475,0 z"
         id="path4154"
         inkscape:connector-curvature="0" />
      <path
         d="m 202.60871,101.20863 q -2.3925,0 -3.96,-1.0725 -1.54,-1.099998 -1.76,-2.914998 l 2.6125,0 q 0.165,0.7975 1.0175,1.2925 0.8525,0.495 2.09,0.495 l 0.77,0 q 1.485,0 2.31,-0.605 0.825,-0.6325 0.825,-1.6775 0,-1.7875 -2.53,-2.1725 l -2.2825,-0.33 q -2.2275,-0.33 -3.3275,-1.4025 -1.1,-1.0725 -1.1,-2.9975 0,-2.035 1.43,-3.1625 1.4575,-1.1275 4.0425,-1.1275 l 0.77,0 q 1.1,0 2.035,0.275 0.935,0.275 1.65,0.7975 0.715,0.495 1.155,1.21 0.4675,0.6875 0.605,1.54 l -2.6125,0 q -0.165,-0.715 -0.935,-1.155 -0.77,-0.4675 -1.8975,-0.4675 l -0.77,0 q -1.4025,0 -2.2,0.55 -0.77,0.55 -0.77,1.65 0,0.88 0.5225,1.3475 0.55,0.44 1.76,0.605 l 2.2825,0.33 q 2.4475,0.3575 3.5475,1.43 1.1275,1.0725 1.1275,3.0525 0,2.1175 -1.485,3.327498 -1.4575,1.1825 -4.1525,1.1825 l -0.77,0 z"
         id="path4156"
         inkscape:connector-curvature="0" />
      <path
         d="m 213.32296,100.93363 0,-19.799998 3.08,0 2.42,6.71 q 0.1375,0.3025 0.2475,0.715 0.11,0.385 0.1925,0.715 0.11,0.4125 0.22,0.7975 l 0.165,0 q 0.11,-0.385 0.22,-0.7975 0.11,-0.33 0.22,-0.715 0.1375,-0.4125 0.2475,-0.715 l 2.2825,-6.71 3.08,0 0,19.799998 -2.2825,0 0,-13.887498 q 0,-0.44 0,-0.99 0.0275,-0.55 0.0825,-1.0725 0.0275,-0.605 0.055,-1.21 l -0.165,0 q -0.165,0.5775 -0.33,1.1275 -0.1375,0.495 -0.33,1.0725 -0.165,0.5775 -0.33,1.0725 l -1.705,5.0875 -2.31,0 -1.705,-5.0875 q -0.165,-0.5225 -0.3575,-1.1 -0.1925,-0.5775 -0.33,-1.0725 -0.165,-0.5775 -0.33,-1.1275 l -0.1375,0 q 0.0275,0.605 0.055,1.21 0,0.495 0,1.0725 0.0275,0.55 0.0275,1.0175 l 0,13.887498 -2.2825,0 z"
         id="path4158"
         inkscape:connector-curvature="0" />
      <path
         d="m 232.42472,95.296132 q 0,1.7325 0.935,2.7225 0.9625,0.99 2.64,0.99 1.65,0 2.6125,-0.99 0.9625,-0.99 0.9625,-2.7225 l 0,-3.85 q 0,-1.7325 -0.9625,-2.7225 -0.9625,-0.99 -2.6125,-0.99 -1.65,0 -2.6125,0.99 -0.9625,0.99 -0.9625,2.7225 l 0,3.85 z m -2.475,-3.85 q 0,-1.375 0.4125,-2.4475 0.44,-1.1 1.21,-1.87 0.7975,-0.77 1.8975,-1.1825 1.1275,-0.4125 2.53,-0.4125 2.805,0 4.4275,1.5675 1.6225,1.5675 1.6225,4.3175 l 0,3.8775 q 0,1.375 -0.4125,2.475 -0.4125,1.1 -1.21,1.87 -0.77,0.742498 -1.8975,1.154998 -1.1275,0.4125 -2.53,0.4125 -1.4025,0 -2.53,-0.4125 -1.1,-0.4125 -1.8975,-1.182498 -0.77,-0.77 -1.21,-1.87 -0.4125,-1.1 -0.4125,-2.4475 l 0,-3.85 z"
         id="path4160"
         inkscape:connector-curvature="0" />
      <path
         d="m 246.65898,100.93363 0,-15.124998 2.3375,0 0,2.6125 0.22,0 q 0.3575,-1.375 1.43,-2.1175 1.1,-0.77 2.7225,-0.77 1.1275,0 2.035,0.385 0.935,0.385 1.5675,1.1 0.66,0.6875 1.0175,1.6775 0.3575,0.9625 0.3575,2.1725 l 0,10.064998 -2.475,0 0,-9.652498 q 0,-1.7325 -0.88,-2.695 -0.88,-0.9625 -2.4475,-0.9625 -1.5675,0 -2.5025,1.045 -0.9075,1.0175 -0.9075,2.7775 l 0,9.487498 -2.475,0 z"
         id="path4162"
         inkscape:connector-curvature="0" />
      <path
         d="m 265.40324,95.296132 q 0,1.7325 0.935,2.7225 0.9625,0.99 2.64,0.99 1.65,0 2.6125,-0.99 0.9625,-0.99 0.9625,-2.7225 l 0,-3.85 q 0,-1.7325 -0.9625,-2.7225 -0.9625,-0.99 -2.6125,-0.99 -1.65,0 -2.6125,0.99 -0.9625,0.99 -0.9625,2.7225 l 0,3.85 z m -2.475,-3.85 q 0,-1.375 0.4125,-2.4475 0.44,-1.1 1.21,-1.87 0.7975,-0.77 1.8975,-1.1825 1.1275,-0.4125 2.53,-0.4125 2.805,0 4.4275,1.5675 1.6225,1.5675 1.6225,4.3175 l 0,3.8775 q 0,1.375 -0.4125,2.475 -0.4125,1.1 -1.21,1.87 -0.77,0.742498 -1.8975,1.154998 -1.1275,0.4125 -2.53,0.4125 -1.4025,0 -2.53,-0.4125 -1.1,-0.4125 -1.8975,-1.182498 -0.77,-0.77 -1.21,-1.87 -0.4125,-1.1 -0.4125,-2.4475 l 0,-3.85 z"
         id="path4164"
         inkscape:connector-curvature="0" />
      <path
         d="m 296.04425,81.133632 3.135,0 5.2525,13.2825 q 0.22,0.495 0.4125,1.155 0.1925,0.6325 0.33,1.21 0.1925,0.6875 0.3575,1.4025 l 0.22,0 q 0,0 -0.0275,-0.275 -0.0275,-0.3025 -0.0825,-0.7975 -0.055,-0.495 -0.11,-1.1275 -0.0275,-0.66 -0.0275,-1.375 l 0,-13.475 2.365,0 0,19.799998 -3.135,0 -5.17,-13.309998 q -0.22,-0.6325 -0.44,-1.2925 -0.22,-0.66 -0.3575,-1.21 -0.1925,-0.6325 -0.33,-1.265 l -0.22,0 q 0.055,0.44 0.11,0.99 0.0275,0.4675 0.055,1.1275 0.0275,0.6325 0.0275,1.43 l 0,13.529998 -2.365,0 0,-19.799998 z"
         id="path4166"
         inkscape:connector-curvature="0" />
      <path
         d="m 318.44601,101.20863 q -2.8325,0 -4.455,-1.539998 -1.595,-1.54 -1.595,-4.235 l 0,-4.125 q 0,-2.695 1.595,-4.235 1.6225,-1.54 4.455,-1.54 2.8325,0 4.4275,1.54 1.6225,1.54 1.6225,4.235 l 0,2.7775 -9.625,0 0,1.21 q 0,1.7325 0.935,2.7225 0.9625,0.99 2.64,0.99 1.2375,0 2.145,-0.385 0.9075,-0.385 1.3475,-1.1275 l 2.475,0 q -0.4675,1.7325 -2.09,2.722498 -1.595,0.99 -3.8775,0.99 z m 3.575,-9.184998 0,-0.715 q 0,-1.705 -0.935,-2.64 -0.935,-0.935 -2.64,-0.935 -1.705,0 -2.64,0.935 -0.935,0.935 -0.935,2.64 l 0,0.715 7.15,0 z"
         id="path4168"
         inkscape:connector-curvature="0" />
      <path
         d="m 329.76527,85.808632 2.3375,0 0,2.6125 0.22,0 q 0.3575,-1.3475 1.485,-2.1175 1.1275,-0.77 2.7775,-0.77 2.3925,0 3.74,1.5125 1.375,1.485 1.375,4.0975 l 0,0.8525 -2.475,0 0,-0.55 q 0,-1.7875 -0.9075,-2.75 -0.88,-0.99 -2.53,-0.99 -1.6225,0 -2.585,1.0175 -0.9625,0.99 -0.9625,2.7225 l 0,9.487498 -2.475,0 0,-15.124998 z"
         id="path4170"
         inkscape:connector-curvature="0" />
      <path
         d="m 345.37453,91.446132 q 0,-1.375 0.3575,-2.475 0.385,-1.1 1.045,-1.8425 0.66,-0.77 1.595,-1.1825 0.935,-0.4125 2.09,-0.4125 1.6775,0 2.7775,0.77 1.1,0.7425 1.4575,2.1175 l 0.22,0 q -0.0275,-0.4675 -0.055,-0.935 -0.055,-0.4125 -0.0825,-0.8525 0,-0.4675 0,-0.825 l 0,-4.95 2.475,0 0,20.074998 -2.3375,0 0,-2.612498 -0.22,0 q -0.3575,1.375 -1.4575,2.144998 -1.1,0.7425 -2.7775,0.7425 -1.155,0 -2.09,-0.4125 -0.935,-0.4125 -1.595,-1.154998 -0.66,-0.77 -1.045,-1.87 -0.3575,-1.1 -0.3575,-2.475 l 0,-3.85 z m 6.0225,7.6175 q 1.54,0 2.4475,-1.0175 0.935,-1.0175 0.935,-2.75 l 0,-3.85 q 0,-1.7325 -0.935,-2.75 -0.9075,-1.0175 -2.4475,-1.0175 -1.6775,0 -2.6125,0.99 -0.935,0.99 -0.935,2.7775 l 0,3.85 q 0,1.7325 0.935,2.75 0.9625,1.0175 2.6125,1.0175 z"
         id="path4172"
         inkscape:connector-curvature="0" />
      <path
         d="m 378.76554,81.106132 11.825,0 0,2.2 -9.405,0 0,6.4075 8.69,0 0,2.2 -8.635,0 0,9.019998 -2.475,0 0,-19.827498 z"
         id="path4174"
         inkscape:connector-curvature="0" />
      <path
         d="m 397.3173,95.296132 q 0,1.7325 0.935,2.7225 0.9625,0.99 2.64,0.99 1.65,0 2.6125,-0.99 0.9625,-0.99 0.9625,-2.7225 l 0,-3.85 q 0,-1.7325 -0.9625,-2.7225 -0.9625,-0.99 -2.6125,-0.99 -1.65,0 -2.6125,0.99 -0.9625,0.99 -0.9625,2.7225 l 0,3.85 z m -2.475,-3.85 q 0,-1.375 0.4125,-2.4475 0.44,-1.1 1.21,-1.87 0.7975,-0.77 1.8975,-1.1825 1.1275,-0.4125 2.53,-0.4125 2.805,0 4.4275,1.5675 1.6225,1.5675 1.6225,4.3175 l 0,3.8775 q 0,1.375 -0.4125,2.475 -0.4125,1.1 -1.21,1.87 -0.77,0.742498 -1.8975,1.154998 -1.1275,0.4125 -2.53,0.4125 -1.4025,0 -2.53,-0.4125 -1.1,-0.4125 -1.8975,-1.182498 -0.77,-0.77 -1.21,-1.87 -0.4125,-1.1 -0.4125,-2.4475 l 0,-3.85 z"
         id="path4176"
         inkscape:connector-curvature="0" />
      <path
         d="m 411.55156,100.93363 0,-15.124998 2.3375,0 0,2.6125 0.22,0 q 0.3575,-1.375 1.43,-2.1175 1.1,-0.77 2.7225,-0.77 1.1275,0 2.035,0.385 0.935,0.385 1.5675,1.1 0.66,0.6875 1.0175,1.6775 0.3575,0.9625 0.3575,2.1725 l 0,10.064998 -2.475,0 0,-9.652498 q 0,-1.7325 -0.88,-2.695 -0.88,-0.9625 -2.4475,-0.9625 -1.5675,0 -2.5025,1.045 -0.9075,1.0175 -0.9075,2.7775 l 0,9.487498 -2.475,0 z"
         id="path4178"
         inkscape:connector-curvature="0" />
      <path
         d="m 427.27082,85.808632 4.4,0 0,-4.675 2.475,0 0,4.675 5.9125,0 0,2.255 -5.9125,0 0,8.965 q 0,0.77 0.4675,1.21 0.495,0.44 1.32,0.44 l 3.85,0 0,2.254998 -3.85,0 q -1.9525,0 -3.1075,-1.072498 -1.155,-1.0725 -1.155,-2.8325 l 0,-8.965 -4.4,0 0,-2.255 z"
         id="path4180"
         inkscape:connector-curvature="0" />
    </g>
    <g
       style="font-style:normal;font-weight:normal;font-size:27.5px;line-height:125%;font-family:'JetBrainsMono Nerd Font';letter-spacing:0px;word-spacing:0px;fill:#ffffff;fill-opacity:1;stroke:none;stroke-width:1px;stroke-linecap:butt;stroke-linejoin:miter;stroke-opacity:1"
       id="text4140">
      <path
         d="m 66.521903,138.13362 q 0,-0.6825 0.2275,-1.225 0.245,-0.56 0.6825,-0.945 0.455,-0.385 1.085,-0.595 0.63,-0.21 1.4175,-0.21 l 2.87,0 0,-0.7875 q 0,-0.8925 -0.595,-1.3825 -0.5775,-0.5075 -1.68,-0.5075 -0.805,0 -1.3825,0.2975 -0.56,0.2975 -0.7525,0.8225 l -1.575,0 q 0.245,-1.1375 1.2425,-1.8025 1.015,-0.665 2.5025,-0.665 1.785,0 2.8,0.84 1.015,0.8225 1.015,2.31 l 0,6.65 -1.435,0 0,-1.8375 -0.14,0 q -0.2275,0.9275 -1.0675,1.47 -0.84,0.5425 -2.0475,0.5425 -1.4525,0 -2.31,-0.805 -0.8575,-0.805 -0.8575,-2.17 z m 3.5175,1.68 q 0.595,0 1.1025,-0.1575 0.5075,-0.1575 0.875,-0.4375 0.3675,-0.2975 0.5775,-0.6825 0.21,-0.385 0.21,-0.84 l 0,-1.3125 -2.835,0 q -0.875,0 -1.3825,0.455 -0.49,0.455 -0.49,1.26 0,0.805 0.5075,1.26 0.5075,0.455 1.435,0.455 z"
         style="font-size:17.5px"
         id="path4183"
         inkscape:connector-curvature="0" />
      <path
         d="m 77.452567,128.15862 1.575,0 0,2.975 q 0,0.245 -0.0175,0.5775 0,0.315 -0.0175,0.595 -0.035,0.3325 -0.0525,0.665 l 0.14,0 q 0.2275,-0.875 0.9275,-1.3475 0.7,-0.49 1.7675,-0.49 0.735,0 1.33,0.2625 0.595,0.2625 1.015,0.7525 0.42,0.4725 0.6475,1.1725 0.245,0.7 0.245,1.575 l 0,2.45 q 0,0.875 -0.245,1.575 -0.2275,0.7 -0.6475,1.19 -0.42,0.4725 -1.015,0.735 -0.595,0.2625 -1.33,0.2625 -1.0675,0 -1.7675,-0.4725 -0.7,-0.49 -0.9275,-1.365 l -0.14,0 0,1.6625 -1.4875,0 0,-12.775 z m 1.575,9.1875 q 0,1.1025 0.5775,1.75 0.595,0.6475 1.575,0.6475 1.05,0 1.645,-0.6475 0.6125,-0.6475 0.6125,-1.75 l 0,-2.45 q 0,-1.1375 -0.595,-1.7675 -0.595,-0.63 -1.6625,-0.63 -0.98,0 -1.575,0.6475 -0.5775,0.6475 -0.5775,1.75 l 0,2.45 z"
         style="font-size:17.5px"
         id="path4185"
         inkscape:connector-curvature="0" />
      <path
         d="m 91.795731,141.10862 q -0.8925,0 -1.61,-0.2625 -0.7,-0.2625 -1.2075,-0.7525 -0.49,-0.49 -0.77,-1.19 -0.2625,-0.7 -0.2625,-1.5575 l 0,-2.45 q 0,-0.8575 0.2625,-1.5575 0.28,-0.7 0.77,-1.19 0.5075,-0.49 1.2075,-0.7525 0.7175,-0.2625 1.61,-0.2625 1.5925,0 2.6075,0.875 1.0325,0.8575 1.2425,2.3625 l -1.575,0 q -0.1225,-0.84 -0.7525,-1.33 -0.6125,-0.5075 -1.5225,-0.5075 -1.05,0 -1.6625,0.63 -0.6125,0.63 -0.6125,1.7325 l 0,2.45 q 0,1.1025 0.595,1.7325 0.6125,0.63 1.68,0.63 0.91,0 1.5225,-0.49 0.63,-0.5075 0.7525,-1.3475 l 1.575,0 q -0.2275,1.5225 -1.26,2.38 -1.015,0.8575 -2.59,0.8575 z"
         style="font-size:17.5px"
         id="path4187"
         inkscape:connector-curvature="0" />
      <path
         d="m 98.298895,134.89612 q 0,-0.875 0.2275,-1.575 0.245,-0.7 0.665,-1.1725 0.42,-0.49 1.015005,-0.7525 0.595,-0.2625 1.33,-0.2625 1.0675,0 1.7675,0.49 0.7,0.4725 0.9275,1.3475 l 0.14,0 q -0.0175,-0.2975 -0.035,-0.595 -0.035,-0.2625 -0.0525,-0.5425 0,-0.2975 0,-0.525 l 0,-3.15 1.575,0 0,12.775 -1.4875,0 0,-1.6625 -0.14,0 q -0.2275,0.875 -0.9275,1.365 -0.7,0.4725 -1.7675,0.4725 -0.735,0 -1.33,-0.2625 -0.595005,-0.2625 -1.015005,-0.735 -0.42,-0.49 -0.665,-1.19 -0.2275,-0.7 -0.2275,-1.575 l 0,-2.45 z m 3.832505,4.8475 q 0.98,0 1.5575,-0.6475 0.595,-0.6475 0.595,-1.75 l 0,-2.45 q 0,-1.1025 -0.595,-1.75 -0.5775,-0.6475 -1.5575,-0.6475 -1.0675,0 -1.6625,0.63 -0.595005,0.63 -0.595005,1.7675 l 0,2.45 q 0,1.1025 0.595005,1.75 0.6125,0.6475 1.6625,0.6475 z"
         style="font-size:17.5px"
         id="path4189"
         inkscape:connector-curvature="0" />
      <path
         d="m 112.64206,141.10862 q -1.8025,0 -2.835,-0.98 -1.015,-0.98 -1.015,-2.695 l 0,-2.625 q 0,-1.715 1.015,-2.695 1.0325,-0.98 2.835,-0.98 1.8025,0 2.8175,0.98 1.0325,0.98 1.0325,2.695 l 0,1.7675 -6.125,0 0,0.77 q 0,1.1025 0.595,1.7325 0.6125,0.63 1.68,0.63 0.7875,0 1.365,-0.245 0.5775,-0.245 0.8575,-0.7175 l 1.575,0 q -0.2975,1.1025 -1.33,1.7325 -1.015,0.63 -2.4675,0.63 z m 2.275,-5.845 0,-0.455 q 0,-1.085 -0.595,-1.68 -0.595,-0.595 -1.68,-0.595 -1.085,0 -1.68,0.595 -0.595,0.595 -0.595,1.68 l 0,0.455 4.55,0 z"
         style="font-size:17.5px"
         id="path4191"
         inkscape:connector-curvature="0" />
      <path
         d="m 118.93522,133.70612 0,-1.435 2.8,0 0,-1.6625 q 0,-1.155 0.7175,-1.8025 0.7175,-0.6475 1.9775,-0.6475 l 2.8175,0 0,1.435 -2.8175,0 q -1.12,0 -1.12,1.015 l 0,1.6625 3.9375,0 0,1.435 -3.9375,0 0,7.2275 -1.575,0 0,-7.2275 -2.8,0 z"
         style="font-size:17.5px"
         id="path4193"
         inkscape:connector-curvature="0" />
      <path
         d="m 129.65589,134.80862 q 0,-0.84 0.2275,-1.5225 0.2275,-0.6825 0.6475,-1.155 0.4375,-0.4725 1.05,-0.735 0.6125,-0.2625 1.365,-0.2625 1.05,0 1.785,0.5075 0.735,0.49 0.9975,1.4175 l 0.1225,0 0,-1.75 1.4875,0 0,8.925 q 0,1.6975 -0.9975,2.6425 -0.9975,0.945 -2.8,0.945 l -2.3625,0 0,-1.435 2.3625,0 q 1.05,0 1.6275,-0.56 0.595,-0.56 0.595,-1.5925 l 0,-0.35 0.07,-1.75 -0.105,0 q -0.2625,0.9275 -0.9975,1.435 -0.735,0.49 -1.785,0.49 -0.7525,0 -1.365,-0.2625 -0.595,-0.2625 -1.0325,-0.735 -0.42,-0.4725 -0.665,-1.155 -0.2275,-0.6825 -0.2275,-1.5225 l 0,-1.575 z m 1.61,1.575 q 0,1.085 0.595,1.6975 0.6125,0.6125 1.6625,0.6125 1.05,0 1.645,-0.6125 0.595,-0.6125 0.595,-1.6975 l 0,-1.575 q 0,-1.085 -0.595,-1.6975 -0.595,-0.6125 -1.645,-0.6125 -1.05,0 -1.6625,0.6125 -0.595,0.6125 -0.595,1.6975 l 0,1.575 z"
         style="font-size:17.5px"
         id="path4195"
         inkscape:connector-curvature="0" />
      <path
         d="m 140.41155,128.15862 1.575,0 0,3.15 q 0,0.245 -0.0175,0.5425 0,0.28 -0.0175,0.525 -0.035,0.2975 -0.0525,0.595 l 0.14,0 q 0.2275,-0.875 0.91,-1.3475 0.7,-0.49 1.7325,-0.49 0.7175,0 1.295,0.245 0.595,0.245 0.9975,0.7 0.42,0.4375 0.6475,1.0675 0.2275,0.6125 0.2275,1.3825 l 0,6.405 -1.575,0 0,-6.1425 q 0,-1.1025 -0.56,-1.715 -0.56,-0.6125 -1.5575,-0.6125 -0.9975,0 -1.5925,0.665 -0.5775,0.6475 -0.5775,1.7675 l 0,6.0375 -1.575,0 0,-12.775 z"
         style="font-size:17.5px"
         id="path4197"
         inkscape:connector-curvature="0" />
      <path
         d="m 151.02722,140.93362 0,-1.435 3.5,0 0,-6.755 -3.0625,0 0,-1.435 4.6375,0 0,8.19 2.8875,0 0,1.435 -7.9625,0 z m 3.85,-13.3875 0.35,0 q 0.5075,0 0.8225,0.2975 0.315,0.2975 0.315,0.77 0,0.4725 -0.315,0.7525 -0.315,0.28 -0.8225,0.28 l -0.35,0 q -0.5075,0 -0.8225,-0.2625 -0.315,-0.28 -0.315,-0.77 0,-0.4725 0.315,-0.77 0.315,-0.2975 0.8225,-0.2975 z"
         style="font-size:17.5px"
         id="path4199"
         inkscape:connector-curvature="0" />
      <path
         d="m 165.89538,132.74362 -4.025,0 0,-1.435 5.6,0 0,8.6625 q 0,0.84 -0.2975,1.54 -0.2975,0.7175 -0.84,1.225 -0.525,0.525 -1.26,0.805 -0.735,0.28 -1.6275,0.28 l -2.1,0 0,-1.4525 2.1,0 q 1.1025,0 1.7675,-0.665 0.6825,-0.665 0.6825,-1.7325 l 0,-7.2275 z m 0.7875,-5.1975 q 0.5075,0 0.8225,0.2975 0.315,0.2975 0.315,0.77 0,0.4725 -0.315,0.7525 -0.315,0.28 -0.8225,0.28 l -0.35,0 q -0.5075,0 -0.8225,-0.2625 -0.315,-0.28 -0.315,-0.77 0,-0.4725 0.315,-0.77 0.315,-0.2975 0.8225,-0.2975 l 0.35,0 z"
         style="font-size:17.5px"
         id="path4201"
         inkscape:connector-curvature="0" />
      <path
         d="m 173.55354,128.15862 0,7.175 1.89,0 2.94,-4.025 1.8025,0 -3.4125,4.655 3.465,4.97 -1.8375,0 -2.94,-4.2 -1.9075,0 0,4.2 -1.575,0 0,-12.775 1.575,0 z"
         style="font-size:17.5px"
         id="path4203"
         inkscape:connector-curvature="0" />
      <path
         d="m 186.30421,128.15862 0,9.975 q 0,0.6475 0.35,1.015 0.35,0.35 0.9625,0.35 l 2.8525,0 0,1.435 -2.8525,0 q -1.3475,0 -2.1175,-0.735 -0.77,-0.7525 -0.77,-2.065 l 0,-8.54 -3.185,0 0,-1.435 4.76,0 z"
         style="font-size:17.5px"
         id="path4205"
         inkscape:connector-curvature="0" />
      <path
         d="m 192.42237,131.30862 1.2425,0 0,1.4175 0.1225,0 q 0.07,-0.77 0.49,-1.1725 0.42,-0.42 1.12,-0.42 0.7,0 1.155,0.42 0.455,0.4025 0.63,1.1725 l 0.0875,0 q 0.07,-0.77 0.49,-1.1725 0.42,-0.42 1.12,-0.42 0.8925,0 1.3825,0.665 0.49,0.6475 0.49,1.8025 l 0,7.3325 -1.365,0 0,-7.3325 q 0,-0.6125 -0.28,-0.9275 -0.2625,-0.3325 -0.77,-0.3325 -1.0675,0 -1.0675,1.3475 l 0,7.245 -1.365,0 0,-7.3325 q 0,-0.5075 -0.245,-0.875 -0.2275,-0.385 -0.805,-0.385 -0.525,0 -0.8225,0.385 -0.245,0.35 -0.245,0.9625 l 0,7.245 -1.365,0 0,-9.625 z"
         style="font-size:17.5px"
         id="path4207"
         inkscape:connector-curvature="0" />
      <path
         d="m 203.37054,140.93362 0,-9.625 1.4875,0 0,1.6625 0.14,0 q 0.2275,-0.875 0.91,-1.3475 0.7,-0.49 1.7325,-0.49 0.7175,0 1.295,0.245 0.595,0.245 0.9975,0.7 0.42,0.4375 0.6475,1.0675 0.2275,0.6125 0.2275,1.3825 l 0,6.405 -1.575,0 0,-6.1425 q 0,-1.1025 -0.56,-1.715 -0.56,-0.6125 -1.5575,-0.6125 -0.9975,0 -1.5925,0.665 -0.5775,0.6475 -0.5775,1.7675 l 0,6.0375 -1.575,0 z"
         style="font-size:17.5px"
         id="path4209"
         inkscape:connector-curvature="0" />
      <path
         d="m 215.2987,137.34612 q 0,1.1025 0.595,1.7325 0.6125,0.63 1.68,0.63 1.05,0 1.6625,-0.63 0.6125,-0.63 0.6125,-1.7325 l 0,-2.45 q 0,-1.1025 -0.6125,-1.7325 -0.6125,-0.63 -1.6625,-0.63 -1.05,0 -1.6625,0.63 -0.6125,0.63 -0.6125,1.7325 l 0,2.45 z m -1.575,-2.45 q 0,-0.875 0.2625,-1.5575 0.28,-0.7 0.77,-1.19 0.5075,-0.49 1.2075,-0.7525 0.7175,-0.2625 1.61,-0.2625 1.785,0 2.8175,0.9975 1.0325,0.9975 1.0325,2.7475 l 0,2.4675 q 0,0.875 -0.2625,1.575 -0.2625,0.7 -0.77,1.19 -0.49,0.4725 -1.2075,0.735 -0.7175,0.2625 -1.61,0.2625 -0.8925,0 -1.61,-0.2625 -0.7,-0.2625 -1.2075,-0.7525 -0.49,-0.49 -0.77,-1.19 -0.2625,-0.7 -0.2625,-1.5575 l 0,-2.45 z"
         style="font-size:17.5px"
         id="path4211"
         inkscape:connector-curvature="0" />
      <path
         d="m 225.84436,131.30862 0,1.6625 0.14,0 q 0.2275,-0.875 0.9275,-1.3475 0.7,-0.49 1.7675,-0.49 0.735,0 1.33,0.2625 0.595,0.2625 1.015,0.7525 0.42,0.4725 0.6475,1.1725 0.245,0.7 0.245,1.575 l 0,2.45 q 0,0.875 -0.245,1.575 -0.2275,0.7 -0.6475,1.19 -0.42,0.4725 -1.015,0.735 -0.595,0.2625 -1.33,0.2625 -1.0675,0 -1.7675,-0.4725 -0.7,-0.49 -0.9275,-1.365 l -0.14,0 q 0.0175,0.2975 0.0525,0.595 0.0175,0.2625 0.0175,0.5425 0.0175,0.28 0.0175,0.525 l 0,2.8875 -1.575,0 0,-12.5125 1.4875,0 z m 0.0875,6.0375 q 0,1.1025 0.5775,1.75 0.595,0.6475 1.575,0.6475 1.05,0 1.645,-0.6475 0.6125,-0.6475 0.6125,-1.75 l 0,-2.45 q 0,-1.1375 -0.595,-1.7675 -0.595,-0.63 -1.6625,-0.63 -0.98,0 -1.575,0.6475 -0.5775,0.6475 -0.5775,1.75 l 0,2.45 z"
         style="font-size:17.5px"
         id="path4213"
         inkscape:connector-curvature="0" />
      <path
         d="m 234.85003,134.72112 q 0,-0.805 0.2275,-1.47 0.245,-0.665 0.665,-1.1375 0.42,-0.4725 1.015,-0.7175 0.595,-0.2625 1.33,-0.2625 1.0675,0 1.7675,0.49 0.7,0.4725 0.9275,1.3475 l 0.14,0 0,-1.6625 1.4875,0 0,12.5125 -1.575,0 0,-2.8875 q 0,-0.245 0,-0.525 0.0175,-0.28 0.0525,-0.5425 0.0175,-0.2975 0.035,-0.595 l -0.14,0 q -0.2275,0.875 -0.9275,1.365 -0.7,0.4725 -1.7675,0.4725 -0.735,0 -1.33,-0.245 -0.595,-0.2625 -1.015,-0.735 -0.42,-0.4725 -0.665,-1.1375 -0.2275,-0.665 -0.2275,-1.47 l 0,-2.8 z m 1.575,2.625 q 0,1.1025 0.595,1.75 0.6125,0.6475 1.6625,0.6475 0.98,0 1.5575,-0.6475 0.595,-0.6475 0.595,-1.75 l 0,-2.45 q 0,-1.1025 -0.595,-1.75 -0.5775,-0.6475 -1.5575,-0.6475 -1.0675,0 -1.6625,0.63 -0.595,0.63 -0.595,1.7675 l 0,2.45 z"
         style="font-size:17.5px"
         id="path4215"
         inkscape:connector-curvature="0" />
      <path
         d="m 245.76319,131.30862 1.4875,0 0,1.6625 0.14,0 q 0.2275,-0.8575 0.945,-1.3475 0.7175,-0.49 1.7675,-0.49 1.5225,0 2.38,0.9625 0.875,0.945 0.875,2.6075 l 0,0.5425 -1.575,0 0,-0.35 q 0,-1.1375 -0.5775,-1.75 -0.56,-0.63 -1.61,-0.63 -1.0325,0 -1.645,0.6475 -0.6125,0.63 -0.6125,1.7325 l 0,6.0375 -1.575,0 0,-9.625 z"
         style="font-size:17.5px"
         id="path4217"
         inkscape:connector-curvature="0" />
      <path
         d="m 259.28386,141.10862 q -1.5225,0 -2.52,-0.6825 -0.98,-0.7 -1.12,-1.855 l 1.6625,0 q 0.105,0.5075 0.6475,0.8225 0.5425,0.315 1.33,0.315 l 0.49,0 q 0.945,0 1.47,-0.385 0.525,-0.4025 0.525,-1.0675 0,-1.1375 -1.61,-1.3825 l -1.4525,-0.21 q -1.4175,-0.21 -2.1175,-0.8925 -0.7,-0.6825 -0.7,-1.9075 0,-1.295 0.91,-2.0125 0.9275,-0.7175 2.5725,-0.7175 l 0.49,0 q 0.7,0 1.295,0.175 0.595,0.175 1.05,0.5075 0.455,0.315 0.735,0.77 0.2975,0.4375 0.385,0.98 l -1.6625,0 q -0.105,-0.455 -0.595,-0.735 -0.49,-0.2975 -1.2075,-0.2975 l -0.49,0 q -0.8925,0 -1.4,0.35 -0.49,0.35 -0.49,1.05 0,0.56 0.3325,0.8575 0.35,0.28 1.12,0.385 l 1.4525,0.21 q 1.5575,0.2275 2.2575,0.91 0.7175,0.6825 0.7175,1.9425 0,1.3475 -0.945,2.1175 -0.9275,0.7525 -2.6425,0.7525 l -0.49,0 z"
         style="font-size:17.5px"
         id="path4219"
         inkscape:connector-curvature="0" />
      <path
         d="m 265.83952,131.30862 2.8,0 0,-2.975 1.575,0 0,2.975 3.7625,0 0,1.435 -3.7625,0 0,5.705 q 0,0.49 0.2975,0.77 0.315,0.28 0.84,0.28 l 2.45,0 0,1.435 -2.45,0 q -1.2425,0 -1.9775,-0.6825 -0.735,-0.6825 -0.735,-1.8025 l 0,-5.705 -2.8,0 0,-1.435 z"
         style="font-size:17.5px"
         id="path4221"
         inkscape:connector-curvature="0" />
      <path
         d="m 276.85768,131.30862 1.575,0 0,6.23 q 0,2.1875 2.0825,2.1875 2.1175,0 2.1175,-2.1875 l 0,-6.23 1.575,0 0,6.23 q 0,1.715 -0.9625,2.6425 -0.945,0.9275 -2.73,0.9275 -1.75,0 -2.7125,-0.9275 -0.945,-0.945 -0.945,-2.6425 l 0,-6.23 z"
         style="font-size:17.5px"
         id="path4223"
         inkscape:connector-curvature="0" />
      <path
         d="m 286.65085,131.30862 1.6625,0 2.345,6.8075 q 0.14,0.4025 0.21,0.7175 0.07,0.2975 0.105,0.5075 0.035,0.2625 0.035,0.455 l 0.1575,0 q -0.0175,-0.1925 0.0175,-0.455 0.035,-0.21 0.0875,-0.5075 0.0525,-0.315 0.1925,-0.7175 l 2.2225,-6.8075 1.715,0 -3.4475,9.625 -1.785,0 -3.5175,-9.625 z"
         style="font-size:17.5px"
         id="path4225"
         inkscape:connector-curvature="0" />
      <path
         d="m 296.79401,131.30862 1.3125,0 0.84,6.5975 q 0.035,0.2625 0.07,0.63 0.035,0.3675 0.07,0.7175 0.0525,0.42 0.0875,0.84 l 0.175,0 q 0.0525,-0.4375 0.105,-0.84 0.0525,-0.35 0.105,-0.7175 0.0525,-0.385 0.0875,-0.63 l 0.9975,-6.5975 1.7325,0 0.98,6.5975 q 0.035,0.2625 0.0875,0.6475 0.0525,0.3675 0.105,0.7175 0.0525,0.4025 0.105,0.8225 l 0.1925,0 q 0.0525,-0.42 0.105,-0.84 0.035,-0.35 0.07,-0.7175 0.0525,-0.3675 0.0875,-0.63 l 0.8575,-6.5975 1.2775,0 -1.365,9.625 -2.135,0 -1.015,-6.8075 q -0.035,-0.2975 -0.07,-0.6125 -0.0175,-0.3325 -0.035,-0.6125 -0.0175,-0.315 -0.0175,-0.63 l -0.175,0 q -0.0175,0.315 -0.035,0.63 -0.0175,0.28 -0.0525,0.6125 -0.0175,0.315 -0.07,0.6125 l -1.05,6.8075 -2.0825,0 -1.3475,-9.625 z"
         style="font-size:17.5px"
         id="path4227"
         inkscape:connector-curvature="0" />
      <path
         d="m 307.60218,140.93362 3.4825,-4.935 -3.2725,-4.69 1.89,0 2.0125,3.0625 q 0.0875,0.1225 0.14,0.245 0.0525,0.105 0.0875,0.1925 0.035,0.0875 0.0525,0.175 l 0.07,0 q 0.0175,-0.0875 0.0525,-0.175 0.035,-0.0875 0.0875,-0.1925 0.0525,-0.1225 0.14,-0.245 l 2.0125,-3.0625 1.8725,0 -3.2725,4.6725 3.465,4.9525 -1.89,0 -2.1525,-3.255 q -0.07,-0.1225 -0.14,-0.2275 -0.0525,-0.1225 -0.105,-0.2275 -0.0525,-0.1225 -0.0875,-0.2275 l -0.07,0 q -0.035,0.1225 -0.0875,0.2275 -0.0525,0.105 -0.105,0.2275 -0.0525,0.1225 -0.14,0.2275 l -2.17,3.255 -1.8725,0 z"
         style="font-size:17.5px"
         id="path4229"
         inkscape:connector-curvature="0" />
      <path
         d="m 319.88034,131.30862 2.205,5.53 q 0.1575,0.4025 0.245,0.7525 0.105,0.35 0.1575,0.6125 0.07,0.3325 0.0875,0.595 l 0.1225,0 q 0.0175,-0.2625 0.0875,-0.5775 0.0525,-0.28 0.14,-0.63 0.0875,-0.35 0.2275,-0.7525 l 2.03,-5.53 1.6975,0 -4.6725,12.5125 -1.68,0 1.33,-3.5875 -3.7275,-8.925 1.75,0 z"
         style="font-size:17.5px"
         id="path4231"
         inkscape:connector-curvature="0" />
      <path
         d="m 329.2885,131.30862 7.3675,0 0,1.7675 -5.9325,6.5275 q 0.1925,-0.0175 0.42,-0.035 0.1925,-0.0175 0.42,-0.0175 0.2275,-0.0175 0.4725,-0.0175 l 4.8125,0 0,1.4 -7.7,0 0,-1.75 5.9675,-6.5275 q -0.21,0.0175 -0.455,0.0175 -0.1925,0.0175 -0.455,0.035 -0.245,0 -0.49,0 l -4.4275,0 0,-1.4 z"
         style="font-size:17.5px"
         id="path4233"
         inkscape:connector-curvature="0" />
      <path
         d="m 66.189403,162.80862 3.43,-12.6 2.205,0 3.325,12.6 -1.68,0 -0.875,-3.5525 -3.8675,0 -0.8925,3.5525 -1.645,0 z m 2.87,-4.865 3.22,0 -1.225,-4.9875 q -0.0875,-0.3675 -0.1575,-0.665 -0.07,-0.315 -0.105,-0.56 -0.035,-0.2625 -0.07,-0.4725 l -0.07,0 q -0.035,0.21 -0.0875,0.4725 -0.035,0.245 -0.105,0.56 -0.07,0.2975 -0.1575,0.665 l -1.2425,4.9875 z"
         style="font-size:17.5px"
         id="path4235"
         inkscape:connector-curvature="0" />
      <path
         d="m 81.180067,150.20862 q 1.785,0 2.8,0.8925 1.015,0.8925 1.015,2.4325 0,1.12 -0.6475,1.8375 -0.63,0.7 -1.68,0.7875 l 0,0.105 q 1.2075,0.07 1.8725,0.8575 0.6825,0.7875 0.6825,2.135 0,0.8225 -0.2625,1.4875 -0.2625,0.6475 -0.77,1.12 -0.49,0.455 -1.2075,0.7 -0.7175,0.245 -1.61,0.245 l -3.885,0 0,-12.6 3.6925,0 z m -2.135,11.165 2.1525,0 q 1.12,0 1.7325,-0.5775 0.63,-0.5775 0.63,-1.5925 0,-1.015 -0.63,-1.5925 -0.63,-0.5775 -1.7325,-0.5775 l -2.1525,0 0,4.34 z m 0,-9.73 0,4.025 2.1175,0 q 0.9975,0 1.575,-0.525 0.595,-0.5425 0.595,-1.4875 0,-0.945 -0.5775,-1.47 -0.5775,-0.5425 -1.575,-0.5425 l -2.135,0 z"
         style="font-size:17.5px"
         id="path4237"
         inkscape:connector-curvature="0" />
      <path
         d="m 91.760731,150.03362 q 1.645,0 2.6425,0.91 1.015,0.8925 1.2075,2.5025 l -1.575,0 q -0.105,-0.945 -0.7175,-1.47 -0.595,-0.5425 -1.5575,-0.5425 -1.05,0 -1.6625,0.63 -0.6125,0.63 -0.6125,1.7325 l 0,5.425 q 0,1.1025 0.595,1.7325 0.6125,0.63 1.68,0.63 0.9625,0 1.5575,-0.525 0.6125,-0.5425 0.7175,-1.4875 l 1.575,0 q -0.1925,1.61 -1.2075,2.52 -0.9975,0.8925 -2.6425,0.8925 -0.8925,0 -1.61,-0.2625 -0.7,-0.2625 -1.2075,-0.7525 -0.49,-0.49 -0.77,-1.19 -0.2625,-0.7 -0.2625,-1.5575 l 0,-5.425 q 0,-0.8575 0.2625,-1.5575 0.28,-0.7 0.77,-1.19 0.5075,-0.49 1.2075,-0.7525 0.7175,-0.2625 1.61,-0.2625 z"
         style="font-size:17.5px"
         id="path4239"
         inkscape:connector-curvature="0" />
      <path
         d="m 101.9564,161.40862 q 1.1025,0 1.7675,-0.665 0.6825,-0.6825 0.6825,-1.785 l 0,-4.9175 q 0,-1.1025 -0.6825,-1.7675 -0.665,-0.665 -1.7675,-0.665 l -1.9425,0 0,9.8 1.9425,0 z m -3.517505,1.4 0,-12.6 3.517505,0 q 0.91,0 1.645,0.28 0.7525,0.28 1.2775,0.7875 0.5425,0.49 0.8225,1.2075 0.2975,0.7 0.2975,1.5575 l 0,4.9175 q 0,0.8575 -0.2975,1.575 -0.28,0.7175 -0.8225,1.225 -0.525,0.49 -1.2775,0.77 -0.735,0.28 -1.645,0.28 l -3.517505,0 z"
         style="font-size:17.5px"
         id="path4241"
         inkscape:connector-curvature="0" />
      <path
         d="m 109.05456,162.80862 0,-12.6 7.4375,0 0,1.435 -5.8625,0 0,3.955 5.25,0 0,1.435 -5.25,0 0,4.34 5.8625,0 0,1.435 -7.4375,0 z"
         style="font-size:17.5px"
         id="path4243"
         inkscape:connector-curvature="0" />
      <path
         d="m 119.54772,150.19112 7.525,0 0,1.4 -5.985,0 0,4.0775 5.53,0 0,1.4 -5.495,0 0,5.74 -1.575,0 0,-12.6175 z"
         style="font-size:17.5px"
         id="path4245"
         inkscape:connector-curvature="0" />
      <path
         d="m 133.34839,156.33362 4.13,0 0,2.8875 q 0,0.8575 -0.28,1.5575 -0.2625,0.7 -0.77,1.19 -0.49,0.49 -1.2075,0.7525 -0.7,0.2625 -1.5925,0.2625 -0.875,0 -1.5925,-0.2625 -0.7175,-0.2625 -1.225,-0.7525 -0.49,-0.49 -0.77,-1.19 -0.2625,-0.7 -0.2625,-1.5575 l 0,-5.425 q 0,-0.84 0.28,-1.54 0.28,-0.7 0.77,-1.19 0.5075,-0.49 1.225,-0.7525 0.7175,-0.28 1.575,-0.28 1.5925,0 2.6075,0.805 1.015,0.805 1.33,2.345 l -1.61,0 q -0.175,-0.8225 -0.7875,-1.2775 -0.6125,-0.4725 -1.54,-0.4725 -1.05,0 -1.6625,0.63 -0.6125,0.63 -0.6125,1.7325 l 0,5.425 q 0,1.1025 0.6125,1.7325 0.6125,0.63 1.6625,0.63 1.05,0 1.6625,-0.63 0.6125,-0.63 0.6125,-1.7325 l 0,-1.4875 -2.555,0 0,-1.4 z"
         style="font-size:17.5px"
         id="path4247"
         inkscape:connector-curvature="0" />
      <path
         d="m 142.02155,150.20862 0,5.32 4.2,0 0,-5.32 1.575,0 0,12.6 -1.575,0 0,-5.845 -4.2,0 0,5.845 -1.575,0 0,-12.6 1.575,0 z"
         style="font-size:17.5px"
         id="path4249"
         inkscape:connector-curvature="0" />
      <path
         d="m 153.80972,161.42612 0,-9.835 -2.7825,0 0,-1.3825 7.175,0 0,1.3825 -2.7825,0 0,9.835 2.7825,0 0,1.3825 -7.175,0 0,-1.3825 2.7825,0 z"
         style="font-size:17.5px"
         id="path4251"
         inkscape:connector-curvature="0" />
      <path
         d="m 164.58288,161.58362 q 1.12,0 1.785,-0.63 0.665,-0.6475 0.665,-1.7325 l 0,-7.6125 -4.9,0 0,-1.4 6.475,0 0,9.0125 q 0,0.8575 -0.28,1.5575 -0.28,0.7 -0.805,1.19 -0.525,0.49 -1.2775,0.7525 -0.735,0.2625 -1.6625,0.2625 -0.77,0 -1.435,-0.2275 -0.665,-0.2275 -1.19,-0.6475 -0.5075,-0.4375 -0.8575,-1.0325 -0.3325,-0.595 -0.455,-1.33 l 1.575,0 q 0.1575,0.84 0.805,1.3475 0.6475,0.49 1.5575,0.49 z"
         style="font-size:17.5px"
         id="path4253"
         inkscape:connector-curvature="0" />
      <path
         d="m 171.92604,150.20862 1.575,0 0,5.355 2.0125,0 2.87,-5.355 1.855,0 -3.3425,5.985 3.5175,6.615 -1.8725,0 -3.0275,-5.8625 -2.0125,0 0,5.8625 -1.575,0 0,-12.6 z"
         style="font-size:17.5px"
         id="path4255"
         inkscape:connector-curvature="0" />
      <path
         d="m 184.25671,150.20862 0,11.165 5.95,0 0,1.435 -7.525,0 0,-12.6 1.575,0 z"
         style="font-size:17.5px"
         id="path4257"
         inkscape:connector-curvature="0" />
      <path
         d="m 192.64987,162.80862 0,-12.6 1.96,0 1.54,4.27 q 0.0875,0.1925 0.1575,0.455 0.07,0.245 0.1225,0.455 0.07,0.2625 0.14,0.5075 l 0.105,0 q 0.07,-0.245 0.14,-0.5075 0.07,-0.21 0.14,-0.455 0.0875,-0.2625 0.1575,-0.455 l 1.4525,-4.27 1.96,0 0,12.6 -1.4525,0 0,-8.8375 q 0,-0.28 0,-0.63 0.0175,-0.35 0.0525,-0.6825 0.0175,-0.385 0.035,-0.77 l -0.105,0 q -0.105,0.3675 -0.21,0.7175 -0.0875,0.315 -0.21,0.6825 -0.105,0.3675 -0.21,0.6825 l -1.085,3.2375 -1.47,0 -1.085,-3.2375 q -0.105,-0.3325 -0.2275,-0.7 -0.1225,-0.3675 -0.21,-0.6825 -0.105,-0.3675 -0.21,-0.7175 l -0.0875,0 q 0.0175,0.385 0.035,0.77 0,0.315 0,0.6825 0.0175,0.35 0.0175,0.6475 l 0,8.8375 -1.4525,0 z"
         style="font-size:17.5px"
         id="path4259"
         inkscape:connector-curvature="0" />
      <path
         d="m 203.31804,150.20862 1.995,0 3.3425,8.4525 q 0.14,0.315 0.2625,0.735 0.1225,0.4025 0.21,0.77 0.1225,0.4375 0.2275,0.8925 l 0.14,0 q 0,0 -0.0175,-0.175 -0.0175,-0.1925 -0.0525,-0.5075 -0.035,-0.315 -0.07,-0.7175 -0.0175,-0.42 -0.0175,-0.875 l 0,-8.575 1.505,0 0,12.6 -1.995,0 -3.29,-8.47 q -0.14,-0.4025 -0.28,-0.8225 -0.14,-0.42 -0.2275,-0.77 -0.1225,-0.4025 -0.21,-0.805 l -0.14,0 q 0.035,0.28 0.07,0.63 0.0175,0.2975 0.035,0.7175 0.0175,0.4025 0.0175,0.91 l 0,8.61 -1.505,0 0,-12.6 z"
         style="font-size:17.5px"
         id="path4261"
         inkscape:connector-curvature="0" />
      <path
         d="m 215.2987,159.22112 q 0,1.085 0.6125,1.7325 0.6125,0.63 1.6625,0.63 1.05,0 1.6625,-0.63 0.6125,-0.6475 0.6125,-1.7325 l 0,-5.425 q 0,-1.085 -0.6125,-1.715 -0.6125,-0.6475 -1.6625,-0.6475 -1.05,0 -1.6625,0.6475 -0.6125,0.63 -0.6125,1.715 l 0,5.425 z m -1.575,-5.425 q 0,-0.8575 0.2625,-1.5575 0.28,-0.7 0.77,-1.19 0.5075,-0.49 1.2075,-0.7525 0.7175,-0.2625 1.61,-0.2625 0.8925,0 1.5925,0.2625 0.7175,0.2625 1.2075,0.7525 0.5075,0.49 0.77,1.19 0.28,0.7 0.28,1.5575 l 0,5.425 q 0,0.8575 -0.28,1.5575 -0.2625,0.6825 -0.77,1.1725 -0.49,0.49 -1.2075,0.77 -0.7175,0.2625 -1.5925,0.2625 -0.8925,0 -1.61,-0.2625 -0.7,-0.2625 -1.2075,-0.7525 -0.49,-0.49 -0.77,-1.19 -0.2625,-0.7 -0.2625,-1.5575 l 0,-5.425 z"
         style="font-size:17.5px"
         id="path4263"
         inkscape:connector-curvature="0" />
      <path
         d="m 228.64436,150.20862 q 0.8575,0 1.5575,0.2625 0.7,0.2625 1.19,0.7525 0.5075,0.49 0.77,1.1725 0.28,0.665 0.28,1.4875 0,0.8225 -0.28,1.505 -0.28,0.665 -0.7875,1.155 -0.49,0.49 -1.19,0.7525 -0.7,0.2625 -1.54,0.2625 l -2.6775,0 0,5.25 -1.575,0 0,-12.6 4.2525,0 z m -2.6775,1.4 0,4.55 2.6775,0 q 0.98,0 1.575,-0.6125 0.595,-0.63 0.595,-1.6625 0,-1.0325 -0.595,-1.645 -0.595,-0.63 -1.575,-0.63 l -2.6775,0 z"
         style="font-size:17.5px"
         id="path4265"
         inkscape:connector-curvature="0" />
      <path
         d="m 234.71003,159.22112 0,-5.425 q 0,-0.8575 0.2625,-1.5575 0.28,-0.7 0.77,-1.19 0.5075,-0.49 1.2075,-0.7525 0.7175,-0.2625 1.61,-0.2625 0.8925,0 1.5925,0.2625 0.7175,0.2625 1.2075,0.7525 0.5075,0.49 0.77,1.19 0.28,0.7 0.28,1.5575 l 0,5.425 q 0,1.19 -0.5075,2.065 -0.5075,0.8575 -1.435,1.295 l 2.0475,3.115 -1.82,0 -1.8025,-2.73 q -0.0525,0.0175 -0.14,0.0175 -0.0875,0 -0.1925,0 -0.8925,0 -1.61,-0.2625 -0.7,-0.2625 -1.2075,-0.7525 -0.49,-0.49 -0.77,-1.19 -0.2625,-0.7 -0.2625,-1.5575 z m 3.85,2.3625 q 1.05,0 1.6625,-0.63 0.6125,-0.6475 0.6125,-1.7325 l 0,-5.425 q 0,-1.085 -0.6125,-1.715 -0.6125,-0.6475 -1.6625,-0.6475 -1.05,0 -1.6625,0.6475 -0.6125,0.63 -0.6125,1.715 l 0,5.425 q 0,1.085 0.6125,1.7325 0.6125,0.63 1.6625,0.63 z"
         style="font-size:17.5px"
         id="path4267"
         inkscape:connector-curvature="0" />
      <path
         d="m 249.40319,150.20862 q 0.8575,0 1.5575,0.2625 0.7,0.2625 1.19,0.7525 0.5075,0.49 0.77,1.1725 0.28,0.665 0.28,1.4875 0,1.3125 -0.6825,2.24 -0.665,0.91 -1.82,1.26 l 2.6775,5.425 -1.855,0 -2.45,-5.25 -2.1175,0 0,5.25 -1.575,0 0,-12.6 4.025,0 z m -2.45,5.95 2.45,0 q 0.9975,0 1.575,-0.6125 0.595,-0.63 0.595,-1.6625 0,-1.0325 -0.595,-1.645 -0.595,-0.63 -1.575,-0.63 l -2.45,0 0,4.55 z"
         style="font-size:17.5px"
         id="path4269"
         inkscape:connector-curvature="0" />
      <path
         d="m 259.54636,162.98362 q -0.8575,0 -1.5925,-0.2275 -0.735,-0.245 -1.2775,-0.6825 -0.525,-0.455 -0.84,-1.085 -0.2975,-0.63 -0.315,-1.4175 l 1.6625,0 q 0,0.455 0.175,0.8225 0.1925,0.3675 0.525,0.63 0.3325,0.2625 0.77,0.42 0.4375,0.14 0.9275,0.14 1.1025,0 1.75,-0.5075 0.6475,-0.525 0.6475,-1.4175 0,-0.7525 -0.4725,-1.33 -0.4725,-0.595 -1.365,-0.9275 l -1.33,-0.49 q -2.9225,-1.0675 -2.9225,-3.535 0,-1.575 0.9975,-2.45 0.9975,-0.8925 2.7475,-0.8925 0.8225,0 1.505,0.2275 0.6825,0.2275 1.1725,0.665 0.5075,0.4375 0.7875,1.0675 0.2975,0.6125 0.315,1.3825 l -1.6625,0 q 0,-0.4375 -0.175,-0.7875 -0.175,-0.3675 -0.4725,-0.6125 -0.28,-0.2625 -0.665,-0.4025 -0.385,-0.14 -0.8225,-0.14 -0.9975,0 -1.575,0.4725 -0.56,0.4725 -0.56,1.2775 0,0.7875 0.42,1.3125 0.4375,0.5075 1.4,0.8575 l 1.4,0.5075 q 1.4,0.5075 2.135,1.47 0.735,0.9625 0.735,2.275 0,1.575 -1.085,2.485 -1.0675,0.8925 -2.94,0.8925 z"
         style="font-size:17.5px"
         id="path4271"
         inkscape:connector-curvature="0" />
      <path
         d="m 265.57702,150.20862 8.925,0 0,1.3825 -3.6575,0 0,11.2175 -1.61,0 0,-11.2175 -3.6575,0 0,-1.3825 z"
         style="font-size:17.5px"
         id="path4273"
         inkscape:connector-curvature="0" />
      <path
         d="m 280.53268,162.98362 q -1.8025,0 -2.7825,-0.98 -0.98,-0.98 -0.98,-2.695 l 0,-9.1 1.575,0 0,9.1 q 0,1.05 0.56,1.6625 0.56,0.6125 1.6275,0.6125 1.05,0 1.61,-0.6125 0.5775,-0.6125 0.5775,-1.6625 l 0,-9.1 1.575,0 0,9.1 q 0,1.7325 -0.98,2.7125 -0.98,0.9625 -2.7825,0.9625 z"
         style="font-size:17.5px"
         id="path4275"
         inkscape:connector-curvature="0" />
      <path
         d="m 286.54585,150.20862 1.68,0 2.415,9.8525 q 0.0875,0.3675 0.1575,0.6825 0.07,0.2975 0.105,0.525 0.035,0.28 0.07,0.49 l 0.07,0 q 0.035,-0.21 0.0875,-0.49 0.035,-0.2275 0.105,-0.525 0.07,-0.315 0.1575,-0.6825 l 2.4675,-9.8525 1.645,0 -3.43,12.6 -2.205,0 -3.325,-12.6 z"
         style="font-size:17.5px"
         id="path4277"
         inkscape:connector-curvature="0" />
      <path
         d="m 298.05401,150.20862 0.805,9.205 q 0.035,0.3325 0.0525,0.7525 0.0175,0.42 0.035,0.7875 0.0175,0.4375 0.035,0.8925 l 0.1925,0 q 0.035,-0.455 0.0875,-0.8925 0.035,-0.3675 0.0875,-0.7875 0.0525,-0.42 0.0875,-0.7525 l 1.225,-9.205 1.75,0 1.155,9.205 q 0.035,0.315 0.0875,0.735 0.0525,0.42 0.0875,0.805 0.0525,0.4375 0.105,0.8925 l 0.1925,0 q 0.0175,-0.455 0.035,-0.8925 0.0175,-0.3675 0.035,-0.7875 0.0175,-0.42 0.0525,-0.7525 l 0.8225,-9.205 1.3475,0 -1.3125,12.6 -2.135,0 -1.1025,-9.2575 q -0.0525,-0.5075 -0.0875,-0.9275 -0.0175,-0.4375 -0.035,-0.735 0,-0.3675 0,-0.665 l -0.2275,0 q 0,0.2975 0,0.665 -0.0175,0.2975 -0.0525,0.735 -0.0175,0.42 -0.0875,0.9275 l -1.19,9.2575 -2.135,0 -1.26,-12.6 1.3475,0 z"
         style="font-size:17.5px"
         id="path4279"
         inkscape:connector-curvature="0" />
      <path
         d="m 311.13718,156.38612 -3.4825,-6.1775 1.82,0 1.9775,3.6575 q 0.245,0.42 0.385,0.77 0.105,0.175 0.175,0.35 l 0.0525,0 q 0.07,-0.1575 0.175,-0.35 l 0.385,-0.77 2.0125,-3.6575 1.7325,0 -3.4825,6.0725 3.675,6.5275 -1.8025,0 -2.1875,-4.0075 -0.385,-0.77 q -0.105,-0.1925 -0.175,-0.3675 l -0.0525,0 q -0.07,0.175 -0.1575,0.3675 -0.0875,0.1575 -0.1925,0.3675 -0.0875,0.1925 -0.1925,0.385 l -2.205,4.025 -1.75,0 3.675,-6.4225 z"
         style="font-size:17.5px"
         id="path4281"
         inkscape:connector-curvature="0" />
      <path
         d="m 317.78034,150.20862 1.6625,0 2.59,5.5475 q 0.1225,0.245 0.1925,0.49 0.0875,0.245 0.1575,0.4375 0.07,0.2275 0.1225,0.455 l 0.07,0 q 0.0525,-0.2275 0.14,-0.455 0.0525,-0.1925 0.14,-0.4375 0.0875,-0.245 0.1925,-0.49 l 2.5025,-5.5475 1.68,0 -3.9375,8.225 0,4.375 -1.575,0 0,-4.375 -3.9375,-8.225 z"
         style="font-size:17.5px"
         id="path4283"
         inkscape:connector-curvature="0" />
      <path
         d="m 336.5685,150.20862 0,1.4175 -5.7575,9.835 0,0.035 1.225,-0.07 4.725,0 0,1.3825 -7.525,0 0,-1.4 5.7575,-9.835 0,-0.035 -1.26,0.0525 -4.3575,0 0,-1.3825 7.1925,0 z"
         style="font-size:17.5px"
         id="path4285"
         inkscape:connector-curvature="0" />
      <path
         d="m 68.394403,181.09612 q 0,1.1025 0.595,1.7325 0.6125,0.63 1.68,0.63 1.05,0 1.6625,-0.63 0.6125,-0.63 0.6125,-1.7325 l 0,-2.45 q 0,-1.1025 -0.6125,-1.7325 -0.6125,-0.63 -1.6625,-0.63 -1.05,0 -1.6625,0.63 -0.6125,0.63 -0.6125,1.7325 l 0,2.45 z m -1.575,-2.45 q 0,-0.875 0.2625,-1.5575 0.28,-0.7 0.77,-1.19 0.5075,-0.49 1.2075,-0.7525 0.7175,-0.2625 1.61,-0.2625 1.785,0 2.8175,0.9975 1.0325,0.9975 1.0325,2.7475 l 0,2.4675 q 0,0.875 -0.2625,1.575 -0.2625,0.7 -0.77,1.19 -0.49,0.4725 -1.2075,0.735 -0.7175,0.2625 -1.61,0.2625 -0.8925,0 -1.61,-0.2625 -0.7,-0.2625 -1.2075,-0.7525 -0.49,-0.49 -0.77,-1.19 -0.2625,-0.7 -0.2625,-1.5575 l 0,-2.45 z"
         style="font-size:17.5px"
         id="path4287"
         inkscape:connector-curvature="0" />
      <path
         d="m 78.887567,181.09612 q 0,1.085 0.6125,1.7325 0.6125,0.63 1.6625,0.63 1.05,0 1.6625,-0.63 0.6125,-0.6475 0.6125,-1.7325 l 0,-5.425 q 0,-1.085 -0.6125,-1.715 -0.6125,-0.6475 -1.6625,-0.6475 -1.05,0 -1.6625,0.6475 -0.6125,0.63 -0.6125,1.715 l 0,5.425 z m -1.575,-5.425 q 0,-0.8575 0.2625,-1.5575 0.28,-0.7 0.77,-1.19 0.5075,-0.49 1.2075,-0.7525 0.7175,-0.2625 1.61,-0.2625 0.8925,0 1.5925,0.2625 0.7175,0.2625 1.2075,0.7525 0.5075,0.49 0.77,1.19 0.28,0.7 0.28,1.5575 l 0,5.425 q 0,0.8575 -0.28,1.5575 -0.2625,0.6825 -0.77,1.1725 -0.49,0.49 -1.2075,0.77 -0.7175,0.2625 -1.5925,0.2625 -0.8925,0 -1.61,-0.2625 -0.7,-0.2625 -1.2075,-0.7525 -0.49,-0.49 -0.77,-1.19 -0.2625,-0.7 -0.2625,-1.5575 l 0,-5.425 z"
         style="font-size:17.5px"
         id="path4289"
         inkscape:connector-curvature="0" />
      <path
         d="m 90.780731,177.59612 q 0,-0.4375 0.2275,-0.7 0.245,-0.2625 0.6475,-0.2625 0.4025,0 0.63,0.2625 0.245,0.2625 0.245,0.7 l 0,1.75 q 0,0.4375 -0.245,0.7 -0.2275,0.2625 -0.63,0.2625 -0.4025,0 -0.6475,-0.2625 -0.2275,-0.2625 -0.2275,-0.7 l 0,-1.75 z m -1.4,3.5 q 0,1.085 0.6125,1.7325 0.6125,0.63 1.6625,0.63 1.05,0 1.6625,-0.63 0.6125,-0.6475 0.6125,-1.7325 l 0,-5.425 q 0,-1.085 -0.6125,-1.715 -0.6125,-0.6475 -1.6625,-0.6475 -1.05,0 -1.6625,0.6475 -0.6125,0.63 -0.6125,1.715 l 0,5.425 z m -1.575,0 0,-5.425 q 0,-0.8575 0.2625,-1.5575 0.28,-0.7 0.77,-1.19 0.5075,-0.49 1.2075,-0.7525 0.7175,-0.2625 1.61,-0.2625 0.8925,0 1.5925,0.2625 0.7175,0.2625 1.2075,0.7525 0.5075,0.49 0.77,1.19 0.28,0.7 0.28,1.5575 l 0,5.425 q 0,0.8575 -0.28,1.5575 -0.2625,0.6825 -0.77,1.1725 -0.49,0.49 -1.2075,0.77 -0.7175,0.2625 -1.5925,0.2625 -0.8925,0 -1.61,-0.2625 -0.7,-0.2625 -1.2075,-0.7525 -0.49,-0.49 -0.77,-1.19 -0.2625,-0.7 -0.2625,-1.5575 z"
         style="font-size:17.5px"
         id="path4291"
         inkscape:connector-curvature="0" />
      <path
         d="m 102.1489,178.69862 q -1.085,0 -1.75,0.665 -0.647505,0.6475 -0.647505,1.7325 0,1.0675 0.647505,1.7675 0.665,0.6825 1.75,0.6825 1.085,0 1.7325,-0.6825 0.665,-0.7 0.665,-1.7675 0,-1.085 -0.665,-1.7325 -0.6475,-0.665 -1.7325,-0.665 z m 0,-5.4775 q -0.9975,0 -1.575,0.5775 -0.56,0.5775 -0.56,1.5225 0,0.9625 0.5775,1.5925 0.595,0.63 1.5575,0.63 0.9625,0 1.54,-0.63 0.595,-0.63 0.595,-1.5925 0,-0.945 -0.5775,-1.5225 -0.56,-0.5775 -1.5575,-0.5775 z m 0,-1.3125 q 0.84,0 1.5225,0.245 0.7,0.245 1.19,0.6825 0.5075,0.4375 0.77,1.05 0.28,0.6125 0.28,1.365 0,0.525 -0.175,0.9975 -0.1575,0.4725 -0.455,0.8575 -0.2975,0.3675 -0.7175,0.6125 -0.42,0.245 -0.9275,0.3325 l 0,0.0875 q 1.155,0.1925 1.8375,1.015 0.7,0.8225 0.7,2.03 0,0.805 -0.28,1.4875 -0.28,0.6825 -0.805,1.1725 -0.525,0.4725 -1.2775,0.7525 -0.735,0.2625 -1.6625,0.2625 -0.9275,0 -1.68,-0.2625 -0.735005,-0.2625 -1.260005,-0.735 -0.525,-0.4725 -0.805,-1.1375 -0.28,-0.6825 -0.28,-1.4875 0,-0.6125 0.175,-1.1375 0.1925,-0.525 0.525,-0.9275 0.3325,-0.4025 0.7875,-0.665 0.472505,-0.28 1.050005,-0.3675 l 0,-0.0875 q -0.5075,-0.0875 -0.927505,-0.3325 -0.42,-0.2625 -0.7175,-0.63 -0.2975,-0.3675 -0.4725,-0.84 -0.1575,-0.4725 -0.1575,-0.9975 0,-0.7525 0.2625,-1.365 0.28,-0.6125 0.77,-1.05 0.5075,-0.4375 1.190005,-0.6825 0.7,-0.245 1.54,-0.245 z"
         style="font-size:17.5px"
         id="path4293"
         inkscape:connector-curvature="0" />
      <path
         d="m 119.54772,184.68362 0,-1.435 3.5,0 0,-6.755 -3.0625,0 0,-1.435 4.6375,0 0,8.19 2.8875,0 0,1.435 -7.9625,0 z m 3.85,-13.3875 0.35,0 q 0.5075,0 0.8225,0.2975 0.315,0.2975 0.315,0.77 0,0.4725 -0.315,0.7525 -0.315,0.28 -0.8225,0.28 l -0.35,0 q -0.5075,0 -0.8225,-0.2625 -0.315,-0.28 -0.315,-0.77 0,-0.4725 0.315,-0.77 0.315,-0.2975 0.8225,-0.2975 z"
         style="font-size:17.5px"
         id="path4295"
         inkscape:connector-curvature="0" />
      <path
         d="m 132.82339,183.30112 0,-9.835 -2.7825,0 0,-1.3825 7.175,0 0,1.3825 -2.7825,0 0,9.835 2.7825,0 0,1.3825 -7.175,0 0,-1.3825 2.7825,0 z"
         style="font-size:17.5px"
         id="path4297"
         inkscape:connector-curvature="0" />
      <path
         d="m 144.33155,171.90862 0,9.975 q 0,0.6475 0.35,1.015 0.35,0.35 0.9625,0.35 l 2.8525,0 0,1.435 -2.8525,0 q -1.3475,0 -2.1175,-0.735 -0.77,-0.7525 -0.77,-2.065 l 0,-8.54 -3.185,0 0,-1.435 4.76,0 z"
         style="font-size:17.5px"
         id="path4299"
         inkscape:connector-curvature="0" />
      <path
         d="m 152.77722,172.08362 0,11.165 5.95,0 0,1.435 -7.525,0 0,-12.6 1.575,0 z"
         style="font-size:17.5px"
         id="path4301"
         inkscape:connector-curvature="0" />
      <path
         d="m 161.43288,183.28362 3.3775,0 0,-8.8375 q 0,-0.14 0,-0.315 0.0175,-0.1925 0.0175,-0.35 0,-0.1575 0,-0.2625 0.0175,-0.1225 0.0175,-0.1225 l -0.035,0 q -0.1225,0.105 -0.245,0.1925 -0.105,0.0875 -0.2275,0.175 -0.105,0.0875 -0.21,0.1575 l -2.4675,1.68 0,-1.5925 2.7125,-1.925 2.0125,0 0,11.2 2.835,0 0,1.4 -7.7875,0 0,-1.4 z"
         style="font-size:17.5px"
         id="path4303"
         inkscape:connector-curvature="0" />
      <path
         d="m 182.33171,179.10112 0,-1.4 1.925,0 q 0.56,0 0.91,-0.0875 0.3675,-0.105 0.56,-0.315 0.1925,-0.21 0.245,-0.5425 0.07,-0.3325 0.035,-0.805 l -0.175,-2.8875 q -0.035,-0.6825 0.175,-1.225 0.21,-0.5425 0.63,-0.91 0.42,-0.385 1.0325,-0.5775 0.63,-0.1925 1.4,-0.1925 l 0.7875,0 0,1.4 -0.7875,0 q -0.84,0 -1.2775,0.385 -0.42,0.3675 -0.385,1.12 l 0.175,2.8875 q 0.035,0.4725 -0.0875,0.91 -0.1225,0.42 -0.385,0.7525 -0.245,0.315 -0.63,0.5075 -0.385,0.1925 -0.91,0.21 l 0,0.0875 q 0.525,0.0175 0.91,0.2275 0.4025,0.1925 0.6475,0.525 0.245,0.3325 0.3675,0.77 0.1225,0.4375 0.0875,0.91 l -0.175,2.8525 q -0.035,0.7525 0.385,1.12 0.4375,0.385 1.2775,0.385 l 0.7875,0 0,1.4 -0.7875,0 q -0.77,0 -1.4,-0.1925 -0.6125,-0.1925 -1.0325,-0.5775 -0.42,-0.3675 -0.63,-0.91 -0.21,-0.5425 -0.175,-1.225 l 0.175,-2.8525 q 0.035,-0.4725 -0.035,-0.805 -0.0525,-0.3325 -0.245,-0.5425 -0.1925,-0.21 -0.5425,-0.2975 -0.35,-0.105 -0.9275,-0.105 l -1.925,0 z"
         style="font-size:17.5px"
         id="path4305"
         inkscape:connector-curvature="0" />
      <path
         d="m 192.82487,186.60862 0,-1.4 0.7875,0 q 0.84,0 1.26,-0.385 0.4375,-0.3675 0.4025,-1.12 l -0.175,-2.87 q -0.0175,-0.4725 0.0875,-0.8925 0.1225,-0.4375 0.3675,-0.7525 0.2625,-0.3325 0.6475,-0.525 0.385,-0.1925 0.91,-0.21 l 0,-0.0875 q -0.525,-0.0175 -0.9275,-0.21 -0.385,-0.21 -0.63,-0.5425 -0.245,-0.3325 -0.3675,-0.77 -0.105,-0.4375 -0.0875,-0.91 l 0.175,-2.87 q 0.035,-0.7525 -0.4025,-1.12 -0.42,-0.385 -1.26,-0.385 l -0.7875,0 0,-1.4 0.7875,0 q 0.77,0 1.3825,0.1925 0.63,0.1925 1.05,0.5775 0.42,0.3675 0.63,0.91 0.21,0.5425 0.175,1.225 l -0.175,2.87 q -0.0175,0.4725 0.035,0.805 0.0525,0.3325 0.245,0.5425 0.1925,0.21 0.5425,0.315 0.35,0.0875 0.9275,0.0875 l 1.925,0 0,1.4 -1.925,0 q -0.56,0 -0.9275,0.105 -0.35,0.0875 -0.5425,0.2975 -0.1925,0.21 -0.245,0.5425 -0.0525,0.3325 -0.035,0.805 l 0.175,2.87 q 0.035,0.6825 -0.175,1.225 -0.21,0.5425 -0.63,0.91 -0.42,0.385 -1.05,0.5775 -0.6125,0.1925 -1.3825,0.1925 l -0.7875,0 z"
         style="font-size:17.5px"
         id="path4307"
         inkscape:connector-curvature="0" />
      <path
         d="m 215.9987,186.60862 0,-16.45 4.2875,0 0,1.4 -2.7125,0 0,13.65 2.7125,0 0,1.4 -4.2875,0 z"
         style="font-size:17.5px"
         id="path4309"
         inkscape:connector-curvature="0" />
      <path
         d="m 225.44186,186.60862 0,-1.4 2.7125,0 0,-13.65 -2.7125,0 0,-1.4 4.2875,0 0,16.45 -4.2875,0 z"
         style="font-size:17.5px"
         id="path4311"
         inkscape:connector-curvature="0" />
      <path
         d="m 245.08069,178.55862 q 0,-0.84 0.2275,-1.5225 0.2275,-0.6825 0.6475,-1.155 0.4375,-0.4725 1.05,-0.735 0.6125,-0.2625 1.365,-0.2625 1.05,0 1.785,0.5075 0.735,0.49 0.9975,1.4175 l 0.1225,0 0,-1.75 1.4875,0 0,8.925 q 0,1.6975 -0.9975,2.6425 -0.9975,0.945 -2.8,0.945 l -2.3625,0 0,-1.435 2.3625,0 q 1.05,0 1.6275,-0.56 0.595,-0.56 0.595,-1.5925 l 0,-0.35 0.07,-1.75 -0.105,0 q -0.2625,0.9275 -0.9975,1.435 -0.735,0.49 -1.785,0.49 -0.7525,0 -1.365,-0.2625 -0.595,-0.2625 -1.0325,-0.735 -0.42,-0.4725 -0.665,-1.155 -0.2275,-0.6825 -0.2275,-1.5225 l 0,-1.575 z m 1.61,1.575 q 0,1.085 0.595,1.6975 0.6125,0.6125 1.6625,0.6125 1.05,0 1.645,-0.6125 0.595,-0.6125 0.595,-1.6975 l 0,-1.575 q 0,-1.085 -0.595,-1.6975 -0.595,-0.6125 -1.645,-0.6125 -1.05,0 -1.6625,0.6125 -0.595,0.6125 -0.595,1.6975 l 0,1.575 z"
         style="font-size:17.5px"
         id="path4313"
         inkscape:connector-curvature="0" />
      <path
         d="m 259.52886,171.90862 q 0.8925,0 1.6275,0.28 0.7525,0.28 1.2775,0.805 0.5425,0.5075 0.84,1.2425 0.2975,0.7175 0.2975,1.61 0,1.05 -0.49,2.24 -0.4725,1.19 -1.3475,2.625 l -2.38,3.9725 -1.9075,0 2.66,-4.2 q 0.3675,-0.5775 0.595,-0.91 0.2275,-0.35 0.3675,-0.5425 0.1575,-0.21 0.245,-0.2975 l -0.2625,0 q -0.14,0.28 -0.4025,0.49 -0.245,0.1925 -0.63,0.35 -0.3675,0.14 -0.98,0.14 -0.77,0 -1.4175,-0.28 -0.6475,-0.28 -1.12,-0.7875 -0.455,-0.5075 -0.7175,-1.2075 -0.2625,-0.7175 -0.2625,-1.5925 0,-0.875 0.2975,-1.5925 0.2975,-0.735 0.8225,-1.2425 0.5425,-0.525 1.2775,-0.805 0.735,-0.2975 1.61,-0.2975 z m -2.4325,3.9375 q 0,0.5775 0.175,1.05 0.1925,0.455 0.5075,0.7875 0.3325,0.3325 0.77,0.525 0.455,0.175 0.98,0.175 1.085,0 1.7675,-0.7 0.7,-0.7 0.7,-1.8375 0,-1.155 -0.6825,-1.8375 -0.6825,-0.7 -1.785,-0.7 -0.525,0 -0.98,0.1925 -0.4375,0.175 -0.77,0.5075 -0.315,0.3325 -0.5075,0.805 -0.175,0.455 -0.175,1.0325 z"
         style="font-size:17.5px"
         id="path4315"
         inkscape:connector-curvature="0" />
      <path
         d="m 266.32952,178.47112 q 0,-0.805 0.2275,-1.47 0.245,-0.665 0.665,-1.1375 0.42,-0.4725 1.015,-0.7175 0.595,-0.2625 1.33,-0.2625 1.0675,0 1.7675,0.49 0.7,0.4725 0.9275,1.3475 l 0.14,0 0,-1.6625 1.4875,0 0,12.5125 -1.575,0 0,-2.8875 q 0,-0.245 0,-0.525 0.0175,-0.28 0.0525,-0.5425 0.0175,-0.2975 0.035,-0.595 l -0.14,0 q -0.2275,0.875 -0.9275,1.365 -0.7,0.4725 -1.7675,0.4725 -0.735,0 -1.33,-0.245 -0.595,-0.2625 -1.015,-0.735 -0.42,-0.4725 -0.665,-1.1375 -0.2275,-0.665 -0.2275,-1.47 l 0,-2.8 z m 1.575,2.625 q 0,1.1025 0.595,1.75 0.6125,0.6475 1.6625,0.6475 0.98,0 1.5575,-0.6475 0.595,-0.6475 0.595,-1.75 l 0,-2.45 q 0,-1.1025 -0.595,-1.75 -0.5775,-0.6475 -1.5575,-0.6475 -1.0675,0 -1.6625,0.63 -0.595,0.63 -0.595,1.7675 l 0,2.45 z"
         style="font-size:17.5px"
         id="path4317"
         inkscape:connector-curvature="0" />
      <path
         d="m 280.63768,171.90862 q 1.645,0 2.6425,0.91 1.015,0.8925 1.2075,2.5025 l -1.575,0 q -0.105,-0.945 -0.7175,-1.47 -0.595,-0.5425 -1.5575,-0.5425 -1.05,0 -1.6625,0.63 -0.6125,0.63 -0.6125,1.7325 l 0,5.425 q 0,1.1025 0.595,1.7325 0.6125,0.63 1.68,0.63 0.9625,0 1.5575,-0.525 0.6125,-0.5425 0.7175,-1.4875 l 1.575,0 q -0.1925,1.61 -1.2075,2.52 -0.9975,0.8925 -2.6425,0.8925 -0.8925,0 -1.61,-0.2625 -0.7,-0.2625 -1.2075,-0.7525 -0.49,-0.49 -0.77,-1.19 -0.2625,-0.7 -0.2625,-1.5575 l 0,-5.425 q 0,-0.8575 0.2625,-1.5575 0.28,-0.7 0.77,-1.19 0.5075,-0.49 1.2075,-0.7525 0.7175,-0.2625 1.61,-0.2625 z"
         style="font-size:17.5px"
         id="path4319"
         inkscape:connector-curvature="0" />
      <path
         d="m 290.74585,178.20862 4.13,0 0,2.8875 q 0,0.8575 -0.28,1.5575 -0.2625,0.7 -0.77,1.19 -0.49,0.49 -1.2075,0.7525 -0.7,0.2625 -1.5925,0.2625 -0.875,0 -1.5925,-0.2625 -0.7175,-0.2625 -1.225,-0.7525 -0.49,-0.49 -0.77,-1.19 -0.2625,-0.7 -0.2625,-1.5575 l 0,-5.425 q 0,-0.84 0.28,-1.54 0.28,-0.7 0.77,-1.19 0.5075,-0.49 1.225,-0.7525 0.7175,-0.28 1.575,-0.28 1.5925,0 2.6075,0.805 1.015,0.805 1.33,2.345 l -1.61,0 q -0.175,-0.8225 -0.7875,-1.2775 -0.6125,-0.4725 -1.54,-0.4725 -1.05,0 -1.6625,0.63 -0.6125,0.63 -0.6125,1.7325 l 0,5.425 q 0,1.1025 0.6125,1.7325 0.6125,0.63 1.6625,0.63 1.05,0 1.6625,-0.63 0.6125,-0.63 0.6125,-1.7325 l 0,-1.4875 -2.555,0 0,-1.4 z"
         style="font-size:17.5px"
         id="path4321"
         inkscape:connector-curvature="0" />
      <path
         d="m 297.66901,181.09612 0,-5.425 q 0,-0.8575 0.2625,-1.5575 0.28,-0.7 0.77,-1.19 0.5075,-0.49 1.2075,-0.7525 0.7175,-0.2625 1.61,-0.2625 0.8925,0 1.5925,0.2625 0.7175,0.2625 1.2075,0.7525 0.5075,0.49 0.77,1.19 0.28,0.7 0.28,1.5575 l 0,5.425 q 0,1.19 -0.5075,2.065 -0.5075,0.8575 -1.435,1.295 l 2.0475,3.115 -1.82,0 -1.8025,-2.73 q -0.0525,0.0175 -0.14,0.0175 -0.0875,0 -0.1925,0 -0.8925,0 -1.61,-0.2625 -0.7,-0.2625 -1.2075,-0.7525 -0.49,-0.49 -0.77,-1.19 -0.2625,-0.7 -0.2625,-1.5575 z m 3.85,2.3625 q 1.05,0 1.6625,-0.63 0.6125,-0.6475 0.6125,-1.7325 l 0,-5.425 q 0,-1.085 -0.6125,-1.715 -0.6125,-0.6475 -1.6625,-0.6475 -1.05,0 -1.6625,0.6475 -0.6125,0.63 -0.6125,1.715 l 0,5.425 q 0,1.085 0.6125,1.7325 0.6125,0.63 1.6625,0.63 z"
         style="font-size:17.5px"
         id="path4323"
         inkscape:connector-curvature="0" />
      <path
         d="m 319.086,179.52112 q 0,-1.155 0.7525,-1.8375 0.735,-0.7 1.96,-0.7 0.6125,0 1.0675,0.1925 0.4375,0.175 0.77,0.4725 0.3325,0.28 0.6125,0.6125 0.2625,0.315 0.525,0.6125 0.2625,0.28 0.56,0.4725 0.28,0.175 0.665,0.175 0.56,0 0.8925,-0.35 0.3325,-0.3675 0.3325,-0.9625 l 9.275,0 0,1.4 -8.1375,0 q -0.35,0.5775 -0.945,0.91 -0.6125,0.315 -1.4175,0.315 -0.595,0 -1.0325,-0.175 -0.4375,-0.1925 -0.77,-0.4725 -0.3325,-0.2975 -0.595,-0.6125 -0.28,-0.3325 -0.5425,-0.6125 -0.2625,-0.2975 -0.56,-0.4725 -0.315,-0.1925 -0.7,-0.1925 -0.56,0 -0.8925,0.3325 -0.3325,0.3325 -0.3325,0.8925 l 0,1.05 -1.4875,0 0,-1.05 z"
         style="font-size:17.5px"
         id="path4325"
         inkscape:connector-curvature="0" />
      <path
         d="m 339.37917,179.60862 0,-1.4 3.3425,0 0,-3.4125 1.54,0 0,3.4125 3.3425,0 0,1.4 -3.3425,0 0,3.4125 -1.54,0 0,-3.4125 -3.3425,0 z"
         style="font-size:17.5px"
         id="path4327"
         inkscape:connector-curvature="0" />
      <path
         d="m 364.653,176.10862 -1.8725,-2.3625 1.855,0 4.0425,5.1625 -4.06,5.1625 -1.8375,0 1.8725,-2.3625 -14.525,0 0,-1.4 15.645,0 0.3325,-0.42 q 0.035,-0.035 0.0525,-0.07 0.035,-0.035 0.07,-0.07 0.1925,-0.245 0.35,-0.4025 0.1575,-0.1575 0.245,-0.245 0.1225,-0.105 0.21,-0.1575 l 0,-0.0525 q -0.0875,-0.0525 -0.1925,-0.175 -0.105,-0.0875 -0.2625,-0.2275 -0.14,-0.1575 -0.35,-0.4025 -0.035,-0.0525 -0.0875,-0.105 -0.0525,-0.0525 -0.105,-0.1225 l -0.28,-0.35 -15.6275,0 0,-1.4 14.525,0 z"
         style="font-size:17.5px"
         id="path4329"
         inkscape:connector-curvature="0" />
    </g>
  </g>
</svg>
