<?xml version="1.0" encoding="UTF-8" standalone="no"?>
<svg
   version="1.1"
   id="svg2"
   viewBox="0 0 376.06158 108.26749"
   height="30.55549mm"
   width="106.13293mm"
   sodipodi:docname="JetBrainsMono Nerd Font.svg"
   inkscape:version="1.1.2 (0a00cf5339, 2022-02-04)"
   xmlns:inkscape="http://www.inkscape.org/namespaces/inkscape"
   xmlns:sodipodi="http://sodipodi.sourceforge.net/DTD/sodipodi-0.dtd"
   xmlns="http://www.w3.org/2000/svg"
   xmlns:svg="http://www.w3.org/2000/svg"
   xmlns:rdf="http://www.w3.org/1999/02/22-rdf-syntax-ns#"
   xmlns:cc="http://creativecommons.org/ns#"
   xmlns:dc="http://purl.org/dc/elements/1.1/">
  <sodipodi:namedview
     id="namedview12"
     pagecolor="#ffffff"
     bordercolor="#666666"
     borderopacity="1.0"
     inkscape:pageshadow="2"
     inkscape:pageopacity="0.0"
     inkscape:pagecheckerboard="0"
     inkscape:document-units="mm"
     showgrid="false"
     inkscape:zoom="0.64052329"
     inkscape:cx="328.63754"
     inkscape:cy="476.95377"
     inkscape:window-width="1458"
     inkscape:window-height="976"
     inkscape:window-x="0"
     inkscape:window-y="32"
     inkscape:window-maximized="0"
     inkscape:current-layer="svg2" />
  <defs
     id="defs4" />
  <metadata
     id="metadata7">
    <rdf:RDF>
      <cc:Work
         rdf:about="">
        <dc:format>image/svg+xml</dc:format>
        <dc:type
           rdf:resource="http://purl.org/dc/dcmitype/StillImage" />
      </cc:Work>
    </rdf:RDF>
  </metadata>
  <g
     id="layer1"
     transform="translate(-64.094643,-79.566132)">
    <g
       aria-label="JetBrainsMono Nerd Font"
       id="text4136"
       style="font-size:27.5px;line-height:125%;font-family:'JetBrainsMono Nerd Font';text-decoration:underline;text-decoration-line:underline;letter-spacing:0px;word-spacing:0px;fill:#ffffff;stroke-width:1px">
      <path
         d="M 70.282143,101.20863 Q 67.394643,101.20863 65.744643,99.586132 64.094643,97.963632 64.094643,95.158632 H 66.569643 Q 66.569643,97.001132 67.532143,98.018632 68.522143,99.008632 70.282143,99.008632 72.042143,99.008632 73.004643,98.018632 73.994643,97.001132 73.994643,95.158632 V 80.858632 H 76.469643 V 95.158632 Q 76.469643,97.963632 74.792143,99.586132 73.142143,101.20863 70.282143,101.20863 Z"
         id="path829" />
      <path
         d="M 87.607101,101.20863 Q 84.939601,101.20863 83.289601,99.613632 81.667101,97.991132 81.667101,95.158632 V 91.583632 Q 81.667101,88.751132 83.289601,87.156132 84.939601,85.533632 87.607101,85.533632 89.394601,85.533632 90.714601,86.248632 92.062101,86.963632 92.804601,88.256132 93.547101,89.548632 93.547101,91.308632 V 94.003632 H 84.087101 V 95.433632 Q 84.087101,97.111132 85.049601,98.101132 86.012101,99.063632 87.607101,99.063632 88.982101,99.063632 89.862101,98.541132 90.769601,97.991132 90.962101,97.083632 H 93.437101 Q 93.189601,98.981132 91.594601,100.10863 89.999601,101.20863 87.607101,101.20863 Z M 84.087101,92.078632 H 91.127101 V 91.308632 Q 91.127101,89.521132 90.192101,88.558632 89.284601,87.568632 87.607101,87.568632 85.929601,87.568632 84.994601,88.558632 84.087101,89.521132 84.087101,91.308632 Z"
         id="path831" />
      <path
         d="M 105.61956,100.93363 Q 103.74956,100.93363 102.62206,99.861132 101.49456,98.761132 101.49456,96.946132 V 88.063632 H 97.149559 V 85.808632 H 101.49456 V 81.546132 H 103.96956 V 85.808632 H 110.15706 V 88.063632 H 103.96956 V 96.946132 Q 103.96956,97.716132 104.40956,98.211132 104.87706,98.678632 105.61956,98.678632 H 110.01956 V 100.93363 Z"
         id="path833" />
      <path
         d="M 114.91452,100.93363 V 80.858632 H 120.60702 Q 123.35702,80.858632 124.89702,82.233632 126.46452,83.608632 126.46452,86.056132 126.46452,87.596132 125.47452,88.833632 124.51202,90.071132 122.94452,90.373632 V 90.456132 Q 124.12702,90.593632 125.00702,91.281132 125.91452,91.968632 126.40952,93.041132 126.93202,94.086132 126.93202,95.351132 126.93202,97.936132 125.33702,99.448632 123.76952,100.93363 121.01952,100.93363 Z M 117.33452,89.411132 H 120.57952 Q 122.17452,89.411132 123.08202,88.558632 124.01702,87.706132 124.01702,86.248632 124.01702,84.791132 123.10952,83.938632 122.20202,83.086132 120.60702,83.086132 H 117.33452 Z M 117.33452,98.706132 H 120.74452 Q 122.47702,98.706132 123.46702,97.798632 124.48452,96.863632 124.48452,95.268632 124.48452,93.618632 123.46702,92.601132 122.47702,91.556132 120.74452,91.556132 H 117.33452 Z"
         id="path835" />
      <path
         d="M 131.93698,100.93363 V 85.808632 H 134.41198 V 88.696132 H 134.46698 Q 134.65948,87.238632 135.70448,86.386132 136.74948,85.533632 138.50948,85.533632 140.87448,85.533632 142.13948,86.963632 143.43198,88.366132 143.43198,90.978632 V 92.271132 H 140.95698 V 90.978632 Q 140.95698,87.678632 137.73948,87.678632 136.11698,87.678632 135.26448,88.613632 134.41198,89.548632 134.41198,91.308632 V 100.93363 Z"
         id="path837" />
      <path
         d="M 152.28693,101.20863 Q 149.94943,101.20863 148.57443,99.916132 147.19943,98.596132 147.19943,96.478632 147.19943,95.076132 147.83193,94.031132 148.46443,92.986132 149.59193,92.408632 150.71943,91.803632 152.17693,91.803632 H 156.85193 V 90.621132 Q 156.85193,87.678632 153.63443,87.678632 152.20443,87.678632 151.32443,88.201132 150.44443,88.723632 150.38943,89.658632 H 147.91443 Q 148.05193,87.871132 149.56443,86.716132 151.10443,85.533632 153.63443,85.533632 156.38443,85.533632 157.84193,86.853632 159.32693,88.173632 159.32693,90.538632 V 100.93363 H 156.87943 V 98.183632 H 156.82443 Q 156.60443,99.586132 155.42193,100.41113 154.23943,101.20863 152.28693,101.20863 Z M 152.89193,99.118632 Q 154.70693,99.118632 155.77943,98.238632 156.85193,97.358632 156.85193,95.846132 V 93.728632 H 152.45193 Q 151.24193,93.728632 150.47193,94.471132 149.72943,95.186132 149.72943,96.396132 149.72943,97.661132 150.55443,98.403632 151.40693,99.118632 152.89193,99.118632 Z"
         id="path839" />
      <path
         d="M 164.19439,100.93363 V 98.678632 H 169.55689 V 88.063632 H 164.74439 V 85.808632 H 172.03189 V 98.678632 H 177.11939 V 100.93363 Z M 170.51939,83.086132 Q 169.61189,83.086132 169.08939,82.618632 168.56689,82.151132 168.56689,81.353632 168.56689,80.528632 169.08939,80.061132 169.61189,79.566132 170.51939,79.566132 171.42689,79.566132 171.94939,80.061132 172.47189,80.528632 172.47189,81.353632 172.47189,82.151132 171.94939,82.618632 171.42689,83.086132 170.51939,83.086132 Z"
         id="path841" />
      <path
         d="M 180.88685,100.93363 V 85.808632 H 183.36185 V 88.696132 H 183.38935 Q 183.58185,87.183632 184.62685,86.358632 185.67185,85.533632 187.40435,85.533632 189.68685,85.533632 191.03435,86.936132 192.38185,88.338632 192.38185,90.758632 V 100.93363 H 189.90685 V 91.198632 Q 189.90685,89.466132 189.02685,88.558632 188.17435,87.623632 186.68935,87.623632 185.14935,87.623632 184.24185,88.586132 183.36185,89.548632 183.36185,91.308632 V 100.93363 Z"
         id="path843" />
      <path
         d="M 202.50181,101.15363 Q 199.97181,101.15363 198.56931,100.02613 197.19431,98.871132 197.19431,96.781132 H 199.66931 Q 199.66931,97.826132 200.41181,98.431132 201.15431,99.008632 202.50181,99.008632 H 203.71181 Q 205.08681,99.008632 205.82931,98.403632 206.59931,97.798632 206.59931,96.698632 206.59931,94.746132 204.81181,94.498632 L 200.63181,93.893632 Q 199.09181,93.673632 198.23931,92.628632 197.38681,91.556132 197.38681,89.823632 197.38681,87.843632 198.73431,86.716132 200.10931,85.588632 202.50181,85.588632 H 203.71181 Q 205.91181,85.588632 207.28681,86.688632 208.68931,87.761132 208.79931,89.521132 H 206.29681 Q 206.24181,88.723632 205.52681,88.201132 204.83931,87.678632 203.71181,87.678632 H 202.50181 Q 201.23681,87.678632 200.52181,88.256132 199.80681,88.833632 199.80681,89.823632 199.80681,91.418632 201.26431,91.638632 L 205.16931,92.188632 Q 209.01931,92.738632 209.01931,96.698632 209.01931,98.816132 207.61681,99.998632 206.24181,101.15363 203.71181,101.15363 Z"
         id="path845" />
      <path
         d="M 213.33676,100.93363 V 80.858632 H 216.99426 L 219.55176,89.548632 222.21926,80.858632 H 225.87676 V 100.93363 H 223.48426 V 91.446132 Q 223.48426,90.098632 223.51176,88.366132 223.56676,86.606132 223.64926,84.818632 223.73176,83.031132 223.84176,81.601132 L 220.59676,91.968632 H 218.45176 L 215.34426,81.848632 Q 215.56426,83.883632 215.64676,86.303632 215.72926,88.723632 215.72926,91.446132 V 100.93363 Z"
         id="path847" />
      <path
         d="M 236.10672,101.15363 Q 233.38422,101.15363 231.76172,99.558632 230.16672,97.963632 230.16672,95.103632 V 91.638632 Q 230.16672,88.751132 231.76172,87.183632 233.35672,85.588632 236.10672,85.588632 238.85672,85.588632 240.45172,87.183632 242.04672,88.751132 242.04672,91.638632 V 95.103632 Q 242.04672,97.963632 240.42422,99.558632 238.82922,101.15363 236.10672,101.15363 Z M 236.10672,98.953632 Q 237.72922,98.953632 238.63672,98.046132 239.57172,97.138632 239.57172,95.378632 V 91.363632 Q 239.57172,89.603632 238.63672,88.696132 237.72922,87.788632 236.10672,87.788632 234.51172,87.788632 233.57672,88.696132 232.64172,89.603632 232.64172,91.363632 V 95.378632 Q 232.64172,97.138632 233.57672,98.046132 234.51172,98.953632 236.10672,98.953632 Z"
         id="path849" />
      <path
         d="M 246.88669,100.93363 V 85.808632 H 249.36169 V 88.696132 H 249.38919 Q 249.58169,87.183632 250.62669,86.358632 251.67169,85.533632 253.40419,85.533632 255.68669,85.533632 257.03419,86.936132 258.38169,88.338632 258.38169,90.758632 V 100.93363 H 255.90669 V 91.198632 Q 255.90669,89.466132 255.02669,88.558632 254.17419,87.623632 252.68919,87.623632 251.14919,87.623632 250.24169,88.586132 249.36169,89.548632 249.36169,91.308632 V 100.93363 Z"
         id="path851" />
      <path
         d="M 269.10664,101.15363 Q 266.38414,101.15363 264.76164,99.558632 263.16664,97.963632 263.16664,95.103632 V 91.638632 Q 263.16664,88.751132 264.76164,87.183632 266.35664,85.588632 269.10664,85.588632 271.85664,85.588632 273.45164,87.183632 275.04664,88.751132 275.04664,91.638632 V 95.103632 Q 275.04664,97.963632 273.42414,99.558632 271.82914,101.15363 269.10664,101.15363 Z M 269.10664,98.953632 Q 270.72914,98.953632 271.63664,98.046132 272.57164,97.138632 272.57164,95.378632 V 91.363632 Q 272.57164,89.603632 271.63664,88.696132 270.72914,87.788632 269.10664,87.788632 267.51164,87.788632 266.57664,88.696132 265.64164,89.603632 265.64164,91.363632 V 95.378632 Q 265.64164,97.138632 266.57664,98.046132 267.51164,98.953632 269.10664,98.953632 Z"
         id="path853" />
      <path
         d="M 296.33156,100.93363 V 80.858632 H 299.63156 L 305.76406,98.046132 Q 305.70906,97.358632 305.62656,96.368632 305.57156,95.351132 305.51656,94.251132 305.48906,93.123632 305.48906,92.133632 V 80.858632 H 307.88156 V 100.93363 H 304.58156 L 298.47656,83.746132 Q 298.53156,84.406132 298.58656,85.423632 298.64156,86.413632 298.66906,87.541132 298.72406,88.641132 298.72406,89.658632 V 100.93363 Z"
         id="path855" />
      <path
         d="M 318.60652,101.20863 Q 315.93902,101.20863 314.28902,99.613632 312.66652,97.991132 312.66652,95.158632 V 91.583632 Q 312.66652,88.751132 314.28902,87.156132 315.93902,85.533632 318.60652,85.533632 320.39402,85.533632 321.71402,86.248632 323.06152,86.963632 323.80402,88.256132 324.54652,89.548632 324.54652,91.308632 V 94.003632 H 315.08652 V 95.433632 Q 315.08652,97.111132 316.04902,98.101132 317.01152,99.063632 318.60652,99.063632 319.98152,99.063632 320.86152,98.541132 321.76902,97.991132 321.96152,97.083632 H 324.43652 Q 324.18902,98.981132 322.59402,100.10863 320.99902,101.20863 318.60652,101.20863 Z M 315.08652,92.078632 H 322.12652 V 91.308632 Q 322.12652,89.521132 321.19152,88.558632 320.28402,87.568632 318.60652,87.568632 316.92902,87.568632 315.99402,88.558632 315.08652,89.521132 315.08652,91.308632 Z"
         id="path857" />
      <path
         d="M 329.93647,100.93363 V 85.808632 H 332.41147 V 88.696132 H 332.46647 Q 332.65897,87.238632 333.70397,86.386132 334.74897,85.533632 336.50897,85.533632 338.87397,85.533632 340.13897,86.963632 341.43147,88.366132 341.43147,90.978632 V 92.271132 H 338.95647 V 90.978632 Q 338.95647,87.678632 335.73897,87.678632 334.11647,87.678632 333.26397,88.613632 332.41147,89.548632 332.41147,91.308632 V 100.93363 Z"
         id="path859" />
      <path
         d="M 350.72644,101.20863 Q 348.47144,101.20863 347.09644,99.696132 345.74894,98.183632 345.74894,95.598632 V 91.171132 Q 345.74894,88.558632 347.09644,87.046132 348.44394,85.533632 350.72644,85.533632 352.43144,85.533632 353.53144,86.386132 354.65894,87.238632 354.87894,88.696132 H 354.90644 L 354.85144,85.258632 V 80.858632 H 357.32644 V 100.93363 H 354.85144 V 98.046132 H 354.82394 Q 354.63144,99.531132 353.53144,100.38363 352.43144,101.20863 350.72644,101.20863 Z M 351.55144,99.063632 Q 353.09144,99.063632 353.97144,98.101132 354.85144,97.138632 354.85144,95.433632 V 91.308632 Q 354.85144,89.603632 353.97144,88.641132 353.09144,87.678632 351.55144,87.678632 349.98394,87.678632 349.10394,88.503632 348.22394,89.301132 348.22394,91.171132 V 95.571132 Q 348.22394,97.413632 349.10394,98.238632 349.98394,99.063632 351.55144,99.063632 Z"
         id="path861" />
      <path
         d="M 378.96885,100.93363 V 80.858632 H 390.79385 V 83.113632 H 381.38885 V 89.768632 H 390.07885 V 92.023632 H 381.44385 V 100.93363 Z"
         id="path863" />
      <path
         d="M 401.10629,101.15363 Q 398.38379,101.15363 396.76129,99.558632 395.16629,97.963632 395.16629,95.103632 V 91.638632 Q 395.16629,88.751132 396.76129,87.183632 398.35629,85.588632 401.10629,85.588632 403.85629,85.588632 405.45129,87.183632 407.04629,88.751132 407.04629,91.638632 V 95.103632 Q 407.04629,97.963632 405.42379,99.558632 403.82879,101.15363 401.10629,101.15363 Z M 401.10629,98.953632 Q 402.72879,98.953632 403.63629,98.046132 404.57129,97.138632 404.57129,95.378632 V 91.363632 Q 404.57129,89.603632 403.63629,88.696132 402.72879,87.788632 401.10629,87.788632 399.51129,87.788632 398.57629,88.696132 397.64129,89.603632 397.64129,91.363632 V 95.378632 Q 397.64129,97.138632 398.57629,98.046132 399.51129,98.953632 401.10629,98.953632 Z"
         id="path865" />
      <path
         d="M 411.88626,100.93363 V 85.808632 H 414.36126 V 88.696132 H 414.38876 Q 414.58126,87.183632 415.62626,86.358632 416.67126,85.533632 418.40376,85.533632 420.68626,85.533632 422.03376,86.936132 423.38126,88.338632 423.38126,90.758632 V 100.93363 H 420.90626 V 91.198632 Q 420.90626,89.466132 420.02626,88.558632 419.17376,87.623632 417.68876,87.623632 416.14876,87.623632 415.24126,88.586132 414.36126,89.548632 414.36126,91.308632 V 100.93363 Z"
         id="path867" />
      <path
         d="M 435.61873,100.93363 Q 433.74873,100.93363 432.62123,99.861132 431.49373,98.761132 431.49373,96.946132 V 88.063632 H 427.14873 V 85.808632 H 431.49373 V 81.546132 H 433.96873 V 85.808632 H 440.15623 V 88.063632 H 433.96873 V 96.946132 Q 433.96873,97.716132 434.40873,98.211132 434.87623,98.678632 435.61873,98.678632 H 440.01873 V 100.93363 Z"
         id="path869" />
    </g>
    <g
       aria-label="abcdefghijklmnopqrstuvwxyzABCDEFGHIJKLMNOPQRSTUVWXYZ oO08 iIlL1 {} [] g9qCGQ ~-+=&gt;"
       id="text4140"
       style="font-size:27.5px;line-height:125%;font-family:'JetBrainsMono Nerd Font';letter-spacing:0px;word-spacing:0px;fill:#ffffff;stroke-width:1px">
      <path
         d="M 69.829403,141.10862 Q 68.341903,141.10862 67.466903,140.28612 66.591903,139.44612 66.591903,138.09862 66.591903,137.20612 66.994403,136.54112 67.396903,135.87612 68.114403,135.50862 68.831903,135.12362 69.759403,135.12362 H 72.734403 V 134.37112 Q 72.734403,132.49862 70.686903,132.49862 69.776903,132.49862 69.216903,132.83112 68.656903,133.16362 68.621903,133.75862 H 67.046903 Q 67.134403,132.62112 68.096903,131.88612 69.076903,131.13362 70.686903,131.13362 72.436903,131.13362 73.364403,131.97362 74.309403,132.81362 74.309403,134.31862 V 140.93362 H 72.751903 V 139.18362 H 72.716903 Q 72.576903,140.07612 71.824403,140.60112 71.071903,141.10862 69.829403,141.10862 Z M 70.214403,139.77862 Q 71.369403,139.77862 72.051903,139.21862 72.734403,138.65862 72.734403,137.69612 V 136.34862 H 69.934403 Q 69.164403,136.34862 68.674403,136.82112 68.201903,137.27612 68.201903,138.04612 68.201903,138.85112 68.726903,139.32362 69.269403,139.77862 70.214403,139.77862 Z"
         style="font-size:17.5px"
         id="path872" />
      <path
         d="M 81.729376,141.10862 Q 80.644376,141.10862 79.944376,140.58362 79.244376,140.04112 79.121876,139.09612 H 79.104376 V 140.93362 H 77.529376 V 128.15862 H 79.104376 V 130.95862 L 79.069376,133.14612 H 79.086876 Q 79.226876,132.21862 79.926876,131.67612 80.644376,131.13362 81.729376,131.13362 83.181876,131.13362 84.039376,132.09612 84.896876,133.05862 84.896876,134.72112 V 137.53862 Q 84.896876,139.18362 84.039376,140.14612 83.181876,141.10862 81.729376,141.10862 Z M 81.204376,139.74362 Q 82.201876,139.74362 82.761876,139.21862 83.321876,138.69362 83.321876,137.52112 V 134.72112 Q 83.321876,133.53112 82.761876,133.02362 82.201876,132.49862 81.204376,132.49862 80.241876,132.49862 79.664376,133.11112 79.104376,133.72362 79.104376,134.80862 V 137.43362 Q 79.104376,138.51862 79.664376,139.13112 80.241876,139.74362 81.204376,139.74362 Z"
         style="font-size:17.5px"
         id="path874" />
      <path
         d="M 91.80935,141.10862 Q 90.05935,141.10862 89.00935,140.12862 87.95935,139.14862 87.95935,137.43362 V 134.80862 Q 87.95935,133.09362 89.00935,132.11362 90.05935,131.13362 91.80935,131.13362 93.47185,131.13362 94.48685,132.02612 95.51935,132.91862 95.57185,134.45862 H 93.99685 Q 93.94435,133.53112 93.36685,133.04112 92.78935,132.53362 91.80935,132.53362 90.77685,132.53362 90.14685,133.12862 89.53435,133.70612 89.53435,134.79112 V 137.43362 Q 89.53435,138.51862 90.14685,139.11362 90.77685,139.70862 91.80935,139.70862 92.78935,139.70862 93.36685,139.20112 93.94435,138.69362 93.99685,137.78362 H 95.57185 Q 95.51935,139.32362 94.48685,140.21612 93.47185,141.10862 91.80935,141.10862 Z"
         style="font-size:17.5px"
         id="path876" />
      <path
         d="M 101.60932,141.10862 Q 100.17432,141.10862 99.299323,140.14612 98.441823,139.18362 98.441823,137.53862 V 134.72112 Q 98.441823,133.05862 99.299323,132.09612 100.15682,131.13362 101.60932,131.13362 102.69432,131.13362 103.39432,131.67612 104.11182,132.21862 104.25182,133.14612 H 104.26932 L 104.23432,130.95862 V 128.15862 H 105.80932 V 140.93362 H 104.23432 V 139.09612 H 104.21682 Q 104.09432,140.04112 103.39432,140.58362 102.69432,141.10862 101.60932,141.10862 Z M 102.13432,139.74362 Q 103.11432,139.74362 103.67432,139.13112 104.23432,138.51862 104.23432,137.43362 V 134.80862 Q 104.23432,133.72362 103.67432,133.11112 103.11432,132.49862 102.13432,132.49862 101.13682,132.49862 100.57682,133.02362 100.01682,133.53112 100.01682,134.72112 V 137.52112 Q 100.01682,138.69362 100.57682,139.21862 101.13682,139.74362 102.13432,139.74362 Z"
         style="font-size:17.5px"
         id="path878" />
      <path
         d="M 112.6693,141.10862 Q 110.9718,141.10862 109.9218,140.09362 108.8893,139.06112 108.8893,137.25862 V 134.98362 Q 108.8893,133.18112 109.9218,132.16612 110.9718,131.13362 112.6693,131.13362 113.8068,131.13362 114.6468,131.58862 115.5043,132.04362 115.9768,132.86612 116.4493,133.68862 116.4493,134.80862 V 136.52362 H 110.4293 V 137.43362 Q 110.4293,138.50112 111.0418,139.13112 111.6543,139.74362 112.6693,139.74362 113.5443,139.74362 114.1043,139.41112 114.6818,139.06112 114.8043,138.48362 H 116.3793 Q 116.2218,139.69112 115.2068,140.40862 114.1918,141.10862 112.6693,141.10862 Z M 110.4293,135.29862 H 114.9093 V 134.80862 Q 114.9093,133.67112 114.3143,133.05862 113.7368,132.42862 112.6693,132.42862 111.6018,132.42862 111.0068,133.05862 110.4293,133.67112 110.4293,134.80862 Z"
         style="font-size:17.5px"
         id="path880" />
      <path
         d="M 121.68177,140.93362 V 134.05612 H 118.88177 V 132.62112 H 121.68177 V 130.60862 Q 121.68177,129.47112 122.39927,128.82362 123.11677,128.15862 124.37677,128.15862 H 127.19427 V 129.59362 H 124.37677 Q 123.25677,129.59362 123.25677,130.60862 V 132.62112 H 127.19427 V 134.05612 H 123.25677 V 140.93362 Z"
         style="font-size:17.5px"
         id="path882" />
      <path
         d="M 131.23674,144.08362 V 142.64862 H 133.94924 Q 134.77174,142.64862 135.24424,142.17612 135.71674,141.72112 135.71674,140.93362 V 140.05862 L 135.75174,138.48362 H 135.69924 Q 135.55924,139.34112 134.87674,139.81362 134.19424,140.26862 133.16174,140.26862 131.67424,140.26862 130.81674,139.32362 129.95924,138.37862 129.95924,136.73362 V 134.70362 Q 129.95924,133.05862 130.81674,132.09612 131.67424,131.13362 133.16174,131.13362 134.19424,131.13362 134.87674,131.62362 135.55924,132.11362 135.69924,132.97112 H 135.73424 V 131.30862 H 137.29174 V 140.93362 Q 137.29174,142.38612 136.38174,143.22612 135.48924,144.08362 133.93174,144.08362 Z M 133.63424,138.95612 Q 134.61424,138.95612 135.17424,138.34362 135.73424,137.73112 135.73424,136.64612 V 134.80862 Q 135.73424,133.72362 135.17424,133.11112 134.61424,132.49862 133.63424,132.49862 132.63674,132.49862 132.07674,133.07612 131.53424,133.65362 131.53424,134.63362 V 136.82112 Q 131.53424,137.80112 132.07674,138.37862 132.63674,138.95612 133.63424,138.95612 Z"
         style="font-size:17.5px"
         id="path884" />
      <path
         d="M 140.52922,140.93362 V 128.15862 H 142.10422 V 133.14612 H 142.12172 Q 142.24422,132.18362 142.90922,131.65862 143.57422,131.13362 144.67672,131.13362 146.12922,131.13362 146.98672,132.02612 147.84422,132.91862 147.84422,134.45862 V 140.93362 H 146.26922 V 134.72112 Q 146.26922,133.63612 145.70922,133.05862 145.16672,132.46362 144.22172,132.46362 143.24172,132.46362 142.66422,133.07612 142.10422,133.68862 142.10422,134.80862 V 140.93362 Z"
         style="font-size:17.5px"
         id="path886" />
      <path
         d="M 150.90669,140.93362 V 139.49862 H 154.31919 V 132.74362 H 151.25669 V 131.30862 H 155.89419 V 139.49862 H 159.13169 V 140.93362 Z M 154.93169,129.57612 Q 154.35419,129.57612 154.02169,129.27862 153.68919,128.98112 153.68919,128.47362 153.68919,127.94862 154.02169,127.65112 154.35419,127.33612 154.93169,127.33612 155.50919,127.33612 155.84169,127.65112 156.17419,127.94862 156.17419,128.47362 156.17419,128.98112 155.84169,129.27862 155.50919,129.57612 154.93169,129.57612 Z"
         style="font-size:17.5px"
         id="path888" />
      <path
         d="M 161.49416,144.08362 V 142.64862 H 163.66416 Q 164.74916,142.64862 165.34416,142.05362 165.95666,141.45862 165.95666,140.39112 V 132.74362 H 161.40666 V 131.30862 H 167.53166 V 140.39112 Q 167.53166,142.08862 166.48166,143.08612 165.43166,144.08362 163.66416,144.08362 Z M 166.56916,129.57612 Q 165.99166,129.57612 165.65916,129.27862 165.32666,128.98112 165.32666,128.47362 165.32666,127.94862 165.65916,127.65112 165.99166,127.33612 166.56916,127.33612 167.14666,127.33612 167.47916,127.65112 167.81166,127.94862 167.81166,128.47362 167.81166,128.98112 167.47916,129.27862 167.14666,129.57612 166.56916,129.57612 Z"
         style="font-size:17.5px"
         id="path890" />
      <path
         d="M 172.11664,140.93362 V 128.15862 H 173.69164 V 135.28112 H 175.52914 L 178.22414,131.30862 H 180.02664 L 176.92914,135.89362 180.20164,140.93362 H 178.36414 L 175.56414,136.64612 H 173.69164 V 140.93362 Z"
         style="font-size:17.5px"
         id="path892" />
      <path
         d="M 187.56911,140.93362 Q 186.29161,140.93362 185.52161,140.19862 184.76911,139.44612 184.76911,138.22112 V 129.59362 H 181.44411 V 128.15862 H 186.34411 V 138.22112 Q 186.34411,138.81612 186.67661,139.16612 187.00911,139.49862 187.56911,139.49862 H 190.54411 V 140.93362 Z"
         style="font-size:17.5px"
         id="path894" />
      <path
         d="M 192.46908,140.93362 V 131.30862 H 193.83408 V 132.58612 H 193.86908 Q 193.95658,131.93862 194.37658,131.53612 194.81408,131.13362 195.47908,131.13362 196.10908,131.13362 196.54658,131.50112 196.98408,131.86862 197.17658,132.49862 H 197.19408 Q 197.31658,131.86862 197.73658,131.50112 198.17408,131.13362 198.83908,131.13362 199.76658,131.13362 200.30908,131.83362 200.86908,132.51612 200.86908,133.61862 V 140.93362 H 199.39908 V 133.60112 Q 199.39908,133.02362 199.11908,132.69112 198.83908,132.34112 198.34908,132.34112 197.87658,132.34112 197.59658,132.67362 197.31658,133.00612 197.31658,133.58362 V 140.93362 H 196.02158 V 133.60112 Q 196.02158,133.02362 195.74158,132.69112 195.46158,132.34112 194.98908,132.34112 194.49908,132.34112 194.21908,132.67362 193.93908,133.00612 193.93908,133.58362 V 140.93362 Z"
         style="font-size:17.5px"
         id="path896" />
      <path
         d="M 203.52905,140.93362 V 131.30862 H 205.10405 V 133.14612 H 205.12155 Q 205.24405,132.18362 205.90905,131.65862 206.57405,131.13362 207.67655,131.13362 209.12905,131.13362 209.98655,132.02612 210.84405,132.91862 210.84405,134.45862 V 140.93362 H 209.26905 V 134.73862 Q 209.26905,133.63612 208.70905,133.05862 208.16655,132.46362 207.22155,132.46362 206.24155,132.46362 205.66405,133.07612 205.10405,133.68862 205.10405,134.80862 V 140.93362 Z"
         style="font-size:17.5px"
         id="path898" />
      <path
         d="M 217.66904,141.07362 Q 215.93654,141.07362 214.90404,140.05862 213.88904,139.04362 213.88904,137.22362 V 135.01862 Q 213.88904,133.18112 214.90404,132.18362 215.91904,131.16862 217.66904,131.16862 219.41904,131.16862 220.43404,132.18362 221.44904,133.18112 221.44904,135.01862 V 137.22362 Q 221.44904,139.04362 220.41654,140.05862 219.40154,141.07362 217.66904,141.07362 Z M 217.66904,139.67362 Q 218.70154,139.67362 219.27904,139.09612 219.87404,138.51862 219.87404,137.39862 V 134.84362 Q 219.87404,133.72362 219.27904,133.14612 218.70154,132.56862 217.66904,132.56862 216.65404,132.56862 216.05904,133.14612 215.46404,133.72362 215.46404,134.84362 V 137.39862 Q 215.46404,138.51862 216.05904,139.09612 216.65404,139.67362 217.66904,139.67362 Z"
         style="font-size:17.5px"
         id="path900" />
      <path
         d="M 224.52901,144.08362 V 131.30862 H 226.10401 V 133.14612 H 226.12151 Q 226.24401,132.20112 226.94401,131.67612 227.64401,131.13362 228.72901,131.13362 230.18151,131.13362 231.03901,132.09612 231.89651,133.04112 231.89651,134.70362 V 137.52112 Q 231.89651,139.18362 231.03901,140.14612 230.18151,141.10862 228.72901,141.10862 227.64401,141.10862 226.94401,140.56612 226.24401,140.02362 226.12151,139.09612 H 226.06901 L 226.10401,141.28362 V 144.08362 Z M 228.20401,139.74362 Q 229.20151,139.74362 229.76151,139.21862 230.32151,138.69362 230.32151,137.52112 V 134.72112 Q 230.32151,133.53112 229.76151,133.02362 229.20151,132.49862 228.20401,132.49862 227.24151,132.49862 226.66401,133.11112 226.10401,133.72362 226.10401,134.80862 V 137.43362 Q 226.10401,138.51862 226.66401,139.13112 227.24151,139.74362 228.20401,139.74362 Z"
         style="font-size:17.5px"
         id="path902" />
      <path
         d="M 240.73398,144.08362 V 141.28362 L 240.76898,139.09612 H 240.71648 Q 240.59398,140.02362 239.89398,140.56612 239.19398,141.10862 238.10898,141.10862 236.65648,141.10862 235.79898,140.14612 234.94148,139.18362 234.94148,137.52112 V 134.70362 Q 234.94148,133.04112 235.79898,132.09612 236.67398,131.13362 238.10898,131.13362 239.19398,131.13362 239.89398,131.67612 240.59398,132.20112 240.71648,133.14612 H 240.73398 V 131.30862 H 242.30898 V 144.08362 Z M 238.63398,139.74362 Q 239.61398,139.74362 240.17398,139.13112 240.73398,138.51862 240.73398,137.43362 V 134.80862 Q 240.73398,133.72362 240.17398,133.11112 239.61398,132.49862 238.63398,132.49862 237.63648,132.49862 237.07648,133.00612 236.51648,133.51362 236.51648,134.63362 V 137.60862 Q 236.51648,138.72862 237.07648,139.23612 237.63648,139.74362 238.63398,139.74362 Z"
         style="font-size:17.5px"
         id="path904" />
      <path
         d="M 245.87895,140.93362 V 131.30862 H 247.45395 V 133.14612 H 247.48895 Q 247.61145,132.21862 248.27645,131.67612 248.94145,131.13362 250.06145,131.13362 251.56645,131.13362 252.37145,132.04362 253.19395,132.93612 253.19395,134.59862 V 135.42112 H 251.61895 V 134.59862 Q 251.61895,132.49862 249.57145,132.49862 248.53895,132.49862 247.99645,133.09362 247.45395,133.68862 247.45395,134.80862 V 140.93362 Z"
         style="font-size:17.5px"
         id="path906" />
      <path
         d="M 259.28391,141.07362 Q 257.67391,141.07362 256.78141,140.35612 255.90641,139.62112 255.90641,138.29112 H 257.48141 Q 257.48141,138.95612 257.95391,139.34112 258.42641,139.70862 259.28391,139.70862 H 260.05391 Q 260.92891,139.70862 261.40141,139.32362 261.89141,138.93862 261.89141,138.23862 261.89141,136.99612 260.75391,136.83862 L 258.09391,136.45362 Q 257.11391,136.31362 256.57141,135.64862 256.02891,134.96612 256.02891,133.86362 256.02891,132.60362 256.88641,131.88612 257.76141,131.16862 259.28391,131.16862 H 260.05391 Q 261.45391,131.16862 262.32891,131.86862 263.22141,132.55112 263.29141,133.67112 H 261.69891 Q 261.66391,133.16362 261.20891,132.83112 260.77141,132.49862 260.05391,132.49862 H 259.28391 Q 258.47891,132.49862 258.02391,132.86612 257.56891,133.23362 257.56891,133.86362 257.56891,134.87862 258.49641,135.01862 L 260.98141,135.36862 Q 263.43141,135.71862 263.43141,138.23862 263.43141,139.58612 262.53891,140.33862 261.66391,141.07362 260.05391,141.07362 Z"
         style="font-size:17.5px"
         id="path908" />
      <path
         d="M 271.1314,140.93362 Q 269.9414,140.93362 269.2239,140.25112 268.5064,139.55112 268.5064,138.39612 V 132.74362 H 265.7414 V 131.30862 H 268.5064 V 128.59612 H 270.0814 V 131.30862 H 274.0189 V 132.74362 H 270.0814 V 138.39612 Q 270.0814,138.88612 270.3614,139.20112 270.6589,139.49862 271.1314,139.49862 H 273.9314 V 140.93362 Z"
         style="font-size:17.5px"
         id="path910" />
      <path
         d="M 280.65137,141.10862 Q 278.98887,141.10862 277.99137,140.12862 276.99387,139.13112 276.99387,137.43362 V 131.30862 H 278.56887 V 137.43362 Q 278.56887,138.48362 279.12887,139.11362 279.68887,139.72612 280.65137,139.72612 281.63137,139.72612 282.19137,139.11362 282.76887,138.48362 282.76887,137.43362 V 131.30862 H 284.34387 V 137.43362 Q 284.34387,139.13112 283.32887,140.12862 282.31387,141.10862 280.65137,141.10862 Z"
         style="font-size:17.5px"
         id="path912" />
      <path
         d="M 290.13634,140.93362 286.86384,131.30862 H 288.56134 L 290.66134,137.78362 Q 290.85384,138.36112 290.99384,138.90362 291.13384,139.42862 291.20384,139.72612 291.29134,139.42862 291.41384,138.90362 291.53634,138.36112 291.71134,137.78362 L 293.81134,131.30862 H 295.47384 L 292.20134,140.93362 Z"
         style="font-size:17.5px"
         id="path914" />
      <path
         d="M 298.53632,140.93362 296.96132,131.30862 H 298.32632 L 299.30632,138.09862 Q 299.35882,138.48362 299.41132,138.95612 299.46382,139.41112 299.48132,139.70862 299.51632,139.41112 299.55132,138.95612 299.60382,138.48362 299.67382,138.09862 L 300.88132,131.30862 H 302.45632 L 303.66382,138.09862 Q 303.73382,138.48362 303.78632,138.95612 303.85632,139.41112 303.87382,139.70862 303.90882,139.41112 303.96132,138.95612 304.01382,138.48362 304.06632,138.09862 L 305.08132,131.30862 H 306.37632 L 304.73132,140.93362 H 302.99882 L 301.89632,134.28362 Q 301.82632,133.79362 301.75632,133.25112 301.70382,132.69112 301.66882,132.39362 301.65132,132.69112 301.58132,133.25112 301.51132,133.79362 301.42382,134.28362 L 300.26882,140.93362 Z"
         style="font-size:17.5px"
         id="path916" />
      <path
         d="M 307.79379,140.93362 311.20629,135.98112 308.00379,131.30862 H 309.85879 L 311.76629,134.28362 Q 311.88879,134.47612 311.99379,134.70362 312.11629,134.93112 312.18629,135.07112 312.23879,134.93112 312.34379,134.70362 312.46629,134.47612 312.58879,134.28362 L 314.49629,131.30862 H 316.35129 L 313.14879,135.99862 316.54379,140.93362 H 314.68879 L 312.62379,137.78362 Q 312.50129,137.59112 312.37879,137.34612 312.27379,137.08362 312.18629,136.92612 312.11629,137.08362 311.97629,137.34612 311.85379,137.59112 311.71379,137.78362 L 309.64879,140.93362 Z"
         style="font-size:17.5px"
         id="path918" />
      <path
         d="M 320.53376,144.08362 321.95126,140.33862 318.36376,131.30862 H 320.06126 L 322.33626,137.25862 Q 322.47626,137.60862 322.59876,137.99362 322.72126,138.37862 322.77376,138.65862 322.82626,138.37862 322.94876,137.99362 323.07126,137.60862 323.19376,137.25862 L 325.31126,131.30862 H 326.97376 L 322.17876,144.08362 Z"
         style="font-size:17.5px"
         id="path920" />
      <path
         d="M 329.49373,140.93362 V 139.35862 L 334.88373,132.74362 H 329.63373 V 131.30862 H 336.65123 V 132.88362 L 331.15623,139.49862 H 336.84373 V 140.93362 Z"
         style="font-size:17.5px"
         id="path922" />
      <path
         d="M 66.294403,162.80862 69.619403,150.03362 H 71.736903 L 75.044403,162.80862 H 73.451903 L 72.611903,159.41362 H 68.744403 L 67.904403,162.80862 Z M 69.059403,158.08362 H 72.279403 L 71.299403,154.14612 Q 71.019403,153.02612 70.861903,152.27362 70.704403,151.52112 70.669403,151.29362 70.634403,151.52112 70.476903,152.27362 70.319403,153.02612 70.039403,154.12862 Z"
         style="font-size:17.5px"
         id="path924" />
      <path
         d="M 77.546876,162.80862 V 150.03362 H 81.169376 Q 82.919376,150.03362 83.899376,150.90862 84.896876,151.78362 84.896876,153.34112 84.896876,154.32112 84.266876,155.10862 83.654376,155.89612 82.656876,156.08862 V 156.14112 Q 83.409376,156.22862 83.969376,156.66612 84.546876,157.10362 84.861876,157.78612 85.194376,158.45112 85.194376,159.25612 85.194376,160.90112 84.179376,161.86362 83.181876,162.80862 81.431876,162.80862 Z M 79.086876,155.47612 H 81.151876 Q 82.166876,155.47612 82.744376,154.93362 83.339376,154.39112 83.339376,153.46362 83.339376,152.53612 82.761876,151.99362 82.184376,151.45112 81.169376,151.45112 H 79.086876 Z M 79.086876,161.39112 H 81.256876 Q 82.359376,161.39112 82.989376,160.81362 83.636876,160.21862 83.636876,159.20362 83.636876,158.15362 82.989376,157.50612 82.359376,156.84112 81.256876,156.84112 H 79.086876 Z"
         style="font-size:17.5px"
         id="path926" />
      <path
         d="M 91.80935,162.98362 Q 90.05935,162.98362 89.04435,162.00362 88.02935,161.02362 88.02935,159.30862 V 153.53362 Q 88.02935,151.81862 89.04435,150.83862 90.05935,149.85862 91.80935,149.85862 93.52435,149.85862 94.53935,150.85612 95.55435,151.83612 95.55435,153.53362 H 93.97935 Q 93.97935,152.44862 93.40185,151.87112 92.84185,151.27612 91.80935,151.27612 90.77685,151.27612 90.18185,151.87112 89.60435,152.44862 89.60435,153.53362 V 159.30862 Q 89.60435,160.39362 90.18185,160.98862 90.77685,161.56612 91.80935,161.56612 92.84185,161.56612 93.40185,160.98862 93.97935,160.39362 93.97935,159.30862 H 95.55435 Q 95.55435,161.00612 94.53935,162.00362 93.52435,162.98362 91.80935,162.98362 Z"
         style="font-size:17.5px"
         id="path928" />
      <path
         d="M 98.529323,162.80862 V 150.03362 H 101.83682 Q 103.07932,150.03362 103.97182,150.50612 104.88182,150.97862 105.37182,151.83612 105.87932,152.69362 105.87932,153.86612 V 158.95862 Q 105.87932,160.13112 105.37182,161.00612 104.88182,161.86362 103.97182,162.33612 103.07932,162.80862 101.83682,162.80862 Z M 100.10432,161.40862 H 101.83682 Q 102.99182,161.40862 103.63932,160.76112 104.30432,160.11362 104.30432,158.95862 V 153.86612 Q 104.30432,152.72862 103.63932,152.08112 102.99182,151.43362 101.83682,151.43362 H 100.10432 Z"
         style="font-size:17.5px"
         id="path930" />
      <path
         d="M 109.1693,162.80862 V 150.03362 H 116.5193 V 151.46862 H 110.7268 V 155.42362 H 115.9068 V 156.82362 H 110.7268 V 161.37362 H 116.5193 V 162.80862 Z"
         style="font-size:17.5px"
         id="path932" />
      <path
         d="M 119.58177,162.80862 V 150.03362 H 127.10677 V 151.46862 H 121.12177 V 155.70362 H 126.65177 V 157.13862 H 121.15677 V 162.80862 Z"
         style="font-size:17.5px"
         id="path934" />
      <path
         d="M 133.73924,162.98362 Q 131.98924,162.98362 130.97424,162.00362 129.95924,161.02362 129.95924,159.30862 V 153.53362 Q 129.95924,151.81862 130.97424,150.83862 131.98924,149.85862 133.73924,149.85862 135.45424,149.85862 136.46924,150.85612 137.48424,151.83612 137.48424,153.53362 H 135.90924 Q 135.90924,152.44862 135.33174,151.87112 134.77174,151.27612 133.73924,151.27612 132.70674,151.27612 132.11174,151.85362 131.53424,152.43112 131.53424,153.51612 V 159.30862 Q 131.53424,160.39362 132.11174,160.98862 132.70674,161.58362 133.73924,161.58362 134.77174,161.58362 135.33174,160.98862 135.90924,160.39362 135.90924,159.30862 V 157.55862 H 133.31924 V 156.12362 H 137.48424 V 159.30862 Q 137.48424,161.00612 136.46924,162.00362 135.45424,162.98362 133.73924,162.98362 Z"
         style="font-size:17.5px"
         id="path936" />
      <path
         d="M 140.54672,162.80862 V 150.03362 H 142.12172 V 155.49362 H 146.21672 V 150.03362 H 147.79172 V 162.80862 H 146.21672 V 156.92862 H 142.12172 V 162.80862 Z"
         style="font-size:17.5px"
         id="path938" />
      <path
         d="M 151.25669,162.80862 V 161.37362 H 153.86419 V 151.46862 H 151.25669 V 150.03362 H 158.08169 V 151.46862 H 155.47419 V 161.37362 H 158.08169 V 162.80862 Z"
         style="font-size:17.5px"
         id="path940" />
      <path
         d="M 164.64416,162.98362 Q 162.80666,162.98362 161.75666,161.95112 160.70666,160.91862 160.70666,159.13362 H 162.28166 Q 162.28166,160.30612 162.89416,160.95362 163.52416,161.58362 164.64416,161.58362 165.76416,161.58362 166.37666,160.95362 167.00666,160.30612 167.00666,159.13362 V 150.03362 H 168.58166 V 159.13362 Q 168.58166,160.91862 167.51416,161.95112 166.46416,162.98362 164.64416,162.98362 Z"
         style="font-size:17.5px"
         id="path942" />
      <path
         d="M 172.02914,162.80862 V 150.03362 H 173.60414 V 155.52862 H 175.49414 L 178.32914,150.03362 H 180.04414 L 176.87664,156.19362 180.21914,162.80862 H 178.41664 L 175.44164,156.91112 H 173.60414 V 162.80862 Z"
         style="font-size:17.5px"
         id="path944" />
      <path
         d="M 183.19411,162.80862 V 150.03362 H 184.76911 V 161.37362 H 190.54411 V 162.80862 Z"
         style="font-size:17.5px"
         id="path946" />
      <path
         d="M 192.67908,162.80862 V 150.03362 H 195.00658 L 196.63408,155.56362 198.33158,150.03362 H 200.65908 V 162.80862 H 199.13658 V 156.77112 Q 199.13658,155.91362 199.15408,154.81112 199.18908,153.69112 199.24158,152.55362 199.29408,151.41612 199.36408,150.50612 L 197.29908,157.10362 H 195.93408 L 193.95658,150.66362 Q 194.09658,151.95862 194.14908,153.49862 194.20158,155.03862 194.20158,156.77112 V 162.80862 Z"
         style="font-size:17.5px"
         id="path948" />
      <path
         d="M 203.49405,162.80862 V 150.03362 H 205.59405 L 209.49655,160.97112 Q 209.46155,160.53362 209.40905,159.90362 209.37405,159.25612 209.33905,158.55612 209.32155,157.83862 209.32155,157.20862 V 150.03362 H 210.84405 V 162.80862 H 208.74405 L 204.85905,151.87112 Q 204.89405,152.29112 204.92905,152.93862 204.96405,153.56862 204.98155,154.28612 205.01655,154.98612 205.01655,155.63362 V 162.80862 Z"
         style="font-size:17.5px"
         id="path950" />
      <path
         d="M 217.66904,162.98362 Q 215.95404,162.98362 214.95654,161.98612 213.95904,160.98862 213.95904,159.13362 V 153.70862 Q 213.95904,151.85362 214.95654,150.85612 215.95404,149.85862 217.66904,149.85862 219.38404,149.85862 220.38154,150.85612 221.37904,151.85362 221.37904,153.69112 V 159.13362 Q 221.37904,160.98862 220.38154,161.98612 219.38404,162.98362 217.66904,162.98362 Z M 217.66904,161.56612 Q 218.70154,161.56612 219.24404,160.98862 219.80404,160.39362 219.80404,159.30862 V 153.53362 Q 219.80404,152.44862 219.24404,151.87112 218.70154,151.27612 217.66904,151.27612 216.65404,151.27612 216.09404,151.87112 215.53404,152.44862 215.53404,153.53362 V 159.30862 Q 215.53404,160.39362 216.09404,160.98862 216.65404,161.56612 217.66904,161.56612 Z"
         style="font-size:17.5px"
         id="path952" />
      <path
         d="M 224.52901,162.80862 V 150.03362 H 228.64151 Q 230.42651,150.03362 231.47651,151.06612 232.54401,152.08112 232.54401,153.79612 232.54401,155.51112 231.47651,156.54362 230.42651,157.55862 228.64151,157.55862 H 226.10401 V 162.80862 Z M 226.10401,156.14112 H 228.64151 Q 229.67401,156.14112 230.28651,155.51112 230.91651,154.86362 230.91651,153.79612 230.91651,152.71112 230.28651,152.08112 229.67401,151.45112 228.64151,151.45112 H 226.10401 Z"
         style="font-size:17.5px"
         id="path954" />
      <path
         d="M 240.80398,165.95862 239.00148,162.96612 Q 238.93148,162.96612 238.84398,162.96612 238.75648,162.98362 238.66898,162.98362 236.90148,162.98362 235.85148,161.96862 234.81898,160.93612 234.81898,159.22112 V 153.62112 Q 234.81898,151.90612 235.85148,150.89112 236.90148,149.85862 238.66898,149.85862 240.43648,149.85862 241.46898,150.89112 242.51898,151.90612 242.51898,153.62112 V 159.22112 Q 242.51898,160.39362 242.01148,161.26862 241.50398,162.14362 240.57648,162.58112 L 242.62398,165.95862 Z M 238.66898,161.58362 Q 239.70148,161.58362 240.31398,160.93612 240.94398,160.28862 240.94398,159.22112 V 153.62112 Q 240.94398,152.53612 240.31398,151.90612 239.70148,151.25862 238.66898,151.25862 237.63648,151.25862 237.00648,151.90612 236.39398,152.53612 236.39398,153.62112 V 159.22112 Q 236.39398,160.28862 237.00648,160.93612 237.63648,161.58362 238.66898,161.58362 Z"
         style="font-size:17.5px"
         id="path956" />
      <path
         d="M 245.54645,162.80862 V 150.03362 H 249.48395 Q 250.62145,150.03362 251.47895,150.50612 252.33645,150.96112 252.80895,151.78362 253.28145,152.60612 253.28145,153.70862 253.28145,155.00362 252.61645,155.93112 251.95145,156.85862 250.84895,157.22612 L 253.45645,162.80862 H 251.72395 L 249.22145,157.38362 H 247.10395 V 162.80862 Z M 247.10395,155.96612 H 249.48395 Q 250.46395,155.96612 251.05895,155.35362 251.65395,154.72362 251.65395,153.70862 251.65395,152.67612 251.05895,152.06362 250.46395,151.45112 249.48395,151.45112 H 247.10395 Z"
         style="font-size:17.5px"
         id="path958" />
      <path
         d="M 259.73891,162.98362 Q 257.88391,162.98362 256.78141,162.00362 255.67891,161.02362 255.67891,159.30862 H 257.25391 Q 257.25391,160.37612 257.93641,160.98862 258.61891,161.58362 259.73891,161.58362 260.82391,161.58362 261.47141,160.95362 262.11891,160.32362 262.11891,159.30862 262.11891,158.53862 261.69891,157.97862 261.29641,157.40112 260.52641,157.19112 L 258.58391,156.64862 Q 257.37641,156.29862 256.67641,155.40612 255.99391,154.49612 255.99391,153.27112 255.99391,152.25612 256.44891,151.48612 256.90391,150.71612 257.72641,150.29612 258.54891,149.85862 259.61641,149.85862 260.70141,149.85862 261.52391,150.29612 262.36391,150.71612 262.83641,151.48612 263.30891,152.23862 263.30891,153.23612 H 261.73391 Q 261.73391,152.36112 261.13891,151.81862 260.54391,151.25862 259.61641,151.25862 258.68891,151.25862 258.11141,151.81862 257.53391,152.36112 257.53391,153.23612 257.53391,153.93612 257.90141,154.44362 258.28641,154.93362 258.96891,155.12612 L 260.96391,155.68612 Q 262.24141,156.03612 262.94141,157.01612 263.65891,157.97862 263.65891,159.30862 263.65891,160.98862 262.59141,161.98612 261.52391,162.98362 259.73891,162.98362 Z"
         style="font-size:17.5px"
         id="path960" />
      <path
         d="M 269.3814,162.80862 V 151.46862 H 265.8814 V 150.03362 H 274.4564 V 151.46862 H 270.9564 V 162.80862 Z"
         style="font-size:17.5px"
         id="path962" />
      <path
         d="M 280.66887,162.98362 Q 278.88387,162.98362 277.93887,162.00362 276.99387,161.00612 276.99387,159.30862 V 150.03362 H 278.56887 V 159.30862 Q 278.56887,160.35862 279.07637,160.97112 279.60137,161.58362 280.66887,161.58362 281.71887,161.58362 282.24387,160.97112 282.76887,160.35862 282.76887,159.30862 V 150.03362 H 284.34387 V 159.30862 Q 284.34387,161.02362 283.39887,162.00362 282.47137,162.98362 280.66887,162.98362 Z"
         style="font-size:17.5px"
         id="path964" />
      <path
         d="M 290.08384,162.80862 286.79384,150.03362 H 288.40384 L 290.59134,158.73112 Q 290.81884,159.64112 290.95884,160.41112 291.11634,161.18112 291.18634,161.58362 291.25634,161.18112 291.41384,160.41112 291.58884,159.62362 291.81634,158.71362 L 293.91634,150.03362 H 295.54384 L 292.23634,162.80862 Z"
         style="font-size:17.5px"
         id="path966" />
      <path
         d="M 298.29132,162.80862 296.76882,150.03362 H 298.22132 L 299.21882,159.48362 Q 299.28882,160.06112 299.32382,160.69112 299.35882,161.30362 299.37632,161.67112 299.41132,161.30362 299.46382,160.69112 299.53382,160.06112 299.60382,159.48362 L 300.86382,150.03362 H 302.56132 L 303.71632,159.48362 Q 303.78632,160.06112 303.85632,160.69112 303.92632,161.30362 303.96132,161.67112 303.99632,161.30362 304.03132,160.69112 304.08382,160.06112 304.15382,159.48362 L 305.18632,150.03362 H 306.56882 L 305.01132,162.80862 H 303.03382 L 301.87882,153.18362 Q 301.80882,152.58862 301.77382,152.02862 301.73882,151.45112 301.70382,151.13612 301.66882,151.45112 301.63382,152.02862 301.59882,152.58862 301.51132,153.18362 L 300.26882,162.80862 Z"
         style="font-size:17.5px"
         id="path968" />
      <path
         d="M 307.61879,162.80862 311.29379,156.33362 307.81129,150.03362 H 309.63129 L 311.60879,153.81362 Q 311.76629,154.11112 311.92379,154.46112 312.09879,154.79362 312.20379,154.98612 312.29129,154.79362 312.44879,154.46112 312.62379,154.11112 312.78129,153.81362 L 314.79379,150.03362 H 316.52629 L 313.04379,156.22862 316.71879,162.80862 H 314.91629 L 312.72879,158.74862 Q 312.57129,158.45112 312.39629,158.11862 312.23879,157.76862 312.15129,157.55862 312.06379,157.76862 311.88879,158.10112 311.73129,158.43362 311.57379,158.73112 L 309.36879,162.80862 Z"
         style="font-size:17.5px"
         id="path970" />
      <path
         d="M 321.88126,162.80862 V 158.03112 L 318.03126,150.03362 H 319.71126 L 322.19626,155.28362 Q 322.40626,155.72112 322.52876,156.03612 322.65126,156.33362 322.68626,156.47362 322.72126,156.33362 322.84376,156.03612 322.98376,155.72112 323.19376,155.28362 L 325.67876,150.03362 H 327.30626 L 323.45626,158.03112 V 162.80862 Z"
         style="font-size:17.5px"
         id="path972" />
      <path
         d="M 329.40623,162.80862 V 161.23362 L 335.16373,151.46862 H 329.49373 V 150.03362 H 336.75623 V 151.60862 L 330.99873,161.37362 H 336.93123 V 162.80862 Z"
         style="font-size:17.5px"
         id="path974" />
      <path
         d="M 70.669403,184.82362 Q 68.936903,184.82362 67.904403,183.80862 66.889403,182.79362 66.889403,180.97362 V 178.76862 Q 66.889403,176.93112 67.904403,175.93362 68.919403,174.91862 70.669403,174.91862 72.419403,174.91862 73.434403,175.93362 74.449403,176.93112 74.449403,178.76862 V 180.97362 Q 74.449403,182.79362 73.416903,183.80862 72.401903,184.82362 70.669403,184.82362 Z M 70.669403,183.42362 Q 71.701903,183.42362 72.279403,182.84612 72.874403,182.26862 72.874403,181.14862 V 178.59362 Q 72.874403,177.47362 72.279403,176.89612 71.701903,176.31862 70.669403,176.31862 69.654403,176.31862 69.059403,176.89612 68.464403,177.47362 68.464403,178.59362 V 181.14862 Q 68.464403,182.26862 69.059403,182.84612 69.654403,183.42362 70.669403,183.42362 Z"
         style="font-size:17.5px"
         id="path976" />
      <path
         d="M 81.169376,184.85862 Q 79.454376,184.85862 78.456876,183.86112 77.459376,182.86362 77.459376,181.00862 V 175.58362 Q 77.459376,173.72862 78.456876,172.73112 79.454376,171.73362 81.169376,171.73362 82.884376,171.73362 83.881876,172.73112 84.879376,173.72862 84.879376,175.56612 V 181.00862 Q 84.879376,182.86362 83.881876,183.86112 82.884376,184.85862 81.169376,184.85862 Z M 81.169376,183.44112 Q 82.201876,183.44112 82.744376,182.86362 83.304376,182.26862 83.304376,181.18362 V 175.40862 Q 83.304376,174.32362 82.744376,173.74612 82.201876,173.15112 81.169376,173.15112 80.154376,173.15112 79.594376,173.74612 79.034376,174.32362 79.034376,175.40862 V 181.18362 Q 79.034376,182.26862 79.594376,182.86362 80.154376,183.44112 81.169376,183.44112 Z"
         style="font-size:17.5px"
         id="path978" />
      <path
         d="M 91.66935,184.85862 Q 89.90185,184.85862 88.85185,183.84362 87.81935,182.81112 87.81935,181.09612 V 175.49612 Q 87.81935,173.78112 88.85185,172.76612 89.90185,171.73362 91.66935,171.73362 93.43685,171.73362 94.46935,172.76612 95.51935,173.78112 95.51935,175.49612 V 181.09612 Q 95.51935,182.23362 95.04685,183.09112 94.57435,183.93112 93.69935,184.40362 92.84185,184.85862 91.66935,184.85862 Z M 91.66935,183.51112 Q 92.71935,183.51112 93.34935,182.84612 93.99685,182.16362 93.99685,181.09612 V 175.49612 Q 93.99685,174.42862 93.34935,173.76362 92.71935,173.08112 91.66935,173.08112 90.61935,173.08112 89.97185,173.76362 89.34185,174.42862 89.34185,175.49612 V 181.09612 Q 89.34185,182.16362 89.97185,182.84612 90.61935,183.51112 91.66935,183.51112 Z M 91.66935,179.25862 Q 91.19685,179.25862 90.89935,178.99612 90.61935,178.73362 90.61935,178.24362 90.61935,177.77112 90.89935,177.52612 91.19685,177.26362 91.66935,177.26362 92.14185,177.26362 92.42185,177.52612 92.71935,177.77112 92.71935,178.24362 92.71935,178.73362 92.42185,178.99612 92.14185,179.25862 91.66935,179.25862 Z"
         style="font-size:17.5px"
         id="path980" />
      <path
         d="M 102.16932,184.85862 Q 100.96182,184.85862 100.03432,184.38612 99.106823,183.91362 98.581823,183.07362 98.074323,182.21612 98.074323,181.11362 98.074323,179.90612 98.756823,179.03112 99.456823,178.15612 100.61182,177.96362 V 177.91112 Q 99.614323,177.68362 99.019323,176.91362 98.424323,176.12612 98.424323,175.11112 98.424323,174.11362 98.896823,173.36112 99.369323,172.59112 100.20932,172.17112 101.06682,171.73362 102.16932,171.73362 103.28932,171.73362 104.12932,172.17112 104.96932,172.59112 105.44182,173.36112 105.91432,174.11362 105.91432,175.11112 105.91432,176.12612 105.31932,176.91362 104.72432,177.68362 103.72682,177.91112 V 177.96362 Q 104.88182,178.15612 105.56432,179.03112 106.26432,179.90612 106.26432,181.11362 106.26432,182.21612 105.73932,183.07362 105.23182,183.91362 104.30432,184.38612 103.39432,184.85862 102.16932,184.85862 Z M 102.16932,177.29862 Q 103.14932,177.29862 103.74432,176.72112 104.33932,176.14362 104.33932,175.21612 104.33932,174.28862 103.74432,173.71112 103.14932,173.13362 102.16932,173.13362 101.20682,173.13362 100.59432,173.71112 99.999323,174.28862 99.999323,175.21612 99.999323,176.14362 100.59432,176.72112 101.20682,177.29862 102.16932,177.29862 Z M 102.16932,183.44112 Q 103.28932,183.44112 103.98932,182.79362 104.68932,182.12862 104.68932,181.07862 104.68932,180.01112 103.98932,179.36362 103.28932,178.69862 102.16932,178.69862 101.04932,178.69862 100.34932,179.36362 99.649323,180.01112 99.649323,181.07862 99.649323,182.12862 100.34932,182.79362 101.04932,183.44112 102.16932,183.44112 Z"
         style="font-size:17.5px"
         id="path982" />
      <path
         d="M 119.40677,184.68362 V 183.24862 H 122.81927 V 176.49362 H 119.75677 V 175.05862 H 124.39427 V 183.24862 H 127.63177 V 184.68362 Z M 123.43177,173.32612 Q 122.85427,173.32612 122.52177,173.02862 122.18927,172.73112 122.18927,172.22362 122.18927,171.69862 122.52177,171.40112 122.85427,171.08612 123.43177,171.08612 124.00927,171.08612 124.34177,171.40112 124.67427,171.69862 124.67427,172.22362 124.67427,172.73112 124.34177,173.02862 124.00927,173.32612 123.43177,173.32612 Z"
         style="font-size:17.5px"
         id="path984" />
      <path
         d="M 130.25674,184.68362 V 183.24862 H 132.86424 V 173.34362 H 130.25674 V 171.90862 H 137.08174 V 173.34362 H 134.47424 V 183.24862 H 137.08174 V 184.68362 Z"
         style="font-size:17.5px"
         id="path986" />
      <path
         d="M 145.56922,184.68362 Q 144.29172,184.68362 143.52172,183.94862 142.76922,183.19612 142.76922,181.97112 V 173.34362 H 139.44422 V 171.90862 H 144.34422 V 181.97112 Q 144.34422,182.56612 144.67672,182.91612 145.00922,183.24862 145.56922,183.24862 H 148.54422 V 184.68362 Z"
         style="font-size:17.5px"
         id="path988" />
      <path
         d="M 151.69419,184.68362 V 171.90862 H 153.26919 V 183.24862 H 159.04419 V 184.68362 Z"
         style="font-size:17.5px"
         id="path990" />
      <path
         d="M 161.49416,184.68362 V 183.24862 H 164.95916 V 173.27362 L 161.49416,175.86362 V 174.06112 L 164.38166,171.90862 H 166.53416 V 183.24862 H 169.36916 V 184.68362 Z"
         style="font-size:17.5px"
         id="path992" />
      <path
         d="M 188.96911,186.60862 Q 187.42911,186.60862 186.51911,185.83862 185.60911,185.08612 185.73161,183.70362 L 185.99411,180.83362 Q 186.08161,179.90612 185.73161,179.50362 185.38161,179.08362 184.24411,179.08362 H 182.23161 V 177.68362 H 184.24411 Q 185.38161,177.68362 185.73161,177.28112 186.08161,176.86112 185.99411,175.93362 L 185.73161,173.06362 Q 185.60911,171.68112 186.51911,170.92862 187.42911,170.15862 188.96911,170.15862 H 189.75661 V 171.55862 H 188.96911 Q 188.14661,171.55862 187.69161,171.94362 187.23661,172.31112 187.30661,173.06362 L 187.56911,175.93362 Q 187.65661,176.96612 187.07911,177.59612 186.50161,178.20862 185.18911,178.33112 186.50161,178.45362 187.07911,179.13612 187.65661,179.81862 187.56911,180.83362 L 187.30661,183.70362 Q 187.23661,184.45612 187.69161,184.82362 188.14661,185.20862 188.96911,185.20862 H 189.75661 V 186.60862 Z"
         style="font-size:17.5px"
         id="path994" />
      <path
         d="M 193.08158,186.60862 V 185.20862 H 193.86908 Q 194.69158,185.20862 195.16408,184.82362 195.65408,184.45612 195.53158,183.70362 L 195.09408,180.83362 Q 194.93658,179.83612 195.44408,179.15362 195.95158,178.45362 196.84408,178.29612 195.95158,178.15612 195.44408,177.54362 194.93658,176.93112 195.09408,175.93362 L 195.53158,173.06362 Q 195.65408,172.31112 195.16408,171.94362 194.69158,171.55862 193.86908,171.55862 H 193.08158 V 170.15862 H 193.86908 Q 194.90158,170.15862 195.67158,170.50862 196.45908,170.84112 196.84408,171.48862 197.24658,172.13612 197.10658,173.06362 L 196.66908,175.93362 Q 196.52908,176.86112 196.89658,177.28112 197.28158,177.68362 198.41908,177.68362 H 200.60658 V 179.08362 H 198.41908 Q 197.29908,179.08362 196.91408,179.50362 196.52908,179.90612 196.66908,180.83362 L 197.10658,183.70362 Q 197.24658,184.61362 196.84408,185.26112 196.45908,185.92612 195.67158,186.25862 194.90158,186.60862 193.86908,186.60862 Z"
         style="font-size:17.5px"
         id="path996" />
      <path
         d="M 216.00654,186.60862 V 170.15862 H 220.29404 V 171.55862 H 217.58154 V 185.20862 H 220.29404 V 186.60862 Z"
         style="font-size:17.5px"
         id="path998" />
      <path
         d="M 225.54401,186.60862 V 185.20862 H 228.25651 V 171.55862 H 225.54401 V 170.15862 H 229.83151 V 186.60862 Z"
         style="font-size:17.5px"
         id="path1000" />
      <path
         d="M 246.73645,187.83362 V 186.39862 H 249.44895 Q 250.27145,186.39862 250.74395,185.92612 251.21645,185.47112 251.21645,184.68362 V 183.80862 L 251.25145,182.23362 H 251.19895 Q 251.05895,183.09112 250.37645,183.56362 249.69395,184.01862 248.66145,184.01862 247.17395,184.01862 246.31645,183.07362 245.45895,182.12862 245.45895,180.48362 V 178.45362 Q 245.45895,176.80862 246.31645,175.84612 247.17395,174.88362 248.66145,174.88362 249.69395,174.88362 250.37645,175.37362 251.05895,175.86362 251.19895,176.72112 H 251.23395 V 175.05862 H 252.79145 V 184.68362 Q 252.79145,186.13612 251.88145,186.97612 250.98895,187.83362 249.43145,187.83362 Z M 249.13395,182.70612 Q 250.11395,182.70612 250.67395,182.09362 251.23395,181.48112 251.23395,180.39612 V 178.55862 Q 251.23395,177.47362 250.67395,176.86112 250.11395,176.24862 249.13395,176.24862 248.13645,176.24862 247.57645,176.82612 247.03395,177.40362 247.03395,178.38362 V 180.57112 Q 247.03395,181.55112 247.57645,182.12862 248.13645,182.70612 249.13395,182.70612 Z"
         style="font-size:17.5px"
         id="path1002" />
      <path
         d="M 257.83141,184.68362 260.98141,179.20612 260.92891,179.17112 Q 260.75391,179.45112 260.28141,179.62612 259.80891,179.78362 259.24891,179.78362 258.14641,179.78362 257.30641,179.29362 256.48391,178.78612 256.01141,177.91112 255.53891,177.03612 255.53891,175.88112 255.53891,174.63862 256.06391,173.71112 256.58891,172.78362 257.51641,172.25862 258.44391,171.73362 259.65141,171.73362 260.89391,171.73362 261.82141,172.25862 262.74891,172.76612 263.27391,173.69362 263.79891,174.60362 263.79891,175.81112 263.79891,176.65112 263.48391,177.54362 263.16891,178.41862 262.62641,179.38112 L 259.66891,184.68362 Z M 259.66891,178.55862 Q 260.80641,178.55862 261.50641,177.80612 262.22391,177.05362 262.22391,175.84612 262.22391,174.63862 261.50641,173.88612 260.80641,173.13362 259.66891,173.13362 258.53141,173.13362 257.81391,173.88612 257.11391,174.63862 257.11391,175.84612 257.11391,177.05362 257.81391,177.80612 258.53141,178.55862 259.66891,178.55862 Z"
         style="font-size:17.5px"
         id="path1004" />
      <path
         d="M 272.2339,187.83362 V 185.03362 L 272.2689,182.84612 H 272.2164 Q 272.0939,183.77362 271.3939,184.31612 270.6939,184.85862 269.6089,184.85862 268.1564,184.85862 267.2989,183.89612 266.4414,182.93362 266.4414,181.27112 V 178.45362 Q 266.4414,176.79112 267.2989,175.84612 268.1739,174.88362 269.6089,174.88362 270.6939,174.88362 271.3939,175.42612 272.0939,175.95112 272.2164,176.89612 H 272.2339 V 175.05862 H 273.8089 V 187.83362 Z M 270.1339,183.49362 Q 271.1139,183.49362 271.6739,182.88112 272.2339,182.26862 272.2339,181.18362 V 178.55862 Q 272.2339,177.47362 271.6739,176.86112 271.1139,176.24862 270.1339,176.24862 269.1364,176.24862 268.5764,176.75612 268.0164,177.26362 268.0164,178.38362 V 181.35862 Q 268.0164,182.47862 268.5764,182.98612 269.1364,183.49362 270.1339,183.49362 Z"
         style="font-size:17.5px"
         id="path1006" />
      <path
         d="M 280.80887,184.85862 Q 279.05887,184.85862 278.04387,183.87862 277.02887,182.89862 277.02887,181.18362 V 175.40862 Q 277.02887,173.69362 278.04387,172.71362 279.05887,171.73362 280.80887,171.73362 282.52387,171.73362 283.53887,172.73112 284.55387,173.71112 284.55387,175.40862 H 282.97887 Q 282.97887,174.32362 282.40137,173.74612 281.84137,173.15112 280.80887,173.15112 279.77637,173.15112 279.18137,173.74612 278.60387,174.32362 278.60387,175.40862 V 181.18362 Q 278.60387,182.26862 279.18137,182.86362 279.77637,183.44112 280.80887,183.44112 281.84137,183.44112 282.40137,182.86362 282.97887,182.26862 282.97887,181.18362 H 284.55387 Q 284.55387,182.88112 283.53887,183.87862 282.52387,184.85862 280.80887,184.85862 Z"
         style="font-size:17.5px"
         id="path1008" />
      <path
         d="M 291.23884,184.85862 Q 289.48884,184.85862 288.47384,183.87862 287.45884,182.89862 287.45884,181.18362 V 175.40862 Q 287.45884,173.69362 288.47384,172.71362 289.48884,171.73362 291.23884,171.73362 292.95384,171.73362 293.96884,172.73112 294.98384,173.71112 294.98384,175.40862 H 293.40884 Q 293.40884,174.32362 292.83134,173.74612 292.27134,173.15112 291.23884,173.15112 290.20634,173.15112 289.61134,173.72862 289.03384,174.30612 289.03384,175.39112 V 181.18362 Q 289.03384,182.26862 289.61134,182.86362 290.20634,183.45862 291.23884,183.45862 292.27134,183.45862 292.83134,182.86362 293.40884,182.26862 293.40884,181.18362 V 179.43362 H 290.81884 V 177.99862 H 294.98384 V 181.18362 Q 294.98384,182.88112 293.96884,183.87862 292.95384,184.85862 291.23884,184.85862 Z"
         style="font-size:17.5px"
         id="path1010" />
      <path
         d="M 303.80382,187.83362 302.00132,184.84112 Q 301.93132,184.84112 301.84382,184.84112 301.75632,184.85862 301.66882,184.85862 299.90132,184.85862 298.85132,183.84362 297.81882,182.81112 297.81882,181.09612 V 175.49612 Q 297.81882,173.78112 298.85132,172.76612 299.90132,171.73362 301.66882,171.73362 303.43632,171.73362 304.46882,172.76612 305.51882,173.78112 305.51882,175.49612 V 181.09612 Q 305.51882,182.26862 305.01132,183.14362 304.50382,184.01862 303.57632,184.45612 L 305.62382,187.83362 Z M 301.66882,183.45862 Q 302.70132,183.45862 303.31382,182.81112 303.94382,182.16362 303.94382,181.09612 V 175.49612 Q 303.94382,174.41112 303.31382,173.78112 302.70132,173.13362 301.66882,173.13362 300.63632,173.13362 300.00632,173.78112 299.39382,174.41112 299.39382,175.49612 V 181.09612 Q 299.39382,182.16362 300.00632,182.81112 300.63632,183.45862 301.66882,183.45862 Z"
         style="font-size:17.5px"
         id="path1012" />
      <path
         d="M 326.16873,180.83362 Q 325.45123,180.83362 324.96123,180.58862 324.47123,180.32612 324.12123,179.95862 323.75373,179.57362 323.43873,179.18862 323.12373,178.80362 322.79123,178.55862 322.44123,178.29612 321.96873,178.29612 321.42623,178.29612 321.09373,178.62862 320.74373,178.96112 320.74373,179.52112 V 180.57112 H 319.25623 V 179.52112 Q 319.25623,178.38362 320.00873,177.68362 320.74373,176.98362 321.96873,176.98362 322.70373,176.98362 323.21123,177.24612 323.70123,177.49112 324.06873,177.87612 324.41873,178.24362 324.73373,178.62862 325.03123,179.01362 325.38123,179.27612 325.71373,179.52112 326.16873,179.52112 326.72873,179.52112 327.06123,179.17112 327.39373,178.82112 327.39373,178.29612 V 178.20862 H 336.66873 V 179.60862 H 328.53123 Q 328.19873,180.18612 327.58623,180.51862 326.97373,180.83362 326.16873,180.83362 Z"
         style="font-size:17.5px"
         id="path1014" />
      <path
         d="M 342.8987,183.02112 V 179.60862 H 339.5562 V 178.20862 H 342.8987 V 174.79612 H 344.4387 V 178.20862 H 347.7812 V 179.60862 H 344.4387 V 183.02112 Z"
         style="font-size:17.5px"
         id="path1016" />
      <path
         d="M 362.70867,184.07112 364.58117,181.70862 H 350.40617 V 180.30862 H 365.70117 L 366.03367,179.88862 Q 366.36617,179.48612 366.59367,179.24112 366.82117,178.99612 366.90867,178.92612 366.82117,178.83862 366.57617,178.57612 366.33117,178.29612 365.96367,177.85862 L 365.68367,177.50862 H 350.40617 V 176.10862 H 364.58117 L 362.70867,173.74612 H 364.56367 L 368.60617,178.90862 364.54617,184.07112 Z"
         style="font-size:17.5px"
         id="path1018" />
    </g>
  </g>
</svg>
