<?xml version="1.0" encoding="UTF-8" standalone="no"?>
<svg
   version="1.1"
   id="svg2"
   viewBox="0 0 376.06274 108.26749"
   height="30.55549mm"
   width="106.13326mm"
   sodipodi:docname="JetBrainsMono Nerd Font.svg"
   xmlns:inkscape="http://www.inkscape.org/namespaces/inkscape"
   xmlns:sodipodi="http://sodipodi.sourceforge.net/DTD/sodipodi-0.dtd"
   xmlns="http://www.w3.org/2000/svg"
   xmlns:svg="http://www.w3.org/2000/svg"
   xmlns:rdf="http://www.w3.org/1999/02/22-rdf-syntax-ns#"
   xmlns:cc="http://creativecommons.org/ns#"
   xmlns:dc="http://purl.org/dc/elements/1.1/">
  <sodipodi:namedview
     id="namedview12"
     pagecolor="#ffffff"
     bordercolor="#666666"
     borderopacity="1.0"
     inkscape:showpageshadow="2"
     inkscape:pageopacity="0.0"
     inkscape:pagecheckerboard="0"
     inkscape:deskcolor="#d1d1d1"
     inkscape:document-units="mm" />
  <defs
     id="defs4" />
  <metadata
     id="metadata7">
    <rdf:RDF>
      <cc:Work
         rdf:about="">
        <dc:format>image/svg+xml</dc:format>
        <dc:type
           rdf:resource="http://purl.org/dc/dcmitype/StillImage" />
        <dc:title />
      </cc:Work>
    </rdf:RDF>
  </metadata>
  <g
     id="layer1"
     transform="translate(-64.094643,-79.566132)">
    <g
       aria-label="JetBrainsMono Nerd Font"
       id="text4136"
       style="font-size:27.5px;font-family:'JetBrainsMono Nerd Font';letter-spacing:0px;word-spacing:0px;fill:#ffffff">
      <path
         d="M 70.282143,101.20863 Q 67.394643,101.20863 65.744643,99.586132 64.094643,97.963632 64.094643,95.158632 H 66.569643 Q 66.569643,97.001132 67.532143,98.018632 68.522143,99.008632 70.282143,99.008632 72.042143,99.008632 73.004643,98.018632 73.994643,97.001132 73.994643,95.158632 V 80.858632 H 76.469643 V 95.158632 Q 76.469643,97.963632 74.792143,99.586132 73.142143,101.20863 70.282143,101.20863 Z"
         id="path14" />
      <path
         d="M 87.607155,101.20863 Q 84.939655,101.20863 83.289655,99.613632 81.667155,97.991132 81.667155,95.158632 V 91.583632 Q 81.667155,88.751132 83.289655,87.156132 84.939655,85.533632 87.607155,85.533632 89.394655,85.533632 90.714655,86.248632 92.062155,86.963632 92.804655,88.256132 93.547155,89.548632 93.547155,91.308632 V 94.003632 H 84.087155 V 95.433632 Q 84.087155,97.111132 85.049655,98.101132 86.012155,99.063632 87.607155,99.063632 88.982155,99.063632 89.862155,98.541132 90.769655,97.991132 90.962155,97.083632 H 93.437155 Q 93.189655,98.981132 91.594655,100.10863 89.999655,101.20863 87.607155,101.20863 Z M 84.087155,92.078632 H 91.127155 V 91.308632 Q 91.127155,89.521132 90.192155,88.558632 89.284655,87.568632 87.607155,87.568632 85.929655,87.568632 84.994655,88.558632 84.087155,89.521132 84.087155,91.308632 Z"
         id="path16" />
      <path
         d="M 105.61967,100.93363 Q 103.74967,100.93363 102.62217,99.861132 101.49467,98.761132 101.49467,96.946132 V 88.063632 H 97.149666 V 85.808632 H 101.49467 V 81.546132 H 103.96967 V 85.808632 H 110.15717 V 88.063632 H 103.96967 V 96.946132 Q 103.96967,97.716132 104.40967,98.211132 104.87717,98.678632 105.61967,98.678632 H 110.01967 V 100.93363 Z"
         id="path18" />
      <path
         d="M 114.91468,100.93363 V 80.858632 H 120.60718 Q 123.35718,80.858632 124.89718,82.233632 126.46468,83.608632 126.46468,86.056132 126.46468,87.596132 125.47468,88.833632 124.51218,90.071132 122.94468,90.373632 V 90.456132 Q 124.12718,90.593632 125.00718,91.281132 125.91468,91.968632 126.40968,93.041132 126.93218,94.086132 126.93218,95.351132 126.93218,97.936132 125.33718,99.448632 123.76968,100.93363 121.01968,100.93363 Z M 117.33468,89.411132 H 120.57968 Q 122.17468,89.411132 123.08218,88.558632 124.01718,87.706132 124.01718,86.248632 124.01718,84.791132 123.10968,83.938632 122.20218,83.086132 120.60718,83.086132 H 117.33468 Z M 117.33468,98.706132 H 120.74468 Q 122.47718,98.706132 123.46718,97.798632 124.48468,96.863632 124.48468,95.268632 124.48468,93.618632 123.46718,92.601132 122.47718,91.556132 120.74468,91.556132 H 117.33468 Z"
         id="path20" />
      <path
         d="M 131.93719,100.93363 V 85.808632 H 134.41219 V 88.696132 H 134.46719 Q 134.65969,87.238632 135.70469,86.386132 136.74969,85.533632 138.50969,85.533632 140.87469,85.533632 142.13969,86.963632 143.43219,88.366132 143.43219,90.978632 V 92.271132 H 140.95719 V 90.978632 Q 140.95719,87.678632 137.73969,87.678632 136.11719,87.678632 135.26469,88.613632 134.41219,89.548632 134.41219,91.308632 V 100.93363 Z"
         id="path22" />
      <path
         d="M 152.2872,101.20863 Q 149.9497,101.20863 148.5747,99.916132 147.1997,98.596132 147.1997,96.478632 147.1997,95.076132 147.8322,94.031132 148.4647,92.986132 149.5922,92.408632 150.7197,91.803632 152.1772,91.803632 H 156.8522 V 90.621132 Q 156.8522,87.678632 153.6347,87.678632 152.2047,87.678632 151.3247,88.201132 150.4447,88.723632 150.3897,89.658632 H 147.9147 Q 148.0522,87.871132 149.5647,86.716132 151.1047,85.533632 153.6347,85.533632 156.3847,85.533632 157.8422,86.853632 159.3272,88.173632 159.3272,90.538632 V 100.93363 H 156.8797 V 98.183632 H 156.8247 Q 156.6047,99.586132 155.4222,100.41113 154.2397,101.20863 152.2872,101.20863 Z M 152.8922,99.118632 Q 154.7072,99.118632 155.7797,98.238632 156.8522,97.358632 156.8522,95.846132 V 93.728632 H 152.4522 Q 151.2422,93.728632 150.4722,94.471132 149.7297,95.186132 149.7297,96.396132 149.7297,97.661132 150.5547,98.403632 151.4072,99.118632 152.8922,99.118632 Z"
         id="path24" />
      <path
         d="M 164.19471,100.93363 V 98.678632 H 169.55721 V 88.063632 H 164.74471 V 85.808632 H 172.03221 V 98.678632 H 177.11971 V 100.93363 Z M 170.51971,83.086132 Q 169.61221,83.086132 169.08971,82.618632 168.56721,82.151132 168.56721,81.353632 168.56721,80.528632 169.08971,80.061132 169.61221,79.566132 170.51971,79.566132 171.42721,79.566132 171.94971,80.061132 172.47221,80.528632 172.47221,81.353632 172.47221,82.151132 171.94971,82.618632 171.42721,83.086132 170.51971,83.086132 Z"
         id="path26" />
      <path
         d="M 180.88722,100.93363 V 85.808632 H 183.36222 V 88.696132 H 183.38972 Q 183.58222,87.183632 184.62722,86.358632 185.67222,85.533632 187.40472,85.533632 189.68722,85.533632 191.03472,86.936132 192.38222,88.338632 192.38222,90.758632 V 100.93363 H 189.90722 V 91.198632 Q 189.90722,89.466132 189.02722,88.558632 188.17472,87.623632 186.68972,87.623632 185.14972,87.623632 184.24222,88.586132 183.36222,89.548632 183.36222,91.308632 V 100.93363 Z"
         id="path28" />
      <path
         d="M 202.50223,101.15363 Q 199.97223,101.15363 198.56973,100.02613 197.19473,98.871132 197.19473,96.781132 H 199.66973 Q 199.66973,97.826132 200.41223,98.431132 201.15473,99.008632 202.50223,99.008632 H 203.71223 Q 205.08723,99.008632 205.82973,98.403632 206.59973,97.798632 206.59973,96.698632 206.59973,94.746132 204.81223,94.498632 L 200.63223,93.893632 Q 199.09223,93.673632 198.23973,92.628632 197.38723,91.556132 197.38723,89.823632 197.38723,87.843632 198.73473,86.716132 200.10973,85.588632 202.50223,85.588632 H 203.71223 Q 205.91223,85.588632 207.28723,86.688632 208.68973,87.761132 208.79973,89.521132 H 206.29723 Q 206.24223,88.723632 205.52723,88.201132 204.83973,87.678632 203.71223,87.678632 H 202.50223 Q 201.23723,87.678632 200.52223,88.256132 199.80723,88.833632 199.80723,89.823632 199.80723,91.418632 201.26473,91.638632 L 205.16973,92.188632 Q 209.01973,92.738632 209.01973,96.698632 209.01973,98.816132 207.61723,99.998632 206.24223,101.15363 203.71223,101.15363 Z"
         id="path30" />
      <path
         d="M 213.33725,100.93363 V 80.858632 H 216.99475 L 219.55225,89.548632 222.21975,80.858632 H 225.87725 V 100.93363 H 223.48475 V 91.446132 Q 223.48475,90.098632 223.51225,88.366132 223.56725,86.606132 223.64975,84.818632 223.73225,83.031132 223.84225,81.601132 L 220.59725,91.968632 H 218.45225 L 215.34475,81.848632 Q 215.56475,83.883632 215.64725,86.303632 215.72975,88.723632 215.72975,91.446132 V 100.93363 Z"
         id="path32" />
      <path
         d="M 236.10727,101.15363 Q 233.38477,101.15363 231.76227,99.558632 230.16727,97.963632 230.16727,95.103632 V 91.638632 Q 230.16727,88.751132 231.76227,87.183632 233.35727,85.588632 236.10727,85.588632 238.85727,85.588632 240.45227,87.183632 242.04727,88.751132 242.04727,91.638632 V 95.103632 Q 242.04727,97.963632 240.42477,99.558632 238.82977,101.15363 236.10727,101.15363 Z M 236.10727,98.953632 Q 237.72977,98.953632 238.63727,98.046132 239.57227,97.138632 239.57227,95.378632 V 91.363632 Q 239.57227,89.603632 238.63727,88.696132 237.72977,87.788632 236.10727,87.788632 234.51227,87.788632 233.57727,88.696132 232.64227,89.603632 232.64227,91.363632 V 95.378632 Q 232.64227,97.138632 233.57727,98.046132 234.51227,98.953632 236.10727,98.953632 Z"
         id="path34" />
      <path
         d="M 246.88727,100.93363 V 85.808632 H 249.36227 V 88.696132 H 249.38977 Q 249.58227,87.183632 250.62727,86.358632 251.67227,85.533632 253.40477,85.533632 255.68727,85.533632 257.03477,86.936132 258.38227,88.338632 258.38227,90.758632 V 100.93363 H 255.90727 V 91.198632 Q 255.90727,89.466132 255.02727,88.558632 254.17477,87.623632 252.68977,87.623632 251.14977,87.623632 250.24227,88.586132 249.36227,89.548632 249.36227,91.308632 V 100.93363 Z"
         id="path36" />
      <path
         d="M 269.10728,101.15363 Q 266.38478,101.15363 264.76228,99.558632 263.16728,97.963632 263.16728,95.103632 V 91.638632 Q 263.16728,88.751132 264.76228,87.183632 266.35728,85.588632 269.10728,85.588632 271.85728,85.588632 273.45228,87.183632 275.04728,88.751132 275.04728,91.638632 V 95.103632 Q 275.04728,97.963632 273.42478,99.558632 271.82978,101.15363 269.10728,101.15363 Z M 269.10728,98.953632 Q 270.72978,98.953632 271.63728,98.046132 272.57228,97.138632 272.57228,95.378632 V 91.363632 Q 272.57228,89.603632 271.63728,88.696132 270.72978,87.788632 269.10728,87.788632 267.51228,87.788632 266.57728,88.696132 265.64228,89.603632 265.64228,91.363632 V 95.378632 Q 265.64228,97.138632 266.57728,98.046132 267.51228,98.953632 269.10728,98.953632 Z"
         id="path38" />
      <path
         d="M 296.3323,100.93363 V 80.858632 H 299.6323 L 305.7648,98.046132 Q 305.7098,97.358632 305.6273,96.368632 305.5723,95.351132 305.5173,94.251132 305.4898,93.123632 305.4898,92.133632 V 80.858632 H 307.8823 V 100.93363 H 304.5823 L 298.4773,83.746132 Q 298.5323,84.406132 298.5873,85.423632 298.6423,86.413632 298.6698,87.541132 298.7248,88.641132 298.7248,89.658632 V 100.93363 Z"
         id="path40" />
      <path
         d="M 318.60731,101.20863 Q 315.93981,101.20863 314.28981,99.613632 312.66731,97.991132 312.66731,95.158632 V 91.583632 Q 312.66731,88.751132 314.28981,87.156132 315.93981,85.533632 318.60731,85.533632 320.39481,85.533632 321.71481,86.248632 323.06231,86.963632 323.80481,88.256132 324.54731,89.548632 324.54731,91.308632 V 94.003632 H 315.08731 V 95.433632 Q 315.08731,97.111132 316.04981,98.101132 317.01231,99.063632 318.60731,99.063632 319.98231,99.063632 320.86231,98.541132 321.76981,97.991132 321.96231,97.083632 H 324.43731 Q 324.18981,98.981132 322.59481,100.10863 320.99981,101.20863 318.60731,101.20863 Z M 315.08731,92.078632 H 322.12731 V 91.308632 Q 322.12731,89.521132 321.19231,88.558632 320.28481,87.568632 318.60731,87.568632 316.92981,87.568632 315.99481,88.558632 315.08731,89.521132 315.08731,91.308632 Z"
         id="path42" />
      <path
         d="M 329.93733,100.93363 V 85.808632 H 332.41233 V 88.696132 H 332.46733 Q 332.65983,87.238632 333.70483,86.386132 334.74983,85.533632 336.50983,85.533632 338.87483,85.533632 340.13983,86.963632 341.43233,88.366132 341.43233,90.978632 V 92.271132 H 338.95733 V 90.978632 Q 338.95733,87.678632 335.73983,87.678632 334.11733,87.678632 333.26483,88.613632 332.41233,89.548632 332.41233,91.308632 V 100.93363 Z"
         id="path44" />
      <path
         d="M 350.72733,101.20863 Q 348.47233,101.20863 347.09733,99.696132 345.74983,98.183632 345.74983,95.598632 V 91.171132 Q 345.74983,88.558632 347.09733,87.046132 348.44483,85.533632 350.72733,85.533632 352.43233,85.533632 353.53233,86.386132 354.65983,87.238632 354.87983,88.696132 H 354.90733 L 354.85233,85.258632 V 80.858632 H 357.32733 V 100.93363 H 354.85233 V 98.046132 H 354.82483 Q 354.63233,99.531132 353.53233,100.38363 352.43233,101.20863 350.72733,101.20863 Z M 351.55233,99.063632 Q 353.09233,99.063632 353.97233,98.101132 354.85233,97.138632 354.85233,95.433632 V 91.308632 Q 354.85233,89.603632 353.97233,88.641132 353.09233,87.678632 351.55233,87.678632 349.98483,87.678632 349.10483,88.503632 348.22483,89.301132 348.22483,91.171132 V 95.571132 Q 348.22483,97.413632 349.10483,98.238632 349.98483,99.063632 351.55233,99.063632 Z"
         id="path46" />
      <path
         d="M 378.96986,100.93363 V 80.858632 H 390.79486 V 83.113632 H 381.38986 V 89.768632 H 390.07986 V 92.023632 H 381.44486 V 100.93363 Z"
         id="path48" />
      <path
         d="M 401.10739,101.15363 Q 398.38489,101.15363 396.76239,99.558632 395.16739,97.963632 395.16739,95.103632 V 91.638632 Q 395.16739,88.751132 396.76239,87.183632 398.35739,85.588632 401.10739,85.588632 403.85739,85.588632 405.45239,87.183632 407.04739,88.751132 407.04739,91.638632 V 95.103632 Q 407.04739,97.963632 405.42489,99.558632 403.82989,101.15363 401.10739,101.15363 Z M 401.10739,98.953632 Q 402.72989,98.953632 403.63739,98.046132 404.57239,97.138632 404.57239,95.378632 V 91.363632 Q 404.57239,89.603632 403.63739,88.696132 402.72989,87.788632 401.10739,87.788632 399.51239,87.788632 398.57739,88.696132 397.64239,89.603632 397.64239,91.363632 V 95.378632 Q 397.64239,97.138632 398.57739,98.046132 399.51239,98.953632 401.10739,98.953632 Z"
         id="path50" />
      <path
         d="M 411.88739,100.93363 V 85.808632 H 414.36239 V 88.696132 H 414.38989 Q 414.58239,87.183632 415.62739,86.358632 416.67239,85.533632 418.40489,85.533632 420.68739,85.533632 422.03489,86.936132 423.38239,88.338632 423.38239,90.758632 V 100.93363 H 420.90739 V 91.198632 Q 420.90739,89.466132 420.02739,88.558632 419.17489,87.623632 417.68989,87.623632 416.14989,87.623632 415.24239,88.586132 414.36239,89.548632 414.36239,91.308632 V 100.93363 Z"
         id="path52" />
      <path
         d="M 435.61989,100.93363 Q 433.74989,100.93363 432.62239,99.861132 431.49489,98.761132 431.49489,96.946132 V 88.063632 H 427.14989 V 85.808632 H 431.49489 V 81.546132 H 433.96989 V 85.808632 H 440.15739 V 88.063632 H 433.96989 V 96.946132 Q 433.96989,97.716132 434.40989,98.211132 434.87739,98.678632 435.61989,98.678632 H 440.01989 V 100.93363 Z"
         id="path54" />
    </g>
    <g
       aria-label="abcdefghijklmnopqrstuvwxyzABCDEFGHIJKLMNOPQRSTUVWXYZ oO08 iIlL1 {} [] g9qCGQ ~-+=&gt;"
       id="text4140"
       style="font-size:17.5px;font-family:'JetBrainsMono Nerd Font';letter-spacing:0px;word-spacing:0px;fill:#ffffff">
      <path
         d="M 69.829403,141.10862 Q 68.341903,141.10862 67.466903,140.28612 66.591903,139.44612 66.591903,138.09862 66.591903,137.20612 66.994403,136.54112 67.396903,135.87612 68.114403,135.50862 68.831903,135.12362 69.759403,135.12362 H 72.734403 V 134.37112 Q 72.734403,132.49862 70.686903,132.49862 69.776903,132.49862 69.216903,132.83112 68.656903,133.16362 68.621903,133.75862 H 67.046903 Q 67.134403,132.62112 68.096903,131.88612 69.076903,131.13362 70.686903,131.13362 72.436903,131.13362 73.364403,131.97362 74.309403,132.81362 74.309403,134.31862 V 140.93362 H 72.751903 V 139.18362 H 72.716903 Q 72.576903,140.07612 71.824403,140.60112 71.071903,141.10862 69.829403,141.10862 Z M 70.214403,139.77862 Q 71.369403,139.77862 72.051903,139.21862 72.734403,138.65862 72.734403,137.69612 V 136.34862 H 69.934403 Q 69.164403,136.34862 68.674403,136.82112 68.201903,137.27612 68.201903,138.04612 68.201903,138.85112 68.726903,139.32362 69.269403,139.77862 70.214403,139.77862 Z"
         id="path57" />
      <path
         d="M 81.72941,141.10862 Q 80.64441,141.10862 79.94441,140.58362 79.24441,140.04112 79.12191,139.09612 H 79.10441 V 140.93362 H 77.52941 V 128.15862 H 79.10441 V 130.95862 L 79.06941,133.14612 H 79.08691 Q 79.22691,132.21862 79.92691,131.67612 80.64441,131.13362 81.72941,131.13362 83.18191,131.13362 84.03941,132.09612 84.89691,133.05862 84.89691,134.72112 V 137.53862 Q 84.89691,139.18362 84.03941,140.14612 83.18191,141.10862 81.72941,141.10862 Z M 81.20441,139.74362 Q 82.20191,139.74362 82.76191,139.21862 83.32191,138.69362 83.32191,137.52112 V 134.72112 Q 83.32191,133.53112 82.76191,133.02362 82.20191,132.49862 81.20441,132.49862 80.24191,132.49862 79.66441,133.11112 79.10441,133.72362 79.10441,134.80862 V 137.43362 Q 79.10441,138.51862 79.66441,139.13112 80.24191,139.74362 81.20441,139.74362 Z"
         id="path59" />
      <path
         d="M 91.809416,141.10862 Q 90.059416,141.10862 89.009416,140.12862 87.959416,139.14862 87.959416,137.43362 V 134.80862 Q 87.959416,133.09362 89.009416,132.11362 90.059416,131.13362 91.809416,131.13362 93.471916,131.13362 94.486916,132.02612 95.519416,132.91862 95.571916,134.45862 H 93.996916 Q 93.944416,133.53112 93.366916,133.04112 92.789416,132.53362 91.809416,132.53362 90.776916,132.53362 90.146916,133.12862 89.534416,133.70612 89.534416,134.79112 V 137.43362 Q 89.534416,138.51862 90.146916,139.11362 90.776916,139.70862 91.809416,139.70862 92.789416,139.70862 93.366916,139.20112 93.944416,138.69362 93.996916,137.78362 H 95.571916 Q 95.519416,139.32362 94.486916,140.21612 93.471916,141.10862 91.809416,141.10862 Z"
         id="path61" />
      <path
         d="M 101.60942,141.10862 Q 100.17442,141.10862 99.299422,140.14612 98.441922,139.18362 98.441922,137.53862 V 134.72112 Q 98.441922,133.05862 99.299422,132.09612 100.15692,131.13362 101.60942,131.13362 102.69442,131.13362 103.39442,131.67612 104.11192,132.21862 104.25192,133.14612 H 104.26942 L 104.23442,130.95862 V 128.15862 H 105.80942 V 140.93362 H 104.23442 V 139.09612 H 104.21692 Q 104.09442,140.04112 103.39442,140.58362 102.69442,141.10862 101.60942,141.10862 Z M 102.13442,139.74362 Q 103.11442,139.74362 103.67442,139.13112 104.23442,138.51862 104.23442,137.43362 V 134.80862 Q 104.23442,133.72362 103.67442,133.11112 103.11442,132.49862 102.13442,132.49862 101.13692,132.49862 100.57692,133.02362 100.01692,133.53112 100.01692,134.72112 V 137.52112 Q 100.01692,138.69362 100.57692,139.21862 101.13692,139.74362 102.13442,139.74362 Z"
         id="path63" />
      <path
         d="M 112.66943,141.10862 Q 110.97193,141.10862 109.92193,140.09362 108.88943,139.06112 108.88943,137.25862 V 134.98362 Q 108.88943,133.18112 109.92193,132.16612 110.97193,131.13362 112.66943,131.13362 113.80693,131.13362 114.64693,131.58862 115.50443,132.04362 115.97693,132.86612 116.44943,133.68862 116.44943,134.80862 V 136.52362 H 110.42943 V 137.43362 Q 110.42943,138.50112 111.04193,139.13112 111.65443,139.74362 112.66943,139.74362 113.54443,139.74362 114.10443,139.41112 114.68193,139.06112 114.80443,138.48362 H 116.37943 Q 116.22193,139.69112 115.20693,140.40862 114.19193,141.10862 112.66943,141.10862 Z M 110.42943,135.29862 H 114.90943 V 134.80862 Q 114.90943,133.67112 114.31443,133.05862 113.73693,132.42862 112.66943,132.42862 111.60193,132.42862 111.00693,133.05862 110.42943,133.67112 110.42943,134.80862 Z"
         id="path65" />
      <path
         d="M 121.68194,140.93362 V 134.05612 H 118.88194 V 132.62112 H 121.68194 V 130.60862 Q 121.68194,129.47112 122.39944,128.82362 123.11694,128.15862 124.37694,128.15862 H 127.19444 V 129.59362 H 124.37694 Q 123.25694,129.59362 123.25694,130.60862 V 132.62112 H 127.19444 V 134.05612 H 123.25694 V 140.93362 Z"
         id="path67" />
      <path
         d="M 131.23694,144.08362 V 142.64862 H 133.94944 Q 134.77194,142.64862 135.24444,142.17612 135.71694,141.72112 135.71694,140.93362 V 140.05862 L 135.75194,138.48362 H 135.69944 Q 135.55944,139.34112 134.87694,139.81362 134.19444,140.26862 133.16194,140.26862 131.67444,140.26862 130.81694,139.32362 129.95944,138.37862 129.95944,136.73362 V 134.70362 Q 129.95944,133.05862 130.81694,132.09612 131.67444,131.13362 133.16194,131.13362 134.19444,131.13362 134.87694,131.62362 135.55944,132.11362 135.69944,132.97112 H 135.73444 V 131.30862 H 137.29194 V 140.93362 Q 137.29194,142.38612 136.38194,143.22612 135.48944,144.08362 133.93194,144.08362 Z M 133.63444,138.95612 Q 134.61444,138.95612 135.17444,138.34362 135.73444,137.73112 135.73444,136.64612 V 134.80862 Q 135.73444,133.72362 135.17444,133.11112 134.61444,132.49862 133.63444,132.49862 132.63694,132.49862 132.07694,133.07612 131.53444,133.65362 131.53444,134.63362 V 136.82112 Q 131.53444,137.80112 132.07694,138.37862 132.63694,138.95612 133.63444,138.95612 Z"
         id="path69" />
      <path
         d="M 140.52945,140.93362 V 128.15862 H 142.10445 V 133.14612 H 142.12195 Q 142.24445,132.18362 142.90945,131.65862 143.57445,131.13362 144.67695,131.13362 146.12945,131.13362 146.98695,132.02612 147.84445,132.91862 147.84445,134.45862 V 140.93362 H 146.26945 V 134.72112 Q 146.26945,133.63612 145.70945,133.05862 145.16695,132.46362 144.22195,132.46362 143.24195,132.46362 142.66445,133.07612 142.10445,133.68862 142.10445,134.80862 V 140.93362 Z"
         id="path71" />
      <path
         d="M 150.90696,140.93362 V 139.49862 H 154.31946 V 132.74362 H 151.25696 V 131.30862 H 155.89446 V 139.49862 H 159.13196 V 140.93362 Z M 154.93196,129.57612 Q 154.35446,129.57612 154.02196,129.27862 153.68946,128.98112 153.68946,128.47362 153.68946,127.94862 154.02196,127.65112 154.35446,127.33612 154.93196,127.33612 155.50946,127.33612 155.84196,127.65112 156.17446,127.94862 156.17446,128.47362 156.17446,128.98112 155.84196,129.27862 155.50946,129.57612 154.93196,129.57612 Z"
         id="path73" />
      <path
         d="M 161.49446,144.08362 V 142.64862 H 163.66446 Q 164.74946,142.64862 165.34446,142.05362 165.95696,141.45862 165.95696,140.39112 V 132.74362 H 161.40696 V 131.30862 H 167.53196 V 140.39112 Q 167.53196,142.08862 166.48196,143.08612 165.43196,144.08362 163.66446,144.08362 Z M 166.56946,129.57612 Q 165.99196,129.57612 165.65946,129.27862 165.32696,128.98112 165.32696,128.47362 165.32696,127.94862 165.65946,127.65112 165.99196,127.33612 166.56946,127.33612 167.14696,127.33612 167.47946,127.65112 167.81196,127.94862 167.81196,128.47362 167.81196,128.98112 167.47946,129.27862 167.14696,129.57612 166.56946,129.57612 Z"
         id="path75" />
      <path
         d="M 172.11697,140.93362 V 128.15862 H 173.69197 V 135.28112 H 175.52947 L 178.22447,131.30862 H 180.02697 L 176.92947,135.89362 180.20197,140.93362 H 178.36447 L 175.56447,136.64612 H 173.69197 V 140.93362 Z"
         id="path77" />
      <path
         d="M 187.56948,140.93362 Q 186.29198,140.93362 185.52198,140.19862 184.76948,139.44612 184.76948,138.22112 V 129.59362 H 181.44448 V 128.15862 H 186.34448 V 138.22112 Q 186.34448,138.81612 186.67698,139.16612 187.00948,139.49862 187.56948,139.49862 H 190.54448 V 140.93362 Z"
         id="path79" />
      <path
         d="M 192.46948,140.93362 V 131.30862 H 193.83448 V 132.58612 H 193.86948 Q 193.95698,131.93862 194.37698,131.53612 194.81448,131.13362 195.47948,131.13362 196.10948,131.13362 196.54698,131.50112 196.98448,131.86862 197.17698,132.49862 H 197.19448 Q 197.31698,131.86862 197.73698,131.50112 198.17448,131.13362 198.83948,131.13362 199.76698,131.13362 200.30948,131.83362 200.86948,132.51612 200.86948,133.61862 V 140.93362 H 199.39948 V 133.60112 Q 199.39948,133.02362 199.11948,132.69112 198.83948,132.34112 198.34948,132.34112 197.87698,132.34112 197.59698,132.67362 197.31698,133.00612 197.31698,133.58362 V 140.93362 H 196.02198 V 133.60112 Q 196.02198,133.02362 195.74198,132.69112 195.46198,132.34112 194.98948,132.34112 194.49948,132.34112 194.21948,132.67362 193.93948,133.00612 193.93948,133.58362 V 140.93362 Z"
         id="path81" />
      <path
         d="M 203.52949,140.93362 V 131.30862 H 205.10449 V 133.14612 H 205.12199 Q 205.24449,132.18362 205.90949,131.65862 206.57449,131.13362 207.67699,131.13362 209.12949,131.13362 209.98699,132.02612 210.84449,132.91862 210.84449,134.45862 V 140.93362 H 209.26949 V 134.73862 Q 209.26949,133.63612 208.70949,133.05862 208.16699,132.46362 207.22199,132.46362 206.24199,132.46362 205.66449,133.07612 205.10449,133.68862 205.10449,134.80862 V 140.93362 Z"
         id="path83" />
      <path
         d="M 217.66949,141.07362 Q 215.93699,141.07362 214.90449,140.05862 213.88949,139.04362 213.88949,137.22362 V 135.01862 Q 213.88949,133.18112 214.90449,132.18362 215.91949,131.16862 217.66949,131.16862 219.41949,131.16862 220.43449,132.18362 221.44949,133.18112 221.44949,135.01862 V 137.22362 Q 221.44949,139.04362 220.41699,140.05862 219.40199,141.07362 217.66949,141.07362 Z M 217.66949,139.67362 Q 218.70199,139.67362 219.27949,139.09612 219.87449,138.51862 219.87449,137.39862 V 134.84362 Q 219.87449,133.72362 219.27949,133.14612 218.70199,132.56862 217.66949,132.56862 216.65449,132.56862 216.05949,133.14612 215.46449,133.72362 215.46449,134.84362 V 137.39862 Q 215.46449,138.51862 216.05949,139.09612 216.65449,139.67362 217.66949,139.67362 Z"
         id="path85" />
      <path
         d="M 224.52951,144.08362 V 131.30862 H 226.10451 V 133.14612 H 226.12201 Q 226.24451,132.20112 226.94451,131.67612 227.64451,131.13362 228.72951,131.13362 230.18201,131.13362 231.03951,132.09612 231.89701,133.04112 231.89701,134.70362 V 137.52112 Q 231.89701,139.18362 231.03951,140.14612 230.18201,141.10862 228.72951,141.10862 227.64451,141.10862 226.94451,140.56612 226.24451,140.02362 226.12201,139.09612 H 226.06951 L 226.10451,141.28362 V 144.08362 Z M 228.20451,139.74362 Q 229.20201,139.74362 229.76201,139.21862 230.32201,138.69362 230.32201,137.52112 V 134.72112 Q 230.32201,133.53112 229.76201,133.02362 229.20201,132.49862 228.20451,132.49862 227.24201,132.49862 226.66451,133.11112 226.10451,133.72362 226.10451,134.80862 V 137.43362 Q 226.10451,138.51862 226.66451,139.13112 227.24201,139.74362 228.20451,139.74362 Z"
         id="path87" />
      <path
         d="M 240.73451,144.08362 V 141.28362 L 240.76951,139.09612 H 240.71701 Q 240.59451,140.02362 239.89451,140.56612 239.19451,141.10862 238.10951,141.10862 236.65701,141.10862 235.79951,140.14612 234.94201,139.18362 234.94201,137.52112 V 134.70362 Q 234.94201,133.04112 235.79951,132.09612 236.67451,131.13362 238.10951,131.13362 239.19451,131.13362 239.89451,131.67612 240.59451,132.20112 240.71701,133.14612 H 240.73451 V 131.30862 H 242.30951 V 144.08362 Z M 238.63451,139.74362 Q 239.61451,139.74362 240.17451,139.13112 240.73451,138.51862 240.73451,137.43362 V 134.80862 Q 240.73451,133.72362 240.17451,133.11112 239.61451,132.49862 238.63451,132.49862 237.63701,132.49862 237.07701,133.00612 236.51701,133.51362 236.51701,134.63362 V 137.60862 Q 236.51701,138.72862 237.07701,139.23612 237.63701,139.74362 238.63451,139.74362 Z"
         id="path89" />
      <path
         d="M 245.87951,140.93362 V 131.30862 H 247.45451 V 133.14612 H 247.48951 Q 247.61201,132.21862 248.27701,131.67612 248.94201,131.13362 250.06201,131.13362 251.56701,131.13362 252.37201,132.04362 253.19451,132.93612 253.19451,134.59862 V 135.42112 H 251.61951 V 134.59862 Q 251.61951,132.49862 249.57201,132.49862 248.53951,132.49862 247.99701,133.09362 247.45451,133.68862 247.45451,134.80862 V 140.93362 Z"
         id="path91" />
      <path
         d="M 259.28453,141.07362 Q 257.67453,141.07362 256.78203,140.35612 255.90703,139.62112 255.90703,138.29112 H 257.48203 Q 257.48203,138.95612 257.95453,139.34112 258.42703,139.70862 259.28453,139.70862 H 260.05453 Q 260.92953,139.70862 261.40203,139.32362 261.89203,138.93862 261.89203,138.23862 261.89203,136.99612 260.75453,136.83862 L 258.09453,136.45362 Q 257.11453,136.31362 256.57203,135.64862 256.02953,134.96612 256.02953,133.86362 256.02953,132.60362 256.88703,131.88612 257.76203,131.16862 259.28453,131.16862 H 260.05453 Q 261.45453,131.16862 262.32953,131.86862 263.22203,132.55112 263.29203,133.67112 H 261.69953 Q 261.66453,133.16362 261.20953,132.83112 260.77203,132.49862 260.05453,132.49862 H 259.28453 Q 258.47953,132.49862 258.02453,132.86612 257.56953,133.23362 257.56953,133.86362 257.56953,134.87862 258.49703,135.01862 L 260.98203,135.36862 Q 263.43203,135.71862 263.43203,138.23862 263.43203,139.58612 262.53953,140.33862 261.66453,141.07362 260.05453,141.07362 Z"
         id="path93" />
      <path
         d="M 271.13203,140.93362 Q 269.94203,140.93362 269.22453,140.25112 268.50703,139.55112 268.50703,138.39612 V 132.74362 H 265.74203 V 131.30862 H 268.50703 V 128.59612 H 270.08203 V 131.30862 H 274.01953 V 132.74362 H 270.08203 V 138.39612 Q 270.08203,138.88612 270.36203,139.20112 270.65953,139.49862 271.13203,139.49862 H 273.93203 V 140.93362 Z"
         id="path95" />
      <path
         d="M 280.65204,141.10862 Q 278.98954,141.10862 277.99204,140.12862 276.99454,139.13112 276.99454,137.43362 V 131.30862 H 278.56954 V 137.43362 Q 278.56954,138.48362 279.12954,139.11362 279.68954,139.72612 280.65204,139.72612 281.63204,139.72612 282.19204,139.11362 282.76954,138.48362 282.76954,137.43362 V 131.30862 H 284.34454 V 137.43362 Q 284.34454,139.13112 283.32954,140.12862 282.31454,141.10862 280.65204,141.10862 Z"
         id="path97" />
      <path
         d="M 290.13704,140.93362 286.86454,131.30862 H 288.56204 L 290.66204,137.78362 Q 290.85454,138.36112 290.99454,138.90362 291.13454,139.42862 291.20454,139.72612 291.29204,139.42862 291.41454,138.90362 291.53704,138.36112 291.71204,137.78362 L 293.81204,131.30862 H 295.47454 L 292.20204,140.93362 Z"
         id="path99" />
      <path
         d="M 298.53706,140.93362 296.96206,131.30862 H 298.32706 L 299.30706,138.09862 Q 299.35956,138.48362 299.41206,138.95612 299.46456,139.41112 299.48206,139.70862 299.51706,139.41112 299.55206,138.95612 299.60456,138.48362 299.67456,138.09862 L 300.88206,131.30862 H 302.45706 L 303.66456,138.09862 Q 303.73456,138.48362 303.78706,138.95612 303.85706,139.41112 303.87456,139.70862 303.90956,139.41112 303.96206,138.95612 304.01456,138.48362 304.06706,138.09862 L 305.08206,131.30862 H 306.37706 L 304.73206,140.93362 H 302.99956 L 301.89706,134.28362 Q 301.82706,133.79362 301.75706,133.25112 301.70456,132.69112 301.66956,132.39362 301.65206,132.69112 301.58206,133.25112 301.51206,133.79362 301.42456,134.28362 L 300.26956,140.93362 Z"
         id="path101" />
      <path
         d="M 307.79456,140.93362 311.20706,135.98112 308.00456,131.30862 H 309.85956 L 311.76706,134.28362 Q 311.88956,134.47612 311.99456,134.70362 312.11706,134.93112 312.18706,135.07112 312.23956,134.93112 312.34456,134.70362 312.46706,134.47612 312.58956,134.28362 L 314.49706,131.30862 H 316.35206 L 313.14956,135.99862 316.54456,140.93362 H 314.68956 L 312.62456,137.78362 Q 312.50206,137.59112 312.37956,137.34612 312.27456,137.08362 312.18706,136.92612 312.11706,137.08362 311.97706,137.34612 311.85456,137.59112 311.71456,137.78362 L 309.64956,140.93362 Z"
         id="path103" />
      <path
         d="M 320.53456,144.08362 321.95206,140.33862 318.36456,131.30862 H 320.06206 L 322.33706,137.25862 Q 322.47706,137.60862 322.59956,137.99362 322.72206,138.37862 322.77456,138.65862 322.82706,138.37862 322.94956,137.99362 323.07206,137.60862 323.19456,137.25862 L 325.31206,131.30862 H 326.97456 L 322.17956,144.08362 Z"
         id="path105" />
      <path
         d="M 329.49456,140.93362 V 139.35862 L 334.88456,132.74362 H 329.63456 V 131.30862 H 336.65206 V 132.88362 L 331.15706,139.49862 H 336.84456 V 140.93362 Z"
         id="path107" />
      <path
         d="M 66.294403,162.80862 69.619403,150.03362 H 71.736903 L 75.044403,162.80862 H 73.451903 L 72.611903,159.41362 H 68.744403 L 67.904403,162.80862 Z M 69.059403,158.08362 H 72.279403 L 71.299403,154.14612 Q 71.019403,153.02612 70.861903,152.27362 70.704403,151.52112 70.669403,151.29362 70.634403,151.52112 70.476903,152.27362 70.319403,153.02612 70.039403,154.12862 Z"
         id="path109" />
      <path
         d="M 77.54691,162.80862 V 150.03362 H 81.16941 Q 82.91941,150.03362 83.89941,150.90862 84.89691,151.78362 84.89691,153.34112 84.89691,154.32112 84.26691,155.10862 83.65441,155.89612 82.65691,156.08862 V 156.14112 Q 83.40941,156.22862 83.96941,156.66612 84.54691,157.10362 84.86191,157.78612 85.19441,158.45112 85.19441,159.25612 85.19441,160.90112 84.17941,161.86362 83.18191,162.80862 81.43191,162.80862 Z M 79.08691,155.47612 H 81.15191 Q 82.16691,155.47612 82.74441,154.93362 83.33941,154.39112 83.33941,153.46362 83.33941,152.53612 82.76191,151.99362 82.18441,151.45112 81.16941,151.45112 H 79.08691 Z M 79.08691,161.39112 H 81.25691 Q 82.35941,161.39112 82.98941,160.81362 83.63691,160.21862 83.63691,159.20362 83.63691,158.15362 82.98941,157.50612 82.35941,156.84112 81.25691,156.84112 H 79.08691 Z"
         id="path111" />
      <path
         d="M 91.809416,162.98362 Q 90.059416,162.98362 89.044416,162.00362 88.029416,161.02362 88.029416,159.30862 V 153.53362 Q 88.029416,151.81862 89.044416,150.83862 90.059416,149.85862 91.809416,149.85862 93.524416,149.85862 94.539416,150.85612 95.554416,151.83612 95.554416,153.53362 H 93.979416 Q 93.979416,152.44862 93.401916,151.87112 92.841916,151.27612 91.809416,151.27612 90.776916,151.27612 90.181916,151.87112 89.604416,152.44862 89.604416,153.53362 V 159.30862 Q 89.604416,160.39362 90.181916,160.98862 90.776916,161.56612 91.809416,161.56612 92.841916,161.56612 93.401916,160.98862 93.979416,160.39362 93.979416,159.30862 H 95.554416 Q 95.554416,161.00612 94.539416,162.00362 93.524416,162.98362 91.809416,162.98362 Z"
         id="path113" />
      <path
         d="M 98.529422,162.80862 V 150.03362 H 101.83692 Q 103.07942,150.03362 103.97192,150.50612 104.88192,150.97862 105.37192,151.83612 105.87942,152.69362 105.87942,153.86612 V 158.95862 Q 105.87942,160.13112 105.37192,161.00612 104.88192,161.86362 103.97192,162.33612 103.07942,162.80862 101.83692,162.80862 Z M 100.10442,161.40862 H 101.83692 Q 102.99192,161.40862 103.63942,160.76112 104.30442,160.11362 104.30442,158.95862 V 153.86612 Q 104.30442,152.72862 103.63942,152.08112 102.99192,151.43362 101.83692,151.43362 H 100.10442 Z"
         id="path115" />
      <path
         d="M 109.16943,162.80862 V 150.03362 H 116.51943 V 151.46862 H 110.72693 V 155.42362 H 115.90693 V 156.82362 H 110.72693 V 161.37362 H 116.51943 V 162.80862 Z"
         id="path117" />
      <path
         d="M 119.58194,162.80862 V 150.03362 H 127.10694 V 151.46862 H 121.12194 V 155.70362 H 126.65194 V 157.13862 H 121.15694 V 162.80862 Z"
         id="path119" />
      <path
         d="M 133.73944,162.98362 Q 131.98944,162.98362 130.97444,162.00362 129.95944,161.02362 129.95944,159.30862 V 153.53362 Q 129.95944,151.81862 130.97444,150.83862 131.98944,149.85862 133.73944,149.85862 135.45444,149.85862 136.46944,150.85612 137.48444,151.83612 137.48444,153.53362 H 135.90944 Q 135.90944,152.44862 135.33194,151.87112 134.77194,151.27612 133.73944,151.27612 132.70694,151.27612 132.11194,151.85362 131.53444,152.43112 131.53444,153.51612 V 159.30862 Q 131.53444,160.39362 132.11194,160.98862 132.70694,161.58362 133.73944,161.58362 134.77194,161.58362 135.33194,160.98862 135.90944,160.39362 135.90944,159.30862 V 157.55862 H 133.31944 V 156.12362 H 137.48444 V 159.30862 Q 137.48444,161.00612 136.46944,162.00362 135.45444,162.98362 133.73944,162.98362 Z"
         id="path121" />
      <path
         d="M 140.54695,162.80862 V 150.03362 H 142.12195 V 155.49362 H 146.21695 V 150.03362 H 147.79195 V 162.80862 H 146.21695 V 156.92862 H 142.12195 V 162.80862 Z"
         id="path123" />
      <path
         d="M 151.25696,162.80862 V 161.37362 H 153.86446 V 151.46862 H 151.25696 V 150.03362 H 158.08196 V 151.46862 H 155.47446 V 161.37362 H 158.08196 V 162.80862 Z"
         id="path125" />
      <path
         d="M 164.64446,162.98362 Q 162.80696,162.98362 161.75696,161.95112 160.70696,160.91862 160.70696,159.13362 H 162.28196 Q 162.28196,160.30612 162.89446,160.95362 163.52446,161.58362 164.64446,161.58362 165.76446,161.58362 166.37696,160.95362 167.00696,160.30612 167.00696,159.13362 V 150.03362 H 168.58196 V 159.13362 Q 168.58196,160.91862 167.51446,161.95112 166.46446,162.98362 164.64446,162.98362 Z"
         id="path127" />
      <path
         d="M 172.02947,162.80862 V 150.03362 H 173.60447 V 155.52862 H 175.49447 L 178.32947,150.03362 H 180.04447 L 176.87697,156.19362 180.21947,162.80862 H 178.41697 L 175.44197,156.91112 H 173.60447 V 162.80862 Z"
         id="path129" />
      <path
         d="M 183.19448,162.80862 V 150.03362 H 184.76948 V 161.37362 H 190.54448 V 162.80862 Z"
         id="path131" />
      <path
         d="M 192.67948,162.80862 V 150.03362 H 195.00698 L 196.63448,155.56362 198.33198,150.03362 H 200.65948 V 162.80862 H 199.13698 V 156.77112 Q 199.13698,155.91362 199.15448,154.81112 199.18948,153.69112 199.24198,152.55362 199.29448,151.41612 199.36448,150.50612 L 197.29948,157.10362 H 195.93448 L 193.95698,150.66362 Q 194.09698,151.95862 194.14948,153.49862 194.20198,155.03862 194.20198,156.77112 V 162.80862 Z"
         id="path133" />
      <path
         d="M 203.49449,162.80862 V 150.03362 H 205.59449 L 209.49699,160.97112 Q 209.46199,160.53362 209.40949,159.90362 209.37449,159.25612 209.33949,158.55612 209.32199,157.83862 209.32199,157.20862 V 150.03362 H 210.84449 V 162.80862 H 208.74449 L 204.85949,151.87112 Q 204.89449,152.29112 204.92949,152.93862 204.96449,153.56862 204.98199,154.28612 205.01699,154.98612 205.01699,155.63362 V 162.80862 Z"
         id="path135" />
      <path
         d="M 217.66949,162.98362 Q 215.95449,162.98362 214.95699,161.98612 213.95949,160.98862 213.95949,159.13362 V 153.70862 Q 213.95949,151.85362 214.95699,150.85612 215.95449,149.85862 217.66949,149.85862 219.38449,149.85862 220.38199,150.85612 221.37949,151.85362 221.37949,153.69112 V 159.13362 Q 221.37949,160.98862 220.38199,161.98612 219.38449,162.98362 217.66949,162.98362 Z M 217.66949,161.56612 Q 218.70199,161.56612 219.24449,160.98862 219.80449,160.39362 219.80449,159.30862 V 153.53362 Q 219.80449,152.44862 219.24449,151.87112 218.70199,151.27612 217.66949,151.27612 216.65449,151.27612 216.09449,151.87112 215.53449,152.44862 215.53449,153.53362 V 159.30862 Q 215.53449,160.39362 216.09449,160.98862 216.65449,161.56612 217.66949,161.56612 Z"
         id="path137" />
      <path
         d="M 224.52951,162.80862 V 150.03362 H 228.64201 Q 230.42701,150.03362 231.47701,151.06612 232.54451,152.08112 232.54451,153.79612 232.54451,155.51112 231.47701,156.54362 230.42701,157.55862 228.64201,157.55862 H 226.10451 V 162.80862 Z M 226.10451,156.14112 H 228.64201 Q 229.67451,156.14112 230.28701,155.51112 230.91701,154.86362 230.91701,153.79612 230.91701,152.71112 230.28701,152.08112 229.67451,151.45112 228.64201,151.45112 H 226.10451 Z"
         id="path139" />
      <path
         d="M 240.80451,165.95862 239.00201,162.96612 Q 238.93201,162.96612 238.84451,162.96612 238.75701,162.98362 238.66951,162.98362 236.90201,162.98362 235.85201,161.96862 234.81951,160.93612 234.81951,159.22112 V 153.62112 Q 234.81951,151.90612 235.85201,150.89112 236.90201,149.85862 238.66951,149.85862 240.43701,149.85862 241.46951,150.89112 242.51951,151.90612 242.51951,153.62112 V 159.22112 Q 242.51951,160.39362 242.01201,161.26862 241.50451,162.14362 240.57701,162.58112 L 242.62451,165.95862 Z M 238.66951,161.58362 Q 239.70201,161.58362 240.31451,160.93612 240.94451,160.28862 240.94451,159.22112 V 153.62112 Q 240.94451,152.53612 240.31451,151.90612 239.70201,151.25862 238.66951,151.25862 237.63701,151.25862 237.00701,151.90612 236.39451,152.53612 236.39451,153.62112 V 159.22112 Q 236.39451,160.28862 237.00701,160.93612 237.63701,161.58362 238.66951,161.58362 Z"
         id="path141" />
      <path
         d="M 245.54701,162.80862 V 150.03362 H 249.48451 Q 250.62201,150.03362 251.47951,150.50612 252.33701,150.96112 252.80951,151.78362 253.28201,152.60612 253.28201,153.70862 253.28201,155.00362 252.61701,155.93112 251.95201,156.85862 250.84951,157.22612 L 253.45701,162.80862 H 251.72451 L 249.22201,157.38362 H 247.10451 V 162.80862 Z M 247.10451,155.96612 H 249.48451 Q 250.46451,155.96612 251.05951,155.35362 251.65451,154.72362 251.65451,153.70862 251.65451,152.67612 251.05951,152.06362 250.46451,151.45112 249.48451,151.45112 H 247.10451 Z"
         id="path143" />
      <path
         d="M 259.73953,162.98362 Q 257.88453,162.98362 256.78203,162.00362 255.67953,161.02362 255.67953,159.30862 H 257.25453 Q 257.25453,160.37612 257.93703,160.98862 258.61953,161.58362 259.73953,161.58362 260.82453,161.58362 261.47203,160.95362 262.11953,160.32362 262.11953,159.30862 262.11953,158.53862 261.69953,157.97862 261.29703,157.40112 260.52703,157.19112 L 258.58453,156.64862 Q 257.37703,156.29862 256.67703,155.40612 255.99453,154.49612 255.99453,153.27112 255.99453,152.25612 256.44953,151.48612 256.90453,150.71612 257.72703,150.29612 258.54953,149.85862 259.61703,149.85862 260.70203,149.85862 261.52453,150.29612 262.36453,150.71612 262.83703,151.48612 263.30953,152.23862 263.30953,153.23612 H 261.73453 Q 261.73453,152.36112 261.13953,151.81862 260.54453,151.25862 259.61703,151.25862 258.68953,151.25862 258.11203,151.81862 257.53453,152.36112 257.53453,153.23612 257.53453,153.93612 257.90203,154.44362 258.28703,154.93362 258.96953,155.12612 L 260.96453,155.68612 Q 262.24203,156.03612 262.94203,157.01612 263.65953,157.97862 263.65953,159.30862 263.65953,160.98862 262.59203,161.98612 261.52453,162.98362 259.73953,162.98362 Z"
         id="path145" />
      <path
         d="M 269.38203,162.80862 V 151.46862 H 265.88203 V 150.03362 H 274.45703 V 151.46862 H 270.95703 V 162.80862 Z"
         id="path147" />
      <path
         d="M 280.66954,162.98362 Q 278.88454,162.98362 277.93954,162.00362 276.99454,161.00612 276.99454,159.30862 V 150.03362 H 278.56954 V 159.30862 Q 278.56954,160.35862 279.07704,160.97112 279.60204,161.58362 280.66954,161.58362 281.71954,161.58362 282.24454,160.97112 282.76954,160.35862 282.76954,159.30862 V 150.03362 H 284.34454 V 159.30862 Q 284.34454,161.02362 283.39954,162.00362 282.47204,162.98362 280.66954,162.98362 Z"
         id="path149" />
      <path
         d="M 290.08454,162.80862 286.79454,150.03362 H 288.40454 L 290.59204,158.73112 Q 290.81954,159.64112 290.95954,160.41112 291.11704,161.18112 291.18704,161.58362 291.25704,161.18112 291.41454,160.41112 291.58954,159.62362 291.81704,158.71362 L 293.91704,150.03362 H 295.54454 L 292.23704,162.80862 Z"
         id="path151" />
      <path
         d="M 298.29206,162.80862 296.76956,150.03362 H 298.22206 L 299.21956,159.48362 Q 299.28956,160.06112 299.32456,160.69112 299.35956,161.30362 299.37706,161.67112 299.41206,161.30362 299.46456,160.69112 299.53456,160.06112 299.60456,159.48362 L 300.86456,150.03362 H 302.56206 L 303.71706,159.48362 Q 303.78706,160.06112 303.85706,160.69112 303.92706,161.30362 303.96206,161.67112 303.99706,161.30362 304.03206,160.69112 304.08456,160.06112 304.15456,159.48362 L 305.18706,150.03362 H 306.56956 L 305.01206,162.80862 H 303.03456 L 301.87956,153.18362 Q 301.80956,152.58862 301.77456,152.02862 301.73956,151.45112 301.70456,151.13612 301.66956,151.45112 301.63456,152.02862 301.59956,152.58862 301.51206,153.18362 L 300.26956,162.80862 Z"
         id="path153" />
      <path
         d="M 307.61956,162.80862 311.29456,156.33362 307.81206,150.03362 H 309.63206 L 311.60956,153.81362 Q 311.76706,154.11112 311.92456,154.46112 312.09956,154.79362 312.20456,154.98612 312.29206,154.79362 312.44956,154.46112 312.62456,154.11112 312.78206,153.81362 L 314.79456,150.03362 H 316.52706 L 313.04456,156.22862 316.71956,162.80862 H 314.91706 L 312.72956,158.74862 Q 312.57206,158.45112 312.39706,158.11862 312.23956,157.76862 312.15206,157.55862 312.06456,157.76862 311.88956,158.10112 311.73206,158.43362 311.57456,158.73112 L 309.36956,162.80862 Z"
         id="path155" />
      <path
         d="M 321.88206,162.80862 V 158.03112 L 318.03206,150.03362 H 319.71206 L 322.19706,155.28362 Q 322.40706,155.72112 322.52956,156.03612 322.65206,156.33362 322.68706,156.47362 322.72206,156.33362 322.84456,156.03612 322.98456,155.72112 323.19456,155.28362 L 325.67956,150.03362 H 327.30706 L 323.45706,158.03112 V 162.80862 Z"
         id="path157" />
      <path
         d="M 329.40706,162.80862 V 161.23362 L 335.16456,151.46862 H 329.49456 V 150.03362 H 336.75706 V 151.60862 L 330.99956,161.37362 H 336.93206 V 162.80862 Z"
         id="path159" />
      <path
         d="M 70.669403,184.82362 Q 68.936903,184.82362 67.904403,183.80862 66.889403,182.79362 66.889403,180.97362 V 178.76862 Q 66.889403,176.93112 67.904403,175.93362 68.919403,174.91862 70.669403,174.91862 72.419403,174.91862 73.434403,175.93362 74.449403,176.93112 74.449403,178.76862 V 180.97362 Q 74.449403,182.79362 73.416903,183.80862 72.401903,184.82362 70.669403,184.82362 Z M 70.669403,183.42362 Q 71.701903,183.42362 72.279403,182.84612 72.874403,182.26862 72.874403,181.14862 V 178.59362 Q 72.874403,177.47362 72.279403,176.89612 71.701903,176.31862 70.669403,176.31862 69.654403,176.31862 69.059403,176.89612 68.464403,177.47362 68.464403,178.59362 V 181.14862 Q 68.464403,182.26862 69.059403,182.84612 69.654403,183.42362 70.669403,183.42362 Z"
         id="path161" />
      <path
         d="M 81.16941,184.85862 Q 79.45441,184.85862 78.45691,183.86112 77.45941,182.86362 77.45941,181.00862 V 175.58362 Q 77.45941,173.72862 78.45691,172.73112 79.45441,171.73362 81.16941,171.73362 82.88441,171.73362 83.88191,172.73112 84.87941,173.72862 84.87941,175.56612 V 181.00862 Q 84.87941,182.86362 83.88191,183.86112 82.88441,184.85862 81.16941,184.85862 Z M 81.16941,183.44112 Q 82.20191,183.44112 82.74441,182.86362 83.30441,182.26862 83.30441,181.18362 V 175.40862 Q 83.30441,174.32362 82.74441,173.74612 82.20191,173.15112 81.16941,173.15112 80.15441,173.15112 79.59441,173.74612 79.03441,174.32362 79.03441,175.40862 V 181.18362 Q 79.03441,182.26862 79.59441,182.86362 80.15441,183.44112 81.16941,183.44112 Z"
         id="path163" />
      <path
         d="M 91.669416,184.85862 Q 89.901916,184.85862 88.851916,183.84362 87.819416,182.81112 87.819416,181.09612 V 175.49612 Q 87.819416,173.78112 88.851916,172.76612 89.901916,171.73362 91.669416,171.73362 93.436916,171.73362 94.469416,172.76612 95.519416,173.78112 95.519416,175.49612 V 181.09612 Q 95.519416,182.23362 95.046916,183.09112 94.574416,183.93112 93.699416,184.40362 92.841916,184.85862 91.669416,184.85862 Z M 91.669416,183.51112 Q 92.719416,183.51112 93.349416,182.84612 93.996916,182.16362 93.996916,181.09612 V 175.49612 Q 93.996916,174.42862 93.349416,173.76362 92.719416,173.08112 91.669416,173.08112 90.619416,173.08112 89.971916,173.76362 89.341916,174.42862 89.341916,175.49612 V 181.09612 Q 89.341916,182.16362 89.971916,182.84612 90.619416,183.51112 91.669416,183.51112 Z M 91.669416,179.25862 Q 91.196916,179.25862 90.899416,178.99612 90.619416,178.73362 90.619416,178.24362 90.619416,177.77112 90.899416,177.52612 91.196916,177.26362 91.669416,177.26362 92.141916,177.26362 92.421916,177.52612 92.719416,177.77112 92.719416,178.24362 92.719416,178.73362 92.421916,178.99612 92.141916,179.25862 91.669416,179.25862 Z"
         id="path165" />
      <path
         d="M 102.16942,184.85862 Q 100.96192,184.85862 100.03442,184.38612 99.106922,183.91362 98.581922,183.07362 98.074422,182.21612 98.074422,181.11362 98.074422,179.90612 98.756922,179.03112 99.456922,178.15612 100.61192,177.96362 V 177.91112 Q 99.614422,177.68362 99.019422,176.91362 98.424422,176.12612 98.424422,175.11112 98.424422,174.11362 98.896922,173.36112 99.369422,172.59112 100.20942,172.17112 101.06692,171.73362 102.16942,171.73362 103.28942,171.73362 104.12942,172.17112 104.96942,172.59112 105.44192,173.36112 105.91442,174.11362 105.91442,175.11112 105.91442,176.12612 105.31942,176.91362 104.72442,177.68362 103.72692,177.91112 V 177.96362 Q 104.88192,178.15612 105.56442,179.03112 106.26442,179.90612 106.26442,181.11362 106.26442,182.21612 105.73942,183.07362 105.23192,183.91362 104.30442,184.38612 103.39442,184.85862 102.16942,184.85862 Z M 102.16942,177.29862 Q 103.14942,177.29862 103.74442,176.72112 104.33942,176.14362 104.33942,175.21612 104.33942,174.28862 103.74442,173.71112 103.14942,173.13362 102.16942,173.13362 101.20692,173.13362 100.59442,173.71112 99.999422,174.28862 99.999422,175.21612 99.999422,176.14362 100.59442,176.72112 101.20692,177.29862 102.16942,177.29862 Z M 102.16942,183.44112 Q 103.28942,183.44112 103.98942,182.79362 104.68942,182.12862 104.68942,181.07862 104.68942,180.01112 103.98942,179.36362 103.28942,178.69862 102.16942,178.69862 101.04942,178.69862 100.34942,179.36362 99.649422,180.01112 99.649422,181.07862 99.649422,182.12862 100.34942,182.79362 101.04942,183.44112 102.16942,183.44112 Z"
         id="path167" />
      <path
         d="M 119.40694,184.68362 V 183.24862 H 122.81944 V 176.49362 H 119.75694 V 175.05862 H 124.39444 V 183.24862 H 127.63194 V 184.68362 Z M 123.43194,173.32612 Q 122.85444,173.32612 122.52194,173.02862 122.18944,172.73112 122.18944,172.22362 122.18944,171.69862 122.52194,171.40112 122.85444,171.08612 123.43194,171.08612 124.00944,171.08612 124.34194,171.40112 124.67444,171.69862 124.67444,172.22362 124.67444,172.73112 124.34194,173.02862 124.00944,173.32612 123.43194,173.32612 Z"
         id="path169" />
      <path
         d="M 130.25694,184.68362 V 183.24862 H 132.86444 V 173.34362 H 130.25694 V 171.90862 H 137.08194 V 173.34362 H 134.47444 V 183.24862 H 137.08194 V 184.68362 Z"
         id="path171" />
      <path
         d="M 145.56945,184.68362 Q 144.29195,184.68362 143.52195,183.94862 142.76945,183.19612 142.76945,181.97112 V 173.34362 H 139.44445 V 171.90862 H 144.34445 V 181.97112 Q 144.34445,182.56612 144.67695,182.91612 145.00945,183.24862 145.56945,183.24862 H 148.54445 V 184.68362 Z"
         id="path173" />
      <path
         d="M 151.69446,184.68362 V 171.90862 H 153.26946 V 183.24862 H 159.04446 V 184.68362 Z"
         id="path175" />
      <path
         d="M 161.49446,184.68362 V 183.24862 H 164.95946 V 173.27362 L 161.49446,175.86362 V 174.06112 L 164.38196,171.90862 H 166.53446 V 183.24862 H 169.36946 V 184.68362 Z"
         id="path177" />
      <path
         d="M 188.96948,186.60862 Q 187.42948,186.60862 186.51948,185.83862 185.60948,185.08612 185.73198,183.70362 L 185.99448,180.83362 Q 186.08198,179.90612 185.73198,179.50362 185.38198,179.08362 184.24448,179.08362 H 182.23198 V 177.68362 H 184.24448 Q 185.38198,177.68362 185.73198,177.28112 186.08198,176.86112 185.99448,175.93362 L 185.73198,173.06362 Q 185.60948,171.68112 186.51948,170.92862 187.42948,170.15862 188.96948,170.15862 H 189.75698 V 171.55862 H 188.96948 Q 188.14698,171.55862 187.69198,171.94362 187.23698,172.31112 187.30698,173.06362 L 187.56948,175.93362 Q 187.65698,176.96612 187.07948,177.59612 186.50198,178.20862 185.18948,178.33112 186.50198,178.45362 187.07948,179.13612 187.65698,179.81862 187.56948,180.83362 L 187.30698,183.70362 Q 187.23698,184.45612 187.69198,184.82362 188.14698,185.20862 188.96948,185.20862 H 189.75698 V 186.60862 Z"
         id="path179" />
      <path
         d="M 193.08198,186.60862 V 185.20862 H 193.86948 Q 194.69198,185.20862 195.16448,184.82362 195.65448,184.45612 195.53198,183.70362 L 195.09448,180.83362 Q 194.93698,179.83612 195.44448,179.15362 195.95198,178.45362 196.84448,178.29612 195.95198,178.15612 195.44448,177.54362 194.93698,176.93112 195.09448,175.93362 L 195.53198,173.06362 Q 195.65448,172.31112 195.16448,171.94362 194.69198,171.55862 193.86948,171.55862 H 193.08198 V 170.15862 H 193.86948 Q 194.90198,170.15862 195.67198,170.50862 196.45948,170.84112 196.84448,171.48862 197.24698,172.13612 197.10698,173.06362 L 196.66948,175.93362 Q 196.52948,176.86112 196.89698,177.28112 197.28198,177.68362 198.41948,177.68362 H 200.60698 V 179.08362 H 198.41948 Q 197.29948,179.08362 196.91448,179.50362 196.52948,179.90612 196.66948,180.83362 L 197.10698,183.70362 Q 197.24698,184.61362 196.84448,185.26112 196.45948,185.92612 195.67198,186.25862 194.90198,186.60862 193.86948,186.60862 Z"
         id="path181" />
      <path
         d="M 216.00699,186.60862 V 170.15862 H 220.29449 V 171.55862 H 217.58199 V 185.20862 H 220.29449 V 186.60862 Z"
         id="path183" />
      <path
         d="M 225.54451,186.60862 V 185.20862 H 228.25701 V 171.55862 H 225.54451 V 170.15862 H 229.83201 V 186.60862 Z"
         id="path185" />
      <path
         d="M 246.73701,187.83362 V 186.39862 H 249.44951 Q 250.27201,186.39862 250.74451,185.92612 251.21701,185.47112 251.21701,184.68362 V 183.80862 L 251.25201,182.23362 H 251.19951 Q 251.05951,183.09112 250.37701,183.56362 249.69451,184.01862 248.66201,184.01862 247.17451,184.01862 246.31701,183.07362 245.45951,182.12862 245.45951,180.48362 V 178.45362 Q 245.45951,176.80862 246.31701,175.84612 247.17451,174.88362 248.66201,174.88362 249.69451,174.88362 250.37701,175.37362 251.05951,175.86362 251.19951,176.72112 H 251.23451 V 175.05862 H 252.79201 V 184.68362 Q 252.79201,186.13612 251.88201,186.97612 250.98951,187.83362 249.43201,187.83362 Z M 249.13451,182.70612 Q 250.11451,182.70612 250.67451,182.09362 251.23451,181.48112 251.23451,180.39612 V 178.55862 Q 251.23451,177.47362 250.67451,176.86112 250.11451,176.24862 249.13451,176.24862 248.13701,176.24862 247.57701,176.82612 247.03451,177.40362 247.03451,178.38362 V 180.57112 Q 247.03451,181.55112 247.57701,182.12862 248.13701,182.70612 249.13451,182.70612 Z"
         id="path187" />
      <path
         d="M 257.83203,184.68362 260.98203,179.20612 260.92953,179.17112 Q 260.75453,179.45112 260.28203,179.62612 259.80953,179.78362 259.24953,179.78362 258.14703,179.78362 257.30703,179.29362 256.48453,178.78612 256.01203,177.91112 255.53953,177.03612 255.53953,175.88112 255.53953,174.63862 256.06453,173.71112 256.58953,172.78362 257.51703,172.25862 258.44453,171.73362 259.65203,171.73362 260.89453,171.73362 261.82203,172.25862 262.74953,172.76612 263.27453,173.69362 263.79953,174.60362 263.79953,175.81112 263.79953,176.65112 263.48453,177.54362 263.16953,178.41862 262.62703,179.38112 L 259.66953,184.68362 Z M 259.66953,178.55862 Q 260.80703,178.55862 261.50703,177.80612 262.22453,177.05362 262.22453,175.84612 262.22453,174.63862 261.50703,173.88612 260.80703,173.13362 259.66953,173.13362 258.53203,173.13362 257.81453,173.88612 257.11453,174.63862 257.11453,175.84612 257.11453,177.05362 257.81453,177.80612 258.53203,178.55862 259.66953,178.55862 Z"
         id="path189" />
      <path
         d="M 272.23453,187.83362 V 185.03362 L 272.26953,182.84612 H 272.21703 Q 272.09453,183.77362 271.39453,184.31612 270.69453,184.85862 269.60953,184.85862 268.15703,184.85862 267.29953,183.89612 266.44203,182.93362 266.44203,181.27112 V 178.45362 Q 266.44203,176.79112 267.29953,175.84612 268.17453,174.88362 269.60953,174.88362 270.69453,174.88362 271.39453,175.42612 272.09453,175.95112 272.21703,176.89612 H 272.23453 V 175.05862 H 273.80953 V 187.83362 Z M 270.13453,183.49362 Q 271.11453,183.49362 271.67453,182.88112 272.23453,182.26862 272.23453,181.18362 V 178.55862 Q 272.23453,177.47362 271.67453,176.86112 271.11453,176.24862 270.13453,176.24862 269.13703,176.24862 268.57703,176.75612 268.01703,177.26362 268.01703,178.38362 V 181.35862 Q 268.01703,182.47862 268.57703,182.98612 269.13703,183.49362 270.13453,183.49362 Z"
         id="path191" />
      <path
         d="M 280.80954,184.85862 Q 279.05954,184.85862 278.04454,183.87862 277.02954,182.89862 277.02954,181.18362 V 175.40862 Q 277.02954,173.69362 278.04454,172.71362 279.05954,171.73362 280.80954,171.73362 282.52454,171.73362 283.53954,172.73112 284.55454,173.71112 284.55454,175.40862 H 282.97954 Q 282.97954,174.32362 282.40204,173.74612 281.84204,173.15112 280.80954,173.15112 279.77704,173.15112 279.18204,173.74612 278.60454,174.32362 278.60454,175.40862 V 181.18362 Q 278.60454,182.26862 279.18204,182.86362 279.77704,183.44112 280.80954,183.44112 281.84204,183.44112 282.40204,182.86362 282.97954,182.26862 282.97954,181.18362 H 284.55454 Q 284.55454,182.88112 283.53954,183.87862 282.52454,184.85862 280.80954,184.85862 Z"
         id="path193" />
      <path
         d="M 291.23954,184.85862 Q 289.48954,184.85862 288.47454,183.87862 287.45954,182.89862 287.45954,181.18362 V 175.40862 Q 287.45954,173.69362 288.47454,172.71362 289.48954,171.73362 291.23954,171.73362 292.95454,171.73362 293.96954,172.73112 294.98454,173.71112 294.98454,175.40862 H 293.40954 Q 293.40954,174.32362 292.83204,173.74612 292.27204,173.15112 291.23954,173.15112 290.20704,173.15112 289.61204,173.72862 289.03454,174.30612 289.03454,175.39112 V 181.18362 Q 289.03454,182.26862 289.61204,182.86362 290.20704,183.45862 291.23954,183.45862 292.27204,183.45862 292.83204,182.86362 293.40954,182.26862 293.40954,181.18362 V 179.43362 H 290.81954 V 177.99862 H 294.98454 V 181.18362 Q 294.98454,182.88112 293.96954,183.87862 292.95454,184.85862 291.23954,184.85862 Z"
         id="path195" />
      <path
         d="M 303.80456,187.83362 302.00206,184.84112 Q 301.93206,184.84112 301.84456,184.84112 301.75706,184.85862 301.66956,184.85862 299.90206,184.85862 298.85206,183.84362 297.81956,182.81112 297.81956,181.09612 V 175.49612 Q 297.81956,173.78112 298.85206,172.76612 299.90206,171.73362 301.66956,171.73362 303.43706,171.73362 304.46956,172.76612 305.51956,173.78112 305.51956,175.49612 V 181.09612 Q 305.51956,182.26862 305.01206,183.14362 304.50456,184.01862 303.57706,184.45612 L 305.62456,187.83362 Z M 301.66956,183.45862 Q 302.70206,183.45862 303.31456,182.81112 303.94456,182.16362 303.94456,181.09612 V 175.49612 Q 303.94456,174.41112 303.31456,173.78112 302.70206,173.13362 301.66956,173.13362 300.63706,173.13362 300.00706,173.78112 299.39456,174.41112 299.39456,175.49612 V 181.09612 Q 299.39456,182.16362 300.00706,182.81112 300.63706,183.45862 301.66956,183.45862 Z"
         id="path197" />
      <path
         d="M 326.16956,180.83362 Q 325.45206,180.83362 324.96206,180.58862 324.47206,180.32612 324.12206,179.95862 323.75456,179.57362 323.43956,179.18862 323.12456,178.80362 322.79206,178.55862 322.44206,178.29612 321.96956,178.29612 321.42706,178.29612 321.09456,178.62862 320.74456,178.96112 320.74456,179.52112 V 180.57112 H 319.25706 V 179.52112 Q 319.25706,178.38362 320.00956,177.68362 320.74456,176.98362 321.96956,176.98362 322.70456,176.98362 323.21206,177.24612 323.70206,177.49112 324.06956,177.87612 324.41956,178.24362 324.73456,178.62862 325.03206,179.01362 325.38206,179.27612 325.71456,179.52112 326.16956,179.52112 326.72956,179.52112 327.06206,179.17112 327.39456,178.82112 327.39456,178.29612 V 178.20862 H 336.66956 V 179.60862 H 328.53206 Q 328.19956,180.18612 327.58706,180.51862 326.97456,180.83362 326.16956,180.83362 Z"
         id="path199" />
      <path
         d="M 342.89959,183.02112 V 179.60862 H 339.55709 V 178.20862 H 342.89959 V 174.79612 H 344.43959 V 178.20862 H 347.78209 V 179.60862 H 344.43959 V 183.02112 Z"
         id="path201" />
      <path
         d="M 362.70959,184.07112 364.58209,181.70862 H 350.40709 V 180.30862 H 365.70209 L 366.03459,179.88862 Q 366.36709,179.48612 366.59459,179.24112 366.82209,178.99612 366.90959,178.92612 366.82209,178.83862 366.57709,178.57612 366.33209,178.29612 365.96459,177.85862 L 365.68459,177.50862 H 350.40709 V 176.10862 H 364.58209 L 362.70959,173.74612 H 364.56459 L 368.60709,178.90862 364.54709,184.07112 Z"
         id="path203" />
    </g>
  </g>
</svg>
