<svg xmlns="http://www.w3.org/2000/svg" width="325.624" height="115.63" viewBox="0 0 305.272 108.403"><g font-weight="400" font-family="Knack Nerd Font" letter-spacing="0" word-spacing="0" fill="#fff"><g style="line-height:125%;text-decoration-line:underline" font-size="27.5" text-decoration="underline"><path d="M0 .846h2.726v8.916L11.199.846h3.182L6.58 9.036l8.03 11.858h-3.277L4.793 10.85l-2.067 2.202v7.842H0V.846zM17.322 5.854h2.229l.241 2.256q.672-1.302 1.786-1.96 1.115-.658 2.66-.658 1.208 0 2.054.39.845.389 1.396 1.114 1.128 1.517 1.128 4.579v9.319h-2.484v-9.32q0-2.027-.712-2.98-.712-.954-2.242-.954-.887 0-1.545.31-.644.308-1.1.912-.94 1.222-.94 3.532v8.5h-2.471V5.854zM38.135 21.283q-2.337 0-3.693-1.303-.644-.617-1.007-1.45-.362-.846-.362-2.027 0-2.484 1.691-3.8Q36.43 11.4 39.706 11.4h3.316v-.39q0-.859-.228-1.53t-.685-1.088q-.443-.402-1.168-.604-.725-.201-1.692-.201-1.275 0-2.564.362-1.303.363-2.511 1.061V6.54q.564-.216 1.248-.43.685-.215 1.383-.363 1.222-.255 2.458-.255.953 0 1.732.148.779.134 1.45.416.618.268 1.168.685.564.403.954.94.282.39.456.819.175.43.269.846.215.98.215 2.967v3.075q.026.779.04 1.37.013.59.08 1.1.068.565.148 1.062.094.497.161.752.094.416.215.792.121.362.148.43h-2.484q-.067-.162-.175-.47-.094-.323-.188-.699l-.134-.59q-.054-.31-.08-.524-.39.671-1.008 1.195-.604.524-1.195.832-.644.336-1.37.484-.711.161-1.53.161zm.51-2.068q2.028 0 3.196-1.423 1.181-1.45 1.181-3.908v-.55h-3.128q-2.149 0-3.25.752-.577.39-.846.966-.255.564-.255 1.316 0 .699.215 1.222.215.51.604.873.39.35.94.55.564.202 1.343.202zM57.35 21.283q-1.679 0-3.062-.524-1.37-.537-2.336-1.57-.98-1.048-1.477-2.498-.484-1.464-.484-3.304 0-1.92.51-3.37.524-1.45 1.464-2.444.994-1.047 2.35-1.557 1.37-.524 3.048-.524.618 0 1.142.067.523.067 1.034.215 1.02.282 2.08.873v2.591q-.496-.43-.98-.752-.483-.322-.98-.51-1.007-.39-2.229-.39-2.336 0-3.585 1.505-1.249 1.517-1.249 4.283 0 1.29.282 2.39.296 1.101.967 1.907 1.262 1.517 3.626 1.517.671 0 1.222-.107.564-.108 1.034-.296.604-.228 1.033-.523.444-.31.86-.699v2.565q-.457.269-.994.497-.537.228-1.047.376-.47.134-1.034.201-.55.081-1.195.081zM67.367 0h2.551v12.098l6.486-6.244h3.008l-5.922 5.667 6.848 9.373h-3.021l-5.56-7.762-1.839 1.733v6.029h-2.551V0zM99.285.846h3.437l6.768 16.503V.846h2.618v20.048h-3.437L101.903 4.39v16.503h-2.618V.846zM123.052 21.283q-1.732 0-3.115-.524-1.37-.537-2.337-1.57-.967-1.035-1.477-2.485-.497-1.464-.497-3.303 0-1.893.51-3.317.51-1.437 1.41-2.444.98-1.087 2.297-1.61 1.315-.538 2.833-.538 1.504 0 2.632.497 1.141.497 1.947 1.437.805.94 1.222 2.282.43 1.33.43 3.048v1.209h-10.703v.08q0 2.458 1.29 3.8.617.645 1.49.994.886.35 2.108.35t2.484-.377q1.303-.39 2.753-1.141v2.457q-.712.296-1.383.51-.672.215-1.33.363-.644.148-1.289.215-.644.067-1.275.067zm3.384-9.252q-.027-1.155-.31-1.974-.268-.832-.711-1.342-.483-.564-1.195-.846-.712-.282-1.598-.282-1.813 0-2.954 1.181-1.155 1.195-1.37 3.277l8.138-.014zM134.56 5.854h2.242l.241 2.941q.632-1.598 1.907-2.457 1.262-.846 3.021-.846.914 0 1.72.228.389.108.778.296.39.174.739.416v2.524q-.766-.617-1.612-.9-.832-.281-1.813-.281-2.296 0-3.518 1.45-1.222 1.437-1.222 4.19v7.479h-2.484V5.854zM154.553 21.283q-1.423 0-2.497-.564-1.075-.564-1.8-1.558-.778-1.06-1.168-2.524-.39-1.477-.39-3.29 0-1.786.377-3.25.39-1.476 1.181-2.524.793-1.047 1.894-1.557 1.1-.524 2.403-.524 1.37 0 2.39.577 1.034.591 1.625 1.706V0h2.47v20.894h-2.228L158.568 19q-.309.537-.698.967-.39.416-.94.725-1.02.591-2.377.591zm.35-2.095q1.812 0 2.739-1.477.926-1.463.926-4.324 0-2.86-.926-4.337-.43-.685-1.101-1.074-.672-.39-1.625-.39-1.8 0-2.7 1.464-.912 1.477-.912 4.337 0 2.86.913 4.338.47.765 1.155 1.114.684.35 1.53.35zM183.262.846h11.803v2.283h-9.077v6.176h8.23v2.283h-8.23v9.306h-2.726V.846zM204.948 21.283q-1.545 0-2.753-.497-1.195-.51-2.028-1.517-.846-1.048-1.249-2.525-.402-1.49-.402-3.37 0-3.813 1.651-5.854 1.652-2.028 4.78-2.028 1.612 0 2.793.524 1.196.51 2.001 1.504 1.652 2.04 1.652 5.84 0 1.92-.416 3.411-.403 1.49-1.236 2.498-.805.993-2.014 1.504-1.195.51-2.78.51zm0-2.095q1.893 0 2.86-1.477.966-1.463.966-4.324 0-2.86-.966-4.337-.967-1.463-2.86-1.463-1.88 0-2.847 1.463-.967 1.477-.967 4.337 0 2.86.967 4.324.967 1.477 2.847 1.477zM215.837 5.854h2.23l.241 2.256q.671-1.302 1.786-1.96 1.114-.658 2.659-.658 1.208 0 2.054.39.846.389 1.397 1.114 1.128 1.517 1.128 4.579v9.319h-2.485v-9.32q0-2.027-.711-2.98-.712-.954-2.243-.954-.886 0-1.544.31-.644.308-1.101.912-.94 1.222-.94 3.532v8.5h-2.47V5.854zM240.598 20.947q-2.766 0-3.92-1.114-1.142-1.101-1.142-3.84V7.774h-4.015v-1.92h4.015V1.92l2.47-1.074v5.008h5.613v1.92h-5.612v8.218q0 1.652.63 2.323.618.658 2.203.658h2.78v1.974h-3.022z"/></g><g style="line-height:125%" font-size="17.5"><path d="M5.106 61.141q-1.487 0-2.35-.829-.41-.393-.64-.922-.231-.539-.231-1.29 0-1.581 1.076-2.419 1.06-.829 3.145-.829h2.11v-.248q0-.546-.145-.974-.145-.427-.435-.692-.282-.256-.744-.384-.461-.128-1.077-.128-.811 0-1.632.23-.829.231-1.598.675V51.76q.36-.137.795-.273.436-.137.88-.231.778-.162 1.564-.162.607 0 1.102.094.496.085.923.264.393.171.744.436.358.257.606.598.18.248.29.522.112.273.172.538.136.624.136 1.888v1.957q.017.496.026.872.008.376.051.7.043.36.094.675.06.317.103.479.06.265.137.504.076.23.094.274H8.72q-.043-.103-.111-.3-.06-.205-.12-.444l-.085-.376q-.035-.196-.052-.333-.248.427-.64.76-.385.334-.761.53-.41.214-.872.308-.453.102-.974.102zm.325-1.316q1.29 0 2.034-.905.752-.923.752-2.487v-.35H6.226q-1.368 0-2.068.478-.368.248-.539.616-.162.358-.162.837 0 .444.137.777.136.325.384.556.248.222.598.35.36.128.855.128zM17.026 61.141q-.435 0-.794-.094-.36-.085-.71-.282-.657-.376-1.05-1.076l-.154 1.205h-1.419V47.598h1.572v4.947q.368-.7 1.043-1.076.658-.376 1.547-.376.82 0 1.503.324.693.325 1.197.991.495.667.743 1.598.248.932.248 2.094 0 2.341-.991 3.691-.487.667-1.17 1.009-.685.341-1.565.341zm-.222-1.333q1.137 0 1.71-.931.58-.94.58-2.76 0-1.82-.58-2.76-.573-.931-1.718-.931t-1.735.93q-.59.94-.59 2.76 0 1.821.59 2.752.59.94 1.743.94zM27.861 61.141q-1.068 0-1.948-.333-.871-.342-1.487-1-.624-.666-.94-1.589-.307-.931-.307-2.102 0-1.222.324-2.145.334-.923.932-1.555.632-.667 1.495-.991.872-.333 1.94-.333.393 0 .726.042.333.043.658.137.65.18 1.325.555v1.65q-.317-.274-.624-.479-.308-.205-.624-.325-.64-.247-1.418-.247-1.487 0-2.282.957-.795.965-.795 2.725 0 .82.18 1.521.188.701.615 1.214.803.965 2.307.965.427 0 .778-.068.359-.068.658-.188.384-.145.658-.333.282-.197.547-.445v1.632q-.29.171-.633.317-.342.145-.666.239-.3.085-.658.128-.35.051-.76.051zM37.081 61.141q-.905 0-1.59-.359-.683-.358-1.144-.99-.496-.676-.743-1.607-.248-.94-.248-2.094 0-1.136.239-2.068.248-.94.752-1.606.504-.667 1.205-.991.7-.333 1.53-.333.87 0 1.52.367.658.376 1.034 1.085v-4.947h1.572v13.296H39.79l-.154-1.205q-.196.342-.444.615-.248.265-.598.461-.65.376-1.513.376zm.222-1.333q1.154 0 1.744-.94.59-.931.59-2.751 0-1.82-.59-2.76-.274-.436-.701-.684-.427-.247-1.034-.247-1.145 0-1.718.93-.58.94-.58 2.76 0 1.821.58 2.76.3.488.735.71.436.222.974.222zM48.617 61.141q-1.102 0-1.982-.333-.872-.342-1.487-1-.616-.658-.94-1.58-.316-.932-.316-2.103 0-1.204.324-2.11.325-.914.898-1.555.623-.692 1.46-1.026.838-.341 1.804-.341.957 0 1.674.316.727.316 1.24.914.512.598.777 1.453.274.846.274 1.94v.768h-6.81v.052q0 1.563.82 2.418.393.41.948.632.564.222 1.342.222.777 0 1.58-.239.83-.248 1.752-.726v1.564q-.453.188-.88.324-.427.137-.846.23-.41.095-.82.138-.41.042-.812.042zm2.153-5.887q-.017-.735-.196-1.256-.171-.53-.453-.855-.308-.359-.76-.538-.454-.18-1.017-.18-1.154 0-1.88.752-.735.761-.872 2.085l5.178-.009zM57.341 52.545h-2.555v-1.222h2.555v-.666q0-1.581.727-2.316.717-.743 2.247-.743h1.888v1.307h-1.786q-.46 0-.743.094-.273.086-.427.248-.333.35-.333 1.23v.846h3.29v1.222h-3.29v8.349H57.34v-8.349zM69.022 64.653q-.333 0-.666-.034-.334-.025-.692-.085-.35-.06-.701-.146-.342-.085-.718-.205v-1.555q.419.197.803.342.393.145.718.24.667.187 1.29.187.633 0 1.077-.17.444-.172.743-.53.582-.684.582-2.188v-1.137q-.368.795-1.026 1.197-.65.393-1.572.393-1.683 0-2.683-1.342-1-1.341-1-3.589 0-2.247 1-3.597.504-.675 1.162-1.008.666-.334 1.53-.334.444 0 .828.094.393.086.718.274.65.376 1.043 1.136l.153-1.239h1.419v8.921q0 2.145-1.017 3.264-1.008 1.111-2.99 1.111zm.18-4.998q1.11 0 1.683-.932.573-.931.573-2.692 0-1.777-.573-2.691-.3-.487-.735-.7-.427-.214-.957-.214-1.145 0-1.752.914-.606.914-.606 2.7 0 1.752.615 2.683.615.932 1.752.932zM76.08 47.598h1.573v5.16q.427-.828 1.136-1.247.71-.418 1.692-.418.769 0 1.307.247.539.248.889.71.718.965.718 2.913v5.93h-1.581v-5.93q0-1.29-.453-1.897-.453-.606-1.427-.606-.564 0-.983.196-.41.197-.7.581-.598.778-.598 2.248v5.409H76.08V47.598zM89.41 49.589q-.256 0-.256-.257v-1.478q0-.256.256-.256h1.23q.257 0 .257.256v1.478q0 .257-.256.257h-1.23zm2.871 11.373q-.683 0-1.23-.214-.538-.213-.948-.692-.778-.906-.778-2.563v-4.94h-2.094v-1.23h3.666v6.17q0 1.068.393 1.598.205.282.487.41.29.128.658.128h1.837v1.333h-1.99zM101.04 49.589q-.256 0-.256-.257v-1.478q0-.256.256-.256h1.23q.257 0 .257.256v1.478q0 .257-.256.257h-1.231zM97.502 63.2h2q.769 0 1.154-.53.384-.538.384-1.607v-8.519h-2.709v-1.222h4.281v9.741q0 .812-.188 1.462-.188.649-.572 1.11-.385.462-.94.676-.547.222-1.24.222h-2.17V63.2zM107.927 47.598h1.624v7.699l4.127-3.974h1.914l-3.768 3.606 4.358 5.965h-1.923l-3.538-4.94-1.17 1.103v3.837h-1.624V47.598zM123.539 60.962q-.684 0-1.23-.214-.539-.213-.95-.692-.777-.906-.777-2.563v-8.665h-2.52v-1.23h4.093v9.895q0 1.068.393 1.598.205.282.487.41.29.128.658.128h1.837v1.333h-1.991zM127.982 51.323h1.29l.137.82q.282-.512.71-.786.418-.264.965-.264.632 0 1.077.299.418.29.666.905.3-.623.744-.914.444-.29 1.076-.29.59 0 1 .23.41.222.632.658.47.889.47 3.367v5.546h-1.435v-5.478q0-.547-.017-.957-.01-.41-.043-.709-.026-.308-.068-.513-.043-.213-.103-.341-.094-.223-.29-.35-.197-.138-.556-.138-.325 0-.547.129-.222.12-.35.393-.145.299-.205.888-.06.581-.06 1.598v5.478h-1.436v-5.478q0-.624-.017-1.05-.017-.437-.051-.727-.034-.29-.085-.462-.043-.179-.094-.29-.111-.222-.325-.35-.205-.129-.538-.129-.36 0-.564.146-.197.136-.3.367-.06.128-.11.325-.043.196-.077.495-.035.291-.052.701-.017.41-.017.974v5.478h-1.427v-9.57zM139.244 51.323h1.419l.154 1.436q.427-.83 1.136-1.248.71-.418 1.692-.418.77 0 1.307.247.539.248.89.71.717.965.717 2.913v5.93h-1.581v-5.93q0-1.29-.453-1.897-.453-.606-1.427-.606-.564 0-.983.196-.41.197-.7.581-.598.778-.598 2.248v5.409h-1.573v-9.57zM153.37 61.141q-.984 0-1.753-.316-.76-.325-1.29-.965-.538-.667-.795-1.607-.256-.948-.256-2.145 0-2.426 1.051-3.725 1.051-1.29 3.042-1.29 1.026 0 1.777.333.761.324 1.274.957 1.05 1.299 1.05 3.717 0 1.222-.264 2.17-.257.949-.786 1.59-.513.632-1.282.957-.76.324-1.769.324zm0-1.333q1.204 0 1.82-.94.614-.931.614-2.751 0-1.82-.615-2.76-.615-.931-1.82-.931-1.196 0-1.811.93-.616.94-.616 2.76 0 1.821.616 2.752.615.94 1.811.94zM160.256 51.323h1.427l.154 1.222q.402-.718 1.051-1.085.65-.367 1.513-.367.854 0 1.538.333.683.333 1.179 1.008t.735 1.607q.248.922.248 2.093 0 2.35-.992 3.674-.99 1.333-2.717 1.333-.487 0-.846-.102-.359-.094-.675-.274-.666-.384-1.034-1.076v4.845h-1.58v-13.21zm3.905 8.485q1.145 0 1.718-.931.572-.931.572-2.76 0-1.829-.572-2.76-.573-.931-1.718-.931t-1.734.93q-.59.94-.59 2.76 0 1.821.59 2.752.59.94 1.734.94zM176.594 59.706q-.188.342-.436.615-.247.273-.598.47-.658.385-1.538.385-.812 0-1.504-.325-.683-.325-1.196-1.008-.453-.607-.726-1.504-.265-.898-.265-2.154 0-1.145.24-2.093.247-.949.751-1.632.496-.667 1.18-1 .683-.333 1.529-.333.871 0 1.52.367.325.188.582.462.265.264.461.623l.154-1.222h1.427v13.21h-1.58v-4.861zm-2.315.137q.564 0 1-.231.435-.23.734-.71.581-.94.581-2.75 0-1.821-.58-2.76-.3-.48-.736-.702-.427-.23-.99-.23-1.137 0-1.71.931-.58.94-.58 2.76 0 1.82.58 2.76.573.932 1.7.932zM182.268 51.323h1.427l.154 1.872q.401-1.017 1.213-1.564.803-.538 1.923-.538.58 0 1.094.145.247.068.495.188.248.11.47.265v1.606q-.487-.393-1.025-.572-.53-.18-1.154-.18-1.46 0-2.239.923-.777.914-.777 2.666v4.76h-1.58v-9.57zM195.256 61.141q-.376 0-.777-.042-.393-.035-.76-.103-.334-.068-.787-.188-.444-.12-.897-.265V58.92q.547.273.931.427.385.145.752.248.393.11.76.17.368.06.761.06 1.034 0 1.615-.427.3-.222.436-.521.137-.3.137-.607 0-.598-.504-.965-.505-.376-1.59-.598l-.068-.018-.59-.12q-.64-.127-1.145-.341-.495-.214-.837-.555-.624-.624-.624-1.718 0-.692.23-1.222.24-.53.701-.897.488-.393 1.163-.564.675-.18 1.512-.18.367 0 .735.035.367.034.726.102.325.069.675.18.36.102.718.248v1.538q-.684-.393-1.359-.59-.341-.094-.692-.145-.342-.052-.735-.052-.495 0-.897.086-.393.085-.658.256-.53.35-.53 1.068 0 .3.094.547.103.248.3.402.196.154.649.307.461.146 1.307.308l.633.12q.615.12 1.05.342.436.222.727.546.598.658.598 1.744 0 .734-.265 1.281-.256.539-.743.923-.521.41-1.222.607-.692.196-1.53.196zM207.638 60.928q-1.76 0-2.495-.71-.726-.7-.726-2.443v-5.23h-2.555v-1.222h2.555V48.82l1.572-.684v3.187h3.572v1.222h-3.572v5.23q0 1.05.401 1.478.393.419 1.402.419h1.769v1.256h-1.923zM215.833 61.141q-1.462 0-2.18-.965-.717-.957-.717-2.905v-5.93h1.572v5.93q0 1.298.461 1.896.223.291.556.453.342.154.854.154 1.111 0 1.7-.786.59-.778.59-2.239V51.34h1.581v9.554h-1.427l-.154-1.436q-.427.837-1.136 1.256-.726.427-1.7.427zM222.651 51.323h1.632l2.778 8.032 2.785-8.032h1.632l-3.4 9.57h-2.026l-3.4-9.57zM232.324 51.323h1.555l1.667 7.733 1.367-4.939h1.341l1.385 4.94 1.666-7.734h1.555l-2.239 9.57h-1.504l-1.53-5.246-1.52 5.247h-1.504l-2.239-9.57zM247.26 55.903l-3.426-4.58h1.743l2.538 3.46 2.521-3.46h1.769l-3.427 4.58 3.76 4.99h-1.82l-2.803-3.836-2.794 3.837h-1.82l3.76-4.99zM254.951 63.218h.932q.384 0 .649-.12.265-.11.436-.282.188-.196.427-.675.24-.478.573-1.401l-3.7-9.417h1.666l2.837 7.486 2.794-7.486h1.666l-2.52 6.494q-.206.53-.325.82-.111.291-.18.462l-.094.256q-.034.086-.077.206-.042.12-.12.316-.068.196-.204.572-.257.692-.445 1.162-.18.47-.316.778-.137.316-.23.496-.086.188-.146.299-.188.324-.418.572-.231.256-.564.444-.59.334-1.376.334h-1.265v-1.316zM265.64 59.44l5.495-6.878h-5.29v-1.256h6.948v1.436l-5.494 6.87h5.494v1.282h-7.152V59.44zM4.944 70.011h2.093l3.905 12.758H9.156l-.94-3.324H3.749l-.923 3.324H1.039L4.944 70.01zm2.862 8.05l-1.82-6.529-1.82 6.528h3.64zM12.668 70.011h3.777q1.949 0 3.017.846 1.06.846 1.06 2.401 0 .598-.146 1.06-.145.453-.41.777-.274.325-.692.547-.419.214-.992.3 1.265.196 1.974 1.067.35.436.53 1 .18.564.18 1.265 0 1.726-1.137 2.606-1.145.889-3.384.889h-3.777V70.01zm3.743 5.264q.65 0 1.085-.12.445-.12.727-.367.555-.479.555-1.513 0-.513-.137-.854-.136-.35-.41-.564-.555-.428-1.82-.428h-2.008v3.846h2.008zm.034 6.075q1.496 0 2.145-.53.641-.52.641-1.726 0-1.247-.675-1.837-.684-.581-2.11-.581h-2.043v4.674h2.042zM28.118 83.016q-1.197 0-2.162-.427-.957-.427-1.64-1.307-.676-.872-1.018-2.094-.333-1.23-.333-2.777 0-1.547.333-2.777.342-1.23 1.026-2.11.683-.88 1.64-1.308.957-.436 2.154-.436.41 0 .786.052.384.042.692.12.308.076.675.221.367.137.675.308v1.769q-.624-.521-1.359-.795-.367-.137-.734-.205-.36-.068-.744-.068-.829 0-1.461.324-.624.325-1.043.974-.837 1.3-.837 3.923 0 2.614.837 3.913.838 1.299 2.521 1.299.385 0 .744-.068.367-.069.734-.206.71-.264 1.342-.794v1.769q-.666.35-1.35.53-.333.085-.718.128-.376.042-.76.042zM33.475 70.011h2.59q2.922 0 4.306 1.555t1.384 4.837q0 3.264-1.384 4.81-1.384 1.556-4.307 1.556h-2.589V70.01zm2.555 11.34q2.18 0 3.042-1.078.436-.538.65-1.495.213-.957.213-2.393 0-1.41-.213-2.375-.205-.974-.641-1.512-.436-.547-1.214-.804-.769-.265-1.837-.265h-.82v9.921h.82zM44.515 70.011h7.571v1.453h-5.845v3.776h5.589v1.453H46.24v4.623h6.008v1.453h-7.734V70.01zM55.35 70.011h7.511v1.453h-5.776v3.93h5.238v1.453h-5.238v5.922H55.35V70.01zM69.868 83.016q-1.222 0-2.17-.444-.94-.444-1.598-1.299-.667-.871-1.008-2.093-.334-1.222-.334-2.769 0-1.59.35-2.811.351-1.23 1.017-2.085.667-.855 1.615-1.29.958-.445 2.154-.445.854 0 1.572.222.376.12.726.3.36.17.693.393v1.768q-.368-.35-.735-.59-.36-.238-.684-.384-.376-.162-.769-.23-.393-.077-.778-.077-.828 0-1.452.316t-1.06.982q-.427.658-.64 1.633-.206.965-.206 2.307 0 1.35.205 2.315.205.957.616 1.598.803 1.282 2.512 1.282.273 0 .521-.034.256-.034.479-.103.205-.068.401-.162.197-.103.376-.248v-3.426h-1.854v-1.419h3.503v5.495q-.692.64-1.555.965-.871.333-1.897.333zM75.585 70.011h1.734v5.23h4.726v-5.23h1.734v12.758h-1.734v-6.076h-4.726v6.076h-1.734V70.01zM86.659 81.316h2.674v-9.852H86.66V70.01h7.084v1.453h-2.675v9.852h2.675v1.453h-7.084v-1.453zM99.758 83.016q-.88 0-1.666-.188-.829-.196-1.692-.58V80.23q.778.692 1.607 1.034.846.35 1.726.35.572 0 1.008-.154.444-.154.692-.487.479-.632.479-2.367v-7.143h-3.256V70.01h4.982v8.596q0 1.23-.222 2.06-.214.82-.684 1.341-.47.521-1.205.76-.726.248-1.769.248zM107.167 70.011h1.734v5.674l5.392-5.674h2.025l-4.964 5.212 5.11 7.546h-2.085l-4.162-6.392-1.316 1.401v4.99h-1.734V70.012zM118.36 70.011h1.735v11.305h6.161v1.453h-7.895V70.01zM127.786 70.011h2.307l2.204 6.494 2.222-6.494h2.316v12.758h-1.598V71.498l-2.273 6.725h-1.308l-2.281-6.725v11.27h-1.59V70.012zM138.766 70.011h2.187l4.307 10.502V70.01h1.666v12.758h-2.187l-4.307-10.502v10.502h-1.666V70.01zM153.37 83.016q-2.163 0-3.214-1.632-1.05-1.623-1.05-4.981 0-3.35 1.059-4.982.53-.82 1.316-1.23.794-.41 1.888-.41 1.051 0 1.863.392.812.393 1.359 1.248 1.05 1.64 1.05 4.982 0 3.332-1.05 4.973-.547.854-1.36 1.247-.81.393-1.862.393zm0-1.401q1.315 0 1.896-1.205.573-1.179.573-4.007 0-2.82-.573-4.017-.58-1.204-1.897-1.204-1.307 0-1.88 1.204-.58 1.214-.58 4.017 0 2.794.58 4.007.573 1.205 1.88 1.205zM160.103 70.011h3.725q2.128 0 3.239.966.572.504.837 1.23.265.718.265 1.624 0 1.88-1.094 2.845-.538.479-1.35.726-.812.24-1.897.24h-2v5.127h-1.725V70.01zm3.725 6.212q.641 0 1.102-.17.462-.172.77-.462.666-.624.666-1.769 0-1.136-.667-1.769-.657-.624-1.87-.624h-2v4.794h2zM174.757 83h-.077q-.034 0-.094.008-.06.01-.102.01h-.052q-1.068 0-1.871-.394-.795-.393-1.342-1.247-.546-.855-.803-2.094-.256-1.239-.256-2.88 0-3.35 1.06-4.981.53-.82 1.315-1.23.795-.41 1.889-.41 1.05 0 1.863.392.811.393 1.358 1.248 1.051 1.64 1.051 4.981 0 2.504-.58 4.042-.283.752-.727 1.3-.444.546-1.051.854l2.435 2.478h-2.016l-2-2.077zm-.333-1.385q1.316 0 1.897-1.205.572-1.179.572-4.007 0-2.82-.572-4.017-.581-1.204-1.897-1.204-1.308 0-1.88 1.204-.581 1.214-.581 4.017 0 2.794.58 4.007.573 1.205 1.88 1.205zM180.91 70.011h3.554q2.102 0 3.222.948.564.479.837 1.163.282.683.282 1.546 0 .675-.171 1.188-.17.504-.513.906-.683.803-1.94.982.342.086.633.257.29.162.504.384.24.248.513.7.282.445.658 1.197l1.734 3.487h-1.854l-1.52-3.222q-.334-.71-.633-1.145-.29-.436-.547-.632-.265-.205-.624-.3-.35-.093-.752-.093h-1.649v5.392h-1.735V70.01zm3.622 5.947q1.24 0 1.846-.555.3-.274.453-.7.154-.428.154-.984 0-.555-.162-.982-.154-.427-.479-.727-.308-.273-.778-.427-.461-.154-1.102-.154h-1.82v4.53h1.888zM195.205 83.016q-.453 0-.914-.05-.462-.044-.906-.138-.444-.094-.914-.247-.47-.154-.906-.334V80.41q.496.316.957.547.461.222.906.367.871.291 1.751.291.641 0 1.154-.145.521-.146.889-.436.376-.3.547-.718.179-.419.179-.965 0-.479-.128-.82-.12-.343-.368-.59-.273-.282-.692-.462-.41-.18-1.05-.324l-.924-.214q-.863-.197-1.512-.487-.64-.29-1.068-.726-.803-.804-.803-2.18 0-.871.299-1.563t.854-1.188q.547-.487 1.308-.752.769-.265 1.743-.265.367 0 .752.043.384.034.794.12.795.162 1.71.504v1.751q-.41-.264-.804-.444-.384-.188-.769-.316-.795-.256-1.59-.256-.58 0-1.085.136-.504.137-.863.428-.358.29-.53.692-.17.401-.17.888 0 .436.12.735.128.29.35.504.265.248.675.428.418.18 1.06.324l.905.205q.906.205 1.547.539.64.324 1.06.777.828.889.828 2.427 0 .974-.299 1.666-.299.684-.82 1.128-.564.479-1.393.718-.82.24-1.88.24zM205.151 71.464h-4.007V70.01h9.732v1.453h-3.99v11.305h-1.735V71.464zM216.533 83.016q-.461 0-.863-.068-.393-.06-.752-.18-.333-.12-.692-.307-.35-.197-.624-.444-.265-.24-.47-.564-.205-.325-.35-.812-.068-.214-.12-.479-.042-.265-.077-.598-.025-.333-.042-.743-.017-.419-.017-.949v-7.861h1.734v8.647q0 .932.052 1.325.05.401.179.615.273.504.795.76.512.257 1.247.257.744 0 1.256-.256.53-.265.795-.76.068-.13.111-.266.043-.137.069-.342.05-.393.05-1.316v-8.664h1.727v7.861q0 .564-.017 1-.017.427-.051.76-.026.325-.077.573-.043.248-.094.436-.12.427-.334.769-.213.342-.504.607-.282.256-.632.444-.342.188-.675.308-.316.11-.718.179-.402.068-.906.068zM222.284 70.011h1.786l2.99 11.305 3-11.305h1.786l-3.734 12.758h-2.094l-3.734-12.758zM232.324 70.011h1.684l1.221 10.356 1.453-6.853h1.803l1.47 6.87 1.222-10.373h1.683l-1.905 12.758h-1.632l-1.735-7.58-1.726 7.58h-1.632l-1.906-12.758zM247.278 76.01l-3.692-5.999h1.855l2.802 4.81 2.854-4.81h1.855l-3.82 5.999 4.093 6.759h-1.854l-3.128-5.495-3.375 5.495h-1.863l4.273-6.76zM257.771 77.043l-4.076-7.032h1.837l3.11 5.631 3.102-5.631h1.855l-4.093 7.032v5.726h-1.735v-5.726zM264.846 81.453l6.486-9.99h-6.298v-1.452h8.28v1.316l-6.665 9.989h6.853v1.453h-8.656v-1.316zM5.986 104.891q-.982 0-1.751-.316-.76-.325-1.29-.965-.539-.667-.795-1.607-.257-.948-.257-2.145 0-2.426 1.051-3.725 1.051-1.29 3.042-1.29 1.026 0 1.778.333.76.324 1.273.957 1.05 1.299 1.05 3.717 0 1.222-.264 2.17-.256.949-.786 1.59-.513.632-1.282.957-.76.324-1.769.324zm0-1.333q1.205 0 1.82-.94.616-.931.616-2.751 0-1.82-.616-2.76-.615-.931-1.82-.931-1.196 0-1.811.93-.615.94-.615 2.76 0 1.821.615 2.752.615.94 1.811.94zM16.514 104.891q-2.162 0-3.213-1.632-1.051-1.623-1.051-4.981 0-3.35 1.06-4.982.53-.82 1.315-1.23.795-.41 1.889-.41 1.05 0 1.862.392.812.393 1.36 1.248 1.05 1.64 1.05 4.982 0 3.332-1.05 4.973-.548.854-1.36 1.247-.811.393-1.862.393zm0-1.401q1.316 0 1.897-1.205.572-1.179.572-4.007 0-2.82-.572-4.017-.581-1.204-1.897-1.204-1.308 0-1.88 1.204-.581 1.214-.581 4.017 0 2.794.58 4.007.573 1.205 1.88 1.205zM27.041 104.891q-2.05 0-3.085-1.674-1.042-1.684-1.042-4.94 0-3.264 1.042-4.947 1.034-1.675 3.085-1.675 1.008 0 1.786.41.777.41 1.307 1.265.513.82.778 2.05.265 1.223.265 2.898 0 1.674-.265 2.896t-.778 2.043q-1.05 1.674-3.093 1.674zm0-1.367q.624 0 1.068-.333.453-.333.744-.966.59-1.29.59-3.947 0-2.666-.59-3.948-.291-.641-.735-.974-.445-.334-1.077-.334-1.205 0-1.794 1.3-.3.64-.453 1.614-.146.966-.146 2.342 0 2.666.599 3.947.307.667.752.983.452.316 1.042.316zm.017-2.264q-.128 0-.24-.094-.102-.103-.187-.265-.077-.171-.137-.393-.06-.23-.11-.479-.044-.205-.078-.453-.034-.247-.06-.495-.025-.257-.042-.479-.017-.222-.017-.367 0-.103.008-.3.009-.196.026-.435l.051-.496q.034-.265.085-.504.24-1.222.667-1.222.24 0 .402.325.17.325.29.923.043.213.077.461.034.248.06.496.025.24.034.461.017.214.017.36 0 .085-.008.264 0 .18-.018.419-.017.23-.05.495-.026.265-.07.53-.11.633-.298.94-.18.308-.402.308zM37.56 104.891q-.991 0-1.752-.247-.752-.257-1.282-.718-.53-.462-.82-1.128-.282-.675-.282-1.572 0-1.36.684-2.222.675-.855 1.956-1.137-.52-.128-.965-.393-.444-.265-.752-.65-.325-.4-.479-.88-.145-.478-.145-1.016 0-.726.256-1.324.257-.607.778-1.06.504-.436 1.196-.658.701-.23 1.615-.23.915 0 1.615.23.701.222 1.205.658.513.436.77 1.042.264.599.264 1.35 0 .582-.162 1.043-.154.461-.453.837-.3.376-.735.641-.427.265-.991.41 1.29.282 1.965 1.137.675.854.675 2.204 0 .898-.29 1.581-.282.675-.812 1.137-.538.47-1.307.718-.77.247-1.752.247zm.009-7.664q1.034 0 1.59-.539.546-.538.546-1.563 0-1.034-.538-1.59-.547-.547-1.598-.547-1.034 0-1.581.547-.547.547-.547 1.59 0 1.025.547 1.563.547.539 1.58.539zm.025 6.314q.564 0 1.009-.162.444-.162.76-.487.316-.325.47-.778.154-.461.154-1.042 0-.633-.17-1.085-.163-.453-.462-.752-.641-.65-1.786-.65-1.154 0-1.778.641-.299.308-.47.77-.162.452-.162 1.05 0 .581.154 1.051.162.462.478.786.325.334.778.496.461.162 1.025.162zM57.828 93.339q-.256 0-.256-.257v-1.478q0-.256.256-.256h1.23q.257 0 .257.256v1.478q0 .257-.256.257h-1.23zm2.871 11.373q-.683 0-1.23-.214-.538-.213-.948-.692-.778-.906-.778-2.563v-4.94h-2.094v-1.23h3.666v6.17q0 1.068.393 1.598.205.282.487.41.29.128.658.128h1.837v1.333H60.7zM65.604 103.19h2.675V93.34h-2.675v-1.453h7.084v1.453h-2.675v9.852h2.675v1.453h-7.084v-1.453zM81.43 104.712q-.684 0-1.231-.214-.538-.213-.949-.692-.777-.906-.777-2.563v-8.665h-2.52v-1.23h4.092v9.895q0 1.068.393 1.598.205.282.487.41.29.128.658.128h1.837v1.333h-1.99zM86.779 91.886h1.734v11.305h6.161v1.453H86.78V91.886zM97.776 103.19h2.683v-9.749l-2.888.65v-1.573l2.87-.632h1.727v11.305h2.649v1.453h-7.041v-1.453zM124.282 106.805q-2.119 0-2.845-.632-.727-.624-.727-2.52v-2.043q0-1.282-.452-1.786-.462-.495-1.658-.495h-.991v-1.222h.99q1.206 0 1.659-.487.452-.496.452-1.77V93.8q0-1.897.727-2.52.709-.624 2.845-.624h.547v1.221h-.598q-1.196 0-1.555.368-.368.367-.368 1.59v2.118q0 1.35-.384 1.949-.188.29-.521.504-.334.205-.812.316.948.23 1.333.837.384.607.384 1.94v2.12q0 1.221.368 1.589.359.367 1.555.367h.598v1.23h-.547zM129.281 105.652h.581q1.196 0 1.572-.376.368-.368.368-1.58v-2.12q0-1.333.384-1.94.385-.606 1.333-.837-.94-.222-1.324-.82-.188-.291-.29-.752-.103-.47-.103-1.197v-2.119q0-1.213-.368-1.58-.376-.377-1.572-.377h-.581v-1.222h.53q2.136 0 2.845.624.718.633.718 2.52v2.052q0 .666.18 1.093.179.42.538.676.342.247.829.367.495.12 1.085.12h.547v1.222h-.547q-.607 0-1.094.128-.487.12-.82.367-.36.265-.539.692-.179.428-.179 1.094v2.042q0 1.897-.718 2.521-.726.632-2.845.632h-.53v-1.23zM151.72 90.664h3.623v1.222h-2.05v13.843h2.05v1.222h-3.623V90.664zM161.931 105.729h2.05V91.895h-2.05v-1.222h3.623v16.278h-3.623v-1.222zM184.823 108.403q-.333 0-.667-.034-.333-.025-.692-.085-.35-.06-.7-.146-.342-.085-.718-.205v-1.555q.419.197.803.342.393.145.718.24.666.187 1.29.187.633 0 1.077-.17.444-.172.743-.53.581-.684.581-2.188v-1.137q-.367.795-1.025 1.197-.65.393-1.572.393-1.684 0-2.683-1.342-1-1.341-1-3.589 0-2.247 1-3.597.504-.675 1.162-1.008.666-.334 1.53-.334.444 0 .828.094.393.086.718.274.65.376 1.042 1.136l.154-1.239h1.419v8.921q0 2.145-1.017 3.264-1.009 1.111-2.991 1.111zm.18-4.998q1.11 0 1.683-.932.572-.931.572-2.692 0-1.777-.572-2.691-.3-.487-.735-.7-.427-.214-.957-.214-1.145 0-1.752.914t-.607 2.7q0 1.752.616 2.683.615.932 1.751.932zM194.727 104.891q-.317 0-.65-.034-.325-.025-.624-.094-.273-.06-.598-.162-.324-.103-.624-.222v-1.59q.274.163.564.282.3.12.581.197.616.17 1.257.17 1.649 0 2.495-1.238.837-1.24.837-3.632-.196.436-.496.77-.299.332-.632.546-.71.453-1.76.453-.855 0-1.555-.282-.701-.29-1.205-.855-1.017-1.145-1.017-3.187 0-1.008.248-1.828.256-.83.795-1.41.512-.564 1.256-.838.743-.282 1.692-.282 1.17 0 1.948.419.777.41 1.282 1.188.546.854.794 2.076t.248 2.76q0 1.692-.3 2.965-.29 1.273-.93 2.136-.633.855-1.547 1.274-.914.418-2.06.418zm.555-5.904q.598 0 1.034-.205.436-.214.726-.581.3-.376.462-.923.162-.556.162-1.282t-.162-1.273q-.163-.556-.462-.932-.29-.367-.726-.572-.436-.214-1.034-.214-.53 0-.966.18-.435.18-.734.572-.582.76-.582 2.24 0 1.477.582 2.238.29.384.717.572.436.18.983.18zM208.176 103.456q-.188.342-.436.615-.247.273-.598.47-.658.385-1.538.385-.812 0-1.504-.325-.683-.325-1.196-1.008-.453-.607-.726-1.504-.265-.898-.265-2.154 0-1.145.24-2.093.247-.949.751-1.632.496-.667 1.18-1 .683-.333 1.529-.333.871 0 1.52.367.325.188.582.462.265.264.461.623l.154-1.222h1.427v13.21h-1.58v-4.861zm-2.315.137q.564 0 1-.231.435-.23.734-.71.581-.94.581-2.75 0-1.821-.58-2.76-.3-.48-.736-.702-.427-.23-.99-.23-1.137 0-1.71.931-.58.94-.58 2.76 0 1.82.58 2.76.573.932 1.7.932zM217.61 104.891q-1.196 0-2.162-.427-.957-.427-1.64-1.307-.676-.872-1.017-2.094-.334-1.23-.334-2.777 0-1.547.334-2.777.341-1.23 1.025-2.11.684-.88 1.64-1.308.958-.436 2.154-.436.41 0 .786.052.385.042.692.12.308.076.675.221.368.137.675.308v1.769q-.624-.521-1.358-.795-.368-.137-.735-.205-.36-.068-.744-.068-.829 0-1.46.324-.625.325-1.043.974-.838 1.3-.838 3.923 0 2.614.838 3.913.837 1.299 2.52 1.299.385 0 .744-.068.367-.069.735-.206.709-.264 1.341-.794v1.769q-.666.35-1.35.53-.333.085-.718.128-.376.042-.76.042zM227.778 104.891q-1.222 0-2.17-.444-.94-.444-1.598-1.299-.666-.871-1.008-2.093-.334-1.222-.334-2.769 0-1.59.35-2.811.351-1.23 1.018-2.085.666-.855 1.615-1.29.957-.445 2.153-.445.854 0 1.572.222.376.12.727.3.358.17.692.393v1.768q-.368-.35-.735-.59-.36-.238-.684-.384-.376-.162-.769-.23-.393-.077-.777-.077-.83 0-1.453.316-.624.316-1.06.982-.427.658-.64 1.633-.206.965-.206 2.307 0 1.35.206 2.315.205.957.615 1.598.803 1.282 2.512 1.282.273 0 .521-.034.257-.034.479-.103.205-.068.401-.162.197-.103.376-.248v-3.426h-1.854v-1.419h3.503v5.495q-.692.64-1.555.965-.871.333-1.897.333zM237.921 104.874h-.077q-.034 0-.094.01-.06.008-.102.008h-.052q-1.068 0-1.87-.393-.796-.393-1.342-1.247-.547-.855-.804-2.094-.256-1.239-.256-2.88 0-3.35 1.06-4.981.53-.82 1.315-1.23.795-.41 1.889-.41 1.05 0 1.863.392.811.393 1.358 1.248 1.051 1.64 1.051 4.981 0 2.504-.58 4.042-.283.752-.727 1.3-.444.546-1.051.854l2.435 2.478h-2.016l-2-2.077zm-.333-1.384q1.316 0 1.897-1.205.572-1.179.572-4.007 0-2.82-.572-4.017-.581-1.204-1.897-1.204-1.307 0-1.88 1.204-.581 1.214-.581 4.017 0 2.794.581 4.007.573 1.205 1.88 1.205zM263.214 97.466q-.034.957-.154 1.658-.11.7-.427 1.256-.615 1.239-2.025 1.239-.675 0-1.17-.29-.445-.283-1.077-1.146-.667-.923-.983-1.17-.342-.248-.658-.248-.658 0-.931.615-.3.718-.36 2.179h-1.332q.042-1.778.58-2.905.701-1.222 2-1.222.624 0 1.128.299.257.154.547.444.3.282.573.667.461.632.897 1.068.18.188.359.282.18.094.393.094.683 0 .982-.692.308-.701.325-2.128h1.333zM265.667 98.807h7.015v1.402h-7.015v-1.402zM278.98 99.884h-3.794v-1.453h3.793v-3.794h1.436v3.794h3.803v1.453h-3.803v3.794h-1.436v-3.794zM285.713 96.697h9.032v1.452h-9.032v-1.452zm0 3.469h9.032v1.47h-9.032v-1.47zM296.24 101.875l7.263-2.709-7.263-2.734v-1.555l9.032 3.571v1.419l-9.032 3.572v-1.564z"/></g></g></svg>