<svg xmlns="http://www.w3.org/2000/svg" width="269.797" height="112.573" viewBox="0 0 252.935 105.537"><g font-weight="400" font-family="Lekton Nerd Font" letter-spacing="0" word-spacing="0" fill="#fff"><g style="line-height:125%;text-decoration-line:underline" font-size="27.5" text-decoration="underline"><path d="M9.02 16.885v1.402H0V.275h1.512v16.61H9.02zM13.09 11.77q0-3.162 1.292-4.922 1.32-1.788 3.823-1.788 2.502 0 3.712 1.65 1.238 1.65 1.238 4.4l-.083 1.375h-8.415q.138 2.063 1.1 3.355.963 1.265 2.64 1.265 1.705 0 3.988-.797l.412 1.374q-2.227.853-4.18.853-2.695 0-4.125-1.787-1.402-1.815-1.402-4.978zm5.225-5.307q-3.465 0-3.658 4.647h6.93q0-4.647-3.272-4.647zM27.665 18.287V0h1.457v11.137l2.338-.275q1.705-2.09 3.327-4.785l.523-.852h1.65q-2.145 3.767-4.18 6.215 1.925 2.447 3.795 5.775l.605 1.072h-1.705q-1.87-3.52-3.85-6.077l-2.503.247v5.83h-1.457zM40.287 6.958V5.583h2.668V2.255l1.457-.275v3.603h6.298v1.375h-6.298v6.27q0 2.09.605 3.025.633.907 2.228.907.605 0 1.87-.192 1.265-.22 1.732-.385l.33 1.347q-.522.192-1.925.412-1.375.22-2.007.22-2.475 0-3.383-1.292-.907-1.32-.907-3.987V6.958h-2.668zM54.12 11.797q0-6.737 5.252-6.737 5.253 0 5.253 6.737 0 6.738-5.253 6.738-5.252 0-5.252-6.737zm5.252-5.307q-3.685 0-3.685 5.307 0 5.308 3.685 5.308t3.685-5.308q0-5.307-3.685-5.307zM69.74 5.225l.055 1.1q2.667-1.265 4.427-1.265 1.76 0 2.75 1.21 1.018 1.21 1.018 3.3v8.717h-1.458V9.57q0-1.347-.66-2.227-.66-.853-1.98-.853-1.32 0-4.097 1.21v10.587h-1.458V5.225h1.403zM104.582 18.287v-2.832l-7.837-12.32h-.083v15.152H95.15V.275h1.485l7.865 12.457h.082V.275h1.513v18.012h-1.513zM109.34 11.77q0-3.162 1.292-4.922 1.32-1.788 3.823-1.788 2.502 0 3.712 1.65 1.238 1.65 1.238 4.4l-.083 1.375h-8.415q.138 2.063 1.1 3.355.963 1.265 2.64 1.265 1.705 0 3.988-.797l.412 1.374q-2.227.853-4.18.853-2.695 0-4.125-1.787-1.402-1.815-1.402-4.978zm5.225-5.307q-3.465 0-3.658 4.647h6.93q0-4.647-3.272-4.647zM123.475 18.287v-1.374h3.135V6.6h-3.135V5.225h4.592l.055 1.595q.88-.55 2.475-1.1 1.595-.55 2.805-.66h.303v1.622h-.303q-1.127.083-2.805.55-1.65.468-2.475.963v8.717h4.4v1.375h-9.047zM146.767.028v15.977l.275 2.392-1.402.165-.275-1.457q-2.063 1.43-3.795 1.43-2.448 0-3.823-1.815-1.347-1.815-1.347-4.922 0-3.135 1.512-4.923 1.513-1.815 4.125-1.815 1.54 0 3.273.743V.028h1.457zm-8.8 11.715q0 2.42.935 3.905.963 1.457 2.75 1.457 1.788 0 3.658-1.567v-8.25q-.578-.275-1.595-.523-.99-.275-1.623-.275-1.952 0-3.052 1.43-1.073 1.403-1.073 3.823zM164.862 18.287V.275h9.405v1.402h-7.892v7.865h6.765v1.375h-6.765v7.37h-1.513zM177.87 11.797q0-6.737 5.252-6.737 5.253 0 5.253 6.737 0 6.738-5.253 6.738-5.252 0-5.252-6.737zm5.252-5.307q-3.685 0-3.685 5.307 0 5.308 3.685 5.308t3.685-5.308q0-5.307-3.685-5.307zM193.49 5.225l.055 1.1q2.667-1.265 4.427-1.265 1.76 0 2.75 1.21 1.018 1.21 1.018 3.3v8.717h-1.458V9.57q0-1.347-.66-2.227-.66-.853-1.98-.853-1.32 0-4.097 1.21v10.587h-1.458V5.225h1.403zM205.287 6.958V5.583h2.668V2.255l1.457-.275v3.603h6.298v1.375h-6.298v6.27q0 2.09.605 3.025.633.907 2.228.907.605 0 1.87-.192 1.265-.22 1.732-.385l.33 1.347q-.522.192-1.925.412-1.375.22-2.007.22-2.475 0-3.383-1.292-.907-1.32-.907-3.987V6.958h-2.668z"/></g><g style="line-height:125%" font-size="17.5"><path d="M3.875 57.535q.647 0 1.4-.403.77-.42 1.12-.77V54.28q-1.155-.088-2.205-.088t-1.575.455q-.525.438-.525 1.19 0 1.698 1.785 1.698zm-.018.91q-1.277 0-2.012-.648-.735-.665-.735-1.872 0-1.208.805-1.873.805-.682 2.135-.682 1.33 0 2.345.105 0-1.558-.385-2.118-.385-.577-1.558-.577-1.172 0-2.765.56l-.262-.875q1.627-.595 2.94-.595 1.732 0 2.345.77.612.77.612 2.695v3.675l.14 1.33-.892.087-.175-1.05q-.403.35-1.138.718-.735.35-1.4.35zM10.157 58.287v-11.62h.928v4.113q1.312-.91 2.38-.91 1.575 0 2.432 1.085.858 1.067.858 3.062 0 1.995-.963 3.22-.962 1.208-2.625 1.208-1.015 0-2.1-.508l-.035.35h-.875zm5.6-4.252q0-1.54-.612-2.398-.595-.857-1.733-.857-1.137 0-2.327.997v5.25q.367.175.997.35.648.158 1.05.158 1.225 0 1.925-.98t.7-2.52zM24.7 50.255l-.21.91q-1.085-.385-2.013-.385-1.26 0-1.89.892-.612.875-.612 2.45 0 1.575.63 2.503.63.91 1.872.91.84 0 2.1-.455l.28.875q-1.277.49-2.362.49-1.715 0-2.625-1.138-.91-1.155-.91-3.202 0-2.048.892-3.133.893-1.102 2.625-1.102 1.103 0 2.223.385zM33.8 46.667v10.168l.175 1.522-.893.105-.175-.927q-1.312.91-2.415.91-1.557 0-2.432-1.155-.858-1.155-.858-3.133 0-1.995.963-3.132.962-1.155 2.625-1.155.98 0 2.082.472v-3.675h.928zm-5.6 7.455q0 1.54.595 2.485.612.928 1.75.928 1.137 0 2.327-.998v-5.25q-.367-.175-1.015-.332-.63-.175-1.032-.175-1.243 0-1.943.91-.682.892-.682 2.432zM36.232 54.14q0-2.013.823-3.133.84-1.137 2.432-1.137 1.593 0 2.363 1.05.787 1.05.787 2.8l-.052.875H37.23q.087 1.312.7 2.135.612.805 1.68.805 1.085 0 2.537-.508l.263.875q-1.418.543-2.66.543-1.715 0-2.625-1.138-.893-1.155-.893-3.167zm3.325-3.378q-2.205 0-2.327 2.958h4.41q0-2.958-2.083-2.958zM45.017 58.287v-.875h1.943V50.85h-1.873v-.875h1.873q0-3.465 2.572-3.465.84 0 2.205.402l-.21.875q-1.347-.385-1.96-.385-.892 0-1.295.63-.385.613-.385 1.943h3.518v.875h-3.518v6.562h3.553v.875h-6.423zM56.742 58.287q-1.575 0-2.415-1.085-.84-1.085-.84-3.062 0-1.995.928-3.133.945-1.137 2.625-1.137.927 0 2.082.612l.035-.507h.893v6.3q.262 2.082.262 2.415 0 1.54-1.032 2.31-1.033.787-2.433.787-1.382 0-3.15-.7l.315-.875q1.733.665 2.765.665 1.05 0 1.82-.542.788-.543.788-1.628l-.158-1.382q-1.382.962-2.485.962zm.333-7.542q-1.243 0-1.943.927-.7.91-.7 2.45 0 1.523.613 2.415.612.875 1.715.875 1.102 0 2.362-1.05v-4.9q-1.137-.717-2.047-.717zM63.602 51.497v6.79h-.927v-11.62h.927v3.938q1.645-.735 2.713-.735 2.502 0 2.502 2.87v5.547h-.927V52.74q0-.893-.385-1.418-.385-.542-1.33-.542-.945 0-2.573.717zM71.512 58.287v-.875h2.555V50.85h-2.555v-.875h3.483v7.437h2.555v.875h-6.038zm2.188-10.78q0-.35.192-.542.21-.193.56-.193.718 0 .718.77t-.718.753q-.752 0-.752-.788zM80.42 50.832v-.857h4.55v8.487q0 1.26-.7 1.995-.525.56-2.065.875-.56.105-1.523.245l-.105-.91q1.558-.227 2.135-.437.578-.193.805-.403.525-.507.525-1.365v-7.63H80.42zm3.15-3.325q0-.752.77-.752.735 0 .735.787 0 .77-.735.77-.368 0-.578-.21-.192-.227-.192-.595zM89.257 58.287V46.65h.928v7.087l1.487-.175q1.085-1.33 2.118-3.045l.332-.542h1.05q-1.365 2.397-2.66 3.955 1.225 1.557 2.415 3.675l.385.682h-1.085q-1.19-2.24-2.45-3.867l-1.592.157v3.71h-.928zM97.972 58.287v-.875h2.678v-9.905l-2.608.018-.017-.858 3.552-.017v10.762h2.765v.875h-6.37zM106.547 49.975l.053.525q.875-.63 1.347-.63 1.155 0 1.593.752.98-.752 1.715-.752 1.137 0 1.557.7.42.7.42 2.152v5.565h-.927v-5.565q0-.997-.21-1.47-.21-.49-.805-.49-.595 0-1.47.56.105.595.105 1.4v2.905h-.928v-2.905q0-.997-.21-1.47-.227-.49-.822-.49t-1.365.56v6.965h-.928v-8.312h.875zM116.032 49.975l.035.7q1.698-.805 2.818-.805t1.75.77q.647.77.647 2.1v5.547h-.927V52.74q0-.858-.42-1.418-.42-.542-1.26-.542-.84 0-2.608.77v6.737h-.927v-8.312h.892zM123.592 54.157q0-4.287 3.343-4.287 3.342 0 3.342 4.287 0 4.288-3.342 4.288-3.343 0-3.343-4.288zm3.343-3.377q-2.345 0-2.345 3.377 0 3.378 2.345 3.378t2.345-3.378q0-3.377-2.345-3.377zM132.657 61.647V51.48l-.157-1.523.875-.105.157.945q1.278-.927 2.433-.927 1.557 0 2.415 1.137.857 1.138.857 3.133t-.945 3.15q-.945 1.155-2.625 1.155-.98 0-2.082-.473v3.675h-.928zm5.583-7.472q0-1.558-.595-2.468-.595-.927-1.715-.927-1.103 0-2.345.997v5.25q.367.175.997.35.648.158 1.05.158 1.243 0 1.925-.91.683-.91.683-2.45zM147.55 49.975v11.637h-.928v-4.06q-1.277.893-2.38.893-1.557 0-2.415-1.155-.857-1.155-.857-3.15 0-1.995.945-3.133.945-1.137 2.625-1.137.927 0 2.082.612l.035-.507h.893zm-5.583 4.165q0 1.54.595 2.467.613.928 1.733.928 1.137 0 2.327-.998v-5.075q-1.085-.682-2.047-.682-1.243 0-1.925.91-.683.892-.683 2.45zM150.227 58.287v-.875h1.995V50.85h-1.995v-.875h2.923l.035 1.015q.56-.35 1.575-.7t1.785-.42h.192v1.032h-.192q-.718.053-1.785.35-1.05.298-1.575.613v5.547h2.8v.875h-5.758zM158.925 57.885l.227-.91q1.733.577 2.678.577.945 0 1.452-.402.525-.42.525-1.103 0-.682-.42-.997-.402-.333-1.697-.63-1.295-.298-1.943-.858-.647-.525-.647-1.575 0-1.05.787-1.592.805-.56 2.065-.56 1.26 0 2.73.56l-.245.822q-1.487-.49-2.397-.49-.91 0-1.435.315-.525.35-.525.945t.455.928q.472.332 1.802.665 1.33.332 1.89.857.56.508.56 1.61 0 1.103-.752 1.75-.735.648-2.1.648-1.365 0-3.01-.56zM167.29 51.077v-.875h1.697v-2.117l.928-.175v2.292h4.007v.875h-4.007v3.99q0 1.33.385 1.925.402.578 1.417.578.385 0 1.19-.123.805-.14 1.103-.245l.21.858q-.333.122-1.225.262-.875.14-1.278.14-1.575 0-2.152-.822-.578-.84-.578-2.538v-4.025h-1.697zM181.605 58.287l-.035-.717q-1.68.875-2.8.875-1.12 0-1.768-.77-.647-.77-.647-2.1v-5.6h.927v5.6q0 .857.403 1.417.42.543 1.26.543.84 0 2.625-.875v-6.685h.927v8.312h-.892zM184.737 49.975h1.05l2.293 7.472h.315l2.205-7.472h1.05l-2.538 8.312h-1.75l-2.625-8.312zM199.787 49.975h.91l-.997 8.312h-1.855l-.893-3.622h-.07l-.91 3.622h-1.837l-.963-8.312h.91l.91 7.472h.315l1.173-4.217h.91l1.172 4.217h.315l.91-7.472zM202.36 49.975h1.207l2.118 3.43 2.1-3.43h1.172l-2.625 4.095 2.783 4.217h-1.19l-2.24-3.552-2.223 3.552h-1.19l2.818-4.217-2.73-4.095zM211.022 49.975h1.05l2.468 7.07h.14l2.205-7.07h1.05l-3.22 9.73q-.455 1.382-.963 1.767-.49.385-2.012.42V61q.98-.018 1.312-.28.333-.263.613-1.103l.402-1.207-3.045-8.435zM220.332 50.85v-.875h5.705l.088.717-4.708 6.72h4.76v.875h-5.862l-.14-.717 4.69-6.72h-4.533zM.357 80.162L3.647 68.7h1.68l3.168 11.462H7.462l-.717-2.642H2.107l-.735 2.642H.357zm6.16-3.517l-1.89-7.07H4.33l-1.978 7.07h4.165zM9.982 80.162V68.7h2.695q1.925 0 2.853.7.945.682.945 2.275 0 1.995-1.943 2.59 1.155.262 1.698.875.56.612.56 1.785 0 1.855-1.05 2.555-1.05.682-3.22.682H9.982zm5.793-3.237q0-2.135-2.905-2.135h-1.925v4.515h1.575q1.627 0 2.432-.508.823-.525.823-1.872zm-1.225-7.053q-.753-.315-1.873-.315h-1.732v4.375h1.872q1.103 0 1.873-.49.77-.507.787-1.837.018-1.33-.927-1.733zM25.015 78.972l.227.893q-1.54.455-2.765.455-2.012 0-2.992-1.383-.963-1.4-.963-4.497 0-3.098.945-4.498.945-1.417 3.028-1.417 1.277 0 2.66.542l-.28.875q-1.26-.525-2.38-.525-1.558 0-2.258 1.19-.682 1.173-.682 3.798t.735 3.815q.735 1.19 2.205 1.19.98 0 2.52-.438zM27.36 80.162V68.7h2.345q1.295 0 2.117.262.84.245 1.418.893.577.647.822 1.767.263 1.103.263 2.818 0 1.697-.28 2.835-.28 1.12-.893 1.75-.612.63-1.435.892-.822.245-2.047.245h-2.31zm4.392-1.26q.753-.385 1.138-1.435.402-1.067.402-3.027 0-1.978-.385-3.028-.385-1.067-1.12-1.452-.735-.385-2.082-.385h-1.383v9.712h1.348q1.347 0 2.082-.385zM36.495 80.162V68.7h5.967v.857h-5.005v4.34h4.533v.858h-4.533v4.55h5.058v.857h-6.02zM45.315 80.162V68.7H51.3v.892h-5.023v5.005h4.305v.875h-4.305v4.69h-.962zM57.215 80.337q-2.03 0-3.01-1.4t-.98-4.497q0-3.115.962-4.515.963-1.4 3.133-1.4 1.417 0 2.975.56l-.245.892q-1.593-.542-2.73-.542-1.645 0-2.363 1.172-.7 1.155-.7 3.798 0 2.625.735 3.832.735 1.19 2.223 1.19.892 0 2.152-.42v-3.5H57.39v-.857h2.94v5.04q-1.803.647-3.115.647zM62.255 80.162V68.7h.962v5.32h4.935V68.7h.963v11.462h-.963v-5.25h-4.935v5.25h-.962zM72.002 80.162v-.875h1.978v-9.712h-1.978V68.7h4.883v.875h-1.943v9.712h1.943v.875h-4.883zM80.472 69.925v-.875h5.408v7.997q0 1.68-1.138 2.345-1.12.648-3.955.945l-.122-.91q2.432-.262 3.342-.717.91-.473.91-1.663v-7.122h-4.445zM88.802 80.162V68.7h.963v5.407l1.697-.175q1.488-2.17 2.573-4.445l.367-.787h1.068q-1.505 3.115-3.133 5.582 1.418 2.24 2.783 4.935l.49.945h-1.12q-1.435-3.062-2.94-5.337L89.765 75v5.162h-.963zM103.642 79.27v.892h-5.74V68.7h.963v10.57h4.777zM105.9 80.162V68.7h.927l2.468 6.422h.262l2.468-6.422h.927v11.462h-.945v-8.89h-.07l-1.837 4.743h-1.348l-1.837-4.76h-.07v8.907h-.945zM120.705 80.162V78.36l-4.988-7.84h-.052v9.642h-.963V68.7h.945l5.005 7.927h.053V68.7h.962v11.462h-.962zM123.26 74.317q0-1.365.175-2.362.175-.998.56-1.803.787-1.627 2.94-1.627 2.45.017 3.22 2.292.455 1.313.455 3.098 0 1.767-.175 2.817-.175 1.05-.56 1.89-.805 1.715-2.94 1.715-2.1 0-2.923-1.715-.752-1.557-.752-4.305zm6.317.14q0-.945-.052-1.522-.035-.578-.193-1.278-.157-.7-.437-1.155-.263-.455-.77-.752-.49-.315-1.19-.315t-1.208.315q-.49.297-.77.752-.262.455-.42 1.155-.245 1.085-.245 2.415 0 1.313.088 2.135.105.805.367 1.593.543 1.627 2.188 1.627 1.68 0 2.205-1.645.455-1.4.437-3.325zM135.09 75.962h-1.61v4.2h-.963V68.7h2.573q2.1 0 3.097.805 1.015.787 1.015 2.747t-1.015 2.835q-1.015.875-3.097.875zm0-6.387h-1.61v5.512h1.61q1.61 0 2.345-.647.752-.648.752-2.17 0-1.523-.735-2.1-.735-.595-2.362-.595zM140.76 74.317q0-1.365.175-2.362.175-.998.56-1.803.787-1.627 2.94-1.627 2.45.017 3.22 2.292.455 1.313.455 3.465 0 2.975-.805 4.445l.857.98-.7.63-.7-.857q-.857.857-2.327.857-2.1 0-2.923-1.715-.752-1.557-.752-4.305zm1.172-2.24q-.087.595-.122 1.085-.018.49-.018 1.365 0 .858.088 1.68.105.805.367 1.61.543 1.628 2.188 1.628 1.05 0 1.68-.735l-1.295-1.54.665-.613 1.12 1.33q.472-1.19.472-3.605.018-2.275-.402-3.255-.455-1.085-1.208-1.4-.455-.21-1.032-.21-.578 0-1.033.21-.455.193-.735.578-.28.385-.472.822-.175.438-.263 1.05zM153.5 75.455q-.945.052-1.225.052h-1.435v4.655h-.963V68.7h2.573q2.135 0 3.132.735.998.735.998 2.59 0 1.242-.508 1.995-.49.752-1.592 1.225 1.19 2.257 2.17 4.917h-1.05q-.963-2.555-2.1-4.707zm-1.085-5.88h-1.575v5.057h1.4q1.61 0 2.467-.577.858-.595.858-2.03 0-1.435-.77-1.943-.753-.507-2.38-.507zM161.515 74.667q-1.558-.385-2.293-1.102-.717-.735-.717-2.118 0-1.382.945-2.152.962-.77 2.467-.77 1.505 0 3.063.542l-.245.893q-1.453-.525-2.678-.525-1.207 0-1.855.525-.647.507-.647 1.487 0 .98.525 1.488.525.507 2.082.927 1.575.403 2.275 1.085.7.665.7 2.17 0 1.488-1.015 2.363-.997.857-2.59.857-1.19 0-3.01-.507l.228-.893q1.785.49 2.87.49 1.085 0 1.785-.595.7-.612.7-1.697t-.508-1.593q-.507-.507-2.082-.875zM167.15 69.592V68.7h7.035v.892h-3.045v10.57h-.963v-10.57h-3.027zM176.005 76.855V68.7h.962v8.032q0 2.695 2.468 2.695 1.242 0 1.855-.735.612-.752.612-1.96V68.7h.963v8.155q0 1.697-.893 2.59-.875.892-2.572.892-1.698 0-2.555-.927-.84-.928-.84-2.555zM187.327 80.162L184.562 68.7h1.015l2.485 10.587h.315l2.485-10.587h.98l-2.765 11.462h-1.75zM193.872 80.162L192.595 68.7h.997l1.173 10.587h.192l1.54-5.53h.928l1.47 5.53h.21l1.172-10.587h.998l-1.278 11.462h-1.767l-1.26-4.935h-.053l-1.312 4.935h-1.733zM205.492 75.14l-2.222 5.022h-1.19l2.817-5.88-2.677-5.582h1.225l2.135 4.725h.035l2.117-4.725h1.173l-2.695 5.582 2.975 5.88h-1.26l-2.398-5.022h-.035zM214.89 75.21v4.952h-.945V75.21l-3.378-6.51h1.155l2.678 5.512h.035l2.677-5.512h1.155l-3.377 6.51zM220.035 69.575V68.7h6.177l.105.735-5.145 9.852h5.443v.875h-6.458l-.122-.7 5.145-9.887h-5.145zM1.092 97.907q0-4.287 3.343-4.287 3.342 0 3.342 4.287 0 4.288-3.342 4.288-3.343 0-3.343-4.288zm3.343-3.377q-2.345 0-2.345 3.377 0 3.378 2.345 3.378t2.345-3.378q0-3.377-2.345-3.377zM9.51 96.192q0-1.365.175-2.362.175-.998.56-1.803.787-1.627 2.94-1.627 2.45.017 3.22 2.292.455 1.313.455 3.098 0 1.767-.175 2.817-.175 1.05-.56 1.89-.805 1.715-2.94 1.715-2.1 0-2.923-1.715-.752-1.557-.752-4.305zm6.317.14q0-.945-.052-1.522-.035-.578-.193-1.278-.157-.7-.437-1.155-.263-.455-.77-.752-.49-.315-1.19-.315t-1.208.315q-.49.297-.77.752-.262.455-.42 1.155-.245 1.085-.245 2.415 0 1.313.088 2.135.105.805.367 1.593.543 1.627 2.188 1.627 1.68 0 2.205-1.645.455-1.4.437-3.325zM18.575 96.472q0-3.08.787-4.392.788-1.313 2.555-1.313 1.785 0 2.573 1.313.787 1.312.787 4.392 0 3.063-.787 4.393-.788 1.33-2.573 1.33-1.767 0-2.555-1.33-.787-1.33-.787-4.393zm1.592 3.693q.49 1.12 1.75 1.12t1.75-1.12q.49-1.12.49-3.71 0-2.608-.472-3.693-.473-1.085-1.75-1.085-1.278 0-1.768 1.103-.472 1.085-.472 3.675t.472 3.71zM27.185 99.132q0-2.065 1.855-2.765-1.628-.805-1.628-2.59 0-1.33.858-2.152.875-.84 2.45-.84 1.592 0 2.45.84.857.822.857 2.152 0 1.873-1.645 2.555 1.89.7 1.89 2.8 0 1.418-.927 2.258-.91.822-2.625.822-1.715 0-2.625-.822-.91-.84-.91-2.258zm3.552-2.327q-1.225 0-1.89.612-.647.613-.647 1.68 0 1.068.647 1.645.648.578 1.873.578t1.872-.578q.665-.595.665-1.645 0-1.067-.647-1.68-.648-.612-1.873-.612zm-.017-5.128q-1.173 0-1.75.56-.56.56-.56 1.523 0 .962.56 1.575.577.595 1.75.595 1.19 0 1.75-.578.56-.577.56-1.557 0-.998-.578-1.558-.56-.56-1.732-.56zM45.262 102.037v-.875h2.555V94.6h-2.555v-.875h3.483v7.437H51.3v.875h-6.038zm2.188-10.78q0-.35.192-.542.21-.193.56-.193.718 0 .718.77t-.718.753q-.752 0-.752-.788zM54.502 102.037v-.875h1.978V91.45h-1.978v-.875h4.883v.875h-1.943v9.712h1.943v.875h-4.883zM62.972 102.037v-.875h2.678v-9.905l-2.608.018-.017-.858 3.552-.017v10.762h2.765v.875h-6.37zM77.392 101.145v.892h-5.74V90.575h.963v10.57h4.777zM86.755 102.037h-6.563v-.892h2.993v-9.1l-2.888 1.33-.402-.928 3.395-1.522h.927v10.22h2.538v.892zM98.13 96.787v-.91l1.575-.805q0-1.47-.088-3.062-.087-1.593-.087-2.118 0-1.732 1.715-1.732h1.89v.875h-1.803q-.805 0-.805.962 0 .578.088 2.38.087 1.803.087 3.255l-1.575.63v.14l1.575.648q0 1.295-.087 3.22-.088 1.907-.088 2.66 0 .962.805.962h1.803v.875h-1.89q-1.715 0-1.715-1.732 0-.7.087-2.415.088-1.715.088-3.01l-1.575-.823zM106.705 104.767v-.875h1.802q.805 0 .805-.962 0-.753-.087-2.66-.088-1.925-.088-3.22l1.575-.648v-.122l-1.575-.648q0-1.452.088-3.255.087-1.802.087-2.38 0-.962-.805-.962h-1.802v-.875h1.89q1.715 0 1.715 1.732 0 .525-.088 2.118-.087 1.592-.087 3.062l1.575.823v.892l-1.575.823q0 1.295.087 3.01.088 1.715.088 2.415 0 1.732-1.715 1.732h-1.89zM125.605 104.767V88.16h3.605v.875h-2.608v14.857h2.608v.875h-3.605zM133.41 104.767v-.875h2.607V89.035h-2.607v-.875h3.605v16.607h-3.605zM152.992 102.037q-1.575 0-2.415-1.085-.84-1.085-.84-3.062 0-1.995.928-3.133.945-1.137 2.625-1.137.927 0 2.082.612l.035-.507h.893v6.3q.262 2.082.262 2.415 0 1.54-1.032 2.31-1.033.787-2.433.787-1.382 0-3.15-.7l.315-.875q1.733.665 2.765.665 1.05 0 1.82-.542.788-.543.788-1.628l-.158-1.382q-1.382.962-2.485.962zm.333-7.542q-1.243 0-1.943.927-.7.91-.7 2.45 0 1.523.613 2.415.612.875 1.715.875 1.102 0 2.362-1.05v-4.9q-1.137-.717-2.047-.717zM162.075 97.855q-1.628 0-2.52-.893-.893-.91-.893-2.537 0-1.645.945-2.643.945-.997 2.52-.997 1.593 0 2.485.962.893.963.893 2.678 0 2.362-.823 4.112-.822 1.75-2.677 3.798l-1.173-.193q1.645-1.785 2.363-2.94.735-1.155 1.12-2.467-1.12 1.12-2.24 1.12zm-2.398-3.483q0 2.573 2.398 2.573 1.032 0 1.715-.718.7-.717.7-1.802 0-2.73-2.398-2.73-1.137 0-1.785.735-.63.735-.63 1.942zM173.8 93.725v11.637h-.928v-4.06q-1.277.893-2.38.893-1.557 0-2.415-1.155-.857-1.155-.857-3.15 0-1.995.945-3.133.945-1.137 2.625-1.137.927 0 2.082.612l.035-.507h.893zm-5.583 4.165q0 1.54.595 2.467.613.928 1.733.928 1.137 0 2.327-.998v-5.075q-1.085-.682-2.047-.682-1.243 0-1.925.91-.683.892-.683 2.45zM182.515 100.847l.227.893q-1.54.455-2.765.455-2.012 0-2.992-1.383-.963-1.4-.963-4.497 0-3.098.945-4.498.945-1.417 3.028-1.417 1.277 0 2.66.542l-.28.875q-1.26-.525-2.38-.525-1.558 0-2.258 1.19-.682 1.173-.682 3.798t.735 3.815q.735 1.19 2.205 1.19.98 0 2.52-.438zM188.465 102.212q-2.03 0-3.01-1.4t-.98-4.497q0-3.115.962-4.515.963-1.4 3.133-1.4 1.417 0 2.975.56l-.245.892q-1.593-.542-2.73-.542-1.645 0-2.363 1.172-.7 1.155-.7 3.798 0 2.625.735 3.832.735 1.19 2.223 1.19.892 0 2.152-.42v-3.5h-1.977v-.857h2.94v5.04q-1.803.647-3.115.647zM193.26 96.192q0-1.365.175-2.362.175-.998.56-1.803.787-1.627 2.94-1.627 2.45.017 3.22 2.292.455 1.313.455 3.465 0 2.975-.805 4.445l.857.98-.7.63-.7-.857q-.857.857-2.327.857-2.1 0-2.923-1.715-.752-1.557-.752-4.305zm1.172-2.24q-.087.595-.122 1.085-.018.49-.018 1.365 0 .858.088 1.68.105.805.367 1.61.543 1.628 2.188 1.628 1.05 0 1.68-.735l-1.295-1.54.665-.613 1.12 1.33q.472-1.19.472-3.605.018-2.275-.402-3.255-.455-1.085-1.208-1.4-.455-.21-1.032-.21-.578 0-1.033.21-.455.193-.735.578-.28.385-.472.822-.175.438-.263 1.05zM217.742 96.507l.613.525q-.648.7-1.138 1.033-.472.332-1.032.332t-1.225-.332q-.665-.35-1.243-.683-.577-.35-.997-.35-.56-.017-1.575 1.085l-.63-.542q1.277-1.365 2.205-1.365.7 0 1.855.682 1.155.683 1.645.683t1.522-1.068zM220.735 98.31v-.945h5.022v.945h-5.022zM228.925 97.487v-.805h2.485v-2.52h.875v2.52h2.432v.805h-2.432v2.538h-.875v-2.538h-2.485zM238.147 99.185v-.77h5.233v.77h-5.233zm0-2.94v-.77h5.233v.77h-5.233zM251.885 96.927l-6.055-3.675.472-.717 6.633 4.112v.56l-6.633 4.288-.455-.718 6.038-3.85z"/></g></g></svg>