<?xml version="1.0" encoding="UTF-8" standalone="no"?>
<svg
   version="1.1"
   id="svg2"
   viewBox="0 0 252.93477 105.53749"
   height="29.785025mm"
   width="71.383812mm"
   sodipodi:docname="Lekton Nerd Font.svg"
   xmlns:inkscape="http://www.inkscape.org/namespaces/inkscape"
   xmlns:sodipodi="http://sodipodi.sourceforge.net/DTD/sodipodi-0.dtd"
   xmlns="http://www.w3.org/2000/svg"
   xmlns:svg="http://www.w3.org/2000/svg"
   xmlns:rdf="http://www.w3.org/1999/02/22-rdf-syntax-ns#"
   xmlns:cc="http://creativecommons.org/ns#"
   xmlns:dc="http://purl.org/dc/elements/1.1/">
  <sodipodi:namedview
     id="namedview12"
     pagecolor="#ffffff"
     bordercolor="#666666"
     borderopacity="1.0"
     inkscape:showpageshadow="2"
     inkscape:pageopacity="0.0"
     inkscape:pagecheckerboard="0"
     inkscape:deskcolor="#d1d1d1"
     inkscape:document-units="mm" />
  <defs
     id="defs4" />
  <metadata
     id="metadata7">
    <rdf:RDF>
      <cc:Work
         rdf:about="">
        <dc:format>image/svg+xml</dc:format>
        <dc:type
           rdf:resource="http://purl.org/dc/dcmitype/StillImage" />
        <dc:title />
      </cc:Work>
    </rdf:RDF>
  </metadata>
  <g
     id="layer1"
     transform="translate(-65.359643,-82.646132)">
    <g
       aria-label="Lekton Nerd Font"
       id="text4136"
       style="font-size:27.5px;font-family:'Lekton Nerd Font';letter-spacing:0px;word-spacing:0px;fill:#ffffff">
      <path
         d="M 74.379643,99.531132 V 100.93363 H 65.359643 V 82.921132 H 66.872143 V 99.531132 Z"
         id="path14" />
      <path
         d="M 78.449643,94.416132 Q 78.449643,91.253632 79.742143,89.493632 81.062143,87.706132 83.564643,87.706132 86.067143,87.706132 87.277143,89.356132 88.514643,91.006132 88.514643,93.756132 L 88.432143,95.131132 H 80.017143 Q 80.154643,97.193632 81.117143,98.486132 82.079643,99.751132 83.757143,99.751132 85.462143,99.751132 87.744643,98.953632 L 88.157143,100.32863 Q 85.929643,101.18113 83.977143,101.18113 81.282143,101.18113 79.852143,99.393632 78.449643,97.578632 78.449643,94.416132 Z M 83.674643,89.108632 Q 80.209643,89.108632 80.017143,93.756132 H 86.947143 Q 86.947143,89.108632 83.674643,89.108632 Z"
         id="path16" />
      <path
         d="M 93.024643,100.93363 V 82.646132 H 94.482143 V 93.783632 L 96.819643,93.508632 Q 98.524643,91.418632 100.14714,88.723632 L 100.66964,87.871132 H 102.31964 Q 100.17464,91.638632 98.139643,94.086132 100.06464,96.533632 101.93464,99.861132 L 102.53964,100.93363 H 100.83464 Q 98.964643,97.413632 96.984643,94.856132 L 94.482143,95.103632 V 100.93363 Z"
         id="path18" />
      <path
         d="M 105.64714,89.603632 V 88.228632 H 108.31464 V 84.901132 L 109.77214,84.626132 V 88.228632 H 116.06964 V 89.603632 H 109.77214 V 95.873632 Q 109.77214,97.963632 110.37714,98.898632 111.00964,99.806132 112.60464,99.806132 113.20964,99.806132 114.47464,99.613632 115.73964,99.393632 116.20714,99.228632 L 116.53714,100.57613 Q 116.01464,100.76863 114.61214,100.98863 113.23714,101.20863 112.60464,101.20863 110.12964,101.20863 109.22214,99.916132 108.31464,98.596132 108.31464,95.928632 V 89.603632 Z"
         id="path20" />
      <path
         d="M 119.47964,94.443632 Q 119.47964,87.706132 124.73214,87.706132 129.98464,87.706132 129.98464,94.443632 129.98464,101.18113 124.73214,101.18113 119.47964,101.18113 119.47964,94.443632 Z M 124.73214,89.136132 Q 121.04714,89.136132 121.04714,94.443632 121.04714,99.751132 124.73214,99.751132 128.41714,99.751132 128.41714,94.443632 128.41714,89.136132 124.73214,89.136132 Z"
         id="path22" />
      <path
         d="M 135.09964,87.871132 135.15464,88.971132 Q 137.82214,87.706132 139.58214,87.706132 141.34214,87.706132 142.33214,88.916132 143.34964,90.126132 143.34964,92.216132 V 100.93363 H 141.89214 V 92.216132 Q 141.89214,90.868632 141.23214,89.988632 140.57214,89.136132 139.25214,89.136132 137.93214,89.136132 135.15464,90.346132 V 100.93363 H 133.69714 V 87.871132 Z"
         id="path24" />
      <path
         d="M 169.94214,100.93363 V 98.101132 L 162.10464,85.781132 H 162.02214 V 100.93363 H 160.50964 V 82.921132 H 161.99464 L 169.85964,95.378632 H 169.94214 V 82.921132 H 171.45464 V 100.93363 Z"
         id="path26" />
      <path
         d="M 174.69964,94.416132 Q 174.69964,91.253632 175.99214,89.493632 177.31214,87.706132 179.81464,87.706132 182.31714,87.706132 183.52714,89.356132 184.76464,91.006132 184.76464,93.756132 L 184.68214,95.131132 H 176.26714 Q 176.40464,97.193632 177.36714,98.486132 178.32964,99.751132 180.00714,99.751132 181.71214,99.751132 183.99464,98.953632 L 184.40714,100.32863 Q 182.17964,101.18113 180.22714,101.18113 177.53214,101.18113 176.10214,99.393632 174.69964,97.578632 174.69964,94.416132 Z M 179.92464,89.108632 Q 176.45964,89.108632 176.26714,93.756132 H 183.19714 Q 183.19714,89.108632 179.92464,89.108632 Z"
         id="path28" />
      <path
         d="M 188.83464,100.93363 V 99.558632 H 191.96964 V 89.246132 H 188.83464 V 87.871132 H 193.42714 L 193.48214,89.466132 Q 194.36214,88.916132 195.95714,88.366132 197.55214,87.816132 198.76214,87.706132 H 199.06464 V 89.328632 H 198.76214 Q 197.63464,89.411132 195.95714,89.878632 194.30714,90.346132 193.48214,90.841132 V 99.558632 H 197.88214 V 100.93363 Z"
         id="path30" />
      <path
         d="M 212.12714,82.673632 V 98.651132 L 212.40214,101.04363 210.99964,101.20863 210.72464,99.751132 Q 208.66214,101.18113 206.92964,101.18113 204.48214,101.18113 203.10714,99.366132 201.75964,97.551132 201.75964,94.443632 201.75964,91.308632 203.27214,89.521132 204.78464,87.706132 207.39714,87.706132 208.93714,87.706132 210.66964,88.448632 V 82.673632 Z M 203.32714,94.388632 Q 203.32714,96.808632 204.26214,98.293632 205.22464,99.751132 207.01214,99.751132 208.79964,99.751132 210.66964,98.183632 V 89.933632 Q 210.09214,89.658632 209.07464,89.411132 208.08464,89.136132 207.45214,89.136132 205.49964,89.136132 204.39964,90.566132 203.32714,91.968632 203.32714,94.388632 Z"
         id="path32" />
      <path
         d="M 230.22214,100.93363 V 82.921132 H 239.62714 V 84.323632 H 231.73464 V 92.188632 H 238.49964 V 93.563632 H 231.73464 V 100.93363 Z"
         id="path34" />
      <path
         d="M 243.22964,94.443632 Q 243.22964,87.706132 248.48214,87.706132 253.73464,87.706132 253.73464,94.443632 253.73464,101.18113 248.48214,101.18113 243.22964,101.18113 243.22964,94.443632 Z M 248.48214,89.136132 Q 244.79714,89.136132 244.79714,94.443632 244.79714,99.751132 248.48214,99.751132 252.16714,99.751132 252.16714,94.443632 252.16714,89.136132 248.48214,89.136132 Z"
         id="path36" />
      <path
         d="M 258.84964,87.871132 258.90464,88.971132 Q 261.57214,87.706132 263.33214,87.706132 265.09214,87.706132 266.08214,88.916132 267.09964,90.126132 267.09964,92.216132 V 100.93363 H 265.64214 V 92.216132 Q 265.64214,90.868632 264.98214,89.988632 264.32214,89.136132 263.00214,89.136132 261.68214,89.136132 258.90464,90.346132 V 100.93363 H 257.44714 V 87.871132 Z"
         id="path38" />
      <path
         d="M 270.64714,89.603632 V 88.228632 H 273.31464 V 84.901132 L 274.77214,84.626132 V 88.228632 H 281.06964 V 89.603632 H 274.77214 V 95.873632 Q 274.77214,97.963632 275.37714,98.898632 276.00964,99.806132 277.60464,99.806132 278.20964,99.806132 279.47464,99.613632 280.73964,99.393632 281.20714,99.228632 L 281.53714,100.57613 Q 281.01464,100.76863 279.61214,100.98863 278.23714,101.20863 277.60464,101.20863 275.12964,101.20863 274.22214,99.916132 273.31464,98.596132 273.31464,95.928632 V 89.603632 Z"
         id="path40" />
    </g>
    <g
       aria-label="abcdefghijklmnopqrstuvwxyzABCDEFGHIJKLMNOPQRSTUVWXYZ oO08 iIlL1 {} [] g9qCGQ ~-+=&gt;"
       id="text4140"
       style="font-size:17.5px;font-family:'Lekton Nerd Font';letter-spacing:0px;word-spacing:0px;fill:#ffffff">
      <path
         d="M 69.234403,140.18112 Q 69.881903,140.18112 70.634403,139.77862 71.404403,139.35862 71.754403,139.00862 V 136.92612 Q 70.599403,136.83862 69.549403,136.83862 68.499403,136.83862 67.974403,137.29362 67.449403,137.73112 67.449403,138.48362 67.449403,140.18112 69.234403,140.18112 Z M 69.216903,141.09112 Q 67.939403,141.09112 67.204403,140.44362 66.469403,139.77862 66.469403,138.57112 66.469403,137.36362 67.274403,136.69862 68.079403,136.01612 69.409403,136.01612 70.739403,136.01612 71.754403,136.12112 71.754403,134.56362 71.369403,134.00362 70.984403,133.42612 69.811903,133.42612 68.639403,133.42612 67.046903,133.98612 L 66.784403,133.11112 Q 68.411903,132.51612 69.724403,132.51612 71.456903,132.51612 72.069403,133.28612 72.681903,134.05612 72.681903,135.98112 V 139.65612 L 72.821903,140.98612 71.929403,141.07362 71.754403,140.02362 Q 71.351903,140.37362 70.616903,140.74112 69.881903,141.09112 69.216903,141.09112 Z"
         id="path43" />
      <path
         d="M 75.516903,140.93362 V 129.31362 H 76.444403 V 133.42612 Q 77.756903,132.51612 78.824403,132.51612 80.399403,132.51612 81.256903,133.60112 82.114403,134.66862 82.114403,136.66362 82.114403,138.65862 81.151903,139.88362 80.189403,141.09112 78.526903,141.09112 77.511903,141.09112 76.426903,140.58362 L 76.391903,140.93362 Z M 81.116903,136.68112 Q 81.116903,135.14112 80.504403,134.28362 79.909403,133.42612 78.771903,133.42612 77.634403,133.42612 76.444403,134.42362 V 139.67362 Q 76.811903,139.84862 77.441903,140.02362 78.089403,140.18112 78.491903,140.18112 79.716903,140.18112 80.416903,139.20112 81.116903,138.22112 81.116903,136.68112 Z"
         id="path45" />
      <path
         d="M 90.059403,132.90112 89.849403,133.81112 Q 88.764403,133.42612 87.836903,133.42612 86.576903,133.42612 85.946903,134.31862 85.334403,135.19362 85.334403,136.76862 85.334403,138.34362 85.964403,139.27112 86.594403,140.18112 87.836903,140.18112 88.676903,140.18112 89.936903,139.72612 L 90.216903,140.60112 Q 88.939403,141.09112 87.854403,141.09112 86.139403,141.09112 85.229403,139.95362 84.319403,138.79862 84.319403,136.75112 84.319403,134.70362 85.211903,133.61862 86.104403,132.51612 87.836903,132.51612 88.939403,132.51612 90.059403,132.90112 Z"
         id="path47" />
      <path
         d="M 99.159403,129.31362 V 139.48112 L 99.334403,141.00362 98.441903,141.10862 98.266903,140.18112 Q 96.954403,141.09112 95.851903,141.09112 94.294403,141.09112 93.419403,139.93612 92.561903,138.78112 92.561903,136.80362 92.561903,134.80862 93.524403,133.67112 94.486903,132.51612 96.149403,132.51612 97.129403,132.51612 98.231903,132.98862 V 129.31362 Z M 93.559403,136.76862 Q 93.559403,138.30862 94.154403,139.25362 94.766903,140.18112 95.904403,140.18112 97.041903,140.18112 98.231903,139.18362 V 133.93362 Q 97.864403,133.75862 97.216903,133.60112 96.586903,133.42612 96.184403,133.42612 94.941903,133.42612 94.241903,134.33612 93.559403,135.22862 93.559403,136.76862 Z"
         id="path49" />
      <path
         d="M 101.5919,136.78612 Q 101.5919,134.77362 102.4144,133.65362 103.2544,132.51612 104.8469,132.51612 106.4394,132.51612 107.2094,133.56612 107.9969,134.61612 107.9969,136.36612 L 107.9444,137.24112 H 102.5894 Q 102.6769,138.55362 103.2894,139.37612 103.9019,140.18112 104.9694,140.18112 106.0544,140.18112 107.5069,139.67362 L 107.7694,140.54862 Q 106.3519,141.09112 105.1094,141.09112 103.3944,141.09112 102.4844,139.95362 101.5919,138.79862 101.5919,136.78612 Z M 104.9169,133.40862 Q 102.7119,133.40862 102.5894,136.36612 H 106.9994 Q 106.9994,133.40862 104.9169,133.40862 Z"
         id="path51" />
      <path
         d="M 110.3769,140.93362 V 140.05862 H 112.3194 V 133.49612 H 110.4469 V 132.62112 H 112.3194 Q 112.3194,129.15612 114.8919,129.15612 115.7319,129.15612 117.0969,129.55862 L 116.8869,130.43362 Q 115.5394,130.04862 114.9269,130.04862 114.0344,130.04862 113.6319,130.67862 113.2469,131.29112 113.2469,132.62112 H 116.7644 V 133.49612 H 113.2469 V 140.05862 H 116.7994 V 140.93362 Z"
         id="path53" />
      <path
         d="M 122.1019,140.93362 Q 120.5269,140.93362 119.6869,139.84862 118.8469,138.76362 118.8469,136.78612 118.8469,134.79112 119.7744,133.65362 120.7194,132.51612 122.3994,132.51612 123.3269,132.51612 124.4819,133.12862 L 124.5169,132.62112 H 125.4094 V 138.92112 Q 125.6719,141.00362 125.6719,141.33612 125.6719,142.87612 124.6394,143.64612 123.6069,144.43362 122.2069,144.43362 120.8244,144.43362 119.0569,143.73362 L 119.3719,142.85862 Q 121.1044,143.52362 122.1369,143.52362 123.1869,143.52362 123.9569,142.98112 124.7444,142.43862 124.7444,141.35362 L 124.5869,139.97112 Q 123.2044,140.93362 122.1019,140.93362 Z M 122.4344,133.39112 Q 121.1919,133.39112 120.4919,134.31862 119.7919,135.22862 119.7919,136.76862 119.7919,138.29112 120.4044,139.18362 121.0169,140.05862 122.1194,140.05862 123.2219,140.05862 124.4819,139.00862 V 134.10862 Q 123.3444,133.39112 122.4344,133.39112 Z"
         id="path55" />
      <path
         d="M 128.9619,134.14362 V 140.93362 H 128.0344 V 129.31362 H 128.9619 V 133.25112 Q 130.6069,132.51612 131.6744,132.51612 134.1769,132.51612 134.1769,135.38612 V 140.93362 H 133.2494 V 135.38612 Q 133.2494,134.49362 132.8644,133.96862 132.4794,133.42612 131.5344,133.42612 130.5894,133.42612 128.9619,134.14362 Z"
         id="path57" />
      <path
         d="M 136.8719,140.93362 V 140.05862 H 139.4269 V 133.49612 H 136.8719 V 132.62112 H 140.3544 V 140.05862 H 142.9094 V 140.93362 Z M 139.0594,130.15362 Q 139.0594,129.80362 139.2519,129.61112 139.4619,129.41862 139.8119,129.41862 140.5294,129.41862 140.5294,130.18862 140.5294,130.95862 139.8119,130.94112 139.0594,130.94112 139.0594,130.15362 Z"
         id="path59" />
      <path
         d="M 145.7794,133.47862 V 132.62112 H 150.3294 V 141.10862 Q 150.3294,142.36862 149.6294,143.10362 149.1044,143.66362 147.5644,143.97862 147.0044,144.08362 146.0419,144.22362 L 145.9369,143.31362 Q 147.4944,143.08612 148.0719,142.87612 148.6494,142.68362 148.8769,142.47362 149.4019,141.96612 149.4019,141.10862 V 133.47862 Z M 148.9294,130.15362 Q 148.9294,129.40112 149.6994,129.40112 150.4344,129.40112 150.4344,130.18862 150.4344,130.95862 149.6994,130.95862 149.3319,130.95862 149.1219,130.74862 148.9294,130.52112 148.9294,130.15362 Z"
         id="path61" />
      <path
         d="M 154.6169,140.93362 V 129.29612 H 155.5444 V 136.38362 L 157.0319,136.20862 Q 158.1169,134.87862 159.1494,133.16362 L 159.4819,132.62112 H 160.5319 Q 159.1669,135.01862 157.8719,136.57612 159.0969,138.13362 160.2869,140.25112 L 160.6719,140.93362 H 159.5869 Q 158.3969,138.69362 157.1369,137.06612 L 155.5444,137.22362 V 140.93362 Z"
         id="path63" />
      <path
         d="M 163.3319,140.93362 V 140.05862 H 166.0094 V 130.15362 L 163.4019,130.17112 163.3844,129.31362 166.9369,129.29612 V 140.05862 H 169.7019 V 140.93362 Z"
         id="path65" />
      <path
         d="M 171.9069,132.62112 171.9594,133.14612 Q 172.8344,132.51612 173.3069,132.51612 174.4619,132.51612 174.8994,133.26862 175.8794,132.51612 176.6144,132.51612 177.7519,132.51612 178.1719,133.21612 178.5919,133.91612 178.5919,135.36862 V 140.93362 H 177.6644 V 135.36862 Q 177.6644,134.37112 177.4544,133.89862 177.2444,133.40862 176.6494,133.40862 176.0544,133.40862 175.1794,133.96862 175.2844,134.56362 175.2844,135.36862 V 138.27362 H 174.3569 V 135.36862 Q 174.3569,134.37112 174.1469,133.89862 173.9194,133.40862 173.3244,133.40862 172.7294,133.40862 171.9594,133.96862 V 140.93362 H 171.0319 V 132.62112 Z"
         id="path67" />
      <path
         d="M 181.3919,132.62112 181.4269,133.32112 Q 183.1244,132.51612 184.2444,132.51612 185.3644,132.51612 185.9944,133.28612 186.6419,134.05612 186.6419,135.38612 V 140.93362 H 185.7144 V 135.38612 Q 185.7144,134.52862 185.2944,133.96862 184.8744,133.42612 184.0344,133.42612 183.1944,133.42612 181.4269,134.19612 V 140.93362 H 180.4994 V 132.62112 Z"
         id="path69" />
      <path
         d="M 188.9519,136.80362 Q 188.9519,132.51612 192.2944,132.51612 195.6369,132.51612 195.6369,136.80362 195.6369,141.09112 192.2944,141.09112 188.9519,141.09112 188.9519,136.80362 Z M 192.2944,133.42612 Q 189.9494,133.42612 189.9494,136.80362 189.9494,140.18112 192.2944,140.18112 194.6394,140.18112 194.6394,136.80362 194.6394,133.42612 192.2944,133.42612 Z"
         id="path71" />
      <path
         d="M 198.0169,144.29362 V 134.12612 L 197.8594,132.60362 198.7344,132.49862 198.8919,133.44362 Q 200.1694,132.51612 201.3244,132.51612 202.8819,132.51612 203.7394,133.65362 204.5969,134.79112 204.5969,136.78612 204.5969,138.78112 203.6519,139.93612 202.7069,141.09112 201.0269,141.09112 200.0469,141.09112 198.9444,140.61862 V 144.29362 Z M 203.5994,136.82112 Q 203.5994,135.26362 203.0044,134.35362 202.4094,133.42612 201.2894,133.42612 200.1869,133.42612 198.9444,134.42362 V 139.67362 Q 199.3119,139.84862 199.9419,140.02362 200.5894,140.18112 200.9919,140.18112 202.2344,140.18112 202.9169,139.27112 203.5994,138.36112 203.5994,136.82112 Z"
         id="path73" />
      <path
         d="M 212.9094,132.62112 V 144.25862 H 211.9819 V 140.19862 Q 210.7044,141.09112 209.6019,141.09112 208.0444,141.09112 207.1869,139.93612 206.3294,138.78112 206.3294,136.78612 206.3294,134.79112 207.2744,133.65362 208.2194,132.51612 209.8994,132.51612 210.8269,132.51612 211.9819,133.12862 L 212.0169,132.62112 Z M 207.3269,136.78612 Q 207.3269,138.32612 207.9219,139.25362 208.5344,140.18112 209.6544,140.18112 210.7919,140.18112 211.9819,139.18362 V 134.10862 Q 210.8969,133.42612 209.9344,133.42612 208.6919,133.42612 208.0094,134.33612 207.3269,135.22862 207.3269,136.78612 Z"
         id="path75" />
      <path
         d="M 215.5869,140.93362 V 140.05862 H 217.5819 V 133.49612 H 215.5869 V 132.62112 H 218.5094 L 218.5444,133.63612 Q 219.1044,133.28612 220.1194,132.93612 221.1344,132.58612 221.9044,132.51612 H 222.0969 V 133.54862 H 221.9044 Q 221.1869,133.60112 220.1194,133.89862 219.0694,134.19612 218.5444,134.51112 V 140.05862 H 221.3444 V 140.93362 Z"
         id="path77" />
      <path
         d="M 224.2844,140.53112 224.5119,139.62112 Q 226.2444,140.19862 227.1894,140.19862 228.1344,140.19862 228.6419,139.79612 229.1669,139.37612 229.1669,138.69362 229.1669,138.01112 228.7469,137.69612 228.3444,137.36362 227.0494,137.06612 225.7544,136.76862 225.1069,136.20862 224.4594,135.68362 224.4594,134.63362 224.4594,133.58362 225.2469,133.04112 226.0519,132.48112 227.3119,132.48112 228.5719,132.48112 230.0419,133.04112 L 229.7969,133.86362 Q 228.3094,133.37362 227.3994,133.37362 226.4894,133.37362 225.9644,133.68862 225.4394,134.03862 225.4394,134.63362 225.4394,135.22862 225.8944,135.56112 226.3669,135.89362 227.6969,136.22612 229.0269,136.55862 229.5869,137.08362 230.1469,137.59112 230.1469,138.69362 230.1469,139.79612 229.3944,140.44362 228.6594,141.09112 227.2944,141.09112 225.9294,141.09112 224.2844,140.53112 Z"
         id="path79" />
      <path
         d="M 232.6494,133.72362 V 132.84862 H 234.3469 V 130.73112 L 235.2744,130.55612 V 132.84862 H 239.2819 V 133.72362 H 235.2744 V 137.71362 Q 235.2744,139.04362 235.6594,139.63862 236.0619,140.21612 237.0769,140.21612 237.4619,140.21612 238.2669,140.09362 239.0719,139.95362 239.3694,139.84862 L 239.5794,140.70612 Q 239.2469,140.82862 238.3544,140.96862 237.4794,141.10862 237.0769,141.10862 235.5019,141.10862 234.9244,140.28612 234.3469,139.44612 234.3469,137.74862 V 133.72362 Z"
         id="path81" />
      <path
         d="M 246.9644,140.93362 246.9294,140.21612 Q 245.2494,141.09112 244.1294,141.09112 243.0094,141.09112 242.3619,140.32112 241.7144,139.55112 241.7144,138.22112 V 132.62112 H 242.6419 V 138.22112 Q 242.6419,139.07862 243.0444,139.63862 243.4644,140.18112 244.3044,140.18112 245.1444,140.18112 246.9294,139.30612 V 132.62112 H 247.8569 V 140.93362 Z"
         id="path83" />
      <path
         d="M 250.0969,132.62112 H 251.1469 L 253.4394,140.09362 H 253.7544 L 255.9594,132.62112 H 257.0094 L 254.4719,140.93362 H 252.7219 Z"
         id="path85" />
      <path
         d="M 265.1469,132.62112 H 266.0569 L 265.0594,140.93362 H 263.2044 L 262.3119,137.31112 H 262.2419 L 261.3319,140.93362 H 259.4944 L 258.5319,132.62112 H 259.4419 L 260.3519,140.09362 H 260.6669 L 261.8394,135.87612 H 262.7494 L 263.9219,140.09362 H 264.2369 Z"
         id="path87" />
      <path
         d="M 267.7194,132.62112 H 268.9269 L 271.0444,136.05112 273.1444,132.62112 H 274.3169 L 271.6919,136.71612 274.4744,140.93362 H 273.2844 L 271.0444,137.38112 268.8219,140.93362 H 267.6319 L 270.4494,136.71612 Z"
         id="path89" />
      <path
         d="M 276.3819,132.62112 H 277.4319 L 279.8994,139.69112 H 280.0394 L 282.2444,132.62112 H 283.2944 L 280.0744,142.35112 Q 279.6194,143.73362 279.1119,144.11862 278.6219,144.50362 277.0994,144.53862 V 143.64612 Q 278.0794,143.62862 278.4119,143.36612 278.7444,143.10362 279.0244,142.26362 L 279.4269,141.05612 Z"
         id="path91" />
      <path
         d="M 285.6919,133.49612 V 132.62112 H 291.3969 L 291.4844,133.33862 286.7769,140.05862 H 291.5369 V 140.93362 H 285.6744 L 285.5344,140.21612 290.2244,133.49612 Z"
         id="path93" />
      <path
         d="M 65.716903,162.80862 69.006903,151.34612 H 70.686903 L 73.854403,162.80862 H 72.821903 L 72.104403,160.16612 H 67.466903 L 66.731903,162.80862 Z M 71.876903,159.29112 69.986903,152.22112 H 69.689403 L 67.711903,159.29112 Z"
         id="path95" />
      <path
         d="M 75.341903,162.80862 V 151.34612 H 78.036903 Q 79.961903,151.34612 80.889403,152.04612 81.834403,152.72862 81.834403,154.32112 81.834403,156.31612 79.891903,156.91112 81.046903,157.17362 81.589403,157.78612 82.149403,158.39862 82.149403,159.57112 82.149403,161.42612 81.099403,162.12612 80.049403,162.80862 77.879403,162.80862 Z M 81.134403,159.57112 Q 81.134403,157.43612 78.229403,157.43612 H 76.304403 V 161.95112 H 77.879403 Q 79.506903,161.95112 80.311903,161.44362 81.134403,160.91862 81.134403,159.57112 Z M 79.909403,152.51862 Q 79.156903,152.20362 78.036903,152.20362 H 76.304403 V 156.57862 H 78.176903 Q 79.279403,156.57862 80.049403,156.08862 80.819403,155.58112 80.836903,154.25112 80.854403,152.92112 79.909403,152.51862 Z"
         id="path97" />
      <path
         d="M 90.374403,161.61862 90.601903,162.51112 Q 89.061903,162.96612 87.836903,162.96612 85.824403,162.96612 84.844403,161.58362 83.881903,160.18362 83.881903,157.08612 83.881903,153.98862 84.826903,152.58862 85.771903,151.17112 87.854403,151.17112 89.131903,151.17112 90.514403,151.71362 L 90.234403,152.58862 Q 88.974403,152.06362 87.854403,152.06362 86.296903,152.06362 85.596903,153.25362 84.914403,154.42612 84.914403,157.05112 84.914403,159.67612 85.649403,160.86612 86.384403,162.05612 87.854403,162.05612 88.834403,162.05612 90.374403,161.61862 Z"
         id="path99" />
      <path
         d="M 92.719403,162.80862 V 151.34612 H 95.064403 Q 96.359403,151.34612 97.181903,151.60862 98.021903,151.85362 98.599403,152.50112 99.176903,153.14862 99.421903,154.26862 99.684403,155.37112 99.684403,157.08612 99.684403,158.78362 99.404403,159.92112 99.124403,161.04112 98.511903,161.67112 97.899403,162.30112 97.076903,162.56362 96.254403,162.80862 95.029403,162.80862 Z M 97.111903,161.54862 Q 97.864403,161.16362 98.249403,160.11362 98.651903,159.04612 98.651903,157.08612 98.651903,155.10862 98.266903,154.05862 97.881903,152.99112 97.146903,152.60612 96.411903,152.22112 95.064403,152.22112 H 93.681903 V 161.93362 H 95.029403 Q 96.376903,161.93362 97.111903,161.54862 Z"
         id="path101" />
      <path
         d="M 101.8544,162.80862 V 151.34612 H 107.8219 V 152.20362 H 102.8169 V 156.54362 H 107.3494 V 157.40112 H 102.8169 V 161.95112 H 107.8744 V 162.80862 Z"
         id="path103" />
      <path
         d="M 110.6744,162.80862 V 151.34612 H 116.6594 V 152.23862 H 111.6369 V 157.24362 H 115.9419 V 158.11862 H 111.6369 V 162.80862 Z"
         id="path105" />
      <path
         d="M 122.5744,162.98362 Q 120.5444,162.98362 119.5644,161.58362 118.5844,160.18362 118.5844,157.08612 118.5844,153.97112 119.5469,152.57112 120.5094,151.17112 122.6794,151.17112 124.0969,151.17112 125.6544,151.73112 L 125.4094,152.62362 Q 123.8169,152.08112 122.6794,152.08112 121.0344,152.08112 120.3169,153.25362 119.6169,154.40862 119.6169,157.05112 119.6169,159.67612 120.3519,160.88362 121.0869,162.07362 122.5744,162.07362 123.4669,162.07362 124.7269,161.65362 V 158.15362 H 122.7494 V 157.29612 H 125.6894 V 162.33612 Q 123.8869,162.98362 122.5744,162.98362 Z"
         id="path107" />
      <path
         d="M 127.6144,162.80862 V 151.34612 H 128.5769 V 156.66612 H 133.5119 V 151.34612 H 134.4744 V 162.80862 H 133.5119 V 157.55862 H 128.5769 V 162.80862 Z"
         id="path109" />
      <path
         d="M 137.3619,162.80862 V 161.93362 H 139.3394 V 152.22112 H 137.3619 V 151.34612 H 142.2444 V 152.22112 H 140.3019 V 161.93362 H 142.2444 V 162.80862 Z"
         id="path111" />
      <path
         d="M 145.8319,152.57112 V 151.69612 H 151.2394 V 159.69362 Q 151.2394,161.37362 150.1019,162.03862 148.9819,162.68612 146.1469,162.98362 L 146.0244,162.07362 Q 148.4569,161.81112 149.3669,161.35612 150.2769,160.88362 150.2769,159.69362 V 152.57112 Z"
         id="path113" />
      <path
         d="M 154.1619,162.80862 V 151.34612 H 155.1244 V 156.75362 L 156.8219,156.57862 Q 158.3094,154.40862 159.3944,152.13362 L 159.7619,151.34612 H 160.8294 Q 159.3244,154.46112 157.6969,156.92862 159.1144,159.16862 160.4794,161.86362 L 160.9694,162.80862 H 159.8494 Q 158.4144,159.74612 156.9094,157.47112 L 155.1244,157.64612 V 162.80862 Z"
         id="path115" />
      <path
         d="M 169.0019,161.91612 V 162.80862 H 163.2619 V 151.34612 H 164.2244 V 161.91612 Z"
         id="path117" />
      <path
         d="M 171.2594,162.80862 V 151.34612 H 172.1869 L 174.6544,157.76862 H 174.9169 L 177.3844,151.34612 H 178.3119 V 162.80862 H 177.3669 V 153.91862 H 177.2969 L 175.4594,158.66112 H 174.1119 L 172.2744,153.90112 H 172.2044 V 162.80862 Z"
         id="path119" />
      <path
         d="M 186.0644,162.80862 V 161.00612 L 181.0769,153.16612 H 181.0244 V 162.80862 H 180.0619 V 151.34612 H 181.0069 L 186.0119,159.27362 H 186.0644 V 151.34612 H 187.0269 V 162.80862 Z"
         id="path121" />
      <path
         d="M 188.6194,156.96362 Q 188.6194,155.59862 188.7944,154.60112 188.9694,153.60362 189.3544,152.79862 190.1419,151.17112 192.2944,151.17112 194.7444,151.18862 195.5144,153.46362 195.9694,154.77612 195.9694,156.56112 195.9694,158.32862 195.7944,159.37862 195.6194,160.42862 195.2344,161.26862 194.4294,162.98362 192.2944,162.98362 190.1944,162.98362 189.3719,161.26862 188.6194,159.71112 188.6194,156.96362 Z M 194.9369,157.10362 Q 194.9369,156.15862 194.8844,155.58112 194.8494,155.00362 194.6919,154.30362 194.5344,153.60362 194.2544,153.14862 193.9919,152.69362 193.4844,152.39612 192.9944,152.08112 192.2944,152.08112 191.5944,152.08112 191.0869,152.39612 190.5969,152.69362 190.3169,153.14862 190.0544,153.60362 189.8969,154.30362 189.6519,155.38862 189.6519,156.71862 189.6519,158.03112 189.7394,158.85362 189.8444,159.65862 190.1069,160.44612 190.6494,162.07362 192.2944,162.07362 193.9744,162.07362 194.4994,160.42862 194.9544,159.02862 194.9369,157.10362 Z"
         id="path123" />
      <path
         d="M 200.4494,158.60862 H 198.8394 V 162.80862 H 197.8769 V 151.34612 H 200.4494 Q 202.5494,151.34612 203.5469,152.15112 204.5619,152.93862 204.5619,154.89862 204.5619,156.85862 203.5469,157.73362 202.5319,158.60862 200.4494,158.60862 Z M 200.4494,152.22112 H 198.8394 V 157.73362 H 200.4494 Q 202.0594,157.73362 202.7944,157.08612 203.5469,156.43862 203.5469,154.91612 203.5469,153.39362 202.8119,152.81612 202.0769,152.22112 200.4494,152.22112 Z"
         id="path125" />
      <path
         d="M 206.1194,156.96362 Q 206.1194,155.59862 206.2944,154.60112 206.4694,153.60362 206.8544,152.79862 207.6419,151.17112 209.7944,151.17112 212.2444,151.18862 213.0144,153.46362 213.4694,154.77612 213.4694,156.92862 213.4694,159.90362 212.6644,161.37362 L 213.5219,162.35362 212.8219,162.98362 212.1219,162.12612 Q 211.2644,162.98362 209.7944,162.98362 207.6944,162.98362 206.8719,161.26862 206.1194,159.71112 206.1194,156.96362 Z M 207.2919,154.72362 Q 207.2044,155.31862 207.1694,155.80862 207.1519,156.29862 207.1519,157.17362 207.1519,158.03112 207.2394,158.85362 207.3444,159.65862 207.6069,160.46362 208.1494,162.09112 209.7944,162.09112 210.8444,162.09112 211.4744,161.35612 L 210.1794,159.81612 210.8444,159.20362 211.9644,160.53362 Q 212.4369,159.34362 212.4369,156.92862 212.4544,154.65362 212.0344,153.67362 211.5794,152.58862 210.8269,152.27362 210.3719,152.06362 209.7944,152.06362 209.2169,152.06362 208.7619,152.27362 208.3069,152.46612 208.0269,152.85112 207.7469,153.23612 207.5544,153.67362 207.3794,154.11112 207.2919,154.72362 Z"
         id="path127" />
      <path
         d="M 218.8594,158.10112 Q 217.9144,158.15362 217.6344,158.15362 H 216.1994 V 162.80862 H 215.2369 V 151.34612 H 217.8094 Q 219.9444,151.34612 220.9419,152.08112 221.9394,152.81612 221.9394,154.67112 221.9394,155.91362 221.4319,156.66612 220.9419,157.41862 219.8394,157.89112 221.0294,160.14862 222.0094,162.80862 H 220.9594 Q 219.9969,160.25362 218.8594,158.10112 Z M 217.7744,152.22112 H 216.1994 V 157.27862 H 217.5994 Q 219.2094,157.27862 220.0669,156.70112 220.9244,156.10612 220.9244,154.67112 220.9244,153.23612 220.1544,152.72862 219.4019,152.22112 217.7744,152.22112 Z"
         id="path129" />
      <path
         d="M 226.8744,157.31362 Q 225.3169,156.92862 224.5819,156.21112 223.8644,155.47612 223.8644,154.09362 223.8644,152.71112 224.8094,151.94112 225.7719,151.17112 227.2769,151.17112 228.7819,151.17112 230.3394,151.71362 L 230.0944,152.60612 Q 228.6419,152.08112 227.4169,152.08112 226.2094,152.08112 225.5619,152.60612 224.9144,153.11362 224.9144,154.09362 224.9144,155.07362 225.4394,155.58112 225.9644,156.08862 227.5219,156.50862 229.0969,156.91112 229.7969,157.59362 230.4969,158.25862 230.4969,159.76362 230.4969,161.25112 229.4819,162.12612 228.4844,162.98362 226.8919,162.98362 225.7019,162.98362 223.8819,162.47612 L 224.1094,161.58362 Q 225.8944,162.07362 226.9794,162.07362 228.0644,162.07362 228.7644,161.47862 229.4644,160.86612 229.4644,159.78112 229.4644,158.69612 228.9569,158.18862 228.4494,157.68112 226.8744,157.31362 Z"
         id="path131" />
      <path
         d="M 232.5094,152.23862 V 151.34612 H 239.5444 V 152.23862 H 236.4994 V 162.80862 H 235.5369 V 152.23862 Z"
         id="path133" />
      <path
         d="M 241.3644,159.50112 V 151.34612 H 242.3269 V 159.37862 Q 242.3269,162.07362 244.7944,162.07362 246.0369,162.07362 246.6494,161.33862 247.2619,160.58612 247.2619,159.37862 V 151.34612 H 248.2244 V 159.50112 Q 248.2244,161.19862 247.3319,162.09112 246.4569,162.98362 244.7594,162.98362 243.0619,162.98362 242.2044,162.05612 241.3644,161.12862 241.3644,159.50112 Z"
         id="path135" />
      <path
         d="M 252.6869,162.80862 249.9219,151.34612 H 250.9369 L 253.4219,161.93362 H 253.7369 L 256.2219,151.34612 H 257.2019 L 254.4369,162.80862 Z"
         id="path137" />
      <path
         d="M 259.2319,162.80862 257.9544,151.34612 H 258.9519 L 260.1244,161.93362 H 260.3169 L 261.8569,156.40362 H 262.7844 L 264.2544,161.93362 H 264.4644 L 265.6369,151.34612 H 266.6344 L 265.3569,162.80862 H 263.5894 L 262.3294,157.87362 H 262.2769 L 260.9644,162.80862 Z"
         id="path139" />
      <path
         d="M 270.8519,157.78612 268.6294,162.80862 H 267.4394 L 270.2569,156.92862 267.5794,151.34612 H 268.8044 L 270.9394,156.07112 H 270.9744 L 273.0919,151.34612 H 274.2644 L 271.5694,156.92862 274.5444,162.80862 H 273.2844 L 270.8869,157.78612 Z"
         id="path141" />
      <path
         d="M 280.2494,157.85612 V 162.80862 H 279.3044 V 157.85612 L 275.9269,151.34612 H 277.0819 L 279.7594,156.85862 H 279.7944 L 282.4719,151.34612 H 283.6269 Z"
         id="path143" />
      <path
         d="M 285.3944,152.22112 V 151.34612 H 291.5719 L 291.6769,152.08112 286.5319,161.93362 H 291.9744 V 162.80862 H 285.5169 L 285.3944,162.10862 290.5394,152.22112 Z"
         id="path145" />
      <path
         d="M 66.451903,180.55362 Q 66.451903,176.26612 69.794403,176.26612 73.136903,176.26612 73.136903,180.55362 73.136903,184.84112 69.794403,184.84112 66.451903,184.84112 66.451903,180.55362 Z M 69.794403,177.17612 Q 67.449403,177.17612 67.449403,180.55362 67.449403,183.93112 69.794403,183.93112 72.139403,183.93112 72.139403,180.55362 72.139403,177.17612 69.794403,177.17612 Z"
         id="path147" />
      <path
         d="M 74.869403,178.83862 Q 74.869403,177.47362 75.044403,176.47612 75.219403,175.47862 75.604403,174.67362 76.391903,173.04612 78.544403,173.04612 80.994403,173.06362 81.764403,175.33862 82.219403,176.65112 82.219403,178.43612 82.219403,180.20362 82.044403,181.25362 81.869403,182.30362 81.484403,183.14362 80.679403,184.85862 78.544403,184.85862 76.444403,184.85862 75.621903,183.14362 74.869403,181.58612 74.869403,178.83862 Z M 81.186903,178.97862 Q 81.186903,178.03362 81.134403,177.45612 81.099403,176.87862 80.941903,176.17862 80.784403,175.47862 80.504403,175.02362 80.241903,174.56862 79.734403,174.27112 79.244403,173.95612 78.544403,173.95612 77.844403,173.95612 77.336903,174.27112 76.846903,174.56862 76.566903,175.02362 76.304403,175.47862 76.146903,176.17862 75.901903,177.26362 75.901903,178.59362 75.901903,179.90612 75.989403,180.72862 76.094403,181.53362 76.356903,182.32112 76.899403,183.94862 78.544403,183.94862 80.224403,183.94862 80.749403,182.30362 81.204403,180.90362 81.186903,178.97862 Z"
         id="path149" />
      <path
         d="M 83.934403,179.11862 Q 83.934403,176.03862 84.721903,174.72612 85.509403,173.41362 87.276903,173.41362 89.061903,173.41362 89.849403,174.72612 90.636903,176.03862 90.636903,179.11862 90.636903,182.18112 89.849403,183.51112 89.061903,184.84112 87.276903,184.84112 85.509403,184.84112 84.721903,183.51112 83.934403,182.18112 83.934403,179.11862 Z M 85.526903,182.81112 Q 86.016903,183.93112 87.276903,183.93112 88.536903,183.93112 89.026903,182.81112 89.516903,181.69112 89.516903,179.10112 89.516903,176.49362 89.044403,175.40862 88.571903,174.32362 87.294403,174.32362 86.016903,174.32362 85.526903,175.42612 85.054403,176.51112 85.054403,179.10112 85.054403,181.69112 85.526903,182.81112 Z"
         id="path151" />
      <path
         d="M 92.544403,181.77862 Q 92.544403,179.71362 94.399403,179.01362 92.771903,178.20862 92.771903,176.42362 92.771903,175.09362 93.629403,174.27112 94.504403,173.43112 96.079403,173.43112 97.671903,173.43112 98.529403,174.27112 99.386903,175.09362 99.386903,176.42362 99.386903,178.29612 97.741903,178.97862 99.631903,179.67862 99.631903,181.77862 99.631903,183.19612 98.704403,184.03612 97.794403,184.85862 96.079403,184.85862 94.364403,184.85862 93.454403,184.03612 92.544403,183.19612 92.544403,181.77862 Z M 96.096903,179.45112 Q 94.871903,179.45112 94.206903,180.06362 93.559403,180.67612 93.559403,181.74362 93.559403,182.81112 94.206903,183.38862 94.854403,183.96612 96.079403,183.96612 97.304403,183.96612 97.951903,183.38862 98.616903,182.79362 98.616903,181.74362 98.616903,180.67612 97.969403,180.06362 97.321903,179.45112 96.096903,179.45112 Z M 96.079403,174.32362 Q 94.906903,174.32362 94.329403,174.88362 93.769403,175.44362 93.769403,176.40612 93.769403,177.36862 94.329403,177.98112 94.906903,178.57612 96.079403,178.57612 97.269403,178.57612 97.829403,177.99862 98.389403,177.42112 98.389403,176.44112 98.389403,175.44362 97.811903,174.88362 97.251903,174.32362 96.079403,174.32362 Z"
         id="path153" />
      <path
         d="M 110.6219,184.68362 V 183.80862 H 113.1769 V 177.24612 H 110.6219 V 176.37112 H 114.1044 V 183.80862 H 116.6594 V 184.68362 Z M 112.8094,173.90362 Q 112.8094,173.55362 113.0019,173.36112 113.2119,173.16862 113.5619,173.16862 114.2794,173.16862 114.2794,173.93862 114.2794,174.70862 113.5619,174.69112 112.8094,174.69112 112.8094,173.90362 Z"
         id="path155" />
      <path
         d="M 119.8619,184.68362 V 183.80862 H 121.8394 V 174.09612 H 119.8619 V 173.22112 H 124.7444 V 174.09612 H 122.8019 V 183.80862 H 124.7444 V 184.68362 Z"
         id="path157" />
      <path
         d="M 128.3319,184.68362 V 183.80862 H 131.0094 V 173.90362 L 128.4019,173.92112 128.3844,173.06362 131.9369,173.04612 V 183.80862 H 134.7019 V 184.68362 Z"
         id="path159" />
      <path
         d="M 142.7519,183.79112 V 184.68362 H 137.0119 V 173.22112 H 137.9744 V 183.79112 Z"
         id="path161" />
      <path
         d="M 152.1144,184.68362 H 145.5519 V 183.79112 H 148.5444 V 174.69112 L 145.6569,176.02112 145.2544,175.09362 148.6494,173.57112 H 149.5769 V 183.79112 H 152.1144 Z"
         id="path163" />
      <path
         d="M 163.4894,179.43362 V 178.52362 L 165.0644,177.71862 Q 165.0644,176.24862 164.9769,174.65612 164.8894,173.06362 164.8894,172.53862 164.8894,170.80612 166.6044,170.80612 H 168.4944 V 171.68112 H 166.6919 Q 165.8869,171.68112 165.8869,172.64362 165.8869,173.22112 165.9744,175.02362 166.0619,176.82612 166.0619,178.27862 L 164.4869,178.90862 V 179.04862 L 166.0619,179.69612 Q 166.0619,180.99112 165.9744,182.91612 165.8869,184.82362 165.8869,185.57612 165.8869,186.53862 166.6919,186.53862 H 168.4944 V 187.41362 H 166.6044 Q 164.8894,187.41362 164.8894,185.68112 164.8894,184.98112 164.9769,183.26612 165.0644,181.55112 165.0644,180.25612 Z"
         id="path165" />
      <path
         d="M 172.0644,187.41362 V 186.53862 H 173.8669 Q 174.6719,186.53862 174.6719,185.57612 174.6719,184.82362 174.5844,182.91612 174.4969,180.99112 174.4969,179.69612 L 176.0719,179.04862 V 178.92612 L 174.4969,178.27862 Q 174.4969,176.82612 174.5844,175.02362 174.6719,173.22112 174.6719,172.64362 174.6719,171.68112 173.8669,171.68112 H 172.0644 V 170.80612 H 173.9544 Q 175.6694,170.80612 175.6694,172.53862 175.6694,173.06362 175.5819,174.65612 175.4944,176.24862 175.4944,177.71862 L 177.0694,178.54112 V 179.43362 L 175.4944,180.25612 Q 175.4944,181.55112 175.5819,183.26612 175.6694,184.98112 175.6694,185.68112 175.6694,187.41362 173.9544,187.41362 Z"
         id="path167" />
      <path
         d="M 190.9644,187.41362 V 170.80612 H 194.5694 V 171.68112 H 191.9619 V 186.53862 H 194.5694 V 187.41362 Z"
         id="path169" />
      <path
         d="M 198.7694,187.41362 V 186.53862 H 201.3769 V 171.68112 H 198.7694 V 170.80612 H 202.3744 V 187.41362 Z"
         id="path171" />
      <path
         d="M 218.3519,184.68362 Q 216.7769,184.68362 215.9369,183.59862 215.0969,182.51362 215.0969,180.53612 215.0969,178.54112 216.0244,177.40362 216.9694,176.26612 218.6494,176.26612 219.5769,176.26612 220.7319,176.87862 L 220.7669,176.37112 H 221.6594 V 182.67112 Q 221.9219,184.75362 221.9219,185.08612 221.9219,186.62612 220.8894,187.39612 219.8569,188.18362 218.4569,188.18362 217.0744,188.18362 215.3069,187.48362 L 215.6219,186.60862 Q 217.3544,187.27362 218.3869,187.27362 219.4369,187.27362 220.2069,186.73112 220.9944,186.18862 220.9944,185.10362 L 220.8369,183.72112 Q 219.4544,184.68362 218.3519,184.68362 Z M 218.6844,177.14112 Q 217.4419,177.14112 216.7419,178.06862 216.0419,178.97862 216.0419,180.51862 216.0419,182.04112 216.6544,182.93362 217.2669,183.80862 218.3694,183.80862 219.4719,183.80862 220.7319,182.75862 V 177.85862 Q 219.5944,177.14112 218.6844,177.14112 Z"
         id="path173" />
      <path
         d="M 227.4344,180.50112 Q 225.8069,180.50112 224.9144,179.60862 224.0219,178.69862 224.0219,177.07112 224.0219,175.42612 224.9669,174.42862 225.9119,173.43112 227.4869,173.43112 229.0794,173.43112 229.9719,174.39362 230.8644,175.35612 230.8644,177.07112 230.8644,179.43362 230.0419,181.18362 229.2194,182.93362 227.3644,184.98112 L 226.1919,184.78862 Q 227.8369,183.00362 228.5544,181.84862 229.2894,180.69362 229.6744,179.38112 228.5544,180.50112 227.4344,180.50112 Z M 225.0369,177.01862 Q 225.0369,179.59112 227.4344,179.59112 228.4669,179.59112 229.1494,178.87362 229.8494,178.15612 229.8494,177.07112 229.8494,174.34112 227.4519,174.34112 226.3144,174.34112 225.6669,175.07612 225.0369,175.81112 225.0369,177.01862 Z"
         id="path175" />
      <path
         d="M 239.1594,176.37112 V 188.00862 H 238.2319 V 183.94862 Q 236.9544,184.84112 235.8519,184.84112 234.2944,184.84112 233.4369,183.68612 232.5794,182.53112 232.5794,180.53612 232.5794,178.54112 233.5244,177.40362 234.4694,176.26612 236.1494,176.26612 237.0769,176.26612 238.2319,176.87862 L 238.2669,176.37112 Z M 233.5769,180.53612 Q 233.5769,182.07612 234.1719,183.00362 234.7844,183.93112 235.9044,183.93112 237.0419,183.93112 238.2319,182.93362 V 177.85862 Q 237.1469,177.17612 236.1844,177.17612 234.9419,177.17612 234.2594,178.08612 233.5769,178.97862 233.5769,180.53612 Z"
         id="path177" />
      <path
         d="M 247.8744,183.49362 248.1019,184.38612 Q 246.5619,184.84112 245.3369,184.84112 243.3244,184.84112 242.3444,183.45862 241.3819,182.05862 241.3819,178.96112 241.3819,175.86362 242.3269,174.46362 243.2719,173.04612 245.3544,173.04612 246.6319,173.04612 248.0144,173.58862 L 247.7344,174.46362 Q 246.4744,173.93862 245.3544,173.93862 243.7969,173.93862 243.0969,175.12862 242.4144,176.30112 242.4144,178.92612 242.4144,181.55112 243.1494,182.74112 243.8844,183.93112 245.3544,183.93112 246.3344,183.93112 247.8744,183.49362 Z"
         id="path179" />
      <path
         d="M 253.8244,184.85862 Q 251.7944,184.85862 250.8144,183.45862 249.8344,182.05862 249.8344,178.96112 249.8344,175.84612 250.7969,174.44612 251.7594,173.04612 253.9294,173.04612 255.3469,173.04612 256.9044,173.60612 L 256.6594,174.49862 Q 255.0669,173.95612 253.9294,173.95612 252.2844,173.95612 251.5669,175.12862 250.8669,176.28362 250.8669,178.92612 250.8669,181.55112 251.6019,182.75862 252.3369,183.94862 253.8244,183.94862 254.7169,183.94862 255.9769,183.52862 V 180.02862 H 253.9994 V 179.17112 H 256.9394 V 184.21112 Q 255.1369,184.85862 253.8244,184.85862 Z"
         id="path181" />
      <path
         d="M 258.6194,178.83862 Q 258.6194,177.47362 258.7944,176.47612 258.9694,175.47862 259.3544,174.67362 260.1419,173.04612 262.2944,173.04612 264.7444,173.06362 265.5144,175.33862 265.9694,176.65112 265.9694,178.80362 265.9694,181.77862 265.1644,183.24862 L 266.0219,184.22862 265.3219,184.85862 264.6219,184.00112 Q 263.7644,184.85862 262.2944,184.85862 260.1944,184.85862 259.3719,183.14362 258.6194,181.58612 258.6194,178.83862 Z M 259.7919,176.59862 Q 259.7044,177.19362 259.6694,177.68362 259.6519,178.17362 259.6519,179.04862 259.6519,179.90612 259.7394,180.72862 259.8444,181.53362 260.1069,182.33862 260.6494,183.96612 262.2944,183.96612 263.3444,183.96612 263.9744,183.23112 L 262.6794,181.69112 263.3444,181.07862 264.4644,182.40862 Q 264.9369,181.21862 264.9369,178.80362 264.9544,176.52862 264.5344,175.54862 264.0794,174.46362 263.3269,174.14862 262.8719,173.93862 262.2944,173.93862 261.7169,173.93862 261.2619,174.14862 260.8069,174.34112 260.5269,174.72612 260.2469,175.11112 260.0544,175.54862 259.8794,175.98612 259.7919,176.59862 Z"
         id="path183" />
      <path
         d="M 283.1019,179.15362 283.7144,179.67862 Q 283.0669,180.37862 282.5769,180.71112 282.1044,181.04362 281.5444,181.04362 280.9844,181.04362 280.3194,180.71112 279.6544,180.36112 279.0769,180.02862 278.4994,179.67862 278.0794,179.67862 277.5194,179.66112 276.5044,180.76362 L 275.8744,180.22112 Q 277.1519,178.85612 278.0794,178.85612 278.7794,178.85612 279.9344,179.53862 281.0894,180.22112 281.5794,180.22112 282.0694,180.22112 283.1019,179.15362 Z"
         id="path185" />
      <path
         d="M 286.0944,180.95612 V 180.01112 H 291.1169 V 180.95612 Z"
         id="path187" />
      <path
         d="M 294.2844,180.13362 V 179.32862 H 296.7694 V 176.80862 H 297.6444 V 179.32862 H 300.0769 V 180.13362 H 297.6444 V 182.67112 H 296.7694 V 180.13362 Z"
         id="path189" />
      <path
         d="M 303.5069,181.83112 V 181.06112 H 308.7394 V 181.83112 Z M 303.5069,178.89112 V 178.12112 H 308.7394 V 178.89112 Z"
         id="path191" />
      <path
         d="M 317.2444,179.57362 311.1894,175.89862 311.6619,175.18112 318.2944,179.29362 V 179.85362 L 311.6619,184.14112 311.2069,183.42362 Z"
         id="path193" />
    </g>
  </g>
</svg>
