<?xml version="1.0" encoding="UTF-8" standalone="no"?>
<svg
   version="1.1"
   id="svg2"
   viewBox="0 0 252.93382 105.53749"
   height="29.785025mm"
   width="71.383545mm"
   sodipodi:docname="Lekton Nerd Font.svg"
   inkscape:version="1.1.2 (0a00cf5339, 2022-02-04)"
   xmlns:inkscape="http://www.inkscape.org/namespaces/inkscape"
   xmlns:sodipodi="http://sodipodi.sourceforge.net/DTD/sodipodi-0.dtd"
   xmlns="http://www.w3.org/2000/svg"
   xmlns:svg="http://www.w3.org/2000/svg"
   xmlns:rdf="http://www.w3.org/1999/02/22-rdf-syntax-ns#"
   xmlns:cc="http://creativecommons.org/ns#"
   xmlns:dc="http://purl.org/dc/elements/1.1/">
  <sodipodi:namedview
     id="namedview12"
     pagecolor="#ffffff"
     bordercolor="#666666"
     borderopacity="1.0"
     inkscape:pageshadow="2"
     inkscape:pageopacity="0.0"
     inkscape:pagecheckerboard="0"
     inkscape:document-units="mm"
     showgrid="false"
     inkscape:zoom="0.64052329"
     inkscape:cx="327.07632"
     inkscape:cy="473.83133"
     inkscape:window-width="1458"
     inkscape:window-height="976"
     inkscape:window-x="0"
     inkscape:window-y="32"
     inkscape:window-maximized="0"
     inkscape:current-layer="svg2" />
  <defs
     id="defs4" />
  <metadata
     id="metadata7">
    <rdf:RDF>
      <cc:Work
         rdf:about="">
        <dc:format>image/svg+xml</dc:format>
        <dc:type
           rdf:resource="http://purl.org/dc/dcmitype/StillImage" />
      </cc:Work>
    </rdf:RDF>
  </metadata>
  <g
     id="layer1"
     transform="translate(-65.359643,-82.646132)">
    <g
       aria-label="Lekton Nerd Font"
       id="text4136"
       style="font-size:27.5px;line-height:125%;font-family:'Lekton Nerd Font';text-decoration:underline;text-decoration-line:underline;letter-spacing:0px;word-spacing:0px;fill:#ffffff;stroke-width:1px">
      <path
         d="M 74.379643,99.531132 V 100.93363 H 65.359643 V 82.921132 H 66.872143 V 99.531132 Z"
         id="path829" />
      <path
         d="M 78.449591,94.416132 Q 78.449591,91.253632 79.742091,89.493632 81.062091,87.706132 83.564591,87.706132 86.067091,87.706132 87.277091,89.356132 88.514591,91.006132 88.514591,93.756132 L 88.432091,95.131132 H 80.017091 Q 80.154591,97.193632 81.117091,98.486132 82.079591,99.751132 83.757091,99.751132 85.462091,99.751132 87.744591,98.953632 L 88.157091,100.32863 Q 85.929591,101.18113 83.977091,101.18113 81.282091,101.18113 79.852091,99.393632 78.449591,97.578632 78.449591,94.416132 Z M 83.674591,89.108632 Q 80.209591,89.108632 80.017091,93.756132 H 86.947091 Q 86.947091,89.108632 83.674591,89.108632 Z"
         id="path831" />
      <path
         d="M 93.024538,100.93363 V 82.646132 H 94.482038 V 93.783632 L 96.819538,93.508632 Q 98.524538,91.418632 100.14704,88.723632 L 100.66954,87.871132 H 102.31954 Q 100.17454,91.638632 98.139538,94.086132 100.06454,96.533632 101.93454,99.861132 L 102.53954,100.93363 H 100.83454 Q 98.964538,97.413632 96.984538,94.856132 L 94.482038,95.103632 V 100.93363 Z"
         id="path833" />
      <path
         d="M 105.64699,89.603632 V 88.228632 H 108.31449 V 84.901132 L 109.77199,84.626132 V 88.228632 H 116.06949 V 89.603632 H 109.77199 V 95.873632 Q 109.77199,97.963632 110.37699,98.898632 111.00949,99.806132 112.60449,99.806132 113.20949,99.806132 114.47449,99.613632 115.73949,99.393632 116.20699,99.228632 L 116.53699,100.57613 Q 116.01449,100.76863 114.61199,100.98863 113.23699,101.20863 112.60449,101.20863 110.12949,101.20863 109.22199,99.916132 108.31449,98.596132 108.31449,95.928632 V 89.603632 Z"
         id="path835" />
      <path
         d="M 119.47943,94.443632 Q 119.47943,87.706132 124.73193,87.706132 129.98443,87.706132 129.98443,94.443632 129.98443,101.18113 124.73193,101.18113 119.47943,101.18113 119.47943,94.443632 Z M 124.73193,89.136132 Q 121.04693,89.136132 121.04693,94.443632 121.04693,99.751132 124.73193,99.751132 128.41693,99.751132 128.41693,94.443632 128.41693,89.136132 124.73193,89.136132 Z"
         id="path837" />
      <path
         d="M 135.09938,87.871132 135.15438,88.971132 Q 137.82188,87.706132 139.58188,87.706132 141.34188,87.706132 142.33188,88.916132 143.34938,90.126132 143.34938,92.216132 V 100.93363 H 141.89188 V 92.216132 Q 141.89188,90.868632 141.23188,89.988632 140.57188,89.136132 139.25188,89.136132 137.93188,89.136132 135.15438,90.346132 V 100.93363 H 133.69688 V 87.871132 Z"
         id="path839" />
      <path
         d="M 169.94178,100.93363 V 98.101132 L 162.10428,85.781132 H 162.02178 V 100.93363 H 160.50928 V 82.921132 H 161.99428 L 169.85928,95.378632 H 169.94178 V 82.921132 H 171.45428 V 100.93363 Z"
         id="path841" />
      <path
         d="M 174.69922,94.416132 Q 174.69922,91.253632 175.99172,89.493632 177.31172,87.706132 179.81422,87.706132 182.31672,87.706132 183.52672,89.356132 184.76422,91.006132 184.76422,93.756132 L 184.68172,95.131132 H 176.26672 Q 176.40422,97.193632 177.36672,98.486132 178.32922,99.751132 180.00672,99.751132 181.71172,99.751132 183.99422,98.953632 L 184.40672,100.32863 Q 182.17922,101.18113 180.22672,101.18113 177.53172,101.18113 176.10172,99.393632 174.69922,97.578632 174.69922,94.416132 Z M 179.92422,89.108632 Q 176.45922,89.108632 176.26672,93.756132 H 183.19672 Q 183.19672,89.108632 179.92422,89.108632 Z"
         id="path843" />
      <path
         d="M 188.83417,100.93363 V 99.558632 H 191.96917 V 89.246132 H 188.83417 V 87.871132 H 193.42667 L 193.48167,89.466132 Q 194.36167,88.916132 195.95667,88.366132 197.55167,87.816132 198.76167,87.706132 H 199.06417 V 89.328632 H 198.76167 Q 197.63417,89.411132 195.95667,89.878632 194.30667,90.346132 193.48167,90.841132 V 99.558632 H 197.88167 V 100.93363 Z"
         id="path845" />
      <path
         d="M 212.12662,82.673632 V 98.651132 L 212.40162,101.04363 210.99912,101.20863 210.72412,99.751132 Q 208.66162,101.18113 206.92912,101.18113 204.48162,101.18113 203.10662,99.366132 201.75912,97.551132 201.75912,94.443632 201.75912,91.308632 203.27162,89.521132 204.78412,87.706132 207.39662,87.706132 208.93662,87.706132 210.66912,88.448632 V 82.673632 Z M 203.32662,94.388632 Q 203.32662,96.808632 204.26162,98.293632 205.22412,99.751132 207.01162,99.751132 208.79912,99.751132 210.66912,98.183632 V 89.933632 Q 210.09162,89.658632 209.07412,89.411132 208.08412,89.136132 207.45162,89.136132 205.49912,89.136132 204.39912,90.566132 203.32662,91.968632 203.32662,94.388632 Z"
         id="path847" />
      <path
         d="M 230.22152,100.93363 V 82.921132 H 239.62652 V 84.323632 H 231.73402 V 92.188632 H 238.49902 V 93.563632 H 231.73402 V 100.93363 Z"
         id="path849" />
      <path
         d="M 243.22896,94.443632 Q 243.22896,87.706132 248.48146,87.706132 253.73396,87.706132 253.73396,94.443632 253.73396,101.18113 248.48146,101.18113 243.22896,101.18113 243.22896,94.443632 Z M 248.48146,89.136132 Q 244.79646,89.136132 244.79646,94.443632 244.79646,99.751132 248.48146,99.751132 252.16646,99.751132 252.16646,94.443632 252.16646,89.136132 248.48146,89.136132 Z"
         id="path851" />
      <path
         d="M 258.84891,87.871132 258.90391,88.971132 Q 261.57141,87.706132 263.33141,87.706132 265.09141,87.706132 266.08141,88.916132 267.09891,90.126132 267.09891,92.216132 V 100.93363 H 265.64141 V 92.216132 Q 265.64141,90.868632 264.98141,89.988632 264.32141,89.136132 263.00141,89.136132 261.68141,89.136132 258.90391,90.346132 V 100.93363 H 257.44641 V 87.871132 Z"
         id="path853" />
      <path
         d="M 270.64635,89.603632 V 88.228632 H 273.31385 V 84.901132 L 274.77135,84.626132 V 88.228632 H 281.06885 V 89.603632 H 274.77135 V 95.873632 Q 274.77135,97.963632 275.37635,98.898632 276.00885,99.806132 277.60385,99.806132 278.20885,99.806132 279.47385,99.613632 280.73885,99.393632 281.20635,99.228632 L 281.53635,100.57613 Q 281.01385,100.76863 279.61135,100.98863 278.23635,101.20863 277.60385,101.20863 275.12885,101.20863 274.22135,99.916132 273.31385,98.596132 273.31385,95.928632 V 89.603632 Z"
         id="path855" />
    </g>
    <g
       aria-label="abcdefghijklmnopqrstuvwxyzABCDEFGHIJKLMNOPQRSTUVWXYZ oO08 iIlL1 {} [] g9qCGQ ~-+=&gt;"
       id="text4140"
       style="font-size:27.5px;line-height:125%;font-family:'Lekton Nerd Font';letter-spacing:0px;word-spacing:0px;fill:#ffffff;stroke-width:1px">
      <path
         d="M 69.234403,140.18112 Q 69.881903,140.18112 70.634403,139.77862 71.404403,139.35862 71.754403,139.00862 V 136.92612 Q 70.599403,136.83862 69.549403,136.83862 68.499403,136.83862 67.974403,137.29362 67.449403,137.73112 67.449403,138.48362 67.449403,140.18112 69.234403,140.18112 Z M 69.216903,141.09112 Q 67.939403,141.09112 67.204403,140.44362 66.469403,139.77862 66.469403,138.57112 66.469403,137.36362 67.274403,136.69862 68.079403,136.01612 69.409403,136.01612 70.739403,136.01612 71.754403,136.12112 71.754403,134.56362 71.369403,134.00362 70.984403,133.42612 69.811903,133.42612 68.639403,133.42612 67.046903,133.98612 L 66.784403,133.11112 Q 68.411903,132.51612 69.724403,132.51612 71.456903,132.51612 72.069403,133.28612 72.681903,134.05612 72.681903,135.98112 V 139.65612 L 72.821903,140.98612 71.929403,141.07362 71.754403,140.02362 Q 71.351903,140.37362 70.616903,140.74112 69.881903,141.09112 69.216903,141.09112 Z"
         style="font-size:17.5px"
         id="path858" />
      <path
         d="M 75.51687,140.93362 V 129.31362 H 76.44437 V 133.42612 Q 77.75687,132.51612 78.82437,132.51612 80.39937,132.51612 81.25687,133.60112 82.11437,134.66862 82.11437,136.66362 82.11437,138.65862 81.15187,139.88362 80.18937,141.09112 78.52687,141.09112 77.51187,141.09112 76.42687,140.58362 L 76.39187,140.93362 Z M 81.11687,136.68112 Q 81.11687,135.14112 80.50437,134.28362 79.90937,133.42612 78.77187,133.42612 77.63437,133.42612 76.44437,134.42362 V 139.67362 Q 76.81187,139.84862 77.44187,140.02362 78.08937,140.18112 78.49187,140.18112 79.71687,140.18112 80.41687,139.20112 81.11687,138.22112 81.11687,136.68112 Z"
         style="font-size:17.5px"
         id="path860" />
      <path
         d="M 90.059336,132.90112 89.849336,133.81112 Q 88.764336,133.42612 87.836836,133.42612 86.576836,133.42612 85.946836,134.31862 85.334336,135.19362 85.334336,136.76862 85.334336,138.34362 85.964336,139.27112 86.594336,140.18112 87.836836,140.18112 88.676836,140.18112 89.936836,139.72612 L 90.216836,140.60112 Q 88.939336,141.09112 87.854336,141.09112 86.139336,141.09112 85.229336,139.95362 84.319336,138.79862 84.319336,136.75112 84.319336,134.70362 85.211836,133.61862 86.104336,132.51612 87.836836,132.51612 88.939336,132.51612 90.059336,132.90112 Z"
         style="font-size:17.5px"
         id="path862" />
      <path
         d="M 99.159304,129.31362 V 139.48112 L 99.334304,141.00362 98.441804,141.10862 98.266804,140.18112 Q 96.954304,141.09112 95.851804,141.09112 94.294304,141.09112 93.419304,139.93612 92.561804,138.78112 92.561804,136.80362 92.561804,134.80862 93.524304,133.67112 94.486804,132.51612 96.149304,132.51612 97.129304,132.51612 98.231804,132.98862 V 129.31362 Z M 93.559304,136.76862 Q 93.559304,138.30862 94.154304,139.25362 94.766804,140.18112 95.904304,140.18112 97.041804,140.18112 98.231804,139.18362 V 133.93362 Q 97.864304,133.75862 97.216804,133.60112 96.586804,133.42612 96.184304,133.42612 94.941804,133.42612 94.241804,134.33612 93.559304,135.22862 93.559304,136.76862 Z"
         style="font-size:17.5px"
         id="path864" />
      <path
         d="M 101.59177,136.78612 Q 101.59177,134.77362 102.41427,133.65362 103.25427,132.51612 104.84677,132.51612 106.43927,132.51612 107.20927,133.56612 107.99677,134.61612 107.99677,136.36612 L 107.94427,137.24112 H 102.58927 Q 102.67677,138.55362 103.28927,139.37612 103.90177,140.18112 104.96927,140.18112 106.05427,140.18112 107.50677,139.67362 L 107.76927,140.54862 Q 106.35177,141.09112 105.10927,141.09112 103.39427,141.09112 102.48427,139.95362 101.59177,138.79862 101.59177,136.78612 Z M 104.91677,133.40862 Q 102.71177,133.40862 102.58927,136.36612 H 106.99927 Q 106.99927,133.40862 104.91677,133.40862 Z"
         style="font-size:17.5px"
         id="path866" />
      <path
         d="M 110.37674,140.93362 V 140.05862 H 112.31924 V 133.49612 H 110.44674 V 132.62112 H 112.31924 Q 112.31924,129.15612 114.89174,129.15612 115.73174,129.15612 117.09674,129.55862 L 116.88674,130.43362 Q 115.53924,130.04862 114.92674,130.04862 114.03424,130.04862 113.63174,130.67862 113.24674,131.29112 113.24674,132.62112 H 116.76424 V 133.49612 H 113.24674 V 140.05862 H 116.79924 V 140.93362 Z"
         style="font-size:17.5px"
         id="path868" />
      <path
         d="M 122.1017,140.93362 Q 120.5267,140.93362 119.6867,139.84862 118.8467,138.76362 118.8467,136.78612 118.8467,134.79112 119.7742,133.65362 120.7192,132.51612 122.3992,132.51612 123.3267,132.51612 124.4817,133.12862 L 124.5167,132.62112 H 125.4092 V 138.92112 Q 125.6717,141.00362 125.6717,141.33612 125.6717,142.87612 124.6392,143.64612 123.6067,144.43362 122.2067,144.43362 120.8242,144.43362 119.0567,143.73362 L 119.3717,142.85862 Q 121.1042,143.52362 122.1367,143.52362 123.1867,143.52362 123.9567,142.98112 124.7442,142.43862 124.7442,141.35362 L 124.5867,139.97112 Q 123.2042,140.93362 122.1017,140.93362 Z M 122.4342,133.39112 Q 121.1917,133.39112 120.4917,134.31862 119.7917,135.22862 119.7917,136.76862 119.7917,138.29112 120.4042,139.18362 121.0167,140.05862 122.1192,140.05862 123.2217,140.05862 124.4817,139.00862 V 134.10862 Q 123.3442,133.39112 122.4342,133.39112 Z"
         style="font-size:17.5px"
         id="path870" />
      <path
         d="M 128.96167,134.14362 V 140.93362 H 128.03417 V 129.31362 H 128.96167 V 133.25112 Q 130.60667,132.51612 131.67417,132.51612 134.17667,132.51612 134.17667,135.38612 V 140.93362 H 133.24917 V 135.38612 Q 133.24917,134.49362 132.86417,133.96862 132.47917,133.42612 131.53417,133.42612 130.58917,133.42612 128.96167,134.14362 Z"
         style="font-size:17.5px"
         id="path872" />
      <path
         d="M 136.87164,140.93362 V 140.05862 H 139.42664 V 133.49612 H 136.87164 V 132.62112 H 140.35414 V 140.05862 H 142.90914 V 140.93362 Z M 139.05914,130.15362 Q 139.05914,129.80362 139.25164,129.61112 139.46164,129.41862 139.81164,129.41862 140.52914,129.41862 140.52914,130.18862 140.52914,130.95862 139.81164,130.94112 139.05914,130.94112 139.05914,130.15362 Z"
         style="font-size:17.5px"
         id="path874" />
      <path
         d="M 145.77911,133.47862 V 132.62112 H 150.32911 V 141.10862 Q 150.32911,142.36862 149.62911,143.10362 149.10411,143.66362 147.56411,143.97862 147.00411,144.08362 146.04161,144.22362 L 145.93661,143.31362 Q 147.49411,143.08612 148.07161,142.87612 148.64911,142.68362 148.87661,142.47362 149.40161,141.96612 149.40161,141.10862 V 133.47862 Z M 148.92911,130.15362 Q 148.92911,129.40112 149.69911,129.40112 150.43411,129.40112 150.43411,130.18862 150.43411,130.95862 149.69911,130.95862 149.33161,130.95862 149.12161,130.74862 148.92911,130.52112 148.92911,130.15362 Z"
         style="font-size:17.5px"
         id="path876" />
      <path
         d="M 154.61657,140.93362 V 129.29612 H 155.54407 V 136.38362 L 157.03157,136.20862 Q 158.11657,134.87862 159.14907,133.16362 L 159.48157,132.62112 H 160.53157 Q 159.16657,135.01862 157.87157,136.57612 159.09657,138.13362 160.28657,140.25112 L 160.67157,140.93362 H 159.58657 Q 158.39657,138.69362 157.13657,137.06612 L 155.54407,137.22362 V 140.93362 Z"
         style="font-size:17.5px"
         id="path878" />
      <path
         d="M 163.33154,140.93362 V 140.05862 H 166.00904 V 130.15362 L 163.40154,130.17112 163.38404,129.31362 166.93654,129.29612 V 140.05862 H 169.70154 V 140.93362 Z"
         style="font-size:17.5px"
         id="path880" />
      <path
         d="M 171.90651,132.62112 171.95901,133.14612 Q 172.83401,132.51612 173.30651,132.51612 174.46151,132.51612 174.89901,133.26862 175.87901,132.51612 176.61401,132.51612 177.75151,132.51612 178.17151,133.21612 178.59151,133.91612 178.59151,135.36862 V 140.93362 H 177.66401 V 135.36862 Q 177.66401,134.37112 177.45401,133.89862 177.24401,133.40862 176.64901,133.40862 176.05401,133.40862 175.17901,133.96862 175.28401,134.56362 175.28401,135.36862 V 138.27362 H 174.35651 V 135.36862 Q 174.35651,134.37112 174.14651,133.89862 173.91901,133.40862 173.32401,133.40862 172.72901,133.40862 171.95901,133.96862 V 140.93362 H 171.03151 V 132.62112 Z"
         style="font-size:17.5px"
         id="path882" />
      <path
         d="M 181.39147,132.62112 181.42647,133.32112 Q 183.12397,132.51612 184.24397,132.51612 185.36397,132.51612 185.99397,133.28612 186.64147,134.05612 186.64147,135.38612 V 140.93362 H 185.71397 V 135.38612 Q 185.71397,134.52862 185.29397,133.96862 184.87397,133.42612 184.03397,133.42612 183.19397,133.42612 181.42647,134.19612 V 140.93362 H 180.49897 V 132.62112 Z"
         style="font-size:17.5px"
         id="path884" />
      <path
         d="M 188.95144,136.80362 Q 188.95144,132.51612 192.29394,132.51612 195.63644,132.51612 195.63644,136.80362 195.63644,141.09112 192.29394,141.09112 188.95144,141.09112 188.95144,136.80362 Z M 192.29394,133.42612 Q 189.94894,133.42612 189.94894,136.80362 189.94894,140.18112 192.29394,140.18112 194.63894,140.18112 194.63894,136.80362 194.63894,133.42612 192.29394,133.42612 Z"
         style="font-size:17.5px"
         id="path886" />
      <path
         d="M 198.0164,144.29362 V 134.12612 L 197.8589,132.60362 198.7339,132.49862 198.8914,133.44362 Q 200.1689,132.51612 201.3239,132.51612 202.8814,132.51612 203.7389,133.65362 204.5964,134.79112 204.5964,136.78612 204.5964,138.78112 203.6514,139.93612 202.7064,141.09112 201.0264,141.09112 200.0464,141.09112 198.9439,140.61862 V 144.29362 Z M 203.5989,136.82112 Q 203.5989,135.26362 203.0039,134.35362 202.4089,133.42612 201.2889,133.42612 200.1864,133.42612 198.9439,134.42362 V 139.67362 Q 199.3114,139.84862 199.9414,140.02362 200.5889,140.18112 200.9914,140.18112 202.2339,140.18112 202.9164,139.27112 203.5989,138.36112 203.5989,136.82112 Z"
         style="font-size:17.5px"
         id="path888" />
      <path
         d="M 212.90887,132.62112 V 144.25862 H 211.98137 V 140.19862 Q 210.70387,141.09112 209.60137,141.09112 208.04387,141.09112 207.18637,139.93612 206.32887,138.78112 206.32887,136.78612 206.32887,134.79112 207.27387,133.65362 208.21887,132.51612 209.89887,132.51612 210.82637,132.51612 211.98137,133.12862 L 212.01637,132.62112 Z M 207.32637,136.78612 Q 207.32637,138.32612 207.92137,139.25362 208.53387,140.18112 209.65387,140.18112 210.79137,140.18112 211.98137,139.18362 V 134.10862 Q 210.89637,133.42612 209.93387,133.42612 208.69137,133.42612 208.00887,134.33612 207.32637,135.22862 207.32637,136.78612 Z"
         style="font-size:17.5px"
         id="path890" />
      <path
         d="M 215.58634,140.93362 V 140.05862 H 217.58134 V 133.49612 H 215.58634 V 132.62112 H 218.50884 L 218.54384,133.63612 Q 219.10384,133.28612 220.11884,132.93612 221.13384,132.58612 221.90384,132.51612 H 222.09634 V 133.54862 H 221.90384 Q 221.18634,133.60112 220.11884,133.89862 219.06884,134.19612 218.54384,134.51112 V 140.05862 H 221.34384 V 140.93362 Z"
         style="font-size:17.5px"
         id="path892" />
      <path
         d="M 224.28381,140.53112 224.51131,139.62112 Q 226.24381,140.19862 227.18881,140.19862 228.13381,140.19862 228.64131,139.79612 229.16631,139.37612 229.16631,138.69362 229.16631,138.01112 228.74631,137.69612 228.34381,137.36362 227.04881,137.06612 225.75381,136.76862 225.10631,136.20862 224.45881,135.68362 224.45881,134.63362 224.45881,133.58362 225.24631,133.04112 226.05131,132.48112 227.31131,132.48112 228.57131,132.48112 230.04131,133.04112 L 229.79631,133.86362 Q 228.30881,133.37362 227.39881,133.37362 226.48881,133.37362 225.96381,133.68862 225.43881,134.03862 225.43881,134.63362 225.43881,135.22862 225.89381,135.56112 226.36631,135.89362 227.69631,136.22612 229.02631,136.55862 229.58631,137.08362 230.14631,137.59112 230.14631,138.69362 230.14631,139.79612 229.39381,140.44362 228.65881,141.09112 227.29381,141.09112 225.92881,141.09112 224.28381,140.53112 Z"
         style="font-size:17.5px"
         id="path894" />
      <path
         d="M 232.64876,133.72362 V 132.84862 H 234.34626 V 130.73112 L 235.27376,130.55612 V 132.84862 H 239.28126 V 133.72362 H 235.27376 V 137.71362 Q 235.27376,139.04362 235.65876,139.63862 236.06126,140.21612 237.07626,140.21612 237.46126,140.21612 238.26626,140.09362 239.07126,139.95362 239.36876,139.84862 L 239.57876,140.70612 Q 239.24626,140.82862 238.35376,140.96862 237.47876,141.10862 237.07626,141.10862 235.50126,141.10862 234.92376,140.28612 234.34626,139.44612 234.34626,137.74862 V 133.72362 Z"
         style="font-size:17.5px"
         id="path896" />
      <path
         d="M 246.96373,140.93362 246.92873,140.21612 Q 245.24873,141.09112 244.12873,141.09112 243.00873,141.09112 242.36123,140.32112 241.71373,139.55112 241.71373,138.22112 V 132.62112 H 242.64123 V 138.22112 Q 242.64123,139.07862 243.04373,139.63862 243.46373,140.18112 244.30373,140.18112 245.14373,140.18112 246.92873,139.30612 V 132.62112 H 247.85623 V 140.93362 Z"
         style="font-size:17.5px"
         id="path898" />
      <path
         d="M 250.0962,132.62112 H 251.1462 L 253.4387,140.09362 H 253.7537 L 255.9587,132.62112 H 257.0087 L 254.4712,140.93362 H 252.7212 Z"
         style="font-size:17.5px"
         id="path900" />
      <path
         d="M 265.14617,132.62112 H 266.05617 L 265.05867,140.93362 H 263.20367 L 262.31117,137.31112 H 262.24117 L 261.33117,140.93362 H 259.49367 L 258.53117,132.62112 H 259.44117 L 260.35117,140.09362 H 260.66617 L 261.83867,135.87612 H 262.74867 L 263.92117,140.09362 H 264.23617 Z"
         style="font-size:17.5px"
         id="path902" />
      <path
         d="M 267.71864,132.62112 H 268.92614 L 271.04364,136.05112 273.14364,132.62112 H 274.31614 L 271.69114,136.71612 274.47364,140.93362 H 273.28364 L 271.04364,137.38112 268.82114,140.93362 H 267.63114 L 270.44864,136.71612 Z"
         style="font-size:17.5px"
         id="path904" />
      <path
         d="M 276.38111,132.62112 H 277.43111 L 279.89861,139.69112 H 280.03861 L 282.24361,132.62112 H 283.29361 L 280.07361,142.35112 Q 279.61861,143.73362 279.11111,144.11862 278.62111,144.50362 277.09861,144.53862 V 143.64612 Q 278.07861,143.62862 278.41111,143.36612 278.74361,143.10362 279.02361,142.26362 L 279.42611,141.05612 Z"
         style="font-size:17.5px"
         id="path906" />
      <path
         d="M 285.69106,133.49612 V 132.62112 H 291.39606 L 291.48356,133.33862 286.77606,140.05862 H 291.53606 V 140.93362 H 285.67356 L 285.53356,140.21612 290.22356,133.49612 Z"
         style="font-size:17.5px"
         id="path908" />
      <path
         d="M 65.716903,162.80862 69.006903,151.34612 H 70.686903 L 73.854403,162.80862 H 72.821903 L 72.104403,160.16612 H 67.466903 L 66.731903,162.80862 Z M 71.876903,159.29112 69.986903,152.22112 H 69.689403 L 67.711903,159.29112 Z"
         style="font-size:17.5px"
         id="path910" />
      <path
         d="M 75.34187,162.80862 V 151.34612 H 78.03687 Q 79.96187,151.34612 80.88937,152.04612 81.83437,152.72862 81.83437,154.32112 81.83437,156.31612 79.89187,156.91112 81.04687,157.17362 81.58937,157.78612 82.14937,158.39862 82.14937,159.57112 82.14937,161.42612 81.09937,162.12612 80.04937,162.80862 77.87937,162.80862 Z M 81.13437,159.57112 Q 81.13437,157.43612 78.22937,157.43612 H 76.30437 V 161.95112 H 77.87937 Q 79.50687,161.95112 80.31187,161.44362 81.13437,160.91862 81.13437,159.57112 Z M 79.90937,152.51862 Q 79.15687,152.20362 78.03687,152.20362 H 76.30437 V 156.57862 H 78.17687 Q 79.27937,156.57862 80.04937,156.08862 80.81937,155.58112 80.83687,154.25112 80.85437,152.92112 79.90937,152.51862 Z"
         style="font-size:17.5px"
         id="path912" />
      <path
         d="M 90.374336,161.61862 90.601836,162.51112 Q 89.061836,162.96612 87.836836,162.96612 85.824336,162.96612 84.844336,161.58362 83.881836,160.18362 83.881836,157.08612 83.881836,153.98862 84.826836,152.58862 85.771836,151.17112 87.854336,151.17112 89.131836,151.17112 90.514336,151.71362 L 90.234336,152.58862 Q 88.974336,152.06362 87.854336,152.06362 86.296836,152.06362 85.596836,153.25362 84.914336,154.42612 84.914336,157.05112 84.914336,159.67612 85.649336,160.86612 86.384336,162.05612 87.854336,162.05612 88.834336,162.05612 90.374336,161.61862 Z"
         style="font-size:17.5px"
         id="path914" />
      <path
         d="M 92.719304,162.80862 V 151.34612 H 95.064304 Q 96.359304,151.34612 97.181804,151.60862 98.021804,151.85362 98.599304,152.50112 99.176804,153.14862 99.421804,154.26862 99.684304,155.37112 99.684304,157.08612 99.684304,158.78362 99.404304,159.92112 99.124304,161.04112 98.511804,161.67112 97.899304,162.30112 97.076804,162.56362 96.254304,162.80862 95.029304,162.80862 Z M 97.111804,161.54862 Q 97.864304,161.16362 98.249304,160.11362 98.651804,159.04612 98.651804,157.08612 98.651804,155.10862 98.266804,154.05862 97.881804,152.99112 97.146804,152.60612 96.411804,152.22112 95.064304,152.22112 H 93.681804 V 161.93362 H 95.029304 Q 96.376804,161.93362 97.111804,161.54862 Z"
         style="font-size:17.5px"
         id="path916" />
      <path
         d="M 101.85427,162.80862 V 151.34612 H 107.82177 V 152.20362 H 102.81677 V 156.54362 H 107.34927 V 157.40112 H 102.81677 V 161.95112 H 107.87427 V 162.80862 Z"
         style="font-size:17.5px"
         id="path918" />
      <path
         d="M 110.67424,162.80862 V 151.34612 H 116.65924 V 152.23862 H 111.63674 V 157.24362 H 115.94174 V 158.11862 H 111.63674 V 162.80862 Z"
         style="font-size:17.5px"
         id="path920" />
      <path
         d="M 122.5742,162.98362 Q 120.5442,162.98362 119.5642,161.58362 118.5842,160.18362 118.5842,157.08612 118.5842,153.97112 119.5467,152.57112 120.5092,151.17112 122.6792,151.17112 124.0967,151.17112 125.6542,151.73112 L 125.4092,152.62362 Q 123.8167,152.08112 122.6792,152.08112 121.0342,152.08112 120.3167,153.25362 119.6167,154.40862 119.6167,157.05112 119.6167,159.67612 120.3517,160.88362 121.0867,162.07362 122.5742,162.07362 123.4667,162.07362 124.7267,161.65362 V 158.15362 H 122.7492 V 157.29612 H 125.6892 V 162.33612 Q 123.8867,162.98362 122.5742,162.98362 Z"
         style="font-size:17.5px"
         id="path922" />
      <path
         d="M 127.61417,162.80862 V 151.34612 H 128.57667 V 156.66612 H 133.51167 V 151.34612 H 134.47417 V 162.80862 H 133.51167 V 157.55862 H 128.57667 V 162.80862 Z"
         style="font-size:17.5px"
         id="path924" />
      <path
         d="M 137.36164,162.80862 V 161.93362 H 139.33914 V 152.22112 H 137.36164 V 151.34612 H 142.24414 V 152.22112 H 140.30164 V 161.93362 H 142.24414 V 162.80862 Z"
         style="font-size:17.5px"
         id="path926" />
      <path
         d="M 145.83161,152.57112 V 151.69612 H 151.23911 V 159.69362 Q 151.23911,161.37362 150.10161,162.03862 148.98161,162.68612 146.14661,162.98362 L 146.02411,162.07362 Q 148.45661,161.81112 149.36661,161.35612 150.27661,160.88362 150.27661,159.69362 V 152.57112 Z"
         style="font-size:17.5px"
         id="path928" />
      <path
         d="M 154.16157,162.80862 V 151.34612 H 155.12407 V 156.75362 L 156.82157,156.57862 Q 158.30907,154.40862 159.39407,152.13362 L 159.76157,151.34612 H 160.82907 Q 159.32407,154.46112 157.69657,156.92862 159.11407,159.16862 160.47907,161.86362 L 160.96907,162.80862 H 159.84907 Q 158.41407,159.74612 156.90907,157.47112 L 155.12407,157.64612 V 162.80862 Z"
         style="font-size:17.5px"
         id="path930" />
      <path
         d="M 169.00154,161.91612 V 162.80862 H 163.26154 V 151.34612 H 164.22404 V 161.91612 Z"
         style="font-size:17.5px"
         id="path932" />
      <path
         d="M 171.25901,162.80862 V 151.34612 H 172.18651 L 174.65401,157.76862 H 174.91651 L 177.38401,151.34612 H 178.31151 V 162.80862 H 177.36651 V 153.91862 H 177.29651 L 175.45901,158.66112 H 174.11151 L 172.27401,153.90112 H 172.20401 V 162.80862 Z"
         style="font-size:17.5px"
         id="path934" />
      <path
         d="M 186.06397,162.80862 V 161.00612 L 181.07647,153.16612 H 181.02397 V 162.80862 H 180.06147 V 151.34612 H 181.00647 L 186.01147,159.27362 H 186.06397 V 151.34612 H 187.02647 V 162.80862 Z"
         style="font-size:17.5px"
         id="path936" />
      <path
         d="M 188.61894,156.96362 Q 188.61894,155.59862 188.79394,154.60112 188.96894,153.60362 189.35394,152.79862 190.14144,151.17112 192.29394,151.17112 194.74394,151.18862 195.51394,153.46362 195.96894,154.77612 195.96894,156.56112 195.96894,158.32862 195.79394,159.37862 195.61894,160.42862 195.23394,161.26862 194.42894,162.98362 192.29394,162.98362 190.19394,162.98362 189.37144,161.26862 188.61894,159.71112 188.61894,156.96362 Z M 194.93644,157.10362 Q 194.93644,156.15862 194.88394,155.58112 194.84894,155.00362 194.69144,154.30362 194.53394,153.60362 194.25394,153.14862 193.99144,152.69362 193.48394,152.39612 192.99394,152.08112 192.29394,152.08112 191.59394,152.08112 191.08644,152.39612 190.59644,152.69362 190.31644,153.14862 190.05394,153.60362 189.89644,154.30362 189.65144,155.38862 189.65144,156.71862 189.65144,158.03112 189.73894,158.85362 189.84394,159.65862 190.10644,160.44612 190.64894,162.07362 192.29394,162.07362 193.97394,162.07362 194.49894,160.42862 194.95394,159.02862 194.93644,157.10362 Z"
         style="font-size:17.5px"
         id="path938" />
      <path
         d="M 200.4489,158.60862 H 198.8389 V 162.80862 H 197.8764 V 151.34612 H 200.4489 Q 202.5489,151.34612 203.5464,152.15112 204.5614,152.93862 204.5614,154.89862 204.5614,156.85862 203.5464,157.73362 202.5314,158.60862 200.4489,158.60862 Z M 200.4489,152.22112 H 198.8389 V 157.73362 H 200.4489 Q 202.0589,157.73362 202.7939,157.08612 203.5464,156.43862 203.5464,154.91612 203.5464,153.39362 202.8114,152.81612 202.0764,152.22112 200.4489,152.22112 Z"
         style="font-size:17.5px"
         id="path940" />
      <path
         d="M 206.11887,156.96362 Q 206.11887,155.59862 206.29387,154.60112 206.46887,153.60362 206.85387,152.79862 207.64137,151.17112 209.79387,151.17112 212.24387,151.18862 213.01387,153.46362 213.46887,154.77612 213.46887,156.92862 213.46887,159.90362 212.66387,161.37362 L 213.52137,162.35362 212.82137,162.98362 212.12137,162.12612 Q 211.26387,162.98362 209.79387,162.98362 207.69387,162.98362 206.87137,161.26862 206.11887,159.71112 206.11887,156.96362 Z M 207.29137,154.72362 Q 207.20387,155.31862 207.16887,155.80862 207.15137,156.29862 207.15137,157.17362 207.15137,158.03112 207.23887,158.85362 207.34387,159.65862 207.60637,160.46362 208.14887,162.09112 209.79387,162.09112 210.84387,162.09112 211.47387,161.35612 L 210.17887,159.81612 210.84387,159.20362 211.96387,160.53362 Q 212.43637,159.34362 212.43637,156.92862 212.45387,154.65362 212.03387,153.67362 211.57887,152.58862 210.82637,152.27362 210.37137,152.06362 209.79387,152.06362 209.21637,152.06362 208.76137,152.27362 208.30637,152.46612 208.02637,152.85112 207.74637,153.23612 207.55387,153.67362 207.37887,154.11112 207.29137,154.72362 Z"
         style="font-size:17.5px"
         id="path942" />
      <path
         d="M 218.85884,158.10112 Q 217.91384,158.15362 217.63384,158.15362 H 216.19884 V 162.80862 H 215.23634 V 151.34612 H 217.80884 Q 219.94384,151.34612 220.94134,152.08112 221.93884,152.81612 221.93884,154.67112 221.93884,155.91362 221.43134,156.66612 220.94134,157.41862 219.83884,157.89112 221.02884,160.14862 222.00884,162.80862 H 220.95884 Q 219.99634,160.25362 218.85884,158.10112 Z M 217.77384,152.22112 H 216.19884 V 157.27862 H 217.59884 Q 219.20884,157.27862 220.06634,156.70112 220.92384,156.10612 220.92384,154.67112 220.92384,153.23612 220.15384,152.72862 219.40134,152.22112 217.77384,152.22112 Z"
         style="font-size:17.5px"
         id="path944" />
      <path
         d="M 226.87381,157.31362 Q 225.31631,156.92862 224.58131,156.21112 223.86381,155.47612 223.86381,154.09362 223.86381,152.71112 224.80881,151.94112 225.77131,151.17112 227.27631,151.17112 228.78131,151.17112 230.33881,151.71362 L 230.09381,152.60612 Q 228.64131,152.08112 227.41631,152.08112 226.20881,152.08112 225.56131,152.60612 224.91381,153.11362 224.91381,154.09362 224.91381,155.07362 225.43881,155.58112 225.96381,156.08862 227.52131,156.50862 229.09631,156.91112 229.79631,157.59362 230.49631,158.25862 230.49631,159.76362 230.49631,161.25112 229.48131,162.12612 228.48381,162.98362 226.89131,162.98362 225.70131,162.98362 223.88131,162.47612 L 224.10881,161.58362 Q 225.89381,162.07362 226.97881,162.07362 228.06381,162.07362 228.76381,161.47862 229.46381,160.86612 229.46381,159.78112 229.46381,158.69612 228.95631,158.18862 228.44881,157.68112 226.87381,157.31362 Z"
         style="font-size:17.5px"
         id="path946" />
      <path
         d="M 232.50876,152.23862 V 151.34612 H 239.54376 V 152.23862 H 236.49876 V 162.80862 H 235.53626 V 152.23862 Z"
         style="font-size:17.5px"
         id="path948" />
      <path
         d="M 241.36373,159.50112 V 151.34612 H 242.32623 V 159.37862 Q 242.32623,162.07362 244.79373,162.07362 246.03623,162.07362 246.64873,161.33862 247.26123,160.58612 247.26123,159.37862 V 151.34612 H 248.22373 V 159.50112 Q 248.22373,161.19862 247.33123,162.09112 246.45623,162.98362 244.75873,162.98362 243.06123,162.98362 242.20373,162.05612 241.36373,161.12862 241.36373,159.50112 Z"
         style="font-size:17.5px"
         id="path950" />
      <path
         d="M 252.6862,162.80862 249.9212,151.34612 H 250.9362 L 253.4212,161.93362 H 253.7362 L 256.2212,151.34612 H 257.2012 L 254.4362,162.80862 Z"
         style="font-size:17.5px"
         id="path952" />
      <path
         d="M 259.23117,162.80862 257.95367,151.34612 H 258.95117 L 260.12367,161.93362 H 260.31617 L 261.85617,156.40362 H 262.78367 L 264.25367,161.93362 H 264.46367 L 265.63617,151.34612 H 266.63367 L 265.35617,162.80862 H 263.58867 L 262.32867,157.87362 H 262.27617 L 260.96367,162.80862 Z"
         style="font-size:17.5px"
         id="path954" />
      <path
         d="M 270.85114,157.78612 268.62864,162.80862 H 267.43864 L 270.25614,156.92862 267.57864,151.34612 H 268.80364 L 270.93864,156.07112 H 270.97364 L 273.09114,151.34612 H 274.26364 L 271.56864,156.92862 274.54364,162.80862 H 273.28364 L 270.88614,157.78612 Z"
         style="font-size:17.5px"
         id="path956" />
      <path
         d="M 280.24861,157.85612 V 162.80862 H 279.30361 V 157.85612 L 275.92611,151.34612 H 277.08111 L 279.75861,156.85862 H 279.79361 L 282.47111,151.34612 H 283.62611 Z"
         style="font-size:17.5px"
         id="path958" />
      <path
         d="M 285.39356,152.22112 V 151.34612 H 291.57106 L 291.67606,152.08112 286.53106,161.93362 H 291.97356 V 162.80862 H 285.51606 L 285.39356,162.10862 290.53856,152.22112 Z"
         style="font-size:17.5px"
         id="path960" />
      <path
         d="M 66.451903,180.55362 Q 66.451903,176.26612 69.794403,176.26612 73.136903,176.26612 73.136903,180.55362 73.136903,184.84112 69.794403,184.84112 66.451903,184.84112 66.451903,180.55362 Z M 69.794403,177.17612 Q 67.449403,177.17612 67.449403,180.55362 67.449403,183.93112 69.794403,183.93112 72.139403,183.93112 72.139403,180.55362 72.139403,177.17612 69.794403,177.17612 Z"
         style="font-size:17.5px"
         id="path962" />
      <path
         d="M 74.86937,178.83862 Q 74.86937,177.47362 75.04437,176.47612 75.21937,175.47862 75.60437,174.67362 76.39187,173.04612 78.54437,173.04612 80.99437,173.06362 81.76437,175.33862 82.21937,176.65112 82.21937,178.43612 82.21937,180.20362 82.04437,181.25362 81.86937,182.30362 81.48437,183.14362 80.67937,184.85862 78.54437,184.85862 76.44437,184.85862 75.62187,183.14362 74.86937,181.58612 74.86937,178.83862 Z M 81.18687,178.97862 Q 81.18687,178.03362 81.13437,177.45612 81.09937,176.87862 80.94187,176.17862 80.78437,175.47862 80.50437,175.02362 80.24187,174.56862 79.73437,174.27112 79.24437,173.95612 78.54437,173.95612 77.84437,173.95612 77.33687,174.27112 76.84687,174.56862 76.56687,175.02362 76.30437,175.47862 76.14687,176.17862 75.90187,177.26362 75.90187,178.59362 75.90187,179.90612 75.98937,180.72862 76.09437,181.53362 76.35687,182.32112 76.89937,183.94862 78.54437,183.94862 80.22437,183.94862 80.74937,182.30362 81.20437,180.90362 81.18687,178.97862 Z"
         style="font-size:17.5px"
         id="path964" />
      <path
         d="M 83.934336,179.11862 Q 83.934336,176.03862 84.721836,174.72612 85.509336,173.41362 87.276836,173.41362 89.061836,173.41362 89.849336,174.72612 90.636836,176.03862 90.636836,179.11862 90.636836,182.18112 89.849336,183.51112 89.061836,184.84112 87.276836,184.84112 85.509336,184.84112 84.721836,183.51112 83.934336,182.18112 83.934336,179.11862 Z M 85.526836,182.81112 Q 86.016836,183.93112 87.276836,183.93112 88.536836,183.93112 89.026836,182.81112 89.516836,181.69112 89.516836,179.10112 89.516836,176.49362 89.044336,175.40862 88.571836,174.32362 87.294336,174.32362 86.016836,174.32362 85.526836,175.42612 85.054336,176.51112 85.054336,179.10112 85.054336,181.69112 85.526836,182.81112 Z"
         style="font-size:17.5px"
         id="path966" />
      <path
         d="M 92.544304,181.77862 Q 92.544304,179.71362 94.399304,179.01362 92.771804,178.20862 92.771804,176.42362 92.771804,175.09362 93.629304,174.27112 94.504304,173.43112 96.079304,173.43112 97.671804,173.43112 98.529304,174.27112 99.386804,175.09362 99.386804,176.42362 99.386804,178.29612 97.741804,178.97862 99.631804,179.67862 99.631804,181.77862 99.631804,183.19612 98.704304,184.03612 97.794304,184.85862 96.079304,184.85862 94.364304,184.85862 93.454304,184.03612 92.544304,183.19612 92.544304,181.77862 Z M 96.096804,179.45112 Q 94.871804,179.45112 94.206804,180.06362 93.559304,180.67612 93.559304,181.74362 93.559304,182.81112 94.206804,183.38862 94.854304,183.96612 96.079304,183.96612 97.304304,183.96612 97.951804,183.38862 98.616804,182.79362 98.616804,181.74362 98.616804,180.67612 97.969304,180.06362 97.321804,179.45112 96.096804,179.45112 Z M 96.079304,174.32362 Q 94.906804,174.32362 94.329304,174.88362 93.769304,175.44362 93.769304,176.40612 93.769304,177.36862 94.329304,177.98112 94.906804,178.57612 96.079304,178.57612 97.269304,178.57612 97.829304,177.99862 98.389304,177.42112 98.389304,176.44112 98.389304,175.44362 97.811804,174.88362 97.251804,174.32362 96.079304,174.32362 Z"
         style="font-size:17.5px"
         id="path968" />
      <path
         d="M 110.62174,184.68362 V 183.80862 H 113.17674 V 177.24612 H 110.62174 V 176.37112 H 114.10424 V 183.80862 H 116.65924 V 184.68362 Z M 112.80924,173.90362 Q 112.80924,173.55362 113.00174,173.36112 113.21174,173.16862 113.56174,173.16862 114.27924,173.16862 114.27924,173.93862 114.27924,174.70862 113.56174,174.69112 112.80924,174.69112 112.80924,173.90362 Z"
         style="font-size:17.5px"
         id="path970" />
      <path
         d="M 119.8617,184.68362 V 183.80862 H 121.8392 V 174.09612 H 119.8617 V 173.22112 H 124.7442 V 174.09612 H 122.8017 V 183.80862 H 124.7442 V 184.68362 Z"
         style="font-size:17.5px"
         id="path972" />
      <path
         d="M 128.33167,184.68362 V 183.80862 H 131.00917 V 173.90362 L 128.40167,173.92112 128.38417,173.06362 131.93667,173.04612 V 183.80862 H 134.70167 V 184.68362 Z"
         style="font-size:17.5px"
         id="path974" />
      <path
         d="M 142.75164,183.79112 V 184.68362 H 137.01164 V 173.22112 H 137.97414 V 183.79112 Z"
         style="font-size:17.5px"
         id="path976" />
      <path
         d="M 152.11411,184.68362 H 145.55161 V 183.79112 H 148.54411 V 174.69112 L 145.65661,176.02112 145.25411,175.09362 148.64911,173.57112 H 149.57661 V 183.79112 H 152.11411 Z"
         style="font-size:17.5px"
         id="path978" />
      <path
         d="M 163.48904,179.43362 V 178.52362 L 165.06404,177.71862 Q 165.06404,176.24862 164.97654,174.65612 164.88904,173.06362 164.88904,172.53862 164.88904,170.80612 166.60404,170.80612 H 168.49404 V 171.68112 H 166.69154 Q 165.88654,171.68112 165.88654,172.64362 165.88654,173.22112 165.97404,175.02362 166.06154,176.82612 166.06154,178.27862 L 164.48654,178.90862 V 179.04862 L 166.06154,179.69612 Q 166.06154,180.99112 165.97404,182.91612 165.88654,184.82362 165.88654,185.57612 165.88654,186.53862 166.69154,186.53862 H 168.49404 V 187.41362 H 166.60404 Q 164.88904,187.41362 164.88904,185.68112 164.88904,184.98112 164.97654,183.26612 165.06404,181.55112 165.06404,180.25612 Z"
         style="font-size:17.5px"
         id="path980" />
      <path
         d="M 172.06401,187.41362 V 186.53862 H 173.86651 Q 174.67151,186.53862 174.67151,185.57612 174.67151,184.82362 174.58401,182.91612 174.49651,180.99112 174.49651,179.69612 L 176.07151,179.04862 V 178.92612 L 174.49651,178.27862 Q 174.49651,176.82612 174.58401,175.02362 174.67151,173.22112 174.67151,172.64362 174.67151,171.68112 173.86651,171.68112 H 172.06401 V 170.80612 H 173.95401 Q 175.66901,170.80612 175.66901,172.53862 175.66901,173.06362 175.58151,174.65612 175.49401,176.24862 175.49401,177.71862 L 177.06901,178.54112 V 179.43362 L 175.49401,180.25612 Q 175.49401,181.55112 175.58151,183.26612 175.66901,184.98112 175.66901,185.68112 175.66901,187.41362 173.95401,187.41362 Z"
         style="font-size:17.5px"
         id="path982" />
      <path
         d="M 190.96394,187.41362 V 170.80612 H 194.56894 V 171.68112 H 191.96144 V 186.53862 H 194.56894 V 187.41362 Z"
         style="font-size:17.5px"
         id="path984" />
      <path
         d="M 198.7689,187.41362 V 186.53862 H 201.3764 V 171.68112 H 198.7689 V 170.80612 H 202.3739 V 187.41362 Z"
         style="font-size:17.5px"
         id="path986" />
      <path
         d="M 218.35134,184.68362 Q 216.77634,184.68362 215.93634,183.59862 215.09634,182.51362 215.09634,180.53612 215.09634,178.54112 216.02384,177.40362 216.96884,176.26612 218.64884,176.26612 219.57634,176.26612 220.73134,176.87862 L 220.76634,176.37112 H 221.65884 V 182.67112 Q 221.92134,184.75362 221.92134,185.08612 221.92134,186.62612 220.88884,187.39612 219.85634,188.18362 218.45634,188.18362 217.07384,188.18362 215.30634,187.48362 L 215.62134,186.60862 Q 217.35384,187.27362 218.38634,187.27362 219.43634,187.27362 220.20634,186.73112 220.99384,186.18862 220.99384,185.10362 L 220.83634,183.72112 Q 219.45384,184.68362 218.35134,184.68362 Z M 218.68384,177.14112 Q 217.44134,177.14112 216.74134,178.06862 216.04134,178.97862 216.04134,180.51862 216.04134,182.04112 216.65384,182.93362 217.26634,183.80862 218.36884,183.80862 219.47134,183.80862 220.73134,182.75862 V 177.85862 Q 219.59384,177.14112 218.68384,177.14112 Z"
         style="font-size:17.5px"
         id="path988" />
      <path
         d="M 227.43381,180.50112 Q 225.80631,180.50112 224.91381,179.60862 224.02131,178.69862 224.02131,177.07112 224.02131,175.42612 224.96631,174.42862 225.91131,173.43112 227.48631,173.43112 229.07881,173.43112 229.97131,174.39362 230.86381,175.35612 230.86381,177.07112 230.86381,179.43362 230.04131,181.18362 229.21881,182.93362 227.36381,184.98112 L 226.19131,184.78862 Q 227.83631,183.00362 228.55381,181.84862 229.28881,180.69362 229.67381,179.38112 228.55381,180.50112 227.43381,180.50112 Z M 225.03631,177.01862 Q 225.03631,179.59112 227.43381,179.59112 228.46631,179.59112 229.14881,178.87362 229.84881,178.15612 229.84881,177.07112 229.84881,174.34112 227.45131,174.34112 226.31381,174.34112 225.66631,175.07612 225.03631,175.81112 225.03631,177.01862 Z"
         style="font-size:17.5px"
         id="path990" />
      <path
         d="M 239.15876,176.37112 V 188.00862 H 238.23126 V 183.94862 Q 236.95376,184.84112 235.85126,184.84112 234.29376,184.84112 233.43626,183.68612 232.57876,182.53112 232.57876,180.53612 232.57876,178.54112 233.52376,177.40362 234.46876,176.26612 236.14876,176.26612 237.07626,176.26612 238.23126,176.87862 L 238.26626,176.37112 Z M 233.57626,180.53612 Q 233.57626,182.07612 234.17126,183.00362 234.78376,183.93112 235.90376,183.93112 237.04126,183.93112 238.23126,182.93362 V 177.85862 Q 237.14626,177.17612 236.18376,177.17612 234.94126,177.17612 234.25876,178.08612 233.57626,178.97862 233.57626,180.53612 Z"
         style="font-size:17.5px"
         id="path992" />
      <path
         d="M 247.87373,183.49362 248.10123,184.38612 Q 246.56123,184.84112 245.33623,184.84112 243.32373,184.84112 242.34373,183.45862 241.38123,182.05862 241.38123,178.96112 241.38123,175.86362 242.32623,174.46362 243.27123,173.04612 245.35373,173.04612 246.63123,173.04612 248.01373,173.58862 L 247.73373,174.46362 Q 246.47373,173.93862 245.35373,173.93862 243.79623,173.93862 243.09623,175.12862 242.41373,176.30112 242.41373,178.92612 242.41373,181.55112 243.14873,182.74112 243.88373,183.93112 245.35373,183.93112 246.33373,183.93112 247.87373,183.49362 Z"
         style="font-size:17.5px"
         id="path994" />
      <path
         d="M 253.8237,184.85862 Q 251.7937,184.85862 250.8137,183.45862 249.8337,182.05862 249.8337,178.96112 249.8337,175.84612 250.7962,174.44612 251.7587,173.04612 253.9287,173.04612 255.3462,173.04612 256.9037,173.60612 L 256.6587,174.49862 Q 255.0662,173.95612 253.9287,173.95612 252.2837,173.95612 251.5662,175.12862 250.8662,176.28362 250.8662,178.92612 250.8662,181.55112 251.6012,182.75862 252.3362,183.94862 253.8237,183.94862 254.7162,183.94862 255.9762,183.52862 V 180.02862 H 253.9987 V 179.17112 H 256.9387 V 184.21112 Q 255.1362,184.85862 253.8237,184.85862 Z"
         style="font-size:17.5px"
         id="path996" />
      <path
         d="M 258.61867,178.83862 Q 258.61867,177.47362 258.79367,176.47612 258.96867,175.47862 259.35367,174.67362 260.14117,173.04612 262.29367,173.04612 264.74367,173.06362 265.51367,175.33862 265.96867,176.65112 265.96867,178.80362 265.96867,181.77862 265.16367,183.24862 L 266.02117,184.22862 265.32117,184.85862 264.62117,184.00112 Q 263.76367,184.85862 262.29367,184.85862 260.19367,184.85862 259.37117,183.14362 258.61867,181.58612 258.61867,178.83862 Z M 259.79117,176.59862 Q 259.70367,177.19362 259.66867,177.68362 259.65117,178.17362 259.65117,179.04862 259.65117,179.90612 259.73867,180.72862 259.84367,181.53362 260.10617,182.33862 260.64867,183.96612 262.29367,183.96612 263.34367,183.96612 263.97367,183.23112 L 262.67867,181.69112 263.34367,181.07862 264.46367,182.40862 Q 264.93617,181.21862 264.93617,178.80362 264.95367,176.52862 264.53367,175.54862 264.07867,174.46362 263.32617,174.14862 262.87117,173.93862 262.29367,173.93862 261.71617,173.93862 261.26117,174.14862 260.80617,174.34112 260.52617,174.72612 260.24617,175.11112 260.05367,175.54862 259.87867,175.98612 259.79117,176.59862 Z"
         style="font-size:17.5px"
         id="path998" />
      <path
         d="M 283.10111,179.15362 283.71361,179.67862 Q 283.06611,180.37862 282.57611,180.71112 282.10361,181.04362 281.54361,181.04362 280.98361,181.04362 280.31861,180.71112 279.65361,180.36112 279.07611,180.02862 278.49861,179.67862 278.07861,179.67862 277.51861,179.66112 276.50361,180.76362 L 275.87361,180.22112 Q 277.15111,178.85612 278.07861,178.85612 278.77861,178.85612 279.93361,179.53862 281.08861,180.22112 281.57861,180.22112 282.06861,180.22112 283.10111,179.15362 Z"
         style="font-size:17.5px"
         id="path1000" />
      <path
         d="M 286.09356,180.95612 V 180.01112 H 291.11606 V 180.95612 Z"
         style="font-size:17.5px"
         id="path1002" />
      <path
         d="M 294.28353,180.13362 V 179.32862 H 296.76853 V 176.80862 H 297.64353 V 179.32862 H 300.07603 V 180.13362 H 297.64353 V 182.67112 H 296.76853 V 180.13362 Z"
         style="font-size:17.5px"
         id="path1004" />
      <path
         d="M 303.506,181.83112 V 181.06112 H 308.7385 V 181.83112 Z M 303.506,178.89112 V 178.12112 H 308.7385 V 178.89112 Z"
         style="font-size:17.5px"
         id="path1006" />
      <path
         d="M 317.24347,179.57362 311.18847,175.89862 311.66097,175.18112 318.29347,179.29362 V 179.85362 L 311.66097,184.14112 311.20597,183.42362 Z"
         style="font-size:17.5px"
         id="path1008" />
    </g>
  </g>
</svg>
