<?xml version="1.0" encoding="UTF-8" standalone="no"?>
<svg
   version="1.1"
   id="svg2"
   viewBox="0 0 302.47018 108.02999"
   height="30.488462mm"
   width="85.363808mm"
   sodipodi:docname="Lilex Nerd Font.svg"
   xmlns:inkscape="http://www.inkscape.org/namespaces/inkscape"
   xmlns:sodipodi="http://sodipodi.sourceforge.net/DTD/sodipodi-0.dtd"
   xmlns="http://www.w3.org/2000/svg"
   xmlns:svg="http://www.w3.org/2000/svg"
   xmlns:rdf="http://www.w3.org/1999/02/22-rdf-syntax-ns#"
   xmlns:cc="http://creativecommons.org/ns#"
   xmlns:dc="http://purl.org/dc/elements/1.1/">
  <sodipodi:namedview
     id="namedview12"
     pagecolor="#ffffff"
     bordercolor="#666666"
     borderopacity="1.0"
     inkscape:showpageshadow="2"
     inkscape:pageopacity="0.0"
     inkscape:pagecheckerboard="0"
     inkscape:deskcolor="#d1d1d1"
     inkscape:document-units="mm" />
  <defs
     id="defs4" />
  <metadata
     id="metadata7">
    <rdf:RDF>
      <cc:Work
         rdf:about="">
        <dc:format>image/svg+xml</dc:format>
        <dc:type
           rdf:resource="http://purl.org/dc/dcmitype/StillImage" />
        <dc:title />
      </cc:Work>
    </rdf:RDF>
  </metadata>
  <g
     id="layer1"
     transform="translate(-65.961903,-80.363632)">
    <g
       aria-label="Lilex Nerd Font"
       id="text4136"
       style="font-size:27.5px;font-family:'Lilex Nerd Font';letter-spacing:0px;word-spacing:0px;fill:#ffffff">
      <path
         d="M 66.157143,100.93363 V 81.738632 H 68.467143 V 98.926132 H 77.569643 V 100.93363 Z"
         id="path14" />
      <path
         d="M 88.487155,83.608632 Q 87.552155,83.608632 87.139655,83.223632 86.754655,82.811132 86.754655,82.206132 V 81.766132 Q 86.754655,81.161132 87.139655,80.776132 87.552155,80.363632 88.487155,80.363632 89.449655,80.363632 89.834655,80.776132 90.219655,81.161132 90.219655,81.766132 V 82.206132 Q 90.219655,82.811132 89.834655,83.223632 89.449655,83.608632 88.487155,83.608632 Z M 82.272155,99.063632 H 87.387155 V 88.613632 H 82.272155 V 86.743632 H 89.587155 V 99.063632 H 94.372155 V 100.93363 H 82.272155 Z"
         id="path16" />
      <path
         d="M 98.057166,99.063632 H 103.00717 V 82.453632 H 98.057166 V 80.583632 H 105.20717 V 99.063632 H 110.15717 V 100.93363 H 98.057166 Z"
         id="path18" />
      <path
         d="M 120.85468,101.26363 Q 118.81968,101.26363 117.30718,100.35613 115.82218,99.421132 114.99718,97.771132 114.19968,96.093632 114.19968,93.866132 114.19968,91.583632 115.02468,89.933632 115.84968,88.256132 117.30718,87.348632 118.79218,86.413632 120.71718,86.413632 122.64218,86.413632 124.04468,87.321132 125.44718,88.201132 126.21718,89.768632 127.01468,91.336132 127.01468,93.343632 V 94.388632 H 116.50968 V 95.048632 Q 116.50968,96.918632 117.66468,98.156132 118.84718,99.366132 120.85468,99.366132 122.28468,99.366132 123.32968,98.706132 124.37468,98.046132 124.92468,96.891132 L 126.54718,97.991132 Q 125.91468,99.421132 124.42968,100.35613 122.97218,101.26363 120.85468,101.26363 Z M 120.71718,88.228632 Q 119.50718,88.228632 118.54468,88.806132 117.60968,89.356132 117.05968,90.346132 116.50968,91.308632 116.50968,92.546132 V 92.738632 H 124.64968 V 92.436132 Q 124.64968,90.566132 123.54968,89.411132 122.47718,88.228632 120.71718,88.228632 Z"
         id="path20" />
      <path
         d="M 130.53469,100.93363 135.81469,93.728632 130.67219,86.743632 H 133.31219 L 135.45719,89.741132 137.16219,92.106132 H 137.27219 L 138.92219,89.741132 141.03969,86.743632 H 143.56969 L 138.37219,93.701132 143.70719,100.93363 H 141.06719 L 138.67469,97.606132 137.05219,95.351132 H 136.94219 L 135.37469,97.606132 133.06469,100.93363 Z"
         id="path22" />
      <path
         d="M 166.33971,84.763632 H 166.14721 V 100.93363 H 164.05721 V 81.738632 H 167.32971 L 173.87471,97.908632 H 174.06721 V 81.738632 H 176.15721 V 100.93363 H 172.88471 Z"
         id="path24" />
      <path
         d="M 186.85472,101.26363 Q 184.81972,101.26363 183.30722,100.35613 181.82222,99.421132 180.99722,97.771132 180.19972,96.093632 180.19972,93.866132 180.19972,91.583632 181.02472,89.933632 181.84972,88.256132 183.30722,87.348632 184.79222,86.413632 186.71722,86.413632 188.64222,86.413632 190.04472,87.321132 191.44722,88.201132 192.21722,89.768632 193.01472,91.336132 193.01472,93.343632 V 94.388632 H 182.50972 V 95.048632 Q 182.50972,96.918632 183.66472,98.156132 184.84722,99.366132 186.85472,99.366132 188.28472,99.366132 189.32972,98.706132 190.37472,98.046132 190.92472,96.891132 L 192.54722,97.991132 Q 191.91472,99.421132 190.42972,100.35613 188.97222,101.26363 186.85472,101.26363 Z M 186.71722,88.228632 Q 185.50722,88.228632 184.54472,88.806132 183.60972,89.356132 183.05972,90.346132 182.50972,91.308632 182.50972,92.546132 V 92.738632 H 190.64972 V 92.436132 Q 190.64972,90.566132 189.54972,89.411132 188.47722,88.228632 186.71722,88.228632 Z"
         id="path26" />
      <path
         d="M 196.97473,99.063632 H 201.12723 V 88.613632 H 196.97473 V 86.743632 H 203.32723 V 90.318632 H 203.46473 Q 203.73973,89.383632 204.28973,88.586132 204.83973,87.761132 205.80223,87.266132 206.76473,86.743632 208.24973,86.743632 H 210.22973 V 88.943632 H 207.56223 Q 205.47223,88.943632 204.39973,90.126132 203.32723,91.281132 203.32723,92.931132 V 99.063632 H 207.75473 V 100.93363 H 196.97473 Z"
         id="path28" />
      <path
         d="M 223.04475,98.623632 H 222.93475 Q 221.55975,101.26363 218.56225,101.26363 215.97725,101.26363 214.49225,99.311132 213.00725,97.331132 213.00725,93.838632 213.00725,90.346132 214.49225,88.393632 215.97725,86.413632 218.56225,86.413632 221.55975,86.413632 222.93475,89.053632 H 223.04475 V 80.583632 H 225.24475 V 100.93363 H 223.04475 Z M 219.41475,99.311132 Q 220.87225,99.311132 221.94475,98.568632 223.04475,97.826132 223.04475,96.396132 V 91.281132 Q 223.04475,89.851132 221.94475,89.108632 220.87225,88.366132 219.41475,88.366132 217.48975,88.366132 216.41725,89.548632 215.37225,90.703632 215.37225,92.628632 V 95.048632 Q 215.37225,96.973632 216.41725,98.156132 217.48975,99.311132 219.41475,99.311132 Z"
         id="path30" />
      <path
         d="M 246.83227,100.93363 V 81.738632 H 258.93227 V 83.746132 H 249.14227 V 90.208632 H 258.10727 V 92.216132 H 249.14227 V 100.93363 Z"
         id="path32" />
      <path
         d="M 269.10728,101.26363 Q 267.12728,101.26363 265.66978,100.35613 264.23978,99.421132 263.44228,97.771132 262.67228,96.093632 262.67228,93.838632 262.67228,91.583632 263.44228,89.933632 264.23978,88.256132 265.66978,87.348632 267.12728,86.413632 269.10728,86.413632 271.11478,86.413632 272.54478,87.348632 273.97478,88.256132 274.74478,89.933632 275.54228,91.583632 275.54228,93.838632 275.54228,96.093632 274.74478,97.771132 273.97478,99.421132 272.54478,100.35613 271.11478,101.26363 269.10728,101.26363 Z M 269.10728,99.366132 Q 270.94978,99.366132 272.07728,98.266132 273.20478,97.138632 273.20478,94.856132 V 92.821132 Q 273.20478,90.538632 272.07728,89.438632 270.94978,88.311132 269.10728,88.311132 267.26478,88.311132 266.13728,89.438632 265.00978,90.538632 265.00978,92.821132 V 94.856132 Q 265.00978,97.138632 266.13728,98.266132 267.26478,99.366132 269.10728,99.366132 Z"
         id="path34" />
      <path
         d="M 280.0523,100.93363 V 86.743632 H 282.2523 V 89.053632 H 282.3623 Q 282.8298,88.008632 283.7373,87.211132 284.6448,86.413632 286.4048,86.413632 288.6323,86.413632 289.9798,87.843632 291.3273,89.246132 291.3273,91.831132 V 100.93363 H 289.1273 V 92.216132 Q 289.1273,90.263632 288.2473,89.328632 287.3948,88.366132 285.7723,88.366132 284.8923,88.366132 284.0673,88.668632 283.2698,88.943632 282.7473,89.548632 282.2523,90.153632 282.2523,91.088632 V 100.93363 Z"
         id="path36" />
      <path
         d="M 302.7948,100.93363 Q 301.1998,100.93363 300.4298,100.02613 299.6598,99.118632 299.6598,97.688632 V 88.613632 H 294.9298 V 86.743632 H 298.4498 Q 299.1648,86.743632 299.4398,86.468632 299.7423,86.166132 299.7423,85.451132 V 81.738632 H 301.8598 V 86.743632 H 308.3223 V 88.613632 H 301.8598 V 99.063632 H 308.3223 V 100.93363 Z"
         id="path38" />
    </g>
    <g
       aria-label="abcdefghijklmnopqrstuvwxyzABCDEFGHIJKLMNOPQRSTUVWXYZ oO08 iIlL1 {} [] g9qCGQ ~-+=&gt;"
       id="text4140"
       style="font-size:17.5px;font-family:'Lilex Nerd Font';letter-spacing:0px;word-spacing:0px;fill:#ffffff">
      <path
         d="M 74.081903,140.93362 Q 73.294403,140.93362 72.996903,140.58362 72.699403,140.21612 72.506903,139.60362 L 72.471903,139.49862 H 72.384403 Q 72.104403,140.25112 71.439403,140.70612 70.774403,141.14362 69.671903,141.14362 68.254403,141.14362 67.414403,140.40862 66.574403,139.65612 66.574403,138.39612 66.574403,137.15362 67.501903,136.47112 68.429403,135.77112 70.459403,135.77112 H 72.384403 V 134.87862 Q 72.384403,133.89862 71.824403,133.39112 71.264403,132.88362 70.231903,132.88362 69.321903,132.88362 68.744403,133.25112 68.166903,133.60112 67.816903,134.21362 L 66.871903,133.51362 Q 67.221903,132.79612 68.079403,132.25362 68.936903,131.69362 70.319403,131.69362 71.911903,131.69362 72.839403,132.49862 73.784403,133.30362 73.784403,134.73862 V 139.74362 H 75.044403 V 140.93362 Z M 69.916903,139.95362 Q 71.001903,139.95362 71.684403,139.49862 72.384403,139.02612 72.384403,138.32612 V 136.82112 H 70.459403 Q 69.216903,136.82112 68.621903,137.18862 68.044403,137.53862 68.044403,138.20362 V 138.57112 Q 68.044403,139.27112 68.551903,139.62112 69.059403,139.95362 69.916903,139.95362 Z"
         id="path41" />
      <path
         d="M 77.58191,127.98362 H 78.98191 V 133.37362 H 79.05191 Q 79.92691,131.69362 81.83441,131.69362 83.49691,131.69362 84.42441,132.95362 85.36941,134.19612 85.36941,136.41862 85.36941,138.64112 84.42441,139.90112 83.49691,141.14362 81.83441,141.14362 79.92691,141.14362 79.05191,139.46362 H 78.98191 V 140.93362 H 77.58191 Z M 81.29191,139.90112 Q 82.51691,139.90112 83.18191,139.16612 83.86441,138.41362 83.86441,137.18862 V 135.64862 Q 83.86441,134.42362 83.18191,133.68862 82.51691,132.93612 81.29191,132.93612 80.36441,132.93612 79.66441,133.40862 78.98191,133.88112 78.98191,134.79112 V 138.04612 Q 78.98191,138.95612 79.66441,139.42862 80.36441,139.90112 81.29191,139.90112 Z"
         id="path43" />
      <path
         d="M 91.984416,141.14362 Q 90.689416,141.14362 89.761916,140.56612 88.851916,139.97112 88.361916,138.90362 87.889416,137.83612 87.889416,136.41862 87.889416,134.98362 88.379416,133.93362 88.869416,132.86612 89.779416,132.28862 90.689416,131.69362 91.966916,131.69362 93.279416,131.69362 94.101916,132.27112 94.924416,132.84862 95.309416,133.77612 L 94.189416,134.37112 Q 93.944416,133.67112 93.366916,133.28612 92.806916,132.90112 91.966916,132.90112 90.741916,132.90112 90.059416,133.68862 89.394416,134.45862 89.394416,135.64862 V 137.18862 Q 89.394416,138.37862 90.059416,139.16612 90.724416,139.93612 92.001916,139.93612 92.911916,139.93612 93.506916,139.51612 94.119416,139.09612 94.451916,138.36112 L 95.449416,139.04362 Q 95.064416,139.95362 94.189416,140.54862 93.331916,141.14362 91.984416,141.14362 Z"
         id="path45" />
      <path
         d="M 104.35692,139.46362 H 104.28692 Q 103.41192,141.14362 101.50442,141.14362 99.859422,141.14362 98.914422,139.90112 97.969422,138.64112 97.969422,136.41862 97.969422,134.19612 98.914422,132.95362 99.859422,131.69362 101.50442,131.69362 103.41192,131.69362 104.28692,133.37362 H 104.35692 V 127.98362 H 105.75692 V 140.93362 H 104.35692 Z M 102.04692,139.90112 Q 102.97442,139.90112 103.65692,139.42862 104.35692,138.95612 104.35692,138.04612 V 134.79112 Q 104.35692,133.88112 103.65692,133.40862 102.97442,132.93612 102.04692,132.93612 100.82192,132.93612 100.13942,133.68862 99.474422,134.42362 99.474422,135.64862 V 137.18862 Q 99.474422,138.41362 100.13942,139.16612 100.82192,139.90112 102.04692,139.90112 Z"
         id="path47" />
      <path
         d="M 112.82693,141.14362 Q 111.53193,141.14362 110.56943,140.56612 109.62443,139.97112 109.09943,138.92112 108.59193,137.85362 108.59193,136.43612 108.59193,134.98362 109.11693,133.93362 109.64193,132.86612 110.56943,132.28862 111.51443,131.69362 112.73943,131.69362 113.96443,131.69362 114.85693,132.27112 115.74943,132.83112 116.23943,133.82862 116.74693,134.82612 116.74693,136.10362 V 136.76862 H 110.06193 V 137.18862 Q 110.06193,138.37862 110.79693,139.16612 111.54943,139.93612 112.82693,139.93612 113.73693,139.93612 114.40193,139.51612 115.06693,139.09612 115.41693,138.36112 L 116.44943,139.06112 Q 116.04693,139.97112 115.10193,140.56612 114.17443,141.14362 112.82693,141.14362 Z M 112.73943,132.84862 Q 111.96943,132.84862 111.35693,133.21612 110.76193,133.56612 110.41193,134.19612 110.06193,134.80862 110.06193,135.59612 V 135.71862 H 115.24193 V 135.52612 Q 115.24193,134.33612 114.54193,133.60112 113.85943,132.84862 112.73943,132.84862 Z"
         id="path49" />
      <path
         d="M 119.37194,139.74362 H 122.41694 V 133.09362 H 119.19694 V 131.90362 H 122.41694 V 130.04862 Q 122.41694,129.13862 122.90694,128.56112 123.39694,127.98362 124.41194,127.98362 H 127.43944 V 129.17362 H 123.81694 V 131.90362 H 127.43944 V 133.09362 H 123.81694 V 139.74362 H 127.03694 V 140.93362 H 119.37194 Z"
         id="path51" />
      <path
         d="M 138.23694,141.96612 Q 138.23694,144.64362 133.68694,144.64362 131.51694,144.64362 130.55444,144.04862 129.59194,143.47112 129.59194,142.40362 129.59194,141.68612 129.97694,141.26612 130.36194,140.84612 131.06194,140.67112 V 140.46112 Q 130.67694,140.26862 130.46694,139.97112 130.25694,139.67362 130.25694,139.21862 130.25694,138.51862 130.71194,138.16862 131.18444,137.81862 131.88444,137.64362 V 137.57362 Q 131.06194,137.20612 130.58944,136.48862 130.11694,135.77112 130.11694,134.80862 130.11694,133.88112 130.55444,133.18112 130.99194,132.48112 131.77944,132.09612 132.56694,131.69362 133.61694,131.69362 134.64944,131.69362 135.40194,132.06112 V 131.90362 Q 135.40194,131.37862 135.64694,131.02862 135.89194,130.67862 136.48694,130.67862 H 138.14944 V 131.90362 H 136.11944 V 132.51612 Q 137.13444,133.39112 137.13444,134.80862 137.13444,135.71862 136.69694,136.43612 136.25944,137.13612 135.47194,137.53862 134.68444,137.92362 133.61694,137.92362 133.38944,137.92362 133.17944,137.90612 132.96944,137.88862 132.75944,137.85362 132.49694,137.90612 132.18194,138.02862 131.88444,138.15112 131.67444,138.36112 131.46444,138.57112 131.46444,138.88612 131.46444,139.28862 131.86694,139.42862 132.26944,139.55112 132.91694,139.55112 H 134.91194 Q 136.66194,139.55112 137.44944,140.21612 138.23694,140.86362 138.23694,141.96612 Z M 133.61694,136.83862 Q 134.66694,136.83862 135.15694,136.34862 135.66444,135.85862 135.66444,135.05362 V 134.54612 Q 135.66444,133.74112 135.15694,133.26862 134.66694,132.77862 133.61694,132.77862 132.58444,132.77862 132.07694,133.26862 131.58694,133.74112 131.58694,134.54612 V 135.05362 Q 131.58694,135.85862 132.07694,136.34862 132.58444,136.83862 133.61694,136.83862 Z M 136.92444,142.03612 Q 136.92444,141.49362 136.48694,141.16112 136.04944,140.84612 134.96444,140.84612 H 131.83194 Q 130.92194,141.21362 130.92194,142.07112 130.92194,142.66612 131.39444,143.08612 131.86694,143.52362 132.96944,143.52362 H 134.33444 Q 135.55944,143.52362 136.24194,143.13862 136.92444,142.77112 136.92444,142.03612 Z"
         id="path53" />
      <path
         d="M 140.63445,127.98362 H 142.03445 V 133.37362 H 142.10445 Q 142.40195,132.70862 142.97945,132.20112 143.55695,131.69362 144.67695,131.69362 146.09445,131.69362 146.95195,132.60362 147.80945,133.49612 147.80945,135.14112 V 140.93362 H 146.40945 V 135.38612 Q 146.40945,134.14362 145.84945,133.54862 145.30695,132.93612 144.27445,132.93612 143.71445,132.93612 143.18945,133.12862 142.68195,133.30362 142.34945,133.68862 142.03445,134.07362 142.03445,134.66862 V 140.93362 H 140.63445 Z"
         id="path55" />
      <path
         d="M 155.22946,129.90862 Q 154.63446,129.90862 154.37196,129.66362 154.12696,129.40112 154.12696,129.01612 V 128.73612 Q 154.12696,128.35112 154.37196,128.10612 154.63446,127.84362 155.22946,127.84362 155.84196,127.84362 156.08696,128.10612 156.33196,128.35112 156.33196,128.73612 V 129.01612 Q 156.33196,129.40112 156.08696,129.66362 155.84196,129.90862 155.22946,129.90862 Z M 151.27446,139.74362 H 154.52946 V 133.09362 H 151.27446 V 131.90362 H 155.92946 V 139.74362 H 158.97446 V 140.93362 H 151.27446 Z"
         id="path57" />
      <path
         d="M 166.77946,129.90862 Q 166.18446,129.90862 165.92196,129.66362 165.67696,129.40112 165.67696,129.01612 V 128.73612 Q 165.67696,128.35112 165.92196,128.10612 166.18446,127.84362 166.77946,127.84362 167.39196,127.84362 167.63696,128.10612 167.88196,128.35112 167.88196,128.73612 V 129.01612 Q 167.88196,129.40112 167.63696,129.66362 167.39196,129.90862 166.77946,129.90862 Z M 161.70446,143.24362 H 166.07946 V 133.09362 H 161.54696 V 131.90362 H 167.47946 V 142.36862 Q 167.47946,143.27862 166.98946,143.85612 166.51696,144.43362 165.48446,144.43362 H 161.70446 Z"
         id="path59" />
      <path
         d="M 172.25697,127.98362 H 173.65697 V 136.15612 H 173.72697 L 175.30197,134.66862 178.31197,131.90362 H 180.02697 L 176.28197,135.43862 180.46447,140.93362 H 178.73197 L 175.21447,136.24362 173.65697,137.66112 V 140.93362 H 172.25697 Z"
         id="path61" />
      <path
         d="M 182.31948,139.74362 H 185.46948 V 129.17362 H 182.31948 V 127.98362 H 186.86948 V 139.74362 H 190.01948 V 140.93362 H 182.31948 Z"
         id="path63" />
      <path
         d="M 192.36448,140.93362 V 131.90362 H 193.65948 V 132.95362 H 193.72948 Q 193.93948,132.42862 194.32448,132.06112 194.70948,131.69362 195.46198,131.69362 196.23198,131.69362 196.63448,132.09612 197.03698,132.48112 197.10698,133.11112 H 197.15948 Q 197.40448,132.49862 197.85948,132.09612 198.31448,131.69362 199.11948,131.69362 200.22198,131.69362 200.58948,132.46362 200.97448,133.23362 200.97448,134.66862 V 140.93362 H 199.67948 V 134.89612 Q 199.67948,133.74112 199.43448,133.30362 199.20698,132.84862 198.57698,132.84862 198.03448,132.84862 197.66698,133.21612 197.31698,133.58362 197.31698,134.30112 V 140.93362 H 196.02198 V 134.89612 Q 196.02198,133.74112 195.77698,133.30362 195.54948,132.84862 194.93698,132.84862 194.37698,132.84862 194.00948,133.21612 193.65948,133.58362 193.65948,134.30112 V 140.93362 Z"
         id="path65" />
      <path
         d="M 203.63449,140.93362 V 131.90362 H 205.03449 V 133.37362 H 205.10449 Q 205.40199,132.70862 205.97949,132.20112 206.55699,131.69362 207.67699,131.69362 209.09449,131.69362 209.95199,132.60362 210.80949,133.49612 210.80949,135.14112 V 140.93362 H 209.40949 V 135.38612 Q 209.40949,134.14362 208.84949,133.54862 208.30699,132.93612 207.27449,132.93612 206.71449,132.93612 206.18949,133.12862 205.68199,133.30362 205.34949,133.68862 205.03449,134.07362 205.03449,134.66862 V 140.93362 Z"
         id="path67" />
      <path
         d="M 217.66949,141.14362 Q 216.40949,141.14362 215.48199,140.56612 214.57199,139.97112 214.06449,138.92112 213.57449,137.85362 213.57449,136.41862 213.57449,134.98362 214.06449,133.93362 214.57199,132.86612 215.48199,132.28862 216.40949,131.69362 217.66949,131.69362 218.94699,131.69362 219.85699,132.28862 220.76699,132.86612 221.25699,133.93362 221.76449,134.98362 221.76449,136.41862 221.76449,137.85362 221.25699,138.92112 220.76699,139.97112 219.85699,140.56612 218.94699,141.14362 217.66949,141.14362 Z M 217.66949,139.93612 Q 218.84199,139.93612 219.55949,139.23612 220.27699,138.51862 220.27699,137.06612 V 135.77112 Q 220.27699,134.31862 219.55949,133.61862 218.84199,132.90112 217.66949,132.90112 216.49699,132.90112 215.77949,133.61862 215.06199,134.31862 215.06199,135.77112 V 137.06612 Q 215.06199,138.51862 215.77949,139.23612 216.49699,139.93612 217.66949,139.93612 Z"
         id="path69" />
      <path
         d="M 224.58201,131.90362 H 225.98201 V 133.37362 H 226.05201 Q 226.92701,131.69362 228.83451,131.69362 230.49701,131.69362 231.42451,132.95362 232.36951,134.19612 232.36951,136.41862 232.36951,138.64112 231.42451,139.90112 230.49701,141.14362 228.83451,141.14362 226.92701,141.14362 226.05201,139.46362 H 225.98201 V 144.43362 H 224.58201 Z M 228.29201,139.90112 Q 229.51701,139.90112 230.18201,139.16612 230.86451,138.41362 230.86451,137.18862 V 135.64862 Q 230.86451,134.42362 230.18201,133.68862 229.51701,132.93612 228.29201,132.93612 227.36451,132.93612 226.66451,133.40862 225.98201,133.88112 225.98201,134.79112 V 138.04612 Q 225.98201,138.95612 226.66451,139.42862 227.36451,139.90112 228.29201,139.90112 Z"
         id="path71" />
      <path
         d="M 240.85701,139.46362 H 240.78701 Q 239.91201,141.14362 238.00451,141.14362 236.35951,141.14362 235.41451,139.90112 234.46951,138.64112 234.46951,136.41862 234.46951,134.19612 235.41451,132.95362 236.35951,131.69362 238.00451,131.69362 239.91201,131.69362 240.78701,133.37362 H 240.85701 V 131.90362 H 242.25701 V 144.43362 H 240.85701 Z M 238.54701,139.90112 Q 239.47451,139.90112 240.15701,139.42862 240.85701,138.95612 240.85701,138.04612 V 134.79112 Q 240.85701,133.88112 240.15701,133.40862 239.47451,132.93612 238.54701,132.93612 237.32201,132.93612 236.63951,133.68862 235.97451,134.42362 235.97451,135.64862 V 137.18862 Q 235.97451,138.41362 236.63951,139.16612 237.32201,139.90112 238.54701,139.90112 Z"
         id="path73" />
      <path
         d="M 245.26701,139.74362 H 247.90951 V 133.09362 H 245.26701 V 131.90362 H 249.30951 V 134.17862 H 249.39701 Q 249.57201,133.58362 249.92201,133.07612 250.27201,132.55112 250.88451,132.23612 251.49701,131.90362 252.44201,131.90362 H 253.70201 V 133.30362 H 252.00451 Q 250.67451,133.30362 249.99201,134.05612 249.30951,134.79112 249.30951,135.84112 V 139.74362 H 252.12701 V 140.93362 H 245.26701 Z"
         id="path75" />
      <path
         d="M 259.77453,141.14362 Q 258.35703,141.14362 257.32453,140.67112 256.30953,140.18112 255.59203,139.37612 L 256.53703,138.55362 Q 257.18453,139.23612 257.95453,139.60362 258.74203,139.97112 259.80953,139.97112 260.85953,139.97112 261.52453,139.60362 262.20703,139.21862 262.20703,138.41362 262.20703,137.69612 261.71703,137.45112 261.22703,137.18862 260.61453,137.10112 L 259.19703,136.89112 Q 258.72453,136.82112 258.18203,136.69862 257.63953,136.55862 257.16703,136.31362 256.69453,136.05112 256.39703,135.59612 256.09953,135.12362 256.09953,134.38862 256.09953,133.47862 256.57203,132.88362 257.04453,132.28862 257.86703,131.99112 258.68953,131.69362 259.73953,131.69362 260.96453,131.69362 261.85703,132.07862 262.76703,132.46362 263.41453,133.14612 L 262.50453,134.00362 Q 262.18953,133.61862 261.52453,133.25112 260.87703,132.86612 259.68703,132.86612 258.61953,132.86612 258.04203,133.23362 257.48203,133.60112 257.48203,134.30112 257.48203,134.77362 257.70953,135.03612 257.93703,135.29862 258.30453,135.42112 258.67203,135.54362 259.07453,135.61362 L 260.49203,135.82362 Q 260.98203,135.89362 261.50703,136.03362 262.04953,136.15612 262.52203,136.41862 262.99453,136.66362 263.29203,137.13612 263.58953,137.59112 263.58953,138.32612 263.58953,139.65612 262.53953,140.40862 261.50703,141.14362 259.77453,141.14362 Z"
         id="path77" />
      <path
         d="M 270.60703,140.93362 Q 269.59203,140.93362 269.10203,140.35612 268.61203,139.77862 268.61203,138.86862 V 133.09362 H 265.60203 V 131.90362 H 267.84203 Q 268.29703,131.90362 268.47203,131.72862 268.66453,131.53612 268.66453,131.08112 V 128.71862 H 270.01203 V 131.90362 H 274.12453 V 133.09362 H 270.01203 V 139.74362 H 274.12453 V 140.93362 Z"
         id="path79" />
      <path
         d="M 282.80454,139.46362 H 282.73454 Q 282.45454,140.12862 281.85954,140.63612 281.28204,141.14362 280.16204,141.14362 278.74454,141.14362 277.88704,140.25112 277.02954,139.34112 277.02954,137.69612 V 131.90362 H 278.42954 V 137.45112 Q 278.42954,138.67612 278.97204,139.28862 279.53204,139.90112 280.56454,139.90112 281.12454,139.90112 281.63204,139.72612 282.15704,139.53362 282.47204,139.14862 282.80454,138.76362 282.80454,138.16862 V 131.90362 H 284.20454 V 140.93362 H 282.80454 Z"
         id="path81" />
      <path
         d="M 290.27704,140.93362 287.03954,131.90362 H 288.45704 L 289.75204,135.68362 291.15204,139.76112 H 291.22204 L 292.62204,135.68362 293.91704,131.90362 H 295.29954 L 292.06204,140.93362 Z"
         id="path83" />
      <path
         d="M 296.94456,131.90362 H 298.18706 L 299.21956,139.70862 H 299.37706 L 300.91706,131.90362 H 302.45706 L 303.99706,139.70862 H 304.15456 L 305.18706,131.90362 H 306.39456 L 305.01206,140.93362 H 303.19206 L 301.75706,133.37362 H 301.61706 L 300.14706,140.93362 H 298.32706 Z"
         id="path85" />
      <path
         d="M 307.98706,140.93362 311.34706,136.34862 308.07456,131.90362 H 309.75456 L 311.11956,133.81112 312.20456,135.31612 H 312.27456 L 313.32456,133.81112 314.67206,131.90362 H 316.28206 L 312.97456,136.33112 316.36956,140.93362 H 314.68956 L 313.16706,138.81612 312.13456,137.38112 H 312.06456 L 311.06706,138.81612 309.59706,140.93362 Z"
         id="path87" />
      <path
         d="M 318.87206,144.43362 V 143.24362 H 320.97206 L 321.98706,140.75862 318.34706,131.90362 H 319.78206 L 321.30456,135.68362 322.65206,139.11362 H 322.72206 L 324.06956,135.68362 325.59206,131.90362 H 326.99206 L 322.51206,142.91112 Q 322.19706,143.68112 321.70706,144.04862 321.23456,144.43362 320.20206,144.43362 Z"
         id="path89" />
      <path
         d="M 329.40706,140.93362 V 139.58612 L 335.23456,133.09362 H 329.59956 V 131.90362 H 336.75706 V 133.25112 L 330.92956,139.74362 H 336.93206 V 140.93362 Z"
         id="path91" />
      <path
         d="M 73.836903,162.80862 72.804403,159.32612 H 68.516903 L 67.484403,162.80862 H 65.961903 L 69.706903,150.59362 H 71.649403 L 75.394403,162.80862 Z M 70.739403,152.15112 H 70.581903 L 68.866903,158.04862 H 72.454403 Z"
         id="path93" />
      <path
         d="M 77.45941,150.59362 H 81.60691 Q 83.16441,150.59362 84.05691,151.45112 84.96691,152.30862 84.96691,153.74362 84.96691,154.82862 84.42441,155.47612 83.89941,156.10612 83.05941,156.36862 V 156.42112 Q 84.09191,156.64862 84.75691,157.33112 85.42191,158.01362 85.42191,159.29112 85.42191,160.27112 84.98441,161.07612 84.56441,161.88112 83.81191,162.35362 83.07691,162.80862 82.13191,162.80862 H 77.45941 Z M 81.44941,155.89612 Q 82.37691,155.89612 82.90191,155.49362 83.42691,155.07362 83.42691,154.23362 V 153.55112 Q 83.42691,152.71112 82.90191,152.29112 82.37691,151.87112 81.44941,151.87112 H 78.92941 V 155.89612 Z M 81.69441,161.53112 Q 82.70941,161.53112 83.28691,161.07612 83.86441,160.60362 83.86441,159.67612 V 158.95862 Q 83.86441,158.03112 83.28691,157.57612 82.70941,157.10362 81.69441,157.10362 H 78.92941 V 161.53112 Z"
         id="path95" />
      <path
         d="M 92.071916,163.01862 Q 89.849416,163.01862 88.746916,161.39112 87.644416,159.74612 87.644416,156.70112 87.644416,153.65612 88.746916,152.02862 89.849416,150.38362 92.071916,150.38362 93.191916,150.38362 93.909416,150.78612 94.644416,151.17112 95.081916,151.78362 95.536916,152.39612 95.834416,153.06112 L 94.574416,153.63862 Q 94.364416,153.09612 94.049416,152.65862 93.751916,152.20362 93.279416,151.94112 92.824416,151.66112 92.071916,151.66112 90.619416,151.66112 89.901916,152.76362 89.201916,153.86612 89.201916,155.70362 V 157.69862 Q 89.201916,159.53612 89.901916,160.63862 90.619416,161.74112 92.071916,161.74112 92.824416,161.74112 93.279416,161.47862 93.751916,161.19862 94.049416,160.76112 94.364416,160.30612 94.574416,159.76362 L 95.834416,160.34112 Q 95.536916,161.00612 95.081916,161.61862 94.644416,162.23112 93.909416,162.63362 93.191916,163.01862 92.071916,163.01862 Z"
         id="path97" />
      <path
         d="M 98.581922,150.59362 H 101.99442 Q 104.23442,150.59362 105.33692,152.15112 106.43942,153.69112 106.43942,156.70112 106.43942,159.71112 105.33692,161.26862 104.23442,162.80862 101.99442,162.80862 H 98.581922 Z M 101.92442,161.53112 Q 103.37692,161.53112 104.12942,160.51612 104.88192,159.48362 104.88192,157.64612 V 155.75612 Q 104.88192,153.91862 104.12942,152.90362 103.37692,151.87112 101.92442,151.87112 H 100.05192 V 161.53112 Z"
         id="path99" />
      <path
         d="M 108.99443,162.80862 V 150.59362 H 116.51943 V 151.87112 H 110.46443 V 155.98362 H 116.30943 V 157.26112 H 110.46443 V 161.53112 H 116.51943 V 162.80862 Z"
         id="path101" />
      <path
         d="M 119.49444,162.80862 V 150.59362 H 127.19444 V 151.87112 H 120.96444 V 155.98362 H 126.66944 V 157.26112 H 120.96444 V 162.80862 Z"
         id="path103" />
      <path
         d="M 136.18944,161.18112 H 136.10194 Q 135.90944,161.65362 135.57694,162.07362 135.24444,162.49362 134.70194,162.75612 134.17694,163.01862 133.33694,163.01862 131.35944,163.01862 130.37944,161.40862 129.39944,159.78112 129.39944,156.78862 129.39944,153.65612 130.46694,152.02862 131.55194,150.38362 133.75694,150.38362 134.91194,150.38362 135.64694,150.78612 136.39944,151.17112 136.83694,151.78362 137.29194,152.39612 137.55444,153.06112 L 136.29444,153.63862 Q 136.08444,153.09612 135.78694,152.65862 135.48944,152.20362 135.01694,151.94112 134.54444,151.66112 133.80944,151.66112 132.33944,151.66112 131.63944,152.76362 130.95694,153.86612 130.95694,155.70362 V 157.59362 Q 130.95694,158.81862 131.21944,159.76362 131.48194,160.70862 132.07694,161.25112 132.67194,161.77612 133.66944,161.77612 134.85944,161.77612 135.52444,161.05862 136.18944,160.32362 136.18944,159.20362 V 157.94362 H 133.61694 V 156.77112 H 137.55444 V 162.80862 H 136.18944 Z"
         id="path105" />
      <path
         d="M 146.54945,157.26112 H 141.78945 V 162.80862 H 140.31945 V 150.59362 H 141.78945 V 155.98362 H 146.54945 V 150.59362 H 148.01945 V 162.80862 H 146.54945 Z"
         id="path107" />
      <path
         d="M 150.88946,162.80862 V 161.63612 H 153.93446 V 151.76612 H 150.88946 V 150.59362 H 158.44946 V 151.76612 H 155.40446 V 161.63612 H 158.44946 V 162.80862 Z"
         id="path109" />
      <path
         d="M 168.31946,150.59362 V 159.64112 Q 168.31946,160.67362 167.84696,161.44362 167.39196,162.19612 166.58696,162.61612 165.78196,163.01862 164.71446,163.01862 163.33196,163.01862 162.40446,162.30112 161.49446,161.56612 161.21446,160.25362 L 162.61446,159.95612 Q 162.78946,160.69112 163.26196,161.21612 163.73446,161.72362 164.74946,161.72362 165.74696,161.72362 166.28946,161.14612 166.84946,160.56862 166.84946,159.37862 V 151.87112 H 162.43946 V 150.59362 Z"
         id="path111" />
      <path
         d="M 175.12697,156.82362 173.37697,158.88862 V 162.80862 H 171.90697 V 150.59362 H 173.37697 V 156.96362 H 173.42947 L 175.03947,154.93362 178.64447,150.59362 H 180.41197 L 176.12447,155.73862 180.53447,162.80862 H 178.81947 Z"
         id="path113" />
      <path
         d="M 183.01948,162.80862 V 150.59362 H 184.48948 V 161.53112 H 190.28198 V 162.80862 Z"
         id="path115" />
      <path
         d="M 192.60948,162.80862 V 150.59362 H 194.49948 L 196.65198,155.98362 H 196.75698 L 198.90948,150.59362 H 200.72948 V 162.80862 H 199.38198 V 152.81612 H 199.24198 L 196.66948,159.09862 194.09698,152.81612 H 193.95698 V 162.80862 Z"
         id="path117" />
      <path
         d="M 204.77199,152.51862 H 204.64949 V 162.80862 H 203.31949 V 150.59362 H 205.40199 L 209.56699,160.88362 H 209.68949 V 150.59362 H 211.01949 V 162.80862 H 208.93699 Z"
         id="path119" />
      <path
         d="M 217.66949,163.01862 Q 215.44699,163.01862 214.41449,161.35612 213.39949,159.69362 213.39949,156.70112 213.39949,153.70862 214.41449,152.04612 215.44699,150.38362 217.66949,150.38362 219.90949,150.38362 220.92449,152.04612 221.93949,153.70862 221.93949,156.70112 221.93949,159.69362 220.92449,161.35612 219.90949,163.01862 217.66949,163.01862 Z M 217.66949,161.74112 Q 219.12199,161.74112 219.75199,160.63862 220.38199,159.53612 220.38199,157.69862 V 155.70362 Q 220.38199,153.86612 219.75199,152.76362 219.12199,151.66112 217.66949,151.66112 216.21699,151.66112 215.58699,152.76362 214.95699,153.86612 214.95699,155.70362 V 157.69862 Q 214.95699,159.53612 215.58699,160.63862 216.21699,161.74112 217.66949,161.74112 Z"
         id="path121" />
      <path
         d="M 224.49451,162.80862 V 150.59362 H 228.93951 Q 230.63701,150.59362 231.52951,151.52112 232.42201,152.44862 232.42201,154.11112 232.42201,155.75612 231.52951,156.70112 230.63701,157.62862 228.93951,157.62862 H 225.96451 V 162.80862 Z M 225.96451,156.35112 H 228.90451 Q 229.83201,156.35112 230.33951,155.89612 230.86451,155.42362 230.86451,154.56612 V 153.65612 Q 230.86451,152.79862 230.33951,152.34362 229.83201,151.87112 228.90451,151.87112 H 225.96451 Z"
         id="path123" />
      <path
         d="M 242.01201,165.67862 H 239.96451 Q 238.94951,165.67862 238.45951,165.10112 237.96951,164.52362 237.96951,163.61362 V 162.96612 Q 236.11451,162.72112 235.25701,161.09362 234.39951,159.44862 234.39951,156.70112 234.39951,153.70862 235.41451,152.04612 236.44701,150.38362 238.66951,150.38362 240.90951,150.38362 241.92451,152.04612 242.93951,153.70862 242.93951,156.70112 242.93951,159.44862 242.08201,161.09362 241.22451,162.72112 239.36951,162.96612 V 164.48862 H 242.01201 Z M 238.66951,161.74112 Q 240.12201,161.74112 240.75201,160.63862 241.38201,159.53612 241.38201,157.69862 V 155.70362 Q 241.38201,153.86612 240.75201,152.76362 240.12201,151.66112 238.66951,151.66112 237.21701,151.66112 236.58701,152.76362 235.95701,153.86612 235.95701,155.70362 V 157.69862 Q 235.95701,159.53612 236.58701,160.63862 237.21701,161.74112 238.66951,161.74112 Z"
         id="path125" />
      <path
         d="M 246.96451,162.80862 H 245.49451 V 150.59362 H 249.93951 Q 251.63701,150.59362 252.52951,151.52112 253.42201,152.44862 253.42201,154.11112 253.42201,155.58112 252.65201,156.49112 251.88201,157.38362 250.42951,157.52362 H 250.41201 L 253.52701,162.80862 H 251.88201 L 248.90701,157.59362 H 246.96451 Z M 249.90451,156.35112 Q 250.83201,156.35112 251.33951,155.89612 251.86451,155.42362 251.86451,154.56612 V 153.65612 Q 251.86451,152.79862 251.33951,152.34362 250.83201,151.87112 249.90451,151.87112 H 246.96451 V 156.35112 Z"
         id="path127" />
      <path
         d="M 259.63453,163.01862 Q 257.98953,163.01862 256.93953,162.42362 255.88953,161.81112 255.20703,160.86612 L 256.27453,159.99112 Q 256.99203,160.88362 257.77953,161.32112 258.58453,161.75862 259.68703,161.75862 261.01703,161.75862 261.71703,161.14612 262.41703,160.53362 262.41703,159.43112 262.41703,158.53862 261.89203,158.04862 261.38453,157.54112 260.14203,157.33112 L 258.77703,157.10362 Q 257.58703,156.89362 256.88703,156.40362 256.20453,155.91362 255.90703,155.23112 255.62703,154.54862 255.62703,153.77862 255.62703,152.09862 256.72953,151.24112 257.84953,150.38362 259.70453,150.38362 261.15703,150.38362 262.17203,150.89112 263.18703,151.38112 263.79953,152.25612 L 262.76703,153.14862 Q 262.25953,152.48362 261.54203,152.06362 260.82453,151.64362 259.68703,151.64362 258.46203,151.64362 257.77953,152.18612 257.11453,152.71112 257.11453,153.74362 257.11453,154.54862 257.60453,155.07362 258.11203,155.59862 259.40703,155.82612 L 260.71953,156.05362 Q 261.92703,156.26362 262.60953,156.75362 263.30953,157.24362 263.60703,157.92612 263.90453,158.59112 263.90453,159.39612 263.90453,161.09362 262.78453,162.05612 261.66453,163.01862 259.63453,163.01862 Z"
         id="path129" />
      <path
         d="M 270.90453,151.87112 V 162.80862 H 269.43453 V 151.87112 H 265.35703 V 150.59362 H 274.98203 V 151.87112 Z"
         id="path131" />
      <path
         d="M 278.28954,150.59362 V 157.92612 Q 278.28954,159.09862 278.39454,159.95612 278.51704,160.81362 279.00704,161.28612 279.51454,161.74112 280.66954,161.74112 281.82454,161.74112 282.31454,161.28612 282.82204,160.81362 282.92704,159.95612 283.04954,159.09862 283.04954,157.92612 V 150.59362 H 284.51954 V 157.57612 Q 284.51954,158.94112 284.37954,159.95612 284.23954,160.97112 283.83704,161.65362 283.43454,162.33612 282.66454,162.68612 281.91204,163.01862 280.66954,163.01862 279.42704,163.01862 278.65704,162.68612 277.90454,162.33612 277.50204,161.65362 277.09954,160.97112 276.95954,159.95612 276.81954,158.94112 276.81954,157.57612 V 150.59362 Z"
         id="path133" />
      <path
         d="M 290.17204,162.80862 286.54954,150.59362 H 288.10704 L 289.83954,156.70112 291.15204,161.32112 H 291.23954 L 292.55204,156.70112 294.28454,150.59362 H 295.78954 L 292.16704,162.80862 Z"
         id="path135" />
      <path
         d="M 297.99456,162.80862 297.03206,150.59362 H 298.34456 L 298.85206,157.59362 299.11456,161.28612 H 299.25456 L 300.86456,153.77862 H 302.50956 L 304.11956,161.28612 H 304.25956 L 304.52206,157.59362 305.02956,150.59362 H 306.30706 L 305.34456,162.80862 H 303.22706 L 301.73956,155.51112 H 301.59956 L 300.11206,162.80862 Z"
         id="path137" />
      <path
         d="M 316.98206,162.80862 H 315.31956 L 313.86706,160.37612 312.25706,157.71612 H 312.18706 L 310.52456,160.37612 308.98456,162.80862 H 307.37456 L 311.36456,156.57862 307.60206,150.59362 H 309.26456 L 310.68206,152.95612 312.20456,155.42362 H 312.27456 L 313.77956,152.95612 315.24956,150.59362 H 316.85956 L 313.07956,156.56112 Z"
         id="path139" />
      <path
         d="M 321.93456,162.80862 V 158.01362 L 317.71706,150.59362 H 319.39706 L 321.14706,153.77862 322.63456,156.56112 H 322.70456 L 324.22706,153.77862 325.97706,150.59362 H 327.62206 L 323.40456,158.01362 V 162.80862 Z"
         id="path141" />
      <path
         d="M 337.57956,162.80862 H 328.75956 V 161.49612 L 335.67206,151.87112 H 329.05706 V 150.59362 H 337.28206 V 151.90612 L 330.35206,161.53112 H 337.57956 Z"
         id="path143" />
      <path
         d="M 70.669403,184.89362 Q 69.409403,184.89362 68.481903,184.31612 67.571903,183.72112 67.064403,182.67112 66.574403,181.60362 66.574403,180.16862 66.574403,178.73362 67.064403,177.68362 67.571903,176.61612 68.481903,176.03862 69.409403,175.44362 70.669403,175.44362 71.946903,175.44362 72.856903,176.03862 73.766903,176.61612 74.256903,177.68362 74.764403,178.73362 74.764403,180.16862 74.764403,181.60362 74.256903,182.67112 73.766903,183.72112 72.856903,184.31612 71.946903,184.89362 70.669403,184.89362 Z M 70.669403,183.68612 Q 71.841903,183.68612 72.559403,182.98612 73.276903,182.26862 73.276903,180.81612 V 179.52112 Q 73.276903,178.06862 72.559403,177.36862 71.841903,176.65112 70.669403,176.65112 69.496903,176.65112 68.779403,177.36862 68.061903,178.06862 68.061903,179.52112 V 180.81612 Q 68.061903,182.26862 68.779403,182.98612 69.496903,183.68612 70.669403,183.68612 Z"
         id="path145" />
      <path
         d="M 81.16941,184.89362 Q 78.94691,184.89362 77.91441,183.23112 76.89941,181.56862 76.89941,178.57612 76.89941,175.58362 77.91441,173.92112 78.94691,172.25862 81.16941,172.25862 83.40941,172.25862 84.42441,173.92112 85.43941,175.58362 85.43941,178.57612 85.43941,181.56862 84.42441,183.23112 83.40941,184.89362 81.16941,184.89362 Z M 81.16941,183.61612 Q 82.62191,183.61612 83.25191,182.51362 83.88191,181.41112 83.88191,179.57362 V 177.57862 Q 83.88191,175.74112 83.25191,174.63862 82.62191,173.53612 81.16941,173.53612 79.71691,173.53612 79.08691,174.63862 78.45691,175.74112 78.45691,177.57862 V 179.57362 Q 78.45691,181.41112 79.08691,182.51362 79.71691,183.61612 81.16941,183.61612 Z"
         id="path147" />
      <path
         d="M 91.669416,184.89362 Q 89.446916,184.89362 88.414416,183.23112 87.399416,181.56862 87.399416,178.57612 87.399416,175.58362 88.414416,173.92112 89.446916,172.25862 91.669416,172.25862 93.909416,172.25862 94.924416,173.92112 95.939416,175.58362 95.939416,178.57612 95.939416,181.56862 94.924416,183.23112 93.909416,184.89362 91.669416,184.89362 Z M 91.669416,183.61612 Q 93.139416,183.61612 93.769416,182.51362 94.416916,181.41112 94.416916,179.57362 V 177.57862 Q 94.416916,175.74112 93.769416,174.63862 93.139416,173.53612 91.669416,173.53612 90.199416,173.53612 89.551916,174.63862 88.921916,175.74112 88.921916,177.57862 V 179.57362 Q 88.921916,181.41112 89.551916,182.51362 90.199416,183.61612 91.669416,183.61612 Z M 91.669416,179.60862 Q 91.074416,179.60862 90.829416,179.36362 90.584416,179.11862 90.584416,178.76862 V 178.38362 Q 90.584416,178.03362 90.829416,177.78862 91.074416,177.54362 91.669416,177.54362 92.281916,177.54362 92.509416,177.78862 92.754416,178.03362 92.754416,178.38362 V 178.76862 Q 92.754416,179.11862 92.509416,179.36362 92.281916,179.60862 91.669416,179.60862 Z"
         id="path149" />
      <path
         d="M 102.16942,184.89362 Q 100.75192,184.89362 99.789422,184.43862 98.844422,183.96612 98.354422,183.16112 97.881922,182.35612 97.881922,181.35862 97.881922,180.11612 98.564422,179.38112 99.246922,178.62862 100.36692,178.33112 V 178.19112 Q 99.404422,177.85862 98.826922,177.12362 98.249422,176.37112 98.249422,175.32112 98.249422,173.92112 99.281922,173.09862 100.31442,172.25862 102.16942,172.25862 104.02442,172.25862 105.05692,173.09862 106.08942,173.92112 106.08942,175.32112 106.08942,176.37112 105.51192,177.12362 104.95192,177.85862 103.97192,178.19112 V 178.33112 Q 105.09192,178.62862 105.77442,179.38112 106.45692,180.11612 106.45692,181.35862 106.45692,182.35612 105.96692,183.16112 105.49442,183.96612 104.53192,184.43862 103.58692,184.89362 102.16942,184.89362 Z M 102.16942,177.66612 Q 103.35942,177.66612 103.97192,177.15862 104.60192,176.63362 104.60192,175.70612 V 175.46112 Q 104.60192,174.53362 103.95442,174.02612 103.32442,173.50112 102.16942,173.50112 101.01442,173.50112 100.36692,174.02612 99.736922,174.53362 99.736922,175.46112 V 175.70612 Q 99.736922,176.63362 100.36692,177.15862 100.99692,177.66612 102.16942,177.66612 Z M 102.16942,183.65112 Q 103.46442,183.65112 104.19942,183.07362 104.93442,182.47862 104.93442,181.44612 V 181.06112 Q 104.93442,180.01112 104.19942,179.43362 103.48192,178.85612 102.16942,178.85612 100.85692,178.85612 100.12192,179.43362 99.404422,180.01112 99.404422,181.06112 V 181.44612 Q 99.404422,182.47862 100.13942,183.07362 100.89192,183.65112 102.16942,183.65112 Z"
         id="path151" />
      <path
         d="M 123.72944,173.65862 Q 123.13444,173.65862 122.87194,173.41362 122.62694,173.15112 122.62694,172.76612 V 172.48612 Q 122.62694,172.10112 122.87194,171.85612 123.13444,171.59362 123.72944,171.59362 124.34194,171.59362 124.58694,171.85612 124.83194,172.10112 124.83194,172.48612 V 172.76612 Q 124.83194,173.15112 124.58694,173.41362 124.34194,173.65862 123.72944,173.65862 Z M 119.77444,183.49362 H 123.02944 V 176.84362 H 119.77444 V 175.65362 H 124.42944 V 183.49362 H 127.47444 V 184.68362 H 119.77444 Z"
         id="path153" />
      <path
         d="M 129.88944,184.68362 V 183.51112 H 132.93444 V 173.64112 H 129.88944 V 172.46862 H 137.44944 V 173.64112 H 134.40444 V 183.51112 H 137.44944 V 184.68362 Z"
         id="path155" />
      <path
         d="M 140.31945,183.49362 H 143.46945 V 172.92362 H 140.31945 V 171.73362 H 144.86945 V 183.49362 H 148.01945 V 184.68362 H 140.31945 Z"
         id="path157" />
      <path
         d="M 151.51946,184.68362 V 172.46862 H 152.98946 V 183.40612 H 158.78196 V 184.68362 Z"
         id="path159" />
      <path
         d="M 161.40696,184.68362 V 183.40612 H 164.90696 V 173.55362 H 164.78446 L 161.70446,176.42362 160.84696,175.49612 164.08446,172.46862 H 166.37696 V 183.40612 H 169.59696 V 184.68362 Z"
         id="path161" />
      <path
         d="M 186.50198,187.09862 Q 185.78448,187.09862 185.39948,186.67862 185.03198,186.25862 185.03198,185.66362 V 184.56112 Q 185.03198,183.61612 185.36448,183.10862 185.69698,182.58362 186.01198,182.19862 186.30948,181.84862 186.41448,181.60362 186.53698,181.34112 186.53698,181.06112 186.53698,179.78362 184.12198,179.78362 H 182.75698 V 178.69862 H 184.12198 Q 186.53698,178.69862 186.53698,177.42112 186.53698,177.14112 186.41448,176.89612 186.30948,176.63362 186.01198,176.28362 185.69698,175.88112 185.36448,175.37362 185.03198,174.86612 185.03198,173.92112 V 172.81862 Q 185.03198,172.20612 185.39948,171.80362 185.78448,171.38362 186.50198,171.38362 H 189.58198 V 172.46862 H 186.23948 V 173.81612 Q 186.23948,174.53362 186.44948,174.91862 186.65948,175.30362 186.93948,175.67112 187.23698,176.05612 187.49948,176.47612 187.76198,176.87862 187.76198,177.43862 187.76198,178.15612 187.23698,178.62862 186.71198,179.08362 185.83698,179.20612 V 179.27612 Q 186.71198,179.39862 187.23698,179.87112 187.76198,180.32612 187.76198,181.04362 187.76198,181.58612 187.49948,182.00612 187.23698,182.42612 186.93948,182.81112 186.65948,183.17862 186.44948,183.56362 186.23948,183.94862 186.23948,184.66612 V 186.01362 H 189.58198 V 187.09862 Z"
         id="path163" />
      <path
         d="M 196.33698,171.38362 Q 197.05448,171.38362 197.42198,171.80362 197.80698,172.20612 197.80698,172.81862 V 173.92112 Q 197.80698,174.86612 197.47448,175.37362 197.14198,175.88112 196.82698,176.28362 196.54698,176.63362 196.42448,176.89612 196.30198,177.14112 196.30198,177.42112 196.30198,178.69862 198.71698,178.69862 H 200.08198 V 179.78362 H 198.71698 Q 196.30198,179.78362 196.30198,181.06112 196.30198,181.34112 196.42448,181.60362 196.54698,181.84862 196.82698,182.19862 197.14198,182.58362 197.47448,183.10862 197.80698,183.61612 197.80698,184.56112 V 185.66362 Q 197.80698,186.25862 197.42198,186.67862 197.05448,187.09862 196.33698,187.09862 H 193.25698 V 186.01362 H 196.59948 V 184.66612 Q 196.59948,183.94862 196.38948,183.56362 196.17948,183.17862 195.89948,182.81112 195.61948,182.42612 195.33948,182.00612 195.07698,181.58612 195.07698,181.04362 195.07698,180.32612 195.60198,179.87112 196.12698,179.39862 197.00198,179.27612 V 179.20612 Q 196.12698,179.08362 195.60198,178.62862 195.07698,178.15612 195.07698,177.43862 195.07698,176.87862 195.33948,176.47612 195.61948,176.05612 195.89948,175.67112 196.17948,175.30362 196.38948,174.91862 196.59948,174.53362 196.59948,173.81612 V 172.46862 H 193.25698 V 171.38362 Z"
         id="path165" />
      <path
         d="M 216.35699,187.09862 V 171.38362 H 221.25699 V 172.46862 H 217.56449 V 186.01362 H 221.25699 V 187.09862 Z"
         id="path167" />
      <path
         d="M 229.48201,171.38362 V 187.09862 H 224.58201 V 186.01362 H 228.27451 V 172.46862 H 224.58201 V 171.38362 Z"
         id="path169" />
      <path
         d="M 253.73701,185.71612 Q 253.73701,188.39362 249.18701,188.39362 247.01701,188.39362 246.05451,187.79862 245.09201,187.22112 245.09201,186.15362 245.09201,185.43612 245.47701,185.01612 245.86201,184.59612 246.56201,184.42112 V 184.21112 Q 246.17701,184.01862 245.96701,183.72112 245.75701,183.42362 245.75701,182.96862 245.75701,182.26862 246.21201,181.91862 246.68451,181.56862 247.38451,181.39362 V 181.32362 Q 246.56201,180.95612 246.08951,180.23862 245.61701,179.52112 245.61701,178.55862 245.61701,177.63112 246.05451,176.93112 246.49201,176.23112 247.27951,175.84612 248.06701,175.44362 249.11701,175.44362 250.14951,175.44362 250.90201,175.81112 V 175.65362 Q 250.90201,175.12862 251.14701,174.77862 251.39201,174.42862 251.98701,174.42862 H 253.64951 V 175.65362 H 251.61951 V 176.26612 Q 252.63451,177.14112 252.63451,178.55862 252.63451,179.46862 252.19701,180.18612 251.75951,180.88612 250.97201,181.28862 250.18451,181.67362 249.11701,181.67362 248.88951,181.67362 248.67951,181.65612 248.46951,181.63862 248.25951,181.60362 247.99701,181.65612 247.68201,181.77862 247.38451,181.90112 247.17451,182.11112 246.96451,182.32112 246.96451,182.63612 246.96451,183.03862 247.36701,183.17862 247.76951,183.30112 248.41701,183.30112 H 250.41201 Q 252.16201,183.30112 252.94951,183.96612 253.73701,184.61362 253.73701,185.71612 Z M 249.11701,180.58862 Q 250.16701,180.58862 250.65701,180.09862 251.16451,179.60862 251.16451,178.80362 V 178.29612 Q 251.16451,177.49112 250.65701,177.01862 250.16701,176.52862 249.11701,176.52862 248.08451,176.52862 247.57701,177.01862 247.08701,177.49112 247.08701,178.29612 V 178.80362 Q 247.08701,179.60862 247.57701,180.09862 248.08451,180.58862 249.11701,180.58862 Z M 252.42451,185.78612 Q 252.42451,185.24362 251.98701,184.91112 251.54951,184.59612 250.46451,184.59612 H 247.33201 Q 246.42201,184.96362 246.42201,185.82112 246.42201,186.41612 246.89451,186.83612 247.36701,187.27362 248.46951,187.27362 H 249.83451 Q 251.05951,187.27362 251.74201,186.88862 252.42451,186.52112 252.42451,185.78612 Z"
         id="path171" />
      <path
         d="M 263.79953,176.94862 Q 263.79953,178.31362 263.39703,179.50362 262.99453,180.69362 262.32953,181.69112 261.68203,182.68862 260.89453,183.45862 260.12453,184.21112 259.37203,184.68362 H 257.48203 Q 258.81203,183.72112 259.75703,182.81112 260.71953,181.90112 261.33203,180.83362 261.96203,179.76612 262.29453,178.34862 L 262.20703,178.31362 Q 261.76953,179.06612 261.05203,179.57362 260.33453,180.06362 259.19703,180.06362 258.12953,180.06362 257.30703,179.60862 256.48453,179.15362 256.01203,178.31362 255.53953,177.45612 255.53953,176.30112 255.53953,175.09362 256.04703,174.18362 256.55453,173.27362 257.48203,172.76612 258.40953,172.25862 259.65203,172.25862 261.57703,172.25862 262.67953,173.51862 263.79953,174.76112 263.79953,176.94862 Z M 259.66953,178.85612 Q 260.91203,178.85612 261.61203,178.17362 262.31203,177.47362 262.31203,176.24862 V 176.10862 Q 262.31203,174.86612 261.61203,174.18362 260.91203,173.50112 259.66953,173.50112 258.42703,173.50112 257.72703,174.18362 257.02703,174.86612 257.02703,176.10862 V 176.24862 Q 257.02703,177.47362 257.72703,178.17362 258.42703,178.85612 259.66953,178.85612 Z"
         id="path173" />
      <path
         d="M 272.35703,183.21362 H 272.28703 Q 271.41203,184.89362 269.50453,184.89362 267.85953,184.89362 266.91453,183.65112 265.96953,182.39112 265.96953,180.16862 265.96953,177.94612 266.91453,176.70362 267.85953,175.44362 269.50453,175.44362 271.41203,175.44362 272.28703,177.12362 H 272.35703 V 175.65362 H 273.75703 V 188.18362 H 272.35703 Z M 270.04703,183.65112 Q 270.97453,183.65112 271.65703,183.17862 272.35703,182.70612 272.35703,181.79612 V 178.54112 Q 272.35703,177.63112 271.65703,177.15862 270.97453,176.68612 270.04703,176.68612 268.82203,176.68612 268.13953,177.43862 267.47453,178.17362 267.47453,179.39862 V 180.93862 Q 267.47453,182.16362 268.13953,182.91612 268.82203,183.65112 270.04703,183.65112 Z"
         id="path175" />
      <path
         d="M 281.07204,184.89362 Q 278.84954,184.89362 277.74704,183.26612 276.64454,181.62112 276.64454,178.57612 276.64454,175.53112 277.74704,173.90362 278.84954,172.25862 281.07204,172.25862 282.19204,172.25862 282.90954,172.66112 283.64454,173.04612 284.08204,173.65862 284.53704,174.27112 284.83454,174.93612 L 283.57454,175.51362 Q 283.36454,174.97112 283.04954,174.53362 282.75204,174.07862 282.27954,173.81612 281.82454,173.53612 281.07204,173.53612 279.61954,173.53612 278.90204,174.63862 278.20204,175.74112 278.20204,177.57862 V 179.57362 Q 278.20204,181.41112 278.90204,182.51362 279.61954,183.61612 281.07204,183.61612 281.82454,183.61612 282.27954,183.35362 282.75204,183.07362 283.04954,182.63612 283.36454,182.18112 283.57454,181.63862 L 284.83454,182.21612 Q 284.53704,182.88112 284.08204,183.49362 283.64454,184.10612 282.90954,184.50862 282.19204,184.89362 281.07204,184.89362 Z"
         id="path177" />
      <path
         d="M 293.68954,183.05612 H 293.60204 Q 293.40954,183.52862 293.07704,183.94862 292.74454,184.36862 292.20204,184.63112 291.67704,184.89362 290.83704,184.89362 288.85954,184.89362 287.87954,183.28362 286.89954,181.65612 286.89954,178.66362 286.89954,175.53112 287.96704,173.90362 289.05204,172.25862 291.25704,172.25862 292.41204,172.25862 293.14704,172.66112 293.89954,173.04612 294.33704,173.65862 294.79204,174.27112 295.05454,174.93612 L 293.79454,175.51362 Q 293.58454,174.97112 293.28704,174.53362 292.98954,174.07862 292.51704,173.81612 292.04454,173.53612 291.30954,173.53612 289.83954,173.53612 289.13954,174.63862 288.45704,175.74112 288.45704,177.57862 V 179.46862 Q 288.45704,180.69362 288.71954,181.63862 288.98204,182.58362 289.57704,183.12612 290.17204,183.65112 291.16954,183.65112 292.35954,183.65112 293.02454,182.93362 293.68954,182.19862 293.68954,181.07862 V 179.81862 H 291.11704 V 178.64612 H 295.05454 V 184.68362 H 293.68954 Z"
         id="path179" />
      <path
         d="M 305.01206,187.55362 H 302.96456 Q 301.94956,187.55362 301.45956,186.97612 300.96956,186.39862 300.96956,185.48862 V 184.84112 Q 299.11456,184.59612 298.25706,182.96862 297.39956,181.32362 297.39956,178.57612 297.39956,175.58362 298.41456,173.92112 299.44706,172.25862 301.66956,172.25862 303.90956,172.25862 304.92456,173.92112 305.93956,175.58362 305.93956,178.57612 305.93956,181.32362 305.08206,182.96862 304.22456,184.59612 302.36956,184.84112 V 186.36362 H 305.01206 Z M 301.66956,183.61612 Q 303.12206,183.61612 303.75206,182.51362 304.38206,181.41112 304.38206,179.57362 V 177.57862 Q 304.38206,175.74112 303.75206,174.63862 303.12206,173.53612 301.66956,173.53612 300.21706,173.53612 299.58706,174.63862 298.95706,175.74112 298.95706,177.57862 V 179.57362 Q 298.95706,181.41112 299.58706,182.51362 300.21706,183.61612 301.66956,183.61612 Z"
         id="path181" />
      <path
         d="M 324.62956,181.13112 Q 324.06956,181.13112 323.63206,180.88612 323.19456,180.62362 322.82706,180.25612 322.45956,179.87112 322.12706,179.50362 321.79456,179.13612 321.46206,178.89112 321.12956,178.62862 320.72706,178.62862 320.18456,178.62862 319.88706,179.17112 319.58956,179.69612 319.39706,180.50112 L 318.31206,180.25612 Q 318.64456,178.96112 319.20456,178.20862 319.76456,177.45612 320.72706,177.45612 321.28706,177.45612 321.72456,177.71862 322.16206,177.96362 322.52956,178.33112 322.89706,178.69862 323.22956,179.08362 323.56206,179.45112 323.89456,179.71362 324.24456,179.95862 324.62956,179.95862 325.18956,179.95862 325.46956,179.43362 325.76706,178.89112 325.95956,178.08612 L 327.04456,178.33112 Q 326.71206,179.60862 326.15206,180.37862 325.60956,181.13112 324.62956,181.13112 Z"
         id="path183" />
      <path
         d="M 330.63206,179.92362 V 178.73362 H 335.70706 V 179.92362 Z"
         id="path185" />
      <path
         d="M 343.00459,183.59862 V 179.94112 H 339.50459 V 178.75112 H 343.00459 V 175.09362 H 344.33459 V 178.75112 H 347.83459 V 179.94112 H 344.33459 V 183.59862 Z"
         id="path187" />
      <path
         d="M 350.00459,178.17362 V 176.98362 H 359.59459 V 178.17362 Z M 350.00459,181.67362 V 180.48362 H 359.59459 V 181.67362 Z"
         id="path189" />
      <path
         d="M 362.95459,184.73612 362.13209,183.96612 364.49459,181.60362 V 181.55112 L 362.88459,181.67362 H 359.24459 V 180.48362 H 365.59709 L 365.66709,180.44862 366.71709,179.39862 V 179.25862 L 365.66709,178.20862 365.59709,178.17362 H 359.24459 V 176.98362 H 362.88459 L 364.49459,177.08862 V 177.03612 L 362.13209,174.65612 362.97209,173.83362 368.43209,179.31112 Z"
         id="path191" />
    </g>
  </g>
</svg>
