<svg xmlns="http://www.w3.org/2000/svg" width="324.645" height="114.016" viewBox="0 0 304.354 106.89"><g font-weight="400" font-family="LiterationSerif Nerd Font" letter-spacing="0" word-spacing="0" fill="#fff"><g style="line-height:125%;text-decoration-line:underline" font-size="27.5" text-decoration="underline"><path d="M7.68 2.068l-2.779.349v15.791h3.545q2.86 0 4.203-.269l.832-3.746h.873l-.241 5.17H0v-.712l2.31-.362V2.417L0 2.067v-.71h7.68v.71zM21.108 2.618q0 .591-.43 1.02-.429.43-1.033.43-.591 0-1.02-.43-.43-.429-.43-1.02 0-.604.43-1.034.429-.43 1.02-.43.604 0 1.034.43.43.43.43 1.034zm-.134 15.805l2.162.336v.604h-6.54v-.604l2.15-.336V7.68l-1.787-.336v-.604h4.015v11.682zM28.131 19.631q-1.289 0-1.933-.765-.632-.765-.632-2.148v-8.85h-1.651v-.604l1.678-.523 1.356-2.86h.846v2.86h2.887v1.128h-2.887v8.607q0 .873.39 1.316.403.443 1.047.443.779 0 1.893-.215v.873q-.47.322-1.356.524-.886.214-1.638.214zM34.764 13.011v.242q0 1.853.403 2.887.416 1.02 1.262 1.558.86.537 2.243.537.725 0 1.719-.121.993-.12 1.638-.269v.752q-.645.417-1.76.726-1.1.308-2.255.308-2.94 0-4.31-1.584-1.357-1.585-1.357-5.09 0-3.302 1.383-4.927 1.384-1.625 3.948-1.625 4.848 0 4.848 5.505v1.101h-7.762zm2.914-5.532q-1.396 0-2.148 1.128-.739 1.128-.739 3.33h5.398q0-2.403-.617-3.424-.618-1.034-1.894-1.034zM52.382 6.405v3.41h-.578l-.779-1.476q-.671 0-1.598.188-.913.174-1.584.47v9.426l2.162.336v.604h-5.989v-.604l1.598-.336V7.68l-1.598-.336v-.604h3.68l.12 1.57q.806-.67 2.175-1.288 1.384-.618 2.19-.618h.2zM58.894 6.459q2.068 0 3.035.846.98.846.98 2.591v8.527l1.571.336v.604h-3.464L60.76 18.1q-1.531 1.53-3.908 1.53-3.236 0-3.236-3.76 0-1.262.483-2.08.497-.833 1.571-1.263 1.075-.443 3.116-.483l1.893-.054v-1.974q0-1.302-.483-1.92-.47-.618-1.464-.618-1.343 0-2.457.631l-.457 1.571h-.752V6.93q2.175-.47 3.827-.47zm1.786 6.472l-1.76.054q-1.798.067-2.443.698-.631.631-.631 2.108 0 2.363 1.92 2.363.913 0 1.571-.201.672-.215 1.343-.537V12.93zM69.327 19.631q-1.289 0-1.933-.765-.631-.765-.631-2.148v-8.85H65.11v-.604l1.679-.523 1.356-2.86h.846v2.86h2.887v1.128h-2.887v8.607q0 .873.39 1.316.402.443 1.046.443.78 0 1.894-.215v.873q-.47.322-1.356.524-.887.214-1.639.214zM77.559 2.618q0 .591-.43 1.02-.43.43-1.034.43-.59 0-1.02-.43-.43-.429-.43-1.02 0-.604.43-1.034.43-.43 1.02-.43.604 0 1.034.43.43.43.43 1.034zm-.135 15.805l2.162.336v.604h-6.54v-.604l2.15-.336V7.68l-1.787-.336v-.604h4.015v11.682zM92.8 12.985q0 6.646-5.91 6.646-2.846 0-4.296-1.705-1.45-1.705-1.45-4.941 0-3.196 1.45-4.888 1.45-1.692 4.404-1.692 2.874 0 4.337 1.665Q92.8 9.722 92.8 12.985zm-2.418 0q0-2.9-.846-4.203-.846-1.303-2.645-1.303-1.76 0-2.551 1.249-.78 1.249-.78 4.257 0 3.048.793 4.323.806 1.263 2.538 1.263 1.772 0 2.632-1.316.86-1.316.86-4.27zM98.197 7.761q1.034-.59 2.202-.967 1.168-.389 1.947-.389 1.638 0 2.47.953.833.954.833 2.767v8.298l1.531.336v.604h-5.438v-.604l1.678-.336v-8.057q0-1.114-.55-1.745-.537-.645-1.679-.645-1.208 0-2.967.39v10.057l1.705.336v.604h-5.451v-.604l1.517-.336V7.68l-1.517-.336v-.604h3.598l.121 1.02zM109.463 14.515h.873l.47 2.43q.496.632 1.705 1.115 1.222.484 2.404.484 1.88 0 2.927-.954 1.06-.966 1.06-2.658 0-.967-.416-1.598-.403-.631-1.074-1.061-.658-.443-1.504-.739-.846-.308-1.745-.617-.887-.31-1.733-.685-.846-.376-1.517-.953-.658-.578-1.074-1.424-.403-.86-.403-2.108 0-2.148 1.611-3.37 1.612-1.222 4.472-1.222 2.175 0 4.726.577V5.48h-.872l-.47-2.203q-1.37-.993-3.384-.993-1.8 0-2.82.738-1.007.725-1.007 2.014 0 .873.403 1.45.416.578 1.074.994.671.403 1.517.698.86.296 1.746.618.9.309 1.745.712.86.39 1.518 1.007.671.604 1.074 1.49.416.873.416 2.162 0 2.605-1.598 4.042-1.598 1.423-4.605 1.423-1.45 0-2.914-.255-1.464-.255-2.605-.698v-4.163zM126.395 13.011v.242q0 1.853.403 2.887.416 1.02 1.262 1.558.86.537 2.243.537.725 0 1.718-.121.994-.12 1.639-.269v.752q-.645.417-1.76.726-1.1.308-2.255.308-2.94 0-4.31-1.584-1.357-1.585-1.357-5.09 0-3.302 1.383-4.927 1.383-1.625 3.948-1.625 4.847 0 4.847 5.505v1.101h-7.76zm2.914-5.532q-1.396 0-2.148 1.128-.739 1.128-.739 3.33h5.398q0-2.403-.618-3.424-.617-1.034-1.893-1.034zM144.012 6.405v3.41h-.577l-.779-1.476q-.671 0-1.598.188-.913.174-1.584.47v9.426l2.162.336v.604h-5.989v-.604l1.598-.336V7.68l-1.598-.336v-.604h3.68l.12 1.57q.806-.67 2.175-1.288 1.383-.618 2.189-.618h.201zM149.37 2.618q0 .591-.43 1.02-.43.43-1.034.43-.59 0-1.02-.43-.43-.429-.43-1.02 0-.604.43-1.034.43-.43 1.02-.43.605 0 1.034.43.43.43.43 1.034zm-.134 15.805l2.162.336v.604h-6.54v-.604l2.149-.336V7.68l-1.786-.336v-.604h4.015v11.682zM154.93 7.869h-2.176V7.21l2.175-.524v-.886q0-2.793 1.101-4.297Q157.145 0 159.146 0q1.033 0 1.92.255v2.753h-.658l-.605-1.652q-.456-.282-1.1-.282-.847 0-1.196.752t-.349 2.82v2.095h3.357v1.128h-3.357v10.446l2.726.444v.604h-6.821v-.604l1.866-.444V7.87zM183.477 2.417l-2.417-.35v-.71h6.136v.71l-2.31.35v16.946h-1.302L172.479 3.169v15.12l2.417.362v.712h-6.136v-.712l2.31-.362V2.417l-2.31-.35v-.71h5.451l9.266 13.333V2.417zM191.332 13.011v.242q0 1.853.403 2.887.416 1.02 1.262 1.558.86.537 2.242.537.725 0 1.719-.121.994-.12 1.638-.269v.752q-.644.417-1.759.726-1.1.308-2.256.308-2.94 0-4.31-1.584-1.356-1.585-1.356-5.09 0-3.302 1.383-4.927 1.383-1.625 3.948-1.625 4.847 0 4.847 5.505v1.101h-7.761zm2.914-5.532q-1.397 0-2.149 1.128-.738 1.128-.738 3.33h5.398q0-2.403-.618-3.424-.618-1.034-1.893-1.034zM208.949 6.405v3.41h-.577l-.78-1.476q-.67 0-1.597.188-.913.174-1.585.47v9.426l2.162.336v.604h-5.989v-.604l1.598-.336V7.68l-1.598-.336v-.604h3.68l.12 1.57q.806-.67 2.176-1.288 1.383-.618 2.189-.618h.201zM218.926 18.423q-1.518 1.208-3.545 1.208-5.17 0-5.17-6.458 0-3.317 1.464-5.036 1.463-1.732 4.31-1.732 1.45 0 2.94.309-.08-.443-.08-2.23V1.209l-2.121-.322V.282h4.35v18.14l1.558.337v.604h-3.545l-.161-.94zm-6.298-5.25q0 2.55.86 3.813.859 1.249 2.631 1.249 1.518 0 2.726-.524V7.734q-1.195-.228-2.726-.228-3.49 0-3.49 5.667zM235.536 11.28v7.009l2.994.362v.712h-7.72v-.712l2.134-.362V2.417l-2.31-.35v-.71h13.51v4.31h-.887l-.43-2.914q-1.504-.188-4.35-.188h-2.941v7.506h5.304l.416-2.149h.82v5.533h-.82l-.416-2.176h-5.304zM257.853 12.985q0 6.646-5.908 6.646-2.847 0-4.297-1.705-1.45-1.705-1.45-4.941 0-3.196 1.45-4.888 1.45-1.692 4.404-1.692 2.874 0 4.337 1.665 1.464 1.652 1.464 4.915zm-2.417 0q0-2.9-.846-4.203-.846-1.303-2.645-1.303-1.76 0-2.552 1.249-.778 1.249-.778 4.257 0 3.048.792 4.323.805 1.263 2.538 1.263 1.772 0 2.631-1.316.86-1.316.86-4.27zM263.25 7.761q1.035-.59 2.203-.967 1.168-.389 1.947-.389 1.638 0 2.47.953.833.954.833 2.767v8.298l1.53.336v.604h-5.437v-.604l1.678-.336v-8.057q0-1.114-.55-1.745-.538-.645-1.679-.645-1.208 0-2.967.39v10.057l1.705.336v.604h-5.452v-.604l1.518-.336V7.68l-1.518-.336v-.604h3.599l.12 1.02zM277.135 19.631q-1.29 0-1.934-.765-.63-.765-.63-2.148v-8.85h-1.652v-.604l1.678-.523 1.356-2.86h.846v2.86h2.887v1.128H276.8v8.607q0 .873.39 1.316.403.443 1.047.443.779 0 1.893-.215v.873q-.47.322-1.356.524-.886.214-1.638.214z"/></g><g style="line-height:125%" font-size="17.5"><path d="M5.743 51.151q1.316 0 1.932.538.623.539.623 1.65v5.426l1 .213v.385H7.094l-.163-.803q-.974.974-2.486.974-2.06 0-2.06-2.393 0-.803.308-1.324.316-.53 1-.804.683-.282 1.982-.307l1.205-.034v-1.256q0-.83-.308-1.222-.299-.393-.931-.393-.855 0-1.564.401l-.29 1h-.479V51.45q1.384-.299 2.435-.299zM6.88 55.27l-1.12.034q-1.145.043-1.555.444-.401.402-.401 1.342 0 1.504 1.222 1.504.58 0 1-.128.427-.137.854-.342V55.27zM16.074 55.125q0-1.573-.547-2.342-.547-.769-1.692-.769-.504 0-1 .094-.495.086-.717.188v6.366q.718.137 1.717.137 1.18 0 1.71-.923t.53-2.751zM10.7 47.81l-1.17-.205v-.385h2.589v2.872q0 .461-.051 1.691.854-.666 2.153-.666 1.64 0 2.512 1 .88.99.88 3.008 0 2.161-.965 3.29-.957 1.119-2.777 1.119-.735 0-1.624-.163-.88-.162-1.547-.427V47.81zM25.508 58.876q-.419.307-1.154.487-.735.17-1.504.17-3.905 0-3.905-4.246 0-2.008.992-3.085 1-1.085 2.854-1.085 1.153 0 2.52.265v2.239h-.47l-.367-1.419q-.71-.401-1.7-.401-2.29 0-2.29 3.486 0 1.811.692 2.589.7.769 2.161.769 1.248 0 2.17-.282v.513zM32.216 58.765q-.966.769-2.256.769-3.29 0-3.29-4.11 0-2.111.931-3.205.932-1.102 2.743-1.102.923 0 1.872.196-.052-.282-.052-1.418V47.81l-1.35-.205v-.385h2.769v11.545l.991.213v.385h-2.256l-.102-.598zm-4.008-3.341q0 1.623.547 2.426.547.795 1.675.795.965 0 1.734-.333v-6.35q-.76-.144-1.734-.144-2.222 0-2.222 3.606zM37.01 55.321v.154q0 1.179.256 1.837.265.65.803.991.547.342 1.427.342.461 0 1.094-.077.632-.077 1.042-.17v.478q-.41.265-1.12.461-.7.197-1.435.197-1.871 0-2.743-1.009-.863-1.008-.863-3.238 0-2.102.88-3.136.88-1.034 2.513-1.034 3.084 0 3.084 3.503v.701H37.01zm1.854-3.52q-.89 0-1.368.717-.47.718-.47 2.12h3.435q0-1.53-.393-2.18-.393-.657-1.204-.657zM44.469 52.048h-1.384v-.418l1.384-.334v-.564q0-1.777.7-2.734.71-.957 1.983-.957.658 0 1.222.162v1.752h-.419l-.384-1.051q-.29-.18-.7-.18-.54 0-.761.48-.223.478-.223 1.794v1.333h2.137v.717h-2.137v6.648l1.735.282v.385h-4.34v-.385l1.187-.282v-6.648zM55.825 53.868q0 1.385-.829 2.094-.829.71-2.384.71-.7 0-1.299-.129l-.538 1.12q.026.145.333.273.308.128.77.128h2.375q1.299 0 1.923.564.632.564.632 1.555 0 .897-.504 1.564-.496.666-1.461 1.025-.966.368-2.342.368-1.64 0-2.503-.505-.855-.504-.855-1.435 0-.453.308-.897.307-.436 1.128-1.026-.487-.162-.82-.555-.334-.393-.334-.846l1.35-1.521q-1.35-.632-1.35-2.487 0-1.316.829-2.033.837-.718 2.427-.718.316 0 .811.068.496.06.76.146l1.89-.949.298.368-1.187 1.23q.572.64.572 1.888zm-.35 6.58q0-.487-.3-.76-.298-.274-.905-.274h-3.11q-.36.308-.59.778-.222.478-.222.888 0 .735.53 1.051.53.325 1.623.325 1.427 0 2.196-.53.778-.53.778-1.478zm-2.846-4.426q.932 0 1.316-.53.393-.538.393-1.624 0-1.136-.401-1.615-.402-.487-1.29-.487-.898 0-1.316.487-.42.487-.42 1.615 0 1.128.411 1.641.41.513 1.307.513zM59.927 50.698q0 .889-.06 1.282.615-.35 1.393-.607.786-.256 1.324-.256 1.043 0 1.573.607.53.606.53 1.76v5.28l.973.214v.385H62.2v-.385l1.068-.213v-5.179q0-1.47-1.419-1.47-.803 0-1.922.248v6.4l1.085.214v.385h-3.52v-.385l1.016-.213V47.81l-1.196-.205v-.385h2.615v3.478zM69.13 48.707q0 .376-.274.65-.273.273-.658.273-.376 0-.65-.273-.273-.274-.273-.65 0-.384.274-.658.273-.273.65-.273.384 0 .657.273.274.274.274.658zm-.086 10.058l1.376.213v.385h-4.162v-.385l1.368-.213v-6.836l-1.137-.214v-.384h2.555v7.434zM74.103 48.707q0 .376-.274.65-.273.273-.65.273-.384 0-.657-.273-.273-.274-.273-.65 0-.384.273-.658.273-.273.658-.273.376 0 .65.273.273.274.273.658zm-.086 10.989q0 1.666-.65 2.53-.64.862-1.888.862-.53 0-1.239-.153v-1.7h.402l.23.93q.283.24.71.24.504 0 .76-.539.257-.538.257-1.734v-8.203l-1.205-.214v-.384h2.623v8.365zM78.538 55.492l3.29-3.546-.838-.23v-.385h2.837v.384l-1 .197-2.29 2.34 2.94 4.53.871.196v.385h-3.29v-.385l.735-.213-2.204-3.461-1.051 1.154v2.307l.854.213v.385h-3.29v-.385l1.017-.213V47.81l-1.188-.205v-.385h2.607v8.272zM87.484 58.765l1.376.213v.385h-4.162v-.385l1.368-.213V47.81l-1.368-.205v-.385h2.786v11.545zM91.987 51.98q.641-.367 1.359-.615t1.265-.248q.59 0 1.085.222.504.222.752.71.658-.368 1.538-.65.889-.282 1.47-.282 2.05 0 2.05 2.367v5.28l1.034.214v.385h-3.648v-.385l1.196-.213v-5.127q0-1.47-1.367-1.47-.222 0-.522.034-.29.034-.59.077-.29.043-.563.103l-.444.085q.145.462.145 1.017v5.28l1.205.214v.385H94.14v-.385l1.187-.213v-5.127q0-.71-.367-1.085-.359-.385-1.085-.385-.752 0-1.872.248v6.349l1.205.213v.385h-3.64v-.385l1.017-.213v-6.836l-1.017-.214v-.384h2.35l.068.649zM105.574 51.98q.658-.376 1.401-.615.744-.248 1.24-.248 1.042 0 1.571.607.53.606.53 1.76v5.28l.974.214v.385h-3.46v-.385l1.068-.213v-5.127q0-.71-.35-1.111-.342-.41-1.069-.41-.769 0-1.888.247v6.4l1.085.214v.385h-3.47v-.385l.966-.213v-6.836l-.965-.214v-.384h2.29l.077.649zM119.639 55.304q0 4.23-3.76 4.23-1.812 0-2.734-1.086-.923-1.085-.923-3.144 0-2.034.923-3.11.922-1.077 2.802-1.077 1.829 0 2.76 1.06.932 1.05.932 3.127zm-1.538 0q0-1.846-.539-2.675-.538-.828-1.683-.828-1.12 0-1.624.794-.495.795-.495 2.709 0 1.94.504 2.751.513.804 1.615.804 1.128 0 1.675-.838.547-.837.547-2.717zM121.604 51.929l-.914-.214v-.384h2.256l.017.47q.359-.308.957-.496.606-.188 1.23-.188 1.538 0 2.376 1.068.846 1.068.846 3.068 0 2.042-.923 3.161-.915 1.12-2.65 1.12-.965 0-1.836-.188.051.615.051.965v2.17l1.401.206v.401h-3.828v-.401l1.017-.205V51.929zm5.23 3.324q0-1.64-.539-2.436-.53-.803-1.615-.803-1 0-1.666.282v6.417q.76.146 1.666.146 2.153 0 2.153-3.606zM136.002 50.946h.598v11.536l.889.205v.401h-3.41v-.401l1.103-.205v-2.23q0-.83.085-1.428-.914.71-2.29.71-3.29 0-3.29-4.162 0-2.059.923-3.153.932-1.102 2.718-1.102.957 0 1.905.196l.77-.367zm-4.776 4.426q0 1.632.538 2.453.547.82 1.683.82.504 0 .991-.085.496-.086.744-.197v-6.4q-.76-.145-1.735-.145-2.221 0-2.221 3.554zM143.479 51.117v2.17h-.367l-.496-.94q-.427 0-1.017.12-.58.111-1.008.3v5.998l1.376.213v.385h-3.811v-.385l1.016-.213v-6.836l-1.016-.214v-.384h2.34l.078 1q.512-.428 1.384-.821.88-.393 1.393-.393h.128zM149.828 57.107q0 1.196-.76 1.811-.753.616-2.23.616-.599 0-1.325-.128-.718-.12-1.128-.274v-1.974h.384l.419 1.12q.64.58 1.666.58 1.658 0 1.658-1.418 0-1.042-1.307-1.487l-.76-.247q-.864-.282-1.257-.573-.393-.29-.607-.71-.213-.426-.213-1.025 0-1.06.717-1.666.727-.615 1.957-.615.88 0 2.205.265v1.752h-.402l-.359-.932q-.453-.401-1.427-.401-.692 0-1.06.341-.358.342-.358.923 0 .487.325.82.333.334 1 .556 1.255.427 1.64.624.384.196.65.487.273.282.418.65.154.367.154.905zM153.306 59.534q-.82 0-1.23-.487-.402-.487-.402-1.368v-5.63h-1.051v-.385l1.068-.333.863-1.82h.538v1.82h1.837v.717h-1.837v5.478q0 .555.248.837.256.282.666.282.496 0 1.205-.137v.556q-.299.205-.863.333-.564.137-1.042.137zM157.98 57.073q0 1.47 1.367 1.47 1.06 0 1.982-.265v-6.35l-1.213-.213v-.384h2.623v7.434l1.017.213v.385h-2.341l-.069-.65q-.606.334-1.401.581-.795.24-1.333.24-2.05 0-2.05-2.359V51.93l-1.026-.214v-.384h2.444v5.742zM168.815 59.534h-.633l-3.307-7.605-.82-.214v-.384h3.743v.384l-1.273.23 2.341 5.546 2.239-5.562-1.273-.214v-.384h2.973v.384l-.769.18-3.221 7.639zM181.786 59.534h-.667l-1.982-5.298-1.957 5.298h-.632l-2.777-7.605-.949-.214v-.384h3.82v.384l-1.333.23 1.905 5.427 1.94-5.238h.718l1.931 5.272 1.82-5.477-1.316-.214v-.384h3.06v.384l-.89.18-2.691 7.639zM193.988 58.978v.385h-3.64v-.385l1.068-.196-1.854-2.846-2.17 2.863 1.102.18v.384h-2.889v-.385l.932-.136 2.64-3.487-2.324-3.426-.948-.214v-.384h3.64v.384l-1.068.23 1.546 2.308 1.778-2.324-1.103-.214v-.384h2.888v.384l-.922.18-2.256 2.922 2.64 3.982.94.18zM195.902 63.14q-.666 0-1.316-.154V61.25h.402l.282.82q.265.197.735.197.444 0 .82-.256.376-.257.684-.76.316-.505.786-1.804l-3.06-7.52-.82-.213v-.384h3.726v.384l-1.265.23 2.17 5.615 2.103-5.631-1.256-.214v-.384h2.99v.384l-.837.18-3.136 7.972q-.555 1.41-.966 2.025-.41.615-.905.931-.496.317-1.137.317zM203.422 59.363v-.385l4.409-6.964h-1.889q-.478 0-.922.086-.445.077-.616.213l-.265 1.154h-.401V51.33h5.93v.418l-4.41 6.93h2.35q.488 0 1.026-.11.538-.12.76-.291l.436-1.684h.402l-.214 2.769h-6.596zM5.71 80.785v.453H1.94v-.453l1.3-.23 3.905-10.87h1.623l4.06 10.87 1.452.23v.453H9.435v-.453l1.538-.23-1.137-3.308H5.325L4.17 80.554l1.538.23zm1.836-9.87l-1.965 5.563h3.99l-2.025-5.562zM22.603 72.556q0-1.05-.658-1.53-.658-.478-2.137-.478H18.04v4.332h1.87q1.385 0 2.035-.547.658-.546.658-1.777zm.863 5.418q0-1.205-.804-1.76-.803-.565-2.572-.565h-2.05v4.82q1.179.051 2.512.051 1.46 0 2.187-.615.727-.624.727-1.931zm-8.545 3.264v-.453l1.47-.23v-10.1l-1.47-.223v-.453h5.238q2.179 0 3.187.65 1.008.64 1.008 2.042 0 1.008-.624 1.717-.615.71-1.734.949 1.546.162 2.392.905.846.735.846 1.897 0 1.65-1.145 2.504-1.136.846-3.324.846l-3.657-.051h-2.187zM32.72 81.409q-2.786 0-4.341-1.513-1.555-1.52-1.555-4.255 0-2.957 1.495-4.47 1.495-1.52 4.435-1.52 1.786 0 3.837.436l.05 2.503h-.563l-.256-1.486q-.599-.368-1.393-.564-.786-.206-1.607-.206-2.196 0-3.204 1.29-1.008 1.291-1.008 4 0 2.495 1.05 3.81 1.06 1.317 3.077 1.317.974 0 1.837-.231.863-.24 1.367-.632l.316-1.71h.556l-.052 2.692q-1.88.539-4.041.539zM47.947 75.427q0-2.4-1.3-3.64-1.29-1.239-3.69-1.239h-1.539v9.887q1.026.068 2.436.068 2.102 0 3.093-1.239 1-1.24 1-3.837zm-4.444-5.648q3.17 0 4.7 1.419 1.53 1.41 1.53 4.246 0 2.871-1.479 4.35-1.47 1.478-4.4 1.478l-4.085-.034H38.3v-.453l1.47-.23v-10.1l-1.47-.223v-.453h5.204zM50.946 80.785l1.47-.23v-10.1l-1.47-.223v-.453h8.596v2.743h-.564l-.273-1.854q-.957-.12-2.769-.12h-1.871v4.478h3.093l.265-1.368h.547v3.521h-.547l-.265-1.384h-3.093v4.674h2.256q2.204 0 2.888-.137l.487-2.12h.564l-.162 3.026h-9.152v-.453zM64.763 76.094v4.46l1.906.23v.454h-4.914v-.453l1.359-.23v-10.1l-1.47-.223v-.453h8.596v2.743h-.563l-.274-1.854q-.957-.12-2.768-.12h-1.872v4.777h3.375l.265-1.367h.522v3.52h-.522l-.265-1.384h-3.375zM81.853 80.64q-.991.324-2.06.547-1.067.222-2.298.222-2.786 0-4.34-1.504-1.556-1.504-1.556-4.264 0-3.008 1.504-4.495 1.512-1.495 4.426-1.495 2.085 0 4.025.513v2.46h-.573l-.23-1.418q-.59-.419-1.419-.64-.82-.232-1.734-.232-2.188 0-3.205 1.308-1.008 1.299-1.008 3.982 0 2.52 1.042 3.828 1.043 1.299 3.085 1.299.718 0 1.504-.171t1.196-.41v-3.256l-1.47-.222v-.462h4.23v.462l-1.119.222v3.726zM84.032 81.238v-.453l1.47-.23v-10.1l-1.47-.223v-.453h4.589v.453l-1.47.222v4.503h5.392v-4.503l-1.47-.222v-.453h4.58v.453l-1.47.222v10.1l1.47.23v.454h-4.58v-.453l1.47-.23v-4.829H87.15v4.828l1.47.23v.454h-4.589zM99.917 80.554l1.47.23v.454h-4.58v-.453l1.47-.23v-10.1l-1.47-.223v-.453h4.58v.453l-1.47.222v10.1zM105.522 70.454l-1.47-.222v-.453h4.41v.453l-1.299.222v7.092q0 1.145-.35 2.008-.35.855-1.068 1.36-.71.495-1.59.495-1.093 0-1.769-.257v-2.085h.564l.257 1.188q.162.197.461.308.3.11.658.11 1.196 0 1.196-1.623v-8.596zM120.382 69.779v.453l-1.324.222-3.914 3.828 4.896 6.272 1.24.23v.454h-2.803l-4.487-5.794-1.546 1.24v3.87l1.64.23v.454h-4.76l.001-.453 1.47-.23v-10.1l-1.47-.223v-.453h4.589v.453l-1.47.222v5.4l5.486-5.4-1.137-.222v-.453h3.59zM126.86 70.232l-1.77.222v10.049h2.256q1.82 0 2.675-.171l.53-2.384h.555l-.154 3.29h-8.98v-.453l1.47-.23v-10.1l-1.47-.223v-.453h4.887v.453zM139.531 81.238h-.299l-4.195-9.853v9.17l1.538.23v.453h-3.905v-.453l1.47-.23v-10.1l-1.47-.223v-.453h3.469l3.726 8.716 4.067-8.716h3.281v.453l-1.47.222v10.1l1.47.23v.454h-4.648v-.453l1.538-.23v-9.17l-4.572 9.853zM157.587 70.454l-1.538-.222v-.453h3.905v.453l-1.47.222v10.784h-.829l-7.067-10.305v9.621l1.538.23v.454h-3.905v-.453l1.47-.23v-10.1l-1.47-.223v-.453h3.47l5.896 8.485v-7.81zM162.867 75.496q0 2.76.923 3.999.923 1.239 2.888 1.239 1.957 0 2.889-1.24.931-1.238.931-3.998 0-2.743-.931-3.948-.923-1.214-2.889-1.214-1.973 0-2.896 1.214-.915 1.205-.915 3.948zm-1.785 0q0-5.845 5.596-5.845 2.769 0 4.187 1.487 1.419 1.478 1.419 4.358 0 2.922-1.436 4.417-1.435 1.496-4.17 1.496-2.725 0-4.16-1.487-1.436-1.495-1.436-4.426zM180.342 73.171q0-1.41-.658-2.016-.658-.607-2.213-.607h-.838v5.426h.889q1.444 0 2.128-.658.692-.658.692-2.145zm-3.709 3.572v3.811l1.82.23v.454h-4.828v-.453l1.36-.23v-10.1l-1.47-.223v-.453h4.323q4.204 0 4.204 3.375 0 1.76-1.068 2.675-1.06.914-3.05.914h-1.29zM185.255 75.513q0 2.76.923 3.99.923 1.23 2.888 1.23 1.957 0 2.888-1.221.932-1.222.932-4 0-2.76-.94-3.964-.932-1.214-2.88-1.214-1.965 0-2.888 1.222-.923 1.214-.923 3.957zm-1.786 0q0-5.862 5.597-5.862 2.752 0 4.179 1.487 1.427 1.478 1.427 4.375 0 4.195-3.034 5.443l.427.53q.752.94 1.282 1.341.53.402 1.043.402l.7-.034v.564q-.196.085-.743.196-.538.12-.94.12-.607 0-1.077-.205-.47-.197-.948-.641-.479-.436-1.598-1.855-.308.035-.718.035-2.743 0-4.17-1.496-1.427-1.504-1.427-4.4zM199.021 76.213v4.341l1.735.23v.454h-4.743v-.453l1.359-.23v-10.1l-1.47-.223v-.453h4.948q2.153 0 3.178.726 1.026.727 1.026 2.333 0 1.145-.624 1.983-.624.828-1.726 1.153l3.102 4.58 1.239.23v.454h-2.743l-3.222-5.025h-2.059zm4.332-3.255q0-1.308-.64-1.854-.633-.556-2.23-.556h-1.462v4.896h1.512q1.53 0 2.17-.564.65-.572.65-1.922zM208.275 78.153h.556l.299 1.547q.316.401 1.085.709.777.308 1.53.308 1.196 0 1.862-.607.675-.615.675-1.692 0-.615-.265-1.017-.256-.401-.683-.675-.419-.282-.957-.47-.539-.196-1.111-.393-.564-.196-1.102-.436-.539-.239-.966-.606-.419-.368-.684-.906-.256-.547-.256-1.342 0-1.367 1.025-2.145 1.026-.777 2.846-.777 1.384 0 3.008.367v2.384h-.556l-.299-1.401q-.871-.632-2.153-.632-1.145 0-1.795.47-.64.461-.64 1.281 0 .556.256.923.265.368.684.633.427.256.965.444.547.188 1.111.393.572.196 1.11.453.548.248.966.64.428.385.684.95.265.555.265 1.375 0 1.658-1.017 2.572-1.017.906-2.93.906-.924 0-1.855-.163-.932-.162-1.658-.444v-2.649zM219.52 81.238v-.453l1.82-.23V70.513h-.435q-2.162 0-2.957.17l-.23 1.787h-.573v-2.692h10.083v2.692h-.581l-.231-1.786q-.256-.06-1.12-.103-.862-.051-1.888-.051h-.418v10.023l1.82.23v.454h-5.29zM237.43 70.454l-1.538-.222v-.453h3.905v.453l-1.47.222V77.3q0 2.059-1.136 3.084-1.128 1.026-3.281 1.026-2.282 0-3.418-1.026-1.128-1.034-1.128-2.922v-7.007l-1.47-.222v-.453h4.58v.453l-1.47.222v6.879q0 3.119 3.034 3.119 1.64 0 2.512-.778.88-.778.88-2.307v-6.913zM252.615 69.779v.453l-1.256.222-4.606 11.049h-.436l-4.657-11.049-1.29-.222v-.453H245v.453l-1.538.222 3.47 8.434 3.46-8.434-1.504-.222v-.453h3.726zM264.56 81.503h-.452l-2.974-7.896-3.05 7.896h-.453l-3.794-11.049-1-.222v-.453h4.375v.453l-1.683.222 2.725 8.075 3.085-7.947h.385l2.973 7.947 2.598-8.075-1.786-.222v-.453h3.794v.453l-1 .222-3.742 11.049zM272.037 80.554l1.419.23v.454h-3.743v-.453l1.265-.23 3.896-5.179-3.324-4.922-1.29-.222v-.453h4.725v.453l-1.452.222 2.375 3.538 2.658-3.538-1.419-.222v-.453h3.751v.453l-1.264.222-3.222 4.29 3.94 5.81 1.298.23v.454h-4.725v-.453l1.453-.23-3.008-4.444-3.333 4.443zM289.136 76.726v3.828l1.82.23v.454h-5.29v-.453l1.82-.23v-3.778l-4.024-6.323-1.29-.222v-.453h4.845v.453l-1.538.222 3.29 5.29 3.127-5.29-1.453-.222v-.453h3.726v.453l-1.256.222-3.777 6.272zM295.459 80.435l6.426-9.921h-2.136q-2.111 0-2.906.17l-.265 1.804h-.59v-2.709h7.802v.735l-6.468 10.006h2.478q.991 0 2.008-.094 1.025-.094 1.444-.188l.504-2.187h.598l-.23 3.187h-8.665v-.803zM9.854 99.054q0 4.23-3.76 4.23-1.812 0-2.735-1.086-.922-1.085-.922-3.144 0-2.034.922-3.11.923-1.077 2.803-1.077 1.829 0 2.76 1.06.932 1.05.932 3.127zm-1.539 0q0-1.846-.538-2.675-.538-.828-1.683-.828-1.12 0-1.624.794-.495.795-.495 2.709 0 1.94.504 2.751.512.804 1.615.804 1.128 0 1.675-.838.546-.837.546-2.717zM13.024 97.37q0 2.76.923 4 .922 1.239 2.888 1.239 1.957 0 2.888-1.24.931-1.238.931-3.998 0-2.743-.931-3.948-.923-1.214-2.888-1.214-1.974 0-2.897 1.214-.914 1.205-.914 3.948zm-1.786 0q0-5.844 5.597-5.844 2.768 0 4.187 1.487 1.418 1.478 1.418 4.358 0 2.922-1.435 4.417-1.436 1.496-4.17 1.496-2.726 0-4.162-1.487-1.435-1.495-1.435-4.426zM31.25 97.336q0 5.948-3.76 5.948-1.811 0-2.734-1.521t-.923-4.427q0-2.845.923-4.349.923-1.512 2.803-1.512 1.811 0 2.751 1.495.94 1.487.94 4.366zm-1.572 0q0-2.751-.522-3.964-.52-1.214-1.666-1.214-1.11 0-1.598 1.145-.487 1.145-.487 4.033 0 2.906.496 4.093.495 1.18 1.59 1.18 1.127 0 1.657-1.24.53-1.247.53-4.033zM39.65 94.448q0 .94-.462 1.598-.453.65-1.23.991.974.36 1.504 1.128.538.76.538 1.855 0 1.623-.914 2.443-.915.82-2.846.82-3.657 0-3.657-3.263 0-1.137.547-1.88.547-.752 1.478-1.103-.743-.341-1.213-.99-.462-.65-.462-1.599 0-1.418.863-2.196.872-.777 2.513-.777 1.589 0 2.46.777.88.77.88 2.196zm-1.188 5.572q0-1.368-.538-1.983-.53-.615-1.684-.615-1.128 0-1.623.59-.496.58-.496 2.008 0 1.444.504 2.016.504.573 1.615.573 1.137 0 1.675-.59.547-.598.547-2zm-.35-5.572q0-1.179-.462-1.734-.461-.556-1.393-.556-.905 0-1.35.539-.436.538-.436 1.751 0 1.188.428 1.71.427.512 1.358.512.957 0 1.402-.521.453-.53.453-1.7zM48.28 92.457q0 .376-.273.65-.274.273-.658.273-.376 0-.65-.273-.273-.274-.273-.65 0-.384.273-.658.274-.273.65-.273.384 0 .658.273.273.274.273.658zm-.085 10.058l1.375.213v.385H45.41v-.385l1.367-.213v-6.836l-1.136-.214v-.384h2.555v7.434zM53.638 102.43l1.47.23v.453h-4.58v-.453l1.47-.23v-10.1l-1.47-.223v-.453h4.58v.453l-1.47.222v10.1zM58.876 102.515l1.375.213v.385h-4.16v-.385l1.366-.213V91.56l-1.367-.205v-.385h2.786v11.545zM65.985 92.107l-1.769.222v10.049h2.256q1.82 0 2.675-.171l.53-2.384h.555l-.154 3.29h-8.98v-.453l1.47-.23v-10.1l-1.47-.223v-.453h4.887v.453zM76.65 102.43l2.34.23v.453h-6.16v-.453l2.35-.23V93.08l-2.316.829v-.453l3.34-1.897h.445v10.87zM90.073 105.454q-1.076 0-1.657-.658-.573-.658-.573-1.854v-2.52q0-1-.453-1.496-.444-.504-1.384-.539v-.384q1.837-.034 1.837-2.017v-2.512q0-1.205.555-1.854.556-.65 1.675-.65h1.154v.402h-.53q-.778 0-1.11.47-.326.461-.326 1.367v2.82q0 .812-.444 1.401-.444.581-1.196.744v.025q.76.18 1.196.76.444.573.444 1.402v2.854q0 .906.325 1.367.333.47 1.111.47h.53v.402h-1.154zM94.414 105.454v-.402h.53q.777 0 1.102-.47.333-.46.333-1.367v-2.854q0-.829.436-1.401.436-.581 1.205-.76v-.026q-.752-.162-1.196-.752-.445-.59-.445-1.393v-2.82q0-.906-.333-1.367-.325-.47-1.102-.47h-.53v-.402h1.162q1.111 0 1.666.65.556.65.556 1.854v2.512q0 1.983 1.837 2.017v.384q-.923.035-1.384.53-.453.496-.453 1.504v2.52q0 1.189-.581 1.847-.573.666-1.64.666h-1.163zM106.907 105.454V90.97h3.896v.402l-2.538.35v12.98l2.538.35v.402h-3.896zM112.085 105.454v-.402l2.538-.35v-12.98l-2.538-.35v-.402h3.896v14.484h-3.896zM129.106 97.618q0 1.385-.828 2.094-.83.71-2.384.71-.701 0-1.3-.129l-.538 1.12q.026.145.334.273.307.128.769.128h2.375q1.299 0 1.923.564.632.564.632 1.555 0 .897-.504 1.564-.496.666-1.461 1.025-.966.368-2.342.368-1.64 0-2.503-.505-.855-.504-.855-1.435 0-.453.308-.897.308-.436 1.128-1.026-.487-.162-.82-.555-.334-.393-.334-.846l1.35-1.521q-1.35-.632-1.35-2.487 0-1.316.83-2.033.837-.718 2.426-.718.316 0 .812.068.495.06.76.146l1.889-.949.299.368-1.188 1.23q.572.64.572 1.888zm-.35 6.58q0-.487-.299-.76-.299-.274-.906-.274h-3.11q-.359.308-.59.778-.222.478-.222.888 0 .735.53 1.051.53.325 1.623.325 1.427 0 2.197-.53.777-.53.777-1.478zm-2.845-4.426q.931 0 1.316-.53.393-.538.393-1.624 0-1.136-.402-1.615-.402-.487-1.29-.487-.897 0-1.316.487-.419.487-.419 1.615 0 1.128.41 1.641.41.513 1.308.513zM130.986 95.149q0-1.726.966-2.675.965-.948 2.726-.948 1.957 0 2.862 1.41.915 1.41.915 4.418 0 2.88-1.171 4.409-1.17 1.52-3.29 1.52-1.393 0-2.555-.29v-1.982h.556l.299 1.23q.273.128.735.23.461.103.931.103 1.367 0 2.102-1.196.735-1.205.812-3.537-1.3.726-2.64.726-1.513 0-2.385-.897-.863-.906-.863-2.521zm3.709-2.94q-2.136 0-2.136 2.974 0 1.307.512 1.931.513.624 1.59.624 1.102 0 2.221-.453 0-2.623-.52-3.845-.514-1.23-1.667-1.23zM146.12 94.696h.598v11.536l.888.205v.401h-3.41v-.401l1.103-.205v-2.23q0-.83.085-1.428-.914.71-2.29.71-3.29 0-3.29-4.162 0-2.059.923-3.153.932-1.102 2.718-1.102.957 0 1.905.196l.77-.367zm-4.777 4.426q0 1.632.538 2.453.547.82 1.683.82.505 0 .992-.085.495-.086.743-.197v-6.4q-.76-.145-1.735-.145-2.221 0-2.221 3.554zM154.536 103.284q-2.786 0-4.34-1.513-1.556-1.52-1.556-4.255 0-2.957 1.495-4.47 1.496-1.52 4.435-1.52 1.786 0 3.837.436l.051 2.503h-.564l-.256-1.486q-.598-.368-1.393-.564-.786-.206-1.606-.206-2.196 0-3.205 1.29-1.008 1.291-1.008 4 0 2.495 1.051 3.81 1.06 1.317 3.076 1.317.974 0 1.837-.231.863-.24 1.368-.632l.316-1.71h.555l-.051 2.692q-1.88.539-4.042.539zM170.583 102.515q-.99.324-2.059.547-1.068.222-2.298.222-2.786 0-4.341-1.504-1.555-1.504-1.555-4.264 0-3.008 1.503-4.495 1.513-1.495 4.427-1.495 2.085 0 4.024.513v2.46h-.572l-.23-1.418q-.59-.419-1.42-.64-.82-.232-1.734-.232-2.187 0-3.204 1.308-1.009 1.299-1.009 3.982 0 2.52 1.043 3.828 1.042 1.299 3.085 1.299.717 0 1.504-.171.786-.171 1.196-.41v-3.256l-1.47-.222v-.462h4.23v.462l-1.12.222v3.726zM174.762 97.388q0 2.76.923 3.99.923 1.23 2.888 1.23 1.957 0 2.888-1.221.932-1.222.932-4 0-2.76-.94-3.964-.932-1.214-2.88-1.214-1.965 0-2.888 1.222-.923 1.214-.923 3.957zm-1.786 0q0-5.862 5.597-5.862 2.751 0 4.178 1.487 1.427 1.478 1.427 4.375 0 4.195-3.033 5.443l.427.53q.752.94 1.282 1.341.53.402 1.042.402l.701-.034v.564q-.196.085-.743.196-.539.12-.94.12-.607 0-1.077-.205-.47-.197-.948-.641-.479-.436-1.598-1.855-.308.035-.718.035-2.743 0-4.17-1.496-1.427-1.504-1.427-4.4zM195.945 98.823q-.906 0-2.094-1.034-.632-.538-1.05-.777-.41-.248-.736-.248-.658 0-.99.47-.334.461-.445 1.59h-.863q.154-1.599.718-2.265.572-.675 1.58-.675.479 0 .983.248.513.247 1.154.786.735.615 1.085.829.359.205.658.205.59 0 .923-.445.333-.453.495-1.623h.88q-.145 1.11-.418 1.7-.274.59-.727.915-.452.324-1.153.324zM199.397 99.644v-1.308h4.546v1.308h-4.546zM209.967 97.738v3.64h-.88v-3.64h-3.623v-.872h3.623v-3.64h.88v3.64h3.64v.872h-3.64zM223.485 98.618v.872h-8.143v-.872h8.143zm0-3.503v.871h-8.143v-.871h8.143zM225.237 101.523v-.88l6.913-3.34-6.913-3.342v-.88l8.143 4.008v.427l-8.143 4.007z"/></g></g></svg>