<svg xmlns="http://www.w3.org/2000/svg" width="328.734" height="114.462" viewBox="0 0 308.188 107.308"><g font-weight="400" font-family="LiterationSans Nerd Font" letter-spacing="0" word-spacing="0" fill="#fff"><g style="line-height:125%;text-decoration-line:underline" font-size="27.5" text-decoration="underline"><path d="M0 19.927V1.007h2.565v16.825h9.56v2.095H0zM14.891 2.31V0h2.417v2.31h-2.417zm0 17.617V5.397h2.417v14.53h-2.417zM26.614 19.82q-1.195.322-2.444.322-2.9 0-2.9-3.29V7.157H19.59v-1.76h1.773l.711-3.249h1.612v3.25h2.685v1.759h-2.685v9.171q0 1.047.335 1.477.35.416 1.195.416.484 0 1.397-.188v1.786zM30.508 13.173q0 2.497 1.034 3.853 1.034 1.357 3.021 1.357 1.571 0 2.511-.632.953-.63 1.289-1.597l2.122.604q-1.303 3.437-5.922 3.437-3.223 0-4.915-1.92-1.678-1.92-1.678-5.707 0-3.598 1.678-5.518 1.692-1.92 4.821-1.92 6.405 0 6.405 7.72v.323H30.508zm7.868-1.853q-.201-2.297-1.168-3.344-.967-1.06-2.78-1.06-1.758 0-2.792 1.18-1.02 1.17-1.101 3.224h7.841zM44.016 19.927V8.782q0-1.531-.08-3.384h2.282q.108 2.47.108 2.967h.053q.578-1.866 1.33-2.55.752-.686 2.121-.686.484 0 .98.135v2.215q-.483-.134-1.289-.134-1.503 0-2.296 1.302-.792 1.29-.792 3.707v7.573h-2.417zM56.853 20.195q-2.189 0-3.29-1.154-1.1-1.155-1.1-3.17 0-2.255 1.476-3.464 1.49-1.208 4.794-1.289l3.263-.054v-.792q0-1.772-.752-2.538-.752-.765-2.363-.765-1.625 0-2.364.55-.738.551-.886 1.76l-2.524-.229q.617-3.92 5.827-3.92 2.74 0 4.123 1.262 1.383 1.248 1.383 3.625v6.257q0 1.075.282 1.625.282.537 1.074.537.349 0 .792-.094v1.504q-.913.215-1.866.215-1.343 0-1.96-.698-.605-.712-.686-2.216h-.08q-.927 1.665-2.162 2.364-1.222.684-2.981.684zm.55-1.812q1.33 0 2.364-.605 1.034-.604 1.625-1.651.604-1.061.604-2.176v-1.195l-2.645.054q-1.706.027-2.592.35-.873.321-1.343.993-.47.671-.47 1.759 0 1.182.631 1.826.645.645 1.827.645zM74.04 19.82q-1.195.322-2.443.322-2.9 0-2.9-3.29V7.157h-1.68v-1.76h1.773l.712-3.249h1.611v3.25H73.8v1.759h-2.686v9.171q0 1.047.336 1.477.35.416 1.195.416.483 0 1.397-.188v1.786zM76.068 2.31V0h2.417v2.31h-2.417zm0 17.617V5.397h2.417v14.53h-2.417zM94.491 12.649q0 3.813-1.679 5.68-1.678 1.866-4.874 1.866-3.182 0-4.807-1.933-1.625-1.947-1.625-5.613 0-7.52 6.513-7.52 3.33 0 4.9 1.84 1.572 1.826 1.572 5.68zm-2.538 0q0-3.008-.9-4.364-.886-1.37-2.994-1.37-2.122 0-3.075 1.397-.94 1.383-.94 4.337 0 2.873.927 4.324.94 1.436 2.94 1.436 2.176 0 3.102-1.396.94-1.397.94-4.364zM106.737 19.927v-9.212q0-1.436-.282-2.229-.282-.792-.9-1.141-.617-.35-1.812-.35-1.746 0-2.753 1.196-1.007 1.195-1.007 3.317v8.419h-2.417V8.5q0-2.538-.08-3.102h2.282q.013.067.027.362.013.296.027.685.027.376.053 1.437h.04q.833-1.504 1.92-2.122 1.102-.63 2.727-.63 2.39 0 3.49 1.194 1.115 1.182 1.115 3.921v9.682h-2.43zM128.047 14.703q0 2.619-2.055 4.056-2.04 1.436-5.76 1.436-6.915 0-8.016-4.807l2.484-.497q.43 1.706 1.826 2.511 1.396.793 3.8.793 2.484 0 3.827-.846 1.356-.86 1.356-2.511 0-.927-.43-1.504-.416-.578-1.181-.954-.766-.376-1.826-.63-1.061-.256-2.35-.551-2.243-.497-3.411-.994-1.155-.497-1.826-1.101-.672-.618-1.034-1.437-.35-.819-.35-1.88 0-2.43 1.854-3.746 1.866-1.316 5.33-1.316 3.223 0 4.929.994 1.705.98 2.39 3.357l-2.525.443q-.416-1.504-1.584-2.175-1.168-.685-3.236-.685-2.27 0-3.465.752-1.195.752-1.195 2.242 0 .873.457 1.45.47.564 1.343.967.872.39 3.477.967.873.201 1.733.416.872.202 1.665.497.792.282 1.477.671.698.39 1.208.954t.792 1.33q.296.764.296 1.798zM134.895 20.195q-2.189 0-3.29-1.154-1.1-1.155-1.1-3.17 0-2.255 1.476-3.464 1.49-1.208 4.794-1.289l3.263-.054v-.792q0-1.772-.752-2.538-.752-.765-2.363-.765-1.625 0-2.364.55-.738.551-.886 1.76l-2.524-.229q.617-3.92 5.827-3.92 2.74 0 4.123 1.262 1.383 1.248 1.383 3.625v6.257q0 1.075.282 1.625.282.537 1.074.537.349 0 .792-.094v1.504q-.913.215-1.866.215-1.343 0-1.96-.698-.605-.712-.686-2.216h-.08q-.927 1.665-2.162 2.364-1.222.684-2.981.684zm.55-1.812q1.33 0 2.364-.605 1.034-.604 1.625-1.651.604-1.061.604-2.176v-1.195l-2.645.054q-1.706.027-2.592.35-.873.321-1.343.993-.47.671-.47 1.759 0 1.182.631 1.826.645.645 1.827.645zM155.721 19.927v-9.212q0-1.436-.282-2.229-.282-.792-.9-1.141-.617-.35-1.812-.35-1.746 0-2.753 1.196-1.007 1.195-1.007 3.317v8.419h-2.417V8.5q0-2.538-.08-3.102h2.282q.014.067.027.362.014.296.027.685.027.376.054 1.437h.04q.833-1.504 1.92-2.122 1.101-.63 2.726-.63 2.39 0 3.491 1.194 1.115 1.182 1.115 3.921v9.682h-2.43zM172.708 15.912q0 2.054-1.558 3.169-1.544 1.114-4.337 1.114-2.713 0-4.19-.886-1.463-.9-1.906-2.793l2.135-.416q.308 1.168 1.275 1.719.967.537 2.686.537 1.84 0 2.685-.564.86-.564.86-1.692 0-.86-.591-1.397t-1.907-.886l-1.732-.456q-2.081-.538-2.968-1.048-.872-.523-1.37-1.262-.496-.738-.496-1.813 0-1.987 1.41-3.021 1.423-1.047 4.136-1.047 2.403 0 3.813.846 1.423.846 1.8 2.712l-2.176.269q-.201-.967-1.088-1.477-.872-.524-2.35-.524-1.638 0-2.416.497-.78.497-.78 1.504 0 .617.323 1.02.322.403.953.685.632.282 2.66.779 1.92.483 2.765.9.846.402 1.33.899.496.497.765 1.155.269.644.269 1.477zM195.857 19.927L185.732 3.813l.068 1.303.067 2.242v12.569h-2.283V1.007h2.98l10.233 16.22q-.161-2.631-.161-3.813V1.007h2.31v18.92h-3.09zM204.907 13.173q0 2.497 1.034 3.853 1.034 1.357 3.021 1.357 1.571 0 2.511-.632.954-.63 1.29-1.597l2.121.604q-1.302 3.437-5.922 3.437-3.222 0-4.914-1.92-1.679-1.92-1.679-5.707 0-3.598 1.679-5.518 1.692-1.92 4.82-1.92 6.405 0 6.405 7.72v.323h-10.366zm7.869-1.853q-.202-2.297-1.168-3.344-.967-1.06-2.78-1.06-1.759 0-2.793 1.18-1.02 1.17-1.1 3.224h7.84zM218.416 19.927V8.782q0-1.531-.081-3.384h2.283q.107 2.47.107 2.967h.054q.577-1.866 1.33-2.55.751-.686 2.12-.686.484 0 .98.135v2.215q-.482-.134-1.288-.134-1.504 0-2.296 1.302-.793 1.29-.793 3.707v7.573h-2.417zM236.718 17.59q-.672 1.397-1.786 2.001-1.101.604-2.74.604-2.752 0-4.055-1.853-1.289-1.853-1.289-5.613 0-7.6 5.344-7.6 1.652 0 2.753.605 1.101.604 1.773 1.92h.026l-.026-1.625V0h2.417v16.932q0 2.27.08 2.995h-2.31q-.04-.215-.093-.994-.04-.779-.04-1.343h-.054zm-7.332-4.941q0 3.048.806 4.364.805 1.316 2.618 1.316 2.054 0 2.981-1.423.927-1.424.927-4.418 0-2.887-.927-4.23-.927-1.343-2.954-1.343-1.826 0-2.645 1.356-.806 1.343-.806 4.378zM253.448 3.102v7.036h10.555v2.122h-10.555v7.667h-2.564V1.007h13.44v2.095h-10.876zM279.579 12.649q0 3.813-1.679 5.68-1.678 1.866-4.874 1.866-3.182 0-4.807-1.933-1.625-1.947-1.625-5.613 0-7.52 6.513-7.52 3.33 0 4.9 1.84 1.572 1.826 1.572 5.68zm-2.538 0q0-3.008-.9-4.364-.886-1.37-2.994-1.37-2.122 0-3.075 1.397-.94 1.383-.94 4.337 0 2.873.927 4.324.94 1.436 2.94 1.436 2.176 0 3.102-1.396.94-1.397.94-4.364zM291.825 19.927v-9.212q0-1.436-.282-2.229-.282-.792-.9-1.141-.617-.35-1.812-.35-1.746 0-2.753 1.196-1.007 1.195-1.007 3.317v8.419h-2.417V8.5q0-2.538-.08-3.102h2.282q.013.067.027.362.013.296.027.685.027.376.053 1.437h.04q.833-1.504 1.92-2.122 1.102-.63 2.727-.63 2.39 0 3.49 1.194 1.115 1.182 1.115 3.921v9.682h-2.43zM303.494 19.82q-1.195.322-2.444.322-2.9 0-2.9-3.29V7.157h-1.68v-1.76h1.773l.712-3.249h1.611v3.25h2.686v1.759h-2.686v9.171q0 1.047.336 1.477.35.416 1.195.416.484 0 1.397-.188v1.786z"/></g><g style="line-height:125%" font-size="17.5"><path d="M3.844 60.098q-1.393 0-2.094-.735-.7-.735-.7-2.017 0-1.435.94-2.204.948-.77 3.05-.82l2.077-.035v-.504q0-1.128-.479-1.615-.478-.487-1.504-.487-1.034 0-1.504.35t-.564 1.12l-1.606-.146q.393-2.495 3.708-2.495 1.744 0 2.624.803.88.795.88 2.308v3.982q0 .683.18 1.033.179.342.683.342.222 0 .504-.06v.957q-.581.137-1.188.137-.854 0-1.247-.444-.385-.453-.436-1.41h-.051q-.59 1.06-1.376 1.504-.778.436-1.897.436zm.35-1.154q.846 0 1.504-.384.658-.385 1.034-1.051.385-.676.385-1.385v-.76l-1.684.034q-1.085.017-1.649.222-.555.205-.854.632-.3.428-.3 1.12 0 .752.402 1.162.41.41 1.162.41zM19.045 55.261q0 4.837-3.4 4.837-1.051 0-1.752-.376-.692-.385-1.128-1.23h-.017q0 .264-.034.811-.035.538-.052.624h-1.486q.05-.462.05-1.906V47.246h1.539v3.615q0 .555-.034 1.307h.034q.427-.889 1.128-1.273.71-.385 1.752-.385 1.751 0 2.572 1.18.828 1.179.828 3.571zm-1.615.052q0-1.94-.512-2.778-.513-.837-1.667-.837-1.298 0-1.897.889-.59.888-.59 2.82 0 1.82.582 2.691.581.863 1.888.863 1.162 0 1.675-.854.521-.863.521-2.794zM22.139 55.261q0 1.846.58 2.735.582.888 1.752.888.82 0 1.368-.444.555-.444.683-1.367l1.555.102q-.179 1.333-1.136 2.128-.957.795-2.427.795-1.94 0-2.965-1.222-1.017-1.23-1.017-3.58 0-2.333 1.026-3.555 1.025-1.23 2.94-1.23 1.418 0 2.349.734.94.735 1.18 2.025l-1.582.12q-.12-.77-.606-1.222-.487-.453-1.385-.453-1.222 0-1.768.812-.547.812-.547 2.734zM35.554 58.44q-.427.889-1.136 1.273-.701.385-1.743.385-1.752 0-2.581-1.18-.82-1.179-.82-3.571 0-4.837 3.4-4.837 1.052 0 1.752.385.701.384 1.128 1.222h.017l-.017-1.034v-3.837h1.538v10.775q0 1.444.052 1.906h-1.47q-.026-.137-.06-.633-.026-.495-.026-.854h-.034zm-4.665-3.145q0 1.94.512 2.778.513.837 1.667.837 1.307 0 1.897-.906.59-.906.59-2.811 0-1.837-.59-2.692-.59-.854-1.88-.854-1.162 0-1.684.863-.512.854-.512 2.785zM40.638 55.629q0 1.589.658 2.452t1.923.863q1 0 1.598-.402.607-.401.82-1.016l1.35.384q-.829 2.188-3.768 2.188-2.05 0-3.127-1.222-1.069-1.222-1.069-3.632 0-2.29 1.069-3.512 1.076-1.222 3.067-1.222 4.076 0 4.076 4.914v.205h-6.597zm5.008-1.18q-.128-1.46-.744-2.127-.615-.675-1.768-.675-1.12 0-1.778.752-.65.743-.7 2.05h4.99zM51.106 51.8v8.127h-1.538V51.8h-1.299v-1.12h1.299V49.64q0-1.265.555-1.82.556-.556 1.7-.556.642 0 1.086.103v1.17q-.385-.068-.684-.068-.59 0-.854.299-.265.3-.265 1.085v.83h1.803V51.8h-1.803zM57.557 63.558q-1.512 0-2.41-.598-.897-.59-1.153-1.683l1.547-.222q.154.64.675.982.53.35 1.384.35 2.299 0 2.299-2.691v-1.487h-.017q-.436.889-1.197 1.342-.76.444-1.777.444-1.7 0-2.504-1.128-.794-1.128-.794-3.546 0-2.452.854-3.614.863-1.171 2.615-1.171.983 0 1.7.453.727.444 1.12 1.273h.017q0-.256.034-.889.034-.632.068-.692h1.462q-.052.462-.052 1.914v7.067q0 3.896-3.87 3.896zm2.342-8.254q0-1.128-.308-1.94-.308-.82-.872-1.247-.555-.436-1.264-.436-1.18 0-1.718.854-.538.855-.538 2.769 0 1.897.504 2.726t1.726.829q.727 0 1.29-.428.564-.427.872-1.222.308-.803.308-1.905zM65.325 52.262q.495-.906 1.187-1.325.701-.427 1.77-.427 1.503 0 2.212.752.718.744.718 2.504v6.16h-1.546v-5.861q0-.974-.18-1.444-.18-.479-.59-.7-.41-.223-1.136-.223-1.085 0-1.743.752-.65.752-.65 2.025v5.452H63.83v-12.68h1.538v3.297q0 .522-.034 1.077-.025.556-.034.641h.026zM73.528 48.716v-1.47h1.538v1.47h-1.538zm0 11.21v-9.245h1.538v9.246h-1.538zM77.424 48.716v-1.47h1.538v1.47h-1.538zm1.538 12.356q0 1.307-.512 1.897-.513.59-1.538.59-.658 0-1.086-.078v-1.187l.53.051q.59 0 .83-.308.238-.307.238-1.196v-10.16h1.538v10.39zM87.123 59.927l-3.128-4.221-1.128.931v3.29H81.33v-12.68h1.538v7.92l4.06-4.486h1.802l-3.751 3.974 3.948 5.272h-1.803zM90.08 59.927v-12.68h1.537v12.68H90.08zM99.36 59.927v-5.862q0-1.342-.368-1.854-.368-.513-1.325-.513-.982 0-1.555.752-.572.752-.572 2.12v5.357h-1.53v-7.272q0-1.615-.051-1.974h1.452q.01.043.017.23.01.189.018.437.017.239.034.914h.025q.496-.983 1.137-1.367.64-.385 1.564-.385 1.05 0 1.657.419.615.419.855 1.333h.025q.479-.931 1.154-1.342.684-.41 1.65-.41 1.4 0 2.033.76.64.761.64 2.496v6.16h-1.52v-5.861q0-1.342-.368-1.854-.367-.513-1.324-.513-1.009 0-1.573.752-.555.743-.555 2.12v5.357h-1.52zM114.44 59.927v-5.862q0-.914-.179-1.419-.179-.504-.572-.726-.393-.222-1.154-.222-1.11 0-1.751.76-.641.761-.641 2.111v5.358h-1.538v-7.272q0-1.615-.052-1.974h1.453q.01.043.017.23.01.189.017.437.017.239.034.914h.026q.53-.957 1.222-1.35.7-.402 1.735-.402 1.52 0 2.221.76.71.753.71 2.496v6.16h-1.547zM126.13 55.295q0 2.427-1.068 3.615-1.068 1.188-3.102 1.188-2.025 0-3.059-1.23-1.034-1.24-1.034-3.573 0-4.785 4.145-4.785 2.119 0 3.119 1.17 1 1.163 1 3.615zm-1.615 0q0-1.914-.572-2.777-.564-.871-1.906-.871-1.35 0-1.956.888-.599.88-.599 2.76 0 1.829.59 2.752.598.914 1.871.914 1.385 0 1.974-.888.598-.89.598-2.778zM135.872 55.261q0 4.837-3.401 4.837-2.137 0-2.871-1.607h-.043q.034.069.034 1.453v3.614h-1.538V52.57q0-1.427-.051-1.889h1.487q.009.034.025.248.017.205.034.64.026.437.026.599h.034q.41-.855 1.085-1.248.675-.401 1.778-.401 1.709 0 2.555 1.145.846 1.145.846 3.597zm-1.615.034q0-1.93-.522-2.76-.52-.828-1.657-.828-.915 0-1.436.384-.513.385-.786 1.205-.265.812-.265 2.12 0 1.82.581 2.682.581.863 1.889.863 1.145 0 1.666-.837.53-.846.53-2.829zM140.75 60.098q-1.76 0-2.58-1.188-.82-1.188-.82-3.563 0-4.837 3.4-4.837 1.052 0 1.735.376.684.368 1.145 1.23h.017q0-.256.035-.88.034-.632.068-.674h1.478q-.06.504-.06 2.52v10.476h-1.538v-3.75l.035-1.402h-.017q-.462.914-1.137 1.307-.675.385-1.76.385zm2.88-4.905q0-1.803-.59-2.675-.589-.871-1.88-.871-1.17 0-1.682.871-.513.872-.513 2.777 0 1.94.513 2.778.52.837 1.666.837 1.307 0 1.897-.931.59-.932.59-2.786zM147.57 59.927v-7.093q0-.974-.052-2.153h1.453q.068 1.572.068 1.889h.035q.367-1.188.845-1.624.479-.436 1.35-.436.308 0 .624.086v1.41q-.307-.086-.82-.086-.957 0-1.461.829-.504.82-.504 2.358v4.82h-1.538zM160.319 57.372q0 1.307-.992 2.016-.982.71-2.76.71-1.726 0-2.666-.564-.931-.573-1.213-1.778l1.359-.265q.196.744.811 1.094.616.342 1.71.342 1.17 0 1.708-.359.547-.359.547-1.077 0-.546-.376-.888-.376-.342-1.213-.564l-1.102-.29q-1.325-.343-1.889-.667-.555-.333-.871-.803-.317-.47-.317-1.154 0-1.265.898-1.923.905-.666 2.631-.666 1.53 0 2.427.538.906.539 1.145 1.726l-1.384.171q-.128-.615-.692-.94-.556-.333-1.496-.333-1.042 0-1.538.316-.495.316-.495.957 0 .393.205.65.205.256.607.435.401.18 1.691.496 1.222.308 1.76.573.539.256.847.572.316.316.487.735.17.41.17.94zM165.685 59.858q-.76.205-1.555.205-1.846 0-1.846-2.093V51.8h-1.068v-1.119h1.128l.453-2.068h1.025v2.068h1.709v1.12h-1.709v5.836q0 .666.214.94.222.265.76.265.308 0 .889-.12v1.136zM168.488 50.681v5.862q0 .914.179 1.418.18.505.573.727.393.222 1.153.222 1.11 0 1.752-.76.64-.761.64-2.111V50.68h1.539v7.272q0 1.615.051 1.974h-1.453q-.009-.043-.017-.231-.009-.188-.025-.427-.01-.248-.026-.923h-.026q-.53.957-1.23 1.359-.692.393-1.726.393-1.521 0-2.23-.752-.701-.76-.701-2.504v-6.16h1.547zM180.784 59.927h-1.82l-3.359-9.246h1.641l2.034 6.016q.11.342.59 2.025l.298-1 .334-1.008 2.102-6.033h1.632l-3.452 9.246zM194.327 59.927h-1.785l-1.615-6.537-.308-1.444q-.077.384-.24 1.11-.162.718-1.743 6.87h-1.777l-2.589-9.245h1.521l1.564 6.28q.06.206.367 1.693l.145-.633 1.932-7.34h1.649l1.615 6.349.393 1.624.265-1.188 1.751-6.785h1.504l-2.649 9.246zM203.787 59.927l-2.487-3.794-2.504 3.794h-1.657l3.29-4.751-3.137-4.495h1.7l2.308 3.598 2.29-3.598h1.718l-3.136 4.478 3.332 4.768h-1.717zM207.324 63.558q-.632 0-1.06-.094v-1.153q.325.051.718.051 1.436 0 2.273-2.11l.146-.368-3.666-9.203h1.64l1.949 5.11.102.29q.06.163.385 1.111.324.949.35 1.06l.598-1.683 2.025-5.888h1.624l-3.555 9.246q-.572 1.478-1.068 2.196-.495.726-1.102 1.076-.598.36-1.359.36zM215.151 59.927v-1.17l5.17-6.888h-4.88V50.68h6.7v1.17l-5.178 6.888h5.358v1.188h-7.17zM10.278 81.802l-1.375-3.52H3.417l-1.385 3.52H.341l4.913-12.04h1.854l4.837 12.04h-1.667zM6.16 70.992l-.077.24q-.214.709-.633 1.82l-1.538 3.956h4.504l-1.547-3.973q-.24-.59-.479-1.333l-.23-.71zM22.745 78.41q0 1.606-1.17 2.503-1.17.889-3.256.889h-4.888v-12.04h4.375q4.239 0 4.239 2.922 0 1.068-.598 1.795-.599.726-1.692.974 1.435.17 2.213.965.777.787.777 1.991zm-2.34-5.53q0-.973-.667-1.392-.667-.419-1.932-.419h-2.743v3.811h2.743q1.308 0 1.949-.487.65-.495.65-1.512zm.691 5.401q0-2.127-2.99-2.127h-3.043v4.34h3.17q1.496 0 2.18-.555.683-.555.683-1.658zM30.453 70.916q-2 0-3.11 1.29-1.111 1.282-1.111 3.52 0 2.213 1.153 3.564 1.162 1.341 3.136 1.341 2.53 0 3.803-2.504l1.333.667q-.744 1.555-2.094 2.367-1.341.812-3.119.812-1.82 0-3.153-.752-1.324-.76-2.025-2.162-.692-1.41-.692-3.333 0-2.88 1.555-4.511 1.555-1.632 4.307-1.632 1.922 0 3.213.751 1.29.752 1.897 2.23l-1.547.513q-.419-1.05-1.35-1.606-.923-.555-2.196-.555zM48.132 75.658q0 1.863-.726 3.264-.726 1.393-2.06 2.136-1.332.744-3.075.744h-4.504v-12.04h3.982q3.06 0 4.717 1.538 1.666 1.53 1.666 4.358zm-1.64 0q0-2.239-1.23-3.41-1.223-1.179-3.547-1.179H39.4v9.425h2.684q1.324 0 2.324-.58 1.008-.582 1.546-1.675.539-1.094.539-2.581zM50.414 81.802v-12.04h9.134v1.333h-7.502v3.862h6.99v1.316h-6.99v4.196h7.853v1.333h-9.485zM63.735 71.095v4.478h6.717v1.35h-6.717v4.879h-1.632v-12.04h8.554v1.333h-6.922zM72.246 75.726q0-2.93 1.572-4.537 1.573-1.606 4.418-1.606 2 0 3.247.675 1.248.675 1.923 2.161l-1.555.462q-.513-1.026-1.419-1.496-.897-.47-2.239-.47-2.085 0-3.187 1.265-1.102 1.256-1.102 3.546 0 2.282 1.17 3.606 1.171 1.316 3.239 1.316 1.18 0 2.196-.359 1.025-.359 1.658-.974v-2.17h-3.598v-1.367h5.102v4.152q-.957.975-2.35 1.513-1.384.53-3.008.53-1.888 0-3.256-.752-1.367-.752-2.093-2.162-.718-1.419-.718-3.333zM94.548 81.802v-5.58h-6.51v5.58h-1.633v-12.04h1.632v5.093h6.511v-5.093h1.632v12.04h-1.632zM99.231 81.802v-12.04h1.632v12.04h-1.632zM106.375 81.973q-3.06 0-3.632-3.162l1.598-.265q.154.991.692 1.547.538.555 1.35.555.889 0 1.401-.607.513-.615.513-1.794v-7.152h-2.316v-1.333h3.94v8.45q0 1.753-.949 2.76-.948 1-2.597 1zM120.67 81.802l-4.81-5.81-1.573 1.195v4.615h-1.632v-12.04h1.632v6.033l5.802-6.033h1.923l-5.127 5.23 5.81 6.81h-2.025zM124.344 81.802v-12.04h1.633v10.707h6.084v1.333h-7.717zM144.323 81.802V73.77q0-1.333.076-2.564-.418 1.53-.752 2.393l-3.11 8.203h-1.145l-3.153-8.203-.479-1.453-.281-.94.025.949.034 1.615v8.032h-1.452v-12.04h2.144l3.205 8.348q.17.504.325 1.086.162.572.213.828.069-.341.282-1.034.222-.7.3-.88l3.144-8.348h2.093v12.04h-1.47zM156.49 81.802l-6.442-10.254.042.829.043 1.427v7.998h-1.453v-12.04h1.897l6.512 10.322q-.103-1.675-.103-2.427v-7.895h1.47v12.04h-1.966zM172.666 75.726q0 1.889-.726 3.307-.718 1.419-2.068 2.18-1.35.76-3.187.76-1.855 0-3.205-.752-1.341-.752-2.05-2.17-.71-1.428-.71-3.325 0-2.888 1.581-4.511 1.58-1.632 4.4-1.632 1.838 0 3.188.734 1.35.727 2.06 2.12.717 1.392.717 3.29zm-1.666 0q0-2.247-1.128-3.529-1.12-1.281-3.17-1.281-2.068 0-3.196 1.264-1.128 1.265-1.128 3.546 0 2.265 1.136 3.598 1.145 1.324 3.17 1.324 2.086 0 3.196-1.282 1.12-1.29 1.12-3.64zM184.244 73.385q0 1.709-1.119 2.717-1.11 1.009-3.025 1.009h-3.537v4.69h-1.633V69.763h5.068q2.025 0 3.136.948 1.11.949 1.11 2.675zm-1.64.017q0-2.333-2.803-2.333h-3.238v4.751h3.306q2.735 0 2.735-2.418zM197.959 75.726q0 2.547-1.282 4.187-1.281 1.64-3.563 1.94.35 1.077.914 1.555.573.479 1.444.479.47 0 .983-.111v1.145q-.795.188-1.52.188-1.291 0-2.129-.735-.828-.727-1.358-2.436-1.692-.085-2.923-.854-1.222-.778-1.87-2.153-.642-1.385-.642-3.205 0-2.888 1.581-4.511 1.58-1.632 4.4-1.632 1.838 0 3.188.734 1.35.727 2.06 2.12.717 1.392.717 3.29zm-1.666 0q0-2.247-1.128-3.529-1.12-1.281-3.17-1.281-2.068 0-3.196 1.264-1.128 1.265-1.128 3.546 0 2.265 1.136 3.598 1.145 1.324 3.17 1.324 2.086 0 3.196-1.282 1.12-1.29 1.12-3.64zM208.734 81.802l-3.127-4.999h-3.752v4.999h-1.632v-12.04h5.666q2.033 0 3.136.914 1.11.906 1.11 2.53 0 1.341-.786 2.255-.777.915-2.153 1.154l3.418 5.187h-1.88zm-.24-8.58q0-1.05-.717-1.597-.71-.556-2.05-.556h-3.872v4.444h3.94q1.29 0 1.99-.598.71-.607.71-1.692zM222.303 78.478q0 1.666-1.307 2.58-1.299.915-3.666.915-4.4 0-5.101-3.06l1.58-.316q.274 1.086 1.163 1.598.889.504 2.418.504 1.58 0 2.435-.538.863-.547.863-1.598 0-.59-.273-.957-.265-.367-.752-.606-.487-.24-1.162-.402-.675-.162-1.495-.35-1.427-.317-2.17-.633-.736-.316-1.163-.7-.427-.394-.658-.915-.222-.521-.222-1.196 0-1.547 1.18-2.384 1.187-.837 3.392-.837 2.05 0 3.135.632 1.086.624 1.521 2.136l-1.606.282q-.265-.957-1.008-1.384-.744-.436-2.06-.436-1.444 0-2.204.478-.76.479-.76 1.427 0 .556.29.923.299.36.854.616.556.247 2.213.615.556.128 1.103.265.555.128 1.06.316.503.18.94.427.444.248.768.607.325.359.504.846.188.487.188 1.145zM229.276 71.095v10.707h-1.623V71.095h-4.136v-1.333h9.895v1.333h-4.136zM240.068 81.973q-1.478 0-2.58-.539-1.103-.538-1.71-1.563-.606-1.026-.606-2.444v-7.665h1.632v7.528q0 1.65.838 2.504.837.854 2.418.854 1.623 0 2.52-.88.906-.889.906-2.59v-7.416h1.624v7.51q0 1.462-.624 2.522-.615 1.06-1.752 1.623-1.128.556-2.666.556zM253.15 81.802h-1.691l-4.914-12.04h1.718l3.332 8.477.718 2.127.718-2.127 3.315-8.477h1.718l-4.913 12.04zM271.07 81.802h-1.949l-2.085-7.648q-.205-.718-.598-2.572-.222.991-.376 1.658-.154.666-2.333 8.562h-1.948l-3.546-12.04h1.7l2.162 7.648q.385 1.435.71 2.956.204-.94.47-2.05.273-1.111 2.375-8.554h1.564l2.093 7.494q.479 1.837.752 3.11l.077-.299q.23-.983.376-1.598.145-.624 2.401-8.707h1.7l-3.546 12.04zM284.169 81.802l-3.615-5.264-3.691 5.264h-1.803l4.58-6.255-4.23-5.785h1.803l3.35 4.725 3.255-4.725h1.803l-4.118 5.725 4.469 6.315h-1.803zM292.996 76.812v4.99h-1.624v-4.99l-4.631-7.05h1.794l3.666 5.734 3.649-5.734h1.794l-4.648 7.05zM308.188 81.802h-9.587V80.58l7.332-9.485h-6.708v-1.333h8.562v1.188l-7.332 9.519h7.733v1.333zM9.304 99.045q0 2.427-1.068 3.615-1.068 1.188-3.102 1.188-2.025 0-3.059-1.23-1.034-1.24-1.034-3.573 0-4.785 4.145-4.785 2.119 0 3.118 1.17 1 1.163 1 3.615zm-1.615 0q0-1.914-.572-2.777-.564-.871-1.906-.871-1.35 0-1.957.888-.598.88-.598 2.76 0 1.829.59 2.752.598.914 1.871.914 1.384 0 1.974-.888.598-.89.598-2.778zM22.822 97.601q0 1.889-.726 3.307-.718 1.419-2.068 2.18-1.35.76-3.187.76-1.854 0-3.205-.752-1.341-.752-2.05-2.17-.71-1.428-.71-3.325 0-2.888 1.581-4.511 1.581-1.632 4.4-1.632 1.838 0 3.188.734 1.35.727 2.06 2.12.717 1.392.717 3.29zm-1.666 0q0-2.247-1.128-3.529-1.12-1.281-3.17-1.281-2.068 0-3.196 1.264-1.128 1.265-1.128 3.546 0 2.265 1.137 3.598 1.145 1.324 3.17 1.324 2.085 0 3.196-1.282 1.119-1.29 1.119-3.64zM32.7 97.653q0 3.016-1.068 4.605-1.06 1.59-3.136 1.59t-3.119-1.581q-1.042-1.581-1.042-4.614 0-3.102 1.008-4.649 1.017-1.546 3.204-1.546 2.128 0 3.136 1.563 1.017 1.564 1.017 4.632zm-1.564 0q0-2.607-.606-3.777-.598-1.17-1.983-1.17-1.418 0-2.042 1.153-.615 1.153-.615 3.794 0 2.563.624 3.75.632 1.189 2 1.189 1.358 0 1.99-1.214.632-1.213.632-3.725zM42.365 100.319q0 1.666-1.06 2.597-1.06.932-3.042.932-1.931 0-3.025-.915-1.085-.914-1.085-2.597 0-1.18.675-1.983.675-.803 1.726-.974v-.034q-.983-.23-1.555-1-.564-.769-.564-1.803 0-1.376 1.025-2.23 1.034-.855 2.769-.855 1.777 0 2.802.838 1.034.837 1.034 2.264 0 1.034-.572 1.803-.573.77-1.564.966v.034q1.154.188 1.795.983.64.786.64 1.974zm-1.897-5.674q0-2.042-2.24-2.042-1.084 0-1.657.512-.564.513-.564 1.53 0 1.034.581 1.58.59.539 1.658.539 1.085 0 1.649-.496.573-.504.573-1.623zm.299 5.528q0-1.12-.667-1.683-.666-.573-1.871-.573-1.17 0-1.829.616-.658.606-.658 1.675 0 2.486 2.538 2.486 1.256 0 1.871-.598.616-.607.616-1.923zM49.158 92.466v-1.47h1.538v1.47h-1.538zm0 11.21v-9.245h1.538v9.246h-1.538zM53.499 103.677v-12.04h1.632v12.04h-1.632zM57.916 103.677v-12.68h1.538v12.68h-1.538zM62.07 103.677v-12.04H63.7v10.707h6.084v1.333H62.07zM71.708 103.677v-1.308h3.067v-9.262l-2.717 1.94v-1.453l2.846-1.957h1.418v10.732h2.93v1.308h-7.544zM89.353 107.308q-1.085 0-1.675-.658-.58-.658-.58-1.845v-3.085q0-1-.454-1.487-.444-.495-1.384-.538V98.61q.931-.035 1.384-.522.453-.495.453-1.495V93.5q0-1.205.564-1.855.573-.649 1.692-.649h1.154v1.102h-.539q-.777 0-1.11.462-.325.453-.325 1.376v3.042q0 .803-.453 1.392-.453.581-1.205.76v.018q.76.18 1.205.76.453.582.453 1.41v3.05q0 .907.324 1.368.334.47 1.111.47h.539v1.102h-1.154zM91.617 106.206q.778 0 1.111-.47.342-.461.342-1.367v-3.05q0-.838.444-1.42.445-.58 1.205-.751v-.017q-.735-.171-1.196-.744-.453-.58-.453-1.41v-3.041q0-.923-.342-1.376-.333-.462-1.11-.462h-.513v-1.102h1.128q1.12 0 1.683.65.573.649.573 1.854v3.093q0 .991.452 1.487.453.495 1.402.53v1.085q-.957.034-1.41.53-.444.495-.444 1.495v3.085q0 1.179-.59 1.837-.581.666-1.666.666h-1.128v-1.102h.512zM102.76 107.308V90.996h3.478v1.102h-1.991v14.108h1.99v1.102h-3.477zM106.503 107.308v-1.102h1.99V92.098h-1.99v-1.102h3.477v16.312h-3.477zM120.756 107.308q-1.513 0-2.41-.598-.897-.59-1.154-1.683l1.547-.222q.154.64.675.982.53.35 1.384.35 2.299 0 2.299-2.691v-1.487h-.017q-.436.889-1.196 1.342-.761.444-1.778.444-1.7 0-2.503-1.128-.795-1.128-.795-3.546 0-2.452.854-3.614.863-1.171 2.615-1.171.983 0 1.7.453.727.444 1.12 1.273h.017q0-.256.034-.889.034-.632.069-.692h1.46q-.05.462-.05 1.914v7.067q0 3.896-3.871 3.896zm2.34-8.254q0-1.128-.307-1.94-.307-.82-.871-1.247-.556-.436-1.265-.436-1.18 0-1.717.854-.539.855-.539 2.769 0 1.897.504 2.726.505.829 1.726.829.727 0 1.29-.428.565-.427.872-1.222.308-.803.308-1.905zM134.718 97.413q0 3.102-1.136 4.768-1.128 1.667-3.222 1.667-1.41 0-2.264-.59-.846-.598-1.214-1.923l1.47-.23q.461 1.504 2.034 1.504 1.324 0 2.05-1.23.727-1.231.761-3.513-.342.77-1.17 1.24-.83.46-1.82.46-1.624 0-2.598-1.11-.974-1.111-.974-2.948 0-1.889 1.06-2.965 1.059-1.085 2.947-1.085 2.008 0 3.042 1.486 1.034 1.487 1.034 4.47zm-1.675-1.486q0-1.453-.666-2.333-.667-.889-1.786-.889-1.111 0-1.752.76-.64.753-.64 2.043 0 1.316.64 2.085.641.76 1.735.76.666 0 1.239-.299.572-.307.897-.863.333-.555.333-1.264zM139.691 103.848q-1.76 0-2.58-1.188-.82-1.188-.82-3.563 0-4.837 3.4-4.837 1.051 0 1.735.376.683.368 1.145 1.23h.017q0-.256.034-.88.034-.632.069-.674h1.478q-.06.504-.06 2.52v10.476h-1.538v-3.75l.034-1.402h-.017q-.461.914-1.136 1.307-.676.385-1.76.385zm2.88-4.905q0-1.803-.59-2.675-.59-.871-1.88-.871-1.17 0-1.683.871-.513.872-.513 2.777 0 1.94.513 2.778.521.837 1.666.837 1.308 0 1.897-.931.59-.932.59-2.786zM152.064 92.79q-2 0-3.11 1.29-1.111 1.283-1.111 3.521 0 2.213 1.154 3.564 1.162 1.341 3.136 1.341 2.529 0 3.802-2.504l1.333.667q-.743 1.555-2.093 2.367-1.342.812-3.12.812-1.82 0-3.152-.752-1.325-.76-2.026-2.162-.692-1.41-.692-3.333 0-2.88 1.555-4.511 1.556-1.632 4.307-1.632 1.923 0 3.213.751 1.29.752 1.897 2.23l-1.547.513q-.418-1.05-1.35-1.606-.923-.555-2.196-.555zM158.823 97.601q0-2.93 1.573-4.537 1.572-1.606 4.417-1.606 2 0 3.247.675 1.248.675 1.923 2.161l-1.555.462q-.513-1.026-1.419-1.496-.897-.47-2.238-.47-2.085 0-3.188 1.265-1.102 1.256-1.102 3.546 0 2.282 1.17 3.606 1.171 1.316 3.24 1.316 1.178 0 2.195-.359 1.026-.359 1.658-.974v-2.17h-3.598v-1.367h5.102v4.152q-.957.975-2.35 1.513-1.384.53-3.008.53-1.888 0-3.255-.752-1.368-.752-2.094-2.162-.718-1.419-.718-3.333zM184.321 97.601q0 2.547-1.281 4.187-1.282 1.64-3.564 1.94.35 1.077.915 1.555.572.479 1.444.479.47 0 .982-.111v1.145q-.794.188-1.52.188-1.29 0-2.128-.735-.83-.727-1.359-2.436-1.692-.085-2.922-.854-1.222-.778-1.872-2.153-.64-1.385-.64-3.205 0-2.888 1.58-4.511 1.581-1.632 4.4-1.632 1.838 0 3.188.734 1.35.727 2.06 2.12.717 1.392.717 3.29zm-1.666 0q0-2.247-1.128-3.529-1.12-1.281-3.17-1.281-2.068 0-3.196 1.264-1.128 1.265-1.128 3.546 0 2.265 1.137 3.598 1.145 1.324 3.17 1.324 2.085 0 3.196-1.282 1.119-1.29 1.119-3.64zM197.216 98.951q-.59 0-1.214-.188-.615-.188-1.239-.41-1.102-.384-1.854-.384-.573 0-1.068.18-.496.17-1.051.572v-1.222q.948-.718 2.247-.718.444 0 .983.111.547.111 1.657.504.265.103.778.248.513.137.897.137 1.111 0 2.085-.786v1.273q-.495.359-1 .521-.495.162-1.221.162zM201.001 99.712v-1.367h4.272v1.367h-4.272zM211.802 98.481v3.658h-1.256V98.48h-3.623v-1.247h3.623v-3.657h1.256v3.657h3.623v1.247h-3.623zM217.142 96.362v-1.264h8.503v1.264h-8.503zm0 4.375v-1.264h8.503v1.264h-8.503zM227.37 102.36v-1.307l7.332-3.136-7.331-3.127v-1.316l8.502 3.572v1.752l-8.502 3.563z"/></g></g></svg>