<?xml version="1.0" encoding="UTF-8" standalone="no"?>
<svg
   version="1.1"
   id="svg2"
   viewBox="0 0 390.65553 107.30834"
   height="30.2848mm"
   width="110.25167mm"
   sodipodi:docname="LiterationMono Nerd Font.svg"
   xmlns:inkscape="http://www.inkscape.org/namespaces/inkscape"
   xmlns:sodipodi="http://sodipodi.sourceforge.net/DTD/sodipodi-0.dtd"
   xmlns="http://www.w3.org/2000/svg"
   xmlns:svg="http://www.w3.org/2000/svg"
   xmlns:rdf="http://www.w3.org/1999/02/22-rdf-syntax-ns#"
   xmlns:cc="http://creativecommons.org/ns#"
   xmlns:dc="http://purl.org/dc/elements/1.1/">
  <sodipodi:namedview
     id="namedview12"
     pagecolor="#ffffff"
     bordercolor="#666666"
     borderopacity="1.0"
     inkscape:showpageshadow="2"
     inkscape:pageopacity="0.0"
     inkscape:pagecheckerboard="0"
     inkscape:deskcolor="#d1d1d1"
     inkscape:document-units="mm" />
  <defs
     id="defs4" />
  <metadata
     id="metadata7">
    <rdf:RDF>
      <cc:Work
         rdf:about="">
        <dc:format>image/svg+xml</dc:format>
        <dc:type
           rdf:resource="http://purl.org/dc/dcmitype/StillImage" />
        <dc:title />
      </cc:Work>
    </rdf:RDF>
  </metadata>
  <g
     id="layer1"
     transform="translate(-65.419403,-81.006874)">
    <g
       aria-label="LiterationMono Nerd Font"
       id="text4136"
       style="font-size:27.5px;font-family:'LiterationMono Nerd Font';letter-spacing:0px;word-spacing:0px;fill:#ffffff">
      <path
         d="M 66.039516,100.93363 V 82.819618 H 68.604214 V 98.838905 H 77.627651 V 100.93363 Z"
         id="path14" />
      <path
         d="M 89.363491,99.026894 H 94.46603 V 100.93363 H 81.279995 V 99.026894 H 86.946499 V 88.311562 H 82.663052 V 86.404823 H 89.363491 Z M 86.677944,83.584999 V 81.006874 H 89.363491 V 83.584999 Z"
         id="path16" />
      <path
         d="M 98.413784,88.311562 V 86.404823 H 100.6965 L 101.47531,82.618202 H 103.08664 V 86.404823 H 108.88742 V 88.311562 H 103.08664 V 97.066444 Q 103.08664,98.127235 103.6506,98.637489 104.22799,99.147743 105.53048,99.147743 107.3298,99.147743 109.51852,98.6912 V 100.5308 Q 107.24923,101.14848 105.02023,101.14848 102.84494,101.14848 101.75729,100.23539 100.66964,99.308876 100.66964,97.321571 V 88.311562 Z"
         id="path18" />
      <path
         d="M 116.68893,94.179482 Q 116.68893,96.623329 117.76315,98.006386 118.8508,99.389442 120.73068,99.389442 122.11374,99.389442 123.14767,98.798622 124.19503,98.194374 124.54416,97.160439 L 126.66574,97.764687 Q 126.07492,99.429726 124.49044,100.31596 122.9194,101.20219 120.73068,101.20219 117.56173,101.20219 115.85641,99.22831 114.15109,97.254433 114.15109,93.575233 114.15109,89.990028 115.81613,88.069862 117.49459,86.136269 120.65011,86.136269 123.80563,86.136269 125.43039,88.056435 127.05514,89.976601 127.05514,93.857216 V 94.179482 Z M 120.67697,87.922157 Q 118.87765,87.922157 117.83029,89.103798 116.78292,90.272011 116.71579,92.326454 H 124.55758 Q 124.18161,87.922157 120.67697,87.922157 Z"
         id="path20" />
      <path
         d="M 142.89987,88.606972 Q 141.39596,88.351845 140.05319,88.351845 137.89132,88.351845 136.56198,89.976601 135.23263,91.601357 135.23263,94.112343 V 100.93363 H 132.81564 V 91.52079 Q 132.81564,90.500282 132.62765,89.117226 132.45309,87.734169 132.1174,86.404823 H 134.41354 Q 134.95065,88.257851 135.05807,89.761757 H 135.12521 Q 135.7966,88.257851 136.44113,87.559608 137.08566,86.847939 137.97189,86.498817 138.85812,86.136269 140.13375,86.136269 141.53024,86.136269 142.89987,86.36454 Z"
         id="path22" />
      <path
         d="M 160.15451,99.443153 Q 160.50363,99.443153 160.94674,99.349159 V 100.85307 Q 160.03366,101.06791 159.08029,101.06791 157.73751,101.06791 157.11984,100.36967 156.51559,99.657997 156.43502,98.154091 H 156.35446 Q 155.48166,99.778847 154.28659,100.49052 153.10495,101.20219 151.35934,101.20219 149.23776,101.20219 148.16354,100.0474 147.08932,98.892616 147.08932,96.878456 147.08932,92.192177 153.18551,92.125038 L 156.35446,92.071327 V 91.279091 Q 156.35446,89.520058 155.64279,88.754677 154.93112,87.975868 153.3735,87.975868 151.78903,87.975868 151.09079,88.539833 150.39254,89.103798 150.25827,90.285439 L 147.73385,90.057167 Q 148.35153,86.136269 153.41378,86.136269 156.09933,86.136269 157.4421,87.398476 158.79831,88.647255 158.79831,91.023964 V 97.281288 Q 158.79831,98.355507 159.08029,98.906044 159.36227,99.443153 160.15451,99.443153 Z M 151.97702,99.362587 Q 153.26608,99.362587 154.25973,98.744911 155.25338,98.127235 155.80392,97.0933 156.35446,96.059364 156.35446,94.95829 V 93.763222 L 153.80319,93.816933 Q 152.21872,93.843788 151.3862,94.166054 150.55368,94.488319 150.08371,95.159706 149.62716,95.817665 149.62716,96.918739 149.62716,98.019814 150.21798,98.6912 150.82223,99.362587 151.97702,99.362587 Z"
         id="path24" />
      <path
         d="M 164.42453,88.311562 V 86.404823 H 166.70724 L 167.48605,82.618202 H 169.09738 V 86.404823 H 174.89816 V 88.311562 H 169.09738 V 97.066444 Q 169.09738,98.127235 169.66134,98.637489 170.23874,99.147743 171.54123,99.147743 173.34054,99.147743 175.52926,98.6912 V 100.5308 Q 173.25998,101.14848 171.03097,101.14848 168.85568,101.14848 167.76803,100.23539 166.68039,99.308876 166.68039,97.321571 V 88.311562 Z"
         id="path26" />
      <path
         d="M 188.3796,99.026894 H 193.48214 V 100.93363 H 180.29611 V 99.026894 H 185.96261 V 88.311562 H 181.67916 V 86.404823 H 188.3796 Z M 185.69406,83.584999 V 81.006874 H 188.3796 V 83.584999 Z"
         id="path28" />
      <path
         d="M 209.60885,93.6558 Q 209.60885,97.321571 207.91696,99.268593 206.23849,101.20219 203.05612,101.20219 199.94088,101.20219 198.27584,99.241737 196.62423,97.281288 196.62423,93.6558 196.62423,89.909462 198.31613,88.029579 200.02145,86.136269 203.13668,86.136269 206.41305,86.136269 208.01095,88.002724 209.60885,89.869179 209.60885,93.6558 Z M 207.07101,93.6558 Q 207.07101,90.768837 206.1445,89.345497 205.23141,87.922157 203.17697,87.922157 201.09567,87.922157 200.12887,89.372353 199.16208,90.822548 199.16208,93.6558 199.16208,96.475624 200.12887,97.952675 201.09567,99.416298 203.02926,99.416298 205.16427,99.416298 206.11764,97.97953 207.07101,96.542763 207.07101,93.6558 Z"
         id="path30" />
      <path
         d="M 223.03659,100.93363 V 91.601357 Q 223.03659,89.775185 222.32492,88.888954 221.62667,88.002724 220.08249,88.002724 218.41745,88.002724 217.34323,89.224648 216.28244,90.433144 216.28244,92.514442 V 100.93363 H 213.86544 V 89.50663 Q 213.86544,86.968788 213.78488,86.404823 H 216.06759 Q 216.08102,86.471962 216.09445,86.767372 216.10788,87.062782 216.1213,87.452187 216.14816,87.828163 216.17501,88.888954 H 216.2153 Q 217.62521,86.136269 220.86129,86.136269 223.18429,86.136269 224.32565,87.398476 225.46701,88.647255 225.46701,91.252235 V 100.93363 Z"
         id="path32" />
      <path
         d="M 240.46579,100.93363 V 89.278358 Q 240.46579,87.465614 240.50607,86.579384 L 240.54635,85.23661 Q 239.68698,88.002724 239.27072,89.144081 L 237.06857,95.025429 H 235.22897 L 232.99997,89.144081 Q 232.75827,88.526405 231.7109,85.23661 L 231.76461,89.278358 V 100.93363 H 229.61618 V 82.819618 H 232.79855 L 235.28268,89.38578 Q 235.56466,90.09745 236.19577,92.487587 L 236.54489,91.279091 237.13571,89.399208 239.61984,82.819618 H 242.64108 V 100.93363 Z"
         id="path34" />
      <path
         d="M 259.11691,93.6558 Q 259.11691,97.321571 257.42501,99.268593 255.74655,101.20219 252.56417,101.20219 249.44894,101.20219 247.7839,99.241737 246.13229,97.281288 246.13229,93.6558 246.13229,89.909462 247.82418,88.029579 249.52951,86.136269 252.64474,86.136269 255.92111,86.136269 257.51901,88.002724 259.11691,89.869179 259.11691,93.6558 Z M 256.57907,93.6558 Q 256.57907,90.768837 255.65255,89.345497 254.73947,87.922157 252.68502,87.922157 250.60373,87.922157 249.63693,89.372353 248.67013,90.822548 248.67013,93.6558 248.67013,96.475624 249.63693,97.952675 250.60373,99.416298 252.53732,99.416298 254.67233,99.416298 255.6257,97.97953 256.57907,96.542763 256.57907,93.6558 Z"
         id="path36" />
      <path
         d="M 272.54464,100.93363 V 91.601357 Q 272.54464,89.775185 271.83297,88.888954 271.13473,88.002724 269.59054,88.002724 267.9255,88.002724 266.85128,89.224648 265.79049,90.433144 265.79049,92.514442 V 100.93363 H 263.3735 V 89.50663 Q 263.3735,86.968788 263.29293,86.404823 H 265.57565 Q 265.58908,86.471962 265.6025,86.767372 265.61593,87.062782 265.62936,87.452187 265.65622,87.828163 265.68307,88.888954 H 265.72335 Q 267.13327,86.136269 270.36935,86.136269 272.69235,86.136269 273.83371,87.398476 274.97506,88.647255 274.97506,91.252235 V 100.93363 Z"
         id="path38" />
      <path
         d="M 292.12228,93.6558 Q 292.12228,97.321571 290.43039,99.268593 288.75192,101.20219 285.56955,101.20219 282.45431,101.20219 280.78927,99.241737 279.13766,97.281288 279.13766,93.6558 279.13766,89.909462 280.82956,88.029579 282.53488,86.136269 285.65011,86.136269 288.92648,86.136269 290.52438,88.002724 292.12228,89.869179 292.12228,93.6558 Z M 289.58444,93.6558 Q 289.58444,90.768837 288.65792,89.345497 287.74484,87.922157 285.6904,87.922157 283.6091,87.922157 282.6423,89.372353 281.6755,90.822548 281.6755,93.6558 281.6755,96.475624 282.6423,97.952675 283.6091,99.416298 285.54269,99.416298 287.6777,99.416298 288.63107,97.97953 289.58444,96.542763 289.58444,93.6558 Z"
         id="path40" />
      <path
         d="M 321.62301,100.93363 314.64059,85.760292 Q 314.85543,88.069862 314.85543,89.170937 V 100.93363 H 312.57272 V 82.819618 H 315.55368 L 322.64352,98.10038 Q 322.40182,96.166786 322.40182,94.421181 V 82.819618 H 324.71139 V 100.93363 Z"
         id="path42" />
      <path
         d="M 331.22384,94.179482 Q 331.22384,96.623329 332.29806,98.006386 333.38571,99.389442 335.26559,99.389442 336.64865,99.389442 337.68258,98.798622 338.72995,98.194374 339.07907,97.160439 L 341.20065,97.764687 Q 340.60983,99.429726 339.02536,100.31596 337.45431,101.20219 335.26559,101.20219 332.09665,101.20219 330.39132,99.22831 328.686,97.254433 328.686,93.575233 328.686,89.990028 330.35104,88.069862 332.02951,86.136269 335.18502,86.136269 338.34054,86.136269 339.9653,88.056435 341.59005,89.976601 341.59005,93.857216 V 94.179482 Z M 335.21188,87.922157 Q 333.41256,87.922157 332.3652,89.103798 331.31784,90.272011 331.2507,92.326454 H 339.09249 Q 338.71652,87.922157 335.21188,87.922157 Z"
         id="path44" />
      <path
         d="M 357.43478,88.606972 Q 355.93087,88.351845 354.5881,88.351845 352.42624,88.351845 351.09689,89.976601 349.76754,91.601357 349.76754,94.112343 V 100.93363 H 347.35055 V 91.52079 Q 347.35055,90.500282 347.16256,89.117226 346.988,87.734169 346.65231,86.404823 H 348.94845 Q 349.48556,88.257851 349.59298,89.761757 H 349.66012 Q 350.33151,88.257851 350.97604,87.559608 351.62057,86.847939 352.5068,86.498817 353.39303,86.136269 354.66867,86.136269 356.06515,86.136269 357.43478,86.36454 Z"
         id="path46" />
      <path
         d="M 371.48019,98.597206 Q 370.82223,100.00712 369.73458,100.65165 368.64694,101.28275 367.02218,101.28275 364.30978,101.28275 363.03415,99.416298 361.75851,97.549843 361.75851,93.790077 361.75851,86.18998 367.02218,86.18998 368.64694,86.18998 369.73458,86.767372 370.83566,87.344765 371.49362,88.660683 H 371.52047 L 371.49362,86.633095 V 81.006874 H 373.91061 V 97.939247 Q 373.91061,100.20853 373.99118,100.93363 H 371.68161 Q 371.6279,100.73222 371.58761,99.953407 371.54733,99.174599 371.54733,98.597206 Z M 364.25607,93.709511 Q 364.25607,96.690468 365.04831,98.060097 365.85397,99.416298 367.65329,99.416298 369.61374,99.416298 370.55368,98.006386 371.49362,96.583046 371.49362,93.494667 371.49362,90.607704 370.58053,89.291786 369.68087,87.975868 367.68014,87.975868 365.8674,87.975868 365.06173,89.358925 364.25607,90.741982 364.25607,93.709511 Z"
         id="path48" />
      <path
         d="M 398.08053,84.914345 V 91.547646 H 407.15768 V 93.669228 H 398.08053 V 100.93363 H 395.51583 V 82.819618 H 407.47995 V 84.914345 Z"
         id="path50" />
      <path
         d="M 424.14376,93.6558 Q 424.14376,97.321571 422.45187,99.268593 420.7734,101.20219 417.59103,101.20219 414.4758,101.20219 412.81076,99.241737 411.15915,97.281288 411.15915,93.6558 411.15915,89.909462 412.85104,88.029579 414.55636,86.136269 417.6716,86.136269 420.94796,86.136269 422.54586,88.002724 424.14376,89.869179 424.14376,93.6558 Z M 421.60592,93.6558 Q 421.60592,90.768837 420.67941,89.345497 419.76632,87.922157 417.71188,87.922157 415.63058,87.922157 414.66378,89.372353 413.69699,90.822548 413.69699,93.6558 413.69699,96.475624 414.66378,97.952675 415.63058,99.416298 417.56417,99.416298 419.69918,99.416298 420.65255,97.97953 421.60592,96.542763 421.60592,93.6558 Z"
         id="path52" />
      <path
         d="M 437.5715,100.93363 V 91.601357 Q 437.5715,89.775185 436.85983,88.888954 436.16159,88.002724 434.6174,88.002724 432.95236,88.002724 431.87814,89.224648 430.81735,90.433144 430.81735,92.514442 V 100.93363 H 428.40036 V 89.50663 Q 428.40036,86.968788 428.31979,86.404823 H 430.6025 Q 430.61593,86.471962 430.62936,86.767372 430.64279,87.062782 430.65622,87.452187 430.68307,87.828163 430.70993,88.888954 H 430.75021 Q 432.16012,86.136269 435.39621,86.136269 437.7192,86.136269 438.86056,87.398476 440.00192,88.647255 440.00192,91.252235 V 100.93363 Z"
         id="path54" />
      <path
         d="M 444.97018,88.311562 V 86.404823 H 447.2529 L 448.0317,82.618202 H 449.64303 V 86.404823 H 455.44381 V 88.311562 H 449.64303 V 97.066444 Q 449.64303,98.127235 450.207,98.637489 450.78439,99.147743 452.08688,99.147743 453.8862,99.147743 456.07492,98.6912 V 100.5308 Q 453.80563,101.14848 451.57663,101.14848 449.40133,101.14848 448.31369,100.23539 447.22604,99.308876 447.22604,97.321571 V 88.311562 Z"
         id="path56" />
    </g>
    <g
       aria-label="abcdefghijklmnopqrstuvwxyzABCDEFGHIJKLMNOPQRSTUVWXYZ oO08 iIlL1 {} [] g9qCGQ ~-+=&gt;"
       id="text4140"
       style="font-size:17.5px;font-family:'LiterationMono Nerd Font';letter-spacing:0px;word-spacing:0px;fill:#ffffff">
      <path
         d="M 74.827362,139.98514 Q 75.04953,139.98514 75.331512,139.92532 V 140.88235 Q 74.750458,141.01907 74.143768,141.01907 73.289276,141.01907 72.89621,140.57474 72.511688,140.12186 72.460419,139.16483 H 72.409149 Q 71.853729,140.19876 71.093231,140.65164 70.341278,141.10452 69.230438,141.10452 67.880341,141.10452 67.196747,140.36966 66.513153,139.6348 66.513153,138.35306 66.513153,135.37088 70.392548,135.32816 L 72.409149,135.29398 V 134.78983 Q 72.409149,133.67044 71.956268,133.18338 71.503387,132.68777 70.512177,132.68777 69.503876,132.68777 69.05954,133.04666 68.615204,133.40555 68.529755,134.1575 L 66.923309,134.01224 Q 67.316376,131.51712 70.537811,131.51712 72.246796,131.51712 73.101288,132.32034 73.964325,133.11502 73.964325,134.62747 V 138.60941 Q 73.964325,139.293 74.143768,139.64334 74.323212,139.98514 74.827362,139.98514 Z M 69.623505,139.93387 Q 70.443817,139.93387 71.076141,139.5408 71.708466,139.14774 72.058807,138.48978 72.409149,137.83182 72.409149,137.13113 V 136.37064 L 70.785614,136.40482 Q 69.777313,136.42191 69.247528,136.62698 68.717743,136.83206 68.418671,137.25931 68.128143,137.67801 68.128143,138.37869 68.128143,139.07938 68.50412,139.50662 68.888641,139.93387 69.623505,139.93387 Z"
         id="path59" />
      <path
         d="M 85.235077,136.2681 Q 85.235077,138.69485 84.363495,139.89969 83.500458,141.10452 81.885468,141.10452 79.800507,141.10452 79.031464,139.53226 H 79.014374 Q 79.014374,139.94241 78.980194,140.38675 78.954559,140.83109 78.937469,140.93362 H 77.450653 Q 77.501923,140.4722 77.501923,139.02811 V 128.25296 H 79.040009 V 131.86746 Q 79.040009,132.42288 79.005829,133.20901 H 79.040009 Q 79.817596,131.50003 81.894012,131.50003 85.235077,131.50003 85.235077,136.2681 Z M 83.645721,136.31937 Q 83.645721,134.4053 83.115936,133.55081 82.594696,132.68777 81.475311,132.68777 80.202118,132.68777 79.621063,133.62772 79.040009,134.55911 79.040009,136.45609 79.040009,138.24197 79.603973,139.10501 80.167938,139.96805 81.458221,139.96805 82.611786,139.96805 83.124481,139.07938 83.645721,138.18216 83.645721,136.31937 Z"
         id="path61" />
      <path
         d="M 87.533661,136.30228 Q 87.533661,133.99515 88.635956,132.75613 89.738251,131.51712 91.823212,131.51712 93.378387,131.51712 94.386688,132.26907 95.394989,133.01248 95.634247,134.27713 L 93.993622,134.39676 Q 93.856903,133.61917 93.310028,133.17484 92.763153,132.72195 91.754852,132.72195 90.404755,132.72195 89.77243,133.55936 89.148651,134.39676 89.148651,136.2681 89.148651,138.16507 89.77243,139.0452 90.404755,139.91678 91.746307,139.91678 92.669159,139.91678 93.275848,139.4639 93.882538,139.01102 94.027802,138.07962 L 95.651337,138.18216 Q 95.540253,139.00247 95.027557,139.67752 94.523407,140.34402 93.686005,140.72855 92.848602,141.10452 91.814667,141.10452 89.721161,141.10452 88.627411,139.87405 87.533661,138.64359 87.533661,136.30228 Z"
         id="path63" />
      <path
         d="M 104.29025,139.44681 Q 103.87155,140.34402 103.17941,140.75418 102.48727,141.15579 101.45334,141.15579 99.727264,141.15579 98.915497,139.96805 98.103729,138.7803 98.103729,136.38773 98.103729,131.5513 101.45334,131.5513 102.48727,131.5513 103.17941,131.91873 103.8801,132.28616 104.2988,133.12357 H 104.31589 L 104.2988,131.83328 V 128.25296 H 105.83688 V 139.02811 Q 105.83688,140.4722 105.88815,140.93362 H 104.41843 Q 104.38425,140.80545 104.35861,140.30984 104.33298,139.81424 104.33298,139.44681 Z M 99.693085,136.33646 Q 99.693085,138.23343 100.19724,139.10501 100.70993,139.96805 101.85495,139.96805 103.10251,139.96805 103.70065,139.07083 104.2988,138.16507 104.2988,136.19974 104.2988,134.36258 103.71774,133.52518 103.14523,132.68777 101.87204,132.68777 100.71848,132.68777 100.20578,133.5679 99.693085,134.44803 99.693085,136.33646 Z"
         id="path65" />
      <path
         d="M 110.1777,136.63553 Q 110.1777,138.1907 110.8613,139.07083 111.55344,139.95096 112.74973,139.95096 113.62985,139.95096 114.28781,139.57498 114.95432,139.19046 115.17648,138.5325 L 116.52658,138.91702 Q 116.1506,139.97659 115.1423,140.54056 114.14255,141.10452 112.74973,141.10452 110.73312,141.10452 109.64792,139.84842 108.56271,138.59232 108.56271,136.25101 108.56271,133.96951 109.62228,132.74759 110.6904,131.51712 112.69846,131.51712 114.70651,131.51712 115.74045,132.73904 116.77438,133.96097 116.77438,136.43045 V 136.63553 Z M 112.71555,132.65359 Q 111.57053,132.65359 110.90402,133.40555 110.23752,134.14896 110.19479,135.45633 H 115.18503 Q 114.94577,132.65359 112.71555,132.65359 Z"
         id="path67" />
      <path
         d="M 122.884,132.9014 V 140.93362 H 121.34592 V 132.9014 H 119.10715 V 131.68802 H 121.34592 V 131.4744 Q 121.34592,129.72269 122.16623,128.98782 122.99509,128.25296 124.91769,128.25296 125.53293,128.25296 126.24216,128.31277 126.95993,128.36404 127.31882,128.4324 V 129.67142 Q 127.06247,129.62869 126.27634,129.57742 125.49875,129.52615 125.09714,129.52615 124.20847,129.52615 123.75558,129.72269 123.3027,129.91922 123.08908,130.36356 122.884,130.80789 122.884,131.60257 V 131.68802 H 127.07956 V 132.9014 Z"
         id="path69" />
      <path
         d="M 133.68478,144.55667 Q 132.24924,144.55667 131.37766,143.96707 130.50607,143.37747 130.26682,142.27518 L 131.83908,142.06155 Q 131.98434,142.70242 132.46286,143.04422 132.94992,143.39456 133.73605,143.39456 135.85519,143.39456 135.85519,140.70291 V 139.0452 H 135.8381 Q 135.4194,139.92532 134.67599,140.3782 133.93259,140.83109 132.9072,140.83109 131.2153,140.83109 130.42917,139.72879 129.65158,138.61795 129.65158,136.24246 129.65158,133.82425 130.48898,132.68777 131.32639,131.54276 133.06955,131.54276 134.03513,131.54276 134.74435,131.99564 135.46213,132.43997 135.84665,133.26883 H 135.87228 Q 135.87228,133.01248 135.90646,132.40579 135.94064,131.79056 135.97482,131.68802 H 137.436 Q 137.38474,132.14944 137.38474,133.60208 V 140.66019 Q 137.38474,142.59988 136.47897,143.57401 135.57321,144.55667 133.68478,144.55667 Z M 135.85519,136.22537 Q 135.85519,134.5762 135.21432,133.63626 134.57346,132.68777 133.45407,132.68777 132.28342,132.68777 131.76218,133.50809 131.24094,134.31985 131.24094,136.22537 131.24094,137.51566 131.45456,138.26761 131.67673,139.01102 132.13815,139.35281 132.59958,139.69461 133.42844,139.69461 134.15475,139.69461 134.70163,139.293 135.25705,138.88284 135.55612,138.10526 135.85519,137.31912 135.85519,136.22537 Z"
         id="path71" />
      <path
         d="M 140.51218,128.25296 H 142.05881 V 131.58548 Q 142.05881,132.08963 141.9819,133.26883 H 142.00754 Q 142.90475,131.51712 144.90427,131.51712 147.89499,131.51712 147.89499,134.77274 V 140.93362 H 146.34836 V 134.9949 Q 146.34836,133.83279 145.89548,133.26883 145.45114,132.70486 144.46848,132.70486 143.40891,132.70486 142.72531,133.48245 142.05026,134.2515 142.05026,135.57596 V 140.93362 H 140.51218 Z"
         id="path73" />
      <path
         d="M 155.79904,139.72025 H 159.04611 V 140.93362 H 150.655 V 139.72025 H 154.26096 V 132.9014 H 151.53513 V 131.68802 H 155.79904 Z M 154.09006,129.89359 V 128.25296 H 155.79904 V 129.89359 Z"
         id="path75" />
      <path
         d="M 167.07834,141.17288 Q 167.07834,142.77078 166.12131,143.668 165.16428,144.56522 163.39548,144.56522 162.72043,144.56522 162.01974,144.45413 161.31906,144.34305 160.93454,144.19778 V 143.0015 Q 162.21628,143.29202 163.2673,143.29202 164.36105,143.29202 164.95065,142.72806 165.54025,142.16409 165.54025,141.14725 V 132.9014 H 162.06247 V 131.68802 H 167.07834 Z M 165.36935,129.89359 V 128.25296 H 167.07834 V 129.89359 Z"
         id="path77" />
      <path
         d="M 178.24655,140.93362 175.11911,136.66971 173.99118,137.50711 V 140.93362 H 172.45309 V 128.25296 H 173.99118 V 136.1741 L 178.05002,131.68802 H 179.853 L 176.10178,135.66141 180.04953,140.93362 Z"
         id="path79" />
      <path
         d="M 188.07321,139.67752 190.47433,139.72025 V 140.93362 L 187.31271,140.89944 Q 186.34714,140.72855 185.9028,140.1304 185.71481,139.87405 185.68918,138.72903 V 129.46634 H 183.2197 V 128.25296 H 187.22726 V 138.90848 Q 187.23581,139.293 187.44089,139.48099 187.62033,139.64334 188.07321,139.67752 Z M 188.10739,139.72025 Z M 187.22726,138.90848 Z M 187.36398,140.93362 Z M 185.68918,139.72025 V 138.72903 Z"
         id="path81" />
      <path
         d="M 195.97726,140.93362 V 135.07181 Q 195.97726,133.75589 195.76364,133.23465 195.55856,132.70486 195.00314,132.70486 194.45627,132.70486 194.11447,133.52518 193.78122,134.34549 193.78122,135.74686 V 140.93362 H 192.33713 V 133.6619 Q 192.33713,132.04691 192.28586,131.68802 H 193.55905 L 193.61032,132.77322 V 133.18338 H 193.62741 Q 193.91794,132.3118 194.36227,131.91873 194.80661,131.51712 195.47311,131.51712 196.22507,131.51712 196.5925,131.92728 196.96848,132.33743 197.13083,133.19193 H 197.14792 Q 197.48972,132.28616 197.95969,131.90164 198.4382,131.51712 199.16452,131.51712 200.17282,131.51712 200.60861,132.25198 201.0444,132.98685 201.0444,134.77274 V 140.93362 H 199.60886 V 135.07181 Q 199.60886,133.75589 199.39523,133.23465 199.19016,132.70486 198.63474,132.70486 198.07077,132.70486 197.73752,133.42264 197.41281,134.14041 197.41281,135.57596 V 140.93362 Z"
         id="path83" />
      <path
         d="M 209.35861,140.93362 V 134.9949 Q 209.35861,133.83279 208.90573,133.26883 208.4614,132.70486 207.47873,132.70486 206.41916,132.70486 205.73557,133.48245 205.06052,134.2515 205.06052,135.57596 V 140.93362 H 203.52243 V 133.6619 Q 203.52243,132.04691 203.47116,131.68802 H 204.9238 Q 204.93234,131.73074 204.94089,131.91873 204.94943,132.10672 204.95798,132.35452 204.97507,132.59378 204.99216,133.26883 H 205.01779 Q 205.91501,131.51712 207.97433,131.51712 209.45261,131.51712 210.17892,132.32034 210.90524,133.11502 210.90524,134.77274 V 140.93362 Z"
         id="path85" />
      <path
         d="M 221.81711,136.30228 Q 221.81711,138.63504 220.74045,139.87405 219.67233,141.10452 217.64719,141.10452 215.66476,141.10452 214.60519,139.85696 213.55417,138.60941 213.55417,136.30228 213.55417,133.91824 214.63083,132.72195 215.71603,131.51712 217.69846,131.51712 219.78342,131.51712 220.80026,132.70486 221.81711,133.89261 221.81711,136.30228 Z M 220.20212,136.30228 Q 220.20212,134.46512 219.61252,133.55936 219.03146,132.65359 217.72409,132.65359 216.39963,132.65359 215.78439,133.57645 215.16916,134.4993 215.16916,136.30228 215.16916,138.09671 215.78439,139.03665 216.39963,139.96805 217.6301,139.96805 218.98874,139.96805 219.59543,139.05374 220.20212,138.13943 220.20212,136.30228 Z"
         id="path87" />
      <path
         d="M 232.259,136.2681 Q 232.259,141.10452 228.90939,141.10452 226.80734,141.10452 226.08102,139.53226 H 226.0383 Q 226.07248,139.60062 226.07248,140.95071 V 144.56522 H 224.52585 V 133.60208 Q 224.52585,132.14944 224.47458,131.68802 H 225.96994 Q 225.97849,131.7222 225.99557,131.94437 226.01266,132.15799 226.02975,132.58524 226.05539,133.00394 226.05539,133.20901 H 226.08957 Q 226.51682,132.3118 227.17477,131.91019 227.84128,131.50003 228.90939,131.50003 230.60129,131.50003 231.43015,132.67068 232.259,133.83279 232.259,136.2681 Z M 230.66965,136.2681 Q 230.66965,134.33694 230.14841,133.51663 229.62717,132.68777 228.50778,132.68777 227.2175,132.68777 226.64499,133.62772 226.07248,134.55911 226.07248,136.45609 226.07248,138.27615 226.64499,139.1221 227.2175,139.96805 228.49069,139.96805 229.62717,139.96805 230.14841,139.10501 230.66965,138.24197 230.66965,136.2681 Z"
         id="path89" />
      <path
         d="M 237.96701,131.5513 Q 239.06931,131.5513 239.72726,131.93582 240.38522,132.3118 240.80392,133.12357 H 240.82101 Q 240.82101,132.86722 240.84665,132.32889 240.88083,131.78201 240.92355,131.67947 H 242.41891 Q 242.36765,132.1409 242.36765,134.08914 V 144.56522 H 240.82101 V 140.814 L 240.85519,139.37845 H 240.8381 Q 240.38522,140.29276 239.71017,140.72855 239.03513,141.15579 237.97556,141.15579 236.24948,141.15579 235.43771,139.9595 234.62595,138.75467 234.62595,136.38773 234.62595,131.5513 237.96701,131.5513 Z M 240.82101,136.19974 Q 240.82101,134.38821 240.23996,133.54227 239.65891,132.68777 238.39426,132.68777 237.24924,132.68777 236.728,133.55936 236.2153,134.43094 236.2153,136.33646 236.2153,138.22488 236.73654,139.09647 237.25778,139.96805 238.37717,139.96805 239.63327,139.96805 240.22287,139.03665 240.82101,138.10526 240.82101,136.19974 Z"
         id="path91" />
      <path
         d="M 252.8779,133.08939 Q 251.92087,132.92703 251.06638,132.92703 249.69064,132.92703 248.8447,133.96097 247.99875,134.9949 247.99875,136.5928 V 140.93362 H 246.46066 V 134.94363 Q 246.46066,134.29422 246.34103,133.41409 246.22995,132.53397 246.01633,131.68802 H 247.47751 Q 247.81931,132.86722 247.88766,133.82425 H 247.93039 Q 248.35764,132.86722 248.76779,132.42288 249.17795,131.97 249.74191,131.74783 250.30588,131.51712 251.11765,131.51712 252.00632,131.51712 252.8779,131.66238 Z"
         id="path93" />
      <path
         d="M 263.50778,138.29324 Q 263.50778,139.60916 262.50803,140.36111 261.51682,141.10452 259.75656,141.10452 257.99631,141.10452 257.07346,140.55765 256.15915,140.00223 255.87717,138.81448 L 257.23581,138.54959 Q 257.39816,139.28445 257.92795,139.62625 258.46628,139.9595 259.75656,139.9595 262.06369,139.9595 262.06369,138.49832 262.06369,137.95145 261.64499,137.61819 261.22629,137.2764 260.36325,137.06277 258.10739,136.50735 257.5007,136.19119 256.89401,135.87503 256.56931,135.40506 256.2446,134.92654 256.2446,134.21732 256.2446,132.96121 257.15036,132.25198 258.05612,131.54276 259.77365,131.54276 261.27756,131.54276 262.17477,132.11526 263.07199,132.67923 263.29416,133.76443 L 261.90988,133.93533 Q 261.81589,133.3201 261.30319,133.00394 260.7905,132.68777 259.77365,132.68777 257.68015,132.68777 257.68015,133.97806 257.68015,134.49075 258.03049,134.79837 258.38937,135.10599 259.17551,135.29398 L 260.19235,135.55887 Q 261.58517,135.90067 262.19186,136.23392 262.8071,136.56717 263.15744,137.07132 263.50778,137.56693 263.50778,138.29324 Z"
         id="path95" />
      <path
         d="M 266.57541,132.9014 V 131.68802 H 268.02805 L 268.52365,129.27835 H 269.54904 V 131.68802 H 273.24045 V 132.9014 H 269.54904 V 138.47269 Q 269.54904,139.14774 269.90793,139.47244 270.27536,139.79715 271.10422,139.79715 272.24924,139.79715 273.64206,139.50662 V 140.67728 Q 272.19797,141.07034 270.77951,141.07034 269.39523,141.07034 268.70309,140.48929 268.01096,139.89969 268.01096,138.63504 V 132.9014 Z"
         id="path97" />
      <path
         d="M 278.57248,131.68802 V 137.54984 Q 278.57248,138.88284 278.99118,139.40408 279.40988,139.91678 280.48654,139.91678 281.58884,139.91678 282.22971,139.16483 282.87057,138.41287 282.87057,137.04568 V 131.68802 H 284.41721 V 138.95975 Q 284.41721,140.57474 284.46848,140.93362 H 283.01584 Q 283.00729,140.8909 282.99875,140.70291 282.9902,140.51492 282.97311,140.27567 282.96457,140.02786 282.94748,139.35281 H 282.92184 Q 282.39206,140.30984 281.69138,140.71146 280.99924,141.10452 279.9653,141.10452 278.44431,141.10452 277.73508,140.35257 277.03439,139.59207 277.03439,137.84891 V 131.68802 Z"
         id="path99" />
      <path
         d="M 292.06491,140.93362 H 290.24484 L 286.54489,131.68802 H 288.27097 L 290.561,137.70364 290.70627,138.15652 291.1506,139.72879 291.44968,138.72903 291.78293,137.72073 294.14133,131.68802 H 295.85886 Z"
         id="path101" />
      <path
         d="M 305.15573,140.93362 H 303.41257 L 302.19064,136.90897 301.70358,135.18289 301.37033,136.37064 299.93478,140.93362 H 298.20016 L 296.63644,131.68802 H 298.15744 L 298.95212,136.87479 Q 299.2341,139.13065 299.2341,139.66043 299.56735,138.29324 299.72971,137.83182 L 300.88327,134.20877 H 302.53244 L 303.64328,137.84036 Q 303.91672,138.73758 304.11325,139.66043 304.11325,139.40408 304.14743,139.01956 304.18161,138.63504 304.23288,138.23343 304.28415,137.82327 304.33542,137.45584 304.38669,137.08841 304.41232,136.87479 L 305.27536,131.68802 H 306.77927 Z"
         id="path103" />
      <path
         d="M 314.92258,140.93362 312.17966,137.13968 309.41965,140.93362 H 307.76193 L 311.30807,136.18265 307.91574,131.68802 H 309.61618 L 312.17966,135.28543 314.72604,131.68802 H 316.44357 L 313.05124,136.16556 316.64011,140.93362 Z"
         id="path105" />
      <path
         d="M 319.95554,144.56522 Q 319.32321,144.56522 318.89597,144.47122 V 143.31766 Q 319.22067,143.36893 319.61374,143.36893 320.28879,143.36893 320.87839,142.86478 321.47653,142.36063 321.88669,141.25833 L 322.0405,140.83963 318.02438,131.68802 H 319.66501 L 321.92087,137.17386 Q 322.69846,139.08792 322.75827,139.34427 L 323.10861,138.40433 325.75754,131.68802 H 327.38107 L 323.48459,140.93362 Q 322.72409,142.94168 321.90378,143.75345 321.09201,144.56522 319.95554,144.56522 Z"
         id="path107" />
      <path
         d="M 329.21823,140.93362 V 139.76297 L 335.03732,132.87576 H 329.56003 V 131.68802 H 336.77194 V 132.85867 L 330.94431,139.74588 H 337.0881 V 140.93362 Z"
         id="path109" />
      <path
         d="M 74.254852,162.80862 73.075653,159.54446 H 68.264862 L 67.094208,162.80862 H 65.419403 L 69.777313,151.28152 H 71.631561 L 75.912567,162.80862 Z M 70.683075,152.51199 70.580536,152.84525 69.990936,154.65677 68.700653,158.27127 H 72.656952 L 71.17868,153.99881 Z"
         id="path111" />
      <path
         d="M 85.764862,159.56155 Q 85.764862,161.09964 84.594208,161.95413 83.423553,162.80862 81.338593,162.80862 H 77.305389 V 151.28152 H 80.825897 Q 85.064178,151.28152 85.064178,154.07571 85.064178,155.11819 84.448944,155.81888 83.83371,156.51956 82.774139,156.73318 84.201141,156.88699 84.978729,157.64749 85.764862,158.40799 85.764862,159.56155 Z M 83.423553,154.28079 Q 83.423553,153.36649 82.774139,152.98196 82.13327,152.5889 80.842987,152.5889 H 78.937469 V 156.14359 H 80.860077 Q 83.423553,156.14359 83.423553,154.28079 Z M 84.115692,159.41629 Q 84.115692,158.44217 83.355194,157.92947 82.594696,157.41678 81.09079,157.41678 H 78.937469 V 161.50125 H 81.210419 Q 82.70578,161.50125 83.406464,160.98856 84.115692,160.46732 84.115692,159.41629 Z"
         id="path113" />
      <path
         d="M 89.105927,156.98953 Q 89.105927,159.3223 89.832245,160.49295 90.567108,161.65506 92.071014,161.65506 92.934052,161.65506 93.634735,161.07401 94.335419,160.48441 94.822479,159.24539 L 96.181122,159.80081 Q 94.907928,162.97952 92.053925,162.97952 89.80661,162.97952 88.593231,161.43289 87.388397,159.88626 87.388397,156.98953 87.388397,151.10208 91.968475,151.10208 94.865204,151.10208 95.950409,153.96463 L 94.514862,154.52005 Q 94.1987,153.55447 93.523651,152.99905 92.857147,152.43509 91.97702,152.43509 90.515839,152.43509 89.80661,153.53738 89.105927,154.63968 89.105927,156.98953 Z"
         id="path115" />
      <path
         d="M 106.53757,156.92972 Q 106.53757,159.75809 105.22165,161.28763 103.91428,162.80862 101.47043,162.80862 H 98.308807 V 151.28152 H 100.96628 Q 103.77756,151.28152 105.15329,152.69144 106.53757,154.0928 106.53757,156.92972 Z M 104.89694,156.92972 Q 104.89694,154.67386 103.957,153.64847 103.01706,152.61453 100.97482,152.61453 H 99.940887 V 161.47562 H 101.32516 Q 103.13669,161.47562 104.01682,160.33914 104.89694,159.20267 104.89694,156.92972 Z"
         id="path117" />
      <path
         d="M 108.81052,162.80862 V 151.28152 H 116.6633 V 152.61453 H 110.4426 V 156.22049 H 116.1506 V 157.53641 H 110.4426 V 161.47562 H 117.01364 V 162.80862 Z"
         id="path119" />
      <path
         d="M 121.21774,152.61453 V 156.83572 H 126.99411 V 158.18582 H 121.21774 V 162.80862 H 119.58566 V 151.28152 H 127.19919 V 152.61453 Z"
         id="path121" />
      <path
         d="M 137.83762,161.67215 Q 135.88083,162.97952 133.88986,162.97952 131.75363,162.97952 130.57443,161.39871 129.39523,159.80936 129.39523,156.98953 129.39523,154.02444 130.52316,152.56326 131.65109,151.10208 133.9155,151.10208 136.87204,151.10208 137.85471,153.93045 L 136.39352,154.40897 Q 135.70993,152.43509 133.93259,152.43509 132.48849,152.43509 131.79636,153.51175 131.11276,154.58841 131.11276,156.98953 131.11276,161.65506 134.02658,161.65506 134.60764,161.65506 135.23141,161.47562 135.85519,161.29617 136.24826,161.02274 V 158.15164 H 133.7446 V 156.78445 H 137.83762 Z"
         id="path123" />
      <path
         d="M 146.40817,162.80862 V 157.48514 H 141.94772 V 162.80862 H 140.31564 V 151.28152 H 141.94772 V 156.11795 H 146.40817 V 151.28152 H 148.04025 V 162.80862 Z"
         id="path125" />
      <path
         d="M 151.15915,151.28152 H 158.19162 V 152.61453 H 155.49142 V 161.47562 H 158.19162 V 162.80862 H 151.15915 V 161.47562 H 153.85934 V 152.61453 H 151.15915 Z"
         id="path127" />
      <path
         d="M 168.36008,159.21976 Q 168.36008,161.00565 167.46286,161.99686 166.56564,162.97952 164.94211,162.97952 163.48093,162.97952 162.60934,162.21902 161.73776,161.45853 161.43869,159.8179 L 163.03659,159.55301 Q 163.1904,160.56131 163.686,161.10818 164.19016,161.65506 164.95065,161.65506 166.73654,161.65506 166.73654,159.25394 V 152.61453 H 164.07907 V 151.28152 H 168.36008 Z"
         id="path129" />
      <path
         d="M 179.00705,162.80862 174.84567,157.35696 173.45285,158.80106 V 162.80862 H 171.82077 V 151.28152 H 173.45285 V 157.03226 L 178.34055,151.28152 H 180.26315 L 175.95651,156.16922 180.92111,162.80862 Z"
         id="path131" />
      <path
         d="M 182.96335,162.80862 V 151.28152 H 184.59543 V 161.47562 H 190.33762 V 162.80862 Z"
         id="path133" />
      <path
         d="M 199.4465,162.80862 V 155.39163 Q 199.4465,154.23807 199.47214,153.6741 L 199.49777,152.81961 Q 198.9509,154.57986 198.686,155.30618 L 197.28464,159.04886 H 196.11398 L 194.69553,155.30618 Q 194.54172,154.91312 193.87521,152.81961 L 193.90939,155.39163 V 162.80862 H 192.54221 V 151.28152 H 194.56735 L 196.14816,155.45999 Q 196.32761,155.91287 196.72922,157.43387 L 196.95139,156.66483 197.32736,155.46854 198.90817,151.28152 H 200.83078 V 162.80862 Z"
         id="path135" />
      <path
         d="M 209.08517,162.80862 204.64182,153.15286 Q 204.77853,154.62259 204.77853,155.32327 V 162.80862 H 203.3259 V 151.28152 H 205.22287 L 209.73459,161.00565 Q 209.58078,159.77518 209.58078,158.66434 V 151.28152 H 211.05051 V 162.80862 Z"
         id="path137" />
      <path
         d="M 222.06491,156.98953 Q 222.06491,159.86917 220.92844,161.42435 219.80051,162.97952 217.68137,162.97952 215.55368,162.97952 214.4343,161.44998 213.31491,159.92044 213.31491,156.98953 213.31491,154.10989 214.42575,152.60599 215.53659,151.10208 217.69846,151.10208 219.80905,151.10208 220.93698,152.5889 222.06491,154.06717 222.06491,156.98953 Z M 220.34738,156.98953 Q 220.34738,152.43509 217.69846,152.43509 215.03244,152.43509 215.03244,156.98953 215.03244,159.29666 215.70749,160.47586 216.38254,161.65506 217.68991,161.65506 219.08273,161.65506 219.71506,160.45877 220.34738,159.26248 220.34738,156.98953 Z"
         id="path139" />
      <path
         d="M 232.50681,154.73367 Q 232.50681,155.80179 231.99411,156.63919 231.48996,157.47659 230.54147,157.94656 229.60153,158.41653 228.36252,158.41653 H 225.9614 V 162.80862 H 224.32932 V 151.28152 H 228.25998 Q 230.29367,151.28152 231.39597,152.19583 232.50681,153.10159 232.50681,154.73367 Z M 230.86618,154.75931 Q 230.86618,152.5889 228.06345,152.5889 H 225.9614 V 157.12625 H 228.13181 Q 229.405,157.12625 230.13132,156.50247 230.86618,155.87869 230.86618,154.75931 Z"
         id="path141" />
      <path
         d="M 243.06833,156.98953 Q 243.06833,159.46756 242.22238,160.97147 241.38498,162.46683 239.82126,162.8428 240.1716,163.91946 240.74411,164.40652 241.31662,164.89359 242.17966,164.89359 242.64963,164.89359 243.16232,164.7825 V 165.92752 Q 242.36765,166.11551 241.64133,166.11551 240.35959,166.11551 239.52219,165.38919 238.69333,164.67142 238.155,162.94534 236.28366,162.75735 235.30099,161.2449 234.31833,159.72391 234.31833,156.98953 234.31833,154.10989 235.42917,152.60599 236.54001,151.10208 238.70187,151.10208 240.81247,151.10208 241.9404,152.5889 243.06833,154.06717 243.06833,156.98953 Z M 241.3508,156.98953 Q 241.3508,152.43509 238.70187,152.43509 236.03586,152.43509 236.03586,156.98953 236.03586,159.29666 236.71091,160.47586 237.38596,161.65506 238.69333,161.65506 240.08615,161.65506 240.71848,160.45877 241.3508,159.26248 241.3508,156.98953 Z"
         id="path143" />
      <path
         d="M 252.12595,162.80862 248.9985,157.89529 H 246.96481 V 162.80862 H 245.33273 V 151.28152 H 249.45139 Q 251.44235,151.28152 252.48483,152.11038 253.52731,152.93069 253.52731,154.46878 253.52731,155.74197 252.72409,156.61356 251.92941,157.48514 250.58786,157.70731 L 254.00583,162.80862 Z M 251.88669,154.49442 Q 251.88669,152.5889 249.28903,152.5889 H 246.96481 V 156.60501 H 249.35739 Q 250.57932,156.60501 251.22873,156.05814 251.88669,155.51126 251.88669,154.49442 Z"
         id="path145" />
      <path
         d="M 264.08884,159.647 Q 264.08884,161.21927 262.93527,162.0994 261.79025,162.97952 259.66257,162.97952 255.75754,162.97952 255.12521,159.92044 L 256.70602,159.60428 Q 256.94528,160.70657 257.69724,161.21072 258.44919,161.70633 259.70529,161.70633 261.06393,161.70633 261.76462,161.17654 262.47385,160.64676 262.47385,159.67264 262.47385,159.07449 262.19186,158.69852 261.91843,158.32254 261.46555,158.08328 261.01266,157.84402 260.44016,157.69876 259.87619,157.54495 259.29514,157.39969 257.9194,157.0408 257.3298,156.75882 256.74875,156.47684 256.39841,156.11795 256.04807,155.75052 255.86862,155.28055 255.68918,154.81058 255.68918,154.17825 255.68918,152.69998 256.72311,151.9053 257.76559,151.10208 259.70529,151.10208 261.51682,151.10208 262.47385,151.73441 263.43088,152.36673 263.80685,153.87064 L 262.20041,154.15262 Q 261.99533,153.19559 261.3801,152.76834 260.76486,152.33255 259.69675,152.33255 257.27853,152.33255 257.27853,154.15262 257.27853,154.66531 257.5007,154.99002 257.73141,155.30618 258.11594,155.51981 258.509,155.72488 259.0217,155.8616 259.54294,155.99832 260.13254,156.15213 261.32028,156.4512 261.84152,156.65628 262.36276,156.85281 262.76437,157.10916 263.17453,157.36551 263.46506,157.71585 263.75558,158.06619 263.91794,158.53616 264.08884,159.00613 264.08884,159.647 Z"
         id="path147" />
      <path
         d="M 271.01022,152.61453 V 162.80862 H 269.38669 V 152.61453 H 265.60129 V 151.28152 H 274.79562 V 152.61453 Z"
         id="path149" />
      <path
         d="M 284.72482,158.62161 Q 284.72482,160.90311 283.7507,161.94559 282.77658,162.97952 280.62326,162.97952 278.5383,162.97952 277.59836,161.97977 276.66696,160.97147 276.66696,158.77542 V 151.28152 H 278.29904 V 158.55325 Q 278.29904,160.29642 278.79465,160.98001 279.2988,161.65506 280.61472,161.65506 281.99045,161.65506 282.54587,160.95438 283.10129,160.25369 283.10129,158.44217 V 151.28152 H 284.72482 Z"
         id="path151" />
      <path
         d="M 292.04782,162.80862 H 290.35593 L 286.04074,151.28152 H 287.75827 L 290.49265,158.98904 Q 290.75754,159.72391 291.21042,161.37308 291.55222,160.09988 291.92819,158.98904 L 294.64548,151.28152 H 296.36301 Z"
         id="path153" />
      <path
         d="M 305.15573,162.80862 H 303.37839 Q 302.74606,160.45023 302.41281,159.21976 302.0881,157.98929 301.72067,156.34866 301.47287,157.41678 301.25925,158.27982 301.05417,159.14285 300.03732,162.80862 H 298.25998 L 296.457,151.28152 H 298.07199 L 299.00339,158.41653 Q 299.14011,159.53592 299.28537,161.37308 299.55881,160.19388 299.73825,159.42484 299.92624,158.65579 300.96872,154.8533 H 302.46408 Q 303.05368,157.01517 303.38693,158.25418 303.72873,159.49319 304.14743,161.37308 L 304.4465,158.41653 305.33517,151.28152 H 306.95016 Z"
         id="path155" />
      <path
         d="M 312.20529,155.66507 315.05075,151.28152 H 316.80246 L 313.08542,156.78445 317.1528,162.80862 H 315.40109 L 312.20529,157.91238 309.01804,162.80862 H 307.26633 L 311.33371,156.78445 307.61667,151.28152 H 309.36838 Z"
         id="path157" />
      <path
         d="M 323.51022,157.81839 V 162.80862 H 321.90378 V 157.81839 L 317.76804,151.28152 H 319.51974 L 322.71555,156.50247 325.89426,151.28152 H 327.64597 Z"
         id="path159" />
      <path
         d="M 337.83151,162.80862 H 328.58591 V 161.5867 L 335.57565,152.61453 H 329.20969 V 151.28152 H 337.4299 V 152.46927 L 330.44016,161.47562 H 337.83151 Z"
         id="path161" />
      <path
         d="M 74.793182,180.05228 Q 74.793182,182.38504 73.716522,183.62405 72.648407,184.85452 70.62326,184.85452 68.640839,184.85452 67.581268,183.60696 66.530243,182.35941 66.530243,180.05228 66.530243,177.66824 67.606903,176.47195 68.692108,175.26712 70.67453,175.26712 72.759491,175.26712 73.776337,176.45486 74.793182,177.64261 74.793182,180.05228 Z M 73.178192,180.05228 Q 73.178192,178.21512 72.588593,177.30936 72.007538,176.40359 70.700165,176.40359 69.375702,176.40359 68.760468,177.32645 68.145233,178.2493 68.145233,180.05228 68.145233,181.84671 68.760468,182.78665 69.375702,183.71805 70.606171,183.71805 71.964813,183.71805 72.571503,182.80374 73.178192,181.88943 73.178192,180.05228 Z"
         id="path163" />
      <path
         d="M 85.542694,178.86453 Q 85.542694,181.74417 84.406219,183.29935 83.27829,184.85452 81.159149,184.85452 79.031464,184.85452 77.912079,183.32498 76.792694,181.79544 76.792694,178.86453 76.792694,175.98489 77.903534,174.48099 79.014374,172.97708 81.176239,172.97708 83.286835,172.97708 84.414764,174.4639 85.542694,175.94217 85.542694,178.86453 Z M 83.825165,178.86453 Q 83.825165,174.31009 81.176239,174.31009 78.510223,174.31009 78.510223,178.86453 78.510223,181.17166 79.185272,182.35086 79.860321,183.53006 81.167694,183.53006 82.560516,183.53006 83.192841,182.33377 83.825165,181.13748 83.825165,178.86453 Z"
         id="path165" />
      <path
         d="M 95.84787,178.9158 Q 95.84787,181.80399 94.779755,183.33353 93.720184,184.85452 91.643768,184.85452 89.567352,184.85452 88.524872,183.34207 87.482391,181.82108 87.482391,178.9158 87.482391,175.93362 88.499237,174.45535 89.516083,172.97708 91.695038,172.97708 93.822723,172.97708 94.831024,174.47244 95.84787,175.95926 95.84787,178.9158 Z M 94.284149,178.9158 Q 94.284149,176.43777 93.67746,175.33548 93.079315,174.22464 91.695038,174.22464 90.276581,174.22464 89.652802,175.31839 89.037567,176.41214 89.037567,178.9158 89.037567,181.3511 89.661346,182.47903 90.293671,183.59842 91.660858,183.59842 93.019501,183.59842 93.651825,182.44485 94.284149,181.29129 94.284149,178.9158 Z M 90.661102,179.94119 V 177.81351 H 92.669159 V 179.94119 Z"
         id="path167" />
      <path
         d="M 106.27267,181.45364 Q 106.27267,183.02591 105.20456,183.94022 104.14499,184.85452 102.17111,184.85452 100.23996,184.85452 99.14621,183.95731 98.061005,183.06009 98.061005,181.47073 98.061005,180.36844 98.736053,179.5994 99.411102,178.82181 100.46213,178.64236 V 178.60818 Q 99.505096,178.37747 98.924042,177.63406 98.342987,176.89066 98.342987,175.93362 98.342987,175.09622 98.812958,174.41263 99.291473,173.72903 100.15451,173.35306 101.01755,172.97708 102.13693,172.97708 103.30759,172.97708 104.17917,173.3616 105.05075,173.73758 105.51218,174.41263 105.9736,175.08768 105.9736,175.95071 105.9736,176.91629 105.384,177.6597 104.7944,178.40311 103.83737,178.59109 V 178.62527 Q 104.94821,178.80472 105.60617,179.56522 106.27267,180.31717 106.27267,181.45364 Z M 104.3757,176.03616 Q 104.3757,175.08768 103.79465,174.60916 103.22214,174.1221 102.13693,174.1221 101.08591,174.1221 100.49631,174.60916 99.915253,175.09622 99.915253,176.03616 99.915253,176.98465 100.50485,177.50589 101.09445,178.02713 102.15402,178.02713 104.3757,178.02713 104.3757,176.03616 Z M 104.67477,181.30838 Q 104.67477,180.28299 104.00827,179.73611 103.34177,179.18069 102.13693,179.18069 100.97482,179.18069 100.30832,179.77884 99.65036,180.36844 99.65036,181.34256 99.65036,182.49612 100.29123,183.10281 100.94064,183.70096 102.1882,183.70096 103.44431,183.70096 104.05954,183.11136 104.67477,182.52176 104.67477,181.30838 Z"
         id="path169" />
      <path
         d="M 124.29391,183.47025 H 127.54099 V 184.68362 H 119.14987 V 183.47025 H 122.75583 V 176.6514 H 120.03 V 175.43802 H 124.29391 Z M 122.58493,173.64359 V 172.00296 H 124.29391 V 173.64359 Z"
         id="path171" />
      <path
         d="M 130.15573,173.15652 H 137.1882 V 174.48953 H 134.48801 V 183.35062 H 137.1882 V 184.68362 H 130.15573 V 183.35062 H 132.85593 V 174.48953 H 130.15573 Z"
         id="path173" />
      <path
         d="M 146.06638,183.42752 148.4675,183.47025 V 184.68362 L 145.30588,184.64944 Q 144.3403,184.47855 143.89597,183.8804 143.70798,183.62405 143.68234,182.47903 V 173.21634 H 141.21286 V 172.00296 H 145.22043 V 182.65848 Q 145.22897,183.043 145.43405,183.23099 145.61349,183.39334 146.06638,183.42752 Z M 146.10056,183.47025 Z M 145.22043,182.65848 Z M 145.35715,184.68362 Z M 143.68234,183.47025 V 182.47903 Z"
         id="path175" />
      <path
         d="M 151.45822,184.68362 V 173.15652 H 153.0903 V 183.35062 H 158.83249 V 184.68362 Z"
         id="path177" />
      <path
         d="M 161.27634,184.68362 V 183.44461 H 165.02756 V 174.72025 Q 164.7114,175.38675 163.52365,175.88235 162.34445,176.37796 161.19943,176.37796 V 175.11331 Q 162.46408,175.11331 163.58347,174.55789 164.7114,174.00247 165.15573,173.15652 H 166.57419 V 183.44461 H 169.59055 V 184.68362 Z"
         id="path179" />
      <path
         d="M 187.73996,188.31522 Q 186.62912,188.31522 185.92844,187.5889 185.22775,186.87112 185.22775,185.7261 V 182.72684 Q 185.22775,181.81253 184.60397,181.29984 183.98019,180.78714 182.8779,180.74442 V 179.57376 Q 183.98874,179.53104 184.60397,179.0098 185.22775,178.48856 185.22775,177.59988 V 174.59207 Q 185.22775,173.42142 185.91989,172.71219 186.61203,172.00296 187.73996,172.00296 H 190.00436 V 173.1907 H 188.1843 Q 187.40671,173.1907 187.06491,173.56668 186.72311,173.94266 186.72311,174.85696 V 177.81351 Q 186.72311,178.65091 186.17624,179.29178 185.62936,179.9241 184.74924,180.13773 V 180.15482 Q 185.62082,180.35989 186.16769,180.99222 186.72311,181.616 186.72311,182.49612 V 185.46121 Q 186.72311,186.36697 187.06491,186.74295 187.40671,187.12747 188.1843,187.12747 H 190.00436 V 188.31522 Z"
         id="path181" />
      <path
         d="M 192.86691,188.31522 V 187.12747 H 194.68698 Q 195.46457,187.12747 195.80637,186.74295 196.15671,186.36697 196.15671,185.46121 V 182.49612 Q 196.15671,181.62454 196.70358,180.99222 197.25046,180.35989 198.12204,180.15482 V 180.13773 Q 197.25046,179.9241 196.70358,179.28323 196.15671,178.64236 196.15671,177.81351 V 174.85696 Q 196.15671,173.95975 195.81491,173.57523 195.47311,173.1907 194.68698,173.1907 H 192.86691 V 172.00296 H 195.13132 Q 196.26779,172.00296 196.95139,172.71219 197.64352,173.42142 197.64352,174.59207 V 177.59988 Q 197.64352,178.4971 198.2673,179.01834 198.89108,179.53104 199.99338,179.57376 V 180.74442 Q 198.88254,180.78714 198.25876,181.30838 197.64352,181.82108 197.64352,182.72684 V 185.7261 Q 197.64352,186.87967 196.94284,187.59744 196.24216,188.31522 195.13132,188.31522 Z"
         id="path183" />
      <path
         d="M 215.94675,188.31522 V 172.00296 H 220.62082 V 173.1907 H 217.48483 V 187.12747 H 220.62082 V 188.31522 Z"
         id="path185" />
      <path
         d="M 225.25217,188.31522 V 187.12747 H 228.38815 V 173.1907 H 225.25217 V 172.00296 H 229.92624 V 188.31522 Z"
         id="path187" />
      <path
         d="M 249.20358,188.30667 Q 247.76804,188.30667 246.89645,187.71707 246.02487,187.12747 245.78561,186.02518 L 247.35788,185.81155 Q 247.50314,186.45242 247.98166,186.79422 248.46872,187.14456 249.25485,187.14456 251.37399,187.14456 251.37399,184.45291 V 182.7952 H 251.3569 Q 250.9382,183.67532 250.19479,184.1282 249.45139,184.58109 248.42599,184.58109 246.7341,184.58109 245.94797,183.47879 245.17038,182.36795 245.17038,179.99246 245.17038,177.57425 246.00778,176.43777 246.84518,175.29276 248.58835,175.29276 249.55392,175.29276 250.26315,175.74564 250.98093,176.18997 251.36545,177.01883 H 251.39108 Q 251.39108,176.76248 251.42526,176.15579 251.45944,175.54056 251.49362,175.43802 H 252.9548 Q 252.90353,175.89944 252.90353,177.35208 V 184.41019 Q 252.90353,186.34988 251.99777,187.32401 251.09201,188.30667 249.20358,188.30667 Z M 251.37399,179.97537 Q 251.37399,178.3262 250.73312,177.38626 250.09225,176.43777 248.97287,176.43777 247.80222,176.43777 247.28098,177.25809 246.75974,178.06985 246.75974,179.97537 246.75974,181.26566 246.97336,182.01761 247.19553,182.76102 247.65695,183.10281 248.11838,183.44461 248.94724,183.44461 249.67355,183.44461 250.22043,183.043 250.77585,182.63284 251.07492,181.85526 251.37399,181.06912 251.37399,179.97537 Z"
         id="path189" />
      <path
         d="M 263.73849,178.67654 Q 263.73849,181.63309 262.60202,183.24808 261.46555,184.85452 259.38058,184.85452 257.97067,184.85452 257.11618,184.26492 256.27023,183.66678 255.9028,182.34232 L 257.37253,182.1116 Q 257.83395,183.61551 259.40622,183.61551 260.72214,183.61551 261.457,182.42776 262.20041,181.23148 262.2175,179.12943 261.8757,179.89847 261.04684,180.36844 260.21799,180.82986 259.22678,180.82986 257.61179,180.82986 256.62912,179.74466 255.655,178.65091 255.655,176.8992 255.655,175.08768 256.72311,174.03665 257.79977,172.97708 259.66257,172.97708 263.73849,172.97708 263.73849,178.67654 Z M 262.06369,177.3179 Q 262.06369,175.94217 261.3801,175.08768 260.6965,174.22464 259.6113,174.22464 258.50046,174.22464 257.85959,174.96805 257.21872,175.71146 257.21872,176.8992 257.21872,178.12112 257.85959,178.87308 258.50046,179.61649 259.59421,179.61649 260.24362,179.61649 260.81613,179.32596 261.39719,179.02689 261.73044,178.50565 262.06369,177.97586 262.06369,177.3179 Z"
         id="path191" />
      <path
         d="M 269.47214,175.3013 Q 270.57443,175.3013 271.23239,175.68582 271.89035,176.0618 272.30905,176.87357 H 272.32614 Q 272.32614,176.61722 272.35178,176.07889 272.38596,175.53201 272.42868,175.42947 H 273.92404 Q 273.87277,175.8909 273.87277,177.83914 V 188.31522 H 272.32614 V 184.564 L 272.36032,183.12845 H 272.34323 Q 271.89035,184.04276 271.2153,184.47855 270.54025,184.90579 269.48068,184.90579 267.75461,184.90579 266.94284,183.7095 266.13107,182.50467 266.13107,180.13773 266.13107,175.3013 269.47214,175.3013 Z M 272.32614,179.94974 Q 272.32614,178.13821 271.74509,177.29227 271.16403,176.43777 269.89938,176.43777 268.75436,176.43777 268.23312,177.30936 267.72043,178.18094 267.72043,180.08646 267.72043,181.97488 268.24167,182.84647 268.76291,183.71805 269.88229,183.71805 271.1384,183.71805 271.728,182.78665 272.32614,181.85526 272.32614,179.94974 Z"
         id="path193" />
      <path
         d="M 278.13669,178.86453 Q 278.13669,181.1973 278.86301,182.36795 279.59787,183.53006 281.10178,183.53006 281.96481,183.53006 282.6655,182.94901 283.36618,182.35941 283.85324,181.12039 L 285.21188,181.67581 Q 283.93869,184.85452 281.08469,184.85452 278.83737,184.85452 277.62399,183.30789 276.41916,181.76126 276.41916,178.86453 276.41916,172.97708 280.99924,172.97708 283.89597,172.97708 284.98117,175.83963 L 283.54562,176.39505 Q 283.22946,175.42947 282.55441,174.87405 281.88791,174.31009 281.00778,174.31009 279.5466,174.31009 278.83737,175.41238 278.13669,176.51468 278.13669,178.86453 Z"
         id="path195" />
      <path
         d="M 295.36325,183.54715 Q 293.40646,184.85452 291.4155,184.85452 289.27927,184.85452 288.10007,183.27371 286.92087,181.68436 286.92087,178.86453 286.92087,175.89944 288.0488,174.43826 289.17673,172.97708 291.44113,172.97708 294.39767,172.97708 295.38034,175.80545 L 293.91916,176.28397 Q 293.23557,174.31009 291.45822,174.31009 290.01413,174.31009 289.32199,175.38675 288.6384,176.46341 288.6384,178.86453 288.6384,183.53006 291.55222,183.53006 292.13327,183.53006 292.75705,183.35062 293.38083,183.17117 293.7739,182.89774 V 180.02664 H 291.27023 V 178.65945 H 295.36325 Z"
         id="path197" />
      <path
         d="M 306.07858,178.86453 Q 306.07858,181.34256 305.23264,182.84647 304.39523,184.34183 302.83151,184.7178 303.18185,185.79446 303.75436,186.28152 304.32687,186.76859 305.18991,186.76859 305.65988,186.76859 306.17258,186.6575 V 187.80252 Q 305.3779,187.99051 304.65158,187.99051 303.36984,187.99051 302.53244,187.26419 301.70358,186.54642 301.16525,184.82034 299.29391,184.63235 298.31125,183.1199 297.32858,181.59891 297.32858,178.86453 297.32858,175.98489 298.43942,174.48099 299.55026,172.97708 301.71213,172.97708 303.82272,172.97708 304.95065,174.4639 306.07858,175.94217 306.07858,178.86453 Z M 304.36105,178.86453 Q 304.36105,174.31009 301.71213,174.31009 299.04611,174.31009 299.04611,178.86453 299.04611,181.17166 299.72116,182.35086 300.39621,183.53006 301.70358,183.53006 303.09641,183.53006 303.72873,182.33377 304.36105,181.13748 304.36105,178.86453 Z"
         id="path199" />
      <path
         d="M 320.63058,177.78787 Q 321.50217,177.78787 322.63864,178.18094 323.89474,178.61673 324.26218,178.70218 324.63815,178.78763 324.94577,178.78763 326.05661,178.78763 327.03073,178.0015 V 179.27469 Q 326.51804,179.63358 326.02243,179.79593 325.53537,179.95828 324.80905,179.95828 324.21945,179.95828 323.59567,179.77029 322.98044,179.58231 322.35666,179.36014 321.25436,178.97562 320.50241,178.97562 319.9299,178.97562 319.4343,179.15506 318.93869,179.32596 318.38327,179.72757 V 178.50565 Q 319.33176,177.78787 320.63058,177.78787 Z"
         id="path201" />
      <path
         d="M 330.81613,180.71878 V 179.35159 H 335.60129 V 180.71878 Z"
         id="path203" />
      <path
         d="M 344.3342,179.48831 V 183.14554 H 343.07809 V 179.48831 H 339.45505 V 178.24075 H 343.07809 V 174.58353 H 344.3342 V 178.24075 H 347.95724 V 179.48831 Z"
         id="path205" />
      <path
         d="M 349.95676,177.36917 V 176.10452 H 358.45895 V 177.36917 Z M 349.95676,181.74417 V 180.47952 H 358.45895 V 181.74417 Z"
         id="path207" />
      <path
         d="M 360.45847,183.36771 V 182.06033 L 367.79001,178.92435 360.45847,175.79691 V 174.48099 L 368.96066,178.05276 V 179.80447 Z"
         id="path209" />
    </g>
  </g>
</svg>
