<?xml version="1.0" encoding="UTF-8" standalone="no"?>
<svg
   version="1.1"
   id="svg2"
   viewBox="0 0 399.79543 110.93249"
   height="31.307613mm"
   width="112.83115mm"
   sodipodi:docname="MartianMono NF.svg"
   xmlns:inkscape="http://www.inkscape.org/namespaces/inkscape"
   xmlns:sodipodi="http://sodipodi.sourceforge.net/DTD/sodipodi-0.dtd"
   xmlns="http://www.w3.org/2000/svg"
   xmlns:svg="http://www.w3.org/2000/svg"
   xmlns:rdf="http://www.w3.org/1999/02/22-rdf-syntax-ns#"
   xmlns:cc="http://creativecommons.org/ns#"
   xmlns:dc="http://purl.org/dc/elements/1.1/">
  <sodipodi:namedview
     id="namedview12"
     pagecolor="#ffffff"
     bordercolor="#666666"
     borderopacity="1.0"
     inkscape:showpageshadow="2"
     inkscape:pageopacity="0.0"
     inkscape:pagecheckerboard="0"
     inkscape:deskcolor="#d1d1d1"
     inkscape:document-units="mm" />
  <defs
     id="defs4" />
  <metadata
     id="metadata7">
    <rdf:RDF>
      <cc:Work
         rdf:about="">
        <dc:format>image/svg+xml</dc:format>
        <dc:type
           rdf:resource="http://purl.org/dc/dcmitype/StillImage" />
        <dc:title />
      </cc:Work>
    </rdf:RDF>
  </metadata>
  <g
     id="layer1"
     transform="translate(-64.864643,-77.531132)">
    <g
       aria-label="MartianMono Nerd Font"
       id="text4136"
       style="font-size:27.5px;font-family:'MartianMono NF';letter-spacing:0px;word-spacing:0px;fill:#ffffff">
      <path
         d="M 64.864643,78.933632 H 69.842143 L 72.427143,91.666132 H 72.729643 L 75.287143,78.933632 H 80.099643 V 100.93363 H 77.239643 V 88.283632 L 77.349643,81.133632 H 77.019643 L 74.572143,93.508632 H 70.419643 L 67.944643,81.133632 H 67.614643 L 67.724643,88.283632 V 100.93363 H 64.864643 Z"
         id="path14" />
      <path
         d="M 84.224664,90.126132 Q 84.417164,87.293632 86.397164,85.643632 88.404664,83.993632 91.649664,83.993632 94.757164,83.993632 96.434664,85.561132 98.112164,87.128632 98.112164,90.016132 V 100.93363 H 95.169664 V 99.421132 H 94.344664 Q 92.969664,101.34613 90.027164,101.34613 87.772164,101.34613 86.397164,100.05363 85.049664,98.733632 85.049664,96.588632 85.049664,94.526132 86.369664,93.206132 87.689664,91.858632 90.137164,91.473632 L 95.169664,90.676132 V 90.208632 Q 95.169664,88.613632 94.179664,87.706132 93.217164,86.798632 91.567164,86.798632 89.779664,86.798632 88.624664,87.678632 87.469664,88.531132 87.112164,90.126132 Z M 88.239664,96.451132 Q 88.239664,97.386132 88.927164,97.963632 89.642164,98.541132 90.742164,98.541132 91.924664,98.541132 92.942164,97.963632 93.959664,97.386132 94.564664,96.423632 95.169664,95.433632 95.169664,94.251132 V 93.343632 L 90.522164,94.058632 Q 88.239664,94.416132 88.239664,96.451132 Z"
         id="path16" />
      <path
         d="M 110.40469,84.433632 V 85.643632 H 111.22969 Q 111.72469,84.846132 112.57719,84.433632 113.42969,83.993632 114.52969,83.993632 116.53719,83.993632 117.66469,85.396132 118.81969,86.771132 118.81969,89.191132 V 91.583632 H 115.68469 V 89.631132 Q 115.68469,86.853632 113.42969,86.853632 110.59719,86.853632 110.59719,91.941132 V 98.101132 H 115.71219 V 100.93363 H 104.46469 V 98.101132 H 107.57219 V 87.266132 H 103.96969 V 84.433632 Z"
         id="path18" />
      <path
         d="M 129.4897,84.433632 H 136.9147 V 87.266132 H 129.4897 V 95.516132 Q 129.4897,96.973632 130.0947,97.771132 130.6997,98.541132 131.8547,98.541132 133.0372,98.541132 133.7247,97.716132 134.4122,96.891132 134.7422,95.158632 H 137.4097 Q 137.2997,98.156132 135.8147,99.778632 134.3572,101.37363 131.7447,101.37363 129.2147,101.37363 127.8397,99.888632 126.4647,98.376132 126.4647,95.626132 V 87.266132 H 122.8347 V 84.433632 H 126.4647 V 80.143632 H 129.4897 Z"
         id="path20" />
      <path
         d="M 151.87473,84.433632 V 98.101132 H 156.85223 V 100.93363 H 143.84473 V 98.101132 H 148.84973 V 87.266132 H 143.84473 V 84.433632 Z M 150.14223,81.986132 Q 149.06973,81.986132 148.46473,81.408632 147.85973,80.803632 147.85973,79.758632 147.85973,78.713632 148.46473,78.136132 149.06973,77.531132 150.14223,77.531132 151.21473,77.531132 151.81973,78.136132 152.42473,78.713632 152.42473,79.758632 152.42473,80.803632 151.81973,81.408632 151.21473,81.986132 150.14223,81.986132 Z"
         id="path22" />
      <path
         d="M 161.22475,90.126132 Q 161.41725,87.293632 163.39725,85.643632 165.40475,83.993632 168.64975,83.993632 171.75725,83.993632 173.43475,85.561132 175.11225,87.128632 175.11225,90.016132 V 100.93363 H 172.16975 V 99.421132 H 171.34475 Q 169.96975,101.34613 167.02725,101.34613 164.77225,101.34613 163.39725,100.05363 162.04975,98.733632 162.04975,96.588632 162.04975,94.526132 163.36975,93.206132 164.68975,91.858632 167.13725,91.473632 L 172.16975,90.676132 V 90.208632 Q 172.16975,88.613632 171.17975,87.706132 170.21725,86.798632 168.56725,86.798632 166.77975,86.798632 165.62475,87.678632 164.46975,88.531132 164.11225,90.126132 Z M 165.23975,96.451132 Q 165.23975,97.386132 165.92725,97.963632 166.64225,98.541132 167.74225,98.541132 168.92475,98.541132 169.94225,97.963632 170.95975,97.386132 171.56475,96.423632 172.16975,95.433632 172.16975,94.251132 V 93.343632 L 167.52225,94.058632 Q 165.23975,94.416132 165.23975,96.451132 Z"
         id="path24" />
      <path
         d="M 181.46477,84.433632 H 184.48977 V 85.671132 H 185.31477 Q 185.91977,84.873632 186.90977,84.433632 187.89977,83.993632 189.10977,83.993632 190.81477,83.993632 192.10727,84.763632 193.39977,85.533632 194.08727,86.963632 194.80227,88.366132 194.80227,90.236132 V 100.93363 H 191.77727 V 91.061132 Q 191.77727,89.026132 190.84227,87.953632 189.90727,86.881132 188.14727,86.881132 186.35977,86.881132 185.42477,87.953632 184.48977,89.026132 184.48977,91.061132 V 100.93363 H 181.46477 Z"
         id="path26" />
      <path
         d="M 199.6148,78.933632 H 204.5923 L 207.1773,91.666132 H 207.4798 L 210.0373,78.933632 H 214.8498 V 100.93363 H 211.9898 V 88.283632 L 212.0998,81.133632 H 211.7698 L 209.3223,93.508632 H 205.1698 L 202.6948,81.133632 H 202.3648 L 202.4748,88.283632 V 100.93363 H 199.6148 Z"
         id="path28" />
      <path
         d="M 226.48231,101.37363 Q 224.22731,101.37363 222.52231,100.32863 220.84481,99.256132 219.90981,97.303632 219.00231,95.323632 219.00231,92.683632 219.00231,90.043632 219.90981,88.091132 220.84481,86.111132 222.52231,85.066132 224.22731,83.993632 226.48231,83.993632 228.73731,83.993632 230.41481,85.066132 232.11981,86.111132 233.02731,88.091132 233.96231,90.043632 233.96231,92.683632 233.96231,95.323632 233.02731,97.303632 232.11981,99.256132 230.41481,100.32863 228.73731,101.37363 226.48231,101.37363 Z M 221.99981,92.683632 Q 221.99981,95.461132 223.18231,97.001132 224.36481,98.541132 226.48231,98.541132 228.59981,98.541132 229.78231,97.001132 230.96481,95.461132 230.96481,92.683632 230.96481,89.906132 229.78231,88.366132 228.59981,86.826132 226.48231,86.826132 224.36481,86.826132 223.18231,88.366132 221.99981,89.906132 221.99981,92.683632 Z"
         id="path30" />
      <path
         d="M 239.21483,84.433632 H 242.23983 V 85.671132 H 243.06483 Q 243.66983,84.873632 244.65983,84.433632 245.64983,83.993632 246.85983,83.993632 248.56483,83.993632 249.85733,84.763632 251.14983,85.533632 251.83733,86.963632 252.55233,88.366132 252.55233,90.236132 V 100.93363 H 249.52733 V 91.061132 Q 249.52733,89.026132 248.59233,87.953632 247.65733,86.881132 245.89733,86.881132 244.10983,86.881132 243.17483,87.953632 242.23983,89.026132 242.23983,91.061132 V 100.93363 H 239.21483 Z"
         id="path32" />
      <path
         d="M 264.98236,101.37363 Q 262.72736,101.37363 261.02236,100.32863 259.34486,99.256132 258.40986,97.303632 257.50236,95.323632 257.50236,92.683632 257.50236,90.043632 258.40986,88.091132 259.34486,86.111132 261.02236,85.066132 262.72736,83.993632 264.98236,83.993632 267.23736,83.993632 268.91486,85.066132 270.61986,86.111132 271.52736,88.091132 272.46236,90.043632 272.46236,92.683632 272.46236,95.323632 271.52736,97.303632 270.61986,99.256132 268.91486,100.32863 267.23736,101.37363 264.98236,101.37363 Z M 260.49986,92.683632 Q 260.49986,95.461132 261.68236,97.001132 262.86486,98.541132 264.98236,98.541132 267.09986,98.541132 268.28236,97.001132 269.46486,95.461132 269.46486,92.683632 269.46486,89.906132 268.28236,88.366132 267.09986,86.826132 264.98236,86.826132 262.86486,86.826132 261.68236,88.366132 260.49986,89.906132 260.49986,92.683632 Z"
         id="path34" />
      <path
         d="M 296.22239,78.933632 H 301.55739 L 307.66239,98.926132 H 307.96489 L 307.85489,92.601132 V 78.933632 H 310.74239 V 100.93363 H 305.40739 L 299.30239,80.941132 H 298.99989 L 299.10989,87.266132 V 100.93363 H 296.22239 Z"
         id="path36" />
      <path
         d="M 315.74742,92.546132 Q 315.74742,89.933632 316.62742,88.008632 317.53492,86.083632 319.18492,85.038632 320.83492,83.993632 323.06242,83.993632 326.22492,83.993632 327.98492,86.221132 329.74492,88.421132 329.74492,92.408632 329.74492,92.903632 329.68992,93.673632 H 318.74492 Q 318.96492,96.093632 320.09242,97.358632 321.21992,98.623632 323.14492,98.623632 325.86742,98.623632 327.35242,95.873632 H 330.18492 Q 329.57992,98.431132 327.68242,99.916132 325.81242,101.37363 323.14492,101.37363 319.62492,101.37363 317.67242,99.063632 315.74742,96.726132 315.74742,92.546132 Z M 326.85742,91.006132 Q 326.60992,88.916132 325.61992,87.843632 324.65742,86.743632 323.06242,86.743632 321.30242,86.743632 320.20242,87.871132 319.10242,88.971132 318.79992,91.006132 Z"
         id="path38" />
      <path
         d="M 341.40495,84.433632 V 85.643632 H 342.22995 Q 342.72495,84.846132 343.57745,84.433632 344.42995,83.993632 345.52995,83.993632 347.53745,83.993632 348.66495,85.396132 349.81995,86.771132 349.81995,89.191132 V 91.583632 H 346.68495 V 89.631132 Q 346.68495,86.853632 344.42995,86.853632 341.59745,86.853632 341.59745,91.941132 V 98.101132 H 346.71245 V 100.93363 H 335.46495 V 98.101132 H 338.57245 V 87.266132 H 334.96995 V 84.433632 Z"
         id="path40" />
      <path
         d="M 360.07745,101.37363 Q 358.04245,101.37363 356.50245,100.32863 354.98995,99.256132 354.16495,97.303632 353.33995,95.323632 353.33995,92.683632 353.33995,90.043632 354.16495,88.091132 354.98995,86.111132 356.50245,85.066132 358.04245,83.993632 360.07745,83.993632 361.42495,83.993632 362.52495,84.516132 363.62495,85.038632 364.14745,85.946132 H 364.97245 V 77.613632 H 367.99745 V 100.93363 H 364.97245 V 99.421132 H 364.14745 Q 363.62495,100.32863 362.52495,100.85113 361.42495,101.37363 360.07745,101.37363 Z M 356.36495,92.683632 Q 356.36495,95.461132 357.49245,97.001132 358.64745,98.541132 360.70995,98.541132 362.79995,98.541132 363.92745,97.001132 365.08245,95.461132 365.08245,92.683632 365.08245,89.906132 363.92745,88.366132 362.79995,86.826132 360.70995,86.826132 358.64745,86.826132 357.49245,88.366132 356.36495,89.906132 356.36495,92.683632 Z"
         id="path42" />
      <path
         d="M 394.50751,78.933632 H 407.51501 V 81.876132 H 397.64251 V 88.806132 H 406.14001 V 91.556132 H 397.64251 V 100.93363 H 394.50751 Z"
         id="path44" />
      <path
         d="M 418.98251,101.37363 Q 416.72751,101.37363 415.02251,100.32863 413.34501,99.256132 412.41001,97.303632 411.50251,95.323632 411.50251,92.683632 411.50251,90.043632 412.41001,88.091132 413.34501,86.111132 415.02251,85.066132 416.72751,83.993632 418.98251,83.993632 421.23751,83.993632 422.91501,85.066132 424.62001,86.111132 425.52751,88.091132 426.46251,90.043632 426.46251,92.683632 426.46251,95.323632 425.52751,97.303632 424.62001,99.256132 422.91501,100.32863 421.23751,101.37363 418.98251,101.37363 Z M 414.50001,92.683632 Q 414.50001,95.461132 415.68251,97.001132 416.86501,98.541132 418.98251,98.541132 421.10001,98.541132 422.28251,97.001132 423.46501,95.461132 423.46501,92.683632 423.46501,89.906132 422.28251,88.366132 421.10001,86.826132 418.98251,86.826132 416.86501,86.826132 415.68251,88.366132 414.50001,89.906132 414.50001,92.683632 Z"
         id="path46" />
      <path
         d="M 431.71504,84.433632 H 434.74004 V 85.671132 H 435.56504 Q 436.17004,84.873632 437.16004,84.433632 438.15004,83.993632 439.36004,83.993632 441.06504,83.993632 442.35754,84.763632 443.65004,85.533632 444.33754,86.963632 445.05254,88.366132 445.05254,90.236132 V 100.93363 H 442.02754 V 91.061132 Q 442.02754,89.026132 441.09254,87.953632 440.15754,86.881132 438.39754,86.881132 436.61004,86.881132 435.67504,87.953632 434.74004,89.026132 434.74004,91.061132 V 100.93363 H 431.71504 Z"
         id="path48" />
      <path
         d="M 456.74007,84.433632 H 464.16507 V 87.266132 H 456.74007 V 95.516132 Q 456.74007,96.973632 457.34507,97.771132 457.95007,98.541132 459.10507,98.541132 460.28757,98.541132 460.97507,97.716132 461.66257,96.891132 461.99257,95.158632 H 464.66007 Q 464.55007,98.156132 463.06507,99.778632 461.60757,101.37363 458.99507,101.37363 456.46507,101.37363 455.09007,99.888632 453.71507,98.376132 453.71507,95.626132 V 87.266132 H 450.08507 V 84.433632 H 453.71507 V 80.143632 H 456.74007 Z"
         id="path50" />
    </g>
    <g
       aria-label="abcdefghijklmnopqrstuvwxyzABCDEFGHIJKLMNOPQRSTUVWXYZ oO08 iIlL1 {} [] g9qCGQ ~-+=&gt;"
       id="text4140"
       style="font-size:17.5px;font-family:'MartianMono NF';letter-spacing:0px;word-spacing:0px;fill:#ffffff">
      <path
         d="M 66.766903,134.05612 Q 66.889403,132.25362 68.149403,131.20362 69.426903,130.15362 71.491903,130.15362 73.469403,130.15362 74.536903,131.15112 75.604403,132.14862 75.604403,133.98612 V 140.93362 H 73.731903 V 139.97112 H 73.206903 Q 72.331903,141.19612 70.459403,141.19612 69.024403,141.19612 68.149403,140.37362 67.291903,139.53362 67.291903,138.16862 67.291903,136.85612 68.131903,136.01612 68.971903,135.15862 70.529403,134.91362 L 73.731903,134.40612 V 134.10862 Q 73.731903,133.09362 73.101903,132.51612 72.489403,131.93862 71.439403,131.93862 70.301903,131.93862 69.566903,132.49862 68.831903,133.04112 68.604403,134.05612 Z M 69.321903,138.08112 Q 69.321903,138.67612 69.759403,139.04362 70.214403,139.41112 70.914403,139.41112 71.666903,139.41112 72.314403,139.04362 72.961903,138.67612 73.346903,138.06362 73.731903,137.43362 73.731903,136.68112 V 136.10362 L 70.774403,136.55862 Q 69.321903,136.78612 69.321903,138.08112 Z"
         id="path53" />
      <path
         d="M 84.529416,141.21362 Q 83.671916,141.21362 82.971916,140.88112 82.271916,140.54862 81.939416,139.97112 H 81.414416 V 140.93362 H 79.489416 V 126.09362 H 81.414416 V 131.39612 H 81.939416 Q 82.271916,130.81862 82.971916,130.48612 83.671916,130.15362 84.529416,130.15362 85.824416,130.15362 86.786916,130.83612 87.766916,131.50112 88.291916,132.76112 88.816916,134.00362 88.816916,135.68362 88.816916,137.36362 88.291916,138.62362 87.766916,139.86612 86.786916,140.54862 85.824416,141.21362 84.529416,141.21362 Z M 81.344416,135.68362 Q 81.344416,137.45112 82.061916,138.43112 82.796916,139.41112 84.126916,139.41112 85.439416,139.41112 86.156916,138.43112 86.891916,137.45112 86.891916,135.68362 86.891916,133.91612 86.156916,132.93612 85.439416,131.95612 84.126916,131.95612 82.796916,131.95612 82.061916,132.93612 81.344416,133.91612 81.344416,135.68362 Z"
         id="path55" />
      <path
         d="M 96.28943,141.21362 Q 94.87193,141.21362 93.80443,140.54862 92.75443,139.88362 92.17693,138.64112 91.59943,137.39862 91.59943,135.73612 91.59943,134.03862 92.19443,132.77862 92.78943,131.51862 93.89193,130.83612 94.99443,130.15362 96.46443,130.15362 97.75943,130.15362 98.73943,130.69612 99.71943,131.22112 100.27943,132.20112 100.83943,133.18112 100.89193,134.49362 H 99.12443 Q 98.89693,133.30362 98.17943,132.63862 97.46193,131.95612 96.39443,131.95612 95.01193,131.95612 94.25943,132.95362 93.50693,133.95112 93.50693,135.73612 93.50693,137.48612 94.24193,138.44862 94.97693,139.41112 96.28943,139.41112 97.25193,139.41112 97.91693,138.83362 98.59943,138.23862 98.87943,137.18862 H 100.64693 Q 100.55943,138.39612 99.98193,139.30612 99.40443,140.21612 98.44193,140.72362 97.49693,141.21362 96.28943,141.21362 Z"
         id="path57" />
      <path
         d="M 107.55944,141.21362 Q 106.26444,141.21362 105.28444,140.54862 104.32194,139.86612 103.79694,138.62362 103.27194,137.36362 103.27194,135.68362 103.27194,134.00362 103.79694,132.76112 104.32194,131.50112 105.28444,130.83612 106.26444,130.15362 107.55944,130.15362 108.41694,130.15362 109.11694,130.48612 109.81694,130.81862 110.14944,131.39612 H 110.67444 V 126.09362 H 112.59944 V 140.93362 H 110.67444 V 139.97112 H 110.14944 Q 109.81694,140.54862 109.11694,140.88112 108.41694,141.21362 107.55944,141.21362 Z M 105.19694,135.68362 Q 105.19694,137.45112 105.91444,138.43112 106.64944,139.41112 107.96194,139.41112 109.29194,139.41112 110.00944,138.43112 110.74444,137.45112 110.74444,135.68362 110.74444,133.91612 110.00944,132.93612 109.29194,131.95612 107.96194,131.95612 106.64944,131.95612 105.91444,132.93612 105.19694,133.91612 105.19694,135.68362 Z"
         id="path59" />
      <path
         d="M 116.09946,135.59612 Q 116.09946,133.93362 116.65946,132.70862 117.23696,131.48362 118.28696,130.81862 119.33696,130.15362 120.75446,130.15362 122.76696,130.15362 123.88696,131.57112 125.00696,132.97112 125.00696,135.50862 125.00696,135.82362 124.97196,136.31362 H 118.00696 Q 118.14696,137.85362 118.86446,138.65862 119.58196,139.46362 120.80696,139.46362 122.53946,139.46362 123.48446,137.71362 H 125.28696 Q 124.90196,139.34112 123.69446,140.28612 122.50446,141.21362 120.80696,141.21362 118.56696,141.21362 117.32446,139.74362 116.09946,138.25612 116.09946,135.59612 Z M 123.16946,134.61612 Q 123.01196,133.28612 122.38196,132.60362 121.76946,131.90362 120.75446,131.90362 119.63446,131.90362 118.93446,132.62112 118.23446,133.32112 118.04196,134.61612 Z"
         id="path61" />
      <path
         d="M 131.30697,140.93362 V 132.23612 H 128.96197 V 130.43362 H 131.30697 V 129.29612 Q 131.30697,127.66862 132.25197,126.74112 133.19697,125.81362 134.84197,125.81362 136.39947,125.81362 137.34447,126.61862 138.28947,127.42362 138.37697,128.85862 H 136.62697 Q 136.11947,127.59862 134.84197,127.59862 134.07197,127.59862 133.65197,128.08862 133.23197,128.56112 133.23197,129.41862 V 130.43362 H 137.22197 V 132.23612 H 133.23197 V 140.93362 Z"
         id="path63" />
      <path
         d="M 149.38448,140.58362 Q 149.38448,142.49112 148.15948,143.59362 146.93448,144.71362 144.79948,144.71362 142.80448,144.71362 141.56198,143.80362 140.33698,142.89362 140.26698,141.33612 H 142.10448 Q 142.38448,142.10612 143.08448,142.52612 143.78448,142.96362 144.79948,142.96362 146.04198,142.96362 146.74198,142.29862 147.45948,141.63362 147.45948,140.46112 V 139.34112 H 146.93448 Q 146.58448,139.84862 145.91948,140.14612 145.25448,140.44362 144.48448,140.44362 143.22448,140.44362 142.27948,139.83112 141.33448,139.20112 140.80948,138.04612 140.30198,136.89112 140.30198,135.33362 140.30198,133.75862 140.80948,132.58612 141.33448,131.41362 142.27948,130.78362 143.22448,130.15362 144.48448,130.15362 145.27198,130.15362 145.93698,130.46862 146.60198,130.78362 146.93448,131.30862 H 147.45948 V 130.43362 H 149.38448 Z M 142.20948,135.33362 Q 142.20948,136.92612 142.90948,137.81862 143.62698,138.71112 144.88698,138.71112 146.16448,138.71112 146.86448,137.81862 147.58198,136.92612 147.58198,135.33362 147.58198,133.74112 146.86448,132.84862 146.16448,131.95612 144.88698,131.95612 143.62698,131.95612 142.90948,132.84862 142.20948,133.74112 142.20948,135.33362 Z"
         id="path65" />
      <path
         d="M 153.14699,126.09362 H 155.07199 V 131.22112 H 155.59699 Q 155.98199,130.71362 156.61199,130.43362 157.24199,130.15362 158.01199,130.15362 159.09699,130.15362 159.91949,130.64362 160.74199,131.13362 161.17949,132.04362 161.63449,132.93612 161.63449,134.12612 V 140.93362 H 159.70949 V 134.65112 Q 159.70949,133.35612 159.11449,132.67362 158.51949,131.99112 157.39949,131.99112 156.26199,131.99112 155.66699,132.67362 155.07199,133.35612 155.07199,134.65112 V 140.93362 H 153.14699 Z"
         id="path67" />
      <path
         d="M 171.06701,130.43362 V 139.13112 H 174.23451 V 140.93362 H 165.95701 V 139.13112 H 169.14201 V 132.23612 H 165.95701 V 130.43362 Z M 169.96451,128.87612 Q 169.28201,128.87612 168.89701,128.50862 168.51201,128.12362 168.51201,127.45862 168.51201,126.79362 168.89701,126.42612 169.28201,126.04112 169.96451,126.04112 170.64701,126.04112 171.03201,126.42612 171.41701,126.79362 171.41701,127.45862 171.41701,128.12362 171.03201,128.50862 170.64701,128.87612 169.96451,128.87612 Z"
         id="path69" />
      <path
         d="M 184.45453,130.43362 V 141.26612 Q 184.45453,142.91112 183.52703,143.80362 182.61703,144.71362 180.91953,144.71362 179.34453,144.71362 178.41703,143.92612 177.48953,143.15612 177.38453,141.73862 H 179.16953 Q 179.65953,142.94612 180.91953,142.94612 181.67203,142.94612 182.09203,142.47362 182.52953,142.00112 182.52953,141.16112 V 132.23612 H 177.97953 V 130.43362 Z M 183.49203,128.87612 Q 182.80953,128.87612 182.42453,128.50862 182.03953,128.12362 182.03953,127.45862 182.03953,126.79362 182.42453,126.42612 182.80953,126.04112 183.49203,126.04112 184.17453,126.04112 184.55953,126.42612 184.94453,126.79362 184.94453,127.45862 184.94453,128.12362 184.55953,128.50862 184.17453,128.87612 183.49203,128.87612 Z"
         id="path71" />
      <path
         d="M 192.64454,136.47112 V 140.93362 H 190.71954 V 126.09362 H 192.64454 V 135.15862 L 196.72204,130.43362 H 199.15454 L 194.51704,135.75362 199.10204,140.93362 H 196.56454 Z"
         id="path73" />
      <path
         d="M 207.55456,126.09362 V 139.13112 H 210.72206 V 140.93362 H 202.44456 V 139.13112 H 205.62956 V 127.89612 H 202.44456 V 126.09362 Z"
         id="path75" />
      <path
         d="M 215.67456,130.43362 V 131.27362 H 216.12956 Q 216.30456,130.74862 216.70706,130.45112 217.10956,130.15362 217.68706,130.15362 218.21206,130.15362 218.61456,130.48612 219.01706,130.80112 219.22706,131.36112 H 219.68206 Q 219.87456,130.80112 220.31206,130.48612 220.76706,130.15362 221.39706,130.15362 222.30706,130.15362 222.84956,130.92362 223.40956,131.67612 223.40956,132.95362 V 140.93362 H 221.57206 V 133.70612 Q 221.57206,132.27112 220.52206,132.27112 219.48956,132.27112 219.48956,133.70612 V 140.93362 H 217.66956 V 133.70612 Q 217.66956,132.27112 216.63706,132.27112 215.58706,132.27112 215.58706,133.70612 V 140.93362 H 213.74956 V 130.43362 Z"
         id="path77" />
      <path
         d="M 226.64707,130.43362 H 228.57207 V 131.22112 H 229.09707 Q 229.48207,130.71362 230.11207,130.43362 230.74207,130.15362 231.51207,130.15362 232.59707,130.15362 233.41957,130.64362 234.24207,131.13362 234.67957,132.04362 235.13457,132.93612 235.13457,134.12612 V 140.93362 H 233.20957 V 134.65112 Q 233.20957,133.35612 232.61457,132.67362 232.01957,131.99112 230.89957,131.99112 229.76207,131.99112 229.16707,132.67362 228.57207,133.35612 228.57207,134.65112 V 140.93362 H 226.64707 Z"
         id="path79" />
      <path
         d="M 243.04459,141.21362 Q 241.60959,141.21362 240.52459,140.54862 239.45709,139.86612 238.86209,138.62362 238.28459,137.36362 238.28459,135.68362 238.28459,134.00362 238.86209,132.76112 239.45709,131.50112 240.52459,130.83612 241.60959,130.15362 243.04459,130.15362 244.47959,130.15362 245.54709,130.83612 246.63209,131.50112 247.20959,132.76112 247.80459,134.00362 247.80459,135.68362 247.80459,137.36362 247.20959,138.62362 246.63209,139.86612 245.54709,140.54862 244.47959,141.21362 243.04459,141.21362 Z M 240.19209,135.68362 Q 240.19209,137.45112 240.94459,138.43112 241.69709,139.41112 243.04459,139.41112 244.39209,139.41112 245.14459,138.43112 245.89709,137.45112 245.89709,135.68362 245.89709,133.91612 245.14459,132.93612 244.39209,131.95612 243.04459,131.95612 241.69709,131.95612 240.94459,132.93612 240.19209,133.91612 240.19209,135.68362 Z"
         id="path81" />
      <path
         d="M 250.9896,130.43362 H 252.9146 V 131.39612 H 253.4396 Q 253.7721,130.81862 254.4721,130.48612 255.1721,130.15362 256.0296,130.15362 257.3246,130.15362 258.2871,130.83612 259.2671,131.50112 259.7921,132.76112 260.3171,134.00362 260.3171,135.68362 260.3171,137.36362 259.7921,138.62362 259.2671,139.86612 258.2871,140.54862 257.3246,141.21362 256.0296,141.21362 255.1721,141.21362 254.4721,140.88112 253.7721,140.54862 253.4396,139.97112 H 252.9146 V 144.43362 H 250.9896 Z M 252.8446,135.68362 Q 252.8446,137.45112 253.5621,138.43112 254.2971,139.41112 255.6271,139.41112 256.9396,139.41112 257.6571,138.43112 258.3921,137.45112 258.3921,135.68362 258.3921,133.91612 257.6571,132.93612 256.9396,131.95612 255.6271,131.95612 254.2971,131.95612 253.5621,132.93612 252.8446,133.91612 252.8446,135.68362 Z"
         id="path83" />
      <path
         d="M 269.92462,139.97112 H 269.39962 Q 269.06712,140.54862 268.36712,140.88112 267.66712,141.21362 266.80962,141.21362 265.51462,141.21362 264.53462,140.54862 263.57212,139.86612 263.04712,138.62362 262.52212,137.36362 262.52212,135.68362 262.52212,134.00362 263.04712,132.76112 263.57212,131.50112 264.53462,130.83612 265.51462,130.15362 266.80962,130.15362 267.66712,130.15362 268.36712,130.48612 269.06712,130.81862 269.39962,131.39612 H 269.92462 V 130.43362 H 271.84962 V 144.43362 H 269.92462 Z M 264.44712,135.68362 Q 264.44712,137.45112 265.16462,138.43112 265.89962,139.41112 267.21212,139.41112 268.54212,139.41112 269.25962,138.43112 269.99462,137.45112 269.99462,135.68362 269.99462,133.91612 269.25962,132.93612 268.54212,131.95612 267.21212,131.95612 265.89962,131.95612 265.16462,132.93612 264.44712,133.91612 264.44712,135.68362 Z"
         id="path85" />
      <path
         d="M 279.42713,130.43362 V 131.20362 H 279.95213 Q 280.26713,130.69612 280.80963,130.43362 281.35213,130.15362 282.05213,130.15362 283.32963,130.15362 284.04713,131.04612 284.78213,131.92112 284.78213,133.46112 V 134.98362 H 282.78713 V 133.74112 Q 282.78713,131.97362 281.35213,131.97362 279.54963,131.97362 279.54963,135.21112 V 139.13112 H 282.80463 V 140.93362 H 275.64713 V 139.13112 H 277.62463 V 132.23612 H 275.33213 V 130.43362 Z"
         id="path87" />
      <path
         d="M 289.61215,137.71362 Q 289.85715,138.53612 290.50465,138.97362 291.15215,139.41112 292.16715,139.41112 293.21715,139.41112 293.77715,139.04362 294.33715,138.65862 294.33715,137.95862 294.33715,136.99612 292.53465,136.73362 L 291.25715,136.54112 Q 289.54215,136.27862 288.71965,135.52612 287.89715,134.75612 287.89715,133.42612 287.89715,131.90362 289.01715,131.02862 290.15465,130.15362 292.13215,130.15362 294.14465,130.15362 295.29965,131.13362 296.47215,132.11362 296.55965,133.86362 H 294.80965 Q 294.56465,132.93612 293.86465,132.44612 293.18215,131.95612 292.09715,131.95612 290.99465,131.95612 290.39965,132.34112 289.80465,132.70862 289.80465,133.40862 289.80465,134.37112 291.60715,134.63362 L 292.88465,134.82612 Q 294.61715,135.08862 295.42215,135.84112 296.24465,136.59362 296.24465,137.94112 296.24465,139.46362 295.14215,140.33862 294.05715,141.21362 292.14965,141.21362 290.18965,141.21362 289.05215,140.30362 287.91465,139.37612 287.82715,137.71362 Z"
         id="path89" />
      <path
         d="M 303.82216,130.43362 H 308.54716 V 132.23612 H 303.82216 V 137.48612 Q 303.82216,138.41362 304.20716,138.92112 304.59216,139.41112 305.32716,139.41112 306.07966,139.41112 306.51716,138.88612 306.95466,138.36112 307.16466,137.25862 H 308.86216 Q 308.79216,139.16612 307.84716,140.19862 306.91966,141.21362 305.25716,141.21362 303.64716,141.21362 302.77216,140.26862 301.89716,139.30612 301.89716,137.55612 V 132.23612 H 299.58716 V 130.43362 H 301.89716 V 127.70362 H 303.82216 Z"
         id="path91" />
      <path
         d="M 320.69218,140.93362 H 318.76718 V 140.14612 H 318.24218 Q 317.85718,140.65362 317.22718,140.93362 316.59718,141.21362 315.82718,141.21362 314.74218,141.21362 313.91968,140.72362 313.09718,140.23362 312.64218,139.34112 312.20468,138.43112 312.20468,137.24112 V 130.43362 H 314.12968 V 136.71612 Q 314.12968,138.01112 314.72468,138.69362 315.31968,139.37612 316.43968,139.37612 317.57718,139.37612 318.17218,138.69362 318.76718,138.01112 318.76718,136.71612 V 130.43362 H 320.69218 Z"
         id="path93" />
      <path
         d="M 325.88968,130.43362 328.77718,139.20112 H 328.95218 L 331.82218,130.43362 H 333.74718 L 330.26468,140.93362 H 327.32468 L 323.84218,130.43362 Z"
         id="path95" />
      <path
         d="M 335.44471,130.43362 H 337.36971 L 338.24471,136.03362 338.61221,139.53362 H 338.78721 L 339.78471,130.43362 H 342.44471 L 343.47721,139.53362 H 343.65221 L 344.00221,136.03362 344.89471,130.43362 H 346.64471 L 344.77221,140.93362 H 342.16471 L 341.13221,131.78112 H 340.95721 L 339.95971,140.93362 H 337.31721 Z"
         id="path97" />
      <path
         d="M 351.68471,135.94612 348.42971,130.43362 H 350.66971 L 353.04971,134.47612 353.20721,134.98362 H 353.38221 L 353.53971,134.47612 356.05971,130.43362 H 358.15971 L 354.83471,135.77112 357.96721,140.93362 H 355.67471 L 353.46971,137.29362 353.31221,136.78612 H 353.13721 L 352.97971,137.29362 350.75721,140.93362 H 348.62221 Z"
         id="path99" />
      <path
         d="M 362.67471,130.43362 365.36971,138.29112 H 366.08721 L 368.58971,130.43362 H 370.49721 L 366.62971,142.45612 Q 366.29721,143.52362 365.57971,144.11862 364.87971,144.71362 363.95221,144.71362 362.62221,144.71362 361.85221,143.97862 361.08221,143.24362 360.97721,141.84362 H 362.72721 Q 362.93721,142.43862 363.19971,142.68362 363.46221,142.94612 363.88221,142.94612 364.26721,142.94612 364.49471,142.70112 364.73971,142.47362 364.93221,141.89612 L 365.52721,140.05862 H 363.95221 L 360.60971,130.43362 Z"
         id="path101" />
      <path
         d="M 381.74974,130.43362 V 133.77612 L 375.04724,138.95612 V 139.13112 H 381.74974 V 140.93362 H 373.83974 V 137.59112 L 380.54224,132.41112 V 132.23612 H 373.83974 V 130.43362 Z"
         id="path103" />
      <path
         d="M 69.916903,148.80862 H 73.171903 L 76.759403,162.80862 H 74.676903 L 73.504403,158.06612 H 69.461903 L 68.289403,162.80862 H 66.329403 Z M 73.031903,156.17612 71.579403,150.29612 H 71.404403 L 69.934403,156.17612 Z"
         id="path105" />
      <path
         d="M 79.804416,148.80862 H 83.969416 Q 86.086916,148.80862 87.311916,149.84112 88.536916,150.85612 88.536916,152.60612 88.536916,153.62112 87.994416,154.37362 87.469416,155.12612 86.506916,155.44112 V 155.72112 Q 87.574416,156.05362 88.169416,156.91112 88.781916,157.76862 88.781916,158.95862 88.781916,160.76112 87.486916,161.79362 86.209416,162.80862 83.969416,162.80862 H 79.804416 Z M 83.969416,160.95362 Q 85.334416,160.95362 86.051916,160.39362 86.786916,159.81612 86.786916,158.78362 86.786916,157.75112 86.051916,157.19112 85.334416,156.61362 83.969416,156.61362 H 81.799416 V 160.95362 Z M 83.969416,154.86362 Q 85.246916,154.86362 85.929416,154.32112 86.629416,153.77862 86.629416,152.76362 86.629416,151.74862 85.929416,151.20612 85.246916,150.66362 83.969416,150.66362 H 81.799416 V 154.86362 Z"
         id="path107" />
      <path
         d="M 96.34193,163.08862 Q 91.33693,163.08862 91.33693,155.80862 91.33693,148.52862 96.49943,148.52862 98.59943,148.52862 99.82443,149.87612 101.04943,151.20612 101.20693,153.65612 H 99.36943 Q 99.12443,152.06362 98.38943,151.24112 97.67193,150.40112 96.49943,150.40112 94.87193,150.40112 94.10193,151.71362 93.33193,153.02612 93.33193,155.80862 93.33193,158.59112 94.04943,159.90362 94.78443,161.21612 96.34193,161.21612 97.44443,161.21612 98.12693,160.46362 98.80943,159.69362 99.05443,158.20612 H 100.89193 Q 100.73443,160.55112 99.54443,161.82862 98.37193,163.08862 96.34193,163.08862 Z"
         id="path109" />
      <path
         d="M 103.79694,148.80862 H 107.71694 Q 110.53444,148.80862 111.96944,150.57612 113.40444,152.32612 113.40444,155.80862 113.40444,159.29112 111.96944,161.05862 110.53444,162.80862 107.71694,162.80862 H 103.79694 Z M 107.71694,160.93612 Q 109.57194,160.93612 110.48194,159.67612 111.40944,158.39862 111.40944,155.80862 111.40944,153.21862 110.48194,151.95862 109.57194,150.68112 107.71694,150.68112 H 105.79194 V 160.93612 Z"
         id="path111" />
      <path
         d="M 116.86946,148.80862 H 125.14696 V 150.68112 H 118.86446 V 154.88112 H 124.27196 V 156.63112 H 118.86446 V 160.93612 H 124.97196 V 162.80862 H 116.86946 Z"
         id="path113" />
      <path
         d="M 129.46947,148.80862 H 137.74697 V 150.68112 H 131.46447 V 155.09112 H 136.87197 V 156.84112 H 131.46447 V 162.80862 H 129.46947 Z"
         id="path115" />
      <path
         d="M 144.76448,163.07112 Q 142.57698,163.07112 141.36948,161.21612 140.16198,159.34362 140.16198,155.80862 140.16198,148.52862 145.32448,148.52862 147.40698,148.52862 148.61448,149.78862 149.82198,151.03112 150.01448,153.30612 H 148.15948 Q 147.58198,150.40112 145.32448,150.40112 143.69698,150.40112 142.92698,151.71362 142.15698,153.02612 142.15698,155.80862 142.15698,158.64362 142.92698,159.99112 143.69698,161.32112 145.30698,161.32112 146.02448,161.32112 146.63698,160.83112 147.26698,160.34112 147.63448,159.50112 148.00198,158.64362 148.00198,157.66362 H 145.02698 V 155.80862 H 149.69948 V 162.80862 H 148.00198 V 161.70612 H 147.47698 Q 147.16198,162.35362 146.44448,162.72112 145.72698,163.07112 144.76448,163.07112 Z"
         id="path117" />
      <path
         d="M 152.79699,148.80862 H 154.79199 V 154.81112 H 159.79699 V 148.80862 H 161.79199 V 162.80862 H 159.79699 V 156.70112 H 154.79199 V 162.80862 H 152.79699 Z"
         id="path119" />
      <path
         d="M 165.04701,160.93612 H 168.54701 V 150.68112 H 165.04701 V 148.80862 H 174.04201 V 150.68112 H 170.54201 V 160.93612 H 174.04201 V 162.80862 H 165.04701 Z"
         id="path121" />
      <path
         d="M 181.47953,163.08862 Q 179.39703,163.08862 178.20703,161.91612 177.01703,160.72612 177.01703,158.66112 V 156.68362 H 178.97703 V 158.48612 Q 178.97703,159.78112 179.64203,160.49862 180.30703,161.21612 181.47953,161.21612 182.66953,161.21612 183.33453,160.49862 183.99953,159.78112 183.99953,158.48612 V 150.73362 H 178.03203 V 148.80862 H 185.99453 V 158.66112 Q 185.99453,160.72612 184.78703,161.91612 183.59703,163.08862 181.47953,163.08862 Z"
         id="path123" />
      <path
         d="M 192.32954,148.80862 V 155.21362 L 196.96704,148.80862 H 199.27704 L 194.09704,155.94862 199.08454,162.80862 H 196.65204 L 192.32954,156.85862 V 162.80862 H 190.33454 V 148.80862 Z"
         id="path125" />
      <path
         d="M 203.31956,148.80862 H 205.31456 V 160.93612 H 211.24706 V 162.80862 H 203.31956 Z"
         id="path127" />
      <path
         d="M 213.69706,148.80862 H 216.86456 L 218.50956,156.91112 H 218.70206 L 220.32956,148.80862 H 223.39206 V 162.80862 H 221.57206 V 154.75862 L 221.64206,150.20862 H 221.43206 L 219.87456,158.08362 H 217.23206 L 215.65706,150.20862 H 215.44706 L 215.51706,154.75862 V 162.80862 H 213.69706 Z"
         id="path129" />
      <path
         d="M 226.17457,148.80862 H 229.56957 L 233.45457,161.53112 H 233.64707 L 233.57707,157.50612 V 148.80862 H 235.41457 V 162.80862 H 232.01957 L 228.13457,150.08612 H 227.94207 L 228.01207,154.11112 V 162.80862 H 226.17457 Z"
         id="path131" />
      <path
         d="M 243.04459,163.08862 Q 237.93459,163.08862 237.93459,155.80862 237.93459,148.52862 243.04459,148.52862 248.15459,148.52862 248.15459,155.80862 248.15459,163.08862 243.04459,163.08862 Z M 239.92959,155.80862 Q 239.92959,158.59112 240.68209,159.90362 241.43459,161.21612 243.04459,161.21612 244.65459,161.21612 245.40709,159.90362 246.15959,158.59112 246.15959,155.80862 246.15959,153.02612 245.40709,151.71362 244.65459,150.40112 243.04459,150.40112 241.43459,150.40112 240.68209,151.71362 239.92959,153.02612 239.92959,155.80862 Z"
         id="path133" />
      <path
         d="M 251.4446,148.80862 H 256.2396 Q 257.5521,148.80862 258.5321,149.31612 259.5296,149.82362 260.0721,150.75112 260.6146,151.67862 260.6146,152.92112 260.6146,154.16362 260.0721,155.09112 259.5296,156.01862 258.5321,156.52612 257.5521,157.01612 256.2396,157.01612 H 253.4396 V 162.80862 H 251.4446 Z M 256.3096,155.23112 Q 257.3771,155.23112 257.9896,154.61862 258.6196,154.00612 258.6196,152.95612 258.6196,151.90612 257.9896,151.29362 257.3771,150.68112 256.3096,150.68112 H 253.4396 V 155.23112 Z"
         id="path135" />
      <path
         d="M 267.54462,161.21612 Q 269.15462,161.21612 269.90712,159.90362 270.65962,158.59112 270.65962,155.80862 270.65962,153.02612 269.90712,151.71362 269.15462,150.40112 267.54462,150.40112 265.93462,150.40112 265.18212,151.71362 264.42962,153.02612 264.42962,155.80862 264.42962,158.59112 265.18212,159.90362 265.93462,161.21612 267.54462,161.21612 Z M 262.43462,155.80862 Q 262.43462,148.52862 267.54462,148.52862 272.65462,148.52862 272.65462,155.80862 272.65462,162.70362 268.06962,163.07112 V 163.31612 L 272.04212,164.59362 V 166.58862 L 267.01962,164.97862 V 163.07112 Q 262.43462,162.70362 262.43462,155.80862 Z"
         id="path137" />
      <path
         d="M 275.68213,148.80862 H 280.42463 Q 281.75463,148.80862 282.75213,149.29862 283.76713,149.78862 284.30963,150.71612 284.86963,151.62612 284.86963,152.85112 284.86963,154.35612 283.94213,155.38862 283.03213,156.40362 281.47463,156.68362 L 285.21963,162.80862 H 282.94463 L 279.37463,156.77112 H 277.67713 V 162.80862 H 275.68213 Z M 280.45963,155.03862 Q 281.54463,155.03862 282.20963,154.44362 282.87463,153.84862 282.87463,152.86862 282.87463,151.88862 282.20963,151.29362 281.54463,150.68112 280.45963,150.68112 H 277.67713 V 155.03862 Z"
         id="path139" />
      <path
         d="M 289.31465,159.23862 Q 289.61215,160.20112 290.32965,160.70862 291.06465,161.21612 292.16715,161.21612 293.39215,161.21612 294.09215,160.60362 294.79215,159.99112 294.79215,158.90612 294.79215,158.11862 294.26715,157.61112 293.75965,157.10362 292.79715,156.94612 L 291.25715,156.71862 Q 289.43715,156.42112 288.50965,155.42362 287.58215,154.40862 287.58215,152.72862 287.58215,151.46862 288.15965,150.52362 288.73715,149.56112 289.80465,149.05362 290.87215,148.52862 292.27215,148.52862 294.37215,148.52862 295.64965,149.64862 296.94465,150.76862 297.06715,152.72862 H 295.17715 Q 294.87965,151.60862 294.14465,151.01362 293.40965,150.40112 292.27215,150.40112 290.99465,150.40112 290.25965,151.03112 289.54215,151.64362 289.54215,152.72862 289.54215,153.53362 290.04965,154.04112 290.55715,154.54862 291.51965,154.70612 L 293.05965,154.93362 Q 294.89715,155.23112 295.82465,156.24612 296.75215,157.24362 296.75215,158.90612 296.75215,160.16612 296.17465,161.11112 295.61465,162.05612 294.56465,162.58112 293.53215,163.08862 292.16715,163.08862 290.06715,163.08862 288.78965,162.05612 287.51215,161.02362 287.40715,159.23862 Z"
         id="path141" />
      <path
         d="M 303.29716,150.68112 H 299.16716 V 148.80862 H 309.42216 V 150.68112 H 305.29216 V 162.80862 H 303.29716 Z"
         id="path143" />
      <path
         d="M 313.90218,148.80862 V 158.03112 Q 313.90218,159.53612 314.60218,160.37612 315.30218,161.21612 316.57968,161.21612 317.85718,161.21612 318.55718,160.37612 319.25718,159.53612 319.25718,158.03112 V 148.80862 H 321.18218 V 158.20612 Q 321.18218,160.56862 319.99218,161.82862 318.80218,163.08862 316.54468,163.08862 314.28718,163.08862 313.09718,161.82862 311.90718,160.56862 311.90718,158.20612 V 148.80862 Z"
         id="path145" />
      <path
         d="M 328.75968,161.32112 H 328.93468 L 332.04968,148.80862 H 334.00968 L 330.42218,162.80862 H 327.16718 L 323.57968,148.80862 H 325.66218 Z"
         id="path147" />
      <path
         d="M 338.27971,158.18862 338.50721,161.40862 H 338.69971 L 339.76721,152.30862 H 342.47971 L 343.47721,161.40862 H 343.66971 L 343.93221,158.18862 345.05221,148.80862 H 346.76721 L 345.05221,162.80862 H 342.19971 L 341.16721,153.48112 H 340.97471 L 339.87221,162.80862 H 337.03721 L 335.32221,148.80862 H 337.17721 Z"
         id="path149" />
      <path
         d="M 351.73721,156.07112 348.06221,148.80862 H 350.30221 L 353.03221,154.25112 353.20721,155.10862 H 353.39971 L 353.57471,154.25112 356.37471,148.80862 H 358.52721 L 354.85221,155.96612 358.28221,162.80862 H 356.00721 L 353.57471,157.89112 353.38221,156.99862 H 353.18971 L 353.01471,157.89112 350.51221,162.80862 H 348.30721 Z"
         id="path151" />
      <path
         d="M 365.31721,154.40862 365.50971,155.03862 H 365.68471 L 365.85971,154.40862 368.93971,148.80862 H 370.95221 L 366.54221,156.80612 V 162.80862 H 364.54721 V 156.80612 L 360.13721,148.80862 H 362.28971 Z"
         id="path153" />
      <path
         d="M 373.47224,159.43112 380.78724,150.85612 V 150.68112 H 373.47224 V 148.80862 H 382.11724 V 152.18612 L 374.80224,160.76112 V 160.93612 H 382.11724 V 162.80862 H 373.47224 Z"
         id="path155" />
      <path
         d="M 71.544403,184.96362 Q 70.109403,184.96362 69.024403,184.29862 67.956903,183.61612 67.361903,182.37362 66.784403,181.11362 66.784403,179.43362 66.784403,177.75362 67.361903,176.51112 67.956903,175.25112 69.024403,174.58612 70.109403,173.90362 71.544403,173.90362 72.979403,173.90362 74.046903,174.58612 75.131903,175.25112 75.709403,176.51112 76.304403,177.75362 76.304403,179.43362 76.304403,181.11362 75.709403,182.37362 75.131903,183.61612 74.046903,184.29862 72.979403,184.96362 71.544403,184.96362 Z M 68.691903,179.43362 Q 68.691903,181.20112 69.444403,182.18112 70.196903,183.16112 71.544403,183.16112 72.891903,183.16112 73.644403,182.18112 74.396903,181.20112 74.396903,179.43362 74.396903,177.66612 73.644403,176.68612 72.891903,175.70612 71.544403,175.70612 70.196903,175.70612 69.444403,176.68612 68.691903,177.66612 68.691903,179.43362 Z"
         id="path157" />
      <path
         d="M 83.794416,184.96362 Q 78.684416,184.96362 78.684416,177.68362 78.684416,170.40362 83.794416,170.40362 88.904416,170.40362 88.904416,177.68362 88.904416,184.96362 83.794416,184.96362 Z M 80.679416,177.68362 Q 80.679416,180.46612 81.431916,181.77862 82.184416,183.09112 83.794416,183.09112 85.404416,183.09112 86.156916,181.77862 86.909416,180.46612 86.909416,177.68362 86.909416,174.90112 86.156916,173.58862 85.404416,172.27612 83.794416,172.27612 82.184416,172.27612 81.431916,173.58862 80.679416,174.90112 80.679416,177.68362 Z"
         id="path159" />
      <path
         d="M 96.04443,184.96362 Q 90.93443,184.96362 90.93443,177.68362 90.93443,170.40362 96.04443,170.40362 101.15443,170.40362 101.15443,177.68362 101.15443,184.96362 96.04443,184.96362 Z M 92.92943,177.68362 Q 92.92943,178.13862 92.96443,178.83862 L 98.77443,174.46362 Q 98.42443,173.34362 97.74193,172.81862 97.07693,172.27612 96.04443,172.27612 94.43443,172.27612 93.68193,173.58862 92.92943,174.90112 92.92943,177.68362 Z M 93.29693,180.86862 Q 93.64693,181.98862 94.32943,182.54862 95.01193,183.09112 96.04443,183.09112 97.65443,183.09112 98.40693,181.77862 99.15943,180.46612 99.15943,177.68362 99.15943,177.21112 99.12443,176.47612 Z"
         id="path161" />
      <path
         d="M 108.29444,176.65112 Q 109.58944,176.65112 110.32444,176.07362 111.07694,175.47862 111.07694,174.46362 111.07694,173.44862 110.32444,172.87112 109.58944,172.27612 108.29444,172.27612 106.99944,172.27612 106.24694,172.87112 105.51194,173.44862 105.51194,174.46362 105.51194,175.47862 106.24694,176.07362 106.99944,176.65112 108.29444,176.65112 Z M 103.58694,180.92112 Q 103.58694,179.69612 104.18194,178.80362 104.79444,177.89362 105.79194,177.61362 V 177.33362 Q 104.79444,177.05362 104.18194,176.23112 103.58694,175.40862 103.58694,174.32362 103.58694,173.15112 104.16444,172.25862 104.74194,171.36612 105.80944,170.89362 106.87694,170.40362 108.29444,170.40362 109.71194,170.40362 110.77944,170.89362 111.84694,171.36612 112.42444,172.25862 113.00194,173.15112 113.00194,174.32362 113.00194,175.40862 112.38944,176.23112 111.79444,177.05362 110.79694,177.33362 V 177.61362 Q 111.79444,177.89362 112.38944,178.80362 113.00194,179.69612 113.00194,180.92112 113.00194,182.12862 112.42444,183.05612 111.84694,183.96612 110.77944,184.47362 109.71194,184.96362 108.29444,184.96362 106.87694,184.96362 105.80944,184.47362 104.74194,183.96612 104.16444,183.05612 103.58694,182.12862 103.58694,180.92112 Z M 105.58194,180.76362 Q 105.58194,181.84862 106.29944,182.47862 107.01694,183.09112 108.29444,183.09112 109.57194,183.09112 110.28944,182.47862 111.00694,181.84862 111.00694,180.76362 111.00694,179.67862 110.28944,179.06612 109.57194,178.43612 108.29444,178.43612 107.01694,178.43612 106.29944,179.06612 105.58194,179.67862 105.58194,180.76362 Z"
         id="path163" />
      <path
         d="M 134.31697,174.18362 V 182.88112 H 137.48447 V 184.68362 H 129.20697 V 182.88112 H 132.39197 V 175.98612 H 129.20697 V 174.18362 Z M 133.21447,172.62612 Q 132.53197,172.62612 132.14697,172.25862 131.76197,171.87362 131.76197,171.20862 131.76197,170.54362 132.14697,170.17612 132.53197,169.79112 133.21447,169.79112 133.89697,169.79112 134.28197,170.17612 134.66697,170.54362 134.66697,171.20862 134.66697,171.87362 134.28197,172.25862 133.89697,172.62612 133.21447,172.62612 Z"
         id="path165" />
      <path
         d="M 140.54698,182.81112 H 144.04698 V 172.55612 H 140.54698 V 170.68362 H 149.54198 V 172.55612 H 146.04198 V 182.81112 H 149.54198 V 184.68362 H 140.54698 Z"
         id="path167" />
      <path
         d="M 158.55449,169.84362 V 182.88112 H 161.72199 V 184.68362 H 153.44449 V 182.88112 H 156.62949 V 171.64612 H 153.44449 V 169.84362 Z"
         id="path169" />
      <path
         d="M 166.56951,170.68362 H 168.56451 V 182.81112 H 174.49701 V 184.68362 H 166.56951 Z"
         id="path171" />
      <path
         d="M 183.31703,182.81112 H 186.74703 V 184.68362 H 177.54203 V 182.81112 H 181.32203 V 172.22362 L 177.54203,174.67362 V 172.53862 L 180.48203,170.68362 H 183.31703 Z"
         id="path173" />
      <path
         d="M 210.37206,170.33362 Q 208.90206,170.47362 208.23706,170.98112 207.57206,171.47112 207.57206,172.41612 207.57206,172.88862 207.72956,173.60612 207.79956,173.93862 207.85206,174.32362 207.92206,174.70862 207.92206,175.05862 207.92206,176.07362 207.27456,176.82612 206.64456,177.57862 205.54206,177.85862 V 178.20862 Q 206.64456,178.48862 207.27456,179.24112 207.92206,179.99362 207.92206,181.00862 207.92206,181.35862 207.85206,181.74362 207.79956,182.12862 207.72956,182.46112 207.57206,183.17862 207.57206,183.65112 207.57206,184.59612 208.23706,185.08612 208.90206,185.59362 210.37206,185.73362 V 187.34362 Q 208.02706,187.27362 206.87206,186.36362 205.71706,185.45362 205.71706,183.65112 205.71706,183.21362 205.89206,182.40862 206.06706,181.63862 206.06706,181.21862 206.06706,180.25612 205.45456,179.73112 204.84206,179.18862 203.49456,178.97862 V 177.08862 Q 204.84206,176.87862 205.45456,176.35362 206.06706,175.81112 206.06706,174.84862 206.06706,174.42862 205.89206,173.65862 205.71706,172.85362 205.71706,172.41612 205.71706,170.61362 206.87206,169.70362 208.02706,168.79362 210.37206,168.72362 Z"
         id="path175" />
      <path
         d="M 214.46706,168.72362 Q 216.81206,168.79362 217.96706,169.70362 219.12206,170.61362 219.12206,172.41612 219.12206,172.85362 218.94706,173.65862 218.77206,174.42862 218.77206,174.84862 218.77206,175.81112 219.38456,176.35362 219.99706,176.87862 221.34456,177.08862 V 178.97862 Q 219.99706,179.18862 219.38456,179.73112 218.77206,180.25612 218.77206,181.21862 218.77206,181.63862 218.94706,182.40862 219.12206,183.21362 219.12206,183.65112 219.12206,185.45362 217.96706,186.36362 216.81206,187.27362 214.46706,187.34362 V 185.73362 Q 215.93706,185.59362 216.60206,185.08612 217.26706,184.59612 217.26706,183.65112 217.26706,183.17862 217.10956,182.46112 217.03956,182.12862 216.96956,181.74362 216.91706,181.35862 216.91706,181.00862 216.91706,179.99362 217.54706,179.24112 218.19456,178.48862 219.29706,178.20862 V 177.85862 Q 218.19456,177.57862 217.54706,176.82612 216.91706,176.07362 216.91706,175.05862 216.91706,174.70862 216.96956,174.32362 217.03956,173.93862 217.10956,173.60612 217.26706,172.88862 217.26706,172.41612 217.26706,171.47112 216.60206,170.98112 215.93706,170.47362 214.46706,170.33362 Z"
         id="path177" />
      <path
         d="M 246.59709,170.68362 H 243.35959 V 185.38362 H 246.59709 V 187.13362 H 241.46959 V 168.93362 H 246.59709 Z"
         id="path179" />
      <path
         d="M 256.8696,168.93362 V 187.13362 H 251.7421 V 185.38362 H 254.9796 V 170.68362 H 251.7421 V 168.93362 Z"
         id="path181" />
      <path
         d="M 284.13463,184.33362 Q 284.13463,186.24112 282.90963,187.34362 281.68463,188.46362 279.54963,188.46362 277.55463,188.46362 276.31213,187.55362 275.08713,186.64362 275.01713,185.08612 H 276.85463 Q 277.13463,185.85612 277.83463,186.27612 278.53463,186.71362 279.54963,186.71362 280.79213,186.71362 281.49213,186.04862 282.20963,185.38362 282.20963,184.21112 V 183.09112 H 281.68463 Q 281.33463,183.59862 280.66963,183.89612 280.00463,184.19362 279.23463,184.19362 277.97463,184.19362 277.02963,183.58112 276.08463,182.95112 275.55963,181.79612 275.05213,180.64112 275.05213,179.08362 275.05213,177.50862 275.55963,176.33612 276.08463,175.16362 277.02963,174.53362 277.97463,173.90362 279.23463,173.90362 280.02213,173.90362 280.68713,174.21862 281.35213,174.53362 281.68463,175.05862 H 282.20963 V 174.18362 H 284.13463 Z M 276.95963,179.08362 Q 276.95963,180.67612 277.65963,181.56862 278.37713,182.46112 279.63713,182.46112 280.91463,182.46112 281.61463,181.56862 282.33213,180.67612 282.33213,179.08362 282.33213,177.49112 281.61463,176.59862 280.91463,175.70612 279.63713,175.70612 278.37713,175.70612 277.65963,176.59862 276.95963,177.49112 276.95963,179.08362 Z"
         id="path183" />
      <path
         d="M 292.06215,170.40362 Q 293.42715,170.40362 294.51215,171.01612 295.59715,171.61112 296.19215,172.69612 296.80465,173.78112 296.80465,175.16362 296.80465,176.24862 296.38465,177.35112 295.96465,178.45362 295.05465,179.78362 L 291.71215,184.68362 H 289.48965 L 292.83215,179.87112 292.55215,179.59112 Q 292.13215,179.74862 291.57215,179.74862 290.34715,179.74862 289.36715,179.17112 288.38715,178.57612 287.82715,177.52612 287.28465,176.47612 287.28465,175.16362 287.28465,173.78112 287.89715,172.69612 288.50965,171.61112 289.59465,171.01612 290.67965,170.40362 292.06215,170.40362 Z M 289.27965,175.16362 Q 289.27965,176.45862 290.03215,177.24612 290.80215,178.01612 292.04465,178.01612 293.28715,178.01612 294.03965,177.24612 294.80965,176.45862 294.80965,175.16362 294.80965,173.86862 294.03965,173.08112 293.28715,172.27612 292.04465,172.27612 290.80215,172.27612 290.03215,173.08112 289.27965,173.86862 289.27965,175.16362 Z"
         id="path185" />
      <path
         d="M 306.67466,183.72112 H 306.14966 Q 305.81716,184.29862 305.11716,184.63112 304.41716,184.96362 303.55966,184.96362 302.26466,184.96362 301.28466,184.29862 300.32216,183.61612 299.79716,182.37362 299.27216,181.11362 299.27216,179.43362 299.27216,177.75362 299.79716,176.51112 300.32216,175.25112 301.28466,174.58612 302.26466,173.90362 303.55966,173.90362 304.41716,173.90362 305.11716,174.23612 305.81716,174.56862 306.14966,175.14612 H 306.67466 V 174.18362 H 308.59966 V 188.18362 H 306.67466 Z M 301.19716,179.43362 Q 301.19716,181.20112 301.91466,182.18112 302.64966,183.16112 303.96216,183.16112 305.29216,183.16112 306.00966,182.18112 306.74466,181.20112 306.74466,179.43362 306.74466,177.66612 306.00966,176.68612 305.29216,175.70612 303.96216,175.70612 302.64966,175.70612 301.91466,176.68612 301.19716,177.66612 301.19716,179.43362 Z"
         id="path187" />
      <path
         d="M 316.84218,184.96362 Q 311.83718,184.96362 311.83718,177.68362 311.83718,170.40362 316.99968,170.40362 319.09968,170.40362 320.32468,171.75112 321.54968,173.08112 321.70718,175.53112 H 319.86968 Q 319.62468,173.93862 318.88968,173.11612 318.17218,172.27612 316.99968,172.27612 315.37218,172.27612 314.60218,173.58862 313.83218,174.90112 313.83218,177.68362 313.83218,180.46612 314.54968,181.77862 315.28468,183.09112 316.84218,183.09112 317.94468,183.09112 318.62718,182.33862 319.30968,181.56862 319.55468,180.08112 H 321.39218 Q 321.23468,182.42612 320.04468,183.70362 318.87218,184.96362 316.84218,184.96362 Z"
         id="path189" />
      <path
         d="M 328.51468,184.94612 Q 326.32718,184.94612 325.11968,183.09112 323.91218,181.21862 323.91218,177.68362 323.91218,170.40362 329.07468,170.40362 331.15718,170.40362 332.36468,171.66362 333.57218,172.90612 333.76468,175.18112 H 331.90968 Q 331.33218,172.27612 329.07468,172.27612 327.44718,172.27612 326.67718,173.58862 325.90718,174.90112 325.90718,177.68362 325.90718,180.51862 326.67718,181.86612 327.44718,183.19612 329.05718,183.19612 329.77468,183.19612 330.38718,182.70612 331.01718,182.21612 331.38468,181.37612 331.75218,180.51862 331.75218,179.53862 H 328.77718 V 177.68362 H 333.44968 V 184.68362 H 331.75218 V 183.58112 H 331.22718 Q 330.91218,184.22862 330.19468,184.59612 329.47718,184.94612 328.51468,184.94612 Z"
         id="path191" />
      <path
         d="M 341.04471,183.09112 Q 342.65471,183.09112 343.40721,181.77862 344.15971,180.46612 344.15971,177.68362 344.15971,174.90112 343.40721,173.58862 342.65471,172.27612 341.04471,172.27612 339.43471,172.27612 338.68221,173.58862 337.92971,174.90112 337.92971,177.68362 337.92971,180.46612 338.68221,181.77862 339.43471,183.09112 341.04471,183.09112 Z M 335.93471,177.68362 Q 335.93471,170.40362 341.04471,170.40362 346.15471,170.40362 346.15471,177.68362 346.15471,184.57862 341.56971,184.94612 V 185.19112 L 345.54221,186.46862 V 188.46362 L 340.51971,186.85362 V 184.94612 Q 335.93471,184.57862 335.93471,177.68362 Z"
         id="path193" />
      <path
         d="M 367.62721,180.51862 Q 366.78721,180.51862 366.19221,180.16862 365.61471,179.81862 364.94971,179.17112 364.47721,178.71612 364.14471,178.50612 363.82971,178.27862 363.44471,178.27862 363.04221,178.27862 362.77971,178.62862 362.51721,178.97862 362.44721,179.62612 H 360.81971 Q 360.95971,178.19112 361.65971,177.40362 362.35971,176.59862 363.46221,176.59862 364.30221,176.59862 364.87971,176.94862 365.47471,177.29862 366.13971,177.94612 366.61221,178.40112 366.92721,178.62862 367.25971,178.83862 367.64471,178.83862 368.04721,178.83862 368.30971,178.48862 368.57221,178.13862 368.64221,177.49112 H 370.26971 Q 370.12971,178.92612 369.42971,179.73112 368.72971,180.51862 367.62721,180.51862 Z"
         id="path195" />
      <path
         d="M 372.84224,177.68362 H 382.74724 V 179.43362 H 372.84224 Z"
         id="path197" />
      <path
         d="M 389.16974,179.43362 H 385.09224 V 177.68362 H 389.16974 V 173.60612 H 390.91974 V 177.68362 H 394.99724 V 179.43362 H 390.91974 V 183.51112 H 389.16974 Z"
         id="path199" />
      <path
         d="M 397.74477,175.28612 H 406.84477 V 177.03612 H 397.74477 Z M 397.74477,180.08112 H 406.84477 V 181.83112 H 397.74477 Z"
         id="path201" />
      <path
         d="M 410.39727,181.97112 417.51977,178.64612 V 178.47112 L 410.39727,175.14612 V 173.16862 L 418.69227,177.14112 V 179.97612 L 410.39727,183.94862 Z"
         id="path203" />
    </g>
  </g>
</svg>
