<svg xmlns="http://www.w3.org/2000/svg" width="349.536" height="115.716" viewBox="0 0 327.69 108.484"><g font-weight="400" font-family="MesloLGLDZ Nerd Font" letter-spacing="0" word-spacing="0" fill="#fff"><g style="line-height:125%;text-decoration-line:underline" font-size="27.5" text-decoration="underline"><path d="M0 .994h3.625L7.09 11.172 10.58.994h3.639v19.98h-2.511V3.317L8.137 13.844H6.083L2.498 3.317v17.657H0V.994zM31.099 12.22v1.208H20.397v.08q-.108 3.075 1.168 4.418 1.289 1.343 3.625 1.343 1.182 0 2.471-.376 1.29-.376 2.753-1.142v2.458q-1.41.577-2.726.86-1.303.295-2.524.295-3.505 0-5.479-2.095-1.974-2.108-1.974-5.801 0-3.599 1.934-5.747 1.933-2.148 5.156-2.148 2.874 0 4.525 1.947 1.665 1.947 1.773 4.7zm-2.471-.726q-.161-1.557-1.141-2.685-.967-1.142-2.793-1.142-1.786 0-2.941 1.182-1.155 1.182-1.262 2.659l8.137-.014zM45.668 6.459v2.417q-1.061-.618-2.135-.927-1.075-.309-2.189-.309-1.678 0-2.511.55-.82.538-.82 1.653 0 1.007.619 1.503.617.497 3.075.967l.993.188q1.84.35 2.78 1.397.953 1.047.953 2.726 0 2.229-1.584 3.49-1.585 1.25-4.405 1.25-1.114 0-2.336-.242-1.222-.228-2.645-.698v-2.552q1.383.712 2.645 1.075 1.262.349 2.39.349 1.638 0 2.538-.658.9-.672.9-1.867 0-1.719-3.29-2.376l-.108-.027-.926-.188q-2.135-.417-3.115-1.397-.98-.993-.98-2.699 0-2.162 1.463-3.33 1.464-1.181 4.176-1.181 1.208 0 2.323.228 1.115.215 2.189.658zM58.8 15.536q0 1.665.604 2.51.618.847 1.813.847h2.887v2.081h-3.129q-2.215 0-3.437-1.41-1.209-1.423-1.209-4.028V1.934h-3.96V0H58.8v15.536zM73.96 7.667q-1.88 0-2.847 1.464-.967 1.463-.967 4.337 0 2.86.967 4.337.967 1.464 2.847 1.464 1.893 0 2.86-1.464.967-1.477.967-4.337 0-2.874-.967-4.337-.967-1.464-2.86-1.464zm0-2.094q3.129 0 4.78 2.027 1.665 2.028 1.665 5.868 0 3.854-1.651 5.881-1.652 2.015-4.794 2.015-3.129 0-4.78-2.015-1.652-2.027-1.652-5.881 0-3.84 1.652-5.868 1.651-2.027 4.78-2.027zM85.118.927h2.726V18.69h9.682v2.283H85.118V.927zM113.599 19.323q-1.088 1.007-2.458 1.53-1.356.51-2.94.51-3.814 0-5.935-2.725-2.122-2.74-2.122-7.668 0-4.914 2.148-7.653 2.149-2.753 5.976-2.753 1.262 0 2.417.363 1.155.349 2.229 1.074v2.78q-1.088-1.035-2.23-1.518-1.14-.497-2.416-.497-2.645 0-3.975 2.055-1.316 2.04-1.316 6.15 0 4.175 1.276 6.19 1.289 2 3.948 2 .9 0 1.57-.201.686-.215 1.236-.658v-5.385h-2.914v-2.229h5.506v8.635zM118.204.927h2.726V18.69h9.682v2.283h-12.408V.927zM137.715 18.745q3.424 0 4.78-1.678 1.356-1.692 1.356-6.097 0-4.444-1.356-6.123-1.343-1.691-4.78-1.691h-1.29v15.59h1.29zm.054-17.818q4.592 0 6.767 2.443 2.175 2.444 2.175 7.6 0 5.13-2.175 7.574-2.175 2.43-6.767 2.43h-4.07V.927h4.07zM150.793.927h13.012v2.067L153.33 18.691h10.77v2.283h-13.603v-2.068L160.69 3.21h-9.897V.927zM181.744.994h3.706l7.842 16.449V.993h2.887v19.981h-3.706l-7.842-16.449v16.45h-2.887V.993zM213.071 12.22v1.208H202.37v.08q-.107 3.075 1.169 4.418 1.289 1.343 3.625 1.343 1.182 0 2.47-.376 1.29-.376 2.753-1.142v2.458q-1.41.577-2.725.86-1.303.295-2.525.295-3.504 0-5.478-2.095-1.974-2.108-1.974-5.801 0-3.599 1.933-5.747 1.934-2.148 5.157-2.148 2.873 0 4.525 1.947 1.665 1.947 1.772 4.7zm-2.47-.726q-.162-1.557-1.142-2.685-.967-1.142-2.793-1.142-1.786 0-2.94 1.182-1.155 1.182-1.263 2.659l8.138-.014zM230.084 9.037q-.792-.618-1.611-.9-.82-.282-1.8-.282-2.309 0-3.53 1.45-1.223 1.45-1.223 4.19v7.48h-2.484V5.934h2.484v2.94q.618-1.597 1.893-2.443 1.29-.86 3.049-.86.913 0 1.705.229.792.228 1.517.711v2.525zM242.64 7.855V.081h2.47v20.893h-2.47v-1.893q-.619 1.114-1.652 1.705-1.021.578-2.364.578-2.726 0-4.297-2.109-1.557-2.121-1.557-5.84 0-3.666 1.57-5.748 1.572-2.094 4.284-2.094 1.356 0 2.39.59 1.034.578 1.625 1.692zm-7.265 5.613q0 2.874.913 4.337.913 1.464 2.699 1.464 1.786 0 2.712-1.477.94-1.477.94-4.324 0-2.86-.94-4.324-.926-1.477-2.712-1.477t-2.7 1.464q-.912 1.463-.912 4.337zM267.333.927h11.803v2.282h-9.077V8.58h8.23v2.283h-8.23v10.111h-2.726V.927zM289.019 7.667q-1.88 0-2.847 1.464-.967 1.463-.967 4.337 0 2.86.967 4.337.967 1.464 2.847 1.464 1.893 0 2.86-1.464.966-1.477.966-4.337 0-2.874-.966-4.337-.967-1.464-2.86-1.464zm0-2.094q3.128 0 4.78 2.027 1.665 2.028 1.665 5.868 0 3.854-1.652 5.881-1.651 2.015-4.793 2.015-3.13 0-4.78-2.015-1.652-2.027-1.652-5.881 0-3.84 1.651-5.868 1.652-2.027 4.78-2.027zM311.403 11.655v9.32h-2.485v-9.32q0-2.027-.711-2.98-.712-.954-2.23-.954-1.731 0-2.671 1.235-.927 1.222-.927 3.518v8.5h-2.47V5.935h2.47v2.256q.658-1.29 1.786-1.947 1.128-.671 2.672-.671 2.296 0 3.424 1.517 1.142 1.504 1.142 4.565zM322.078 1.665v4.27h5.612v1.92h-5.612v8.164q0 1.665.63 2.323.632.658 2.203.658h2.78v1.974h-3.022q-2.78 0-3.92-1.114-1.142-1.115-1.142-3.84V7.854h-4.015v-1.92h4.015v-4.27h2.47z"/></g><g style="line-height:125%" font-size="17.5"><path d="M8.077 56.163h-.52q-1.377 0-2.077.487-.692.479-.692 1.436 0 .863.52 1.341.522.479 1.445.479 1.299 0 2.042-.897.744-.906.752-2.495v-.35h-1.47zm3.05-.65v5.461h-1.58v-1.418q-.504.854-1.273 1.264-.76.402-1.854.402-1.461 0-2.333-.82-.872-.83-.872-2.214 0-1.597 1.068-2.426 1.077-.83 3.154-.83h2.11v-.247q-.008-1.145-.58-1.658-.573-.52-1.83-.52-.803 0-1.623.23t-1.598.675V51.84q.872-.334 1.666-.496.804-.17 1.555-.17 1.188 0 2.026.35.846.35 1.367 1.05.324.428.461 1.06.137.624.137 1.88zM20.45 56.197q0-1.828-.58-2.76-.582-.93-1.718-.93-1.145 0-1.735.939-.59.931-.59 2.751 0 1.812.59 2.752.59.94 1.735.94 1.136 0 1.717-.931.581-.932.581-2.76zm-4.622-3.571q.376-.701 1.034-1.077.666-.376 1.538-.376 1.726 0 2.717 1.333.991 1.325.991 3.657 0 2.367-1 3.717-.99 1.342-2.725 1.342-.855 0-1.513-.368-.65-.375-1.042-1.085v1.205h-1.573V47.678h1.573v4.948zM32.2 60.487q-.633.367-1.308.547-.666.188-1.367.188-2.222 0-3.478-1.333-1.247-1.333-1.247-3.692 0-2.358 1.247-3.69 1.256-1.334 3.478-1.334.692 0 1.35.18.658.179 1.325.555v1.65q-.624-.556-1.256-.804-.624-.248-1.419-.248-1.478 0-2.273.957-.794.957-.794 2.734 0 1.77.794 2.735.803.957 2.273.957.82 0 1.47-.248.65-.256 1.205-.786v1.632zM40.992 52.626v-4.948h1.573v13.296h-1.573V59.77q-.393.71-1.05 1.085-.65.368-1.504.368-1.735 0-2.735-1.342-.991-1.35-.991-3.717 0-2.332 1-3.657 1-1.333 2.726-1.333.863 0 1.52.376.658.367 1.034 1.077zm-4.622 3.571q0 1.83.58 2.76.582.932 1.718.932 1.137 0 1.726-.94.598-.94.598-2.752 0-1.82-.598-2.751-.59-.94-1.726-.94-1.136 0-1.717.931-.581.932-.581 2.76zM53.759 55.403v.769h-6.81v.051q-.07 1.957.743 2.811.82.855 2.307.855.752 0 1.572-.24.82-.239 1.752-.726v1.564q-.897.368-1.735.547-.829.188-1.606.188-2.23 0-3.487-1.333-1.256-1.342-1.256-3.691 0-2.29 1.23-3.658 1.231-1.367 3.282-1.367 1.829 0 2.88 1.24 1.06 1.238 1.128 2.99zm-1.573-.462q-.102-.99-.726-1.709-.615-.726-1.777-.726-1.137 0-1.872.752-.735.752-.803 1.692l5.178-.01zM63.799 47.678v1.308h-1.786q-.846 0-1.18.35-.324.342-.324 1.222v.846h3.29v1.222h-3.29v8.348h-1.572v-8.348h-2.555v-1.222h2.555v-.667q0-1.572.718-2.315.726-.744 2.255-.744H63.8zM72.574 56.112q0-1.769-.58-2.683-.573-.923-1.675-.923-1.154 0-1.76.923-.607.914-.607 2.683 0 1.769.606 2.7.616.923 1.778.923 1.085 0 1.657-.931.581-.932.581-2.692zm1.573 4.247q0 2.153-1.017 3.264-1.017 1.11-2.99 1.11-.65 0-1.36-.119-.709-.12-1.418-.35v-1.555q.837.393 1.521.58.684.189 1.256.189 1.273 0 1.854-.692.581-.693.581-2.196v-1.137q-.376.803-1.025 1.196-.65.393-1.58.393-1.676 0-2.675-1.341-1-1.342-1-3.589 0-2.256 1-3.597 1-1.342 2.674-1.342.923 0 1.564.367.64.368 1.042 1.137v-1.24h1.573v8.922zM84.751 55.044v5.93h-1.58v-5.93q0-1.29-.454-1.897-.453-.607-1.418-.607-1.102 0-1.7.786-.59.778-.59 2.24v5.408h-1.572V47.678h1.572v5.161q.418-.82 1.136-1.239.718-.427 1.7-.427 1.462 0 2.18.966.726.957.726 2.905zM88.998 51.438h4.024v8.314h3.12v1.222h-7.81v-1.222h3.118V52.66h-2.452v-1.222zm2.452-3.717h1.572v1.982H91.45v-1.982zM101.952 61.145v-8.52h-2.709v-1.221h4.281v9.741q0 1.666-.769 2.563-.76.906-2.17.906h-2.17v-1.333h1.999q.769 0 1.153-.538.385-.53.385-1.598zm0-13.467h1.572v1.991h-1.572v-1.99zM109.369 47.678h1.623v7.7l4.128-3.974h1.914l-3.769 3.606 4.358 5.964h-1.922l-3.538-4.939-1.17 1.102v3.837h-1.624V47.678zM124.023 57.513q0 1.06.385 1.598.393.539 1.154.539h1.837v1.324h-1.991q-1.41 0-2.188-.897-.769-.906-.769-2.564v-8.656h-2.52v-1.23h4.092v9.886zM134.183 52.378q.29-.615.735-.906.453-.299 1.085-.299 1.154 0 1.624.897.478.889.478 3.358v5.546h-1.435v-5.477q0-2.025-.23-2.512-.223-.496-.821-.496-.684 0-.94.53-.248.521-.248 2.478v5.477h-1.435v-5.477q0-2.051-.248-2.53-.24-.478-.872-.478-.624 0-.871.53-.24.521-.24 2.478v5.477h-1.427v-9.57h1.427v.82q.282-.513.701-.777.427-.274.966-.274.65 0 1.076.3.436.298.675.905zM147.915 55.044v5.93h-1.58v-5.93q0-1.29-.454-1.897-.453-.607-1.418-.607-1.102 0-1.7.786-.59.778-.59 2.24v5.408H140.6v-9.57h1.572v1.435q.419-.82 1.136-1.239.718-.427 1.7-.427 1.462 0 2.18.966.726.957.726 2.905zM154.725 52.506q-1.196 0-1.811.931-.615.932-.615 2.76 0 1.82.615 2.76.615.932 1.811.932 1.205 0 1.82-.931.616-.94.616-2.76 0-1.83-.616-2.76-.615-.932-1.82-.932zm0-1.333q1.991 0 3.042 1.29 1.06 1.29 1.06 3.734 0 2.453-1.051 3.743-1.051 1.282-3.05 1.282-1.992 0-3.043-1.282-1.05-1.29-1.05-3.743 0-2.443 1.05-3.734 1.051-1.29 3.042-1.29zM163.193 59.77v4.844h-1.58v-13.21h1.58v1.222q.393-.71 1.043-1.077.658-.376 1.512-.376 1.735 0 2.718 1.342.99 1.341.99 3.717 0 2.332-.99 3.665-.992 1.325-2.718 1.325-.871 0-1.53-.368-.649-.375-1.025-1.085zm4.615-3.573q0-1.828-.581-2.76-.573-.93-1.71-.93-1.144 0-1.734.939-.59.931-.59 2.751 0 1.812.59 2.752.59.94 1.735.94 1.136 0 1.709-.931.58-.932.58-2.76zM173.353 56.232q0 1.828.573 2.76.58.931 1.717.931t1.718-.931q.59-.94.59-2.76 0-1.82-.59-2.752-.581-.94-1.718-.94-1.136 0-1.717.932-.573.931-.573 2.76zm4.597 3.554q-.384.71-1.042 1.094-.65.376-1.512.376-1.718 0-2.718-1.324-.991-1.333-.991-3.666 0-2.376.991-3.717.991-1.342 2.718-1.342.854 0 1.503.376.658.368 1.051 1.077v-1.222h1.581v13.21h-1.58v-4.862zM190.913 53.378q-.504-.393-1.025-.573-.522-.18-1.145-.18-1.47 0-2.248.924-.777.922-.777 2.666v4.76h-1.581v-9.571h1.58v1.871q.394-1.017 1.206-1.555.82-.547 1.94-.547.58 0 1.085.145.504.146.965.453v1.607zM199.885 51.737v1.538q-.675-.393-1.358-.59-.684-.196-1.393-.196-1.068 0-1.598.35-.521.342-.521 1.051 0 .641.393.957.393.317 1.957.616l.632.12q1.17.221 1.769.888.606.666.606 1.735 0 1.418-1.008 2.221-1.008.795-2.803.795-.709 0-1.487-.154-.777-.145-1.683-.444V59q.88.453 1.683.684.804.222 1.521.222 1.043 0 1.615-.419.573-.427.573-1.187 0-1.094-2.094-1.513l-.068-.017-.59-.12q-1.358-.265-1.982-.888-.624-.633-.624-1.718 0-1.376.932-2.119.931-.752 2.657-.752.77 0 1.478.145.71.137 1.393.419zM207.345 48.687v2.717h3.572v1.222h-3.572v5.195q0 1.06.402 1.478.401.419 1.4.419h1.77v1.256h-1.923q-1.769 0-2.495-.71-.726-.708-.726-2.443v-5.195h-2.555v-1.222h2.555v-2.717h1.572zM214.292 57.351v-5.93h1.572v5.93q0 1.29.453 1.897.462.607 1.419.607 1.11 0 1.7-.778.59-.786.59-2.247v-5.41h1.58v9.554h-1.58V59.54q-.42.828-1.145 1.256-.718.427-1.684.427-1.47 0-2.187-.957-.718-.966-.718-2.914zM224.008 51.404h1.632l2.777 8.032 2.785-8.032h1.632l-3.4 9.57h-2.026l-3.4-9.57zM233.68 51.404h1.556l1.666 7.733 1.367-4.939h1.342l1.384 4.939 1.666-7.733h1.555l-2.238 9.57h-1.504l-1.53-5.246-1.52 5.246h-1.505l-2.239-9.57zM253.761 51.404l-3.427 4.58 3.76 4.99h-1.82l-2.803-3.837-2.794 3.837h-1.82l3.76-4.99-3.427-4.58h1.744l2.537 3.46 2.521-3.46h1.769zM262.067 57.898q-.393 1-1 2.632-.846 2.256-1.137 2.751-.393.667-.982 1-.59.333-1.376.333h-1.265v-1.316h.932q.692 0 1.085-.401.393-.402 1-2.077l-3.7-9.416h1.666l2.837 7.485 2.794-7.485h1.666l-2.52 6.494zM267.202 51.387h6.947v1.435l-5.494 6.87h5.494v1.282h-7.152v-1.453l5.494-6.878h-5.289v-1.256zM7.343 71.613l-1.82 6.528h3.64l-1.82-6.528zM6.3 70.092h2.094l3.905 12.757h-1.786l-.94-3.324h-4.47l-.922 3.324H2.395L6.3 70.092zM15.76 76.415v5.016h2.042q1.503 0 2.144-.522.641-.53.641-1.734 0-1.59-.675-2.17-.675-.59-2.11-.59h-2.043zm0-4.905v3.503h2.007q1.248 0 1.803-.478.564-.479.564-1.205 0-.966-.555-1.393-.547-.427-1.812-.427H15.76zm-1.735-1.418h3.777q1.956 0 3.016.845 1.06.846 1.06 2.393 0 .829-.565 1.504-.555.675-1.674.846 1.256.188 1.965 1.077.718.88.718 2.589 0 1.734-1.137 2.623-1.136.88-3.383.88h-3.777V70.092zM32.302 82.396q-.658.35-1.35.521-.692.18-1.47.18-2.452 0-3.81-1.735-1.35-1.734-1.35-4.879 0-3.127 1.358-4.87 1.367-1.752 3.802-1.752.778 0 1.47.18.692.17 1.35.52v1.77q-.632-.522-1.358-.795-.727-.274-1.462-.274-1.683 0-2.52 1.299-.838 1.299-.838 3.922 0 2.615.838 3.914.837 1.299 2.52 1.299.752 0 1.47-.274.726-.273 1.35-.795v1.77zM37.386 81.43q2.18 0 3.042-1.067.864-1.077.864-3.88 0-2.828-.864-3.896-.854-1.077-3.042-1.077h-.82v9.92h.82zm.035-11.338q2.922 0 4.306 1.555 1.385 1.555 1.385 4.836 0 3.264-1.385 4.82-1.384 1.546-4.306 1.546h-2.59V70.092h2.59zM45.872 70.092h7.57v1.452h-5.844v3.435h5.588v1.453h-5.588v4.964h6.007v1.453h-7.733V70.092zM56.707 70.092h7.51v1.452h-5.776v3.418h5.238v1.453h-5.238v6.434h-1.734V70.092zM74.677 81.798q-.693.641-1.564.974-.863.325-1.872.325-2.426 0-3.776-1.735-1.35-1.743-1.35-4.879 0-3.127 1.367-4.87 1.367-1.752 3.802-1.752.803 0 1.538.23.735.223 1.419.684v1.769q-.692-.658-1.419-.966-.726-.316-1.538-.316-1.683 0-2.53 1.308-.837 1.298-.837 3.913 0 2.658.812 3.94.82 1.273 2.512 1.273.573 0 1-.129.436-.136.786-.418v-3.427h-1.854v-1.418h3.504v5.494zM76.94 70.092h1.736v4.887H83.4v-4.887h1.734v12.757h-1.734v-6.417h-4.725v6.417H76.94V70.092zM88.015 70.092H95.1v1.452h-2.675v9.852H95.1v1.453h-7.084v-1.453h2.675v-9.852h-2.675v-1.452zM97.756 82.328V80.31q.778.692 1.607 1.043.829.342 1.717.342 1.222 0 1.7-.633.488-.64.488-2.375v-7.144h-3.256v-1.452h4.982v8.596q0 2.41-.906 3.41-.897.999-3.008.999-.82 0-1.632-.188-.812-.188-1.692-.581zM108.523 70.092h1.735v5.673l5.391-5.673h2.026l-4.965 5.212 5.11 7.545h-2.085l-4.162-6.391-1.315 1.4v4.991h-1.735V70.092zM119.717 70.092h1.734v11.304h6.161v1.453h-7.895V70.092zM128.715 70.134h2.307l2.204 6.477 2.222-6.477h2.316V82.85h-1.598V71.613l-2.273 6.699h-1.308l-2.281-6.7V82.85h-1.59V70.134zM139.097 70.134h2.358l4.99 10.468V70.134h1.837V82.85h-2.358l-4.99-10.467v10.467h-1.837V70.134zM157.195 76.483q0-2.811-.581-4.016-.573-1.205-1.889-1.205-1.307 0-1.888 1.205-.573 1.205-.573 4.016 0 2.803.573 4.008.581 1.205 1.888 1.205 1.316 0 1.889-1.197.58-1.205.58-4.016zm1.803 0q0 3.333-1.06 4.973-1.05 1.64-3.213 1.64-2.162 0-3.213-1.631-1.05-1.632-1.05-4.982 0-3.34 1.05-4.982 1.06-1.64 3.213-1.64 2.162 0 3.213 1.64 1.06 1.641 1.06 4.982zM163.398 71.51v4.794h2q1.196 0 1.863-.633.675-.632.675-1.768 0-1.137-.667-1.76-.666-.633-1.871-.633h-2zm-1.726-1.418h3.726q2.136 0 3.238.974 1.103.965 1.103 2.837 0 1.888-1.103 2.854-1.093.965-3.238.965h-2v5.127h-1.726V70.092zM176.113 83.08q-.06 0-.17.009-.112.009-.18.009-2.136 0-3.196-1.64-1.05-1.641-1.05-4.974 0-3.341 1.05-4.982 1.06-1.64 3.213-1.64 2.162 0 3.213 1.64 1.06 1.641 1.06 4.982 0 2.512-.59 4.05-.581 1.53-1.769 2.145l1.71 1.624-1.291.854-2-2.076zm2.137-6.597q0-2.811-.582-4.016-.572-1.205-1.888-1.205-1.307 0-1.888 1.205-.573 1.205-.573 4.016 0 2.803.573 4.008.58 1.205 1.888 1.205 1.316 0 1.888-1.197.582-1.205.582-4.016zM187.538 76.825q.666.17 1.136.65.47.47 1.171 1.888l1.735 3.486h-1.855l-1.52-3.221q-.659-1.376-1.188-1.77-.522-.4-1.368-.4H184v5.391h-1.734V70.092h3.554q2.102 0 3.222.948 1.12.949 1.12 2.743 0 1.265-.693 2.068-.684.794-1.931.974zM184 71.51v4.529h1.889q1.239 0 1.845-.556.607-.555.607-1.7 0-1.102-.65-1.683-.64-.59-1.87-.59H184zM200.219 70.527v1.752q-.787-.504-1.581-.76-.786-.257-1.59-.257-1.222 0-1.93.573-.71.564-.71 1.53 0 .845.461 1.29.47.444 1.744.743l.905.205q1.795.419 2.615 1.316.82.897.82 2.444 0 1.82-1.128 2.777-1.127.957-3.28.957-.898 0-1.804-.197-.906-.188-1.82-.572V80.49q.983.623 1.854.914.88.29 1.77.29 1.307 0 2.033-.58.726-.59.726-1.641 0-.957-.504-1.461-.496-.504-1.735-.778l-.922-.214q-1.778-.401-2.581-1.213-.803-.812-.803-2.179 0-1.709 1.145-2.734 1.153-1.034 3.059-1.034.735 0 1.547.17.811.163 1.709.496zM202.5 70.092h9.733v1.452h-3.99V82.85h-1.735V71.544H202.5v-1.452zM213.882 77.953v-7.861h1.734v8.647q0 .931.052 1.333.051.393.18.607.273.504.785.76.522.257 1.256.257.744 0 1.257-.257.512-.256.794-.76.128-.214.18-.607.051-.393.051-1.316v-8.664h1.726v7.86q0 1.958-.248 2.787-.239.82-.837 1.358-.564.504-1.29.752-.727.248-1.633.248-.897 0-1.623-.248t-1.299-.752q-.59-.53-.837-1.367-.248-.846-.248-2.777zM228.417 81.396l2.999-11.304h1.786l-3.734 12.757h-2.094l-3.734-12.757h1.786l2.99 11.304zM233.68 70.092h1.684l1.222 10.356 1.452-6.853h1.803l1.47 6.87 1.222-10.373h1.683l-1.905 12.757h-1.632l-1.735-7.58-1.726 7.58h-1.632l-1.906-12.757zM244.943 70.092h1.854l2.803 4.81 2.854-4.81h1.854l-3.82 5.998 4.093 6.76h-1.854l-3.127-5.495-3.376 5.494h-1.862l4.272-6.759-3.691-5.998zM255.051 70.092h1.837l3.11 5.63 3.103-5.63h1.854l-4.093 7.032v5.725h-1.735v-5.725l-4.076-7.032zM266.783 70.092h8.28v1.315l-6.665 9.99h6.853v1.452h-8.656v-1.316l6.486-9.989h-6.298v-1.452zM7.343 96.256q-1.197 0-1.812.931-.615.932-.615 2.76 0 1.82.615 2.76.615.932 1.812.932 1.204 0 1.82-.931.615-.94.615-2.76 0-1.83-.615-2.76-.616-.932-1.82-.932zm0-1.333q1.99 0 3.042 1.29 1.06 1.29 1.06 3.734 0 2.453-1.052 3.743-1.051 1.282-3.05 1.282-1.991 0-3.042-1.282-1.051-1.29-1.051-3.743 0-2.443 1.05-3.734 1.052-1.29 3.043-1.29zM20.34 98.358q0-2.811-.582-4.016-.572-1.205-1.888-1.205-1.307 0-1.889 1.205-.572 1.205-.572 4.016 0 2.803.572 4.008.582 1.205 1.889 1.205 1.316 0 1.888-1.197.581-1.205.581-4.016zm1.802 0q0 3.333-1.06 4.973-1.05 1.64-3.212 1.64t-3.213-1.631q-1.051-1.632-1.051-4.982 0-3.34 1.051-4.982 1.06-1.64 3.213-1.64 2.162 0 3.213 1.64 1.06 1.641 1.06 4.982zM27.26 98.315q0-.47.325-.811.334-.342.795-.342.479 0 .82.342.342.341.342.811 0 .479-.342.812-.333.333-.82.333-.478 0-.803-.324-.316-.325-.316-.82zm1.137-5.212q-1.205 0-1.803 1.299-.59 1.299-.59 3.956 0 2.65.59 3.948.598 1.299 1.803 1.299 1.214 0 1.803-1.3.598-1.298.598-3.947 0-2.657-.598-3.956-.59-1.299-1.803-1.299zm0-1.367q2.042 0 3.085 1.675 1.051 1.674 1.051 4.947 0 3.264-1.051 4.94-1.043 1.674-3.085 1.674t-3.084-1.675q-1.043-1.675-1.043-4.939 0-3.273 1.043-4.947 1.042-1.675 3.084-1.675zM38.925 98.666q-1.154 0-1.786.65-.624.64-.624 1.82 0 1.178.632 1.836.641.65 1.778.65 1.162 0 1.785-.641.633-.65.633-1.846 0-1.17-.641-1.82-.632-.65-1.777-.65zm-1.504-.718q-1.103-.282-1.726-1.051-.616-.77-.616-1.854 0-1.521 1.034-2.41 1.034-.897 2.812-.897 1.785 0 2.82.897 1.033.889 1.033 2.41 0 1.085-.623 1.854-.616.769-1.718 1.051 1.282.282 1.957 1.136.683.855.683 2.214 0 1.726-1.102 2.7-1.102.974-3.05.974-1.949 0-3.051-.966-1.094-.974-1.094-2.691 0-1.368.675-2.222.684-.863 1.966-1.145zm-.624-2.743q0 1.025.547 1.564.547.538 1.58.538 1.043 0 1.59-.538.547-.539.547-1.564 0-1.042-.547-1.59-.538-.546-1.59-.546-1.033 0-1.58.555-.547.547-.547 1.581zM57.416 95.188h4.024v8.314h3.12v1.222h-7.81v-1.222h3.118V96.41h-2.452v-1.222zm2.452-3.717h1.572v1.982h-1.572v-1.982zM66.96 91.967h7.084v1.452H71.37v9.852h2.674v1.453H66.96v-1.453h2.675V93.42H66.96v-1.452zM81.914 101.263q0 1.06.385 1.598.393.539 1.153.539h1.837v1.324H83.3q-1.41 0-2.188-.897-.77-.906-.77-2.564v-8.656h-2.52v-1.23h4.093v9.886zM88.135 91.967h1.734v11.304h6.161v1.453h-7.895V91.967zM99.132 103.28h2.683v-9.639l-3.213 1.547V93.53l3.196-1.52h1.726v11.27h2.65v1.444h-7.042v-1.444zM126.698 105.16v1.23h-.547q-2.128 0-2.854-.632-.718-.632-.718-2.52v-1.71q0-.931-.53-1.606-.52-.675-1.623-.675h-1.042v-1.222h1.042q1.205 0 1.675-.573.478-.572.478-1.683v-2.222q0-1.888.718-2.512.726-.632 2.854-.632h.547v1.222h-.598q-1.196 0-1.564.376-.359.367-.359 1.58v2.29q0 1.504-.59 2.026-.589.512-2.298.743 1.658.197 2.273.76.615.556.615 2.017v1.786q0 1.222.36 1.59.367.367 1.563.367h.598zM130.876 105.16q1.197 0 1.556-.368.367-.367.367-1.589v-1.786q0-1.461.615-2.016.616-.564 2.273-.76-1.709-.232-2.298-.744-.59-.522-.59-2.025v-2.29q0-1.214-.367-1.581-.36-.376-1.556-.376h-.598v-1.222h.547q2.128 0 2.846.632.726.624.726 2.512v2.222q0 1.11.47 1.683.478.573 1.683.573h1.043v1.222h-1.043q-1.102 0-1.632.675-.521.675-.521 1.606v1.71q0 1.888-.726 2.52-.718.632-2.846.632h-.547v-1.23h.598zM154.272 90.574h3.624v1.222h-2.051v13.159h2.05v1.222h-3.623V90.574zM166.141 90.574v15.603h-3.623v-1.222h2.051v-13.16h-2.05v-1.221h3.622zM188.375 99.862q0-1.769-.58-2.683-.573-.923-1.676-.923-1.153 0-1.76.923-.607.914-.607 2.683 0 1.769.607 2.7.615.923 1.777.923 1.086 0 1.658-.931.581-.932.581-2.692zm1.573 4.247q0 2.153-1.017 3.264-1.017 1.11-2.991 1.11-.65 0-1.359-.119-.709-.12-1.418-.35v-1.555q.837.393 1.52.58.684.189 1.257.189 1.273 0 1.854-.692.581-.693.581-2.196v-1.137q-.376.803-1.025 1.196-.65.393-1.581.393-1.675 0-2.675-1.341-1-1.342-1-3.589 0-2.256 1-3.597 1-1.342 2.675-1.342.923 0 1.564.367.64.368 1.042 1.137v-1.24h1.573v8.922zM196.664 99.067q1.102 0 1.726-.794.632-.795.632-2.196 0-1.402-.632-2.196-.624-.795-1.726-.795-1.145 0-1.726.76-.581.752-.581 2.23 0 1.487.572 2.24.581.751 1.735.751zm-3.076 5.392v-1.59q.538.317 1.145.488.606.162 1.264.162 1.64 0 2.478-1.23.846-1.24.846-3.64-.401.854-1.128 1.316-.726.452-1.666.452-1.846 0-2.862-1.136-1.009-1.136-1.009-3.221 0-2.06 1.034-3.188 1.043-1.136 2.94-1.136 2.221 0 3.255 1.598 1.034 1.598 1.034 5.024 0 3.222-1.247 4.922-1.24 1.692-3.606 1.692-.624 0-1.256-.137-.633-.128-1.222-.376zM204.935 99.982q0 1.828.573 2.76.58.931 1.717.931t1.718-.931q.59-.94.59-2.76 0-1.82-.59-2.752-.581-.94-1.718-.94-1.136 0-1.717.932-.573.931-.573 2.76zm4.597 3.554q-.384.71-1.042 1.094-.65.376-1.512.376-1.718 0-2.718-1.324-.991-1.333-.991-3.666 0-2.376.991-3.717.991-1.342 2.718-1.342.854 0 1.503.376.658.368 1.051 1.077v-1.222h1.581v13.21h-1.58v-4.862zM221.794 104.271q-.658.35-1.35.521-.692.18-1.47.18-2.452 0-3.81-1.735-1.35-1.734-1.35-4.879 0-3.127 1.358-4.87 1.367-1.752 3.803-1.752.777 0 1.47.18.691.17 1.35.52v1.77q-.633-.522-1.36-.795-.726-.274-1.46-.274-1.684 0-2.521 1.299-.838 1.299-.838 3.922 0 2.615.838 3.914.837 1.299 2.52 1.299.753 0 1.47-.274.727-.273 1.35-.795v1.77zM232.587 103.673q-.692.641-1.564.974-.863.325-1.871.325-2.427 0-3.777-1.735-1.35-1.743-1.35-4.879 0-3.127 1.367-4.87 1.367-1.752 3.802-1.752.804 0 1.538.23.735.223 1.419.684v1.769q-.692-.658-1.419-.966-.726-.316-1.538-.316-1.683 0-2.529 1.308-.837 1.298-.837 3.913 0 2.658.811 3.94.82 1.273 2.513 1.273.572 0 1-.129.435-.136.786-.418v-3.427h-1.855V98.18h3.504v5.494zM239.277 104.955q-.06 0-.17.009-.112.009-.18.009-2.136 0-3.196-1.64-1.05-1.641-1.05-4.974 0-3.341 1.05-4.982 1.06-1.64 3.213-1.64 2.162 0 3.213 1.64 1.06 1.641 1.06 4.982 0 2.512-.59 4.05-.581 1.53-1.769 2.145l1.71 1.624-1.291.854-2-2.076zm2.137-6.597q0-2.811-.581-4.016-.573-1.205-1.889-1.205-1.307 0-1.888 1.205-.573 1.205-.573 4.016 0 2.803.573 4.008.58 1.205 1.888 1.205 1.316 0 1.889-1.197.58-1.205.58-4.016zM264.023 98.025l1.111.752q-.735 1.675-1.444 2.29-.709.607-1.461.607-1.196-.069-2.162-1.24-.957-1.179-1.35-1.666-.393-.495-1.017-.487-.658 0-1 .624-.341.615-.717 1.572l-1.137-.65q.496-1.58 1.282-2.332.786-.752 1.58-.752 1.445-.017 2.581 1.71 1.145 1.725 1.94 1.725.675 0 1.102-.735.428-.743.692-1.418zM266.134 98.538h9.058v1.444h-9.058v-1.444zM281.942 94.658v3.786h3.803v1.444h-3.803v3.785h-1.435v-3.785h-3.794v-1.444h3.794v-3.786h1.435zM287.07 100.452h9.031v1.444h-9.032v-1.444zm0-4.025h9.031v1.444h-9.032v-1.444zM297.596 96.512v-1.555l9.032 3.572v1.418l-9.032 3.572v-1.563l7.264-2.71-7.264-2.734z"/></g></g></svg>