<svg xmlns="http://www.w3.org/2000/svg" width="325.872" height="116.689" viewBox="0 0 305.505 109.396"><g font-weight="400" font-family="Monaco Nerd Font" letter-spacing="0" word-spacing="0" fill="#fff"><g style="line-height:125%;text-decoration-line:underline" font-size="27.5" text-decoration="underline"><path d="M2.189 21.672V8.392l-.067-1.826h.067l.523 1.826 3.263 9.118h2.713l3.222-9.118.591-1.826h.067l-.067 1.826v13.28H15V.832H12.34L7.533 14.557 2.726.833H0v20.84h2.189zM23.995 22.089c2.135 0 3.854-.739 5.143-2.243 1.29-1.504 1.934-3.397 1.934-5.68 0-2.282-.645-4.162-1.934-5.666-1.289-1.49-3.008-2.243-5.143-2.243-2.148 0-3.867.752-5.156 2.243-1.289 1.504-1.933 3.384-1.933 5.666 0 2.283.644 4.176 1.933 5.68 1.29 1.504 3.008 2.243 5.156 2.243zm0-2.082c-1.342 0-2.417-.51-3.195-1.557-.793-1.034-1.182-2.458-1.182-4.27 0-1.813.39-3.236 1.182-4.27.778-1.048 1.853-1.558 3.195-1.558 1.33 0 2.39.51 3.183 1.558.779 1.034 1.181 2.457 1.181 4.27 0 1.812-.402 3.236-1.181 4.27-.793 1.047-1.853 1.557-3.183 1.557zM34.308 21.672h2.497v-8.741c.645-1.249 1.477-2.296 2.485-3.129 1.007-.832 1.947-1.249 2.833-1.249.43 0 .832.148 1.208.444.376.295.631.684.766 1.14.134.457.215 1.41.215 2.848v8.687h2.497v-8.379c0-2.229-.148-3.719-.443-4.484a3.805 3.805 0 0 0-1.517-1.84 4.356 4.356 0 0 0-2.417-.712c-1.02 0-2.028.336-3.035.98-1.02.659-1.88 1.558-2.592 2.713V6.674h-2.497v14.998zM60.653 18.302c.107 1.423.269 2.551.47 3.37h2.605c-.376-1.128-.564-2.591-.564-4.404V6.674h-2.51c-.296-.027-.511-.04-.645-.068-.967-.094-1.679-.147-2.149-.147-1.638 0-3.021.403-4.122 1.195-1.115.792-2 1.866-2.659 3.236-.671 1.37-.994 2.914-.994 4.646 0 2.202.497 3.854 1.49 4.928.995 1.088 2.123 1.625 3.385 1.625.886 0 1.866-.31 2.94-.954 1.075-.63 1.988-1.57 2.753-2.833zm0-2.954c-.752 1.33-1.584 2.39-2.524 3.182-.94.78-1.8 1.182-2.578 1.182-.726 0-1.357-.39-1.92-1.141-.565-.752-.833-1.88-.833-3.357 0-2.055.51-3.68 1.53-4.875 1.021-1.181 2.31-1.786 3.854-1.786.752 0 1.585.121 2.471.35v6.445zM79.908 21.243v-2.404c-1.423.484-2.403.765-2.927.846-.537.08-1.074.107-1.611.107-1.813 0-3.142-.604-3.988-1.84-.846-1.221-1.262-2.51-1.262-3.866 0-1.007.214-1.988.658-2.941.43-.967 1.06-1.665 1.866-2.122a5.134 5.134 0 0 1 2.578-.67c1.37 0 2.94.388 4.686 1.194V7.144c-1.732-.591-3.37-.873-4.914-.873-2.095 0-3.894.752-5.371 2.256-1.477 1.504-2.216 3.383-2.216 5.666 0 1.504.322 2.86.98 4.042a7.33 7.33 0 0 0 2.726 2.82c1.168.698 2.511 1.047 4.015 1.047 1.504 0 3.102-.295 4.78-.86zM89.952 22.089c2.135 0 3.854-.739 5.143-2.243 1.29-1.504 1.934-3.397 1.934-5.68 0-2.282-.645-4.162-1.934-5.666-1.289-1.49-3.008-2.243-5.143-2.243-2.148 0-3.867.752-5.156 2.243-1.289 1.504-1.933 3.384-1.933 5.666 0 2.283.644 4.176 1.933 5.68 1.29 1.504 3.008 2.243 5.156 2.243zm0-2.082c-1.342 0-2.417-.51-3.195-1.557-.793-1.034-1.182-2.458-1.182-4.27 0-1.813.39-3.236 1.182-4.27.778-1.048 1.853-1.558 3.195-1.558 1.33 0 2.39.51 3.183 1.558.779 1.034 1.181 2.457 1.181 4.27 0 1.812-.402 3.236-1.181 4.27-.792 1.047-1.853 1.557-3.183 1.557zM118.862 21.672V8.002l-.053-2.16 1.007 2.188 7.17 13.642h2.498V.832h-2.498v13.871l.067 2.068h-.067l-.806-2.068L118.81.833h-2.444v20.84h2.497zM145.718 20.679v-2.283c-1.96 1.074-3.733 1.611-5.344 1.611-.914 0-1.72-.215-2.417-.644-.712-.43-1.29-1.074-1.72-1.934-.429-.86-.644-1.8-.644-2.846h10.34v-.538c0-2.645-.55-4.605-1.625-5.88-1.074-1.263-2.511-1.908-4.284-1.908a6.64 6.64 0 0 0-3.652 1.061c-1.101.698-1.947 1.679-2.551 2.94a8.86 8.86 0 0 0-.913 3.949c0 1.423.309 2.766.953 4.014.645 1.25 1.49 2.203 2.565 2.874 1.06.671 2.27 1.007 3.625 1.007 1.773 0 3.666-.47 5.667-1.423zm-9.977-7.963c.295-1.437.806-2.524 1.544-3.263.739-.738 1.611-1.114 2.632-1.114.994 0 1.8.362 2.404 1.087.59.725.9 1.706.9 2.928v.362h-7.48zM151.008 21.672h2.498v-8.714c.846-1.464 1.719-2.565 2.618-3.303.886-.726 1.8-1.102 2.74-1.102.241 0 .563.04.993.108v3.424h2.404V6.674c-.913-.269-1.813-.417-2.713-.417-1.235 0-2.363.31-3.37.927-1.007.618-1.893 1.53-2.672 2.766V6.674h-2.498v14.998zM176.239 18.302v3.37h2.511V0h-2.511v6.674c-.295-.027-.51-.04-.645-.068-.966-.094-1.678-.147-2.148-.147-1.638 0-3.021.403-4.122 1.195-1.115.792-2.001 1.866-2.659 3.236-.671 1.37-.994 2.914-.994 4.646 0 2.202.497 3.854 1.49 4.928.995 1.088 2.122 1.625 3.385 1.625.886 0 1.866-.31 2.94-.954 1.075-.63 1.988-1.57 2.753-2.833zm0-2.954c-.752 1.33-1.584 2.39-2.524 3.182-.94.78-1.8 1.182-2.579 1.182-.725 0-1.356-.39-1.92-1.141-.564-.752-.832-1.88-.832-3.357 0-2.055.51-3.68 1.53-4.875 1.021-1.181 2.31-1.786 3.854-1.786.752 0 1.585.121 2.471.35v6.445zM200.167 21.672h2.713v-9.587h7.909v-2.081h-7.91V2.927h8.742V.833h-11.454v20.84zM221.866 22.089c2.135 0 3.854-.739 5.143-2.243 1.29-1.504 1.934-3.397 1.934-5.68 0-2.282-.645-4.162-1.934-5.666-1.289-1.49-3.008-2.243-5.143-2.243-2.148 0-3.867.752-5.156 2.243-1.289 1.504-1.933 3.384-1.933 5.666 0 2.283.644 4.176 1.933 5.68 1.29 1.504 3.008 2.243 5.156 2.243zm0-2.082c-1.342 0-2.417-.51-3.195-1.557-.793-1.034-1.182-2.458-1.182-4.27 0-1.813.39-3.236 1.182-4.27.778-1.048 1.853-1.558 3.195-1.558 1.33 0 2.39.51 3.183 1.558.779 1.034 1.181 2.457 1.181 4.27 0 1.812-.402 3.236-1.181 4.27-.792 1.047-1.853 1.557-3.183 1.557zM232.179 21.672h2.498v-8.741c.644-1.249 1.477-2.296 2.484-3.129 1.007-.832 1.947-1.249 2.833-1.249.43 0 .832.148 1.208.444.376.295.631.684.766 1.14.134.457.215 1.41.215 2.848v8.687h2.497v-8.379c0-2.229-.148-3.719-.443-4.484a3.805 3.805 0 0 0-1.517-1.84 4.356 4.356 0 0 0-2.417-.712c-1.02 0-2.028.336-3.035.98-1.02.659-1.88 1.558-2.591 2.713V6.674h-2.498v14.998zM261.21 21.068v-2.202c-1.343.765-2.605 1.141-3.814 1.141-.658 0-1.222-.107-1.705-.349-.483-.228-.86-.59-1.155-1.087-.282-.497-.43-1.357-.43-2.565v-6.002h6.674V7.922h-6.674V1.88h-2.497v6.042h-3.746v2.082h3.746v6.042c0 1.652.228 2.874.671 3.666.443.779 1.101 1.383 1.96 1.786.874.403 1.827.604 2.874.604.497 0 1.007-.054 1.531-.148.537-.094 1.383-.39 2.565-.886z"/></g><g style="line-height:125%" font-size="17.5"><path d="M9.407 59.528c.068.905.17 1.623.299 2.144h1.658c-.24-.717-.36-1.649-.36-2.802v-6.742H9.408c-.188-.017-.325-.026-.41-.043a15.99 15.99 0 0 0-1.368-.094c-1.042 0-1.922.256-2.623.76-.71.505-1.273 1.188-1.692 2.06-.427.871-.632 1.854-.632 2.956 0 1.402.316 2.453.948 3.136.633.692 1.35 1.034 2.154 1.034.564 0 1.187-.196 1.871-.606.684-.402 1.265-1 1.752-1.803zm0-1.88c-.479.846-1.009 1.52-1.607 2.025-.598.495-1.145.752-1.64.752-.462 0-.863-.248-1.222-.727-.36-.478-.53-1.196-.53-2.136 0-1.307.325-2.341.974-3.102.65-.752 1.47-1.136 2.452-1.136.479 0 1.009.077 1.573.222v4.102zM15.098 54.272v-6.391h-1.59v13.791h1.59c.18.017.316.035.41.043.615.068 1.068.094 1.367.094 1.042 0 1.914-.248 2.623-.752.701-.504 1.265-1.188 1.692-2.06.427-.87.641-1.853.641-2.964 0-1.402-.325-2.444-.957-3.136-.64-.684-1.359-1.034-2.153-1.034-.573 0-1.197.205-1.872.606-.683.41-1.264 1.009-1.751 1.803zm0 1.889c.478-.846 1.008-1.521 1.606-2.025.598-.496 1.145-.752 1.64-.752.454 0 .864.239 1.223.718.359.478.538 1.196.538 2.144 0 1.316-.333 2.35-.991 3.102-.658.752-1.47 1.128-2.427 1.128a6.123 6.123 0 0 1-1.59-.222V56.16zM32.153 61.399v-1.53c-.905.308-1.53.487-1.862.539a6.887 6.887 0 0 1-1.026.068c-1.153 0-2-.384-2.538-1.17-.538-.778-.803-1.598-.803-2.461 0-.641.137-1.265.419-1.872.273-.615.675-1.06 1.188-1.35a3.267 3.267 0 0 1 1.64-.427c.872 0 1.871.248 2.982.76v-1.53c-1.102-.375-2.144-.555-3.127-.555-1.333 0-2.478.479-3.418 1.436s-1.41 2.153-1.41 3.606c0 .957.205 1.82.624 2.572.41.752.991 1.35 1.734 1.794.744.445 1.598.667 2.555.667.957 0 1.974-.188 3.042-.547zM40.989 59.528v2.144h1.598V47.881h-1.598v4.247c-.188-.017-.325-.026-.41-.043a15.99 15.99 0 0 0-1.368-.094c-1.042 0-1.922.256-2.623.76-.71.505-1.273 1.188-1.692 2.06-.427.871-.632 1.854-.632 2.956 0 1.402.316 2.453.948 3.136.633.692 1.35 1.034 2.154 1.034.564 0 1.187-.196 1.871-.606.684-.402 1.265-1 1.752-1.803zm0-1.88c-.479.846-1.009 1.52-1.607 2.025-.598.495-1.145.752-1.64.752-.462 0-.863-.248-1.222-.727-.36-.478-.53-1.196-.53-2.136 0-1.307.325-2.341.974-3.102.65-.752 1.47-1.136 2.453-1.136.478 0 1.008.077 1.572.222v4.102zM53.046 61.04v-1.453c-1.248.684-2.376 1.026-3.401 1.026-.581 0-1.094-.137-1.538-.41-.453-.274-.82-.684-1.094-1.23a3.976 3.976 0 0 1-.41-1.812h6.58v-.342c0-1.684-.351-2.931-1.035-3.743-.683-.803-1.597-1.213-2.725-1.213-.855 0-1.632.23-2.325.675-.7.444-1.239 1.068-1.623 1.871a5.638 5.638 0 0 0-.581 2.512c0 .906.196 1.76.606 2.555.41.795.949 1.402 1.633 1.829.675.427 1.444.64 2.307.64 1.128 0 2.332-.298 3.606-.905zm-6.35-5.067c.189-.914.513-1.607.983-2.077s1.026-.709 1.675-.709c.633 0 1.145.231 1.53.692.376.462.572 1.086.572 1.863v.23h-4.76zM57.822 61.672h1.59v-7.425h3.785v-1.325h-3.785v-.615c0-1.008.102-1.726.324-2.153.223-.427.522-.735.915-.923.384-.188.828-.282 1.333-.282.64 0 1.375.137 2.204.41v-1.512a11.487 11.487 0 0 0-2.256-.231c-.982 0-1.768.196-2.367.581a3.677 3.677 0 0 0-1.324 1.487c-.282.607-.427 1.538-.427 2.794v.444h-2.12v1.325h2.12l.009 7.425zM72.468 59.528v1.35c0 .64-.051 1.153-.145 1.538a2.374 2.374 0 0 1-.547 1.008c-.273.29-.624.513-1.05.667-.437.153-.898.23-1.377.23a5.58 5.58 0 0 1-1.914-.35c-.658-.24-1.213-.513-1.657-.82v1.606c1.179.598 2.35.889 3.512.889 1.145 0 2.127-.24 2.939-.735.812-.487 1.333-1.154 1.564-2a8.34 8.34 0 0 0 .205-1.085c.043-.359.068-1.341.068-2.948v-6.75h-1.598c-.188-.017-.324-.026-.41-.043a15.99 15.99 0 0 0-1.367-.094c-1.043 0-1.923.256-2.623.76-.71.505-1.274 1.188-1.692 2.06-.427.871-.633 1.854-.633 2.956 0 1.402.317 2.453.949 3.136.632.692 1.35 1.034 2.153 1.034.564 0 1.188-.196 1.872-.606.683-.402 1.264-1 1.751-1.803zm0-1.88c-.478.846-1.008 1.52-1.606 2.025-.598.495-1.145.752-1.64.752-.462 0-.864-.248-1.223-.727-.359-.478-.53-1.196-.53-2.136 0-1.307.325-2.341.975-3.102.649-.752 1.47-1.136 2.452-1.136.479 0 1.008.077 1.572.222v4.102zM76.587 61.672h1.59V56.11a6.3 6.3 0 0 1 1.58-1.991c.641-.53 1.24-.795 1.803-.795.274 0 .53.094.77.282.238.188.4.436.486.726.086.29.137.897.137 1.812v5.528h1.59V56.34c0-1.06-.026-1.751-.078-2.093a3.716 3.716 0 0 0-.29-.966c-.18-.393-.496-.726-.94-1a2.78 2.78 0 0 0-1.478-.418c-.65 0-1.29.213-1.932.624-.649.418-1.196.99-1.649 1.726V47.88h-1.59v13.791zM89.755 61.672H94v-1.324h-2.657v-8.22h-4.238v1.324h2.649v8.22zm-.265-12.988c0 .359.12.624.367.795.24.18.47.265.692.265.222 0 .453-.086.701-.265.24-.171.367-.436.367-.795 0-.359-.128-.624-.367-.803-.248-.171-.479-.265-.7-.265-.223 0-.454.094-.693.265-.248.18-.367.444-.367.803zM97.719 65.415c.777.162 1.503.24 2.178.24.94 0 1.684-.137 2.222-.41.547-.274 1.008-.719 1.384-1.351.385-.632.573-1.752.573-3.375v-8.391h-5.64v1.324h4.05v7.366c0 1.094-.102 1.854-.307 2.29-.205.444-.496.752-.863.94-.376.188-.82.273-1.35.273-.615 0-1.359-.128-2.247-.393v1.487zm4.511-16.73c0 .358.12.623.36.794.238.18.478.265.7.265.222 0 .453-.086.692-.265.24-.171.367-.436.367-.795 0-.359-.128-.624-.367-.803-.24-.171-.47-.265-.692-.265-.222 0-.462.094-.7.265-.24.18-.36.444-.36.803zM108.494 61.672h1.589v-5.127l4.64 5.127h2.187l-4.7-5.127 4.58-4.417h-2.118l-4.589 4.417v-8.664h-1.59v13.791zM121.123 61.672h4.572v-1.324h-2.983V47.88h-4.443v1.333h2.854v12.458zM128.335 61.672h1.393v-5.511c.299-.786.615-1.436.948-1.948.334-.505.65-.76.94-.76.128 0 .274.076.436.221.17.154.248.65.248 1.487v6.511h1.333v-5.289c.359-1.042.7-1.794 1.042-2.247.342-.453.658-.684.957-.684.12 0 .231.051.334.154.102.102.17.256.205.453.034.196.051.564.051 1.094v6.52h1.393V54.46c0-1.033-.145-1.726-.436-2.076-.29-.342-.64-.521-1.051-.521-.376 0-.7.11-.983.324-.29.214-.564.505-.829.864-.264.358-.487.828-.675 1.41v-.513c0-.667-.145-1.18-.427-1.538a1.349 1.349 0 0 0-1.11-.547c-.394 0-.778.18-1.154.53-.376.358-.786 1-1.222 1.922v-2.187h-1.393v9.544zM139.546 61.672h1.59V56.11a6.3 6.3 0 0 1 1.58-1.991c.64-.53 1.24-.795 1.803-.795.273 0 .53.094.77.282.238.188.4.436.486.726.086.29.137.897.137 1.812v5.528h1.59V56.34c0-1.418-.095-2.367-.283-2.854a2.421 2.421 0 0 0-.965-1.17 2.772 2.772 0 0 0-1.538-.453c-.65 0-1.29.213-1.932.624-.649.418-1.196.99-1.649 1.726v-2.085h-1.59v9.544zM153.97 61.937c1.358 0 2.452-.47 3.272-1.427.82-.957 1.23-2.162 1.23-3.614 0-1.453-.41-2.65-1.23-3.606-.82-.949-1.914-1.427-3.272-1.427-1.367 0-2.461.478-3.282 1.427-.82.957-1.23 2.153-1.23 3.606 0 1.452.41 2.657 1.23 3.614.82.957 1.915 1.427 3.282 1.427zm0-1.324c-.855 0-1.538-.325-2.034-.991-.504-.658-.752-1.564-.752-2.718 0-1.153.248-2.059.752-2.717.496-.666 1.18-.991 2.034-.991.846 0 1.52.325 2.025.991.495.658.752 1.564.752 2.717 0 1.154-.257 2.06-.752 2.718-.504.666-1.18.99-2.025.99zM162.002 54.272v-2.144h-1.59V65.38h1.59v-3.709c.18.017.316.035.41.043.615.068 1.068.094 1.367.094 1.043 0 1.914-.248 2.624-.752.7-.504 1.264-1.188 1.691-2.06.428-.87.641-1.853.641-2.964 0-1.402-.324-2.444-.957-3.136-.64-.684-1.358-1.034-2.153-1.034-.573 0-1.196.205-1.871.606-.684.41-1.265 1.009-1.752 1.803zm0 1.889c.478-.846 1.008-1.521 1.606-2.025.599-.496 1.145-.752 1.641-.752.453 0 .863.239 1.222.718.359.478.538 1.196.538 2.144 0 1.316-.333 2.35-.99 3.102-.659.752-1.47 1.128-2.428 1.128a6.123 6.123 0 0 1-1.589-.222V56.16zM177.4 59.528v5.853h1.598V52.128H177.4c-.188-.017-.325-.026-.41-.043a15.99 15.99 0 0 0-1.367-.094c-1.043 0-1.923.256-2.624.76-.709.505-1.273 1.188-1.692 2.06-.427.871-.632 1.854-.632 2.956 0 1.402.316 2.453.949 3.136.632.692 1.35 1.034 2.153 1.034.564 0 1.188-.196 1.871-.606.684-.402 1.265-1 1.752-1.803zm0-1.88c-.479.846-1.008 1.52-1.607 2.025-.598.495-1.145.752-1.64.752-.462 0-.863-.248-1.222-.727-.359-.478-.53-1.196-.53-2.136 0-1.307.325-2.341.974-3.102.65-.752 1.47-1.136 2.453-1.136.478 0 1.008.077 1.572.222v4.102zM182.33 61.672h1.59v-5.545c.538-.932 1.093-1.632 1.666-2.102.564-.462 1.145-.701 1.743-.701.154 0 .359.026.632.068v2.18h1.53v-3.444a6.094 6.094 0 0 0-1.726-.265c-.786 0-1.504.196-2.145.59-.64.393-1.205.974-1.7 1.76v-2.085h-1.59v9.544zM192.123 61.168c1.282.513 2.538.77 3.76.77 1.392 0 2.41-.266 3.042-.795.632-.53.957-1.214.957-2.043 0-.632-.205-1.153-.599-1.58-.401-.42-1.093-.812-2.076-1.171l-1.077-.393c-.734-.265-1.264-.504-1.589-.71-.333-.205-.496-.478-.496-.82 0-.35.188-.64.564-.88.376-.24.906-.359 1.581-.359.923 0 1.906.188 2.957.564v-1.444a9.512 9.512 0 0 0-2.897-.444c-1.367 0-2.35.256-2.957.76-.606.513-.905 1.154-.905 1.94 0 .564.154 1.034.47 1.418.307.394 1.05.82 2.238 1.282l1.103.436.547.222c.649.274 1.06.496 1.23.675a.969.969 0 0 1 .248.658c0 .393-.18.718-.53.974-.359.257-.931.385-1.735.385-.495 0-1.102-.077-1.811-.248a6.268 6.268 0 0 1-2.025-.88v1.683zM210.486 61.288v-1.402c-.855.488-1.658.727-2.427.727-.419 0-.778-.069-1.085-.222a1.684 1.684 0 0 1-.735-.693c-.18-.316-.273-.863-.273-1.632v-3.82h4.246v-1.324h-4.246v-3.845h-1.59v3.845h-2.384v1.325h2.384v3.845c0 1.051.145 1.829.427 2.333.282.495.701.88 1.248 1.136a4.301 4.301 0 0 0 1.829.385c.316 0 .64-.034.974-.094.342-.06.88-.248 1.632-.564zM220.85 52.128h-1.589v5.562c-.427.804-.957 1.47-1.597 2-.641.53-1.24.786-1.795.786-.273 0-.53-.094-.769-.282a1.391 1.391 0 0 1-.487-.718c-.085-.29-.128-.897-.128-1.811v-5.529h-1.59v5.332c0 1.41.086 2.359.274 2.846.18.487.504.88.966 1.179.461.299.974.453 1.53.453.631 0 1.255-.197 1.879-.59.632-.393 1.196-.982 1.709-1.769v2.094h1.59l.008-9.553zM226.593 61.672h1.624l4.178-9.544h-1.59l-3.34 7.553-3.273-7.553h-1.743l4.144 9.544zM234.386 61.672h1.547l1.589-6.152.265-1.342h.043l.29 1.35 1.829 6.144h1.487l1.546-9.544h-1.222l-.914 5.81-.197 1.35-.299-1.35-1.717-5.81h-1.427l-1.521 5.81-.23 1.35-.24-1.35-.906-5.81h-1.478l1.555 9.544zM245.469 61.672l2.828-3.802 2.905 3.802h2.043l-3.94-5.152 3.316-4.392h-1.803l-2.418 3.204-2.487-3.204h-2.034l3.504 4.546-3.751 4.998h1.837zM258.483 61.288l-.146.367c-.136.376-.376.812-.7 1.316-.334.513-.701.863-1.103 1.06-.393.205-.854.299-1.367.299a4.28 4.28 0 0 1-1.256-.205v1.401c.385.086.82.128 1.308.128 1.11 0 2.025-.307 2.725-.923.701-.615 1.444-1.854 2.222-3.734l3.7-8.87h-1.598l-2.94 7.161-3.511-7.16h-1.752l4.418 9.16zM265.276 61.672h8.152v-1.46h-6.093l5.896-6.76v-1.324h-7.818v1.324h5.716l-5.853 6.76v1.46zM3.75 83.547l.897-2.913h4.666l.906 2.913h1.82l-4.11-13.261H6.176L2.092 83.547H3.75zm1.307-4.238l1.564-5.033.333-1.333.376 1.333 1.598 5.033h-3.87zM13.773 83.547h3.222c1.247 0 2.161-.145 2.734-.444a3.17 3.17 0 0 0 1.324-1.273 3.38 3.38 0 0 0 .479-1.71c0-.614-.188-1.23-.564-1.845-.376-.615-1.085-1.128-2.136-1.555.572-.308 1.008-.632 1.316-.974.299-.342.53-.726.683-1.145.154-.419.231-.863.231-1.333 0-.59-.137-1.12-.393-1.581-.265-.461-.658-.803-1.188-1.042-.53-.24-1.572-.36-3.127-.36h-2.59l.01 13.262zm1.718-7.288v-4.64h1.205c1.068 0 1.785.153 2.153.461.367.308.547.778.547 1.401 0 .402-.06.77-.197 1.103a2.724 2.724 0 0 1-.606.905c-.274.274-.701.53-1.29.77H15.49zm0 5.964v-4.64h.478c1.077 0 1.863.111 2.359.333.504.222.871.513 1.11.889.24.376.36.778.36 1.222 0 .607-.214 1.128-.65 1.555-.436.427-1.11.64-2.025.64H15.49zM32.094 83.394V81.83c-.923.53-1.838.795-2.735.795-.683 0-1.299-.223-1.854-.676-.564-.452-1.017-1.136-1.376-2.05-.359-.906-.538-1.906-.538-2.983 0-1.06.17-2.033.521-2.939.342-.906.803-1.59 1.367-2.06.564-.46 1.197-.7 1.88-.7.906 0 1.812.265 2.735.795v-1.573c-.992-.367-1.88-.555-2.667-.555a5.186 5.186 0 0 0-2.88.846c-.87.564-1.546 1.393-2.024 2.487-.479 1.093-.718 2.332-.718 3.7 0 1.384.24 2.631.726 3.725.479 1.094 1.162 1.923 2.034 2.478.872.556 1.82.829 2.862.829.787 0 1.675-.18 2.667-.555zM34.614 83.547h3.145c1.444 0 2.512-.265 3.196-.803.683-.538 1.204-1.307 1.58-2.307.376-1 .564-2.162.564-3.486 0-1.393-.18-2.598-.53-3.615-.358-1.025-.888-1.786-1.589-2.29-.7-.504-1.777-.752-3.221-.752h-3.145v13.253zm1.726-1.452V71.627h1.29c1.06 0 1.83.18 2.3.547.46.367.82.897 1.076 1.58.248.684.376 1.659.376 2.932 0 1.299-.111 2.315-.325 3.05-.213.735-.572 1.316-1.068 1.735-.496.41-1.333.624-2.495.624H36.34zM52.678 82.086h-5.434v-4.64h4.768v-1.324h-4.768v-4.503h5.298v-1.333h-7.024v13.261h7.16v-1.46zM56.216 83.547h1.726v-6.1h5.033v-1.325h-5.033v-4.503h5.563v-1.333h-7.29v13.261zM74.066 83.539v-6.554h-3.05v1.324h1.324v4.273a5.693 5.693 0 0 1-.692.042c-1.419 0-2.452-.59-3.102-1.768-.658-1.18-.983-2.487-.983-3.922 0-1.069.171-2.051.513-2.957.342-.906.803-1.59 1.367-2.06.564-.46 1.188-.7 1.872-.7.905 0 1.82.265 2.734.795v-1.573c-.991-.367-1.88-.555-2.666-.555-1.042 0-2 .282-2.871.846-.872.564-1.547 1.393-2.025 2.487-.479 1.093-.718 2.332-.718 3.7 0 1.392.248 2.64.735 3.742.496 1.102 1.17 1.923 2.034 2.47.863.547 1.845.82 2.948.82.786 0 1.64-.137 2.58-.41zM76.34 83.547h1.725v-6.229h4.905v6.23h1.718V70.285H82.97v5.708h-4.905v-5.708H76.34v13.261zM87.225 83.547h7.554v-1.324h-2.914V71.619h2.914v-1.333h-7.554v1.333h2.914v10.604h-2.914v1.324zM97.189 83.257c1.093.461 2.145.692 3.161.692.906 0 1.65-.162 2.23-.496.582-.333 1.026-.811 1.35-1.435.325-.615.488-1.632.488-3.05v-8.682h-4.709v1.333h2.983v7.306c0 1.315-.111 2.179-.325 2.58-.214.402-.504.684-.863.855-.359.17-.76.256-1.196.256-.838 0-1.88-.325-3.12-.983v1.624zM108.084 83.547h1.726v-6.759l5.263 6.76h2.162l-5.426-6.965 4.76-6.297h-1.829l-4.93 6.502v-6.502h-1.726v13.261zM126.267 82.086h-5.434v-11.8h-1.727v13.261h7.161v-1.46zM129.6 83.547v-8.45l-.043-1.163h.043l.333 1.162 2.076 5.802h1.726l2.051-5.802.376-1.162h.043l-.043 1.162v8.451h1.59V70.286h-1.692L133 79.019l-3.059-8.733h-1.734v13.261h1.393zM140.887 83.547V74.85l-.034-1.376.641 1.393 4.563 8.681h1.59V70.286h-1.59v8.827l.043 1.315h-.043l-.513-1.315-4.69-8.827h-1.556v13.261h1.59zM153.961 83.949c1.504 0 2.658-.632 3.452-1.897.786-1.265 1.188-2.982 1.188-5.136 0-2.144-.402-3.853-1.188-5.118-.794-1.265-1.948-1.897-3.452-1.897s-2.657.632-3.452 1.897c-.795 1.265-1.188 2.974-1.188 5.118 0 2.154.393 3.871 1.188 5.136.795 1.265 1.948 1.897 3.452 1.897zm0-1.333c-.837 0-1.53-.47-2.085-1.41-.555-.94-.829-2.375-.829-4.29 0-1.914.274-3.34.83-4.28.555-.94 1.247-1.419 2.084-1.419.829 0 1.521.479 2.077 1.418.555.94.837 2.367.837 4.281 0 1.915-.282 3.35-.837 4.29-.556.94-1.248 1.41-2.077 1.41zM162.438 78.71h.7c1.36 0 2.436-.196 3.23-.589a4.431 4.431 0 0 0 1.863-1.7 4.496 4.496 0 0 0 .667-2.376 4.02 4.02 0 0 0-.496-1.965 3.288 3.288 0 0 0-1.435-1.333c-.616-.308-1.607-.461-2.966-.461h-3.298v13.261h1.726l.01-4.836zm-.01-1.324V71.62h1.035c1.47 0 2.46.222 2.956.666.496.444.744 1.051.744 1.812a3.44 3.44 0 0 1-.42 1.683 2.788 2.788 0 0 1-1.195 1.196c-.513.274-1.308.41-2.376.41h-.743zM176.075 83.795c.906-.256 1.607-.743 2.12-1.452.512-.71.871-1.53 1.076-2.47.205-.94.316-1.923.316-2.948 0-2.153-.401-3.87-1.196-5.135-.795-1.265-1.94-1.897-3.443-1.897-1.556 0-2.718.658-3.487 1.965-.769 1.316-1.153 2.93-1.153 4.853 0 1.316.17 2.547.53 3.692.35 1.145.828 1.99 1.435 2.538.607.547 1.436.88 2.478.99.359.821.769 1.462 1.213 1.932.445.479.915.829 1.419 1.051.495.23 1.299.342 2.4.342h.403V85.93h-.154c-.615 0-1.17-.06-1.667-.188-.504-.12-.914-.316-1.221-.572-.317-.256-.675-.71-1.069-1.376zm-1.136-12.578c.837 0 1.53.479 2.085 1.418.555.94.829 2.367.829 4.281 0 1.915-.274 3.35-.83 4.29-.554.94-1.247 1.41-2.084 1.41-.829 0-1.521-.47-2.076-1.41-.556-.94-.838-2.375-.838-4.29 0-1.914.282-3.34.838-4.28.555-.94 1.247-1.419 2.076-1.419zM183.193 77.916h1.726l3.512 5.631h2.051l-3.836-6.195c.657-.359 1.162-.743 1.512-1.153.35-.41.624-.872.829-1.393.196-.513.299-1.034.299-1.547 0-.547-.154-1.068-.453-1.546-.3-.479-.718-.83-1.265-1.068-.547-.24-1.401-.36-2.555-.36h-3.546v13.262h1.726v-5.63zm0-1.333V71.62h1.29c1.188 0 2.009.188 2.462.555.452.367.683.863.683 1.478 0 .35-.068.701-.205 1.043-.137.35-.342.675-.607.982-.264.308-.666.616-1.204.906h-2.419zM192.029 83.265c.769.282 1.393.47 1.871.556.479.085.974.128 1.504.128 1.64 0 2.837-.367 3.589-1.102.743-.735 1.12-1.615 1.12-2.64 0-1.342-.727-2.462-2.18-3.35l-.7-.41-.83-.505-.666-.401c-.547-.3-.99-.633-1.333-.991-.35-.36-.52-.804-.52-1.35 0-.547.221-1.009.674-1.402.453-.384 1.051-.581 1.786-.581.923 0 1.871.188 2.845.564v-1.478a9.274 9.274 0 0 0-2.742-.41c-1.47 0-2.555.341-3.248 1.025-.692.684-1.033 1.521-1.033 2.52 0 1.36.769 2.496 2.324 3.41l.88.504.871.504c.83.488 1.393.932 1.7 1.333.3.402.454.83.454 1.29 0 .394-.111.761-.333 1.094-.223.342-.539.599-.966.778-.427.18-.88.265-1.342.265-1.119 0-2.358-.325-3.725-.974v1.623zM205.564 83.547h1.726v-11.8h3.982v-1.461h-9.681v1.46h3.973v11.801zM212.75 70.286v8.485c0 1.606.163 2.717.487 3.332a3.13 3.13 0 0 0 1.436 1.385c.632.307 1.358.461 2.196.461.897 0 1.64-.17 2.23-.53.598-.35 1.077-.871 1.444-1.572.368-.7.547-1.666.547-2.905v-8.656h-1.59v8.032c0 1.393-.093 2.341-.281 2.845-.188.504-.487.872-.889 1.111-.402.24-.863.35-1.376.35-.478 0-.923-.102-1.316-.324a2.037 2.037 0 0 1-.88-.957c-.188-.419-.282-1.205-.282-2.35v-8.707h-1.726zM230.737 70.286l-2.88 9.27-.333 1.342-.376-1.35-2.88-9.262h-1.82l4.11 13.261h1.753l4.084-13.261h-1.658zM234.437 83.547h1.615l1.538-8.989.163-1.35h.042l.18 1.35 1.709 8.99h1.632l1.606-13.262h-1.35l-1 8.39-.102 1.291h-.043l-.162-1.282-1.59-8.4h-1.572l-1.393 8.076-.17 1.341h-.043l-.12-1.341-.906-8.075H232.9l1.538 13.261zM245.358 83.547l2.982-5.289 2.914 5.29h1.99l-3.913-7.059 3.503-6.203h-1.803l-2.597 4.571-2.538-4.571h-1.957l3.504 6.331-3.88 6.93h1.795zM258.038 83.547h1.726v-6.135l3.94-7.126h-1.77l-2.939 5.263-2.948-5.263h-1.956l3.947 7.126v6.135zM265.182 83.547h8.417v-1.46h-6.418l6.29-10.468v-1.333h-8.093v1.333h6.101l-6.297 10.467v1.461zM7.065 105.687c1.36 0 2.453-.47 3.273-1.427.82-.957 1.23-2.162 1.23-3.614 0-1.453-.41-2.65-1.23-3.606-.82-.949-1.914-1.427-3.273-1.427-1.367 0-2.46.478-3.28 1.427-.821.957-1.231 2.153-1.231 3.606 0 1.452.41 2.657 1.23 3.614.82.957 1.914 1.427 3.281 1.427zm0-1.324c-.854 0-1.538-.325-2.033-.991-.504-.658-.752-1.564-.752-2.718 0-1.153.248-2.059.752-2.717.495-.666 1.179-.991 2.033-.991.846 0 1.521.325 2.026.991.495.658.752 1.564.752 2.717 0 1.154-.257 2.06-.752 2.718-.505.666-1.18.99-2.026.99zM17.55 105.824c1.504 0 2.658-.632 3.452-1.897.786-1.265 1.188-2.982 1.188-5.136 0-2.144-.402-3.853-1.188-5.118-.794-1.265-1.948-1.897-3.452-1.897s-2.657.632-3.452 1.897c-.795 1.265-1.188 2.974-1.188 5.118 0 2.154.393 3.871 1.188 5.136.795 1.265 1.948 1.897 3.452 1.897zm0-1.333c-.837 0-1.53-.47-2.085-1.41-.555-.94-.829-2.375-.829-4.29 0-1.914.274-3.34.83-4.28.555-.94 1.247-1.419 2.084-1.419.829 0 1.521.479 2.076 1.418.556.94.838 2.367.838 4.281 0 1.915-.282 3.35-.838 4.29-.555.94-1.247 1.41-2.076 1.41zM28.043 91.768c-1.504 0-2.657.64-3.452 1.905-.795 1.265-1.188 2.974-1.188 5.118 0 2.154.393 3.871 1.188 5.136.795 1.265 1.948 1.897 3.452 1.897s2.658-.632 3.452-1.897c.786-1.265 1.188-2.982 1.188-5.136 0-2.144-.402-3.853-1.188-5.118-.794-1.265-1.948-1.905-3.452-1.905zm-2.589 9.86c-.17-.726-.273-1.307-.29-1.734a19.74 19.74 0 0 1-.035-1.196c0-1.624.248-2.957.744-4.017.495-1.06 1.213-1.589 2.17-1.589.36 0 .71.094 1.051.282.342.188.658.538.949 1.068l-4.589 7.186zm5.161-5.605c.231.846.35 1.726.35 2.64 0 1.47-.23 2.812-.683 4.025-.461 1.213-1.23 1.82-2.307 1.82-.393 0-.752-.111-1.068-.316-.325-.205-.607-.521-.846-.932l4.554-7.237zM37.212 98.27c-1.863 1.3-2.786 2.666-2.786 4.119 0 .974.342 1.794 1.043 2.452.692.658 1.734.983 3.127.983 1.393 0 2.435-.35 3.128-1.051.7-.7 1.042-1.538 1.042-2.495 0-.615-.145-1.17-.436-1.666-.29-.496-.854-1.086-1.692-1.77l-.717-.572c.769-.624 1.29-1.11 1.546-1.452.257-.342.453-.693.581-1.043.137-.35.197-.71.197-1.085 0-.547-.137-1.051-.427-1.513a2.663 2.663 0 0 0-1.214-1.05c-.521-.24-1.11-.35-1.769-.35-1.068 0-1.948.307-2.64.93-.7.624-1.042 1.376-1.042 2.265 0 .666.188 1.273.58 1.829.385.555.778.974 1.18 1.264l.299.205zm1.623-.803l-.401-.29c-.615-.445-1.06-.838-1.342-1.188-.273-.36-.418-.735-.418-1.128 0-.41.17-.812.504-1.188.333-.384.82-.572 1.452-.572.599 0 1.077.17 1.453.52.376.351.564.744.564 1.171 0 .35-.094.735-.3 1.145-.204.41-.708.915-1.512 1.53zm-.435 1.658l.512.401c.24.18.65.564 1.248 1.162.598.59.889 1.171.889 1.744 0 .59-.24 1.076-.735 1.47a2.58 2.58 0 0 1-1.667.589c-.675 0-1.264-.205-1.76-.615-.495-.41-.743-.915-.743-1.513 0-1.008.752-2.085 2.256-3.238zM58.275 105.422h4.247v-1.324h-2.657v-8.22h-4.239v1.324h2.65v8.22zm-.265-12.988c0 .359.12.624.368.795.239.18.47.265.692.265.222 0 .453-.086.7-.265.24-.171.368-.436.368-.795 0-.359-.128-.624-.367-.803-.248-.171-.479-.265-.701-.265-.222 0-.453.094-.692.265-.248.18-.368.444-.368.803zM66.239 105.422h7.554v-1.324h-2.914V93.494h2.914V92.16h-7.554v1.333h2.914v10.604h-2.914v1.324zM79.15 105.422h4.572v-1.324H80.74V91.63h-4.444v1.333h2.854v12.458zM94.788 103.961h-5.435v-11.8h-1.726v13.261h7.16v-1.46zM101.102 104.098h-3.247v1.324h8.024v-1.324h-3.187V92.16h-1.59c-.923.846-2 1.53-3.247 2.059v1.436c.786-.274 1.402-.547 1.854-.82.445-.266.915-.59 1.393-.975v10.237zM121.91 99.988c.529-.274.913-.547 1.161-.82.248-.265.436-.539.556-.82.12-.283.188-.608.188-.975 0-.325-.06-.743-.171-1.273l-.214-.974c-.12-.53-.17-.915-.17-1.17 0-.351.136-.65.41-.89.273-.239.828-.358 1.666-.358h1.324v-1.333h-1.341c-1.564 0-2.572.247-3.025.751-.445.505-.675 1.069-.675 1.7 0 .334.042.702.128 1.095l.154.683.145.744.102.444c.043.188.06.393.06.598 0 .547-.18 1.008-.538 1.384-.359.368-.991.556-1.88.556h-.76v1.324h.76c.906 0 1.53.188 1.888.564.36.376.53.83.53 1.359 0 .196-.017.402-.06.615l-.102.453-.145.743-.154.684a4.977 4.977 0 0 0-.128 1.077c0 .632.23 1.205.675 1.7.453.504 1.46.752 3.025.752h1.341v-1.324h-1.324c-.846 0-1.402-.12-1.675-.36a1.138 1.138 0 0 1-.41-.888c0-.256.06-.65.17-1.18l.214-.973c.12-.522.171-.949.171-1.273 0-.36-.06-.684-.18-.966a2.997 2.997 0 0 0-.555-.829c-.248-.265-.632-.538-1.162-.82zM133.556 99.988c-.53.282-.923.555-1.17.82a2.957 2.957 0 0 0-.548.829c-.12.282-.18.607-.18.966 0 .324.052.751.163 1.273l.214.974c.111.53.17.923.17 1.17 0 .36-.136.658-.41.898-.273.239-.828.359-1.674.359h-1.325v1.324h1.342c1.564 0 2.572-.248 3.025-.743.453-.496.675-1.068.675-1.7 0-.334-.043-.701-.137-1.095l-.154-.683-.145-.744-.102-.452a3.28 3.28 0 0 1-.06-.59c0-.547.188-1.008.547-1.384.359-.376.982-.564 1.871-.564h.76V99.32h-.76c-.897 0-1.521-.188-1.88-.564a1.877 1.877 0 0 1-.538-1.35c0-.196.025-.401.06-.624l.102-.444.145-.743.154-.684c.094-.384.137-.752.137-1.094 0-.623-.222-1.187-.675-1.692-.453-.504-1.461-.76-3.025-.76h-1.342v1.333h1.325c.846 0 1.401.128 1.675.367.273.24.41.539.41.88 0 .257-.06.65-.171 1.18l-.214.974c-.11.53-.162.948-.162 1.273 0 .367.06.692.18.974.119.282.298.556.546.82.248.274.641.547 1.17.82zM151.748 108.601h6.896v-1.324h-5.307V92.699h5.307v-1.333h-6.896v17.235zM166.676 91.366h-6.896v1.333h5.307v14.578h-5.307v1.324h6.896V91.366zM187.893 103.278v1.35c0 .64-.051 1.153-.145 1.538a2.374 2.374 0 0 1-.547 1.008c-.274.29-.624.513-1.051.667-.436.153-.897.23-1.376.23a5.58 5.58 0 0 1-1.914-.35c-.658-.24-1.213-.513-1.658-.82v1.606c1.18.598 2.35.889 3.512.889 1.145 0 2.128-.24 2.94-.735.812-.487 1.333-1.154 1.564-2a8.34 8.34 0 0 0 .205-1.085c.042-.359.068-1.341.068-2.948v-6.75h-1.598c-.188-.017-.325-.026-.41-.043a15.989 15.989 0 0 0-1.367-.094c-1.043 0-1.923.256-2.624.76-.709.505-1.273 1.188-1.691 2.06-.428.871-.633 1.854-.633 2.956 0 1.402.316 2.453.949 3.136.632.692 1.35 1.034 2.153 1.034.564 0 1.188-.196 1.871-.606.684-.402 1.265-1 1.752-1.803zm0-1.88c-.478.846-1.008 1.52-1.606 2.025-.599.495-1.145.752-1.641.752-.461 0-.863-.248-1.222-.727-.359-.478-.53-1.196-.53-2.136 0-1.307.325-2.341.974-3.102.65-.752 1.47-1.136 2.453-1.136.478 0 1.008.077 1.572.222v4.102zM198.685 98.381v.342c0 1.675-.324 3.05-.974 4.136-.65 1.094-1.572 1.632-2.751 1.632-.838 0-1.735-.222-2.675-.667v1.598a8.35 8.35 0 0 0 2.606.402c1.658 0 2.983-.64 3.957-1.923.974-1.281 1.46-3.033 1.46-5.246 0-2-.384-3.64-1.153-4.94-.769-1.298-1.922-1.947-3.469-1.947-1.316 0-2.384.47-3.187 1.4-.803.932-1.205 2.026-1.205 3.274 0 .803.162 1.504.487 2.102a3.398 3.398 0 0 0 1.41 1.41 4.069 4.069 0 0 0 1.965.495c.727 0 1.393-.188 2-.572a5.1 5.1 0 0 0 1.53-1.496zm-3.119-5.289c.65 0 1.222.282 1.726.829.505.547.761 1.256.761 2.119 0 .855-.265 1.59-.778 2.188-.512.598-1.17.897-1.973.897-.778 0-1.376-.257-1.795-.778-.419-.513-.624-1.179-.624-1.982 0-.624.12-1.197.368-1.726.248-.522.59-.906 1.025-1.162.427-.257.863-.385 1.29-.385zM208.88 103.278v5.853h1.597V95.878h-1.598c-.188-.017-.324-.026-.41-.043a15.99 15.99 0 0 0-1.367-.094c-1.042 0-1.923.256-2.623.76-.71.505-1.273 1.188-1.692 2.06-.427.871-.632 1.854-.632 2.956 0 1.402.316 2.453.948 3.136.632.692 1.35 1.034 2.153 1.034.564 0 1.188-.196 1.872-.606.683-.402 1.264-1 1.751-1.803zm0-1.88c-.48.846-1.009 1.52-1.607 2.025-.598.495-1.145.752-1.64.752-.462 0-.864-.248-1.223-.727-.358-.478-.53-1.196-.53-2.136 0-1.307.325-2.341.975-3.102.65-.752 1.47-1.136 2.452-1.136.479 0 1.008.077 1.572.222v4.102zM220.97 105.269v-1.564c-.922.53-1.837.795-2.734.795-.684 0-1.299-.223-1.854-.676-.564-.452-1.017-1.136-1.376-2.05-.359-.906-.538-1.906-.538-2.983 0-1.06.17-2.033.521-2.939.342-.906.803-1.59 1.367-2.06.564-.46 1.196-.7 1.88-.7.906 0 1.812.265 2.734.795v-1.573c-.99-.367-1.88-.555-2.666-.555a5.186 5.186 0 0 0-2.88.846c-.87.564-1.546 1.393-2.024 2.487-.479 1.093-.718 2.332-.718 3.7 0 1.384.24 2.631.726 3.725.479 1.094 1.162 1.923 2.034 2.478.871.556 1.82.829 2.862.829.787 0 1.675-.18 2.666-.555zM231.464 105.414V98.86h-3.05v1.324h1.324v4.273a5.693 5.693 0 0 1-.693.042c-1.418 0-2.452-.59-3.101-1.768-.658-1.18-.983-2.487-.983-3.922 0-1.069.17-2.051.513-2.957.341-.906.803-1.59 1.367-2.06.564-.46 1.188-.7 1.871-.7.906 0 1.82.265 2.735.795v-1.573c-.992-.367-1.88-.555-2.666-.555-1.043 0-2 .282-2.872.846-.871.564-1.546 1.393-2.025 2.487-.478 1.093-.717 2.332-.717 3.7 0 1.392.247 2.64.734 3.742.496 1.102 1.171 1.923 2.034 2.47.863.547 1.846.82 2.948.82.786 0 1.64-.137 2.58-.41zM239.034 105.67c.906-.256 1.607-.743 2.12-1.452.512-.71.871-1.53 1.076-2.47.205-.94.316-1.923.316-2.948 0-2.153-.401-3.87-1.196-5.135-.795-1.265-1.94-1.897-3.444-1.897-1.555 0-2.717.658-3.486 1.965-.769 1.316-1.153 2.93-1.153 4.853 0 1.316.17 2.547.53 3.692.35 1.145.828 1.99 1.435 2.538.607.547 1.435.88 2.478.99.359.821.769 1.462 1.213 1.932.445.479.915.829 1.419 1.051.495.23 1.299.342 2.4.342h.403v-1.325h-.154c-.616 0-1.17-.06-1.667-.188-.504-.12-.914-.316-1.221-.572-.317-.256-.676-.71-1.069-1.376zm-1.136-12.578c.837 0 1.53.479 2.085 1.418.555.94.829 2.367.829 4.281 0 1.915-.274 3.35-.83 4.29-.555.94-1.247 1.41-2.084 1.41-.829 0-1.521-.47-2.076-1.41-.556-.94-.838-2.375-.838-4.29 0-1.914.282-3.34.838-4.28.555-.94 1.247-1.419 2.076-1.419zM254.125 101.979h1.025v-.154c0-.197.06-.427.18-.692.12-.257.273-.453.47-.573.196-.12.41-.18.64-.18.402 0 .932.189 1.59.565l.871.504c.932.53 1.675.795 2.24.795.606 0 1.178-.223 1.717-.675.538-.453.803-1.154.803-2.111v-.137h-1.094v.137c0 .359-.094.692-.299 1-.205.307-.513.453-.94.453-.393 0-.914-.171-1.547-.522l-1.033-.572c-.453-.256-.795-.427-1.026-.513a3.688 3.688 0 0 0-.607-.188 2.983 2.983 0 0 0-.555-.051c-.743 0-1.333.273-1.777.82-.445.547-.667 1.197-.667 1.94l.01.154zM266.08 100.714h6.63V99.39h-6.63v1.324zM284.519 100.116h-3.973v-3.973h-1.333v3.973h-3.974v1.333h3.974v3.973h1.333v-3.973h3.973v-1.333zM295.012 98.663h-9.28v1.325h9.28v-1.325zm0 2.983h-9.28v1.324h9.28v-1.324zM305.505 100.782l-9.28-4.64v1.462l6.35 3.187-6.35 3.153v1.478l9.28-4.64z"/></g></g></svg>