<?xml version="1.0" encoding="UTF-8" standalone="no"?>
<!-- Created with Inkscape (http://www.inkscape.org/) -->

<svg
   xmlns:dc="http://purl.org/dc/elements/1.1/"
   xmlns:cc="http://creativecommons.org/ns#"
   xmlns:rdf="http://www.w3.org/1999/02/22-rdf-syntax-ns#"
   xmlns:svg="http://www.w3.org/2000/svg"
   xmlns="http://www.w3.org/2000/svg"
   xmlns:sodipodi="http://sodipodi.sourceforge.net/DTD/sodipodi-0.dtd"
   xmlns:inkscape="http://www.inkscape.org/namespaces/inkscape"
   width="80.692062mm"
   height="30.602093mm"
   viewBox="0 0 285.91676 108.43261"
   id="svg2"
   version="1.1"
   inkscape:version="0.91 r13725"
   sodipodi:docname="Mononoki Nerd Font.svg">
  <defs
     id="defs4" />
  <sodipodi:namedview
     id="base"
     pagecolor="#ffffff"
     bordercolor="#666666"
     borderopacity="1.0"
     inkscape:pageopacity="0.0"
     inkscape:pageshadow="2"
     inkscape:zoom="0.7"
     inkscape:cx="-53.689667"
     inkscape:cy="-400.54897"
     inkscape:document-units="px"
     inkscape:current-layer="layer1"
     showgrid="false"
     inkscape:window-width="1861"
     inkscape:window-height="1056"
     inkscape:window-x="59"
     inkscape:window-y="24"
     inkscape:window-maximized="1" />
  <metadata
     id="metadata7">
    <rdf:RDF>
      <cc:Work
         rdf:about="">
        <dc:format>image/svg+xml</dc:format>
        <dc:type
           rdf:resource="http://purl.org/dc/dcmitype/StillImage" />
        <dc:title />
      </cc:Work>
    </rdf:RDF>
  </metadata>
  <g
     inkscape:label="Layer 1"
     inkscape:groupmode="layer"
     id="layer1"
     transform="translate(-63.689663,-80.523476)">
    <g
       style="font-style:normal;font-weight:normal;font-size:27.5px;line-height:125%;font-family:'Mononoki Nerd Font';text-decoration: underline;text-decoration-line: underline;letter-spacing:0px;word-spacing:0px;fill:#ffffff;fill-opacity:1;stroke:none;stroke-width:1px;stroke-linecap:butt;stroke-linejoin:miter;stroke-opacity:1"
       id="text4136">
      <path
         d="m 77.493374,100.23539 q 0,0.29541 -0.214844,0.51025 -0.187988,0.18799 -0.483398,0.18799 l -0.913086,0 q -0.29541,0 -0.483399,-0.18799 -0.161133,-0.18798 -0.187988,-0.51025 l -0.483398,-13.803711 -2.980957,5.961914 q -0.214844,0.483398 -0.778809,0.483398 l -0.751953,0 q -0.563965,0 -0.778809,-0.483398 l -2.980957,-5.961914 -0.483398,13.803711 q -0.02686,0.32227 -0.214844,0.51025 -0.161133,0.18799 -0.456543,0.18799 l -0.913086,0 q -0.29541,0 -0.510254,-0.18799 -0.187988,-0.21484 -0.187988,-0.51025 l 0.537109,-17.563477 q 0,-0.671387 0.725098,-0.671387 l 0.429687,0 q 1.12793,0 1.584473,0.966797 l 3.625488,7.250977 3.625489,-7.250977 q 0.456543,-0.966797 1.584472,-0.966797 l 0.429688,0 q 0.725097,0 0.725097,0.671387 l 0.53711,17.563477 z"
         id="path4140"
         inkscape:connector-curvature="0" />
      <path
         d="m 86.140835,87.183632 q 1.530762,0 2.739258,0.778808 1.208496,0.751954 1.906738,2.336426 0.698242,1.584473 0.698242,3.920899 0,2.336425 -0.698242,3.920898 -0.698242,1.584473 -1.906738,2.363277 -1.208496,0.75196 -2.739258,0.75196 -1.530762,0 -2.792969,-0.77881 -1.235352,-0.77881 -1.987305,-2.363282 -0.751953,-1.584473 -0.751953,-3.894043 0,-2.309571 0.751953,-3.894043 0.751953,-1.584473 1.987305,-2.363282 1.262207,-0.778808 2.792969,-0.778808 z m -0.08057,12.004394 q 1.42334,0 2.282715,-1.315918 0.859375,-1.315918 0.859375,-3.652343 0,-2.336426 -0.859375,-3.652344 -0.859375,-1.315918 -2.282715,-1.315918 -1.423339,0 -2.30957,1.315918 -0.859375,1.315918 -0.859375,3.652344 0,2.336425 0.859375,3.652343 0.886231,1.315918 2.30957,1.315918 z"
         id="path4142"
         inkscape:connector-curvature="0" />
      <path
         d="m 96.077358,88.284706 q 0,-0.59082 0.617676,-0.725098 2.148438,-0.322265 4.565426,-0.322265 3.00782,0 4.35059,1.262207 1.34277,1.235351 1.34277,4.162598 l 0,7.600102 q 0,0.67138 -0.67138,0.67138 l -0.93995,0 q -0.67138,0 -0.67138,-0.67138 l 0,-7.600102 q 0,-1.879883 -0.77881,-2.631836 -0.77881,-0.751954 -2.63184,-0.751954 -1.289059,0 -2.900387,0.107422 l 0,10.87647 q 0,0.67138 -0.671387,0.67138 l -0.939941,0 q -0.671387,0 -0.671387,-0.67138 l 0,-11.977544 z"
         id="path4144"
         inkscape:connector-curvature="0" />
      <path
         d="m 117.07833,87.183632 q 1.53077,0 2.73926,0.778808 1.2085,0.751954 1.90674,2.336426 0.69824,1.584473 0.69824,3.920899 0,2.336425 -0.69824,3.920898 -0.69824,1.584473 -1.90674,2.363277 -1.20849,0.75196 -2.73926,0.75196 -1.53076,0 -2.79296,-0.77881 -1.23536,-0.77881 -1.98731,-2.363282 -0.75195,-1.584473 -0.75195,-3.894043 0,-2.309571 0.75195,-3.894043 0.75195,-1.584473 1.98731,-2.363282 1.2622,-0.778808 2.79296,-0.778808 z m -0.0806,12.004394 q 1.42334,0 2.28271,-1.315918 0.85938,-1.315918 0.85938,-3.652343 0,-2.336426 -0.85938,-3.652344 -0.85937,-1.315918 -2.28271,-1.315918 -1.42334,0 -2.30957,1.315918 -0.85938,1.315918 -0.85938,3.652344 0,2.336425 0.85938,3.652343 0.88623,1.315918 2.30957,1.315918 z"
         id="path4146"
         inkscape:connector-curvature="0" />
      <path
         d="m 127.01486,88.284706 q 0,-0.59082 0.61767,-0.725098 2.14844,-0.322265 4.56543,-0.322265 3.00782,0 4.35059,1.262207 1.34277,1.235351 1.34277,4.162598 l 0,7.600102 q 0,0.67138 -0.67138,0.67138 l -0.93995,0 q -0.67138,0 -0.67138,-0.67138 l 0,-7.600102 q 0,-1.879883 -0.77881,-2.631836 -0.77881,-0.751954 -2.63184,-0.751954 -1.28906,0 -2.90039,0.107422 l 0,10.87647 q 0,0.67138 -0.67138,0.67138 l -0.93995,0 q -0.67138,0 -0.67138,-0.67138 l 0,-11.977544 z"
         id="path4148"
         inkscape:connector-curvature="0" />
      <path
         d="m 148.01583,87.183632 q 1.53077,0 2.73926,0.778808 1.2085,0.751954 1.90674,2.336426 0.69824,1.584473 0.69824,3.920899 0,2.336425 -0.69824,3.920898 -0.69824,1.584473 -1.90674,2.363277 -1.20849,0.75196 -2.73926,0.75196 -1.53076,0 -2.79296,-0.77881 -1.23536,-0.77881 -1.98731,-2.363282 -0.75195,-1.584473 -0.75195,-3.894043 0,-2.309571 0.75195,-3.894043 0.75195,-1.584473 1.98731,-2.363282 1.2622,-0.778808 2.79296,-0.778808 z m -0.0806,12.004394 q 1.42334,0 2.28271,-1.315918 0.85938,-1.315918 0.85938,-3.652343 0,-2.336426 -0.85938,-3.652344 -0.85937,-1.315918 -2.28271,-1.315918 -1.42334,0 -2.30957,1.315918 -0.85938,1.315918 -0.85938,3.652344 0,2.336425 0.85938,3.652343 0.88623,1.315918 2.30957,1.315918 z"
         id="path4150"
         inkscape:connector-curvature="0" />
      <path
         d="m 169.15109,100.10111 q 0.2417,0.2417 0.2417,0.45655 0,0.16113 -0.16113,0.26855 -0.16114,0.10742 -0.42969,0.10742 l -1.55762,0 q -0.4834,0 -0.83252,-0.34912 l -5.37109,-5.397948 q -0.59082,-0.590821 -0.80567,-0.590821 l 0,5.666509 q 0,0.67138 -0.67138,0.67138 l -0.93995,0 q -0.67138,0 -0.67138,-0.67138 l 0,-18.798833 q 0,-0.671387 0.67138,-0.671387 l 0.93995,0 q 0.67138,0 0.67138,0.671387 l 0,11.816406 q 0.21485,0 0.80567,-0.59082 l 4.83398,-4.833984 q 0.34912,-0.349121 0.83252,-0.349121 l 1.55762,0 q 0.26855,0 0.42969,0.107421 0.16113,0.107422 0.16113,0.268555 0,0.214844 -0.2417,0.456543 l -4.8877,4.887695 q -0.2417,0.2417 -0.51025,0.402832 -0.2417,0.161133 -0.75195,0.322266 0.51025,0.161133 0.75195,0.322266 0.26855,0.161132 0.51025,0.402832 l 5.42481,5.424802 z"
         id="path4152"
         inkscape:connector-curvature="0" />
      <path
         d="m 179.32931,80.523476 q 0.67139,0 0.67139,0.671386 l 0,1.772461 q 0,0.671387 -0.67139,0.671387 l -1.7456,0 q -0.67139,0 -0.67139,-0.671387 l 0,-1.772461 q 0,-0.671386 0.67139,-0.671386 l 1.7456,0 z m 4.29688,18.342285 q 0.67138,0 0.67138,0.671387 l 0,0.725102 q 0,0.67138 -0.67138,0.67138 l -9.5337,0 q -0.67138,0 -0.67138,-0.67138 l 0,-0.725102 q 0,-0.671387 0.67138,-0.671387 l 3.62549,0 0,-9.318848 -2.73925,0 q -0.67139,0 -0.67139,-0.671387 l 0,-0.698242 q 0,-0.671386 0.67139,-0.671386 l 4.35058,0 q 0.67139,0 0.67139,0.671386 l 0,10.688477 3.62549,0 z"
         id="path4154"
         inkscape:connector-curvature="0" />
      <path
         d="m 214.96652,82.134804 q 0.29541,0 0.4834,0.214844 0.21484,0.187988 0.21484,0.483398 l 0,17.429204 q 0,0.67138 -0.7251,0.67138 l -0.42968,0 q -0.56397,0 -0.93995,-0.21484 -0.37597,-0.2417 -0.64453,-0.751955 l -6.71386,-13.186035 0,13.45459 q 0,0.29541 -0.18799,0.51025 -0.18799,0.18799 -0.4834,0.18799 l -0.91309,0 q -0.29541,0 -0.51025,-0.18799 -0.18799,-0.21484 -0.18799,-0.51025 l 0,-17.4292 q 0,-0.671386 0.7251,-0.671386 l 0.42969,0 q 0.61767,0 0.96679,0.187988 0.37598,0.161133 0.61768,0.644531 l 6.71387,13.427735 0,-13.562012 q 0,-0.29541 0.18798,-0.483398 0.18799,-0.214844 0.4834,-0.214844 l 0.91309,0 z"
         id="path4156"
         inkscape:connector-curvature="0" />
      <path
         d="m 230.73068,99.510292 q 0.0806,0.161133 0.0806,0.322266 0,0.402832 -0.42968,0.563962 -1.87989,0.80567 -4.02832,0.80567 -2.81983,0 -4.67285,-1.691898 -1.85303,-1.71875 -1.85303,-5.290527 0,-2.175293 0.75195,-3.759766 0.75195,-1.584473 2.01416,-2.390137 1.26221,-0.832519 2.79297,-0.832519 1.39648,0 2.60498,0.725097 1.23535,0.698243 1.96045,2.067872 0.75195,1.369628 0.75195,3.249511 l 0,0.617676 q 0,0.671387 -0.67138,0.671387 l -7.89551,0 q 0.0806,2.363281 1.28906,3.464355 1.23535,1.074219 3.03467,1.074219 1.39648,0 3.14209,-0.617676 0.10742,-0.05371 0.29541,-0.05371 0.40283,0 0.56396,0.429688 l 0.26856,0.644531 z M 225.4133,89.278358 q -1.12793,0 -2.04102,0.859375 -0.91309,0.859375 -1.04736,2.363282 l 6.09619,0 q 0,-1.020508 -0.45654,-1.745606 -0.45655,-0.725097 -1.15479,-1.101074 -0.67139,-0.375977 -1.39648,-0.375977 z"
         id="path4158"
         inkscape:connector-curvature="0" />
      <path
         d="m 235.29611,88.284706 q 0,-0.59082 0.61767,-0.725098 2.14844,-0.322265 4.56543,-0.322265 2.12159,0 3.33008,0.429687 1.23535,0.429688 1.79932,1.369629 0.56396,0.939942 0.56396,2.55127 0,0.671386 -0.67138,0.671386 l -0.93995,0 q -0.67138,0 -0.67138,-0.671386 0,-1.262207 -0.77881,-1.772461 -0.77881,-0.53711 -2.63184,-0.53711 -1.28906,0 -2.90039,0.107422 l 0,10.87647 q 0,0.67138 -0.67138,0.67138 l -0.93995,0 q -0.67138,0 -0.67138,-0.67138 l 0,-11.977544 z"
         id="path4160"
         inkscape:connector-curvature="0" />
      <path
         d="m 261.64132,99.859413 q 0,0.375977 -0.34912,0.563967 -1.93359,0.77881 -4.00146,0.77881 -2.81983,0 -4.67285,-1.691898 -1.85303,-1.71875 -1.85303,-5.290527 0,-3.571778 1.85303,-5.263672 1.85302,-1.71875 4.67285,-1.71875 0.99365,0 2.06787,0.214844 l 0,-5.98877 q 0,-0.671387 0.67138,-0.671387 l 0.93995,0 q 0.67138,0 0.67138,0.671387 l 0,18.395996 z m -2.28271,-10.446777 q -1.04737,-0.187988 -1.79932,-0.187988 -2.01416,0 -3.24951,1.154785 -1.23535,1.127929 -1.23535,3.840332 0,2.578125 1.12793,3.73291 1.15478,1.154785 3.08838,1.154785 1.0205,0 2.06787,-0.241699 l 0,-9.453125 z"
         id="path4162"
         inkscape:connector-curvature="0" />
      <path
         d="m 292.60568,82.134804 q 0.67139,0 0.67139,0.671386 l 0,0.698243 q 0,0.671386 -0.67139,0.671386 l -8.62061,0 0,6.875 8.02979,0 q 0.67138,0 0.67138,0.671387 l 0,0.725098 q 0,0.644531 -0.67138,0.644531 l -8.02979,0 0,7.170415 q 0,0.67138 -0.67138,0.67138 l -0.93995,0 q -0.67138,0 -0.67138,-0.67138 l 0,-17.45606 q 0,-0.671386 0.67138,-0.671386 l 10.23194,0 z"
         id="path4164"
         inkscape:connector-curvature="0" />
      <path
         d="m 302.70333,87.183632 q 1.53077,0 2.73926,0.778808 1.2085,0.751954 1.90674,2.336426 0.69824,1.584473 0.69824,3.920899 0,2.336425 -0.69824,3.920898 -0.69824,1.584473 -1.90674,2.363277 -1.20849,0.75196 -2.73926,0.75196 -1.53076,0 -2.79296,-0.77881 -1.23536,-0.77881 -1.98731,-2.363282 -0.75195,-1.584473 -0.75195,-3.894043 0,-2.309571 0.75195,-3.894043 0.75195,-1.584473 1.98731,-2.363282 1.2622,-0.778808 2.79296,-0.778808 z m -0.0806,12.004394 q 1.42334,0 2.28271,-1.315918 0.85938,-1.315918 0.85938,-3.652343 0,-2.336426 -0.85938,-3.652344 -0.85937,-1.315918 -2.28271,-1.315918 -1.42334,0 -2.30957,1.315918 -0.85938,1.315918 -0.85938,3.652344 0,2.336425 0.85938,3.652343 0.88623,1.315918 2.30957,1.315918 z"
         id="path4166"
         inkscape:connector-curvature="0" />
      <path
         d="m 312.63986,88.284706 q 0,-0.59082 0.61767,-0.725098 2.14844,-0.322265 4.56543,-0.322265 3.00782,0 4.35059,1.262207 1.34277,1.235351 1.34277,4.162598 l 0,7.600102 q 0,0.67138 -0.67138,0.67138 l -0.93995,0 q -0.67138,0 -0.67138,-0.67138 l 0,-7.600102 q 0,-1.879883 -0.77881,-2.631836 -0.77881,-0.751954 -2.63184,-0.751954 -1.28906,0 -2.90039,0.107422 l 0,10.87647 q 0,0.67138 -0.67138,0.67138 l -0.93995,0 q -0.67138,0 -0.67138,-0.67138 l 0,-11.977544 z"
         id="path4168"
         inkscape:connector-curvature="0" />
      <path
         d="m 338.90451,99.805702 q 0.0806,0.161133 0.0806,0.322268 0,0.37597 -0.45654,0.53711 -1.47705,0.53711 -2.81982,0.53711 -2.14844,0 -3.51807,-1.369632 -1.36963,-1.369629 -1.36963,-4.377442 l 0,-5.908203 -2.04102,0 q -0.67138,0 -0.67138,-0.671387 l 0,-0.698242 q 0,-0.671386 0.67138,-0.671386 l 2.04102,0 0,-3.625489 q 0,-0.671386 0.67139,-0.671386 l 0.93994,0 q 0.67139,0 0.67139,0.671386 l 0,3.625489 4.40429,0 q 0.67139,0 0.67139,0.671386 l 0,0.698242 q 0,0.671387 -0.67139,0.671387 l -4.40429,0 0,5.908203 q 0,2.041016 0.67138,2.84668 0.67139,0.805664 1.9336,0.805664 0.99365,0 2.01416,-0.375977 0.10742,-0.05371 0.32226,-0.05371 0.37598,0 0.56397,0.429687 l 0.29541,0.698242 z"
         id="path4170"
         inkscape:connector-curvature="0" />
    </g>
    <g
       style="font-style:normal;font-weight:normal;font-size:27.5px;line-height:125%;font-family:'Mononoki Nerd Font';letter-spacing:0px;word-spacing:0px;fill:#ffffff;fill-opacity:1;stroke:none;stroke-width:1px;stroke-linecap:butt;stroke-linejoin:miter;stroke-opacity:1"
       id="text4140">
      <path
         d="m 73.45163,140.43802 q 0,0.41016 -0.410157,0.46142 -1.691894,0.20508 -2.751464,0.20508 -1.11084,0 -1.931153,-0.3247 -0.803222,-0.3418 -1.213379,-0.90577 -0.410156,-0.56396 -0.410156,-1.23046 0,-0.66651 0.410156,-1.23047 0.410157,-0.56397 1.230469,-0.90577 0.820313,-0.34179 1.965332,-0.34179 l 1.657715,0 0,-0.6836 q 0,-1.07666 -0.563965,-1.52099 -0.563965,-0.46143 -1.674805,-0.46143 -0.700683,0 -1.555175,0.1709 -0.05127,0.0171 -0.136719,0.0171 -0.324707,0 -0.375977,-0.32471 l -0.05127,-0.46142 0,-0.10254 q 0,-0.1709 0.06836,-0.25635 0.08545,-0.10254 0.256348,-0.13672 1.11084,-0.22217 2.11914,-0.22217 1.657715,0 2.512207,0.78614 0.854493,0.78613 0.854493,2.5122 l 0,4.95606 z m -3.110352,-2.95654 q -1.025391,0 -1.589355,0.34179 -0.546875,0.3418 -0.546875,0.83741 0,0.4956 0.563964,0.8374 0.563965,0.3247 1.623536,0.3247 0.478515,0 1.606445,-0.10253 l 0,-2.23877 -1.657715,0 z"
         style="font-size:17.5px"
         id="path4173"
         inkscape:connector-curvature="0" />
      <path
         d="m 76.71579,128.54349 q 0,-0.42725 0.427246,-0.42725 l 0.598144,0 q 0.427247,0 0.427247,0.42725 l 0,3.81103 q 0.683593,-0.13672 1.315917,-0.13672 1.794434,0 2.973633,1.09375 1.1792,1.07666 1.1792,3.34961 0,2.27295 -1.1792,3.3667 -1.179199,1.07666 -2.973633,1.07666 -1.315917,0 -2.546386,-0.4956 -0.222168,-0.11963 -0.222168,-0.35889 l 0,-11.70654 z m 1.452637,11.07422 q 0.666503,0.1538 1.315917,0.1538 1.230469,0 1.948243,-0.73486 0.734863,-0.73486 0.734863,-2.37549 0,-1.72607 -0.786133,-2.44384 -0.786133,-0.73487 -2.067871,-0.73487 -0.478516,0 -1.145019,0.11963 l 0,6.01563 z"
         style="font-size:17.5px"
         id="path4175"
         inkscape:connector-curvature="0" />
      <path
         d="m 93.327118,133.70462 q -0.102539,0.27344 -0.358887,0.27344 -0.119629,0 -0.187988,-0.0342 -1.07666,-0.39307 -2.067871,-0.39307 -1.230469,0 -1.965332,0.73487 -0.717774,0.73486 -0.717774,2.37548 0,1.64063 0.717774,2.37549 0.734863,0.73486 1.965332,0.73486 0.957031,0 2.067871,-0.39306 0.06836,-0.0342 0.187988,-0.0342 0.256348,0 0.358887,0.27344 l 0.170898,0.41015 q 0.05127,0.10254 0.05127,0.20508 0,0.25635 -0.273438,0.35889 -1.196289,0.51269 -2.563476,0.51269 -1.794434,0 -2.973633,-1.07666 -1.179199,-1.09375 -1.179199,-3.3667 0,-2.27295 1.179199,-3.34961 1.179199,-1.09375 2.973633,-1.09375 1.350097,0 2.563476,0.5127 0.273438,0.10254 0.273438,0.35889 0,0.10254 -0.05127,0.20507 l -0.170898,0.41016 z"
         style="font-size:17.5px"
         id="path4177"
         inkscape:connector-curvature="0" />
      <path
         d="m 103.32468,140.25003 q 0,0.23926 -0.22217,0.35889 -1.23047,0.4956 -2.54639,0.4956 -1.794432,0 -2.973631,-1.07666 -1.179199,-1.09375 -1.179199,-3.3667 0,-2.27295 1.179199,-3.34961 1.179199,-1.09375 2.973631,-1.09375 0.63233,0 1.31592,0.13672 l 0,-3.81103 q 0,-0.42725 0.42725,-0.42725 l 0.59814,0 q 0.42725,0 0.42725,0.42725 l 0,11.70654 z m -1.45264,-6.64795 q -0.6665,-0.11963 -1.14502,-0.11963 -1.281738,0 -2.067871,0.73487 -0.786133,0.71777 -0.786133,2.44384 0,1.64063 0.717774,2.37549 0.734863,0.73486 1.96533,0.73486 0.64942,0 1.31592,-0.1538 l 0,-6.01563 z"
         style="font-size:17.5px"
         id="path4179"
         inkscape:connector-curvature="0" />
      <path
         d="m 113.18552,140.02786 q 0.0513,0.10254 0.0513,0.20508 0,0.25635 -0.27344,0.35889 -1.19629,0.51269 -2.56348,0.51269 -1.79443,0 -2.97363,-1.07666 -1.1792,-1.09375 -1.1792,-3.3667 0,-1.38427 0.47852,-2.39257 0.47851,-1.00831 1.28173,-1.521 0.80323,-0.52979 1.77735,-0.52979 0.88867,0 1.65771,0.46143 0.78614,0.44434 1.24756,1.31592 0.47852,0.87158 0.47852,2.06787 l 0,0.39307 q 0,0.42724 -0.42725,0.42724 l -5.02441,0 q 0.0513,1.50391 0.82031,2.20459 0.78613,0.68359 1.93115,0.68359 0.88867,0 1.99951,-0.39306 0.0684,-0.0342 0.18799,-0.0342 0.25635,0 0.35889,0.27344 l 0.1709,0.41015 z m -3.38379,-6.51123 q -0.71778,0 -1.29883,0.54688 -0.58106,0.54687 -0.6665,1.5039 l 3.87939,0 q 0,-0.64941 -0.29053,-1.11084 -0.29052,-0.46142 -0.73486,-0.70068 -0.42725,-0.23926 -0.88867,-0.23926 z"
         style="font-size:17.5px"
         id="path4181"
         inkscape:connector-curvature="0" />
      <path
         d="m 122.94382,129.22708 q -0.11963,0.27344 -0.35889,0.27344 -0.13672,0 -0.20508,-0.0342 -0.64941,-0.23926 -1.28174,-0.23926 -0.80322,0 -1.23046,0.5127 -0.41016,0.51269 -0.41016,1.81152 l 0,0.8374 2.78564,0 q 0.42725,0 0.42725,0.42725 l 0,0.44433 q 0,0.42725 -0.42725,0.42725 l -2.80273,0 0,6.81885 q 0,0.42724 -0.42725,0.42724 l -0.59814,0 q -0.42725,0 -0.42725,-0.42724 l 0,-6.81885 -1.64062,0 q -0.42725,0 -0.42725,-0.42725 l 0,-0.44433 q 0,-0.42725 0.42725,-0.42725 l 1.64062,0 0,-0.8374 q 0,-1.91406 0.87158,-2.78564 0.87159,-0.87159 2.23877,-0.87159 0.8545,0 1.79444,0.3418 0.29052,0.10254 0.29052,0.3418 0,0.10254 -0.0513,0.20508 l -0.18799,0.44433 z"
         style="font-size:17.5px"
         id="path4183"
         inkscape:connector-curvature="0" />
      <path
         d="m 129.95065,139.89114 q 2.10205,0 3.22998,0.6836 1.12793,0.6665 1.12793,1.8457 -0.0171,1.24756 -1.16211,1.99951 -1.14502,0.75196 -3.1958,0.75196 -2.22168,0 -3.41797,-0.59815 -1.17919,-0.59814 -1.17919,-1.70898 0,-0.63233 0.37597,-1.21338 0.37598,-0.58106 0.99121,-0.90576 -0.39306,-0.22217 -0.58105,-0.54688 -0.1709,-0.32471 -0.1709,-0.78613 0,-0.52979 0.3418,-1.0083 0.35888,-0.49561 0.88867,-0.73487 -0.59815,-0.41015 -0.92285,-1.04248 -0.30762,-0.63232 -0.30762,-1.38427 0,-0.8545 0.42725,-1.53809 0.44433,-0.70068 1.23046,-1.09375 0.78614,-0.39307 1.77735,-0.39307 0.58105,0 1.21338,0.1709 l 2.58056,0 q 0.42725,0 0.42725,0.42725 l 0,0.27344 q 0,0.42724 -0.42725,0.42724 l -0.92285,0 q 0.56397,0.78613 0.56397,1.76026 0,0.87158 -0.44434,1.57226 -0.42725,0.6836 -1.21338,1.09375 -0.76904,0.39307 -1.77734,0.39307 -0.64942,0 -1.26465,-0.18799 -0.3418,0.15381 -0.52979,0.41016 -0.18798,0.25634 -0.18798,0.52978 0,0.44434 0.56396,0.63233 0.58106,0.17089 1.96533,0.17089 z m -0.54687,-6.37451 q -0.85449,0 -1.41846,0.5127 -0.56396,0.4956 -0.56396,1.24756 0,0.75195 0.56396,1.24755 0.58106,0.49561 1.41846,0.49561 0.8374,0 1.40137,-0.49561 0.58105,-0.4956 0.58105,-1.24755 0,-0.75196 -0.56396,-1.24756 -0.56397,-0.5127 -1.41846,-0.5127 z m 0.37597,10.33936 q 1.45264,0 2.25586,-0.41016 0.82032,-0.41015 0.82032,-1.02539 -0.0171,-0.56396 -0.80323,-0.88867 -0.76904,-0.32471 -2.27295,-0.32471 -1.24755,0 -1.96533,-0.11963 -0.52978,0.20508 -0.82031,0.56397 -0.29053,0.35888 -0.29053,0.78613 0.0171,0.68359 0.80323,1.04248 0.80322,0.37598 2.27294,0.37598 z"
         style="font-size:17.5px"
         id="path4185"
         inkscape:connector-curvature="0" />
      <path
         d="m 137.23093,132.30325 q 0.99121,-0.0854 1.8457,-0.0854 1.91406,0 2.76855,0.80323 0.8545,0.78613 0.8545,2.64892 l 0,4.83643 q 0,0.42724 -0.42725,0.42724 l -0.59814,0 q -0.42725,0 -0.42725,-0.42724 l 0,-4.83643 q 0,-1.19629 -0.49561,-1.6748 -0.4956,-0.47852 -1.6748,-0.47852 -0.88867,0 -1.8457,0.0855 l 0,6.9043 q 0,0.42724 -0.42725,0.42724 l -0.59814,0 q -0.42725,0 -0.42725,-0.42724 l 0,-11.97998 q 0,-0.42725 0.42725,-0.42725 l 0.59814,0.0171 q 0.42725,0 0.42725,0.42725 l 0,3.75976 z"
         style="font-size:17.5px"
         id="path4187"
         inkscape:connector-curvature="0" />
      <path
         d="m 149.38181,127.94534 q 0.42724,0 0.42724,0.42725 l 0,1.12793 q 0,0.42724 -0.42724,0.42724 l -1.11084,0 q -0.42725,0 -0.42725,-0.42724 l 0,-1.12793 q 0,-0.42725 0.42725,-0.42725 l 1.11084,0 z m 2.73437,11.67237 q 0.42725,0 0.42725,0.42724 l 0,0.46143 q 0,0.42724 -0.42725,0.42724 l -6.06689,0 q -0.42725,0 -0.42725,-0.42724 l 0,-0.46143 q 0,-0.42724 0.42725,-0.42724 l 2.30712,0 0,-5.93018 -1.74316,0 q -0.42725,0 -0.42725,-0.42725 l 0,-0.44433 q 0,-0.42725 0.42725,-0.42725 l 2.76856,0 q 0.42724,0 0.42724,0.42725 l 0,6.80176 2.30713,0 z"
         style="font-size:17.5px"
         id="path4189"
         inkscape:connector-curvature="0" />
      <path
         d="m 161.95993,127.94534 q 0.42725,0 0.42725,0.42725 l 0,1.12793 q 0,0.42724 -0.42725,0.42724 l -1.11084,0 q -0.42725,0 -0.42725,-0.42724 l 0,-1.12793 q 0,-0.42725 0.42725,-0.42725 l 1.11084,0 z m 0,4.44336 q 0.42725,0 0.42725,0.42725 l 0,6.06689 q 0,2.51221 -1.1792,3.64014 -1.16211,1.14502 -2.97364,1.14502 -1.35009,0 -2.56347,-0.5127 -0.27344,-0.10254 -0.27344,-0.35888 0,-0.10254 0.0513,-0.20508 l 0.1709,-0.41016 q 0.10254,-0.27343 0.35889,-0.27343 0.11962,0 0.18798,0.0342 1.07666,0.39306 2.06787,0.39306 1.24756,0 1.96534,-0.78613 0.71777,-0.78613 0.71777,-2.66602 l 0,-5.16113 -4.76807,0 q -0.42724,0 -0.42724,-0.42725 l 0,-0.47851 q 0,-0.42725 0.42724,-0.42725 l 5.81055,0 z"
         style="font-size:17.5px"
         id="path4191"
         inkscape:connector-curvature="0" />
      <path
         d="m 172.436,140.40384 q 0.15381,0.15381 0.15381,0.29053 0,0.10254 -0.10254,0.17089 -0.10253,0.0684 -0.27343,0.0684 l -0.99121,0 q -0.30762,0 -0.52979,-0.22216 l -3.41797,-3.43506 q -0.37597,-0.37598 -0.51269,-0.37598 l 0,3.60596 q 0,0.42724 -0.42725,0.42724 l -0.59814,0 q -0.42725,0 -0.42725,-0.42724 l 0,-11.96289 q 0,-0.42725 0.42725,-0.42725 l 0.59814,0 q 0.42725,0 0.42725,0.42725 l 0,7.51953 q 0.13672,0 0.51269,-0.37598 l 3.07617,-3.07617 q 0.22217,-0.22217 0.52979,-0.22217 l 0.99121,0 q 0.1709,0 0.27344,0.0684 0.10254,0.0684 0.10254,0.1709 0,0.13672 -0.15381,0.29053 l -3.11035,3.11035 q -0.15381,0.15381 -0.32471,0.25635 -0.15381,0.10254 -0.47852,0.20507 0.32471,0.10254 0.47852,0.20508 0.1709,0.10254 0.32471,0.25635 l 3.45214,3.45215 z"
         style="font-size:17.5px"
         id="path4193"
         inkscape:connector-curvature="0" />
      <path
         d="m 182.14304,140.40384 q 0.0342,0.0684 0.0342,0.18799 0,0.27343 -0.32471,0.34179 -0.70069,0.1709 -1.50391,0.1709 -1.45263,0 -2.13623,-0.64941 -0.6665,-0.66651 -0.6665,-2.08496 l 0,-8.95508 -1.91406,0 q -0.42725,0 -0.42725,-0.42725 l 0,-0.44433 q 0,-0.42725 0.42725,-0.42725 l 2.93945,0 q 0.42724,0 0.42724,0.42725 l 0,9.82666 q 0,0.76904 0.29053,1.09375 0.30762,0.30761 1.05957,0.3247 0.61524,0 1.11084,-0.11962 0.0513,-0.0171 0.13672,-0.0171 0.27344,0 0.41016,0.30761 l 0.13672,0.44434 z"
         style="font-size:17.5px"
         id="path4195"
         inkscape:connector-curvature="0" />
      <path
         d="m 190.17526,132.25198 q 1.19629,0 1.76026,0.61524 0.56396,0.61523 0.56396,2.05078 l 0,5.58838 q 0,0.42724 -0.42724,0.42724 l -0.59815,0 q -0.42725,0 -0.42725,-0.42724 l 0,-5.5542 q 0,-0.76904 -0.29052,-1.07666 -0.29053,-0.32471 -0.99121,-0.32471 -0.3418,0 -0.75196,0.0513 0.1709,0.5127 0.1709,1.3501 l 0,5.5542 q 0,0.42724 -0.42724,0.42724 l -0.59815,0 q -0.42725,0 -0.42725,-0.42724 l 0,-5.5542 q 0,-0.76904 -0.29052,-1.07666 -0.29053,-0.32471 -0.99121,-0.32471 -0.27344,0 -0.58106,0.0342 l 0,6.92139 q 0,0.42724 -0.42724,0.42724 l -0.59815,0 q -0.42724,0 -0.42724,-0.42724 l 0,-7.5708 q 0,-0.37598 0.39306,-0.46143 1.21338,-0.22217 1.96533,-0.22217 1.07666,0 1.62354,0.41016 0.8374,-0.41016 1.77734,-0.41016 z"
         style="font-size:17.5px"
         id="path4197"
         inkscape:connector-curvature="0" />
      <path
         d="m 194.84079,132.88431 q 0,-0.37598 0.39307,-0.46143 1.36718,-0.20508 2.90527,-0.20508 1.91406,0 2.76855,0.80323 0.8545,0.78613 0.8545,2.64892 l 0,4.83643 q 0,0.42724 -0.42725,0.42724 l -0.59814,0 q -0.42725,0 -0.42725,-0.42724 l 0,-4.83643 q 0,-1.19629 -0.49561,-1.6748 -0.4956,-0.47852 -1.6748,-0.47852 -0.82031,0 -1.8457,0.0684 l 0,6.92139 q 0,0.42724 -0.42725,0.42724 l -0.59814,0 q -0.42725,0 -0.42725,-0.42724 l 0,-7.62207 z"
         style="font-size:17.5px"
         id="path4199"
         inkscape:connector-curvature="0" />
      <path
         d="m 208.20505,132.18362 q 0.97412,0 1.74316,0.49561 0.76904,0.47852 1.21338,1.48682 0.44434,1.0083 0.44434,2.49511 0,1.48682 -0.44434,2.49512 -0.44434,1.0083 -1.21338,1.50391 -0.76904,0.47851 -1.74316,0.47851 -0.97412,0 -1.77735,-0.4956 -0.78613,-0.49561 -1.26464,-1.50391 -0.47852,-1.0083 -0.47852,-2.47803 0,-1.46972 0.47852,-2.47802 0.47851,-1.0083 1.26464,-1.50391 0.80323,-0.49561 1.77735,-0.49561 z m -0.0513,7.63916 q 0.90576,0 1.45263,-0.8374 0.54688,-0.8374 0.54688,-2.32422 0,-1.48681 -0.54688,-2.32422 -0.54687,-0.8374 -1.45263,-0.8374 -0.90576,0 -1.46973,0.8374 -0.54687,0.83741 -0.54687,2.32422 0,1.48682 0.54687,2.32422 0.56397,0.8374 1.46973,0.8374 z"
         style="font-size:17.5px"
         id="path4201"
         inkscape:connector-curvature="0" />
      <path
         d="m 214.52829,133.0723 q 0,-0.25635 0.22217,-0.35889 1.23047,-0.49561 2.54638,-0.49561 1.79444,0 2.97364,1.09375 1.1792,1.07666 1.1792,3.34961 0,2.27295 -1.1792,3.3667 -1.1792,1.07666 -2.97364,1.07666 -0.63232,0 -1.31591,-0.13672 l 0,3.81104 q 0,0.42725 -0.42725,0.42725 l -0.59814,0 q -0.42725,0 -0.42725,-0.42725 l 0,-11.70654 z m 1.45264,6.64795 q 0.64941,0.11962 1.14502,0.11962 1.28173,0 2.06787,-0.71777 0.78613,-0.73486 0.78613,-2.46094 0,-1.64062 -0.73486,-2.37548 -0.71778,-0.73487 -1.94825,-0.73487 -0.64941,0 -1.31591,0.15381 l 0,6.01563 z"
         style="font-size:17.5px"
         id="path4203"
         inkscape:connector-curvature="0" />
      <path
         d="m 231.29343,144.77884 q 0,0.42725 -0.42725,0.42725 l -0.59814,0 q -0.42725,0 -0.42725,-0.42725 l 0,-3.81104 q -0.68359,0.13672 -1.31592,0.13672 -1.79443,0 -2.97363,-1.07666 -1.1792,-1.09375 -1.1792,-3.3667 0,-2.27295 1.1792,-3.34961 1.1792,-1.09375 2.97363,-1.09375 1.31592,0 2.54639,0.49561 0.22217,0.10254 0.22217,0.35889 l 0,11.70654 z m -1.45264,-11.07422 q -0.6665,-0.15381 -1.31592,-0.15381 -1.23047,0 -1.96533,0.73487 -0.71777,0.73486 -0.71777,2.37548 0,1.72608 0.78613,2.46094 0.78613,0.71777 2.06787,0.71777 0.49561,0 1.14502,-0.11962 l 0,-6.01563 z"
         style="font-size:17.5px"
         id="path4205"
         inkscape:connector-curvature="0" />
      <path
         d="m 234.21579,132.88431 q 0,-0.37598 0.39307,-0.46143 1.36718,-0.20508 2.90527,-0.20508 1.3501,0 2.11914,0.27344 0.78613,0.27344 1.14502,0.87158 0.35889,0.59815 0.35889,1.62354 0,0.42724 -0.42725,0.42724 l -0.59814,0 q -0.42725,0 -0.42725,-0.42724 0,-0.80322 -0.49561,-1.12793 -0.4956,-0.3418 -1.6748,-0.3418 -0.82031,0 -1.8457,0.0684 l 0,6.92139 q 0,0.42724 -0.42725,0.42724 l -0.59814,0 q -0.42725,0 -0.42725,-0.42724 l 0,-7.62207 z"
         style="font-size:17.5px"
         id="path4207"
         inkscape:connector-curvature="0" />
      <path
         d="m 249.93845,133.36282 q -0.10254,0.37598 -0.5127,0.30762 -0.97412,-0.15381 -1.53809,-0.15381 -0.85449,0 -1.43554,0.29053 -0.58106,0.27344 -0.58106,0.78613 0,0.44434 0.46143,0.78614 0.46142,0.34179 1.28174,0.44433 1.52099,0.18799 2.25586,0.88867 0.75195,0.70069 0.75195,1.72608 0,1.19629 -0.93994,1.93115 -0.93994,0.73486 -2.64893,0.73486 -1.14502,0 -2.30713,-0.18799 -0.35888,-0.0513 -0.35888,-0.37597 0,-0.0855 0.0171,-0.13672 l 0.10254,-0.44434 q 0.0684,-0.39306 0.4956,-0.34179 0.99121,0.17089 2.05078,0.17089 1.02539,0 1.57227,-0.37597 0.56396,-0.37598 0.56396,-0.97412 0,-0.49561 -0.42724,-0.8545 -0.41016,-0.35888 -1.29883,-0.44433 -1.41846,-0.13672 -2.22168,-0.8374 -0.80322,-0.71778 -0.80322,-1.70899 0,-1.04248 0.87158,-1.70898 0.87158,-0.66651 2.42676,-0.66651 1.0083,0 2.0166,0.18799 0.34179,0.0513 0.34179,0.37598 0,0.0855 -0.0171,0.13672 l -0.11962,0.44433 z"
         style="font-size:17.5px"
         id="path4209"
         inkscape:connector-curvature="0" />
      <path
         d="m 260.77341,140.21585 q 0.0513,0.10254 0.0513,0.20508 0,0.23926 -0.29053,0.3418 -0.93994,0.34179 -1.79443,0.34179 -1.36719,0 -2.23877,-0.87158 -0.87159,-0.87158 -0.87159,-2.78564 l 0,-3.75977 -1.29882,0 q -0.42725,0 -0.42725,-0.42725 l 0,-0.44433 q 0,-0.42725 0.42725,-0.42725 l 1.29882,0 0,-2.30713 q 0,-0.42724 0.42725,-0.42724 l 0.59814,0 q 0.42725,0 0.42725,0.42724 l 0,2.30713 2.80274,0 q 0.42724,0 0.42724,0.42725 l 0,0.44433 q 0,0.42725 -0.42724,0.42725 l -2.80274,0 0,3.75977 q 0,1.29882 0.42725,1.81152 0.42724,0.51269 1.23047,0.51269 0.63232,0 1.28173,-0.23925 0.0684,-0.0342 0.20508,-0.0342 0.23926,0 0.35889,0.27343 l 0.18799,0.44434 z"
         style="font-size:17.5px"
         id="path4211"
         inkscape:connector-curvature="0" />
      <path
         d="m 270.66843,140.43802 q 0,0.37598 -0.39307,0.46142 -1.36719,0.20508 -2.90527,0.20508 -1.91407,0 -2.76856,-0.78613 -0.85449,-0.80322 -0.85449,-2.66602 l 0,-4.83642 q 0,-0.42725 0.42725,-0.42725 l 0.59814,0 q 0.42725,0 0.42725,0.42725 l 0,4.83642 q 0,1.19629 0.4956,1.67481 0.49561,0.47851 1.67481,0.47851 0.82031,0 1.8457,-0.0684 l 0,-6.92139 q 0,-0.42725 0.42725,-0.42725 l 0.59814,0 q 0.42725,0 0.42725,0.42725 l 0,7.62207 z"
         style="font-size:17.5px"
         id="path4213"
         inkscape:connector-curvature="0" />
      <path
         d="m 279.38425,132.76468 q 0.10254,-0.37598 0.46142,-0.37598 l 0.59815,0 q 0.18799,0 0.29052,0.0855 0.10254,0.0854 0.10254,0.25635 0,0.0854 -0.0171,0.13672 l -1.6748,6.71631 q -0.1709,0.71777 -0.75195,1.12793 -0.56397,0.39306 -1.33301,0.39306 -0.76904,0 -1.3501,-0.39306 -0.56396,-0.39307 -0.75195,-1.12793 l -1.67481,-6.71631 q -0.0171,-0.0513 -0.0171,-0.13672 0,-0.1709 0.10254,-0.25635 0.10254,-0.0855 0.29053,-0.0855 l 0.61523,0 q 0.35889,0 0.46143,0.37598 l 1.65771,6.57959 q 0.0513,0.22217 0.23926,0.3418 0.18799,0.11962 0.42725,0.11962 0.23926,0 0.42724,-0.11962 0.18799,-0.11963 0.23926,-0.3418 l 1.65772,-6.57959 z"
         style="font-size:17.5px"
         id="path4215"
         inkscape:connector-curvature="0" />
      <path
         d="m 290.95407,140.59183 q 0,0.42724 -0.46142,0.42724 l -0.27344,0 q -0.71778,0 -1.0083,-0.61523 l -2.30713,-4.61426 -2.30713,4.61426 q -0.29053,0.61523 -1.0083,0.61523 l -0.27344,0 q -0.42725,0 -0.46142,-0.42724 l -0.3418,-7.75879 q -0.0171,-0.18799 0.11963,-0.30762 0.13672,-0.13672 0.3247,-0.13672 l 0.58106,0 q 0.18799,0 0.29053,0.11963 0.11963,0.11963 0.13671,0.32471 l 0.30762,5.36621 1.89697,-3.79395 q 0.13672,-0.30761 0.49561,-0.30761 l 0.47852,0 q 0.35888,0 0.4956,0.30761 l 1.89697,3.79395 0.30762,-5.36621 q 0.0171,-0.20508 0.11963,-0.32471 0.11963,-0.11963 0.30762,-0.11963 l 0.58105,0 q 0.18799,0 0.30762,0.13672 0.13672,0.11963 0.13672,0.30762 l -0.3418,7.75879 z"
         style="font-size:17.5px"
         id="path4217"
         inkscape:connector-curvature="0" />
      <path
         d="m 298.54196,135.97757 q -0.18799,0.37598 -0.64941,0.56396 0.20508,0.0684 0.37597,0.22217 0.18799,0.15381 0.27344,0.32471 l 1.60645,3.33252 q 0.0513,0.11963 0.0513,0.22217 0,0.29052 -0.37598,0.29052 l -0.54688,0 q -0.35888,0 -0.51269,-0.30761 l -1.50391,-3.02491 q -0.15381,-0.29052 -0.25634,-0.39306 -0.0854,-0.11963 -0.25635,-0.11963 -0.1709,0 -0.27344,0.10254 -0.0854,0.10254 -0.23926,0.41015 l -1.52099,3.02491 q -0.15381,0.30761 -0.49561,0.30761 l -0.56396,0 q -0.37598,0 -0.37598,-0.27343 0,-0.11963 0.0684,-0.23926 l 1.60644,-3.33252 q 0.0855,-0.1709 0.25635,-0.32471 0.1709,-0.15381 0.37598,-0.22217 -0.47852,-0.20507 -0.63233,-0.56396 l -1.5039,-3.09326 q -0.0513,-0.10254 -0.0513,-0.20508 0,-0.13672 0.10254,-0.20508 0.10254,-0.0855 0.27344,-0.0855 l 0.56396,0 q 0.35889,0 0.49561,0.30762 l 1.40136,2.78564 q 0.15381,0.30762 0.23926,0.41016 0.0855,0.10254 0.25635,0.10254 0.18799,0 0.27344,-0.10254 0.10253,-0.10254 0.25634,-0.41016 l 1.38428,-2.78564 q 0.13672,-0.30762 0.5127,-0.30762 l 0.56396,0 q 0.35889,0 0.35889,0.27344 0,0.0855 -0.0513,0.22217 l -1.48682,3.09326 z"
         style="font-size:17.5px"
         id="path4219"
         inkscape:connector-curvature="0" />
      <path
         d="m 309.99216,132.3887 q 0.1709,0 0.27343,0.10254 0.10254,0.0855 0.10254,0.23926 0,0.0854 -0.0171,0.13672 l -2.11914,8.4082 q -0.52978,2.08496 -1.40136,3.00781 -0.87159,0.92286 -2.3584,0.92286 -0.92285,0 -2.08496,-0.41016 -0.29053,-0.10254 -0.29053,-0.37598 0,-0.0342 0.0342,-0.1709 l 0.15381,-0.42724 q 0.10254,-0.29053 0.35888,-0.29053 0.11963,0 0.18799,0.0342 0.37598,0.13672 0.8374,0.20508 0.47852,0.0854 0.80323,0.0854 0.88867,0 1.43554,-0.64942 0.54688,-0.64941 0.90577,-2.10205 l -0.22217,0 q -0.8374,0 -1.38428,-0.39306 -0.52978,-0.39307 -0.71777,-1.14502 l -1.67481,-6.69922 q -0.0171,-0.0513 -0.0171,-0.13672 0,-0.3418 0.39307,-0.3418 l 0.61523,0 q 0.39307,0 0.46143,0.35889 l 1.65771,6.59668 q 0.0513,0.23926 0.22217,0.37598 0.1709,0.13671 0.44434,0.13671 l 0.52978,0 1.77735,-7.10937 q 0.10254,-0.35889 0.47851,-0.35889 l 0.61524,0 z"
         style="font-size:17.5px"
         id="path4221"
         inkscape:connector-curvature="0" />
      <path
         d="m 319.45993,139.61771 q 0.42725,0 0.42725,0.42724 l 0,0.46143 q 0,0.42724 -0.42725,0.42724 l -6.06689,0 q -0.41016,0 -0.41016,-0.42724 l 0,-0.76904 q 0,-0.61524 0.44434,-1.05958 l 4.99023,-4.99023 -4.66553,0 q -0.42724,0 -0.42724,-0.42725 l 0,-0.44433 q 0,-0.42725 0.42724,-0.42725 l 5.70801,0 q 0.41016,0 0.41016,0.42725 l 0,0.75195 q 0,0.61524 -0.44434,1.05957 l -4.99023,4.99024 5.02441,0 z"
         style="font-size:17.5px"
         id="path4223"
         inkscape:connector-curvature="0" />
      <path
         d="m 74.955536,162.33011 q 0.01709,0.0513 0.01709,0.13672 0,0.15381 -0.102539,0.25635 -0.102539,0.0854 -0.273438,0.0854 l -0.615234,0 q -0.375977,0 -0.478516,-0.37597 l -0.837402,-3.38379 -4.648438,0 -0.854492,3.38379 q -0.102539,0.37597 -0.478515,0.37597 l -0.598145,0 q -0.187988,0 -0.290527,-0.0854 -0.102539,-0.10254 -0.102539,-0.25635 0,-0.0854 0.01709,-0.13672 l 2.529297,-10.13428 q 0.187989,-0.73486 0.751953,-1.12793 0.581055,-0.39306 1.350098,-0.39306 0.769043,0 1.333008,0.41015 0.581055,0.39307 0.751953,1.11084 l 2.529297,10.13428 z m -2.614746,-4.58008 -1.333008,-5.31494 q -0.05127,-0.22217 -0.239258,-0.3418 -0.187988,-0.11963 -0.427246,-0.11963 -0.239258,0 -0.427246,0.11963 -0.187988,0.11963 -0.239258,0.3418 l -1.333008,5.31494 3.999024,0 z"
         style="font-size:17.5px"
         id="path4225"
         inkscape:connector-curvature="0" />
      <path
         d="m 76.356903,152.14456 q -0.427246,0 -0.427246,-0.42724 l 0,-0.44434 q 0,-0.42725 0.427246,-0.42725 l 3.076172,0 q 1.315918,0 2.1875,0.44434 0.888672,0.44434 1.298828,1.14502 0.427246,0.70068 0.427246,1.46973 0,0.8374 -0.461426,1.53808 -0.444336,0.70069 -1.09375,1.04248 1.025391,0.37598 1.623536,1.19629 0.615234,0.80322 0.615234,1.77734 0,0.87159 -0.512695,1.64063 -0.495606,0.76904 -1.469727,1.24756 -0.957031,0.46142 -2.272949,0.46142 l -2.341309,0 q -0.427246,0 -0.427246,-0.42724 l 0,-10.23682 -0.649414,0 z m 3.076172,3.77686 q 1.230469,0 1.931152,-0.52979 0.700684,-0.52978 0.700684,-1.31592 0,-0.47851 -0.290527,-0.92285 -0.273438,-0.44433 -0.871582,-0.71777 -0.581055,-0.29053 -1.469727,-0.29053 l -0.974121,0 0,3.77686 0.974121,0 z m 0.341797,5.57129 q 0.939941,0 1.606445,-0.29053 0.683594,-0.30762 1.008301,-0.78613 0.341797,-0.49561 0.341797,-1.04248 0,-0.54688 -0.341797,-1.02539 -0.324707,-0.49561 -1.008301,-0.80323 -0.666504,-0.30761 -1.606445,-0.30761 l -1.315918,0 0,4.25537 1.315918,0 z"
         style="font-size:17.5px"
         id="path4227"
         inkscape:connector-curvature="0" />
      <path
         d="m 93.498016,161.90286 q 0.05127,0.10254 0.05127,0.20508 0,0.25635 -0.273438,0.35889 -1.196289,0.51269 -2.358398,0.51269 -1.12793,0 -2.119141,-0.51269 -0.974121,-0.5127 -1.606445,-1.72608 -0.632324,-1.23047 -0.632324,-3.22998 l 0,-1.36718 q 0,-1.99952 0.632324,-3.2129 0.632324,-1.23046 1.606445,-1.74316 0.991211,-0.51269 2.119141,-0.51269 1.145019,0 2.358398,0.51269 0.273438,0.10254 0.273438,0.35889 0,0.10254 -0.05127,0.20508 l -0.170898,0.41015 q -0.102539,0.27344 -0.358887,0.27344 -0.119629,0 -0.187988,-0.0342 -1.07666,-0.39307 -1.896973,-0.39307 -1.213379,0 -2.033691,0.92285 -0.820313,0.92286 -0.820313,3.2129 l 0,1.36718 q 0,2.29004 0.820313,3.21289 0.820312,0.92285 2.033691,0.92285 0.820313,0 1.896973,-0.39306 0.06836,-0.0342 0.187988,-0.0342 0.256348,0 0.358887,0.27344 l 0.170898,0.41015 z"
         style="font-size:17.5px"
         id="path4229"
         inkscape:connector-curvature="0" />
      <path
         d="m 97.411591,150.84573 q 2.238769,0 3.605959,0.49561 1.38427,0.4956 2.06787,1.72607 0.70068,1.23047 0.70068,3.41797 l 0,0.6836 q 0,1.99951 -0.54687,3.22998 -0.52979,1.23047 -1.77735,1.82861 -1.24756,0.58105 -3.383786,0.58105 l -0.957031,0 q -0.427246,0 -0.427246,-0.42724 l 0,-10.23682 -0.649414,0 q -0.427246,0 -0.427246,-0.42724 l 0,-0.44434 q 0,-0.42725 0.427246,-0.42725 l 1.367188,0 z m 4.921879,5.63965 q 0,-2.1875 -0.97413,-3.24707 -0.97412,-1.07666 -3.212886,-1.07666 l 0,9.33106 q 1.503906,0 2.409666,-0.42725 0.92285,-0.44434 1.3501,-1.38428 0.42725,-0.93994 0.42725,-2.5122 l 0,-0.6836 z"
         style="font-size:17.5px"
         id="path4231"
         inkscape:connector-curvature="0" />
      <path
         d="m 113.18552,161.49271 q 0.42724,0 0.42724,0.42724 l 0,0.46143 q 0,0.42724 -0.42724,0.42724 l -6.51123,0 q -0.42725,0 -0.42725,-0.42724 l 0,-11.1084 q 0,-0.42725 0.42725,-0.42725 l 6.13525,0 q 0.42725,0 0.42725,0.42725 l 0,0.44434 q 0,0.42724 -0.42725,0.42724 l -5.10986,0 0,3.77686 4.75097,0 q 0.42725,0 0.42725,0.42724 l 0,0.46143 q 0,0.42725 -0.42725,0.42725 l -4.75097,0 0,4.25537 5.48584,0 z"
         style="font-size:17.5px"
         id="path4233"
         inkscape:connector-curvature="0" />
      <path
         d="m 123.02927,150.84573 q 0.42724,0 0.42724,0.42725 l 0,0.44434 q 0,0.42724 -0.42724,0.42724 l -5.48584,0 0,4.375 5.10986,0 q 0.42725,0 0.42725,0.42725 l 0,0.46142 q 0,0.41016 -0.42725,0.41016 l -5.10986,0 0,4.56299 q 0,0.42724 -0.42725,0.42724 l -0.59814,0 q -0.42725,0 -0.42725,-0.42724 l 0,-11.1084 q 0,-0.42725 0.42725,-0.42725 l 6.51123,0 z"
         style="font-size:17.5px"
         id="path4235"
         inkscape:connector-curvature="0" />
      <path
         d="m 132.59958,155.98978 q 0.42724,0 0.42724,0.42724 l 0,5.52002 q 0,0.35889 -0.3247,0.5127 -1.23047,0.52978 -2.40967,0.52978 -1.12793,0 -2.11914,-0.51269 -0.97412,-0.5127 -1.60645,-1.72608 -0.63232,-1.23047 -0.63232,-3.22998 l 0,-1.36718 q 0,-1.99952 0.63232,-3.2129 0.63233,-1.23046 1.60645,-1.74316 0.99121,-0.51269 2.11914,-0.51269 1.14502,0 2.3584,0.51269 0.27344,0.10254 0.27344,0.35889 0,0.10254 -0.0513,0.20508 l -0.1709,0.41015 q -0.10254,0.27344 -0.35889,0.27344 -0.11963,0 -0.18799,-0.0342 -1.07666,-0.39307 -1.89697,-0.39307 -1.21338,0 -2.03369,0.92285 -0.82031,0.92286 -0.82031,3.2129 l 0,1.36718 q 0,2.29004 0.82031,3.21289 0.82031,0.92285 2.03369,0.92285 0.58105,0 1.31592,-0.20507 l 0,-4.13575 -1.23047,0 q -0.42725,0 -0.42725,-0.42724 l 0,-0.44434 q 0,-0.44433 0.42725,-0.44433 l 2.25586,0 z"
         style="font-size:17.5px"
         id="path4237"
         inkscape:connector-curvature="0" />
      <path
         d="m 142.56296,150.84573 q 0.42724,0 0.42724,0.42725 l 0,11.1084 q 0,0.42724 -0.42724,0.42724 l -0.59815,0 q -0.42724,0 -0.42724,-0.42724 l 0,-5.26367 -4.59717,0 0,5.26367 q 0,0.42724 -0.42725,0.42724 l -0.59814,0 q -0.42725,0 -0.42725,-0.42724 l 0,-11.1084 q 0,-0.42725 0.42725,-0.42725 l 0.59814,0 q 0.42725,0 0.42725,0.42725 l 0,4.52881 4.59717,0 0,-4.52881 q 0,-0.42725 0.42724,-0.42725 l 0.59815,0 z"
         style="font-size:17.5px"
         id="path4239"
         inkscape:connector-curvature="0" />
      <path
         d="m 151.94528,150.84573 q 0.42725,0 0.42725,0.42725 l 0,0.44434 q 0,0.42724 -0.42725,0.42724 l -2.13623,0 0,9.34815 2.30713,0 q 0.42725,0 0.42725,0.42724 l 0,0.46143 q 0,0.42724 -0.42725,0.42724 l -6.06689,0 q -0.42725,0 -0.42725,-0.42724 l 0,-0.46143 q 0,-0.42724 0.42725,-0.42724 l 2.30712,0 0,-9.34815 -2.13623,0 q -0.42724,0 -0.42724,-0.42724 l 0,-0.44434 q 0,-0.42725 0.42724,-0.42725 l 5.7251,0 z"
         style="font-size:17.5px"
         id="path4241"
         inkscape:connector-curvature="0" />
      <path
         d="m 161.95993,150.84573 q 0.42725,0 0.42725,0.42725 l 0,6.92139 q 0,2.49511 -1.21338,3.64013 -1.19629,1.14502 -3.00781,1.14502 -1.28174,0 -2.49512,-0.51269 -0.27344,-0.10254 -0.27344,-0.35889 0,-0.10254 0.0513,-0.20508 l 0.1709,-0.41015 q 0.10254,-0.27344 0.35889,-0.27344 0.11962,0 0.18798,0.0342 1.07666,0.39306 1.89698,0.39306 1.1792,0 2.0166,-0.80322 0.8374,-0.82031 0.8374,-2.64892 l 0,-6.01563 -3.74268,0 q -0.42724,0 -0.42724,-0.42724 l 0,-0.47852 q 0,-0.42725 0.42724,-0.42725 l 4.78516,0 z"
         style="font-size:17.5px"
         id="path4243"
         inkscape:connector-curvature="0" />
      <path
         d="m 171.4277,162.80862 q -0.34179,0 -0.51269,-0.27343 l -3.79395,-5.24659 -0.35888,0 0,5.09278 q 0,0.42724 -0.42725,0.42724 l -0.59814,0 q -0.42725,0 -0.42725,-0.42724 l 0,-11.1084 q 0,-0.42725 0.42725,-0.42725 l 0.59814,0 q 0.42725,0 0.42725,0.42725 l 0,4.7168 0.37597,0 3.50342,-4.8877 q 0.18799,-0.25635 0.5127,-0.25635 l 0.90576,0 q 0.1709,0 0.27344,0.0684 0.10253,0.0684 0.10253,0.1709 0,0.0855 -0.11962,0.27344 l -3.96485,5.29785 4.22119,5.62256 q 0.11963,0.1709 0.11963,0.27344 0,0.11963 -0.10254,0.18798 -0.10254,0.0684 -0.27343,0.0684 l -0.88868,0 z"
         style="font-size:17.5px"
         id="path4245"
         inkscape:connector-curvature="0" />
      <path
         d="m 182.74118,161.49271 q 0.42725,0 0.42725,0.42724 l 0,0.46143 q 0,0.42724 -0.42725,0.42724 l -7.16064,0 q -0.42725,0 -0.42725,-0.42724 l 0,-11.1084 q 0,-0.42725 0.42725,-0.42725 l 0.59814,0 q 0.42725,0 0.42725,0.42725 l 0,10.21973 6.13525,0 z"
         style="font-size:17.5px"
         id="path4247"
         inkscape:connector-curvature="0" />
      <path
         d="m 192.85837,162.36429 q 0,0.18799 -0.13672,0.32471 -0.11963,0.11962 -0.30762,0.11962 l -0.58105,0 q -0.18799,0 -0.30762,-0.11962 -0.10254,-0.11963 -0.11963,-0.32471 l -0.30762,-8.78418 -1.89697,3.79394 q -0.13672,0.30762 -0.4956,0.30762 l -0.47852,0 q -0.35889,0 -0.49561,-0.30762 l -1.89697,-3.79394 -0.30762,8.78418 q -0.0171,0.20508 -0.13671,0.32471 -0.10254,0.11962 -0.29053,0.11962 l -0.58106,0 q -0.18798,0 -0.3247,-0.11962 -0.11963,-0.13672 -0.11963,-0.32471 l 0.3418,-11.17676 q 0,-0.42725 0.46142,-0.42725 l 0.27344,0 q 0.71777,0 1.0083,0.61524 l 2.30713,4.61426 2.30713,-4.61426 q 0.29052,-0.61524 1.0083,-0.61524 l 0.27344,0 q 0.46142,0 0.46142,0.42725 l 0.3418,11.17676 z"
         style="font-size:17.5px"
         id="path4249"
         inkscape:connector-curvature="0" />
      <path
         d="m 201.59128,150.84573 q 0.18799,0 0.30762,0.13672 0.13671,0.11963 0.13671,0.30762 l 0,11.09131 q 0,0.42724 -0.46142,0.42724 l -0.27344,0 q -0.35889,0 -0.59814,-0.13671 -0.23926,-0.15381 -0.41016,-0.47852 l -4.27246,-8.39111 0,8.56201 q 0,0.18799 -0.11963,0.32471 -0.11963,0.11962 -0.30762,0.11962 l -0.58105,0 q -0.18799,0 -0.32471,-0.11962 -0.11963,-0.13672 -0.11963,-0.32471 l 0,-11.09131 q 0,-0.42725 0.46143,-0.42725 l 0.27344,0 q 0.39306,0 0.61523,0.11963 0.23926,0.10254 0.39307,0.41016 l 4.27246,8.54492 0,-8.63037 q 0,-0.18799 0.11963,-0.30762 0.11963,-0.13672 0.30761,-0.13672 l 0.58106,0 z"
         style="font-size:17.5px"
         id="path4251"
         inkscape:connector-curvature="0" />
      <path
         d="m 208.15378,150.67484 q 1.55517,0 2.49512,1.12792 0.95703,1.12793 0.95703,3.19581 l 0,3.65722 q 0,2.06787 -0.95703,3.1958 -0.93995,1.12793 -2.49512,1.12793 -1.55518,0 -2.51221,-1.11084 -0.95703,-1.12793 -0.95703,-3.21289 l 0,-3.65722 q 0,-2.08497 0.95703,-3.19581 0.95703,-1.12792 2.51221,-1.12792 z m 0,11.00585 q 0.85449,0 1.41846,-0.80322 0.58105,-0.82031 0.58105,-2.22168 l 0,-3.65722 q 0,-1.40137 -0.58105,-2.20459 -0.56397,-0.82032 -1.41846,-0.82032 -0.87158,0 -1.45264,0.82032 -0.56396,0.82031 -0.56396,2.20459 l 0,3.65722 q 0,1.38428 0.56396,2.20459 0.58106,0.82031 1.45264,0.82031 z"
         style="font-size:17.5px"
         id="path4253"
         inkscape:connector-curvature="0" />
      <path
         d="m 217.26266,150.84573 q 1.48682,0 2.5293,0.5127 1.05957,0.51269 1.58936,1.36719 0.52978,0.85449 0.52978,1.87988 0,1.04248 -0.52978,1.89697 -0.52979,0.85449 -1.58936,1.36719 -1.04248,0.4956 -2.5293,0.4956 l -1.28173,0 0,4.01612 q 0,0.42724 -0.42725,0.42724 l -0.59814,0 q -0.42725,0 -0.42725,-0.42724 l 0,-11.1084 q 0,-0.42725 0.42725,-0.42725 l 2.30712,0 z m 0,6.22071 q 1.55518,0 2.37549,-0.70069 0.82032,-0.71777 0.82032,-1.76025 0,-1.04248 -0.83741,-1.74316 -0.82031,-0.71778 -2.3584,-0.71778 l -1.28173,0 0,4.92188 1.28173,0 z"
         style="font-size:17.5px"
         id="path4255"
         inkscape:connector-curvature="0" />
      <path
         d="m 232.25046,165.67972 q 0.0513,0.10254 0.0513,0.20508 0,0.23925 -0.29053,0.34179 -0.93994,0.3418 -1.79443,0.3418 -1.36719,0 -2.23877,-0.87158 -0.87159,-0.87158 -0.87159,-2.78565 -1.26464,-0.25634 -1.99951,-1.35009 -0.73486,-1.09375 -0.73486,-2.90528 l 0,-3.65722 q 0,-2.08497 0.95703,-3.19581 0.95703,-1.12792 2.51221,-1.12792 1.55517,0 2.49512,1.12792 0.95703,1.12793 0.95703,3.19581 l 0,3.65722 q 0,1.79444 -0.73487,2.90528 -0.73486,1.09375 -1.98242,1.35009 0,1.29883 0.41016,1.81153 0.42724,0.51269 1.23047,0.51269 0.63232,0 1.28173,-0.23926 0.0684,-0.0342 0.20508,-0.0342 0.23926,0 0.35889,0.27344 l 0.18799,0.44434 z m -6.42578,-7.02393 q 0,1.38428 0.56396,2.20459 0.58106,0.82031 1.45264,0.82031 0.85449,0 1.41846,-0.80322 0.58105,-0.82031 0.58105,-2.22168 l 0,-3.65722 q 0,-1.40137 -0.58105,-2.20459 -0.56397,-0.82032 -1.41846,-0.82032 -0.87158,0 -1.45264,0.82032 -0.56396,0.82031 -0.56396,2.20459 l 0,3.65722 z"
         style="font-size:17.5px"
         id="path4257"
         inkscape:connector-curvature="0" />
      <path
         d="m 242.17966,162.29593 q 0.0684,0.11963 0.0684,0.23926 0,0.27343 -0.37598,0.27343 l -0.71777,0 q -0.3418,0 -0.49561,-0.30761 l -2.51221,-5.02442 -2.47802,0 0,4.90479 q 0,0.42724 -0.42725,0.42724 l -0.59814,0 q -0.42725,0 -0.42725,-0.42724 l 0,-11.1084 q 0,-0.42725 0.42725,-0.42725 l 2.70019,0 q 1.26465,0 2.15332,0.44434 0.90576,0.42725 1.3501,1.1792 0.46142,0.75195 0.46142,1.69189 0,0.93994 -0.46142,1.72608 -0.46143,0.78613 -1.28174,1.19629 l 2.61475,5.2124 z m -4.83643,-6.13525 q 1.21338,0 1.86279,-0.58106 0.64942,-0.59814 0.64942,-1.41846 0,-0.52978 -0.29053,-0.99121 -0.27344,-0.46142 -0.85449,-0.73486 -0.56397,-0.29053 -1.36719,-0.29053 l -1.6748,0 0,4.01612 1.6748,0 z"
         style="font-size:17.5px"
         id="path4259"
         inkscape:connector-curvature="0" />
      <path
         d="m 250.43405,152.12747 q -0.10254,0.27344 -0.3418,0.27344 -0.11962,0 -0.18798,-0.0342 -1.05957,-0.39307 -1.89698,-0.39307 -1.04248,0 -1.79443,0.5127 -0.73486,0.51269 -0.73486,1.36719 0,0.70068 0.52978,1.28173 0.54688,0.56397 1.58936,0.78614 1.86279,0.39306 2.81982,1.35009 0.97412,0.93995 0.97412,2.20459 0,1.04249 -0.63232,1.84571 -0.61524,0.78613 -1.65772,1.23047 -1.04248,0.42724 -2.22168,0.42724 -0.63232,0 -1.29882,-0.13672 -0.66651,-0.11962 -1.24756,-0.37597 -0.27344,-0.10254 -0.27344,-0.35889 0,-0.10254 0.0513,-0.20508 l 0.1709,-0.41015 q 0.10254,-0.27344 0.35888,-0.27344 0.11963,0 0.18799,0.0342 0.46143,0.18799 1.04248,0.29053 0.59815,0.0855 1.09375,0.0855 1.24756,0 2.10205,-0.54688 0.8545,-0.56396 0.8545,-1.521 0,-0.75195 -0.61524,-1.333 -0.61523,-0.59815 -1.8457,-0.8545 -1.76026,-0.37597 -2.61475,-1.31591 -0.8374,-0.93995 -0.8374,-2.15332 0,-1.02539 0.54688,-1.74317 0.56396,-0.73486 1.46972,-1.11084 0.92285,-0.37597 1.98242,-0.37597 0.58106,0 1.23047,0.11962 0.66651,0.11963 1.16211,0.3418 0.23926,0.11963 0.23926,0.29053 0,0.10254 -0.0513,0.23926 l -0.15381,0.46142 z"
         style="font-size:17.5px"
         id="path4261"
         inkscape:connector-curvature="0" />
      <path
         d="m 261.91843,151.71732 q 0,0.42724 -0.42725,0.42724 l -3.40088,0 0,10.23682 q 0,0.42724 -0.42724,0.42724 l -0.59815,0 q -0.42725,0 -0.42725,-0.42724 l 0,-10.23682 -3.40087,0 q -0.41016,0 -0.41016,-0.42724 l 0,-0.44434 q 0,-0.42725 0.42725,-0.42725 l 8.2373,0 q 0.42725,0 0.42725,0.42725 l 0,0.44434 z"
         style="font-size:17.5px"
         id="path4263"
         inkscape:connector-curvature="0" />
      <path
         d="m 269.21579,151.27298 q 0,-0.42725 0.42725,-0.42725 l 0.59814,0 q 0.42725,0 0.42725,0.42725 l 0,7.89551 q 0,3.81103 -3.45215,3.81103 -3.46924,0 -3.46924,-3.81103 l 0,-7.89551 q 0,-0.42725 0.42725,-0.42725 l 0.59814,0 q 0.42725,0 0.42725,0.42725 l 0,7.89551 q 0,1.40136 0.46142,1.96533 0.46143,0.54687 1.55518,0.54687 1.09375,0 1.53808,-0.54687 0.46143,-0.56397 0.46143,-1.96533 l 0,-7.89551 z"
         style="font-size:17.5px"
         id="path4265"
         inkscape:connector-curvature="0" />
      <path
         d="m 279.14499,161.45853 q -0.1709,0.71777 -0.75195,1.12793 -0.56397,0.39306 -1.33301,0.39306 -0.76904,0 -1.3501,-0.39306 -0.56396,-0.39307 -0.75195,-1.12793 l -2.5293,-10.13428 q -0.0171,-0.0513 -0.0171,-0.13672 0,-0.15381 0.10254,-0.23926 0.10254,-0.10254 0.29053,-0.10254 l 0.59814,0 q 0.41016,0 0.47852,0.37598 l 2.5122,9.99756 q 0.0513,0.22217 0.23926,0.3418 0.18799,0.11962 0.42725,0.11962 0.23926,0 0.42724,-0.11962 0.18799,-0.11963 0.23926,-0.3418 l 2.49512,-9.99756 q 0.10254,-0.37598 0.47851,-0.37598 l 0.61524,0 q 0.37598,0 0.37598,0.32471 0,0.10254 -0.0171,0.15381 l -2.5293,10.13428 z"
         style="font-size:17.5px"
         id="path4267"
         inkscape:connector-curvature="0" />
      <path
         d="m 290.95407,162.46683 q 0,0.42724 -0.46142,0.42724 l -0.27344,0 q -0.71778,0 -1.0083,-0.61523 l -2.30713,-4.61426 -2.30713,4.61426 q -0.29053,0.61523 -1.0083,0.61523 l -0.27344,0 q -0.46142,0 -0.46142,-0.42724 l -0.3418,-11.17676 q 0,-0.18799 0.11963,-0.30762 0.13672,-0.13672 0.3247,-0.13672 l 0.58106,0 q 0.18799,0 0.29053,0.11963 0.11963,0.11963 0.13671,0.32471 l 0.30762,8.78418 1.89697,-3.79395 q 0.13672,-0.30761 0.49561,-0.30761 l 0.47852,0 q 0.35888,0 0.4956,0.30761 l 1.89697,3.79395 0.30762,-8.78418 q 0.0171,-0.20508 0.11963,-0.32471 0.11963,-0.11963 0.30762,-0.11963 l 0.58105,0 q 0.18799,0 0.30762,0.13672 0.13672,0.11963 0.13672,0.30762 l -0.3418,11.17676 z"
         style="font-size:17.5px"
         id="path4269"
         inkscape:connector-curvature="0" />
      <path
         d="m 298.54196,156.14359 q -0.18799,0.37597 -0.64941,0.56396 0.20508,0.0684 0.37597,0.22217 0.18799,0.15381 0.27344,0.32471 l 2.42676,5.0415 q 0.0513,0.11963 0.0513,0.22217 0,0.29052 -0.35889,0.29052 l -0.52978,0 q -0.35889,0 -0.5127,-0.30761 l -2.3584,-4.73389 q -0.25634,-0.51269 -0.51269,-0.51269 -0.27344,0 -0.5127,0.51269 l -2.37549,4.73389 q -0.1538,0.30761 -0.4956,0.30761 l -0.52979,0 q -0.17089,0 -0.27343,-0.0684 -0.10254,-0.0854 -0.10254,-0.22216 0,-0.10254 0.0513,-0.22217 l 2.44384,-5.0415 q 0.0855,-0.1709 0.25635,-0.32471 0.1709,-0.15381 0.37598,-0.22217 -0.47852,-0.20508 -0.63233,-0.56396 l -2.32421,-4.80225 q -0.0513,-0.13672 -0.0513,-0.22217 0,-0.27344 0.37597,-0.27344 l 0.52979,0 q 0.35888,0 0.4956,0.30762 l 2.25586,4.49463 q 0.23926,0.49561 0.5127,0.49561 0.27344,0 0.51269,-0.49561 l 2.23877,-4.49463 q 0.13672,-0.30762 0.5127,-0.30762 l 0.52978,0 q 0.37598,0 0.37598,0.27344 0,0.10254 -0.0684,0.22217 l -2.30713,4.80225 z"
         style="font-size:17.5px"
         id="path4271"
         inkscape:connector-curvature="0" />
      <path
         d="m 310.7612,150.84573 q 0.37598,0 0.37598,0.27344 0,0.10254 -0.0684,0.22217 l -2.47803,4.97314 q -0.41016,0.8545 -1.28174,1.11084 l 0,4.95606 q 0,0.42724 -0.42724,0.42724 l -0.59815,0 q -0.42725,0 -0.42725,-0.42724 l 0,-4.95606 q -0.87158,-0.25634 -1.28173,-1.11084 l -2.47803,-4.97314 q -0.0684,-0.11963 -0.0684,-0.22217 0,-0.27344 0.37598,-0.27344 l 0.63232,0 q 0.35889,0 0.49561,0.30762 l 2.32421,4.64844 q 0.27344,0.51269 0.73487,0.51269 0.47851,0 0.71777,-0.51269 l 2.32422,-4.64844 q 0.13672,-0.30762 0.5127,-0.30762 l 0.61523,0 z"
         style="font-size:17.5px"
         id="path4273"
         inkscape:connector-curvature="0" />
      <path
         d="m 314.86276,159.10013 q -0.70068,0.70068 -0.78613,2.39258 l 5.7251,0 q 0.42724,0 0.42724,0.42724 l 0,0.46143 q 0,0.42724 -0.42724,0.42724 l -6.75049,0 q -0.42725,0 -0.42725,-0.42724 l 0,-0.5127 q 0,-1.11084 0.32471,-2.03369 0.3418,-0.92285 0.97412,-1.55517 l 4.08447,-4.08448 q 0.32471,-0.3247 0.5127,-0.85449 0.20508,-0.52978 0.23926,-1.19629 l -5.17823,0 q -0.42724,0 -0.42724,-0.42724 l 0,-0.44434 q 0,-0.42725 0.42724,-0.42725 l 6.22071,0 q 0.42724,0 0.42724,0.42725 l 0,0.5127 q 0,0.93994 -0.34179,1.77734 -0.32471,0.8374 -0.95703,1.46973 l -4.06739,4.06738 z"
         style="font-size:17.5px"
         id="path4275"
         inkscape:connector-curvature="0" />
      <path
         d="m 70.392548,175.93362 q 0.974121,0 1.743164,0.49561 0.769043,0.47852 1.213379,1.48682 0.444336,1.0083 0.444336,2.49511 0,1.48682 -0.444336,2.49512 -0.444336,1.0083 -1.213379,1.50391 -0.769043,0.47851 -1.743164,0.47851 -0.974121,0 -1.777344,-0.4956 -0.786133,-0.49561 -1.264649,-1.50391 -0.478515,-1.0083 -0.478515,-2.47803 0,-1.46972 0.478515,-2.47802 0.478516,-1.0083 1.264649,-1.50391 0.803223,-0.49561 1.777344,-0.49561 z m -0.05127,7.63916 q 0.905762,0 1.452637,-0.8374 0.546875,-0.8374 0.546875,-2.32422 0,-1.48681 -0.546875,-2.32422 -0.546875,-0.8374 -1.452637,-0.8374 -0.905762,0 -1.469726,0.8374 -0.546875,0.83741 -0.546875,2.32422 0,1.48682 0.546875,2.32422 0.563964,0.8374 1.469726,0.8374 z"
         style="font-size:17.5px"
         id="path4277"
         inkscape:connector-curvature="0" />
      <path
         d="m 80.185028,172.54984 q 1.555176,0 2.495117,1.12792 0.957032,1.12793 0.957032,3.19581 l 0,3.65722 q 0,2.06787 -0.957032,3.1958 -0.939941,1.12793 -2.495117,1.12793 -1.555176,0 -2.512207,-1.11084 -0.957031,-1.12793 -0.957031,-3.21289 l 0,-3.65722 q 0,-2.08497 0.957031,-3.19581 0.957031,-1.12792 2.512207,-1.12792 z m 0,11.00585 q 0.854492,0 1.418457,-0.80322 0.581055,-0.82031 0.581055,-2.22168 l 0,-3.65722 q 0,-1.40137 -0.581055,-2.20459 -0.563965,-0.82032 -1.418457,-0.82032 -0.871582,0 -1.452637,0.82032 -0.563964,0.82031 -0.563964,2.20459 l 0,3.65722 q 0,1.38428 0.563964,2.20459 0.581055,0.82031 1.452637,0.82031 z"
         style="font-size:17.5px"
         id="path4279"
         inkscape:connector-curvature="0" />
      <path
         d="m 90.028778,172.54984 q 1.213379,0 2.102051,0.75195 0.905762,0.73486 1.384277,2.13623 0.478516,1.38428 0.478516,3.26416 0,1.87988 -0.478516,3.28125 -0.478515,1.38428 -1.384277,2.13623 -0.888672,0.73486 -2.102051,0.73486 -1.213379,0 -2.119141,-0.73486 -0.905761,-0.75195 -1.384277,-2.13623 -0.478516,-1.40137 -0.478516,-3.28125 0,-1.87988 0.478516,-3.26416 0.478516,-1.40137 1.384277,-2.13623 0.905762,-0.75195 2.119141,-0.75195 z m 0,1.29882 q -1.162109,0 -1.845703,1.31592 -0.683594,1.29883 -0.683594,3.5376 0,0.70068 0.08545,1.46973 l 4.511719,-4.51172 q -0.324707,-0.87159 -0.854492,-1.33301 -0.529785,-0.47852 -1.213379,-0.47852 z m 0,9.68994 q 1.162109,0 1.828613,-1.29882 0.683594,-1.29883 0.683594,-3.5376 0,-0.71777 -0.08545,-1.48682 l -4.494629,4.49463 q 0.324707,0.88867 0.854492,1.36719 0.529785,0.46142 1.213379,0.46142 z"
         style="font-size:17.5px"
         id="path4281"
         inkscape:connector-curvature="0" />
      <path
         d="m 101.30807,178.54837 q 1.1792,0.64941 1.84571,1.40137 0.6665,0.73486 0.6665,1.8457 0,1.46973 -1.09375,2.27295 -1.09375,0.78613 -2.854002,0.78613 -1.05957,0 -1.965332,-0.35888 -0.905762,-0.37598 -1.452637,-1.04248 -0.529785,-0.6836 -0.529785,-1.55518 0,-1.82861 2.648926,-3.31543 -1.05957,-0.54687 -1.657715,-1.26465 -0.598144,-0.73486 -0.598144,-1.87988 0,-0.85449 0.461425,-1.50391 0.461426,-0.6665 1.264649,-1.02539 0.820312,-0.35888 1.828613,-0.35888 1.008302,0 1.811522,0.35888 0.82031,0.3418 1.28174,0.97412 0.46143,0.61524 0.46143,1.43555 0,1.82861 -2.11915,3.22998 z m -3.537593,-3.09326 q 0,1.36719 2.443843,2.51221 0.83741,-0.56397 1.28174,-1.28174 0.46143,-0.71778 0.46143,-1.28174 0,-0.64941 -0.59815,-1.09375 -0.59814,-0.46143 -1.486812,-0.46143 -0.905762,0 -1.503906,0.46143 -0.598145,0.44434 -0.598145,1.14502 z m 2.102051,8.08349 q 1.059572,0 1.777342,-0.44433 0.71778,-0.46143 0.71778,-1.33301 0,-0.85449 -0.71778,-1.46973 -0.71777,-0.63232 -1.96533,-1.17919 -1.11084,0.63232 -1.708985,1.28173 -0.598144,0.63233 -0.598144,1.36719 0,0.8374 0.700683,1.31592 0.700684,0.46142 1.794434,0.46142 z"
         style="font-size:17.5px"
         id="path4283"
         inkscape:connector-curvature="0" />
      <path
         d="m 119.85056,171.69534 q 0.42724,0 0.42724,0.42725 l 0,1.12793 q 0,0.42724 -0.42724,0.42724 l -1.11084,0 q -0.42725,0 -0.42725,-0.42724 l 0,-1.12793 q 0,-0.42725 0.42725,-0.42725 l 1.11084,0 z m 2.73437,11.67237 q 0.42725,0 0.42725,0.42724 l 0,0.46143 q 0,0.42724 -0.42725,0.42724 l -6.06689,0 q -0.42725,0 -0.42725,-0.42724 l 0,-0.46143 q 0,-0.42724 0.42725,-0.42724 l 2.30712,0 0,-5.93018 -1.74316,0 q -0.42725,0 -0.42725,-0.42725 l 0,-0.44433 q 0,-0.42725 0.42725,-0.42725 l 2.76856,0 q 0.42724,0 0.42724,0.42725 l 0,6.80176 2.30713,0 z"
         style="font-size:17.5px"
         id="path4285"
         inkscape:connector-curvature="0" />
      <path
         d="m 132.25778,172.72073 q 0.42725,0 0.42725,0.42725 l 0,0.44434 q 0,0.42724 -0.42725,0.42724 l -2.13623,0 0,9.34815 2.30713,0 q 0.42725,0 0.42725,0.42724 l 0,0.46143 q 0,0.42724 -0.42725,0.42724 l -6.06689,0 q -0.42725,0 -0.42725,-0.42724 l 0,-0.46143 q 0,-0.42724 0.42725,-0.42724 l 2.30712,0 0,-9.34815 -2.13623,0 q -0.42724,0 -0.42724,-0.42724 l 0,-0.44434 q 0,-0.42725 0.42724,-0.42725 l 5.7251,0 z"
         style="font-size:17.5px"
         id="path4287"
         inkscape:connector-curvature="0" />
      <path
         d="m 142.76804,184.15384 q 0.0342,0.0684 0.0342,0.18799 0,0.27343 -0.32471,0.34179 -0.70069,0.1709 -1.50391,0.1709 -1.45263,0 -2.13623,-0.64941 -0.6665,-0.66651 -0.6665,-2.08496 l 0,-8.95508 -1.91406,0 q -0.42725,0 -0.42725,-0.42725 l 0,-0.44433 q 0,-0.42725 0.42725,-0.42725 l 2.93945,0 q 0.42724,0 0.42724,0.42725 l 0,9.82666 q 0,0.76904 0.29053,1.09375 0.30762,0.30761 1.05957,0.3247 0.61524,0 1.11084,-0.11962 0.0513,-0.0171 0.13672,-0.0171 0.27344,0 0.41016,0.30761 l 0.13672,0.44434 z"
         style="font-size:17.5px"
         id="path4289"
         inkscape:connector-curvature="0" />
      <path
         d="m 153.20993,183.36771 q 0.42725,0 0.42725,0.42724 l 0,0.46143 q 0,0.42724 -0.42725,0.42724 l -7.16064,0 q -0.42725,0 -0.42725,-0.42724 l 0,-11.1084 q 0,-0.42725 0.42725,-0.42725 l 0.59814,0 q 0.42725,0 0.42725,0.42725 l 0,10.21973 6.13525,0 z"
         style="font-size:17.5px"
         id="path4291"
         inkscape:connector-curvature="0" />
      <path
         d="m 161.95993,183.36771 q 0.42725,0 0.42725,0.42724 l 0,0.46143 q 0,0.42724 -0.42725,0.42724 l -6.06689,0 q -0.42725,0 -0.42725,-0.42724 l 0,-0.46143 q 0,-0.42724 0.42725,-0.42724 l 2.854,0 0,-7.5708 -2.854,0 q -0.42725,0 -0.42725,-0.42725 l 0,-0.46143 q 0,-0.42724 0.42725,-0.42724 1.28173,0 1.99951,-0.30762 0.71777,-0.32471 1.05957,-1.11084 0.15381,-0.3418 0.4956,-0.3418 l 0.32471,0 q 0.42725,0 0.42725,0.42725 l 0,10.21973 1.76025,0 z"
         style="font-size:17.5px"
         id="path4293"
         inkscape:connector-curvature="0" />
      <path
         d="m 179.3403,177.69388 q 0,0.78613 -0.22217,1.28174 -0.22216,0.4956 -0.90576,0.82031 0.6836,0.30762 0.90576,0.82031 0.22217,0.49561 0.22217,1.26465 l 0,3.0249 q 0,0.82031 0.30762,1.16211 0.30762,0.35889 1.05957,0.35889 l 1.38428,0 q 0.42724,0 0.42724,0.42724 l 0,0.44434 q 0,0.42725 -0.42724,0.42725 l -1.38428,0 q -1.50391,0 -2.17041,-0.64942 -0.64942,-0.64941 -0.64942,-2.17041 l 0,-3.0249 q 0,-0.76904 -0.30761,-1.09375 -0.30762,-0.3418 -1.05957,-0.3418 l -1.36719,0 q -0.42725,0 -0.42725,-0.42724 l 0,-0.44434 q 0,-0.42725 0.42725,-0.42725 l 1.36719,0 q 0.75195,0 1.05957,-0.34179 0.30761,-0.3418 0.30761,-1.11084 l 0,-3.00781 q 0,-1.521 0.64942,-2.17041 0.6665,-0.64942 2.17041,-0.64942 l 1.38428,0 q 0.42724,0 0.42724,0.42725 l 0,0.44433 q 0,0.42725 -0.42724,0.42725 l -1.38428,0 q -0.75195,0 -1.05957,0.35889 -0.30762,0.35888 -0.30762,1.16211 l 0,3.00781 z"
         style="font-size:17.5px"
         id="path4295"
         inkscape:connector-curvature="0" />
      <path
         d="m 187.73141,174.68607 q 0,-0.80323 -0.30761,-1.16211 -0.30762,-0.35889 -1.05957,-0.35889 l -1.38428,0 q -0.42725,0 -0.42725,-0.42725 l 0,-0.44433 q 0,-0.42725 0.42725,-0.42725 l 1.38428,0 q 1.5039,0 2.15332,0.64942 0.6665,0.64941 0.6665,2.17041 l 0,3.00781 q 0,0.76904 0.30762,1.11084 0.30762,0.34179 1.05957,0.34179 l 1.36719,0 q 0.42724,0 0.42724,0.42725 l 0,0.44434 q 0,0.42724 -0.42724,0.42724 l -1.36719,0 q -0.75195,0 -1.05957,0.3418 -0.30762,0.32471 -0.30762,1.09375 l 0,3.0249 q 0,1.521 -0.64941,2.17041 -0.64942,0.64942 -2.17041,0.64942 l -1.38428,0 q -0.42725,0 -0.42725,-0.42725 l 0,-0.44434 q 0,-0.42724 0.42725,-0.42724 l 1.38428,0 q 0.75195,0 1.05957,-0.35889 0.30761,-0.3418 0.30761,-1.16211 l 0,-3.0249 q 0,-0.76904 0.22217,-1.26465 0.22217,-0.51269 0.90576,-0.82031 -0.68359,-0.32471 -0.90576,-0.82031 -0.22217,-0.49561 -0.22217,-1.28174 l 0,-3.00781 z"
         style="font-size:17.5px"
         id="path4297"
         inkscape:connector-curvature="0" />
      <path
         d="m 211.26413,186.42679 q 0.42725,0 0.42725,0.42724 l 0,0.44434 q 0,0.42725 -0.42725,0.42725 l -5.0415,0 q -0.42725,0 -0.42725,-0.42725 l 0,-15.00488 q 0,-0.42725 0.42725,-0.42725 l 5.0415,0 q 0.42725,0 0.42725,0.42725 l 0,0.44433 q 0,0.42725 -0.42725,0.42725 l -4.01611,0 0,13.26172 4.01611,0 z"
         style="font-size:17.5px"
         id="path4299"
         inkscape:connector-curvature="0" />
      <path
         d="m 219.91159,171.86624 q 0.42725,0 0.42725,0.42725 l 0,15.00488 q 0,0.42725 -0.42725,0.42725 l -5.0415,0 q -0.42725,0 -0.42725,-0.42725 l 0,-0.44434 q 0,-0.42724 0.42725,-0.42724 l 4.01611,0 0,-13.26172 -4.01611,0 q -0.42725,0 -0.42725,-0.42725 l 0,-0.44433 q 0,-0.42725 0.42725,-0.42725 l 5.0415,0 z"
         style="font-size:17.5px"
         id="path4301"
         inkscape:connector-curvature="0" />
      <path
         d="m 238.2319,183.64114 q 2.10205,0 3.22998,0.6836 1.12793,0.6665 1.12793,1.8457 -0.0171,1.24756 -1.16211,1.99951 -1.14502,0.75196 -3.1958,0.75196 -2.22168,0 -3.41797,-0.59815 -1.17919,-0.59814 -1.17919,-1.70898 0,-0.63233 0.37597,-1.21338 0.37598,-0.58106 0.99121,-0.90576 -0.39306,-0.22217 -0.58105,-0.54688 -0.1709,-0.32471 -0.1709,-0.78613 0,-0.52979 0.3418,-1.0083 0.35888,-0.49561 0.88867,-0.73487 -0.59815,-0.41015 -0.92285,-1.04248 -0.30762,-0.63232 -0.30762,-1.38427 0,-0.8545 0.42725,-1.53809 0.44433,-0.70068 1.23046,-1.09375 0.78614,-0.39307 1.77735,-0.39307 0.58105,0 1.21338,0.1709 l 2.58056,0 q 0.42725,0 0.42725,0.42725 l 0,0.27344 q 0,0.42724 -0.42725,0.42724 l -0.92285,0 q 0.56397,0.78613 0.56397,1.76026 0,0.87158 -0.44434,1.57226 -0.42725,0.6836 -1.21338,1.09375 -0.76904,0.39307 -1.77734,0.39307 -0.64942,0 -1.26465,-0.18799 -0.3418,0.15381 -0.52979,0.41016 -0.18798,0.25634 -0.18798,0.52978 0,0.44434 0.56396,0.63233 0.58106,0.17089 1.96533,0.17089 z m -0.54687,-6.37451 q -0.85449,0 -1.41846,0.5127 -0.56396,0.4956 -0.56396,1.24756 0,0.75195 0.56396,1.24755 0.58106,0.49561 1.41846,0.49561 0.8374,0 1.40137,-0.49561 0.58105,-0.4956 0.58105,-1.24755 0,-0.75196 -0.56396,-1.24756 -0.56397,-0.5127 -1.41846,-0.5127 z m 0.37597,10.33936 q 1.45264,0 2.25586,-0.41016 0.82032,-0.41015 0.82032,-1.02539 -0.0171,-0.56396 -0.80323,-0.88867 -0.76904,-0.32471 -2.27295,-0.32471 -1.24755,0 -1.96533,-0.11963 -0.52978,0.20508 -0.82031,0.56397 -0.29053,0.35888 -0.29053,0.78613 0.0171,0.68359 0.80323,1.04248 0.80322,0.37598 2.27294,0.37598 z"
         style="font-size:17.5px"
         id="path4303"
         inkscape:connector-curvature="0" />
      <path
         d="m 244.72604,183.65823 q 0.10254,-0.39306 0.5127,-0.3247 0.64941,0.11963 1.14502,0.11963 1.21338,0 2.10205,-0.88868 0.90576,-0.88867 1.11084,-3.04199 -1.46973,0.46143 -2.40967,0.46143 -1.0083,0 -1.82861,-0.42725 -0.82031,-0.44433 -1.29883,-1.24756 -0.47852,-0.82031 -0.47852,-1.89697 0,-1.19629 0.44434,-2.08496 0.46143,-0.88867 1.28174,-1.36719 0.82031,-0.47851 1.91406,-0.47851 1.87988,0 2.90527,1.43554 1.02539,1.41846 1.02539,4.30664 0,2.06787 -0.58105,3.55469 -0.58105,1.46973 -1.64062,2.23877 -1.05958,0.76904 -2.51221,0.76904 -0.59815,0 -1.45264,-0.13672 -0.20508,-0.0342 -0.29053,-0.17089 -0.0855,-0.13672 -0.0513,-0.3418 l 0.10254,-0.47852 z m 2.44385,-9.84375 q -0.92285,0 -1.52099,0.6836 -0.59815,0.6665 -0.59815,1.91406 0,1.02539 0.59815,1.64062 0.59814,0.59815 1.60644,0.59815 1.29883,0 2.42676,-0.58106 0,-2.20459 -0.71778,-3.22998 -0.70068,-1.02539 -1.79443,-1.02539 z"
         style="font-size:17.5px"
         id="path4305"
         inkscape:connector-curvature="0" />
      <path
         d="m 260.82468,188.52884 q 0,0.42725 -0.42725,0.42725 l -0.59814,0 q -0.42725,0 -0.42725,-0.42725 l 0,-3.81104 q -0.68359,0.13672 -1.31592,0.13672 -1.79443,0 -2.97363,-1.07666 -1.1792,-1.09375 -1.1792,-3.3667 0,-2.27295 1.1792,-3.34961 1.1792,-1.09375 2.97363,-1.09375 1.31592,0 2.54639,0.49561 0.22217,0.10254 0.22217,0.35889 l 0,11.70654 z m -1.45264,-11.07422 q -0.6665,-0.15381 -1.31592,-0.15381 -1.23047,0 -1.96533,0.73487 -0.71777,0.73486 -0.71777,2.37548 0,1.72608 0.78613,2.46094 0.78613,0.71777 2.06787,0.71777 0.49561,0 1.14502,-0.11962 l 0,-6.01563 z"
         style="font-size:17.5px"
         id="path4307"
         inkscape:connector-curvature="0" />
      <path
         d="m 270.68552,183.77786 q 0.0513,0.10254 0.0513,0.20508 0,0.25635 -0.27344,0.35889 -1.19629,0.51269 -2.3584,0.51269 -1.12793,0 -2.11914,-0.51269 -0.97412,-0.5127 -1.60645,-1.72608 -0.63232,-1.23047 -0.63232,-3.22998 l 0,-1.36718 q 0,-1.99952 0.63232,-3.2129 0.63233,-1.23046 1.60645,-1.74316 0.99121,-0.51269 2.11914,-0.51269 1.14502,0 2.3584,0.51269 0.27344,0.10254 0.27344,0.35889 0,0.10254 -0.0513,0.20508 l -0.1709,0.41015 q -0.10254,0.27344 -0.35889,0.27344 -0.11963,0 -0.18799,-0.0342 -1.07666,-0.39307 -1.89697,-0.39307 -1.21338,0 -2.03369,0.92285 -0.82031,0.92286 -0.82031,3.2129 l 0,1.36718 q 0,2.29004 0.82031,3.21289 0.82031,0.92285 2.03369,0.92285 0.82031,0 1.89697,-0.39306 0.0684,-0.0342 0.18799,-0.0342 0.25635,0 0.35889,0.27344 l 0.1709,0.41015 z"
         style="font-size:17.5px"
         id="path4309"
         inkscape:connector-curvature="0" />
      <path
         d="m 280.25583,177.86478 q 0.42724,0 0.42724,0.42724 l 0,5.52002 q 0,0.35889 -0.3247,0.5127 -1.23047,0.52978 -2.40967,0.52978 -1.12793,0 -2.11914,-0.51269 -0.97412,-0.5127 -1.60645,-1.72608 -0.63232,-1.23047 -0.63232,-3.22998 l 0,-1.36718 q 0,-1.99952 0.63232,-3.2129 0.63233,-1.23046 1.60645,-1.74316 0.99121,-0.51269 2.11914,-0.51269 1.14502,0 2.3584,0.51269 0.27344,0.10254 0.27344,0.35889 0,0.10254 -0.0513,0.20508 l -0.1709,0.41015 q -0.10254,0.27344 -0.35889,0.27344 -0.11963,0 -0.18799,-0.0342 -1.07666,-0.39307 -1.89697,-0.39307 -1.21338,0 -2.03369,0.92285 -0.82031,0.92286 -0.82031,3.2129 l 0,1.36718 q 0,2.29004 0.82031,3.21289 0.82031,0.92285 2.03369,0.92285 0.58105,0 1.31592,-0.20507 l 0,-4.13575 -1.23047,0 q -0.42725,0 -0.42725,-0.42724 l 0,-0.44434 q 0,-0.44433 0.42725,-0.44433 l 2.25586,0 z"
         style="font-size:17.5px"
         id="path4311"
         inkscape:connector-curvature="0" />
      <path
         d="m 291.31296,187.55472 q 0.0513,0.10254 0.0513,0.20508 0,0.23925 -0.29053,0.34179 -0.93994,0.3418 -1.79443,0.3418 -1.36719,0 -2.23877,-0.87158 -0.87159,-0.87158 -0.87159,-2.78565 -1.26464,-0.25634 -1.99951,-1.35009 -0.73486,-1.09375 -0.73486,-2.90528 l 0,-3.65722 q 0,-2.08497 0.95703,-3.19581 0.95703,-1.12792 2.51221,-1.12792 1.55517,0 2.49512,1.12792 0.95703,1.12793 0.95703,3.19581 l 0,3.65722 q 0,1.79444 -0.73487,2.90528 -0.73486,1.09375 -1.98242,1.35009 0,1.29883 0.41016,1.81153 0.42724,0.51269 1.23047,0.51269 0.63232,0 1.28173,-0.23926 0.0684,-0.0342 0.20508,-0.0342 0.23926,0 0.35889,0.27344 l 0.18799,0.44434 z m -6.42578,-7.02393 q 0,1.38428 0.56396,2.20459 0.58106,0.82031 1.45264,0.82031 0.85449,0 1.41846,-0.80322 0.58105,-0.82031 0.58105,-2.22168 l 0,-3.65722 q 0,-1.40137 -0.58105,-2.20459 -0.56397,-0.82032 -1.41846,-0.82032 -0.87158,0 -1.45264,0.82032 -0.56396,0.82031 -0.56396,2.20459 l 0,3.65722 z"
         style="font-size:17.5px"
         id="path4313"
         inkscape:connector-curvature="0" />
      <path
         d="m 310.47067,179.41995 q 0.39307,0 0.39307,0.44434 0,1.1792 -0.56397,1.81152 -0.54687,0.61524 -1.58935,0.61524 -0.56397,0 -1.23047,-0.35889 -0.6665,-0.37598 -1.3501,-1.05957 -1.04248,-1.04248 -1.65771,-1.04248 -0.39307,0 -0.61524,0.30762 -0.20508,0.29052 -0.20508,0.87158 0,0.37597 -0.46142,0.37597 l -0.47852,0 q -0.41015,0 -0.41015,-0.44433 0,-1.16211 0.56396,-1.79444 0.56397,-0.63232 1.60645,-0.63232 0.54687,0 1.21338,0.37598 0.68359,0.37597 1.36718,1.05957 1.04248,1.04248 1.65772,1.04248 0.39307,0 0.59814,-0.30762 0.20508,-0.30762 0.20508,-0.88867 0,-0.1709 0.11963,-0.27344 0.11963,-0.10254 0.3418,-0.10254 l 0.4956,0 z"
         style="font-size:17.5px"
         id="path4315"
         inkscape:connector-curvature="0" />
      <path
         d="m 312.40182,180.189 q 0,-0.44434 0.42725,-0.44434 l 7.229,0 q 0.42725,0 0.42725,0.42725 l 0,0.46142 q 0,0.42725 -0.42725,0.42725 l -7.229,0 q -0.42725,0 -0.42725,-0.42725 l 0,-0.44433 z"
         style="font-size:17.5px"
         id="path4317"
         inkscape:connector-curvature="0" />
      <path
         d="m 329.88474,179.74466 q 0.42724,0 0.42724,0.42725 l 0,0.46142 q 0,0.42725 -0.42724,0.42725 l -2.88819,0 0,3.1958 q 0,0.42724 -0.42724,0.42724 l -0.59815,0 q -0.42725,0 -0.42725,-0.42724 l 0,-3.1958 -2.88818,0 q -0.42724,0 -0.42724,-0.42725 l 0,-0.44433 q 0,-0.44434 0.42724,-0.44434 l 2.88818,0 0,-3.17871 q 0,-0.42725 0.42725,-0.42725 l 0.59815,0 q 0.42724,0 0.42724,0.42725 l 0,3.17871 2.88819,0 z"
         style="font-size:17.5px"
         id="path4319"
         inkscape:connector-curvature="0" />
      <path
         d="m 332.07224,178.22366 q 0,-0.44433 0.42724,-0.44433 l 7.22901,0 q 0.42724,0 0.42724,0.42724 l 0,0.46143 q 0,0.42725 -0.42724,0.42725 l -7.22901,0 q -0.42724,0 -0.42724,-0.42725 l 0,-0.44434 z m 0,3.93067 q 0,-0.44434 0.42724,-0.44434 l 7.22901,0 q 0.42724,0 0.42724,0.42725 l 0,0.46142 q 0,0.42725 -0.42724,0.42725 l -7.22901,0 q -0.42724,0 -0.42724,-0.42725 l 0,-0.44433 z"
         style="font-size:17.5px"
         id="path4321"
         inkscape:connector-curvature="0" />
      <path
         d="m 348.90573,179.24905 q 0.32471,0.23926 0.5127,0.54688 0.18798,0.30762 0.18798,0.61523 0,0.30762 -0.18798,0.61524 -0.18799,0.30761 -0.5127,0.54687 l -5.53711,4.16992 q -0.11963,0.10254 -0.29053,0.10254 -0.20507,0 -0.3247,-0.17089 l -0.32471,-0.39307 q -0.11963,-0.1709 -0.11963,-0.29053 0,-0.15381 0.18799,-0.30762 l 5.67383,-4.27246 -5.67383,-4.27246 q -0.18799,-0.15381 -0.18799,-0.30761 0,-0.11963 0.11963,-0.29053 l 0.32471,-0.39307 q 0.11963,-0.1709 0.30761,-0.1709 0.1709,0 0.29053,0.10254 l 5.5542,4.16992 z"
         style="font-size:17.5px"
         id="path4323"
         inkscape:connector-curvature="0" />
    </g>
  </g>
</svg>
