<svg xmlns="http://www.w3.org/2000/svg" width="409.946" height="111.179" viewBox="0 0 384.324 104.23"><g font-weight="400" font-family="Monofuritalic Nerd Font Mono" letter-spacing="0" word-spacing="0" fill="#fff"><g style="line-height:125%;text-decoration-line:underline" font-size="27.5" text-decoration="underline"><path d="M14.128.848q-.011.046-.034.23L12.03 16.465q-.103.733-.848.733-.882 0-.87-.837 0-.057.011-.148L11.756 5.58l-4.01 7.62q-.298.573-.78.573-.905 0-.893-.86 0-1.409.046-3.735l.046-3.747-4.515 11.23q-.218.55-.756.55-.344 0-.619-.241Q0 16.73 0 16.385q0-.183.069-.366L6.233.642q.252-.63.825-.63.906 0 .883.836 0 1.89-.023 4.251l-.08 4.24L12.455.55q.287-.55.78-.55.893 0 .893.848zM26.824 9.854q0 2.876-2.349 5.11-2.349 2.235-5.236 2.235-2.097 0-3.46-1.295-1.353-1.306-1.353-3.391 0-2.877 2.36-5.134 2.327-2.211 5.225-2.211 2.097 0 3.45 1.306 1.363 1.295 1.363 3.38zm-1.753-.126q0-1.375-.848-2.131-.814-.71-2.212-.71-2.28 0-4.056 1.741-1.776 1.742-1.776 4.01 0 1.376.848 2.132.814.71 2.212.71 2.28 0 4.056-1.73 1.776-1.742 1.776-4.022zM40.184 9.213q0 .687-.16 1.329l-1.616 6.015q-.172.642-.802.642-.905 0-.893-.814 0-.126.034-.263l1.615-6.016q.127-.47.127-.905 0-1.066-.688-1.684-.676-.63-1.753-.63-1.513 0-2.865 1.088-1.34 1.077-1.753 2.567l-1.615 6.015q-.172.642-.802.642-.906 0-.894-.814 0-.126.034-.263l2.762-10.313q.171-.641.802-.641.905 0 .893.813 0 .138-.045.31 1.673-1.123 3.483-1.123t2.968 1.123q1.168 1.123 1.168 2.922zM54.324 9.854q0 2.876-2.349 5.11-2.349 2.235-5.236 2.235-2.097 0-3.46-1.295-1.353-1.306-1.353-3.391 0-2.877 2.36-5.134 2.327-2.211 5.225-2.211 2.097 0 3.45 1.306 1.363 1.295 1.363 3.38zm-1.753-.126q0-1.375-.848-2.131-.814-.71-2.212-.71-2.28 0-4.056 1.741-1.776 1.742-1.776 4.01 0 1.376.848 2.132.814.71 2.212.71 2.28 0 4.056-1.73 1.776-1.742 1.776-4.022zM70.205 2.612q0 .344-.275.596t-.63.252q-.367-.011-.699-.446-.493-.677-.699-.837-.573-.447-1.547-.447-1.466 0-2.784 1.02-1.306 1.008-1.765 2.418h4.034q.859 0 .859.86 0 .858-.86.858h-4.503L57.36 21.714q-.171.641-.802.641-.905 0-.905-.813 0-.126.046-.264L59.56 6.886h-1.455q-.86 0-.86-.859 0-.86.86-.86h1.914q.55-2.165 2.337-3.654 1.8-1.502 4-1.502 1.202 0 2.188.55 1.065.596 1.558 1.65.103.23.103.402zM82.454 5.981q0 .15-1.57 5.993-.595 2.177-2.509 3.701-1.902 1.524-4.136 1.524-1.903 0-3.14-1.18-1.226-1.192-1.226-3.071 0-.71.183-1.42l1.536-5.719q.172-.641.813-.641.883 0 .883.813 0 .126-.035.264l-1.535 5.729q-.138.516-.138.974 0 1.157.745 1.845.745.687 1.914.687 1.65 0 3.116-1.18 1.432-1.157 1.868-2.773l1.535-5.718q.172-.641.814-.641.882 0 .882.813zM96.273 7.964q0 .343-.275.595-.275.252-.63.252-.436 0-.71-.458-.917-1.467-2.75-1.467-1.88 0-3.564 1.341-1.673 1.34-2.154 3.174l-1.375 5.156q-.172.642-.802.642-.906 0-.894-.814 0-.08 1.42-5.42l1.376-5.156q.171-.641.802-.641.905 0 .893.813 0 .126-.171.78 2.108-1.593 4.468-1.593 1.33 0 2.464.596 1.203.63 1.787 1.764.115.23.115.436zM107.09 1.215q0 .573-.436.974-.424.4-.997.4-.515 0-.87-.32-.344-.333-.344-.848 0-.562.435-.986.436-.424 1.008-.424.516 0 .86.344t.344.86zm-1.055 15.125q0 .859-.859.859-1.512 0-2.51-.963-.996-.962-.996-2.452.011-.55.172-1.1l1.547-5.798h-2.315q-.86 0-.86-.859 0-.86.86-.86h3.449q.848 0 .848.837 0 .126-.057.344l-1.822 6.772q-.092.344-.103.687 0 .78.492 1.226.504.447 1.295.447.86 0 .86.86zM121.985 14.632q0 .321-.275.608-1.89 1.959-4.503 1.959-1.799 0-2.979-1.123-1.169-1.134-1.169-2.922 0-.687.172-1.329l1.33-4.939h-1.456q-.86 0-.86-.859 0-.86.86-.86h1.914l1.214-4.514q.172-.642.802-.642.906 0 .906.814 0 .126-1.146 4.343h4.045q.859 0 .859.86 0 .858-.86.858h-4.503l-1.443 5.374q-.126.47-.126.906 0 1.065.699 1.695.653.62 1.741.62 1.65 0 3.312-1.479.263-.252.584-.252.344 0 .607.275.275.264.275.607zM136.583 7.173q0 .08-2.498 9.384-.171.642-.802.642-.905 0-.893-.814 0-.126.091-.47-1.822 1.284-3.815 1.284-1.891 0-3.14-1.18-1.237-1.192-1.237-3.071 0-.699.194-1.42.734-2.67 3.025-4.493 2.338-1.867 5.076-1.867 2.521 0 3.724 1.375.275.31.275.63zm-1.833.275q-.79-.562-2.166-.562-2.12 0-4.021 1.513-1.891 1.512-2.418 3.575-.138.527-.138.974 0 1.157.745 1.845.745.687 1.914.687 1.661 0 3.105-1.18 1.455-1.192 1.879-2.773l1.1-4.08zM149.485 14.632q0 .321-.275.608-1.89 1.959-4.503 1.959-1.799 0-2.979-1.123-1.169-1.134-1.169-2.922 0-.653.172-1.34l3.002-11.16q.172-.643.802-.643.906 0 .906.814 0 .126-.046.264l-3.002 11.171q-.126.47-.126.906 0 1.065.699 1.695.653.62 1.741.62 1.616 0 3.312-1.479.286-.252.584-.252.344 0 .607.275.275.264.275.607zM162.09 1.215q0 .573-.436.974-.424.4-.997.4-.515 0-.87-.32-.344-.333-.344-.848 0-.562.435-.986.436-.424 1.008-.424.516 0 .86.344t.344.86zm-1.055 15.125q0 .859-.859.859-1.512 0-2.51-.963-.996-.962-.996-2.452.011-.55.172-1.1l1.547-5.798h-2.315q-.86 0-.86-.859 0-.86.86-.86h3.449q.848 0 .848.837 0 .126-.057.344l-1.822 6.772q-.092.344-.103.687 0 .78.492 1.226.504.447 1.295.447.86 0 .86.86zM178.888 7.528q0 .344-.275.607-.264.264-.62.264-.297 0-.618-.286-1.318-1.227-3.231-1.227-1.868 0-3.472.86-1.673.905-2.578 2.475-.63 1.111-.642 2.223 0 1.558 1.25 2.36 1.042.676 2.68.676 1.983 0 4.171-1.352.264-.16.493-.16.344 0 .596.263.263.264.263.63 0 .379-.39.688-.916.733-2.429 1.203-1.455.447-2.704.447-2.291 0-3.93-1.249-1.764-1.375-1.753-3.586 0-2.991 2.784-5.168 2.59-2.028 5.66-2.028 3.003 0 4.504 1.787.24.287.24.573zM207.018.825q0 .126-.035.264l-4.113 15.354q-.206.756-.871.756-.653 0-.86-.768l-3.036-12.134-3.288 12.26q-.172.642-.814.642-.882 0-.882-.814 0-.126.034-.263L197.267.768q.206-.757.87-.757.654 0 .86.768l3.036 12.135 3.289-12.26q.172-.643.802-.643.894 0 .894.814zM219.943 7.872q0 1.169-.871 2.12-.768.859-1.948 1.317l-7.517 2.854q1.398 1.317 4.034 1.317 1.455 0 3.128-.538.183-.058.32-.058.814 0 .826.894 0 .527-.573.78-1.478.641-3.701.641-2.498 0-4.435-1.192-2.246-1.398-2.246-3.747 0-3.105 3.266-5.225 2.888-1.867 6.165-1.867 1.432 0 2.406.607 1.146.745 1.146 2.097zm-1.719.011q0-.997-1.833-.997-2.441 0-4.882 1.375-2.818 1.593-2.818 3.839 0 .298.057.55l7.769-2.956q1.707-.653 1.707-1.81zM233.773 7.964q0 .343-.275.595-.275.252-.63.252-.436 0-.71-.458-.917-1.467-2.75-1.467-1.88 0-3.564 1.341-1.673 1.34-2.154 3.174l-1.375 5.156q-.172.642-.802.642-.906 0-.894-.814 0-.08 1.42-5.42l1.376-5.156q.171-.641.802-.641.905 0 .893.813 0 .126-.171.78 2.108-1.593 4.468-1.593 1.33 0 2.464.596 1.203.63 1.787 1.764.115.23.115.436zM248.268.825q0 .126-.035.264l-4.148 15.468q-.171.642-.802.642-.905 0-.893-.814 0-.126.091-.47-1.822 1.284-3.815 1.284-1.891 0-3.14-1.18-1.237-1.192-1.237-3.071 0-.71.194-1.42.757-2.682 3.037-4.493 2.326-1.867 5.064-1.867 1.398 0 2.624.573l1.364-5.088q.172-.642.802-.642.894 0 .894.814zm-3.518 6.623q-.79-.562-2.166-.562-2.12 0-4.021 1.513-1.891 1.512-2.418 3.575-.138.527-.138.974 0 1.157.745 1.845.745.687 1.914.687 1.638 0 3.093-1.169 1.467-1.18 1.891-2.784l1.1-4.08zM276.902.87q0 .86-.86.86h-8.513l-1.604 6.016h8.044q.86 0 .86.86 0 .859-.86.859h-8.502l-1.902 7.092q-.172.642-.814.642-.882 0-.882-.814 0-.126.034-.263L266.028.699q.183-.688.905-.688h9.11q.86 0 .86.86zM288.074 9.854q0 2.876-2.349 5.11-2.349 2.235-5.236 2.235-2.097 0-3.46-1.295-1.353-1.306-1.353-3.391 0-2.877 2.36-5.134 2.327-2.211 5.225-2.211 2.097 0 3.45 1.306 1.363 1.295 1.363 3.38zm-1.753-.126q0-1.375-.848-2.131-.814-.71-2.212-.71-2.28 0-4.056 1.741-1.776 1.742-1.776 4.01 0 1.376.848 2.132.814.71 2.212.71 2.28 0 4.056-1.73 1.776-1.742 1.776-4.022zM301.434 9.213q0 .687-.16 1.329l-1.616 6.015q-.172.642-.802.642-.905 0-.893-.814 0-.126.034-.263l1.616-6.016q.126-.47.126-.905 0-1.066-.688-1.684-.676-.63-1.753-.63-1.513 0-2.865 1.088-1.34 1.077-1.753 2.567l-1.615 6.015q-.172.642-.802.642-.906 0-.894-.814 0-.126.034-.263l2.762-10.313q.172-.641.802-.641.905 0 .893.813 0 .138-.045.31 1.673-1.123 3.483-1.123t2.968 1.123q1.168 1.123 1.168 2.922zM314.485 14.632q0 .321-.275.608-1.89 1.959-4.503 1.959-1.799 0-2.979-1.123-1.169-1.134-1.169-2.922 0-.687.172-1.329l1.33-4.939h-1.456q-.86 0-.86-.859 0-.86.86-.86h1.914l1.214-4.514q.172-.642.802-.642.906 0 .906.814 0 .126-1.146 4.343h4.045q.859 0 .859.86 0 .858-.86.858h-4.503l-1.443 5.374q-.126.47-.126.906 0 1.065.699 1.695.653.62 1.741.62 1.65 0 3.312-1.479.263-.252.584-.252.344 0 .607.275.275.264.275.607zM344.128.848q-.011.046-.034.23l-2.063 15.388q-.103.733-.848.733-.882 0-.87-.837 0-.057.011-.148l1.432-10.634-4.01 7.62q-.298.573-.78.573-.905 0-.893-.86 0-1.409.046-3.735l.046-3.747-4.515 11.23q-.218.55-.756.55-.344 0-.619-.241-.275-.24-.275-.585 0-.183.069-.366L336.233.642q.252-.63.825-.63.905 0 .883.836 0 1.89-.023 4.251l-.08 4.24L342.454.55q.287-.55.78-.55.893 0 .893.848zM356.824 9.854q0 2.876-2.349 5.11-2.349 2.235-5.236 2.235-2.097 0-3.46-1.295-1.353-1.306-1.353-3.391 0-2.877 2.36-5.134 2.327-2.211 5.225-2.211 2.097 0 3.45 1.306 1.363 1.295 1.363 3.38zm-1.753-.126q0-1.375-.848-2.131-.814-.71-2.212-.71-2.28 0-4.056 1.741-1.776 1.742-1.776 4.01 0 1.376.848 2.132.814.71 2.212.71 2.28 0 4.056-1.73 1.776-1.742 1.776-4.022zM370.184 9.213q0 .687-.16 1.329l-1.616 6.015q-.172.642-.802.642-.905 0-.893-.814 0-.126.034-.263l1.616-6.016q.126-.47.126-.905 0-1.066-.688-1.684-.676-.63-1.753-.63-1.513 0-2.865 1.088-1.34 1.077-1.753 2.567l-1.615 6.015q-.172.642-.802.642-.906 0-.894-.814 0-.126.034-.263l2.762-10.313q.172-.641.802-.641.905 0 .893.813 0 .138-.045.31 1.673-1.123 3.483-1.123t2.968 1.123q1.168 1.123 1.168 2.922zM384.324 9.854q0 2.876-2.349 5.11-2.349 2.235-5.236 2.235-2.097 0-3.46-1.295-1.353-1.306-1.353-3.391 0-2.877 2.36-5.134 2.327-2.211 5.225-2.211 2.097 0 3.45 1.306 1.363 1.295 1.363 3.38zm-1.753-.126q0-1.375-.848-2.131-.814-.71-2.212-.71-2.28 0-4.056 1.741-1.776 1.742-1.776 4.01 0 1.376.848 2.132.814.71 2.212.71 2.28 0 4.056-1.73 1.776-1.742 1.776-4.022z"/></g><g style="line-height:125%" font-size="17.5"><path d="M10.729 50.819q0 .05-1.59 5.972-.109.408-.51.408-.576 0-.569-.518 0-.08.059-.299-1.16.817-2.429.817-1.203 0-1.998-.751-.787-.758-.787-1.954 0-.445.124-.904.467-1.7 1.925-2.859 1.487-1.188 3.23-1.188 1.604 0 2.37.875.175.197.175.4zm-1.167.175q-.503-.358-1.378-.358-1.349 0-2.56.963-1.202.962-1.538 2.275-.087.335-.087.62 0 .736.474 1.174.474.437 1.217.437 1.058 0 1.976-.75.926-.76 1.196-1.765l.7-2.596zM19.72 52.248q0 .445-.124.904-.467 1.692-1.925 2.858-1.495 1.189-3.23 1.189-.956 0-1.59-.605-.635-.605-.635-1.553 0-.292.073-.525 0-.102.416-1.648l1.67-6.198q.11-.409.503-.409.576 0 .569.518 0 .08-.941 3.58 1.152-.816 2.428-.816 1.203 0 1.99.743.796.766.796 1.962zm-1.094 0q0-.737-.474-1.174-.474-.438-1.218-.438-1.057 0-1.976.737-.911.736-1.196 1.78-.452 1.669-.452 1.888 0 1.064 1.13 1.064 1.35 0 2.552-.962 1.21-.963 1.546-2.275.088-.336.088-.62zM28.9 51.045q0 .219-.175.386-.168.168-.394.168-.19 0-.394-.182-.838-.78-2.056-.78-1.189 0-2.21.546-1.064.576-1.64 1.575-.401.708-.408 1.415 0 .992.794 1.502.664.43 1.707.43 1.261 0 2.654-.86.168-.102.313-.102.22 0 .38.167.167.168.167.401 0 .241-.248.438-.583.467-1.545.766-.926.284-1.721.284-1.459 0-2.501-.795-1.123-.875-1.116-2.282 0-1.903 1.772-3.289 1.648-1.29 3.602-1.29 1.91 0 2.866 1.137.153.182.153.365zM38.05 46.78q0 .08-.021.167l-2.64 9.844q-.11.408-.51.408-.576 0-.569-.518 0-.08.058-.299-1.159.817-2.428.817-1.203 0-1.998-.751-.787-.758-.787-1.954 0-.452.124-.904.481-1.707 1.932-2.859 1.48-1.188 3.223-1.188.89 0 1.67.364l.868-3.237q.109-.409.51-.409.569 0 .569.518zm-2.238 4.214q-.503-.358-1.378-.358-1.349 0-2.56.963-1.202.962-1.538 2.275-.087.335-.087.62 0 .736.474 1.174.474.437 1.217.437 1.043 0 1.97-.744.932-.75 1.202-1.771l.7-2.596zM46.276 51.264q0 .743-.554 1.348-.489.547-1.24.839L39.7 55.267q.89.838 2.566.838.926 0 1.991-.343.117-.036.204-.036.518 0 .525.569 0 .335-.364.496-.941.408-2.356.408-1.59 0-2.821-.758-1.43-.89-1.43-2.385 0-1.976 2.078-3.325 1.838-1.188 3.923-1.188.912 0 1.532.386.729.474.729 1.334zm-1.094.007q0-.635-1.167-.635-1.553 0-3.106.875-1.794 1.014-1.794 2.443 0 .19.037.35l4.944-1.881q1.086-.416 1.086-1.152zM55.988 47.917q0 .218-.175.379-.175.16-.4.16-.234-.007-.446-.284-.313-.43-.444-.532-.365-.285-.985-.285-.933 0-1.772.65-.83.64-1.122 1.538h2.566q.547 0 .547.547 0 .546-.547.546h-2.865l-2.53 9.436q-.11.408-.511.408-.576 0-.576-.518 0-.08.03-.167l2.456-9.159h-.926q-.547 0-.547-.546 0-.547.547-.547h1.218q.35-1.378 1.488-2.326 1.144-.956 2.544-.956.766 0 1.393.35.678.38.992 1.05.065.146.065.256zM63.991 50.09q0 .546-.547.546h-.977q.35.51.35 1.145 0 .831-.546 1.583-.489.678-1.27 1.115 1.175.766 1.167 2.107 0 1.634-1.538 2.808-1.422 1.086-3.106 1.086-1.276 0-2.18-.678-1-.751-1-1.99 0-1.16.613-1.16.576 0 .576.518 0 .102-.044.306-.043.204-.043.306 0 .795.67 1.225.576.38 1.408.38.962 0 1.823-.438.89-.452 1.363-1.262.336-.576.343-1.13 0-.81-.664-1.21-.54-.336-1.4-.336-1.064 0-1.815-.576-.832-.634-.839-1.662 0-1.35 1.262-2.326 1.174-.904 2.566-.904h3.281q.547 0 .547.547zm-2.29 1.677q0-1.13-1.538-1.13-.962 0-1.808.59-.926.649-.912 1.56 0 1.13 1.546 1.13.963 0 1.801-.59.912-.649.912-1.56zM71.166 52.117q0 .437-.102.845l-1.028 3.829q-.11.408-.51.408-.576 0-.569-.518 0-.08.022-.167l1.028-3.829q.08-.299.08-.576 0-.678-.437-1.072-.43-.4-1.116-.4-.962 0-1.823.692-.853.686-1.115 1.633l-1.029 3.829q-.109.408-.517.408-.562 0-.562-.518 0-.08.022-.167l2.647-9.844q.11-.409.503-.409.576 0 .569.518 0 .08-.912 3.478 1.065-.714 2.217-.714 1.152 0 1.889.714.743.715.743 1.86zM78.742 47.027q0 .365-.277.62-.27.255-.634.255-.328 0-.554-.204-.219-.212-.219-.54 0-.357.277-.627t.642-.27q.328 0 .547.22.218.218.218.546zm-.67 9.625q0 .547-.547.547-.963 0-1.597-.613-.635-.612-.635-1.56.007-.35.11-.7l.984-3.69h-1.473q-.547 0-.547-.546 0-.547.547-.547h2.195q.54 0 .54.532 0 .08-.037.219l-1.16 4.31q-.058.218-.065.437 0 .495.314.78.32.284.824.284.547 0 .547.547zM89.472 47.027q0 .365-.277.62-.27.255-.635.255-.328 0-.554-.204-.219-.212-.219-.54 0-.357.277-.627t.642-.27q.328 0 .547.22.219.218.219.546zm-1.094 3.048q0 .08-.037.219L86.6 56.79q-.416 1.538-1.75 2.61-1.357 1.08-2.939 1.08-.846 0-1.56-.38-.766-.401-1.145-1.123-.08-.16-.08-.277 0-.219.175-.38.175-.16.393-.16.278 0 .467.292.576.933 1.75.933 1.196 0 2.268-.86 1.05-.846 1.363-2.012l1.575-5.878h-1.473q-.546 0-.546-.546 0-.547.546-.547h2.195q.54 0 .54.532zM96.967 50.104q0 .292-.284.452l-4.95 2.895 3.28 2.785q.204.168.19.409 0 .219-.168.394-.16.167-.379.167-.197 0-.357-.138l-3.8-3.23q-.218-.19-.254-.38l-.897 3.333q-.11.408-.518.408-.561 0-.561-.518 0-.08.021-.167l2.647-9.844q.11-.409.503-.409.576 0 .57.518 0 .08-.023.168l-1.633 6.088q.058-.08.226-.175l5.556-3.237q.139-.08.285-.088.218 0 .379.175.167.175.167.394zM104.252 55.566q0 .204-.175.386-1.203 1.247-2.866 1.247-1.145 0-1.896-.715-.743-.722-.743-1.859 0-.416.109-.853l1.91-7.102q.11-.409.51-.409.577 0 .577.518 0 .08-.03.168l-1.91 7.11q-.08.298-.08.575 0 .678.445 1.08.415.393 1.108.393 1.028 0 2.107-.94.183-.16.372-.16.22 0 .387.174.175.168.175.387zM114.416 51.315q0 .291-.08.554l-1.312 4.922q-.11.408-.51.408-.577 0-.57-.518 0-.08.022-.167l1.32-4.922q.037-.139.037-.292 0-.664-.708-.664-.503 0-.962.372-.46.365-.598.86l-1.312 4.923q-.11.408-.525.408-.562 0-.555-.518 0-.08.022-.167l1.32-4.922q.044-.16.044-.292 0-.664-.715-.664-.503 0-.962.372-.46.365-.598.86l-1.313 4.923q-.11.408-.525.408-.561 0-.554-.518 0-.08.022-.167l1.757-6.563q.11-.408.51-.408.365 0 .511.291.576-.291 1.152-.291.977 0 1.488.736.81-.736 1.793-.736.78 0 1.291.503.51.503.51 1.269zM122.197 52.117q0 .437-.102.845l-1.029 3.829q-.109.408-.51.408-.576 0-.569-.518 0-.08.022-.167l1.028-3.829q.08-.299.08-.576 0-.678-.437-1.072-.43-.4-1.116-.4-.962 0-1.823.692-.853.686-1.115 1.633l-1.028 3.829q-.11.408-.51.408-.577 0-.57-.518 0-.08.022-.167l1.758-6.563q.11-.408.51-.408.576 0 .569.517 0 .088-.03.197 1.065-.714 2.217-.714 1.152 0 1.889.714.744.715.744 1.86zM131.195 52.525q0 1.83-1.495 3.252-1.495 1.422-3.333 1.422-1.334 0-2.202-.824-.86-.831-.86-2.158 0-1.83 1.502-3.267 1.48-1.407 3.325-1.407 1.334 0 2.195.83.868.825.868 2.152zm-1.116-.08q0-.875-.54-1.356-.517-.453-1.407-.453-1.451 0-2.581 1.109-1.13 1.108-1.13 2.552 0 .875.54 1.356.517.452 1.406.452 1.452 0 2.582-1.1 1.13-1.11 1.13-2.56zM140.528 52.248q0 .452-.124.904-.481 1.706-1.932 2.858-1.48 1.189-3.223 1.189-.89 0-1.67-.365l-.868 3.238q-.11.408-.51.408-.576 0-.569-.518 0-.08 2.662-10.011.109-.408.51-.408.576 0 .569.517 0 .08-.059.3 1.16-.817 2.429-.817 1.21 0 1.997.75.788.752.788 1.955zm-1.094 0q0-.737-.474-1.174-.474-.438-1.218-.438-1.05 0-1.976.744-.918.737-1.195 1.772l-.7 2.596q.503.357 1.378.357 1.349 0 2.552-.962 1.21-.963 1.546-2.275.087-.336.087-.62zM148.541 50.819q0 .05-.043.211l-2.436 9.042q-.11.408-.503.408-.576 0-.569-.518 0-.08.941-3.58-1.16.817-2.428.817-1.203 0-1.998-.751-.788-.758-.788-1.954 0-.445.124-.904.467-1.7 1.925-2.859 1.488-1.188 3.23-1.188 1.605 0 2.37.875.175.197.175.4zm-1.166.175q-.503-.358-1.378-.358-1.35 0-2.56.963-1.203.962-1.538 2.275-.088.335-.088.62 0 .736.474 1.174.474.437 1.218.437 1.064 0 1.983-.75.919-.76 1.189-1.765l.7-2.596zM157.89 51.322q0 .219-.176.379-.175.16-.4.16-.278 0-.453-.291-.583-.934-1.75-.934-1.196 0-2.267.854-1.065.853-1.371 2.02l-.875 3.28q-.11.409-.51.409-.577 0-.57-.518 0-.05.905-3.449l.875-3.281q.11-.408.51-.408.576 0 .569.517 0 .08-.11.496 1.342-1.013 2.844-1.013.846 0 1.568.379.766.4 1.137 1.123.073.146.073.277zM165.232 54.319q0 .605-.35 1.181-1.035 1.699-3.595 1.699-.962 0-1.728-.365-.904-.43-1.167-1.247-.029-.094-.021-.19 0-.517.568-.524.35 0 .51.386.358.846 1.838.846 1.335 0 2.239-.693.612-.466.612-1.013 0-1.028-1.968-1.028-.875 0-1.459-.357-.707-.43-.707-1.255 0-1.042 1.006-1.67.875-.546 1.969-.546 1.51 0 2.056.94.095.16.095.3 0 .218-.175.378t-.401.16q-.088 0-.525-.342-.438-.343-1.05-.343-.554 0-1.145.256-.736.328-.736.802 0 .583 1.32.583 1.122 0 1.88.452.934.547.934 1.59zM173.876 55.566q0 .204-.175.386-1.203 1.247-2.866 1.247-1.145 0-1.896-.715-.743-.722-.743-1.859 0-.438.109-.846l.846-3.143h-.926q-.547 0-.547-.546 0-.547.547-.547h1.218l.772-2.873q.11-.409.51-.409.577 0 .577.518 0 .08-.73 2.764h2.575q.547 0 .547.547 0 .546-.547.546h-2.866l-.919 3.42q-.08.3-.08.576 0 .678.445 1.08.416.393 1.108.393 1.05 0 2.108-.94.167-.16.371-.16.22 0 .387.174.175.168.175.387zM183.72 50.06q0 .095-1 3.814-.379 1.385-1.596 2.355-1.21.97-2.633.97-1.21 0-1.997-.751-.78-.758-.78-1.954 0-.452.116-.904l.977-3.639q.11-.408.518-.408.561 0 .561.517 0 .08-.022.168l-.977 3.646q-.087.328-.087.62 0 .736.474 1.174.474.437 1.217.437 1.05 0 1.984-.75.911-.737 1.188-1.765l.977-3.639q.11-.408.518-.408.562 0 .562.517zM192.841 50.082q0 .183-.123.343l-4.973 6.475q-.234.306-.496.306-.438 0-.562-.525l-1.494-6.46q-.03-.095-.022-.16 0-.518.561-.518.43 0 .532.415l1.255 5.44 4.33-5.644q.169-.219.431-.219.219 0 .386.168.175.16.175.38zM201.591 50.075q0 .139-.08.284l-3.69 6.49q-.203.357-.502.357-.54 0-.562-.62l-.073-2.34-1.487 2.603q-.204.357-.503.357-.54 0-.562-.62l-.204-6.482q-.015-.561.547-.561.532 0 .547.532l.146 4.623 1.45-2.552-.072-2.042q-.015-.561.547-.561.532 0 .546.532l.16 4.608 2.757-4.863q.16-.285.46-.285.218 0 .393.16.183.161.183.38zM210.684 50.104q0 .24-.211.416l-3.755 2.953 2.092 2.85q.117.161.11.336 0 .22-.175.387-.175.16-.387.16-.262 0-.423-.226l-2.078-2.829-3.711 2.931q-.16.132-.343.124-.219 0-.387-.167-.167-.175-.167-.402 0-.24.211-.415l3.755-2.953-2.092-2.851q-.117-.16-.11-.336 0-.218.175-.379.175-.168.387-.168.262 0 .423.226l2.078 2.83 3.711-2.932q.16-.13.343-.124.219 0 .386.175.168.175.168.394zM218.472 50.06q0 .08-.022.168l-1.903 7.11q-.35 1.312-1.502 2.223-1.145.92-2.494.92-.882 0-1.56-.453-.708-.467-.963-1.29-.03-.095-.03-.183 0-.54.57-.54.35 0 .503.394.386.977 1.48.977.977 0 1.83-.692.817-.678 1.108-1.634.03-.087.153-.576-1.064.715-2.216.715-1.145 0-1.889-.715-.743-.722-.743-1.859 0-.438.102-.846l1.028-3.828q.11-.408.51-.408.576 0 .569.517 0 .08-.022.168l-1.028 3.828q-.08.3-.08.576 0 .678.444 1.08.416.393 1.109.393.977 0 1.823-.685.853-.686 1.115-1.64l1.028-3.829q.11-.408.51-.408.57 0 .57.517zM228.17 50.097q0 .255-.285.481l-7.007 5.527h4.98q.547 0 .547.547t-.547.547l-6.555.007q-.554 0-.554-.562 0-.255.284-.48l7.007-5.528h-4.98q-.547 0-.547-.547t.547-.547l6.555-.007q.555 0 .555.562zM10.226 78.534q.036.54-.547.54-.503 0-.54-.51l-.182-2.771H5.4L3.59 78.81q-.16.278-.452.27-.218 0-.4-.153-.176-.16-.176-.386 0-.153.088-.3l5.877-9.763q.211-.35.496-.35.532 0 .576.605l.627 9.8zM8.884 74.7l-.277-4.237L6.055 74.7h2.83zM20.194 70.23q0 .838-.438 1.618-.437.773-1.145 1.24.817.678.817 1.917 0 1.67-1.203 2.873-1.203 1.203-2.873 1.203l-3.1-.007q-.546 0-.546-.51 0-.08 2.669-10.019.036-.146.197-.277.167-.131.32-.131h3.1q.998 0 1.589.54.613.56.613 1.552zm-1.08.028q0-1.028-1.123-1.028h-2.683l-.875 3.281h2.384q.875 0 1.583-.685.714-.693.714-1.568zm-.758 4.77q0-1.423-1.539-1.423h-2.676l-1.174 4.375 2.385.007q1.174 0 2.085-.897.919-.904.919-2.063zM29.644 70.142q0 .218-.175.379-.175.153-.394.153-.277 0-.467-.299-.03-.037-.102-.19-.03-.036-.11-.145-.597-.81-1.64-.81-1.99 0-3.47 2.122-1.342 1.925-1.342 4.01 0 1.153.503 1.838.576.78 1.677.78 1.203 0 2.72-1.29.19-.16.379-.16.218 0 .386.174.175.168.175.387 0 .204-.182.393-.642.678-1.59 1.123-.991.467-1.888.467-1.59 0-2.487-1.189-.802-1.064-.81-2.705 0-2.435 1.75-4.666 1.846-2.378 4.179-2.378 1.954 0 2.822 1.736.066.131.066.27zM37.628 72.33q0 2.631-2.173 4.702-2.144 2.042-4.79 2.042h-.912q-.547 0-.547-.51 0-.095.022-.175l2.647-9.844q.095-.35.612-.409h.817q1.888 0 3.084 1.145 1.24 1.167 1.24 3.048zm-1.094-.008q0-1.422-.919-2.26-.89-.832-2.311-.832h-.496l-2.34 8.75h.196q2.202 0 4.018-1.72 1.852-1.75 1.852-3.938zM47.523 68.683q0 .547-.547.547h-5.418l-1.02 3.828h5.118q.547 0 .547.547t-.547.547h-5.41l-1.029 3.828h5.12q.546 0 .546.547t-.547.547h-5.833q-.547 0-.547-.51 0-.08 2.669-10.02.036-.145.197-.276.167-.132.32-.132h5.834q.547 0 .547.547zM56.273 68.683q0 .547-.547.547h-5.418l-1.02 3.828h5.118q.547 0 .547.547t-.547.547h-5.41l-1.21 4.514q-.11.408-.519.408-.561 0-.561-.518 0-.08.022-.167l2.625-9.815q.117-.438.576-.438h5.797q.547 0 .547.547zM64.279 70.142q0 .218-.168.379-.167.153-.4.153-.285 0-.482-.32.015-.045-.204-.358-.518-.766-1.48-.766-1.925 0-3.347 2.217-1.262 1.976-1.276 4.018 0 1.079.437 1.75.518.765 1.546.765 1.225 0 2.465-1.181l.896-3.332q.11-.409.51-.409.577 0 .57.518 0 .08-.022.168l-.934 3.485q-.182.678-1.48 1.29-1.181.555-2.005.555-1.539 0-2.34-1.08-.708-.962-.708-2.551 0-2.538 1.546-4.79 1.72-2.517 4.142-2.517 1.852 0 2.676 1.75.058.124.058.256zM73.05 68.654q0 .08-2.66 10.012-.11.408-.518.408-.562 0-.562-.518 0-.08.022-.167l1.138-4.237h-3.974l-1.21 4.514q-.11.408-.518.408-.562 0-.562-.518 0-.08 2.669-10.011.11-.409.503-.409.576 0 .569.518 0 .08-.022.168l-1.138 4.236h3.974l1.21-4.513q.11-.409.511-.409.569 0 .569.518zM81.429 68.683q0 .547-.547.547h-1.765l-2.347 8.75h1.472q.547 0 .547.547t-.547.547h-4.375q-.546 0-.546-.547t.546-.547h1.772l2.341-8.75h-1.473q-.547 0-.547-.547t.547-.547h4.375q.547 0 .547.547zM89.26 68.669q0 .058-.044.218L86.6 78.666q-.409 1.538-1.75 2.603-1.371 1.086-2.939 1.086-.846 0-1.56-.379-.766-.401-1.145-1.123-.08-.16-.08-.277 0-.219.175-.38.175-.16.393-.16.278 0 .467.292.576.933 1.75.933 1.196 0 2.268-.86 1.05-.846 1.363-2.012l2.45-9.159h-5.118q-.547 0-.547-.547t.547-.547h5.848q.54 0 .54.533zM97.85 68.698q0 .233-.219.4l-5.658 4.61 3.128 4.506q.11.16.102.32 0 .22-.175.387-.175.16-.394.16-.262 0-.43-.24l-3.427-4.922q-.08-.117-.088-.234l-1.341 4.98q-.11.409-.518.409-.561 0-.561-.518 0-.08.021-.167l2.647-9.844q.11-.409.503-.409.576 0 .57.518 0 .08-.023.168l-1.196 4.455q.044-.058.088-.087l6.074-4.922q.16-.132.335-.139.22 0 .387.175.175.175.175.394zM103.946 78.527q0 .547-.547.547h-5.84q-.54 0-.54-.532 0-.08.036-.22l2.632-9.777q.11-.409.503-.409.576 0 .57.518 0 .08-.023.168L98.28 77.98h5.119q.547 0 .547.547zM114.365 68.669q-.007.029-.022.146l-1.312 9.792q-.066.467-.54.467-.561 0-.554-.532 0-.037.007-.095l.912-6.767-2.552 4.85q-.19.364-.496.364-.576 0-.569-.547 0-.897.03-2.377l.028-2.385-2.872 7.146q-.139.35-.482.35-.218 0-.393-.153-.175-.153-.175-.372 0-.116.043-.233l3.923-9.786q.16-.4.525-.4.576 0 .562.532 0 1.203-.015 2.705l-.05 2.698 2.938-5.593q.182-.35.495-.35.57 0 .57.54zM123.363 68.654q0 .08-.022.168l-2.617 9.77q-.132.482-.554.482-.416 0-.547-.489l-1.933-7.721-2.092 7.802q-.11.408-.518.408-.562 0-.562-.518 0-.08.022-.167l2.618-9.771q.131-.482.554-.482.416 0 .547.489l1.932 7.722 2.093-7.802q.11-.409.51-.409.57 0 .57.518zM131.741 71.6q0 2.465-1.429 4.805-1.633 2.669-3.945 2.669-1.421 0-2.121-1.065-.606-.911-.606-2.399 0-2.464 1.43-4.805 1.633-2.669 3.937-2.669 1.422 0 2.13 1.065.604.911.604 2.399zm-1.05.146q0-.934-.371-1.64-.46-.876-1.313-.876-.962 0-2.012.985-1.488 1.4-2.064 3.529-.248.926-.248 1.72 0 .941.372 1.641.452.875 1.312.875.978 0 2.02-.984 1.48-1.4 2.064-3.537.24-.911.24-1.713zM140.914 70.616q0 1.67-1.21 2.88-1.203 1.203-2.866 1.203h-2.676l-1.064 3.967q-.11.408-.518.408-.561 0-.561-.518 0-.08 2.668-10.011.037-.146.197-.277.168-.132.321-.132h3.099q1.188 0 1.888.642.722.664.722 1.838zm-1.072.036q0-1.422-1.538-1.422h-2.683l-1.167 4.375h2.384q1.174 0 2.086-.897.918-.897.918-2.056zM149.241 71.6q0 2.268-1.24 4.477-1.377 2.48-3.404 2.917.05.86.43 1.502.46.765 1.247.765.547 0 .547.547t-.547.547q-1.313 0-2.042-1.028-.627-.875-.707-2.268-1.254-.13-1.874-1.21-.51-.882-.51-2.239 0-2.464 1.429-4.805 1.633-2.669 3.937-2.669 1.422 0 2.13 1.065.604.911.604 2.399zm-1.05.146q0-.934-.371-1.64-.46-.876-1.313-.876-.933 0-1.94.912-1.509 1.378-2.136 3.602-.248.904-.248 1.72 0 .846.3 1.503.364.809 1.078.977.08-.715.139-.97.182-.634.598-.634.561 0 .561.517 0 .132-.08.467-.088.38-.11.488 1.495-.612 2.545-2.537.977-1.808.977-3.53zM158.45 70.71q0 1.56-1.275 2.779-1.269 1.21-2.837 1.21h-.561l2.567 3.5q.116.16.109.335 0 .22-.175.387-.175.16-.387.16-.262 0-.422-.226l-3.15-4.295q-.168-.24-.175-.408 0-.547.663-.547h1.531q1.174 0 2.086-.897.918-.904.918-2.056 0-1.422-1.538-1.422h-2.683l-2.523 9.436q-.11.408-.518.408-.561 0-.561-.518 0-.08.021-.167l2.625-9.815q.117-.438.576-.438h3.063q1.152 0 1.896.715.75.715.75 1.86zM166.472 69.784q0 .22-.175.38t-.401.16q-.263 0-.474-.314-.518-.78-1.648-.78-1.78 0-2.61 1.262-.285.437-.285.86 0 1.16 1.72 1.16 1.328 0 2.305.678 1.108.758 1.108 2.02 0 1.67-1.655 2.821-1.487 1.043-3.23 1.043-1.014 0-1.83-.394-.941-.452-1.335-1.29-.058-.132-.058-.248 0-.54.569-.54.262 0 .415.219l.263.408q.642.751 1.976.751 1.013 0 1.925-.415.962-.445 1.48-1.255.357-.576.357-1.123 0-.845-.765-1.254-.605-.328-1.524-.328-1.094 0-1.91-.576-.927-.634-.927-1.692 0-1.378 1.35-2.326 1.224-.875 2.66-.875 1.97 0 2.633 1.393.066.139.066.255zM176.585 68.683q0 .547-.547.547h-2.858l-2.53 9.436q-.11.408-.525.408-.562 0-.554-.518 0-.08.022-.167l2.45-9.159h-2.567q-.547 0-.547-.547t.547-.547h6.562q.547 0 .547.547zM184.978 68.654q0 .08-.022.168l-1.86 6.927q-.379 1.393-1.574 2.348-1.225.977-2.655.977-1.203 0-1.997-.751-.788-.758-.788-1.954 0-.43.124-.904l1.86-6.92q.109-.409.51-.409.576 0 .569.518 0 .08-.022.168l-1.86 6.927q-.087.328-.087.62 0 .736.474 1.174.474.437 1.217.437 1.05 0 1.984-.75.911-.737 1.188-1.765l1.867-6.92q.11-.409.503-.409.569 0 .569.518zM194.1 68.669q0 .153-.095.299l-5.87 9.763q-.211.35-.51.35-.518 0-.554-.605l-.642-9.8q-.037-.54.561-.54.504 0 .533.51l.532 8.102 5.017-8.35q.16-.276.452-.269.218 0 .393.16.183.161.183.38zM202.85 68.654q0 .131-.051.248l-4.259 9.785q-.167.387-.525.387-.561 0-.554-.532 0 .35.08-4.251l-2.296 4.433q-.183.357-.496.357-.576 0-.576-.54.007.008.014-.13l1.007-9.786q.05-.489.525-.489.554 0 .554.533v.073l-.708 6.985 2.042-3.952q.19-.365.518-.365.576 0 .561.547 0-.415-.08 3.828l3.18-7.32q.145-.336.488-.336.219 0 .394.153.182.153.182.372zM211.942 68.683q0 .197-.16.38l-4.36 4.659 1.823 4.6q.043.11.05.234 0 .219-.174.372-.175.153-.394.153-.35 0-.489-.35l-1.648-4.12-4.01 4.295q-.168.183-.394.175-.219 0-.394-.167-.167-.168-.167-.387 0-.197.16-.38l4.36-4.658-1.837-4.602q-.044-.109-.044-.233 0-.219.175-.372t.401-.153q.35 0 .489.35l1.64 4.12 4.011-4.295q.168-.182.394-.175.218 0 .393.168.175.168.175.386zM220.35 68.683q0 .197-.16.38l-4.507 4.82-1.283 4.783q-.11.408-.525.408-.562 0-.554-.518 0-.08.022-.167l1.268-4.747-1.896-4.755q-.043-.109-.043-.233 0-.219.175-.372t.4-.153q.35 0 .49.35l1.64 4.12 4.01-4.295q.168-.182.394-.175.219 0 .394.168.175.168.175.386zM229.45 68.683q0 .212-.234.452l-8.268 8.845h5.3q.548 0 .548.547t-.547.547l-6.555.007q-.577 0-.562-.554 0-.212.226-.452l8.269-8.845h-5.301q-.547 0-.547-.547t.547-.547l6.548-.007q.576 0 .576.554zM10.882 96.275q0 1.83-1.495 3.252-1.495 1.422-3.332 1.422-1.334 0-2.202-.824-.86-.831-.86-2.158 0-1.83 1.502-3.267 1.48-1.407 3.325-1.407 1.334 0 2.194.83.868.825.868 2.152zm-1.116-.08q0-.875-.54-1.356-.517-.453-1.406-.453-1.451 0-2.582 1.109-1.13 1.108-1.13 2.552 0 .875.54 1.356.517.452 1.407.452 1.451 0 2.581-1.1 1.13-1.11 1.13-2.56zM20.179 93.475q0 2.465-1.43 4.805-1.633 2.669-3.944 2.669-1.422 0-2.122-1.065-.605-.911-.605-2.399 0-2.464 1.43-4.805 1.632-2.669 3.937-2.669 1.421 0 2.129 1.065.605.911.605 2.399zm-1.05.146q0-.934-.372-1.64-.46-.876-1.312-.876-.963 0-2.013.985-1.487 1.4-2.063 3.529-.248.926-.248 1.72 0 .941.371 1.641.453.875 1.313.875.977 0 2.02-.984 1.48-1.4 2.063-3.537.24-.911.24-1.713zM28.66 95.02q0 2.079-1.496 3.946-1.582 1.983-3.609 1.983-1.385 0-2.18-1.014-.715-.926-.722-2.355 0-2.078 1.495-3.945 1.582-1.983 3.602-1.983 1.385 0 2.187 1.014.722.926.722 2.355zm-1.08-.043q0-.911-.445-1.531-.496-.7-1.385-.7-1.29 0-2.45 1.24-1.036 1.1-1.393 2.457-.168.634-.168 1.18 0 .912.43 1.532.504.7 1.386.7 1.29 0 2.457-1.24 1.036-1.1 1.4-2.457.168-.627.168-1.181zm-2.29 1.269q0 .277-.211.481-.212.197-.481.197-.576 0-.57-.569 0-.277.205-.467.204-.19.481-.19.584-.006.576.548zM37.169 92.184q0 1.721-1.663 2.778.926.737.911 1.998 0 1.56-1.268 2.779-1.269 1.21-2.844 1.21-1.145 0-1.896-.715-.744-.722-.744-1.859 0-1.123.708-2.13.678-.947 1.728-1.45-.554-.605-.554-1.488 0-1.29 1.057-2.304 1.043-.992 2.34-.992.963 0 1.59.606.635.605.635 1.567zm-1.102-.05q0-1.029-1.122-1.029-.875 0-1.59.693-.707.685-.707 1.56 0 1.028 1.123 1.028.875 0 1.582-.685.714-.693.714-1.568zm-.758 4.768q0-1.422-1.538-1.422-1.16 0-2.079.904-.911.897-.911 2.05 0 1.421 1.524 1.421 1.174 0 2.085-.897.92-.897.92-2.056zM53.21 90.777q0 .365-.277.62-.27.255-.634.255-.328 0-.554-.204-.22-.212-.22-.54 0-.357.278-.627.277-.27.642-.27.328 0 .546.22.22.218.22.546zm-.67 9.625q0 .547-.548.547-.962 0-1.596-.613-.635-.612-.635-1.56.007-.35.11-.7l.984-3.69h-1.473q-.547 0-.547-.546 0-.547.547-.547h2.195q.54 0 .54.532 0 .08-.037.219l-1.16 4.31q-.058.218-.065.437 0 .495.314.78.32.284.823.284.547 0 .547.547zM63.929 90.558q0 .547-.547.547h-1.765l-2.347 8.75h1.472q.547 0 .547.547t-.547.547h-4.375q-.546 0-.546-.547t.546-.547h1.772l2.341-8.75h-1.473q-.547 0-.547-.547t.547-.547h4.375q.547 0 .547.547zM71.44 99.316q0 .204-.176.386-1.203 1.247-2.865 1.247-1.145 0-1.896-.715-.744-.722-.744-1.859 0-.416.11-.853l1.91-7.102q.11-.409.51-.409.576 0 .576.518 0 .08-.029.168l-1.91 7.11q-.08.298-.08.575 0 .678.444 1.08.416.393 1.109.393 1.028 0 2.107-.94.182-.16.372-.16.219 0 .386.174.175.168.175.387zM79.883 100.402q0 .547-.547.547h-5.84q-.54 0-.54-.532 0-.08.037-.22l2.632-9.777q.11-.409.503-.409.576 0 .569.518 0 .08-.022.168l-2.458 9.158h5.12q.546 0 .546.547zM87.926 92.206q0 .037-.051.226l-1.99 7.423q.78 0 .816.007.467.088.474.54 0 .547-.547.547H83.71q-.547 0-.547-.547t.547-.547h1.043l1.662-6.205-1.48 1.166q-.16.132-.342.124-.22 0-.387-.167-.168-.175-.168-.401 0-.241.22-.416l2.69-2.137q.233-.182.423-.175.554 0 .554.562zM107.132 90.558q0 .452-.496.547-.736.131-1.006.357-.467.402-.598.883-.219.911-.882 3.281-.285.992-1.174 1.59.379.466.379 1.13 0 .233-.08.554-.051.197-.569 1.765-.35 1.05-.35 1.793 0 .482.627.664.634.182.634.561 0 .547-.546.547-.78 0-1.298-.496-.51-.495-.51-1.276 0-.233.08-.554.065-.277.56-1.764.358-1.065.358-1.794 0-.481-.634-.664-.627-.182-.627-.561 0-.445.496-.54.729-.138 1.013-.386.46-.387.59-.86.22-.912.876-3.282.24-.846.999-1.458.714-.584 1.611-.584.547 0 .547.547zM114.125 97.12q0 .453-.496.548-.737.13-.999.357-.467.401-.605.882-.234.912-.883 3.282-.24.845-.984 1.443-.736.598-1.619.598-.547 0-.547-.547 0-.444.496-.54.73-.138 1.014-.386.46-.386.59-.86.22-.912.883-3.281.284-.992 1.174-1.59-.38-.467-.38-1.13 0-.234.08-.554.066-.277.555-1.765.357-1.065.365-1.794 0-.48-.635-.663-.627-.183-.627-.562 0-.547.547-.547.78 0 1.29.496.518.496.518 1.276 0 .234-.08.554-.066.278-.561 1.765-.358 1.065-.358 1.794 0 .481.627.663.635.183.635.562zM133.382 90.558q0 .547-.547.547h-2.858l-3.223 12.031h2.567q.546 0 .546.547t-.546.547h-3.282q-.554 0-.561-.51 0-.095.03-.175l3.521-13.125q.036-.146.204-.277.168-.132.321-.132h3.281q.547 0 .547.547zM142.147 90.522q0 .095-.03.175l-3.521 13.125q-.037.146-.205.277-.167.131-.32.131h-3.282q-.547 0-.547-.547t.547-.547h2.859l3.223-12.03h-2.567q-.547 0-.547-.548 0-.547.547-.547h3.281q.562 0 .562.51zM160.96 93.84q0 .546-.548.546h-.977q.35.51.35 1.145 0 .831-.547 1.583-.488.678-1.268 1.115 1.174.766 1.166 2.107 0 1.634-1.538 2.808-1.422 1.086-3.107 1.086-1.276 0-2.18-.678-.999-.751-.999-1.99 0-1.16.613-1.16.576 0 .576.518 0 .102-.044.306-.044.204-.044.306 0 .795.671 1.225.576.38 1.407.38.963 0 1.823-.438.89-.452 1.364-1.262.335-.576.343-1.13 0-.81-.664-1.21-.54-.336-1.4-.336-1.065 0-1.816-.576-.83-.634-.838-1.662 0-1.35 1.261-2.326 1.174-.904 2.567-.904h3.281q.547 0 .547.547zm-2.29 1.677q0-1.13-1.539-1.13-.962 0-1.808.59-.926.649-.912 1.56 0 1.13 1.546 1.13.963 0 1.801-.59.912-.649.912-1.56zM169.585 94.634q0 .496-.138.985-.766 2.887-3.303 4.914-2.582 2.057-5.535 2.057-.547 0-.547-.547t.547-.547q3.004 0 5.52-2.406-.685.218-1.364.218-1.334 0-2.202-.824-.86-.83-.86-2.158 0-1.823 1.502-3.252 1.48-1.422 3.31-1.422 1.335 0 2.202.831.868.824.868 2.151zm-1.115-.08q0-.875-.54-1.356-.518-.452-1.415-.452-1.45 0-2.58 1.108-1.124 1.109-1.124 2.552 0 .875.547 1.357.518.452 1.407.452 1.451 0 2.574-1.109 1.13-1.108 1.13-2.552zM176.979 94.569q0 .05-.044.211l-2.435 9.042q-.11.408-.503.408-.576 0-.57-.518 0-.08.941-3.58-1.159.817-2.428.817-1.203 0-1.998-.751-.787-.758-.787-1.954 0-.445.124-.904.467-1.7 1.925-2.859 1.487-1.188 3.23-1.188 1.604 0 2.37.875.175.197.175.4zm-1.167.175q-.503-.358-1.378-.358-1.349 0-2.56.963-1.202.962-1.538 2.275-.087.335-.087.62 0 .736.474 1.174.474.437 1.217.437 1.065 0 1.984-.75.918-.76 1.188-1.765l.7-2.596zM187.144 92.017q0 .218-.175.379-.175.153-.394.153-.277 0-.467-.299-.03-.037-.102-.19-.03-.036-.11-.145-.597-.81-1.64-.81-1.99 0-3.47 2.122-1.342 1.925-1.342 4.01 0 1.153.503 1.838.576.78 1.677.78 1.203 0 2.72-1.29.19-.16.379-.16.218 0 .386.174.175.168.175.387 0 .204-.182.393-.642.678-1.59 1.123-.991.467-1.888.467-1.59 0-2.487-1.189-.802-1.064-.81-2.705 0-2.435 1.75-4.666 1.846-2.378 4.179-2.378 1.954 0 2.822 1.736.065.131.065.27zM195.529 92.017q0 .218-.168.379-.167.153-.4.153-.285 0-.482-.32.015-.045-.204-.358-.518-.766-1.48-.766-1.925 0-3.347 2.217-1.262 1.976-1.276 4.018 0 1.079.437 1.75.518.765 1.546.765 1.225 0 2.465-1.181l.896-3.332q.11-.409.51-.409.577 0 .57.518 0 .08-.022.168l-.934 3.485q-.182.678-1.48 1.29-1.181.555-2.005.555-1.539 0-2.34-1.08-.708-.962-.708-2.551 0-2.538 1.546-4.79 1.72-2.517 4.142-2.517 1.852 0 2.676 1.75.058.124.058.256zM203.929 93.475q0 2.268-1.24 4.477-1.378 2.48-3.405 2.917.051.86.43 1.502.46.765 1.247.765.547 0 .547.547t-.547.547q-1.312 0-2.041-1.028-.628-.875-.708-2.268-1.254-.13-1.874-1.21-.51-.882-.51-2.239 0-2.464 1.43-4.805 1.632-2.669 3.937-2.669 1.421 0 2.129 1.065.605.911.605 2.399zm-1.05.146q0-.934-.372-1.64-.46-.876-1.312-.876-.934 0-1.94.912-1.51 1.378-2.136 3.602-.248.904-.248 1.72 0 .846.299 1.503.364.809 1.079.977.08-.715.138-.97.183-.634.598-.634.562 0 .562.517 0 .132-.08.467-.088.38-.11.488 1.495-.612 2.545-2.537.977-1.808.977-3.53zM219.679 97.106q0 .212-.212.46-.546.649-1.582.649-.598 0-1.188-.547-.591-.547-.708-.547-.43 0-.758.277t-.467.277q-.218 0-.393-.16-.175-.16-.175-.38 0-.211.211-.459.547-.649 1.582-.649.598 0 1.189.547.59.547.707.547.314 0 .452-.088l.321-.197q.16-.277.452-.27.219 0 .394.161.175.16.175.38zM227.875 97.12q0 .548-.547.548h-3.281q-.547 0-.547-.547t.547-.547h3.28q.548 0 .548.547zM238.484 96.297q0 .554-.547.554h-2.858l-.773 2.873q-.11.408-.51.408-.576 0-.57-.532 0-.08.715-2.749h-2.566q-.547 0-.547-.554 0-.54.547-.54h2.865l.773-2.88q.11-.401.51-.401.562 0 .562.525 0 .088-.714 2.756h2.566q.547 0 .547.54zM247.672 94.664q0 .54-.547.54h-6.563q-.547 0-.547-.54 0-.555.547-.555h6.563q.547 0 .547.555zm-.875 3.28q0 .54-.547.54h-6.563q-.547 0-.547-.54 0-.553.547-.553h6.563q.547 0 .547.554zM256.1 96.297q0 .35-.422.554l-7.343 3.223q-.116.058-.24.058-.533 0-.533-.569 0-.335.328-.473l6.46-2.852-4.76-2.748q-.278-.16-.27-.453 0-.218.153-.393.16-.183.386-.183.139 0 .285.088l5.592 3.223q.365.197.365.525z"/></g></g></svg>