<?xml version="1.0" encoding="UTF-8" standalone="no"?>
<!-- Created with Inkscape (http://www.inkscape.org/) -->

<svg
   xmlns:dc="http://purl.org/dc/elements/1.1/"
   xmlns:cc="http://creativecommons.org/ns#"
   xmlns:rdf="http://www.w3.org/1999/02/22-rdf-syntax-ns#"
   xmlns:svg="http://www.w3.org/2000/svg"
   xmlns="http://www.w3.org/2000/svg"
   xmlns:sodipodi="http://sodipodi.sourceforge.net/DTD/sodipodi-0.dtd"
   xmlns:inkscape="http://www.inkscape.org/namespaces/inkscape"
   width="94.648376mm"
   height="32.066029mm"
   viewBox="0 0 335.36826 113.61979"
   id="svg2"
   version="1.1"
   inkscape:version="0.91 r13725"
   sodipodi:docname="Monoid Nerd Font.svg">
  <defs
     id="defs4" />
  <sodipodi:namedview
     id="base"
     pagecolor="#ffffff"
     bordercolor="#666666"
     borderopacity="1.0"
     inkscape:pageopacity="0.0"
     inkscape:pageshadow="2"
     inkscape:zoom="0.7"
     inkscape:cx="-55.148814"
     inkscape:cy="-400.44644"
     inkscape:document-units="px"
     inkscape:current-layer="layer1"
     showgrid="false"
     inkscape:window-width="1861"
     inkscape:window-height="1056"
     inkscape:window-x="59"
     inkscape:window-y="24"
     inkscape:window-maximized="1" />
  <metadata
     id="metadata7">
    <rdf:RDF>
      <cc:Work
         rdf:about="">
        <dc:format>image/svg+xml</dc:format>
        <dc:type
           rdf:resource="http://purl.org/dc/dcmitype/StillImage" />
        <dc:title />
      </cc:Work>
    </rdf:RDF>
  </metadata>
  <g
     inkscape:label="Layer 1"
     inkscape:groupmode="layer"
     id="layer1"
     transform="translate(-65.14881,-75.43884)">
    <g
       style="font-style:normal;font-weight:normal;font-size:27.5px;line-height:125%;font-family:'Monoid Nerd Font';text-decoration: underline;text-decoration-line: underline;letter-spacing:0px;word-spacing:0px;fill:#ffffff;fill-opacity:1;stroke:none;stroke-width:1px;stroke-linecap:butt;stroke-linejoin:miter;stroke-opacity:1"
       id="text4136">
      <path
         d="m 67.440477,100.93363 -2.291667,0 0,-25.208331 2.291667,0 5.639648,11.243489 0.19694,0 5.621745,-11.243489 2.291667,0 0,25.208331 -2.291667,0 0,-20.589191 -0.179036,0 -4.56543,9.13086 -1.969401,0 -4.56543,-9.13086 -0.179036,0 0,20.589191 z"
         id="path4140"
         inkscape:connector-curvature="0" />
      <path
         d="m 88.495164,83.083697 q 1.32487,-0.769857 2.989909,-0.769857 1.665039,0 2.972005,0.769857 1.32487,0.751953 2.166341,2.094727 0.698243,1.145833 0.93099,2.721354 0.232747,1.557617 0.232747,3.867187 0,2.309571 -0.232747,3.885091 -0.232747,1.557618 -0.93099,2.703451 -0.841471,1.342773 -2.166341,2.112633 -1.306966,0.75195 -2.972005,0.75195 -1.665039,0 -2.989909,-0.75195 -1.306966,-0.76986 -2.148437,-2.112633 -0.698242,-1.145833 -0.93099,-2.703451 -0.232747,-1.57552 -0.232747,-3.885091 0,-2.30957 0.232747,-3.867187 0.232748,-1.575521 0.93099,-2.721354 0.841471,-1.342774 2.148437,-2.094727 z m 6.140951,3.133138 q -1.038412,-1.754557 -3.151042,-1.754557 -2.11263,0 -3.151042,1.754557 -0.39388,0.662435 -0.59082,1.665039 -0.19694,0.984701 -0.232747,1.772461 -0.03581,0.78776 -0.03581,2.11263 0,1.32487 0.03581,2.11263 0.03581,0.787761 0.232747,1.790365 0.19694,0.984701 0.59082,1.647135 1.038412,1.754558 3.151042,1.754558 2.11263,0 3.151042,-1.754558 0.39388,-0.662434 0.59082,-1.647135 0.19694,-1.002604 0.232747,-1.790365 0.03581,-0.78776 0.03581,-2.11263 0,-1.32487 -0.03581,-2.11263 -0.03581,-0.78776 -0.232747,-1.772461 -0.19694,-1.002604 -0.59082,-1.665039 z"
         id="path4142"
         inkscape:connector-curvature="0" />
      <path
         d="m 110.15858,82.31384 q 1.28906,0 2.36328,0.519206 1.07422,0.519206 1.77246,1.396484 0.44759,0.555013 0.71614,1.145834 0.26856,0.59082 0.35808,1.306966 0.10742,0.716146 0.12532,1.18164 0.0358,0.465495 0.0358,1.306967 l 0,11.762693 -2.29167,0 0,-11.762693 q 0,-0.984701 -0.0358,-1.468099 -0.0179,-0.483399 -0.21485,-1.074219 -0.17903,-0.608724 -0.55501,-1.056315 -0.9668,-1.110026 -2.63184,-1.110026 -1.66504,0 -2.63183,1.110026 -0.37598,0.447591 -0.57292,1.056315 -0.17904,0.59082 -0.21484,1.074219 -0.0179,0.483398 -0.0179,1.468099 l 0,11.762693 -2.29166,0 0,-18.333331 2.29166,0 0,2.005208 0.17904,0 q 0.66243,-1.038412 1.62923,-1.665039 0.9847,-0.626628 1.98731,-0.626628 z"
         id="path4144"
         inkscape:connector-curvature="0" />
      <path
         d="m 125.12602,83.083697 q 1.32487,-0.769857 2.98991,-0.769857 1.66504,0 2.97201,0.769857 1.32487,0.751953 2.16634,2.094727 0.69824,1.145833 0.93099,2.721354 0.23275,1.557617 0.23275,3.867187 0,2.309571 -0.23275,3.885091 -0.23275,1.557618 -0.93099,2.703451 -0.84147,1.342773 -2.16634,2.112633 -1.30697,0.75195 -2.97201,0.75195 -1.66504,0 -2.98991,-0.75195 -1.30696,-0.76986 -2.14843,-2.112633 -0.69825,-1.145833 -0.93099,-2.703451 -0.23275,-1.57552 -0.23275,-3.885091 0,-2.30957 0.23275,-3.867187 0.23274,-1.575521 0.93099,-2.721354 0.84147,-1.342774 2.14843,-2.094727 z m 6.14095,3.133138 q -1.03841,-1.754557 -3.15104,-1.754557 -2.11263,0 -3.15104,1.754557 -0.39388,0.662435 -0.59082,1.665039 -0.19694,0.984701 -0.23275,1.772461 -0.0358,0.78776 -0.0358,2.11263 0,1.32487 0.0358,2.11263 0.0358,0.787761 0.23275,1.790365 0.19694,0.984701 0.59082,1.647135 1.03841,1.754558 3.15104,1.754558 2.11263,0 3.15104,-1.754558 0.39388,-0.662434 0.59082,-1.647135 0.19694,-1.002604 0.23275,-1.790365 0.0358,-0.78776 0.0358,-2.11263 0,-1.32487 -0.0358,-2.11263 -0.0358,-0.78776 -0.23275,-1.772461 -0.19694,-1.002604 -0.59082,-1.665039 z"
         id="path4146"
         inkscape:connector-curvature="0" />
      <path
         d="m 144.40825,75.993853 q 0.55501,-0.555013 1.4502,-0.555013 0.89518,0 1.45019,0.555013 0.55501,0.555013 0.55501,1.450196 0,0.895182 -0.55501,1.450195 -0.55501,0.555013 -1.45019,0.555013 -0.89519,0 -1.4502,-0.555013 -0.55501,-0.555013 -0.55501,-1.450195 0,-0.895183 0.55501,-1.450196 z m 0.87728,24.939777 0,-16.184894 -4.58333,0 0,-2.148437 6.875,0 0,18.333331 -2.29167,0 z"
         id="path4148"
         inkscape:connector-curvature="0" />
      <path
         d="m 164.10226,82.31384 q 1.19954,0 2.23796,0.626628 1.03841,0.608724 1.66504,1.897786 l 0.17903,0 0,-9.112955 2.29167,0 0,25.208331 -2.29167,0 0,-2.237954 -0.17903,0 q -0.62663,1.289063 -1.66504,1.915694 -1.03842,0.60872 -2.23796,0.60872 -1.77246,0 -3.15104,-1.11003 -1.37858,-1.127925 -2.00521,-3.133134 -0.23275,-0.751953 -0.35807,-1.682943 -0.10742,-0.930989 -0.12533,-1.57552 -0.0179,-0.662435 -0.0179,-1.951498 0,-1.289062 0.0179,-1.933594 0.0179,-0.662434 0.12533,-1.593424 0.12532,-0.93099 0.35807,-1.682943 0.62663,-2.005208 2.00521,-3.115234 1.37858,-1.12793 3.15104,-1.12793 z m 2.38119,2.936198 q -0.82357,-0.78776 -2.02312,-0.78776 -1.19954,0 -2.04101,0.78776 -0.82357,0.769857 -1.21745,1.933594 -0.46549,1.414388 -0.46549,4.583333 0,3.168946 0.46549,4.583334 0.39388,1.163737 1.21745,1.951497 0.84147,0.769857 2.04101,0.769857 1.19955,0 2.02312,-0.769857 0.84147,-0.78776 1.23535,-1.951497 0.46549,-1.414388 0.46549,-4.583334 0,-3.168945 -0.46549,-4.583333 -0.39388,-1.163737 -1.23535,-1.933594 z"
         id="path4150"
         inkscape:connector-curvature="0" />
      <path
         d="m 195.64848,100.93363 -2.29166,0 0,-25.208331 2.27376,0 11.2972,20.732421 0.17904,0 0,-20.732421 2.29166,0 0,25.208331 -2.29166,0 -11.2793,-20.73242 -0.17904,0 0,20.73242 z"
         id="path4152"
         inkscape:connector-curvature="0" />
      <path
         d="m 221.87733,85.035194 q -0.89519,-0.572916 -2.18425,-0.572916 -1.28906,0 -2.20215,0.572916 -0.89518,0.572917 -1.28906,1.593425 -0.37598,0.859375 -0.4834,2.989909 l 7.94922,0 q -0.10742,-2.130534 -0.4834,-2.989909 -0.39388,-1.020508 -1.30696,-1.593425 z m -5.76498,-1.71875 q 1.486,-1.002604 3.58073,-1.002604 2.09473,0 3.56283,1.002604 1.486,1.002605 2.07682,2.596029 0.30436,0.769857 0.44759,1.808268 0.16113,1.038412 0.17904,1.844076 0.0358,0.78776 0.0358,2.202148 l -10.3125,0 q 0,1.217448 0.0179,1.879883 0.0179,0.644531 0.14323,1.557617 0.14323,0.913086 0.41178,1.52181 1.03841,2.345378 3.79557,2.345378 2.07683,0 5.3711,-0.375977 l 0,2.148434 q -3.25847,0.37598 -5.3711,0.37598 -2.22005,0 -3.74186,-1.03841 -1.52181,-1.038413 -2.20215,-2.703452 -0.46549,-1.127929 -0.59082,-2.416992 -0.12532,-1.289062 -0.12532,-3.294271 0,-1.414388 0.0179,-2.202148 0.0358,-0.805664 0.17904,-1.844076 0.16113,-1.038411 0.46549,-1.808268 0.59082,-1.593424 2.05892,-2.596029 z"
         id="path4154"
         inkscape:connector-curvature="0" />
      <path
         d="m 240.51502,84.462278 q -2.43489,0 -3.84928,1.306966 -0.73405,0.680338 -1.19955,1.503906 -0.46549,0.823568 -0.64453,1.844076 -0.17903,1.002604 -0.21484,1.629231 -0.0358,0.626628 -0.0358,1.682943 l 0,8.50423 -2.29167,0 0,-18.333331 2.29167,0 0,2.846679 0.17904,0 q 1.11002,-1.503906 2.4528,-2.30957 1.36067,-0.823568 3.31217,-0.823568 1.32487,0 3.22266,0.232748 l 0,2.148437 q -1.89779,-0.232747 -3.22266,-0.232747 z"
         id="path4156"
         inkscape:connector-curvature="0" />
      <path
         d="m 255.67941,82.31384 q 1.19954,0 2.23795,0.626628 1.03842,0.608724 1.66504,1.897786 l 0.17904,0 0,-9.112955 2.29167,0 0,25.208331 -2.29167,0 0,-2.237954 -0.17904,0 q -0.62662,1.289063 -1.66504,1.915694 -1.03841,0.60872 -2.23795,0.60872 -1.77246,0 -3.15104,-1.11003 -1.37858,-1.127925 -2.00521,-3.133134 -0.23275,-0.751953 -0.35807,-1.682943 -0.10743,-0.930989 -0.12533,-1.57552 -0.0179,-0.662435 -0.0179,-1.951498 0,-1.289062 0.0179,-1.933594 0.0179,-0.662434 0.12533,-1.593424 0.12532,-0.93099 0.35807,-1.682943 0.62663,-2.005208 2.00521,-3.115234 1.37858,-1.12793 3.15104,-1.12793 z m 2.38118,2.936198 q -0.82356,-0.78776 -2.02311,-0.78776 -1.19954,0 -2.04101,0.78776 -0.82357,0.769857 -1.21745,1.933594 -0.4655,1.414388 -0.4655,4.583333 0,3.168946 0.4655,4.583334 0.39388,1.163737 1.21745,1.951497 0.84147,0.769857 2.04101,0.769857 1.19955,0 2.02311,-0.769857 0.84148,-0.78776 1.23536,-1.951497 0.46549,-1.414388 0.46549,-4.583334 0,-3.168945 -0.46549,-4.583333 -0.39388,-1.163737 -1.23536,-1.933594 z"
         id="path4158"
         inkscape:connector-curvature="0" />
      <path
         d="m 287.22563,75.725299 13.75,0 0,2.148437 -11.45833,0 0,9.453125 9.16667,0 0,2.148438 -9.16667,0 0,11.458331 -2.29167,0 0,-25.208331 z"
         id="path4160"
         inkscape:connector-curvature="0" />
      <path
         d="m 308.28032,83.083697 q 1.32487,-0.769857 2.98991,-0.769857 1.66504,0 2.972,0.769857 1.32487,0.751953 2.16635,2.094727 0.69824,1.145833 0.93099,2.721354 0.23274,1.557617 0.23274,3.867187 0,2.309571 -0.23274,3.885091 -0.23275,1.557618 -0.93099,2.703451 -0.84148,1.342773 -2.16635,2.112633 -1.30696,0.75195 -2.972,0.75195 -1.66504,0 -2.98991,-0.75195 -1.30697,-0.76986 -2.14844,-2.112633 -0.69824,-1.145833 -0.93099,-2.703451 -0.23274,-1.57552 -0.23274,-3.885091 0,-2.30957 0.23274,-3.867187 0.23275,-1.575521 0.93099,-2.721354 0.84147,-1.342774 2.14844,-2.094727 z m 6.14095,3.133138 q -1.03841,-1.754557 -3.15104,-1.754557 -2.11263,0 -3.15104,1.754557 -0.39388,0.662435 -0.59082,1.665039 -0.19694,0.984701 -0.23275,1.772461 -0.0358,0.78776 -0.0358,2.11263 0,1.32487 0.0358,2.11263 0.0358,0.787761 0.23275,1.790365 0.19694,0.984701 0.59082,1.647135 1.03841,1.754558 3.15104,1.754558 2.11263,0 3.15104,-1.754558 0.39388,-0.662434 0.59082,-1.647135 0.19694,-1.002604 0.23275,-1.790365 0.0358,-0.78776 0.0358,-2.11263 0,-1.32487 -0.0358,-2.11263 -0.0358,-0.78776 -0.23275,-1.772461 -0.19694,-1.002604 -0.59082,-1.665039 z"
         id="path4162"
         inkscape:connector-curvature="0" />
      <path
         d="m 329.94373,82.31384 q 1.28906,0 2.36328,0.519206 1.07422,0.519206 1.77246,1.396484 0.4476,0.555013 0.71615,1.145834 0.26855,0.59082 0.35807,1.306966 0.10742,0.716146 0.12533,1.18164 0.0358,0.465495 0.0358,1.306967 l 0,11.762693 -2.29167,0 0,-11.762693 q 0,-0.984701 -0.0358,-1.468099 -0.0179,-0.483399 -0.21484,-1.074219 -0.17904,-0.608724 -0.55502,-1.056315 -0.96679,-1.110026 -2.63183,-1.110026 -1.66504,0 -2.63184,1.110026 -0.37597,0.447591 -0.57291,1.056315 -0.17904,0.59082 -0.21485,1.074219 -0.0179,0.483398 -0.0179,1.468099 l 0,11.762693 -2.29167,0 0,-18.333331 2.29167,0 0,2.005208 0.17904,0 q 0.66243,-1.038412 1.62923,-1.665039 0.9847,-0.626628 1.9873,-0.626628 z"
         id="path4164"
         inkscape:connector-curvature="0" />
      <path
         d="m 353.63026,100.95154 q -1.91569,0.26855 -3.4375,0.26855 -1.4323,0 -2.61394,-0.51921 -1.16373,-0.5192 -1.89778,-1.414384 -0.57292,-0.680338 -0.85938,-1.593424 -0.28646,-0.913086 -0.32226,-1.52181 -0.0358,-0.608724 -0.0358,-1.682943 l 0,-9.632161 -4.58333,0 0,-2.255859 4.58333,0 0,-4.583334 2.29167,0 0,4.583334 6.875,0 0,2.255859 -6.875,0 0,9.453125 q 0,0.9847 0.0179,1.468099 0.0358,0.483398 0.21484,1.110026 0.17904,0.626628 0.53711,1.074219 0.93099,1.110026 2.84668,1.110026 1.27116,0 3.25847,-0.268555 l 0,2.148442 z"
         id="path4166"
         inkscape:connector-curvature="0" />
    </g>
    <g
       style="font-style:normal;font-weight:normal;font-size:27.5px;line-height:125%;font-family:'Monoid Nerd Font';letter-spacing:0px;word-spacing:0px;fill:#ffffff;fill-opacity:1;stroke:none;stroke-width:1px;stroke-linecap:butt;stroke-linejoin:miter;stroke-opacity:1"
       id="text4140">
      <path
         d="m 74.169403,135.10029 -2.233073,0 q -0.421549,0 -0.660807,0.0228 -0.227865,0.0228 -0.581055,0.1709 -0.35319,0.13671 -0.626627,0.42155 -0.638021,0.6722 -0.638021,1.76595 0,0.96842 0.546875,1.61783 0.558268,0.64942 1.503906,0.64942 0.546875,0 0.968424,-0.15951 0.432943,-0.1595 0.706381,-0.39876 0.28483,-0.23926 0.478515,-0.62663 0.205078,-0.38737 0.296224,-0.71777 0.102539,-0.3418 0.159505,-0.80892 0.05697,-0.46712 0.06836,-0.76335 0.01139,-0.29622 0.01139,-0.70638 l 0,-0.46712 z m -1.822917,-6.01562 q 0.979818,0 1.720378,0.30761 0.74056,0.29623 1.219076,1.13933 0.341796,0.60384 0.341796,1.86849 l 0,8.53352 -1.458333,0 0,-1.40136 -0.113932,0 q -1.150716,1.58366 -2.848308,1.58366 -1.367187,0 -2.301432,-1.02539 -0.934245,-1.0254 -0.934245,-2.58627 0,-1.64062 1.002605,-2.64323 0.364583,-0.35319 0.774739,-0.58105 0.410156,-0.22787 0.854492,-0.30762 0.45573,-0.0911 0.706381,-0.10254 0.262044,-0.0228 0.649414,-0.0228 l 2.210286,0 0,-1.38998 q 0,-0.99121 -0.205078,-1.3444 -0.193685,-0.3304 -0.558268,-0.48991 -0.35319,-0.1709 -1.059571,-0.1709 -1.367187,0 -3.28125,0.23926 l 0,-1.38997 q 1.879883,-0.21647 3.28125,-0.21647 z"
         style="font-size:17.5px"
         id="path4169"
         inkscape:connector-curvature="0" />
      <path
         d="m 84.047333,129.08467 q 1.127929,0 2.005208,0.71777 0.877279,0.70638 1.276042,1.98242 0.148112,0.47852 0.216471,1.07096 0.07975,0.59245 0.09115,1.014 0.01139,0.41016 0.01139,1.23047 0,0.82031 -0.01139,1.24186 -0.01139,0.41016 -0.09115,1.00261 -0.06836,0.59244 -0.216471,1.07096 -0.398763,1.27604 -1.276042,1.99382 -0.877279,0.70638 -2.005208,0.70638 -1.458334,0 -2.483724,-1.60645 l -0.113932,0 0,1.42415 -1.458334,0 0,-16.04166 1.458334,0 0,5.79915 0.113932,0 q 1.02539,-1.60644 2.483724,-1.60644 z m 1.05957,1.86849 q -0.524088,-0.50131 -1.287435,-0.50131 -0.763346,0 -1.298828,0.50131 -0.524088,0.4899 -0.77474,1.23046 -0.296223,0.90007 -0.296223,2.91667 0,2.0166 0.296223,2.91667 0.250652,0.74056 0.77474,1.24186 0.535482,0.48991 1.298828,0.48991 0.763347,0 1.287435,-0.48991 0.535482,-0.5013 0.786133,-1.24186 0.296224,-0.90007 0.296224,-2.91667 0,-2.0166 -0.296224,-2.91667 -0.250651,-0.74056 -0.786133,-1.23046 z"
         style="font-size:17.5px"
         id="path4171"
         inkscape:connector-curvature="0" />
      <path
         d="m 91.361786,137.19665 q -0.07975,-0.82032 -0.07975,-2.09636 0,-1.27604 0.07975,-2.09635 0.09115,-0.82032 0.410156,-1.53809 1.036784,-2.38118 3.862305,-2.38118 1.139323,0 3.076172,0.19368 l 0,1.36719 q -1.959636,-0.19369 -3.076172,-0.19369 -0.979818,0 -1.560873,0.37598 -0.569661,0.36458 -0.934244,1.11654 -0.182292,0.38737 -0.284831,0.96842 -0.09115,0.58106 -0.102539,1.00261 -0.01139,0.41015 -0.01139,1.18489 0,0.77474 0.01139,1.19629 0.01139,0.41016 0.102539,0.99121 0.102539,0.58106 0.284831,0.96843 0.364583,0.75195 0.934244,1.12793 0.581055,0.36458 1.560873,0.36458 1.333008,0 3.304036,-0.29623 l 0,1.36719 q -1.959635,0.29623 -3.304036,0.29623 -2.825521,0 -3.862305,-2.38119 -0.31901,-0.71777 -0.410156,-1.53808 z"
         style="font-size:17.5px"
         id="path4173"
         inkscape:connector-curvature="0" />
      <path
         d="m 106.53757,129.08467 q 0.76334,0 1.42415,0.39876 0.66081,0.38737 1.05957,1.20768 l 0.11393,0 0,-5.79915 1.45834,0 0,16.04166 -1.45834,0 0,-1.42415 -0.11393,0 q -0.39876,0.82031 -1.05957,1.21908 -0.66081,0.38737 -1.42415,0.38737 -1.12793,0 -2.00521,-0.70638 -0.87728,-0.71778 -1.27604,-1.99382 -0.14811,-0.47852 -0.22787,-1.07096 -0.0684,-0.59245 -0.0798,-1.00261 -0.0114,-0.42155 -0.0114,-1.24186 0,-0.82031 0.0114,-1.23047 0.0114,-0.42155 0.0798,-1.014 0.0798,-0.59244 0.22787,-1.07096 0.39876,-1.27604 1.27604,-1.98242 0.87728,-0.71777 2.00521,-0.71777 z m 1.5153,1.86849 q -0.52409,-0.50131 -1.28744,-0.50131 -0.76334,0 -1.29883,0.50131 -0.52408,0.4899 -0.77474,1.23046 -0.29622,0.90007 -0.29622,2.91667 0,2.0166 0.29622,2.91667 0.25066,0.74056 0.77474,1.24186 0.53549,0.48991 1.29883,0.48991 0.76335,0 1.28744,-0.48991 0.53548,-0.5013 0.78613,-1.24186 0.29622,-0.90007 0.29622,-2.91667 0,-2.0166 -0.29622,-2.91667 -0.25065,-0.74056 -0.78613,-1.23046 z"
         style="font-size:17.5px"
         id="path4175"
         inkscape:connector-curvature="0" />
      <path
         d="m 119.99297,130.81644 q -0.56966,-0.36459 -1.38997,-0.36459 -0.82032,0 -1.40137,0.36459 -0.56966,0.36458 -0.82031,1.01399 -0.23926,0.54688 -0.30762,1.90267 l 5.05859,0 q -0.0684,-1.35579 -0.30761,-1.90267 -0.25065,-0.64941 -0.83171,-1.01399 z m -3.66862,-1.09375 q 0.94564,-0.63802 2.27865,-0.63802 1.333,0 2.26725,0.63802 0.94564,0.63802 1.32161,1.65201 0.19369,0.48991 0.28483,1.15072 0.10254,0.66081 0.11394,1.1735 0.0228,0.50131 0.0228,1.40137 l -6.5625,0 q 0,0.77474 0.0114,1.19629 0.0114,0.41016 0.0911,0.99121 0.0911,0.58106 0.26205,0.96843 0.6608,1.49251 2.41536,1.49251 1.32162,0 3.41797,-0.23926 l 0,1.36719 q -2.07357,0.23926 -3.41797,0.23926 -1.41276,0 -2.38118,-0.66081 -0.96843,-0.66081 -1.40137,-1.72038 -0.29622,-0.71777 -0.37598,-1.53808 -0.0798,-0.82032 -0.0798,-2.09636 0,-0.90006 0.0114,-1.40137 0.0228,-0.51269 0.11394,-1.1735 0.10253,-0.66081 0.29622,-1.15072 0.37598,-1.01399 1.31022,-1.65201 z"
         style="font-size:17.5px"
         id="path4177"
         inkscape:connector-curvature="0" />
      <path
         d="m 129.5291,140.93362 -1.45833,0 0,-8.84114 -2.91667,0 0,-1.36719 2.91667,0 0,-2.65462 q 0,-0.43294 0.0114,-0.69499 0.0228,-0.27344 0.15951,-0.74056 0.14811,-0.47851 0.42155,-0.8431 0.37597,-0.51269 1.03678,-0.79752 0.6722,-0.28483 1.5153,-0.28483 1.07097,0 2.6888,0.18229 l 0,1.36719 q -1.61783,-0.1823 -2.6888,-0.1823 -0.97982,0 -1.36719,0.5127 -0.31901,0.42155 -0.31901,1.48112 l 0,2.65462 4.375,0 0,1.36719 -4.375,0 0,8.84114 z"
         style="font-size:17.5px"
         id="path4179"
         inkscape:connector-curvature="0" />
      <path
         d="m 140.32988,130.97594 q -0.96842,0.90007 -0.96842,3.39518 0,2.49512 0.96842,3.39519 0.55827,0.52409 1.40137,0.52409 0.8431,0 1.40137,-0.52409 0.96842,-0.90007 0.96842,-3.39519 0,-2.49511 -0.96842,-3.39518 -0.55827,-0.52409 -1.40137,-0.52409 -0.8431,0 -1.40137,0.52409 z m 3.77116,7.0752 -0.11393,0 q -1.03678,1.60644 -2.48372,1.60644 -1.3444,0 -2.29004,-0.92285 -1.31022,-1.29883 -1.31022,-4.36361 0,-3.06477 1.31022,-4.3636 0.94564,-0.92285 2.29004,-0.92285 1.44694,0 2.48372,1.60644 l 0.11393,0 0,-1.42415 1.45834,0 0,9.84375 q 0,1.94824 -0.69499,3.11035 -1.08236,1.81152 -3.40658,1.81152 -1.32161,0 -2.6888,-0.1709 l 0,-1.36718 q 1.53809,0.1709 2.6888,0.1709 1.44694,0 2.14193,-1.11654 0.5013,-0.80892 0.5013,-2.43815 l 0,-1.05957 z"
         style="font-size:17.5px"
         id="path4181"
         inkscape:connector-curvature="0" />
      <path
         d="m 153.79668,129.08467 q 0.82031,0 1.50391,0.3304 0.68359,0.3304 1.12793,0.88867 0.28483,0.35319 0.45573,0.72917 0.1709,0.37597 0.22786,0.8317 0.0684,0.45573 0.0797,0.75196 0.0228,0.29622 0.0228,0.8317 l 0,7.48535 -1.45833,0 0,-7.48535 q 0,-0.62662 -0.0228,-0.93424 -0.0114,-0.30762 -0.13672,-0.6836 -0.11393,-0.38737 -0.35319,-0.6722 -0.61523,-0.70638 -1.6748,-0.70638 -1.05957,0 -1.67481,0.70638 -0.23926,0.28483 -0.36458,0.6722 -0.11393,0.37598 -0.13672,0.6836 -0.0114,0.30762 -0.0114,0.93424 l 0,7.48535 -1.45834,0 0,-16.04166 1.45834,0 0,5.65104 0.11393,0 q 0.42155,-0.66081 1.03678,-1.05957 0.62663,-0.39876 1.26465,-0.39876 z"
         style="font-size:17.5px"
         id="path4183"
         inkscape:connector-curvature="0" />
      <path
         d="m 163.93666,125.06286 q 0.35319,-0.35319 0.92285,-0.35319 0.56966,0 0.92285,0.35319 0.35319,0.35319 0.35319,0.92285 0,0.56966 -0.35319,0.92285 -0.35319,0.35319 -0.92285,0.35319 -0.56966,0 -0.92285,-0.35319 -0.35319,-0.35319 -0.35319,-0.92285 0,-0.56966 0.35319,-0.92285 z m 0.55826,15.87076 0,-10.29947 -2.91666,0 0,-1.36719 4.375,0 0,11.66666 -1.45834,0 z"
         style="font-size:17.5px"
         id="path4185"
         inkscape:connector-curvature="0" />
      <path
         d="m 176.15022,139.11071 0,-8.47656 -2.91667,0 0,-1.36719 4.375,0 0,9.84375 q 0,1.94824 -0.69499,3.11035 -1.08235,1.81152 -3.40657,1.81152 -1.32162,0 -2.6888,-0.1709 l 0,-1.36718 q 1.53808,0.1709 2.6888,0.1709 1.44694,0 2.14193,-1.11654 0.5013,-0.80892 0.5013,-2.43815 z m -0.55827,-14.04785 q 0.35319,-0.35319 0.92285,-0.35319 0.56966,0 0.92285,0.35319 0.35319,0.35319 0.35319,0.92285 0,0.56966 -0.35319,0.92285 -0.35319,0.35319 -0.92285,0.35319 -0.56966,0 -0.92285,-0.35319 -0.35319,-0.35319 -0.35319,-0.92285 0,-0.56966 0.35319,-0.92285 z"
         style="font-size:17.5px"
         id="path4187"
         inkscape:connector-curvature="0" />
      <path
         d="m 186.34714,140.93362 -1.45834,0 0,-16.04166 1.45834,0 0,9.18294 4.67122,-4.80794 1.83431,0 -4.13574,4.31803 4.67122,7.34863 -1.77734,0 -3.83952,-6.3802 -1.42415,1.42415 0,4.95605 z"
         style="font-size:17.5px"
         id="path4189"
         inkscape:connector-curvature="0" />
      <path
         d="m 203.83574,141.05895 q -1.08235,0.057 -1.57226,0.057 -1.21908,0 -1.97103,-0.77474 -0.38737,-0.39877 -0.58105,-0.92286 -0.19369,-0.53548 -0.22787,-0.84309 -0.0228,-0.31901 -0.0228,-0.82032 l 0,-12.86295 1.45834,0 0,12.86295 q 0,0.35319 0.0114,0.54688 0.0114,0.19368 0.0797,0.46712 0.0798,0.27344 0.22787,0.47852 0.37597,0.5013 1.13932,0.5013 0.77474,0 1.45833,-0.057 l 0,1.36719 z"
         style="font-size:17.5px"
         id="path4191"
         inkscape:connector-curvature="0" />
      <path
         d="m 209.99948,129.08467 q 0.68359,0 1.21908,0.35319 0.54687,0.34179 0.86588,0.91145 0.96843,-1.26464 2.29004,-1.26464 1.25326,0 1.98242,0.97981 0.27344,0.37598 0.41016,0.83171 0.13672,0.45573 0.1595,0.78613 0.0228,0.31901 0.0228,0.93425 l 0,8.31705 -1.45833,0 0,-8.31705 q 0,-0.48991 -0.0114,-0.71778 -0.0114,-0.22786 -0.0911,-0.51269 -0.0797,-0.28483 -0.23926,-0.46712 -0.41016,-0.46713 -1.11654,-0.46713 -0.70638,0 -1.11653,0.46713 -0.15951,0.18229 -0.23926,0.46712 -0.0797,0.28483 -0.0911,0.51269 -0.0114,0.22787 -0.0114,0.71778 l 0,8.31705 -1.45833,0 0,-8.31705 q 0,-0.48991 -0.0114,-0.71778 -0.0114,-0.22786 -0.0911,-0.51269 -0.0797,-0.28483 -0.23926,-0.46712 -0.41016,-0.46713 -1.11654,-0.46713 -0.70638,0 -1.11653,0.46713 -0.15951,0.18229 -0.23926,0.46712 -0.0797,0.28483 -0.0911,0.51269 -0.0114,0.22787 -0.0114,0.71778 l 0,8.31705 -1.45833,0 0,-11.66666 1.45833,0 0,0.85449 0.11393,0 q 0.70638,-1.03678 1.6862,-1.03678 z"
         style="font-size:17.5px"
         id="path4193"
         inkscape:connector-curvature="0" />
      <path
         d="m 223.72832,129.08467 q 0.82031,0 1.50391,0.3304 0.68359,0.3304 1.12793,0.88867 0.28483,0.35319 0.45573,0.72917 0.1709,0.37597 0.22786,0.8317 0.0684,0.45573 0.0798,0.75196 0.0228,0.29622 0.0228,0.8317 l 0,7.48535 -1.45833,0 0,-7.48535 q 0,-0.62662 -0.0228,-0.93424 -0.0114,-0.30762 -0.13672,-0.6836 -0.11393,-0.38737 -0.35319,-0.6722 -0.61523,-0.70638 -1.6748,-0.70638 -1.05957,0 -1.67481,0.70638 -0.23925,0.28483 -0.36458,0.6722 -0.11393,0.37598 -0.13672,0.6836 -0.0114,0.30762 -0.0114,0.93424 l 0,7.48535 -1.45834,0 0,-11.66666 1.45834,0 0,1.27604 0.11393,0 q 0.42155,-0.66081 1.03678,-1.05957 0.62663,-0.39876 1.26465,-0.39876 z"
         style="font-size:17.5px"
         id="path4195"
         inkscape:connector-curvature="0" />
      <path
         d="m 233.25306,129.57457 q 0.8431,-0.4899 1.90267,-0.4899 1.05957,0 1.89128,0.4899 0.8431,0.47852 1.37858,1.33301 0.44433,0.72917 0.59245,1.73177 0.14811,0.99121 0.14811,2.46094 0,1.46973 -0.14811,2.47233 -0.14812,0.99121 -0.59245,1.72038 -0.53548,0.85449 -1.37858,1.3444 -0.83171,0.47852 -1.89128,0.47852 -1.05957,0 -1.90267,-0.47852 -0.8317,-0.48991 -1.36719,-1.3444 -0.44433,-0.72917 -0.59244,-1.72038 -0.14812,-1.0026 -0.14812,-2.47233 0,-1.46973 0.14812,-2.46094 0.14811,-1.0026 0.59244,-1.73177 0.53549,-0.85449 1.36719,-1.33301 z m 3.90788,1.99382 q -0.66081,-1.11654 -2.00521,-1.11654 -1.3444,0 -2.00521,1.11654 -0.25065,0.42155 -0.37597,1.05957 -0.12533,0.62663 -0.14812,1.12793 -0.0228,0.5013 -0.0228,1.3444 0,0.8431 0.0228,1.3444 0.0228,0.5013 0.14812,1.13932 0.12532,0.62663 0.37597,1.04818 0.66081,1.11654 2.00521,1.11654 1.3444,0 2.00521,-1.11654 0.25065,-0.42155 0.37598,-1.04818 0.12532,-0.63802 0.14811,-1.13932 0.0228,-0.5013 0.0228,-1.3444 0,-0.8431 -0.0228,-1.3444 -0.0228,-0.5013 -0.14811,-1.12793 -0.12533,-0.63802 -0.37598,-1.05957 z"
         style="font-size:17.5px"
         id="path4197"
         inkscape:connector-curvature="0" />
      <path
         d="m 247.22116,141.11592 q -1.45833,0 -2.48372,-1.60645 l -0.11394,0 0,5.79915 -1.45833,0 0,-16.04166 1.45833,0 0,1.42415 0.11394,0 q 1.02539,-1.60644 2.48372,-1.60644 1.12793,0 2.00521,0.71777 0.87728,0.70638 1.27604,1.98242 0.14811,0.47852 0.21647,1.07096 0.0797,0.59245 0.0911,1.014 0.0114,0.41016 0.0114,1.23047 0,0.82031 -0.0114,1.24186 -0.0114,0.41016 -0.0911,1.00261 -0.0684,0.59244 -0.21647,1.07096 -0.39876,1.27604 -1.27604,1.99382 -0.87728,0.70638 -2.00521,0.70638 z m -1.52669,-1.8571 q 0.53548,0.48991 1.29883,0.48991 0.76334,0 1.28743,-0.48991 0.53548,-0.5013 0.78613,-1.24186 0.29623,-0.90007 0.29623,-2.91667 0,-2.0166 -0.29623,-2.91667 -0.25065,-0.74056 -0.78613,-1.23046 -0.52409,-0.50131 -1.28743,-0.50131 -0.76335,0 -1.29883,0.50131 -0.52409,0.4899 -0.77474,1.23046 -0.29623,0.90007 -0.29623,2.91667 0,2.0166 0.29623,2.91667 0.25065,0.74056 0.77474,1.24186 z"
         style="font-size:17.5px"
         id="path4199"
         inkscape:connector-curvature="0" />
      <path
         d="m 258.05612,141.11592 q -1.12793,0 -2.00521,-0.70638 -0.87728,-0.71778 -1.27604,-1.99382 -0.14811,-0.47852 -0.22786,-1.07096 -0.0684,-0.59245 -0.0798,-1.00261 -0.0114,-0.42155 -0.0114,-1.24186 0,-0.82031 0.0114,-1.23047 0.0114,-0.42155 0.0798,-1.014 0.0797,-0.59244 0.22786,-1.07096 0.39876,-1.27604 1.27604,-1.98242 0.87728,-0.71777 2.00521,-0.71777 1.45834,0 2.48373,1.60644 l 0.11393,0 0,-1.42415 1.45833,0 0,16.04166 -1.45833,0 0,-5.79915 -0.11393,0 q -1.02539,1.60645 -2.48373,1.60645 z m -1.07096,-1.8571 q 0.53548,0.48991 1.29883,0.48991 0.76334,0 1.28743,-0.48991 0.53548,-0.5013 0.78613,-1.24186 0.29623,-0.90007 0.29623,-2.91667 0,-2.0166 -0.29623,-2.91667 -0.25065,-0.74056 -0.78613,-1.23046 -0.52409,-0.50131 -1.28743,-0.50131 -0.76335,0 -1.29883,0.50131 -0.52409,0.4899 -0.77474,1.23046 -0.29623,0.90007 -0.29623,2.91667 0,2.0166 0.29623,2.91667 0.25065,0.74056 0.77474,1.24186 z"
         style="font-size:17.5px"
         id="path4201"
         inkscape:connector-curvature="0" />
      <path
         d="m 271.7166,130.45185 q -1.54948,0 -2.44954,0.83171 -0.46712,0.43294 -0.76335,0.95703 -0.29622,0.52409 -0.41015,1.1735 -0.11394,0.63802 -0.13672,1.03679 -0.0228,0.39876 -0.0228,1.07096 l 0,5.41178 -1.45833,0 0,-11.66666 1.45833,0 0,1.81152 0.11393,0 q 0.70638,-0.95703 1.56088,-1.46973 0.86588,-0.52408 2.10774,-0.52408 0.8431,0 2.05078,0.14811 l 0,1.36719 q -1.20768,-0.14812 -2.05078,-0.14812 z"
         style="font-size:17.5px"
         id="path4203"
         inkscape:connector-curvature="0" />
      <path
         d="m 281.67429,141.11592 q -1.31023,0 -3.5433,-0.25066 l 0,-1.36718 q 2.13054,0.25065 3.5433,0.25065 0.61523,0 1.09375,-0.14811 0.47851,-0.15951 0.76334,-0.39877 0.29623,-0.25065 0.47852,-0.56966 0.18229,-0.31901 0.25065,-0.61523 0.0684,-0.29623 0.0684,-0.59245 0,-0.6722 -0.31901,-1.1735 -0.30762,-0.50131 -0.82031,-0.76335 -0.50131,-0.26204 -1.66342,-0.36458 -1.16211,-0.11393 -1.73177,-0.3418 -0.79752,-0.30762 -1.35579,-1.014 -0.55827,-0.70638 -0.55827,-1.6748 0,-1.26465 0.99121,-2.13054 1.00261,-0.87727 2.8597,-0.87727 1.26465,0 3.57748,0.23925 l 0,1.36719 q -2.33562,-0.23926 -3.57748,-0.23926 -1.26465,0 -1.83431,0.48991 -0.55827,0.47852 -0.55827,1.15072 0,0.51269 0.28483,0.87728 0.28484,0.36458 0.71778,0.53548 0.43294,0.1709 1.65202,0.29622 1.21907,0.12533 1.90267,0.47852 0.84309,0.43294 1.36718,1.26465 0.52409,0.82031 0.52409,1.87988 0,0.71777 -0.26204,1.36719 -0.26205,0.64941 -0.75196,1.1735 -0.4899,0.52409 -1.29882,0.8431 -0.79753,0.30762 -1.80013,0.30762 z"
         style="font-size:17.5px"
         id="path4205"
         inkscape:connector-curvature="0" />
      <path
         d="m 297.07793,140.94502 q -1.21907,0.1709 -2.1875,0.1709 -0.91146,0 -1.66341,-0.33041 -0.74056,-0.3304 -1.20768,-0.90006 -0.36459,-0.43295 -0.54688,-1.014 -0.18229,-0.58105 -0.20508,-0.96842 -0.0228,-0.38737 -0.0228,-1.07097 l 0,-6.12956 -2.91667,0 0,-1.43554 2.91667,0 0,-2.91667 1.45833,0 0,2.91667 4.375,0 0,1.43554 -4.375,0 0,6.01563 q 0,0.62663 0.0114,0.93424 0.0228,0.30762 0.13672,0.70638 0.11394,0.39877 0.3418,0.6836 0.59245,0.70638 1.81152,0.70638 0.80892,0 2.07357,-0.1709 l 0,1.36719 z"
         style="font-size:17.5px"
         id="path4207"
         inkscape:connector-curvature="0" />
      <path
         d="m 304.85951,141.11592 q -0.82032,0 -1.50391,-0.33041 -0.68359,-0.3304 -1.12793,-0.88867 -0.28483,-0.35319 -0.45573,-0.72917 -0.1709,-0.37597 -0.23926,-0.8317 -0.057,-0.45573 -0.0798,-0.75196 -0.0114,-0.29622 -0.0114,-0.8317 l 0,-7.48535 1.45833,0 0,7.48535 q 0,0.62663 0.0114,0.93424 0.0228,0.30762 0.13671,0.69499 0.12533,0.37598 0.36459,0.66081 0.61523,0.70638 1.6748,0.70638 1.05957,0 1.67481,-0.70638 0.23925,-0.28483 0.35319,-0.66081 0.12532,-0.38737 0.13672,-0.69499 0.0228,-0.30761 0.0228,-0.93424 l 0,-7.48535 1.45834,0 0,11.66666 -1.45834,0 0,-1.27604 -0.11393,0 q -0.42155,0.66081 -1.04818,1.05957 -0.61523,0.39877 -1.25325,0.39877 z"
         style="font-size:17.5px"
         id="path4209"
         inkscape:connector-curvature="0" />
      <path
         d="m 316.79961,139.01956 q 1.54948,-3.78255 2.6888,-9.7526 l 1.49252,0 q -0.64942,3.39518 -1.49252,6.25488 -0.8317,2.84831 -2.08496,5.41178 l -1.32161,0 q -1.25326,-2.56347 -2.09636,-5.41178 -0.8317,-2.8597 -1.48112,-6.25488 l 1.49252,0 q 1.13932,5.95866 2.6888,9.7526 l 0.11393,0 z"
         style="font-size:17.5px"
         id="path4211"
         inkscape:connector-curvature="0" />
      <path
         d="m 327.69154,132.19502 1.41276,0 1.86849,7.14355 0.11393,0 q 1.1735,-4.51172 1.1735,-10.07161 l 1.45834,0 q 0,5.85612 -1.69759,11.66666 l -1.75456,0 -1.81153,-6.68782 -0.11393,0 -1.81152,6.68782 -1.75456,0 q -1.69759,-5.81054 -1.69759,-11.66666 l 1.45833,0 q 0,5.55989 1.17351,10.07161 l 0.11393,0 1.86849,-7.14355 z"
         style="font-size:17.5px"
         id="path4213"
         inkscape:connector-curvature="0" />
      <path
         d="m 339.99623,133.59638 0.11393,0 2.54069,-4.32942 1.90267,0 -3.65723,5.38899 0,0.11394 3.90788,6.16373 -1.91406,0 -2.77995,-5.10416 -0.11393,0 -2.77995,5.10416 -1.91406,0 3.90787,-6.16373 0,-0.11394 -3.65722,-5.38899 1.90267,0 2.54069,4.32942 z"
         style="font-size:17.5px"
         id="path4215"
         inkscape:connector-curvature="0" />
      <path
         d="m 352.03887,138.19925 q 1.08236,-3.32682 2.42676,-8.93229 l 1.49251,0 q -0.057,0.21647 -0.27344,1.08235 -0.20508,0.8545 -0.26204,1.10515 -0.057,0.23926 -0.25065,1.01399 -0.19369,0.76335 -0.28483,1.08236 -0.0798,0.30762 -0.26205,1.014 -0.18229,0.69499 -0.30761,1.09375 -0.11394,0.39876 -0.30762,1.05957 -0.19369,0.66081 -0.36459,1.1735 -0.1595,0.5127 -0.37597,1.15072 -0.20508,0.63802 -0.42155,1.26465 -0.27344,0.77474 -0.43294,1.16211 -0.14812,0.39876 -0.43295,0.90006 -0.28483,0.5013 -0.61523,0.76335 -1.07096,0.90006 -3.30404,0.90006 l 0,-1.36718 q 1.62923,0 2.23308,-0.46713 0.26204,-0.19368 0.47851,-0.59245 0.22787,-0.39876 0.35319,-0.74056 0.13672,-0.34179 0.5013,-1.38997 l -0.59244,0 q -1.23047,-2.23307 -2.06218,-4.7168 -0.82031,-2.48372 -1.50391,-5.49153 l 1.49252,0 q 1.18489,5.44596 2.96224,8.93229 l 0.11393,0 z"
         style="font-size:17.5px"
         id="path4217"
         inkscape:connector-curvature="0" />
      <path
         d="m 359.94577,130.63415 0,-1.36719 6.83594,0 0,1.02539 -5.41179,9.16015 0,0.11394 5.63965,0 0,1.36718 -7.29166,0 0,-1.04817 5.41178,-9.13737 0,-0.11393 -5.18392,0 z"
         style="font-size:17.5px"
         id="path4219"
         inkscape:connector-curvature="0" />
      <path
         d="m 66.592906,162.80862 q 1.013997,-9.54752 4.648437,-16.04166 l 1.48112,0 q 3.63444,6.49414 4.648437,16.04166 l -1.538085,0 q -0.170899,-2.06217 -0.626628,-4.42057 l -6.448568,0 q -0.05697,0.35319 -0.170898,1.04818 -0.113933,0.68359 -0.182292,1.12793 -0.06836,0.44433 -0.148112,1.07096 -0.07975,0.62663 -0.125325,1.1735 l -1.538086,0 z m 8.374023,-5.78776 q -0.660807,-2.79134 -1.333008,-4.89908 -0.6722,-2.10775 -1.595052,-3.8851 l -0.113932,0 q -0.922852,1.77735 -1.595052,3.8851 -0.672201,2.10774 -1.333008,4.89908 l 5.970052,0 z"
         style="font-size:17.5px"
         id="path4221"
         inkscape:connector-curvature="0" />
      <path
         d="m 82.190236,154.05862 q 1.276042,0 1.731771,-0.11393 0.945638,-0.22786 1.5153,-0.97982 0.569661,-0.76334 0.569661,-1.86849 0,-1.11653 -0.581055,-1.87988 -0.569661,-0.76334 -1.503906,-0.96842 -0.512695,-0.11393 -1.731771,-0.11393 l -2.198893,0 0,5.92447 2.198893,0 z m 3.383789,0.47852 q 1.298829,0.35319 2.096355,1.41276 0.797526,1.04818 0.797526,2.48372 0,1.59506 -0.843099,2.73438 -0.831706,1.12793 -2.164714,1.45833 -0.729166,0.18229 -2.426758,0.18229 l -4.500325,0 0,-16.04166 3.657226,0 q 1.469727,0 2.096355,0.14811 1.401367,0.3304 2.290039,1.44694 0.888672,1.11654 0.888672,2.73437 0,1.13933 -0.512696,2.00521 -0.501302,0.8545 -1.378581,1.32162 l 0,0.11393 z m -5.582682,0.88867 0,6.01563 3.041992,0 q 1.54948,0 2.062175,-0.13672 0.854492,-0.22787 1.378581,-1.00261 0.535481,-0.77474 0.535481,-1.86849 0,-1.10514 -0.524088,-1.87988 -0.524089,-0.78613 -1.389974,-0.99121 -0.558268,-0.13672 -2.062175,-0.13672 l -3.041992,0 z"
         style="font-size:17.5px"
         id="path4223"
         inkscape:connector-curvature="0" />
      <path
         d="m 100.39662,161.29332 0,1.36719 q -2.290042,0.33041 -4.112959,0.33041 -2.426758,0 -3.919271,-1.16211 -1.48112,-1.17351 -2.005208,-3.16732 -0.35319,-1.38998 -0.35319,-3.8737 0,-2.48372 0.35319,-3.8737 0.535481,-2.00521 1.971028,-3.16731 1.435547,-1.16211 3.839519,-1.16211 1.822916,0 3.885091,0.3304 l 0,1.36719 q -2.141927,-0.33041 -3.885091,-0.33041 -3.531901,0 -4.386394,3.28125 -0.31901,1.24187 -0.31901,3.55469 0,2.31283 0.31901,3.55469 0.877279,3.28125 4.500326,3.28125 1.743164,0 4.112959,-0.33041 z"
         style="font-size:17.5px"
         id="path4225"
         inkscape:connector-curvature="0" />
      <path
         d="m 105.78561,146.76696 q 3.66862,0 5.34343,2.70019 0.64941,1.02539 0.87728,2.32422 0.22786,1.29883 0.22786,2.99642 0,1.69759 -0.22786,2.99642 -0.22787,1.29883 -0.87728,2.32422 -1.67481,2.70019 -5.34343,2.70019 l -3.94205,0 0,-16.04166 3.94205,0 z m 4.76237,10.88053 q 0.22787,-1.1735 0.22787,-2.8597 0,-1.6862 -0.22787,-2.8597 -0.21647,-1.1735 -0.76334,-1.94824 -1.29883,-1.8457 -3.99903,-1.8457 l -2.48372,0 0,13.30729 2.48372,0 q 2.7002,0 3.99903,-1.84571 0.54687,-0.77474 0.76334,-1.94824 z"
         style="font-size:17.5px"
         id="path4227"
         inkscape:connector-curvature="0" />
      <path
         d="m 114.95716,146.76696 8.75,0 0,1.36719 -7.29166,0 0,5.92447 5.83333,0 0,1.36719 -5.83333,0 0,6.01563 7.29166,0 0,1.36718 -8.75,0 0,-16.04166 z"
         style="font-size:17.5px"
         id="path4229"
         inkscape:connector-curvature="0" />
      <path
         d="m 126.61244,146.76696 8.75,0 0,1.36719 -7.29167,0 0,6.01562 5.83333,0 0,1.36719 -5.83333,0 0,7.29166 -1.45833,0 0,-16.04166 z"
         style="font-size:17.5px"
         id="path4231"
         inkscape:connector-curvature="0" />
      <path
         d="m 143.01869,146.58467 q 1.64062,0 3.42936,0.25065 l 0,1.36718 q -1.86849,-0.25065 -3.42936,-0.25065 -1.90267,0 -3.06478,0.87728 -1.15072,0.86589 -1.54948,2.40397 -0.31901,1.24187 -0.31901,3.55469 0,2.31283 0.31901,3.55469 0.39876,1.53808 1.45833,2.41536 1.05957,0.86589 2.81413,0.86589 1.33301,0 2.88249,-0.27344 l 0,-5.92448 -2.91667,0 0,-1.36719 4.375,0 0,8.36263 q -2.38118,0.56967 -4.34082,0.56967 -2.29004,0 -3.74837,-1.17351 -1.44694,-1.1735 -1.94824,-3.15592 -0.35319,-1.38998 -0.35319,-3.8737 0,-2.48372 0.35319,-3.8737 0.5013,-1.98242 2.05078,-3.15592 1.56087,-1.1735 3.98763,-1.1735 z"
         style="font-size:17.5px"
         id="path4233"
         inkscape:connector-curvature="0" />
      <path
         d="m 148.46465,146.76696 1.45833,0 0,7.38281 7.29167,0 0,-7.38281 1.45833,0 0,16.04166 -1.45833,0 0,-7.29166 -7.29167,0 0,7.29166 -1.45833,0 0,-16.04166 z"
         style="font-size:17.5px"
         id="path4235"
         inkscape:connector-curvature="0" />
      <path
         d="m 168.86992,146.76696 0,1.36719 -2.91666,0 0,13.30729 2.91666,0 0,1.36718 -7.29166,0 0,-1.36718 2.91666,0 0,-13.30729 -2.91666,0 0,-1.36719 7.29166,0 z"
         style="font-size:17.5px"
         id="path4237"
         inkscape:connector-curvature="0" />
      <path
         d="m 180.5252,148.13415 -7.29167,0 0,-1.36719 8.75,0 0,10.33366 q 0,0.59244 -0.0228,0.94563 -0.0228,0.35319 -0.11393,0.94564 -0.0911,0.59245 -0.34179,1.13933 -0.23926,0.53548 -0.63803,1.03678 -0.63802,0.82031 -1.72037,1.29883 -1.07097,0.47851 -2.39258,0.47851 -1.41276,0 -2.62044,-0.5013 -1.19629,-0.51269 -2.09636,-1.29883 l 0.8431,-1.08235 q 1.76595,1.5153 3.8737,1.5153 0.95703,0 1.72038,-0.33041 0.77474,-0.3304 1.23046,-0.91146 0.38737,-0.47851 0.56967,-1.09375 0.19368,-0.61523 0.21647,-1.01399 0.0342,-0.39877 0.0342,-1.12793 l 0,-8.96647 z"
         style="font-size:17.5px"
         id="path4239"
         inkscape:connector-curvature="0" />
      <path
         d="m 184.8888,162.80862 -1.45833,0 0,-16.04166 1.45833,0 0,7.84993 6.53972,-7.84993 1.58366,0 -5.5599,6.77897 6.61947,9.26269 -1.78874,0 -5.79915,-8.21451 -1.59506,1.85709 0,6.35742 z"
         style="font-size:17.5px"
         id="path4241"
         inkscape:connector-curvature="0" />
      <path
         d="m 196.54408,162.80862 0,-16.04166 1.45833,0 0,14.67448 7.29167,0 0,1.36718 -8.75,0 z"
         style="font-size:17.5px"
         id="path4243"
         inkscape:connector-curvature="0" />
      <path
         d="m 208.19935,162.80862 -1.45833,0 0,-16.04166 1.45833,0 3.58887,7.15495 0.12532,0 3.57748,-7.15495 1.45833,0 0,16.04166 -1.45833,0 0,-13.10221 -0.11393,0 -2.90528,5.81055 -1.25325,0 -2.90528,-5.81055 -0.11393,0 0,13.10221 z"
         style="font-size:17.5px"
         id="path4245"
         inkscape:connector-curvature="0" />
      <path
         d="m 219.85462,162.80862 -1.45833,0 0,-16.04166 1.44694,0 7.18913,13.19336 0.11393,0 0,-13.19336 1.45833,0 0,16.04166 -1.45833,0 -7.17773,-13.19336 -0.11394,0 0,13.19336 z"
         style="font-size:17.5px"
         id="path4247"
         inkscape:connector-curvature="0" />
      <path
         d="m 231.61244,151.11917 q -0.28483,1.24186 -0.28483,3.66862 0,2.42676 0.28483,3.66862 0.34179,1.38997 1.21907,2.27865 0.88867,0.88867 2.32422,0.88867 1.43555,0 2.31283,-0.88867 0.88867,-0.88868 1.23047,-2.27865 0.28483,-1.24186 0.28483,-3.66862 0,-2.42676 -0.28483,-3.66862 -0.3418,-1.38997 -1.23047,-2.27864 -0.87728,-0.88868 -2.31283,-0.88868 -1.43555,0 -2.32422,0.88868 -0.87728,0.88867 -1.21907,2.27864 z m -1.42416,7.64486 q -0.31901,-1.26465 -0.31901,-3.97624 0,-2.71159 0.31901,-3.97624 0.45573,-1.8457 1.72038,-3.0306 1.26465,-1.19628 3.24707,-1.19628 1.98242,0 3.24707,1.19628 1.26465,1.1849 1.72038,3.0306 0.31901,1.26465 0.31901,3.97624 0,2.71159 -0.31901,3.97624 -0.45573,1.8457 -1.72038,3.04199 -1.26465,1.1849 -3.24707,1.1849 -1.98242,0 -3.24707,-1.1849 -1.26465,-1.19629 -1.72038,-3.04199 z"
         style="font-size:17.5px"
         id="path4249"
         inkscape:connector-curvature="0" />
      <path
         d="m 246.3211,146.76696 q 0.55826,0 0.91145,0.0228 0.36459,0.0228 0.96843,0.12533 0.61523,0.0912 1.16211,0.36458 0.55827,0.26205 1.03678,0.6836 1.69759,1.5039 1.69759,3.8623 0,2.3584 -1.69759,3.86231 -0.47851,0.42155 -1.03678,0.69498 -0.54688,0.26205 -1.16211,0.36459 -0.60384,0.0911 -0.96843,0.11393 -0.35319,0.0228 -0.91145,0.0228 l -1.6976,0 0,5.92447 -1.45833,0 0,-16.04166 3.15593,0 z m 3.98763,6.69922 q 0.3304,-0.75196 0.3304,-1.64063 0,-0.88867 -0.3304,-1.62923 -0.33041,-0.75195 -0.88868,-1.23047 -0.34179,-0.29622 -0.74056,-0.47851 -0.38737,-0.1823 -0.84309,-0.25066 -0.45573,-0.0684 -0.74056,-0.0798 -0.28484,-0.0228 -0.77474,-0.0228 l -1.6976,0 0,7.38281 1.6976,0 q 0.4899,0 0.77474,-0.0114 0.28483,-0.0228 0.74056,-0.0911 0.45572,-0.0684 0.84309,-0.25065 0.39877,-0.18229 0.74056,-0.47852 0.55827,-0.47851 0.88868,-1.21907 z"
         style="font-size:17.5px"
         id="path4251"
         inkscape:connector-curvature="0" />
      <path
         d="m 253.17982,154.78779 q 0,-2.66601 0.31901,-3.97624 0.45573,-1.8457 1.72038,-3.0306 1.26465,-1.19628 3.24707,-1.19628 1.97103,0 3.23568,1.18489 1.26464,1.1849 1.73177,3.04199 0.31901,1.26465 0.31901,3.97624 0,2.66602 -0.31901,3.97624 -0.38737,1.58366 -1.38998,2.71159 -1.0026,1.12793 -2.54069,1.42415 0.60384,1.64063 2.32422,1.64063 0.6722,0 1.74316,-0.10254 l 0,1.36718 q -1.12792,0.10254 -1.82291,0.10254 -1.45834,0 -2.41537,-0.82031 -0.95703,-0.82031 -1.333,-2.11914 -1.77735,-0.14811 -2.91667,-1.31022 -1.13932,-1.16211 -1.58366,-2.89388 -0.31901,-1.26465 -0.31901,-3.97624 z m 1.45833,0 q 0,2.48372 0.28483,3.66862 0.29623,1.19629 1.014,2.05078 0.71777,0.8431 1.8457,1.05957 -0.0456,-0.53548 -0.0456,-1.6748 l 0,-1.45834 1.45833,0 0,1.45834 q 0,1.12793 0.0456,1.65202 1.09375,-0.22787 1.77734,-1.05957 0.69499,-0.8431 0.99121,-2.028 0.28483,-1.13932 0.28483,-3.66862 0,-2.48372 -0.28483,-3.66862 -0.34179,-1.38997 -1.23047,-2.27864 -0.87728,-0.88868 -2.31282,-0.88868 -1.44694,0 -2.33561,0.88868 -0.88868,0.88867 -1.20769,2.27864 -0.28483,1.24186 -0.28483,3.66862 z"
         style="font-size:17.5px"
         id="path4253"
         inkscape:connector-curvature="0" />
      <path
         d="m 273.61927,153.46618 q 0.33041,-0.75196 0.33041,-1.64063 0,-0.88867 -0.33041,-1.62923 -0.3304,-0.75195 -0.88867,-1.23047 -0.3418,-0.29622 -0.74056,-0.47851 -0.38737,-0.1823 -0.8431,-0.25066 -0.45573,-0.0684 -0.74056,-0.0798 -0.28483,-0.0228 -0.77474,-0.0228 l -1.69759,0 0,7.38281 1.69759,0 q 0.63802,0 1.03679,-0.0228 0.39876,-0.0342 1.0026,-0.22786 0.61524,-0.20508 1.05957,-0.58106 0.55827,-0.47851 0.88867,-1.21907 z m -3.98763,-6.69922 q 0.55827,0 0.91146,0.0228 0.36458,0.0228 0.96843,0.12533 0.61523,0.0912 1.1621,0.36458 0.55827,0.26205 1.03679,0.6836 1.69759,1.5039 1.69759,3.8623 0,2.3584 -1.69759,3.86231 -0.39876,0.35319 -0.88867,0.60384 l 2.87109,6.51692 -1.54948,0 -2.70019,-6.0498 q -0.6836,0.12533 -1.81153,0.12533 l -1.69759,0 0,5.92447 -1.45833,0 0,-16.04166 3.15592,0 z"
         style="font-size:17.5px"
         id="path4255"
         inkscape:connector-curvature="0" />
      <path
         d="m 282.27813,162.99092 q -1.86849,0 -4.2155,-0.36459 l 0,-1.40136 q 2.5293,0.39876 4.2155,0.39876 1.60644,0 2.54069,-0.86589 0.94564,-0.86588 0.94564,-2.33561 0,-0.8317 -0.38737,-1.5153 -0.37598,-0.68359 -1.04818,-1.08236 -0.59245,-0.34179 -1.91406,-0.52408 -1.32162,-0.19369 -1.90267,-0.39877 -1.24187,-0.45573 -1.98243,-1.48112 -0.74056,-1.03678 -0.74056,-2.5179 0,-1.86849 1.25326,-3.08757 1.25326,-1.23046 3.23568,-1.23046 1.53808,0 4.21549,0.28483 l 0,1.37858 q -2.76855,-0.29623 -4.21549,-0.29623 -1.37858,0 -2.21029,0.8431 -0.82031,0.83171 -0.82031,2.10775 0,0.90006 0.38737,1.57227 0.39876,0.6608 1.07096,1.0026 0.52409,0.27344 1.99382,0.47852 1.46972,0.20507 2.19889,0.59244 1.05957,0.55827 1.6862,1.58366 0.63802,1.02539 0.63802,2.29004 0,2.03939 -1.36719,3.30404 -1.36719,1.26465 -3.57747,1.26465 z"
         style="font-size:17.5px"
         id="path4257"
         inkscape:connector-curvature="0" />
      <path
         d="m 298.53627,146.76696 0,1.36719 -4.375,0 0,14.67447 -1.45834,0 0,-14.67447 -4.375,0 0,-1.36719 10.20834,0 z"
         style="font-size:17.5px"
         id="path4259"
         inkscape:connector-curvature="0" />
      <path
         d="m 299.98321,146.76696 1.45833,0 0,10.20833 q 0,1.52669 0.13672,2.07357 0.28483,1.16211 1.21907,1.86849 0.94564,0.70638 2.29004,0.70638 1.3444,0 2.27865,-0.70638 0.94564,-0.70638 1.23047,-1.86849 0.13672,-0.54688 0.13672,-2.07357 l 0,-10.20833 1.45833,0 0,10.20833 q 0,1.60645 -0.18229,2.38119 -0.38737,1.60644 -1.73177,2.62044 -1.33301,1.014 -3.19011,1.014 -1.85709,0 -3.2015,-1.014 -1.3444,-1.014 -1.72037,-2.62044 -0.18229,-0.77474 -0.18229,-2.38119 l 0,-10.20833 z"
         style="font-size:17.5px"
         id="path4261"
         inkscape:connector-curvature="0" />
      <path
         d="m 316.79961,161.01989 q 1.32162,-3.13314 2.22168,-6.61947 0.90007,-3.49772 1.60645,-7.63346 l 1.48112,0 q -0.82032,4.67122 -1.91407,8.60189 -1.09375,3.91927 -2.79134,7.43977 l -1.32161,0 q -1.69759,-3.5205 -2.79134,-7.43977 -1.09375,-3.93067 -1.91407,-8.60189 l 1.48112,0 q 1.50391,8.76139 3.82813,14.25293 l 0.11393,0 z"
         style="font-size:17.5px"
         id="path4263"
         inkscape:connector-curvature="0" />
      <path
         d="m 327.69154,152.60029 1.41276,0 1.98242,7.81576 0.11393,0 q 0.94564,-5.36621 0.94564,-13.64909 l 1.45833,0 q 0,8.02083 -1.58365,16.04166 l -1.41276,0 -2.15333,-8.38541 -0.11393,0 -2.15332,8.38541 -1.41276,0 q -1.58366,-8.02083 -1.58366,-16.04166 l 1.45834,0 q 0,8.19173 0.94563,13.64909 l 0.11394,0 1.98242,-7.81576 z"
         style="font-size:17.5px"
         id="path4265"
         inkscape:connector-curvature="0" />
      <path
         d="m 339.99623,153.4206 0.11393,0 3.45215,-6.65364 1.6748,0 -4.22689,7.82715 0,0.11393 4.59147,8.10058 -1.68619,0 -3.80534,-6.92708 -0.11393,0 -3.80534,6.92708 -1.6862,0 4.59147,-8.10058 0,-0.11393 -4.22689,-7.82715 1.67481,0 3.45215,6.65364 z"
         style="font-size:17.5px"
         id="path4267"
         inkscape:connector-curvature="0" />
      <path
         d="m 351.8224,154.36624 q 2.00521,-2.95084 3.75976,-7.59928 l 1.54948,0 q -1.03678,2.70019 -2.15332,4.91048 -1.10514,2.21029 -2.54069,4.11296 l 0,7.01822 -1.45833,0 0,-7.01822 q -1.43555,-1.90267 -2.55208,-4.11296 -1.10515,-2.21029 -2.14193,-4.91048 l 1.54948,0 q 1.74316,4.62565 3.75976,7.59928 l 0.22787,0 z"
         style="font-size:17.5px"
         id="path4269"
         inkscape:connector-curvature="0" />
      <path
         d="m 358.48744,148.13415 0,-1.36719 9.7526,0 0,1.02539 -8.10058,13.53515 0,0.11394 8.32845,0 0,1.36718 -10.20834,0 0,-1.04817 8.10059,-13.51237 0,-0.11393 -7.87272,0 z"
         style="font-size:17.5px"
         id="path4271"
         inkscape:connector-curvature="0" />
      <path
         d="m 70.079234,173.32457 q 0.843099,-0.4899 1.902669,-0.4899 1.05957,0 1.891276,0.4899 0.843099,0.47852 1.378581,1.33301 0.444336,0.72917 0.592448,1.73177 0.148112,0.99121 0.148112,2.46094 0,1.46973 -0.148112,2.47233 -0.148112,0.99121 -0.592448,1.72038 -0.535482,0.85449 -1.378581,1.3444 -0.831706,0.47852 -1.891276,0.47852 -1.05957,0 -1.902669,-0.47852 -0.831706,-0.48991 -1.367188,-1.3444 -0.444336,-0.72917 -0.592448,-1.72038 -0.148112,-1.0026 -0.148112,-2.47233 0,-1.46973 0.148112,-2.46094 0.148112,-1.0026 0.592448,-1.73177 0.535482,-0.85449 1.367188,-1.33301 z m 3.907877,1.99382 q -0.660807,-1.11654 -2.005208,-1.11654 -1.344401,0 -2.005208,1.11654 -0.250651,0.42155 -0.375977,1.05957 -0.125325,0.62663 -0.148112,1.12793 -0.02279,0.5013 -0.02279,1.3444 0,0.8431 0.02279,1.3444 0.02279,0.5013 0.148112,1.13932 0.125326,0.62663 0.375977,1.04818 0.660807,1.11654 2.005208,1.11654 1.344401,0 2.005208,-1.11654 0.250651,-0.42155 0.375977,-1.04818 0.125325,-0.63802 0.148112,-1.13932 0.02279,-0.5013 0.02279,-1.3444 0,-0.8431 -0.02279,-1.3444 -0.02279,-0.5013 -0.148112,-1.12793 -0.125326,-0.63802 -0.375977,-1.05957 z"
         style="font-size:17.5px"
         id="path4273"
         inkscape:connector-curvature="0" />
      <path
         d="m 80.093882,172.99417 q -0.28483,1.24186 -0.28483,3.66862 0,2.42676 0.28483,3.66862 0.341797,1.38997 1.219076,2.27865 0.888672,0.88867 2.324219,0.88867 1.435546,0 2.312825,-0.88867 0.888672,-0.88868 1.230469,-2.27865 0.284831,-1.24186 0.284831,-3.66862 0,-2.42676 -0.284831,-3.66862 -0.341797,-1.38997 -1.230469,-2.27864 -0.877279,-0.88868 -2.312825,-0.88868 -1.435547,0 -2.324219,0.88868 -0.877279,0.88867 -1.219076,2.27864 z m -1.424153,7.64486 q -0.319011,-1.26465 -0.319011,-3.97624 0,-2.71159 0.319011,-3.97624 0.455729,-1.8457 1.720377,-3.0306 1.264649,-1.19628 3.247071,-1.19628 1.982421,0 3.24707,1.19628 1.264648,1.1849 1.720377,3.0306 0.319011,1.26465 0.319011,3.97624 0,2.71159 -0.319011,3.97624 -0.455729,1.8457 -1.720377,3.04199 -1.264649,1.1849 -3.24707,1.1849 -1.982422,0 -3.247071,-1.1849 -1.264648,-1.19629 -1.720377,-3.04199 z"
         style="font-size:17.5px"
         id="path4275"
         inkscape:connector-curvature="0" />
      <path
         d="m 93.42396,181.93786 q 0.603842,1.53808 1.86849,1.53808 0.729167,0 1.207682,-0.48991 0.489909,-0.48991 0.751953,-1.31022 0.148112,-0.44433 0.216472,-1.31022 0.06836,-0.87728 0.07975,-1.58366 0.01139,-0.70638 0.01139,-2.11914 0,-2.40397 -0.05697,-3.33822 l -4.078776,8.61329 z m 1.86849,-12.08822 q -0.729167,0 -1.219076,0.48991 -0.478515,0.48991 -0.740559,1.31022 -0.148112,0.44434 -0.216472,1.32161 -0.06836,0.86589 -0.07975,1.57227 -0.01139,0.70638 -0.01139,2.11914 0,2.40397 0.05697,3.33822 l 4.078777,-8.61328 q -0.603842,-1.53809 -1.86849,-1.53809 z m -3.235677,1.05957 q 0.934245,-2.47233 3.235677,-2.47233 2.301432,0 3.235677,2.47233 0.205078,0.55827 0.307617,1.53809 0.102539,0.97981 0.113933,1.78873 0.02279,0.79753 0.02279,2.42676 0,1.62923 -0.02279,2.43815 -0.01139,0.79753 -0.113933,1.77735 -0.102539,0.97981 -0.307617,1.53808 -0.934245,2.47233 -3.235677,2.47233 -2.301432,0 -3.235677,-2.47233 -0.205078,-0.55827 -0.307617,-1.53808 -0.102539,-0.97982 -0.125326,-1.77735 -0.01139,-0.80892 -0.01139,-2.43815 0,-1.62923 0.01139,-2.42676 0.02279,-0.80892 0.125326,-1.78873 0.102539,-0.97982 0.307617,-1.53809 z"
         style="font-size:17.5px"
         id="path4277"
         inkscape:connector-curvature="0" />
      <path
         d="m 108.69089,170.64717 q -0.56966,-0.82032 -1.74317,-0.82032 -1.1735,0 -1.75455,0.82032 -0.56967,0.82031 -0.56967,2.13053 0,1.32161 0.58106,2.21029 0.59245,0.87727 1.74316,0.87727 1.15072,0 1.73177,-0.87727 0.59245,-0.88868 0.59245,-2.21029 0,-1.31022 -0.58105,-2.13053 z m -4.53451,-0.95704 q 0.99121,-1.23046 2.79134,-1.23046 1.80013,0 2.79134,1.23046 0.99122,1.21908 0.99122,3.08757 0,2.59766 -1.78874,3.66862 l 0,0.11393 q 2.0166,1.09375 2.0166,3.86231 0,1.93685 -1.05957,3.1901 -1.05957,1.25326 -2.95085,1.25326 -1.89127,0 -2.95084,-1.25326 -1.05957,-1.25325 -1.05957,-3.1901 0,-2.76856 2.0166,-3.86231 l 0,-0.11393 q -1.78874,-1.07096 -1.78874,-3.66862 0,-1.86849 0.99121,-3.08757 z m 4.69401,8.44239 q -0.63802,-0.90007 -1.90267,-0.90007 -1.26465,0 -1.91406,0.90007 -0.63802,0.90006 -0.63802,2.29004 0,1.37858 0.63802,2.23307 0.63802,0.8431 1.91406,0.8431 1.27605,0 1.91407,-0.8431 0.63802,-0.85449 0.63802,-2.23307 0,-1.38998 -0.64942,-2.29004 z"
         style="font-size:17.5px"
         id="path4279"
         inkscape:connector-curvature="0" />
      <path
         d="m 128.97084,168.81286 q 0.35319,-0.35319 0.92285,-0.35319 0.56966,0 0.92285,0.35319 0.35319,0.35319 0.35319,0.92285 0,0.56966 -0.35319,0.92285 -0.35319,0.35319 -0.92285,0.35319 -0.56966,0 -0.92285,-0.35319 -0.35319,-0.35319 -0.35319,-0.92285 0,-0.56966 0.35319,-0.92285 z m 0.55826,15.87076 0,-10.29947 -2.91666,0 0,-1.36719 4.375,0 0,11.66666 -1.45834,0 z"
         style="font-size:17.5px"
         id="path4281"
         inkscape:connector-curvature="0" />
      <path
         d="m 145.55938,168.64196 0,1.36719 -2.91667,0 0,13.30729 2.91667,0 0,1.36718 -7.29167,0 0,-1.36718 2.91667,0 0,-13.30729 -2.91667,0 0,-1.36719 7.29167,0 z"
         style="font-size:17.5px"
         id="path4283"
         inkscape:connector-curvature="0" />
      <path
         d="m 157.21465,184.80895 q -1.08236,0.057 -1.57227,0.057 -1.21907,0 -1.97102,-0.77474 -0.38737,-0.39877 -0.58106,-0.92286 -0.19368,-0.53548 -0.22786,-0.84309 -0.0228,-0.31901 -0.0228,-0.82032 l 0,-12.86295 1.45833,0 0,12.86295 q 0,0.35319 0.0114,0.54688 0.0114,0.19368 0.0797,0.46712 0.0798,0.27344 0.22786,0.47852 0.37598,0.5013 1.13933,0.5013 0.77474,0 1.45833,-0.057 l 0,1.36719 z"
         style="font-size:17.5px"
         id="path4285"
         inkscape:connector-curvature="0" />
      <path
         d="m 161.57826,184.68362 0,-16.04166 1.45833,0 0,14.67448 7.29167,0 0,1.36718 -8.75,0 z"
         style="font-size:17.5px"
         id="path4287"
         inkscape:connector-curvature="0" />
      <path
         d="m 177.8364,168.64196 1.23046,0 0,16.04166 -1.45833,0 0,-14.19596 -0.11393,0 -3.5433,2.55208 -0.71777,-1.04817 4.60287,-3.34961 z"
         style="font-size:17.5px"
         id="path4289"
         inkscape:connector-curvature="0" />
      <path
         d="m 199.10755,176.73115 q 0.99122,0.37598 1.40137,1.04818 0.41016,0.6722 0.41016,1.93685 l 0,2.88248 q 0,1.29883 0.72916,1.83431 0.72917,0.52409 2.1875,0.52409 l 0,1.36719 q -2.03938,0 -3.21289,-0.91146 -1.16211,-0.91146 -1.16211,-2.81413 l 0,-2.88248 q 0,-1.29883 -0.72916,-1.82292 -0.72917,-0.53548 -2.1875,-0.53548 l 0,-1.36719 q 1.44694,0 2.1761,-0.52409 0.74056,-0.53548 0.74056,-1.83431 l 0,-2.88249 q 0,-1.90266 1.16211,-2.81412 1.17351,-0.91146 3.21289,-0.91146 l 0,1.36719 q -1.44694,0 -2.1875,0.53548 -0.72916,0.52409 -0.72916,1.82291 l 0,2.88249 q 0,1.26465 -0.41016,1.93685 -0.41015,0.6722 -1.40137,1.04818 l 0,0.11393 z"
         style="font-size:17.5px"
         id="path4291"
         inkscape:connector-curvature="0" />
      <path
         d="m 212.92754,176.73115 0,-0.11393 q -0.99121,-0.37598 -1.40137,-1.04818 -0.41015,-0.6722 -0.41015,-1.93685 l 0,-2.88249 q 0,-1.29882 -0.74056,-1.82291 -0.72917,-0.53548 -2.17611,-0.53548 l 0,-1.36719 q 2.03939,0 3.2015,0.91146 1.1735,0.91146 1.1735,2.81412 l 0,2.88249 q 0,1.29883 0.72917,1.83431 0.74056,0.52409 2.1875,0.52409 l 0,1.36719 q -1.45834,0 -2.1875,0.53548 -0.72917,0.52409 -0.72917,1.82292 l 0,2.88248 q 0,1.90267 -1.1735,2.81413 -1.16211,0.91146 -3.2015,0.91146 l 0,-1.36719 q 1.45833,0 2.1875,-0.52409 0.72917,-0.53548 0.72917,-1.83431 l 0,-2.88248 q 0,-1.26465 0.41015,-1.93685 0.41016,-0.6722 1.40137,-1.04818 z"
         style="font-size:17.5px"
         id="path4293"
         inkscape:connector-curvature="0" />
      <path
         d="m 232.96823,167.18362 5.83333,0 0,1.36719 -4.375,0 0,16.22396 4.375,0 0,1.36719 q 0,0 -5.83333,0 0,0 0,-18.95834 z"
         style="font-size:17.5px"
         id="path4295"
         inkscape:connector-curvature="0" />
      <path
         d="m 248.9985,167.18362 q 0,0 0,18.95834 0,0 -5.83333,0 l 0,-1.36719 4.375,0 0,-16.22396 -4.375,0 0,-1.36719 5.83333,0 z"
         style="font-size:17.5px"
         id="path4297"
         inkscape:connector-curvature="0" />
      <path
         d="m 268.53789,174.72594 q -0.96842,0.90007 -0.96842,3.39518 0,2.49512 0.96842,3.39519 0.55827,0.52409 1.40137,0.52409 0.8431,0 1.40137,-0.52409 0.96842,-0.90007 0.96842,-3.39519 0,-2.49511 -0.96842,-3.39518 -0.55827,-0.52409 -1.40137,-0.52409 -0.8431,0 -1.40137,0.52409 z m 3.77116,7.0752 -0.11393,0 q -1.03678,1.60644 -2.48372,1.60644 -1.34441,0 -2.29004,-0.92285 -1.31023,-1.29883 -1.31023,-4.36361 0,-3.06477 1.31023,-4.3636 0.94563,-0.92285 2.29004,-0.92285 1.44694,0 2.48372,1.60644 l 0.11393,0 0,-1.42415 1.45833,0 0,9.84375 q 0,1.94824 -0.69498,3.11035 -1.08236,1.81152 -3.40658,1.81152 -1.32161,0 -2.6888,-0.1709 l 0,-1.36718 q 1.53809,0.1709 2.6888,0.1709 1.44694,0 2.14193,-1.11654 0.5013,-0.80892 0.5013,-2.43815 l 0,-1.05957 z"
         style="font-size:17.5px"
         id="path4299"
         inkscape:connector-curvature="0" />
      <path
         d="m 279.40703,169.0749 q 0.88868,-0.61523 2.1875,-0.61523 1.29883,0 2.1875,0.61523 0.88868,0.61523 1.27604,1.66341 0.22787,0.60384 0.29623,1.25326 0.0684,0.64941 0.0684,1.75455 0,3.17872 -0.97982,5.71941 -0.94564,2.48372 -2.72298,5.5371 l -1.25326,-0.69498 q 1.92546,-3.28125 2.83692,-5.82194 l -0.10254,-0.0456 q -0.77474,0.59245 -1.83431,0.59245 -1.21908,0 -2.06218,-0.61523 -0.8317,-0.61524 -1.21907,-1.66341 -0.14811,-0.41016 -0.22787,-0.94564 -0.0684,-0.53548 -0.0797,-0.92285 -0.0114,-0.38737 -0.0114,-1.13933 0,-2.0166 0.36458,-3.00781 0.38737,-1.04818 1.27604,-1.66341 z m 3.24707,0.96842 q -0.44433,-0.21647 -1.05957,-0.21647 -0.61523,0 -1.05957,0.21647 -0.44433,0.20508 -0.69498,0.53549 -0.25066,0.3304 -0.39877,0.87728 -0.13672,0.54687 -0.18229,1.05957 -0.0342,0.5013 -0.0342,1.23046 0,0.72917 0.0342,1.24187 0.0456,0.5013 0.18229,1.04817 0.14811,0.54688 0.39877,0.87728 0.25065,0.33041 0.69498,0.54688 0.44434,0.20508 1.05957,0.20508 0.61524,0 1.05957,-0.20508 0.44434,-0.21647 0.69499,-0.54688 0.25065,-0.3304 0.38737,-0.87728 0.14811,-0.54687 0.18229,-1.04817 0.0456,-0.5127 0.0456,-1.24187 0,-0.72916 -0.0456,-1.23046 -0.0342,-0.5127 -0.18229,-1.05957 -0.13672,-0.54688 -0.38737,-0.87728 -0.25065,-0.33041 -0.69499,-0.53549 z"
         style="font-size:17.5px"
         id="path4301"
         inkscape:connector-curvature="0" />
      <path
         d="m 293.02194,184.86592 q -1.12793,0 -2.00521,-0.70638 -0.87727,-0.71778 -1.27604,-1.99382 -0.14811,-0.47852 -0.22786,-1.07096 -0.0684,-0.59245 -0.0798,-1.00261 -0.0114,-0.42155 -0.0114,-1.24186 0,-0.82031 0.0114,-1.23047 0.0114,-0.42155 0.0798,-1.014 0.0797,-0.59244 0.22786,-1.07096 0.39877,-1.27604 1.27604,-1.98242 0.87728,-0.71777 2.00521,-0.71777 1.45834,0 2.48373,1.60644 l 0.11393,0 0,-1.42415 1.45833,0 0,16.04166 -1.45833,0 0,-5.79915 -0.11393,0 q -1.02539,1.60645 -2.48373,1.60645 z m -1.07096,-1.8571 q 0.53548,0.48991 1.29883,0.48991 0.76334,0 1.28743,-0.48991 0.53548,-0.5013 0.78613,-1.24186 0.29623,-0.90007 0.29623,-2.91667 0,-2.0166 -0.29623,-2.91667 -0.25065,-0.74056 -0.78613,-1.23046 -0.52409,-0.50131 -1.28743,-0.50131 -0.76335,0 -1.29883,0.50131 -0.52409,0.4899 -0.77474,1.23046 -0.29622,0.90007 -0.29622,2.91667 0,2.0166 0.29622,2.91667 0.25065,0.74056 0.77474,1.24186 z"
         style="font-size:17.5px"
         id="path4303"
         inkscape:connector-curvature="0" />
      <path
         d="m 310.19154,183.16832 0,1.36719 q -2.29004,0.33041 -4.11296,0.33041 -2.42676,0 -3.91927,-1.16211 -1.48112,-1.17351 -2.00521,-3.16732 -0.35319,-1.38998 -0.35319,-3.8737 0,-2.48372 0.35319,-3.8737 0.53549,-2.00521 1.97103,-3.16731 1.43555,-1.16211 3.83952,-1.16211 1.82292,0 3.88509,0.3304 l 0,1.36719 q -2.14193,-0.33041 -3.88509,-0.33041 -3.5319,0 -4.38639,3.28125 -0.31901,1.24187 -0.31901,3.55469 0,2.31283 0.31901,3.55469 0.87728,3.28125 4.50032,3.28125 1.74317,0 4.11296,-0.33041 z"
         style="font-size:17.5px"
         id="path4305"
         inkscape:connector-curvature="0" />
      <path
         d="m 317.84779,168.45967 q 1.64062,0 3.42936,0.25065 l 0,1.36718 q -1.86849,-0.25065 -3.42936,-0.25065 -1.90267,0 -3.06478,0.87728 -1.15072,0.86589 -1.54948,2.40397 -0.31901,1.24187 -0.31901,3.55469 0,2.31283 0.31901,3.55469 0.39876,1.53808 1.45833,2.41536 1.05957,0.86589 2.81413,0.86589 1.33301,0 2.88249,-0.27344 l 0,-5.92448 -2.91667,0 0,-1.36719 4.375,0 0,8.36263 q -2.38118,0.56967 -4.34082,0.56967 -2.29004,0 -3.74837,-1.17351 -1.44694,-1.1735 -1.94824,-3.15592 -0.35319,-1.38998 -0.35319,-3.8737 0,-2.48372 0.35319,-3.8737 0.5013,-1.98242 2.05078,-3.15592 1.56087,-1.1735 3.98763,-1.1735 z"
         style="font-size:17.5px"
         id="path4307"
         inkscape:connector-curvature="0" />
      <path
         d="m 323.11146,176.66279 q 0,-2.66601 0.31901,-3.97624 0.45573,-1.8457 1.72038,-3.0306 1.26465,-1.19628 3.24707,-1.19628 1.97103,0 3.23568,1.18489 1.26464,1.1849 1.73177,3.04199 0.31901,1.26465 0.31901,3.97624 0,2.66602 -0.31901,3.97624 -0.38737,1.58366 -1.38998,2.71159 -1.0026,1.12793 -2.54069,1.42415 0.60384,1.64063 2.32422,1.64063 0.6722,0 1.74317,-0.10254 l 0,1.36718 q -1.12793,0.10254 -1.82292,0.10254 -1.45833,0 -2.41537,-0.82031 -0.95703,-0.82031 -1.333,-2.11914 -1.77735,-0.14811 -2.91667,-1.31022 -1.13932,-1.16211 -1.58366,-2.89388 -0.31901,-1.26465 -0.31901,-3.97624 z m 1.45833,0 q 0,2.48372 0.28483,3.66862 0.29623,1.19629 1.014,2.05078 0.71778,0.8431 1.8457,1.05957 -0.0456,-0.53548 -0.0456,-1.6748 l 0,-1.45834 1.45834,0 0,1.45834 q 0,1.12793 0.0456,1.65202 1.09375,-0.22787 1.77734,-1.05957 0.69499,-0.8431 0.99121,-2.028 0.28483,-1.13932 0.28483,-3.66862 0,-2.48372 -0.28483,-3.66862 -0.34179,-1.38997 -1.23047,-2.27864 -0.87727,-0.88868 -2.31282,-0.88868 -1.44694,0 -2.33561,0.88868 -0.88868,0.88867 -1.20769,2.27864 -0.28483,1.24186 -0.28483,3.66862 z"
         style="font-size:17.5px"
         id="path4309"
         inkscape:connector-curvature="0" />
      <path
         d="m 348.06263,180.30862 -1.45833,0 q 0,-0.80892 0.057,-1.42415 0.0684,-0.61523 0.23925,-1.19629 0.18229,-0.59245 0.48991,-0.96842 0.30762,-0.37598 0.82031,-0.60384 0.5127,-0.22787 1.20769,-0.22787 0.71777,0 1.29882,0.31901 0.59245,0.31901 0.97982,0.77474 0.38737,0.45573 0.72917,0.91146 0.3418,0.45573 0.74056,0.77474 0.39876,0.31901 0.8317,0.31901 0.31902,0 0.54688,-0.0797 0.22786,-0.0798 0.37598,-0.28483 0.14811,-0.20508 0.23925,-0.42155 0.0911,-0.21647 0.12533,-0.61524 0.0456,-0.39876 0.057,-0.74056 0.0114,-0.34179 0.0114,-0.91146 l 1.45833,0 q 0,0.80892 -0.0684,1.42416 -0.057,0.61523 -0.23925,1.20768 -0.1709,0.58105 -0.47852,0.95703 -0.30762,0.37598 -0.82031,0.60384 -0.5127,0.22787 -1.20769,0.22787 -0.71777,0 -1.31022,-0.31901 -0.58105,-0.31901 -0.96842,-0.77474 -0.38737,-0.45573 -0.72917,-0.91146 -0.34179,-0.45573 -0.74056,-0.77474 -0.39876,-0.31901 -0.8317,-0.31901 -0.31901,0 -0.54688,0.0798 -0.22786,0.0797 -0.37598,0.28483 -0.14811,0.20508 -0.23925,0.42155 -0.0912,0.21647 -0.13672,0.61524 -0.0342,0.39876 -0.0456,0.74056 -0.0114,0.34179 -0.0114,0.91145 z"
         style="font-size:17.5px"
         id="path4311"
         inkscape:connector-curvature="0" />
      <path
         d="m 358.25957,177.43753 10.20834,0 0,1.36719 -10.20834,0 0,-1.36719 z"
         style="font-size:17.5px"
         id="path4313"
         inkscape:connector-curvature="0" />
      <path
         d="m 375.74818,177.43753 4.375,0 0,1.36719 -4.375,0 0,4.42057 -1.45833,0 0,-4.42057 -4.375,0 0,-1.36719 4.375,0 0,-4.42057 1.45833,0 0,4.42057 z"
         style="font-size:17.5px"
         id="path4315"
         inkscape:connector-curvature="0" />
      <path
         d="m 399.00176,178.17809 0,-0.11393 -2.33561,-2.17611 -12.19076,0 0,-1.36719 10.72103,0 -2.0166,-1.87988 0.97982,-1.02539 6.35742,5.99284 0,1.02539 -6.35742,5.99284 -0.97982,-1.02539 2.0166,-1.87989 -10.72103,0 0,-1.36718 12.19076,0 2.33561,-2.17611 z"
         style="font-size:17.5px"
         id="path4317"
         inkscape:connector-curvature="0" />
    </g>
  </g>
</svg>
