<?xml version="1.0" encoding="UTF-8" standalone="no"?>
<svg
   version="1.1"
   id="svg2"
   viewBox="0 0 285.43824 108.43261"
   height="30.602093mm"
   width="80.557014mm"
   sodipodi:docname="Mononoki Nerd Font.svg"
   xmlns:inkscape="http://www.inkscape.org/namespaces/inkscape"
   xmlns:sodipodi="http://sodipodi.sourceforge.net/DTD/sodipodi-0.dtd"
   xmlns="http://www.w3.org/2000/svg"
   xmlns:svg="http://www.w3.org/2000/svg"
   xmlns:rdf="http://www.w3.org/1999/02/22-rdf-syntax-ns#"
   xmlns:cc="http://creativecommons.org/ns#"
   xmlns:dc="http://purl.org/dc/elements/1.1/">
  <sodipodi:namedview
     id="namedview12"
     pagecolor="#ffffff"
     bordercolor="#666666"
     borderopacity="1.0"
     inkscape:showpageshadow="2"
     inkscape:pageopacity="0.0"
     inkscape:pagecheckerboard="0"
     inkscape:deskcolor="#d1d1d1"
     inkscape:document-units="mm" />
  <defs
     id="defs4" />
  <metadata
     id="metadata7">
    <rdf:RDF>
      <cc:Work
         rdf:about="">
        <dc:format>image/svg+xml</dc:format>
        <dc:type
           rdf:resource="http://purl.org/dc/dcmitype/StillImage" />
        <dc:title />
      </cc:Work>
    </rdf:RDF>
  </metadata>
  <g
     id="layer1"
     transform="translate(-63.689663,-80.523476)">
    <g
       aria-label="Mononoki Nerd Font"
       id="text4136"
       style="font-size:27.5px;font-family:'Mononoki Nerd Font';letter-spacing:0px;word-spacing:0px;fill:#ffffff">
      <path
         d="M 77.493374,100.23539 Q 77.493374,100.5308 77.27853,100.74564 77.090542,100.93363 76.795132,100.93363 H 75.882046 Q 75.586636,100.93363 75.398647,100.74564 75.237514,100.55766 75.210659,100.23539 L 74.727261,86.431679 71.746304,92.393593 Q 71.53146,92.876991 70.967495,92.876991 H 70.215542 Q 69.651577,92.876991 69.436733,92.393593 L 66.455776,86.431679 65.972378,100.23539 Q 65.945522,100.55766 65.757534,100.74564 65.596401,100.93363 65.300991,100.93363 H 64.387905 Q 64.092495,100.93363 63.877651,100.74564 63.689663,100.5308 63.689663,100.23539 L 64.226772,82.671913 Q 64.226772,82.000526 64.95187,82.000526 H 65.381557 Q 66.509487,82.000526 66.96603,82.967323 L 70.591518,90.2183 74.217007,82.967323 Q 74.67355,82.000526 75.801479,82.000526 H 76.231167 Q 76.956264,82.000526 76.956264,82.671913 Z"
         id="path14" />
      <path
         d="M 86.113979,87.183632 Q 87.644741,87.183632 88.853237,87.96244 90.061733,88.714394 90.759975,90.298866 91.458218,91.883339 91.458218,94.219765 91.458218,96.55619 90.759975,98.140663 90.061733,99.725136 88.853237,100.50394 87.644741,101.2559 86.113979,101.2559 84.583218,101.2559 83.321011,100.47709 82.085659,99.69828 81.333706,98.113808 80.581753,96.529335 80.581753,94.219765 80.581753,91.910194 81.333706,90.325722 82.085659,88.741249 83.321011,87.96244 84.583218,87.183632 86.113979,87.183632 Z M 82.864468,94.219765 Q 82.864468,96.55619 83.723843,97.872108 84.610073,99.188026 86.033413,99.188026 87.456753,99.188026 88.316128,97.872108 89.175503,96.55619 89.175503,94.219765 89.175503,91.883339 88.316128,90.567421 87.456753,89.251503 86.033413,89.251503 84.610073,89.251503 83.723843,90.567421 82.864468,91.883339 82.864468,94.219765 Z"
         id="path16" />
      <path
         d="M 96.023647,88.284706 Q 96.023647,87.693886 96.641323,87.559608 98.789761,87.237343 101.20675,87.237343 104.21457,87.237343 105.55734,88.49955 106.90011,89.734901 106.90011,92.662148 V 100.26225 Q 106.90011,100.93363 106.22873,100.93363 H 105.28878 Q 104.6174,100.93363 104.6174,100.26225 V 92.662148 Q 104.6174,90.782265 103.83859,90.030312 103.05978,89.278358 101.20675,89.278358 99.91769,89.278358 98.306362,89.38578 V 100.26225 Q 98.306362,100.93363 97.634975,100.93363 H 96.695034 Q 96.023647,100.93363 96.023647,100.26225 Z"
         id="path18" />
      <path
         d="M 116.99777,87.183632 Q 118.52853,87.183632 119.73703,87.96244 120.94552,88.714394 121.64376,90.298866 122.34201,91.883339 122.34201,94.219765 122.34201,96.55619 121.64376,98.140663 120.94552,99.725136 119.73703,100.50394 118.52853,101.2559 116.99777,101.2559 115.46701,101.2559 114.2048,100.47709 112.96945,99.69828 112.21749,98.113808 111.46554,96.529335 111.46554,94.219765 111.46554,91.910194 112.21749,90.325722 112.96945,88.741249 114.2048,87.96244 115.46701,87.183632 116.99777,87.183632 Z M 113.74826,94.219765 Q 113.74826,96.55619 114.60763,97.872108 115.49386,99.188026 116.9172,99.188026 118.34054,99.188026 119.19992,97.872108 120.05929,96.55619 120.05929,94.219765 120.05929,91.883339 119.19992,90.567421 118.34054,89.251503 116.9172,89.251503 115.49386,89.251503 114.60763,90.567421 113.74826,91.883339 113.74826,94.219765 Z"
         id="path20" />
      <path
         d="M 126.90744,88.284706 Q 126.90744,87.693886 127.52511,87.559608 129.67355,87.237343 132.09054,87.237343 135.09835,87.237343 136.44113,88.49955 137.7839,89.734901 137.7839,92.662148 V 100.26225 Q 137.7839,100.93363 137.11251,100.93363 H 136.17257 Q 135.50119,100.93363 135.50119,100.26225 V 92.662148 Q 135.50119,90.782265 134.72238,90.030312 133.94357,89.278358 132.09054,89.278358 130.80148,89.278358 129.19015,89.38578 V 100.26225 Q 129.19015,100.93363 128.51876,100.93363 H 127.57882 Q 126.90744,100.93363 126.90744,100.26225 Z"
         id="path22" />
      <path
         d="M 147.88156,87.183632 Q 149.41232,87.183632 150.62082,87.96244 151.82931,88.714394 152.52755,90.298866 153.2258,91.883339 153.2258,94.219765 153.2258,96.55619 152.52755,98.140663 151.82931,99.725136 150.62082,100.50394 149.41232,101.2559 147.88156,101.2559 146.3508,101.2559 145.08859,100.47709 143.85324,99.69828 143.10128,98.113808 142.34933,96.529335 142.34933,94.219765 142.34933,91.910194 143.10128,90.325722 143.85324,88.741249 145.08859,87.96244 146.3508,87.183632 147.88156,87.183632 Z M 144.63205,94.219765 Q 144.63205,96.55619 145.49142,97.872108 146.37765,99.188026 147.80099,99.188026 149.22433,99.188026 150.08371,97.872108 150.94308,96.55619 150.94308,94.219765 150.94308,91.883339 150.08371,90.567421 149.22433,89.251503 147.80099,89.251503 146.37765,89.251503 145.49142,90.567421 144.63205,91.883339 144.63205,94.219765 Z"
         id="path24" />
      <path
         d="M 169.12423,100.10111 Q 169.36593,100.34281 169.36593,100.55766 169.36593,100.71879 169.2048,100.82621 169.04367,100.93363 168.77511,100.93363 H 167.21749 Q 166.7341,100.93363 166.38498,100.58451 L 161.01388,95.186562 Q 160.69162,94.864296 160.47677,94.730019 160.28878,94.595741 160.07394,94.595741 V 100.26225 Q 160.07394,100.93363 159.40255,100.93363 H 158.46261 Q 157.79123,100.93363 157.79123,100.26225 V 81.463417 Q 157.79123,80.79203 158.46261,80.79203 H 159.40255 Q 160.07394,80.79203 160.07394,81.463417 V 93.279823 Q 160.26193,93.279823 160.47677,93.145546 160.69162,93.011269 161.01388,92.689003 L 165.84787,87.855019 Q 166.19699,87.505898 166.68039,87.505898 H 168.238 Q 168.50656,87.505898 168.66769,87.613319 168.82882,87.720741 168.82882,87.881874 168.82882,88.096718 168.58712,88.338417 L 163.96798,92.957558 Q 163.59201,93.333534 163.2966,93.521523 163.02804,93.709511 162.43722,93.95121 163.02804,94.192909 163.2966,94.380898 163.59201,94.568886 163.96798,94.944862 Z"
         id="path26" />
      <path
         d="M 179.14132,80.523476 Q 179.81271,80.523476 179.81271,81.194862 V 82.967323 Q 179.81271,83.63871 179.14132,83.63871 H 177.39572 Q 176.72433,83.63871 176.72433,82.967323 V 81.194862 Q 176.72433,80.523476 177.39572,80.523476 Z M 173.23312,99.537148 Q 173.23312,98.865761 173.90451,98.865761 H 177.52999 V 89.546913 H 174.79074 Q 174.11935,89.546913 174.11935,88.875526 V 88.177284 Q 174.11935,87.505898 174.79074,87.505898 H 179.14132 Q 179.81271,87.505898 179.81271,88.177284 V 98.865761 H 183.4382 Q 184.10958,98.865761 184.10958,99.537148 V 100.26225 Q 184.10958,100.93363 183.4382,100.93363 H 173.90451 Q 173.23312,100.93363 173.23312,100.26225 Z"
         id="path28" />
      <path
         d="M 214.72482,82.134804 Q 215.02023,82.134804 215.20822,82.349648 215.42306,82.537636 215.42306,82.833046 V 100.26225 Q 215.42306,100.93363 214.69796,100.93363 H 214.26828 Q 213.70431,100.93363 213.32833,100.71879 212.95236,100.47709 212.6838,99.966835 L 205.96994,86.7808 V 100.23539 Q 205.96994,100.5308 205.78195,100.74564 205.59396,100.93363 205.29855,100.93363 H 204.38546 Q 204.09005,100.93363 203.87521,100.74564 203.68722,100.5308 203.68722,100.23539 V 82.80619 Q 203.68722,82.134804 204.41232,82.134804 H 204.84201 Q 205.45968,82.134804 205.8088,82.322792 206.18478,82.483925 206.42648,82.967323 L 213.14035,96.395058 V 82.833046 Q 213.14035,82.537636 213.32833,82.349648 213.51632,82.134804 213.81173,82.134804 Z"
         id="path30" />
      <path
         d="M 230.46212,99.510292 Q 230.54269,99.671425 230.54269,99.832558 230.54269,100.23539 230.113,100.39652 228.23312,101.20219 226.08468,101.20219 223.26486,101.20219 221.41183,99.510292 219.5588,97.791542 219.5588,94.219765 219.5588,92.044472 220.31076,90.459999 221.06271,88.875526 222.32492,88.069862 223.58712,87.237343 225.11789,87.237343 226.51437,87.237343 227.72287,87.96244 228.95822,88.660683 229.68332,90.030312 230.43527,91.39994 230.43527,93.279823 V 93.897499 Q 230.43527,94.568886 229.76388,94.568886 H 221.86837 Q 221.94894,96.932167 223.15744,98.033241 224.39279,99.10746 226.1921,99.10746 227.58859,99.10746 229.33419,98.489784 229.44162,98.436073 229.6296,98.436073 230.03244,98.436073 230.19357,98.865761 Z M 228.15255,92.501015 Q 228.15255,91.480507 227.69601,90.755409 227.23947,90.030312 226.54123,89.654335 225.86984,89.278358 225.14474,89.278358 224.01681,89.278358 223.10373,90.137733 222.19064,90.997108 222.05636,92.501015 Z"
         id="path32" />
      <path
         d="M 235.0007,88.284706 Q 235.0007,87.693886 235.61837,87.559608 237.76681,87.237343 240.1838,87.237343 242.30539,87.237343 243.51388,87.66703 244.74923,88.096718 245.3132,89.036659 245.87716,89.976601 245.87716,91.587929 245.87716,92.259315 245.20578,92.259315 H 244.26583 Q 243.59445,92.259315 243.59445,91.587929 243.59445,90.325722 242.81564,89.815468 242.03683,89.278358 240.1838,89.278358 238.89474,89.278358 237.28341,89.38578 V 100.26225 Q 237.28341,100.93363 236.61203,100.93363 H 235.67208 Q 235.0007,100.93363 235.0007,100.26225 Z"
         id="path34" />
      <path
         d="M 261.31906,99.859413 Q 261.31906,100.23539 260.96994,100.42338 259.03634,101.20219 256.96847,101.20219 254.14865,101.20219 252.29562,99.510292 250.44259,97.791542 250.44259,94.219765 250.44259,90.647987 252.29562,88.956093 254.14865,87.237343 256.96847,87.237343 257.96212,87.237343 259.03634,87.452187 V 81.463417 Q 259.03634,80.79203 259.70773,80.79203 H 260.64767 Q 261.31906,80.79203 261.31906,81.463417 Z M 252.75216,94.219765 Q 252.75216,96.79789 253.88009,97.952675 255.03488,99.10746 256.96847,99.10746 257.98898,99.10746 259.03634,98.865761 V 89.412636 Q 258.01583,89.224648 257.23703,89.224648 255.22287,89.224648 253.98751,90.379433 252.75216,91.507362 252.75216,94.219765 Z"
         id="path36" />
      <path
         d="M 292.2297,82.134804 Q 292.90109,82.134804 292.90109,82.80619 V 83.504433 Q 292.90109,84.175819 292.2297,84.175819 H 283.6091 V 91.050819 H 291.63888 Q 292.31027,91.050819 292.31027,91.722206 V 92.447304 Q 292.31027,93.091835 291.63888,93.091835 H 283.6091 V 100.26225 Q 283.6091,100.93363 282.93771,100.93363 H 281.99777 Q 281.32638,100.93363 281.32638,100.26225 V 82.80619 Q 281.32638,82.134804 281.99777,82.134804 Z"
         id="path38" />
      <path
         d="M 302.3005,87.183632 Q 303.83126,87.183632 305.03976,87.96244 306.24826,88.714394 306.9465,90.298866 307.64474,91.883339 307.64474,94.219765 307.64474,96.55619 306.9465,98.140663 306.24826,99.725136 305.03976,100.50394 303.83126,101.2559 302.3005,101.2559 300.76974,101.2559 299.50753,100.47709 298.27218,99.69828 297.52023,98.113808 296.76828,96.529335 296.76828,94.219765 296.76828,91.910194 297.52023,90.325722 298.27218,88.741249 299.50753,87.96244 300.76974,87.183632 302.3005,87.183632 Z M 299.05099,94.219765 Q 299.05099,96.55619 299.91037,97.872108 300.7966,99.188026 302.21994,99.188026 303.64328,99.188026 304.50265,97.872108 305.36203,96.55619 305.36203,94.219765 305.36203,91.883339 304.50265,90.567421 303.64328,89.251503 302.21994,89.251503 300.7966,89.251503 299.91037,90.567421 299.05099,91.883339 299.05099,94.219765 Z"
         id="path40" />
      <path
         d="M 312.21017,88.284706 Q 312.21017,87.693886 312.82785,87.559608 314.97628,87.237343 317.39328,87.237343 320.40109,87.237343 321.74386,88.49955 323.08664,89.734901 323.08664,92.662148 V 100.26225 Q 323.08664,100.93363 322.41525,100.93363 H 321.47531 Q 320.80392,100.93363 320.80392,100.26225 V 92.662148 Q 320.80392,90.782265 320.02511,90.030312 319.2463,89.278358 317.39328,89.278358 316.10421,89.278358 314.49289,89.38578 V 100.26225 Q 314.49289,100.93363 313.8215,100.93363 H 312.88156 Q 312.21017,100.93363 312.21017,100.26225 Z"
         id="path42" />
      <path
         d="M 338.44796,99.805702 Q 338.52853,99.966835 338.52853,100.12797 338.52853,100.50394 338.07199,100.66508 336.59494,101.20219 335.25216,101.20219 333.10373,101.20219 331.7341,99.832558 330.36447,98.462929 330.36447,95.455116 V 89.546913 H 328.32345 Q 327.65207,89.546913 327.65207,88.875526 V 88.177284 Q 327.65207,87.505898 328.32345,87.505898 H 330.36447 V 83.880409 Q 330.36447,83.209023 331.03585,83.209023 H 331.9758 Q 332.64718,83.209023 332.64718,83.880409 V 87.505898 H 337.05148 Q 337.72287,87.505898 337.72287,88.177284 V 88.875526 Q 337.72287,89.546913 337.05148,89.546913 H 332.64718 V 95.455116 Q 332.64718,97.496132 333.31857,98.301796 333.98996,99.10746 335.25216,99.10746 336.24582,99.10746 337.26632,98.731483 337.37374,98.677773 337.58859,98.677773 337.96457,98.677773 338.15255,99.10746 Z"
         id="path44" />
    </g>
    <g
       aria-label="abcdefghijklmnopqrstuvwxyzABCDEFGHIJKLMNOPQRSTUVWXYZ oO08 iIlL1 {} [] g9qCGQ ~-+=&gt;"
       id="text4140"
       style="font-size:17.5px;font-family:'Mononoki Nerd Font';letter-spacing:0px;word-spacing:0px;fill:#ffffff">
      <path
         d="M 73.45163,140.43802 Q 73.45163,140.84818 73.041473,140.89944 71.349579,141.10452 70.290009,141.10452 69.179169,141.10452 68.358856,140.77982 67.555634,140.43802 67.145477,139.87405 66.735321,139.31009 66.735321,138.64359 66.735321,137.97708 67.145477,137.41312 67.555634,136.84915 68.375946,136.50735 69.196259,136.16556 70.341278,136.16556 H 71.998993 V 135.48196 Q 71.998993,134.4053 71.435028,133.96097 70.871063,133.49954 69.760223,133.49954 69.05954,133.49954 68.205048,133.67044 L 68.068329,133.68753 Q 67.743622,133.68753 67.692352,133.36282 L 67.641083,132.9014 V 132.79886 Q 67.641083,132.62796 67.709442,132.54251 67.794891,132.43997 67.96579,132.40579 69.07663,132.18362 70.08493,132.18362 71.742645,132.18362 72.597137,132.96976 73.45163,133.75589 73.45163,135.48196 Z M 68.205048,138.66068 Q 68.205048,139.15628 68.769012,139.49808 69.332977,139.82278 70.392548,139.82278 70.871063,139.82278 71.998993,139.72025 V 137.48148 H 70.341278 Q 69.315887,137.48148 68.751923,137.82327 68.205048,138.16507 68.205048,138.66068 Z"
         id="path47" />
      <path
         d="M 76.6987,128.54349 Q 76.6987,128.11624 77.125946,128.11624 H 77.724091 Q 78.151337,128.11624 78.151337,128.54349 V 132.35452 Q 78.83493,132.2178 79.467255,132.2178 81.261688,132.2178 82.440887,133.31155 83.620087,134.38821 83.620087,136.66116 83.620087,138.93411 82.440887,140.02786 81.261688,141.10452 79.467255,141.10452 78.151337,141.10452 76.920868,140.60892 76.6987,140.48929 76.6987,140.25003 Z M 78.151337,139.61771 Q 78.817841,139.77151 79.467255,139.77151 80.697723,139.77151 81.415497,139.03665 82.15036,138.30179 82.15036,136.66116 82.15036,134.93509 81.364227,134.21732 80.578094,133.48245 79.296356,133.48245 78.817841,133.48245 78.151337,133.60208 Z"
         id="path49" />
      <path
         d="M 93.292938,133.70462 Q 93.190399,133.97806 92.934052,133.97806 92.814423,133.97806 92.746063,133.94388 91.669403,133.55081 90.678192,133.55081 89.447723,133.55081 88.71286,134.28568 87.995087,135.02054 87.995087,136.66116 87.995087,138.30179 88.71286,139.03665 89.447723,139.77151 90.678192,139.77151 91.635223,139.77151 92.746063,139.37845 92.814423,139.34427 92.934052,139.34427 93.190399,139.34427 93.292938,139.61771 L 93.463837,140.02786 Q 93.515106,140.1304 93.515106,140.23294 93.515106,140.48929 93.241669,140.59183 92.04538,141.10452 90.678192,141.10452 88.883759,141.10452 87.704559,140.02786 86.52536,138.93411 86.52536,136.66116 86.52536,134.38821 87.704559,133.31155 88.883759,132.2178 90.678192,132.2178 92.04538,132.2178 93.241669,132.7305 93.515106,132.83304 93.515106,133.08939 93.515106,133.19193 93.463837,133.29446 Z"
         id="path51" />
      <path
         d="M 103.27341,140.25003 Q 103.27341,140.48929 103.05124,140.60892 101.82077,141.10452 100.50485,141.10452 98.710419,141.10452 97.531219,140.02786 96.35202,138.93411 96.35202,136.66116 96.35202,134.38821 97.531219,133.31155 98.710419,132.2178 100.50485,132.2178 101.13718,132.2178 101.82077,132.35452 V 128.54349 Q 101.82077,128.11624 102.24802,128.11624 H 102.84616 Q 103.27341,128.11624 103.27341,128.54349 Z M 97.821747,136.66116 Q 97.821747,138.30179 98.53952,139.03665 99.274384,139.77151 100.50485,139.77151 101.15427,139.77151 101.82077,139.61771 V 133.60208 Q 101.17136,133.48245 100.67575,133.48245 99.394012,133.48245 98.60788,134.21732 97.821747,134.93509 97.821747,136.66116 Z"
         id="path53" />
      <path
         d="M 113.11716,140.02786 Q 113.16843,140.1304 113.16843,140.23294 113.16843,140.48929 112.89499,140.59183 111.6987,141.10452 110.33151,141.10452 108.53708,141.10452 107.35788,140.02786 106.17868,138.93411 106.17868,136.66116 106.17868,135.27689 106.6572,134.26859 107.13571,133.26028 107.93893,132.74759 108.74216,132.2178 109.71628,132.2178 110.60495,132.2178 111.37399,132.67923 112.16013,133.12357 112.62155,133.99515 113.10007,134.86673 113.10007,136.06302 V 136.45609 Q 113.10007,136.88333 112.67282,136.88333 H 107.64841 Q 107.69968,138.38724 108.46872,139.08792 109.25485,139.77151 110.39987,139.77151 111.28854,139.77151 112.39938,139.37845 112.46774,139.34427 112.58737,139.34427 112.84372,139.34427 112.94626,139.61771 Z M 111.64743,135.56741 Q 111.64743,134.918 111.3569,134.45657 111.06638,133.99515 110.62204,133.75589 110.19479,133.51663 109.73337,133.51663 109.01559,133.51663 108.43454,134.06351 107.85349,134.61038 107.76804,135.56741 Z"
         id="path55" />
      <path
         d="M 122.85837,129.22708 Q 122.73874,129.50052 122.49948,129.50052 122.36276,129.50052 122.2944,129.46634 121.64499,129.22708 121.01266,129.22708 120.20944,129.22708 119.7822,129.73978 119.37204,130.25247 119.37204,131.5513 V 132.3887 H 122.15768 Q 122.58493,132.3887 122.58493,132.81595 V 133.26028 Q 122.58493,133.68753 122.15768,133.68753 H 119.35495 V 140.50638 Q 119.35495,140.93362 118.9277,140.93362 H 118.32956 Q 117.90231,140.93362 117.90231,140.50638 V 133.68753 H 116.26169 Q 115.83444,133.68753 115.83444,133.26028 V 132.81595 Q 115.83444,132.3887 116.26169,132.3887 H 117.90231 V 131.5513 Q 117.90231,129.63724 118.7739,128.76566 119.64548,127.89407 121.01266,127.89407 121.86716,127.89407 122.8071,128.23587 123.09763,128.33841 123.09763,128.57767 123.09763,128.68021 123.04636,128.78275 Z"
         id="path57" />
      <path
         d="M 129.84811,139.89114 Q 131.95016,139.89114 133.07809,140.57474 134.20602,141.24124 134.20602,142.42044 134.18893,143.668 133.04391,144.41995 131.8989,145.17191 129.84811,145.17191 127.62643,145.17191 126.43015,144.57376 125.25095,143.97562 125.25095,142.86478 125.25095,142.23245 125.62692,141.6514 126.0029,141.07034 126.61813,140.74564 126.22507,140.52347 126.03708,140.19876 125.86618,139.87405 125.86618,139.41263 125.86618,138.88284 126.20798,138.40433 126.56686,137.90872 127.09665,137.66946 126.4985,137.25931 126.1738,136.62698 125.86618,135.99466 125.86618,135.24271 125.86618,134.38821 126.29343,133.70462 126.73776,133.00394 127.5239,132.61087 128.31003,132.2178 129.30124,132.2178 129.88229,132.2178 130.51462,132.3887 H 133.09518 Q 133.52243,132.3887 133.52243,132.81595 V 133.08939 Q 133.52243,133.51663 133.09518,133.51663 H 132.17233 Q 132.7363,134.30276 132.7363,135.27689 132.7363,136.14847 132.29196,136.84915 131.86472,137.53275 131.07858,137.9429 130.30954,138.33597 129.30124,138.33597 128.65182,138.33597 128.03659,138.14798 127.69479,138.30179 127.50681,138.55814 127.31882,138.81448 127.31882,139.08792 127.31882,139.53226 127.88278,139.72025 128.46384,139.89114 129.84811,139.89114 Z M 126.60104,142.43753 Q 126.61813,143.12112 127.40427,143.48001 128.20749,143.85599 129.67722,143.85599 131.12985,143.85599 131.93307,143.44583 132.75339,143.03568 132.75339,142.42044 132.7363,141.85648 131.95016,141.53177 131.18112,141.20706 129.67722,141.20706 128.42966,141.20706 127.71188,141.08743 127.1821,141.29251 126.89157,141.6514 126.60104,142.01028 126.60104,142.43753 Z M 127.31882,135.27689 Q 127.31882,136.02884 127.88278,136.52444 128.46384,137.02005 129.30124,137.02005 130.13864,137.02005 130.70261,136.52444 131.28366,136.02884 131.28366,135.27689 131.28366,134.52493 130.7197,134.02933 130.15573,133.51663 129.30124,133.51663 128.44675,133.51663 127.88278,134.02933 127.31882,134.52493 127.31882,135.27689 Z"
         id="path59" />
      <path
         d="M 137.1113,132.30325 Q 138.10251,132.2178 138.957,132.2178 140.87106,132.2178 141.72556,133.02103 142.58005,133.80716 142.58005,135.66995 V 140.50638 Q 142.58005,140.93362 142.1528,140.93362 H 141.55466 Q 141.12741,140.93362 141.12741,140.50638 V 135.66995 Q 141.12741,134.47366 140.63181,133.99515 140.1362,133.51663 138.957,133.51663 138.06833,133.51663 137.1113,133.60208 V 140.50638 Q 137.1113,140.93362 136.68405,140.93362 H 136.08591 Q 135.65866,140.93362 135.65866,140.50638 V 128.5264 Q 135.65866,128.09915 136.08591,128.09915 L 136.68405,128.11624 Q 137.1113,128.11624 137.1113,128.54349 Z"
         id="path61" />
      <path
         d="M 149.24509,127.94534 Q 149.67233,127.94534 149.67233,128.37259 V 129.50052 Q 149.67233,129.92776 149.24509,129.92776 H 148.13425 Q 147.707,129.92776 147.707,129.50052 V 128.37259 Q 147.707,127.94534 148.13425,127.94534 Z M 145.48532,140.04495 Q 145.48532,139.61771 145.91257,139.61771 H 148.2197 V 133.68753 H 146.47653 Q 146.04929,133.68753 146.04929,133.26028 V 132.81595 Q 146.04929,132.3887 146.47653,132.3887 H 149.24509 Q 149.67233,132.3887 149.67233,132.81595 V 139.61771 H 151.97946 Q 152.40671,139.61771 152.40671,140.04495 V 140.50638 Q 152.40671,140.93362 151.97946,140.93362 H 145.91257 Q 145.48532,140.93362 145.48532,140.50638 Z"
         id="path63" />
      <path
         d="M 161.80612,127.94534 Q 162.23337,127.94534 162.23337,128.37259 V 129.50052 Q 162.23337,129.92776 161.80612,129.92776 H 160.69528 Q 160.26804,129.92776 160.26804,129.50052 V 128.37259 Q 160.26804,127.94534 160.69528,127.94534 Z M 155.46579,142.18118 Q 155.56833,141.90775 155.82468,141.90775 155.94431,141.90775 156.01266,141.94193 157.08932,142.33499 158.08054,142.33499 159.32809,142.33499 160.04587,141.54886 160.76364,140.76273 160.76364,138.88284 V 133.72171 H 155.99557 Q 155.56833,133.72171 155.56833,133.29446 V 132.81595 Q 155.56833,132.3887 155.99557,132.3887 H 161.80612 Q 162.23337,132.3887 162.23337,132.81595 V 138.88284 Q 162.23337,141.39505 161.05417,142.52298 159.89206,143.668 158.08054,143.668 156.73044,143.668 155.51706,143.1553 155.24362,143.05276 155.24362,142.79642 155.24362,142.69388 155.29489,142.59134 Z"
         id="path65" />
      <path
         d="M 172.35056,140.40384 Q 172.50436,140.55765 172.50436,140.69437 172.50436,140.79691 172.40182,140.86526 172.29929,140.93362 172.12839,140.93362 H 171.13718 Q 170.82956,140.93362 170.60739,140.71146 L 167.18942,137.2764 Q 166.98434,137.07132 166.84763,136.98587 166.728,136.90042 166.59128,136.90042 V 140.50638 Q 166.59128,140.93362 166.16403,140.93362 H 165.56589 Q 165.13864,140.93362 165.13864,140.50638 V 128.54349 Q 165.13864,128.11624 165.56589,128.11624 H 166.16403 Q 166.59128,128.11624 166.59128,128.54349 V 136.06302 Q 166.71091,136.06302 166.84763,135.97757 166.98434,135.89212 167.18942,135.68704 L 170.26559,132.61087 Q 170.48776,132.3887 170.79538,132.3887 H 171.78659 Q 171.95749,132.3887 172.06003,132.45706 172.16257,132.52542 172.16257,132.62796 172.16257,132.76468 172.00876,132.91849 L 169.06931,135.85794 Q 168.83005,136.0972 168.64206,136.21683 168.47116,136.33646 168.09518,136.49026 168.47116,136.64407 168.64206,136.7637 168.83005,136.88333 169.06931,137.12259 Z"
         id="path67" />
      <path
         d="M 181.95505,140.40384 Q 181.98923,140.4722 181.98923,140.59183 181.98923,140.86526 181.66452,140.93362 180.96384,141.10452 180.16061,141.10452 178.70798,141.10452 178.02438,140.45511 177.35788,139.7886 177.35788,138.37015 V 129.41507 H 175.44382 Q 175.01657,129.41507 175.01657,128.98782 V 128.54349 Q 175.01657,128.11624 175.44382,128.11624 H 178.38327 Q 178.81052,128.11624 178.81052,128.54349 V 138.37015 Q 178.81052,139.13919 179.10104,139.4639 179.40866,139.77151 180.16061,139.7886 180.77585,139.7886 181.27145,139.66898 181.32272,139.65189 181.40817,139.65189 181.6987,139.65189 181.81833,139.9595 Z"
         id="path69" />
      <path
         d="M 189.97018,132.25198 Q 191.16647,132.25198 191.73044,132.86722 192.2944,133.48245 192.2944,134.918 V 140.50638 Q 192.2944,140.93362 191.86716,140.93362 H 191.26901 Q 190.84177,140.93362 190.84177,140.50638 V 134.95218 Q 190.84177,134.18314 190.55124,133.87552 190.26071,133.55081 189.56003,133.55081 189.21823,133.55081 188.80807,133.60208 188.97897,134.11478 188.97897,134.95218 V 140.50638 Q 188.97897,140.93362 188.55173,140.93362 H 187.95358 Q 187.52634,140.93362 187.52634,140.50638 V 134.95218 Q 187.52634,134.18314 187.23581,133.87552 186.94528,133.55081 186.2446,133.55081 185.97116,133.55081 185.66354,133.58499 V 140.50638 Q 185.66354,140.93362 185.2363,140.93362 H 184.63815 Q 184.21091,140.93362 184.21091,140.50638 V 132.93558 Q 184.21091,132.5596 184.60397,132.47415 185.83444,132.25198 186.56931,132.25198 187.64597,132.25198 188.19284,132.66214 189.03024,132.25198 189.97018,132.25198 Z"
         id="path71" />
      <path
         d="M 194.61862,132.88431 Q 194.61862,132.50833 195.01169,132.42288 196.37888,132.2178 197.91696,132.2178 199.83102,132.2178 200.68552,133.02103 201.54001,133.80716 201.54001,135.66995 V 140.50638 Q 201.54001,140.93362 201.11276,140.93362 H 200.51462 Q 200.08737,140.93362 200.08737,140.50638 V 135.66995 Q 200.08737,134.47366 199.59177,133.99515 199.09616,133.51663 197.91696,133.51663 197.09665,133.51663 196.07126,133.58499 V 140.50638 Q 196.07126,140.93362 195.64401,140.93362 H 195.04587 Q 194.61862,140.93362 194.61862,140.50638 Z"
         id="path73" />
      <path
         d="M 207.96579,132.18362 Q 208.93991,132.18362 209.70895,132.67923 210.478,133.15775 210.92233,134.16605 211.36667,135.17435 211.36667,136.66116 211.36667,138.14798 210.92233,139.15628 210.478,140.16458 209.70895,140.66019 208.93991,141.1387 207.96579,141.1387 206.99167,141.1387 206.18845,140.6431 205.40231,140.14749 204.9238,139.13919 204.44528,138.13089 204.44528,136.66116 204.44528,135.19144 204.9238,134.18314 205.40231,133.17484 206.18845,132.67923 206.99167,132.18362 207.96579,132.18362 Z M 205.89792,136.66116 Q 205.89792,138.14798 206.44479,138.98538 207.00876,139.82278 207.91452,139.82278 208.82028,139.82278 209.36716,138.98538 209.91403,138.14798 209.91403,136.66116 209.91403,135.17435 209.36716,134.33694 208.82028,133.49954 207.91452,133.49954 207.00876,133.49954 206.44479,134.33694 205.89792,135.17435 205.89792,136.66116 Z"
         id="path75" />
      <path
         d="M 214.27194,133.0723 Q 214.27194,132.81595 214.49411,132.71341 215.72458,132.2178 217.0405,132.2178 218.83493,132.2178 220.01413,133.31155 221.19333,134.38821 221.19333,136.66116 221.19333,138.93411 220.01413,140.02786 218.83493,141.10452 217.0405,141.10452 216.40817,141.10452 215.72458,140.9678 V 144.77884 Q 215.72458,145.20609 215.29733,145.20609 H 214.69919 Q 214.27194,145.20609 214.27194,144.77884 Z M 215.72458,139.72025 Q 216.39108,139.83987 216.8696,139.83987 218.15134,139.83987 218.93747,139.1221 219.7236,138.38724 219.7236,136.66116 219.7236,135.02054 218.98874,134.28568 218.27097,133.55081 217.0405,133.55081 216.39108,133.55081 215.72458,133.70462 Z"
         id="path77" />
      <path
         d="M 231.01999,144.77884 Q 231.01999,145.20609 230.59274,145.20609 H 229.9946 Q 229.56735,145.20609 229.56735,144.77884 V 140.9678 Q 228.88376,141.10452 228.25143,141.10452 226.457,141.10452 225.2778,140.02786 224.0986,138.93411 224.0986,136.66116 224.0986,134.38821 225.2778,133.31155 226.457,132.2178 228.25143,132.2178 229.56735,132.2178 230.79782,132.71341 231.01999,132.81595 231.01999,133.0723 Z M 225.56833,136.66116 Q 225.56833,138.38724 226.35446,139.1221 227.14059,139.83987 228.42233,139.83987 228.91794,139.83987 229.56735,139.72025 V 133.70462 Q 228.90085,133.55081 228.25143,133.55081 227.02097,133.55081 226.2861,134.28568 225.56833,135.02054 225.56833,136.66116 Z"
         id="path79" />
      <path
         d="M 233.92526,132.88431 Q 233.92526,132.50833 234.31833,132.42288 235.68552,132.2178 237.2236,132.2178 238.5737,132.2178 239.34274,132.49124 240.12888,132.76468 240.48776,133.36282 240.84665,133.96097 240.84665,134.98636 240.84665,135.4136 240.4194,135.4136 H 239.82126 Q 239.39401,135.4136 239.39401,134.98636 239.39401,134.18314 238.89841,133.85843 238.4028,133.51663 237.2236,133.51663 236.40329,133.51663 235.3779,133.58499 V 140.50638 Q 235.3779,140.93362 234.95065,140.93362 H 234.35251 Q 233.92526,140.93362 233.92526,140.50638 Z"
         id="path81" />
      <path
         d="M 249.63083,133.36282 Q 249.52829,133.7388 249.11813,133.67044 248.14401,133.51663 247.58005,133.51663 246.72556,133.51663 246.1445,133.80716 245.56345,134.0806 245.56345,134.59329 245.56345,135.03763 246.02487,135.37943 246.4863,135.72122 247.30661,135.82376 248.82761,136.01175 249.56247,136.71243 250.31442,137.41312 250.31442,138.43851 250.31442,139.6348 249.37448,140.36966 248.43454,141.10452 246.72556,141.10452 245.58054,141.10452 244.41843,140.91653 244.05954,140.86526 244.05954,140.54056 244.05954,140.45511 244.07663,140.40384 L 244.17917,139.9595 Q 244.24753,139.56644 244.67477,139.61771 245.66599,139.7886 246.72556,139.7886 247.75095,139.7886 248.29782,139.41263 248.86179,139.03665 248.86179,138.43851 248.86179,137.9429 248.43454,137.58401 248.02438,137.22513 247.13571,137.13968 245.71725,137.00296 244.91403,136.30228 244.11081,135.5845 244.11081,134.59329 244.11081,133.55081 244.98239,132.88431 245.85397,132.2178 247.40915,132.2178 248.41745,132.2178 249.42575,132.40579 249.76755,132.45706 249.76755,132.78177 249.76755,132.86722 249.75046,132.91849 Z"
         id="path83" />
      <path
         d="M 260.4487,140.21585 Q 260.49997,140.31839 260.49997,140.42093 260.49997,140.66019 260.20944,140.76273 259.2695,141.10452 258.41501,141.10452 257.04782,141.10452 256.17624,140.23294 255.30466,139.36136 255.30466,137.4473 V 133.68753 H 254.00583 Q 253.57858,133.68753 253.57858,133.26028 V 132.81595 Q 253.57858,132.3887 254.00583,132.3887 H 255.30466 V 130.08157 Q 255.30466,129.65433 255.7319,129.65433 H 256.33005 Q 256.75729,129.65433 256.75729,130.08157 V 132.3887 H 259.56003 Q 259.98727,132.3887 259.98727,132.81595 V 133.26028 Q 259.98727,133.68753 259.56003,133.68753 H 256.75729 V 137.4473 Q 256.75729,138.74612 257.18454,139.25882 257.61179,139.77151 258.41501,139.77151 259.04733,139.77151 259.69675,139.53226 259.76511,139.49808 259.90182,139.49808 260.14108,139.49808 260.26071,139.77151 Z"
         id="path85" />
      <path
         d="M 270.32663,140.43802 Q 270.32663,140.814 269.93356,140.89944 268.56638,141.10452 267.02829,141.10452 265.11423,141.10452 264.25974,140.31839 263.40524,139.51517 263.40524,137.65237 V 132.81595 Q 263.40524,132.3887 263.83249,132.3887 H 264.43063 Q 264.85788,132.3887 264.85788,132.81595 V 137.65237 Q 264.85788,138.84866 265.35349,139.32718 265.84909,139.80569 267.02829,139.80569 267.8486,139.80569 268.87399,139.73734 V 132.81595 Q 268.87399,132.3887 269.30124,132.3887 H 269.89938 Q 270.32663,132.3887 270.32663,132.81595 Z"
         id="path87" />
      <path
         d="M 279.02536,132.76468 Q 279.1279,132.3887 279.48679,132.3887 H 280.08493 Q 280.3071,132.3887 280.40964,132.52542 280.51218,132.64505 280.46091,132.86722 L 278.7861,139.58353 Q 278.6152,140.3013 278.03415,140.71146 277.47018,141.10452 276.70114,141.10452 275.91501,141.10452 275.33395,140.71146 274.76999,140.3013 274.59909,139.58353 L 272.92429,132.86722 Q 272.9072,132.81595 272.9072,132.7305 272.9072,132.5596 273.00974,132.47415 273.11227,132.3887 273.30026,132.3887 H 273.9155 Q 274.27438,132.3887 274.37692,132.76468 L 276.03464,139.34427 Q 276.103,139.56644 276.29099,139.68607 276.47897,139.80569 276.70114,139.80569 276.9404,139.80569 277.1113,139.68607 277.29929,139.56644 277.36765,139.34427 Z"
         id="path89" />
      <path
         d="M 290.57809,140.59183 Q 290.57809,141.01907 290.11667,141.01907 H 289.84323 Q 289.12546,141.01907 288.83493,140.40384 L 286.5278,135.78958 284.22067,140.40384 Q 283.93015,141.01907 283.21237,141.01907 H 282.93893 Q 282.51169,141.01907 282.47751,140.59183 L 282.13571,132.83304 Q 282.11862,132.64505 282.25534,132.52542 282.39206,132.3887 282.58005,132.3887 H 283.1611 Q 283.34909,132.3887 283.45163,132.50833 283.57126,132.62796 283.58835,132.83304 L 283.89597,138.19925 285.79294,134.4053 Q 285.92966,134.09769 286.28854,134.09769 H 286.76706 Q 287.12595,134.09769 287.26266,134.4053 L 289.15964,138.19925 289.46725,132.83304 Q 289.48434,132.62796 289.58688,132.50833 289.70651,132.3887 289.8945,132.3887 H 290.47556 Q 290.66354,132.3887 290.78317,132.52542 290.91989,132.64505 290.91989,132.83304 Z"
         id="path91" />
      <path
         d="M 298.1489,135.97757 Q 297.96091,136.35355 297.49948,136.54153 297.70456,136.60989 297.87546,136.7637 298.06345,136.91751 298.1489,137.08841 L 299.75534,140.42093 Q 299.80661,140.54056 299.80661,140.6431 299.80661,140.93362 299.43063,140.93362 H 298.88376 Q 298.52487,140.93362 298.37106,140.62601 L 296.86716,137.6011 Q 296.71335,137.29349 296.61081,137.19095 296.52536,137.08841 296.35446,137.08841 296.18356,137.08841 296.08102,137.19095 295.99557,137.29349 295.84177,137.6011 L 294.32077,140.62601 Q 294.16696,140.93362 293.82516,140.93362 H 293.2612 Q 292.88522,140.93362 292.88522,140.66019 292.88522,140.54056 292.95358,140.42093 L 294.56003,137.08841 Q 294.64548,136.91751 294.81638,136.7637 294.98727,136.60989 295.19235,136.54153 294.71384,136.33646 294.56003,135.97757 L 293.05612,132.88431 Q 293.00485,132.78177 293.00485,132.67923 293.00485,132.54251 293.10739,132.47415 293.20993,132.3887 293.38083,132.3887 H 293.94479 Q 294.30368,132.3887 294.4404,132.69632 L 295.84177,135.48196 Q 295.99557,135.77249 296.08102,135.89212 296.16647,135.99466 296.33737,135.99466 296.52536,135.99466 296.61081,135.89212 296.71335,135.78958 296.86716,135.48196 L 298.25143,132.69632 Q 298.38815,132.3887 298.76413,132.3887 H 299.32809 Q 299.68698,132.3887 299.68698,132.66214 299.68698,132.74759 299.63571,132.88431 Z"
         id="path93" />
      <path
         d="M 309.582,132.3887 Q 309.7529,132.3887 309.85544,132.49124 309.95798,132.57669 309.95798,132.7305 309.95798,132.81595 309.94089,132.86722 L 307.82175,141.27542 Q 307.29196,143.36038 306.42038,144.28323 305.5488,145.20609 304.06198,145.20609 303.13913,145.20609 301.97702,144.79593 301.68649,144.65921 301.68649,144.41995 301.68649,144.38577 301.72067,144.24905 L 301.87448,143.82181 Q 301.97702,143.53128 302.23337,143.53128 302.353,143.53128 302.42136,143.56546 302.79733,143.70218 303.25876,143.77054 303.73727,143.85599 304.06198,143.85599 304.95065,143.85599 305.49753,143.20657 306.0444,142.55716 306.40329,141.10452 H 306.18112 Q 305.34372,141.10452 304.79684,140.71146 304.26706,140.31839 304.07907,139.56644 L 302.40427,132.86722 Q 302.38718,132.81595 302.38718,132.7305 302.38718,132.3887 302.78024,132.3887 H 303.39548 Q 303.78854,132.3887 303.8569,132.74759 L 305.51462,139.34427 Q 305.56589,139.58353 305.73679,139.72025 305.90768,139.85696 306.18112,139.85696 H 306.71091 L 308.48825,132.74759 Q 308.59079,132.3887 308.96677,132.3887 Z"
         id="path95" />
      <path
         d="M 319.03268,139.61771 Q 319.45993,139.61771 319.45993,140.04495 V 140.50638 Q 319.45993,140.93362 319.03268,140.93362 H 312.96579 Q 312.55563,140.93362 312.55563,140.50638 V 139.73734 Q 312.55563,139.1221 312.99997,138.67776 L 317.9902,133.68753 H 313.32468 Q 312.89743,133.68753 312.89743,133.26028 V 132.81595 Q 312.89743,132.3887 313.32468,132.3887 H 319.03268 Q 319.44284,132.3887 319.44284,132.81595 V 133.5679 Q 319.44284,134.18314 318.9985,134.62747 L 314.00827,139.61771 Z"
         id="path97" />
      <path
         d="M 74.955536,162.33011 Q 74.972626,162.38138 74.972626,162.46683 74.972626,162.62064 74.870087,162.72318 74.767548,162.80862 74.596649,162.80862 H 73.981415 Q 73.605438,162.80862 73.502899,162.43265 L 72.665497,159.04886 H 68.017059 L 67.162567,162.43265 Q 67.060028,162.80862 66.684052,162.80862 H 66.085907 Q 65.897919,162.80862 65.79538,162.72318 65.692841,162.62064 65.692841,162.46683 65.692841,162.38138 65.70993,162.33011 L 68.239227,152.19583 Q 68.427216,151.46097 68.99118,151.0679 69.572235,150.67484 70.341278,150.67484 71.110321,150.67484 71.674286,151.08499 72.255341,151.47806 72.426239,152.19583 Z M 72.34079,157.75003 71.007782,152.43509 Q 70.956512,152.21292 70.768524,152.09329 70.580536,151.97366 70.341278,151.97366 70.10202,151.97366 69.914032,152.09329 69.726044,152.21292 69.674774,152.43509 L 68.341766,157.75003 Z"
         id="path99" />
      <path
         d="M 76.339813,152.14456 Q 75.912567,152.14456 75.912567,151.71732 V 151.27298 Q 75.912567,150.84573 76.339813,150.84573 H 79.415985 Q 80.731903,150.84573 81.603485,151.29007 82.492157,151.73441 82.902313,152.43509 83.329559,153.13577 83.329559,153.90482 83.329559,154.74222 82.868134,155.4429 82.423798,156.14359 81.774384,156.48538 82.799774,156.86136 83.397919,157.68167 84.013153,158.48489 84.013153,159.45901 84.013153,160.3306 83.500458,161.09964 83.004852,161.86868 82.030731,162.3472 81.0737,162.80862 79.757782,162.80862 H 77.416473 Q 76.989227,162.80862 76.989227,162.38138 V 152.14456 Z M 79.757782,161.49271 Q 80.697723,161.49271 81.364227,161.20218 82.047821,160.89456 82.372528,160.41605 82.714325,159.92044 82.714325,159.37357 82.714325,158.82669 82.372528,158.34818 82.047821,157.85257 81.364227,157.54495 80.697723,157.23734 79.757782,157.23734 H 78.441864 V 161.49271 Z M 79.415985,155.92142 Q 80.646454,155.92142 81.347137,155.39163 82.047821,154.86185 82.047821,154.07571 82.047821,153.5972 81.757294,153.15286 81.483856,152.70853 80.885712,152.43509 80.304657,152.14456 79.415985,152.14456 H 78.441864 V 155.92142 Z"
         id="path101" />
      <path
         d="M 93.463837,161.90286 Q 93.515106,162.0054 93.515106,162.10794 93.515106,162.36429 93.241669,162.46683 92.04538,162.97952 90.88327,162.97952 89.755341,162.97952 88.76413,162.46683 87.790009,161.95413 87.157684,160.74075 86.52536,159.51028 86.52536,157.51077 V 156.14359 Q 86.52536,154.14407 87.157684,152.93069 87.790009,151.70023 88.76413,151.18753 89.755341,150.67484 90.88327,150.67484 92.04538,150.67484 93.241669,151.18753 93.515106,151.29007 93.515106,151.54642 93.515106,151.64896 93.463837,151.7515 L 93.292938,152.16165 Q 93.190399,152.43509 92.934052,152.43509 92.814423,152.43509 92.746063,152.40091 91.669403,152.00784 90.849091,152.00784 89.635712,152.00784 88.815399,152.93069 87.995087,153.85355 87.995087,156.14359 V 157.51077 Q 87.995087,159.80081 88.815399,160.72366 89.635712,161.64651 90.849091,161.64651 91.669403,161.64651 92.746063,161.25345 92.814423,161.21927 92.934052,161.21927 93.190399,161.21927 93.292938,161.49271 Z"
         id="path103" />
      <path
         d="M 97.360321,150.84573 Q 99.599091,150.84573 100.96628,151.34134 102.35056,151.83694 103.03415,153.06741 103.73483,154.29788 103.73483,156.48538 V 157.16898 Q 103.73483,159.16849 103.18796,160.39896 102.65817,161.62943 101.41061,162.22757 100.16306,162.80862 98.026825,162.80862 H 97.069794 Q 96.642548,162.80862 96.642548,162.38138 V 152.14456 H 95.993134 Q 95.565887,152.14456 95.565887,151.71732 V 151.27298 Q 95.565887,150.84573 95.993134,150.84573 Z M 98.095184,161.49271 Q 99.599091,161.49271 100.50485,161.06546 101.4277,160.62112 101.85495,159.68118 102.2822,158.74124 102.2822,157.16898 V 156.48538 Q 102.2822,154.29788 101.30807,153.23831 100.33395,152.16165 98.095184,152.16165 Z"
         id="path105" />
      <path
         d="M 113.11716,161.49271 Q 113.5444,161.49271 113.5444,161.91995 V 162.38138 Q 113.5444,162.80862 113.11716,162.80862 H 106.60593 Q 106.17868,162.80862 106.17868,162.38138 V 151.27298 Q 106.17868,150.84573 106.60593,150.84573 H 112.74118 Q 113.16843,150.84573 113.16843,151.27298 V 151.71732 Q 113.16843,152.14456 112.74118,152.14456 H 107.63132 V 155.92142 H 112.38229 Q 112.80954,155.92142 112.80954,156.34866 V 156.81009 Q 112.80954,157.23734 112.38229,157.23734 H 107.63132 V 161.49271 Z"
         id="path107" />
      <path
         d="M 122.94382,150.84573 Q 123.37106,150.84573 123.37106,151.27298 V 151.71732 Q 123.37106,152.14456 122.94382,152.14456 H 117.45798 V 156.51956 H 122.56784 Q 122.99509,156.51956 122.99509,156.94681 V 157.40823 Q 122.99509,157.81839 122.56784,157.81839 H 117.45798 V 162.38138 Q 117.45798,162.80862 117.03073,162.80862 H 116.43259 Q 116.00534,162.80862 116.00534,162.38138 V 151.27298 Q 116.00534,150.84573 116.43259,150.84573 Z"
         id="path109" />
      <path
         d="M 132.49704,155.98978 Q 132.92429,155.98978 132.92429,156.41702 V 161.93704 Q 132.92429,162.29593 132.59958,162.44974 131.36911,162.97952 130.18991,162.97952 129.06198,162.97952 128.07077,162.46683 127.09665,161.95413 126.46432,160.74075 125.832,159.51028 125.832,157.51077 V 156.14359 Q 125.832,154.14407 126.46432,152.93069 127.09665,151.70023 128.07077,151.18753 129.06198,150.67484 130.18991,150.67484 131.35202,150.67484 132.54831,151.18753 132.82175,151.29007 132.82175,151.54642 132.82175,151.64896 132.77048,151.7515 L 132.59958,152.16165 Q 132.49704,152.43509 132.24069,152.43509 132.12106,152.43509 132.0527,152.40091 130.97604,152.00784 130.15573,152.00784 128.94235,152.00784 128.12204,152.93069 127.30173,153.85355 127.30173,156.14359 V 157.51077 Q 127.30173,159.80081 128.12204,160.72366 128.94235,161.64651 130.15573,161.64651 130.73679,161.64651 131.47165,161.44144 V 157.30569 H 130.24118 Q 129.81393,157.30569 129.81393,156.87845 V 156.43411 Q 129.81393,155.98978 130.24118,155.98978 Z"
         id="path111" />
      <path
         d="M 142.44333,150.84573 Q 142.87057,150.84573 142.87057,151.27298 V 162.38138 Q 142.87057,162.80862 142.44333,162.80862 H 141.84518 Q 141.41794,162.80862 141.41794,162.38138 V 157.11771 H 136.82077 V 162.38138 Q 136.82077,162.80862 136.39352,162.80862 H 135.79538 Q 135.36813,162.80862 135.36813,162.38138 V 151.27298 Q 135.36813,150.84573 135.79538,150.84573 H 136.39352 Q 136.82077,150.84573 136.82077,151.27298 V 155.80179 H 141.41794 V 151.27298 Q 141.41794,150.84573 141.84518,150.84573 Z"
         id="path113" />
      <path
         d="M 151.80856,150.84573 Q 152.23581,150.84573 152.23581,151.27298 V 151.71732 Q 152.23581,152.14456 151.80856,152.14456 H 149.67233 V 161.49271 H 151.97946 Q 152.40671,161.49271 152.40671,161.91995 V 162.38138 Q 152.40671,162.80862 151.97946,162.80862 H 145.91257 Q 145.48532,162.80862 145.48532,162.38138 V 161.91995 Q 145.48532,161.49271 145.91257,161.49271 H 148.2197 V 152.14456 H 146.08347 Q 145.65622,152.14456 145.65622,151.71732 V 151.27298 Q 145.65622,150.84573 146.08347,150.84573 Z"
         id="path115" />
      <path
         d="M 161.80612,150.84573 Q 162.23337,150.84573 162.23337,151.27298 V 158.19437 Q 162.23337,160.68948 161.01999,161.8345 159.8237,162.97952 158.01218,162.97952 156.73044,162.97952 155.51706,162.46683 155.24362,162.36429 155.24362,162.10794 155.24362,162.0054 155.29489,161.90286 L 155.46579,161.49271 Q 155.56833,161.21927 155.82468,161.21927 155.94431,161.21927 156.01266,161.25345 157.08932,161.64651 157.90964,161.64651 159.08884,161.64651 159.92624,160.84329 160.76364,160.02298 160.76364,158.19437 V 152.17874 H 157.02097 Q 156.59372,152.17874 156.59372,151.7515 V 151.27298 Q 156.59372,150.84573 157.02097,150.84573 Z"
         id="path117" />
      <path
         d="M 171.25681,162.80862 Q 170.91501,162.80862 170.74411,162.53519 L 166.95016,157.2886 Q 166.8989,157.20316 166.77927,157.1348 166.67673,157.06644 166.59128,157.06644 V 162.38138 Q 166.59128,162.80862 166.16403,162.80862 H 165.56589 Q 165.13864,162.80862 165.13864,162.38138 V 151.27298 Q 165.13864,150.84573 165.56589,150.84573 H 166.16403 Q 166.59128,150.84573 166.59128,151.27298 V 156.22903 Q 166.67673,156.22903 166.79636,156.16068 166.91599,156.07523 166.96725,155.98978 L 170.47067,151.10208 Q 170.65866,150.84573 170.98337,150.84573 H 171.88913 Q 172.06003,150.84573 172.16257,150.91409 172.26511,150.98245 172.26511,151.08499 172.26511,151.17044 172.14548,151.35843 L 168.7446,155.92142 Q 168.35153,156.4512 167.94138,156.65628 168.30026,156.84427 168.71042,157.37405 L 172.40182,162.27884 Q 172.52145,162.44974 172.52145,162.55228 172.52145,162.67191 172.41891,162.74026 172.31638,162.80862 172.14548,162.80862 Z"
         id="path119" />
      <path
         d="M 182.55319,161.49271 Q 182.98044,161.49271 182.98044,161.91995 V 162.38138 Q 182.98044,162.80862 182.55319,162.80862 H 175.39255 Q 174.9653,162.80862 174.9653,162.38138 V 151.27298 Q 174.9653,150.84573 175.39255,150.84573 H 175.99069 Q 176.41794,150.84573 176.41794,151.27298 V 161.49271 Z"
         id="path121" />
      <path
         d="M 192.65329,162.36429 Q 192.65329,162.55228 192.51657,162.689 192.39694,162.80862 192.20895,162.80862 H 191.6279 Q 191.43991,162.80862 191.32028,162.689 191.21774,162.56937 191.20065,162.36429 L 190.89304,153.58011 188.99606,157.37405 Q 188.85934,157.68167 188.50046,157.68167 H 188.02194 Q 187.66306,157.68167 187.52634,157.37405 L 185.62936,153.58011 185.32175,162.36429 Q 185.30466,162.56937 185.18503,162.689 185.08249,162.80862 184.8945,162.80862 H 184.31345 Q 184.12546,162.80862 183.98874,162.689 183.86911,162.55228 183.86911,162.36429 L 184.21091,151.18753 Q 184.21091,150.76028 184.67233,150.76028 H 184.94577 Q 185.66354,150.76028 185.95407,151.37552 L 188.2612,155.98978 190.56833,151.37552 Q 190.85886,150.76028 191.57663,150.76028 H 191.85007 Q 192.31149,150.76028 192.31149,151.18753 Z"
         id="path123" />
      <path
         d="M 201.36911,150.84573 Q 201.5571,150.84573 201.67673,150.98245 201.81345,151.10208 201.81345,151.29007 V 162.38138 Q 201.81345,162.80862 201.35202,162.80862 H 201.07858 Q 200.7197,162.80862 200.48044,162.67191 200.24118,162.5181 200.07028,162.19339 L 195.79782,153.80228 V 162.36429 Q 195.79782,162.55228 195.67819,162.689 195.55856,162.80862 195.37057,162.80862 H 194.78952 Q 194.60153,162.80862 194.46481,162.689 194.34518,162.55228 194.34518,162.36429 V 151.27298 Q 194.34518,150.84573 194.80661,150.84573 H 195.08005 Q 195.47311,150.84573 195.69528,150.96536 195.93454,151.0679 196.08835,151.37552 L 200.36081,159.92044 V 151.29007 Q 200.36081,151.10208 200.48044,150.98245 200.60007,150.84573 200.78806,150.84573 Z"
         id="path125" />
      <path
         d="M 207.91452,150.67484 Q 209.4697,150.67484 210.40964,151.80276 211.36667,152.93069 211.36667,154.99857 V 158.65579 Q 211.36667,160.72366 210.40964,161.85159 209.4697,162.97952 207.91452,162.97952 206.35934,162.97952 205.40231,161.86868 204.44528,160.74075 204.44528,158.65579 V 154.99857 Q 204.44528,152.9136 205.40231,151.80276 206.35934,150.67484 207.91452,150.67484 Z M 205.89792,158.65579 Q 205.89792,160.04007 206.46188,160.86038 207.04294,161.68069 207.91452,161.68069 208.76901,161.68069 209.33298,160.87747 209.91403,160.05716 209.91403,158.65579 V 154.99857 Q 209.91403,153.5972 209.33298,152.79398 208.76901,151.97366 207.91452,151.97366 207.04294,151.97366 206.46188,152.79398 205.89792,153.61429 205.89792,154.99857 Z"
         id="path127" />
      <path
         d="M 217.00632,150.84573 Q 218.49313,150.84573 219.53561,151.35843 220.59518,151.87112 221.12497,152.72562 221.65475,153.58011 221.65475,154.6055 221.65475,155.64798 221.12497,156.50247 220.59518,157.35696 219.53561,157.86966 218.49313,158.36526 217.00632,158.36526 H 215.72458 V 162.38138 Q 215.72458,162.80862 215.29733,162.80862 H 214.69919 Q 214.27194,162.80862 214.27194,162.38138 V 151.27298 Q 214.27194,150.84573 214.69919,150.84573 Z M 217.00632,157.06644 Q 218.56149,157.06644 219.38181,156.36575 220.20212,155.64798 220.20212,154.6055 220.20212,153.56302 219.36472,152.86234 218.5444,152.14456 217.00632,152.14456 H 215.72458 V 157.06644 Z"
         id="path129" />
      <path
         d="M 231.97702,165.67972 Q 232.02829,165.78226 232.02829,165.8848 232.02829,166.12405 231.73776,166.22659 230.79782,166.56839 229.94333,166.56839 228.57614,166.56839 227.70456,165.69681 226.83298,164.82523 226.83298,162.91116 225.56833,162.65482 224.83347,161.56107 224.0986,160.46732 224.0986,158.65579 V 154.99857 Q 224.0986,152.9136 225.05563,151.80276 226.01266,150.67484 227.56784,150.67484 229.12302,150.67484 230.06296,151.80276 231.01999,152.93069 231.01999,154.99857 V 158.65579 Q 231.01999,160.45023 230.28513,161.56107 229.55026,162.65482 228.3027,162.91116 228.3027,164.20999 228.71286,164.72269 229.14011,165.23538 229.94333,165.23538 230.57565,165.23538 231.22507,164.99612 231.29343,164.96194 231.43015,164.96194 231.6694,164.96194 231.78903,165.23538 Z M 225.55124,158.65579 Q 225.55124,160.04007 226.1152,160.86038 226.69626,161.68069 227.56784,161.68069 228.42233,161.68069 228.9863,160.87747 229.56735,160.05716 229.56735,158.65579 V 154.99857 Q 229.56735,153.5972 228.9863,152.79398 228.42233,151.97366 227.56784,151.97366 226.69626,151.97366 226.1152,152.79398 225.55124,153.61429 225.55124,154.99857 Z"
         id="path131" />
      <path
         d="M 241.88913,162.29593 Q 241.95749,162.41556 241.95749,162.53519 241.95749,162.80862 241.58151,162.80862 H 240.86374 Q 240.52194,162.80862 240.36813,162.50101 L 237.85593,157.47659 H 235.3779 V 162.38138 Q 235.3779,162.80862 234.95065,162.80862 H 234.35251 Q 233.92526,162.80862 233.92526,162.38138 V 151.27298 Q 233.92526,150.84573 234.35251,150.84573 H 237.0527 Q 238.31735,150.84573 239.20602,151.29007 240.11179,151.71732 240.55612,152.46927 241.01755,153.22122 241.01755,154.16116 241.01755,155.1011 240.55612,155.88724 240.0947,156.67337 239.27438,157.08353 Z M 237.0527,156.16068 Q 238.26608,156.16068 238.9155,155.57962 239.56491,154.98148 239.56491,154.16116 239.56491,153.63138 239.27438,153.16995 239.00095,152.70853 238.41989,152.43509 237.85593,152.14456 237.0527,152.14456 H 235.3779 V 156.16068 Z"
         id="path133" />
      <path
         d="M 250.12643,152.12747 Q 250.0239,152.40091 249.78464,152.40091 249.66501,152.40091 249.59665,152.36673 248.53708,151.97366 247.69968,151.97366 246.6572,151.97366 245.90524,152.48636 245.17038,152.99905 245.17038,153.85355 245.17038,154.55423 245.70016,155.13528 246.24704,155.69925 247.28952,155.92142 249.15231,156.31448 250.10934,157.27151 251.08347,158.21146 251.08347,159.4761 251.08347,160.51859 250.45114,161.32181 249.83591,162.10794 248.79343,162.55228 247.75095,162.97952 246.57175,162.97952 245.93942,162.97952 245.27292,162.8428 244.60641,162.72318 244.02536,162.46683 243.75192,162.36429 243.75192,162.10794 243.75192,162.0054 243.80319,161.90286 L 243.97409,161.49271 Q 244.07663,161.21927 244.33298,161.21927 244.45261,161.21927 244.52097,161.25345 244.98239,161.44144 245.56345,161.54398 246.16159,161.62943 246.6572,161.62943 247.90475,161.62943 248.75925,161.08255 249.61374,160.51859 249.61374,159.56155 249.61374,158.8096 248.9985,158.22855 248.38327,157.6304 247.1528,157.37405 245.39255,156.99808 244.53806,156.05814 243.70065,155.11819 243.70065,153.90482 243.70065,152.87943 244.24753,152.16165 244.81149,151.42679 245.71725,151.05081 246.64011,150.67484 247.69968,150.67484 248.28073,150.67484 248.93015,150.79446 249.59665,150.91409 250.09225,151.13626 250.33151,151.25589 250.33151,151.42679 250.33151,151.52933 250.28024,151.66605 Z"
         id="path135" />
      <path
         d="M 261.59372,151.71732 Q 261.59372,152.14456 261.16647,152.14456 H 257.76559 V 162.38138 Q 257.76559,162.80862 257.33835,162.80862 H 256.7402 Q 256.31296,162.80862 256.31296,162.38138 V 152.14456 H 252.91208 Q 252.50192,152.14456 252.50192,151.71732 V 151.27298 Q 252.50192,150.84573 252.92917,150.84573 H 261.16647 Q 261.59372,150.84573 261.59372,151.27298 Z"
         id="path137" />
      <path
         d="M 268.87399,151.27298 Q 268.87399,150.84573 269.30124,150.84573 H 269.89938 Q 270.32663,150.84573 270.32663,151.27298 V 159.16849 Q 270.32663,162.97952 266.87448,162.97952 263.40524,162.97952 263.40524,159.16849 V 151.27298 Q 263.40524,150.84573 263.83249,150.84573 H 264.43063 Q 264.85788,150.84573 264.85788,151.27298 V 159.16849 Q 264.85788,160.56985 265.31931,161.13382 265.78073,161.68069 266.87448,161.68069 267.96823,161.68069 268.41257,161.13382 268.87399,160.56985 268.87399,159.16849 Z"
         id="path139" />
      <path
         d="M 278.7861,161.45853 Q 278.6152,162.1763 278.03415,162.58646 277.47018,162.97952 276.70114,162.97952 275.9321,162.97952 275.35104,162.58646 274.78708,162.19339 274.59909,161.45853 L 272.06979,151.32425 Q 272.0527,151.27298 272.0527,151.18753 272.0527,151.03372 272.15524,150.94827 272.25778,150.84573 272.44577,150.84573 H 273.04391 Q 273.45407,150.84573 273.52243,151.22171 L 276.03464,161.21927 Q 276.08591,161.44144 276.2739,161.56107 276.46188,161.68069 276.70114,161.68069 276.9404,161.68069 277.12839,161.56107 277.31638,161.44144 277.36765,161.21927 L 279.86276,151.22171 Q 279.9653,150.84573 280.34128,150.84573 H 280.95651 Q 281.33249,150.84573 281.33249,151.17044 281.33249,151.27298 281.3154,151.32425 Z"
         id="path141" />
      <path
         d="M 290.57809,162.46683 Q 290.57809,162.89407 290.11667,162.89407 H 289.84323 Q 289.12546,162.89407 288.83493,162.27884 L 286.5278,157.66458 284.22067,162.27884 Q 283.93015,162.89407 283.21237,162.89407 H 282.93893 Q 282.47751,162.89407 282.47751,162.46683 L 282.13571,151.29007 Q 282.13571,151.10208 282.25534,150.98245 282.39206,150.84573 282.58005,150.84573 H 283.1611 Q 283.34909,150.84573 283.45163,150.96536 283.57126,151.08499 283.58835,151.29007 L 283.89597,160.07425 285.79294,156.2803 Q 285.92966,155.97269 286.28854,155.97269 H 286.76706 Q 287.12595,155.97269 287.26266,156.2803 L 289.15964,160.07425 289.46725,151.29007 Q 289.48434,151.08499 289.58688,150.96536 289.70651,150.84573 289.8945,150.84573 H 290.47556 Q 290.66354,150.84573 290.78317,150.98245 290.91989,151.10208 290.91989,151.29007 Z"
         id="path143" />
      <path
         d="M 298.1489,156.14359 Q 297.96091,156.51956 297.49948,156.70755 297.70456,156.77591 297.87546,156.92972 298.06345,157.08353 298.1489,157.25443 L 300.57565,162.29593 Q 300.62692,162.41556 300.62692,162.5181 300.62692,162.80862 300.26804,162.80862 H 299.73825 Q 299.37936,162.80862 299.22556,162.50101 L 296.86716,157.76712 Q 296.61081,157.25443 296.35446,157.25443 296.08102,157.25443 295.84177,157.76712 L 293.46628,162.50101 Q 293.31247,162.80862 292.97067,162.80862 H 292.44089 Q 292.26999,162.80862 292.16745,162.74026 292.06491,162.65482 292.06491,162.5181 292.06491,162.41556 292.11618,162.29593 L 294.56003,157.25443 Q 294.64548,157.08353 294.81638,156.92972 294.98727,156.77591 295.19235,156.70755 294.71384,156.50247 294.56003,156.14359 L 292.23581,151.34134 Q 292.18454,151.20462 292.18454,151.11917 292.18454,150.84573 292.56052,150.84573 H 293.0903 Q 293.44919,150.84573 293.58591,151.15335 L 295.84177,155.64798 Q 296.08102,156.14359 296.35446,156.14359 296.6279,156.14359 296.86716,155.64798 L 299.10593,151.15335 Q 299.24265,150.84573 299.61862,150.84573 H 300.14841 Q 300.52438,150.84573 300.52438,151.11917 300.52438,151.22171 300.45602,151.34134 Z"
         id="path145" />
      <path
         d="M 310.35104,150.84573 Q 310.72702,150.84573 310.72702,151.11917 310.72702,151.22171 310.65866,151.34134 L 308.18063,156.31448 Q 307.77048,157.16898 306.8989,157.42532 V 162.38138 Q 306.8989,162.80862 306.47165,162.80862 H 305.8735 Q 305.44626,162.80862 305.44626,162.38138 V 157.42532 Q 304.57468,157.16898 304.16452,156.31448 L 301.68649,151.34134 Q 301.61813,151.22171 301.61813,151.11917 301.61813,150.84573 301.99411,150.84573 H 302.62643 Q 302.98532,150.84573 303.12204,151.15335 L 305.44626,155.80179 Q 305.7197,156.31448 306.18112,156.31448 306.65964,156.31448 306.8989,155.80179 L 309.22311,151.15335 Q 309.35983,150.84573 309.73581,150.84573 Z"
         id="path147" />
      <path
         d="M 314.43552,159.10013 Q 313.73483,159.80081 313.64938,161.49271 H 319.37448 Q 319.80173,161.49271 319.80173,161.91995 V 162.38138 Q 319.80173,162.80862 319.37448,162.80862 H 312.62399 Q 312.19675,162.80862 312.19675,162.38138 V 161.86868 Q 312.19675,160.75784 312.52145,159.83499 312.86325,158.91214 313.49557,158.27982 L 317.58005,154.19534 Q 317.90475,153.87064 318.09274,153.34085 318.29782,152.81107 318.332,152.14456 H 313.15378 Q 312.72653,152.14456 312.72653,151.71732 V 151.27298 Q 312.72653,150.84573 313.15378,150.84573 H 319.37448 Q 319.80173,150.84573 319.80173,151.27298 V 151.78568 Q 319.80173,152.72562 319.45993,153.56302 319.13522,154.40042 318.5029,155.03275 Z"
         id="path149" />
      <path
         d="M 70.392548,175.93362 Q 71.366669,175.93362 72.135712,176.42923 72.904755,176.90775 73.349091,177.91605 73.793427,178.92435 73.793427,180.41116 73.793427,181.89798 73.349091,182.90628 72.904755,183.91458 72.135712,184.41019 71.366669,184.8887 70.392548,184.8887 69.418427,184.8887 68.615204,184.3931 67.829071,183.89749 67.350555,182.88919 66.87204,181.88089 66.87204,180.41116 66.87204,178.94144 67.350555,177.93314 67.829071,176.92484 68.615204,176.42923 69.418427,175.93362 70.392548,175.93362 Z M 68.324677,180.41116 Q 68.324677,181.89798 68.871552,182.73538 69.435516,183.57278 70.341278,183.57278 71.24704,183.57278 71.793915,182.73538 72.34079,181.89798 72.34079,180.41116 72.34079,178.92435 71.793915,178.08694 71.24704,177.24954 70.341278,177.24954 69.435516,177.24954 68.871552,178.08694 68.324677,178.92435 68.324677,180.41116 Z"
         id="path151" />
      <path
         d="M 80.167938,172.54984 Q 81.723114,172.54984 82.663055,173.67776 83.620087,174.80569 83.620087,176.87357 V 180.53079 Q 83.620087,182.59866 82.663055,183.72659 81.723114,184.85452 80.167938,184.85452 78.612762,184.85452 77.655731,183.74368 76.6987,182.61575 76.6987,180.53079 V 176.87357 Q 76.6987,174.7886 77.655731,173.67776 78.612762,172.54984 80.167938,172.54984 Z M 78.151337,180.53079 Q 78.151337,181.91507 78.715302,182.73538 79.296356,183.55569 80.167938,183.55569 81.02243,183.55569 81.586395,182.75247 82.16745,181.93216 82.16745,180.53079 V 176.87357 Q 82.16745,175.4722 81.586395,174.66898 81.02243,173.84866 80.167938,173.84866 79.296356,173.84866 78.715302,174.66898 78.151337,175.48929 78.151337,176.87357 Z"
         id="path153" />
      <path
         d="M 89.994598,172.54984 Q 91.207977,172.54984 92.096649,173.30179 93.002411,174.03665 93.480927,175.43802 93.959442,176.8223 93.959442,178.70218 93.959442,180.58206 93.480927,181.98343 93.002411,183.36771 92.096649,184.11966 91.207977,184.85452 89.994598,184.85452 88.781219,184.85452 87.875458,184.11966 86.969696,183.36771 86.49118,181.98343 86.012665,180.58206 86.012665,178.70218 86.012665,176.8223 86.49118,175.43802 86.969696,174.03665 87.875458,173.30179 88.781219,172.54984 89.994598,172.54984 Z M 87.465302,178.70218 Q 87.465302,179.40286 87.550751,180.17191 L 92.062469,175.66019 Q 91.737762,174.7886 91.207977,174.32718 90.678192,173.84866 89.994598,173.84866 88.832489,173.84866 88.148895,175.16458 87.465302,176.46341 87.465302,178.70218 Z M 87.926727,181.70999 Q 88.251434,182.59866 88.781219,183.07718 89.311005,183.5386 89.994598,183.5386 91.156708,183.5386 91.823212,182.23978 92.506805,180.94095 92.506805,178.70218 92.506805,177.98441 92.421356,177.21536 Z"
         id="path155" />
      <path
         d="M 101.25681,178.54837 Q 102.436,179.19778 103.10251,179.94974 103.76901,180.6846 103.76901,181.79544 103.76901,183.26517 102.67526,184.06839 101.58151,184.85452 99.821259,184.85452 98.761688,184.85452 97.855927,184.49564 96.950165,184.11966 96.40329,183.45316 95.873505,182.76956 95.873505,181.89798 95.873505,180.06937 98.52243,178.58255 97.46286,178.03568 96.864716,177.3179 96.266571,176.58304 96.266571,175.43802 96.266571,174.58353 96.727997,173.93411 97.189423,173.26761 97.992645,172.90872 98.812958,172.54984 99.821259,172.54984 100.82956,172.54984 101.63278,172.90872 102.45309,173.25052 102.91452,173.88284 103.37595,174.49808 103.37595,175.31839 103.37595,177.147 101.25681,178.54837 Z M 97.326141,181.76126 Q 97.326141,182.59866 98.026825,183.07718 98.727509,183.5386 99.821259,183.5386 100.88083,183.5386 101.5986,183.09427 102.31638,182.63284 102.31638,181.76126 102.31638,180.90677 101.5986,180.29153 100.88083,179.65921 99.63327,179.11234 98.52243,179.74466 97.924286,180.39407 97.326141,181.0264 97.326141,181.76126 Z M 97.719208,175.45511 Q 97.719208,176.8223 100.16306,177.96732 101.00046,177.40335 101.44479,176.68558 101.90622,175.9678 101.90622,175.40384 101.90622,174.75443 101.30807,174.31009 100.70993,173.84866 99.821259,173.84866 98.915497,173.84866 98.317352,174.31009 97.719208,174.75443 97.719208,175.45511 Z"
         id="path157" />
      <path
         d="M 119.76511,171.69534 Q 120.19235,171.69534 120.19235,172.12259 V 173.25052 Q 120.19235,173.67776 119.76511,173.67776 H 118.65427 Q 118.22702,173.67776 118.22702,173.25052 V 172.12259 Q 118.22702,171.69534 118.65427,171.69534 Z M 116.00534,183.79495 Q 116.00534,183.36771 116.43259,183.36771 H 118.73972 V 177.43753 H 116.99655 Q 116.56931,177.43753 116.56931,177.01028 V 176.56595 Q 116.56931,176.1387 116.99655,176.1387 H 119.76511 Q 120.19235,176.1387 120.19235,176.56595 V 183.36771 H 122.49948 Q 122.92673,183.36771 122.92673,183.79495 V 184.25638 Q 122.92673,184.68362 122.49948,184.68362 H 116.43259 Q 116.00534,184.68362 116.00534,184.25638 Z"
         id="path159" />
      <path
         d="M 132.15524,172.72073 Q 132.58249,172.72073 132.58249,173.14798 V 173.59232 Q 132.58249,174.01956 132.15524,174.01956 H 130.01901 V 183.36771 H 132.32614 Q 132.75339,183.36771 132.75339,183.79495 V 184.25638 Q 132.75339,184.68362 132.32614,184.68362 H 126.25925 Q 125.832,184.68362 125.832,184.25638 V 183.79495 Q 125.832,183.36771 126.25925,183.36771 H 128.56638 V 174.01956 H 126.43015 Q 126.0029,174.01956 126.0029,173.59232 V 173.14798 Q 126.0029,172.72073 126.43015,172.72073 Z"
         id="path161" />
      <path
         d="M 142.64841,184.15384 Q 142.68259,184.2222 142.68259,184.34183 142.68259,184.61526 142.35788,184.68362 141.6572,184.85452 140.85397,184.85452 139.40134,184.85452 138.71774,184.20511 138.05124,183.5386 138.05124,182.12015 V 173.16507 H 136.13718 Q 135.70993,173.16507 135.70993,172.73782 V 172.29349 Q 135.70993,171.86624 136.13718,171.86624 H 139.07663 Q 139.50388,171.86624 139.50388,172.29349 V 182.12015 Q 139.50388,182.88919 139.7944,183.2139 140.10202,183.52151 140.85397,183.5386 141.46921,183.5386 141.96481,183.41898 142.01608,183.40189 142.10153,183.40189 142.39206,183.40189 142.51169,183.7095 Z"
         id="path163" />
      <path
         d="M 153.07321,183.36771 Q 153.50046,183.36771 153.50046,183.79495 V 184.25638 Q 153.50046,184.68362 153.07321,184.68362 H 145.91257 Q 145.48532,184.68362 145.48532,184.25638 V 173.14798 Q 145.48532,172.72073 145.91257,172.72073 H 146.51071 Q 146.93796,172.72073 146.93796,173.14798 V 183.36771 Z"
         id="path165" />
      <path
         d="M 161.80612,183.36771 Q 162.23337,183.36771 162.23337,183.79495 V 184.25638 Q 162.23337,184.68362 161.80612,184.68362 H 155.73923 Q 155.31198,184.68362 155.31198,184.25638 V 183.79495 Q 155.31198,183.36771 155.73923,183.36771 H 158.59323 V 175.79691 H 155.73923 Q 155.31198,175.79691 155.31198,175.36966 V 174.90823 Q 155.31198,174.48099 155.73923,174.48099 157.02097,174.48099 157.73874,174.17337 158.45651,173.84866 158.79831,173.06253 158.95212,172.72073 159.29391,172.72073 H 159.61862 Q 160.04587,172.72073 160.04587,173.14798 V 183.36771 Z"
         id="path167" />
      <path
         d="M 179.15231,177.69388 Q 179.15231,178.48001 178.93015,178.97562 178.70798,179.47122 178.02438,179.79593 178.70798,180.10355 178.93015,180.61624 179.15231,181.11185 179.15231,181.88089 V 184.90579 Q 179.15231,185.7261 179.45993,186.0679 179.76755,186.42679 180.5195,186.42679 H 181.90378 Q 182.33102,186.42679 182.33102,186.85403 V 187.29837 Q 182.33102,187.72562 181.90378,187.72562 H 180.5195 Q 179.01559,187.72562 178.34909,187.0762 177.69968,186.42679 177.69968,184.90579 V 181.88089 Q 177.69968,181.11185 177.39206,180.78714 177.08444,180.44534 176.33249,180.44534 H 174.9653 Q 174.53806,180.44534 174.53806,180.0181 V 179.57376 Q 174.53806,179.14651 174.9653,179.14651 H 176.33249 Q 177.08444,179.14651 177.39206,178.80472 177.69968,178.46292 177.69968,177.69388 V 174.68607 Q 177.69968,173.16507 178.34909,172.51566 179.01559,171.86624 180.5195,171.86624 H 181.90378 Q 182.33102,171.86624 182.33102,172.29349 V 172.73782 Q 182.33102,173.16507 181.90378,173.16507 H 180.5195 Q 179.76755,173.16507 179.45993,173.52396 179.15231,173.88284 179.15231,174.68607 Z"
         id="path169" />
      <path
         d="M 187.52634,174.68607 Q 187.52634,173.88284 187.21872,173.52396 186.9111,173.16507 186.15915,173.16507 H 184.77487 Q 184.34763,173.16507 184.34763,172.73782 V 172.29349 Q 184.34763,171.86624 184.77487,171.86624 H 186.15915 Q 187.66306,171.86624 188.31247,172.51566 188.97897,173.16507 188.97897,174.68607 V 177.69388 Q 188.97897,178.46292 189.28659,178.80472 189.59421,179.14651 190.34616,179.14651 H 191.71335 Q 192.14059,179.14651 192.14059,179.57376 V 180.0181 Q 192.14059,180.44534 191.71335,180.44534 H 190.34616 Q 189.59421,180.44534 189.28659,180.78714 188.97897,181.11185 188.97897,181.88089 V 184.90579 Q 188.97897,186.42679 188.32956,187.0762 187.68015,187.72562 186.15915,187.72562 H 184.77487 Q 184.34763,187.72562 184.34763,187.29837 V 186.85403 Q 184.34763,186.42679 184.77487,186.42679 H 186.15915 Q 186.9111,186.42679 187.21872,186.0679 187.52634,185.7261 187.52634,184.90579 V 181.88089 Q 187.52634,181.11185 187.7485,180.61624 187.97067,180.10355 188.65427,179.79593 187.97067,179.47122 187.7485,178.97562 187.52634,178.48001 187.52634,177.69388 Z"
         id="path171" />
      <path
         d="M 211.02487,186.42679 Q 211.45212,186.42679 211.45212,186.85403 V 187.29837 Q 211.45212,187.72562 211.02487,187.72562 H 205.98337 Q 205.55612,187.72562 205.55612,187.29837 V 172.29349 Q 205.55612,171.86624 205.98337,171.86624 H 211.02487 Q 211.45212,171.86624 211.45212,172.29349 V 172.73782 Q 211.45212,173.16507 211.02487,173.16507 H 207.00876 V 186.42679 Z"
         id="path173" />
      <path
         d="M 219.65524,171.86624 Q 220.08249,171.86624 220.08249,172.29349 V 187.29837 Q 220.08249,187.72562 219.65524,187.72562 H 214.61374 Q 214.18649,187.72562 214.18649,187.29837 V 186.85403 Q 214.18649,186.42679 214.61374,186.42679 H 218.62985 V 173.16507 H 214.61374 Q 214.18649,173.16507 214.18649,172.73782 V 172.29349 Q 214.18649,171.86624 214.61374,171.86624 Z"
         id="path175" />
      <path
         d="M 237.94138,183.64114 Q 240.04343,183.64114 241.17136,184.32474 242.29929,184.99124 242.29929,186.17044 242.2822,187.418 241.13718,188.16995 239.99216,188.92191 237.94138,188.92191 235.7197,188.92191 234.52341,188.32376 233.34421,187.72562 233.34421,186.61478 233.34421,185.98245 233.72018,185.4014 234.09616,184.82034 234.7114,184.49564 234.31833,184.27347 234.13034,183.94876 233.95944,183.62405 233.95944,183.16263 233.95944,182.63284 234.30124,182.15433 234.66013,181.65872 235.18991,181.41946 234.59177,181.00931 234.26706,180.37698 233.95944,179.74466 233.95944,178.99271 233.95944,178.13821 234.38669,177.45462 234.83102,176.75394 235.61716,176.36087 236.40329,175.9678 237.3945,175.9678 237.97556,175.9678 238.60788,176.1387 H 241.18845 Q 241.61569,176.1387 241.61569,176.56595 V 176.83939 Q 241.61569,177.26663 241.18845,177.26663 H 240.26559 Q 240.82956,178.05276 240.82956,179.02689 240.82956,179.89847 240.38522,180.59915 239.95798,181.28275 239.17184,181.6929 238.4028,182.08597 237.3945,182.08597 236.74509,182.08597 236.12985,181.89798 235.78806,182.05179 235.60007,182.30814 235.41208,182.56448 235.41208,182.83792 235.41208,183.28226 235.97604,183.47025 236.5571,183.64114 237.94138,183.64114 Z M 234.69431,186.18753 Q 234.7114,186.87112 235.49753,187.23001 236.30075,187.60599 237.77048,187.60599 239.22311,187.60599 240.02634,187.19583 240.84665,186.78568 240.84665,186.17044 240.82956,185.60648 240.04343,185.28177 239.27438,184.95706 237.77048,184.95706 236.52292,184.95706 235.80515,184.83743 235.27536,185.04251 234.98483,185.4014 234.69431,185.76028 234.69431,186.18753 Z M 235.41208,179.02689 Q 235.41208,179.77884 235.97604,180.27444 236.5571,180.77005 237.3945,180.77005 238.2319,180.77005 238.79587,180.27444 239.37692,179.77884 239.37692,179.02689 239.37692,178.27493 238.81296,177.77933 238.24899,177.26663 237.3945,177.26663 236.54001,177.26663 235.97604,177.77933 235.41208,178.27493 235.41208,179.02689 Z"
         id="path177" />
      <path
         d="M 244.7944,183.65823 Q 244.89694,183.26517 245.3071,183.33353 245.95651,183.45316 246.45212,183.45316 247.6655,183.45316 248.55417,182.56448 249.45993,181.67581 249.66501,179.52249 248.19528,179.98392 247.25534,179.98392 246.24704,179.98392 245.42673,179.55667 244.60641,179.11234 244.1279,178.30911 243.64938,177.4888 243.64938,176.41214 243.64938,175.21585 244.09372,174.32718 244.55515,173.43851 245.37546,172.95999 246.19577,172.48148 247.28952,172.48148 249.1694,172.48148 250.19479,173.91702 251.22018,175.33548 251.22018,178.22366 251.22018,180.29153 250.63913,181.77835 250.05807,183.24808 248.9985,184.01712 247.93893,184.78616 246.4863,184.78616 245.88815,184.78616 245.03366,184.64944 244.82858,184.61526 244.74313,184.47855 244.65768,184.34183 244.69186,184.13675 Z M 245.11911,176.41214 Q 245.11911,177.43753 245.71725,178.05276 246.3154,178.65091 247.3237,178.65091 248.62253,178.65091 249.75046,178.06985 249.75046,175.86526 249.03268,174.83987 248.332,173.81448 247.23825,173.81448 246.3154,173.81448 245.71725,174.49808 245.11911,175.16458 245.11911,176.41214 Z"
         id="path179" />
      <path
         d="M 260.49997,188.52884 Q 260.49997,188.95609 260.07272,188.95609 H 259.47458 Q 259.04733,188.95609 259.04733,188.52884 V 184.7178 Q 258.36374,184.85452 257.73141,184.85452 255.93698,184.85452 254.75778,183.77786 253.57858,182.68411 253.57858,180.41116 253.57858,178.13821 254.75778,177.06155 255.93698,175.9678 257.73141,175.9678 259.04733,175.9678 260.2778,176.46341 260.49997,176.56595 260.49997,176.8223 Z M 255.04831,180.41116 Q 255.04831,182.13724 255.83444,182.8721 256.62057,183.58987 257.90231,183.58987 258.39792,183.58987 259.04733,183.47025 V 177.45462 Q 258.38083,177.30081 257.73141,177.30081 256.50095,177.30081 255.76608,178.03568 255.04831,178.77054 255.04831,180.41116 Z"
         id="path181" />
      <path
         d="M 270.34372,183.77786 Q 270.39499,183.8804 270.39499,183.98294 270.39499,184.23929 270.12155,184.34183 268.92526,184.85452 267.76315,184.85452 266.63522,184.85452 265.64401,184.34183 264.66989,183.82913 264.03757,182.61575 263.40524,181.38528 263.40524,179.38577 V 178.01859 Q 263.40524,176.01907 264.03757,174.80569 264.66989,173.57523 265.64401,173.06253 266.63522,172.54984 267.76315,172.54984 268.92526,172.54984 270.12155,173.06253 270.39499,173.16507 270.39499,173.42142 270.39499,173.52396 270.34372,173.6265 L 270.17282,174.03665 Q 270.07028,174.31009 269.81393,174.31009 269.69431,174.31009 269.62595,174.27591 268.54929,173.88284 267.72897,173.88284 266.51559,173.88284 265.69528,174.80569 264.87497,175.72855 264.87497,178.01859 V 179.38577 Q 264.87497,181.67581 265.69528,182.59866 266.51559,183.52151 267.72897,183.52151 268.54929,183.52151 269.62595,183.12845 269.69431,183.09427 269.81393,183.09427 270.07028,183.09427 270.17282,183.36771 Z"
         id="path183" />
      <path
         d="M 279.89694,177.86478 Q 280.32419,177.86478 280.32419,178.29202 V 183.81204 Q 280.32419,184.17093 279.99948,184.32474 278.76901,184.85452 277.58981,184.85452 276.46188,184.85452 275.47067,184.34183 274.49655,183.82913 273.86423,182.61575 273.2319,181.38528 273.2319,179.38577 V 178.01859 Q 273.2319,176.01907 273.86423,174.80569 274.49655,173.57523 275.47067,173.06253 276.46188,172.54984 277.58981,172.54984 278.75192,172.54984 279.94821,173.06253 280.22165,173.16507 280.22165,173.42142 280.22165,173.52396 280.17038,173.6265 L 279.99948,174.03665 Q 279.89694,174.31009 279.64059,174.31009 279.52097,174.31009 279.45261,174.27591 278.37595,173.88284 277.55563,173.88284 276.34225,173.88284 275.52194,174.80569 274.70163,175.72855 274.70163,178.01859 V 179.38577 Q 274.70163,181.67581 275.52194,182.59866 276.34225,183.52151 277.55563,183.52151 278.13669,183.52151 278.87155,183.31644 V 179.18069 H 277.64108 Q 277.21384,179.18069 277.21384,178.75345 V 178.30911 Q 277.21384,177.86478 277.64108,177.86478 Z"
         id="path185" />
      <path
         d="M 290.93698,187.55472 Q 290.98825,187.65726 290.98825,187.7598 290.98825,187.99905 290.69772,188.10159 289.75778,188.44339 288.90329,188.44339 287.5361,188.44339 286.66452,187.57181 285.79294,186.70023 285.79294,184.78616 284.52829,184.52982 283.79343,183.43607 283.05856,182.34232 283.05856,180.53079 V 176.87357 Q 283.05856,174.7886 284.01559,173.67776 284.97263,172.54984 286.5278,172.54984 288.08298,172.54984 289.02292,173.67776 289.97995,174.80569 289.97995,176.87357 V 180.53079 Q 289.97995,182.32523 289.24509,183.43607 288.51022,184.52982 287.26266,184.78616 287.26266,186.08499 287.67282,186.59769 288.10007,187.11038 288.90329,187.11038 289.53561,187.11038 290.18503,186.87112 290.25339,186.83694 290.39011,186.83694 290.62936,186.83694 290.74899,187.11038 Z M 284.5112,180.53079 Q 284.5112,181.91507 285.07516,182.73538 285.65622,183.55569 286.5278,183.55569 287.38229,183.55569 287.94626,182.75247 288.52731,181.93216 288.52731,180.53079 V 176.87357 Q 288.52731,175.4722 287.94626,174.66898 287.38229,173.84866 286.5278,173.84866 285.65622,173.84866 285.07516,174.66898 284.5112,175.48929 284.5112,176.87357 Z"
         id="path187" />
      <path
         d="M 310.06052,179.41995 Q 310.45358,179.41995 310.45358,179.86429 310.45358,181.04349 309.88962,181.67581 309.34274,182.29105 308.30026,182.29105 307.7363,182.29105 307.06979,181.93216 306.40329,181.55618 305.7197,180.87259 304.67722,179.83011 304.06198,179.83011 303.66891,179.83011 303.44675,180.13773 303.24167,180.42825 303.24167,181.00931 303.24167,181.38528 302.78024,181.38528 H 302.30173 Q 301.89157,181.38528 301.89157,180.94095 301.89157,179.77884 302.45554,179.14651 303.0195,178.51419 304.06198,178.51419 304.60886,178.51419 305.27536,178.89017 305.95895,179.26614 306.64255,179.94974 307.68503,180.99222 308.30026,180.99222 308.69333,180.99222 308.89841,180.6846 309.10349,180.37698 309.10349,179.79593 309.10349,179.62503 309.22311,179.52249 309.34274,179.41995 309.56491,179.41995 Z"
         id="path189" />
      <path
         d="M 311.97458,180.189 Q 311.97458,179.74466 312.40182,179.74466 H 319.63083 Q 320.05807,179.74466 320.05807,180.17191 V 180.63333 Q 320.05807,181.06058 319.63083,181.06058 H 312.40182 Q 311.97458,181.06058 311.97458,180.63333 Z"
         id="path191" />
      <path
         d="M 329.86765,180.63333 Q 329.86765,181.06058 329.4404,181.06058 H 326.55222 V 184.25638 Q 326.55222,184.68362 326.12497,184.68362 H 325.52682 Q 325.09958,184.68362 325.09958,184.25638 V 181.06058 H 322.2114 Q 321.78415,181.06058 321.78415,180.63333 V 180.189 Q 321.78415,179.74466 322.2114,179.74466 H 325.09958 V 176.56595 Q 325.09958,176.1387 325.52682,176.1387 H 326.12497 Q 326.55222,176.1387 326.55222,176.56595 V 179.74466 H 329.4404 Q 329.86765,179.74466 329.86765,180.17191 Z"
         id="path193" />
      <path
         d="M 331.61081,178.22366 Q 331.61081,177.77933 332.03806,177.77933 H 339.26706 Q 339.69431,177.77933 339.69431,178.20657 V 178.668 Q 339.69431,179.09525 339.26706,179.09525 H 332.03806 Q 331.61081,179.09525 331.61081,178.668 Z M 331.61081,182.15433 Q 331.61081,181.70999 332.03806,181.70999 H 339.26706 Q 339.69431,181.70999 339.69431,182.13724 V 182.59866 Q 339.69431,183.02591 339.26706,183.02591 H 332.03806 Q 331.61081,183.02591 331.61081,182.59866 Z"
         id="path195" />
      <path
         d="M 348.42722,179.24905 Q 348.75192,179.48831 348.93991,179.79593 349.1279,180.10355 349.1279,180.41116 349.1279,180.71878 348.93991,181.0264 348.75192,181.33401 348.42722,181.57327 L 342.89011,185.74319 Q 342.77048,185.84573 342.59958,185.84573 342.3945,185.84573 342.27487,185.67484 L 341.95016,185.28177 Q 341.83054,185.11087 341.83054,184.99124 341.83054,184.83743 342.01852,184.68362 L 347.69235,180.41116 342.01852,176.1387 Q 341.83054,175.98489 341.83054,175.83109 341.83054,175.71146 341.95016,175.54056 L 342.27487,175.14749 Q 342.3945,174.97659 342.58249,174.97659 342.75339,174.97659 342.87302,175.07913 Z"
         id="path197" />
    </g>
  </g>
</svg>
