<?xml version="1.0" encoding="UTF-8" standalone="no"?>
<svg
   xmlns:dc="http://purl.org/dc/elements/1.1/"
   xmlns:cc="http://creativecommons.org/ns#"
   xmlns:rdf="http://www.w3.org/1999/02/22-rdf-syntax-ns#"
   xmlns:svg="http://www.w3.org/2000/svg"
   xmlns="http://www.w3.org/2000/svg"
   xmlns:sodipodi="http://sodipodi.sourceforge.net/DTD/sodipodi-0.dtd"
   xmlns:inkscape="http://www.inkscape.org/namespaces/inkscape"
   width="80.691994mm"
   height="30.6021mm"
   viewBox="0 0 285.91633 108.43262"
   id="svg2"
   version="1.1"
   inkscape:version="0.91 r13725"
   sodipodi:docname="Mononoki Nerd Font.svg">
  <metadata
     id="metadata22">
    <rdf:RDF>
      <cc:Work
         rdf:about="">
        <dc:format>image/svg+xml</dc:format>
        <dc:type
           rdf:resource="http://purl.org/dc/dcmitype/StillImage" />
      </cc:Work>
    </rdf:RDF>
  </metadata>
  <defs
     id="defs20" />
  <sodipodi:namedview
     pagecolor="#ffffff"
     bordercolor="#666666"
     borderopacity="1"
     objecttolerance="10"
     gridtolerance="10"
     guidetolerance="10"
     inkscape:pageopacity="0"
     inkscape:pageshadow="2"
     inkscape:window-width="640"
     inkscape:window-height="480"
     id="namedview18"
     showgrid="false"
     inkscape:zoom="0.22425739"
     inkscape:cx="308.35754"
     inkscape:cy="-337.22461"
     inkscape:window-x="69"
     inkscape:window-y="34"
     inkscape:window-maximized="0"
     inkscape:current-layer="svg2" />
  <g
     font-weight="400"
     font-size="27.5"
     letter-spacing="0"
     word-spacing="0"
     id="g4"
     style="font-weight:400;font-size:27.5px;font-family:'Mononoki Nerd Font';letter-spacing:0;word-spacing:0;fill:#ffffff"
     transform="translate(-63.689701,-80.523842)">
    <g
       style="line-height:125%;text-decoration: underline;text-decoration-line: underline"
       id="text6">
      <path
         d="m 77.493229,100.23576 q 0,0.29541 -0.214844,0.51025 -0.187988,0.18799 -0.483398,0.18799 l -0.913086,0 q -0.29541,0 -0.483399,-0.18799 -0.161132,-0.18799 -0.187988,-0.51025 l -0.483398,-13.803715 -2.980957,5.961914 q -0.214844,0.483398 -0.778809,0.483398 l -0.751953,0 q -0.563965,0 -0.778809,-0.483398 l -2.980957,-5.961914 -0.483398,13.803715 q -0.02686,0.32226 -0.214844,0.51025 -0.161133,0.18799 -0.456543,0.18799 l -0.913086,0 q -0.29541,0 -0.510254,-0.18799 -0.187988,-0.21484 -0.187988,-0.51025 l 0.537109,-17.563481 q 0,-0.671386 0.725098,-0.671386 l 0.429688,0 q 1.127929,0 1.584472,0.966797 l 3.625488,7.250976 3.625489,-7.250976 q 0.456543,-0.966797 1.584472,-0.966797 l 0.429688,0 q 0.725098,0 0.725098,0.671386 l 0.537109,17.563481 z"
         id="path4151"
         inkscape:connector-curvature="0" />
      <path
         d="m 86.14069,87.183998 q 1.530762,0 2.739258,0.778809 1.208496,0.751953 1.906738,2.336425 0.698242,1.584473 0.698242,3.920899 0,2.336426 -0.698242,3.920898 -0.698242,1.584473 -1.906738,2.363281 -1.208496,0.75195 -2.739258,0.75195 -1.530762,0 -2.792969,-0.7788 -1.235351,-0.778813 -1.987305,-2.363286 -0.751953,-1.584473 -0.751953,-3.894043 0,-2.30957 0.751953,-3.894043 0.751954,-1.584473 1.987305,-2.363281 1.262207,-0.778809 2.792969,-0.778809 z m -0.08057,12.004395 q 1.42334,0 2.282715,-1.315918 0.859375,-1.315918 0.859375,-3.652344 0,-2.336426 -0.859375,-3.652344 -0.859375,-1.315918 -2.282715,-1.315918 -1.423339,0 -2.30957,1.315918 -0.859375,1.315918 -0.859375,3.652344 0,2.336426 0.859375,3.652344 0.886231,1.315918 2.30957,1.315918 z"
         id="path4153"
         inkscape:connector-curvature="0" />
      <path
         d="m 96.077213,88.285072 q 0,-0.59082 0.617676,-0.725097 2.148438,-0.322266 4.565431,-0.322266 3.00781,0 4.35058,1.262207 1.34278,1.235352 1.34278,4.162598 l 0,7.600096 q 0,0.67139 -0.67139,0.67139 l -0.93994,0 q -0.67139,0 -0.67139,-0.67139 l 0,-7.600096 q 0,-1.879883 -0.77881,-2.631836 -0.7788,-0.751953 -2.63183,-0.751953 -1.289064,0 -2.900392,0.107422 l 0,10.876463 q 0,0.67139 -0.671387,0.67139 l -0.939941,0 q -0.671387,0 -0.671387,-0.67139 l 0,-11.977538 z"
         id="path4155"
         inkscape:connector-curvature="0" />
      <path
         d="m 117.07819,87.183998 q 1.53076,0 2.73926,0.778809 1.20849,0.751953 1.90674,2.336425 0.69824,1.584473 0.69824,3.920899 0,2.336426 -0.69824,3.920898 -0.69825,1.584473 -1.90674,2.363281 -1.2085,0.75195 -2.73926,0.75195 -1.53076,0 -2.79297,-0.7788 -1.23535,-0.778813 -1.9873,-2.363286 -0.75196,-1.584473 -0.75196,-3.894043 0,-2.30957 0.75196,-3.894043 0.75195,-1.584473 1.9873,-2.363281 1.26221,-0.778809 2.79297,-0.778809 z m -0.0806,12.004395 q 1.42334,0 2.28272,-1.315918 0.85937,-1.315918 0.85937,-3.652344 0,-2.336426 -0.85937,-3.652344 -0.85938,-1.315918 -2.28272,-1.315918 -1.42334,0 -2.30957,1.315918 -0.85937,1.315918 -0.85937,3.652344 0,2.336426 0.85937,3.652344 0.88623,1.315918 2.30957,1.315918 z"
         id="path4157"
         inkscape:connector-curvature="0" />
      <path
         d="m 127.01471,88.285072 q 0,-0.59082 0.61768,-0.725097 2.14844,-0.322266 4.56543,-0.322266 3.00781,0 4.35058,1.262207 1.34278,1.235352 1.34278,4.162598 l 0,7.600096 q 0,0.67139 -0.67139,0.67139 l -0.93994,0 q -0.67139,0 -0.67139,-0.67139 l 0,-7.600096 q 0,-1.879883 -0.77881,-2.631836 -0.7788,-0.751953 -2.63183,-0.751953 -1.28906,0 -2.90039,0.107422 l 0,10.876463 q 0,0.67139 -0.67139,0.67139 l -0.93994,0 q -0.67139,0 -0.67139,-0.67139 l 0,-11.977538 z"
         id="path4159"
         inkscape:connector-curvature="0" />
      <path
         d="m 148.01569,87.183998 q 1.53076,0 2.73926,0.778809 1.20849,0.751953 1.90674,2.336425 0.69824,1.584473 0.69824,3.920899 0,2.336426 -0.69824,3.920898 -0.69825,1.584473 -1.90674,2.363281 -1.2085,0.75195 -2.73926,0.75195 -1.53076,0 -2.79297,-0.7788 -1.23535,-0.778813 -1.9873,-2.363286 -0.75196,-1.584473 -0.75196,-3.894043 0,-2.30957 0.75196,-3.894043 0.75195,-1.584473 1.9873,-2.363281 1.26221,-0.778809 2.79297,-0.778809 z m -0.0806,12.004395 q 1.42334,0 2.28272,-1.315918 0.85937,-1.315918 0.85937,-3.652344 0,-2.336426 -0.85937,-3.652344 -0.85938,-1.315918 -2.28272,-1.315918 -1.42334,0 -2.30957,1.315918 -0.85937,1.315918 -0.85937,3.652344 0,2.336426 0.85937,3.652344 0.88623,1.315918 2.30957,1.315918 z"
         id="path4161"
         inkscape:connector-curvature="0" />
      <path
         d="m 169.15094,100.10148 q 0.2417,0.2417 0.2417,0.45654 0,0.16113 -0.16113,0.26856 -0.16113,0.10742 -0.42969,0.10742 l -1.55761,0 q -0.4834,0 -0.83252,-0.34912 l -5.3711,-5.397952 q -0.59082,-0.590821 -0.80566,-0.590821 l 0,5.666503 q 0,0.67139 -0.67139,0.67139 l -0.93994,0 q -0.67139,0 -0.67139,-0.67139 l 0,-18.798827 q 0,-0.671386 0.67139,-0.671386 l 0.93994,0 q 0.67139,0 0.67139,0.671386 l 0,11.816407 q 0.21484,0 0.80566,-0.590821 l 4.83399,-4.833984 q 0.34912,-0.349121 0.83252,-0.349121 l 1.55761,0 q 0.26856,0 0.42969,0.107422 0.16113,0.107421 0.16113,0.268554 0,0.214844 -0.2417,0.456543 l -4.88769,4.887696 q -0.2417,0.241699 -0.51025,0.402832 -0.2417,0.161132 -0.75196,0.322265 0.51026,0.161133 0.75196,0.322266 0.26855,0.161133 0.51025,0.402832 l 5.4248,5.424806 z"
         id="path4163"
         inkscape:connector-curvature="0" />
      <path
         d="m 179.32917,80.523842 q 0.67138,0 0.67138,0.671387 l 0,1.772461 q 0,0.671386 -0.67138,0.671386 l -1.74561,0 q -0.67139,0 -0.67139,-0.671386 l 0,-1.772461 q 0,-0.671387 0.67139,-0.671387 l 1.74561,0 z m 4.29687,18.342285 q 0.67139,0 0.67139,0.671387 l 0,0.725096 q 0,0.67139 -0.67139,0.67139 l -9.53369,0 q -0.67139,0 -0.67139,-0.67139 l 0,-0.725096 q 0,-0.671387 0.67139,-0.671387 l 3.62549,0 0,-9.318848 -2.73926,0 q -0.67139,0 -0.67139,-0.671386 l 0,-0.698243 q 0,-0.671386 0.67139,-0.671386 l 4.35059,0 q 0.67138,0 0.67138,0.671386 l 0,10.688477 3.62549,0 z"
         id="path4165"
         inkscape:connector-curvature="0" />
      <path
         d="m 214.96637,82.13517 q 0.29541,0 0.4834,0.214844 0.21485,0.187988 0.21485,0.483398 l 0,17.429198 q 0,0.67139 -0.7251,0.67139 l -0.42969,0 q -0.56396,0 -0.93994,-0.21485 -0.37598,-0.24169 -0.64453,-0.751949 l -6.71387,-13.186035 0,13.454594 q 0,0.29541 -0.18799,0.51025 -0.18799,0.18799 -0.4834,0.18799 l -0.91308,0 q -0.29541,0 -0.51026,-0.18799 -0.18798,-0.21484 -0.18798,-0.51025 l 0,-17.429203 q 0,-0.671387 0.72509,-0.671387 l 0.42969,0 q 0.61768,0 0.9668,0.187988 0.37597,0.161133 0.61767,0.644532 l 6.71387,13.427734 0,-13.562012 q 0,-0.29541 0.18799,-0.483398 0.18799,-0.214844 0.4834,-0.214844 l 0.91308,0 z"
         id="path4167"
         inkscape:connector-curvature="0" />
      <path
         d="m 230.73053,99.510658 q 0.0806,0.161133 0.0806,0.322266 0,0.402836 -0.42969,0.563966 -1.87988,0.80566 -4.02832,0.80566 -2.81982,0 -4.67285,-1.691892 -1.85303,-1.71875 -1.85303,-5.290527 0,-2.175293 0.75196,-3.759766 0.75195,-1.584472 2.01416,-2.390136 1.2622,-0.83252 2.79297,-0.83252 1.39648,0 2.60498,0.725098 1.23535,0.698242 1.96045,2.067871 0.75195,1.369629 0.75195,3.249512 l 0,0.617675 q 0,0.671387 -0.67139,0.671387 l -7.89551,0 q 0.0806,2.363281 1.28907,3.464355 1.23535,1.074219 3.03466,1.074219 1.39649,0 3.14209,-0.617676 0.10743,-0.05371 0.29541,-0.05371 0.40284,0 0.56397,0.429687 l 0.26855,0.644531 z m -5.31738,-10.231933 q -1.12793,0 -2.04101,0.859375 -0.91309,0.859375 -1.04737,2.363281 l 6.09619,0 q 0,-1.020508 -0.45654,-1.745606 -0.45654,-0.725097 -1.15478,-1.101074 -0.67139,-0.375976 -1.39649,-0.375976 z"
         id="path4169"
         inkscape:connector-curvature="0" />
      <path
         d="m 235.29596,88.285072 q 0,-0.59082 0.61768,-0.725097 2.14844,-0.322266 4.56543,-0.322266 2.12158,0 3.33008,0.429688 1.23535,0.429687 1.79931,1.369628 0.56397,0.939942 0.56397,2.55127 0,0.671387 -0.67139,0.671387 l -0.93994,0 q -0.67139,0 -0.67139,-0.671387 0,-1.262207 -0.77881,-1.772461 -0.7788,-0.537109 -2.63183,-0.537109 -1.28906,0 -2.90039,0.107422 l 0,10.876463 q 0,0.67139 -0.67139,0.67139 l -0.93994,0 q -0.67139,0 -0.67139,-0.67139 l 0,-11.977538 z"
         id="path4171"
         inkscape:connector-curvature="0" />
      <path
         d="m 261.64118,99.859779 q 0,0.375981 -0.34912,0.563961 -1.9336,0.77881 -4.00147,0.77881 -2.81982,0 -4.67285,-1.691892 -1.85303,-1.71875 -1.85303,-5.290527 0,-3.571777 1.85303,-5.263672 1.85303,-1.71875 4.67285,-1.71875 0.99365,0 2.06787,0.214844 l 0,-5.98877 q 0,-0.671386 0.67139,-0.671386 l 0.93994,0 q 0.67139,0 0.67139,0.671386 l 0,18.395996 z m -2.28272,-10.446777 q -1.04736,-0.187988 -1.79931,-0.187988 -2.01416,0 -3.24951,1.154785 -1.23536,1.12793 -1.23536,3.840332 0,2.578125 1.12793,3.73291 1.15479,1.154785 3.08838,1.154785 1.02051,0 2.06787,-0.241699 l 0,-9.453125 z"
         id="path4173"
         inkscape:connector-curvature="0" />
      <path
         d="m 292.60553,82.13517 q 0.67139,0 0.67139,0.671387 l 0,0.698242 q 0,0.671387 -0.67139,0.671387 l -8.6206,0 0,6.875 8.02978,0 q 0.67139,0 0.67139,0.671386 l 0,0.725098 q 0,0.644531 -0.67139,0.644531 l -8.02978,0 0,7.170409 q 0,0.67139 -0.67139,0.67139 l -0.93994,0 q -0.67139,0 -0.67139,-0.67139 l 0,-17.456053 q 0,-0.671387 0.67139,-0.671387 l 10.23193,0 z"
         id="path4175"
         inkscape:connector-curvature="0" />
      <path
         d="m 302.70319,87.183998 q 1.53076,0 2.73926,0.778809 1.20849,0.751953 1.90674,2.336425 0.69824,1.584473 0.69824,3.920899 0,2.336426 -0.69824,3.920898 -0.69825,1.584473 -1.90674,2.363281 -1.2085,0.75195 -2.73926,0.75195 -1.53076,0 -2.79297,-0.7788 -1.23535,-0.778813 -1.9873,-2.363286 -0.75196,-1.584473 -0.75196,-3.894043 0,-2.30957 0.75196,-3.894043 0.75195,-1.584473 1.9873,-2.363281 1.26221,-0.778809 2.79297,-0.778809 z m -0.0806,12.004395 q 1.42334,0 2.28272,-1.315918 0.85937,-1.315918 0.85937,-3.652344 0,-2.336426 -0.85937,-3.652344 -0.85938,-1.315918 -2.28272,-1.315918 -1.42334,0 -2.30957,1.315918 -0.85937,1.315918 -0.85937,3.652344 0,2.336426 0.85937,3.652344 0.88623,1.315918 2.30957,1.315918 z"
         id="path4177"
         inkscape:connector-curvature="0" />
      <path
         d="m 312.63971,88.285072 q 0,-0.59082 0.61768,-0.725097 2.14844,-0.322266 4.56543,-0.322266 3.00781,0 4.35058,1.262207 1.34278,1.235352 1.34278,4.162598 l 0,7.600096 q 0,0.67139 -0.67139,0.67139 l -0.93994,0 q -0.67139,0 -0.67139,-0.67139 l 0,-7.600096 q 0,-1.879883 -0.77881,-2.631836 -0.7788,-0.751953 -2.63183,-0.751953 -1.28906,0 -2.90039,0.107422 l 0,10.876463 q 0,0.67139 -0.67139,0.67139 l -0.93994,0 q -0.67139,0 -0.67139,-0.67139 l 0,-11.977538 z"
         id="path4179"
         inkscape:connector-curvature="0" />
      <path
         d="m 338.90436,99.806068 q 0.0806,0.161133 0.0806,0.322262 0,0.37598 -0.45654,0.53711 -1.47706,0.53711 -2.81983,0.53711 -2.14844,0 -3.51807,-1.369626 -1.36962,-1.369629 -1.36962,-4.377442 l 0,-5.908203 -2.04102,0 q -0.67139,0 -0.67139,-0.671386 l 0,-0.698243 q 0,-0.671386 0.67139,-0.671386 l 2.04102,0 0,-3.625489 q 0,-0.671386 0.67138,-0.671386 l 0.93994,0 q 0.67139,0 0.67139,0.671386 l 0,3.625489 4.4043,0 q 0.67138,0 0.67138,0.671386 l 0,0.698243 q 0,0.671386 -0.67138,0.671386 l -4.4043,0 0,5.908203 q 0,2.041016 0.67139,2.84668 0.67138,0.805664 1.93359,0.805664 0.99365,0 2.01416,-0.375976 0.10742,-0.05371 0.32227,-0.05371 0.37597,0 0.56396,0.429687 l 0.29541,0.698242 z"
         id="path4181"
         inkscape:connector-curvature="0" />
    </g>
    <g
       style="line-height:125%"
       id="text10">
      <path
         d="m 73.451225,140.4384 q 0,0.41016 -0.410156,0.46143 -1.691895,0.20507 -2.751465,0.20507 -1.11084,0 -1.931152,-0.3247 -0.803223,-0.3418 -1.213379,-0.90576 -0.410156,-0.56397 -0.410156,-1.23047 0,-0.66651 0.410156,-1.23047 0.410156,-0.56397 1.230469,-0.90576 0.820312,-0.3418 1.965332,-0.3418 l 1.657715,0 0,-0.68359 q 0,-1.07666 -0.563965,-1.521 -0.563965,-0.46143 -1.674805,-0.46143 -0.700684,0 -1.555176,0.1709 -0.05127,0.0171 -0.136719,0.0171 -0.324707,0 -0.375976,-0.32471 l -0.05127,-0.46142 0,-0.10254 q 0,-0.1709 0.06836,-0.25635 0.08545,-0.10254 0.256347,-0.13672 1.11084,-0.22216 2.119141,-0.22216 1.657715,0 2.512207,0.78613 0.854492,0.78613 0.854492,2.51221 l 0,4.95605 z m -3.110351,-2.95654 q -1.025391,0 -1.589356,0.34179 -0.546875,0.3418 -0.546875,0.83741 0,0.4956 0.563965,0.8374 0.563965,0.32471 1.623535,0.32471 0.478516,0 1.606446,-0.10254 l 0,-2.23877 -1.657715,0 z"
         style="font-size:17.5px"
         id="path4184"
         inkscape:connector-curvature="0" />
      <path
         d="m 76.715385,128.54387 q 0,-0.42725 0.427247,-0.42725 l 0.598144,0 q 0.427246,0 0.427246,0.42725 l 0,3.81103 q 0.683594,-0.13671 1.315918,-0.13671 1.794434,0 2.973633,1.09375 1.179199,1.07666 1.179199,3.3496 0,2.27295 -1.179199,3.3667 -1.179199,1.07666 -2.973633,1.07666 -1.315918,0 -2.546387,-0.4956 -0.222168,-0.11963 -0.222168,-0.35889 l 0,-11.70654 z m 1.452637,11.07422 q 0.666504,0.15381 1.315918,0.15381 1.230469,0 1.948242,-0.73487 0.734864,-0.73486 0.734864,-2.37549 0,-1.72607 -0.786133,-2.44384 -0.786133,-0.73487 -2.067871,-0.73487 -0.478516,0 -1.14502,0.11963 l 0,6.01563 z"
         style="font-size:17.5px"
         id="path4186"
         inkscape:connector-curvature="0" />
      <path
         d="m 93.326714,133.705 q -0.10254,0.27344 -0.358887,0.27344 -0.119629,0 -0.187988,-0.0342 -1.076661,-0.39307 -2.067872,-0.39307 -1.230468,0 -1.965332,0.73487 -0.717773,0.73486 -0.717773,2.37548 0,1.64063 0.717773,2.37549 0.734864,0.73487 1.965332,0.73487 0.957032,0 2.067872,-0.39307 0.06836,-0.0342 0.187988,-0.0342 0.256347,0 0.358887,0.27344 l 0.170898,0.41015 q 0.05127,0.10254 0.05127,0.20508 0,0.25635 -0.273438,0.35889 -1.196289,0.51269 -2.563477,0.51269 -1.794433,0 -2.973632,-1.07666 -1.1792,-1.09375 -1.1792,-3.3667 0,-2.27294 1.1792,-3.3496 1.179199,-1.09375 2.973632,-1.09375 1.350098,0 2.563477,0.51269 0.273438,0.10254 0.273438,0.35889 0,0.10254 -0.05127,0.20508 l -0.170898,0.41015 z"
         style="font-size:17.5px"
         id="path4188"
         inkscape:connector-curvature="0" />
      <path
         d="m 103.32427,140.25041 q 0,0.23926 -0.22217,0.35889 -1.23046,0.4956 -2.54638,0.4956 -1.794436,0 -2.973635,-1.07666 -1.1792,-1.09375 -1.1792,-3.3667 0,-2.27294 1.1792,-3.3496 1.179199,-1.09375 2.973635,-1.09375 0.63232,0 1.31592,0.13671 l 0,-3.81103 q 0,-0.42725 0.42724,-0.42725 l 0.59815,0 q 0.42724,0 0.42724,0.42725 l 0,11.70654 z m -1.45263,-6.64795 q -0.66651,-0.11963 -1.14502,-0.11963 -1.281742,0 -2.067875,0.73487 -0.786133,0.71777 -0.786133,2.44384 0,1.64063 0.717773,2.37549 0.734864,0.73487 1.965335,0.73487 0.64941,0 1.31592,-0.15381 l 0,-6.01563 z"
         style="font-size:17.5px"
         id="path4190"
         inkscape:connector-curvature="0" />
      <path
         d="m 113.18511,140.02824 q 0.0513,0.10254 0.0513,0.20508 0,0.25635 -0.27344,0.35889 -1.19629,0.51269 -2.56347,0.51269 -1.79444,0 -2.97364,-1.07666 -1.17919,-1.09375 -1.17919,-3.3667 0,-1.38427 0.47851,-2.39257 0.47852,-1.0083 1.28174,-1.521 0.80322,-0.52978 1.77734,-0.52978 0.88867,0 1.65772,0.46142 0.78613,0.44434 1.24756,1.31592 0.47851,0.87158 0.47851,2.06787 l 0,0.39307 q 0,0.42724 -0.42724,0.42724 l -5.02442,0 q 0.0513,1.50391 0.82031,2.20459 0.78614,0.6836 1.93116,0.6836 0.88867,0 1.99951,-0.39307 0.0684,-0.0342 0.18799,-0.0342 0.25634,0 0.35888,0.27344 l 0.1709,0.41015 z m -3.38379,-6.51123 q -0.71777,0 -1.29883,0.54688 -0.58105,0.54687 -0.6665,1.5039 l 3.8794,0 q 0,-0.64941 -0.29053,-1.11084 -0.29053,-0.46142 -0.73487,-0.70068 -0.42724,-0.23926 -0.88867,-0.23926 z"
         style="font-size:17.5px"
         id="path4192"
         inkscape:connector-curvature="0" />
      <path
         d="m 122.94341,129.22746 q -0.11963,0.27344 -0.35888,0.27344 -0.13672,0 -0.20508,-0.0342 -0.64942,-0.23926 -1.28174,-0.23926 -0.80322,0 -1.23047,0.5127 -0.41016,0.51269 -0.41016,1.81152 l 0,0.8374 2.78565,0 q 0.42725,0 0.42725,0.42725 l 0,0.44434 q 0,0.42724 -0.42725,0.42724 l -2.80274,0 0,6.81885 q 0,0.42725 -0.42724,0.42725 l -0.59815,0 q -0.42724,0 -0.42724,-0.42725 l 0,-6.81885 -1.64063,0 q -0.42724,0 -0.42724,-0.42724 l 0,-0.44434 q 0,-0.42725 0.42724,-0.42725 l 1.64063,0 0,-0.8374 q 0,-1.91406 0.87158,-2.78564 0.87158,-0.87159 2.23877,-0.87159 0.85449,0 1.79443,0.3418 0.29053,0.10254 0.29053,0.3418 0,0.10254 -0.0513,0.20508 l -0.18799,0.44433 z"
         style="font-size:17.5px"
         id="path4194"
         inkscape:connector-curvature="0" />
      <path
         d="m 129.95025,139.89153 q 2.10205,0 3.22998,0.68359 1.12793,0.6665 1.12793,1.8457 -0.0171,1.24756 -1.16211,1.99951 -1.14502,0.75196 -3.1958,0.75196 -2.22168,0 -3.41797,-0.59815 -1.1792,-0.59814 -1.1792,-1.70898 0,-0.63233 0.37598,-1.21338 0.37597,-0.58106 0.99121,-0.90576 -0.39307,-0.22217 -0.58106,-0.54688 -0.17089,-0.3247 -0.17089,-0.78613 0,-0.52979 0.34179,-1.0083 0.35889,-0.49561 0.88867,-0.73486 -0.59814,-0.41016 -0.92285,-1.04248 -0.30761,-0.63233 -0.30761,-1.38428 0,-0.85449 0.42724,-1.53809 0.44434,-0.70068 1.23047,-1.09375 0.78613,-0.39306 1.77734,-0.39306 0.58106,0 1.21338,0.17089 l 2.58057,0 q 0.42725,0 0.42725,0.42725 l 0,0.27344 q 0,0.42724 -0.42725,0.42724 l -0.92285,0 q 0.56396,0.78614 0.56396,1.76026 0,0.87158 -0.44433,1.57226 -0.42725,0.6836 -1.21338,1.09375 -0.76905,0.39307 -1.77735,0.39307 -0.64941,0 -1.26464,-0.18799 -0.3418,0.15381 -0.52979,0.41016 -0.18799,0.25635 -0.18799,0.52978 0,0.44434 0.56397,0.63233 0.58105,0.1709 1.96533,0.1709 z m -0.54688,-6.37452 q -0.85449,0 -1.41845,0.5127 -0.56397,0.4956 -0.56397,1.24756 0,0.75195 0.56397,1.24756 0.58105,0.4956 1.41845,0.4956 0.83741,0 1.40137,-0.4956 0.58106,-0.49561 0.58106,-1.24756 0,-0.75196 -0.56397,-1.24756 -0.56396,-0.5127 -1.41846,-0.5127 z m 0.37598,10.33936 q 1.45264,0 2.25586,-0.41016 0.82031,-0.41015 0.82031,-1.02539 -0.0171,-0.56396 -0.80322,-0.88867 -0.76904,-0.32471 -2.27295,-0.32471 -1.24756,0 -1.96533,-0.11963 -0.52979,0.20508 -0.82031,0.56397 -0.29053,0.35889 -0.29053,0.78613 0.0171,0.6836 0.80322,1.04248 0.80322,0.37598 2.27295,0.37598 z"
         style="font-size:17.5px"
         id="path4196"
         inkscape:connector-curvature="0" />
      <path
         d="m 137.23052,132.30363 q 0.99121,-0.0854 1.84571,-0.0854 1.91406,0 2.76855,0.80322 0.85449,0.78613 0.85449,2.64892 l 0,4.83643 q 0,0.42725 -0.42724,0.42725 l -0.59815,0 q -0.42724,0 -0.42724,-0.42725 l 0,-4.83643 q 0,-1.19629 -0.49561,-1.6748 -0.49561,-0.47852 -1.6748,-0.47852 -0.88868,0 -1.84571,0.0855 l 0,6.9043 q 0,0.42725 -0.42724,0.42725 l -0.59815,0 q -0.42724,0 -0.42724,-0.42725 l 0,-11.97998 q 0,-0.42725 0.42724,-0.42725 l 0.59815,0.0171 q 0.42724,0 0.42724,0.42725 l 0,3.75976 z"
         style="font-size:17.5px"
         id="path4198"
         inkscape:connector-curvature="0" />
      <path
         d="m 149.3814,127.94572 q 0.42725,0 0.42725,0.42725 l 0,1.12793 q 0,0.42725 -0.42725,0.42725 l -1.11084,0 q -0.42724,0 -0.42724,-0.42725 l 0,-1.12793 q 0,-0.42725 0.42724,-0.42725 l 1.11084,0 z m 2.73438,11.67237 q 0.42724,0 0.42724,0.42724 l 0,0.46143 q 0,0.42725 -0.42724,0.42725 l -6.0669,0 q -0.42724,0 -0.42724,-0.42725 l 0,-0.46143 q 0,-0.42724 0.42724,-0.42724 l 2.30713,0 0,-5.93018 -1.74316,0 q -0.42725,0 -0.42725,-0.42724 l 0,-0.44434 q 0,-0.42725 0.42725,-0.42725 l 2.76855,0 q 0.42725,0 0.42725,0.42725 l 0,6.80176 2.30713,0 z"
         style="font-size:17.5px"
         id="path4200"
         inkscape:connector-curvature="0" />
      <path
         d="m 161.95953,127.94572 q 0.42724,0 0.42724,0.42725 l 0,1.12793 q 0,0.42725 -0.42724,0.42725 l -1.11084,0 q -0.42725,0 -0.42725,-0.42725 l 0,-1.12793 q 0,-0.42725 0.42725,-0.42725 l 1.11084,0 z m 0,4.44336 q 0.42724,0 0.42724,0.42725 l 0,6.06689 q 0,2.51221 -1.1792,3.64014 -1.16211,1.14502 -2.97363,1.14502 -1.3501,0 -2.56348,-0.51269 -0.27343,-0.10254 -0.27343,-0.35889 0,-0.10254 0.0513,-0.20508 l 0.17089,-0.41016 q 0.10254,-0.27343 0.35889,-0.27343 0.11963,0 0.18799,0.0342 1.07666,0.39306 2.06787,0.39306 1.24756,0 1.96533,-0.78613 0.71778,-0.78613 0.71778,-2.66602 l 0,-5.16113 -4.76807,0 q -0.42725,0 -0.42725,-0.42724 l 0,-0.47852 q 0,-0.42725 0.42725,-0.42725 l 5.81055,0 z"
         style="font-size:17.5px"
         id="path4202"
         inkscape:connector-curvature="0" />
      <path
         d="m 172.4356,140.40422 q 0.15381,0.15381 0.15381,0.29053 0,0.10254 -0.10254,0.1709 -0.10254,0.0684 -0.27344,0.0684 l -0.99121,0 q -0.30762,0 -0.52978,-0.22217 l -3.41797,-3.43506 q -0.37598,-0.37598 -0.5127,-0.37598 l 0,3.60596 q 0,0.42725 -0.42724,0.42725 l -0.59815,0 q -0.42724,0 -0.42724,-0.42725 l 0,-11.96289 q 0,-0.42725 0.42724,-0.42725 l 0.59815,0 q 0.42724,0 0.42724,0.42725 l 0,7.51953 q 0.13672,0 0.5127,-0.37598 l 3.07617,-3.07617 q 0.22217,-0.22217 0.52978,-0.22217 l 0.99122,0 q 0.17089,0 0.27343,0.0684 0.10254,0.0684 0.10254,0.1709 0,0.13672 -0.15381,0.29053 l -3.11035,3.11035 q -0.15381,0.15381 -0.32471,0.25635 -0.1538,0.10254 -0.47851,0.20508 0.32471,0.10254 0.47851,0.20507 0.1709,0.10254 0.32471,0.25635 l 3.45215,3.45215 z"
         style="font-size:17.5px"
         id="path4204"
         inkscape:connector-curvature="0" />
      <path
         d="m 182.14263,140.40422 q 0.0342,0.0684 0.0342,0.18799 0,0.27344 -0.32471,0.3418 -0.70068,0.17089 -1.5039,0.17089 -1.45264,0 -2.13623,-0.64941 -0.66651,-0.6665 -0.66651,-2.08496 l 0,-8.95508 -1.91406,0 q -0.42725,0 -0.42725,-0.42725 l 0,-0.44433 q 0,-0.42725 0.42725,-0.42725 l 2.93945,0 q 0.42725,0 0.42725,0.42725 l 0,9.82666 q 0,0.76904 0.29053,1.09375 0.30761,0.30762 1.05957,0.32471 0.61523,0 1.11084,-0.11963 0.0513,-0.0171 0.13672,-0.0171 0.27343,0 0.41015,0.30761 l 0.13672,0.44434 z"
         style="font-size:17.5px"
         id="path4206"
         inkscape:connector-curvature="0" />
      <path
         d="m 190.17486,132.25237 q 1.19629,0 1.76025,0.61523 0.56397,0.61523 0.56397,2.05078 l 0,5.58838 q 0,0.42725 -0.42725,0.42725 l -0.59814,0 q -0.42725,0 -0.42725,-0.42725 l 0,-5.5542 q 0,-0.76904 -0.29053,-1.07666 -0.29052,-0.32471 -0.99121,-0.32471 -0.3418,0 -0.75195,0.0513 0.1709,0.5127 0.1709,1.3501 l 0,5.5542 q 0,0.42725 -0.42725,0.42725 l -0.59814,0 q -0.42725,0 -0.42725,-0.42725 l 0,-5.5542 q 0,-0.76904 -0.29053,-1.07666 -0.29052,-0.32471 -0.99121,-0.32471 -0.27344,0 -0.58105,0.0342 l 0,6.92139 q 0,0.42725 -0.42725,0.42725 l -0.59814,0 q -0.42725,0 -0.42725,-0.42725 l 0,-7.5708 q 0,-0.37598 0.39307,-0.46143 1.21338,-0.22216 1.96533,-0.22216 1.07666,0 1.62353,0.41015 0.83741,-0.41015 1.77735,-0.41015 z"
         style="font-size:17.5px"
         id="path4208"
         inkscape:connector-curvature="0" />
      <path
         d="m 194.84039,132.88469 q 0,-0.37598 0.39306,-0.46143 1.36719,-0.20507 2.90528,-0.20507 1.91406,0 2.76855,0.80322 0.85449,0.78613 0.85449,2.64892 l 0,4.83643 q 0,0.42725 -0.42724,0.42725 l -0.59815,0 q -0.42724,0 -0.42724,-0.42725 l 0,-4.83643 q 0,-1.19629 -0.49561,-1.6748 -0.49561,-0.47852 -1.6748,-0.47852 -0.82032,0 -1.84571,0.0684 l 0,6.92139 q 0,0.42725 -0.42724,0.42725 l -0.59815,0 q -0.42724,0 -0.42724,-0.42725 l 0,-7.62207 z"
         style="font-size:17.5px"
         id="path4210"
         inkscape:connector-curvature="0" />
      <path
         d="m 208.20464,132.18401 q 0.97412,0 1.74317,0.4956 0.76904,0.47852 1.21338,1.48682 0.44433,1.0083 0.44433,2.49511 0,1.48682 -0.44433,2.49512 -0.44434,1.0083 -1.21338,1.50391 -0.76905,0.47851 -1.74317,0.47851 -0.97412,0 -1.77734,-0.4956 -0.78613,-0.49561 -1.26465,-1.50391 -0.47851,-1.0083 -0.47851,-2.47803 0,-1.46972 0.47851,-2.47802 0.47852,-1.0083 1.26465,-1.50391 0.80322,-0.4956 1.77734,-0.4956 z m -0.0513,7.63916 q 0.90577,0 1.45264,-0.83741 0.54688,-0.8374 0.54688,-2.32422 0,-1.48681 -0.54688,-2.32421 -0.54687,-0.83741 -1.45264,-0.83741 -0.90576,0 -1.46972,0.83741 -0.54688,0.8374 -0.54688,2.32421 0,1.48682 0.54688,2.32422 0.56396,0.83741 1.46972,0.83741 z"
         style="font-size:17.5px"
         id="path4212"
         inkscape:connector-curvature="0" />
      <path
         d="m 214.52789,133.07268 q 0,-0.25635 0.22216,-0.35889 1.23047,-0.4956 2.54639,-0.4956 1.79443,0 2.97363,1.09375 1.1792,1.07666 1.1792,3.3496 0,2.27295 -1.1792,3.3667 -1.1792,1.07666 -2.97363,1.07666 -0.63232,0 -1.31592,-0.13671 l 0,3.81103 q 0,0.42725 -0.42724,0.42725 l -0.59815,0 q -0.42724,0 -0.42724,-0.42725 l 0,-11.70654 z m 1.45263,6.64795 q 0.64942,0.11963 1.14502,0.11963 1.28174,0 2.06787,-0.71778 0.78614,-0.73486 0.78614,-2.46094 0,-1.64062 -0.73487,-2.37548 -0.71777,-0.73487 -1.94824,-0.73487 -0.64941,0 -1.31592,0.15381 l 0,6.01563 z"
         style="font-size:17.5px"
         id="path4214"
         inkscape:connector-curvature="0" />
      <path
         d="m 231.29302,144.77922 q 0,0.42725 -0.42724,0.42725 l -0.59815,0 q -0.42724,0 -0.42724,-0.42725 l 0,-3.81103 q -0.6836,0.13671 -1.31592,0.13671 -1.79444,0 -2.97364,-1.07666 -1.17919,-1.09375 -1.17919,-3.3667 0,-2.27294 1.17919,-3.3496 1.1792,-1.09375 2.97364,-1.09375 1.31592,0 2.54638,0.4956 0.22217,0.10254 0.22217,0.35889 l 0,11.70654 z M 229.84039,133.705 q -0.66651,-0.15381 -1.31592,-0.15381 -1.23047,0 -1.96533,0.73487 -0.71778,0.73486 -0.71778,2.37548 0,1.72608 0.78613,2.46094 0.78614,0.71778 2.06788,0.71778 0.4956,0 1.14502,-0.11963 l 0,-6.01563 z"
         style="font-size:17.5px"
         id="path4216"
         inkscape:connector-curvature="0" />
      <path
         d="m 234.21539,132.88469 q 0,-0.37598 0.39306,-0.46143 1.36719,-0.20507 2.90528,-0.20507 1.35009,0 2.11914,0.27343 0.78613,0.27344 1.14502,0.87158 0.35888,0.59815 0.35888,1.62354 0,0.42725 -0.42724,0.42725 l -0.59815,0 q -0.42724,0 -0.42724,-0.42725 0,-0.80322 -0.49561,-1.12793 -0.49561,-0.3418 -1.6748,-0.3418 -0.82032,0 -1.84571,0.0684 l 0,6.92139 q 0,0.42725 -0.42724,0.42725 l -0.59815,0 q -0.42724,0 -0.42724,-0.42725 l 0,-7.62207 z"
         style="font-size:17.5px"
         id="path4218"
         inkscape:connector-curvature="0" />
      <path
         d="m 249.93804,133.3632 q -0.10254,0.37598 -0.51269,0.30762 -0.97412,-0.15381 -1.53809,-0.15381 -0.85449,0 -1.43555,0.29053 -0.58105,0.27344 -0.58105,0.78613 0,0.44434 0.46142,0.78614 0.46143,0.34179 1.28174,0.44433 1.521,0.18799 2.25586,0.88867 0.75196,0.70069 0.75196,1.72608 0,1.19629 -0.93995,1.93115 -0.93994,0.73486 -2.64892,0.73486 -1.14502,0 -2.30713,-0.18798 -0.35889,-0.0513 -0.35889,-0.37598 0,-0.0855 0.0171,-0.13672 l 0.10254,-0.44434 q 0.0684,-0.39306 0.49561,-0.34179 0.99121,0.1709 2.05078,0.1709 1.02539,0 1.57226,-0.37598 0.56397,-0.37598 0.56397,-0.97412 0,-0.49561 -0.42725,-0.85449 -0.41015,-0.35889 -1.29883,-0.44434 -1.41845,-0.13672 -2.22168,-0.8374 -0.80322,-0.71778 -0.80322,-1.70899 0,-1.04248 0.87158,-1.70898 0.87159,-0.6665 2.42676,-0.6665 1.0083,0 2.0166,0.18798 0.3418,0.0513 0.3418,0.37598 0,0.0855 -0.0171,0.13672 l -0.11963,0.44433 z"
         style="font-size:17.5px"
         id="path4220"
         inkscape:connector-curvature="0" />
      <path
         d="m 260.773,140.21623 q 0.0513,0.10254 0.0513,0.20508 0,0.23926 -0.29053,0.3418 -0.93994,0.34179 -1.79443,0.34179 -1.36719,0 -2.23877,-0.87158 -0.87158,-0.87158 -0.87158,-2.78564 l 0,-3.75977 -1.29883,0 q -0.42724,0 -0.42724,-0.42724 l 0,-0.44434 q 0,-0.42725 0.42724,-0.42725 l 1.29883,0 0,-2.30713 q 0,-0.42724 0.42725,-0.42724 l 0.59814,0 q 0.42725,0 0.42725,0.42724 l 0,2.30713 2.80273,0 q 0.42725,0 0.42725,0.42725 l 0,0.44434 q 0,0.42724 -0.42725,0.42724 l -2.80273,0 0,3.75977 q 0,1.29883 0.42724,1.81152 0.42725,0.5127 1.23047,0.5127 0.63233,0 1.28174,-0.23926 0.0684,-0.0342 0.20508,-0.0342 0.23926,0 0.35888,0.27344 l 0.18799,0.44433 z"
         style="font-size:17.5px"
         id="path4222"
         inkscape:connector-curvature="0" />
      <path
         d="m 270.66802,140.4384 q 0,0.37598 -0.39306,0.46143 -1.36719,0.20507 -2.90528,0.20507 -1.91406,0 -2.76855,-0.78613 -0.85449,-0.80322 -0.85449,-2.66601 l 0,-4.83643 q 0,-0.42725 0.42724,-0.42725 l 0.59815,0 q 0.42724,0 0.42724,0.42725 l 0,4.83643 q 0,1.19628 0.49561,1.6748 0.4956,0.47852 1.6748,0.47852 0.82031,0 1.84571,-0.0684 l 0,-6.92139 q 0,-0.42725 0.42724,-0.42725 l 0.59815,0 q 0.42724,0 0.42724,0.42725 l 0,7.62207 z"
         style="font-size:17.5px"
         id="path4224"
         inkscape:connector-curvature="0" />
      <path
         d="m 279.38384,132.76506 q 0.10254,-0.37598 0.46143,-0.37598 l 0.59814,0 q 0.18799,0 0.29053,0.0854 0.10254,0.0855 0.10254,0.25635 0,0.0854 -0.0171,0.13672 l -1.67481,6.71631 q -0.17089,0.71777 -0.75195,1.12793 -0.56396,0.39306 -1.33301,0.39306 -0.76904,0 -1.35009,-0.39306 -0.56397,-0.39307 -0.75196,-1.12793 l -1.6748,-6.71631 q -0.0171,-0.0513 -0.0171,-0.13672 0,-0.1709 0.10254,-0.25635 0.10254,-0.0854 0.29052,-0.0854 l 0.61524,0 q 0.35889,0 0.46142,0.37598 l 1.65772,6.57959 q 0.0513,0.22217 0.23926,0.3418 0.18799,0.11963 0.42724,0.11963 0.23926,0 0.42725,-0.11963 0.18799,-0.11963 0.23926,-0.3418 l 1.65771,-6.57959 z"
         style="font-size:17.5px"
         id="path4226"
         inkscape:connector-curvature="0" />
      <path
         d="m 290.95367,140.59221 q 0,0.42724 -0.46143,0.42724 l -0.27344,0 q -0.71777,0 -1.0083,-0.61523 l -2.30713,-4.61426 -2.30713,4.61426 q -0.29052,0.61523 -1.0083,0.61523 l -0.27343,0 q -0.42725,0 -0.46143,-0.42724 l -0.3418,-7.75879 q -0.0171,-0.18799 0.11963,-0.30762 0.13672,-0.13672 0.32471,-0.13672 l 0.58105,0 q 0.18799,0 0.29053,0.11963 0.11963,0.11963 0.13672,0.32471 l 0.30762,5.36621 1.89697,-3.79394 q 0.13672,-0.30762 0.49561,-0.30762 l 0.47851,0 q 0.35889,0 0.49561,0.30762 l 1.89697,3.79394 0.30762,-5.36621 q 0.0171,-0.20508 0.11963,-0.32471 0.11962,-0.11963 0.30761,-0.11963 l 0.58106,0 q 0.18799,0 0.30761,0.13672 0.13672,0.11963 0.13672,0.30762 l -0.34179,7.75879 z"
         style="font-size:17.5px"
         id="path4228"
         inkscape:connector-curvature="0" />
      <path
         d="m 298.54156,135.97795 q -0.18799,0.37598 -0.64942,0.56397 0.20508,0.0684 0.37598,0.22216 0.18799,0.15381 0.27344,0.32471 l 1.60644,3.33252 q 0.0513,0.11963 0.0513,0.22217 0,0.29053 -0.37597,0.29053 l -0.54688,0 q -0.35889,0 -0.51269,-0.30762 l -1.50391,-3.0249 q -0.15381,-0.29053 -0.25635,-0.39307 -0.0854,-0.11963 -0.25635,-0.11963 -0.17089,0 -0.27343,0.10254 -0.0854,0.10254 -0.23926,0.41016 l -1.521,3.0249 q -0.15381,0.30762 -0.4956,0.30762 l -0.56397,0 q -0.37597,0 -0.37597,-0.27344 0,-0.11963 0.0684,-0.23926 l 1.60645,-3.33252 q 0.0854,-0.1709 0.25635,-0.32471 0.1709,-0.1538 0.37597,-0.22216 -0.47851,-0.20508 -0.63232,-0.56397 l -1.50391,-3.09326 q -0.0513,-0.10254 -0.0513,-0.20508 0,-0.13672 0.10254,-0.20508 0.10254,-0.0854 0.27344,-0.0854 l 0.56397,0 q 0.35888,0 0.4956,0.30762 l 1.40137,2.78565 q 0.15381,0.30761 0.23926,0.41015 0.0855,0.10254 0.25634,0.10254 0.18799,0 0.27344,-0.10254 0.10254,-0.10254 0.25635,-0.41015 l 1.38428,-2.78565 q 0.13672,-0.30762 0.51269,-0.30762 l 0.56397,0 q 0.35888,0 0.35888,0.27344 0,0.0855 -0.0513,0.22217 l -1.48681,3.09326 z"
         style="font-size:17.5px"
         id="path4230"
         inkscape:connector-curvature="0" />
      <path
         d="m 309.99175,132.38908 q 0.1709,0 0.27344,0.10254 0.10254,0.0854 0.10254,0.23926 0,0.0854 -0.0171,0.13672 l -2.11914,8.4082 q -0.52979,2.08496 -1.40137,3.00782 -0.87158,0.92285 -2.3584,0.92285 -0.92285,0 -2.08496,-0.41016 -0.29053,-0.10254 -0.29053,-0.37598 0,-0.0342 0.0342,-0.17089 l 0.15381,-0.42725 q 0.10254,-0.29053 0.35889,-0.29053 0.11963,0 0.18799,0.0342 0.37597,0.13672 0.8374,0.20508 0.47852,0.0855 0.80322,0.0855 0.88867,0 1.43555,-0.64942 0.54687,-0.64941 0.90576,-2.10205 l -0.22217,0 q -0.8374,0 -1.38427,-0.39306 -0.52979,-0.39307 -0.71778,-1.14502 l -1.6748,-6.69922 q -0.0171,-0.0513 -0.0171,-0.13672 0,-0.3418 0.39306,-0.3418 l 0.61524,0 q 0.39307,0 0.46142,0.35889 l 1.65772,6.59668 q 0.0513,0.23926 0.22217,0.37598 0.1709,0.13672 0.44433,0.13672 l 0.52979,0 1.77734,-7.10938 q 0.10254,-0.35889 0.47852,-0.35889 l 0.61523,0 z"
         style="font-size:17.5px"
         id="path4232"
         inkscape:connector-curvature="0" />
      <path
         d="m 319.45953,139.61809 q 0.42724,0 0.42724,0.42724 l 0,0.46143 q 0,0.42725 -0.42724,0.42725 l -6.0669,0 q -0.41015,0 -0.41015,-0.42725 l 0,-0.76904 q 0,-0.61524 0.44433,-1.05957 l 4.99024,-4.99024 -4.66553,0 q -0.42725,0 -0.42725,-0.42724 l 0,-0.44434 q 0,-0.42725 0.42725,-0.42725 l 5.70801,0 q 0.41015,0 0.41015,0.42725 l 0,0.75195 q 0,0.61524 -0.44433,1.05957 l -4.99024,4.99024 5.02442,0 z"
         style="font-size:17.5px"
         id="path4234"
         inkscape:connector-curvature="0" />
      <path
         d="m 74.955132,162.33049 q 0.01709,0.0513 0.01709,0.13672 0,0.15381 -0.102539,0.25635 -0.102539,0.0855 -0.273437,0.0855 l -0.615235,0 q -0.375976,0 -0.478515,-0.37598 l -0.837403,-3.38379 -4.648437,0 -0.854492,3.38379 q -0.102539,0.37598 -0.478516,0.37598 l -0.598144,0 q -0.187989,0 -0.290528,-0.0855 -0.102539,-0.10254 -0.102539,-0.25635 0,-0.0854 0.01709,-0.13672 l 2.529297,-10.13428 q 0.187988,-0.73486 0.751953,-1.12793 0.581055,-0.39306 1.350098,-0.39306 0.769043,0 1.333008,0.41015 0.581054,0.39307 0.751953,1.11084 l 2.529297,10.13428 z m -2.614747,-4.58008 -1.333007,-5.31494 q -0.05127,-0.22217 -0.239258,-0.3418 -0.187988,-0.11963 -0.427246,-0.11963 -0.239258,0 -0.427246,0.11963 -0.187989,0.11963 -0.239258,0.3418 l -1.333008,5.31494 3.999023,0 z"
         style="font-size:17.5px"
         id="path4236"
         inkscape:connector-curvature="0" />
      <path
         d="m 76.356499,152.14494 q -0.427246,0 -0.427246,-0.42724 l 0,-0.44434 q 0,-0.42724 0.427246,-0.42724 l 3.076172,0 q 1.315918,0 2.1875,0.44433 0.888671,0.44434 1.298828,1.14502 0.427246,0.70068 0.427246,1.46973 0,0.8374 -0.461426,1.53808 -0.444336,0.70069 -1.09375,1.04248 1.025391,0.37598 1.623535,1.19629 0.615235,0.80323 0.615235,1.77735 0,0.87158 -0.512696,1.64062 -0.495605,0.76904 -1.469726,1.24756 -0.957032,0.46143 -2.27295,0.46143 l -2.341308,0 q -0.427246,0 -0.427246,-0.42725 l 0,-10.23682 -0.649414,0 z m 3.076172,3.77686 q 1.230468,0 1.931152,-0.52979 0.700684,-0.52978 0.700684,-1.31591 0,-0.47852 -0.290528,-0.92286 -0.273437,-0.44433 -0.871582,-0.71777 -0.581055,-0.29053 -1.469726,-0.29053 l -0.974122,0 0,3.77686 0.974122,0 z m 0.341796,5.57129 q 0.939942,0 1.606446,-0.29053 0.683594,-0.30762 1.008301,-0.78613 0.341796,-0.49561 0.341796,-1.04248 0,-0.54688 -0.341796,-1.02539 -0.324707,-0.49561 -1.008301,-0.80323 -0.666504,-0.30761 -1.606446,-0.30761 l -1.315918,0 0,4.25537 1.315918,0 z"
         style="font-size:17.5px"
         id="path4238"
         inkscape:connector-curvature="0" />
      <path
         d="m 93.497612,161.90324 q 0.05127,0.10254 0.05127,0.20508 0,0.25635 -0.273438,0.35889 -1.196289,0.51269 -2.358398,0.51269 -1.12793,0 -2.119141,-0.51269 -0.974121,-0.5127 -1.606445,-1.72608 -0.632325,-1.23046 -0.632325,-3.22998 l 0,-1.36718 q 0,-1.99952 0.632325,-3.21289 0.632324,-1.23047 1.606445,-1.74317 0.991211,-0.51269 2.119141,-0.51269 1.145019,0 2.358398,0.51269 0.273438,0.10254 0.273438,0.35889 0,0.10254 -0.05127,0.20508 l -0.170898,0.41015 q -0.10254,0.27344 -0.358887,0.27344 -0.119629,0 -0.187988,-0.0342 -1.076661,-0.39307 -1.896973,-0.39307 -1.213379,0 -2.033692,0.92286 -0.820312,0.92285 -0.820312,3.21289 l 0,1.36718 q 0,2.29004 0.820312,3.21289 0.820313,0.92286 2.033692,0.92286 0.820312,0 1.896973,-0.39307 0.06836,-0.0342 0.187988,-0.0342 0.256347,0 0.358887,0.27344 l 0.170898,0.41015 z"
         style="font-size:17.5px"
         id="path4240"
         inkscape:connector-curvature="0" />
      <path
         d="m 97.411186,150.84612 q 2.23877,0 3.605954,0.4956 1.38428,0.49561 2.06787,1.72607 0.70069,1.23047 0.70069,3.41797 l 0,0.6836 q 0,1.99951 -0.54688,3.22998 -0.52978,1.23047 -1.77734,1.82861 -1.24756,0.58106 -3.38379,0.58106 l -0.957031,0 q -0.427246,0 -0.427246,-0.42725 l 0,-10.23682 -0.649414,0 q -0.427246,0 -0.427246,-0.42724 l 0,-0.44434 q 0,-0.42724 0.427246,-0.42724 l 1.367187,0 z m 4.921874,5.63964 q 0,-2.1875 -0.97412,-3.24707 -0.97412,-1.07666 -3.212891,-1.07666 l 0,9.33106 q 1.503907,0 2.409671,-0.42725 0.92285,-0.44433 1.3501,-1.38428 0.42724,-0.93994 0.42724,-2.5122 l 0,-0.6836 z"
         style="font-size:17.5px"
         id="path4242"
         inkscape:connector-curvature="0" />
      <path
         d="m 113.18511,161.49309 q 0.42725,0 0.42725,0.42724 l 0,0.46143 q 0,0.42725 -0.42725,0.42725 l -6.51123,0 q -0.42724,0 -0.42724,-0.42725 l 0,-11.1084 q 0,-0.42724 0.42724,-0.42724 l 6.13526,0 q 0.42724,0 0.42724,0.42724 l 0,0.44434 q 0,0.42724 -0.42724,0.42724 l -5.10987,0 0,3.77686 4.75098,0 q 0.42724,0 0.42724,0.42724 l 0,0.46143 q 0,0.42725 -0.42724,0.42725 l -4.75098,0 0,4.25537 5.48584,0 z"
         style="font-size:17.5px"
         id="path4244"
         inkscape:connector-curvature="0" />
      <path
         d="m 123.02886,150.84612 q 0.42725,0 0.42725,0.42724 l 0,0.44434 q 0,0.42724 -0.42725,0.42724 l -5.48584,0 0,4.375 5.10987,0 q 0.42724,0 0.42724,0.42725 l 0,0.46143 q 0,0.41015 -0.42724,0.41015 l -5.10987,0 0,4.56299 q 0,0.42725 -0.42724,0.42725 l -0.59815,0 q -0.42724,0 -0.42724,-0.42725 l 0,-11.1084 q 0,-0.42724 0.42724,-0.42724 l 6.51123,0 z"
         style="font-size:17.5px"
         id="path4246"
         inkscape:connector-curvature="0" />
      <path
         d="m 132.59917,155.99016 q 0.42725,0 0.42725,0.42724 l 0,5.52002 q 0,0.35889 -0.32471,0.5127 -1.23047,0.52978 -2.40966,0.52978 -1.12793,0 -2.11915,-0.51269 -0.97412,-0.5127 -1.60644,-1.72608 -0.63232,-1.23046 -0.63232,-3.22998 l 0,-1.36718 q 0,-1.99952 0.63232,-3.21289 0.63232,-1.23047 1.60644,-1.74317 0.99122,-0.51269 2.11915,-0.51269 1.14502,0 2.35839,0.51269 0.27344,0.10254 0.27344,0.35889 0,0.10254 -0.0513,0.20508 l -0.1709,0.41015 q -0.10254,0.27344 -0.35888,0.27344 -0.11963,0 -0.18799,-0.0342 -1.07666,-0.39307 -1.89697,-0.39307 -1.21338,0 -2.0337,0.92286 -0.82031,0.92285 -0.82031,3.21289 l 0,1.36718 q 0,2.29004 0.82031,3.21289 0.82032,0.92286 2.0337,0.92286 0.58105,0 1.31591,-0.20508 l 0,-4.13574 -1.23046,0 q -0.42725,0 -0.42725,-0.42725 l 0,-0.44434 q 0,-0.44433 0.42725,-0.44433 l 2.25585,0 z"
         style="font-size:17.5px"
         id="path4248"
         inkscape:connector-curvature="0" />
      <path
         d="m 142.56255,150.84612 q 0.42725,0 0.42725,0.42724 l 0,11.1084 q 0,0.42725 -0.42725,0.42725 l -0.59814,0 q -0.42725,0 -0.42725,-0.42725 l 0,-5.26367 -4.59717,0 0,5.26367 q 0,0.42725 -0.42724,0.42725 l -0.59815,0 q -0.42724,0 -0.42724,-0.42725 l 0,-11.1084 q 0,-0.42724 0.42724,-0.42724 l 0.59815,0 q 0.42724,0 0.42724,0.42724 l 0,4.52881 4.59717,0 0,-4.52881 q 0,-0.42724 0.42725,-0.42724 l 0.59814,0 z"
         style="font-size:17.5px"
         id="path4250"
         inkscape:connector-curvature="0" />
      <path
         d="m 151.94488,150.84612 q 0.42724,0 0.42724,0.42724 l 0,0.44434 q 0,0.42724 -0.42724,0.42724 l -2.13623,0 0,9.34815 2.30713,0 q 0.42724,0 0.42724,0.42724 l 0,0.46143 q 0,0.42725 -0.42724,0.42725 l -6.0669,0 q -0.42724,0 -0.42724,-0.42725 l 0,-0.46143 q 0,-0.42724 0.42724,-0.42724 l 2.30713,0 0,-9.34815 -2.13623,0 q -0.42725,0 -0.42725,-0.42724 l 0,-0.44434 q 0,-0.42724 0.42725,-0.42724 l 5.7251,0 z"
         style="font-size:17.5px"
         id="path4252"
         inkscape:connector-curvature="0" />
      <path
         d="m 161.95953,150.84612 q 0.42724,0 0.42724,0.42724 l 0,6.92139 q 0,2.49512 -1.21338,3.64013 -1.19629,1.14502 -3.00781,1.14502 -1.28174,0 -2.49512,-0.51269 -0.27343,-0.10254 -0.27343,-0.35889 0,-0.10254 0.0513,-0.20508 l 0.17089,-0.41015 q 0.10254,-0.27344 0.35889,-0.27344 0.11963,0 0.18799,0.0342 1.07666,0.39307 1.89697,0.39307 1.1792,0 2.0166,-0.80323 0.83741,-0.82031 0.83741,-2.64892 l 0,-6.01563 -3.74268,0 q -0.42725,0 -0.42725,-0.42724 l 0,-0.47852 q 0,-0.42724 0.42725,-0.42724 l 4.78516,0 z"
         style="font-size:17.5px"
         id="path4254"
         inkscape:connector-curvature="0" />
      <path
         d="m 171.4273,162.80901 q -0.3418,0 -0.5127,-0.27344 l -3.79394,-5.24658 -0.35889,0 0,5.09277 q 0,0.42725 -0.42724,0.42725 l -0.59815,0 q -0.42724,0 -0.42724,-0.42725 l 0,-11.1084 q 0,-0.42724 0.42724,-0.42724 l 0.59815,0 q 0.42724,0 0.42724,0.42724 l 0,4.7168 0.37598,0 3.50342,-4.8877 q 0.18798,-0.25634 0.51269,-0.25634 l 0.90576,0 q 0.1709,0 0.27344,0.0683 0.10254,0.0684 0.10254,0.1709 0,0.0854 -0.11963,0.27344 l -3.96484,5.29785 4.22119,5.62256 q 0.11963,0.1709 0.11963,0.27344 0,0.11963 -0.10254,0.18799 -0.10254,0.0684 -0.27344,0.0684 l -0.88867,0 z"
         style="font-size:17.5px"
         id="path4256"
         inkscape:connector-curvature="0" />
      <path
         d="m 182.74078,161.49309 q 0.42724,0 0.42724,0.42724 l 0,0.46143 q 0,0.42725 -0.42724,0.42725 l -7.16065,0 q -0.42724,0 -0.42724,-0.42725 l 0,-11.1084 q 0,-0.42724 0.42724,-0.42724 l 0.59815,0 q 0.42724,0 0.42724,0.42724 l 0,10.21973 6.13526,0 z"
         style="font-size:17.5px"
         id="path4258"
         inkscape:connector-curvature="0" />
      <path
         d="m 192.85796,162.36467 q 0,0.18799 -0.13672,0.32471 -0.11962,0.11963 -0.30761,0.11963 l -0.58106,0 q -0.18799,0 -0.30761,-0.11963 -0.10254,-0.11963 -0.11963,-0.32471 l -0.30762,-8.78418 -1.89697,3.79395 q -0.13672,0.30761 -0.49561,0.30761 l -0.47851,0 q -0.35889,0 -0.49561,-0.30761 l -1.89697,-3.79395 -0.30762,8.78418 q -0.0171,0.20508 -0.13672,0.32471 -0.10254,0.11963 -0.29053,0.11963 l -0.58105,0 q -0.18799,0 -0.32471,-0.11963 -0.11963,-0.13672 -0.11963,-0.32471 l 0.3418,-11.17676 q 0,-0.42724 0.46143,-0.42724 l 0.27343,0 q 0.71778,0 1.0083,0.61523 l 2.30713,4.61426 2.30713,-4.61426 q 0.29053,-0.61523 1.0083,-0.61523 l 0.27344,0 q 0.46143,0 0.46143,0.42724 l 0.34179,11.17676 z"
         style="font-size:17.5px"
         id="path4260"
         inkscape:connector-curvature="0" />
      <path
         d="m 201.59087,150.84612 q 0.18799,0 0.30762,0.13671 0.13672,0.11963 0.13672,0.30762 l 0,11.09131 q 0,0.42725 -0.46143,0.42725 l -0.27343,0 q -0.35889,0 -0.59815,-0.13672 -0.23926,-0.15381 -0.41015,-0.47852 l -4.27247,-8.39111 0,8.56201 q 0,0.18799 -0.11962,0.32471 -0.11963,0.11963 -0.30762,0.11963 l -0.58106,0 q -0.18798,0 -0.3247,-0.11963 -0.11963,-0.13672 -0.11963,-0.32471 l 0,-11.09131 q 0,-0.42724 0.46142,-0.42724 l 0.27344,0 q 0.39307,0 0.61524,0.11962 0.23925,0.10254 0.39306,0.41016 l 4.27246,8.54492 0,-8.63037 q 0,-0.18799 0.11963,-0.30762 0.11963,-0.13671 0.30762,-0.13671 l 0.58105,0 z"
         style="font-size:17.5px"
         id="path4262"
         inkscape:connector-curvature="0" />
      <path
         d="m 208.15337,150.67522 q 1.55518,0 2.49512,1.12793 0.95703,1.12793 0.95703,3.1958 l 0,3.65722 q 0,2.06787 -0.95703,3.1958 -0.93994,1.12793 -2.49512,1.12793 -1.55517,0 -2.5122,-1.11084 -0.95703,-1.12793 -0.95703,-3.21289 l 0,-3.65722 q 0,-2.08496 0.95703,-3.1958 0.95703,-1.12793 2.5122,-1.12793 z m 0,11.00586 q 0.8545,0 1.41846,-0.80323 0.58106,-0.82031 0.58106,-2.22168 l 0,-3.65722 q 0,-1.40137 -0.58106,-2.20459 -0.56396,-0.82032 -1.41846,-0.82032 -0.87158,0 -1.45263,0.82032 -0.56397,0.82031 -0.56397,2.20459 l 0,3.65722 q 0,1.38428 0.56397,2.20459 0.58105,0.82032 1.45263,0.82032 z"
         style="font-size:17.5px"
         id="path4264"
         inkscape:connector-curvature="0" />
      <path
         d="m 217.26226,150.84612 q 1.48682,0 2.5293,0.51269 1.05957,0.5127 1.58935,1.36719 0.52979,0.85449 0.52979,1.87988 0,1.04248 -0.52979,1.89697 -0.52978,0.8545 -1.58935,1.36719 -1.04248,0.49561 -2.5293,0.49561 l -1.28174,0 0,4.01611 q 0,0.42725 -0.42724,0.42725 l -0.59815,0 q -0.42724,0 -0.42724,-0.42725 l 0,-11.1084 q 0,-0.42724 0.42724,-0.42724 l 2.30713,0 z m 0,6.2207 q 1.55518,0 2.37549,-0.70069 0.82031,-0.71777 0.82031,-1.76025 0,-1.04248 -0.8374,-1.74316 -0.82031,-0.71778 -2.3584,-0.71778 l -1.28174,0 0,4.92188 1.28174,0 z"
         style="font-size:17.5px"
         id="path4266"
         inkscape:connector-curvature="0" />
      <path
         d="m 232.25005,165.6801 q 0.0513,0.10254 0.0513,0.20508 0,0.23926 -0.29052,0.34179 -0.93995,0.3418 -1.79444,0.3418 -1.36719,0 -2.23877,-0.87158 -0.87158,-0.87158 -0.87158,-2.78565 -1.26465,-0.25634 -1.99951,-1.35009 -0.73486,-1.09375 -0.73486,-2.90528 l 0,-3.65722 q 0,-2.08496 0.95703,-3.1958 0.95703,-1.12793 2.5122,-1.12793 1.55518,0 2.49512,1.12793 0.95703,1.12793 0.95703,3.1958 l 0,3.65722 q 0,1.79444 -0.73486,2.90528 -0.73486,1.09375 -1.98242,1.35009 0,1.29883 0.41015,1.81153 0.42725,0.51269 1.23047,0.51269 0.63233,0 1.28174,-0.23925 0.0684,-0.0342 0.20508,-0.0342 0.23926,0 0.35889,0.27343 l 0.18798,0.44434 z m -6.42578,-7.02393 q 0,1.38428 0.56397,2.20459 0.58105,0.82032 1.45263,0.82032 0.8545,0 1.41846,-0.80323 0.58106,-0.82031 0.58106,-2.22168 l 0,-3.65722 q 0,-1.40137 -0.58106,-2.20459 -0.56396,-0.82032 -1.41846,-0.82032 -0.87158,0 -1.45263,0.82032 -0.56397,0.82031 -0.56397,2.20459 l 0,3.65722 z"
         style="font-size:17.5px"
         id="path4268"
         inkscape:connector-curvature="0" />
      <path
         d="m 242.17925,162.29631 q 0.0684,0.11963 0.0684,0.23926 0,0.27344 -0.37597,0.27344 l -0.71778,0 q -0.34179,0 -0.4956,-0.30762 l -2.51221,-5.02442 -2.47803,0 0,4.90479 q 0,0.42725 -0.42724,0.42725 l -0.59815,0 q -0.42724,0 -0.42724,-0.42725 l 0,-11.1084 q 0,-0.42724 0.42724,-0.42724 l 2.7002,0 q 1.26465,0 2.15332,0.44433 0.90576,0.42725 1.35009,1.1792 0.46143,0.75195 0.46143,1.69189 0,0.93995 -0.46143,1.72608 -0.46142,0.78613 -1.28173,1.19629 l 2.61474,5.2124 z m -4.83642,-6.13525 q 1.21338,0 1.86279,-0.58106 0.64941,-0.59814 0.64941,-1.41846 0,-0.52978 -0.29052,-0.99121 -0.27344,-0.46142 -0.8545,-0.73486 -0.56396,-0.29053 -1.36718,-0.29053 l -1.67481,0 0,4.01612 1.67481,0 z"
         style="font-size:17.5px"
         id="path4270"
         inkscape:connector-curvature="0" />
      <path
         d="m 250.43365,152.12785 q -0.10254,0.27344 -0.3418,0.27344 -0.11963,0 -0.18799,-0.0342 -1.05957,-0.39307 -1.89697,-0.39307 -1.04248,0 -1.79443,0.5127 -0.73487,0.5127 -0.73487,1.36719 0,0.70068 0.52979,1.28174 0.54687,0.56396 1.58935,0.78613 1.8628,0.39307 2.81983,1.3501 0.97412,0.93994 0.97412,2.20459 0,1.04248 -0.63233,1.8457 -0.61523,0.78613 -1.65771,1.23047 -1.04248,0.42724 -2.22168,0.42724 -0.63232,0 -1.29883,-0.13671 -0.6665,-0.11963 -1.24756,-0.37598 -0.27343,-0.10254 -0.27343,-0.35889 0,-0.10254 0.0513,-0.20508 l 0.1709,-0.41015 q 0.10254,-0.27344 0.35889,-0.27344 0.11963,0 0.18799,0.0342 0.46142,0.18799 1.04248,0.29053 0.59814,0.0854 1.09375,0.0854 1.24756,0 2.10205,-0.54688 0.85449,-0.56396 0.85449,-1.52099 0,-0.75196 -0.61523,-1.33301 -0.61524,-0.59815 -1.84571,-0.85449 -1.76025,-0.37598 -2.61474,-1.31592 -0.8374,-0.93994 -0.8374,-2.15332 0,-1.02539 0.54687,-1.74317 0.56397,-0.73486 1.46973,-1.11084 0.92285,-0.37597 1.98242,-0.37597 0.58105,0 1.23047,0.11963 0.6665,0.11962 1.16211,0.34179 0.23926,0.11963 0.23926,0.29053 0,0.10254 -0.0513,0.23926 l -0.15381,0.46142 z"
         style="font-size:17.5px"
         id="path4272"
         inkscape:connector-curvature="0" />
      <path
         d="m 261.91802,151.7177 q 0,0.42724 -0.42724,0.42724 l -3.40088,0 0,10.23682 q 0,0.42725 -0.42725,0.42725 l -0.59814,0 q -0.42725,0 -0.42725,-0.42725 l 0,-10.23682 -3.40088,0 q -0.41015,0 -0.41015,-0.42724 l 0,-0.44434 q 0,-0.42724 0.42724,-0.42724 l 8.23731,0 q 0.42724,0 0.42724,0.42724 l 0,0.44434 z"
         style="font-size:17.5px"
         id="path4274"
         inkscape:connector-curvature="0" />
      <path
         d="m 269.21539,151.27336 q 0,-0.42724 0.42724,-0.42724 l 0.59815,0 q 0.42724,0 0.42724,0.42724 l 0,7.89551 q 0,3.81103 -3.45215,3.81103 -3.46923,0 -3.46923,-3.81103 l 0,-7.89551 q 0,-0.42724 0.42724,-0.42724 l 0.59815,0 q 0.42724,0 0.42724,0.42724 l 0,7.89551 q 0,1.40137 0.46143,1.96533 0.46142,0.54688 1.55517,0.54688 1.09375,0 1.53809,-0.54688 0.46143,-0.56396 0.46143,-1.96533 l 0,-7.89551 z"
         style="font-size:17.5px"
         id="path4276"
         inkscape:connector-curvature="0" />
      <path
         d="m 279.14458,161.45891 q -0.17089,0.71777 -0.75195,1.12793 -0.56396,0.39306 -1.33301,0.39306 -0.76904,0 -1.35009,-0.39306 -0.56397,-0.39307 -0.75196,-1.12793 l -2.52929,-10.13428 q -0.0171,-0.0513 -0.0171,-0.13672 0,-0.15381 0.10254,-0.23926 0.10253,-0.10253 0.29052,-0.10253 l 0.59815,0 q 0.41015,0 0.47851,0.37597 l 2.51221,9.99756 q 0.0513,0.22217 0.23926,0.3418 0.18799,0.11963 0.42724,0.11963 0.23926,0 0.42725,-0.11963 0.18799,-0.11963 0.23926,-0.3418 l 2.49511,-9.99756 q 0.10254,-0.37597 0.47852,-0.37597 l 0.61523,0 q 0.37598,0 0.37598,0.3247 0,0.10254 -0.0171,0.15381 l -2.5293,10.13428 z"
         style="font-size:17.5px"
         id="path4278"
         inkscape:connector-curvature="0" />
      <path
         d="m 290.95367,162.46721 q 0,0.42724 -0.46143,0.42724 l -0.27344,0 q -0.71777,0 -1.0083,-0.61523 l -2.30713,-4.61426 -2.30713,4.61426 q -0.29052,0.61523 -1.0083,0.61523 l -0.27343,0 q -0.46143,0 -0.46143,-0.42724 l -0.3418,-11.17676 q 0,-0.18799 0.11963,-0.30762 0.13672,-0.13671 0.32471,-0.13671 l 0.58105,0 q 0.18799,0 0.29053,0.11962 0.11963,0.11963 0.13672,0.32471 l 0.30762,8.78418 1.89697,-3.79394 q 0.13672,-0.30762 0.49561,-0.30762 l 0.47851,0 q 0.35889,0 0.49561,0.30762 l 1.89697,3.79394 0.30762,-8.78418 q 0.0171,-0.20508 0.11963,-0.32471 0.11962,-0.11962 0.30761,-0.11962 l 0.58106,0 q 0.18799,0 0.30761,0.13671 0.13672,0.11963 0.13672,0.30762 l -0.34179,11.17676 z"
         style="font-size:17.5px"
         id="path4280"
         inkscape:connector-curvature="0" />
      <path
         d="m 298.54156,156.14397 q -0.18799,0.37597 -0.64942,0.56396 0.20508,0.0684 0.37598,0.22217 0.18799,0.15381 0.27344,0.32471 l 2.42676,5.0415 q 0.0513,0.11963 0.0513,0.22217 0,0.29053 -0.35888,0.29053 l -0.52979,0 q -0.35888,0 -0.51269,-0.30762 l -2.3584,-4.73389 q -0.25635,-0.51269 -0.5127,-0.51269 -0.27343,0 -0.51269,0.51269 l -2.37549,4.73389 q -0.15381,0.30762 -0.49561,0.30762 l -0.52978,0 q -0.1709,0 -0.27344,-0.0684 -0.10254,-0.0854 -0.10254,-0.22217 0,-0.10254 0.0513,-0.22217 l 2.44385,-5.0415 q 0.0854,-0.1709 0.25635,-0.32471 0.1709,-0.15381 0.37597,-0.22217 -0.47851,-0.20508 -0.63232,-0.56396 l -2.32422,-4.80225 q -0.0513,-0.13672 -0.0513,-0.22217 0,-0.27343 0.37598,-0.27343 l 0.52978,0 q 0.35889,0 0.49561,0.30761 l 2.25586,4.49463 q 0.23926,0.49561 0.51269,0.49561 0.27344,0 0.5127,-0.49561 l 2.23877,-4.49463 q 0.13672,-0.30761 0.51269,-0.30761 l 0.52979,0 q 0.37598,0 0.37598,0.27343 0,0.10254 -0.0684,0.22217 l -2.30713,4.80225 z"
         style="font-size:17.5px"
         id="path4282"
         inkscape:connector-curvature="0" />
      <path
         d="m 310.7608,150.84612 q 0.37597,0 0.37597,0.27343 0,0.10254 -0.0684,0.22217 l -2.47802,4.97315 q -0.41016,0.85449 -1.28174,1.11083 l 0,4.95606 q 0,0.42725 -0.42725,0.42725 l -0.59814,0 q -0.42725,0 -0.42725,-0.42725 l 0,-4.95606 q -0.87158,-0.25634 -1.28174,-1.11083 l -2.47803,-4.97315 q -0.0684,-0.11963 -0.0684,-0.22217 0,-0.27343 0.37597,-0.27343 l 0.63233,0 q 0.35888,0 0.4956,0.30761 l 2.32422,4.64844 q 0.27344,0.5127 0.73486,0.5127 0.47852,0 0.71778,-0.5127 l 2.32422,-4.64844 q 0.13671,-0.30761 0.51269,-0.30761 l 0.61524,0 z"
         style="font-size:17.5px"
         id="path4284"
         inkscape:connector-curvature="0" />
      <path
         d="m 314.86236,159.10051 q -0.70069,0.70068 -0.78613,2.39258 l 5.72509,0 q 0.42725,0 0.42725,0.42724 l 0,0.46143 q 0,0.42725 -0.42725,0.42725 l -6.75049,0 q -0.42724,0 -0.42724,-0.42725 l 0,-0.5127 q 0,-1.11084 0.32471,-2.03369 0.34179,-0.92285 0.97412,-1.55517 l 4.08447,-4.08448 q 0.32471,-0.3247 0.51269,-0.85449 0.20508,-0.52978 0.23926,-1.19629 l -5.17822,0 q -0.42725,0 -0.42725,-0.42724 l 0,-0.44434 q 0,-0.42724 0.42725,-0.42724 l 6.2207,0 q 0.42725,0 0.42725,0.42724 l 0,0.5127 q 0,0.93994 -0.3418,1.77734 -0.3247,0.8374 -0.95703,1.46973 l -4.06738,4.06738 z"
         style="font-size:17.5px"
         id="path4286"
         inkscape:connector-curvature="0" />
      <path
         d="m 70.392143,175.93401 q 0.974121,0 1.743164,0.4956 0.769043,0.47852 1.213379,1.48682 0.444336,1.0083 0.444336,2.49511 0,1.48682 -0.444336,2.49512 -0.444336,1.0083 -1.213379,1.50391 -0.769043,0.47851 -1.743164,0.47851 -0.974121,0 -1.777344,-0.4956 -0.786132,-0.49561 -1.264648,-1.50391 -0.478516,-1.0083 -0.478516,-2.47803 0,-1.46972 0.478516,-2.47802 0.478516,-1.0083 1.264648,-1.50391 0.803223,-0.4956 1.777344,-0.4956 z m -0.05127,7.63916 q 0.905761,0 1.452636,-0.83741 0.546875,-0.8374 0.546875,-2.32422 0,-1.48681 -0.546875,-2.32421 -0.546875,-0.83741 -1.452636,-0.83741 -0.905762,0 -1.469727,0.83741 -0.546875,0.8374 -0.546875,2.32421 0,1.48682 0.546875,2.32422 0.563965,0.83741 1.469727,0.83741 z"
         style="font-size:17.5px"
         id="path4288"
         inkscape:connector-curvature="0" />
      <path
         d="m 80.184624,172.55022 q 1.555175,0 2.495117,1.12793 0.957031,1.12793 0.957031,3.1958 l 0,3.65722 q 0,2.06787 -0.957031,3.1958 -0.939942,1.12793 -2.495117,1.12793 -1.555176,0 -2.512207,-1.11084 -0.957032,-1.12793 -0.957032,-3.21289 l 0,-3.65722 q 0,-2.08496 0.957032,-3.1958 0.957031,-1.12793 2.512207,-1.12793 z m 0,11.00586 q 0.854492,0 1.418457,-0.80323 0.581054,-0.82031 0.581054,-2.22168 l 0,-3.65722 q 0,-1.40137 -0.581054,-2.20459 -0.563965,-0.82032 -1.418457,-0.82032 -0.871582,0 -1.452637,0.82032 -0.563965,0.82031 -0.563965,2.20459 l 0,3.65722 q 0,1.38428 0.563965,2.20459 0.581055,0.82032 1.452637,0.82032 z"
         style="font-size:17.5px"
         id="path4290"
         inkscape:connector-curvature="0" />
      <path
         d="m 90.028374,172.55022 q 1.213379,0 2.10205,0.75195 0.905762,0.73486 1.384278,2.13623 0.478515,1.38428 0.478515,3.26416 0,1.87988 -0.478515,3.28125 -0.478516,1.38428 -1.384278,2.13623 -0.888671,0.73486 -2.10205,0.73486 -1.213379,0 -2.119141,-0.73486 -0.905762,-0.75195 -1.384277,-2.13623 -0.478516,-1.40137 -0.478516,-3.28125 0,-1.87988 0.478516,-3.26416 0.478515,-1.40137 1.384277,-2.13623 0.905762,-0.75195 2.119141,-0.75195 z m 0,1.29882 q -1.16211,0 -1.845703,1.31592 -0.683594,1.29883 -0.683594,3.5376 0,0.70068 0.08545,1.46973 l 4.511719,-4.51172 q -0.324707,-0.87158 -0.854492,-1.33301 -0.529786,-0.47852 -1.213379,-0.47852 z m 0,9.68995 q 1.162109,0 1.828613,-1.29883 0.683594,-1.29883 0.683594,-3.5376 0,-0.71777 -0.08545,-1.48682 l -4.494629,4.49463 q 0.324707,0.88867 0.854492,1.36719 0.529785,0.46143 1.213379,0.46143 z"
         style="font-size:17.5px"
         id="path4292"
         inkscape:connector-curvature="0" />
      <path
         d="m 101.30767,178.54875 q 1.1792,0.64942 1.8457,1.40137 0.66651,0.73486 0.66651,1.8457 0,1.46973 -1.09375,2.27295 -1.09375,0.78613 -2.854006,0.78613 -1.059571,0 -1.965332,-0.35888 -0.905762,-0.37598 -1.452637,-1.04248 -0.529785,-0.6836 -0.529785,-1.55518 0,-1.82861 2.648926,-3.31543 -1.059571,-0.54687 -1.657715,-1.26465 -0.598145,-0.73486 -0.598145,-1.87988 0,-0.85449 0.461426,-1.50391 0.461426,-0.6665 1.264648,-1.02539 0.820313,-0.35888 1.828614,-0.35888 1.008296,0 1.811526,0.35888 0.82031,0.3418 1.28174,0.97412 0.46142,0.61524 0.46142,1.43555 0,1.82861 -2.11914,3.22998 z m -3.537597,-3.09326 q 0,1.36719 2.443847,2.51221 0.8374,-0.56397 1.28174,-1.28174 0.46142,-0.71777 0.46142,-1.28174 0,-0.64941 -0.59814,-1.09375 -0.59814,-0.46143 -1.486816,-0.46143 -0.905762,0 -1.503907,0.46143 -0.598144,0.44434 -0.598144,1.14502 z m 2.102051,8.0835 q 1.059566,0 1.777346,-0.44434 0.71777,-0.46143 0.71777,-1.33301 0,-0.85449 -0.71777,-1.46972 -0.71778,-0.63233 -1.965335,-1.1792 -1.110839,0.63232 -1.708984,1.28173 -0.598144,0.63233 -0.598144,1.36719 0,0.8374 0.700683,1.31592 0.700684,0.46143 1.794434,0.46143 z"
         style="font-size:17.5px"
         id="path4294"
         inkscape:connector-curvature="0" />
      <path
         d="m 119.85015,171.69572 q 0.42725,0 0.42725,0.42725 l 0,1.12793 q 0,0.42725 -0.42725,0.42725 l -1.11084,0 q -0.42724,0 -0.42724,-0.42725 l 0,-1.12793 q 0,-0.42725 0.42724,-0.42725 l 1.11084,0 z m 2.73438,11.67237 q 0.42724,0 0.42724,0.42724 l 0,0.46143 q 0,0.42725 -0.42724,0.42725 l -6.0669,0 q -0.42724,0 -0.42724,-0.42725 l 0,-0.46143 q 0,-0.42724 0.42724,-0.42724 l 2.30713,0 0,-5.93018 -1.74316,0 q -0.42725,0 -0.42725,-0.42724 l 0,-0.44434 q 0,-0.42725 0.42725,-0.42725 l 2.76855,0 q 0.42725,0 0.42725,0.42725 l 0,6.80176 2.30713,0 z"
         style="font-size:17.5px"
         id="path4296"
         inkscape:connector-curvature="0" />
      <path
         d="m 132.25738,172.72112 q 0.42724,0 0.42724,0.42724 l 0,0.44434 q 0,0.42724 -0.42724,0.42724 l -2.13623,0 0,9.34815 2.30713,0 q 0.42724,0 0.42724,0.42724 l 0,0.46143 q 0,0.42725 -0.42724,0.42725 l -6.0669,0 q -0.42724,0 -0.42724,-0.42725 l 0,-0.46143 q 0,-0.42724 0.42724,-0.42724 l 2.30713,0 0,-9.34815 -2.13623,0 q -0.42725,0 -0.42725,-0.42724 l 0,-0.44434 q 0,-0.42724 0.42725,-0.42724 l 5.7251,0 z"
         style="font-size:17.5px"
         id="path4298"
         inkscape:connector-curvature="0" />
      <path
         d="m 142.76763,184.15422 q 0.0342,0.0684 0.0342,0.18799 0,0.27344 -0.32471,0.3418 -0.70068,0.17089 -1.5039,0.17089 -1.45264,0 -2.13623,-0.64941 -0.66651,-0.6665 -0.66651,-2.08496 l 0,-8.95508 -1.91406,0 q -0.42725,0 -0.42725,-0.42725 l 0,-0.44433 q 0,-0.42725 0.42725,-0.42725 l 2.93945,0 q 0.42725,0 0.42725,0.42725 l 0,9.82666 q 0,0.76904 0.29053,1.09375 0.30761,0.30762 1.05957,0.32471 0.61523,0 1.11084,-0.11963 0.0513,-0.0171 0.13672,-0.0171 0.27343,0 0.41015,0.30761 l 0.13672,0.44434 z"
         style="font-size:17.5px"
         id="path4300"
         inkscape:connector-curvature="0" />
      <path
         d="m 153.20953,183.36809 q 0.42724,0 0.42724,0.42724 l 0,0.46143 q 0,0.42725 -0.42724,0.42725 l -7.16065,0 q -0.42724,0 -0.42724,-0.42725 l 0,-11.1084 q 0,-0.42724 0.42724,-0.42724 l 0.59815,0 q 0.42724,0 0.42724,0.42724 l 0,10.21973 6.13526,0 z"
         style="font-size:17.5px"
         id="path4302"
         inkscape:connector-curvature="0" />
      <path
         d="m 161.95953,183.36809 q 0.42724,0 0.42724,0.42724 l 0,0.46143 q 0,0.42725 -0.42724,0.42725 l -6.0669,0 q -0.42724,0 -0.42724,-0.42725 l 0,-0.46143 q 0,-0.42724 0.42724,-0.42724 l 2.85401,0 0,-7.5708 -2.85401,0 q -0.42724,0 -0.42724,-0.42725 l 0,-0.46142 q 0,-0.42725 0.42724,-0.42725 1.28174,0 1.99951,-0.30762 0.71778,-0.32471 1.05957,-1.11084 0.15381,-0.34179 0.49561,-0.34179 l 0.32471,0 q 0.42724,0 0.42724,0.42724 l 0,10.21973 1.76026,0 z"
         style="font-size:17.5px"
         id="path4304"
         inkscape:connector-curvature="0" />
      <path
         d="m 179.3399,177.69426 q 0,0.78613 -0.22217,1.28174 -0.22217,0.4956 -0.90576,0.82031 0.68359,0.30762 0.90576,0.82031 0.22217,0.49561 0.22217,1.26465 l 0,3.0249 q 0,0.82032 0.30761,1.16211 0.30762,0.35889 1.05957,0.35889 l 1.38428,0 q 0.42725,0 0.42725,0.42725 l 0,0.44433 q 0,0.42725 -0.42725,0.42725 l -1.38428,0 q -1.5039,0 -2.17041,-0.64942 -0.64941,-0.64941 -0.64941,-2.17041 l 0,-3.0249 q 0,-0.76904 -0.30762,-1.09375 -0.30761,-0.3418 -1.05957,-0.3418 l -1.36718,0 q -0.42725,0 -0.42725,-0.42724 l 0,-0.44434 q 0,-0.42724 0.42725,-0.42724 l 1.36718,0 q 0.75196,0 1.05957,-0.3418 0.30762,-0.3418 0.30762,-1.11084 l 0,-3.00781 q 0,-1.521 0.64941,-2.17041 0.66651,-0.64942 2.17041,-0.64942 l 1.38428,0 q 0.42725,0 0.42725,0.42725 l 0,0.44433 q 0,0.42725 -0.42725,0.42725 l -1.38428,0 q -0.75195,0 -1.05957,0.35889 -0.30761,0.35888 -0.30761,1.16211 l 0,3.00781 z"
         style="font-size:17.5px"
         id="path4306"
         inkscape:connector-curvature="0" />
      <path
         d="m 187.73101,174.68645 q 0,-0.80323 -0.30762,-1.16211 -0.30761,-0.35889 -1.05957,-0.35889 l -1.38427,0 q -0.42725,0 -0.42725,-0.42725 l 0,-0.44433 q 0,-0.42725 0.42725,-0.42725 l 1.38427,0 q 1.50391,0 2.15332,0.64942 0.66651,0.64941 0.66651,2.17041 l 0,3.00781 q 0,0.76904 0.30761,1.11084 0.30762,0.3418 1.05957,0.3418 l 1.36719,0 q 0.42725,0 0.42725,0.42724 l 0,0.44434 q 0,0.42724 -0.42725,0.42724 l -1.36719,0 q -0.75195,0 -1.05957,0.3418 -0.30761,0.32471 -0.30761,1.09375 l 0,3.0249 q 0,1.521 -0.64942,2.17041 -0.64941,0.64942 -2.17041,0.64942 l -1.38427,0 q -0.42725,0 -0.42725,-0.42725 l 0,-0.44433 q 0,-0.42725 0.42725,-0.42725 l 1.38427,0 q 0.75196,0 1.05957,-0.35889 0.30762,-0.34179 0.30762,-1.16211 l 0,-3.0249 q 0,-0.76904 0.22217,-1.26465 0.22217,-0.51269 0.90576,-0.82031 -0.68359,-0.32471 -0.90576,-0.82031 -0.22217,-0.49561 -0.22217,-1.28174 l 0,-3.00781 z"
         style="font-size:17.5px"
         id="path4308"
         inkscape:connector-curvature="0" />
      <path
         d="m 211.26373,186.42717 q 0.42724,0 0.42724,0.42725 l 0,0.44433 q 0,0.42725 -0.42724,0.42725 l -5.04151,0 q -0.42724,0 -0.42724,-0.42725 l 0,-15.00488 q 0,-0.42725 0.42724,-0.42725 l 5.04151,0 q 0.42724,0 0.42724,0.42725 l 0,0.44433 q 0,0.42725 -0.42724,0.42725 l -4.01612,0 0,13.26172 4.01612,0 z"
         style="font-size:17.5px"
         id="path4310"
         inkscape:connector-curvature="0" />
      <path
         d="m 219.91119,171.86662 q 0.42724,0 0.42724,0.42725 l 0,15.00488 q 0,0.42725 -0.42724,0.42725 l -5.04151,0 q -0.42724,0 -0.42724,-0.42725 l 0,-0.44433 q 0,-0.42725 0.42724,-0.42725 l 4.01612,0 0,-13.26172 -4.01612,0 q -0.42724,0 -0.42724,-0.42725 l 0,-0.44433 q 0,-0.42725 0.42724,-0.42725 l 5.04151,0 z"
         style="font-size:17.5px"
         id="path4312"
         inkscape:connector-curvature="0" />
      <path
         d="m 238.2315,183.64153 q 2.10205,0 3.22998,0.68359 1.12793,0.6665 1.12793,1.8457 -0.0171,1.24756 -1.16211,1.99951 -1.14502,0.75196 -3.1958,0.75196 -2.22168,0 -3.41797,-0.59815 -1.1792,-0.59814 -1.1792,-1.70898 0,-0.63233 0.37598,-1.21338 0.37597,-0.58106 0.99121,-0.90576 -0.39307,-0.22217 -0.58106,-0.54688 -0.17089,-0.3247 -0.17089,-0.78613 0,-0.52979 0.34179,-1.0083 0.35889,-0.49561 0.88867,-0.73486 -0.59814,-0.41016 -0.92285,-1.04248 -0.30761,-0.63233 -0.30761,-1.38428 0,-0.85449 0.42724,-1.53809 0.44434,-0.70068 1.23047,-1.09375 0.78613,-0.39306 1.77734,-0.39306 0.58106,0 1.21338,0.17089 l 2.58057,0 q 0.42725,0 0.42725,0.42725 l 0,0.27344 q 0,0.42724 -0.42725,0.42724 l -0.92285,0 q 0.56396,0.78614 0.56396,1.76026 0,0.87158 -0.44433,1.57226 -0.42725,0.6836 -1.21338,1.09375 -0.76905,0.39307 -1.77735,0.39307 -0.64941,0 -1.26464,-0.18799 -0.3418,0.15381 -0.52979,0.41016 -0.18799,0.25635 -0.18799,0.52978 0,0.44434 0.56397,0.63233 0.58105,0.1709 1.96533,0.1709 z m -0.54688,-6.37452 q -0.85449,0 -1.41845,0.5127 -0.56397,0.4956 -0.56397,1.24756 0,0.75195 0.56397,1.24756 0.58105,0.4956 1.41845,0.4956 0.83741,0 1.40137,-0.4956 0.58106,-0.49561 0.58106,-1.24756 0,-0.75196 -0.56397,-1.24756 -0.56396,-0.5127 -1.41846,-0.5127 z m 0.37598,10.33936 q 1.45264,0 2.25586,-0.41016 0.82031,-0.41015 0.82031,-1.02539 -0.0171,-0.56396 -0.80322,-0.88867 -0.76904,-0.32471 -2.27295,-0.32471 -1.24756,0 -1.96533,-0.11963 -0.52979,0.20508 -0.82031,0.56397 -0.29053,0.35889 -0.29053,0.78613 0.0171,0.6836 0.80322,1.04248 0.80322,0.37598 2.27295,0.37598 z"
         style="font-size:17.5px"
         id="path4314"
         inkscape:connector-curvature="0" />
      <path
         d="m 244.72564,183.65862 q 0.10254,-0.39307 0.51269,-0.32471 0.64942,0.11963 1.14502,0.11963 1.21338,0 2.10205,-0.88867 0.90577,-0.88868 1.11084,-3.042 -1.46972,0.46143 -2.40966,0.46143 -1.0083,0 -1.82862,-0.42725 -0.82031,-0.44433 -1.29882,-1.24756 -0.47852,-0.82031 -0.47852,-1.89697 0,-1.19629 0.44434,-2.08496 0.46142,-0.88867 1.28173,-1.36719 0.82032,-0.47851 1.91407,-0.47851 1.87988,0 2.90527,1.43554 1.02539,1.41846 1.02539,4.30664 0,2.06788 -0.58105,3.55469 -0.58106,1.46973 -1.64063,2.23877 -1.05957,0.76904 -2.51221,0.76904 -0.59814,0 -1.45263,-0.13671 -0.20508,-0.0342 -0.29053,-0.1709 -0.0855,-0.13672 -0.0513,-0.3418 l 0.10254,-0.47851 z m 2.44385,-9.84375 q -0.92285,0 -1.521,0.68359 -0.59814,0.6665 -0.59814,1.91406 0,1.02539 0.59814,1.64063 0.59815,0.59814 1.60645,0.59814 1.29882,0 2.42675,-0.58105 0,-2.20459 -0.71777,-3.22998 -0.70068,-1.02539 -1.79443,-1.02539 z"
         style="font-size:17.5px"
         id="path4316"
         inkscape:connector-curvature="0" />
      <path
         d="m 260.82427,188.52922 q 0,0.42725 -0.42724,0.42725 l -0.59815,0 q -0.42724,0 -0.42724,-0.42725 l 0,-3.81103 q -0.6836,0.13671 -1.31592,0.13671 -1.79444,0 -2.97364,-1.07666 -1.17919,-1.09375 -1.17919,-3.3667 0,-2.27294 1.17919,-3.3496 1.1792,-1.09375 2.97364,-1.09375 1.31592,0 2.54638,0.4956 0.22217,0.10254 0.22217,0.35889 l 0,11.70654 z M 259.37164,177.455 q -0.66651,-0.15381 -1.31592,-0.15381 -1.23047,0 -1.96533,0.73487 -0.71778,0.73486 -0.71778,2.37548 0,1.72608 0.78613,2.46094 0.78614,0.71778 2.06788,0.71778 0.4956,0 1.14502,-0.11963 l 0,-6.01563 z"
         style="font-size:17.5px"
         id="path4318"
         inkscape:connector-curvature="0" />
      <path
         d="m 270.68511,183.77824 q 0.0513,0.10254 0.0513,0.20508 0,0.25635 -0.27344,0.35889 -1.19629,0.51269 -2.35839,0.51269 -1.12793,0 -2.11915,-0.51269 -0.97412,-0.5127 -1.60644,-1.72608 -0.63232,-1.23046 -0.63232,-3.22998 l 0,-1.36718 q 0,-1.99952 0.63232,-3.21289 0.63232,-1.23047 1.60644,-1.74317 0.99122,-0.51269 2.11915,-0.51269 1.14502,0 2.35839,0.51269 0.27344,0.10254 0.27344,0.35889 0,0.10254 -0.0513,0.20508 l -0.1709,0.41015 q -0.10254,0.27344 -0.35888,0.27344 -0.11963,0 -0.18799,-0.0342 -1.07666,-0.39307 -1.89697,-0.39307 -1.21338,0 -2.0337,0.92286 -0.82031,0.92285 -0.82031,3.21289 l 0,1.36718 q 0,2.29004 0.82031,3.21289 0.82032,0.92286 2.0337,0.92286 0.82031,0 1.89697,-0.39307 0.0684,-0.0342 0.18799,-0.0342 0.25634,0 0.35888,0.27344 l 0.1709,0.41015 z"
         style="font-size:17.5px"
         id="path4320"
         inkscape:connector-curvature="0" />
      <path
         d="m 280.25542,177.86516 q 0.42725,0 0.42725,0.42724 l 0,5.52002 q 0,0.35889 -0.32471,0.5127 -1.23047,0.52978 -2.40966,0.52978 -1.12793,0 -2.11915,-0.51269 -0.97412,-0.5127 -1.60644,-1.72608 -0.63232,-1.23046 -0.63232,-3.22998 l 0,-1.36718 q 0,-1.99952 0.63232,-3.21289 0.63232,-1.23047 1.60644,-1.74317 0.99122,-0.51269 2.11915,-0.51269 1.14502,0 2.35839,0.51269 0.27344,0.10254 0.27344,0.35889 0,0.10254 -0.0513,0.20508 l -0.1709,0.41015 q -0.10254,0.27344 -0.35888,0.27344 -0.11963,0 -0.18799,-0.0342 -1.07666,-0.39307 -1.89697,-0.39307 -1.21338,0 -2.0337,0.92286 -0.82031,0.92285 -0.82031,3.21289 l 0,1.36718 q 0,2.29004 0.82031,3.21289 0.82032,0.92286 2.0337,0.92286 0.58105,0 1.31591,-0.20508 l 0,-4.13574 -1.23046,0 q -0.42725,0 -0.42725,-0.42725 l 0,-0.44434 q 0,-0.44433 0.42725,-0.44433 l 2.25585,0 z"
         style="font-size:17.5px"
         id="path4322"
         inkscape:connector-curvature="0" />
      <path
         d="m 291.31255,187.5551 q 0.0513,0.10254 0.0513,0.20508 0,0.23926 -0.29052,0.34179 -0.93995,0.3418 -1.79444,0.3418 -1.36719,0 -2.23877,-0.87158 -0.87158,-0.87158 -0.87158,-2.78565 -1.26465,-0.25634 -1.99951,-1.35009 -0.73486,-1.09375 -0.73486,-2.90528 l 0,-3.65722 q 0,-2.08496 0.95703,-3.1958 0.95703,-1.12793 2.5122,-1.12793 1.55518,0 2.49512,1.12793 0.95703,1.12793 0.95703,3.1958 l 0,3.65722 q 0,1.79444 -0.73486,2.90528 -0.73486,1.09375 -1.98242,1.35009 0,1.29883 0.41015,1.81153 0.42725,0.51269 1.23047,0.51269 0.63233,0 1.28174,-0.23925 0.0684,-0.0342 0.20508,-0.0342 0.23926,0 0.35889,0.27343 l 0.18798,0.44434 z m -6.42578,-7.02393 q 0,1.38428 0.56397,2.20459 0.58105,0.82032 1.45263,0.82032 0.8545,0 1.41846,-0.80323 0.58106,-0.82031 0.58106,-2.22168 l 0,-3.65722 q 0,-1.40137 -0.58106,-2.20459 -0.56396,-0.82032 -1.41846,-0.82032 -0.87158,0 -1.45263,0.82032 -0.56397,0.82031 -0.56397,2.20459 l 0,3.65722 z"
         style="font-size:17.5px"
         id="path4324"
         inkscape:connector-curvature="0" />
      <path
         d="m 310.47027,179.42033 q 0.39306,0 0.39306,0.44434 0,1.1792 -0.56396,1.81152 -0.54688,0.61524 -1.58936,0.61524 -0.56396,0 -1.23046,-0.35889 -0.66651,-0.37598 -1.3501,-1.05957 -1.04248,-1.04248 -1.65772,-1.04248 -0.39306,0 -0.61523,0.30762 -0.20508,0.29052 -0.20508,0.87158 0,0.37598 -0.46143,0.37598 l -0.47851,0 q -0.41016,0 -0.41016,-0.44434 0,-1.16211 0.56397,-1.79443 0.56396,-0.63233 1.60644,-0.63233 0.54688,0 1.21338,0.37598 0.6836,0.37598 1.36719,1.05957 1.04248,1.04248 1.65771,1.04248 0.39307,0 0.59815,-0.30762 0.20508,-0.30761 0.20508,-0.88867 0,-0.1709 0.11963,-0.27344 0.11962,-0.10254 0.34179,-0.10254 l 0.49561,0 z"
         style="font-size:17.5px"
         id="path4326"
         inkscape:connector-curvature="0" />
      <path
         d="m 312.40142,180.18938 q 0,-0.44434 0.42725,-0.44434 l 7.229,0 q 0.42725,0 0.42725,0.42725 l 0,0.46142 q 0,0.42725 -0.42725,0.42725 l -7.229,0 q -0.42725,0 -0.42725,-0.42725 l 0,-0.44433 z"
         style="font-size:17.5px"
         id="path4328"
         inkscape:connector-curvature="0" />
      <path
         d="m 329.88433,179.74504 q 0.42725,0 0.42725,0.42725 l 0,0.46142 q 0,0.42725 -0.42725,0.42725 l -2.88818,0 0,3.1958 q 0,0.42725 -0.42725,0.42725 l -0.59814,0 q -0.42725,0 -0.42725,-0.42725 l 0,-3.1958 -2.88818,0 q -0.42725,0 -0.42725,-0.42725 l 0,-0.44433 q 0,-0.44434 0.42725,-0.44434 l 2.88818,0 0,-3.17871 q 0,-0.42725 0.42725,-0.42725 l 0.59814,0 q 0.42725,0 0.42725,0.42725 l 0,3.17871 2.88818,0 z"
         style="font-size:17.5px"
         id="path4330"
         inkscape:connector-curvature="0" />
      <path
         d="m 332.07183,178.22404 q 0,-0.44433 0.42725,-0.44433 l 7.229,0 q 0.42725,0 0.42725,0.42724 l 0,0.46143 q 0,0.42725 -0.42725,0.42725 l -7.229,0 q -0.42725,0 -0.42725,-0.42725 l 0,-0.44434 z m 0,3.93067 q 0,-0.44434 0.42725,-0.44434 l 7.229,0 q 0.42725,0 0.42725,0.42725 l 0,0.46142 q 0,0.42725 -0.42725,0.42725 l -7.229,0 q -0.42725,0 -0.42725,-0.42725 l 0,-0.44433 z"
         style="font-size:17.5px"
         id="path4332"
         inkscape:connector-curvature="0" />
      <path
         d="m 348.90533,179.24944 q 0.3247,0.23925 0.51269,0.54687 0.18799,0.30762 0.18799,0.61523 0,0.30762 -0.18799,0.61524 -0.18799,0.30762 -0.51269,0.54687 l -5.53711,4.16993 q -0.11963,0.10254 -0.29053,0.10254 -0.20508,0 -0.32471,-0.1709 l -0.3247,-0.39307 q -0.11963,-0.1709 -0.11963,-0.29053 0,-0.15381 0.18799,-0.30761 l 5.67382,-4.27247 -5.67382,-4.27246 q -0.18799,-0.1538 -0.18799,-0.30761 0,-0.11963 0.11963,-0.29053 l 0.3247,-0.39307 q 0.11963,-0.1709 0.30762,-0.1709 0.1709,0 0.29053,0.10254 l 5.5542,4.16993 z"
         style="font-size:17.5px"
         id="path4334"
         inkscape:connector-curvature="0" />
    </g>
  </g>
</svg>
