<?xml version="1.0" encoding="UTF-8" standalone="no"?>
<!-- Created with Inkscape (http://www.inkscape.org/) -->

<svg
   xmlns:dc="http://purl.org/dc/elements/1.1/"
   xmlns:cc="http://creativecommons.org/ns#"
   xmlns:rdf="http://www.w3.org/1999/02/22-rdf-syntax-ns#"
   xmlns:svg="http://www.w3.org/2000/svg"
   xmlns="http://www.w3.org/2000/svg"
   xmlns:sodipodi="http://sodipodi.sourceforge.net/DTD/sodipodi-0.dtd"
   xmlns:inkscape="http://www.inkscape.org/namespaces/inkscape"
   width="71.9422mm"
   height="29.416082mm"
   viewBox="0 0 254.91331 104.23021"
   id="svg2"
   version="1.1"
   inkscape:version="0.91 r13725"
   sodipodi:docname="Monofur Nerd Font.svg">
  <defs
     id="defs4" />
  <sodipodi:namedview
     id="base"
     pagecolor="#ffffff"
     bordercolor="#666666"
     borderopacity="1.0"
     inkscape:pageopacity="0.0"
     inkscape:pageshadow="2"
     inkscape:zoom="0.7"
     inkscape:cx="-53.716522"
     inkscape:cy="-401.54017"
     inkscape:document-units="px"
     inkscape:current-layer="layer1"
     showgrid="false"
     inkscape:window-width="1861"
     inkscape:window-height="1056"
     inkscape:window-x="59"
     inkscape:window-y="24"
     inkscape:window-maximized="1" />
  <metadata
     id="metadata7">
    <rdf:RDF>
      <cc:Work
         rdf:about="">
        <dc:format>image/svg+xml</dc:format>
        <dc:type
           rdf:resource="http://purl.org/dc/dcmitype/StillImage" />
        <dc:title />
      </cc:Work>
    </rdf:RDF>
  </metadata>
  <g
     inkscape:label="Layer 1"
     inkscape:groupmode="layer"
     id="layer1"
     transform="translate(-63.716518,-83.734674)">
    <g
       style="font-style:normal;font-weight:normal;font-size:27.5px;line-height:125%;font-family:'Monofur Nerd Font';text-decoration: underline;text-decoration-line: underline;letter-spacing:0px;word-spacing:0px;fill:#ffffff;fill-opacity:1;stroke:none;stroke-width:1px;stroke-linecap:butt;stroke-linejoin:miter;stroke-opacity:1"
       id="text4136">
      <path
         d="m 75.747768,100.09717 q 0,0.83646 -0.870833,0.83646 -0.733333,0 -0.836458,-0.73333 l -1.478125,-11.091668 -1.970834,7.619792 q -0.20625,0.767708 -0.859375,0.767708 -0.653125,0 -0.859375,-0.767708 L 66.901935,89.108632 65.42381,100.2003 q -0.09167,0.73333 -0.836458,0.73333 -0.870834,0 -0.870834,-0.83646 0,-0.0688 0.01146,-0.148955 l 2.051041,-15.354166 q 0.103125,-0.847917 0.859375,-0.847917 0.653125,0 0.859375,0.733333 l 2.234375,8.708334 2.234375,-8.708334 q 0.20625,-0.733333 0.836459,-0.733333 0.779166,0 0.882291,0.847917 l 2.051042,15.354166 q 0.01146,0.08019 0.01146,0.148955 z"
         id="path4140"
         inkscape:connector-curvature="0" />
      <path
         d="m 89.497768,94.918007 q 0,2.486458 -1.764583,4.251042 -1.764583,1.764581 -4.251042,1.764581 -2.486458,0 -4.251041,-1.764581 -1.764584,-1.764584 -1.764584,-4.251042 0,-2.486458 1.764584,-4.251042 1.764583,-1.764583 4.251041,-1.764583 2.486459,0 4.251042,1.764583 1.764583,1.764584 1.764583,4.251042 z m -1.71875,0 q 0,-1.776042 -1.260416,-3.036458 -1.260417,-1.260417 -3.036459,-1.260417 -1.776041,0 -3.036458,1.260417 -1.260417,1.260416 -1.260417,3.036458 0,1.776042 1.260417,3.036458 1.260417,1.260417 3.036458,1.260417 1.776042,0 3.036459,-1.260417 1.260416,-1.260416 1.260416,-3.036458 z"
         id="path4142"
         inkscape:connector-curvature="0" />
      <path
         d="m 102.67485,100.07426 q 0,0.85937 -0.85937,0.85937 -0.85938,0 -0.85938,-0.85937 l 0,-6.015628 q 0,-1.420833 -1.008332,-2.429167 -1.008333,-1.008333 -2.429166,-1.008333 -1.420834,0 -2.429167,1.008333 -1.008333,1.008334 -1.008333,2.429167 l 0,6.015628 q 0,0.85937 -0.859375,0.85937 -0.859375,0 -0.859375,-0.85937 l 0,-10.312503 q 0,-0.859375 0.859375,-0.859375 0.870833,0 0.859375,1.317708 1.466666,-1.317708 3.4375,-1.317708 2.13125,0 3.643748,1.5125 1.5125,1.5125 1.5125,3.64375 l 0,6.015628 z"
         id="path4144"
         inkscape:connector-curvature="0" />
      <path
         d="m 116.99777,94.918007 q 0,2.486458 -1.76458,4.251042 -1.76459,1.764581 -4.25105,1.764581 -2.48645,0 -4.25104,-1.764581 -1.76458,-1.764584 -1.76458,-4.251042 0,-2.486458 1.76458,-4.251042 1.76459,-1.764583 4.25104,-1.764583 2.48646,0 4.25105,1.764583 1.76458,1.764584 1.76458,4.251042 z m -1.71875,0 q 0,-1.776042 -1.26042,-3.036458 -1.26041,-1.260417 -3.03646,-1.260417 -1.77604,0 -3.03645,1.260417 -1.26042,1.260416 -1.26042,3.036458 0,1.776042 1.26042,3.036458 1.26041,1.260417 3.03645,1.260417 1.77605,0 3.03646,-1.260417 1.26042,-1.260416 1.26042,-3.036458 z"
         id="path4146"
         inkscape:connector-curvature="0" />
      <path
         d="m 130.75923,86.335715 q 0,0.34375 -0.275,0.607292 -0.26354,0.252083 -0.61875,0.252083 -0.28646,-0.01146 -0.74479,-0.446875 -0.64167,-0.61875 -0.99688,-0.836458 -0.72187,-0.446875 -1.67292,-0.446875 -1.42083,0 -2.42916,1.008333 -1.00834,1.008334 -1.00834,2.429167 l 4.29688,0 q 0.85937,0 0.85937,0.859375 0,0.859375 -0.85937,0.859375 l -4.29688,0 0,9.453128 q 0,0.85937 -0.85937,0.85937 -0.85938,0 -0.85938,-0.85937 l 0,-9.453128 -1.71875,0 q -0.85937,0 -0.85937,-0.859375 0,-0.859375 0.85937,-0.859375 l 1.71875,0 q 0,-2.13125 1.5125,-3.64375 1.5125,-1.5125 3.64375,-1.5125 1.16875,0 2.31459,0.55 1.20312,0.572917 1.81041,1.5125 0.18334,0.286458 0.18334,0.527083 z"
         id="path4148"
         inkscape:connector-curvature="0" />
      <path
         d="m 143.92485,95.490924 q 0,2.257291 -1.59271,3.85 -1.5927,1.592706 -3.85,1.592706 -2.25729,0 -3.85,-1.592706 -1.5927,-1.592709 -1.5927,-3.85 l 0,-5.729167 q 0,-0.859375 0.85937,-0.859375 0.85938,0 0.85938,0.859375 l 0,5.729167 q 0,1.535416 1.08854,2.635416 1.1,1.088542 2.63541,1.088542 1.53542,0 2.62396,-1.088542 1.1,-1.1 1.1,-2.635416 l 0,-5.729167 q 0,-0.859375 0.85938,-0.859375 0.85937,0 0.85937,0.859375 l 0,5.729167 z"
         id="path4150"
         inkscape:connector-curvature="0" />
      <path
         d="m 158.25923,91.686757 q 0,0.34375 -0.275,0.607292 -0.26354,0.252083 -0.61875,0.252083 -0.32084,0 -0.63021,-0.332292 -1.58125,-1.592708 -3.35729,-1.592708 -1.77604,0 -3.03646,1.260417 -1.26042,1.260416 -1.26042,3.036458 l 0,5.156253 q 0,0.85937 -0.85937,0.85937 -0.85938,0 -0.85938,-0.85937 l 0,-10.312503 q 0,-0.859375 0.85938,-0.859375 0.65312,0 0.825,0.641667 0.0458,0.20625 0.0344,1.16875 1.76459,-1.810417 4.29688,-1.810417 1.30625,0 2.60104,0.595833 1.375,0.61875 2.0625,1.638542 0.21771,0.309375 0.21771,0.55 z"
         id="path4152"
         inkscape:connector-curvature="0" />
      <path
         d="m 184.62485,100.08572 q 0,0.85937 -0.90521,0.85937 -0.4927,0 -0.79062,-0.58437 l -6.34792,-12.226046 0,11.939586 q 0,0.85937 -0.85937,0.85937 -0.85938,0 -0.85938,-0.85937 l -0.0229,-15.480211 q 0,-0.859375 0.9052,-0.859375 0.49271,0 0.79063,0.584375 l 6.34792,12.226041 0,-11.939583 q 0,-0.859375 0.85937,-0.859375 0.85938,0 0.85938,0.859375 l 0.0229,15.480213 z"
         id="path4154"
         inkscape:connector-curvature="0" />
      <path
         d="m 199.50923,97.484674 q 0,0.217708 -0.1375,0.469791 -0.79063,1.375 -2.37188,2.188545 -1.50104,0.79062 -3.15104,0.79062 -2.57812,0 -4.44583,-1.70729 -1.93646,-1.764583 -1.93646,-4.308333 0,-2.555208 1.93646,-4.308333 1.86771,-1.707292 4.44583,-1.707292 0.93958,0 1.95938,0.332292 1.14583,0.378125 2.2802,1.203125 1.40938,1.03125 1.40938,1.959375 0,0.458333 -0.44688,0.698958 l -8.68541,4.663542 q 1.40937,1.455208 3.48333,1.455208 2.21146,0 3.58646,-1.535417 0.16042,-0.20625 0.48125,-0.630208 0.32083,-0.423958 0.69896,-0.423958 0.34375,0 0.61875,0.263541 0.275,0.252084 0.275,0.595834 z m -2.15417,-5.408334 q -1.39792,-1.455208 -3.50625,-1.455208 -1.85625,0 -3.23125,1.203125 -1.43229,1.260417 -1.43229,3.09375 0,0.733333 0.25208,1.397917 l 7.91771,-4.239584 z"
         id="path4156"
         inkscape:connector-curvature="0" />
      <path
         d="m 213.25923,91.686757 q 0,0.34375 -0.275,0.607292 -0.26354,0.252083 -0.61875,0.252083 -0.32084,0 -0.63021,-0.332292 -1.58125,-1.592708 -3.35729,-1.592708 -1.77604,0 -3.03646,1.260417 -1.26042,1.260416 -1.26042,3.036458 l 0,5.156253 q 0,0.85937 -0.85937,0.85937 -0.85938,0 -0.85938,-0.85937 l 0,-10.312503 q 0,-0.859375 0.85938,-0.859375 0.65312,0 0.825,0.641667 0.0458,0.20625 0.0344,1.16875 1.76459,-1.810417 4.29688,-1.810417 1.30625,0 2.60104,0.595833 1.375,0.61875 2.0625,1.638542 0.21771,0.309375 0.21771,0.55 z"
         id="path4158"
         inkscape:connector-curvature="0" />
      <path
         d="m 225.85194,100.07426 q 0,0.85937 -0.85938,0.85937 -0.63021,0 -0.79062,-0.55 -0.0687,-0.24062 -0.0687,-1.077081 -1.55834,1.627081 -3.72396,1.627081 -2.34896,0 -3.93021,-1.856248 -1.5125,-1.776042 -1.5125,-4.159375 0,-2.371875 1.5125,-4.159375 1.58125,-1.85625 3.93021,-1.85625 2.16562,0 3.72396,1.627083 l 0,-5.923958 q 0,-0.859375 0.85937,-0.859375 0.85938,0 0.85938,0.859375 l 0,15.468753 z m -1.71875,-5.156253 q 0.0114,-1.672917 -0.99688,-2.921875 -1.08854,-1.375 -2.72708,-1.375 -1.62709,0 -2.71563,1.375 -1.00833,1.260417 -1.00833,2.921875 0,1.672917 1.00833,2.921875 1.08854,1.375 2.71563,1.375 1.62708,0 2.72708,-1.375 1.00833,-1.248958 0.99688,-2.921875 z"
         id="path4160"
         inkscape:connector-curvature="0" />
      <path
         d="m 254.49777,92.339882 q 0,0.859375 -0.85938,0.859375 l -8.30729,0 0,6.875003 q 0,0.85937 -0.85937,0.85937 -0.85938,0 -0.85938,-0.85937 l 0,-15.480211 q 0,-0.847917 0.83646,-0.847917 l 9.18958,0 q 0.85938,0 0.85938,0.859375 0,0.859375 -0.85938,0.859375 l -8.30729,0 0,6.015625 8.30729,0 q 0.85938,0 0.85938,0.859375 z"
         id="path4162"
         inkscape:connector-curvature="0" />
      <path
         d="m 268.24777,94.918007 q 0,2.486458 -1.76458,4.251042 -1.76459,1.764581 -4.25105,1.764581 -2.48645,0 -4.25104,-1.764581 -1.76458,-1.764584 -1.76458,-4.251042 0,-2.486458 1.76458,-4.251042 1.76459,-1.764583 4.25104,-1.764583 2.48646,0 4.25105,1.764583 1.76458,1.764584 1.76458,4.251042 z m -1.71875,0 q 0,-1.776042 -1.26042,-3.036458 -1.26041,-1.260417 -3.03646,-1.260417 -1.77604,0 -3.03645,1.260417 -1.26042,1.260416 -1.26042,3.036458 0,1.776042 1.26042,3.036458 1.26041,1.260417 3.03645,1.260417 1.77605,0 3.03646,-1.260417 1.26042,-1.260416 1.26042,-3.036458 z"
         id="path4164"
         inkscape:connector-curvature="0" />
      <path
         d="m 281.42485,100.07426 q 0,0.85937 -0.85937,0.85937 -0.85938,0 -0.85938,-0.85937 l 0,-6.015628 q 0,-1.420833 -1.00833,-2.429167 -1.00833,-1.008333 -2.42917,-1.008333 -1.42083,0 -2.42916,1.008333 -1.00834,1.008334 -1.00834,2.429167 l 0,6.015628 q 0,0.85937 -0.85937,0.85937 -0.85938,0 -0.85938,-0.85937 l 0,-10.312503 q 0,-0.859375 0.85938,-0.859375 0.87083,0 0.85937,1.317708 1.46667,-1.317708 3.4375,-1.317708 2.13125,0 3.64375,1.5125 1.5125,1.5125 1.5125,3.64375 l 0,6.015628 z"
         id="path4166"
         inkscape:connector-curvature="0" />
      <path
         d="m 295.75923,98.344049 q 0,0.240625 -0.18334,0.527083 -0.60729,0.928125 -1.81041,1.512498 -1.14584,0.55 -2.31459,0.55 -2.13125,0 -3.64375,-1.512498 -1.5125,-1.5125 -1.5125,-3.64375 l 0,-5.15625 -1.71875,0 q -0.85937,0 -0.85937,-0.859375 0,-0.859375 0.85937,-0.859375 l 1.71875,0 0,-4.296875 q 0,-0.859375 0.85938,-0.859375 0.85937,0 0.85937,0.859375 l 0,4.296875 4.29688,0 q 0.85937,0 0.85937,0.859375 0,0.859375 -0.85937,0.859375 l -4.29688,0 0,5.15625 q 0,1.420833 1.00834,2.429167 1.00833,1.008333 2.42916,1.008333 0.9625,0 1.67292,-0.446875 0.34375,-0.217708 0.99688,-0.836458 0.45833,-0.446875 0.74479,-0.446875 0.34375,0 0.61875,0.263541 0.275,0.252084 0.275,0.595834 z"
         id="path4168"
         inkscape:connector-curvature="0" />
    </g>
    <g
       style="font-style:normal;font-weight:normal;font-size:27.5px;line-height:125%;font-family:'Monofur Nerd Font';letter-spacing:0px;word-spacing:0px;fill:#ffffff;fill-opacity:1;stroke:none;stroke-width:1px;stroke-linecap:butt;stroke-linejoin:miter;stroke-opacity:1"
       id="text4140">
      <path
         d="m 73.257945,140.38675 q 0,0.54687 -0.546875,0.54687 -0.561459,0 -0.546875,-0.76562 -1.079167,0.76562 -2.552084,0.76562 -1.348958,0 -2.413541,-0.67812 -1.232292,-0.7875 -1.232292,-2.05625 0,-1.26146 1.232292,-2.05625 1.064583,-0.67813 2.413541,-0.67813 1.472917,0 2.552084,0.76563 l 0,-0.21875 q 0,-0.32813 -0.226042,-0.64896 -0.678125,-0.99167 -2.326042,-0.99167 -0.947916,0 -1.873958,0.53959 -0.189583,0.10937 -0.328125,0.10937 -0.21875,0 -0.386458,-0.16771 -0.160417,-0.175 -0.160417,-0.40104 0,-0.53229 1.144792,-0.89687 0.889583,-0.27709 1.604166,-0.27709 1.341667,0 2.413542,0.67813 1.232292,0.7875 1.232292,2.05625 l 0,4.375 z m -1.09375,-2.1875 q 0,-0.51771 -0.495834,-0.95521 -0.415625,-0.36458 -0.984375,-0.53229 -0.495833,-0.15313 -1.071875,-0.15313 -1.691666,0 -2.355208,1.03542 -0.196875,0.30625 -0.196875,0.60521 0,0.29896 0.196875,0.60521 0.663542,1.03541 2.355208,1.03541 0.576042,0 1.071875,-0.15312 0.576042,-0.16771 0.984375,-0.53229 0.495834,-0.4375 0.495834,-0.95521 z"
         style="font-size:17.5px"
         id="path4171"
         inkscape:connector-curvature="0" />
      <path
         d="m 82.372528,137.1055 q 0,1.55312 -1.042708,2.67604 -1.064584,1.15208 -2.603125,1.15208 -1.538542,0 -2.603125,-1.15208 -1.042709,-1.12292 -1.042709,-2.67604 l 0,-6.5625 q 0,-0.54688 0.546875,-0.54688 0.546875,0 0.546875,0.54688 l 0,3.82812 q 1.057292,-1.09375 2.552084,-1.09375 1.538541,0 2.603125,1.15209 1.042708,1.12291 1.042708,2.67604 z m -1.09375,0 q 0,-1.10104 -0.714583,-1.90313 -0.74375,-0.83125 -1.8375,-0.83125 -1.086459,0 -1.830209,0.83125 -0.714583,0.80209 -0.721875,1.90313 0,1.10104 0.721875,1.90312 0.74375,0.83125 1.830209,0.83125 1.086458,0 1.8375,-0.83125 0.714583,-0.80208 0.714583,-1.90312 z"
         style="font-size:17.5px"
         id="path4173"
         inkscape:connector-curvature="0" />
      <path
         d="m 91.12982,134.77217 q 0,0.21875 -0.167709,0.39375 -0.167708,0.1677 -0.386458,0.1677 -0.153125,0 -0.357292,-0.13125 -1.173958,-0.83125 -2.3625,-0.83125 -1.254166,0 -2.23125,0.72917 -1.064583,0.79479 -1.064583,2.00521 0,1.21042 1.064583,2.00521 0.9625,0.72916 2.23125,0.72916 1.18125,0 2.3625,-0.81666 0.196875,-0.13854 0.35,-0.14584 0.21875,0 0.386459,0.16771 0.175,0.16771 0.175,0.39375 0,0.21146 -0.204167,0.40834 -0.510417,0.50312 -1.429167,0.80937 -0.838541,0.27708 -1.640625,0.27708 -1.720833,0 -3.004166,-1.0427 -1.385417,-1.10834 -1.385417,-2.78542 0,-1.67708 1.385417,-2.78542 1.290625,-1.04271 3.004166,-1.04271 0.802084,0 1.640625,0.27709 0.926042,0.30625 1.436459,0.81666 0.196875,0.19688 0.196875,0.40105 z"
         style="font-size:17.5px"
         id="path4175"
         inkscape:connector-curvature="0" />
      <path
         d="m 99.143361,140.38675 q 0,0.54687 -0.546875,0.54687 -0.401041,0 -0.503125,-0.35 -0.04375,-0.15312 -0.04375,-0.68541 -0.991666,1.03541 -2.369791,1.03541 -1.494792,0 -2.501042,-1.18125 -0.9625,-1.1302 -0.9625,-2.64687 0,-1.50938 0.9625,-2.64688 1.00625,-1.18125 2.501042,-1.18125 1.378125,0 2.369791,1.03542 l 0,-3.76979 q 0,-0.54688 0.546875,-0.54688 0.546875,0 0.546875,0.54688 l 0,9.84375 z m -1.09375,-3.28125 q 0.0073,-1.06458 -0.634375,-1.85938 -0.692708,-0.875 -1.735416,-0.875 -1.035417,0 -1.728125,0.875 -0.641667,0.80209 -0.641667,1.85938 0,1.06458 0.641667,1.85937 0.692708,0.875 1.728125,0.875 1.035416,0 1.735416,-0.875 0.641667,-0.79479 0.634375,-1.85937 z"
         style="font-size:17.5px"
         id="path4177"
         inkscape:connector-curvature="0" />
      <path
         d="m 108.62982,138.73883 q 0,0.13854 -0.0875,0.29896 -0.50313,0.875 -1.50938,1.39271 -0.9552,0.50312 -2.0052,0.50312 -1.64063,0 -2.82917,-1.08645 -1.23229,-1.12292 -1.23229,-2.74167 0,-1.62604 1.23229,-2.74167 1.18854,-1.08646 2.82917,-1.08646 0.59791,0 1.24687,0.21146 0.72917,0.24063 1.45104,0.76563 0.89688,0.65625 0.89688,1.24687 0,0.29167 -0.28438,0.44479 l -5.52708,2.96771 q 0.89687,0.92604 2.21667,0.92604 1.40729,0 2.28229,-0.97708 0.10208,-0.13125 0.30625,-0.40104 0.20416,-0.26979 0.44479,-0.26979 0.21875,0 0.39375,0.16771 0.175,0.16041 0.175,0.37916 z m -1.37083,-3.44166 q -0.88959,-0.92605 -2.23125,-0.92605 -1.18125,0 -2.05625,0.76563 -0.91146,0.80208 -0.91146,1.96875 0,0.46667 0.16041,0.88958 l 5.03855,-2.69791 z"
         style="font-size:17.5px"
         id="path4179"
         inkscape:connector-curvature="0" />
      <path
         d="m 117.37982,131.64404 q 0,0.21875 -0.175,0.38646 -0.16771,0.16042 -0.39375,0.16042 -0.18229,-0.007 -0.47396,-0.28438 -0.40833,-0.39375 -0.63437,-0.53229 -0.45938,-0.28438 -1.06459,-0.28438 -0.90416,0 -1.54583,0.64167 -0.64167,0.64167 -0.64167,1.54583 l 2.73438,0 q 0.54687,0 0.54687,0.54688 0,0.54687 -0.54687,0.54687 l -2.73438,0 0,6.01563 q 0,0.54687 -0.54687,0.54687 -0.54688,0 -0.54688,-0.54687 l 0,-6.01563 -1.09375,0 q -0.54687,0 -0.54687,-0.54687 0,-0.54688 0.54687,-0.54688 l 1.09375,0 q 0,-1.35625 0.9625,-2.31875 0.9625,-0.9625 2.31875,-0.9625 0.74375,0 1.47292,0.35 0.76562,0.36459 1.15208,0.9625 0.11667,0.1823 0.11667,0.33542 z"
         style="font-size:17.5px"
         id="path4181"
         inkscape:connector-curvature="0" />
      <path
         d="m 126.12253,133.82425 q 0,0.44479 -0.46667,0.53229 -0.11667,0.0292 -0.81667,0.0146 0.62709,0.71459 0.62709,1.64063 0,1.3125 -1.17396,2.12187 1.83021,0.95521 1.83021,2.8 0,1.44375 -1.225,2.39896 -1.12292,0.88229 -2.60313,0.88229 -1.4875,0 -2.60312,-0.88229 -1.225,-0.95521 -1.225,-2.39896 0,-0.54687 0.54687,-0.54687 0.54688,0 0.54688,0.54687 0,0.98438 0.90416,1.61146 0.80938,0.57604 1.83021,0.57604 1.01354,0 1.83021,-0.57604 0.90417,-0.63437 0.90417,-1.61146 0,-0.98437 -0.90417,-1.61145 -0.80937,-0.57605 -1.83021,-0.57605 -1.23229,0 -2.15833,-0.73645 -1.00625,-0.7948 -1.01354,-1.99792 0,-1.20313 1.01354,-1.99792 0.93333,-0.73646 2.15833,-0.73646 l 3.28125,0 q 0.54688,0 0.54688,0.54688 z m -1.75,2.1875 q 0,-0.73646 -0.69271,-1.225 -0.6125,-0.41563 -1.38542,-0.41563 -0.76562,0 -1.38541,0.41563 -0.69271,0.48125 -0.69271,1.225 0,0.73646 0.69271,1.225 0.6125,0.41562 1.38541,0.41562 0.76563,0 1.38542,-0.41562 0.69271,-0.48854 0.69271,-1.225 z"
         style="font-size:17.5px"
         id="path4183"
         inkscape:connector-curvature="0" />
      <path
         d="m 134.50794,140.38675 q 0,0.54687 -0.54687,0.54687 -0.54688,0 -0.54688,-0.54687 l 0,-3.82813 q 0,-0.90416 -0.64166,-1.54583 -0.64167,-0.64167 -1.54584,-0.64167 -0.90416,0 -1.54583,0.64167 -0.64167,0.64167 -0.64167,1.54583 l 0,3.82813 q 0,0.54687 -0.54687,0.54687 -0.54688,0 -0.54688,-0.54687 l 0,-9.84375 q 0,-0.54688 0.54688,-0.54688 0.54687,0 0.54687,0.54688 l 0,3.57292 q 0.93334,-0.83855 2.1875,-0.83855 1.35625,0 2.31875,0.9625 0.9625,0.9625 0.9625,2.31875 l 0,3.82813 z"
         style="font-size:17.5px"
         id="path4185"
         inkscape:connector-curvature="0" />
      <path
         d="m 140.62565,130.82737 q 0,0.34271 -0.24791,0.57605 -0.24063,0.23333 -0.58334,0.23333 -0.34271,0 -0.59062,-0.23333 -0.24063,-0.23334 -0.24063,-0.57605 0,-0.3427 0.24063,-0.58333 0.24791,-0.24792 0.59062,-0.24792 0.34271,0 0.58334,0.24792 0.24791,0.24063 0.24791,0.58333 z m 1.90313,9.55938 q 0,0.54687 -0.54688,0.54687 l -2.1875,0 q -0.54687,0 -0.54687,-0.54687 l 0,-6.01563 -1.64063,0 q -0.54687,0 -0.54687,-0.54687 0,-0.54688 0.54687,-0.54688 l 2.19479,0 q 0.53959,0 0.53959,0.54688 l 0,6.01562 1.64062,0 q 0.54688,0 0.54688,0.54688 z"
         style="font-size:17.5px"
         id="path4187"
         inkscape:connector-curvature="0" />
      <path
         d="m 151.92774,130.82737 q 0,0.34271 -0.24792,0.57605 -0.24063,0.23333 -0.58333,0.23333 -0.34271,0 -0.59063,-0.23333 -0.24062,-0.23334 -0.24062,-0.57605 0,-0.3427 0.24791,-0.58333 0.24792,-0.24792 0.58334,-0.24792 0.3427,0 0.58333,0.24792 0.24792,0.24063 0.24792,0.58333 z m -0.28438,9.55938 q 0,1.58229 -1.12292,2.70521 -1.12291,1.12291 -2.7052,1.12291 -0.83125,0 -1.65521,-0.37916 -0.875,-0.39375 -1.3125,-1.04271 -0.13125,-0.18958 -0.13854,-0.35 0,-0.21875 0.1677,-0.38646 0.175,-0.16042 0.40105,-0.16042 0.19687,0 0.40104,0.21146 1.03541,1.01354 2.13646,1.01354 1.1302,0 1.93229,-0.80208 0.80208,-0.80208 0.80208,-1.93229 l 0,-6.01563 -1.64062,0 q -0.54688,0 -0.54688,-0.54687 0,-0.54688 0.54688,-0.54688 l 2.20208,0 q 0.53958,0 0.53229,0.53959 l 0,6.56979 z"
         style="font-size:17.5px"
         id="path4189"
         inkscape:connector-curvature="0" />
      <path
         d="m 161.12982,140.37217 q 0,0.21875 -0.16771,0.39375 -0.16771,0.175 -0.37917,0.175 -0.1677,0 -0.32083,-0.10209 l -4.66667,-3.2375 q -0.27708,-0.18229 -0.30625,-0.39375 l 0,3.17917 q 0,0.54687 -0.54687,0.54687 -0.54688,0 -0.54688,-0.54687 l 0,-9.84375 q 0,-0.54688 0.54688,-0.54688 0.54687,0 0.54687,0.54688 l 0,6.46042 q 0.0365,-0.21146 0.30625,-0.39375 l 4.66667,-3.2375 q 0.15313,-0.10209 0.32083,-0.10209 0.21875,0 0.37917,0.175 0.16771,0.175 0.16771,0.39375 0,0.27709 -0.24063,0.4375 l -4.09062,2.82917 4.09062,2.82917 q 0.24063,0.16041 0.24063,0.4375 z"
         style="font-size:17.5px"
         id="path4191"
         inkscape:connector-curvature="0" />
      <path
         d="m 169.87982,139.28571 q 0,0.15312 -0.11667,0.33541 -0.38646,0.59063 -1.15208,0.9625 -0.72917,0.35 -1.47292,0.35 -1.35625,0 -2.31875,-0.9625 -0.9625,-0.9625 -0.9625,-2.31875 l 0,-7.10937 q 0,-0.54688 0.54688,-0.54688 0.54687,0 0.54687,0.54688 l 0,7.10937 q 0,0.90417 0.64167,1.54584 0.64167,0.64166 1.54583,0.64166 0.79479,0 1.41459,-0.54687 0.62708,-0.55417 0.75833,-0.55417 0.21875,0 0.39375,0.16771 0.175,0.16042 0.175,0.37917 z"
         style="font-size:17.5px"
         id="path4193"
         inkscape:connector-curvature="0" />
      <path
         d="m 178.62253,140.38675 q 0,0.54687 -0.54688,0.54687 -0.54687,0 -0.54687,-0.54687 l 0,-4.92188 q 0,-0.45208 -0.32084,-0.77291 -0.32083,-0.32084 -0.77291,-0.32084 -0.45209,0 -0.77292,0.32084 -0.32083,0.32083 -0.32083,0.77291 l 0,4.92188 q 0,0.54687 -0.54688,0.54687 -0.54687,0 -0.54687,-0.54687 l 0,-4.92188 q 0,-0.45208 -0.32084,-0.77291 -0.32083,-0.32084 -0.77291,-0.32084 -0.45209,0 -0.77292,0.32084 -0.32083,0.32083 -0.32083,0.77291 l 0,4.92188 q 0,0.54687 -0.54688,0.54687 -0.54687,0 -0.54687,-0.54687 l 0,-6.5625 q 0,-0.54688 0.54687,-0.54688 0.37917,0 0.50313,0.32813 0.51771,-0.32813 1.1375,-0.32813 0.98437,0 1.64062,0.74375 0.65625,-0.74375 1.64063,-0.74375 0.90416,0 1.54583,0.64167 0.64167,0.64167 0.64167,1.54583 l 0,4.92188 z"
         style="font-size:17.5px"
         id="path4195"
         inkscape:connector-curvature="0" />
      <path
         d="m 187.00794,140.38675 q 0,0.54687 -0.54687,0.54687 -0.54688,0 -0.54688,-0.54687 l 0,-3.82813 q 0,-0.90416 -0.64166,-1.54583 -0.64167,-0.64167 -1.54584,-0.64167 -0.90416,0 -1.54583,0.64167 -0.64167,0.64167 -0.64167,1.54583 l 0,3.82813 q 0,0.54687 -0.54687,0.54687 -0.54688,0 -0.54688,-0.54687 l 0,-6.5625 q 0,-0.54688 0.54688,-0.54688 0.55417,0 0.54687,0.83855 0.93334,-0.83855 2.1875,-0.83855 1.35625,0 2.31875,0.9625 0.9625,0.9625 0.9625,2.31875 l 0,3.82813 z"
         style="font-size:17.5px"
         id="path4197"
         inkscape:connector-curvature="0" />
      <path
         d="m 196.12253,137.1055 q 0,1.58229 -1.12292,2.70521 -1.12292,1.12291 -2.70521,1.12291 -1.58229,0 -2.70521,-1.12291 -1.12291,-1.12292 -1.12291,-2.70521 0,-1.58229 1.12291,-2.70521 1.12292,-1.12292 2.70521,-1.12292 1.58229,0 2.70521,1.12292 1.12292,1.12292 1.12292,2.70521 z m -1.09375,0 q 0,-1.13021 -0.80209,-1.93229 -0.80208,-0.80209 -1.93229,-0.80209 -1.13021,0 -1.93229,0.80209 -0.80208,0.80208 -0.80208,1.93229 0,1.13021 0.80208,1.93229 0.80208,0.80208 1.93229,0.80208 1.13021,0 1.93229,-0.80208 0.80209,-0.80208 0.80209,-1.93229 z"
         style="font-size:17.5px"
         id="path4199"
         inkscape:connector-curvature="0" />
      <path
         d="m 204.87253,137.1055 q 0,1.50937 -0.9625,2.64687 -1.00625,1.18125 -2.50104,1.18125 -1.37813,0 -2.3698,-1.03541 l 0,3.76979 q 0,0.54687 -0.54687,0.54687 -0.54688,0 -0.54688,-0.54687 l 0,-9.84375 q 0,-0.54688 0.54688,-0.54688 0.40104,0 0.50312,0.35 0.0437,0.15313 0.0437,0.68542 0.99167,-1.03542 2.3698,-1.03542 1.49479,0 2.50104,1.18125 0.9625,1.1375 0.9625,2.64688 z m -1.09375,0 q 0,-1.06458 -0.64167,-1.85938 -0.69271,-0.875 -1.72812,-0.875 -1.03542,0 -1.73542,0.875 -0.64167,0.80209 -0.63438,1.85938 -0.007,1.06458 0.63438,1.85937 0.69271,0.875 1.73542,0.875 1.03541,0 1.72812,-0.875 0.64167,-0.79479 0.64167,-1.85937 z"
         style="font-size:17.5px"
         id="path4201"
         inkscape:connector-curvature="0" />
      <path
         d="m 212.89336,143.668 q 0,0.54687 -0.54687,0.54687 -0.54688,0 -0.54688,-0.54687 l 0,-3.76979 q -0.99167,1.03541 -2.36979,1.03541 -1.49479,0 -2.50104,-1.18125 -0.9625,-1.1302 -0.9625,-2.64687 0,-1.50938 0.9625,-2.64688 1.00625,-1.18125 2.50104,-1.18125 1.37812,0 2.36979,1.03542 l 0,-0.27708 q -0.0146,-0.75834 0.54688,-0.75834 0.54687,0 0.54687,0.54688 l 0,9.84375 z m -1.09375,-6.5625 q 0.007,-1.06458 -0.63437,-1.85938 -0.69271,-0.875 -1.73542,-0.875 -1.03542,0 -1.72813,0.875 -0.64166,0.80209 -0.64166,1.85938 0,1.06458 0.64166,1.85937 0.69271,0.875 1.72813,0.875 1.03542,0 1.73542,-0.875 0.64166,-0.79479 0.63437,-1.85937 z"
         style="font-size:17.5px"
         id="path4203"
         inkscape:connector-curvature="0" />
      <path
         d="m 222.37982,135.04925 q 0,0.21875 -0.175,0.38646 -0.16771,0.16041 -0.39375,0.16041 -0.20417,0 -0.40104,-0.21145 -1.00625,-1.01355 -2.13646,-1.01355 -1.13021,0 -1.93229,0.80209 -0.80209,0.80208 -0.80209,1.93229 l 0,3.28125 q 0,0.54687 -0.54687,0.54687 -0.54688,0 -0.54688,-0.54687 l 0,-6.5625 q 0,-0.54688 0.54688,-0.54688 0.41562,0 0.525,0.40834 0.0292,0.13125 0.0219,0.74375 1.12292,-1.15209 2.73438,-1.15209 0.83125,0 1.65521,0.37917 0.875,0.39375 1.3125,1.04271 0.13854,0.19687 0.13854,0.35 z"
         style="font-size:17.5px"
         id="path4205"
         inkscape:connector-curvature="0" />
      <path
         d="m 230.6194,138.46904 q 0,1.17396 -1.17396,1.86667 -0.99895,0.59791 -2.24583,0.59791 -0.93333,0 -1.78646,-0.35729 -0.98437,-0.41562 -1.37083,-1.15208 -0.0802,-0.15313 -0.0802,-0.28438 0,-0.21875 0.175,-0.37916 0.175,-0.16042 0.39375,-0.16042 0.24792,0 0.45938,0.28438 0.71458,0.9552 2.20937,0.9552 1.47292,0 2.1,-0.80937 0.21875,-0.29896 0.22604,-0.56146 0,-0.44479 -0.51041,-0.82396 -0.40834,-0.29166 -0.93334,-0.42291 -0.4375,-0.11667 -0.99166,-0.11667 -0.94063,0 -1.68438,-0.46667 -0.86042,-0.54687 -0.86042,-1.45104 0,-0.89687 0.88959,-1.44375 0.75833,-0.46667 1.71354,-0.46667 0.59792,0 1.18854,0.21146 0.67813,0.24063 0.99167,0.66354 0.14583,0.18959 0.14583,0.35 0,0.21875 -0.175,0.38646 -0.16771,0.16771 -0.39375,0.16771 -0.0948,0 -0.60521,-0.34271 -0.50312,-0.34271 -1.15208,-0.34271 -0.99167,0 -1.39271,0.53959 -0.11667,0.14583 -0.11667,0.27708 0,0.51771 0.91146,0.74375 0.30625,0.0802 0.72917,0.0802 1.225,0 2.20208,0.60521 1.1375,0.70729 1.1375,1.85208 z"
         style="font-size:17.5px"
         id="path4207"
         inkscape:connector-curvature="0" />
      <path
         d="m 239.87982,139.28571 q 0,0.15312 -0.11667,0.33541 -0.38646,0.59063 -1.15208,0.9625 -0.72917,0.35 -1.47292,0.35 -1.35625,0 -2.31875,-0.9625 -0.9625,-0.9625 -0.9625,-2.31875 l 0,-3.28125 -1.09375,0 q -0.54687,0 -0.54687,-0.54687 0,-0.54688 0.54687,-0.54688 l 1.09375,0 0,-2.73437 q 0,-0.54688 0.54688,-0.54688 0.54687,0 0.54687,0.54688 l 0,2.73437 2.73438,0 q 0.54687,0 0.54687,0.54688 0,0.54687 -0.54687,0.54687 l -2.73438,0 0,3.28125 q 0,0.90417 0.64167,1.54584 0.64167,0.64166 1.54583,0.64166 0.6125,0 1.06459,-0.28437 0.21875,-0.13854 0.63437,-0.53229 0.29167,-0.28438 0.47396,-0.28438 0.21875,0 0.39375,0.16771 0.175,0.16042 0.175,0.37917 z"
         style="font-size:17.5px"
         id="path4209"
         inkscape:connector-curvature="0" />
      <path
         d="m 248.25794,137.47008 q 0,1.43646 -1.01354,2.45 -1.01354,1.01354 -2.45,1.01354 -1.43646,0 -2.45,-1.01354 -1.01354,-1.01354 -1.01354,-2.45 l 0,-3.64583 q 0,-0.54688 0.54688,-0.54688 0.54687,0 0.54687,0.54688 l 0,3.64583 q 0,0.97709 0.69271,1.67709 0.7,0.6927 1.67708,0.6927 0.97709,0 1.66979,-0.6927 0.7,-0.7 0.7,-1.67709 l 0,-3.64583 q 0,-0.54688 0.54688,-0.54688 0.54687,0 0.54687,0.54688 l 0,3.64583 z"
         style="font-size:17.5px"
         id="path4211"
         inkscape:connector-curvature="0" />
      <path
         d="m 257.37982,133.80967 q 0,0.13125 -0.0656,0.2625 l -3.2302,6.4677 q -0.20417,0.40105 -0.53959,0.40105 -0.33541,0 -0.53958,-0.40105 l -3.23021,-6.4677 q -0.0656,-0.13125 -0.0656,-0.2625 0,-0.21875 0.175,-0.37917 0.175,-0.16042 0.39375,-0.16042 0.32812,0 0.47395,0.30625 l 2.79271,5.58542 2.79271,-5.58542 q 0.15313,-0.30625 0.47396,-0.30625 0.21875,0 0.39375,0.16042 0.175,0.16042 0.175,0.37917 z"
         style="font-size:17.5px"
         id="path4213"
         inkscape:connector-curvature="0" />
      <path
         d="m 266.12982,133.79508 q 0,0.0875 -0.0365,0.18959 l -1.93958,6.48229 q -0.13854,0.46666 -0.54688,0.46666 -0.40833,0 -0.54687,-0.46666 l -0.76563,-2.5375 -0.76562,2.5375 q -0.13854,0.46666 -0.54688,0.46666 -0.40833,0 -0.54687,-0.46666 l -1.93959,-6.48229 q -0.0292,-0.0948 -0.0365,-0.18959 0,-0.51771 0.56875,-0.51771 0.39375,0 0.50312,0.38646 l 1.45104,4.81979 0.73646,-2.46458 q -0.64167,-2.12917 -0.63437,-2.22396 0,-0.51771 0.56875,-0.51771 0.39375,0 0.51041,0.38646 l 1.44375,4.81979 1.45104,-4.81979 q 0.11667,-0.38646 0.50313,-0.38646 0.56875,0 0.56875,0.51771 z"
         style="font-size:17.5px"
         id="path4215"
         inkscape:connector-curvature="0" />
      <path
         d="m 274.87982,133.83154 q 0,0.21146 -0.16771,0.37917 l -2.90208,2.89479 2.90208,2.89479 q 0.16771,0.16771 0.16771,0.37917 0,0.21875 -0.16771,0.39375 -0.16771,0.16771 -0.39375,0.16771 -0.21146,0 -0.37917,-0.16771 l -2.89479,-2.90209 -2.89479,2.90209 q -0.16771,0.16771 -0.37917,0.16771 -0.21875,0 -0.39375,-0.16771 -0.1677,-0.16771 -0.1677,-0.39375 0,-0.21146 0.1677,-0.37917 l 2.90209,-2.89479 -2.90209,-2.89479 q -0.1677,-0.16771 -0.1677,-0.37917 0,-0.21875 0.1677,-0.38646 0.16771,-0.175 0.39375,-0.175 0.21146,0 0.37917,0.16771 l 2.89479,2.90208 2.89479,-2.90208 q 0.16771,-0.16771 0.37917,-0.16771 0.21875,0 0.38646,0.175 0.175,0.16771 0.175,0.38646 z"
         style="font-size:17.5px"
         id="path4217"
         inkscape:connector-curvature="0" />
      <path
         d="m 282.89336,133.82425 0,7.10937 q 0,1.35625 -0.9625,2.31875 -0.9625,0.9625 -2.31875,0.9625 -0.86042,0 -1.62604,-0.4375 -0.80208,-0.45208 -1.21042,-1.18854 -0.0802,-0.15312 -0.0802,-0.28437 0,-0.21875 0.175,-0.38646 0.175,-0.16771 0.39375,-0.16771 0.24792,0 0.45938,0.28438 0.81667,1.08645 1.88854,1.08645 0.90417,0 1.54583,-0.64166 0.64167,-0.64167 0.64167,-1.54584 l 0,-0.83854 q -0.93333,0.83854 -2.1875,0.83854 -1.35625,0 -2.31875,-0.9625 -0.9625,-0.9625 -0.9625,-2.31875 l 0,-3.82812 q 0,-0.54688 0.54688,-0.54688 0.54687,0 0.54687,0.54688 l 0,3.82812 q 0,0.90417 0.64167,1.54584 0.64166,0.64166 1.54583,0.64166 0.90417,0 1.54583,-0.64166 0.64167,-0.64167 0.64167,-1.53854 l 0,-3.83542 q 0,-0.54688 0.54688,-0.54688 0.54687,0 0.54687,0.54688 z"
         style="font-size:17.5px"
         id="path4219"
         inkscape:connector-curvature="0" />
      <path
         d="m 292.37982,133.83154 q 0,0.21146 -0.24063,0.45208 l -5.56354,5.55625 5.25,0 q 0.54688,0 0.54688,0.54688 0,0.54687 -0.54688,0.54687 l -6.54791,0.007 q -0.57605,0 -0.56875,-0.56146 0,-0.21146 0.24062,-0.45209 l 5.56354,-5.55625 -5.25,0 q -0.54687,0 -0.54687,-0.54687 0,-0.54688 0.54687,-0.54688 l 6.54792,-0.007 q 0.56875,0 0.56875,0.56146 z"
         style="font-size:17.5px"
         id="path4221"
         inkscape:connector-curvature="0" />
      <path
         d="m 73.62982,162.29092 q 0,0.5177 -0.56875,0.5177 -0.379167,0 -0.503125,-0.37916 l -0.969792,-2.90209 -3.5875,0 -0.969792,2.90209 q -0.13125,0.37916 -0.503125,0.37916 -0.576041,0 -0.56875,-0.5177 0,-0.0948 0.03646,-0.19688 l 3.252083,-9.76354 q 0.153125,-0.45938 0.546875,-0.45938 0.39375,0 0.546875,0.45938 l 3.252083,9.76354 q 0.03646,0.10208 0.03646,0.19688 z m -2.40625,-3.8573 -1.429167,-4.2875 -1.429167,4.2875 2.858334,0 z"
         style="font-size:17.5px"
         id="path4223"
         inkscape:connector-curvature="0" />
      <path
         d="m 82.372528,159.53467 q 0,1.35625 -0.9625,2.31875 -0.9625,0.9625 -2.326042,0.9625 l -3.091666,-0.007 q -0.21875,0 -0.386459,-0.16041 -0.160416,-0.16771 -0.160416,-0.38646 l 0,-9.84375 q 0,-0.21875 0.160416,-0.37917 0.167709,-0.16771 0.386459,-0.16771 l 3.098958,0 q 1.130208,0 1.932292,0.80209 0.802083,0.80208 0.802083,1.93229 0,1.30521 -1.013542,2.12917 1.560417,0.9625 1.560417,2.8 z m -1.640625,-4.92917 q 0,-0.67813 -0.48125,-1.15938 -0.48125,-0.48125 -1.159375,-0.48125 l -2.552083,0 0,3.28125 2.552083,0 q 0.678125,0 1.159375,-0.48125 0.48125,-0.48125 0.48125,-1.15937 z m 0.546875,4.92917 q 0,-0.90417 -0.641667,-1.54584 -0.641666,-0.64896 -1.545833,-0.64896 l -2.552083,0 0,4.375 2.552083,0.007 q 0.904167,0 1.545833,-0.64167 0.641667,-0.64167 0.641667,-1.54583 z"
         style="font-size:17.5px"
         id="path4225"
         inkscape:connector-curvature="0" />
      <path
         d="m 91.12982,160.818 q 0,0.16042 -0.123959,0.34271 -0.510416,0.72916 -1.385416,1.18854 -0.867709,0.45937 -1.764584,0.45937 -1.976041,0 -3.252083,-1.79375 -1.1375,-1.61145 -1.1375,-3.675 0,-2.05625 1.1375,-3.675 1.276042,-1.79375 3.252083,-1.79375 0.896875,0 1.764584,0.46667 0.875,0.45938 1.385416,1.18125 0.13125,0.18229 0.123959,0.34271 0,0.21875 -0.175,0.38646 -0.167709,0.16771 -0.39375,0.16771 -0.138542,0 -0.335417,-0.13125 -0.189583,-0.13855 -0.226042,-0.2625 -0.0073,-0.0146 -0.153125,-0.16771 -0.889583,-0.88959 -1.990625,-0.88959 -1.013541,0 -1.859375,0.78021 -0.751041,0.68542 -1.122916,1.73542 -0.313542,0.875 -0.313542,1.85937 0,0.99167 0.313542,1.85938 0.379166,1.04271 1.115625,1.73542 0.845833,0.7802 1.866666,0.7802 1.09375,0 1.990625,-0.88958 0.06562,-0.051 0.153125,-0.16042 0.0073,-0.10937 0.21875,-0.2552 0.21875,-0.14584 0.342709,-0.14584 0.21875,0 0.39375,0.16771 0.175,0.16771 0.175,0.38646 z"
         style="font-size:17.5px"
         id="path4227"
         inkscape:connector-curvature="0" />
      <path
         d="m 99.872528,157.33987 q 0,2.26771 -1.604167,3.87188 -1.596875,1.59687 -3.864583,1.59687 l -0.911458,0 q -0.21875,0 -0.386459,-0.16041 -0.160416,-0.16771 -0.160416,-0.38646 l 0,-9.84375 q 0,-0.21875 0.160416,-0.37917 0.167709,-0.16771 0.386459,-0.16771 l 0.911458,0 q 2.267708,0 3.864583,1.60417 1.604167,1.59688 1.604167,3.86458 z m -1.09375,0 q 0,-1.80833 -1.283333,-3.09166 -1.283334,-1.28334 -3.091667,-1.28334 l -0.364583,0 0,8.75 0.364583,0 q 1.808333,0 3.091667,-1.28333 1.283333,-1.28333 1.283333,-3.09167 z"
         style="font-size:17.5px"
         id="path4229"
         inkscape:connector-curvature="0" />
      <path
         d="m 108.62253,162.26175 q 0,0.54687 -0.54688,0.54687 l -5.83333,0 q -0.21875,0 -0.38646,-0.16041 -0.16042,-0.16771 -0.16042,-0.38646 l 0,-9.84375 q 0,-0.21875 0.16042,-0.37917 0.16771,-0.16771 0.38646,-0.16771 l 5.83333,0 q 0.54688,0 0.54688,0.54688 0,0.54687 -0.54688,0.54687 l -5.28646,0 0,3.82813 5.28646,0 q 0.54688,0 0.54688,0.54687 0,0.54688 -0.54688,0.54688 l -5.28646,0 0,3.82812 5.28646,0 q 0.54688,0 0.54688,0.54688 z"
         style="font-size:17.5px"
         id="path4231"
         inkscape:connector-curvature="0" />
      <path
         d="m 117.37253,157.33987 q 0,0.54688 -0.54688,0.54688 l -5.28646,0 0,4.375 q 0,0.54687 -0.54687,0.54687 -0.54688,0 -0.54688,-0.54687 l 0,-9.85104 q 0,-0.53959 0.5323,-0.53959 l 5.84791,0 q 0.54688,0 0.54688,0.54688 0,0.54687 -0.54688,0.54687 l -5.28646,0 0,3.82813 5.28646,0 q 0.54688,0 0.54688,0.54687 z"
         style="font-size:17.5px"
         id="path4233"
         inkscape:connector-curvature="0" />
      <path
         d="m 125.76524,153.86175 q 0,0.21875 -0.175,0.38646 -0.16771,0.16771 -0.39375,0.16771 -0.21875,0 -0.42292,-0.22605 -0.0948,-0.11666 -0.30625,-0.37187 -0.83125,-0.85313 -1.82292,-0.85313 -0.99166,0 -1.80104,0.83855 -0.69271,0.71458 -1.02083,1.76458 -0.2625,0.83125 -0.2625,1.77187 0,0.94063 0.2625,1.77188 0.32812,1.05 1.02083,1.76458 0.80938,0.83854 1.80104,0.83854 1.14479,0 2.01979,-1.07916 l 0,-3.29584 q 0,-0.54687 0.54688,-0.54687 0.54687,0 0.54687,0.54687 l 0,3.48542 q 0,0.75104 -1.21041,1.40729 -1.06459,0.57604 -1.90313,0.57604 -1.91041,0 -3.12083,-1.8375 -1.05729,-1.60416 -1.05729,-3.63125 0,-2.02708 1.05729,-3.63125 1.20312,-1.8375 3.12083,-1.8375 0.875,0 1.69896,0.46667 0.80938,0.45938 1.3125,1.20313 0.10938,0.16041 0.10938,0.32083 z"
         style="font-size:17.5px"
         id="path4235"
         inkscape:connector-curvature="0" />
      <path
         d="m 134.14336,162.26175 q 0,0.54687 -0.54687,0.54687 -0.54688,0 -0.54688,-0.54687 l 0,-4.375 -4.01042,0 0,4.375 q 0,0.54687 -0.54687,0.54687 -0.54688,0 -0.54688,-0.54687 l 0,-9.84375 q 0,-0.54688 0.54688,-0.54688 0.54687,0 0.54687,0.54688 l 0,4.375 4.01042,0 0,-4.375 q 0,-0.54688 0.54688,-0.54688 0.54687,0 0.54687,0.54688 l 0,9.84375 z"
         style="font-size:17.5px"
         id="path4237"
         inkscape:connector-curvature="0" />
      <path
         d="m 142.52878,162.26175 q 0,0.54687 -0.54688,0.54687 l -4.375,0 q -0.54687,0 -0.54687,-0.54687 0,-0.54688 0.54687,-0.54688 l 1.64063,0 0,-8.75 -1.64063,0 q -0.54687,0 -0.54687,-0.54687 0,-0.54688 0.54687,-0.54688 l 4.375,0 q 0.54688,0 0.54688,0.54688 0,0.54687 -0.54688,0.54687 l -1.64062,0 0,8.75 1.64062,0 q 0.54688,0 0.54688,0.54688 z"
         style="font-size:17.5px"
         id="path4239"
         inkscape:connector-curvature="0" />
      <path
         d="m 151.64336,162.26175 q 0,1.58229 -1.12292,2.70521 -1.12291,1.12291 -2.7052,1.12291 -0.83125,0 -1.65521,-0.37916 -0.875,-0.39375 -1.3125,-1.04271 -0.13125,-0.18958 -0.13854,-0.35 0,-0.21875 0.1677,-0.38646 0.175,-0.16042 0.40105,-0.16042 0.19687,0 0.40104,0.21146 1.03541,1.01354 2.13646,1.01354 1.1302,0 1.93229,-0.80208 0.80208,-0.80208 0.80208,-1.93229 l 0,-9.29688 -5.28646,0 q -0.54687,0 -0.54687,-0.54687 0,-0.54688 0.54687,-0.54688 l 5.84792,0 q 0.53958,0 0.53229,0.53959 l 0,9.85104 z"
         style="font-size:17.5px"
         id="path4241"
         inkscape:connector-curvature="0" />
      <path
         d="m 161.12982,162.26175 q 0,0.21875 -0.16771,0.38646 -0.16771,0.16771 -0.39375,0.16771 -0.21875,0 -0.38646,-0.175 l -4.73958,-4.92188 q -0.14583,-0.15312 -0.15313,-0.27708 l 0,4.81979 q 0,0.54687 -0.54687,0.54687 -0.54688,0 -0.54688,-0.54687 l 0,-9.84375 q 0,-0.54688 0.54688,-0.54688 0.54687,0 0.54687,0.54688 l 0,4.81979 q 0.0292,-0.15312 0.15313,-0.27708 l 4.73958,-4.92188 q 0.16771,-0.16771 0.38646,-0.175 0.21875,0 0.38646,0.16771 0.175,0.16771 0.175,0.38646 0,0.21146 -0.16042,0.37917 l -4.375,4.5427 4.375,4.54271 q 0.16042,0.16771 0.16042,0.37917 z m -5.78229,-4.67396 q -0.0438,-0.0802 -0.0583,-0.15312 l 0,0.007 q 0,0.0438 0.0583,0.14583 z m 0.0656,0.10208 q -0.0365,-0.051 -0.0875,-0.13854 0.0365,0.0729 0.0875,0.13854 z"
         style="font-size:17.5px"
         id="path4243"
         inkscape:connector-curvature="0" />
      <path
         d="m 169.87253,162.26175 q 0,0.54687 -0.54688,0.54687 l -5.83333,0 q -0.54688,0 -0.54688,-0.53958 l 0,-9.85104 q 0,-0.54688 0.54688,-0.54688 0.54687,0 0.54687,0.54688 l 0,9.29687 5.28646,0 q 0.54688,0 0.54688,0.54688 z"
         style="font-size:17.5px"
         id="path4245"
         inkscape:connector-curvature="0" />
      <path
         d="m 178.62253,162.27633 q 0,0.53229 -0.55417,0.53229 -0.46667,0 -0.53229,-0.46666 l -0.94063,-7.05834 -1.25416,4.84896 q -0.13125,0.48854 -0.54688,0.48854 -0.41562,0 -0.54687,-0.48854 l -1.25417,-4.84896 -0.94062,7.05834 q -0.0583,0.46666 -0.5323,0.46666 -0.55416,0 -0.55416,-0.53229 0,-0.0437 0.007,-0.0948 l 1.30521,-9.77083 q 0.0656,-0.53959 0.54687,-0.53959 0.41563,0 0.54688,0.46667 l 1.42187,5.54167 1.42188,-5.54167 q 0.13125,-0.46667 0.53229,-0.46667 0.49583,0 0.56146,0.53959 l 1.30521,9.77083 q 0.007,0.051 0.007,0.0948 z"
         style="font-size:17.5px"
         id="path4247"
         inkscape:connector-curvature="0" />
      <path
         d="m 186.65794,162.26904 q 0,0.54688 -0.57604,0.54688 -0.31354,0 -0.50312,-0.37188 l -4.03959,-7.78021 0,7.59792 q 0,0.54687 -0.54687,0.54687 -0.54688,0 -0.54688,-0.54687 l -0.0146,-9.85104 q 0,-0.54688 0.57604,-0.54688 0.31354,0 0.50313,0.37188 l 4.03958,7.78021 0,-7.59792 q 0,-0.54688 0.54688,-0.54688 0.54687,0 0.54687,0.54688 l 0.0146,9.85104 z"
         style="font-size:17.5px"
         id="path4249"
         inkscape:connector-curvature="0" />
      <path
         d="m 196.12253,157.33987 q 0,1.96875 -0.92604,3.56563 -1.09375,1.90312 -2.90209,1.90312 -1.80833,0 -2.90208,-1.90312 -0.92604,-1.60417 -0.92604,-3.56563 0,-1.96875 0.92604,-3.56562 1.09375,-1.90313 2.90208,-1.90313 1.80834,0 2.90209,1.90313 0.92604,1.59687 0.92604,3.56562 z m -1.09375,0 q 0,-0.9552 -0.24063,-1.79375 -0.28437,-0.99166 -0.88229,-1.70625 -0.72917,-0.875 -1.61146,-0.875 -0.88958,0 -1.61146,0.875 -0.59062,0.71459 -0.88229,1.70625 -0.24062,0.83855 -0.24062,1.79375 0,0.95521 0.24062,1.79375 0.28438,0.99167 0.88229,1.70625 0.72917,0.875 1.61146,0.875 0.88959,0 1.61146,-0.875 0.59063,-0.71458 0.88229,-1.70625 0.24063,-0.83854 0.24063,-1.79375 z"
         style="font-size:17.5px"
         id="path4251"
         inkscape:connector-curvature="0" />
      <path
         d="m 204.87253,155.15237 q 0,1.35625 -0.9625,2.31875 -0.9625,0.9625 -2.31875,0.9625 l -2.55209,0 0,3.82813 q 0,0.54687 -0.54687,0.54687 -0.54688,0 -0.54688,-0.54687 l 0,-9.84375 q 0,-0.21875 0.16042,-0.37917 0.16771,-0.16771 0.38646,-0.16771 l 3.09896,0 q 1.35625,0 2.31875,0.9625 0.9625,0.9625 0.9625,2.31875 z m -1.09375,0 q 0,-0.90416 -0.64167,-1.54583 -0.64167,-0.64167 -1.54583,-0.64167 l -2.55209,0 0,4.375 2.55209,0 q 0.90416,0 1.54583,-0.64166 0.64167,-0.64167 0.64167,-1.54584 z"
         style="font-size:17.5px"
         id="path4253"
         inkscape:connector-curvature="0" />
      <path
         d="m 213.62253,165.543 q 0,0.54687 -0.54688,0.54687 -1.28333,0 -2.26771,-1.0427 -0.83125,-0.8823 -1.24687,-2.24584 -1.72083,-0.13854 -2.73438,-1.99791 -0.86041,-1.575 -0.86041,-3.46355 0,-1.96875 0.92604,-3.56562 1.09375,-1.90313 2.90208,-1.90313 1.80834,0 2.90209,1.90313 0.92604,1.60417 0.92604,3.56562 0,1.69896 -0.7,3.15 -0.81667,1.72084 -2.25313,2.1875 0.30625,0.90417 0.875,1.55313 0.7,0.76562 1.53125,0.76562 0.54688,0 0.54688,0.54688 z m -1.09375,-8.20313 q 0,-0.9552 -0.24063,-1.79375 -0.28437,-0.99166 -0.88229,-1.70625 -0.72917,-0.875 -1.61146,-0.875 -0.88958,0 -1.61146,0.875 -0.59062,0.71459 -0.88229,1.69896 -0.24062,0.84584 -0.24062,1.80104 0,1.35625 0.51041,2.53021 0.62709,1.42917 1.74271,1.76459 -0.0656,-0.51042 -0.0656,-1.01355 0,-0.54687 0.54687,-0.54687 0.54688,0 0.54688,0.54687 0,0.49584 0.0656,0.9625 1.05729,-0.40833 1.64063,-1.77916 0.48125,-1.15209 0.48125,-2.46459 z"
         style="font-size:17.5px"
         id="path4255"
         inkscape:connector-curvature="0" />
      <path
         d="m 222.37982,162.25446 q 0,0.21875 -0.16771,0.39375 -0.16771,0.16771 -0.39375,0.16771 -0.21146,0 -0.37917,-0.16771 l -4.30208,-4.30209 q -0.24062,-0.24062 -0.24062,-0.45208 0,-0.55417 0.65625,-0.55417 l 1.53854,0 q 0.90416,0 1.54583,-0.64166 0.64167,-0.64167 0.64167,-1.54584 0,-0.90416 -0.64167,-1.54583 -0.64167,-0.64167 -1.54583,-0.64167 l -2.55209,0 0,9.29688 q 0,0.54687 -0.54687,0.54687 -0.54688,0 -0.54688,-0.54687 l 0,-9.85104 q 0,-0.53959 0.5323,-0.53959 l 3.11354,0 q 1.35625,0 2.31875,0.9625 0.9625,0.9625 0.9625,2.31875 0,1.35625 -0.9625,2.31875 -0.9625,0.9625 -2.31875,0.9625 l -0.32813,0 3.44896,3.44167 q 0.16771,0.16771 0.16771,0.37917 z"
         style="font-size:17.5px"
         id="path4257"
         inkscape:connector-curvature="0" />
      <path
         d="m 231.12253,159.52737 q 0,1.48021 -1.32709,2.42813 -1.19583,0.85312 -2.73437,0.85312 -0.99896,0 -1.93958,-0.39375 -1.02813,-0.4375 -1.54584,-1.19583 -0.11666,-0.16771 -0.11666,-0.33542 0,-0.21875 0.1677,-0.37916 0.175,-0.16771 0.40105,-0.16771 0.21145,0 0.42291,0.22604 0.10209,0.13125 0.32084,0.35 0.88958,0.80208 2.28958,0.80208 1.06458,0 1.95417,-0.54687 1.01354,-0.63438 1.01354,-1.64063 0,-1.00625 -1.01354,-1.64062 -0.8823,-0.54688 -1.95417,-0.54688 -1.27604,0 -2.26771,-0.71458 -1.09375,-0.7875 -1.09375,-2.01979 0,-1.23229 1.09375,-2.01979 0.99167,-0.71459 2.26771,-0.71459 0.81667,0 1.58958,0.32813 0.84584,0.35729 1.27604,0.97708 0.13125,0.16771 0.13125,0.33542 0,0.21875 -0.18229,0.38646 -0.175,0.16041 -0.39375,0.16041 -0.20416,0 -0.43021,-0.21875 -0.85312,-0.875 -1.99062,-0.875 -0.80938,0 -1.4875,0.40834 -0.7875,0.46666 -0.78021,1.23229 0,0.75833 0.78021,1.23229 0.67812,0.40833 1.4875,0.40833 1.53854,0 2.73437,0.85313 1.32709,0.94792 1.32709,2.42812 z"
         style="font-size:17.5px"
         id="path4259"
         inkscape:connector-curvature="0" />
      <path
         d="m 239.87253,152.418 q 0,0.54687 -0.54688,0.54687 l -2.73437,0 0,9.29688 q 0,0.54687 -0.54688,0.54687 -0.54687,0 -0.54687,-0.54687 l 0,-9.29688 -2.73438,0 q -0.54687,0 -0.54687,-0.54687 0,-0.54688 0.54687,-0.54688 l 6.5625,0 q 0.54688,0 0.54688,0.54688 z"
         style="font-size:17.5px"
         id="path4261"
         inkscape:connector-curvature="0" />
      <path
         d="m 248.25794,159.34508 q 0,1.43646 -1.01354,2.45 -1.01354,1.01354 -2.45,1.01354 -1.43646,0 -2.45,-1.01354 -1.01354,-1.01354 -1.01354,-2.45 l 0,-6.92708 q 0,-0.54688 0.54688,-0.54688 0.54687,0 0.54687,0.54688 l 0,6.92708 q 0,0.97709 0.69271,1.67709 0.7,0.6927 1.67708,0.6927 0.97709,0 1.66979,-0.6927 0.7,-0.7 0.7,-1.67709 l 0,-6.92708 q 0,-0.54688 0.54688,-0.54688 0.54687,0 0.54687,0.54688 l 0,6.92708 z"
         style="font-size:17.5px"
         id="path4263"
         inkscape:connector-curvature="0" />
      <path
         d="m 257.37982,152.38883 q 0,0.0948 -0.0365,0.19688 l -3.25208,9.76354 q -0.15313,0.45937 -0.54688,0.45937 -0.39375,0 -0.54687,-0.45937 l -3.25209,-9.76354 q -0.0365,-0.10209 -0.0365,-0.19688 0,-0.51771 0.56875,-0.51771 0.37916,0 0.50312,0.37917 l 2.76354,8.28333 2.76354,-8.28333 q 0.13125,-0.37917 0.50313,-0.37917 0.56875,0 0.56875,0.51771 z"
         style="font-size:17.5px"
         id="path4265"
         inkscape:connector-curvature="0" />
      <path
         d="m 266.12253,152.38883 q 0,0.0583 -0.007,0.11667 l -1.63334,9.78542 q -0.0875,0.5177 -0.55416,0.5177 -0.41563,0 -0.53959,-0.48125 l -1.09375,-4.375 -1.09375,4.375 q -0.11666,0.48125 -0.53958,0.48125 -0.46667,0 -0.55417,-0.5177 l -1.63333,-9.78542 q -0.007,-0.051 -0.007,-0.11667 0,-0.51771 0.55416,-0.51771 0.45938,0 0.5323,0.45938 l 1.21041,7.24792 0.98438,-3.9375 q 0.11666,-0.48855 0.54687,-0.48855 0.41563,0 0.54688,0.48855 l 0.98437,3.9375 1.21042,-7.24792 q 0.0802,-0.45938 0.53229,-0.45938 0.55417,0 0.55417,0.51771 z"
         style="font-size:17.5px"
         id="path4267"
         inkscape:connector-curvature="0" />
      <path
         d="m 274.87982,162.26904 q 0,0.21875 -0.175,0.38646 -0.175,0.16042 -0.39375,0.16042 -0.27708,0 -0.4375,-0.24792 l -2.82917,-4.24375 -2.82916,4.24375 q -0.16771,0.24792 -0.4375,0.24792 -0.21875,0 -0.39375,-0.16771 -0.175,-0.16771 -0.175,-0.37917 0,-0.16042 0.10208,-0.31354 l 3.07708,-4.61563 -3.07708,-4.61562 q -0.10208,-0.15313 -0.10208,-0.31354 0,-0.21875 0.175,-0.37917 0.175,-0.16771 0.39375,-0.16771 0.27708,0 0.4375,0.24792 l 2.82916,4.24375 2.82917,-4.24375 q 0.16771,-0.24792 0.4375,-0.24792 0.21875,0 0.39375,0.16771 0.175,0.16771 0.175,0.37917 0,0.16041 -0.10208,0.31354 l -3.07709,4.61562 3.07709,4.61563 q 0.10208,0.15312 0.10208,0.31354 z"
         style="font-size:17.5px"
         id="path4269"
         inkscape:connector-curvature="0" />
      <path
         d="m 283.62982,152.41071 q 0,0.16041 -0.10208,0.31354 l -3.18646,4.78333 0,4.75417 q 0,0.54687 -0.54688,0.54687 -0.54687,0 -0.54687,-0.54687 l 0,-4.75417 -3.18646,-4.78333 q -0.10208,-0.15313 -0.10208,-0.31354 0,-0.21875 0.175,-0.37917 0.175,-0.16771 0.39375,-0.16771 0.27708,0 0.4375,0.24792 l 2.82916,4.24375 2.82917,-4.24375 q 0.16771,-0.24792 0.4375,-0.24792 0.21875,0 0.39375,0.16771 0.175,0.16042 0.175,0.37917 z"
         style="font-size:17.5px"
         id="path4271"
         inkscape:connector-curvature="0" />
      <path
         d="m 292.37982,152.41071 q 0,0.16041 -0.15313,0.39375 l -5.95,8.91041 5.54896,0 q 0.54688,0 0.54688,0.54688 0,0.54687 -0.54688,0.54687 l -6.53333,0.007 q -0.57604,0 -0.58333,-0.54688 0,-0.16042 0.15312,-0.39375 l 5.95,-8.91042 -5.54896,0 q -0.54687,0 -0.54687,-0.54687 0,-0.54688 0.54687,-0.54688 l 6.53334,-0.007 q 0.58333,0 0.58333,0.54688 z"
         style="font-size:17.5px"
         id="path4273"
         inkscape:connector-curvature="0" />
      <path
         d="m 73.622528,180.8555 q 0,1.58229 -1.122917,2.70521 -1.122916,1.12291 -2.705208,1.12291 -1.582292,0 -2.705208,-1.12291 -1.122917,-1.12292 -1.122917,-2.70521 0,-1.58229 1.122917,-2.70521 1.122916,-1.12292 2.705208,-1.12292 1.582292,0 2.705208,1.12292 1.122917,1.12292 1.122917,2.70521 z m -1.09375,0 q 0,-1.13021 -0.802083,-1.93229 -0.802084,-0.80209 -1.932292,-0.80209 -1.130208,0 -1.932292,0.80209 -0.802083,0.80208 -0.802083,1.93229 0,1.13021 0.802083,1.93229 0.802084,0.80208 1.932292,0.80208 1.130208,0 1.932292,-0.80208 0.802083,-0.80208 0.802083,-1.93229 z"
         style="font-size:17.5px"
         id="path4275"
         inkscape:connector-curvature="0" />
      <path
         d="m 82.372528,179.21487 q 0,1.96875 -0.926042,3.56563 -1.09375,1.90312 -2.902083,1.90312 -1.808333,0 -2.902083,-1.90312 -0.926042,-1.60417 -0.926042,-3.56563 0,-1.96875 0.926042,-3.56562 1.09375,-1.90313 2.902083,-1.90313 1.808333,0 2.902083,1.90313 0.926042,1.59687 0.926042,3.56562 z m -1.09375,0 q 0,-0.9552 -0.240625,-1.79375 -0.284375,-0.99166 -0.882292,-1.70625 -0.729166,-0.875 -1.611458,-0.875 -0.889583,0 -1.611458,0.875 -0.590625,0.71459 -0.882292,1.70625 -0.240625,0.83855 -0.240625,1.79375 0,0.95521 0.240625,1.79375 0.284375,0.99167 0.882292,1.70625 0.729166,0.875 1.611458,0.875 0.889583,0 1.611458,-0.875 0.590625,-0.71458 0.882292,-1.70625 0.240625,-0.83854 0.240625,-1.79375 z"
         style="font-size:17.5px"
         id="path4277"
         inkscape:connector-curvature="0" />
      <path
         d="m 91.122528,180.03154 q 0,1.77917 -1.00625,3.14271 -1.108333,1.50937 -2.821875,1.50937 -1.720833,0 -2.821875,-1.50937 -1.00625,-1.37813 -1.00625,-3.14271 0,-1.77187 1.00625,-3.13542 1.108333,-1.50937 2.821875,-1.50937 1.720833,0 2.821875,1.50937 1.00625,1.36355 1.00625,3.13542 z m -1.09375,0 q 0,-1.30521 -0.7,-2.35521 -0.7875,-1.19583 -2.034375,-1.19583 -1.246875,0 -2.034375,1.19583 -0.7,1.04271 -0.7,2.35521 0,1.3125 0.7,2.3625 0.7875,1.19583 2.034375,1.19583 1.246875,0 2.034375,-1.19583 0.7,-1.05 0.7,-2.3625 z m -2.180208,0 q 0,0.21875 -0.167709,0.39375 -0.167708,0.16771 -0.386458,0.16771 -0.21875,0 -0.386458,-0.16042 -0.167709,-0.16771 -0.167709,-0.40104 0,-0.53958 0.554167,-0.53229 0.554167,-0.007 0.554167,0.53229 z"
         style="font-size:17.5px"
         id="path4279"
         inkscape:connector-curvature="0" />
      <path
         d="m 99.325653,181.40237 q 0,1.35625 -0.9625,2.31875 -0.9625,0.9625 -2.31875,0.9625 -1.35625,0 -2.31875,-0.9625 -0.9625,-0.9625 -0.9625,-2.31875 0,-1.8302 1.560417,-2.7927 -1.013542,-0.81667 -1.013542,-2.12917 0,-1.13021 0.802083,-1.93229 0.802084,-0.80209 1.932292,-0.80209 1.130208,0 1.932292,0.80209 0.802083,0.80208 0.802083,1.93229 0,1.30521 -1.013542,2.12917 1.560417,0.9625 1.560417,2.7927 z m -1.640625,-4.92187 q 0,-0.67813 -0.48125,-1.15938 -0.48125,-0.48125 -1.159375,-0.48125 -0.678125,0 -1.159375,0.48125 -0.48125,0.48125 -0.48125,1.15938 0,0.67812 0.48125,1.15937 0.48125,0.48125 1.159375,0.48125 0.678125,0 1.159375,-0.48125 0.48125,-0.48125 0.48125,-1.15937 z m 0.546875,4.92187 q 0,-0.90416 -0.641667,-1.54583 -0.641666,-0.64167 -1.545833,-0.64167 -0.904167,0 -1.545833,0.64167 -0.641667,0.64167 -0.641667,1.54583 0,0.90417 0.641667,1.54584 0.641666,0.64166 1.545833,0.64166 0.904167,0 1.545833,-0.64166 0.641667,-0.64167 0.641667,-1.54584 z"
         style="font-size:17.5px"
         id="path4281"
         inkscape:connector-curvature="0" />
      <path
         d="m 114.37565,174.57737 q 0,0.34271 -0.24791,0.57605 -0.24063,0.23333 -0.58334,0.23333 -0.34271,0 -0.59062,-0.23333 -0.24063,-0.23334 -0.24063,-0.57605 0,-0.3427 0.24063,-0.58333 0.24791,-0.24792 0.59062,-0.24792 0.34271,0 0.58334,0.24792 0.24791,0.24063 0.24791,0.58333 z m 1.90313,9.55938 q 0,0.54687 -0.54688,0.54687 l -2.1875,0 q -0.54687,0 -0.54687,-0.54687 l 0,-6.01563 -1.64063,0 q -0.54687,0 -0.54687,-0.54687 0,-0.54688 0.54687,-0.54688 l 2.19479,0 q 0.53959,0 0.53959,0.54688 l 0,6.01562 1.64062,0 q 0.54688,0 0.54688,0.54688 z"
         style="font-size:17.5px"
         id="path4283"
         inkscape:connector-curvature="0" />
      <path
         d="m 125.02878,184.13675 q 0,0.54687 -0.54688,0.54687 l -4.375,0 q -0.54687,0 -0.54687,-0.54687 0,-0.54688 0.54687,-0.54688 l 1.64063,0 0,-8.75 -1.64063,0 q -0.54687,0 -0.54687,-0.54687 0,-0.54688 0.54687,-0.54688 l 4.375,0 q 0.54688,0 0.54688,0.54688 0,0.54687 -0.54688,0.54687 l -1.64062,0 0,8.75 1.64062,0 q 0.54688,0 0.54688,0.54688 z"
         style="font-size:17.5px"
         id="path4285"
         inkscape:connector-curvature="0" />
      <path
         d="m 134.87982,183.03571 q 0,0.15312 -0.11667,0.33541 -0.38646,0.59063 -1.15208,0.9625 -0.72917,0.35 -1.47292,0.35 -1.35625,0 -2.31875,-0.9625 -0.9625,-0.9625 -0.9625,-2.31875 l 0,-7.10937 q 0,-0.54688 0.54688,-0.54688 0.54687,0 0.54687,0.54688 l 0,7.10937 q 0,0.90417 0.64167,1.54584 0.64167,0.64166 1.54583,0.64166 0.79479,0 1.41459,-0.54687 0.62708,-0.55417 0.75833,-0.55417 0.21875,0 0.39375,0.16771 0.175,0.16042 0.175,0.37917 z"
         style="font-size:17.5px"
         id="path4287"
         inkscape:connector-curvature="0" />
      <path
         d="m 143.62253,184.13675 q 0,0.54687 -0.54688,0.54687 l -5.83333,0 q -0.54688,0 -0.54688,-0.53958 l 0,-9.85104 q 0,-0.54688 0.54688,-0.54688 0.54687,0 0.54687,0.54688 l 0,9.29687 5.28646,0 q 0.54688,0 0.54688,0.54688 z"
         style="font-size:17.5px"
         id="path4289"
         inkscape:connector-curvature="0" />
      <path
         d="m 151.46107,184.13675 q 0,0.54687 -0.54688,0.54687 l -4.01041,0 q -0.54688,0 -0.54688,-0.54687 0,-0.54688 0.54688,-0.54688 l 1.45833,0 0,-6.34375 -1.80104,1.80834 q -0.16771,0.16771 -0.37188,0.16771 -0.21875,0 -0.39375,-0.16771 -0.175,-0.16771 -0.175,-0.39375 0,-0.21146 0.16042,-0.37917 l 2.66875,-2.66146 q 0.24063,-0.24062 0.45208,-0.24062 0.55417,0 0.55417,0.65625 l 0,7.55416 1.45833,0 q 0.54688,0 0.54688,0.54688 z"
         style="font-size:17.5px"
         id="path4291"
         inkscape:connector-curvature="0" />
      <path
         d="m 168.2319,187.418 q 0,0.54687 -0.54687,0.54687 -0.90417,0 -1.54584,-0.64166 -0.64166,-0.64167 -0.64166,-1.54584 l 0,-3.28125 q 0,-0.45208 -0.32084,-0.77291 -0.32083,-0.32084 -0.77291,-0.32084 -0.54688,0 -0.54688,-0.54687 0,-0.54688 0.54688,-0.54688 0.45208,0 0.77291,-0.32083 0.32084,-0.32083 0.32084,-0.77292 l 0,-3.28125 q 0,-0.90416 0.64166,-1.54583 0.64167,-0.64167 1.54584,-0.64167 0.54687,0 0.54687,0.54688 0,0.54687 -0.54687,0.54687 -0.45209,0 -0.77292,0.32084 -0.32083,0.32083 -0.32083,0.77291 l 0,3.28125 q 0,0.98438 -0.74375,1.64063 0.74375,0.65625 0.74375,1.64062 l 0,3.28125 q 0,0.45209 0.32083,0.77292 0.32083,0.32083 0.77292,0.32083 0.54687,0 0.54687,0.54688 z"
         style="font-size:17.5px"
         id="path4293"
         inkscape:connector-curvature="0" />
      <path
         d="m 176.9819,180.8555 q 0,0.54687 -0.54687,0.54687 -0.45209,0 -0.77292,0.32084 -0.32083,0.32083 -0.32083,0.77291 l 0,3.28125 q 0,0.90417 -0.64167,1.54584 -0.64167,0.64166 -1.54583,0.64166 -0.54688,0 -0.54688,-0.54687 0,-0.54688 0.54688,-0.54688 0.45208,0 0.77291,-0.32083 0.32084,-0.32083 0.32084,-0.77292 l 0,-3.28125 q 0,-0.98437 0.74375,-1.64062 -0.74375,-0.65625 -0.74375,-1.64063 l 0,-3.28125 q 0,-0.45208 -0.32084,-0.77291 -0.32083,-0.32084 -0.77291,-0.32084 -0.54688,0 -0.54688,-0.54687 0,-0.54688 0.54688,-0.54688 0.90416,0 1.54583,0.64167 0.64167,0.64167 0.64167,1.54583 l 0,3.28125 q 0,0.45209 0.32083,0.77292 0.32083,0.32083 0.77292,0.32083 0.54687,0 0.54687,0.54688 z"
         style="font-size:17.5px"
         id="path4295"
         inkscape:connector-curvature="0" />
      <path
         d="m 194.4819,187.418 q 0,0.54687 -0.54687,0.54687 l -3.28125,0 q -0.21875,0 -0.38646,-0.1677 -0.16042,-0.16042 -0.16042,-0.37917 l 0,-13.125 q 0,-0.21875 0.16042,-0.37917 0.16771,-0.16771 0.38646,-0.16771 l 3.28125,0 q 0.54687,0 0.54687,0.54688 0,0.54687 -0.54687,0.54687 l -2.73438,0 0,12.03125 2.73438,0 q 0.54687,0 0.54687,0.54688 z"
         style="font-size:17.5px"
         id="path4297"
         inkscape:connector-curvature="0" />
      <path
         d="m 203.2319,174.293 0,13.125 q 0,0.21875 -0.16771,0.37917 -0.16041,0.1677 -0.37916,0.1677 l -3.28125,0 q -0.54688,0 -0.54688,-0.54687 0,-0.54688 0.54688,-0.54688 l 2.73437,0 0,-12.03125 -2.73437,0 q -0.54688,0 -0.54688,-0.54687 0,-0.54688 0.54688,-0.54688 l 3.28125,0 q 0.21875,0 0.37916,0.16771 0.16771,0.16042 0.16771,0.37917 z"
         style="font-size:17.5px"
         id="path4299"
         inkscape:connector-curvature="0" />
      <path
         d="m 222.37253,177.57425 q 0,0.44479 -0.46667,0.53229 -0.11667,0.0292 -0.81667,0.0146 0.62709,0.71459 0.62709,1.64063 0,1.3125 -1.17396,2.12187 1.83021,0.95521 1.83021,2.8 0,1.44375 -1.225,2.39896 -1.12292,0.88229 -2.60313,0.88229 -1.4875,0 -2.60312,-0.88229 -1.225,-0.95521 -1.225,-2.39896 0,-0.54687 0.54687,-0.54687 0.54688,0 0.54688,0.54687 0,0.98438 0.90416,1.61146 0.80938,0.57604 1.83021,0.57604 1.01354,0 1.83021,-0.57604 0.90417,-0.63437 0.90417,-1.61146 0,-0.98437 -0.90417,-1.61145 -0.80937,-0.57605 -1.83021,-0.57605 -1.23229,0 -2.15833,-0.73645 -1.00625,-0.7948 -1.01354,-1.99792 0,-1.20313 1.01354,-1.99792 0.93333,-0.73646 2.15833,-0.73646 l 3.28125,0 q 0.54688,0 0.54688,0.54688 z m -1.75,2.1875 q 0,-0.73646 -0.69271,-1.225 -0.6125,-0.41563 -1.38542,-0.41563 -0.76562,0 -1.38541,0.41563 -0.69271,0.48125 -0.69271,1.225 0,0.73646 0.69271,1.225 0.6125,0.41562 1.38541,0.41562 0.76563,0 1.38542,-0.41562 0.69271,-0.48854 0.69271,-1.225 z"
         style="font-size:17.5px"
         id="path4301"
         inkscape:connector-curvature="0" />
      <path
         d="m 231.12253,179.21487 q 0,2.93855 -2.08542,5.02396 -2.08542,2.08542 -5.02396,2.08542 -0.54687,0 -0.54687,-0.54688 0,-0.54687 0.54687,-0.54687 1.47292,0 2.77084,-0.67813 1.3052,-0.67812 2.15104,-1.88854 -0.76563,0.37917 -1.64063,0.37917 -1.58229,0 -2.70521,-1.12292 -1.12291,-1.12291 -1.12291,-2.70521 0,-1.58229 1.12291,-2.7052 1.12292,-1.12292 2.70521,-1.12292 1.58229,0 2.70521,1.12292 1.12292,1.12291 1.12292,2.7052 z m -1.09375,0 q 0,-1.1302 -0.80209,-1.93229 -0.80208,-0.80208 -1.93229,-0.80208 -1.13021,0 -1.93229,0.80208 -0.80208,0.80209 -0.80208,1.93229 0,1.13021 0.80208,1.9323 0.80208,0.80208 1.93229,0.80208 1.13021,0 1.93229,-0.80208 0.80209,-0.80209 0.80209,-1.9323 z"
         style="font-size:17.5px"
         id="path4303"
         inkscape:connector-curvature="0" />
      <path
         d="m 239.14336,187.418 q 0,0.54687 -0.54687,0.54687 -0.54688,0 -0.54688,-0.54687 l 0,-3.76979 q -0.99167,1.03541 -2.36979,1.03541 -1.49479,0 -2.50104,-1.18125 -0.9625,-1.1302 -0.9625,-2.64687 0,-1.50938 0.9625,-2.64688 1.00625,-1.18125 2.50104,-1.18125 1.37812,0 2.36979,1.03542 l 0,-0.27708 q -0.0146,-0.75834 0.54688,-0.75834 0.54687,0 0.54687,0.54688 l 0,9.84375 z m -1.09375,-6.5625 q 0.007,-1.06458 -0.63437,-1.85938 -0.69271,-0.875 -1.73542,-0.875 -1.03542,0 -1.72813,0.875 -0.64166,0.80209 -0.64166,1.85938 0,1.06458 0.64166,1.85937 0.69271,0.875 1.72813,0.875 1.03542,0 1.73542,-0.875 0.64166,-0.79479 0.63437,-1.85937 z"
         style="font-size:17.5px"
         id="path4305"
         inkscape:connector-curvature="0" />
      <path
         d="m 248.62982,182.693 q 0,0.16042 -0.12396,0.34271 -0.51042,0.72916 -1.38542,1.18854 -0.8677,0.45937 -1.76458,0.45937 -1.97604,0 -3.25208,-1.79375 -1.1375,-1.61145 -1.1375,-3.675 0,-2.05625 1.1375,-3.675 1.27604,-1.79375 3.25208,-1.79375 0.89688,0 1.76458,0.46667 0.875,0.45938 1.38542,1.18125 0.13125,0.18229 0.12396,0.34271 0,0.21875 -0.175,0.38646 -0.16771,0.16771 -0.39375,0.16771 -0.13854,0 -0.33542,-0.13125 -0.18958,-0.13855 -0.22604,-0.2625 -0.007,-0.0146 -0.15312,-0.16771 -0.88959,-0.88959 -1.99063,-0.88959 -1.01354,0 -1.85937,0.78021 -0.75105,0.68542 -1.12292,1.73542 -0.31354,0.875 -0.31354,1.85937 0,0.99167 0.31354,1.85938 0.37917,1.04271 1.11562,1.73542 0.84584,0.7802 1.86667,0.7802 1.09375,0 1.99063,-0.88958 0.0656,-0.051 0.15312,-0.16042 0.007,-0.10937 0.21875,-0.2552 0.21875,-0.14584 0.34271,-0.14584 0.21875,0 0.39375,0.16771 0.175,0.16771 0.175,0.38646 z"
         style="font-size:17.5px"
         id="path4307"
         inkscape:connector-curvature="0" />
      <path
         d="m 257.01524,175.73675 q 0,0.21875 -0.175,0.38646 -0.16771,0.16771 -0.39375,0.16771 -0.21875,0 -0.42292,-0.22605 -0.0948,-0.11666 -0.30625,-0.37187 -0.83125,-0.85313 -1.82292,-0.85313 -0.99166,0 -1.80104,0.83855 -0.69271,0.71458 -1.02083,1.76458 -0.2625,0.83125 -0.2625,1.77187 0,0.94063 0.2625,1.77188 0.32812,1.05 1.02083,1.76458 0.80938,0.83854 1.80104,0.83854 1.14479,0 2.01979,-1.07916 l 0,-3.29584 q 0,-0.54687 0.54688,-0.54687 0.54687,0 0.54687,0.54687 l 0,3.48542 q 0,0.75104 -1.21041,1.40729 -1.06459,0.57604 -1.90313,0.57604 -1.91041,0 -3.12083,-1.8375 -1.05729,-1.60416 -1.05729,-3.63125 0,-2.02708 1.05729,-3.63125 1.20312,-1.8375 3.12083,-1.8375 0.875,0 1.69896,0.46667 0.80938,0.45938 1.3125,1.20313 0.10938,0.16041 0.10938,0.32083 z"
         style="font-size:17.5px"
         id="path4309"
         inkscape:connector-curvature="0" />
      <path
         d="m 266.12253,187.418 q 0,0.54687 -0.54688,0.54687 -1.28333,0 -2.26771,-1.0427 -0.83125,-0.8823 -1.24687,-2.24584 -1.72083,-0.13854 -2.73438,-1.99791 -0.86041,-1.575 -0.86041,-3.46355 0,-1.96875 0.92604,-3.56562 1.09375,-1.90313 2.90208,-1.90313 1.80834,0 2.90209,1.90313 0.92604,1.60417 0.92604,3.56562 0,1.69896 -0.7,3.15 -0.81667,1.72084 -2.25313,2.1875 0.30625,0.90417 0.875,1.55313 0.7,0.76562 1.53125,0.76562 0.54688,0 0.54688,0.54688 z m -1.09375,-8.20313 q 0,-0.9552 -0.24063,-1.79375 -0.28437,-0.99166 -0.88229,-1.70625 -0.72917,-0.875 -1.61146,-0.875 -0.88958,0 -1.61146,0.875 -0.59062,0.71459 -0.88229,1.69896 -0.24062,0.84584 -0.24062,1.80104 0,1.35625 0.51041,2.53021 0.62709,1.42917 1.74271,1.76459 -0.0656,-0.51042 -0.0656,-1.01355 0,-0.54687 0.54687,-0.54687 0.54688,0 0.54688,0.54687 0,0.49584 0.0656,0.9625 1.05729,-0.40833 1.64063,-1.77916 0.48125,-1.15209 0.48125,-2.46459 z"
         style="font-size:17.5px"
         id="path4311"
         inkscape:connector-curvature="0" />
      <path
         d="m 282.53607,180.82633 q 0,0.16771 -0.13854,0.40834 -0.41563,0.71458 -1.50938,0.71458 -0.62708,0 -1.29062,-0.54688 -0.66354,-0.54687 -0.89688,-0.54687 -0.37916,0 -0.57604,0.16771 -0.13125,0.37916 -0.50312,0.37916 -0.57605,0 -0.56875,-0.5177 0,-0.16771 0.13854,-0.40834 0.41562,-0.71458 1.50937,-0.71458 0.62709,0 1.29063,0.54687 0.66354,0.54688 0.89687,0.54688 0.44479,0 0.62709,-0.26979 0.18958,-0.27709 0.45208,-0.27709 0.56875,0 0.56875,0.51771 z"
         style="font-size:17.5px"
         id="path4313"
         inkscape:connector-curvature="0" />
      <path
         d="m 290.7319,180.8555 q 0,0.54687 -0.54687,0.54687 l -3.28125,0 q -0.54688,0 -0.54688,-0.54687 0,-0.54688 0.54688,-0.54688 l 3.28125,0 q 0.54687,0 0.54687,0.54688 z"
         style="font-size:17.5px"
         id="path4315"
         inkscape:connector-curvature="0" />
      <path
         d="m 301.12253,180.03154 q 0,0.55417 -0.54688,0.55417 l -2.73437,0 0,2.72708 q 0,0.55417 -0.54688,0.55417 -0.54687,0 -0.54687,-0.55417 l 0,-2.72708 -2.73438,0 q -0.54687,0 -0.54687,-0.55417 0,-0.53958 0.54687,-0.53958 l 2.73438,0 0,-2.74167 q 0,-0.53958 0.54687,-0.53958 0.54688,0 0.54688,0.53958 l 0,2.74167 2.73437,0 q 0.54688,0 0.54688,0.53958 z"
         style="font-size:17.5px"
         id="path4317"
         inkscape:connector-curvature="0" />
      <path
         d="m 309.87253,178.39821 q 0,0.53958 -0.54688,0.53958 l -6.5625,0 q -0.54687,0 -0.54687,-0.53958 0,-0.55417 0.54687,-0.55417 l 6.5625,0 q 0.54688,0 0.54688,0.55417 z m 0,3.28125 q 0,0.53958 -0.54688,0.53958 l -6.5625,0 q -0.54687,0 -0.54687,-0.53958 0,-0.55417 0.54687,-0.55417 l 6.5625,0 q 0.54688,0 0.54688,0.55417 z"
         style="font-size:17.5px"
         id="path4319"
         inkscape:connector-curvature="0" />
      <path
         d="m 318.62982,180.03154 q 0,0.33542 -0.40104,0.53958 l -6.46771,3.2375 q -0.13125,0.0656 -0.2625,0.0656 -0.21875,0 -0.37917,-0.175 -0.16041,-0.175 -0.16041,-0.40104 0,-0.31354 0.30625,-0.47396 l 5.58541,-2.79271 -5.58541,-2.78542 q -0.30625,-0.16041 -0.30625,-0.47395 0,-0.21875 0.15312,-0.39375 0.16042,-0.1823 0.38646,-0.1823 0.13125,0 0.2625,0.0656 l 6.46771,3.2375 q 0.40104,0.20417 0.40104,0.53229 z"
         style="font-size:17.5px"
         id="path4321"
         inkscape:connector-curvature="0" />
    </g>
  </g>
</svg>
