<svg xmlns="http://www.w3.org/2000/svg" width="307.646" height="112.379" viewBox="0 0 288.418 105.355"><g font-weight="400" font-family="Monofurbold Nerd Font" letter-spacing="0" word-spacing="0" fill="#fff"><g style="line-height:125%;text-decoration-line:underline" font-size="27.5" text-decoration="underline"><path d="M13.372 16.81q.034.125.034.24 0 .115-.023.23-.011.114-.034.228-.023.115-.069.23-.046.103-.114.206-.07.103-.15.194-.148.16-.355.253-.206.103-.4.137-.195.046-.413.046-.619 0-1.02-.344-.435-.367-.504-.997l-.997-7.597-1.111 4.217q-.138.561-.539.928-.401.355-.974.355t-.985-.366q-.401-.367-.527-.917L4.079 9.636l-.997 7.597q-.08.619-.492.974-.401.367-1.032.367-.733 0-1.168-.436Q0 17.726 0 17.05q0-.126.034-.24L2.062 1.454Q2.166.7 2.658.321q.207-.16.447-.23.24-.08.504-.08.378 0 .7.172.332.172.526.459.207.275.298.63l1.57 6.096 1.57-6.096q.137-.55.538-.905.401-.356.963-.356.596 0 .997.321.103.08.183.195.092.103.15.218.068.103.114.229.046.114.068.24.035.115.058.241l2.028 15.354zM27.156 11.87q0 .55-.08 1.078-.08.515-.24 1.008-.161.493-.402.951-.229.459-.55.894-.32.435-.71.802-1.96 1.97-4.732 1.97-2.773 0-4.733-1.958-1.959-1.96-1.959-4.744 0-2.785 1.96-4.744 1.959-1.96 4.743-1.96.55 0 1.066.08.527.081 1.02.241.492.16.95.402.459.229.883.55.435.309.802.698 1.97 1.948 1.982 4.733zm-3.093 0q0-.309-.046-.584-.035-.286-.126-.538-.08-.264-.207-.504-.126-.252-.298-.482-.171-.229-.378-.446-.55-.539-1.18-.791-.619-.264-1.375-.264-1.49 0-2.555 1.066-1.054 1.054-1.054 2.544t1.054 2.555q1.066 1.054 2.555 1.054.756 0 1.375-.252.63-.263 1.169-.802.55-.55.802-1.169.264-.63.264-1.386zM40.345 17.027q0 .71-.424 1.123-.413.435-1.135.424-.71 0-1.122-.424-.436-.413-.424-1.123v-6.016q0-.595-.195-1.054-.195-.458-.607-.894-.287-.263-.585-.446-.298-.184-.642-.264-.332-.092-.721-.092-.596 0-1.066.195-.458.195-.882.607-.802.814-.791 1.948v6.016q0 .71-.424 1.123-.412.435-1.134.424-.15 0-.298-.023-.15-.023-.298-.069-.138-.046-.275-.126-.138-.08-.252-.206-.23-.218-.332-.504-.092-.298-.092-.619V6.715q0-.71.412-1.123.413-.436 1.135-.424.481 0 .836.24.298.207.47.573 1.34-.813 2.99-.813.596 0 1.158.114.561.103 1.077.321.527.206.997.539.481.32.905.744 1.719 1.708 1.719 4.125v6.016zM54.656 11.87q0 .55-.08 1.078-.08.515-.24 1.008-.161.493-.402.951-.229.459-.55.894-.32.435-.71.802-1.96 1.97-4.732 1.97-2.773 0-4.733-1.958-1.959-1.96-1.959-4.744 0-2.785 1.96-4.744 1.959-1.96 4.743-1.96.55 0 1.066.08.527.081 1.02.241.492.16.95.402.459.229.883.55.435.309.802.698 1.97 1.948 1.982 4.733zm-3.093 0q0-.309-.046-.584-.035-.286-.126-.538-.08-.264-.207-.504-.126-.252-.298-.482-.171-.229-.378-.446-.55-.539-1.18-.791-.619-.264-1.375-.264-1.49 0-2.555 1.066-1.054 1.054-1.054 2.544t1.054 2.555q1.066 1.054 2.555 1.054.756 0 1.375-.252.63-.263 1.169-.802.55-.55.802-1.169.264-.63.264-1.386zM68.418 3.288q0 .642-.482 1.1-.47.447-1.1.447-.252 0-.48-.103-.23-.103-.39-.217-.15-.127-.356-.321-.595-.562-.87-.745-.55-.344-1.318-.344-.287 0-.55.046-.264.046-.504.149-.23.103-.459.252-.217.149-.435.355-.138.15-.252.298-.115.15-.206.31-.092.16-.16.32-.058.16-.104.333h3.53q.71 0 1.122.424.436.412.424 1.123 0 .126-.023.24-.011.103-.034.23-.023.125-.069.24-.046.103-.126.218-.069.103-.172.194-.149.15-.344.253-.183.091-.378.137-.194.034-.4.034h-3.61v8.766q0 .71-.424 1.123-.413.435-1.123.424-.71 0-1.123-.424-.435-.413-.424-1.123V8.261H56.41l-.137-.023q-.057-.011-.126-.011-.057-.011-.126-.034l-.138-.046-.114-.046q-.058-.034-.126-.057-.058-.035-.115-.08-.057-.058-.103-.127-.23-.217-.332-.504Q55 7.035 55 6.715q0-.71.424-1.123.412-.436 1.123-.424h1.066q.217-1.983 1.684-3.438Q61.004.011 63.422.011q1.33 0 2.624.62 1.375.652 2.074 1.764.137.206.218.435.08.218.08.458zM81.595 12.444q0 1.26-.459 2.36-.458 1.1-1.34 1.97-1.788 1.8-4.331 1.8-2.544 0-4.355-1.788-1.799-1.799-1.799-4.342v-5.73q0-.71.424-1.122.413-.436 1.135-.424.71 0 1.123.424.435.412.424 1.123v5.729q0 1.249.893 2.142.894.894 2.143.894.642 0 1.157-.218.516-.217.974-.676.47-.458.688-.985.218-.527.218-1.157v-5.73q0-.148.022-.297.035-.15.07-.287.045-.149.125-.286.08-.138.195-.252.15-.15.344-.241.195-.103.39-.138.194-.045.4-.045.71 0 1.123.424.436.412.436 1.123v5.729zM95.918 8.64q0 .653-.482 1.1-.47.446-1.1.458-.607 0-1.134-.562-1.375-1.386-2.853-1.375-.31 0-.596.046-.286.035-.538.126-.252.08-.505.207-.24.126-.47.297-.229.172-.446.379-1.066 1.065-1.043 2.555v5.156q0 .71-.424 1.123-.412.435-1.134.424-.15 0-.298-.023-.15-.023-.298-.069-.138-.046-.275-.126-.138-.08-.252-.206-.23-.218-.332-.504-.092-.298-.092-.619V6.715q0-.71.412-1.123.413-.436 1.135-.424.263 0 .504.08.252.069.458.23.184.137.298.343.126.206.218.435 1.615-1.088 3.678-1.088 1.455 0 2.887.641 1.536.7 2.35 1.891.332.481.332.94zM109.656 11.87q0 2.716-1.81 4.676-1.88 2.028-4.606 2.028-2.716 0-4.595-2.028-1.822-1.96-1.834-4.675V1.558q0-.71.424-1.123Q97.648 0 98.37.011q.71 0 1.123.424.435.413.424 1.123v4.56q1.478-.95 3.323-.95 2.715 0 4.606 2.028.905.985 1.352 2.165.458 1.17.458 2.51zm-3.334 1.364q.24-.63.24-1.363 0-.734-.24-1.352-.23-.63-.722-1.18-.493-.55-1.077-.814-.573-.264-1.295-.264-.71 0-1.283.264-.573.252-1.054.813-.252.264-.436.562-.183.298-.31.607-.114.298-.171.642-.057.344-.057.722 0 1.466.974 2.532.962 1.077 2.349 1.077.48 0 .893-.114.413-.115.768-.356.367-.24.699-.607.493-.538.722-1.169zM123.406 11.87q0 .55-.08 1.078-.08.515-.24 1.008-.161.493-.402.951-.229.459-.55.894-.32.435-.71.802-1.96 1.97-4.732 1.97-2.773 0-4.733-1.958Q110 14.655 110 11.87q0-2.785 1.96-4.744 1.959-1.96 4.743-1.96.55 0 1.066.08.527.081 1.02.241.492.16.95.402.459.229.883.55.435.309.802.698 1.97 1.948 1.982 4.733zm-3.093 0q0-.309-.046-.584-.035-.286-.126-.538-.08-.264-.207-.504-.126-.252-.298-.482-.171-.229-.378-.446-.55-.539-1.18-.791-.619-.264-1.375-.264-1.49 0-2.555 1.066-1.054 1.054-1.054 2.544t1.054 2.555q1.066 1.054 2.555 1.054.756 0 1.375-.252.63-.263 1.169-.802.55-.55.802-1.169.264-.63.264-1.386zM137.168 15.297q0 .447-.298.916-.71 1.089-2.074 1.742-1.283.619-2.624.619-2.418 0-4.137-1.707-1.707-1.72-1.707-4.137V1.558q0-.71.424-1.123.413-.435 1.123-.424.71 0 1.123.424.435.413.424 1.123V12.73q0 1.123.813 1.937.814.813 1.937.813.985 0 1.776-.687.126-.126.332-.321.218-.206.333-.298.114-.092.275-.206.171-.126.332-.172.172-.046.366-.046.207 0 .402.057.194.046.366.15.184.102.332.24.23.218.356.504.126.286.126.596zM149.76 17.027q0 .71-.412 1.123-.413.435-1.134.424-.62 0-1.009-.344-.286-.24-.412-.607-1.41.95-3.163.95-2.67 0-4.457-2.096-1.673-1.97-1.673-4.606t1.673-4.606q1.787-2.097 4.457-2.097.814 0 1.581.217.78.218 1.444.642V1.558q0-.206.035-.4.045-.196.137-.39.103-.195.252-.333.218-.229.516-.32.298-.104.619-.104.71 0 1.122.424.436.413.424 1.123v15.469zm-3.964-2.647q.86-1.077.86-2.51 0-1.432-.86-2.509-.882-1.1-2.177-1.1-1.284 0-2.166 1.1-.86 1.077-.86 2.51 0 .733.207 1.352.218.607.653 1.157.882 1.1 2.177 1.1t2.166-1.1zM177.272 17.038q0 .688-.401 1.1-.436.447-1.18.447-.459 0-.825-.275-.367-.263-.573-.687l-5.042-9.717v9.121q0 .71-.424 1.123-.412.435-1.134.424-.15 0-.298-.023-.15-.023-.298-.069-.138-.046-.275-.126-.138-.08-.252-.206-.23-.218-.332-.504-.092-.298-.092-.619l-.012-15.48q0-.688.401-1.1.218-.24.516-.344.31-.103.665-.103.206 0 .378.057.172.046.32.126.15.08.276.207.137.126.24.275.103.137.183.297l5.042 9.717V1.56q0-.207.035-.402.045-.195.137-.39.103-.194.252-.332.218-.229.516-.32.298-.104.619-.104.71 0 1.122.424.23.218.321.516.103.286.103.607l.012 15.48zM192.168 14.437q0 .15-.035.287-.023.137-.068.263-.046.115-.126.253-.906 1.558-2.647 2.463-1.65.87-3.472.87-2.842 0-4.904-1.89-2.166-1.948-2.166-4.812 0-2.865 2.166-4.813 2.062-1.89 4.904-1.89.527 0 1.065.091.55.08 1.1.275 1.25.413 2.475 1.307.814.595 1.25 1.203.446.607.446 1.306 0 .16-.034.32-.035.161-.103.31-.206.436-.676.688l-7.78 4.182q.985.63 2.257.63.985 0 1.719-.32.744-.322 1.329-.963.046-.057.091-.126l.115-.138.115-.16q.068-.092.149-.195.435-.55 1.008-.665.126-.022.24-.022.608 0 1.09.435.492.458.492 1.111zm-4.08-5.545q-.985-.63-2.268-.63-.814 0-1.501.251-.676.253-1.272.78-.619.538-.917 1.168-.286.63-.286 1.41 0 .183.023.378l6.222-3.357zM205.918 8.64q0 .653-.482 1.1-.47.446-1.1.458-.607 0-1.134-.562-1.375-1.386-2.853-1.375-.31 0-.596.046-.286.035-.538.126-.252.08-.505.207-.24.126-.47.297-.229.172-.446.379-1.066 1.065-1.043 2.555v5.156q0 .71-.424 1.123-.412.435-1.134.424-.15 0-.298-.023-.15-.023-.298-.069-.138-.046-.275-.126-.138-.08-.252-.206-.23-.218-.332-.504-.092-.298-.092-.619V6.715q0-.71.412-1.123.413-.436 1.135-.424.263 0 .504.08.252.069.458.23.184.137.298.343.126.206.218.435 1.615-1.088 3.678-1.088 1.455 0 2.887.641 1.536.7 2.35 1.891.332.481.332.94zM218.51 17.027q0 .71-.412 1.123-.413.435-1.134.424-.62 0-1.009-.344-.286-.24-.412-.607-1.41.95-3.163.95-2.67 0-4.457-2.096-1.673-1.97-1.673-4.606t1.673-4.606q1.787-2.097 4.457-2.097.814 0 1.581.217.78.218 1.444.642V1.558q0-.206.035-.4.045-.196.137-.39.103-.195.252-.333.218-.229.516-.32.298-.104.619-.104.71 0 1.122.424.436.413.424 1.123v15.469zm-3.964-2.647q.86-1.077.86-2.51 0-1.432-.86-2.509-.882-1.1-2.177-1.1-1.284 0-2.166 1.1-.86 1.077-.86 2.51 0 .733.207 1.352.218.607.653 1.157.882 1.1 2.177 1.1t2.166-1.1zM247.156 9.293q0 .71-.424 1.123-.412.435-1.123.424h-7.608v6.187q0 .71-.424 1.123-.412.435-1.134.424-.15 0-.298-.023-.15-.023-.298-.069-.138-.046-.275-.126-.138-.08-.252-.206-.23-.218-.332-.504-.092-.298-.092-.619V1.547q0-.7.412-1.112.413-.435 1.112-.424h9.19q.71 0 1.122.424.436.413.424 1.123 0 .71-.424 1.123-.412.436-1.123.424h-7.608v4.64h7.608q.126 0 .23.024.114.011.24.034.126.023.23.069.114.046.217.126.115.069.206.172.23.218.321.515.103.287.103.608zM260.906 11.87q0 .55-.08 1.078-.08.515-.24 1.008-.161.493-.402.951-.229.459-.55.894-.32.435-.71.802-1.96 1.97-4.732 1.97-2.773 0-4.733-1.958-1.959-1.96-1.959-4.744 0-2.785 1.96-4.744 1.959-1.96 4.743-1.96.55 0 1.066.08.527.081 1.02.241.492.16.95.402.459.229.883.55.435.309.802.698 1.97 1.948 1.982 4.733zm-3.093 0q0-.309-.046-.584-.035-.286-.126-.538-.08-.264-.207-.504-.126-.252-.298-.482-.171-.229-.378-.446-.55-.539-1.18-.791-.619-.264-1.375-.264-1.49 0-2.555 1.066-1.054 1.054-1.054 2.544t1.054 2.555q1.066 1.054 2.555 1.054.756 0 1.375-.252.63-.263 1.169-.802.55-.55.802-1.169.264-.63.264-1.386zM274.095 17.027q0 .71-.424 1.123-.413.435-1.135.424-.71 0-1.122-.424-.436-.413-.424-1.123v-6.016q0-.595-.195-1.054-.195-.458-.607-.894-.287-.263-.585-.446-.298-.184-.642-.264-.332-.092-.721-.092-.596 0-1.066.195-.458.195-.882.607-.802.814-.791 1.948v6.016q0 .71-.424 1.123-.412.435-1.134.424-.15 0-.298-.023-.15-.023-.298-.069-.138-.046-.275-.126-.138-.08-.252-.206-.23-.218-.332-.504-.092-.298-.092-.619V6.715q0-.71.412-1.123.413-.436 1.135-.424.48 0 .836.24.298.207.47.573 1.34-.813 2.99-.813.596 0 1.158.114.561.103 1.077.321.527.206.997.539.481.32.905.744 1.719 1.708 1.719 4.125v6.016zM288.418 15.297q0 .447-.298.916-.71 1.089-2.074 1.742-1.283.619-2.624.619-2.418 0-4.137-1.707-1.707-1.72-1.707-4.137V8.261h-1.169l-.137-.023q-.057-.011-.126-.011-.057-.011-.126-.034l-.138-.046-.114-.046q-.058-.034-.126-.057-.058-.035-.115-.08-.057-.058-.103-.127-.23-.217-.332-.504-.092-.298-.092-.618 0-.71.424-1.123.412-.436 1.123-.424h1.031v-3.61q0-.71.424-1.123.413-.435 1.123-.424.71 0 1.123.424.435.413.424 1.123v3.61h3.61q.71 0 1.122.424.436.412.424 1.123 0 .126-.023.24-.011.103-.034.23-.023.125-.069.24-.046.103-.126.218-.069.103-.172.194-.149.15-.344.253-.183.091-.378.137-.194.034-.4.034h-3.61v4.47q0 1.122.813 1.936.814.813 1.937.813.263 0 .493-.034.24-.046.435-.115.195-.08.39-.195.286-.183.87-.744.31-.31.585-.47.286-.172.641-.172.207 0 .402.057.194.046.366.15.184.102.332.24.23.218.356.504.126.286.126.596z"/></g><g style="line-height:125%" font-size="17.5"><path d="M4.906 52.257q.401-.138.817-.204.415-.073.86-.073.182 0 .357.015.175.007.343.029.175.015.343.051.168.037.328.08.168.044.32.102-.575-.495-1.69-.495-.832 0-1.656.488l-.022.007zm-.335.131q-.051.015-.102.022H4.38q-.408 0-.7-.306-.284-.299-.284-.7 0-.255.116-.467.117-.218.328-.379.22-.16.453-.262.24-.11.561-.204.955-.3 1.728-.3.73 0 1.393.19.67.183 1.254.554.7.445 1.072 1.065.372.613.372 1.364v4.375q0 .452-.27.714-.263.277-.722.27-.16 0-.306-.044-.146-.043-.277-.138-.08-.059-.153-.146-.073-.08-.124-.19-.503.255-1.065.387-.554.131-1.174.131-1.473 0-2.647-.744-.7-.445-1.072-1.064-.364-.62-.364-1.364 0-.75.364-1.363.372-.62 1.072-1.065.306-.19.635-.335zm4.127 2.764q0-.153-.08-.306t-.27-.321q-.343-.299-.817-.438-.437-.13-.948-.138-.758 0-1.24.211-.48.212-.75.613-.066.11-.095.204-.03.095-.03.175 0 .051.008.11.014.05.044.123.029.066.072.146.54.831 1.991.824.168 0 .328-.014.168-.015.321-.037.16-.03.299-.087.467-.146.817-.438.35-.299.35-.627zM19.781 54.058q0 1.728-1.152 2.975-1.196 1.29-2.931 1.29-1.728 0-2.924-1.29-1.16-1.247-1.167-2.975v-6.562q0-.452.27-.715.262-.277.722-.27.452 0 .714.27.277.263.27.715v2.902q.94-.605 2.115-.605 1.728 0 2.93 1.29.577.627.861 1.378.292.744.292 1.597zm-2.122.868q.153-.401.153-.868 0-.466-.153-.86-.146-.401-.46-.751-.313-.35-.685-.518-.364-.168-.824-.168-.452 0-.816.168-.365.16-.671.518-.16.168-.277.357-.117.19-.197.387-.073.19-.11.408-.036.219-.036.46 0 .933.62 1.61.612.686 1.495.686.306 0 .568-.073.263-.073.489-.226.233-.153.445-.386.313-.343.46-.744zM28.538 51.725q0 .197-.08.38-.073.181-.211.327-.139.139-.321.219-.182.08-.38.08-.284 0-.605-.219-1.064-.75-2.114-.75-.562 0-1.05.16-.489.16-.919.481-.306.233-.503.489-.197.255-.292.546-.094.285-.094.62 0 .503.218.912.219.4.678.743.854.642 1.962.642 1.043 0 2.114-.744.307-.218.598-.218.409 0 .708.306.291.299.291.693 0 .393-.335.729-.3.299-.7.517-.401.22-.897.387-.904.299-1.78.299-1.859 0-3.28-1.138Q20 55.946 20 54.058q0-1.888 1.546-3.128 1.421-1.137 3.28-1.137.438 0 .883.08.445.073.897.219.503.167.911.4.409.227.693.526.153.145.24.328.088.175.088.379zM36.552 57.34q0 .452-.263.714-.262.277-.722.27-.393 0-.641-.219-.182-.153-.263-.386-.897.605-2.012.605-1.7 0-2.837-1.334-1.064-1.255-1.064-2.932t1.064-2.931q1.138-1.334 2.837-1.334.518 0 1.006.138.496.139.919.409v-2.844q0-.131.022-.255.029-.124.087-.248.066-.124.16-.212.14-.146.329-.204.19-.066.393-.066.453 0 .715.27.277.263.27.715v9.844zm-2.523-1.685q.547-.685.547-1.597 0-.911-.547-1.597-.562-.7-1.385-.7-.817 0-1.379.7-.546.686-.546 1.597 0 .467.13.86.14.387.416.737.562.7 1.386.7.824 0 1.378-.7zM46.038 55.692q0 .094-.022.182-.014.087-.043.168-.03.072-.08.16-.577.992-1.685 1.568-1.05.554-2.21.554-1.808 0-3.12-1.203-1.378-1.24-1.378-3.063 0-1.823 1.378-3.062 1.312-1.203 3.12-1.203.336 0 .679.058.35.05.7.175.795.262 1.575.831.517.38.795.766.284.386.284.831 0 .102-.022.204t-.066.197q-.13.277-.43.438l-4.95 2.661q.626.401 1.436.401.627 0 1.093-.204.474-.204.846-.613.03-.036.059-.08l.072-.087.073-.102.095-.124q.277-.35.642-.423.08-.015.153-.015.386 0 .693.277.313.292.313.708zm-2.596-3.53q-.627-.4-1.443-.4-.518 0-.955.16-.43.16-.81.496-.394.342-.583.743-.182.401-.182.897 0 .117.014.24l3.96-2.136zM54.788 48.597q0 .408-.306.7-.299.284-.7.284-.16 0-.306-.065-.146-.066-.248-.139-.095-.08-.226-.204-.38-.357-.554-.474-.35-.219-.839-.219-.182 0-.35.03-.168.029-.32.094-.147.066-.292.16-.139.095-.277.227-.088.094-.16.19-.074.094-.132.196-.058.102-.102.204-.037.102-.066.212h2.246q.452 0 .715.27.277.262.27.714 0 .08-.015.153-.007.066-.022.146-.015.08-.044.153-.03.066-.08.139-.044.065-.11.124-.094.094-.218.16-.117.058-.24.088-.125.021-.256.021h-2.297v5.579q0 .452-.27.714-.262.277-.714.27-.452 0-.715-.27-.277-.262-.27-.714V51.76h-.743l-.088-.014q-.036-.007-.08-.007-.037-.007-.08-.022l-.088-.03-.073-.028q-.036-.022-.08-.037-.036-.022-.073-.05-.036-.037-.065-.081-.146-.139-.212-.32-.058-.19-.058-.395 0-.452.27-.714.262-.277.714-.27h.678q.139-1.262 1.072-2.188 1.087-1.093 2.625-1.093.846 0 1.67.393.875.416 1.32 1.123.087.132.138.277.051.139.051.292zM63.531 50.777q0 .343-.182.59-.219.292-.65.373-.036.007-.087.014.132.284.197.583.066.3.066.628 0 .24-.037.473-.036.227-.11.445-.065.212-.167.416-.102.197-.24.38-.139.181-.307.342.744.517 1.13 1.254.387.73.387 1.611 0 1.656-1.385 2.742-1.24.977-2.88.977-1.641 0-2.88-.977Q55 59.542 55 57.886q0-.452.27-.714.262-.277.714-.27.204 0 .387.066.19.058.328.204.277.262.27.714 0 .387.167.693.175.306.547.569.7.488 1.582.488.183 0 .35-.014.168-.015.328-.059.16-.043.314-.109.153-.058.299-.138.146-.073.292-.168.379-.263.546-.569.168-.306.168-.693 0-.386-.175-.692-.168-.307-.54-.57-.7-.488-1.582-.488-.342 0-.67-.05-.321-.052-.628-.154-.306-.102-.59-.262-.285-.16-.547-.365-1.174-.926-1.174-2.34 0-.7.299-1.291.306-.598.875-1.05 1.05-.831 2.435-.831h3.282q.452 0 .714.27.27.255.27.714zm-2.625 2.188q0-.059-.007-.11 0-.05-.015-.102-.007-.058-.029-.102-.014-.051-.036-.095-.022-.05-.051-.095-.03-.05-.073-.094-.037-.044-.08-.088-.044-.044-.102-.087-.051-.051-.11-.088-.255-.168-.532-.255-.277-.088-.605-.088-.635 0-1.138.343-.277.19-.394.394-.109.204-.109.466 0 .263.117.474.116.205.386.387.503.343 1.138.343.634 0 1.137-.343.277-.19.387-.394.116-.204.116-.467zM71.924 57.34q0 .452-.27.714-.263.277-.722.27-.452 0-.715-.27-.277-.262-.27-.714V53.51q0-.379-.123-.67-.124-.292-.387-.57-.182-.167-.372-.284-.19-.116-.408-.167-.211-.059-.46-.059-.378 0-.677.124-.292.124-.562.387-.51.518-.503 1.24v3.828q0 .452-.27.714-.262.277-.722.27-.094 0-.19-.015-.094-.014-.189-.043-.087-.03-.175-.08-.087-.052-.16-.132-.146-.138-.212-.32-.058-.19-.058-.394v-9.844q0-.452.262-.715.263-.277.722-.27.452 0 .715.27.277.263.277.715v2.727q.131-.08.263-.131.138-.059.277-.102.145-.051.291-.088.146-.036.292-.058.153-.03.306-.037.16-.014.314-.014.379 0 .736.073.357.065.686.204.335.131.634.342.306.205.576.474 1.094 1.087 1.094 2.625v3.829zM78.027 47.78q0 .532-.372.89-.38.357-.89.357-.08 0-.167-.007l-.16-.03q-.074-.021-.154-.05l-.146-.073q-.073-.037-.138-.088-.066-.05-.124-.109-.131-.117-.212-.262-.08-.146-.124-.3-.036-.16-.036-.328 0-.517.364-.896.117-.117.263-.197.146-.088.306-.132.16-.043.328-.043.518 0 .89.379.372.372.372.89zm1.91 9.56q0 .13-.022.255-.022.124-.087.248-.058.124-.16.211-.14.146-.329.204-.182.066-.386.066h-2.188q-.452 0-.714-.27-.277-.262-.27-.715v-5.578h-1.203q-.08 0-.153-.007l-.146-.029q-.08-.014-.153-.044-.066-.029-.139-.072-.065-.051-.124-.117-.146-.139-.211-.32-.058-.19-.058-.395 0-.452.27-.714.262-.277.714-.27h2.195q.204 0 .386.066.182.058.321.204.146.138.204.32.066.183.066.394v5.578h1.203q.452 0 .714.27.27.255.27.715zM89.336 47.78q0 .532-.379.89-.38.357-.89.357-.167 0-.328-.036-.153-.044-.299-.124-.145-.08-.255-.197-.182-.168-.284-.401-.102-.234-.102-.489 0-.087.007-.168.014-.08.036-.16.022-.088.059-.153l.072-.146q.037-.073.088-.139.05-.072.11-.13.182-.183.408-.278.233-.095.488-.095.518 0 .89.38.379.371.379.89zm-.284 9.56q0 .196-.022.386-.015.19-.044.372-.029.182-.08.357-.044.175-.11.343-.058.175-.138.343-.073.167-.168.32-.094.16-.204.314-.102.153-.226.299-.124.146-.262.277-.409.416-.883.693-.474.277-1.013.415-.532.146-1.116.146-.926 0-1.837-.408-.977-.445-1.495-1.203-.066-.088-.11-.175-.043-.088-.072-.197-.03-.11-.03-.226 0-.416.307-.7.299-.285.7-.292.379 0 .714.336.912.896 1.823.896.328 0 .605-.073.285-.072.533-.226.255-.145.488-.371.343-.35.503-.751.16-.394.16-.875V51.76H85.88q-.204 0-.394-.058-.182-.066-.32-.211-.146-.139-.212-.321-.066-.19-.066-.394 0-.204.066-.386.066-.19.204-.329.095-.094.219-.153.124-.065.248-.087.124-.03.255-.03h2.202q.445 0 .7.27.277.263.27.708v6.57zM98.538 57.325q0 .394-.284.693-.131.145-.32.226-.183.087-.38.087-.299.007-.569-.168l-4.28-2.982v2.159q0 .452-.27.714-.262.277-.722.27-.094 0-.19-.015-.094-.014-.189-.043-.087-.03-.175-.08-.087-.052-.16-.132-.146-.138-.212-.32-.058-.19-.058-.394v-9.844q0-.452.262-.715.263-.277.722-.27.452 0 .715.27.277.263.277.715v5.44l4.28-2.983q.277-.168.569-.168.408 0 .7.314.284.299.284.693-.014.495-.43.794l-3.565 2.472 3.565 2.472q.197.139.314.35.116.204.116.445zM107.288 56.238q0 .285-.19.584-.451.693-1.32 1.108-.816.394-1.669.394-1.538 0-2.632-1.087-1.087-1.093-1.087-2.632v-7.11q0-.451.27-.714.263-.277.715-.27.452 0 .714.27.277.263.27.715v7.11q0 .714.518 1.231.518.518 1.232.518.627 0 1.13-.437.08-.08.212-.205.138-.13.211-.19.073-.057.175-.13.11-.08.212-.11.11-.029.233-.029.131 0 .255.037.124.029.234.094.116.066.211.153.146.139.226.321.08.183.08.38zM116.031 57.34q0 .452-.27.714-.262.277-.714.27-.452 0-.715-.27-.277-.262-.27-.714v-4.922q0-.146-.044-.248-.036-.11-.145-.219-.11-.11-.22-.146-.101-.044-.247-.044t-.255.044q-.102.037-.212.146-.11.11-.153.219-.036.102-.036.248v4.922q0 .13-.022.255-.022.124-.088.248-.058.124-.16.211-.139.146-.328.204-.183.066-.387.066-.452 0-.714-.27-.277-.262-.27-.715v-4.921q0-.146-.044-.248-.036-.11-.146-.219-.11-.11-.218-.146-.103-.044-.248-.044-.277 0-.467.19t-.19.467v4.921q0 .453-.27.715-.262.277-.714.27-.452 0-.715-.27-.145-.139-.211-.32-.058-.19-.058-.395v-6.562q0-.452.27-.715.262-.277.714-.27.365 0 .627.205.481-.204 1.014-.204.94 0 1.64.576.7-.576 1.64-.576.533 0 1.007.196.474.197.846.576.38.372.576.846.197.474.197 1.007v4.921zM124.424 57.34q0 .452-.27.714-.263.277-.722.27-.452 0-.715-.27-.277-.262-.27-.714V53.51q0-.379-.123-.67-.124-.292-.387-.57-.182-.167-.372-.284-.19-.116-.408-.167-.211-.059-.46-.059-.378 0-.677.124-.292.124-.562.387-.51.518-.503 1.24v3.828q0 .452-.27.714-.262.277-.722.27-.094 0-.19-.015-.094-.014-.189-.043-.087-.03-.175-.08-.087-.052-.16-.132-.146-.138-.212-.32-.058-.19-.058-.394v-6.563q0-.452.262-.714.263-.278.722-.27.307 0 .533.153.19.131.299.364.853-.517 1.903-.517.379 0 .736.073.357.065.686.204.335.131.634.342.306.205.576.474 1.094 1.087 1.094 2.625v3.829zM133.531 54.058q0 .35-.051.686-.051.328-.153.641-.102.314-.255.606-.146.291-.35.568-.204.277-.452.51-1.247 1.255-3.012 1.255-1.764 0-3.011-1.247T125 54.058q0-1.772 1.247-3.018 1.247-1.247 3.018-1.247.35 0 .679.05.335.052.649.154.313.102.605.255.291.146.561.35.277.197.51.445 1.255 1.24 1.262 3.011zm-1.969 0q0-.197-.029-.372-.022-.182-.08-.342-.051-.168-.131-.321-.08-.16-.19-.306t-.24-.285q-.35-.342-.752-.503-.393-.168-.875-.168-.948 0-1.626.679-.67.67-.67 1.618 0 .948.67 1.626.678.671 1.626.671.482 0 .875-.16.401-.168.744-.51.35-.35.51-.744.168-.401.168-.883zM142.281 54.058q0 .832-.27 1.575-.27.744-.795 1.357-1.137 1.334-2.836 1.334-1.065 0-1.925-.547v2.844q0 .452-.27.714-.262.277-.722.27-.094 0-.19-.014-.094-.015-.189-.044-.087-.03-.175-.08-.087-.051-.16-.132-.146-.138-.212-.328-.058-.182-.058-.386v-9.844q0-.452.262-.715.263-.277.722-.27.168 0 .336.052.175.05.306.167.095.08.153.183.066.095.11.204.444-.306.947-.452.51-.153 1.065-.153.416 0 .802.087.394.088.751.263.365.167.678.415.321.248.605.57 1.065 1.253 1.065 2.93zm-2.516 1.597q.547-.685.547-1.597 0-.911-.547-1.597-.561-.7-1.385-.7-.211 0-.401.044-.182.037-.357.124-.168.088-.328.219-.154.131-.292.313-.277.35-.416.744-.131.387-.131.853 0 .912.547 1.597.561.7 1.378.7.824 0 1.385-.7zM150.302 60.62q0 .453-.263.715-.262.277-.722.27-.452 0-.714-.27-.277-.262-.277-.714v-2.844q-.875.547-1.925.547-1.7 0-2.837-1.334-1.064-1.255-1.064-2.932t1.064-2.931q1.138-1.334 2.837-1.334.277 0 .54.043.27.037.524.117.256.073.496.19.24.116.46.255.014-.03.021-.058.015-.03.03-.051l.029-.059q.022-.029.036-.058l.037-.051.044-.044q.021-.029.043-.044.03-.021.059-.05.248-.19.598-.19.452 0 .714.27.277.262.27.714v9.844zm-2.523-4.965q.547-.685.547-1.597 0-.911-.547-1.597-.562-.7-1.385-.7-.817 0-1.379.7-.546.686-.546 1.597 0 .467.13.86.14.387.416.737.562.7 1.386.7.824 0 1.378-.7zM159.788 52.002q0 .416-.306.7-.299.284-.7.292-.386 0-.722-.358-.875-.882-1.815-.875-.197 0-.38.03-.182.021-.342.08-.16.05-.321.131-.153.08-.3.19-.145.109-.283.24-.679.678-.664 1.626v3.282q0 .452-.27.714-.262.277-.722.27-.094 0-.19-.015-.094-.014-.189-.043-.087-.03-.175-.08-.087-.052-.16-.132-.146-.138-.212-.32-.058-.19-.058-.394v-6.563q0-.452.262-.715.263-.277.722-.27.168 0 .321.052.16.044.292.146.117.087.19.218.08.132.138.277 1.028-.692 2.34-.692.927 0 1.838.408.977.445 1.495 1.203.211.306.211.598zM168.028 55.422q0 .7-.365 1.269-.357.568-1.02.977-1.102.656-2.472.656-1.014 0-1.955-.394-1.13-.467-1.59-1.349-.065-.116-.101-.24-.03-.124-.03-.248 0-.409.321-.7.307-.277.686-.277.466 0 .81.452.59.78 1.859.787 1.261 0 1.764-.642.131-.175.124-.291 0-.03-.007-.051 0-.022-.007-.051-.007-.037-.03-.058-.014-.03-.043-.066-.022-.044-.058-.08-.037-.044-.08-.08-.044-.044-.095-.08-.168-.132-.372-.212-.197-.088-.423-.146-.386-.102-.882-.102-1.065 0-1.918-.54-.51-.328-.787-.794-.277-.467-.277-1.021 0-.38.13-.715.132-.335.373-.612.24-.277.583-.489.875-.532 1.954-.532.168 0 .336.014.167.015.335.044.168.03.335.073.168.044.329.102.386.139.685.343.306.197.51.467.234.306.234.62 0 .4-.3.7-.298.291-.707.291-.13 0-.247-.036-.11-.044-.175-.08-.059-.044-.205-.147-.145-.109-.218-.153-.394-.277-.912-.27-.765 0-1.043.365-.014.03-.036.037.007.029.036.065.037.037.175.11.139.073.372.13.256.06.627.06 1.35 0 2.436.67.328.197.569.445.247.248.415.525.175.27.263.59.094.321.094.664zM177.288 56.238q0 .285-.19.584-.451.693-1.32 1.108-.816.394-1.669.394-1.538 0-2.632-1.087-1.087-1.093-1.087-2.632v-2.844h-.743l-.088-.014q-.036-.007-.08-.007-.037-.007-.08-.022l-.088-.03-.073-.029q-.036-.021-.08-.036-.036-.022-.073-.051-.036-.037-.065-.08-.146-.139-.212-.321-.058-.19-.058-.394 0-.452.27-.714.262-.277.714-.27h.656v-2.297q0-.452.27-.715.263-.277.715-.27.452 0 .714.27.278.263.27.715v2.297h2.297q.452 0 .715.27.277.262.27.714 0 .08-.015.153-.007.066-.022.146-.015.08-.044.153-.029.066-.08.139-.044.065-.11.124-.094.095-.218.16-.117.059-.24.088-.125.022-.256.022h-2.297v2.843q0 .715.518 1.233.518.517 1.232.517.168 0 .314-.022.153-.029.277-.072.124-.051.248-.124.182-.117.554-.474.197-.197.372-.3.182-.109.408-.109.131 0 .255.037.124.029.234.095.116.065.211.153.146.138.226.32.08.183.08.38zM185.674 54.423q0 .802-.292 1.502t-.853 1.254q-1.138 1.145-2.756 1.145-1.62 0-2.771-1.138-1.145-1.144-1.145-2.763v-3.646q0-.452.27-.715.262-.277.722-.27.452 0 .714.27.277.263.27.715v3.646q0 .795.569 1.363.569.57 1.363.57.409 0 .737-.14.328-.138.62-.43.299-.291.437-.627.139-.335.139-.736v-3.646q0-.095.014-.19l.044-.182q.03-.095.08-.182.051-.088.124-.16.095-.095.219-.154.124-.065.248-.087.124-.03.255-.03.452 0 .715.27.277.263.277.715v3.646zM194.788 50.762q0 .117-.029.234-.03.116-.08.226l-3.23 6.468q-.095.182-.226.328-.132.145-.321.226-.182.087-.387.087-.306 0-.547-.182-.24-.175-.386-.46l-3.23-6.467q-.11-.219-.11-.46 0-.415.314-.7.299-.277.693-.277.182 0 .35.073.175.066.299.19.13.124.218.284l2.4 4.805 2.398-4.805q.132-.248.358-.394.233-.153.51-.153.386 0 .693.277.313.285.313.7zM203.538 50.748q0 .029-.007.073 0 .036-.007.065 0 .03-.007.059l-.014.058q0 .03-.015.058l-1.94 6.475q-.102.343-.357.562-.255.226-.612.226-.35 0-.613-.226-.255-.219-.357-.562l-.343-1.145-.342 1.145q-.066.219-.205.394-.13.175-.328.284-.19.11-.437.11-.146 0-.277-.044-.132-.036-.241-.11-.102-.072-.19-.174-.087-.095-.153-.212-.065-.116-.11-.248l-1.939-6.475q-.05-.153-.05-.313 0-.409.233-.656.277-.3.773-.3.328 0 .568.161.088.066.16.16.074.088.117.183.051.087.08.197l1.029 3.427.284-.948q-.102-.343-.226-.722l-.175-.583-.117-.394q-.058-.204-.08-.314-.022-.116-.022-.211 0-.409.226-.656.277-.3.78-.3.154 0 .3.044.145.03.262.117.255.19.365.54l1.028 3.42 1.028-3.42q.102-.35.357-.54.24-.168.569-.16.496 0 .766.291.24.248.24.664zM212.288 50.784q0 .394-.299.686l-2.58 2.588 2.58 2.589q.3.291.3.685 0 .409-.3.7-.291.3-.7.3-.393 0-.685-.3l-2.589-2.581-2.588 2.581q-.292.3-.686.3-.408 0-.707-.3-.292-.291-.292-.7 0-.394.3-.685l2.58-2.589-2.58-2.588q-.14-.132-.22-.307-.08-.182-.08-.379 0-.408.292-.7.3-.299.707-.299.394 0 .686.3l2.588 2.58 2.589-2.58q.292-.3.685-.3.409 0 .7.3.3.291.3.7zM220.302 50.777v7.11q0 .503-.124.97-.124.466-.365.881-.233.416-.605.773-1.086 1.094-2.625 1.094-.24 0-.481-.03-.24-.028-.474-.094-.233-.065-.452-.16-.219-.088-.445-.212-.904-.51-1.378-1.363-.131-.255-.124-.489 0-.197.08-.386.088-.19.233-.321.307-.277.693-.277.467 0 .81.452.685.911 1.538.911.38 0 .67-.124.3-.124.57-.386.51-.518.503-1.232-.204.109-.409.19-.204.08-.422.13-.22.059-.453.08-.226.03-.459.03-1.538 0-2.632-1.087-1.094-1.093-1.094-2.632v-3.828q0-.452.27-.715.262-.277.722-.27.452 0 .714.27.277.263.27.715v3.828q0 .715.51 1.232.518.518 1.24.518.38 0 .67-.124.3-.124.562-.394.263-.27.387-.561.124-.292.124-.664v-3.835q0-.08.007-.146l.029-.153q.015-.08.044-.146.036-.073.08-.138.05-.073.11-.132.094-.094.218-.153.124-.065.248-.087.124-.03.255-.03.452 0 .715.27.27.256.27.715zM229.788 50.784q0 .394-.364.759l-4.813 4.812h4.186q.452 0 .714.27.277.262.27.715 0 .452-.27.714-.058.058-.131.11-.066.05-.131.072-.066.03-.153.044-.08.022-.154.03-.065.014-.145.014l-6.548.007q-.467 0-.744-.277-.263-.263-.263-.722 0-.394.365-.758l4.813-4.813h-4.273l-.088-.015q-.036-.007-.08-.007-.037-.007-.08-.021l-.088-.03-.073-.029q-.036-.022-.08-.036-.036-.022-.073-.051-.036-.037-.065-.08-.146-.14-.212-.321-.058-.19-.058-.394 0-.452.27-.715.262-.277.714-.27l6.548-.006q.139 0 .263.029.13.022.255.08.124.058.226.168.262.262.262.721zM11.038 79.244q0 .408-.233.656-.277.299-.773.299-.313 0-.561-.16-.256-.168-.358-.51l-.867-2.611h-2.96l-.869 2.61q-.109.335-.357.51-.24.16-.561.16-.496 0-.766-.29-.24-.256-.24-.664 0-.168.058-.358l3.252-9.734q.11-.335.364-.547.256-.219.598-.219.234 0 .43.102.197.103.329.27.131.168.204.394l3.252 9.734q.03.095.044.183.014.087.014.175zm-3.456-4.295l-.817-2.465-.816 2.465h1.633zM19.781 76.487q0 1.539-1.094 2.633-1.086 1.086-2.632 1.086l-3.092-.007q-.4 0-.692-.291-.292-.292-.292-.693V69.37q0-.401.292-.693.291-.291.692-.291h3.1q1.312 0 2.238.933.933.926.933 2.239 0 .597-.197 1.13-.19.525-.568.948.648.517.977 1.247.335.729.335 1.604zm-2.516-4.929q0-.496-.357-.846-.35-.357-.846-.357h-2.107v2.406h2.107q.168 0 .314-.036.153-.037.284-.117.131-.087.248-.204.117-.117.197-.248.087-.131.124-.277.036-.153.036-.32zm.547 4.93q0-.715-.517-1.233-.518-.525-1.233-.525h-2.107v3.5l2.107.007q.715 0 1.24-.51.262-.277.386-.569.124-.292.124-.67zM28.538 77.77q0 .292-.204.591-.284.416-.678.744-.386.328-.86.576-.963.51-1.97.518-1.093 0-2.004-.503-.912-.51-1.605-1.473-1.225-1.728-1.225-3.93.008-2.202 1.225-3.93.693-.963 1.605-1.466.911-.51 2.005-.51 1.006 0 1.969.517.962.51 1.538 1.32.204.299.204.59 0 .402-.306.7-.299.292-.7.292-.16 0-.299-.058-.138-.058-.284-.153-.117-.08-.212-.175-.087-.102-.146-.212-.036-.036-.087-.094-.758-.759-1.677-.759-.846 0-1.56.664-.22.204-.409.445-.19.24-.343.517-.145.277-.27.59-.138.402-.21.832-.066.43-.066.89 0 .926.277 1.72.167.467.423.86.255.387.59.694.365.342.751.503.387.16.817.16.911 0 1.684-.765l.022-.022.015-.007.036-.03q.044-.102.102-.182.066-.08.117-.117.05-.043.146-.109.328-.219.583-.219.095 0 .19.022.102.022.19.059.094.036.174.087.088.051.146.124.146.139.226.32.08.183.08.38zM37.281 74.293q0 1.21-.437 2.267-.438 1.05-1.298 1.903-1.729 1.736-4.171 1.736h-.912q-.4 0-.692-.292-.292-.291-.292-.692V69.37q0-.401.292-.693.291-.292.692-.292h.912q2.442 0 4.17 1.736 1.736 1.728 1.736 4.17zm-1.969 0q0-1.626-1.152-2.786-1.13-1.123-2.705-1.152v7.875q.802-.014 1.466-.292.67-.284 1.24-.86.583-.59.867-1.276.284-.693.284-1.51zM46.031 79.215q0 .452-.27.714-.262.277-.714.27h-5.834q-.4 0-.692-.292-.292-.291-.292-.692V69.37q0-.401.292-.693.291-.292.692-.292h5.834q.452 0 .714.27.277.263.27.715 0 .452-.27.714-.262.277-.714.27h-4.842v2.953h4.842q.08 0 .145.015.073.007.154.022.08.014.145.043.073.03.139.08.073.044.131.11.146.139.204.328.066.182.066.387 0 .452-.27.714-.262.277-.714.27h-4.842v2.953h4.842q.452 0 .714.27.27.255.27.714zM54.781 74.293q0 .452-.27.714-.262.277-.714.27h-4.842v3.938q0 .452-.27.714-.262.277-.722.27-.094 0-.19-.015-.094-.014-.189-.043-.087-.03-.175-.08-.087-.052-.16-.132-.146-.138-.212-.32-.058-.19-.058-.394v-9.851q0-.445.262-.708.263-.277.708-.27h5.848q.452 0 .714.27.277.263.27.715 0 .452-.27.714-.262.277-.714.27h-4.842v2.953h4.842q.08 0 .146.015.072.007.153.022.08.014.145.044.073.029.139.08.073.044.131.11.146.138.204.327.066.182.066.387zM63.174 70.815q0 .4-.3.7-.298.291-.707.291-.415 0-.758-.386l-.292-.358q-.7-.707-1.502-.707-.4 0-.773.175-.364.168-.714.532-.204.212-.38.46-.167.24-.306.525-.13.277-.233.605-.24.766-.24 1.64 0 .876.24 1.641.3.948.919 1.59.182.19.357.32.182.132.372.22.19.087.372.13.182.037.386.037.875 0 1.583-.802v-3.135q0-.08.007-.146.007-.073.022-.153.021-.08.05-.146.03-.073.073-.139.051-.073.11-.13.138-.147.32-.205.19-.066.402-.066.08 0 .153.015.073.007.146.022.08.014.146.044.072.029.138.08.073.044.131.11.095.094.16.218.066.117.088.24.03.124.03.256v3.485q0 1.014-1.444 1.794-1.174.627-2.115.627-1.064 0-1.954-.518-.882-.525-1.531-1.516Q55 76.444 55 74.293q0-2.159 1.13-3.872.328-.496.707-.875.38-.38.817-.635.437-.255.933-.386.496-.139 1.028-.139.984 0 1.918.525.897.51 1.444 1.32.196.292.196.584zM71.552 79.215q0 .452-.263.714-.262.277-.722.27-.452 0-.714-.27-.277-.262-.277-.714v-3.938h-3.121v3.938q0 .452-.27.714-.262.277-.722.27-.094 0-.19-.015-.094-.014-.189-.043-.087-.03-.175-.08-.087-.052-.16-.132-.146-.138-.212-.32-.058-.19-.058-.394V69.37q0-.452.262-.715.263-.277.722-.27.452 0 .715.27.277.263.277.715v3.937h3.12v-3.937q0-.131.023-.255.029-.124.087-.248.066-.124.16-.212.14-.146.329-.204.19-.066.394-.066.452 0 .714.27.277.263.27.715v9.844zM79.937 79.215q0 .13-.022.255-.022.124-.087.248-.058.124-.16.211-.14.146-.329.204-.182.066-.386.066h-4.375q-.204 0-.394-.066-.182-.058-.32-.204-.147-.138-.212-.32-.058-.19-.058-.394 0-.453.27-.715.138-.146.32-.204.19-.066.394-.066h1.203v-7.875h-1.203q-.095 0-.19-.014-.094-.015-.19-.044-.087-.03-.174-.08-.088-.051-.16-.132-.095-.094-.161-.211-.058-.124-.088-.248-.022-.124-.022-.255 0-.452.27-.715.263-.277.715-.27h4.375q.452 0 .714.27.278.263.27.715 0 .08-.014.153-.007.066-.022.146-.015.08-.044.153-.03.066-.08.138-.044.066-.11.124-.094.095-.218.16-.117.06-.241.088-.124.022-.255.022H77.75v7.875h1.203q.452 0 .714.27.27.255.27.715zM89.052 79.215q0 .196-.022.386-.015.19-.044.372-.029.182-.08.357-.044.175-.11.343-.058.175-.138.343-.073.167-.168.32-.094.16-.204.314-.102.153-.226.299-.124.146-.262.277-.409.416-.883.693-.474.277-1.013.415-.532.146-1.116.146-.926 0-1.837-.408-.977-.445-1.495-1.203-.066-.088-.11-.175-.043-.088-.072-.197-.03-.11-.03-.226 0-.416.307-.7.299-.285.7-.292.379 0 .714.336.912.896 1.823.896.328 0 .605-.073.285-.072.533-.226.255-.145.488-.371.343-.35.503-.751.16-.394.16-.875v-8.86h-4.84q-.453 0-.715-.27-.146-.138-.212-.32-.058-.19-.058-.394 0-.452.27-.715.262-.277.714-.27h5.848q.445 0 .7.27.277.263.27.707v9.852zM98.538 79.215q0 .4-.299.692-.291.3-.7.3-.408 0-.7-.307l-4.134-4.302v3.617q0 .452-.27.714-.262.277-.722.27-.094 0-.19-.015-.094-.014-.189-.043-.087-.03-.175-.08-.087-.052-.16-.132-.146-.138-.212-.32-.058-.19-.058-.394V69.37q0-.452.262-.715.263-.277.722-.27.452 0 .715.27.277.263.277.715v3.616l4.134-4.302q.088-.094.197-.16.11-.066.24-.102.132-.044.263-.044.409 0 .7.3.3.29.3.692 0 .386-.285.685l-4.083 4.237 4.083 4.236q.139.146.211.321.073.175.073.365zm-5.848-4.893h.015l-.758.437-.03-.05.773-.387zM107.281 79.215q0 .452-.27.714-.262.277-.714.27h-5.834q-.46 0-.722-.27-.262-.262-.262-.707V69.37q0-.452.262-.715.263-.277.722-.27.452 0 .715.27.277.263.277.715v8.86h4.842q.452 0 .714.269.27.255.27.715zM116.01 79.076q.021.08.021.153t-.015.146q-.007.073-.021.146-.015.073-.044.146-.03.065-.073.13-.044.066-.095.125-.095.102-.226.16-.131.066-.255.088-.124.029-.263.029-.393 0-.649-.219-.277-.233-.32-.634l-.635-4.835-.707 2.684q-.088.357-.343.59-.255.226-.62.226-.364 0-.627-.233-.255-.233-.335-.583l-.707-2.684-.635 4.835q-.05.394-.313.62-.256.233-.657.233-.466 0-.743-.277-.248-.263-.248-.693 0-.08.022-.153l1.29-9.77q.066-.482.38-.723.13-.102.284-.146.153-.05.32-.05.241 0 .445.109.212.11.336.291.131.175.19.401l.998 3.88 1-3.88q.087-.35.342-.576.255-.226.613-.226.379 0 .634.205.065.05.117.124.058.065.094.138.044.066.073.146.03.073.044.153.022.073.037.153l1.29 9.771zM124.06 79.222q0 .437-.256.7-.277.284-.751.284-.292 0-.525-.175-.233-.168-.365-.437l-3.208-6.184v5.805q0 .452-.27.714-.262.277-.722.27-.094 0-.19-.015-.094-.014-.189-.043-.087-.03-.175-.08-.087-.052-.16-.132-.146-.138-.212-.32-.058-.19-.058-.394l-.007-9.851q0-.438.255-.7.139-.154.328-.22.197-.065.423-.065.131 0 .24.037.11.029.205.08.095.05.175.131.088.08.153.175.066.088.117.19l3.208 6.183v-5.804q0-.131.022-.255.03-.124.088-.248.065-.124.16-.212.138-.146.328-.204.19-.065.394-.065.452 0 .714.27.146.138.205.327.065.183.065.387l.007 9.85zM132.554 70.508q.977 1.707.977 3.785 0 2.078-.977 3.784-.59 1.035-1.43 1.582-.83.54-1.859.54-1.028 0-1.866-.54-.832-.547-1.422-1.582-.977-1.706-.977-3.784t.977-3.785q.59-1.035 1.422-1.575.838-.547 1.866-.547.686 0 1.291.248.613.248 1.108.722.496.467.89 1.152zm-1.218 5.454q.226-.772.226-1.67 0-.896-.226-1.67-.255-.903-.787-1.552-.314-.38-.635-.547-.313-.168-.649-.168-.685 0-1.283.715-.262.328-.46.714-.196.38-.327.839-.22.765-.226 1.67 0 .897.226 1.67.255.904.787 1.553.598.714 1.283.714.686 0 1.284-.714.532-.65.787-1.554zM141.187 69.48q1.094 1.087 1.094 2.625 0 1.539-1.094 2.632-1.086 1.087-2.625 1.087h-2.107v3.39q0 .453-.27.715-.262.277-.722.27-.094 0-.19-.015-.094-.014-.189-.043-.087-.03-.175-.08-.087-.052-.16-.132-.146-.138-.212-.32-.058-.19-.058-.394V69.37q0-.401.292-.693.291-.292.692-.292h3.1q1.538 0 2.624 1.094zm-.875 2.625q0-.714-.517-1.232-.518-.518-1.233-.518h-2.107v3.5h2.107q.38 0 .671-.124.292-.124.562-.394.27-.27.393-.561.124-.292.124-.67zM151.031 82.496q0 .452-.27.714-.262.277-.714.27-1.473 0-2.589-1.181-.408-.43-.722-.97-.313-.54-.532-1.174-1.743-.284-2.8-2.187-.912-1.677-.904-3.675 0-2.078.977-3.785.59-1.035 1.422-1.575.838-.547 1.866-.547.686 0 1.291.248.613.248 1.108.722.496.467.89 1.152.977 1.707.977 3.785 0 1.8-.744 3.347-.78 1.611-2.092 2.238.255.576.649 1.006.576.627 1.203.627.452 0 .714.27.27.255.27.715zm-1.969-8.203q0-.897-.226-1.67-.255-.904-.787-1.553-.314-.38-.635-.547-.313-.168-.649-.168-.685 0-1.283.715-.262.328-.46.714-.196.38-.327.832-.117.386-.175.809-.051.423-.051.868 0 1.261.474 2.355.167.4.379.707.218.3.466.481-.007-.13-.007-.262 0-.452.27-.715.08-.08.16-.13.088-.052.176-.081.094-.03.182-.044.095-.014.197-.014.452 0 .714.27.277.262.27.714 0 .131.007.248.255-.212.467-.518.219-.306.394-.714.218-.533.328-1.101.116-.57.116-1.196zM153.955 73.965q.248-.117.569-.11h1.538q.38 0 .671-.124.292-.124.562-.394.27-.27.393-.561.124-.292.124-.67 0-.715-.517-1.233-.518-.518-1.233-.518h-2.107v3.61zm0 1.8v3.45q0 .452-.27.714-.262.277-.722.27-.094 0-.19-.015-.094-.014-.189-.043-.087-.03-.175-.08-.087-.052-.16-.132-.146-.138-.212-.32-.058-.19-.058-.394v-9.851q0-.445.262-.708.263-.277.708-.27h3.113q1.539 0 2.625 1.094 1.094 1.087 1.094 2.625 0 1.539-1.094 2.625-.83.839-1.947 1.036l2.75 2.756q.298.292.298.685 0 .409-.299.7-.291.3-.7.3-.393 0-.685-.3l-4.149-4.141zM168.531 76.48q0 1.685-1.473 2.764-.03.014-.03.022-1.312.933-2.996.933-1.086 0-2.107-.43-1.152-.489-1.743-1.35-.19-.29-.19-.583 0-.408.307-.7.299-.284.7-.277.211 0 .4.102.19.095.343.256l.007.007v.014q.088.11.3.306.758.679 1.983.686.948 0 1.72-.489.22-.138.372-.277.16-.138.256-.299.102-.167.138-.328.044-.168.044-.357 0-.387-.197-.693-.19-.306-.612-.569-.766-.48-1.721-.488-1.422 0-2.53-.795-.628-.452-.948-1.057-.321-.605-.321-1.32 0-.357.08-.693.088-.335.248-.634t.401-.562q.24-.262.54-.488.546-.394 1.188-.59.642-.205 1.342-.205.911 0 1.757.357.963.401 1.466 1.13.204.285.204.591 0 .409-.314.7-.299.285-.692.285-.212 0-.394-.095-.182-.095-.35-.263-.38-.379-.788-.554-.408-.182-.89-.182-.35 0-.663.087-.306.08-.59.256-.212.13-.35.27-.132.138-.175.284-.044.138-.044.306 0 .168.044.314.043.138.175.277.138.138.35.27.576.342 1.254.342 1.677 0 2.997.933.736.518 1.115 1.233.387.707.387 1.553zM177.281 69.37q0 .453-.27.715-.262.277-.714.27H174v8.86q0 .13-.022.255-.022.124-.088.248-.058.124-.16.211-.139.146-.328.204-.182.066-.387.066-.452 0-.714-.27-.277-.262-.27-.715v-8.859h-2.297q-.452 0-.714-.27-.146-.138-.212-.32-.058-.19-.058-.394 0-.452.27-.715.262-.277.714-.27h6.563q.452 0 .714.27.27.255.27.715zM185.674 76.298q0 .802-.292 1.502t-.853 1.254q-1.138 1.145-2.756 1.145-1.62 0-2.771-1.138-1.145-1.144-1.145-2.763V69.37q0-.452.27-.715.262-.277.722-.27.452 0 .714.27.277.263.27.715v6.927q0 .795.569 1.363.569.57 1.363.57.409 0 .737-.14.328-.138.62-.43.299-.291.437-.627.139-.335.139-.736V69.37q0-.131.022-.255.021-.124.08-.248.065-.124.16-.212.139-.146.321-.204.19-.066.401-.066.452 0 .715.27.277.263.277.715v6.927zM194.788 69.342q0 .058-.007.124-.007.065-.022.116-.014.051-.029.117l-3.252 9.734q-.11.336-.364.547-.256.219-.598.219-.343 0-.598-.212-.256-.211-.365-.554l-3.252-9.734q-.058-.168-.058-.357 0-.409.233-.657.277-.299.773-.299.314 0 .561.16.256.169.358.511l2.348 7.044 2.348-7.044q.05-.153.145-.284.088-.139.212-.226.24-.16.561-.16.496 0 .766.291.24.248.24.664zM203.531 69.342q0 .087-.022.182l-1.626 9.785q-.066.387-.335.635-.263.255-.65.255-.357 0-.62-.233-.254-.234-.335-.584l-.678-2.683-.678 2.683q-.08.358-.335.584-.248.233-.62.233-.394 0-.664-.255-.27-.248-.32-.642l-1.626-9.778q-.015-.088-.022-.182 0-.197.05-.372.059-.175.198-.307.138-.145.328-.211.197-.066.415-.066.38 0 .635.22.277.218.32.604l.876 5.177.48-1.895q.052-.234.176-.416.131-.182.335-.292.204-.116.445-.116.248 0 .452.109.204.11.336.299.13.182.182.408l.481 1.903.875-5.177q.03-.167.102-.328.073-.167.212-.277.255-.219.641-.219.467 0 .744.278.248.262.248.678zM212.288 79.222q0 .197-.087.386-.088.183-.226.314-.139.131-.328.204-.183.08-.365.08-.24 0-.452-.124-.204-.116-.35-.32l-2.465-3.697-2.464 3.696q-.139.205-.35.321-.212.124-.452.124-.394 0-.693-.284-.095-.088-.168-.197-.065-.11-.11-.24-.036-.132-.036-.263 0-.292.175-.554l2.917-4.375-2.917-4.375q-.167-.263-.175-.555 0-.408.314-.7.299-.284.693-.284.24 0 .452.124.204.117.35.32l2.464 3.698 2.465-3.697q.138-.204.35-.321.211-.124.452-.124.394 0 .693.284.313.292.313.7 0 .103-.022.205-.022.094-.058.182-.036.087-.095.168l-2.916 4.375 2.916 4.375q.175.262.175.554zM221.038 69.363q0 .08-.014.154-.015.072-.037.145-.014.066-.05.132-.03.065-.074.124l-3.113 4.674v4.623q0 .13-.022.255-.022.124-.088.248-.058.124-.16.211-.139.146-.328.204-.182.066-.387.066-.452 0-.714-.27-.277-.262-.27-.715v-4.622l-3.114-4.674q-.167-.263-.175-.555 0-.408.314-.7.299-.284.693-.284.24 0 .452.124.204.117.35.32l2.464 3.698 2.465-3.697q.138-.204.35-.321.211-.124.452-.124.394 0 .693.284.313.292.313.7zM229.788 69.363q0 .292-.226.635l-5.49 8.232h4.725q.452 0 .714.27.277.262.27.715 0 .452-.27.714-.262.277-.714.27l-6.534.007q-.488 0-.765-.284-.256-.263-.256-.7 0-.292.227-.635l5.49-8.232h-4.725q-.452 0-.714-.27-.146-.138-.212-.32-.058-.19-.058-.395 0-.452.27-.714.262-.277.714-.27l6.534-.007q.488 0 .765.284.255.263.255.7zM11.031 97.808q0 .35-.051.686-.051.328-.153.641-.102.314-.255.606-.146.291-.35.568-.205.277-.452.51-1.247 1.255-3.012 1.255-1.764 0-3.011-1.247T2.5 97.808q0-1.772 1.247-3.018 1.247-1.247 3.018-1.247.35 0 .679.05.335.052.648.154.314.102.606.255.291.146.561.35.277.197.51.445 1.255 1.24 1.262 3.011zm-1.969 0q0-.197-.029-.372-.022-.182-.08-.342-.051-.168-.131-.321-.08-.16-.19-.306t-.24-.285q-.35-.342-.752-.503-.393-.168-.875-.168-.948 0-1.626.679-.67.67-.67 1.618 0 .948.67 1.626.678.671 1.626.671.482 0 .875-.16.401-.168.744-.51.35-.35.51-.744.168-.401.168-.883zM18.804 92.383q.977 1.707.977 3.785 0 2.078-.977 3.784-.59 1.035-1.43 1.582-.83.54-1.859.54-1.028 0-1.866-.54-.832-.547-1.422-1.582-.977-1.706-.977-3.784t.977-3.785q.59-1.035 1.422-1.575.838-.547 1.866-.547.686 0 1.291.248.613.248 1.108.722.496.467.89 1.152zm-1.218 5.454q.226-.772.226-1.67 0-.896-.226-1.67-.255-.903-.787-1.552-.314-.38-.635-.547-.313-.168-.649-.168-.685 0-1.283.715-.262.328-.46.714-.196.38-.327.839-.22.765-.226 1.67 0 .897.226 1.67.255.904.787 1.553.598.714 1.283.714.686 0 1.284-.714.532-.65.787-1.554zM28.531 96.984q0 1.925-1.094 3.406-.605.816-1.414 1.246-.802.438-1.758.438-.955 0-1.764-.43-.802-.423-1.407-1.254Q20 98.91 20 96.984q0-1.91 1.094-3.398.605-.816 1.407-1.246.81-.438 1.764-.438.956 0 1.758.43.81.423 1.414 1.254 1.094 1.488 1.094 3.398zm-1.969 0q0-.393-.073-.758-.065-.365-.204-.7-.138-.343-.35-.656-.343-.518-.75-.759-.41-.24-.92-.24t-.918.248q-.409.24-.751.75-.627.934-.627 2.115 0 .598.153 1.123.16.525.474 1 .167.262.357.451.19.19.394.314.211.116.437.175.226.058.481.058.256 0 .482-.058.226-.058.43-.175.211-.124.394-.314.19-.19.364-.452.212-.313.35-.649.139-.342.204-.707.073-.365.073-.766zm-1.305 0q0 .095-.022.204-.014.103-.058.19-.037.08-.095.168-.051.08-.117.146-.138.138-.32.211-.183.073-.38.073-.094 0-.196-.015-.095-.014-.183-.05-.087-.044-.175-.095-.08-.059-.146-.124-.094-.095-.16-.205-.066-.109-.102-.24-.03-.131-.03-.263 0-.204.06-.379.057-.182.196-.32.146-.147.335-.205.19-.065.401-.065.139 0 .256.021.124.022.248.095.13.066.233.153.087.095.146.22.065.123.087.24.022.11.022.24zM36.734 98.355q0 .503-.124.97-.124.467-.364.882-.241.416-.606.773-1.086 1.094-2.625 1.094-1.538 0-2.632-1.087-1.086-1.093-1.086-2.632 0-1.779 1.312-2.844-.765-.86-.765-2.078 0-1.312.926-2.238.933-.934 2.245-.934 1.313 0 2.239.934.933.926.933 2.238 0 .394-.087.766-.088.372-.263.7-.167.328-.415.612 1.312 1.065 1.312 2.844zm-2.515-4.922q0-.496-.358-.846-.35-.357-.846-.357-.167 0-.32.037-.146.036-.278.124-.13.08-.255.19-.35.356-.35.852 0 .256.08.46.088.204.27.393.19.183.394.27.204.08.46.08.167 0 .313-.036.153-.037.284-.117.132-.087.256-.197.182-.19.262-.393.088-.205.088-.46zm.422 5.593q.124-.292.124-.67 0-.38-.124-.672-.124-.291-.386-.568-.182-.168-.372-.285-.19-.116-.408-.168-.212-.058-.46-.058-.379 0-.67.124-.292.124-.57.387-.51.517-.51 1.24 0 .714.518 1.231.518.518 1.232.518.38 0 .671-.124.292-.124.562-.394.27-.27.393-.561zM51.777 91.53q0 .532-.372.89-.38.357-.89.357-.08 0-.167-.007l-.16-.03q-.074-.021-.154-.05l-.146-.073q-.073-.037-.138-.088-.066-.05-.124-.109-.131-.117-.212-.262-.08-.146-.124-.3-.036-.16-.036-.328 0-.517.364-.896.117-.117.263-.197.146-.088.306-.132.16-.043.328-.043.518 0 .89.379.372.372.372.89zm1.91 9.56q0 .13-.022.255-.022.124-.087.248-.058.124-.16.211-.14.146-.329.204-.182.066-.386.066h-2.188q-.452 0-.714-.27-.277-.262-.27-.715v-5.578h-1.203q-.08 0-.153-.007l-.146-.029q-.08-.014-.153-.044-.066-.029-.139-.072-.065-.051-.124-.117-.146-.139-.211-.32-.058-.19-.058-.395 0-.452.27-.714.262-.277.714-.27h2.195q.204 0 .386.066.182.058.321.204.146.138.204.32.066.183.066.394v5.578h1.203q.452 0 .714.27.27.255.27.715zM62.437 101.09q0 .13-.022.255-.022.124-.087.248-.058.124-.16.211-.14.146-.329.204-.182.066-.386.066h-4.375q-.204 0-.394-.066-.182-.058-.32-.204-.147-.138-.212-.32-.058-.19-.058-.394 0-.453.27-.715.138-.146.32-.204.19-.066.394-.066h1.203V92.23h-1.203q-.095 0-.19-.014-.094-.015-.19-.044-.087-.03-.174-.08-.088-.051-.16-.132-.095-.094-.161-.211-.058-.124-.088-.248-.022-.124-.022-.255 0-.452.27-.715.263-.277.715-.27h4.375q.452 0 .714.27.278.263.27.715 0 .08-.014.153-.007.066-.022.146-.015.08-.044.153-.03.066-.08.138-.044.066-.11.124-.094.095-.218.16-.117.06-.241.088-.124.022-.255.022H60.25v7.875h1.203q.452 0 .714.27.27.255.27.715zM72.288 99.988q0 .285-.19.584-.451.693-1.32 1.108-.816.394-1.669.394-1.538 0-2.632-1.087-1.087-1.093-1.087-2.632v-7.11q0-.451.27-.714.263-.277.715-.27.452 0 .714.27.277.263.27.715v7.11q0 .714.518 1.231.518.518 1.232.518.627 0 1.13-.437.08-.08.212-.205.138-.13.211-.19.073-.057.175-.13.11-.08.212-.11.11-.029.233-.029.131 0 .255.037.124.029.234.094.116.066.211.153.146.139.226.321.08.183.08.38zM81.031 101.09q0 .452-.27.714-.262.277-.714.27h-5.834q-.46 0-.722-.27-.262-.262-.262-.707v-9.851q0-.452.262-.715.263-.277.722-.27.452 0 .715.27.277.263.277.715v8.86h4.842q.452 0 .714.269.27.255.27.715zM88.877 101.09q0 .452-.27.714-.262.277-.722.27h-4.01q-.452 0-.715-.27-.277-.262-.27-.714 0-.453.27-.715.095-.095.212-.153.124-.066.248-.088.124-.029.255-.029h1.013v-4.842l-1.05 1.05q-.291.3-.678.3-.131 0-.262-.03-.132-.036-.248-.102-.11-.073-.197-.168-.146-.138-.226-.32-.073-.183-.073-.38 0-.393.299-.685l2.661-2.669q.168-.167.35-.262.19-.102.409-.102.386 0 .641.211.35.292.35.882v7.117h1.021q.452 0 .715.27.277.255.277.714zM105.64 104.37q0 .132-.022.256-.021.124-.08.248-.058.124-.167.211-.139.146-.329.205-.182.065-.386.065-1.086 0-1.86-.773-.765-.765-.765-1.852V99.45q0-.277-.197-.467-.19-.19-.46-.19-.451 0-.714-.27-.277-.262-.27-.714 0-.452.27-.714.263-.277.715-.27.277 0 .466-.19.19-.19.19-.466v-3.282q0-.532.197-1.006t.569-.846q.379-.379.853-.576.474-.197 1.006-.197.452 0 .715.27.277.263.27.715 0 .095-.015.19-.015.094-.044.189-.03.087-.08.175-.051.087-.131.16-.095.095-.22.16-.116.059-.24.088-.124.022-.255.022-.146 0-.255.044-.102.036-.212.146-.109.11-.153.219-.036.102-.036.247v3.282q0 .46-.146.882-.146.416-.43.758.576.7.576 1.64v3.282q0 .277.19.467.196.19.466.19.452 0 .715.27.27.254.27.714zM114.39 97.808q0 .132-.022.255-.021.124-.08.248-.058.124-.167.212-.139.146-.329.211-.182.059-.386.059-.146 0-.255.043-.102.037-.212.146-.109.11-.153.219-.036.102-.036.248v3.281q0 .532-.197 1.006t-.576.846q-.766.766-1.852.773-.452 0-.715-.27-.277-.262-.27-.714 0-.452.27-.715.263-.277.715-.27.277 0 .466-.19.19-.189.19-.466V99.45q0-.94.576-1.64-.576-.7-.576-1.641v-3.282q0-.277-.197-.466-.19-.19-.46-.19-.451 0-.714-.27-.277-.262-.27-.714 0-.452.27-.715.263-.277.715-.27 1.086 0 1.852.773.773.766.773 1.852v3.282q0 .145.036.255.044.102.153.211.11.11.212.153.11.037.255.037.204 0 .386.066.19.058.329.204.145.138.204.328.065.182.065.386zM131.89 104.37q0 .132-.022.256-.021.124-.08.248-.058.124-.167.211-.139.146-.329.205-.182.065-.386.065h-3.281q-.401 0-.693-.292-.292-.291-.292-.692V91.246q0-.401.292-.693.292-.292.693-.292h3.281q.452 0 .715.27.277.263.27.715 0 .095-.015.19-.015.094-.044.189-.03.087-.08.175-.051.087-.131.16-.095.095-.22.16-.116.059-.24.088-.124.022-.255.022h-2.297v11.156h2.297q.452 0 .715.27.27.255.27.715zM140.64 91.246v13.125q0 .197-.08.372-.073.182-.211.32-.066.066-.146.124-.08.059-.168.088-.087.036-.19.058-.094.022-.189.022h-3.281q-.452 0-.715-.27-.277-.262-.27-.714 0-.452.27-.715.263-.277.715-.27h2.297V92.23h-2.297q-.452 0-.715-.27-.277-.262-.27-.714 0-.452.27-.715.263-.277.715-.27h3.281q.401 0 .693.292.291.292.291.693zM159.781 94.527q0 .343-.182.59-.219.292-.65.373-.036.007-.087.014.132.284.197.583.066.3.066.628 0 .24-.037.473-.036.227-.11.445-.065.212-.167.416-.102.197-.24.38-.139.181-.307.342.744.517 1.13 1.254.387.73.387 1.611 0 1.656-1.385 2.742-1.24.977-2.88.977-1.641 0-2.88-.977-1.386-1.086-1.386-2.742 0-.452.27-.714.262-.277.714-.27.204 0 .387.066.19.058.328.204.277.262.27.714 0 .387.167.693.175.306.547.569.7.488 1.582.488.183 0 .35-.014.168-.015.328-.059.16-.043.314-.109.153-.058.299-.138.146-.073.292-.168.379-.263.546-.569.168-.306.168-.693 0-.386-.175-.692-.168-.307-.54-.57-.7-.488-1.582-.488-.342 0-.67-.05-.321-.052-.628-.154-.306-.102-.59-.262-.285-.16-.547-.365-1.174-.926-1.174-2.34 0-.7.299-1.291.306-.598.875-1.05 1.05-.831 2.435-.831h3.282q.452 0 .714.27.27.255.27.714zm-2.625 2.188q0-.059-.007-.11 0-.05-.015-.102-.007-.058-.029-.102-.014-.051-.036-.095-.022-.05-.051-.095-.03-.05-.073-.094-.037-.044-.08-.088-.044-.044-.102-.087-.051-.051-.11-.088-.255-.168-.532-.255-.277-.088-.605-.088-.635 0-1.138.343-.277.19-.394.394-.109.204-.109.466 0 .263.117.474.116.205.386.387.503.343 1.138.343.634 0 1.137-.343.277-.19.387-.394.116-.204.116-.467zM168.531 96.168q0 3.12-2.217 5.337-2.209 2.21-5.33 2.21-.452 0-.714-.27-.095-.095-.16-.219-.06-.117-.088-.24-.022-.125-.022-.256 0-.452.27-.714.138-.146.32-.212.19-.058.394-.058 1.356 0 2.567-.627.576-.3 1.042-.708-.167.015-.328.022-1.772 0-3.018-1.247Q160 97.94 160 96.168q0-1.772 1.247-3.02 1.246-1.246 3.018-1.246 1.772 0 3.02 1.247 1.246 1.247 1.246 3.019zm-1.969 0q0-.197-.029-.372-.022-.183-.08-.343-.051-.168-.131-.32-.08-.161-.19-.307t-.24-.284q-.679-.679-1.627-.671-.948 0-1.626.678-.67.67-.67 1.619 0 .48.16.882.168.394.51.744.678.678 1.626.67.482 0 .875-.16.401-.168.744-.51.35-.35.51-.744.168-.401.168-.882zM176.552 104.37q0 .453-.263.715-.262.277-.722.27-.452 0-.714-.27-.277-.262-.277-.714v-2.844q-.875.547-1.925.547-1.7 0-2.837-1.334-1.064-1.255-1.064-2.932t1.064-2.931q1.138-1.334 2.837-1.334.277 0 .54.043.27.037.524.117.256.073.496.19.24.116.46.255.014-.03.021-.058.015-.03.03-.051l.029-.059q.022-.029.036-.058l.037-.051.044-.044q.021-.029.043-.044.03-.021.059-.05.248-.19.598-.19.452 0 .714.27.277.262.27.714v9.844zm-2.523-4.965q.547-.685.547-1.597 0-.911-.547-1.597-.562-.7-1.385-.7-.817 0-1.379.7-.546.686-.546 1.597 0 .467.13.86.14.387.416.737.562.7 1.386.7.824 0 1.378-.7zM186.038 99.646q0 .291-.204.59-.284.416-.678.744-.386.328-.86.576-.963.51-1.97.518-1.093 0-2.004-.503-.912-.51-1.605-1.473-1.225-1.728-1.225-3.93.007-2.202 1.225-3.93.693-.963 1.605-1.466.911-.51 2.005-.51 1.006 0 1.969.517.962.51 1.538 1.32.204.299.204.59 0 .402-.306.7-.299.292-.7.292-.16 0-.299-.058-.138-.058-.284-.153-.117-.08-.212-.175-.087-.102-.146-.212-.036-.036-.087-.094-.758-.759-1.677-.759-.846 0-1.56.664-.22.204-.409.445-.19.24-.343.517-.145.277-.27.59-.138.402-.21.832-.066.43-.066.89 0 .926.277 1.72.167.467.423.86.255.387.59.694.365.342.751.503.387.16.817.16.911 0 1.684-.765l.022-.022.015-.007.036-.03q.044-.102.102-.182.066-.08.117-.117.051-.043.146-.109.328-.219.583-.219.095 0 .19.022.102.022.19.059.094.036.174.087.088.051.146.124.146.139.226.32.08.183.08.38zM194.424 92.69q0 .4-.3.7-.298.291-.707.291-.415 0-.758-.386l-.292-.358q-.7-.707-1.502-.707-.4 0-.773.175-.364.168-.714.532-.204.212-.38.46-.167.24-.306.525-.13.277-.233.605-.24.766-.24 1.64 0 .876.24 1.641.3.948.919 1.59.182.19.357.32.182.132.372.22.19.087.372.13.182.037.386.037.875 0 1.583-.802v-3.135q0-.08.007-.146.007-.073.022-.153.021-.08.05-.146.03-.073.073-.139.051-.073.11-.13.138-.147.32-.205.19-.066.402-.066.08 0 .153.015.073.007.146.022.08.014.146.044.072.029.138.08.073.044.131.11.095.094.16.218.066.117.088.24.03.124.03.256v3.485q0 1.014-1.444 1.794-1.174.627-2.115.627-1.064 0-1.954-.518-.882-.525-1.531-1.516-1.13-1.721-1.13-3.872 0-2.159 1.13-3.872.328-.496.707-.875.38-.38.817-.635.437-.255.933-.386.496-.139 1.028-.139.984 0 1.918.525.897.51 1.444 1.32.196.292.196.584zM203.531 104.37q0 .453-.27.715-.262.277-.714.27-1.473 0-2.589-1.181-.408-.43-.722-.97-.313-.54-.532-1.174-1.743-.284-2.8-2.187-.912-1.677-.904-3.675 0-2.078.977-3.785.59-1.035 1.422-1.575.838-.547 1.866-.547.686 0 1.291.248.613.248 1.108.722.496.467.89 1.152.977 1.707.977 3.785 0 1.8-.744 3.347-.78 1.611-2.092 2.238.255.576.649 1.006.576.627 1.203.627.452 0 .714.27.27.255.27.715zm-1.969-8.202q0-.897-.226-1.67-.255-.904-.787-1.553-.314-.38-.635-.547-.313-.168-.649-.168-.685 0-1.283.715-.262.328-.46.714-.196.38-.327.832-.117.386-.175.809-.051.423-.051.868 0 1.261.474 2.355.167.4.379.707.218.3.466.481-.007-.13-.007-.262 0-.452.27-.715.08-.08.16-.13.088-.052.176-.081.094-.03.182-.044.095-.014.197-.014.452 0 .714.27.277.262.27.714 0 .131.007.248.255-.212.467-.518.219-.306.394-.714.218-.533.328-1.101.116-.57.116-1.196zM219.945 97.78q0 .16-.051.32-.051.153-.139.306-.277.467-.773.7-.488.234-1.123.234-.765 0-1.56-.65-.219-.182-.401-.298-.183-.124-.255-.146-.132.007-.19.029-.03.058-.066.11-.029.05-.073.094l-.08.08q-.043.044-.08.073-.24.16-.561.16-.146 0-.278-.021-.123-.03-.262-.095-.131-.066-.226-.175-.24-.255-.24-.664v-.102q.006-.058.014-.094.015-.044.022-.088.014-.051.029-.087.022-.044.037-.08.014-.044.043-.088.03-.044.044-.088.277-.466.766-.7.495-.233 1.13-.233.277 0 .54.08.27.073.517.219.255.138.503.35.452.38.657.445.094 0 .138-.015.051-.014.066-.03.029-.014.043-.036.314-.466.802-.466.496 0 .766.291.24.248.24.664zM229.176 97.08q.277.327.277.728 0 .132-.03.255-.029.124-.08.227-.036.065-.08.123-.044.066-.087.11-.007.014-.022.036-.015.015-.022.03-.007.014-.03.021-.036.037-.087.073l-.102.073q-.05.037-.11.066-.116.095-.225.16-.139.088-.306.139-.168.05-.336.08t-.343.03h-3.28q-.694 0-1.197-.395-.248-.13-.43-.35-.117-.138-.175-.313-.058-.175-.058-.365 0-.386.24-.678.08-.102.183-.19.11-.087.233-.145.503-.409 1.203-.409h3.281q.088 0 .168.007.088.007.16.022.168.03.336.08.16.059.306.132.037.029.08.05.044.023.08.052l.066.05q.059.03.11.066.058.03.102.066.05.037.095.08.043.044.08.088zM239.386 96.984q0 .452-.27.715-.263.277-.715.27h-2.297v2.297q0 .08-.014.153-.007.073-.022.153-.015.073-.044.146-.03.065-.08.138-.044.066-.11.124-.094.095-.218.16-.117.059-.24.088-.125.022-.256.022-.452 0-.715-.263-.277-.27-.27-.721v-2.297h-2.296q-.452-.007-.715-.263-.146-.138-.204-.328-.066-.204-.066-.394 0-.452.27-.714.263-.277.715-.27h2.297v-2.297q0-.066.007-.124.014-.058.021-.124.007-.065.022-.124.022-.058.051-.11.03-.057.073-.116.044-.058.095-.11.139-.145.32-.203.183-.066.395-.066.459 0 .714.27.263.255.27.707V96h2.297q.095 0 .19.015.094.014.182.043.095.03.182.088.088.05.16.117.146.138.205.328.065.19.065.393zM248.136 95.351q0 .452-.27.707-.263.277-.715.27h-6.65q-.044-.007-.087-.007l-.08-.015q-.037-.007-.08-.021-.045-.015-.088-.022-.037-.015-.073-.037-.037-.022-.08-.044-.037-.022-.073-.05-.037-.03-.066-.066-.146-.139-.211-.328-.059-.197-.059-.387 0-.452.27-.722.263-.277.715-.27h6.562q.08 0 .146.008.073.007.153.029.08.014.146.043.073.03.139.08.072.044.13.103.147.138.205.335.066.19.066.394zm0 3.281q0 .452-.27.708-.263.277-.715.27h-6.562q-.452 0-.715-.263-.146-.139-.211-.328-.059-.197-.059-.387 0-.452.27-.722.263-.277.715-.27h6.562q.204 0 .387.066.19.058.328.197.27.27.27.73zM256.893 96.984q0 .554-.562.883l-.08.05-6.468 3.238q-.218.11-.459.102-.416 0-.7-.313-.277-.3-.277-.693 0-.277.146-.503.153-.234.4-.357l4.806-2.407-4.805-2.399q-.248-.13-.401-.35-.146-.226-.146-.51 0-.394.277-.693.284-.328.7-.313.233 0 .46.102l6.467 3.237q.285.146.46.387.182.233.182.54z"/></g></g></svg>