<?xml version="1.0" encoding="UTF-8" standalone="no"?>
<!-- Created with Inkscape (http://www.inkscape.org/) -->

<svg
   xmlns:dc="http://purl.org/dc/elements/1.1/"
   xmlns:cc="http://creativecommons.org/ns#"
   xmlns:rdf="http://www.w3.org/1999/02/22-rdf-syntax-ns#"
   xmlns:svg="http://www.w3.org/2000/svg"
   xmlns="http://www.w3.org/2000/svg"
   xmlns:sodipodi="http://sodipodi.sourceforge.net/DTD/sodipodi-0.dtd"
   xmlns:inkscape="http://www.inkscape.org/namespaces/inkscape"
   width="81.424911mm"
   height="30.592886mm"
   viewBox="0 0 288.51347 108.39999"
   id="svg2"
   version="1.1"
   inkscape:version="0.91 r13725"
   sodipodi:docname="MPlus Nerd Font.svg">
  <defs
     id="defs4" />
  <sodipodi:namedview
     id="base"
     pagecolor="#ffffff"
     bordercolor="#666666"
     borderopacity="1.0"
     inkscape:pageopacity="0.0"
     inkscape:pageshadow="2"
     inkscape:zoom="0.7"
     inkscape:cx="-55.194647"
     inkscape:cy="-400.79644"
     inkscape:document-units="px"
     inkscape:current-layer="layer1"
     showgrid="false"
     inkscape:window-width="1861"
     inkscape:window-height="1056"
     inkscape:window-x="59"
     inkscape:window-y="24"
     inkscape:window-maximized="1" />
  <metadata
     id="metadata7">
    <rdf:RDF>
      <cc:Work
         rdf:about="">
        <dc:format>image/svg+xml</dc:format>
        <dc:type
           rdf:resource="http://purl.org/dc/dcmitype/StillImage" />
        <dc:title />
      </cc:Work>
    </rdf:RDF>
  </metadata>
  <g
     inkscape:label="Layer 1"
     inkscape:groupmode="layer"
     id="layer1"
     transform="translate(-65.194643,-80.308632)">
    <g
       style="font-style:normal;font-weight:normal;font-size:27.5px;line-height:125%;font-family:'mplus Nerd Font';text-decoration: underline;text-decoration-line: underline;letter-spacing:0px;word-spacing:0px;fill:#ffffff;fill-opacity:1;stroke:none;stroke-width:1px;stroke-linecap:butt;stroke-linejoin:miter;stroke-opacity:1"
       id="text4136">
      <path
         d="m 65.194643,100.93363 0,-20.074998 2.255,0 6.5725,12.1 0.055,0 6.5725,-12.1 2.3375,0 0,20.074998 -2.2,0 0,-16.389998 -0.055,0 -5.665,10.4225 -2.035,0 -5.665,-10.4225 -0.055,0 0,16.389998 -2.1175,0 z"
         id="path4140"
         inkscape:connector-curvature="0" />
      <path
         d="m 87.645815,81.023632 q 2.86,-0.44 5.5825,-0.44 3.74,0 5.665,1.595 1.952505,1.5675 1.952505,4.51 0,3.19 -1.952505,4.84 -1.9525,1.65 -5.665,1.65 -1.815,0 -3.3825,-0.165 l 0,7.919998 -2.2,0 0,-19.909998 z m 2.2,10.175 q 1.595,0.22 3.2175,0.22 2.7225,0 4.1525,-1.1825 1.4575,-1.1825 1.4575,-3.3825 0,-2.2 -1.43,-3.3275 -1.4025,-1.155 -4.18,-1.155 -1.5125,0 -3.2175,0.275 l 0,8.5525 z"
         id="path4142"
         inkscape:connector-curvature="0" />
      <path
         d="m 104.96007,100.93363 0,-20.624998 2.2,0 0,20.624998 -2.2,0 z"
         id="path4144"
         inkscape:connector-curvature="0" />
      <path
         d="m 112.26261,86.633632 2.0625,0 0,8.6075 q 0,2.475 0.7425,3.41 0.7425,0.9075 2.365,0.9075 1.485,0 2.805,-1.265 1.32,-1.2925 1.32,-2.805 l 0,-8.855 2.1175,0 0,14.299998 -1.98,0 -0.0275,-2.144998 -0.055,0 q -1.8975,2.419998 -4.73,2.419998 -2.3925,0 -3.52,-1.319998 -1.1,-1.32 -1.1,-4.3725 l 0,-8.8825 z"
         id="path4146"
         inkscape:connector-curvature="0" />
      <path
         d="m 132.82015,88.008632 q -3.3,0 -3.3,2.1175 0,0.9625 0.6325,1.5675 0.66,0.605 2.3925,0.99 2.97,0.66 4.0975,1.6775 1.1275,1.0175 1.1275,2.915 0,1.8425 -1.43,2.887498 -1.4025,1.045 -3.9875,1.045 -2.5575,0 -4.675,-0.9075 l 0,-1.759998 q 2.2,1.0175 4.4825,1.0175 3.4925,0 3.4925,-2.2825 0,-0.99 -0.715,-1.65 -0.6875,-0.66 -2.6125,-1.1 -2.6675,-0.6325 -3.795,-1.6225 -1.1275,-1.0175 -1.1275,-2.6125 0,-1.815 1.3475,-2.86 1.3475,-1.0725 3.8775,-1.0725 2.3375,0 4.6475,0.7425 l 0,1.76 q -2.2825,-0.8525 -4.455,-0.8525 z"
         id="path4148"
         inkscape:connector-curvature="0" />
      <path
         d="m 149.14484,100.93363 0,-20.074998 2.2825,0 9.7075,16.5 0.055,0 0,-16.5 2.1725,0 0,20.074998 -2.2825,0 -9.7075,-16.499998 -0.055,0 0,16.499998 -2.1725,0 z"
         id="path4150"
         inkscape:connector-curvature="0" />
      <path
         d="m 168.93109,94.333632 q 0.165,5.28 4.9775,5.28 1.8975,0 4.0975,-0.9075 l 0,1.814998 q -2.255,0.6875 -4.2625,0.6875 -3.3825,0 -5.17,-1.869998 -1.76,-1.87 -1.76,-5.555 0,-3.8225 1.6775,-5.61 1.705,-1.815 4.6475,-1.815 5.775,0 5.775,7.2325 0,0.2475 -0.055,0.7425 l -9.9275,0 z m 0.0275,-1.6225 7.8925,0 q -0.0825,-4.7575 -3.7125,-4.7575 -3.905,0 -4.18,4.7575 z"
         id="path4152"
         inkscape:connector-curvature="0" />
      <path
         d="m 182.22433,86.633632 2.1175,0 0,3.19 0.055,0 q 0.8525,-1.4575 2.475,-2.31 1.6225,-0.88 3.6025,-0.88 l 0.55,0 0,1.8425 -0.55,0 q -2.86,0 -4.455,1.485 -1.595,1.485 -1.595,4.2075 l 0,6.764998 -2.2,0 0,-14.299998 z"
         id="path4154"
         inkscape:connector-curvature="0" />
      <path
         d="m 203.58324,80.308632 2.09,0 0,20.624998 -1.98,0 -0.0275,-2.034998 -0.055,0 q -1.815,2.309998 -4.62,2.309998 -2.5575,0 -4.18,-1.979998 -1.595,-2.0075 -1.595,-5.445 0,-3.5475 1.54,-5.4725 1.5675,-1.9525 4.235,-1.9525 2.7775,0 4.5375,2.145 l 0.055,0 0,-8.195 z m -8.25,13.475 q 0,2.86 1.0725,4.3175 1.1,1.4575 3.0525,1.4575 1.595,0 2.86,-1.1 1.265,-1.1275 1.265,-2.5575 l 0,-4.235 q 0,-1.4025 -1.265,-2.53 -1.2375,-1.1275 -2.86,-1.1275 -4.125,0 -4.125,5.775 z"
         id="path4156"
         inkscape:connector-curvature="0" />
      <path
         d="m 229.09378,82.701132 -9.2675,0 0,6.82 8.7175,0 0,1.76 -8.7175,0 0,9.652498 -2.2,0 0,-20.074998 11.4675,0 0,1.8425 z"
         id="path4158"
         inkscape:connector-curvature="0" />
      <path
         d="m 233.32148,88.311132 q 1.7325,-1.9525 4.8125,-1.9525 3.08,0 4.8125,1.9525 1.76,1.9525 1.76,5.4725 0,3.52 -1.76,5.4725 -1.7325,1.952498 -4.8125,1.952498 -3.08,0 -4.8125,-1.952498 -1.7325,-1.9525 -1.7325,-5.4725 0,-3.52 1.7325,-5.4725 z m 0.4125,5.4725 q 0,5.775 4.4,5.775 4.4,0 4.4,-5.775 0,-5.775 -4.4,-5.775 -4.4,0 -4.4,5.775 z"
         id="path4160"
         inkscape:connector-curvature="0" />
      <path
         d="m 249.8391,86.633632 0.0275,2.145 0.055,0 q 1.98,-2.42 4.73,-2.42 2.5025,0 3.63,1.4025 1.1275,1.4025 1.1275,4.6475 l 0,8.524998 -2.0625,0 0,-8.249998 q 0,-2.7225 -0.7425,-3.685 -0.7425,-0.99 -2.5025,-0.99 -1.43,0 -2.7775,1.3475 -1.3475,1.32 -1.3475,2.7225 l 0,8.854998 -2.1175,0 0,-14.299998 1.98,0 z"
         id="path4162"
         inkscape:connector-curvature="0" />
      <path
         d="m 267.32695,81.958632 0,5.225 5.1975,0 0,1.65 -5.1975,0 0,7.5075 q 0,1.98 0.5225,2.6125 0.5225,0.605 2.0075,0.605 1.2375,0 2.2825,-0.385 l 0,1.704998 q -1.2925,0.33 -2.64,0.33 -2.42,0 -3.355,-0.99 -0.9075,-1.017498 -0.9075,-3.684998 l 0,-7.7 -3.08,0 0,-1.65 3.08,0 0,-5.225 2.09,0 z"
         id="path4164"
         inkscape:connector-curvature="0" />
    </g>
    <g
       style="font-style:normal;font-weight:normal;font-size:27.5px;line-height:125%;font-family:'mplus Nerd Font';letter-spacing:0px;word-spacing:0px;fill:#ffffff;fill-opacity:1;stroke:none;stroke-width:1px;stroke-linecap:butt;stroke-linejoin:miter;stroke-opacity:1"
       id="text4140">
      <path
         d="m 72.191903,135.15862 0,-0.4725 q 0,-1.0675 -0.49,-1.4875 -0.49,-0.4375 -1.7325,-0.4375 -1.4875,0 -3.185,0.665 l 0,-1.2075 q 1.575,-0.56 3.185,-0.56 2.0125,0 2.7825,0.735 0.77,0.735 0.77,2.6425 l 0,5.8975 -1.26,0 -0.0175,-1.5575 -0.035,0 q -1.05,1.7325 -3.2375,1.7325 -1.19,0 -1.9425,-0.7525 -0.735,-0.7525 -0.735,-1.995 0,-1.4525 1.155,-2.3275 1.155,-0.875 3.6925,-0.875 l 1.05,0 z m 0,0.9625 -1.05,0 q -1.7325,0 -2.625,0.56 -0.875,0.56 -0.875,1.575 0,0.7875 0.4375,1.2775 0.455,0.4725 1.19,0.4725 1.26,0 2.0825,-0.84 0.84,-0.84 0.84,-2.2225 l 0,-0.8225 z"
         style="font-size:17.5px"
         id="path4167"
         inkscape:connector-curvature="0" />
      <path
         d="m 77.497958,127.80862 0,5.215 0.035,0 q 1.12,-1.365 2.87,-1.365 1.6975,0 2.6775,1.2425 0.9975,1.225 0.9975,3.4825 0,2.1875 -1.0325,3.465 -1.015,1.26 -2.6425,1.26 -1.785,0 -2.94,-1.47 l -0.035,0 -0.0175,1.295 -1.26,0 0,-13.125 1.3475,0 z m 5.25,8.575 q 0,-3.675 -2.625,-3.675 -1.0325,0 -1.8375,0.7175 -0.7875,0.7175 -0.7875,1.61 l 0,2.695 q 0,0.91 0.805,1.6275 0.805,0.7 1.82,0.7 1.2425,0 1.925,-0.9275 0.7,-0.9275 0.7,-2.7475 z"
         style="font-size:17.5px"
         id="path4169"
         inkscape:connector-curvature="0" />
      <path
         d="m 89.938544,132.74362 q -2.8,0 -2.8,3.64 0,1.89 0.735,2.765 0.735,0.875 2.24,0.875 1.19,0 2.3275,-0.4725 l 0,1.1725 q -1.225,0.385 -2.415,0.385 -2.065,0 -3.185,-1.19 -1.1025,-1.2075 -1.1025,-3.535 0,-2.31 1.0675,-3.5175 1.085,-1.2075 3.045,-1.2075 1.3125,0 2.5025,0.315 l 0,1.1725 q -1.1375,-0.4025 -2.415,-0.4025 z"
         style="font-size:17.5px"
         id="path4171"
         inkscape:connector-curvature="0" />
      <path
         d="m 101.03682,127.80862 1.33,0 0,13.125 -1.26,0 -0.0175,-1.295 -0.035,0 q -1.154995,1.47 -2.939995,1.47 -1.6275,0 -2.66,-1.26 -1.015,-1.2775 -1.015,-3.465 0,-2.2575 0.98,-3.4825 0.9975,-1.2425 2.695,-1.2425 1.7675,0 2.887495,1.365 l 0.035,0 0,-5.215 z m -5.249995,8.575 q 0,1.82 0.6825,2.7475 0.7,0.9275 1.9425,0.9275 1.015,0 1.819995,-0.7 0.805,-0.7175 0.805,-1.6275 l 0,-2.695 q 0,-0.8925 -0.805,-1.61 -0.787495,-0.7175 -1.819995,-0.7175 -2.625,0 -2.625,3.675 z"
         style="font-size:17.5px"
         id="path4173"
         inkscape:connector-curvature="0" />
      <path
         d="m 105.81651,136.73362 q 0.105,3.36 3.1675,3.36 1.2075,0 2.6075,-0.5775 l 0,1.155 q -1.435,0.4375 -2.7125,0.4375 -2.1525,0 -3.29,-1.19 -1.12,-1.19 -1.12,-3.535 0,-2.4325 1.0675,-3.57 1.085,-1.155 2.9575,-1.155 3.675,0 3.675,4.6025 0,0.1575 -0.035,0.4725 l -6.3175,0 z m 0.0175,-1.0325 5.0225,0 q -0.0525,-3.0275 -2.3625,-3.0275 -2.485,0 -2.66,3.0275 z"
         style="font-size:17.5px"
         id="path4175"
         inkscape:connector-curvature="0" />
      <path
         d="m 113.75495,132.18362 2.1525,0 0,-0.9975 q 0,-1.68 0.7,-2.4325 0.7175,-0.77 2.275,-0.77 0.7875,0 1.575,0.2625 l 0,1.0675 q -0.7,-0.28 -1.33,-0.28 -1.015,0 -1.4175,0.455 -0.4025,0.455 -0.4025,1.645 l 0,1.05 2.975,0 0,1.05 -2.975,0 0,7.7 -1.4,0 0,-7.7 -2.1525,0 0,-1.05 z"
         style="font-size:17.5px"
         id="path4177"
         inkscape:connector-curvature="0" />
      <path
         d="m 129.53557,131.83362 0,8.575 q 0,2.3625 -1.015,3.4475 -1.015,1.1025 -3.185,1.1025 -1.3825,0 -2.555,-0.385 l 0,-1.1725 q 1.225,0.5075 2.555,0.5075 1.5225,0 2.1875,-0.805 0.6825,-0.805 0.6825,-2.6425 l 0,-0.875 -0.035,0 q -1.0675,1.3475 -2.8525,1.3475 -1.5925,0 -2.5725,-1.225 -0.9625,-1.2425 -0.9625,-3.4475 0,-2.3275 0.9625,-3.465 0.98,-1.1375 2.5725,-1.1375 1.7675,0 2.905,1.47 l 0.035,0 0.0175,-1.295 1.26,0 z m -6.405,4.4275 q 0,1.7675 0.665,2.695 0.6825,0.9275 1.8725,0.9275 1.015,0 1.7675,-0.7525 0.77,-0.7525 0.77,-1.8025 l 0,-2.03 q 0,-1.05 -0.77,-1.82 -0.7525,-0.77 -1.7675,-0.77 -2.5375,0 -2.5375,3.5525 z"
         style="font-size:17.5px"
         id="path4179"
         inkscape:connector-curvature="0" />
      <path
         d="m 133.58682,127.80862 0,5.4075 0.035,0 q 1.2425,-1.5575 2.94,-1.5575 1.5925,0 2.31,0.8925 0.7175,0.875 0.7175,2.9575 l 0,5.425 -1.3125,0 0,-5.1975 q 0,-1.7675 -0.4725,-2.3625 -0.455,-0.6125 -1.5925,-0.6125 -0.91,0 -1.7675,0.875 -0.8575,0.8575 -0.8575,1.7675 l 0,5.53 -1.3475,0 0,-13.125 1.3475,0 z"
         style="font-size:17.5px"
         id="path4181"
         inkscape:connector-curvature="0" />
      <path
         d="m 142.83229,140.93362 0,-9.1 1.4,0 0,9.1 -1.4,0 z m 0,-11.2525 0,-1.8725 1.4,0 0,1.8725 -1.4,0 z"
         style="font-size:17.5px"
         id="path4183"
         inkscape:connector-curvature="0" />
      <path
         d="m 146.07936,143.64612 q 1.9075,0 2.4325,-0.49 0.5425,-0.4725 0.5425,-2.17 l 0,-9.1525 1.4,0 0,9.1525 q 0,2.2925 -0.8575,3.045 -0.84,0.7525 -3.5175,0.7525 l 0,-1.1375 z m 2.975,-13.965 0,-1.8725 1.4,0 0,1.8725 -1.4,0 z"
         style="font-size:17.5px"
         id="path4185"
         inkscape:connector-curvature="0" />
      <path
         d="m 155.22257,127.80862 0,8.085 0.035,0 4.3925,-4.06 1.6625,0 -4.7775,4.375 4.8125,4.725 -1.645,0 -4.445,-4.41 -0.035,0 0,4.41 -1.3475,0 0,-13.125 1.3475,0 z"
         style="font-size:17.5px"
         id="path4187"
         inkscape:connector-curvature="0" />
      <path
         d="m 164.16042,140.93362 0,-13.125 1.4,0 0,13.125 -1.4,0 z"
         style="font-size:17.5px"
         id="path4189"
         inkscape:connector-curvature="0" />
      <path
         d="m 170.17249,131.83362 0.035,1.2425 0.035,0 q 0.9975,-1.4175 2.38,-1.4175 0.84,0 1.365,0.385 0.525,0.3675 0.8575,1.2425 l 0.035,0 q 0.9975,-1.6275 2.555,-1.6275 1.4,0 2.03,0.805 0.63,0.805 0.63,2.695 l 0,5.775 -1.3125,0 0,-5.425 q 0,-1.6275 -0.385,-2.205 -0.3675,-0.595 -1.3125,-0.595 -0.6475,0 -1.295,0.7 -0.63,0.6825 -0.63,1.4175 l 0,6.1075 -1.3125,0 0,-5.425 q 0,-1.6275 -0.385,-2.205 -0.385,-0.595 -1.3125,-0.595 -0.6475,0 -1.2775,0.7 -0.63,0.6825 -0.63,1.4175 l 0,6.1075 -1.3475,0 0,-9.1 1.2775,0 z"
         style="font-size:17.5px"
         id="path4191"
         inkscape:connector-curvature="0" />
      <path
         d="m 183.89522,131.83362 0.0175,1.365 0.035,0 q 1.26,-1.54 3.01,-1.54 1.5925,0 2.31,0.8925 0.7175,0.8925 0.7175,2.9575 l 0,5.425 -1.3125,0 0,-5.25 q 0,-1.7325 -0.4725,-2.345 -0.4725,-0.63 -1.5925,-0.63 -0.91,0 -1.7675,0.8575 -0.8575,0.84 -0.8575,1.7325 l 0,5.635 -1.3475,0 0,-9.1 1.26,0 z"
         style="font-size:17.5px"
         id="path4193"
         inkscape:connector-curvature="0" />
      <path
         d="m 193.00315,132.90112 q 1.1025,-1.2425 3.0625,-1.2425 1.96,0 3.0625,1.2425 1.12,1.2425 1.12,3.4825 0,2.24 -1.12,3.4825 -1.1025,1.2425 -3.0625,1.2425 -1.96,0 -3.0625,-1.2425 -1.1025,-1.2425 -1.1025,-3.4825 0,-2.24 1.1025,-3.4825 z m 0.2625,3.4825 q 0,3.675 2.8,3.675 2.8,0 2.8,-3.675 0,-3.675 -2.8,-3.675 -2.8,0 -2.8,3.675 z"
         style="font-size:17.5px"
         id="path4195"
         inkscape:connector-curvature="0" />
      <path
         d="m 202.25436,131.83362 1.26,0 0.0175,1.3125 0.035,0 q 1.155,-1.4875 2.94,-1.4875 1.6975,0 2.6775,1.2425 0.9975,1.225 0.9975,3.4825 0,2.1875 -1.0325,3.465 -1.015,1.26 -2.6425,1.26 -1.785,0 -2.87,-1.365 l -0.035,0 0,5.04 -1.3475,0 0,-12.95 z m 6.5975,4.55 q 0,-3.675 -2.625,-3.675 -1.0675,0 -1.855,0.735 -0.77,0.7175 -0.77,1.6975 l 0,2.485 q 0,0.9975 0.7875,1.715 0.7875,0.7175 1.8375,0.7175 1.2425,0 1.925,-0.9275 0.7,-0.945 0.7,-2.7475 z"
         style="font-size:17.5px"
         id="path4197"
         inkscape:connector-curvature="0" />
      <path
         d="m 219.84241,131.83362 0,12.95 -1.33,0 0,-5.04 -0.035,0 q -1.0675,1.365 -2.8875,1.365 -1.6275,0 -2.66,-1.26 -1.015,-1.2775 -1.015,-3.465 0,-2.2575 0.98,-3.4825 0.9975,-1.2425 2.695,-1.2425 1.785,0 2.94,1.4875 l 0.035,0 0.0175,-1.3125 1.26,0 z m -6.58,4.55 q 0,1.8025 0.6825,2.7475 0.7,0.9275 1.9425,0.9275 1.05,0 1.8375,-0.7175 0.7875,-0.7175 0.7875,-1.715 l 0,-2.485 q 0,-0.98 -0.7875,-1.6975 -0.77,-0.735 -1.8375,-0.735 -2.625,0 -2.625,3.675 z"
         style="font-size:17.5px"
         id="path4199"
         inkscape:connector-curvature="0" />
      <path
         d="m 222.45456,131.83362 1.3475,0 0,2.03 0.035,0 q 0.5425,-0.9275 1.575,-1.47 1.0325,-0.56 2.2925,-0.56 l 0.35,0 0,1.1725 -0.35,0 q -1.82,0 -2.835,0.945 -1.015,0.945 -1.015,2.6775 l 0,4.305 -1.4,0 0,-9.1 z"
         style="font-size:17.5px"
         id="path4201"
         inkscape:connector-curvature="0" />
      <path
         d="m 233.15909,132.70862 q -2.1,0 -2.1,1.3475 0,0.6125 0.4025,0.9975 0.42,0.385 1.5225,0.63 1.89,0.42 2.6075,1.0675 0.7175,0.6475 0.7175,1.855 0,1.1725 -0.91,1.8375 -0.8925,0.665 -2.5375,0.665 -1.6275,0 -2.975,-0.5775 l 0,-1.12 q 1.4,0.6475 2.8525,0.6475 2.2225,0 2.2225,-1.4525 0,-0.63 -0.455,-1.05 -0.4375,-0.42 -1.6625,-0.7 -1.6975,-0.4025 -2.415,-1.0325 -0.7175,-0.6475 -0.7175,-1.6625 0,-1.155 0.8575,-1.82 0.8575,-0.6825 2.4675,-0.6825 1.4875,0 2.9575,0.4725 l 0,1.12 q -1.4525,-0.5425 -2.835,-0.5425 z"
         style="font-size:17.5px"
         id="path4203"
         inkscape:connector-curvature="0" />
      <path
         d="m 241.16643,128.85862 0,3.325 3.3075,0 0,1.05 -3.3075,0 0,4.7775 q 0,1.26 0.3325,1.6625 0.3325,0.385 1.2775,0.385 0.7875,0 1.4525,-0.245 l 0,1.085 q -0.8225,0.21 -1.68,0.21 -1.54,0 -2.135,-0.63 -0.5775,-0.6475 -0.5775,-2.345 l 0,-4.9 -1.96,0 0,-1.05 1.96,0 0,-3.325 1.33,0 z"
         style="font-size:17.5px"
         id="path4205"
         inkscape:connector-curvature="0" />
      <path
         d="m 247.01061,131.83362 1.3125,0 0,5.4775 q 0,1.575 0.4725,2.17 0.4725,0.5775 1.505,0.5775 0.945,0 1.785,-0.805 0.84,-0.8225 0.84,-1.785 l 0,-5.635 1.3475,0 0,9.1 -1.26,0 -0.0175,-1.365 -0.035,0 q -1.2075,1.54 -3.01,1.54 -1.5225,0 -2.24,-0.84 -0.7,-0.84 -0.7,-2.7825 l 0,-5.6525 z"
         style="font-size:17.5px"
         id="path4207"
         inkscape:connector-curvature="0" />
      <path
         d="m 257.66018,131.83362 2.73,8.3125 0.035,0 2.7125,-8.3125 1.4175,0 -3.2725,9.1 -1.8025,0 -3.2725,-9.1 1.4525,0 z"
         style="font-size:17.5px"
         id="path4209"
         inkscape:connector-curvature="0" />
      <path
         d="m 267.4055,131.83362 1.9075,7.945 0.035,0 1.855,-7.945 1.8025,0 1.855,7.945 0.035,0 1.9075,-7.945 1.4,0 -2.5025,9.1 -1.75,0 -1.855,-7.8225 -0.035,0 -1.855,7.8225 -1.75,0 -2.5025,-9.1 1.4525,0 z"
         style="font-size:17.5px"
         id="path4211"
         inkscape:connector-curvature="0" />
      <path
         d="m 281.27069,131.83362 2.2925,3.6225 0.035,0 2.2925,-3.6225 1.4525,0 -3.01,4.48 3.0975,4.62 -1.505,0 -2.38,-3.7625 -0.035,0 -2.3625,3.7625 -1.47,0 3.115,-4.62 -3.0275,-4.48 1.505,0 z"
         style="font-size:17.5px"
         id="path4213"
         inkscape:connector-curvature="0" />
      <path
         d="m 290.16425,131.83362 2.625,7.49 0.035,0 2.905,-7.49 1.365,0 -5.3375,12.95 -1.365,0 1.715,-3.92 -3.36,-9.03 1.4175,0 z"
         style="font-size:17.5px"
         id="path4215"
         inkscape:connector-curvature="0" />
      <path
         d="m 299.01706,131.83362 6.7725,0 0,1.05 -5.1625,6.965 0,0.035 5.1625,0 0,1.05 -6.7725,0 0,-1.05 5.1625,-6.965 0,-0.035 -5.1625,0 0,-1.05 z"
         style="font-size:17.5px"
         id="path4217"
         inkscape:connector-curvature="0" />
      <path
         d="m 65.944403,162.80862 4.4975,-12.775 1.575,0 4.48,12.775 -1.4875,0 -1.225,-3.7275 -5.1625,0 -1.225,3.7275 -1.4525,0 z m 3.045,-4.8475 4.4275,0 -2.205,-6.6675 -0.035,0 -2.1875,6.6675 z"
         style="font-size:17.5px"
         id="path4219"
         inkscape:connector-curvature="0" />
      <path
         d="m 86.771317,159.13362 q 0,3.85 -5.005,3.85 -1.645,0 -3.2725,-0.28 l 0,-12.565 q 1.54,-0.28 3.0975,-0.28 4.6025,0 4.6025,3.0975 0,1.085 -0.7,1.855 -0.7,0.77 -1.925,1.0325 l 0,0.035 q 1.5225,0.2275 2.3625,1.12 0.84,0.8925 0.84,2.135 z m -1.365,-0.1225 q 0,-2.52 -4.34,-2.52 l -1.1725,0 0,5.1975 q 0.8575,0.1575 1.8725,0.1575 3.64,0 3.64,-2.835 z m -5.5125,-3.64 1.1725,0 q 3.815,0 3.815,-2.24 0,-1.085 -0.7875,-1.61 -0.7875,-0.525 -2.5025,-0.525 -0.91,0 -1.6975,0.1575 l 0,4.2175 z"
         style="font-size:17.5px"
         id="path4221"
         inkscape:connector-curvature="0" />
      <path
         d="m 93.852802,161.81112 q 1.4875,0 2.94,-0.5075 l 0,1.2425 q -1.505,0.4375 -3.0625,0.4375 -2.52,0 -4.0425,-1.715 -1.5225,-1.7325 -1.5225,-4.8475 0,-3.0975 1.4525,-4.83 1.47,-1.7325 4.06,-1.7325 1.5925,0 3.0275,0.4375 l 0,1.2425 q -1.4525,-0.5075 -2.905,-0.5075 -1.9775,0 -3.0975,1.4175 -1.12,1.4175 -1.12,3.9725 0,2.5375 1.155,3.9725 1.1725,1.4175 3.115,1.4175 z"
         style="font-size:17.5px"
         id="path4223"
         inkscape:connector-curvature="0" />
      <path
         d="m 107.68272,156.24612 q 0,-2.6775 -1.2075,-3.9375 -1.19,-1.2775 -3.6925,-1.2775 -0.91,0 -1.6975,0.1575 l 0,10.465 q 0.7875,0.1575 1.6975,0.1575 2.5375,0 3.71,-1.3125 1.19,-1.3125 1.19,-4.2525 z m 1.33,0 q 0,6.7375 -6.23,6.7375 -1.5575,0 -3.097497,-0.28 l 0,-12.565 q 1.574997,-0.28 3.097497,-0.28 6.23,0 6.23,6.3875 z"
         style="font-size:17.5px"
         id="path4225"
         inkscape:connector-curvature="0" />
      <path
         d="m 118.67628,151.20612 -6.0725,0 0,4.165 5.7225,0 0,1.12 -5.7225,0 0,5.145 6.0725,0 0,1.1725 -7.4725,0 0,-12.775 7.4725,0 0,1.1725 z"
         style="font-size:17.5px"
         id="path4227"
         inkscape:connector-curvature="0" />
      <path
         d="m 128.78936,151.20612 -5.8975,0 0,4.34 5.5475,0 0,1.12 -5.5475,0 0,6.1425 -1.4,0 0,-12.775 7.2975,0 0,1.1725 z"
         style="font-size:17.5px"
         id="path4229"
         inkscape:connector-curvature="0" />
      <path
         d="m 134.97561,155.37112 5.495,0 0,6.8425 q -1.8375,0.77 -3.9725,0.77 -2.625,0 -4.2875,-1.7675 -1.6625,-1.785 -1.6625,-4.795 0,-3.045 1.68,-4.795 1.68,-1.7675 4.5675,-1.7675 1.6275,0 3.08,0.4025 l 0,1.225 q -1.5225,-0.49 -2.975,-0.49 -2.3275,0 -3.64,1.435 -1.295,1.4175 -1.295,3.99 0,2.5025 1.2775,3.9725 1.2775,1.4525 3.3775,1.4525 1.295,0 2.5025,-0.4375 l 0,-4.9175 -4.1475,0 0,-1.12 z"
         style="font-size:17.5px"
         id="path4231"
         inkscape:connector-curvature="0" />
      <path
         d="m 144.76686,150.03362 0,5.3375 6.0725,0 0,-5.3375 1.4,0 0,12.775 -1.4,0 0,-6.3175 -6.0725,0 0,6.3175 -1.4,0 0,-12.775 1.4,0 z"
         style="font-size:17.5px"
         id="path4233"
         inkscape:connector-curvature="0" />
      <path
         d="m 155.75222,162.80862 0,-12.775 1.5225,0 0,12.775 -1.5225,0 z"
         style="font-size:17.5px"
         id="path4235"
         inkscape:connector-curvature="0" />
      <path
         d="m 165.75182,150.03362 1.4525,0 0,8.575 q 0,2.275 -1.015,3.325 -0.9975,1.05 -3.115,1.05 -1.68,0 -3.0975,-0.525 l 0,-1.295 q 1.575,0.6475 3.0975,0.6475 1.3825,0 2.03,-0.8225 0.6475,-0.8225 0.6475,-2.73 l 0,-8.225 z"
         style="font-size:17.5px"
         id="path4237"
         inkscape:connector-curvature="0" />
      <path
         d="m 171.39284,150.03362 0,5.6875 0.035,0 5.3375,-5.6875 1.68,0 -5.7925,6.125 5.9675,6.65 -1.68,0 -5.5125,-6.23 -0.035,0 0,6.23 -1.4,0 0,-12.775 1.4,0 z"
         style="font-size:17.5px"
         id="path4239"
         inkscape:connector-curvature="0" />
      <path
         d="m 182.17776,150.03362 0,11.585 6.195,0 0,1.19 -7.6475,0 0,-12.775 1.4525,0 z"
         style="font-size:17.5px"
         id="path4241"
         inkscape:connector-curvature="0" />
      <path
         d="m 190.91081,162.80862 0,-12.775 1.435,0 4.1825,7.7 0.035,0 4.1825,-7.7 1.4875,0 0,12.775 -1.4,0 0,-10.43 -0.035,0 -3.605,6.6325 -1.295,0 -3.605,-6.6325 -0.035,0 0,10.43 -1.3475,0 z"
         style="font-size:17.5px"
         id="path4243"
         inkscape:connector-curvature="0" />
      <path
         d="m 205.19792,162.80862 0,-12.775 1.4525,0 6.1775,10.5 0.035,0 0,-10.5 1.3825,0 0,12.775 -1.4525,0 -6.1775,-10.5 -0.035,0 0,10.5 -1.3825,0 z"
         style="font-size:17.5px"
         id="path4245"
         inkscape:connector-curvature="0" />
      <path
         d="m 225.03417,152.39612 q -1.05,-1.365 -3.045,-1.365 -1.995,0 -3.0625,1.365 -1.0675,1.365 -1.0675,4.025 0,2.66 1.0675,4.025 1.0675,1.365 3.0625,1.365 1.995,0 3.045,-1.365 1.0675,-1.365 1.0675,-4.025 0,-2.66 -1.0675,-4.025 z m -3.045,10.5875 q -2.59,0 -4.0775,-1.715 -1.47,-1.7325 -1.47,-4.8475 0,-3.115 1.47,-4.83 1.4875,-1.7325 4.0775,-1.7325 2.5725,0 4.0425,1.7325 1.4875,1.715 1.4875,4.83 0,3.115 -1.4875,4.8475 -1.47,1.715 -4.0425,1.715 z"
         style="font-size:17.5px"
         id="path4247"
         inkscape:connector-curvature="0" />
      <path
         d="m 229.70475,150.13862 q 1.82,-0.28 3.5525,-0.28 2.38,0 3.605,1.015 1.2425,0.9975 1.2425,2.87 0,2.03 -1.2425,3.08 -1.2425,1.05 -3.605,1.05 -1.155,0 -2.1525,-0.105 l 0,5.04 -1.4,0 0,-12.67 z m 1.4,6.475 q 1.015,0.14 2.0475,0.14 1.7325,0 2.6425,-0.7525 0.9275,-0.7525 0.9275,-2.1525 0,-1.4 -0.91,-2.1175 -0.8925,-0.735 -2.66,-0.735 -0.9625,0 -2.0475,0.175 l 0,5.4425 z"
         style="font-size:17.5px"
         id="path4249"
         inkscape:connector-curvature="0" />
      <path
         d="m 244.95792,149.85862 q 2.5725,0 4.0425,1.7325 1.4875,1.715 1.4875,4.83 0,2.17 -0.7875,3.675 -0.77,1.505 -2.205,2.205 l 0,0.035 q 1.33,0.315 2.485,1.155 1.155,0.84 1.855,1.9425 l -1.6625,0 q -0.9275,-1.3825 -2.065,-1.925 -1.1375,-0.525 -3.15,-0.525 -2.59,0 -4.0775,-1.715 -1.47,-1.7325 -1.47,-4.8475 0,-3.115 1.47,-4.83 1.4875,-1.7325 4.0775,-1.7325 z m -3.0625,10.5875 q 1.0675,1.365 3.0625,1.365 1.995,0 3.045,-1.365 1.0675,-1.365 1.0675,-4.025 0,-2.66 -1.0675,-4.025 -1.05,-1.365 -3.045,-1.365 -1.995,0 -3.0625,1.365 -1.0675,1.365 -1.0675,4.025 0,2.66 1.0675,4.025 z"
         style="font-size:17.5px"
         id="path4251"
         inkscape:connector-curvature="0" />
      <path
         d="m 253.22038,162.80862 0,-12.6875 q 1.5225,-0.2625 3.2725,-0.2625 2.45,0 3.6925,0.91 1.26,0.8925 1.26,2.555 0,1.33 -0.7175,2.2225 -0.7175,0.8925 -2.03,1.225 l 0,0.035 q 0.7875,0.42 1.5575,2.275 l 1.54,3.7275 -1.4525,0 -1.505,-3.6925 q -0.525,-1.26 -0.9975,-1.5575 -0.455,-0.315 -1.82,-0.315 l -1.4,0 0,5.565 -1.4,0 z m 1.4,-6.685 1.4,0 q 2.0825,0 3.0625,-0.665 0.98,-0.6825 0.98,-2.0125 0,-2.45 -3.6925,-2.45 -0.9275,0 -1.75,0.1575 l 0,4.97 z"
         style="font-size:17.5px"
         id="path4253"
         inkscape:connector-curvature="0" />
      <path
         d="m 267.03444,149.85862 q 1.9075,0 3.5525,0.735 l 0,1.33 q -1.6975,-0.9275 -3.43,-0.9275 -1.05,0 -1.6975,0.49 -0.63,0.49 -0.63,1.4875 0,1.7325 2.275,2.485 2.17,0.7175 3.045,1.645 0.875,0.9275 0.875,2.38 0,1.715 -1.0325,2.6075 -1.015,0.8925 -3.01,0.8925 -1.82,0 -3.325,-0.84 l 0,-1.3825 q 1.4875,1.05 3.2025,1.05 2.765,0 2.765,-2.3275 0,-0.945 -0.595,-1.575 -0.595,-0.63 -1.96,-1.1025 -3.6225,-1.225 -3.6225,-3.8325 0,-1.47 0.945,-2.2925 0.945,-0.8225 2.6425,-0.8225 z"
         style="font-size:17.5px"
         id="path4255"
         inkscape:connector-curvature="0" />
      <path
         d="m 272.778,150.03362 8.9775,0 0,1.19 -3.78,0 0,11.585 -1.4,0 0,-11.585 -3.7975,0 0,-1.19 z"
         style="font-size:17.5px"
         id="path4257"
         inkscape:connector-curvature="0" />
      <path
         d="m 285.53222,150.03362 0,8.4525 q 0,1.6975 0.7525,2.5025 0.7525,0.805 2.2925,0.805 1.54,0 2.275,-0.805 0.7525,-0.805 0.7525,-2.5025 l 0,-8.4525 1.3825,0 0,8.4 q 0,2.2575 -1.1375,3.4125 -1.1375,1.1375 -3.3075,1.1375 -2.1525,0 -3.29,-1.1375 -1.1375,-1.155 -1.1375,-3.4125 l 0,-8.4 1.4175,0 z"
         style="font-size:17.5px"
         id="path4259"
         inkscape:connector-curvature="0" />
      <path
         d="m 296.31659,150.03362 3.78,11.3925 0.035,0 3.78,-11.3925 1.4525,0 -4.48,12.775 -1.575,0 -4.4975,-12.775 1.505,0 z"
         style="font-size:17.5px"
         id="path4261"
         inkscape:connector-curvature="0" />
      <path
         d="m 308.2669,150.03362 2.2225,11.27 0.035,0 2.3275,-11.27 1.82,0 2.345,11.27 0.035,0 2.2225,-11.27 1.3825,0 -2.8,12.775 -1.75,0 -2.345,-11.27 -0.035,0 -2.345,11.27 -1.75,0 -2.8,-12.775 1.435,0 z"
         style="font-size:17.5px"
         id="path4263"
         inkscape:connector-curvature="0" />
      <path
         d="m 324.13694,150.03362 3.01,5.32 0.035,0 3.0275,-5.32 1.575,0 -3.745,6.3 3.8325,6.475 -1.645,0 -3.08,-5.495 -0.035,0 -3.0975,5.495 -1.5925,0 3.8325,-6.475 -3.745,-6.3 1.6275,0 z"
         style="font-size:17.5px"
         id="path4265"
         inkscape:connector-curvature="0" />
      <path
         d="m 335.01128,150.03362 3.5175,6.195 0.035,0 3.535,-6.195 1.5925,0 -4.4275,7.3675 0,5.4075 -1.47,0 0,-5.4075 -4.4275,-7.3675 1.645,0 z"
         style="font-size:17.5px"
         id="path4267"
         inkscape:connector-curvature="0" />
      <path
         d="m 345.53561,150.03362 8.1725,0 0,1.1725 -6.5275,10.395 0,0.035 6.5275,0 0,1.1725 -8.1725,0 0,-1.1725 6.5275,-10.395 0,-0.035 -6.5275,0 0,-1.1725 z"
         style="font-size:17.5px"
         id="path4269"
         inkscape:connector-curvature="0" />
      <path
         d="m 67.221903,176.65112 q 1.1025,-1.2425 3.0625,-1.2425 1.96,0 3.0625,1.2425 1.12,1.2425 1.12,3.4825 0,2.24 -1.12,3.4825 -1.1025,1.2425 -3.0625,1.2425 -1.96,0 -3.0625,-1.2425 -1.1025,-1.2425 -1.1025,-3.4825 0,-2.24 1.1025,-3.4825 z m 0.2625,3.4825 q 0,3.675 2.8,3.675 2.8,0 2.8,-3.675 0,-3.675 -2.8,-3.675 -2.8,0 -2.8,3.675 z"
         style="font-size:17.5px"
         id="path4271"
         inkscape:connector-curvature="0" />
      <path
         d="m 84.453114,174.27112 q -1.05,-1.365 -3.045,-1.365 -1.995,0 -3.0625,1.365 -1.0675,1.365 -1.0675,4.025 0,2.66 1.0675,4.025 1.0675,1.365 3.0625,1.365 1.995,0 3.045,-1.365 1.0675,-1.365 1.0675,-4.025 0,-2.66 -1.0675,-4.025 z m -3.045,10.5875 q -2.59,0 -4.0775,-1.715 -1.47,-1.7325 -1.47,-4.8475 0,-3.115 1.47,-4.83 1.4875,-1.7325 4.0775,-1.7325 2.5725,0 4.0425,1.7325 1.4875,1.715 1.4875,4.83 0,3.115 -1.4875,4.8475 -1.47,1.715 -4.0425,1.715 z"
         style="font-size:17.5px"
         id="path4273"
         inkscape:connector-curvature="0" />
      <path
         d="m 93.0437,171.73362 q 4.62,0 4.62,6.5625 0,6.5625 -4.62,6.5625 -2.1875,0 -3.395,-1.5225 -1.2075,-1.5225 -1.2075,-5.04 0,-3.5175 1.2075,-5.04 1.2075,-1.5225 3.395,-1.5225 z m -2.415,10.71 q 0.805,1.2775 2.415,1.2775 1.61,0 2.415,-1.2775 0.805,-1.295 0.805,-4.1475 0,-2.8525 -0.805,-4.13 -0.805,-1.295 -2.415,-1.295 -1.61,0 -2.415,1.295 -0.7875,1.2775 -0.7875,4.13 0,2.8525 0.7875,4.1475 z"
         style="font-size:17.5px"
         id="path4275"
         inkscape:connector-curvature="0" />
      <path
         d="m 100.83366,172.57362 q 1.12,-0.84 3.045,-0.84 1.925,0 3.0275,0.84 1.12,0.84 1.12,2.2225 0,2.1175 -2.45,2.9925 l 0,0.035 q 2.9225,0.8575 2.9225,3.4125 0,1.6625 -1.2425,2.6425 -1.225,0.98 -3.3775,0.98 -2.1525,0 -3.3775,-0.98 -1.224999,-0.98 -1.224999,-2.6425 0,-1.12 0.752499,-1.995 0.7525,-0.875 2.1525,-1.3125 l 0,-0.035 q -1.1725,-0.4375 -1.82,-1.2425 -0.629999,-0.805 -0.629999,-1.855 0,-1.3825 1.102499,-2.2225 z m 3.045,4.76 q 1.3475,-0.28 2.1,-0.91 0.7525,-0.6475 0.7525,-1.505 0,-0.945 -0.7525,-1.505 -0.7525,-0.56 -2.1,-0.56 -1.33,0 -2.065,0.56 -0.7175,0.5425 -0.7175,1.505 0,0.875 0.7175,1.5225 0.735,0.63 2.065,0.8925 z m -0.0525,1.1025 q -1.5925,0.315 -2.415,1.0325 -0.805,0.7175 -0.805,1.715 0,1.19 0.875,1.8725 0.875,0.6825 2.3975,0.6825 1.5225,0 2.38,-0.6825 0.8575,-0.7 0.8575,-1.8725 0,-2.1175 -3.29,-2.7475 z"
         style="font-size:17.5px"
         id="path4277"
         inkscape:connector-curvature="0" />
      <path
         d="m 116.03542,184.68362 0,-9.1 1.4,0 0,9.1 -1.4,0 z m 0,-11.2525 0,-1.8725 1.4,0 0,1.8725 -1.4,0 z"
         style="font-size:17.5px"
         id="path4279"
         inkscape:connector-curvature="0" />
      <path
         d="m 121.46999,184.68362 0,-12.775 1.5225,0 0,12.775 -1.5225,0 z"
         style="font-size:17.5px"
         id="path4281"
         inkscape:connector-curvature="0" />
      <path
         d="m 127.0071,184.68362 0,-13.125 1.4,0 0,13.125 -1.4,0 z"
         style="font-size:17.5px"
         id="path4283"
         inkscape:connector-curvature="0" />
      <path
         d="m 133.36917,171.90862 0,11.585 6.195,0 0,1.19 -7.6475,0 0,-12.775 1.4525,0 z"
         style="font-size:17.5px"
         id="path4285"
         inkscape:connector-curvature="0" />
      <path
         d="m 146.16222,184.68362 0,-11.2175 -0.035,0 -3.5875,2.905 0,-1.54 3.6225,-2.9225 1.4,0 0,12.775 -1.4,0 z"
         style="font-size:17.5px"
         id="path4287"
         inkscape:connector-curvature="0" />
      <path
         d="m 163.56897,172.25862 -1.155,0 q -0.945,0 -1.33,0.3675 -0.3675,0.3675 -0.3675,1.5575 l 0,2.3275 q 0,1.9775 -1.4525,2.6425 l 0,0.035 q 1.4525,0.665 1.4525,2.6425 l 0,2.3275 q 0,1.19 0.3675,1.5575 0.385,0.3675 1.33,0.3675 l 1.155,0 0,1.05 -1.75,0 q -1.26,0 -1.82,-0.6125 -0.56,-0.6125 -0.56,-2.0125 l 0,-2.625 q 0,-2.1525 -1.47,-2.1525 l -0.7525,0 0,-1.12 0.7525,0 q 1.47,0 1.47,-2.1525 l 0,-2.625 q 0,-1.4 0.56,-2.0125 0.56,-0.6125 1.82,-0.6125 l 1.75,0 0,1.05 z"
         style="font-size:17.5px"
         id="path4289"
         inkscape:connector-curvature="0" />
      <path
         d="m 167.07253,172.25862 0,-1.05 1.75,0 q 1.26,0 1.82,0.6125 0.5775,0.6125 0.5775,2.0125 l 0,2.625 q 0,2.1525 1.4525,2.1525 l 0.7525,0 0,1.12 -0.7525,0 q -1.4525,0 -1.4525,2.1525 l 0,2.625 q 0,1.4 -0.5775,2.0125 -0.56,0.6125 -1.82,0.6125 l -1.75,0 0,-1.05 1.1725,0 q 0.945,0 1.3125,-0.3675 0.3675,-0.3675 0.3675,-1.5575 l 0,-2.3275 q 0,-1.9775 1.47,-2.6425 l 0,-0.035 q -1.47,-0.665 -1.47,-2.6425 l 0,-2.3275 q 0,-1.19 -0.3675,-1.5575 -0.3675,-0.3675 -1.3125,-0.3675 l -1.1725,0 z"
         style="font-size:17.5px"
         id="path4291"
         inkscape:connector-curvature="0" />
      <path
         d="m 182.49358,172.25862 0,13.825 3.4475,0 0,1.05 -4.725,0 0,-15.925 4.725,0 0,1.05 -3.4475,0 z"
         style="font-size:17.5px"
         id="path4293"
         inkscape:connector-curvature="0" />
      <path
         d="m 192.71768,172.25862 -3.4475,0 0,-1.05 4.725,0 0,15.925 -4.725,0 0,-1.05 3.4475,0 0,-13.825 z"
         style="font-size:17.5px"
         id="path4295"
         inkscape:connector-curvature="0" />
      <path
         d="m 209.27679,175.58362 0,8.575 q 0,2.3625 -1.015,3.4475 -1.015,1.1025 -3.185,1.1025 -1.3825,0 -2.555,-0.385 l 0,-1.1725 q 1.225,0.5075 2.555,0.5075 1.5225,0 2.1875,-0.805 0.6825,-0.805 0.6825,-2.6425 l 0,-0.875 -0.035,0 q -1.0675,1.3475 -2.8525,1.3475 -1.5925,0 -2.5725,-1.225 -0.9625,-1.2425 -0.9625,-3.4475 0,-2.3275 0.9625,-3.465 0.98,-1.1375 2.5725,-1.1375 1.7675,0 2.905,1.47 l 0.035,0 0.0175,-1.295 1.26,0 z m -6.405,4.4275 q 0,1.7675 0.665,2.695 0.6825,0.9275 1.8725,0.9275 1.015,0 1.7675,-0.7525 0.77,-0.7525 0.77,-1.8025 l 0,-2.03 q 0,-1.05 -0.77,-1.82 -0.7525,-0.77 -1.7675,-0.77 -2.5375,0 -2.5375,3.5525 z"
         style="font-size:17.5px"
         id="path4297"
         inkscape:connector-curvature="0" />
      <path
         d="m 212.50554,183.21362 q 1.3125,0.4725 2.73,0.4725 1.6975,0 2.695,-1.19 1.015,-1.2075 1.05,-3.57 l -0.035,-0.0175 q -1.05,1.5225 -3.3775,1.5225 -1.9075,0 -3.0275,-1.1725 -1.12,-1.1725 -1.12,-3.2025 0,-1.9775 1.2425,-3.15 1.2425,-1.1725 3.255,-1.1725 4.55,0 4.55,5.6 0,7.525 -5.2325,7.525 -1.3825,0 -2.73,-0.4025 l 0,-1.2425 z m 3.4125,-10.3075 q -1.4175,0 -2.2575,0.84 -0.84,0.8225 -0.84,2.31 0,1.54 0.8225,2.415 0.8225,0.875 2.205,0.875 1.4,0 2.275,-0.875 0.875,-0.8925 0.875,-2.31 0,-0.525 -0.175,-1.05 -0.1575,-0.5425 -0.5075,-1.05 -0.3325,-0.5075 -0.9625,-0.8225 -0.6125,-0.3325 -1.435,-0.3325 z"
         style="font-size:17.5px"
         id="path4299"
         inkscape:connector-curvature="0" />
      <path
         d="m 230.1305,175.58362 0,12.95 -1.33,0 0,-5.04 -0.035,0 q -1.0675,1.365 -2.8875,1.365 -1.6275,0 -2.66,-1.26 -1.015,-1.2775 -1.015,-3.465 0,-2.2575 0.98,-3.4825 0.9975,-1.2425 2.695,-1.2425 1.785,0 2.94,1.4875 l 0.035,0 0.0175,-1.3125 1.26,0 z m -6.58,4.55 q 0,1.8025 0.6825,2.7475 0.7,0.9275 1.9425,0.9275 1.05,0 1.8375,-0.7175 0.7875,-0.7175 0.7875,-1.715 l 0,-2.485 q 0,-0.98 -0.7875,-1.6975 -0.77,-0.735 -1.8375,-0.735 -2.625,0 -2.625,3.675 z"
         style="font-size:17.5px"
         id="path4301"
         inkscape:connector-curvature="0" />
      <path
         d="m 237.81765,183.68612 q 1.4875,0 2.94,-0.5075 l 0,1.2425 q -1.505,0.4375 -3.0625,0.4375 -2.52,0 -4.0425,-1.715 -1.5225,-1.7325 -1.5225,-4.8475 0,-3.0975 1.4525,-4.83 1.47,-1.7325 4.06,-1.7325 1.5925,0 3.0275,0.4375 l 0,1.2425 q -1.4525,-0.5075 -2.905,-0.5075 -1.9775,0 -3.0975,1.4175 -1.12,1.4175 -1.12,3.9725 0,2.5375 1.155,3.9725 1.1725,1.4175 3.115,1.4175 z"
         style="font-size:17.5px"
         id="path4303"
         inkscape:connector-curvature="0" />
      <path
         d="m 247.11917,177.24612 5.495,0 0,6.8425 q -1.8375,0.77 -3.9725,0.77 -2.625,0 -4.2875,-1.7675 -1.6625,-1.785 -1.6625,-4.795 0,-3.045 1.68,-4.795 1.68,-1.7675 4.5675,-1.7675 1.6275,0 3.08,0.4025 l 0,1.225 q -1.5225,-0.49 -2.975,-0.49 -2.3275,0 -3.64,1.435 -1.295,1.4175 -1.295,3.99 0,2.5025 1.2775,3.9725 1.2775,1.4525 3.3775,1.4525 1.295,0 2.5025,-0.4375 l 0,-4.9175 -4.1475,0 0,-1.12 z"
         style="font-size:17.5px"
         id="path4305"
         inkscape:connector-curvature="0" />
      <path
         d="m 260.27042,171.73362 q 2.5725,0 4.0425,1.7325 1.4875,1.715 1.4875,4.83 0,2.17 -0.7875,3.675 -0.77,1.505 -2.205,2.205 l 0,0.035 q 1.33,0.315 2.485,1.155 1.155,0.84 1.855,1.9425 l -1.6625,0 q -0.9275,-1.3825 -2.065,-1.925 -1.1375,-0.525 -3.15,-0.525 -2.59,0 -4.0775,-1.715 -1.47,-1.7325 -1.47,-4.8475 0,-3.115 1.47,-4.83 1.4875,-1.7325 4.0775,-1.7325 z m -3.0625,10.5875 q 1.0675,1.365 3.0625,1.365 1.995,0 3.045,-1.365 1.0675,-1.365 1.0675,-4.025 0,-2.66 -1.0675,-4.025 -1.05,-1.365 -3.045,-1.365 -1.995,0 -3.0625,1.365 -1.0675,1.365 -1.0675,4.025 0,2.66 1.0675,4.025 z"
         style="font-size:17.5px"
         id="path4307"
         inkscape:connector-curvature="0" />
      <path
         d="m 275.71718,178.97862 q -0.6475,0 -1.155,0.315 -0.5075,0.315 -1.015,1.0325 l -0.8225,-0.6475 q 1.155,-1.82 2.9925,-1.82 1.3125,0 2.45,1.1375 0.8925,0.8925 1.8375,0.8925 0.6475,0 1.155,-0.315 0.5075,-0.315 1.015,-1.0325 l 0.8225,0.6475 q -1.155,1.82 -2.9925,1.82 -1.33,0 -2.4675,-1.1375 -0.8925,-0.8925 -1.82,-0.8925 z"
         style="font-size:17.5px"
         id="path4309"
         inkscape:connector-curvature="0" />
      <path
         d="m 285.53522,180.22112 0,-1.1025 5.3725,0 0,1.1025 -5.3725,0 z"
         style="font-size:17.5px"
         id="path4311"
         inkscape:connector-curvature="0" />
      <path
         d="m 299.13327,174.53362 0,4.515 4.4275,0 0,1.12 -4.4275,0 0,4.515 -1.1725,0 0,-4.515 -4.4275,0 0,-1.12 4.4275,0 0,-4.515 1.1725,0 z"
         style="font-size:17.5px"
         id="path4313"
         inkscape:connector-curvature="0" />
      <path
         d="m 306.35475,178.15612 0,-1.12 10.0275,0 0,1.12 -10.0275,0 z m 0,4.025 0,-1.12 10.0275,0 0,1.12 -10.0275,0 z"
         style="font-size:17.5px"
         id="path4315"
         inkscape:connector-curvature="0" />
      <path
         d="m 319.29382,176.05612 0,-1.225 8.8725,4.06 0,1.435 -8.8725,4.06 0,-1.225 7.9975,-3.535 0,-0.035 -7.9975,-3.535 z"
         style="font-size:17.5px"
         id="path4317"
         inkscape:connector-curvature="0" />
    </g>
  </g>
</svg>
