<?xml version="1.0" encoding="UTF-8" standalone="no"?>
<svg
   xmlns:dc="http://purl.org/dc/elements/1.1/"
   xmlns:cc="http://creativecommons.org/ns#"
   xmlns:rdf="http://www.w3.org/1999/02/22-rdf-syntax-ns#"
   xmlns:svg="http://www.w3.org/2000/svg"
   xmlns="http://www.w3.org/2000/svg"
   xmlns:sodipodi="http://sodipodi.sourceforge.net/DTD/sodipodi-0.dtd"
   xmlns:inkscape="http://www.inkscape.org/namespaces/inkscape"
   width="86.051949mm"
   height="30.56007mm"
   viewBox="0 0 304.90828 108.28369"
   id="svg2"
   version="1.1"
   inkscape:version="0.91 r13725"
   sodipodi:docname="Noto Nerd Font.svg">
  <metadata
     id="metadata22">
    <rdf:RDF>
      <cc:Work
         rdf:about="">
        <dc:format>image/svg+xml</dc:format>
        <dc:type
           rdf:resource="http://purl.org/dc/dcmitype/StillImage" />
      </cc:Work>
    </rdf:RDF>
  </metadata>
  <defs
     id="defs20" />
  <sodipodi:namedview
     pagecolor="#ffffff"
     bordercolor="#666666"
     borderopacity="1"
     objecttolerance="10"
     gridtolerance="10"
     guidetolerance="10"
     inkscape:pageopacity="0"
     inkscape:pageshadow="2"
     inkscape:window-width="640"
     inkscape:window-height="480"
     id="namedview18"
     showgrid="false"
     inkscape:zoom="0.22425739"
     inkscape:cx="306.49134"
     inkscape:cy="-337.85694"
     inkscape:window-x="69"
     inkscape:window-y="34"
     inkscape:window-maximized="0"
     inkscape:current-layer="svg2" />
  <g
     font-weight="400"
     font-size="27.5"
     letter-spacing="0"
     word-spacing="0"
     id="g4"
     style="font-weight:400;font-size:27.5px;font-family:'Noto Nerd Font';letter-spacing:0;word-spacing:0;fill:#ffffff"
     transform="translate(-65.5559,-80.040443)">
    <g
       style="line-height:125%;text-decoration: underline;text-decoration-line: underline"
       id="text6">
      <path
         d="m 65.555973,80.886391 3.652344,0 8.88916,16.77124 0,-16.77124 2.631836,0 0,20.047609 -3.652344,0 -8.88916,-16.771242 0,16.771242 -2.631836,0 0,-20.047609 z"
         id="path4151"
         inkscape:connector-curvature="0" />
      <path
         d="m 91.847477,87.627113 q -1.987305,0 -3.14209,1.557618 -1.154785,1.544189 -1.154785,4.243164 0,2.698974 1.141357,4.256591 1.154786,1.54419 3.155518,1.54419 1.973877,0 3.128662,-1.557617 1.154785,-1.557618 1.154785,-4.243164 0,-2.67212 -1.154785,-4.229737 -1.154785,-1.571045 -3.128662,-1.571045 z m 0,-2.094726 q 3.222656,0 5.062256,2.094726 1.839599,2.094727 1.839599,5.800782 0,3.692627 -1.839599,5.800781 -1.8396,2.094724 -5.062256,2.094724 -3.236084,0 -5.075684,-2.094724 -1.826172,-2.108154 -1.826172,-5.800781 0,-3.706055 1.826172,-5.800782 1.8396,-2.094726 5.075684,-2.094726 z"
         id="path4153"
         inkscape:connector-curvature="0" />
      <path
         d="m 105.27521,81.624916 0,4.27002 5.08911,0 0,1.920166 -5.08911,0 0,8.164062 q 0,1.8396 0.49683,2.363281 0.51025,0.523682 2.05444,0.523682 l 2.53784,0 0,2.067873 -2.53784,0 q -2.86011,0 -3.94775,-1.060793 -1.08765,-1.074219 -1.08765,-3.894043 l 0,-8.164062 -1.81274,0 0,-1.920166 1.81274,0 0,-4.27002 2.48413,0 z"
         id="path4155"
         inkscape:connector-curvature="0" />
      <path
         d="m 119.4549,87.627113 q -1.98731,0 -3.14209,1.557618 -1.15479,1.544189 -1.15479,4.243164 0,2.698974 1.14136,4.256591 1.15479,1.54419 3.15552,1.54419 1.97388,0 3.12866,-1.557617 1.15479,-1.557618 1.15479,-4.243164 0,-2.67212 -1.15479,-4.229737 -1.15478,-1.571045 -3.12866,-1.571045 z m 0,-2.094726 q 3.22266,0 5.06225,2.094726 1.8396,2.094727 1.8396,5.800782 0,3.692627 -1.8396,5.800781 -1.83959,2.094724 -5.06225,2.094724 -3.23609,0 -5.07568,-2.094724 -1.82618,-2.108154 -1.82618,-5.800781 0,-3.706055 1.82618,-5.800782 1.83959,-2.094726 5.07568,-2.094726 z"
         id="path4157"
         inkscape:connector-curvature="0" />
      <path
         d="m 139.30109,80.886391 3.65234,0 8.88916,16.77124 0,-16.77124 2.63184,0 0,20.047609 -3.65234,0 -8.88916,-16.771242 0,16.771242 -2.63184,0 0,-20.047609 z"
         id="path4159"
         inkscape:connector-curvature="0" />
      <path
         d="m 172.62873,92.796791 0,1.208496 -11.35987,0 q 0.16114,2.55127 1.53077,3.894043 1.38305,1.329346 3.84033,1.329346 1.42334,0 2.75268,-0.349121 1.34278,-0.349121 2.65869,-1.047364 l 0,2.336429 q -1.32934,0.56396 -2.72583,0.85937 -1.39648,0.29541 -2.83325,0.29541 -3.59863,0 -5.70678,-2.094724 -2.09473,-2.094727 -2.09473,-5.666504 0,-3.692627 1.9873,-5.854492 2.00074,-2.175293 5.38452,-2.175293 3.03467,0 4.79371,1.960449 1.77246,1.947021 1.77246,5.303955 z m -2.47071,-0.725098 q -0.0268,-2.027587 -1.14135,-3.236084 -1.10108,-1.208496 -2.92725,-1.208496 -2.06787,0 -3.31665,1.168213 -1.23535,1.168213 -1.42334,3.289795 l 8.80859,-0.01343 z"
         id="path4161"
         inkscape:connector-curvature="0" />
      <path
         d="m 185.3985,88.204506 q -0.41626,-0.241699 -0.91308,-0.349121 -0.4834,-0.12085 -1.07422,-0.12085 -2.09473,0 -3.22266,1.369629 -1.1145,1.356201 -1.1145,3.907471 l 0,7.922365 -2.48413,0 0,-15.039064 2.48413,0 0,2.336425 q 0.77881,-1.369629 2.02759,-2.027588 1.24878,-0.671386 3.03467,-0.671386 0.25512,0 0.56396,0.04028 0.30884,0.02685 0.68481,0.09399 l 0.0134,2.537842 z"
         id="path4163"
         inkscape:connector-curvature="0" />
      <path
         d="m 197.42975,88.17765 0,-8.137207 2.47071,0 0,20.893557 -2.47071,0 0,-2.255861 q -0.77881,1.342771 -1.97387,2.000731 -1.18165,0.64453 -2.84668,0.64453 -2.72583,0 -4.44458,-2.175291 -1.70533,-2.175293 -1.70533,-5.720214 0,-3.544922 1.70533,-5.720215 1.71875,-2.175293 4.44458,-2.175293 1.66503,0 2.84668,0.657959 1.19506,0.644531 1.97387,1.987304 z m -8.41919,5.250245 q 0,2.72583 1.1145,4.283447 1.12793,1.544189 3.08838,1.544189 1.96045,0 3.08838,-1.544189 1.12793,-1.557617 1.12793,-4.283447 0,-2.72583 -1.12793,-4.27002 -1.12793,-1.557617 -3.08838,-1.557617 -1.96045,0 -3.08838,1.557617 -1.1145,1.54419 -1.1145,4.27002 z"
         id="path4165"
         inkscape:connector-curvature="0" />
      <path
         d="m 213.85187,80.886391 11.521,0 0,2.282715 -8.8086,0 0,5.908203 7.94922,0 0,2.282714 -7.94922,0 0,9.573977 -2.7124,0 0,-20.047609 z"
         id="path4167"
         inkscape:connector-curvature="0" />
      <path
         d="m 234.45002,87.627113 q -1.98731,0 -3.14209,1.557618 -1.15479,1.544189 -1.15479,4.243164 0,2.698974 1.14136,4.256591 1.15478,1.54419 3.15552,1.54419 1.97387,0 3.12866,-1.557617 1.15478,-1.557618 1.15478,-4.243164 0,-2.67212 -1.15478,-4.229737 -1.15479,-1.571045 -3.12866,-1.571045 z m 0,-2.094726 q 3.22265,0 5.06225,2.094726 1.8396,2.094727 1.8396,5.800782 0,3.692627 -1.8396,5.800781 -1.8396,2.094724 -5.06225,2.094724 -3.23609,0 -5.07569,-2.094724 -1.82617,-2.108154 -1.82617,-5.800781 0,-3.706055 1.82617,-5.800782 1.8396,-2.094726 5.07569,-2.094726 z"
         id="path4169"
         inkscape:connector-curvature="0" />
      <path
         d="m 257.93512,91.85685 0,9.07715 -2.4707,0 0,-8.996584 q 0,-2.13501 -0.83252,-3.195801 -0.83252,-1.060791 -2.49756,-1.060791 -2.00073,0 -3.15552,1.275635 -1.15478,1.275635 -1.15478,3.477783 l 0,8.499758 -2.48413,0 0,-15.039064 2.48413,0 0,2.336425 q 0.88623,-1.356201 2.0813,-2.027588 1.20849,-0.671386 2.77954,-0.671386 2.59155,0 3.9209,1.611328 1.32934,1.5979 1.32934,4.713135 z"
         id="path4171"
         inkscape:connector-curvature="0" />
      <path
         d="m 265.33381,81.624916 0,4.27002 5.08911,0 0,1.920166 -5.08911,0 0,8.164062 q 0,1.8396 0.49682,2.363281 0.51026,0.523682 2.05444,0.523682 l 2.53785,0 0,2.067873 -2.53785,0 q -2.8601,0 -3.94775,-1.060793 -1.08765,-1.074219 -1.08765,-3.894043 l 0,-8.164062 -1.81274,0 0,-1.920166 1.81274,0 0,-4.27002 2.48414,0 z"
         id="path4173"
         inkscape:connector-curvature="0" />
    </g>
    <g
       style="line-height:125%"
       id="text10">
      <path
         d="m 71.417534,136.12321 q -1.905518,0 -2.640381,0.4358 -0.734863,0.43579 -0.734863,1.48681 0,0.8374 0.546875,1.33301 0.55542,0.48706 1.503906,0.48706 1.307373,0 2.093506,-0.92285 0.794678,-0.9314 0.794678,-2.46948 l 0,-0.35035 -1.563721,0 z m 3.135986,-0.64941 0,5.46021 -1.572265,0 0,-1.45264 q -0.538331,0.87158 -1.341553,1.29028 -0.803223,0.41016 -1.965332,0.41016 -1.469727,0 -2.341309,-0.82031 -0.863037,-0.82886 -0.863037,-2.21314 0,-1.61499 1.07666,-2.4353 1.085205,-0.82031 3.229981,-0.82031 l 2.20459,0 0,-0.15381 q 0,-1.08521 -0.717774,-1.67481 -0.709228,-0.59814 -1.999512,-0.59814 -0.820312,0 -1.5979,0.19653 -0.777588,0.19653 -1.495361,0.5896 l 0,-1.45264 q 0.863037,-0.33325 1.674804,-0.4956 0.811768,-0.1709 1.580811,-0.1709 2.076416,0 3.101807,1.07666 1.02539,1.07666 1.02539,3.26416 z"
         style="font-size:17.5px"
         id="path4176"
         inkscape:connector-curvature="0" />
      <path
         d="m 84.670708,136.15739 q 0,-1.73461 -0.717774,-2.71728 -0.709228,-0.99121 -1.956787,-0.99121 -1.247558,0 -1.965332,0.99121 -0.709228,0.98267 -0.709228,2.71728 0,1.73462 0.709228,2.72583 0.717774,0.98267 1.965332,0.98267 1.247559,0 1.956787,-0.98267 0.717774,-0.99121 0.717774,-2.72583 z m -5.349121,-3.34106 q 0.495605,-0.85449 1.247558,-1.26465 0.760498,-0.4187 1.811524,-0.4187 1.743164,0 2.828369,1.38428 1.09375,1.38428 1.09375,3.64013 0,2.25586 -1.09375,3.64014 -1.085205,1.38428 -2.828369,1.38428 -1.051026,0 -1.811524,-0.41016 -0.751953,-0.4187 -1.247558,-1.27319 l 0,1.43555 -1.580811,0 0,-13.2959 1.580811,0 0,5.17822 z"
         style="font-size:17.5px"
         id="path4178"
         inkscape:connector-curvature="0" />
      <path
         d="m 95.796196,131.73112 0,1.46973 q -0.666504,-0.36743 -1.341553,-0.54687 -0.666504,-0.18799 -1.350097,-0.18799 -1.529541,0 -2.375489,0.97412 -0.845947,0.96558 -0.845947,2.71728 0,1.75171 0.845947,2.72583 0.845948,0.96558 2.375489,0.96558 0.683593,0 1.350097,-0.17944 0.675049,-0.18799 1.341553,-0.55542 l 0,1.45263 q -0.657959,0.30762 -1.367188,0.46143 -0.700683,0.15381 -1.495361,0.15381 -2.161865,0 -3.435058,-1.35864 -1.273194,-1.35865 -1.273194,-3.66578 0,-2.3413 1.281738,-3.68286 1.290284,-1.34155 3.529053,-1.34155 0.726319,0 1.418457,0.15381 0.692139,0.14526 1.341553,0.44433 z"
         style="font-size:17.5px"
         id="path4180"
         inkscape:connector-curvature="0" />
      <path
         d="m 104.84527,132.81633 0,-5.17822 1.57226,0 0,13.2959 -1.57226,0 0,-1.43555 q -0.49561,0.85449 -1.25611,1.27319 -0.75195,0.41016 -1.81152,0.41016 -1.73462,0 -2.828368,-1.38428 -1.085205,-1.38428 -1.085205,-3.64014 0,-2.25585 1.085205,-3.64013 1.093748,-1.38428 2.828368,-1.38428 1.05957,0 1.81152,0.4187 0.7605,0.41016 1.25611,1.26465 z m -5.357668,3.34106 q 0,1.73462 0.709228,2.72583 0.71777,0.98267 1.96533,0.98267 1.24756,0 1.96533,-0.98267 0.71778,-0.99121 0.71778,-2.72583 0,-1.73461 -0.71778,-2.71728 -0.71777,-0.99121 -1.96533,-0.99121 -1.24756,0 -1.96533,0.99121 -0.709228,0.98267 -0.709228,2.71728 z"
         style="font-size:17.5px"
         id="path4182"
         inkscape:connector-curvature="0" />
      <path
         d="m 117.84209,135.75578 0,0.76905 -7.229,0 q 0.10254,1.62353 0.97412,2.47802 0.88013,0.84595 2.44385,0.84595 0.90576,0 1.75171,-0.22217 0.85449,-0.22217 1.69189,-0.6665 l 0,1.48682 q -0.84594,0.35888 -1.73462,0.54687 -0.88867,0.18799 -1.80297,0.18799 -2.29004,0 -3.6316,-1.33301 -1.333,-1.33301 -1.333,-3.60596 0,-2.34985 1.26464,-3.72558 1.2732,-1.38428 3.42652,-1.38428 1.93115,0 3.05053,1.24756 1.12793,1.23901 1.12793,3.37524 z m -1.57226,-0.46142 q -0.0171,-1.29029 -0.72632,-2.05933 -0.70068,-0.76904 -1.86279,-0.76904 -1.31592,0 -2.1106,0.74341 -0.78613,0.7434 -0.90576,2.0935 l 5.60547,-0.009 z"
         style="font-size:17.5px"
         id="path4184"
         inkscape:connector-curvature="0" />
      <path
         d="m 125.26763,127.63811 0,1.30737 -1.5039,0 q -0.84595,0 -1.1792,0.3418 -0.32471,0.34179 -0.32471,1.23047 l 0,0.84594 2.58911,0 0,1.22193 -2.58911,0 0,8.34839 -1.58081,0 0,-8.34839 -1.50391,0 0,-1.22193 1.50391,0 0,-0.6665 q 0,-1.5979 0.74341,-2.32422 0.7434,-0.73486 2.3584,-0.73486 l 1.48681,0 z"
         style="font-size:17.5px"
         id="path4186"
         inkscape:connector-curvature="0" />
      <path
         d="m 132.87261,136.03777 q 0,-1.70899 -0.70923,-2.64893 -0.70068,-0.93994 -1.97387,-0.93994 -1.26465,0 -1.97388,0.93994 -0.70068,0.93994 -0.70068,2.64893 0,1.70043 0.70068,2.64038 0.70923,0.93994 1.97388,0.93994 1.27319,0 1.97387,-0.93994 0.70923,-0.93995 0.70923,-2.64038 z m 1.57227,3.70849 q 0,2.44385 -1.08521,3.63159 -1.0852,1.19629 -3.32397,1.19629 -0.82886,0 -1.56372,-0.12817 -0.73487,-0.11963 -1.427,-0.37598 l 0,-1.52954 q 0.69213,0.37598 1.36718,0.55542 0.67505,0.17944 1.37574,0.17944 1.54663,0 2.31567,-0.81176 0.76904,-0.80323 0.76904,-2.43531 l 0,-0.77758 q -0.48706,0.84594 -1.24756,1.26464 -0.76049,0.41871 -1.82006,0.41871 -1.76026,0 -2.83692,-1.34156 -1.07666,-1.34155 -1.07666,-3.55468 0,-2.22168 1.07666,-3.56324 1.07666,-1.34155 2.83692,-1.34155 1.05957,0 1.82006,0.4187 0.7605,0.4187 1.24756,1.26465 l 0,-1.45264 1.57227,0 0,8.38257 z"
         style="font-size:17.5px"
         id="path4188"
         inkscape:connector-curvature="0" />
      <path
         d="m 145.63873,135.15764 0,5.77637 -1.57227,0 0,-5.7251 q 0,-1.35864 -0.52979,-2.03369 -0.52978,-0.67505 -1.58935,-0.67505 -1.27319,0 -2.00806,0.81177 -0.73486,0.81176 -0.73486,2.21313 l 0,5.40894 -1.58081,0 0,-13.2959 1.58081,0 0,5.2124 q 0.56396,-0.86304 1.32446,-1.29028 0.76904,-0.42725 1.7688,-0.42725 1.64917,0 2.49512,1.02539 0.84595,1.01685 0.84595,2.99927 z"
         style="font-size:17.5px"
         id="path4190"
         inkscape:connector-curvature="0" />
      <path
         d="m 148.7918,131.36369 1.57227,0 0,9.57032 -1.57227,0 0,-9.57032 z m 0,-3.72558 1.57227,0 0,1.99096 -1.57227,0 0,-1.99096 z"
         style="font-size:17.5px"
         id="path4192"
         inkscape:connector-curvature="0" />
      <path
         d="m 153.64532,131.36369 1.57226,0 0,9.74121 q 0,1.82862 -0.70068,2.64893 -0.69214,0.82031 -2.23877,0.82031 l -0.59814,0 0,-1.33301 0.4187,0 q 0.89721,0 1.22192,-0.4187 0.32471,-0.41015 0.32471,-1.71753 l 0,-9.74121 z m 0,-3.72558 1.57226,0 0,1.99096 -1.57226,0 0,-1.99096 z"
         style="font-size:17.5px"
         id="path4194"
         inkscape:connector-curvature="0" />
      <path
         d="m 158.43902,127.63811 1.58081,0 0,7.85278 4.69116,-4.1272 2.00806,0 -5.07569,4.47754 5.28931,5.09278 -2.05078,0 -4.86206,-4.67408 0,4.67408 -1.58081,0 0,-13.2959 z"
         style="font-size:17.5px"
         id="path4196"
         inkscape:connector-curvature="0" />
      <path
         d="m 168.6502,127.63811 1.57227,0 0,13.2959 -1.57227,0 0,-13.2959 z"
         style="font-size:17.5px"
         id="path4198"
         inkscape:connector-curvature="0" />
      <path
         d="m 180.95489,133.20085 q 0.5896,-1.05957 1.40991,-1.56372 0.82031,-0.50415 1.93115,-0.50415 1.49536,0 2.30713,1.05103 0.81177,1.04248 0.81177,2.97363 l 0,5.77637 -1.58081,0 0,-5.7251 q 0,-1.37573 -0.48706,-2.04224 -0.48706,-0.6665 -1.48682,-0.6665 -1.22192,0 -1.93115,0.81177 -0.70923,0.81176 -0.70923,2.21313 l 0,5.40894 -1.58081,0 0,-5.7251 q 0,-1.38428 -0.48706,-2.04224 -0.48706,-0.6665 -1.50391,-0.6665 -1.20483,0 -1.91406,0.82031 -0.70923,0.81177 -0.70923,2.20459 l 0,5.40894 -1.58081,0 0,-9.57032 1.58081,0 0,1.48682 q 0.53833,-0.88013 1.29028,-1.29883 0.75196,-0.4187 1.78589,-0.4187 1.04248,0 1.7688,0.52979 0.73487,0.52978 1.08521,1.53808 z"
         style="font-size:17.5px"
         id="path4200"
         inkscape:connector-curvature="0" />
      <path
         d="m 198.5147,135.15764 0,5.77637 -1.57226,0 0,-5.7251 q 0,-1.35864 -0.52979,-2.03369 -0.52978,-0.67505 -1.58935,-0.67505 -1.2732,0 -2.00806,0.81177 -0.73486,0.81176 -0.73486,2.21313 l 0,5.40894 -1.58081,0 0,-9.57032 1.58081,0 0,1.48682 q 0.56396,-0.86304 1.32446,-1.29028 0.76904,-0.42725 1.7688,-0.42725 1.64917,0 2.49511,1.02539 0.84595,1.01685 0.84595,2.99927 z"
         style="font-size:17.5px"
         id="path4202"
         inkscape:connector-curvature="0" />
      <path
         d="m 205.37627,132.46599 q -1.26464,0 -1.99951,0.99121 -0.73486,0.98267 -0.73486,2.70019 0,1.71753 0.72632,2.70874 0.73486,0.98267 2.00805,0.98267 1.25611,0 1.99097,-0.99121 0.73486,-0.99121 0.73486,-2.7002 0,-1.70044 -0.73486,-2.69165 -0.73486,-0.99975 -1.99097,-0.99975 z m 0,-1.33301 q 2.05079,0 3.22144,1.33301 1.17065,1.33301 1.17065,3.6914 0,2.34986 -1.17065,3.69141 -1.17065,1.33301 -3.22144,1.33301 -2.05932,0 -3.22998,-1.33301 -1.16211,-1.34155 -1.16211,-3.69141 0,-2.35839 1.16211,-3.6914 1.17066,-1.33301 3.22998,-1.33301 z"
         style="font-size:17.5px"
         id="path4204"
         inkscape:connector-curvature="0" />
      <path
         d="m 213.88702,139.49846 0,5.07568 -1.58081,0 0,-13.21045 1.58081,0 0,1.45264 q 0.4956,-0.85449 1.24755,-1.26465 0.7605,-0.4187 1.81153,-0.4187 1.74316,0 2.82837,1.38428 1.09375,1.38428 1.09375,3.64013 0,2.25586 -1.09375,3.64014 -1.08521,1.38428 -2.82837,1.38428 -1.05103,0 -1.81153,-0.41016 -0.75195,-0.4187 -1.24755,-1.27319 z m 5.34912,-3.34107 q 0,-1.73461 -0.71778,-2.71728 -0.70922,-0.99121 -1.95678,-0.99121 -1.24756,0 -1.96534,0.99121 -0.70922,0.98267 -0.70922,2.71728 0,1.73462 0.70922,2.72583 0.71778,0.98267 1.96534,0.98267 1.24756,0 1.95678,-0.98267 0.71778,-0.99121 0.71778,-2.72583 z"
         style="font-size:17.5px"
         id="path4206"
         inkscape:connector-curvature="0" />
      <path
         d="m 224.41436,136.15739 q 0,1.73462 0.70923,2.72583 0.71777,0.98267 1.96533,0.98267 1.24756,0 1.96533,-0.98267 0.71778,-0.99121 0.71778,-2.72583 0,-1.73461 -0.71778,-2.71728 -0.71777,-0.99121 -1.96533,-0.99121 -1.24756,0 -1.96533,0.99121 -0.70923,0.98267 -0.70923,2.71728 z m 5.35767,3.34107 q -0.49561,0.85449 -1.25611,1.27319 -0.75195,0.41016 -1.81152,0.41016 -1.73462,0 -2.82837,-1.38428 -1.08521,-1.38428 -1.08521,-3.64014 0,-2.25585 1.08521,-3.64013 1.09375,-1.38428 2.82837,-1.38428 1.05957,0 1.81152,0.4187 0.7605,0.41016 1.25611,1.26465 l 0,-1.45264 1.57226,0 0,13.21045 -1.57226,0 0,-5.07568 z"
         style="font-size:17.5px"
         id="path4208"
         inkscape:connector-curvature="0" />
      <path
         d="m 240.12847,132.83342 q -0.26489,-0.15381 -0.58105,-0.22217 -0.30762,-0.0769 -0.6836,-0.0769 -1.333,0 -2.05078,0.87158 -0.70923,0.86304 -0.70923,2.48657 l 0,5.04151 -1.58081,0 0,-9.57032 1.58081,0 0,1.48682 q 0.49561,-0.87158 1.29029,-1.29028 0.79467,-0.42725 1.93115,-0.42725 0.16235,0 0.35889,0.0256 0.19653,0.0171 0.43579,0.0598 l 0.009,1.61499 z"
         style="font-size:17.5px"
         id="path4210"
         inkscape:connector-curvature="0" />
      <path
         d="m 247.89581,131.64568 0,1.48681 q -0.66651,-0.34179 -1.38428,-0.51269 -0.71778,-0.1709 -1.48682,-0.1709 -1.17065,0 -1.76025,0.35889 -0.58106,0.35888 -0.58106,1.07666 0,0.54687 0.4187,0.86303 0.41871,0.30762 1.68335,0.5896 l 0.53833,0.11963 q 1.67481,0.35889 2.37549,1.01685 0.70923,0.64941 0.70923,1.82006 0,1.33301 -1.05957,2.1106 -1.05103,0.77759 -2.89673,0.77759 -0.76904,0 -1.60644,-0.15381 -0.82886,-0.14526 -1.75171,-0.44434 l 0,-1.62353 q 0.87158,0.45288 1.71753,0.68359 0.84594,0.22217 1.6748,0.22217 1.11084,0 1.70899,-0.37598 0.59814,-0.38452 0.59814,-1.07666 0,-0.64087 -0.43579,-0.98266 -0.42725,-0.3418 -1.88843,-0.65796 l -0.54687,-0.12818 q -1.46118,-0.30761 -2.1106,-0.93994 -0.64941,-0.64087 -0.64941,-1.75171 0,-1.35009 0.95703,-2.08496 0.95703,-0.73486 2.71728,-0.73486 0.87159,0 1.64063,0.12817 0.76904,0.12818 1.41846,0.38453 z"
         style="font-size:17.5px"
         id="path4212"
         inkscape:connector-curvature="0" />
      <path
         d="m 252.47588,128.64641 0,2.71728 3.23853,0 0,1.22193 -3.23853,0 0,5.19531 q 0,1.17065 0.31617,1.50391 0.3247,0.33325 1.30737,0.33325 l 1.61499,0 0,1.31592 -1.61499,0 q -1.82007,0 -2.51221,-0.67505 -0.69214,-0.6836 -0.69214,-2.47803 l 0,-5.19531 -1.15356,0 0,-1.22193 1.15356,0 0,-2.71728 1.58081,0 z"
         style="font-size:17.5px"
         id="path4214"
         inkscape:connector-curvature="0" />
      <path
         d="m 257.62847,137.15715 0,-5.79346 1.57227,0 0,5.73365 q 0,1.35864 0.52978,2.04223 0.52979,0.67505 1.58936,0.67505 1.27319,0 2.00805,-0.81177 0.74341,-0.81176 0.74341,-2.21313 l 0,-5.42603 1.57227,0 0,9.57032 -1.57227,0 0,-1.46973 q -0.57251,0.87158 -1.33301,1.29883 -0.75195,0.4187 -1.7517,0.4187 -1.64917,0 -2.50367,-1.02539 -0.85449,-1.02539 -0.85449,-2.99927 z m 3.9563,-6.02417 0,0 z"
         style="font-size:17.5px"
         id="path4216"
         inkscape:connector-curvature="0" />
      <path
         d="m 267.77129,131.36369 1.66626,0 2.99073,8.03223 2.99072,-8.03223 1.66626,0 -3.58887,9.57032 -2.13623,0 -3.58887,-9.57032 z"
         style="font-size:17.5px"
         id="path4218"
         inkscape:connector-curvature="0" />
      <path
         d="m 278.34136,131.36369 1.57227,0 1.96533,7.46826 1.95679,-7.46826 1.85424,0 1.96534,7.46826 1.95678,-7.46826 1.57227,0 -2.50366,9.57032 -1.85425,0 -2.05933,-7.84424 -2.06787,7.84424 -1.85425,0 -2.50366,-9.57032 z"
         style="font-size:17.5px"
         id="path4220"
         inkscape:connector-curvature="0" />
      <path
         d="m 301.53228,131.36369 -3.46069,4.65699 3.64013,4.91333 -1.85424,0 -2.78565,-3.75977 -2.78564,3.75977 -1.85425,0 3.71704,-5.00733 -3.40088,-4.56299 1.85425,0 2.53784,3.40943 2.53784,-3.40943 1.85425,0 z"
         style="font-size:17.5px"
         id="path4222"
         inkscape:connector-curvature="0" />
      <path
         d="m 307.91534,141.82268 q -0.66651,1.70898 -1.29883,2.23022 -0.63233,0.52124 -1.6919,0.52124 l -1.2561,0 0,-1.31592 0.92285,0 q 0.64942,0 1.0083,-0.30761 0.35889,-0.30762 0.79468,-1.45264 l 0.28198,-0.71777 -3.87085,-9.41651 1.66626,0 2.99073,7.48535 2.99072,-7.48535 1.66626,0 -4.2041,10.45899 z"
         style="font-size:17.5px"
         id="path4224"
         inkscape:connector-curvature="0" />
      <path
         d="m 313.60625,131.36369 7.46827,0 0,1.43555 -5.91309,6.87866 5.91309,0 0,1.25611 -7.68189,0 0,-1.43555 5.91309,-6.87866 -5.69947,0 0,-1.25611 z"
         style="font-size:17.5px"
         id="path4226"
         inkscape:connector-curvature="0" />
      <path
         d="m 71.400444,151.75188 -2.341309,6.34887 4.691163,0 -2.349854,-6.34887 z m -0.974121,-1.70044 1.956787,0 4.862061,12.75757 -1.794434,0 -1.162109,-3.27271 -5.750733,0 -1.162109,3.27271 -1.820069,0 4.870606,-12.75757 z"
         style="font-size:17.5px"
         id="path4228"
         inkscape:connector-curvature="0" />
      <path
         d="m 80.825493,156.71648 0,4.67407 2.768555,0 q 1.392822,0 2.059326,-0.57251 0.675049,-0.58106 0.675049,-1.7688 0,-1.19629 -0.675049,-1.76025 -0.666504,-0.57251 -2.059326,-0.57251 l -2.768555,0 z m 0,-5.24659 0,3.84522 2.554931,0 q 1.264649,0 1.879883,-0.46997 0.62378,-0.47852 0.62378,-1.45264 0,-0.96557 -0.62378,-1.44409 -0.615234,-0.47852 -1.879883,-0.47852 l -2.554931,0 z m -1.726074,-1.41845 4.409179,0 q 1.973877,0 3.041993,0.82031 1.068115,0.82031 1.068115,2.33276 0,1.17066 -0.546875,1.8628 -0.546875,0.69214 -1.606446,0.86303 1.273194,0.27344 1.973877,1.14502 0.709229,0.86304 0.709229,2.16187 0,1.70898 -1.162109,2.64038 -1.16211,0.9314 -3.306885,0.9314 l -4.580078,0 0,-12.75757 z"
         style="font-size:17.5px"
         id="path4230"
         inkscape:connector-curvature="0" />
      <path
         d="m 100.34209,151.0341 0,1.82007 q -0.871578,-0.81177 -1.862789,-1.21338 -0.982666,-0.40161 -2.093505,-0.40161 -2.1875,0 -3.34961,1.34155 -1.162109,1.33301 -1.162109,3.86231 0,2.52075 1.162109,3.8623 1.16211,1.33301 3.34961,1.33301 1.110839,0 2.093505,-0.40161 0.991211,-0.40161 1.862789,-1.21338 l 0,1.80298 q -0.905757,0.61523 -1.922603,0.92285 -1.008301,0.30762 -2.13623,0.30762 -2.896729,0 -4.562989,-1.7688 -1.66626,-1.77734 -1.66626,-4.84497 0,-3.07617 1.66626,-4.84497 1.66626,-1.77735 4.562989,-1.77735 1.145019,0 2.15332,0.30762 1.016846,0.29907 1.905513,0.90576 z"
         style="font-size:17.5px"
         id="path4232"
         inkscape:connector-curvature="0" />
      <path
         d="m 104.75127,151.46989 0,9.92066 2.08497,0 q 2.64038,0 3.8623,-1.19629 1.23047,-1.19629 1.23047,-3.77686 0,-2.56347 -1.23047,-3.75122 -1.22192,-1.19629 -3.8623,-1.19629 l -2.08497,0 z m -1.72607,-1.41845 3.54614,0 q 3.7085,0 5.44312,1.54663 1.73462,1.53808 1.73462,4.81933 0,3.29834 -1.74317,4.84497 -1.74316,1.54664 -5.43457,1.54664 l -3.54614,0 0,-12.75757 z"
         style="font-size:17.5px"
         id="path4234"
         inkscape:connector-curvature="0" />
      <path
         d="m 116.492,150.05144 8.0664,0 0,1.45263 -6.34033,0 0,3.77686 6.07544,0 0,1.45264 -6.07544,0 0,4.6228 6.49414,0 0,1.45264 -8.22021,0 0,-12.75757 z"
         style="font-size:17.5px"
         id="path4236"
         inkscape:connector-curvature="0" />
      <path
         d="m 127.56622,150.05144 7.33154,0 0,1.45263 -5.60547,0 0,3.75977 5.05859,0 0,1.45264 -5.05859,0 0,6.09253 -1.72607,0 0,-12.75757 z"
         style="font-size:17.5px"
         id="path4238"
         inkscape:connector-curvature="0" />
      <path
         d="m 146.34795,160.98894 0,-3.42652 -2.81982,0 0,-1.41845 4.52881,0 0,5.47729 q -0.99976,0.70923 -2.20459,1.07666 -1.20484,0.35889 -2.57202,0.35889 -2.99073,0 -4.68262,-1.74317 -1.68335,-1.7517 -1.68335,-4.8706 0,-3.12744 1.68335,-4.87061 1.69189,-1.75171 4.68262,-1.75171 1.24756,0 2.36694,0.30762 1.12793,0.30762 2.07642,0.90576 l 0,1.83716 q -0.95704,-0.81177 -2.0337,-1.22192 -1.07666,-0.41016 -2.2644,-0.41016 -2.34131,0 -3.52051,1.30737 -1.17065,1.30738 -1.17065,3.89649 0,2.58057 1.17065,3.88794 1.1792,1.30737 3.52051,1.30737 0.91431,0 1.63208,-0.15381 0.71777,-0.16235 1.29028,-0.4956 z"
         style="font-size:17.5px"
         id="path4240"
         inkscape:connector-curvature="0" />
      <path
         d="m 151.21856,150.05144 1.72607,0 0,5.22949 6.27198,0 0,-5.22949 1.72607,0 0,12.75757 -1.72607,0 0,-6.07544 -6.27198,0 0,6.07544 -1.72607,0 0,-12.75757 z"
         style="font-size:17.5px"
         id="path4242"
         inkscape:connector-curvature="0" />
      <path
         d="m 164.37774,150.05144 1.72607,0 0,12.75757 -1.72607,0 0,-12.75757 z"
         style="font-size:17.5px"
         id="path4244"
         inkscape:connector-curvature="0" />
      <path
         d="m 169.53887,150.05144 1.72608,0 0,11.86889 q 0,2.30713 -0.88013,3.34961 -0.87158,1.04248 -2.81128,1.04248 l -0.65796,0 0,-1.45263 0.53833,0 q 1.14502,0 1.61499,-0.64087 0.46997,-0.64087 0.46997,-2.29859 l 0,-11.86889 z"
         style="font-size:17.5px"
         id="path4246"
         inkscape:connector-curvature="0" />
      <path
         d="m 174.7,150.05144 1.72608,0 0,5.39184 5.7251,-5.39184 2.22168,0 -6.33179,5.94726 6.78467,6.81031 -2.27295,0 -6.12671,-6.1438 0,6.1438 -1.72608,0 0,-12.75757 z"
         style="font-size:17.5px"
         id="path4248"
         inkscape:connector-curvature="0" />
      <path
         d="m 186.18438,150.05144 1.72607,0 0,11.30493 6.21216,0 0,1.45264 -7.93823,0 0,-12.75757 z"
         style="font-size:17.5px"
         id="path4250"
         inkscape:connector-curvature="0" />
      <path
         d="m 195.92559,150.05144 2.57202,0 3.25562,8.68164 3.2727,-8.68164 2.57202,0 0,12.75757 -1.68335,0 0,-11.2024 -3.28979,8.75 -1.73462,0 -3.28979,-8.75 0,11.2024 -1.67481,0 0,-12.75757 z"
         style="font-size:17.5px"
         id="path4252"
         inkscape:connector-curvature="0" />
      <path
         d="m 211.03301,150.05144 2.32422,0 5.65674,10.6726 0,-10.6726 1.6748,0 0,12.75757 -2.32421,0 -5.65674,-10.67261 0,10.67261 -1.67481,0 0,-12.75757 z"
         style="font-size:17.5px"
         id="path4254"
         inkscape:connector-curvature="0" />
      <path
         d="m 229.30206,151.22209 q -1.87989,0 -2.99073,1.40137 -1.10229,1.40137 -1.10229,3.81958 0,2.40967 1.10229,3.81103 1.11084,1.40137 2.99073,1.40137 1.87988,0 2.97363,-1.40137 1.10229,-1.40136 1.10229,-3.81103 0,-2.41821 -1.10229,-3.81958 -1.09375,-1.40137 -2.97363,-1.40137 z m 0,-1.40137 q 2.6831,0 4.28955,1.80298 1.60644,1.79444 1.60644,4.81934 0,3.01636 -1.60644,4.81933 -1.60645,1.79444 -4.28955,1.79444 -2.69166,0 -4.30665,-1.79444 -1.60644,-1.79443 -1.60644,-4.81933 0,-3.0249 1.60644,-4.81934 1.61499,-1.80298 4.30665,-1.80298 z"
         style="font-size:17.5px"
         id="path4256"
         inkscape:connector-curvature="0" />
      <path
         d="m 239.62432,151.46989 0,4.79371 2.17041,0 q 1.20484,0 1.86279,-0.62378 0.65796,-0.62378 0.65796,-1.77735 0,-1.14502 -0.65796,-1.7688 -0.65795,-0.62378 -1.86279,-0.62378 l -2.17041,0 z m -1.72607,-1.41845 3.89648,0 q 2.14478,0 3.23853,0.97412 1.10229,0.96557 1.10229,2.83691 0,1.88843 -1.10229,2.85401 -1.09375,0.96557 -3.23853,0.96557 l -2.17041,0 0,5.12696 -1.72607,0 0,-12.75757 z"
         style="font-size:17.5px"
         id="path4258"
         inkscape:connector-curvature="0" />
      <path
         d="m 253.63799,151.22209 q -1.87988,0 -2.99072,1.40137 -1.10229,1.40137 -1.10229,3.81958 0,2.40967 1.10229,3.81103 1.11084,1.40137 2.99072,1.40137 1.87989,0 2.97364,-1.40137 1.10229,-1.40136 1.10229,-3.81103 0,-2.41821 -1.10229,-3.81958 -1.09375,-1.40137 -2.97364,-1.40137 z m 2.41822,11.3562 2.27294,2.48658 -2.08496,0 -1.88842,-2.04224 q -0.28199,0.0171 -0.43579,0.0256 -0.14527,0.009 -0.28199,0.009 -2.69165,0 -4.30664,-1.79444 -1.60644,-1.80297 -1.60644,-4.81933 0,-3.0249 1.60644,-4.81934 1.61499,-1.80298 4.30664,-1.80298 2.68311,0 4.28955,1.80298 1.60645,1.79444 1.60645,4.81934 0,2.22168 -0.89722,3.80249 -0.88867,1.58081 -2.58056,2.33276 z"
         style="font-size:17.5px"
         id="path4260"
         inkscape:connector-curvature="0" />
      <path
         d="m 268.28399,156.82756 q 0.55542,0.18799 1.07666,0.80322 0.52978,0.61524 1.05957,1.6919 l 1.75171,3.48633 -1.85425,0 -1.63208,-3.27271 q -0.63232,-1.28174 -1.23047,-1.70044 -0.5896,-0.4187 -1.61499,-0.4187 l -1.87988,0 0,5.39185 -1.72608,0 0,-12.75757 3.89649,0 q 2.1875,0 3.26416,0.9143 1.07666,0.91431 1.07666,2.76001 0,1.20484 -0.56397,1.99952 -0.55542,0.79467 -1.62353,1.10229 z m -4.32373,-5.35767 0,4.52881 2.17041,0 q 1.24756,0 1.87988,-0.57251 0.64087,-0.58105 0.64087,-1.70044 0,-1.11938 -0.64087,-1.68335 -0.63232,-0.57251 -1.87988,-0.57251 l -2.17041,0 z"
         style="font-size:17.5px"
         id="path4262"
         inkscape:connector-curvature="0" />
      <path
         d="m 282.04986,150.47014 0,1.68335 q -0.98267,-0.46997 -1.85425,-0.70069 -0.87158,-0.23071 -1.68335,-0.23071 -1.40991,0 -2.17895,0.54688 -0.7605,0.54687 -0.7605,1.55517 0,0.84595 0.50415,1.28174 0.51269,0.42725 1.93115,0.69214 l 1.04248,0.21362 q 1.93115,0.36743 2.84546,1.29883 0.92285,0.92285 0.92285,2.47803 0,1.85425 -1.24756,2.81128 -1.23901,0.95703 -3.64013,0.95703 -0.90577,0 -1.93116,-0.20508 -1.01684,-0.20508 -2.11059,-0.60669 l 0,-1.77734 q 1.05102,0.5896 2.05932,0.88867 1.0083,0.29907 1.98243,0.29907 1.47827,0 2.28149,-0.58105 0.80322,-0.58106 0.80322,-1.65772 0,-0.93994 -0.58105,-1.46972 -0.57251,-0.52979 -1.88843,-0.79468 l -1.05103,-0.20508 q -1.93115,-0.38452 -2.79418,-1.20483 -0.86304,-0.82032 -0.86304,-2.2815 0,-1.69189 1.18774,-2.66601 1.19629,-0.97413 3.2898,-0.97413 0.89721,0 1.82861,0.16236 0.9314,0.16235 1.90552,0.48706 z"
         style="font-size:17.5px"
         id="path4264"
         inkscape:connector-curvature="0" />
      <path
         d="m 283.74175,150.05144 10.79224,0 0,1.45263 -4.52881,0 0,11.30494 -1.73462,0 0,-11.30494 -4.52881,0 0,-1.45263 z"
         style="font-size:17.5px"
         id="path4266"
         inkscape:connector-curvature="0" />
      <path
         d="m 296.01226,150.05144 1.73462,0 0,7.75024 q 0,2.05078 0.74341,2.95654 0.74341,0.89722 2.40967,0.89722 1.65771,0 2.40112,-0.89722 0.74341,-0.90576 0.74341,-2.95654 l 0,-7.75024 1.73462,0 0,7.96386 q 0,2.49512 -1.23902,3.76832 -1.23047,1.27319 -3.64013,1.27319 -2.41822,0 -3.65723,-1.27319 -1.23047,-1.2732 -1.23047,-3.76832 l 0,-7.96386 z"
         style="font-size:17.5px"
         id="path4268"
         inkscape:connector-curvature="0" />
      <path
         d="m 312.31597,162.80901 -4.8706,-12.75757 1.80297,0 4.04175,10.74096 4.0503,-10.74096 1.79443,0 -4.86206,12.75757 -1.95679,0 z"
         style="font-size:17.5px"
         id="path4270"
         inkscape:connector-curvature="0" />
      <path
         d="m 319.85259,150.05144 1.74317,0 2.6831,10.78369 2.67456,-10.78369 1.9397,0 2.68311,10.78369 2.67456,-10.78369 1.7517,0 -3.20434,12.75757 -2.17041,0 -2.69165,-11.07422 -2.71729,11.07422 -2.17041,0 -3.1958,-12.75757 z"
         style="font-size:17.5px"
         id="path4272"
         inkscape:connector-curvature="0" />
      <path
         d="m 337.66875,150.05144 1.85425,0 3.17017,4.74243 3.18725,-4.74243 1.85425,0 -4.10156,6.12671 4.375,6.63086 -1.85425,0 -3.58887,-5.42603 -3.6145,5.42603 -1.86279,0 4.55444,-6.81031 -3.97339,-5.94726 z"
         style="font-size:17.5px"
         id="path4274"
         inkscape:connector-curvature="0" />
      <path
         d="m 348.52935,150.05144 1.85425,0 3.5376,5.24658 3.51196,-5.24658 1.85425,0 -4.51172,6.68213 0,6.07544 -1.73462,0 0,-6.07544 -4.51172,-6.68213 z"
         style="font-size:17.5px"
         id="path4276"
         inkscape:connector-curvature="0" />
      <path
         d="m 360.24444,150.05144 10.02319,0 0,1.31592 -8.0664,9.98901 8.26293,0 0,1.45264 -10.41626,0 0,-1.31592 8.06641,-9.98902 -7.86987,0 0,-1.45263 z"
         style="font-size:17.5px"
         id="path4278"
         inkscape:connector-curvature="0" />
      <path
         d="m 70.776665,176.21599 q -1.264649,0 -1.999512,0.99121 -0.734863,0.98267 -0.734863,2.70019 0,1.71753 0.726318,2.70874 0.734863,0.98267 2.008057,0.98267 1.256103,0 1.990967,-0.99121 0.734863,-0.99121 0.734863,-2.7002 0,-1.70044 -0.734863,-2.69165 -0.734864,-0.99975 -1.990967,-0.99975 z m 0,-1.33301 q 2.050781,0 3.221435,1.33301 1.170655,1.33301 1.170655,3.6914 0,2.34986 -1.170655,3.69141 -1.170654,1.33301 -3.221435,1.33301 -2.059326,0 -3.229981,-1.33301 -1.162109,-1.34155 -1.162109,-3.69141 0,-2.35839 1.162109,-3.6914 1.170655,-1.33301 3.229981,-1.33301 z"
         style="font-size:17.5px"
         id="path4280"
         inkscape:connector-curvature="0" />
      <path
         d="m 83.012993,173.09709 q -1.879883,0 -2.990723,1.40137 -1.102295,1.40137 -1.102295,3.81958 0,2.40967 1.102295,3.81103 1.11084,1.40137 2.990723,1.40137 1.879883,0 2.973633,-1.40137 1.102295,-1.40136 1.102295,-3.81103 0,-2.41821 -1.102295,-3.81958 -1.09375,-1.40137 -2.973633,-1.40137 z m 0,-1.40137 q 2.683105,0 4.289551,1.80298 1.606445,1.79444 1.606445,4.81934 0,3.01636 -1.606445,4.81933 -1.606446,1.79444 -4.289551,1.79444 -2.691651,0 -4.306641,-1.79444 -1.606445,-1.79443 -1.606445,-4.81933 0,-3.0249 1.606445,-4.81934 1.61499,-1.80298 4.306641,-1.80298 z"
         style="font-size:17.5px"
         id="path4282"
         inkscape:connector-curvature="0" />
      <path
         d="m 95.454399,173.06291 q -1.333008,0 -2.008057,1.31592 -0.666503,1.30737 -0.666503,3.93921 0,2.62329 0.666503,3.93921 0.675049,1.30737 2.008057,1.30737 1.341553,0 2.008057,-1.30737 0.675049,-1.31592 0.675049,-3.93921 0,-2.63184 -0.675049,-3.93921 -0.666504,-1.31592 -2.008057,-1.31592 z m 0,-1.36719 q 2.144775,0 3.272705,1.70044 1.136475,1.6919 1.136475,4.92188 0,3.22143 -1.136475,4.92187 -1.12793,1.6919 -3.272705,1.6919 -2.144775,0 -3.28125,-1.6919 -1.12793,-1.70044 -1.12793,-4.92187 0,-3.22998 1.12793,-4.92188 1.136475,-1.70044 3.28125,-1.70044 z"
         style="font-size:17.5px"
         id="path4284"
         inkscape:connector-curvature="0" />
      <path
         d="m 106.59698,178.62566 q -1.23047,0 -1.9397,0.65796 -0.70068,0.65795 -0.70068,1.81152 0,1.15356 0.70068,1.81152 0.70923,0.65796 1.9397,0.65796 1.23047,0 1.93969,-0.65796 0.70923,-0.6665 0.70923,-1.81152 0,-1.15357 -0.70923,-1.81152 -0.70068,-0.65796 -1.93969,-0.65796 z m -1.72608,-0.73487 q -1.11084,-0.27343 -1.73462,-1.03393 -0.61523,-0.7605 -0.61523,-1.85425 0,-1.52954 1.0852,-2.41821 1.09375,-0.88868 2.99073,-0.88868 1.90551,0 2.99072,0.88868 1.0852,0.88867 1.0852,2.41821 0,1.09375 -0.62377,1.85425 -0.61524,0.7605 -1.71753,1.03393 1.24755,0.29053 1.93969,1.13648 0.70069,0.84594 0.70069,2.06787 0,1.85425 -1.13648,2.84546 -1.12793,0.99121 -3.23852,0.99121 -2.1106,0 -3.24707,-0.99121 -1.12793,-0.99121 -1.12793,-2.84546 0,-1.22193 0.70068,-2.06787 0.70068,-0.84595 1.94824,-1.13648 z m -0.63232,-2.72583 q 0,0.99121 0.61523,1.54663 0.62378,0.55542 1.74317,0.55542 1.11084,0 1.73462,-0.55542 0.63232,-0.55542 0.63232,-1.54663 0,-0.99121 -0.63232,-1.54663 -0.62378,-0.55542 -1.73462,-0.55542 -1.11939,0 -1.74317,0.55542 -0.61523,0.55542 -0.61523,1.54663 z"
         style="font-size:17.5px"
         id="path4286"
         inkscape:connector-curvature="0" />
      <path
         d="m 119.39727,175.11369 1.57227,0 0,9.57032 -1.57227,0 0,-9.57032 z m 0,-3.72558 1.57227,0 0,1.99096 -1.57227,0 0,-1.99096 z"
         style="font-size:17.5px"
         id="path4288"
         inkscape:connector-curvature="0" />
      <path
         d="m 124.31915,171.92644 1.72607,0 0,12.75757 -1.72607,0 0,-12.75757 z"
         style="font-size:17.5px"
         id="path4290"
         inkscape:connector-curvature="0" />
      <path
         d="m 129.41192,171.38811 1.57226,0 0,13.2959 -1.57226,0 0,-13.2959 z"
         style="font-size:17.5px"
         id="path4292"
         inkscape:connector-curvature="0" />
      <path
         d="m 134.33379,171.92644 1.72608,0 0,11.30493 6.21216,0 0,1.45264 -7.93824,0 0,-12.75757 z"
         style="font-size:17.5px"
         id="path4294"
         inkscape:connector-curvature="0" />
      <path
         d="m 144.52789,183.23137 2.81982,0 0,-9.73267 -3.06763,0.61524 0,-1.57227 3.05054,-0.61523 1.72607,0 0,11.30493 2.81983,0 0,1.45264 -7.34863,0 0,-1.45264 z"
         style="font-size:17.5px"
         id="path4296"
         inkscape:connector-curvature="0" />
      <path
         d="m 168.01788,186.30754 0,1.23047 -0.52979,0 q -2.12769,0 -2.854,-0.63232 -0.71778,-0.63233 -0.71778,-2.52076 l 0,-2.04223 q 0,-1.29029 -0.46142,-1.78589 -0.46143,-0.49561 -1.67481,-0.49561 l -0.52124,0 0,-1.22192 0.52124,0 q 1.22193,0 1.67481,-0.48706 0.46142,-0.49561 0.46142,-1.7688 l 0,-2.05078 q 0,-1.88843 0.71778,-2.51221 0.72631,-0.63232 2.854,-0.63232 l 0.52979,0 0,1.22192 -0.58106,0 q -1.20483,0 -1.57226,0.37598 -0.36744,0.37597 -0.36744,1.58081 l 0,2.11914 q 0,1.34155 -0.39306,1.94824 -0.38452,0.60669 -1.32447,0.82031 0.94849,0.23072 1.33301,0.83741 0.38452,0.60669 0.38452,1.93969 l 0,2.11914 q 0,1.20484 0.36744,1.58081 0.36743,0.37598 1.57226,0.37598 l 0.58106,0 z"
         style="font-size:17.5px"
         id="path4298"
         inkscape:connector-curvature="0" />
      <path
         d="m 172.40142,186.30754 0.59815,0 q 1.19628,0 1.55517,-0.36743 0.36743,-0.36743 0.36743,-1.58936 l 0,-2.11914 q 0,-1.333 0.38452,-1.93969 0.38453,-0.60669 1.33301,-0.83741 -0.94848,-0.21362 -1.33301,-0.82031 -0.38452,-0.60669 -0.38452,-1.94824 l 0,-2.11914 q 0,-1.21338 -0.36743,-1.58081 -0.35889,-0.37598 -1.55517,-0.37598 l -0.59815,0 0,-1.22192 0.53833,0 q 2.12769,0 2.83691,0.63232 0.71778,0.62378 0.71778,2.51221 l 0,2.05078 q 0,1.27319 0.46142,1.7688 0.46143,0.48706 1.67481,0.48706 l 0.52978,0 0,1.22192 -0.52978,0 q -1.21338,0 -1.67481,0.49561 -0.46142,0.4956 -0.46142,1.78589 l 0,2.04223 q 0,1.88843 -0.71778,2.52076 -0.70922,0.63232 -2.83691,0.63232 l -0.53833,0 0,-1.23047 z"
         style="font-size:17.5px"
         id="path4300"
         inkscape:connector-curvature="0" />
      <path
         d="m 188.43169,171.38811 3.62305,0 0,1.22192 -2.05078,0 0,13.15918 2.05078,0 0,1.22192 -3.62305,0 0,-15.60302 z"
         style="font-size:17.5px"
         id="path4302"
         inkscape:connector-curvature="0" />
      <path
         d="m 199.08721,171.38811 0,15.60302 -3.62305,0 0,-1.22192 2.04224,0 0,-13.15918 -2.04224,0 0,-1.22192 3.62305,0 z"
         style="font-size:17.5px"
         id="path4304"
         inkscape:connector-curvature="0" />
      <path
         d="m 214.11773,179.78777 q 0,-1.70899 -0.70923,-2.64893 -0.70068,-0.93994 -1.97388,-0.93994 -1.26464,0 -1.97387,0.93994 -0.70069,0.93994 -0.70069,2.64893 0,1.70043 0.70069,2.64038 0.70923,0.93994 1.97387,0.93994 1.2732,0 1.97388,-0.93994 0.70923,-0.93995 0.70923,-2.64038 z m 1.57226,3.70849 q 0,2.44385 -1.0852,3.63159 -1.08521,1.19629 -3.32397,1.19629 -0.82886,0 -1.56373,-0.12817 -0.73486,-0.11963 -1.427,-0.37598 l 0,-1.52954 q 0.69214,0.37598 1.36719,0.55542 0.67505,0.17944 1.37573,0.17944 1.54663,0 2.31568,-0.81176 0.76904,-0.80323 0.76904,-2.43531 l 0,-0.77758 q -0.48706,0.84594 -1.24756,1.26464 -0.7605,0.41871 -1.82007,0.41871 -1.76025,0 -2.83691,-1.34156 -1.07666,-1.34155 -1.07666,-3.55468 0,-2.22168 1.07666,-3.56324 1.07666,-1.34155 2.83691,-1.34155 1.05957,0 1.82007,0.4187 0.7605,0.4187 1.24756,1.26465 l 0,-1.45264 1.57226,0 0,8.38257 z"
         style="font-size:17.5px"
         id="path4306"
         inkscape:connector-curvature="0" />
      <path
         d="m 219.20196,184.41911 0,-1.57226 q 0.64941,0.30761 1.31592,0.46997 0.6665,0.16235 1.30737,0.16235 1.70898,0 2.6062,-1.14502 0.90576,-1.15356 1.03394,-3.49487 -0.49561,0.73486 -1.25611,1.12793 -0.7605,0.39307 -1.68335,0.39307 -1.91406,0 -3.03344,-1.15357 -1.11084,-1.16211 -1.11084,-3.17017 0,-1.96533 1.1621,-3.15307 1.16211,-1.18775 3.09327,-1.18775 2.21313,0 3.37524,1.70044 1.17065,1.6919 1.17065,4.92188 0,3.01636 -1.43554,4.81933 -1.427,1.79444 -3.84522,1.79444 -0.64941,0 -1.31591,-0.12818 -0.66651,-0.12817 -1.38428,-0.38452 z m 3.43506,-5.40893 q 1.16211,0 1.83715,-0.79468 0.6836,-0.79468 0.6836,-2.17896 0,-1.37573 -0.6836,-2.17041 -0.67504,-0.80322 -1.83715,-0.80322 -1.16211,0 -1.84571,0.80322 -0.67505,0.79468 -0.67505,2.17041 0,1.38428 0.67505,2.17896 0.6836,0.79468 1.84571,0.79468 z"
         style="font-size:17.5px"
         id="path4308"
         inkscape:connector-curvature="0" />
      <path
         d="m 231.01104,179.90739 q 0,1.73462 0.70923,2.72583 0.71777,0.98267 1.96533,0.98267 1.24756,0 1.96533,-0.98267 0.71778,-0.99121 0.71778,-2.72583 0,-1.73461 -0.71778,-2.71728 -0.71777,-0.99121 -1.96533,-0.99121 -1.24756,0 -1.96533,0.99121 -0.70923,0.98267 -0.70923,2.71728 z m 5.35767,3.34107 q -0.49561,0.85449 -1.25611,1.27319 -0.75195,0.41016 -1.81152,0.41016 -1.73462,0 -2.82837,-1.38428 -1.08521,-1.38428 -1.08521,-3.64014 0,-2.25585 1.08521,-3.64013 1.09375,-1.38428 2.82837,-1.38428 1.05957,0 1.81152,0.4187 0.7605,0.41016 1.25611,1.26465 l 0,-1.45264 1.57226,0 0,13.21045 -1.57226,0 0,-5.07568 z"
         style="font-size:17.5px"
         id="path4310"
         inkscape:connector-curvature="0" />
      <path
         d="m 250.80108,172.9091 0,1.82007 q -0.87158,-0.81177 -1.86279,-1.21338 -0.98267,-0.40161 -2.09351,-0.40161 -2.1875,0 -3.34961,1.34155 -1.16211,1.33301 -1.16211,3.86231 0,2.52075 1.16211,3.8623 1.16211,1.33301 3.34961,1.33301 1.11084,0 2.09351,-0.40161 0.99121,-0.40161 1.86279,-1.21338 l 0,1.80298 q -0.90576,0.61523 -1.92261,0.92285 -1.0083,0.30762 -2.13623,0.30762 -2.89673,0 -4.56299,-1.7688 -1.66626,-1.77734 -1.66626,-4.84497 0,-3.07617 1.66626,-4.84497 1.66626,-1.77735 4.56299,-1.77735 1.14502,0 2.15332,0.30762 1.01685,0.29907 1.90552,0.90576 z"
         style="font-size:17.5px"
         id="path4312"
         inkscape:connector-curvature="0" />
      <path
         d="m 262.18291,182.86394 0,-3.42652 -2.81982,0 0,-1.41845 4.52881,0 0,5.47729 q -0.99976,0.70923 -2.20459,1.07666 -1.20483,0.35889 -2.57202,0.35889 -2.99072,0 -4.68262,-1.74317 -1.68335,-1.7517 -1.68335,-4.8706 0,-3.12744 1.68335,-4.87061 1.6919,-1.75171 4.68262,-1.75171 1.24756,0 2.36694,0.30762 1.12793,0.30762 2.07642,0.90576 l 0,1.83716 q -0.95703,-0.81177 -2.03369,-1.22192 -1.07666,-0.41016 -2.26441,-0.41016 -2.34131,0 -3.52051,1.30737 -1.17065,1.30738 -1.17065,3.89649 0,2.58057 1.17065,3.88794 1.1792,1.30737 3.52051,1.30737 0.91431,0 1.63208,-0.15381 0.71777,-0.16235 1.29028,-0.4956 z"
         style="font-size:17.5px"
         id="path4314"
         inkscape:connector-curvature="0" />
      <path
         d="m 272.23174,173.09709 q -1.87988,0 -2.99072,1.40137 -1.10229,1.40137 -1.10229,3.81958 0,2.40967 1.10229,3.81103 1.11084,1.40137 2.99072,1.40137 1.87989,0 2.97364,-1.40137 1.10229,-1.40136 1.10229,-3.81103 0,-2.41821 -1.10229,-3.81958 -1.09375,-1.40137 -2.97364,-1.40137 z m 2.41822,11.3562 2.27294,2.48658 -2.08496,0 -1.88842,-2.04224 q -0.28199,0.0171 -0.43579,0.0256 -0.14527,0.009 -0.28199,0.009 -2.69165,0 -4.30664,-1.79444 -1.60644,-1.80297 -1.60644,-4.81933 0,-3.0249 1.60644,-4.81934 1.61499,-1.80298 4.30664,-1.80298 2.68311,0 4.28955,1.80298 1.60645,1.79444 1.60645,4.81934 0,2.22168 -0.89722,3.80249 -0.88867,1.58081 -2.58056,2.33276 z"
         style="font-size:17.5px"
         id="path4316"
         inkscape:connector-curvature="0" />
      <path
         d="m 297.49053,177.7028 0,1.521 q -0.89721,0.67505 -1.66626,0.96558 -0.7605,0.29052 -1.58935,0.29052 -0.93994,0 -2.1875,-0.50415 -0.094,-0.0342 -0.13672,-0.0513 -0.0598,-0.0256 -0.18799,-0.0684 -1.32446,-0.52978 -2.12769,-0.52978 -0.75195,0 -1.48681,0.33325 -0.73487,0.32471 -1.57227,1.03394 l 0,-1.521 q 0.89722,-0.67505 1.65772,-0.96558 0.76904,-0.29907 1.5979,-0.29907 0.93994,0 2.19604,0.5127 0.0855,0.0342 0.12818,0.0513 0.0684,0.0256 0.18798,0.0684 1.32447,0.52978 2.12769,0.52978 0.73486,0 1.45264,-0.3247 0.72631,-0.32471 1.60644,-1.04249 z"
         style="font-size:17.5px"
         id="path4318"
         inkscape:connector-curvature="0" />
      <path
         d="m 300.19927,179.18962 4.60572,0 0,1.40137 -4.60572,0 0,-1.40137 z"
         style="font-size:17.5px"
         id="path4320"
         inkscape:connector-curvature="0" />
      <path
         d="m 313.71734,173.71233 0,4.75952 4.75952,0 0,1.45263 -4.75952,0 0,4.75953 -1.43555,0 0,-4.75953 -4.75952,0 0,-1.45263 4.75952,0 0,-4.75952 1.43555,0 z"
         style="font-size:17.5px"
         id="path4322"
         inkscape:connector-curvature="0" />
      <path
         d="m 322.18536,176.73723 10.95459,0 0,1.43555 -10.95459,0 0,-1.43555 z m 0,3.48633 10.95459,0 0,1.45263 -10.95459,0 0,-1.45263 z"
         style="font-size:17.5px"
         id="path4324"
         inkscape:connector-curvature="0" />
      <path
         d="m 336.84844,176.07072 0,-1.55517 10.95459,3.97339 0,1.41845 -10.95459,3.97339 0,-1.55517 8.80127,-3.1189 -8.80127,-3.13599 z"
         style="font-size:17.5px"
         id="path4326"
         inkscape:connector-curvature="0" />
    </g>
  </g>
</svg>
