<?xml version="1.0" encoding="UTF-8" standalone="no"?>
<svg
   version="1.1"
   id="svg2"
   viewBox="0 0 303.56152 108.93749"
   height="30.744579mm"
   width="85.671806mm"
   sodipodi:docname="NotoSansMono Nerd Font.svg"
   inkscape:version="1.1.2 (0a00cf5339, 2022-02-04)"
   xmlns:inkscape="http://www.inkscape.org/namespaces/inkscape"
   xmlns:sodipodi="http://sodipodi.sourceforge.net/DTD/sodipodi-0.dtd"
   xmlns="http://www.w3.org/2000/svg"
   xmlns:svg="http://www.w3.org/2000/svg"
   xmlns:rdf="http://www.w3.org/1999/02/22-rdf-syntax-ns#"
   xmlns:cc="http://creativecommons.org/ns#"
   xmlns:dc="http://purl.org/dc/elements/1.1/">
  <sodipodi:namedview
     id="namedview12"
     pagecolor="#ffffff"
     bordercolor="#666666"
     borderopacity="1.0"
     inkscape:pageshadow="2"
     inkscape:pageopacity="0.0"
     inkscape:pagecheckerboard="0"
     inkscape:document-units="mm"
     showgrid="false"
     inkscape:zoom="0.64052329"
     inkscape:cx="328.63754"
     inkscape:cy="475.39255"
     inkscape:window-width="1458"
     inkscape:window-height="976"
     inkscape:window-x="0"
     inkscape:window-y="32"
     inkscape:window-maximized="0"
     inkscape:current-layer="svg2" />
  <defs
     id="defs4" />
  <metadata
     id="metadata7">
    <rdf:RDF>
      <cc:Work
         rdf:about="">
        <dc:format>image/svg+xml</dc:format>
        <dc:type
           rdf:resource="http://purl.org/dc/dcmitype/StillImage" />
      </cc:Work>
    </rdf:RDF>
  </metadata>
  <g
     id="layer1"
     transform="translate(-64.782143,-80.033632)">
    <g
       aria-label="Noto Nerd Font"
       id="text4136"
       style="font-size:27.5px;line-height:125%;font-family:'NotoSansMono Nerd Font';text-decoration:underline;text-decoration-line:underline;letter-spacing:0px;word-spacing:0px;fill:#ffffff;stroke-width:1px">
      <path
         d="M 64.782143,100.93363 V 81.298632 H 68.054643 L 75.204643,97.661132 H 75.287143 Q 75.149643,96.038632 75.094643,94.718632 75.039643,93.371132 75.039643,91.693632 V 81.298632 H 77.432143 V 100.93363 H 74.434643 L 66.927143,83.828632 H 66.817143 Q 66.927143,85.368632 67.037143,86.908632 67.174643,88.448632 67.174643,89.988632 V 100.93363 Z"
         id="path829" />
      <path
         d="M 87.634601,101.20863 Q 85.709601,101.20863 84.169601,100.38363 82.657101,99.531132 81.749601,97.826132 80.869601,96.093632 80.869601,93.508632 80.869601,90.951132 81.722101,89.273632 82.602101,87.596132 84.114601,86.771132 85.627101,85.918632 87.552101,85.918632 89.477101,85.918632 91.017101,86.771132 92.557101,87.596132 93.437101,89.301132 94.344601,90.978632 94.344601,93.591132 94.344601,96.148632 93.464601,97.853632 92.584601,99.531132 91.072101,100.38363 89.559601,101.20863 87.634601,101.20863 Z M 87.607101,99.201132 Q 89.752101,99.201132 90.797101,97.688632 91.842101,96.148632 91.842101,93.536132 91.842101,90.923632 90.769601,89.438632 89.724601,87.926132 87.579601,87.926132 85.434601,87.926132 84.362101,89.438632 83.317101,90.923632 83.317101,93.536132 83.317101,96.148632 84.389601,97.688632 85.462101,99.201132 87.607101,99.201132 Z"
         id="path831" />
      <path
         d="M 106.91206,101.20863 Q 105.34456,101.20863 104.07956,100.79613 102.84206,100.38363 102.12706,99.338632 101.41206,98.293632 101.41206,96.451132 V 88.256132 H 97.397059 V 86.551132 L 101.41206,86.111132 101.90706,82.261132 H 103.88706 V 86.193632 H 109.63456 V 88.256132 H 103.88706 V 95.983632 Q 103.88706,97.661132 104.62956,98.431132 105.37206,99.201132 107.07706,99.201132 107.79206,99.201132 108.61706,99.063632 109.44206,98.926132 110.04706,98.788632 V 100.76863 Q 109.38706,100.93363 108.58956,101.07113 107.79206,101.20863 106.91206,101.20863 Z"
         id="path833" />
      <path
         d="M 120.63452,101.20863 Q 118.70952,101.20863 117.16952,100.38363 115.65702,99.531132 114.74952,97.826132 113.86952,96.093632 113.86952,93.508632 113.86952,90.951132 114.72202,89.273632 115.60202,87.596132 117.11452,86.771132 118.62702,85.918632 120.55202,85.918632 122.47702,85.918632 124.01702,86.771132 125.55702,87.596132 126.43702,89.301132 127.34452,90.978632 127.34452,93.591132 127.34452,96.148632 126.46452,97.853632 125.58452,99.531132 124.07202,100.38363 122.55952,101.20863 120.63452,101.20863 Z M 120.60702,99.201132 Q 122.75202,99.201132 123.79702,97.688632 124.84202,96.148632 124.84202,93.536132 124.84202,90.923632 123.76952,89.438632 122.72452,87.926132 120.57952,87.926132 118.43452,87.926132 117.36202,89.438632 116.31702,90.923632 116.31702,93.536132 116.31702,96.148632 117.38952,97.688632 118.46202,99.201132 120.60702,99.201132 Z"
         id="path835" />
      <path
         d="M 147.28193,100.93363 V 81.298632 H 150.55443 L 157.70443,97.661132 H 157.78693 Q 157.64943,96.038632 157.59443,94.718632 157.53943,93.371132 157.53943,91.693632 V 81.298632 H 159.93193 V 100.93363 H 156.93443 L 149.42693,83.828632 H 149.31693 Q 149.42693,85.368632 149.53693,86.908632 149.67443,88.448632 149.67443,89.988632 V 100.93363 Z"
         id="path837" />
      <path
         d="M 171.12439,101.20863 Q 167.57689,101.20863 165.54189,99.256132 163.50689,97.303632 163.50689,93.618632 163.50689,91.198632 164.38689,89.493632 165.26689,87.761132 166.83439,86.853632 168.40189,85.918632 170.49189,85.918632 173.37939,85.918632 175.02939,87.788632 176.70689,89.658632 176.70689,92.903632 V 94.031132 H 166.00939 Q 166.06439,95.956132 166.72439,97.083632 167.41189,98.211132 168.56689,98.706132 169.74939,99.173632 171.28939,99.173632 172.47189,99.173632 173.65439,98.843632 174.83689,98.513632 176.04689,97.963632 V 100.16363 Q 174.78189,100.71363 173.51689,100.96113 172.25189,101.20863 171.12439,101.20863 Z M 166.06439,92.051132 H 174.23189 Q 174.14939,90.126132 173.18689,89.026132 172.25189,87.926132 170.49189,87.926132 168.62189,87.926132 167.49439,89.053632 166.36689,90.153632 166.06439,92.051132 Z"
         id="path839" />
      <path
         d="M 180.06185,100.93363 V 99.283632 L 184.54435,98.871132 V 88.256132 L 180.50185,87.898632 V 86.193632 H 186.52435 L 186.85435,88.888632 H 186.96435 Q 187.73435,87.458632 188.64185,86.688632 189.57685,85.918632 191.08935,85.918632 192.02435,85.918632 192.73935,86.083632 193.48185,86.248632 194.08685,86.523632 L 193.42685,88.696132 Q 192.98685,88.448632 192.38185,88.283632 191.77685,88.091132 191.08935,88.091132 189.90685,88.091132 188.99935,88.833632 188.09185,89.576132 187.56935,90.813632 187.04685,92.051132 187.04685,93.536132 V 98.871132 L 191.33685,99.283632 V 100.93363 Z"
         id="path841" />
      <path
         d="M 202.39181,101.20863 Q 199.66931,101.20863 198.01931,99.311132 196.36931,97.413632 196.36931,93.481132 196.36931,89.823632 197.93681,87.871132 199.50431,85.918632 202.66681,85.918632 204.20681,85.918632 205.19681,86.523632 206.18681,87.128632 206.70931,88.063632 H 206.87431 Q 206.81931,87.678632 206.76431,87.046132 206.70931,86.413632 206.70931,85.891132 V 80.033632 H 209.15681 V 100.93363 H 207.12181 L 206.84681,98.953632 H 206.73681 Q 206.13181,99.943632 205.08681,100.57613 204.06931,101.20863 202.39181,101.20863 Z M 202.85931,99.201132 Q 204.81181,99.201132 205.74681,97.853632 206.70931,96.478632 206.70931,94.141132 V 93.591132 Q 206.70931,91.968632 206.35181,90.703632 205.99431,89.411132 205.16931,88.668632 204.34431,87.926132 202.94181,87.926132 201.01681,87.926132 199.94431,89.356132 198.89931,90.786132 198.89931,93.728632 198.89931,99.201132 202.85931,99.201132 Z"
         id="path843" />
      <path
         d="M 230.46922,100.93363 V 81.298632 H 242.01922 V 83.498632 H 232.94422 V 90.428632 H 241.49672 V 92.628632 H 232.94422 V 100.93363 Z"
         id="path845" />
      <path
         d="M 252.63419,101.20863 Q 250.70919,101.20863 249.16919,100.38363 247.65669,99.531132 246.74919,97.826132 245.86919,96.093632 245.86919,93.508632 245.86919,90.951132 246.72169,89.273632 247.60169,87.596132 249.11419,86.771132 250.62669,85.918632 252.55169,85.918632 254.47669,85.918632 256.01669,86.771132 257.55669,87.596132 258.43669,89.301132 259.34419,90.978632 259.34419,93.591132 259.34419,96.148632 258.46419,97.853632 257.58419,99.531132 256.07169,100.38363 254.55919,101.20863 252.63419,101.20863 Z M 252.60669,99.201132 Q 254.75169,99.201132 255.79669,97.688632 256.84169,96.148632 256.84169,93.536132 256.84169,90.923632 255.76919,89.438632 254.72419,87.926132 252.57919,87.926132 250.43419,87.926132 249.36169,89.438632 248.31669,90.923632 248.31669,93.536132 248.31669,96.148632 249.38919,97.688632 250.46169,99.201132 252.60669,99.201132 Z"
         id="path847" />
      <path
         d="M 263.05664,100.93363 V 86.193632 H 265.03664 L 265.39414,88.366132 H 265.53164 Q 266.16414,87.101132 267.40164,86.523632 268.66664,85.918632 270.34414,85.918632 272.57164,85.918632 273.91914,87.183632 275.29414,88.421132 275.29414,91.088632 V 100.93363 H 272.81914 V 91.528632 Q 272.81914,89.658632 272.04914,88.806132 271.30664,87.926132 269.62914,87.926132 267.37414,87.926132 266.43914,89.356132 265.53164,90.786132 265.53164,93.371132 V 100.93363 Z"
         id="path849" />
      <path
         d="M 288.41159,101.20863 Q 286.84409,101.20863 285.57909,100.79613 284.34159,100.38363 283.62659,99.338632 282.91159,98.293632 282.91159,96.451132 V 88.256132 H 278.89659 V 86.551132 L 282.91159,86.111132 283.40659,82.261132 H 285.38659 V 86.193632 H 291.13409 V 88.256132 H 285.38659 V 95.983632 Q 285.38659,97.661132 286.12909,98.431132 286.87159,99.201132 288.57659,99.201132 289.29159,99.201132 290.11659,99.063632 290.94159,98.926132 291.54659,98.788632 V 100.76863 Q 290.88659,100.93363 290.08909,101.07113 289.29159,101.20863 288.41159,101.20863 Z"
         id="path851" />
    </g>
    <g
       aria-label="abcdefghijklmnopqrstuvwxyzABCDEFGHIJKLMNOPQRSTUVWXYZ oO08 iIlL1 {} [] g9qCGQ ~-+=&gt;"
       id="text4140"
       style="font-size:27.5px;line-height:125%;font-family:'NotoSansMono Nerd Font';letter-spacing:0px;word-spacing:0px;fill:#ffffff;stroke-width:1px">
      <path
         d="M 69.724403,141.10862 Q 68.341903,141.10862 67.484403,140.42612 66.644403,139.74362 66.644403,138.36112 66.644403,136.83862 67.729403,136.08612 68.831903,135.33362 70.896903,135.28112 L 72.909403,135.22862 V 134.84362 Q 72.909403,133.58362 72.279403,133.12862 71.649403,132.65612 70.581903,132.65612 69.829403,132.65612 69.146903,132.84862 68.464403,133.04112 67.851903,133.39112 L 67.309403,132.20112 Q 67.974403,131.86862 68.779403,131.62362 69.601903,131.37862 70.669403,131.37862 72.419403,131.37862 73.381903,132.18362 74.344403,132.97112 74.344403,134.65112 V 140.93362 H 73.084403 L 72.909403,139.63862 H 72.839403 Q 72.261903,140.37362 71.491903,140.74112 70.739403,141.10862 69.724403,141.10862 Z M 69.986903,139.83112 Q 70.774403,139.83112 71.439403,139.55112 72.104403,139.25362 72.506903,138.67612 72.909403,138.09862 72.909403,137.18862 V 136.34862 L 71.229403,136.40112 Q 69.549403,136.45362 68.831903,136.94362 68.131903,137.43362 68.131903,138.30862 68.131903,139.11362 68.639403,139.48112 69.146903,139.83112 69.986903,139.83112 Z"
         style="font-size:17.5px"
         id="path854" />
      <path
         d="M 81.676876,141.10862 Q 80.644376,141.10862 79.926876,140.70612 79.209376,140.30362 78.824376,139.74362 H 78.719376 L 78.579376,140.93362 H 77.319376 V 127.63362 H 78.841876 V 130.85362 Q 78.841876,131.34362 78.824376,131.81612 78.824376,132.28862 78.771876,132.77862 H 78.841876 Q 79.209376,132.21862 79.909376,131.79862 80.609376,131.37862 81.676876,131.37862 83.374376,131.37862 84.406876,132.60362 85.456876,133.82862 85.456876,136.22612 85.456876,138.64112 84.406876,139.88362 83.356876,141.10862 81.676876,141.10862 Z M 81.379376,139.83112 Q 82.656876,139.83112 83.251876,138.90362 83.846876,137.97612 83.846876,136.22612 83.846876,134.51112 83.251876,133.58362 82.656876,132.65612 81.361876,132.65612 80.154376,132.65612 79.489376,133.58362 78.841876,134.49362 78.841876,136.19112 78.841876,137.95862 79.454376,138.90362 80.084376,139.83112 81.379376,139.83112 Z"
         style="font-size:17.5px"
         id="path856" />
      <path
         d="M 92.33435,141.10862 Q 90.26935,141.10862 89.07935,139.98862 87.90685,138.85112 87.90685,136.31362 87.90685,134.51112 88.48435,133.42612 89.07935,132.34112 90.11185,131.86862 91.14435,131.37862 92.49185,131.37862 93.31435,131.37862 93.97935,131.55362 94.64435,131.71112 95.25685,132.02612 L 94.78435,133.30362 Q 94.22435,133.02362 93.69935,132.88362 93.17435,132.74362 92.56185,132.74362 90.95185,132.74362 90.23435,133.63612 89.51685,134.51112 89.51685,136.27862 89.51685,138.15112 90.26935,138.95612 91.02185,139.76112 92.50935,139.76112 93.27935,139.76112 93.96185,139.60362 94.64435,139.42862 95.15185,139.20112 V 140.58362 Q 94.62685,140.82862 93.85685,140.96862 93.08685,141.10862 92.33435,141.10862 Z"
         style="font-size:17.5px"
         id="path858" />
      <path
         d="M 101.71432,141.10862 Q 99.981823,141.10862 98.931823,139.90112 97.881823,138.69362 97.881823,136.19112 97.881823,133.86362 98.879323,132.62112 99.876823,131.37862 101.88932,131.37862 102.86932,131.37862 103.49932,131.76362 104.12932,132.14862 104.46182,132.74362 H 104.56682 Q 104.53182,132.49862 104.49682,132.09612 104.46182,131.69362 104.46182,131.36112 V 127.63362 H 106.01932 V 140.93362 H 104.72432 L 104.54932,139.67362 H 104.47932 Q 104.09432,140.30362 103.42932,140.70612 102.78182,141.10862 101.71432,141.10862 Z M 102.01182,139.83112 Q 103.25432,139.83112 103.84932,138.97362 104.46182,138.09862 104.46182,136.61112 V 136.26112 Q 104.46182,135.22862 104.23432,134.42362 104.00682,133.60112 103.48182,133.12862 102.95682,132.65612 102.06432,132.65612 100.83932,132.65612 100.15682,133.56612 99.491823,134.47612 99.491823,136.34862 99.491823,139.83112 102.01182,139.83112 Z"
         style="font-size:17.5px"
         id="path860" />
      <path
         d="M 113.3168,141.10862 Q 111.0593,141.10862 109.7643,139.86612 108.4693,138.62362 108.4693,136.27862 108.4693,134.73862 109.0293,133.65362 109.5893,132.55112 110.5868,131.97362 111.5843,131.37862 112.9143,131.37862 114.7518,131.37862 115.8018,132.56862 116.8693,133.75862 116.8693,135.82362 V 136.54112 H 110.0618 Q 110.0968,137.76612 110.5168,138.48362 110.9543,139.20112 111.6893,139.51612 112.4418,139.81362 113.4218,139.81362 114.1743,139.81362 114.9268,139.60362 115.6793,139.39362 116.4493,139.04362 V 140.44362 Q 115.6443,140.79362 114.8393,140.95112 114.0343,141.10862 113.3168,141.10862 Z M 110.0968,135.28112 H 115.2943 Q 115.2418,134.05612 114.6293,133.35612 114.0343,132.65612 112.9143,132.65612 111.7243,132.65612 111.0068,133.37362 110.2893,134.07362 110.0968,135.28112 Z"
         style="font-size:17.5px"
         id="path862" />
      <path
         d="M 122.13677,140.93362 V 132.86612 H 119.07427 V 131.78112 L 122.13677,131.55362 V 130.48612 Q 122.13677,129.38362 122.55677,128.73612 122.99427,128.08862 123.76427,127.82612 124.53427,127.54612 125.54927,127.54612 126.31927,127.54612 126.89677,127.66862 127.47427,127.77362 127.89427,127.89612 L 127.54427,129.10362 Q 127.19427,128.99862 126.66927,128.92862 126.14427,128.84112 125.63677,128.84112 124.70927,128.84112 124.20177,129.22612 123.71177,129.61112 123.71177,130.69612 V 131.55362 H 127.24677 V 132.86612 H 123.71177 V 140.93362 Z"
         style="font-size:17.5px"
         id="path864" />
      <path
         d="M 133.24924,145.22112 Q 132.26924,145.22112 131.42924,145.02862 130.58924,144.85362 129.87174,144.55612 V 143.15612 Q 130.57174,143.55862 131.48174,143.75112 132.40924,143.96112 133.19674,143.96112 134.78924,143.96112 135.41924,143.20862 136.04924,142.47362 136.04924,141.17862 V 140.84612 Q 136.04924,140.63612 136.04924,140.44362 136.06674,140.25112 136.10174,139.84862 H 136.03174 Q 135.54174,140.56612 134.87674,140.84612 134.22924,141.10862 133.30174,141.10862 131.42924,141.10862 130.39674,139.84862 129.38174,138.57112 129.38174,136.29612 129.38174,134.00362 130.39674,132.69112 131.42924,131.37862 133.21424,131.37862 134.15924,131.37862 134.80674,131.69362 135.45424,131.99112 135.96174,132.70862 H 136.04924 L 136.25924,131.55362 H 137.51924 V 141.17862 Q 137.51924,143.19112 136.48674,144.20612 135.45424,145.22112 133.24924,145.22112 Z M 133.59924,139.83112 Q 134.77174,139.83112 135.43674,139.07862 136.10174,138.30862 136.10174,136.62862 V 136.26112 Q 136.10174,134.35362 135.40174,133.51362 134.71924,132.65612 133.54674,132.65612 132.21674,132.65612 131.60424,133.60112 130.99174,134.52862 130.99174,136.24362 130.99174,137.99362 131.62174,138.92112 132.26924,139.83112 133.59924,139.83112 Z"
         style="font-size:17.5px"
         id="path866" />
      <path
         d="M 140.31922,140.93362 V 127.63362 H 141.89422 V 131.41362 Q 141.89422,131.74612 141.85922,132.25362 141.84172,132.76112 141.82422,133.05862 H 141.91172 Q 142.34922,132.18362 143.11922,131.78112 143.88922,131.37862 144.85172,131.37862 146.30422,131.37862 147.19672,132.20112 148.10672,133.00612 148.10672,134.80862 V 140.93362 H 146.53172 V 135.12362 Q 146.53172,133.84612 145.98922,133.25112 145.44672,132.65612 144.44922,132.65612 143.27672,132.65612 142.57672,133.56612 141.89422,134.45862 141.89422,136.06862 V 140.93362 Z"
         style="font-size:17.5px"
         id="path868" />
      <path
         d="M 154.79169,129.85612 Q 154.33669,129.85612 154.00419,129.59362 153.68919,129.31362 153.68919,128.75362 153.68919,128.17612 154.00419,127.91362 154.33669,127.63362 154.79169,127.63362 155.22919,127.63362 155.56169,127.91362 155.89419,128.17612 155.89419,128.75362 155.89419,129.31362 155.56169,129.59362 155.22919,129.85612 154.79169,129.85612 Z M 150.81919,140.93362 V 139.88362 L 154.16169,139.62112 V 132.86612 L 151.09919,132.63862 V 131.55362 H 155.73669 V 139.62112 L 158.86919,139.88362 V 140.93362 Z"
         style="font-size:17.5px"
         id="path870" />
      <path
         d="M 165.90416,129.85612 Q 165.44916,129.85612 165.13416,129.57612 164.81916,129.29612 164.81916,128.73612 164.81916,128.19362 165.11666,127.91362 165.43166,127.63362 165.90416,127.63362 166.35916,127.63362 166.67416,127.91362 167.00666,128.17612 167.00666,128.73612 167.00666,129.31362 166.67416,129.59362 166.34166,129.85612 165.90416,129.85612 Z M 163.27916,145.22112 Q 162.71916,145.22112 162.07166,145.13362 161.42416,145.06362 160.96916,144.92362 V 143.54112 Q 161.42416,143.69862 162.00166,143.80362 162.57916,143.90862 163.10416,143.90862 164.27666,143.90862 164.78416,143.33112 165.29166,142.75362 165.29166,141.58112 V 132.86612 L 162.22916,132.63862 V 131.55362 H 166.86666 V 141.84362 Q 166.86666,143.47112 165.92166,144.34612 164.99416,145.22112 163.27916,145.22112 Z"
         style="font-size:17.5px"
         id="path872" />
      <path
         d="M 172.25664,140.93362 V 127.63362 H 173.83164 V 134.03862 Q 173.83164,134.59862 173.77914,135.33362 173.74414,136.06862 173.70914,136.68112 H 173.74414 Q 174.07664,136.24362 174.37414,135.89362 174.68914,135.52612 175.02164,135.14112 L 178.25914,131.55362 H 180.14914 L 176.42164,135.59612 180.39414,140.93362 H 178.57414 L 175.37164,136.52362 173.83164,138.01112 V 140.93362 Z"
         style="font-size:17.5px"
         id="path874" />
      <path
         d="M 182.31911,140.93362 V 139.88362 L 185.74911,139.62112 V 128.94612 L 182.42411,128.71862 V 127.63362 H 187.32411 V 139.62112 L 190.36911,139.88362 V 140.93362 Z"
         style="font-size:17.5px"
         id="path876" />
      <path
         d="M 192.29408,140.93362 V 131.55362 H 193.37908 L 193.60658,132.58612 H 193.69408 Q 194.04408,131.88612 194.46408,131.64112 194.88408,131.37862 195.42658,131.37862 196.14408,131.37862 196.52908,131.72862 196.93158,132.06112 197.14158,132.72612 H 197.19408 Q 197.49158,132.07862 197.92908,131.72862 198.38408,131.37862 199.11908,131.37862 200.20408,131.37862 200.62408,132.21862 201.06158,133.04112 201.06158,134.80862 V 140.93362 H 199.66158 V 135.07112 Q 199.66158,133.96862 199.50408,133.35612 199.36408,132.74362 198.71658,132.74362 197.38658,132.74362 197.38658,136.24362 V 140.93362 H 195.98658 V 135.07112 Q 195.98658,133.95112 195.77658,133.35612 195.58408,132.74362 194.93658,132.74362 194.23658,132.74362 193.95658,133.68862 193.69408,134.63362 193.69408,136.24362 V 140.93362 Z"
         style="font-size:17.5px"
         id="path878" />
      <path
         d="M 203.31905,140.93362 V 131.55362 H 204.57905 L 204.80655,132.93612 H 204.89405 Q 205.29655,132.13112 206.08405,131.76362 206.88905,131.37862 207.95655,131.37862 209.37405,131.37862 210.23155,132.18362 211.10655,132.97112 211.10655,134.66862 V 140.93362 H 209.53155 V 134.94862 Q 209.53155,133.75862 209.04155,133.21612 208.56905,132.65612 207.50155,132.65612 206.06655,132.65612 205.47155,133.56612 204.89405,134.47612 204.89405,136.12112 V 140.93362 Z"
         style="font-size:17.5px"
         id="path880" />
      <path
         d="M 217.68654,141.10862 Q 216.46154,141.10862 215.48154,140.58362 214.51904,140.04112 213.94154,138.95612 213.38154,137.85362 213.38154,136.20862 213.38154,134.58112 213.92404,133.51362 214.48404,132.44612 215.44654,131.92112 216.40904,131.37862 217.63404,131.37862 218.85904,131.37862 219.83904,131.92112 220.81904,132.44612 221.37904,133.53112 221.95654,134.59862 221.95654,136.26112 221.95654,137.88862 221.39654,138.97362 220.83654,140.04112 219.87404,140.58362 218.91154,141.10862 217.68654,141.10862 Z M 217.66904,139.83112 Q 219.03404,139.83112 219.69904,138.86862 220.36404,137.88862 220.36404,136.22612 220.36404,134.56362 219.68154,133.61862 219.01654,132.65612 217.65154,132.65612 216.28654,132.65612 215.60404,133.61862 214.93904,134.56362 214.93904,136.22612 214.93904,137.88862 215.62154,138.86862 216.30404,139.83112 217.66904,139.83112 Z"
         style="font-size:17.5px"
         id="path882" />
      <path
         d="M 224.31901,145.13362 V 131.55362 H 225.61401 L 225.80651,132.83112 H 225.87651 Q 226.27901,132.14862 226.94401,131.76362 227.62651,131.37862 228.67651,131.37862 230.39151,131.37862 231.42401,132.60362 232.45651,133.82862 232.45651,136.22612 232.45651,138.62362 231.42401,139.86612 230.39151,141.10862 228.67651,141.10862 227.64401,141.10862 226.96151,140.68862 226.27901,140.26862 225.87651,139.72612 H 225.77151 Q 225.87651,140.40862 225.87651,141.12612 V 145.13362 Z M 228.34401,139.83112 Q 229.65651,139.83112 230.25151,138.93862 230.84651,138.02862 230.84651,136.19112 230.84651,134.38862 230.25151,133.53112 229.67401,132.65612 228.32651,132.65612 227.04901,132.65612 226.45401,133.49612 225.87651,134.31862 225.87651,135.87612 V 136.22612 Q 225.87651,137.88862 226.40151,138.86862 226.94401,139.83112 228.34401,139.83112 Z"
         style="font-size:17.5px"
         id="path884" />
      <path
         d="M 240.96148,145.13362 V 141.12612 Q 240.96148,140.79362 240.97898,140.42612 240.99648,140.04112 241.01398,139.67362 H 240.96148 Q 240.57648,140.26862 239.91148,140.68862 239.26398,141.10862 238.21398,141.10862 236.51648,141.10862 235.44898,139.88362 234.38148,138.65862 234.38148,136.26112 234.38148,134.66862 234.87148,133.58362 235.37898,132.48112 236.23648,131.93862 237.11148,131.37862 238.23148,131.37862 239.26398,131.37862 239.91148,131.79862 240.55898,132.21862 240.96148,132.81362 H 241.03148 L 241.25898,131.55362 H 242.51898 V 145.13362 Z M 238.49398,139.83112 Q 240.96148,139.83112 240.96148,136.61112 V 136.26112 Q 240.96148,134.56362 240.40148,133.61862 239.85898,132.65612 238.45898,132.65612 237.16398,132.65612 236.56898,133.58362 235.99148,134.51112 235.99148,136.27862 235.99148,137.88862 236.58648,138.86862 237.19898,139.83112 238.49398,139.83112 Z"
         style="font-size:17.5px"
         id="path886" />
      <path
         d="M 245.00395,140.93362 V 139.88362 L 247.85645,139.62112 V 132.86612 L 245.28395,132.63862 V 131.55362 H 249.11645 L 249.32645,133.26862 H 249.39645 Q 249.88645,132.35862 250.46395,131.86862 251.05895,131.37862 252.02145,131.37862 252.61645,131.37862 253.07145,131.48362 253.54395,131.58862 253.92895,131.76362 L 253.50895,133.14612 Q 253.22895,132.98862 252.84395,132.88362 252.45895,132.76112 252.02145,132.76112 251.26895,132.76112 250.69145,133.23362 250.11395,133.70612 249.78145,134.49362 249.44895,135.28112 249.44895,136.22612 V 139.62112 L 252.17895,139.88362 V 140.93362 Z"
         style="font-size:17.5px"
         id="path888" />
      <path
         d="M 259.30141,141.10862 Q 258.42641,141.10862 257.62141,140.95112 256.83391,140.79362 256.25641,140.51362 V 139.06112 Q 256.86891,139.34112 257.60391,139.58612 258.35641,139.81362 259.38891,139.81362 260.54391,139.81362 261.01641,139.46362 261.50641,139.09612 261.50641,138.41362 261.50641,138.04612 261.33141,137.81862 261.17391,137.57362 260.70141,137.32862 260.22891,137.08362 259.31891,136.69862 258.40891,136.31362 257.76141,135.96362 257.11391,135.59612 256.76391,135.12362 256.41391,134.63362 256.41391,133.88112 256.41391,132.63862 257.35891,132.00862 258.32141,131.37862 260.01891,131.37862 260.78891,131.37862 261.48891,131.51862 262.18891,131.65862 262.94141,131.97362 L 262.46891,133.19862 Q 261.76891,132.90112 261.17391,132.79612 260.59641,132.69112 260.01891,132.69112 258.93391,132.69112 258.42641,132.97112 257.93641,133.25112 257.93641,133.84612 257.93641,134.23112 258.14641,134.49362 258.37391,134.75612 258.86391,135.00112 259.37141,135.24612 260.19391,135.59612 261.12141,135.99862 261.76891,136.33112 262.41641,136.64612 262.74891,137.11862 263.08141,137.57362 263.08141,138.37862 263.08141,139.70862 262.11891,140.40862 261.17391,141.10862 259.30141,141.10862 Z"
         style="font-size:17.5px"
         id="path890" />
      <path
         d="M 271.9539,141.10862 Q 270.9564,141.10862 270.1514,140.84612 269.3639,140.58362 268.9089,139.91862 268.4539,139.25362 268.4539,138.08112 V 132.86612 H 265.8989 V 131.78112 L 268.4539,131.50112 268.7689,129.05112 H 270.0289 V 131.55362 H 273.6864 V 132.86612 H 270.0289 V 137.78362 Q 270.0289,138.85112 270.5014,139.34112 270.9739,139.83112 272.0589,139.83112 272.5139,139.83112 273.0389,139.74362 273.5639,139.65612 273.9489,139.56862 V 140.82862 Q 273.5289,140.93362 273.0214,141.02112 272.5139,141.10862 271.9539,141.10862 Z"
         style="font-size:17.5px"
         id="path892" />
      <path
         d="M 279.98637,141.10862 Q 278.32387,141.10862 277.51887,140.28612 276.73137,139.46362 276.73137,137.80112 V 131.55362 H 278.30637 V 137.55612 Q 278.30637,138.67612 278.76137,139.25362 279.23387,139.83112 280.37137,139.83112 281.82387,139.83112 282.38387,138.92112 282.94387,138.01112 282.94387,136.38362 V 131.55362 H 284.51887 V 140.93362 H 283.25887 L 283.03137,139.67362 H 282.94387 Q 282.45387,140.46112 281.70137,140.79362 280.96637,141.10862 279.98637,141.10862 Z"
         style="font-size:17.5px"
         id="path894" />
      <path
         d="M 290.17134,140.93362 286.70634,131.55362 H 288.31634 L 290.27634,137.11862 Q 290.46884,137.67862 290.67884,138.29112 290.90634,138.90362 291.13384,139.60362 H 291.18634 Q 291.41384,138.90362 291.64134,138.29112 291.86884,137.67862 292.06134,137.11862 L 293.96884,131.55362 H 295.61384 L 292.11384,140.93362 Z"
         style="font-size:17.5px"
         id="path896" />
      <path
         d="M 298.20382,140.93362 296.69882,131.55362 H 298.16882 L 298.85132,136.19112 Q 298.93882,136.83862 298.99132,137.34612 299.04382,137.85362 299.07882,138.37862 299.11382,138.90362 299.16632,139.62112 H 299.21882 Q 299.25382,139.32362 299.35882,138.79862 299.46382,138.25612 299.58632,137.64362 299.72632,137.01362 299.88382,136.48862 L 300.79382,133.32112 H 302.52632 L 303.40132,136.48862 Q 303.55882,137.01362 303.69882,137.62612 303.83882,138.22112 303.94382,138.76362 304.04882,139.28862 304.10132,139.62112 H 304.15382 Q 304.18882,138.92112 304.22382,138.41362 304.27632,137.88862 304.32882,137.38112 304.38132,136.87362 304.48632,136.19112 L 305.22132,131.55362 H 306.65632 L 305.11632,140.93362 H 303.22632 L 302.38632,137.64362 Q 302.19382,136.92612 302.00132,136.22612 301.82632,135.50862 301.68632,134.79112 H 301.63382 Q 301.49382,135.50862 301.28382,136.22612 301.07382,136.92612 300.89882,137.64362 L 300.04132,140.93362 Z"
         style="font-size:17.5px"
         id="path898" />
      <path
         d="M 307.70629,140.93362 311.25879,136.13862 307.88129,131.55362 H 309.64879 L 312.16879,135.07112 314.68879,131.55362 H 316.45629 L 313.06129,136.13862 316.61379,140.93362 H 314.84629 L 312.16879,137.20612 309.47379,140.93362 Z"
         style="font-size:17.5px"
         id="path900" />
      <path
         d="M 319.79876,145.22112 Q 319.44876,145.22112 319.11626,145.16862 318.78376,145.13362 318.53876,145.08112 V 143.87362 Q 318.74876,143.90862 319.02876,143.94362 319.32626,143.97862 319.60626,143.97862 320.41126,143.97862 320.84876,143.57612 321.28626,143.19112 321.63626,142.29862 L 322.14376,141.02112 318.20626,131.55362 H 319.74626 L 321.98626,137.06612 Q 322.21376,137.60862 322.42376,138.27362 322.65126,138.93862 322.82626,139.55112 H 322.87876 Q 323.05376,138.90362 323.26376,138.25612 323.47376,137.60862 323.66626,137.04862 L 325.50376,131.55362 H 327.11376 L 323.17626,142.15862 Q 322.84376,143.06862 322.44126,143.75112 322.05626,144.45112 321.42626,144.83612 320.81376,145.22112 319.79876,145.22112 Z"
         style="font-size:17.5px"
         id="path902" />
      <path
         d="M 329.49373,140.93362 V 139.86612 L 335.00623,132.76112 H 329.77373 V 131.55362 H 336.70373 V 132.79612 L 331.36623,139.60362 H 336.84373 V 140.93362 Z"
         style="font-size:17.5px"
         id="path904" />
      <path
         d="M 65.769403,162.80862 69.829403,150.26112 H 71.491903 L 75.569403,162.80862 H 73.959403 L 72.769403,158.97612 H 68.551903 L 67.361903,162.80862 Z M 70.144403,153.84862 68.989403,157.57612 H 72.331903 L 71.176903,153.84862 Q 71.089403,153.55112 70.931903,153.00862 70.774403,152.46612 70.651903,151.92362 70.546903,152.46612 70.389403,153.02612 70.231903,153.56862 70.144403,153.84862 Z"
         style="font-size:17.5px"
         id="path906" />
      <path
         d="M 77.581876,162.80862 V 150.31362 H 80.941876 Q 82.866876,150.31362 83.986876,151.01362 85.106876,151.69612 85.106876,153.37612 85.106876,154.60112 84.511876,155.30112 83.916876,156.00112 82.866876,156.17612 V 156.26362 Q 83.584376,156.40362 84.161876,156.71862 84.756876,157.01612 85.106876,157.61112 85.456876,158.20612 85.456876,159.18612 85.456876,160.88362 84.389376,161.84612 83.321876,162.80862 81.466876,162.80862 Z M 79.069376,155.59862 H 81.081876 Q 82.394376,155.59862 82.954376,155.10862 83.514376,154.60112 83.514376,153.58612 83.514376,152.55362 82.901876,152.11612 82.306876,151.67862 80.819376,151.67862 H 79.069376 Z M 79.069376,161.44362 H 81.186876 Q 82.674376,161.44362 83.251876,160.81362 83.846876,160.18362 83.846876,159.18612 83.846876,158.17112 83.234376,157.57612 82.639376,156.96362 81.081876,156.96362 H 79.069376 Z"
         style="font-size:17.5px"
         id="path908" />
      <path
         d="M 92.80685,162.98362 Q 90.96935,162.98362 89.81435,162.16112 88.65935,161.33862 88.11685,159.90362 87.57435,158.45112 87.57435,156.56112 87.57435,154.58362 88.18685,153.14862 88.81685,151.69612 89.98935,150.92612 91.17935,150.13862 92.87685,150.13862 93.78685,150.13862 94.57435,150.33112 95.37935,150.52362 96.04435,150.87362 L 95.44935,152.15112 Q 94.90685,151.85362 94.20685,151.69612 93.52435,151.53862 92.87685,151.53862 91.09185,151.53862 90.12935,152.83362 89.18435,154.12862 89.18435,156.56112 89.18435,158.88862 90.04185,160.21862 90.89935,161.53112 92.84185,161.53112 93.43685,161.53112 94.11935,161.40862 94.81935,161.26862 95.50185,160.98862 V 162.47612 Q 94.78435,162.73862 94.15435,162.86112 93.52435,162.98362 92.80685,162.98362 Z"
         style="font-size:17.5px"
         id="path910" />
      <path
         d="M 98.144323,162.80862 V 150.31362 H 101.17182 Q 102.83432,150.31362 104.05932,151.01362 105.28432,151.71362 105.94932,153.07862 106.63182,154.44362 106.63182,156.43862 106.63182,159.60612 105.09182,161.21612 103.56932,162.80862 100.82182,162.80862 Z M 99.719323,161.44362 H 100.66432 Q 102.90432,161.44362 103.95432,160.18362 105.02182,158.92362 105.02182,156.49112 105.02182,154.00612 103.93682,152.85112 102.86932,151.67862 100.99682,151.67862 H 99.719323 Z"
         style="font-size:17.5px"
         id="path912" />
      <path
         d="M 109.0818,162.80862 V 150.31362 H 116.4318 V 151.71362 H 110.6568 V 155.58112 H 116.0993 V 156.98112 H 110.6568 V 161.40862 H 116.4318 V 162.80862 Z"
         style="font-size:17.5px"
         id="path914" />
      <path
         d="M 119.58177,162.80862 V 150.31362 H 126.93177 V 151.71362 H 121.15677 V 156.12362 H 126.59927 V 157.52362 H 121.15677 V 162.80862 Z"
         style="font-size:17.5px"
         id="path916" />
      <path
         d="M 134.36924,162.98362 Q 131.81424,162.98362 130.50174,161.39112 129.20674,159.79862 129.20674,156.75362 129.20674,153.62112 130.57174,151.88862 131.93674,150.13862 134.57924,150.13862 135.47174,150.13862 136.18924,150.33112 136.90674,150.52362 137.55424,150.87362 L 136.99424,152.18612 Q 136.53924,151.90612 135.94424,151.73112 135.36674,151.55612 134.61424,151.55612 132.70674,151.55612 131.76174,152.90362 130.81674,154.23362 130.81674,156.68362 130.81674,158.08362 131.14924,159.20362 131.49924,160.30612 132.28674,160.95362 133.07424,161.58362 134.43924,161.58362 134.99924,161.58362 135.41924,161.49612 135.83924,161.40862 136.17174,161.32112 V 157.61112 H 133.89674 V 156.21112 H 137.69424 V 162.33612 Q 137.04674,162.59862 136.18924,162.79112 135.34924,162.98362 134.36924,162.98362 Z"
         style="font-size:17.5px"
         id="path918" />
      <path
         d="M 140.14422,162.80862 V 150.31362 H 141.71922 V 155.58112 H 146.61922 V 150.31362 H 148.19422 V 162.80862 H 146.61922 V 156.98112 H 141.71922 V 162.80862 Z"
         style="font-size:17.5px"
         id="path920" />
      <path
         d="M 151.34419,162.80862 V 161.72362 L 153.86419,161.49612 V 151.62612 L 151.34419,151.39862 V 150.31362 H 157.99419 V 151.39862 L 155.43919,151.62612 V 161.49612 L 157.99419,161.72362 V 162.80862 Z"
         style="font-size:17.5px"
         id="path922" />
      <path
         d="M 164.32916,162.98362 Q 163.66416,162.98362 162.91166,162.84362 162.15916,162.70362 161.66916,162.47612 V 160.98862 Q 162.07166,161.16362 162.77166,161.35612 163.48916,161.53112 164.20666,161.53112 165.23916,161.53112 165.85166,160.91862 166.48166,160.28862 166.48166,158.80112 V 150.31362 H 168.05666 V 159.01112 Q 168.05666,160.91862 167.11166,161.95112 166.16666,162.98362 164.32916,162.98362 Z"
         style="font-size:17.5px"
         id="path924" />
      <path
         d="M 171.64414,162.80862 V 150.31362 H 173.21914 V 157.03362 Q 173.51664,156.56112 173.83164,156.08862 174.14664,155.59862 174.51414,155.09112 L 178.08414,150.31362 H 179.88664 L 175.70414,155.96612 180.04414,162.80862 H 178.24164 L 174.63664,157.03362 173.21914,158.66112 V 162.80862 Z"
         style="font-size:17.5px"
         id="path926" />
      <path
         d="M 182.93161,162.80862 V 150.31362 H 184.50661 V 161.35612 H 189.93161 V 162.80862 Z"
         style="font-size:17.5px"
         id="path928" />
      <path
         d="M 192.29408,162.80862 V 150.31362 H 194.55158 L 196.63408,157.64612 H 196.68658 L 198.76908,150.31362 H 201.04408 V 162.80862 H 199.55658 V 156.03612 Q 199.55658,155.00362 199.59158,153.91862 199.64408,152.81612 199.76658,151.88862 H 199.69658 L 197.38658,159.69362 H 195.93408 L 193.60658,151.87112 H 193.53658 Q 193.62408,152.37862 193.67658,153.11362 193.72908,153.83112 193.74658,154.60112 193.78158,155.37112 193.78158,156.03612 V 162.80862 Z"
         style="font-size:17.5px"
         id="path930" />
      <path
         d="M 203.14405,162.80862 V 150.31362 H 205.22655 L 209.77655,160.72612 H 209.82905 Q 209.74155,159.69362 209.70655,158.85362 209.67155,157.99612 209.67155,156.92862 V 150.31362 H 211.19405 V 162.80862 H 209.28655 L 204.50905,151.92362 H 204.43905 Q 204.50905,152.90362 204.57905,153.88362 204.66655,154.86362 204.66655,155.84362 V 162.80862 Z"
         style="font-size:17.5px"
         id="path932" />
      <path
         d="M 217.65154,162.98362 Q 216.09404,162.98362 215.11404,162.17862 214.13404,161.37362 213.66154,159.92112 213.20654,158.46862 213.20654,156.56112 213.20654,154.65362 213.66154,153.20112 214.13404,151.73112 215.11404,150.92612 216.11154,150.10362 217.66904,150.10362 219.22654,150.10362 220.20654,150.90862 221.20404,151.71362 221.65904,153.16612 222.13154,154.60112 222.13154,156.52612 222.13154,158.46862 221.65904,159.92112 221.18654,161.37362 220.18904,162.17862 219.20904,162.98362 217.65154,162.98362 Z M 217.68654,161.58362 Q 219.26154,161.58362 219.89154,160.25362 220.52154,158.90612 220.52154,156.54362 220.52154,154.16362 219.89154,152.83362 219.26154,151.50362 217.70404,151.50362 216.11154,151.50362 215.46404,152.85112 214.81654,154.19862 214.81654,156.54362 214.81654,158.90612 215.46404,160.25362 216.11154,161.58362 217.68654,161.58362 Z"
         style="font-size:17.5px"
         id="path934" />
      <path
         d="M 224.58151,162.80862 V 150.31362 H 228.15151 Q 230.39151,150.31362 231.42401,151.27612 232.45651,152.22112 232.45651,153.97112 232.45651,155.00362 232.01901,155.93112 231.59901,156.85862 230.60151,157.43612 229.62151,157.99612 227.92401,157.99612 H 226.15651 V 162.80862 Z M 226.15651,156.63112 H 227.74901 Q 229.28901,156.63112 230.05901,156.03612 230.84651,155.44112 230.84651,154.05862 230.84651,152.76362 230.14651,152.22112 229.46401,151.67862 228.01151,151.67862 H 226.15651 Z"
         style="font-size:17.5px"
         id="path936" />
      <path
         d="M 238.65148,162.98362 Q 237.09398,162.98362 236.11398,162.17862 235.13398,161.37362 234.66148,159.92112 234.20648,158.46862 234.20648,156.56112 234.20648,154.65362 234.66148,153.20112 235.13398,151.73112 236.11398,150.92612 237.11148,150.10362 238.66898,150.10362 240.22648,150.10362 241.20648,150.90862 242.20398,151.71362 242.65898,153.16612 243.13148,154.60112 243.13148,156.52612 243.13148,158.57362 242.60648,160.07862 242.08148,161.58362 240.97898,162.33612 L 242.88648,165.95862 H 241.13648 L 239.59648,162.89612 Q 239.15898,162.98362 238.65148,162.98362 Z M 238.68648,161.58362 Q 240.26148,161.58362 240.89148,160.25362 241.52148,158.90612 241.52148,156.54362 241.52148,154.16362 240.89148,152.83362 240.26148,151.50362 238.70398,151.50362 237.11148,151.50362 236.46398,152.85112 235.81648,154.19862 235.81648,156.54362 235.81648,158.90612 236.46398,160.25362 237.11148,161.58362 238.68648,161.58362 Z"
         style="font-size:17.5px"
         id="path938" />
      <path
         d="M 245.58145,162.80862 V 150.31362 H 248.50395 Q 252.89645,150.31362 252.89645,153.81362 252.89645,154.79362 252.58145,155.47612 252.26645,156.14112 251.72395,156.57862 251.19895,156.99862 250.53395,157.24362 L 253.87645,162.80862 H 252.12645 L 249.11645,157.69862 H 247.15645 V 162.80862 Z M 247.15645,156.33362 H 248.45145 Q 249.99145,156.33362 250.62145,155.73862 251.26895,155.12612 251.26895,153.95362 251.26895,152.72862 250.58645,152.20362 249.90395,151.67862 248.41645,151.67862 H 247.15645 Z"
         style="font-size:17.5px"
         id="path940" />
      <path
         d="M 259.33641,162.98362 Q 258.33891,162.98362 257.39391,162.80862 256.44891,162.61612 255.90641,162.33612 V 160.88362 Q 256.55391,161.16362 257.48141,161.40862 258.40891,161.63612 259.37141,161.63612 262.06641,161.63612 262.06641,159.44862 262.06641,158.85362 261.82141,158.50362 261.57641,158.15362 260.94641,157.83862 260.33391,157.50612 259.21391,157.01612 258.47891,156.68362 257.77891,156.28112 257.07891,155.87862 256.62391,155.21362 256.18641,154.54862 256.18641,153.46362 256.18641,151.85362 257.23641,150.99612 258.30391,150.13862 260.17641,150.13862 261.12141,150.13862 261.96141,150.34862 262.80141,150.54112 263.43141,150.83862 L 262.92391,152.15112 Q 262.32891,151.87112 261.59391,151.71362 260.85891,151.53862 260.14141,151.53862 259.10891,151.53862 258.44391,151.97612 257.79641,152.41362 257.79641,153.49862 257.79641,154.12862 258.04141,154.51362 258.30391,154.88112 258.86391,155.17862 259.42391,155.45862 260.29891,155.84362 261.29641,156.26362 262.04891,156.70112 262.81891,157.12112 263.23891,157.76862 263.67641,158.39862 263.67641,159.46612 263.67641,161.12862 262.57391,162.05612 261.48891,162.98362 259.33641,162.98362 Z"
         style="font-size:17.5px"
         id="path942" />
      <path
         d="M 269.3814,162.80862 V 151.71362 H 265.7064 V 150.31362 H 274.6314 V 151.71362 H 270.9564 V 162.80862 Z"
         style="font-size:17.5px"
         id="path944" />
      <path
         d="M 280.63387,162.98362 Q 279.19887,162.98362 278.30637,162.42362 277.43137,161.84612 277.02887,160.81362 276.64387,159.76362 276.64387,158.36362 V 150.31362 H 278.21887 V 158.27612 Q 278.21887,159.27362 278.42887,160.02612 278.65637,160.76112 279.18137,161.18112 279.72387,161.58362 280.66887,161.58362 281.66637,161.58362 282.19137,161.14612 282.73387,160.70862 282.92637,159.95612 283.11887,159.20362 283.11887,158.25862 V 150.31362 H 284.69387 V 158.39862 Q 284.69387,159.69362 284.30887,160.74362 283.92387,161.77612 283.03137,162.38862 282.13887,162.98362 280.63387,162.98362 Z"
         style="font-size:17.5px"
         id="path946" />
      <path
         d="M 290.38134,162.80862 286.35634,150.31362 H 288.00134 L 290.43384,158.43362 Q 290.67884,159.20362 290.85384,159.93862 291.04634,160.65612 291.18634,161.28612 H 291.23884 Q 291.37884,160.67362 291.55384,159.93862 291.72884,159.18612 291.97384,158.38112 L 294.31884,150.31362 H 295.98134 L 292.02634,162.80862 Z"
         style="font-size:17.5px"
         id="path948" />
      <path
         d="M 298.25632,162.80862 296.85632,150.31362 H 298.30882 Q 298.44882,151.69612 298.57132,153.07862 298.69382,154.44362 298.83382,155.82612 298.90382,156.49112 298.95632,157.27862 299.02632,158.06612 299.07882,158.81862 299.13132,159.57112 299.16632,160.18362 299.20132,160.77862 299.20132,161.09362 H 299.23632 Q 299.30632,160.69112 299.42882,160.06112 299.56882,159.41362 299.70882,158.73112 299.86632,158.03112 299.98882,157.48862 L 300.93382,153.42862 H 302.43882 L 303.41882,157.52362 Q 303.55882,158.11862 303.71632,158.80112 303.87382,159.48362 303.99632,160.09612 304.11882,160.69112 304.18882,161.09362 H 304.22382 Q 304.24132,160.67362 304.27632,159.85112 304.32882,159.02862 304.39882,157.96112 304.46882,156.89362 304.55632,155.77362 304.67882,154.40862 304.78382,153.04362 304.90632,151.67862 305.02882,150.31362 H 306.48132 L 305.22132,162.80862 H 303.52382 L 302.14132,157.06862 Q 301.94882,156.28112 301.84382,155.72112 301.73882,155.14362 301.70382,154.93362 H 301.66882 Q 301.63382,155.14362 301.54632,155.70362 301.45882,156.26362 301.26632,157.06862 L 299.93632,162.80862 Z"
         style="font-size:17.5px"
         id="path950" />
      <path
         d="M 307.53129,162.80862 311.43379,156.35112 307.79379,150.31362 H 309.49129 L 312.16879,155.09112 314.88129,150.31362 H 316.54379 L 312.92129,156.36862 316.80629,162.80862 H 315.17879 L 312.18629,157.62862 309.21129,162.80862 Z"
         style="font-size:17.5px"
         id="path952" />
      <path
         d="M 321.91626,162.80862 V 157.94362 L 318.03126,150.31362 H 319.76376 L 322.68626,156.63112 325.62626,150.31362 H 327.30626 L 323.42126,157.94362 V 162.80862 Z"
         style="font-size:17.5px"
         id="path954" />
      <path
         d="M 329.58123,162.80862 V 161.56612 L 335.12873,151.67862 H 329.93123 V 150.31362 H 336.75623 V 151.55612 L 331.27873,161.40862 H 336.75623 V 162.80862 Z"
         style="font-size:17.5px"
         id="path956" />
      <path
         d="M 70.686903,184.85862 Q 69.461903,184.85862 68.481903,184.33362 67.519403,183.79112 66.941903,182.70612 66.381903,181.60362 66.381903,179.95862 66.381903,178.33112 66.924403,177.26362 67.484403,176.19612 68.446903,175.67112 69.409403,175.12862 70.634403,175.12862 71.859403,175.12862 72.839403,175.67112 73.819403,176.19612 74.379403,177.28112 74.956903,178.34862 74.956903,180.01112 74.956903,181.63862 74.396903,182.72362 73.836903,183.79112 72.874403,184.33362 71.911903,184.85862 70.686903,184.85862 Z M 70.669403,183.58112 Q 72.034403,183.58112 72.699403,182.61862 73.364403,181.63862 73.364403,179.97612 73.364403,178.31362 72.681903,177.36862 72.016903,176.40612 70.651903,176.40612 69.286903,176.40612 68.604403,177.36862 67.939403,178.31362 67.939403,179.97612 67.939403,181.63862 68.621903,182.61862 69.304403,183.58112 70.669403,183.58112 Z"
         style="font-size:17.5px"
         id="path958" />
      <path
         d="M 81.151876,184.85862 Q 79.594376,184.85862 78.614376,184.05362 77.634376,183.24862 77.161876,181.79612 76.706876,180.34362 76.706876,178.43612 76.706876,176.52862 77.161876,175.07612 77.634376,173.60612 78.614376,172.80112 79.611876,171.97862 81.169376,171.97862 82.726876,171.97862 83.706876,172.78362 84.704376,173.58862 85.159376,175.04112 85.631876,176.47612 85.631876,178.40112 85.631876,180.34362 85.159376,181.79612 84.686876,183.24862 83.689376,184.05362 82.709376,184.85862 81.151876,184.85862 Z M 81.186876,183.45862 Q 82.761876,183.45862 83.391876,182.12862 84.021876,180.78112 84.021876,178.41862 84.021876,176.03862 83.391876,174.70862 82.761876,173.37862 81.204376,173.37862 79.611876,173.37862 78.964376,174.72612 78.316876,176.07362 78.316876,178.41862 78.316876,180.78112 78.964376,182.12862 79.611876,183.45862 81.186876,183.45862 Z"
         style="font-size:17.5px"
         id="path960" />
      <path
         d="M 91.65185,184.85862 Q 89.46435,184.85862 88.46685,183.16112 87.46935,181.44612 87.46935,178.41862 87.46935,176.38862 87.88935,174.97112 88.30935,173.53612 89.21935,172.78362 90.14685,172.01362 91.65185,172.01362 93.85685,172.01362 94.85435,173.69362 95.86935,175.37362 95.86935,178.41862 95.86935,180.44862 95.44935,181.88362 95.02935,183.31862 94.10185,184.08862 93.17435,184.85862 91.65185,184.85862 Z M 88.93935,178.41862 Q 88.93935,179.18862 88.99185,179.87112 89.06185,180.53612 89.18435,181.07862 L 93.33185,174.06112 Q 92.68435,173.39612 91.65185,173.39612 90.23435,173.39612 89.58685,174.63862 88.93935,175.86362 88.93935,178.41862 Z M 91.65185,183.47612 Q 93.08685,183.47612 93.76935,182.25112 94.45185,181.00862 94.45185,178.41862 94.45185,176.59862 94.10185,175.44362 L 89.84935,182.61862 Q 90.49685,183.47612 91.65185,183.47612 Z"
         style="font-size:17.5px"
         id="path962" />
      <path
         d="M 102.08182,184.85862 Q 100.27932,184.85862 99.194323,183.98362 98.109323,183.09112 98.109323,181.55112 98.109323,180.65862 98.459323,180.02862 98.809323,179.38112 99.386823,178.92612 99.964323,178.45362 100.66432,178.13862 99.806823,177.64862 99.159323,176.87862 98.511823,176.10862 98.511823,174.98862 98.511823,174.00862 99.019323,173.34362 99.526823,172.67862 100.36682,172.34612 101.20682,172.01362 102.18682,172.01362 103.16682,172.01362 103.98932,172.34612 104.81182,172.67862 105.30182,173.34362 105.80932,174.00862 105.80932,174.98862 105.80932,176.14362 105.12682,176.87862 104.46182,177.59612 103.44682,178.06862 104.21682,178.45362 104.84682,178.94362 105.47682,179.41612 105.84432,180.04612 106.21182,180.67612 106.21182,181.53362 106.21182,182.51362 105.70432,183.26612 105.19682,184.00112 104.26932,184.43862 103.35932,184.85862 102.08182,184.85862 Z M 102.18682,177.43862 Q 103.06182,177.05362 103.67432,176.52862 104.28682,175.98612 104.28682,175.07612 104.28682,174.21862 103.70932,173.78112 103.13182,173.32612 102.15182,173.32612 101.18932,173.32612 100.61182,173.78112 100.03432,174.21862 100.03432,175.07612 100.03432,175.72362 100.34932,176.16112 100.66432,176.59862 101.15432,176.89612 101.64432,177.19362 102.18682,177.43862 Z M 102.13432,183.58112 Q 103.37682,183.58112 104.02432,182.98612 104.68932,182.37362 104.68932,181.44612 104.68932,180.51862 104.00682,179.95862 103.32432,179.39862 101.94182,178.73362 100.87432,179.20612 100.26182,179.87112 99.649323,180.53612 99.649323,181.53362 99.649323,182.42612 100.24432,183.00362 100.83932,183.58112 102.13432,183.58112 Z"
         style="font-size:17.5px"
         id="path964" />
      <path
         d="M 123.29177,173.60612 Q 122.83677,173.60612 122.50427,173.34362 122.18927,173.06362 122.18927,172.50362 122.18927,171.92612 122.50427,171.66362 122.83677,171.38362 123.29177,171.38362 123.72927,171.38362 124.06177,171.66362 124.39427,171.92612 124.39427,172.50362 124.39427,173.06362 124.06177,173.34362 123.72927,173.60612 123.29177,173.60612 Z M 119.31927,184.68362 V 183.63362 L 122.66177,183.37112 V 176.61612 L 119.59927,176.38862 V 175.30362 H 124.23677 V 183.37112 L 127.36927,183.63362 V 184.68362 Z"
         style="font-size:17.5px"
         id="path966" />
      <path
         d="M 130.34424,184.68362 V 183.59862 L 132.86424,183.37112 V 173.50112 L 130.34424,173.27362 V 172.18862 H 136.99424 V 173.27362 L 134.43924,173.50112 V 183.37112 L 136.99424,183.59862 V 184.68362 Z"
         style="font-size:17.5px"
         id="path968" />
      <path
         d="M 140.31922,184.68362 V 183.63362 L 143.74922,183.37112 V 172.69612 L 140.42422,172.46862 V 171.38362 H 145.32422 V 183.37112 L 148.36922,183.63362 V 184.68362 Z"
         style="font-size:17.5px"
         id="path970" />
      <path
         d="M 151.43169,184.68362 V 172.18862 H 153.00669 V 183.23112 H 158.43169 V 184.68362 Z"
         style="font-size:17.5px"
         id="path972" />
      <path
         d="M 162.24666,184.68362 V 183.63362 L 164.87166,183.45862 V 176.87862 Q 164.87166,176.14362 164.88916,175.26862 164.92416,174.37612 164.94166,173.79862 164.64416,173.95612 164.41666,174.06112 164.18916,174.16612 163.75166,174.39362 L 162.29916,175.14612 161.61666,173.95612 165.09916,172.18862 H 166.37666 V 183.45862 L 169.01916,183.63362 V 184.68362 Z"
         style="font-size:17.5px"
         id="path974" />
      <path
         d="M 188.96911,187.44862 Q 187.35911,187.43112 186.43161,186.74862 185.50411,186.06612 185.50411,184.66612 V 182.09362 Q 185.50411,181.20112 184.94411,180.83362 184.40161,180.44862 183.36911,180.44862 V 179.17112 Q 184.40161,179.15362 184.94411,178.78612 185.50411,178.41862 185.50411,177.54362 V 174.95362 Q 185.50411,173.55362 186.46661,172.87112 187.42911,172.18862 188.96911,172.18862 V 173.44862 Q 188.05911,173.48362 187.53411,173.86862 187.02661,174.23612 187.02661,175.09362 V 177.61362 Q 187.02661,179.41612 185.11911,179.74862 V 179.85362 Q 187.02661,180.18612 187.02661,181.98862 V 184.56112 Q 187.02661,185.41862 187.53411,185.78612 188.04161,186.17112 188.96911,186.18862 Z"
         style="font-size:17.5px"
         id="path976" />
      <path
         d="M 193.86908,172.18862 Q 195.47908,172.20612 196.40658,172.88862 197.33408,173.57112 197.33408,174.97112 V 177.54362 Q 197.33408,178.43612 197.87658,178.82112 198.43658,179.18862 199.46908,179.18862 V 180.46612 Q 198.43658,180.48362 197.87658,180.85112 197.33408,181.21862 197.33408,182.09362 V 184.68362 Q 197.33408,186.08362 196.37158,186.76612 195.40908,187.44862 193.86908,187.44862 V 186.18862 Q 194.77908,186.15362 195.28658,185.76862 195.81158,185.40112 195.81158,184.54362 V 182.02362 Q 195.81158,180.22112 197.71908,179.88862 V 179.78362 Q 195.81158,179.45112 195.81158,177.64862 V 175.07612 Q 195.81158,174.21862 195.30408,173.85112 194.79658,173.46612 193.86908,173.44862 Z"
         style="font-size:17.5px"
         id="path978" />
      <path
         d="M 216.61904,187.43112 V 172.18862 H 220.55654 V 173.43112 H 218.12404 V 186.17112 H 220.55654 V 187.43112 Z"
         style="font-size:17.5px"
         id="path980" />
      <path
         d="M 229.21901,172.18862 V 187.43112 H 225.28151 V 186.18862 H 227.71401 V 173.44862 H 225.28151 V 172.18862 Z"
         style="font-size:17.5px"
         id="path982" />
      <path
         d="M 248.74895,188.97112 Q 247.76895,188.97112 246.92895,188.77862 246.08895,188.60362 245.37145,188.30612 V 186.90612 Q 246.07145,187.30862 246.98145,187.50112 247.90895,187.71112 248.69645,187.71112 250.28895,187.71112 250.91895,186.95862 251.54895,186.22362 251.54895,184.92862 V 184.59612 Q 251.54895,184.38612 251.54895,184.19362 251.56645,184.00112 251.60145,183.59862 H 251.53145 Q 251.04145,184.31612 250.37645,184.59612 249.72895,184.85862 248.80145,184.85862 246.92895,184.85862 245.89645,183.59862 244.88145,182.32112 244.88145,180.04612 244.88145,177.75362 245.89645,176.44112 246.92895,175.12862 248.71395,175.12862 249.65895,175.12862 250.30645,175.44362 250.95395,175.74112 251.46145,176.45862 H 251.54895 L 251.75895,175.30362 H 253.01895 V 184.92862 Q 253.01895,186.94112 251.98645,187.95612 250.95395,188.97112 248.74895,188.97112 Z M 249.09895,183.58112 Q 250.27145,183.58112 250.93645,182.82862 251.60145,182.05862 251.60145,180.37862 V 180.01112 Q 251.60145,178.10362 250.90145,177.26362 250.21895,176.40612 249.04645,176.40612 247.71645,176.40612 247.10395,177.35112 246.49145,178.27862 246.49145,179.99362 246.49145,181.74362 247.12145,182.67112 247.76895,183.58112 249.09895,183.58112 Z"
         style="font-size:17.5px"
         id="path984" />
      <path
         d="M 258.21641,184.85862 Q 257.81391,184.85862 257.39391,184.82362 256.97391,184.78862 256.67641,184.70112 V 183.31862 Q 257.28891,183.52862 258.14641,183.52862 259.33641,183.52862 260.12391,183.14362 260.91141,182.74112 261.36641,182.05862 261.83891,181.35862 262.04891,180.46612 262.27641,179.57362 262.31141,178.55862 H 262.20641 Q 261.85641,179.22362 261.10391,179.66112 260.36891,180.09862 259.28391,180.09862 257.53391,180.09862 256.50141,179.08362 255.46891,178.05112 255.46891,176.14362 255.46891,174.23612 256.57141,173.13362 257.67391,172.01362 259.56391,172.01362 260.85891,172.01362 261.82141,172.62612 262.78391,173.22112 263.32641,174.51612 263.86891,175.79362 263.86891,177.84112 263.86891,178.78612 263.72891,179.78362 263.58891,180.76362 263.22141,181.67362 262.87141,182.58362 262.22391,183.30112 261.59391,184.01862 260.59641,184.43862 259.61641,184.85862 258.21641,184.85862 Z M 259.44141,178.87362 Q 260.26391,178.87362 260.91141,178.55862 261.55891,178.22612 261.92641,177.66612 262.31141,177.08862 262.31141,176.33612 262.31141,175.89862 262.13641,175.37362 261.97891,174.84862 261.64641,174.39362 261.31391,173.92112 260.78891,173.62362 260.26391,173.32612 259.54641,173.32612 258.37391,173.32612 257.67391,174.02612 256.97391,174.72612 256.97391,176.16112 256.97391,177.57862 257.62141,178.22612 258.28641,178.87362 259.44141,178.87362 Z"
         style="font-size:17.5px"
         id="path986" />
      <path
         d="M 272.4614,188.88362 V 184.87612 Q 272.4614,184.54362 272.4789,184.17612 272.4964,183.79112 272.5139,183.42362 H 272.4614 Q 272.0764,184.01862 271.4114,184.43862 270.7639,184.85862 269.7139,184.85862 268.0164,184.85862 266.9489,183.63362 265.8814,182.40862 265.8814,180.01112 265.8814,178.41862 266.3714,177.33362 266.8789,176.23112 267.7364,175.68862 268.6114,175.12862 269.7314,175.12862 270.7639,175.12862 271.4114,175.54862 272.0589,175.96862 272.4614,176.56362 H 272.5314 L 272.7589,175.30362 H 274.0189 V 188.88362 Z M 269.9939,183.58112 Q 272.4614,183.58112 272.4614,180.36112 V 180.01112 Q 272.4614,178.31362 271.9014,177.36862 271.3589,176.40612 269.9589,176.40612 268.6639,176.40612 268.0689,177.33362 267.4914,178.26112 267.4914,180.02862 267.4914,181.63862 268.0864,182.61862 268.6989,183.58112 269.9939,183.58112 Z"
         style="font-size:17.5px"
         id="path988" />
      <path
         d="M 281.80637,184.85862 Q 279.96887,184.85862 278.81387,184.03612 277.65887,183.21362 277.11637,181.77862 276.57387,180.32612 276.57387,178.43612 276.57387,176.45862 277.18637,175.02362 277.81637,173.57112 278.98887,172.80112 280.17887,172.01362 281.87637,172.01362 282.78637,172.01362 283.57387,172.20612 284.37887,172.39862 285.04387,172.74862 L 284.44887,174.02612 Q 283.90637,173.72862 283.20637,173.57112 282.52387,173.41362 281.87637,173.41362 280.09137,173.41362 279.12887,174.70862 278.18387,176.00362 278.18387,178.43612 278.18387,180.76362 279.04137,182.09362 279.89887,183.40612 281.84137,183.40612 282.43637,183.40612 283.11887,183.28362 283.81887,183.14362 284.50137,182.86362 V 184.35112 Q 283.78387,184.61362 283.15387,184.73612 282.52387,184.85862 281.80637,184.85862 Z"
         style="font-size:17.5px"
         id="path990" />
      <path
         d="M 291.86884,184.85862 Q 289.31384,184.85862 288.00134,183.26612 286.70634,181.67362 286.70634,178.62862 286.70634,175.49612 288.07134,173.76362 289.43634,172.01362 292.07884,172.01362 292.97134,172.01362 293.68884,172.20612 294.40634,172.39862 295.05384,172.74862 L 294.49384,174.06112 Q 294.03884,173.78112 293.44384,173.60612 292.86634,173.43112 292.11384,173.43112 290.20634,173.43112 289.26134,174.77862 288.31634,176.10862 288.31634,178.55862 288.31634,179.95862 288.64884,181.07862 288.99884,182.18112 289.78634,182.82862 290.57384,183.45862 291.93884,183.45862 292.49884,183.45862 292.91884,183.37112 293.33884,183.28362 293.67134,183.19612 V 179.48612 H 291.39634 V 178.08612 H 295.19384 V 184.21112 Q 294.54634,184.47362 293.68884,184.66612 292.84884,184.85862 291.86884,184.85862 Z"
         style="font-size:17.5px"
         id="path992" />
      <path
         d="M 301.65132,184.85862 Q 300.09382,184.85862 299.11382,184.05362 298.13382,183.24862 297.66132,181.79612 297.20632,180.34362 297.20632,178.43612 297.20632,176.52862 297.66132,175.07612 298.13382,173.60612 299.11382,172.80112 300.11132,171.97862 301.66882,171.97862 303.22632,171.97862 304.20632,172.78362 305.20382,173.58862 305.65882,175.04112 306.13132,176.47612 306.13132,178.40112 306.13132,180.44862 305.60632,181.95362 305.08132,183.45862 303.97882,184.21112 L 305.88632,187.83362 H 304.13632 L 302.59632,184.77112 Q 302.15882,184.85862 301.65132,184.85862 Z M 301.68632,183.45862 Q 303.26132,183.45862 303.89132,182.12862 304.52132,180.78112 304.52132,178.41862 304.52132,176.03862 303.89132,174.70862 303.26132,173.37862 301.70382,173.37862 300.11132,173.37862 299.46382,174.72612 298.81632,176.07362 298.81632,178.41862 298.81632,180.78112 299.46382,182.12862 300.11132,183.45862 301.68632,183.45862 Z"
         style="font-size:17.5px"
         id="path994" />
      <path
         d="M 318.90626,179.66112 V 178.29612 Q 319.74626,177.36862 321.00626,177.36862 321.44376,177.36862 321.84626,177.49112 322.26626,177.61362 322.94876,177.92862 323.45626,178.17362 323.77126,178.29612 324.10376,178.40112 324.41876,178.40112 324.92626,178.40112 325.46876,178.10362 326.01126,177.80612 326.43126,177.36862 V 178.71612 Q 325.57376,179.66112 324.33126,179.66112 323.89376,179.66112 323.47376,179.53862 323.05376,179.39862 322.37126,179.10112 321.86376,178.87362 321.53126,178.75112 321.21626,178.62862 320.90126,178.62862 320.41126,178.62862 319.86876,178.92612 319.32626,179.22362 318.90626,179.66112 Z"
         style="font-size:17.5px"
         id="path996" />
      <path
         d="M 330.54373,180.65862 V 179.25862 H 335.79373 V 180.65862 Z"
         style="font-size:17.5px"
         id="path998" />
      <path
         d="M 343.0562,182.56612 V 179.13612 H 339.8187 V 177.89362 H 343.0562 V 174.44612 H 344.3162 V 177.89362 H 347.5187 V 179.13612 H 344.3162 V 182.56612 Z"
         style="font-size:17.5px"
         id="path1000" />
      <path
         d="M 350.14367,177.56112 V 176.16112 H 358.19367 V 177.56112 Z M 350.14367,180.88612 V 179.48612 H 358.19367 V 180.88612 Z"
         style="font-size:17.5px"
         id="path1002" />
      <path
         d="M 360.99367,182.65362 V 181.28862 L 366.69867,178.54112 360.99367,175.40862 V 174.04362 L 368.34367,178.15612 V 179.03112 Z"
         style="font-size:17.5px"
         id="path1004" />
    </g>
  </g>
</svg>
