<?xml version="1.0" encoding="UTF-8" standalone="no"?>
<svg
   xmlns:dc="http://purl.org/dc/elements/1.1/"
   xmlns:cc="http://creativecommons.org/ns#"
   xmlns:rdf="http://www.w3.org/1999/02/22-rdf-syntax-ns#"
   xmlns:svg="http://www.w3.org/2000/svg"
   xmlns="http://www.w3.org/2000/svg"
   xmlns:sodipodi="http://sodipodi.sourceforge.net/DTD/sodipodi-0.dtd"
   xmlns:inkscape="http://www.inkscape.org/namespaces/inkscape"
   width="96.303032mm"
   height="30.828552mm"
   viewBox="0 0 341.23099 109.23501"
   id="svg2"
   version="1.1"
   inkscape:version="0.91 r13725"
   sodipodi:docname="OpenDyslexic Nerd Font.svg">
  <metadata
     id="metadata22">
    <rdf:RDF>
      <cc:Work
         rdf:about="">
        <dc:format>image/svg+xml</dc:format>
        <dc:type
           rdf:resource="http://purl.org/dc/dcmitype/StillImage" />
      </cc:Work>
    </rdf:RDF>
  </metadata>
  <defs
     id="defs20" />
  <sodipodi:namedview
     pagecolor="#ffffff"
     bordercolor="#666666"
     borderopacity="1"
     objecttolerance="10"
     gridtolerance="10"
     guidetolerance="10"
     inkscape:pageopacity="0"
     inkscape:pageshadow="2"
     inkscape:window-width="640"
     inkscape:window-height="480"
     id="namedview18"
     showgrid="false"
     inkscape:zoom="0.22425739"
     inkscape:cx="307.18256"
     inkscape:cy="-336.91207"
     inkscape:window-x="59"
     inkscape:window-y="24"
     inkscape:window-maximized="0"
     inkscape:current-layer="svg2" />
  <g
     font-weight="400"
     font-size="27.5"
     letter-spacing="0"
     word-spacing="0"
     id="g4"
     style="font-weight:400;font-size:27.5px;font-family:'OpenDyslexic Nerd Font';letter-spacing:0;word-spacing:0;fill:#ffffff"
     transform="translate(-64.864681,-80.033998)">
    <g
       style="line-height:125%;text-decoration: underline;text-decoration-line: underline"
       id="text6">
      <path
         d="m 74.159498,80.528998 c 5.6375,0 9.2675,4.07 9.2675,10.395 0,6.325 -3.63,10.395002 -9.2675,10.395002 -5.6375,0 -9.295,-4.042502 -9.295,-10.395002 0,-6.325 3.6575,-10.395 9.295,-10.395 z m 0,2.2 c -3.9325,0 -6.435,3.135 -6.435,8.195 0,4.1525 2.5025,5.2525 6.435,5.2525 3.9325,0 6.4075,-1.1 6.4075,-5.2525 0,-5.06 -2.475,-8.195 -6.4075,-8.195 z"
         id="path4151"
         inkscape:connector-curvature="0" />
      <path
         d="m 90.585592,106.654 -3.1625,0 1.21,-9.212502 0,-11.33 2.475,0 -0.4125,2.0625 c 1.0175,-1.7875 2.6125,-2.64 4.8125,-2.64 3.6575,0 6.159998,3.1625 6.159998,7.8925 0,4.73 -2.502498,7.892502 -6.159998,7.892502 -2.2,0 -3.795,-0.8525 -4.8125,-2.640002 l -0.11,7.975002 z m 9.487498,-13.667502 c 0,-3.63 -1.567498,-5.8025 -4.207498,-5.8025 -2.6125,0 -4.18,2.1725 -4.18,5.8025 0,3.6575 1.705,4.2625 4.3175,4.2625 2.6125,0 4.069998,-0.605 4.069998,-4.2625 z"
         id="path4153"
         inkscape:connector-curvature="0" />
      <path
         d="m 118.84528,92.793998 -11.22,0 c 0.055,4.015 2.035,4.7025 5.3075,4.8675 1.8975,0 3.685,0.0275 5.445,-0.9075 l 0.055,3.410002 c -1.7875,0.77 -3.6575,1.155 -5.5825,1.155 -4.785,-0.165 -7.81,-2.997502 -7.81,-7.755002 0.1925,-4.9225 2.86,-8.03 7.3975,-8.03 4.015,0.165 6.0775,2.035 6.4075,6.325 l 0,0.935 z m -2.145,-2.1725 c -0.275,-1.6775 -1.815,-3.795 -4.2625,-3.795 -2.75,0 -4.5375,2.0075 -4.5375,3.8225 l 8.8,-0.0275 z"
         id="path4155"
         inkscape:connector-curvature="0" />
      <path
         d="m 135.3818,100.934 -3.52,0 0.5225,-9.130002 c 0,-2.86 -0.8525,-4.2625 -3.0525,-4.2625 -3.025,0 -4.455,1.815 -4.455,4.7575 l 0.4125,8.635002 -3.4375,0 0.4125,-15.180002 2.475,0 0,1.815 c 1.1825,-0.935 2.7775,-2.035 4.8675,-2.035 3.4375,0 5.1975,2.1725 5.39,6.325 l 0.385,9.075002 z"
         id="path4157"
         inkscape:connector-curvature="0" />
      <path
         d="m 138.82446,100.934 0,-20.047502 5.5825,0 c 7.7825,0 11.275,3.135 11.275,10.01 0,6.9025 -3.5475,10.037502 -11.275,10.037502 l -5.5825,0 z m 2.86,-17.820002 0,12.76 3.2725,0 c 5.5275,0 7.535,-1.155 7.9475,-5.2525 0,-5.005 -2.42,-7.5075 -7.9475,-7.5075 l -3.2725,0 z"
         id="path4159"
         inkscape:connector-curvature="0" />
      <path
         d="m 169.90934,85.891498 2.6125,0 -6.325,16.445002 c -1.76,3.9325 -3.025,4.5925 -5.225,4.5925 l -2.255,0 0,-3.2725 1.7325,0 c 1.3475,0 1.8975,-0.6875 2.8325,-1.8425 l 1.045,-2.117502 -6.435,-13.805 2.6125,0 5.335,8.745 4.07,-8.745 z"
         id="path4161"
         inkscape:connector-curvature="0" />
      <path
         d="m 185.93798,88.393998 c -1.4025,-0.6875 -2.915,-1.0725 -4.51,-1.0725 -2.475,0 -3.8225,0.9075 -3.8225,2.3925 0,1.3475 0.7975,1.98 3.4375,2.5575 l 0.8525,0.1925 c 3.4925,0.7425 4.84,1.87 4.84,4.3175 0,2.805 -2.3375,4.537502 -6.215,4.537502 -1.595,0 -3.3275,-0.3025 -5.28,-0.935 l 0,-3.630002 c 1.8425,0.9625 3.6025,1.43 5.335,1.43 2.3375,0 3.355,-0.715 3.355,-2.0075 -0.3025,-0.55 -0.55,-0.935 -0.77,-1.1825 -0.1925,-0.2475 -1.0725,-0.5225 -2.6125,-0.88 l -0.8525,-0.1925 c -3.0525,-0.6325 -4.345,-1.6225 -4.345,-3.96 0,-2.8325 2.09,-4.4275 5.775,-4.4275 1.8425,0 3.465,0.275 4.8125,0.7975 l 0,2.0625 z"
         id="path4163"
         inkscape:connector-curvature="0" />
      <path
         d="m 196.15294,100.934 -5.39,0 c 0.11,-6.957502 0.3025,-12.705002 0.6875,-19.690002 l 2.3375,0 c -0.33,5.94 -0.495,10.67 -0.55,16.6375 l 2.915,0 0,3.052502 z"
         id="path4165"
         inkscape:connector-curvature="0" />
      <path
         d="m 213.96735,92.793998 -11.22,0 c 0.055,4.015 2.035,4.7025 5.3075,4.8675 1.8975,0 3.685,0.0275 5.445,-0.9075 l 0.055,3.410002 c -1.7875,0.77 -3.6575,1.155 -5.5825,1.155 -4.785,-0.165 -7.81,-2.997502 -7.81,-7.755002 0.1925,-4.9225 2.86,-8.03 7.3975,-8.03 4.015,0.165 6.0775,2.035 6.4075,6.325 l 0,0.935 z m -2.145,-2.1725 c -0.275,-1.6775 -1.815,-3.795 -4.2625,-3.795 -2.75,0 -4.5375,2.0075 -4.5375,3.8225 l 8.8,-0.0275 z"
         id="path4167"
         inkscape:connector-curvature="0" />
      <path
         d="m 224.18661,92.051498 4.5375,-6.16 2.5025,0 -5.3075,8.0025 5.8575,7.040002 -3.9875,0 -3.4375,-5.225002 -3.7125,5.225002 -3.9875,0 5.995,-7.205002 -5.225,-7.8375 2.64,0 4.125,6.16 z"
         id="path4169"
         inkscape:connector-curvature="0" />
      <path
         d="m 238.5227,83.168998 -2.475,0 0.1375,-3.135 2.2,0 0.1375,3.135 z m -2.75,17.765002 c 0.3575,-5.280002 0.44,-10.312502 0.4125,-15.042502 l 2.2,0 c -0.165,4.51 -0.0275,9.57 0.55,15.042502 l -3.1625,0 z"
         id="path4171"
         inkscape:connector-curvature="0" />
      <path
         d="m 254.87747,88.641498 c -1.4025,-0.77 -2.805,-1.155 -4.235,-1.155 -3.2175,0 -4.9225,2.2825 -4.9225,5.94 0.2475,2.585 1.595,3.465 4.8125,3.63 1.43,0 2.8875,0.1925 4.29,-0.5775 l 0.055,3.877502 c -1.375,0.6325 -2.8325,0.9625 -4.51,0.9625 -4.51,0 -7.3975,-3.052502 -7.3975,-7.892502 0,-4.895 2.8875,-7.8925 7.5625,-7.8925 1.5125,0 2.9975,0.3025 4.345,0.935 l 0,2.1725 z"
         id="path4173"
         inkscape:connector-curvature="0" />
      <path
         d="m 273.04809,100.934 -3.4375,0 0.55,-19.635002 3.3825,0 8.6075,15.8125 0.4125,-16.225 2.5025,0 0,20.047502 -3.9325,0 -8.8825,-16.775002 0.7975,16.775002 z"
         id="path4175"
         inkscape:connector-curvature="0" />
      <path
         d="m 302.91266,92.793998 -11.22,0 c 0.055,4.015 2.035,4.7025 5.3075,4.8675 1.8975,0 3.685,0.0275 5.445,-0.9075 l 0.055,3.410002 c -1.7875,0.77 -3.6575,1.155 -5.5825,1.155 -4.785,-0.165 -7.81,-2.997502 -7.81,-7.755002 0.1925,-4.9225 2.86,-8.03 7.3975,-8.03 4.015,0.165 6.0775,2.035 6.4075,6.325 l 0,0.935 z m -2.145,-2.1725 c -0.275,-1.6775 -1.815,-3.795 -4.2625,-3.795 -2.75,0 -4.5375,2.0075 -4.5375,3.8225 l 8.8,-0.0275 z"
         id="path4177"
         inkscape:connector-curvature="0" />
      <path
         d="m 316.06969,88.476498 c -0.55,-0.33 -1.0725,-0.33 -1.87,-0.33 -2.7775,0 -3.9325,2.035 -3.9325,5.28 l 0.55,7.507502 -3.8775,0 c 1.1275,-6.215002 1.265,-8.470002 1.045,-14.905002 l 2.2825,0 0,1.54 c 0.495,-0.385 2.2825,-1.76 4.675,-1.76 0.33,0 0.605,0.0275 1.1,0.1375 l 0.0275,2.53 z"
         id="path4179"
         inkscape:connector-curvature="0" />
      <path
         d="m 329.35907,80.033998 2.475,0 -0.275,20.900002 -2.475,0 0,-2.255002 c -1.0175,1.787502 -2.6125,2.640002 -4.8125,2.640002 -3.63,0 -6.16,-3.162502 -6.16,-7.892502 0,-4.73 2.53,-7.8925 6.16,-7.8925 2.2,0 3.795,0.8525 4.8125,2.64 l 0.275,-8.14 z m -9.46,13.1175 c 0.4125,2.6125 1.5125,3.685 4.125,3.685 2.6125,0 3.8775,-0.55 3.96,-3.8775 -0.0825,-3.63 -1.265,-5.6375 -3.8775,-5.6375 -2.64,0 -4.2075,2.2 -4.2075,5.83 z"
         id="path4181"
         inkscape:connector-curvature="0" />
      <path
         d="m 349.96087,100.934 -3.3825,0 0.55,-20.047502 10.9725,0 0,2.42 -8.2775,0 -0.2475,5.775 7.81,0 0,2.805 -7.6725,0 0.2475,9.047502 z"
         id="path4183"
         inkscape:connector-curvature="0" />
      <path
         d="m 369.00333,85.533998 c 4.29,0 6.9025,2.9425 6.9025,7.8925 0,4.9225 -2.6125,7.892502 -6.9025,7.892502 -4.3175,0 -6.9025,-2.970002 -6.9025,-7.892502 0,-4.95 2.585,-7.8925 6.9025,-7.8925 z m 0,1.815 c -2.64,0 -4.29,2.145 -4.29,5.6375 0,3.52 1.6225,4.07 4.29,4.07 2.64,0 4.29,-0.5775 4.29,-4.07 0,-3.4375 -1.65,-5.6375 -4.29,-5.6375 z"
         id="path4185"
         inkscape:connector-curvature="0" />
      <path
         d="m 393.46286,100.934 -3.52,0 0.5225,-9.130002 c 0,-2.86 -0.8525,-4.2625 -3.0525,-4.2625 -3.025,0 -4.455,1.815 -4.455,4.7575 l 0.4125,8.635002 -3.4375,0 0.4125,-15.180002 2.475,0 0,1.815 c 1.1825,-0.935 2.7775,-2.035 4.8675,-2.035 3.4375,0 5.1975,2.1725 5.39,6.325 l 0.385,9.075002 z"
         id="path4187"
         inkscape:connector-curvature="0" />
      <path
         d="m 398.50567,85.891498 0.1375,-3.74 2.6125,0 -0.1375,3.74 3.4925,0 0,1.925 -3.4925,0 -0.1375,6.545 c 0,2.475 0.5225,2.8875 2.5575,2.8875 l 2.5575,0 0,3.685002 -2.5575,0 c -3.795,0 -5.17,-1.182502 -5.17,-4.950002 l 0.1375,-8.1675 -1.815,0 0,-1.925 1.815,0 z"
         id="path4189"
         inkscape:connector-curvature="0" />
    </g>
    <g
       style="line-height:125%"
       id="text10">
      <path
         d="m 74.781499,140.93401 -1.575,0 0,-1.365 c -0.7175,1.05 -1.75,1.61 -3.3075,1.61 -1.9425,0 -3.2025,-1.19 -3.2025,-3.0275 0,-2.1525 1.4525,-3.255 4.305,-3.255 l 2.205,0 0,-0.1575 c 0,-1.4525 -0.875,-2.3275 -2.7125,-2.45 -1.085,0 -2.135,0.2625 -3.0975,0.7875 l 0,-1.2775 c 1.155,-0.4375 2.24,-0.665 3.255,-0.665 2.7825,0 4.13,1.4175 4.13,4.34 l 0,5.46 z m -2.45,-4.8825 -1.4175,0 c -2.2925,0 -2.8875,0.49 -2.905,1.6625 0.175,0.98 0.9975,1.0675 2.135,1.0675 1.575,0 2.1875,-0.3325 2.1875,-2.38 l 0,-0.35 z"
         style="font-size:17.5px"
         id="path4192"
         inkscape:connector-curvature="0" />
      <path
         d="m 78.253882,139.20151 c 0.455,1.26 1.2075,1.9775 3.71,1.9775 2.3275,0 3.9375,-2.0125 3.9375,-5.0225 0,-3.01 -1.61,-5.0225 -3.9375,-5.0225 -1.4,0 -2.3975,0.3675 -3.045,1.505 l 0.1575,-5.005 -1.575,0 c 0.3325,5.5125 0.4025,10.8325 0.7525,11.5675 z m 6.6325,-3.395 c -0.2625,1.9775 -1.155,2.4675 -2.555,2.5725 -2.275,0 -2.4325,-0.735 -2.66,-2.5025 0,-2.31 0.9975,-3.6225 2.66,-3.6225 1.68,0 2.485,1.33 2.555,3.5525 z"
         style="font-size:17.5px"
         id="path4194"
         inkscape:connector-curvature="0" />
      <path
         d="m 95.636303,133.11151 c -0.8925,-0.49 -1.785,-0.735 -2.695,-0.735 -2.0475,0 -3.1325,1.4525 -3.1325,3.78 0.1575,1.645 1.015,2.205 3.0625,2.31 0.91,0 1.8375,0.1225 2.73,-0.3675 l 0.035,2.4675 c -0.875,0.4025 -1.8025,0.6125 -2.87,0.6125 -2.87,0 -4.7075,-1.9425 -4.7075,-5.0225 0,-3.115 1.8375,-5.0225 4.8125,-5.0225 0.9625,0 1.9075,0.1925 2.765,0.595 l 0,1.3825 z"
         style="font-size:17.5px"
         id="path4196"
         inkscape:connector-curvature="0" />
      <path
         d="m 104.75244,127.63401 1.575,0 -0.175,13.3 -1.575,0 0,-1.435 c -0.6475,1.1375 -1.6625,1.68 -3.0625,1.68 -2.310004,0 -3.920004,-2.0125 -3.920004,-5.0225 0,-3.01 1.61,-5.0225 3.920004,-5.0225 1.4,0 2.415,0.5425 3.0625,1.68 l 0.175,-5.18 z m -6.020004,8.3475 c 0.2625,1.6625 0.9625,2.345 2.625004,2.345 1.6625,0 2.4675,-0.35 2.52,-2.4675 -0.0525,-2.31 -0.805,-3.5875 -2.4675,-3.5875 -1.680004,0 -2.677504,1.4 -2.677504,3.71 z"
         style="font-size:17.5px"
         id="path4198"
         inkscape:connector-curvature="0" />
      <path
         d="m 117.65923,135.75401 -7.14,0 c 0.035,2.555 1.295,2.9925 3.3775,3.0975 1.2075,0 2.345,0.0175 3.465,-0.5775 l 0.035,2.17 c -1.1375,0.49 -2.3275,0.735 -3.5525,0.735 -3.045,-0.105 -4.97,-1.9075 -4.97,-4.935 0.1225,-3.1325 1.82,-5.11 4.7075,-5.11 2.555,0.105 3.8675,1.295 4.0775,4.025 l 0,0.595 z m -1.365,-1.3825 c -0.175,-1.0675 -1.155,-2.415 -2.7125,-2.415 -1.75,0 -2.8875,1.2775 -2.8875,2.4325 l 5.6,-0.0175 z"
         style="font-size:17.5px"
         id="path4200"
         inkscape:connector-curvature="0" />
      <path
         d="m 125.80439,127.98401 0,1.295 -1.4175,-0.1575 c -0.7875,0 -1.0675,0.21 -1.0675,1.4 l 0.07,0.84 2.5025,0 0,1.5575 -2.5025,0 0.2625,8.015 -2.2575,0 0.245,-8.015 -1.4175,0 0,-1.5575 1.4175,0 0.0875,-0.665 c 0,-2.135 1.2075,-2.8875 2.6775,-2.8875 l 1.4,0.175 z"
         style="font-size:17.5px"
         id="path4202"
         inkscape:connector-curvature="0" />
      <path
         d="m 135.61669,131.36151 1.575,0 -0.2625,8.3825 c -0.14,4.41 -1.505,5.775 -4.4975,5.775 -1.1025,0 -2.065,-0.175 -2.9925,-0.5075 l 0,-2.8 c 0.9275,0.5075 1.82,0.735 2.7475,0.735 2.065,0 2.94,-1.785 3.1675,-2.9225 l 0,-0.525 c -0.525,0.7875 -1.575,1.435 -2.975,1.435 -2.345,0 -3.92,-1.9425 -3.92,-4.9 0,-2.9575 1.575,-4.9 3.92,-4.9 1.4,0 2.415,0.56 3.0625,1.68 l 0.175,-1.4525 z m -0.8575,4.585 c 0,-2.2925 -0.98,-3.5875 -2.6775,-3.5875 -1.68,0 -2.6775,1.295 -2.6775,3.5875 0.2275,2.2575 0.875,2.4325 2.555,2.4325 1.6975,0 2.8,-0.175 2.8,-2.4325 z"
         style="font-size:17.5px"
         id="path4204"
         inkscape:connector-curvature="0" />
      <path
         d="m 148.10349,140.93401 -1.995,0 0.245,-5.7225 c 0.105,-2.1875 -0.7,-2.8875 -2.1175,-2.8875 -1.6975,0 -2.7475,1.33 -2.7475,3.2025 l 0.175,5.4075 -1.925,0 0.35,-13.3 1.575,0 -0.175,5.215 c 0.7525,-1.155 1.7675,-1.715 3.0975,-1.715 2.205,0 3.3425,1.3825 3.3425,4.025 l 0.175,5.775 z"
         style="font-size:17.5px"
         id="path4206"
         inkscape:connector-curvature="0" />
      <path
         d="m 152.39181,129.62901 -1.575,0 0.0875,-1.995 1.4,0 0.0875,1.995 z m -1.75,11.305 c 0.2275,-3.36 0.28,-6.5625 0.2625,-9.5725 l 1.4,0 c -0.105,2.87 -0.0175,6.09 0.35,9.5725 l -2.0125,0 z"
         style="font-size:17.5px"
         id="path4208"
         inkscape:connector-curvature="0" />
      <path
         d="m 158.93189,129.62901 -1.575,0 0.0875,-1.995 1.4,0 0.0875,1.995 z m -1.855,1.785 1.4875,0.0175 -0.3325,9.7475 c -0.0525,2.4325 -0.945,3.5875 -3.01,3.675 l -0.8575,-0.0175 0.0525,-2.3625 0.665,0 c 1.2075,-0.0875 1.4875,-0.35 1.5925,-2.345 l 0.4025,-8.715 z"
         style="font-size:17.5px"
         id="path4210"
         inkscape:connector-curvature="0" />
      <path
         d="m 163.57677,140.93401 -2.1,0 0.35,-13.3 1.575,0 -0.0875,7.5075 3.2375,-3.78 2.0125,0 -3.6225,4.48 5.285,5.0925 -3.2375,0 -3.675,-4.4975 0.2625,4.4975 z"
         style="font-size:17.5px"
         id="path4212"
         inkscape:connector-curvature="0" />
      <path
         d="m 176.22025,140.93401 -3.43,0 c 0.07,-4.4275 0.1925,-8.085 0.4375,-12.53 l 1.4875,0 c -0.21,3.78 -0.315,6.79 -0.35,10.5875 l 1.855,0 0,1.9425 z"
         style="font-size:17.5px"
         id="path4214"
         inkscape:connector-curvature="0" />
      <path
         d="m 186.71669,133.19901 c 0.7875,-1.4 1.6975,-2.065 3.1675,-2.065 1.995,0 3.115,1.4525 3.115,4.025 l 0.175,5.775 -2.345,0 0.595,-5.985 c 0,-1.8375 -0.385,-2.7125 -1.715,-2.7125 -1.645,0 -2.4675,1.4175 -2.555,3.29 l -0.2625,5.4075 -2.17,0 0.77,-6.0725 c 0,-1.8375 -0.6475,-2.695 -1.995,-2.695 -1.61,0 -2.7125,1.505 -2.7125,3.36 l 0.175,5.4075 -2.1875,0 0.4375,-9.5725 1.575,0 -0.175,1.4875 c 0.7175,-1.1725 1.6975,-1.715 3.08,-1.715 1.4,0 2.555,0.7175 3.0275,2.065 z"
         style="font-size:17.5px"
         id="path4216"
         inkscape:connector-curvature="0" />
      <path
         d="m 204.33482,140.93401 -2.24,0 0.3325,-5.81 c 0,-1.82 -0.5425,-2.7125 -1.9425,-2.7125 -1.925,0 -2.835,1.155 -2.835,3.0275 l 0.2625,5.495 -2.1875,0 0.2625,-9.66 1.575,0 0,1.155 c 0.7525,-0.595 1.7675,-1.295 3.0975,-1.295 2.1875,0 3.3075,1.3825 3.43,4.025 l 0.245,5.775 z"
         style="font-size:17.5px"
         id="path4218"
         inkscape:connector-curvature="0" />
      <path
         d="m 211.29408,131.13401 c 2.73,0 4.3925,1.8725 4.3925,5.0225 0,3.1325 -1.6625,5.0225 -4.3925,5.0225 -2.7475,0 -4.3925,-1.89 -4.3925,-5.0225 0,-3.15 1.645,-5.0225 4.3925,-5.0225 z m 0,1.155 c -1.68,0 -2.73,1.365 -2.73,3.5875 0,2.24 1.0325,2.59 2.73,2.59 1.68,0 2.73,-0.3675 2.73,-2.59 0,-2.1875 -1.05,-3.5875 -2.73,-3.5875 z"
         style="font-size:17.5px"
         id="path4220"
         inkscape:connector-curvature="0" />
      <path
         d="m 220.26173,144.57401 -2.0125,0 0.77,-5.8625 0,-7.21 1.575,0 -0.2625,1.3125 c 0.6475,-1.1375 1.6625,-1.68 3.0625,-1.68 2.3275,0 3.92,2.0125 3.92,5.0225 0,3.01 -1.5925,5.0225 -3.92,5.0225 -1.4,0 -2.415,-0.5425 -3.0625,-1.68 l -0.07,5.075 z m 6.0375,-8.6975 c 0,-2.31 -0.9975,-3.6925 -2.6775,-3.6925 -1.6625,0 -2.66,1.3825 -2.66,3.6925 0,2.3275 1.085,2.7125 2.7475,2.7125 1.6625,0 2.59,-0.385 2.59,-2.7125 z"
         style="font-size:17.5px"
         id="path4222"
         inkscape:connector-curvature="0" />
      <path
         d="m 238.19267,144.55651 -2.2225,0.0175 0.4725,-5.075 c -0.6475,1.1375 -1.6625,1.68 -3.0625,1.68 -2.31,0 -3.92,-2.0125 -3.92,-5.0225 0,-3.01 1.61,-5.0225 3.92,-5.0225 1.4,0 2.415,0.5425 3.0625,1.68 l 0.2625,-1.4525 1.5225,0 -0.5425,10.1325 1.925,1.855 -1.4175,1.2075 z m -7.6825,-8.6275 c 0,2.3275 0.9625,2.625 2.625,2.625 1.6625,0 2.73,-0.2975 2.73,-2.625 0,-2.31 -1.015,-3.71 -2.6775,-3.71 -1.68,0 -2.6775,1.4 -2.6775,3.71 z"
         style="font-size:17.5px"
         id="path4224"
         inkscape:connector-curvature="0" />
      <path
         d="m 247.98501,133.00651 c -0.35,-0.21 -0.6825,-0.21 -1.19,-0.21 -1.7675,0 -2.5025,1.295 -2.5025,3.36 l 0.35,4.7775 -2.4675,0 c 0.7175,-3.955 0.805,-5.39 0.665,-9.485 l 1.4525,0 0,0.98 c 0.315,-0.245 1.4525,-1.12 2.975,-1.12 0.21,0 0.385,0.0175 0.7,0.0875 l 0.0175,1.61 z"
         style="font-size:17.5px"
         id="path4226"
         inkscape:connector-curvature="0" />
      <path
         d="m 257.35654,132.95401 c -0.8925,-0.4375 -1.855,-0.6825 -2.87,-0.6825 -1.575,0 -2.4325,0.5775 -2.4325,1.5225 0,0.8575 0.5075,1.26 2.1875,1.6275 l 0.5425,0.1225 c 2.2225,0.4725 3.08,1.19 3.08,2.7475 0,1.785 -1.4875,2.8875 -3.955,2.8875 -1.015,0 -2.1175,-0.1925 -3.36,-0.595 l 0,-2.31 c 1.1725,0.6125 2.2925,0.91 3.395,0.91 1.4875,0 2.135,-0.455 2.135,-1.2775 -0.1925,-0.35 -0.35,-0.595 -0.49,-0.7525 -0.1225,-0.1575 -0.6825,-0.3325 -1.6625,-0.56 l -0.5425,-0.1225 c -1.9425,-0.4025 -2.765,-1.0325 -2.765,-2.52 0,-1.8025 1.33,-2.8175 3.675,-2.8175 1.1725,0 2.205,0.175 3.0625,0.5075 l 0,1.3125 z"
         style="font-size:17.5px"
         id="path4228"
         inkscape:connector-curvature="0" />
      <path
         d="m 261.58197,131.36151 0.0875,-2.38 1.6625,0 -0.0875,2.38 2.2225,0 0,1.225 -2.2225,0 -0.0875,4.165 c 0,1.575 0.3325,1.8375 1.6275,1.8375 l 1.6275,0 0,2.345 -1.6275,0 c -2.415,0 -3.29,-0.7525 -3.29,-3.15 l 0.0875,-5.1975 -1.155,0 0,-1.225 1.155,0 z"
         style="font-size:17.5px"
         id="path4230"
         inkscape:connector-curvature="0" />
      <path
         d="m 268.97189,131.36151 1.3125,0 0,4.375 c 0.1225,1.8025 0.7175,2.7125 2.135,2.7125 1.6975,0 2.625,-1.155 2.7475,-3.0275 l 0.175,-4.06 1.7325,0 -0.175,9.5725 -1.5575,0 0.07,-1.47 c -0.7525,1.155 -1.75,1.715 -3.08,1.715 -2.1875,0 -3.36,-1.3825 -3.36,-4.025 l 0,-5.7925 z"
         style="font-size:17.5px"
         id="path4232"
         inkscape:connector-curvature="0" />
      <path
         d="m 285.44595,140.93401 -2.31,0 -3.5,-9.5725 1.6625,0 2.9925,7.0175 2.9925,-7.0175 1.6625,0 -3.5,9.5725 z"
         style="font-size:17.5px"
         id="path4234"
         inkscape:connector-curvature="0" />
      <path
         d="m 296.15048,140.93401 -2.1175,0 -2.5025,-9.5725 1.575,0 1.96,6.7025 1.785,-3.535 2.205,0 1.785,3.535 1.96,-6.7025 1.575,0 -2.5025,9.5725 -2.1875,0 -1.7325,-4.34 -1.8025,4.34 z"
         style="font-size:17.5px"
         id="path4236"
         inkscape:connector-curvature="0" />
      <path
         d="m 311.33037,135.28151 2.8875,-3.92 1.5925,0 -3.3775,5.0925 3.7275,4.48 -2.5375,0 -2.1875,-3.325 -2.3625,3.325 -2.5375,0 3.815,-4.585 -3.325,-4.9875 1.68,0 2.625,3.92 z"
         style="font-size:17.5px"
         id="path4238"
         inkscape:connector-curvature="0" />
      <path
         d="m 326.35083,131.36151 1.6625,0 -4.025,10.465 c -1.12,2.5025 -1.925,2.9225 -3.325,2.9225 l -1.435,0 0,-2.0825 1.1025,0 c 0.8575,0 1.2075,-0.4375 1.8025,-1.1725 l 0.665,-1.3475 -4.095,-8.785 1.6625,0 3.395,5.565 2.59,-5.565 z"
         style="font-size:17.5px"
         id="path4240"
         inkscape:connector-curvature="0" />
      <path
         d="m 336.68787,132.53401 -5.705,0 0,-1.1725 7.385,0 0,1.435 -5.4075,6.02 5.32,0 0,2.1175 -7.6825,0 0,-2.2925 6.09,-6.1075 z"
         style="font-size:17.5px"
         id="path4242"
         inkscape:connector-curvature="0" />
      <path
         d="m 69.041499,162.80901 -2.345,0 5.04,-12.7575 1.6275,0 5.0225,12.7575 -2.4675,0 -0.49,-2.0825 -5.74,0 -0.6475,2.0825 z m 1.155,-4.1125 4.7075,0 -2.3625,-7.07 -2.345,7.07 z"
         style="font-size:17.5px"
         id="path4244"
         inkscape:connector-curvature="0" />
      <path
         d="m 80.949428,162.80901 0,-12.7575 3.99,0 c 2.625,0 4.1125,1.1375 4.1125,3.15 0,1.575 -0.7525,2.5025 -2.1525,2.73 2.2575,0.3675 3.2725,1.575 3.2725,3.3075 0,2.275 -1.7675,3.57 -4.6375,3.57 l -4.585,0 z m 1.7325,-11.6025 0,4.1125 2.555,0 c 1.68,0 2.5025,-0.63 2.5025,-1.925 0,-1.295 -0.8225,-2.1875 -2.5025,-2.1875 l -2.555,0 z m 0,5.5125 0,3.5525 2.765,0 c 1.855,0 2.73,-0.4025 2.73,-1.995 0,-0.28 -0.21,-0.6125 -0.665,-0.9975 -0.455,-0.3675 -1.1375,-0.56 -2.065,-0.56 l -2.765,0 z"
         style="font-size:17.5px"
         id="path4246"
         inkscape:connector-curvature="0" />
      <path
         d="m 103.03142,152.85151 c -1.155,-1.085 -2.4675,-1.61 -3.954999,-1.61 -2.905,0 -4.515,1.82 -4.515,5.1975 0.0525,2.9925 1.61,4.0075 4.515,4.0075 1.487499,0 2.799999,-0.5425 3.954999,-1.6275 l 0,3.01 c -1.2075,0.8225 -2.555,1.225 -4.059999,1.225 -3.8675,0 -6.23,-2.52 -6.23,-6.615 0,-4.095 2.3625,-6.615 6.23,-6.615 1.539999,0 2.869999,0.4025 4.059999,1.2075 l 0,1.82 z"
         style="font-size:17.5px"
         id="path4248"
         inkscape:connector-curvature="0" />
      <path
         d="m 105.59298,162.80901 0,-12.7575 3.5525,0 c 4.9525,0 7.175,1.995 7.175,6.37 0,4.3925 -2.2575,6.3875 -7.175,6.3875 l -3.5525,0 z m 1.82,-11.34 0,8.12 2.0825,0 c 3.5175,0 4.795,-0.735 5.0575,-3.3425 0,-3.185 -1.54,-4.7775 -5.0575,-4.7775 l -2.0825,0 z"
         style="font-size:17.5px"
         id="path4250"
         inkscape:connector-curvature="0" />
      <path
         d="m 127.11388,162.80901 -8.225,0 0,-12.7575 8.0675,0 0,1.4525 -6.335,0 0,3.78 6.0725,0 0,1.4525 -6.0725,0 0,3.43 6.4925,0 0,2.6425 z"
         style="font-size:17.5px"
         id="path4252"
         inkscape:connector-curvature="0" />
      <path
         d="m 131.80798,162.80901 -2.1525,0 0.35,-12.7575 6.9825,0 0,1.54 -5.2675,0 -0.1575,3.675 4.97,0 0,1.785 -4.8825,0 0.1575,5.7575 z"
         style="font-size:17.5px"
         id="path4254"
         inkscape:connector-curvature="0" />
      <path
         d="m 148.72091,158.24151 -2.7475,0 0,-1.8375 4.7075,0 0,5.215 c -1.33,0.945 -2.9575,1.435 -4.7775,1.435 -3.99,0 -6.37,-2.45 -6.37,-6.615 0,-4.165 2.38,-6.615 6.37,-6.615 1.6625,0 3.185,0.42 4.445,1.2075 l 0,1.6625 c -1.2775,-1.085 -2.7125,-1.6275 -4.305,-1.6275 -3.115,0 -4.69,1.75 -4.69,5.1975 0.1225,3.15 1.575,4.0075 4.69,4.0075 1.225,0 2.2575,-0.21 2.6775,-0.6475 l 0,-1.3825 z"
         style="font-size:17.5px"
         id="path4256"
         inkscape:connector-curvature="0" />
      <path
         d="m 155.23447,162.80901 -1.995,0 0.175,-12.7575 1.82,0 0,6.09 5.915,0 0,-6.09 1.82,0 0.175,12.7575 -1.995,0 0,-4.2875 -5.915,0 0,4.2875 z"
         style="font-size:17.5px"
         id="path4258"
         inkscape:connector-curvature="0" />
      <path
         d="m 165.71505,162.80901 c 0.2625,-4.2525 0.2625,-8.505 0.35,-12.7575 l 1.47,0 c 0.0525,4.2525 0.0175,8.505 0.245,12.7575 l -2.065,0 z"
         style="font-size:17.5px"
         id="path4260"
         inkscape:connector-curvature="0" />
      <path
         d="m 173.044,150.03401 1.82,0.1225 -0.455,12.11 c -0.07,3.08 -1.155,4.1825 -3.8675,4.235 l -0.9975,-0.105 -0.035,-2.8175 0.875,0.1925 c 1.5225,-0.07 2.1875,-0.8925 2.205,-1.61 l 0.455,-12.1275 z"
         style="font-size:17.5px"
         id="path4262"
         inkscape:connector-curvature="0" />
      <path
         d="m 179.64451,162.80901 -2.24,0 0.35,-12.7575 1.715,0 -0.1575,5.39 5.7225,-5.39 2.2225,0 -6.335,5.95 6.79,6.8075 -4.0775,0 -4.3225,-6.1425 0.3325,6.1425 z"
         style="font-size:17.5px"
         id="path4264"
         inkscape:connector-curvature="0" />
      <path
         d="m 198.11357,162.80901 -7.8575,0 0.175,-12.7575 1.7325,0 -0.0875,10.115 6.2125,0 -0.175,2.6425 z"
         style="font-size:17.5px"
         id="path4266"
         inkscape:connector-curvature="0" />
      <path
         d="m 203.03927,162.80901 -2.1875,0 0.2625,-12.7575 2.5725,0 3.1675,7.5775 3.36,-7.5775 2.3975,0 0.2625,12.7575 -2.205,0 0.35,-11.2 -3.115,9.17 -2.0825,0 -3.115,-9.17 0.3325,11.2 z"
         style="font-size:17.5px"
         id="path4268"
         inkscape:connector-curvature="0" />
      <path
         d="m 217.634,162.80901 -2.1875,0 0.35,-12.495 2.1525,0 5.4775,10.0625 0.2625,-10.325 1.5925,0 0,12.7575 -2.5025,0 -5.6525,-10.675 0.5075,10.675 z"
         style="font-size:17.5px"
         id="path4270"
         inkscape:connector-curvature="0" />
      <path
         d="m 233.76873,149.82401 c 3.5875,0 5.8975,2.59 5.8975,6.615 0,4.025 -2.31,6.615 -5.8975,6.615 -3.5875,0 -5.915,-2.5725 -5.915,-6.615 0,-4.025 2.3275,-6.615 5.915,-6.615 z m 0,1.4 c -2.5025,0 -4.095,1.995 -4.095,5.215 0,2.6425 1.5925,3.3425 4.095,3.3425 2.5025,0 4.0775,-0.7 4.0775,-3.3425 0,-3.22 -1.575,-5.215 -4.0775,-5.215 z"
         style="font-size:17.5px"
         id="path4272"
         inkscape:connector-curvature="0" />
      <path
         d="m 244.27419,162.80901 -2.065,0 0.525,-12.7575 3.7975,0 c 2.87,0 4.34,1.3125 4.34,3.815 0,2.52 -1.47,3.99 -4.34,3.99 l -2.0825,0 -0.175,4.9525 z m 0.2625,-12.0225 -0.175,4.795 2.345,0 c 1.715,0 2.695,-0.8575 2.695,-2.3975 0,-1.54 -0.98,-2.3975 -2.695,-2.3975 l -2.17,0 z"
         style="font-size:17.5px"
         id="path4274"
         inkscape:connector-curvature="0" />
      <path
         d="m 265.86181,165.06651 -4.06,0 -1.8025,-2.0475 c -0.3675,0.035 -0.525,0.035 -0.7175,0.035 -3.465,0 -5.8275,-2.59 -5.8275,-6.615 0,-4.025 2.3275,-6.615 5.915,-6.615 3.5875,0 5.8975,2.59 5.8975,6.615 0,2.975 -1.1025,4.515 -2.1175,5.635 l 2.7125,2.9925 z m -6.4925,-13.8425 c -2.5025,0 -4.095,1.995 -4.095,5.215 0,2.6425 1.96,3.22 2.9925,3.3425 l 0.805,0.105 0.7,-1.1725 c 0.6825,0.2975 1.365,0.5075 2.065,0.595 1.0675,-0.5775 1.61,-1.54 1.61,-2.87 0,-3.22 -1.575,-5.215 -4.0775,-5.215 z"
         style="font-size:17.5px"
         id="path4276"
         inkscape:connector-curvature="0" />
      <path
         d="m 274.48001,156.82401 c 0.735,0.245 1.4175,1.0675 2.135,2.5025 l 1.75,3.4825 -2.45,0 -1.295,-3.2725 c -0.84,-1.715 -1.47,-2.1175 -2.835,-2.1175 l -1.295,0 0,5.39 -2.065,0 0,-12.7575 3.9025,0 c 2.5725,0 4.0775,1.2075 4.0775,3.675 0,1.61 -0.735,2.695 -1.925,3.0975 z m -4.1475,-5.8625 0,4.69 2.17,0 c 1.3125,0 2.6775,-0.8925 2.6775,-1.925 0,-2.1875 -1.365,-2.765 -2.6775,-2.765 l -2.17,0 z"
         style="font-size:17.5px"
         id="path4278"
         inkscape:connector-curvature="0" />
      <path
         d="m 289.14228,152.15151 c -1.295,-0.63 -2.45,-0.9275 -3.535,-0.9275 -1.8725,0 -2.94,0.7525 -2.94,2.1 0,1.12 0.56,1.6275 2.45,1.9775 l 1.0325,0.21 c 2.5725,0.49 3.7625,1.6975 3.7625,3.78 0,2.4675 -1.68,3.7625 -4.8825,3.7625 -1.2075,0 -2.5725,-0.2625 -4.0425,-0.805 l 0,-2.73 c 1.4,0.7875 2.7475,1.19 4.0425,1.19 1.9775,0 3.08,-0.9625 3.08,-1.715 0,-0.6825 -0.7175,-1.4875 -2.4675,-1.8375 l -1.05,-0.21 c -2.5725,-0.5075 -3.6575,-1.54 -3.6575,-3.4825 0,-2.2575 1.68,-3.64 4.48,-3.64 1.19,0 2.4325,0.21 3.7275,0.6475 l 0,1.68 z"
         style="font-size:17.5px"
         id="path4280"
         inkscape:connector-curvature="0" />
      <path
         d="m 297.02001,151.32901 -4.5325,0.175 0,-1.4525 10.7975,0 0,1.4525 -4.5325,-0.175 0.35,11.48 -2.415,0 0.3325,-11.48 z"
         style="font-size:17.5px"
         id="path4282"
         inkscape:connector-curvature="0" />
      <path
         d="m 305.85177,150.05151 1.82,0 -0.175,6.5625 c -0.0525,2.73 1.0325,3.85 3.255,3.85 2.205,0 3.29,-1.12 3.22,-3.85 l -0.175,-6.5625 1.82,0 0,7.9625 c 0,3.325 -1.6625,5.04 -4.865,5.04 -3.2375,0 -4.9,-1.715 -4.9,-5.04 l 0,-7.9625 z"
         style="font-size:17.5px"
         id="path4284"
         inkscape:connector-curvature="0" />
      <path
         d="m 329.88064,150.05151 -4.4275,12.7575 -2.8175,0 -4.445,-12.7575 1.8025,0 4.0425,9.5375 4.06,-9.5375 1.785,0 z"
         style="font-size:17.5px"
         id="path4286"
         inkscape:connector-curvature="0" />
      <path
         d="m 337.99107,162.80901 -2.695,0 -2.8525,-12.7575 1.6625,0 2.59,9.1525 3.0275,-5.8975 1.505,0 2.765,6.0725 2.94,-9.3275 1.6625,0 -3.2025,12.7575 -2.52,0 -2.345,-6.895 -2.5375,6.895 z"
         style="font-size:17.5px"
         id="path4288"
         inkscape:connector-curvature="0" />
      <path
         d="m 351.13986,162.80901 4.3925,-5.95 -3.815,-6.8075 1.855,0 3.185,5.425 3.185,-5.425 1.855,0 -3.9375,6.8075 4.2,5.95 -2.7825,0 -2.66,-4.5675 -2.6775,4.5675 -2.8,0 z"
         style="font-size:17.5px"
         id="path4290"
         inkscape:connector-curvature="0" />
      <path
         d="m 368.82333,162.80901 0,-4.375 -4.1825,-8.3825 1.855,0 3.535,6.5275 3.5175,-6.5275 1.855,0 -4.2525,8.3825 0,4.375 -2.3275,0 z"
         style="font-size:17.5px"
         id="path4292"
         inkscape:connector-curvature="0" />
      <path
         d="m 386.03841,151.50401 -7.875,0 0,-1.4525 10.0275,0 0,1.3125 -8.0675,8.89 8.26,0 0,2.555 -10.4125,0 0,-2.4325 8.0675,-8.8725 z"
         style="font-size:17.5px"
         id="path4294"
         inkscape:connector-curvature="0" />
      <path
         d="m 71.088999,174.88401 c 2.73,0 4.3925,1.8725 4.3925,5.0225 0,3.1325 -1.6625,5.0225 -4.3925,5.0225 -2.7475,0 -4.3925,-1.89 -4.3925,-5.0225 0,-3.15 1.645,-5.0225 4.3925,-5.0225 z m 0,1.155 c -1.68,0 -2.73,1.365 -2.73,3.5875 0,2.24 1.0325,2.59 2.73,2.59 1.68,0 2.73,-0.3675 2.73,-2.59 0,-2.1875 -1.05,-3.5875 -2.73,-3.5875 z"
         style="font-size:17.5px"
         id="path4296"
         inkscape:connector-curvature="0" />
      <path
         d="m 83.959155,171.69901 c 3.5875,0 5.8975,2.59 5.8975,6.615 0,4.025 -2.31,6.615 -5.8975,6.615 -3.5875,0 -5.915,-2.5725 -5.915,-6.615 0,-4.025 2.3275,-6.615 5.915,-6.615 z m 0,1.4 c -2.5025,0 -4.095,1.995 -4.095,5.215 0,2.6425 1.5925,3.3425 4.095,3.3425 2.5025,0 4.0775,-0.7 4.0775,-3.3425 0,-3.22 -1.575,-5.215 -4.0775,-5.215 z"
         style="font-size:17.5px"
         id="path4298"
         inkscape:connector-curvature="0" />
      <path
         d="m 96.897124,171.69901 c 2.87,0 4.322496,2.31 4.322496,6.615 -0.105,4.305 -1.627496,6.615 -4.497496,6.615 -2.8525,0 -4.3225,-2.31 -4.3225,-6.615 0.1225,-4.305 1.645,-6.615 4.4975,-6.615 z m 0,0.6825 c -1.7675,0 -2.6775,1.5575 -2.6775,4.69 0,3.2375 0.735,4.69 2.5025,4.69 1.785,0 2.625,-1.5575 2.8525,-4.69 0,-3.1325 -0.8925,-4.69 -2.6775,-4.69 z m -0.0525,6.6325 c 0.7175,0 0.8925,-0.8575 0.8925,-1.505 0,-1.225 -0.175,-1.9775 -0.8925,-1.9775 -0.805,0 -0.91,0.98 -0.91,1.9775 0,0.6475 0.175,1.505 0.91,1.505 z"
         style="font-size:17.5px"
         id="path4300"
         inkscape:connector-curvature="0" />
      <path
         d="m 106.59896,177.89401 c -1.47,-0.3675 -2.17,-1.435 -2.17,-2.8875 0,-1.82 1.365,-3.1325 3.9025,-3.1325 2.5375,0 3.9025,1.3125 3.9025,3.1325 0,1.4525 -0.7,2.52 -2.17,2.8875 1.6625,0.385 2.8175,1.575 2.8175,3.2025 0,2.4675 -1.7325,3.8325 -4.55,3.8325 -2.8175,0 -4.55,-1.365 -4.55,-3.8325 0,-1.6275 1.155,-2.8175 2.8175,-3.2025 z m -0.63,-3.2375 c 0,1.3125 0.875,2.1 2.3625,2.1 1.47,0 2.3625,-0.7875 2.3625,-2.1 0,-1.1025 -0.8925,-1.9425 -2.3625,-1.9425 -1.4875,0 -2.3625,0.84 -2.3625,1.9425 z m 2.3625,3.7975 c -1.645,0 -2.6425,0.9275 -2.6425,2.4675 0,0.8575 0.9975,1.8725 2.6425,1.8725 1.645,0 2.6425,-1.0325 2.6425,-1.8725 0,-1.54 -0.9975,-2.4675 -2.6425,-2.4675 z"
         style="font-size:17.5px"
         id="path4302"
         inkscape:connector-curvature="0" />
      <path
         d="m 124.02267,173.37901 -1.575,0 0.0875,-1.995 1.4,0 0.0875,1.995 z m -1.75,11.305 c 0.2275,-3.36 0.28,-6.5625 0.2625,-9.5725 l 1.4,0 c -0.105,2.87 -0.0175,6.09 0.35,9.5725 l -2.0125,0 z"
         style="font-size:17.5px"
         id="path4304"
         inkscape:connector-curvature="0" />
      <path
         d="m 126.85275,184.68401 c 0.2625,-4.2525 0.2625,-8.505 0.35,-12.7575 l 1.47,0 c 0.0525,4.2525 0.0175,8.505 0.245,12.7575 l -2.065,0 z"
         style="font-size:17.5px"
         id="path4306"
         inkscape:connector-curvature="0" />
      <path
         d="m 134.93119,184.68401 -3.43,0 c 0.07,-4.4275 0.1925,-8.085 0.4375,-12.53 l 1.4875,0 c -0.21,3.78 -0.315,6.79 -0.35,10.5875 l 1.855,0 0,1.9425 z"
         style="font-size:17.5px"
         id="path4308"
         inkscape:connector-curvature="0" />
      <path
         d="m 145.34013,184.68401 -7.8575,0 0.175,-12.7575 1.7325,0 -0.0875,10.115 6.2125,0 -0.175,2.6425 z"
         style="font-size:17.5px"
         id="path4310"
         inkscape:connector-curvature="0" />
      <path
         d="m 155.67333,184.68401 -7.35,0 0,-2.3975 2.835,0 0,-8.785 -3.08,0.6125 0,-1.575 3.0625,-0.6125 1.715,0 0,10.36 2.8175,0 0,2.3975 z"
         style="font-size:17.5px"
         id="path4312"
         inkscape:connector-curvature="0" />
      <path
         d="m 171.71564,185.90901 -0.0175,1.75 -0.525,-0.0175 c -2.835,-0.0525 -3.4475,-0.7 -3.5175,-3.22 l 0.035,-2.03 c -0.0875,-1.715 -0.49,-2.2925 -2.1,-2.3275 l -0.525,0 0.0175,-1.225 0.525,0.0175 c 1.6275,-0.0875 2.1525,-0.525 2.1875,-2.2225 l 0.0175,-2.0475 c 0.0525,-2.52 0.805,-3.0275 3.64,-3.08 l 0.525,0 -0.0175,1.225 -0.5775,-0.0175 c -1.7325,0.0875 -1.9425,0.315 -1.9775,1.925 l -0.035,2.1175 c -0.035,1.785 -0.5075,2.4675 -1.7675,2.7475 1.26,0.3325 1.5925,1.085 1.6625,2.625 l -0.035,2.135 c 0.0875,1.155 0.2975,1.61 1.9075,1.645 l 0.5775,0 z"
         style="font-size:17.5px"
         id="path4314"
         inkscape:connector-curvature="0" />
      <path
         d="m 173.84326,187.53651 0,-1.3125 0.595,0 c 1.61,0 1.925,-0.3325 1.925,-1.96 l 0,-2.1175 c 0,-1.6625 0.455,-2.38 1.715,-2.695 -1.26,-0.28 -1.715,-0.98 -1.715,-2.765 l 0,-2.1175 c 0,-1.61 -0.315,-1.96 -1.925,-1.96 l -0.595,0 0,-1.225 0.5425,0 c 2.835,0 3.5525,0.63 3.5525,3.15 l 0,2.0475 c 0,1.6975 0.525,2.2575 2.135,2.2575 l 0.525,0 0,1.225 -0.525,0 c -1.61,0 -2.135,0.56 -2.135,2.275 l 0,2.0475 c 0,2.52 -0.7175,3.15 -3.5525,3.15 l -0.5425,0 z"
         style="font-size:17.5px"
         id="path4316"
         inkscape:connector-curvature="0" />
      <path
         d="m 192.37466,186.99401 -3.6225,0 0,-15.61 3.6225,0 0,1.225 -2.0475,0 0,12.4775 2.0475,0 0,1.9075 z"
         style="font-size:17.5px"
         id="path4318"
         inkscape:connector-curvature="0" />
      <path
         d="m 194.07435,172.60901 0,-1.225 3.6225,0 0,15.61 -3.6225,0 0,-1.82 2.0475,0 0,-12.565 -2.0475,0 z"
         style="font-size:17.5px"
         id="path4320"
         inkscape:connector-curvature="0" />
      <path
         d="m 214.22998,175.11151 1.575,0 -0.2625,8.3825 c -0.14,4.41 -1.505,5.775 -4.4975,5.775 -1.1025,0 -2.065,-0.175 -2.9925,-0.5075 l 0,-2.8 c 0.9275,0.5075 1.82,0.735 2.7475,0.735 2.065,0 2.94,-1.785 3.1675,-2.9225 l 0,-0.525 c -0.525,0.7875 -1.575,1.435 -2.975,1.435 -2.345,0 -3.92,-1.9425 -3.92,-4.9 0,-2.9575 1.575,-4.9 3.92,-4.9 1.4,0 2.415,0.56 3.0625,1.68 l 0.175,-1.4525 z m -0.8575,4.585 c 0,-2.2925 -0.98,-3.5875 -2.6775,-3.5875 -1.68,0 -2.6775,1.295 -2.6775,3.5875 0.2275,2.2575 0.875,2.4325 2.555,2.4325 1.6975,0 2.8,-0.175 2.8,-2.4325 z"
         style="font-size:17.5px"
         id="path4322"
         inkscape:connector-curvature="0" />
      <path
         d="m 219.17427,181.81401 c 0.8575,0.42 1.7675,0.6475 2.625,0.6475 2.275,0 3.465,-0.5075 3.64,-3.6225 -0.665,0.98 -1.715,1.5225 -2.94,1.5225 -2.555,0 -4.1475,-1.645 -4.1475,-4.3225 0,-2.625 1.68,-4.34 4.2525,-4.34 2.9575,0 4.55,2.31 4.55,6.615 0,4.025 -2.065,6.615 -5.285,6.615 -0.8575,0 -1.7325,-0.175 -2.695,-0.5075 l 0,-2.6075 z m 3.29,-4.025 c 1.89,0 3.0625,-0.175 3.0625,-2.03 0,-1.8375 -1.1725,-2.975 -3.0625,-2.975 -1.89,0 -3.08,1.1375 -3.08,2.975 0,1.855 1.19,2.03 3.08,2.03 z"
         style="font-size:17.5px"
         id="path4324"
         inkscape:connector-curvature="0" />
      <path
         d="m 238.43193,188.30651 -2.2225,0.0175 0.4725,-5.075 c -0.6475,1.1375 -1.6625,1.68 -3.0625,1.68 -2.31,0 -3.92,-2.0125 -3.92,-5.0225 0,-3.01 1.61,-5.0225 3.92,-5.0225 1.4,0 2.415,0.5425 3.0625,1.68 l 0.2625,-1.4525 1.5225,0 -0.5425,10.1325 1.925,1.855 -1.4175,1.2075 z m -7.6825,-8.6275 c 0,2.3275 0.9625,2.625 2.625,2.625 1.6625,0 2.73,-0.2975 2.73,-2.625 0,-2.31 -1.015,-3.71 -2.6775,-3.71 -1.68,0 -2.6775,1.4 -2.6775,3.71 z"
         style="font-size:17.5px"
         id="path4326"
         inkscape:connector-curvature="0" />
      <path
         d="m 252.70427,174.72651 c -1.155,-1.085 -2.4675,-1.61 -3.955,-1.61 -2.905,0 -4.515,1.82 -4.515,5.1975 0.0525,2.9925 1.61,4.0075 4.515,4.0075 1.4875,0 2.8,-0.5425 3.955,-1.6275 l 0,3.01 c -1.2075,0.8225 -2.555,1.225 -4.06,1.225 -3.8675,0 -6.23,-2.52 -6.23,-6.615 0,-4.095 2.3625,-6.615 6.23,-6.615 1.54,0 2.87,0.4025 4.06,1.2075 l 0,1.82 z"
         style="font-size:17.5px"
         id="path4328"
         inkscape:connector-curvature="0" />
      <path
         d="m 264.45333,180.11651 -2.7475,0 0,-1.8375 4.7075,0 0,5.215 c -1.33,0.945 -2.9575,1.435 -4.7775,1.435 -3.99,0 -6.37,-2.45 -6.37,-6.615 0,-4.165 2.38,-6.615 6.37,-6.615 1.6625,0 3.185,0.42 4.445,1.2075 l 0,1.6625 c -1.2775,-1.085 -2.7125,-1.6275 -4.305,-1.6275 -3.115,0 -4.69,1.75 -4.69,5.1975 0.1225,3.15 1.575,4.0075 4.69,4.0075 1.225,0 2.2575,-0.21 2.6775,-0.6475 l 0,-1.3825 z"
         style="font-size:17.5px"
         id="path4330"
         inkscape:connector-curvature="0" />
      <path
         d="m 281.37939,186.94151 -4.06,0 -1.8025,-2.0475 c -0.3675,0.035 -0.525,0.035 -0.7175,0.035 -3.465,0 -5.8275,-2.59 -5.8275,-6.615 0,-4.025 2.3275,-6.615 5.915,-6.615 3.5875,0 5.8975,2.59 5.8975,6.615 0,2.975 -1.1025,4.515 -2.1175,5.635 l 2.7125,2.9925 z m -6.4925,-13.8425 c -2.5025,0 -4.095,1.995 -4.095,5.215 0,2.6425 1.96,3.22 2.9925,3.3425 l 0.805,0.105 0.7,-1.1725 c 0.6825,0.2975 1.365,0.5075 2.065,0.595 1.0675,-0.5775 1.61,-1.54 1.61,-2.87 0,-3.22 -1.575,-5.215 -4.0775,-5.215 z"
         style="font-size:17.5px"
         id="path4332"
         inkscape:connector-curvature="0" />
      <path
         d="m 301.73353,179.04901 c -1.19,0.8925 -2.1525,1.68 -3.255,1.68 -0.6125,0 -1.3475,-0.245 -2.1875,-0.7525 -0.0525,-0.035 -0.105,-0.035 -0.14,-0.0525 l -0.175,-0.07 c -0.8925,-0.4725 -1.5925,-0.7 -2.135,-0.7 -0.9975,0 -1.9425,0.84 -3.0625,1.8025 l 0,-1.785 c 1.2075,-0.8925 2.1525,-1.26 3.255,-1.26 0.63,0 1.365,0.175 2.205,0.5075 0.105,0.0525 0.1575,0.07 0.315,0.1225 0.875,0.35 1.5925,0.525 2.1175,0.525 0.9975,0 1.89,-0.4025 3.0625,-1.365 l 0,1.3475 z"
         style="font-size:17.5px"
         id="path4334"
         inkscape:connector-curvature="0" />
      <path
         d="m 308.88201,180.51901 -4.6025,0.07 0.07,-1.4 4.6025,-0.0875 -0.07,1.4175 z"
         style="font-size:17.5px"
         id="path4336"
         inkscape:connector-curvature="0" />
      <path
         d="m 316.25142,178.47151 0,-4.76 1.435,0 0,4.76 4.76,0 0,1.4525 -4.76,0 0,4.76 -1.435,0 0,-4.76 -4.76,0 0,-1.4525 4.76,0 z"
         style="font-size:17.5px"
         id="path4338"
         inkscape:connector-curvature="0" />
      <path
         d="m 335.9474,178.17401 -10.955,0 0,-1.435 10.955,0 0,1.435 z m 0,3.5 -10.955,0 0,-1.715 10.955,0 0,1.715 z"
         style="font-size:17.5px"
         id="path4340"
         inkscape:connector-curvature="0" />
      <path
         d="m 338.66837,181.44651 9.0475,-2.3275 -8.4875,-3.9025 0.14,-1.54 10.5525,4.9 -0.1575,1.9425 -11.27,2.9925 0.175,-2.065 z"
         style="font-size:17.5px"
         id="path4342"
         inkscape:connector-curvature="0" />
    </g>
  </g>
</svg>
