<?xml version="1.0" encoding="UTF-8" standalone="no"?>
<svg
   version="1.1"
   id="svg2"
   viewBox="0 0 341.13665 109.23499"
   height="30.828541mm"
   width="96.276344mm"
   sodipodi:docname="OpenDyslexic Nerd Font.svg"
   inkscape:version="1.1.2 (0a00cf5339, 2022-02-04)"
   xmlns:inkscape="http://www.inkscape.org/namespaces/inkscape"
   xmlns:sodipodi="http://sodipodi.sourceforge.net/DTD/sodipodi-0.dtd"
   xmlns="http://www.w3.org/2000/svg"
   xmlns:svg="http://www.w3.org/2000/svg"
   xmlns:rdf="http://www.w3.org/1999/02/22-rdf-syntax-ns#"
   xmlns:cc="http://creativecommons.org/ns#"
   xmlns:dc="http://purl.org/dc/elements/1.1/">
  <sodipodi:namedview
     id="namedview12"
     pagecolor="#ffffff"
     bordercolor="#666666"
     borderopacity="1.0"
     inkscape:pageshadow="2"
     inkscape:pageopacity="0.0"
     inkscape:pagecheckerboard="0"
     inkscape:document-units="mm"
     showgrid="false"
     inkscape:zoom="0.64052329"
     inkscape:cx="328.63754"
     inkscape:cy="475.39255"
     inkscape:window-width="1458"
     inkscape:window-height="976"
     inkscape:window-x="0"
     inkscape:window-y="32"
     inkscape:window-maximized="0"
     inkscape:current-layer="svg2" />
  <defs
     id="defs4" />
  <metadata
     id="metadata7">
    <rdf:RDF>
      <cc:Work
         rdf:about="">
        <dc:format>image/svg+xml</dc:format>
        <dc:type
           rdf:resource="http://purl.org/dc/dcmitype/StillImage" />
      </cc:Work>
    </rdf:RDF>
  </metadata>
  <g
     id="layer1"
     transform="translate(-64.864643,-80.033632)">
    <g
       aria-label="OpenDyslexic Nerd Font"
       id="text4136"
       style="font-size:27.5px;line-height:125%;font-family:'OpenDyslexic Nerd Font';text-decoration:underline;text-decoration-line:underline;letter-spacing:0px;word-spacing:0px;fill:#ffffff;stroke-width:1px">
      <path
         d="M 74.159643,80.528632 C 79.797143,80.528632 83.427143,84.598632 83.427143,90.923632 83.427143,97.248632 79.797143,101.31863 74.159643,101.31863 68.522143,101.31863 64.864643,97.276132 64.864643,90.923632 64.864643,84.598632 68.522143,80.528632 74.159643,80.528632 Z M 74.159643,82.728632 C 70.227143,82.728632 67.724643,85.863632 67.724643,90.923632 67.724643,95.076132 70.227143,96.176132 74.159643,96.176132 78.092143,96.176132 80.567143,95.076132 80.567143,90.923632 80.567143,85.863632 78.092143,82.728632 74.159643,82.728632 Z"
         id="path829" />
      <path
         d="M 90.60462,106.65363 H 87.44212 L 88.65212,97.441132 V 86.111132 H 91.12712 L 90.71462,88.173632 C 91.73212,86.386132 93.32712,85.533632 95.52712,85.533632 99.18462,85.533632 101.68712,88.696132 101.68712,93.426132 101.68712,98.156132 99.18462,101.31863 95.52712,101.31863 93.32712,101.31863 91.73212,100.46613 90.71462,98.678632 Z M 100.09212,92.986132 C 100.09212,89.356132 98.52462,87.183632 95.88462,87.183632 93.27212,87.183632 91.70462,89.356132 91.70462,92.986132 91.70462,96.643632 93.40962,97.248632 96.02212,97.248632 98.63462,97.248632 100.09212,96.643632 100.09212,92.986132 Z"
         id="path831" />
      <path
         d="M 118.8471,92.793632 H 107.6271 C 107.6821,96.808632 109.6621,97.496132 112.9346,97.661132 114.8321,97.661132 116.6196,97.688632 118.3796,96.753632 L 118.4346,100.16363 C 116.6471,100.93363 114.7771,101.31863 112.8521,101.31863 108.0671,101.15363 105.0421,98.321132 105.0421,93.563632 105.2346,88.641132 107.9021,85.533632 112.4396,85.533632 116.4546,85.698632 118.5171,87.568632 118.8471,91.858632 Z M 116.7021,90.621132 C 116.4271,88.943632 114.8871,86.826132 112.4396,86.826132 109.6896,86.826132 107.9021,88.833632 107.9021,90.648632 Z"
         id="path833" />
      <path
         d="M 135.37455,100.93363 H 131.85455 L 132.37705,91.803632 C 132.37705,88.943632 131.52455,87.541132 129.32455,87.541132 126.29955,87.541132 124.86955,89.356132 124.86955,92.298632 L 125.28205,100.93363 H 121.84455 L 122.25705,85.753632 H 124.73205 V 87.568632 C 125.91455,86.633632 127.50955,85.533632 129.59955,85.533632 133.03705,85.533632 134.79705,87.706132 134.98955,91.858632 Z"
         id="path835" />
      <path
         d="M 138.81202,100.93363 V 80.886132 H 144.39452 C 152.17702,80.886132 155.66952,84.021132 155.66952,90.896132 155.66952,97.798632 152.12202,100.93363 144.39452,100.93363 Z M 141.67202,83.113632 V 95.873632 H 144.94452 C 150.47202,95.873632 152.47952,94.718632 152.89202,90.621132 152.89202,85.616132 150.47202,83.113632 144.94452,83.113632 Z"
         id="path837" />
      <path
         d="M 169.85945,85.891132 H 172.47195 L 166.14695,102.33613 C 164.38695,106.26863 163.12195,106.92863 160.92195,106.92863 H 158.66695 V 103.65613 H 160.39945 C 161.74695,103.65613 162.29695,102.96863 163.23195,101.81363 L 164.27695,99.696132 157.84195,85.891132 H 160.45445 L 165.78945,94.636132 Z"
         id="path839" />
      <path
         d="M 185.86437,88.393632 C 184.46187,87.706132 182.94937,87.321132 181.35437,87.321132 178.87937,87.321132 177.53187,88.228632 177.53187,89.713632 177.53187,91.061132 178.32937,91.693632 180.96937,92.271132 L 181.82187,92.463632 C 185.31437,93.206132 186.66187,94.333632 186.66187,96.781132 186.66187,99.586132 184.32437,101.31863 180.44687,101.31863 178.85187,101.31863 177.11937,101.01613 175.16687,100.38363 V 96.753632 C 177.00937,97.716132 178.76937,98.183632 180.50187,98.183632 182.83937,98.183632 183.85687,97.468632 183.85687,96.176132 183.55437,95.626132 183.30687,95.241132 183.08687,94.993632 182.89437,94.746132 182.01437,94.471132 180.47437,94.113632 L 179.62187,93.921132 C 176.56937,93.288632 175.27687,92.298632 175.27687,89.961132 175.27687,87.128632 177.36687,85.533632 181.05187,85.533632 182.89437,85.533632 184.51687,85.808632 185.86437,86.331132 Z"
         id="path841" />
      <path
         d="M 196.06685,100.93363 H 190.67685 C 190.78685,93.976132 190.97935,88.228632 191.36435,81.243632 H 193.70185 C 193.37185,87.183632 193.20685,91.913632 193.15185,97.881132 H 196.06685 Z"
         id="path843" />
      <path
         d="M 213.88682,92.793632 H 202.66682 C 202.72182,96.808632 204.70182,97.496132 207.97432,97.661132 209.87182,97.661132 211.65932,97.688632 213.41932,96.753632 L 213.47432,100.16363 C 211.68682,100.93363 209.81682,101.31863 207.89182,101.31863 203.10682,101.15363 200.08182,98.321132 200.08182,93.563632 200.27432,88.641132 202.94182,85.533632 207.47932,85.533632 211.49432,85.698632 213.55682,87.568632 213.88682,91.858632 Z M 211.74182,90.621132 C 211.46682,88.943632 209.92682,86.826132 207.47932,86.826132 204.72932,86.826132 202.94182,88.833632 202.94182,90.648632 Z"
         id="path845" />
      <path
         d="M 224.08925,92.051132 228.62675,85.891132 H 231.12925 L 225.82175,93.893632 231.67925,100.93363 H 227.69175 L 224.25425,95.708632 220.54175,100.93363 H 216.55425 L 222.54925,93.728632 217.32425,85.891132 H 219.96425 Z"
         id="path847" />
      <path
         d="M 238.44422,83.168632 H 235.96922 L 236.10672,80.033632 H 238.30672 Z M 235.69422,100.93363 C 236.05172,95.653632 236.13422,90.621132 236.10672,85.891132 H 238.30672 C 238.14172,90.401132 238.27922,95.461132 238.85672,100.93363 Z"
         id="path849" />
      <path
         d="M 254.77921,88.641132 C 253.37671,87.871132 251.97421,87.486132 250.54421,87.486132 247.32671,87.486132 245.62171,89.768632 245.62171,93.426132 245.86921,96.011132 247.21671,96.891132 250.43421,97.056132 251.86421,97.056132 253.32171,97.248632 254.72421,96.478632 L 254.77921,100.35613 C 253.40421,100.98863 251.94671,101.31863 250.26921,101.31863 245.75921,101.31863 242.87171,98.266132 242.87171,93.426132 242.87171,88.531132 245.75921,85.533632 250.43421,85.533632 251.94671,85.533632 253.43171,85.836132 254.77921,86.468632 Z"
         id="path851" />
      <path
         d="M 272.98413,100.93363 H 269.54663 L 270.09663,81.298632 H 273.47913 L 282.08663,97.111132 282.49913,80.886132 H 285.00163 V 100.93363 H 281.06913 L 272.18663,84.158632 Z"
         id="path853" />
      <path
         d="M 302.82159,92.793632 H 291.60159 C 291.65659,96.808632 293.63659,97.496132 296.90909,97.661132 298.80659,97.661132 300.59409,97.688632 302.35409,96.753632 L 302.40909,100.16363 C 300.62159,100.93363 298.75159,101.31863 296.82659,101.31863 292.04159,101.15363 289.01659,98.321132 289.01659,93.563632 289.20909,88.641132 291.87659,85.533632 296.41409,85.533632 300.42909,85.698632 302.49159,87.568632 302.82159,91.858632 Z M 300.67659,90.621132 C 300.40159,88.943632 298.86159,86.826132 296.41409,86.826132 293.66409,86.826132 291.87659,88.833632 291.87659,90.648632 Z"
         id="path855" />
      <path
         d="M 315.96655,88.476132 C 315.41655,88.146132 314.89405,88.146132 314.09655,88.146132 311.31905,88.146132 310.16405,90.181132 310.16405,93.426132 L 310.71405,100.93363 H 306.83655 C 307.96405,94.718632 308.10155,92.463632 307.88155,86.028632 H 310.16405 V 87.568632 C 310.65905,87.183632 312.44655,85.808632 314.83905,85.808632 315.16905,85.808632 315.44405,85.836132 315.93905,85.946132 Z"
         id="path857" />
      <path
         d="M 329.22147,80.033632 H 331.69647 L 331.42147,100.93363 H 328.94647 V 98.678632 C 327.92897,100.46613 326.33397,101.31863 324.13397,101.31863 320.50397,101.31863 317.97397,98.156132 317.97397,93.426132 317.97397,88.696132 320.50397,85.533632 324.13397,85.533632 326.33397,85.533632 327.92897,86.386132 328.94647,88.173632 Z M 319.76147,93.151132 C 320.17397,95.763632 321.27397,96.836132 323.88647,96.836132 326.49897,96.836132 327.76397,96.286132 327.84647,92.958632 327.76397,89.328632 326.58147,87.321132 323.96897,87.321132 321.32897,87.321132 319.76147,89.521132 319.76147,93.151132 Z"
         id="path859" />
      <path
         d="M 349.84639,100.93363 H 346.46389 L 347.01389,80.886132 H 357.98639 V 83.306132 H 349.70889 L 349.46139,89.081132 H 357.27139 V 91.886132 H 349.59889 Z"
         id="path861" />
      <path
         d="M 368.90386,85.533632 C 373.19386,85.533632 375.80636,88.476132 375.80636,93.426132 375.80636,98.348632 373.19386,101.31863 368.90386,101.31863 364.58636,101.31863 362.00136,98.348632 362.00136,93.426132 362.00136,88.476132 364.58636,85.533632 368.90386,85.533632 Z M 368.90386,87.348632 C 366.26386,87.348632 364.61386,89.493632 364.61386,92.986132 364.61386,96.506132 366.23636,97.056132 368.90386,97.056132 371.54386,97.056132 373.19386,96.478632 373.19386,92.986132 373.19386,89.548632 371.54386,87.348632 368.90386,87.348632 Z"
         id="path863" />
      <path
         d="M 393.35134,100.93363 H 389.83134 L 390.35384,91.803632 C 390.35384,88.943632 389.50134,87.541132 387.30134,87.541132 384.27634,87.541132 382.84634,89.356132 382.84634,92.298632 L 383.25884,100.93363 H 379.82134 L 380.23384,85.753632 H 382.70884 V 87.568632 C 383.89134,86.633632 385.48634,85.533632 387.57634,85.533632 391.01384,85.533632 392.77384,87.706132 392.96634,91.858632 Z"
         id="path865" />
      <path
         d="M 398.4113,85.891132 398.5488,82.151132 H 401.1613 L 401.0238,85.891132 H 404.5163 V 87.816132 H 401.0238 L 400.8863,94.361132 C 400.8863,96.836132 401.4088,97.248632 403.4438,97.248632 H 406.0013 V 100.93363 H 403.4438 C 399.6488,100.93363 398.2738,99.751132 398.2738,95.983632 L 398.4113,87.816132 H 396.5963 V 85.891132 Z"
         id="path867" />
    </g>
    <g
       aria-label="abcdefghijklmnopqrstuvwxyzABCDEFGHIJKLMNOPQRSTUVWXYZ oO08 iIlL1 {} [] g9qCGQ ~-+=&gt;"
       id="text4140"
       style="font-size:27.5px;line-height:125%;font-family:'OpenDyslexic Nerd Font';letter-spacing:0px;word-spacing:0px;fill:#ffffff;stroke-width:1px">
      <path
         d="M 74.781903,140.93362 H 73.206903 V 139.56862 C 72.489403,140.61862 71.456903,141.17862 69.899403,141.17862 67.956903,141.17862 66.696903,139.98862 66.696903,138.15112 66.696903,135.99862 68.149403,134.89612 71.001903,134.89612 H 73.206903 V 134.73862 C 73.206903,133.28612 72.331903,132.41112 70.494403,132.28862 69.409403,132.28862 68.359403,132.55112 67.396903,133.07612 V 131.79862 C 68.551903,131.36112 69.636903,131.13362 70.651903,131.13362 73.434403,131.13362 74.781903,132.55112 74.781903,135.47362 Z M 72.331903,136.05112 H 70.914403 C 68.621903,136.05112 68.026903,136.54112 68.009403,137.71362 68.184403,138.69362 69.006903,138.78112 70.144403,138.78112 71.719403,138.78112 72.331903,138.44862 72.331903,136.40112 Z"
         style="font-size:17.5px"
         id="path870" />
      <path
         d="M 78.2644,139.20112 C 78.7194,140.46112 79.4719,141.17862 81.9744,141.17862 84.3019,141.17862 85.9119,139.16612 85.9119,136.15612 85.9119,133.14612 84.3019,131.13362 81.9744,131.13362 80.5744,131.13362 79.5769,131.50112 78.9294,132.63862 L 79.0869,127.63362 H 77.5119 C 77.8444,133.14612 77.9144,138.46612 78.2644,139.20112 Z M 84.8969,135.80612 C 84.6344,137.78362 83.7419,138.27362 82.3419,138.37862 80.0669,138.37862 79.9094,137.64362 79.6819,135.87612 79.6819,133.56612 80.6794,132.25362 82.3419,132.25362 84.0219,132.25362 84.8269,133.58362 84.8969,135.80612 Z"
         style="font-size:17.5px"
         id="path872" />
      <path
         d="M 95.62439,133.11112 C 94.73189,132.62112 93.83939,132.37612 92.92939,132.37612 90.88189,132.37612 89.79689,133.82862 89.79689,136.15612 89.95439,137.80112 90.81189,138.36112 92.85939,138.46612 93.76939,138.46612 94.69689,138.58862 95.58939,138.09862 L 95.62439,140.56612 C 94.74939,140.96862 93.82189,141.17862 92.75439,141.17862 89.88439,141.17862 88.04689,139.23612 88.04689,136.15612 88.04689,133.04112 89.88439,131.13362 92.85939,131.13362 93.82189,131.13362 94.76689,131.32612 95.62439,131.72862 Z"
         style="font-size:17.5px"
         id="path874" />
      <path
         d="M 104.74186,127.63362 H 106.31686 L 106.14186,140.93362 H 104.56686 V 139.49862 C 103.91936,140.63612 102.90436,141.17862 101.50436,141.17862 99.194358,141.17862 97.584358,139.16612 97.584358,136.15612 97.584358,133.14612 99.194358,131.13362 101.50436,131.13362 102.90436,131.13362 103.91936,131.67612 104.56686,132.81362 Z M 98.721858,135.98112 C 98.984358,137.64362 99.684358,138.32612 101.34686,138.32612 103.00936,138.32612 103.81436,137.97612 103.86686,135.85862 103.81436,133.54862 103.06186,132.27112 101.39936,132.27112 99.719358,132.27112 98.721858,133.67112 98.721858,135.98112 Z"
         style="font-size:17.5px"
         id="path876" />
      <path
         d="M 117.65683,135.75362 H 110.51683 C 110.55183,138.30862 111.81183,138.74612 113.89433,138.85112 115.10183,138.85112 116.23933,138.86862 117.35933,138.27362 L 117.39433,140.44362 C 116.25683,140.93362 115.06683,141.17862 113.84183,141.17862 110.79683,141.07362 108.87183,139.27112 108.87183,136.24362 108.99433,133.11112 110.69183,131.13362 113.57933,131.13362 116.13433,131.23862 117.44683,132.42862 117.65683,135.15862 Z M 116.29183,134.37112 C 116.11683,133.30362 115.13683,131.95612 113.57933,131.95612 111.82933,131.95612 110.69183,133.23362 110.69183,134.38862 Z"
         style="font-size:17.5px"
         id="path878" />
      <path
         d="M 125.79431,127.98362 V 129.27862 L 124.37681,129.12112 C 123.58931,129.12112 123.30931,129.33112 123.30931,130.52112 L 123.37931,131.36112 H 125.88181 V 132.91862 H 123.37931 L 123.64181,140.93362 H 121.38431 L 121.62931,132.91862 H 120.21181 V 131.36112 H 121.62931 L 121.71681,130.69612 C 121.71681,128.56112 122.92431,127.80862 124.39431,127.80862 Z"
         style="font-size:17.5px"
         id="path880" />
      <path
         d="M 135.61179,131.36112 H 137.18679 L 136.92429,139.74362 C 136.78429,144.15362 135.41929,145.51862 132.42679,145.51862 131.32429,145.51862 130.36179,145.34362 129.43429,145.01112 V 142.21112 C 130.36179,142.71862 131.25429,142.94612 132.18179,142.94612 134.24679,142.94612 135.12179,141.16112 135.34929,140.02362 V 139.49862 C 134.82429,140.28612 133.77429,140.93362 132.37429,140.93362 130.02929,140.93362 128.45429,138.99112 128.45429,136.03362 128.45429,133.07612 130.02929,131.13362 132.37429,131.13362 133.77429,131.13362 134.78929,131.69362 135.43679,132.81362 Z M 134.75429,135.94612 C 134.75429,133.65362 133.77429,132.35862 132.07679,132.35862 130.39679,132.35862 129.39929,133.65362 129.39929,135.94612 129.62679,138.20362 130.27429,138.37862 131.95429,138.37862 133.65179,138.37862 134.75429,138.20362 134.75429,135.94612 Z"
         style="font-size:17.5px"
         id="path882" />
      <path
         d="M 148.10676,140.93362 H 146.11176 L 146.35676,135.21112 C 146.46176,133.02362 145.65676,132.32362 144.23926,132.32362 142.54176,132.32362 141.49176,133.65362 141.49176,135.52612 L 141.66676,140.93362 H 139.74176 L 140.09176,127.63362 H 141.66676 L 141.49176,132.84862 C 142.24426,131.69362 143.25926,131.13362 144.58926,131.13362 146.79426,131.13362 147.93176,132.51612 147.93176,135.15862 Z"
         style="font-size:17.5px"
         id="path884" />
      <path
         d="M 152.41174,129.62862 H 150.83674 L 150.92424,127.63362 H 152.32424 Z M 150.66174,140.93362 C 150.88924,137.57362 150.94174,134.37112 150.92424,131.36112 H 152.32424 C 152.21924,134.23112 152.30674,137.45112 152.67424,140.93362 Z"
         style="font-size:17.5px"
         id="path886" />
      <path
         d="M 158.93924,129.62862 H 157.36424 L 157.45174,127.63362 H 158.85174 Z M 157.08424,131.41362 158.57174,131.43112 158.23924,141.17862 C 158.18674,143.61112 157.29424,144.76612 155.22924,144.85362 L 154.37174,144.83612 154.42424,142.47362 H 155.08924 C 156.29674,142.38612 156.57674,142.12362 156.68174,140.12862 Z"
         style="font-size:17.5px"
         id="path888" />
      <path
         d="M 163.59424,140.93362 H 161.49424 L 161.84424,127.63362 H 163.41924 L 163.33174,135.14112 166.56924,131.36112 H 168.58174 L 164.95924,135.84112 170.24424,140.93362 H 167.00674 L 163.33174,136.43612 Z"
         style="font-size:17.5px"
         id="path890" />
      <path
         d="M 176.22923,140.93362 H 172.79923 C 172.86923,136.50612 172.99173,132.84862 173.23673,128.40362 H 174.72423 C 174.51423,132.18362 174.40923,135.19362 174.37423,138.99112 H 176.22923 Z"
         style="font-size:17.5px"
         id="path892" />
      <path
         d="M 186.72921,133.19862 C 187.51671,131.79862 188.42671,131.13362 189.89671,131.13362 191.89171,131.13362 193.01171,132.58612 193.01171,135.15862 L 193.18671,140.93362 H 190.84171 L 191.43671,134.94862 C 191.43671,133.11112 191.05171,132.23612 189.72171,132.23612 188.07671,132.23612 187.25421,133.65362 187.16671,135.52612 L 186.90421,140.93362 H 184.73421 L 185.50421,134.86112 C 185.50421,133.02362 184.85671,132.16612 183.50921,132.16612 181.89921,132.16612 180.79671,133.67112 180.79671,135.52612 L 180.97171,140.93362 H 178.78421 L 179.22171,131.36112 H 180.79671 L 180.62171,132.84862 C 181.33921,131.67612 182.31921,131.13362 183.70171,131.13362 185.10171,131.13362 186.25671,131.85112 186.72921,133.19862 Z"
         style="font-size:17.5px"
         id="path894" />
      <path
         d="M 204.35172,140.93362 H 202.11172 L 202.44422,135.12362 C 202.44422,133.30362 201.90172,132.41112 200.50172,132.41112 198.57672,132.41112 197.66672,133.56612 197.66672,135.43862 L 197.92922,140.93362 H 195.74172 L 196.00422,131.27362 H 197.57922 V 132.42862 C 198.33172,131.83362 199.34672,131.13362 200.67672,131.13362 202.86422,131.13362 203.98422,132.51612 204.10672,135.15862 Z"
         style="font-size:17.5px"
         id="path896" />
      <path
         d="M 211.31671,131.13362 C 214.04671,131.13362 215.70921,133.00612 215.70921,136.15612 215.70921,139.28862 214.04671,141.17862 211.31671,141.17862 208.56921,141.17862 206.92421,139.28862 206.92421,136.15612 206.92421,133.00612 208.56921,131.13362 211.31671,131.13362 Z M 211.31671,132.28862 C 209.63671,132.28862 208.58671,133.65362 208.58671,135.87612 208.58671,138.11612 209.61921,138.46612 211.31671,138.46612 212.99671,138.46612 214.04671,138.09862 214.04671,135.87612 214.04671,133.68862 212.99671,132.28862 211.31671,132.28862 Z"
         style="font-size:17.5px"
         id="path898" />
      <path
         d="M 220.27669,144.57362 H 218.26419 L 219.03419,138.71112 V 131.50112 H 220.60919 L 220.34669,132.81362 C 220.99419,131.67612 222.00919,131.13362 223.40919,131.13362 225.73669,131.13362 227.32919,133.14612 227.32919,136.15612 227.32919,139.16612 225.73669,141.17862 223.40919,141.17862 222.00919,141.17862 220.99419,140.63612 220.34669,139.49862 Z M 226.31419,135.87612 C 226.31419,133.56612 225.31669,132.18362 223.63669,132.18362 221.97419,132.18362 220.97669,133.56612 220.97669,135.87612 220.97669,138.20362 222.06169,138.58862 223.72419,138.58862 225.38669,138.58862 226.31419,138.20362 226.31419,135.87612 Z"
         style="font-size:17.5px"
         id="path900" />
      <path
         d="M 238.19668,144.55612 235.97418,144.57362 236.44668,139.49862 C 235.79918,140.63612 234.78418,141.17862 233.38418,141.17862 231.07418,141.17862 229.46418,139.16612 229.46418,136.15612 229.46418,133.14612 231.07418,131.13362 233.38418,131.13362 234.78418,131.13362 235.79918,131.67612 236.44668,132.81362 L 236.70918,131.36112 H 238.23168 L 237.68918,141.49362 239.61418,143.34862 Z M 230.51418,135.92862 C 230.51418,138.25612 231.47668,138.55362 233.13918,138.55362 234.80168,138.55362 235.86918,138.25612 235.86918,135.92862 235.86918,133.61862 234.85418,132.21862 233.19168,132.21862 231.51168,132.21862 230.51418,133.61862 230.51418,135.92862 Z"
         style="font-size:17.5px"
         id="path902" />
      <path
         d="M 247.99666,133.00612 C 247.64666,132.79612 247.31416,132.79612 246.80666,132.79612 245.03916,132.79612 244.30416,134.09112 244.30416,136.15612 L 244.65416,140.93362 H 242.18666 C 242.90416,136.97862 242.99166,135.54362 242.85166,131.44862 H 244.30416 V 132.42862 C 244.61916,132.18362 245.75666,131.30862 247.27916,131.30862 247.48916,131.30862 247.66416,131.32612 247.97916,131.39612 Z"
         style="font-size:17.5px"
         id="path904" />
      <path
         d="M 257.35914,132.95362 C 256.46664,132.51612 255.50414,132.27112 254.48914,132.27112 252.91414,132.27112 252.05664,132.84862 252.05664,133.79362 252.05664,134.65112 252.56414,135.05362 254.24414,135.42112 L 254.78664,135.54362 C 257.00914,136.01612 257.86664,136.73362 257.86664,138.29112 257.86664,140.07612 256.37914,141.17862 253.91164,141.17862 252.89664,141.17862 251.79414,140.98612 250.55164,140.58362 V 138.27362 C 251.72414,138.88612 252.84414,139.18362 253.94664,139.18362 255.43414,139.18362 256.08164,138.72862 256.08164,137.90612 255.88914,137.55612 255.73164,137.31112 255.59164,137.15362 255.46914,136.99612 254.90914,136.82112 253.92914,136.59362 L 253.38664,136.47112 C 251.44414,136.06862 250.62164,135.43862 250.62164,133.95112 250.62164,132.14862 251.95164,131.13362 254.29664,131.13362 255.46914,131.13362 256.50164,131.30862 257.35914,131.64112 Z"
         style="font-size:17.5px"
         id="path906" />
      <path
         d="M 261.57663,131.36112 261.66413,128.98112 H 263.32663 L 263.23913,131.36112 H 265.46163 V 132.58612 H 263.23913 L 263.15163,136.75112 C 263.15163,138.32612 263.48413,138.58862 264.77913,138.58862 H 266.40663 V 140.93362 H 264.77913 C 262.36413,140.93362 261.48913,140.18112 261.48913,137.78362 L 261.57663,132.58612 H 260.42163 V 131.36112 Z"
         style="font-size:17.5px"
         id="path908" />
      <path
         d="M 268.96161,131.36112 H 270.27411 V 135.73612 C 270.39661,137.53862 270.99161,138.44862 272.40911,138.44862 274.10661,138.44862 275.03411,137.29362 275.15661,135.42112 L 275.33161,131.36112 H 277.06411 L 276.88911,140.93362 H 275.33161 L 275.40161,139.46362 C 274.64911,140.61862 273.65161,141.17862 272.32161,141.17862 270.13411,141.17862 268.96161,139.79612 268.96161,137.15362 Z"
         style="font-size:17.5px"
         id="path910" />
      <path
         d="M 285.4291,140.93362 H 283.1191 L 279.6191,131.36112 H 281.2816 L 284.2741,138.37862 287.2666,131.36112 H 288.9291 Z"
         style="font-size:17.5px"
         id="path912" />
      <path
         d="M 296.12158,140.93362 H 294.00408 L 291.50158,131.36112 H 293.07658 L 295.03658,138.06362 296.82158,134.52862 H 299.02658 L 300.81158,138.06362 302.77158,131.36112 H 304.34658 L 301.84408,140.93362 H 299.65658 L 297.92408,136.59362 Z"
         style="font-size:17.5px"
         id="path914" />
      <path
         d="M 311.27656,135.28112 314.16406,131.36112 H 315.75656 L 312.37906,136.45362 316.10656,140.93362 H 313.56906 L 311.38156,137.60862 309.01906,140.93362 H 306.48156 L 310.29656,136.34862 306.97156,131.36112 H 308.65156 Z"
         style="font-size:17.5px"
         id="path916" />
      <path
         d="M 326.30905,131.36112 H 327.97155 L 323.94655,141.82612 C 322.82655,144.32862 322.02155,144.74862 320.62155,144.74862 H 319.18655 V 142.66612 H 320.28905 C 321.14655,142.66612 321.49655,142.22862 322.09155,141.49362 L 322.75655,140.14612 318.66155,131.36112 H 320.32405 L 323.71905,136.92612 Z"
         style="font-size:17.5px"
         id="path918" />
      <path
         d="M 336.63404,132.53362 H 330.92904 V 131.36112 H 338.31404 V 132.79612 L 332.90654,138.81612 H 338.22654 V 140.93362 H 330.54404 V 138.64112 Z"
         style="font-size:17.5px"
         id="path920" />
      <path
         d="M 69.041903,162.80862 H 66.696903 L 71.736903,150.05112 H 73.364403 L 78.386903,162.80862 H 75.919403 L 75.429403,160.72612 H 69.689403 Z M 70.196903,158.69612 H 74.904403 L 72.541903,151.62612 Z"
         style="font-size:17.5px"
         id="path922" />
      <path
         d="M 80.941889,162.80862 V 150.05112 H 84.931889 C 87.556889,150.05112 89.044389,151.18862 89.044389,153.20112 89.044389,154.77612 88.291889,155.70362 86.891889,155.93112 89.149389,156.29862 90.164389,157.50612 90.164389,159.23862 90.164389,161.51362 88.396889,162.80862 85.526889,162.80862 Z M 82.674389,151.20612 V 155.31862 H 85.229389 C 86.909389,155.31862 87.731889,154.68862 87.731889,153.39362 87.731889,152.09862 86.909389,151.20612 85.229389,151.20612 Z M 82.674389,156.71862 V 160.27112 H 85.439389 C 87.294389,160.27112 88.169389,159.86862 88.169389,158.27612 88.169389,157.99612 87.959389,157.66362 87.504389,157.27862 87.049389,156.91112 86.366889,156.71862 85.439389,156.71862 Z"
         style="font-size:17.5px"
         id="path924" />
      <path
         d="M 103.00936,152.85112 C 101.85436,151.76612 100.54186,151.24112 99.05436,151.24112 96.14936,151.24112 94.53936,153.06112 94.53936,156.43862 94.59186,159.43112 96.14936,160.44612 99.05436,160.44612 100.54186,160.44612 101.85436,159.90362 103.00936,158.81862 V 161.82862 C 101.80186,162.65112 100.45436,163.05362 98.94936,163.05362 95.08186,163.05362 92.71936,160.53362 92.71936,156.43862 92.71936,152.34362 95.08186,149.82362 98.94936,149.82362 100.48936,149.82362 101.81936,150.22612 103.00936,151.03112 Z"
         style="font-size:17.5px"
         id="path926" />
      <path
         d="M 105.56435,162.80862 V 150.05112 H 109.11685 C 114.06935,150.05112 116.29185,152.04612 116.29185,156.42112 116.29185,160.81362 114.03435,162.80862 109.11685,162.80862 Z M 107.38435,151.46862 V 159.58862 H 109.46685 C 112.98435,159.58862 114.26185,158.85362 114.52435,156.24612 114.52435,153.06112 112.98435,151.46862 109.46685,151.46862 Z"
         style="font-size:17.5px"
         id="path928" />
      <path
         d="M 127.07183,162.80862 H 118.84683 V 150.05112 H 126.91433 V 151.50362 H 120.57933 V 155.28362 H 126.65183 V 156.73612 H 120.57933 V 160.16612 H 127.07183 Z"
         style="font-size:17.5px"
         id="path930" />
      <path
         d="M 131.77932,162.80862 H 129.62682 L 129.97682,150.05112 H 136.95932 V 151.59112 H 131.69182 L 131.53432,155.26612 H 136.50432 V 157.05112 H 131.62182 Z"
         style="font-size:17.5px"
         id="path932" />
      <path
         d="M 148.70179,158.24112 H 145.95429 V 156.40362 H 150.66179 V 161.61862 C 149.33179,162.56362 147.70429,163.05362 145.88429,163.05362 141.89429,163.05362 139.51429,160.60362 139.51429,156.43862 139.51429,152.27362 141.89429,149.82362 145.88429,149.82362 147.54679,149.82362 149.06929,150.24362 150.32929,151.03112 V 152.69362 C 149.05179,151.60862 147.61679,151.06612 146.02429,151.06612 142.90929,151.06612 141.33429,152.81612 141.33429,156.26362 141.45679,159.41362 142.90929,160.27112 146.02429,160.27112 147.24929,160.27112 148.28179,160.06112 148.70179,159.62362 Z"
         style="font-size:17.5px"
         id="path934" />
      <path
         d="M 155.21177,162.80862 H 153.21677 L 153.39177,150.05112 H 155.21177 V 156.14112 H 161.12677 V 150.05112 H 162.94677 L 163.12177,162.80862 H 161.12677 V 158.52112 H 155.21177 Z"
         style="font-size:17.5px"
         id="path936" />
      <path
         d="M 165.67677,162.80862 C 165.93927,158.55612 165.93927,154.30362 166.02677,150.05112 H 167.49677 C 167.54927,154.30362 167.51427,158.55612 167.74177,162.80862 Z"
         style="font-size:17.5px"
         id="path938" />
      <path
         d="M 172.99173,150.03362 174.81173,150.15612 174.35673,162.26612 C 174.28673,165.34612 173.20173,166.44862 170.48923,166.50112 L 169.49173,166.39612 169.45673,163.57862 170.33173,163.77112 C 171.85423,163.70112 172.51923,162.87862 172.53673,162.16112 Z"
         style="font-size:17.5px"
         id="path940" />
      <path
         d="M 179.60673,162.80862 H 177.36673 L 177.71673,150.05112 H 179.43173 L 179.27423,155.44112 184.99673,150.05112 H 187.21923 L 180.88423,156.00112 187.67423,162.80862 H 183.59673 L 179.27423,156.66612 Z"
         style="font-size:17.5px"
         id="path942" />
      <path
         d="M 198.08671,162.80862 H 190.22921 L 190.40421,150.05112 H 192.13671 L 192.04921,160.16612 H 198.26171 Z"
         style="font-size:17.5px"
         id="path944" />
      <path
         d="M 203.0042,162.80862 H 200.8167 L 201.0792,150.05112 H 203.6517 L 206.8192,157.62862 210.1792,150.05112 H 212.5767 L 212.8392,162.80862 H 210.6342 L 210.9842,151.60862 207.8692,160.77862 H 205.7867 L 202.6717,151.60862 Z"
         style="font-size:17.5px"
         id="path946" />
      <path
         d="M 217.58167,162.80862 H 215.39417 L 215.74417,150.31362 H 217.89667 L 223.37417,160.37612 223.63667,150.05112 H 225.22917 V 162.80862 H 222.72667 L 217.07417,152.13362 Z"
         style="font-size:17.5px"
         id="path948" />
      <path
         d="M 233.69914,149.82362 C 237.28664,149.82362 239.59664,152.41362 239.59664,156.43862 239.59664,160.46362 237.28664,163.05362 233.69914,163.05362 230.11164,163.05362 227.78414,160.48112 227.78414,156.43862 227.78414,152.41362 230.11164,149.82362 233.69914,149.82362 Z M 233.69914,151.22362 C 231.19664,151.22362 229.60414,153.21862 229.60414,156.43862 229.60414,159.08112 231.19664,159.78112 233.69914,159.78112 236.20164,159.78112 237.77664,159.08112 237.77664,156.43862 237.77664,153.21862 236.20164,151.22362 233.69914,151.22362 Z"
         style="font-size:17.5px"
         id="path950" />
      <path
         d="M 244.21661,162.80862 H 242.15161 L 242.67661,150.05112 H 246.47411 C 249.34411,150.05112 250.81411,151.36362 250.81411,153.86612 250.81411,156.38612 249.34411,157.85612 246.47411,157.85612 H 244.39161 Z M 244.47911,150.78612 244.30411,155.58112 H 246.64911 C 248.36411,155.58112 249.34411,154.72362 249.34411,153.18362 249.34411,151.64362 248.36411,150.78612 246.64911,150.78612 Z"
         style="font-size:17.5px"
         id="path952" />
      <path
         d="M 265.79409,165.06612 H 261.73409 L 259.93159,163.01862 C 259.56409,163.05362 259.40659,163.05362 259.21409,163.05362 255.74909,163.05362 253.38659,160.46362 253.38659,156.43862 253.38659,152.41362 255.71409,149.82362 259.30159,149.82362 262.88909,149.82362 265.19909,152.41362 265.19909,156.43862 265.19909,159.41362 264.09659,160.95362 263.08159,162.07362 Z M 259.30159,151.22362 C 256.79909,151.22362 255.20659,153.21862 255.20659,156.43862 255.20659,159.08112 257.16659,159.65862 258.19909,159.78112 L 259.00409,159.88612 259.70409,158.71362 C 260.38659,159.01112 261.06909,159.22112 261.76909,159.30862 262.83659,158.73112 263.37909,157.76862 263.37909,156.43862 263.37909,153.21862 261.80409,151.22362 259.30159,151.22362 Z"
         style="font-size:17.5px"
         id="path954" />
      <path
         d="M 274.40408,156.82362 C 275.13908,157.06862 275.82158,157.89112 276.53908,159.32612 L 278.28908,162.80862 H 275.83908 L 274.54408,159.53612 C 273.70408,157.82112 273.07408,157.41862 271.70908,157.41862 H 270.41408 V 162.80862 H 268.34908 V 150.05112 H 272.25158 C 274.82408,150.05112 276.32908,151.25862 276.32908,153.72612 276.32908,155.33612 275.59408,156.42112 274.40408,156.82362 Z M 270.25658,150.96112 V 155.65112 H 272.42658 C 273.73908,155.65112 275.10408,154.75862 275.10408,153.72612 275.10408,151.53862 273.73908,150.96112 272.42658,150.96112 Z"
         style="font-size:17.5px"
         id="path956" />
      <path
         d="M 289.05156,152.15112 C 287.75656,151.52112 286.60156,151.22362 285.51656,151.22362 283.64406,151.22362 282.57656,151.97612 282.57656,153.32362 282.57656,154.44362 283.13656,154.95112 285.02656,155.30112 L 286.05906,155.51112 C 288.63156,156.00112 289.82156,157.20862 289.82156,159.29112 289.82156,161.75862 288.14156,163.05362 284.93906,163.05362 283.73156,163.05362 282.36656,162.79112 280.89656,162.24862 V 159.51862 C 282.29656,160.30612 283.64406,160.70862 284.93906,160.70862 286.91656,160.70862 288.01906,159.74612 288.01906,158.99362 288.01906,158.31112 287.30156,157.50612 285.55156,157.15612 L 284.50156,156.94612 C 281.92906,156.43862 280.84406,155.40612 280.84406,153.46362 280.84406,151.20612 282.52406,149.82362 285.32406,149.82362 286.51406,149.82362 287.75656,150.03362 289.05156,150.47112 Z"
         style="font-size:17.5px"
         id="path958" />
      <path
         d="M 296.92656,151.32862 292.39406,151.50362 V 150.05112 H 303.19156 V 151.50362 L 298.65906,151.32862 299.00906,162.80862 H 296.59406 Z"
         style="font-size:17.5px"
         id="path960" />
      <path
         d="M 305.74654,150.05112 H 307.56654 L 307.39154,156.61362 C 307.33904,159.34362 308.42404,160.46362 310.64654,160.46362 312.85154,160.46362 313.93654,159.34362 313.86654,156.61362 L 313.69154,150.05112 H 315.51154 V 158.01362 C 315.51154,161.33862 313.84904,163.05362 310.64654,163.05362 307.40904,163.05362 305.74654,161.33862 305.74654,158.01362 Z"
         style="font-size:17.5px"
         id="path962" />
      <path
         d="M 329.77403,150.05112 325.34653,162.80862 H 322.52903 L 318.08403,150.05112 H 319.88653 L 323.92903,159.58862 327.98903,150.05112 Z"
         style="font-size:17.5px"
         id="path964" />
      <path
         d="M 337.87651,162.80862 H 335.18151 L 332.32901,150.05112 H 333.99151 L 336.58151,159.20362 339.60901,153.30612 H 341.11401 L 343.87901,159.37862 346.81901,150.05112 H 348.48151 L 345.27901,162.80862 H 342.75901 L 340.41401,155.91362 Z"
         style="font-size:17.5px"
         id="path966" />
      <path
         d="M 351.0365,162.80862 355.429,156.85862 351.614,150.05112 H 353.469 L 356.654,155.47612 359.839,150.05112 H 361.694 L 357.7565,156.85862 361.9565,162.80862 H 359.174 L 356.514,158.24112 353.8365,162.80862 Z"
         style="font-size:17.5px"
         id="path968" />
      <path
         d="M 368.7115,162.80862 V 158.43362 L 364.529,150.05112 H 366.384 L 369.919,156.57862 373.4365,150.05112 H 375.2915 L 371.039,158.43362 V 162.80862 Z"
         style="font-size:17.5px"
         id="path970" />
      <path
         d="M 385.91397,151.50362 H 378.03897 V 150.05112 H 388.06647 V 151.36362 L 379.99897,160.25362 H 388.25897 V 162.80862 H 377.84647 V 160.37612 Z"
         style="font-size:17.5px"
         id="path972" />
      <path
         d="M 71.089403,174.88362 C 73.819403,174.88362 75.481903,176.75612 75.481903,179.90612 75.481903,183.03862 73.819403,184.92862 71.089403,184.92862 68.341903,184.92862 66.696903,183.03862 66.696903,179.90612 66.696903,176.75612 68.341903,174.88362 71.089403,174.88362 Z M 71.089403,176.03862 C 69.409403,176.03862 68.359403,177.40362 68.359403,179.62612 68.359403,181.86612 69.391903,182.21612 71.089403,182.21612 72.769403,182.21612 73.819403,181.84862 73.819403,179.62612 73.819403,177.43862 72.769403,176.03862 71.089403,176.03862 Z"
         style="font-size:17.5px"
         id="path974" />
      <path
         d="M 83.951882,171.69862 C 87.539382,171.69862 89.849382,174.28862 89.849382,178.31362 89.849382,182.33862 87.539382,184.92862 83.951882,184.92862 80.364382,184.92862 78.036882,182.35612 78.036882,178.31362 78.036882,174.28862 80.364382,171.69862 83.951882,171.69862 Z M 83.951882,173.09862 C 81.449382,173.09862 79.856882,175.09362 79.856882,178.31362 79.856882,180.95612 81.449382,181.65612 83.951882,181.65612 86.454382,181.65612 88.029382,180.95612 88.029382,178.31362 88.029382,175.09362 86.454382,173.09862 83.951882,173.09862 Z"
         style="font-size:17.5px"
         id="path976" />
      <path
         d="M 96.901867,171.69862 C 99.771867,171.69862 101.22437,174.00862 101.22437,178.31362 101.11937,182.61862 99.596867,184.92862 96.726867,184.92862 93.874367,184.92862 92.404367,182.61862 92.404367,178.31362 92.526867,174.00862 94.049367,171.69862 96.901867,171.69862 Z M 96.901867,172.38112 C 95.134367,172.38112 94.224367,173.93862 94.224367,177.07112 94.224367,180.30862 94.959367,181.76112 96.726867,181.76112 98.511867,181.76112 99.351867,180.20362 99.579367,177.07112 99.579367,173.93862 98.686867,172.38112 96.901867,172.38112 Z M 96.849367,179.01362 C 97.566867,179.01362 97.741867,178.15612 97.741867,177.50862 97.741867,176.28362 97.566867,175.53112 96.849367,175.53112 96.044367,175.53112 95.939367,176.51112 95.939367,177.50862 95.939367,178.15612 96.114367,179.01362 96.849367,179.01362 Z"
         style="font-size:17.5px"
         id="path978" />
      <path
         d="M 106.59686,177.89362 C 105.12686,177.52612 104.42686,176.45862 104.42686,175.00612 104.42686,173.18612 105.79186,171.87362 108.32936,171.87362 110.86686,171.87362 112.23186,173.18612 112.23186,175.00612 112.23186,176.45862 111.53186,177.52612 110.06186,177.89362 111.72436,178.27862 112.87936,179.46862 112.87936,181.09612 112.87936,183.56362 111.14686,184.92862 108.32936,184.92862 105.51186,184.92862 103.77936,183.56362 103.77936,181.09612 103.77936,179.46862 104.93436,178.27862 106.59686,177.89362 Z M 105.96686,174.65612 C 105.96686,175.96862 106.84186,176.75612 108.32936,176.75612 109.79936,176.75612 110.69186,175.96862 110.69186,174.65612 110.69186,173.55362 109.79936,172.71362 108.32936,172.71362 106.84186,172.71362 105.96686,173.55362 105.96686,174.65612 Z M 108.32936,178.45362 C 106.68436,178.45362 105.68686,179.38112 105.68686,180.92112 105.68686,181.77862 106.68436,182.79362 108.32936,182.79362 109.97436,182.79362 110.97186,181.76112 110.97186,180.92112 110.97186,179.38112 109.97436,178.45362 108.32936,178.45362 Z"
         style="font-size:17.5px"
         id="path980" />
      <path
         d="M 124.02681,173.37862 H 122.45181 L 122.53931,171.38362 H 123.93931 Z M 122.27681,184.68362 C 122.50431,181.32362 122.55681,178.12112 122.53931,175.11112 H 123.93931 C 123.83431,177.98112 123.92181,181.20112 124.28931,184.68362 Z"
         style="font-size:17.5px"
         id="path982" />
      <path
         d="M 126.84431,184.68362 C 127.10681,180.43112 127.10681,176.17862 127.19431,171.92612 H 128.66431 C 128.71681,176.17862 128.68181,180.43112 128.90931,184.68362 Z"
         style="font-size:17.5px"
         id="path984" />
      <path
         d="M 134.9118,184.68362 H 131.4818 C 131.5518,180.25612 131.6743,176.59862 131.9193,172.15362 H 133.4068 C 133.1968,175.93362 133.0918,178.94362 133.0568,182.74112 H 134.9118 Z"
         style="font-size:17.5px"
         id="path986" />
      <path
         d="M 145.32428,184.68362 H 137.46678 L 137.64178,171.92612 H 139.37428 L 139.28678,182.04112 H 145.49928 Z"
         style="font-size:17.5px"
         id="path988" />
      <path
         d="M 155.64927,184.68362 H 148.29927 V 182.28612 H 151.13427 V 173.50112 L 148.05427,174.11362 V 172.53862 L 151.11677,171.92612 H 152.83177 V 182.28612 H 155.64927 Z"
         style="font-size:17.5px"
         id="path990" />
      <path
         d="M 171.71424,185.90862 171.69674,187.65862 171.17174,187.64112 C 168.33674,187.58862 167.72424,186.94112 167.65424,184.42112 L 167.68924,182.39112 C 167.60174,180.67612 167.19924,180.09862 165.58924,180.06362 H 165.06424 L 165.08174,178.83862 165.60674,178.85612 C 167.23424,178.76862 167.75924,178.33112 167.79424,176.63362 L 167.81174,174.58612 C 167.86424,172.06612 168.61674,171.55862 171.45174,171.50612 H 171.97674 L 171.95924,172.73112 171.38174,172.71362 C 169.64924,172.80112 169.43924,173.02862 169.40424,174.63862 L 169.36924,176.75612 C 169.33424,178.54112 168.86174,179.22362 167.60174,179.50362 168.86174,179.83612 169.19424,180.58862 169.26424,182.12862 L 169.22924,184.26362 C 169.31674,185.41862 169.52674,185.87362 171.13674,185.90862 Z"
         style="font-size:17.5px"
         id="path992" />
      <path
         d="M 173.83171,187.53612 V 186.22362 H 174.42671 C 176.03671,186.22362 176.35171,185.89112 176.35171,184.26362 V 182.14612 C 176.35171,180.48362 176.80671,179.76612 178.06671,179.45112 176.80671,179.17112 176.35171,178.47112 176.35171,176.68612 V 174.56862 C 176.35171,172.95862 176.03671,172.60862 174.42671,172.60862 H 173.83171 V 171.38362 H 174.37421 C 177.20921,171.38362 177.92671,172.01362 177.92671,174.53362 V 176.58112 C 177.92671,178.27862 178.45171,178.83862 180.06171,178.83862 H 180.58671 V 180.06362 H 180.06171 C 178.45171,180.06362 177.92671,180.62362 177.92671,182.33862 V 184.38612 C 177.92671,186.90612 177.20921,187.53612 174.37421,187.53612 Z"
         style="font-size:17.5px"
         id="path994" />
      <path
         d="M 192.36419,186.99362 H 188.74169 V 171.38362 H 192.36419 V 172.60862 H 190.31669 V 185.08612 H 192.36419 Z"
         style="font-size:17.5px"
         id="path996" />
      <path
         d="M 194.07916,172.60862 V 171.38362 H 197.70166 V 186.99362 H 194.07916 V 185.17362 H 196.12666 V 172.60862 Z"
         style="font-size:17.5px"
         id="path998" />
      <path
         d="M 214.25661,175.11112 H 215.83161 L 215.56911,183.49362 C 215.42911,187.90362 214.06411,189.26862 211.07161,189.26862 209.96911,189.26862 209.00661,189.09362 208.07911,188.76112 V 185.96112 C 209.00661,186.46862 209.89911,186.69612 210.82661,186.69612 212.89161,186.69612 213.76661,184.91112 213.99411,183.77362 V 183.24862 C 213.46911,184.03612 212.41911,184.68362 211.01911,184.68362 208.67411,184.68362 207.09911,182.74112 207.09911,179.78362 207.09911,176.82612 208.67411,174.88362 211.01911,174.88362 212.41911,174.88362 213.43411,175.44362 214.08161,176.56362 Z M 213.39911,179.69612 C 213.39911,177.40362 212.41911,176.10862 210.72161,176.10862 209.04161,176.10862 208.04411,177.40362 208.04411,179.69612 208.27161,181.95362 208.91911,182.12862 210.59911,182.12862 212.29661,182.12862 213.39911,181.95362 213.39911,179.69612 Z"
         style="font-size:17.5px"
         id="path1000" />
      <path
         d="M 219.20909,181.81362 C 220.06659,182.23362 220.97659,182.46112 221.83409,182.46112 224.10909,182.46112 225.29909,181.95362 225.47409,178.83862 224.80909,179.81862 223.75909,180.36112 222.53409,180.36112 219.97909,180.36112 218.38659,178.71612 218.38659,176.03862 218.38659,173.41362 220.06659,171.69862 222.63909,171.69862 225.59659,171.69862 227.18909,174.00862 227.18909,178.31362 227.18909,182.33862 225.12409,184.92862 221.90409,184.92862 221.04659,184.92862 220.17159,184.75362 219.20909,184.42112 Z M 222.49909,177.78862 C 224.38909,177.78862 225.56159,177.61362 225.56159,175.75862 225.56159,173.92112 224.38909,172.78362 222.49909,172.78362 220.60909,172.78362 219.41909,173.92112 219.41909,175.75862 219.41909,177.61362 220.60909,177.78862 222.49909,177.78862 Z"
         style="font-size:17.5px"
         id="path1002" />
      <path
         d="M 238.47655,188.30612 236.25405,188.32362 236.72655,183.24862 C 236.07905,184.38612 235.06405,184.92862 233.66405,184.92862 231.35405,184.92862 229.74405,182.91612 229.74405,179.90612 229.74405,176.89612 231.35405,174.88362 233.66405,174.88362 235.06405,174.88362 236.07905,175.42612 236.72655,176.56362 L 236.98905,175.11112 H 238.51155 L 237.96905,185.24362 239.89405,187.09862 Z M 230.79405,179.67862 C 230.79405,182.00612 231.75655,182.30362 233.41905,182.30362 235.08155,182.30362 236.14905,182.00612 236.14905,179.67862 236.14905,177.36862 235.13405,175.96862 233.47155,175.96862 231.79155,175.96862 230.79405,177.36862 230.79405,179.67862 Z"
         style="font-size:17.5px"
         id="path1004" />
      <path
         d="M 252.75654,174.72612 C 251.60154,173.64112 250.28904,173.11612 248.80154,173.11612 245.89654,173.11612 244.28654,174.93612 244.28654,178.31362 244.33904,181.30612 245.89654,182.32112 248.80154,182.32112 250.28904,182.32112 251.60154,181.77862 252.75654,180.69362 V 183.70362 C 251.54904,184.52612 250.20154,184.92862 248.69654,184.92862 244.82904,184.92862 242.46654,182.40862 242.46654,178.31362 242.46654,174.21862 244.82904,171.69862 248.69654,171.69862 250.23654,171.69862 251.56654,172.10112 252.75654,172.90612 Z"
         style="font-size:17.5px"
         id="path1006" />
      <path
         d="M 264.49903,180.11612 H 261.75153 V 178.27862 H 266.45903 V 183.49362 C 265.12903,184.43862 263.50153,184.92862 261.68153,184.92862 257.69153,184.92862 255.31153,182.47862 255.31153,178.31362 255.31153,174.14862 257.69153,171.69862 261.68153,171.69862 263.34403,171.69862 264.86653,172.11862 266.12653,172.90612 V 174.56862 C 264.84903,173.48362 263.41403,172.94112 261.82153,172.94112 258.70653,172.94112 257.13153,174.69112 257.13153,178.13862 257.25403,181.28862 258.70653,182.14612 261.82153,182.14612 263.04653,182.14612 264.07903,181.93612 264.49903,181.49862 Z"
         style="font-size:17.5px"
         id="path1008" />
      <path
         d="M 281.42151,186.94112 H 277.36151 L 275.55901,184.89362 C 275.19151,184.92862 275.03401,184.92862 274.84151,184.92862 271.37651,184.92862 269.01401,182.33862 269.01401,178.31362 269.01401,174.28862 271.34151,171.69862 274.92901,171.69862 278.51651,171.69862 280.82651,174.28862 280.82651,178.31362 280.82651,181.28862 279.72401,182.82862 278.70901,183.94862 Z M 274.92901,173.09862 C 272.42651,173.09862 270.83401,175.09362 270.83401,178.31362 270.83401,180.95612 272.79401,181.53362 273.82651,181.65612 L 274.63151,181.76112 275.33151,180.58862 C 276.01401,180.88612 276.69651,181.09612 277.39651,181.18362 278.46401,180.60612 279.00651,179.64362 279.00651,178.31362 279.00651,175.09362 277.43151,173.09862 274.92901,173.09862 Z"
         style="font-size:17.5px"
         id="path1010" />
      <path
         d="M 301.77399,179.04862 C 300.58399,179.94112 299.62149,180.72862 298.51899,180.72862 297.90649,180.72862 297.17149,180.48362 296.33149,179.97612 296.27899,179.94112 296.22649,179.94112 296.19149,179.92362 L 296.01649,179.85362 C 295.12399,179.38112 294.42399,179.15362 293.88149,179.15362 292.88399,179.15362 291.93899,179.99362 290.81899,180.95612 V 179.17112 C 292.02649,178.27862 292.97149,177.91112 294.07399,177.91112 294.70399,177.91112 295.43899,178.08612 296.27899,178.41862 296.38399,178.47112 296.43649,178.48862 296.59399,178.54112 297.46899,178.89112 298.18649,179.06612 298.71149,179.06612 299.70899,179.06612 300.60149,178.66362 301.77399,177.70112 Z"
         style="font-size:17.5px"
         id="path1012" />
      <path
         d="M 308.93148,180.51862 304.32898,180.58862 304.39898,179.18862 309.00148,179.10112 Z"
         style="font-size:17.5px"
         id="path1014" />
      <path
         d="M 316.31645,178.47112 V 173.71112 H 317.75145 V 178.47112 H 322.51145 V 179.92362 H 317.75145 V 184.68362 H 316.31645 V 179.92362 H 311.55645 V 178.47112 Z"
         style="font-size:17.5px"
         id="path1016" />
      <path
         d="M 336.02144,178.17362 H 325.06644 V 176.73862 H 336.02144 Z M 336.02144,181.67362 H 325.06644 V 179.95862 H 336.02144 Z"
         style="font-size:17.5px"
         id="path1018" />
      <path
         d="M 338.75142,181.44612 347.79892,179.11862 339.31142,175.21612 339.45142,173.67612 350.00392,178.57612 349.84642,180.51862 338.57642,183.51112 Z"
         style="font-size:17.5px"
         id="path1020" />
    </g>
  </g>
</svg>
