<?xml version="1.0" encoding="UTF-8" standalone="no"?>
<svg
   version="1.1"
   id="svg2"
   viewBox="0 0 341.13771 109.23499"
   height="30.828541mm"
   width="96.276642mm"
   sodipodi:docname="OpenDyslexic Nerd Font.svg"
   xmlns:inkscape="http://www.inkscape.org/namespaces/inkscape"
   xmlns:sodipodi="http://sodipodi.sourceforge.net/DTD/sodipodi-0.dtd"
   xmlns="http://www.w3.org/2000/svg"
   xmlns:svg="http://www.w3.org/2000/svg"
   xmlns:rdf="http://www.w3.org/1999/02/22-rdf-syntax-ns#"
   xmlns:cc="http://creativecommons.org/ns#"
   xmlns:dc="http://purl.org/dc/elements/1.1/">
  <sodipodi:namedview
     id="namedview12"
     pagecolor="#ffffff"
     bordercolor="#666666"
     borderopacity="1.0"
     inkscape:showpageshadow="2"
     inkscape:pageopacity="0.0"
     inkscape:pagecheckerboard="0"
     inkscape:deskcolor="#d1d1d1"
     inkscape:document-units="mm" />
  <defs
     id="defs4" />
  <metadata
     id="metadata7">
    <rdf:RDF>
      <cc:Work
         rdf:about="">
        <dc:format>image/svg+xml</dc:format>
        <dc:type
           rdf:resource="http://purl.org/dc/dcmitype/StillImage" />
        <dc:title />
      </cc:Work>
    </rdf:RDF>
  </metadata>
  <g
     id="layer1"
     transform="translate(-64.864643,-80.033632)">
    <g
       aria-label="OpenDyslexic Nerd Font"
       id="text4136"
       style="font-size:27.5px;font-family:'OpenDyslexic Nerd Font';letter-spacing:0px;word-spacing:0px;fill:#ffffff">
      <path
         d="M 74.159643,80.528632 C 79.797143,80.528632 83.427143,84.598632 83.427143,90.923632 83.427143,97.248632 79.797143,101.31863 74.159643,101.31863 68.522143,101.31863 64.864643,97.276132 64.864643,90.923632 64.864643,84.598632 68.522143,80.528632 74.159643,80.528632 Z M 74.159643,82.728632 C 70.227143,82.728632 67.724643,85.863632 67.724643,90.923632 67.724643,95.076132 70.227143,96.176132 74.159643,96.176132 78.092143,96.176132 80.567143,95.076132 80.567143,90.923632 80.567143,85.863632 78.092143,82.728632 74.159643,82.728632 Z"
         id="path14" />
      <path
         d="M 90.60462,106.65363 H 87.44212 L 88.65212,97.441132 V 86.111132 H 91.12712 L 90.71462,88.173632 C 91.73212,86.386132 93.32712,85.533632 95.52712,85.533632 99.18462,85.533632 101.68712,88.696132 101.68712,93.426132 101.68712,98.156132 99.18462,101.31863 95.52712,101.31863 93.32712,101.31863 91.73212,100.46613 90.71462,98.678632 Z M 100.09212,92.986132 C 100.09212,89.356132 98.52462,87.183632 95.88462,87.183632 93.27212,87.183632 91.70462,89.356132 91.70462,92.986132 91.70462,96.643632 93.40962,97.248632 96.02212,97.248632 98.63462,97.248632 100.09212,96.643632 100.09212,92.986132 Z"
         id="path16" />
      <path
         d="M 118.8471,92.793632 H 107.6271 C 107.6821,96.808632 109.6621,97.496132 112.9346,97.661132 114.8321,97.661132 116.6196,97.688632 118.3796,96.753632 L 118.4346,100.16363 C 116.6471,100.93363 114.7771,101.31863 112.8521,101.31863 108.0671,101.15363 105.0421,98.321132 105.0421,93.563632 105.2346,88.641132 107.9021,85.533632 112.4396,85.533632 116.4546,85.698632 118.5171,87.568632 118.8471,91.858632 Z M 116.7021,90.621132 C 116.4271,88.943632 114.8871,86.826132 112.4396,86.826132 109.6896,86.826132 107.9021,88.833632 107.9021,90.648632 Z"
         id="path18" />
      <path
         d="M 135.3746,100.93363 H 131.8546 L 132.3771,91.803632 C 132.3771,88.943632 131.5246,87.541132 129.3246,87.541132 126.2996,87.541132 124.8696,89.356132 124.8696,92.298632 L 125.2821,100.93363 H 121.8446 L 122.2571,85.753632 H 124.7321 V 87.568632 C 125.9146,86.633632 127.5096,85.533632 129.5996,85.533632 133.0371,85.533632 134.7971,87.706132 134.9896,91.858632 Z"
         id="path20" />
      <path
         d="M 138.81212,100.93363 V 80.886132 H 144.39462 C 152.17712,80.886132 155.66962,84.021132 155.66962,90.896132 155.66962,97.798632 152.12212,100.93363 144.39462,100.93363 Z M 141.67212,83.113632 V 95.873632 H 144.94462 C 150.47212,95.873632 152.47962,94.718632 152.89212,90.621132 152.89212,85.616132 150.47212,83.113632 144.94462,83.113632 Z"
         id="path22" />
      <path
         d="M 169.85966,85.891132 H 172.47216 L 166.14716,102.33613 C 164.38716,106.26863 163.12216,106.92863 160.92216,106.92863 H 158.66716 V 103.65613 H 160.39966 C 161.74716,103.65613 162.29716,102.96863 163.23216,101.81363 L 164.27716,99.696132 157.84216,85.891132 H 160.45466 L 165.78966,94.636132 Z"
         id="path24" />
      <path
         d="M 185.86469,88.393632 C 184.46219,87.706132 182.94969,87.321132 181.35469,87.321132 178.87969,87.321132 177.53219,88.228632 177.53219,89.713632 177.53219,91.061132 178.32969,91.693632 180.96969,92.271132 L 181.82219,92.463632 C 185.31469,93.206132 186.66219,94.333632 186.66219,96.781132 186.66219,99.586132 184.32469,101.31863 180.44719,101.31863 178.85219,101.31863 177.11969,101.01613 175.16719,100.38363 V 96.753632 C 177.00969,97.716132 178.76969,98.183632 180.50219,98.183632 182.83969,98.183632 183.85719,97.468632 183.85719,96.176132 183.55469,95.626132 183.30719,95.241132 183.08719,94.993632 182.89469,94.746132 182.01469,94.471132 180.47469,94.113632 L 179.62219,93.921132 C 176.56969,93.288632 175.27719,92.298632 175.27719,89.961132 175.27719,87.128632 177.36719,85.533632 181.05219,85.533632 182.89469,85.533632 184.51719,85.808632 185.86469,86.331132 Z"
         id="path26" />
      <path
         d="M 196.06717,100.93363 H 190.67717 C 190.78717,93.976132 190.97967,88.228632 191.36467,81.243632 H 193.70217 C 193.37217,87.183632 193.20717,91.913632 193.15217,97.881132 H 196.06717 Z"
         id="path28" />
      <path
         d="M 213.88719,92.793632 H 202.66719 C 202.72219,96.808632 204.70219,97.496132 207.97469,97.661132 209.87219,97.661132 211.65969,97.688632 213.41969,96.753632 L 213.47469,100.16363 C 211.68719,100.93363 209.81719,101.31863 207.89219,101.31863 203.10719,101.15363 200.08219,98.321132 200.08219,93.563632 200.27469,88.641132 202.94219,85.533632 207.47969,85.533632 211.49469,85.698632 213.55719,87.568632 213.88719,91.858632 Z M 211.74219,90.621132 C 211.46719,88.943632 209.92719,86.826132 207.47969,86.826132 204.72969,86.826132 202.94219,88.833632 202.94219,90.648632 Z"
         id="path30" />
      <path
         d="M 224.08972,92.051132 228.62722,85.891132 H 231.12972 L 225.82222,93.893632 231.67972,100.93363 H 227.69222 L 224.25472,95.708632 220.54222,100.93363 H 216.55472 L 222.54972,93.728632 217.32472,85.891132 H 219.96472 Z"
         id="path32" />
      <path
         d="M 238.44469,83.168632 H 235.96969 L 236.10719,80.033632 H 238.30719 Z M 235.69469,100.93363 C 236.05219,95.653632 236.13469,90.621132 236.10719,85.891132 H 238.30719 C 238.14219,90.401132 238.27969,95.461132 238.85719,100.93363 Z"
         id="path34" />
      <path
         d="M 254.77968,88.641132 C 253.37718,87.871132 251.97468,87.486132 250.54468,87.486132 247.32718,87.486132 245.62218,89.768632 245.62218,93.426132 245.86968,96.011132 247.21718,96.891132 250.43468,97.056132 251.86468,97.056132 253.32218,97.248632 254.72468,96.478632 L 254.77968,100.35613 C 253.40468,100.98863 251.94718,101.31863 250.26968,101.31863 245.75968,101.31863 242.87218,98.266132 242.87218,93.426132 242.87218,88.531132 245.75968,85.533632 250.43468,85.533632 251.94718,85.533632 253.43218,85.836132 254.77968,86.468632 Z"
         id="path36" />
      <path
         d="M 272.98471,100.93363 H 269.54721 L 270.09721,81.298632 H 273.47971 L 282.08721,97.111132 282.49971,80.886132 H 285.00221 V 100.93363 H 281.06971 L 272.18721,84.158632 Z"
         id="path38" />
      <path
         d="M 302.82223,92.793632 H 291.60223 C 291.65723,96.808632 293.63723,97.496132 296.90973,97.661132 298.80723,97.661132 300.59473,97.688632 302.35473,96.753632 L 302.40973,100.16363 C 300.62223,100.93363 298.75223,101.31863 296.82723,101.31863 292.04223,101.15363 289.01723,98.321132 289.01723,93.563632 289.20973,88.641132 291.87723,85.533632 296.41473,85.533632 300.42973,85.698632 302.49223,87.568632 302.82223,91.858632 Z M 300.67723,90.621132 C 300.40223,88.943632 298.86223,86.826132 296.41473,86.826132 293.66473,86.826132 291.87723,88.833632 291.87723,90.648632 Z"
         id="path40" />
      <path
         d="M 315.96724,88.476132 C 315.41724,88.146132 314.89474,88.146132 314.09724,88.146132 311.31974,88.146132 310.16474,90.181132 310.16474,93.426132 L 310.71474,100.93363 H 306.83724 C 307.96474,94.718632 308.10224,92.463632 307.88224,86.028632 H 310.16474 V 87.568632 C 310.65974,87.183632 312.44724,85.808632 314.83974,85.808632 315.16974,85.808632 315.44474,85.836132 315.93974,85.946132 Z"
         id="path42" />
      <path
         d="M 329.22227,80.033632 H 331.69727 L 331.42227,100.93363 H 328.94727 V 98.678632 C 327.92977,100.46613 326.33477,101.31863 324.13477,101.31863 320.50477,101.31863 317.97477,98.156132 317.97477,93.426132 317.97477,88.696132 320.50477,85.533632 324.13477,85.533632 326.33477,85.533632 327.92977,86.386132 328.94727,88.173632 Z M 319.76227,93.151132 C 320.17477,95.763632 321.27477,96.836132 323.88727,96.836132 326.49977,96.836132 327.76477,96.286132 327.84727,92.958632 327.76477,89.328632 326.58227,87.321132 323.96977,87.321132 321.32977,87.321132 319.76227,89.521132 319.76227,93.151132 Z"
         id="path44" />
      <path
         d="M 349.8473,100.93363 H 346.4648 L 347.0148,80.886132 H 357.9873 V 83.306132 H 349.7098 L 349.4623,89.081132 H 357.2723 V 91.886132 H 349.5998 Z"
         id="path46" />
      <path
         d="M 368.90481,85.533632 C 373.19481,85.533632 375.80731,88.476132 375.80731,93.426132 375.80731,98.348632 373.19481,101.31863 368.90481,101.31863 364.58731,101.31863 362.00231,98.348632 362.00231,93.426132 362.00231,88.476132 364.58731,85.533632 368.90481,85.533632 Z M 368.90481,87.348632 C 366.26481,87.348632 364.61481,89.493632 364.61481,92.986132 364.61481,96.506132 366.23731,97.056132 368.90481,97.056132 371.54481,97.056132 373.19481,96.478632 373.19481,92.986132 373.19481,89.548632 371.54481,87.348632 368.90481,87.348632 Z"
         id="path48" />
      <path
         d="M 393.35232,100.93363 H 389.83232 L 390.35482,91.803632 C 390.35482,88.943632 389.50232,87.541132 387.30232,87.541132 384.27732,87.541132 382.84732,89.356132 382.84732,92.298632 L 383.25982,100.93363 H 379.82232 L 380.23482,85.753632 H 382.70982 V 87.568632 C 383.89232,86.633632 385.48732,85.533632 387.57732,85.533632 391.01482,85.533632 392.77482,87.706132 392.96732,91.858632 Z"
         id="path50" />
      <path
         d="M 398.41234,85.891132 398.54984,82.151132 H 401.16234 L 401.02484,85.891132 H 404.51734 V 87.816132 H 401.02484 L 400.88734,94.361132 C 400.88734,96.836132 401.40984,97.248632 403.44484,97.248632 H 406.00234 V 100.93363 H 403.44484 C 399.64984,100.93363 398.27484,99.751132 398.27484,95.983632 L 398.41234,87.816132 H 396.59734 V 85.891132 Z"
         id="path52" />
    </g>
    <g
       aria-label="abcdefghijklmnopqrstuvwxyzABCDEFGHIJKLMNOPQRSTUVWXYZ oO08 iIlL1 {} [] g9qCGQ ~-+=&gt;"
       id="text4140"
       style="font-size:17.5px;font-family:'OpenDyslexic Nerd Font';letter-spacing:0px;word-spacing:0px;fill:#ffffff">
      <path
         d="M 74.781903,140.93362 H 73.206903 V 139.56862 C 72.489403,140.61862 71.456903,141.17862 69.899403,141.17862 67.956903,141.17862 66.696903,139.98862 66.696903,138.15112 66.696903,135.99862 68.149403,134.89612 71.001903,134.89612 H 73.206903 V 134.73862 C 73.206903,133.28612 72.331903,132.41112 70.494403,132.28862 69.409403,132.28862 68.359403,132.55112 67.396903,133.07612 V 131.79862 C 68.551903,131.36112 69.636903,131.13362 70.651903,131.13362 73.434403,131.13362 74.781903,132.55112 74.781903,135.47362 Z M 72.331903,136.05112 H 70.914403 C 68.621903,136.05112 68.026903,136.54112 68.009403,137.71362 68.184403,138.69362 69.006903,138.78112 70.144403,138.78112 71.719403,138.78112 72.331903,138.44862 72.331903,136.40112 Z"
         id="path55" />
      <path
         d="M 78.2644,139.20112 C 78.7194,140.46112 79.4719,141.17862 81.9744,141.17862 84.3019,141.17862 85.9119,139.16612 85.9119,136.15612 85.9119,133.14612 84.3019,131.13362 81.9744,131.13362 80.5744,131.13362 79.5769,131.50112 78.9294,132.63862 L 79.0869,127.63362 H 77.5119 C 77.8444,133.14612 77.9144,138.46612 78.2644,139.20112 Z M 84.8969,135.80612 C 84.6344,137.78362 83.7419,138.27362 82.3419,138.37862 80.0669,138.37862 79.9094,137.64362 79.6819,135.87612 79.6819,133.56612 80.6794,132.25362 82.3419,132.25362 84.0219,132.25362 84.8269,133.58362 84.8969,135.80612 Z"
         id="path57" />
      <path
         d="M 95.62439,133.11112 C 94.73189,132.62112 93.83939,132.37612 92.92939,132.37612 90.88189,132.37612 89.79689,133.82862 89.79689,136.15612 89.95439,137.80112 90.81189,138.36112 92.85939,138.46612 93.76939,138.46612 94.69689,138.58862 95.58939,138.09862 L 95.62439,140.56612 C 94.74939,140.96862 93.82189,141.17862 92.75439,141.17862 89.88439,141.17862 88.04689,139.23612 88.04689,136.15612 88.04689,133.04112 89.88439,131.13362 92.85939,131.13362 93.82189,131.13362 94.76689,131.32612 95.62439,131.72862 Z"
         id="path59" />
      <path
         d="M 104.74189,127.63362 H 106.31689 L 106.14189,140.93362 H 104.56689 V 139.49862 C 103.91939,140.63612 102.90439,141.17862 101.50439,141.17862 99.194392,141.17862 97.584392,139.16612 97.584392,136.15612 97.584392,133.14612 99.194392,131.13362 101.50439,131.13362 102.90439,131.13362 103.91939,131.67612 104.56689,132.81362 Z M 98.721892,135.98112 C 98.984392,137.64362 99.684392,138.32612 101.34689,138.32612 103.00939,138.32612 103.81439,137.97612 103.86689,135.85862 103.81439,133.54862 103.06189,132.27112 101.39939,132.27112 99.719392,132.27112 98.721892,133.67112 98.721892,135.98112 Z"
         id="path61" />
      <path
         d="M 117.6569,135.75362 H 110.5169 C 110.5519,138.30862 111.8119,138.74612 113.8944,138.85112 115.1019,138.85112 116.2394,138.86862 117.3594,138.27362 L 117.3944,140.44362 C 116.2569,140.93362 115.0669,141.17862 113.8419,141.17862 110.7969,141.07362 108.8719,139.27112 108.8719,136.24362 108.9944,133.11112 110.6919,131.13362 113.5794,131.13362 116.1344,131.23862 117.4469,132.42862 117.6569,135.15862 Z M 116.2919,134.37112 C 116.1169,133.30362 115.1369,131.95612 113.5794,131.95612 111.8294,131.95612 110.6919,133.23362 110.6919,134.38862 Z"
         id="path63" />
      <path
         d="M 125.79441,127.98362 V 129.27862 L 124.37691,129.12112 C 123.58941,129.12112 123.30941,129.33112 123.30941,130.52112 L 123.37941,131.36112 H 125.88191 V 132.91862 H 123.37941 L 123.64191,140.93362 H 121.38441 L 121.62941,132.91862 H 120.21191 V 131.36112 H 121.62941 L 121.71691,130.69612 C 121.71691,128.56112 122.92441,127.80862 124.39441,127.80862 Z"
         id="path65" />
      <path
         d="M 135.61193,131.36112 H 137.18693 L 136.92443,139.74362 C 136.78443,144.15362 135.41943,145.51862 132.42693,145.51862 131.32443,145.51862 130.36193,145.34362 129.43443,145.01112 V 142.21112 C 130.36193,142.71862 131.25443,142.94612 132.18193,142.94612 134.24693,142.94612 135.12193,141.16112 135.34943,140.02362 V 139.49862 C 134.82443,140.28612 133.77443,140.93362 132.37443,140.93362 130.02943,140.93362 128.45443,138.99112 128.45443,136.03362 128.45443,133.07612 130.02943,131.13362 132.37443,131.13362 133.77443,131.13362 134.78943,131.69362 135.43693,132.81362 Z M 134.75443,135.94612 C 134.75443,133.65362 133.77443,132.35862 132.07693,132.35862 130.39693,132.35862 129.39943,133.65362 129.39943,135.94612 129.62693,138.20362 130.27443,138.37862 131.95443,138.37862 133.65193,138.37862 134.75443,138.20362 134.75443,135.94612 Z"
         id="path67" />
      <path
         d="M 148.10693,140.93362 H 146.11193 L 146.35693,135.21112 C 146.46193,133.02362 145.65693,132.32362 144.23943,132.32362 142.54193,132.32362 141.49193,133.65362 141.49193,135.52612 L 141.66693,140.93362 H 139.74193 L 140.09193,127.63362 H 141.66693 L 141.49193,132.84862 C 142.24443,131.69362 143.25943,131.13362 144.58943,131.13362 146.79443,131.13362 147.93193,132.51612 147.93193,135.15862 Z"
         id="path69" />
      <path
         d="M 152.41195,129.62862 H 150.83695 L 150.92445,127.63362 H 152.32445 Z M 150.66195,140.93362 C 150.88945,137.57362 150.94195,134.37112 150.92445,131.36112 H 152.32445 C 152.21945,134.23112 152.30695,137.45112 152.67445,140.93362 Z"
         id="path71" />
      <path
         d="M 158.93943,129.62862 H 157.36443 L 157.45193,127.63362 H 158.85193 Z M 157.08443,131.41362 158.57193,131.43112 158.23943,141.17862 C 158.18693,143.61112 157.29443,144.76612 155.22943,144.85362 L 154.37193,144.83612 154.42443,142.47362 H 155.08943 C 156.29693,142.38612 156.57693,142.12362 156.68193,140.12862 Z"
         id="path73" />
      <path
         d="M 163.59443,140.93362 H 161.49443 L 161.84443,127.63362 H 163.41943 L 163.33193,135.14112 166.56943,131.36112 H 168.58193 L 164.95943,135.84112 170.24443,140.93362 H 167.00693 L 163.33193,136.43612 Z"
         id="path75" />
      <path
         d="M 176.22943,140.93362 H 172.79943 C 172.86943,136.50612 172.99193,132.84862 173.23693,128.40362 H 174.72443 C 174.51443,132.18362 174.40943,135.19362 174.37443,138.99112 H 176.22943 Z"
         id="path77" />
      <path
         d="M 186.72945,133.19862 C 187.51695,131.79862 188.42695,131.13362 189.89695,131.13362 191.89195,131.13362 193.01195,132.58612 193.01195,135.15862 L 193.18695,140.93362 H 190.84195 L 191.43695,134.94862 C 191.43695,133.11112 191.05195,132.23612 189.72195,132.23612 188.07695,132.23612 187.25445,133.65362 187.16695,135.52612 L 186.90445,140.93362 H 184.73445 L 185.50445,134.86112 C 185.50445,133.02362 184.85695,132.16612 183.50945,132.16612 181.89945,132.16612 180.79695,133.67112 180.79695,135.52612 L 180.97195,140.93362 H 178.78445 L 179.22195,131.36112 H 180.79695 L 180.62195,132.84862 C 181.33945,131.67612 182.31945,131.13362 183.70195,131.13362 185.10195,131.13362 186.25695,131.85112 186.72945,133.19862 Z"
         id="path79" />
      <path
         d="M 204.35195,140.93362 H 202.11195 L 202.44445,135.12362 C 202.44445,133.30362 201.90195,132.41112 200.50195,132.41112 198.57695,132.41112 197.66695,133.56612 197.66695,135.43862 L 197.92945,140.93362 H 195.74195 L 196.00445,131.27362 H 197.57945 V 132.42862 C 198.33195,131.83362 199.34695,131.13362 200.67695,131.13362 202.86445,131.13362 203.98445,132.51612 204.10695,135.15862 Z"
         id="path81" />
      <path
         d="M 211.31694,131.13362 C 214.04694,131.13362 215.70944,133.00612 215.70944,136.15612 215.70944,139.28862 214.04694,141.17862 211.31694,141.17862 208.56944,141.17862 206.92444,139.28862 206.92444,136.15612 206.92444,133.00612 208.56944,131.13362 211.31694,131.13362 Z M 211.31694,132.28862 C 209.63694,132.28862 208.58694,133.65362 208.58694,135.87612 208.58694,138.11612 209.61944,138.46612 211.31694,138.46612 212.99694,138.46612 214.04694,138.09862 214.04694,135.87612 214.04694,133.68862 212.99694,132.28862 211.31694,132.28862 Z"
         id="path83" />
      <path
         d="M 220.27695,144.57362 H 218.26445 L 219.03445,138.71112 V 131.50112 H 220.60945 L 220.34695,132.81362 C 220.99445,131.67612 222.00945,131.13362 223.40945,131.13362 225.73695,131.13362 227.32945,133.14612 227.32945,136.15612 227.32945,139.16612 225.73695,141.17862 223.40945,141.17862 222.00945,141.17862 220.99445,140.63612 220.34695,139.49862 Z M 226.31445,135.87612 C 226.31445,133.56612 225.31695,132.18362 223.63695,132.18362 221.97445,132.18362 220.97695,133.56612 220.97695,135.87612 220.97695,138.20362 222.06195,138.58862 223.72445,138.58862 225.38695,138.58862 226.31445,138.20362 226.31445,135.87612 Z"
         id="path85" />
      <path
         d="M 238.19695,144.55612 235.97445,144.57362 236.44695,139.49862 C 235.79945,140.63612 234.78445,141.17862 233.38445,141.17862 231.07445,141.17862 229.46445,139.16612 229.46445,136.15612 229.46445,133.14612 231.07445,131.13362 233.38445,131.13362 234.78445,131.13362 235.79945,131.67612 236.44695,132.81362 L 236.70945,131.36112 H 238.23195 L 237.68945,141.49362 239.61445,143.34862 Z M 230.51445,135.92862 C 230.51445,138.25612 231.47695,138.55362 233.13945,138.55362 234.80195,138.55362 235.86945,138.25612 235.86945,135.92862 235.86945,133.61862 234.85445,132.21862 233.19195,132.21862 231.51195,132.21862 230.51445,133.61862 230.51445,135.92862 Z"
         id="path87" />
      <path
         d="M 247.99694,133.00612 C 247.64694,132.79612 247.31444,132.79612 246.80694,132.79612 245.03944,132.79612 244.30444,134.09112 244.30444,136.15612 L 244.65444,140.93362 H 242.18694 C 242.90444,136.97862 242.99194,135.54362 242.85194,131.44862 H 244.30444 V 132.42862 C 244.61944,132.18362 245.75694,131.30862 247.27944,131.30862 247.48944,131.30862 247.66444,131.32612 247.97944,131.39612 Z"
         id="path89" />
      <path
         d="M 257.35944,132.95362 C 256.46694,132.51612 255.50444,132.27112 254.48944,132.27112 252.91444,132.27112 252.05694,132.84862 252.05694,133.79362 252.05694,134.65112 252.56444,135.05362 254.24444,135.42112 L 254.78694,135.54362 C 257.00944,136.01612 257.86694,136.73362 257.86694,138.29112 257.86694,140.07612 256.37944,141.17862 253.91194,141.17862 252.89694,141.17862 251.79444,140.98612 250.55194,140.58362 V 138.27362 C 251.72444,138.88612 252.84444,139.18362 253.94694,139.18362 255.43444,139.18362 256.08194,138.72862 256.08194,137.90612 255.88944,137.55612 255.73194,137.31112 255.59194,137.15362 255.46944,136.99612 254.90944,136.82112 253.92944,136.59362 L 253.38694,136.47112 C 251.44444,136.06862 250.62194,135.43862 250.62194,133.95112 250.62194,132.14862 251.95194,131.13362 254.29694,131.13362 255.46944,131.13362 256.50194,131.30862 257.35944,131.64112 Z"
         id="path91" />
      <path
         d="M 261.57692,131.36112 261.66442,128.98112 H 263.32692 L 263.23942,131.36112 H 265.46192 V 132.58612 H 263.23942 L 263.15192,136.75112 C 263.15192,138.32612 263.48442,138.58862 264.77942,138.58862 H 266.40692 V 140.93362 H 264.77942 C 262.36442,140.93362 261.48942,140.18112 261.48942,137.78362 L 261.57692,132.58612 H 260.42192 V 131.36112 Z"
         id="path93" />
      <path
         d="M 268.96195,131.36112 H 270.27445 V 135.73612 C 270.39695,137.53862 270.99195,138.44862 272.40945,138.44862 274.10695,138.44862 275.03445,137.29362 275.15695,135.42112 L 275.33195,131.36112 H 277.06445 L 276.88945,140.93362 H 275.33195 L 275.40195,139.46362 C 274.64945,140.61862 273.65195,141.17862 272.32195,141.17862 270.13445,141.17862 268.96195,139.79612 268.96195,137.15362 Z"
         id="path95" />
      <path
         d="M 285.42943,140.93362 H 283.11943 L 279.61943,131.36112 H 281.28193 L 284.27443,138.37862 287.26693,131.36112 H 288.92943 Z"
         id="path97" />
      <path
         d="M 296.12194,140.93362 H 294.00444 L 291.50194,131.36112 H 293.07694 L 295.03694,138.06362 296.82194,134.52862 H 299.02694 L 300.81194,138.06362 302.77194,131.36112 H 304.34694 L 301.84444,140.93362 H 299.65694 L 297.92444,136.59362 Z"
         id="path99" />
      <path
         d="M 311.27694,135.28112 314.16444,131.36112 H 315.75694 L 312.37944,136.45362 316.10694,140.93362 H 313.56944 L 311.38194,137.60862 309.01944,140.93362 H 306.48194 L 310.29694,136.34862 306.97194,131.36112 H 308.65194 Z"
         id="path101" />
      <path
         d="M 326.30941,131.36112 H 327.97191 L 323.94691,141.82612 C 322.82691,144.32862 322.02191,144.74862 320.62191,144.74862 H 319.18691 V 142.66612 H 320.28941 C 321.14691,142.66612 321.49691,142.22862 322.09191,141.49362 L 322.75691,140.14612 318.66191,131.36112 H 320.32441 L 323.71941,136.92612 Z"
         id="path103" />
      <path
         d="M 336.63444,132.53362 H 330.92944 V 131.36112 H 338.31444 V 132.79612 L 332.90694,138.81612 H 338.22694 V 140.93362 H 330.54444 V 138.64112 Z"
         id="path105" />
      <path
         d="M 69.041903,162.80862 H 66.696903 L 71.736903,150.05112 H 73.364403 L 78.386903,162.80862 H 75.919403 L 75.429403,160.72612 H 69.689403 Z M 70.196903,158.69612 H 74.904403 L 72.541903,151.62612 Z"
         id="path107" />
      <path
         d="M 80.941889,162.80862 V 150.05112 H 84.931889 C 87.556889,150.05112 89.044389,151.18862 89.044389,153.20112 89.044389,154.77612 88.291889,155.70362 86.891889,155.93112 89.149389,156.29862 90.164389,157.50612 90.164389,159.23862 90.164389,161.51362 88.396889,162.80862 85.526889,162.80862 Z M 82.674389,151.20612 V 155.31862 H 85.229389 C 86.909389,155.31862 87.731889,154.68862 87.731889,153.39362 87.731889,152.09862 86.909389,151.20612 85.229389,151.20612 Z M 82.674389,156.71862 V 160.27112 H 85.439389 C 87.294389,160.27112 88.169389,159.86862 88.169389,158.27612 88.169389,157.99612 87.959389,157.66362 87.504389,157.27862 87.049389,156.91112 86.366889,156.71862 85.439389,156.71862 Z"
         id="path109" />
      <path
         d="M 103.00939,152.85112 C 101.85439,151.76612 100.54189,151.24112 99.054395,151.24112 96.149395,151.24112 94.539395,153.06112 94.539395,156.43862 94.591895,159.43112 96.149395,160.44612 99.054395,160.44612 100.54189,160.44612 101.85439,159.90362 103.00939,158.81862 V 161.82862 C 101.80189,162.65112 100.45439,163.05362 98.949395,163.05362 95.081895,163.05362 92.719395,160.53362 92.719395,156.43862 92.719395,152.34362 95.081895,149.82362 98.949395,149.82362 100.48939,149.82362 101.81939,150.22612 103.00939,151.03112 Z"
         id="path111" />
      <path
         d="M 105.56438,162.80862 V 150.05112 H 109.11688 C 114.06938,150.05112 116.29188,152.04612 116.29188,156.42112 116.29188,160.81362 114.03438,162.80862 109.11688,162.80862 Z M 107.38438,151.46862 V 159.58862 H 109.46688 C 112.98438,159.58862 114.26188,158.85362 114.52438,156.24612 114.52438,153.06112 112.98438,151.46862 109.46688,151.46862 Z"
         id="path113" />
      <path
         d="M 127.0719,162.80862 H 118.8469 V 150.05112 H 126.9144 V 151.50362 H 120.5794 V 155.28362 H 126.6519 V 156.73612 H 120.5794 V 160.16612 H 127.0719 Z"
         id="path115" />
      <path
         d="M 131.77938,162.80862 H 129.62688 L 129.97688,150.05112 H 136.95938 V 151.59112 H 131.69188 L 131.53438,155.26612 H 136.50438 V 157.05112 H 131.62188 Z"
         id="path117" />
      <path
         d="M 148.70189,158.24112 H 145.95439 V 156.40362 H 150.66189 V 161.61862 C 149.33189,162.56362 147.70439,163.05362 145.88439,163.05362 141.89439,163.05362 139.51439,160.60362 139.51439,156.43862 139.51439,152.27362 141.89439,149.82362 145.88439,149.82362 147.54689,149.82362 149.06939,150.24362 150.32939,151.03112 V 152.69362 C 149.05189,151.60862 147.61689,151.06612 146.02439,151.06612 142.90939,151.06612 141.33439,152.81612 141.33439,156.26362 141.45689,159.41362 142.90939,160.27112 146.02439,160.27112 147.24939,160.27112 148.28189,160.06112 148.70189,159.62362 Z"
         id="path119" />
      <path
         d="M 155.21191,162.80862 H 153.21691 L 153.39191,150.05112 H 155.21191 V 156.14112 H 161.12691 V 150.05112 H 162.94691 L 163.12191,162.80862 H 161.12691 V 158.52112 H 155.21191 Z"
         id="path121" />
      <path
         d="M 165.67691,162.80862 C 165.93941,158.55612 165.93941,154.30362 166.02691,150.05112 H 167.49691 C 167.54941,154.30362 167.51441,158.55612 167.74191,162.80862 Z"
         id="path123" />
      <path
         d="M 172.9919,150.03362 174.8119,150.15612 174.3569,162.26612 C 174.2869,165.34612 173.2019,166.44862 170.4894,166.50112 L 169.4919,166.39612 169.4569,163.57862 170.3319,163.77112 C 171.8544,163.70112 172.5194,162.87862 172.5369,162.16112 Z"
         id="path125" />
      <path
         d="M 179.60689,162.80862 H 177.36689 L 177.71689,150.05112 H 179.43189 L 179.27439,155.44112 184.99689,150.05112 H 187.21939 L 180.88439,156.00112 187.67439,162.80862 H 183.59689 L 179.27439,156.66612 Z"
         id="path127" />
      <path
         d="M 198.0869,162.80862 H 190.2294 L 190.4044,150.05112 H 192.1369 L 192.0494,160.16612 H 198.2619 Z"
         id="path129" />
      <path
         d="M 203.0044,162.80862 H 200.8169 L 201.0794,150.05112 H 203.6519 L 206.8194,157.62862 210.1794,150.05112 H 212.5769 L 212.8394,162.80862 H 210.6344 L 210.9844,151.60862 207.8694,160.77862 H 205.7869 L 202.6719,151.60862 Z"
         id="path131" />
      <path
         d="M 217.5819,162.80862 H 215.3944 L 215.7444,150.31362 H 217.8969 L 223.3744,160.37612 223.6369,150.05112 H 225.2294 V 162.80862 H 222.7269 L 217.0744,152.13362 Z"
         id="path133" />
      <path
         d="M 233.6994,149.82362 C 237.2869,149.82362 239.5969,152.41362 239.5969,156.43862 239.5969,160.46362 237.2869,163.05362 233.6994,163.05362 230.1119,163.05362 227.7844,160.48112 227.7844,156.43862 227.7844,152.41362 230.1119,149.82362 233.6994,149.82362 Z M 233.6994,151.22362 C 231.1969,151.22362 229.6044,153.21862 229.6044,156.43862 229.6044,159.08112 231.1969,159.78112 233.6994,159.78112 236.2019,159.78112 237.7769,159.08112 237.7769,156.43862 237.7769,153.21862 236.2019,151.22362 233.6994,151.22362 Z"
         id="path135" />
      <path
         d="M 244.21689,162.80862 H 242.15189 L 242.67689,150.05112 H 246.47439 C 249.34439,150.05112 250.81439,151.36362 250.81439,153.86612 250.81439,156.38612 249.34439,157.85612 246.47439,157.85612 H 244.39189 Z M 244.47939,150.78612 244.30439,155.58112 H 246.64939 C 248.36439,155.58112 249.34439,154.72362 249.34439,153.18362 249.34439,151.64362 248.36439,150.78612 246.64939,150.78612 Z"
         id="path137" />
      <path
         d="M 265.79439,165.06612 H 261.73439 L 259.93189,163.01862 C 259.56439,163.05362 259.40689,163.05362 259.21439,163.05362 255.74939,163.05362 253.38689,160.46362 253.38689,156.43862 253.38689,152.41362 255.71439,149.82362 259.30189,149.82362 262.88939,149.82362 265.19939,152.41362 265.19939,156.43862 265.19939,159.41362 264.09689,160.95362 263.08189,162.07362 Z M 259.30189,151.22362 C 256.79939,151.22362 255.20689,153.21862 255.20689,156.43862 255.20689,159.08112 257.16689,159.65862 258.19939,159.78112 L 259.00439,159.88612 259.70439,158.71362 C 260.38689,159.01112 261.06939,159.22112 261.76939,159.30862 262.83689,158.73112 263.37939,157.76862 263.37939,156.43862 263.37939,153.21862 261.80439,151.22362 259.30189,151.22362 Z"
         id="path139" />
      <path
         d="M 274.40438,156.82362 C 275.13938,157.06862 275.82188,157.89112 276.53938,159.32612 L 278.28938,162.80862 H 275.83938 L 274.54438,159.53612 C 273.70438,157.82112 273.07438,157.41862 271.70938,157.41862 H 270.41438 V 162.80862 H 268.34938 V 150.05112 H 272.25188 C 274.82438,150.05112 276.32938,151.25862 276.32938,153.72612 276.32938,155.33612 275.59438,156.42112 274.40438,156.82362 Z M 270.25688,150.96112 V 155.65112 H 272.42688 C 273.73938,155.65112 275.10438,154.75862 275.10438,153.72612 275.10438,151.53862 273.73938,150.96112 272.42688,150.96112 Z"
         id="path141" />
      <path
         d="M 289.05189,152.15112 C 287.75689,151.52112 286.60189,151.22362 285.51689,151.22362 283.64439,151.22362 282.57689,151.97612 282.57689,153.32362 282.57689,154.44362 283.13689,154.95112 285.02689,155.30112 L 286.05939,155.51112 C 288.63189,156.00112 289.82189,157.20862 289.82189,159.29112 289.82189,161.75862 288.14189,163.05362 284.93939,163.05362 283.73189,163.05362 282.36689,162.79112 280.89689,162.24862 V 159.51862 C 282.29689,160.30612 283.64439,160.70862 284.93939,160.70862 286.91689,160.70862 288.01939,159.74612 288.01939,158.99362 288.01939,158.31112 287.30189,157.50612 285.55189,157.15612 L 284.50189,156.94612 C 281.92939,156.43862 280.84439,155.40612 280.84439,153.46362 280.84439,151.20612 282.52439,149.82362 285.32439,149.82362 286.51439,149.82362 287.75689,150.03362 289.05189,150.47112 Z"
         id="path143" />
      <path
         d="M 296.9269,151.32862 292.3944,151.50362 V 150.05112 H 303.1919 V 151.50362 L 298.6594,151.32862 299.0094,162.80862 H 296.5944 Z"
         id="path145" />
      <path
         d="M 305.74691,150.05112 H 307.56691 L 307.39191,156.61362 C 307.33941,159.34362 308.42441,160.46362 310.64691,160.46362 312.85191,160.46362 313.93691,159.34362 313.86691,156.61362 L 313.69191,150.05112 H 315.51191 V 158.01362 C 315.51191,161.33862 313.84941,163.05362 310.64691,163.05362 307.40941,163.05362 305.74691,161.33862 305.74691,158.01362 Z"
         id="path147" />
      <path
         d="M 329.7744,150.05112 325.3469,162.80862 H 322.5294 L 318.0844,150.05112 H 319.8869 L 323.9294,159.58862 327.9894,150.05112 Z"
         id="path149" />
      <path
         d="M 337.87688,162.80862 H 335.18188 L 332.32938,150.05112 H 333.99188 L 336.58188,159.20362 339.60938,153.30612 H 341.11438 L 343.87938,159.37862 346.81938,150.05112 H 348.48188 L 345.27938,162.80862 H 342.75938 L 340.41438,155.91362 Z"
         id="path151" />
      <path
         d="M 351.0369,162.80862 355.4294,156.85862 351.6144,150.05112 H 353.4694 L 356.6544,155.47612 359.8394,150.05112 H 361.6944 L 357.7569,156.85862 361.9569,162.80862 H 359.1744 L 356.5144,158.24112 353.8369,162.80862 Z"
         id="path153" />
      <path
         d="M 368.71189,162.80862 V 158.43362 L 364.52939,150.05112 H 366.38439 L 369.91939,156.57862 373.43689,150.05112 H 375.29189 L 371.03939,158.43362 V 162.80862 Z"
         id="path155" />
      <path
         d="M 385.91437,151.50362 H 378.03937 V 150.05112 H 388.06687 V 151.36362 L 379.99937,160.25362 H 388.25937 V 162.80862 H 377.84687 V 160.37612 Z"
         id="path157" />
      <path
         d="M 71.089403,174.88362 C 73.819403,174.88362 75.481903,176.75612 75.481903,179.90612 75.481903,183.03862 73.819403,184.92862 71.089403,184.92862 68.341903,184.92862 66.696903,183.03862 66.696903,179.90612 66.696903,176.75612 68.341903,174.88362 71.089403,174.88362 Z M 71.089403,176.03862 C 69.409403,176.03862 68.359403,177.40362 68.359403,179.62612 68.359403,181.86612 69.391903,182.21612 71.089403,182.21612 72.769403,182.21612 73.819403,181.84862 73.819403,179.62612 73.819403,177.43862 72.769403,176.03862 71.089403,176.03862 Z"
         id="path159" />
      <path
         d="M 83.951916,171.69862 C 87.539416,171.69862 89.849416,174.28862 89.849416,178.31362 89.849416,182.33862 87.539416,184.92862 83.951916,184.92862 80.364416,184.92862 78.036916,182.35612 78.036916,178.31362 78.036916,174.28862 80.364416,171.69862 83.951916,171.69862 Z M 83.951916,173.09862 C 81.449416,173.09862 79.856916,175.09362 79.856916,178.31362 79.856916,180.95612 81.449416,181.65612 83.951916,181.65612 86.454416,181.65612 88.029416,180.95612 88.029416,178.31362 88.029416,175.09362 86.454416,173.09862 83.951916,173.09862 Z"
         id="path161" />
      <path
         d="M 96.9019,171.69862 C 99.7719,171.69862 101.2244,174.00862 101.2244,178.31362 101.1194,182.61862 99.5969,184.92862 96.7269,184.92862 93.8744,184.92862 92.4044,182.61862 92.4044,178.31362 92.5269,174.00862 94.0494,171.69862 96.9019,171.69862 Z M 96.9019,172.38112 C 95.1344,172.38112 94.2244,173.93862 94.2244,177.07112 94.2244,180.30862 94.9594,181.76112 96.7269,181.76112 98.5119,181.76112 99.3519,180.20362 99.5794,177.07112 99.5794,173.93862 98.6869,172.38112 96.9019,172.38112 Z M 96.8494,179.01362 C 97.5669,179.01362 97.7419,178.15612 97.7419,177.50862 97.7419,176.28362 97.5669,175.53112 96.8494,175.53112 96.0444,175.53112 95.9394,176.51112 95.9394,177.50862 95.9394,178.15612 96.1144,179.01362 96.8494,179.01362 Z"
         id="path163" />
      <path
         d="M 106.59689,177.89362 C 105.12689,177.52612 104.42689,176.45862 104.42689,175.00612 104.42689,173.18612 105.79189,171.87362 108.32939,171.87362 110.86689,171.87362 112.23189,173.18612 112.23189,175.00612 112.23189,176.45862 111.53189,177.52612 110.06189,177.89362 111.72439,178.27862 112.87939,179.46862 112.87939,181.09612 112.87939,183.56362 111.14689,184.92862 108.32939,184.92862 105.51189,184.92862 103.77939,183.56362 103.77939,181.09612 103.77939,179.46862 104.93439,178.27862 106.59689,177.89362 Z M 105.96689,174.65612 C 105.96689,175.96862 106.84189,176.75612 108.32939,176.75612 109.79939,176.75612 110.69189,175.96862 110.69189,174.65612 110.69189,173.55362 109.79939,172.71362 108.32939,172.71362 106.84189,172.71362 105.96689,173.55362 105.96689,174.65612 Z M 108.32939,178.45362 C 106.68439,178.45362 105.68689,179.38112 105.68689,180.92112 105.68689,181.77862 106.68439,182.79362 108.32939,182.79362 109.97439,182.79362 110.97189,181.76112 110.97189,180.92112 110.97189,179.38112 109.97439,178.45362 108.32939,178.45362 Z"
         id="path165" />
      <path
         d="M 124.02691,173.37862 H 122.45191 L 122.53941,171.38362 H 123.93941 Z M 122.27691,184.68362 C 122.50441,181.32362 122.55691,178.12112 122.53941,175.11112 H 123.93941 C 123.83441,177.98112 123.92191,181.20112 124.28941,184.68362 Z"
         id="path167" />
      <path
         d="M 126.84441,184.68362 C 127.10691,180.43112 127.10691,176.17862 127.19441,171.92612 H 128.66441 C 128.71691,176.17862 128.68191,180.43112 128.90941,184.68362 Z"
         id="path169" />
      <path
         d="M 134.9119,184.68362 H 131.4819 C 131.5519,180.25612 131.6744,176.59862 131.9194,172.15362 H 133.4069 C 133.1969,175.93362 133.0919,178.94362 133.0569,182.74112 H 134.9119 Z"
         id="path171" />
      <path
         d="M 145.32441,184.68362 H 137.46691 L 137.64191,171.92612 H 139.37441 L 139.28691,182.04112 H 145.49941 Z"
         id="path173" />
      <path
         d="M 155.64941,184.68362 H 148.29941 V 182.28612 H 151.13441 V 173.50112 L 148.05441,174.11362 V 172.53862 L 151.11691,171.92612 H 152.83191 V 182.28612 H 155.64941 Z"
         id="path175" />
      <path
         d="M 171.71441,185.90862 171.69691,187.65862 171.17191,187.64112 C 168.33691,187.58862 167.72441,186.94112 167.65441,184.42112 L 167.68941,182.39112 C 167.60191,180.67612 167.19941,180.09862 165.58941,180.06362 H 165.06441 L 165.08191,178.83862 165.60691,178.85612 C 167.23441,178.76862 167.75941,178.33112 167.79441,176.63362 L 167.81191,174.58612 C 167.86441,172.06612 168.61691,171.55862 171.45191,171.50612 H 171.97691 L 171.95941,172.73112 171.38191,172.71362 C 169.64941,172.80112 169.43941,173.02862 169.40441,174.63862 L 169.36941,176.75612 C 169.33441,178.54112 168.86191,179.22362 167.60191,179.50362 168.86191,179.83612 169.19441,180.58862 169.26441,182.12862 L 169.22941,184.26362 C 169.31691,185.41862 169.52691,185.87362 171.13691,185.90862 Z"
         id="path177" />
      <path
         d="M 173.83191,187.53612 V 186.22362 H 174.42691 C 176.03691,186.22362 176.35191,185.89112 176.35191,184.26362 V 182.14612 C 176.35191,180.48362 176.80691,179.76612 178.06691,179.45112 176.80691,179.17112 176.35191,178.47112 176.35191,176.68612 V 174.56862 C 176.35191,172.95862 176.03691,172.60862 174.42691,172.60862 H 173.83191 V 171.38362 H 174.37441 C 177.20941,171.38362 177.92691,172.01362 177.92691,174.53362 V 176.58112 C 177.92691,178.27862 178.45191,178.83862 180.06191,178.83862 H 180.58691 V 180.06362 H 180.06191 C 178.45191,180.06362 177.92691,180.62362 177.92691,182.33862 V 184.38612 C 177.92691,186.90612 177.20941,187.53612 174.37441,187.53612 Z"
         id="path179" />
      <path
         d="M 192.36442,186.99362 H 188.74192 V 171.38362 H 192.36442 V 172.60862 H 190.31692 V 185.08612 H 192.36442 Z"
         id="path181" />
      <path
         d="M 194.07942,172.60862 V 171.38362 H 197.70192 V 186.99362 H 194.07942 V 185.17362 H 196.12692 V 172.60862 Z"
         id="path183" />
      <path
         d="M 214.25695,175.11112 H 215.83195 L 215.56945,183.49362 C 215.42945,187.90362 214.06445,189.26862 211.07195,189.26862 209.96945,189.26862 209.00695,189.09362 208.07945,188.76112 V 185.96112 C 209.00695,186.46862 209.89945,186.69612 210.82695,186.69612 212.89195,186.69612 213.76695,184.91112 213.99445,183.77362 V 183.24862 C 213.46945,184.03612 212.41945,184.68362 211.01945,184.68362 208.67445,184.68362 207.09945,182.74112 207.09945,179.78362 207.09945,176.82612 208.67445,174.88362 211.01945,174.88362 212.41945,174.88362 213.43445,175.44362 214.08195,176.56362 Z M 213.39945,179.69612 C 213.39945,177.40362 212.41945,176.10862 210.72195,176.10862 209.04195,176.10862 208.04445,177.40362 208.04445,179.69612 208.27195,181.95362 208.91945,182.12862 210.59945,182.12862 212.29695,182.12862 213.39945,181.95362 213.39945,179.69612 Z"
         id="path185" />
      <path
         d="M 219.20945,181.81362 C 220.06695,182.23362 220.97695,182.46112 221.83445,182.46112 224.10945,182.46112 225.29945,181.95362 225.47445,178.83862 224.80945,179.81862 223.75945,180.36112 222.53445,180.36112 219.97945,180.36112 218.38695,178.71612 218.38695,176.03862 218.38695,173.41362 220.06695,171.69862 222.63945,171.69862 225.59695,171.69862 227.18945,174.00862 227.18945,178.31362 227.18945,182.33862 225.12445,184.92862 221.90445,184.92862 221.04695,184.92862 220.17195,184.75362 219.20945,184.42112 Z M 222.49945,177.78862 C 224.38945,177.78862 225.56195,177.61362 225.56195,175.75862 225.56195,173.92112 224.38945,172.78362 222.49945,172.78362 220.60945,172.78362 219.41945,173.92112 219.41945,175.75862 219.41945,177.61362 220.60945,177.78862 222.49945,177.78862 Z"
         id="path187" />
      <path
         d="M 238.47696,188.30612 236.25446,188.32362 236.72696,183.24862 C 236.07946,184.38612 235.06446,184.92862 233.66446,184.92862 231.35446,184.92862 229.74446,182.91612 229.74446,179.90612 229.74446,176.89612 231.35446,174.88362 233.66446,174.88362 235.06446,174.88362 236.07946,175.42612 236.72696,176.56362 L 236.98946,175.11112 H 238.51196 L 237.96946,185.24362 239.89446,187.09862 Z M 230.79446,179.67862 C 230.79446,182.00612 231.75696,182.30362 233.41946,182.30362 235.08196,182.30362 236.14946,182.00612 236.14946,179.67862 236.14946,177.36862 235.13446,175.96862 233.47196,175.96862 231.79196,175.96862 230.79446,177.36862 230.79446,179.67862 Z"
         id="path189" />
      <path
         d="M 252.75695,174.72612 C 251.60195,173.64112 250.28945,173.11612 248.80195,173.11612 245.89695,173.11612 244.28695,174.93612 244.28695,178.31362 244.33945,181.30612 245.89695,182.32112 248.80195,182.32112 250.28945,182.32112 251.60195,181.77862 252.75695,180.69362 V 183.70362 C 251.54945,184.52612 250.20195,184.92862 248.69695,184.92862 244.82945,184.92862 242.46695,182.40862 242.46695,178.31362 242.46695,174.21862 244.82945,171.69862 248.69695,171.69862 250.23695,171.69862 251.56695,172.10112 252.75695,172.90612 Z"
         id="path191" />
      <path
         d="M 264.49944,180.11612 H 261.75194 V 178.27862 H 266.45944 V 183.49362 C 265.12944,184.43862 263.50194,184.92862 261.68194,184.92862 257.69194,184.92862 255.31194,182.47862 255.31194,178.31362 255.31194,174.14862 257.69194,171.69862 261.68194,171.69862 263.34444,171.69862 264.86694,172.11862 266.12694,172.90612 V 174.56862 C 264.84944,173.48362 263.41444,172.94112 261.82194,172.94112 258.70694,172.94112 257.13194,174.69112 257.13194,178.13862 257.25444,181.28862 258.70694,182.14612 261.82194,182.14612 263.04694,182.14612 264.07944,181.93612 264.49944,181.49862 Z"
         id="path193" />
      <path
         d="M 281.42195,186.94112 H 277.36195 L 275.55945,184.89362 C 275.19195,184.92862 275.03445,184.92862 274.84195,184.92862 271.37695,184.92862 269.01445,182.33862 269.01445,178.31362 269.01445,174.28862 271.34195,171.69862 274.92945,171.69862 278.51695,171.69862 280.82695,174.28862 280.82695,178.31362 280.82695,181.28862 279.72445,182.82862 278.70945,183.94862 Z M 274.92945,173.09862 C 272.42695,173.09862 270.83445,175.09362 270.83445,178.31362 270.83445,180.95612 272.79445,181.53362 273.82695,181.65612 L 274.63195,181.76112 275.33195,180.58862 C 276.01445,180.88612 276.69695,181.09612 277.39695,181.18362 278.46445,180.60612 279.00695,179.64362 279.00695,178.31362 279.00695,175.09362 277.43195,173.09862 274.92945,173.09862 Z"
         id="path195" />
      <path
         d="M 301.77446,179.04862 C 300.58446,179.94112 299.62196,180.72862 298.51946,180.72862 297.90696,180.72862 297.17196,180.48362 296.33196,179.97612 296.27946,179.94112 296.22696,179.94112 296.19196,179.92362 L 296.01696,179.85362 C 295.12446,179.38112 294.42446,179.15362 293.88196,179.15362 292.88446,179.15362 291.93946,179.99362 290.81946,180.95612 V 179.17112 C 292.02696,178.27862 292.97196,177.91112 294.07446,177.91112 294.70446,177.91112 295.43946,178.08612 296.27946,178.41862 296.38446,178.47112 296.43696,178.48862 296.59446,178.54112 297.46946,178.89112 298.18696,179.06612 298.71196,179.06612 299.70946,179.06612 300.60196,178.66362 301.77446,177.70112 Z"
         id="path197" />
      <path
         d="M 308.93194,180.51862 304.32944,180.58862 304.39944,179.18862 309.00194,179.10112 Z"
         id="path199" />
      <path
         d="M 316.31695,178.47112 V 173.71112 H 317.75195 V 178.47112 H 322.51195 V 179.92362 H 317.75195 V 184.68362 H 316.31695 V 179.92362 H 311.55695 V 178.47112 Z"
         id="path201" />
      <path
         d="M 336.02193,178.17362 H 325.06693 V 176.73862 H 336.02193 Z M 336.02193,181.67362 H 325.06693 V 179.95862 H 336.02193 Z"
         id="path203" />
      <path
         d="M 338.75194,181.44612 347.79944,179.11862 339.31194,175.21612 339.45194,173.67612 350.00444,178.57612 349.84694,180.51862 338.57694,183.51112 Z"
         id="path205" />
    </g>
  </g>
</svg>
