<?xml version="1.0" encoding="UTF-8" standalone="no"?>
<!-- Created with Inkscape (http://www.inkscape.org/) -->

<svg
   xmlns:dc="http://purl.org/dc/elements/1.1/"
   xmlns:cc="http://creativecommons.org/ns#"
   xmlns:rdf="http://www.w3.org/1999/02/22-rdf-syntax-ns#"
   xmlns:svg="http://www.w3.org/2000/svg"
   xmlns="http://www.w3.org/2000/svg"
   xmlns:sodipodi="http://sodipodi.sourceforge.net/DTD/sodipodi-0.dtd"
   xmlns:inkscape="http://www.inkscape.org/namespaces/inkscape"
   width="82.227074mm"
   height="30.26198mm"
   viewBox="0 0 291.35577 107.22749"
   id="svg2"
   version="1.1"
   inkscape:version="0.91 r13725"
   sodipodi:docname="Overpass Nerd Font.svg">
  <defs
     id="defs4" />
  <sodipodi:namedview
     id="base"
     pagecolor="#ffffff"
     bordercolor="#666666"
     borderopacity="1.0"
     inkscape:pageopacity="0.0"
     inkscape:pageshadow="2"
     inkscape:zoom="0.7"
     inkscape:cx="-54.727147"
     inkscape:cy="-401.19894"
     inkscape:document-units="px"
     inkscape:current-layer="layer1"
     showgrid="false"
     inkscape:window-width="1861"
     inkscape:window-height="1056"
     inkscape:window-x="59"
     inkscape:window-y="24"
     inkscape:window-maximized="1" />
  <metadata
     id="metadata7">
    <rdf:RDF>
      <cc:Work
         rdf:about="">
        <dc:format>image/svg+xml</dc:format>
        <dc:type
           rdf:resource="http://purl.org/dc/dcmitype/StillImage" />
        <dc:title />
      </cc:Work>
    </rdf:RDF>
  </metadata>
  <g
     inkscape:label="Layer 1"
     inkscape:groupmode="layer"
     id="layer1"
     transform="translate(-64.727143,-81.078632)">
    <g
       style="font-style:normal;font-weight:normal;font-size:27.5px;line-height:125%;font-family:'Overpass Nerd Font';text-decoration: underline;text-decoration-line: underline;letter-spacing:0px;word-spacing:0px;fill:#ffffff;fill-opacity:1;stroke:none;stroke-width:1px;stroke-linecap:butt;stroke-linejoin:miter;stroke-opacity:1"
       id="text4136">
      <path
         d="m 72.894643,101.26363 c 6.0775,0 8.195,-5.197498 8.195,-9.954998 0,-4.7575 -2.1175,-9.955 -8.195,-9.955 -6.05,0 -8.1675,5.1975 -8.1675,9.955 0,4.7575 2.1175,9.954998 8.1675,9.954998 z m 0,-2.254998 c -4.2075,0 -5.6925,-3.9325 -5.6925,-7.7 0,-3.4925 1.485,-7.7275 5.6925,-7.7275 4.235,0 5.6925,3.96 5.6925,7.7275 0,3.465 -1.4575,7.7 -5.6925,7.7 z"
         id="path4140"
         inkscape:connector-curvature="0" />
      <path
         d="m 88.995034,100.93363 2.0075,0 5.1425,-14.052498 -2.3925,0 -3.2725,9.3775 c -0.165,0.495 -0.3025,0.88 -0.44,1.375 -0.1375,-0.495 -0.275,-0.88 -0.44,-1.375 l -3.3275,-9.3775 -2.42,0 5.1425,14.052498 z"
         id="path4142"
         inkscape:connector-curvature="0" />
      <path
         d="m 104.7173,101.26363 c 1.8975,0 3.4925,-0.77 4.5375,-1.814998 l -1.4575,-1.6225 c -0.88,0.88 -1.9525,1.265 -3.025,1.265 -2.1175,0 -3.6575,-1.6775 -3.85,-4.2625 l 9.515,0 c 0.055,-0.55 0.0825,-1.155 0.0825,-1.595 0,-4.62 -2.64,-6.6825 -5.8025,-6.6825 -3.74,0 -6.2425,2.695 -6.2425,7.3425 0,4.29 2.3925,7.369998 6.2425,7.369998 z m -3.8225,-8.469998 c 0.1375,-2.8875 1.7875,-4.125 3.8225,-4.125 1.485,0 3.355,0.935 3.3825,4.125 l -7.205,0 z"
         id="path4144"
         inkscape:connector-curvature="0" />
      <path
         d="m 114.07031,100.93363 2.3925,0 0,-7.919998 c 0,-3.19 1.7875,-4.0975 3.135,-4.0975 0.9625,0 1.5675,0.3025 2.0075,0.605 l 0.3575,-2.255 c -0.495,-0.4125 -1.265,-0.715 -2.1725,-0.715 -1.5675,0 -2.695,0.77 -3.3275,2.1725 l 0,-1.8425 -2.3925,0 0,14.052498 z"
         id="path4146"
         inkscape:connector-curvature="0" />
      <path
         d="m 130.75378,101.26363 c 3.41,0 5.8025,-2.694998 5.8025,-7.369998 0,-4.51 -2.2275,-7.3425 -5.8025,-7.3425 -1.76,0 -2.7775,0.6875 -3.6025,1.5125 l 0,-1.1825 -2.3925,0 0,19.607498 2.3925,-1.1275 0,-5.747498 c 0.7425,0.879998 1.7875,1.649998 3.6025,1.649998 z m -0.3025,-2.227498 c -1.43,0 -2.5025,-0.8525 -3.3,-1.8975 l 0,-6.49 c 0.6875,-1.21 1.87,-1.8975 3.3,-1.8975 2.31,0 3.6575,2.09 3.6575,5.1425 0,3.3275 -1.32,5.1425 -3.6575,5.1425 z"
         id="path4148"
         inkscape:connector-curvature="0" />
      <path
         d="m 148.33874,100.93363 2.255,0 0,-9.322498 c 0,-4.3175 -2.805,-5.06 -5.005,-5.06 -2.1175,0 -3.96,0.7425 -5.0875,1.485 l 0.6875,2.0075 c 1.045,-0.7425 2.53,-1.4025 4.0975,-1.4025 1.815,0 3.0525,0.6875 3.0525,3.1625 l 0,0.99 c -1.155,-0.66 -2.3925,-0.9075 -3.63,-0.9075 -2.7225,0 -5.2525,1.4025 -5.2525,4.6475 0,3.135 2.035,4.729998 4.895,4.729998 1.6775,0 3.0525,-0.7425 3.9875,-1.622498 l 0,1.292498 z m -3.63,-1.787498 c -1.925,0 -2.9975,-1.045 -2.9975,-2.6125 0,-1.7875 1.5125,-2.585 3.3275,-2.585 1.155,0 2.4475,0.4125 3.3,0.935 l 0,2.42 c -0.7975,0.935 -2.0625,1.8425 -3.63,1.8425 z"
         id="path4150"
         inkscape:connector-curvature="0" />
      <path
         d="m 158.88199,101.26363 c 3.0525,0 5.005,-1.457498 5.005,-3.987498 0,-2.6675 -2.0075,-3.7675 -4.565,-4.675 -1.5675,-0.6325 -2.97,-1.155 -2.97,-2.3375 0,-0.99 0.9075,-1.5675 2.3375,-1.5675 1.5125,0 2.5025,0.715 3.1075,1.3475 l 1.65,-1.375 c -1.0175,-1.21 -2.585,-2.1175 -4.73,-2.1175 -2.695,0 -4.73,1.4025 -4.73,3.7125 0,2.31 1.76,3.4375 4.345,4.4 1.65,0.6325 3.2175,1.265 3.2175,2.6675 0,1.2375 -1.1275,1.7875 -2.6125,1.7875 -1.5125,0 -2.7225,-0.9075 -3.4375,-1.6775 l -1.705,1.4575 c 1.1,1.402498 3.025,2.364998 5.0875,2.364998 z"
         id="path4152"
         inkscape:connector-curvature="0" />
      <path
         d="m 171.77261,101.26363 c 3.0525,0 5.005,-1.457498 5.005,-3.987498 0,-2.6675 -2.0075,-3.7675 -4.565,-4.675 -1.5675,-0.6325 -2.97,-1.155 -2.97,-2.3375 0,-0.99 0.9075,-1.5675 2.3375,-1.5675 1.5125,0 2.5025,0.715 3.1075,1.3475 l 1.65,-1.375 c -1.0175,-1.21 -2.585,-2.1175 -4.73,-2.1175 -2.695,0 -4.73,1.4025 -4.73,3.7125 0,2.31 1.76,3.4375 4.345,4.4 1.65,0.6325 3.2175,1.265 3.2175,2.6675 0,1.2375 -1.1275,1.7875 -2.6125,1.7875 -1.5125,0 -2.7225,-0.9075 -3.4375,-1.6775 l -1.705,1.4575 c 1.1,1.402498 3.025,2.364998 5.0875,2.364998 z"
         id="path4154"
         inkscape:connector-curvature="0" />
      <path
         d="m 201.44855,100.93363 0,-19.249998 -2.3925,0 0,13.7225 c 0,0.44 0.0275,0.9075 0.055,1.4025 -0.275,-0.5225 -0.5225,-0.9625 -0.7975,-1.43 l -8.525,-13.695 -2.42,0 0,19.249998 2.3925,0 0,-13.749998 c 0,-0.44 -0.0275,-0.935 -0.055,-1.3475 0.2475,0.4675 0.5225,0.935 0.77,1.3475 l 8.6625,13.749998 2.31,0 z"
         id="path4156"
         inkscape:connector-curvature="0" />
      <path
         d="m 211.87062,101.26363 c 1.8975,0 3.4925,-0.77 4.5375,-1.814998 l -1.4575,-1.6225 c -0.88,0.88 -1.9525,1.265 -3.025,1.265 -2.1175,0 -3.6575,-1.6775 -3.85,-4.2625 l 9.515,0 c 0.055,-0.55 0.0825,-1.155 0.0825,-1.595 0,-4.62 -2.64,-6.6825 -5.8025,-6.6825 -3.74,0 -6.2425,2.695 -6.2425,7.3425 0,4.29 2.3925,7.369998 6.2425,7.369998 z m -3.8225,-8.469998 c 0.1375,-2.8875 1.7875,-4.125 3.8225,-4.125 1.485,0 3.355,0.935 3.3825,4.125 l -7.205,0 z"
         id="path4158"
         inkscape:connector-curvature="0" />
      <path
         d="m 221.22363,100.93363 2.3925,0 0,-7.919998 c 0,-3.19 1.7875,-4.0975 3.135,-4.0975 0.9625,0 1.5675,0.3025 2.0075,0.605 l 0.3575,-2.255 c -0.495,-0.4125 -1.265,-0.715 -2.1725,-0.715 -1.5675,0 -2.695,0.77 -3.3275,2.1725 l 0,-1.8425 -2.3925,0 0,14.052498 z"
         id="path4160"
         inkscape:connector-curvature="0" />
      <path
         d="m 236.8896,101.26363 c 1.6775,0 2.75,-0.605 3.5475,-1.429998 l 0,1.099998 2.3925,0 0,-19.854998 -2.3925,1.1275 0,5.665 c -0.7975,-0.715 -1.8975,-1.32 -3.5475,-1.32 -3.4925,0 -5.8025,2.7225 -5.8025,7.3425 0,4.5375 2.2275,7.369998 5.8025,7.369998 z m 0.33,-2.227498 c -2.31,0 -3.7125,-2.2275 -3.7125,-5.1425 0,-3.3 1.3475,-5.1425 3.7125,-5.1425 1.6225,0 2.695,0.9625 3.2175,1.7875 l 0,6.6 c -0.715,1.21 -1.8975,1.8975 -3.2175,1.8975 z"
         id="path4162"
         inkscape:connector-curvature="0" />
      <path
         d="m 254.23867,100.93363 2.3925,0 0,-8.827498 6.0775,0 0,-2.255 -6.0775,0 0,-5.9125 9.185,0 0,-2.255 -11.5775,0 0,19.249998 z"
         id="path4164"
         inkscape:connector-curvature="0" />
      <path
         d="m 273.6107,101.26363 c 3.7675,0 6.215,-2.749998 6.215,-7.369998 0,-4.6475 -2.4475,-7.3425 -6.215,-7.3425 -3.7675,0 -6.215,2.75 -6.215,7.37 0,4.6475 2.4475,7.342498 6.215,7.342498 z m 0,-2.227498 c -2.3925,0 -3.795,-1.925 -3.795,-5.115 0,-3.2725 1.4025,-5.17 3.795,-5.17 2.3925,0 3.795,1.9525 3.795,5.1425 0,3.2175 -1.43,5.1425 -3.795,5.1425 z"
         id="path4166"
         inkscape:connector-curvature="0" />
      <path
         d="m 292.24453,100.93363 2.3925,0 0,-8.084998 c 0,-4.5375 -1.8425,-6.2975 -5.0325,-6.2975 -1.5125,0 -2.75,0.55 -3.63,1.76 l 0,-1.43 -2.3925,0 0,14.052498 2.3925,0 0,-8.552498 c 0,-2.7225 1.4025,-3.63 3.245,-3.63 1.7325,0 3.025,1.0175 3.025,3.685 l 0,8.497498 z"
         id="path4168"
         inkscape:connector-curvature="0" />
      <path
         d="m 302.84578,101.26363 c 1.1,0 1.9525,-0.2475 2.695,-0.6325 l 0.275,-2.337498 c -0.605,0.385 -1.2925,0.7425 -2.09,0.7425 -1.2375,0 -1.4575,-0.8525 -1.4575,-1.925 l 0,-8.14 3.465,0 0,-2.09 -3.465,0 0,-5.8025 -2.3925,1.155 0,4.6475 -2.2825,0 0,2.09 2.2825,0 0,8.9375 c 0,1.98 0.8525,3.354998 2.97,3.354998 z"
         id="path4170"
         inkscape:connector-curvature="0" />
    </g>
    <g
       style="font-style:normal;font-weight:normal;font-size:27.5px;line-height:125%;font-family:'Overpass Nerd Font';letter-spacing:0px;word-spacing:0px;fill:#ffffff;fill-opacity:1;stroke:none;stroke-width:1px;stroke-linecap:butt;stroke-linejoin:miter;stroke-opacity:1"
       id="text4140">
      <path
         d="m 71.999403,140.93362 1.435,0 0,-5.9325 c 0,-2.7475 -1.785,-3.22 -3.185,-3.22 -1.3475,0 -2.52,0.4725 -3.2375,0.945 l 0.4375,1.2775 c 0.665,-0.4725 1.61,-0.8925 2.6075,-0.8925 1.155,0 1.9425,0.4375 1.9425,2.0125 l 0,0.63 c -0.735,-0.42 -1.5225,-0.5775 -2.31,-0.5775 -1.7325,0 -3.3425,0.8925 -3.3425,2.9575 0,1.995 1.295,3.01 3.115,3.01 1.0675,0 1.9425,-0.4725 2.5375,-1.0325 l 0,0.8225 z m -2.31,-1.1375 c -1.225,0 -1.9075,-0.665 -1.9075,-1.6625 0,-1.1375 0.9625,-1.645 2.1175,-1.645 0.735,0 1.5575,0.2625 2.1,0.595 l 0,1.54 c -0.5075,0.595 -1.3125,1.1725 -2.31,1.1725 z"
         style="font-size:17.5px"
         id="path4173"
         inkscape:connector-curvature="0" />
      <path
         d="m 79.881239,141.14362 c 2.275,0 3.6575,-1.6625 3.6575,-4.69 0,-2.94 -1.4875,-4.6725 -3.71,-4.6725 -0.9275,0 -1.7325,0.42 -2.24,0.98 l 0,-4.4625 -1.5225,0.7175 0,11.9175 1.5225,0 0,-0.77 c 0.525,0.5075 1.155,0.98 2.2925,0.98 z m -0.21,-1.4175 c -0.84,0 -1.645,-0.455 -2.0825,-1.2075 l 0,-4.1475 c 0.2975,-0.5075 1.0675,-1.19 2.0825,-1.19 1.5225,0 2.31,1.1725 2.31,3.2725 0,2.0125 -0.77,3.2725 -2.31,3.2725 z"
         style="font-size:17.5px"
         id="path4175"
         inkscape:connector-curvature="0" />
      <path
         d="m 89.094989,141.14362 c 1.645,0 2.835,-0.8225 3.2725,-2.2925 l -1.4175,-0.4725 c -0.2625,0.84 -0.9275,1.33 -1.82,1.33 -1.435,0 -2.1875,-1.2075 -2.1875,-3.2375 0,-2.0125 0.7175,-3.2725 2.24,-3.2725 0.875,0 1.4175,0.5075 1.68,1.19 l 1.435,-0.525 c -0.5075,-1.4 -1.645,-2.0825 -3.1325,-2.0825 -2.345,0 -3.78,1.75 -3.78,4.69 0,2.9575 1.435,4.6725 3.71,4.6725 z"
         style="font-size:17.5px"
         id="path4177"
         inkscape:connector-curvature="0" />
      <path
         d="m 97.827489,141.14362 c 1.0675,0 1.75,-0.385 2.257501,-0.91 l 0,0.7 1.5225,0 0,-12.635 -1.5225,0.7175 0,3.605 c -0.507501,-0.455 -1.207501,-0.84 -2.257501,-0.84 -2.2225,0 -3.6925,1.7325 -3.6925,4.6725 0,2.8875 1.4175,4.69 3.6925,4.69 z m 0.21,-1.4175 c -1.47,0 -2.3625,-1.4175 -2.3625,-3.2725 0,-2.1 0.8575,-3.2725 2.3625,-3.2725 1.0325,0 1.715,0.6125 2.047501,1.1375 l 0,4.2 c -0.455001,0.77 -1.207501,1.2075 -2.047501,1.2075 z"
         style="font-size:17.5px"
         id="path4179"
         inkscape:connector-curvature="0" />
      <path
         d="m 107.95124,141.14362 c 1.2075,0 2.2225,-0.49 2.8875,-1.155 l -0.9275,-1.0325 c -0.56,0.56 -1.2425,0.805 -1.925,0.805 -1.3475,0 -2.3275,-1.0675 -2.45,-2.7125 l 6.055,0 c 0.035,-0.35 0.0525,-0.735 0.0525,-1.015 0,-2.94 -1.68,-4.2525 -3.6925,-4.2525 -2.38,0 -3.9725,1.715 -3.9725,4.6725 0,2.73 1.5225,4.69 3.9725,4.69 z m -2.4325,-5.39 c 0.0875,-1.8375 1.1375,-2.625 2.4325,-2.625 0.945,0 2.135,0.595 2.1525,2.625 l -4.585,0 z"
         style="font-size:17.5px"
         id="path4181"
         inkscape:connector-curvature="0" />
      <path
         d="m 115.93315,133.32112 2.0825,0 0,-1.33 -2.0825,0 0,-1.225 c 0,-0.4725 0.07,-0.9275 0.805,-0.9275 0.4375,0 0.8225,0.1225 1.2775,0.3325 l 0,-1.2775 c -0.455,-0.245 -0.98,-0.42 -1.6625,-0.42 -0.9625,0 -1.9425,0.4725 -1.9425,2.03 l 0,1.4875 -1.3825,0 0,1.33 1.3825,0 0,7.6125 1.5225,0 0,-7.6125 z"
         style="font-size:17.5px"
         id="path4183"
         inkscape:connector-curvature="0" />
      <path
         d="m 122.25612,144.55612 c 2.485,-0.14 4.2175,-1.085 4.2175,-3.99 l 0,-8.575 -1.5225,0 0,0.735 c -0.35,-0.385 -1.05,-0.945 -2.2575,-0.945 -2.1875,0 -3.71,1.7325 -3.71,4.6725 0,3.115 1.68,4.69 3.6575,4.69 1.085,0 1.8025,-0.385 2.31,-1.085 l 0,1.085 c 0,1.1725 -0.665,2.065 -3.43,2.2225 l 0.735,1.19 z m 0.7,-4.83 c -1.435,0 -2.4325,-1.225 -2.4325,-3.2725 0,-2.1 0.84,-3.2725 2.4325,-3.2725 0.6825,0 1.5575,0.455 1.995,1.19 l 0,4.095 c -0.455,0.7875 -1.26,1.26 -1.995,1.26 z"
         style="font-size:17.5px"
         id="path4185"
         inkscape:connector-curvature="0" />
      <path
         d="m 129.35237,140.93362 1.5225,0 0,-5.4425 c 0,-1.7325 0.8925,-2.31 2.065,-2.31 1.1025,0 1.925,0.6475 1.925,2.345 l 0,5.4075 1.5225,0 0,-5.145 c 0,-2.8875 -1.1725,-4.0075 -3.2025,-4.0075 -0.9625,0 -1.75,0.3675 -2.31,1.1375 l 0,-4.62 -1.5225,0.7 0,11.935 z"
         style="font-size:17.5px"
         id="path4187"
         inkscape:connector-curvature="0" />
      <path
         d="m 139.96612,130.36362 c 0.5425,0 0.9625,-0.42 0.9625,-0.945 0,-0.5425 -0.42,-0.98 -0.9625,-0.98 -0.525,0 -0.945,0.4375 -0.945,0.98 0,0.525 0.42,0.945 0.945,0.945 z m -0.7525,10.57 1.5225,0 0,-8.9425 -1.5225,0 0,8.9425 z"
         style="font-size:17.5px"
         id="path4189"
         inkscape:connector-curvature="0" />
      <path
         d="m 144.70042,130.36362 c 0.5425,0 0.945,-0.42 0.945,-0.945 0,-0.5425 -0.4025,-0.98 -0.945,-0.98 -0.5425,0 -0.9625,0.4375 -0.9625,0.98 0,0.525 0.42,0.945 0.9625,0.945 z m -2.345,14.315 c 0.8575,-0.1225 1.75,-0.42 2.4325,-1.26 0.5075,-0.595 0.665,-1.4525 0.665,-2.415 l 0,-9.0125 -1.5225,0 0,9.5725 c 0,1.0675 -0.5075,1.68 -2.2925,1.96 l 0.7175,1.155 z"
         style="font-size:17.5px"
         id="path4191"
         inkscape:connector-curvature="0" />
      <path
         d="m 155.61878,140.93362 -3.36,-6.51 2.345,-2.4325 -1.82,0 -2.905,3.08 0,-6.7725 -1.5225,0.7175 0,11.9175 1.5225,0 0,-4.0425 1.3125,-1.365 2.765,5.4075 1.6625,0 z"
         style="font-size:17.5px"
         id="path4193"
         inkscape:connector-curvature="0" />
      <path
         d="m 157.74065,140.93362 1.5225,0 0,-12.635 -1.5225,0.7175 0,11.9175 z"
         style="font-size:17.5px"
         id="path4195"
         inkscape:connector-curvature="0" />
      <path
         d="m 172.71573,140.93362 1.5225,0 0,-5.8625 c 0,-2.17 -1.365,-3.29 -3.15,-3.29 -1.155,0 -2.065,0.5075 -2.59,1.3125 -0.5075,-0.875 -1.435,-1.3125 -2.3975,-1.3125 -0.945,0 -1.8025,0.3325 -2.345,1.05 l 0,-0.84 -1.5225,0 0,8.9425 1.5225,0 0,-5.4425 c 0,-1.4175 0.735,-2.31 1.925,-2.31 1.3825,0 1.785,1.1025 1.785,2.3275 l 0,5.425 1.5225,0 0,-5.3725 c 0,-1.4175 0.77,-2.38 1.925,-2.38 1.3825,0 1.8025,1.1025 1.8025,2.3275 l 0,5.425 z"
         style="font-size:17.5px"
         id="path4197"
         inkscape:connector-curvature="0" />
      <path
         d="m 182.54554,140.93362 1.5225,0 0,-5.145 c 0,-2.8875 -1.1725,-4.0075 -3.2025,-4.0075 -0.9625,0 -1.75,0.35 -2.31,1.12 l 0,-0.91 -1.5225,0 0,8.9425 1.5225,0 0,-5.4425 c 0,-1.7325 0.8925,-2.31 2.065,-2.31 1.1025,0 1.925,0.6475 1.925,2.345 l 0,5.4075 z"
         style="font-size:17.5px"
         id="path4199"
         inkscape:connector-curvature="0" />
      <path
         d="m 190.30679,141.14362 c 2.3975,0 3.955,-1.75 3.955,-4.69 0,-2.9575 -1.5575,-4.6725 -3.955,-4.6725 -2.3975,0 -3.955,1.75 -3.955,4.69 0,2.9575 1.5575,4.6725 3.955,4.6725 z m 0,-1.4175 c -1.5225,0 -2.415,-1.225 -2.415,-3.255 0,-2.0825 0.8925,-3.29 2.415,-3.29 1.5225,0 2.415,1.2425 2.415,3.2725 0,2.0475 -0.91,3.2725 -2.415,3.2725 z"
         style="font-size:17.5px"
         id="path4201"
         inkscape:connector-curvature="0" />
      <path
         d="m 200.46718,141.14362 c 2.17,0 3.6925,-1.715 3.6925,-4.69 0,-2.87 -1.4175,-4.6725 -3.6925,-4.6725 -1.12,0 -1.7675,0.4375 -2.2925,0.9625 l 0,-0.7525 -1.5225,0 0,12.4775 1.5225,-0.7175 0,-3.6575 c 0.4725,0.56 1.1375,1.05 2.2925,1.05 z m -0.1925,-1.4175 c -0.91,0 -1.5925,-0.5425 -2.1,-1.2075 l 0,-4.13 c 0.4375,-0.77 1.19,-1.2075 2.1,-1.2075 1.47,0 2.3275,1.33 2.3275,3.2725 0,2.1175 -0.84,3.2725 -2.3275,3.2725 z"
         style="font-size:17.5px"
         id="path4203"
         inkscape:connector-curvature="0" />
      <path
         d="m 209.71511,141.14362 c 1.05,0 1.715,-0.4375 2.2575,-1.05 l 0,4.34 1.5225,-0.6825 0,-11.76 -1.5225,0 0,0.7525 c -0.5425,-0.49 -1.225,-0.9625 -2.31,-0.9625 -2.275,0 -3.6575,1.8025 -3.6575,4.69 0,2.9575 1.4875,4.6725 3.71,4.6725 z m 0.14,-1.4175 c -1.4875,0 -2.31,-1.155 -2.31,-3.255 0,-1.8725 0.8575,-3.29 2.31,-3.29 0.8575,0 1.6275,0.385 2.1175,1.2075 l 0,4.1125 c -0.4025,0.525 -1.085,1.225 -2.1175,1.225 z"
         style="font-size:17.5px"
         id="path4205"
         inkscape:connector-curvature="0" />
      <path
         d="m 216.37386,140.93362 1.5225,0 0,-5.04 c 0,-2.03 1.1375,-2.6075 1.995,-2.6075 0.6125,0 0.9975,0.1925 1.2775,0.385 l 0.2275,-1.435 c -0.315,-0.2625 -0.805,-0.455 -1.3825,-0.455 -0.9975,0 -1.715,0.49 -2.1175,1.3825 l 0,-1.1725 -1.5225,0 0,8.9425 z"
         style="font-size:17.5px"
         id="path4207"
         inkscape:connector-curvature="0" />
      <path
         d="m 225.81811,141.14362 c 1.9425,0 3.185,-0.9275 3.185,-2.5375 0,-1.6975 -1.2775,-2.3975 -2.905,-2.975 -0.9975,-0.4025 -1.89,-0.735 -1.89,-1.4875 0,-0.63 0.5775,-0.9975 1.4875,-0.9975 0.9625,0 1.5925,0.455 1.9775,0.8575 l 1.05,-0.875 c -0.6475,-0.77 -1.645,-1.3475 -3.01,-1.3475 -1.715,0 -3.01,0.8925 -3.01,2.3625 0,1.47 1.12,2.1875 2.765,2.8 1.05,0.4025 2.0475,0.805 2.0475,1.6975 0,0.7875 -0.7175,1.1375 -1.6625,1.1375 -0.9625,0 -1.7325,-0.5775 -2.1875,-1.0675 l -1.085,0.9275 c 0.7,0.8925 1.925,1.505 3.2375,1.505 z"
         style="font-size:17.5px"
         id="path4209"
         inkscape:connector-curvature="0" />
      <path
         d="m 233.79374,141.14362 c 0.7,0 1.2425,-0.1575 1.715,-0.4025 l 0.175,-1.4875 c -0.385,0.245 -0.8225,0.4725 -1.33,0.4725 -0.7875,0 -0.9275,-0.5425 -0.9275,-1.225 l 0,-5.18 2.205,0 0,-1.33 -2.205,0 0,-3.6925 -1.5225,0.735 0,2.9575 -1.4525,0 0,1.33 1.4525,0 0,5.6875 c 0,1.26 0.5425,2.135 1.89,2.135 z"
         style="font-size:17.5px"
         id="path4211"
         inkscape:connector-curvature="0" />
      <path
         d="m 242.88772,140.93362 1.5225,0 0,-8.9425 -1.5225,0 0,5.425 c 0,1.75 -0.8925,2.31 -2.065,2.31 -1.1025,0 -1.925,-0.6475 -1.925,-2.345 l 0,-5.39 -1.5225,0 0,5.1625 c 0,2.87 1.155,3.99 3.255,3.99 0.945,0 1.6625,-0.2975 2.2575,-1.0675 l 0,0.8575 z"
         style="font-size:17.5px"
         id="path4213"
         inkscape:connector-curvature="0" />
      <path
         d="m 249.70397,140.93362 1.2775,0 3.2725,-8.9425 -1.5225,0 -2.0825,5.9675 c -0.105,0.315 -0.1925,0.56 -0.28,0.875 -0.0875,-0.315 -0.175,-0.56 -0.28,-0.875 l -2.1175,-5.9675 -1.54,0 3.2725,8.9425 z"
         style="font-size:17.5px"
         id="path4215"
         inkscape:connector-curvature="0" />
      <path
         d="m 257.76655,140.93362 1.365,0 1.61,-5.3025 c 0.105,-0.35 0.2275,-0.8225 0.315,-1.1725 0.0875,0.35 0.2275,0.8225 0.3325,1.1725 l 1.6275,5.3025 1.365,0 2.2925,-8.9425 -1.505,0 -1.3475,6.0025 c -0.07,0.3675 -0.14,0.6825 -0.1925,0.98 l -0.245,-0.98 -1.68,-6.0025 -1.26,0 -1.68,6.0025 c -0.0875,0.3325 -0.175,0.6475 -0.2275,0.945 -0.0525,-0.2975 -0.1225,-0.595 -0.1925,-0.945 l -1.365,-6.0025 -1.505,0 2.2925,8.9425 z"
         style="font-size:17.5px"
         id="path4217"
         inkscape:connector-curvature="0" />
      <path
         d="m 267.71038,140.93362 1.6975,0 1.645,-2.5375 c 0.1925,-0.2975 0.3675,-0.5775 0.5075,-0.8575 0.1575,0.28 0.315,0.56 0.5075,0.8575 l 1.645,2.5375 1.715,0 -3.01,-4.655 2.7825,-4.2875 -1.715,0 -1.4,2.17 c -0.21,0.315 -0.3675,0.595 -0.525,0.8575 -0.14,-0.2625 -0.315,-0.5425 -0.5075,-0.8575 l -1.4175,-2.17 -1.6975,0 2.765,4.2875 -2.9925,4.655 z"
         style="font-size:17.5px"
         id="path4219"
         inkscape:connector-curvature="0" />
      <path
         d="m 278.58882,144.32862 1.54,0 4.6375,-12.3375 -1.5575,0 -2.2575,6.09 c -0.1225,0.315 -0.1925,0.56 -0.28,0.8575 -0.0875,-0.2975 -0.1575,-0.5425 -0.28,-0.8575 l -2.2225,-6.09 -1.5225,0 3.3075,8.715 -1.365,3.6225 z"
         style="font-size:17.5px"
         id="path4221"
         inkscape:connector-curvature="0" />
      <path
         d="m 286.43401,140.93362 6.545,0 0,-1.365 -4.655,0 4.6725,-6.4925 0,-1.085 -6.2125,0 0,1.3475 4.305,0 -4.655,6.475 0,1.12 z"
         style="font-size:17.5px"
         id="path4223"
         inkscape:connector-curvature="0" />
      <path
         d="m 74.851903,162.80862 1.5575,0 -4.34,-12.25 -1.4175,0 -4.34,12.25 1.5925,0 1.0325,-2.9925 4.865,0 1.05,2.9925 z m -1.5225,-4.34 -3.9375,0 1.5925,-4.5325 c 0.1225,-0.35 0.2975,-0.9275 0.385,-1.2425 0.07,0.315 0.2625,0.8925 0.385,1.2425 l 1.575,4.5325 z"
         style="font-size:17.5px"
         id="path4225"
         inkscape:connector-curvature="0" />
      <path
         d="m 78.687137,150.55862 0,12.25 4.62,0 c 2.9925,0 3.9725,-1.855 3.9725,-3.5175 0,-1.4 -0.8225,-2.5025 -2.24,-2.94 1.1375,-0.49 1.8025,-1.435 1.8025,-2.555 0,-1.6275 -0.91,-3.2375 -3.815,-3.2375 l -4.34,0 z m 4.0425,5.1975 -2.52,0 0,-3.815 2.905,0 c 1.8375,0 2.2225,0.98 2.2225,1.8725 0,1.1725 -0.875,1.9425 -2.6075,1.9425 z m 0.7525,5.6525 -3.2725,0 0,-4.27 2.7125,0 c 2.2925,0 2.8525,1.085 2.8525,2.2575 0,0.98 -0.49,2.0125 -2.2925,2.0125 z"
         style="font-size:17.5px"
         id="path4227"
         inkscape:connector-curvature="0" />
      <path
         d="m 94.550614,163.01862 c 2.1525,0 3.43,-1.1025 4.06,-2.4675 l -1.4,-0.525 c -0.56,0.9275 -1.3125,1.5575 -2.66,1.5575 -2.45,0 -3.5,-2.4675 -3.5,-4.9 0,-2.24 0.875,-4.9175 3.5,-4.9175 1.3475,0 2.0125,0.63 2.59,1.4875 l 1.365,-0.7 c -0.5425,-1.1025 -1.6975,-2.205 -3.955,-2.205 -3.64,0 -5.075,3.255 -5.075,6.335 0,3.115 1.365,6.335 5.075,6.335 z"
         style="font-size:17.5px"
         id="path4229"
         inkscape:connector-curvature="0" />
      <path
         d="m 101.31409,150.55862 0,12.25 3.2725,0 c 4.445,0 5.7575,-3.3075 5.7575,-6.125 0,-3.0275 -1.4875,-6.125 -5.6875,-6.125 l -3.3425,0 z m 3.465,10.8325 -1.9425,0 0,-9.4325 2.135,0 c 2.695,0 3.7975,2.345 3.7975,4.725 0,2.2225 -0.945,4.7075 -3.99,4.7075 z"
         style="font-size:17.5px"
         id="path4231"
         inkscape:connector-curvature="0" />
      <path
         d="m 113.2428,162.80862 7.665,0 0,-1.4525 -6.1425,0 0,-4.165 3.7975,0 0,-1.435 -3.7975,0 0,-3.7625 5.7575,0 0,-1.435 -7.28,0 0,12.25 z"
         style="font-size:17.5px"
         id="path4233"
         inkscape:connector-curvature="0" />
      <path
         d="m 123.73597,162.80862 1.5225,0 0,-5.6175 3.8675,0 0,-1.435 -3.8675,0 0,-3.7625 5.845,0 0,-1.435 -7.3675,0 0,12.25 z"
         style="font-size:17.5px"
         id="path4235"
         inkscape:connector-curvature="0" />
      <path
         d="m 137.73952,163.01862 c 2.45,0 4.34,-1.645 4.34,-4.69 l 0,-1.47 -3.815,0 0,1.4 2.2225,0 0,0.49 c 0,1.6625 -1.085,2.8175 -2.7475,2.8175 -2.555,0 -3.6225,-2.3625 -3.6225,-4.8825 0,-2.24 0.8925,-4.9 3.6225,-4.9 1.3475,0 2.0475,0.7 2.6075,1.505 l 1.365,-0.7875 c -0.6825,-1.1025 -1.6975,-2.1525 -3.9725,-2.1525 -3.5875,0 -5.1975,3.1675 -5.1975,6.335 0,3.2025 1.4875,6.335 5.1975,6.335 z"
         style="font-size:17.5px"
         id="path4237"
         inkscape:connector-curvature="0" />
      <path
         d="m 152.39577,162.80862 1.5225,0 0,-12.25 -1.5225,0 0,5.18 -5.775,0 0,-5.18 -1.5225,0 0,12.25 1.5225,0 0,-5.635 5.775,0 0,5.635 z"
         style="font-size:17.5px"
         id="path4239"
         inkscape:connector-curvature="0" />
      <path
         d="m 157.3696,162.80862 1.5225,0 0,-12.25 -1.5225,0 0,12.25 z"
         style="font-size:17.5px"
         id="path4241"
         inkscape:connector-curvature="0" />
      <path
         d="m 164.49811,163.01862 c 1.715,0 3.8675,-0.8575 3.8675,-4.235 l 0,-8.225 -1.5225,0 0,8.2775 c 0,2.24 -1.1725,2.7475 -2.3275,2.7475 -1.26,0 -1.82,-0.4725 -2.2925,-1.4175 l -1.26,0.6475 c 0.6125,1.4175 1.7675,2.205 3.535,2.205 z"
         style="font-size:17.5px"
         id="path4243"
         inkscape:connector-curvature="0" />
      <path
         d="m 179.00343,162.80862 1.7675,0 -4.375,-8.015 3.3775,-4.235 -1.715,0 -4.7775,6.0025 0,-6.0025 -1.5225,0 0,12.25 1.5225,0 0,-4.1825 2.0825,-2.555 3.64,6.7375 z"
         style="font-size:17.5px"
         id="path4245"
         inkscape:connector-curvature="0" />
      <path
         d="m 183.31116,162.80862 7.5425,0 0,-1.47 -6.02,0 0,-10.78 -1.5225,0 0,12.25 z"
         style="font-size:17.5px"
         id="path4247"
         inkscape:connector-curvature="0" />
      <path
         d="m 203.72655,162.80862 0,-12.25 -1.4525,0 -3.57,8.2425 c -0.105,0.2625 -0.2275,0.56 -0.315,0.8225 l -0.315,-0.8225 -3.5525,-8.2425 -1.435,0 0,12.25 1.5225,0 0,-7.525 c 0,-0.42 -0.0175,-1.015 -0.0525,-1.33 0.14,0.4025 0.3675,0.945 0.525,1.33 l 3.255,7.735 3.36,-7.7 c 0.175,-0.42 0.4025,-0.98 0.5425,-1.3825 -0.0175,0.315 -0.035,0.9275 -0.035,1.3475 l 0,7.525 1.5225,0 z"
         style="font-size:17.5px"
         id="path4249"
         inkscape:connector-curvature="0" />
      <path
         d="m 216.0944,162.80862 0,-12.25 -1.5225,0 0,8.7325 c 0,0.28 0.0175,0.5775 0.035,0.8925 -0.175,-0.3325 -0.3325,-0.6125 -0.5075,-0.91 l -5.425,-8.715 -1.54,0 0,12.25 1.5225,0 0,-8.75 c 0,-0.28 -0.0175,-0.595 -0.035,-0.8575 0.1575,0.2975 0.3325,0.595 0.49,0.8575 l 5.5125,8.75 1.47,0 z"
         style="font-size:17.5px"
         id="path4251"
         inkscape:connector-curvature="0" />
      <path
         d="m 224.21413,163.01862 c 3.8675,0 5.215,-3.3075 5.215,-6.335 0,-3.0275 -1.3475,-6.335 -5.215,-6.335 -3.85,0 -5.1975,3.3075 -5.1975,6.335 0,3.0275 1.3475,6.335 5.1975,6.335 z m 0,-1.435 c -2.6775,0 -3.6225,-2.5025 -3.6225,-4.9 0,-2.2225 0.945,-4.9175 3.6225,-4.9175 2.695,0 3.6225,2.52 3.6225,4.9175 0,2.205 -0.9275,4.9 -3.6225,4.9 z"
         style="font-size:17.5px"
         id="path4253"
         inkscape:connector-curvature="0" />
      <path
         d="m 232.32483,162.80862 1.5225,0 0,-4.9175 3.1675,0 c 2.87,0 3.955,-1.9775 3.955,-3.6575 0,-1.82 -0.98,-3.675 -3.955,-3.675 l -4.69,0 0,12.25 z m 4.795,-6.335 -3.2725,0 0,-4.4975 3.2725,0 c 1.8375,0 2.3275,1.295 2.3275,2.2575 0,1.05 -0.595,2.24 -2.3275,2.24 z"
         style="font-size:17.5px"
         id="path4255"
         inkscape:connector-curvature="0" />
      <path
         d="m 247.86647,163.01862 c 0.8575,0 1.575,-0.1575 2.205,-0.455 l 0.945,1.4 1.12,-0.7875 -0.9275,-1.365 c 1.3475,-1.2425 1.8725,-3.2375 1.8725,-5.1275 0,-3.0275 -1.3475,-6.335 -5.215,-6.335 -3.85,0 -5.1975,3.3075 -5.1975,6.335 0,3.0275 1.3475,6.335 5.1975,6.335 z m 0,-1.435 c -2.6775,0 -3.6225,-2.5025 -3.6225,-4.9 0,-2.2225 0.945,-4.9175 3.6225,-4.9175 2.695,0 3.6225,2.52 3.6225,4.9175 0,1.3125 -0.3325,2.8 -1.155,3.78 l -0.84,-1.26 -1.155,0.7875 0.875,1.3125 c -0.385,0.1925 -0.84,0.28 -1.3475,0.28 z"
         style="font-size:17.5px"
         id="path4257"
         inkscape:connector-curvature="0" />
      <path
         d="m 255.97718,162.80862 1.5225,0 0,-5.25 2.7125,0 2.52,5.25 1.715,0 -2.625,-5.355 c 2.0475,-0.42 2.8525,-1.96 2.8525,-3.4125 0,-1.7325 -0.9275,-3.4825 -3.8675,-3.4825 l -4.83,0 0,12.25 z m 1.5225,-6.6675 0,-4.165 3.3425,0 c 1.8025,0 2.2925,1.19 2.2925,2.1 0,1.015 -0.5775,2.065 -2.2925,2.065 l -3.3425,0 z"
         style="font-size:17.5px"
         id="path4259"
         inkscape:connector-curvature="0" />
      <path
         d="m 271.16827,163.01862 c 2.31,0 4.025,-1.2775 4.025,-3.535 0,-2.415 -1.995,-3.3075 -3.71,-3.955 -1.3825,-0.5075 -2.6425,-1.015 -2.6425,-2.1525 0,-0.9975 0.7875,-1.61 2.0825,-1.61 1.2075,0 1.995,0.56 2.2925,1.2425 l 1.4,-0.4725 c -0.3675,-1.26 -1.645,-2.1875 -3.5875,-2.1875 -2.38,0 -3.7625,1.3825 -3.7625,3.0275 0,2.135 1.8725,2.9225 3.5875,3.5525 1.435,0.525 2.765,1.1725 2.765,2.59 0,1.3475 -0.945,2.065 -2.415,2.065 -1.3475,0 -2.38,-0.735 -2.87,-1.82 l -1.435,0.525 c 0.5425,1.575 2.135,2.73 4.27,2.73 z"
         style="font-size:17.5px"
         id="path4261"
         inkscape:connector-curvature="0" />
      <path
         d="m 282.23893,152.01112 3.4125,0 0,-1.4525 -8.3475,0 0,1.4525 3.4125,0 0,10.7975 1.5225,0 0,-10.7975 z"
         style="font-size:17.5px"
         id="path4263"
         inkscape:connector-curvature="0" />
      <path
         d="m 292.61616,163.01862 c 2.625,0 4.41,-1.295 4.41,-4.8125 l 0,-7.6475 -1.5225,0 0,7.6475 c 0,2.695 -1.3125,3.3775 -2.8875,3.3775 -1.575,0 -2.87,-0.6825 -2.87,-3.3775 l 0,-7.6475 -1.5225,0 0,7.6475 c 0,3.535 1.82,4.8125 4.3925,4.8125 z"
         style="font-size:17.5px"
         id="path4265"
         inkscape:connector-curvature="0" />
      <path
         d="m 303.70159,162.80862 1.3475,0 4.1825,-12.25 -1.6275,0 -2.835,8.855 c -0.105,0.35 -0.245,0.7875 -0.35,1.2425 -0.1225,-0.455 -0.2625,-0.8925 -0.3675,-1.2425 l -2.9225,-8.855 -1.6275,0 4.2,12.25 z"
         style="font-size:17.5px"
         id="path4267"
         inkscape:connector-curvature="0" />
      <path
         d="m 313.45511,162.80862 1.2425,0 2.3625,-8.365 c 0.14,-0.5075 0.2275,-0.8575 0.2975,-1.2075 0.07,0.35 0.175,0.7 0.315,1.2075 l 2.3625,8.365 1.2075,0 2.66,-12.25 -1.5575,0 -1.6625,7.9625 c -0.105,0.5075 -0.175,0.875 -0.2275,1.2075 -0.0525,-0.3325 -0.14,-0.6825 -0.28,-1.19 l -2.1875,-7.98 -1.2075,0 -2.17,7.9975 c -0.14,0.5425 -0.2625,0.9275 -0.3325,1.295 -0.0525,-0.3675 -0.1225,-0.77 -0.2275,-1.3125 l -1.505,-7.98 -1.5925,0 2.5025,12.25 z"
         style="font-size:17.5px"
         id="path4269"
         inkscape:connector-curvature="0" />
      <path
         d="m 332.51807,162.80862 1.715,0 -3.675,-6.4225 3.36,-5.8275 -1.68,0 -2.485,4.4275 -2.52,-4.4275 -1.715,0 3.3775,5.915 -3.64,6.335 1.6975,0 2.7475,-4.9525 2.8175,4.9525 z"
         style="font-size:17.5px"
         id="path4271"
         inkscape:connector-curvature="0" />
      <path
         d="m 339.55198,162.80862 1.5225,0 0,-4.8475 4.13,-7.4025 -1.6625,0 -3.2375,5.95 -3.2025,-5.95 -1.715,0 4.165,7.4375 0,4.8125 z"
         style="font-size:17.5px"
         id="path4273"
         inkscape:connector-curvature="0" />
      <path
         d="m 347.00042,162.80862 9.0825,0 0,-1.4525 -7.07,0 7.07,-9.625 0,-1.1725 -8.68,0 0,1.4525 6.7025,0 -7.105,9.625 0,1.1725 z"
         style="font-size:17.5px"
         id="path4275"
         inkscape:connector-curvature="0" />
      <path
         d="m 70.301903,184.89362 c 2.3975,0 3.955,-1.75 3.955,-4.69 0,-2.9575 -1.5575,-4.6725 -3.955,-4.6725 -2.3975,0 -3.955,1.75 -3.955,4.69 0,2.9575 1.5575,4.6725 3.955,4.6725 z m 0,-1.4175 c -1.5225,0 -2.415,-1.225 -2.415,-3.255 0,-2.0825 0.8925,-3.29 2.415,-3.29 1.5225,0 2.415,1.2425 2.415,3.2725 0,2.0475 -0.91,3.2725 -2.415,3.2725 z"
         style="font-size:17.5px"
         id="path4277"
         inkscape:connector-curvature="0" />
      <path
         d="m 81.582294,184.89362 c 3.8675,0 5.215,-3.3075 5.215,-6.335 0,-3.0275 -1.3475,-6.335 -5.215,-6.335 -3.85,0 -5.1975,3.3075 -5.1975,6.335 0,3.0275 1.3475,6.335 5.1975,6.335 z m 0,-1.435 c -2.6775,0 -3.6225,-2.5025 -3.6225,-4.9 0,-2.2225 0.945,-4.9175 3.6225,-4.9175 2.695,0 3.6225,2.52 3.6225,4.9175 0,2.205 -0.9275,4.9 -3.6225,4.9 z"
         style="font-size:17.5px"
         id="path4279"
         inkscape:connector-curvature="0" />
      <path
         d="m 93.577997,184.89362 c 3.4125,0 4.2875,-3.64 4.2875,-6.335 0,-3.01 -0.9975,-6.335 -4.2875,-6.335 -3.4475,0 -4.2875,3.64 -4.2875,6.335 0,3.045 0.9975,6.335 4.2875,6.335 z m 0,-1.435 c -2.1525,0 -2.7125,-2.485 -2.7125,-4.9 0,-2.1875 0.4725,-4.9175 2.7125,-4.9175 2.135,0 2.6775,2.5025 2.6775,4.9175 0,2.1875 -0.455,4.9 -2.6775,4.9 z"
         style="font-size:17.5px"
         id="path4281"
         inkscape:connector-curvature="0" />
      <path
         d="m 104.49225,184.89362 c 2.4325,0 4.13,-1.5925 4.13,-3.7275 0,-1.5225 -0.8575,-2.6775 -2.1175,-3.22 1.0325,-0.5075 1.575,-1.435 1.575,-2.5375 0,-1.7675 -1.47,-3.185 -3.5875,-3.185 -2.1,0 -3.57,1.4175 -3.57,3.185 0,1.1025 0.56,2.03 1.5575,2.5375 -1.225,0.525 -2.1,1.6975 -2.1,3.22 0,2.135 1.6975,3.7275 4.1125,3.7275 z m 0,-7.56 c -1.225,0 -2.03,-0.7875 -2.03,-1.8025 0,-1.155 0.8575,-1.89 2.03,-1.89 1.19,0 2.0475,0.735 2.0475,1.89 0,1.015 -0.8225,1.8025 -2.0475,1.8025 z m 0,6.125 c -1.47,0 -2.5375,-0.9275 -2.5375,-2.415 0,-1.3125 1.0325,-2.4325 2.5375,-2.4325 1.505,0 2.555,1.12 2.555,2.4325 0,1.4875 -1.085,2.415 -2.555,2.415 z"
         style="font-size:17.5px"
         id="path4283"
         inkscape:connector-curvature="0" />
      <path
         d="m 116.17706,174.11362 c 0.5425,0 0.9625,-0.42 0.9625,-0.945 0,-0.5425 -0.42,-0.98 -0.9625,-0.98 -0.525,0 -0.945,0.4375 -0.945,0.98 0,0.525 0.42,0.945 0.945,0.945 z m -0.7525,10.57 1.5225,0 0,-8.9425 -1.5225,0 0,8.9425 z"
         style="font-size:17.5px"
         id="path4285"
         inkscape:connector-curvature="0" />
      <path
         d="m 120.14792,184.68362 1.5225,0 0,-12.25 -1.5225,0 0,12.25 z"
         style="font-size:17.5px"
         id="path4287"
         inkscape:connector-curvature="0" />
      <path
         d="m 124.96233,184.68362 1.5225,0 0,-12.635 -1.5225,0.7175 0,11.9175 z"
         style="font-size:17.5px"
         id="path4289"
         inkscape:connector-curvature="0" />
      <path
         d="m 129.71741,184.68362 7.5425,0 0,-1.47 -6.02,0 0,-10.78 -1.5225,0 0,12.25 z"
         style="font-size:17.5px"
         id="path4291"
         inkscape:connector-curvature="0" />
      <path
         d="m 140.5253,184.68362 1.5225,0 0,-12.25 -1.1025,0 c -0.3675,1.1025 -1.26,1.4525 -2.4675,1.4525 l 0,1.0325 2.0475,0 0,9.765 z"
         style="font-size:17.5px"
         id="path4293"
         inkscape:connector-curvature="0" />
      <path
         d="m 154.18268,186.95862 0,-1.3125 c -1.3125,-0.0525 -1.96,-0.9275 -1.96,-2.4325 l 0,-1.05 c 0,-1.96 -0.6475,-2.45 -1.785,-2.5725 1.1375,-0.1575 1.785,-0.6825 1.785,-2.5725 l 0,-1.0675 c 0,-1.4875 0.6475,-2.3625 1.96,-2.415 l 0,-1.3125 c -2.1,0.0525 -3.5,1.3825 -3.5,4.06 l 0,0.945 c 0,1.015 -0.4375,1.6975 -1.19,1.6975 l -0.1575,0 0,1.295 0.1575,0 c 0.7525,0 1.19,0.7 1.19,1.715 l 0,0.9625 c 0,2.6775 1.4,4.0075 3.5,4.06 z"
         style="font-size:17.5px"
         id="path4295"
         inkscape:connector-curvature="0" />
      <path
         d="m 155.65432,186.95862 c 2.0825,-0.0525 3.4825,-1.3825 3.4825,-4.06 l 0,-0.9625 c 0,-1.015 0.455,-1.715 1.19,-1.715 l 0.175,0 0,-1.295 -0.175,0 c -0.735,0 -1.19,-0.6825 -1.19,-1.6975 l 0,-0.945 c 0,-2.6775 -1.4,-4.0075 -3.4825,-4.06 l 0,1.3125 c 1.295,0.0525 1.9425,0.9275 1.9425,2.415 l 0,1.0675 c 0,1.89 0.6475,2.415 1.785,2.5725 -1.1375,0.1225 -1.785,0.6125 -1.785,2.5725 l 0,1.05 c 0,1.505 -0.6475,2.38 -1.9425,2.4325 l 0,1.3125 z"
         style="font-size:17.5px"
         id="path4297"
         inkscape:connector-curvature="0" />
      <path
         d="m 167.38753,186.95862 3.85,0 0,-1.4 -2.3275,0 0,-11.935 2.3275,0 0,-1.4 -3.85,0 0,14.735 z"
         style="font-size:17.5px"
         id="path4299"
         inkscape:connector-curvature="0" />
      <path
         d="m 176.78421,186.95862 0,-14.735 -3.85,0 0,1.4 2.3275,0 0,11.935 -2.3275,0 0,1.4 3.85,0 z"
         style="font-size:17.5px"
         id="path4301"
         inkscape:connector-curvature="0" />
      <path
         d="m 186.99245,188.30612 c 2.485,-0.14 4.2175,-1.085 4.2175,-3.99 l 0,-8.575 -1.5225,0 0,0.735 c -0.35,-0.385 -1.05,-0.945 -2.2575,-0.945 -2.1875,0 -3.71,1.7325 -3.71,4.6725 0,3.115 1.68,4.69 3.6575,4.69 1.085,0 1.8025,-0.385 2.31,-1.085 l 0,1.085 c 0,1.1725 -0.665,2.065 -3.43,2.2225 l 0.735,1.19 z m 0.7,-4.83 c -1.435,0 -2.4325,-1.225 -2.4325,-3.2725 0,-2.1 0.84,-3.2725 2.4325,-3.2725 0.6825,0 1.5575,0.455 1.995,1.19 l 0,4.095 c -0.455,0.7875 -1.26,1.26 -1.995,1.26 z"
         style="font-size:17.5px"
         id="path4303"
         inkscape:connector-curvature="0" />
      <path
         d="m 195.6812,184.89362 c 3.9375,-0.56 6.195,-3.9025 6.195,-7.9275 0,-2.695 -1.295,-4.7425 -4.0775,-4.7425 -2.3975,0 -4.165,1.68 -4.165,3.99 0,2.205 1.6275,3.85 3.7625,3.85 1.2425,0 2.1875,-0.455 2.6775,-1.05 -0.42,2.52 -2.275,4.0775 -4.3925,4.4625 l 0,1.4175 z m 2.065,-6.2475 c -1.575,0 -2.555,-0.9975 -2.555,-2.5025 0,-1.4175 1.0325,-2.45 2.555,-2.45 1.47,0 2.555,1.0325 2.555,2.45 0,1.4875 -1.05,2.5025 -2.555,2.5025 z"
         style="font-size:17.5px"
         id="path4305"
         inkscape:connector-curvature="0" />
      <path
         d="m 207.73268,184.89362 c 1.05,0 1.715,-0.4375 2.2575,-1.05 l 0,4.34 1.5225,-0.6825 0,-11.76 -1.5225,0 0,0.7525 c -0.5425,-0.49 -1.225,-0.9625 -2.31,-0.9625 -2.275,0 -3.6575,1.8025 -3.6575,4.69 0,2.9575 1.4875,4.6725 3.71,4.6725 z m 0.14,-1.4175 c -1.4875,0 -2.31,-1.155 -2.31,-3.255 0,-1.8725 0.8575,-3.29 2.31,-3.29 0.8575,0 1.6275,0.385 2.1175,1.2075 l 0,4.1125 c -0.4025,0.525 -1.085,1.225 -2.1175,1.225 z"
         style="font-size:17.5px"
         id="path4307"
         inkscape:connector-curvature="0" />
      <path
         d="m 219.20393,184.89362 c 2.1525,0 3.43,-1.1025 4.06,-2.4675 l -1.4,-0.525 c -0.56,0.9275 -1.3125,1.5575 -2.66,1.5575 -2.45,0 -3.5,-2.4675 -3.5,-4.9 0,-2.24 0.875,-4.9175 3.5,-4.9175 1.3475,0 2.0125,0.63 2.59,1.4875 l 1.365,-0.7 c -0.5425,-1.1025 -1.6975,-2.205 -3.955,-2.205 -3.64,0 -5.075,3.255 -5.075,6.335 0,3.115 1.365,6.335 5.075,6.335 z"
         style="font-size:17.5px"
         id="path4309"
         inkscape:connector-curvature="0" />
      <path
         d="m 230.46901,184.89362 c 2.45,0 4.34,-1.645 4.34,-4.69 l 0,-1.47 -3.815,0 0,1.4 2.2225,0 0,0.49 c 0,1.6625 -1.085,2.8175 -2.7475,2.8175 -2.555,0 -3.6225,-2.3625 -3.6225,-4.8825 0,-2.24 0.8925,-4.9 3.6225,-4.9 1.3475,0 2.0475,0.7 2.6075,1.505 l 1.365,-0.7875 c -0.6825,-1.1025 -1.6975,-2.1525 -3.9725,-2.1525 -3.5875,0 -5.1975,3.1675 -5.1975,6.335 0,3.2025 1.4875,6.335 5.1975,6.335 z"
         style="font-size:17.5px"
         id="path4311"
         inkscape:connector-curvature="0" />
      <path
         d="m 242.50026,184.89362 c 0.8575,0 1.575,-0.1575 2.205,-0.455 l 0.945,1.4 1.12,-0.7875 -0.9275,-1.365 c 1.3475,-1.2425 1.8725,-3.2375 1.8725,-5.1275 0,-3.0275 -1.3475,-6.335 -5.215,-6.335 -3.85,0 -5.1975,3.3075 -5.1975,6.335 0,3.0275 1.3475,6.335 5.1975,6.335 z m 0,-1.435 c -2.6775,0 -3.6225,-2.5025 -3.6225,-4.9 0,-2.2225 0.945,-4.9175 3.6225,-4.9175 2.695,0 3.6225,2.52 3.6225,4.9175 0,1.3125 -0.3325,2.8 -1.155,3.78 l -0.84,-1.26 -1.155,0.7875 0.875,1.3125 c -0.385,0.1925 -0.84,0.28 -1.3475,0.28 z"
         style="font-size:17.5px"
         id="path4313"
         inkscape:connector-curvature="0" />
      <path
         d="m 260.48753,179.94112 c 1.6275,0 2.2575,-1.19 2.2575,-2.52 l -1.015,0 c -0.0525,0.63 -0.5075,1.0675 -1.2075,1.0675 -1.05,0 -2.2225,-1.0675 -3.71,-1.0675 -1.645,0 -2.2575,1.2075 -2.2575,2.52 l 0.9975,0 c 0.0525,-0.63 0.5075,-1.05 1.2075,-1.05 1.1025,0 2.2575,1.05 3.7275,1.05 z"
         style="font-size:17.5px"
         id="path4315"
         inkscape:connector-curvature="0" />
      <path
         d="m 265.72932,180.20362 4.095,0 0,-1.47 -4.095,0 0,1.47 z"
         style="font-size:17.5px"
         id="path4317"
         inkscape:connector-curvature="0" />
      <path
         d="m 277.65448,179.41612 3.36,0 0,-1.47 -3.36,0 0,-3.3775 -1.54,0 0,3.3775 -3.325,0 0,1.47 3.325,0 0,3.3775 1.54,0 0,-3.3775 z"
         style="font-size:17.5px"
         id="path4319"
         inkscape:connector-curvature="0" />
      <path
         d="m 284.06878,177.87612 8.225,0 0,-1.47 -8.225,0 0,1.47 z m 0,3.08 8.225,0 0,-1.4525 -8.225,0 0,1.4525 z"
         style="font-size:17.5px"
         id="path4321"
         inkscape:connector-curvature="0" />
      <path
         d="m 303.57307,179.36362 0,-1.3475 -8.225,-3.3425 0,1.505 6.3,2.5025 -6.3,2.5025 0,1.505 8.225,-3.325 z"
         style="font-size:17.5px"
         id="path4323"
         inkscape:connector-curvature="0" />
    </g>
  </g>
</svg>
