<svg xmlns="http://www.w3.org/2000/svg" width="391.04" height="114.432" viewBox="0 0 366.6 107.28"><g font-weight="400" font-family="OverpassMono Nerd Font" letter-spacing="0" word-spacing="0" fill="#fff"><g style="line-height:125%;text-decoration-line:underline" font-size="27.5" text-decoration="underline"><path d="M6.545 20.185c4.813 0 6.573-5.06 6.573-9.955 0-4.895-1.76-9.955-6.573-9.955C1.733.275 0 5.335 0 10.23c0 4.895 1.733 9.955 6.545 9.955zm0-2.2c-2.997 0-4.097-3.767-4.097-7.755 0-3.712 1.1-7.755 4.097-7.755 2.998 0 4.098 3.74 4.098 7.755 0 3.685-1.128 7.755-4.098 7.755zM22.501 19.855h1.925l5.39-14.053h-2.392l-3.438 9.433c-.165.467-.302.825-.467 1.402a8.377 8.377 0 0 0-.468-1.402l-3.465-9.433H17.14L22.5 19.855zM46.543 12.21c0-4.675-2.668-6.737-5.885-6.737-3.878 0-6.435 2.695-6.435 7.342 0 4.125 2.392 7.37 6.435 7.37a7 7 0 0 0 4.675-1.787l-1.32-1.54c-1.045.852-2.145 1.21-3.273 1.21-2.282 0-3.74-1.65-4.097-4.318h9.817c.083-.632.083-1.155.083-1.54zm-9.955-.495c.192-2.53 1.512-4.152 4.07-4.152 1.54 0 3.465.88 3.547 4.152h-7.617zM60.767 5.472c-2.035 0-4.373 1.018-5.363 2.778V5.802h-5.17v2.09h2.943v9.873h-2.943v2.09h9.433v-2.09h-4.098V11.77c0-2.668 2.42-3.988 5.088-3.988.302 0 .577 0 .852.028V11h2.338V6.132c-.66-.385-1.65-.66-3.08-.66zM68.583 25.41l2.338-1.128v-5.747c.77.88 1.815 1.65 3.85 1.65 3.492 0 6.022-2.695 6.022-7.37 0-4.51-2.31-7.342-6.105-7.342-1.87 0-2.915.715-3.767 1.54v-1.21h-2.338V25.41zm5.885-7.397c-1.622 0-2.75-.825-3.547-1.898V9.543c.715-1.21 1.925-1.925 3.465-1.925 2.557 0 4.015 2.062 4.015 5.197 0 3.355-1.43 5.198-3.933 5.198zM90.205 20.185c1.76 0 3.135-.688 4.152-1.622v1.292h2.228v-9.377c0-4.18-2.805-5.005-4.978-5.005-2.117 0-4.125.797-5.362 1.567l.687 1.953c1.183-.77 2.943-1.485 4.455-1.485 1.623 0 2.97.632 2.97 3.135v1.072c-1.237-.66-2.42-.907-3.795-.907-2.777 0-5.39 1.402-5.39 4.647 0 3.135 2.09 4.73 5.033 4.73zm.302-2.035c-2.007 0-3.135-1.1-3.135-2.695 0-1.815 1.623-2.64 3.465-2.64 1.32 0 2.668.468 3.52.99v2.42c-.797.935-2.09 1.925-3.85 1.925zM108.004 20.185c3.107 0 5.06-1.512 5.06-3.96 0-2.832-2.448-3.74-4.703-4.62-1.677-.66-3.3-1.237-3.3-2.475 0-1.017 1.073-1.622 2.695-1.622 1.623 0 2.695.77 3.41 1.43l1.568-1.293c-1.155-1.32-2.805-2.172-4.923-2.172-2.805 0-4.922 1.43-4.922 3.657 0 2.42 2.007 3.355 4.427 4.345 1.843.715 3.575 1.375 3.575 2.833 0 1.21-1.237 1.842-2.722 1.842-1.595 0-2.998-.935-3.823-1.842l-1.595 1.402c1.21 1.43 3.135 2.475 5.253 2.475zM124.923 20.185c3.107 0 5.06-1.512 5.06-3.96 0-2.832-2.448-3.74-4.703-4.62-1.677-.66-3.3-1.237-3.3-2.475 0-1.017 1.073-1.622 2.695-1.622 1.623 0 2.695.77 3.41 1.43l1.568-1.293c-1.155-1.32-2.805-2.172-4.923-2.172-2.805 0-4.922 1.43-4.922 3.657 0 2.42 2.007 3.355 4.427 4.345 1.843.715 3.575 1.375 3.575 2.833 0 1.21-1.237 1.842-2.722 1.842-1.595 0-2.998-.935-3.823-1.842l-1.595 1.402c1.21 1.43 3.135 2.475 5.253 2.475zM136.067 19.855h2.172V7.782c0-.412-.027-1.155-.055-1.76.138.633.275 1.183.413 1.76l3.107 12.073h.385l3.108-12.073c.137-.577.275-1.127.412-1.76-.055.605-.055 1.348-.055 1.76v12.073h2.173V.605h-2.475l-2.915 11.522c-.248.88-.358 1.403-.413 2.008-.082-.605-.192-1.128-.412-2.008L138.624.605h-2.557v19.25zM158.816 20.185c3.987 0 6.572-2.777 6.572-7.37 0-4.62-2.585-7.342-6.572-7.342-3.96 0-6.573 2.805-6.573 7.37 0 4.62 2.613 7.342 6.573 7.342zm0-2.172c-2.723 0-4.18-1.98-4.18-5.17 0-3.328 1.457-5.225 4.18-5.225 2.75 0 4.18 2.007 4.18 5.197 0 3.218-1.513 5.198-4.18 5.198zM176.257 5.472c-1.788 0-3.218.743-4.015 2.008V5.802h-2.2v14.053h2.337V11.44c0-2.915 1.485-3.823 3.465-3.823 1.843 0 3.273 1.045 3.273 3.878v8.36h2.337v-8.058c0-4.537-1.897-6.325-5.197-6.325zM192.653 20.185c3.988 0 6.573-2.777 6.573-7.37 0-4.62-2.585-7.342-6.573-7.342-3.96 0-6.572 2.805-6.572 7.37 0 4.62 2.612 7.342 6.572 7.342zm0-2.172c-2.722 0-4.18-1.98-4.18-5.17 0-3.328 1.458-5.225 4.18-5.225 2.75 0 4.18 2.007 4.18 5.197 0 3.218-1.512 5.198-4.18 5.198zM220.661 19.855h2.31V6.517c0-.302 0-.632-.055-1.045.138.303.358.77.523 1.045l6.6 13.338h2.282V.605h-2.282V14.08c0 .275 0 .522.027 1.045-.137-.33-.357-.743-.495-1.018L223 .605h-2.338v19.25zM249.57 12.21c0-4.675-2.667-6.737-5.885-6.737-3.877 0-6.435 2.695-6.435 7.342 0 4.125 2.393 7.37 6.435 7.37a7 7 0 0 0 4.675-1.787l-1.32-1.54c-1.045.852-2.145 1.21-3.272 1.21-2.283 0-3.74-1.65-4.098-4.318h9.818c.082-.632.082-1.155.082-1.54zm-9.955-.495c.193-2.53 1.513-4.152 4.07-4.152 1.54 0 3.465.88 3.548 4.152h-7.618zM263.794 5.472c-2.035 0-4.372 1.018-5.362 2.778V5.802h-5.17v2.09h2.942v9.873h-2.942v2.09h9.432v-2.09h-4.097V11.77c0-2.668 2.42-3.988 5.087-3.988.303 0 .578 0 .853.028V11h2.337V6.132c-.66-.385-1.65-.66-3.08-.66zM276.808 20.185c1.843 0 3.025-.688 3.768-1.485v1.155h2.337V0l-2.337 1.128v5.665c-.798-.688-1.98-1.32-3.795-1.32-3.658 0-6.023 2.75-6.023 7.342 0 4.538 2.31 7.37 6.05 7.37zm.303-2.172c-2.475 0-3.96-2.255-3.96-5.198 0-3.327 1.402-5.197 3.932-5.197 1.87 0 2.943.99 3.493 1.815v6.655c-.715 1.237-1.925 1.925-3.465 1.925zM305.256 19.855h2.365v-8.828h6.793V8.772h-6.793V2.86h9.708V.605h-12.073v19.25zM328.005 20.185c3.987 0 6.572-2.777 6.572-7.37 0-4.62-2.585-7.342-6.572-7.342-3.96 0-6.573 2.805-6.573 7.37 0 4.62 2.613 7.342 6.573 7.342zm0-2.172c-2.723 0-4.18-1.98-4.18-5.17 0-3.328 1.457-5.225 4.18-5.225 2.75 0 4.18 2.007 4.18 5.197 0 3.218-1.513 5.198-4.18 5.198zM345.446 5.472c-1.787 0-3.217.743-4.015 2.008V5.802h-2.2v14.053h2.338V11.44c0-2.915 1.485-3.823 3.465-3.823 1.842 0 3.272 1.045 3.272 3.878v8.36h2.338v-8.058c0-4.537-1.898-6.325-5.198-6.325zM363.108 20.185c1.512 0 2.365-.248 3.107-.633l.275-2.282c-.605.358-1.292.77-2.585.77-1.705 0-2.035-.88-2.035-2.117v-8.03h4.73v-2.09h-4.73V0l-2.337 1.155v4.648h-3.218v2.09h3.218v8.772c0 2.145 1.017 3.52 3.575 3.52z"/></g><g style="line-height:125%" font-size="17.5"><path d="M5.432 60.065c1.12 0 1.995-.438 2.643-1.033v.823h1.417v-5.968c0-2.66-1.785-3.185-3.167-3.185-1.348 0-2.625.508-3.413.998l.438 1.242c.752-.49 1.872-.945 2.835-.945 1.032 0 1.89.403 1.89 1.995v.683c-.788-.42-1.54-.578-2.415-.578-1.768 0-3.43.893-3.43 2.958 0 1.995 1.33 3.01 3.202 3.01zm.193-1.295c-1.278 0-1.995-.7-1.995-1.715 0-1.155 1.032-1.68 2.205-1.68.84 0 1.697.297 2.24.63v1.54c-.508.595-1.33 1.225-2.45 1.225zM17.179 60.065c2.327 0 3.745-1.663 3.745-4.69 0-2.923-1.523-4.673-3.798-4.673-.962 0-1.89.42-2.432 1.033V47.22l-1.488.717v11.918h1.488v-.77c.542.507 1.207.98 2.485.98zm-.228-1.383c-.962 0-1.802-.472-2.257-1.225v-4.182c.315-.508 1.12-1.208 2.257-1.208 1.628 0 2.45 1.19 2.45 3.308 0 2.03-.805 3.307-2.45 3.307zM27.753 60.065c1.715 0 2.957-.823 3.412-2.24l-1.365-.49c-.297.84-.997 1.347-1.995 1.347-1.557 0-2.31-1.225-2.31-3.29 0-2.03.718-3.325 2.345-3.325.998 0 1.558.525 1.855 1.208l1.383-.508c-.525-1.365-1.68-2.065-3.22-2.065-2.415 0-3.885 1.75-3.885 4.69 0 2.958 1.452 4.673 3.78 4.673zM38.047 60.065c1.173 0 1.925-.438 2.398-.945v.735h1.487V47.22l-1.487.717v3.605c-.508-.437-1.26-.84-2.415-.84-2.328 0-3.833 1.75-3.833 4.673 0 2.887 1.47 4.69 3.85 4.69zm.193-1.383c-1.575 0-2.52-1.435-2.52-3.307 0-2.118.892-3.308 2.502-3.308 1.19 0 1.873.63 2.223 1.155v4.235c-.455.788-1.225 1.225-2.205 1.225zM53.014 54.99c0-2.975-1.698-4.288-3.745-4.288-2.468 0-4.095 1.715-4.095 4.673 0 2.625 1.522 4.69 4.095 4.69 1.19 0 2.24-.473 2.975-1.138l-.84-.98c-.665.543-1.365.77-2.083.77-1.452 0-2.38-1.05-2.607-2.747h6.247c.053-.403.053-.735.053-.98zm-6.335-.315c.122-1.61.962-2.643 2.59-2.643.98 0 2.205.56 2.257 2.643H46.68zM61.505 48.742c.683 0 1.208.123 1.733.368v-1.295c-.525-.245-1.12-.42-1.96-.42-1.313 0-2.608.49-2.608 2.205v1.312h-1.89v1.33h1.89v6.283h-1.89v1.33h5.758v-1.33h-2.38v-6.283h2.59v-1.33h-2.59v-1.05c0-.647.245-1.12 1.347-1.12zM69.98 63.53c2.484-.14 4.2-1.103 4.2-4.078v-8.54h-1.488v.753c-.333-.385-1.033-.963-2.345-.963-2.24 0-3.815 1.75-3.815 4.673 0 3.115 1.715 4.69 3.745 4.69 1.19 0 1.907-.385 2.415-1.085v1.085c0 1.242-.665 2.1-3.448 2.275l.735 1.19zm.612-4.848c-1.505 0-2.538-1.225-2.538-3.307 0-2.118.858-3.308 2.538-3.308.787 0 1.645.455 2.1 1.208v4.112c-.455.823-1.278 1.295-2.1 1.295zM77.771 59.855h1.487V54.5c0-1.855.945-2.433 2.205-2.433 1.155 0 2.083.665 2.083 2.468v5.32h1.487v-5.128c0-2.887-1.207-4.025-3.307-4.025-1.068 0-1.908.385-2.468 1.173V47.22l-1.487.7v11.935zM92.37 49.267c.543 0 .945-.402.945-.927 0-.543-.402-.963-.945-.963-.525 0-.927.42-.927.963 0 .525.402.927.927.927zm.753 9.258v-7.613h-3.955v1.33h2.467v6.283h-2.467v1.33h6.422v-1.33h-2.467zM103.714 49.267c.543 0 .945-.402.945-.927 0-.543-.402-.963-.945-.963-.525 0-.927.42-.927.963 0 .525.402.927.927.927zm.753 1.645h-3.955v1.33h2.467v7.823c0 1.487-.525 2.03-2.607 2.292l.717 1.225c2.31-.192 3.378-1.172 3.378-3.43v-9.24zM115.95 59.855h1.628l-3.342-6.528 2.362-2.415h-1.75l-3.255 3.43V47.22l-1.487.717v11.918h1.487V56.04l1.593-1.628 2.765 5.443zM125.195 58.525V47.22h-4.305l.665 1.33h2.152v9.975h-2.502v1.33h6.51v-1.33h-2.52zM137.554 50.702c-.945 0-1.593.63-1.995 1.365-.21-.665-.788-1.365-1.75-1.365-.84 0-1.4.49-1.733 1.365v-1.155h-1.365v8.943h1.453v-5.39c0-1.33.455-2.363 1.347-2.363.858 0 .998.963.998 2.118v5.635h1.452v-5.39c0-1.33.385-2.363 1.278-2.363.875 0 1.05.735 1.05 2.275v5.478h1.452V53.8c0-2.188-.7-3.098-2.187-3.098zM146.326 50.702c-1.138 0-2.048.473-2.555 1.278v-1.068h-1.4v8.943h1.487V54.5c0-1.855.945-2.433 2.205-2.433 1.173 0 2.083.665 2.083 2.468v5.32h1.487v-5.128c0-2.887-1.207-4.025-3.307-4.025zM156.76 60.065c2.537 0 4.182-1.768 4.182-4.69 0-2.94-1.645-4.673-4.182-4.673-2.52 0-4.183 1.785-4.183 4.69 0 2.94 1.663 4.673 4.183 4.673zm0-1.383c-1.733 0-2.66-1.26-2.66-3.29 0-2.117.927-3.325 2.66-3.325 1.75 0 2.66 1.278 2.66 3.308 0 2.047-.963 3.307-2.66 3.307zM163.939 63.39l1.487-.718v-3.657c.49.56 1.155 1.05 2.45 1.05 2.223 0 3.833-1.715 3.833-4.69 0-2.87-1.47-4.673-3.885-4.673-1.19 0-1.855.455-2.398.98v-.77h-1.487V63.39zm3.745-4.708c-1.033 0-1.75-.525-2.258-1.207v-4.183c.455-.77 1.225-1.225 2.205-1.225 1.628 0 2.555 1.313 2.555 3.308 0 2.135-.91 3.307-2.502 3.307zM180.41 63.355l1.488-.683v-11.76h-1.488v.77c-.525-.472-1.242-.98-2.38-.98-2.45 0-3.902 1.82-3.902 4.69 0 2.958 1.557 4.673 3.885 4.673 1.172 0 1.837-.438 2.397-1.05v4.34zm-2.275-4.673c-1.61 0-2.467-1.155-2.467-3.29 0-1.872.91-3.325 2.555-3.325.91 0 1.697.385 2.187 1.225v4.148c-.42.525-1.085 1.242-2.275 1.242zM191.264 50.702c-1.295 0-2.782.648-3.412 1.768v-1.558h-3.29v1.33h1.872v6.283h-1.872v1.33h6.002v-1.33h-2.607V54.71c0-1.698 1.54-2.538 3.237-2.538.193 0 .368 0 .543.018v2.03h1.487v-3.098c-.42-.245-1.05-.42-1.96-.42zM199.791 60.065c1.978 0 3.22-.963 3.22-2.52 0-1.803-1.557-2.38-2.992-2.94-1.068-.42-2.1-.788-2.1-1.575 0-.648.682-1.033 1.715-1.033 1.032 0 1.715.49 2.17.91l.997-.822c-.735-.84-1.785-1.383-3.132-1.383-1.785 0-3.133.91-3.133 2.328 0 1.54 1.278 2.135 2.818 2.765 1.172.455 2.275.875 2.275 1.802 0 .77-.788 1.173-1.733 1.173-1.015 0-1.907-.595-2.432-1.173l-1.015.893c.77.91 1.995 1.575 3.342 1.575zM211.398 60.065c.962 0 1.505-.158 1.977-.403l.175-1.452c-.385.227-.822.49-1.645.49-1.085 0-1.295-.56-1.295-1.348v-5.11h3.01v-1.33h-3.01V47.22l-1.487.735v2.957h-2.048v1.33h2.048v5.583c0 1.365.647 2.24 2.275 2.24zM221.097 60.065c1.015 0 1.767-.315 2.362-1.085v.875h1.523v-8.943h-1.523v5.268c0 1.89-.962 2.485-2.187 2.485-1.155 0-2.03-.683-2.03-2.52v-5.233h-1.505v5.04c0 2.958 1.155 4.113 3.36 4.113zM231.513 59.855h1.225l3.43-8.943h-1.522l-2.188 6.003c-.105.297-.192.525-.297.892a5.331 5.331 0 0 0-.298-.892l-2.205-6.003h-1.557l3.412 8.943zM240.18 59.855h1.295l1.225-5.583c.052-.245.122-.56.175-.91l.192.945 1.26 5.548h1.278l2.24-8.943h-1.453l-1.295 5.775c-.07.28-.122.525-.157.823a23.627 23.627 0 0 0-.158-.823l-1.295-5.775h-1.19l-1.277 5.758c-.053.262-.088.49-.14.787l-.14-.735-1.348-5.81h-1.452l2.24 8.943zM249.53 59.855h1.662l2.03-2.835c.14-.228.315-.455.437-.665.14.21.28.455.438.665l2.03 2.835h1.662l-3.307-4.62 3.097-4.323h-1.662l-1.82 2.538c-.158.21-.298.455-.438.665-.122-.21-.297-.455-.437-.665l-1.82-2.538h-1.663l3.098 4.323-3.308 4.62zM262.343 63.25h1.505l4.603-12.338h-1.558l-2.222 6.055c-.088.28-.193.578-.298.893a10.732 10.732 0 0 0-.28-.893l-2.187-6.055h-1.523l3.308 8.698-1.348 3.64zM271.832 59.855h6.703v-1.33h-4.778l4.795-6.633v-.98h-6.37v1.33h4.428l-4.778 6.598v1.015zM9.142 81.73h1.575l-4.06-12.25H5.38L1.337 81.73h1.61l.928-3.01h4.322l.945 3.01zm-4.847-4.358l1.4-4.48c.087-.28.262-.892.315-1.19.07.298.245.91.332 1.19l1.418 4.48H4.295zM13.084 81.73h3.78c3.027 0 3.972-1.803 3.972-3.483 0-1.522-.91-2.607-2.257-2.975 1.137-.455 1.82-1.382 1.82-2.572 0-1.61-.893-3.22-3.798-3.22h-3.517v12.25zm1.505-7.035v-3.833h2.1c1.855 0 2.257.963 2.257 1.873 0 1.19-.875 1.96-2.642 1.96h-1.715zm0 5.652v-4.305h1.907c2.31 0 2.888 1.12 2.888 2.275 0 1.015-.508 2.03-2.328 2.03H14.59zM27.998 81.94c1.837 0 2.94-1.155 3.482-2.45l-1.347-.508c-.438.928-1.05 1.558-2.135 1.558-2.135 0-3.045-2.45-3.045-4.935 0-2.275.805-4.935 3.045-4.935 1.032 0 1.575.665 2.012 1.487l1.33-.717c-.507-1.085-1.435-2.17-3.342-2.17-3.255 0-4.603 3.132-4.603 6.335 0 3.15 1.26 6.335 4.603 6.335zM34.6 81.73h2.817c3.938 0 5.093-3.308 5.093-6.125 0-3.028-1.313-6.125-5.023-6.125H34.6v12.25zm1.522-1.383v-9.485h1.54c2.363 0 3.273 2.363 3.273 4.743 0 2.24-.788 4.742-3.465 4.742h-1.348zM45.384 81.73h7.542v-1.435H46.89v-4.183h3.867v-1.435H46.89v-3.762h5.67V69.48h-7.175v12.25zM56.15 81.73h1.505v-5.618h4.323v-1.435h-4.323v-3.762h6.178V69.48H56.15v12.25zM70.907 81.94c2.135 0 3.797-1.628 3.797-4.673v-1.47h-3.78v1.383h2.205v.577c0 1.663-.822 2.783-2.222 2.783-1.995 0-2.835-2.398-2.835-4.935 0-2.275.735-4.935 2.835-4.935 1.067 0 1.627.717 2.065 1.505l1.33-.77c-.578-1.085-1.453-2.135-3.395-2.135-3.028 0-4.41 3.08-4.41 6.335 0 3.202 1.295 6.335 4.41 6.335zM77.683 81.73h1.505v-5.635h4.41v5.635h1.505V69.48h-1.505v5.18h-4.41v-5.18h-1.505v12.25zM95.713 70.862V69.48h-7.105v1.382h2.8v9.485h-2.8v1.383h7.105v-1.383h-2.8v-9.485h2.8zM102.717 81.94c1.68 0 3.832-.805 3.832-4.183V69.48h-1.505v8.382c0 2.083-1.19 2.678-2.31 2.678-1.365 0-1.837-.525-2.292-1.47l-1.243.63c.578 1.4 1.698 2.24 3.518 2.24zM116.406 81.73h1.732l-4.217-7.963 3.395-4.287h-1.733l-4.095 5.267V69.48h-1.505v12.25h1.505v-4.9l1.4-1.768 3.518 6.668zM120.75 81.73h7.332v-1.453h-5.827V69.48h-1.505v12.25zM131.516 81.73h1.383v-7.683c0-.262-.018-.735-.035-1.12.087.403.175.753.262 1.12l1.978 7.683h.245l1.977-7.683c.088-.367.175-.717.263-1.12-.035.385-.035.858-.035 1.12v7.683h1.382V69.48h-1.575l-1.855 7.332c-.157.56-.227.893-.262 1.278a11.107 11.107 0 0 0-.263-1.278l-1.837-7.332h-1.628v12.25zM142.283 81.73h1.47v-8.488c0-.192 0-.402-.035-.665.088.193.228.49.333.665l4.2 8.488h1.452V69.48h-1.452v8.575c0 .175 0 .332.017.665-.087-.21-.227-.473-.315-.648l-4.182-8.592h-1.488v12.25zM156.76 81.94c3.062 0 4.182-3.22 4.182-6.335 0-3.115-1.12-6.335-4.182-6.335-3.063 0-4.165 3.22-4.165 6.335 0 3.115 1.102 6.335 4.165 6.335zm0-1.4c-1.908 0-2.608-2.398-2.608-4.935 0-2.363.7-4.935 2.608-4.935 1.907 0 2.607 2.38 2.607 4.935 0 2.345-.717 4.935-2.607 4.935zM163.816 81.73h1.505v-4.918h2.275c2.87 0 3.955-1.977 3.955-3.657 0-1.82-.98-3.675-3.955-3.675h-3.78v12.25zm1.505-6.318v-4.55h2.38c1.855 0 2.363 1.313 2.363 2.293 0 1.067-.613 2.257-2.363 2.257h-2.38zM182.475 75.605c0-3.115-1.12-6.335-4.182-6.335-3.063 0-4.165 3.22-4.165 6.335 0 3.115 1.102 6.335 4.165 6.335a3.72 3.72 0 0 0 1.365-.245l.997 1.487 1.068-.752-.963-1.453c1.225-1.19 1.715-3.307 1.715-5.372zm-4.182 4.935c-1.908 0-2.608-2.398-2.608-4.935 0-2.363.7-4.935 2.608-4.935 1.907 0 2.607 2.38 2.607 4.935 0 1.505-.297 3.115-1.015 4.06l-.787-1.19-1.103.752.84 1.243c-.175.052-.35.07-.542.07zM192.962 72.962c0-1.75-.893-3.482-3.85-3.482h-3.763v12.25h1.505v-5.25h1.838l2.555 5.25h1.662l-2.625-5.373c1.96-.437 2.678-1.977 2.678-3.395zm-6.108-2.1h2.293c1.837 0 2.327 1.225 2.327 2.135 0 1.033-.542 2.1-2.327 2.1h-2.293v-4.235zM199.914 81.94c2.1 0 3.692-1.26 3.692-3.483 0-2.257-1.785-3.29-3.255-3.955-1.26-.56-2.432-1.102-2.432-2.257 0-.98.7-1.593 1.802-1.593.998 0 1.663.578 1.943 1.243l1.382-.455c-.35-1.243-1.575-2.17-3.272-2.17-2.118 0-3.395 1.347-3.395 2.975 0 2.047 1.697 2.94 3.22 3.605 1.295.56 2.467 1.33 2.467 2.66s-.822 2.047-2.082 2.047c-1.173 0-2.118-.752-2.573-1.837l-1.4.507c.508 1.523 1.995 2.713 3.903 2.713zM209.84 81.73h1.505V70.932h3.518V69.48h-8.54v1.452h3.517V81.73zM221.36 81.94c2.344 0 3.954-1.348 3.954-4.848V69.48h-1.522v7.612c0 2.73-1.12 3.448-2.433 3.448-1.312 0-2.432-.718-2.432-3.448V69.48h-1.505v7.612c0 3.518 1.592 4.848 3.937 4.848zM231.496 81.73h1.26l4.042-12.25h-1.61l-2.835 9.082a12.88 12.88 0 0 0-.227.98 12.88 12.88 0 0 0-.228-.98l-2.817-9.082h-1.628l4.043 12.25zM240.11 81.73h1.225l1.435-8.068c.052-.227.087-.507.122-.787.035.28.088.56.123.822l1.435 8.033h1.225l1.925-12.25h-1.453l-1.102 8.015c-.035.192-.07.437-.088.7a10.24 10.24 0 0 0-.122-.718l-1.4-7.997h-1.05l-1.4 8.085a8.06 8.06 0 0 0-.14.787c-.035-.297-.053-.542-.088-.787l-1.137-8.085h-1.435l1.925 12.25zM258.017 81.73l-3.623-6.458 3.29-5.792h-1.645l-2.38 4.445-2.415-4.445h-1.697l3.325 5.897-3.57 6.353h1.662l2.643-5.023 2.73 5.023h1.68zM267.086 69.48l-2.643 5.932-2.607-5.932h-1.68l3.535 7.42v4.83h1.505V76.9l3.5-7.42h-1.61zM279.165 69.48h-7.525v1.417h5.6l-5.985 9.73v1.103h7.857v-1.435h-5.932l5.985-9.695v-1.12zM6.027 103.815c2.538 0 4.183-1.768 4.183-4.69 0-2.94-1.645-4.673-4.183-4.673-2.52 0-4.182 1.785-4.182 4.69 0 2.94 1.662 4.673 4.182 4.673zm0-1.383c-1.732 0-2.66-1.26-2.66-3.29 0-2.117.928-3.325 2.66-3.325 1.75 0 2.66 1.278 2.66 3.308 0 2.047-.962 3.307-2.66 3.307zM16.794 103.815c3.062 0 4.182-3.22 4.182-6.335 0-3.115-1.12-6.335-4.182-6.335-3.063 0-4.165 3.22-4.165 6.335 0 3.115 1.102 6.335 4.165 6.335zm0-1.4c-1.908 0-2.608-2.398-2.608-4.935 0-2.363.7-4.935 2.608-4.935 1.907 0 2.607 2.38 2.607 4.935 0 2.345-.717 4.935-2.607 4.935zM27.56 103.815c3.413 0 4.288-3.64 4.288-6.335 0-3.01-.998-6.335-4.288-6.335-3.43 0-4.27 3.657-4.27 6.335 0 3.045.998 6.335 4.27 6.335zm0-1.383c-2.17 0-2.73-2.52-2.73-4.952 0-2.188.473-4.953 2.73-4.953 2.153 0 2.713 2.538 2.713 4.953 0 2.205-.455 4.952-2.713 4.952zm0-3.797c.648 0 1.155-.543 1.155-1.138 0-.612-.507-1.155-1.155-1.155-.647 0-1.137.543-1.137 1.155 0 .595.49 1.138 1.137 1.138zM38.327 103.815c2.433 0 4.148-1.593 4.148-3.728 0-1.487-.893-2.73-2.188-3.237 1.05-.455 1.645-1.435 1.645-2.52 0-1.75-1.487-3.185-3.605-3.185-2.117 0-3.605 1.435-3.605 3.185 0 1.085.63 2.065 1.628 2.52-1.278.49-2.17 1.75-2.17 3.237 0 2.135 1.715 3.728 4.147 3.728zm0-7.49c-1.277 0-2.1-.788-2.1-1.838 0-1.207.875-1.995 2.1-1.995 1.208 0 2.1.788 2.1 1.995 0 1.05-.822 1.838-2.1 1.838zm0 6.125c-1.505 0-2.607-.945-2.607-2.503 0-1.347 1.032-2.485 2.607-2.485 1.558 0 2.608 1.138 2.608 2.485 0 1.558-1.12 2.503-2.608 2.503zM60.07 93.017c.543 0 .945-.402.945-.927 0-.543-.402-.963-.945-.963-.525 0-.927.42-.927.963 0 .525.402.927.927.927zm.753 9.258v-7.613h-3.955v1.33h2.467v6.283h-2.467v1.33h6.422v-1.33h-2.467zM74.18 92.737v-1.382h-7.106v1.382h2.8v9.485h-2.8v1.383h7.105v-1.383h-2.8v-9.485h2.8zM82.128 102.275V90.97h-4.305l.665 1.33h2.153v9.975h-2.503v1.33h6.51v-1.33h-2.52zM88.45 103.605h7.333v-1.453h-5.828V91.355H88.45v12.25zM103.697 102.152v-10.85l-4.183 1.488v1.452l2.678-.892v8.802h-3.045v1.453h7.56v-1.453h-3.01zM126.717 105.88h.473v-1.295h-.473c-1.312 0-1.96-.928-1.96-2.433v-1.05c0-1.96-.63-2.415-1.732-2.555v-.07c1.102-.14 1.732-.665 1.732-2.555v-1.05c0-1.505.648-2.415 1.96-2.432h.473v-1.295h-.473c-2.065.017-3.465 1.382-3.465 4.06v.945c0 1.032-.455 1.715-1.172 1.715h-.35v1.277h.35c.717 0 1.172.7 1.172 1.715v.963c0 2.677 1.4 4.007 3.465 4.06zM132.496 105.88h.473c2.082-.053 3.465-1.383 3.465-4.06v-.963c0-1.015.455-1.715 1.172-1.715h.35v-1.277h-.35c-.717 0-1.172-.683-1.172-1.715v-.945c0-2.678-1.383-4.043-3.465-4.06h-.473v1.295h.473c1.312.017 1.96.927 1.96 2.432v1.05c0 1.89.647 2.415 1.732 2.555v.07c-1.102.14-1.732.595-1.732 2.555v1.05c0 1.505-.648 2.433-1.96 2.433h-.473v1.295zM155.412 105.88h3.92v-1.365H156.9V92.51h2.432v-1.365h-3.92v14.735zM170.011 105.88V91.145h-3.92v1.365h2.433v12.005h-2.433v1.365h3.92zM188.412 107.28c2.485-.14 4.2-1.103 4.2-4.078v-8.54h-1.488v.753c-.332-.385-1.032-.963-2.345-.963-2.24 0-3.815 1.75-3.815 4.673 0 3.115 1.715 4.69 3.745 4.69 1.19 0 1.908-.385 2.415-1.085v1.085c0 1.242-.665 2.1-3.447 2.275l.735 1.19zm.612-4.848c-1.505 0-2.537-1.225-2.537-3.307 0-2.118.857-3.308 2.537-3.308.788 0 1.645.455 2.1 1.208v4.112c-.455.823-1.277 1.295-2.1 1.295zM197.691 103.815c3.833-.7 6.23-4.13 6.23-7.928 0-2.695-1.295-4.742-4.042-4.742-2.363 0-4.148 1.715-4.148 4.025 0 2.117 1.61 3.78 3.728 3.78 1.19 0 2.135-.385 2.695-1.068-.385 2.205-2.24 4.13-4.463 4.655v1.278zm2.118-6.16c-1.61 0-2.608-1.068-2.608-2.59 0-1.435 1.033-2.538 2.608-2.538 1.505 0 2.625 1.103 2.625 2.538 0 1.522-1.085 2.59-2.625 2.59zM212.71 107.105l1.488-.683v-11.76h-1.488v.77c-.525-.472-1.242-.98-2.38-.98-2.45 0-3.902 1.82-3.902 4.69 0 2.958 1.557 4.673 3.885 4.673 1.172 0 1.837-.438 2.397-1.05v4.34zm-2.275-4.673c-1.61 0-2.467-1.155-2.467-3.29 0-1.872.91-3.325 2.555-3.325.91 0 1.697.385 2.187 1.225v4.148c-.42.525-1.085 1.242-2.275 1.242zM221.797 103.815c1.837 0 2.94-1.155 3.482-2.45l-1.347-.508c-.438.928-1.05 1.558-2.135 1.558-2.135 0-3.045-2.45-3.045-4.935 0-2.275.805-4.935 3.045-4.935 1.032 0 1.575.665 2.012 1.487l1.33-.717c-.507-1.085-1.435-2.17-3.342-2.17-3.255 0-4.603 3.132-4.603 6.335 0 3.15 1.26 6.335 4.603 6.335zM232.406 103.815c2.135 0 3.797-1.628 3.797-4.673v-1.47h-3.78v1.383h2.205v.577c0 1.663-.822 2.783-2.222 2.783-1.995 0-2.835-2.398-2.835-4.935 0-2.275.735-4.935 2.835-4.935 1.067 0 1.627.717 2.065 1.505l1.33-.77c-.578-1.085-1.453-2.135-3.395-2.135-3.028 0-4.41 3.08-4.41 6.335 0 3.202 1.295 6.335 4.41 6.335zM247.075 97.48c0-3.115-1.12-6.335-4.183-6.335-3.062 0-4.165 3.22-4.165 6.335 0 3.115 1.103 6.335 4.165 6.335a3.72 3.72 0 0 0 1.365-.245l.998 1.487 1.067-.752-.962-1.453c1.225-1.19 1.715-3.307 1.715-5.372zm-4.183 4.935c-1.907 0-2.607-2.398-2.607-4.935 0-2.363.7-4.935 2.607-4.935 1.908 0 2.608 2.38 2.608 4.935 0 1.505-.298 3.115-1.015 4.06l-.788-1.19-1.102.752.84 1.243c-.175.052-.35.07-.543.07zM266.84 98.862c1.628 0 2.258-1.19 2.258-2.502h-.98c-.052.63-.507 1.067-1.225 1.067-1.067 0-2.24-1.067-3.727-1.067-1.645 0-2.258 1.19-2.258 2.502h.98c.053-.63.508-1.067 1.225-1.067 1.103 0 2.275 1.067 3.728 1.067zM271.08 99.125h8.225v-1.453h-8.225v1.453zM286.711 98.337h3.36v-1.452h-3.36V93.49h-1.522v3.395h-3.343v1.452h3.343v3.378h1.522v-3.378zM292.613 96.43h8.225v-1.453h-8.225v1.453zm0 3.832h8.225v-1.47h-8.225v1.47zM311.605 98.162v-1.33l-8.225-3.325v1.47l6.37 2.503-6.37 2.537v1.47l8.225-3.325z"/></g></g></svg>