<svg xmlns="http://www.w3.org/2000/svg" width="310.779" height="114.376" viewBox="0 0 291.356 107.227"><g font-weight="400" font-family="Overpass Nerd Font" letter-spacing="0" word-spacing="0" fill="#fff"><g style="line-height:125%;text-decoration-line:underline" font-size="27.5" text-decoration="underline"><path d="M8.168 20.185c6.077 0 8.195-5.197 8.195-9.955 0-4.757-2.118-9.955-8.195-9.955C2.118.275 0 5.473 0 10.23c0 4.758 2.118 9.955 8.168 9.955zm0-2.255c-4.208 0-5.693-3.932-5.693-7.7 0-3.492 1.485-7.727 5.693-7.727 4.235 0 5.692 3.96 5.692 7.727 0 3.465-1.457 7.7-5.692 7.7zM24.268 19.855h2.007l5.143-14.053h-2.393l-3.272 9.378c-.165.495-.303.88-.44 1.375-.138-.495-.275-.88-.44-1.375l-3.328-9.378h-2.42l5.143 14.053zM39.99 20.185c1.898 0 3.493-.77 4.538-1.815l-1.458-1.622a4.205 4.205 0 0 1-3.025 1.265c-2.117 0-3.657-1.678-3.85-4.263h9.515c.055-.55.083-1.155.083-1.595 0-4.62-2.64-6.682-5.803-6.682-3.74 0-6.242 2.695-6.242 7.342 0 4.29 2.392 7.37 6.242 7.37zm-3.822-8.47c.137-2.887 1.787-4.125 3.822-4.125 1.485 0 3.355.935 3.383 4.125h-7.205zM49.343 19.855h2.393v-7.92c0-3.19 1.787-4.098 3.135-4.098.962 0 1.567.303 2.007.605l.358-2.255c-.495-.412-1.265-.715-2.173-.715-1.567 0-2.695.77-3.327 2.173V5.802h-2.393v14.053zM66.027 20.185c3.41 0 5.802-2.695 5.802-7.37 0-4.51-2.227-7.342-5.802-7.342-1.76 0-2.778.687-3.603 1.512V5.803h-2.392V25.41l2.392-1.128v-5.747c.743.88 1.788 1.65 3.603 1.65zm-.303-2.227c-1.43 0-2.502-.853-3.3-1.898V9.57c.688-1.21 1.87-1.897 3.3-1.897 2.31 0 3.658 2.09 3.658 5.142 0 3.328-1.32 5.143-3.658 5.143zM83.612 19.855h2.255v-9.323c0-4.317-2.805-5.06-5.005-5.06-2.118 0-3.96.743-5.088 1.485l.688 2.008c1.045-.743 2.53-1.403 4.097-1.403 1.815 0 3.053.688 3.053 3.163v.99c-1.155-.66-2.393-.908-3.63-.908-2.723 0-5.253 1.403-5.253 4.648 0 3.135 2.035 4.73 4.895 4.73 1.678 0 3.053-.743 3.988-1.623v1.293zm-3.63-1.788c-1.925 0-2.998-1.045-2.998-2.612 0-1.788 1.513-2.585 3.328-2.585 1.155 0 2.447.412 3.3.935v2.42c-.798.935-2.063 1.842-3.63 1.842zM94.155 20.185c3.052 0 5.005-1.457 5.005-3.987 0-2.668-2.008-3.768-4.565-4.675-1.568-.633-2.97-1.155-2.97-2.338 0-.99.907-1.567 2.337-1.567 1.513 0 2.503.715 3.108 1.347l1.65-1.375c-1.018-1.21-2.585-2.117-4.73-2.117-2.695 0-4.73 1.402-4.73 3.712 0 2.31 1.76 3.438 4.345 4.4 1.65.633 3.217 1.265 3.217 2.668 0 1.237-1.127 1.787-2.612 1.787-1.513 0-2.723-.907-3.438-1.677l-1.705 1.457c1.1 1.402 3.025 2.365 5.088 2.365zM107.045 20.185c3.053 0 5.005-1.457 5.005-3.987 0-2.668-2.007-3.768-4.565-4.675-1.567-.633-2.97-1.155-2.97-2.338 0-.99.908-1.567 2.338-1.567 1.512 0 2.502.715 3.107 1.347l1.65-1.375c-1.017-1.21-2.585-2.117-4.73-2.117-2.695 0-4.73 1.402-4.73 3.712 0 2.31 1.76 3.438 4.345 4.4 1.65.633 3.218 1.265 3.218 2.668 0 1.237-1.128 1.787-2.613 1.787-1.512 0-2.722-.907-3.437-1.677l-1.705 1.457c1.1 1.402 3.025 2.365 5.087 2.365zM136.721 19.855V.605h-2.392v13.722c0 .44.027.908.055 1.403a33.347 33.347 0 0 0-.798-1.43L125.061.605h-2.42v19.25h2.393V6.105c0-.44-.028-.935-.055-1.348.247.468.522.935.77 1.348l8.662 13.75h2.31zM147.143 20.185c1.898 0 3.493-.77 4.538-1.815l-1.458-1.622a4.205 4.205 0 0 1-3.025 1.265c-2.117 0-3.657-1.678-3.85-4.263h9.515c.055-.55.083-1.155.083-1.595 0-4.62-2.64-6.682-5.803-6.682-3.74 0-6.242 2.695-6.242 7.342 0 4.29 2.392 7.37 6.242 7.37zm-3.822-8.47c.137-2.887 1.787-4.125 3.822-4.125 1.485 0 3.355.935 3.383 4.125h-7.205zM156.496 19.855h2.393v-7.92c0-3.19 1.787-4.098 3.135-4.098.962 0 1.567.303 2.007.605l.358-2.255c-.495-.412-1.265-.715-2.173-.715-1.567 0-2.695.77-3.327 2.173V5.802h-2.393v14.053zM172.162 20.185c1.678 0 2.75-.605 3.548-1.43v1.1h2.392V0l-2.392 1.128v5.665c-.798-.715-1.898-1.32-3.548-1.32-3.492 0-5.802 2.722-5.802 7.342 0 4.538 2.227 7.37 5.802 7.37zm.33-2.227c-2.31 0-3.712-2.228-3.712-5.143 0-3.3 1.347-5.142 3.712-5.142 1.623 0 2.695.962 3.218 1.787v6.6c-.715 1.21-1.898 1.898-3.218 1.898zM189.512 19.855h2.392v-8.828h6.078V8.772h-6.078V2.86h9.185V.605h-11.577v19.25zM208.884 20.185c3.767 0 6.215-2.75 6.215-7.37 0-4.647-2.448-7.342-6.215-7.342-3.768 0-6.215 2.75-6.215 7.37 0 4.647 2.447 7.342 6.215 7.342zm0-2.227c-2.393 0-3.795-1.925-3.795-5.115 0-3.273 1.402-5.17 3.795-5.17 2.392 0 3.795 1.952 3.795 5.142 0 3.218-1.43 5.143-3.795 5.143zM227.517 19.855h2.393V11.77c0-4.538-1.843-6.298-5.033-6.298-1.512 0-2.75.55-3.63 1.76v-1.43h-2.392v14.053h2.392v-8.553c0-2.722 1.403-3.63 3.245-3.63 1.733 0 3.025 1.018 3.025 3.685v8.498zM238.119 20.185c1.1 0 1.952-.248 2.695-.633l.275-2.337c-.605.385-1.293.743-2.09.743-1.238 0-1.458-.853-1.458-1.925v-8.14h3.465v-2.09h-3.465V0l-2.392 1.155v4.648h-2.283v2.09h2.283v8.937c0 1.98.852 3.355 2.97 3.355z"/></g><g style="line-height:125%" font-size="17.5"><path d="M7.272 59.855h1.435v-5.933c0-2.747-1.785-3.22-3.185-3.22-1.347 0-2.52.473-3.237.945l.437 1.278c.665-.473 1.61-.893 2.608-.893 1.155 0 1.942.438 1.942 2.013v.63c-.735-.42-1.522-.578-2.31-.578-1.732 0-3.342.893-3.342 2.958 0 1.995 1.295 3.01 3.115 3.01 1.067 0 1.942-.473 2.537-1.033v.823zm-2.31-1.138c-1.225 0-1.907-.665-1.907-1.662 0-1.138.962-1.645 2.117-1.645a4.33 4.33 0 0 1 2.1.595v1.54c-.507.595-1.312 1.172-2.31 1.172zM15.154 60.065c2.275 0 3.658-1.663 3.658-4.69 0-2.94-1.488-4.673-3.71-4.673-.928 0-1.733.42-2.24.98V47.22l-1.523.717v11.918h1.523v-.77c.525.507 1.155.98 2.292.98zm-.21-1.418c-.84 0-1.645-.455-2.082-1.207v-4.148c.297-.507 1.067-1.19 2.082-1.19 1.523 0 2.31 1.173 2.31 3.273 0 2.012-.77 3.272-2.31 3.272zM24.368 60.065c1.645 0 2.835-.823 3.272-2.293l-1.417-.472c-.263.84-.928 1.33-1.82 1.33-1.435 0-2.188-1.208-2.188-3.238 0-2.012.718-3.272 2.24-3.272.875 0 1.418.507 1.68 1.19l1.435-.525c-.507-1.4-1.645-2.083-3.132-2.083-2.345 0-3.78 1.75-3.78 4.69 0 2.958 1.435 4.673 3.71 4.673zM33.1 60.065c1.068 0 1.75-.385 2.258-.91v.7h1.522V47.22l-1.522.717v3.605c-.508-.455-1.208-.84-2.258-.84-2.222 0-3.692 1.733-3.692 4.673 0 2.887 1.417 4.69 3.692 4.69zm.21-1.418c-1.47 0-2.362-1.417-2.362-3.272 0-2.1.857-3.273 2.362-3.273 1.033 0 1.715.613 2.048 1.138v4.2c-.455.77-1.208 1.207-2.048 1.207zM43.224 60.065c1.208 0 2.223-.49 2.888-1.155l-.928-1.033c-.56.56-1.242.805-1.925.805-1.347 0-2.327-1.067-2.45-2.712h6.055c.035-.35.053-.735.053-1.015 0-2.94-1.68-4.253-3.693-4.253-2.38 0-3.972 1.715-3.972 4.673 0 2.73 1.522 4.69 3.972 4.69zm-2.432-5.39c.087-1.838 1.137-2.625 2.432-2.625.945 0 2.135.595 2.153 2.625h-4.585zM51.206 52.242h2.083v-1.33h-2.083v-1.225c0-.472.07-.927.805-.927.438 0 .823.122 1.278.332v-1.277a3.381 3.381 0 0 0-1.663-.42c-.962 0-1.942.472-1.942 2.03v1.487H48.3v1.33h1.383v7.613h1.522v-7.613zM57.529 63.477c2.485-.14 4.217-1.085 4.217-3.99v-8.575h-1.522v.735c-.35-.385-1.05-.945-2.258-.945-2.187 0-3.71 1.733-3.71 4.673 0 3.115 1.68 4.69 3.658 4.69 1.085 0 1.802-.385 2.31-1.085v1.085c0 1.172-.665 2.065-3.43 2.222l.735 1.19zm.7-4.83c-1.435 0-2.433-1.225-2.433-3.272 0-2.1.84-3.273 2.433-3.273.682 0 1.557.455 1.995 1.19v4.095c-.455.788-1.26 1.26-1.995 1.26zM64.625 59.855h1.523v-5.443c0-1.732.892-2.31 2.065-2.31 1.102 0 1.925.648 1.925 2.345v5.408h1.522V54.71c0-2.888-1.172-4.008-3.202-4.008-.963 0-1.75.368-2.31 1.138v-4.62l-1.523.7v11.935zM75.239 49.285c.542 0 .962-.42.962-.945 0-.543-.42-.98-.962-.98-.525 0-.945.437-.945.98 0 .525.42.945.945.945zm-.753 10.57h1.523v-8.943h-1.523v8.943zM79.973 49.285a.93.93 0 0 0 .945-.945c0-.543-.402-.98-.945-.98a.964.964 0 0 0-.962.98c0 .525.42.945.962.945zM77.628 63.6c.858-.123 1.75-.42 2.433-1.26.507-.595.665-1.453.665-2.415v-9.013h-1.523v9.573c0 1.067-.507 1.68-2.292 1.96l.717 1.155zM90.892 59.855l-3.36-6.51 2.345-2.433h-1.82l-2.905 3.08V47.22l-1.523.717v11.918h1.523v-4.043l1.312-1.365 2.765 5.408h1.663zM93.014 59.855h1.522V47.22l-1.522.717v11.918zM107.989 59.855h1.522v-5.863c0-2.17-1.365-3.29-3.15-3.29-1.155 0-2.065.508-2.59 1.313-.507-.875-1.435-1.313-2.397-1.313-.945 0-1.803.333-2.345 1.05v-.84h-1.523v8.943h1.523v-5.443c0-1.417.735-2.31 1.925-2.31 1.382 0 1.785 1.103 1.785 2.328v5.425h1.522v-5.373c0-1.417.77-2.38 1.925-2.38 1.383 0 1.803 1.103 1.803 2.328v5.425zM117.818 59.855h1.523V54.71c0-2.888-1.173-4.008-3.203-4.008-.962 0-1.75.35-2.31 1.12v-.91h-1.522v8.943h1.522v-5.443c0-1.732.893-2.31 2.065-2.31 1.103 0 1.925.648 1.925 2.345v5.408zM125.58 60.065c2.397 0 3.955-1.75 3.955-4.69 0-2.958-1.558-4.673-3.955-4.673-2.398 0-3.955 1.75-3.955 4.69 0 2.958 1.557 4.673 3.955 4.673zm0-1.418c-1.523 0-2.415-1.225-2.415-3.255 0-2.082.892-3.29 2.415-3.29 1.522 0 2.415 1.243 2.415 3.273 0 2.047-.91 3.272-2.415 3.272zM135.74 60.065c2.17 0 3.693-1.715 3.693-4.69 0-2.87-1.418-4.673-3.693-4.673-1.12 0-1.767.438-2.292.963v-.753h-1.523V63.39l1.523-.718v-3.657c.472.56 1.137 1.05 2.292 1.05zm-.192-1.418c-.91 0-1.593-.542-2.1-1.207v-4.13c.437-.77 1.19-1.208 2.1-1.208 1.47 0 2.327 1.33 2.327 3.273 0 2.117-.84 3.272-2.327 3.272zM144.988 60.065c1.05 0 1.715-.438 2.257-1.05v4.34l1.523-.683v-11.76h-1.523v.753c-.542-.49-1.225-.963-2.31-.963-2.275 0-3.657 1.803-3.657 4.69 0 2.958 1.487 4.673 3.71 4.673zm.14-1.418c-1.488 0-2.31-1.155-2.31-3.255 0-1.872.857-3.29 2.31-3.29.857 0 1.627.385 2.117 1.208v4.112c-.402.525-1.085 1.225-2.117 1.225zM151.647 59.855h1.522v-5.04c0-2.03 1.138-2.608 1.995-2.608.613 0 .998.193 1.278.385l.227-1.435c-.315-.262-.805-.455-1.382-.455-.998 0-1.715.49-2.118 1.383v-1.173h-1.522v8.943zM161.091 60.065c1.942 0 3.185-.928 3.185-2.538 0-1.697-1.278-2.397-2.905-2.975-.998-.402-1.89-.735-1.89-1.487 0-.63.577-.998 1.487-.998.963 0 1.593.455 1.978.858l1.05-.875c-.648-.77-1.645-1.348-3.01-1.348-1.715 0-3.01.893-3.01 2.363s1.12 2.187 2.765 2.8c1.05.402 2.047.805 2.047 1.697 0 .788-.717 1.138-1.662 1.138-.963 0-1.733-.578-2.188-1.068l-1.085.928c.7.892 1.925 1.505 3.238 1.505zM169.067 60.065c.7 0 1.242-.158 1.715-.403l.175-1.487c-.385.245-.823.472-1.33.472-.788 0-.928-.542-.928-1.225v-5.18h2.205v-1.33H168.7V47.22l-1.522.735v2.957h-1.453v1.33h1.453v5.688c0 1.26.542 2.135 1.89 2.135zM178.16 59.855h1.523v-8.943h-1.522v5.425c0 1.75-.893 2.31-2.065 2.31-1.103 0-1.925-.647-1.925-2.345v-5.39h-1.523v5.163c0 2.87 1.155 3.99 3.255 3.99.945 0 1.663-.298 2.258-1.068v.858zM184.977 59.855h1.277l3.273-8.943h-1.523l-2.082 5.968c-.105.315-.193.56-.28.875-.088-.315-.175-.56-.28-.875l-2.118-5.968h-1.54l3.273 8.943zM193.04 59.855h1.364l1.61-5.303c.105-.35.228-.822.315-1.172.088.35.228.822.333 1.172l1.627 5.303h1.365l2.293-8.943h-1.505l-1.348 6.003c-.07.367-.14.682-.192.98l-.245-.98-1.68-6.003h-1.26l-1.68 6.003c-.088.332-.175.647-.228.945-.052-.298-.122-.595-.192-.945l-1.365-6.003h-1.505l2.292 8.943zM202.983 59.855h1.698l1.645-2.538c.192-.297.367-.577.507-.857.158.28.315.56.508.857l1.645 2.538h1.715l-3.01-4.655 2.782-4.288h-1.715l-1.4 2.17c-.21.315-.367.595-.525.858-.14-.263-.315-.543-.507-.858l-1.418-2.17h-1.697l2.765 4.288-2.993 4.655zM213.862 63.25h1.54l4.637-12.338h-1.557l-2.258 6.09c-.122.315-.192.56-.28.858-.087-.298-.157-.543-.28-.858l-2.222-6.09h-1.523l3.308 8.715-1.365 3.623zM221.707 59.855h6.545V58.49h-4.655l4.672-6.493v-1.085h-6.212v1.348h4.305l-4.655 6.475v1.12zM10.125 81.73h1.557l-4.34-12.25H5.925l-4.34 12.25h1.592l1.033-2.993h4.865l1.05 2.993zm-1.523-4.34H4.665l1.592-4.533c.123-.35.298-.927.385-1.242.07.315.263.892.385 1.242l1.575 4.533zM13.96 69.48v12.25h4.62c2.992 0 3.972-1.855 3.972-3.518 0-1.4-.822-2.502-2.24-2.94 1.138-.49 1.803-1.435 1.803-2.555 0-1.627-.91-3.237-3.815-3.237h-4.34zm4.042 5.197h-2.52v-3.815h2.905c1.838 0 2.223.98 2.223 1.873 0 1.172-.875 1.942-2.608 1.942zm.753 5.653h-3.273v-4.27h2.713c2.292 0 2.852 1.085 2.852 2.257 0 .98-.49 2.013-2.292 2.013zM29.823 81.94c2.153 0 3.43-1.103 4.06-2.468l-1.4-.525c-.56.928-1.312 1.558-2.66 1.558-2.45 0-3.5-2.468-3.5-4.9 0-2.24.875-4.918 3.5-4.918 1.348 0 2.013.63 2.59 1.488l1.365-.7c-.542-1.103-1.697-2.205-3.955-2.205-3.64 0-5.075 3.255-5.075 6.335 0 3.115 1.365 6.335 5.075 6.335zM36.587 69.48v12.25h3.272c4.445 0 5.758-3.308 5.758-6.125 0-3.028-1.488-6.125-5.688-6.125h-3.342zm3.465 10.832h-1.943V70.88h2.135c2.695 0 3.798 2.345 3.798 4.725 0 2.222-.945 4.707-3.99 4.707zM48.516 81.73h7.665v-1.453h-6.143v-4.165h3.798v-1.435h-3.798v-3.762h5.758V69.48h-7.28v12.25zM59.009 81.73h1.522v-5.618H64.4v-1.435H60.53v-3.762h5.845V69.48H59.01v12.25zM73.012 81.94c2.45 0 4.34-1.645 4.34-4.69v-1.47h-3.815v1.4h2.223v.49c0 1.662-1.085 2.817-2.748 2.817-2.555 0-3.622-2.362-3.622-4.882 0-2.24.892-4.9 3.622-4.9 1.348 0 2.048.7 2.608 1.505l1.365-.788c-.683-1.102-1.698-2.152-3.973-2.152-3.587 0-5.197 3.167-5.197 6.335 0 3.202 1.487 6.335 5.197 6.335zM87.669 81.73h1.522V69.48H87.67v5.18h-5.775v-5.18H80.37v12.25h1.523v-5.635h5.775v5.635zM92.642 81.73h1.523V69.48h-1.523v12.25zM99.771 81.94c1.715 0 3.867-.858 3.867-4.235V69.48h-1.522v8.277c0 2.24-1.173 2.748-2.328 2.748-1.26 0-1.82-.473-2.292-1.418l-1.26.648c.612 1.417 1.767 2.205 3.535 2.205zM114.276 81.73h1.768l-4.375-8.015 3.377-4.235h-1.715l-4.777 6.002V69.48h-1.523v12.25h1.523v-4.183l2.082-2.555 3.64 6.738zM118.584 81.73h7.543v-1.47h-6.02V69.48h-1.523v12.25zM139 81.73V69.48h-1.453l-3.57 8.242c-.105.263-.228.56-.315.823l-.315-.823-3.553-8.242h-1.435v12.25h1.523v-7.525c0-.42-.018-1.015-.053-1.33.14.402.368.945.525 1.33l3.255 7.735 3.36-7.7c.175-.42.403-.98.543-1.383-.018.315-.035.928-.035 1.348v7.525h1.522zM151.367 81.73V69.48h-1.522v8.732c0 .28.017.578.035.893a21.221 21.221 0 0 0-.508-.91l-5.425-8.715h-1.54v12.25h1.523v-8.75c0-.28-.018-.595-.035-.858.157.298.332.595.49.858l5.512 8.75h1.47zM159.487 81.94c3.867 0 5.215-3.308 5.215-6.335 0-3.028-1.348-6.335-5.215-6.335-3.85 0-5.198 3.307-5.198 6.335 0 3.027 1.348 6.335 5.198 6.335zm0-1.435c-2.678 0-3.623-2.503-3.623-4.9 0-2.223.945-4.918 3.623-4.918 2.695 0 3.622 2.52 3.622 4.918 0 2.205-.927 4.9-3.622 4.9zM167.598 81.73h1.522v-4.918h3.168c2.87 0 3.955-1.977 3.955-3.657 0-1.82-.98-3.675-3.955-3.675h-4.69v12.25zm4.795-6.335h-3.273v-4.498h3.273c1.837 0 2.327 1.295 2.327 2.258 0 1.05-.595 2.24-2.327 2.24zM183.14 81.94c.857 0 1.574-.158 2.204-.455l.945 1.4 1.12-.788-.927-1.365c1.347-1.242 1.872-3.237 1.872-5.127 0-3.028-1.347-6.335-5.215-6.335-3.85 0-5.197 3.307-5.197 6.335 0 3.027 1.347 6.335 5.197 6.335zm0-1.435c-2.678 0-3.623-2.503-3.623-4.9 0-2.223.945-4.918 3.622-4.918 2.695 0 3.623 2.52 3.623 4.918 0 1.312-.333 2.8-1.155 3.78l-.84-1.26-1.155.787.875 1.313c-.385.192-.84.28-1.348.28zM191.25 81.73h1.523v-5.25h2.712l2.52 5.25h1.715l-2.625-5.355c2.048-.42 2.853-1.96 2.853-3.413 0-1.732-.928-3.482-3.868-3.482h-4.83v12.25zm1.523-6.668v-4.165h3.342c1.803 0 2.293 1.19 2.293 2.1 0 1.015-.578 2.065-2.293 2.065h-3.342zM206.441 81.94c2.31 0 4.025-1.278 4.025-3.535 0-2.415-1.995-3.308-3.71-3.955-1.382-.508-2.642-1.015-2.642-2.153 0-.997.787-1.61 2.082-1.61 1.208 0 1.995.56 2.293 1.243l1.4-.473c-.368-1.26-1.645-2.187-3.588-2.187-2.38 0-3.762 1.382-3.762 3.027 0 2.135 1.872 2.923 3.587 3.553 1.435.525 2.765 1.172 2.765 2.59 0 1.347-.945 2.065-2.415 2.065-1.347 0-2.38-.735-2.87-1.82l-1.435.525c.543 1.575 2.135 2.73 4.27 2.73zM217.512 70.932h3.412V69.48h-8.347v1.452h3.412V81.73h1.523V70.932zM227.889 81.94c2.625 0 4.41-1.295 4.41-4.813V69.48h-1.522v7.647c0 2.695-1.313 3.378-2.888 3.378s-2.87-.683-2.87-3.378V69.48h-1.522v7.647c0 3.535 1.82 4.813 4.392 4.813zM238.974 81.73h1.348l4.182-12.25h-1.627l-2.835 8.855c-.105.35-.245.787-.35 1.242-.123-.455-.263-.892-.368-1.242l-2.922-8.855h-1.628l4.2 12.25zM248.728 81.73h1.242l2.363-8.365c.14-.508.227-.858.297-1.208.07.35.175.7.315 1.208l2.363 8.365h1.207l2.66-12.25h-1.557l-1.663 7.962c-.105.508-.175.875-.227 1.208-.053-.333-.14-.683-.28-1.19l-2.188-7.98h-1.207l-2.17 7.997c-.14.543-.263.928-.333 1.295-.052-.367-.122-.77-.227-1.312l-1.505-7.98h-1.593l2.503 12.25zM267.79 81.73h1.716l-3.675-6.423 3.36-5.827h-1.68l-2.485 4.427-2.52-4.427h-1.715l3.377 5.915-3.64 6.335h1.698l2.747-4.953 2.818 4.953zM274.825 81.73h1.522v-4.848l4.13-7.402h-1.662l-3.238 5.95-3.202-5.95h-1.715l4.165 7.437v4.813zM282.273 81.73h9.083v-1.453h-7.07l7.07-9.625V69.48h-8.68v1.452h6.702l-7.105 9.625v1.173zM5.575 103.815c2.397 0 3.955-1.75 3.955-4.69 0-2.958-1.558-4.673-3.955-4.673-2.398 0-3.955 1.75-3.955 4.69 0 2.958 1.557 4.673 3.955 4.673zm0-1.418c-1.523 0-2.415-1.225-2.415-3.255 0-2.082.892-3.29 2.415-3.29 1.522 0 2.415 1.243 2.415 3.273 0 2.047-.91 3.272-2.415 3.272zM16.855 103.815c3.868 0 5.215-3.308 5.215-6.335 0-3.028-1.347-6.335-5.215-6.335-3.85 0-5.197 3.307-5.197 6.335 0 3.027 1.347 6.335 5.197 6.335zm0-1.435c-2.677 0-3.622-2.503-3.622-4.9 0-2.223.945-4.918 3.622-4.918 2.695 0 3.623 2.52 3.623 4.918 0 2.205-.928 4.9-3.623 4.9zM28.85 103.815c3.413 0 4.288-3.64 4.288-6.335 0-3.01-.997-6.335-4.287-6.335-3.448 0-4.288 3.64-4.288 6.335 0 3.045.998 6.335 4.288 6.335zm0-1.435c-2.152 0-2.712-2.485-2.712-4.9 0-2.188.473-4.918 2.713-4.918 2.135 0 2.677 2.503 2.677 4.918 0 2.187-.455 4.9-2.677 4.9zM39.765 103.815c2.433 0 4.13-1.593 4.13-3.728 0-1.522-.857-2.677-2.117-3.22 1.032-.507 1.575-1.435 1.575-2.537 0-1.768-1.47-3.185-3.588-3.185-2.1 0-3.57 1.417-3.57 3.185 0 1.102.56 2.03 1.558 2.537-1.225.525-2.1 1.698-2.1 3.22 0 2.135 1.697 3.728 4.112 3.728zm0-7.56c-1.225 0-2.03-.788-2.03-1.803 0-1.155.858-1.89 2.03-1.89 1.19 0 2.048.735 2.048 1.89 0 1.015-.823 1.803-2.048 1.803zm0 6.125c-1.47 0-2.537-.928-2.537-2.415 0-1.313 1.032-2.433 2.537-2.433s2.555 1.12 2.555 2.433c0 1.487-1.085 2.415-2.555 2.415zM51.45 93.035c.542 0 .962-.42.962-.945 0-.543-.42-.98-.962-.98-.525 0-.945.437-.945.98 0 .525.42.945.945.945zm-.753 10.57h1.523v-8.943h-1.523v8.943zM55.42 103.605h1.523v-12.25h-1.522v12.25zM60.235 103.605h1.523V90.97l-1.523.717v11.918zM64.99 103.605h7.543v-1.47h-6.02v-10.78H64.99v12.25zM75.798 103.605h1.523v-12.25h-1.103c-.367 1.102-1.26 1.452-2.467 1.452v1.033h2.047v9.765zM89.456 105.88v-1.313c-1.313-.052-1.96-.927-1.96-2.432v-1.05c0-1.96-.648-2.45-1.785-2.573 1.137-.157 1.785-.682 1.785-2.572v-1.068c0-1.487.647-2.362 1.96-2.415v-1.312c-2.1.052-3.5 1.382-3.5 4.06v.945c0 1.015-.438 1.697-1.19 1.697h-.158v1.295h.158c.752 0 1.19.7 1.19 1.715v.963c0 2.677 1.4 4.007 3.5 4.06zM90.927 105.88c2.083-.053 3.483-1.383 3.483-4.06v-.963c0-1.015.455-1.715 1.19-1.715h.175v-1.295H95.6c-.735 0-1.19-.682-1.19-1.697v-.945c0-2.678-1.4-4.008-3.483-4.06v1.312c1.295.053 1.943.928 1.943 2.415v1.068c0 1.89.647 2.415 1.785 2.572-1.138.123-1.785.613-1.785 2.573v1.05c0 1.505-.648 2.38-1.943 2.432v1.313zM102.66 105.88h3.85v-1.4h-2.327V92.545h2.327v-1.4h-3.85v14.735zM112.057 105.88V91.145h-3.85v1.4h2.328v11.935h-2.328v1.4h3.85zM122.265 107.227c2.485-.14 4.218-1.085 4.218-3.99v-8.575h-1.523v.735c-.35-.385-1.05-.945-2.257-.945-2.188 0-3.71 1.733-3.71 4.673 0 3.115 1.68 4.69 3.657 4.69 1.085 0 1.803-.385 2.31-1.085v1.085c0 1.172-.665 2.065-3.43 2.222l.735 1.19zm.7-4.83c-1.435 0-2.432-1.225-2.432-3.272 0-2.1.84-3.273 2.432-3.273.683 0 1.558.455 1.995 1.19v4.095c-.455.788-1.26 1.26-1.995 1.26zM130.954 103.815c3.938-.56 6.195-3.903 6.195-7.928 0-2.695-1.295-4.742-4.077-4.742-2.398 0-4.165 1.68-4.165 3.99 0 2.205 1.627 3.85 3.762 3.85 1.243 0 2.188-.455 2.678-1.05-.42 2.52-2.275 4.077-4.393 4.462v1.418zm2.065-6.248c-1.575 0-2.555-.997-2.555-2.502 0-1.418 1.033-2.45 2.555-2.45 1.47 0 2.555 1.032 2.555 2.45 0 1.487-1.05 2.502-2.555 2.502zM143.006 103.815c1.05 0 1.715-.438 2.257-1.05v4.34l1.523-.683v-11.76h-1.523v.753c-.542-.49-1.225-.963-2.31-.963-2.275 0-3.657 1.803-3.657 4.69 0 2.958 1.487 4.673 3.71 4.673zm.14-1.418c-1.488 0-2.31-1.155-2.31-3.255 0-1.872.857-3.29 2.31-3.29.857 0 1.627.385 2.117 1.208v4.112c-.402.525-1.085 1.225-2.117 1.225zM154.477 103.815c2.152 0 3.43-1.103 4.06-2.468l-1.4-.525c-.56.928-1.313 1.558-2.66 1.558-2.45 0-3.5-2.468-3.5-4.9 0-2.24.875-4.918 3.5-4.918 1.347 0 2.012.63 2.59 1.488l1.365-.7c-.543-1.103-1.698-2.205-3.955-2.205-3.64 0-5.075 3.255-5.075 6.335 0 3.115 1.365 6.335 5.075 6.335zM165.742 103.815c2.45 0 4.34-1.645 4.34-4.69v-1.47h-3.815v1.4h2.222v.49c0 1.662-1.085 2.817-2.747 2.817-2.555 0-3.623-2.362-3.623-4.882 0-2.24.893-4.9 3.623-4.9 1.347 0 2.047.7 2.607 1.505l1.365-.788c-.682-1.102-1.697-2.152-3.972-2.152-3.588 0-5.198 3.167-5.198 6.335 0 3.202 1.488 6.335 5.198 6.335zM177.773 103.815c.858 0 1.575-.158 2.205-.455l.945 1.4 1.12-.788-.927-1.365c1.347-1.242 1.872-3.237 1.872-5.127 0-3.028-1.347-6.335-5.215-6.335-3.85 0-5.197 3.307-5.197 6.335 0 3.027 1.347 6.335 5.197 6.335zm0-1.435c-2.677 0-3.622-2.503-3.622-4.9 0-2.223.945-4.918 3.622-4.918 2.695 0 3.623 2.52 3.623 4.918 0 1.312-.333 2.8-1.155 3.78l-.84-1.26-1.155.787.875 1.313c-.385.192-.84.28-1.348.28zM195.76 98.862c1.628 0 2.258-1.19 2.258-2.52h-1.015c-.053.63-.508 1.068-1.208 1.068-1.05 0-2.222-1.068-3.71-1.068-1.645 0-2.257 1.208-2.257 2.52h.997c.053-.63.508-1.05 1.208-1.05 1.102 0 2.257 1.05 3.727 1.05zM201.002 99.125h4.095v-1.47h-4.095v1.47zM212.927 98.337h3.36v-1.47h-3.36V93.49h-1.54v3.377h-3.325v1.47h3.325v3.378h1.54v-3.378zM219.342 96.797h8.225v-1.47h-8.225v1.47zm0 3.08h8.225v-1.452h-8.225v1.452zM238.846 98.285v-1.348l-8.225-3.342V95.1l6.3 2.502-6.3 2.503v1.505l8.225-3.325z"/></g></g></svg>