<svg xmlns="http://www.w3.org/2000/svg" width="387.489" height="116.296" viewBox="0 0 363.271 109.028"><g font-weight="400" font-family="ProFontIIx Nerd Font" letter-spacing="0" word-spacing="0" fill="#fff"><g style="line-height:125%;text-decoration-line:underline" font-size="27.5" text-decoration="underline"><path d="M15.278 6.111q0 2.506-1.803 4.308-1.772 1.803-4.308 1.803H3.056v9.167H0V0h9.167q2.536 0 4.308 1.803 1.803 1.772 1.803 4.308zm-3.056 0q0-1.253-.916-2.139-.887-.916-2.14-.916h-6.11v6.11h6.11q1.253 0 2.14-.885.916-.917.916-2.17zM21.371 6.111v4.186l1.925-1.894q2.292-2.292 4.186-2.292 2.536 0 4.308 1.803 1.803 1.772 1.803 4.308h-3.055q0-1.253-.917-2.139-.886-.916-2.139-.916-1.528 0-3.055 1.527L21.37 13.75v7.639h-3.056V6.11h3.056zM51.909 15.278q0 2.536-1.803 4.339-1.772 1.772-4.308 1.772h-3.056q-2.536 0-4.339-1.772-1.772-1.803-1.772-4.34v-3.055q0-2.536 1.772-4.308 1.803-1.803 4.339-1.803h3.056q2.505 0 4.308 1.803t1.803 4.308v3.056zm-3.056 0v-3.056q0-1.253-.917-2.139-.886-.916-2.138-.916h-3.056q-1.253 0-2.17.916-.886.886-.886 2.14v3.055q0 1.253.887 2.17.916.885 2.169.885h3.056q1.252 0 2.138-.886.917-.916.917-2.17zM70.224 3.056H58.002v6.11h9.167v3.056h-9.167v9.167h-3.056V0h15.278v3.056zM88.54 15.278q0 2.536-1.803 4.339-1.773 1.772-4.309 1.772h-3.055q-2.536 0-4.34-1.772-1.771-1.803-1.771-4.34v-3.055q0-2.536 1.772-4.308 1.803-1.803 4.339-1.803h3.055q2.506 0 4.309 1.803 1.802 1.803 1.802 4.308v3.056zm-3.056 0v-3.056q0-1.253-.917-2.139-.886-.916-2.139-.916h-3.055q-1.253 0-2.17.916-.886.886-.886 2.14v3.055q0 1.253.886 2.17.917.885 2.17.885h3.055q1.253 0 2.14-.886.916-.916.916-2.17zM94.633 6.111v4.186l1.925-1.894q2.291-2.292 4.186-2.292 2.536 0 4.308 1.803 1.803 1.772 1.803 4.308v9.167h-3.056v-9.167q0-1.253-.916-2.139-.886-.916-2.14-.916-1.527 0-3.055 1.527l-3.055 3.056v7.639h-3.056V6.11h3.056zM125.17 21.389h-3.055q-2.536 0-4.34-1.772-1.771-1.803-1.771-4.34v-6.11h-3.056V6.11h3.056V0h3.055v6.111h3.056v3.056h-3.056v6.11q0 1.254.886 2.17.917.886 2.17.886h3.055v3.056zM143.486 21.389h-15.278v-3.056h6.111V3.056h-6.111V0h15.278v3.056h-6.111v15.277h6.11v3.056zM161.801 21.389h-15.278v-3.056h6.112V3.056h-6.112V0h15.278v3.056h-6.11v15.277h6.11v3.056zM180.117 21.389h-3.056v-.947l-4.583-4.584-4.584 4.584v.947h-3.055V19.28l5.53-5.531-5.53-5.53V6.11h3.055v.947l4.584 4.584 4.583-4.584v-.947h3.056V8.22l-5.53 5.531 5.53 5.53v2.109zM216.748 21.389h-3.056V14.33l-9.167-9.167v16.225h-3.055V0h2.108l10.114 10.114V0h3.056v21.389zM235.063 21.389h-9.167q-2.536 0-4.339-1.772-1.772-1.803-1.772-4.34v-3.055q0-2.536 1.772-4.308 1.803-1.803 4.34-1.803h3.055q2.505 0 4.308 1.803t1.803 4.308v3.056H222.84q0 1.253.886 2.17.916.885 2.17.885h9.166v3.056zm-3.056-9.167q0-1.253-.916-2.139-.886-.916-2.14-.916h-3.055q-1.253 0-2.17.916-.885.886-.885 2.14h9.166zM241.156 6.111v4.186l1.925-1.894q2.292-2.292 4.186-2.292 2.536 0 4.309 1.803 1.802 1.772 1.802 4.308h-3.055q0-1.253-.917-2.139-.886-.916-2.139-.916-1.528 0-3.055 1.527l-3.056 3.056v7.639h-3.055V6.11h3.055zM271.694 21.389h-9.167q-2.536 0-4.339-1.772-1.772-1.803-1.772-4.34v-3.055q0-2.536 1.772-4.308 1.803-1.803 4.34-1.803h6.11V0h3.056v21.389zm-3.056-3.056V9.167h-6.11q-1.254 0-2.17.916-.886.886-.886 2.14v3.055q0 1.253.886 2.17.916.885 2.17.885h6.11zM308.325 3.056h-12.223v6.11h9.167v3.056h-9.167v9.167h-3.055V0h15.278v3.056zM326.64 15.278q0 2.536-1.803 4.339-1.772 1.772-4.308 1.772h-3.056q-2.536 0-4.338-1.772-1.773-1.803-1.773-4.34v-3.055q0-2.536 1.773-4.308 1.802-1.803 4.338-1.803h3.056q2.506 0 4.308 1.803 1.803 1.803 1.803 4.308v3.056zm-3.055 0v-3.056q0-1.253-.917-2.139-.886-.916-2.139-.916h-3.056q-1.252 0-2.169.916-.886.886-.886 2.14v3.055q0 1.253.886 2.17.917.885 2.17.885h3.055q1.253 0 2.139-.886.917-.916.917-2.17zM332.733 6.111v4.186l1.925-1.894q2.292-2.292 4.186-2.292 2.537 0 4.309 1.803 1.803 1.772 1.803 4.308v9.167H341.9v-9.167q0-1.253-.917-2.139-.886-.916-2.139-.916-1.527 0-3.055 1.527l-3.056 3.056v7.639h-3.055V6.11h3.055zM363.27 21.389h-3.055q-2.536 0-4.339-1.772-1.772-1.803-1.772-4.34v-6.11h-3.055V6.11h3.055V0h3.056v6.111h3.055v3.056h-3.055v6.11q0 1.254.886 2.17.917.886 2.17.886h3.055v3.056z"/></g><g style="line-height:125%" font-size="17.5"><path d="M12.284 51.667v9.722H10.34v-2.683L9.134 59.93q-1.458 1.458-2.683 1.458-1.614 0-2.761-1.128-1.128-1.147-1.128-2.761v-1.944q0-1.614 1.128-2.742 1.147-1.147 2.761-1.147h5.833zM6.451 53.61q-.797 0-1.38.583-.564.564-.564 1.362V57.5q0 .797.564 1.38.583.564 1.38.564.972 0 1.945-.972l1.944-1.944V53.61H6.451zM23.94 57.5q0 1.614-1.147 2.761-1.128 1.128-2.742 1.128h-5.833V47.778h1.944v3.889h3.889q1.594 0 2.742 1.147 1.147 1.147 1.147 2.742V57.5zm-1.945 0v-1.944q0-.798-.583-1.362-.564-.583-1.361-.583h-3.889v5.833h3.889q.797 0 1.361-.563.583-.584.583-1.381zM35.595 61.389h-5.833q-1.595 0-2.742-1.147-1.147-1.148-1.147-2.742v-1.944q0-1.595 1.147-2.742t2.742-1.147h1.944q1.595 0 2.742 1.147t1.147 2.742h-1.944q0-.798-.584-1.362-.564-.583-1.36-.583h-1.945q-.798 0-1.38.583-.565.564-.565 1.362V57.5q0 .797.564 1.38.583.564 1.38.564h5.834v1.945zM47.25 61.389h-5.833q-1.614 0-2.761-1.128-1.128-1.147-1.128-2.761v-1.944q0-1.614 1.128-2.742 1.147-1.147 2.761-1.147h3.889v-3.89h1.944V61.39zm-1.944-1.945v-5.833h-3.889q-.797 0-1.38.583-.564.564-.564 1.362V57.5q0 .797.563 1.38.584.564 1.381.564h3.889zM58.906 61.389h-5.834q-1.614 0-2.76-1.128-1.129-1.147-1.129-2.761v-1.944q0-1.614 1.128-2.742 1.147-1.147 2.761-1.147h1.945q1.594 0 2.741 1.147 1.148 1.147 1.148 2.742V57.5h-7.778q0 .797.564 1.38.583.564 1.38.564h5.834v1.945zm-1.945-5.833q0-.798-.583-1.362-.564-.583-1.361-.583h-1.945q-.797 0-1.38.583-.564.564-.564 1.362h5.833zM70.56 49.722h-1.944q-.797 0-1.38.584-.564.563-.564 1.36h1.944v1.945h-1.944v7.778h-1.944V53.61h-1.945v-1.944h1.945q0-1.614 1.147-2.742 1.147-1.147 2.741-1.147h1.945v1.944zM82.216 61.389q0 1.594-1.147 2.742-1.128 1.147-2.742 1.147h-3.889v-1.945h3.89q.796 0 1.36-.583.584-.564.584-1.361h-3.89q-1.613 0-2.76-1.128-1.128-1.147-1.128-2.761v-1.944q0-1.614 1.128-2.742 1.147-1.147 2.76-1.147h5.834v9.722zm-1.944-1.945v-5.833h-3.89q-.796 0-1.38.583-.564.564-.564 1.362V57.5q0 .797.564 1.38.584.564 1.38.564h3.89zM93.871 61.389h-1.944v-5.833q0-.798-.583-1.362-.564-.583-1.361-.583h-3.89v7.778H84.15V47.778h1.945v3.889h3.889q1.594 0 2.741 1.147t1.147 2.742v5.833zM101.638 48.75q0 .408-.292.7-.272.272-.68.272-.409 0-.7-.272-.273-.292-.273-.7t.273-.68q.291-.292.7-.292.408 0 .68.291.292.273.292.681zm1.944 12.639H97.75v-1.945h1.944v-5.833H97.75v-1.944h3.889v7.777h1.944v1.945zM113.293 48.75q0 .408-.292.7-.272.272-.68.272-.409 0-.7-.272-.272-.292-.272-.7t.272-.68q.291-.292.7-.292.408 0 .68.291.292.273.292.681zm0 12.639q0 1.594-1.147 2.742-1.128 1.147-2.742 1.147h-1.944v-1.945h1.944q.797 0 1.361-.583.584-.564.584-1.361V53.61h-1.945v-1.944h3.89v9.722zm-5.833 3.889zM128.837 61.389h-1.341l-4.492-4.492-1.945 1.945v2.547h-1.944V47.778h1.944v8.38l4.492-4.491h2.683l-3.888 3.889 4.491 4.491v1.342zM138.548 61.389h-5.833v-1.945h1.944v-9.722h-1.944v-1.944h3.889v11.666h1.944v1.945zM152.148 61.389h-1.945v-5.833q0-.798-.583-1.362-.564-.583-1.361-.583v7.778h-1.945V53.61h-1.944v7.778h-1.944v-9.722h5.833q1.594 0 2.742 1.147 1.147 1.147 1.147 2.742v5.833zM156.025 51.667v2.664l1.225-1.206q1.459-1.458 2.664-1.458 1.614 0 2.742 1.147 1.147 1.128 1.147 2.742v5.833h-1.944v-5.833q0-.798-.584-1.362-.564-.583-1.36-.583-.973 0-1.945.972l-1.945 1.945v4.86h-1.944v-9.721h1.944zM175.458 57.5q0 1.614-1.147 2.761-1.128 1.128-2.742 1.128h-1.944q-1.614 0-2.761-1.128-1.128-1.147-1.128-2.761v-1.944q0-1.614 1.128-2.742 1.147-1.147 2.761-1.147h1.944q1.595 0 2.742 1.147t1.147 2.742V57.5zm-1.944 0v-1.944q0-.798-.583-1.362-.564-.583-1.362-.583h-1.944q-.797 0-1.38.583-.564.564-.564 1.362V57.5q0 .797.563 1.38.584.564 1.381.564h1.944q.798 0 1.362-.563.583-.584.583-1.381zM187.114 57.5q0 1.614-1.148 2.761-1.127 1.128-2.741 1.128h-3.89v3.889h-1.944V51.667h5.834q1.594 0 2.741 1.147 1.148 1.147 1.148 2.742V57.5zm-1.945 0v-1.944q0-.798-.583-1.362-.564-.583-1.361-.583h-3.89v5.833h3.89q.797 0 1.36-.563.584-.584.584-1.381zm-7.778 7.778zM198.769 65.278h-1.945v-3.89h-3.888q-1.614 0-2.762-1.127-1.127-1.147-1.127-2.761v-1.944q0-1.614 1.127-2.742 1.148-1.147 2.762-1.147h5.833v13.61zm-1.945-5.834v-5.833h-3.888q-.798 0-1.381.583-.564.564-.564 1.362V57.5q0 .797.564 1.38.583.564 1.38.564h3.89zM202.646 51.667v2.664l1.225-1.206q1.459-1.458 2.664-1.458 1.614 0 2.742 1.147 1.147 1.128 1.147 2.742h-1.944q0-.798-.584-1.362-.564-.583-1.36-.583-.973 0-1.945.972l-1.945 1.945v4.86h-1.944v-9.721h1.944zM222.08 51.667v1.944h-5.095q-1.011 0-1.73.292-.7.272-.7.68 0 .409.7.7.719.273 1.73.273h.486q1.808 0 3.092.855 1.283.856 1.283 2.061 0 1.206-1.283 2.061-1.284.856-3.092.856h-5.114v-1.945h5.114q.992 0 1.711-.272.72-.291.72-.7 0-.408-.72-.68-.72-.292-1.71-.292h-.487q-1.828 0-3.111-.856-1.264-.855-1.264-2.06 0-1.206 1.264-2.062 1.283-.855 3.111-.855h5.094zM233.735 61.389h-1.945q-1.614 0-2.76-1.128-1.129-1.147-1.129-2.761v-3.889h-1.944v-1.944h1.944v-3.89h1.945v3.89h1.944v1.944h-1.944V57.5q0 .797.564 1.38.583.564 1.38.564h1.945v1.945zM243.446 61.389v-2.683l-1.206 1.225q-1.458 1.458-2.683 1.458-1.614 0-2.761-1.128-1.128-1.147-1.128-2.761v-5.833h1.944V57.5q0 .797.564 1.38.583.564 1.38.564.973 0 1.945-.972l1.945-1.944v-4.861h1.944v9.722h-1.944zM257.045 53.611l-3.889 7.778h-1.944l-3.889-7.778v-1.944h1.944v1.458l2.917 5.833 2.917-5.833v-1.458h1.944v1.944zM263.723 59.444q-.798 1.945-1.828 1.945-1.206 0-2.061-1.283-.856-1.284-.856-3.092v-5.347h1.945v5.347q0 1.011.272 1.73.292.72.7.72t.68-.72q.292-.719.292-1.73v-5.347h1.945v5.347q0 1.011.272 1.73.291.7.7.7.408 0 .68-.7.292-.719.292-1.73v-5.347h1.944v5.347q0 1.808-.855 3.092-.856 1.283-2.061 1.283-1.03 0-1.828-1.945h-.233zM280.356 61.389h-1.945v-.603l-2.916-2.917-2.917 2.917v.603h-1.944v-1.342l3.519-3.52-3.52-3.519v-1.341h1.945v.602l2.917 2.917 2.916-2.917v-.602h1.945v1.341l-3.52 3.52 3.52 3.52v1.34zM292.011 61.389q0 1.594-1.147 2.742-1.128 1.147-2.742 1.147h-3.889v-1.945h3.89q.796 0 1.36-.583.584-.564.584-1.361h-3.89q-1.613 0-2.76-1.128-1.128-1.147-1.128-2.761v-5.833h1.944V57.5q0 .797.564 1.38.583.564 1.38.564h3.89v-7.777h1.944v9.722zM303.666 61.389h-9.722v-1.342l6.436-6.436h-6.436v-1.944h9.722v1.341l-6.436 6.436h6.436v1.945zM4.507 79.375v3.889H2.562v-6.32l3.656-7.291h2.43l3.636 7.291v6.32H10.34v-3.889H4.507zm2.916-7.778l-2.916 5.834h5.833l-2.917-5.834zM23.94 73.542q0 1.75-1.653 2.916 1.653 1.167 1.653 2.917 0 1.614-1.147 2.761-1.128 1.128-2.742 1.128h-5.833V69.653h5.833q1.614 0 2.742 1.147 1.147 1.128 1.147 2.742zm-7.778-1.945v3.89h3.889q.797 0 1.361-.565.583-.583.583-1.38 0-.798-.583-1.361-.564-.584-1.361-.584h-3.889zm0 5.834v3.888h3.889q.797 0 1.361-.563.583-.584.583-1.381t-.583-1.361q-.564-.583-1.361-.583h-3.889zM35.595 79.375q0 1.614-1.147 2.761-1.128 1.128-2.742 1.128h-1.944q-1.614 0-2.761-1.128-1.128-1.147-1.128-2.761v-5.833q0-1.614 1.128-2.742 1.147-1.147 2.76-1.147h1.945q1.614 0 2.742 1.147 1.147 1.147 1.147 2.742h-1.944q0-.798-.584-1.361-.564-.584-1.36-.584h-1.945q-.798 0-1.38.584-.565.563-.565 1.36v5.834q0 .797.564 1.38.583.564 1.38.564h1.945q.797 0 1.361-.563.584-.584.584-1.381h1.944zM47.25 79.375q0 1.614-1.147 2.761-1.128 1.128-2.742 1.128h-5.833V69.653h5.833q1.614 0 2.742 1.147 1.147 1.147 1.147 2.742v5.833zm-1.944 0v-5.833q0-.798-.583-1.361-.564-.584-1.362-.584h-3.888v9.722h3.888q.798 0 1.362-.563.583-.584.583-1.381zM58.906 83.264h-9.723V69.653h9.723v1.944h-7.778v3.89h5.833v1.944h-5.833v3.888h7.778v1.945zM70.56 71.597h-7.777v3.89h5.833v1.944h-5.833v5.833H60.84V69.653h9.722v1.944zM82.216 79.375q0 1.614-1.147 2.761-1.128 1.128-2.742 1.128h-1.944q-1.614 0-2.761-1.128-1.128-1.147-1.128-2.761v-5.833q0-1.614 1.128-2.742 1.147-1.147 2.76-1.147h1.945q1.614 0 2.742 1.147 1.147 1.147 1.147 2.742h-1.944q0-.798-.584-1.361-.564-.584-1.36-.584h-1.945q-.797 0-1.38.584-.565.563-.565 1.36v5.834q0 .797.564 1.38.584.564 1.38.564h1.945q.797 0 1.361-.563.584-.584.584-1.381v-1.944h-1.945v-1.945h3.89v3.889zM93.871 83.264h-1.944V77.43h-5.833v5.833h-1.945V69.653h1.945v5.833h5.833v-5.833h1.944v13.61zM105.527 83.264h-9.723v-1.945h3.89v-9.722h-3.89v-1.944h9.723v1.944h-3.89v9.722h3.89v1.945zM117.182 79.375q0 1.614-1.147 2.761-1.128 1.128-2.742 1.128h-1.944q-1.614 0-2.762-1.128-1.127-1.147-1.127-2.761v-1.944h1.944v1.944q0 .797.564 1.38.583.564 1.38.564h1.945q.797 0 1.361-.563.583-.584.583-1.381v-9.722h1.945v9.722zM128.837 83.264h-1.944l-5.834-5.833v5.833h-1.944V69.653h1.944v5.833l5.834-5.833h1.944v.72l-6.086 6.085 6.086 6.067v.739zM140.492 83.264h-9.722V69.653h1.945v11.666h7.777v1.945zM152.148 83.264h-1.945V73.056L148.26 75v2.43h-1.945V75l-1.944-1.944v10.208h-1.944V69.653h1.458l3.403 3.403 3.402-3.403h1.459v13.61zM163.803 83.264h-1.944v-4.492l-5.834-5.833v10.325h-1.944V69.653h1.341l6.437 6.436v-6.436h1.944v13.61zM175.458 79.375q0 1.614-1.147 2.761-1.128 1.128-2.742 1.128h-1.944q-1.614 0-2.761-1.128-1.128-1.147-1.128-2.761v-5.833q0-1.614 1.128-2.742 1.147-1.147 2.761-1.147h1.944q1.614 0 2.742 1.147 1.147 1.147 1.147 2.742v5.833zm-1.944 0v-5.833q0-.798-.583-1.361-.564-.584-1.362-.584h-1.944q-.797 0-1.38.584-.564.563-.564 1.36v5.834q0 .797.563 1.38.584.564 1.381.564h1.944q.798 0 1.362-.563.583-.584.583-1.381zM187.114 73.542q0 1.594-1.148 2.741-1.127 1.148-2.741 1.148h-3.89v5.833h-1.944V69.653h5.834q1.614 0 2.741 1.147 1.148 1.128 1.148 2.742zm-1.945 0q0-.798-.583-1.361-.564-.584-1.361-.584h-3.89v3.89h3.89q.797 0 1.36-.565.584-.583.584-1.38zM198.983 84.022l-1.38 1.4-2.179-2.197q-.35.039-.544.039h-1.944q-1.614 0-2.762-1.128-1.127-1.147-1.127-2.761v-5.833q0-1.614 1.127-2.742 1.148-1.147 2.762-1.147h1.944q1.614 0 2.742 1.147 1.147 1.147 1.147 2.742v5.833q0 1.867-1.439 3.014l1.653 1.633zm-2.159-4.647v-5.833q0-.798-.583-1.361-.564-.584-1.361-.584h-1.944q-.798 0-1.381.584-.564.563-.564 1.36v5.834q0 .817.564 1.4.583.564 1.38.544l.564-.019-.758-.758 1.38-1.361 1.828 1.827q.875-.583.875-1.633zM208.48 83.264v-3.889q0-.797-.584-1.361-.564-.583-1.36-.583h-3.89v5.833h-1.944V69.653h5.833q1.614 0 2.742 1.147 1.147 1.128 1.147 2.742 0 1.75-1.653 2.916 1.653 1.167 1.653 2.917v3.889h-1.944zm-5.834-7.778h3.89q.796 0 1.36-.564.584-.583.584-1.38 0-.798-.584-1.361-.564-.584-1.36-.584h-3.89v3.89zM222.08 79.375q0 1.614-1.148 2.761-1.128 1.128-2.741 1.128h-1.945q-1.614 0-2.761-1.128-1.128-1.147-1.128-2.761h1.945q0 .797.564 1.38.583.564 1.38.564h1.945q.797 0 1.36-.563.584-.584.584-1.381t-.583-1.361q-.564-.583-1.361-.583h-1.945q-1.614 0-2.761-1.128-1.128-1.147-1.128-2.761t1.128-2.742q1.147-1.147 2.761-1.147h1.945q1.613 0 2.741 1.147 1.147 1.147 1.147 2.742h-1.944q0-.798-.583-1.361-.564-.584-1.361-.584h-1.945q-.797 0-1.38.584-.564.563-.564 1.36 0 .798.564 1.381.583.564 1.38.564h1.945q1.594 0 2.741 1.147 1.147 1.148 1.147 2.742zM233.735 71.597h-3.89v11.667h-1.944V71.597h-3.889v-1.944h9.723v1.944zM245.39 79.375q0 1.614-1.147 2.761-1.128 1.128-2.742 1.128h-1.944q-1.614 0-2.761-1.128-1.128-1.147-1.128-2.761v-9.722h1.944v9.722q0 .797.564 1.38.583.564 1.38.564h1.945q.797 0 1.361-.563.584-.584.584-1.381v-9.722h1.944v9.722zM257.045 73.542l-4.86 9.722-4.862-9.722v-3.89h1.944v3.442l2.917 5.795 2.917-5.833v-3.403h1.944v3.889zM268.7 83.264h-1.458l-3.403-3.403-3.402 3.403h-1.459V69.653h1.945V79.86l1.944-1.944v-2.43h1.945v2.43l1.944 1.944V69.653h1.944v13.61zM280.356 83.264h-1.945v-2.547l-2.916-2.917-2.917 2.917v2.547h-1.944v-3.286l3.519-3.52-3.52-3.52v-3.285h1.945V72.2l2.917 2.917 2.916-2.917v-2.547h1.945v3.286l-3.52 3.52 3.52 3.519v3.286zM292.011 74.883l-3.889 3.89v4.49h-1.944v-4.49l-3.89-3.89v-5.23h1.945v4.491l2.917 2.917 2.917-2.917v-4.491h1.944v5.23zM303.666 83.264h-9.722v-3.48l7.778-7.759v-.428h-7.778v-1.944h9.722v3.15l-7.777 7.778v.738h7.777v1.945zM12.284 101.25q0 1.614-1.147 2.761-1.128 1.128-2.741 1.128H6.45q-1.614 0-2.761-1.128-1.128-1.147-1.128-2.761v-1.944q0-1.614 1.128-2.742 1.147-1.147 2.761-1.147h1.945q1.594 0 2.741 1.147t1.147 2.742v1.944zm-1.944 0v-1.944q0-.798-.583-1.362-.564-.583-1.361-.583H6.45q-.797 0-1.38.583-.564.564-.564 1.362v1.944q0 .797.564 1.38.583.564 1.38.564h1.945q.797 0 1.36-.563.584-.584.584-1.381zM23.94 101.25q0 1.614-1.147 2.761-1.128 1.128-2.742 1.128h-1.945q-1.613 0-2.76-1.128-1.128-1.147-1.128-2.761v-5.833q0-1.614 1.127-2.742 1.148-1.147 2.761-1.147h1.945q1.614 0 2.742 1.147 1.147 1.147 1.147 2.742v5.833zm-1.945 0v-5.833q0-.798-.583-1.361-.564-.584-1.361-.584h-1.945q-.797 0-1.38.584-.564.563-.564 1.36v5.834q0 .797.564 1.38.583.564 1.38.564h1.945q.797 0 1.361-.563.583-.584.583-1.381zM35.595 101.25q0 1.614-1.147 2.761-1.128 1.128-2.742 1.128h-1.944q-1.614 0-2.761-1.128-1.128-1.147-1.128-2.761v-5.833q0-1.614 1.128-2.742 1.147-1.147 2.76-1.147h1.945q1.614 0 2.742 1.147 1.147 1.147 1.147 2.742v5.833zm-2.236-6.883q-.583-.895-1.653-.895h-1.944q-.798 0-1.38.584-.565.563-.565 1.36v4.492l5.542-5.541zm.292 6.883v-4.453l-5.503 5.503q.583.894 1.614.894h1.944q.797 0 1.361-.563.584-.584.584-1.381zM43.361 91.528q1.614 0 2.742 1.147 1.147 1.128 1.147 2.742 0 1.75-1.652 2.916 1.652 1.167 1.652 2.917 0 1.614-1.147 2.761-1.128 1.128-2.742 1.128h-1.944q-1.614 0-2.761-1.128-1.128-1.147-1.128-2.761 0-1.75 1.653-2.917-1.653-1.166-1.653-2.916 0-1.614 1.128-2.742 1.147-1.147 2.761-1.147h1.944zm-1.944 1.944q-.817 0-1.38.584-.564.563-.564 1.36 0 .798.563 1.381.584.564 1.381.564h1.944q.798 0 1.362-.564.583-.583.583-1.38 0-.798-.583-1.361-.564-.584-1.362-.584h-1.944zm1.944 9.722q.817 0 1.381-.563.564-.584.564-1.381t-.583-1.361q-.564-.583-1.362-.583h-1.944q-.797 0-1.38.583-.564.564-.564 1.361t.563 1.38q.584.564 1.381.564h1.944zM66.672 92.5q0 .408-.292.7-.272.272-.68.272-.409 0-.7-.272-.272-.292-.272-.7t.272-.68q.291-.292.7-.292.408 0 .68.291.292.273.292.681zm1.944 12.639h-5.833v-1.945h1.945v-5.833h-1.945v-1.944h3.889v7.777h1.944v1.945zM82.216 105.139h-9.722v-1.945h3.889v-9.722h-3.89v-1.944h9.723v1.944h-3.889v9.722h3.89v1.945zM91.927 105.139h-5.833v-1.945h1.944v-9.722h-1.944v-1.944h3.889v11.666h1.944v1.945zM105.527 105.139h-9.723V91.528h1.945v11.666h7.778v1.945zM117.182 105.139h-9.722v-1.945h3.889v-7.777h-2.917v-1.945h.972q.797 0 1.361-.564.584-.583.584-1.38h1.944v11.666h3.889v1.945zM138.548 109.028q-1.614 0-2.761-1.011-1.128-.992-1.128-2.392v-4.375q0-.797-.583-1.361-.564-.583-1.361-.583V97.36q.797 0 1.36-.564.584-.583.584-1.38v-4.375q0-1.4 1.128-2.392 1.147-1.011 2.761-1.011v1.944q-.797 0-1.38.584-.564.564-.564 1.36v4.862q0 1.03-1.945 1.828v.233q1.945.797 1.945 1.828v4.86q0 .798.563 1.362.584.583 1.381.583v1.945zM150.203 99.306q-.797 0-1.38.583-.564.564-.564 1.361v4.375q0 1.4-1.147 2.392-1.128 1.01-2.742 1.01v-1.944q.797 0 1.361-.583.583-.564.583-1.361v-4.861q0-1.03 1.945-1.828v-.233q-1.945-.798-1.945-1.828v-4.861q0-.797-.583-1.361-.564-.584-1.361-.584V87.64q1.614 0 2.742 1.011 1.147.992 1.147 2.392v4.375q0 .797.564 1.38.583.564 1.38.564v1.945zM173.514 107.083h-3.889v-17.5h3.889v1.945h-1.945v13.61h1.945v1.945zM183.225 107.083h-3.89v-1.944h1.945V91.528h-1.944v-1.945h3.889v17.5zM210.424 105.139q0 1.594-1.147 2.742-1.128 1.147-2.742 1.147h-3.889v-1.945h3.89q.796 0 1.36-.583.584-.564.584-1.361h-3.89q-1.613 0-2.76-1.128-1.128-1.147-1.128-2.761v-1.944q0-1.614 1.128-2.742 1.147-1.147 2.76-1.147h5.834v9.722zm-1.944-1.945v-5.833h-3.89q-.796 0-1.38.583-.564.564-.564 1.362v1.944q0 .797.564 1.38.584.564 1.38.564h3.89zM222.08 101.25q0 1.614-1.148 2.761-1.128 1.128-2.741 1.128h-3.89v-1.945h3.89q.797 0 1.36-.563.584-.584.584-1.381h-3.889q-1.614 0-2.761-1.128-1.128-1.147-1.128-2.76v-1.945q0-1.614 1.128-2.742 1.147-1.147 2.761-1.147h1.945q1.613 0 2.741 1.147 1.147 1.147 1.147 2.742v5.833zm-1.945-1.944v-3.89q0-.797-.583-1.36-.564-.584-1.361-.584h-1.945q-.797 0-1.38.584-.564.563-.564 1.36v1.945q0 .797.564 1.38.583.565 1.38.565h3.889zM233.735 109.028h-1.945v-3.89h-3.889q-1.614 0-2.76-1.127-1.129-1.147-1.129-2.761v-1.944q0-1.614 1.128-2.742 1.147-1.147 2.761-1.147h5.834v13.61zm-1.945-5.834v-5.833h-3.889q-.797 0-1.38.583-.564.564-.564 1.362v1.944q0 .797.564 1.38.583.564 1.38.564h3.89zM245.39 101.25q0 1.614-1.147 2.761-1.128 1.128-2.742 1.128h-1.944q-1.614 0-2.761-1.128-1.128-1.147-1.128-2.761v-5.833q0-1.614 1.128-2.742 1.147-1.147 2.76-1.147h1.945q1.614 0 2.742 1.147 1.147 1.147 1.147 2.742h-1.944q0-.798-.584-1.361-.564-.584-1.36-.584h-1.945q-.798 0-1.38.584-.565.563-.565 1.36v5.834q0 .797.564 1.38.583.564 1.38.564h1.945q.797 0 1.361-.563.584-.584.584-1.381h1.944zM257.045 101.25q0 1.614-1.147 2.761-1.128 1.128-2.742 1.128h-1.944q-1.614 0-2.761-1.128-1.128-1.147-1.128-2.761v-5.833q0-1.614 1.128-2.742 1.147-1.147 2.76-1.147h1.945q1.614 0 2.742 1.147 1.147 1.147 1.147 2.742h-1.944q0-.798-.584-1.361-.563-.584-1.36-.584h-1.945q-.797 0-1.38.584-.565.563-.565 1.36v5.834q0 .797.564 1.38.584.564 1.38.564h1.945q.798 0 1.361-.563.584-.584.584-1.381v-1.944h-1.945V97.36h3.89v3.889zM268.914 105.897l-1.38 1.4-2.178-2.197q-.35.039-.544.039h-1.945q-1.614 0-2.76-1.128-1.129-1.147-1.129-2.761v-5.833q0-1.614 1.128-2.742 1.147-1.147 2.761-1.147h1.945q1.613 0 2.741 1.147 1.147 1.147 1.147 2.742v5.833q0 1.867-1.438 3.014l1.652 1.633zm-2.158-4.647v-5.833q0-.798-.583-1.361-.564-.584-1.361-.584h-1.945q-.797 0-1.38.584-.564.563-.564 1.36v5.834q0 .817.564 1.4.583.564 1.38.544l.564-.019-.758-.758 1.38-1.361 1.828 1.827q.875-.583.875-1.633zM292.011 96.389q0 1.205-.856 2.061-.855.856-2.06.856-1.206 0-1.945-.74-1.206-1.205-1.945-1.205-.408 0-.7.292-.272.272-.272.68v.973h-1.944v-.973q0-1.205.855-2.06.856-.856 2.061-.856 1.225 0 1.945.72 1.225 1.224 1.944 1.224.409 0 .68-.272.293-.292.293-.7v-.972h1.944v.972zM303.666 99.306h-9.722V97.36h9.722v1.945zM315.322 99.306h-3.89v3.888h-1.944v-3.888H305.6V97.36h3.89v-3.889h1.944v3.89h3.889v1.944zM326.977 97.361h-9.722v-1.944h9.722v1.944zm0 3.889h-9.722v-1.944h9.722v1.944zM339.04 98.333l-7.213 7.175-1.342-1.341 5.794-5.834-5.91-5.95 1.34-1.341 7.331 7.291z"/></g></g></svg>