<?xml version="1.0" encoding="UTF-8" standalone="no"?>
<!-- Created with Inkscape (http://www.inkscape.org/) -->

<svg
   xmlns:dc="http://purl.org/dc/elements/1.1/"
   xmlns:cc="http://creativecommons.org/ns#"
   xmlns:rdf="http://www.w3.org/1999/02/22-rdf-syntax-ns#"
   xmlns:svg="http://www.w3.org/2000/svg"
   xmlns="http://www.w3.org/2000/svg"
   xmlns:sodipodi="http://sodipodi.sourceforge.net/DTD/sodipodi-0.dtd"
   xmlns:inkscape="http://www.inkscape.org/namespaces/inkscape"
   width="95.684753mm"
   height="30.77006mm"
   viewBox="0 0 339.04046 109.02777"
   id="svg2"
   version="1.1"
   inkscape:version="0.91 r13725"
   sodipodi:docname="ProFont Nerd Font.svg">
  <defs
     id="defs4" />
  <sodipodi:namedview
     id="base"
     pagecolor="#ffffff"
     bordercolor="#666666"
     borderopacity="1.0"
     inkscape:pageopacity="0.0"
     inkscape:pageshadow="2"
     inkscape:zoom="0.7"
     inkscape:cx="-52.857147"
     inkscape:cy="-400.93255"
     inkscape:document-units="px"
     inkscape:current-layer="layer1"
     showgrid="false"
     inkscape:window-width="1861"
     inkscape:window-height="1056"
     inkscape:window-x="59"
     inkscape:window-y="24"
     inkscape:window-maximized="1" />
  <metadata
     id="metadata7">
    <rdf:RDF>
      <cc:Work
         rdf:about="">
        <dc:format>image/svg+xml</dc:format>
        <dc:type
           rdf:resource="http://purl.org/dc/dcmitype/StillImage" />
        <dc:title />
      </cc:Work>
    </rdf:RDF>
  </metadata>
  <g
     inkscape:label="Layer 1"
     inkscape:groupmode="layer"
     id="layer1"
     transform="translate(-62.857143,-79.544743)">
    <g
       style="font-style:normal;font-weight:normal;font-size:27.5px;line-height:125%;font-family:'ProFontIIx Nerd Font';text-decoration: underline;text-decoration-line: underline;letter-spacing:0px;word-spacing:0px;fill:#ffffff;fill-opacity:1;stroke:none;stroke-width:1px;stroke-linecap:butt;stroke-linejoin:miter;stroke-opacity:1"
       id="text4136">
      <path
         d="m 78.134921,85.655854 q 0,2.505556 -1.802778,4.308333 -1.772222,1.802778 -4.308333,1.802778 l -6.111111,0 0,9.166665 -3.055556,0 0,-21.388887 9.166667,0 q 2.536111,0 4.308333,1.802778 1.802778,1.772222 1.802778,4.308333 z m -3.055555,0 q 0,-1.252778 -0.916667,-2.138889 -0.886111,-0.916666 -2.138889,-0.916666 l -6.111111,0 0,6.111111 6.111111,0 q 1.252778,0 2.138889,-0.886111 0.916667,-0.916667 0.916667,-2.169445 z"
         id="path4140"
         inkscape:connector-curvature="0" />
      <path
         d="m 84.228129,85.655854 0,4.186111 1.925,-1.894444 q 2.291666,-2.291667 4.186111,-2.291667 2.536111,0 4.308333,1.802778 1.802778,1.772222 1.802778,4.308333 l -3.055556,0 q 0,-1.252778 -0.916666,-2.138889 -0.886111,-0.916666 -2.138889,-0.916666 -1.527778,0 -3.055556,1.527777 l -3.055555,3.055556 0,7.638887 -3.055556,0 0,-15.277776 3.055556,0 z"
         id="path4142"
         inkscape:connector-curvature="0" />
      <path
         d="m 114.76578,94.822521 q 0,2.536111 -1.80278,4.338889 -1.77222,1.77222 -4.30833,1.77222 l -3.05556,0 q -2.53611,0 -4.33889,-1.77222 -1.772217,-1.802778 -1.772217,-4.338889 l 0,-3.055556 q 0,-2.536111 1.772217,-4.308333 1.80278,-1.802778 4.33889,-1.802778 l 3.05556,0 q 2.50555,0 4.30833,1.802778 1.80278,1.802778 1.80278,4.308333 l 0,3.055556 z m -3.05556,0 0,-3.055556 q 0,-1.252778 -0.91666,-2.138889 -0.88611,-0.916666 -2.13889,-0.916666 l -3.05556,0 q -1.25277,0 -2.16944,0.916666 -0.88611,0.886111 -0.88611,2.138889 l 0,3.055556 q 0,1.252778 0.88611,2.169444 0.91667,0.886111 2.16944,0.886111 l 3.05556,0 q 1.25278,0 2.13889,-0.886111 0.91666,-0.916666 0.91666,-2.169444 z"
         id="path4144"
         inkscape:connector-curvature="0" />
      <path
         d="m 133.08121,82.600299 -12.22222,0 0,6.111111 9.16666,0 0,3.055555 -9.16666,0 0,9.166665 -3.05556,0 0,-21.388887 15.27778,0 0,3.055556 z"
         id="path4146"
         inkscape:connector-curvature="0" />
      <path
         d="m 151.39664,94.822521 q 0,2.536111 -1.80278,4.338889 -1.77222,1.77222 -4.30833,1.77222 l -3.05556,0 q -2.53611,0 -4.33889,-1.77222 -1.77222,-1.802778 -1.77222,-4.338889 l 0,-3.055556 q 0,-2.536111 1.77222,-4.308333 1.80278,-1.802778 4.33889,-1.802778 l 3.05556,0 q 2.50555,0 4.30833,1.802778 1.80278,1.802778 1.80278,4.308333 l 0,3.055556 z m -3.05556,0 0,-3.055556 q 0,-1.252778 -0.91666,-2.138889 -0.88611,-0.916666 -2.13889,-0.916666 l -3.05556,0 q -1.25277,0 -2.16944,0.916666 -0.88611,0.886111 -0.88611,2.138889 l 0,3.055556 q 0,1.252778 0.88611,2.169444 0.91667,0.886111 2.16944,0.886111 l 3.05556,0 q 1.25278,0 2.13889,-0.886111 0.91666,-0.916666 0.91666,-2.169444 z"
         id="path4148"
         inkscape:connector-curvature="0" />
      <path
         d="m 157.48985,85.655854 0,4.186111 1.925,-1.894444 q 2.29166,-2.291667 4.18611,-2.291667 2.53611,0 4.30833,1.802778 1.80278,1.772222 1.80278,4.308333 l 0,9.166665 -3.05556,0 0,-9.166665 q 0,-1.252778 -0.91666,-2.138889 -0.88611,-0.916666 -2.13889,-0.916666 -1.52778,0 -3.05556,1.527777 l -3.05555,3.055556 0,7.638887 -3.05556,0 0,-15.277776 3.05556,0 z"
         id="path4150"
         inkscape:connector-curvature="0" />
      <path
         d="m 188.0275,100.93363 -3.05556,0 q -2.53611,0 -4.33889,-1.77222 -1.77222,-1.802778 -1.77222,-4.338889 l 0,-6.111111 -3.05555,0 0,-3.055556 3.05555,0 0,-6.111111 3.05556,0 0,6.111111 3.05555,0 0,3.055556 -3.05555,0 0,6.111111 q 0,1.252778 0.88611,2.169444 0.91667,0.886111 2.16944,0.886111 l 3.05556,0 0,3.055554 z"
         id="path4152"
         inkscape:connector-curvature="0" />
      <path
         d="m 224.65836,100.93363 -3.05556,0 0,-7.058331 -9.16666,-9.166667 0,16.224998 -3.05556,0 0,-21.388887 2.10833,0 10.11389,10.113889 0,-10.113889 3.05556,0 0,21.388887 z"
         id="path4154"
         inkscape:connector-curvature="0" />
      <path
         d="m 242.97379,100.93363 -9.16667,0 q -2.53611,0 -4.33889,-1.77222 -1.77222,-1.802778 -1.77222,-4.338889 l 0,-3.055556 q 0,-2.536111 1.77222,-4.308333 1.80278,-1.802778 4.33889,-1.802778 l 3.05556,0 q 2.50555,0 4.30833,1.802778 1.80278,1.802778 1.80278,4.308333 l 0,3.055556 -12.22222,0 q 0,1.252778 0.88611,2.169444 0.91666,0.886111 2.16944,0.886111 l 9.16667,0 0,3.055554 z m -3.05556,-9.166665 q 0,-1.252778 -0.91666,-2.138889 -0.88611,-0.916666 -2.13889,-0.916666 l -3.05556,0 q -1.25278,0 -2.16944,0.916666 -0.88611,0.886111 -0.88611,2.138889 l 9.16666,0 z"
         id="path4156"
         inkscape:connector-curvature="0" />
      <path
         d="m 249.067,85.655854 0,4.186111 1.925,-1.894444 q 2.29166,-2.291667 4.18611,-2.291667 2.53611,0 4.30833,1.802778 1.80278,1.772222 1.80278,4.308333 l -3.05556,0 q 0,-1.252778 -0.91666,-2.138889 -0.88612,-0.916666 -2.13889,-0.916666 -1.52778,0 -3.05556,1.527777 l -3.05555,3.055556 0,7.638887 -3.05556,0 0,-15.277776 3.05556,0 z"
         id="path4158"
         inkscape:connector-curvature="0" />
      <path
         d="m 279.60465,100.93363 -9.16667,0 q -2.53611,0 -4.33889,-1.77222 -1.77222,-1.802778 -1.77222,-4.338889 l 0,-3.055556 q 0,-2.536111 1.77222,-4.308333 1.80278,-1.802778 4.33889,-1.802778 l 6.11111,0 0,-6.111111 3.05556,0 0,21.388887 z m -3.05556,-3.055554 0,-9.166666 -6.11111,0 q -1.25278,0 -2.16944,0.916666 -0.88611,0.886111 -0.88611,2.138889 l 0,3.055556 q 0,1.252778 0.88611,2.169444 0.91666,0.886111 2.16944,0.886111 l 6.11111,0 z"
         id="path4160"
         inkscape:connector-curvature="0" />
      <path
         d="m 316.23551,82.600299 -12.22223,0 0,6.111111 9.16667,0 0,3.055555 -9.16667,0 0,9.166665 -3.05555,0 0,-21.388887 15.27778,0 0,3.055556 z"
         id="path4162"
         inkscape:connector-curvature="0" />
      <path
         d="m 334.55094,94.822521 q 0,2.536111 -1.80278,4.338889 -1.77222,1.77222 -4.30833,1.77222 l -3.05556,0 q -2.53611,0 -4.33889,-1.77222 -1.77222,-1.802778 -1.77222,-4.338889 l 0,-3.055556 q 0,-2.536111 1.77222,-4.308333 1.80278,-1.802778 4.33889,-1.802778 l 3.05556,0 q 2.50555,0 4.30833,1.802778 1.80278,1.802778 1.80278,4.308333 l 0,3.055556 z m -3.05556,0 0,-3.055556 q 0,-1.252778 -0.91667,-2.138889 -0.88611,-0.916666 -2.13888,-0.916666 l -3.05556,0 q -1.25278,0 -2.16944,0.916666 -0.88612,0.886111 -0.88612,2.138889 l 0,3.055556 q 0,1.252778 0.88612,2.169444 0.91666,0.886111 2.16944,0.886111 l 3.05556,0 q 1.25277,0 2.13888,-0.886111 0.91667,-0.916666 0.91667,-2.169444 z"
         id="path4164"
         inkscape:connector-curvature="0" />
      <path
         d="m 340.64414,85.655854 0,4.186111 1.925,-1.894444 q 2.29167,-2.291667 4.18612,-2.291667 2.53611,0 4.30833,1.802778 1.80278,1.772222 1.80278,4.308333 l 0,9.166665 -3.05556,0 0,-9.166665 q 0,-1.252778 -0.91667,-2.138889 -0.88611,-0.916666 -2.13888,-0.916666 -1.52778,0 -3.05556,1.527777 l -3.05556,3.055556 0,7.638887 -3.05555,0 0,-15.277776 3.05555,0 z"
         id="path4166"
         inkscape:connector-curvature="0" />
      <path
         d="m 371.1818,100.93363 -3.05556,0 q -2.53611,0 -4.33889,-1.77222 -1.77222,-1.802778 -1.77222,-4.338889 l 0,-6.111111 -3.05556,0 0,-3.055556 3.05556,0 0,-6.111111 3.05556,0 0,6.111111 3.05555,0 0,3.055556 -3.05555,0 0,6.111111 q 0,1.252778 0.88611,2.169444 0.91666,0.886111 2.16944,0.886111 l 3.05556,0 0,3.055554 z"
         id="path4168"
         inkscape:connector-curvature="0" />
    </g>
    <g
       style="font-style:normal;font-weight:normal;font-size:27.5px;line-height:125%;font-family:'ProFontIIx Nerd Font';letter-spacing:0px;word-spacing:0px;fill:#ffffff;fill-opacity:1;stroke:none;stroke-width:1px;stroke-linecap:butt;stroke-linejoin:miter;stroke-opacity:1"
       id="text4140">
      <path
         d="m 75.141625,131.2114 0,9.72222 -1.944444,0 0,-2.68333 -1.205556,1.225 q -1.458333,1.45833 -2.683333,1.45833 -1.613889,0 -2.761111,-1.12777 -1.127778,-1.14723 -1.127778,-2.76111 l 0,-1.94445 q 0,-1.61389 1.127778,-2.74167 1.147222,-1.14722 2.761111,-1.14722 l 5.833333,0 z m -5.833333,1.94445 q -0.797222,0 -1.380556,0.58333 -0.563888,0.56389 -0.563888,1.36111 l 0,1.94445 q 0,0.79722 0.563888,1.38055 0.583334,0.56389 1.380556,0.56389 0.972222,0 1.944444,-0.97222 l 1.944445,-1.94445 0,-2.91666 -3.888889,0 z"
         style="font-size:17.5px"
         id="path4171"
         inkscape:connector-curvature="0" />
      <path
         d="m 86.796899,137.04474 q 0,1.61388 -1.147222,2.76111 -1.127778,1.12777 -2.741667,1.12777 l -5.833333,0 0,-13.61111 1.944444,0 0,3.88889 3.888889,0 q 1.594444,0 2.741667,1.14722 1.147222,1.14723 1.147222,2.74167 l 0,1.94445 z m -1.944445,0 0,-1.94445 q 0,-0.79722 -0.583333,-1.36111 -0.563889,-0.58333 -1.361111,-0.58333 l -3.888889,0 0,5.83333 3.888889,0 q 0.797222,0 1.361111,-0.56389 0.583333,-0.58333 0.583333,-1.38055 z"
         style="font-size:17.5px"
         id="path4173"
         inkscape:connector-curvature="0" />
      <path
         d="m 98.452172,140.93362 -5.833333,0 q -1.594445,0 -2.741667,-1.14722 -1.147222,-1.14722 -1.147222,-2.74166 l 0,-1.94445 q 0,-1.59444 1.147222,-2.74167 1.147222,-1.14722 2.741667,-1.14722 l 1.944444,0 q 1.594445,0 2.741667,1.14722 1.147222,1.14723 1.147222,2.74167 l -1.944444,0 q 0,-0.79722 -0.583334,-1.36111 -0.563888,-0.58333 -1.361111,-0.58333 l -1.944444,0 q -0.797222,0 -1.380556,0.58333 -0.563889,0.56389 -0.563889,1.36111 l 0,1.94445 q 0,0.79722 0.563889,1.38055 0.583334,0.56389 1.380556,0.56389 l 5.833333,0 0,1.94444 z"
         style="font-size:17.5px"
         id="path4175"
         inkscape:connector-curvature="0" />
      <path
         d="m 110.10745,140.93362 -5.83334,0 q -1.61389,0 -2.76111,-1.12777 -1.12778,-1.14723 -1.12778,-2.76111 l 0,-1.94445 q 0,-1.61389 1.12778,-2.74167 1.14722,-1.14722 2.76111,-1.14722 l 3.88889,0 0,-3.88889 1.94445,0 0,13.61111 z m -1.94445,-1.94444 0,-5.83333 -3.88889,0 q -0.79722,0 -1.38055,0.58333 -0.56389,0.56389 -0.56389,1.36111 l 0,1.94445 q 0,0.79722 0.56389,1.38055 0.58333,0.56389 1.38055,0.56389 l 3.88889,0 z"
         style="font-size:17.5px"
         id="path4177"
         inkscape:connector-curvature="0" />
      <path
         d="m 121.76272,140.93362 -5.83333,0 q -1.61389,0 -2.76112,-1.12777 -1.12777,-1.14723 -1.12777,-2.76111 l 0,-1.94445 q 0,-1.61389 1.12777,-2.74167 1.14723,-1.14722 2.76112,-1.14722 l 1.94444,0 q 1.59444,0 2.74167,1.14722 1.14722,1.14723 1.14722,2.74167 l 0,1.94445 -7.77778,0 q 0,0.79722 0.56389,1.38055 0.58333,0.56389 1.38056,0.56389 l 5.83333,0 0,1.94444 z m -1.94445,-5.83333 q 0,-0.79722 -0.58333,-1.36111 -0.56389,-0.58333 -1.36111,-0.58333 l -1.94444,0 q -0.79723,0 -1.38056,0.58333 -0.56389,0.56389 -0.56389,1.36111 l 5.83333,0 z"
         style="font-size:17.5px"
         id="path4179"
         inkscape:connector-curvature="0" />
      <path
         d="m 133.41799,129.26696 -1.94444,0 q -0.79722,0 -1.38056,0.58333 -0.56389,0.56389 -0.56389,1.36111 l 1.94445,0 0,1.94445 -1.94445,0 0,7.77777 -1.94444,0 0,-7.77777 -1.94445,0 0,-1.94445 1.94445,0 q 0,-1.61389 1.14722,-2.74166 1.14722,-1.14723 2.74167,-1.14723 l 1.94444,0 0,1.94445 z"
         style="font-size:17.5px"
         id="path4181"
         inkscape:connector-curvature="0" />
      <path
         d="m 145.07327,140.93362 q 0,1.59445 -1.14723,2.74167 -1.12777,1.14722 -2.74166,1.14722 l -3.88889,0 0,-1.94444 3.88889,0 q 0.79722,0 1.36111,-0.58333 0.58333,-0.56389 0.58333,-1.36112 l -3.88889,0 q -1.61389,0 -2.76111,-1.12777 -1.12778,-1.14723 -1.12778,-2.76111 l 0,-1.94445 q 0,-1.61389 1.12778,-2.74167 1.14722,-1.14722 2.76111,-1.14722 l 5.83334,0 0,9.72222 z m -1.94445,-1.94444 0,-5.83333 -3.88889,0 q -0.79722,0 -1.38055,0.58333 -0.56389,0.56389 -0.56389,1.36111 l 0,1.94445 q 0,0.79722 0.56389,1.38055 0.58333,0.56389 1.38055,0.56389 l 3.88889,0 z"
         style="font-size:17.5px"
         id="path4183"
         inkscape:connector-curvature="0" />
      <path
         d="m 156.72854,140.93362 -1.94445,0 0,-5.83333 q 0,-0.79722 -0.58333,-1.36111 -0.56389,-0.58333 -1.36111,-0.58333 l -3.88889,0 0,7.77777 -1.94444,0 0,-13.61111 1.94444,0 0,3.88889 3.88889,0 q 1.59444,0 2.74167,1.14722 1.14722,1.14723 1.14722,2.74167 l 0,5.83333 z"
         style="font-size:17.5px"
         id="path4185"
         inkscape:connector-curvature="0" />
      <path
         d="m 164.49492,128.29474 q 0,0.40833 -0.29166,0.7 -0.27222,0.27222 -0.68056,0.27222 -0.40833,0 -0.7,-0.27222 -0.27222,-0.29167 -0.27222,-0.7 0,-0.40834 0.27222,-0.68056 0.29167,-0.29167 0.7,-0.29167 0.40834,0 0.68056,0.29167 0.29166,0.27222 0.29166,0.68056 z m 1.94445,12.63888 -5.83333,0 0,-1.94444 1.94444,0 0,-5.83333 -1.94444,0 0,-1.94445 3.88888,0 0,7.77778 1.94445,0 0,1.94444 z"
         style="font-size:17.5px"
         id="path4187"
         inkscape:connector-curvature="0" />
      <path
         d="m 176.1502,128.29474 q 0,0.40833 -0.29167,0.7 -0.27222,0.27222 -0.68055,0.27222 -0.40834,0 -0.7,-0.27222 -0.27223,-0.29167 -0.27223,-0.7 0,-0.40834 0.27223,-0.68056 0.29166,-0.29167 0.7,-0.29167 0.40833,0 0.68055,0.29167 0.29167,0.27222 0.29167,0.68056 z m 0,12.63888 q 0,1.59445 -1.14722,2.74167 -1.12778,1.14722 -2.74167,1.14722 l -1.94445,0 0,-1.94444 1.94445,0 q 0.79722,0 1.36111,-0.58333 0.58333,-0.56389 0.58333,-1.36112 l 0,-7.77777 -1.94444,0 0,-1.94445 3.88889,0 0,9.72222 z m -5.83334,3.88889 0,0 z"
         style="font-size:17.5px"
         id="path4189"
         inkscape:connector-curvature="0" />
      <path
         d="m 191.69436,140.93362 -1.34167,0 -4.49166,-4.49166 -1.94445,1.94444 0,2.54722 -1.94444,0 0,-13.61111 1.94444,0 0,8.38056 4.49167,-4.49167 2.68333,0 -3.88889,3.88889 4.49167,4.49167 0,1.34166 z"
         style="font-size:17.5px"
         id="path4191"
         inkscape:connector-curvature="0" />
      <path
         d="m 201.40519,140.93362 -5.83333,0 0,-1.94444 1.94444,0 0,-9.72222 -1.94444,0 0,-1.94445 3.88888,0 0,11.66667 1.94445,0 0,1.94444 z"
         style="font-size:17.5px"
         id="path4193"
         inkscape:connector-curvature="0" />
      <path
         d="m 215.00491,140.93362 -1.94445,0 0,-5.83333 q 0,-0.79722 -0.58333,-1.36111 -0.56389,-0.58333 -1.36111,-0.58333 l 0,7.77777 -1.94445,0 0,-7.77777 -1.94444,0 0,7.77777 -1.94445,0 0,-9.72222 5.83334,0 q 1.59444,0 2.74166,1.14722 1.14723,1.14723 1.14723,2.74167 l 0,5.83333 z"
         style="font-size:17.5px"
         id="path4195"
         inkscape:connector-curvature="0" />
      <path
         d="m 218.8824,131.2114 0,2.66389 1.225,-1.20555 q 1.45834,-1.45834 2.66389,-1.45834 1.61389,0 2.74167,1.14722 1.14722,1.12778 1.14722,2.74167 l 0,5.83333 -1.94444,0 0,-5.83333 q 0,-0.79722 -0.58334,-1.36111 -0.56389,-0.58333 -1.36111,-0.58333 -0.97222,0 -1.94444,0.97222 l -1.94445,1.94444 0,4.86111 -1.94444,0 0,-9.72222 1.94444,0 z"
         style="font-size:17.5px"
         id="path4197"
         inkscape:connector-curvature="0" />
      <path
         d="m 238.31545,137.04474 q 0,1.61388 -1.14722,2.76111 -1.12778,1.12777 -2.74167,1.12777 l -1.94444,0 q -1.61389,0 -2.76111,-1.12777 -1.12778,-1.14723 -1.12778,-2.76111 l 0,-1.94445 q 0,-1.61389 1.12778,-2.74167 1.14722,-1.14722 2.76111,-1.14722 l 1.94444,0 q 1.59445,0 2.74167,1.14722 1.14722,1.14723 1.14722,2.74167 l 0,1.94445 z m -1.94444,0 0,-1.94445 q 0,-0.79722 -0.58333,-1.36111 -0.56389,-0.58333 -1.36112,-0.58333 l -1.94444,0 q -0.79722,0 -1.38056,0.58333 -0.56388,0.56389 -0.56388,1.36111 l 0,1.94445 q 0,0.79722 0.56388,1.38055 0.58334,0.56389 1.38056,0.56389 l 1.94444,0 q 0.79723,0 1.36112,-0.56389 0.58333,-0.58333 0.58333,-1.38055 z"
         style="font-size:17.5px"
         id="path4199"
         inkscape:connector-curvature="0" />
      <path
         d="m 249.97073,137.04474 q 0,1.61388 -1.14723,2.76111 -1.12777,1.12777 -2.74166,1.12777 l -3.88889,0 0,3.88889 -1.94445,0 0,-13.61111 5.83334,0 q 1.59444,0 2.74166,1.14722 1.14723,1.14723 1.14723,2.74167 l 0,1.94445 z m -1.94445,0 0,-1.94445 q 0,-0.79722 -0.58333,-1.36111 -0.56389,-0.58333 -1.36111,-0.58333 l -3.88889,0 0,5.83333 3.88889,0 q 0.79722,0 1.36111,-0.56389 0.58333,-0.58333 0.58333,-1.38055 z m -7.77778,7.77777 0,0 z"
         style="font-size:17.5px"
         id="path4201"
         inkscape:connector-curvature="0" />
      <path
         d="m 261.626,144.82251 -1.94444,0 0,-3.88889 -3.88889,0 q -1.61389,0 -2.76111,-1.12777 -1.12778,-1.14723 -1.12778,-2.76111 l 0,-1.94445 q 0,-1.61389 1.12778,-2.74167 1.14722,-1.14722 2.76111,-1.14722 l 5.83333,0 0,13.61111 z m -1.94444,-5.83333 0,-5.83333 -3.88889,0 q -0.79723,0 -1.38056,0.58333 -0.56389,0.56389 -0.56389,1.36111 l 0,1.94445 q 0,0.79722 0.56389,1.38055 0.58333,0.56389 1.38056,0.56389 l 3.88889,0 z"
         style="font-size:17.5px"
         id="path4203"
         inkscape:connector-curvature="0" />
      <path
         d="m 265.5035,131.2114 0,2.66389 1.225,-1.20555 q 1.45833,-1.45834 2.66388,-1.45834 1.61389,0 2.74167,1.14722 1.14722,1.12778 1.14722,2.74167 l -1.94444,0 q 0,-0.79722 -0.58333,-1.36111 -0.56389,-0.58333 -1.36112,-0.58333 -0.97222,0 -1.94444,0.97222 l -1.94444,1.94444 0,4.86111 -1.94445,0 0,-9.72222 1.94445,0 z"
         style="font-size:17.5px"
         id="path4205"
         inkscape:connector-curvature="0" />
      <path
         d="m 284.93655,131.2114 0,1.94445 -5.09445,0 q -1.01111,0 -1.73055,0.29166 -0.7,0.27223 -0.7,0.68056 0,0.40833 0.7,0.7 0.71944,0.27222 1.73055,0.27222 l 0.48611,0 q 1.80834,0 3.09167,0.85556 1.28333,0.85555 1.28333,2.06111 0,1.20555 -1.28333,2.06111 -1.28333,0.85555 -3.09167,0.85555 l -5.11389,0 0,-1.94444 5.11389,0 q 0.99167,0 1.71111,-0.27222 0.71945,-0.29167 0.71945,-0.7 0,-0.40834 -0.71945,-0.68056 -0.71944,-0.29166 -1.71111,-0.29166 l -0.48611,0 q -1.82778,0 -3.11111,-0.85556 -1.26389,-0.85556 -1.26389,-2.06111 0,-1.20556 1.26389,-2.06111 1.28333,-0.85556 3.11111,-0.85556 l 5.09445,0 z"
         style="font-size:17.5px"
         id="path4207"
         inkscape:connector-curvature="0" />
      <path
         d="m 296.59182,140.93362 -1.94444,0 q -1.61389,0 -2.76111,-1.12777 -1.12778,-1.14723 -1.12778,-2.76111 l 0,-3.88889 -1.94445,0 0,-1.94445 1.94445,0 0,-3.88889 1.94444,0 0,3.88889 1.94445,0 0,1.94445 -1.94445,0 0,3.88889 q 0,0.79722 0.56389,1.38055 0.58333,0.56389 1.38056,0.56389 l 1.94444,0 0,1.94444 z"
         style="font-size:17.5px"
         id="path4209"
         inkscape:connector-curvature="0" />
      <path
         d="m 306.30265,140.93362 0,-2.68333 -1.20556,1.225 q -1.45833,1.45833 -2.68333,1.45833 -1.61389,0 -2.76111,-1.12777 -1.12778,-1.14723 -1.12778,-2.76111 l 0,-5.83334 1.94445,0 0,5.83334 q 0,0.79722 0.56389,1.38055 0.58333,0.56389 1.38055,0.56389 0.97222,0 1.94445,-0.97222 l 1.94444,-1.94445 0,-4.86111 1.94444,0 0,9.72222 -1.94444,0 z"
         style="font-size:17.5px"
         id="path4211"
         inkscape:connector-curvature="0" />
      <path
         d="m 319.90237,133.15585 -3.88889,7.77777 -1.94445,0 -3.88888,-7.77777 0,-1.94445 1.94444,0 0,1.45834 2.91667,5.83333 2.91666,-5.83333 0,-1.45834 1.94445,0 0,1.94445 z"
         style="font-size:17.5px"
         id="path4213"
         inkscape:connector-curvature="0" />
      <path
         d="m 326.57986,138.98918 q -0.79722,1.94444 -1.82777,1.94444 -1.20556,0 -2.06112,-1.28333 -0.85555,-1.28333 -0.85555,-3.09167 l 0,-5.34722 1.94444,0 0,5.34722 q 0,1.01112 0.27223,1.73056 0.29166,0.71944 0.7,0.71944 0.40833,0 0.68055,-0.71944 0.29167,-0.71944 0.29167,-1.73056 l 0,-5.34722 1.94444,0 0,5.34722 q 0,1.01112 0.27222,1.73056 0.29167,0.7 0.7,0.7 0.40834,0 0.68056,-0.7 0.29167,-0.71944 0.29167,-1.73056 l 0,-5.34722 1.94444,0 0,5.34722 q 0,1.80834 -0.85555,3.09167 -0.85556,1.28333 -2.06112,1.28333 -1.03055,0 -1.82777,-1.94444 l -0.23334,0 z"
         style="font-size:17.5px"
         id="path4215"
         inkscape:connector-curvature="0" />
      <path
         d="m 343.21291,140.93362 -1.94444,0 0,-0.60277 -2.91667,-2.91667 -2.91666,2.91667 0,0.60277 -1.94445,0 0,-1.34166 3.51945,-3.51945 -3.51945,-3.51944 0,-1.34167 1.94445,0 0,0.60278 2.91666,2.91667 2.91667,-2.91667 0,-0.60278 1.94444,0 0,1.34167 -3.51944,3.51944 3.51944,3.51945 0,1.34166 z"
         style="font-size:17.5px"
         id="path4217"
         inkscape:connector-curvature="0" />
      <path
         d="m 354.86819,140.93362 q 0,1.59445 -1.14722,2.74167 -1.12778,1.14722 -2.74167,1.14722 l -3.88889,0 0,-1.94444 3.88889,0 q 0.79722,0 1.36111,-0.58333 0.58333,-0.56389 0.58333,-1.36112 l -3.88889,0 q -1.61388,0 -2.76111,-1.12777 -1.12777,-1.14723 -1.12777,-2.76111 l 0,-5.83334 1.94444,0 0,5.83334 q 0,0.79722 0.56389,1.38055 0.58333,0.56389 1.38055,0.56389 l 3.88889,0 0,-7.77778 1.94445,0 0,9.72222 z"
         style="font-size:17.5px"
         id="path4219"
         inkscape:connector-curvature="0" />
      <path
         d="m 366.52346,140.93362 -9.72222,0 0,-1.34166 6.43611,-6.43611 -6.43611,0 0,-1.94445 9.72222,0 0,1.34167 -6.43611,6.43611 6.43611,0 0,1.94444 z"
         style="font-size:17.5px"
         id="path4221"
         inkscape:connector-curvature="0" />
      <path
         d="m 67.363848,158.91974 0,3.88888 -1.944445,0 0,-6.31944 3.655556,-7.29167 2.430555,0 3.636111,7.29167 0,6.31944 -1.944444,0 0,-3.88888 -5.833333,0 z m 2.916666,-7.77778 -2.916666,5.83333 5.833333,0 -2.916667,-5.83333 z"
         style="font-size:17.5px"
         id="path4223"
         inkscape:connector-curvature="0" />
      <path
         d="m 86.796899,153.0864 q 0,1.75 -1.652778,2.91667 1.652778,1.16667 1.652778,2.91667 0,1.61388 -1.147222,2.76111 -1.127778,1.12777 -2.741667,1.12777 l -5.833333,0 0,-13.61111 5.833333,0 q 1.613889,0 2.741667,1.14723 1.147222,1.12777 1.147222,2.74166 z m -7.777778,-1.94444 0,3.88889 3.888889,0 q 0.797222,0 1.361111,-0.56389 0.583333,-0.58334 0.583333,-1.38056 0,-0.79722 -0.583333,-1.36111 -0.563889,-0.58333 -1.361111,-0.58333 l -3.888889,0 z m 0,5.83333 0,3.88889 3.888889,0 q 0.797222,0 1.361111,-0.56389 0.583333,-0.58333 0.583333,-1.38055 0,-0.79723 -0.583333,-1.36112 -0.563889,-0.58333 -1.361111,-0.58333 l -3.888889,0 z"
         style="font-size:17.5px"
         id="path4225"
         inkscape:connector-curvature="0" />
      <path
         d="m 98.452172,158.91974 q 0,1.61388 -1.147222,2.76111 -1.127778,1.12777 -2.741667,1.12777 l -1.944444,0 q -1.613889,0 -2.761111,-1.12777 -1.127778,-1.14723 -1.127778,-2.76111 l 0,-5.83334 q 0,-1.61389 1.127778,-2.74166 1.147222,-1.14723 2.761111,-1.14723 l 1.944444,0 q 1.613889,0 2.741667,1.14723 1.147222,1.14722 1.147222,2.74166 l -1.944444,0 q 0,-0.79722 -0.583334,-1.36111 -0.563888,-0.58333 -1.361111,-0.58333 l -1.944444,0 q -0.797222,0 -1.380556,0.58333 -0.563889,0.56389 -0.563889,1.36111 l 0,5.83334 q 0,0.79722 0.563889,1.38055 0.583334,0.56389 1.380556,0.56389 l 1.944444,0 q 0.797223,0 1.361111,-0.56389 0.583334,-0.58333 0.583334,-1.38055 l 1.944444,0 z"
         style="font-size:17.5px"
         id="path4227"
         inkscape:connector-curvature="0" />
      <path
         d="m 110.10745,158.91974 q 0,1.61388 -1.14723,2.76111 -1.12777,1.12777 -2.74166,1.12777 l -5.83334,0 0,-13.61111 5.83334,0 q 1.61389,0 2.74166,1.14723 1.14723,1.14722 1.14723,2.74166 l 0,5.83334 z m -1.94445,0 0,-5.83334 q 0,-0.79722 -0.58333,-1.36111 -0.56389,-0.58333 -1.36111,-0.58333 l -3.88889,0 0,9.72222 3.88889,0 q 0.79722,0 1.36111,-0.56389 0.58333,-0.58333 0.58333,-1.38055 z"
         style="font-size:17.5px"
         id="path4229"
         inkscape:connector-curvature="0" />
      <path
         d="m 121.76272,162.80862 -9.72222,0 0,-13.61111 9.72222,0 0,1.94445 -7.77778,0 0,3.88889 5.83333,0 0,1.94444 -5.83333,0 0,3.88889 7.77778,0 0,1.94444 z"
         style="font-size:17.5px"
         id="path4231"
         inkscape:connector-curvature="0" />
      <path
         d="m 133.41799,151.14196 -7.77778,0 0,3.88889 5.83334,0 0,1.94444 -5.83334,0 0,5.83333 -1.94444,0 0,-13.61111 9.72222,0 0,1.94445 z"
         style="font-size:17.5px"
         id="path4233"
         inkscape:connector-curvature="0" />
      <path
         d="m 145.07327,158.91974 q 0,1.61388 -1.14723,2.76111 -1.12777,1.12777 -2.74166,1.12777 l -1.94445,0 q -1.61389,0 -2.76111,-1.12777 -1.12778,-1.14723 -1.12778,-2.76111 l 0,-5.83334 q 0,-1.61389 1.12778,-2.74166 1.14722,-1.14723 2.76111,-1.14723 l 1.94445,0 q 1.61389,0 2.74166,1.14723 1.14723,1.14722 1.14723,2.74166 l -1.94445,0 q 0,-0.79722 -0.58333,-1.36111 -0.56389,-0.58333 -1.36111,-0.58333 l -1.94445,0 q -0.79722,0 -1.38055,0.58333 -0.56389,0.56389 -0.56389,1.36111 l 0,5.83334 q 0,0.79722 0.56389,1.38055 0.58333,0.56389 1.38055,0.56389 l 1.94445,0 q 0.79722,0 1.36111,-0.56389 0.58333,-0.58333 0.58333,-1.38055 l 0,-1.94445 -1.94444,0 0,-1.94444 3.88889,0 0,3.88889 z"
         style="font-size:17.5px"
         id="path4235"
         inkscape:connector-curvature="0" />
      <path
         d="m 156.72854,162.80862 -1.94445,0 0,-5.83333 -5.83333,0 0,5.83333 -1.94444,0 0,-13.61111 1.94444,0 0,5.83334 5.83333,0 0,-5.83334 1.94445,0 0,13.61111 z"
         style="font-size:17.5px"
         id="path4237"
         inkscape:connector-curvature="0" />
      <path
         d="m 168.38381,162.80862 -9.72222,0 0,-1.94444 3.88889,0 0,-9.72222 -3.88889,0 0,-1.94445 9.72222,0 0,1.94445 -3.88889,0 0,9.72222 3.88889,0 0,1.94444 z"
         style="font-size:17.5px"
         id="path4239"
         inkscape:connector-curvature="0" />
      <path
         d="m 180.03909,158.91974 q 0,1.61388 -1.14723,2.76111 -1.12777,1.12777 -2.74166,1.12777 l -1.94445,0 q -1.61389,0 -2.76111,-1.12777 -1.12778,-1.14723 -1.12778,-2.76111 l 0,-1.94445 1.94445,0 0,1.94445 q 0,0.79722 0.56389,1.38055 0.58333,0.56389 1.38055,0.56389 l 1.94445,0 q 0.79722,0 1.36111,-0.56389 0.58333,-0.58333 0.58333,-1.38055 l 0,-9.72223 1.94445,0 0,9.72223 z"
         style="font-size:17.5px"
         id="path4241"
         inkscape:connector-curvature="0" />
      <path
         d="m 191.69436,162.80862 -1.94444,0 -5.83334,-5.83333 0,5.83333 -1.94444,0 0,-13.61111 1.94444,0 0,5.83334 5.83334,-5.83334 1.94444,0 0,0.71945 -6.08611,6.08611 6.08611,6.06667 0,0.73888 z"
         style="font-size:17.5px"
         id="path4243"
         inkscape:connector-curvature="0" />
      <path
         d="m 203.34963,162.80862 -9.72222,0 0,-13.61111 1.94445,0 0,11.66667 7.77777,0 0,1.94444 z"
         style="font-size:17.5px"
         id="path4245"
         inkscape:connector-curvature="0" />
      <path
         d="m 215.00491,162.80862 -1.94445,0 0,-10.20833 -1.94444,1.94445 0,2.43055 -1.94445,0 0,-2.43055 -1.94444,-1.94445 0,10.20833 -1.94445,0 0,-13.61111 1.45834,0 3.40278,3.40278 3.40277,-3.40278 1.45834,0 0,13.61111 z"
         style="font-size:17.5px"
         id="path4247"
         inkscape:connector-curvature="0" />
      <path
         d="m 226.66018,162.80862 -1.94444,0 0,-4.49166 -5.83334,-5.83334 0,10.325 -1.94444,0 0,-13.61111 1.34166,0 6.43612,6.43611 0,-6.43611 1.94444,0 0,13.61111 z"
         style="font-size:17.5px"
         id="path4249"
         inkscape:connector-curvature="0" />
      <path
         d="m 238.31545,158.91974 q 0,1.61388 -1.14722,2.76111 -1.12778,1.12777 -2.74167,1.12777 l -1.94444,0 q -1.61389,0 -2.76111,-1.12777 -1.12778,-1.14723 -1.12778,-2.76111 l 0,-5.83334 q 0,-1.61389 1.12778,-2.74166 1.14722,-1.14723 2.76111,-1.14723 l 1.94444,0 q 1.61389,0 2.74167,1.14723 1.14722,1.14722 1.14722,2.74166 l 0,5.83334 z m -1.94444,0 0,-5.83334 q 0,-0.79722 -0.58333,-1.36111 -0.56389,-0.58333 -1.36112,-0.58333 l -1.94444,0 q -0.79722,0 -1.38056,0.58333 -0.56388,0.56389 -0.56388,1.36111 l 0,5.83334 q 0,0.79722 0.56388,1.38055 0.58334,0.56389 1.38056,0.56389 l 1.94444,0 q 0.79723,0 1.36112,-0.56389 0.58333,-0.58333 0.58333,-1.38055 z"
         style="font-size:17.5px"
         id="path4251"
         inkscape:connector-curvature="0" />
      <path
         d="m 249.97073,153.0864 q 0,1.59445 -1.14723,2.74167 -1.12777,1.14722 -2.74166,1.14722 l -3.88889,0 0,5.83333 -1.94445,0 0,-13.61111 5.83334,0 q 1.61389,0 2.74166,1.14723 1.14723,1.12777 1.14723,2.74166 z m -1.94445,0 q 0,-0.79722 -0.58333,-1.36111 -0.56389,-0.58333 -1.36111,-0.58333 l -3.88889,0 0,3.88889 3.88889,0 q 0.79722,0 1.36111,-0.56389 0.58333,-0.58334 0.58333,-1.38056 z"
         style="font-size:17.5px"
         id="path4253"
         inkscape:connector-curvature="0" />
      <path
         d="m 261.83989,163.56696 -1.38056,1.4 -2.17777,-2.19722 q -0.35,0.0389 -0.54445,0.0389 l -1.94444,0 q -1.61389,0 -2.76111,-1.12777 -1.12778,-1.14723 -1.12778,-2.76111 l 0,-5.83334 q 0,-1.61389 1.12778,-2.74166 1.14722,-1.14723 2.76111,-1.14723 l 1.94444,0 q 1.61389,0 2.74167,1.14723 1.14722,1.14722 1.14722,2.74166 l 0,5.83334 q 0,1.86666 -1.43889,3.01388 l 1.65278,1.63334 z m -2.15833,-4.64722 0,-5.83334 q 0,-0.79722 -0.58334,-1.36111 -0.56389,-0.58333 -1.36111,-0.58333 l -1.94444,0 q -0.79723,0 -1.38056,0.58333 -0.56389,0.56389 -0.56389,1.36111 l 0,5.83334 q 0,0.81666 0.56389,1.4 0.58333,0.56388 1.38056,0.54444 l 0.56389,-0.0194 -0.75834,-0.75834 1.38056,-1.36111 1.82778,1.82778 q 0.875,-0.58333 0.875,-1.63333 z"
         style="font-size:17.5px"
         id="path4255"
         inkscape:connector-curvature="0" />
      <path
         d="m 271.33683,162.80862 0,-3.88888 q 0,-0.79723 -0.58333,-1.36112 -0.56389,-0.58333 -1.36112,-0.58333 l -3.88888,0 0,5.83333 -1.94445,0 0,-13.61111 5.83333,0 q 1.61389,0 2.74167,1.14723 1.14722,1.12777 1.14722,2.74166 0,1.75 -1.65277,2.91667 1.65277,1.16667 1.65277,2.91667 l 0,3.88888 -1.94444,0 z m -5.83333,-7.77777 3.88888,0 q 0.79723,0 1.36112,-0.56389 0.58333,-0.58334 0.58333,-1.38056 0,-0.79722 -0.58333,-1.36111 -0.56389,-0.58333 -1.36112,-0.58333 l -3.88888,0 0,3.88889 z"
         style="font-size:17.5px"
         id="path4257"
         inkscape:connector-curvature="0" />
      <path
         d="m 284.93655,158.91974 q 0,1.61388 -1.14723,2.76111 -1.12777,1.12777 -2.74166,1.12777 l -1.94445,0 q -1.61389,0 -2.76111,-1.12777 -1.12778,-1.14723 -1.12778,-2.76111 l 1.94445,0 q 0,0.79722 0.56389,1.38055 0.58333,0.56389 1.38055,0.56389 l 1.94445,0 q 0.79722,0 1.36111,-0.56389 0.58333,-0.58333 0.58333,-1.38055 0,-0.79723 -0.58333,-1.36112 -0.56389,-0.58333 -1.36111,-0.58333 l -1.94445,0 q -1.61389,0 -2.76111,-1.12778 -1.12778,-1.14722 -1.12778,-2.76111 0,-1.61389 1.12778,-2.74166 1.14722,-1.14723 2.76111,-1.14723 l 1.94445,0 q 1.61389,0 2.74166,1.14723 1.14723,1.14722 1.14723,2.74166 l -1.94445,0 q 0,-0.79722 -0.58333,-1.36111 -0.56389,-0.58333 -1.36111,-0.58333 l -1.94445,0 q -0.79722,0 -1.38055,0.58333 -0.56389,0.56389 -0.56389,1.36111 0,0.79722 0.56389,1.38056 0.58333,0.56389 1.38055,0.56389 l 1.94445,0 q 1.59444,0 2.74166,1.14722 1.14723,1.14722 1.14723,2.74167 z"
         style="font-size:17.5px"
         id="path4259"
         inkscape:connector-curvature="0" />
      <path
         d="m 296.59182,151.14196 -3.88889,0 0,11.66666 -1.94444,0 0,-11.66666 -3.88889,0 0,-1.94445 9.72222,0 0,1.94445 z"
         style="font-size:17.5px"
         id="path4261"
         inkscape:connector-curvature="0" />
      <path
         d="m 308.24709,158.91974 q 0,1.61388 -1.14722,2.76111 -1.12778,1.12777 -2.74166,1.12777 l -1.94445,0 q -1.61389,0 -2.76111,-1.12777 -1.12778,-1.14723 -1.12778,-2.76111 l 0,-9.72223 1.94445,0 0,9.72223 q 0,0.79722 0.56389,1.38055 0.58333,0.56389 1.38055,0.56389 l 1.94445,0 q 0.79722,0 1.36111,-0.56389 0.58333,-0.58333 0.58333,-1.38055 l 0,-9.72223 1.94444,0 0,9.72223 z"
         style="font-size:17.5px"
         id="path4263"
         inkscape:connector-curvature="0" />
      <path
         d="m 319.90237,153.0864 -4.86111,9.72222 -4.86111,-9.72222 0,-3.88889 1.94444,0 0,3.44167 2.91667,5.79444 2.91666,-5.83333 0,-3.40278 1.94445,0 0,3.88889 z"
         style="font-size:17.5px"
         id="path4265"
         inkscape:connector-curvature="0" />
      <path
         d="m 331.55764,162.80862 -1.45833,0 -3.40278,-3.40277 -3.40278,3.40277 -1.45833,0 0,-13.61111 1.94444,0 0,10.20834 1.94445,-1.94445 0,-2.43055 1.94444,0 0,2.43055 1.94445,1.94445 0,-10.20834 1.94444,0 0,13.61111 z"
         style="font-size:17.5px"
         id="path4267"
         inkscape:connector-curvature="0" />
      <path
         d="m 343.21291,162.80862 -1.94444,0 0,-2.54722 -2.91667,-2.91666 -2.91666,2.91666 0,2.54722 -1.94445,0 0,-3.28611 3.51945,-3.51944 -3.51945,-3.51945 0,-3.28611 1.94445,0 0,2.54723 2.91666,2.91666 2.91667,-2.91666 0,-2.54723 1.94444,0 0,3.28611 -3.51944,3.51945 3.51944,3.51944 0,3.28611 z"
         style="font-size:17.5px"
         id="path4269"
         inkscape:connector-curvature="0" />
      <path
         d="m 354.86819,154.42807 -3.88889,3.88889 0,4.49166 -1.94445,0 0,-4.49166 -3.88888,-3.88889 0,-5.23056 1.94444,0 0,4.49167 2.91667,2.91667 2.91666,-2.91667 0,-4.49167 1.94445,0 0,5.23056 z"
         style="font-size:17.5px"
         id="path4271"
         inkscape:connector-curvature="0" />
      <path
         d="m 366.52346,162.80862 -9.72222,0 0,-3.48055 7.77778,-7.75833 0,-0.42778 -7.77778,0 0,-1.94445 9.72222,0 0,3.15 -7.77778,7.77778 0,0.73889 7.77778,0 0,1.94444 z"
         style="font-size:17.5px"
         id="path4273"
         inkscape:connector-curvature="0" />
      <path
         d="m 75.141625,180.79474 q 0,1.61388 -1.147222,2.76111 -1.127778,1.12777 -2.741667,1.12777 l -1.944444,0 q -1.613889,0 -2.761111,-1.12777 -1.127778,-1.14723 -1.127778,-2.76111 l 0,-1.94445 q 0,-1.61389 1.127778,-2.74167 1.147222,-1.14722 2.761111,-1.14722 l 1.944444,0 q 1.594445,0 2.741667,1.14722 1.147222,1.14723 1.147222,2.74167 l 0,1.94445 z m -1.944444,0 0,-1.94445 q 0,-0.79722 -0.583333,-1.36111 -0.563889,-0.58333 -1.361112,-0.58333 l -1.944444,0 q -0.797222,0 -1.380556,0.58333 -0.563888,0.56389 -0.563888,1.36111 l 0,1.94445 q 0,0.79722 0.563888,1.38055 0.583334,0.56389 1.380556,0.56389 l 1.944444,0 q 0.797223,0 1.361112,-0.56389 0.583333,-0.58333 0.583333,-1.38055 z"
         style="font-size:17.5px"
         id="path4275"
         inkscape:connector-curvature="0" />
      <path
         d="m 86.796899,180.79474 q 0,1.61388 -1.147222,2.76111 -1.127778,1.12777 -2.741667,1.12777 l -1.944445,0 q -1.613888,0 -2.761111,-1.12777 -1.127777,-1.14723 -1.127777,-2.76111 l 0,-5.83334 q 0,-1.61389 1.127777,-2.74166 1.147223,-1.14723 2.761111,-1.14723 l 1.944445,0 q 1.613889,0 2.741667,1.14723 1.147222,1.14722 1.147222,2.74166 l 0,5.83334 z m -1.944445,0 0,-5.83334 q 0,-0.79722 -0.583333,-1.36111 -0.563889,-0.58333 -1.361111,-0.58333 l -1.944445,0 q -0.797222,0 -1.380555,0.58333 -0.563889,0.56389 -0.563889,1.36111 l 0,5.83334 q 0,0.79722 0.563889,1.38055 0.583333,0.56389 1.380555,0.56389 l 1.944445,0 q 0.797222,0 1.361111,-0.56389 0.583333,-0.58333 0.583333,-1.38055 z"
         style="font-size:17.5px"
         id="path4277"
         inkscape:connector-curvature="0" />
      <path
         d="m 98.452172,180.79474 q 0,1.61388 -1.147222,2.76111 -1.127778,1.12777 -2.741667,1.12777 l -1.944444,0 q -1.613889,0 -2.761111,-1.12777 -1.127778,-1.14723 -1.127778,-2.76111 l 0,-5.83334 q 0,-1.61389 1.127778,-2.74166 1.147222,-1.14723 2.761111,-1.14723 l 1.944444,0 q 1.613889,0 2.741667,1.14723 1.147222,1.14722 1.147222,2.74166 l 0,5.83334 z m -2.236111,-6.88334 q -0.583333,-0.89444 -1.652778,-0.89444 l -1.944444,0 q -0.797222,0 -1.380556,0.58333 -0.563889,0.56389 -0.563889,1.36111 l 0,4.49167 5.541667,-5.54167 z m 0.291667,6.88334 0,-4.45278 -5.502778,5.50278 q 0.583333,0.89444 1.613889,0.89444 l 1.944444,0 q 0.797223,0 1.361111,-0.56389 0.583334,-0.58333 0.583334,-1.38055 z"
         style="font-size:17.5px"
         id="path4279"
         inkscape:connector-curvature="0" />
      <path
         d="m 106.21856,171.07251 q 1.61389,0 2.74166,1.14723 1.14723,1.12777 1.14723,2.74166 0,1.75 -1.65278,2.91667 1.65278,1.16667 1.65278,2.91667 0,1.61388 -1.14723,2.76111 -1.12777,1.12777 -2.74166,1.12777 l -1.94445,0 q -1.61389,0 -2.76111,-1.12777 -1.12778,-1.14723 -1.12778,-2.76111 0,-1.75 1.65278,-2.91667 -1.65278,-1.16667 -1.65278,-2.91667 0,-1.61389 1.12778,-2.74166 1.14722,-1.14723 2.76111,-1.14723 l 1.94445,0 z m -1.94445,1.94445 q -0.81666,0 -1.38055,0.58333 -0.56389,0.56389 -0.56389,1.36111 0,0.79722 0.56389,1.38056 0.58333,0.56389 1.38055,0.56389 l 1.94445,0 q 0.79722,0 1.36111,-0.56389 0.58333,-0.58334 0.58333,-1.38056 0,-0.79722 -0.58333,-1.36111 -0.56389,-0.58333 -1.36111,-0.58333 l -1.94445,0 z m 1.94445,9.72222 q 0.81666,0 1.38055,-0.56389 0.56389,-0.58333 0.56389,-1.38055 0,-0.79723 -0.58333,-1.36112 -0.56389,-0.58333 -1.36111,-0.58333 l -1.94445,0 q -0.79722,0 -1.38055,0.58333 -0.56389,0.56389 -0.56389,1.36112 0,0.79722 0.56389,1.38055 0.58333,0.56389 1.38055,0.56389 l 1.94445,0 z"
         style="font-size:17.5px"
         id="path4281"
         inkscape:connector-curvature="0" />
      <path
         d="m 129.5291,172.04474 q 0,0.40833 -0.29166,0.7 -0.27223,0.27222 -0.68056,0.27222 -0.40833,0 -0.7,-0.27222 -0.27222,-0.29167 -0.27222,-0.7 0,-0.40834 0.27222,-0.68056 0.29167,-0.29167 0.7,-0.29167 0.40833,0 0.68056,0.29167 0.29166,0.27222 0.29166,0.68056 z m 1.94445,12.63888 -5.83334,0 0,-1.94444 1.94445,0 0,-5.83333 -1.94445,0 0,-1.94445 3.88889,0 0,7.77778 1.94445,0 0,1.94444 z"
         style="font-size:17.5px"
         id="path4283"
         inkscape:connector-curvature="0" />
      <path
         d="m 145.07327,184.68362 -9.72223,0 0,-1.94444 3.88889,0 0,-9.72222 -3.88889,0 0,-1.94445 9.72223,0 0,1.94445 -3.88889,0 0,9.72222 3.88889,0 0,1.94444 z"
         style="font-size:17.5px"
         id="path4285"
         inkscape:connector-curvature="0" />
      <path
         d="m 154.78409,184.68362 -5.83333,0 0,-1.94444 1.94445,0 0,-9.72222 -1.94445,0 0,-1.94445 3.88889,0 0,11.66667 1.94444,0 0,1.94444 z"
         style="font-size:17.5px"
         id="path4287"
         inkscape:connector-curvature="0" />
      <path
         d="m 168.38381,184.68362 -9.72222,0 0,-13.61111 1.94445,0 0,11.66667 7.77777,0 0,1.94444 z"
         style="font-size:17.5px"
         id="path4289"
         inkscape:connector-curvature="0" />
      <path
         d="m 180.03909,184.68362 -9.72223,0 0,-1.94444 3.88889,0 0,-7.77778 -2.91666,0 0,-1.94444 0.97222,0 q 0.79722,0 1.36111,-0.56389 0.58333,-0.58333 0.58333,-1.38056 l 1.94445,0 0,11.66667 3.88889,0 0,1.94444 z"
         style="font-size:17.5px"
         id="path4291"
         inkscape:connector-curvature="0" />
      <path
         d="m 201.40519,188.57251 q -1.61389,0 -2.76111,-1.01111 -1.12778,-0.99166 -1.12778,-2.39166 l 0,-4.375 q 0,-0.79723 -0.58333,-1.36112 -0.56389,-0.58333 -1.36111,-0.58333 l 0,-1.94444 q 0.79722,0 1.36111,-0.56389 0.58333,-0.58334 0.58333,-1.38056 l 0,-4.375 q 0,-1.4 1.12778,-2.39166 1.14722,-1.01112 2.76111,-1.01112 l 0,1.94445 q -0.79722,0 -1.38056,0.58333 -0.56389,0.56389 -0.56389,1.36111 l 0,4.86111 q 0,1.03056 -1.94444,1.82778 l 0,0.23334 q 1.94444,0.79722 1.94444,1.82777 l 0,4.86111 q 0,0.79723 0.56389,1.36112 0.58334,0.58333 1.38056,0.58333 l 0,1.94444 z"
         style="font-size:17.5px"
         id="path4293"
         inkscape:connector-curvature="0" />
      <path
         d="m 213.06046,178.85029 q -0.79722,0 -1.38055,0.58333 -0.56389,0.56389 -0.56389,1.36112 l 0,4.375 q 0,1.4 -1.14722,2.39166 -1.12778,1.01111 -2.74167,1.01111 l 0,-1.94444 q 0.79722,0 1.36111,-0.58333 0.58333,-0.56389 0.58333,-1.36112 l 0,-4.86111 q 0,-1.03055 1.94445,-1.82777 l 0,-0.23334 q -1.94445,-0.79722 -1.94445,-1.82778 l 0,-4.86111 q 0,-0.79722 -0.58333,-1.36111 -0.56389,-0.58333 -1.36111,-0.58333 l 0,-1.94445 q 1.61389,0 2.74167,1.01112 1.14722,0.99166 1.14722,2.39166 l 0,4.375 q 0,0.79722 0.56389,1.38056 0.58333,0.56389 1.38055,0.56389 l 0,1.94444 z"
         style="font-size:17.5px"
         id="path4295"
         inkscape:connector-curvature="0" />
      <path
         d="m 236.37101,186.62807 -3.88889,0 0,-17.5 3.88889,0 0,1.94444 -1.94445,0 0,13.61111 1.94445,0 0,1.94445 z"
         style="font-size:17.5px"
         id="path4297"
         inkscape:connector-curvature="0" />
      <path
         d="m 246.08184,186.62807 -3.88889,0 0,-1.94445 1.94444,0 0,-13.61111 -1.94444,0 0,-1.94444 3.88889,0 0,17.5 z"
         style="font-size:17.5px"
         id="path4299"
         inkscape:connector-curvature="0" />
      <path
         d="m 273.28127,184.68362 q 0,1.59445 -1.14722,2.74167 -1.12778,1.14722 -2.74167,1.14722 l -3.88888,0 0,-1.94444 3.88888,0 q 0.79723,0 1.36112,-0.58333 0.58333,-0.56389 0.58333,-1.36112 l -3.88889,0 q -1.61389,0 -2.76111,-1.12777 -1.12778,-1.14723 -1.12778,-2.76111 l 0,-1.94445 q 0,-1.61389 1.12778,-2.74167 1.14722,-1.14722 2.76111,-1.14722 l 5.83333,0 0,9.72222 z m -1.94444,-1.94444 0,-5.83333 -3.88889,0 q -0.79722,0 -1.38056,0.58333 -0.56388,0.56389 -0.56388,1.36111 l 0,1.94445 q 0,0.79722 0.56388,1.38055 0.58334,0.56389 1.38056,0.56389 l 3.88889,0 z"
         style="font-size:17.5px"
         id="path4301"
         inkscape:connector-curvature="0" />
      <path
         d="m 284.93655,180.79474 q 0,1.61388 -1.14723,2.76111 -1.12777,1.12777 -2.74166,1.12777 l -3.88889,0 0,-1.94444 3.88889,0 q 0.79722,0 1.36111,-0.56389 0.58333,-0.58333 0.58333,-1.38055 l -3.88889,0 q -1.61389,0 -2.76111,-1.12778 -1.12778,-1.14722 -1.12778,-2.76111 l 0,-1.94445 q 0,-1.61389 1.12778,-2.74166 1.14722,-1.14723 2.76111,-1.14723 l 1.94445,0 q 1.61389,0 2.74166,1.14723 1.14723,1.14722 1.14723,2.74166 l 0,5.83334 z m -1.94445,-1.94445 0,-3.88889 q 0,-0.79722 -0.58333,-1.36111 -0.56389,-0.58333 -1.36111,-0.58333 l -1.94445,0 q -0.79722,0 -1.38055,0.58333 -0.56389,0.56389 -0.56389,1.36111 l 0,1.94445 q 0,0.79722 0.56389,1.38055 0.58333,0.56389 1.38055,0.56389 l 3.88889,0 z"
         style="font-size:17.5px"
         id="path4303"
         inkscape:connector-curvature="0" />
      <path
         d="m 296.59182,188.57251 -1.94444,0 0,-3.88889 -3.88889,0 q -1.61389,0 -2.76111,-1.12777 -1.12778,-1.14723 -1.12778,-2.76111 l 0,-1.94445 q 0,-1.61389 1.12778,-2.74167 1.14722,-1.14722 2.76111,-1.14722 l 5.83333,0 0,13.61111 z m -1.94444,-5.83333 0,-5.83333 -3.88889,0 q -0.79722,0 -1.38056,0.58333 -0.56389,0.56389 -0.56389,1.36111 l 0,1.94445 q 0,0.79722 0.56389,1.38055 0.58334,0.56389 1.38056,0.56389 l 3.88889,0 z"
         style="font-size:17.5px"
         id="path4305"
         inkscape:connector-curvature="0" />
      <path
         d="m 308.24709,180.79474 q 0,1.61388 -1.14722,2.76111 -1.12778,1.12777 -2.74166,1.12777 l -1.94445,0 q -1.61389,0 -2.76111,-1.12777 -1.12778,-1.14723 -1.12778,-2.76111 l 0,-5.83334 q 0,-1.61389 1.12778,-2.74166 1.14722,-1.14723 2.76111,-1.14723 l 1.94445,0 q 1.61388,0 2.74166,1.14723 1.14722,1.14722 1.14722,2.74166 l -1.94444,0 q 0,-0.79722 -0.58333,-1.36111 -0.56389,-0.58333 -1.36111,-0.58333 l -1.94445,0 q -0.79722,0 -1.38055,0.58333 -0.56389,0.56389 -0.56389,1.36111 l 0,5.83334 q 0,0.79722 0.56389,1.38055 0.58333,0.56389 1.38055,0.56389 l 1.94445,0 q 0.79722,0 1.36111,-0.56389 0.58333,-0.58333 0.58333,-1.38055 l 1.94444,0 z"
         style="font-size:17.5px"
         id="path4307"
         inkscape:connector-curvature="0" />
      <path
         d="m 319.90237,180.79474 q 0,1.61388 -1.14722,2.76111 -1.12778,1.12777 -2.74167,1.12777 l -1.94445,0 q -1.61388,0 -2.76111,-1.12777 -1.12777,-1.14723 -1.12777,-2.76111 l 0,-5.83334 q 0,-1.61389 1.12777,-2.74166 1.14723,-1.14723 2.76111,-1.14723 l 1.94445,0 q 1.61389,0 2.74167,1.14723 1.14722,1.14722 1.14722,2.74166 l -1.94445,0 q 0,-0.79722 -0.58333,-1.36111 -0.56389,-0.58333 -1.36111,-0.58333 l -1.94445,0 q -0.79722,0 -1.38055,0.58333 -0.56389,0.56389 -0.56389,1.36111 l 0,5.83334 q 0,0.79722 0.56389,1.38055 0.58333,0.56389 1.38055,0.56389 l 1.94445,0 q 0.79722,0 1.36111,-0.56389 0.58333,-0.58333 0.58333,-1.38055 l 0,-1.94445 -1.94444,0 0,-1.94444 3.88889,0 0,3.88889 z"
         style="font-size:17.5px"
         id="path4309"
         inkscape:connector-curvature="0" />
      <path
         d="m 331.77153,185.44196 -1.38056,1.4 -2.17777,-2.19722 q -0.35,0.0389 -0.54445,0.0389 l -1.94444,0 q -1.61389,0 -2.76111,-1.12777 -1.12778,-1.14723 -1.12778,-2.76111 l 0,-5.83334 q 0,-1.61389 1.12778,-2.74166 1.14722,-1.14723 2.76111,-1.14723 l 1.94444,0 q 1.61389,0 2.74167,1.14723 1.14722,1.14722 1.14722,2.74166 l 0,5.83334 q 0,1.86666 -1.43889,3.01388 l 1.65278,1.63334 z m -2.15833,-4.64722 0,-5.83334 q 0,-0.79722 -0.58334,-1.36111 -0.56389,-0.58333 -1.36111,-0.58333 l -1.94444,0 q -0.79722,0 -1.38056,0.58333 -0.56389,0.56389 -0.56389,1.36111 l 0,5.83334 q 0,0.81666 0.56389,1.4 0.58334,0.56388 1.38056,0.54444 l 0.56389,-0.0194 -0.75834,-0.75834 1.38056,-1.36111 1.82778,1.82778 q 0.875,-0.58333 0.875,-1.63333 z"
         style="font-size:17.5px"
         id="path4311"
         inkscape:connector-curvature="0" />
      <path
         d="m 354.86819,175.93362 q 0,1.20556 -0.85556,2.06112 -0.85555,0.85555 -2.06111,0.85555 -1.20555,0 -1.94444,-0.73889 -1.20556,-1.20555 -1.94445,-1.20555 -0.40833,0 -0.7,0.29166 -0.27222,0.27223 -0.27222,0.68056 l 0,0.97222 -1.94444,0 0,-0.97222 q 0,-1.20556 0.85555,-2.06111 0.85556,-0.85556 2.06111,-0.85556 1.225,0 1.94445,0.71945 1.225,1.225 1.94444,1.225 0.40833,0 0.68056,-0.27223 0.29166,-0.29166 0.29166,-0.7 l 0,-0.97222 1.94445,0 0,0.97222 z"
         style="font-size:17.5px"
         id="path4313"
         inkscape:connector-curvature="0" />
      <path
         d="m 366.52346,178.85029 -9.72222,0 0,-1.94444 9.72222,0 0,1.94444 z"
         style="font-size:17.5px"
         id="path4315"
         inkscape:connector-curvature="0" />
      <path
         d="m 378.17873,178.85029 -3.88888,0 0,3.88889 -1.94445,0 0,-3.88889 -3.88889,0 0,-1.94444 3.88889,0 0,-3.88889 1.94445,0 0,3.88889 3.88888,0 0,1.94444 z"
         style="font-size:17.5px"
         id="path4317"
         inkscape:connector-curvature="0" />
      <path
         d="m 389.83401,176.90585 -9.72222,0 0,-1.94445 9.72222,0 0,1.94445 z m 0,3.88889 -9.72222,0 0,-1.94445 9.72222,0 0,1.94445 z"
         style="font-size:17.5px"
         id="path4319"
         inkscape:connector-curvature="0" />
      <path
         d="m 401.89761,177.87807 -7.21388,7.175 -1.34167,-1.34167 5.79444,-5.83333 -5.91111,-5.95 1.34167,-1.34167 7.33055,7.29167 z"
         style="font-size:17.5px"
         id="path4321"
         inkscape:connector-curvature="0" />
    </g>
  </g>
</svg>
