<?xml version="1.0" encoding="UTF-8" standalone="no"?>
<!-- Created with Inkscape (http://www.inkscape.org/) -->

<svg
   xmlns:dc="http://purl.org/dc/elements/1.1/"
   xmlns:cc="http://creativecommons.org/ns#"
   xmlns:rdf="http://www.w3.org/1999/02/22-rdf-syntax-ns#"
   xmlns:svg="http://www.w3.org/2000/svg"
   xmlns="http://www.w3.org/2000/svg"
   xmlns:sodipodi="http://sodipodi.sourceforge.net/DTD/sodipodi-0.dtd"
   xmlns:inkscape="http://www.inkscape.org/namespaces/inkscape"
   width="70.335068mm"
   height="28.927774mm"
   viewBox="0 0 249.21874 102.49999"
   id="svg2"
   version="1.1"
   inkscape:version="0.91 r13725"
   sodipodi:docname="ProggyClean Nerd Font.svg">
  <defs
     id="defs4" />
  <sodipodi:namedview
     id="base"
     pagecolor="#ffffff"
     bordercolor="#666666"
     borderopacity="1.0"
     inkscape:pageopacity="0.0"
     inkscape:pageshadow="2"
     inkscape:zoom="0.7"
     inkscape:cx="-54.575897"
     inkscape:cy="-401.54019"
     inkscape:document-units="px"
     inkscape:current-layer="layer1"
     showgrid="false"
     inkscape:window-width="1861"
     inkscape:window-height="1056"
     inkscape:window-x="59"
     inkscape:window-y="24"
     inkscape:window-maximized="1" />
  <metadata
     id="metadata7">
    <rdf:RDF>
      <cc:Work
         rdf:about="">
        <dc:format>image/svg+xml</dc:format>
        <dc:type
           rdf:resource="http://purl.org/dc/dcmitype/StillImage" />
        <dc:title />
      </cc:Work>
    </rdf:RDF>
  </metadata>
  <g
     inkscape:label="Layer 1"
     inkscape:groupmode="layer"
     id="layer1"
     transform="translate(-64.575893,-85.464882)">
    <g
       style="font-style:normal;font-weight:normal;font-size:27.5px;line-height:125%;font-family:'ProggyCleanTT Nerd Font';text-decoration: underline;text-decoration-line: underline;letter-spacing:0px;word-spacing:0px;fill:#ffffff;fill-opacity:1;stroke:none;stroke-width:1px;stroke-linecap:butt;stroke-linejoin:miter;stroke-opacity:1"
       id="text4136">
      <path
         d="m 64.575893,88.902382 0,-1.71875 1.71875,0 0,1.71875 -1.71875,0 z m 1.71875,0 0,-1.71875 1.71875,0 0,1.71875 -1.71875,0 z m 1.71875,0 0,-1.71875 1.71875,0 0,1.71875 -1.71875,0 z m 1.71875,0 0,-1.71875 1.71875,0 0,1.71875 -1.71875,0 z m -5.15625,1.71875 0,-1.71875 1.71875,0 0,1.71875 -1.71875,0 z m 6.875,0 0,-1.71875 1.71875,0 0,1.71875 -1.71875,0 z m -6.875,1.71875 0,-1.71875 1.71875,0 0,1.71875 -1.71875,0 z m 6.875,0 0,-1.71875 1.71875,0 0,1.71875 -1.71875,0 z m -6.875,1.71875 0,-1.71875 1.71875,0 0,1.71875 -1.71875,0 z m 6.875,0 0,-1.71875 1.71875,0 0,1.71875 -1.71875,0 z m -6.875,1.71875 0,-1.71875 1.71875,0 0,1.71875 -1.71875,0 z m 1.71875,0 0,-1.71875 1.71875,0 0,1.71875 -1.71875,0 z m 1.71875,0 0,-1.71875 1.71875,0 0,1.71875 -1.71875,0 z m 1.71875,0 0,-1.71875 1.71875,0 0,1.71875 -1.71875,0 z m -5.15625,1.71875 0,-1.71875 1.71875,0 0,1.71875 -1.71875,0 z m 0,1.71875 0,-1.71875 1.71875,0 0,1.71875 -1.71875,0 z m 0,1.718748 0,-1.718748 1.71875,0 0,1.718748 -1.71875,0 z"
         id="path4140"
         inkscape:connector-curvature="0" />
      <path
         d="m 76.607143,92.339882 0,-1.71875 1.71875,0 0,1.71875 -1.71875,0 z m 3.4375,0 0,-1.71875 1.71875,0 0,1.71875 -1.71875,0 z m 1.71875,0 0,-1.71875 1.71875,0 0,1.71875 -1.71875,0 z m -5.15625,1.71875 0,-1.71875 1.71875,0 0,1.71875 -1.71875,0 z m 1.71875,0 0,-1.71875 1.71875,0 0,1.71875 -1.71875,0 z m 5.15625,0 0,-1.71875 1.71875,0 0,1.71875 -1.71875,0 z m -6.875,1.71875 0,-1.71875 1.71875,0 0,1.71875 -1.71875,0 z m 0,1.71875 0,-1.71875 1.71875,0 0,1.71875 -1.71875,0 z m 0,1.71875 0,-1.71875 1.71875,0 0,1.71875 -1.71875,0 z m 0,1.718748 0,-1.718748 1.71875,0 0,1.718748 -1.71875,0 z"
         id="path4142"
         inkscape:connector-curvature="0" />
      <path
         d="m 90.357143,92.339882 0,-1.71875 1.71875,0 0,1.71875 -1.71875,0 z m 1.71875,0 0,-1.71875 1.71875,0 0,1.71875 -1.71875,0 z m 1.71875,0 0,-1.71875 1.71875,0 0,1.71875 -1.71875,0 z m -5.15625,1.71875 0,-1.71875 1.71875,0 0,1.71875 -1.71875,0 z m 6.875,0 0,-1.71875 1.71875,0 0,1.71875 -1.71875,0 z m -6.875,1.71875 0,-1.71875 1.71875,0 0,1.71875 -1.71875,0 z m 6.875,0 0,-1.71875 1.71875,0 0,1.71875 -1.71875,0 z m -6.875,1.71875 0,-1.71875 1.71875,0 0,1.71875 -1.71875,0 z m 6.875,0 0,-1.71875 1.71875,0 0,1.71875 -1.71875,0 z m -6.875,1.71875 0,-1.71875 1.71875,0 0,1.71875 -1.71875,0 z m 6.875,0 0,-1.71875 1.71875,0 0,1.71875 -1.71875,0 z m -5.15625,1.718748 0,-1.718748 1.71875,0 0,1.718748 -1.71875,0 z m 1.71875,0 0,-1.718748 1.71875,0 0,1.718748 -1.71875,0 z m 1.71875,0 0,-1.718748 1.71875,0 0,1.718748 -1.71875,0 z"
         id="path4144"
         inkscape:connector-curvature="0" />
      <path
         d="m 102.38839,92.339882 0,-1.71875 1.71875,0 0,1.71875 -1.71875,0 z m 1.71875,0 0,-1.71875 1.71875,0 0,1.71875 -1.71875,0 z m 1.71875,0 0,-1.71875 1.71875,0 0,1.71875 -1.71875,0 z m 1.71875,0 0,-1.71875 1.71875,0 0,1.71875 -1.71875,0 z m -6.875,1.71875 0,-1.71875 1.71875,0 0,1.71875 -1.71875,0 z m 6.875,0 0,-1.71875 1.71875,0 0,1.71875 -1.71875,0 z m -6.875,1.71875 0,-1.71875 1.71875,0 0,1.71875 -1.71875,0 z m 6.875,0 0,-1.71875 1.71875,0 0,1.71875 -1.71875,0 z m -6.875,1.71875 0,-1.71875 1.71875,0 0,1.71875 -1.71875,0 z m 6.875,0 0,-1.71875 1.71875,0 0,1.71875 -1.71875,0 z m -6.875,1.71875 0,-1.71875 1.71875,0 0,1.71875 -1.71875,0 z m 6.875,0 0,-1.71875 1.71875,0 0,1.71875 -1.71875,0 z m -5.15625,1.718748 0,-1.718748 1.71875,0 0,1.718748 -1.71875,0 z m 1.71875,0 0,-1.718748 1.71875,0 0,1.718748 -1.71875,0 z m 1.71875,0 0,-1.718748 1.71875,0 0,1.718748 -1.71875,0 z m 1.71875,0 0,-1.718748 1.71875,0 0,1.718748 -1.71875,0 z m 0,1.71875 0,-1.71875 1.71875,0 0,1.71875 -1.71875,0 z m 0,1.71875 0,-1.71875 1.71875,0 0,1.71875 -1.71875,0 z m -5.15625,1.71875 0,-1.71875 1.71875,0 0,1.71875 -1.71875,0 z m 1.71875,0 0,-1.71875 1.71875,0 0,1.71875 -1.71875,0 z m 1.71875,0 0,-1.71875 1.71875,0 0,1.71875 -1.71875,0 z"
         id="path4146"
         inkscape:connector-curvature="0" />
      <path
         d="m 114.41964,92.339882 0,-1.71875 1.71875,0 0,1.71875 -1.71875,0 z m 1.71875,0 0,-1.71875 1.71875,0 0,1.71875 -1.71875,0 z m 1.71875,0 0,-1.71875 1.71875,0 0,1.71875 -1.71875,0 z m 1.71875,0 0,-1.71875 1.71875,0 0,1.71875 -1.71875,0 z m -6.875,1.71875 0,-1.71875 1.71875,0 0,1.71875 -1.71875,0 z m 6.875,0 0,-1.71875 1.71875,0 0,1.71875 -1.71875,0 z m -6.875,1.71875 0,-1.71875 1.71875,0 0,1.71875 -1.71875,0 z m 6.875,0 0,-1.71875 1.71875,0 0,1.71875 -1.71875,0 z m -6.875,1.71875 0,-1.71875 1.71875,0 0,1.71875 -1.71875,0 z m 6.875,0 0,-1.71875 1.71875,0 0,1.71875 -1.71875,0 z m -6.875,1.71875 0,-1.71875 1.71875,0 0,1.71875 -1.71875,0 z m 6.875,0 0,-1.71875 1.71875,0 0,1.71875 -1.71875,0 z m -5.15625,1.718748 0,-1.718748 1.71875,0 0,1.718748 -1.71875,0 z m 1.71875,0 0,-1.718748 1.71875,0 0,1.718748 -1.71875,0 z m 1.71875,0 0,-1.718748 1.71875,0 0,1.718748 -1.71875,0 z m 1.71875,0 0,-1.718748 1.71875,0 0,1.718748 -1.71875,0 z m 0,1.71875 0,-1.71875 1.71875,0 0,1.71875 -1.71875,0 z m 0,1.71875 0,-1.71875 1.71875,0 0,1.71875 -1.71875,0 z m -5.15625,1.71875 0,-1.71875 1.71875,0 0,1.71875 -1.71875,0 z m 1.71875,0 0,-1.71875 1.71875,0 0,1.71875 -1.71875,0 z m 1.71875,0 0,-1.71875 1.71875,0 0,1.71875 -1.71875,0 z"
         id="path4148"
         inkscape:connector-curvature="0" />
      <path
         d="m 124.73214,92.339882 0,-1.71875 1.71875,0 0,1.71875 -1.71875,0 z m 6.875,0 0,-1.71875 1.71875,0 0,1.71875 -1.71875,0 z m -6.875,1.71875 0,-1.71875 1.71875,0 0,1.71875 -1.71875,0 z m 6.875,0 0,-1.71875 1.71875,0 0,1.71875 -1.71875,0 z m -6.875,1.71875 0,-1.71875 1.71875,0 0,1.71875 -1.71875,0 z m 6.875,0 0,-1.71875 1.71875,0 0,1.71875 -1.71875,0 z m -6.875,1.71875 0,-1.71875 1.71875,0 0,1.71875 -1.71875,0 z m 6.875,0 0,-1.71875 1.71875,0 0,1.71875 -1.71875,0 z m -6.875,1.71875 0,-1.71875 1.71875,0 0,1.71875 -1.71875,0 z m 6.875,0 0,-1.71875 1.71875,0 0,1.71875 -1.71875,0 z m -5.15625,1.718748 0,-1.718748 1.71875,0 0,1.718748 -1.71875,0 z m 1.71875,0 0,-1.718748 1.71875,0 0,1.718748 -1.71875,0 z m 1.71875,0 0,-1.718748 1.71875,0 0,1.718748 -1.71875,0 z m 1.71875,0 0,-1.718748 1.71875,0 0,1.718748 -1.71875,0 z m 0,1.71875 0,-1.71875 1.71875,0 0,1.71875 -1.71875,0 z m 0,1.71875 0,-1.71875 1.71875,0 0,1.71875 -1.71875,0 z m -5.15625,1.71875 0,-1.71875 1.71875,0 0,1.71875 -1.71875,0 z m 1.71875,0 0,-1.71875 1.71875,0 0,1.71875 -1.71875,0 z m 1.71875,0 0,-1.71875 1.71875,0 0,1.71875 -1.71875,0 z"
         id="path4150"
         inkscape:connector-curvature="0" />
      <path
         d="m 140.20089,88.902382 0,-1.71875 1.71875,0 0,1.71875 -1.71875,0 z m 1.71875,0 0,-1.71875 1.71875,0 0,1.71875 -1.71875,0 z m 1.71875,0 0,-1.71875 1.71875,0 0,1.71875 -1.71875,0 z m -5.15625,1.71875 0,-1.71875 1.71875,0 0,1.71875 -1.71875,0 z m 6.875,0 0,-1.71875 1.71875,0 0,1.71875 -1.71875,0 z m -8.59375,1.71875 0,-1.71875 1.71875,0 0,1.71875 -1.71875,0 z m 0,1.71875 0,-1.71875 1.71875,0 0,1.71875 -1.71875,0 z m 0,1.71875 0,-1.71875 1.71875,0 0,1.71875 -1.71875,0 z m 0,1.71875 0,-1.71875 1.71875,0 0,1.71875 -1.71875,0 z m 1.71875,1.71875 0,-1.71875 1.71875,0 0,1.71875 -1.71875,0 z m 6.875,0 0,-1.71875 1.71875,0 0,1.71875 -1.71875,0 z m -5.15625,1.718748 0,-1.718748 1.71875,0 0,1.718748 -1.71875,0 z m 1.71875,0 0,-1.718748 1.71875,0 0,1.718748 -1.71875,0 z m 1.71875,0 0,-1.718748 1.71875,0 0,1.718748 -1.71875,0 z"
         id="path4152"
         inkscape:connector-curvature="0" />
      <path
         d="m 150.51339,87.183632 0,-1.71875 1.71875,0 0,1.71875 -1.71875,0 z m 1.71875,0 0,-1.71875 1.71875,0 0,1.71875 -1.71875,0 z m 0,1.71875 0,-1.71875 1.71875,0 0,1.71875 -1.71875,0 z m 0,1.71875 0,-1.71875 1.71875,0 0,1.71875 -1.71875,0 z m 0,1.71875 0,-1.71875 1.71875,0 0,1.71875 -1.71875,0 z m 0,1.71875 0,-1.71875 1.71875,0 0,1.71875 -1.71875,0 z m 0,1.71875 0,-1.71875 1.71875,0 0,1.71875 -1.71875,0 z m 0,1.71875 0,-1.71875 1.71875,0 0,1.71875 -1.71875,0 z m 0,1.71875 0,-1.71875 1.71875,0 0,1.71875 -1.71875,0 z m 0,1.718748 0,-1.718748 1.71875,0 0,1.718748 -1.71875,0 z"
         id="path4154"
         inkscape:connector-curvature="0" />
      <path
         d="m 162.54464,92.339882 0,-1.71875 1.71875,0 0,1.71875 -1.71875,0 z m 1.71875,0 0,-1.71875 1.71875,0 0,1.71875 -1.71875,0 z m 1.71875,0 0,-1.71875 1.71875,0 0,1.71875 -1.71875,0 z m -5.15625,1.71875 0,-1.71875 1.71875,0 0,1.71875 -1.71875,0 z m 6.875,0 0,-1.71875 1.71875,0 0,1.71875 -1.71875,0 z m -6.875,1.71875 0,-1.71875 1.71875,0 0,1.71875 -1.71875,0 z m 1.71875,0 0,-1.71875 1.71875,0 0,1.71875 -1.71875,0 z m 1.71875,0 0,-1.71875 1.71875,0 0,1.71875 -1.71875,0 z m 1.71875,0 0,-1.71875 1.71875,0 0,1.71875 -1.71875,0 z m 1.71875,0 0,-1.71875 1.71875,0 0,1.71875 -1.71875,0 z m -6.875,1.71875 0,-1.71875 1.71875,0 0,1.71875 -1.71875,0 z m 0,1.71875 0,-1.71875 1.71875,0 0,1.71875 -1.71875,0 z m 6.875,0 0,-1.71875 1.71875,0 0,1.71875 -1.71875,0 z m -5.15625,1.718748 0,-1.718748 1.71875,0 0,1.718748 -1.71875,0 z m 1.71875,0 0,-1.718748 1.71875,0 0,1.718748 -1.71875,0 z m 1.71875,0 0,-1.718748 1.71875,0 0,1.718748 -1.71875,0 z"
         id="path4156"
         inkscape:connector-curvature="0" />
      <path
         d="m 174.57589,92.339882 0,-1.71875 1.71875,0 0,1.71875 -1.71875,0 z m 1.71875,0 0,-1.71875 1.71875,0 0,1.71875 -1.71875,0 z m 1.71875,0 0,-1.71875 1.71875,0 0,1.71875 -1.71875,0 z m 1.71875,1.71875 0,-1.71875 1.71875,0 0,1.71875 -1.71875,0 z m -5.15625,1.71875 0,-1.71875 1.71875,0 0,1.71875 -1.71875,0 z m 1.71875,0 0,-1.71875 1.71875,0 0,1.71875 -1.71875,0 z m 1.71875,0 0,-1.71875 1.71875,0 0,1.71875 -1.71875,0 z m 1.71875,0 0,-1.71875 1.71875,0 0,1.71875 -1.71875,0 z m -6.875,1.71875 0,-1.71875 1.71875,0 0,1.71875 -1.71875,0 z m 6.875,0 0,-1.71875 1.71875,0 0,1.71875 -1.71875,0 z m -6.875,1.71875 0,-1.71875 1.71875,0 0,1.71875 -1.71875,0 z m 6.875,0 0,-1.71875 1.71875,0 0,1.71875 -1.71875,0 z m -5.15625,1.718748 0,-1.718748 1.71875,0 0,1.718748 -1.71875,0 z m 1.71875,0 0,-1.718748 1.71875,0 0,1.718748 -1.71875,0 z m 1.71875,0 0,-1.718748 1.71875,0 0,1.718748 -1.71875,0 z m 1.71875,0 0,-1.718748 1.71875,0 0,1.718748 -1.71875,0 z"
         id="path4158"
         inkscape:connector-curvature="0" />
      <path
         d="m 184.88839,92.339882 0,-1.71875 1.71875,0 0,1.71875 -1.71875,0 z m 1.71875,0 0,-1.71875 1.71875,0 0,1.71875 -1.71875,0 z m 1.71875,0 0,-1.71875 1.71875,0 0,1.71875 -1.71875,0 z m 1.71875,0 0,-1.71875 1.71875,0 0,1.71875 -1.71875,0 z m -5.15625,1.71875 0,-1.71875 1.71875,0 0,1.71875 -1.71875,0 z m 6.875,0 0,-1.71875 1.71875,0 0,1.71875 -1.71875,0 z m -6.875,1.71875 0,-1.71875 1.71875,0 0,1.71875 -1.71875,0 z m 6.875,0 0,-1.71875 1.71875,0 0,1.71875 -1.71875,0 z m -6.875,1.71875 0,-1.71875 1.71875,0 0,1.71875 -1.71875,0 z m 6.875,0 0,-1.71875 1.71875,0 0,1.71875 -1.71875,0 z m -6.875,1.71875 0,-1.71875 1.71875,0 0,1.71875 -1.71875,0 z m 6.875,0 0,-1.71875 1.71875,0 0,1.71875 -1.71875,0 z m -6.875,1.718748 0,-1.718748 1.71875,0 0,1.718748 -1.71875,0 z m 6.875,0 0,-1.718748 1.71875,0 0,1.718748 -1.71875,0 z"
         id="path4160"
         inkscape:connector-curvature="0" />
      <path
         d="m 208.95089,88.902382 0,-1.71875 1.71875,0 0,1.71875 -1.71875,0 z m 1.71875,0 0,-1.71875 1.71875,0 0,1.71875 -1.71875,0 z m 6.875,0 0,-1.71875 1.71875,0 0,1.71875 -1.71875,0 z m -8.59375,1.71875 0,-1.71875 1.71875,0 0,1.71875 -1.71875,0 z m 1.71875,0 0,-1.71875 1.71875,0 0,1.71875 -1.71875,0 z m 6.875,0 0,-1.71875 1.71875,0 0,1.71875 -1.71875,0 z m -8.59375,1.71875 0,-1.71875 1.71875,0 0,1.71875 -1.71875,0 z m 3.4375,0 0,-1.71875 1.71875,0 0,1.71875 -1.71875,0 z m 5.15625,0 0,-1.71875 1.71875,0 0,1.71875 -1.71875,0 z m -8.59375,1.71875 0,-1.71875 1.71875,0 0,1.71875 -1.71875,0 z m 3.4375,0 0,-1.71875 1.71875,0 0,1.71875 -1.71875,0 z m 5.15625,0 0,-1.71875 1.71875,0 0,1.71875 -1.71875,0 z m -8.59375,1.71875 0,-1.71875 1.71875,0 0,1.71875 -1.71875,0 z m 5.15625,0 0,-1.71875 1.71875,0 0,1.71875 -1.71875,0 z m 3.4375,0 0,-1.71875 1.71875,0 0,1.71875 -1.71875,0 z m -8.59375,1.71875 0,-1.71875 1.71875,0 0,1.71875 -1.71875,0 z m 5.15625,0 0,-1.71875 1.71875,0 0,1.71875 -1.71875,0 z m 3.4375,0 0,-1.71875 1.71875,0 0,1.71875 -1.71875,0 z m -8.59375,1.71875 0,-1.71875 1.71875,0 0,1.71875 -1.71875,0 z m 6.875,0 0,-1.71875 1.71875,0 0,1.71875 -1.71875,0 z m 1.71875,0 0,-1.71875 1.71875,0 0,1.71875 -1.71875,0 z m -8.59375,1.718748 0,-1.718748 1.71875,0 0,1.718748 -1.71875,0 z m 6.875,0 0,-1.718748 1.71875,0 0,1.718748 -1.71875,0 z m 1.71875,0 0,-1.718748 1.71875,0 0,1.718748 -1.71875,0 z"
         id="path4162"
         inkscape:connector-curvature="0" />
      <path
         d="m 222.70089,92.339882 0,-1.71875 1.71875,0 0,1.71875 -1.71875,0 z m 1.71875,0 0,-1.71875 1.71875,0 0,1.71875 -1.71875,0 z m 1.71875,0 0,-1.71875 1.71875,0 0,1.71875 -1.71875,0 z m -5.15625,1.71875 0,-1.71875 1.71875,0 0,1.71875 -1.71875,0 z m 6.875,0 0,-1.71875 1.71875,0 0,1.71875 -1.71875,0 z m -6.875,1.71875 0,-1.71875 1.71875,0 0,1.71875 -1.71875,0 z m 1.71875,0 0,-1.71875 1.71875,0 0,1.71875 -1.71875,0 z m 1.71875,0 0,-1.71875 1.71875,0 0,1.71875 -1.71875,0 z m 1.71875,0 0,-1.71875 1.71875,0 0,1.71875 -1.71875,0 z m 1.71875,0 0,-1.71875 1.71875,0 0,1.71875 -1.71875,0 z m -6.875,1.71875 0,-1.71875 1.71875,0 0,1.71875 -1.71875,0 z m 0,1.71875 0,-1.71875 1.71875,0 0,1.71875 -1.71875,0 z m 6.875,0 0,-1.71875 1.71875,0 0,1.71875 -1.71875,0 z m -5.15625,1.718748 0,-1.718748 1.71875,0 0,1.718748 -1.71875,0 z m 1.71875,0 0,-1.718748 1.71875,0 0,1.718748 -1.71875,0 z m 1.71875,0 0,-1.718748 1.71875,0 0,1.718748 -1.71875,0 z"
         id="path4164"
         inkscape:connector-curvature="0" />
      <path
         d="m 233.01339,92.339882 0,-1.71875 1.71875,0 0,1.71875 -1.71875,0 z m 3.4375,0 0,-1.71875 1.71875,0 0,1.71875 -1.71875,0 z m 1.71875,0 0,-1.71875 1.71875,0 0,1.71875 -1.71875,0 z m -5.15625,1.71875 0,-1.71875 1.71875,0 0,1.71875 -1.71875,0 z m 1.71875,0 0,-1.71875 1.71875,0 0,1.71875 -1.71875,0 z m 5.15625,0 0,-1.71875 1.71875,0 0,1.71875 -1.71875,0 z m -6.875,1.71875 0,-1.71875 1.71875,0 0,1.71875 -1.71875,0 z m 0,1.71875 0,-1.71875 1.71875,0 0,1.71875 -1.71875,0 z m 0,1.71875 0,-1.71875 1.71875,0 0,1.71875 -1.71875,0 z m 0,1.718748 0,-1.718748 1.71875,0 0,1.718748 -1.71875,0 z"
         id="path4166"
         inkscape:connector-curvature="0" />
      <path
         d="m 251.91964,87.183632 0,-1.71875 1.71875,0 0,1.71875 -1.71875,0 z m 0,1.71875 0,-1.71875 1.71875,0 0,1.71875 -1.71875,0 z m 0,1.71875 0,-1.71875 1.71875,0 0,1.71875 -1.71875,0 z m -5.15625,1.71875 0,-1.71875 1.71875,0 0,1.71875 -1.71875,0 z m 1.71875,0 0,-1.71875 1.71875,0 0,1.71875 -1.71875,0 z m 1.71875,0 0,-1.71875 1.71875,0 0,1.71875 -1.71875,0 z m 1.71875,0 0,-1.71875 1.71875,0 0,1.71875 -1.71875,0 z m -6.875,1.71875 0,-1.71875 1.71875,0 0,1.71875 -1.71875,0 z m 6.875,0 0,-1.71875 1.71875,0 0,1.71875 -1.71875,0 z m -6.875,1.71875 0,-1.71875 1.71875,0 0,1.71875 -1.71875,0 z m 6.875,0 0,-1.71875 1.71875,0 0,1.71875 -1.71875,0 z m -6.875,1.71875 0,-1.71875 1.71875,0 0,1.71875 -1.71875,0 z m 6.875,0 0,-1.71875 1.71875,0 0,1.71875 -1.71875,0 z m -6.875,1.71875 0,-1.71875 1.71875,0 0,1.71875 -1.71875,0 z m 6.875,0 0,-1.71875 1.71875,0 0,1.71875 -1.71875,0 z m -5.15625,1.718748 0,-1.718748 1.71875,0 0,1.718748 -1.71875,0 z m 1.71875,0 0,-1.718748 1.71875,0 0,1.718748 -1.71875,0 z m 1.71875,0 0,-1.718748 1.71875,0 0,1.718748 -1.71875,0 z m 1.71875,0 0,-1.718748 1.71875,0 0,1.718748 -1.71875,0 z"
         id="path4168"
         inkscape:connector-curvature="0" />
      <path
         d="m 269.10714,88.902382 0,-1.71875 1.71875,0 0,1.71875 -1.71875,0 z m 1.71875,0 0,-1.71875 1.71875,0 0,1.71875 -1.71875,0 z m 1.71875,0 0,-1.71875 1.71875,0 0,1.71875 -1.71875,0 z m 1.71875,0 0,-1.71875 1.71875,0 0,1.71875 -1.71875,0 z m 1.71875,0 0,-1.71875 1.71875,0 0,1.71875 -1.71875,0 z m -6.875,1.71875 0,-1.71875 1.71875,0 0,1.71875 -1.71875,0 z m 0,1.71875 0,-1.71875 1.71875,0 0,1.71875 -1.71875,0 z m 0,1.71875 0,-1.71875 1.71875,0 0,1.71875 -1.71875,0 z m 1.71875,0 0,-1.71875 1.71875,0 0,1.71875 -1.71875,0 z m 1.71875,0 0,-1.71875 1.71875,0 0,1.71875 -1.71875,0 z m 1.71875,0 0,-1.71875 1.71875,0 0,1.71875 -1.71875,0 z m -5.15625,1.71875 0,-1.71875 1.71875,0 0,1.71875 -1.71875,0 z m 0,1.71875 0,-1.71875 1.71875,0 0,1.71875 -1.71875,0 z m 0,1.71875 0,-1.71875 1.71875,0 0,1.71875 -1.71875,0 z m 0,1.718748 0,-1.718748 1.71875,0 0,1.718748 -1.71875,0 z"
         id="path4170"
         inkscape:connector-curvature="0" />
      <path
         d="m 282.85714,92.339882 0,-1.71875 1.71875,0 0,1.71875 -1.71875,0 z m 1.71875,0 0,-1.71875 1.71875,0 0,1.71875 -1.71875,0 z m 1.71875,0 0,-1.71875 1.71875,0 0,1.71875 -1.71875,0 z m -5.15625,1.71875 0,-1.71875 1.71875,0 0,1.71875 -1.71875,0 z m 6.875,0 0,-1.71875 1.71875,0 0,1.71875 -1.71875,0 z m -6.875,1.71875 0,-1.71875 1.71875,0 0,1.71875 -1.71875,0 z m 6.875,0 0,-1.71875 1.71875,0 0,1.71875 -1.71875,0 z m -6.875,1.71875 0,-1.71875 1.71875,0 0,1.71875 -1.71875,0 z m 6.875,0 0,-1.71875 1.71875,0 0,1.71875 -1.71875,0 z m -6.875,1.71875 0,-1.71875 1.71875,0 0,1.71875 -1.71875,0 z m 6.875,0 0,-1.71875 1.71875,0 0,1.71875 -1.71875,0 z m -5.15625,1.718748 0,-1.718748 1.71875,0 0,1.718748 -1.71875,0 z m 1.71875,0 0,-1.718748 1.71875,0 0,1.718748 -1.71875,0 z m 1.71875,0 0,-1.718748 1.71875,0 0,1.718748 -1.71875,0 z"
         id="path4172"
         inkscape:connector-curvature="0" />
      <path
         d="m 293.16964,92.339882 0,-1.71875 1.71875,0 0,1.71875 -1.71875,0 z m 1.71875,0 0,-1.71875 1.71875,0 0,1.71875 -1.71875,0 z m 1.71875,0 0,-1.71875 1.71875,0 0,1.71875 -1.71875,0 z m 1.71875,0 0,-1.71875 1.71875,0 0,1.71875 -1.71875,0 z m -5.15625,1.71875 0,-1.71875 1.71875,0 0,1.71875 -1.71875,0 z m 6.875,0 0,-1.71875 1.71875,0 0,1.71875 -1.71875,0 z m -6.875,1.71875 0,-1.71875 1.71875,0 0,1.71875 -1.71875,0 z m 6.875,0 0,-1.71875 1.71875,0 0,1.71875 -1.71875,0 z m -6.875,1.71875 0,-1.71875 1.71875,0 0,1.71875 -1.71875,0 z m 6.875,0 0,-1.71875 1.71875,0 0,1.71875 -1.71875,0 z m -6.875,1.71875 0,-1.71875 1.71875,0 0,1.71875 -1.71875,0 z m 6.875,0 0,-1.71875 1.71875,0 0,1.71875 -1.71875,0 z m -6.875,1.718748 0,-1.718748 1.71875,0 0,1.718748 -1.71875,0 z m 6.875,0 0,-1.718748 1.71875,0 0,1.718748 -1.71875,0 z"
         id="path4174"
         inkscape:connector-curvature="0" />
      <path
         d="m 306.91964,88.902382 0,-1.71875 1.71875,0 0,1.71875 -1.71875,0 z m 0,1.71875 0,-1.71875 1.71875,0 0,1.71875 -1.71875,0 z m 0,1.71875 0,-1.71875 1.71875,0 0,1.71875 -1.71875,0 z m 1.71875,0 0,-1.71875 1.71875,0 0,1.71875 -1.71875,0 z m 1.71875,0 0,-1.71875 1.71875,0 0,1.71875 -1.71875,0 z m 1.71875,0 0,-1.71875 1.71875,0 0,1.71875 -1.71875,0 z m -5.15625,1.71875 0,-1.71875 1.71875,0 0,1.71875 -1.71875,0 z m 0,1.71875 0,-1.71875 1.71875,0 0,1.71875 -1.71875,0 z m 0,1.71875 0,-1.71875 1.71875,0 0,1.71875 -1.71875,0 z m 0,1.71875 0,-1.71875 1.71875,0 0,1.71875 -1.71875,0 z m 1.71875,1.718748 0,-1.718748 1.71875,0 0,1.718748 -1.71875,0 z m 1.71875,0 0,-1.718748 1.71875,0 0,1.718748 -1.71875,0 z m 1.71875,0 0,-1.718748 1.71875,0 0,1.718748 -1.71875,0 z"
         id="path4176"
         inkscape:connector-curvature="0" />
    </g>
    <g
       style="font-style:normal;font-weight:normal;font-size:27.5px;line-height:125%;font-family:'ProggyCleanTT Nerd Font';letter-spacing:0px;word-spacing:0px;fill:#ffffff;fill-opacity:1;stroke:none;stroke-width:1px;stroke-linecap:butt;stroke-linejoin:miter;stroke-opacity:1"
       id="text4140">
      <path
         d="m 67.606903,135.46487 0,-1.09375 1.09375,0 0,1.09375 -1.09375,0 z m 1.09375,0 0,-1.09375 1.09375,0 0,1.09375 -1.09375,0 z m 1.09375,0 0,-1.09375 1.09375,0 0,1.09375 -1.09375,0 z m 1.09375,1.09375 0,-1.09375 1.09375,0 0,1.09375 -1.09375,0 z m -3.28125,1.09375 0,-1.09375 1.09375,0 0,1.09375 -1.09375,0 z m 1.09375,0 0,-1.09375 1.09375,0 0,1.09375 -1.09375,0 z m 1.09375,0 0,-1.09375 1.09375,0 0,1.09375 -1.09375,0 z m 1.09375,0 0,-1.09375 1.09375,0 0,1.09375 -1.09375,0 z m -4.375,1.09375 0,-1.09375 1.09375,0 0,1.09375 -1.09375,0 z m 4.375,0 0,-1.09375 1.09375,0 0,1.09375 -1.09375,0 z m -4.375,1.09375 0,-1.09375 1.09375,0 0,1.09375 -1.09375,0 z m 4.375,0 0,-1.09375 1.09375,0 0,1.09375 -1.09375,0 z m -3.28125,1.09375 0,-1.09375 1.09375,0 0,1.09375 -1.09375,0 z m 1.09375,0 0,-1.09375 1.09375,0 0,1.09375 -1.09375,0 z m 1.09375,0 0,-1.09375 1.09375,0 0,1.09375 -1.09375,0 z m 1.09375,0 0,-1.09375 1.09375,0 0,1.09375 -1.09375,0 z"
         style="font-size:17.5px"
         id="path4179"
         inkscape:connector-curvature="0" />
      <path
         d="m 74.169403,132.18362 0,-1.09375 1.09375,0 0,1.09375 -1.09375,0 z m 0,1.09375 0,-1.09375 1.09375,0 0,1.09375 -1.09375,0 z m 0,1.09375 0,-1.09375 1.09375,0 0,1.09375 -1.09375,0 z m 0,1.09375 0,-1.09375 1.09375,0 0,1.09375 -1.09375,0 z m 1.09375,0 0,-1.09375 1.09375,0 0,1.09375 -1.09375,0 z m 1.09375,0 0,-1.09375 1.09375,0 0,1.09375 -1.09375,0 z m 1.09375,0 0,-1.09375 1.09375,0 0,1.09375 -1.09375,0 z m -3.28125,1.09375 0,-1.09375 1.09375,0 0,1.09375 -1.09375,0 z m 4.375,0 0,-1.09375 1.09375,0 0,1.09375 -1.09375,0 z m -4.375,1.09375 0,-1.09375 1.09375,0 0,1.09375 -1.09375,0 z m 4.375,0 0,-1.09375 1.09375,0 0,1.09375 -1.09375,0 z m -4.375,1.09375 0,-1.09375 1.09375,0 0,1.09375 -1.09375,0 z m 4.375,0 0,-1.09375 1.09375,0 0,1.09375 -1.09375,0 z m -4.375,1.09375 0,-1.09375 1.09375,0 0,1.09375 -1.09375,0 z m 4.375,0 0,-1.09375 1.09375,0 0,1.09375 -1.09375,0 z m -4.375,1.09375 0,-1.09375 1.09375,0 0,1.09375 -1.09375,0 z m 1.09375,0 0,-1.09375 1.09375,0 0,1.09375 -1.09375,0 z m 1.09375,0 0,-1.09375 1.09375,0 0,1.09375 -1.09375,0 z m 1.09375,0 0,-1.09375 1.09375,0 0,1.09375 -1.09375,0 z"
         style="font-size:17.5px"
         id="path4181"
         inkscape:connector-curvature="0" />
      <path
         d="m 82.919403,135.46487 0,-1.09375 1.09375,0 0,1.09375 -1.09375,0 z m 1.09375,0 0,-1.09375 1.09375,0 0,1.09375 -1.09375,0 z m 1.09375,0 0,-1.09375 1.09375,0 0,1.09375 -1.09375,0 z m -3.28125,1.09375 0,-1.09375 1.09375,0 0,1.09375 -1.09375,0 z m 4.375,0 0,-1.09375 1.09375,0 0,1.09375 -1.09375,0 z m -4.375,1.09375 0,-1.09375 1.09375,0 0,1.09375 -1.09375,0 z m 0,1.09375 0,-1.09375 1.09375,0 0,1.09375 -1.09375,0 z m 0,1.09375 0,-1.09375 1.09375,0 0,1.09375 -1.09375,0 z m 4.375,0 0,-1.09375 1.09375,0 0,1.09375 -1.09375,0 z m -3.28125,1.09375 0,-1.09375 1.09375,0 0,1.09375 -1.09375,0 z m 1.09375,0 0,-1.09375 1.09375,0 0,1.09375 -1.09375,0 z m 1.09375,0 0,-1.09375 1.09375,0 0,1.09375 -1.09375,0 z"
         style="font-size:17.5px"
         id="path4183"
         inkscape:connector-curvature="0" />
      <path
         d="m 93.856903,132.18362 0,-1.09375 1.09375,0 0,1.09375 -1.09375,0 z m 0,1.09375 0,-1.09375 1.09375,0 0,1.09375 -1.09375,0 z m 0,1.09375 0,-1.09375 1.09375,0 0,1.09375 -1.09375,0 z m -3.28125,1.09375 0,-1.09375 1.09375,0 0,1.09375 -1.09375,0 z m 1.09375,0 0,-1.09375 1.09375,0 0,1.09375 -1.09375,0 z m 1.09375,0 0,-1.09375 1.09375,0 0,1.09375 -1.09375,0 z m 1.09375,0 0,-1.09375 1.09375,0 0,1.09375 -1.09375,0 z m -4.375,1.09375 0,-1.09375 1.09375,0 0,1.09375 -1.09375,0 z m 4.375,0 0,-1.09375 1.09375,0 0,1.09375 -1.09375,0 z m -4.375,1.09375 0,-1.09375 1.09375,0 0,1.09375 -1.09375,0 z m 4.375,0 0,-1.09375 1.09375,0 0,1.09375 -1.09375,0 z m -4.375,1.09375 0,-1.09375 1.09375,0 0,1.09375 -1.09375,0 z m 4.375,0 0,-1.09375 1.09375,0 0,1.09375 -1.09375,0 z m -4.375,1.09375 0,-1.09375 1.09375,0 0,1.09375 -1.09375,0 z m 4.375,0 0,-1.09375 1.09375,0 0,1.09375 -1.09375,0 z m -3.28125,1.09375 0,-1.09375 1.09375,0 0,1.09375 -1.09375,0 z m 1.09375,0 0,-1.09375 1.09375,0 0,1.09375 -1.09375,0 z m 1.09375,0 0,-1.09375 1.09375,0 0,1.09375 -1.09375,0 z m 1.09375,0 0,-1.09375 1.09375,0 0,1.09375 -1.09375,0 z"
         style="font-size:17.5px"
         id="path4185"
         inkscape:connector-curvature="0" />
      <path
         d="m 98.231903,135.46487 0,-1.09375 1.09375,0 0,1.09375 -1.09375,0 z m 1.09375,0 0,-1.09375 1.093747,0 0,1.09375 -1.093747,0 z m 1.093747,0 0,-1.09375 1.09375,0 0,1.09375 -1.09375,0 z m -3.281247,1.09375 0,-1.09375 1.09375,0 0,1.09375 -1.09375,0 z m 4.374997,0 0,-1.09375 1.09375,0 0,1.09375 -1.09375,0 z m -4.374997,1.09375 0,-1.09375 1.09375,0 0,1.09375 -1.09375,0 z m 1.09375,0 0,-1.09375 1.09375,0 0,1.09375 -1.09375,0 z m 1.09375,0 0,-1.09375 1.093747,0 0,1.09375 -1.093747,0 z m 1.093747,0 0,-1.09375 1.09375,0 0,1.09375 -1.09375,0 z m 1.09375,0 0,-1.09375 1.09375,0 0,1.09375 -1.09375,0 z m -4.374997,1.09375 0,-1.09375 1.09375,0 0,1.09375 -1.09375,0 z m 0,1.09375 0,-1.09375 1.09375,0 0,1.09375 -1.09375,0 z m 4.374997,0 0,-1.09375 1.09375,0 0,1.09375 -1.09375,0 z m -3.281247,1.09375 0,-1.09375 1.09375,0 0,1.09375 -1.09375,0 z m 1.09375,0 0,-1.09375 1.093747,0 0,1.09375 -1.093747,0 z m 1.093747,0 0,-1.09375 1.09375,0 0,1.09375 -1.09375,0 z"
         style="font-size:17.5px"
         id="path4187"
         inkscape:connector-curvature="0" />
      <path
         d="m 106.9819,132.18362 0,-1.09375 1.09375,0 0,1.09375 -1.09375,0 z m 1.09375,0 0,-1.09375 1.09375,0 0,1.09375 -1.09375,0 z m 1.09375,0 0,-1.09375 1.09375,0 0,1.09375 -1.09375,0 z m -3.28125,1.09375 0,-1.09375 1.09375,0 0,1.09375 -1.09375,0 z m 0,1.09375 0,-1.09375 1.09375,0 0,1.09375 -1.09375,0 z m -1.09375,1.09375 0,-1.09375 1.09375,0 0,1.09375 -1.09375,0 z m 1.09375,0 0,-1.09375 1.09375,0 0,1.09375 -1.09375,0 z m 1.09375,0 0,-1.09375 1.09375,0 0,1.09375 -1.09375,0 z m 1.09375,0 0,-1.09375 1.09375,0 0,1.09375 -1.09375,0 z m -2.1875,1.09375 0,-1.09375 1.09375,0 0,1.09375 -1.09375,0 z m 0,1.09375 0,-1.09375 1.09375,0 0,1.09375 -1.09375,0 z m 0,1.09375 0,-1.09375 1.09375,0 0,1.09375 -1.09375,0 z m 0,1.09375 0,-1.09375 1.09375,0 0,1.09375 -1.09375,0 z m 0,1.09375 0,-1.09375 1.09375,0 0,1.09375 -1.09375,0 z"
         style="font-size:17.5px"
         id="path4189"
         inkscape:connector-curvature="0" />
      <path
         d="m 113.5444,135.46487 0,-1.09375 1.09375,0 0,1.09375 -1.09375,0 z m 1.09375,0 0,-1.09375 1.09375,0 0,1.09375 -1.09375,0 z m 1.09375,0 0,-1.09375 1.09375,0 0,1.09375 -1.09375,0 z m 1.09375,0 0,-1.09375 1.09375,0 0,1.09375 -1.09375,0 z m -4.375,1.09375 0,-1.09375 1.09375,0 0,1.09375 -1.09375,0 z m 4.375,0 0,-1.09375 1.09375,0 0,1.09375 -1.09375,0 z m -4.375,1.09375 0,-1.09375 1.09375,0 0,1.09375 -1.09375,0 z m 4.375,0 0,-1.09375 1.09375,0 0,1.09375 -1.09375,0 z m -4.375,1.09375 0,-1.09375 1.09375,0 0,1.09375 -1.09375,0 z m 4.375,0 0,-1.09375 1.09375,0 0,1.09375 -1.09375,0 z m -4.375,1.09375 0,-1.09375 1.09375,0 0,1.09375 -1.09375,0 z m 4.375,0 0,-1.09375 1.09375,0 0,1.09375 -1.09375,0 z m -3.28125,1.09375 0,-1.09375 1.09375,0 0,1.09375 -1.09375,0 z m 1.09375,0 0,-1.09375 1.09375,0 0,1.09375 -1.09375,0 z m 1.09375,0 0,-1.09375 1.09375,0 0,1.09375 -1.09375,0 z m 1.09375,0 0,-1.09375 1.09375,0 0,1.09375 -1.09375,0 z m 0,1.09375 0,-1.09375 1.09375,0 0,1.09375 -1.09375,0 z m 0,1.09375 0,-1.09375 1.09375,0 0,1.09375 -1.09375,0 z m -3.28125,1.09375 0,-1.09375 1.09375,0 0,1.09375 -1.09375,0 z m 1.09375,0 0,-1.09375 1.09375,0 0,1.09375 -1.09375,0 z m 1.09375,0 0,-1.09375 1.09375,0 0,1.09375 -1.09375,0 z"
         style="font-size:17.5px"
         id="path4191"
         inkscape:connector-curvature="0" />
      <path
         d="m 120.1069,132.18362 0,-1.09375 1.09375,0 0,1.09375 -1.09375,0 z m 0,1.09375 0,-1.09375 1.09375,0 0,1.09375 -1.09375,0 z m 0,1.09375 0,-1.09375 1.09375,0 0,1.09375 -1.09375,0 z m 0,1.09375 0,-1.09375 1.09375,0 0,1.09375 -1.09375,0 z m 1.09375,0 0,-1.09375 1.09375,0 0,1.09375 -1.09375,0 z m 1.09375,0 0,-1.09375 1.09375,0 0,1.09375 -1.09375,0 z m 1.09375,0 0,-1.09375 1.09375,0 0,1.09375 -1.09375,0 z m -3.28125,1.09375 0,-1.09375 1.09375,0 0,1.09375 -1.09375,0 z m 4.375,0 0,-1.09375 1.09375,0 0,1.09375 -1.09375,0 z m -4.375,1.09375 0,-1.09375 1.09375,0 0,1.09375 -1.09375,0 z m 4.375,0 0,-1.09375 1.09375,0 0,1.09375 -1.09375,0 z m -4.375,1.09375 0,-1.09375 1.09375,0 0,1.09375 -1.09375,0 z m 4.375,0 0,-1.09375 1.09375,0 0,1.09375 -1.09375,0 z m -4.375,1.09375 0,-1.09375 1.09375,0 0,1.09375 -1.09375,0 z m 4.375,0 0,-1.09375 1.09375,0 0,1.09375 -1.09375,0 z m -4.375,1.09375 0,-1.09375 1.09375,0 0,1.09375 -1.09375,0 z m 4.375,0 0,-1.09375 1.09375,0 0,1.09375 -1.09375,0 z"
         style="font-size:17.5px"
         id="path4193"
         inkscape:connector-curvature="0" />
      <path
         d="m 129.95065,132.18362 0,-1.09375 1.09375,0 0,1.09375 -1.09375,0 z m -1.09375,3.28125 0,-1.09375 1.09375,0 0,1.09375 -1.09375,0 z m 1.09375,0 0,-1.09375 1.09375,0 0,1.09375 -1.09375,0 z m 0,1.09375 0,-1.09375 1.09375,0 0,1.09375 -1.09375,0 z m 0,1.09375 0,-1.09375 1.09375,0 0,1.09375 -1.09375,0 z m 0,1.09375 0,-1.09375 1.09375,0 0,1.09375 -1.09375,0 z m 0,1.09375 0,-1.09375 1.09375,0 0,1.09375 -1.09375,0 z m 0,1.09375 0,-1.09375 1.09375,0 0,1.09375 -1.09375,0 z"
         style="font-size:17.5px"
         id="path4195"
         inkscape:connector-curvature="0" />
      <path
         d="m 138.70065,132.18362 0,-1.09375 1.09375,0 0,1.09375 -1.09375,0 z m -1.09375,3.28125 0,-1.09375 1.09375,0 0,1.09375 -1.09375,0 z m 1.09375,0 0,-1.09375 1.09375,0 0,1.09375 -1.09375,0 z m 0,1.09375 0,-1.09375 1.09375,0 0,1.09375 -1.09375,0 z m 0,1.09375 0,-1.09375 1.09375,0 0,1.09375 -1.09375,0 z m 0,1.09375 0,-1.09375 1.09375,0 0,1.09375 -1.09375,0 z m 0,1.09375 0,-1.09375 1.09375,0 0,1.09375 -1.09375,0 z m 0,1.09375 0,-1.09375 1.09375,0 0,1.09375 -1.09375,0 z m 0,1.09375 0,-1.09375 1.09375,0 0,1.09375 -1.09375,0 z m -3.28125,1.09375 0,-1.09375 1.09375,0 0,1.09375 -1.09375,0 z m 1.09375,0 0,-1.09375 1.09375,0 0,1.09375 -1.09375,0 z m 1.09375,0 0,-1.09375 1.09375,0 0,1.09375 -1.09375,0 z"
         style="font-size:17.5px"
         id="path4197"
         inkscape:connector-curvature="0" />
      <path
         d="m 143.07565,132.18362 0,-1.09375 1.09375,0 0,1.09375 -1.09375,0 z m 0,1.09375 0,-1.09375 1.09375,0 0,1.09375 -1.09375,0 z m 0,1.09375 0,-1.09375 1.09375,0 0,1.09375 -1.09375,0 z m 0,1.09375 0,-1.09375 1.09375,0 0,1.09375 -1.09375,0 z m 4.375,0 0,-1.09375 1.09375,0 0,1.09375 -1.09375,0 z m -4.375,1.09375 0,-1.09375 1.09375,0 0,1.09375 -1.09375,0 z m 3.28125,0 0,-1.09375 1.09375,0 0,1.09375 -1.09375,0 z m -3.28125,1.09375 0,-1.09375 1.09375,0 0,1.09375 -1.09375,0 z m 2.1875,0 0,-1.09375 1.09375,0 0,1.09375 -1.09375,0 z m -2.1875,1.09375 0,-1.09375 1.09375,0 0,1.09375 -1.09375,0 z m 1.09375,0 0,-1.09375 1.09375,0 0,1.09375 -1.09375,0 z m 1.09375,0 0,-1.09375 1.09375,0 0,1.09375 -1.09375,0 z m -2.1875,1.09375 0,-1.09375 1.09375,0 0,1.09375 -1.09375,0 z m 3.28125,0 0,-1.09375 1.09375,0 0,1.09375 -1.09375,0 z m -3.28125,1.09375 0,-1.09375 1.09375,0 0,1.09375 -1.09375,0 z m 4.375,0 0,-1.09375 1.09375,0 0,1.09375 -1.09375,0 z"
         style="font-size:17.5px"
         id="path4199"
         inkscape:connector-curvature="0" />
      <path
         d="m 151.82565,132.18362 0,-1.09375 1.09375,0 0,1.09375 -1.09375,0 z m 1.09375,0 0,-1.09375 1.09375,0 0,1.09375 -1.09375,0 z m 0,1.09375 0,-1.09375 1.09375,0 0,1.09375 -1.09375,0 z m 0,1.09375 0,-1.09375 1.09375,0 0,1.09375 -1.09375,0 z m 0,1.09375 0,-1.09375 1.09375,0 0,1.09375 -1.09375,0 z m 0,1.09375 0,-1.09375 1.09375,0 0,1.09375 -1.09375,0 z m 0,1.09375 0,-1.09375 1.09375,0 0,1.09375 -1.09375,0 z m 0,1.09375 0,-1.09375 1.09375,0 0,1.09375 -1.09375,0 z m 0,1.09375 0,-1.09375 1.09375,0 0,1.09375 -1.09375,0 z m 0,1.09375 0,-1.09375 1.09375,0 0,1.09375 -1.09375,0 z"
         style="font-size:17.5px"
         id="path4201"
         inkscape:connector-curvature="0" />
      <path
         d="m 157.2944,135.46487 0,-1.09375 1.09375,0 0,1.09375 -1.09375,0 z m 1.09375,0 0,-1.09375 1.09375,0 0,1.09375 -1.09375,0 z m 1.09375,0 0,-1.09375 1.09375,0 0,1.09375 -1.09375,0 z m 2.1875,0 0,-1.09375 1.09375,0 0,1.09375 -1.09375,0 z m 1.09375,0 0,-1.09375 1.09375,0 0,1.09375 -1.09375,0 z m -5.46875,1.09375 0,-1.09375 1.09375,0 0,1.09375 -1.09375,0 z m 3.28125,0 0,-1.09375 1.09375,0 0,1.09375 -1.09375,0 z m 3.28125,0 0,-1.09375 1.09375,0 0,1.09375 -1.09375,0 z m -6.5625,1.09375 0,-1.09375 1.09375,0 0,1.09375 -1.09375,0 z m 3.28125,0 0,-1.09375 1.09375,0 0,1.09375 -1.09375,0 z m 3.28125,0 0,-1.09375 1.09375,0 0,1.09375 -1.09375,0 z m -6.5625,1.09375 0,-1.09375 1.09375,0 0,1.09375 -1.09375,0 z m 3.28125,0 0,-1.09375 1.09375,0 0,1.09375 -1.09375,0 z m 3.28125,0 0,-1.09375 1.09375,0 0,1.09375 -1.09375,0 z m -6.5625,1.09375 0,-1.09375 1.09375,0 0,1.09375 -1.09375,0 z m 3.28125,0 0,-1.09375 1.09375,0 0,1.09375 -1.09375,0 z m 3.28125,0 0,-1.09375 1.09375,0 0,1.09375 -1.09375,0 z m -6.5625,1.09375 0,-1.09375 1.09375,0 0,1.09375 -1.09375,0 z m 3.28125,0 0,-1.09375 1.09375,0 0,1.09375 -1.09375,0 z m 3.28125,0 0,-1.09375 1.09375,0 0,1.09375 -1.09375,0 z"
         style="font-size:17.5px"
         id="path4203"
         inkscape:connector-curvature="0" />
      <path
         d="m 166.0444,135.46487 0,-1.09375 1.09375,0 0,1.09375 -1.09375,0 z m 1.09375,0 0,-1.09375 1.09375,0 0,1.09375 -1.09375,0 z m 1.09375,0 0,-1.09375 1.09375,0 0,1.09375 -1.09375,0 z m 1.09375,0 0,-1.09375 1.09375,0 0,1.09375 -1.09375,0 z m -3.28125,1.09375 0,-1.09375 1.09375,0 0,1.09375 -1.09375,0 z m 4.375,0 0,-1.09375 1.09375,0 0,1.09375 -1.09375,0 z m -4.375,1.09375 0,-1.09375 1.09375,0 0,1.09375 -1.09375,0 z m 4.375,0 0,-1.09375 1.09375,0 0,1.09375 -1.09375,0 z m -4.375,1.09375 0,-1.09375 1.09375,0 0,1.09375 -1.09375,0 z m 4.375,0 0,-1.09375 1.09375,0 0,1.09375 -1.09375,0 z m -4.375,1.09375 0,-1.09375 1.09375,0 0,1.09375 -1.09375,0 z m 4.375,0 0,-1.09375 1.09375,0 0,1.09375 -1.09375,0 z m -4.375,1.09375 0,-1.09375 1.09375,0 0,1.09375 -1.09375,0 z m 4.375,0 0,-1.09375 1.09375,0 0,1.09375 -1.09375,0 z"
         style="font-size:17.5px"
         id="path4205"
         inkscape:connector-curvature="0" />
      <path
         d="m 174.7944,135.46487 0,-1.09375 1.09375,0 0,1.09375 -1.09375,0 z m 1.09375,0 0,-1.09375 1.09375,0 0,1.09375 -1.09375,0 z m 1.09375,0 0,-1.09375 1.09375,0 0,1.09375 -1.09375,0 z m -3.28125,1.09375 0,-1.09375 1.09375,0 0,1.09375 -1.09375,0 z m 4.375,0 0,-1.09375 1.09375,0 0,1.09375 -1.09375,0 z m -4.375,1.09375 0,-1.09375 1.09375,0 0,1.09375 -1.09375,0 z m 4.375,0 0,-1.09375 1.09375,0 0,1.09375 -1.09375,0 z m -4.375,1.09375 0,-1.09375 1.09375,0 0,1.09375 -1.09375,0 z m 4.375,0 0,-1.09375 1.09375,0 0,1.09375 -1.09375,0 z m -4.375,1.09375 0,-1.09375 1.09375,0 0,1.09375 -1.09375,0 z m 4.375,0 0,-1.09375 1.09375,0 0,1.09375 -1.09375,0 z m -3.28125,1.09375 0,-1.09375 1.09375,0 0,1.09375 -1.09375,0 z m 1.09375,0 0,-1.09375 1.09375,0 0,1.09375 -1.09375,0 z m 1.09375,0 0,-1.09375 1.09375,0 0,1.09375 -1.09375,0 z"
         style="font-size:17.5px"
         id="path4207"
         inkscape:connector-curvature="0" />
      <path
         d="m 181.3569,135.46487 0,-1.09375 1.09375,0 0,1.09375 -1.09375,0 z m 1.09375,0 0,-1.09375 1.09375,0 0,1.09375 -1.09375,0 z m 1.09375,0 0,-1.09375 1.09375,0 0,1.09375 -1.09375,0 z m 1.09375,0 0,-1.09375 1.09375,0 0,1.09375 -1.09375,0 z m -3.28125,1.09375 0,-1.09375 1.09375,0 0,1.09375 -1.09375,0 z m 4.375,0 0,-1.09375 1.09375,0 0,1.09375 -1.09375,0 z m -4.375,1.09375 0,-1.09375 1.09375,0 0,1.09375 -1.09375,0 z m 4.375,0 0,-1.09375 1.09375,0 0,1.09375 -1.09375,0 z m -4.375,1.09375 0,-1.09375 1.09375,0 0,1.09375 -1.09375,0 z m 4.375,0 0,-1.09375 1.09375,0 0,1.09375 -1.09375,0 z m -4.375,1.09375 0,-1.09375 1.09375,0 0,1.09375 -1.09375,0 z m 4.375,0 0,-1.09375 1.09375,0 0,1.09375 -1.09375,0 z m -4.375,1.09375 0,-1.09375 1.09375,0 0,1.09375 -1.09375,0 z m 1.09375,0 0,-1.09375 1.09375,0 0,1.09375 -1.09375,0 z m 1.09375,0 0,-1.09375 1.09375,0 0,1.09375 -1.09375,0 z m 1.09375,0 0,-1.09375 1.09375,0 0,1.09375 -1.09375,0 z m -3.28125,1.09375 0,-1.09375 1.09375,0 0,1.09375 -1.09375,0 z m 0,1.09375 0,-1.09375 1.09375,0 0,1.09375 -1.09375,0 z m 0,1.09375 0,-1.09375 1.09375,0 0,1.09375 -1.09375,0 z"
         style="font-size:17.5px"
         id="path4209"
         inkscape:connector-curvature="0" />
      <path
         d="m 190.1069,135.46487 0,-1.09375 1.09375,0 0,1.09375 -1.09375,0 z m 1.09375,0 0,-1.09375 1.09375,0 0,1.09375 -1.09375,0 z m 1.09375,0 0,-1.09375 1.09375,0 0,1.09375 -1.09375,0 z m 1.09375,0 0,-1.09375 1.09375,0 0,1.09375 -1.09375,0 z m -4.375,1.09375 0,-1.09375 1.09375,0 0,1.09375 -1.09375,0 z m 4.375,0 0,-1.09375 1.09375,0 0,1.09375 -1.09375,0 z m -4.375,1.09375 0,-1.09375 1.09375,0 0,1.09375 -1.09375,0 z m 4.375,0 0,-1.09375 1.09375,0 0,1.09375 -1.09375,0 z m -4.375,1.09375 0,-1.09375 1.09375,0 0,1.09375 -1.09375,0 z m 4.375,0 0,-1.09375 1.09375,0 0,1.09375 -1.09375,0 z m -4.375,1.09375 0,-1.09375 1.09375,0 0,1.09375 -1.09375,0 z m 4.375,0 0,-1.09375 1.09375,0 0,1.09375 -1.09375,0 z m -3.28125,1.09375 0,-1.09375 1.09375,0 0,1.09375 -1.09375,0 z m 1.09375,0 0,-1.09375 1.09375,0 0,1.09375 -1.09375,0 z m 1.09375,0 0,-1.09375 1.09375,0 0,1.09375 -1.09375,0 z m 1.09375,0 0,-1.09375 1.09375,0 0,1.09375 -1.09375,0 z m 0,1.09375 0,-1.09375 1.09375,0 0,1.09375 -1.09375,0 z m 0,1.09375 0,-1.09375 1.09375,0 0,1.09375 -1.09375,0 z m 0,1.09375 0,-1.09375 1.09375,0 0,1.09375 -1.09375,0 z"
         style="font-size:17.5px"
         id="path4211"
         inkscape:connector-curvature="0" />
      <path
         d="m 196.6694,135.46487 0,-1.09375 1.09375,0 0,1.09375 -1.09375,0 z m 2.1875,0 0,-1.09375 1.09375,0 0,1.09375 -1.09375,0 z m 1.09375,0 0,-1.09375 1.09375,0 0,1.09375 -1.09375,0 z m -3.28125,1.09375 0,-1.09375 1.09375,0 0,1.09375 -1.09375,0 z m 1.09375,0 0,-1.09375 1.09375,0 0,1.09375 -1.09375,0 z m 3.28125,0 0,-1.09375 1.09375,0 0,1.09375 -1.09375,0 z m -4.375,1.09375 0,-1.09375 1.09375,0 0,1.09375 -1.09375,0 z m 0,1.09375 0,-1.09375 1.09375,0 0,1.09375 -1.09375,0 z m 0,1.09375 0,-1.09375 1.09375,0 0,1.09375 -1.09375,0 z m 0,1.09375 0,-1.09375 1.09375,0 0,1.09375 -1.09375,0 z"
         style="font-size:17.5px"
         id="path4213"
         inkscape:connector-curvature="0" />
      <path
         d="m 205.4194,135.46487 0,-1.09375 1.09375,0 0,1.09375 -1.09375,0 z m 1.09375,0 0,-1.09375 1.09375,0 0,1.09375 -1.09375,0 z m 1.09375,0 0,-1.09375 1.09375,0 0,1.09375 -1.09375,0 z m 1.09375,0 0,-1.09375 1.09375,0 0,1.09375 -1.09375,0 z m -4.375,1.09375 0,-1.09375 1.09375,0 0,1.09375 -1.09375,0 z m 1.09375,1.09375 0,-1.09375 1.09375,0 0,1.09375 -1.09375,0 z m 1.09375,0 0,-1.09375 1.09375,0 0,1.09375 -1.09375,0 z m 1.09375,1.09375 0,-1.09375 1.09375,0 0,1.09375 -1.09375,0 z m 1.09375,1.09375 0,-1.09375 1.09375,0 0,1.09375 -1.09375,0 z m -4.375,1.09375 0,-1.09375 1.09375,0 0,1.09375 -1.09375,0 z m 1.09375,0 0,-1.09375 1.09375,0 0,1.09375 -1.09375,0 z m 1.09375,0 0,-1.09375 1.09375,0 0,1.09375 -1.09375,0 z m 1.09375,0 0,-1.09375 1.09375,0 0,1.09375 -1.09375,0 z"
         style="font-size:17.5px"
         id="path4215"
         inkscape:connector-curvature="0" />
      <path
         d="m 213.07565,133.27737 0,-1.09375 1.09375,0 0,1.09375 -1.09375,0 z m 0,1.09375 0,-1.09375 1.09375,0 0,1.09375 -1.09375,0 z m 0,1.09375 0,-1.09375 1.09375,0 0,1.09375 -1.09375,0 z m 1.09375,0 0,-1.09375 1.09375,0 0,1.09375 -1.09375,0 z m 1.09375,0 0,-1.09375 1.09375,0 0,1.09375 -1.09375,0 z m 1.09375,0 0,-1.09375 1.09375,0 0,1.09375 -1.09375,0 z m -3.28125,1.09375 0,-1.09375 1.09375,0 0,1.09375 -1.09375,0 z m 0,1.09375 0,-1.09375 1.09375,0 0,1.09375 -1.09375,0 z m 0,1.09375 0,-1.09375 1.09375,0 0,1.09375 -1.09375,0 z m 0,1.09375 0,-1.09375 1.09375,0 0,1.09375 -1.09375,0 z m 1.09375,1.09375 0,-1.09375 1.09375,0 0,1.09375 -1.09375,0 z m 1.09375,0 0,-1.09375 1.09375,0 0,1.09375 -1.09375,0 z m 1.09375,0 0,-1.09375 1.09375,0 0,1.09375 -1.09375,0 z"
         style="font-size:17.5px"
         id="path4217"
         inkscape:connector-curvature="0" />
      <path
         d="m 219.63815,135.46487 0,-1.09375 1.09375,0 0,1.09375 -1.09375,0 z m 4.375,0 0,-1.09375 1.09375,0 0,1.09375 -1.09375,0 z m -4.375,1.09375 0,-1.09375 1.09375,0 0,1.09375 -1.09375,0 z m 4.375,0 0,-1.09375 1.09375,0 0,1.09375 -1.09375,0 z m -4.375,1.09375 0,-1.09375 1.09375,0 0,1.09375 -1.09375,0 z m 4.375,0 0,-1.09375 1.09375,0 0,1.09375 -1.09375,0 z m -4.375,1.09375 0,-1.09375 1.09375,0 0,1.09375 -1.09375,0 z m 4.375,0 0,-1.09375 1.09375,0 0,1.09375 -1.09375,0 z m -4.375,1.09375 0,-1.09375 1.09375,0 0,1.09375 -1.09375,0 z m 4.375,0 0,-1.09375 1.09375,0 0,1.09375 -1.09375,0 z m -3.28125,1.09375 0,-1.09375 1.09375,0 0,1.09375 -1.09375,0 z m 1.09375,0 0,-1.09375 1.09375,0 0,1.09375 -1.09375,0 z m 1.09375,0 0,-1.09375 1.09375,0 0,1.09375 -1.09375,0 z m 1.09375,0 0,-1.09375 1.09375,0 0,1.09375 -1.09375,0 z"
         style="font-size:17.5px"
         id="path4219"
         inkscape:connector-curvature="0" />
      <path
         d="m 227.2944,135.46487 0,-1.09375 1.09375,0 0,1.09375 -1.09375,0 z m 4.375,0 0,-1.09375 1.09375,0 0,1.09375 -1.09375,0 z m -4.375,1.09375 0,-1.09375 1.09375,0 0,1.09375 -1.09375,0 z m 4.375,0 0,-1.09375 1.09375,0 0,1.09375 -1.09375,0 z m -3.28125,1.09375 0,-1.09375 1.09375,0 0,1.09375 -1.09375,0 z m 2.1875,0 0,-1.09375 1.09375,0 0,1.09375 -1.09375,0 z m -2.1875,1.09375 0,-1.09375 1.09375,0 0,1.09375 -1.09375,0 z m 2.1875,0 0,-1.09375 1.09375,0 0,1.09375 -1.09375,0 z m -1.09375,1.09375 0,-1.09375 1.09375,0 0,1.09375 -1.09375,0 z m 0,1.09375 0,-1.09375 1.09375,0 0,1.09375 -1.09375,0 z"
         style="font-size:17.5px"
         id="path4221"
         inkscape:connector-curvature="0" />
      <path
         d="m 233.8569,135.46487 0,-1.09375 1.09375,0 0,1.09375 -1.09375,0 z m 6.5625,0 0,-1.09375 1.09375,0 0,1.09375 -1.09375,0 z m -6.5625,1.09375 0,-1.09375 1.09375,0 0,1.09375 -1.09375,0 z m 3.28125,0 0,-1.09375 1.09375,0 0,1.09375 -1.09375,0 z m 3.28125,0 0,-1.09375 1.09375,0 0,1.09375 -1.09375,0 z m -6.5625,1.09375 0,-1.09375 1.09375,0 0,1.09375 -1.09375,0 z m 3.28125,0 0,-1.09375 1.09375,0 0,1.09375 -1.09375,0 z m 3.28125,0 0,-1.09375 1.09375,0 0,1.09375 -1.09375,0 z m -6.5625,1.09375 0,-1.09375 1.09375,0 0,1.09375 -1.09375,0 z m 2.1875,0 0,-1.09375 1.09375,0 0,1.09375 -1.09375,0 z m 2.1875,0 0,-1.09375 1.09375,0 0,1.09375 -1.09375,0 z m 2.1875,0 0,-1.09375 1.09375,0 0,1.09375 -1.09375,0 z m -5.46875,1.09375 0,-1.09375 1.09375,0 0,1.09375 -1.09375,0 z m 1.09375,0 0,-1.09375 1.09375,0 0,1.09375 -1.09375,0 z m 2.1875,0 0,-1.09375 1.09375,0 0,1.09375 -1.09375,0 z m 1.09375,0 0,-1.09375 1.09375,0 0,1.09375 -1.09375,0 z m -4.375,1.09375 0,-1.09375 1.09375,0 0,1.09375 -1.09375,0 z m 4.375,0 0,-1.09375 1.09375,0 0,1.09375 -1.09375,0 z"
         style="font-size:17.5px"
         id="path4223"
         inkscape:connector-curvature="0" />
      <path
         d="m 242.6069,135.46487 0,-1.09375 1.09375,0 0,1.09375 -1.09375,0 z m 4.375,0 0,-1.09375 1.09375,0 0,1.09375 -1.09375,0 z m -3.28125,1.09375 0,-1.09375 1.09375,0 0,1.09375 -1.09375,0 z m 2.1875,0 0,-1.09375 1.09375,0 0,1.09375 -1.09375,0 z m -1.09375,1.09375 0,-1.09375 1.09375,0 0,1.09375 -1.09375,0 z m 0,1.09375 0,-1.09375 1.09375,0 0,1.09375 -1.09375,0 z m -1.09375,1.09375 0,-1.09375 1.09375,0 0,1.09375 -1.09375,0 z m 2.1875,0 0,-1.09375 1.09375,0 0,1.09375 -1.09375,0 z m -3.28125,1.09375 0,-1.09375 1.09375,0 0,1.09375 -1.09375,0 z m 4.375,0 0,-1.09375 1.09375,0 0,1.09375 -1.09375,0 z"
         style="font-size:17.5px"
         id="path4225"
         inkscape:connector-curvature="0" />
      <path
         d="m 250.26315,135.46487 0,-1.09375 1.09375,0 0,1.09375 -1.09375,0 z m 4.375,0 0,-1.09375 1.09375,0 0,1.09375 -1.09375,0 z m -4.375,1.09375 0,-1.09375 1.09375,0 0,1.09375 -1.09375,0 z m 4.375,0 0,-1.09375 1.09375,0 0,1.09375 -1.09375,0 z m -4.375,1.09375 0,-1.09375 1.09375,0 0,1.09375 -1.09375,0 z m 4.375,0 0,-1.09375 1.09375,0 0,1.09375 -1.09375,0 z m -4.375,1.09375 0,-1.09375 1.09375,0 0,1.09375 -1.09375,0 z m 4.375,0 0,-1.09375 1.09375,0 0,1.09375 -1.09375,0 z m -4.375,1.09375 0,-1.09375 1.09375,0 0,1.09375 -1.09375,0 z m 4.375,0 0,-1.09375 1.09375,0 0,1.09375 -1.09375,0 z m -3.28125,1.09375 0,-1.09375 1.09375,0 0,1.09375 -1.09375,0 z m 1.09375,0 0,-1.09375 1.09375,0 0,1.09375 -1.09375,0 z m 1.09375,0 0,-1.09375 1.09375,0 0,1.09375 -1.09375,0 z m 1.09375,0 0,-1.09375 1.09375,0 0,1.09375 -1.09375,0 z m 0,1.09375 0,-1.09375 1.09375,0 0,1.09375 -1.09375,0 z m 0,1.09375 0,-1.09375 1.09375,0 0,1.09375 -1.09375,0 z m -3.28125,1.09375 0,-1.09375 1.09375,0 0,1.09375 -1.09375,0 z m 1.09375,0 0,-1.09375 1.09375,0 0,1.09375 -1.09375,0 z m 1.09375,0 0,-1.09375 1.09375,0 0,1.09375 -1.09375,0 z"
         style="font-size:17.5px"
         id="path4227"
         inkscape:connector-curvature="0" />
      <path
         d="m 257.9194,135.46487 0,-1.09375 1.09375,0 0,1.09375 -1.09375,0 z m 1.09375,0 0,-1.09375 1.09375,0 0,1.09375 -1.09375,0 z m 1.09375,0 0,-1.09375 1.09375,0 0,1.09375 -1.09375,0 z m 1.09375,0 0,-1.09375 1.09375,0 0,1.09375 -1.09375,0 z m 1.09375,0 0,-1.09375 1.09375,0 0,1.09375 -1.09375,0 z m 0,1.09375 0,-1.09375 1.09375,0 0,1.09375 -1.09375,0 z m -1.09375,1.09375 0,-1.09375 1.09375,0 0,1.09375 -1.09375,0 z m -1.09375,1.09375 0,-1.09375 1.09375,0 0,1.09375 -1.09375,0 z m -1.09375,1.09375 0,-1.09375 1.09375,0 0,1.09375 -1.09375,0 z m -1.09375,1.09375 0,-1.09375 1.09375,0 0,1.09375 -1.09375,0 z m 1.09375,0 0,-1.09375 1.09375,0 0,1.09375 -1.09375,0 z m 1.09375,0 0,-1.09375 1.09375,0 0,1.09375 -1.09375,0 z m 1.09375,0 0,-1.09375 1.09375,0 0,1.09375 -1.09375,0 z m 1.09375,0 0,-1.09375 1.09375,0 0,1.09375 -1.09375,0 z"
         style="font-size:17.5px"
         id="path4229"
         inkscape:connector-curvature="0" />
      <path
         d="m 68.700653,155.15237 0,-1.09375 1.09375,0 0,1.09375 -1.09375,0 z m 1.09375,0 0,-1.09375 1.09375,0 0,1.09375 -1.09375,0 z m -1.09375,1.09375 0,-1.09375 1.09375,0 0,1.09375 -1.09375,0 z m 1.09375,0 0,-1.09375 1.09375,0 0,1.09375 -1.09375,0 z m -2.1875,1.09375 0,-1.09375 1.09375,0 0,1.09375 -1.09375,0 z m 3.28125,0 0,-1.09375 1.09375,0 0,1.09375 -1.09375,0 z m -3.28125,1.09375 0,-1.09375 1.09375,0 0,1.09375 -1.09375,0 z m 3.28125,0 0,-1.09375 1.09375,0 0,1.09375 -1.09375,0 z m -3.28125,1.09375 0,-1.09375 1.09375,0 0,1.09375 -1.09375,0 z m 1.09375,0 0,-1.09375 1.09375,0 0,1.09375 -1.09375,0 z m 1.09375,0 0,-1.09375 1.09375,0 0,1.09375 -1.09375,0 z m 1.09375,0 0,-1.09375 1.09375,0 0,1.09375 -1.09375,0 z m -4.375,1.09375 0,-1.09375 1.09375,0 0,1.09375 -1.09375,0 z m 5.46875,0 0,-1.09375 1.09375,0 0,1.09375 -1.09375,0 z m -5.46875,1.09375 0,-1.09375 1.09375,0 0,1.09375 -1.09375,0 z m 5.46875,0 0,-1.09375 1.09375,0 0,1.09375 -1.09375,0 z m -5.46875,1.09375 0,-1.09375 1.09375,0 0,1.09375 -1.09375,0 z m 5.46875,0 0,-1.09375 1.09375,0 0,1.09375 -1.09375,0 z"
         style="font-size:17.5px"
         id="path4231"
         inkscape:connector-curvature="0" />
      <path
         d="m 74.169403,155.15237 0,-1.09375 1.09375,0 0,1.09375 -1.09375,0 z m 1.09375,0 0,-1.09375 1.09375,0 0,1.09375 -1.09375,0 z m 1.09375,0 0,-1.09375 1.09375,0 0,1.09375 -1.09375,0 z m 1.09375,0 0,-1.09375 1.09375,0 0,1.09375 -1.09375,0 z m -3.28125,1.09375 0,-1.09375 1.09375,0 0,1.09375 -1.09375,0 z m 4.375,0 0,-1.09375 1.09375,0 0,1.09375 -1.09375,0 z m -4.375,1.09375 0,-1.09375 1.09375,0 0,1.09375 -1.09375,0 z m 4.375,0 0,-1.09375 1.09375,0 0,1.09375 -1.09375,0 z m -4.375,1.09375 0,-1.09375 1.09375,0 0,1.09375 -1.09375,0 z m 1.09375,0 0,-1.09375 1.09375,0 0,1.09375 -1.09375,0 z m 1.09375,0 0,-1.09375 1.09375,0 0,1.09375 -1.09375,0 z m 1.09375,0 0,-1.09375 1.09375,0 0,1.09375 -1.09375,0 z m 1.09375,0 0,-1.09375 1.09375,0 0,1.09375 -1.09375,0 z m -4.375,1.09375 0,-1.09375 1.09375,0 0,1.09375 -1.09375,0 z m 5.46875,0 0,-1.09375 1.09375,0 0,1.09375 -1.09375,0 z m -5.46875,1.09375 0,-1.09375 1.09375,0 0,1.09375 -1.09375,0 z m 5.46875,0 0,-1.09375 1.09375,0 0,1.09375 -1.09375,0 z m -5.46875,1.09375 0,-1.09375 1.09375,0 0,1.09375 -1.09375,0 z m 5.46875,0 0,-1.09375 1.09375,0 0,1.09375 -1.09375,0 z m -5.46875,1.09375 0,-1.09375 1.09375,0 0,1.09375 -1.09375,0 z m 1.09375,0 0,-1.09375 1.09375,0 0,1.09375 -1.09375,0 z m 1.09375,0 0,-1.09375 1.09375,0 0,1.09375 -1.09375,0 z m 1.09375,0 0,-1.09375 1.09375,0 0,1.09375 -1.09375,0 z m 1.09375,0 0,-1.09375 1.09375,0 0,1.09375 -1.09375,0 z"
         style="font-size:17.5px"
         id="path4233"
         inkscape:connector-curvature="0" />
      <path
         d="m 84.013153,155.15237 0,-1.09375 1.09375,0 0,1.09375 -1.09375,0 z m 1.09375,0 0,-1.09375 1.09375,0 0,1.09375 -1.09375,0 z m 1.09375,0 0,-1.09375 1.09375,0 0,1.09375 -1.09375,0 z m -3.28125,1.09375 0,-1.09375 1.09375,0 0,1.09375 -1.09375,0 z m 4.375,0 0,-1.09375 1.09375,0 0,1.09375 -1.09375,0 z m -5.46875,1.09375 0,-1.09375 1.09375,0 0,1.09375 -1.09375,0 z m 0,1.09375 0,-1.09375 1.09375,0 0,1.09375 -1.09375,0 z m 0,1.09375 0,-1.09375 1.09375,0 0,1.09375 -1.09375,0 z m 0,1.09375 0,-1.09375 1.09375,0 0,1.09375 -1.09375,0 z m 1.09375,1.09375 0,-1.09375 1.09375,0 0,1.09375 -1.09375,0 z m 4.375,0 0,-1.09375 1.09375,0 0,1.09375 -1.09375,0 z m -3.28125,1.09375 0,-1.09375 1.09375,0 0,1.09375 -1.09375,0 z m 1.09375,0 0,-1.09375 1.09375,0 0,1.09375 -1.09375,0 z m 1.09375,0 0,-1.09375 1.09375,0 0,1.09375 -1.09375,0 z"
         style="font-size:17.5px"
         id="path4235"
         inkscape:connector-curvature="0" />
      <path
         d="m 89.481903,155.15237 0,-1.09375 1.09375,0 0,1.09375 -1.09375,0 z m 1.09375,0 0,-1.09375 1.09375,0 0,1.09375 -1.09375,0 z m 1.09375,0 0,-1.09375 1.09375,0 0,1.09375 -1.09375,0 z m 1.09375,0 0,-1.09375 1.09375,0 0,1.09375 -1.09375,0 z m -3.28125,1.09375 0,-1.09375 1.09375,0 0,1.09375 -1.09375,0 z m 4.375,0 0,-1.09375 1.09375,0 0,1.09375 -1.09375,0 z m -4.375,1.09375 0,-1.09375 1.09375,0 0,1.09375 -1.09375,0 z m 5.46875,0 0,-1.09375 1.09375,0 0,1.09375 -1.09375,0 z m -5.46875,1.09375 0,-1.09375 1.09375,0 0,1.09375 -1.09375,0 z m 5.46875,0 0,-1.09375 1.09375,0 0,1.09375 -1.09375,0 z m -5.46875,1.09375 0,-1.09375 1.09375,0 0,1.09375 -1.09375,0 z m 5.46875,0 0,-1.09375 1.09375,0 0,1.09375 -1.09375,0 z m -5.46875,1.09375 0,-1.09375 1.09375,0 0,1.09375 -1.09375,0 z m 5.46875,0 0,-1.09375 1.09375,0 0,1.09375 -1.09375,0 z m -5.46875,1.09375 0,-1.09375 1.09375,0 0,1.09375 -1.09375,0 z m 4.375,0 0,-1.09375 1.09375,0 0,1.09375 -1.09375,0 z m -4.375,1.09375 0,-1.09375 1.09375,0 0,1.09375 -1.09375,0 z m 1.09375,0 0,-1.09375 1.09375,0 0,1.09375 -1.09375,0 z m 1.09375,0 0,-1.09375 1.09375,0 0,1.09375 -1.09375,0 z m 1.09375,0 0,-1.09375 1.09375,0 0,1.09375 -1.09375,0 z"
         style="font-size:17.5px"
         id="path4237"
         inkscape:connector-curvature="0" />
      <path
         d="m 97.138153,155.15237 0,-1.09375 1.09375,0 0,1.09375 -1.09375,0 z m 1.09375,0 0,-1.09375 1.09375,0 0,1.09375 -1.09375,0 z m 1.09375,0 0,-1.09375 1.093747,0 0,1.09375 -1.093747,0 z m 1.093747,0 0,-1.09375 1.09375,0 0,1.09375 -1.09375,0 z m 1.09375,0 0,-1.09375 1.09375,0 0,1.09375 -1.09375,0 z m -4.374997,1.09375 0,-1.09375 1.09375,0 0,1.09375 -1.09375,0 z m 0,1.09375 0,-1.09375 1.09375,0 0,1.09375 -1.09375,0 z m 0,1.09375 0,-1.09375 1.09375,0 0,1.09375 -1.09375,0 z m 1.09375,0 0,-1.09375 1.09375,0 0,1.09375 -1.09375,0 z m 1.09375,0 0,-1.09375 1.093747,0 0,1.09375 -1.093747,0 z m 1.093747,0 0,-1.09375 1.09375,0 0,1.09375 -1.09375,0 z m -3.281247,1.09375 0,-1.09375 1.09375,0 0,1.09375 -1.09375,0 z m 0,1.09375 0,-1.09375 1.09375,0 0,1.09375 -1.09375,0 z m 0,1.09375 0,-1.09375 1.09375,0 0,1.09375 -1.09375,0 z m 0,1.09375 0,-1.09375 1.09375,0 0,1.09375 -1.09375,0 z m 1.09375,0 0,-1.09375 1.09375,0 0,1.09375 -1.09375,0 z m 1.09375,0 0,-1.09375 1.093747,0 0,1.09375 -1.093747,0 z m 1.093747,0 0,-1.09375 1.09375,0 0,1.09375 -1.09375,0 z m 1.09375,0 0,-1.09375 1.09375,0 0,1.09375 -1.09375,0 z"
         style="font-size:17.5px"
         id="path4239"
         inkscape:connector-curvature="0" />
      <path
         d="m 104.7944,155.15237 0,-1.09375 1.09375,0 0,1.09375 -1.09375,0 z m 1.09375,0 0,-1.09375 1.09375,0 0,1.09375 -1.09375,0 z m 1.09375,0 0,-1.09375 1.09375,0 0,1.09375 -1.09375,0 z m 1.09375,0 0,-1.09375 1.09375,0 0,1.09375 -1.09375,0 z m 1.09375,0 0,-1.09375 1.09375,0 0,1.09375 -1.09375,0 z m -4.375,1.09375 0,-1.09375 1.09375,0 0,1.09375 -1.09375,0 z m 0,1.09375 0,-1.09375 1.09375,0 0,1.09375 -1.09375,0 z m 0,1.09375 0,-1.09375 1.09375,0 0,1.09375 -1.09375,0 z m 1.09375,0 0,-1.09375 1.09375,0 0,1.09375 -1.09375,0 z m 1.09375,0 0,-1.09375 1.09375,0 0,1.09375 -1.09375,0 z m 1.09375,0 0,-1.09375 1.09375,0 0,1.09375 -1.09375,0 z m -3.28125,1.09375 0,-1.09375 1.09375,0 0,1.09375 -1.09375,0 z m 0,1.09375 0,-1.09375 1.09375,0 0,1.09375 -1.09375,0 z m 0,1.09375 0,-1.09375 1.09375,0 0,1.09375 -1.09375,0 z m 0,1.09375 0,-1.09375 1.09375,0 0,1.09375 -1.09375,0 z"
         style="font-size:17.5px"
         id="path4241"
         inkscape:connector-curvature="0" />
      <path
         d="m 114.63815,155.15237 0,-1.09375 1.09375,0 0,1.09375 -1.09375,0 z m 1.09375,0 0,-1.09375 1.09375,0 0,1.09375 -1.09375,0 z m 1.09375,0 0,-1.09375 1.09375,0 0,1.09375 -1.09375,0 z m -3.28125,1.09375 0,-1.09375 1.09375,0 0,1.09375 -1.09375,0 z m 4.375,0 0,-1.09375 1.09375,0 0,1.09375 -1.09375,0 z m -5.46875,1.09375 0,-1.09375 1.09375,0 0,1.09375 -1.09375,0 z m 0,1.09375 0,-1.09375 1.09375,0 0,1.09375 -1.09375,0 z m 0,1.09375 0,-1.09375 1.09375,0 0,1.09375 -1.09375,0 z m 3.28125,0 0,-1.09375 1.09375,0 0,1.09375 -1.09375,0 z m 1.09375,0 0,-1.09375 1.09375,0 0,1.09375 -1.09375,0 z m 1.09375,0 0,-1.09375 1.09375,0 0,1.09375 -1.09375,0 z m -5.46875,1.09375 0,-1.09375 1.09375,0 0,1.09375 -1.09375,0 z m 5.46875,0 0,-1.09375 1.09375,0 0,1.09375 -1.09375,0 z m -4.375,1.09375 0,-1.09375 1.09375,0 0,1.09375 -1.09375,0 z m 4.375,0 0,-1.09375 1.09375,0 0,1.09375 -1.09375,0 z m -3.28125,1.09375 0,-1.09375 1.09375,0 0,1.09375 -1.09375,0 z m 1.09375,0 0,-1.09375 1.09375,0 0,1.09375 -1.09375,0 z m 1.09375,0 0,-1.09375 1.09375,0 0,1.09375 -1.09375,0 z"
         style="font-size:17.5px"
         id="path4243"
         inkscape:connector-curvature="0" />
      <path
         d="m 120.1069,155.15237 0,-1.09375 1.09375,0 0,1.09375 -1.09375,0 z m 5.46875,0 0,-1.09375 1.09375,0 0,1.09375 -1.09375,0 z m -5.46875,1.09375 0,-1.09375 1.09375,0 0,1.09375 -1.09375,0 z m 5.46875,0 0,-1.09375 1.09375,0 0,1.09375 -1.09375,0 z m -5.46875,1.09375 0,-1.09375 1.09375,0 0,1.09375 -1.09375,0 z m 5.46875,0 0,-1.09375 1.09375,0 0,1.09375 -1.09375,0 z m -5.46875,1.09375 0,-1.09375 1.09375,0 0,1.09375 -1.09375,0 z m 1.09375,0 0,-1.09375 1.09375,0 0,1.09375 -1.09375,0 z m 1.09375,0 0,-1.09375 1.09375,0 0,1.09375 -1.09375,0 z m 1.09375,0 0,-1.09375 1.09375,0 0,1.09375 -1.09375,0 z m 1.09375,0 0,-1.09375 1.09375,0 0,1.09375 -1.09375,0 z m 1.09375,0 0,-1.09375 1.09375,0 0,1.09375 -1.09375,0 z m -5.46875,1.09375 0,-1.09375 1.09375,0 0,1.09375 -1.09375,0 z m 5.46875,0 0,-1.09375 1.09375,0 0,1.09375 -1.09375,0 z m -5.46875,1.09375 0,-1.09375 1.09375,0 0,1.09375 -1.09375,0 z m 5.46875,0 0,-1.09375 1.09375,0 0,1.09375 -1.09375,0 z m -5.46875,1.09375 0,-1.09375 1.09375,0 0,1.09375 -1.09375,0 z m 5.46875,0 0,-1.09375 1.09375,0 0,1.09375 -1.09375,0 z m -5.46875,1.09375 0,-1.09375 1.09375,0 0,1.09375 -1.09375,0 z m 5.46875,0 0,-1.09375 1.09375,0 0,1.09375 -1.09375,0 z"
         style="font-size:17.5px"
         id="path4245"
         inkscape:connector-curvature="0" />
      <path
         d="m 128.8569,155.15237 0,-1.09375 1.09375,0 0,1.09375 -1.09375,0 z m 1.09375,0 0,-1.09375 1.09375,0 0,1.09375 -1.09375,0 z m 1.09375,0 0,-1.09375 1.09375,0 0,1.09375 -1.09375,0 z m -1.09375,1.09375 0,-1.09375 1.09375,0 0,1.09375 -1.09375,0 z m 0,1.09375 0,-1.09375 1.09375,0 0,1.09375 -1.09375,0 z m 0,1.09375 0,-1.09375 1.09375,0 0,1.09375 -1.09375,0 z m 0,1.09375 0,-1.09375 1.09375,0 0,1.09375 -1.09375,0 z m 0,1.09375 0,-1.09375 1.09375,0 0,1.09375 -1.09375,0 z m 0,1.09375 0,-1.09375 1.09375,0 0,1.09375 -1.09375,0 z m -1.09375,1.09375 0,-1.09375 1.09375,0 0,1.09375 -1.09375,0 z m 1.09375,0 0,-1.09375 1.09375,0 0,1.09375 -1.09375,0 z m 1.09375,0 0,-1.09375 1.09375,0 0,1.09375 -1.09375,0 z"
         style="font-size:17.5px"
         id="path4247"
         inkscape:connector-curvature="0" />
      <path
         d="m 136.51315,155.15237 0,-1.09375 1.09375,0 0,1.09375 -1.09375,0 z m 1.09375,0 0,-1.09375 1.09375,0 0,1.09375 -1.09375,0 z m 1.09375,0 0,-1.09375 1.09375,0 0,1.09375 -1.09375,0 z m 0,1.09375 0,-1.09375 1.09375,0 0,1.09375 -1.09375,0 z m 0,1.09375 0,-1.09375 1.09375,0 0,1.09375 -1.09375,0 z m 0,1.09375 0,-1.09375 1.09375,0 0,1.09375 -1.09375,0 z m 0,1.09375 0,-1.09375 1.09375,0 0,1.09375 -1.09375,0 z m 0,1.09375 0,-1.09375 1.09375,0 0,1.09375 -1.09375,0 z m 0,1.09375 0,-1.09375 1.09375,0 0,1.09375 -1.09375,0 z m -3.28125,1.09375 0,-1.09375 1.09375,0 0,1.09375 -1.09375,0 z m 1.09375,0 0,-1.09375 1.09375,0 0,1.09375 -1.09375,0 z m 1.09375,0 0,-1.09375 1.09375,0 0,1.09375 -1.09375,0 z"
         style="font-size:17.5px"
         id="path4249"
         inkscape:connector-curvature="0" />
      <path
         d="m 143.07565,155.15237 0,-1.09375 1.09375,0 0,1.09375 -1.09375,0 z m 5.46875,0 0,-1.09375 1.09375,0 0,1.09375 -1.09375,0 z m -5.46875,1.09375 0,-1.09375 1.09375,0 0,1.09375 -1.09375,0 z m 4.375,0 0,-1.09375 1.09375,0 0,1.09375 -1.09375,0 z m -4.375,1.09375 0,-1.09375 1.09375,0 0,1.09375 -1.09375,0 z m 3.28125,0 0,-1.09375 1.09375,0 0,1.09375 -1.09375,0 z m -3.28125,1.09375 0,-1.09375 1.09375,0 0,1.09375 -1.09375,0 z m 2.1875,0 0,-1.09375 1.09375,0 0,1.09375 -1.09375,0 z m -2.1875,1.09375 0,-1.09375 1.09375,0 0,1.09375 -1.09375,0 z m 1.09375,0 0,-1.09375 1.09375,0 0,1.09375 -1.09375,0 z m 1.09375,0 0,-1.09375 1.09375,0 0,1.09375 -1.09375,0 z m -2.1875,1.09375 0,-1.09375 1.09375,0 0,1.09375 -1.09375,0 z m 3.28125,0 0,-1.09375 1.09375,0 0,1.09375 -1.09375,0 z m -3.28125,1.09375 0,-1.09375 1.09375,0 0,1.09375 -1.09375,0 z m 4.375,0 0,-1.09375 1.09375,0 0,1.09375 -1.09375,0 z m -4.375,1.09375 0,-1.09375 1.09375,0 0,1.09375 -1.09375,0 z m 5.46875,0 0,-1.09375 1.09375,0 0,1.09375 -1.09375,0 z"
         style="font-size:17.5px"
         id="path4251"
         inkscape:connector-curvature="0" />
      <path
         d="m 150.7319,155.15237 0,-1.09375 1.09375,0 0,1.09375 -1.09375,0 z m 0,1.09375 0,-1.09375 1.09375,0 0,1.09375 -1.09375,0 z m 0,1.09375 0,-1.09375 1.09375,0 0,1.09375 -1.09375,0 z m 0,1.09375 0,-1.09375 1.09375,0 0,1.09375 -1.09375,0 z m 0,1.09375 0,-1.09375 1.09375,0 0,1.09375 -1.09375,0 z m 0,1.09375 0,-1.09375 1.09375,0 0,1.09375 -1.09375,0 z m 0,1.09375 0,-1.09375 1.09375,0 0,1.09375 -1.09375,0 z m 0,1.09375 0,-1.09375 1.09375,0 0,1.09375 -1.09375,0 z m 1.09375,0 0,-1.09375 1.09375,0 0,1.09375 -1.09375,0 z m 1.09375,0 0,-1.09375 1.09375,0 0,1.09375 -1.09375,0 z m 1.09375,0 0,-1.09375 1.09375,0 0,1.09375 -1.09375,0 z m 1.09375,0 0,-1.09375 1.09375,0 0,1.09375 -1.09375,0 z"
         style="font-size:17.5px"
         id="path4253"
         inkscape:connector-curvature="0" />
      <path
         d="m 157.2944,155.15237 0,-1.09375 1.09375,0 0,1.09375 -1.09375,0 z m 1.09375,0 0,-1.09375 1.09375,0 0,1.09375 -1.09375,0 z m 4.375,0 0,-1.09375 1.09375,0 0,1.09375 -1.09375,0 z m 1.09375,0 0,-1.09375 1.09375,0 0,1.09375 -1.09375,0 z m -6.5625,1.09375 0,-1.09375 1.09375,0 0,1.09375 -1.09375,0 z m 1.09375,0 0,-1.09375 1.09375,0 0,1.09375 -1.09375,0 z m 4.375,0 0,-1.09375 1.09375,0 0,1.09375 -1.09375,0 z m 1.09375,0 0,-1.09375 1.09375,0 0,1.09375 -1.09375,0 z m -6.5625,1.09375 0,-1.09375 1.09375,0 0,1.09375 -1.09375,0 z m 2.1875,0 0,-1.09375 1.09375,0 0,1.09375 -1.09375,0 z m 2.1875,0 0,-1.09375 1.09375,0 0,1.09375 -1.09375,0 z m 2.1875,0 0,-1.09375 1.09375,0 0,1.09375 -1.09375,0 z m -6.5625,1.09375 0,-1.09375 1.09375,0 0,1.09375 -1.09375,0 z m 2.1875,0 0,-1.09375 1.09375,0 0,1.09375 -1.09375,0 z m 2.1875,0 0,-1.09375 1.09375,0 0,1.09375 -1.09375,0 z m 2.1875,0 0,-1.09375 1.09375,0 0,1.09375 -1.09375,0 z m -6.5625,1.09375 0,-1.09375 1.09375,0 0,1.09375 -1.09375,0 z m 3.28125,0 0,-1.09375 1.09375,0 0,1.09375 -1.09375,0 z m 3.28125,0 0,-1.09375 1.09375,0 0,1.09375 -1.09375,0 z m -6.5625,1.09375 0,-1.09375 1.09375,0 0,1.09375 -1.09375,0 z m 3.28125,0 0,-1.09375 1.09375,0 0,1.09375 -1.09375,0 z m 3.28125,0 0,-1.09375 1.09375,0 0,1.09375 -1.09375,0 z m -6.5625,1.09375 0,-1.09375 1.09375,0 0,1.09375 -1.09375,0 z m 6.5625,0 0,-1.09375 1.09375,0 0,1.09375 -1.09375,0 z m -6.5625,1.09375 0,-1.09375 1.09375,0 0,1.09375 -1.09375,0 z m 6.5625,0 0,-1.09375 1.09375,0 0,1.09375 -1.09375,0 z"
         style="font-size:17.5px"
         id="path4255"
         inkscape:connector-curvature="0" />
      <path
         d="m 166.0444,155.15237 0,-1.09375 1.09375,0 0,1.09375 -1.09375,0 z m 1.09375,0 0,-1.09375 1.09375,0 0,1.09375 -1.09375,0 z m 4.375,0 0,-1.09375 1.09375,0 0,1.09375 -1.09375,0 z m -5.46875,1.09375 0,-1.09375 1.09375,0 0,1.09375 -1.09375,0 z m 1.09375,0 0,-1.09375 1.09375,0 0,1.09375 -1.09375,0 z m 4.375,0 0,-1.09375 1.09375,0 0,1.09375 -1.09375,0 z m -5.46875,1.09375 0,-1.09375 1.09375,0 0,1.09375 -1.09375,0 z m 2.1875,0 0,-1.09375 1.09375,0 0,1.09375 -1.09375,0 z m 3.28125,0 0,-1.09375 1.09375,0 0,1.09375 -1.09375,0 z m -5.46875,1.09375 0,-1.09375 1.09375,0 0,1.09375 -1.09375,0 z m 2.1875,0 0,-1.09375 1.09375,0 0,1.09375 -1.09375,0 z m 3.28125,0 0,-1.09375 1.09375,0 0,1.09375 -1.09375,0 z m -5.46875,1.09375 0,-1.09375 1.09375,0 0,1.09375 -1.09375,0 z m 3.28125,0 0,-1.09375 1.09375,0 0,1.09375 -1.09375,0 z m 2.1875,0 0,-1.09375 1.09375,0 0,1.09375 -1.09375,0 z m -5.46875,1.09375 0,-1.09375 1.09375,0 0,1.09375 -1.09375,0 z m 3.28125,0 0,-1.09375 1.09375,0 0,1.09375 -1.09375,0 z m 2.1875,0 0,-1.09375 1.09375,0 0,1.09375 -1.09375,0 z m -5.46875,1.09375 0,-1.09375 1.09375,0 0,1.09375 -1.09375,0 z m 4.375,0 0,-1.09375 1.09375,0 0,1.09375 -1.09375,0 z m 1.09375,0 0,-1.09375 1.09375,0 0,1.09375 -1.09375,0 z m -5.46875,1.09375 0,-1.09375 1.09375,0 0,1.09375 -1.09375,0 z m 4.375,0 0,-1.09375 1.09375,0 0,1.09375 -1.09375,0 z m 1.09375,0 0,-1.09375 1.09375,0 0,1.09375 -1.09375,0 z"
         style="font-size:17.5px"
         id="path4257"
         inkscape:connector-curvature="0" />
      <path
         d="m 175.88815,155.15237 0,-1.09375 1.09375,0 0,1.09375 -1.09375,0 z m 1.09375,0 0,-1.09375 1.09375,0 0,1.09375 -1.09375,0 z m -2.1875,1.09375 0,-1.09375 1.09375,0 0,1.09375 -1.09375,0 z m 3.28125,0 0,-1.09375 1.09375,0 0,1.09375 -1.09375,0 z m -4.375,1.09375 0,-1.09375 1.09375,0 0,1.09375 -1.09375,0 z m 5.46875,0 0,-1.09375 1.09375,0 0,1.09375 -1.09375,0 z m -5.46875,1.09375 0,-1.09375 1.09375,0 0,1.09375 -1.09375,0 z m 5.46875,0 0,-1.09375 1.09375,0 0,1.09375 -1.09375,0 z m -5.46875,1.09375 0,-1.09375 1.09375,0 0,1.09375 -1.09375,0 z m 5.46875,0 0,-1.09375 1.09375,0 0,1.09375 -1.09375,0 z m -5.46875,1.09375 0,-1.09375 1.09375,0 0,1.09375 -1.09375,0 z m 5.46875,0 0,-1.09375 1.09375,0 0,1.09375 -1.09375,0 z m -4.375,1.09375 0,-1.09375 1.09375,0 0,1.09375 -1.09375,0 z m 3.28125,0 0,-1.09375 1.09375,0 0,1.09375 -1.09375,0 z m -2.1875,1.09375 0,-1.09375 1.09375,0 0,1.09375 -1.09375,0 z m 1.09375,0 0,-1.09375 1.09375,0 0,1.09375 -1.09375,0 z"
         style="font-size:17.5px"
         id="path4259"
         inkscape:connector-curvature="0" />
      <path
         d="m 181.3569,155.15237 0,-1.09375 1.09375,0 0,1.09375 -1.09375,0 z m 1.09375,0 0,-1.09375 1.09375,0 0,1.09375 -1.09375,0 z m 1.09375,0 0,-1.09375 1.09375,0 0,1.09375 -1.09375,0 z m 1.09375,0 0,-1.09375 1.09375,0 0,1.09375 -1.09375,0 z m -3.28125,1.09375 0,-1.09375 1.09375,0 0,1.09375 -1.09375,0 z m 4.375,0 0,-1.09375 1.09375,0 0,1.09375 -1.09375,0 z m -4.375,1.09375 0,-1.09375 1.09375,0 0,1.09375 -1.09375,0 z m 4.375,0 0,-1.09375 1.09375,0 0,1.09375 -1.09375,0 z m -4.375,1.09375 0,-1.09375 1.09375,0 0,1.09375 -1.09375,0 z m 4.375,0 0,-1.09375 1.09375,0 0,1.09375 -1.09375,0 z m -4.375,1.09375 0,-1.09375 1.09375,0 0,1.09375 -1.09375,0 z m 1.09375,0 0,-1.09375 1.09375,0 0,1.09375 -1.09375,0 z m 1.09375,0 0,-1.09375 1.09375,0 0,1.09375 -1.09375,0 z m 1.09375,0 0,-1.09375 1.09375,0 0,1.09375 -1.09375,0 z m -3.28125,1.09375 0,-1.09375 1.09375,0 0,1.09375 -1.09375,0 z m 0,1.09375 0,-1.09375 1.09375,0 0,1.09375 -1.09375,0 z m 0,1.09375 0,-1.09375 1.09375,0 0,1.09375 -1.09375,0 z"
         style="font-size:17.5px"
         id="path4261"
         inkscape:connector-curvature="0" />
      <path
         d="m 191.20065,155.15237 0,-1.09375 1.09375,0 0,1.09375 -1.09375,0 z m 1.09375,0 0,-1.09375 1.09375,0 0,1.09375 -1.09375,0 z m -2.1875,1.09375 0,-1.09375 1.09375,0 0,1.09375 -1.09375,0 z m 3.28125,0 0,-1.09375 1.09375,0 0,1.09375 -1.09375,0 z m -4.375,1.09375 0,-1.09375 1.09375,0 0,1.09375 -1.09375,0 z m 5.46875,0 0,-1.09375 1.09375,0 0,1.09375 -1.09375,0 z m -5.46875,1.09375 0,-1.09375 1.09375,0 0,1.09375 -1.09375,0 z m 5.46875,0 0,-1.09375 1.09375,0 0,1.09375 -1.09375,0 z m -5.46875,1.09375 0,-1.09375 1.09375,0 0,1.09375 -1.09375,0 z m 5.46875,0 0,-1.09375 1.09375,0 0,1.09375 -1.09375,0 z m -5.46875,1.09375 0,-1.09375 1.09375,0 0,1.09375 -1.09375,0 z m 5.46875,0 0,-1.09375 1.09375,0 0,1.09375 -1.09375,0 z m -4.375,1.09375 0,-1.09375 1.09375,0 0,1.09375 -1.09375,0 z m 3.28125,0 0,-1.09375 1.09375,0 0,1.09375 -1.09375,0 z m -2.1875,1.09375 0,-1.09375 1.09375,0 0,1.09375 -1.09375,0 z m 1.09375,0 0,-1.09375 1.09375,0 0,1.09375 -1.09375,0 z m 2.1875,0 0,-1.09375 1.09375,0 0,1.09375 -1.09375,0 z m 0,1.09375 0,-1.09375 1.09375,0 0,1.09375 -1.09375,0 z"
         style="font-size:17.5px"
         id="path4263"
         inkscape:connector-curvature="0" />
      <path
         d="m 196.6694,155.15237 0,-1.09375 1.09375,0 0,1.09375 -1.09375,0 z m 1.09375,0 0,-1.09375 1.09375,0 0,1.09375 -1.09375,0 z m 1.09375,0 0,-1.09375 1.09375,0 0,1.09375 -1.09375,0 z m 1.09375,0 0,-1.09375 1.09375,0 0,1.09375 -1.09375,0 z m -3.28125,1.09375 0,-1.09375 1.09375,0 0,1.09375 -1.09375,0 z m 4.375,0 0,-1.09375 1.09375,0 0,1.09375 -1.09375,0 z m -4.375,1.09375 0,-1.09375 1.09375,0 0,1.09375 -1.09375,0 z m 4.375,0 0,-1.09375 1.09375,0 0,1.09375 -1.09375,0 z m -4.375,1.09375 0,-1.09375 1.09375,0 0,1.09375 -1.09375,0 z m 4.375,0 0,-1.09375 1.09375,0 0,1.09375 -1.09375,0 z m -4.375,1.09375 0,-1.09375 1.09375,0 0,1.09375 -1.09375,0 z m 1.09375,0 0,-1.09375 1.09375,0 0,1.09375 -1.09375,0 z m 1.09375,0 0,-1.09375 1.09375,0 0,1.09375 -1.09375,0 z m 1.09375,0 0,-1.09375 1.09375,0 0,1.09375 -1.09375,0 z m -3.28125,1.09375 0,-1.09375 1.09375,0 0,1.09375 -1.09375,0 z m 3.28125,0 0,-1.09375 1.09375,0 0,1.09375 -1.09375,0 z m -3.28125,1.09375 0,-1.09375 1.09375,0 0,1.09375 -1.09375,0 z m 4.375,0 0,-1.09375 1.09375,0 0,1.09375 -1.09375,0 z m -4.375,1.09375 0,-1.09375 1.09375,0 0,1.09375 -1.09375,0 z m 5.46875,0 0,-1.09375 1.09375,0 0,1.09375 -1.09375,0 z"
         style="font-size:17.5px"
         id="path4265"
         inkscape:connector-curvature="0" />
      <path
         d="m 205.4194,155.15237 0,-1.09375 1.09375,0 0,1.09375 -1.09375,0 z m 1.09375,0 0,-1.09375 1.09375,0 0,1.09375 -1.09375,0 z m 1.09375,0 0,-1.09375 1.09375,0 0,1.09375 -1.09375,0 z m 1.09375,0 0,-1.09375 1.09375,0 0,1.09375 -1.09375,0 z m -4.375,1.09375 0,-1.09375 1.09375,0 0,1.09375 -1.09375,0 z m 5.46875,0 0,-1.09375 1.09375,0 0,1.09375 -1.09375,0 z m -5.46875,1.09375 0,-1.09375 1.09375,0 0,1.09375 -1.09375,0 z m 1.09375,1.09375 0,-1.09375 1.09375,0 0,1.09375 -1.09375,0 z m 1.09375,0 0,-1.09375 1.09375,0 0,1.09375 -1.09375,0 z m 1.09375,1.09375 0,-1.09375 1.09375,0 0,1.09375 -1.09375,0 z m 1.09375,0 0,-1.09375 1.09375,0 0,1.09375 -1.09375,0 z m 1.09375,1.09375 0,-1.09375 1.09375,0 0,1.09375 -1.09375,0 z m -5.46875,1.09375 0,-1.09375 1.09375,0 0,1.09375 -1.09375,0 z m 5.46875,0 0,-1.09375 1.09375,0 0,1.09375 -1.09375,0 z m -4.375,1.09375 0,-1.09375 1.09375,0 0,1.09375 -1.09375,0 z m 1.09375,0 0,-1.09375 1.09375,0 0,1.09375 -1.09375,0 z m 1.09375,0 0,-1.09375 1.09375,0 0,1.09375 -1.09375,0 z m 1.09375,0 0,-1.09375 1.09375,0 0,1.09375 -1.09375,0 z"
         style="font-size:17.5px"
         id="path4267"
         inkscape:connector-curvature="0" />
      <path
         d="m 210.88815,155.15237 0,-1.09375 1.09375,0 0,1.09375 -1.09375,0 z m 1.09375,0 0,-1.09375 1.09375,0 0,1.09375 -1.09375,0 z m 1.09375,0 0,-1.09375 1.09375,0 0,1.09375 -1.09375,0 z m 1.09375,0 0,-1.09375 1.09375,0 0,1.09375 -1.09375,0 z m 1.09375,0 0,-1.09375 1.09375,0 0,1.09375 -1.09375,0 z m 1.09375,0 0,-1.09375 1.09375,0 0,1.09375 -1.09375,0 z m 1.09375,0 0,-1.09375 1.09375,0 0,1.09375 -1.09375,0 z m -3.28125,1.09375 0,-1.09375 1.09375,0 0,1.09375 -1.09375,0 z m 0,1.09375 0,-1.09375 1.09375,0 0,1.09375 -1.09375,0 z m 0,1.09375 0,-1.09375 1.09375,0 0,1.09375 -1.09375,0 z m 0,1.09375 0,-1.09375 1.09375,0 0,1.09375 -1.09375,0 z m 0,1.09375 0,-1.09375 1.09375,0 0,1.09375 -1.09375,0 z m 0,1.09375 0,-1.09375 1.09375,0 0,1.09375 -1.09375,0 z m 0,1.09375 0,-1.09375 1.09375,0 0,1.09375 -1.09375,0 z"
         style="font-size:17.5px"
         id="path4269"
         inkscape:connector-curvature="0" />
      <path
         d="m 219.63815,155.15237 0,-1.09375 1.09375,0 0,1.09375 -1.09375,0 z m 5.46875,0 0,-1.09375 1.09375,0 0,1.09375 -1.09375,0 z m -5.46875,1.09375 0,-1.09375 1.09375,0 0,1.09375 -1.09375,0 z m 5.46875,0 0,-1.09375 1.09375,0 0,1.09375 -1.09375,0 z m -5.46875,1.09375 0,-1.09375 1.09375,0 0,1.09375 -1.09375,0 z m 5.46875,0 0,-1.09375 1.09375,0 0,1.09375 -1.09375,0 z m -5.46875,1.09375 0,-1.09375 1.09375,0 0,1.09375 -1.09375,0 z m 5.46875,0 0,-1.09375 1.09375,0 0,1.09375 -1.09375,0 z m -5.46875,1.09375 0,-1.09375 1.09375,0 0,1.09375 -1.09375,0 z m 5.46875,0 0,-1.09375 1.09375,0 0,1.09375 -1.09375,0 z m -5.46875,1.09375 0,-1.09375 1.09375,0 0,1.09375 -1.09375,0 z m 5.46875,0 0,-1.09375 1.09375,0 0,1.09375 -1.09375,0 z m -5.46875,1.09375 0,-1.09375 1.09375,0 0,1.09375 -1.09375,0 z m 5.46875,0 0,-1.09375 1.09375,0 0,1.09375 -1.09375,0 z m -4.375,1.09375 0,-1.09375 1.09375,0 0,1.09375 -1.09375,0 z m 1.09375,0 0,-1.09375 1.09375,0 0,1.09375 -1.09375,0 z m 1.09375,0 0,-1.09375 1.09375,0 0,1.09375 -1.09375,0 z m 1.09375,0 0,-1.09375 1.09375,0 0,1.09375 -1.09375,0 z"
         style="font-size:17.5px"
         id="path4271"
         inkscape:connector-curvature="0" />
      <path
         d="m 226.20065,155.15237 0,-1.09375 1.09375,0 0,1.09375 -1.09375,0 z m 6.5625,0 0,-1.09375 1.09375,0 0,1.09375 -1.09375,0 z m -6.5625,1.09375 0,-1.09375 1.09375,0 0,1.09375 -1.09375,0 z m 6.5625,0 0,-1.09375 1.09375,0 0,1.09375 -1.09375,0 z m -5.46875,1.09375 0,-1.09375 1.09375,0 0,1.09375 -1.09375,0 z m 4.375,0 0,-1.09375 1.09375,0 0,1.09375 -1.09375,0 z m -4.375,1.09375 0,-1.09375 1.09375,0 0,1.09375 -1.09375,0 z m 4.375,0 0,-1.09375 1.09375,0 0,1.09375 -1.09375,0 z m -3.28125,1.09375 0,-1.09375 1.09375,0 0,1.09375 -1.09375,0 z m 2.1875,0 0,-1.09375 1.09375,0 0,1.09375 -1.09375,0 z m -2.1875,1.09375 0,-1.09375 1.09375,0 0,1.09375 -1.09375,0 z m 2.1875,0 0,-1.09375 1.09375,0 0,1.09375 -1.09375,0 z m -1.09375,1.09375 0,-1.09375 1.09375,0 0,1.09375 -1.09375,0 z m 0,1.09375 0,-1.09375 1.09375,0 0,1.09375 -1.09375,0 z"
         style="font-size:17.5px"
         id="path4273"
         inkscape:connector-curvature="0" />
      <path
         d="m 233.8569,155.15237 0,-1.09375 1.09375,0 0,1.09375 -1.09375,0 z m 6.5625,0 0,-1.09375 1.09375,0 0,1.09375 -1.09375,0 z m -6.5625,1.09375 0,-1.09375 1.09375,0 0,1.09375 -1.09375,0 z m 3.28125,0 0,-1.09375 1.09375,0 0,1.09375 -1.09375,0 z m 3.28125,0 0,-1.09375 1.09375,0 0,1.09375 -1.09375,0 z m -6.5625,1.09375 0,-1.09375 1.09375,0 0,1.09375 -1.09375,0 z m 3.28125,0 0,-1.09375 1.09375,0 0,1.09375 -1.09375,0 z m 3.28125,0 0,-1.09375 1.09375,0 0,1.09375 -1.09375,0 z m -6.5625,1.09375 0,-1.09375 1.09375,0 0,1.09375 -1.09375,0 z m 2.1875,0 0,-1.09375 1.09375,0 0,1.09375 -1.09375,0 z m 2.1875,0 0,-1.09375 1.09375,0 0,1.09375 -1.09375,0 z m 2.1875,0 0,-1.09375 1.09375,0 0,1.09375 -1.09375,0 z m -6.5625,1.09375 0,-1.09375 1.09375,0 0,1.09375 -1.09375,0 z m 2.1875,0 0,-1.09375 1.09375,0 0,1.09375 -1.09375,0 z m 2.1875,0 0,-1.09375 1.09375,0 0,1.09375 -1.09375,0 z m 2.1875,0 0,-1.09375 1.09375,0 0,1.09375 -1.09375,0 z m -5.46875,1.09375 0,-1.09375 1.09375,0 0,1.09375 -1.09375,0 z m 1.09375,0 0,-1.09375 1.09375,0 0,1.09375 -1.09375,0 z m 2.1875,0 0,-1.09375 1.09375,0 0,1.09375 -1.09375,0 z m 1.09375,0 0,-1.09375 1.09375,0 0,1.09375 -1.09375,0 z m -4.375,1.09375 0,-1.09375 1.09375,0 0,1.09375 -1.09375,0 z m 4.375,0 0,-1.09375 1.09375,0 0,1.09375 -1.09375,0 z m -4.375,1.09375 0,-1.09375 1.09375,0 0,1.09375 -1.09375,0 z m 4.375,0 0,-1.09375 1.09375,0 0,1.09375 -1.09375,0 z"
         style="font-size:17.5px"
         id="path4275"
         inkscape:connector-curvature="0" />
      <path
         d="m 242.6069,155.15237 0,-1.09375 1.09375,0 0,1.09375 -1.09375,0 z m 5.46875,0 0,-1.09375 1.09375,0 0,1.09375 -1.09375,0 z m -5.46875,1.09375 0,-1.09375 1.09375,0 0,1.09375 -1.09375,0 z m 5.46875,0 0,-1.09375 1.09375,0 0,1.09375 -1.09375,0 z m -4.375,1.09375 0,-1.09375 1.09375,0 0,1.09375 -1.09375,0 z m 3.28125,0 0,-1.09375 1.09375,0 0,1.09375 -1.09375,0 z m -2.1875,1.09375 0,-1.09375 1.09375,0 0,1.09375 -1.09375,0 z m 1.09375,0 0,-1.09375 1.09375,0 0,1.09375 -1.09375,0 z m -1.09375,1.09375 0,-1.09375 1.09375,0 0,1.09375 -1.09375,0 z m 1.09375,0 0,-1.09375 1.09375,0 0,1.09375 -1.09375,0 z m -2.1875,1.09375 0,-1.09375 1.09375,0 0,1.09375 -1.09375,0 z m 3.28125,0 0,-1.09375 1.09375,0 0,1.09375 -1.09375,0 z m -4.375,1.09375 0,-1.09375 1.09375,0 0,1.09375 -1.09375,0 z m 5.46875,0 0,-1.09375 1.09375,0 0,1.09375 -1.09375,0 z m -5.46875,1.09375 0,-1.09375 1.09375,0 0,1.09375 -1.09375,0 z m 5.46875,0 0,-1.09375 1.09375,0 0,1.09375 -1.09375,0 z"
         style="font-size:17.5px"
         id="path4277"
         inkscape:connector-curvature="0" />
      <path
         d="m 249.1694,155.15237 0,-1.09375 1.09375,0 0,1.09375 -1.09375,0 z m 6.5625,0 0,-1.09375 1.09375,0 0,1.09375 -1.09375,0 z m -6.5625,1.09375 0,-1.09375 1.09375,0 0,1.09375 -1.09375,0 z m 6.5625,0 0,-1.09375 1.09375,0 0,1.09375 -1.09375,0 z m -5.46875,1.09375 0,-1.09375 1.09375,0 0,1.09375 -1.09375,0 z m 4.375,0 0,-1.09375 1.09375,0 0,1.09375 -1.09375,0 z m -3.28125,1.09375 0,-1.09375 1.09375,0 0,1.09375 -1.09375,0 z m 2.1875,0 0,-1.09375 1.09375,0 0,1.09375 -1.09375,0 z m -1.09375,1.09375 0,-1.09375 1.09375,0 0,1.09375 -1.09375,0 z m 0,1.09375 0,-1.09375 1.09375,0 0,1.09375 -1.09375,0 z m 0,1.09375 0,-1.09375 1.09375,0 0,1.09375 -1.09375,0 z m 0,1.09375 0,-1.09375 1.09375,0 0,1.09375 -1.09375,0 z"
         style="font-size:17.5px"
         id="path4279"
         inkscape:connector-curvature="0" />
      <path
         d="m 257.9194,155.15237 0,-1.09375 1.09375,0 0,1.09375 -1.09375,0 z m 1.09375,0 0,-1.09375 1.09375,0 0,1.09375 -1.09375,0 z m 1.09375,0 0,-1.09375 1.09375,0 0,1.09375 -1.09375,0 z m 1.09375,0 0,-1.09375 1.09375,0 0,1.09375 -1.09375,0 z m 1.09375,0 0,-1.09375 1.09375,0 0,1.09375 -1.09375,0 z m 1.09375,0 0,-1.09375 1.09375,0 0,1.09375 -1.09375,0 z m 0,1.09375 0,-1.09375 1.09375,0 0,1.09375 -1.09375,0 z m -1.09375,1.09375 0,-1.09375 1.09375,0 0,1.09375 -1.09375,0 z m -1.09375,1.09375 0,-1.09375 1.09375,0 0,1.09375 -1.09375,0 z m -1.09375,1.09375 0,-1.09375 1.09375,0 0,1.09375 -1.09375,0 z m -1.09375,1.09375 0,-1.09375 1.09375,0 0,1.09375 -1.09375,0 z m -1.09375,1.09375 0,-1.09375 1.09375,0 0,1.09375 -1.09375,0 z m 0,1.09375 0,-1.09375 1.09375,0 0,1.09375 -1.09375,0 z m 1.09375,0 0,-1.09375 1.09375,0 0,1.09375 -1.09375,0 z m 1.09375,0 0,-1.09375 1.09375,0 0,1.09375 -1.09375,0 z m 1.09375,0 0,-1.09375 1.09375,0 0,1.09375 -1.09375,0 z m 1.09375,0 0,-1.09375 1.09375,0 0,1.09375 -1.09375,0 z m 1.09375,0 0,-1.09375 1.09375,0 0,1.09375 -1.09375,0 z"
         style="font-size:17.5px"
         id="path4281"
         inkscape:connector-curvature="0" />
      <path
         d="m 67.606903,179.21487 0,-1.09375 1.09375,0 0,1.09375 -1.09375,0 z m 1.09375,0 0,-1.09375 1.09375,0 0,1.09375 -1.09375,0 z m 1.09375,0 0,-1.09375 1.09375,0 0,1.09375 -1.09375,0 z m -3.28125,1.09375 0,-1.09375 1.09375,0 0,1.09375 -1.09375,0 z m 4.375,0 0,-1.09375 1.09375,0 0,1.09375 -1.09375,0 z m -4.375,1.09375 0,-1.09375 1.09375,0 0,1.09375 -1.09375,0 z m 4.375,0 0,-1.09375 1.09375,0 0,1.09375 -1.09375,0 z m -4.375,1.09375 0,-1.09375 1.09375,0 0,1.09375 -1.09375,0 z m 4.375,0 0,-1.09375 1.09375,0 0,1.09375 -1.09375,0 z m -4.375,1.09375 0,-1.09375 1.09375,0 0,1.09375 -1.09375,0 z m 4.375,0 0,-1.09375 1.09375,0 0,1.09375 -1.09375,0 z m -3.28125,1.09375 0,-1.09375 1.09375,0 0,1.09375 -1.09375,0 z m 1.09375,0 0,-1.09375 1.09375,0 0,1.09375 -1.09375,0 z m 1.09375,0 0,-1.09375 1.09375,0 0,1.09375 -1.09375,0 z"
         style="font-size:17.5px"
         id="path4283"
         inkscape:connector-curvature="0" />
      <path
         d="m 76.356903,177.02737 0,-1.09375 1.09375,0 0,1.09375 -1.09375,0 z m 1.09375,0 0,-1.09375 1.09375,0 0,1.09375 -1.09375,0 z m -2.1875,1.09375 0,-1.09375 1.09375,0 0,1.09375 -1.09375,0 z m 3.28125,0 0,-1.09375 1.09375,0 0,1.09375 -1.09375,0 z m -4.375,1.09375 0,-1.09375 1.09375,0 0,1.09375 -1.09375,0 z m 5.46875,0 0,-1.09375 1.09375,0 0,1.09375 -1.09375,0 z m -5.46875,1.09375 0,-1.09375 1.09375,0 0,1.09375 -1.09375,0 z m 5.46875,0 0,-1.09375 1.09375,0 0,1.09375 -1.09375,0 z m -5.46875,1.09375 0,-1.09375 1.09375,0 0,1.09375 -1.09375,0 z m 5.46875,0 0,-1.09375 1.09375,0 0,1.09375 -1.09375,0 z m -5.46875,1.09375 0,-1.09375 1.09375,0 0,1.09375 -1.09375,0 z m 5.46875,0 0,-1.09375 1.09375,0 0,1.09375 -1.09375,0 z m -4.375,1.09375 0,-1.09375 1.09375,0 0,1.09375 -1.09375,0 z m 3.28125,0 0,-1.09375 1.09375,0 0,1.09375 -1.09375,0 z m -2.1875,1.09375 0,-1.09375 1.09375,0 0,1.09375 -1.09375,0 z m 1.09375,0 0,-1.09375 1.09375,0 0,1.09375 -1.09375,0 z"
         style="font-size:17.5px"
         id="path4285"
         inkscape:connector-curvature="0" />
      <path
         d="m 82.919403,177.02737 0,-1.09375 1.09375,0 0,1.09375 -1.09375,0 z m 1.09375,0 0,-1.09375 1.09375,0 0,1.09375 -1.09375,0 z m 1.09375,0 0,-1.09375 1.09375,0 0,1.09375 -1.09375,0 z m -3.28125,1.09375 0,-1.09375 1.09375,0 0,1.09375 -1.09375,0 z m 4.375,0 0,-1.09375 1.09375,0 0,1.09375 -1.09375,0 z m -4.375,1.09375 0,-1.09375 1.09375,0 0,1.09375 -1.09375,0 z m 4.375,0 0,-1.09375 1.09375,0 0,1.09375 -1.09375,0 z m -4.375,1.09375 0,-1.09375 1.09375,0 0,1.09375 -1.09375,0 z m 2.1875,0 0,-1.09375 1.09375,0 0,1.09375 -1.09375,0 z m 2.1875,0 0,-1.09375 1.09375,0 0,1.09375 -1.09375,0 z m -4.375,1.09375 0,-1.09375 1.09375,0 0,1.09375 -1.09375,0 z m 2.1875,0 0,-1.09375 1.09375,0 0,1.09375 -1.09375,0 z m 2.1875,0 0,-1.09375 1.09375,0 0,1.09375 -1.09375,0 z m -4.375,1.09375 0,-1.09375 1.09375,0 0,1.09375 -1.09375,0 z m 4.375,0 0,-1.09375 1.09375,0 0,1.09375 -1.09375,0 z m -4.375,1.09375 0,-1.09375 1.09375,0 0,1.09375 -1.09375,0 z m 4.375,0 0,-1.09375 1.09375,0 0,1.09375 -1.09375,0 z m -3.28125,1.09375 0,-1.09375 1.09375,0 0,1.09375 -1.09375,0 z m 1.09375,0 0,-1.09375 1.09375,0 0,1.09375 -1.09375,0 z m 1.09375,0 0,-1.09375 1.09375,0 0,1.09375 -1.09375,0 z"
         style="font-size:17.5px"
         id="path4287"
         inkscape:connector-curvature="0" />
      <path
         d="m 90.575653,177.02737 0,-1.09375 1.09375,0 0,1.09375 -1.09375,0 z m 1.09375,0 0,-1.09375 1.09375,0 0,1.09375 -1.09375,0 z m 1.09375,0 0,-1.09375 1.09375,0 0,1.09375 -1.09375,0 z m -3.28125,1.09375 0,-1.09375 1.09375,0 0,1.09375 -1.09375,0 z m 4.375,0 0,-1.09375 1.09375,0 0,1.09375 -1.09375,0 z m -4.375,1.09375 0,-1.09375 1.09375,0 0,1.09375 -1.09375,0 z m 4.375,0 0,-1.09375 1.09375,0 0,1.09375 -1.09375,0 z m -3.28125,1.09375 0,-1.09375 1.09375,0 0,1.09375 -1.09375,0 z m 1.09375,0 0,-1.09375 1.09375,0 0,1.09375 -1.09375,0 z m 1.09375,0 0,-1.09375 1.09375,0 0,1.09375 -1.09375,0 z m -3.28125,1.09375 0,-1.09375 1.09375,0 0,1.09375 -1.09375,0 z m 4.375,0 0,-1.09375 1.09375,0 0,1.09375 -1.09375,0 z m -4.375,1.09375 0,-1.09375 1.09375,0 0,1.09375 -1.09375,0 z m 4.375,0 0,-1.09375 1.09375,0 0,1.09375 -1.09375,0 z m -4.375,1.09375 0,-1.09375 1.09375,0 0,1.09375 -1.09375,0 z m 4.375,0 0,-1.09375 1.09375,0 0,1.09375 -1.09375,0 z m -3.28125,1.09375 0,-1.09375 1.09375,0 0,1.09375 -1.09375,0 z m 1.09375,0 0,-1.09375 1.09375,0 0,1.09375 -1.09375,0 z m 1.09375,0 0,-1.09375 1.09375,0 0,1.09375 -1.09375,0 z"
         style="font-size:17.5px"
         id="path4289"
         inkscape:connector-curvature="0" />
      <path
         d="m 106.9819,175.93362 0,-1.09375 1.09375,0 0,1.09375 -1.09375,0 z m -1.09375,3.28125 0,-1.09375 1.09375,0 0,1.09375 -1.09375,0 z m 1.09375,0 0,-1.09375 1.09375,0 0,1.09375 -1.09375,0 z m 0,1.09375 0,-1.09375 1.09375,0 0,1.09375 -1.09375,0 z m 0,1.09375 0,-1.09375 1.09375,0 0,1.09375 -1.09375,0 z m 0,1.09375 0,-1.09375 1.09375,0 0,1.09375 -1.09375,0 z m 0,1.09375 0,-1.09375 1.09375,0 0,1.09375 -1.09375,0 z m 0,1.09375 0,-1.09375 1.09375,0 0,1.09375 -1.09375,0 z"
         style="font-size:17.5px"
         id="path4291"
         inkscape:connector-curvature="0" />
      <path
         d="m 113.5444,177.02737 0,-1.09375 1.09375,0 0,1.09375 -1.09375,0 z m 1.09375,0 0,-1.09375 1.09375,0 0,1.09375 -1.09375,0 z m 1.09375,0 0,-1.09375 1.09375,0 0,1.09375 -1.09375,0 z m -1.09375,1.09375 0,-1.09375 1.09375,0 0,1.09375 -1.09375,0 z m 0,1.09375 0,-1.09375 1.09375,0 0,1.09375 -1.09375,0 z m 0,1.09375 0,-1.09375 1.09375,0 0,1.09375 -1.09375,0 z m 0,1.09375 0,-1.09375 1.09375,0 0,1.09375 -1.09375,0 z m 0,1.09375 0,-1.09375 1.09375,0 0,1.09375 -1.09375,0 z m 0,1.09375 0,-1.09375 1.09375,0 0,1.09375 -1.09375,0 z m -1.09375,1.09375 0,-1.09375 1.09375,0 0,1.09375 -1.09375,0 z m 1.09375,0 0,-1.09375 1.09375,0 0,1.09375 -1.09375,0 z m 1.09375,0 0,-1.09375 1.09375,0 0,1.09375 -1.09375,0 z"
         style="font-size:17.5px"
         id="path4293"
         inkscape:connector-curvature="0" />
      <path
         d="m 121.20065,175.93362 0,-1.09375 1.09375,0 0,1.09375 -1.09375,0 z m 1.09375,0 0,-1.09375 1.09375,0 0,1.09375 -1.09375,0 z m 0,1.09375 0,-1.09375 1.09375,0 0,1.09375 -1.09375,0 z m 0,1.09375 0,-1.09375 1.09375,0 0,1.09375 -1.09375,0 z m 0,1.09375 0,-1.09375 1.09375,0 0,1.09375 -1.09375,0 z m 0,1.09375 0,-1.09375 1.09375,0 0,1.09375 -1.09375,0 z m 0,1.09375 0,-1.09375 1.09375,0 0,1.09375 -1.09375,0 z m 0,1.09375 0,-1.09375 1.09375,0 0,1.09375 -1.09375,0 z m 0,1.09375 0,-1.09375 1.09375,0 0,1.09375 -1.09375,0 z m 0,1.09375 0,-1.09375 1.09375,0 0,1.09375 -1.09375,0 z"
         style="font-size:17.5px"
         id="path4295"
         inkscape:connector-curvature="0" />
      <path
         d="m 127.76315,177.02737 0,-1.09375 1.09375,0 0,1.09375 -1.09375,0 z m 0,1.09375 0,-1.09375 1.09375,0 0,1.09375 -1.09375,0 z m 0,1.09375 0,-1.09375 1.09375,0 0,1.09375 -1.09375,0 z m 0,1.09375 0,-1.09375 1.09375,0 0,1.09375 -1.09375,0 z m 0,1.09375 0,-1.09375 1.09375,0 0,1.09375 -1.09375,0 z m 0,1.09375 0,-1.09375 1.09375,0 0,1.09375 -1.09375,0 z m 0,1.09375 0,-1.09375 1.09375,0 0,1.09375 -1.09375,0 z m 0,1.09375 0,-1.09375 1.09375,0 0,1.09375 -1.09375,0 z m 1.09375,0 0,-1.09375 1.09375,0 0,1.09375 -1.09375,0 z m 1.09375,0 0,-1.09375 1.09375,0 0,1.09375 -1.09375,0 z m 1.09375,0 0,-1.09375 1.09375,0 0,1.09375 -1.09375,0 z m 1.09375,0 0,-1.09375 1.09375,0 0,1.09375 -1.09375,0 z"
         style="font-size:17.5px"
         id="path4297"
         inkscape:connector-curvature="0" />
      <path
         d="m 137.6069,177.02737 0,-1.09375 1.09375,0 0,1.09375 -1.09375,0 z m -1.09375,1.09375 0,-1.09375 1.09375,0 0,1.09375 -1.09375,0 z m 1.09375,0 0,-1.09375 1.09375,0 0,1.09375 -1.09375,0 z m -2.1875,1.09375 0,-1.09375 1.09375,0 0,1.09375 -1.09375,0 z m 2.1875,0 0,-1.09375 1.09375,0 0,1.09375 -1.09375,0 z m 0,1.09375 0,-1.09375 1.09375,0 0,1.09375 -1.09375,0 z m 0,1.09375 0,-1.09375 1.09375,0 0,1.09375 -1.09375,0 z m 0,1.09375 0,-1.09375 1.09375,0 0,1.09375 -1.09375,0 z m 0,1.09375 0,-1.09375 1.09375,0 0,1.09375 -1.09375,0 z m -2.1875,1.09375 0,-1.09375 1.09375,0 0,1.09375 -1.09375,0 z m 1.09375,0 0,-1.09375 1.09375,0 0,1.09375 -1.09375,0 z m 1.09375,0 0,-1.09375 1.09375,0 0,1.09375 -1.09375,0 z m 1.09375,0 0,-1.09375 1.09375,0 0,1.09375 -1.09375,0 z m 1.09375,0 0,-1.09375 1.09375,0 0,1.09375 -1.09375,0 z"
         style="font-size:17.5px"
         id="path4299"
         inkscape:connector-curvature="0" />
      <path
         d="m 154.01315,175.93362 0,-1.09375 1.09375,0 0,1.09375 -1.09375,0 z m 1.09375,0 0,-1.09375 1.09375,0 0,1.09375 -1.09375,0 z m -2.1875,1.09375 0,-1.09375 1.09375,0 0,1.09375 -1.09375,0 z m 0,1.09375 0,-1.09375 1.09375,0 0,1.09375 -1.09375,0 z m 0,1.09375 0,-1.09375 1.09375,0 0,1.09375 -1.09375,0 z m 0,1.09375 0,-1.09375 1.09375,0 0,1.09375 -1.09375,0 z m -2.1875,1.09375 0,-1.09375 1.09375,0 0,1.09375 -1.09375,0 z m 1.09375,0 0,-1.09375 1.09375,0 0,1.09375 -1.09375,0 z m 1.09375,1.09375 0,-1.09375 1.09375,0 0,1.09375 -1.09375,0 z m 0,1.09375 0,-1.09375 1.09375,0 0,1.09375 -1.09375,0 z m 0,1.09375 0,-1.09375 1.09375,0 0,1.09375 -1.09375,0 z m 0,1.09375 0,-1.09375 1.09375,0 0,1.09375 -1.09375,0 z m 1.09375,1.09375 0,-1.09375 1.09375,0 0,1.09375 -1.09375,0 z m 1.09375,0 0,-1.09375 1.09375,0 0,1.09375 -1.09375,0 z"
         style="font-size:17.5px"
         id="path4301"
         inkscape:connector-curvature="0" />
      <path
         d="m 158.38815,175.93362 0,-1.09375 1.09375,0 0,1.09375 -1.09375,0 z m 1.09375,0 0,-1.09375 1.09375,0 0,1.09375 -1.09375,0 z m 1.09375,1.09375 0,-1.09375 1.09375,0 0,1.09375 -1.09375,0 z m 0,1.09375 0,-1.09375 1.09375,0 0,1.09375 -1.09375,0 z m 0,1.09375 0,-1.09375 1.09375,0 0,1.09375 -1.09375,0 z m 0,1.09375 0,-1.09375 1.09375,0 0,1.09375 -1.09375,0 z m 1.09375,1.09375 0,-1.09375 1.09375,0 0,1.09375 -1.09375,0 z m 1.09375,0 0,-1.09375 1.09375,0 0,1.09375 -1.09375,0 z m -2.1875,1.09375 0,-1.09375 1.09375,0 0,1.09375 -1.09375,0 z m 0,1.09375 0,-1.09375 1.09375,0 0,1.09375 -1.09375,0 z m 0,1.09375 0,-1.09375 1.09375,0 0,1.09375 -1.09375,0 z m 0,1.09375 0,-1.09375 1.09375,0 0,1.09375 -1.09375,0 z m -2.1875,1.09375 0,-1.09375 1.09375,0 0,1.09375 -1.09375,0 z m 1.09375,0 0,-1.09375 1.09375,0 0,1.09375 -1.09375,0 z"
         style="font-size:17.5px"
         id="path4303"
         inkscape:connector-curvature="0" />
      <path
         d="m 174.7944,175.93362 0,-1.09375 1.09375,0 0,1.09375 -1.09375,0 z m 1.09375,0 0,-1.09375 1.09375,0 0,1.09375 -1.09375,0 z m 1.09375,0 0,-1.09375 1.09375,0 0,1.09375 -1.09375,0 z m -2.1875,1.09375 0,-1.09375 1.09375,0 0,1.09375 -1.09375,0 z m 0,1.09375 0,-1.09375 1.09375,0 0,1.09375 -1.09375,0 z m 0,1.09375 0,-1.09375 1.09375,0 0,1.09375 -1.09375,0 z m 0,1.09375 0,-1.09375 1.09375,0 0,1.09375 -1.09375,0 z m 0,1.09375 0,-1.09375 1.09375,0 0,1.09375 -1.09375,0 z m 0,1.09375 0,-1.09375 1.09375,0 0,1.09375 -1.09375,0 z m 0,1.09375 0,-1.09375 1.09375,0 0,1.09375 -1.09375,0 z m 0,1.09375 0,-1.09375 1.09375,0 0,1.09375 -1.09375,0 z m 0,1.09375 0,-1.09375 1.09375,0 0,1.09375 -1.09375,0 z m 0,1.09375 0,-1.09375 1.09375,0 0,1.09375 -1.09375,0 z m 1.09375,0 0,-1.09375 1.09375,0 0,1.09375 -1.09375,0 z m 1.09375,0 0,-1.09375 1.09375,0 0,1.09375 -1.09375,0 z"
         style="font-size:17.5px"
         id="path4305"
         inkscape:connector-curvature="0" />
      <path
         d="m 182.45065,175.93362 0,-1.09375 1.09375,0 0,1.09375 -1.09375,0 z m 1.09375,0 0,-1.09375 1.09375,0 0,1.09375 -1.09375,0 z m 1.09375,0 0,-1.09375 1.09375,0 0,1.09375 -1.09375,0 z m 0,1.09375 0,-1.09375 1.09375,0 0,1.09375 -1.09375,0 z m 0,1.09375 0,-1.09375 1.09375,0 0,1.09375 -1.09375,0 z m 0,1.09375 0,-1.09375 1.09375,0 0,1.09375 -1.09375,0 z m 0,1.09375 0,-1.09375 1.09375,0 0,1.09375 -1.09375,0 z m 0,1.09375 0,-1.09375 1.09375,0 0,1.09375 -1.09375,0 z m 0,1.09375 0,-1.09375 1.09375,0 0,1.09375 -1.09375,0 z m 0,1.09375 0,-1.09375 1.09375,0 0,1.09375 -1.09375,0 z m 0,1.09375 0,-1.09375 1.09375,0 0,1.09375 -1.09375,0 z m 0,1.09375 0,-1.09375 1.09375,0 0,1.09375 -1.09375,0 z m -2.1875,1.09375 0,-1.09375 1.09375,0 0,1.09375 -1.09375,0 z m 1.09375,0 0,-1.09375 1.09375,0 0,1.09375 -1.09375,0 z m 1.09375,0 0,-1.09375 1.09375,0 0,1.09375 -1.09375,0 z"
         style="font-size:17.5px"
         id="path4307"
         inkscape:connector-curvature="0" />
      <path
         d="m 197.76315,179.21487 0,-1.09375 1.09375,0 0,1.09375 -1.09375,0 z m 1.09375,0 0,-1.09375 1.09375,0 0,1.09375 -1.09375,0 z m 1.09375,0 0,-1.09375 1.09375,0 0,1.09375 -1.09375,0 z m 1.09375,0 0,-1.09375 1.09375,0 0,1.09375 -1.09375,0 z m -4.375,1.09375 0,-1.09375 1.09375,0 0,1.09375 -1.09375,0 z m 4.375,0 0,-1.09375 1.09375,0 0,1.09375 -1.09375,0 z m -4.375,1.09375 0,-1.09375 1.09375,0 0,1.09375 -1.09375,0 z m 4.375,0 0,-1.09375 1.09375,0 0,1.09375 -1.09375,0 z m -4.375,1.09375 0,-1.09375 1.09375,0 0,1.09375 -1.09375,0 z m 4.375,0 0,-1.09375 1.09375,0 0,1.09375 -1.09375,0 z m -4.375,1.09375 0,-1.09375 1.09375,0 0,1.09375 -1.09375,0 z m 4.375,0 0,-1.09375 1.09375,0 0,1.09375 -1.09375,0 z m -3.28125,1.09375 0,-1.09375 1.09375,0 0,1.09375 -1.09375,0 z m 1.09375,0 0,-1.09375 1.09375,0 0,1.09375 -1.09375,0 z m 1.09375,0 0,-1.09375 1.09375,0 0,1.09375 -1.09375,0 z m 1.09375,0 0,-1.09375 1.09375,0 0,1.09375 -1.09375,0 z m 0,1.09375 0,-1.09375 1.09375,0 0,1.09375 -1.09375,0 z m 0,1.09375 0,-1.09375 1.09375,0 0,1.09375 -1.09375,0 z m -3.28125,1.09375 0,-1.09375 1.09375,0 0,1.09375 -1.09375,0 z m 1.09375,0 0,-1.09375 1.09375,0 0,1.09375 -1.09375,0 z m 1.09375,0 0,-1.09375 1.09375,0 0,1.09375 -1.09375,0 z"
         style="font-size:17.5px"
         id="path4309"
         inkscape:connector-curvature="0" />
      <path
         d="m 205.4194,177.02737 0,-1.09375 1.09375,0 0,1.09375 -1.09375,0 z m 1.09375,0 0,-1.09375 1.09375,0 0,1.09375 -1.09375,0 z m 1.09375,0 0,-1.09375 1.09375,0 0,1.09375 -1.09375,0 z m -3.28125,1.09375 0,-1.09375 1.09375,0 0,1.09375 -1.09375,0 z m 4.375,0 0,-1.09375 1.09375,0 0,1.09375 -1.09375,0 z m -4.375,1.09375 0,-1.09375 1.09375,0 0,1.09375 -1.09375,0 z m 4.375,0 0,-1.09375 1.09375,0 0,1.09375 -1.09375,0 z m -4.375,1.09375 0,-1.09375 1.09375,0 0,1.09375 -1.09375,0 z m 4.375,0 0,-1.09375 1.09375,0 0,1.09375 -1.09375,0 z m -3.28125,1.09375 0,-1.09375 1.09375,0 0,1.09375 -1.09375,0 z m 1.09375,0 0,-1.09375 1.09375,0 0,1.09375 -1.09375,0 z m 1.09375,0 0,-1.09375 1.09375,0 0,1.09375 -1.09375,0 z m 1.09375,0 0,-1.09375 1.09375,0 0,1.09375 -1.09375,0 z m 0,1.09375 0,-1.09375 1.09375,0 0,1.09375 -1.09375,0 z m -1.09375,1.09375 0,-1.09375 1.09375,0 0,1.09375 -1.09375,0 z m -2.1875,1.09375 0,-1.09375 1.09375,0 0,1.09375 -1.09375,0 z m 1.09375,0 0,-1.09375 1.09375,0 0,1.09375 -1.09375,0 z"
         style="font-size:17.5px"
         id="path4311"
         inkscape:connector-curvature="0" />
      <path
         d="m 213.07565,179.21487 0,-1.09375 1.09375,0 0,1.09375 -1.09375,0 z m 1.09375,0 0,-1.09375 1.09375,0 0,1.09375 -1.09375,0 z m 1.09375,0 0,-1.09375 1.09375,0 0,1.09375 -1.09375,0 z m 1.09375,0 0,-1.09375 1.09375,0 0,1.09375 -1.09375,0 z m -4.375,1.09375 0,-1.09375 1.09375,0 0,1.09375 -1.09375,0 z m 4.375,0 0,-1.09375 1.09375,0 0,1.09375 -1.09375,0 z m -4.375,1.09375 0,-1.09375 1.09375,0 0,1.09375 -1.09375,0 z m 4.375,0 0,-1.09375 1.09375,0 0,1.09375 -1.09375,0 z m -4.375,1.09375 0,-1.09375 1.09375,0 0,1.09375 -1.09375,0 z m 4.375,0 0,-1.09375 1.09375,0 0,1.09375 -1.09375,0 z m -4.375,1.09375 0,-1.09375 1.09375,0 0,1.09375 -1.09375,0 z m 4.375,0 0,-1.09375 1.09375,0 0,1.09375 -1.09375,0 z m -3.28125,1.09375 0,-1.09375 1.09375,0 0,1.09375 -1.09375,0 z m 1.09375,0 0,-1.09375 1.09375,0 0,1.09375 -1.09375,0 z m 1.09375,0 0,-1.09375 1.09375,0 0,1.09375 -1.09375,0 z m 1.09375,0 0,-1.09375 1.09375,0 0,1.09375 -1.09375,0 z m 0,1.09375 0,-1.09375 1.09375,0 0,1.09375 -1.09375,0 z m 0,1.09375 0,-1.09375 1.09375,0 0,1.09375 -1.09375,0 z m 0,1.09375 0,-1.09375 1.09375,0 0,1.09375 -1.09375,0 z"
         style="font-size:17.5px"
         id="path4313"
         inkscape:connector-curvature="0" />
      <path
         d="m 221.82565,177.02737 0,-1.09375 1.09375,0 0,1.09375 -1.09375,0 z m 1.09375,0 0,-1.09375 1.09375,0 0,1.09375 -1.09375,0 z m 1.09375,0 0,-1.09375 1.09375,0 0,1.09375 -1.09375,0 z m -3.28125,1.09375 0,-1.09375 1.09375,0 0,1.09375 -1.09375,0 z m 4.375,0 0,-1.09375 1.09375,0 0,1.09375 -1.09375,0 z m -5.46875,1.09375 0,-1.09375 1.09375,0 0,1.09375 -1.09375,0 z m 0,1.09375 0,-1.09375 1.09375,0 0,1.09375 -1.09375,0 z m 0,1.09375 0,-1.09375 1.09375,0 0,1.09375 -1.09375,0 z m 0,1.09375 0,-1.09375 1.09375,0 0,1.09375 -1.09375,0 z m 1.09375,1.09375 0,-1.09375 1.09375,0 0,1.09375 -1.09375,0 z m 4.375,0 0,-1.09375 1.09375,0 0,1.09375 -1.09375,0 z m -3.28125,1.09375 0,-1.09375 1.09375,0 0,1.09375 -1.09375,0 z m 1.09375,0 0,-1.09375 1.09375,0 0,1.09375 -1.09375,0 z m 1.09375,0 0,-1.09375 1.09375,0 0,1.09375 -1.09375,0 z"
         style="font-size:17.5px"
         id="path4315"
         inkscape:connector-curvature="0" />
      <path
         d="m 229.4819,177.02737 0,-1.09375 1.09375,0 0,1.09375 -1.09375,0 z m 1.09375,0 0,-1.09375 1.09375,0 0,1.09375 -1.09375,0 z m 1.09375,0 0,-1.09375 1.09375,0 0,1.09375 -1.09375,0 z m -3.28125,1.09375 0,-1.09375 1.09375,0 0,1.09375 -1.09375,0 z m 4.375,0 0,-1.09375 1.09375,0 0,1.09375 -1.09375,0 z m -5.46875,1.09375 0,-1.09375 1.09375,0 0,1.09375 -1.09375,0 z m 0,1.09375 0,-1.09375 1.09375,0 0,1.09375 -1.09375,0 z m 0,1.09375 0,-1.09375 1.09375,0 0,1.09375 -1.09375,0 z m 3.28125,0 0,-1.09375 1.09375,0 0,1.09375 -1.09375,0 z m 1.09375,0 0,-1.09375 1.09375,0 0,1.09375 -1.09375,0 z m 1.09375,0 0,-1.09375 1.09375,0 0,1.09375 -1.09375,0 z m -5.46875,1.09375 0,-1.09375 1.09375,0 0,1.09375 -1.09375,0 z m 5.46875,0 0,-1.09375 1.09375,0 0,1.09375 -1.09375,0 z m -4.375,1.09375 0,-1.09375 1.09375,0 0,1.09375 -1.09375,0 z m 4.375,0 0,-1.09375 1.09375,0 0,1.09375 -1.09375,0 z m -3.28125,1.09375 0,-1.09375 1.09375,0 0,1.09375 -1.09375,0 z m 1.09375,0 0,-1.09375 1.09375,0 0,1.09375 -1.09375,0 z m 1.09375,0 0,-1.09375 1.09375,0 0,1.09375 -1.09375,0 z"
         style="font-size:17.5px"
         id="path4317"
         inkscape:connector-curvature="0" />
      <path
         d="m 237.13815,177.02737 0,-1.09375 1.09375,0 0,1.09375 -1.09375,0 z m 1.09375,0 0,-1.09375 1.09375,0 0,1.09375 -1.09375,0 z m -2.1875,1.09375 0,-1.09375 1.09375,0 0,1.09375 -1.09375,0 z m 3.28125,0 0,-1.09375 1.09375,0 0,1.09375 -1.09375,0 z m -4.375,1.09375 0,-1.09375 1.09375,0 0,1.09375 -1.09375,0 z m 5.46875,0 0,-1.09375 1.09375,0 0,1.09375 -1.09375,0 z m -5.46875,1.09375 0,-1.09375 1.09375,0 0,1.09375 -1.09375,0 z m 5.46875,0 0,-1.09375 1.09375,0 0,1.09375 -1.09375,0 z m -5.46875,1.09375 0,-1.09375 1.09375,0 0,1.09375 -1.09375,0 z m 5.46875,0 0,-1.09375 1.09375,0 0,1.09375 -1.09375,0 z m -5.46875,1.09375 0,-1.09375 1.09375,0 0,1.09375 -1.09375,0 z m 5.46875,0 0,-1.09375 1.09375,0 0,1.09375 -1.09375,0 z m -4.375,1.09375 0,-1.09375 1.09375,0 0,1.09375 -1.09375,0 z m 3.28125,0 0,-1.09375 1.09375,0 0,1.09375 -1.09375,0 z m -2.1875,1.09375 0,-1.09375 1.09375,0 0,1.09375 -1.09375,0 z m 1.09375,0 0,-1.09375 1.09375,0 0,1.09375 -1.09375,0 z m 2.1875,0 0,-1.09375 1.09375,0 0,1.09375 -1.09375,0 z m 0,1.09375 0,-1.09375 1.09375,0 0,1.09375 -1.09375,0 z"
         style="font-size:17.5px"
         id="path4319"
         inkscape:connector-curvature="0" />
      <path
         d="m 250.26315,180.30862 0,-1.09375 1.09375,0 0,1.09375 -1.09375,0 z m 1.09375,0 0,-1.09375 1.09375,0 0,1.09375 -1.09375,0 z m 1.09375,0 0,-1.09375 1.09375,0 0,1.09375 -1.09375,0 z m 3.28125,0 0,-1.09375 1.09375,0 0,1.09375 -1.09375,0 z m -6.5625,1.09375 0,-1.09375 1.09375,0 0,1.09375 -1.09375,0 z m 3.28125,0 0,-1.09375 1.09375,0 0,1.09375 -1.09375,0 z m 1.09375,0 0,-1.09375 1.09375,0 0,1.09375 -1.09375,0 z m 1.09375,0 0,-1.09375 1.09375,0 0,1.09375 -1.09375,0 z"
         style="font-size:17.5px"
         id="path4321"
         inkscape:connector-curvature="0" />
      <path
         d="m 257.9194,181.40237 0,-1.09375 1.09375,0 0,1.09375 -1.09375,0 z m 1.09375,0 0,-1.09375 1.09375,0 0,1.09375 -1.09375,0 z m 1.09375,0 0,-1.09375 1.09375,0 0,1.09375 -1.09375,0 z m 1.09375,0 0,-1.09375 1.09375,0 0,1.09375 -1.09375,0 z m 1.09375,0 0,-1.09375 1.09375,0 0,1.09375 -1.09375,0 z"
         style="font-size:17.5px"
         id="path4323"
         inkscape:connector-curvature="0" />
      <path
         d="m 267.76315,179.21487 0,-1.09375 1.09375,0 0,1.09375 -1.09375,0 z m 0,1.09375 0,-1.09375 1.09375,0 0,1.09375 -1.09375,0 z m -2.1875,1.09375 0,-1.09375 1.09375,0 0,1.09375 -1.09375,0 z m 1.09375,0 0,-1.09375 1.09375,0 0,1.09375 -1.09375,0 z m 1.09375,0 0,-1.09375 1.09375,0 0,1.09375 -1.09375,0 z m 1.09375,0 0,-1.09375 1.09375,0 0,1.09375 -1.09375,0 z m 1.09375,0 0,-1.09375 1.09375,0 0,1.09375 -1.09375,0 z m -2.1875,1.09375 0,-1.09375 1.09375,0 0,1.09375 -1.09375,0 z m 0,1.09375 0,-1.09375 1.09375,0 0,1.09375 -1.09375,0 z"
         style="font-size:17.5px"
         id="path4325"
         inkscape:connector-curvature="0" />
      <path
         d="m 273.2319,180.30862 0,-1.09375 1.09375,0 0,1.09375 -1.09375,0 z m 1.09375,0 0,-1.09375 1.09375,0 0,1.09375 -1.09375,0 z m 1.09375,0 0,-1.09375 1.09375,0 0,1.09375 -1.09375,0 z m 1.09375,0 0,-1.09375 1.09375,0 0,1.09375 -1.09375,0 z m 1.09375,0 0,-1.09375 1.09375,0 0,1.09375 -1.09375,0 z m 1.09375,0 0,-1.09375 1.09375,0 0,1.09375 -1.09375,0 z m -5.46875,2.1875 0,-1.09375 1.09375,0 0,1.09375 -1.09375,0 z m 1.09375,0 0,-1.09375 1.09375,0 0,1.09375 -1.09375,0 z m 1.09375,0 0,-1.09375 1.09375,0 0,1.09375 -1.09375,0 z m 1.09375,0 0,-1.09375 1.09375,0 0,1.09375 -1.09375,0 z m 1.09375,0 0,-1.09375 1.09375,0 0,1.09375 -1.09375,0 z m 1.09375,0 0,-1.09375 1.09375,0 0,1.09375 -1.09375,0 z"
         style="font-size:17.5px"
         id="path4327"
         inkscape:connector-curvature="0" />
      <path
         d="m 280.88815,179.21487 0,-1.09375 1.09375,0 0,1.09375 -1.09375,0 z m 1.09375,0 0,-1.09375 1.09375,0 0,1.09375 -1.09375,0 z m 1.09375,1.09375 0,-1.09375 1.09375,0 0,1.09375 -1.09375,0 z m 1.09375,0 0,-1.09375 1.09375,0 0,1.09375 -1.09375,0 z m 1.09375,1.09375 0,-1.09375 1.09375,0 0,1.09375 -1.09375,0 z m 1.09375,0 0,-1.09375 1.09375,0 0,1.09375 -1.09375,0 z m -3.28125,1.09375 0,-1.09375 1.09375,0 0,1.09375 -1.09375,0 z m 1.09375,0 0,-1.09375 1.09375,0 0,1.09375 -1.09375,0 z m -3.28125,1.09375 0,-1.09375 1.09375,0 0,1.09375 -1.09375,0 z m 1.09375,0 0,-1.09375 1.09375,0 0,1.09375 -1.09375,0 z"
         style="font-size:17.5px"
         id="path4329"
         inkscape:connector-curvature="0" />
    </g>
  </g>
</svg>
