<?xml version="1.0" encoding="UTF-8" standalone="no"?>
<!-- Created with Inkscape (http://www.inkscape.org/) -->

<svg
   xmlns:dc="http://purl.org/dc/elements/1.1/"
   xmlns:cc="http://creativecommons.org/ns#"
   xmlns:rdf="http://www.w3.org/1999/02/22-rdf-syntax-ns#"
   xmlns:svg="http://www.w3.org/2000/svg"
   xmlns="http://www.w3.org/2000/svg"
   xmlns:sodipodi="http://sodipodi.sourceforge.net/DTD/sodipodi-0.dtd"
   xmlns:inkscape="http://www.inkscape.org/namespaces/inkscape"
   width="91.769073mm"
   height="30.48427mm"
   viewBox="0 0 325.16601 108.01513"
   id="svg2"
   version="1.1"
   inkscape:version="0.91 r13725"
   sodipodi:docname="RobotoMono Nerd Font.svg">
  <defs
     id="defs4" />
  <sodipodi:namedview
     id="base"
     pagecolor="#ffffff"
     bordercolor="#666666"
     borderopacity="1.0"
     inkscape:pageopacity="0.0"
     inkscape:pageshadow="2"
     inkscape:zoom="0.7"
     inkscape:cx="-55.287567"
     inkscape:cy="-401.1813"
     inkscape:document-units="px"
     inkscape:current-layer="layer1"
     showgrid="false"
     inkscape:window-width="1861"
     inkscape:window-height="1056"
     inkscape:window-x="59"
     inkscape:window-y="24"
     inkscape:window-maximized="1" />
  <metadata
     id="metadata7">
    <rdf:RDF>
      <cc:Work
         rdf:about="">
        <dc:format>image/svg+xml</dc:format>
        <dc:type
           rdf:resource="http://purl.org/dc/dcmitype/StillImage" />
        <dc:title />
      </cc:Work>
    </rdf:RDF>
  </metadata>
  <g
     inkscape:label="Layer 1"
     inkscape:groupmode="layer"
     id="layer1"
     transform="translate(-65.287563,-80.308632)">
    <g
       style="font-style:normal;font-weight:normal;font-size:27.5px;line-height:125%;font-family:'RobotoMono Nerd Font';text-decoration: underline;text-decoration-line: underline;letter-spacing:0px;word-spacing:0px;fill:#ffffff;fill-opacity:1;stroke:none;stroke-width:1px;stroke-linecap:butt;stroke-linejoin:miter;stroke-opacity:1"
       id="text4136">
      <path
         d="m 71.665737,92.957558 -3.907471,0 0,7.976072 -2.470703,0 0,-19.550779 5.733643,0 q 1.369629,0.02685 2.578125,0.389404 1.208496,0.362549 2.108154,1.087646 0.913086,0.725098 1.42334,1.826172 0.523682,1.087647 0.523682,2.564698 0,0.953369 -0.281983,1.745605 -0.268554,0.792236 -0.751953,1.436768 -0.483398,0.644531 -1.154785,1.141357 -0.671387,0.496826 -1.477051,0.845947 l 4.14917,8.352052 -0.01343,0.16113 -2.618408,0 -3.840332,-7.976072 z m -3.907471,-2.041016 3.330079,0 q 0.832519,-0.01343 1.571044,-0.255127 0.738526,-0.255127 1.289063,-0.725098 0.563965,-0.46997 0.88623,-1.141357 0.322266,-0.684814 0.322266,-1.571045 0,-0.939941 -0.308838,-1.638183 -0.308838,-0.71167 -0.859375,-1.181641 -0.550537,-0.483399 -1.315918,-0.725098 -0.751953,-0.241699 -1.651611,-0.255127 l -3.26294,0 0,7.492676 z"
         id="path4140"
         inkscape:connector-curvature="0" />
      <path
         d="m 80.984585,93.53495 q 0,-1.571045 0.456543,-2.913818 0.456543,-1.356201 1.30249,-2.349854 0.859375,-0.993652 2.081299,-1.557617 1.221924,-0.577392 2.752685,-0.577392 1.54419,0 2.766114,0.577392 1.235351,0.563965 2.081298,1.557617 0.859375,0.993653 1.315918,2.349854 0.456543,1.342773 0.456543,2.913818 l 0,0.29541 q 0,1.571045 -0.456543,2.913819 -0.456543,1.342773 -1.315918,2.336426 -0.845947,0.993655 -2.067871,1.557615 -1.221923,0.56397 -2.752685,0.56397 -1.54419,0 -2.779541,-0.56397 -1.221924,-0.56396 -2.081299,-1.557615 -0.845947,-0.993653 -1.30249,-2.336426 -0.456543,-1.342774 -0.456543,-2.913819 l 0,-0.29541 z m 2.484131,0.29541 q 0,1.074219 0.255127,2.054444 0.255127,0.966797 0.76538,1.705322 0.523682,0.738525 1.302491,1.168213 0.778808,0.429687 1.812744,0.429687 1.020508,0 1.785889,-0.429687 0.778808,-0.429688 1.289062,-1.168213 0.523682,-0.738525 0.778809,-1.705322 0.255127,-0.980225 0.255127,-2.054444 l 0,-0.29541 q 0,-1.060791 -0.268555,-2.027588 -0.255127,-0.980224 -0.778809,-1.71875 -0.510254,-0.738525 -1.289062,-1.168213 -0.765381,-0.443115 -1.799317,-0.443115 -1.033935,0 -1.799316,0.443115 -0.765381,0.429688 -1.289063,1.168213 -0.510253,0.738526 -0.76538,1.71875 -0.255127,0.966797 -0.255127,2.027588 l 0,0.29541 z"
         id="path4142"
         inkscape:connector-curvature="0" />
      <path
         d="m 110.48532,93.83036 q 0,1.557618 -0.37598,2.913819 -0.37598,1.342773 -1.10107,2.336426 -0.7251,0.993655 -1.79932,1.557615 -1.06079,0.56397 -2.44385,0.56397 -1.39648,0 -2.43042,-0.49683 -1.02051,-0.49683 -1.7456,-1.423339 l -0.12085,1.651609 -2.282717,0 0,-20.624998 2.484127,0 0,7.653808 q 0.71167,-0.88623 1.71875,-1.356201 1.00708,-0.46997 2.34986,-0.46997 1.39648,0 2.4707,0.550537 1.07422,0.550537 1.79932,1.530761 0.72509,0.980225 1.10107,2.349854 0.37598,1.356201 0.37598,2.980957 l 0,0.281982 z m -2.48413,-0.281982 q 0,-1.060791 -0.21485,-2.01416 -0.20141,-0.966797 -0.65796,-1.691895 -0.45654,-0.738525 -1.19506,-1.168213 -0.73853,-0.429687 -1.81275,-0.429687 -0.64453,0 -1.18164,0.17456 -0.53711,0.161133 -0.9668,0.469971 -0.41626,0.29541 -0.75195,0.71167 -0.32227,0.402832 -0.55054,0.886231 l 0,6.351318 q 0.2417,0.483398 0.56397,0.899658 0.33569,0.402832 0.76538,0.71167 0.42969,0.308838 0.9668,0.483398 0.53711,0.161133 1.18164,0.161133 1.0205,0 1.7456,-0.416259 0.73853,-0.429688 1.19507,-1.154786 0.46997,-0.725097 0.68481,-1.678466 0.22828,-0.95337 0.22828,-2.014161 l 0,-0.281982 z"
         id="path4144"
         inkscape:connector-curvature="0" />
      <path
         d="m 113.9631,93.53495 q 0,-1.571045 0.45654,-2.913818 0.45655,-1.356201 1.30249,-2.349854 0.85938,-0.993652 2.0813,-1.557617 1.22193,-0.577392 2.75269,-0.577392 1.54419,0 2.76611,0.577392 1.23535,0.563965 2.0813,1.557617 0.85938,0.993653 1.31592,2.349854 0.45654,1.342773 0.45654,2.913818 l 0,0.29541 q 0,1.571045 -0.45654,2.913819 -0.45654,1.342773 -1.31592,2.336426 -0.84595,0.993655 -2.06787,1.557615 -1.22192,0.56397 -2.75269,0.56397 -1.54419,0 -2.77954,-0.56397 -1.22192,-0.56396 -2.0813,-1.557615 -0.84594,-0.993653 -1.30249,-2.336426 -0.45654,-1.342774 -0.45654,-2.913819 l 0,-0.29541 z m 2.48413,0.29541 q 0,1.074219 0.25513,2.054444 0.25513,0.966797 0.76538,1.705322 0.52368,0.738525 1.30249,1.168213 0.77881,0.429687 1.81274,0.429687 1.02051,0 1.78589,-0.429687 0.77881,-0.429688 1.28906,-1.168213 0.52369,-0.738525 0.77881,-1.705322 0.25513,-0.980225 0.25513,-2.054444 l 0,-0.29541 q 0,-1.060791 -0.26855,-2.027588 -0.25513,-0.980224 -0.77881,-1.71875 -0.51026,-0.738525 -1.28907,-1.168213 -0.76538,-0.443115 -1.79931,-0.443115 -1.03394,0 -1.79932,0.443115 -0.76538,0.429688 -1.28906,1.168213 -0.51025,0.738526 -0.76538,1.71875 -0.25513,0.966797 -0.25513,2.027588 l 0,0.29541 z"
         id="path4146"
         inkscape:connector-curvature="0" />
      <path
         d="m 137.03195,82.886757 0,3.518066 5.53222,0 0,1.920166 -5.53222,0 0,7.895508 q 0,0.845947 0.21484,1.396485 0.21485,0.550537 0.59082,0.88623 0.37598,0.322266 0.85938,0.456543 0.49682,0.134277 1.04736,0.134277 0.40283,0 0.83252,-0.04028 0.42969,-0.05371 0.83252,-0.12085 0.41626,-0.06714 0.76538,-0.134277 0.36255,-0.08057 0.59082,-0.134277 l 0.34912,1.759032 q -0.30884,0.18799 -0.75195,0.33569 -0.44312,0.13428 -0.9668,0.22827 -0.52368,0.10742 -1.1145,0.16114 -0.57739,0.0537 -1.15479,0.0537 -0.96679,0 -1.81274,-0.26856 -0.83252,-0.28198 -1.45019,-0.8728 -0.61768,-0.604246 -0.98023,-1.544187 -0.34912,-0.953369 -0.34912,-2.296143 l 0,-7.895508 -3.81348,0 0,-1.920166 3.81348,0 0,-3.518066 2.49756,0 z"
         id="path4148"
         inkscape:connector-curvature="0" />
      <path
         d="m 146.94162,93.53495 q 0,-1.571045 0.45654,-2.913818 0.45654,-1.356201 1.30249,-2.349854 0.85937,-0.993652 2.0813,-1.557617 1.22192,-0.577392 2.75268,-0.577392 1.54419,0 2.76612,0.577392 1.23535,0.563965 2.0813,1.557617 0.85937,0.993653 1.31591,2.349854 0.45655,1.342773 0.45655,2.913818 l 0,0.29541 q 0,1.571045 -0.45655,2.913819 -0.45654,1.342773 -1.31591,2.336426 -0.84595,0.993655 -2.06788,1.557615 -1.22192,0.56397 -2.75268,0.56397 -1.54419,0 -2.77954,-0.56397 -1.22193,-0.56396 -2.0813,-1.557615 -0.84595,-0.993653 -1.30249,-2.336426 -0.45654,-1.342774 -0.45654,-2.913819 l 0,-0.29541 z m 2.48413,0.29541 q 0,1.074219 0.25512,2.054444 0.25513,0.966797 0.76538,1.705322 0.52369,0.738525 1.30249,1.168213 0.77881,0.429687 1.81275,0.429687 1.02051,0 1.78589,-0.429687 0.77881,-0.429688 1.28906,-1.168213 0.52368,-0.738525 0.77881,-1.705322 0.25513,-0.980225 0.25513,-2.054444 l 0,-0.29541 q 0,-1.060791 -0.26856,-2.027588 -0.25513,-0.980224 -0.77881,-1.71875 -0.51025,-0.738525 -1.28906,-1.168213 -0.76538,-0.443115 -1.79932,-0.443115 -1.03393,0 -1.79931,0.443115 -0.76538,0.429688 -1.28907,1.168213 -0.51025,0.738526 -0.76538,1.71875 -0.25512,0.966797 -0.25512,2.027588 l 0,0.29541 z"
         id="path4150"
         inkscape:connector-curvature="0" />
      <path
         d="m 166.85495,81.382851 3.18237,9.77539 3.4375,-9.77539 3.08838,0 0,19.550779 -2.41699,0 0,-7.801512 0.20141,-8.164062 -3.61206,10.527343 -1.42334,0 -3.31665,-10.245361 0.20142,7.88208 0,7.801512 -2.417,0 0,-19.550779 3.07496,0 z"
         id="path4152"
         inkscape:connector-curvature="0" />
      <path
         d="m 179.92013,93.53495 q 0,-1.571045 0.45654,-2.913818 0.45655,-1.356201 1.30249,-2.349854 0.85938,-0.993652 2.0813,-1.557617 1.22193,-0.577392 2.75269,-0.577392 1.54419,0 2.76611,0.577392 1.23535,0.563965 2.0813,1.557617 0.85938,0.993653 1.31592,2.349854 0.45654,1.342773 0.45654,2.913818 l 0,0.29541 q 0,1.571045 -0.45654,2.913819 -0.45654,1.342773 -1.31592,2.336426 -0.84595,0.993655 -2.06787,1.557615 -1.22192,0.56397 -2.75269,0.56397 -1.54418,0 -2.77954,-0.56397 -1.22192,-0.56396 -2.0813,-1.557615 -0.84594,-0.993653 -1.30249,-2.336426 -0.45654,-1.342774 -0.45654,-2.913819 l 0,-0.29541 z m 2.48413,0.29541 q 0,1.074219 0.25513,2.054444 0.25513,0.966797 0.76538,1.705322 0.52368,0.738525 1.30249,1.168213 0.77881,0.429687 1.81274,0.429687 1.02051,0 1.78589,-0.429687 0.77881,-0.429688 1.28907,-1.168213 0.52368,-0.738525 0.7788,-1.705322 0.25513,-0.980225 0.25513,-2.054444 l 0,-0.29541 q 0,-1.060791 -0.26855,-2.027588 -0.25513,-0.980224 -0.77881,-1.71875 -0.51026,-0.738525 -1.28906,-1.168213 -0.76539,-0.443115 -1.79932,-0.443115 -1.03394,0 -1.79932,0.443115 -0.76538,0.429688 -1.28906,1.168213 -0.51025,0.738526 -0.76538,1.71875 -0.25513,0.966797 -0.25513,2.027588 l 0,0.29541 z"
         id="path4154"
         inkscape:connector-curvature="0" />
      <path
         d="m 199.33664,86.404823 0.17456,2.148438 q 0.79223,-1.12793 1.94702,-1.759033 1.15478,-0.644532 2.57812,-0.657959 1.14136,0 2.06787,0.322265 0.93995,0.322266 1.5979,1.00708 0.65796,0.684815 1.00708,1.745606 0.36255,1.047363 0.36255,2.497558 l 0,9.224852 -2.48413,0 0,-9.171141 q 0,-0.966797 -0.21484,-1.638183 -0.21485,-0.671387 -0.64453,-1.087647 -0.41626,-0.41626 -1.03394,-0.604248 -0.60425,-0.187988 -1.39648,-0.187988 -1.24878,0 -2.20215,0.631103 -0.93994,0.617676 -1.50391,1.638184 l 0,10.41992 -2.48413,0 0,-14.528807 2.22901,0 z"
         id="path4156"
         inkscape:connector-curvature="0" />
      <path
         d="m 212.89865,93.53495 q 0,-1.571045 0.45654,-2.913818 0.45654,-1.356201 1.30249,-2.349854 0.85938,-0.993652 2.0813,-1.557617 1.22192,-0.577392 2.75268,-0.577392 1.54419,0 2.76612,0.577392 1.23535,0.563965 2.0813,1.557617 0.85937,0.993653 1.31591,2.349854 0.45655,1.342773 0.45655,2.913818 l 0,0.29541 q 0,1.571045 -0.45655,2.913819 -0.45654,1.342773 -1.31591,2.336426 -0.84595,0.993655 -2.06787,1.557615 -1.22193,0.56397 -2.75269,0.56397 -1.54419,0 -2.77954,-0.56397 -1.22192,-0.56396 -2.0813,-1.557615 -0.84595,-0.993653 -1.30249,-2.336426 -0.45654,-1.342774 -0.45654,-2.913819 l 0,-0.29541 z m 2.48413,0.29541 q 0,1.074219 0.25513,2.054444 0.25512,0.966797 0.76538,1.705322 0.52368,0.738525 1.30249,1.168213 0.7788,0.429687 1.81274,0.429687 1.02051,0 1.78589,-0.429687 0.77881,-0.429688 1.28906,-1.168213 0.52368,-0.738525 0.77881,-1.705322 0.25513,-0.980225 0.25513,-2.054444 l 0,-0.29541 q 0,-1.060791 -0.26856,-2.027588 -0.25512,-0.980224 -0.77881,-1.71875 -0.51025,-0.738525 -1.28906,-1.168213 -0.76538,-0.443115 -1.79932,-0.443115 -1.03393,0 -1.79931,0.443115 -0.76538,0.429688 -1.28906,1.168213 -0.51026,0.738526 -0.76538,1.71875 -0.25513,0.966797 -0.25513,2.027588 l 0,0.29541 z"
         id="path4158"
         inkscape:connector-curvature="0" />
      <path
         d="m 258.8215,100.93363 -2.52442,0 -7.58667,-14.609373 -0.0403,14.609373 -2.51098,0 0,-19.550779 2.52441,0 7.58667,14.582519 0.0403,-14.582519 2.51099,0 0,19.550779 z"
         id="path4160"
         inkscape:connector-curvature="0" />
      <path
         d="m 269.48312,101.20219 q -1.53076,0 -2.81982,-0.52369 -1.27564,-0.52368 -2.18872,-1.463618 -0.91309,-0.939942 -1.42334,-2.229004 -0.51026,-1.289063 -0.51026,-2.806396 l 0,-0.563965 q 0,-1.759034 0.56397,-3.14209 0.56396,-1.396485 1.49047,-2.349854 0.93995,-0.966797 2.12159,-1.47705 1.19507,-0.510254 2.44384,-0.510254 1.57105,0 2.73926,0.550537 1.18164,0.537109 1.96045,1.503906 0.77881,0.953369 1.15479,2.255859 0.3894,1.302491 0.3894,2.819825 l 0,1.114502 -10.37964,0 q 0.0403,0.993652 0.37598,1.866455 0.34912,0.872802 0.93994,1.530761 0.60425,0.644532 1.43677,1.020508 0.83252,0.375977 1.8396,0.375977 1.32934,0 2.36328,-0.53711 1.03393,-0.537109 1.71875,-1.42334 l 1.51733,1.181641 q -0.36255,0.550537 -0.91308,1.060791 -0.53711,0.496826 -1.24878,0.886229 -0.71167,0.38941 -1.61133,0.61768 -0.89966,0.2417 -1.96045,0.2417 z m -0.32227,-13.024906 q -0.75195,0 -1.42334,0.281983 -0.67138,0.268554 -1.20849,0.805664 -0.53711,0.523681 -0.91309,1.30249 -0.36255,0.765381 -0.51025,1.772461 l 7.81494,0 0,-0.187988 q -0.0403,-0.725098 -0.28198,-1.436768 -0.22827,-0.71167 -0.68482,-1.275635 -0.45654,-0.563965 -1.15478,-0.913086 -0.68482,-0.349121 -1.63819,-0.349121 z"
         id="path4162"
         inkscape:connector-curvature="0" />
      <path
         d="m 289.07418,86.136269 q 0.34913,0 0.7251,0.02685 0.37598,0.01343 0.71167,0.06714 0.34912,0.04028 0.63111,0.107422 0.29541,0.06714 0.48339,0.147705 l -0.33569,2.43042 q -0.7251,-0.161133 -1.38306,-0.228272 -0.64453,-0.08057 -1.3562,-0.08057 -1.7456,0 -2.83325,0.792236 -1.07422,0.792236 -1.58447,2.215576 l 0,9.318844 -2.49756,0 0,-14.528805 2.36328,0 0.12085,2.309571 q 0.88623,-1.195069 2.12158,-1.879883 1.24878,-0.698242 2.83325,-0.698242 z"
         id="path4164"
         inkscape:connector-curvature="0" />
      <path
         d="m 295.57321,93.548378 q 0,-1.624756 0.40283,-2.980957 0.41626,-1.369629 1.16821,-2.349854 0.76538,-0.980224 1.8396,-1.530761 1.07422,-0.550537 2.40357,-0.550537 1.30249,0 2.26928,0.443115 0.98023,0.429687 1.6919,1.262207 l 0,-7.532959 2.48413,0 0,20.624998 -2.28272,0 -0.10742,-1.53076 q -0.7251,0.88623 -1.73218,1.34277 -1.00708,0.45655 -2.34985,0.45655 -1.31592,0 -2.39014,-0.56397 -1.06079,-0.56396 -1.81274,-1.557615 -0.75195,-0.993653 -1.16821,-2.336426 -0.41626,-1.356201 -0.41626,-2.913819 l 0,-0.281982 z m 2.48413,0.281982 q 0,1.060791 0.22827,2.014161 0.22827,0.953369 0.69824,1.678466 0.4834,0.725098 1.22193,1.154786 0.73852,0.416259 1.77246,0.416259 0.6311,0 1.14135,-0.147705 0.51026,-0.147705 0.92652,-0.41626 0.41626,-0.281982 0.73852,-0.657959 0.32227,-0.389404 0.56397,-0.859375 l 0,-6.740722 q -0.4834,-0.886231 -1.30249,-1.450196 -0.81909,-0.577392 -2.04102,-0.577392 -1.04736,0 -1.79931,0.429687 -0.73853,0.429688 -1.22193,1.168213 -0.46997,0.725098 -0.69824,1.691895 -0.22827,0.953369 -0.22827,2.01416 l 0,0.281982 z"
         id="path4166"
         inkscape:connector-curvature="0" />
      <path
         d="m 339.89816,92.299599 -8.13721,0 0,8.634031 -2.51098,0 0,-19.550779 12.00439,0 0,2.121582 -9.49341,0 0,6.687011 8.13721,0 0,2.108155 z"
         id="path4168"
         inkscape:connector-curvature="0" />
      <path
         d="m 344.81271,93.53495 q 0,-1.571045 0.45654,-2.913818 0.45655,-1.356201 1.30249,-2.349854 0.85938,-0.993652 2.0813,-1.557617 1.22193,-0.577392 2.75269,-0.577392 1.54419,0 2.76611,0.577392 1.23535,0.563965 2.0813,1.557617 0.85937,0.993653 1.31592,2.349854 0.45654,1.342773 0.45654,2.913818 l 0,0.29541 q 0,1.571045 -0.45654,2.913819 -0.45655,1.342773 -1.31592,2.336426 -0.84595,0.993655 -2.06787,1.557615 -1.22193,0.56397 -2.75269,0.56397 -1.54419,0 -2.77954,-0.56397 -1.22192,-0.56396 -2.0813,-1.557615 -0.84594,-0.993653 -1.30249,-2.336426 -0.45654,-1.342774 -0.45654,-2.913819 l 0,-0.29541 z m 2.48413,0.29541 q 0,1.074219 0.25513,2.054444 0.25512,0.966797 0.76538,1.705322 0.52368,0.738525 1.30249,1.168213 0.77881,0.429687 1.81274,0.429687 1.02051,0 1.78589,-0.429687 0.77881,-0.429688 1.28906,-1.168213 0.52369,-0.738525 0.77881,-1.705322 0.25513,-0.980225 0.25513,-2.054444 l 0,-0.29541 q 0,-1.060791 -0.26856,-2.027588 -0.25512,-0.980224 -0.7788,-1.71875 -0.51026,-0.738525 -1.28907,-1.168213 -0.76538,-0.443115 -1.79931,-0.443115 -1.03394,0 -1.79932,0.443115 -0.76538,0.429688 -1.28906,1.168213 -0.51026,0.738526 -0.76538,1.71875 -0.25513,0.966797 -0.25513,2.027588 l 0,0.29541 z"
         id="path4170"
         inkscape:connector-curvature="0" />
      <path
         d="m 364.22921,86.404823 0.17456,2.148438 q 0.79224,-1.12793 1.94703,-1.759033 1.15478,-0.644532 2.57812,-0.657959 1.14136,0 2.06787,0.322265 0.93994,0.322266 1.5979,1.00708 0.65796,0.684815 1.00708,1.745606 0.36255,1.047363 0.36255,2.497558 l 0,9.224852 -2.48413,0 0,-9.171141 q 0,-0.966797 -0.21484,-1.638183 -0.21485,-0.671387 -0.64453,-1.087647 -0.41626,-0.41626 -1.03394,-0.604248 -0.60425,-0.187988 -1.39648,-0.187988 -1.24878,0 -2.20215,0.631103 -0.93994,0.617676 -1.50391,1.638184 l 0,10.41992 -2.48413,0 0,-14.528807 2.229,0 z"
         id="path4172"
         inkscape:connector-curvature="0" />
      <path
         d="m 384.37082,82.886757 0,3.518066 5.53222,0 0,1.920166 -5.53222,0 0,7.895508 q 0,0.845947 0.21484,1.396485 0.21484,0.550537 0.59082,0.88623 0.37598,0.322266 0.85937,0.456543 0.49683,0.134277 1.04737,0.134277 0.40283,0 0.83252,-0.04028 0.42968,-0.05371 0.83252,-0.12085 0.41626,-0.06714 0.76538,-0.134277 0.36255,-0.08057 0.59082,-0.134277 l 0.34912,1.759032 q -0.30884,0.18799 -0.75195,0.33569 -0.44312,0.13428 -0.9668,0.22827 -0.52368,0.10742 -1.1145,0.16114 -0.5774,0.0537 -1.15479,0.0537 -0.9668,0 -1.81274,-0.26856 -0.83252,-0.28198 -1.4502,-0.8728 -0.61767,-0.604246 -0.98022,-1.544187 -0.34912,-0.953369 -0.34912,-2.296143 l 0,-7.895508 -3.81348,0 0,-1.920166 3.81348,0 0,-3.518066 2.49756,0 z"
         id="path4174"
         inkscape:connector-curvature="0" />
    </g>
    <g
       style="font-style:normal;font-weight:normal;font-size:27.5px;line-height:125%;font-family:'RobotoMono Nerd Font';letter-spacing:0px;word-spacing:0px;fill:#ffffff;fill-opacity:1;stroke:none;stroke-width:1px;stroke-linecap:butt;stroke-linejoin:miter;stroke-opacity:1"
       id="text4140">
      <path
         d="m 72.981659,140.93362 q -0.09399,-0.17944 -0.153809,-0.44433 -0.05127,-0.27344 -0.0769,-0.56397 -0.239258,0.23926 -0.53833,0.45288 -0.290527,0.21363 -0.649414,0.37598 -0.350342,0.16235 -0.751953,0.25635 -0.401612,0.094 -0.854492,0.094 -0.734864,0 -1.333008,-0.21362 -0.5896,-0.21362 -1.008301,-0.57251 -0.410156,-0.36743 -0.640869,-0.86304 -0.222168,-0.50415 -0.222168,-1.0852 0,-0.7605 0.299072,-1.33301 0.307617,-0.57251 0.863037,-0.94849 0.55542,-0.38452 1.333008,-0.57251 0.786133,-0.18798 1.751709,-0.18798 l 1.726074,0 0,-0.72632 q 0,-0.4187 -0.153808,-0.75196 -0.153809,-0.33325 -0.435791,-0.56396 -0.281983,-0.23926 -0.692139,-0.36743 -0.401611,-0.12818 -0.905762,-0.12818 -0.46997,0 -0.845947,0.11963 -0.367432,0.11963 -0.623779,0.31616 -0.256348,0.19654 -0.401612,0.46998 -0.136718,0.26489 -0.136718,0.55542 l -1.589356,0 q 0.0085,-0.50416 0.256348,-0.99122 0.256347,-0.48706 0.726318,-0.87158 0.478516,-0.39306 1.153565,-0.63232 0.683593,-0.23926 1.54663,-0.23926 0.786133,0 1.461182,0.19653 0.675049,0.18799 1.16211,0.58106 0.495605,0.38452 0.777587,0.96557 0.281983,0.58106 0.281983,1.35865 l 0,4.29809 q 0,0.46143 0.08545,0.98267 0.08545,0.51269 0.239258,0.89722 l 0,0.13671 -1.64917,0 z m -2.79419,-1.20483 q 0.461426,0 0.863038,-0.11963 0.401611,-0.11963 0.726318,-0.31616 0.333252,-0.19653 0.57251,-0.44434 0.239258,-0.25634 0.375976,-0.52978 l 0,-1.87134 -1.469726,0 q -1.384278,0 -2.153321,0.41016 -0.769043,0.41015 -0.769043,1.29028 0,0.3418 0.111084,0.63232 0.119629,0.29053 0.350342,0.50415 0.230713,0.20508 0.581055,0.32471 0.350342,0.11963 0.811767,0.11963 z"
         style="font-size:17.5px"
         id="path4177"
         inkscape:connector-curvature="0" />
      <path
         d="m 85.235077,136.41336 q 0,0.99121 -0.239258,1.85425 -0.239258,0.85449 -0.700684,1.48682 -0.461425,0.63232 -1.145019,0.99121 -0.675049,0.35888 -1.555176,0.35888 -0.888672,0 -1.546631,-0.31616 -0.649414,-0.31616 -1.11084,-0.90576 l -0.0769,1.05102 -1.452637,0 0,-13.125 1.580811,0 0,4.87061 q 0.452881,-0.56397 1.09375,-0.86304 0.640869,-0.29907 1.495361,-0.29907 0.888672,0 1.572266,0.35034 0.683594,0.35034 1.145019,0.97412 0.461426,0.62378 0.700684,1.49536 0.239258,0.86304 0.239258,1.89698 l 0,0.17944 z m -1.580811,-0.17944 q 0,-0.67505 -0.136718,-1.28174 -0.128174,-0.61524 -0.418702,-1.07666 -0.290527,-0.46997 -0.760498,-0.74341 -0.46997,-0.27344 -1.153564,-0.27344 -0.410156,0 -0.751953,0.11109 -0.341797,0.10254 -0.615235,0.29907 -0.264892,0.18799 -0.478515,0.45288 -0.205078,0.25635 -0.350342,0.56397 l 0,4.04174 q 0.153809,0.30762 0.358887,0.57251 0.213623,0.25635 0.48706,0.45288 0.273438,0.19654 0.615235,0.30762 0.341797,0.10254 0.751953,0.10254 0.649414,0 1.11084,-0.26489 0.46997,-0.27344 0.760498,-0.73487 0.299072,-0.46142 0.435791,-1.06811 0.145263,-0.60669 0.145263,-1.28174 l 0,-0.17944 z"
         style="font-size:17.5px"
         id="path4179"
         inkscape:connector-curvature="0" />
      <path
         d="m 91.831757,139.82278 q 0.427246,0 0.828857,-0.13671 0.410156,-0.13672 0.726318,-0.37598 0.316162,-0.2478 0.504151,-0.57251 0.196533,-0.33325 0.205078,-0.71777 l 1.495361,0 q -0.0085,0.61523 -0.324707,1.1792 -0.307617,0.55542 -0.828857,0.98266 -0.52124,0.4187 -1.196289,0.67505 -0.675049,0.2478 -1.409912,0.2478 -1.051026,0 -1.837159,-0.37597 -0.786132,-0.37598 -1.315918,-1.0083 -0.52124,-0.64087 -0.786132,-1.46973 -0.264893,-0.8374 -0.264893,-1.76026 l 0,-0.35888 q 0,-0.91431 0.264893,-1.75171 0.264892,-0.8374 0.786132,-1.46973 0.529786,-0.64087 1.315918,-1.01684 0.786133,-0.37598 1.837159,-0.37598 0.820312,0 1.503906,0.26489 0.692139,0.25635 1.187744,0.70923 0.50415,0.44434 0.786133,1.05957 0.281982,0.61524 0.281982,1.31592 l -1.495361,0 q -0.0085,-0.4187 -0.187988,-0.78613 -0.170899,-0.37598 -0.469971,-0.65796 -0.299072,-0.28198 -0.717774,-0.44434 -0.410156,-0.16235 -0.888671,-0.16235 -0.734864,0 -1.239014,0.29907 -0.495606,0.29053 -0.803223,0.76904 -0.307617,0.46997 -0.444336,1.05957 -0.128174,0.5896 -0.128174,1.18775 l 0,0.35888 q 0,0.60669 0.128174,1.20484 0.136719,0.5896 0.435791,1.06811 0.307618,0.46997 0.803223,0.76905 0.50415,0.29052 1.247559,0.29052 z"
         style="font-size:17.5px"
         id="path4181"
         inkscape:connector-curvature="0" />
      <path
         d="m 98.086639,136.23392 q 0,-1.03394 0.256348,-1.89698 0.264893,-0.87158 0.743408,-1.49536 0.487061,-0.62378 1.170655,-0.97412 0.68359,-0.35034 1.52954,-0.35034 0.82886,0 1.44409,0.28198 0.62378,0.27344 1.07666,0.80323 l 0,-4.79371 1.58081,0 0,13.125 -1.45263,0 -0.0684,-0.97412 q -0.46143,0.56397 -1.1023,0.8545 -0.64087,0.29052 -1.49536,0.29052 -0.8374,0 -1.521,-0.35888 -0.675044,-0.35889 -1.15356,-0.99121 -0.478515,-0.63233 -0.743408,-1.48682 -0.264893,-0.86304 -0.264893,-1.85425 l 0,-0.17944 z m 1.580811,0.17944 q 0,0.67505 0.145264,1.28174 0.145263,0.60669 0.444336,1.06811 0.30762,0.46143 0.77759,0.73487 0.46997,0.26489 1.12793,0.26489 0.40161,0 0.72632,-0.094 0.3247,-0.094 0.5896,-0.2649 0.26489,-0.17944 0.46997,-0.4187 0.20507,-0.2478 0.35888,-0.54687 l 0,-4.28955 q -0.30761,-0.56397 -0.82885,-0.92286 -0.52125,-0.36743 -1.29883,-0.36743 -0.66651,0 -1.14502,0.27344 -0.46997,0.27344 -0.77759,0.74341 -0.299073,0.46142 -0.444336,1.07666 -0.145264,0.60669 -0.145264,1.28174 l 0,0.17944 z"
         style="font-size:17.5px"
         id="path4183"
         inkscape:connector-curvature="0" />
      <path
         d="m 112.96335,141.10452 q -0.97412,0 -1.79444,-0.33325 -0.81176,-0.33325 -1.39282,-0.9314 -0.58105,-0.59814 -0.90576,-1.41845 -0.32471,-0.82032 -0.32471,-1.78589 l 0,-0.35889 q 0,-1.11938 0.35889,-1.99951 0.35889,-0.88867 0.94849,-1.49536 0.59814,-0.61524 1.35009,-0.93994 0.7605,-0.32471 1.55518,-0.32471 0.99976,0 1.74316,0.35034 0.75196,0.3418 1.24756,0.95703 0.49561,0.60669 0.73487,1.43555 0.2478,0.82886 0.2478,1.79443 l 0,0.70923 -6.60523,0 q 0.0256,0.63233 0.23926,1.18775 0.22217,0.55542 0.59815,0.97412 0.38452,0.41015 0.9143,0.64941 0.52979,0.23926 1.17066,0.23926 0.84594,0 1.5039,-0.3418 0.65796,-0.34179 1.09375,-0.90576 l 0.96558,0.75195 q -0.23071,0.35035 -0.58105,0.67505 -0.3418,0.31616 -0.79468,0.56397 -0.45288,0.2478 -1.02539,0.39306 -0.57251,0.15381 -1.24756,0.15381 z m -0.20508,-8.28857 q -0.47852,0 -0.90576,0.17944 -0.42725,0.1709 -0.76904,0.5127 -0.3418,0.33325 -0.58106,0.82885 -0.23071,0.48707 -0.32471,1.12793 l 4.97315,0 0,-0.11962 q -0.0256,-0.46143 -0.17944,-0.91431 -0.14527,-0.45288 -0.4358,-0.81177 -0.29052,-0.35889 -0.73486,-0.58105 -0.43579,-0.22217 -1.04248,-0.22217 z"
         style="font-size:17.5px"
         id="path4185"
         inkscape:connector-curvature="0" />
      <path
         d="m 121.73044,140.93362 0,-8.02368 -2.54639,0 0,-1.22192 2.54639,0 0,-0.64942 q 0,-0.88867 0.25635,-1.55517 0.26489,-0.67505 0.73486,-1.12793 0.47851,-0.45288 1.14502,-0.68359 0.6665,-0.23072 1.48682,-0.23072 0.56396,0 1.09375,0.094 0.53833,0.094 1.10229,0.23925 l -0.18799,1.30738 q -0.35034,-0.11963 -0.82031,-0.20508 -0.46143,-0.094 -0.99121,-0.094 -1.11084,0.009 -1.67481,0.56396 -0.55542,0.55542 -0.55542,1.69189 l 0,0.64942 3.56324,0 0,1.22192 -3.56324,0 0,8.02368 -1.58935,0 z"
         style="font-size:17.5px"
         id="path4187"
         inkscape:connector-curvature="0" />
      <path
         d="m 129.60886,136.23392 q 0,-1.03394 0.2478,-1.89698 0.25635,-0.87158 0.73486,-1.49536 0.47852,-0.62378 1.16211,-0.97412 0.6836,-0.35034 1.54663,-0.35034 0.85449,0 1.49536,0.30762 0.64942,0.29907 1.1023,0.87158 l 0.0769,-1.0083 1.43555,0 0,9.04907 q 0,0.91431 -0.29053,1.62354 -0.28198,0.70922 -0.80322,1.20483 -0.5127,0.49561 -1.23047,0.75195 -0.71777,0.25635 -1.58935,0.25635 -0.35889,0 -0.82032,-0.0854 -0.46142,-0.0769 -0.93994,-0.26489 -0.46997,-0.17944 -0.9143,-0.48706 -0.4358,-0.30762 -0.75196,-0.7605 l 0.82031,-0.94849 q 0.29053,0.35035 0.59815,0.5896 0.30762,0.24781 0.62378,0.39307 0.31616,0.14526 0.63232,0.20508 0.31616,0.0684 0.63233,0.0684 0.56396,0 1.01684,-0.16236 0.45288,-0.16235 0.76905,-0.47851 0.3247,-0.30762 0.4956,-0.76904 0.1709,-0.46143 0.1709,-1.05957 l 0,-0.79468 q -0.46143,0.52978 -1.09375,0.81177 -0.62378,0.27343 -1.45264,0.27343 -0.84594,0 -1.52954,-0.35888 -0.68359,-0.35889 -1.16211,-0.99121 -0.46997,-0.63233 -0.72632,-1.48682 -0.25634,-0.86304 -0.25634,-1.85425 l 0,-0.17944 z m 1.58081,0.17944 q 0,0.67505 0.13672,1.28174 0.14526,0.60669 0.44433,1.06811 0.30762,0.46143 0.77759,0.73487 0.46997,0.26489 1.12793,0.26489 0.41016,0 0.73486,-0.094 0.33325,-0.10254 0.5896,-0.28199 0.26489,-0.17944 0.46997,-0.42724 0.20508,-0.24781 0.35889,-0.54688 l 0,-4.23828 q -0.15381,-0.29053 -0.35889,-0.52978 -0.20508,-0.23926 -0.46997,-0.41016 -0.26489,-0.17944 -0.5896,-0.27344 -0.3247,-0.10254 -0.71777,-0.10254 -0.66651,0 -1.14502,0.27344 -0.46997,0.27344 -0.77759,0.74341 -0.29907,0.46142 -0.44433,1.07666 -0.13672,0.60669 -0.13672,1.28174 l 0,0.17944 z"
         style="font-size:17.5px"
         id="path4189"
         inkscape:connector-curvature="0" />
      <path
         d="m 141.97336,133.06375 q 0.4956,-0.72632 1.22192,-1.12793 0.72632,-0.41015 1.63208,-0.4187 0.72632,0 1.31592,0.21362 0.59814,0.20508 1.01685,0.64942 0.4187,0.44433 0.64086,1.12793 0.23072,0.67505 0.23072,1.60644 l 0,5.81909 -1.58081,0 0,-5.83618 q 0,-1.13647 -0.54688,-1.69189 -0.53833,-0.55542 -1.54663,-0.54688 -0.7605,0 -1.38428,0.37598 -0.61523,0.36743 -0.99975,0.98267 l 0,6.7163 -1.58081,0 0,-13.125 1.58081,0 0,5.25513 z"
         style="font-size:17.5px"
         id="path4191"
         inkscape:connector-curvature="0" />
      <path
         d="m 151.13351,131.68802 4.72535,0 0,7.87842 3.01635,0 0,1.36718 -7.7417,0 0,-1.36718 3.14454,0 0,-6.50269 -3.14454,0 0,-1.37573 z m 2.93946,-2.42676 q 0,-0.39307 0.23071,-0.65796 0.23926,-0.27344 0.71777,-0.27344 0.46997,0 0.70923,0.27344 0.23926,0.26489 0.23926,0.65796 0,0.38452 -0.23926,0.64087 -0.23926,0.25635 -0.70923,0.25635 -0.47851,0 -0.71777,-0.25635 -0.23071,-0.25635 -0.23071,-0.64087 z"
         style="font-size:17.5px"
         id="path4193"
         inkscape:connector-curvature="0" />
      <path
         d="m 162.44699,131.68802 4.66553,0 0,9.30542 q 0,0.88867 -0.2478,1.57226 -0.23926,0.6836 -0.70923,1.14502 -0.46143,0.46997 -1.13648,0.70923 -0.6665,0.24781 -1.52099,0.24781 -0.48706,0 -0.91431,-0.0342 -0.4187,-0.0256 -0.88867,-0.11109 l 0.11108,-1.29883 q 0.14527,0.0256 0.36743,0.0427 0.22217,0.0256 0.44434,0.0342 0.23071,0.0171 0.43579,0.0171 0.21362,0.009 0.33325,0.009 0.44434,0 0.8374,-0.11963 0.39307,-0.11108 0.6836,-0.38452 0.29053,-0.27344 0.45288,-0.72632 0.1709,-0.44433 0.1709,-1.10229 l 0,-7.92969 -3.08472,0 0,-1.37573 z m 2.86255,-2.4353 q 0,-0.38453 0.23071,-0.64942 0.23072,-0.27344 0.70923,-0.27344 0.47852,0 0.71777,0.27344 0.23926,0.26489 0.23926,0.64942 0,0.38452 -0.23926,0.64941 -0.23925,0.25635 -0.71777,0.25635 -0.47851,0 -0.70923,-0.25635 -0.23071,-0.26489 -0.23071,-0.64941 z"
         style="font-size:17.5px"
         id="path4195"
         inkscape:connector-curvature="0" />
      <path
         d="m 174.64059,136.61844 -1.1621,1.11938 0,3.1958 -1.58936,0 0,-13.125 1.58936,0 0,8.03223 1.03393,-1.11084 3.03345,-3.04199 1.92261,0 -3.74268,3.85376 4.31519,5.39184 -2.00806,0 -3.39234,-4.31518 z"
         style="font-size:17.5px"
         id="path4197"
         inkscape:connector-curvature="0" />
      <path
         d="m 182.61301,127.80862 4.72534,0 0,11.75782 3.01636,0 0,1.36718 -7.7417,0 0,-1.36718 3.14453,0 0,-10.38208 -3.14453,0 0,-1.37574 z"
         style="font-size:17.5px"
         id="path4199"
         inkscape:connector-curvature="0" />
      <path
         d="m 193.58469,131.68802 0.0427,0.87158 q 0.28198,-0.48706 0.73486,-0.7605 0.46143,-0.27343 1.11084,-0.28198 1.2732,0 1.70044,0.99121 0.27344,-0.44433 0.71778,-0.70923 0.45288,-0.27343 1.09375,-0.28198 1.01684,0 1.56372,0.62378 0.54687,0.62378 0.54687,1.88843 l 0,6.90429 -1.5039,0 0,-6.92138 q 0,-1.16211 -1.06812,-1.15357 -0.28198,0 -0.48706,0.0769 -0.20508,0.0769 -0.3418,0.21362 -0.13672,0.12817 -0.21362,0.30762 -0.0769,0.1709 -0.10254,0.35888 l 0,7.11792 -1.5039,0 0,-6.92993 q 0,-0.55542 -0.24781,-0.85449 -0.2478,-0.29907 -0.78613,-0.29053 -0.49561,0 -0.76904,0.19654 -0.27344,0.19653 -0.40161,0.52124 l 0,7.35717 -1.50391,0 0,-9.2456 1.41846,0 z"
         style="font-size:17.5px"
         id="path4201"
         inkscape:connector-curvature="0" />
      <path
         d="m 204.76999,131.68802 0.11108,1.36719 q 0.50415,-0.71778 1.23902,-1.11939 0.73486,-0.41015 1.64062,-0.4187 0.72632,0 1.31592,0.20508 0.59814,0.20508 1.01685,0.64087 0.4187,0.43579 0.64086,1.11084 0.23072,0.6665 0.23072,1.58935 l 0,5.87036 -1.58081,0 0,-5.83618 q 0,-0.61523 -0.13672,-1.04248 -0.13672,-0.42724 -0.41016,-0.69214 -0.26489,-0.26489 -0.65796,-0.38452 -0.38452,-0.11963 -0.88867,-0.11963 -0.79468,0 -1.40137,0.40161 -0.59814,0.39307 -0.95703,1.04248 l 0,6.63086 -1.58081,0 0,-9.2456 1.41846,0 z"
         style="font-size:17.5px"
         id="path4203"
         inkscape:connector-curvature="0" />
      <path
         d="m 213.40036,136.22537 q 0,-0.99975 0.29053,-1.85425 0.29052,-0.86303 0.82885,-1.49536 0.54688,-0.63232 1.32447,-0.99121 0.77759,-0.36743 1.75171,-0.36743 0.98266,0 1.76025,0.36743 0.78613,0.35889 1.32446,0.99121 0.54688,0.63233 0.83741,1.49536 0.29052,0.8545 0.29052,1.85425 l 0,0.18799 q 0,0.99976 -0.29052,1.85425 -0.29053,0.85449 -0.83741,1.48682 -0.53833,0.63232 -1.31591,0.99121 -0.77759,0.35888 -1.75171,0.35888 -0.98267,0 -1.7688,-0.35888 -0.77759,-0.35889 -1.32447,-0.99121 -0.53833,-0.63233 -0.82885,-1.48682 -0.29053,-0.85449 -0.29053,-1.85425 l 0,-0.18799 z m 1.58081,0.18799 q 0,0.68359 0.16235,1.30737 0.16236,0.61524 0.48706,1.08521 0.33326,0.46997 0.82886,0.74341 0.49561,0.27343 1.15357,0.27343 0.64941,0 1.13647,-0.27343 0.49561,-0.27344 0.82031,-0.74341 0.33326,-0.46997 0.49561,-1.08521 0.16235,-0.62378 0.16235,-1.30737 l 0,-0.18799 q 0,-0.67505 -0.1709,-1.29028 -0.16235,-0.62378 -0.4956,-1.09375 -0.32471,-0.46997 -0.82031,-0.74341 -0.48706,-0.28198 -1.14502,-0.28198 -0.65796,0 -1.14502,0.28198 -0.48706,0.27344 -0.82032,0.74341 -0.3247,0.46997 -0.48706,1.09375 -0.16235,0.61523 -0.16235,1.29028 l 0,0.18799 z"
         style="font-size:17.5px"
         id="path4205"
         inkscape:connector-curvature="0" />
      <path
         d="m 232.13937,136.41336 q 0,0.99121 -0.23925,1.85425 -0.23926,0.85449 -0.70069,1.48682 -0.46142,0.63232 -1.14502,0.99121 -0.67505,0.35888 -1.54663,0.35888 -0.84595,0 -1.49536,-0.27343 -0.64087,-0.27344 -1.10229,-0.78614 l 0,4.44336 -1.58081,0 0,-12.80029 1.44409,0 0.0769,1.0083 q 0.46143,-0.57251 1.11084,-0.87158 0.65796,-0.30762 1.521,-0.30762 0.88867,0 1.57226,0.35034 0.6836,0.35034 1.14502,0.97412 0.46143,0.62378 0.70069,1.49536 0.23925,0.86304 0.23925,1.89698 l 0,0.17944 z m -1.58081,-0.17944 q 0,-0.67505 -0.15381,-1.28174 -0.14526,-0.61524 -0.46142,-1.07666 -0.30762,-0.46997 -0.78613,-0.74341 -0.47852,-0.27344 -1.14502,-0.27344 -0.7605,0 -1.28174,0.35889 -0.5127,0.35034 -0.82031,0.90576 l 0,4.45191 q 0.30761,0.54687 0.82031,0.89721 0.51269,0.3418 1.29883,0.3418 0.65796,0 1.13647,-0.27344 0.47852,-0.28198 0.78613,-0.75195 0.30762,-0.46997 0.45288,-1.08521 0.15381,-0.61523 0.15381,-1.29028 l 0,-0.17944 z"
         style="font-size:17.5px"
         id="path4207"
         inkscape:connector-curvature="0" />
      <path
         d="m 234.5405,136.23392 q 0,-1.03394 0.2478,-1.89698 0.2478,-0.87158 0.72632,-1.49536 0.47851,-0.62378 1.17065,-0.97412 0.70069,-0.35034 1.58936,-0.35034 0.82031,0 1.44409,0.28198 0.63232,0.27344 1.09375,0.80323 l 0.0684,-0.91431 1.45264,0 0,12.80029 -1.58081,0 0,-4.39209 q -0.46143,0.48706 -1.07667,0.75196 -0.61523,0.25634 -1.41845,0.25634 -0.88013,0 -1.57227,-0.35888 -0.68359,-0.35889 -1.16211,-0.99121 -0.47851,-0.63233 -0.73486,-1.48682 -0.2478,-0.86304 -0.2478,-1.85425 l 0,-0.17944 z m 1.58081,0.17944 q 0,0.67505 0.14526,1.29028 0.15381,0.61524 0.46143,1.08521 0.30761,0.46997 0.77758,0.75195 0.47852,0.27344 1.13648,0.27344 0.7605,0 1.27319,-0.3418 0.5127,-0.34179 0.83741,-0.88867 l 0,-4.56299 q -0.16236,-0.26489 -0.37598,-0.47851 -0.20508,-0.22217 -0.46997,-0.38452 -0.25635,-0.16236 -0.57251,-0.24781 -0.30762,-0.094 -0.67505,-0.094 -0.65796,0 -1.13648,0.28198 -0.47851,0.28198 -0.79467,0.7605 -0.30762,0.46997 -0.46143,1.0852 -0.14526,0.61524 -0.14526,1.29029 l 0,0.17944 z"
         style="font-size:17.5px"
         id="path4209"
         inkscape:connector-curvature="0" />
      <path
         d="m 251.38254,131.51712 q 0.22217,0 0.46142,0.0171 0.23926,0.009 0.45288,0.0427 0.22217,0.0256 0.40162,0.0684 0.18798,0.0427 0.30761,0.094 l -0.21362,1.54663 q -0.46143,-0.10254 -0.88013,-0.14526 -0.41015,-0.0513 -0.86303,-0.0513 -1.11084,0 -1.80298,0.50415 -0.6836,0.50415 -1.0083,1.40991 l 0,5.93017 -1.58936,0 0,-9.2456 1.50391,0 0.0769,1.46973 q 0.56397,-0.7605 1.3501,-1.19629 0.79468,-0.44434 1.80298,-0.44434 z"
         style="font-size:17.5px"
         id="path4211"
         inkscape:connector-curvature="0" />
      <path
         d="m 261.96115,138.48123 q 0,-0.28198 -0.11108,-0.50415 -0.11109,-0.23071 -0.37598,-0.4187 -0.26489,-0.18799 -0.70068,-0.3418 -0.43579,-0.16235 -1.08521,-0.29052 -0.79468,-0.16236 -1.45263,-0.39307 -0.64942,-0.23071 -1.11939,-0.54688 -0.46143,-0.3247 -0.71777,-0.75195 -0.25635,-0.43579 -0.25635,-1.0083 0,-0.56396 0.26489,-1.05102 0.26489,-0.49561 0.74341,-0.86304 0.47852,-0.36743 1.13647,-0.58106 0.66651,-0.21362 1.46119,-0.21362 0.85449,0 1.53808,0.22217 0.6836,0.22217 1.16211,0.61523 0.47852,0.39307 0.73486,0.92285 0.2649,0.52124 0.2649,1.12793 l -1.58081,0 q 0,-0.29907 -0.15381,-0.58105 -0.15381,-0.29053 -0.42725,-0.5127 -0.27344,-0.22216 -0.6665,-0.35888 -0.38452,-0.13672 -0.87158,-0.13672 -0.50415,0 -0.88868,0.11108 -0.37597,0.11109 -0.63232,0.29907 -0.2478,0.18799 -0.37598,0.4358 -0.12817,0.2478 -0.12817,0.51269 0,0.27344 0.10254,0.48706 0.10254,0.21362 0.35034,0.38452 0.25635,0.1709 0.67505,0.30762 0.42725,0.13672 1.07666,0.26489 0.85449,0.17945 1.52954,0.4187 0.67505,0.23072 1.13648,0.56397 0.46142,0.32471 0.70068,0.7605 0.2478,0.43579 0.2478,1.0083 0,0.61523 -0.28198,1.11938 -0.27344,0.50415 -0.76904,0.86304 -0.49561,0.35889 -1.18775,0.55542 -0.69214,0.19653 -1.51245,0.19653 -0.93994,0 -1.6748,-0.2478 -0.73487,-0.25635 -1.24756,-0.6665 -0.50415,-0.41871 -0.77759,-0.96558 -0.26489,-0.54688 -0.26489,-1.13647 l 1.58081,0 q 0.0342,0.48706 0.25635,0.82031 0.23071,0.33325 0.56396,0.53833 0.3418,0.20508 0.75195,0.29053 0.41016,0.0854 0.81177,0.0854 0.99976,0 1.58081,-0.36743 0.58106,-0.36743 0.5896,-0.97412 z"
         style="font-size:17.5px"
         id="path4213"
         inkscape:connector-curvature="0" />
      <path
         d="m 270.05319,129.44925 0,2.23877 3.52051,0 0,1.22192 -3.52051,0 0,5.02442 q 0,0.53833 0.13672,0.88867 0.13672,0.35034 0.37598,0.56396 0.23926,0.20508 0.54687,0.29053 0.31616,0.0855 0.66651,0.0855 0.25634,0 0.52978,-0.0256 0.27344,-0.0342 0.52979,-0.0769 0.26489,-0.0427 0.48706,-0.0854 0.23071,-0.0513 0.37597,-0.0855 l 0.22217,1.11939 q -0.19653,0.11963 -0.47851,0.21362 -0.28199,0.0855 -0.61524,0.14526 -0.33325,0.0684 -0.70923,0.10254 -0.36743,0.0342 -0.73486,0.0342 -0.61523,0 -1.15356,-0.1709 -0.52979,-0.17944 -0.92286,-0.55542 -0.39306,-0.38452 -0.62378,-0.98266 -0.22216,-0.60669 -0.22216,-1.46118 l 0,-5.02442 -2.42676,0 0,-1.22192 2.42676,0 0,-2.23877 1.58935,0 z"
         style="font-size:17.5px"
         id="path4215"
         inkscape:connector-curvature="0" />
      <path
         d="m 282.80222,139.66043 q -0.46143,0.68359 -1.15357,1.06812 -0.69214,0.37597 -1.5979,0.37597 -0.72632,0 -1.31592,-0.22217 -0.5896,-0.23071 -1.0083,-0.70922 -0.4187,-0.47852 -0.64941,-1.21338 -0.22217,-0.74341 -0.22217,-1.77735 l 0,-5.49438 1.58081,0 0,5.51147 q 0,0.75196 0.11963,1.24756 0.11963,0.49561 0.35889,0.79468 0.23925,0.29053 0.58105,0.41016 0.35034,0.11962 0.80322,0.11962 0.96558,0 1.55518,-0.39306 0.59814,-0.39307 0.88867,-1.05957 l 0,-6.63086 1.58936,0 0,9.2456 -1.43555,0 -0.094,-1.27319 z"
         style="font-size:17.5px"
         id="path4217"
         inkscape:connector-curvature="0" />
      <path
         d="m 290.91989,138.66068 0.14527,0.5725 0.1538,-0.5725 2.58911,-6.97266 1.615,0 -3.76832,9.2456 -1.20483,0 -3.80249,-9.2456 1.62354,0 2.64892,6.97266 z"
         style="font-size:17.5px"
         id="path4219"
         inkscape:connector-curvature="0" />
      <path
         d="m 299.19138,137.58401 0.18798,1.32447 0.23072,-1.32447 1.47827,-5.89599 1.01684,0 1.46973,5.89599 0.2478,1.45264 0.23072,-1.45264 1.02539,-5.89599 1.40136,0 -1.96533,9.2456 -1.24756,0 -1.44409,-5.66528 -0.23926,-1.43555 -0.23071,1.43555 -1.427,5.66528 -1.24756,0 -1.96533,-9.2456 1.40137,0 1.07666,5.89599 z"
         style="font-size:17.5px"
         id="path4221"
         inkscape:connector-curvature="0" />
      <path
         d="m 312.10275,135.11453 2.46949,-3.42651 1.85424,0 -3.4436,4.57153 3.5376,4.67407 -1.82862,0 -2.55493,-3.5205 -2.55493,3.5205 -1.8457,0 3.5376,-4.67407 -3.44361,-4.57153 1.82862,0 2.44384,3.42651 z"
         style="font-size:17.5px"
         id="path4223"
         inkscape:connector-curvature="0" />
      <path
         d="m 322.17722,137.65237 0.41015,1.11939 2.81983,-7.08374 1.76879,0 -4.69116,10.67261 q -0.16235,0.35888 -0.4187,0.76049 -0.2478,0.40162 -0.60669,0.74341 -0.35888,0.3418 -0.8374,0.57251 -0.47852,0.23072 -1.1023,0.23072 -0.11108,0 -0.2478,-0.0171 -0.13672,-0.009 -0.27344,-0.0342 -0.13671,-0.0171 -0.25634,-0.0427 -0.11963,-0.0256 -0.19654,-0.0427 l 0.25635,-1.29029 q 0.0598,0 0.16235,0.009 0.10254,0.009 0.21363,0.0171 0.11108,0.009 0.21362,0.009 0.10254,0.009 0.16235,0.009 0.32471,0 0.5896,-0.17945 0.27344,-0.17944 0.47852,-0.42724 0.21362,-0.2478 0.35889,-0.5127 0.15381,-0.26489 0.23925,-0.43579 l 0.63233,-1.23047 -3.98194,-8.80981 1.7688,0 2.53785,5.96435 z"
         style="font-size:17.5px"
         id="path4225"
         inkscape:connector-curvature="0" />
      <path
         d="m 331.16647,139.64334 5.88745,0 0,1.29028 -7.90405,0 0,-1.16211 5.52002,-6.77612 -5.44311,0 0,-1.30737 7.51953,0 0,1.11938 -5.57984,6.83594 z"
         style="font-size:17.5px"
         id="path4227"
         inkscape:connector-curvature="0" />
      <path
         d="m 72.84494,159.58719 -4.152832,0 -0.999756,3.22143 -1.58081,0 4.016113,-12.4414 1.324463,0 3.947754,12.4414 -1.572266,0 -0.982666,-3.22143 z m -3.725586,-1.37573 3.306885,0 -1.640625,-5.40039 -1.66626,5.40039 z"
         style="font-size:17.5px"
         id="path4229"
         inkscape:connector-curvature="0" />
      <path
         d="m 77.382294,162.80862 0,-12.4414 3.699951,0 q 0.769043,0.009 1.503906,0.20508 0.734863,0.18798 1.307373,0.5896 0.57251,0.40161 0.914307,1.02539 0.341797,0.62378 0.333252,1.49536 -0.0085,0.48706 -0.162354,0.88867 -0.145263,0.40161 -0.410156,0.72632 -0.256348,0.31616 -0.606689,0.55542 -0.350342,0.23926 -0.743409,0.41015 0.495606,0.14527 0.905762,0.41871 0.418701,0.26489 0.717773,0.64941 0.299073,0.37598 0.461426,0.85449 0.170899,0.47852 0.170899,1.03394 0.0085,0.87158 -0.333252,1.53808 -0.341797,0.66651 -0.914307,1.11939 -0.57251,0.44433 -1.324463,0.68359 -0.743408,0.23926 -1.538086,0.2478 l -3.981933,0 z m 1.589355,-5.81909 0,4.47754 2.435303,0 q 0.495605,-0.009 0.939941,-0.16235 0.444336,-0.16236 0.786133,-0.44434 0.341797,-0.28198 0.53833,-0.69214 0.205078,-0.41015 0.205078,-0.93139 0.0085,-0.52979 -0.179443,-0.93994 -0.179443,-0.41016 -0.50415,-0.69214 -0.324707,-0.29053 -0.760498,-0.44434 -0.435791,-0.15381 -0.939942,-0.1709 l -2.520752,0 z m 0,-1.31592 2.20459,0 q 0.444336,-0.009 0.871582,-0.13671 0.427246,-0.13672 0.760498,-0.38453 0.333252,-0.25634 0.53833,-0.62378 0.205078,-0.36743 0.205078,-0.85449 0,-0.52124 -0.205078,-0.88867 -0.196533,-0.36743 -0.53833,-0.59814 -0.333252,-0.23926 -0.777588,-0.35035 -0.435791,-0.11108 -0.897217,-0.11962 l -2.161865,0 0,3.95629 z"
         style="font-size:17.5px"
         id="path4231"
         inkscape:connector-curvature="0" />
      <path
         d="m 95.950409,159.06595 q -0.111084,0.86304 -0.444336,1.58935 -0.333252,0.71778 -0.871582,1.23902 -0.529785,0.51269 -1.264648,0.80322 -0.726319,0.28198 -1.623536,0.28198 -0.769043,0 -1.401367,-0.21362 -0.623779,-0.22217 -1.119385,-0.60669 -0.48706,-0.38452 -0.845947,-0.90576 -0.350342,-0.52124 -0.589599,-1.13648 -0.230713,-0.61523 -0.350342,-1.29028 -0.111084,-0.67505 -0.119629,-1.36719 l 0,-1.73462 q 0.0085,-0.69213 0.119629,-1.36718 0.119629,-0.67505 0.350342,-1.29029 0.239257,-0.61523 0.589599,-1.13647 0.358887,-0.52979 0.845947,-0.91431 0.495606,-0.38452 1.119385,-0.59814 0.623779,-0.22217 1.401367,-0.22217 0.931397,0 1.66626,0.29053 0.734863,0.28198 1.264649,0.81176 0.529785,0.52124 0.845947,1.25611 0.324707,0.73486 0.427246,1.62353 l -1.580811,0 q -0.0769,-0.56396 -0.264892,-1.05102 -0.187988,-0.48706 -0.504151,-0.85449 -0.316162,-0.36744 -0.777587,-0.57251 -0.452881,-0.21363 -1.076661,-0.21363 -0.563964,0 -0.999755,0.18799 -0.427247,0.17944 -0.743409,0.49561 -0.307617,0.31616 -0.52124,0.73486 -0.205078,0.4187 -0.333252,0.88867 -0.128174,0.46997 -0.187988,0.96558 -0.05127,0.48706 -0.05127,0.94848 l 0,1.75171 q 0,0.46143 0.05127,0.95703 0.05981,0.48706 0.187988,0.96558 0.128174,0.46997 0.333252,0.88867 0.205078,0.4187 0.52124,0.74341 0.316162,0.31616 0.743409,0.50415 0.427246,0.17944 0.999755,0.17944 0.62378,0 1.076661,-0.19653 0.461425,-0.19653 0.777587,-0.54687 0.316163,-0.35889 0.504151,-0.83741 0.187988,-0.48706 0.264892,-1.05102 l 1.580811,0 z"
         style="font-size:17.5px"
         id="path4233"
         inkscape:connector-curvature="0" />
      <path
         d="m 98.223358,162.80862 0,-12.4414 2.879642,0 q 1.29882,0.0171 2.31567,0.44433 1.02539,0.41871 1.72607,1.1792 0.70923,0.75196 1.07667,1.81153 0.37597,1.05102 0.38452,2.33276 l 0,0.91431 q -0.009,1.28174 -0.38452,2.34131 -0.36744,1.05102 -1.07667,1.81152 -0.70068,0.75195 -1.72607,1.1792 -1.01685,0.4187 -2.31567,0.42724 l -2.879642,0 z m 1.606445,-11.14257 0,9.85229 1.273197,0 q 1.0083,-0.009 1.74316,-0.35034 0.73486,-0.35034 1.21338,-0.94849 0.48706,-0.59814 0.71777,-1.40991 0.23926,-0.81177 0.24781,-1.76025 l 0,-0.9314 q -0.009,-0.94849 -0.24781,-1.75171 -0.23925,-0.81177 -0.71777,-1.40137 -0.47852,-0.59814 -1.21338,-0.93994 -0.73486,-0.34179 -1.74316,-0.35888 l -1.273197,0 z"
         style="font-size:17.5px"
         id="path4235"
         inkscape:connector-curvature="0" />
      <path
         d="m 115.72336,157.05789 -5.19531,0 0,4.40918 6.05835,0 0,1.34155 -7.63916,0 0,-12.4414 7.56225,0 0,1.3501 -5.98144,0 0,3.99902 5.19531,0 0,1.34155 z"
         style="font-size:17.5px"
         id="path4237"
         inkscape:connector-curvature="0" />
      <path
         d="m 126.29343,157.31424 -5.17823,0 0,5.49438 -1.5979,0 0,-12.4414 7.63916,0 0,1.3501 -6.04126,0 0,4.25537 5.17823,0 0,1.34155 z"
         style="font-size:17.5px"
         id="path4239"
         inkscape:connector-curvature="0" />
      <path
         d="m 137.91452,161.17654 q -0.78613,0.92286 -1.80298,1.36719 -1.01684,0.44434 -2.23022,0.43579 -0.76905,-0.009 -1.41846,-0.23071 -0.64087,-0.23071 -1.15356,-0.62378 -0.5127,-0.40161 -0.89722,-0.93994 -0.38452,-0.53833 -0.64942,-1.16211 -0.25634,-0.63232 -0.39306,-1.31592 -0.12818,-0.69214 -0.13672,-1.39282 l 0,-1.44409 q 0.009,-0.69214 0.11963,-1.37573 0.11963,-0.69214 0.35889,-1.32447 0.23925,-0.63232 0.59814,-1.17065 0.35889,-0.54688 0.85449,-0.93994 0.50415,-0.40161 1.13648,-0.63233 0.63232,-0.23071 1.41845,-0.23071 0.87159,0 1.60645,0.27344 0.73486,0.26489 1.28174,0.76904 0.54687,0.49561 0.88012,1.20483 0.33326,0.70069 0.41016,1.57227 l -1.56372,0 q -0.094,-0.53833 -0.29053,-0.99121 -0.19653,-0.46143 -0.52124,-0.78613 -0.31616,-0.32471 -0.7605,-0.50415 -0.44433,-0.18799 -1.03393,-0.18799 -0.56397,0 -0.99976,0.19653 -0.43579,0.18799 -0.7605,0.5127 -0.3247,0.3247 -0.53833,0.76049 -0.21362,0.42725 -0.35034,0.90577 -0.13672,0.47851 -0.19653,0.97412 -0.0598,0.4956 -0.0598,0.95703 l 0,1.46118 q 0.009,0.46997 0.0769,0.97412 0.0769,0.49561 0.23071,0.97412 0.15381,0.47852 0.39307,0.90576 0.23926,0.42725 0.57251,0.75196 0.3418,0.3247 0.78613,0.52124 0.44434,0.18799 1.0083,0.19653 0.32471,0.009 0.67505,-0.0256 0.35889,-0.0342 0.69214,-0.13672 0.33325,-0.10254 0.62378,-0.27344 0.29053,-0.17944 0.48706,-0.46143 l 0.0171,-2.79419 -2.5293,0 0,-1.333 4.03321,0 0.0256,4.56298 z"
         style="font-size:17.5px"
         id="path4241"
         inkscape:connector-curvature="0" />
      <path
         d="m 148.15988,162.80862 -1.49536,0 0,-5.75073 -5.10132,0 0,5.75073 -1.48681,0 0,-12.4414 1.48681,0 0,5.34912 5.10132,0 0,-5.34912 1.49536,0 0,12.4414 z"
         style="font-size:17.5px"
         id="path4243"
         inkscape:connector-curvature="0" />
      <path
         d="m 150.85153,150.36722 7.51953,0 0,1.37573 -2.98217,0 0,9.69849 2.98217,0 0,1.36718 -7.51953,0 0,-1.36718 2.91382,0 0,-9.69849 -2.91382,0 0,-1.37573 z"
         style="font-size:17.5px"
         id="path4245"
         inkscape:connector-curvature="0" />
      <path
         d="m 167.18088,150.36722 1.61499,0 0,8.656 q -0.0171,0.86304 -0.33325,1.58936 -0.30762,0.72632 -0.84595,1.2561 -0.53833,0.52124 -1.27319,0.82032 -0.72632,0.29052 -1.58936,0.29052 -0.87158,0 -1.58936,-0.26489 -0.70922,-0.26489 -1.23901,-0.75195 -0.52124,-0.49561 -0.8374,-1.18775 -0.31616,-0.70068 -0.39307,-1.56372 l 1.60645,0 q 0.0256,0.52124 0.20508,0.96558 0.18798,0.44433 0.50415,0.77759 0.31616,0.3247 0.75195,0.50415 0.44433,0.17944 0.99121,0.17944 0.56396,0 1.0083,-0.20508 0.44434,-0.21362 0.75195,-0.57251 0.31617,-0.35888 0.47852,-0.82886 0.1709,-0.47851 0.18799,-1.0083 l 0,-8.656 z"
         style="font-size:17.5px"
         id="path4247"
         inkscape:connector-curvature="0" />
      <path
         d="m 174.82004,157.03226 -1.38428,1.57226 0,4.2041 -1.61499,0 0,-12.4414 1.61499,0 0,6.07544 1.20483,-1.50391 3.64869,-4.57153 1.9226,0 -4.34936,5.44311 4.63989,6.99829 -1.92261,0 -3.75976,-5.77636 z"
         style="font-size:17.5px"
         id="path4249"
         inkscape:connector-curvature="0" />
      <path
         d="m 184.11691,161.46707 6.08399,0 0,1.34155 -7.6648,0 0,-12.4414 1.58081,0 0,11.09985 z"
         style="font-size:17.5px"
         id="path4251"
         inkscape:connector-curvature="0" />
      <path
         d="m 194.55881,150.36722 2.02514,6.2207 2.1875,-6.2207 1.96534,0 0,12.4414 -1.53809,0 0,-4.9646 0.12817,-5.19531 -2.29858,6.69922 -0.90576,0 -2.1106,-6.51977 0.12818,5.01586 0,4.9646 -1.53809,0 0,-12.4414 1.95679,0 z"
         style="font-size:17.5px"
         id="path4253"
         inkscape:connector-curvature="0" />
      <path
         d="m 211.11032,162.80862 -1.60644,0 -4.82789,-9.29687 -0.0256,9.29687 -1.5979,0 0,-12.4414 1.60645,0 4.82788,9.27978 0.0256,-9.27978 1.5979,0 0,12.4414 z"
         style="font-size:17.5px"
         id="path4255"
         inkscape:connector-curvature="0" />
      <path
         d="m 221.90256,157.30569 q -0.009,0.66651 -0.11963,1.3501 -0.10254,0.67505 -0.32471,1.30738 -0.22217,0.63232 -0.57251,1.17919 -0.3418,0.54688 -0.82031,0.95704 -0.47852,0.41015 -1.1023,0.64941 -0.61523,0.23071 -1.38427,0.23071 -0.76905,0 -1.39283,-0.23071 -0.61523,-0.23926 -1.09375,-0.64941 -0.47851,-0.41016 -0.82885,-0.95704 -0.35034,-0.55542 -0.58106,-1.18774 -0.22217,-0.63232 -0.33325,-1.30737 -0.11108,-0.67505 -0.11963,-1.34156 l 0,-1.41845 q 0.009,-0.66651 0.11109,-1.34156 0.11108,-0.68359 0.33325,-1.31591 0.23071,-0.63233 0.57251,-1.1792 0.35034,-0.55542 0.82885,-0.96558 0.47852,-0.4187 1.09375,-0.64941 0.62378,-0.23926 1.39283,-0.23926 0.76904,0 1.39282,0.23926 0.62378,0.23071 1.10229,0.64087 0.47852,0.41015 0.82032,0.96557 0.35034,0.54688 0.57251,1.1792 0.23071,0.63233 0.33325,1.31592 0.11108,0.68359 0.11963,1.3501 l 0,1.41845 z m -1.56372,-1.43554 q -0.009,-0.44434 -0.0598,-0.92285 -0.0513,-0.48706 -0.17944,-0.95704 -0.11963,-0.47851 -0.32471,-0.90576 -0.20508,-0.43579 -0.51269,-0.76049 -0.30762,-0.33326 -0.72632,-0.52125 -0.4187,-0.19653 -0.97412,-0.19653 -0.54688,0 -0.96558,0.19653 -0.4187,0.19654 -0.72632,0.52979 -0.30761,0.32471 -0.51269,0.7605 -0.20508,0.42724 -0.33325,0.90576 -0.11963,0.46997 -0.17945,0.95703 -0.0513,0.47852 -0.0598,0.91431 l 0,1.43554 q 0.009,0.4358 0.0598,0.92286 0.0598,0.48706 0.18799,0.96557 0.12817,0.46997 0.33325,0.90576 0.20508,0.4358 0.5127,0.76905 0.30761,0.3247 0.72632,0.52124 0.4187,0.19653 0.97412,0.19653 0.55542,0 0.97412,-0.19653 0.42724,-0.19654 0.72632,-0.52124 0.30761,-0.33325 0.50415,-0.7605 0.20507,-0.43579 0.3247,-0.90576 0.12818,-0.47852 0.1709,-0.96558 0.0513,-0.48706 0.0598,-0.9314 l 0,-1.43554 z"
         style="font-size:17.5px"
         id="path4257"
         inkscape:connector-curvature="0" />
      <path
         d="m 226.02975,157.81839 0,4.99023 -1.58081,0 0,-12.4414 4.03321,0 q 0.8374,0.0171 1.58081,0.26489 0.75195,0.2478 1.31592,0.71777 0.56396,0.46997 0.88867,1.16211 0.33325,0.69214 0.33325,1.58936 0,0.89722 -0.33325,1.58935 -0.32471,0.6836 -0.88867,1.15357 -0.56397,0.46997 -1.31592,0.71777 -0.74341,0.2478 -1.58081,0.25635 l -2.4524,0 z m 0,-1.29883 2.4524,0 q 0.54687,-0.009 1.0083,-0.1709 0.46142,-0.1709 0.80322,-0.47851 0.3418,-0.30762 0.52979,-0.74341 0.19653,-0.44434 0.19653,-1.0083 0,-0.56397 -0.19653,-1.01685 -0.18799,-0.45288 -0.52979,-0.76904 -0.33325,-0.31616 -0.80322,-0.48706 -0.46143,-0.1709 -1.0083,-0.17944 l -2.4524,0 0,4.85351 z"
         style="font-size:17.5px"
         id="path4259"
         inkscape:connector-curvature="0" />
      <path
         d="m 242.99997,157.14334 q -0.009,0.69214 -0.11963,1.39282 -0.11108,0.70069 -0.3418,1.3501 -0.22216,0.64942 -0.58105,1.22192 -0.35034,0.56397 -0.84595,0.98267 l 2.14478,1.78589 -1.08521,1.03394 -2.46094,-2.08497 q -0.52978,0.15381 -1.14501,0.15381 -0.79468,0 -1.42701,-0.23926 -0.63232,-0.2478 -1.12793,-0.6665 -0.48706,-0.4187 -0.84594,-0.98267 -0.35889,-0.5725 -0.5896,-1.22192 -0.23072,-0.64941 -0.3418,-1.34155 -0.11108,-0.70069 -0.11963,-1.38428 l 0,-1.09375 q 0.009,-0.68359 0.11963,-1.38428 0.11108,-0.70068 0.3418,-1.35009 0.23071,-0.64942 0.58105,-1.21338 0.35034,-0.57251 0.8374,-0.99121 0.49561,-0.42725 1.12793,-0.66651 0.64087,-0.2478 1.43555,-0.2478 0.79468,0 1.427,0.2478 0.64087,0.23926 1.12793,0.65796 0.49561,0.4187 0.84595,0.99121 0.35889,0.56397 0.58105,1.21338 0.23072,0.64942 0.3418,1.35864 0.11108,0.70069 0.11963,1.38428 l 0,1.09375 z m -1.57227,-1.11084 q -0.009,-0.46997 -0.0598,-0.97412 -0.0427,-0.5127 -0.1709,-0.99976 -0.11963,-0.4956 -0.33325,-0.93994 -0.20508,-0.44433 -0.52124,-0.77759 -0.31616,-0.34179 -0.7605,-0.53833 -0.43579,-0.19653 -1.02539,-0.19653 -0.58105,0 -1.01685,0.20508 -0.43579,0.19653 -0.75195,0.53833 -0.31616,0.33325 -0.52978,0.77759 -0.20508,0.44433 -0.33326,0.93994 -0.12817,0.48706 -0.18798,0.99976 -0.0513,0.50415 -0.0513,0.96557 l 0,1.11084 q 0,0.46143 0.0513,0.97412 0.0598,0.50415 0.18798,0.99976 0.12818,0.4956 0.33326,0.93994 0.21362,0.44434 0.52978,0.78613 0.31616,0.3418 0.75195,0.54688 0.44434,0.19653 1.0254,0.19653 0.58959,0 1.02539,-0.19653 0.44433,-0.20508 0.76049,-0.53833 0.31617,-0.3418 0.52124,-0.78614 0.20508,-0.44433 0.32471,-0.93994 0.12817,-0.4956 0.1709,-0.99975 0.0513,-0.5127 0.0598,-0.98267 l 0,-1.11084 z"
         style="font-size:17.5px"
         id="path4261"
         inkscape:connector-curvature="0" />
      <path
         d="m 249.40866,157.73294 -2.48657,0 0,5.07568 -1.57227,0 0,-12.4414 3.64868,0 q 0.87159,0.0171 1.64063,0.2478 0.76904,0.23071 1.34155,0.69214 0.58106,0.46143 0.90576,1.16211 0.33326,0.69214 0.33326,1.63208 0,0.60669 -0.17945,1.11084 -0.1709,0.50415 -0.47851,0.91431 -0.30762,0.41015 -0.73487,0.72631 -0.42724,0.31617 -0.93994,0.53833 l 2.64038,5.31495 -0.009,0.10253 -1.66626,0 -2.44385,-5.07568 z m -2.48657,-1.29883 2.11914,0 q 0.52978,-0.009 0.99976,-0.16235 0.46997,-0.16235 0.82031,-0.46143 0.35888,-0.29907 0.56396,-0.72632 0.20508,-0.43579 0.20508,-0.99975 0,-0.59815 -0.19653,-1.04248 -0.19654,-0.45288 -0.54688,-0.75195 -0.35034,-0.30762 -0.8374,-0.46143 -0.47852,-0.15381 -1.05103,-0.16235 l -2.07641,0 0,4.76806 z"
         style="font-size:17.5px"
         id="path4263"
         inkscape:connector-curvature="0" />
      <path
         d="m 262.2944,159.66409 q 0,-0.57251 -0.26489,-0.96557 -0.25635,-0.39307 -0.6665,-0.65796 -0.41016,-0.27344 -0.90577,-0.45288 -0.48706,-0.17945 -0.93994,-0.32471 -0.65796,-0.21362 -1.34155,-0.5127 -0.67505,-0.29907 -1.23901,-0.73486 -0.55542,-0.43579 -0.91431,-1.02539 -0.35034,-0.59814 -0.35034,-1.40137 0,-0.80322 0.35034,-1.43554 0.35889,-0.63233 0.9314,-1.06812 0.57251,-0.43579 1.29883,-0.65796 0.72631,-0.23071 1.46118,-0.23071 0.81176,0 1.56372,0.27344 0.75195,0.26489 1.33301,0.75195 0.58105,0.48706 0.93139,1.1792 0.35034,0.69214 0.36743,1.54663 l -1.62353,0 q -0.0684,-0.53833 -0.26489,-0.97412 -0.19654,-0.44434 -0.52124,-0.7605 -0.32471,-0.31616 -0.77759,-0.48706 -0.44434,-0.17944 -1.0083,-0.17944 -0.45288,0 -0.88868,0.12817 -0.42724,0.12817 -0.76904,0.38452 -0.33325,0.25635 -0.53833,0.63233 -0.19653,0.37597 -0.19653,0.87158 0.009,0.53833 0.27344,0.91431 0.26489,0.36743 0.6665,0.62377 0.41016,0.25635 0.88013,0.42725 0.47851,0.1709 0.89721,0.29907 0.46143,0.14527 0.9314,0.33326 0.46997,0.17944 0.90576,0.4187 0.43579,0.23925 0.81177,0.53833 0.37598,0.29907 0.65796,0.68359 0.28198,0.37598 0.43579,0.8374 0.16235,0.45288 0.16235,1.0083 0,0.83741 -0.37597,1.46118 -0.36744,0.62378 -0.95703,1.04249 -0.5896,0.41015 -1.33301,0.62377 -0.74341,0.20508 -1.48682,0.20508 -0.82886,0 -1.62353,-0.25634 -0.79468,-0.25635 -1.42701,-0.73487 -0.62378,-0.48706 -1.01684,-1.1792 -0.39307,-0.70068 -0.4187,-1.58935 l 1.61499,0 q 0.0769,0.58105 0.31616,1.03393 0.23926,0.44434 0.61523,0.7605 0.37598,0.30762 0.86304,0.46997 0.49561,0.15381 1.07666,0.15381 0.46143,0 0.90576,-0.11108 0.45288,-0.11963 0.80323,-0.35889 0.35034,-0.2478 0.57251,-0.61524 0.22216,-0.37597 0.22216,-0.88867 z"
         style="font-size:17.5px"
         id="path4265"
         inkscape:connector-curvature="0" />
      <path
         d="m 274.66745,151.71732 -3.84521,0 0,11.0913 -1.53809,0 0,-11.0913 -3.84522,0 0,-1.3501 9.22852,0 0,1.3501 z"
         style="font-size:17.5px"
         id="path4267"
         inkscape:connector-curvature="0" />
      <path
         d="m 284.57956,150.36722 0.0171,8.42529 q -0.0171,0.87158 -0.31616,1.63208 -0.29908,0.7605 -0.83741,1.33301 -0.53833,0.56396 -1.28173,0.89722 -0.74341,0.3247 -1.63208,0.3247 -0.90577,0 -1.64917,-0.3247 -0.74341,-0.32471 -1.2732,-0.88868 -0.52978,-0.57251 -0.82885,-1.333 -0.29908,-0.76905 -0.30762,-1.64063 l 0.0171,-8.42529 1.5039,0 0.0342,8.42529 q 0.009,0.55542 0.1709,1.06812 0.1709,0.51269 0.47852,0.90576 0.31616,0.39306 0.77759,0.63232 0.46997,0.23926 1.07666,0.23926 0.60669,0 1.06811,-0.23071 0.46143,-0.23926 0.76904,-0.63233 0.31617,-0.40161 0.47852,-0.9143 0.16235,-0.5127 0.17944,-1.06812 l 0.0256,-8.42529 1.52954,0 z"
         style="font-size:17.5px"
         id="path4269"
         inkscape:connector-curvature="0" />
      <path
         d="m 290.98825,160.26224 2.93945,-9.89502 1.68335,0 -3.92212,12.4414 -1.37573,0 -3.93066,-12.4414 1.69189,0 2.91382,9.89502 z"
         style="font-size:17.5px"
         id="path4271"
         inkscape:connector-curvature="0" />
      <path
         d="m 303.92526,159.44193 0.94849,-9.07471 1.49536,0 -1.51245,12.4414 -1.61499,0 -1.5979,-9.37378 -1.61499,9.37378 -1.62354,0 -1.51245,-12.4414 1.50391,0 0.94848,9.07471 1.5979,-9.07471 1.37574,0 1.60644,9.07471 z"
         style="font-size:17.5px"
         id="path4273"
         inkscape:connector-curvature="0" />
      <path
         d="m 312.10275,155.24637 2.68311,-4.87915 1.86279,0 -3.6145,6.16943 3.69995,6.27197 -1.8457,0 -2.75147,-4.97314 -2.76001,4.97314 -1.87134,0 3.7085,-6.27197 -3.6145,-6.16943 1.85425,0 2.64892,4.87915 z"
         style="font-size:17.5px"
         id="path4275"
         inkscape:connector-curvature="0" />
      <path
         d="m 322.40793,156.61356 2.83691,-6.24634 1.79444,0 -3.87085,7.80151 -0.0256,4.63989 -1.46972,0 -0.0256,-4.63989 -3.87085,-7.80151 1.80298,0 2.82837,6.24634 z"
         style="font-size:17.5px"
         id="path4277"
         inkscape:connector-curvature="0" />
      <path
         d="m 330.5256,161.46707 6.44288,0 0,1.34155 -8.22876,0 -0.0171,-1.23046 6.19506,-9.86084 -6.08398,0 0,-1.3501 7.88696,0 0.0171,1.20483 -6.21216,9.89502 z"
         style="font-size:17.5px"
         id="path4279"
         inkscape:connector-curvature="0" />
      <path
         d="m 66.461884,179.97537 q 0,-0.99975 0.290527,-1.85425 0.290527,-0.86303 0.828857,-1.49536 0.546875,-0.63232 1.324463,-0.99121 0.777588,-0.36743 1.751709,-0.36743 0.982666,0 1.760254,0.36743 0.786133,0.35889 1.324463,0.99121 0.546875,0.63233 0.837402,1.49536 0.290528,0.8545 0.290528,1.85425 l 0,0.18799 q 0,0.99976 -0.290528,1.85425 -0.290527,0.85449 -0.837402,1.48682 -0.53833,0.63232 -1.315918,0.99121 -0.777588,0.35888 -1.751709,0.35888 -0.982666,0 -1.768799,-0.35888 -0.777588,-0.35889 -1.324463,-0.99121 -0.53833,-0.63233 -0.828857,-1.48682 -0.290527,-0.85449 -0.290527,-1.85425 l 0,-0.18799 z m 1.58081,0.18799 q 0,0.68359 0.162354,1.30737 0.162353,0.61524 0.48706,1.08521 0.333252,0.46997 0.828858,0.74341 0.495605,0.27343 1.153564,0.27343 0.649414,0 1.136475,-0.27343 0.495605,-0.27344 0.820312,-0.74341 0.333252,-0.46997 0.495606,-1.08521 0.162353,-0.62378 0.162353,-1.30737 l 0,-0.18799 q 0,-0.67505 -0.170898,-1.29028 -0.162354,-0.62378 -0.495606,-1.09375 -0.324707,-0.46997 -0.820312,-0.74341 -0.487061,-0.28198 -1.14502,-0.28198 -0.657959,0 -1.145019,0.28198 -0.487061,0.27344 -0.820313,0.74341 -0.324707,0.46997 -0.48706,1.09375 -0.162354,0.61523 -0.162354,1.29028 l 0,0.18799 z"
         style="font-size:17.5px"
         id="path4281"
         inkscape:connector-curvature="0" />
      <path
         d="m 85.491425,179.18069 q -0.0085,0.66651 -0.119629,1.3501 -0.102539,0.67505 -0.324707,1.30738 -0.222168,0.63232 -0.57251,1.17919 -0.341797,0.54688 -0.820313,0.95704 -0.478515,0.41015 -1.102295,0.64941 -0.615234,0.23071 -1.384277,0.23071 -0.769043,0 -1.392822,-0.23071 -0.615235,-0.23926 -1.09375,-0.64941 -0.478516,-0.41016 -0.828858,-0.95704 -0.350341,-0.55542 -0.581054,-1.18774 -0.222168,-0.63232 -0.333252,-1.30737 -0.111084,-0.67505 -0.119629,-1.34156 l 0,-1.41845 q 0.0085,-0.66651 0.111084,-1.34156 0.111084,-0.68359 0.333252,-1.31591 0.230713,-0.63233 0.57251,-1.1792 0.350341,-0.55542 0.828857,-0.96558 0.478516,-0.4187 1.09375,-0.64941 0.623779,-0.23926 1.392822,-0.23926 0.769043,0 1.392823,0.23926 0.623779,0.23071 1.102294,0.64087 0.478516,0.41015 0.820313,0.96557 0.350342,0.54688 0.57251,1.1792 0.230713,0.63233 0.333252,1.31592 0.111084,0.68359 0.119629,1.3501 l 0,1.41845 z m -1.563721,-1.43554 q -0.0085,-0.44434 -0.05982,-0.92285 -0.05127,-0.48706 -0.179443,-0.95704 -0.119629,-0.47851 -0.324707,-0.90576 -0.205078,-0.43579 -0.512695,-0.76049 -0.307617,-0.33326 -0.726319,-0.52125 -0.418701,-0.19653 -0.974121,-0.19653 -0.546875,0 -0.965576,0.19653 -0.418701,0.19654 -0.726318,0.52979 -0.307617,0.32471 -0.512696,0.7605 -0.205078,0.42724 -0.333252,0.90576 -0.119628,0.46997 -0.179443,0.95703 -0.05127,0.47852 -0.05981,0.91431 l 0,1.43554 q 0.0085,0.4358 0.05981,0.92286 0.05982,0.48706 0.187988,0.96557 0.128174,0.46997 0.333252,0.90576 0.205078,0.4358 0.512696,0.76905 0.307617,0.3247 0.726318,0.52124 0.418701,0.19653 0.974121,0.19653 0.55542,0 0.974121,-0.19653 0.427246,-0.19654 0.726319,-0.52124 0.307617,-0.33325 0.50415,-0.7605 0.205078,-0.43579 0.324707,-0.90576 0.128174,-0.47852 0.170898,-0.96558 0.05127,-0.48706 0.05982,-0.9314 l 0,-1.43554 z"
         style="font-size:17.5px"
         id="path4283"
         inkscape:connector-curvature="0" />
      <path
         d="m 95.702606,179.9241 q 0,1.18775 -0.273437,2.1106 -0.273438,0.91431 -0.786133,1.54663 -0.512695,0.62378 -1.256104,0.94849 -0.743408,0.3247 -1.700439,0.3247 -0.948486,0 -1.70044,-0.3247 -0.743408,-0.32471 -1.264648,-0.94849 -0.52124,-0.63232 -0.803223,-1.54663 -0.273437,-0.92285 -0.273437,-2.1106 l 0,-2.91382 q 0,-1.18774 0.273437,-2.10205 0.273438,-0.92285 0.786133,-1.55517 0.52124,-0.63233 1.264649,-0.95703 0.751953,-0.33326 1.700439,-0.33326 0.957031,0 1.70044,0.33326 0.751953,0.3247 1.264648,0.95703 0.52124,0.63232 0.794678,1.55517 0.273437,0.91431 0.273437,2.10205 l 0,2.91382 z m -6.468506,-0.31616 4.844971,-3.71704 q -0.136719,-1.23901 -0.726318,-1.87988 -0.581055,-0.64942 -1.68335,-0.64942 -1.247559,0 -1.845703,0.84595 -0.5896,0.8374 -0.5896,2.45239 l 0,2.948 z m 4.879151,-2.20459 -4.836426,3.69995 q 0.145264,1.20484 0.743408,1.83716 0.598145,0.63232 1.66626,0.63232 1.256103,0 1.837158,-0.85449 0.5896,-0.85449 0.5896,-2.46094 l 0,-2.854 z"
         style="font-size:17.5px"
         id="path4285"
         inkscape:connector-curvature="0" />
      <path
         d="m 106.04196,175.48929 q -0.009,0.93139 -0.50415,1.65771 -0.4956,0.72632 -1.32446,1.13648 0.47851,0.20508 0.86304,0.51269 0.39306,0.29908 0.6665,0.69214 0.28198,0.39307 0.42725,0.85449 0.1538,0.46143 0.1538,0.98267 0,0.84595 -0.31616,1.50391 -0.30762,0.65796 -0.84595,1.11084 -0.52978,0.44433 -1.24755,0.68359 -0.71778,0.23071 -1.53809,0.23071 -0.8374,0 -1.56372,-0.23071 -0.71777,-0.23071 -1.256104,-0.67505 -0.529785,-0.45288 -0.837402,-1.11084 -0.307618,-0.65796 -0.307618,-1.51245 0,-0.52124 0.145264,-0.98267 0.145264,-0.46997 0.418701,-0.85449 0.273438,-0.39306 0.657959,-0.70068 0.38452,-0.30762 0.86304,-0.5127 -0.41016,-0.20508 -0.743411,-0.48706 -0.333252,-0.29053 -0.563965,-0.64087 -0.230713,-0.35888 -0.358886,-0.77758 -0.128174,-0.41871 -0.128174,-0.88013 0,-0.81177 0.273437,-1.44409 0.273438,-0.64087 0.751953,-1.07666 0.487056,-0.43579 1.153566,-0.66651 0.67505,-0.23071 1.46973,-0.23071 0.78613,0 1.46118,0.23071 0.67505,0.23072 1.17065,0.66651 0.49561,0.43579 0.77759,1.07666 0.28198,0.63232 0.28198,1.44409 z m -1.29883,5.802 q 0,-0.52124 -0.17944,-0.95703 -0.1709,-0.43579 -0.48706,-0.74341 -0.31616,-0.31616 -0.7605,-0.48706 -0.43579,-0.1709 -0.95703,-0.1709 -0.53833,0 -0.97412,0.1709 -0.43579,0.1709 -0.74341,0.48706 -0.30762,0.30762 -0.47851,0.74341 -0.16236,0.43579 -0.16236,0.95703 0,0.53833 0.16236,0.96558 0.17089,0.4187 0.47851,0.70922 0.30762,0.29053 0.74341,0.44434 0.44434,0.15381 0.99121,0.15381 0.52124,0 0.95703,-0.15381 0.43579,-0.15381 0.74341,-0.44434 0.31616,-0.29052 0.48706,-0.70922 0.17944,-0.42725 0.17944,-0.96558 z m -0.29052,-5.77637 q 0,-0.46997 -0.16236,-0.86303 -0.15381,-0.39307 -0.43579,-0.67505 -0.27344,-0.29053 -0.65796,-0.44434 -0.38452,-0.16235 -0.84594,-0.16235 -0.46143,0 -0.83741,0.15381 -0.37597,0.14526 -0.64941,0.42724 -0.27344,0.28198 -0.42725,0.6836 -0.14526,0.39306 -0.14526,0.88012 0,0.48706 0.14526,0.88013 0.15381,0.38452 0.42725,0.6665 0.28198,0.27344 0.65796,0.42725 0.38452,0.14526 0.84595,0.14526 0.45288,0 0.8374,-0.14526 0.38452,-0.15381 0.65796,-0.42725 0.28198,-0.28198 0.43579,-0.67504 0.15381,-0.39307 0.15381,-0.87159 z"
         style="font-size:17.5px"
         id="path4287"
         inkscape:connector-curvature="0" />
      <path
         d="m 119.61984,175.43802 4.72534,0 0,7.87842 3.01636,0 0,1.36718 -7.7417,0 0,-1.36718 3.14453,0 0,-6.50269 -3.14453,0 0,-1.37573 z m 2.93946,-2.42676 q 0,-0.39307 0.23071,-0.65796 0.23926,-0.27344 0.71777,-0.27344 0.46997,0 0.70923,0.27344 0.23926,0.26489 0.23926,0.65796 0,0.38452 -0.23926,0.64087 -0.23926,0.25635 -0.70923,0.25635 -0.47851,0 -0.71777,-0.25635 -0.23071,-0.25635 -0.23071,-0.64087 z"
         style="font-size:17.5px"
         id="path4289"
         inkscape:connector-curvature="0" />
      <path
         d="m 129.8652,172.24222 7.51954,0 0,1.37573 -2.98218,0 0,9.69849 2.98218,0 0,1.36718 -7.51954,0 0,-1.36718 2.91382,0 0,-9.69849 -2.91382,0 0,-1.37573 z"
         style="font-size:17.5px"
         id="path4291"
         inkscape:connector-curvature="0" />
      <path
         d="m 140.60617,171.55862 4.72534,0 0,11.75782 3.01636,0 0,1.36718 -7.7417,0 0,-1.36718 3.14453,0 0,-10.38208 -3.14453,0 0,-1.37574 z"
         style="font-size:17.5px"
         id="path4293"
         inkscape:connector-curvature="0" />
      <path
         d="m 152.63742,183.34207 6.08399,0 0,1.34155 -7.6648,0 0,-12.4414 1.58081,0 0,11.09985 z"
         style="font-size:17.5px"
         id="path4295"
         inkscape:connector-curvature="0" />
      <path
         d="m 166.47165,184.68362 -1.58081,0 0,-10.4248 -3.25562,1.23901 0,-1.44409 4.70826,-1.81152 0.12817,0 0,12.4414 z"
         style="font-size:17.5px"
         id="path4297"
         inkscape:connector-curvature="0" />
      <path
         d="m 189.20114,187.81107 q -0.55542,-0.0171 -1.0083,-0.18799 -0.45288,-0.1709 -0.81177,-0.46143 -0.35888,-0.29053 -0.62378,-0.67505 -0.25634,-0.38452 -0.43579,-0.82885 -0.1709,-0.4358 -0.25634,-0.90577 -0.0854,-0.46142 -0.0854,-0.9143 l 0,-1.44409 q 0,-1.23047 -0.5896,-1.78589 -0.58106,-0.55542 -1.78589,-0.56397 l 0,-1.23901 q 1.20483,0 1.78589,-0.54688 0.5896,-0.55542 0.5896,-1.79443 l 0,-1.45264 q 0,-0.45288 0.0769,-0.9143 0.0769,-0.46997 0.23926,-0.90577 0.16235,-0.44433 0.41015,-0.82885 0.25635,-0.38452 0.61524,-0.67505 0.35889,-0.29053 0.82031,-0.46143 0.46997,-0.1709 1.05957,-0.18799 l 0.17944,0.98267 q -0.61523,0.0171 -0.98266,0.29053 -0.35889,0.27343 -0.54688,0.70068 -0.17944,0.4187 -0.23071,0.94849 -0.0513,0.52978 -0.0513,1.05102 l 0,1.45264 q -0.009,1.02539 -0.47851,1.80298 -0.46998,0.76904 -1.46119,1.17065 0.99121,0.39307 1.46119,1.17066 0.46997,0.76904 0.47851,1.78589 l 0,1.44409 q 0,0.52978 0.0854,1.05102 0.0855,0.52979 0.29053,0.94849 0.21362,0.42724 0.55542,0.70068 0.35034,0.27344 0.88012,0.29053 l -0.17944,0.98267 z"
         style="font-size:17.5px"
         id="path4299"
         inkscape:connector-curvature="0" />
      <path
         d="m 194.09738,186.8284 q 0.52124,-0.0171 0.87158,-0.29053 0.35035,-0.27344 0.55542,-0.70068 0.21363,-0.4187 0.29908,-0.94849 0.094,-0.52124 0.094,-1.05102 l 0,-1.44409 q 0,-1.01685 0.46997,-1.78589 0.46997,-0.77759 1.46118,-1.17066 -0.99121,-0.40161 -1.46118,-1.17065 -0.46997,-0.77759 -0.46997,-1.80298 l 0,-1.45264 q 0,-0.52124 -0.0598,-1.05102 -0.0513,-0.52979 -0.23926,-0.94849 -0.17945,-0.42725 -0.53833,-0.70068 -0.35889,-0.27344 -0.97412,-0.29053 l 0.17089,-0.98267 q 0.5896,0.0171 1.05103,0.18799 0.46997,0.1709 0.82886,0.46143 0.35888,0.29053 0.60669,0.67505 0.25634,0.38452 0.4187,0.82885 0.16235,0.4358 0.23926,0.90577 0.0769,0.46142 0.0769,0.9143 l 0,1.45264 q 0,1.23901 0.5896,1.79443 0.5896,0.54688 1.78589,0.54688 l 0,1.23901 q -1.19629,0.009 -1.78589,0.56397 -0.5896,0.55542 -0.5896,1.78589 l 0,1.44409 q 0,0.68359 -0.18799,1.37573 -0.18799,0.70068 -0.5896,1.27319 -0.39306,0.57251 -0.99975,0.93994 -0.60669,0.36744 -1.4441,0.38453 l -0.17944,-0.98267 z"
         style="font-size:17.5px"
         id="path4301"
         inkscape:connector-curvature="0" />
      <path
         d="m 219.34763,171.7637 -1.88843,0 0,14.28711 1.88843,0 0,1.29883 -3.38379,0 0,-16.88477 3.38379,0 0,1.29883 z"
         style="font-size:17.5px"
         id="path4303"
         inkscape:connector-curvature="0" />
      <path
         d="m 226.27756,170.46487 3.39233,0 0,16.88477 -3.39233,0 0,-1.29883 1.89697,0 0,-14.28711 -1.89697,0 0,-1.29883 z"
         style="font-size:17.5px"
         id="path4305"
         inkscape:connector-curvature="0" />
      <path
         d="m 244.99948,179.98392 q 0,-1.03394 0.2478,-1.89698 0.25635,-0.87158 0.73487,-1.49536 0.47851,-0.62378 1.16211,-0.97412 0.68359,-0.35034 1.54663,-0.35034 0.85449,0 1.49536,0.30762 0.64941,0.29907 1.10229,0.87158 l 0.0769,-1.0083 1.43554,0 0,9.04907 q 0,0.91431 -0.29052,1.62354 -0.28198,0.70922 -0.80323,1.20483 -0.51269,0.49561 -1.23046,0.75195 -0.71778,0.25635 -1.58936,0.25635 -0.35889,0 -0.82031,-0.0854 -0.46143,-0.0769 -0.93994,-0.26489 -0.46997,-0.17944 -0.91431,-0.48706 -0.43579,-0.30762 -0.75195,-0.7605 l 0.82031,-0.94849 q 0.29053,0.35035 0.59814,0.5896 0.30762,0.24781 0.62378,0.39307 0.31617,0.14526 0.63233,0.20508 0.31616,0.0684 0.63232,0.0684 0.56397,0 1.01685,-0.16236 0.45288,-0.16235 0.76904,-0.47851 0.32471,-0.30762 0.49561,-0.76904 0.17089,-0.46143 0.17089,-1.05957 l 0,-0.79468 q -0.46142,0.52978 -1.09375,0.81177 -0.62377,0.27343 -1.45263,0.27343 -0.84595,0 -1.52954,-0.35888 -0.6836,-0.35889 -1.16211,-0.99121 -0.46997,-0.63233 -0.72632,-1.48682 -0.25635,-0.86304 -0.25635,-1.85425 l 0,-0.17944 z m 1.58081,0.17944 q 0,0.67505 0.13672,1.28174 0.14526,0.60669 0.44434,1.06811 0.30761,0.46143 0.77758,0.73487 0.46998,0.26489 1.12793,0.26489 0.41016,0 0.73487,-0.094 0.33325,-0.10254 0.5896,-0.28199 0.26489,-0.17944 0.46997,-0.42724 0.20508,-0.24781 0.35888,-0.54688 l 0,-4.23828 q -0.1538,-0.29053 -0.35888,-0.52978 -0.20508,-0.23926 -0.46997,-0.41016 -0.2649,-0.17944 -0.5896,-0.27344 -0.32471,-0.10254 -0.71778,-0.10254 -0.6665,0 -1.14502,0.27344 -0.46997,0.27344 -0.77758,0.74341 -0.29908,0.46142 -0.44434,1.07666 -0.13672,0.60669 -0.13672,1.28174 l 0,0.17944 z"
         style="font-size:17.5px"
         id="path4307"
         inkscape:connector-curvature="0" />
      <path
         d="m 257.48361,183.28226 q 0.84595,0 1.48682,-0.14527 0.64087,-0.15381 1.11084,-0.42724 0.47851,-0.27344 0.79468,-0.64087 0.31616,-0.37598 0.51269,-0.82031 0.20508,-0.45289 0.29907,-0.94849 0.094,-0.50415 0.11963,-1.02539 -0.20508,0.25635 -0.46997,0.48706 -0.26489,0.22217 -0.59814,0.39307 -0.33325,0.17089 -0.74341,0.27343 -0.40161,0.094 -0.88013,0.094 -0.92285,0 -1.5979,-0.35889 -0.6665,-0.36743 -1.10229,-0.95703 -0.43579,-0.5896 -0.64087,-1.33301 -0.20508,-0.74341 -0.20508,-1.49536 0,-0.88013 0.23926,-1.65771 0.2478,-0.78614 0.72632,-1.36719 0.48706,-0.5896 1.20483,-0.9314 0.72632,-0.35034 1.68335,-0.35034 0.71777,0 1.29028,0.20508 0.58106,0.19653 1.01685,0.55542 0.44433,0.35034 0.7605,0.8374 0.31616,0.47852 0.51269,1.04248 0.20508,0.55542 0.29907,1.17065 0.094,0.60669 0.094,1.22193 l 0,0.57251 q 0,0.79468 -0.0769,1.63208 -0.0769,0.82886 -0.30761,1.60644 -0.22217,0.77759 -0.63233,1.46973 -0.41015,0.68359 -1.06811,1.19629 -0.65796,0.51269 -1.5979,0.81177 -0.93994,0.29907 -2.23023,0.29907 l -0.16235,0 0,-1.40991 0.16235,0 z m 1.88843,-4.06739 q 0.40161,0 0.77759,-0.12817 0.38452,-0.13672 0.70068,-0.37598 0.32471,-0.2478 0.57251,-0.57251 0.25635,-0.33325 0.40161,-0.73486 l 0,-0.51269 q 0,-0.82886 -0.19653,-1.47828 -0.18799,-0.64941 -0.52124,-1.09375 -0.32471,-0.45288 -0.7605,-0.69213 -0.42725,-0.23926 -0.91431,-0.23926 -0.55542,0 -0.98266,0.22217 -0.42725,0.22216 -0.72632,0.61523 -0.29053,0.38452 -0.44434,0.92285 -0.1538,0.52979 -0.1538,1.14502 0,0.54688 0.13671,1.07666 0.13672,0.52124 0.41016,0.9314 0.28198,0.41015 0.70068,0.6665 0.42725,0.2478 0.99976,0.2478 z"
         style="font-size:17.5px"
         id="path4309"
         inkscape:connector-curvature="0" />
      <path
         d="m 265.98581,179.98392 q 0,-1.03394 0.2478,-1.89698 0.2478,-0.87158 0.72632,-1.49536 0.47852,-0.62378 1.17065,-0.97412 0.70069,-0.35034 1.58936,-0.35034 0.82031,0 1.44409,0.28198 0.63233,0.27344 1.09375,0.80323 l 0.0684,-0.91431 1.45264,0 0,12.80029 -1.58081,0 0,-4.39209 q -0.46143,0.48706 -1.07666,0.75196 -0.61524,0.25634 -1.41846,0.25634 -0.88013,0 -1.57227,-0.35888 -0.68359,-0.35889 -1.1621,-0.99121 -0.47852,-0.63233 -0.73487,-1.48682 -0.2478,-0.86304 -0.2478,-1.85425 l 0,-0.17944 z m 1.58081,0.17944 q 0,0.67505 0.14526,1.29028 0.15381,0.61524 0.46143,1.08521 0.30762,0.46997 0.77759,0.75195 0.47851,0.27344 1.13647,0.27344 0.7605,0 1.2732,-0.3418 0.51269,-0.34179 0.8374,-0.88867 l 0,-4.56299 q -0.16236,-0.26489 -0.37598,-0.47851 -0.20508,-0.22217 -0.46997,-0.38452 -0.25635,-0.16236 -0.57251,-0.24781 -0.30762,-0.094 -0.67505,-0.094 -0.65796,0 -1.13647,0.28198 -0.47852,0.28198 -0.79468,0.7605 -0.30762,0.46997 -0.46143,1.0852 -0.14526,0.61524 -0.14526,1.29029 l 0,0.17944 z"
         style="font-size:17.5px"
         id="path4311"
         inkscape:connector-curvature="0" />
      <path
         d="m 284.82736,180.94095 q -0.11108,0.86304 -0.44433,1.58935 -0.33326,0.71778 -0.87159,1.23902 -0.52978,0.51269 -1.26464,0.80322 -0.72632,0.28198 -1.62354,0.28198 -0.76904,0 -1.40137,-0.21362 -0.62378,-0.22217 -1.11938,-0.60669 -0.48706,-0.38452 -0.84595,-0.90576 -0.35034,-0.52124 -0.5896,-1.13648 -0.23071,-0.61523 -0.35034,-1.29028 -0.11108,-0.67505 -0.11963,-1.36719 l 0,-1.73462 q 0.009,-0.69213 0.11963,-1.36718 0.11963,-0.67505 0.35034,-1.29029 0.23926,-0.61523 0.5896,-1.13647 0.35889,-0.52979 0.84595,-0.91431 0.4956,-0.38452 1.11938,-0.59814 0.62378,-0.22217 1.40137,-0.22217 0.9314,0 1.66626,0.29053 0.73486,0.28198 1.26465,0.81176 0.52978,0.52124 0.84595,1.25611 0.3247,0.73486 0.42724,1.62353 l -1.58081,0 q -0.0769,-0.56396 -0.26489,-1.05102 -0.18799,-0.48706 -0.50415,-0.85449 -0.31616,-0.36744 -0.77759,-0.57251 -0.45288,-0.21363 -1.07666,-0.21363 -0.56396,0 -0.99976,0.18799 -0.42724,0.17944 -0.7434,0.49561 -0.30762,0.31616 -0.52124,0.73486 -0.20508,0.4187 -0.33326,0.88867 -0.12817,0.46997 -0.18798,0.96558 -0.0513,0.48706 -0.0513,0.94848 l 0,1.75171 q 0,0.46143 0.0513,0.95703 0.0598,0.48706 0.18798,0.96558 0.12818,0.46997 0.33326,0.88867 0.20507,0.4187 0.52124,0.74341 0.31616,0.31616 0.7434,0.50415 0.42725,0.17944 0.99976,0.17944 0.62378,0 1.07666,-0.19653 0.46143,-0.19653 0.77759,-0.54687 0.31616,-0.35889 0.50415,-0.83741 0.18799,-0.48706 0.26489,-1.05102 l 1.58081,0 z"
         style="font-size:17.5px"
         id="path4313"
         inkscape:connector-curvature="0" />
      <path
         d="m 295.31198,183.05154 q -0.78613,0.92286 -1.80298,1.36719 -1.01684,0.44434 -2.23022,0.43579 -0.76904,-0.009 -1.41846,-0.23071 -0.64087,-0.23071 -1.15356,-0.62378 -0.5127,-0.40161 -0.89722,-0.93994 -0.38452,-0.53833 -0.64941,-1.16211 -0.25635,-0.63232 -0.39307,-1.31592 -0.12817,-0.69214 -0.13672,-1.39282 l 0,-1.44409 q 0.009,-0.69214 0.11963,-1.37573 0.11963,-0.69214 0.35889,-1.32447 0.23925,-0.63232 0.59814,-1.17065 0.35889,-0.54688 0.85449,-0.93994 0.50415,-0.40161 1.13648,-0.63233 0.63232,-0.23071 1.41845,-0.23071 0.87159,0 1.60645,0.27344 0.73486,0.26489 1.28174,0.76904 0.54687,0.49561 0.88013,1.20483 0.33325,0.70069 0.41015,1.57227 l -1.56372,0 q -0.094,-0.53833 -0.29053,-0.99121 -0.19653,-0.46143 -0.52124,-0.78613 -0.31616,-0.32471 -0.76049,-0.50415 -0.44434,-0.18799 -1.03394,-0.18799 -0.56397,0 -0.99976,0.19653 -0.43579,0.18799 -0.76049,0.5127 -0.32471,0.3247 -0.53833,0.76049 -0.21363,0.42725 -0.35035,0.90577 -0.13672,0.47851 -0.19653,0.97412 -0.0598,0.4956 -0.0598,0.95703 l 0,1.46118 q 0.009,0.46997 0.0769,0.97412 0.0769,0.49561 0.23071,0.97412 0.15381,0.47852 0.39307,0.90576 0.23926,0.42725 0.57251,0.75196 0.3418,0.3247 0.78613,0.52124 0.44434,0.18799 1.0083,0.19653 0.32471,0.009 0.67505,-0.0256 0.35889,-0.0342 0.69214,-0.13672 0.33325,-0.10254 0.62378,-0.27344 0.29053,-0.17944 0.48706,-0.46143 l 0.0171,-2.79419 -2.5293,0 0,-1.333 4.03321,0 0.0256,4.56298 z"
         style="font-size:17.5px"
         id="path4315"
         inkscape:connector-curvature="0" />
      <path
         d="m 305.95895,179.01834 q -0.009,0.69214 -0.11963,1.39282 -0.11108,0.70069 -0.34179,1.3501 -0.22217,0.64942 -0.58106,1.22192 -0.35034,0.56397 -0.84594,0.98267 l 2.14477,1.78589 -1.0852,1.03394 -2.46094,-2.08497 q -0.52979,0.15381 -1.14502,0.15381 -0.79468,0 -1.427,-0.23926 -0.63233,-0.2478 -1.12793,-0.6665 -0.48706,-0.4187 -0.84595,-0.98267 -0.35889,-0.5725 -0.5896,-1.22192 -0.23071,-0.64941 -0.3418,-1.34155 -0.11108,-0.70069 -0.11962,-1.38428 l 0,-1.09375 q 0.009,-0.68359 0.11962,-1.38428 0.11109,-0.70068 0.3418,-1.35009 0.23071,-0.64942 0.58106,-1.21338 0.35034,-0.57251 0.8374,-0.99121 0.4956,-0.42725 1.12793,-0.66651 0.64087,-0.2478 1.43554,-0.2478 0.79468,0 1.42701,0.2478 0.64087,0.23926 1.12793,0.65796 0.4956,0.4187 0.84594,0.99121 0.35889,0.56397 0.58106,1.21338 0.23071,0.64942 0.34179,1.35864 0.11109,0.70069 0.11963,1.38428 l 0,1.09375 z m -1.57226,-1.11084 q -0.009,-0.46997 -0.0598,-0.97412 -0.0427,-0.5127 -0.17089,-0.99976 -0.11963,-0.4956 -0.33326,-0.93994 -0.20507,-0.44433 -0.52124,-0.77759 -0.31616,-0.34179 -0.76049,-0.53833 -0.4358,-0.19653 -1.0254,-0.19653 -0.58105,0 -1.01684,0.20508 -0.43579,0.19653 -0.75195,0.53833 -0.31617,0.33325 -0.52979,0.77759 -0.20508,0.44433 -0.33325,0.93994 -0.12818,0.48706 -0.18799,0.99976 -0.0513,0.50415 -0.0513,0.96557 l 0,1.11084 q 0,0.46143 0.0513,0.97412 0.0598,0.50415 0.18799,0.99976 0.12817,0.4956 0.33325,0.93994 0.21362,0.44434 0.52979,0.78613 0.31616,0.3418 0.75195,0.54688 0.44433,0.19653 1.02539,0.19653 0.5896,0 1.02539,-0.19653 0.44434,-0.20508 0.7605,-0.53833 0.31616,-0.3418 0.52124,-0.78614 0.20508,-0.44433 0.32471,-0.93994 0.12817,-0.4956 0.17089,-0.99975 0.0513,-0.5127 0.0598,-0.98267 l 0,-1.11084 z"
         style="font-size:17.5px"
         id="path4317"
         inkscape:connector-curvature="0" />
      <path
         d="m 327.33835,178.36038 q 0,0.56397 -0.18799,1.08521 -0.18799,0.52124 -0.52979,0.92285 -0.34179,0.40161 -0.81176,0.64087 -0.46997,0.23926 -1.04248,0.23926 -0.40161,0 -0.75196,-0.0769 -0.34179,-0.0769 -0.67505,-0.23071 -0.3247,-0.15381 -0.64941,-0.37598 -0.31616,-0.22217 -0.65796,-0.51269 -0.46997,-0.38452 -0.89721,-0.60669 -0.42725,-0.23072 -0.90577,-0.22217 -0.29907,0 -0.56396,0.12817 -0.25635,0.11963 -0.44434,0.33325 -0.18799,0.20508 -0.29907,0.49561 -0.11108,0.28198 -0.11108,0.60669 l -1.14502,-0.14526 q 0,-0.56397 0.18799,-1.07666 0.18798,-0.5127 0.52124,-0.89722 0.34179,-0.38452 0.81176,-0.60669 0.46997,-0.23071 1.04248,-0.23071 0.39307,0 0.74341,0.0855 0.35889,0.0769 0.69214,0.23071 0.33325,0.15381 0.64941,0.37598 0.32471,0.22216 0.65796,0.4956 0.48706,0.41016 0.89722,0.63233 0.4187,0.21362 0.89722,0.20507 0.29907,0 0.55542,-0.13672 0.26489,-0.13671 0.45288,-0.35888 0.19653,-0.23071 0.30761,-0.52979 0.11109,-0.29907 0.11109,-0.62378 l 1.14502,0.15381 z"
         style="font-size:17.5px"
         id="path4319"
         inkscape:connector-curvature="0" />
      <path
         d="m 336.14816,179.88992 -6.53686,0 0,-1.29883 6.53686,0 0,1.29883 z"
         style="font-size:17.5px"
         id="path4321"
         inkscape:connector-curvature="0" />
      <path
         d="m 344.34274,178.01004 3.47779,0 0,1.57227 -3.47779,0 0,3.85376 -1.58081,0 0,-3.85376 -3.46924,0 0,-1.57227 3.46924,0 0,-3.63159 1.58081,0 0,3.63159 z"
         style="font-size:17.5px"
         id="path4323"
         inkscape:connector-curvature="0" />
      <path
         d="m 357.8779,178.01859 -7.63062,0 0,-1.37574 7.63062,0 0,1.37574 z m 0,3.54614 -7.63062,0 0,-1.36719 7.63062,0 0,1.36719 z"
         style="font-size:17.5px"
         id="path4325"
         inkscape:connector-curvature="0" />
      <path
         d="m 360.78317,176.91629 0,-1.63208 7.54517,3.22998 0,1.24756 -7.54517,3.23852 0,-1.64062 5.52857,-2.08496 0.51269,-0.14526 -0.51269,-0.16236 -5.52857,-2.05078 z"
         style="font-size:17.5px"
         id="path4327"
         inkscape:connector-curvature="0" />
    </g>
  </g>
</svg>
