<?xml version="1.0" encoding="UTF-8" standalone="no"?>
<svg
   xmlns:dc="http://purl.org/dc/elements/1.1/"
   xmlns:cc="http://creativecommons.org/ns#"
   xmlns:rdf="http://www.w3.org/1999/02/22-rdf-syntax-ns#"
   xmlns:svg="http://www.w3.org/2000/svg"
   xmlns="http://www.w3.org/2000/svg"
   xmlns:sodipodi="http://sodipodi.sourceforge.net/DTD/sodipodi-0.dtd"
   xmlns:inkscape="http://www.inkscape.org/namespaces/inkscape"
   width="91.769089mm"
   height="30.484278mm"
   viewBox="0 0 325.16585 108.01514"
   id="svg2"
   version="1.1"
   inkscape:version="0.91 r13725"
   sodipodi:docname="RobotoMono Nerd Font.svg">
  <metadata
     id="metadata22">
    <rdf:RDF>
      <cc:Work
         rdf:about="">
        <dc:format>image/svg+xml</dc:format>
        <dc:type
           rdf:resource="http://purl.org/dc/dcmitype/StillImage" />
      </cc:Work>
    </rdf:RDF>
  </metadata>
  <defs
     id="defs20" />
  <sodipodi:namedview
     pagecolor="#ffffff"
     bordercolor="#666666"
     borderopacity="1"
     objecttolerance="10"
     gridtolerance="10"
     guidetolerance="10"
     inkscape:pageopacity="0"
     inkscape:pageshadow="2"
     inkscape:window-width="640"
     inkscape:window-height="480"
     id="namedview18"
     showgrid="false"
     inkscape:zoom="0.22425739"
     inkscape:cx="306.75964"
     inkscape:cy="-337.85694"
     inkscape:window-x="69"
     inkscape:window-y="34"
     inkscape:window-maximized="0"
     inkscape:current-layer="svg2" />
  <g
     font-weight="400"
     font-size="27.5"
     letter-spacing="0"
     word-spacing="0"
     id="g4"
     style="font-weight:400;font-size:27.5px;font-family:'RobotoMono Nerd Font';letter-spacing:0;word-spacing:0;fill:#ffffff"
     transform="translate(-65.287601,-80.308998)">
    <g
       style="line-height:125%;text-decoration: underline;text-decoration-line: underline"
       id="text6">
      <path
         d="m 71.665592,92.957924 -3.907471,0 0,7.976076 -2.470703,0 0,-19.550783 5.733643,0 q 1.369629,0.02685 2.578125,0.389404 1.208496,0.362549 2.108154,1.087647 0.913086,0.725097 1.42334,1.826172 0.523682,1.087646 0.523682,2.564697 0,0.953369 -0.281983,1.745605 -0.268554,0.792237 -0.751953,1.436768 -0.483398,0.644531 -1.154785,1.141357 -0.671387,0.496826 -1.477051,0.845948 l 4.14917,8.352055 -0.01343,0.16113 -2.618408,0 -3.840332,-7.976076 z m -3.907471,-2.041016 3.330079,0 q 0.832519,-0.01343 1.571045,-0.255127 0.738525,-0.255127 1.289062,-0.725097 0.563965,-0.469971 0.886231,-1.141358 0.322265,-0.684814 0.322265,-1.571045 0,-0.939941 -0.308838,-1.638183 -0.308838,-0.71167 -0.859375,-1.181641 -0.550537,-0.483398 -1.315918,-0.725098 -0.751953,-0.241699 -1.651611,-0.255127 l -3.26294,0 0,7.492676 z"
         id="path4151"
         inkscape:connector-curvature="0" />
      <path
         d="m 80.98444,93.535316 q 0,-1.571044 0.456543,-2.913818 0.456543,-1.356201 1.30249,-2.349853 0.859375,-0.993653 2.081299,-1.557618 1.221924,-0.577392 2.752685,-0.577392 1.54419,0 2.766114,0.577392 1.235351,0.563965 2.081299,1.557618 0.859375,0.993652 1.315918,2.349853 0.456542,1.342774 0.456542,2.913818 l 0,0.295411 q 0,1.571045 -0.456542,2.913818 -0.456543,1.342773 -1.315918,2.336426 -0.845948,0.993649 -2.067872,1.557619 -1.221923,0.56396 -2.752685,0.56396 -1.54419,0 -2.779541,-0.56396 -1.221924,-0.56397 -2.081299,-1.557619 -0.845947,-0.993653 -1.30249,-2.336426 -0.456543,-1.342773 -0.456543,-2.913818 l 0,-0.295411 z m 2.484131,0.295411 q 0,1.074218 0.255127,2.054443 0.255127,0.966797 0.765381,1.705322 0.523681,0.738526 1.30249,1.168213 0.778808,0.429688 1.812744,0.429688 1.020508,0 1.785889,-0.429688 0.778808,-0.429687 1.289062,-1.168213 0.523682,-0.738525 0.778809,-1.705322 0.255127,-0.980225 0.255127,-2.054443 l 0,-0.295411 q 0,-1.060791 -0.268555,-2.027587 -0.255127,-0.980225 -0.778809,-1.71875 -0.510254,-0.738526 -1.289062,-1.168213 -0.765381,-0.443116 -1.799317,-0.443116 -1.033935,0 -1.799316,0.443116 -0.765381,0.429687 -1.289062,1.168213 -0.510254,0.738525 -0.765381,1.71875 -0.255127,0.966796 -0.255127,2.027587 l 0,0.295411 z"
         id="path4153"
         inkscape:connector-curvature="0" />
      <path
         d="m 110.48517,93.830727 q 0,1.557617 -0.37597,2.913818 -0.37598,1.342773 -1.10108,2.336426 -0.7251,0.993649 -1.79931,1.557619 -1.0608,0.56396 -2.44385,0.56396 -1.39649,0 -2.43042,-0.49682 -1.02051,-0.49683 -1.74561,-1.423343 l -0.12085,1.651613 -2.282712,0 0,-20.625002 2.484132,0 0,7.653809 q 0.71167,-0.886231 1.71875,-1.356201 1.00708,-0.469971 2.34985,-0.469971 1.39649,0 2.47071,0.550537 1.07421,0.550537 1.79931,1.530762 0.7251,0.980224 1.10108,2.349853 0.37597,1.356201 0.37597,2.980957 l 0,0.281983 z m -2.48413,-0.281983 q 0,-1.060791 -0.21484,-2.01416 -0.20142,-0.966797 -0.65796,-1.691894 -0.45654,-0.738526 -1.19507,-1.168213 -0.73853,-0.429688 -1.81274,-0.429688 -0.64454,0 -1.18164,0.174561 -0.53711,0.161132 -0.9668,0.46997 -0.41626,0.295411 -0.75195,0.71167 -0.32227,0.402832 -0.55054,0.886231 l 0,6.351318 q 0.2417,0.483399 0.56396,0.899658 0.3357,0.402832 0.76538,0.71167 0.42969,0.308838 0.9668,0.483399 0.53711,0.161132 1.18164,0.161132 1.02051,0 1.74561,-0.416259 0.73852,-0.429688 1.19507,-1.154785 0.46997,-0.725098 0.68481,-1.678467 0.22827,-0.953369 0.22827,-2.01416 l 0,-0.281983 z"
         id="path4155"
         inkscape:connector-curvature="0" />
      <path
         d="m 113.96296,93.535316 q 0,-1.571044 0.45654,-2.913818 0.45654,-1.356201 1.30249,-2.349853 0.85937,-0.993653 2.0813,-1.557618 1.22192,-0.577392 2.75268,-0.577392 1.54419,0 2.76612,0.577392 1.23535,0.563965 2.0813,1.557618 0.85937,0.993652 1.31591,2.349853 0.45655,1.342774 0.45655,2.913818 l 0,0.295411 q 0,1.571045 -0.45655,2.913818 -0.45654,1.342773 -1.31591,2.336426 -0.84595,0.993649 -2.06788,1.557619 -1.22192,0.56396 -2.75268,0.56396 -1.54419,0 -2.77954,-0.56396 -1.22193,-0.56397 -2.0813,-1.557619 -0.84595,-0.993653 -1.30249,-2.336426 -0.45654,-1.342773 -0.45654,-2.913818 l 0,-0.295411 z m 2.48413,0.295411 q 0,1.074218 0.25512,2.054443 0.25513,0.966797 0.76538,1.705322 0.52369,0.738526 1.30249,1.168213 0.77881,0.429688 1.81275,0.429688 1.02051,0 1.78589,-0.429688 0.77881,-0.429687 1.28906,-1.168213 0.52368,-0.738525 0.77881,-1.705322 0.25513,-0.980225 0.25513,-2.054443 l 0,-0.295411 q 0,-1.060791 -0.26856,-2.027587 -0.25513,-0.980225 -0.77881,-1.71875 -0.51025,-0.738526 -1.28906,-1.168213 -0.76538,-0.443116 -1.79932,-0.443116 -1.03393,0 -1.79931,0.443116 -0.76538,0.429687 -1.28907,1.168213 -0.51025,0.738525 -0.76538,1.71875 -0.25512,0.966796 -0.25512,2.027587 l 0,0.295411 z"
         id="path4157"
         inkscape:connector-curvature="0" />
      <path
         d="m 137.0318,82.887123 0,3.518067 5.53223,0 0,1.920166 -5.53223,0 0,7.895507 q 0,0.845948 0.21485,1.396485 0.21484,0.550537 0.59082,0.88623 0.37597,0.322266 0.85937,0.456543 0.49683,0.134277 1.04737,0.134277 0.40283,0 0.83252,-0.04028 0.42968,-0.05371 0.83251,-0.120849 0.41626,-0.06714 0.76539,-0.134278 0.36254,-0.08057 0.59082,-0.134277 l 0.34912,1.759026 q -0.30884,0.18799 -0.75196,0.3357 -0.44311,0.13427 -0.96679,0.22827 -0.52368,0.10742 -1.11451,0.16113 -0.57739,0.0537 -1.15478,0.0537 -0.9668,0 -1.81274,-0.26855 -0.83252,-0.28198 -1.4502,-0.8728 -0.61768,-0.60425 -0.98022,-1.544191 -0.34913,-0.953369 -0.34913,-2.296143 l 0,-7.895507 -3.81347,0 0,-1.920166 3.81347,0 0,-3.518067 2.49756,0 z"
         id="path4159"
         inkscape:connector-curvature="0" />
      <path
         d="m 146.94147,93.535316 q 0,-1.571044 0.45654,-2.913818 0.45655,-1.356201 1.30249,-2.349853 0.85938,-0.993653 2.0813,-1.557618 1.22193,-0.577392 2.75269,-0.577392 1.54419,0 2.76611,0.577392 1.23535,0.563965 2.0813,1.557618 0.85938,0.993652 1.31592,2.349853 0.45654,1.342774 0.45654,2.913818 l 0,0.295411 q 0,1.571045 -0.45654,2.913818 -0.45654,1.342773 -1.31592,2.336426 -0.84595,0.993649 -2.06787,1.557619 -1.22192,0.56396 -2.75269,0.56396 -1.54419,0 -2.77954,-0.56396 -1.22192,-0.56397 -2.0813,-1.557619 -0.84594,-0.993653 -1.30249,-2.336426 -0.45654,-1.342773 -0.45654,-2.913818 l 0,-0.295411 z m 2.48413,0.295411 q 0,1.074218 0.25513,2.054443 0.25513,0.966797 0.76538,1.705322 0.52368,0.738526 1.30249,1.168213 0.77881,0.429688 1.81274,0.429688 1.02051,0 1.78589,-0.429688 0.77881,-0.429687 1.28907,-1.168213 0.52368,-0.738525 0.7788,-1.705322 0.25513,-0.980225 0.25513,-2.054443 l 0,-0.295411 q 0,-1.060791 -0.26855,-2.027587 -0.25513,-0.980225 -0.77881,-1.71875 -0.51026,-0.738526 -1.28906,-1.168213 -0.76539,-0.443116 -1.79932,-0.443116 -1.03394,0 -1.79932,0.443116 -0.76538,0.429687 -1.28906,1.168213 -0.51025,0.738525 -0.76538,1.71875 -0.25513,0.966796 -0.25513,2.027587 l 0,0.295411 z"
         id="path4161"
         inkscape:connector-curvature="0" />
      <path
         d="m 166.8548,81.383217 3.18237,9.77539 3.4375,-9.77539 3.08838,0 0,19.550783 -2.41699,0 0,-7.801516 0.20142,-8.164062 -3.61206,10.527344 -1.42334,0 -3.31665,-10.245362 0.20141,7.88208 0,7.801516 -2.41699,0 0,-19.550783 3.07495,0 z"
         id="path4163"
         inkscape:connector-curvature="0" />
      <path
         d="m 179.91999,93.535316 q 0,-1.571044 0.45654,-2.913818 0.45654,-1.356201 1.30249,-2.349853 0.85937,-0.993653 2.0813,-1.557618 1.22192,-0.577392 2.75268,-0.577392 1.54419,0 2.76612,0.577392 1.23535,0.563965 2.0813,1.557618 0.85937,0.993652 1.31591,2.349853 0.45655,1.342774 0.45655,2.913818 l 0,0.295411 q 0,1.571045 -0.45655,2.913818 -0.45654,1.342773 -1.31591,2.336426 -0.84595,0.993649 -2.06787,1.557619 -1.22193,0.56396 -2.75269,0.56396 -1.54419,0 -2.77954,-0.56396 -1.22193,-0.56397 -2.0813,-1.557619 -0.84595,-0.993653 -1.30249,-2.336426 -0.45654,-1.342773 -0.45654,-2.913818 l 0,-0.295411 z m 2.48413,0.295411 q 0,1.074218 0.25512,2.054443 0.25513,0.966797 0.76539,1.705322 0.52368,0.738526 1.30249,1.168213 0.7788,0.429688 1.81274,0.429688 1.02051,0 1.78589,-0.429688 0.77881,-0.429687 1.28906,-1.168213 0.52368,-0.738525 0.77881,-1.705322 0.25513,-0.980225 0.25513,-2.054443 l 0,-0.295411 q 0,-1.060791 -0.26856,-2.027587 -0.25513,-0.980225 -0.77881,-1.71875 -0.51025,-0.738526 -1.28906,-1.168213 -0.76538,-0.443116 -1.79932,-0.443116 -1.03393,0 -1.79931,0.443116 -0.76538,0.429687 -1.28906,1.168213 -0.51026,0.738525 -0.76539,1.71875 -0.25512,0.966796 -0.25512,2.027587 l 0,0.295411 z"
         id="path4165"
         inkscape:connector-curvature="0" />
      <path
         d="m 199.33649,86.40519 0.17456,2.148437 q 0.79224,-1.12793 1.94702,-1.759033 1.15479,-0.644531 2.57813,-0.657959 1.14136,0 2.06787,0.322265 0.93994,0.322266 1.5979,1.007081 0.65796,0.684814 1.00708,1.745605 0.36255,1.047363 0.36255,2.497559 l 0,9.224855 -2.48413,0 0,-9.171144 q 0,-0.966797 -0.21485,-1.638184 -0.21484,-0.671387 -0.64453,-1.087647 -0.41626,-0.416259 -1.03393,-0.604248 -0.60425,-0.187988 -1.39649,-0.187988 -1.24878,0 -2.20215,0.631104 -0.93994,0.617675 -1.5039,1.638183 l 0,10.419924 -2.48413,0 0,-14.52881 2.229,0 z"
         id="path4167"
         inkscape:connector-curvature="0" />
      <path
         d="m 212.8985,93.535316 q 0,-1.571044 0.45655,-2.913818 0.45654,-1.356201 1.30249,-2.349853 0.85937,-0.993653 2.08129,-1.557618 1.22193,-0.577392 2.75269,-0.577392 1.54419,0 2.76611,0.577392 1.23535,0.563965 2.0813,1.557618 0.85938,0.993652 1.31592,2.349853 0.45654,1.342774 0.45654,2.913818 l 0,0.295411 q 0,1.571045 -0.45654,2.913818 -0.45654,1.342773 -1.31592,2.336426 -0.84595,0.993649 -2.06787,1.557619 -1.22192,0.56396 -2.75268,0.56396 -1.54419,0 -2.77955,-0.56396 -1.22192,-0.56397 -2.08129,-1.557619 -0.84595,-0.993653 -1.30249,-2.336426 -0.45655,-1.342773 -0.45655,-2.913818 l 0,-0.295411 z m 2.48413,0.295411 q 0,1.074218 0.25513,2.054443 0.25513,0.966797 0.76538,1.705322 0.52368,0.738526 1.30249,1.168213 0.77881,0.429688 1.81275,0.429688 1.0205,0 1.78588,-0.429688 0.77881,-0.429687 1.28907,-1.168213 0.52368,-0.738525 0.77881,-1.705322 0.25512,-0.980225 0.25512,-2.054443 l 0,-0.295411 q 0,-1.060791 -0.26855,-2.027587 -0.25513,-0.980225 -0.77881,-1.71875 -0.51026,-0.738526 -1.28906,-1.168213 -0.76538,-0.443116 -1.79932,-0.443116 -1.03394,0 -1.79932,0.443116 -0.76538,0.429687 -1.28906,1.168213 -0.51025,0.738525 -0.76538,1.71875 -0.25513,0.966796 -0.25513,2.027587 l 0,0.295411 z"
         id="path4169"
         inkscape:connector-curvature="0" />
      <path
         d="m 258.82135,100.934 -2.52441,0 -7.58667,-14.609377 -0.0403,14.609377 -2.51099,0 0,-19.550783 2.52441,0 7.58667,14.582519 0.0403,-14.582519 2.51098,0 0,19.550783 z"
         id="path4171"
         inkscape:connector-curvature="0" />
      <path
         d="m 269.48298,101.20255 q -1.53077,0 -2.81983,-0.52368 -1.27563,-0.52368 -2.18872,-1.463622 -0.91309,-0.939941 -1.42334,-2.229004 -0.51025,-1.289062 -0.51025,-2.806396 l 0,-0.563965 q 0,-1.759033 0.56396,-3.14209 0.56397,-1.396484 1.49048,-2.349853 0.93994,-0.966797 2.12158,-1.477051 1.19507,-0.510254 2.44385,-0.510254 1.57104,0 2.73926,0.550537 1.18164,0.537109 1.96045,1.503906 0.77881,0.953369 1.15478,2.25586 0.38941,1.30249 0.38941,2.819824 l 0,1.114502 -10.37964,0 q 0.0403,0.993652 0.37597,1.866455 0.34912,0.872803 0.93995,1.530762 0.60424,0.644531 1.43676,1.020507 0.83252,0.375977 1.8396,0.375977 1.32935,0 2.36328,-0.537109 1.03394,-0.53711 1.71875,-1.42334 l 1.51734,1.18164 q -0.36255,0.550537 -0.91309,1.060791 -0.53711,0.496826 -1.24878,0.886233 -0.71167,0.3894 -1.61133,0.61767 -0.89965,0.2417 -1.96044,0.2417 z m -0.32227,-13.0249 q -0.75195,0 -1.42334,0.281983 -0.67139,0.268555 -1.2085,0.805664 -0.53711,0.523682 -0.91308,1.30249 -0.36255,0.765381 -0.51026,1.772461 l 7.81495,0 0,-0.187988 q -0.0403,-0.725098 -0.28199,-1.436768 -0.22827,-0.71167 -0.68481,-1.275635 -0.45654,-0.563964 -1.15479,-0.913085 -0.68481,-0.349122 -1.63818,-0.349122 z"
         id="path4173"
         inkscape:connector-curvature="0" />
      <path
         d="m 289.07404,86.136635 q 0.34912,0 0.7251,0.02685 0.37597,0.01343 0.71167,0.06714 0.34912,0.04028 0.6311,0.107422 0.29541,0.06714 0.4834,0.147705 l -0.33569,2.43042 q -0.7251,-0.161133 -1.38306,-0.228272 -0.64453,-0.08057 -1.3562,-0.08057 -1.74561,0 -2.83325,0.792236 -1.07422,0.792237 -1.58448,2.215576 l 0,9.318848 -2.49756,0 0,-14.528808 2.36329,0 0.12085,2.30957 q 0.88623,-1.195069 2.12158,-1.879883 1.24878,-0.698242 2.83325,-0.698242 z"
         id="path4175"
         inkscape:connector-curvature="0" />
      <path
         d="m 295.57306,93.548744 q 0,-1.624756 0.40283,-2.980957 0.41626,-1.369629 1.16822,-2.349853 0.76538,-0.980225 1.8396,-1.530762 1.07422,-0.550537 2.40356,-0.550537 1.30249,0 2.26929,0.443115 0.98022,0.429688 1.69189,1.262207 l 0,-7.532959 2.48413,0 0,20.625002 -2.28271,0 -0.10742,-1.530764 q -0.7251,0.886234 -1.73218,1.342774 -1.00708,0.45654 -2.34985,0.45654 -1.31592,0 -2.39014,-0.56396 -1.06079,-0.56397 -1.81274,-1.557619 -0.75196,-0.993653 -1.16822,-2.336426 -0.41626,-1.356201 -0.41626,-2.913818 l 0,-0.281983 z m 2.48413,0.281983 q 0,1.060791 0.22828,2.01416 0.22827,0.953369 0.69824,1.678467 0.4834,0.725097 1.22192,1.154785 0.73853,0.416259 1.77246,0.416259 0.63111,0 1.14136,-0.147705 0.51025,-0.147705 0.92651,-0.416259 0.41626,-0.281983 0.73853,-0.657959 0.32226,-0.389405 0.56396,-0.859375 l 0,-6.740723 q -0.48339,-0.88623 -1.30249,-1.450195 -0.81909,-0.577393 -2.04101,-0.577393 -1.04737,0 -1.79932,0.429688 -0.73852,0.429687 -1.22192,1.168213 -0.46997,0.725097 -0.69824,1.691894 -0.22828,0.953369 -0.22828,2.01416 l 0,0.281983 z"
         id="path4177"
         inkscape:connector-curvature="0" />
      <path
         d="m 339.89801,92.299965 -8.1372,0 0,8.634035 -2.51099,0 0,-19.550783 12.0044,0 0,2.121582 -9.49341,0 0,6.687012 8.1372,0 0,2.108154 z"
         id="path4179"
         inkscape:connector-curvature="0" />
      <path
         d="m 344.81256,93.535316 q 0,-1.571044 0.45655,-2.913818 0.45654,-1.356201 1.30249,-2.349853 0.85937,-0.993653 2.0813,-1.557618 1.22192,-0.577392 2.75268,-0.577392 1.54419,0 2.76612,0.577392 1.23535,0.563965 2.08129,1.557618 0.85938,0.993652 1.31592,2.349853 0.45655,1.342774 0.45655,2.913818 l 0,0.295411 q 0,1.571045 -0.45655,2.913818 -0.45654,1.342773 -1.31592,2.336426 -0.84594,0.993649 -2.06787,1.557619 -1.22192,0.56396 -2.75268,0.56396 -1.54419,0 -2.77954,-0.56396 -1.22193,-0.56397 -2.0813,-1.557619 -0.84595,-0.993653 -1.30249,-2.336426 -0.45655,-1.342773 -0.45655,-2.913818 l 0,-0.295411 z m 2.48414,0.295411 q 0,1.074218 0.25512,2.054443 0.25513,0.966797 0.76538,1.705322 0.52369,0.738526 1.30249,1.168213 0.77881,0.429688 1.81275,0.429688 1.02051,0 1.78589,-0.429688 0.77881,-0.429687 1.28906,-1.168213 0.52368,-0.738525 0.77881,-1.705322 0.25512,-0.980225 0.25512,-2.054443 l 0,-0.295411 q 0,-1.060791 -0.26855,-2.027587 -0.25513,-0.980225 -0.77881,-1.71875 -0.51025,-0.738526 -1.28906,-1.168213 -0.76538,-0.443116 -1.79932,-0.443116 -1.03393,0 -1.79931,0.443116 -0.76538,0.429687 -1.28907,1.168213 -0.51025,0.738525 -0.76538,1.71875 -0.25512,0.966796 -0.25512,2.027587 l 0,0.295411 z"
         id="path4181"
         inkscape:connector-curvature="0" />
      <path
         d="m 364.22907,86.40519 0.17456,2.148437 q 0.79224,-1.12793 1.94702,-1.759033 1.15479,-0.644531 2.57813,-0.657959 1.14135,0 2.06787,0.322265 0.93994,0.322266 1.5979,1.007081 0.65796,0.684814 1.00708,1.745605 0.36255,1.047363 0.36255,2.497559 l 0,9.224855 -2.48413,0 0,-9.171144 q 0,-0.966797 -0.21485,-1.638184 -0.21484,-0.671387 -0.64453,-1.087647 -0.41626,-0.416259 -1.03394,-0.604248 -0.60424,-0.187988 -1.39648,-0.187988 -1.24878,0 -2.20215,0.631104 -0.93994,0.617675 -1.5039,1.638183 l 0,10.419924 -2.48414,0 0,-14.52881 2.22901,0 z"
         id="path4183"
         inkscape:connector-curvature="0" />
      <path
         d="m 384.37067,82.887123 0,3.518067 5.53223,0 0,1.920166 -5.53223,0 0,7.895507 q 0,0.845948 0.21484,1.396485 0.21485,0.550537 0.59082,0.88623 0.37598,0.322266 0.85938,0.456543 0.49683,0.134277 1.04736,0.134277 0.40283,0 0.83252,-0.04028 0.42969,-0.05371 0.83252,-0.120849 0.41626,-0.06714 0.76538,-0.134278 0.36255,-0.08057 0.59082,-0.134277 l 0.34912,1.759026 q -0.30883,0.18799 -0.75195,0.3357 -0.44311,0.13427 -0.9668,0.22827 -0.52368,0.10742 -1.1145,0.16113 -0.57739,0.0537 -1.15478,0.0537 -0.9668,0 -1.81275,-0.26855 -0.83252,-0.28198 -1.45019,-0.8728 -0.61768,-0.60425 -0.98023,-1.544191 -0.34912,-0.953369 -0.34912,-2.296143 l 0,-7.895507 -3.81347,0 0,-1.920166 3.81347,0 0,-3.518067 2.49756,0 z"
         id="path4185"
         inkscape:connector-curvature="0" />
    </g>
    <g
       style="line-height:125%"
       id="text10">
      <path
         d="m 72.981255,140.93401 q -0.094,-0.17945 -0.153809,-0.44434 -0.05127,-0.27344 -0.0769,-0.56397 -0.239258,0.23926 -0.53833,0.45289 -0.290528,0.21362 -0.649414,0.37597 -0.350342,0.16236 -0.751954,0.25635 -0.401611,0.094 -0.854492,0.094 -0.734863,0 -1.333008,-0.21362 -0.589599,-0.21362 -1.0083,-0.57251 -0.410157,-0.36743 -0.64087,-0.86304 -0.222167,-0.50415 -0.222167,-1.0852 0,-0.7605 0.299072,-1.33301 0.307617,-0.57251 0.863037,-0.94848 0.55542,-0.38453 1.333008,-0.57251 0.786133,-0.18799 1.751709,-0.18799 l 1.726074,0 0,-0.72632 q 0,-0.4187 -0.153809,-0.75195 -0.153808,-0.33326 -0.435791,-0.56397 -0.281982,-0.23926 -0.692138,-0.36743 -0.401612,-0.12817 -0.905762,-0.12817 -0.469971,0 -0.845947,0.11962 -0.367432,0.11963 -0.62378,0.31617 -0.256347,0.19653 -0.401611,0.46997 -0.136719,0.26489 -0.136719,0.55542 l -1.589355,0 q 0.0085,-0.50415 0.256347,-0.99121 0.256348,-0.48706 0.726319,-0.87159 0.478515,-0.39306 1.153564,-0.63232 0.683594,-0.23926 1.546631,-0.23926 0.786133,0 1.461182,0.19654 0.675049,0.18798 1.162109,0.58105 0.495606,0.38452 0.777588,0.96558 0.281982,0.58105 0.281982,1.35864 l 0,4.29809 q 0,0.46143 0.08545,0.98267 0.08545,0.5127 0.239257,0.89722 l 0,0.13672 -1.649169,0 z m -2.79419,-1.20484 q 0.461426,0 0.863037,-0.11963 0.401612,-0.11963 0.726319,-0.31616 0.333252,-0.19653 0.572509,-0.44434 0.239258,-0.25634 0.375977,-0.52978 l 0,-1.87134 -1.469727,0 q -1.384277,0 -2.15332,0.41016 -0.769043,0.41015 -0.769043,1.29028 0,0.3418 0.111084,0.63233 0.119629,0.29052 0.350342,0.50415 0.230713,0.20507 0.581055,0.3247 0.350341,0.11963 0.811767,0.11963 z"
         style="font-size:17.5px"
         id="path4188"
         inkscape:connector-curvature="0" />
      <path
         d="m 85.234673,136.41374 q 0,0.99121 -0.239258,1.85425 -0.239258,0.85449 -0.700684,1.48682 -0.461426,0.63232 -1.145019,0.99121 -0.675049,0.35888 -1.555176,0.35888 -0.888672,0 -1.546631,-0.31616 -0.649414,-0.31616 -1.11084,-0.90576 l -0.0769,1.05103 -1.452637,0 0,-13.125 1.580811,0 0,4.8706 q 0.452881,-0.56396 1.09375,-0.86304 0.640869,-0.29907 1.495361,-0.29907 0.888672,0 1.572266,0.35034 0.683593,0.35035 1.145019,0.97412 0.461426,0.62378 0.700684,1.49537 0.239258,0.86303 0.239258,1.89697 l 0,0.17944 z m -1.580811,-0.17944 q 0,-0.67505 -0.136719,-1.28174 -0.128174,-0.61523 -0.418701,-1.07666 -0.290527,-0.46997 -0.760498,-0.74341 -0.469971,-0.27344 -1.153564,-0.27344 -0.410157,0 -0.751954,0.11109 -0.341796,0.10254 -0.615234,0.29907 -0.264893,0.18799 -0.478516,0.45288 -0.205078,0.25635 -0.350341,0.56397 l 0,4.04174 q 0.153808,0.30762 0.358886,0.57251 0.213623,0.25635 0.487061,0.45289 0.273437,0.19653 0.615234,0.30761 0.341797,0.10254 0.751953,0.10254 0.649414,0 1.11084,-0.26489 0.469971,-0.27344 0.760498,-0.73486 0.299073,-0.46143 0.435791,-1.06812 0.145264,-0.60669 0.145264,-1.28174 l 0,-0.17944 z"
         style="font-size:17.5px"
         id="path4190"
         inkscape:connector-curvature="0" />
      <path
         d="m 91.831352,139.82317 q 0.427246,0 0.828858,-0.13672 0.410156,-0.13672 0.726318,-0.37598 0.316162,-0.2478 0.50415,-0.57251 0.196534,-0.33325 0.205079,-0.71777 l 1.495361,0 q -0.0085,0.61523 -0.324707,1.1792 -0.307617,0.55542 -0.828858,0.98266 -0.52124,0.4187 -1.196289,0.67505 -0.675048,0.2478 -1.409912,0.2478 -1.051025,0 -1.837158,-0.37597 -0.786133,-0.37598 -1.315918,-1.0083 -0.52124,-0.64087 -0.786133,-1.46973 -0.264892,-0.8374 -0.264892,-1.76025 l 0,-0.35889 q 0,-0.91431 0.264892,-1.75171 0.264893,-0.8374 0.786133,-1.46973 0.529785,-0.64087 1.315918,-1.01684 0.786133,-0.37598 1.837158,-0.37598 0.820313,0 1.503906,0.26489 0.692139,0.25635 1.187745,0.70923 0.50415,0.44434 0.786132,1.05957 0.281983,0.61524 0.281983,1.31592 l -1.495361,0 q -0.0085,-0.4187 -0.187989,-0.78613 -0.170898,-0.37598 -0.46997,-0.65796 -0.299073,-0.28198 -0.717774,-0.44434 -0.410156,-0.16235 -0.888672,-0.16235 -0.734863,0 -1.239013,0.29907 -0.495606,0.29053 -0.803223,0.76905 -0.307617,0.46997 -0.444336,1.05957 -0.128174,0.5896 -0.128174,1.18774 l 0,0.35889 q 0,0.60669 0.128174,1.20483 0.136719,0.5896 0.435791,1.06812 0.307617,0.46997 0.803223,0.76904 0.50415,0.29053 1.247558,0.29053 z"
         style="font-size:17.5px"
         id="path4192"
         inkscape:connector-curvature="0" />
      <path
         d="m 98.086235,136.2343 q 0,-1.03394 0.256348,-1.89697 0.264892,-0.87159 0.743408,-1.49537 0.48706,-0.62377 1.170659,-0.97412 0.68359,-0.35034 1.52954,-0.35034 0.82885,0 1.44409,0.28198 0.62378,0.27344 1.07666,0.80323 l 0,-4.7937 1.58081,0 0,13.125 -1.45264,0 -0.0684,-0.97413 q -0.46142,0.56397 -1.10229,0.8545 -0.64087,0.29052 -1.49536,0.29052 -0.83741,0 -1.521,-0.35888 -0.675049,-0.35889 -1.153564,-0.99121 -0.478516,-0.63233 -0.743408,-1.48682 -0.264893,-0.86304 -0.264893,-1.85425 l 0,-0.17944 z m 1.580811,0.17944 q 0,0.67505 0.145263,1.28174 0.145264,0.60669 0.444341,1.06812 0.30761,0.46142 0.77758,0.73486 0.46997,0.26489 1.12793,0.26489 0.40161,0 0.72632,-0.094 0.32471,-0.094 0.5896,-0.2649 0.26489,-0.17944 0.46997,-0.4187 0.20508,-0.2478 0.35889,-0.54687 l 0,-4.28955 q -0.30762,-0.56397 -0.82886,-0.92285 -0.52124,-0.36744 -1.29883,-0.36744 -0.6665,0 -1.14502,0.27344 -0.46997,0.27344 -0.77758,0.74341 -0.299077,0.46143 -0.444341,1.07666 -0.145263,0.60669 -0.145263,1.28174 l 0,0.17944 z"
         style="font-size:17.5px"
         id="path4194"
         inkscape:connector-curvature="0" />
      <path
         d="m 112.96294,141.1049 q -0.97412,0 -1.79443,-0.33325 -0.81177,-0.33325 -1.39282,-0.93139 -0.58106,-0.59815 -0.90576,-1.41846 -0.32471,-0.82031 -0.32471,-1.78589 l 0,-0.35889 q 0,-1.11938 0.35889,-1.99951 0.35888,-0.88867 0.94848,-1.49536 0.59815,-0.61523 1.3501,-0.93994 0.7605,-0.32471 1.55518,-0.32471 0.99975,0 1.74316,0.35034 0.75195,0.3418 1.24756,0.95703 0.4956,0.60669 0.73486,1.43555 0.2478,0.82886 0.2478,1.79444 l 0,0.70922 -6.60522,0 q 0.0256,0.63233 0.23926,1.18775 0.22217,0.55542 0.59814,0.97412 0.38452,0.41016 0.91431,0.64941 0.52978,0.23926 1.17065,0.23926 0.84595,0 1.50391,-0.3418 0.65796,-0.34179 1.09375,-0.90576 l 0.96558,0.75196 q -0.23072,0.35034 -0.58106,0.67504 -0.3418,0.31617 -0.79468,0.56397 -0.45288,0.2478 -1.02539,0.39307 -0.57251,0.1538 -1.24756,0.1538 z m -0.20507,-8.28857 q -0.47852,0 -0.90577,0.17944 -0.42724,0.1709 -0.76904,0.5127 -0.3418,0.33325 -0.58105,0.82886 -0.23072,0.48706 -0.32471,1.12793 l 4.97314,0 0,-0.11963 q -0.0256,-0.46143 -0.17944,-0.91431 -0.14526,-0.45288 -0.43579,-0.81177 -0.29053,-0.35888 -0.73486,-0.58105 -0.43579,-0.22217 -1.04248,-0.22217 z"
         style="font-size:17.5px"
         id="path4196"
         inkscape:connector-curvature="0" />
      <path
         d="m 121.73003,140.93401 0,-8.02369 -2.54638,0 0,-1.22192 2.54638,0 0,-0.64941 q 0,-0.88868 0.25635,-1.55518 0.26489,-0.67505 0.73486,-1.12793 0.47852,-0.45288 1.14502,-0.68359 0.66651,-0.23072 1.48682,-0.23072 0.56397,0 1.09375,0.094 0.53833,0.094 1.1023,0.23926 l -0.18799,1.30737 q -0.35034,-0.11963 -0.82032,-0.20508 -0.46142,-0.094 -0.99121,-0.094 -1.11084,0.009 -1.6748,0.56396 -0.55542,0.55542 -0.55542,1.6919 l 0,0.64941 3.56323,0 0,1.22192 -3.56323,0 0,8.02369 -1.58936,0 z"
         style="font-size:17.5px"
         id="path4198"
         inkscape:connector-curvature="0" />
      <path
         d="m 129.60845,136.2343 q 0,-1.03394 0.2478,-1.89697 0.25635,-0.87159 0.73487,-1.49537 0.47851,-0.62377 1.16211,-0.97412 0.68359,-0.35034 1.54663,-0.35034 0.85449,0 1.49536,0.30762 0.64941,0.29907 1.10229,0.87158 l 0.0769,-1.0083 1.43555,0 0,9.04907 q 0,0.91431 -0.29053,1.62354 -0.28198,0.70923 -0.80322,1.20483 -0.5127,0.49561 -1.23047,0.75195 -0.71778,0.25635 -1.58936,0.25635 -0.35889,0 -0.82031,-0.0855 -0.46143,-0.0769 -0.93994,-0.26489 -0.46997,-0.17944 -0.91431,-0.48706 -0.43579,-0.30762 -0.75195,-0.7605 l 0.82031,-0.94848 q 0.29053,0.35034 0.59814,0.5896 0.30762,0.2478 0.62378,0.39306 0.31617,0.14527 0.63233,0.20508 0.31616,0.0684 0.63232,0.0684 0.56397,0 1.01685,-0.16235 0.45288,-0.16236 0.76904,-0.47852 0.32471,-0.30762 0.49561,-0.76904 0.17089,-0.46143 0.17089,-1.05957 l 0,-0.79468 q -0.46142,0.52978 -1.09375,0.81177 -0.62377,0.27343 -1.45263,0.27343 -0.84595,0 -1.52954,-0.35888 -0.6836,-0.35889 -1.16211,-0.99121 -0.46997,-0.63233 -0.72632,-1.48682 -0.25635,-0.86304 -0.25635,-1.85425 l 0,-0.17944 z m 1.58081,0.17944 q 0,0.67505 0.13672,1.28174 0.14526,0.60669 0.44434,1.06812 0.30761,0.46142 0.77758,0.73486 0.46998,0.26489 1.12793,0.26489 0.41016,0 0.73487,-0.094 0.33325,-0.10254 0.5896,-0.28199 0.26489,-0.17944 0.46997,-0.42724 0.20508,-0.2478 0.35888,-0.54688 l 0,-4.23828 q -0.1538,-0.29052 -0.35888,-0.52978 -0.20508,-0.23926 -0.46997,-0.41016 -0.2649,-0.17944 -0.5896,-0.27344 -0.32471,-0.10254 -0.71778,-0.10254 -0.6665,0 -1.14502,0.27344 -0.46997,0.27344 -0.77758,0.74341 -0.29908,0.46143 -0.44434,1.07666 -0.13672,0.60669 -0.13672,1.28174 l 0,0.17944 z"
         style="font-size:17.5px"
         id="path4200"
         inkscape:connector-curvature="0" />
      <path
         d="m 141.97295,133.06413 q 0.49561,-0.72632 1.22193,-1.12793 0.72632,-0.41015 1.63208,-0.4187 0.72632,0 1.31592,0.21362 0.59814,0.20508 1.01684,0.64942 0.4187,0.44433 0.64087,1.12793 0.23071,0.67505 0.23071,1.60644 l 0,5.8191 -1.58081,0 0,-5.83619 q 0,-1.13647 -0.54687,-1.69189 -0.53833,-0.55542 -1.54663,-0.54688 -0.7605,0 -1.38428,0.37598 -0.61523,0.36743 -0.99976,0.98267 l 0,6.71631 -1.58081,0 0,-13.125 1.58081,0 0,5.25512 z"
         style="font-size:17.5px"
         id="path4202"
         inkscape:connector-curvature="0" />
      <path
         d="m 151.13311,131.6884 4.72534,0 0,7.87842 3.01636,0 0,1.36719 -7.7417,0 0,-1.36719 3.14453,0 0,-6.50269 -3.14453,0 0,-1.37573 z m 2.93945,-2.42676 q 0,-0.39306 0.23072,-0.65796 0.23925,-0.27343 0.71777,-0.27343 0.46997,0 0.70923,0.27343 0.23926,0.2649 0.23926,0.65796 0,0.38452 -0.23926,0.64087 -0.23926,0.25635 -0.70923,0.25635 -0.47852,0 -0.71777,-0.25635 -0.23072,-0.25635 -0.23072,-0.64087 z"
         style="font-size:17.5px"
         id="path4204"
         inkscape:connector-curvature="0" />
      <path
         d="m 162.44659,131.6884 4.66552,0 0,9.30542 q 0,0.88867 -0.2478,1.57227 -0.23926,0.68359 -0.70923,1.14502 -0.46142,0.46997 -1.13647,0.70922 -0.66651,0.24781 -1.521,0.24781 -0.48706,0 -0.9143,-0.0342 -0.41871,-0.0256 -0.88868,-0.11109 l 0.11109,-1.29883 q 0.14526,0.0256 0.36743,0.0427 0.22217,0.0256 0.44434,0.0342 0.23071,0.0171 0.43579,0.0171 0.21362,0.009 0.33325,0.009 0.44433,0 0.8374,-0.11963 0.39307,-0.11108 0.68359,-0.38452 0.29053,-0.27343 0.45288,-0.72631 0.1709,-0.44434 0.1709,-1.1023 l 0,-7.92969 -3.08471,0 0,-1.37573 z m 2.86255,-2.4353 q 0,-0.38452 0.23071,-0.64942 0.23071,-0.27343 0.70923,-0.27343 0.47851,0 0.71777,0.27343 0.23926,0.2649 0.23926,0.64942 0,0.38452 -0.23926,0.64941 -0.23926,0.25635 -0.71777,0.25635 -0.47852,0 -0.70923,-0.25635 -0.23071,-0.26489 -0.23071,-0.64941 z"
         style="font-size:17.5px"
         id="path4206"
         inkscape:connector-curvature="0" />
      <path
         d="m 174.64019,136.61882 -1.16211,1.11938 0,3.19581 -1.58935,0 0,-13.125 1.58935,0 0,8.03222 1.03394,-1.11084 3.03344,-3.04199 1.92261,0 -3.74267,3.85376 4.31518,5.39185 -2.00806,0 -3.39233,-4.31519 z"
         style="font-size:17.5px"
         id="path4208"
         inkscape:connector-curvature="0" />
      <path
         d="m 182.6126,127.80901 4.72534,0 0,11.75781 3.01636,0 0,1.36719 -7.7417,0 0,-1.36719 3.14453,0 0,-10.38208 -3.14453,0 0,-1.37573 z"
         style="font-size:17.5px"
         id="path4210"
         inkscape:connector-curvature="0" />
      <path
         d="m 193.58428,131.6884 0.0427,0.87158 q 0.28198,-0.48706 0.73486,-0.7605 0.46143,-0.27343 1.11084,-0.28198 1.27319,0 1.70044,0.99121 0.27344,-0.44433 0.71777,-0.70923 0.45288,-0.27343 1.09375,-0.28198 1.01685,0 1.56372,0.62378 0.54688,0.62378 0.54688,1.88843 l 0,6.9043 -1.50391,0 0,-6.92139 q 0,-1.16211 -1.06811,-1.15357 -0.28199,0 -0.48706,0.0769 -0.20508,0.0769 -0.3418,0.21362 -0.13672,0.12818 -0.21362,0.30762 -0.0769,0.1709 -0.10254,0.35889 l 0,7.11792 -1.50391,0 0,-6.92994 q 0,-0.55542 -0.2478,-0.85449 -0.2478,-0.29907 -0.78613,-0.29053 -0.49561,0 -0.76905,0.19654 -0.27344,0.19653 -0.40161,0.52124 l 0,7.35718 -1.50391,0 0,-9.24561 1.41846,0 z"
         style="font-size:17.5px"
         id="path4212"
         inkscape:connector-curvature="0" />
      <path
         d="m 204.76958,131.6884 0.11109,1.36719 q 0.50415,-0.71778 1.23901,-1.11939 0.73487,-0.41015 1.64063,-0.4187 0.72632,0 1.31592,0.20508 0.59814,0.20508 1.01684,0.64087 0.4187,0.43579 0.64087,1.11084 0.23071,0.6665 0.23071,1.58935 l 0,5.87037 -1.58081,0 0,-5.83619 q 0,-0.61523 -0.13672,-1.04248 -0.13672,-0.42724 -0.41015,-0.69214 -0.2649,-0.26489 -0.65796,-0.38452 -0.38452,-0.11963 -0.88867,-0.11963 -0.79468,0 -1.40137,0.40162 -0.59815,0.39306 -0.95703,1.04248 l 0,6.63086 -1.58081,0 0,-9.24561 1.41845,0 z"
         style="font-size:17.5px"
         id="path4214"
         inkscape:connector-curvature="0" />
      <path
         d="m 213.39996,136.22575 q 0,-0.99975 0.29052,-1.85424 0.29053,-0.86304 0.82886,-1.49537 0.54688,-0.63232 1.32446,-0.99121 0.77759,-0.36743 1.75171,-0.36743 0.98267,0 1.76026,0.36743 0.78613,0.35889 1.32446,0.99121 0.54687,0.63233 0.8374,1.49537 0.29053,0.85449 0.29053,1.85424 l 0,0.18799 q 0,0.99976 -0.29053,1.85425 -0.29053,0.85449 -0.8374,1.48682 -0.53833,0.63232 -1.31592,0.99121 -0.77759,0.35888 -1.75171,0.35888 -0.98266,0 -1.7688,-0.35888 -0.77758,-0.35889 -1.32446,-0.99121 -0.53833,-0.63233 -0.82886,-1.48682 -0.29052,-0.85449 -0.29052,-1.85425 l 0,-0.18799 z m 1.58081,0.18799 q 0,0.6836 0.16235,1.30738 0.16235,0.61523 0.48706,1.0852 0.33325,0.46997 0.82886,0.74341 0.4956,0.27344 1.15356,0.27344 0.64942,0 1.13648,-0.27344 0.4956,-0.27344 0.82031,-0.74341 0.33325,-0.46997 0.4956,-1.0852 0.16236,-0.62378 0.16236,-1.30738 l 0,-0.18799 q 0,-0.67505 -0.1709,-1.29028 -0.16235,-0.62378 -0.49561,-1.09375 -0.3247,-0.46997 -0.82031,-0.74341 -0.48706,-0.28198 -1.14502,-0.28198 -0.65796,0 -1.14502,0.28198 -0.48706,0.27344 -0.82031,0.74341 -0.32471,0.46997 -0.48706,1.09375 -0.16235,0.61523 -0.16235,1.29028 l 0,0.18799 z"
         style="font-size:17.5px"
         id="path4216"
         inkscape:connector-curvature="0" />
      <path
         d="m 232.13897,136.41374 q 0,0.99121 -0.23926,1.85425 -0.23926,0.85449 -0.70068,1.48682 -0.46143,0.63232 -1.14502,0.99121 -0.67505,0.35888 -1.54663,0.35888 -0.84595,0 -1.49536,-0.27343 -0.64087,-0.27344 -1.1023,-0.78614 l 0,4.44336 -1.58081,0 0,-12.80029 1.44409,0 0.0769,1.0083 q 0.46142,-0.57251 1.11084,-0.87158 0.65796,-0.30762 1.52099,-0.30762 0.88867,0 1.57227,0.35034 0.68359,0.35035 1.14502,0.97412 0.46142,0.62378 0.70068,1.49537 0.23926,0.86303 0.23926,1.89697 l 0,0.17944 z m -1.58081,-0.17944 q 0,-0.67505 -0.15381,-1.28174 -0.14526,-0.61523 -0.46143,-1.07666 -0.30761,-0.46997 -0.78613,-0.74341 -0.47851,-0.27344 -1.14502,-0.27344 -0.7605,0 -1.28174,0.35889 -0.51269,0.35034 -0.82031,0.90576 l 0,4.45191 q 0.30762,0.54687 0.82031,0.89721 0.5127,0.3418 1.29883,0.3418 0.65796,0 1.13648,-0.27344 0.47851,-0.28198 0.78613,-0.75195 0.30762,-0.46997 0.45288,-1.0852 0.15381,-0.61524 0.15381,-1.29029 l 0,-0.17944 z"
         style="font-size:17.5px"
         id="path4218"
         inkscape:connector-curvature="0" />
      <path
         d="m 234.54009,136.2343 q 0,-1.03394 0.24781,-1.89697 0.2478,-0.87159 0.72631,-1.49537 0.47852,-0.62377 1.17066,-0.97412 0.70068,-0.35034 1.58935,-0.35034 0.82032,0 1.4441,0.28198 0.63232,0.27344 1.09375,0.80323 l 0.0683,-0.91431 1.45264,0 0,12.80029 -1.58081,0 0,-4.39209 q -0.46143,0.48706 -1.07666,0.75196 -0.61523,0.25634 -1.41846,0.25634 -0.88012,0 -1.57226,-0.35888 -0.6836,-0.35889 -1.16211,-0.99121 -0.47852,-0.63233 -0.73486,-1.48682 -0.24781,-0.86304 -0.24781,-1.85425 l 0,-0.17944 z m 1.58081,0.17944 q 0,0.67505 0.14527,1.29029 0.15381,0.61523 0.46142,1.0852 0.30762,0.46997 0.77759,0.75195 0.47852,0.27344 1.13647,0.27344 0.7605,0 1.2732,-0.3418 0.51269,-0.34179 0.8374,-0.88867 l 0,-4.56299 q -0.16235,-0.26489 -0.37598,-0.47851 -0.20507,-0.22217 -0.46997,-0.38452 -0.25634,-0.16236 -0.57251,-0.24781 -0.30761,-0.094 -0.67505,-0.094 -0.65795,0 -1.13647,0.28198 -0.47852,0.28198 -0.79468,0.7605 -0.30761,0.46997 -0.46142,1.08521 -0.14527,0.61523 -0.14527,1.29028 l 0,0.17944 z"
         style="font-size:17.5px"
         id="path4220"
         inkscape:connector-curvature="0" />
      <path
         d="m 251.38213,131.5175 q 0.22217,0 0.46143,0.0171 0.23926,0.009 0.45288,0.0427 0.22217,0.0256 0.40161,0.0684 0.18799,0.0427 0.30762,0.094 l -0.21362,1.54663 q -0.46143,-0.10254 -0.88013,-0.14526 -0.41016,-0.0513 -0.86304,-0.0513 -1.11084,0 -1.80298,0.50415 -0.68359,0.50415 -1.0083,1.40991 l 0,5.93018 -1.58935,0 0,-9.24561 1.5039,0 0.0769,1.46973 q 0.56396,-0.7605 1.35009,-1.19629 0.79468,-0.44434 1.80298,-0.44434 z"
         style="font-size:17.5px"
         id="path4222"
         inkscape:connector-curvature="0" />
      <path
         d="m 261.96075,138.48161 q 0,-0.28198 -0.11109,-0.50415 -0.11108,-0.23071 -0.37597,-0.4187 -0.2649,-0.18799 -0.70069,-0.3418 -0.43579,-0.16235 -1.0852,-0.29052 -0.79468,-0.16236 -1.45264,-0.39307 -0.64941,-0.23071 -1.11938,-0.54687 -0.46143,-0.32471 -0.71778,-0.75196 -0.25635,-0.43579 -0.25635,-1.0083 0,-0.56396 0.2649,-1.05102 0.26489,-0.49561 0.74341,-0.86304 0.47851,-0.36743 1.13647,-0.58106 0.6665,-0.21362 1.46118,-0.21362 0.85449,0 1.53809,0.22217 0.68359,0.22217 1.16211,0.61523 0.47851,0.39307 0.73486,0.92286 0.26489,0.52124 0.26489,1.12793 l -1.58081,0 q 0,-0.29908 -0.15381,-0.58106 -0.1538,-0.29053 -0.42724,-0.51269 -0.27344,-0.22217 -0.66651,-0.35889 -0.38452,-0.13672 -0.87158,-0.13672 -0.50415,0 -0.88867,0.11108 -0.37598,0.11109 -0.63232,0.29908 -0.24781,0.18798 -0.37598,0.43579 -0.12817,0.2478 -0.12817,0.51269 0,0.27344 0.10253,0.48706 0.10254,0.21363 0.35035,0.38452 0.25634,0.1709 0.67505,0.30762 0.42724,0.13672 1.07666,0.26489 0.85449,0.17945 1.52954,0.41871 0.67505,0.23071 1.13647,0.56396 0.46143,0.32471 0.70068,0.7605 0.24781,0.43579 0.24781,1.0083 0,0.61523 -0.28199,1.11938 -0.27343,0.50415 -0.76904,0.86304 -0.4956,0.35889 -1.18774,0.55542 -0.69214,0.19653 -1.51245,0.19653 -0.93994,0 -1.67481,-0.2478 -0.73486,-0.25635 -1.24756,-0.6665 -0.50415,-0.4187 -0.77758,-0.96558 -0.2649,-0.54687 -0.2649,-1.13647 l 1.58081,0 q 0.0342,0.48706 0.25635,0.82031 0.23071,0.33325 0.56397,0.53833 0.34179,0.20508 0.75195,0.29053 0.41016,0.0855 0.81177,0.0855 0.99975,0 1.58081,-0.36744 0.58105,-0.36743 0.5896,-0.97412 z"
         style="font-size:17.5px"
         id="path4224"
         inkscape:connector-curvature="0" />
      <path
         d="m 270.05279,129.44963 0,2.23877 3.52051,0 0,1.22192 -3.52051,0 0,5.02442 q 0,0.53833 0.13672,0.88867 0.13672,0.35034 0.37597,0.56396 0.23926,0.20508 0.54688,0.29053 0.31616,0.0855 0.6665,0.0855 0.25635,0 0.52979,-0.0256 0.27343,-0.0342 0.52978,-0.0769 0.26489,-0.0427 0.48706,-0.0855 0.23072,-0.0513 0.37598,-0.0854 l 0.22217,1.11939 q -0.19654,0.11963 -0.47852,0.21362 -0.28198,0.0854 -0.61523,0.14527 -0.33325,0.0684 -0.70923,0.10253 -0.36743,0.0342 -0.73486,0.0342 -0.61524,0 -1.15357,-0.17089 -0.52978,-0.17945 -0.92285,-0.55542 -0.39307,-0.38453 -0.62378,-0.98267 -0.22217,-0.60669 -0.22217,-1.46118 l 0,-5.02442 -2.42676,0 0,-1.22192 2.42676,0 0,-2.23877 1.58936,0 z"
         style="font-size:17.5px"
         id="path4226"
         inkscape:connector-curvature="0" />
      <path
         d="m 282.80181,139.66081 q -0.46142,0.6836 -1.15356,1.06812 -0.69214,0.37597 -1.5979,0.37597 -0.72632,0 -1.31592,-0.22216 -0.5896,-0.23072 -1.0083,-0.70923 -0.4187,-0.47852 -0.64942,-1.21338 -0.22216,-0.74341 -0.22216,-1.77734 l 0,-5.49439 1.58081,0 0,5.51147 q 0,0.75196 0.11963,1.24756 0.11962,0.49561 0.35888,0.79468 0.23926,0.29053 0.58106,0.41016 0.35034,0.11963 0.80322,0.11963 0.96558,0 1.55517,-0.39307 0.59815,-0.39307 0.88868,-1.05957 l 0,-6.63086 1.58935,0 0,9.24561 -1.43554,0 -0.094,-1.2732 z"
         style="font-size:17.5px"
         id="path4228"
         inkscape:connector-curvature="0" />
      <path
         d="m 290.91949,138.66106 0.14526,0.57251 0.15381,-0.57251 2.58911,-6.97266 1.61499,0 -3.76831,9.24561 -1.20483,0 -3.80249,-9.24561 1.62353,0 2.64893,6.97266 z"
         style="font-size:17.5px"
         id="path4230"
         inkscape:connector-curvature="0" />
      <path
         d="m 299.19097,137.5844 0.18799,1.32446 0.23071,-1.32446 1.47827,-5.896 1.01685,0 1.46973,5.896 0.2478,1.45263 0.23071,-1.45263 1.02539,-5.896 1.40137,0 -1.96533,9.24561 -1.24756,0 -1.44409,-5.66529 -0.23926,-1.43554 -0.23071,1.43554 -1.42701,5.66529 -1.24755,0 -1.96534,-9.24561 1.40137,0 1.07666,5.896 z"
         style="font-size:17.5px"
         id="path4232"
         inkscape:connector-curvature="0" />
      <path
         d="m 312.10235,135.11491 2.46948,-3.42651 1.85425,0 -3.4436,4.57153 3.53759,4.67408 -1.82861,0 -2.55493,-3.52051 -2.55493,3.52051 -1.84571,0 3.5376,-4.67408 -3.4436,-4.57153 1.82861,0 2.44385,3.42651 z"
         style="font-size:17.5px"
         id="path4234"
         inkscape:connector-curvature="0" />
      <path
         d="m 322.17681,137.65276 0.41016,1.11938 2.81982,-7.08374 1.7688,0 -4.69116,10.67261 q -0.16236,0.35888 -0.4187,0.7605 -0.24781,0.40161 -0.60669,0.7434 -0.35889,0.3418 -0.8374,0.57251 -0.47852,0.23072 -1.1023,0.23072 -0.11108,0 -0.2478,-0.0171 -0.13672,-0.009 -0.27344,-0.0342 -0.13672,-0.0171 -0.25635,-0.0427 -0.11963,-0.0256 -0.19653,-0.0427 l 0.25635,-1.29029 q 0.0598,0 0.16235,0.009 0.10254,0.009 0.21362,0.0171 0.11109,0.009 0.21363,0.009 0.10254,0.009 0.16235,0.009 0.32471,0 0.5896,-0.17944 0.27344,-0.17945 0.47852,-0.42725 0.21362,-0.2478 0.35888,-0.5127 0.15381,-0.26489 0.23926,-0.43579 l 0.63232,-1.23047 -3.98193,-8.80981 1.7688,0 2.53784,5.96436 z"
         style="font-size:17.5px"
         id="path4236"
         inkscape:connector-curvature="0" />
      <path
         d="m 331.16607,139.64372 5.88745,0 0,1.29029 -7.90405,0 0,-1.16211 5.52002,-6.77613 -5.44312,0 0,-1.30737 7.51953,0 0,1.11939 -5.57983,6.83593 z"
         style="font-size:17.5px"
         id="path4238"
         inkscape:connector-curvature="0" />
      <path
         d="m 72.844536,159.58757 -4.152832,0 -0.999756,3.22144 -1.580811,0 4.016114,-12.44141 1.324463,0 3.947753,12.44141 -1.572265,0 -0.982666,-3.22144 z m -3.725586,-1.37573 3.306885,0 -1.640625,-5.40039 -1.66626,5.40039 z"
         style="font-size:17.5px"
         id="path4240"
         inkscape:connector-curvature="0" />
      <path
         d="m 77.381889,162.80901 0,-12.44141 3.699952,0 q 0.769042,0.009 1.503906,0.20508 0.734863,0.18799 1.307373,0.5896 0.57251,0.40161 0.914306,1.02539 0.341797,0.62378 0.333252,1.49536 -0.0085,0.48706 -0.162353,0.88867 -0.145264,0.40161 -0.410156,0.72632 -0.256348,0.31616 -0.60669,0.55542 -0.350342,0.23926 -0.743408,0.41016 0.495605,0.14526 0.905762,0.4187 0.418701,0.26489 0.717773,0.64941 0.299072,0.37598 0.461426,0.85449 0.170898,0.47852 0.170898,1.03394 0.0085,0.87158 -0.333252,1.53808 -0.341796,0.66651 -0.914306,1.11939 -0.57251,0.44434 -1.324463,0.68359 -0.743408,0.23926 -1.538086,0.24781 l -3.981934,0 z m 1.589356,-5.8191 0,4.47754 2.435303,0 q 0.495605,-0.009 0.939941,-0.16235 0.444336,-0.16235 0.786133,-0.44434 0.341797,-0.28198 0.53833,-0.69214 0.205078,-0.41015 0.205078,-0.93139 0.0085,-0.52979 -0.179443,-0.93994 -0.179444,-0.41016 -0.504151,-0.69214 -0.324707,-0.29053 -0.760498,-0.44434 -0.435791,-0.15381 -0.939941,-0.1709 l -2.520752,0 z m 0,-1.31591 2.20459,0 q 0.444336,-0.009 0.871582,-0.13672 0.427246,-0.13672 0.760498,-0.38452 0.333252,-0.25635 0.53833,-0.62378 0.205078,-0.36744 0.205078,-0.8545 0,-0.52124 -0.205078,-0.88867 -0.196533,-0.36743 -0.53833,-0.59814 -0.333252,-0.23926 -0.777588,-0.35034 -0.435791,-0.11109 -0.897217,-0.11963 l -2.161865,0 0,3.9563 z"
         style="font-size:17.5px"
         id="path4242"
         inkscape:connector-curvature="0" />
      <path
         d="m 95.950005,159.06633 q -0.111084,0.86304 -0.444336,1.58936 -0.333252,0.71777 -0.871582,1.23901 -0.529786,0.51269 -1.264649,0.80322 -0.726318,0.28198 -1.623535,0.28198 -0.769043,0 -1.401367,-0.21362 -0.623779,-0.22217 -1.119385,-0.60669 -0.48706,-0.38452 -0.845947,-0.90576 -0.350342,-0.52124 -0.5896,-1.13647 -0.230713,-0.61524 -0.350342,-1.29029 -0.111084,-0.67505 -0.119629,-1.36719 l 0,-1.73461 q 0.0085,-0.69214 0.119629,-1.36719 0.119629,-0.67505 0.350342,-1.29029 0.239258,-0.61523 0.5896,-1.13647 0.358887,-0.52978 0.845947,-0.91431 0.495606,-0.38452 1.119385,-0.59814 0.623779,-0.22217 1.401367,-0.22217 0.931396,0 1.66626,0.29053 0.734863,0.28198 1.264648,0.81177 0.529785,0.52124 0.845947,1.2561 0.324708,0.73486 0.427247,1.62353 l -1.580811,0 q -0.0769,-0.56396 -0.264893,-1.05102 -0.187988,-0.48706 -0.50415,-0.85449 -0.316162,-0.36743 -0.777588,-0.57251 -0.452881,-0.21363 -1.07666,-0.21363 -0.563965,0 -0.999756,0.18799 -0.427246,0.17945 -0.743408,0.49561 -0.307617,0.31616 -0.52124,0.73486 -0.205078,0.4187 -0.333252,0.88867 -0.128174,0.46997 -0.187989,0.96558 -0.05127,0.48706 -0.05127,0.94849 l 0,1.7517 q 0,0.46143 0.05127,0.95704 0.05982,0.48706 0.187989,0.96557 0.128174,0.46997 0.333252,0.88867 0.205078,0.41871 0.52124,0.74341 0.316162,0.31616 0.743408,0.50415 0.427246,0.17945 0.999756,0.17945 0.623779,0 1.07666,-0.19654 0.461426,-0.19653 0.777588,-0.54687 0.316162,-0.35889 0.50415,-0.8374 0.187989,-0.48707 0.264893,-1.05103 l 1.580811,0 z"
         style="font-size:17.5px"
         id="path4244"
         inkscape:connector-curvature="0" />
      <path
         d="m 98.222954,162.80901 0,-12.44141 2.879636,0 q 1.29883,0.0171 2.31568,0.44434 1.02539,0.4187 1.72607,1.17919 0.70923,0.75196 1.07666,1.81153 0.37598,1.05102 0.38452,2.33276 l 0,0.91431 q -0.009,1.28174 -0.38452,2.34131 -0.36743,1.05102 -1.07666,1.81152 -0.70068,0.75195 -1.72607,1.1792 -1.01685,0.4187 -2.31568,0.42725 l -2.879636,0 z m 1.606445,-11.14258 0,9.85229 1.273191,0 q 1.0083,-0.009 1.74317,-0.35034 0.73486,-0.35034 1.21338,-0.94849 0.48706,-0.59814 0.71777,-1.40991 0.23926,-0.81177 0.2478,-1.76025 l 0,-0.9314 q -0.009,-0.94848 -0.2478,-1.75171 -0.23926,-0.81176 -0.71777,-1.40136 -0.47852,-0.59815 -1.21338,-0.93995 -0.73487,-0.34179 -1.74317,-0.35888 l -1.273191,0 z"
         style="font-size:17.5px"
         id="path4246"
         inkscape:connector-curvature="0" />
      <path
         d="m 115.72295,157.05827 -5.19531,0 0,4.40918 6.05835,0 0,1.34156 -7.63916,0 0,-12.44141 7.56226,0 0,1.3501 -5.98145,0 0,3.99902 5.19531,0 0,1.34155 z"
         style="font-size:17.5px"
         id="path4248"
         inkscape:connector-curvature="0" />
      <path
         d="m 126.29302,157.31462 -5.17822,0 0,5.49439 -1.5979,0 0,-12.44141 7.63916,0 0,1.3501 -6.04126,0 0,4.25537 5.17822,0 0,1.34155 z"
         style="font-size:17.5px"
         id="path4250"
         inkscape:connector-curvature="0" />
      <path
         d="m 137.91412,161.17693 q -0.78614,0.92285 -1.80298,1.36718 -1.01685,0.44434 -2.23023,0.43579 -0.76904,-0.009 -1.41845,-0.23071 -0.64087,-0.23071 -1.15357,-0.62378 -0.51269,-0.40161 -0.89722,-0.93994 -0.38452,-0.53833 -0.64941,-1.16211 -0.25635,-0.63232 -0.39307,-1.31592 -0.12817,-0.69214 -0.13671,-1.39282 l 0,-1.44409 q 0.009,-0.69214 0.11962,-1.37573 0.11963,-0.69214 0.35889,-1.32447 0.23926,-0.63232 0.59815,-1.17065 0.35888,-0.54688 0.85449,-0.93994 0.50415,-0.40161 1.13647,-0.63233 0.63233,-0.23071 1.41846,-0.23071 0.87158,0 1.60644,0.27344 0.73487,0.26489 1.28174,0.76904 0.54688,0.49561 0.88013,1.20484 0.33325,0.70068 0.41016,1.57226 l -1.56372,0 q -0.094,-0.53833 -0.29053,-0.99121 -0.19654,-0.46143 -0.52124,-0.78613 -0.31616,-0.32471 -0.7605,-0.50415 -0.44434,-0.18799 -1.03394,-0.18799 -0.56396,0 -0.99975,0.19653 -0.43579,0.18799 -0.7605,0.5127 -0.32471,0.3247 -0.53833,0.7605 -0.21362,0.42724 -0.35034,0.90576 -0.13672,0.47851 -0.19653,0.97412 -0.0598,0.4956 -0.0598,0.95703 l 0,1.46118 q 0.009,0.46997 0.0769,0.97412 0.0769,0.49561 0.23071,0.97412 0.15381,0.47852 0.39306,0.90576 0.23926,0.42725 0.57251,0.75196 0.3418,0.32471 0.78614,0.52124 0.44433,0.18799 1.0083,0.19653 0.3247,0.009 0.67505,-0.0256 0.35888,-0.0342 0.69214,-0.13672 0.33325,-0.10254 0.62377,-0.27344 0.29053,-0.17944 0.48707,-0.46143 l 0.0171,-2.79418 -2.52929,0 0,-1.33301 4.0332,0 0.0256,4.56299 z"
         style="font-size:17.5px"
         id="path4252"
         inkscape:connector-curvature="0" />
      <path
         d="m 148.15948,162.80901 -1.49536,0 0,-5.75074 -5.10132,0 0,5.75074 -1.48682,0 0,-12.44141 1.48682,0 0,5.34912 5.10132,0 0,-5.34912 1.49536,0 0,12.44141 z"
         style="font-size:17.5px"
         id="path4254"
         inkscape:connector-curvature="0" />
      <path
         d="m 150.85113,150.3676 7.51953,0 0,1.37573 -2.98218,0 0,9.69849 2.98218,0 0,1.36719 -7.51953,0 0,-1.36719 2.91382,0 0,-9.69849 -2.91382,0 0,-1.37573 z"
         style="font-size:17.5px"
         id="path4256"
         inkscape:connector-curvature="0" />
      <path
         d="m 167.18047,150.3676 1.61499,0 0,8.65601 q -0.0171,0.86303 -0.33325,1.58935 -0.30762,0.72632 -0.84595,1.2561 -0.53833,0.52124 -1.27319,0.82032 -0.72632,0.29052 -1.58935,0.29052 -0.87159,0 -1.58936,-0.26489 -0.70923,-0.26489 -1.23901,-0.75195 -0.52124,-0.49561 -0.83741,-1.18775 -0.31616,-0.70068 -0.39306,-1.56372 l 1.60644,0 q 0.0256,0.52124 0.20508,0.96558 0.18799,0.44434 0.50415,0.77759 0.31616,0.3247 0.75195,0.50415 0.44434,0.17944 0.99122,0.17944 0.56396,0 1.0083,-0.20508 0.44433,-0.21362 0.75195,-0.57251 0.31616,-0.35888 0.47852,-0.82885 0.17089,-0.47852 0.18798,-1.0083 l 0,-8.65601 z"
         style="font-size:17.5px"
         id="path4258"
         inkscape:connector-curvature="0" />
      <path
         d="m 174.81963,157.03264 -1.38427,1.57226 0,4.20411 -1.61499,0 0,-12.44141 1.61499,0 0,6.07544 1.20483,-1.50391 3.64868,-4.57153 1.92261,0 -4.34937,5.44311 4.6399,6.9983 -1.92261,0 -3.75977,-5.77637 z"
         style="font-size:17.5px"
         id="path4260"
         inkscape:connector-curvature="0" />
      <path
         d="m 184.11651,161.46745 6.08398,0 0,1.34156 -7.66479,0 0,-12.44141 1.58081,0 0,11.09985 z"
         style="font-size:17.5px"
         id="path4262"
         inkscape:connector-curvature="0" />
      <path
         d="m 194.5584,150.3676 2.02515,6.2207 2.1875,-6.2207 1.96533,0 0,12.44141 -1.53808,0 0,-4.9646 0.12817,-5.19532 -2.29858,6.69922 -0.90577,0 -2.11059,-6.51977 0.12817,5.01587 0,4.9646 -1.53808,0 0,-12.44141 1.95678,0 z"
         style="font-size:17.5px"
         id="path4264"
         inkscape:connector-curvature="0" />
      <path
         d="m 211.10992,162.80901 -1.60645,0 -4.82788,-9.29688 -0.0256,9.29688 -1.5979,0 0,-12.44141 1.60644,0 4.82788,9.27978 0.0256,-9.27978 1.5979,0 0,12.44141 z"
         style="font-size:17.5px"
         id="path4266"
         inkscape:connector-curvature="0" />
      <path
         d="m 221.90215,157.30608 q -0.009,0.6665 -0.11963,1.35009 -0.10253,0.67505 -0.3247,1.30738 -0.22217,0.63232 -0.57251,1.1792 -0.3418,0.54687 -0.82032,0.95703 -0.47851,0.41015 -1.10229,0.64941 -0.61523,0.23071 -1.38428,0.23071 -0.76904,0 -1.39282,-0.23071 -0.61523,-0.23926 -1.09375,-0.64941 -0.47852,-0.41016 -0.82886,-0.95703 -0.35034,-0.55542 -0.58105,-1.18775 -0.22217,-0.63232 -0.33325,-1.30737 -0.11109,-0.67505 -0.11963,-1.34155 l 0,-1.41846 q 0.009,-0.6665 0.11108,-1.34155 0.11109,-0.6836 0.33325,-1.31592 0.23072,-0.63233 0.57251,-1.1792 0.35034,-0.55542 0.82886,-0.96558 0.47852,-0.4187 1.09375,-0.64941 0.62378,-0.23926 1.39282,-0.23926 0.76905,0 1.39282,0.23926 0.62378,0.23071 1.1023,0.64087 0.47852,0.41015 0.82031,0.96557 0.35034,0.54688 0.57251,1.1792 0.23072,0.63233 0.33325,1.31592 0.11109,0.6836 0.11963,1.3501 l 0,1.41846 z m -1.56372,-1.43555 q -0.009,-0.44434 -0.0598,-0.92285 -0.0513,-0.48706 -0.17945,-0.95703 -0.11962,-0.47852 -0.3247,-0.90577 -0.20508,-0.43579 -0.5127,-0.76049 -0.30762,-0.33326 -0.72632,-0.52124 -0.4187,-0.19654 -0.97412,-0.19654 -0.54687,0 -0.96557,0.19654 -0.4187,0.19653 -0.72632,0.52978 -0.30762,0.32471 -0.5127,0.7605 -0.20508,0.42725 -0.33325,0.90576 -0.11963,0.46997 -0.17944,0.95703 -0.0513,0.47852 -0.0598,0.91431 l 0,1.43555 q 0.009,0.43579 0.0598,0.92285 0.0598,0.48706 0.18799,0.96557 0.12817,0.46997 0.33325,0.90577 0.20508,0.43579 0.51269,0.76904 0.30762,0.32471 0.72632,0.52124 0.4187,0.19653 0.97412,0.19653 0.55542,0 0.97412,-0.19653 0.42725,-0.19653 0.72632,-0.52124 0.30762,-0.33325 0.50415,-0.7605 0.20508,-0.43579 0.32471,-0.90576 0.12817,-0.47852 0.1709,-0.96558 0.0513,-0.48706 0.0598,-0.93139 l 0,-1.43555 z"
         style="font-size:17.5px"
         id="path4268"
         inkscape:connector-curvature="0" />
      <path
         d="m 226.02935,157.81877 0,4.99024 -1.58081,0 0,-12.44141 4.0332,0 q 0.83741,0.0171 1.58081,0.26489 0.75196,0.2478 1.31592,0.71778 0.56397,0.46997 0.88867,1.1621 0.33326,0.69214 0.33326,1.58936 0,0.89722 -0.33326,1.58936 -0.3247,0.68359 -0.88867,1.15356 -0.56396,0.46997 -1.31592,0.71777 -0.7434,0.24781 -1.58081,0.25635 l -2.45239,0 z m 0,-1.29883 2.45239,0 q 0.54688,-0.009 1.0083,-0.1709 0.46143,-0.17089 0.80323,-0.47851 0.34179,-0.30762 0.52978,-0.74341 0.19653,-0.44433 0.19653,-1.0083 0,-0.56396 -0.19653,-1.01685 -0.18799,-0.45288 -0.52978,-0.76904 -0.33326,-0.31616 -0.80323,-0.48706 -0.46142,-0.1709 -1.0083,-0.17944 l -2.45239,0 0,4.85351 z"
         style="font-size:17.5px"
         id="path4270"
         inkscape:connector-curvature="0" />
      <path
         d="m 242.99957,157.14372 q -0.009,0.69214 -0.11963,1.39282 -0.11109,0.70069 -0.3418,1.3501 -0.22217,0.64942 -0.58106,1.22193 -0.35034,0.56396 -0.84594,0.98266 l 2.14477,1.78589 -1.0852,1.03394 -2.46094,-2.08496 q -0.52978,0.1538 -1.14502,0.1538 -0.79468,0 -1.427,-0.23925 -0.63233,-0.24781 -1.12793,-0.66651 -0.48706,-0.4187 -0.84595,-0.98266 -0.35888,-0.57251 -0.5896,-1.22193 -0.23071,-0.64941 -0.34179,-1.34155 -0.11109,-0.70068 -0.11963,-1.38428 l 0,-1.09375 q 0.009,-0.68359 0.11963,-1.38427 0.11108,-0.70069 0.34179,-1.3501 0.23072,-0.64942 0.58106,-1.21338 0.35034,-0.57251 0.8374,-0.99121 0.4956,-0.42725 1.12793,-0.66651 0.64087,-0.2478 1.43555,-0.2478 0.79467,0 1.427,0.2478 0.64087,0.23926 1.12793,0.65796 0.4956,0.4187 0.84594,0.99121 0.35889,0.56397 0.58106,1.21338 0.23071,0.64942 0.3418,1.35865 0.11108,0.70068 0.11963,1.38427 l 0,1.09375 z m -1.57227,-1.11084 q -0.009,-0.46997 -0.0598,-0.97412 -0.0427,-0.51269 -0.1709,-0.99975 -0.11963,-0.49561 -0.33326,-0.93995 -0.20507,-0.44433 -0.52124,-0.77758 -0.31616,-0.3418 -0.76049,-0.53833 -0.43579,-0.19654 -1.02539,-0.19654 -0.58106,0 -1.01685,0.20508 -0.43579,0.19653 -0.75195,0.53833 -0.31617,0.33325 -0.52979,0.77759 -0.20508,0.44434 -0.33325,0.93994 -0.12817,0.48706 -0.18799,0.99976 -0.0513,0.50415 -0.0513,0.96557 l 0,1.11084 q 0,0.46143 0.0513,0.97412 0.0598,0.50415 0.18799,0.99976 0.12817,0.4956 0.33325,0.93994 0.21362,0.44434 0.52979,0.78613 0.31616,0.3418 0.75195,0.54688 0.44434,0.19653 1.02539,0.19653 0.5896,0 1.02539,-0.19653 0.44434,-0.20508 0.7605,-0.53833 0.31616,-0.3418 0.52124,-0.78613 0.20508,-0.44434 0.32471,-0.93995 0.12817,-0.4956 0.1709,-0.99975 0.0513,-0.5127 0.0598,-0.98267 l 0,-1.11084 z"
         style="font-size:17.5px"
         id="path4272"
         inkscape:connector-curvature="0" />
      <path
         d="m 249.40826,157.73332 -2.48658,0 0,5.07569 -1.57226,0 0,-12.44141 3.64868,0 q 0.87158,0.0171 1.64063,0.2478 0.76904,0.23072 1.34155,0.69214 0.58105,0.46143 0.90576,1.16211 0.33325,0.69214 0.33325,1.63208 0,0.60669 -0.17944,1.11084 -0.1709,0.50415 -0.47852,0.91431 -0.30761,0.41015 -0.73486,0.72632 -0.42725,0.31616 -0.93994,0.53833 l 2.64038,5.31494 -0.009,0.10254 -1.66626,0 -2.44384,-5.07569 z m -2.48658,-1.29883 2.11914,0 q 0.52979,-0.009 0.99976,-0.16235 0.46997,-0.16235 0.82031,-0.46143 0.35889,-0.29907 0.56397,-0.72631 0.20508,-0.43579 0.20508,-0.99976 0,-0.59814 -0.19654,-1.04248 -0.19653,-0.45288 -0.54687,-0.75195 -0.35034,-0.30762 -0.8374,-0.46143 -0.47852,-0.15381 -1.05103,-0.16235 l -2.07642,0 0,4.76806 z"
         style="font-size:17.5px"
         id="path4274"
         inkscape:connector-curvature="0" />
      <path
         d="m 262.294,159.66447 q 0,-0.57251 -0.26489,-0.96557 -0.25635,-0.39307 -0.66651,-0.65796 -0.41015,-0.27344 -0.90576,-0.45288 -0.48706,-0.17944 -0.93994,-0.32471 -0.65796,-0.21362 -1.34155,-0.51269 -0.67505,-0.29908 -1.23902,-0.73487 -0.55542,-0.43579 -0.9143,-1.02539 -0.35035,-0.59814 -0.35035,-1.40136 0,-0.80323 0.35035,-1.43555 0.35888,-0.63233 0.93139,-1.06812 0.57251,-0.43579 1.29883,-0.65796 0.72632,-0.23071 1.46118,-0.23071 0.81177,0 1.56372,0.27344 0.75196,0.26489 1.33301,0.75195 0.58106,0.48706 0.9314,1.1792 0.35034,0.69214 0.36743,1.54663 l -1.62354,0 q -0.0684,-0.53833 -0.26489,-0.97412 -0.19653,-0.44434 -0.52124,-0.7605 -0.32471,-0.31616 -0.77759,-0.48706 -0.44433,-0.17944 -1.0083,-0.17944 -0.45288,0 -0.88867,0.12817 -0.42725,0.12818 -0.76904,0.38452 -0.33325,0.25635 -0.53833,0.63233 -0.19654,0.37597 -0.19654,0.87158 0.009,0.53833 0.27344,0.91431 0.26489,0.36743 0.66651,0.62378 0.41015,0.25634 0.88012,0.42724 0.47852,0.1709 0.89722,0.29907 0.46143,0.14527 0.9314,0.33326 0.46997,0.17944 0.90576,0.4187 0.43579,0.23926 0.81177,0.53833 0.37597,0.29907 0.65795,0.68359 0.28199,0.37598 0.4358,0.8374 0.16235,0.45288 0.16235,1.0083 0,0.83741 -0.37598,1.46119 -0.36743,0.62378 -0.95703,1.04248 -0.5896,0.41015 -1.33301,0.62378 -0.74341,0.20507 -1.48681,0.20507 -0.82886,0 -1.62354,-0.25634 -0.79468,-0.25635 -1.427,-0.73487 -0.62378,-0.48706 -1.01685,-1.1792 -0.39306,-0.70068 -0.4187,-1.58935 l 1.61499,0 q 0.0769,0.58105 0.31616,1.03393 0.23926,0.44434 0.61524,0.7605 0.37598,0.30762 0.86304,0.46997 0.4956,0.15381 1.07666,0.15381 0.46142,0 0.90576,-0.11108 0.45288,-0.11963 0.80322,-0.35889 0.35034,-0.2478 0.57251,-0.61523 0.22217,-0.37598 0.22217,-0.88868 z"
         style="font-size:17.5px"
         id="path4276"
         inkscape:connector-curvature="0" />
      <path
         d="m 274.66705,151.7177 -3.84522,0 0,11.09131 -1.53809,0 0,-11.09131 -3.84521,0 0,-1.3501 9.22852,0 0,1.3501 z"
         style="font-size:17.5px"
         id="path4278"
         inkscape:connector-curvature="0" />
      <path
         d="m 284.57915,150.3676 0.0171,8.42529 q -0.0171,0.87158 -0.31616,1.63208 -0.29907,0.7605 -0.8374,1.33301 -0.53833,0.56397 -1.28174,0.89722 -0.74341,0.3247 -1.63208,0.3247 -0.90576,0 -1.64917,-0.3247 -0.74341,-0.32471 -1.27319,-0.88867 -0.52979,-0.57251 -0.82886,-1.33301 -0.29907,-0.76905 -0.30762,-1.64063 l 0.0171,-8.42529 1.50391,0 0.0342,8.42529 q 0.009,0.55542 0.1709,1.06812 0.1709,0.51269 0.47851,0.90576 0.31617,0.39307 0.77759,0.63232 0.46997,0.23926 1.07666,0.23926 0.60669,0 1.06812,-0.23071 0.46142,-0.23926 0.76904,-0.63233 0.31616,-0.40161 0.47852,-0.9143 0.16235,-0.5127 0.17944,-1.06812 l 0.0256,-8.42529 1.52954,0 z"
         style="font-size:17.5px"
         id="path4280"
         inkscape:connector-curvature="0" />
      <path
         d="m 290.98785,160.26262 2.93945,-9.89502 1.68335,0 -3.92212,12.44141 -1.37573,0 -3.93067,-12.44141 1.6919,0 2.91382,9.89502 z"
         style="font-size:17.5px"
         id="path4282"
         inkscape:connector-curvature="0" />
      <path
         d="m 303.92486,159.44231 0.94848,-9.07471 1.49537,0 -1.51246,12.44141 -1.61499,0 -1.5979,-9.37378 -1.61499,9.37378 -1.62353,0 -1.51245,-12.44141 1.5039,0 0.94849,9.07471 1.5979,-9.07471 1.37573,0 1.60645,9.07471 z"
         style="font-size:17.5px"
         id="path4284"
         inkscape:connector-curvature="0" />
      <path
         d="m 312.10235,155.24675 2.6831,-4.87915 1.8628,0 -3.61451,6.16943 3.69996,6.27198 -1.84571,0 -2.75146,-4.97315 -2.76001,4.97315 -1.87134,0 3.7085,-6.27198 -3.61451,-6.16943 1.85425,0 2.64893,4.87915 z"
         style="font-size:17.5px"
         id="path4286"
         inkscape:connector-curvature="0" />
      <path
         d="m 322.40752,156.61394 2.83692,-6.24634 1.79443,0 -3.87085,7.80151 -0.0256,4.6399 -1.46973,0 -0.0256,-4.6399 -3.87085,-7.80151 1.80297,0 2.82837,6.24634 z"
         style="font-size:17.5px"
         id="path4288"
         inkscape:connector-curvature="0" />
      <path
         d="m 330.5252,161.46745 6.44287,0 0,1.34156 -8.22876,0 -0.0171,-1.23047 6.19507,-9.86084 -6.08398,0 0,-1.3501 7.88696,0 0.0171,1.20483 -6.21216,9.89502 z"
         style="font-size:17.5px"
         id="path4290"
         inkscape:connector-curvature="0" />
      <path
         d="m 66.461479,179.97575 q 0,-0.99975 0.290528,-1.85424 0.290527,-0.86304 0.828857,-1.49537 0.546875,-0.63232 1.324463,-0.99121 0.777588,-0.36743 1.751709,-0.36743 0.982666,0 1.760254,0.36743 0.786133,0.35889 1.324463,0.99121 0.546875,0.63233 0.837402,1.49537 0.290527,0.85449 0.290527,1.85424 l 0,0.18799 q 0,0.99976 -0.290527,1.85425 -0.290527,0.85449 -0.837402,1.48682 -0.53833,0.63232 -1.315918,0.99121 -0.777588,0.35888 -1.751709,0.35888 -0.982666,0 -1.768799,-0.35888 -0.777588,-0.35889 -1.324463,-0.99121 -0.53833,-0.63233 -0.828857,-1.48682 -0.290528,-0.85449 -0.290528,-1.85425 l 0,-0.18799 z m 1.580811,0.18799 q 0,0.6836 0.162353,1.30738 0.162354,0.61523 0.487061,1.0852 0.333252,0.46997 0.828857,0.74341 0.495606,0.27344 1.153565,0.27344 0.649414,0 1.136474,-0.27344 0.495606,-0.27344 0.820313,-0.74341 0.333252,-0.46997 0.495605,-1.0852 0.162354,-0.62378 0.162354,-1.30738 l 0,-0.18799 q 0,-0.67505 -0.170899,-1.29028 -0.162353,-0.62378 -0.495605,-1.09375 -0.324707,-0.46997 -0.820313,-0.74341 -0.48706,-0.28198 -1.145019,-0.28198 -0.657959,0 -1.14502,0.28198 -0.48706,0.27344 -0.820312,0.74341 -0.324707,0.46997 -0.487061,1.09375 -0.162353,0.61523 -0.162353,1.29028 l 0,0.18799 z"
         style="font-size:17.5px"
         id="path4292"
         inkscape:connector-curvature="0" />
      <path
         d="m 85.49102,179.18108 q -0.0085,0.6665 -0.119629,1.35009 -0.102539,0.67505 -0.324707,1.30738 -0.222168,0.63232 -0.57251,1.1792 -0.341796,0.54687 -0.820312,0.95703 -0.478516,0.41015 -1.102295,0.64941 -0.615234,0.23071 -1.384277,0.23071 -0.769043,0 -1.392823,-0.23071 -0.615234,-0.23926 -1.09375,-0.64941 -0.478515,-0.41016 -0.828857,-0.95703 -0.350342,-0.55542 -0.581055,-1.18775 -0.222168,-0.63232 -0.333252,-1.30737 -0.111084,-0.67505 -0.119629,-1.34155 l 0,-1.41846 q 0.0085,-0.6665 0.111084,-1.34155 0.111084,-0.6836 0.333252,-1.31592 0.230713,-0.63233 0.57251,-1.1792 0.350342,-0.55542 0.828858,-0.96558 0.478515,-0.4187 1.09375,-0.64941 0.623779,-0.23926 1.392822,-0.23926 0.769043,0 1.392822,0.23926 0.623779,0.23071 1.102295,0.64087 0.478516,0.41015 0.820313,0.96557 0.350341,0.54688 0.572509,1.1792 0.230713,0.63233 0.333252,1.31592 0.111084,0.6836 0.119629,1.3501 l 0,1.41846 z m -1.563721,-1.43555 q -0.0085,-0.44434 -0.05981,-0.92285 -0.05127,-0.48706 -0.179443,-0.95703 -0.119629,-0.47852 -0.324707,-0.90577 -0.205078,-0.43579 -0.512696,-0.76049 -0.307617,-0.33326 -0.726318,-0.52124 -0.418701,-0.19654 -0.974121,-0.19654 -0.546875,0 -0.965576,0.19654 -0.418701,0.19653 -0.726319,0.52978 -0.307617,0.32471 -0.512695,0.7605 -0.205078,0.42725 -0.333252,0.90576 -0.119629,0.46997 -0.179443,0.95703 -0.05127,0.47852 -0.05982,0.91431 l 0,1.43555 q 0.0085,0.43579 0.05982,0.92285 0.05981,0.48706 0.187988,0.96557 0.128174,0.46997 0.333252,0.90577 0.205078,0.43579 0.512695,0.76904 0.307617,0.32471 0.726319,0.52124 0.418701,0.19653 0.974121,0.19653 0.55542,0 0.974121,-0.19653 0.427246,-0.19653 0.726318,-0.52124 0.307617,-0.33325 0.504151,-0.7605 0.205078,-0.43579 0.324707,-0.90576 0.128173,-0.47852 0.170898,-0.96558 0.05127,-0.48706 0.05981,-0.93139 l 0,-1.43555 z"
         style="font-size:17.5px"
         id="path4294"
         inkscape:connector-curvature="0" />
      <path
         d="m 95.702202,179.92448 q 0,1.18775 -0.273438,2.1106 -0.273437,0.91431 -0.786132,1.54663 -0.512696,0.62378 -1.256104,0.94849 -0.743408,0.3247 -1.700439,0.3247 -0.948487,0 -1.70044,-0.3247 -0.743408,-0.32471 -1.264648,-0.94849 -0.521241,-0.63232 -0.803223,-1.54663 -0.273437,-0.92285 -0.273437,-2.1106 l 0,-2.91381 q 0,-1.18775 0.273437,-2.10205 0.273438,-0.92286 0.786133,-1.55518 0.52124,-0.63232 1.264648,-0.95703 0.751953,-0.33325 1.70044,-0.33325 0.957031,0 1.700439,0.33325 0.751953,0.32471 1.264649,0.95703 0.52124,0.63232 0.794677,1.55518 0.273438,0.9143 0.273438,2.10205 l 0,2.91381 z m -6.468506,-0.31616 4.844971,-3.71704 q -0.136719,-1.23901 -0.726319,-1.87988 -0.581054,-0.64942 -1.683349,-0.64942 -1.247559,0 -1.845703,0.84595 -0.5896,0.8374 -0.5896,2.45239 l 0,2.948 z m 4.87915,-2.20459 -4.836425,3.69995 q 0.145263,1.20484 0.743408,1.83716 0.598144,0.63233 1.66626,0.63233 1.256103,0 1.837158,-0.8545 0.589599,-0.85449 0.589599,-2.46093 l 0,-2.85401 z"
         style="font-size:17.5px"
         id="path4296"
         inkscape:connector-curvature="0" />
      <path
         d="m 106.04156,175.48967 q -0.009,0.9314 -0.50415,1.65771 -0.49561,0.72632 -1.32447,1.13648 0.47852,0.20508 0.86304,0.51269 0.39307,0.29908 0.66651,0.69214 0.28198,0.39307 0.42724,0.8545 0.15381,0.46142 0.15381,0.98266 0,0.84595 -0.31616,1.50391 -0.30762,0.65796 -0.84595,1.11084 -0.52978,0.44433 -1.24756,0.68359 -0.71777,0.23071 -1.53808,0.23071 -0.83741,0 -1.56372,-0.23071 -0.71778,-0.23071 -1.256108,-0.67505 -0.529786,-0.45288 -0.837403,-1.11084 -0.307617,-0.65796 -0.307617,-1.51245 0,-0.52124 0.145264,-0.98266 0.145263,-0.46998 0.418701,-0.8545 0.273437,-0.39306 0.657959,-0.70068 0.384524,-0.30762 0.863034,-0.5127 -0.41015,-0.20507 -0.743405,-0.48706 -0.333252,-0.29052 -0.563965,-0.64087 -0.230713,-0.35888 -0.358887,-0.77758 -0.128174,-0.4187 -0.128174,-0.88013 0,-0.81177 0.273438,-1.44409 0.273437,-0.64087 0.751953,-1.07666 0.48706,-0.43579 1.15356,-0.66651 0.67505,-0.23071 1.46973,-0.23071 0.78613,0 1.46118,0.23071 0.67505,0.23072 1.17066,0.66651 0.4956,0.43579 0.77758,1.07666 0.28199,0.63232 0.28199,1.44409 z m -1.29883,5.802 q 0,-0.52124 -0.17944,-0.95703 -0.1709,-0.43579 -0.48706,-0.74341 -0.31617,-0.31616 -0.7605,-0.48706 -0.43579,-0.1709 -0.95703,-0.1709 -0.53833,0 -0.97413,0.1709 -0.43579,0.1709 -0.7434,0.48706 -0.30762,0.30762 -0.47852,0.74341 -0.16235,0.43579 -0.16235,0.95703 0,0.53833 0.16235,0.96558 0.1709,0.4187 0.47852,0.70923 0.30761,0.29052 0.7434,0.44433 0.44434,0.15381 0.99122,0.15381 0.52124,0 0.95703,-0.15381 0.43579,-0.15381 0.74341,-0.44433 0.31616,-0.29053 0.48706,-0.70923 0.17944,-0.42725 0.17944,-0.96558 z m -0.29053,-5.77637 q 0,-0.46997 -0.16235,-0.86303 -0.15381,-0.39307 -0.43579,-0.67505 -0.27344,-0.29053 -0.65796,-0.44434 -0.38452,-0.16235 -0.84595,-0.16235 -0.46142,0 -0.8374,0.15381 -0.37598,0.14526 -0.64942,0.42724 -0.27343,0.28199 -0.42724,0.6836 -0.14527,0.39306 -0.14527,0.88012 0,0.48707 0.14527,0.88013 0.15381,0.38452 0.42724,0.66651 0.28199,0.27343 0.65796,0.42724 0.38453,0.14527 0.84595,0.14527 0.45288,0 0.8374,-0.14527 0.38452,-0.15381 0.65796,-0.42724 0.28198,-0.28199 0.43579,-0.67505 0.15381,-0.39307 0.15381,-0.87159 z"
         style="font-size:17.5px"
         id="path4298"
         inkscape:connector-curvature="0" />
      <path
         d="m 119.61944,175.4384 4.72534,0 0,7.87842 3.01636,0 0,1.36719 -7.7417,0 0,-1.36719 3.14453,0 0,-6.50269 -3.14453,0 0,-1.37573 z m 2.93945,-2.42676 q 0,-0.39306 0.23071,-0.65796 0.23926,-0.27343 0.71778,-0.27343 0.46997,0 0.70923,0.27343 0.23925,0.2649 0.23925,0.65796 0,0.38452 -0.23925,0.64087 -0.23926,0.25635 -0.70923,0.25635 -0.47852,0 -0.71778,-0.25635 -0.23071,-0.25635 -0.23071,-0.64087 z"
         style="font-size:17.5px"
         id="path4300"
         inkscape:connector-curvature="0" />
      <path
         d="m 129.8648,172.2426 7.51953,0 0,1.37573 -2.98218,0 0,9.69849 2.98218,0 0,1.36719 -7.51953,0 0,-1.36719 2.91382,0 0,-9.69849 -2.91382,0 0,-1.37573 z"
         style="font-size:17.5px"
         id="path4302"
         inkscape:connector-curvature="0" />
      <path
         d="m 140.60577,171.55901 4.72534,0 0,11.75781 3.01636,0 0,1.36719 -7.7417,0 0,-1.36719 3.14453,0 0,-10.38208 -3.14453,0 0,-1.37573 z"
         style="font-size:17.5px"
         id="path4304"
         inkscape:connector-curvature="0" />
      <path
         d="m 152.63702,183.34245 6.08398,0 0,1.34156 -7.66479,0 0,-12.44141 1.58081,0 0,11.09985 z"
         style="font-size:17.5px"
         id="path4306"
         inkscape:connector-curvature="0" />
      <path
         d="m 166.47124,184.68401 -1.58081,0 0,-10.42481 -3.25561,1.23901 0,-1.44409 4.70825,-1.81152 0.12817,0 0,12.44141 z"
         style="font-size:17.5px"
         id="path4308"
         inkscape:connector-curvature="0" />
      <path
         d="m 189.20074,187.81145 q -0.55542,-0.0171 -1.0083,-0.18799 -0.45288,-0.1709 -0.81177,-0.46143 -0.35889,-0.29052 -0.62378,-0.67505 -0.25635,-0.38452 -0.43579,-0.82885 -0.1709,-0.43579 -0.25635,-0.90576 -0.0855,-0.46143 -0.0855,-0.91431 l 0,-1.44409 q 0,-1.23047 -0.5896,-1.78589 -0.58105,-0.55542 -1.78589,-0.56397 l 0,-1.23901 q 1.20484,0 1.78589,-0.54688 0.5896,-0.55542 0.5896,-1.79443 l 0,-1.45264 q 0,-0.45288 0.0769,-0.9143 0.0769,-0.46997 0.23925,-0.90576 0.16236,-0.44434 0.41016,-0.82886 0.25635,-0.38452 0.61523,-0.67505 0.35889,-0.29053 0.82032,-0.46143 0.46997,-0.17089 1.05957,-0.18798 l 0.17944,0.98266 q -0.61523,0.0171 -0.98267,0.29053 -0.35888,0.27344 -0.54687,0.70068 -0.17944,0.4187 -0.23071,0.94849 -0.0513,0.52978 -0.0513,1.05102 l 0,1.45264 q -0.009,1.02539 -0.47852,1.80298 -0.46997,0.76904 -1.46118,1.17065 0.99121,0.39307 1.46118,1.17066 0.46997,0.76904 0.47852,1.78589 l 0,1.44409 q 0,0.52978 0.0855,1.05102 0.0855,0.52979 0.29052,0.94849 0.21363,0.42725 0.55542,0.70068 0.35035,0.27344 0.88013,0.29053 l -0.17944,0.98267 z"
         style="font-size:17.5px"
         id="path4310"
         inkscape:connector-curvature="0" />
      <path
         d="m 194.09698,186.82878 q 0.52124,-0.0171 0.87158,-0.29053 0.35034,-0.27343 0.55542,-0.70068 0.21362,-0.4187 0.29907,-0.94849 0.094,-0.52124 0.094,-1.05102 l 0,-1.44409 q 0,-1.01685 0.46997,-1.78589 0.46997,-0.77759 1.46118,-1.17066 -0.99121,-0.40161 -1.46118,-1.17065 -0.46997,-0.77759 -0.46997,-1.80298 l 0,-1.45264 q 0,-0.52124 -0.0598,-1.05102 -0.0513,-0.52979 -0.23926,-0.94849 -0.17944,-0.42724 -0.53833,-0.70068 -0.35888,-0.27344 -0.97412,-0.29053 l 0.1709,-0.98266 q 0.5896,0.0171 1.05103,0.18798 0.46997,0.1709 0.82885,0.46143 0.35889,0.29053 0.60669,0.67505 0.25635,0.38452 0.4187,0.82886 0.16236,0.43579 0.23926,0.90576 0.0769,0.46142 0.0769,0.9143 l 0,1.45264 q 0,1.23901 0.5896,1.79443 0.5896,0.54688 1.78588,0.54688 l 0,1.23901 q -1.19628,0.009 -1.78588,0.56397 -0.5896,0.55542 -0.5896,1.78589 l 0,1.44409 q 0,0.68359 -0.18799,1.37573 -0.18799,0.70068 -0.5896,1.27319 -0.39307,0.57251 -0.99976,0.93995 -0.60669,0.36743 -1.44409,0.38452 l -0.17944,-0.98267 z"
         style="font-size:17.5px"
         id="path4312"
         inkscape:connector-curvature="0" />
      <path
         d="m 219.34722,171.76408 -1.88843,0 0,14.28711 1.88843,0 0,1.29883 -3.38379,0 0,-16.88476 3.38379,0 0,1.29882 z"
         style="font-size:17.5px"
         id="path4314"
         inkscape:connector-curvature="0" />
      <path
         d="m 226.27715,170.46526 3.39234,0 0,16.88476 -3.39234,0 0,-1.29883 1.89698,0 0,-14.28711 -1.89698,0 0,-1.29882 z"
         style="font-size:17.5px"
         id="path4316"
         inkscape:connector-curvature="0" />
      <path
         d="m 244.99908,179.9843 q 0,-1.03394 0.2478,-1.89697 0.25635,-0.87159 0.73486,-1.49537 0.47852,-0.62377 1.16211,-0.97412 0.6836,-0.35034 1.54663,-0.35034 0.8545,0 1.49536,0.30762 0.64942,0.29907 1.1023,0.87158 l 0.0769,-1.0083 1.43555,0 0,9.04907 q 0,0.91431 -0.29053,1.62354 -0.28198,0.70923 -0.80322,1.20483 -0.51269,0.49561 -1.23047,0.75195 -0.71777,0.25635 -1.58935,0.25635 -0.35889,0 -0.82032,-0.0855 -0.46142,-0.0769 -0.93994,-0.26489 -0.46997,-0.17944 -0.9143,-0.48706 -0.4358,-0.30762 -0.75196,-0.7605 l 0.82032,-0.94848 q 0.29052,0.35034 0.59814,0.5896 0.30762,0.2478 0.62378,0.39306 0.31616,0.14527 0.63232,0.20508 0.31617,0.0684 0.63233,0.0684 0.56396,0 1.01684,-0.16235 0.45288,-0.16236 0.76905,-0.47852 0.3247,-0.30762 0.4956,-0.76904 0.1709,-0.46143 0.1709,-1.05957 l 0,-0.79468 q -0.46143,0.52978 -1.09375,0.81177 -0.62378,0.27343 -1.45264,0.27343 -0.84594,0 -1.52954,-0.35888 -0.68359,-0.35889 -1.16211,-0.99121 -0.46997,-0.63233 -0.72632,-1.48682 -0.25634,-0.86304 -0.25634,-1.85425 l 0,-0.17944 z m 1.58081,0.17944 q 0,0.67505 0.13672,1.28174 0.14526,0.60669 0.44433,1.06812 0.30762,0.46142 0.77759,0.73486 0.46997,0.26489 1.12793,0.26489 0.41016,0 0.73486,-0.094 0.33325,-0.10254 0.5896,-0.28199 0.2649,-0.17944 0.46997,-0.42724 0.20508,-0.2478 0.35889,-0.54688 l 0,-4.23828 q -0.15381,-0.29052 -0.35889,-0.52978 -0.20507,-0.23926 -0.46997,-0.41016 -0.26489,-0.17944 -0.5896,-0.27344 -0.3247,-0.10254 -0.71777,-0.10254 -0.6665,0 -1.14502,0.27344 -0.46997,0.27344 -0.77759,0.74341 -0.29907,0.46143 -0.44433,1.07666 -0.13672,0.60669 -0.13672,1.28174 l 0,0.17944 z"
         style="font-size:17.5px"
         id="path4318"
         inkscape:connector-curvature="0" />
      <path
         d="m 257.48321,183.28264 q 0.84594,0 1.48681,-0.14527 0.64087,-0.1538 1.11084,-0.42724 0.47852,-0.27344 0.79468,-0.64087 0.31616,-0.37598 0.5127,-0.82031 0.20508,-0.45288 0.29907,-0.94849 0.094,-0.50415 0.11963,-1.02539 -0.20508,0.25635 -0.46997,0.48706 -0.2649,0.22217 -0.59815,0.39307 -0.33325,0.1709 -0.74341,0.27343 -0.40161,0.094 -0.88012,0.094 -0.92285,0 -1.5979,-0.35889 -0.66651,-0.36743 -1.1023,-0.95703 -0.43579,-0.5896 -0.64087,-1.33301 -0.20507,-0.74341 -0.20507,-1.49536 0,-0.88013 0.23925,-1.65771 0.24781,-0.78614 0.72632,-1.36719 0.48706,-0.5896 1.20484,-0.9314 0.72631,-0.35034 1.68334,-0.35034 0.71778,0 1.29029,0.20508 0.58105,0.19653 1.01684,0.55542 0.44434,0.35034 0.7605,0.8374 0.31616,0.47852 0.5127,1.04248 0.20508,0.55542 0.29907,1.17066 0.094,0.60669 0.094,1.22192 l 0,0.57251 q 0,0.79468 -0.0769,1.63208 -0.0769,0.82886 -0.30762,1.60645 -0.22217,0.77758 -0.63232,1.46972 -0.41016,0.6836 -1.06812,1.19629 -0.65796,0.5127 -1.5979,0.81177 -0.93994,0.29907 -2.23022,0.29907 l -0.16236,0 0,-1.40991 0.16236,0 z m 1.88843,-4.06738 q 0.40161,0 0.77758,-0.12818 0.38452,-0.13672 0.70069,-0.37597 0.3247,-0.24781 0.57251,-0.57251 0.25634,-0.33326 0.40161,-0.73487 l 0,-0.51269 q 0,-0.82886 -0.19654,-1.47827 -0.18798,-0.64942 -0.52124,-1.09375 -0.3247,-0.45289 -0.76049,-0.69214 -0.42725,-0.23926 -0.91431,-0.23926 -0.55542,0 -0.98267,0.22217 -0.42724,0.22216 -0.72631,0.61523 -0.29053,0.38452 -0.44434,0.92285 -0.15381,0.52979 -0.15381,1.14502 0,0.54688 0.13672,1.07666 0.13672,0.52124 0.41016,0.9314 0.28198,0.41016 0.70068,0.6665 0.42725,0.24781 0.99976,0.24781 z"
         style="font-size:17.5px"
         id="path4320"
         inkscape:connector-curvature="0" />
      <path
         d="m 265.9854,179.9843 q 0,-1.03394 0.24781,-1.89697 0.2478,-0.87159 0.72632,-1.49537 0.47851,-0.62377 1.17065,-0.97412 0.70068,-0.35034 1.58936,-0.35034 0.82031,0 1.44409,0.28198 0.63232,0.27344 1.09375,0.80323 l 0.0684,-0.91431 1.45263,0 0,12.80029 -1.58081,0 0,-4.39209 q -0.46142,0.48706 -1.07666,0.75196 -0.61523,0.25634 -1.41845,0.25634 -0.88013,0 -1.57227,-0.35888 -0.68359,-0.35889 -1.16211,-0.99121 -0.47851,-0.63233 -0.73486,-1.48682 -0.24781,-0.86304 -0.24781,-1.85425 l 0,-0.17944 z m 1.58082,0.17944 q 0,0.67505 0.14526,1.29029 0.15381,0.61523 0.46142,1.0852 0.30762,0.46997 0.77759,0.75195 0.47852,0.27344 1.13648,0.27344 0.7605,0 1.27319,-0.3418 0.5127,-0.34179 0.8374,-0.88867 l 0,-4.56299 q -0.16235,-0.26489 -0.37597,-0.47851 -0.20508,-0.22217 -0.46997,-0.38452 -0.25635,-0.16236 -0.57251,-0.24781 -0.30762,-0.094 -0.67505,-0.094 -0.65796,0 -1.13648,0.28198 -0.47851,0.28198 -0.79468,0.7605 -0.30761,0.46997 -0.46142,1.08521 -0.14526,0.61523 -0.14526,1.29028 l 0,0.17944 z"
         style="font-size:17.5px"
         id="path4322"
         inkscape:connector-curvature="0" />
      <path
         d="m 284.82696,180.94133 q -0.11109,0.86304 -0.44434,1.58936 -0.33325,0.71777 -0.87158,1.23901 -0.52979,0.51269 -1.26465,0.80322 -0.72632,0.28198 -1.62353,0.28198 -0.76905,0 -1.40137,-0.21362 -0.62378,-0.22217 -1.11939,-0.60669 -0.48706,-0.38452 -0.84594,-0.90576 -0.35034,-0.52124 -0.5896,-1.13647 -0.23072,-0.61524 -0.35034,-1.29029 -0.11109,-0.67505 -0.11963,-1.36719 l 0,-1.73461 q 0.009,-0.69214 0.11963,-1.36719 0.11962,-0.67505 0.35034,-1.29029 0.23926,-0.61523 0.5896,-1.13647 0.35888,-0.52978 0.84594,-0.91431 0.49561,-0.38452 1.11939,-0.59814 0.62378,-0.22217 1.40137,-0.22217 0.93139,0 1.66626,0.29053 0.73486,0.28198 1.26464,0.81177 0.52979,0.52124 0.84595,1.2561 0.32471,0.73486 0.42725,1.62353 l -1.58081,0 q -0.0769,-0.56396 -0.2649,-1.05102 -0.18798,-0.48706 -0.50415,-0.85449 -0.31616,-0.36743 -0.77758,-0.57251 -0.45288,-0.21363 -1.07666,-0.21363 -0.56397,0 -0.99976,0.18799 -0.42725,0.17945 -0.74341,0.49561 -0.30762,0.31616 -0.52124,0.73486 -0.20508,0.4187 -0.33325,0.88867 -0.12817,0.46997 -0.18799,0.96558 -0.0513,0.48706 -0.0513,0.94849 l 0,1.7517 q 0,0.46143 0.0513,0.95704 0.0598,0.48706 0.18799,0.96557 0.12817,0.46997 0.33325,0.88867 0.20508,0.41871 0.52124,0.74341 0.31616,0.31616 0.74341,0.50415 0.42725,0.17945 0.99976,0.17945 0.62378,0 1.07666,-0.19654 0.46142,-0.19653 0.77758,-0.54687 0.31617,-0.35889 0.50415,-0.8374 0.18799,-0.48707 0.2649,-1.05103 l 1.58081,0 z"
         style="font-size:17.5px"
         id="path4324"
         inkscape:connector-curvature="0" />
      <path
         d="m 295.31158,183.05193 q -0.78614,0.92285 -1.80298,1.36718 -1.01685,0.44434 -2.23023,0.43579 -0.76904,-0.009 -1.41845,-0.23071 -0.64087,-0.23071 -1.15357,-0.62378 -0.51269,-0.40161 -0.89721,-0.93994 -0.38453,-0.53833 -0.64942,-1.16211 -0.25635,-0.63232 -0.39307,-1.31592 -0.12817,-0.69214 -0.13671,-1.39282 l 0,-1.44409 q 0.009,-0.69214 0.11963,-1.37573 0.11962,-0.69214 0.35888,-1.32447 0.23926,-0.63232 0.59815,-1.17065 0.35888,-0.54688 0.85449,-0.93994 0.50415,-0.40161 1.13647,-0.63233 0.63233,-0.23071 1.41846,-0.23071 0.87158,0 1.60645,0.27344 0.73486,0.26489 1.28173,0.76904 0.54688,0.49561 0.88013,1.20484 0.33325,0.70068 0.41016,1.57226 l -1.56372,0 q -0.094,-0.53833 -0.29053,-0.99121 -0.19653,-0.46143 -0.52124,-0.78613 -0.31616,-0.32471 -0.7605,-0.50415 -0.44434,-0.18799 -1.03393,-0.18799 -0.56397,0 -0.99976,0.19653 -0.43579,0.18799 -0.7605,0.5127 -0.32471,0.3247 -0.53833,0.7605 -0.21362,0.42724 -0.35034,0.90576 -0.13672,0.47851 -0.19653,0.97412 -0.0598,0.4956 -0.0598,0.95703 l 0,1.46118 q 0.009,0.46997 0.0769,0.97412 0.0769,0.49561 0.23071,0.97412 0.15381,0.47852 0.39307,0.90576 0.23925,0.42725 0.57251,0.75196 0.34179,0.32471 0.78613,0.52124 0.44433,0.18799 1.0083,0.19653 0.32471,0.009 0.67505,-0.0256 0.35888,-0.0342 0.69214,-0.13672 0.33325,-0.10254 0.62378,-0.27344 0.29052,-0.17944 0.48706,-0.46143 l 0.0171,-2.79418 -2.5293,0 0,-1.33301 4.0332,0 0.0256,4.56299 z"
         style="font-size:17.5px"
         id="path4326"
         inkscape:connector-curvature="0" />
      <path
         d="m 305.95855,179.01872 q -0.009,0.69214 -0.11963,1.39282 -0.11108,0.70069 -0.3418,1.3501 -0.22216,0.64942 -0.58105,1.22193 -0.35034,0.56396 -0.84595,0.98266 l 2.14478,1.78589 -1.08521,1.03394 -2.46094,-2.08496 q -0.52978,0.1538 -1.14501,0.1538 -0.79468,0 -1.42701,-0.23925 -0.63232,-0.24781 -1.12793,-0.66651 -0.48706,-0.4187 -0.84594,-0.98266 -0.35889,-0.57251 -0.5896,-1.22193 -0.23072,-0.64941 -0.3418,-1.34155 -0.11108,-0.70068 -0.11963,-1.38428 l 0,-1.09375 q 0.009,-0.68359 0.11963,-1.38427 0.11108,-0.70069 0.3418,-1.3501 0.23071,-0.64942 0.58105,-1.21338 0.35034,-0.57251 0.8374,-0.99121 0.49561,-0.42725 1.12793,-0.66651 0.64087,-0.2478 1.43555,-0.2478 0.79468,0 1.427,0.2478 0.64087,0.23926 1.12793,0.65796 0.49561,0.4187 0.84595,0.99121 0.35889,0.56397 0.58105,1.21338 0.23072,0.64942 0.3418,1.35865 0.11108,0.70068 0.11963,1.38427 l 0,1.09375 z m -1.57227,-1.11084 q -0.009,-0.46997 -0.0598,-0.97412 -0.0427,-0.51269 -0.1709,-0.99975 -0.11963,-0.49561 -0.33325,-0.93995 -0.20508,-0.44433 -0.52124,-0.77758 -0.31616,-0.3418 -0.7605,-0.53833 -0.43579,-0.19654 -1.02539,-0.19654 -0.58105,0 -1.01685,0.20508 -0.43579,0.19653 -0.75195,0.53833 -0.31616,0.33325 -0.52978,0.77759 -0.20508,0.44434 -0.33326,0.93994 -0.12817,0.48706 -0.18798,0.99976 -0.0513,0.50415 -0.0513,0.96557 l 0,1.11084 q 0,0.46143 0.0513,0.97412 0.0598,0.50415 0.18798,0.99976 0.12818,0.4956 0.33326,0.93994 0.21362,0.44434 0.52978,0.78613 0.31616,0.3418 0.75195,0.54688 0.44434,0.19653 1.0254,0.19653 0.58959,0 1.02539,-0.19653 0.44433,-0.20508 0.76049,-0.53833 0.31617,-0.3418 0.52124,-0.78613 0.20508,-0.44434 0.32471,-0.93995 0.12817,-0.4956 0.1709,-0.99975 0.0513,-0.5127 0.0598,-0.98267 l 0,-1.11084 z"
         style="font-size:17.5px"
         id="path4328"
         inkscape:connector-curvature="0" />
      <path
         d="m 327.33794,178.36076 q 0,0.56397 -0.18798,1.08521 -0.18799,0.52124 -0.52979,0.92285 -0.3418,0.40161 -0.81177,0.64087 -0.46997,0.23926 -1.04248,0.23926 -0.40161,0 -0.75195,-0.0769 -0.3418,-0.0769 -0.67505,-0.23071 -0.32471,-0.15381 -0.64941,-0.37598 -0.31617,-0.22216 -0.65796,-0.51269 -0.46997,-0.38452 -0.89722,-0.60669 -0.42725,-0.23071 -0.90576,-0.22217 -0.29907,0 -0.56397,0.12817 -0.25634,0.11963 -0.44433,0.33326 -0.18799,0.20507 -0.29907,0.4956 -0.11109,0.28198 -0.11109,0.60669 l -1.14502,-0.14526 q 0,-0.56397 0.18799,-1.07666 0.18799,-0.5127 0.52124,-0.89722 0.3418,-0.38452 0.81177,-0.60669 0.46997,-0.23071 1.04248,-0.23071 0.39307,0 0.74341,0.0854 0.35888,0.0769 0.69214,0.23071 0.33325,0.15381 0.64941,0.37598 0.32471,0.22217 0.65796,0.4956 0.48706,0.41016 0.89722,0.63233 0.4187,0.21362 0.89721,0.20507 0.29907,0 0.55542,-0.13671 0.2649,-0.13672 0.45288,-0.35889 0.19654,-0.23071 0.30762,-0.52979 0.11108,-0.29907 0.11108,-0.62378 l 1.14502,0.15381 z"
         style="font-size:17.5px"
         id="path4330"
         inkscape:connector-curvature="0" />
      <path
         d="m 336.14776,179.8903 -6.53687,0 0,-1.29882 6.53687,0 0,1.29882 z"
         style="font-size:17.5px"
         id="path4332"
         inkscape:connector-curvature="0" />
      <path
         d="m 344.34234,178.01042 3.47778,0 0,1.57227 -3.47778,0 0,3.85376 -1.58081,0 0,-3.85376 -3.46924,0 0,-1.57227 3.46924,0 0,-3.63159 1.58081,0 0,3.63159 z"
         style="font-size:17.5px"
         id="path4334"
         inkscape:connector-curvature="0" />
      <path
         d="m 357.87749,178.01897 -7.63061,0 0,-1.37574 7.63061,0 0,1.37574 z m 0,3.54614 -7.63061,0 0,-1.36719 7.63061,0 0,1.36719 z"
         style="font-size:17.5px"
         id="path4336"
         inkscape:connector-curvature="0" />
      <path
         d="m 360.78277,176.91667 0,-1.63208 7.54516,3.22998 0,1.24756 -7.54516,3.23853 0,-1.64063 5.52856,-2.08496 0.5127,-0.14526 -0.5127,-0.16236 -5.52856,-2.05078 z"
         style="font-size:17.5px"
         id="path4338"
         inkscape:connector-curvature="0" />
    </g>
  </g>
</svg>
