<?xml version="1.0" encoding="UTF-8" standalone="no"?>
<svg
   version="1.1"
   id="svg2"
   viewBox="0 0 325.42115 108.01513"
   height="30.48427mm"
   width="91.84108mm"
   sodipodi:docname="RobotoMono Nerd Font.svg"
   inkscape:version="1.1.2 (0a00cf5339, 2022-02-04)"
   xmlns:inkscape="http://www.inkscape.org/namespaces/inkscape"
   xmlns:sodipodi="http://sodipodi.sourceforge.net/DTD/sodipodi-0.dtd"
   xmlns="http://www.w3.org/2000/svg"
   xmlns:svg="http://www.w3.org/2000/svg"
   xmlns:rdf="http://www.w3.org/1999/02/22-rdf-syntax-ns#"
   xmlns:cc="http://creativecommons.org/ns#"
   xmlns:dc="http://purl.org/dc/elements/1.1/">
  <sodipodi:namedview
     id="namedview12"
     pagecolor="#ffffff"
     bordercolor="#666666"
     borderopacity="1.0"
     inkscape:pageshadow="2"
     inkscape:pageopacity="0.0"
     inkscape:pagecheckerboard="0"
     inkscape:document-units="mm"
     showgrid="false"
     inkscape:zoom="0.64052329"
     inkscape:cx="327.07632"
     inkscape:cy="475.39255"
     inkscape:window-width="1458"
     inkscape:window-height="976"
     inkscape:window-x="0"
     inkscape:window-y="32"
     inkscape:window-maximized="0"
     inkscape:current-layer="svg2" />
  <defs
     id="defs4" />
  <metadata
     id="metadata7">
    <rdf:RDF>
      <cc:Work
         rdf:about="">
        <dc:format>image/svg+xml</dc:format>
        <dc:type
           rdf:resource="http://purl.org/dc/dcmitype/StillImage" />
      </cc:Work>
    </rdf:RDF>
  </metadata>
  <g
     id="layer1"
     transform="translate(-65.287563,-80.308632)">
    <g
       aria-label="RobotoMono Nerd Font"
       id="text4136"
       style="font-size:27.5px;line-height:125%;font-family:'RobotoMono Nerd Font';text-decoration:underline;text-decoration-line:underline;letter-spacing:0px;word-spacing:0px;fill:#ffffff;stroke-width:1px">
      <path
         d="M 71.665737,92.957558 H 67.758266 V 100.93363 H 65.287563 V 81.382851 H 71.021206 Q 72.390835,81.409706 73.599331,81.772255 74.807827,82.134804 75.707485,82.859901 76.620571,83.584999 77.130825,84.686073 77.654507,85.77372 77.654507,87.250771 77.654507,88.20414 77.372524,88.996376 77.10397,89.788612 76.620571,90.433144 76.137173,91.077675 75.465786,91.574501 74.794399,92.071327 73.988735,92.420448 L 78.137905,100.7725 78.124477,100.93363 H 75.506069 Z M 67.758266,90.916542 H 71.088345 Q 71.920864,90.903114 72.659389,90.661415 73.397915,90.406288 73.948452,89.936317 74.512417,89.466347 74.834682,88.79496 75.156948,88.110146 75.156948,87.223915 75.156948,86.283974 74.84811,85.585732 74.539272,84.874062 73.988735,84.404091 73.438198,83.920692 72.672817,83.678993 71.920864,83.437294 71.021206,83.423866 H 67.758266 Z"
         id="path829" />
      <path
         d="M 80.998013,93.53495 Q 80.998013,91.963905 81.454556,90.621132 81.911098,89.264931 82.757046,88.271278 83.616421,87.277626 84.838345,86.713661 86.060268,86.136269 87.59103,86.136269 89.13522,86.136269 90.357143,86.713661 91.592495,87.277626 92.438442,88.271278 93.297817,89.264931 93.75436,90.621132 94.210903,91.963905 94.210903,93.53495 V 93.83036 Q 94.210903,95.401405 93.75436,96.744179 93.297817,98.086952 92.438442,99.080605 91.592495,100.07426 90.370571,100.63822 89.148647,101.20219 87.617886,101.20219 86.073696,101.20219 84.838345,100.63822 83.616421,100.07426 82.757046,99.080605 81.911098,98.086952 81.454556,96.744179 80.998013,95.401405 80.998013,93.83036 Z M 83.482143,93.83036 Q 83.482143,94.904579 83.73727,95.884804 83.992397,96.851601 84.502651,97.590126 85.026333,98.328651 85.805141,98.758339 86.58395,99.188026 87.617886,99.188026 88.638393,99.188026 89.403774,98.758339 90.182583,98.328651 90.692837,97.590126 91.216518,96.851601 91.471645,95.884804 91.726772,94.904579 91.726772,93.83036 V 93.53495 Q 91.726772,92.474159 91.458218,91.507362 91.203091,90.527138 90.679409,89.788612 90.169155,89.050087 89.390347,88.620399 88.624966,88.177284 87.59103,88.177284 86.557095,88.177284 85.791714,88.620399 85.026333,89.050087 84.502651,89.788612 83.992397,90.527138 83.73727,91.507362 83.482143,92.474159 83.482143,93.53495 Z"
         id="path831" />
      <path
         d="M 110.51217,93.83036 Q 110.51217,95.387978 110.1362,96.744179 109.76022,98.086952 109.03512,99.080605 108.31002,100.07426 107.23581,100.63822 106.17501,101.20219 104.79196,101.20219 103.39547,101.20219 102.36154,100.70536 101.34103,100.20853 100.61593,99.282021 L 100.49508,100.93363 H 98.212368 V 80.308632 H 100.6965 V 87.96244 Q 101.40817,87.07621 102.41525,86.606239 103.42233,86.136269 104.7651,86.136269 106.16159,86.136269 107.23581,86.686806 108.31002,87.237343 109.03512,88.217567 109.76022,89.197792 110.1362,90.567421 110.51217,91.923622 110.51217,93.548378 Z M 108.02804,93.548378 Q 108.02804,92.487587 107.8132,91.534218 107.61178,90.567421 107.15524,89.842323 106.6987,89.103798 105.96017,88.67411 105.22165,88.244423 104.14743,88.244423 103.5029,88.244423 102.96579,88.418983 102.42868,88.580116 101.99899,88.888954 101.58273,89.184364 101.24704,89.600624 100.92477,90.003456 100.6965,90.486855 V 96.838173 Q 100.9382,97.321571 101.26046,97.737831 101.59616,98.140663 102.02584,98.449501 102.45553,98.758339 102.99264,98.932899 103.52975,99.094032 104.17428,99.094032 105.19479,99.094032 105.91989,98.677773 106.65841,98.248085 107.11496,97.522987 107.58493,96.79789 107.79977,95.844521 108.02804,94.891151 108.02804,93.83036 Z"
         id="path833" />
      <path
         d="M 114.00338,93.53495 Q 114.00338,91.963905 114.45993,90.621132 114.91647,89.264931 115.76242,88.271278 116.62179,87.277626 117.84372,86.713661 119.06564,86.136269 120.5964,86.136269 122.14059,86.136269 123.36251,86.713661 124.59787,87.277626 125.44381,88.271278 126.30319,89.264931 126.75973,90.621132 127.21627,91.963905 127.21627,93.53495 V 93.83036 Q 127.21627,95.401405 126.75973,96.744179 126.30319,98.086952 125.44381,99.080605 124.59787,100.07426 123.37594,100.63822 122.15402,101.20219 120.62326,101.20219 119.07907,101.20219 117.84372,100.63822 116.62179,100.07426 115.76242,99.080605 114.91647,98.086952 114.45993,96.744179 114.00338,95.401405 114.00338,93.83036 Z M 116.48751,93.83036 Q 116.48751,94.904579 116.74264,95.884804 116.99777,96.851601 117.50802,97.590126 118.0317,98.328651 118.81051,98.758339 119.58932,99.188026 120.62326,99.188026 121.64376,99.188026 122.40915,98.758339 123.18795,98.328651 123.69821,97.590126 124.22189,96.851601 124.47702,95.884804 124.73214,94.904579 124.73214,93.83036 V 93.53495 Q 124.73214,92.474159 124.46359,91.507362 124.20846,90.527138 123.68478,89.788612 123.17453,89.050087 122.39572,88.620399 121.63034,88.177284 120.5964,88.177284 119.56247,88.177284 118.79708,88.620399 118.0317,89.050087 117.50802,89.788612 116.99777,90.527138 116.74264,91.507362 116.48751,92.474159 116.48751,93.53495 Z"
         id="path835" />
      <path
         d="M 137.08566,82.886757 V 86.404823 H 142.61789 V 88.324989 H 137.08566 V 96.220497 Q 137.08566,97.066444 137.3005,97.616982 137.51535,98.167519 137.89132,98.503212 138.2673,98.825478 138.7507,98.959755 139.24752,99.094032 139.79806,99.094032 140.20089,99.094032 140.63058,99.053749 141.06027,99.000038 141.4631,98.932899 141.87936,98.865761 142.22848,98.798622 142.59103,98.718056 142.8193,98.664345 L 143.16842,100.42338 Q 142.85958,100.61137 142.41647,100.75907 141.97335,100.89335 141.44967,100.98734 140.92599,101.09476 140.33517,101.14848 139.75778,101.20219 139.18039,101.20219 138.21359,101.20219 137.36764,100.93363 136.53512,100.65165 135.91745,100.06083 135.29977,99.456581 134.93722,98.51664 134.5881,97.563271 134.5881,96.220497 V 88.324989 H 130.77462 V 86.404823 H 134.5881 V 82.886757 Z"
         id="path837" />
      <path
         d="M 147.00875,93.53495 Q 147.00875,91.963905 147.4653,90.621132 147.92184,89.264931 148.76779,88.271278 149.62716,87.277626 150.84909,86.713661 152.07101,86.136269 153.60177,86.136269 155.14596,86.136269 156.36789,86.713661 157.60324,87.277626 158.44918,88.271278 159.30856,89.264931 159.7651,90.621132 160.22165,91.963905 160.22165,93.53495 V 93.83036 Q 160.22165,95.401405 159.7651,96.744179 159.30856,98.086952 158.44918,99.080605 157.60324,100.07426 156.38131,100.63822 155.15939,101.20219 153.62863,101.20219 152.08444,101.20219 150.84909,100.63822 149.62716,100.07426 148.76779,99.080605 147.92184,98.086952 147.4653,96.744179 147.00875,95.401405 147.00875,93.83036 Z M 149.49289,93.83036 Q 149.49289,94.904579 149.74801,95.884804 150.00314,96.851601 150.51339,97.590126 151.03708,98.328651 151.81588,98.758339 152.59469,99.188026 153.62863,99.188026 154.64914,99.188026 155.41452,98.758339 156.19333,98.328651 156.70358,97.590126 157.22726,96.851601 157.48239,95.884804 157.73751,94.904579 157.73751,93.83036 V 93.53495 Q 157.73751,92.474159 157.46896,91.507362 157.21383,90.527138 156.69015,89.788612 156.1799,89.050087 155.40109,88.620399 154.63571,88.177284 153.60177,88.177284 152.56784,88.177284 151.80246,88.620399 151.03708,89.050087 150.51339,89.788612 150.00314,90.527138 149.74801,91.507362 149.49289,92.474159 149.49289,93.53495 Z"
         id="path839" />
      <path
         d="M 166.93551,81.382851 170.11789,91.158241 173.55539,81.382851 H 176.64376 V 100.93363 H 174.22677 V 93.132118 L 174.42819,84.968056 170.81613,95.495399 H 169.39279 L 166.07614,85.250038 166.27755,93.132118 V 100.93363 H 163.86056 V 81.382851 Z"
         id="path841" />
      <path
         d="M 180.01413,93.53495 Q 180.01413,91.963905 180.47067,90.621132 180.92721,89.264931 181.77316,88.271278 182.63253,87.277626 183.85446,86.713661 185.07638,86.136269 186.60714,86.136269 188.15133,86.136269 189.37326,86.713661 190.60861,87.277626 191.45456,88.271278 192.31393,89.264931 192.77047,90.621132 193.22702,91.963905 193.22702,93.53495 V 93.83036 Q 193.22702,95.401405 192.77047,96.744179 192.31393,98.086952 191.45456,99.080605 190.60861,100.07426 189.38668,100.63822 188.16476,101.20219 186.634,101.20219 185.08981,101.20219 183.85446,100.63822 182.63253,100.07426 181.77316,99.080605 180.92721,98.086952 180.47067,96.744179 180.01413,95.401405 180.01413,93.83036 Z M 182.49826,93.83036 Q 182.49826,94.904579 182.75338,95.884804 183.00851,96.851601 183.51876,97.590126 184.04245,98.328651 184.82125,98.758339 185.60006,99.188026 186.634,99.188026 187.65451,99.188026 188.41989,98.758339 189.1987,98.328651 189.70895,97.590126 190.23263,96.851601 190.48776,95.884804 190.74289,94.904579 190.74289,93.83036 V 93.53495 Q 190.74289,92.474159 190.47433,91.507362 190.2192,90.527138 189.69552,89.788612 189.18527,89.050087 188.40646,88.620399 187.64108,88.177284 186.60714,88.177284 185.57321,88.177284 184.80783,88.620399 184.04245,89.050087 183.51876,89.788612 183.00851,90.527138 182.75338,91.507362 182.49826,92.474159 182.49826,93.53495 Z"
         id="path843" />
      <path
         d="M 199.44406,86.404823 199.61862,88.553261 Q 200.41085,87.425331 201.56564,86.794228 202.72042,86.149696 204.14376,86.136269 205.28512,86.136269 206.21164,86.458534 207.15158,86.7808 207.80954,87.465614 208.46749,88.150429 208.81662,89.21122 209.17916,90.258583 209.17916,91.708778 V 100.93363 H 206.69503 V 91.762489 Q 206.69503,90.795692 206.48019,90.124306 206.26535,89.452919 205.83566,89.036659 205.4194,88.620399 204.80172,88.432411 204.19748,88.244423 203.40524,88.244423 202.15646,88.244423 201.20309,88.875526 200.26315,89.493202 199.69918,90.51371 V 100.93363 H 197.21505 V 86.404823 Z"
         id="path845" />
      <path
         d="M 213.0195,93.53495 Q 213.0195,91.963905 213.47604,90.621132 213.93258,89.264931 214.77853,88.271278 215.63791,87.277626 216.85983,86.713661 218.08175,86.136269 219.61251,86.136269 221.1567,86.136269 222.37863,86.713661 223.61398,87.277626 224.45993,88.271278 225.3193,89.264931 225.77584,90.621132 226.23239,91.963905 226.23239,93.53495 V 93.83036 Q 226.23239,95.401405 225.77584,96.744179 225.3193,98.086952 224.45993,99.080605 223.61398,100.07426 222.39206,100.63822 221.17013,101.20219 219.63937,101.20219 218.09518,101.20219 216.85983,100.63822 215.63791,100.07426 214.77853,99.080605 213.93258,98.086952 213.47604,96.744179 213.0195,95.401405 213.0195,93.83036 Z M 215.50363,93.83036 Q 215.50363,94.904579 215.75875,95.884804 216.01388,96.851601 216.52414,97.590126 217.04782,98.328651 217.82663,98.758339 218.60543,99.188026 219.63937,99.188026 220.65988,99.188026 221.42526,98.758339 222.20407,98.328651 222.71432,97.590126 223.238,96.851601 223.49313,95.884804 223.74826,94.904579 223.74826,93.83036 V 93.53495 Q 223.74826,92.474159 223.4797,91.507362 223.22458,90.527138 222.70089,89.788612 222.19064,89.050087 221.41183,88.620399 220.64645,88.177284 219.61251,88.177284 218.57858,88.177284 217.8132,88.620399 217.04782,89.050087 216.52414,89.788612 216.01388,90.527138 215.75875,91.507362 215.50363,92.474159 215.50363,93.53495 Z"
         id="path847" />
      <path
         d="M 258.9692,100.93363 H 256.44479 L 248.85812,86.324257 248.81784,100.93363 H 246.30685 V 81.382851 H 248.83126 L 256.41793,95.96537 256.45822,81.382851 H 258.9692 Z"
         id="path849" />
      <path
         d="M 269.64425,101.20219 Q 268.11349,101.20219 266.82443,100.6785 265.54879,100.15482 264.63571,99.214882 263.72262,98.27494 263.21237,96.985878 262.70211,95.696815 262.70211,94.179482 V 93.615517 Q 262.70211,91.856483 263.26608,90.473427 263.83004,89.076942 264.75656,88.123573 265.6965,87.156776 266.87814,86.646523 268.07321,86.136269 269.32199,86.136269 270.89303,86.136269 272.06124,86.686806 273.24289,87.223915 274.02169,88.190712 274.8005,89.144081 275.17648,90.446571 275.56588,91.749062 275.56588,93.266396 V 94.380898 H 265.18624 Q 265.22653,95.37455 265.56222,96.247353 265.91134,97.120155 266.50216,97.778114 267.10641,98.422646 267.93893,98.798622 268.77145,99.174599 269.77853,99.174599 271.10788,99.174599 272.14181,98.637489 273.17575,98.10038 273.86056,97.214149 L 275.3779,98.39579 Q 275.01535,98.946327 274.46481,99.456581 273.9277,99.953407 273.21603,100.34281 272.50436,100.73222 271.6047,100.96049 270.70504,101.20219 269.64425,101.20219 Z M 269.32199,88.177284 Q 268.57003,88.177284 267.89865,88.459267 267.22726,88.727821 266.69015,89.264931 266.15304,89.788612 265.77707,90.567421 265.41452,91.332802 265.26681,92.339882 H 273.08175 V 92.151894 Q 273.04147,91.426796 272.79977,90.715126 272.5715,90.003456 272.11496,89.439491 271.65841,88.875526 270.96017,88.526405 270.27536,88.177284 269.32199,88.177284 Z"
         id="path851" />
      <path
         d="M 289.24874,86.136269 Q 289.59787,86.136269 289.97384,86.163124 290.34982,86.176552 290.68551,86.230263 291.03463,86.270546 291.31662,86.337685 291.61203,86.404823 291.80001,86.48539 L 291.46432,88.91581 Q 290.73922,88.754677 290.08126,88.687538 289.43673,88.606972 288.72506,88.606972 286.97946,88.606972 285.89181,89.399208 284.81759,90.191444 284.30734,91.614784 V 100.93363 H 281.80978 V 86.404823 H 284.17306 L 284.29391,88.714394 Q 285.18014,87.519325 286.41549,86.834511 287.66427,86.136269 289.24874,86.136269 Z"
         id="path853" />
      <path
         d="M 295.7612,93.548378 Q 295.7612,91.923622 296.16403,90.567421 296.58029,89.197792 297.33224,88.217567 298.09762,87.237343 299.17184,86.686806 300.24606,86.136269 301.57541,86.136269 302.8779,86.136269 303.84469,86.579384 304.82492,87.009071 305.53659,87.841591 V 80.308632 H 308.02072 V 100.93363 H 305.738 L 305.63058,99.40287 Q 304.90548,100.2891 303.8984,100.74564 302.89132,101.20219 301.54855,101.20219 300.23263,101.20219 299.15841,100.63822 298.09762,100.07426 297.34567,99.080605 296.59372,98.086952 296.17746,96.744179 295.7612,95.387978 295.7612,93.83036 Z M 298.24533,93.83036 Q 298.24533,94.891151 298.4736,95.844521 298.70187,96.79789 299.17184,97.522987 299.65524,98.248085 300.39376,98.677773 301.13229,99.094032 302.16623,99.094032 302.79733,99.094032 303.30758,98.946327 303.81784,98.798622 304.2341,98.530067 304.65036,98.248085 304.97262,97.872108 305.29489,97.482704 305.53659,97.012733 V 90.272011 Q 305.05319,89.38578 304.2341,88.821815 303.415,88.244423 302.19308,88.244423 301.14572,88.244423 300.39376,88.67411 299.65524,89.103798 299.17184,89.842323 298.70187,90.567421 298.4736,91.534218 298.24533,92.487587 298.24533,93.548378 Z"
         id="path855" />
      <path
         d="M 340.113,92.299599 H 331.9758 V 100.93363 H 329.46481 V 81.382851 H 341.4692 V 83.504433 H 331.9758 V 90.191444 H 340.113 Z"
         id="path857" />
      <path
         d="M 345.04098,93.53495 Q 345.04098,91.963905 345.49752,90.621132 345.95407,89.264931 346.80001,88.271278 347.65939,87.277626 348.88131,86.713661 350.10324,86.136269 351.634,86.136269 353.17819,86.136269 354.40011,86.713661 355.63546,87.277626 356.48141,88.271278 357.34079,89.264931 357.79733,90.621132 358.25387,91.963905 358.25387,93.53495 V 93.83036 Q 358.25387,95.401405 357.79733,96.744179 357.34079,98.086952 356.48141,99.080605 355.63546,100.07426 354.41354,100.63822 353.19162,101.20219 351.66085,101.20219 350.11666,101.20219 348.88131,100.63822 347.65939,100.07426 346.80001,99.080605 345.95407,98.086952 345.49752,96.744179 345.04098,95.401405 345.04098,93.83036 Z M 347.52511,93.83036 Q 347.52511,94.904579 347.78024,95.884804 348.03537,96.851601 348.54562,97.590126 349.0693,98.328651 349.84811,98.758339 350.62692,99.188026 351.66085,99.188026 352.68136,99.188026 353.44674,98.758339 354.22555,98.328651 354.73581,97.590126 355.25949,96.851601 355.51461,95.884804 355.76974,94.904579 355.76974,93.83036 V 93.53495 Q 355.76974,92.474159 355.50119,91.507362 355.24606,90.527138 354.72238,89.788612 354.21212,89.050087 353.43332,88.620399 352.66793,88.177284 351.634,88.177284 350.60006,88.177284 349.83468,88.620399 349.0693,89.050087 348.54562,89.788612 348.03537,90.527138 347.78024,91.507362 347.52511,92.474159 347.52511,93.53495 Z"
         id="path859" />
      <path
         d="M 364.47091,86.404823 364.64547,88.553261 Q 365.43771,87.425331 366.59249,86.794228 367.74728,86.149696 369.17062,86.136269 370.31198,86.136269 371.23849,86.458534 372.17843,86.7808 372.83639,87.465614 373.49435,88.150429 373.84347,89.21122 374.20602,90.258583 374.20602,91.708778 V 100.93363 H 371.72189 V 91.762489 Q 371.72189,90.795692 371.50705,90.124306 371.2922,89.452919 370.86251,89.036659 370.44625,88.620399 369.82858,88.432411 369.22433,88.244423 368.43209,88.244423 367.18332,88.244423 366.22995,88.875526 365.29,89.493202 364.72604,90.51371 V 100.93363 H 362.24191 V 86.404823 Z"
         id="path861" />
      <path
         d="M 384.62594,82.886757 V 86.404823 H 390.15817 V 88.324989 H 384.62594 V 96.220497 Q 384.62594,97.066444 384.84079,97.616982 385.05563,98.167519 385.43161,98.503212 385.80758,98.825478 386.29098,98.959755 386.78781,99.094032 387.33834,99.094032 387.74118,99.094032 388.17086,99.053749 388.60055,99.000038 389.00338,98.932899 389.41964,98.865761 389.76876,98.798622 390.13131,98.718056 390.35958,98.664345 L 390.70871,100.42338 Q 390.39987,100.61137 389.95675,100.75907 389.51364,100.89335 388.98996,100.98734 388.46627,101.09476 387.87545,101.14848 387.29806,101.20219 386.72067,101.20219 385.75387,101.20219 384.90792,100.93363 384.07541,100.65165 383.45773,100.06083 382.84005,99.456581 382.4775,98.51664 382.12838,97.563271 382.12838,96.220497 V 88.324989 H 378.31491 V 86.404823 H 382.12838 V 82.886757 Z"
         id="path863" />
    </g>
    <g
       aria-label="abcdefghijklmnopqrstuvwxyzABCDEFGHIJKLMNOPQRSTUVWXYZ oO08 iIlL1 {} [] g9qCGQ ~-+=&gt;"
       id="text4140"
       style="font-size:27.5px;line-height:125%;font-family:'RobotoMono Nerd Font';letter-spacing:0px;word-spacing:0px;fill:#ffffff;stroke-width:1px">
      <path
         d="M 72.981659,140.93362 Q 72.887665,140.75418 72.82785,140.48929 72.776581,140.21585 72.750946,139.92532 72.511688,140.16458 72.212616,140.3782 71.922089,140.59183 71.563202,140.75418 71.21286,140.91653 70.811249,141.01053 70.409637,141.10452 69.956757,141.10452 69.221893,141.10452 68.623749,140.8909 68.034149,140.67728 67.615448,140.31839 67.205292,139.95096 66.974579,139.45535 66.752411,138.9512 66.752411,138.37015 66.752411,137.60965 67.051483,137.03714 67.3591,136.46463 67.91452,136.08865 68.46994,135.70413 69.247528,135.51614 70.033661,135.32816 70.999237,135.32816 H 72.725311 V 134.60184 Q 72.725311,134.18314 72.571503,133.84988 72.417694,133.51663 72.135712,133.28592 71.853729,133.04666 71.443573,132.91849 71.041962,132.79031 70.537811,132.79031 70.067841,132.79031 69.691864,132.90994 69.324432,133.02957 69.068085,133.2261 68.811737,133.42264 68.666473,133.69608 68.529755,133.96097 68.529755,134.2515 H 66.940399 Q 66.948944,133.74734 67.196747,133.26028 67.453094,132.77322 67.923065,132.3887 68.401581,131.99564 69.07663,131.75638 69.760223,131.51712 70.62326,131.51712 71.409393,131.51712 72.084442,131.71365 72.759491,131.90164 73.246552,132.29471 73.742157,132.67923 74.024139,133.26028 74.306122,133.84134 74.306122,134.61893 V 138.91702 Q 74.306122,139.37845 74.391571,139.89969 74.47702,140.41238 74.630829,140.79691 V 140.93362 Z M 70.187469,139.72879 Q 70.648895,139.72879 71.050507,139.60916 71.452118,139.48953 71.776825,139.293 72.110077,139.09647 72.349335,138.84866 72.588593,138.59232 72.725311,138.31888 V 136.44754 H 71.255585 Q 69.871307,136.44754 69.102264,136.8577 68.333221,137.26785 68.333221,138.14798 68.333221,138.48978 68.444305,138.7803 68.563934,139.07083 68.794647,139.28445 69.02536,139.48953 69.375702,139.60916 69.726044,139.72879 70.187469,139.72879 Z"
         style="font-size:17.5px"
         id="path866" />
      <path
         d="M 85.243622,136.41336 Q 85.243622,137.40457 85.004364,138.26761 84.765106,139.1221 84.30368,139.75443 83.842255,140.38675 83.158661,140.74564 82.483612,141.10452 81.603485,141.10452 80.714813,141.10452 80.056854,140.78836 79.40744,140.4722 78.946014,139.8826 L 78.86911,140.93362 H 77.416473 V 127.80862 H 78.997284 V 132.67923 Q 79.450165,132.11526 80.091034,131.81619 80.731903,131.51712 81.586395,131.51712 82.475067,131.51712 83.158661,131.86746 83.842255,132.2178 84.30368,132.84158 84.765106,133.46536 85.004364,134.33694 85.243622,135.19998 85.243622,136.23392 Z M 83.662811,136.23392 Q 83.662811,135.55887 83.526093,134.95218 83.397919,134.33694 83.107391,133.87552 82.816864,133.40555 82.346893,133.13211 81.876923,132.85867 81.193329,132.85867 80.783173,132.85867 80.441376,132.96976 80.099579,133.0723 79.826141,133.26883 79.561249,133.45682 79.347626,133.72171 79.142548,133.97806 78.997284,134.28568 V 138.32742 Q 79.151093,138.63504 79.356171,138.89993 79.569794,139.15628 79.843231,139.35281 80.116669,139.54935 80.458466,139.66043 80.800262,139.76297 81.210419,139.76297 81.859833,139.76297 82.321259,139.49808 82.791229,139.22464 83.081757,138.76321 83.380829,138.30179 83.517548,137.6951 83.662811,137.08841 83.662811,136.41336 Z"
         style="font-size:17.5px"
         id="path868" />
      <path
         d="M 91.848846,139.82278 Q 92.276093,139.82278 92.677704,139.68607 93.08786,139.54935 93.404022,139.31009 93.720184,139.06229 93.908173,138.73758 94.104706,138.40433 94.113251,138.01981 H 95.608612 Q 95.600067,138.63504 95.283905,139.19901 94.976288,139.75443 94.455048,140.18167 93.933807,140.60037 93.258759,140.85672 92.58371,141.10452 91.848846,141.10452 90.797821,141.10452 90.011688,140.72855 89.225555,140.35257 88.69577,139.72025 88.17453,139.07938 87.909637,138.25052 87.644745,137.41312 87.644745,136.49026 V 136.13138 Q 87.644745,135.21707 87.909637,134.37967 88.17453,133.54227 88.69577,132.90994 89.225555,132.26907 90.011688,131.8931 90.797821,131.51712 91.848846,131.51712 92.669159,131.51712 93.352753,131.78201 94.044891,132.03836 94.540497,132.49124 95.044647,132.93558 95.32663,133.55081 95.608612,134.16605 95.608612,134.86673 H 94.113251 Q 94.104706,134.44803 93.925262,134.0806 93.754364,133.70462 93.455292,133.42264 93.156219,133.14066 92.737518,132.9783 92.327362,132.81595 91.848846,132.81595 91.113983,132.81595 90.609833,133.11502 90.114227,133.40555 89.80661,133.88406 89.498993,134.35403 89.362274,134.94363 89.2341,135.53323 89.2341,136.13138 V 136.49026 Q 89.2341,137.09695 89.362274,137.6951 89.498993,138.2847 89.798065,138.76321 90.105682,139.23318 90.601288,139.53226 91.105438,139.82278 91.848846,139.82278 Z"
         style="font-size:17.5px"
         id="path870" />
      <path
         d="M 98.112274,136.23392 Q 98.112274,135.19998 98.368622,134.33694 98.633514,133.46536 99.11203,132.84158 99.599091,132.2178 100.28268,131.86746 100.96628,131.51712 101.81223,131.51712 102.64108,131.51712 103.25632,131.7991 103.8801,132.07254 104.33298,132.60233 V 127.80862 H 105.91379 V 140.93362 H 104.46115 L 104.39279,139.9595 Q 103.93137,140.52347 103.2905,140.814 102.64963,141.10452 101.79514,141.10452 100.95773,141.10452 100.27414,140.74564 99.599091,140.38675 99.120575,139.75443 98.642059,139.1221 98.377167,138.26761 98.112274,137.40457 98.112274,136.41336 Z M 99.693085,136.41336 Q 99.693085,137.08841 99.838348,137.6951 99.983612,138.30179 100.28268,138.76321 100.5903,139.22464 101.06027,139.49808 101.53024,139.76297 102.1882,139.76297 102.58981,139.76297 102.91452,139.66898 103.23923,139.57498 103.50412,139.40408 103.76901,139.22464 103.97409,138.98538 104.17917,138.73758 104.33298,138.43851 V 134.14896 Q 104.02536,133.58499 103.50412,133.2261 102.98288,132.85867 102.20529,132.85867 101.53879,132.85867 101.06027,133.13211 100.5903,133.40555 100.28268,133.87552 99.983612,134.33694 99.838348,134.95218 99.693085,135.55887 99.693085,136.23392 Z"
         style="font-size:17.5px"
         id="path872" />
      <path
         d="M 112.99753,141.10452 Q 112.02341,141.10452 111.20309,140.77127 110.39133,140.43802 109.81027,139.83987 109.22922,139.24173 108.90451,138.42142 108.5798,137.6011 108.5798,136.63553 V 136.27664 Q 108.5798,135.15726 108.93869,134.27713 109.29758,133.38846 109.88718,132.78177 110.48532,132.16653 111.23727,131.84183 111.99777,131.51712 112.79245,131.51712 113.79221,131.51712 114.53561,131.86746 115.28757,132.20926 115.78317,132.82449 116.27878,133.43118 116.51804,134.26004 116.76584,135.0889 116.76584,136.05447 V 136.7637 H 110.16061 Q 110.18625,137.39603 110.39987,137.95145 110.62204,138.50687 110.99802,138.92557 111.38254,139.33572 111.91232,139.57498 112.44211,139.81424 113.08298,139.81424 113.92892,139.81424 114.58688,139.47244 115.24484,139.13065 115.68063,138.56668 L 116.64621,139.31863 Q 116.4155,139.66898 116.06516,139.99368 115.72336,140.30984 115.27048,140.55765 114.8176,140.80545 114.24509,140.95071 113.67258,141.10452 112.99753,141.10452 Z M 112.79245,132.81595 Q 112.31393,132.81595 111.88669,132.99539 111.45944,133.16629 111.11765,133.50809 110.77585,133.84134 110.53659,134.33694 110.30588,134.82401 110.21188,135.46487 H 115.18503 V 135.34525 Q 115.15939,134.88382 115.00558,134.43094 114.86032,133.97806 114.56979,133.61917 114.27927,133.26028 113.83493,133.03812 113.39914,132.81595 112.79245,132.81595 Z"
         style="font-size:17.5px"
         id="path874" />
      <path
         d="M 121.77316,140.93362 V 132.90994 H 119.22678 V 131.68802 H 121.77316 V 131.0386 Q 121.77316,130.14993 122.02951,129.48343 122.2944,128.80838 122.76437,128.3555 123.24289,127.90262 123.90939,127.67191 124.5759,127.44119 125.39621,127.44119 125.96017,127.44119 126.48996,127.53519 127.02829,127.62918 127.59225,127.77444 L 127.40427,129.08182 Q 127.05392,128.96219 126.58395,128.87674 126.12253,128.78275 125.59274,128.78275 124.4819,128.79129 123.91794,129.34671 123.36252,129.90213 123.36252,131.0386 V 131.68802 H 126.92575 V 132.90994 H 123.36252 V 140.93362 Z"
         style="font-size:17.5px"
         id="path876" />
      <path
         d="M 129.63449,136.23392 Q 129.63449,135.19998 129.88229,134.33694 130.13864,133.46536 130.61716,132.84158 131.09567,132.2178 131.77927,131.86746 132.46286,131.51712 133.3259,131.51712 134.18039,131.51712 134.82126,131.82474 135.47067,132.12381 135.92355,132.69632 L 136.00046,131.68802 H 137.436 V 140.73709 Q 137.436,141.6514 137.14548,142.36063 136.86349,143.06985 136.34225,143.56546 135.82956,144.06107 135.11179,144.31741 134.39401,144.57376 133.52243,144.57376 133.16354,144.57376 132.70212,144.48831 132.24069,144.41141 131.76218,144.22342 131.29221,144.04398 130.84787,143.73636 130.41208,143.42874 130.09592,142.97586 L 130.91623,142.02737 Q 131.20676,142.37772 131.51437,142.61697 131.82199,142.86478 132.13815,143.01004 132.45432,143.1553 132.77048,143.21512 133.08664,143.28348 133.4028,143.28348 133.96677,143.28348 134.41965,143.12112 134.87253,142.95877 135.18869,142.64261 135.5134,142.33499 135.6843,141.87357 135.85519,141.41214 135.85519,140.814 V 140.01932 Q 135.39377,140.5491 134.76144,140.83109 134.13766,141.10452 133.30881,141.10452 132.46286,141.10452 131.77927,140.74564 131.09567,140.38675 130.61716,139.75443 130.14719,139.1221 129.89084,138.26761 129.63449,137.40457 129.63449,136.41336 Z M 131.2153,136.41336 Q 131.2153,137.08841 131.35202,137.6951 131.49728,138.30179 131.79636,138.76321 132.10397,139.22464 132.57394,139.49808 133.04391,139.76297 133.70187,139.76297 134.11203,139.76297 134.43674,139.66898 134.76999,139.56644 135.02634,139.38699 135.29123,139.20755 135.49631,138.95975 135.70139,138.71194 135.85519,138.41287 V 134.17459 Q 135.70139,133.88406 135.49631,133.64481 135.29123,133.40555 135.02634,133.23465 134.76144,133.05521 134.43674,132.96121 134.11203,132.85867 133.71896,132.85867 133.05246,132.85867 132.57394,133.13211 132.10397,133.40555 131.79636,133.87552 131.49728,134.33694 131.35202,134.95218 131.2153,135.55887 131.2153,136.23392 Z"
         style="font-size:17.5px"
         id="path878" />
      <path
         d="M 142.00754,133.06375 Q 142.50314,132.33743 143.22946,131.93582 143.95578,131.52567 144.86154,131.51712 145.58786,131.51712 146.17746,131.73074 146.7756,131.93582 147.19431,132.38016 147.61301,132.82449 147.83517,133.50809 148.06589,134.18314 148.06589,135.11453 V 140.93362 H 146.48508 V 135.09744 Q 146.48508,133.96097 145.9382,133.40555 145.39987,132.85013 144.39157,132.85867 143.63107,132.85867 143.00729,133.23465 142.39206,133.60208 142.00754,134.21732 V 140.93362 H 140.42673 V 127.80862 H 142.00754 Z"
         style="font-size:17.5px"
         id="path880" />
      <path
         d="M 151.17624,131.68802 H 155.90158 V 139.56644 H 158.91794 V 140.93362 H 151.17624 V 139.56644 H 154.32077 V 133.06375 H 151.17624 Z M 154.11569,129.26126 Q 154.11569,128.86819 154.34641,128.6033 154.58566,128.32986 155.06418,128.32986 155.53415,128.32986 155.77341,128.6033 156.01266,128.86819 156.01266,129.26126 156.01266,129.64578 155.77341,129.90213 155.53415,130.15848 155.06418,130.15848 154.58566,130.15848 154.34641,129.90213 154.11569,129.64578 154.11569,129.26126 Z"
         style="font-size:17.5px"
         id="path882" />
      <path
         d="M 162.49826,131.68802 H 167.16379 V 140.99344 Q 167.16379,141.88211 166.91599,142.5657 166.67673,143.2493 166.20676,143.71072 165.74533,144.18069 165.07028,144.41995 164.40378,144.66776 163.54929,144.66776 163.06223,144.66776 162.63498,144.63358 162.21628,144.60794 161.74631,144.52249 L 161.85739,143.22366 Q 162.00266,143.2493 162.22482,143.26639 162.44699,143.29202 162.66916,143.30057 162.89987,143.31766 163.10495,143.31766 163.31857,143.3262 163.4382,143.3262 163.88254,143.3262 164.2756,143.20657 164.66867,143.09549 164.9592,142.82205 165.24973,142.54861 165.41208,142.09573 165.58298,141.6514 165.58298,140.99344 V 133.06375 H 162.49826 Z M 165.36081,129.25272 Q 165.36081,128.86819 165.59152,128.6033 165.82224,128.32986 166.30075,128.32986 166.77927,128.32986 167.01852,128.6033 167.25778,128.86819 167.25778,129.25272 167.25778,129.63724 167.01852,129.90213 166.77927,130.15848 166.30075,130.15848 165.82224,130.15848 165.59152,129.90213 165.36081,129.63724 165.36081,129.25272 Z"
         style="font-size:17.5px"
         id="path884" />
      <path
         d="M 174.70041,136.61844 173.5383,137.73782 V 140.93362 H 171.94894 V 127.80862 H 173.5383 V 135.84085 L 174.57224,134.73001 177.60568,131.68802 H 179.52829 L 175.78561,135.54178 180.1008,140.93362 H 178.09274 Z"
         style="font-size:17.5px"
         id="path886" />
      <path
         d="M 182.68137,127.80862 H 187.40671 V 139.56644 H 190.42307 V 140.93362 H 182.68137 V 139.56644 H 185.8259 V 129.18436 H 182.68137 Z"
         style="font-size:17.5px"
         id="path888" />
      <path
         d="M 193.66159,131.68802 193.70432,132.5596 Q 193.9863,132.07254 194.43918,131.7991 194.9006,131.52567 195.55002,131.51712 196.82321,131.51712 197.25046,132.50833 197.5239,132.064 197.96823,131.7991 198.42111,131.52567 199.06198,131.51712 200.07883,131.51712 200.6257,132.1409 201.17258,132.76468 201.17258,134.02933 V 140.93362 H 199.66867 V 134.01224 Q 199.66867,132.85013 198.60056,132.85867 198.31857,132.85867 198.11349,132.93558 197.90842,133.01248 197.7717,133.1492 197.63498,133.27737 197.55807,133.45682 197.48117,133.62772 197.45554,133.8157 V 140.93362 H 195.95163 V 134.00369 Q 195.95163,133.44827 195.70383,133.1492 195.45602,132.85013 194.91769,132.85867 194.42209,132.85867 194.14865,133.05521 193.87521,133.25174 193.74704,133.57645 V 140.93362 H 192.24313 V 131.68802 Z"
         style="font-size:17.5px"
         id="path890" />
      <path
         d="M 204.85544,131.68802 204.96652,133.05521 Q 205.47067,132.33743 206.20554,131.93582 206.9404,131.52567 207.84616,131.51712 208.57248,131.51712 209.16208,131.7222 209.76022,131.92728 210.17892,132.36307 210.59763,132.79886 210.81979,133.47391 211.05051,134.14041 211.05051,135.06326 V 140.93362 H 209.4697 V 135.09744 Q 209.4697,134.48221 209.33298,134.05496 209.19626,133.62772 208.92282,133.36282 208.65793,133.09793 208.26486,132.9783 207.88034,132.85867 207.37619,132.85867 206.58151,132.85867 205.97482,133.26028 205.37668,133.65335 205.01779,134.30276 V 140.93362 H 203.43698 V 131.68802 Z"
         style="font-size:17.5px"
         id="path892" />
      <path
         d="M 213.49435,136.22537 Q 213.49435,135.22562 213.78488,134.37112 214.07541,133.50809 214.61374,132.87576 215.16061,132.24344 215.9382,131.88455 216.71579,131.51712 217.68991,131.51712 218.67258,131.51712 219.45016,131.88455 220.2363,132.24344 220.77463,132.87576 221.3215,133.50809 221.61203,134.37112 221.90256,135.22562 221.90256,136.22537 V 136.41336 Q 221.90256,137.41312 221.61203,138.26761 221.3215,139.1221 220.77463,139.75443 220.2363,140.38675 219.45871,140.74564 218.68112,141.10452 217.707,141.10452 216.72433,141.10452 215.9382,140.74564 215.16061,140.38675 214.61374,139.75443 214.07541,139.1221 213.78488,138.26761 213.49435,137.41312 213.49435,136.41336 Z M 215.07516,136.41336 Q 215.07516,137.09695 215.23752,137.72073 215.39987,138.33597 215.72458,138.80594 216.05783,139.27591 216.55344,139.54935 217.04904,139.82278 217.707,139.82278 218.35641,139.82278 218.84348,139.54935 219.33908,139.27591 219.66379,138.80594 219.99704,138.33597 220.15939,137.72073 220.32175,137.09695 220.32175,136.41336 V 136.22537 Q 220.32175,135.55032 220.15085,134.93509 219.98849,134.31131 219.65524,133.84134 219.33054,133.37137 218.83493,133.09793 218.34787,132.81595 217.68991,132.81595 217.03195,132.81595 216.54489,133.09793 216.05783,133.37137 215.72458,133.84134 215.39987,134.31131 215.23752,134.93509 215.07516,135.55032 215.07516,136.22537 Z"
         style="font-size:17.5px"
         id="path894" />
      <path
         d="M 232.24191,136.41336 Q 232.24191,137.40457 232.00266,138.26761 231.7634,139.1221 231.30197,139.75443 230.84055,140.38675 230.15695,140.74564 229.4819,141.10452 228.61032,141.10452 227.76437,141.10452 227.11496,140.83109 226.47409,140.55765 226.01266,140.04495 V 144.48831 H 224.43185 V 131.68802 H 225.87595 L 225.95285,132.69632 Q 226.41428,132.12381 227.06369,131.82474 227.72165,131.51712 228.58469,131.51712 229.47336,131.51712 230.15695,131.86746 230.84055,132.2178 231.30197,132.84158 231.7634,133.46536 232.00266,134.33694 232.24191,135.19998 232.24191,136.23392 Z M 230.6611,136.23392 Q 230.6611,135.55887 230.50729,134.95218 230.36203,134.33694 230.04587,133.87552 229.73825,133.40555 229.25974,133.13211 228.78122,132.85867 228.11472,132.85867 227.35422,132.85867 226.83298,133.21756 226.32028,133.5679 226.01266,134.12332 V 138.57523 Q 226.32028,139.1221 226.83298,139.47244 227.34567,139.81424 228.13181,139.81424 228.78976,139.81424 229.26828,139.5408 229.7468,139.25882 230.05441,138.78885 230.36203,138.31888 230.50729,137.70364 230.6611,137.08841 230.6611,136.41336 Z"
         style="font-size:17.5px"
         id="path896" />
      <path
         d="M 234.65158,136.23392 Q 234.65158,135.19998 234.89938,134.33694 235.14719,133.46536 235.6257,132.84158 236.10422,132.2178 236.79636,131.86746 237.49704,131.51712 238.38571,131.51712 239.20602,131.51712 239.8298,131.7991 240.46213,132.07254 240.92355,132.60233 L 240.99191,131.68802 H 242.44455 V 144.48831 H 240.86374 V 140.09622 Q 240.40231,140.58328 239.78708,140.84818 239.17184,141.10452 238.36862,141.10452 237.48849,141.10452 236.79636,140.74564 236.11276,140.38675 235.63425,139.75443 235.15573,139.1221 234.89938,138.26761 234.65158,137.40457 234.65158,136.41336 Z M 236.23239,136.41336 Q 236.23239,137.08841 236.37766,137.70364 236.53146,138.31888 236.83908,138.78885 237.1467,139.25882 237.61667,139.5408 238.09518,139.81424 238.75314,139.81424 239.51364,139.81424 240.02634,139.47244 240.53903,139.13065 240.86374,138.58377 V 134.02078 Q 240.70139,133.75589 240.48776,133.54227 240.28268,133.3201 240.01779,133.15775 239.76144,132.99539 239.44528,132.90994 239.13766,132.81595 238.77023,132.81595 238.11227,132.81595 237.63376,133.09793 237.15524,133.37991 236.83908,133.85843 236.53146,134.3284 236.37766,134.94363 236.23239,135.55887 236.23239,136.23392 Z"
         style="font-size:17.5px"
         id="path898" />
      <path
         d="M 251.50217,131.51712 Q 251.72433,131.51712 251.96359,131.53421 252.20285,131.54276 252.41647,131.57693 252.63864,131.60257 252.81808,131.64529 253.00607,131.68802 253.1257,131.73929 L 252.91208,133.28592 Q 252.45065,133.18338 252.03195,133.14066 251.6218,133.08939 251.16891,133.08939 250.05807,133.08939 249.36594,133.59354 248.68234,134.09769 248.35764,135.00345 V 140.93362 H 246.76828 V 131.68802 H 248.27219 L 248.34909,133.15775 Q 248.91306,132.39725 249.69919,131.96146 250.49387,131.51712 251.50217,131.51712 Z"
         style="font-size:17.5px"
         id="path900" />
      <path
         d="M 262.08932,138.48123 Q 262.08932,138.19925 261.97824,137.97708 261.86716,137.74637 261.60226,137.55838 261.33737,137.37039 260.90158,137.21658 260.46579,137.05423 259.81638,136.92606 259.0217,136.7637 258.36374,136.53299 257.71432,136.30228 257.24435,135.98611 256.78293,135.66141 256.52658,135.23416 256.27023,134.79837 256.27023,134.22586 256.27023,133.6619 256.53513,133.17484 256.80002,132.67923 257.27853,132.3118 257.75705,131.94437 258.41501,131.73074 259.08151,131.51712 259.87619,131.51712 260.73068,131.51712 261.41428,131.73929 262.09787,131.96146 262.57639,132.35452 263.0549,132.74759 263.31125,133.27737 263.57614,133.79861 263.57614,134.4053 H 261.99533 Q 261.99533,134.10623 261.84152,133.82425 261.68771,133.53372 261.41428,133.31155 261.14084,133.08939 260.74777,132.95267 260.36325,132.81595 259.87619,132.81595 259.37204,132.81595 258.98752,132.92703 258.61154,133.03812 258.35519,133.2261 258.10739,133.41409 257.97922,133.6619 257.85104,133.9097 257.85104,134.17459 257.85104,134.44803 257.95358,134.66165 258.05612,134.87527 258.30392,135.04617 258.56027,135.21707 258.97897,135.35379 259.40622,135.49051 260.05563,135.61868 260.91013,135.79813 261.58517,136.03738 262.26022,136.2681 262.72165,136.60135 263.18307,136.92606 263.42233,137.36185 263.67014,137.79764 263.67014,138.37015 263.67014,138.98538 263.38815,139.48953 263.11472,139.99368 262.61911,140.35257 262.1235,140.71146 261.43137,140.90799 260.73923,141.10452 259.91891,141.10452 258.97897,141.10452 258.24411,140.85672 257.50925,140.60037 256.99655,140.19022 256.4924,139.77151 256.21896,139.22464 255.95407,138.67776 255.95407,138.08817 H 257.53488 Q 257.56906,138.57523 257.79123,138.90848 258.02194,139.24173 258.35519,139.44681 258.69699,139.65189 259.10715,139.73734 259.5173,139.82278 259.91891,139.82278 260.91867,139.82278 261.49973,139.45535 262.08078,139.08792 262.08932,138.48123 Z"
         style="font-size:17.5px"
         id="path902" />
      <path
         d="M 270.18991,129.44925 V 131.68802 H 273.71042 V 132.90994 H 270.18991 V 137.93436 Q 270.18991,138.47269 270.32663,138.82303 270.46335,139.17337 270.70261,139.38699 270.94186,139.59207 271.24948,139.67752 271.56564,139.76297 271.91599,139.76297 272.17233,139.76297 272.44577,139.73734 272.71921,139.70316 272.97556,139.66043 273.24045,139.61771 273.46262,139.57498 273.69333,139.52371 273.83859,139.48953 L 274.06076,140.60892 Q 273.86423,140.72855 273.58224,140.82254 273.30026,140.90799 272.96701,140.9678 272.63376,141.03616 272.25778,141.07034 271.89035,141.10452 271.52292,141.10452 270.90768,141.10452 270.36935,140.93362 269.83957,140.75418 269.4465,140.3782 269.05344,139.99368 268.82272,139.39554 268.60056,138.78885 268.60056,137.93436 V 132.90994 H 266.1738 V 131.68802 H 268.60056 V 129.44925 Z"
         style="font-size:17.5px"
         id="path904" />
      <path
         d="M 282.94748,139.66043 Q 282.48605,140.34402 281.79391,140.72855 281.10178,141.10452 280.19601,141.10452 279.4697,141.10452 278.8801,140.88235 278.2905,140.65164 277.8718,140.17313 277.45309,139.69461 277.22238,138.95975 277.00021,138.21634 277.00021,137.1824 V 131.68802 H 278.58102 V 137.19949 Q 278.58102,137.95145 278.70065,138.44705 278.82028,138.94266 279.05954,139.24173 279.2988,139.53226 279.64059,139.65189 279.99094,139.77151 280.44382,139.77151 281.40939,139.77151 281.99899,139.37845 282.59714,138.98538 282.88766,138.31888 V 131.68802 H 284.47702 V 140.93362 H 283.04147 Z"
         style="font-size:17.5px"
         id="path906" />
      <path
         d="M 291.0737,138.66068 291.21896,139.23318 291.37277,138.66068 293.96188,131.68802 H 295.57687 L 291.80856,140.93362 H 290.60373 L 286.80124,131.68802 H 288.42477 Z"
         style="font-size:17.5px"
         id="path908" />
      <path
         d="M 299.35373,137.58401 299.54172,138.90848 299.77243,137.58401 301.2507,131.68802 H 302.26755 L 303.73727,137.58401 303.98508,139.03665 304.21579,137.58401 305.24118,131.68802 H 306.64255 L 304.67722,140.93362 H 303.42966 L 301.98557,135.26834 301.74631,133.83279 301.51559,135.26834 300.08859,140.93362 H 298.84103 L 296.8757,131.68802 H 298.27707 Z"
         style="font-size:17.5px"
         id="path910" />
      <path
         d="M 312.27365,135.11453 314.74313,131.68802 H 316.59738 L 313.15378,136.25955 316.69138,140.93362 H 314.86276 L 312.30783,137.41312 309.7529,140.93362 H 307.9072 L 311.44479,136.25955 308.00119,131.68802 H 309.8298 Z"
         style="font-size:17.5px"
         id="path912" />
      <path
         d="M 322.35666,137.65237 322.76682,138.77176 325.58664,131.68802 H 327.35544 L 322.66428,142.36063 Q 322.50192,142.71951 322.24557,143.12112 321.99777,143.52274 321.63889,143.86453 321.28,144.20633 320.80148,144.43704 320.32297,144.66776 319.69919,144.66776 319.5881,144.66776 319.45139,144.65067 319.31467,144.64212 319.17795,144.61649 319.04123,144.5994 318.9216,144.57376 318.80197,144.54813 318.72507,144.53104 L 318.98141,143.24075 Q 319.04123,143.24075 319.14377,143.2493 319.24631,143.25784 319.35739,143.26639 319.46848,143.27493 319.57101,143.27493 319.67355,143.28348 319.73337,143.28348 320.05807,143.28348 320.32297,143.10403 320.59641,142.92459 320.80148,142.67679 321.01511,142.42899 321.16037,142.16409 321.31418,141.8992 321.39963,141.7283 L 322.03195,140.49783 318.05002,131.68802 H 319.81882 Z"
         style="font-size:17.5px"
         id="path914" />
      <path
         d="M 331.35446,139.64334 H 337.24191 V 140.93362 H 329.33786 V 139.77151 L 334.85788,132.99539 H 329.41476 V 131.68802 H 336.9343 V 132.8074 Z"
         style="font-size:17.5px"
         id="path916" />
      <path
         d="M 72.84494,159.58719 H 68.692108 L 67.692352,162.80862 H 66.111542 L 70.127655,150.36722 H 71.452118 L 75.399872,162.80862 H 73.827606 Z M 69.119354,158.21146 H 72.426239 L 70.785614,152.81107 Z"
         style="font-size:17.5px"
         id="path918" />
      <path
         d="M 77.390839,162.80862 V 150.36722 H 81.09079 Q 81.859833,150.37576 82.594696,150.5723 83.329559,150.76028 83.902069,151.1619 84.474579,151.56351 84.816376,152.18729 85.158173,152.81107 85.149628,153.68265 85.141083,154.16971 84.987274,154.57132 84.84201,154.97293 84.577118,155.29764 84.32077,155.6138 83.970428,155.85306 83.620087,156.09232 83.22702,156.26321 83.722626,156.40848 84.132782,156.68192 84.551483,156.94681 84.850555,157.33133 85.149628,157.70731 85.311981,158.18582 85.48288,158.66434 85.48288,159.21976 85.491425,160.09134 85.149628,160.75784 84.807831,161.42435 84.235321,161.87723 83.662811,162.32156 82.910858,162.56082 82.16745,162.80008 81.372772,162.80862 Z M 78.980194,156.98953 V 161.46707 H 81.415497 Q 81.911102,161.45853 82.355438,161.30472 82.799774,161.14236 83.141571,160.86038 83.483368,160.5784 83.679901,160.16824 83.884979,159.75809 83.884979,159.23685 83.893524,158.70706 83.705536,158.29691 83.526093,157.88675 83.201385,157.60477 82.876678,157.31424 82.440887,157.16043 82.005096,157.00662 81.500946,156.98953 Z M 78.980194,155.67361 H 81.184784 Q 81.62912,155.66507 82.056366,155.5369 82.483612,155.40018 82.816864,155.15237 83.150116,154.89603 83.355194,154.52859 83.560272,154.16116 83.560272,153.6741 83.560272,153.15286 83.355194,152.78543 83.158661,152.418 82.816864,152.18729 82.483612,151.94803 82.039276,151.83694 81.603485,151.72586 81.142059,151.71732 H 78.980194 Z"
         style="font-size:17.5px"
         id="path920" />
      <path
         d="M 95.967499,159.06595 Q 95.856415,159.92899 95.523163,160.6553 95.189911,161.37308 94.651581,161.89432 94.121796,162.40701 93.386932,162.69754 92.660614,162.97952 91.763397,162.97952 90.994354,162.97952 90.36203,162.7659 89.738251,162.54373 89.242645,162.15921 88.755585,161.77469 88.396698,161.25345 88.046356,160.73221 87.807098,160.11697 87.576385,159.50174 87.456757,158.82669 87.345673,158.15164 87.337128,157.4595 V 155.72488 Q 87.345673,155.03275 87.456757,154.3577 87.576385,153.68265 87.807098,153.06741 88.046356,152.45218 88.396698,151.93094 88.755585,151.40115 89.242645,151.01663 89.738251,150.63211 90.36203,150.41849 90.985809,150.19632 91.763397,150.19632 92.694794,150.19632 93.429657,150.48685 94.16452,150.76883 94.694305,151.29861 95.224091,151.81985 95.540253,152.55472 95.86496,153.28958 95.967499,154.17825 H 94.386688 Q 94.309784,153.61429 94.121796,153.12723 93.933807,152.64017 93.617645,152.27274 93.301483,151.9053 92.840057,151.70023 92.387177,151.4866 91.763397,151.4866 91.199432,151.4866 90.763641,151.67459 90.336395,151.85403 90.020233,152.1702 89.712616,152.48636 89.498993,152.90506 89.293915,153.32376 89.165741,153.79373 89.037567,154.2637 88.977753,154.75931 88.926483,155.24637 88.926483,155.70779 V 157.4595 Q 88.926483,157.92093 88.977753,158.41653 89.037567,158.90359 89.165741,159.38211 89.293915,159.85208 89.498993,160.27078 89.704071,160.68948 90.020233,161.01419 90.336395,161.33035 90.763641,161.51834 91.190887,161.69778 91.763397,161.69778 92.387177,161.69778 92.840057,161.50125 93.301483,161.30472 93.617645,160.95438 93.933807,160.59549 94.121796,160.11697 94.309784,159.62991 94.386688,159.06595 Z"
         style="font-size:17.5px"
         id="path922" />
      <path
         d="M 98.248993,162.80862 V 150.36722 H 101.12863 Q 102.42746,150.38431 103.44431,150.81155 104.4697,151.23026 105.17038,151.99075 105.87961,152.74271 106.24704,153.80228 106.62302,154.8533 106.63156,156.13504 V 157.04935 Q 106.62302,158.33109 106.24704,159.39066 105.87961,160.44168 105.17038,161.20218 104.4697,161.95413 103.44431,162.38138 102.42746,162.80008 101.12863,162.80862 Z M 99.855438,151.66605 V 161.51834 H 101.12863 Q 102.13693,161.5098 102.8718,161.168 103.60666,160.81766 104.08517,160.21951 104.57224,159.62137 104.80295,158.8096 105.04221,157.99783 105.05075,157.04935 V 156.11795 Q 105.04221,155.16946 104.80295,154.36624 104.56369,153.55447 104.08517,152.96487 103.60666,152.36673 102.8718,152.02493 102.13693,151.68314 101.12863,151.66605 Z"
         style="font-size:17.5px"
         id="path924" />
      <path
         d="M 115.75754,157.05789 H 110.56223 V 161.46707 H 116.62057 V 162.80862 H 108.98141 V 150.36722 H 116.54367 V 151.71732 H 110.56223 V 155.71634 H 115.75754 Z"
         style="font-size:17.5px"
         id="path926" />
      <path
         d="M 126.33615,157.31424 H 121.15793 V 162.80862 H 119.56003 V 150.36722 H 127.19919 V 151.71732 H 121.15793 V 155.97269 H 126.33615 Z"
         style="font-size:17.5px"
         id="path928" />
      <path
         d="M 137.96579,161.17654 Q 137.17966,162.0994 136.16281,162.54373 135.14597,162.98807 133.93259,162.97952 133.16354,162.97098 132.51413,162.74881 131.87326,162.5181 131.36057,162.12503 130.84787,161.72342 130.46335,161.18509 130.07883,160.64676 129.81393,160.02298 129.55759,159.39066 129.42087,158.70706 129.29269,158.01492 129.28415,157.31424 V 155.87015 Q 129.29269,155.17801 129.40378,154.49442 129.52341,153.80228 129.76266,153.16995 130.00192,152.53763 130.36081,151.9993 130.7197,151.45242 131.2153,151.05936 131.71945,150.65775 132.35178,150.42703 132.9841,150.19632 133.77023,150.19632 134.64182,150.19632 135.37668,150.46976 136.11154,150.73465 136.65842,151.2388 137.20529,151.73441 137.53854,152.44363 137.8718,153.14432 137.9487,154.0159 H 136.38498 Q 136.29099,153.47757 136.09445,153.02469 135.89792,152.56326 135.57321,152.23856 135.25705,151.91385 134.81271,151.73441 134.36838,151.54642 133.77878,151.54642 133.21481,151.54642 132.77902,151.74295 132.34323,151.93094 132.01852,152.25565 131.69382,152.58035 131.48019,153.01614 131.26657,153.44339 131.12985,153.92191 130.99313,154.40042 130.93332,154.89603 130.8735,155.39163 130.8735,155.85306 V 157.31424 Q 130.88205,157.78421 130.95041,158.28836 131.02731,158.78397 131.18112,159.26248 131.33493,159.741 131.57419,160.16824 131.81345,160.59549 132.1467,160.9202 132.48849,161.2449 132.93283,161.44144 133.37717,161.62943 133.94113,161.63797 134.26584,161.64651 134.61618,161.61234 134.97507,161.57816 135.30832,161.47562 135.64157,161.37308 135.9321,161.20218 136.22263,161.02274 136.41916,160.74075 L 136.43625,157.94656 H 133.90695 V 156.61356 H 137.94016 Z"
         style="font-size:17.5px"
         id="path930" />
      <path
         d="M 148.2197,162.80862 H 146.72433 V 157.05789 H 141.62302 V 162.80862 H 140.1362 V 150.36722 H 141.62302 V 155.71634 H 146.72433 V 150.36722 H 148.2197 Z"
         style="font-size:17.5px"
         id="path932" />
      <path
         d="M 150.91989,150.36722 H 158.43942 V 151.74295 H 155.45724 V 161.44144 H 158.43942 V 162.80862 H 150.91989 V 161.44144 H 153.83371 V 151.74295 H 150.91989 Z"
         style="font-size:17.5px"
         id="path934" />
      <path
         d="M 167.25778,150.36722 H 168.87277 V 159.02322 Q 168.85568,159.88626 168.53952,160.61258 168.2319,161.3389 167.69357,161.86868 167.15524,162.38992 166.42038,162.689 165.69406,162.97952 164.83102,162.97952 163.95944,162.97952 163.24167,162.71463 162.53244,162.44974 162.00266,161.96268 161.48141,161.46707 161.16525,160.77493 160.84909,160.07425 160.77219,159.21121 H 162.37863 Q 162.40427,159.73245 162.58371,160.17679 162.7717,160.62112 163.08786,160.95438 163.40402,161.27908 163.83981,161.45853 164.28415,161.63797 164.83102,161.63797 165.39499,161.63797 165.83932,161.43289 166.28366,161.21927 166.59128,160.86038 166.90744,160.5015 167.06979,160.03152 167.24069,159.55301 167.25778,159.02322 Z"
         style="font-size:17.5px"
         id="path936" />
      <path
         d="M 174.90549,157.03226 173.52121,158.60452 V 162.80862 H 171.90622 V 150.36722 H 173.52121 V 156.44266 L 174.72604,154.93875 178.37473,150.36722 H 180.29733 L 175.94797,155.81033 180.58786,162.80862 H 178.66525 Z"
         style="font-size:17.5px"
         id="path938" />
      <path
         d="M 184.21091,161.46707 H 190.29489 V 162.80862 H 182.6301 V 150.36722 H 184.21091 Z"
         style="font-size:17.5px"
         id="path940" />
      <path
         d="M 194.66135,150.36722 196.68649,156.58792 198.87399,150.36722 H 200.83932 V 162.80862 H 199.30124 V 157.84402 L 199.42941,152.64871 197.13083,159.34793 H 196.22507 L 194.11447,152.82816 194.24265,157.84402 V 162.80862 H 192.70456 V 150.36722 Z"
         style="font-size:17.5px"
         id="path942" />
      <path
         d="M 211.22141,162.80862 H 209.61496 L 204.78708,153.51175 204.76144,162.80862 H 203.16354 V 150.36722 H 204.76999 L 209.59787,159.647 209.6235,150.36722 H 211.22141 Z"
         style="font-size:17.5px"
         id="path944" />
      <path
         d="M 222.02219,157.30569 Q 222.01364,157.9722 221.90256,158.65579 221.80002,159.33084 221.57785,159.96317 221.35568,160.59549 221.00534,161.14236 220.66354,161.68924 220.18503,162.0994 219.70651,162.50955 219.08273,162.74881 218.4675,162.97952 217.69846,162.97952 216.92941,162.97952 216.30563,162.74881 215.6904,162.50955 215.21188,162.0994 214.73337,161.68924 214.38303,161.14236 214.03268,160.58694 213.80197,159.95462 213.5798,159.3223 213.46872,158.64725 213.35764,157.9722 213.34909,157.30569 V 155.88724 Q 213.35764,155.22073 213.46017,154.54568 213.57126,153.86209 213.79343,153.22977 214.02414,152.59744 214.36594,152.05057 214.71628,151.49515 215.19479,151.08499 215.67331,150.66629 216.28854,150.43558 216.91232,150.19632 217.68137,150.19632 218.45041,150.19632 219.07419,150.43558 219.69797,150.66629 220.17648,151.07645 220.655,151.4866 220.9968,152.04202 221.34714,152.5889 221.56931,153.22122 221.80002,153.85355 221.90256,154.53714 222.01364,155.22073 222.02219,155.88724 Z M 220.45847,155.87015 Q 220.44992,155.42581 220.39865,154.9473 220.34738,154.46024 220.21921,153.99026 220.09958,153.51175 219.8945,153.0845 219.68942,152.64871 219.38181,152.32401 219.07419,151.99075 218.65549,151.80276 218.23679,151.60623 217.68137,151.60623 217.13449,151.60623 216.71579,151.80276 216.29709,151.9993 215.98947,152.33255 215.68185,152.65726 215.47678,153.09305 215.2717,153.52029 215.14352,153.99881 215.0239,154.46878 214.96408,154.95584 214.91281,155.43436 214.90427,155.87015 V 157.30569 Q 214.91281,157.74149 214.96408,158.22855 215.0239,158.71561 215.15207,159.19412 215.28024,159.66409 215.48532,160.09988 215.6904,160.53568 215.99802,160.86893 216.30563,161.19363 216.72433,161.39017 217.14304,161.5867 217.69846,161.5867 218.25388,161.5867 218.67258,161.39017 219.09982,161.19363 219.3989,160.86893 219.70651,160.53568 219.90305,160.10843 220.10812,159.67264 220.22775,159.20267 220.35593,158.72415 220.39865,158.23709 220.44992,157.75003 220.45847,157.30569 Z"
         style="font-size:17.5px"
         id="path946" />
      <path
         d="M 226.15793,157.81839 V 162.80862 H 224.57712 V 150.36722 H 228.61032 Q 229.44772,150.38431 230.19113,150.63211 230.94308,150.87991 231.50705,151.34988 232.07101,151.81985 232.39572,152.51199 232.72897,153.20413 232.72897,154.10135 232.72897,154.99857 232.39572,155.6907 232.07101,156.3743 231.50705,156.84427 230.94308,157.31424 230.19113,157.56204 229.44772,157.80984 228.61032,157.81839 Z M 226.15793,156.51956 H 228.61032 Q 229.1572,156.51102 229.61862,156.34866 230.08005,156.17776 230.42184,155.87015 230.76364,155.56253 230.95163,155.12674 231.14816,154.6824 231.14816,154.11844 231.14816,153.55447 230.95163,153.10159 230.76364,152.64871 230.42184,152.33255 230.08859,152.01639 229.61862,151.84549 229.1572,151.67459 228.61032,151.66605 H 226.15793 Z"
         style="font-size:17.5px"
         id="path948" />
      <path
         d="M 243.13669,157.14334 Q 243.12814,157.83548 243.01706,158.53616 242.90598,159.23685 242.67526,159.88626 242.45309,160.53568 242.09421,161.10818 241.74387,161.67215 241.24826,162.09085 L 243.39304,163.87674 242.30783,164.91068 239.84689,162.82571 Q 239.31711,162.97952 238.70187,162.97952 237.9072,162.97952 237.27487,162.74026 236.64255,162.49246 236.14694,162.07376 235.65988,161.65506 235.30099,161.09109 234.94211,160.51859 234.7114,159.86917 234.48068,159.21976 234.3696,158.52762 234.25851,157.82693 234.24997,157.14334 V 156.04959 Q 234.25851,155.366 234.3696,154.66531 234.48068,153.96463 234.7114,153.31522 234.94211,152.6658 235.29245,152.10184 235.64279,151.52933 236.12985,151.11063 236.62546,150.68338 237.25778,150.44412 237.89865,150.19632 238.69333,150.19632 239.48801,150.19632 240.12033,150.44412 240.7612,150.68338 241.24826,151.10208 241.74387,151.52078 242.09421,152.09329 242.45309,152.65726 242.67526,153.30667 242.90598,153.95609 243.01706,154.66531 243.12814,155.366 243.13669,156.04959 Z M 241.56442,156.0325 Q 241.55588,155.56253 241.50461,155.05838 241.46188,154.54568 241.33371,154.05862 241.21408,153.56302 241.00046,153.11868 240.79538,152.67435 240.47922,152.34109 240.16306,151.9993 239.71872,151.80276 239.28293,151.60623 238.69333,151.60623 238.11227,151.60623 237.67648,151.81131 237.24069,152.00784 236.92453,152.34964 236.60837,152.68289 236.39474,153.12723 236.18967,153.57156 236.06149,154.06717 235.93332,154.55423 235.8735,155.06693 235.82224,155.57108 235.82224,156.0325 V 157.14334 Q 235.82224,157.60477 235.8735,158.11746 235.93332,158.62161 236.06149,159.11722 236.18967,159.61282 236.39474,160.05716 236.60837,160.5015 236.92453,160.84329 237.24069,161.18509 237.67648,161.39017 238.12082,161.5867 238.70187,161.5867 239.29147,161.5867 239.72726,161.39017 240.1716,161.18509 240.48776,160.85184 240.80392,160.51004 241.009,160.0657 241.21408,159.62137 241.33371,159.12576 241.46188,158.63016 241.50461,158.12601 241.55588,157.61331 241.56442,157.14334 Z"
         style="font-size:17.5px"
         id="path950" />
      <path
         d="M 249.55392,157.73294 H 247.06735 V 162.80862 H 245.49509 V 150.36722 H 249.14377 Q 250.01535,150.38431 250.78439,150.61502 251.55344,150.84573 252.12595,151.30716 252.707,151.76859 253.03171,152.46927 253.36496,153.16141 253.36496,154.10135 253.36496,154.70804 253.18552,155.21219 253.01462,155.71634 252.707,156.1265 252.39938,156.53665 251.97214,156.85281 251.54489,157.16898 251.0322,157.39114 L 253.67258,162.70609 253.66403,162.80862 H 251.99777 Z M 247.06735,156.43411 H 249.18649 Q 249.71628,156.42557 250.18625,156.27176 250.65622,156.10941 251.00656,155.81033 251.36545,155.51126 251.57053,155.08401 251.7756,154.64822 251.7756,154.08426 251.7756,153.48611 251.57907,153.04178 251.38254,152.5889 251.0322,152.28983 250.68185,151.98221 250.19479,151.8284 249.71628,151.67459 249.14377,151.66605 H 247.06735 Z"
         style="font-size:17.5px"
         id="path952" />
      <path
         d="M 262.44821,159.66409 Q 262.44821,159.09158 262.18332,158.69852 261.92697,158.30545 261.51682,158.04056 261.10666,157.76712 260.61105,157.58768 260.12399,157.40823 259.67111,157.26297 259.01315,157.04935 258.32956,156.75027 257.65451,156.4512 257.09055,156.01541 256.53513,155.57962 256.17624,154.99002 255.8259,154.39188 255.8259,153.58865 255.8259,152.78543 256.17624,152.15311 256.53513,151.52078 257.10764,151.08499 257.68015,150.6492 258.40646,150.42703 259.13278,150.19632 259.86765,150.19632 260.67941,150.19632 261.43137,150.46976 262.18332,150.73465 262.76437,151.22171 263.34543,151.70877 263.69577,152.40091 264.04611,153.09305 264.0632,153.94754 H 262.43967 Q 262.37131,153.40921 262.17477,152.97342 261.97824,152.52908 261.65353,152.21292 261.32883,151.89676 260.87595,151.72586 260.43161,151.54642 259.86765,151.54642 259.41476,151.54642 258.97897,151.67459 258.55173,151.80276 258.20993,152.05911 257.87668,152.31546 257.6716,152.69144 257.47507,153.06741 257.47507,153.56302 257.48361,154.10135 257.7485,154.47733 258.0134,154.84476 258.41501,155.1011 258.82516,155.35745 259.29514,155.52835 259.77365,155.69925 260.19235,155.82742 260.65378,155.97269 261.12375,156.16068 261.59372,156.34012 262.02951,156.57938 262.4653,156.81863 262.84128,157.11771 263.21725,157.41678 263.49924,157.8013 263.78122,158.17728 263.93503,158.6387 264.09738,159.09158 264.09738,159.647 264.09738,160.48441 263.72141,161.10818 263.35397,161.73196 262.76437,162.15067 262.17477,162.56082 261.43137,162.77444 260.68796,162.97952 259.94455,162.97952 259.11569,162.97952 258.32101,162.72318 257.52634,162.46683 256.89401,161.98831 256.27023,161.50125 255.87717,160.80911 255.4841,160.10843 255.45847,159.21976 H 257.07346 Q 257.15036,159.80081 257.38962,160.25369 257.62888,160.69803 258.00485,161.01419 258.38083,161.32181 258.86789,161.48416 259.36349,161.63797 259.94455,161.63797 260.40598,161.63797 260.85031,161.52689 261.30319,161.40726 261.65353,161.168 262.00388,160.9202 262.22604,160.55276 262.44821,160.17679 262.44821,159.66409 Z"
         style="font-size:17.5px"
         id="path954" />
      <path
         d="M 274.8298,151.71732 H 270.98459 V 162.80862 H 269.4465 V 151.71732 H 265.60129 V 150.36722 H 274.8298 Z"
         style="font-size:17.5px"
         id="path956" />
      <path
         d="M 284.75046,150.36722 284.76755,158.79251 Q 284.75046,159.66409 284.45139,160.42459 284.15231,161.18509 283.61398,161.7576 283.07565,162.32156 282.33224,162.65482 281.58884,162.97952 280.70016,162.97952 279.7944,162.97952 279.05099,162.65482 278.30759,162.33011 277.7778,161.76614 277.24802,161.19363 276.94894,160.43314 276.64987,159.66409 276.64133,158.79251 L 276.65842,150.36722 H 278.16232 L 278.1965,158.79251 Q 278.20505,159.34793 278.3674,159.86063 278.5383,160.37332 278.84592,160.76639 279.16208,161.15945 279.6235,161.39871 280.09348,161.63797 280.70016,161.63797 281.30685,161.63797 281.76828,161.40726 282.22971,161.168 282.53732,160.77493 282.85349,160.37332 283.01584,159.86063 283.17819,159.34793 283.19528,158.79251 L 283.22092,150.36722 Z"
         style="font-size:17.5px"
         id="path958" />
      <path
         d="M 291.16769,160.26224 294.10715,150.36722 H 295.7905 L 291.86838,162.80862 H 290.49265 L 286.56198,150.36722 H 288.25388 Z"
         style="font-size:17.5px"
         id="path960" />
      <path
         d="M 304.11325,159.44193 305.06174,150.36722 H 306.5571 L 305.04465,162.80862 H 303.42966 L 301.83176,153.43484 300.21677,162.80862 H 298.59323 L 297.08078,150.36722 H 298.58469 L 299.53317,159.44193 301.13107,150.36722 H 302.50681 Z"
         style="font-size:17.5px"
         id="path962" />
      <path
         d="M 312.29929,155.24637 314.98239,150.36722 H 316.84518 L 313.23068,156.53665 316.93063,162.80862 H 315.08493 L 312.33347,157.83548 309.57346,162.80862 H 307.70212 L 311.41061,156.53665 307.79611,150.36722 H 309.65036 Z"
         style="font-size:17.5px"
         id="path964" />
      <path
         d="M 322.61301,156.61356 325.44992,150.36722 H 327.24435 L 323.3735,158.16873 323.34787,162.80862 H 321.87814 L 321.85251,158.16873 317.98166,150.36722 H 319.78464 Z"
         style="font-size:17.5px"
         id="path966" />
      <path
         d="M 330.73923,161.46707 H 337.1821 V 162.80862 H 328.95334 L 328.93625,161.57816 335.13132,151.71732 H 329.04733 V 150.36722 H 336.9343 L 336.95139,151.57205 Z"
         style="font-size:17.5px"
         id="path968" />
      <path
         d="M 66.461884,179.97537 Q 66.461884,178.97562 66.752411,178.12112 67.042938,177.25809 67.581268,176.62576 68.128143,175.99344 68.905731,175.63455 69.683319,175.26712 70.65744,175.26712 71.640106,175.26712 72.417694,175.63455 73.203827,175.99344 73.742157,176.62576 74.289032,177.25809 74.579559,178.12112 74.870087,178.97562 74.870087,179.97537 V 180.16336 Q 74.870087,181.16312 74.579559,182.01761 74.289032,182.8721 73.742157,183.50443 73.203827,184.13675 72.426239,184.49564 71.648651,184.85452 70.67453,184.85452 69.691864,184.85452 68.905731,184.49564 68.128143,184.13675 67.581268,183.50443 67.042938,182.8721 66.752411,182.01761 66.461884,181.16312 66.461884,180.16336 Z M 68.042694,180.16336 Q 68.042694,180.84695 68.205048,181.47073 68.367401,182.08597 68.692108,182.55594 69.02536,183.02591 69.520966,183.29935 70.016571,183.57278 70.67453,183.57278 71.323944,183.57278 71.811005,183.29935 72.30661,183.02591 72.631317,182.55594 72.964569,182.08597 73.126923,181.47073 73.289276,180.84695 73.289276,180.16336 V 179.97537 Q 73.289276,179.30032 73.118378,178.68509 72.956024,178.06131 72.622772,177.59134 72.298065,177.12137 71.80246,176.84793 71.315399,176.56595 70.65744,176.56595 69.999481,176.56595 69.512421,176.84793 69.02536,177.12137 68.692108,177.59134 68.367401,178.06131 68.205048,178.68509 68.042694,179.30032 68.042694,179.97537 Z"
         style="font-size:17.5px"
         id="path970" />
      <path
         d="M 85.499969,179.18069 Q 85.491425,179.8472 85.380341,180.53079 85.277802,181.20584 85.055634,181.83817 84.833466,182.47049 84.483124,183.01736 84.141327,183.56424 83.662811,183.9744 83.184296,184.38455 82.560516,184.62381 81.945282,184.85452 81.176239,184.85452 80.407196,184.85452 79.783417,184.62381 79.168182,184.38455 78.689667,183.9744 78.211151,183.56424 77.860809,183.01736 77.510468,182.46194 77.279755,181.82962 77.057587,181.1973 76.946503,180.52225 76.835419,179.8472 76.826874,179.18069 V 177.76224 Q 76.835419,177.09573 76.937958,176.42068 77.049042,175.73709 77.27121,175.10477 77.501923,174.47244 77.843719,173.92557 78.194061,173.37015 78.672577,172.95999 79.151093,172.54129 79.766327,172.31058 80.390106,172.07132 81.159149,172.07132 81.928192,172.07132 82.551971,172.31058 83.175751,172.54129 83.654266,172.95145 84.132782,173.3616 84.474579,173.91702 84.824921,174.4639 85.047089,175.09622 85.277802,175.72855 85.380341,176.41214 85.491425,177.09573 85.499969,177.76224 Z M 83.936249,177.74515 Q 83.927704,177.30081 83.876434,176.8223 83.825165,176.33524 83.696991,175.86526 83.577362,175.38675 83.372284,174.9595 83.167206,174.52371 82.859589,174.19901 82.551971,173.86575 82.13327,173.67776 81.714569,173.48123 81.159149,173.48123 80.612274,173.48123 80.193573,173.67776 79.774872,173.8743 79.467255,174.20755 79.159637,174.53226 78.954559,174.96805 78.749481,175.39529 78.621307,175.87381 78.501678,176.34378 78.441864,176.83084 78.390594,177.30936 78.38205,177.74515 V 179.18069 Q 78.390594,179.61649 78.441864,180.10355 78.501678,180.59061 78.629852,181.06912 78.758026,181.53909 78.963104,181.97488 79.168182,182.41068 79.4758,182.74393 79.783417,183.06863 80.202118,183.26517 80.620819,183.4617 81.176239,183.4617 81.731659,183.4617 82.15036,183.26517 82.577606,183.06863 82.876678,182.74393 83.184296,182.41068 83.380829,181.98343 83.585907,181.54764 83.705536,181.07767 83.83371,180.59915 83.876434,180.11209 83.927704,179.62503 83.936249,179.18069 Z"
         style="font-size:17.5px"
         id="path972" />
      <path
         d="M 95.719696,179.9241 Q 95.719696,181.11185 95.446259,182.0347 95.172821,182.94901 94.660126,183.58133 94.14743,184.20511 93.404022,184.52982 92.660614,184.85452 91.703583,184.85452 90.755096,184.85452 90.003143,184.52982 89.259735,184.20511 88.738495,183.58133 88.217255,182.94901 87.935272,182.0347 87.661835,181.11185 87.661835,179.9241 V 177.01028 Q 87.661835,175.82254 87.935272,174.90823 88.20871,173.98538 88.721405,173.35306 89.242645,172.72073 89.986053,172.39603 90.738007,172.06277 91.686493,172.06277 92.643524,172.06277 93.386932,172.39603 94.138885,172.72073 94.651581,173.35306 95.172821,173.98538 95.446259,174.90823 95.719696,175.82254 95.719696,177.01028 Z M 89.25119,179.60794 94.096161,175.8909 Q 93.959442,174.65189 93.369843,174.01102 92.788788,173.3616 91.686493,173.3616 90.438934,173.3616 89.84079,174.20755 89.25119,175.04495 89.25119,176.65994 Z M 94.130341,177.40335 89.293915,181.1033 Q 89.439178,182.30814 90.037323,182.94046 90.635468,183.57278 91.703583,183.57278 92.959686,183.57278 93.540741,182.71829 94.130341,181.8638 94.130341,180.25735 Z"
         style="font-size:17.5px"
         id="path974" />
      <path
         d="M 106.0676,175.48929 Q 106.05905,176.42068 105.56345,177.147 105.06784,177.87332 104.23898,178.28348 104.7175,178.48856 105.10202,178.79617 105.49509,179.09525 105.76852,179.48831 106.05051,179.88138 106.19577,180.3428 106.34958,180.80423 106.34958,181.32547 106.34958,182.17142 106.03342,182.82938 105.7258,183.48734 105.18747,183.94022 104.65768,184.38455 103.93991,184.62381 103.22214,184.85452 102.40182,184.85452 101.56442,184.85452 100.8381,184.62381 100.12033,184.3931 99.582001,183.94876 99.052216,183.49588 98.744598,182.83792 98.436981,182.17996 98.436981,181.32547 98.436981,180.80423 98.582245,180.3428 98.727509,179.87283 99.000946,179.48831 99.274384,179.09525 99.658905,178.78763 100.04343,178.48001 100.52194,178.27493 100.11179,178.06985 99.778534,177.78787 99.445282,177.49734 99.214569,177.147 98.983856,176.78812 98.855682,176.36942 98.727509,175.95071 98.727509,175.48929 98.727509,174.67752 99.000946,174.0452 99.274384,173.40433 99.752899,172.96854 100.23996,172.53275 100.90646,172.30203 101.58151,172.07132 102.37619,172.07132 103.16232,172.07132 103.83737,172.30203 104.51242,172.53275 105.00803,172.96854 105.50363,173.40433 105.78561,174.0452 106.0676,174.67752 106.0676,175.48929 Z M 104.76877,181.29129 Q 104.76877,180.77005 104.58932,180.33426 104.41843,179.89847 104.10226,179.59085 103.7861,179.27469 103.34177,179.10379 102.90598,178.93289 102.38474,178.93289 101.84641,178.93289 101.41061,179.10379 100.97482,179.27469 100.66721,179.59085 100.35959,179.89847 100.18869,180.33426 100.02634,180.77005 100.02634,181.29129 100.02634,181.82962 100.18869,182.25687 100.35959,182.67557 100.66721,182.96609 100.97482,183.25662 101.41061,183.41043 101.85495,183.56424 102.40182,183.56424 102.92307,183.56424 103.35886,183.41043 103.79465,183.25662 104.10226,182.96609 104.41843,182.67557 104.58932,182.25687 104.76877,181.82962 104.76877,181.29129 Z M 104.47824,175.51492 Q 104.47824,175.04495 104.31589,174.65189 104.16208,174.25882 103.8801,173.97684 103.60666,173.68631 103.22214,173.5325 102.83762,173.37015 102.37619,173.37015 101.91476,173.37015 101.53879,173.52396 101.16281,173.66922 100.88937,173.9512 100.61594,174.23318 100.46213,174.6348 100.31686,175.02786 100.31686,175.51492 100.31686,176.00198 100.46213,176.39505 100.61594,176.77957 100.88937,177.06155 101.17136,177.33499 101.54733,177.4888 101.93185,177.63406 102.39328,177.63406 102.84616,177.63406 103.23068,177.4888 103.6152,177.33499 103.88864,177.06155 104.17062,176.77957 104.32443,176.38651 104.47824,175.99344 104.47824,175.51492 Z"
         style="font-size:17.5px"
         id="path976" />
      <path
         d="M 119.66257,175.43802 H 124.38791 V 183.31644 H 127.40427 V 184.68362 H 119.66257 V 183.31644 H 122.8071 V 176.81375 H 119.66257 Z M 122.60202,173.01126 Q 122.60202,172.61819 122.83273,172.3533 123.07199,172.07986 123.55051,172.07986 124.02048,172.07986 124.25974,172.3533 124.49899,172.61819 124.49899,173.01126 124.49899,173.39578 124.25974,173.65213 124.02048,173.90848 123.55051,173.90848 123.07199,173.90848 122.83273,173.65213 122.60202,173.39578 122.60202,173.01126 Z"
         style="font-size:17.5px"
         id="path978" />
      <path
         d="M 129.91647,172.24222 H 137.436 V 173.61795 H 134.45383 V 183.31644 H 137.436 V 184.68362 H 129.91647 V 183.31644 H 132.83029 V 173.61795 H 129.91647 Z"
         style="font-size:17.5px"
         id="path980" />
      <path
         d="M 140.66599,171.55862 H 145.39133 V 183.31644 H 148.40768 V 184.68362 H 140.66599 V 183.31644 H 143.81052 V 172.93436 H 140.66599 Z"
         style="font-size:17.5px"
         id="path982" />
      <path
         d="M 152.70578,183.34207 H 158.78976 V 184.68362 H 151.12497 V 172.24222 H 152.70578 Z"
         style="font-size:17.5px"
         id="path984" />
      <path
         d="M 166.54855,184.68362 H 164.96774 V 174.25882 L 161.71213,175.49783 V 174.05374 L 166.42038,172.24222 H 166.54855 Z"
         style="font-size:17.5px"
         id="path986" />
      <path
         d="M 189.29514,187.81107 Q 188.73972,187.79398 188.28683,187.62308 187.83395,187.45218 187.47507,187.16165 187.11618,186.87112 186.85129,186.4866 186.59494,186.10208 186.4155,185.65775 186.2446,185.22195 186.15915,184.75198 186.0737,184.29056 186.0737,183.83768 V 182.39359 Q 186.0737,181.16312 185.4841,180.6077 184.90305,180.05228 183.69821,180.04373 V 178.80472 Q 184.90305,178.80472 185.4841,178.25784 186.0737,177.70242 186.0737,176.46341 V 175.01077 Q 186.0737,174.55789 186.1506,174.09647 186.22751,173.6265 186.38986,173.1907 186.55222,172.74637 186.80002,172.36185 187.05637,171.97733 187.41525,171.6868 187.77414,171.39627 188.23557,171.22537 188.70554,171.05447 189.29514,171.03738 L 189.47458,172.02005 Q 188.85934,172.03714 188.49191,172.31058 188.13303,172.58401 187.94504,173.01126 187.76559,173.42996 187.71432,173.95975 187.66306,174.48953 187.66306,175.01077 V 176.46341 Q 187.65451,177.4888 187.18454,178.26639 186.71457,179.03543 185.72336,179.43704 186.71457,179.83011 187.18454,180.6077 187.65451,181.37674 187.66306,182.39359 V 183.83768 Q 187.66306,184.36746 187.7485,184.8887 187.83395,185.41849 188.03903,185.83719 188.25266,186.26443 188.59445,186.53787 188.94479,186.81131 189.47458,186.8284 Z"
         style="font-size:17.5px"
         id="path988" />
      <path
         d="M 194.19992,186.8284 Q 194.72116,186.81131 195.0715,186.53787 195.42184,186.26443 195.62692,185.83719 195.84055,185.41849 195.92599,184.8887 196.01999,184.36746 196.01999,183.83768 V 182.39359 Q 196.01999,181.37674 196.48996,180.6077 196.95993,179.83011 197.95114,179.43704 196.95993,179.03543 196.48996,178.26639 196.01999,177.4888 196.01999,176.46341 V 175.01077 Q 196.01999,174.48953 195.96017,173.95975 195.90891,173.42996 195.72092,173.01126 195.54147,172.58401 195.18259,172.31058 194.8237,172.03714 194.20847,172.02005 L 194.37936,171.03738 Q 194.96896,171.05447 195.43039,171.22537 195.90036,171.39627 196.25925,171.6868 196.61813,171.97733 196.86594,172.36185 197.12228,172.74637 197.28464,173.1907 197.44699,173.6265 197.5239,174.09647 197.6008,174.55789 197.6008,175.01077 V 176.46341 Q 197.6008,177.70242 198.1904,178.25784 198.78,178.80472 199.97629,178.80472 V 180.04373 Q 198.78,180.05228 198.1904,180.6077 197.6008,181.16312 197.6008,182.39359 V 183.83768 Q 197.6008,184.52127 197.41281,185.21341 197.22482,185.91409 196.82321,186.4866 196.43015,187.05911 195.82346,187.42654 195.21677,187.79398 194.37936,187.81107 Z"
         style="font-size:17.5px"
         id="path990" />
      <path
         d="M 219.46725,171.7637 H 217.57883 V 186.05081 H 219.46725 V 187.34964 H 216.08347 V 170.46487 H 219.46725 Z"
         style="font-size:17.5px"
         id="path992" />
      <path
         d="M 226.40573,170.46487 H 229.79807 V 187.34964 H 226.40573 V 186.05081 H 228.3027 V 171.7637 H 226.40573 Z"
         style="font-size:17.5px"
         id="path994" />
      <path
         d="M 245.14474,179.98392 Q 245.14474,178.94998 245.39255,178.08694 245.6489,177.21536 246.12741,176.59158 246.60593,175.9678 247.28952,175.61746 247.97311,175.26712 248.83615,175.26712 249.69064,175.26712 250.33151,175.57474 250.98093,175.87381 251.43381,176.44632 L 251.51071,175.43802 H 252.94626 V 184.48709 Q 252.94626,185.4014 252.65573,186.11063 252.37375,186.81985 251.85251,187.31546 251.33981,187.81107 250.62204,188.06741 249.90427,188.32376 249.03268,188.32376 248.6738,188.32376 248.21237,188.23831 247.75095,188.16141 247.27243,187.97342 246.80246,187.79398 246.35812,187.48636 245.92233,187.17874 245.60617,186.72586 L 246.42648,185.77737 Q 246.71701,186.12772 247.02463,186.36697 247.33224,186.61478 247.64841,186.76004 247.96457,186.9053 248.28073,186.96512 248.59689,187.03348 248.91306,187.03348 249.47702,187.03348 249.9299,186.87112 250.38278,186.70877 250.69894,186.39261 251.02365,186.08499 251.19455,185.62357 251.36545,185.16214 251.36545,184.564 V 183.76932 Q 250.90402,184.2991 250.2717,184.58109 249.64792,184.85452 248.81906,184.85452 247.97311,184.85452 247.28952,184.49564 246.60593,184.13675 246.12741,183.50443 245.65744,182.8721 245.40109,182.01761 245.14474,181.15457 245.14474,180.16336 Z M 246.72556,180.16336 Q 246.72556,180.83841 246.86227,181.4451 247.00754,182.05179 247.30661,182.51321 247.61423,182.97464 248.0842,183.24808 248.55417,183.51297 249.21213,183.51297 249.62228,183.51297 249.94699,183.41898 250.28024,183.31644 250.53659,183.13699 250.80148,182.95755 251.00656,182.70975 251.21164,182.46194 251.36545,182.16287 V 177.92459 Q 251.21164,177.63406 251.00656,177.39481 250.80148,177.15555 250.53659,176.98465 250.2717,176.80521 249.94699,176.71121 249.62228,176.60867 249.22922,176.60867 248.56271,176.60867 248.0842,176.88211 247.61423,177.15555 247.30661,177.62552 247.00754,178.08694 246.86227,178.70218 246.72556,179.30887 246.72556,179.98392 Z"
         style="font-size:17.5px"
         id="path996" />
      <path
         d="M 257.63742,183.28226 Q 258.48337,183.28226 259.12424,183.13699 259.76511,182.98318 260.23508,182.70975 260.71359,182.43631 261.02975,182.06888 261.34592,181.6929 261.54245,181.24857 261.74753,180.79568 261.84152,180.30008 261.93552,179.79593 261.96115,179.27469 261.75607,179.53104 261.49118,179.76175 261.22629,179.98392 260.89304,180.15482 260.55978,180.32571 260.14963,180.42825 259.74802,180.52225 259.2695,180.52225 258.34665,180.52225 257.6716,180.16336 257.0051,179.79593 256.56931,179.20633 256.13351,178.61673 255.92844,177.87332 255.72336,177.12991 255.72336,176.37796 255.72336,175.49783 255.96262,174.72025 256.21042,173.93411 256.68893,173.35306 257.17599,172.76346 257.89377,172.42166 258.62009,172.07132 259.57712,172.07132 260.29489,172.07132 260.8674,172.2764 261.44846,172.47293 261.88425,172.83182 262.32858,173.18216 262.64474,173.66922 262.96091,174.14774 263.15744,174.7117 263.36252,175.26712 263.45651,175.88235 263.55051,176.48904 263.55051,177.10428 V 177.67679 Q 263.55051,178.47147 263.4736,179.30887 263.3967,180.13773 263.16599,180.91531 262.94382,181.6929 262.53366,182.38504 262.1235,183.06863 261.46555,183.58133 260.80759,184.09402 259.86765,184.3931 258.9277,184.69217 257.63742,184.69217 H 257.47507 V 183.28226 Z M 259.52585,179.21487 Q 259.92746,179.21487 260.30344,179.0867 260.68796,178.94998 261.00412,178.71072 261.32883,178.46292 261.57663,178.13821 261.83298,177.80496 261.97824,177.40335 V 176.89066 Q 261.97824,176.0618 261.78171,175.41238 261.59372,174.76297 261.26047,174.31863 260.93576,173.86575 260.49997,173.6265 260.07272,173.38724 259.58566,173.38724 259.03024,173.38724 258.603,173.60941 258.17575,173.83157 257.87668,174.22464 257.58615,174.60916 257.43234,175.14749 257.27853,175.67728 257.27853,176.29251 257.27853,176.83939 257.41525,177.36917 257.55197,177.89041 257.82541,178.30057 258.10739,178.71072 258.52609,178.96707 258.95334,179.21487 259.52585,179.21487 Z"
         style="font-size:17.5px"
         id="path998" />
      <path
         d="M 266.14816,179.98392 Q 266.14816,178.94998 266.39597,178.08694 266.64377,177.21536 267.12228,176.59158 267.6008,175.9678 268.29294,175.61746 268.99362,175.26712 269.88229,175.26712 270.70261,175.26712 271.32639,175.5491 271.95871,175.82254 272.42014,176.35233 L 272.48849,175.43802 H 273.94113 V 188.23831 H 272.36032 V 183.84622 Q 271.8989,184.33328 271.28366,184.59818 270.66843,184.85452 269.8652,184.85452 268.98508,184.85452 268.29294,184.49564 267.60934,184.13675 267.13083,183.50443 266.65231,182.8721 266.39597,182.01761 266.14816,181.15457 266.14816,180.16336 Z M 267.72897,180.16336 Q 267.72897,180.83841 267.87424,181.45364 268.02805,182.06888 268.33566,182.53885 268.64328,183.00882 269.11325,183.2908 269.59177,183.56424 270.24973,183.56424 271.01022,183.56424 271.52292,183.22244 272.03561,182.88065 272.36032,182.33377 V 177.77078 Q 272.19797,177.50589 271.98434,177.29227 271.77927,177.0701 271.51437,176.90775 271.25803,176.74539 270.94186,176.65994 270.63425,176.56595 270.26682,176.56595 269.60886,176.56595 269.13034,176.84793 268.65182,177.12991 268.33566,177.60843 268.02805,178.0784 267.87424,178.69363 267.72897,179.30887 267.72897,179.98392 Z"
         style="font-size:17.5px"
         id="path1000" />
      <path
         d="M 284.99826,180.94095 Q 284.88718,181.80399 284.55392,182.5303 284.22067,183.24808 283.68234,183.76932 283.15256,184.28201 282.41769,184.57254 281.69138,184.85452 280.79416,184.85452 280.02512,184.85452 279.39279,184.6409 278.76901,184.41873 278.27341,184.03421 277.78635,183.64969 277.42746,183.12845 277.07712,182.60721 276.83786,181.99197 276.60715,181.37674 276.48752,180.70169 276.37643,180.02664 276.36789,179.3345 V 177.59988 Q 276.37643,176.90775 276.48752,176.2327 276.60715,175.55765 276.83786,174.94241 277.07712,174.32718 277.42746,173.80594 277.78635,173.27615 278.27341,172.89163 278.76901,172.50711 279.39279,172.29349 280.01657,172.07132 280.79416,172.07132 281.72556,172.07132 282.46042,172.36185 283.19528,172.64383 283.72507,173.17361 284.25485,173.69485 284.57101,174.42972 284.89572,175.16458 284.99826,176.05325 H 283.41745 Q 283.34055,175.48929 283.15256,175.00223 282.96457,174.51517 282.64841,174.14774 282.33224,173.7803 281.87082,173.57523 281.41794,173.3616 280.79416,173.3616 280.23019,173.3616 279.7944,173.54959 279.36716,173.72903 279.05099,174.0452 278.74338,174.36136 278.52975,174.78006 278.32468,175.19876 278.1965,175.66873 278.06833,176.1387 278.00851,176.63431 277.95724,177.12137 277.95724,177.58279 V 179.3345 Q 277.95724,179.79593 278.00851,180.29153 278.06833,180.77859 278.1965,181.25711 278.32468,181.72708 278.52975,182.14578 278.73483,182.56448 279.05099,182.88919 279.36716,183.20535 279.7944,183.39334 280.22165,183.57278 280.79416,183.57278 281.41794,183.57278 281.87082,183.37625 282.33224,183.17972 282.64841,182.82938 282.96457,182.47049 283.15256,181.99197 283.34055,181.50491 283.41745,180.94095 Z"
         style="font-size:17.5px"
         id="path1002" />
      <path
         d="M 295.49142,183.05154 Q 294.70529,183.9744 293.68845,184.41873 292.6716,184.86307 291.45822,184.85452 290.68918,184.84598 290.03976,184.62381 289.3989,184.3931 288.8862,184.00003 288.3735,183.59842 287.98898,183.06009 287.60446,182.52176 287.33957,181.89798 287.08322,181.26566 286.9465,180.58206 286.81833,179.88992 286.80978,179.18924 V 177.74515 Q 286.81833,177.05301 286.92941,176.36942 287.04904,175.67728 287.2883,175.04495 287.52756,174.41263 287.88644,173.8743 288.24533,173.32742 288.74094,172.93436 289.24509,172.53275 289.87741,172.30203 290.50974,172.07132 291.29587,172.07132 292.16745,172.07132 292.90231,172.34476 293.63718,172.60965 294.18405,173.1138 294.73093,173.60941 295.06418,174.31863 295.39743,175.01932 295.47433,175.8909 H 293.91061 Q 293.81662,175.35257 293.62009,174.89969 293.42355,174.43826 293.09885,174.11356 292.78268,173.78885 292.33835,173.60941 291.89401,173.42142 291.30441,173.42142 290.74045,173.42142 290.30466,173.61795 289.86887,173.80594 289.54416,174.13065 289.21945,174.45535 289.00583,174.89114 288.79221,175.31839 288.65549,175.79691 288.51877,176.27542 288.45895,176.77103 288.39914,177.26663 288.39914,177.72806 V 179.18924 Q 288.40768,179.65921 288.47604,180.16336 288.55295,180.65897 288.70676,181.13748 288.86057,181.616 289.09982,182.04324 289.33908,182.47049 289.67233,182.7952 290.01413,183.1199 290.45847,183.31644 290.9028,183.50443 291.46677,183.51297 291.79147,183.52151 292.14182,183.48734 292.5007,183.45316 292.83395,183.35062 293.16721,183.24808 293.45773,183.07718 293.74826,182.89774 293.94479,182.61575 L 293.96188,179.82156 H 291.43259 V 178.48856 H 295.46579 Z"
         style="font-size:17.5px"
         id="path1004" />
      <path
         d="M 306.14694,179.01834 Q 306.1384,179.71048 306.02731,180.41116 305.91623,181.11185 305.68552,181.76126 305.46335,182.41068 305.10446,182.98318 304.75412,183.54715 304.25851,183.96585 L 306.40329,185.75174 305.31808,186.78568 302.85715,184.70071 Q 302.32736,184.85452 301.71213,184.85452 300.91745,184.85452 300.28513,184.61526 299.6528,184.36746 299.1572,183.94876 298.67014,183.53006 298.31125,182.96609 297.95236,182.39359 297.72165,181.74417 297.49094,181.09476 297.37985,180.40262 297.26877,179.70193 297.26022,179.01834 V 177.92459 Q 297.26877,177.241 297.37985,176.54031 297.49094,175.83963 297.72165,175.19022 297.95236,174.5408 298.3027,173.97684 298.65305,173.40433 299.14011,172.98563 299.63571,172.55838 300.26804,172.31912 300.90891,172.07132 301.70358,172.07132 302.49826,172.07132 303.13058,172.31912 303.77145,172.55838 304.25851,172.97708 304.75412,173.39578 305.10446,173.96829 305.46335,174.53226 305.68552,175.18167 305.91623,175.83109 306.02731,176.54031 306.1384,177.241 306.14694,177.92459 Z M 304.57468,177.9075 Q 304.56613,177.43753 304.51486,176.93338 304.47214,176.42068 304.34396,175.93362 304.22433,175.43802 304.01071,174.99368 303.80563,174.54935 303.48947,174.21609 303.17331,173.8743 302.72897,173.67776 302.29318,173.48123 301.70358,173.48123 301.12253,173.48123 300.68674,173.68631 300.25095,173.88284 299.93478,174.22464 299.61862,174.55789 299.405,175.00223 299.19992,175.44656 299.07175,175.94217 298.94357,176.42923 298.88376,176.94193 298.83249,177.44608 298.83249,177.9075 V 179.01834 Q 298.83249,179.47977 298.88376,179.99246 298.94357,180.49661 299.07175,180.99222 299.19992,181.48782 299.405,181.93216 299.61862,182.3765 299.93478,182.71829 300.25095,183.06009 300.68674,183.26517 301.13107,183.4617 301.71213,183.4617 302.30173,183.4617 302.73752,183.26517 303.18185,183.06009 303.49802,182.72684 303.81418,182.38504 304.01926,181.9407 304.22433,181.49637 304.34396,181.00076 304.47214,180.50516 304.51486,180.00101 304.56613,179.48831 304.57468,179.01834 Z"
         style="font-size:17.5px"
         id="path1006" />
      <path
         d="M 327.54343,178.36038 Q 327.54343,178.92435 327.35544,179.44559 327.16745,179.96683 326.82565,180.36844 326.48386,180.77005 326.01389,181.00931 325.54391,181.24857 324.97141,181.24857 324.56979,181.24857 324.21945,181.17166 323.87766,181.09476 323.5444,180.94095 323.2197,180.78714 322.89499,180.56497 322.57883,180.3428 322.23703,180.05228 321.76706,179.66776 321.33981,179.44559 320.91257,179.21487 320.43405,179.22342 320.13498,179.22342 319.87009,179.35159 319.61374,179.47122 319.42575,179.68484 319.23776,179.88992 319.12668,180.18045 319.01559,180.46243 319.01559,180.78714 L 317.87057,180.64188 Q 317.87057,180.07791 318.05856,179.56522 318.24655,179.05252 318.5798,178.668 318.9216,178.28348 319.39157,178.06131 319.86154,177.8306 320.43405,177.8306 320.82712,177.8306 321.17746,177.91605 321.53635,177.99295 321.8696,178.14676 322.20285,178.30057 322.51901,178.52274 322.84372,178.7449 323.17697,179.01834 323.66403,179.4285 324.07419,179.65067 324.49289,179.86429 324.97141,179.85574 325.27048,179.85574 325.52682,179.71902 325.79172,179.58231 325.97971,179.36014 326.17624,179.12943 326.28732,178.83035 326.39841,178.53128 326.39841,178.20657 Z"
         style="font-size:17.5px"
         id="path1008" />
      <path
         d="M 336.36179,179.88992 H 329.82492 V 178.59109 H 336.36179 Z"
         style="font-size:17.5px"
         id="path1010" />
      <path
         d="M 344.53928,178.01004 H 348.01706 V 179.58231 H 344.53928 V 183.43607 H 342.95847 V 179.58231 H 339.48923 V 178.01004 H 342.95847 V 174.37845 H 344.53928 Z"
         style="font-size:17.5px"
         id="path1012" />
      <path
         d="M 358.08298,178.01859 H 350.45236 V 176.64285 H 358.08298 Z M 358.08298,181.56473 H 350.45236 V 180.19754 H 358.08298 Z"
         style="font-size:17.5px"
         id="path1014" />
      <path
         d="M 360.9968,176.91629 V 175.28421 L 368.54196,178.51419 V 179.76175 L 360.9968,183.00027 V 181.35965 L 366.52536,179.27469 367.03806,179.12943 366.52536,178.96707 Z"
         style="font-size:17.5px"
         id="path1016" />
    </g>
  </g>
</svg>
