<?xml version="1.0" encoding="UTF-8" standalone="no"?>
<svg
   version="1.1"
   id="svg2"
   viewBox="0 0 359.67162 107.24999"
   height="30.26833mm"
   width="101.50732mm"
   sodipodi:docname="SauceCodePro Nerd Font.svg"
   inkscape:version="1.1.2 (0a00cf5339, 2022-02-04)"
   xmlns:inkscape="http://www.inkscape.org/namespaces/inkscape"
   xmlns:sodipodi="http://sodipodi.sourceforge.net/DTD/sodipodi-0.dtd"
   xmlns="http://www.w3.org/2000/svg"
   xmlns:svg="http://www.w3.org/2000/svg"
   xmlns:rdf="http://www.w3.org/1999/02/22-rdf-syntax-ns#"
   xmlns:cc="http://creativecommons.org/ns#"
   xmlns:dc="http://purl.org/dc/elements/1.1/">
  <sodipodi:namedview
     id="namedview12"
     pagecolor="#ffffff"
     bordercolor="#666666"
     borderopacity="1.0"
     inkscape:pageshadow="2"
     inkscape:pageopacity="0.0"
     inkscape:pagecheckerboard="0"
     inkscape:document-units="mm"
     showgrid="false"
     inkscape:zoom="0.64052329"
     inkscape:cx="328.63754"
     inkscape:cy="473.83133"
     inkscape:window-width="1458"
     inkscape:window-height="976"
     inkscape:window-x="0"
     inkscape:window-y="32"
     inkscape:window-maximized="0"
     inkscape:current-layer="svg2" />
  <defs
     id="defs4" />
  <metadata
     id="metadata7">
    <rdf:RDF>
      <cc:Work
         rdf:about="">
        <dc:format>image/svg+xml</dc:format>
        <dc:type
           rdf:resource="http://purl.org/dc/dcmitype/StillImage" />
      </cc:Work>
    </rdf:RDF>
  </metadata>
  <g
     id="layer1"
     transform="translate(-64.699643,-81.353632)">
    <g
       aria-label="SauceCodePro Nerd Font"
       id="text4136"
       style="font-size:27.5px;line-height:125%;font-family:'SauceCodePro Nerd Font';text-decoration:underline;text-decoration-line:underline;letter-spacing:0px;word-spacing:0px;fill:#ffffff;stroke-width:1px">
      <path
         d="M 71.244643,101.26363 Q 69.264643,101.26363 67.587143,100.54863 65.909643,99.806132 64.699643,98.596132 L 66.074643,97.001132 Q 67.092143,98.018632 68.439643,98.651132 69.814643,99.256132 71.354643,99.256132 73.224643,99.256132 74.242143,98.458632 75.287143,97.661132 75.287143,96.396132 75.287143,95.433632 74.847143,94.856132 74.434643,94.278632 73.692143,93.893632 72.977143,93.508632 72.042143,93.123632 L 69.457143,91.996132 Q 68.549643,91.638632 67.642143,91.061132 66.762143,90.483632 66.157143,89.576132 65.552143,88.668632 65.552143,87.348632 65.552143,85.973632 66.294643,84.901132 67.064643,83.801132 68.384643,83.196132 69.732143,82.563632 71.464643,82.563632 73.169643,82.563632 74.599643,83.196132 76.029643,83.801132 77.019643,84.791132 L 75.809643,86.276132 Q 74.929643,85.478632 73.857143,85.038632 72.784643,84.571132 71.382143,84.571132 69.814643,84.571132 68.852143,85.286132 67.889643,86.001132 67.889643,87.211132 67.889643,88.063632 68.357143,88.613632 68.852143,89.163632 69.594643,89.521132 70.337143,89.878632 71.107143,90.208632 L 73.637143,91.308632 Q 74.764643,91.748632 75.644643,92.381132 76.552143,92.986132 77.074643,93.893632 77.624643,94.773632 77.624643,96.121132 77.624643,97.551132 76.854643,98.733632 76.084643,99.888632 74.654643,100.57613 73.224643,101.26363 71.244643,101.26363 Z"
         id="path829" />
      <path
         d="M 86.122101,101.26363 Q 84.884601,101.26363 83.839601,100.82363 82.822101,100.35613 82.189601,99.503632 81.584601,98.651132 81.584601,97.468632 81.584601,95.956132 82.547101,94.966132 83.537101,93.948632 85.682101,93.343632 87.827101,92.738632 91.264601,92.463632 91.237101,91.556132 90.879601,90.813632 90.549601,90.043632 89.779601,89.576132 89.009601,89.108632 87.717101,89.108632 86.424601,89.108632 85.187101,89.631132 83.977101,90.126132 83.042101,90.703632 L 82.162101,89.163632 Q 83.179601,88.503632 84.747101,87.871132 86.342101,87.238632 88.102101,87.238632 90.852101,87.238632 92.172101,88.751132 93.519601,90.236132 93.519601,92.738632 V 100.93363 H 91.677101 L 91.484601,99.118632 H 91.402101 Q 90.302101,99.971132 88.927101,100.63113 87.552101,101.26363 86.122101,101.26363 Z M 86.727101,99.448632 Q 87.854601,99.448632 88.982101,98.926132 90.137101,98.403632 91.264601,97.468632 V 93.948632 Q 88.404601,94.168632 86.754601,94.636132 85.132101,95.076132 84.444601,95.763632 83.784601,96.423632 83.784601,97.303632 83.784601,98.431132 84.664601,98.953632 85.572101,99.448632 86.727101,99.448632 Z"
         id="path831" />
      <path
         d="M 102.62206,101.26363 Q 100.22956,101.26363 99.102059,99.888632 97.974559,98.513632 97.974559,95.873632 V 87.568632 H 100.25706 V 95.571132 Q 100.25706,97.468632 100.94456,98.403632 101.65956,99.311132 103.33706,99.311132 104.49206,99.311132 105.42706,98.733632 106.38956,98.128632 107.48956,96.836132 V 87.568632 H 109.74456 V 100.93363 H 107.90206 L 107.70956,98.596132 H 107.59956 Q 106.58206,99.778632 105.37206,100.52113 104.16206,101.26363 102.62206,101.26363 Z"
         id="path833" />
      <path
         d="M 121.87202,101.26363 Q 119.78202,101.26363 118.13202,100.43863 116.48202,99.613632 115.51952,98.046132 114.55702,96.478632 114.55702,94.278632 114.55702,92.023632 115.57452,90.456132 116.59202,88.888632 118.29702,88.063632 120.00202,87.238632 122.00952,87.238632 123.63202,87.238632 124.84202,87.816132 126.05202,88.393632 126.87702,89.191132 L 125.74952,90.648632 Q 124.92452,89.933632 124.01702,89.521132 123.13702,89.108632 122.09202,89.108632 120.55202,89.108632 119.36952,89.768632 118.21452,90.401132 117.55452,91.583632 116.89452,92.738632 116.89452,94.278632 116.89452,95.791132 117.52702,96.946132 118.18702,98.101132 119.34202,98.761132 120.49702,99.393632 122.03702,99.393632 123.27452,99.393632 124.29202,98.898632 125.33702,98.403632 126.16202,97.716132 L 127.17952,99.173632 Q 126.07952,100.16363 124.70452,100.71363 123.35702,101.26363 121.87202,101.26363 Z"
         id="path835" />
      <path
         d="M 137.60198,89.026132 Q 135.95198,89.026132 134.65948,90.098632 133.36698,91.143632 133.06448,93.123632 H 141.58948 Q 141.45198,91.061132 140.37948,90.043632 139.30698,89.026132 137.60198,89.026132 Z M 137.93198,101.26363 Q 135.92448,101.26363 134.27448,100.43863 132.65198,99.613632 131.68948,98.046132 130.72698,96.451132 130.72698,94.223632 130.72698,92.051132 131.68948,90.483632 132.65198,88.916132 134.19198,88.091132 135.75948,87.238632 137.54698,87.238632 140.43448,87.238632 142.02948,88.971132 143.65198,90.676132 143.65198,93.508632 143.65198,93.893632 143.62448,94.251132 143.59698,94.608632 143.54198,94.883632 H 133.00948 Q 133.22948,97.138632 134.65948,98.293632 136.11698,99.448632 138.20698,99.448632 139.41698,99.448632 140.37948,99.118632 141.36948,98.761132 142.27698,98.183632 L 143.10198,99.668632 Q 142.11198,100.32863 140.81948,100.79613 139.55448,101.26363 137.93198,101.26363 Z"
         id="path837" />
      <path
         d="M 155.00943,101.26363 Q 152.78193,101.26363 150.99443,100.16363 149.23443,99.036132 148.18943,96.946132 147.14443,94.856132 147.14443,91.913632 147.14443,88.998632 148.18943,86.908632 149.23443,84.818632 151.04943,83.691132 152.89193,82.563632 155.22943,82.563632 156.85193,82.563632 158.11693,83.223632 159.38193,83.883632 160.15193,84.763632 L 158.85943,86.221132 Q 158.17193,85.478632 157.26443,85.038632 156.35693,84.571132 155.22943,84.571132 153.49693,84.571132 152.20443,85.478632 150.93943,86.358632 150.22443,87.981132 149.50943,89.603632 149.50943,91.858632 149.50943,94.113632 150.22443,95.791132 150.93943,97.441132 152.20443,98.348632 153.49693,99.256132 155.22943,99.256132 156.46693,99.256132 157.45693,98.733632 158.44693,98.211132 159.29943,97.248632 L 160.59193,98.651132 Q 159.51943,99.888632 158.14443,100.57613 156.79693,101.26363 155.00943,101.26363 Z"
         id="path839" />
      <path
         d="M 170.10689,101.26363 Q 168.34689,101.26363 166.83439,100.43863 165.34939,99.613632 164.41439,98.046132 163.50689,96.478632 163.50689,94.278632 163.50689,92.023632 164.41439,90.456132 165.34939,88.888632 166.83439,88.063632 168.34689,87.238632 170.10689,87.238632 171.86689,87.238632 173.35189,88.063632 174.86439,88.888632 175.77189,90.456132 176.70689,92.023632 176.70689,94.278632 176.70689,96.478632 175.77189,98.046132 174.86439,99.613632 173.35189,100.43863 171.86689,101.26363 170.10689,101.26363 Z M 170.10689,99.393632 Q 172.03189,99.393632 173.18689,97.991132 174.36939,96.561132 174.36939,94.278632 174.36939,91.968632 173.18689,90.538632 172.03189,89.108632 170.10689,89.108632 168.18189,89.108632 166.99939,90.538632 165.84439,91.968632 165.84439,94.278632 165.84439,96.561132 166.99939,97.991132 168.18189,99.393632 170.10689,99.393632 Z"
         id="path841" />
      <path
         d="M 185.80935,101.26363 Q 183.19685,101.26363 181.60185,99.448632 180.00685,97.606132 180.00685,94.278632 180.00685,92.106132 180.85935,90.538632 181.73935,88.943632 183.11435,88.091132 184.51685,87.238632 186.08435,87.238632 187.29435,87.238632 188.25685,87.706132 189.21935,88.146132 190.07185,88.971132 H 190.15435 L 190.04435,86.496132 V 81.353632 H 192.29935 V 100.93363 H 190.42935 L 190.23685,99.173632 H 190.15435 Q 189.32935,100.02613 188.17435,100.65863 187.04685,101.26363 185.80935,101.26363 Z M 186.27685,99.366132 Q 188.25685,99.366132 190.04435,97.358632 V 90.703632 Q 189.13685,89.851132 188.25685,89.493632 187.40435,89.136132 186.52435,89.136132 185.36935,89.136132 184.40685,89.796132 183.47185,90.428632 182.89435,91.583632 182.34435,92.711132 182.34435,94.251132 182.34435,96.643632 183.38935,98.018632 184.43435,99.366132 186.27685,99.366132 Z"
         id="path843" />
      <path
         d="M 203.60181,89.026132 Q 201.95181,89.026132 200.65931,90.098632 199.36681,91.143632 199.06431,93.123632 H 207.58931 Q 207.45181,91.061132 206.37931,90.043632 205.30681,89.026132 203.60181,89.026132 Z M 203.93181,101.26363 Q 201.92431,101.26363 200.27431,100.43863 198.65181,99.613632 197.68931,98.046132 196.72681,96.451132 196.72681,94.223632 196.72681,92.051132 197.68931,90.483632 198.65181,88.916132 200.19181,88.091132 201.75931,87.238632 203.54681,87.238632 206.43431,87.238632 208.02931,88.971132 209.65181,90.676132 209.65181,93.508632 209.65181,93.893632 209.62431,94.251132 209.59681,94.608632 209.54181,94.883632 H 199.00931 Q 199.22931,97.138632 200.65931,98.293632 202.11681,99.448632 204.20681,99.448632 205.41681,99.448632 206.37931,99.118632 207.36931,98.761132 208.27681,98.183632 L 209.10181,99.668632 Q 208.11181,100.32863 206.81931,100.79613 205.55431,101.26363 203.93181,101.26363 Z"
         id="path845" />
      <path
         d="M 214.16176,100.93363 V 82.893632 H 219.60676 Q 221.61426,82.893632 223.09926,83.388632 224.61176,83.883632 225.43676,85.066132 226.28926,86.221132 226.28926,88.201132 226.28926,90.098632 225.43676,91.336132 224.61176,92.573632 223.09926,93.178632 221.58676,93.783632 219.60676,93.783632 H 216.44426 V 100.93363 Z M 216.44426,91.913632 H 219.33176 Q 221.69676,91.913632 222.82426,91.033632 223.97926,90.126132 223.97926,88.201132 223.97926,86.248632 222.82426,85.506132 221.66926,84.736132 219.33176,84.736132 H 216.44426 Z"
         id="path847" />
      <path
         d="M 231.87172,100.93363 V 87.568632 H 233.74172 L 233.93422,90.731132 H 234.01672 Q 235.06172,89.108632 236.60172,88.173632 238.14172,87.238632 239.98422,87.238632 240.72672,87.238632 241.35922,87.376132 242.01922,87.486132 242.62422,87.788632 L 242.10172,89.741132 Q 241.41422,89.493632 240.91922,89.383632 240.42422,89.273632 239.62672,89.273632 238.11422,89.273632 236.71172,90.153632 235.33672,91.006132 234.12672,93.096132 V 100.93363 Z"
         id="path849" />
      <path
         d="M 252.60669,101.26363 Q 250.84669,101.26363 249.33419,100.43863 247.84919,99.613632 246.91419,98.046132 246.00669,96.478632 246.00669,94.278632 246.00669,92.023632 246.91419,90.456132 247.84919,88.888632 249.33419,88.063632 250.84669,87.238632 252.60669,87.238632 254.36669,87.238632 255.85169,88.063632 257.36419,88.888632 258.27169,90.456132 259.20669,92.023632 259.20669,94.278632 259.20669,96.478632 258.27169,98.046132 257.36419,99.613632 255.85169,100.43863 254.36669,101.26363 252.60669,101.26363 Z M 252.60669,99.393632 Q 254.53169,99.393632 255.68669,97.991132 256.86919,96.561132 256.86919,94.278632 256.86919,91.968632 255.68669,90.538632 254.53169,89.108632 252.60669,89.108632 250.68169,89.108632 249.49919,90.538632 248.34419,91.968632 248.34419,94.278632 248.34419,96.561132 249.49919,97.991132 250.68169,99.393632 252.60669,99.393632 Z"
         id="path851" />
      <path
         d="M 279.61159,100.93363 V 82.893632 H 282.14159 L 287.91659,94.223632 289.64909,97.963632 H 289.70409 Q 289.64909,96.616132 289.51159,95.158632 289.40159,93.673632 289.40159,92.243632 V 82.893632 H 291.60159 V 100.93363 H 289.07159 L 283.29659,89.603632 281.56409,85.863632 H 281.50909 Q 281.56409,87.238632 281.67409,88.668632 281.81159,90.098632 281.81159,91.501132 V 100.93363 Z"
         id="path853" />
      <path
         d="M 302.60156,89.026132 Q 300.95156,89.026132 299.65906,90.098632 298.36656,91.143632 298.06406,93.123632 H 306.58906 Q 306.45156,91.061132 305.37906,90.043632 304.30656,89.026132 302.60156,89.026132 Z M 302.93156,101.26363 Q 300.92406,101.26363 299.27406,100.43863 297.65156,99.613632 296.68906,98.046132 295.72656,96.451132 295.72656,94.223632 295.72656,92.051132 296.68906,90.483632 297.65156,88.916132 299.19156,88.091132 300.75906,87.238632 302.54656,87.238632 305.43406,87.238632 307.02906,88.971132 308.65156,90.676132 308.65156,93.508632 308.65156,93.893632 308.62406,94.251132 308.59656,94.608632 308.54156,94.883632 H 298.00906 Q 298.22906,97.138632 299.65906,98.293632 301.11656,99.448632 303.20656,99.448632 304.41656,99.448632 305.37906,99.118632 306.36906,98.761132 307.27656,98.183632 L 308.10156,99.668632 Q 307.11156,100.32863 305.81906,100.79613 304.55406,101.26363 302.93156,101.26363 Z"
         id="path855" />
      <path
         d="M 314.37152,100.93363 V 87.568632 H 316.24152 L 316.43402,90.731132 H 316.51652 Q 317.56152,89.108632 319.10152,88.173632 320.64152,87.238632 322.48402,87.238632 323.22652,87.238632 323.85902,87.376132 324.51902,87.486132 325.12402,87.788632 L 324.60152,89.741132 Q 323.91402,89.493632 323.41902,89.383632 322.92402,89.273632 322.12652,89.273632 320.61402,89.273632 319.21152,90.153632 317.83652,91.006132 316.62652,93.096132 V 100.93363 Z"
         id="path857" />
      <path
         d="M 334.30897,101.26363 Q 331.69647,101.26363 330.10147,99.448632 328.50647,97.606132 328.50647,94.278632 328.50647,92.106132 329.35897,90.538632 330.23897,88.943632 331.61397,88.091132 333.01647,87.238632 334.58397,87.238632 335.79397,87.238632 336.75647,87.706132 337.71897,88.146132 338.57147,88.971132 H 338.65397 L 338.54397,86.496132 V 81.353632 H 340.79897 V 100.93363 H 338.92897 L 338.73647,99.173632 H 338.65397 Q 337.82897,100.02613 336.67397,100.65863 335.54647,101.26363 334.30897,101.26363 Z M 334.77647,99.366132 Q 336.75647,99.366132 338.54397,97.358632 V 90.703632 Q 337.63647,89.851132 336.75647,89.493632 335.90397,89.136132 335.02397,89.136132 333.86897,89.136132 332.90647,89.796132 331.97147,90.428632 331.39397,91.583632 330.84397,92.711132 330.84397,94.251132 330.84397,96.643632 331.88897,98.018632 332.93397,99.366132 334.77647,99.366132 Z"
         id="path859" />
      <path
         d="M 363.51388,100.93363 V 82.893632 H 374.59638 V 84.818632 H 365.82388 V 90.923632 H 373.24888 V 92.848632 H 365.82388 V 100.93363 Z"
         id="path861" />
      <path
         d="M 384.60635,101.26363 Q 382.84635,101.26363 381.33385,100.43863 379.84885,99.613632 378.91385,98.046132 378.00635,96.478632 378.00635,94.278632 378.00635,92.023632 378.91385,90.456132 379.84885,88.888632 381.33385,88.063632 382.84635,87.238632 384.60635,87.238632 386.36635,87.238632 387.85135,88.063632 389.36385,88.888632 390.27135,90.456132 391.20635,92.023632 391.20635,94.278632 391.20635,96.478632 390.27135,98.046132 389.36385,99.613632 387.85135,100.43863 386.36635,101.26363 384.60635,101.26363 Z M 384.60635,99.393632 Q 386.53135,99.393632 387.68635,97.991132 388.86885,96.561132 388.86885,94.278632 388.86885,91.968632 387.68635,90.538632 386.53135,89.108632 384.60635,89.108632 382.68135,89.108632 381.49885,90.538632 380.34385,91.968632 380.34385,94.278632 380.34385,96.561132 381.49885,97.991132 382.68135,99.393632 384.60635,99.393632 Z"
         id="path863" />
      <path
         d="M 395.41379,100.93363 V 87.568632 H 397.28379 L 397.47629,89.851132 H 397.58629 Q 398.63129,88.723632 399.84129,87.981132 401.05129,87.238632 402.61879,87.238632 404.98379,87.238632 406.11129,88.613632 407.23879,89.988632 407.23879,92.628632 V 100.93363 H 404.98379 V 92.931132 Q 404.98379,91.033632 404.26879,90.126132 403.55379,89.191132 401.90379,89.191132 400.72129,89.191132 399.78629,89.796132 398.85129,90.401132 397.66879,91.611132 V 100.93363 Z"
         id="path865" />
      <path
         d="M 420.19126,101.26363 Q 418.23876,101.26363 417.11126,100.57613 415.98376,99.861132 415.48876,98.623632 415.02126,97.386132 415.02126,95.736132 V 89.411132 H 411.25376 V 87.706132 L 415.10376,87.568632 415.40626,83.278632 H 417.27626 V 87.568632 H 423.84876 V 89.411132 H 417.27626 V 95.763632 Q 417.27626,97.551132 417.99126,98.486132 418.73376,99.421132 420.65876,99.421132 421.62126,99.421132 422.39126,99.256132 423.16126,99.091132 423.87626,98.816132 L 424.37126,100.46613 Q 423.46376,100.79613 422.44626,101.01613 421.45626,101.26363 420.19126,101.26363 Z"
         id="path867" />
    </g>
    <g
       aria-label="abcdefghijklmnopqrstuvwxyzABCDEFGHIJKLMNOPQRSTUVWXYZ oO08 iIlL1 {} [] g9qCGQ ~-+=&gt;"
       id="text4140"
       style="font-size:27.5px;line-height:125%;font-family:'SauceCodePro Nerd Font';letter-spacing:0px;word-spacing:0px;fill:#ffffff;stroke-width:1px">
      <path
         d="M 69.724403,141.14362 Q 68.936903,141.14362 68.271903,140.86362 67.624403,140.56612 67.221903,140.02362 66.836903,139.48112 66.836903,138.72862 66.836903,137.76612 67.449403,137.13612 68.079403,136.48862 69.444403,136.10362 70.809403,135.71862 72.996903,135.54362 72.979403,134.96612 72.751903,134.49362 72.541903,134.00362 72.051903,133.70612 71.561903,133.40862 70.739403,133.40862 69.916903,133.40862 69.129403,133.74112 68.359403,134.05612 67.764403,134.42362 L 67.204403,133.44362 Q 67.851903,133.02362 68.849403,132.62112 69.864403,132.21862 70.984403,132.21862 72.734403,132.21862 73.574403,133.18112 74.431903,134.12612 74.431903,135.71862 V 140.93362 H 73.259403 L 73.136903,139.77862 H 73.084403 Q 72.384403,140.32112 71.509403,140.74112 70.634403,141.14362 69.724403,141.14362 Z M 70.109403,139.98862 Q 70.826903,139.98862 71.544403,139.65612 72.279403,139.32362 72.996903,138.72862 V 136.48862 Q 71.176903,136.62862 70.126903,136.92612 69.094403,137.20612 68.656903,137.64362 68.236903,138.06362 68.236903,138.62362 68.236903,139.34112 68.796903,139.67362 69.374403,139.98862 70.109403,139.98862 Z"
         style="font-size:17.5px"
         id="path870" />
      <path
         d="M 81.519376,141.14362 Q 80.906876,141.14362 80.189376,140.84612 79.489376,140.53112 78.876876,139.98862 H 78.824376 L 78.701876,140.93362 H 77.546876 V 128.47362 H 78.981876 V 131.86862 L 78.929376,133.51362 H 78.981876 Q 79.559376,132.91862 80.311876,132.56862 81.081876,132.21862 81.834376,132.21862 83.549376,132.21862 84.459376,133.39112 85.369376,134.56362 85.369376,136.54112 85.369376,137.99362 84.826876,139.02612 84.284376,140.05862 83.409376,140.60112 82.534376,141.14362 81.519376,141.14362 Z M 81.291876,139.93612 Q 82.411876,139.93612 83.146876,139.04362 83.881876,138.13362 83.881876,136.55862 83.881876,135.15862 83.321876,134.30112 82.761876,133.42612 81.484376,133.42612 80.924376,133.42612 80.276876,133.74112 79.646876,134.03862 78.981876,134.70362 V 138.93862 Q 79.594376,139.48112 80.206876,139.70862 80.836876,139.93612 81.291876,139.93612 Z"
         style="font-size:17.5px"
         id="path872" />
      <path
         d="M 92.47435,141.14362 Q 91.14435,141.14362 90.09435,140.61862 89.04435,140.09362 88.43185,139.09612 87.81935,138.09862 87.81935,136.69862 87.81935,135.26362 88.46685,134.26612 89.11435,133.26862 90.19935,132.74362 91.28435,132.21862 92.56185,132.21862 93.59435,132.21862 94.36435,132.58612 95.13435,132.95362 95.65935,133.46112 L 94.94185,134.38862 Q 94.41685,133.93362 93.83935,133.67112 93.27935,133.40862 92.61435,133.40862 91.63435,133.40862 90.88185,133.82862 90.14685,134.23112 89.72685,134.98362 89.30685,135.71862 89.30685,136.69862 89.30685,137.66112 89.70935,138.39612 90.12935,139.13112 90.86435,139.55112 91.59935,139.95362 92.57935,139.95362 93.36685,139.95362 94.01435,139.63862 94.67935,139.32362 95.20435,138.88612 L 95.85185,139.81362 Q 95.15185,140.44362 94.27685,140.79362 93.41935,141.14362 92.47435,141.14362 Z"
         style="font-size:17.5px"
         id="path874" />
      <path
         d="M 101.66182,141.14362 Q 99.999323,141.14362 98.984323,139.98862 97.969323,138.81612 97.969323,136.69862 97.969323,135.31612 98.511823,134.31862 99.071823,133.30362 99.946823,132.76112 100.83932,132.21862 101.83682,132.21862 102.60682,132.21862 103.21932,132.51612 103.83182,132.79612 104.37432,133.32112 H 104.42682 L 104.35682,131.74612 V 128.47362 H 105.79182 V 140.93362 H 104.60182 L 104.47932,139.81362 H 104.42682 Q 103.90182,140.35612 103.16682,140.75862 102.44932,141.14362 101.66182,141.14362 Z M 101.95932,139.93612 Q 103.21932,139.93612 104.35682,138.65862 V 134.42362 Q 103.77932,133.88112 103.21932,133.65362 102.67682,133.42612 102.11682,133.42612 101.38182,133.42612 100.76932,133.84612 100.17432,134.24862 99.806823,134.98362 99.456823,135.70112 99.456823,136.68112 99.456823,138.20362 100.12182,139.07862 100.78682,139.93612 101.95932,139.93612 Z"
         style="font-size:17.5px"
         id="path876" />
      <path
         d="M 112.9843,133.35612 Q 111.9343,133.35612 111.1118,134.03862 110.2893,134.70362 110.0968,135.96362 H 115.5218 Q 115.4343,134.65112 114.7518,134.00362 114.0693,133.35612 112.9843,133.35612 Z M 113.1943,141.14362 Q 111.9168,141.14362 110.8668,140.61862 109.8343,140.09362 109.2218,139.09612 108.6093,138.08112 108.6093,136.66362 108.6093,135.28112 109.2218,134.28362 109.8343,133.28612 110.8143,132.76112 111.8118,132.21862 112.9493,132.21862 114.7868,132.21862 115.8018,133.32112 116.8343,134.40612 116.8343,136.20862 116.8343,136.45362 116.8168,136.68112 116.7993,136.90862 116.7643,137.08362 H 110.0618 Q 110.2018,138.51862 111.1118,139.25362 112.0393,139.98862 113.3693,139.98862 114.1393,139.98862 114.7518,139.77862 115.3818,139.55112 115.9593,139.18362 L 116.4843,140.12862 Q 115.8543,140.54862 115.0318,140.84612 114.2268,141.14362 113.1943,141.14362 Z"
         style="font-size:17.5px"
         id="path878" />
      <path
         d="M 122.15427,140.93362 V 133.60112 H 119.72177 V 132.51612 L 122.15427,132.42862 V 131.71112 Q 122.15427,130.15362 122.99427,129.20862 123.83427,128.26362 125.58427,128.26362 126.84427,128.26362 128.03427,128.75362 L 127.70177,129.83862 Q 127.17677,129.59362 126.72177,129.52362 126.28427,129.43612 125.72427,129.43612 124.58677,129.43612 124.07927,130.03112 123.57177,130.62612 123.57177,131.65862 V 132.42862 H 127.14177 V 133.60112 H 123.57177 V 140.93362 Z"
         style="font-size:17.5px"
         id="path880" />
      <path
         d="M 133.59924,144.85362 Q 131.74424,144.85362 130.71174,144.22362 129.67924,143.61112 129.67924,142.49112 129.67924,141.40612 131.07924,140.60112 V 140.53112 Q 130.74674,140.33862 130.46674,140.00612 130.20424,139.67362 130.20424,139.13112 130.20424,138.72862 130.46674,138.30862 130.72924,137.87112 131.21924,137.53862 V 137.46862 Q 130.78174,137.13612 130.46674,136.57612 130.16924,136.01612 130.16924,135.26362 130.16924,134.33612 130.62424,133.65362 131.09674,132.97112 131.84924,132.60362 132.61924,132.21862 133.51174,132.21862 134.22924,132.21862 134.77174,132.42862 H 138.28924 V 133.60112 H 136.08424 Q 136.38174,133.89862 136.59174,134.35362 136.80174,134.80862 136.80174,135.31612 136.80174,136.22612 136.36424,136.89112 135.92674,137.53862 135.17424,137.88862 134.43924,138.23862 133.51174,138.23862 133.17924,138.23862 132.79424,138.16862 132.42674,138.08112 132.07674,137.92362 131.76174,138.11612 131.58674,138.36112 131.41174,138.60612 131.41174,138.90362 131.41174,139.39362 131.86674,139.63862 132.33924,139.88362 133.17924,139.88362 H 135.08674 Q 136.73174,139.88362 137.51924,140.33862 138.32424,140.79362 138.32424,141.87862 138.32424,142.66612 137.74674,143.34862 137.16924,144.03112 136.10174,144.43362 135.05174,144.85362 133.59924,144.85362 Z M 133.51174,137.27612 Q 134.33424,137.27612 134.89424,136.73362 135.47174,136.17362 135.47174,135.26362 135.47174,134.37112 134.89424,133.82862 134.33424,133.26862 133.51174,133.26862 132.70674,133.26862 132.12924,133.82862 131.55174,134.37112 131.55174,135.26362 131.55174,136.17362 132.12924,136.73362 132.70674,137.27612 133.51174,137.27612 Z M 133.70424,143.80362 Q 135.19174,143.80362 136.04924,143.27862 136.90674,142.75362 136.90674,142.10612 136.90674,141.49362 136.41674,141.28362 135.94424,141.07362 134.96424,141.07362 H 133.30174 Q 132.93424,141.07362 132.60174,141.03862 132.28674,141.00362 132.00674,140.93362 131.41174,141.26612 131.16674,141.61612 130.92174,141.98362 130.92174,142.35112 130.92174,143.01612 131.62174,143.40112 132.33924,143.80362 133.70424,143.80362 Z"
         style="font-size:17.5px"
         id="path882" />
      <path
         d="M 140.54672,140.93362 V 128.47362 H 141.98172 V 131.86862 L 141.89422,133.88112 H 141.94672 Q 142.61172,133.16362 143.36422,132.69112 144.13422,132.21862 145.13172,132.21862 146.63672,132.21862 147.35422,133.09362 148.07172,133.96862 148.07172,135.64862 V 140.93362 H 146.63672 V 135.84112 Q 146.63672,134.63362 146.18172,134.05612 145.72672,133.46112 144.67672,133.46112 143.92422,133.46112 143.32922,133.84612 142.73422,134.23112 141.98172,135.00112 V 140.93362 Z"
         style="font-size:17.5px"
         id="path884" />
      <path
         d="M 154.94919,140.93362 V 133.60112 H 150.99419 V 132.42862 H 156.38419 V 140.93362 Z M 155.50919,130.64362 Q 155.01919,130.64362 154.68669,130.34612 154.35419,130.03112 154.35419,129.52362 154.35419,129.01612 154.68669,128.71862 155.01919,128.40362 155.50919,128.40362 155.99919,128.40362 156.33169,128.71862 156.66419,129.01612 156.66419,129.52362 156.66419,130.03112 156.33169,130.34612 155.99919,130.64362 155.50919,130.64362 Z"
         style="font-size:17.5px"
         id="path886" />
      <path
         d="M 163.31416,144.73112 Q 162.64916,144.73112 162.01916,144.55612 161.38916,144.39862 160.88166,144.15362 L 161.35416,143.08612 Q 161.80916,143.31362 162.29916,143.43612 162.80666,143.55862 163.29666,143.55862 164.57416,143.55862 165.01166,142.94612 165.44916,142.33362 165.44916,141.24862 V 133.60112 H 161.49416 V 132.42862 H 166.88416 V 141.14362 Q 166.88416,142.19362 166.55166,142.99862 166.23666,143.80362 165.46666,144.25862 164.69666,144.73112 163.31416,144.73112 Z M 166.00916,130.64362 Q 165.51916,130.64362 165.18666,130.34612 164.85416,130.03112 164.85416,129.52362 164.85416,129.01612 165.18666,128.71862 165.51916,128.40362 166.00916,128.40362 166.49916,128.40362 166.83166,128.71862 167.16416,129.01612 167.16416,129.52362 167.16416,130.03112 166.83166,130.34612 166.49916,130.64362 166.00916,130.64362 Z"
         style="font-size:17.5px"
         id="path888" />
      <path
         d="M 172.27414,140.93362 V 128.47362 H 173.70914 V 136.90862 H 173.77914 L 178.36414,132.42862 H 180.00914 L 176.61414,135.77112 180.46414,140.93362 H 178.85414 L 175.72164,136.64612 173.70914,138.62362 V 140.93362 Z"
         style="font-size:17.5px"
         id="path890" />
      <path
         d="M 188.04161,141.14362 Q 186.69411,141.14362 185.95911,140.37362 185.24161,139.58612 185.24161,138.08112 V 129.64612 H 182.21411 V 128.47362 H 186.67661 V 138.18612 Q 186.67661,139.11362 187.13161,139.53362 187.60411,139.95362 188.35661,139.95362 189.10911,139.95362 189.94911,139.56862 L 190.31661,140.63612 Q 189.72161,140.88112 189.23161,141.00362 188.74161,141.14362 188.04161,141.14362 Z"
         style="font-size:17.5px"
         id="path892" />
      <path
         d="M 192.43408,140.93362 V 132.42862 H 193.58908 L 193.71158,133.54862 H 193.74658 Q 194.07908,132.95362 194.51658,132.58612 194.95408,132.21862 195.68908,132.21862 196.93158,132.21862 197.29908,133.68862 197.66658,133.00612 198.10408,132.62112 198.55908,132.21862 199.29408,132.21862 200.18658,132.21862 200.67658,132.90112 201.18408,133.56612 201.18408,134.84362 V 140.93362 H 199.74908 V 134.94862 Q 199.74908,133.46112 198.83908,133.46112 198.40158,133.46112 198.10408,133.79362 197.82408,134.10862 197.47408,134.77362 V 140.93362 H 196.14408 V 134.94862 Q 196.14408,134.21362 195.93408,133.84612 195.74158,133.46112 195.26908,133.46112 194.83158,133.46112 194.49908,133.79362 194.18408,134.10862 193.86908,134.77362 V 140.93362 Z"
         style="font-size:17.5px"
         id="path894" />
      <path
         d="M 203.54655,140.93362 V 132.42862 H 204.73655 L 204.85905,133.88112 H 204.92905 Q 205.59405,133.16362 206.36405,132.69112 207.13405,132.21862 208.13155,132.21862 209.63655,132.21862 210.35405,133.09362 211.07155,133.96862 211.07155,135.64862 V 140.93362 H 209.63655 V 135.84112 Q 209.63655,134.63362 209.18155,134.05612 208.72655,133.46112 207.67655,133.46112 206.92405,133.46112 206.32905,133.84612 205.73405,134.23112 204.98155,135.00112 V 140.93362 Z"
         style="font-size:17.5px"
         id="path896" />
      <path
         d="M 217.66904,141.14362 Q 216.54904,141.14362 215.58654,140.61862 214.64154,140.09362 214.04654,139.09612 213.46904,138.09862 213.46904,136.69862 213.46904,135.26362 214.04654,134.26612 214.64154,133.26862 215.58654,132.74362 216.54904,132.21862 217.66904,132.21862 218.78904,132.21862 219.73404,132.74362 220.69654,133.26862 221.27404,134.26612 221.86904,135.26362 221.86904,136.69862 221.86904,138.09862 221.27404,139.09612 220.69654,140.09362 219.73404,140.61862 218.78904,141.14362 217.66904,141.14362 Z M 217.66904,139.95362 Q 218.89404,139.95362 219.62904,139.06112 220.38154,138.15112 220.38154,136.69862 220.38154,135.22862 219.62904,134.31862 218.89404,133.40862 217.66904,133.40862 216.44404,133.40862 215.69154,134.31862 214.95654,135.22862 214.95654,136.69862 214.95654,138.15112 215.69154,139.06112 216.44404,139.95362 217.66904,139.95362 Z"
         style="font-size:17.5px"
         id="path898" />
      <path
         d="M 224.54651,144.52112 V 132.42862 H 225.73651 L 225.85901,133.51362 H 225.91151 Q 226.50651,132.95362 227.27651,132.58612 228.06401,132.21862 228.85151,132.21862 230.56651,132.21862 231.45901,133.40862 232.36901,134.58112 232.36901,136.55862 232.36901,137.99362 231.82651,139.02612 231.28401,140.05862 230.40901,140.60112 229.53401,141.14362 228.50151,141.14362 227.90651,141.14362 227.20651,140.86362 226.52401,140.56612 225.96401,140.04112 H 225.91151 L 225.98151,141.65112 V 144.52112 Z M 228.25651,139.93612 Q 229.39401,139.93612 230.12901,139.04362 230.88151,138.13362 230.88151,136.55862 230.88151,135.15862 230.32151,134.30112 229.76151,133.42612 228.48401,133.42612 227.92401,133.42612 227.27651,133.74112 226.64651,134.03862 225.98151,134.70362 V 138.93862 Q 226.59401,139.48112 227.20651,139.70862 227.81901,139.93612 228.25651,139.93612 Z"
         style="font-size:17.5px"
         id="path900" />
      <path
         d="M 240.85648,144.52112 V 141.42362 L 240.92648,139.84862 H 240.87398 Q 240.34898,140.39112 239.63148,140.77612 238.93148,141.14362 238.14398,141.14362 236.49898,141.14362 235.48398,139.98862 234.46898,138.81612 234.46898,136.69862 234.46898,135.31612 235.01148,134.31862 235.57148,133.30362 236.44648,132.76112 237.33898,132.21862 238.33648,132.21862 239.10648,132.21862 239.73648,132.51612 240.36648,132.81362 240.96148,133.37362 H 241.01398 L 241.13648,132.42862 H 242.29148 V 144.52112 Z M 238.45898,139.93612 Q 239.71898,139.93612 240.85648,138.65862 V 134.42362 Q 240.27898,133.88112 239.71898,133.65362 239.17648,133.42612 238.61648,133.42612 237.88148,133.42612 237.26898,133.84612 236.67398,134.24862 236.30648,134.98362 235.95648,135.70112 235.95648,136.68112 235.95648,138.20362 236.62148,139.07862 237.28648,139.93612 238.45898,139.93612 Z"
         style="font-size:17.5px"
         id="path902" />
      <path
         d="M 246.47395,140.93362 V 132.42862 H 247.66395 L 247.78645,134.44112 H 247.83895 Q 248.50395,133.40862 249.48395,132.81362 250.46395,132.21862 251.63645,132.21862 252.10895,132.21862 252.51145,132.30612 252.93145,132.37612 253.31645,132.56862 L 252.98395,133.81112 Q 252.54645,133.65362 252.23145,133.58362 251.91645,133.51362 251.40895,133.51362 250.44645,133.51362 249.55395,134.07362 248.67895,134.61612 247.90895,135.94612 V 140.93362 Z"
         style="font-size:17.5px"
         id="path904" />
      <path
         d="M 259.84391,141.14362 Q 258.60141,141.14362 257.51641,140.75862 256.43141,140.35612 255.66141,139.81362 L 256.32641,138.86862 Q 257.06141,139.39362 257.95391,139.70862 258.84641,140.02362 260.01891,140.02362 261.10391,140.02362 261.62891,139.63862 262.17141,139.23612 262.17141,138.69362 262.17141,138.36112 261.97891,138.09862 261.80391,137.83612 261.22641,137.59112 260.66641,137.34612 259.51141,137.11862 257.86641,136.76862 257.02641,136.19112 256.18641,135.59612 256.18641,134.63362 256.18641,133.60112 257.07891,132.91862 257.97141,132.21862 259.72141,132.21862 260.70141,132.21862 261.61141,132.55112 262.52141,132.86612 263.15141,133.30362 L 262.45141,134.23112 Q 261.85641,133.82862 261.13891,133.58362 260.42141,133.33862 259.59891,133.33862 258.51391,133.33862 258.07641,133.70612 257.63891,134.07362 257.63891,134.56362 257.63891,135.10612 258.21641,135.40362 258.81141,135.70112 260.10641,135.98112 261.52391,136.27862 262.27641,136.64612 263.04641,137.01362 263.32641,137.48612 263.62391,137.95862 263.62391,138.60612 263.62391,139.28862 263.18641,139.86612 262.74891,140.44362 261.90891,140.79362 261.06891,141.14362 259.84391,141.14362 Z"
         style="font-size:17.5px"
         id="path906" />
      <path
         d="M 271.8139,141.14362 Q 270.5714,141.14362 269.8539,140.70612 269.1364,140.25112 268.8214,139.46362 268.5239,138.67612 268.5239,137.62612 V 133.60112 H 266.1264 V 132.51612 L 268.5764,132.42862 268.7689,129.69862 H 269.9589 V 132.42862 H 274.1414 V 133.60112 H 269.9589 V 137.64362 Q 269.9589,138.78112 270.4139,139.37612 270.8864,139.97112 272.1114,139.97112 272.7239,139.97112 273.2139,139.86612 273.7039,139.76112 274.1589,139.58612 L 274.4739,140.63612 Q 273.8964,140.84612 273.2489,140.98612 272.6189,141.14362 271.8139,141.14362 Z"
         style="font-size:17.5px"
         id="path908" />
      <path
         d="M 279.72387,141.14362 Q 278.20137,141.14362 277.48387,140.26862 276.76637,139.39362 276.76637,137.71362 V 132.42862 H 278.21887 V 137.52112 Q 278.21887,138.72862 278.65637,139.32362 279.11137,139.90112 280.17887,139.90112 280.91387,139.90112 281.50887,139.53362 282.12137,139.14862 282.82137,138.32612 V 132.42862 H 284.25637 V 140.93362 H 283.08387 L 282.96137,139.44612 H 282.89137 Q 282.24387,140.19862 281.47387,140.67112 280.70387,141.14362 279.72387,141.14362 Z"
         style="font-size:17.5px"
         id="path910" />
      <path
         d="M 290.39884,140.93362 286.81134,132.42862 H 288.26384 L 290.22384,137.25862 Q 290.48634,137.90612 290.71384,138.53612 290.95884,139.14862 291.18634,139.76112 H 291.25634 Q 291.48384,139.14862 291.69384,138.53612 291.92134,137.90612 292.18384,137.25862 L 294.14384,132.42862 H 295.52634 L 292.00884,140.93362 Z"
         style="font-size:17.5px"
         id="path912" />
      <path
         d="M 298.41382,140.93362 296.55882,132.42862 H 297.99382 L 299.00882,137.36362 Q 299.13132,137.95862 299.21882,138.53612 299.32382,139.09612 299.39382,139.70862 H 299.46382 Q 299.55132,139.09612 299.67382,138.53612 299.81382,137.95862 299.95382,137.36362 L 301.00382,132.95362 H 302.43882 L 303.45382,137.36362 Q 303.59382,137.95862 303.75132,138.53612 303.90882,139.09612 303.97882,139.70862 H 304.04882 Q 304.15382,139.09612 304.22382,138.53612 304.31132,137.95862 304.43382,137.36362 L 305.44882,132.42862 H 306.77882 L 304.95882,140.93362 H 303.10382 L 302.12382,136.87362 Q 301.91382,135.98112 301.70382,134.35362 H 301.63382 Q 301.42382,135.98112 301.21382,136.87362 L 300.26882,140.93362 Z"
         style="font-size:17.5px"
         id="path914" />
      <path
         d="M 308.03879,140.93362 311.27629,136.52362 308.28379,132.42862 H 309.87629 L 311.22379,134.30112 Q 311.45129,134.63362 311.69629,135.01862 311.95879,135.38612 312.22129,135.73612 H 312.29129 Q 312.53629,135.38612 312.78129,135.00112 313.02629,134.61612 313.25379,134.26612 L 314.53129,132.42862 H 316.05379 L 313.02629,136.64612 316.28129,140.93362 H 314.70629 L 313.21879,138.97362 Q 312.95629,138.60612 312.65879,138.20362 312.37879,137.80112 312.09879,137.43362 H 312.02879 Q 311.76629,137.81862 311.50379,138.20362 311.24129,138.57112 310.97879,138.97362 L 309.57879,140.93362 Z"
         style="font-size:17.5px"
         id="path916" />
      <path
         d="M 319.71126,144.59112 Q 319.08126,144.59112 318.59126,144.41612 L 318.88876,143.27862 Q 319.06376,143.33112 319.25626,143.36612 319.46626,143.40112 319.65876,143.40112 320.55126,143.40112 321.11126,142.87612 321.67126,142.36862 321.98626,141.58112 L 322.24876,140.95112 318.27626,132.42862 H 319.72876 L 321.81126,137.13612 Q 322.05626,137.69612 322.31876,138.34362 322.59876,138.99112 322.86126,139.60362 H 322.93126 Q 323.15876,138.99112 323.38626,138.36112 323.63126,137.71362 323.84126,137.13612 L 325.69626,132.42862 H 327.06126 L 323.31626,141.63362 Q 323.00126,142.47362 322.52876,143.13862 322.05626,143.80362 321.35626,144.18862 320.67376,144.59112 319.71126,144.59112 Z"
         style="font-size:17.5px"
         id="path918" />
      <path
         d="M 329.16123,140.93362 V 140.16362 L 334.98873,133.60112 H 329.80873 V 132.42862 H 337.05373 V 133.19862 L 331.20873,139.76112 H 337.21123 V 140.93362 Z"
         style="font-size:17.5px"
         id="path920" />
      <path
         d="M 69.479403,156.38612 68.936903,158.13612 H 72.366903 L 71.824403,156.38612 Q 71.526903,155.42362 71.229403,154.47862 70.949403,153.51612 70.686903,152.51862 H 70.616903 Q 70.336903,153.51612 70.056903,154.47862 69.776903,155.42362 69.479403,156.38612 Z M 65.979403,162.80862 69.846903,151.32862 H 71.491903 L 75.359403,162.80862 H 73.819403 L 72.734403,159.30862 H 68.569403 L 67.466903,162.80862 Z"
         style="font-size:17.5px"
         id="path922" />
      <path
         d="M 77.651876,162.80862 V 151.32862 H 80.906876 Q 82.079376,151.32862 82.954376,151.60862 83.846876,151.88862 84.336876,152.50112 84.844376,153.11362 84.844376,154.12862 84.844376,154.98612 84.354376,155.68612 83.864376,156.36862 82.831876,156.63112 V 156.70112 Q 84.091876,156.89362 84.791876,157.57612 85.491876,158.25862 85.491876,159.44862 85.491876,161.14612 84.284376,161.98612 83.094376,162.80862 81.169376,162.80862 Z M 79.104376,156.15862 H 80.661876 Q 82.131876,156.15862 82.761876,155.68612 83.409376,155.21362 83.409376,154.25112 83.409376,153.32362 82.726876,152.93862 82.061876,152.55362 80.731876,152.55362 H 79.104376 Z M 79.104376,161.58362 H 80.959376 Q 82.429376,161.58362 83.234376,161.07612 84.056876,160.55112 84.056876,159.37862 84.056876,158.31112 83.251876,157.85612 82.464376,157.38362 80.959376,157.38362 H 79.104376 Z"
         style="font-size:17.5px"
         id="path924" />
      <path
         d="M 92.56185,163.01862 Q 91.14435,163.01862 90.00685,162.31862 88.88685,161.60112 88.22185,160.27112 87.55685,158.94112 87.55685,157.06862 87.55685,155.21362 88.22185,153.88362 88.88685,152.55362 90.04185,151.83612 91.21435,151.11862 92.70185,151.11862 93.73435,151.11862 94.53935,151.53862 95.34435,151.95862 95.83435,152.51862 L 95.01185,153.44612 Q 94.57435,152.97362 93.99685,152.69362 93.41935,152.39612 92.70185,152.39612 91.59935,152.39612 90.77685,152.97362 89.97185,153.53362 89.51685,154.56612 89.06185,155.59862 89.06185,157.03362 89.06185,158.46862 89.51685,159.53612 89.97185,160.58612 90.77685,161.16362 91.59935,161.74112 92.70185,161.74112 93.48935,161.74112 94.11935,161.40862 94.74935,161.07612 95.29185,160.46362 L 96.11435,161.35612 Q 95.43185,162.14362 94.55685,162.58112 93.69935,163.01862 92.56185,163.01862 Z"
         style="font-size:17.5px"
         id="path926" />
      <path
         d="M 98.441823,162.80862 V 151.32862 H 101.27682 Q 103.86682,151.32862 105.23182,152.81612 106.59682,154.28612 106.59682,157.01612 106.59682,159.76362 105.23182,161.28612 103.88432,162.80862 101.34682,162.80862 Z M 99.894323,161.61862 H 101.17182 Q 103.14932,161.61862 104.11182,160.41112 105.09182,159.18612 105.09182,157.01612 105.09182,154.84612 104.11182,153.69112 103.14932,152.51862 101.17182,152.51862 H 99.894323 Z"
         style="font-size:17.5px"
         id="path928" />
      <path
         d="M 109.4143,162.80862 V 151.32862 H 116.5193 V 152.55362 H 110.8843 V 156.15862 H 115.6443 V 157.40112 H 110.8843 V 161.56612 H 116.6943 V 162.80862 Z"
         style="font-size:17.5px"
         id="path930" />
      <path
         d="M 120.24677,162.80862 V 151.32862 H 127.29927 V 152.55362 H 121.71677 V 156.43862 H 126.44177 V 157.66362 H 121.71677 V 162.80862 Z"
         style="font-size:17.5px"
         id="path932" />
      <path
         d="M 134.31674,163.01862 Q 132.88174,163.01862 131.74424,162.31862 130.62424,161.60112 129.97674,160.27112 129.34674,158.94112 129.34674,157.06862 129.34674,155.21362 129.99424,153.88362 130.65924,152.55362 131.79674,151.83612 132.95174,151.11862 134.43924,151.11862 135.57674,151.11862 136.34674,151.57362 137.11674,152.01112 137.60674,152.51862 L 136.78424,153.44612 Q 136.36424,152.99112 135.80424,152.69362 135.26174,152.39612 134.43924,152.39612 133.37174,152.39612 132.56674,152.97362 131.76174,153.53362 131.30674,154.56612 130.86924,155.59862 130.86924,157.03362 130.86924,159.20362 131.77924,160.48112 132.70674,161.74112 134.40424,161.74112 135.68174,161.74112 136.39924,161.05862 V 158.06612 H 134.10674 V 156.85862 H 137.74674 V 161.68862 Q 137.20424,162.23112 136.31174,162.63362 135.43674,163.01862 134.31674,163.01862 Z"
         style="font-size:17.5px"
         id="path934" />
      <path
         d="M 140.30172,162.80862 V 151.32862 H 141.77172 V 156.14112 H 146.56672 V 151.32862 H 148.03672 V 162.80862 H 146.56672 V 157.40112 H 141.77172 V 162.80862 Z"
         style="font-size:17.5px"
         id="path936" />
      <path
         d="M 151.08169,162.80862 V 161.56612 H 153.93419 V 152.55362 H 151.08169 V 151.32862 H 158.25669 V 152.55362 H 155.40419 V 161.56612 H 158.25669 V 162.80862 Z"
         style="font-size:17.5px"
         id="path938" />
      <path
         d="M 164.74916,163.01862 Q 163.78666,163.01862 162.85916,162.56362 161.93166,162.09112 161.33666,161.11112 L 162.24666,160.21862 Q 162.73666,160.98862 163.38416,161.37362 164.04916,161.74112 164.71416,161.74112 165.95666,161.74112 166.51666,161.09362 167.09416,160.42862 167.09416,159.01112 V 152.53612 H 162.28166 V 151.31112 H 168.54666 V 159.13362 Q 168.54666,160.20112 168.17916,161.09362 167.82916,161.96862 167.00666,162.49362 166.18416,163.01862 164.74916,163.01862 Z"
         style="font-size:17.5px"
         id="path940" />
      <path
         d="M 172.13414,162.80862 V 151.32862 H 173.60414 V 157.08612 H 173.65664 L 178.48664,151.32862 H 180.14914 L 176.50914,155.68612 180.56914,162.80862 H 178.92414 L 175.58164,156.78862 173.60414,159.15112 V 162.80862 Z"
         style="font-size:17.5px"
         id="path942" />
      <path
         d="M 183.26411,162.80862 V 151.32862 H 184.69911 V 161.56612 H 190.38661 V 162.80862 Z"
         style="font-size:17.5px"
         id="path944" />
      <path
         d="M 192.67908,162.80862 V 151.32862 H 194.46408 L 196.07408,156.22862 196.63408,158.08362 H 196.70408 L 197.24658,156.22862 198.87408,151.32862 H 200.65908 V 162.80862 H 199.25908 V 157.06862 Q 199.25908,156.50862 199.29408,155.75612 199.34658,154.98612 199.39908,154.25112 199.46908,153.49862 199.50408,153.00862 H 199.45158 L 198.80408,155.24862 197.15908,159.76362 H 196.10908 L 194.49908,155.24862 193.83408,153.00862 H 193.79908 Q 193.85158,153.49862 193.90408,154.25112 193.95658,154.98612 193.99158,155.75612 194.04408,156.50862 194.04408,157.06862 V 162.80862 Z"
         style="font-size:17.5px"
         id="path946" />
      <path
         d="M 203.35405,162.80862 V 151.32862 H 204.96405 L 208.63905,158.53862 209.74155,160.91862 H 209.77655 Q 209.74155,160.06112 209.65405,159.13362 209.58405,158.18862 209.58405,157.27862 V 151.32862 H 210.98405 V 162.80862 H 209.37405 L 205.69905,155.59862 204.59655,153.21862 H 204.56155 Q 204.59655,154.09362 204.66655,155.00362 204.75405,155.91362 204.75405,156.80612 V 162.80862 Z"
         style="font-size:17.5px"
         id="path948" />
      <path
         d="M 217.66904,163.01862 Q 216.37404,163.01862 215.37654,162.30112 214.37904,161.58362 213.81904,160.25362 213.25904,158.90612 213.25904,157.01612 213.25904,155.16112 213.81904,153.84862 214.37904,152.51862 215.37654,151.81862 216.37404,151.11862 217.66904,151.11862 218.96404,151.11862 219.96154,151.81862 220.95904,152.51862 221.51904,153.84862 222.07904,155.16112 222.07904,157.01612 222.07904,158.90612 221.51904,160.25362 220.95904,161.58362 219.96154,162.30112 218.96404,163.01862 217.66904,163.01862 Z M 217.66904,161.74112 Q 218.98154,161.74112 219.76904,160.48112 220.57404,159.22112 220.57404,157.01612 220.57404,154.84612 219.76904,153.62112 218.98154,152.39612 217.66904,152.39612 216.35654,152.39612 215.55154,153.62112 214.76404,154.84612 214.76404,157.01612 214.76404,159.22112 215.55154,160.48112 216.35654,161.74112 217.66904,161.74112 Z"
         style="font-size:17.5px"
         id="path950" />
      <path
         d="M 224.70401,162.80862 V 151.32862 H 228.16901 Q 229.44651,151.32862 230.39151,151.64362 231.35401,151.95862 231.87901,152.71112 232.42151,153.44612 232.42151,154.70612 232.42151,155.91362 231.87901,156.70112 231.35401,157.48862 230.39151,157.87362 229.42901,158.25862 228.16901,158.25862 H 226.15651 V 162.80862 Z M 226.15651,157.06862 H 227.99401 Q 229.49901,157.06862 230.21651,156.50862 230.95151,155.93112 230.95151,154.70612 230.95151,153.46362 230.21651,152.99112 229.48151,152.50112 227.99401,152.50112 H 226.15651 Z"
         style="font-size:17.5px"
         id="path952" />
      <path
         d="M 238.66898,161.81112 Q 239.98148,161.81112 240.76898,160.55112 241.57398,159.29112 241.57398,157.01612 241.57398,154.84612 240.76898,153.62112 239.98148,152.39612 238.66898,152.39612 237.35648,152.39612 236.55148,153.62112 235.76398,154.84612 235.76398,157.01612 235.76398,159.29112 236.55148,160.55112 237.35648,161.81112 238.66898,161.81112 Z M 241.83648,165.66112 Q 240.31398,165.66112 239.35148,164.89112 238.38898,164.12112 237.96898,162.96612 236.30648,162.66862 235.27398,161.12862 234.25898,159.57112 234.25898,157.01612 234.25898,155.16112 234.81898,153.84862 235.37898,152.51862 236.37648,151.81862 237.37398,151.11862 238.66898,151.11862 239.96398,151.11862 240.96148,151.81862 241.95898,152.51862 242.51898,153.84862 243.07898,155.16112 243.07898,157.01612 243.07898,159.51862 242.09898,161.05862 241.11898,162.59862 239.50898,162.93112 239.80648,163.68362 240.45398,164.05112 241.10148,164.41862 241.99398,164.41862 242.25648,164.41862 242.46648,164.36612 242.69398,164.31362 242.85148,164.24362 L 243.13148,165.41612 Q 242.85148,165.52112 242.51898,165.59112 242.20398,165.66112 241.83648,165.66112 Z"
         style="font-size:17.5px"
         id="path954" />
      <path
         d="M 245.66895,162.80862 V 151.32862 H 249.23895 Q 250.41145,151.32862 251.30395,151.64362 252.21395,151.94112 252.72145,152.65862 253.24645,153.35862 253.24645,154.54862 253.24645,155.87862 252.54645,156.70112 251.84645,157.50612 250.67395,157.80362 L 253.59645,162.80862 H 251.93395 L 249.16895,157.96112 H 247.12145 V 162.80862 Z M 247.12145,156.77112 H 249.02895 Q 250.37645,156.77112 251.07645,156.22862 251.79395,155.66862 251.79395,154.54862 251.79395,153.41112 251.07645,152.95612 250.37645,152.50112 249.02895,152.50112 H 247.12145 Z"
         style="font-size:17.5px"
         id="path956" />
      <path
         d="M 259.75641,163.01862 Q 258.49641,163.01862 257.42891,162.56362 256.36141,162.09112 255.59141,161.32112 L 256.46641,160.30612 Q 257.11391,160.95362 257.97141,161.35612 258.84641,161.74112 259.82641,161.74112 261.01641,161.74112 261.66391,161.23362 262.32891,160.72612 262.32891,159.92112 262.32891,159.30862 262.04891,158.94112 261.78641,158.57362 261.31391,158.32862 260.85891,158.08362 260.26391,157.83862 L 258.61891,157.12112 Q 258.04141,156.89362 257.46391,156.52612 256.90391,156.15862 256.51891,155.58112 256.13391,155.00362 256.13391,154.16362 256.13391,153.28862 256.60641,152.60612 257.09641,151.90612 257.93641,151.52112 258.79391,151.11862 259.89641,151.11862 260.98141,151.11862 261.89141,151.52112 262.80141,151.90612 263.43141,152.53612 L 262.66141,153.48112 Q 262.10141,152.97362 261.41891,152.69362 260.73641,152.39612 259.84391,152.39612 258.84641,152.39612 258.23391,152.85112 257.62141,153.30612 257.62141,154.07612 257.62141,154.61862 257.91891,154.96862 258.23391,155.31862 258.70641,155.54612 259.17891,155.77362 259.66891,155.98362 L 261.27891,156.68362 Q 261.99641,156.96362 262.55641,157.36612 263.13391,157.75112 263.46641,158.32862 263.81641,158.88862 263.81641,159.74612 263.81641,160.65612 263.32641,161.40862 262.83641,162.14362 261.92641,162.58112 261.01641,163.01862 259.75641,163.01862 Z"
         style="font-size:17.5px"
         id="path958" />
      <path
         d="M 269.4339,162.80862 V 152.55362 H 265.6539 V 151.32862 H 274.6839 V 152.55362 H 270.9039 V 162.80862 Z"
         style="font-size:17.5px"
         id="path960" />
      <path
         d="M 280.68637,163.01862 Q 279.56637,163.01862 278.67387,162.56362 277.79887,162.10862 277.29137,161.11112 276.80137,160.11362 276.80137,158.46862 V 151.32862 H 278.27137 V 158.50362 Q 278.27137,159.69362 278.58637,160.41112 278.90137,161.11112 279.44387,161.42612 280.00387,161.74112 280.68637,161.74112 281.38637,161.74112 281.92887,161.42612 282.47137,161.11112 282.78637,160.41112 283.11887,159.69362 283.11887,158.50362 V 151.32862 H 284.53637 V 158.46862 Q 284.53637,160.11362 284.02887,161.11112 283.53887,162.10862 282.66387,162.56362 281.80637,163.01862 280.68637,163.01862 Z"
         style="font-size:17.5px"
         id="path962" />
      <path
         d="M 290.32884,162.80862 286.67134,151.32862 H 288.21134 L 290.06634,157.52362 Q 290.36384,158.53862 290.60884,159.43112 290.85384,160.30612 291.16884,161.32112 H 291.23884 Q 291.55384,160.30612 291.79884,159.43112 292.06134,158.53862 292.34134,157.52362 L 294.17884,151.32862 H 295.66634 L 292.02634,162.80862 Z"
         style="font-size:17.5px"
         id="path964" />
      <path
         d="M 298.34382,162.80862 296.59382,151.31112 H 298.23882 L 299.07882,158.52112 Q 299.13132,158.99362 299.16632,159.39612 299.21882,159.78112 299.25382,160.20112 299.28882,160.60362 299.30632,161.18112 H 299.35882 Q 299.46382,160.60362 299.55132,160.20112 299.63882,159.78112 299.72632,159.39612 299.81382,159.01112 299.91882,158.53862 L 301.03882,154.26862 H 302.43882 L 303.52382,158.53862 Q 303.64632,159.01112 303.73382,159.39612 303.82132,159.78112 303.89132,160.20112 303.97882,160.60362 304.08382,161.18112 H 304.15382 Q 304.18882,160.60362 304.20632,160.20112 304.24132,159.78112 304.27632,159.39612 304.31132,159.01112 304.36382,158.53862 L 305.16882,151.31112 H 306.74382 L 305.06382,162.80862 H 303.24382 L 302.12382,158.18862 Q 302.00132,157.66362 301.89632,157.15612 301.79132,156.64862 301.70382,156.12362 H 301.65132 Q 301.56382,156.64862 301.47632,157.15612 301.38882,157.66362 301.24882,158.18862 L 300.12882,162.80862 Z"
         style="font-size:17.5px"
         id="path966" />
      <path
         d="M 307.86379,162.80862 311.29379,156.87612 308.09129,151.32862 H 309.70129 L 311.31129,154.26862 Q 311.53879,154.65362 311.74879,155.03862 311.95879,155.42362 312.23879,155.93112 H 312.30879 Q 312.55379,155.42362 312.72879,155.03862 312.92129,154.65362 313.13129,154.26862 L 314.70629,151.32862 H 316.24629 L 313.04379,156.94612 316.47379,162.80862 H 314.86379 L 313.13129,159.71112 Q 312.90379,159.29112 312.65879,158.85362 312.41379,158.39862 312.11629,157.87362 H 312.04629 Q 311.80129,158.39862 311.57379,158.85362 311.34629,159.29112 311.11879,159.71112 L 309.40379,162.80862 Z"
         style="font-size:17.5px"
         id="path968" />
      <path
         d="M 321.93376,162.80862 V 158.71362 L 318.08376,151.32862 H 319.62376 L 321.35626,154.74112 Q 321.68876,155.38862 322.00376,156.05362 322.31876,156.71862 322.66876,157.41862 H 322.73876 Q 323.08876,156.71862 323.42126,156.05362 323.75376,155.38862 324.08626,154.72362 L 325.74876,151.32862 H 327.25376 L 323.40376,158.71362 V 162.80862 Z"
         style="font-size:17.5px"
         id="path970" />
      <path
         d="M 329.05623,162.80862 V 161.93362 L 335.46123,152.53612 H 329.61623 V 151.31112 H 337.26373 V 152.18612 L 330.84123,161.56612 H 337.35123 V 162.80862 Z"
         style="font-size:17.5px"
         id="path972" />
      <path
         d="M 70.669403,184.89362 Q 69.549403,184.89362 68.586903,184.36862 67.641903,183.84362 67.046903,182.84612 66.469403,181.84862 66.469403,180.44862 66.469403,179.01362 67.046903,178.01612 67.641903,177.01862 68.586903,176.49362 69.549403,175.96862 70.669403,175.96862 71.789403,175.96862 72.734403,176.49362 73.696903,177.01862 74.274403,178.01612 74.869403,179.01362 74.869403,180.44862 74.869403,181.84862 74.274403,182.84612 73.696903,183.84362 72.734403,184.36862 71.789403,184.89362 70.669403,184.89362 Z M 70.669403,183.70362 Q 71.894403,183.70362 72.629403,182.81112 73.381903,181.90112 73.381903,180.44862 73.381903,178.97862 72.629403,178.06862 71.894403,177.15862 70.669403,177.15862 69.444403,177.15862 68.691903,178.06862 67.956903,178.97862 67.956903,180.44862 67.956903,181.90112 68.691903,182.81112 69.444403,183.70362 70.669403,183.70362 Z"
         style="font-size:17.5px"
         id="path974" />
      <path
         d="M 81.169376,184.89362 Q 79.874376,184.89362 78.876876,184.17612 77.879376,183.45862 77.319376,182.12862 76.759376,180.78112 76.759376,178.89112 76.759376,177.03612 77.319376,175.72362 77.879376,174.39362 78.876876,173.69362 79.874376,172.99362 81.169376,172.99362 82.464376,172.99362 83.461876,173.69362 84.459376,174.39362 85.019376,175.72362 85.579376,177.03612 85.579376,178.89112 85.579376,180.78112 85.019376,182.12862 84.459376,183.45862 83.461876,184.17612 82.464376,184.89362 81.169376,184.89362 Z M 81.169376,183.61612 Q 82.481876,183.61612 83.269376,182.35612 84.074376,181.09612 84.074376,178.89112 84.074376,176.72112 83.269376,175.49612 82.481876,174.27112 81.169376,174.27112 79.856876,174.27112 79.051876,175.49612 78.264376,176.72112 78.264376,178.89112 78.264376,181.09612 79.051876,182.35612 79.856876,183.61612 81.169376,183.61612 Z"
         style="font-size:17.5px"
         id="path976" />
      <path
         d="M 91.66935,184.89362 Q 89.81435,184.89362 88.72935,183.37112 87.66185,181.84862 87.66185,179.06612 87.66185,176.24862 88.72935,174.77862 89.81435,173.30862 91.66935,173.30862 93.54185,173.30862 94.60935,174.77862 95.67685,176.24862 95.67685,179.06612 95.67685,181.84862 94.60935,183.37112 93.54185,184.89362 91.66935,184.89362 Z M 91.66935,183.73862 Q 92.84185,183.73862 93.57685,182.60112 94.32935,181.46362 94.32935,179.06612 94.32935,176.65112 93.57685,175.56612 92.84185,174.46362 91.66935,174.46362 90.49685,174.46362 89.74435,175.56612 89.00935,176.65112 89.00935,179.06612 89.00935,181.46362 89.74435,182.60112 90.49685,183.73862 91.66935,183.73862 Z M 91.66935,180.11612 Q 91.23185,180.11612 90.89935,179.80112 90.58435,179.48612 90.58435,178.94362 90.58435,178.40112 90.89935,178.10362 91.23185,177.78862 91.66935,177.78862 92.10685,177.78862 92.42185,178.10362 92.75435,178.40112 92.75435,178.94362 92.75435,179.48612 92.42185,179.80112 92.10685,180.11612 91.66935,180.11612 Z"
         style="font-size:17.5px"
         id="path978" />
      <path
         d="M 102.20432,184.89362 Q 100.94432,184.89362 100.01682,184.50862 99.106823,184.10612 98.599323,183.40612 98.109323,182.70612 98.109323,181.83112 98.109323,181.06112 98.459323,180.50112 98.809323,179.94112 99.351823,179.53862 99.911823,179.13612 100.50682,178.85612 V 178.78612 Q 99.806823,178.34862 99.299323,177.70112 98.809323,177.05362 98.809323,176.17862 98.809323,175.32112 99.246823,174.67362 99.701823,174.02612 100.47182,173.67612 101.25932,173.30862 102.25682,173.30862 103.90182,173.30862 104.81182,174.14862 105.72182,174.98862 105.72182,176.28362 105.72182,177.07112 105.21432,177.77112 104.72432,178.45362 104.02432,178.94362 V 179.01362 Q 104.63682,179.31112 105.12682,179.69612 105.63432,180.06362 105.91432,180.58862 106.21182,181.11362 106.21182,181.91862 106.21182,182.74112 105.73932,183.42362 105.26682,184.10612 104.37432,184.50862 103.48182,184.89362 102.20432,184.89362 Z M 103.07932,178.59362 Q 104.47932,177.57862 104.47932,176.35362 104.47932,175.53112 103.90182,174.95362 103.32432,174.37612 102.22182,174.37612 101.29432,174.37612 100.69932,174.86612 100.12182,175.35612 100.12182,176.17862 100.12182,176.84362 100.50682,177.28112 100.90932,177.71862 101.57432,178.03362 102.25682,178.33112 103.07932,178.59362 Z M 102.23932,183.82612 Q 103.48182,183.82612 104.14682,183.28362 104.82932,182.72362 104.82932,181.86612 104.82932,181.07862 104.35682,180.64112 103.90182,180.18612 103.09682,179.88862 102.30932,179.59112 101.32932,179.25862 100.52432,179.69612 99.964323,180.27362 99.421823,180.85112 99.421823,181.69112 99.421823,182.61862 100.19182,183.23112 100.96182,183.82612 102.23932,183.82612 Z"
         style="font-size:17.5px"
         id="path980" />
      <path
         d="M 123.44927,184.68362 V 177.35112 H 119.49427 V 176.17862 H 124.88427 V 184.68362 Z M 124.00927,174.39362 Q 123.51927,174.39362 123.18677,174.09612 122.85427,173.78112 122.85427,173.27362 122.85427,172.76612 123.18677,172.46862 123.51927,172.15362 124.00927,172.15362 124.49927,172.15362 124.83177,172.46862 125.16427,172.76612 125.16427,173.27362 125.16427,173.78112 124.83177,174.09612 124.49927,174.39362 124.00927,174.39362 Z"
         style="font-size:17.5px"
         id="path982" />
      <path
         d="M 130.08174,184.68362 V 183.44112 H 132.93424 V 174.42862 H 130.08174 V 173.20362 H 137.25674 V 174.42862 H 134.40424 V 183.44112 H 137.25674 V 184.68362 Z"
         style="font-size:17.5px"
         id="path984" />
      <path
         d="M 146.04172,184.89362 Q 144.69422,184.89362 143.95922,184.12362 143.24172,183.33612 143.24172,181.83112 V 173.39612 H 140.21422 V 172.22362 H 144.67672 V 181.93612 Q 144.67672,182.86362 145.13172,183.28362 145.60422,183.70362 146.35672,183.70362 147.10922,183.70362 147.94922,183.31862 L 148.31672,184.38612 Q 147.72172,184.63112 147.23172,184.75362 146.74172,184.89362 146.04172,184.89362 Z"
         style="font-size:17.5px"
         id="path986" />
      <path
         d="M 151.76419,184.68362 V 173.20362 H 153.19919 V 183.44112 H 158.88669 V 184.68362 Z"
         style="font-size:17.5px"
         id="path988" />
      <path
         d="M 161.61666,184.68362 V 183.49362 H 164.83666 V 175.26862 H 162.33416 V 174.34112 Q 163.31416,174.20112 163.97916,174.00862 164.66166,173.79862 165.20416,173.51862 H 166.27166 V 183.49362 H 169.19416 V 184.68362 Z"
         style="font-size:17.5px"
         id="path990" />
      <path
         d="M 188.63661,187.34362 Q 186.99161,187.34362 186.18661,186.85362 185.39911,186.36362 185.39911,185.01612 185.39911,184.05362 185.46911,183.28362 185.55661,182.51362 185.55661,181.63862 185.55661,181.28862 185.34661,180.99112 185.15411,180.67612 184.59411,180.48362 184.05161,180.27362 183.01911,180.27362 V 179.36362 Q 184.05161,179.34612 184.59411,179.15362 185.15411,178.96112 185.34661,178.64612 185.55661,178.33112 185.55661,177.99862 185.55661,177.17612 185.46911,176.35362 185.39911,175.53112 185.39911,174.62112 185.39911,173.27362 186.18661,172.78362 186.99161,172.29362 188.63661,172.29362 H 189.70411 V 173.11612 H 188.79411 Q 187.90161,173.11612 187.42911,173.27362 186.95661,173.43112 186.78161,173.78112 186.62411,174.13112 186.62411,174.70862 186.62411,175.46112 186.67661,176.26612 186.72911,177.05362 186.72911,177.87612 186.72911,178.73362 186.37911,179.18862 186.04661,179.62612 185.13661,179.78362 V 179.85362 Q 186.04661,180.01112 186.37911,180.46612 186.72911,180.90362 186.72911,181.76112 186.72911,182.65362 186.67661,183.38862 186.62411,184.12362 186.62411,184.92862 186.62411,185.48862 186.78161,185.83862 186.95661,186.20612 187.42911,186.36362 187.90161,186.52112 188.79411,186.52112 H 189.70411 V 187.34362 Z"
         style="font-size:17.5px"
         id="path992" />
      <path
         d="M 193.15158,187.34362 V 186.52112 H 194.04408 Q 194.93658,186.52112 195.40908,186.36362 195.88158,186.20612 196.05658,185.83862 196.23158,185.48862 196.23158,184.92862 196.23158,184.12362 196.17908,183.38862 196.12658,182.65362 196.12658,181.76112 196.12658,180.90362 196.45908,180.46612 196.79158,180.01112 197.70158,179.85362 V 179.78362 Q 196.79158,179.62612 196.45908,179.18862 196.12658,178.73362 196.12658,177.87612 196.12658,177.05362 196.17908,176.26612 196.23158,175.46112 196.23158,174.70862 196.23158,174.13112 196.05658,173.78112 195.88158,173.43112 195.40908,173.27362 194.93658,173.11612 194.04408,173.11612 H 193.15158 V 172.29362 H 194.21908 Q 195.86408,172.29362 196.65158,172.78362 197.43908,173.27362 197.43908,174.62112 197.43908,175.53112 197.35158,176.35362 197.28158,177.17612 197.28158,177.99862 197.28158,178.33112 197.47408,178.64612 197.68408,178.96112 198.22658,179.15362 198.78658,179.34612 199.81908,179.36362 V 180.27362 Q 198.78658,180.27362 198.22658,180.48362 197.68408,180.67612 197.47408,180.99112 197.28158,181.28862 197.28158,181.63862 197.28158,182.51362 197.35158,183.28362 197.43908,184.05362 197.43908,185.01612 197.43908,186.36362 196.65158,186.85362 195.86408,187.34362 194.21908,187.34362 Z"
         style="font-size:17.5px"
         id="path994" />
      <path
         d="M 216.35654,187.34362 V 172.29362 H 221.20404 V 173.11612 H 217.51154 V 186.52112 H 221.20404 V 187.34362 Z"
         style="font-size:17.5px"
         id="path996" />
      <path
         d="M 224.63401,187.34362 V 186.52112 H 228.32651 V 173.11612 H 224.63401 V 172.29362 H 229.48151 V 187.34362 Z"
         style="font-size:17.5px"
         id="path998" />
      <path
         d="M 249.09895,188.60362 Q 247.24395,188.60362 246.21145,187.97362 245.17895,187.36112 245.17895,186.24112 245.17895,185.15612 246.57895,184.35112 V 184.28112 Q 246.24645,184.08862 245.96645,183.75612 245.70395,183.42362 245.70395,182.88112 245.70395,182.47862 245.96645,182.05862 246.22895,181.62112 246.71895,181.28862 V 181.21862 Q 246.28145,180.88612 245.96645,180.32612 245.66895,179.76612 245.66895,179.01362 245.66895,178.08612 246.12395,177.40362 246.59645,176.72112 247.34895,176.35362 248.11895,175.96862 249.01145,175.96862 249.72895,175.96862 250.27145,176.17862 H 253.78895 V 177.35112 H 251.58395 Q 251.88145,177.64862 252.09145,178.10362 252.30145,178.55862 252.30145,179.06612 252.30145,179.97612 251.86395,180.64112 251.42645,181.28862 250.67395,181.63862 249.93895,181.98862 249.01145,181.98862 248.67895,181.98862 248.29395,181.91862 247.92645,181.83112 247.57645,181.67362 247.26145,181.86612 247.08645,182.11112 246.91145,182.35612 246.91145,182.65362 246.91145,183.14362 247.36645,183.38862 247.83895,183.63362 248.67895,183.63362 H 250.58645 Q 252.23145,183.63362 253.01895,184.08862 253.82395,184.54362 253.82395,185.62862 253.82395,186.41612 253.24645,187.09862 252.66895,187.78112 251.60145,188.18362 250.55145,188.60362 249.09895,188.60362 Z M 249.01145,181.02612 Q 249.83395,181.02612 250.39395,180.48362 250.97145,179.92362 250.97145,179.01362 250.97145,178.12112 250.39395,177.57862 249.83395,177.01862 249.01145,177.01862 248.20645,177.01862 247.62895,177.57862 247.05145,178.12112 247.05145,179.01362 247.05145,179.92362 247.62895,180.48362 248.20645,181.02612 249.01145,181.02612 Z M 249.20395,187.55362 Q 250.69145,187.55362 251.54895,187.02862 252.40645,186.50362 252.40645,185.85612 252.40645,185.24362 251.91645,185.03362 251.44395,184.82362 250.46395,184.82362 H 248.80145 Q 248.43395,184.82362 248.10145,184.78862 247.78645,184.75362 247.50645,184.68362 246.91145,185.01612 246.66645,185.36612 246.42145,185.73362 246.42145,186.10112 246.42145,186.76612 247.12145,187.15112 247.83895,187.55362 249.20395,187.55362 Z"
         style="font-size:17.5px"
         id="path1000" />
      <path
         d="M 256.95641,176.89612 Q 256.95641,178.03362 257.55141,178.64612 258.16391,179.25862 259.33641,179.25862 260.00141,179.25862 260.75391,178.90862 261.50641,178.55862 262.18891,177.77112 262.01391,176.14362 261.27891,175.30362 260.56141,174.44612 259.31891,174.44612 258.32141,174.44612 257.63891,175.12862 256.95641,175.79362 256.95641,176.89612 Z M 258.91641,184.89362 Q 257.90141,184.89362 257.13141,184.56112 256.36141,184.21112 255.80141,183.72112 L 256.60641,182.81112 Q 257.02641,183.21362 257.60391,183.45862 258.18141,183.70362 258.82891,183.70362 259.72141,183.70362 260.47391,183.24862 261.22641,182.79362 261.69891,181.74362 262.18891,180.69362 262.22391,178.90862 261.54141,179.57362 260.71891,179.95862 259.91391,180.34362 259.05641,180.34362 257.51641,180.34362 256.55391,179.48612 255.59141,178.61112 255.59141,176.89612 255.59141,175.82862 256.09891,175.02362 256.62391,174.21862 257.46391,173.76362 258.32141,173.30862 259.30141,173.30862 260.52641,173.30862 261.48891,173.90362 262.45141,174.49862 263.01141,175.68862 263.58891,176.87862 263.58891,178.68112 263.58891,180.36112 263.20391,181.55112 262.81891,182.72362 262.15391,183.47612 261.50641,184.21112 260.66641,184.56112 259.82641,184.89362 258.91641,184.89362 Z"
         style="font-size:17.5px"
         id="path1002" />
      <path
         d="M 272.3564,188.27112 V 185.17362 L 272.4264,183.59862 H 272.3739 Q 271.8489,184.14112 271.1314,184.52612 270.4314,184.89362 269.6439,184.89362 267.9989,184.89362 266.9839,183.73862 265.9689,182.56612 265.9689,180.44862 265.9689,179.06612 266.5114,178.06862 267.0714,177.05362 267.9464,176.51112 268.8389,175.96862 269.8364,175.96862 270.6064,175.96862 271.2364,176.26612 271.8664,176.56362 272.4614,177.12362 H 272.5139 L 272.6364,176.17862 H 273.7914 V 188.27112 Z M 269.9589,183.68612 Q 271.2189,183.68612 272.3564,182.40862 V 178.17362 Q 271.7789,177.63112 271.2189,177.40362 270.6764,177.17612 270.1164,177.17612 269.3814,177.17612 268.7689,177.59612 268.1739,177.99862 267.8064,178.73362 267.4564,179.45112 267.4564,180.43112 267.4564,181.95362 268.1214,182.82862 268.7864,183.68612 269.9589,183.68612 Z"
         style="font-size:17.5px"
         id="path1004" />
      <path
         d="M 281.56137,184.89362 Q 280.14387,184.89362 279.00637,184.19362 277.88637,183.47612 277.22137,182.14612 276.55637,180.81612 276.55637,178.94362 276.55637,177.08862 277.22137,175.75862 277.88637,174.42862 279.04137,173.71112 280.21387,172.99362 281.70137,172.99362 282.73387,172.99362 283.53887,173.41362 284.34387,173.83362 284.83387,174.39362 L 284.01137,175.32112 Q 283.57387,174.84862 282.99637,174.56862 282.41887,174.27112 281.70137,174.27112 280.59887,174.27112 279.77637,174.84862 278.97137,175.40862 278.51637,176.44112 278.06137,177.47362 278.06137,178.90862 278.06137,180.34362 278.51637,181.41112 278.97137,182.46112 279.77637,183.03862 280.59887,183.61612 281.70137,183.61612 282.48887,183.61612 283.11887,183.28362 283.74887,182.95112 284.29137,182.33862 L 285.11387,183.23112 Q 284.43137,184.01862 283.55637,184.45612 282.69887,184.89362 281.56137,184.89362 Z"
         style="font-size:17.5px"
         id="path1006" />
      <path
         d="M 291.81634,184.89362 Q 290.38134,184.89362 289.24384,184.19362 288.12384,183.47612 287.47634,182.14612 286.84634,180.81612 286.84634,178.94362 286.84634,177.08862 287.49384,175.75862 288.15884,174.42862 289.29634,173.71112 290.45134,172.99362 291.93884,172.99362 293.07634,172.99362 293.84634,173.44862 294.61634,173.88612 295.10634,174.39362 L 294.28384,175.32112 Q 293.86384,174.86612 293.30384,174.56862 292.76134,174.27112 291.93884,174.27112 290.87134,174.27112 290.06634,174.84862 289.26134,175.40862 288.80634,176.44112 288.36884,177.47362 288.36884,178.90862 288.36884,181.07862 289.27884,182.35612 290.20634,183.61612 291.90384,183.61612 293.18134,183.61612 293.89884,182.93362 V 179.94112 H 291.60634 V 178.73362 H 295.24634 V 183.56362 Q 294.70384,184.10612 293.81134,184.50862 292.93634,184.89362 291.81634,184.89362 Z"
         style="font-size:17.5px"
         id="path1008" />
      <path
         d="M 301.66882,183.68612 Q 302.98132,183.68612 303.76882,182.42612 304.57382,181.16612 304.57382,178.89112 304.57382,176.72112 303.76882,175.49612 302.98132,174.27112 301.66882,174.27112 300.35632,174.27112 299.55132,175.49612 298.76382,176.72112 298.76382,178.89112 298.76382,181.16612 299.55132,182.42612 300.35632,183.68612 301.66882,183.68612 Z M 304.83632,187.53612 Q 303.31382,187.53612 302.35132,186.76612 301.38882,185.99612 300.96882,184.84112 299.30632,184.54362 298.27382,183.00362 297.25882,181.44612 297.25882,178.89112 297.25882,177.03612 297.81882,175.72362 298.37882,174.39362 299.37632,173.69362 300.37382,172.99362 301.66882,172.99362 302.96382,172.99362 303.96132,173.69362 304.95882,174.39362 305.51882,175.72362 306.07882,177.03612 306.07882,178.89112 306.07882,181.39362 305.09882,182.93362 304.11882,184.47362 302.50882,184.80612 302.80632,185.55862 303.45382,185.92612 304.10132,186.29362 304.99382,186.29362 305.25632,186.29362 305.46632,186.24112 305.69382,186.18862 305.85132,186.11862 L 306.13132,187.29112 Q 305.85132,187.39612 305.51882,187.46612 305.20382,187.53612 304.83632,187.53612 Z"
         style="font-size:17.5px"
         id="path1010" />
      <path
         d="M 324.20876,180.18612 Q 323.68376,180.18612 323.26376,179.97612 322.86126,179.74862 322.49376,179.45112 322.14376,179.15362 321.79376,178.94362 321.46126,178.71612 321.09376,178.71612 320.69126,178.71612 320.32376,179.01362 319.97376,179.31112 319.67626,180.22112 L 318.74876,179.81862 Q 319.20376,178.57612 319.83376,178.10362 320.46376,177.63112 321.12876,177.63112 321.65376,177.63112 322.05626,177.85862 322.47626,178.06862 322.82626,178.36612 323.19376,178.66362 323.52626,178.89112 323.87626,179.10112 324.24376,179.10112 324.64626,179.10112 324.99626,178.80362 325.36376,178.50612 325.66126,177.59612 L 326.58876,178.01612 Q 326.13376,179.24112 325.50376,179.71362 324.87376,180.18612 324.20876,180.18612 Z"
         style="font-size:17.5px"
         id="path1012" />
      <path
         d="M 329.40623,179.45112 V 178.36612 H 336.93123 V 179.45112 Z"
         style="font-size:17.5px"
         id="path1014" />
      <path
         d="M 343.0912,182.86362 V 179.45112 H 339.9062 V 178.36612 H 343.0912 V 174.95362 H 344.2462 V 178.36612 H 347.4312 V 179.45112 H 344.2462 V 182.86362 Z"
         style="font-size:17.5px"
         id="path1016" />
      <path
         d="M 350.40617,177.57862 V 176.49362 H 357.93117 V 177.57862 Z M 350.40617,181.32362 V 180.23862 H 357.93117 V 181.32362 Z"
         style="font-size:17.5px"
         id="path1018" />
      <path
         d="M 361.29117,183.84362 V 182.46112 L 366.55867,178.90862 V 178.83862 L 361.29117,175.28612 V 173.90362 L 367.81867,178.33112 V 179.41612 Z"
         style="font-size:17.5px"
         id="path1020" />
    </g>
  </g>
</svg>
