<?xml version="1.0" encoding="UTF-8" standalone="no"?>
<!-- Created with Inkscape (http://www.inkscape.org/) -->

<svg
   xmlns:dc="http://purl.org/dc/elements/1.1/"
   xmlns:cc="http://creativecommons.org/ns#"
   xmlns:rdf="http://www.w3.org/1999/02/22-rdf-syntax-ns#"
   xmlns:svg="http://www.w3.org/2000/svg"
   xmlns="http://www.w3.org/2000/svg"
   xmlns:sodipodi="http://sodipodi.sourceforge.net/DTD/sodipodi-0.dtd"
   xmlns:inkscape="http://www.inkscape.org/namespaces/inkscape"
   width="110.75117mm"
   height="30.26833mm"
   viewBox="0 0 392.42542 107.24999"
   id="svg2"
   version="1.1"
   inkscape:version="0.91 r13725"
   sodipodi:docname="Sauce Code Pro Nerd Font.svg">
  <defs
     id="defs4" />
  <sodipodi:namedview
     id="base"
     pagecolor="#ffffff"
     bordercolor="#666666"
     borderopacity="1.0"
     inkscape:pageopacity="0.0"
     inkscape:pageshadow="2"
     inkscape:zoom="0.7"
     inkscape:cx="-54.699647"
     inkscape:cy="-400.90144"
     inkscape:document-units="px"
     inkscape:current-layer="layer1"
     showgrid="false"
     inkscape:window-width="1861"
     inkscape:window-height="1056"
     inkscape:window-x="59"
     inkscape:window-y="24"
     inkscape:window-maximized="1" />
  <metadata
     id="metadata7">
    <rdf:RDF>
      <cc:Work
         rdf:about="">
        <dc:format>image/svg+xml</dc:format>
        <dc:type
           rdf:resource="http://purl.org/dc/dcmitype/StillImage" />
        <dc:title />
      </cc:Work>
    </rdf:RDF>
  </metadata>
  <g
     inkscape:label="Layer 1"
     inkscape:groupmode="layer"
     id="layer1"
     transform="translate(-64.699643,-81.353632)">
    <g
       style="font-style:normal;font-weight:normal;font-size:27.5px;line-height:125%;font-family:'Sauce Code Pro Nerd Font';text-decoration: underline;text-decoration-line: underline;letter-spacing:0px;word-spacing:0px;fill:#ffffff;fill-opacity:1;stroke:none;stroke-width:1px;stroke-linecap:butt;stroke-linejoin:miter;stroke-opacity:1"
       id="text4136">
      <path
         d="m 71.244643,101.26363 q -1.98,0 -3.6575,-0.715 -1.65,-0.714998 -2.8875,-1.952498 l 1.375,-1.595 q 1.0175,1.0175 2.365,1.65 1.3475,0.605 2.915,0.605 1.87,0 2.8875,-0.7975 1.045,-0.7975 1.045,-2.0625 0,-0.715 -0.2475,-1.21 -0.2475,-0.495 -0.6875,-0.8525 -0.44,-0.3575 -1.045,-0.6325 -0.5775,-0.275 -1.265,-0.5775 l -2.585,-1.1275 q -0.6875,-0.275 -1.375,-0.66 -0.6875,-0.385 -1.265,-0.935 -0.55,-0.55 -0.9075,-1.2925 -0.3575,-0.77 -0.3575,-1.76 0,-1.0175 0.44,-1.8975 0.44,-0.88 1.21,-1.5125 0.7975,-0.66 1.87,-1.0175 1.1,-0.3575 2.3925,-0.3575 1.705,0 3.135,0.6325 1.43,0.605 2.42,1.595 l -1.21,1.485 q -0.88,-0.7975 -1.9525,-1.2375 -1.0725,-0.4675 -2.475,-0.4675 -1.5675,0 -2.53,0.715 -0.9625,0.6875 -0.9625,1.925 0,0.66 0.275,1.1275 0.3025,0.44 0.7425,0.7975 0.4675,0.33 1.045,0.5775 0.5775,0.2475 1.155,0.495 l 2.53,1.1 q 0.825,0.33 1.54,0.77 0.7425,0.4125 1.265,0.99 0.55,0.55 0.8525,1.32 0.33,0.7425 0.33,1.7325 0,1.0725 -0.44,2.0075 -0.44,0.935 -1.265,1.65 -0.825,0.687498 -2.0075,1.099998 -1.1825,0.385 -2.6675,0.385 z"
         id="path4140"
         inkscape:connector-curvature="0" />
      <path
         d="m 86.111401,101.26363 q -0.935,0 -1.76,-0.275 -0.825,-0.2475 -1.4575,-0.715 -0.605,-0.494998 -0.9625,-1.182498 -0.3575,-0.715 -0.3575,-1.6225 0,-1.1275 0.5225,-1.9525 0.55,-0.8525 1.705,-1.4575 1.1825,-0.605 3.025,-0.99 1.8425,-0.385 4.4275,-0.605 -0.0275,-0.6875 -0.22,-1.2925 -0.1925,-0.605 -0.605,-1.045 -0.4125,-0.4675 -1.1,-0.7425 -0.66,-0.275 -1.6225,-0.275 -1.32,0 -2.53,0.5225 -1.21,0.495 -2.145,1.0725 l -0.88,-1.54 q 0.495,-0.33 1.155,-0.66 0.6875,-0.3575 1.43,-0.6325 0.77,-0.275 1.6225,-0.44 0.8525,-0.1925 1.7325,-0.1925 2.75,0 4.07,1.5125 1.3475,1.485 1.3475,3.9875 l 0,8.194998 -1.8425,0 -0.1925,-1.814998 -0.0825,0 q -1.1275,0.88 -2.5025,1.512498 -1.3475,0.6325 -2.7775,0.6325 z m 0.605,-1.814998 q 1.155,0 2.255,-0.495 1.1275,-0.5225 2.2825,-1.485 l 0,-3.52 q -2.145,0.165 -3.6025,0.4675 -1.43,0.3025 -2.31,0.7425 -0.8525,0.4125 -1.21,0.9625 -0.3575,0.5225 -0.3575,1.1825 0,0.5775 0.2475,0.99 0.2475,0.385 0.6325,0.66 0.4125,0.2475 0.935,0.385 0.55,0.11 1.1275,0.11 z"
         id="path4142"
         inkscape:connector-curvature="0" />
      <path
         d="m 102.60066,101.26363 q -2.42,0 -3.547501,-1.347498 -1.1,-1.375 -1.1,-4.0425 l 0,-8.305 2.282501,0 0,8.0025 q 0,1.8975 0.6875,2.8325 0.715,0.9075 2.3925,0.9075 1.155,0 2.09,-0.5775 0.935,-0.605 2.0625,-1.8975 l 0,-9.2675 2.255,0 0,13.364998 -1.8425,0 -0.1925,-2.337498 -0.11,0 q -1.0175,1.1825 -2.2275,1.924998 -1.1825,0.7425 -2.75,0.7425 z"
         id="path4144"
         inkscape:connector-curvature="0" />
      <path
         d="m 121.83992,101.26363 q -1.5675,0 -2.915,-0.4675 -1.32,-0.4675 -2.31,-1.347498 -0.99,-0.9075 -1.54,-2.2 -0.55,-1.32 -0.55,-2.97 0,-1.6775 0.5775,-2.97 0.605,-1.32 1.6225,-2.2275 1.0175,-0.9075 2.365,-1.375 1.375,-0.4675 2.8875,-0.4675 1.65,0 2.8325,0.5775 1.21,0.5775 2.035,1.375 l -1.1275,1.4575 q -0.825,-0.715 -1.7325,-1.1275 -0.88,-0.4125 -1.925,-0.4125 -1.155,0 -2.1175,0.385 -0.9625,0.3575 -1.65,1.045 -0.66,0.6875 -1.045,1.65 -0.385,0.935 -0.385,2.09 0,1.155 0.3575,2.09 0.385,0.935 1.045,1.6225 0.6875,0.66 1.6225,1.045 0.9625,0.3575 2.1175,0.3575 1.2375,0 2.255,-0.4675 1.045,-0.495 1.87,-1.21 l 1.0175,1.4575 q -1.1275,0.989998 -2.475,1.539998 -1.3475,0.55 -2.8325,0.55 z"
         id="path4146"
         inkscape:connector-curvature="0" />
      <path
         d="m 137.88917,101.26363 q -1.5125,0 -2.8325,-0.4675 -1.2925,-0.4675 -2.2825,-1.374998 -0.9625,-0.9075 -1.54,-2.2 -0.55,-1.32 -0.55,-2.9975 0,-1.6225 0.55,-2.915 0.5775,-1.2925 1.5125,-2.2 0.9625,-0.9075 2.1725,-1.375 1.2375,-0.495 2.585,-0.495 1.43,0 2.5575,0.4675 1.155,0.44 1.925,1.265 0.7975,0.825 1.21,1.98 0.4125,1.155 0.4125,2.5575 0,0.385 -0.0275,0.7425 -0.0275,0.3575 -0.0825,0.6325 l -10.5325,0 q 0.22,2.2825 1.65,3.4375 1.4575,1.1275 3.5475,1.1275 1.21,0 2.1725,-0.33 0.99,-0.3575 1.8975,-0.935 l 0.825,1.485 q -0.99,0.659998 -2.2825,1.127498 -1.265,0.4675 -2.8875,0.4675 z m -0.33,-12.237498 q -0.825,0 -1.595,0.275 -0.7425,0.275 -1.3475,0.7975 -0.605,0.495 -1.0175,1.265 -0.4125,0.77 -0.5775,1.76 l 8.525,0 q -0.1375,-2.0625 -1.21,-3.08 -1.045,-1.0175 -2.7775,-1.0175 z"
         id="path4148"
         inkscape:connector-curvature="0" />
      <path
         d="m 171.44519,101.26363 q -1.6775,0 -3.1075,-0.6325 -1.43,-0.632498 -2.5025,-1.814998 -1.045,-1.21 -1.65,-2.9425 -0.605,-1.76 -0.605,-3.96 0,-2.1725 0.605,-3.905 0.605,-1.7325 1.6775,-2.9425 1.0725,-1.21 2.5575,-1.8425 1.485,-0.66 3.245,-0.66 1.6225,0 2.86,0.66 1.265,0.66 2.0625,1.54 l -1.2925,1.4575 q -0.715,-0.7425 -1.595,-1.1825 -0.88,-0.4675 -2.035,-0.4675 -1.2925,0 -2.365,0.5225 -1.045,0.495 -1.7875,1.4575 -0.7425,0.935 -1.155,2.2825 -0.4125,1.3475 -0.4125,3.025 0,1.705 0.4125,3.08 0.4125,1.3475 1.155,2.31 0.7425,0.9625 1.7875,1.485 1.0725,0.5225 2.365,0.5225 1.2375,0 2.2,-0.5225 0.99,-0.5225 1.87,-1.485 l 1.2925,1.4025 q -1.0725,1.2375 -2.42,1.924998 -1.3475,0.6875 -3.1625,0.6875 z"
         id="path4150"
         inkscape:connector-curvature="0" />
      <path
         d="m 186.53195,101.26363 q -1.32,0 -2.53,-0.4675 -1.1825,-0.4675 -2.09,-1.347498 -0.9075,-0.9075 -1.4575,-2.2 -0.5225,-1.32 -0.5225,-2.97 0,-1.6775 0.5225,-2.97 0.55,-1.32 1.4575,-2.2275 0.9075,-0.9075 2.09,-1.375 1.21,-0.4675 2.53,-0.4675 1.32,0 2.5025,0.4675 1.21,0.4675 2.1175,1.375 0.9075,0.9075 1.43,2.2275 0.55,1.2925 0.55,2.97 0,1.65 -0.55,2.97 -0.5225,1.2925 -1.43,2.2 -0.9075,0.879998 -2.1175,1.347498 -1.1825,0.4675 -2.5025,0.4675 z m 0,-1.869998 q 0.9625,0 1.7325,-0.3575 0.7975,-0.385 1.3475,-1.045 0.5775,-0.6875 0.88,-1.6225 0.3025,-0.935 0.3025,-2.09 0,-1.155 -0.3025,-2.09 -0.3025,-0.9625 -0.88,-1.65 -0.55,-0.6875 -1.3475,-1.045 -0.77,-0.385 -1.7325,-0.385 -0.9625,0 -1.76,0.385 -0.77,0.3575 -1.3475,1.045 -0.55,0.6875 -0.8525,1.65 -0.3025,0.935 -0.3025,2.09 0,1.155 0.3025,2.09 0.3025,0.935 0.8525,1.6225 0.5775,0.66 1.3475,1.045 0.7975,0.3575 1.76,0.3575 z"
         id="path4152"
         inkscape:connector-curvature="0" />
      <path
         d="m 202.22371,101.26363 q -1.32,0 -2.3925,-0.4675 -1.045,-0.4675 -1.815,-1.347498 -0.77,-0.9075 -1.1825,-2.2 -0.4125,-1.2925 -0.4125,-2.97 0,-1.6225 0.495,-2.915 0.5225,-1.32 1.3475,-2.2275 0.8525,-0.9075 1.9525,-1.4025 1.1,-0.495 2.2825,-0.495 1.21,0 2.145,0.4675 0.9625,0.44 1.8425,1.265 l 0.0825,0 -0.11,-2.475 0,-5.1425 2.255,0 0,19.579998 -1.87,0 -0.1925,-1.759998 -0.0825,0 q -0.825,0.852498 -1.98,1.484998 -1.1275,0.605 -2.365,0.605 z m 0.4675,-1.897498 q 1.98,0 3.7675,-2.0075 l 0,-6.655 q -0.9075,-0.8525 -1.7875,-1.21 -0.8525,-0.3575 -1.7325,-0.3575 -0.88,0 -1.65,0.385 -0.7425,0.3575 -1.32,1.045 -0.55,0.66 -0.88,1.595 -0.33,0.935 -0.33,2.09 0,2.42 1.0175,3.7675 1.045,1.3475 2.915,1.3475 z"
         id="path4154"
         inkscape:connector-curvature="0" />
      <path
         d="m 220.33546,101.26363 q -1.5125,0 -2.8325,-0.4675 -1.2925,-0.4675 -2.2825,-1.374998 -0.9625,-0.9075 -1.54,-2.2 -0.55,-1.32 -0.55,-2.9975 0,-1.6225 0.55,-2.915 0.5775,-1.2925 1.5125,-2.2 0.9625,-0.9075 2.1725,-1.375 1.2375,-0.495 2.585,-0.495 1.43,0 2.5575,0.4675 1.155,0.44 1.925,1.265 0.7975,0.825 1.21,1.98 0.4125,1.155 0.4125,2.5575 0,0.385 -0.0275,0.7425 -0.0275,0.3575 -0.0825,0.6325 l -10.5325,0 q 0.22,2.2825 1.65,3.4375 1.4575,1.1275 3.5475,1.1275 1.21,0 2.1725,-0.33 0.99,-0.3575 1.8975,-0.935 l 0.825,1.485 q -0.99,0.659998 -2.2825,1.127498 -1.265,0.4675 -2.8875,0.4675 z m -0.33,-12.237498 q -0.825,0 -1.595,0.275 -0.7425,0.275 -1.3475,0.7975 -0.605,0.495 -1.0175,1.265 -0.4125,0.77 -0.5775,1.76 l 8.525,0 q -0.1375,-2.0625 -1.21,-3.08 -1.045,-1.0175 -2.7775,-1.0175 z"
         id="path4156"
         inkscape:connector-curvature="0" />
      <path
         d="m 247.04398,100.93363 0,-18.039998 5.445,0 q 1.485,0 2.7225,0.275 1.2375,0.275 2.1175,0.9075 0.88,0.605 1.3475,1.6225 0.495,1.0175 0.495,2.5025 0,1.43 -0.495,2.475 -0.4675,1.045 -1.375,1.7325 -0.88,0.6875 -2.1175,1.045 -1.21,0.33 -2.695,0.33 l -3.1625,0 0,7.149998 -2.2825,0 z m 2.2825,-9.019998 2.8875,0 q 2.3925,0 3.52,-0.88 1.1275,-0.9075 1.1275,-2.8325 0,-1.9525 -1.155,-2.695 -1.155,-0.77 -3.4925,-0.77 l -2.8875,0 0,7.1775 z"
         id="path4158"
         inkscape:connector-curvature="0" />
      <path
         d="m 264.74324,100.93363 0,-13.364998 1.87,0 0.1925,3.1625 0.0825,0 q 1.045,-1.6225 2.5575,-2.5575 1.54,-0.935 3.41,-0.935 0.7425,0 1.375,0.1375 0.6325,0.11 1.265,0.4125 l -0.5225,1.9525 q -0.715,-0.2475 -1.21,-0.3575 -0.4675,-0.11 -1.265,-0.11 -1.5125,0 -2.915,0.88 -1.375,0.8525 -2.585,2.9425 l 0,7.837498 -2.255,0 z"
         id="path4160"
         inkscape:connector-curvature="0" />
      <path
         d="m 285.46749,101.26363 q -1.32,0 -2.53,-0.4675 -1.1825,-0.4675 -2.09,-1.347498 -0.9075,-0.9075 -1.4575,-2.2 -0.5225,-1.32 -0.5225,-2.97 0,-1.6775 0.5225,-2.97 0.55,-1.32 1.4575,-2.2275 0.9075,-0.9075 2.09,-1.375 1.21,-0.4675 2.53,-0.4675 1.32,0 2.5025,0.4675 1.21,0.4675 2.1175,1.375 0.9075,0.9075 1.43,2.2275 0.55,1.2925 0.55,2.97 0,1.65 -0.55,2.97 -0.5225,1.2925 -1.43,2.2 -0.9075,0.879998 -2.1175,1.347498 -1.1825,0.4675 -2.5025,0.4675 z m 0,-1.869998 q 0.9625,0 1.7325,-0.3575 0.7975,-0.385 1.3475,-1.045 0.5775,-0.6875 0.88,-1.6225 0.3025,-0.935 0.3025,-2.09 0,-1.155 -0.3025,-2.09 -0.3025,-0.9625 -0.88,-1.65 -0.55,-0.6875 -1.3475,-1.045 -0.77,-0.385 -1.7325,-0.385 -0.9625,0 -1.76,0.385 -0.77,0.3575 -1.3475,1.045 -0.55,0.6875 -0.8525,1.65 -0.3025,0.935 -0.3025,2.09 0,1.155 0.3025,2.09 0.3025,0.935 0.8525,1.6225 0.5775,0.66 1.3475,1.045 0.7975,0.3575 1.76,0.3575 z"
         id="path4162"
         inkscape:connector-curvature="0" />
      <path
         d="m 312.45101,100.93363 0,-18.039998 2.53,0 5.775,11.33 1.7325,3.74 0.055,0 q -0.055,-1.3475 -0.1925,-2.805 -0.11,-1.485 -0.11,-2.915 l 0,-9.35 2.2,0 0,18.039998 -2.53,0 -5.775,-11.329998 -1.7325,-3.74 -0.055,0 q 0.055,1.4025 0.165,2.8325 0.1375,1.4025 0.1375,2.805 l 0,9.432498 -2.2,0 z"
         id="path4164"
         inkscape:connector-curvature="0" />
      <path
         d="m 335.76027,101.26363 q -1.5125,0 -2.8325,-0.4675 -1.2925,-0.4675 -2.2825,-1.374998 -0.9625,-0.9075 -1.54,-2.2 -0.55,-1.32 -0.55,-2.9975 0,-1.6225 0.55,-2.915 0.5775,-1.2925 1.5125,-2.2 0.9625,-0.9075 2.1725,-1.375 1.2375,-0.495 2.585,-0.495 1.43,0 2.5575,0.4675 1.155,0.44 1.925,1.265 0.7975,0.825 1.21,1.98 0.4125,1.155 0.4125,2.5575 0,0.385 -0.0275,0.7425 -0.0275,0.3575 -0.0825,0.6325 l -10.5325,0 q 0.22,2.2825 1.65,3.4375 1.4575,1.1275 3.5475,1.1275 1.21,0 2.1725,-0.33 0.99,-0.3575 1.8975,-0.935 l 0.825,1.485 q -0.99,0.659998 -2.2825,1.127498 -1.265,0.4675 -2.8875,0.4675 z m -0.33,-12.237498 q -0.825,0 -1.595,0.275 -0.7425,0.275 -1.3475,0.7975 -0.605,0.495 -1.0175,1.265 -0.4125,0.77 -0.5775,1.76 l 8.525,0 q -0.1375,-2.0625 -1.21,-3.08 -1.045,-1.0175 -2.7775,-1.0175 z"
         id="path4166"
         inkscape:connector-curvature="0" />
      <path
         d="m 347.18953,100.93363 0,-13.364998 1.87,0 0.1925,3.1625 0.0825,0 q 1.045,-1.6225 2.5575,-2.5575 1.54,-0.935 3.41,-0.935 0.7425,0 1.375,0.1375 0.6325,0.11 1.265,0.4125 l -0.5225,1.9525 q -0.715,-0.2475 -1.21,-0.3575 -0.4675,-0.11 -1.265,-0.11 -1.5125,0 -2.915,0.88 -1.375,0.8525 -2.585,2.9425 l 0,7.837498 -2.255,0 z"
         id="path4168"
         inkscape:connector-curvature="0" />
      <path
         d="m 367.11628,101.26363 q -1.32,0 -2.3925,-0.4675 -1.045,-0.4675 -1.815,-1.347498 -0.77,-0.9075 -1.1825,-2.2 -0.4125,-1.2925 -0.4125,-2.97 0,-1.6225 0.495,-2.915 0.5225,-1.32 1.3475,-2.2275 0.8525,-0.9075 1.9525,-1.4025 1.1,-0.495 2.2825,-0.495 1.21,0 2.145,0.4675 0.9625,0.44 1.8425,1.265 l 0.0825,0 -0.11,-2.475 0,-5.1425 2.255,0 0,19.579998 -1.87,0 -0.1925,-1.759998 -0.0825,0 q -0.825,0.852498 -1.98,1.484998 -1.1275,0.605 -2.365,0.605 z m 0.4675,-1.897498 q 1.98,0 3.7675,-2.0075 l 0,-6.655 q -0.9075,-0.8525 -1.7875,-1.21 -0.8525,-0.3575 -1.7325,-0.3575 -0.88,0 -1.65,0.385 -0.7425,0.3575 -1.32,1.045 -0.55,0.66 -0.88,1.595 -0.33,0.935 -0.33,2.09 0,2.42 1.0175,3.7675 1.045,1.3475 2.915,1.3475 z"
         id="path4170"
         inkscape:connector-curvature="0" />
      <path
         d="m 396.2998,100.93363 0,-18.039998 11.0825,0 0,1.925 -8.7725,0 0,6.105 7.425,0 0,1.925 -7.425,0 0,8.084998 -2.31,0 z"
         id="path4172"
         inkscape:connector-curvature="0" />
      <path
         d="m 417.38156,101.26363 q -1.32,0 -2.53,-0.4675 -1.1825,-0.4675 -2.09,-1.347498 -0.9075,-0.9075 -1.4575,-2.2 -0.5225,-1.32 -0.5225,-2.97 0,-1.6775 0.5225,-2.97 0.55,-1.32 1.4575,-2.2275 0.9075,-0.9075 2.09,-1.375 1.21,-0.4675 2.53,-0.4675 1.32,0 2.5025,0.4675 1.21,0.4675 2.1175,1.375 0.9075,0.9075 1.43,2.2275 0.55,1.2925 0.55,2.97 0,1.65 -0.55,2.97 -0.5225,1.2925 -1.43,2.2 -0.9075,0.879998 -2.1175,1.347498 -1.1825,0.4675 -2.5025,0.4675 z m 0,-1.869998 q 0.9625,0 1.7325,-0.3575 0.7975,-0.385 1.3475,-1.045 0.5775,-0.6875 0.88,-1.6225 0.3025,-0.935 0.3025,-2.09 0,-1.155 -0.3025,-2.09 -0.3025,-0.9625 -0.88,-1.65 -0.55,-0.6875 -1.3475,-1.045 -0.77,-0.385 -1.7325,-0.385 -0.9625,0 -1.76,0.385 -0.77,0.3575 -1.3475,1.045 -0.55,0.6875 -0.8525,1.65 -0.3025,0.935 -0.3025,2.09 0,1.155 0.3025,2.09 0.3025,0.935 0.8525,1.6225 0.5775,0.66 1.3475,1.045 0.7975,0.3575 1.76,0.3575 z"
         id="path4174"
         inkscape:connector-curvature="0" />
      <path
         d="m 428.17832,100.93363 0,-13.364998 1.87,0 0.1925,2.2825 0.11,0 q 1.045,-1.1275 2.255,-1.87 1.21,-0.7425 2.7775,-0.7425 2.3925,0 3.4925,1.375 1.1275,1.3475 1.1275,4.015 l 0,8.304998 -2.255,0 0,-8.002498 q 0,-1.8975 -0.715,-2.805 -0.715,-0.935 -2.365,-0.935 -0.605,0 -1.1275,0.165 -0.495,0.1375 -0.99,0.44 -0.495,0.3025 -1.0175,0.77 -0.5225,0.44 -1.1,1.045 l 0,9.322498 -2.255,0 z"
         id="path4176"
         inkscape:connector-curvature="0" />
      <path
         d="m 452.94507,101.26363 q -1.4575,0 -2.4475,-0.385 -0.99,-0.4125 -1.595,-1.127498 -0.605,-0.7425 -0.88,-1.76 -0.2475,-1.0175 -0.2475,-2.255 l 0,-6.325 -3.7675,0 0,-1.705 3.85,-0.1375 0.3025,-4.29 1.87,0 0,4.29 6.5725,0 0,1.8425 -6.5725,0 0,6.3525 q 0,0.9075 0.165,1.595 0.165,0.66 0.55,1.1275 0.385,0.4675 1.045,0.715 0.66,0.22 1.6225,0.22 0.9625,0 1.7325,-0.165 0.77,-0.165 1.485,-0.44 l 0.495,1.649998 q -0.9075,0.33 -1.925,0.55 -0.99,0.2475 -2.255,0.2475 z"
         id="path4178"
         inkscape:connector-curvature="0" />
    </g>
    <g
       style="font-style:normal;font-weight:normal;font-size:27.5px;line-height:125%;font-family:'Sauce Code Pro Nerd Font';letter-spacing:0px;word-spacing:0px;fill:#ffffff;fill-opacity:1;stroke:none;stroke-width:1px;stroke-linecap:butt;stroke-linejoin:miter;stroke-opacity:1"
       id="text4140">
      <path
         d="m 69.724403,141.14362 q -0.595,0 -1.12,-0.175 -0.525,-0.1575 -0.9275,-0.455 -0.385,-0.315 -0.6125,-0.7525 -0.2275,-0.455 -0.2275,-1.0325 0,-0.7175 0.3325,-1.2425 0.35,-0.5425 1.085,-0.9275 0.7525,-0.385 1.925,-0.63 1.1725,-0.245 2.8175,-0.385 -0.0175,-0.4375 -0.14,-0.8225 -0.1225,-0.385 -0.385,-0.665 -0.2625,-0.2975 -0.7,-0.4725 -0.42,-0.175 -1.0325,-0.175 -0.84,0 -1.61,0.3325 -0.77,0.315 -1.365,0.6825 l -0.56,-0.98 q 0.315,-0.21 0.735,-0.42 0.4375,-0.2275 0.91,-0.4025 0.49,-0.175 1.0325,-0.28 0.5425,-0.1225 1.1025,-0.1225 1.75,0 2.59,0.9625 0.8575,0.945 0.8575,2.5375 l 0,5.215 -1.1725,0 -0.1225,-1.155 -0.0525,0 q -0.7175,0.56 -1.5925,0.9625 -0.8575,0.4025 -1.7675,0.4025 z m 0.385,-1.155 q 0.735,0 1.435,-0.315 0.7175,-0.3325 1.4525,-0.945 l 0,-2.24 q -1.365,0.105 -2.2925,0.2975 -0.91,0.1925 -1.47,0.4725 -0.5425,0.2625 -0.77,0.6125 -0.2275,0.3325 -0.2275,0.7525 0,0.3675 0.1575,0.63 0.1575,0.245 0.4025,0.42 0.2625,0.1575 0.595,0.245 0.35,0.07 0.7175,0.07 z"
         style="font-size:17.5px"
         id="path4181"
         inkscape:connector-curvature="0" />
      <path
         d="m 81.512567,141.14362 q -0.6125,0 -1.33,-0.2975 -0.7,-0.315 -1.3125,-0.8575 l -0.0525,0 -0.1225,0.945 -1.155,0 0,-12.46 1.435,0 0,3.395 -0.0525,1.645 0.0525,0 q 0.5775,-0.595 1.33,-0.945 0.77,-0.35 1.5225,-0.35 0.8575,0 1.5225,0.315 0.665,0.2975 1.1025,0.875 0.455,0.56 0.6825,1.365 0.2275,0.7875 0.2275,1.7675 0,1.085 -0.315,1.9425 -0.315,0.8575 -0.8575,1.4525 -0.525,0.595 -1.225,0.91 -0.7,0.2975 -1.4525,0.2975 z m -0.2275,-1.2075 q 0.56,0 1.0325,-0.2275 0.4725,-0.245 0.8225,-0.665 0.35,-0.4375 0.5425,-1.0675 0.1925,-0.63 0.1925,-1.4175 0,-0.7 -0.14,-1.2775 -0.14,-0.5775 -0.4375,-0.98 -0.28,-0.42 -0.735,-0.6475 -0.455,-0.2275 -1.085,-0.2275 -0.56,0 -1.2075,0.315 -0.63,0.2975 -1.295,0.9625 l 0,4.235 q 0.6125,0.5425 1.225,0.77 0.63,0.2275 1.085,0.2275 z"
         style="font-size:17.5px"
         id="path4183"
         inkscape:connector-curvature="0" />
      <path
         d="m 92.460731,141.14362 q -0.9975,0 -1.855,-0.2975 -0.84,-0.2975 -1.47,-0.8575 -0.63,-0.5775 -0.98,-1.4 -0.35,-0.84 -0.35,-1.89 0,-1.0675 0.3675,-1.89 0.385,-0.84 1.0325,-1.4175 0.6475,-0.5775 1.505,-0.875 0.875,-0.2975 1.8375,-0.2975 1.05,0 1.8025,0.3675 0.77,0.3675 1.295,0.875 l -0.7175,0.9275 q -0.525,-0.455 -1.1025,-0.7175 -0.56,-0.2625 -1.225,-0.2625 -0.735,0 -1.3475,0.245 -0.6125,0.2275 -1.05,0.665 -0.42,0.4375 -0.665,1.05 -0.245,0.595 -0.245,1.33 0,0.735 0.2275,1.33 0.245,0.595 0.665,1.0325 0.4375,0.42 1.0325,0.665 0.6125,0.2275 1.3475,0.2275 0.7875,0 1.435,-0.2975 0.665,-0.315 1.19,-0.77 l 0.6475,0.9275 q -0.7175,0.63 -1.575,0.98 -0.8575,0.35 -1.8025,0.35 z"
         style="font-size:17.5px"
         id="path4185"
         inkscape:connector-curvature="0" />
      <path
         d="m 101.6414,141.14362 q -0.84,0 -1.5225,-0.2975 -0.665005,-0.2975 -1.155005,-0.8575 -0.49,-0.5775 -0.7525,-1.4 -0.2625,-0.8225 -0.2625,-1.89 0,-1.0325 0.315,-1.855 0.3325,-0.84 0.8575,-1.4175 0.5425,-0.5775 1.242505,-0.8925 0.7,-0.315 1.4525,-0.315 0.77,0 1.365,0.2975 0.6125,0.28 1.1725,0.805 l 0.0525,0 -0.07,-1.575 0,-3.2725 1.435,0 0,12.46 -1.19,0 -0.1225,-1.12 -0.0525,0 q -0.525,0.5425 -1.26,0.945 -0.7175,0.385 -1.505,0.385 z m 0.2975,-1.2075 q 1.26,0 2.3975,-1.2775 l 0,-4.235 q -0.5775,-0.5425 -1.1375,-0.77 -0.5425,-0.2275 -1.1025,-0.2275 -0.56,0 -1.05,0.245 -0.4725,0.2275 -0.84,0.665 -0.350005,0.42 -0.560005,1.015 -0.21,0.595 -0.21,1.33 0,1.54 0.647505,2.3975 0.665,0.8575 1.855,0.8575 z"
         style="font-size:17.5px"
         id="path4187"
         inkscape:connector-curvature="0" />
      <path
         d="m 113.16706,141.14362 q -0.9625,0 -1.8025,-0.2975 -0.8225,-0.2975 -1.4525,-0.875 -0.6125,-0.5775 -0.98,-1.4 -0.35,-0.84 -0.35,-1.9075 0,-1.0325 0.35,-1.855 0.3675,-0.8225 0.9625,-1.4 0.6125,-0.5775 1.3825,-0.875 0.7875,-0.315 1.645,-0.315 0.91,0 1.6275,0.2975 0.735,0.28 1.225,0.805 0.5075,0.525 0.77,1.26 0.2625,0.735 0.2625,1.6275 0,0.245 -0.0175,0.4725 -0.0175,0.2275 -0.0525,0.4025 l -6.7025,0 q 0.14,1.4525 1.05,2.1875 0.9275,0.7175 2.2575,0.7175 0.77,0 1.3825,-0.21 0.63,-0.2275 1.2075,-0.595 l 0.525,0.945 q -0.63,0.42 -1.4525,0.7175 -0.805,0.2975 -1.8375,0.2975 z m -0.21,-7.7875 q -0.525,0 -1.015,0.175 -0.4725,0.175 -0.8575,0.5075 -0.385,0.315 -0.6475,0.805 -0.2625,0.49 -0.3675,1.12 l 5.425,0 q -0.0875,-1.3125 -0.77,-1.96 -0.665,-0.6475 -1.7675,-0.6475 z"
         style="font-size:17.5px"
         id="path4189"
         inkscape:connector-curvature="0" />
      <path
         d="m 122.12022,140.93362 0,-7.3325 -2.4325,0 0,-1.085 2.4325,-0.0875 0,-0.7175 q 0,-1.5575 0.8225,-2.5025 0.84,-0.945 2.6075,-0.945 1.26,0 2.45,0.49 l -0.3325,1.085 q -0.525,-0.245 -0.98,-0.315 -0.4375,-0.0875 -0.9975,-0.0875 -1.155,0 -1.6625,0.595 -0.49,0.5775 -0.49,1.6275 l 0,0.77 3.57,0 0,1.1725 -3.57,0 0,7.3325 -1.4175,0 z"
         style="font-size:17.5px"
         id="path4191"
         inkscape:connector-curvature="0" />
      <path
         d="m 133.55839,144.85362 q -1.8725,0 -2.905,-0.6125 -1.015,-0.6125 -1.015,-1.75 0,-0.5075 0.35,-0.9975 0.3675,-0.49 1.05,-0.8925 l 0,-0.07 q -0.35,-0.1925 -0.6125,-0.525 -0.2625,-0.3325 -0.2625,-0.875 0,-0.4025 0.2625,-0.8225 0.2625,-0.4375 0.7525,-0.77 l 0,-0.07 q -0.4375,-0.3325 -0.7525,-0.875 -0.2975,-0.56 -0.2975,-1.33 0,-0.7 0.2625,-1.26 0.28,-0.56 0.735,-0.945 0.455,-0.4025 1.05,-0.6125 0.6125,-0.2275 1.295,-0.2275 0.7,0 1.26,0.21 l 3.5175,0 0,1.1725 -2.205,0 q 0.2975,0.2975 0.5075,0.7525 0.21,0.455 0.21,0.9625 0,0.6825 -0.2625,1.225 -0.245,0.5425 -0.7,0.9275 -0.4375,0.3675 -1.05,0.5775 -0.595,0.1925 -1.2775,0.1925 -0.3325,0 -0.7175,-0.07 -0.3675,-0.0875 -0.7175,-0.245 -0.665,0.42 -0.665,0.98 0,0.5075 0.455,0.7525 0.4725,0.2275 1.3125,0.2275 l 1.9075,0 q 1.645,0 2.4325,0.455 0.805,0.455 0.805,1.54 0,0.595 -0.3325,1.1375 -0.3325,0.5425 -0.945,0.945 -0.6125,0.4025 -1.4875,0.6475 -0.875,0.245 -1.96,0.245 z m -0.0875,-7.5775 q 0.8225,0 1.3825,-0.5425 0.5775,-0.5425 0.5775,-1.47 0,-0.4375 -0.1575,-0.805 -0.1575,-0.3675 -0.42,-0.63 -0.2625,-0.2625 -0.63,-0.4025 -0.35,-0.1575 -0.7525,-0.1575 -0.4025,0 -0.77,0.1575 -0.35,0.14 -0.6125,0.4025 -0.2625,0.2625 -0.42,0.63 -0.1575,0.3675 -0.1575,0.805 0,0.9275 0.5775,1.47 0.5775,0.5425 1.3825,0.5425 z m 0.1925,6.5275 q 0.735,0 1.33,-0.14 0.595,-0.14 1.015,-0.385 0.42,-0.2275 0.63,-0.5425 0.2275,-0.2975 0.2275,-0.63 0,-0.6125 -0.49,-0.8225 -0.4725,-0.21 -1.4525,-0.21 l -1.6625,0 q -0.3675,0 -0.7,-0.035 -0.315,-0.0175 -0.595,-0.105 -0.6125,0.3325 -0.8575,0.6825 -0.2275,0.3675 -0.2275,0.735 0,0.665 0.7,1.05 0.7175,0.4025 2.0825,0.4025 z"
         style="font-size:17.5px"
         id="path4193"
         inkscape:connector-curvature="0" />
      <path
         d="m 140.49905,140.93362 0,-12.46 1.435,0 0,3.395 -0.0875,2.0125 0.0525,0 q 0.665,-0.7175 1.4175,-1.19 0.77,-0.4725 1.7675,-0.4725 1.5225,0 2.2225,0.875 0.7175,0.8575 0.7175,2.555 l 0,5.285 -1.435,0 0,-5.0925 q 0,-1.2075 -0.455,-1.785 -0.455,-0.595 -1.505,-0.595 -0.385,0 -0.7175,0.105 -0.315,0.0875 -0.63,0.28 -0.315,0.1925 -0.6475,0.49 -0.3325,0.28 -0.7,0.665 l 0,5.9325 -1.435,0 z"
         style="font-size:17.5px"
         id="path4195"
         inkscape:connector-curvature="0" />
      <path
         d="m 154.89472,140.93362 0,-7.3325 -3.955,0 0,-1.1725 5.39,0 0,8.505 -1.435,0 z m 0.56,-10.29 q -0.49,0 -0.8225,-0.2975 -0.3325,-0.315 -0.3325,-0.8225 0,-0.5075 0.3325,-0.805 0.3325,-0.315 0.8225,-0.315 0.49,0 0.8225,0.315 0.3325,0.2975 0.3325,0.805 0,0.5075 -0.3325,0.8225 -0.3325,0.2975 -0.8225,0.2975 z"
         style="font-size:17.5px"
         id="path4197"
         inkscape:connector-curvature="0" />
      <path
         d="m 163.25288,144.73112 q -0.665,0 -1.295,-0.175 -0.63,-0.1575 -1.1375,-0.4025 l 0.4725,-1.0675 q 0.455,0.2275 0.945,0.35 0.5075,0.1225 0.9975,0.1225 0.63,0 1.05,-0.1575 0.42,-0.1575 0.665,-0.455 0.245,-0.2975 0.3325,-0.735 0.105,-0.42 0.105,-0.9625 l 0,-7.6475 -3.955,0 0,-1.1725 5.39,0 0,8.715 q 0,0.7875 -0.175,1.435 -0.175,0.665 -0.595,1.1375 -0.4025,0.49 -1.085,0.7525 -0.6825,0.2625 -1.715,0.2625 z m 2.695,-14.0875 q -0.49,0 -0.8225,-0.2975 -0.3325,-0.315 -0.3325,-0.8225 0,-0.5075 0.3325,-0.805 0.3325,-0.315 0.8225,-0.315 0.49,0 0.8225,0.315 0.3325,0.2975 0.3325,0.805 0,0.5075 -0.3325,0.8225 -0.3325,0.2975 -0.8225,0.2975 z"
         style="font-size:17.5px"
         id="path4199"
         inkscape:connector-curvature="0" />
      <path
         d="m 172.20604,140.93362 0,-12.46 1.435,0 0,8.435 0.07,0 4.585,-4.48 1.645,0 -3.395,3.3425 3.85,5.1625 -1.61,0 -3.1325,-4.2875 -2.0125,1.9775 0,2.31 -1.435,0 z"
         style="font-size:17.5px"
         id="path4201"
         inkscape:connector-curvature="0" />
      <path
         d="m 187.96671,141.14362 q -1.365,0 -2.0825,-0.77 -0.7175,-0.77 -0.7175,-2.2925 l 0,-8.435 -3.0275,0 0,-1.1725 4.4625,0 0,9.7125 q 0,0.945 0.455,1.365 0.455,0.4025 1.225,0.4025 0.7525,0 1.5925,-0.385 l 0.3675,1.0675 q -0.595,0.245 -1.085,0.3675 -0.49,0.14 -1.19,0.14 z"
         style="font-size:17.5px"
         id="path4203"
         inkscape:connector-curvature="0" />
      <path
         d="m 192.35237,140.93362 0,-8.505 1.155,0 0.1225,1.12 0.035,0 q 0.3325,-0.595 0.77,-0.9625 0.4375,-0.3675 1.1725,-0.3675 1.2425,0 1.61,1.47 0.3675,-0.6825 0.805,-1.0675 0.455,-0.4025 1.19,-0.4025 0.8925,0 1.3825,0.6825 0.5075,0.665 0.5075,1.9425 l 0,6.09 -1.435,0 0,-5.985 q 0,-1.4875 -0.91,-1.4875 -0.455,0 -0.735,0.3325 -0.28,0.315 -0.63,0.98 l 0,6.16 -1.33,0 0,-5.985 q 0,-0.735 -0.21,-1.1025 -0.1925,-0.385 -0.665,-0.385 -0.455,0 -0.77,0.3325 -0.315,0.315 -0.63,0.98 l 0,6.16 -1.435,0 z"
         style="font-size:17.5px"
         id="path4205"
         inkscape:connector-curvature="0" />
      <path
         d="m 203.45804,140.93362 0,-8.505 1.19,0 0.1225,1.4525 0.07,0 q 0.665,-0.7175 1.435,-1.19 0.77,-0.4725 1.7675,-0.4725 1.5225,0 2.2225,0.875 0.7175,0.8575 0.7175,2.555 l 0,5.285 -1.435,0 0,-5.0925 q 0,-1.2075 -0.455,-1.785 -0.455,-0.595 -1.505,-0.595 -0.385,0 -0.7175,0.105 -0.315,0.0875 -0.63,0.28 -0.315,0.1925 -0.6475,0.49 -0.3325,0.28 -0.7,0.665 l 0,5.9325 -1.435,0 z"
         style="font-size:17.5px"
         id="path4207"
         inkscape:connector-curvature="0" />
      <path
         d="m 217.5737,141.14362 q -0.84,0 -1.61,-0.2975 -0.7525,-0.2975 -1.33,-0.8575 -0.5775,-0.5775 -0.9275,-1.4 -0.3325,-0.84 -0.3325,-1.89 0,-1.0675 0.3325,-1.89 0.35,-0.84 0.9275,-1.4175 0.5775,-0.5775 1.33,-0.875 0.77,-0.2975 1.61,-0.2975 0.84,0 1.5925,0.2975 0.77,0.2975 1.3475,0.875 0.5775,0.5775 0.91,1.4175 0.35,0.8225 0.35,1.89 0,1.05 -0.35,1.89 -0.3325,0.8225 -0.91,1.4 -0.5775,0.56 -1.3475,0.8575 -0.7525,0.2975 -1.5925,0.2975 z m 0,-1.19 q 0.6125,0 1.1025,-0.2275 0.5075,-0.245 0.8575,-0.665 0.3675,-0.4375 0.56,-1.0325 0.1925,-0.595 0.1925,-1.33 0,-0.735 -0.1925,-1.33 -0.1925,-0.6125 -0.56,-1.05 -0.35,-0.4375 -0.8575,-0.665 -0.49,-0.245 -1.1025,-0.245 -0.6125,0 -1.12,0.245 -0.49,0.2275 -0.8575,0.665 -0.35,0.4375 -0.5425,1.05 -0.1925,0.595 -0.1925,1.33 0,0.735 0.1925,1.33 0.1925,0.595 0.5425,1.0325 0.3675,0.42 0.8575,0.665 0.5075,0.2275 1.12,0.2275 z"
         style="font-size:17.5px"
         id="path4209"
         inkscape:connector-curvature="0" />
      <path
         d="m 224.44436,144.52112 0,-12.0925 1.19,0 0.1225,1.085 0.0525,0 q 0.595,-0.56 1.365,-0.9275 0.7875,-0.3675 1.575,-0.3675 0.8575,0 1.505,0.315 0.665,0.2975 1.1025,0.875 0.455,0.56 0.6825,1.365 0.2275,0.7875 0.2275,1.785 0,1.085 -0.315,1.9425 -0.315,0.84 -0.8575,1.435 -0.525,0.595 -1.225,0.91 -0.7,0.2975 -1.47,0.2975 -0.595,0 -1.295,-0.28 -0.6825,-0.2975 -1.2425,-0.8225 l -0.0525,0 0.07,1.61 0,2.87 -1.435,0 z m 3.71,-4.585 q 1.155,0 1.89,-0.8925 0.735,-0.8925 0.735,-2.485 0,-0.7 -0.14,-1.2775 -0.14,-0.5775 -0.4375,-0.98 -0.28,-0.42 -0.735,-0.6475 -0.455,-0.2275 -1.085,-0.2275 -0.56,0 -1.2075,0.315 -0.63,0.2975 -1.295,0.9625 l 0,4.235 q 0.6125,0.5425 1.225,0.77 0.6125,0.2275 1.05,0.2275 z"
         style="font-size:17.5px"
         id="path4211"
         inkscape:connector-curvature="0" />
      <path
         d="m 240.74753,144.52112 0,-3.0975 0.07,-1.575 -0.0525,0 q -0.525,0.5425 -1.2425,0.9275 -0.7,0.3675 -1.4875,0.3675 -0.8225,0 -1.505,-0.2975 -0.6825,-0.2975 -1.1725,-0.8575 -0.4725,-0.5775 -0.735,-1.4 -0.2625,-0.8225 -0.2625,-1.89 0,-1.0325 0.315,-1.855 0.3325,-0.84 0.8575,-1.4175 0.5425,-0.5775 1.2425,-0.8925 0.7,-0.315 1.4525,-0.315 0.7875,0 1.4,0.2975 0.6125,0.2975 1.225,0.8575 l 0.0525,0 0.1225,-0.945 1.155,0 0,12.0925 -1.435,0 z m -2.3975,-4.585 q 1.26,0 2.3975,-1.2775 l 0,-4.235 q -0.5775,-0.5425 -1.1375,-0.77 -0.5425,-0.2275 -1.1025,-0.2275 -0.56,0 -1.05,0.245 -0.4725,0.2275 -0.84,0.665 -0.35,0.42 -0.56,1.015 -0.21,0.595 -0.21,1.33 0,1.54 0.6475,2.3975 0.665,0.8575 1.855,0.8575 z"
         style="font-size:17.5px"
         id="path4213"
         inkscape:connector-curvature="0" />
      <path
         d="m 246.35819,140.93362 0,-8.505 1.19,0 0.1225,2.0125 0.0525,0 q 0.665,-1.0325 1.6275,-1.6275 0.98,-0.595 2.17,-0.595 0.4725,0 0.875,0.0875 0.4025,0.07 0.805,0.2625 l -0.3325,1.2425 q -0.455,-0.1575 -0.77,-0.2275 -0.2975,-0.07 -0.805,-0.07 -0.9625,0 -1.855,0.56 -0.875,0.5425 -1.645,1.8725 l 0,4.9875 -1.435,0 z"
         style="font-size:17.5px"
         id="path4215"
         inkscape:connector-curvature="0" />
      <path
         d="m 259.72136,141.14362 q -1.26,0 -2.3275,-0.385 -1.0675,-0.4025 -1.855,-0.945 l 0.665,-0.945 q 0.735,0.525 1.61,0.84 0.8925,0.315 2.0825,0.315 1.085,0 1.61,-0.385 0.5425,-0.4025 0.5425,-0.945 0,-0.245 -0.0875,-0.455 -0.0875,-0.21 -0.385,-0.4025 -0.28,-0.1925 -0.805,-0.3675 -0.525,-0.175 -1.3825,-0.35 -1.6625,-0.35 -2.5025,-0.9275 -0.8225,-0.595 -0.8225,-1.5575 0,-0.5075 0.2275,-0.945 0.2275,-0.455 0.665,-0.77 0.455,-0.3325 1.1025,-0.5075 0.665,-0.1925 1.54,-0.1925 0.98,0 1.89,0.3325 0.91,0.315 1.54,0.7525 l -0.7,0.9275 q -0.595,-0.4025 -1.3125,-0.6475 -0.7175,-0.245 -1.54,-0.245 -1.085,0 -1.5225,0.3675 -0.4375,0.3675 -0.4375,0.8575 0,0.56 0.5775,0.8575 0.5775,0.28 1.89,0.56 1.0675,0.2275 1.75,0.49 0.6825,0.245 1.0675,0.56 0.4025,0.315 0.5425,0.7 0.1575,0.385 0.1575,0.875 0,0.525 -0.245,0.98 -0.245,0.455 -0.735,0.805 -0.4725,0.35 -1.19,0.5425 -0.7,0.21 -1.61,0.21 z"
         style="font-size:17.5px"
         id="path4217"
         inkscape:connector-curvature="0" />
      <path
         d="m 271.68452,141.14362 q -0.9275,0 -1.5575,-0.245 -0.63,-0.2625 -1.015,-0.7175 -0.385,-0.4725 -0.56,-1.12 -0.1575,-0.6475 -0.1575,-1.435 l 0,-4.025 -2.3975,0 0,-1.085 2.45,-0.0875 0.1925,-2.73 1.19,0 0,2.73 4.1825,0 0,1.1725 -4.1825,0 0,4.0425 q 0,0.5775 0.105,1.015 0.105,0.42 0.35,0.7175 0.245,0.2975 0.665,0.455 0.42,0.14 1.0325,0.14 0.6125,0 1.1025,-0.105 0.49,-0.105 0.945,-0.28 l 0.315,1.05 q -0.5775,0.21 -1.225,0.35 -0.63,0.1575 -1.435,0.1575 z"
         style="font-size:17.5px"
         id="path4219"
         inkscape:connector-curvature="0" />
      <path
         d="m 279.58768,141.14362 q -1.54,0 -2.2575,-0.8575 -0.7,-0.875 -0.7,-2.5725 l 0,-5.285 1.4525,0 0,5.0925 q 0,1.2075 0.4375,1.8025 0.455,0.5775 1.5225,0.5775 0.735,0 1.33,-0.3675 0.595,-0.385 1.3125,-1.2075 l 0,-5.8975 1.435,0 0,8.505 -1.1725,0 -0.1225,-1.4875 -0.07,0 q -0.6475,0.7525 -1.4175,1.225 -0.7525,0.4725 -1.75,0.4725 z"
         style="font-size:17.5px"
         id="path4221"
         inkscape:connector-curvature="0" />
      <path
         d="m 290.25585,140.93362 -3.5875,-8.505 1.4525,0 1.96,4.83 q 0.2625,0.6475 0.49,1.2775 0.245,0.6125 0.4725,1.225 l 0.07,0 q 0.2275,-0.6125 0.4375,-1.225 0.2275,-0.63 0.49,-1.2775 l 1.96,-4.83 1.3825,0 -3.5175,8.505 -1.61,0 z"
         style="font-size:17.5px"
         id="path4223"
         inkscape:connector-curvature="0" />
      <path
         d="m 298.26401,140.93362 -1.855,-8.505 1.435,0 1.015,4.935 q 0.1225,0.6125 0.21,1.1725 0.0875,0.56 0.175,1.1725 l 0.07,0 q 0.0875,-0.6125 0.21,-1.1725 0.14,-0.5775 0.28,-1.1725 l 1.05,-4.41 1.435,0 1.015,4.41 q 0.14,0.6125 0.28,1.1725 0.1575,0.56 0.245,1.1725 l 0.07,0 q 0.105,-0.6125 0.175,-1.1725 0.0875,-0.56 0.21,-1.1725 l 1.015,-4.935 1.33,0 -1.82,8.505 -1.855,0 -0.98,-4.06 q -0.21,-0.8925 -0.42,-2.52 l -0.07,0 q -0.21,1.6275 -0.42,2.52 l -0.945,4.06 -1.855,0 z"
         style="font-size:17.5px"
         id="path4225"
         inkscape:connector-curvature="0" />
      <path
         d="m 307.88218,140.93362 3.2375,-4.41 -2.9925,-4.095 1.5925,0 1.3475,1.8725 q 0.2275,0.35 0.4725,0.7175 0.2625,0.3675 0.525,0.7175 l 0.07,0 q 0.245,-0.35 0.49,-0.735 0.245,-0.385 0.4725,-0.735 l 1.2775,-1.8375 1.5225,0 -3.0275,4.2175 3.255,4.2875 -1.575,0 -1.4875,-1.96 q -0.2625,-0.3675 -0.56,-0.77 -0.28,-0.4025 -0.56,-0.77 l -0.07,0 q -0.2625,0.385 -0.525,0.77 -0.2625,0.3675 -0.525,0.77 l -1.4,1.96 -1.54,0 z"
         style="font-size:17.5px"
         id="path4227"
         inkscape:connector-curvature="0" />
      <path
         d="m 319.54784,144.59112 q -0.63,0 -1.12,-0.175 l 0.2975,-1.1375 q 0.175,0.0525 0.3675,0.0875 0.21,0.035 0.4025,0.035 0.8925,0 1.4525,-0.525 0.56,-0.5075 0.875,-1.295 l 0.2625,-0.63 -3.9725,-8.5225 1.4525,0 2.0825,4.7075 q 0.245,0.56 0.5075,1.2075 0.28,0.6475 0.5425,1.26 l 0.07,0 q 0.2275,-0.6125 0.455,-1.2425 0.245,-0.6475 0.455,-1.225 l 1.855,-4.7075 1.365,0 -3.745,9.205 q -0.245,0.63 -0.56,1.1725 -0.315,0.5425 -0.7525,0.9275 -0.4375,0.4025 -1.015,0.63 -0.56,0.2275 -1.2775,0.2275 z"
         style="font-size:17.5px"
         id="path4229"
         inkscape:connector-curvature="0" />
      <path
         d="m 328.991,140.93362 0,-0.77 5.8275,-6.5625 -5.18,0 0,-1.1725 7.245,0 0,0.77 -5.845,6.5625 6.0025,0 0,1.1725 -8.05,0 z"
         style="font-size:17.5px"
         id="path4231"
         inkscape:connector-curvature="0" />
      <path
         d="m 69.479403,156.38612 -0.5425,1.75 3.43,0 -0.5425,-1.75 q -0.2975,-0.9625 -0.595,-1.9075 -0.28,-0.9625 -0.5425,-1.96 l -0.07,0 q -0.28,0.9975 -0.56,1.96 -0.28,0.945 -0.5775,1.9075 z m -3.5,6.4225 3.8675,-11.48 1.645,0 3.8675,11.48 -1.54,0 -1.085,-3.5 -4.165,0 -1.1025,3.5 -1.4875,0 z"
         style="font-size:17.5px"
         id="path4233"
         inkscape:connector-curvature="0" />
      <path
         d="m 77.645067,162.80862 0,-11.48 3.255,0 q 0.875,0 1.5925,0.1575 0.735,0.1575 1.2425,0.49 0.525,0.3325 0.805,0.875 0.2975,0.525 0.2975,1.2775 0,0.8575 -0.49,1.5575 -0.49,0.6825 -1.5225,0.945 l 0,0.07 q 1.26,0.1925 1.96,0.875 0.7,0.6825 0.7,1.8725 0,0.84 -0.315,1.47 -0.315,0.63 -0.8925,1.05 -0.56,0.42 -1.365,0.63 -0.7875,0.21 -1.75,0.21 l -3.5175,0 z m 1.4525,-6.65 1.5575,0 q 1.47,0 2.1,-0.4725 0.6475,-0.4725 0.6475,-1.435 0,-0.945 -0.6825,-1.3125 -0.665,-0.385 -1.995,-0.385 l -1.6275,0 0,3.605 z m 0,5.425 1.855,0 q 1.4875,0 2.2925,-0.5075 0.805,-0.525 0.805,-1.6975 0,-1.0675 -0.7875,-1.5225 -0.7875,-0.4725 -2.31,-0.4725 l -1.855,0 0,4.2 z"
         style="font-size:17.5px"
         id="path4235"
         inkscape:connector-curvature="0" />
      <path
         d="m 92.548231,163.01862 q -1.0675,0 -1.9775,-0.4025 -0.91,-0.4025 -1.5925,-1.155 -0.665,-0.77 -1.05,-1.8725 -0.385,-1.12 -0.385,-2.52 0,-1.3825 0.385,-2.485 0.385,-1.1025 1.0675,-1.8725 0.6825,-0.77 1.6275,-1.1725 0.945,-0.42 2.065,-0.42 1.0325,0 1.82,0.42 0.805,0.42 1.3125,0.98 l -0.8225,0.9275 q -0.455,-0.4725 -1.015,-0.7525 -0.56,-0.2975 -1.295,-0.2975 -0.8225,0 -1.505,0.3325 -0.665,0.315 -1.1375,0.9275 -0.4725,0.595 -0.735,1.4525 -0.2625,0.8575 -0.2625,1.925 0,1.085 0.2625,1.96 0.2625,0.8575 0.735,1.47 0.4725,0.6125 1.1375,0.945 0.6825,0.3325 1.505,0.3325 0.7875,0 1.4,-0.3325 0.63,-0.3325 1.19,-0.945 l 0.8225,0.8925 q -0.6825,0.7875 -1.54,1.225 -0.8575,0.4375 -2.0125,0.4375 z"
         style="font-size:17.5px"
         id="path4237"
         inkscape:connector-curvature="0" />
      <path
         d="m 98.421395,162.80862 0,-11.48 2.835005,0 q 2.6075,0 3.955,1.47 1.365,1.47 1.365,4.2175 0,2.7475 -1.365,4.27 -1.3475,1.5225 -3.885,1.5225 l -2.905005,0 z m 1.4525,-1.19 1.277505,0 q 1.9775,0 2.94,-1.2075 0.98,-1.2075 0.98,-3.395 0,-2.1875 -0.98,-3.3425 -0.9625,-1.155 -2.94,-1.155 l -1.277505,0 0,9.1 z"
         style="font-size:17.5px"
         id="path4239"
         inkscape:connector-curvature="0" />
      <path
         d="m 109.38706,162.80862 0,-11.48 7.105,0 0,1.225 -5.635,0 0,3.605 4.76,0 0,1.2425 -4.76,0 0,4.165 5.81,0 0,1.2425 -7.28,0 z"
         style="font-size:17.5px"
         id="path4241"
         inkscape:connector-curvature="0" />
      <path
         d="m 120.21272,162.80862 0,-11.48 7.0525,0 0,1.225 -5.5825,0 0,3.885 4.725,0 0,1.225 -4.725,0 0,5.145 -1.47,0 z"
         style="font-size:17.5px"
         id="path4243"
         inkscape:connector-curvature="0" />
      <path
         d="m 134.27589,163.01862 q -1.085,0 -1.995,-0.4025 -0.91,-0.4025 -1.575,-1.155 -0.665,-0.77 -1.0325,-1.8725 -0.3675,-1.12 -0.3675,-2.52 0,-1.3825 0.3675,-2.485 0.385,-1.12 1.05,-1.8725 0.6825,-0.77 1.61,-1.1725 0.945,-0.42 2.065,-0.42 0.5775,0 1.05,0.1225 0.4725,0.1225 0.8575,0.3325 0.4025,0.1925 0.7,0.4375 0.315,0.245 0.56,0.5075 l -0.8225,0.9275 q -0.42,-0.455 -0.9625,-0.7525 -0.5425,-0.2975 -1.3825,-0.2975 -0.805,0 -1.47,0.3325 -0.6475,0.315 -1.12,0.9275 -0.4725,0.595 -0.735,1.4525 -0.245,0.8575 -0.245,1.925 0,1.085 0.2275,1.96 0.245,0.8575 0.6825,1.47 0.455,0.6125 1.12,0.945 0.665,0.3325 1.505,0.3325 0.6125,0 1.1375,-0.175 0.525,-0.1925 0.8575,-0.5075 l 0,-2.9925 -2.2925,0 0,-1.2075 3.64,0 0,4.83 q -0.5425,0.56 -1.435,0.945 -0.875,0.385 -1.995,0.385 z"
         style="font-size:17.5px"
         id="path4245"
         inkscape:connector-curvature="0" />
      <path
         d="m 140.25405,162.80862 0,-11.48 1.47,0 0,4.8125 4.795,0 0,-4.8125 1.47,0 0,11.48 -1.47,0 0,-5.4075 -4.795,0 0,5.4075 -1.47,0 z"
         style="font-size:17.5px"
         id="path4247"
         inkscape:connector-curvature="0" />
      <path
         d="m 151.02722,162.80862 0,-1.2425 2.8525,0 0,-9.0125 -2.8525,0 0,-1.225 7.175,0 0,1.225 -2.8525,0 0,9.0125 2.8525,0 0,1.2425 -7.175,0 z"
         style="font-size:17.5px"
         id="path4249"
         inkscape:connector-curvature="0" />
      <path
         d="m 164.68788,163.01862 q -0.9625,0 -1.89,-0.455 -0.9275,-0.455 -1.5225,-1.4525 l 0.91,-0.8925 q 0.49,0.7875 1.1375,1.155 0.665,0.3675 1.33,0.3675 1.2425,0 1.8025,-0.6475 0.5775,-0.665 0.5775,-2.0825 l 0,-6.475 -4.8125,0 0,-1.225 6.265,0 0,7.8225 q 0,0.805 -0.1925,1.5225 -0.1925,0.7 -0.6475,1.225 -0.4375,0.525 -1.1725,0.84 -0.7175,0.2975 -1.785,0.2975 z"
         style="font-size:17.5px"
         id="path4251"
         inkscape:connector-curvature="0" />
      <path
         d="m 172.06604,162.80862 0,-11.48 1.47,0 0,5.7575 0.0525,0 4.83,-5.7575 1.6625,0 -3.64,4.3575 4.06,7.1225 -1.645,0 -3.3425,-6.02 -1.9775,2.3625 0,3.6575 -1.47,0 z"
         style="font-size:17.5px"
         id="path4253"
         inkscape:connector-curvature="0" />
      <path
         d="m 183.18921,162.80862 0,-11.48 1.435,0 0,10.2375 5.6875,0 0,1.2425 -7.1225,0 z"
         style="font-size:17.5px"
         id="path4255"
         inkscape:connector-curvature="0" />
      <path
         d="m 192.59737,162.80862 0,-11.48 1.785,0 1.61,4.9 0.56,1.855 0.07,0 0.5425,-1.855 1.6275,-4.9 1.785,0 0,11.48 -1.4,0 0,-5.74 q 0,-0.42 0.0175,-0.9625 0.035,-0.56 0.07,-1.12 0.0525,-0.56 0.0875,-1.085 0.035,-0.525 0.07,-0.8925 l -0.0525,0 -0.6475,2.24 -1.645,4.515 -1.05,0 -1.61,-4.515 -0.665,-2.24 -0.035,0 q 0.035,0.3675 0.07,0.8925 0.0525,0.525 0.0875,1.085 0.035,0.56 0.0525,1.12 0.035,0.5425 0.035,0.9625 l 0,5.74 -1.365,0 z"
         style="font-size:17.5px"
         id="path4257"
         inkscape:connector-curvature="0" />
      <path
         d="m 203.26554,162.80862 0,-11.48 1.61,0 3.675,7.21 1.1025,2.38 0.035,0 q -0.035,-0.8575 -0.1225,-1.785 -0.07,-0.945 -0.07,-1.855 l 0,-5.95 1.4,0 0,11.48 -1.61,0 -3.675,-7.21 -1.1025,-2.38 -0.035,0 q 0.035,0.8925 0.105,1.8025 0.0875,0.8925 0.0875,1.785 l 0,6.0025 -1.4,0 z"
         style="font-size:17.5px"
         id="path4259"
         inkscape:connector-curvature="0" />
      <path
         d="m 217.5737,163.01862 q -0.98,0 -1.785,-0.4025 -0.805,-0.42 -1.4,-1.19 -0.5775,-0.77 -0.91,-1.8725 -0.315,-1.12 -0.315,-2.5375 0,-1.3825 0.315,-2.485 0.3325,-1.1025 0.91,-1.855 0.595,-0.7525 1.4,-1.155 0.805,-0.4025 1.785,-0.4025 0.9625,0 1.7675,0.4025 0.8225,0.4025 1.4,1.155 0.595,0.7525 0.91,1.855 0.3325,1.1025 0.3325,2.485 0,1.4175 -0.3325,2.5375 -0.315,1.1025 -0.91,1.8725 -0.5775,0.77 -1.4,1.19 -0.805,0.4025 -1.7675,0.4025 z m 0,-1.2775 q 0.6475,0 1.19,-0.315 0.5425,-0.3325 0.91,-0.945 0.385,-0.6125 0.595,-1.4875 0.21,-0.875 0.21,-1.9775 0,-1.085 -0.21,-1.9425 -0.21,-0.8575 -0.595,-1.4525 -0.3675,-0.595 -0.91,-0.91 -0.5425,-0.315 -1.19,-0.315 -0.665,0 -1.2075,0.315 -0.525,0.315 -0.91,0.91 -0.3675,0.595 -0.5775,1.4525 -0.21,0.8575 -0.21,1.9425 0,1.1025 0.21,1.9775 0.21,0.875 0.5775,1.4875 0.385,0.6125 0.91,0.945 0.5425,0.315 1.2075,0.315 z"
         style="font-size:17.5px"
         id="path4261"
         inkscape:connector-curvature="0" />
      <path
         d="m 224.60186,162.80862 0,-11.48 3.465,0 q 0.945,0 1.7325,0.175 0.7875,0.175 1.3475,0.5775 0.56,0.385 0.8575,1.0325 0.315,0.6475 0.315,1.5925 0,0.91 -0.315,1.575 -0.2975,0.665 -0.875,1.1025 -0.56,0.4375 -1.3475,0.665 -0.77,0.21 -1.715,0.21 l -2.0125,0 0,4.55 -1.4525,0 z m 1.4525,-5.74 1.8375,0 q 1.5225,0 2.24,-0.56 0.7175,-0.5775 0.7175,-1.8025 0,-1.2425 -0.735,-1.715 -0.735,-0.49 -2.2225,-0.49 l -1.8375,0 0,4.5675 z"
         style="font-size:17.5px"
         id="path4263"
         inkscape:connector-curvature="0" />
      <path
         d="m 238.56003,161.81112 q 1.33,0 2.1,-1.26 0.7875,-1.26 0.7875,-3.535 0,-2.17 -0.7875,-3.4125 -0.77,-1.2425 -2.1,-1.2425 -1.33,0 -2.1175,1.2425 -0.77,1.2425 -0.77,3.4125 0,2.275 0.77,3.535 0.7875,1.26 2.1175,1.26 z m 3.1675,3.85 q -1.5225,0 -2.485,-0.77 -0.9625,-0.77 -1.3825,-1.925 -0.84,-0.14 -1.5225,-0.6125 -0.665,-0.4725 -1.155,-1.225 -0.4725,-0.77 -0.735,-1.8025 -0.2625,-1.0325 -0.2625,-2.31 0,-1.3825 0.315,-2.485 0.315,-1.1025 0.8925,-1.855 0.5775,-0.77 1.3825,-1.1725 0.805,-0.4025 1.785,-0.4025 0.98,0 1.785,0.4025 0.805,0.4025 1.3825,1.1725 0.5775,0.7525 0.8925,1.855 0.315,1.1025 0.315,2.485 0,1.2425 -0.2625,2.275 -0.245,1.015 -0.7175,1.7675 -0.455,0.7525 -1.1025,1.2425 -0.6475,0.4725 -1.4525,0.63 0.2975,0.7525 0.945,1.12 0.6475,0.3675 1.54,0.3675 0.2625,0 0.4725,-0.0525 0.2275,-0.0525 0.385,-0.1225 l 0.28,1.1725 q -0.2975,0.105 -0.6125,0.175 -0.315,0.07 -0.6825,0.07 z"
         style="font-size:17.5px"
         id="path4265"
         inkscape:connector-curvature="0" />
      <path
         d="m 245.55319,162.80862 0,-11.48 3.57,0 q 0.875,0 1.61,0.175 0.735,0.1575 1.26,0.5425 0.5425,0.385 0.84,0.9975 0.2975,0.6125 0.2975,1.505 0,1.3475 -0.7,2.1525 -0.7,0.805 -1.8725,1.1025 l 2.9225,5.005 -1.6625,0 -2.765,-4.8475 -2.0475,0 0,4.8475 -1.4525,0 z m 1.4525,-6.0375 1.9075,0 q 1.3475,0 2.0475,-0.5425 0.7175,-0.56 0.7175,-1.68 0,-1.1375 -0.7175,-1.5925 -0.7,-0.455 -2.0475,-0.455 l -1.9075,0 0,4.27 z"
         style="font-size:17.5px"
         id="path4267"
         inkscape:connector-curvature="0" />
      <path
         d="m 259.63386,163.01862 q -1.26,0 -2.3275,-0.455 -1.05,-0.455 -1.8375,-1.2425 l 0.875,-1.015 q 0.6475,0.6475 1.505,1.05 0.8575,0.385 1.855,0.385 1.19,0 1.8375,-0.5075 0.665,-0.5075 0.665,-1.3125 0,-0.455 -0.1575,-0.77 -0.1575,-0.315 -0.4375,-0.5425 -0.28,-0.2275 -0.665,-0.4025 -0.3675,-0.175 -0.805,-0.3675 l -1.645,-0.7175 q -0.4375,-0.175 -0.875,-0.42 -0.4375,-0.245 -0.805,-0.595 -0.35,-0.35 -0.5775,-0.8225 -0.2275,-0.49 -0.2275,-1.12 0,-0.6475 0.28,-1.2075 0.28,-0.56 0.77,-0.9625 0.5075,-0.42 1.19,-0.6475 0.7,-0.2275 1.5225,-0.2275 1.085,0 1.995,0.4025 0.91,0.385 1.54,1.015 l -0.77,0.945 q -0.56,-0.5075 -1.2425,-0.7875 -0.6825,-0.2975 -1.575,-0.2975 -0.9975,0 -1.61,0.455 -0.6125,0.4375 -0.6125,1.225 0,0.42 0.175,0.7175 0.1925,0.28 0.4725,0.5075 0.2975,0.21 0.665,0.3675 0.3675,0.1575 0.735,0.315 l 1.61,0.7 q 0.525,0.21 0.98,0.49 0.4725,0.2625 0.805,0.63 0.35,0.35 0.5425,0.84 0.21,0.4725 0.21,1.1025 0,0.6825 -0.28,1.2775 -0.28,0.595 -0.805,1.05 -0.525,0.4375 -1.2775,0.7 -0.7525,0.245 -1.6975,0.245 z"
         style="font-size:17.5px"
         id="path4269"
         inkscape:connector-curvature="0" />
      <path
         d="m 269.30452,162.80862 0,-10.255 -3.78,0 0,-1.225 9.03,0 0,1.225 -3.78,0 0,10.255 -1.47,0 z"
         style="font-size:17.5px"
         id="path4271"
         inkscape:connector-curvature="0" />
      <path
         d="m 280.55018,163.01862 q -0.84,0 -1.5575,-0.245 -0.7175,-0.245 -1.2425,-0.7875 -0.5075,-0.56 -0.805,-1.4175 -0.28,-0.8575 -0.28,-2.1 l 0,-7.14 1.47,0 0,7.175 q 0,0.8925 0.175,1.5225 0.1925,0.6125 0.5075,0.9975 0.3325,0.3675 0.77,0.5425 0.4375,0.175 0.9625,0.175 0.525,0 0.9625,-0.175 0.4375,-0.175 0.77,-0.5425 0.3325,-0.385 0.5075,-0.9975 0.1925,-0.63 0.1925,-1.5225 l 0,-7.175 1.4175,0 0,7.14 q 0,1.2425 -0.2975,2.1 -0.28,0.8575 -0.7875,1.4175 -0.5075,0.5425 -1.225,0.7875 -0.7,0.245 -1.54,0.245 z"
         style="font-size:17.5px"
         id="path4273"
         inkscape:connector-curvature="0" />
      <path
         d="m 290.18585,162.80862 -3.6575,-11.48 1.54,0 1.855,6.195 q 0.2975,1.0325 0.5425,1.9075 0.245,0.875 0.56,1.89 l 0.07,0 q 0.1575,-0.5075 0.2975,-0.9625 0.14,-0.4725 0.2625,-0.9275 0.14,-0.455 0.2625,-0.9275 0.14,-0.4725 0.28,-0.98 l 1.8375,-6.195 1.4875,0 -3.64,11.48 -1.6975,0 z"
         style="font-size:17.5px"
         id="path4275"
         inkscape:connector-curvature="0" />
      <path
         d="m 298.19401,162.80862 -1.75,-11.4975 1.645,0 0.84,7.21 q 0.035,0.3675 0.07,0.665 0.035,0.2975 0.0525,0.6125 0.035,0.2975 0.0525,0.63 0.035,0.3325 0.0525,0.7525 l 0.0525,0 q 0.07,-0.42 0.14,-0.7525 0.07,-0.3325 0.1225,-0.63 0.07,-0.315 0.14,-0.6125 0.07,-0.2975 0.1575,-0.6475 l 1.12,-4.27 1.4,0 1.085,4.27 q 0.0875,0.35 0.1575,0.6475 0.07,0.2975 0.1225,0.6125 0.07,0.2975 0.1225,0.63 0.07,0.3325 0.1575,0.7525 l 0.07,0 q 0.0175,-0.42 0.035,-0.7525 0.035,-0.3325 0.0525,-0.63 0.035,-0.315 0.0525,-0.6125 0.035,-0.2975 0.07,-0.6475 l 0.805,-7.2275 1.575,0 -1.68,11.4975 -1.82,0 -1.12,-4.62 q -0.14,-0.525 -0.245,-1.0325 -0.0875,-0.5075 -0.175,-1.0325 l -0.0525,0 q -0.0875,0.525 -0.175,1.0325 -0.0875,0.5075 -0.2275,1.0325 l -1.12,4.62 -1.785,0 z"
         style="font-size:17.5px"
         id="path4277"
         inkscape:connector-curvature="0" />
      <path
         d="m 307.70718,162.80862 3.43,-5.9325 -3.2025,-5.5475 1.61,0 1.61,2.94 q 0.2275,0.4025 0.4375,0.7875 0.21,0.3675 0.49,0.875 l 0.07,0 q 0.245,-0.5075 0.42,-0.875 0.1925,-0.385 0.4025,-0.7875 l 1.575,-2.94 1.54,0 -3.2025,5.6175 3.43,5.8625 -1.61,0 -1.7325,-3.0975 q -0.245,-0.42 -0.49,-0.8575 -0.2275,-0.455 -0.525,-0.98 l -0.07,0 q -0.245,0.525 -0.4725,0.98 -0.2275,0.4375 -0.455,0.8575 l -1.715,3.0975 -1.54,0 z"
         style="font-size:17.5px"
         id="path4279"
         inkscape:connector-curvature="0" />
      <path
         d="m 321.77034,162.80862 0,-4.095 -3.85,-7.385 1.54,0 1.7325,3.4125 q 0.3325,0.665 0.6475,1.33 0.315,0.6475 0.665,1.3475 l 0.07,0 q 0.35,-0.7 0.6825,-1.365 0.3325,-0.665 0.665,-1.33 l 1.6625,-3.395 1.505,0 -3.85,7.385 0,4.095 -1.47,0 z"
         style="font-size:17.5px"
         id="path4281"
         inkscape:connector-curvature="0" />
      <path
         d="m 328.886,162.80862 0,-0.875 6.405,-9.3975 -5.845,0 0,-1.225 7.6475,0 0,0.875 -6.4225,9.38 6.51,0 0,1.2425 -8.295,0 z"
         style="font-size:17.5px"
         id="path4283"
         inkscape:connector-curvature="0" />
      <path
         d="m 70.669403,184.89362 q -0.84,0 -1.61,-0.2975 -0.7525,-0.2975 -1.33,-0.8575 -0.5775,-0.5775 -0.9275,-1.4 -0.3325,-0.84 -0.3325,-1.89 0,-1.0675 0.3325,-1.89 0.35,-0.84 0.9275,-1.4175 0.5775,-0.5775 1.33,-0.875 0.77,-0.2975 1.61,-0.2975 0.84,0 1.5925,0.2975 0.77,0.2975 1.3475,0.875 0.5775,0.5775 0.91,1.4175 0.35,0.8225 0.35,1.89 0,1.05 -0.35,1.89 -0.3325,0.8225 -0.91,1.4 -0.5775,0.56 -1.3475,0.8575 -0.7525,0.2975 -1.5925,0.2975 z m 0,-1.19 q 0.6125,0 1.1025,-0.2275 0.5075,-0.245 0.8575,-0.665 0.3675,-0.4375 0.56,-1.0325 0.1925,-0.595 0.1925,-1.33 0,-0.735 -0.1925,-1.33 -0.1925,-0.6125 -0.56,-1.05 -0.35,-0.4375 -0.8575,-0.665 -0.49,-0.245 -1.1025,-0.245 -0.6125,0 -1.12,0.245 -0.49,0.2275 -0.8575,0.665 -0.35,0.4375 -0.5425,1.05 -0.1925,0.595 -0.1925,1.33 0,0.735 0.1925,1.33 0.1925,0.595 0.5425,1.0325 0.3675,0.42 0.8575,0.665 0.5075,0.2275 1.12,0.2275 z"
         style="font-size:17.5px"
         id="path4285"
         inkscape:connector-curvature="0" />
      <path
         d="m 81.162567,184.89362 q -0.98,0 -1.785,-0.4025 -0.805,-0.42 -1.4,-1.19 -0.5775,-0.77 -0.91,-1.8725 -0.315,-1.12 -0.315,-2.5375 0,-1.3825 0.315,-2.485 0.3325,-1.1025 0.91,-1.855 0.595,-0.7525 1.4,-1.155 0.805,-0.4025 1.785,-0.4025 0.9625,0 1.7675,0.4025 0.8225,0.4025 1.4,1.155 0.595,0.7525 0.91,1.855 0.3325,1.1025 0.3325,2.485 0,1.4175 -0.3325,2.5375 -0.315,1.1025 -0.91,1.8725 -0.5775,0.77 -1.4,1.19 -0.805,0.4025 -1.7675,0.4025 z m 0,-1.2775 q 0.6475,0 1.19,-0.315 0.5425,-0.3325 0.91,-0.945 0.385,-0.6125 0.595,-1.4875 0.21,-0.875 0.21,-1.9775 0,-1.085 -0.21,-1.9425 -0.21,-0.8575 -0.595,-1.4525 -0.3675,-0.595 -0.91,-0.91 -0.5425,-0.315 -1.19,-0.315 -0.665,0 -1.2075,0.315 -0.525,0.315 -0.91,0.91 -0.3675,0.595 -0.5775,1.4525 -0.21,0.8575 -0.21,1.9425 0,1.1025 0.21,1.9775 0.21,0.875 0.5775,1.4875 0.385,0.6125 0.91,0.945 0.5425,0.315 1.2075,0.315 z"
         style="font-size:17.5px"
         id="path4287"
         inkscape:connector-curvature="0" />
      <path
         d="m 91.655731,184.89362 q -1.8725,0 -2.94,-1.505 -1.0675,-1.5225 -1.0675,-4.3225 0,-2.8175 1.0675,-4.2875 1.0675,-1.47 2.94,-1.47 1.8725,0 2.94,1.47 1.0675,1.47 1.0675,4.2875 0,2.8 -1.0675,4.3225 -1.0675,1.505 -2.94,1.505 z m 0,-1.155 q 1.1725,0 1.9075,-1.1375 0.7525,-1.1375 0.7525,-3.535 0,-1.2075 -0.1925,-2.065 -0.1925,-0.875 -0.56,-1.435 -0.35,-0.5775 -0.84,-0.84 -0.49,-0.2625 -1.0675,-0.2625 -0.5775,0 -1.0675,0.2625 -0.49,0.2625 -0.8575,0.84 -0.35,0.56 -0.5425,1.435 -0.1925,0.8575 -0.1925,2.065 0,2.3975 0.735,3.535 0.7525,1.1375 1.925,1.1375 z m 0,-3.6225 q -0.4375,0 -0.77,-0.2975 -0.315,-0.315 -0.315,-0.875 0,-0.5425 0.315,-0.84 0.3325,-0.315 0.77,-0.315 0.4375,0 0.7525,0.315 0.3325,0.2975 0.3325,0.84 0,0.56 -0.3325,0.875 -0.315,0.2975 -0.7525,0.2975 z"
         style="font-size:17.5px"
         id="path4289"
         inkscape:connector-curvature="0" />
      <path
         d="m 102.1839,184.89362 q -0.945,0 -1.715,-0.2275 -0.752505,-0.2275 -1.277505,-0.63 -0.525,-0.42 -0.8225,-0.98 -0.28,-0.56 -0.28,-1.225 0,-0.5775 0.21,-1.0325 0.21,-0.455 0.5425,-0.8225 0.3325,-0.3675 0.7525,-0.63 0.437505,-0.28 0.892505,-0.49 l 0,-0.07 q -0.700005,-0.4375 -1.207505,-1.0675 -0.49,-0.6475 -0.49,-1.54 0,-0.6475 0.245,-1.1725 0.2625,-0.525 0.7175,-0.8925 0.472505,-0.385 1.102505,-0.595 0.63,-0.21 1.3825,-0.21 0.8225,0 1.4525,0.2275 0.6475,0.21 1.085,0.6125 0.455,0.385 0.6825,0.945 0.245,0.5425 0.245,1.19 0,0.7875 -0.5075,1.4875 -0.49,0.6825 -1.19,1.1725 l 0,0.07 q 0.455,0.2275 0.8575,0.49 0.4025,0.2625 0.7,0.595 0.2975,0.3325 0.455,0.7875 0.175,0.4375 0.175,1.0325 0,0.63 -0.28,1.1725 -0.2625,0.5425 -0.77,0.945 -0.5075,0.4025 -1.26,0.63 -0.735,0.2275 -1.6975,0.2275 z m 0.875,-6.3 q 1.4,-1.015 1.4,-2.24 0,-0.84 -0.5775,-1.4 -0.5775,-0.5775 -1.68,-0.5775 -0.945,0 -1.5225,0.49 -0.5775,0.49 -0.5775,1.3125 0,0.5075 0.2275,0.875 0.2275,0.35 0.63,0.63 0.4025,0.28 0.9275,0.5075 0.5425,0.21 1.1725,0.4025 z m -0.84,5.2325 q 1.26,0 1.925,-0.5425 0.665,-0.5425 0.665,-1.4175 0,-0.5775 -0.28,-0.9625 -0.2625,-0.4025 -0.735,-0.6825 -0.4725,-0.28 -1.12,-0.49 -0.63,-0.2275 -1.365,-0.4725 -0.8225,0.455 -1.365005,1.0325 -0.5425,0.56 -0.5425,1.4 0,0.945 0.752505,1.54 0.77,0.595 2.065,0.595 z"
         style="font-size:17.5px"
         id="path4291"
         inkscape:connector-curvature="0" />
      <path
         d="m 123.41522,184.68362 0,-7.3325 -3.955,0 0,-1.1725 5.39,0 0,8.505 -1.435,0 z m 0.56,-10.29 q -0.49,0 -0.8225,-0.2975 -0.3325,-0.315 -0.3325,-0.8225 0,-0.5075 0.3325,-0.805 0.3325,-0.315 0.8225,-0.315 0.49,0 0.8225,0.315 0.3325,0.2975 0.3325,0.805 0,0.5075 -0.3325,0.8225 -0.3325,0.2975 -0.8225,0.2975 z"
         style="font-size:17.5px"
         id="path4293"
         inkscape:connector-curvature="0" />
      <path
         d="m 130.04089,184.68362 0,-1.2425 2.8525,0 0,-9.0125 -2.8525,0 0,-1.225 7.175,0 0,1.225 -2.8525,0 0,9.0125 2.8525,0 0,1.2425 -7.175,0 z"
         style="font-size:17.5px"
         id="path4295"
         inkscape:connector-curvature="0" />
      <path
         d="m 145.99405,184.89362 q -1.365,0 -2.0825,-0.77 -0.7175,-0.77 -0.7175,-2.2925 l 0,-8.435 -3.0275,0 0,-1.1725 4.4625,0 0,9.7125 q 0,0.945 0.455,1.365 0.455,0.4025 1.225,0.4025 0.7525,0 1.5925,-0.385 l 0.3675,1.0675 q -0.595,0.245 -1.085,0.3675 -0.49,0.14 -1.19,0.14 z"
         style="font-size:17.5px"
         id="path4297"
         inkscape:connector-curvature="0" />
      <path
         d="m 151.70972,184.68362 0,-11.48 1.435,0 0,10.2375 5.6875,0 0,1.2425 -7.1225,0 z"
         style="font-size:17.5px"
         id="path4299"
         inkscape:connector-curvature="0" />
      <path
         d="m 161.55538,184.68362 0,-1.19 3.22,0 0,-8.225 -2.5025,0 0,-0.9275 q 0.9975,-0.14 1.6625,-0.3325 0.665,-0.1925 1.2075,-0.49 l 1.0675,0 0,9.975 2.9225,0 0,1.19 -7.5775,0 z"
         style="font-size:17.5px"
         id="path4301"
         inkscape:connector-curvature="0" />
      <path
         d="m 188.56171,187.34362 q -0.8225,0 -1.435,-0.1225 -0.6125,-0.105 -1.015,-0.3675 -0.4025,-0.2625 -0.595,-0.7175 -0.1925,-0.4375 -0.1925,-1.12 0,-0.4725 0.0175,-0.8925 0.035,-0.4375 0.0525,-0.84 0.035,-0.4025 0.0525,-0.805 0.035,-0.4025 0.035,-0.84 0,-0.2625 -0.105,-0.49 -0.105,-0.245 -0.385,-0.4375 -0.28,-0.1925 -0.7875,-0.315 -0.49,-0.1225 -1.26,-0.1225 l 0,-0.91 q 0.77,0 1.26,-0.1225 0.5075,-0.1225 0.7875,-0.315 0.28,-0.1925 0.385,-0.42 0.105,-0.245 0.105,-0.5075 0,-0.84 -0.0875,-1.645 -0.07,-0.8225 -0.07,-1.7325 0,-0.6825 0.1925,-1.12 0.1925,-0.455 0.595,-0.7175 0.4025,-0.2625 1.015,-0.3675 0.6125,-0.1225 1.435,-0.1225 l 1.0675,0 0,0.8225 -0.91,0 q -0.665,0 -1.1025,0.0875 -0.42,0.0875 -0.665,0.28 -0.2275,0.1925 -0.315,0.5075 -0.0875,0.2975 -0.0875,0.7175 0,0.7525 0.0525,1.5575 0.0525,0.7875 0.0525,1.61 0,0.8575 -0.35,1.3125 -0.3325,0.4375 -1.2425,0.595 l 0,0.07 q 0.91,0.1575 1.2425,0.6125 0.35,0.4375 0.35,1.295 0,0.8925 -0.0525,1.6275 -0.0525,0.735 -0.0525,1.54 0,0.42 0.0875,0.7175 0.0875,0.315 0.315,0.5075 0.245,0.1925 0.665,0.28 0.4375,0.0875 1.1025,0.0875 l 0.91,0 0,0.8225 -1.0675,0 z"
         style="font-size:17.5px"
         id="path4303"
         inkscape:connector-curvature="0" />
      <path
         d="m 193.06987,187.34362 0,-0.8225 0.8925,0 q 0.665,0 1.085,-0.0875 0.4375,-0.0875 0.6825,-0.28 0.245,-0.1925 0.3325,-0.5075 0.0875,-0.2975 0.0875,-0.7175 0,-0.805 -0.0525,-1.54 -0.0525,-0.735 -0.0525,-1.6275 0,-0.8575 0.3325,-1.295 0.3325,-0.455 1.2425,-0.6125 l 0,-0.07 q -0.91,-0.1575 -1.2425,-0.595 -0.3325,-0.455 -0.3325,-1.3125 0,-0.8225 0.0525,-1.61 0.0525,-0.805 0.0525,-1.5575 0,-0.42 -0.0875,-0.7175 -0.0875,-0.315 -0.3325,-0.5075 -0.245,-0.1925 -0.6825,-0.28 -0.42,-0.0875 -1.085,-0.0875 l -0.8925,0 0,-0.8225 1.0675,0 q 0.8225,0 1.4175,0.1225 0.6125,0.105 1.015,0.3675 0.4025,0.2625 0.595,0.7175 0.1925,0.4375 0.1925,1.12 0,0.91 -0.0875,1.7325 -0.07,0.805 -0.07,1.645 0,0.2625 0.105,0.5075 0.105,0.2275 0.385,0.42 0.28,0.1925 0.77,0.315 0.5075,0.1225 1.2775,0.1225 l 0,0.91 q -0.77,0 -1.2775,0.1225 -0.49,0.1225 -0.77,0.315 -0.28,0.1925 -0.385,0.4375 -0.105,0.2275 -0.105,0.49 0,0.4375 0.0175,0.84 0.035,0.4025 0.0525,0.805 0.035,0.4025 0.0525,0.84 0.035,0.42 0.035,0.8925 0,0.6825 -0.1925,1.12 -0.1925,0.455 -0.595,0.7175 -0.4025,0.2625 -1.015,0.3675 -0.595,0.1225 -1.4175,0.1225 l -1.0675,0 z"
         style="font-size:17.5px"
         id="path4305"
         inkscape:connector-curvature="0" />
      <path
         d="m 216.2612,187.34362 0,-15.05 4.8475,0 0,0.8225 -3.6925,0 0,13.405 3.6925,0 0,0.8225 -4.8475,0 z"
         style="font-size:17.5px"
         id="path4307"
         inkscape:connector-curvature="0" />
      <path
         d="m 224.53186,187.34362 0,-0.8225 3.6925,0 0,-13.405 -3.6925,0 0,-0.8225 4.8475,0 0,15.05 -4.8475,0 z"
         style="font-size:17.5px"
         id="path4309"
         inkscape:connector-curvature="0" />
      <path
         d="m 248.98319,188.60362 q -1.8725,0 -2.905,-0.6125 -1.015,-0.6125 -1.015,-1.75 0,-0.5075 0.35,-0.9975 0.3675,-0.49 1.05,-0.8925 l 0,-0.07 q -0.35,-0.1925 -0.6125,-0.525 -0.2625,-0.3325 -0.2625,-0.875 0,-0.4025 0.2625,-0.8225 0.2625,-0.4375 0.7525,-0.77 l 0,-0.07 q -0.4375,-0.3325 -0.7525,-0.875 -0.2975,-0.56 -0.2975,-1.33 0,-0.7 0.2625,-1.26 0.28,-0.56 0.735,-0.945 0.455,-0.4025 1.05,-0.6125 0.6125,-0.2275 1.295,-0.2275 0.7,0 1.26,0.21 l 3.5175,0 0,1.1725 -2.205,0 q 0.2975,0.2975 0.5075,0.7525 0.21,0.455 0.21,0.9625 0,0.6825 -0.2625,1.225 -0.245,0.5425 -0.7,0.9275 -0.4375,0.3675 -1.05,0.5775 -0.595,0.1925 -1.2775,0.1925 -0.3325,0 -0.7175,-0.07 -0.3675,-0.0875 -0.7175,-0.245 -0.665,0.42 -0.665,0.98 0,0.5075 0.455,0.7525 0.4725,0.2275 1.3125,0.2275 l 1.9075,0 q 1.645,0 2.4325,0.455 0.805,0.455 0.805,1.54 0,0.595 -0.3325,1.1375 -0.3325,0.5425 -0.945,0.945 -0.6125,0.4025 -1.4875,0.6475 -0.875,0.245 -1.96,0.245 z m -0.0875,-7.5775 q 0.8225,0 1.3825,-0.5425 0.5775,-0.5425 0.5775,-1.47 0,-0.4375 -0.1575,-0.805 -0.1575,-0.3675 -0.42,-0.63 -0.2625,-0.2625 -0.63,-0.4025 -0.35,-0.1575 -0.7525,-0.1575 -0.4025,0 -0.77,0.1575 -0.35,0.14 -0.6125,0.4025 -0.2625,0.2625 -0.42,0.63 -0.1575,0.3675 -0.1575,0.805 0,0.9275 0.5775,1.47 0.5775,0.5425 1.3825,0.5425 z m 0.1925,6.5275 q 0.735,0 1.33,-0.14 0.595,-0.14 1.015,-0.385 0.42,-0.2275 0.63,-0.5425 0.2275,-0.2975 0.2275,-0.63 0,-0.6125 -0.49,-0.8225 -0.4725,-0.21 -1.4525,-0.21 l -1.6625,0 q -0.3675,0 -0.7,-0.035 -0.315,-0.0175 -0.595,-0.105 -0.6125,0.3325 -0.8575,0.6825 -0.2275,0.3675 -0.2275,0.735 0,0.665 0.7,1.05 0.7175,0.4025 2.0825,0.4025 z"
         style="font-size:17.5px"
         id="path4311"
         inkscape:connector-curvature="0" />
      <path
         d="m 259.21386,179.25862 q 0.665,0 1.4175,-0.35 0.7525,-0.35 1.435,-1.1375 -0.175,-1.645 -0.91,-2.485 -0.7175,-0.84 -1.96,-0.84 -0.5075,0 -0.945,0.175 -0.42,0.175 -0.735,0.5075 -0.315,0.315 -0.5075,0.77 -0.175,0.455 -0.175,0.9975 0,1.155 0.595,1.7675 0.6125,0.595 1.785,0.595 z m -0.42,5.635 q -1.0325,0 -1.8025,-0.3325 -0.7525,-0.3325 -1.3125,-0.84 l 0.805,-0.91 q 0.42,0.4025 0.9975,0.6475 0.5775,0.245 1.225,0.245 0.665,0 1.26,-0.245 0.6125,-0.245 1.0675,-0.805 0.4725,-0.5775 0.7525,-1.4875 0.28,-0.91 0.315,-2.2575 -0.6825,0.665 -1.505,1.05 -0.805,0.385 -1.6625,0.385 -0.77,0 -1.4175,-0.21 -0.63,-0.2275 -1.085,-0.6475 -0.455,-0.4375 -0.7175,-1.085 -0.245,-0.6475 -0.245,-1.505 0,-0.805 0.2975,-1.4525 0.2975,-0.665 0.805,-1.1375 0.525,-0.4725 1.19,-0.735 0.6825,-0.2625 1.4175,-0.2625 0.91,0 1.6975,0.3325 0.7875,0.3325 1.365,1.015 0.5775,0.665 0.8925,1.68 0.3325,0.9975 0.3325,2.345 0,1.68 -0.4025,2.87 -0.385,1.1725 -1.0325,1.925 -0.6475,0.735 -1.4875,1.085 -0.84,0.3325 -1.75,0.3325 z"
         style="font-size:17.5px"
         id="path4313"
         inkscape:connector-curvature="0" />
      <path
         d="m 272.22702,188.27112 0,-3.0975 0.07,-1.575 -0.0525,0 q -0.525,0.5425 -1.2425,0.9275 -0.7,0.3675 -1.4875,0.3675 -0.8225,0 -1.505,-0.2975 -0.6825,-0.2975 -1.1725,-0.8575 -0.4725,-0.5775 -0.735,-1.4 -0.2625,-0.8225 -0.2625,-1.89 0,-1.0325 0.315,-1.855 0.3325,-0.84 0.8575,-1.4175 0.5425,-0.5775 1.2425,-0.8925 0.7,-0.315 1.4525,-0.315 0.7875,0 1.4,0.2975 0.6125,0.2975 1.225,0.8575 l 0.0525,0 0.1225,-0.945 1.155,0 0,12.0925 -1.435,0 z m -2.3975,-4.585 q 1.26,0 2.3975,-1.2775 l 0,-4.235 q -0.5775,-0.5425 -1.1375,-0.77 -0.5425,-0.2275 -1.1025,-0.2275 -0.56,0 -1.05,0.245 -0.4725,0.2275 -0.84,0.665 -0.35,0.42 -0.56,1.015 -0.21,0.595 -0.21,1.33 0,1.54 0.6475,2.3975 0.665,0.8575 1.855,0.8575 z"
         style="font-size:17.5px"
         id="path4315"
         inkscape:connector-curvature="0" />
      <path
         d="m 281.42518,184.89362 q -1.0675,0 -1.9775,-0.4025 -0.91,-0.4025 -1.5925,-1.155 -0.665,-0.77 -1.05,-1.8725 -0.385,-1.12 -0.385,-2.52 0,-1.3825 0.385,-2.485 0.385,-1.1025 1.0675,-1.8725 0.6825,-0.77 1.6275,-1.1725 0.945,-0.42 2.065,-0.42 1.0325,0 1.82,0.42 0.805,0.42 1.3125,0.98 l -0.8225,0.9275 q -0.455,-0.4725 -1.015,-0.7525 -0.56,-0.2975 -1.295,-0.2975 -0.8225,0 -1.505,0.3325 -0.665,0.315 -1.1375,0.9275 -0.4725,0.595 -0.735,1.4525 -0.2625,0.8575 -0.2625,1.925 0,1.085 0.2625,1.96 0.2625,0.8575 0.735,1.47 0.4725,0.6125 1.1375,0.945 0.6825,0.3325 1.505,0.3325 0.7875,0 1.4,-0.3325 0.63,-0.3325 1.19,-0.945 l 0.8225,0.8925 q -0.6825,0.7875 -1.54,1.225 -0.8575,0.4375 -2.0125,0.4375 z"
         style="font-size:17.5px"
         id="path4317"
         inkscape:connector-curvature="0" />
      <path
         d="m 291.67335,184.89362 q -1.085,0 -1.995,-0.4025 -0.91,-0.4025 -1.575,-1.155 -0.665,-0.77 -1.0325,-1.8725 -0.3675,-1.12 -0.3675,-2.52 0,-1.3825 0.3675,-2.485 0.385,-1.12 1.05,-1.8725 0.6825,-0.77 1.61,-1.1725 0.945,-0.42 2.065,-0.42 0.5775,0 1.05,0.1225 0.4725,0.1225 0.8575,0.3325 0.4025,0.1925 0.7,0.4375 0.315,0.245 0.56,0.5075 l -0.8225,0.9275 q -0.42,-0.455 -0.9625,-0.7525 -0.5425,-0.2975 -1.3825,-0.2975 -0.805,0 -1.47,0.3325 -0.6475,0.315 -1.12,0.9275 -0.4725,0.595 -0.735,1.4525 -0.245,0.8575 -0.245,1.925 0,1.085 0.2275,1.96 0.245,0.8575 0.6825,1.47 0.455,0.6125 1.12,0.945 0.665,0.3325 1.505,0.3325 0.6125,0 1.1375,-0.175 0.525,-0.1925 0.8575,-0.5075 l 0,-2.9925 -2.2925,0 0,-1.2075 3.64,0 0,4.83 q -0.5425,0.56 -1.435,0.945 -0.875,0.385 -1.995,0.385 z"
         style="font-size:17.5px"
         id="path4319"
         inkscape:connector-curvature="0" />
      <path
         d="m 301.51901,183.68612 q 1.33,0 2.1,-1.26 0.7875,-1.26 0.7875,-3.535 0,-2.17 -0.7875,-3.4125 -0.77,-1.2425 -2.1,-1.2425 -1.33,0 -2.1175,1.2425 -0.77,1.2425 -0.77,3.4125 0,2.275 0.77,3.535 0.7875,1.26 2.1175,1.26 z m 3.1675,3.85 q -1.5225,0 -2.485,-0.77 -0.9625,-0.77 -1.3825,-1.925 -0.84,-0.14 -1.5225,-0.6125 -0.665,-0.4725 -1.155,-1.225 -0.4725,-0.77 -0.735,-1.8025 -0.2625,-1.0325 -0.2625,-2.31 0,-1.3825 0.315,-2.485 0.315,-1.1025 0.8925,-1.855 0.5775,-0.77 1.3825,-1.1725 0.805,-0.4025 1.785,-0.4025 0.98,0 1.785,0.4025 0.805,0.4025 1.3825,1.1725 0.5775,0.7525 0.8925,1.855 0.315,1.1025 0.315,2.485 0,1.2425 -0.2625,2.275 -0.245,1.015 -0.7175,1.7675 -0.455,0.7525 -1.1025,1.2425 -0.6475,0.4725 -1.4525,0.63 0.2975,0.7525 0.945,1.12 0.6475,0.3675 1.54,0.3675 0.2625,0 0.4725,-0.0525 0.2275,-0.0525 0.385,-0.1225 l 0.28,1.1725 q -0.2975,0.105 -0.6125,0.175 -0.315,0.07 -0.6825,0.07 z"
         style="font-size:17.5px"
         id="path4321"
         inkscape:connector-curvature="0" />
      <path
         d="m 324.04534,180.18612 q -0.525,0 -0.945,-0.2275 -0.4025,-0.2275 -0.77,-0.5075 -0.35,-0.28 -0.7,-0.5075 -0.3325,-0.2275 -0.7,-0.2275 -0.4025,0 -0.77,0.2975 -0.35,0.2975 -0.6475,1.2075 l -0.9275,-0.4025 q 0.455,-1.225 1.085,-1.6975 0.63,-0.49 1.295,-0.49 0.525,0 0.9275,0.2275 0.42,0.2275 0.77,0.5075 0.3675,0.28 0.7,0.5075 0.35,0.2275 0.7175,0.2275 0.21,0 0.385,-0.0525 0.1925,-0.07 0.3675,-0.2275 0.1925,-0.175 0.35,-0.4725 0.1575,-0.2975 0.315,-0.7525 l 0.9275,0.42 q -0.455,1.225 -1.085,1.6975 -0.63,0.4725 -1.295,0.4725 z"
         style="font-size:17.5px"
         id="path4323"
         inkscape:connector-curvature="0" />
      <path
         d="m 329.236,179.45112 0,-1.085 7.525,0 0,1.085 -7.525,0 z"
         style="font-size:17.5px"
         id="path4325"
         inkscape:connector-curvature="0" />
      <path
         d="m 342.91417,182.86362 0,-3.4125 -3.185,0 0,-1.085 3.185,0 0,-3.4125 1.155,0 0,3.4125 3.185,0 0,1.085 -3.185,0 0,3.4125 -1.155,0 z"
         style="font-size:17.5px"
         id="path4327"
         inkscape:connector-curvature="0" />
      <path
         d="m 350.22233,177.57862 0,-1.085 7.525,0 0,1.085 -7.525,0 z m 0,3.7275 0,-1.085 7.525,0 0,1.085 -7.525,0 z"
         style="font-size:17.5px"
         id="path4329"
         inkscape:connector-curvature="0" />
      <path
         d="m 361.1005,183.84362 0,-1.3825 5.2675,-3.5525 0,-0.07 -5.2675,-3.5525 0,-1.3825 6.5275,4.4275 0,1.085 -6.5275,4.4275 z"
         style="font-size:17.5px"
         id="path4331"
         inkscape:connector-curvature="0" />
    </g>
  </g>
</svg>
