<?xml version="1.0" encoding="UTF-8" standalone="no"?>
<svg
   xmlns:dc="http://purl.org/dc/elements/1.1/"
   xmlns:cc="http://creativecommons.org/ns#"
   xmlns:rdf="http://www.w3.org/1999/02/22-rdf-syntax-ns#"
   xmlns:svg="http://www.w3.org/2000/svg"
   xmlns="http://www.w3.org/2000/svg"
   xmlns:sodipodi="http://sodipodi.sourceforge.net/DTD/sodipodi-0.dtd"
   xmlns:inkscape="http://www.inkscape.org/namespaces/inkscape"
   width="94.626389mm"
   height="29.908506mm"
   viewBox="0 0 335.29013 105.975"
   id="svg2"
   version="1.1"
   inkscape:version="0.91 r13725"
   sodipodi:docname="ShureTechMono Nerd Font.svg">
  <metadata
     id="metadata22">
    <rdf:RDF>
      <cc:Work
         rdf:about="">
        <dc:format>image/svg+xml</dc:format>
        <dc:type
           rdf:resource="http://purl.org/dc/dcmitype/StillImage" />
      </cc:Work>
    </rdf:RDF>
  </metadata>
  <defs
     id="defs20" />
  <sodipodi:namedview
     pagecolor="#ffffff"
     bordercolor="#666666"
     borderopacity="1"
     objecttolerance="10"
     gridtolerance="10"
     guidetolerance="10"
     inkscape:pageopacity="0"
     inkscape:pageshadow="2"
     inkscape:window-width="640"
     inkscape:window-height="480"
     id="namedview18"
     showgrid="false"
     inkscape:zoom="0.22425739"
     inkscape:cx="306.44006"
     inkscape:cy="-338.52207"
     inkscape:window-x="59"
     inkscape:window-y="24"
     inkscape:window-maximized="0"
     inkscape:current-layer="svg2" />
  <g
     font-weight="400"
     font-size="27.5"
     letter-spacing="0"
     word-spacing="0"
     id="g4"
     style="font-weight:400;font-size:27.5px;font-family:'ShureTechMono Nerd Font';letter-spacing:0;word-spacing:0;fill:#ffffff"
     transform="translate(-65.607181,-81.683998)">
    <g
       style="line-height:125%;text-decoration: underline;text-decoration-line: underline"
       id="text6">
      <path
         d="m 74.929498,96.258998 q 0,2.3375 -1.2925,3.52 -1.265,1.155002 -3.6575,1.155002 l -3.905,0 0,-2.090002 4.18,0 q 1.0175,0 1.65,-0.605 0.6325,-0.605 0.6325,-1.4575 l 0,-2.86 q 0,-0.825 -0.44,-1.32 -0.4125,-0.5225 -1.265,-0.5225 l -0.825,0 q -2.035,0 -3.2175,-1.1825 -1.1825,-1.21 -1.1825,-3.4925 l 0,-1.045 q 0,-2.3375 1.265,-3.4925 1.2925,-1.1825 3.685,-1.1825 l 3.9325,0 0,2.09 -4.2075,0 q -1.0175,0 -1.65,0.605 -0.6325,0.605 -0.6325,1.4575 l 0,2.09 q 0,0.8525 0.55,1.43 0.55,0.55 1.43,0.55 l 0.825,0 q 1.9525,0 3.025,1.1275 1.1,1.1275 1.1,3.41 l 0,1.815 z"
         id="path4151"
         inkscape:connector-curvature="0" />
      <path
         d="m 82.411217,81.683998 0,6.05 q 0.825,-0.55 2.0625,-0.55 l 1.265,0 q 2.2275,0 3.3,1.045 1.1,1.045 1.1,3.355 l 0,9.350002 -2.3375,0 0,-9.900002 q 0,-0.825 -0.495,-1.2925 -0.4675,-0.495 -1.2925,-0.495 l -1.815,0 q -0.88,0 -1.32,0.4675 -0.44,0.44 -0.4675,0.9625 l 0,10.257502 -2.3375,0 0,-19.250002 2.3375,0 z"
         id="path4153"
         inkscape:connector-curvature="0" />
      <path
         d="m 102.59794,100.3015 q -0.9075,0.6325 -2.2,0.6325 l -0.935004,0 q -2.2275,0 -3.3275,-1.045002 -1.0725,-1.045 -1.0725,-3.355 l 0,-9.35 2.3375,0 0,9.9 q 0,0.825 0.4675,1.32 0.495,0.4675 1.32,0.4675 l 1.485004,0 q 0.88,0 1.2925,-0.44 0.44,-0.44 0.495,-0.99 l 0,-10.2575 2.3375,0 0,13.750002 -2.2,0 0,-0.6325 z"
         id="path4155"
         inkscape:connector-curvature="0" />
      <path
         d="m 112.08715,98.871498 0,-9.625 -2.0075,0 0,-2.0625 4.2075,0 0,0.7425 q 0.9075,-0.7425 2.2,-0.7425 l 2.8325,0 0,2.2 -3.1075,0 q -0.88,0 -1.32,0.5775 -0.44,0.55 -0.4675,1.1275 l 0,7.7825 2.9975,0 0,2.062502 -7.3425,0 0,-2.062502 2.0075,0 z"
         id="path4157"
         inkscape:connector-curvature="0" />
      <path
         d="m 129.41387,100.934 q -2.42,0 -3.5475,-1.017502 -1.1275,-1.045 -1.1275,-3.3825 l 0,-4.95 q 0,-2.365 1.0175,-3.3825 1.0175,-1.0175 3.3825,-1.0175 l 1.2925,0 q 1.9525,0 2.9425,1.1 1.0175,1.0725 1.0175,3.1625 l 0,3.575 -7.315,0 0,2.0625 q 0,0.8525 0.5225,1.32 0.5225,0.4675 1.54,0.4675 l 4.3725,0 0,2.062502 -4.0975,0 z m 2.695,-10.037502 q 0,-0.715 -0.4675,-1.1825 -0.4675,-0.4675 -1.1825,-0.4675 l -1.595,0 q -0.99,0 -1.4025,0.4675 -0.385,0.44 -0.385,1.32 l 0,1.925 5.0325,0 0,-2.0625 z"
         id="path4159"
         inkscape:connector-curvature="0" />
      <path
         d="m 143.19309,100.934 0,-17.160002 -4.3725,0 0,-2.09 11.1375,0 0,2.09 -4.3725,0 0,17.160002 -2.3925,0 z"
         id="path4161"
         inkscape:connector-curvature="0" />
      <path
         d="m 159.06231,100.934 q -2.42,0 -3.5475,-1.017502 -1.1275,-1.045 -1.1275,-3.3825 l 0,-4.95 q 0,-2.365 1.0175,-3.3825 1.0175,-1.0175 3.3825,-1.0175 l 1.2925,0 q 1.9525,0 2.9425,1.1 1.0175,1.0725 1.0175,3.1625 l 0,3.575 -7.315,0 0,2.0625 q 0,0.8525 0.5225,1.32 0.5225,0.4675 1.54,0.4675 l 4.3725,0 0,2.062502 -4.0975,0 z m 2.695,-10.037502 q 0,-0.715 -0.4675,-1.1825 -0.4675,-0.4675 -1.1825,-0.4675 l -1.595,0 q -0.99,0 -1.4025,0.4675 -0.385,0.44 -0.385,1.32 l 0,1.925 5.0325,0 0,-2.0625 z"
         id="path4163"
         inkscape:connector-curvature="0" />
      <path
         d="m 174.60153,100.934 q -2.42,0 -3.5475,-1.017502 -1.1275,-1.045 -1.1275,-3.3825 l 0,-4.95 q 0,-2.31 1.1275,-3.355 1.155,-1.045 3.5475,-1.045 l 3.5475,0 0,2.0625 -3.8225,0 q -1.0175,0 -1.54,0.4675 -0.5225,0.4675 -0.5225,1.32 l 0,6.05 q 0,0.8525 0.5225,1.32 0.5225,0.4675 1.54,0.4675 l 3.8225,0 0,2.062502 -3.5475,0 z"
         id="path4165"
         inkscape:connector-curvature="0" />
      <path
         d="m 186.18075,81.683998 0,6.05 q 0.825,-0.55 2.0625,-0.55 l 1.265,0 q 2.2275,0 3.3,1.045 1.1,1.045 1.1,3.355 l 0,9.350002 -2.3375,0 0,-9.900002 q 0,-0.825 -0.495,-1.2925 -0.4675,-0.495 -1.2925,-0.495 l -1.815,0 q -0.88,0 -1.32,0.4675 -0.44,0.44 -0.4675,0.9625 l 0,10.257502 -2.3375,0 0,-19.250002 2.3375,0 z"
         id="path4167"
         inkscape:connector-curvature="0" />
      <path
         d="m 204.79997,94.471498 -2.2825,0 -2.695,-10.8075 0,17.270002 -2.09,0 0,-19.250002 3.8225,0 2.2,9.845 2.2275,-9.845 3.7125,0 0,19.250002 -2.145,0 0,-17.270002 -2.75,10.8075 z"
         id="path4169"
         inkscape:connector-curvature="0" />
      <path
         d="m 223.63919,96.533998 q 0,2.31 -1.155,3.355 -1.1275,1.045002 -3.52,1.045002 l -0.9075,0 q -2.3925,0 -3.5475,-1.045002 -1.1275,-1.045 -1.1275,-3.355 l 0,-4.95 q 0,-2.31 1.1275,-3.355 1.155,-1.045 3.5475,-1.045 l 0.9075,0 q 2.3925,0 3.52,1.045 1.155,1.045 1.155,3.355 l 0,4.95 z m -2.3375,-5.5 q 0,-0.8525 -0.5225,-1.32 -0.5225,-0.4675 -1.54,-0.4675 l -1.4575,0 q -1.0175,0 -1.54,0.4675 -0.5225,0.4675 -0.5225,1.32 l 0,6.05 q 0,0.8525 0.5225,1.32 0.5225,0.4675 1.54,0.4675 l 1.4575,0 q 1.0175,0 1.54,-0.4675 0.5225,-0.4675 0.5225,-1.32 l 0,-6.05 z"
         id="path4171"
         inkscape:connector-curvature="0" />
      <path
         d="m 230.5159,87.183998 0,0.66 q 0.8525,-0.66 2.2,-0.66 l 1.265,0 q 2.2275,0 3.3,1.045 1.1,1.045 1.1,3.355 l 0,9.350002 -2.3375,0 0,-9.900002 q 0,-0.825 -0.495,-1.2925 -0.4675,-0.495 -1.2925,-0.495 l -1.815,0 q -0.9075,0 -1.3475,0.495 -0.44,0.4675 -0.44,1.0175 l 0,10.175002 -2.3375,0 0,-13.750002 2.2,0 z"
         id="path4173"
         inkscape:connector-curvature="0" />
      <path
         d="m 253.28762,96.533998 q 0,2.31 -1.155,3.355 -1.1275,1.045002 -3.52,1.045002 l -0.9075,0 q -2.3925,0 -3.5475,-1.045002 -1.1275,-1.045 -1.1275,-3.355 l 0,-4.95 q 0,-2.31 1.1275,-3.355 1.155,-1.045 3.5475,-1.045 l 0.9075,0 q 2.3925,0 3.52,1.045 1.155,1.045 1.155,3.355 l 0,4.95 z m -2.3375,-5.5 q 0,-0.8525 -0.5225,-1.32 -0.5225,-0.4675 -1.54,-0.4675 l -1.4575,0 q -1.0175,0 -1.54,0.4675 -0.5225,0.4675 -0.5225,1.32 l 0,6.05 q 0,0.8525 0.5225,1.32 0.5225,0.4675 1.54,0.4675 l 1.4575,0 q 1.0175,0 1.54,-0.4675 0.5225,-0.4675 0.5225,-1.32 l 0,-6.05 z"
         id="path4175"
         inkscape:connector-curvature="0" />
      <path
         d="m 274.79606,100.934 -2.2275,0 0,-19.250002 3.905,0 4.345,17.215 0,-17.215 2.2275,0 0,19.250002 -3.9325,0 -4.3175,-17.215002 0,17.215002 z"
         id="path4177"
         inkscape:connector-curvature="0" />
      <path
         d="m 292.48028,100.934 q -2.42,0 -3.5475,-1.017502 -1.1275,-1.045 -1.1275,-3.3825 l 0,-4.95 q 0,-2.365 1.0175,-3.3825 1.0175,-1.0175 3.3825,-1.0175 l 1.2925,0 q 1.9525,0 2.9425,1.1 1.0175,1.0725 1.0175,3.1625 l 0,3.575 -7.315,0 0,2.0625 q 0,0.8525 0.5225,1.32 0.5225,0.4675 1.54,0.4675 l 4.3725,0 0,2.062502 -4.0975,0 z m 2.695,-10.037502 q 0,-0.715 -0.4675,-1.1825 -0.4675,-0.4675 -1.1825,-0.4675 l -1.595,0 q -0.99,0 -1.4025,0.4675 -0.385,0.44 -0.385,1.32 l 0,1.925 5.0325,0 0,-2.0625 z"
         id="path4179"
         inkscape:connector-curvature="0" />
      <path
         d="m 304.802,98.871498 0,-9.625 -2.0075,0 0,-2.0625 4.2075,0 0,0.7425 q 0.9075,-0.7425 2.2,-0.7425 l 2.8325,0 0,2.2 -3.1075,0 q -0.88,0 -1.32,0.5775 -0.44,0.55 -0.4675,1.1275 l 0,7.7825 2.9975,0 0,2.062502 -7.3425,0 0,-2.062502 2.0075,0 z"
         id="path4181"
         inkscape:connector-curvature="0" />
      <path
         d="m 325.18122,100.3015 q -0.9075,0.6325 -2.2,0.6325 l -1.1275,0 q -2.42,0 -3.5475,-1.017502 -1.1275,-1.045 -1.1275,-3.3825 l 0,-4.95 q 0,-2.31 1.1275,-3.355 1.155,-1.045 3.5475,-1.045 l 3.19,0 0,-5.5 2.3375,0 0,19.250002 -2.2,0 0,-0.6325 z m -1.925,-1.430002 q 0.9075,0 1.3475,-0.4675 0.44,-0.495 0.44,-1.045 l 0,-8.1125 -3.465,0 q -1.0175,0 -1.54,0.4675 -0.5225,0.4675 -0.5225,1.32 l 0,6.05 q 0,0.8525 0.5225,1.32 0.5225,0.4675 1.54,0.4675 l 1.6775,0 z"
         id="path4183"
         inkscape:connector-curvature="0" />
      <path
         d="m 355.92965,90.263998 0,2.0075 -6.105,0 0,8.662502 -2.3925,0 0,-19.250002 9.185,0 0,2.0075 -6.7925,0 0,6.5725 6.105,0 z"
         id="path4185"
         inkscape:connector-curvature="0" />
      <path
         d="m 371.88137,96.533998 q 0,2.31 -1.155,3.355 -1.1275,1.045002 -3.52,1.045002 l -0.9075,0 q -2.3925,0 -3.5475,-1.045002 -1.1275,-1.045 -1.1275,-3.355 l 0,-4.95 q 0,-2.31 1.1275,-3.355 1.155,-1.045 3.5475,-1.045 l 0.9075,0 q 2.3925,0 3.52,1.045 1.155,1.045 1.155,3.355 l 0,4.95 z m -2.3375,-5.5 q 0,-0.8525 -0.5225,-1.32 -0.5225,-0.4675 -1.54,-0.4675 l -1.4575,0 q -1.0175,0 -1.54,0.4675 -0.5225,0.4675 -0.5225,1.32 l 0,6.05 q 0,0.8525 0.5225,1.32 0.5225,0.4675 1.54,0.4675 l 1.4575,0 q 1.0175,0 1.54,-0.4675 0.5225,-0.4675 0.5225,-1.32 l 0,-6.05 z"
         id="path4187"
         inkscape:connector-curvature="0" />
      <path
         d="m 378.75809,87.183998 0,0.66 q 0.8525,-0.66 2.2,-0.66 l 1.265,0 q 2.2275,0 3.3,1.045 1.1,1.045 1.1,3.355 l 0,9.350002 -2.3375,0 0,-9.900002 q 0,-0.825 -0.495,-1.2925 -0.4675,-0.495 -1.2925,-0.495 l -1.815,0 q -0.9075,0 -1.3475,0.495 -0.44,0.4675 -0.44,1.0175 l 0,10.175002 -2.3375,0 0,-13.750002 2.2,0 z"
         id="path4189"
         inkscape:connector-curvature="0" />
      <path
         d="m 397.43231,100.934 q -1.4025,0 -2.145,-0.9075 -0.7425,-0.907502 -0.7425,-2.392502 l 0,-8.3875 -2.6125,0 0,-2.0625 2.6125,0 0,-3.3 2.3375,0 0,3.3 4.015,0 0,2.0625 -4.015,0 0,8.525 q 0,0.605 0.3025,0.8525 0.3025,0.2475 0.935,0.2475 l 2.7775,0 0,2.062502 -3.465,0 z"
         id="path4191"
         inkscape:connector-curvature="0" />
    </g>
    <g
       style="line-height:125%"
       id="text10">
      <path
         d="m 72.716499,140.93401 q -0.2275,0 -0.5075,-0.14 -0.2625,-0.14 -0.455,-0.385 -0.4025,0.525 -1.0675,0.525 l -1.5575,0 q -1.33,0 -1.9425,-0.525 -0.595,-0.5425 -0.595,-1.8375 l 0,-0.35 q 0,-2.7125 2.555,-2.7125 l 2.17,0 0,-0.875 q 0,-0.5425 -0.3325,-0.84 -0.3325,-0.2975 -0.98,-0.2975 l -2.7125,0 0,-1.3125 2.5375,0 q 1.5225,0 2.24,0.665 0.735,0.665 0.735,2.135 l 0,4.2 q 0,0.2625 0.1925,0.4025 0.21,0.1225 0.6825,0.1225 l 0,1.225 -0.9625,0 z m -2.205,-1.3125 q 0.525,0 0.665,-0.245 0.14,-0.245 0.14,-0.63 l 0,-1.925 -2.1875,0 q -0.455,0 -0.7525,0.2975 -0.2975,0.2975 -0.2975,0.7525 l 0,0.875 q 0,0.455 0.21,0.665 0.21,0.21 0.665,0.21 l 1.5575,0 z"
         style="font-size:17.5px"
         id="path4194"
         inkscape:connector-curvature="0" />
      <path
         d="m 82.780092,138.13401 q 0,1.47 -0.735,2.135 -0.7175,0.665 -2.24,0.665 l -3.43,0 0,-12.25 1.4875,0 0,3.85 q 0.525,-0.35 1.3125,-0.35 l 0.63,0 q 1.54,0 2.2575,0.665 0.7175,0.6475 0.7175,2.135 l 0,3.15 z m -3.78,-4.6375 q -0.5775,0 -0.8575,0.315 -0.28,0.2975 -0.28,0.6475 l 0,5.1625 2.1175,0 q 0.6475,0 0.98,-0.2975 0.3325,-0.2975 0.3325,-0.84 l 0,-3.85 q 0,-0.5425 -0.3325,-0.84 -0.3325,-0.2975 -0.98,-0.2975 l -0.98,0 z"
         style="font-size:17.5px"
         id="path4196"
         inkscape:connector-curvature="0" />
      <path
         d="m 89.361186,140.93401 q -1.54,0 -2.2575,-0.6475 -0.7175,-0.665 -0.7175,-2.1525 l 0,-3.15 q 0,-1.47 0.7175,-2.135 0.735,-0.665 2.2575,-0.665 l 2.2575,0 0,1.3125 -2.4325,0 q -0.6475,0 -0.98,0.2975 -0.3325,0.2975 -0.3325,0.84 l 0,3.85 q 0,0.5425 0.3325,0.84 0.3325,0.2975 0.98,0.2975 l 2.4325,0 0,1.3125 -2.2575,0 z"
         style="font-size:17.5px"
         id="path4198"
         inkscape:connector-curvature="0" />
      <path
         d="m 100.28228,140.53151 q -0.5775,0.4025 -1.4,0.4025 l -0.7175,0 q -1.54,0 -2.2575,-0.6475 -0.7175,-0.665 -0.7175,-2.1525 l 0,-3.15 q 0,-1.47 0.7175,-2.135 0.735,-0.665 2.2575,-0.665 l 2.03,0 0,-3.5 1.4875,0 0,12.25 -1.4,0 0,-0.4025 z m -1.225,-0.91 q 0.5775,0 0.8575,-0.2975 0.28,-0.315 0.28,-0.665 l 0,-5.1625 -2.205,0 q -0.6475,0 -0.98,0.2975 -0.3325,0.2975 -0.3325,0.84 l 0,3.85 q 0,0.5425 0.3325,0.84 0.3325,0.2975 0.98,0.2975 l 1.0675,0 z"
         style="font-size:17.5px"
         id="path4200"
         inkscape:connector-curvature="0" />
      <path
         d="m 107.77337,140.93401 q -1.54,0 -2.2575,-0.6475 -0.7175,-0.665 -0.7175,-2.1525 l 0,-3.15 q 0,-1.505 0.6475,-2.1525 0.6475,-0.6475 2.1525,-0.6475 l 0.8225,0 q 1.2425,0 1.8725,0.7 0.6475,0.6825 0.6475,2.0125 l 0,2.275 -4.655,0 0,1.3125 q 0,0.5425 0.3325,0.84 0.3325,0.2975 0.98,0.2975 l 2.7825,0 0,1.3125 -2.6075,0 z m 1.715,-6.3875 q 0,-0.455 -0.2975,-0.7525 -0.2975,-0.2975 -0.7525,-0.2975 l -1.015,0 q -0.63,0 -0.8925,0.2975 -0.245,0.28 -0.245,0.84 l 0,1.225 3.2025,0 0,-1.3125 z"
         style="font-size:17.5px"
         id="path4202"
         inkscape:connector-curvature="0" />
      <path
         d="m 117.90697,129.99651 q -0.28,0 -0.455,0.1575 -0.1575,0.14 -0.1575,0.3675 l 0,1.6625 2.8175,0 0,1.3125 -2.8175,0 0,6.125 2.1175,0 0,1.3125 -5.0925,0 0,-1.3125 1.4875,0 0,-6.125 -1.4875,0 0,-1.3125 1.4875,0 0,-1.575 q 0,-0.8925 0.5075,-1.4 0.5075,-0.525 1.3125,-0.525 l 2.66,0 0,1.3125 -2.38,0 z"
         style="font-size:17.5px"
         id="path4204"
         inkscape:connector-curvature="0" />
      <path
         d="m 130.19306,141.54651 q 0,1.19 -0.7175,1.7675 -0.7,0.595 -2.205,0.595 l -3.64,0 0,-1.3125 3.815,0 q 0.63,0 0.945,-0.245 0.315,-0.245 0.315,-0.63 l 0,-0.56 q 0,-0.4025 -0.315,-0.63 -0.315,-0.245 -0.945,-0.245 l -3.0275,0 0,-2.415 q -0.5775,-0.315 -0.8575,-0.91 -0.28,-0.595 -0.28,-1.54 l 0,-0.4375 q 0,-1.47 0.7175,-2.135 0.735,-0.665 2.2575,-0.665 l 3.675,0 0,3.2375 q 0,1.3125 -0.7175,2.065 -0.7175,0.735 -1.9075,0.735 l -1.4,0 0,0.7525 1.365,0 q 1.505,0 2.205,0.595 0.7175,0.5775 0.7175,1.7675 l 0,0.21 z m -2.8875,-4.6375 q 0.5425,0 0.8225,-0.35 0.28,-0.35 0.315,-0.735 l 0,-2.3275 -2.3625,0 q -0.6475,0 -0.98,0.2975 -0.3325,0.2975 -0.3325,0.84 l 0,1.1375 q 0,0.5425 0.3325,0.84 0.3325,0.2975 0.98,0.2975 l 1.225,0 z"
         style="font-size:17.5px"
         id="path4206"
         inkscape:connector-curvature="0" />
      <path
         d="m 134.46415,128.68401 0,3.85 q 0.525,-0.35 1.3125,-0.35 l 0.805,0 q 1.4175,0 2.1,0.665 0.7,0.665 0.7,2.135 l 0,5.95 -1.4875,0 0,-6.3 q 0,-0.525 -0.315,-0.8225 -0.2975,-0.315 -0.8225,-0.315 l -1.155,0 q -0.56,0 -0.84,0.2975 -0.28,0.28 -0.2975,0.6125 l 0,6.5275 -1.4875,0 0,-12.25 1.4875,0 z"
         style="font-size:17.5px"
         id="path4208"
         inkscape:connector-curvature="0" />
      <path
         d="m 146.43525,128.68401 0,1.575 -1.6625,0 0,-1.575 1.6625,0 z m -4.1475,4.8125 0,-1.3125 4.06,0 0,7.4375 2.59,0 0,1.3125 -4.0775,0 0,-7.4375 -2.5725,0 z"
         style="font-size:17.5px"
         id="path4210"
         inkscape:connector-curvature="0" />
      <path
         d="m 157.35634,128.68401 0,1.575 -1.6625,0 0,-1.575 1.6625,0 z m -2.17,13.9125 q 0.28,0 0.4375,-0.1575 0.175,-0.14 0.175,-0.3675 l 0,-8.575 -2.5725,0 0,-1.3125 4.06,0 0,9.8 q 0,0.8925 -0.5075,1.4 -0.5075,0.525 -1.3125,0.525 l -2.7475,0 0,-1.3125 2.4675,0 z"
         style="font-size:17.5px"
         id="path4212"
         inkscape:connector-curvature="0" />
      <path
         d="m 162.92244,137.18901 0,3.745 -1.4875,0 0,-12.25 1.4875,0 0,6.615 2.7475,-3.115 1.8725,0 -3.045,3.4475 3.29,5.3025 -1.8375,0 -2.5725,-4.27 -0.455,0.525 z"
         style="font-size:17.5px"
         id="path4214"
         inkscape:connector-curvature="0" />
      <path
         d="m 174.47353,140.93401 q -0.595,0 -1.05,-0.42 -0.4375,-0.42 -0.4375,-1.33 l 0,-9.1875 -2.5725,0 0,-1.3125 4.06,0 0,10.4125 q 0,0.28 0.14,0.4025 0.14,0.1225 0.4725,0.1225 l 2.3275,0 0,1.3125 -2.94,0 z"
         style="font-size:17.5px"
         id="path4216"
         inkscape:connector-curvature="0" />
      <path
         d="m 180.68712,132.18401 0,0.4025 q 0.455,-0.4025 1.085,-0.4025 l 0.105,0 q 1.225,0 1.7325,0.7 0.5775,-0.7 1.5225,-0.7 l 0.105,0 q 1.0675,0 1.575,0.5425 0.5075,0.5425 0.5075,1.925 l 0,6.2825 -1.4,0 0,-6.3 q 0,-0.7175 -0.1575,-0.9975 -0.14,-0.28 -0.665,-0.28 l -0.105,0 q -0.525,0 -0.735,0.3675 -0.1925,0.35 -0.21,0.7875 l 0,6.4225 -1.4,0 0,-6.3 q 0,-0.735 -0.175,-0.9975 -0.175,-0.28 -0.63,-0.28 l -0.105,0 q -0.525,0 -0.735,0.315 -0.21,0.2975 -0.2275,0.6825 l 0,6.58 -1.4,0 0,-8.75 1.3125,0 z"
         style="font-size:17.5px"
         id="path4218"
         inkscape:connector-curvature="0" />
      <path
         d="m 190.97822,132.18401 0,0.42 q 0.5425,-0.42 1.4,-0.42 l 0.805,0 q 1.4175,0 2.1,0.665 0.7,0.665 0.7,2.135 l 0,5.95 -1.4875,0 0,-6.3 q 0,-0.525 -0.315,-0.8225 -0.2975,-0.315 -0.8225,-0.315 l -1.155,0 q -0.5775,0 -0.8575,0.315 -0.28,0.2975 -0.28,0.6475 l 0,6.475 -1.4875,0 0,-8.75 1.4,0 z"
         style="font-size:17.5px"
         id="path4220"
         inkscape:connector-curvature="0" />
      <path
         d="m 205.46931,138.13401 q 0,1.47 -0.735,2.135 -0.7175,0.665 -2.24,0.665 l -0.5775,0 q -1.5225,0 -2.2575,-0.665 -0.7175,-0.665 -0.7175,-2.135 l 0,-3.15 q 0,-1.47 0.7175,-2.135 0.735,-0.665 2.2575,-0.665 l 0.5775,0 q 1.5225,0 2.24,0.665 0.735,0.665 0.735,2.135 l 0,3.15 z m -1.4875,-3.5 q 0,-0.5425 -0.3325,-0.84 -0.3325,-0.2975 -0.98,-0.2975 l -0.9275,0 q -0.6475,0 -0.98,0.2975 -0.3325,0.2975 -0.3325,0.84 l 0,3.85 q 0,0.5425 0.3325,0.84 0.3325,0.2975 0.98,0.2975 l 0.9275,0 q 0.6475,0 0.98,-0.2975 0.3325,-0.2975 0.3325,-0.84 l 0,-3.85 z"
         style="font-size:17.5px"
         id="path4222"
         inkscape:connector-curvature="0" />
      <path
         d="m 209.8454,132.18401 0,0.42 q 0.5425,-0.42 1.4,-0.42 l 0.63,0 q 1.54,0 2.2575,0.665 0.7175,0.6475 0.7175,2.135 l 0,3.15 q 0,1.47 -0.735,2.135 -0.7175,0.665 -2.24,0.665 l -1.9425,0 0,2.975 -1.4875,0 0,-11.725 1.4,0 z m 1.225,1.3125 q -0.5775,0 -0.8575,0.315 -0.28,0.2975 -0.28,0.6475 l 0,5.1625 2.1175,0 q 0.6475,0 0.98,-0.2975 0.3325,-0.2975 0.3325,-0.84 l 0,-3.85 q 0,-0.5425 -0.3325,-0.84 -0.3325,-0.2975 -0.98,-0.2975 l -0.98,0 z"
         style="font-size:17.5px"
         id="path4224"
         inkscape:connector-curvature="0" />
      <path
         d="m 222.8315,140.58401 q -0.5425,0.35 -1.3125,0.35 l -0.7175,0 q -1.54,0 -2.2575,-0.6475 -0.7175,-0.665 -0.7175,-2.1525 l 0,-3.15 q 0,-1.47 0.7175,-2.135 0.735,-0.665 2.2575,-0.665 l 3.5175,0 0,11.725 -1.4875,0 0,-3.325 z m -1.1375,-0.9625 q 0.5775,0 0.8575,-0.2975 0.28,-0.315 0.28,-0.665 l 0,-5.1625 -2.205,0 q -0.6475,0 -0.98,0.2975 -0.3325,0.2975 -0.3325,0.84 l 0,3.85 q 0,0.5425 0.3325,0.84 0.3325,0.2975 0.98,0.2975 l 1.0675,0 z"
         style="font-size:17.5px"
         id="path4226"
         inkscape:connector-curvature="0" />
      <path
         d="m 228.81759,139.62151 0,-6.125 -1.2775,0 0,-1.3125 2.6775,0 0,0.4725 q 0.5775,-0.4725 1.4,-0.4725 l 1.8025,0 0,1.4 -1.9775,0 q -0.56,0 -0.84,0.3675 -0.28,0.35 -0.2975,0.7175 l 0,4.9525 1.9075,0 0,1.3125 -4.6725,0 0,-1.3125 1.2775,0 z"
         style="font-size:17.5px"
         id="path4228"
         inkscape:connector-curvature="0" />
      <path
         d="m 242.60869,138.74651 q 0,1.1025 -0.6825,1.645 -0.665,0.5425 -1.9425,0.5425 l -2.6075,0 0,-1.3125 2.7825,0 q 0.4725,0 0.7175,-0.1925 0.245,-0.21 0.245,-0.595 l 0,-0.9275 q 0,-0.7875 -0.7525,-0.7875 l -0.6475,0 q -1.225,0 -1.8375,-0.525 -0.595,-0.5425 -0.595,-1.6975 l 0,-0.5075 q 0,-1.1725 0.665,-1.68 0.665,-0.525 1.96,-0.525 l 2.345,0 0,1.3125 -2.52,0 q -0.4375,0 -0.7,0.21 -0.2625,0.1925 -0.2625,0.5775 l 0,0.63 q 0,0.4025 0.2275,0.595 0.245,0.1925 0.6125,0.1925 l 0.595,0 q 1.1725,0 1.785,0.5775 0.6125,0.56 0.6125,1.68 l 0,0.7875 z"
         style="font-size:17.5px"
         id="path4230"
         inkscape:connector-curvature="0" />
      <path
         d="m 250.02978,140.93401 q -0.8925,0 -1.365,-0.5775 -0.4725,-0.5775 -0.4725,-1.5225 l 0,-5.3375 -1.6625,0 0,-1.3125 1.6625,0 0,-2.1 1.4875,0 0,2.1 2.555,0 0,1.3125 -2.555,0 0,5.425 q 0,0.385 0.1925,0.5425 0.1925,0.1575 0.595,0.1575 l 1.7675,0 0,1.3125 -2.205,0 z"
         style="font-size:17.5px"
         id="path4232"
         inkscape:connector-curvature="0" />
      <path
         d="m 260.51337,140.53151 q -0.5775,0.4025 -1.4,0.4025 l -0.595,0 q -1.4175,0 -2.1175,-0.665 -0.6825,-0.665 -0.6825,-2.135 l 0,-5.95 1.4875,0 0,6.3 q 0,0.525 0.2975,0.84 0.315,0.2975 0.84,0.2975 l 0.945,0 q 0.56,0 0.8225,-0.28 0.28,-0.28 0.315,-0.63 l 0,-6.5275 1.4875,0 0,8.75 -1.4,0 0,-0.4025 z"
         style="font-size:17.5px"
         id="path4234"
         inkscape:connector-curvature="0" />
      <path
         d="m 264.64447,132.18401 1.61,0 2.0475,7.5425 1.995,-7.5425 1.5575,0 -2.52,8.75 -2.1525,0 -2.5375,-8.75 z"
         style="font-size:17.5px"
         id="path4236"
         inkscape:connector-curvature="0" />
      <path
         d="m 277.71806,136.54151 -0.945,4.3925 -1.6275,0 -1.575,-8.75 1.4875,0 0.9975,6.9475 1.155,-5.3725 1.1375,0 1.05,5.3725 0.9975,-6.9475 1.4,0 -1.5575,8.75 -1.68,0 -0.84,-4.3925 z"
         style="font-size:17.5px"
         id="path4238"
         inkscape:connector-curvature="0" />
      <path
         d="m 285.17415,140.93401 -1.645,0 2.73,-4.515 -2.52,-4.235 1.7325,0 1.6625,2.94 1.6975,-2.94 1.6275,0 -2.555,4.165 2.7825,4.585 -1.75,0 -1.8375,-3.3075 -1.925,3.3075 z"
         style="font-size:17.5px"
         id="path4240"
         inkscape:connector-curvature="0" />
      <path
         d="m 294.97525,142.59651 q 0.42,0 0.63,-0.1575 0.21,-0.1575 0.315,-0.5425 l 0.245,-0.9625 -0.35,0 -2.8875,-8.75 1.61,0 2.1875,7.3325 1.9075,-7.3325 1.5225,0 -2.7125,9.695 q -0.2275,0.8925 -0.56,1.33 -0.3325,0.4375 -0.7525,0.56 -0.4025,0.14 -1.05,0.14 l -0.84,0 0,-1.3125 0.735,0 z"
         style="font-size:17.5px"
         id="path4242"
         inkscape:connector-curvature="0" />
      <path
         d="m 308.67884,140.93401 -5.565,0 0,-1.4 4.095,-6.055 -3.745,0 0,-1.295 5.39,0 0,1.5575 -4.06,5.8975 3.885,0 0,1.295 z"
         style="font-size:17.5px"
         id="path4244"
         inkscape:connector-curvature="0" />
      <path
         d="m 68.446499,159.71151 -0.6825,3.0975 -1.5575,0 2.9575,-12.25 2.0125,0 2.905,12.25 -1.5575,0 -0.665,-3.0975 -3.4125,0 z m 3.1325,-1.3125 -1.435,-6.685 -1.4175,6.685 2.8525,0 z"
         style="font-size:17.5px"
         id="path4246"
         inkscape:connector-curvature="0" />
      <path
         d="m 82.815092,160.04401 q 0,1.505 -0.7,2.135 -0.6825,0.63 -2.275,0.63 l -3.5,0 0,-12.25 3.29,0 q 1.5575,0 2.275,0.63 0.735,0.63 0.735,2.1 l 0,0.9975 q 0,1.3475 -0.9625,2.03 1.1375,0.63 1.1375,2.1525 l 0,1.575 z m -1.6975,-6.9125 q 0,-0.665 -0.315,-0.9625 -0.2975,-0.2975 -0.9625,-0.2975 l -1.9775,0 0,3.8675 1.9775,0 q 0.5425,0 0.91,-0.35 0.3675,-0.35 0.3675,-0.9275 l 0,-1.33 z m 0.175,5.18 q 0,-0.5775 -0.35,-0.91 -0.35,-0.35 -0.9275,-0.35 l -2.1525,0 0,4.445 2.135,0 q 0.665,0 0.98,-0.2975 0.315,-0.315 0.315,-0.98 l 0,-1.9075 z"
         style="font-size:17.5px"
         id="path4248"
         inkscape:connector-curvature="0" />
      <path
         d="m 89.343686,162.80901 q -1.5225,0 -2.345,-0.735 -0.805,-0.7525 -0.805,-2.24 l 0,-6.3 q 0,-1.4875 0.805,-2.2225 0.8225,-0.7525 2.345,-0.7525 l 2.485,0 0,1.33 -2.66,0 q -0.6475,0 -1.05,0.385 -0.4025,0.385 -0.4025,0.9275 l 0,6.965 q 0,0.5425 0.4025,0.9275 0.4025,0.385 1.05,0.385 l 2.66,0 0,1.33 -2.485,0 z"
         style="font-size:17.5px"
         id="path4250"
         inkscape:connector-curvature="0" />
      <path
         d="m 101.73478,160.04401 q 0,1.505 -0.7,2.135 -0.6825,0.63 -2.275,0.63 l -3.605,0 0,-12.25 3.395,0 q 1.575,0 2.38,0.6475 0.805,0.63 0.805,2.0825 l 0,6.755 z m -1.5225,-6.9125 q 0,-0.5775 -0.35,-0.91 -0.35,-0.35 -0.9275,-0.35 l -2.2575,0 0,9.625 2.24,0 q 0.665,0 0.98,-0.2975 0.315,-0.315 0.315,-0.98 l 0,-7.0875 z"
         style="font-size:17.5px"
         id="path4252"
         inkscape:connector-curvature="0" />
      <path
         d="m 110.80087,150.55901 0,1.2775 -4.3225,0 0,4.0075 3.885,0 0,1.2775 -3.885,0 0,4.41 4.3225,0 0,1.2775 -5.845,0 0,-12.25 5.845,0 z"
         style="font-size:17.5px"
         id="path4254"
         inkscape:connector-curvature="0" />
      <path
         d="m 119.84947,156.01901 0,1.2775 -3.885,0 0,5.5125 -1.5225,0 0,-12.25 5.845,0 0,1.2775 -4.3225,0 0,4.1825 3.885,0 z"
         style="font-size:17.5px"
         id="path4256"
         inkscape:connector-curvature="0" />
      <path
         d="m 126.81556,162.80901 q -1.5225,0 -2.345,-0.735 -0.805,-0.7525 -0.805,-2.24 l 0,-6.3 q 0,-1.4875 0.805,-2.2225 0.8225,-0.7525 2.345,-0.7525 l 2.4675,0 0,1.33 -2.6425,0 q -0.6475,0 -1.05,0.385 -0.4025,0.385 -0.4025,0.9275 l 0,6.965 q 0,0.5425 0.4025,0.9275 0.4025,0.385 1.05,0.385 l 1.715,0 0,-3.7975 -1.5225,0 0,-1.3125 2.975,0 0,6.44 -2.9925,0 z"
         style="font-size:17.5px"
         id="path4258"
         inkscape:connector-curvature="0" />
      <path
         d="m 134.37665,157.17401 0,5.635 -1.5225,0 0,-12.25 1.5225,0 0,5.32 3.605,0 0,-5.32 1.5225,0 0,12.25 -1.5225,0 0,-5.635 -3.605,0 z"
         style="font-size:17.5px"
         id="path4260"
         inkscape:connector-curvature="0" />
      <path
         d="m 144.84275,161.53151 0,-9.695 -1.575,0 0,-1.2775 4.6725,0 0,1.2775 -1.575,0 0,9.695 1.575,0 0,1.2775 -4.6725,0 0,-1.2775 1.575,0 z"
         style="font-size:17.5px"
         id="path4262"
         inkscape:connector-curvature="0" />
      <path
         d="m 157.49634,159.83401 q 0,1.4875 -0.8225,2.24 -0.805,0.735 -2.3275,0.735 l -1.8375,0 0,-1.33 2.0125,0 q 0.6475,0 1.05,-0.385 0.4025,-0.385 0.4025,-0.9275 l 0,-8.295 -2.8175,0 0,-1.3125 4.34,0 0,9.275 z"
         style="font-size:17.5px"
         id="path4264"
         inkscape:connector-curvature="0" />
      <path
         d="m 162.69494,158.29401 0,4.515 -1.5225,0 0,-12.25 1.5225,0 0,5.285 3.325,-5.285 1.6625,0 -3.3775,5.4075 3.5875,6.8425 -1.75,0 -2.7825,-5.5125 -0.665,0.9975 z"
         style="font-size:17.5px"
         id="path4266"
         inkscape:connector-curvature="0" />
      <path
         d="m 172.72353,150.55901 0,10.92 3.9025,0 0,1.33 -5.425,0 0,-12.25 1.5225,0 z"
         style="font-size:17.5px"
         id="path4268"
         inkscape:connector-curvature="0" />
      <path
         d="m 184.04712,158.69651 -1.4525,0 -1.715,-6.8775 0,10.99 -1.33,0 0,-12.25 2.4325,0 1.4,6.265 1.4175,-6.265 2.3625,0 0,12.25 -1.365,0 0,-10.99 -1.75,6.8775 z"
         style="font-size:17.5px"
         id="path4270"
         inkscape:connector-curvature="0" />
      <path
         d="m 190.85572,162.80901 -1.4175,0 0,-12.25 2.485,0 2.765,10.955 0,-10.955 1.4175,0 0,12.25 -2.5025,0 -2.7475,-10.955 0,10.955 z"
         style="font-size:17.5px"
         id="path4272"
         inkscape:connector-curvature="0" />
      <path
         d="m 205.71431,159.83401 q 0,1.4875 -0.8225,2.24 -0.805,0.735 -2.3275,0.735 l -0.7,0 q -1.5225,0 -2.345,-0.735 -0.805,-0.7525 -0.805,-2.24 l 0,-6.3 q 0,-1.4875 0.805,-2.2225 0.8225,-0.7525 2.345,-0.7525 l 0.7,0 q 1.5225,0 2.3275,0.7525 0.8225,0.735 0.8225,2.2225 l 0,6.3 z m -1.5225,-6.6325 q 0,-0.5425 -0.4025,-0.9275 -0.4025,-0.385 -1.05,-0.385 l -1.05,0 q -0.6475,0 -1.05,0.385 -0.4025,0.385 -0.4025,0.9275 l 0,6.965 q 0,0.5425 0.4025,0.9275 0.4025,0.385 1.05,0.385 l 1.05,0 q 0.6475,0 1.05,-0.385 0.4025,-0.385 0.4025,-0.9275 l 0,-6.965 z"
         style="font-size:17.5px"
         id="path4274"
         inkscape:connector-curvature="0" />
      <path
         d="m 214.8154,155.28401 q 0,1.4175 -0.7525,2.1 -0.7525,0.665 -2.2225,0.665 l -1.82,0 0,4.76 -1.5225,0 0,-12.25 3.3075,0 q 1.4875,0 2.24,0.665 0.77,0.6475 0.77,2.065 l 0,1.995 z m -1.5225,-2.1525 q 0,-0.665 -0.315,-0.9625 -0.2975,-0.2975 -0.9625,-0.2975 l -1.995,0 0,4.865 1.995,0 q 0.665,0 0.9625,-0.2975 0.315,-0.315 0.315,-0.98 l 0,-2.3275 z"
         style="font-size:17.5px"
         id="path4276"
         inkscape:connector-curvature="0" />
      <path
         d="m 223.1115,162.49401 q -0.6825,0.315 -1.68,0.315 l -0.7,0 q -1.5225,0 -2.345,-0.735 -0.805,-0.7525 -0.805,-2.24 l 0,-6.3 q 0,-1.4875 0.805,-2.2225 0.8225,-0.7525 2.345,-0.7525 l 0.7,0 q 1.5225,0 2.3275,0.7525 0.8225,0.735 0.8225,2.2225 l 0,6.3 q 0,1.0325 -0.4025,1.7325 l 1.2775,1.2775 -0.9975,0.9975 -1.3475,-1.3475 z m -0.0525,-9.2925 q 0,-0.5425 -0.4025,-0.9275 -0.4025,-0.385 -1.05,-0.385 l -1.05,0 q -0.6475,0 -1.05,0.385 -0.4025,0.385 -0.4025,0.9275 l 0,6.965 q 0,0.5425 0.4025,0.9275 0.4025,0.385 1.05,0.385 l 1.05,0 q 0.6475,0 1.05,-0.385 0.4025,-0.385 0.4025,-0.9275 l 0,-6.965 z"
         style="font-size:17.5px"
         id="path4278"
         inkscape:connector-curvature="0" />
      <path
         d="m 228.53759,157.73401 0,5.075 -1.5225,0 0,-12.25 3.29,0 q 1.4875,0 2.24,0.665 0.77,0.6475 0.77,2.065 l 0,1.68 q 0,1.9775 -1.575,2.4675 l 2.4325,5.3725 -1.6625,0 -2.2575,-5.075 -1.715,0 z m 3.255,-4.6025 q 0,-0.665 -0.315,-0.9625 -0.2975,-0.2975 -0.9625,-0.2975 l -1.9775,0 0,4.55 1.9775,0 q 0.665,0 0.9625,-0.2975 0.315,-0.315 0.315,-0.98 l 0,-2.0125 z"
         style="font-size:17.5px"
         id="path4280"
         inkscape:connector-curvature="0" />
      <path
         d="m 242.90619,159.83401 q 0,1.4875 -0.8225,2.24 -0.805,0.735 -2.3275,0.735 l -2.485,0 0,-1.33 2.66,0 q 0.6475,0 1.05,-0.385 0.4025,-0.385 0.4025,-0.9275 l 0,-1.82 q 0,-0.525 -0.28,-0.84 -0.2625,-0.3325 -0.805,-0.3325 l -0.525,0 q -1.295,0 -2.0475,-0.7525 -0.7525,-0.77 -0.7525,-2.2225 l 0,-0.665 q 0,-1.4875 0.805,-2.2225 0.8225,-0.7525 2.345,-0.7525 l 2.5025,0 0,1.33 -2.6775,0 q -0.6475,0 -1.05,0.385 -0.4025,0.385 -0.4025,0.9275 l 0,1.33 q 0,0.5425 0.35,0.91 0.35,0.35 0.91,0.35 l 0.525,0 q 1.2425,0 1.925,0.7175 0.7,0.7175 0.7,2.17 l 0,1.155 z"
         style="font-size:17.5px"
         id="path4282"
         inkscape:connector-curvature="0" />
      <path
         d="m 248.61228,162.80901 0,-10.92 -2.7825,0 0,-1.33 7.0875,0 0,1.33 -2.7825,0 0,10.92 -1.5225,0 z"
         style="font-size:17.5px"
         id="path4284"
         inkscape:connector-curvature="0" />
      <path
         d="m 262.17587,159.83401 q 0,1.4875 -0.8225,2.24 -0.805,0.735 -2.3275,0.735 l -0.4375,0 q -1.5225,0 -2.345,-0.735 -0.805,-0.7525 -0.805,-2.24 l 0,-9.275 1.5225,0 0,9.6075 q 0,0.5425 0.4025,0.9275 0.4025,0.385 1.05,0.385 l 0.7875,0 q 0.6475,0 1.05,-0.385 0.4025,-0.385 0.4025,-0.9275 l 0,-9.6075 1.5225,0 0,9.275 z"
         style="font-size:17.5px"
         id="path4286"
         inkscape:connector-curvature="0" />
      <path
         d="m 264.50447,150.55901 1.54,0 2.1,10.71 2.2575,-10.71 1.505,0 -2.7475,12.25 -2.0825,0 -2.5725,-12.25 z"
         style="font-size:17.5px"
         id="path4288"
         inkscape:connector-curvature="0" />
      <path
         d="m 277.64806,157.83901 -1.1025,4.97 -2.1,0 -0.595,-12.25 1.295,0 0.525,10.9375 1.4525,-5.775 1.085,0 1.4875,5.775 0.5425,-10.9375 1.2075,0 -0.595,12.25 -2.205,0 -0.9975,-4.97 z"
         style="font-size:17.5px"
         id="path4290"
         inkscape:connector-curvature="0" />
      <path
         d="m 284.92915,162.80901 -1.645,0 3.045,-6.335 -2.765,-5.915 1.6625,0 1.925,4.1475 1.995,-4.1475 1.6275,0 -2.835,5.8975 3.01,6.3525 -1.715,0 -2.1,-4.6025 -2.205,4.6025 z"
         style="font-size:17.5px"
         id="path4292"
         inkscape:connector-curvature="0" />
      <path
         d="m 295.72775,162.80901 0,-5.6875 -3.1325,-6.5625 1.68,0 2.31,5.0925 2.31,-5.0925 1.5925,0 -3.185,6.5625 0,5.6875 -1.575,0 z"
         style="font-size:17.5px"
         id="path4294"
         inkscape:connector-curvature="0" />
      <path
         d="m 308.97634,162.80901 -6.195,0 0,-1.54 4.795,-9.415 -4.3925,0 0,-1.295 5.9675,0 0,1.54 -4.7775,9.415 4.6025,0 0,1.295 z"
         style="font-size:17.5px"
         id="path4296"
         inkscape:connector-curvature="0" />
      <path
         d="m 73.398999,181.88401 q 0,1.47 -0.735,2.135 -0.7175,0.665 -2.24,0.665 l -0.5775,0 q -1.5225,0 -2.2575,-0.665 -0.7175,-0.665 -0.7175,-2.135 l 0,-3.15 q 0,-1.47 0.7175,-2.135 0.735,-0.665 2.2575,-0.665 l 0.5775,0 q 1.5225,0 2.24,0.665 0.735,0.665 0.735,2.135 l 0,3.15 z m -1.4875,-3.5 q 0,-0.5425 -0.3325,-0.84 -0.3325,-0.2975 -0.98,-0.2975 l -0.9275,0 q -0.6475,0 -0.98,0.2975 -0.3325,0.2975 -0.3325,0.84 l 0,3.85 q 0,0.5425 0.3325,0.84 0.3325,0.2975 0.98,0.2975 l 0.9275,0 q 0.6475,0 0.98,-0.2975 0.3325,-0.2975 0.3325,-0.84 l 0,-3.85 z"
         style="font-size:17.5px"
         id="path4298"
         inkscape:connector-curvature="0" />
      <path
         d="m 83.077592,181.70901 q 0,1.4875 -0.8225,2.24 -0.805,0.735 -2.3275,0.735 l -0.7,0 q -1.5225,0 -2.345,-0.735 -0.805,-0.7525 -0.805,-2.24 l 0,-6.3 q 0,-1.4875 0.805,-2.2225 0.8225,-0.7525 2.345,-0.7525 l 0.7,0 q 1.5225,0 2.3275,0.7525 0.8225,0.735 0.8225,2.2225 l 0,6.3 z m -1.5225,-6.6325 q 0,-0.5425 -0.4025,-0.9275 -0.4025,-0.385 -1.05,-0.385 l -1.05,0 q -0.6475,0 -1.05,0.385 -0.4025,0.385 -0.4025,0.9275 l 0,6.965 q 0,0.5425 0.4025,0.9275 0.4025,0.385 1.05,0.385 l 1.05,0 q 0.6475,0 1.05,-0.385 0.4025,-0.385 0.4025,-0.9275 l 0,-6.965 z"
         style="font-size:17.5px"
         id="path4300"
         inkscape:connector-curvature="0" />
      <path
         d="m 92.126186,181.70901 q 0,1.4525 -0.805,2.2225 -0.7875,0.7525 -2.135,0.7525 l -0.35,0 q -1.3475,0 -2.1525,-0.7525 -0.7875,-0.77 -0.7875,-2.2225 l 0,-6.3 q 0,-1.47 0.7875,-2.2225 0.7875,-0.7525 2.1525,-0.7525 l 0.35,0 q 1.365,0 2.1525,0.7525 0.7875,0.7525 0.7875,2.2225 l 0,6.3 z m -1.4875,-6.6325 q 0,-0.5425 -0.42,-0.9275 -0.4025,-0.4025 -1.0325,-0.4025 l -0.35,0 q -0.63,0 -1.05,0.4025 -0.4025,0.385 -0.4025,0.9275 l 0,4.7425 3.255,-4.7425 z m -3.255,6.965 q 0,0.5425 0.4025,0.945 0.42,0.385 1.05,0.385 l 0.35,0 q 0.63,0 1.0325,-0.385 0.42,-0.4025 0.42,-0.945 l 0,-4.725 -3.255,4.725 z"
         style="font-size:17.5px"
         id="path4302"
         inkscape:connector-curvature="0" />
      <path
         d="m 101.66478,181.91901 q 0,1.4525 -0.7,2.1175 -0.7,0.6475 -2.275,0.6475 l -0.49,0 q -1.575,0 -2.275,-0.6475 -0.7,-0.665 -0.7,-2.1175 l 0,-1.47 q 0,-1.5225 1.1375,-2.1525 -0.9275,-0.6475 -0.9275,-2.03 l 0,-1.1025 q 0,-1.4 0.735,-2.065 0.735,-0.665 2.1,-0.665 l 0.35,0 q 1.365,0 2.1,0.665 0.735,0.665 0.735,2.065 l 0,1.1025 q 0,1.3825 -0.9275,2.03 1.1375,0.63 1.1375,2.1525 l 0,1.47 z m -3.605,-8.1725 q -0.595,0.0175 -0.8575,0.3325 -0.245,0.2975 -0.245,0.9275 l 0,1.435 q 0,0.56 0.315,0.91 0.3325,0.3325 0.8225,0.3675 l 0.595,0 q 0.5425,0 0.8925,-0.35 0.35,-0.35 0.35,-0.9275 l 0,-1.435 q 0,-0.665 -0.2975,-0.9625 -0.28,-0.2975 -0.945,-0.2975 l -0.63,0 z m 2.0825,6.545 q 0,-0.5775 -0.35,-0.91 -0.35,-0.35 -0.9275,-0.35 l -0.84,0 q -0.5775,0 -0.9275,0.35 -0.35,0.3325 -0.35,0.91 l 0,1.8025 q 0,0.6475 0.28,0.9625 0.28,0.315 0.875,0.315 l 0.945,0 q 0.665,0 0.98,-0.2975 0.315,-0.315 0.315,-0.98 l 0,-1.8025 z"
         style="font-size:17.5px"
         id="path4304"
         inkscape:connector-curvature="0" />
      <path
         d="m 118.13447,172.43401 0,1.575 -1.6625,0 0,-1.575 1.6625,0 z m -4.1475,4.8125 0,-1.3125 4.06,0 0,7.4375 2.59,0 0,1.3125 -4.0775,0 0,-7.4375 -2.5725,0 z"
         style="font-size:17.5px"
         id="path4306"
         inkscape:connector-curvature="0" />
      <path
         d="m 125.97556,183.40651 0,-9.695 -1.575,0 0,-1.2775 4.6725,0 0,1.2775 -1.575,0 0,9.695 1.575,0 0,1.2775 -4.6725,0 0,-1.2775 1.575,0 z"
         style="font-size:17.5px"
         id="path4308"
         inkscape:connector-curvature="0" />
      <path
         d="m 136.73915,184.68401 q -0.595,0 -1.05,-0.42 -0.4375,-0.42 -0.4375,-1.33 l 0,-9.1875 -2.5725,0 0,-1.3125 4.06,0 0,10.4125 q 0,0.28 0.14,0.4025 0.14,0.1225 0.4725,0.1225 l 2.3275,0 0,1.3125 -2.94,0 z"
         style="font-size:17.5px"
         id="path4310"
         inkscape:connector-curvature="0" />
      <path
         d="m 144.42275,172.43401 0,10.92 3.9025,0 0,1.33 -5.425,0 0,-12.25 1.5225,0 z"
         style="font-size:17.5px"
         id="path4312"
         inkscape:connector-curvature="0" />
      <path
         d="m 154.57384,183.37151 0,-9.555 -2.4675,0.91 0,-1.4175 2.2925,-0.875 1.6625,0 0,10.9375 1.9075,0 0,1.3125 -5.6875,0 0,-1.3125 2.2925,0 z"
         style="font-size:17.5px"
         id="path4314"
         inkscape:connector-curvature="0" />
      <path
         d="m 171.76103,177.59651 q 0.7,0 0.9625,-0.21 0.28,-0.2275 0.28,-0.91 l 0,-4.0075 q 0,-1.1725 0.4375,-1.645 0.4375,-0.49 1.47,-0.49 l 1.1375,0 0,1.225 -0.8925,0 q -0.42,0 -0.6125,0.14 -0.175,0.1225 -0.175,0.5075 l 0,4.27 q 0,0.875 -0.4375,1.435 -0.42,0.56 -1.05,0.665 0.63,0.07 1.05,0.63 0.4375,0.56 0.4375,1.435 l 0,4.27 q 0,0.385 0.175,0.5075 0.1925,0.14 0.6125,0.14 l 0.8925,0 0,1.225 -1.1375,0 q -1.0325,0 -1.47,-0.49 -0.4375,-0.4725 -0.4375,-1.645 l 0,-4.0075 q 0,-0.6825 -0.28,-0.8925 -0.2625,-0.2275 -0.9625,-0.2275 l 0,-1.925 z"
         style="font-size:17.5px"
         id="path4316"
         inkscape:connector-curvature="0" />
      <path
         d="m 185.48212,179.52151 q -0.7,0 -0.98,0.2275 -0.2625,0.21 -0.2625,0.8925 l 0,4.0075 q 0,1.1725 -0.4375,1.645 -0.4375,0.49 -1.47,0.49 l -1.1375,0 0,-1.225 0.8925,0 q 0.42,0 0.595,-0.14 0.1925,-0.1225 0.1925,-0.5075 l 0,-4.27 q 0,-0.875 0.42,-1.435 0.4375,-0.56 1.0675,-0.63 -0.63,-0.105 -1.0675,-0.665 -0.42,-0.56 -0.42,-1.435 l 0,-4.27 q 0,-0.385 -0.1925,-0.5075 -0.175,-0.14 -0.595,-0.14 l -0.8925,0 0,-1.225 1.1375,0 q 1.0325,0 1.47,0.49 0.4375,0.4725 0.4375,1.645 l 0,4.0075 q 0,0.6825 0.2625,0.91 0.28,0.21 0.98,0.21 l 0,1.925 z"
         style="font-size:17.5px"
         id="path4318"
         inkscape:connector-curvature="0" />
      <path
         d="m 204.05181,170.33401 0,1.3125 -2.275,0 0,13.825 2.275,0 0,1.3125 -3.675,0 0,-16.45 3.675,0 z"
         style="font-size:17.5px"
         id="path4320"
         inkscape:connector-curvature="0" />
      <path
         d="m 212.0854,185.47151 0,-13.825 -2.275,0 0,-1.3125 3.675,0 0,16.45 -3.675,0 0,-1.3125 2.275,0 z"
         style="font-size:17.5px"
         id="path4322"
         inkscape:connector-curvature="0" />
      <path
         d="m 233.96259,185.29651 q 0,1.19 -0.7175,1.7675 -0.7,0.595 -2.205,0.595 l -3.64,0 0,-1.3125 3.815,0 q 0.63,0 0.945,-0.245 0.315,-0.245 0.315,-0.63 l 0,-0.56 q 0,-0.4025 -0.315,-0.63 -0.315,-0.245 -0.945,-0.245 l -3.0275,0 0,-2.415 q -0.5775,-0.315 -0.8575,-0.91 -0.28,-0.595 -0.28,-1.54 l 0,-0.4375 q 0,-1.47 0.7175,-2.135 0.735,-0.665 2.2575,-0.665 l 3.675,0 0,3.2375 q 0,1.3125 -0.7175,2.065 -0.7175,0.735 -1.9075,0.735 l -1.4,0 0,0.7525 1.365,0 q 1.505,0 2.205,0.595 0.7175,0.5775 0.7175,1.7675 l 0,0.21 z m -2.8875,-4.6375 q 0.5425,0 0.8225,-0.35 0.28,-0.35 0.315,-0.735 l 0,-2.3275 -2.3625,0 q -0.6475,0 -0.98,0.2975 -0.3325,0.2975 -0.3325,0.84 l 0,1.1375 q 0,0.5425 0.3325,0.84 0.3325,0.2975 0.98,0.2975 l 1.225,0 z"
         style="font-size:17.5px"
         id="path4324"
         inkscape:connector-curvature="0" />
      <path
         d="m 236.90369,175.40901 q 0,-1.435 0.7875,-2.205 0.7875,-0.77 1.9775,-0.77 l 0.6125,0 q 1.19,0 1.9775,0.77 0.7875,0.77 0.7875,2.205 l 0,6.3 q 0,1.4875 -0.805,2.24 -0.7875,0.735 -2.31,0.735 l -2.0125,0 0,-1.33 2.1875,0 q 0.6475,0 1.05,-0.385 0.4025,-0.385 0.4025,-0.9275 l 0,-1.9075 -1.715,0 q -1.505,0 -2.2225,-0.665 -0.7175,-0.665 -0.7175,-2.135 l 0,-1.925 z m 4.655,-0.3325 q 0,-0.56 -0.3675,-0.945 -0.3675,-0.385 -0.9975,-0.385 l -0.4375,0 q -0.63,0 -0.9975,0.385 -0.3675,0.385 -0.3675,0.945 l 0,2.59 q 0,0.5425 0.315,0.8575 0.3325,0.2975 0.9625,0.2975 l 1.89,0 0,-3.745 z"
         style="font-size:17.5px"
         id="path4326"
         inkscape:connector-curvature="0" />
      <path
         d="m 251.13228,184.33401 q -0.5425,0.35 -1.3125,0.35 l -0.7175,0 q -1.54,0 -2.2575,-0.6475 -0.7175,-0.665 -0.7175,-2.1525 l 0,-3.15 q 0,-1.47 0.7175,-2.135 0.735,-0.665 2.2575,-0.665 l 3.5175,0 0,11.725 -1.4875,0 0,-3.325 z m -1.1375,-0.9625 q 0.5775,0 0.8575,-0.2975 0.28,-0.315 0.28,-0.665 l 0,-5.1625 -2.205,0 q -0.6475,0 -0.98,0.2975 -0.3325,0.2975 -0.3325,0.84 l 0,3.85 q 0,0.5425 0.3325,0.84 0.3325,0.2975 0.98,0.2975 l 1.0675,0 z"
         style="font-size:17.5px"
         id="path4328"
         inkscape:connector-curvature="0" />
      <path
         d="m 259.14837,184.68401 q -1.5225,0 -2.345,-0.735 -0.805,-0.7525 -0.805,-2.24 l 0,-6.3 q 0,-1.4875 0.805,-2.2225 0.8225,-0.7525 2.345,-0.7525 l 2.485,0 0,1.33 -2.66,0 q -0.6475,0 -1.05,0.385 -0.4025,0.385 -0.4025,0.9275 l 0,6.965 q 0,0.5425 0.4025,0.9275 0.4025,0.385 1.05,0.385 l 2.66,0 0,1.33 -2.485,0 z"
         style="font-size:17.5px"
         id="path4330"
         inkscape:connector-curvature="0" />
      <path
         d="m 268.31947,184.68401 q -1.5225,0 -2.345,-0.735 -0.805,-0.7525 -0.805,-2.24 l 0,-6.3 q 0,-1.4875 0.805,-2.2225 0.8225,-0.7525 2.345,-0.7525 l 2.4675,0 0,1.33 -2.6425,0 q -0.6475,0 -1.05,0.385 -0.4025,0.385 -0.4025,0.9275 l 0,6.965 q 0,0.5425 0.4025,0.9275 0.4025,0.385 1.05,0.385 l 1.715,0 0,-3.7975 -1.5225,0 0,-1.3125 2.975,0 0,6.44 -2.9925,0 z"
         style="font-size:17.5px"
         id="path4332"
         inkscape:connector-curvature="0" />
      <path
         d="m 279.71306,184.36901 q -0.6825,0.315 -1.68,0.315 l -0.7,0 q -1.5225,0 -2.345,-0.735 -0.805,-0.7525 -0.805,-2.24 l 0,-6.3 q 0,-1.4875 0.805,-2.2225 0.8225,-0.7525 2.345,-0.7525 l 0.7,0 q 1.5225,0 2.3275,0.7525 0.8225,0.735 0.8225,2.2225 l 0,6.3 q 0,1.0325 -0.4025,1.7325 l 1.2775,1.2775 -0.9975,0.9975 -1.3475,-1.3475 z m -0.0525,-9.2925 q 0,-0.5425 -0.4025,-0.9275 -0.4025,-0.385 -1.05,-0.385 l -1.05,0 q -0.6475,0 -1.05,0.385 -0.4025,0.385 -0.4025,0.9275 l 0,6.965 q 0,0.5425 0.4025,0.9275 0.4025,0.385 1.05,0.385 l 1.05,0 q 0.6475,0 1.05,-0.385 0.4025,-0.385 0.4025,-0.9275 l 0,-6.965 z"
         style="font-size:17.5px"
         id="path4334"
         inkscape:connector-curvature="0" />
      <path
         d="m 293.57525,178.62901 q 0.21,-0.105 0.84,-0.35 0.6475,-0.2625 0.8575,-0.2625 l 0.2625,0 q 0.2275,0 1.1725,0.35 0.91,0.35 1.12,0.35 l 0.175,0 q 0.1225,0 0.7175,-0.2625 0.595,-0.2625 0.805,-0.3675 l 0,1.4 q -0.1925,0.105 -0.77,0.3675 -0.5775,0.245 -0.77,0.245 l -0.2625,0 q -0.105,0 -0.9275,-0.2975 -1.1375,-0.4025 -1.3475,-0.4025 l -0.175,0 q -0.1575,0 -0.8225,0.2625 -0.6475,0.2625 -0.875,0.3675 l 0,-1.4 z"
         style="font-size:17.5px"
         id="path4336"
         inkscape:connector-curvature="0" />
      <path
         d="m 308.81884,178.55901 0,1.3125 -5.6875,0 0,-1.3125 5.6875,0 z"
         style="font-size:17.5px"
         id="path4338"
         inkscape:connector-curvature="0" />
      <path
         d="m 314.71744,182.61901 0,-2.7475 -2.6425,0 0,-1.3125 2.6425,0 0,-2.765 1.4,0 0,2.765 2.625,0 0,1.3125 -2.625,0 0,2.7475 -1.4,0 z"
         style="font-size:17.5px"
         id="path4340"
         inkscape:connector-curvature="0" />
      <path
         d="m 328.17603,176.80901 0,1.3125 -6.65,0 0,-1.3125 6.65,0 z m 0,3.5 0,1.3125 -6.65,0 0,-1.3125 6.65,0 z"
         style="font-size:17.5px"
         id="path4342"
         inkscape:connector-curvature="0" />
      <path
         d="m 336.48962,178.80401 -5.53,-2.38 0,-1.61 6.65,3.1325 0,1.8375 -6.65,3.0625 0,-1.645 5.53,-2.3975 z"
         style="font-size:17.5px"
         id="path4344"
         inkscape:connector-curvature="0" />
    </g>
  </g>
</svg>
