<?xml version="1.0" encoding="UTF-8" standalone="no"?>
<svg
   version="1.1"
   id="svg2"
   viewBox="0 0 335.85692 105.97499"
   height="29.908497mm"
   width="94.786285mm"
   sodipodi:docname="ShureTechMono Nerd Font.svg"
   inkscape:version="1.1.2 (0a00cf5339, 2022-02-04)"
   xmlns:inkscape="http://www.inkscape.org/namespaces/inkscape"
   xmlns:sodipodi="http://sodipodi.sourceforge.net/DTD/sodipodi-0.dtd"
   xmlns="http://www.w3.org/2000/svg"
   xmlns:svg="http://www.w3.org/2000/svg"
   xmlns:rdf="http://www.w3.org/1999/02/22-rdf-syntax-ns#"
   xmlns:cc="http://creativecommons.org/ns#"
   xmlns:dc="http://purl.org/dc/elements/1.1/">
  <sodipodi:namedview
     id="namedview12"
     pagecolor="#ffffff"
     bordercolor="#666666"
     borderopacity="1.0"
     inkscape:pageshadow="2"
     inkscape:pageopacity="0.0"
     inkscape:pagecheckerboard="0"
     inkscape:document-units="mm"
     showgrid="false"
     inkscape:zoom="0.64052329"
     inkscape:cx="327.07632"
     inkscape:cy="473.83133"
     inkscape:window-width="1458"
     inkscape:window-height="976"
     inkscape:window-x="0"
     inkscape:window-y="32"
     inkscape:window-maximized="0"
     inkscape:current-layer="svg2" />
  <defs
     id="defs4" />
  <metadata
     id="metadata7">
    <rdf:RDF>
      <cc:Work
         rdf:about="">
        <dc:format>image/svg+xml</dc:format>
        <dc:type
           rdf:resource="http://purl.org/dc/dcmitype/StillImage" />
      </cc:Work>
    </rdf:RDF>
  </metadata>
  <g
     id="layer1"
     transform="translate(-65.607143,-81.683632)">
    <g
       aria-label="ShureTechMono Nerd Font"
       id="text4136"
       style="font-size:27.5px;line-height:125%;font-family:'ShureTechMono Nerd Font';text-decoration:underline;text-decoration-line:underline;letter-spacing:0px;word-spacing:0px;fill:#ffffff;stroke-width:1px">
      <path
         d="M 74.929643,96.258632 Q 74.929643,98.596132 73.637143,99.778632 72.372143,100.93363 69.979643,100.93363 H 66.074643 V 98.843632 H 70.254643 Q 71.272143,98.843632 71.904643,98.238632 72.537143,97.633632 72.537143,96.781132 V 93.921132 Q 72.537143,93.096132 72.097143,92.601132 71.684643,92.078632 70.832143,92.078632 H 70.007143 Q 67.972143,92.078632 66.789643,90.896132 65.607143,89.686132 65.607143,87.403632 V 86.358632 Q 65.607143,84.021132 66.872143,82.866132 68.164643,81.683632 70.557143,81.683632 H 74.489643 V 83.773632 H 70.282143 Q 69.264643,83.773632 68.632143,84.378632 67.999643,84.983632 67.999643,85.836132 V 87.926132 Q 67.999643,88.778632 68.549643,89.356132 69.099643,89.906132 69.979643,89.906132 H 70.804643 Q 72.757143,89.906132 73.829643,91.033632 74.929643,92.161132 74.929643,94.443632 Z"
         id="path829" />
      <path
         d="M 82.437116,81.683632 V 87.733632 Q 83.262116,87.183632 84.499616,87.183632 H 85.764616 Q 87.992116,87.183632 89.064616,88.228632 90.164616,89.273632 90.164616,91.583632 V 100.93363 H 87.827116 V 91.033632 Q 87.827116,90.208632 87.332116,89.741132 86.864616,89.246132 86.039616,89.246132 H 84.224616 Q 83.344616,89.246132 82.904616,89.713632 82.464616,90.153632 82.437116,90.676132 V 100.93363 H 80.099616 V 81.683632 Z"
         id="path831" />
      <path
         d="M 102.64959,100.30113 Q 101.74209,100.93363 100.44959,100.93363 H 99.514589 Q 97.287089,100.93363 96.187089,99.888632 95.114589,98.843632 95.114589,96.533632 V 87.183632 H 97.452089 V 97.083632 Q 97.452089,97.908632 97.919589,98.403632 98.414589,98.871132 99.239589,98.871132 H 100.72459 Q 101.60459,98.871132 102.01709,98.431132 102.45709,97.991132 102.51209,97.441132 V 87.183632 H 104.84959 V 100.93363 H 102.64959 Z"
         id="path833" />
      <path
         d="M 112.16456,98.871132 V 89.246132 H 110.15706 V 87.183632 H 114.36456 V 87.926132 Q 115.27206,87.183632 116.56456,87.183632 H 119.39706 V 89.383632 H 116.28956 Q 115.40956,89.383632 114.96956,89.961132 114.52956,90.511132 114.50206,91.088632 V 98.871132 H 117.49956 V 100.93363 H 110.15706 V 98.871132 Z"
         id="path835" />
      <path
         d="M 129.51703,100.93363 Q 127.09703,100.93363 125.96953,99.916132 124.84203,98.871132 124.84203,96.533632 V 91.583632 Q 124.84203,89.218632 125.85953,88.201132 126.87703,87.183632 129.24203,87.183632 H 130.53453 Q 132.48703,87.183632 133.47703,88.283632 134.49453,89.356132 134.49453,91.446132 V 95.021132 H 127.17953 V 97.083632 Q 127.17953,97.936132 127.70203,98.403632 128.22453,98.871132 129.24203,98.871132 H 133.61453 V 100.93363 Z M 132.21203,90.896132 Q 132.21203,90.181132 131.74453,89.713632 131.27703,89.246132 130.56203,89.246132 H 128.96703 Q 127.97703,89.246132 127.56453,89.713632 127.17953,90.153632 127.17953,91.033632 V 92.958632 H 132.21203 Z"
         id="path837" />
      <path
         d="M 143.32201,100.93363 V 83.773632 H 138.94951 V 81.683632 H 150.08701 V 83.773632 H 145.71451 V 100.93363 Z"
         id="path839" />
      <path
         d="M 159.21698,100.93363 Q 156.79698,100.93363 155.66948,99.916132 154.54198,98.871132 154.54198,96.533632 V 91.583632 Q 154.54198,89.218632 155.55948,88.201132 156.57698,87.183632 158.94198,87.183632 H 160.23448 Q 162.18698,87.183632 163.17698,88.283632 164.19448,89.356132 164.19448,91.446132 V 95.021132 H 156.87948 V 97.083632 Q 156.87948,97.936132 157.40198,98.403632 157.92448,98.871132 158.94198,98.871132 H 163.31448 V 100.93363 Z M 161.91198,90.896132 Q 161.91198,90.181132 161.44448,89.713632 160.97698,89.246132 160.26198,89.246132 H 158.66698 Q 157.67698,89.246132 157.26448,89.713632 156.87948,90.153632 156.87948,91.033632 V 92.958632 H 161.91198 Z"
         id="path841" />
      <path
         d="M 174.78195,100.93363 Q 172.36195,100.93363 171.23445,99.916132 170.10695,98.871132 170.10695,96.533632 V 91.583632 Q 170.10695,89.273632 171.23445,88.228632 172.38945,87.183632 174.78195,87.183632 H 178.32945 V 89.246132 H 174.50695 Q 173.48945,89.246132 172.96695,89.713632 172.44445,90.181132 172.44445,91.033632 V 97.083632 Q 172.44445,97.936132 172.96695,98.403632 173.48945,98.871132 174.50695,98.871132 H 178.32945 V 100.93363 Z"
         id="path843" />
      <path
         d="M 186.38693,81.683632 V 87.733632 Q 187.21193,87.183632 188.44943,87.183632 H 189.71443 Q 191.94193,87.183632 193.01443,88.228632 194.11443,89.273632 194.11443,91.583632 V 100.93363 H 191.77693 V 91.033632 Q 191.77693,90.208632 191.28193,89.741132 190.81443,89.246132 189.98943,89.246132 H 188.17443 Q 187.29443,89.246132 186.85443,89.713632 186.41443,90.153632 186.38693,90.676132 V 100.93363 H 184.04943 V 81.683632 Z"
         id="path845" />
      <path
         d="M 205.03189,94.471132 H 202.74939 L 200.05439,83.663632 V 100.93363 H 197.96439 V 81.683632 H 201.78689 L 203.98689,91.528632 206.21439,81.683632 H 209.92689 V 100.93363 H 207.78189 V 83.663632 Z"
         id="path847" />
      <path
         d="M 223.89687,96.533632 Q 223.89687,98.843632 222.74187,99.888632 221.61437,100.93363 219.22187,100.93363 H 218.31437 Q 215.92187,100.93363 214.76687,99.888632 213.63937,98.843632 213.63937,96.533632 V 91.583632 Q 213.63937,89.273632 214.76687,88.228632 215.92187,87.183632 218.31437,87.183632 H 219.22187 Q 221.61437,87.183632 222.74187,88.228632 223.89687,89.273632 223.89687,91.583632 Z M 221.55937,91.033632 Q 221.55937,90.181132 221.03687,89.713632 220.51437,89.246132 219.49687,89.246132 H 218.03937 Q 217.02187,89.246132 216.49937,89.713632 215.97687,90.181132 215.97687,91.033632 V 97.083632 Q 215.97687,97.936132 216.49937,98.403632 217.02187,98.871132 218.03937,98.871132 H 219.49687 Q 220.51437,98.871132 221.03687,98.403632 221.55937,97.936132 221.55937,97.083632 Z"
         id="path849" />
      <path
         d="M 230.79934,87.183632 V 87.843632 Q 231.65184,87.183632 232.99934,87.183632 H 234.26434 Q 236.49184,87.183632 237.56434,88.228632 238.66434,89.273632 238.66434,91.583632 V 100.93363 H 236.32684 V 91.033632 Q 236.32684,90.208632 235.83184,89.741132 235.36434,89.246132 234.53934,89.246132 H 232.72434 Q 231.81684,89.246132 231.37684,89.741132 230.93684,90.208632 230.93684,90.758632 V 100.93363 H 228.59934 V 87.183632 Z"
         id="path851" />
      <path
         d="M 253.59682,96.533632 Q 253.59682,98.843632 252.44182,99.888632 251.31432,100.93363 248.92182,100.93363 H 248.01432 Q 245.62182,100.93363 244.46682,99.888632 243.33932,98.843632 243.33932,96.533632 V 91.583632 Q 243.33932,89.273632 244.46682,88.228632 245.62182,87.183632 248.01432,87.183632 H 248.92182 Q 251.31432,87.183632 252.44182,88.228632 253.59682,89.273632 253.59682,91.583632 Z M 251.25932,91.033632 Q 251.25932,90.181132 250.73682,89.713632 250.21432,89.246132 249.19682,89.246132 H 247.73932 Q 246.72182,89.246132 246.19932,89.713632 245.67682,90.181132 245.67682,91.033632 V 97.083632 Q 245.67682,97.936132 246.19932,98.403632 246.72182,98.871132 247.73932,98.871132 H 249.19682 Q 250.21432,98.871132 250.73682,98.403632 251.25932,97.936132 251.25932,97.083632 Z"
         id="path853" />
      <path
         d="M 275.15676,100.93363 H 272.92926 V 81.683632 H 276.83426 L 281.17926,98.898632 V 81.683632 H 283.40676 V 100.93363 H 279.47426 L 275.15676,83.718632 Z"
         id="path855" />
      <path
         d="M 292.86673,100.93363 Q 290.44673,100.93363 289.31923,99.916132 288.19173,98.871132 288.19173,96.533632 V 91.583632 Q 288.19173,89.218632 289.20923,88.201132 290.22673,87.183632 292.59173,87.183632 H 293.88423 Q 295.83673,87.183632 296.82673,88.283632 297.84423,89.356132 297.84423,91.446132 V 95.021132 H 290.52923 V 97.083632 Q 290.52923,97.936132 291.05173,98.403632 291.57423,98.871132 292.59173,98.871132 H 296.96423 V 100.93363 Z M 295.56173,90.896132 Q 295.56173,90.181132 295.09423,89.713632 294.62673,89.246132 293.91173,89.246132 H 292.31673 Q 291.32673,89.246132 290.91423,89.713632 290.52923,90.153632 290.52923,91.033632 V 92.958632 H 295.56173 Z"
         id="path857" />
      <path
         d="M 305.21421,98.871132 V 89.246132 H 303.20671 V 87.183632 H 307.41421 V 87.926132 Q 308.32171,87.183632 309.61421,87.183632 H 312.44671 V 89.383632 H 309.33921 Q 308.45921,89.383632 308.01921,89.961132 307.57921,90.511132 307.55171,91.088632 V 98.871132 H 310.54921 V 100.93363 H 303.20671 V 98.871132 Z"
         id="path859" />
      <path
         d="M 325.61918,100.30113 Q 324.71168,100.93363 323.41918,100.93363 H 322.29168 Q 319.87168,100.93363 318.74418,99.916132 317.61668,98.871132 317.61668,96.533632 V 91.583632 Q 317.61668,89.273632 318.74418,88.228632 319.89918,87.183632 322.29168,87.183632 H 325.48168 V 81.683632 H 327.81918 V 100.93363 H 325.61918 Z M 323.69418,98.871132 Q 324.60168,98.871132 325.04168,98.403632 325.48168,97.908632 325.48168,97.358632 V 89.246132 H 322.01668 Q 320.99918,89.246132 320.47668,89.713632 319.95418,90.181132 319.95418,91.033632 V 97.083632 Q 319.95418,97.936132 320.47668,98.403632 320.99918,98.871132 322.01668,98.871132 Z"
         id="path861" />
      <path
         d="M 356.41912,90.263632 V 92.271132 H 350.31412 V 100.93363 H 347.92162 V 81.683632 H 357.10662 V 83.691132 H 350.31412 V 90.263632 Z"
         id="path863" />
      <path
         d="M 372.39659,96.533632 Q 372.39659,98.843632 371.24159,99.888632 370.11409,100.93363 367.72159,100.93363 H 366.81409 Q 364.42159,100.93363 363.26659,99.888632 362.13909,98.843632 362.13909,96.533632 V 91.583632 Q 362.13909,89.273632 363.26659,88.228632 364.42159,87.183632 366.81409,87.183632 H 367.72159 Q 370.11409,87.183632 371.24159,88.228632 372.39659,89.273632 372.39659,91.583632 Z M 370.05909,91.033632 Q 370.05909,90.181132 369.53659,89.713632 369.01409,89.246132 367.99659,89.246132 H 366.53909 Q 365.52159,89.246132 364.99909,89.713632 364.47659,90.181132 364.47659,91.033632 V 97.083632 Q 364.47659,97.936132 364.99909,98.403632 365.52159,98.871132 366.53909,98.871132 H 367.99659 Q 369.01409,98.871132 369.53659,98.403632 370.05909,97.936132 370.05909,97.083632 Z"
         id="path865" />
      <path
         d="M 379.29907,87.183632 V 87.843632 Q 380.15157,87.183632 381.49907,87.183632 H 382.76407 Q 384.99157,87.183632 386.06407,88.228632 387.16407,89.273632 387.16407,91.583632 V 100.93363 H 384.82657 V 91.033632 Q 384.82657,90.208632 384.33157,89.741132 383.86407,89.246132 383.03907,89.246132 H 381.22407 Q 380.31657,89.246132 379.87657,89.741132 379.43657,90.208632 379.43657,90.758632 V 100.93363 H 377.09907 V 87.183632 Z"
         id="path867" />
      <path
         d="M 397.99905,100.93363 Q 396.59655,100.93363 395.85405,100.02613 395.11155,99.118632 395.11155,97.633632 V 89.246132 H 392.49905 V 87.183632 H 395.11155 V 83.883632 H 397.44905 V 87.183632 H 401.46405 V 89.246132 H 397.44905 V 97.771132 Q 397.44905,98.376132 397.75155,98.623632 398.05405,98.871132 398.68655,98.871132 H 401.46405 V 100.93363 Z"
         id="path869" />
    </g>
    <g
       aria-label="abcdefghijklmnopqrstuvwxyzABCDEFGHIJKLMNOPQRSTUVWXYZ oO08 iIlL1 {} [] g9qCGQ ~-+=&gt;"
       id="text4140"
       style="font-size:27.5px;line-height:125%;font-family:'ShureTechMono Nerd Font';letter-spacing:0px;word-spacing:0px;fill:#ffffff;stroke-width:1px">
      <path
         d="M 72.716903,140.93362 Q 72.489403,140.93362 72.209403,140.79362 71.946903,140.65362 71.754403,140.40862 71.351903,140.93362 70.686903,140.93362 H 69.129403 Q 67.799403,140.93362 67.186903,140.40862 66.591903,139.86612 66.591903,138.57112 V 138.22112 Q 66.591903,135.50862 69.146903,135.50862 H 71.316903 V 134.63362 Q 71.316903,134.09112 70.984403,133.79362 70.651903,133.49612 70.004403,133.49612 H 67.291903 V 132.18362 H 69.829403 Q 71.351903,132.18362 72.069403,132.84862 72.804403,133.51362 72.804403,134.98362 V 139.18362 Q 72.804403,139.44612 72.996903,139.58612 73.206903,139.70862 73.679403,139.70862 V 140.93362 Z M 70.511903,139.62112 Q 71.036903,139.62112 71.176903,139.37612 71.316903,139.13112 71.316903,138.74612 V 136.82112 H 69.129403 Q 68.674403,136.82112 68.376903,137.11862 68.079403,137.41612 68.079403,137.87112 V 138.74612 Q 68.079403,139.20112 68.289403,139.41112 68.499403,139.62112 68.954403,139.62112 Z"
         style="font-size:17.5px"
         id="path872" />
      <path
         d="M 82.796886,138.13362 Q 82.796886,139.60362 82.061886,140.26862 81.344386,140.93362 79.821886,140.93362 H 76.391886 V 128.68362 H 77.879386 V 132.53362 Q 78.404386,132.18362 79.191886,132.18362 H 79.821886 Q 81.361886,132.18362 82.079386,132.84862 82.796886,133.49612 82.796886,134.98362 Z M 79.016886,133.49612 Q 78.439386,133.49612 78.159386,133.81112 77.879386,134.10862 77.879386,134.45862 V 139.62112 H 79.996886 Q 80.644386,139.62112 80.976886,139.32362 81.309386,139.02612 81.309386,138.48362 V 134.63362 Q 81.309386,134.09112 80.976886,133.79362 80.644386,133.49612 79.996886,133.49612 Z"
         style="font-size:17.5px"
         id="path874" />
      <path
         d="M 89.394368,140.93362 Q 87.854368,140.93362 87.136868,140.28612 86.419368,139.62112 86.419368,138.13362 V 134.98362 Q 86.419368,133.51362 87.136868,132.84862 87.871868,132.18362 89.394368,132.18362 H 91.651868 V 133.49612 H 89.219368 Q 88.571868,133.49612 88.239368,133.79362 87.906868,134.09112 87.906868,134.63362 V 138.48362 Q 87.906868,139.02612 88.239368,139.32362 88.571868,139.62112 89.219368,139.62112 H 91.651868 V 140.93362 Z"
         style="font-size:17.5px"
         id="path876" />
      <path
         d="M 100.33185,140.53112 Q 99.754352,140.93362 98.931852,140.93362 H 98.214352 Q 96.674352,140.93362 95.956852,140.28612 95.239352,139.62112 95.239352,138.13362 V 134.98362 Q 95.239352,133.51362 95.956852,132.84862 96.691852,132.18362 98.214352,132.18362 H 100.24435 V 128.68362 H 101.73185 V 140.93362 H 100.33185 Z M 99.106852,139.62112 Q 99.684352,139.62112 99.964352,139.32362 100.24435,139.00862 100.24435,138.65862 V 133.49612 H 98.039352 Q 97.391852,133.49612 97.059352,133.79362 96.726852,134.09112 96.726852,134.63362 V 138.48362 Q 96.726852,139.02612 97.059352,139.32362 97.391852,139.62112 98.039352,139.62112 Z"
         style="font-size:17.5px"
         id="path878" />
      <path
         d="M 107.83933,140.93362 Q 106.29933,140.93362 105.58183,140.28612 104.86433,139.62112 104.86433,138.13362 V 134.98362 Q 104.86433,133.47862 105.51183,132.83112 106.15933,132.18362 107.66433,132.18362 H 108.48683 Q 109.72933,132.18362 110.35933,132.88362 111.00683,133.56612 111.00683,134.89612 V 137.17112 H 106.35183 V 138.48362 Q 106.35183,139.02612 106.68433,139.32362 107.01683,139.62112 107.66433,139.62112 H 110.44683 V 140.93362 Z M 109.55433,134.54612 Q 109.55433,134.09112 109.25683,133.79362 108.95933,133.49612 108.50433,133.49612 H 107.48933 Q 106.85933,133.49612 106.59683,133.79362 106.35183,134.07362 106.35183,134.63362 V 135.85862 H 109.55433 Z"
         style="font-size:17.5px"
         id="path880" />
      <path
         d="M 117.98932,129.99612 Q 117.70932,129.99612 117.53432,130.15362 117.37682,130.29362 117.37682,130.52112 V 132.18362 H 120.19432 V 133.49612 H 117.37682 V 139.62112 H 119.49432 V 140.93362 H 114.40182 V 139.62112 H 115.88932 V 133.49612 H 114.40182 V 132.18362 H 115.88932 V 130.60862 Q 115.88932,129.71612 116.39682,129.20862 116.90432,128.68362 117.70932,128.68362 H 120.36932 V 129.99612 Z"
         style="font-size:17.5px"
         id="path882" />
      <path
         d="M 130.2918,141.54612 Q 130.2918,142.73612 129.5743,143.31362 128.8743,143.90862 127.3693,143.90862 H 123.7293 V 142.59612 H 127.5443 Q 128.1743,142.59612 128.4893,142.35112 128.8043,142.10612 128.8043,141.72112 V 141.16112 Q 128.8043,140.75862 128.4893,140.53112 128.1743,140.28612 127.5443,140.28612 H 124.5168 V 137.87112 Q 123.9393,137.55612 123.6593,136.96112 123.3793,136.36612 123.3793,135.42112 V 134.98362 Q 123.3793,133.51362 124.0968,132.84862 124.8318,132.18362 126.3543,132.18362 H 130.0293 V 135.42112 Q 130.0293,136.73362 129.3118,137.48612 128.5943,138.22112 127.4043,138.22112 H 126.0043 V 138.97362 H 127.3693 Q 128.8743,138.97362 129.5743,139.56862 130.2918,140.14612 130.2918,141.33612 Z M 127.4043,136.90862 Q 127.9468,136.90862 128.2268,136.55862 128.5068,136.20862 128.5418,135.82362 V 133.49612 H 126.1793 Q 125.5318,133.49612 125.1993,133.79362 124.8668,134.09112 124.8668,134.63362 V 135.77112 Q 124.8668,136.31362 125.1993,136.61112 125.5318,136.90862 126.1793,136.90862 Z"
         style="font-size:17.5px"
         id="path884" />
      <path
         d="M 134.57928,128.68362 V 132.53362 Q 135.10428,132.18362 135.89178,132.18362 H 136.69678 Q 138.11428,132.18362 138.79678,132.84862 139.49678,133.51362 139.49678,134.98362 V 140.93362 H 138.00928 V 134.63362 Q 138.00928,134.10862 137.69428,133.81112 137.39678,133.49612 136.87178,133.49612 H 135.71678 Q 135.15678,133.49612 134.87678,133.79362 134.59678,134.07362 134.57928,134.40612 V 140.93362 H 133.09178 V 128.68362 Z"
         style="font-size:17.5px"
         id="path886" />
      <path
         d="M 146.56676,128.68362 V 130.25862 H 144.90426 V 128.68362 Z M 142.41926,133.49612 V 132.18362 H 146.47926 V 139.62112 H 149.06926 V 140.93362 H 144.99176 V 133.49612 Z"
         style="font-size:17.5px"
         id="path888" />
      <path
         d="M 157.50425,128.68362 V 130.25862 H 155.84175 V 128.68362 Z M 155.33425,142.59612 Q 155.61425,142.59612 155.77175,142.43862 155.94675,142.29862 155.94675,142.07112 V 133.49612 H 153.37425 V 132.18362 H 157.43425 V 141.98362 Q 157.43425,142.87612 156.92675,143.38362 156.41925,143.90862 155.61425,143.90862 H 152.86675 V 142.59612 Z"
         style="font-size:17.5px"
         id="path890" />
      <path
         d="M 163.08673,137.18862 V 140.93362 H 161.59923 V 128.68362 H 163.08673 V 135.29862 L 165.83423,132.18362 H 167.70673 L 164.66173,135.63112 167.95173,140.93362 H 166.11423 L 163.54173,136.66362 Z"
         style="font-size:17.5px"
         id="path892" />
      <path
         d="M 174.65421,140.93362 Q 174.05921,140.93362 173.60421,140.51362 173.16671,140.09362 173.16671,139.18362 V 129.99612 H 170.59421 V 128.68362 H 174.65421 V 139.09612 Q 174.65421,139.37612 174.79421,139.49862 174.93421,139.62112 175.26671,139.62112 H 177.59421 V 140.93362 Z"
         style="font-size:17.5px"
         id="path894" />
      <path
         d="M 180.8842,132.18362 V 132.58612 Q 181.3392,132.18362 181.9692,132.18362 H 182.0742 Q 183.2992,132.18362 183.8067,132.88362 184.3842,132.18362 185.3292,132.18362 H 185.4342 Q 186.5017,132.18362 187.0092,132.72612 187.5167,133.26862 187.5167,134.65112 V 140.93362 H 186.1167 V 134.63362 Q 186.1167,133.91612 185.9592,133.63612 185.8192,133.35612 185.2942,133.35612 H 185.1892 Q 184.6642,133.35612 184.4542,133.72362 184.2617,134.07362 184.2442,134.51112 V 140.93362 H 182.8442 V 134.63362 Q 182.8442,133.89862 182.6692,133.63612 182.4942,133.35612 182.0392,133.35612 H 181.9342 Q 181.4092,133.35612 181.1992,133.67112 180.9892,133.96862 180.9717,134.35362 V 140.93362 H 179.5717 V 132.18362 Z"
         style="font-size:17.5px"
         id="path896" />
      <path
         d="M 191.19168,132.18362 V 132.60362 Q 191.73418,132.18362 192.59168,132.18362 H 193.39668 Q 194.81418,132.18362 195.49668,132.84862 196.19668,133.51362 196.19668,134.98362 V 140.93362 H 194.70918 V 134.63362 Q 194.70918,134.10862 194.39418,133.81112 194.09668,133.49612 193.57168,133.49612 H 192.41668 Q 191.83918,133.49612 191.55918,133.81112 191.27918,134.10862 191.27918,134.45862 V 140.93362 H 189.79168 V 132.18362 Z"
         style="font-size:17.5px"
         id="path898" />
      <path
         d="M 205.69916,138.13362 Q 205.69916,139.60362 204.96416,140.26862 204.24666,140.93362 202.72416,140.93362 H 202.14666 Q 200.62416,140.93362 199.88916,140.26862 199.17166,139.60362 199.17166,138.13362 V 134.98362 Q 199.17166,133.51362 199.88916,132.84862 200.62416,132.18362 202.14666,132.18362 H 202.72416 Q 204.24666,132.18362 204.96416,132.84862 205.69916,133.51362 205.69916,134.98362 Z M 204.21166,134.63362 Q 204.21166,134.09112 203.87916,133.79362 203.54666,133.49612 202.89916,133.49612 H 201.97166 Q 201.32416,133.49612 200.99166,133.79362 200.65916,134.09112 200.65916,134.63362 V 138.48362 Q 200.65916,139.02612 200.99166,139.32362 201.32416,139.62112 201.97166,139.62112 H 202.89916 Q 203.54666,139.62112 203.87916,139.32362 204.21166,139.02612 204.21166,138.48362 Z"
         style="font-size:17.5px"
         id="path900" />
      <path
         d="M 210.09164,132.18362 V 132.60362 Q 210.63414,132.18362 211.49164,132.18362 H 212.12164 Q 213.66164,132.18362 214.37914,132.84862 215.09664,133.49612 215.09664,134.98362 V 138.13362 Q 215.09664,139.60362 214.36164,140.26862 213.64414,140.93362 212.12164,140.93362 H 210.17914 V 143.90862 H 208.69164 V 132.18362 Z M 211.31664,133.49612 Q 210.73914,133.49612 210.45914,133.81112 210.17914,134.10862 210.17914,134.45862 V 139.62112 H 212.29664 Q 212.94414,139.62112 213.27664,139.32362 213.60914,139.02612 213.60914,138.48362 V 134.63362 Q 213.60914,134.09112 213.27664,133.79362 212.94414,133.49612 212.29664,133.49612 Z"
         style="font-size:17.5px"
         id="path902" />
      <path
         d="M 223.09413,140.58362 Q 222.55163,140.93362 221.78163,140.93362 H 221.06413 Q 219.52413,140.93362 218.80663,140.28612 218.08913,139.62112 218.08913,138.13362 V 134.98362 Q 218.08913,133.51362 218.80663,132.84862 219.54163,132.18362 221.06413,132.18362 H 224.58163 V 143.90862 H 223.09413 Z M 221.95663,139.62112 Q 222.53413,139.62112 222.81413,139.32362 223.09413,139.00862 223.09413,138.65862 V 133.49612 H 220.88913 Q 220.24163,133.49612 219.90913,133.79362 219.57663,134.09112 219.57663,134.63362 V 138.48362 Q 219.57663,139.02612 219.90913,139.32362 220.24163,139.62112 220.88913,139.62112 Z"
         style="font-size:17.5px"
         id="path904" />
      <path
         d="M 229.09661,139.62112 V 133.49612 H 227.81911 V 132.18362 H 230.49661 V 132.65612 Q 231.07411,132.18362 231.89661,132.18362 H 233.69911 V 133.58362 H 231.72161 Q 231.16161,133.58362 230.88161,133.95112 230.60161,134.30112 230.58411,134.66862 V 139.62112 H 232.49161 V 140.93362 H 227.81911 V 139.62112 Z"
         style="font-size:17.5px"
         id="path906" />
      <path
         d="M 242.90409,138.74612 Q 242.90409,139.84862 242.22159,140.39112 241.55659,140.93362 240.27909,140.93362 H 237.67159 V 139.62112 H 240.45409 Q 240.92659,139.62112 241.17159,139.42862 241.41659,139.21862 241.41659,138.83362 V 137.90612 Q 241.41659,137.11862 240.66409,137.11862 H 240.01659 Q 238.79159,137.11862 238.17909,136.59362 237.58409,136.05112 237.58409,134.89612 V 134.38862 Q 237.58409,133.21612 238.24909,132.70862 238.91409,132.18362 240.20909,132.18362 H 242.55409 V 133.49612 H 240.03409 Q 239.59659,133.49612 239.33409,133.70612 239.07159,133.89862 239.07159,134.28362 V 134.91362 Q 239.07159,135.31612 239.29909,135.50862 239.54409,135.70112 239.91159,135.70112 H 240.50659 Q 241.67909,135.70112 242.29159,136.27862 242.90409,136.83862 242.90409,137.95862 Z"
         style="font-size:17.5px"
         id="path908" />
      <path
         d="M 250.34157,140.93362 Q 249.44907,140.93362 248.97657,140.35612 248.50407,139.77862 248.50407,138.83362 V 133.49612 H 246.84157 V 132.18362 H 248.50407 V 130.08362 H 249.99157 V 132.18362 H 252.54657 V 133.49612 H 249.99157 V 138.92112 Q 249.99157,139.30612 250.18407,139.46362 250.37657,139.62112 250.77907,139.62112 H 252.54657 V 140.93362 Z"
         style="font-size:17.5px"
         id="path910" />
      <path
         d="M 260.84155,140.53112 Q 260.26405,140.93362 259.44155,140.93362 H 258.84655 Q 257.42905,140.93362 256.72905,140.26862 256.04655,139.60362 256.04655,138.13362 V 132.18362 H 257.53405 V 138.48362 Q 257.53405,139.00862 257.83155,139.32362 258.14655,139.62112 258.67155,139.62112 H 259.61655 Q 260.17655,139.62112 260.43905,139.34112 260.71905,139.06112 260.75405,138.71112 V 132.18362 H 262.24155 V 140.93362 H 260.84155 Z"
         style="font-size:17.5px"
         id="path912" />
      <path
         d="M 264.98903,132.18362 H 266.59903 L 268.64653,139.72612 270.64153,132.18362 H 272.19903 L 269.67903,140.93362 H 267.52653 Z"
         style="font-size:17.5px"
         id="path914" />
      <path
         d="M 278.07902,136.54112 277.13402,140.93362 H 275.50652 L 273.93152,132.18362 H 275.41902 L 276.41652,139.13112 277.57152,133.75862 H 278.70902 L 279.75902,139.13112 280.75652,132.18362 H 282.15652 L 280.59902,140.93362 H 278.91902 Z"
         style="font-size:17.5px"
         id="path916" />
      <path
         d="M 285.5515,140.93362 H 283.9065 L 286.6365,136.41862 284.1165,132.18362 H 285.849 L 287.5115,135.12362 289.209,132.18362 H 290.8365 L 288.2815,136.34862 291.064,140.93362 H 289.314 L 287.4765,137.62612 Z"
         style="font-size:17.5px"
         id="path918" />
      <path
         d="M 295.36899,142.59612 Q 295.78899,142.59612 295.99899,142.43862 296.20899,142.28112 296.31399,141.89612 L 296.55899,140.93362 H 296.20899 L 293.32149,132.18362 H 294.93149 L 297.11899,139.51612 299.02649,132.18362 H 300.54899 L 297.83649,141.87862 Q 297.60899,142.77112 297.27649,143.20862 296.94399,143.64612 296.52399,143.76862 296.12149,143.90862 295.47399,143.90862 H 294.63399 V 142.59612 Z"
         style="font-size:17.5px"
         id="path920" />
      <path
         d="M 309.08898,140.93362 H 303.52398 V 139.53362 L 307.61898,133.47862 H 303.87398 V 132.18362 H 309.26398 V 133.74112 L 305.20398,139.63862 H 309.08898 Z"
         style="font-size:17.5px"
         id="path922" />
      <path
         d="M 68.446903,159.71112 67.764403,162.80862 H 66.206903 L 69.164403,150.55862 H 71.176903 L 74.081903,162.80862 H 72.524403 L 71.859403,159.71112 Z M 71.579403,158.39862 70.144403,151.71362 68.726903,158.39862 Z"
         style="font-size:17.5px"
         id="path924" />
      <path
         d="M 82.831886,160.04362 Q 82.831886,161.54862 82.131886,162.17862 81.449386,162.80862 79.856886,162.80862 H 76.356886 V 150.55862 H 79.646886 Q 81.204386,150.55862 81.921886,151.18862 82.656886,151.81862 82.656886,153.28862 V 154.28612 Q 82.656886,155.63362 81.694386,156.31612 82.831886,156.94612 82.831886,158.46862 Z M 81.134386,153.13112 Q 81.134386,152.46612 80.819386,152.16862 80.521886,151.87112 79.856886,151.87112 H 77.879386 V 155.73862 H 79.856886 Q 80.399386,155.73862 80.766886,155.38862 81.134386,155.03862 81.134386,154.46112 Z M 81.309386,158.31112 Q 81.309386,157.73362 80.959386,157.40112 80.609386,157.05112 80.031886,157.05112 H 77.879386 V 161.49612 H 80.014386 Q 80.679386,161.49612 80.994386,161.19862 81.309386,160.88362 81.309386,160.21862 Z"
         style="font-size:17.5px"
         id="path926" />
      <path
         d="M 89.376868,162.80862 Q 87.854368,162.80862 87.031868,162.07362 86.226868,161.32112 86.226868,159.83362 V 153.53362 Q 86.226868,152.04612 87.031868,151.31112 87.854368,150.55862 89.376868,150.55862 H 91.861868 V 151.88862 H 89.201868 Q 88.554368,151.88862 88.151868,152.27362 87.749368,152.65862 87.749368,153.20112 V 160.16612 Q 87.749368,160.70862 88.151868,161.09362 88.554368,161.47862 89.201868,161.47862 H 91.861868 V 162.80862 Z"
         style="font-size:17.5px"
         id="path928" />
      <path
         d="M 101.78435,160.04362 Q 101.78435,161.54862 101.08435,162.17862 100.40185,162.80862 98.809352,162.80862 H 95.204352 V 150.55862 H 98.599352 Q 100.17435,150.55862 100.97935,151.20612 101.78435,151.83612 101.78435,153.28862 Z M 100.26185,153.13112 Q 100.26185,152.55362 99.911852,152.22112 99.561852,151.87112 98.984352,151.87112 H 96.726852 V 161.49612 H 98.966852 Q 99.631852,161.49612 99.946852,161.19862 100.26185,160.88362 100.26185,160.21862 Z"
         style="font-size:17.5px"
         id="path930" />
      <path
         d="M 110.86683,150.55862 V 151.83612 H 106.54433 V 155.84362 H 110.42933 V 157.12112 H 106.54433 V 161.53112 H 110.86683 V 162.80862 H 105.02183 V 150.55862 Z"
         style="font-size:17.5px"
         id="path932" />
      <path
         d="M 119.93182,156.01862 V 157.29612 H 116.04682 V 162.80862 H 114.52432 V 150.55862 H 120.36932 V 151.83612 H 116.04682 V 156.01862 Z"
         style="font-size:17.5px"
         id="path934" />
      <path
         d="M 126.9143,162.80862 Q 125.3918,162.80862 124.5693,162.07362 123.7643,161.32112 123.7643,159.83362 V 153.53362 Q 123.7643,152.04612 124.5693,151.31112 125.3918,150.55862 126.9143,150.55862 H 129.3818 V 151.88862 H 126.7393 Q 126.0918,151.88862 125.6893,152.27362 125.2868,152.65862 125.2868,153.20112 V 160.16612 Q 125.2868,160.70862 125.6893,161.09362 126.0918,161.47862 126.7393,161.47862 H 128.4543 V 157.68112 H 126.9318 V 156.36862 H 129.9068 V 162.80862 Z"
         style="font-size:17.5px"
         id="path936" />
      <path
         d="M 134.49178,157.17362 V 162.80862 H 132.96928 V 150.55862 H 134.49178 V 155.87862 H 138.09678 V 150.55862 H 139.61928 V 162.80862 H 138.09678 V 157.17362 Z"
         style="font-size:17.5px"
         id="path938" />
      <path
         d="M 144.97426,161.53112 V 151.83612 H 143.39926 V 150.55862 H 148.07176 V 151.83612 H 146.49676 V 161.53112 H 148.07176 V 162.80862 H 143.39926 V 161.53112 Z"
         style="font-size:17.5px"
         id="path940" />
      <path
         d="M 157.64425,159.83362 Q 157.64425,161.32112 156.82175,162.07362 156.01675,162.80862 154.49425,162.80862 H 152.65675 V 161.47862 H 154.66925 Q 155.31675,161.47862 155.71925,161.09362 156.12175,160.70862 156.12175,160.16612 V 151.87112 H 153.30425 V 150.55862 H 157.64425 Z"
         style="font-size:17.5px"
         id="path942" />
      <path
         d="M 162.85923,158.29362 V 162.80862 H 161.33673 V 150.55862 H 162.85923 V 155.84362 L 166.18423,150.55862 H 167.84673 L 164.46923,155.96612 168.05673,162.80862 H 166.30673 L 163.52423,157.29612 Z"
         style="font-size:17.5px"
         id="path944" />
      <path
         d="M 172.90421,150.55862 V 161.47862 H 176.80671 V 162.80862 H 171.38171 V 150.55862 Z"
         style="font-size:17.5px"
         id="path946" />
      <path
         d="M 184.2442,158.69612 H 182.7917 L 181.0767,151.81862 V 162.80862 H 179.7467 V 150.55862 H 182.1792 L 183.5792,156.82362 184.9967,150.55862 H 187.3592 V 162.80862 H 185.9942 V 151.81862 Z"
         style="font-size:17.5px"
         id="path948" />
      <path
         d="M 191.06918,162.80862 H 189.65168 V 150.55862 H 192.13668 L 194.90168,161.51362 V 150.55862 H 196.31918 V 162.80862 H 193.81668 L 191.06918,151.85362 Z"
         style="font-size:17.5px"
         id="path950" />
      <path
         d="M 205.94416,159.83362 Q 205.94416,161.32112 205.12166,162.07362 204.31666,162.80862 202.79416,162.80862 H 202.09416 Q 200.57166,162.80862 199.74916,162.07362 198.94416,161.32112 198.94416,159.83362 V 153.53362 Q 198.94416,152.04612 199.74916,151.31112 200.57166,150.55862 202.09416,150.55862 H 202.79416 Q 204.31666,150.55862 205.12166,151.31112 205.94416,152.04612 205.94416,153.53362 Z M 204.42166,153.20112 Q 204.42166,152.65862 204.01916,152.27362 203.61666,151.88862 202.96916,151.88862 H 201.91916 Q 201.27166,151.88862 200.86916,152.27362 200.46666,152.65862 200.46666,153.20112 V 160.16612 Q 200.46666,160.70862 200.86916,161.09362 201.27166,161.47862 201.91916,161.47862 H 202.96916 Q 203.61666,161.47862 204.01916,161.09362 204.42166,160.70862 204.42166,160.16612 Z"
         style="font-size:17.5px"
         id="path952" />
      <path
         d="M 215.06164,155.28362 Q 215.06164,156.70112 214.30914,157.38362 213.55664,158.04862 212.08664,158.04862 H 210.26664 V 162.80862 H 208.74414 V 150.55862 H 212.05164 Q 213.53914,150.55862 214.29164,151.22362 215.06164,151.87112 215.06164,153.28862 Z M 213.53914,153.13112 Q 213.53914,152.46612 213.22414,152.16862 212.92664,151.87112 212.26164,151.87112 H 210.26664 V 156.73612 H 212.26164 Q 212.92664,156.73612 213.22414,156.43862 213.53914,156.12362 213.53914,155.45862 Z"
         style="font-size:17.5px"
         id="path954" />
      <path
         d="M 223.37413,162.49362 Q 222.69163,162.80862 221.69413,162.80862 H 220.99413 Q 219.47163,162.80862 218.64913,162.07362 217.84413,161.32112 217.84413,159.83362 V 153.53362 Q 217.84413,152.04612 218.64913,151.31112 219.47163,150.55862 220.99413,150.55862 H 221.69413 Q 223.21663,150.55862 224.02163,151.31112 224.84413,152.04612 224.84413,153.53362 V 159.83362 Q 224.84413,160.86612 224.44163,161.56612 L 225.71913,162.84362 224.72163,163.84112 Z M 223.32163,153.20112 Q 223.32163,152.65862 222.91913,152.27362 222.51663,151.88862 221.86913,151.88862 H 220.81913 Q 220.17163,151.88862 219.76913,152.27362 219.36663,152.65862 219.36663,153.20112 V 160.16612 Q 219.36663,160.70862 219.76913,161.09362 220.17163,161.47862 220.81913,161.47862 H 221.86913 Q 222.51663,161.47862 222.91913,161.09362 223.32163,160.70862 223.32163,160.16612 Z"
         style="font-size:17.5px"
         id="path956" />
      <path
         d="M 228.81661,157.73362 V 162.80862 H 227.29411 V 150.55862 H 230.58411 Q 232.07161,150.55862 232.82411,151.22362 233.59411,151.87112 233.59411,153.28862 V 154.96862 Q 233.59411,156.94612 232.01911,157.43612 L 234.45161,162.80862 H 232.78911 L 230.53161,157.73362 Z M 232.07161,153.13112 Q 232.07161,152.46612 231.75661,152.16862 231.45911,151.87112 230.79411,151.87112 H 228.81661 V 156.42112 H 230.79411 Q 231.45911,156.42112 231.75661,156.12362 232.07161,155.80862 232.07161,155.14362 Z"
         style="font-size:17.5px"
         id="path958" />
      <path
         d="M 243.20159,159.83362 Q 243.20159,161.32112 242.37909,162.07362 241.57409,162.80862 240.05159,162.80862 H 237.56659 V 161.47862 H 240.22659 Q 240.87409,161.47862 241.27659,161.09362 241.67909,160.70862 241.67909,160.16612 V 158.34612 Q 241.67909,157.82112 241.39909,157.50612 241.13659,157.17362 240.59409,157.17362 H 240.06909 Q 238.77409,157.17362 238.02159,156.42112 237.26909,155.65112 237.26909,154.19862 V 153.53362 Q 237.26909,152.04612 238.07409,151.31112 238.89659,150.55862 240.41909,150.55862 H 242.92159 V 151.88862 H 240.24409 Q 239.59659,151.88862 239.19409,152.27362 238.79159,152.65862 238.79159,153.20112 V 154.53112 Q 238.79159,155.07362 239.14159,155.44112 239.49159,155.79112 240.05159,155.79112 H 240.57659 Q 241.81909,155.79112 242.50159,156.50862 243.20159,157.22612 243.20159,158.67862 Z"
         style="font-size:17.5px"
         id="path960" />
      <path
         d="M 248.92407,162.80862 V 151.88862 H 246.14157 V 150.55862 H 253.22907 V 151.88862 H 250.44657 V 162.80862 Z"
         style="font-size:17.5px"
         id="path962" />
      <path
         d="M 262.50405,159.83362 Q 262.50405,161.32112 261.68155,162.07362 260.87655,162.80862 259.35405,162.80862 H 258.91655 Q 257.39405,162.80862 256.57155,162.07362 255.76655,161.32112 255.76655,159.83362 V 150.55862 H 257.28905 V 160.16612 Q 257.28905,160.70862 257.69155,161.09362 258.09405,161.47862 258.74155,161.47862 H 259.52905 Q 260.17655,161.47862 260.57905,161.09362 260.98155,160.70862 260.98155,160.16612 V 150.55862 H 262.50405 Z"
         style="font-size:17.5px"
         id="path964" />
      <path
         d="M 264.84903,150.55862 H 266.38903 L 268.48903,161.26862 270.74653,150.55862 H 272.25153 L 269.50403,162.80862 H 267.42153 Z"
         style="font-size:17.5px"
         id="path966" />
      <path
         d="M 278.00902,157.83862 276.90652,162.80862 H 274.80652 L 274.21152,150.55862 H 275.50652 L 276.03152,161.49612 277.48402,155.72112 H 278.56902 L 280.05652,161.49612 280.59902,150.55862 H 281.80652 L 281.21152,162.80862 H 279.00652 Z"
         style="font-size:17.5px"
         id="path968" />
      <path
         d="M 285.3065,162.80862 H 283.6615 L 286.7065,156.47362 283.9415,150.55862 H 285.604 L 287.529,154.70612 289.524,150.55862 H 291.1515 L 288.3165,156.45612 291.3265,162.80862 H 289.6115 L 287.5115,158.20612 Z"
         style="font-size:17.5px"
         id="path970" />
      <path
         d="M 296.12149,162.80862 V 157.12112 L 292.98899,150.55862 H 294.66899 L 296.97899,155.65112 299.28899,150.55862 H 300.88149 L 297.69649,157.12112 V 162.80862 Z"
         style="font-size:17.5px"
         id="path972" />
      <path
         d="M 309.38648,162.80862 H 303.19148 V 161.26862 L 307.98648,151.85362 H 303.59398 V 150.55862 H 309.56148 V 152.09862 L 304.78398,161.51362 H 309.38648 Z"
         style="font-size:17.5px"
         id="path974" />
      <path
         d="M 73.399403,181.88362 Q 73.399403,183.35362 72.664403,184.01862 71.946903,184.68362 70.424403,184.68362 H 69.846903 Q 68.324403,184.68362 67.589403,184.01862 66.871903,183.35362 66.871903,181.88362 V 178.73362 Q 66.871903,177.26362 67.589403,176.59862 68.324403,175.93362 69.846903,175.93362 H 70.424403 Q 71.946903,175.93362 72.664403,176.59862 73.399403,177.26362 73.399403,178.73362 Z M 71.911903,178.38362 Q 71.911903,177.84112 71.579403,177.54362 71.246903,177.24612 70.599403,177.24612 H 69.671903 Q 69.024403,177.24612 68.691903,177.54362 68.359403,177.84112 68.359403,178.38362 V 182.23362 Q 68.359403,182.77612 68.691903,183.07362 69.024403,183.37112 69.671903,183.37112 H 70.599403 Q 71.246903,183.37112 71.579403,183.07362 71.911903,182.77612 71.911903,182.23362 Z"
         style="font-size:17.5px"
         id="path976" />
      <path
         d="M 83.094386,181.70862 Q 83.094386,183.19612 82.271886,183.94862 81.466886,184.68362 79.944386,184.68362 H 79.244386 Q 77.721886,184.68362 76.899386,183.94862 76.094386,183.19612 76.094386,181.70862 V 175.40862 Q 76.094386,173.92112 76.899386,173.18612 77.721886,172.43362 79.244386,172.43362 H 79.944386 Q 81.466886,172.43362 82.271886,173.18612 83.094386,173.92112 83.094386,175.40862 Z M 81.571886,175.07612 Q 81.571886,174.53362 81.169386,174.14862 80.766886,173.76362 80.119386,173.76362 H 79.069386 Q 78.421886,173.76362 78.019386,174.14862 77.616886,174.53362 77.616886,175.07612 V 182.04112 Q 77.616886,182.58362 78.019386,182.96862 78.421886,183.35362 79.069386,183.35362 H 80.119386 Q 80.766886,183.35362 81.169386,182.96862 81.571886,182.58362 81.571886,182.04112 Z"
         style="font-size:17.5px"
         id="path978" />
      <path
         d="M 92.159368,181.70862 Q 92.159368,183.16112 91.354368,183.93112 90.566868,184.68362 89.219368,184.68362 H 88.869368 Q 87.521868,184.68362 86.716868,183.93112 85.929368,183.16112 85.929368,181.70862 V 175.40862 Q 85.929368,173.93862 86.716868,173.18612 87.504368,172.43362 88.869368,172.43362 H 89.219368 Q 90.584368,172.43362 91.371868,173.18612 92.159368,173.93862 92.159368,175.40862 Z M 90.671868,175.07612 Q 90.671868,174.53362 90.251868,174.14862 89.849368,173.74612 89.219368,173.74612 H 88.869368 Q 88.239368,173.74612 87.819368,174.14862 87.416868,174.53362 87.416868,175.07612 V 179.81862 Z M 87.416868,182.04112 Q 87.416868,182.58362 87.819368,182.98612 88.239368,183.37112 88.869368,183.37112 H 89.219368 Q 89.849368,183.37112 90.251868,182.98612 90.671868,182.58362 90.671868,182.04112 V 177.31612 Z"
         style="font-size:17.5px"
         id="path980" />
      <path
         d="M 101.71435,181.91862 Q 101.71435,183.37112 101.01435,184.03612 100.31435,184.68362 98.739352,184.68362 H 98.249352 Q 96.674352,184.68362 95.974352,184.03612 95.274352,183.37112 95.274352,181.91862 V 180.44862 Q 95.274352,178.92612 96.411852,178.29612 95.484352,177.64862 95.484352,176.26612 V 175.16362 Q 95.484352,173.76362 96.219352,173.09862 96.954352,172.43362 98.319352,172.43362 H 98.669352 Q 100.03435,172.43362 100.76935,173.09862 101.50435,173.76362 101.50435,175.16362 V 176.26612 Q 101.50435,177.64862 100.57685,178.29612 101.71435,178.92612 101.71435,180.44862 Z M 98.109352,173.74612 Q 97.514352,173.76362 97.251852,174.07862 97.006852,174.37612 97.006852,175.00612 V 176.44112 Q 97.006852,177.00112 97.321852,177.35112 97.654352,177.68362 98.144352,177.71862 H 98.739352 Q 99.281852,177.71862 99.631852,177.36862 99.981852,177.01862 99.981852,176.44112 V 175.00612 Q 99.981852,174.34112 99.684352,174.04362 99.404352,173.74612 98.739352,173.74612 Z M 100.19185,180.29112 Q 100.19185,179.71362 99.841852,179.38112 99.491852,179.03112 98.914352,179.03112 H 98.074352 Q 97.496852,179.03112 97.146852,179.38112 96.796852,179.71362 96.796852,180.29112 V 182.09362 Q 96.796852,182.74112 97.076852,183.05612 97.356852,183.37112 97.951852,183.37112 H 98.896852 Q 99.561852,183.37112 99.876852,183.07362 100.19185,182.75862 100.19185,182.09362 Z"
         style="font-size:17.5px"
         id="path982" />
      <path
         d="M 118.21682,172.43362 V 174.00862 H 116.55432 V 172.43362 Z M 114.06932,177.24612 V 175.93362 H 118.12932 V 183.37112 H 120.71932 V 184.68362 H 116.64182 V 177.24612 Z"
         style="font-size:17.5px"
         id="path984" />
      <path
         d="M 126.0743,183.40612 V 173.71112 H 124.4993 V 172.43362 H 129.1718 V 173.71112 H 127.5968 V 183.40612 H 129.1718 V 184.68362 H 124.4993 V 183.40612 Z"
         style="font-size:17.5px"
         id="path986" />
      <path
         d="M 136.85428,184.68362 Q 136.25928,184.68362 135.80428,184.26362 135.36678,183.84362 135.36678,182.93362 V 173.74612 H 132.79428 V 172.43362 H 136.85428 V 182.84612 Q 136.85428,183.12612 136.99428,183.24862 137.13428,183.37112 137.46678,183.37112 H 139.79428 V 184.68362 Z"
         style="font-size:17.5px"
         id="path988" />
      <path
         d="M 144.55426,172.43362 V 183.35362 H 148.45676 V 184.68362 H 143.03176 V 172.43362 Z"
         style="font-size:17.5px"
         id="path990" />
      <path
         d="M 154.72175,183.37112 V 173.81612 L 152.25425,174.72612 V 173.30862 L 154.54675,172.43362 H 156.20925 V 183.37112 H 158.11675 V 184.68362 H 152.42925 V 183.37112 Z"
         style="font-size:17.5px"
         id="path992" />
      <path
         d="M 171.94171,177.59612 Q 172.64171,177.59612 172.90421,177.38612 173.18421,177.15862 173.18421,176.47612 V 172.46862 Q 173.18421,171.29612 173.62171,170.82362 174.05921,170.33362 175.09171,170.33362 H 176.22921 V 171.55862 H 175.33671 Q 174.91671,171.55862 174.72421,171.69862 174.54921,171.82112 174.54921,172.20612 V 176.47612 Q 174.54921,177.35112 174.11171,177.91112 173.69171,178.47112 173.06171,178.57612 173.69171,178.64612 174.11171,179.20612 174.54921,179.76612 174.54921,180.64112 V 184.91112 Q 174.54921,185.29612 174.72421,185.41862 174.91671,185.55862 175.33671,185.55862 H 176.22921 V 186.78362 H 175.09171 Q 174.05921,186.78362 173.62171,186.29362 173.18421,185.82112 173.18421,184.64862 V 180.64112 Q 173.18421,179.95862 172.90421,179.74862 172.64171,179.52112 171.94171,179.52112 Z"
         style="font-size:17.5px"
         id="path994" />
      <path
         d="M 185.6792,179.52112 Q 184.9792,179.52112 184.6992,179.74862 184.4367,179.95862 184.4367,180.64112 V 184.64862 Q 184.4367,185.82112 183.9992,186.29362 183.5617,186.78362 182.5292,186.78362 H 181.3917 V 185.55862 H 182.2842 Q 182.7042,185.55862 182.8792,185.41862 183.0717,185.29612 183.0717,184.91112 V 180.64112 Q 183.0717,179.76612 183.4917,179.20612 183.9292,178.64612 184.5592,178.57612 183.9292,178.47112 183.4917,177.91112 183.0717,177.35112 183.0717,176.47612 V 172.20612 Q 183.0717,171.82112 182.8792,171.69862 182.7042,171.55862 182.2842,171.55862 H 181.3917 V 170.33362 H 182.5292 Q 183.5617,170.33362 183.9992,170.82362 184.4367,171.29612 184.4367,172.46862 V 176.47612 Q 184.4367,177.15862 184.6992,177.38612 184.9792,177.59612 185.6792,177.59612 Z"
         style="font-size:17.5px"
         id="path996" />
      <path
         d="M 204.28166,170.33362 V 171.64612 H 202.00666 V 185.47112 H 204.28166 V 186.78362 H 200.60666 V 170.33362 Z"
         style="font-size:17.5px"
         id="path998" />
      <path
         d="M 212.33164,185.47112 V 171.64612 H 210.05664 V 170.33362 H 213.73164 V 186.78362 H 210.05664 V 185.47112 Z"
         style="font-size:17.5px"
         id="path1000" />
      <path
         d="M 234.24161,185.29612 Q 234.24161,186.48612 233.52411,187.06362 232.82411,187.65862 231.31911,187.65862 H 227.67911 V 186.34612 H 231.49411 Q 232.12411,186.34612 232.43911,186.10112 232.75411,185.85612 232.75411,185.47112 V 184.91112 Q 232.75411,184.50862 232.43911,184.28112 232.12411,184.03612 231.49411,184.03612 H 228.46661 V 181.62112 Q 227.88911,181.30612 227.60911,180.71112 227.32911,180.11612 227.32911,179.17112 V 178.73362 Q 227.32911,177.26362 228.04661,176.59862 228.78161,175.93362 230.30411,175.93362 H 233.97911 V 179.17112 Q 233.97911,180.48362 233.26161,181.23612 232.54411,181.97112 231.35411,181.97112 H 229.95411 V 182.72362 H 231.31911 Q 232.82411,182.72362 233.52411,183.31862 234.24161,183.89612 234.24161,185.08612 Z M 231.35411,180.65862 Q 231.89661,180.65862 232.17661,180.30862 232.45661,179.95862 232.49161,179.57362 V 177.24612 H 230.12911 Q 229.48161,177.24612 229.14911,177.54362 228.81661,177.84112 228.81661,178.38362 V 179.52112 Q 228.81661,180.06362 229.14911,180.36112 229.48161,180.65862 230.12911,180.65862 Z"
         style="font-size:17.5px"
         id="path1002" />
      <path
         d="M 237.19909,175.40862 Q 237.19909,173.97362 237.98659,173.20362 238.77409,172.43362 239.96409,172.43362 H 240.57659 Q 241.76659,172.43362 242.55409,173.20362 243.34159,173.97362 243.34159,175.40862 V 181.70862 Q 243.34159,183.19612 242.53659,183.94862 241.74909,184.68362 240.22659,184.68362 H 238.21409 V 183.35362 H 240.40159 Q 241.04909,183.35362 241.45159,182.96862 241.85409,182.58362 241.85409,182.04112 V 180.13362 H 240.13909 Q 238.63409,180.13362 237.91659,179.46862 237.19909,178.80362 237.19909,177.33362 Z M 241.85409,175.07612 Q 241.85409,174.51612 241.48659,174.13112 241.11909,173.74612 240.48909,173.74612 H 240.05159 Q 239.42159,173.74612 239.05409,174.13112 238.68659,174.51612 238.68659,175.07612 V 177.66612 Q 238.68659,178.20862 239.00159,178.52362 239.33409,178.82112 239.96409,178.82112 H 241.85409 Z"
         style="font-size:17.5px"
         id="path1004" />
      <path
         d="M 251.44407,184.33362 Q 250.90157,184.68362 250.13157,184.68362 H 249.41407 Q 247.87407,184.68362 247.15657,184.03612 246.43907,183.37112 246.43907,181.88362 V 178.73362 Q 246.43907,177.26362 247.15657,176.59862 247.89157,175.93362 249.41407,175.93362 H 252.93157 V 187.65862 H 251.44407 Z M 250.30657,183.37112 Q 250.88407,183.37112 251.16407,183.07362 251.44407,182.75862 251.44407,182.40862 V 177.24612 H 249.23907 Q 248.59157,177.24612 248.25907,177.54362 247.92657,177.84112 247.92657,178.38362 V 182.23362 Q 247.92657,182.77612 248.25907,183.07362 248.59157,183.37112 249.23907,183.37112 Z"
         style="font-size:17.5px"
         id="path1006" />
      <path
         d="M 259.47655,184.68362 Q 257.95405,184.68362 257.13155,183.94862 256.32655,183.19612 256.32655,181.70862 V 175.40862 Q 256.32655,173.92112 257.13155,173.18612 257.95405,172.43362 259.47655,172.43362 H 261.96155 V 173.76362 H 259.30155 Q 258.65405,173.76362 258.25155,174.14862 257.84905,174.53362 257.84905,175.07612 V 182.04112 Q 257.84905,182.58362 258.25155,182.96862 258.65405,183.35362 259.30155,183.35362 H 261.96155 V 184.68362 Z"
         style="font-size:17.5px"
         id="path1008" />
      <path
         d="M 268.66403,184.68362 Q 267.14153,184.68362 266.31903,183.94862 265.51403,183.19612 265.51403,181.70862 V 175.40862 Q 265.51403,173.92112 266.31903,173.18612 267.14153,172.43362 268.66403,172.43362 H 271.13153 V 173.76362 H 268.48903 Q 267.84153,173.76362 267.43903,174.14862 267.03653,174.53362 267.03653,175.07612 V 182.04112 Q 267.03653,182.58362 267.43903,182.96862 267.84153,183.35362 268.48903,183.35362 H 270.20403 V 179.55612 H 268.68153 V 178.24362 H 271.65653 V 184.68362 Z"
         style="font-size:17.5px"
         id="path1010" />
      <path
         d="M 280.07402,184.36862 Q 279.39152,184.68362 278.39402,184.68362 H 277.69402 Q 276.17152,184.68362 275.34902,183.94862 274.54402,183.19612 274.54402,181.70862 V 175.40862 Q 274.54402,173.92112 275.34902,173.18612 276.17152,172.43362 277.69402,172.43362 H 278.39402 Q 279.91652,172.43362 280.72152,173.18612 281.54402,173.92112 281.54402,175.40862 V 181.70862 Q 281.54402,182.74112 281.14152,183.44112 L 282.41902,184.71862 281.42152,185.71612 Z M 280.02152,175.07612 Q 280.02152,174.53362 279.61902,174.14862 279.21652,173.76362 278.56902,173.76362 H 277.51902 Q 276.87152,173.76362 276.46902,174.14862 276.06652,174.53362 276.06652,175.07612 V 182.04112 Q 276.06652,182.58362 276.46902,182.96862 276.87152,183.35362 277.51902,183.35362 H 278.56902 Q 279.21652,183.35362 279.61902,182.96862 280.02152,182.58362 280.02152,182.04112 Z"
         style="font-size:17.5px"
         id="path1012" />
      <path
         d="M 293.96899,178.62862 Q 294.17899,178.52362 294.80899,178.27862 295.45649,178.01612 295.66649,178.01612 H 295.92899 Q 296.15649,178.01612 297.10149,178.36612 298.01149,178.71612 298.22149,178.71612 H 298.39649 Q 298.51899,178.71612 299.11399,178.45362 299.70899,178.19112 299.91899,178.08612 V 179.48612 Q 299.72649,179.59112 299.14899,179.85362 298.57149,180.09862 298.37899,180.09862 H 298.11649 Q 298.01149,180.09862 297.18899,179.80112 296.05149,179.39862 295.84149,179.39862 H 295.66649 Q 295.50899,179.39862 294.84399,179.66112 294.19649,179.92362 293.96899,180.02862 Z"
         style="font-size:17.5px"
         id="path1014" />
      <path
         d="M 309.22898,178.55862 V 179.87112 H 303.54148 V 178.55862 Z"
         style="font-size:17.5px"
         id="path1016" />
      <path
         d="M 315.14396,182.61862 V 179.87112 H 312.50146 V 178.55862 H 315.14396 V 175.79362 H 316.54396 V 178.55862 H 319.16896 V 179.87112 H 316.54396 V 182.61862 Z"
         style="font-size:17.5px"
         id="path1018" />
      <path
         d="M 328.61894,176.80862 V 178.12112 H 321.96894 V 176.80862 Z M 328.61894,180.30862 V 181.62112 H 321.96894 V 180.30862 Z"
         style="font-size:17.5px"
         id="path1020" />
      <path
         d="M 336.94892,178.80362 331.41892,176.42362 V 174.81362 L 338.06892,177.94612 V 179.78362 L 331.41892,182.84612 V 181.20112 Z"
         style="font-size:17.5px"
         id="path1022" />
    </g>
  </g>
</svg>
