<svg xmlns="http://www.w3.org/2000/svg" width="357.643" height="113.04" viewBox="0 0 335.29 105.975"><g font-weight="400" font-family="ShureTechMono Nerd Font" letter-spacing="0" word-spacing="0" fill="#fff"><g style="line-height:125%;text-decoration-line:underline" font-size="27.5" text-decoration="underline"><path d="M9.323 14.575q0 2.338-1.293 3.52-1.265 1.155-3.657 1.155H.468v-2.09h4.18q1.017 0 1.65-.605.632-.605.632-1.458v-2.86q0-.824-.44-1.32-.412-.522-1.265-.522H4.4q-2.035 0-3.217-1.183Q0 8.002 0 5.72V4.675q0-2.338 1.265-3.493Q2.558 0 4.95 0h3.933v2.09H4.675q-1.017 0-1.65.605-.632.605-.632 1.457v2.09q0 .853.55 1.43.55.55 1.43.55h.825q1.952 0 3.025 1.128 1.1 1.127 1.1 3.41v1.815zM16.804 0v6.05q.825-.55 2.063-.55h1.265q2.227 0 3.3 1.045 1.1 1.045 1.1 3.355v9.35h-2.338v-9.9q0-.825-.495-1.293-.467-.495-1.292-.495h-1.815q-.88 0-1.32.468-.44.44-.468.962V19.25h-2.337V0h2.337zM36.99 18.617q-.907.633-2.2.633h-.934q-2.228 0-3.328-1.045-1.072-1.045-1.072-3.355V5.5h2.337v9.9q0 .825.468 1.32.495.468 1.32.468h1.485q.88 0 1.292-.44.44-.44.495-.99V5.5h2.338v13.75h-2.2v-.633zM46.48 17.188V7.563h-2.007V5.5h4.207v.743q.908-.743 2.2-.743h2.833v2.2h-3.108q-.88 0-1.32.578-.44.55-.467 1.127v7.782h2.997v2.063h-7.342v-2.062h2.007zM63.807 19.25q-2.42 0-3.548-1.018-1.127-1.045-1.127-3.382V9.9q0-2.365 1.017-3.383Q61.167 5.5 63.532 5.5h1.292q1.953 0 2.943 1.1 1.017 1.072 1.017 3.162v3.575H61.47V15.4q0 .852.523 1.32.522.467 1.54.467h4.372v2.063h-4.097zm2.695-10.038q0-.715-.468-1.182-.467-.468-1.182-.468h-1.595q-.99 0-1.403.468-.385.44-.385 1.32v1.925h5.033V9.212zM77.586 19.25V2.09h-4.372V0H84.35v2.09H79.98v17.16h-2.393zM93.455 19.25q-2.42 0-3.547-1.018-1.128-1.045-1.128-3.382V9.9q0-2.365 1.018-3.383Q90.815 5.5 93.18 5.5h1.293q1.952 0 2.942 1.1 1.018 1.072 1.018 3.162v3.575h-7.315V15.4q0 .852.522 1.32.523.467 1.54.467h4.373v2.063h-4.098zM96.15 9.212q0-.715-.467-1.182-.468-.468-1.183-.468h-1.595q-.99 0-1.402.468-.385.44-.385 1.32v1.925h5.032V9.212zM108.995 19.25q-2.42 0-3.548-1.018-1.127-1.045-1.127-3.382V9.9q0-2.31 1.127-3.355 1.155-1.045 3.548-1.045h3.547v2.062h-3.822q-1.018 0-1.54.468-.523.467-.523 1.32v6.05q0 .852.523 1.32.522.467 1.54.467h3.822v2.063h-3.547zM120.574 0v6.05q.825-.55 2.062-.55h1.265q2.228 0 3.3 1.045 1.1 1.045 1.1 3.355v9.35h-2.337v-9.9q0-.825-.495-1.293-.468-.495-1.293-.495h-1.815q-.88 0-1.32.468-.44.44-.467.962V19.25h-2.338V0h2.338zM139.193 12.787h-2.283L134.215 1.98v17.27h-2.09V0h3.823l2.2 9.845L140.375 0h3.713v19.25h-2.145V1.98l-2.75 10.807zM158.032 14.85q0 2.31-1.155 3.355-1.127 1.045-3.52 1.045h-.907q-2.393 0-3.548-1.045-1.127-1.045-1.127-3.355V9.9q0-2.31 1.127-3.355Q150.057 5.5 152.45 5.5h.907q2.393 0 3.52 1.045 1.155 1.045 1.155 3.355v4.95zm-2.337-5.5q0-.853-.523-1.32-.522-.468-1.54-.468h-1.457q-1.018 0-1.54.468-.523.467-.523 1.32v6.05q0 .852.523 1.32.522.467 1.54.467h1.457q1.018 0 1.54-.467.523-.468.523-1.32V9.35zM164.909 5.5v.66q.852-.66 2.2-.66h1.265q2.227 0 3.3 1.045 1.1 1.045 1.1 3.355v9.35h-2.338v-9.9q0-.825-.495-1.293-.467-.495-1.292-.495h-1.815q-.908 0-1.348.495-.44.468-.44 1.018V19.25h-2.337V5.5h2.2zM187.68 14.85q0 2.31-1.154 3.355-1.128 1.045-3.52 1.045h-.908q-2.392 0-3.547-1.045-1.128-1.045-1.128-3.355V9.9q0-2.31 1.128-3.355 1.155-1.045 3.547-1.045h.908q2.392 0 3.52 1.045Q187.68 7.59 187.68 9.9v4.95zm-2.337-5.5q0-.853-.522-1.32-.523-.468-1.54-.468h-1.458q-1.017 0-1.54.468-.522.467-.522 1.32v6.05q0 .852.522 1.32.523.467 1.54.467h1.458q1.017 0 1.54-.467.522-.468.522-1.32V9.35zM209.19 19.25h-2.228V0h3.905l4.345 17.215V0h2.227v19.25h-3.932l-4.318-17.215V19.25zM226.873 19.25q-2.42 0-3.547-1.018-1.128-1.045-1.128-3.382V9.9q0-2.365 1.018-3.383 1.017-1.017 3.382-1.017h1.293q1.952 0 2.942 1.1 1.018 1.072 1.018 3.162v3.575h-7.315V15.4q0 .852.522 1.32.523.467 1.54.467h4.373v2.063h-4.098zm2.695-10.038q0-.715-.467-1.182-.468-.468-1.183-.468h-1.595q-.99 0-1.402.468-.385.44-.385 1.32v1.925h5.032V9.212zM239.195 17.188V7.563h-2.008V5.5h4.208v.743q.907-.743 2.2-.743h2.832v2.2h-3.107q-.88 0-1.32.578-.44.55-.468 1.127v7.782h2.998v2.063h-7.343v-2.062h2.008zM259.574 18.617q-.907.633-2.2.633h-1.127q-2.42 0-3.548-1.018-1.127-1.045-1.127-3.382V9.9q0-2.31 1.127-3.355 1.155-1.045 3.548-1.045h3.19V0h2.337v19.25h-2.2v-.633zm-1.925-1.43q.908 0 1.348-.467.44-.495.44-1.045V7.562h-3.465q-1.018 0-1.54.468-.523.467-.523 1.32v6.05q0 .852.523 1.32.522.467 1.54.467h1.677zM290.323 8.58v2.007h-6.105v8.663h-2.393V0h9.185v2.007h-6.792V8.58h6.105zM306.274 14.85q0 2.31-1.155 3.355-1.127 1.045-3.52 1.045h-.907q-2.393 0-3.548-1.045-1.127-1.045-1.127-3.355V9.9q0-2.31 1.127-3.355Q298.3 5.5 300.692 5.5h.907q2.393 0 3.52 1.045 1.155 1.045 1.155 3.355v4.95zm-2.337-5.5q0-.853-.523-1.32-.522-.468-1.54-.468h-1.457q-1.018 0-1.54.468-.523.467-.523 1.32v6.05q0 .852.523 1.32.522.467 1.54.467h1.457q1.018 0 1.54-.467.523-.468.523-1.32V9.35zM313.151 5.5v.66q.853-.66 2.2-.66h1.265q2.228 0 3.3 1.045 1.1 1.045 1.1 3.355v9.35h-2.337v-9.9q0-.825-.495-1.293-.468-.495-1.293-.495h-1.815q-.907 0-1.347.495-.44.468-.44 1.018V19.25h-2.338V5.5h2.2zM331.825 19.25q-1.402 0-2.145-.908-.742-.907-.742-2.392V7.562h-2.613V5.5h2.613V2.2h2.337v3.3h4.015v2.062h-4.015v8.525q0 .605.303.853.302.247.935.247h2.777v2.063h-3.465z"/></g><g style="line-height:125%" font-size="17.5"><path d="M7.11 59.25q-.228 0-.508-.14-.262-.14-.455-.385-.402.525-1.067.525H3.522q-1.33 0-1.942-.525-.595-.543-.595-1.838v-.35q0-2.712 2.555-2.712h2.17v-.875q0-.543-.333-.84-.332-.298-.98-.298H1.685V50.5h2.537q1.523 0 2.24.665.735.665.735 2.135v4.2q0 .262.193.402.21.123.682.123v1.225H7.11zm-2.205-1.313q.525 0 .665-.245t.14-.63v-1.925H3.522q-.455 0-.752.298-.298.297-.298.752v.875q0 .455.21.665.21.21.665.21h1.558zM17.173 56.45q0 1.47-.735 2.135-.717.665-2.24.665h-3.43V47h1.488v3.85q.525-.35 1.312-.35h.63q1.54 0 2.258.665.717.647.717 2.135v3.15zm-3.78-4.638q-.577 0-.857.315-.28.298-.28.648v5.162h2.117q.648 0 .98-.297.333-.298.333-.84v-3.85q0-.543-.333-.84-.332-.298-.98-.298h-.98zM23.754 59.25q-1.54 0-2.257-.648-.718-.665-.718-2.152V53.3q0-1.47.718-2.135.735-.665 2.257-.665h2.258v1.312h-2.433q-.647 0-.98.298-.332.297-.332.84v3.85q0 .542.332.84.333.297.98.297h2.433v1.313h-2.258zM34.676 58.847q-.578.403-1.4.403h-.718q-1.54 0-2.257-.648-.718-.665-.718-2.152V53.3q0-1.47.718-2.135.735-.665 2.257-.665h2.03V47h1.488v12.25h-1.4v-.403zm-1.225-.91q.577 0 .857-.297.28-.315.28-.665v-5.163h-2.205q-.647 0-.98.298-.332.297-.332.84v3.85q0 .542.332.84.333.297.98.297h1.068zM42.167 59.25q-1.54 0-2.258-.648-.717-.665-.717-2.152V53.3q0-1.505.647-2.153.648-.647 2.153-.647h.822q1.243 0 1.873.7.647.682.647 2.012v2.275H40.68V56.8q0 .542.333.84.332.297.98.297h2.782v1.313h-2.607zm1.715-6.388q0-.455-.298-.752-.297-.298-.752-.298h-1.015q-.63 0-.893.298-.245.28-.245.84v1.225h3.203v-1.313zM52.3 48.312q-.28 0-.455.158-.157.14-.157.367V50.5h2.817v1.312h-2.817v6.125h2.117v1.313h-5.092v-1.313H50.2v-6.125h-1.487V50.5H50.2v-1.575q0-.893.508-1.4Q51.215 47 52.02 47h2.66v1.312H52.3zM64.586 59.862q0 1.19-.717 1.768-.7.595-2.205.595h-3.64v-1.313h3.815q.63 0 .945-.245.315-.245.315-.63v-.56q0-.402-.315-.63-.315-.245-.945-.245H58.81v-2.415q-.577-.315-.857-.91t-.28-1.54V53.3q0-1.47.717-2.135.735-.665 2.258-.665h3.675v3.237q0 1.313-.718 2.065-.717.735-1.907.735h-1.4v.753h1.365q1.505 0 2.205.595.717.577.717 1.767v.21zM61.7 55.225q.542 0 .822-.35.28-.35.315-.735v-2.328h-2.362q-.648 0-.98.298-.333.297-.333.84v1.137q0 .543.333.84.332.298.98.298h1.225zM68.857 47v3.85q.525-.35 1.313-.35h.805q1.417 0 2.1.665.7.665.7 2.135v5.95h-1.488v-6.3q0-.525-.315-.823-.297-.315-.822-.315h-1.155q-.56 0-.84.298-.28.28-.298.612v6.528H67.37V47h1.487zM80.829 47v1.575h-1.663V47h1.663zm-4.148 4.812V50.5h4.06v7.437h2.59v1.313h-4.077v-7.438H76.68zM91.75 47v1.575h-1.663V47h1.663zm-2.17 13.912q.28 0 .437-.157.175-.14.175-.368v-8.575H87.62V50.5h4.06v9.8q0 .892-.508 1.4-.507.525-1.312.525h-2.748v-1.313h2.468zM97.316 55.505v3.745h-1.488V47h1.488v6.615l2.747-3.115h1.873l-3.045 3.447 3.29 5.303h-1.838l-2.572-4.27-.455.525zM108.867 59.25q-.595 0-1.05-.42-.438-.42-.438-1.33v-9.188h-2.572V47h4.06v10.412q0 .28.14.403.14.122.472.122h2.328v1.313h-2.94zM115.08 50.5v.402q.455-.402 1.085-.402h.105q1.225 0 1.733.7.577-.7 1.522-.7h.105q1.068 0 1.575.542.508.543.508 1.925v6.283h-1.4v-6.3q0-.718-.158-.998-.14-.28-.665-.28h-.105q-.525 0-.735.368-.192.35-.21.787v6.423h-1.4v-6.3q0-.735-.175-.998-.175-.28-.63-.28h-.105q-.525 0-.735.315-.21.298-.227.683v6.58h-1.4V50.5h1.312zM125.371 50.5v.42q.543-.42 1.4-.42h.805q1.418 0 2.1.665.7.665.7 2.135v5.95h-1.487v-6.3q0-.525-.315-.823-.298-.315-.823-.315h-1.155q-.577 0-.857.315-.28.298-.28.648v6.475h-1.488V50.5h1.4zM139.863 56.45q0 1.47-.735 2.135-.718.665-2.24.665h-.578q-1.522 0-2.257-.665-.718-.665-.718-2.135V53.3q0-1.47.718-2.135.735-.665 2.257-.665h.578q1.522 0 2.24.665.735.665.735 2.135v3.15zm-1.488-3.5q0-.543-.332-.84-.333-.298-.98-.298h-.928q-.647 0-.98.298-.332.297-.332.84v3.85q0 .542.332.84.333.297.98.297h.928q.647 0 .98-.297.332-.298.332-.84v-3.85zM144.239 50.5v.42q.542-.42 1.4-.42h.63q1.54 0 2.257.665.718.647.718 2.135v3.15q0 1.47-.735 2.135-.718.665-2.24.665h-1.943v2.975h-1.487V50.5h1.4zm1.225 1.312q-.578 0-.858.315-.28.298-.28.648v5.162h2.118q.647 0 .98-.297.332-.298.332-.84v-3.85q0-.543-.332-.84-.333-.298-.98-.298h-.98zM157.225 58.9q-.543.35-1.313.35h-.717q-1.54 0-2.258-.648-.717-.665-.717-2.152V53.3q0-1.47.717-2.135.735-.665 2.258-.665h3.517v11.725h-1.487V58.9zm-1.138-.963q.578 0 .858-.297.28-.315.28-.665v-5.163h-2.205q-.648 0-.98.298-.333.297-.333.84v3.85q0 .542.333.84.332.297.98.297h1.067zM163.21 57.937v-6.125h-1.277V50.5h2.678v.472q.577-.472 1.4-.472h1.802v1.4h-1.977q-.56 0-.84.367-.28.35-.298.718v4.952h1.908v1.313h-4.673v-1.313h1.278zM177.002 57.062q0 1.103-.683 1.645-.665.543-1.942.543h-2.608v-1.313h2.783q.472 0 .717-.192.245-.21.245-.595v-.928q0-.787-.752-.787h-.648q-1.225 0-1.837-.525-.595-.543-.595-1.698v-.507q0-1.173.665-1.68.665-.525 1.96-.525h2.345v1.312h-2.52q-.438 0-.7.21-.263.193-.263.578v.63q0 .402.228.595.245.192.612.192h.595q1.173 0 1.785.578.613.56.613 1.68v.787zM184.423 59.25q-.892 0-1.365-.578-.472-.577-.472-1.522v-5.338h-1.663V50.5h1.663v-2.1h1.487v2.1h2.555v1.312h-2.555v5.425q0 .385.193.543.192.157.595.157h1.767v1.313h-2.205zM194.907 58.847q-.578.403-1.4.403h-.595q-1.418 0-2.118-.665-.682-.665-.682-2.135V50.5h1.487v6.3q0 .525.298.84.315.297.84.297h.945q.56 0 .822-.28.28-.28.315-.63V50.5h1.488v8.75h-1.4v-.403zM199.038 50.5h1.61l2.047 7.542 1.995-7.542h1.558l-2.52 8.75h-2.153l-2.537-8.75zM212.111 54.857l-.945 4.393h-1.627l-1.575-8.75h1.487l.998 6.947 1.155-5.372h1.137l1.05 5.372.998-6.947h1.4l-1.558 8.75h-1.68l-.84-4.393zM219.567 59.25h-1.645l2.73-4.515-2.52-4.235h1.733l1.662 2.94 1.698-2.94h1.627l-2.555 4.165 2.783 4.585h-1.75l-1.838-3.308-1.925 3.308zM229.369 60.912q.42 0 .63-.157.21-.158.315-.543l.245-.962h-.35l-2.888-8.75h1.61l2.188 7.332 1.907-7.332h1.523l-2.713 9.695q-.227.892-.56 1.33-.332.437-.752.56-.403.14-1.05.14h-.84v-1.313h.735zM243.072 59.25h-5.565v-1.4l4.095-6.055h-3.745V50.5h5.39v1.557l-4.06 5.898h3.885v1.295zM2.84 78.027l-.683 3.098H.6l2.957-12.25H5.57l2.905 12.25H6.917l-.665-3.098H2.84zm3.132-1.312L4.537 70.03 3.12 76.715h2.852zM17.208 78.36q0 1.505-.7 2.135-.682.63-2.275.63h-3.5v-12.25h3.29q1.558 0 2.275.63.735.63.735 2.1v.997q0 1.348-.962 2.03 1.137.63 1.137 2.153v1.575zm-1.697-6.913q0-.665-.315-.962-.298-.298-.963-.298h-1.977v3.868h1.977q.543 0 .91-.35.368-.35.368-.928v-1.33zm.175 5.18q0-.577-.35-.91-.35-.35-.928-.35h-2.152v4.445h2.135q.665 0 .98-.297.315-.315.315-.98v-1.908zM23.737 81.125q-1.523 0-2.345-.735-.805-.753-.805-2.24v-6.3q0-1.488.805-2.223.822-.752 2.345-.752h2.485v1.33h-2.66q-.648 0-1.05.385-.403.385-.403.927v6.965q0 .543.403.928.402.385 1.05.385h2.66v1.33h-2.485zM36.128 78.36q0 1.505-.7 2.135-.682.63-2.275.63h-3.605v-12.25h3.395q1.575 0 2.38.647.805.63.805 2.083v6.755zm-1.522-6.913q0-.577-.35-.91-.35-.35-.928-.35h-2.257v9.625h2.24q.665 0 .98-.297.315-.315.315-.98v-7.088zM45.194 68.875v1.277h-4.322v4.008h3.885v1.277h-3.885v4.41h4.322v1.278H39.35v-12.25h5.845zM54.243 74.335v1.277h-3.885v5.513h-1.523v-12.25h5.845v1.277h-4.322v4.183h3.885zM61.209 81.125q-1.523 0-2.345-.735-.805-.753-.805-2.24v-6.3q0-1.488.805-2.223.822-.752 2.345-.752h2.467v1.33h-2.642q-.648 0-1.05.385-.403.385-.403.927v6.965q0 .543.403.928.402.385 1.05.385h1.715v-3.798h-1.523v-1.312h2.975v6.44H61.21zM68.77 75.49v5.635h-1.523v-12.25h1.523v5.32h3.605v-5.32h1.522v12.25h-1.522V75.49H68.77zM79.236 79.847v-9.695h-1.575v-1.277h4.673v1.277h-1.575v9.695h1.575v1.278H77.66v-1.278h1.575zM91.89 78.15q0 1.487-.823 2.24-.805.735-2.327.735h-1.838v-1.33h2.013q.647 0 1.05-.385.402-.385.402-.928v-8.295H87.55v-1.312h4.34v9.275zM97.088 76.61v4.515h-1.522v-12.25h1.522v5.285l3.325-5.285h1.663l-3.378 5.407 3.588 6.843h-1.75l-2.783-5.513-.665.998zM107.117 68.875v10.92h3.902v1.33h-5.425v-12.25h1.523zM118.44 77.012h-1.452l-1.715-6.877v10.99h-1.33v-12.25h2.432l1.4 6.265 1.418-6.265h2.362v12.25h-1.365v-10.99l-1.75 6.877zM125.249 81.125h-1.418v-12.25h2.485l2.765 10.955V68.875h1.418v12.25h-2.503L125.25 70.17v10.955zM140.108 78.15q0 1.487-.823 2.24-.805.735-2.327.735h-.7q-1.523 0-2.345-.735-.805-.753-.805-2.24v-6.3q0-1.488.805-2.223.822-.752 2.345-.752h.7q1.522 0 2.327.752.823.735.823 2.223v6.3zm-1.523-6.633q0-.542-.402-.927-.403-.385-1.05-.385h-1.05q-.648 0-1.05.385-.403.385-.403.927v6.965q0 .543.403.928.402.385 1.05.385h1.05q.647 0 1.05-.385.402-.385.402-.928v-6.965zM149.209 73.6q0 1.417-.753 2.1-.752.665-2.222.665h-1.82v4.76h-1.523v-12.25h3.308q1.487 0 2.24.665.77.647.77 2.065V73.6zm-1.523-2.153q0-.665-.315-.962-.297-.298-.962-.298h-1.995v4.865h1.995q.665 0 .962-.297.315-.315.315-.98v-2.328zM157.505 80.81q-.683.315-1.68.315h-.7q-1.523 0-2.345-.735-.805-.753-.805-2.24v-6.3q0-1.488.805-2.223.822-.752 2.345-.752h.7q1.522 0 2.327.752.823.735.823 2.223v6.3q0 1.032-.403 1.732l1.278 1.278-.998.997-1.347-1.347zm-.053-9.293q0-.542-.402-.927-.403-.385-1.05-.385h-1.05q-.648 0-1.05.385-.403.385-.403.927v6.965q0 .543.403.928.402.385 1.05.385H156q.647 0 1.05-.385.402-.385.402-.928v-6.965zM162.93 76.05v5.075h-1.522v-12.25h3.29q1.488 0 2.24.665.77.647.77 2.065v1.68q0 1.977-1.575 2.467l2.433 5.373h-1.663l-2.257-5.075h-1.715zm3.256-4.603q0-.665-.315-.962-.298-.298-.963-.298h-1.977v4.55h1.977q.665 0 .963-.297.315-.315.315-.98v-2.013zM177.3 78.15q0 1.487-.823 2.24-.805.735-2.328.735h-2.485v-1.33h2.66q.648 0 1.05-.385.403-.385.403-.928v-1.82q0-.525-.28-.84-.263-.332-.805-.332h-.525q-1.295 0-2.048-.753-.752-.77-.752-2.222v-.665q0-1.488.805-2.223.822-.752 2.345-.752h2.502v1.33h-2.677q-.648 0-1.05.385-.403.385-.403.927v1.33q0 .543.35.91.35.35.91.35h.525q1.243 0 1.925.718.7.717.7 2.17v1.155zM183.006 81.125v-10.92h-2.783v-1.33h7.088v1.33h-2.783v10.92h-1.522zM196.57 78.15q0 1.487-.823 2.24-.805.735-2.328.735h-.437q-1.523 0-2.345-.735-.805-.753-.805-2.24v-9.275h1.522v9.607q0 .543.403.928.402.385 1.05.385h.787q.648 0 1.05-.385.403-.385.403-.928v-9.607h1.522v9.275zM198.898 68.875h1.54l2.1 10.71 2.257-10.71h1.505l-2.747 12.25h-2.083l-2.572-12.25zM212.041 76.155l-1.102 4.97h-2.1l-.595-12.25h1.295l.525 10.937 1.452-5.775h1.085l1.488 5.775.542-10.937h1.208l-.595 12.25h-2.205l-.998-4.97zM219.322 81.125h-1.645l3.045-6.335-2.765-5.915h1.663l1.925 4.147 1.995-4.147h1.627l-2.835 5.897 3.01 6.353h-1.715l-2.1-4.603-2.205 4.603zM230.121 81.125v-5.688l-3.132-6.562h1.68l2.31 5.092 2.31-5.092h1.592l-3.185 6.562v5.688h-1.575zM243.37 81.125h-6.195v-1.54l4.795-9.415h-4.393v-1.295h5.968v1.54l-4.778 9.415h4.603v1.295zM7.792 100.2q0 1.47-.735 2.135-.717.665-2.24.665H4.24q-1.523 0-2.258-.665-.717-.665-.717-2.135v-3.15q0-1.47.717-2.135.735-.665 2.258-.665h.577q1.523 0 2.24.665.735.665.735 2.135v3.15zm-1.487-3.5q0-.543-.333-.84-.332-.298-.98-.298h-.927q-.648 0-.98.298-.333.297-.333.84v3.85q0 .542.333.84.332.297.98.297h.927q.648 0 .98-.297.333-.298.333-.84V96.7zM17.47 100.025q0 1.487-.822 2.24-.805.735-2.327.735h-.7q-1.523 0-2.345-.735-.805-.753-.805-2.24v-6.3q0-1.488.805-2.223.822-.752 2.345-.752h.7q1.522 0 2.327.752.823.735.823 2.223v6.3zm-1.522-6.633q0-.542-.402-.927-.403-.385-1.05-.385h-1.05q-.648 0-1.05.385-.403.385-.403.927v6.965q0 .543.403.928.402.385 1.05.385h1.05q.647 0 1.05-.385.402-.385.402-.928v-6.965zM26.52 100.025q0 1.452-.806 2.222-.787.753-2.135.753h-.35q-1.347 0-2.152-.753-.788-.77-.788-2.222v-6.3q0-1.47.788-2.223.787-.752 2.152-.752h.35q1.365 0 2.153.752.787.753.787 2.223v6.3zm-1.488-6.633q0-.542-.42-.927-.403-.403-1.033-.403h-.35q-.63 0-1.05.403-.402.385-.402.927v4.743l3.255-4.743zm-3.255 6.965q0 .543.402.945.42.385 1.05.385h.35q.63 0 1.033-.385.42-.402.42-.945v-4.725l-3.255 4.725zM36.058 100.235q0 1.452-.7 2.117-.7.648-2.275.648h-.49q-1.575 0-2.275-.648-.7-.665-.7-2.117v-1.47q0-1.523 1.138-2.153-.928-.647-.928-2.03V93.48q0-1.4.735-2.065t2.1-.665h.35q1.365 0 2.1.665.735.665.735 2.065v1.102q0 1.383-.927 2.03 1.137.63 1.137 2.153v1.47zm-3.605-8.173q-.595.018-.857.333-.245.297-.245.927v1.435q0 .56.315.91.332.333.822.368h.595q.543 0 .893-.35t.35-.928v-1.435q0-.665-.298-.962-.28-.298-.945-.298h-.63zm2.083 6.545q0-.577-.35-.91-.35-.35-.928-.35h-.84q-.577 0-.927.35-.35.333-.35.91v1.803q0 .647.28.962.28.315.875.315h.945q.665 0 .98-.297.315-.315.315-.98v-1.803zM52.528 90.75v1.575h-1.663V90.75h1.663zm-4.148 4.812V94.25h4.06v7.437h2.59V103h-4.077v-7.438H48.38zM60.369 101.722v-9.695h-1.575V90.75h4.672v1.277h-1.575v9.695h1.575V103h-4.672v-1.278h1.575zM71.132 103q-.595 0-1.05-.42-.437-.42-.437-1.33v-9.188h-2.573V90.75h4.06v10.412q0 .28.14.403.14.122.473.122h2.327V103h-2.94zM78.816 90.75v10.92h3.903V103h-5.425V90.75h1.522zM88.967 101.687v-9.555l-2.467.91v-1.417l2.292-.875h1.663v10.937h1.907V103h-5.687v-1.313h2.292zM106.154 95.912q.7 0 .963-.21.28-.227.28-.91v-4.007q0-1.173.437-1.645.438-.49 1.47-.49h1.138v1.225h-.893q-.42 0-.612.14-.175.122-.175.507v4.27q0 .875-.438 1.435-.42.56-1.05.665.63.07 1.05.63.438.56.438 1.435v4.27q0 .385.175.508.192.14.612.14h.893v1.225h-1.138q-1.032 0-1.47-.49-.437-.473-.437-1.645v-4.008q0-.682-.28-.892-.263-.228-.963-.228v-1.925zM119.875 97.837q-.7 0-.98.228-.262.21-.262.892v4.008q0 1.172-.438 1.645-.437.49-1.47.49h-1.137v-1.225h.892q.42 0 .595-.14.193-.123.193-.508v-4.27q0-.875.42-1.435.437-.56 1.067-.63-.63-.105-1.067-.665-.42-.56-.42-1.435v-4.27q0-.385-.193-.507-.175-.14-.595-.14h-.892V88.65h1.137q1.033 0 1.47.49.438.472.438 1.645v4.007q0 .683.262.91.28.21.98.21v1.925zM138.445 88.65v1.312h-2.275v13.825h2.275v1.313h-3.675V88.65h3.675zM146.479 103.787V89.962h-2.275V88.65h3.675v16.45h-3.675v-1.313h2.275zM168.356 103.612q0 1.19-.718 1.768-.7.595-2.205.595h-3.64v-1.313h3.815q.63 0 .945-.245.315-.245.315-.63v-.56q0-.402-.315-.63-.315-.245-.945-.245h-3.027v-2.415q-.578-.315-.858-.91t-.28-1.54v-.437q0-1.47.718-2.135.735-.665 2.257-.665h3.675v3.237q0 1.313-.717 2.065-.718.735-1.908.735h-1.4v.753h1.365q1.505 0 2.205.595.718.577.718 1.767v.21zm-2.888-4.637q.543 0 .823-.35.28-.35.315-.735v-2.328h-2.363q-.647 0-.98.298-.332.297-.332.84v1.137q0 .543.332.84.333.298.98.298h1.225zM171.297 93.725q0-1.435.787-2.205.788-.77 1.978-.77h.612q1.19 0 1.978.77.787.77.787 2.205v6.3q0 1.487-.805 2.24-.787.735-2.31.735h-2.012v-1.33h2.187q.648 0 1.05-.385.403-.385.403-.928V98.45h-1.715q-1.505 0-2.223-.665-.717-.665-.717-2.135v-1.925zm4.655-.333q0-.56-.368-.945-.367-.385-.997-.385h-.438q-.63 0-.997.385-.368.385-.368.945v2.59q0 .543.315.858.333.297.963.297h1.89v-3.745zM185.526 102.65q-.543.35-1.313.35h-.717q-1.54 0-2.258-.648-.717-.665-.717-2.152v-3.15q0-1.47.717-2.135.735-.665 2.258-.665h3.517v11.725h-1.487v-3.325zm-1.138-.963q.578 0 .858-.297.28-.315.28-.665v-5.163h-2.205q-.648 0-.98.298-.333.297-.333.84v3.85q0 .542.333.84.332.297.98.297h1.067zM193.542 103q-1.523 0-2.345-.735-.805-.753-.805-2.24v-6.3q0-1.488.805-2.223.822-.752 2.345-.752h2.485v1.33h-2.66q-.648 0-1.05.385-.403.385-.403.927v6.965q0 .543.403.928.402.385 1.05.385h2.66V103h-2.485zM202.713 103q-1.523 0-2.345-.735-.805-.753-.805-2.24v-6.3q0-1.488.805-2.223.822-.752 2.345-.752h2.467v1.33h-2.642q-.648 0-1.05.385-.403.385-.403.927v6.965q0 .543.403.928.402.385 1.05.385h1.715v-3.798h-1.523V96.56h2.975V103h-2.992zM214.106 102.685q-.682.315-1.68.315h-.7q-1.522 0-2.345-.735-.805-.753-.805-2.24v-6.3q0-1.488.805-2.223.823-.752 2.345-.752h.7q1.523 0 2.328.752.822.735.822 2.223v6.3q0 1.032-.402 1.732l1.277 1.278-.997.997-1.348-1.347zm-.052-9.293q0-.542-.403-.927-.402-.385-1.05-.385h-1.05q-.647 0-1.05.385-.402.385-.402.927v6.965q0 .543.402.928.403.385 1.05.385h1.05q.648 0 1.05-.385.403-.385.403-.928v-6.965zM227.969 96.945q.21-.105.84-.35.647-.263.857-.263h.263q.227 0 1.172.35.91.35 1.12.35h.175q.123 0 .718-.262.595-.263.805-.368v1.4q-.193.105-.77.368-.578.245-.77.245h-.263q-.105 0-.927-.298-1.138-.402-1.348-.402h-.175q-.157 0-.822.262-.648.263-.875.368v-1.4zM243.212 96.875v1.312h-5.687v-1.312h5.687zM249.11 100.935v-2.748h-2.642v-1.312h2.643V94.11h1.4v2.765h2.625v1.312h-2.625v2.748h-1.4zM262.57 95.125v1.312h-6.65v-1.312h6.65zm0 3.5v1.312h-6.65v-1.312h6.65zM270.883 97.12l-5.53-2.38v-1.61l6.65 3.132V98.1l-6.65 3.062v-1.645l5.53-2.397z"/></g></g></svg>