<svg xmlns="http://www.w3.org/2000/svg" width="336.011" height="114.011" viewBox="0 0 315.01 106.885"><g font-weight="400" font-family="SpaceMono Nerd Font" letter-spacing="0" word-spacing="0" fill="#fff"><g style="line-height:125%;text-decoration-line:underline" font-size="27.5" text-decoration="underline"><path d="M11.715 5.94q0-.935-.385-1.65-.358-.715-.99-1.183-.633-.467-1.458-.715-.825-.247-1.732-.247-.798 0-1.513.22-.715.192-1.292.577-.55.385-.88.963-.33.55-.33 1.292v.165q0 .798.33 1.375.33.55.962.963.66.385 1.623.66.962.247 2.255.44 3.025.467 4.455 1.787 1.43 1.293 1.43 3.493v.33q0 1.237-.44 2.282-.413 1.018-1.265 1.76-.825.743-2.063 1.155-1.237.413-2.86.413-1.842 0-3.272-.523-1.403-.55-2.365-1.485-.935-.962-1.43-2.227Q0 14.492 0 12.98v-.825h2.31v.66q0 2.53 1.375 3.795 1.402 1.265 3.877 1.265 2.145 0 3.218-.935 1.1-.963 1.1-2.53v-.165q0-1.512-1.128-2.31-1.1-.797-3.602-1.155-1.458-.192-2.64-.577-1.155-.413-1.98-1.045-.825-.66-1.265-1.568-.44-.907-.44-2.145v-.33q0-1.127.467-2.062.468-.935 1.293-1.623Q3.437.743 4.592.385 5.775 0 7.177 0 8.8 0 10.065.468q1.292.467 2.172 1.265.88.77 1.32 1.842.468 1.045.468 2.2V6.93h-2.31v-.99zM19.617 25.135h-2.145V5.995h2.145V8.14h.33q.715-1.238 1.98-1.87 1.265-.66 2.75-.66 1.265 0 2.392.467 1.128.468 1.98 1.348.88.88 1.375 2.172.523 1.293.523 2.943v.55q0 1.677-.495 2.97-.495 1.292-1.375 2.172-.853.88-2.008 1.348-1.155.44-2.447.44-.66 0-1.348-.165-.687-.138-1.32-.44-.605-.33-1.127-.77-.523-.468-.88-1.1h-.33v7.59zm4.565-7.15q.99 0 1.815-.33.825-.358 1.43-.99.632-.632.962-1.54.358-.907.358-2.035v-.55q0-1.1-.358-1.98-.33-.908-.962-1.54-.605-.66-1.458-1.018-.825-.357-1.787-.357-.963 0-1.788.385-.825.357-1.457 1.018-.605.66-.963 1.594-.357.908-.357 2.008v.33q0 1.127.357 2.063.358.907.963 1.567.632.66 1.457 1.018.825.357 1.788.357zM44.678 17.325h-.33q-.66 1.375-1.842 2.035-1.155.66-2.448.66-1.347 0-2.502-.44-1.155-.468-2.035-1.347-.853-.908-1.348-2.2-.495-1.293-.495-2.998v-.44q0-1.677.495-2.97.495-1.292 1.348-2.172.88-.908 2.035-1.375 1.155-.468 2.447-.468 1.403 0 2.53.633 1.155.605 1.815 1.897h.33V5.995h2.145V16.83q0 .825.743.825h.687v1.98h-1.457q-.935 0-1.54-.605-.578-.605-.578-1.54v-.165zm-4.4.66q.963 0 1.76-.357.825-.358 1.403-1.018.577-.66.907-1.567.33-.935.33-2.063v-.33q0-1.1-.33-2.007-.33-.936-.935-1.596-.577-.66-1.402-1.017-.798-.385-1.733-.385-.962 0-1.76.357-.797.358-1.402 1.018-.578.632-.908 1.567-.33.908-.33 2.008v.44q0 2.337 1.21 3.657 1.238 1.293 3.19 1.293zM64.35 14.795q-.22 1.128-.77 2.09-.523.963-1.348 1.677-.825.688-1.925 1.073t-2.447.385q-1.43 0-2.723-.468-1.265-.467-2.227-1.347-.963-.907-1.54-2.2-.55-1.292-.55-2.97v-.33q0-1.65.55-2.97.577-1.32 1.54-2.228.962-.907 2.227-1.402 1.293-.495 2.723-.495 1.292 0 2.392.385 1.1.385 1.925 1.1.853.687 1.375 1.65.55.962.743 2.09l-2.145.495q-.083-.715-.413-1.375-.302-.688-.852-1.183-.523-.522-1.293-.825-.77-.302-1.787-.302-.99 0-1.87.385-.853.357-1.513 1.045-.66.66-1.045 1.595-.357.935-.357 2.035v.33q0 1.155.357 2.09.385.907 1.045 1.54.66.632 1.54.99.88.33 1.898.33 1.017 0 1.76-.303.77-.33 1.292-.825.55-.522.853-1.182.33-.66.44-1.375l2.145.495zM69.969 13.475q.082 2.035 1.265 3.273 1.182 1.237 3.3 1.237.962 0 1.677-.22.715-.22 1.21-.605.523-.385.825-.88.33-.522.523-1.1l2.035.55q-.578 1.898-2.145 3.107-1.54 1.183-4.18 1.183-1.458 0-2.695-.495-1.21-.523-2.09-1.457-.88-.935-1.375-2.228-.495-1.292-.495-2.86v-.66q0-1.43.495-2.667.522-1.238 1.43-2.118.907-.907 2.117-1.402 1.238-.523 2.668-.523 1.677 0 2.887.633 1.238.605 2.008 1.512.797.908 1.155 1.98.385 1.073.385 1.98v1.76h-11zm4.565-5.83q-.908 0-1.705.303-.77.275-1.375.797-.578.523-.963 1.238-.357.687-.467 1.512h8.8q-.055-.88-.44-1.595-.358-.715-.963-1.21-.577-.495-1.347-.77-.743-.275-1.54-.275zM84.085.385h4.4l2.585 18.26h.33L93.985.385h4.4v19.25H96.24V1.375h-.33l-2.585 18.26h-4.18L86.56 1.375h-.33v18.26h-2.145V.385zM114.894 12.98q0 1.705-.577 3.025-.55 1.293-1.485 2.2-.935.88-2.2 1.347-1.238.468-2.585.468-1.375 0-2.613-.468-1.237-.467-2.172-1.347-.935-.907-1.513-2.2-.55-1.32-.55-3.025v-.33q0-1.677.55-2.97.578-1.32 1.513-2.227.962-.908 2.2-1.375 1.237-.468 2.585-.468 1.347 0 2.585.468 1.237.467 2.172 1.375.963.907 1.513 2.227.577 1.293.577 2.97v.33zm-6.847 5.005q.99 0 1.815-.33.852-.357 1.485-1.017.632-.66.99-1.568.357-.935.357-2.09v-.33q0-1.1-.357-2.007-.358-.935-.99-1.595-.633-.66-1.485-1.018-.853-.385-1.815-.385-.963 0-1.815.385-.853.358-1.485 1.018-.633.66-.99 1.595-.358.907-.358 2.007v.33q0 1.155.358 2.09.357.908.99 1.568.632.66 1.457 1.017.853.33 1.843.33zM120.98 19.635h-2.144V5.995h2.145v2.31h.33q1.265-2.695 4.4-2.695 2.365 0 3.767 1.485 1.403 1.457 1.403 4.4v8.14h-2.145v-7.7q0-2.145-.963-3.218-.962-1.072-2.612-1.072-1.953 0-3.08 1.347-1.1 1.32-1.1 3.548v7.095zM148.517 12.98q0 1.705-.577 3.025-.55 1.293-1.485 2.2-.935.88-2.2 1.347-1.238.468-2.585.468-1.375 0-2.613-.468-1.237-.467-2.172-1.347-.935-.907-1.513-2.2-.55-1.32-.55-3.025v-.33q0-1.677.55-2.97.578-1.32 1.513-2.227.962-.908 2.2-1.375 1.237-.468 2.585-.468 1.347 0 2.585.468 1.237.467 2.172 1.375.963.907 1.513 2.227.577 1.293.577 2.97v.33zm-6.847 5.005q.99 0 1.815-.33.852-.357 1.485-1.017.632-.66.99-1.568.357-.935.357-2.09v-.33q0-1.1-.357-2.007-.358-.935-.99-1.595-.633-.66-1.485-1.018-.853-.385-1.815-.385-.963 0-1.815.385-.853.358-1.485 1.018-.633.66-.99 1.595-.358.907-.358 2.007v.33q0 1.155.358 2.09.357.908.99 1.568.632.66 1.457 1.017.853.33 1.843.33zM179.06 18.645h.33V.385h2.31v19.25h-4.62l-5.555-18.26h-.33v18.26h-2.31V.385h4.62l5.555 18.26zM187.65 13.475q.082 2.035 1.264 3.273 1.183 1.237 3.3 1.237.963 0 1.678-.22t1.21-.605q.522-.385.825-.88.33-.522.522-1.1l2.035.55q-.577 1.898-2.145 3.107-1.54 1.183-4.18 1.183-1.457 0-2.695-.495-1.21-.523-2.09-1.457-.88-.935-1.375-2.228-.495-1.292-.495-2.86v-.66q0-1.43.495-2.667.523-1.238 1.43-2.118.908-.907 2.118-1.402 1.237-.523 2.667-.523 1.678 0 2.888.633 1.237.605 2.007 1.512.798.908 1.155 1.98.385 1.073.385 1.98v1.76h-11zm4.564-5.83q-.907 0-1.705.303-.77.275-1.375.797-.577.523-.962 1.238-.358.687-.468 1.512h8.8q-.055-.88-.44-1.595-.357-.715-.962-1.21-.578-.495-1.348-.77-.742-.275-1.54-.275zM202.123 5.995h4.95V7.81h.33q.523-1.127 1.485-1.65.963-.55 2.2-.55 2.063 0 3.328 1.348 1.265 1.347 1.347 3.932l-2.255.33q0-1.897-.907-2.722-.908-.853-2.228-.853-.852 0-1.485.33-.605.33-1.017.908-.413.577-.605 1.347-.193.77-.193 1.65v5.775h3.465v1.98h-8.745v-1.98h3.135v-9.68h-2.805v-1.98zM230.265 17.545h-.33q-.33.632-.853 1.1-.495.467-1.1.77-.577.302-1.237.44-.66.165-1.265.165-1.375 0-2.558-.468-1.182-.467-2.09-1.347-.88-.88-1.402-2.172-.495-1.32-.495-2.998v-.44q0-1.65.522-2.942.523-1.32 1.403-2.2.88-.908 2.062-1.375 1.183-.468 2.503-.468 1.402 0 2.612.633 1.238.605 1.898 1.897h.33V.385h2.145v19.25h-2.145v-2.09zm-4.565.44q.962 0 1.787-.357.825-.358 1.43-1.018.633-.66.99-1.567.358-.935.358-2.063v-.33q0-1.1-.358-2.007-.357-.936-.99-1.596-.605-.66-1.457-1.017-.825-.385-1.76-.385-.963 0-1.815.357-.825.358-1.458 1.018-.605.66-.962 1.567-.33.908-.33 2.008v.44q0 1.155.33 2.062.357.908.962 1.568.633.632 1.458.99.825.33 1.815.33zM253.548.385h11.825V2.53h-9.515v6.38h9.35v2.145h-9.35v8.58h-2.31V.385zM283.01 12.98q0 1.705-.578 3.025-.55 1.293-1.485 2.2-.935.88-2.2 1.347-1.238.468-2.585.468-1.375 0-2.613-.468-1.237-.467-2.172-1.347-.935-.907-1.513-2.2-.55-1.32-.55-3.025v-.33q0-1.677.55-2.97.578-1.32 1.513-2.227.962-.908 2.2-1.375 1.237-.468 2.585-.468 1.347 0 2.585.468 1.237.467 2.172 1.375.963.907 1.513 2.227.577 1.293.577 2.97v.33zm-6.848 5.005q.99 0 1.815-.33.852-.357 1.485-1.017.632-.66.99-1.568.357-.935.357-2.09v-.33q0-1.1-.357-2.007-.358-.935-.99-1.595-.633-.66-1.485-1.018-.853-.385-1.815-.385-.963 0-1.815.385-.853.358-1.485 1.018-.633.66-.99 1.595-.358.907-.358 2.007v.33q0 1.155.358 2.09.357.908.99 1.568.632.66 1.457 1.017.853.33 1.843.33zM289.096 19.635h-2.145V5.995h2.145v2.31h.33q1.265-2.695 4.4-2.695 2.365 0 3.767 1.485 1.403 1.457 1.403 4.4v8.14h-2.145v-7.7q0-2.145-.963-3.218-.962-1.072-2.612-1.072-1.953 0-3.08 1.347-1.1 1.32-1.1 3.548v7.095zM303.295 5.995h4.29V.385h2.145v5.61h5.28v1.98h-5.28v8.855q0 .825.742.825h3.878v1.98h-4.648q-.935 0-1.54-.605-.577-.605-.577-1.54V7.975h-4.29v-1.98z"/></g><g style="line-height:125%" font-size="17.5"><path d="M9.147 58.165h-.21q-.42.875-1.172 1.295-.735.42-1.558.42-.857 0-1.592-.28-.735-.298-1.295-.858-.543-.577-.858-1.4-.315-.822-.315-1.907v-.28q0-1.068.315-1.89.315-.823.858-1.383.56-.577 1.295-.875.735-.297 1.557-.297.893 0 1.61.402.735.385 1.155 1.208h.21v-1.365h1.365v6.895q0 .525.473.525h.437v1.26h-.927q-.595 0-.98-.385-.368-.385-.368-.98v-.105zm-2.8.42q.613 0 1.12-.228.525-.227.893-.647.367-.42.577-.998.21-.595.21-1.312v-.21q0-.7-.21-1.278-.21-.595-.595-1.015-.367-.42-.892-.647-.508-.245-1.103-.245-.612 0-1.12.227-.507.228-.892.648-.368.402-.578.997-.21.578-.21 1.278v.28q0 1.487.77 2.327.788.823 2.03.823zM14.596 59.635H13.23v-12.25h1.365v4.935h.21q.455-.788 1.26-1.19.805-.42 1.75-.42.805 0 1.522.297.718.298 1.26.858.56.56.875 1.382.333.823.333 1.873v.35q0 1.067-.315 1.89-.315.822-.875 1.382-.543.56-1.278.858-.735.28-1.557.28-.42 0-.858-.105-.437-.088-.84-.28-.385-.21-.717-.49-.333-.298-.56-.7h-.21v1.33zm2.905-1.05q.63 0 1.155-.21.525-.228.91-.63.402-.403.612-.98.228-.578.228-1.295v-.35q0-.7-.228-1.26-.21-.578-.612-.98-.385-.42-.928-.648-.525-.227-1.137-.227-.613 0-1.138.245-.525.227-.927.647-.385.42-.613 1.015-.227.578-.227 1.278v.21q0 .717.227 1.312.228.578.613.998.402.42.927.647.525.228 1.138.228zM32.364 56.555q-.14.717-.49 1.33-.333.612-.858 1.067-.525.438-1.225.683-.7.245-1.557.245-.91 0-1.733-.298-.805-.297-1.417-.857-.613-.578-.98-1.4-.35-.823-.35-1.89v-.21q0-1.05.35-1.89.367-.84.98-1.418.612-.577 1.417-.892.823-.315 1.733-.315.822 0 1.522.245.7.245 1.225.7.543.437.875 1.05.35.612.473 1.33l-1.365.315q-.053-.455-.263-.875-.192-.438-.542-.753-.333-.332-.823-.525-.49-.192-1.137-.192-.63 0-1.19.245-.543.227-.963.665-.42.42-.665 1.015-.227.595-.227 1.295v.21q0 .735.227 1.33.245.577.665.98.42.402.98.63.56.21 1.208.21.647 0 1.12-.193.49-.21.822-.525.35-.332.543-.752.21-.42.28-.875l1.365.315zM41.662 58.305h-.21q-.21.402-.543.7-.315.297-.7.49-.367.192-.787.28-.42.105-.805.105-.875 0-1.628-.298-.752-.297-1.33-.857-.56-.56-.892-1.383-.315-.84-.315-1.907v-.28q0-1.05.332-1.873.333-.84.893-1.4.56-.577 1.312-.875.753-.297 1.593-.297.892 0 1.662.402.788.385 1.208 1.208h.21v-4.935h1.365v12.25h-1.365v-1.33zm-2.905.28q.612 0 1.137-.228.525-.227.91-.647.403-.42.63-.998.228-.595.228-1.312v-.21q0-.7-.228-1.278-.227-.595-.63-1.015-.385-.42-.927-.647-.525-.245-1.12-.245-.613 0-1.155.227-.525.228-.928.648-.385.42-.612.997-.21.578-.21 1.278v.28q0 .735.21 1.312.227.578.612.998.403.402.928.63.525.21 1.155.21zM46.638 55.715q.052 1.295.805 2.082.752.788 2.1.788.612 0 1.067-.14.455-.14.77-.385.333-.245.525-.56.21-.333.333-.7l1.295.35q-.368 1.207-1.365 1.977-.98.753-2.66.753-.928 0-1.715-.315-.77-.333-1.33-.928t-.875-1.417q-.315-.823-.315-1.82v-.42q0-.91.315-1.698.332-.787.91-1.347.577-.578 1.347-.893.788-.332 1.698-.332 1.067 0 1.837.402.788.385 1.278.963.507.577.735 1.26.245.682.245 1.26v1.12h-7zm2.905-3.71q-.578 0-1.085.192-.49.175-.875.508-.368.332-.613.787-.227.438-.297.963h5.6q-.035-.56-.28-1.015-.228-.455-.613-.77-.367-.315-.857-.49-.473-.175-.98-.175zM56.251 50.955h2.677V48.75q0-.595.368-.98.385-.385.98-.385h3.43v1.26h-2.94q-.473 0-.473.525v1.785h3.623v1.26h-3.623v7.42h-1.365v-7.42h-2.677v-1.26zM73.634 58.305h-.21q-.42.787-1.155 1.19-.717.385-1.575.385-.875 0-1.645-.298-.77-.297-1.365-.857-.577-.56-.927-1.383-.333-.84-.333-1.907v-.28q0-1.05.35-1.873.35-.84.928-1.4.577-.577 1.347-.875.77-.297 1.61-.297.945 0 1.645.42.718.402 1.12 1.19h.21v-1.365H75V61.77q0 .595-.385.98-.367.385-.962.385h-5.653v-1.26h5.163q.472 0 .472-.525v-3.045zm-2.905.28q.613 0 1.138-.228.525-.227.91-.647.402-.42.63-.998.227-.595.227-1.312v-.21q0-.7-.227-1.278-.228-.595-.63-1.015-.385-.42-.928-.647-.525-.245-1.12-.245-.612 0-1.155.227-.525.228-.927.648-.385.42-.613.997-.21.578-.21 1.278v.28q0 .735.21 1.312.228.578.613.998.402.402.927.63.525.21 1.155.21zM79.1 59.635h-1.365v-12.25H79.1v5.145h.21q.402-.84 1.12-1.33.735-.49 1.785-.49 1.417 0 2.292.945.893.927.893 2.8v5.18h-1.365v-4.9q0-1.365-.613-2.048-.612-.682-1.662-.682-1.243 0-1.96.857-.7.84-.7 2.258v4.515zM91.128 48.365q0-.508.35-.858.368-.367.875-.367.508 0 .858.367.367.35.367.858 0 .507-.367.875-.35.35-.858.35-.507 0-.875-.35-.35-.368-.35-.875zm-2.485 10.01h3.045v-6.16h-2.73v-1.26h4.095v7.42h2.835v1.26h-7.245v-1.26zM102.981 48.365q0-.508.35-.858.368-.367.875-.367.508 0 .858.367.367.35.367.858 0 .507-.367.875-.35.35-.858.35-.507 0-.875-.35-.35-.368-.35-.875zm-2.905 2.59h4.83V61.77q0 .595-.385.98-.367.385-.962.385h-3.903v-1.26h3.413q.472 0 .472-.525v-9.135h-3.465v-1.26zM112.07 54.56h.297l3.308-3.605h1.68v.105l-3.605 3.972v.315l4.025 4.183v.105h-1.68l-3.693-3.815h-.332v3.815h-1.365v-12.25h1.365v7.175zM120.528 58.375h3.15v-9.73h-3.045v-1.26h4.41v10.99h3.15v1.26h-7.665v-1.26zM139.574 59.635h-1.365v-6.23q0-.613-.28-.998-.28-.402-.893-.402-.577 0-.945.437-.35.42-.35 1.313v5.88h-1.365v-6.3q0-.578-.315-.945-.315-.385-.84-.385-.63 0-.98.455-.332.455-.332 1.19v5.985h-1.365v-8.68h1.365v.945h.21q.227-.613.665-.893.437-.297 1.032-.297.63 0 1.033.332.42.333.577.858h.21q.595-1.19 1.89-1.19.98 0 1.505.63.543.612.543 1.61v6.685zM143.29 59.635h-1.366v-8.68h1.365v1.47h.21q.805-1.715 2.8-1.715 1.505 0 2.398.945.892.927.892 2.8v5.18h-1.365v-4.9q0-1.365-.612-2.048-.613-.682-1.663-.682-1.242 0-1.96.857-.7.84-.7 2.258v4.515zM160.813 55.4q0 1.085-.368 1.925-.35.822-.945 1.4-.595.56-1.4.857-.787.298-1.645.298-.875 0-1.662-.298-.788-.297-1.383-.857-.595-.578-.962-1.4-.35-.84-.35-1.925v-.21q0-1.068.35-1.89.367-.84.962-1.418.613-.577 1.4-.875.788-.297 1.645-.297.858 0 1.645.297.788.298 1.383.875.612.578.962 1.418.368.822.368 1.89v.21zm-4.358 3.185q.63 0 1.155-.21.543-.228.945-.648.403-.42.63-.997.228-.595.228-1.33v-.21q0-.7-.228-1.278-.227-.595-.63-1.015-.402-.42-.945-.647-.542-.245-1.155-.245-.612 0-1.155.245-.542.227-.945.647-.402.42-.63 1.015-.227.578-.227 1.278v.21q0 .735.227 1.33.228.577.63.997.403.42.928.648.542.21 1.172.21zM164.37 63.135h-1.364v-12.18h1.365v1.365h.21q.455-.788 1.26-1.19.805-.42 1.75-.42.805 0 1.522.297.718.298 1.26.858.56.56.875 1.382.333.823.333 1.873v.35q0 1.067-.315 1.89-.315.822-.875 1.382-.543.56-1.278.858-.735.28-1.557.28-.42 0-.858-.105-.437-.088-.84-.28-.385-.21-.717-.49-.333-.298-.56-.7h-.21v4.83zm2.906-4.55q.63 0 1.155-.21.525-.228.91-.63.402-.403.612-.98.228-.578.228-1.295v-.35q0-.7-.228-1.26-.21-.578-.612-.98-.385-.42-.928-.648-.525-.227-1.137-.227-.613 0-1.138.245-.525.227-.927.647-.385.42-.613 1.015-.227.578-.227 1.278v.21q0 .717.227 1.312.228.578.613.998.402.42.927.647.525.228 1.138.228zM180.67 58.305h-.21q-.228.402-.56.7-.316.28-.7.49-.368.192-.788.28-.403.105-.788.105-.875 0-1.627-.298-.753-.297-1.33-.857-.56-.56-.893-1.383-.315-.84-.315-1.907v-.28q0-1.05.333-1.873.332-.84.892-1.4.56-.577 1.313-.875.752-.297 1.592-.297.893 0 1.645.42.77.402 1.225 1.19h.21v-1.365h1.365v12.18h-1.365v-4.83zm-2.906.28q.613 0 1.138-.228.525-.227.91-.647.402-.42.63-.998.227-.595.227-1.312v-.21q0-.7-.227-1.278-.228-.595-.63-1.015-.385-.42-.928-.647-.525-.245-1.12-.245-.612 0-1.155.227-.525.228-.927.648-.385.42-.613.997-.21.578-.21 1.278v.28q0 .735.21 1.312.228.578.613.998.402.402.927.63.525.21 1.155.21zM184.227 50.955h3.15v1.155h.21q.333-.718.945-1.05.613-.35 1.4-.35 1.313 0 2.118.857.805.858.857 2.503l-1.435.21q0-1.208-.577-1.733-.578-.542-1.418-.542-.542 0-.945.21-.385.21-.647.577-.263.368-.385.858-.123.49-.123 1.05v3.675h2.205v1.26h-5.565v-1.26h1.995v-6.16h-1.785v-1.26zM197.218 53.195q0 .63.525.962.543.333 1.96.438 1.523.122 2.31.735.805.595.805 1.75v.105q0 .63-.262 1.137-.245.49-.7.84-.438.35-1.085.525-.63.193-1.383.193-1.015 0-1.75-.263-.717-.28-1.207-.717-.473-.455-.718-1.015-.245-.578-.28-1.155l1.295-.315q.088.997.77 1.61.683.595 1.82.595.963 0 1.54-.368.595-.385.595-1.067 0-.735-.577-1.05-.578-.315-1.873-.403-1.505-.105-2.31-.7-.805-.595-.805-1.732v-.105q0-.613.263-1.068.262-.472.7-.787.455-.315 1.015-.473.56-.157 1.172-.157.858 0 1.505.245.648.227 1.085.612.438.368.665.858.245.49.315.98l-1.295.315q-.087-.84-.682-1.313-.578-.472-1.523-.472-.367 0-.717.087-.333.07-.595.228-.263.157-.42.402-.158.228-.158.543zM205.816 50.955h2.73v-3.57h1.365v3.57h3.36v1.26h-3.36v5.635q0 .525.473.525h2.467v1.26h-2.957q-.595 0-.98-.385-.368-.385-.368-.98v-6.055h-2.73v-1.26zM223.007 50.955h1.365v8.68h-1.365V58.06h-.21q-.42.84-1.102 1.33-.683.49-1.733.49-.717 0-1.33-.245-.595-.228-1.032-.7-.42-.473-.665-1.173-.228-.7-.228-1.627v-5.18h1.365v5.005q0 1.365.56 1.995.56.63 1.715.63 1.243 0 1.943-.84.717-.858.717-2.275v-4.515zM232.673 59.635h-2.695l-3.028-8.68h1.61l2.66 8.05h.21l2.66-8.05h1.61l-3.027 8.68zM245.716 59.635h-2.52l-1.05-8.05h-.21l-1.05 8.05h-2.52l-1.365-8.68h1.4l1.155 8.05h.21l1.015-8.05h2.52l1.015 8.05h.21l1.155-8.05h1.4l-1.365 8.68zM255.084 50.955h1.558l-2.555 4.13v.21l2.765 4.34h-1.593l-2.362-3.815h-.315l-2.363 3.815h-1.592l2.765-4.34v-.21l-2.555-4.13h1.557l2.188 3.605h.315l2.187-3.605zM265.905 58.06h-.21q-.42.84-1.102 1.33-.683.49-1.733.49-.717 0-1.33-.245-.595-.228-1.032-.7-.42-.473-.665-1.173-.228-.7-.228-1.627v-5.18h1.365v5.005q0 1.365.56 1.995.56.63 1.715.63 1.243 0 1.943-.84.717-.858.717-2.275v-4.515h1.365V61.77q0 .595-.385.98-.367.385-.962.385h-4.953v-1.26h4.463q.472 0 .472-.525v-3.29zM277.933 58.375v1.26h-7.56v-2.17l6.195-5.04v-.21h-6.09v-1.26h7.245v2.1l-6.23 5.11v.21h6.44zM9.305 78.465h-5.25l-.893 3.045H1.587l3.71-12.25h2.765l3.71 12.25h-1.575l-.892-3.045zm-2.73-8.575L4.457 77.1h4.445l-2.117-7.21h-.21zM13.02 80.145h1.05v-9.52h-1.05V69.26h4.953q.875 0 1.54.245.683.245 1.138.665.472.42.7 1.015.245.577.245 1.26v.21q0 .507-.158.927-.157.42-.437.753-.28.332-.665.577-.368.228-.805.35v.21q.875.245 1.47.945.595.683.595 1.68v.21q0 .683-.245 1.278-.228.577-.7 1.015-.455.42-1.138.665-.665.245-1.54.245h-4.952v-1.365zm2.52 0h2.328q1.033 0 1.68-.508.648-.525.648-1.435v-.105q0-.945-.613-1.487-.612-.56-1.662-.56h-2.38v4.095zm0-5.46h2.38q1.05 0 1.663-.543.613-.542.613-1.487v-.105q0-.893-.648-1.4-.647-.525-1.68-.525h-2.327v4.06zM28.146 80.39q.753 0 1.278-.245.542-.263.875-.683.35-.437.507-.98.175-.56.175-1.172v-.21h1.47v.21q0 .927-.28 1.75-.28.805-.822 1.417-.543.595-1.348.945-.805.333-1.855.333-2.03 0-3.167-1.278Q23.84 79.2 23.84 76.75v-2.73q0-2.38 1.138-3.693 1.137-1.312 3.167-1.312 1.05 0 1.855.35.805.332 1.348.945.542.595.822 1.417.28.805.28 1.733v.21h-1.47v-.21q-.017-.595-.192-1.155-.158-.56-.508-.98-.332-.438-.857-.683-.525-.262-1.278-.262-1.417 0-2.135 1.032-.7 1.033-.7 2.713v2.52q0 1.802.7 2.782.718.963 2.135.963zM34.697 69.26h4.025q2.275 0 3.325 1.085 1.05 1.085 1.05 3.465v3.15q0 2.38-1.05 3.465t-3.325 1.085h-4.025v-1.383h1.05v-9.502h-1.05V69.26zm3.815 10.885q.805 0 1.382-.158.595-.157.98-.525.385-.385.56-1.015.193-.63.193-1.592v-2.94q0-.963-.193-1.593-.175-.63-.56-.997-.385-.385-.98-.543-.577-.157-1.382-.157h-1.295v9.52h1.295zM45.763 69.26h7.42v1.365h-5.95v4.06h5.845v1.365h-5.845v4.095h6.055v1.365h-7.525V69.26zM56.478 69.26h7.525v1.365h-6.055v4.06h5.95v1.365h-5.95v5.46h-1.47V69.26zM69.697 75.63h5.46v5.88h-1.365v-1.47h-.21q-.298.77-1.05 1.242-.753.473-1.75.473-1.978 0-3.115-1.278-1.12-1.277-1.12-3.727v-2.73q0-2.38 1.137-3.693 1.138-1.312 3.168-1.312 1.05 0 1.855.35.805.332 1.347.945.543.595.823 1.417.28.805.28 1.733v.21h-1.47v-.21q0-.595-.175-1.155-.158-.56-.508-.98-.332-.438-.875-.683-.525-.262-1.277-.262-1.418 0-2.135 1.032-.7 1.033-.7 2.713v2.52q0 1.802.7 2.782.717.963 2.17.963 1.312 0 2.047-.84.753-.84.753-2.345v-.21h-3.99V75.63zM77.49 69.26h1.47v5.425h5.215V69.26h1.47v12.25h-1.47v-5.46H78.96v5.46h-1.47V69.26zM88.38 69.26h7.77v1.365H93v9.52h3.15v1.365h-7.77v-1.365h3.15v-9.52h-3.15V69.26zM106.446 77.835q0 1.907-.945 2.922-.927.998-2.73.998-1.802 0-2.852-.998-1.033-1.015-1.033-2.922v-.945h1.47v.945q0 1.155.595 1.855t1.82.7q1.225 0 1.715-.7t.49-1.855v-7.21h-1.26V69.26h3.78v1.365h-1.05v7.21zM111.335 81.51h-1.47V69.26h1.47v5.425h.402l4.708-5.425h1.82v.105l-5.075 5.915v.21l5.285 5.915v.105h-1.855l-4.883-5.46h-.402v5.46zM120.528 69.26h1.47v10.885h6.405v1.365h-7.875V69.26zM130.509 69.26h2.8l1.645 11.62h.21l1.645-11.62h2.8v12.25h-1.365V69.89h-.21l-1.645 11.62h-2.66l-1.645-11.62h-.21v11.62h-1.365V69.26zM148.154 80.88h.21V69.26h1.47v12.25h-2.94l-3.535-11.62h-.21v11.62h-1.47V69.26h2.94l3.535 11.62zM152.15 74.02q0-2.38 1.138-3.693 1.137-1.312 3.167-1.312t3.168 1.312q1.137 1.313 1.137 3.693v2.73q0 2.45-1.137 3.727-1.138 1.278-3.168 1.278-2.03 0-3.167-1.278-1.138-1.277-1.138-3.727v-2.73zm4.305 6.37q1.418 0 2.118-.963.717-.98.717-2.782v-2.52q0-1.68-.717-2.713-.7-1.032-2.118-1.032-1.417 0-2.135 1.032-.7 1.033-.7 2.713v2.52q0 1.802.7 2.782.718.963 2.135.963zM164.756 76.47v5.04h-1.47V69.26h4.375q.945 0 1.645.28.7.262 1.155.717.472.455.7 1.068.245.595.245 1.26v.525q0 .665-.245 1.277-.228.613-.7 1.085-.473.455-1.173.735-.7.263-1.627.263h-2.905zm0-1.365h2.73q2.45 0 2.45-2.1v-.315q0-.928-.613-1.488-.595-.577-1.837-.577h-2.73v4.48zM173.547 74.02q0-2.38 1.137-3.693 1.138-1.312 3.168-1.312 2.03 0 3.167 1.312 1.138 1.313 1.138 3.693v2.73q0 2.24-.963 3.517-.945 1.26-2.66 1.453v.735q0 .525.473.525h1.47v1.26h-1.96q-.595 0-.98-.385-.368-.385-.368-.98V81.72q-1.732-.21-2.677-1.47-.945-1.26-.945-3.5v-2.73zm4.305 6.37q1.417 0 2.117-.963.718-.98.718-2.782v-2.52q0-1.68-.718-2.713-.7-1.032-2.117-1.032-1.418 0-2.135 1.032-.7 1.033-.7 2.713v2.52q0 1.802.7 2.782.717.963 2.135.963zM192.382 81.51h-1.47v-4.095q0-.455-.21-.7-.21-.245-.735-.245h-3.815v5.04h-1.47V69.26h4.375q.945 0 1.645.28.7.262 1.155.717.473.455.7 1.068.245.595.245 1.26v.525q0 .682-.385 1.365-.367.682-1.155 1.05v.21q.525.087.823.42.297.332.297.945v4.41zm-6.23-6.405h2.73q1.243 0 1.838-.525.612-.543.612-1.575v-.315q0-.928-.612-1.488-.595-.577-1.838-.577h-2.73v4.48zM202.136 72.795q0-.595-.245-1.05-.228-.455-.63-.753-.403-.297-.928-.455-.525-.157-1.102-.157-.508 0-.963.14-.455.122-.822.367-.35.245-.56.613-.21.35-.21.822v.105q0 .508.21.875.21.35.612.613.42.245 1.033.42.612.157 1.435.28 1.925.297 2.835 1.137.91.823.91 2.223v.21q0 .787-.28 1.452-.263.648-.805 1.12-.525.473-1.313.735-.787.263-1.82.263-1.172 0-2.082-.333-.893-.35-1.505-.945-.595-.612-.91-1.417-.315-.823-.315-1.785v-.525h1.47v.42q0 1.61.875 2.415.892.805 2.467.805 1.365 0 2.048-.595.7-.613.7-1.61v-.105q0-.963-.718-1.47-.7-.508-2.292-.735-.928-.123-1.68-.368-.735-.262-1.26-.665-.525-.42-.805-.997-.28-.578-.28-1.365v-.21q0-.718.297-1.313.298-.595.823-1.032.542-.438 1.277-.665.753-.245 1.645-.245 1.033 0 1.838.297.822.298 1.382.805.56.49.84 1.173.298.665.298 1.4v.735h-1.47v-.63zM205.641 69.26h8.61v1.365h-3.57V81.51h-1.47V70.625h-3.57V69.26zM217.915 69.26v8.12q0 1.487.682 2.257.7.753 2.048.753 1.347 0 2.03-.753.7-.77.7-2.257v-8.12h1.47v8.12q0 2.135-1.12 3.255t-3.08 1.12q-1.96 0-3.08-1.12t-1.12-3.255v-8.12h1.47zM226.46 69.26h1.575l3.203 11.62h.21l3.202-11.62h1.575l-3.465 12.25h-2.835l-3.465-12.25zM245.961 81.51h-2.677l-1.138-11.62h-.21L240.8 81.51h-2.678l-1.242-12.25h1.33l1.172 11.62h.21l1.103-11.62h2.695l1.102 11.62h.21l1.173-11.62h1.33l-1.243 12.25zM249.834 69.26l2.748 5.425h.315l2.747-5.425h1.61l-3.062 6.002v.21l3.062 6.038h-1.61l-2.747-5.46h-.315l-2.748 5.46h-1.61l3.063-6.038v-.21l-3.063-6.002h1.61zM262.703 77.205h-.315l-3.833-7.945h1.645l3.133 6.685h.21l3.132-6.685h1.645l-3.832 7.945h-.315v4.305h-1.47v-4.305zM270.128 69.26h8.19v2.205l-7.35 8.47v.21h7.56v1.365h-8.82v-2.205l7.35-8.47v-.21h-6.93V69.26zM11.037 99.15q0 1.085-.367 1.925-.35.822-.945 1.4-.595.56-1.4.857-.788.298-1.645.298-.875 0-1.663-.298-.787-.297-1.382-.857-.595-.578-.963-1.4-.35-.84-.35-1.925v-.21q0-1.068.35-1.89.368-.84.963-1.418.612-.577 1.4-.875.787-.297 1.645-.297.857 0 1.645.297.787.298 1.382.875.613.578.963 1.418.367.822.367 1.89v.21zm-4.357 3.185q.63 0 1.155-.21.542-.228.945-.648.402-.42.63-.997.227-.595.227-1.33v-.21q0-.7-.227-1.278-.228-.595-.63-1.015-.403-.42-.945-.647-.543-.245-1.155-.245-.613 0-1.155.245-.543.227-.945.647-.403.42-.63 1.015-.228.578-.228 1.278v.21q0 .735.228 1.33.227.577.63.997.402.42.927.648.543.21 1.173.21zM13.073 95.895q0-2.38 1.138-3.693 1.137-1.312 3.167-1.312t3.168 1.312q1.137 1.313 1.137 3.693v2.73q0 2.45-1.137 3.727-1.138 1.278-3.168 1.278-2.03 0-3.167-1.278-1.138-1.277-1.138-3.727v-2.73zm4.305 6.37q1.418 0 2.118-.963.717-.98.717-2.782V96q0-1.68-.717-2.713-.7-1.032-2.118-1.032-1.417 0-2.135 1.032-.7 1.033-.7 2.713v2.52q0 1.802.7 2.782.718.963 2.135.963zM23.771 95.895q0-2.38 1.138-3.693 1.137-1.312 3.167-1.312t3.168 1.312q1.137 1.313 1.137 3.693v2.73q0 2.45-1.137 3.727-1.138 1.278-3.168 1.278-2.03 0-3.167-1.278-1.138-1.277-1.138-3.727v-2.73zm4.305 6.405q1.418 0 2.118-.98.717-.998.717-2.8V96q0-.84-.175-1.523-.175-.7-.542-1.19-.35-.507-.893-.787-.525-.28-1.225-.28-.717 0-1.242.28t-.893.787q-.35.49-.525 1.19-.175.683-.175 1.523v2.52q0 1.802.7 2.8.718.98 2.135.98zm-1.12-5.04q0-.455.333-.788.332-.332.787-.332t.788.332q.332.333.332.788t-.332.787q-.333.333-.788.333t-.787-.333q-.333-.332-.333-.787zM38.617 103.63q-.928 0-1.68-.245-.753-.263-1.295-.7-.543-.455-.84-1.05-.28-.613-.28-1.33v-.21q0-.63.192-1.12.193-.49.508-.858.315-.367.717-.612.42-.245.858-.368v-.21q-.403-.122-.753-.367t-.63-.578q-.262-.332-.42-.752-.157-.438-.157-.945v-.21q0-.7.28-1.278.28-.595.787-1.015.525-.42 1.225-.647.718-.245 1.593-.245h.105q.857 0 1.575.245.717.227 1.225.647.525.42.805 1.015.28.578.28 1.278v.21q0 .507-.158.945-.157.42-.437.752-.263.333-.63.578-.35.245-.735.367v.21q.437.123.84.368.42.245.735.612.315.368.507.858.193.49.193 1.12v.21q0 .717-.298 1.33-.28.595-.822 1.05-.543.437-1.295.7-.753.245-1.68.245h-.315zm.262-1.33q1.19 0 1.925-.613.753-.612.753-1.592v-.105q0-1.085-.77-1.68-.753-.595-1.96-.595h-.105q-1.208 0-1.978.595-.752.595-.752 1.68v.105q0 .98.735 1.592.752.613 1.942.613h.21zm-.105-5.95q1.103 0 1.785-.578.683-.577.683-1.452v-.105q0-.893-.683-1.435-.665-.56-1.785-.56-1.12 0-1.802.56-.665.542-.665 1.435v.105q0 .875.682 1.452.683.578 1.785.578zM59.033 92.115q0-.508.35-.858.368-.367.875-.367.508 0 .858.367.367.35.367.858 0 .507-.367.875-.35.35-.858.35-.507 0-.875-.35-.35-.368-.35-.875zm-2.485 10.01h3.045v-6.16h-2.73v-1.26h4.095v7.42h2.835v1.26h-7.245v-1.26zM66.984 91.135h7.77V92.5h-3.15v9.52h3.15v1.365h-7.77v-1.365h3.15V92.5h-3.15v-1.365zM77.735 102.125h3.15v-9.73H77.84v-1.26h4.41v10.99h3.15v1.26h-7.665v-1.26zM88.433 91.135h1.47v10.885h6.405v1.365h-7.875v-12.25zM102.316 102.02V91.782h-.21l-2.012 4.603H98.64v-.105l2.293-5.145h2.852v10.885h3.465v1.365h-8.4v-1.365h3.465zM123.87 89.77q0-.595.368-.98.385-.385.98-.385h1.697v1.26h-1.207q-.473 0-.473.525v5.6q0 .595-.385.98-.367.385-.98.385h-.21v.21h.21q.613 0 .98.385.385.385.385.98v5.6q0 .525.473.525h1.207v1.26h-1.697q-.595 0-.98-.385-.368-.385-.368-.98v-6.038q0-.507-.472-.507h-.893v-1.89h.893q.472 0 .472-.508V89.77zM135.549 95.807q0 .508.472.508h.893v1.89h-.893q-.472 0-.472.507v6.038q0 .595-.385.98-.368.385-.963.385h-1.697v-1.26h1.207q.473 0 .473-.525v-5.6q0-.595.367-.98.385-.385.998-.385h.21v-.21h-.21q-.613 0-.998-.385-.367-.385-.367-.98v-5.6q0-.525-.473-.525h-1.207v-1.26h1.697q.595 0 .963.385.385.385.385.98v6.037zM155.72 89.77q0-.595.368-.98.385-.385.98-.385h1.697v1.26h-1.207q-.473 0-.473.525v14.14q0 .525.473.525h1.207v1.26h-1.697q-.595 0-.98-.385-.368-.385-.368-.98V89.77zM167.888 104.75q0 .595-.385.98-.367.385-.962.385h-1.698v-1.26h1.208q.472 0 .472-.525V90.19q0-.525-.472-.525h-1.208v-1.26h1.698q.595 0 .962.385.385.385.385.98v14.98zM191.315 102.055h-.21q-.42.787-1.155 1.19-.718.385-1.575.385-.875 0-1.645-.298-.77-.297-1.365-.857-.578-.56-.928-1.383-.332-.84-.332-1.907v-.28q0-1.05.35-1.873.35-.84.927-1.4.578-.577 1.348-.875.77-.297 1.61-.297.945 0 1.645.42.717.402 1.12 1.19h.21v-1.365h1.365v10.815q0 .595-.385.98-.368.385-.963.385h-5.652v-1.26h5.162q.473 0 .473-.525v-3.045zm-2.905.28q.612 0 1.137-.228.525-.227.91-.647.403-.42.63-.998.228-.595.228-1.312v-.21q0-.7-.228-1.278-.227-.595-.63-1.015-.385-.42-.927-.647-.525-.245-1.12-.245-.613 0-1.155.227-.525.228-.928.648-.385.42-.612.997-.21.578-.21 1.278v.28q0 .735.21 1.312.227.578.612.998.403.402.928.63.525.21 1.155.21zM196.676 99.815q0 1.137.7 1.837.7.683 1.942.683.595 0 1.085-.21.508-.21.858-.595.367-.403.56-.928.21-.542.21-1.207v-1.82h-.21q-.403.77-1.155 1.207-.753.438-1.75.438-.858 0-1.575-.263-.718-.262-1.243-.77-.525-.525-.822-1.26-.28-.735-.28-1.68v-.21q0-.91.315-1.662.315-.77.875-1.313.577-.56 1.347-.857.788-.315 1.715-.315.928 0 1.698.315.787.297 1.347.84.578.542.893 1.295.315.752.315 1.645v4.41q0 .98-.333 1.767-.315.77-.892 1.33-.56.543-1.33.84-.77.298-1.663.298-.892 0-1.645-.263-.752-.262-1.295-.752-.542-.508-.84-1.208-.297-.717-.297-1.592h1.47zm2.572-7.63q-.63 0-1.155.21-.507.21-.875.595-.367.385-.56.91-.192.507-.192 1.102v.21q0 .613.21 1.12.21.49.577.858.368.35.875.542.508.193 1.12.193.595 0 1.103-.193.507-.21.875-.56.385-.35.595-.84.21-.49.21-1.05v-.332q0-.578-.193-1.085-.192-.508-.56-.875-.367-.385-.892-.595-.508-.21-1.138-.21zM212.764 102.055h-.21q-.228.402-.56.7-.315.28-.7.49-.368.192-.788.28-.402.105-.787.105-.875 0-1.628-.298-.752-.297-1.33-.857-.56-.56-.892-1.383-.315-.84-.315-1.907v-.28q0-1.05.332-1.873.333-.84.893-1.4.56-.577 1.312-.875.753-.297 1.593-.297.892 0 1.645.42.77.402 1.225 1.19h.21v-1.365h1.365v12.18h-1.365v-4.83zm-2.905.28q.612 0 1.137-.228.525-.227.91-.647.403-.42.63-.998.228-.595.228-1.312v-.21q0-.7-.228-1.278-.227-.595-.63-1.015-.385-.42-.927-.647-.525-.245-1.12-.245-.613 0-1.155.227-.525.228-.928.648-.385.42-.612.997-.21.578-.21 1.278v.28q0 .735.21 1.312.227.578.612.998.403.402.928.63.525.21 1.155.21zM220.715 102.265q.752 0 1.277-.245.543-.263.875-.683.35-.437.508-.98.175-.56.175-1.172v-.21h1.47v.21q0 .927-.28 1.75-.28.805-.823 1.417-.542.595-1.347.945-.805.333-1.855.333-2.03 0-3.168-1.278-1.137-1.277-1.137-3.727v-2.73q0-2.38 1.137-3.693 1.138-1.312 3.168-1.312 1.05 0 1.855.35.805.332 1.347.945.543.595.823 1.417.28.805.28 1.733v.21h-1.47v-.21q-.018-.595-.193-1.155-.157-.56-.507-.98-.333-.438-.858-.683-.525-.262-1.277-.262-1.418 0-2.135 1.032-.7 1.033-.7 2.713v2.52q0 1.802.7 2.782.717.963 2.135.963zM230.17 97.505h5.46v5.88h-1.365v-1.47h-.21q-.297.77-1.05 1.242-.752.473-1.75.473-1.977 0-3.115-1.278-1.12-1.277-1.12-3.727v-2.73q0-2.38 1.138-3.693 1.137-1.312 3.167-1.312 1.05 0 1.855.35.805.332 1.348.945.542.595.822 1.417.28.805.28 1.733v.21h-1.47v-.21q0-.595-.175-1.155-.157-.56-.507-.98-.333-.438-.875-.683-.525-.262-1.278-.262-1.417 0-2.135 1.032-.7 1.033-.7 2.713v2.52q0 1.802.7 2.782.718.963 2.17.963 1.313 0 2.048-.84.752-.84.752-2.345v-.21h-3.99v-1.365zM237.736 95.895q0-2.38 1.138-3.693 1.137-1.312 3.167-1.312t3.168 1.312q1.137 1.313 1.137 3.693v2.73q0 2.24-.962 3.517-.945 1.26-2.66 1.453v.735q0 .525.472.525h1.47v1.26h-1.96q-.595 0-.98-.385-.367-.385-.367-.98v-1.155q-1.733-.21-2.678-1.47-.945-1.26-.945-3.5v-2.73zm4.305 6.37q1.418 0 2.118-.963.717-.98.717-2.782V96q0-1.68-.717-2.713-.7-1.032-2.118-1.032-1.417 0-2.135 1.032-.7 1.033-.7 2.713v2.52q0 1.802.7 2.782.718.963 2.135.963zM263.998 97.855q.035.14.122.297.088.14.28.14.14 0 .35-.157l2.258-1.663.665.875-2.153 1.645q-.245.193-.525.333-.262.14-.665.14-.682 0-.98-.35-.297-.368-.49-.98-.035-.158-.122-.315-.07-.175-.28-.175-.158 0-.403.192l-2.205 1.628-.665-.875 2.153-1.645q.262-.21.542-.333.28-.14.648-.14.665 0 .962.385.315.368.508.998zM271.51 98.205h5.25v1.26h-5.25v-1.26zM281.177 96.63h3.027v-3.028h1.26v3.028h3.028v1.26h-3.028v3.027h-1.26V97.89h-3.027v-1.26zM291.875 95.37h7.315v1.26h-7.315v-1.26zm0 2.52h7.315v1.26h-7.315v-1.26zM302.573 101.11v-1.47l6.79-2.275v-.21l-6.79-2.275v-1.47l7.315 2.52v2.66l-7.315 2.52z"/></g></g></svg>