<?xml version="1.0" encoding="UTF-8" standalone="no"?>
<svg
   xmlns:dc="http://purl.org/dc/elements/1.1/"
   xmlns:cc="http://creativecommons.org/ns#"
   xmlns:rdf="http://www.w3.org/1999/02/22-rdf-syntax-ns#"
   xmlns:svg="http://www.w3.org/2000/svg"
   xmlns="http://www.w3.org/2000/svg"
   xmlns:sodipodi="http://sodipodi.sourceforge.net/DTD/sodipodi-0.dtd"
   xmlns:inkscape="http://www.inkscape.org/namespaces/inkscape"
   width="88.902809mm"
   height="30.165329mm"
   viewBox="0 0 315.00975 106.885"
   id="svg2"
   version="1.1"
   inkscape:version="0.91 r13725"
   sodipodi:docname="SpaceMono Nerd Font.svg">
  <metadata
     id="metadata22">
    <rdf:RDF>
      <cc:Work
         rdf:about="">
        <dc:format>image/svg+xml</dc:format>
        <dc:type
           rdf:resource="http://purl.org/dc/dcmitype/StillImage" />
      </cc:Work>
    </rdf:RDF>
  </metadata>
  <defs
     id="defs20" />
  <sodipodi:namedview
     pagecolor="#ffffff"
     bordercolor="#666666"
     borderopacity="1"
     objecttolerance="10"
     gridtolerance="10"
     guidetolerance="10"
     inkscape:pageopacity="0"
     inkscape:pageshadow="2"
     inkscape:window-width="640"
     inkscape:window-height="480"
     id="namedview18"
     showgrid="false"
     inkscape:zoom="0.22425739"
     inkscape:cx="307.95256"
     inkscape:cy="-337.99707"
     inkscape:window-x="69"
     inkscape:window-y="34"
     inkscape:window-maximized="0"
     inkscape:current-layer="svg2" />
  <g
     font-weight="400"
     font-size="27.5"
     letter-spacing="0"
     word-spacing="0"
     id="g4"
     style="font-weight:400;font-size:27.5px;font-family:'SpaceMono Nerd Font';letter-spacing:0;word-spacing:0;fill:#ffffff"
     transform="translate(-64.094681,-81.298998)">
    <g
       style="line-height:125%;text-decoration: underline;text-decoration-line: underline"
       id="text6">
      <path
         d="m 75.809498,87.238998 q 0,-0.935 -0.385,-1.65 -0.3575,-0.715 -0.99,-1.1825 -0.6325,-0.4675 -1.4575,-0.715 -0.825,-0.2475 -1.7325,-0.2475 -0.7975,0 -1.5125,0.22 -0.715,0.1925 -1.2925,0.5775 -0.55,0.385 -0.88,0.9625 -0.33,0.55 -0.33,1.2925 l 0,0.165 q 0,0.7975 0.33,1.375 0.33,0.55 0.9625,0.9625 0.66,0.385 1.6225,0.66 0.9625,0.2475 2.255,0.44 3.025,0.4675 4.455,1.7875 1.43,1.2925 1.43,3.4925 l 0,0.33 q 0,1.2375 -0.44,2.2825 -0.4125,1.0175 -1.265,1.76 -0.825,0.742502 -2.0625,1.155002 -1.2375,0.4125 -2.86,0.4125 -1.8425,0 -3.2725,-0.5225 -1.4025,-0.55 -2.365,-1.485002 -0.935,-0.9625 -1.43,-2.2275 -0.495,-1.2925 -0.495,-2.805 l 0,-0.825 2.31,0 0,0.66 q 0,2.53 1.375,3.795 1.4025,1.265 3.8775,1.265 2.145,0 3.2175,-0.935 1.1,-0.9625 1.1,-2.53 l 0,-0.165 q 0,-1.5125 -1.1275,-2.31 -1.1,-0.7975 -3.6025,-1.155 -1.4575,-0.1925 -2.64,-0.5775 -1.155,-0.4125 -1.98,-1.045 -0.825,-0.66 -1.265,-1.5675 -0.44,-0.9075 -0.44,-2.145 l 0,-0.33 q 0,-1.1275 0.4675,-2.0625 0.4675,-0.935 1.2925,-1.6225 0.8525,-0.6875 2.0075,-1.045 1.1825,-0.385 2.585,-0.385 1.6225,0 2.8875,0.4675 1.2925,0.4675 2.1725,1.265 0.88,0.77 1.32,1.8425 0.4675,1.045 0.4675,2.2 l 0,1.155 -2.31,0 0,-0.99 z"
         id="path4151"
         inkscape:connector-curvature="0" />
      <path
         d="m 83.711022,106.434 -2.145,0 0,-19.140002 2.145,0 0,2.145 0.33,0 q 0.715,-1.2375 1.98,-1.87 1.265,-0.66 2.75,-0.66 1.265,0 2.3925,0.4675 1.1275,0.4675 1.98,1.3475 0.88,0.88 1.375,2.1725 0.5225,1.2925 0.5225,2.9425 l 0,0.55 q 0,1.6775 -0.495,2.97 -0.495,1.2925 -1.375,2.1725 -0.8525,0.880002 -2.0075,1.347502 -1.155,0.44 -2.4475,0.44 -0.66,0 -1.3475,-0.165 -0.6875,-0.1375 -1.32,-0.44 -0.605,-0.33 -1.1275,-0.770002 -0.5225,-0.4675 -0.88,-1.1 l -0.33,0 0,7.590002 z m 4.565,-7.150002 q 0.99,0 1.815,-0.33 0.825,-0.3575 1.43,-0.99 0.6325,-0.6325 0.9625,-1.54 0.3575,-0.9075 0.3575,-2.035 l 0,-0.55 q 0,-1.1 -0.3575,-1.98 -0.33,-0.9075 -0.9625,-1.54 -0.605,-0.66 -1.4575,-1.0175 -0.825,-0.3575 -1.7875,-0.3575 -0.9625,0 -1.7875,0.385 -0.825,0.3575 -1.4575,1.0175 -0.605,0.66 -0.9625,1.595 -0.3575,0.9075 -0.3575,2.0075 l 0,0.33 q 0,1.1275 0.3575,2.0625 0.3575,0.9075 0.9625,1.5675 0.6325,0.66 1.4575,1.0175 0.825,0.3575 1.7875,0.3575 z"
         id="path4153"
         inkscape:connector-curvature="0" />
      <path
         d="m 108.77255,98.623998 -0.33,0 q -0.66,1.375 -1.8425,2.035002 -1.155,0.66 -2.4475,0.66 -1.3475,0 -2.5025,-0.44 -1.155,-0.4675 -2.035005,-1.347502 -0.8525,-0.9075 -1.3475,-2.2 -0.495,-1.2925 -0.495,-2.9975 l 0,-0.44 q 0,-1.6775 0.495,-2.97 0.495,-1.2925 1.3475,-2.1725 0.880005,-0.9075 2.035005,-1.375 1.155,-0.4675 2.4475,-0.4675 1.4025,0 2.53,0.6325 1.155,0.605 1.815,1.8975 l 0.33,0 0,-2.145 2.145,0 0,10.835 q 0,0.825 0.7425,0.825 l 0.6875,0 0,1.980002 -1.4575,0 q -0.935,0 -1.54,-0.605 -0.5775,-0.605002 -0.5775,-1.540002 l 0,-0.165 z m -4.4,0.66 q 0.9625,0 1.76,-0.3575 0.825,-0.3575 1.4025,-1.0175 0.5775,-0.66 0.9075,-1.5675 0.33,-0.935 0.33,-2.0625 l 0,-0.33 q 0,-1.1 -0.33,-2.0075 -0.33,-0.935 -0.935,-1.595 -0.5775,-0.66 -1.4025,-1.0175 -0.7975,-0.385 -1.7325,-0.385 -0.9625,0 -1.76,0.3575 -0.7975,0.3575 -1.4025,1.0175 -0.5775,0.6325 -0.9075,1.5675 -0.330005,0.9075 -0.330005,2.0075 l 0,0.44 q 0,2.3375 1.210005,3.6575 1.2375,1.2925 3.19,1.2925 z"
         id="path4155"
         inkscape:connector-curvature="0" />
      <path
         d="m 128.44407,96.093998 q -0.22,1.1275 -0.77,2.09 -0.5225,0.9625 -1.3475,1.6775 -0.825,0.687502 -1.925,1.072502 -1.1,0.385 -2.4475,0.385 -1.43,0 -2.7225,-0.4675 -1.265,-0.4675 -2.2275,-1.347502 -0.9625,-0.9075 -1.54,-2.2 -0.55,-1.2925 -0.55,-2.97 l 0,-0.33 q 0,-1.65 0.55,-2.97 0.5775,-1.32 1.54,-2.2275 0.9625,-0.9075 2.2275,-1.4025 1.2925,-0.495 2.7225,-0.495 1.2925,0 2.3925,0.385 1.1,0.385 1.925,1.1 0.8525,0.6875 1.375,1.65 0.55,0.9625 0.7425,2.09 l -2.145,0.495 q -0.0825,-0.715 -0.4125,-1.375 -0.3025,-0.6875 -0.8525,-1.1825 -0.5225,-0.5225 -1.2925,-0.825 -0.77,-0.3025 -1.7875,-0.3025 -0.99,0 -1.87,0.385 -0.8525,0.3575 -1.5125,1.045 -0.66,0.66 -1.045,1.595 -0.3575,0.935 -0.3575,2.035 l 0,0.33 q 0,1.155 0.3575,2.09 0.385,0.9075 1.045,1.54 0.66,0.6325 1.54,0.99 0.88,0.33 1.8975,0.33 1.0175,0 1.76,-0.3025 0.77,-0.33 1.2925,-0.825 0.55,-0.5225 0.8525,-1.1825 0.33,-0.66 0.44,-1.375 l 2.145,0.495 z"
         id="path4157"
         inkscape:connector-curvature="0" />
      <path
         d="m 134.06309,94.773998 q 0.0825,2.035 1.265,3.2725 1.1825,1.2375 3.3,1.2375 0.9625,0 1.6775,-0.22 0.715,-0.22 1.21,-0.605 0.5225,-0.385 0.825,-0.88 0.33,-0.5225 0.5225,-1.1 l 2.035,0.55 q -0.5775,1.8975 -2.145,3.107502 -1.54,1.1825 -4.18,1.1825 -1.4575,0 -2.695,-0.495 -1.21,-0.5225 -2.09,-1.457502 -0.88,-0.935 -1.375,-2.2275 -0.495,-1.2925 -0.495,-2.86 l 0,-0.66 q 0,-1.43 0.495,-2.6675 0.5225,-1.2375 1.43,-2.1175 0.9075,-0.9075 2.1175,-1.4025 1.2375,-0.5225 2.6675,-0.5225 1.6775,0 2.8875,0.6325 1.2375,0.605 2.0075,1.5125 0.7975,0.9075 1.155,1.98 0.385,1.0725 0.385,1.98 l 0,1.76 -11,0 z m 4.565,-5.83 q -0.9075,0 -1.705,0.3025 -0.77,0.275 -1.375,0.7975 -0.5775,0.5225 -0.9625,1.2375 -0.3575,0.6875 -0.4675,1.5125 l 8.8,0 q -0.055,-0.88 -0.44,-1.595 -0.3575,-0.715 -0.9625,-1.21 -0.5775,-0.495 -1.3475,-0.77 -0.7425,-0.275 -1.54,-0.275 z"
         id="path4159"
         inkscape:connector-curvature="0" />
      <path
         d="m 148.17962,81.683998 4.4,0 2.585,18.26 0.33,0 2.585,-18.26 4.4,0 0,19.250002 -2.145,0 0,-18.260002 -0.33,0 -2.585,18.260002 -4.18,0 -2.585,-18.260002 -0.33,0 0,18.260002 -2.145,0 0,-19.250002 z"
         id="path4161"
         inkscape:connector-curvature="0" />
      <path
         d="m 178.98864,94.278998 q 0,1.705 -0.5775,3.025 -0.55,1.2925 -1.485,2.2 -0.935,0.880002 -2.2,1.347502 -1.2375,0.4675 -2.585,0.4675 -1.375,0 -2.6125,-0.4675 -1.2375,-0.4675 -2.1725,-1.347502 -0.935,-0.9075 -1.5125,-2.2 -0.55,-1.32 -0.55,-3.025 l 0,-0.33 q 0,-1.6775 0.55,-2.97 0.5775,-1.32 1.5125,-2.2275 0.9625,-0.9075 2.2,-1.375 1.2375,-0.4675 2.585,-0.4675 1.3475,0 2.585,0.4675 1.2375,0.4675 2.1725,1.375 0.9625,0.9075 1.5125,2.2275 0.5775,1.2925 0.5775,2.97 l 0,0.33 z m -6.8475,5.005 q 0.99,0 1.815,-0.33 0.8525,-0.3575 1.485,-1.0175 0.6325,-0.66 0.99,-1.5675 0.3575,-0.935 0.3575,-2.09 l 0,-0.33 q 0,-1.1 -0.3575,-2.0075 -0.3575,-0.935 -0.99,-1.595 -0.6325,-0.66 -1.485,-1.0175 -0.8525,-0.385 -1.815,-0.385 -0.9625,0 -1.815,0.385 -0.8525,0.3575 -1.485,1.0175 -0.6325,0.66 -0.99,1.595 -0.3575,0.9075 -0.3575,2.0075 l 0,0.33 q 0,1.155 0.3575,2.09 0.3575,0.9075 0.99,1.5675 0.6325,0.66 1.4575,1.0175 0.8525,0.33 1.8425,0.33 z"
         id="path4163"
         inkscape:connector-curvature="0" />
      <path
         d="m 185.07516,100.934 -2.145,0 0,-13.640002 2.145,0 0,2.31 0.33,0 q 1.265,-2.695 4.4,-2.695 2.365,0 3.7675,1.485 1.4025,1.4575 1.4025,4.4 l 0,8.140002 -2.145,0 0,-7.700002 q 0,-2.145 -0.9625,-3.2175 -0.9625,-1.0725 -2.6125,-1.0725 -1.9525,0 -3.08,1.3475 -1.1,1.32 -1.1,3.5475 l 0,7.095002 z"
         id="path4165"
         inkscape:connector-curvature="0" />
      <path
         d="m 212.61169,94.278998 q 0,1.705 -0.5775,3.025 -0.55,1.2925 -1.485,2.2 -0.935,0.880002 -2.2,1.347502 -1.2375,0.4675 -2.585,0.4675 -1.375,0 -2.6125,-0.4675 -1.2375,-0.4675 -2.1725,-1.347502 -0.935,-0.9075 -1.5125,-2.2 -0.55,-1.32 -0.55,-3.025 l 0,-0.33 q 0,-1.6775 0.55,-2.97 0.5775,-1.32 1.5125,-2.2275 0.9625,-0.9075 2.2,-1.375 1.2375,-0.4675 2.585,-0.4675 1.3475,0 2.585,0.4675 1.2375,0.4675 2.1725,1.375 0.9625,0.9075 1.5125,2.2275 0.5775,1.2925 0.5775,2.97 l 0,0.33 z m -6.8475,5.005 q 0.99,0 1.815,-0.33 0.8525,-0.3575 1.485,-1.0175 0.6325,-0.66 0.99,-1.5675 0.3575,-0.935 0.3575,-2.09 l 0,-0.33 q 0,-1.1 -0.3575,-2.0075 -0.3575,-0.935 -0.99,-1.595 -0.6325,-0.66 -1.485,-1.0175 -0.8525,-0.385 -1.815,-0.385 -0.9625,0 -1.815,0.385 -0.8525,0.3575 -1.485,1.0175 -0.6325,0.66 -0.99,1.595 -0.3575,0.9075 -0.3575,2.0075 l 0,0.33 q 0,1.155 0.3575,2.09 0.3575,0.9075 0.99,1.5675 0.6325,0.66 1.4575,1.0175 0.8525,0.33 1.8425,0.33 z"
         id="path4167"
         inkscape:connector-curvature="0" />
      <path
         d="m 243.15473,99.943998 0.33,0 0,-18.26 2.31,0 0,19.250002 -4.62,0 -5.555,-18.260002 -0.33,0 0,18.260002 -2.31,0 0,-19.250002 4.62,0 5.555,18.26 z"
         id="path4169"
         inkscape:connector-curvature="0" />
      <path
         d="m 251.74376,94.773998 q 0.0825,2.035 1.265,3.2725 1.1825,1.2375 3.3,1.2375 0.9625,0 1.6775,-0.22 0.715,-0.22 1.21,-0.605 0.5225,-0.385 0.825,-0.88 0.33,-0.5225 0.5225,-1.1 l 2.035,0.55 q -0.5775,1.8975 -2.145,3.107502 -1.54,1.1825 -4.18,1.1825 -1.4575,0 -2.695,-0.495 -1.21,-0.5225 -2.09,-1.457502 -0.88,-0.935 -1.375,-2.2275 -0.495,-1.2925 -0.495,-2.86 l 0,-0.66 q 0,-1.43 0.495,-2.6675 0.5225,-1.2375 1.43,-2.1175 0.9075,-0.9075 2.1175,-1.4025 1.2375,-0.5225 2.6675,-0.5225 1.6775,0 2.8875,0.6325 1.2375,0.605 2.0075,1.5125 0.7975,0.9075 1.155,1.98 0.385,1.0725 0.385,1.98 l 0,1.76 -11,0 z m 4.565,-5.83 q -0.9075,0 -1.705,0.3025 -0.77,0.275 -1.375,0.7975 -0.5775,0.5225 -0.9625,1.2375 -0.3575,0.6875 -0.4675,1.5125 l 8.8,0 q -0.055,-0.88 -0.44,-1.595 -0.3575,-0.715 -0.9625,-1.21 -0.5775,-0.495 -1.3475,-0.77 -0.7425,-0.275 -1.54,-0.275 z"
         id="path4171"
         inkscape:connector-curvature="0" />
      <path
         d="m 266.21778,87.293998 4.95,0 0,1.815 0.33,0 q 0.5225,-1.1275 1.485,-1.65 0.9625,-0.55 2.2,-0.55 2.0625,0 3.3275,1.3475 1.265,1.3475 1.3475,3.9325 l -2.255,0.33 q 0,-1.8975 -0.9075,-2.7225 -0.9075,-0.8525 -2.2275,-0.8525 -0.8525,0 -1.485,0.33 -0.605,0.33 -1.0175,0.9075 -0.4125,0.5775 -0.605,1.3475 -0.1925,0.77 -0.1925,1.65 l 0,5.775 3.465,0 0,1.980002 -8.745,0 0,-1.980002 3.135,0 0,-9.68 -2.805,0 0,-1.98 z"
         id="path4173"
         inkscape:connector-curvature="0" />
      <path
         d="m 294.3593,98.843998 -0.33,0 q -0.33,0.6325 -0.8525,1.1 -0.495,0.467502 -1.1,0.770002 -0.5775,0.3025 -1.2375,0.44 -0.66,0.165 -1.265,0.165 -1.375,0 -2.5575,-0.4675 -1.1825,-0.4675 -2.09,-1.347502 -0.88,-0.88 -1.4025,-2.1725 -0.495,-1.32 -0.495,-2.9975 l 0,-0.44 q 0,-1.65 0.5225,-2.9425 0.5225,-1.32 1.4025,-2.2 0.88,-0.9075 2.0625,-1.375 1.1825,-0.4675 2.5025,-0.4675 1.4025,0 2.6125,0.6325 1.2375,0.605 1.8975,1.8975 l 0.33,0 0,-7.755 2.145,0 0,19.250002 -2.145,0 0,-2.090002 z m -4.565,0.44 q 0.9625,0 1.7875,-0.3575 0.825,-0.3575 1.43,-1.0175 0.6325,-0.66 0.99,-1.5675 0.3575,-0.935 0.3575,-2.0625 l 0,-0.33 q 0,-1.1 -0.3575,-2.0075 -0.3575,-0.935 -0.99,-1.595 -0.605,-0.66 -1.4575,-1.0175 -0.825,-0.385 -1.76,-0.385 -0.9625,0 -1.815,0.3575 -0.825,0.3575 -1.4575,1.0175 -0.605,0.66 -0.9625,1.5675 -0.33,0.9075 -0.33,2.0075 l 0,0.44 q 0,1.155 0.33,2.0625 0.3575,0.9075 0.9625,1.5675 0.6325,0.6325 1.4575,0.99 0.825,0.33 1.815,0.33 z"
         id="path4175"
         inkscape:connector-curvature="0" />
      <path
         d="m 317.64235,81.683998 11.825,0 0,2.145 -9.515,0 0,6.38 9.35,0 0,2.145 -9.35,0 0,8.580002 -2.31,0 0,-19.250002 z"
         id="path4177"
         inkscape:connector-curvature="0" />
      <path
         d="m 347.10387,94.278998 q 0,1.705 -0.5775,3.025 -0.55,1.2925 -1.485,2.2 -0.935,0.880002 -2.2,1.347502 -1.2375,0.4675 -2.585,0.4675 -1.375,0 -2.6125,-0.4675 -1.2375,-0.4675 -2.1725,-1.347502 -0.935,-0.9075 -1.5125,-2.2 -0.55,-1.32 -0.55,-3.025 l 0,-0.33 q 0,-1.6775 0.55,-2.97 0.5775,-1.32 1.5125,-2.2275 0.9625,-0.9075 2.2,-1.375 1.2375,-0.4675 2.585,-0.4675 1.3475,0 2.585,0.4675 1.2375,0.4675 2.1725,1.375 0.9625,0.9075 1.5125,2.2275 0.5775,1.2925 0.5775,2.97 l 0,0.33 z m -6.8475,5.005 q 0.99,0 1.815,-0.33 0.8525,-0.3575 1.485,-1.0175 0.6325,-0.66 0.99,-1.5675 0.3575,-0.935 0.3575,-2.09 l 0,-0.33 q 0,-1.1 -0.3575,-2.0075 -0.3575,-0.935 -0.99,-1.595 -0.6325,-0.66 -1.485,-1.0175 -0.8525,-0.385 -1.815,-0.385 -0.9625,0 -1.815,0.385 -0.8525,0.3575 -1.485,1.0175 -0.6325,0.66 -0.99,1.595 -0.3575,0.9075 -0.3575,2.0075 l 0,0.33 q 0,1.155 0.3575,2.09 0.3575,0.9075 0.99,1.5675 0.6325,0.66 1.4575,1.0175 0.8525,0.33 1.8425,0.33 z"
         id="path4179"
         inkscape:connector-curvature="0" />
      <path
         d="m 353.1904,100.934 -2.145,0 0,-13.640002 2.145,0 0,2.31 0.33,0 q 1.265,-2.695 4.4,-2.695 2.365,0 3.7675,1.485 1.4025,1.4575 1.4025,4.4 l 0,8.140002 -2.145,0 0,-7.700002 q 0,-2.145 -0.9625,-3.2175 -0.9625,-1.0725 -2.6125,-1.0725 -1.9525,0 -3.08,1.3475 -1.1,1.32 -1.1,3.5475 l 0,7.095002 z"
         id="path4181"
         inkscape:connector-curvature="0" />
      <path
         d="m 367.38942,87.293998 4.29,0 0,-5.61 2.145,0 0,5.61 5.28,0 0,1.98 -5.28,0 0,8.855 q 0,0.825 0.7425,0.825 l 3.8775,0 0,1.980002 -4.6475,0 q -0.935,0 -1.54,-0.605 -0.5775,-0.605002 -0.5775,-1.540002 l 0,-9.515 -4.29,0 0,-1.98 z"
         id="path4183"
         inkscape:connector-curvature="0" />
    </g>
    <g
       style="line-height:125%"
       id="text10">
      <path
         d="m 73.241499,139.46401 -0.21,0 q -0.42,0.875 -1.1725,1.295 -0.735,0.42 -1.5575,0.42 -0.8575,0 -1.5925,-0.28 -0.735,-0.2975 -1.295,-0.8575 -0.5425,-0.5775 -0.8575,-1.4 -0.315,-0.8225 -0.315,-1.9075 l 0,-0.28 q 0,-1.0675 0.315,-1.89 0.315,-0.8225 0.8575,-1.3825 0.56,-0.5775 1.295,-0.875 0.735,-0.2975 1.5575,-0.2975 0.8925,0 1.61,0.4025 0.735,0.385 1.155,1.2075 l 0.21,0 0,-1.365 1.365,0 0,6.895 q 0,0.525 0.4725,0.525 l 0.4375,0 0,1.26 -0.9275,0 q -0.595,0 -0.98,-0.385 -0.3675,-0.385 -0.3675,-0.98 l 0,-0.105 z m -2.8,0.42 q 0.6125,0 1.12,-0.2275 0.525,-0.2275 0.8925,-0.6475 0.3675,-0.42 0.5775,-0.9975 0.21,-0.595 0.21,-1.3125 l 0,-0.21 q 0,-0.7 -0.21,-1.2775 -0.21,-0.595 -0.595,-1.015 -0.3675,-0.42 -0.8925,-0.6475 -0.5075,-0.245 -1.1025,-0.245 -0.6125,0 -1.12,0.2275 -0.5075,0.2275 -0.8925,0.6475 -0.3675,0.4025 -0.5775,0.9975 -0.21,0.5775 -0.21,1.2775 l 0,0.28 q 0,1.4875 0.77,2.3275 0.7875,0.8225 2.03,0.8225 z"
         style="font-size:17.5px"
         id="path4186"
         inkscape:connector-curvature="0" />
      <path
         d="m 78.689741,140.93401 -1.365,0 0,-12.25 1.365,0 0,4.935 0.21,0 q 0.455,-0.7875 1.26,-1.19 0.805,-0.42 1.75,-0.42 0.805,0 1.5225,0.2975 0.7175,0.2975 1.26,0.8575 0.56,0.56 0.875,1.3825 0.3325,0.8225 0.3325,1.8725 l 0,0.35 q 0,1.0675 -0.315,1.89 -0.315,0.8225 -0.875,1.3825 -0.5425,0.56 -1.2775,0.8575 -0.735,0.28 -1.5575,0.28 -0.42,0 -0.8575,-0.105 -0.4375,-0.0875 -0.84,-0.28 -0.385,-0.21 -0.7175,-0.49 -0.3325,-0.2975 -0.56,-0.7 l -0.21,0 0,1.33 z m 2.905,-1.05 q 0.63,0 1.155,-0.21 0.525,-0.2275 0.91,-0.63 0.4025,-0.4025 0.6125,-0.98 0.2275,-0.5775 0.2275,-1.295 l 0,-0.35 q 0,-0.7 -0.2275,-1.26 -0.21,-0.5775 -0.6125,-0.98 -0.385,-0.42 -0.9275,-0.6475 -0.525,-0.2275 -1.1375,-0.2275 -0.6125,0 -1.1375,0.245 -0.525,0.2275 -0.9275,0.6475 -0.385,0.42 -0.6125,1.015 -0.2275,0.5775 -0.2275,1.2775 l 0,0.21 q 0,0.7175 0.2275,1.3125 0.2275,0.5775 0.6125,0.9975 0.4025,0.42 0.9275,0.6475 0.525,0.2275 1.1375,0.2275 z"
         style="font-size:17.5px"
         id="path4188"
         inkscape:connector-curvature="0" />
      <path
         d="m 96.457983,137.85401 q -0.14,0.7175 -0.49,1.33 -0.3325,0.6125 -0.8575,1.0675 -0.525,0.4375 -1.225,0.6825 -0.7,0.245 -1.5575,0.245 -0.91,0 -1.7325,-0.2975 -0.805,-0.2975 -1.4175,-0.8575 -0.6125,-0.5775 -0.98,-1.4 -0.35,-0.8225 -0.35,-1.89 l 0,-0.21 q 0,-1.05 0.35,-1.89 0.3675,-0.84 0.98,-1.4175 0.6125,-0.5775 1.4175,-0.8925 0.8225,-0.315 1.7325,-0.315 0.8225,0 1.5225,0.245 0.7,0.245 1.225,0.7 0.5425,0.4375 0.875,1.05 0.35,0.6125 0.4725,1.33 l -1.365,0.315 q -0.0525,-0.455 -0.2625,-0.875 -0.1925,-0.4375 -0.5425,-0.7525 -0.3325,-0.3325 -0.8225,-0.525 -0.49,-0.1925 -1.1375,-0.1925 -0.63,0 -1.19,0.245 -0.5425,0.2275 -0.9625,0.665 -0.42,0.42 -0.665,1.015 -0.2275,0.595 -0.2275,1.295 l 0,0.21 q 0,0.735 0.2275,1.33 0.245,0.5775 0.665,0.98 0.42,0.4025 0.98,0.63 0.56,0.21 1.2075,0.21 0.6475,0 1.12,-0.1925 0.49,-0.21 0.8225,-0.525 0.35,-0.3325 0.5425,-0.7525 0.21,-0.42 0.28,-0.875 l 1.365,0.315 z"
         style="font-size:17.5px"
         id="path4190"
         inkscape:connector-curvature="0" />
      <path
         d="m 105.75623,139.60401 -0.21,0 q -0.21,0.4025 -0.5425,0.7 -0.315,0.2975 -0.7,0.49 -0.3675,0.1925 -0.7875,0.28 -0.42,0.105 -0.805,0.105 -0.875,0 -1.6275,-0.2975 -0.7525,-0.2975 -1.330005,-0.8575 -0.56,-0.56 -0.8925,-1.3825 -0.315,-0.84 -0.315,-1.9075 l 0,-0.28 q 0,-1.05 0.3325,-1.8725 0.3325,-0.84 0.8925,-1.4 0.560005,-0.5775 1.312505,-0.875 0.7525,-0.2975 1.5925,-0.2975 0.8925,0 1.6625,0.4025 0.7875,0.385 1.2075,1.2075 l 0.21,0 0,-4.935 1.365,0 0,12.25 -1.365,0 0,-1.33 z m -2.905,0.28 q 0.6125,0 1.1375,-0.2275 0.525,-0.2275 0.91,-0.6475 0.4025,-0.42 0.63,-0.9975 0.2275,-0.595 0.2275,-1.3125 l 0,-0.21 q 0,-0.7 -0.2275,-1.2775 -0.2275,-0.595 -0.63,-1.015 -0.385,-0.42 -0.9275,-0.6475 -0.525,-0.245 -1.12,-0.245 -0.6125,0 -1.155,0.2275 -0.525,0.2275 -0.9275,0.6475 -0.385,0.42 -0.6125,0.9975 -0.210005,0.5775 -0.210005,1.2775 l 0,0.28 q 0,0.735 0.210005,1.3125 0.2275,0.5775 0.6125,0.9975 0.4025,0.4025 0.9275,0.63 0.525,0.21 1.155,0.21 z"
         style="font-size:17.5px"
         id="path4192"
         inkscape:connector-curvature="0" />
      <path
         d="m 110.73197,137.01401 q 0.0525,1.295 0.805,2.0825 0.7525,0.7875 2.1,0.7875 0.6125,0 1.0675,-0.14 0.455,-0.14 0.77,-0.385 0.3325,-0.245 0.525,-0.56 0.21,-0.3325 0.3325,-0.7 l 1.295,0.35 q -0.3675,1.2075 -1.365,1.9775 -0.98,0.7525 -2.66,0.7525 -0.9275,0 -1.715,-0.315 -0.77,-0.3325 -1.33,-0.9275 -0.56,-0.595 -0.875,-1.4175 -0.315,-0.8225 -0.315,-1.82 l 0,-0.42 q 0,-0.91 0.315,-1.6975 0.3325,-0.7875 0.91,-1.3475 0.5775,-0.5775 1.3475,-0.8925 0.7875,-0.3325 1.6975,-0.3325 1.0675,0 1.8375,0.4025 0.7875,0.385 1.2775,0.9625 0.5075,0.5775 0.735,1.26 0.245,0.6825 0.245,1.26 l 0,1.12 -7,0 z m 2.905,-3.71 q -0.5775,0 -1.085,0.1925 -0.49,0.175 -0.875,0.5075 -0.3675,0.3325 -0.6125,0.7875 -0.2275,0.4375 -0.2975,0.9625 l 5.6,0 q -0.035,-0.56 -0.28,-1.015 -0.2275,-0.455 -0.6125,-0.77 -0.3675,-0.315 -0.8575,-0.49 -0.4725,-0.175 -0.98,-0.175 z"
         style="font-size:17.5px"
         id="path4194"
         inkscape:connector-curvature="0" />
      <path
         d="m 120.34521,132.25401 2.6775,0 0,-2.205 q 0,-0.595 0.3675,-0.98 0.385,-0.385 0.98,-0.385 l 3.43,0 0,1.26 -2.94,0 q -0.4725,0 -0.4725,0.525 l 0,1.785 3.6225,0 0,1.26 -3.6225,0 0,7.42 -1.365,0 0,-7.42 -2.6775,0 0,-1.26 z"
         style="font-size:17.5px"
         id="path4196"
         inkscape:connector-curvature="0" />
      <path
         d="m 137.72845,139.60401 -0.21,0 q -0.42,0.7875 -1.155,1.19 -0.7175,0.385 -1.575,0.385 -0.875,0 -1.645,-0.2975 -0.77,-0.2975 -1.365,-0.8575 -0.5775,-0.56 -0.9275,-1.3825 -0.3325,-0.84 -0.3325,-1.9075 l 0,-0.28 q 0,-1.05 0.35,-1.8725 0.35,-0.84 0.9275,-1.4 0.5775,-0.5775 1.3475,-0.875 0.77,-0.2975 1.61,-0.2975 0.945,0 1.645,0.42 0.7175,0.4025 1.12,1.19 l 0.21,0 0,-1.365 1.365,0 0,10.815 q 0,0.595 -0.385,0.98 -0.3675,0.385 -0.9625,0.385 l -5.6525,0 0,-1.26 5.1625,0 q 0.4725,0 0.4725,-0.525 l 0,-3.045 z m -2.905,0.28 q 0.6125,0 1.1375,-0.2275 0.525,-0.2275 0.91,-0.6475 0.4025,-0.42 0.63,-0.9975 0.2275,-0.595 0.2275,-1.3125 l 0,-0.21 q 0,-0.7 -0.2275,-1.2775 -0.2275,-0.595 -0.63,-1.015 -0.385,-0.42 -0.9275,-0.6475 -0.525,-0.245 -1.12,-0.245 -0.6125,0 -1.155,0.2275 -0.525,0.2275 -0.9275,0.6475 -0.385,0.42 -0.6125,0.9975 -0.21,0.5775 -0.21,1.2775 l 0,0.28 q 0,0.735 0.21,1.3125 0.2275,0.5775 0.6125,0.9975 0.4025,0.4025 0.9275,0.63 0.525,0.21 1.155,0.21 z"
         style="font-size:17.5px"
         id="path4198"
         inkscape:connector-curvature="0" />
      <path
         d="m 143.19419,140.93401 -1.365,0 0,-12.25 1.365,0 0,5.145 0.21,0 q 0.4025,-0.84 1.12,-1.33 0.735,-0.49 1.785,-0.49 1.4175,0 2.2925,0.945 0.8925,0.9275 0.8925,2.8 l 0,5.18 -1.365,0 0,-4.9 q 0,-1.365 -0.6125,-2.0475 -0.6125,-0.6825 -1.6625,-0.6825 -1.2425,0 -1.96,0.8575 -0.7,0.84 -0.7,2.2575 l 0,4.515 z"
         style="font-size:17.5px"
         id="path4200"
         inkscape:connector-curvature="0" />
      <path
         d="m 155.22244,129.66401 q 0,-0.5075 0.35,-0.8575 0.3675,-0.3675 0.875,-0.3675 0.5075,0 0.8575,0.3675 0.3675,0.35 0.3675,0.8575 0,0.5075 -0.3675,0.875 -0.35,0.35 -0.8575,0.35 -0.5075,0 -0.875,-0.35 -0.35,-0.3675 -0.35,-0.875 z m -2.485,10.01 3.045,0 0,-6.16 -2.73,0 0,-1.26 4.095,0 0,7.42 2.835,0 0,1.26 -7.245,0 0,-1.26 z"
         style="font-size:17.5px"
         id="path4202"
         inkscape:connector-curvature="0" />
      <path
         d="m 167.07568,129.66401 q 0,-0.5075 0.35,-0.8575 0.3675,-0.3675 0.875,-0.3675 0.5075,0 0.8575,0.3675 0.3675,0.35 0.3675,0.8575 0,0.5075 -0.3675,0.875 -0.35,0.35 -0.8575,0.35 -0.5075,0 -0.875,-0.35 -0.35,-0.3675 -0.35,-0.875 z m -2.905,2.59 4.83,0 0,10.815 q 0,0.595 -0.385,0.98 -0.3675,0.385 -0.9625,0.385 l -3.9025,0 0,-1.26 3.4125,0 q 0.4725,0 0.4725,-0.525 l 0,-9.135 -3.465,0 0,-1.26 z"
         style="font-size:17.5px"
         id="path4204"
         inkscape:connector-curvature="0" />
      <path
         d="m 176.16392,135.85901 0.2975,0 3.3075,-3.605 1.68,0 0,0.105 -3.605,3.9725 0,0.315 4.025,4.1825 0,0.105 -1.68,0 -3.6925,-3.815 -0.3325,0 0,3.815 -1.365,0 0,-12.25 1.365,0 0,7.175 z"
         style="font-size:17.5px"
         id="path4206"
         inkscape:connector-curvature="0" />
      <path
         d="m 184.62216,139.67401 3.15,0 0,-9.73 -3.045,0 0,-1.26 4.41,0 0,10.99 3.15,0 0,1.26 -7.665,0 0,-1.26 z"
         style="font-size:17.5px"
         id="path4208"
         inkscape:connector-curvature="0" />
      <path
         d="m 203.6679,140.93401 -1.365,0 0,-6.23 q 0,-0.6125 -0.28,-0.9975 -0.28,-0.4025 -0.8925,-0.4025 -0.5775,0 -0.945,0.4375 -0.35,0.42 -0.35,1.3125 l 0,5.88 -1.365,0 0,-6.3 q 0,-0.5775 -0.315,-0.945 -0.315,-0.385 -0.84,-0.385 -0.63,0 -0.98,0.455 -0.3325,0.455 -0.3325,1.19 l 0,5.985 -1.365,0 0,-8.68 1.365,0 0,0.945 0.21,0 q 0.2275,-0.6125 0.665,-0.8925 0.4375,-0.2975 1.0325,-0.2975 0.63,0 1.0325,0.3325 0.42,0.3325 0.5775,0.8575 l 0.21,0 q 0.595,-1.19 1.89,-1.19 0.98,0 1.505,0.63 0.5425,0.6125 0.5425,1.61 l 0,6.685 z"
         style="font-size:17.5px"
         id="path4210"
         inkscape:connector-curvature="0" />
      <path
         d="m 207.38365,140.93401 -1.365,0 0,-8.68 1.365,0 0,1.47 0.21,0 q 0.805,-1.715 2.8,-1.715 1.505,0 2.3975,0.945 0.8925,0.9275 0.8925,2.8 l 0,5.18 -1.365,0 0,-4.9 q 0,-1.365 -0.6125,-2.0475 -0.6125,-0.6825 -1.6625,-0.6825 -1.2425,0 -1.96,0.8575 -0.7,0.84 -0.7,2.2575 l 0,4.515 z"
         style="font-size:17.5px"
         id="path4212"
         inkscape:connector-curvature="0" />
      <path
         d="m 224.90689,136.69901 q 0,1.085 -0.3675,1.925 -0.35,0.8225 -0.945,1.4 -0.595,0.56 -1.4,0.8575 -0.7875,0.2975 -1.645,0.2975 -0.875,0 -1.6625,-0.2975 -0.7875,-0.2975 -1.3825,-0.8575 -0.595,-0.5775 -0.9625,-1.4 -0.35,-0.84 -0.35,-1.925 l 0,-0.21 q 0,-1.0675 0.35,-1.89 0.3675,-0.84 0.9625,-1.4175 0.6125,-0.5775 1.4,-0.875 0.7875,-0.2975 1.645,-0.2975 0.8575,0 1.645,0.2975 0.7875,0.2975 1.3825,0.875 0.6125,0.5775 0.9625,1.4175 0.3675,0.8225 0.3675,1.89 l 0,0.21 z m -4.3575,3.185 q 0.63,0 1.155,-0.21 0.5425,-0.2275 0.945,-0.6475 0.4025,-0.42 0.63,-0.9975 0.2275,-0.595 0.2275,-1.33 l 0,-0.21 q 0,-0.7 -0.2275,-1.2775 -0.2275,-0.595 -0.63,-1.015 -0.4025,-0.42 -0.945,-0.6475 -0.5425,-0.245 -1.155,-0.245 -0.6125,0 -1.155,0.245 -0.5425,0.2275 -0.945,0.6475 -0.4025,0.42 -0.63,1.015 -0.2275,0.5775 -0.2275,1.2775 l 0,0.21 q 0,0.735 0.2275,1.33 0.2275,0.5775 0.63,0.9975 0.4025,0.42 0.9275,0.6475 0.5425,0.21 1.1725,0.21 z"
         style="font-size:17.5px"
         id="path4214"
         inkscape:connector-curvature="0" />
      <path
         d="m 228.46513,144.43401 -1.365,0 0,-12.18 1.365,0 0,1.365 0.21,0 q 0.455,-0.7875 1.26,-1.19 0.805,-0.42 1.75,-0.42 0.805,0 1.5225,0.2975 0.7175,0.2975 1.26,0.8575 0.56,0.56 0.875,1.3825 0.3325,0.8225 0.3325,1.8725 l 0,0.35 q 0,1.0675 -0.315,1.89 -0.315,0.8225 -0.875,1.3825 -0.5425,0.56 -1.2775,0.8575 -0.735,0.28 -1.5575,0.28 -0.42,0 -0.8575,-0.105 -0.4375,-0.0875 -0.84,-0.28 -0.385,-0.21 -0.7175,-0.49 -0.3325,-0.2975 -0.56,-0.7 l -0.21,0 0,4.83 z m 2.905,-4.55 q 0.63,0 1.155,-0.21 0.525,-0.2275 0.91,-0.63 0.4025,-0.4025 0.6125,-0.98 0.2275,-0.5775 0.2275,-1.295 l 0,-0.35 q 0,-0.7 -0.2275,-1.26 -0.21,-0.5775 -0.6125,-0.98 -0.385,-0.42 -0.9275,-0.6475 -0.525,-0.2275 -1.1375,-0.2275 -0.6125,0 -1.1375,0.245 -0.525,0.2275 -0.9275,0.6475 -0.385,0.42 -0.6125,1.015 -0.2275,0.5775 -0.2275,1.2775 l 0,0.21 q 0,0.7175 0.2275,1.3125 0.2275,0.5775 0.6125,0.9975 0.4025,0.42 0.9275,0.6475 0.525,0.2275 1.1375,0.2275 z"
         style="font-size:17.5px"
         id="path4216"
         inkscape:connector-curvature="0" />
      <path
         d="m 244.76337,139.60401 -0.21,0 q -0.2275,0.4025 -0.56,0.7 -0.315,0.28 -0.7,0.49 -0.3675,0.1925 -0.7875,0.28 -0.4025,0.105 -0.7875,0.105 -0.875,0 -1.6275,-0.2975 -0.7525,-0.2975 -1.33,-0.8575 -0.56,-0.56 -0.8925,-1.3825 -0.315,-0.84 -0.315,-1.9075 l 0,-0.28 q 0,-1.05 0.3325,-1.8725 0.3325,-0.84 0.8925,-1.4 0.56,-0.5775 1.3125,-0.875 0.7525,-0.2975 1.5925,-0.2975 0.8925,0 1.645,0.42 0.77,0.4025 1.225,1.19 l 0.21,0 0,-1.365 1.365,0 0,12.18 -1.365,0 0,-4.83 z m -2.905,0.28 q 0.6125,0 1.1375,-0.2275 0.525,-0.2275 0.91,-0.6475 0.4025,-0.42 0.63,-0.9975 0.2275,-0.595 0.2275,-1.3125 l 0,-0.21 q 0,-0.7 -0.2275,-1.2775 -0.2275,-0.595 -0.63,-1.015 -0.385,-0.42 -0.9275,-0.6475 -0.525,-0.245 -1.12,-0.245 -0.6125,0 -1.155,0.2275 -0.525,0.2275 -0.9275,0.6475 -0.385,0.42 -0.6125,0.9975 -0.21,0.5775 -0.21,1.2775 l 0,0.28 q 0,0.735 0.21,1.3125 0.2275,0.5775 0.6125,0.9975 0.4025,0.4025 0.9275,0.63 0.525,0.21 1.155,0.21 z"
         style="font-size:17.5px"
         id="path4218"
         inkscape:connector-curvature="0" />
      <path
         d="m 248.32162,132.25401 3.15,0 0,1.155 0.21,0 q 0.3325,-0.7175 0.945,-1.05 0.6125,-0.35 1.4,-0.35 1.3125,0 2.1175,0.8575 0.805,0.8575 0.8575,2.5025 l -1.435,0.21 q 0,-1.2075 -0.5775,-1.7325 -0.5775,-0.5425 -1.4175,-0.5425 -0.5425,0 -0.945,0.21 -0.385,0.21 -0.6475,0.5775 -0.2625,0.3675 -0.385,0.8575 -0.1225,0.49 -0.1225,1.05 l 0,3.675 2.205,0 0,1.26 -5.565,0 0,-1.26 1.995,0 0,-6.16 -1.785,0 0,-1.26 z"
         style="font-size:17.5px"
         id="path4220"
         inkscape:connector-curvature="0" />
      <path
         d="m 261.31236,134.49401 q 0,0.63 0.525,0.9625 0.5425,0.3325 1.96,0.4375 1.5225,0.1225 2.31,0.735 0.805,0.595 0.805,1.75 l 0,0.105 q 0,0.63 -0.2625,1.1375 -0.245,0.49 -0.7,0.84 -0.4375,0.35 -1.085,0.525 -0.63,0.1925 -1.3825,0.1925 -1.015,0 -1.75,-0.2625 -0.7175,-0.28 -1.2075,-0.7175 -0.4725,-0.455 -0.7175,-1.015 -0.245,-0.5775 -0.28,-1.155 l 1.295,-0.315 q 0.0875,0.9975 0.77,1.61 0.6825,0.595 1.82,0.595 0.9625,0 1.54,-0.3675 0.595,-0.385 0.595,-1.0675 0,-0.735 -0.5775,-1.05 -0.5775,-0.315 -1.8725,-0.4025 -1.505,-0.105 -2.31,-0.7 -0.805,-0.595 -0.805,-1.7325 l 0,-0.105 q 0,-0.6125 0.2625,-1.0675 0.2625,-0.4725 0.7,-0.7875 0.455,-0.315 1.015,-0.4725 0.56,-0.1575 1.1725,-0.1575 0.8575,0 1.505,0.245 0.6475,0.2275 1.085,0.6125 0.4375,0.3675 0.665,0.8575 0.245,0.49 0.315,0.98 l -1.295,0.315 q -0.0875,-0.84 -0.6825,-1.3125 -0.5775,-0.4725 -1.5225,-0.4725 -0.3675,0 -0.7175,0.0875 -0.3325,0.07 -0.595,0.2275 -0.2625,0.1575 -0.42,0.4025 -0.1575,0.2275 -0.1575,0.5425 z"
         style="font-size:17.5px"
         id="path4222"
         inkscape:connector-curvature="0" />
      <path
         d="m 269.9106,132.25401 2.73,0 0,-3.57 1.365,0 0,3.57 3.36,0 0,1.26 -3.36,0 0,5.635 q 0,0.525 0.4725,0.525 l 2.4675,0 0,1.26 -2.9575,0 q -0.595,0 -0.98,-0.385 -0.3675,-0.385 -0.3675,-0.98 l 0,-6.055 -2.73,0 0,-1.26 z"
         style="font-size:17.5px"
         id="path4224"
         inkscape:connector-curvature="0" />
      <path
         d="m 287.10134,132.25401 1.365,0 0,8.68 -1.365,0 0,-1.575 -0.21,0 q -0.42,0.84 -1.1025,1.33 -0.6825,0.49 -1.7325,0.49 -0.7175,0 -1.33,-0.245 -0.595,-0.2275 -1.0325,-0.7 -0.42,-0.4725 -0.665,-1.1725 -0.2275,-0.7 -0.2275,-1.6275 l 0,-5.18 1.365,0 0,5.005 q 0,1.365 0.56,1.995 0.56,0.63 1.715,0.63 1.2425,0 1.9425,-0.84 0.7175,-0.8575 0.7175,-2.275 l 0,-4.515 z"
         style="font-size:17.5px"
         id="path4226"
         inkscape:connector-curvature="0" />
      <path
         d="m 296.76708,140.93401 -2.695,0 -3.0275,-8.68 1.61,0 2.66,8.05 0.21,0 2.66,-8.05 1.61,0 -3.0275,8.68 z"
         style="font-size:17.5px"
         id="path4228"
         inkscape:connector-curvature="0" />
      <path
         d="m 309.81033,140.93401 -2.52,0 -1.05,-8.05 -0.21,0 -1.05,8.05 -2.52,0 -1.365,-8.68 1.4,0 1.155,8.05 0.21,0 1.015,-8.05 2.52,0 1.015,8.05 0.21,0 1.155,-8.05 1.4,0 -1.365,8.68 z"
         style="font-size:17.5px"
         id="path4230"
         inkscape:connector-curvature="0" />
      <path
         d="m 319.17857,132.25401 1.5575,0 -2.555,4.13 0,0.21 2.765,4.34 -1.5925,0 -2.3625,-3.815 -0.315,0 -2.3625,3.815 -1.5925,0 2.765,-4.34 0,-0.21 -2.555,-4.13 1.5575,0 2.1875,3.605 0.315,0 2.1875,-3.605 z"
         style="font-size:17.5px"
         id="path4232"
         inkscape:connector-curvature="0" />
      <path
         d="m 329.99931,139.35901 -0.21,0 q -0.42,0.84 -1.1025,1.33 -0.6825,0.49 -1.7325,0.49 -0.7175,0 -1.33,-0.245 -0.595,-0.2275 -1.0325,-0.7 -0.42,-0.4725 -0.665,-1.1725 -0.2275,-0.7 -0.2275,-1.6275 l 0,-5.18 1.365,0 0,5.005 q 0,1.365 0.56,1.995 0.56,0.63 1.715,0.63 1.2425,0 1.9425,-0.84 0.7175,-0.8575 0.7175,-2.275 l 0,-4.515 1.365,0 0,10.815 q 0,0.595 -0.385,0.98 -0.3675,0.385 -0.9625,0.385 l -4.9525,0 0,-1.26 4.4625,0 q 0.4725,0 0.4725,-0.525 l 0,-3.29 z"
         style="font-size:17.5px"
         id="path4234"
         inkscape:connector-curvature="0" />
      <path
         d="m 342.02755,139.67401 0,1.26 -7.56,0 0,-2.17 6.195,-5.04 0,-0.21 -6.09,0 0,-1.26 7.245,0 0,2.1 -6.23,5.11 0,0.21 6.44,0 z"
         style="font-size:17.5px"
         id="path4236"
         inkscape:connector-curvature="0" />
      <path
         d="m 73.398999,159.76401 -5.25,0 -0.8925,3.045 -1.575,0 3.71,-12.25 2.765,0 3.71,12.25 -1.575,0 -0.8925,-3.045 z m -2.73,-8.575 -2.1175,7.21 4.445,0 -2.1175,-7.21 -0.21,0 z"
         style="font-size:17.5px"
         id="path4238"
         inkscape:connector-curvature="0" />
      <path
         d="m 77.114741,161.44401 1.05,0 0,-9.52 -1.05,0 0,-1.365 4.9525,0 q 0.875,0 1.54,0.245 0.6825,0.245 1.1375,0.665 0.4725,0.42 0.7,1.015 0.245,0.5775 0.245,1.26 l 0,0.21 q 0,0.5075 -0.1575,0.9275 -0.1575,0.42 -0.4375,0.7525 -0.28,0.3325 -0.665,0.5775 -0.3675,0.2275 -0.805,0.35 l 0,0.21 q 0.875,0.245 1.47,0.945 0.595,0.6825 0.595,1.68 l 0,0.21 q 0,0.6825 -0.245,1.2775 -0.2275,0.5775 -0.7,1.015 -0.455,0.42 -1.1375,0.665 -0.665,0.245 -1.54,0.245 l -4.9525,0 0,-1.365 z m 2.52,0 2.3275,0 q 1.0325,0 1.68,-0.5075 0.6475,-0.525 0.6475,-1.435 l 0,-0.105 q 0,-0.945 -0.6125,-1.4875 -0.6125,-0.56 -1.6625,-0.56 l -2.38,0 0,4.095 z m 0,-5.46 2.38,0 q 1.05,0 1.6625,-0.5425 0.6125,-0.5425 0.6125,-1.4875 l 0,-0.105 q 0,-0.8925 -0.6475,-1.4 -0.6475,-0.525 -1.68,-0.525 l -2.3275,0 0,4.06 z"
         style="font-size:17.5px"
         id="path4240"
         inkscape:connector-curvature="0" />
      <path
         d="m 92.240483,161.68901 q 0.7525,0 1.2775,-0.245 0.5425,-0.2625 0.875,-0.6825 0.35,-0.4375 0.5075,-0.98 0.175,-0.56 0.175,-1.1725 l 0,-0.21 1.47,0 0,0.21 q 0,0.9275 -0.28,1.75 -0.28,0.805 -0.8225,1.4175 -0.5425,0.595 -1.3475,0.945 -0.805,0.3325 -1.855,0.3325 -2.03,0 -3.1675,-1.2775 -1.1375,-1.2775 -1.1375,-3.7275 l 0,-2.73 q 0,-2.38 1.1375,-3.6925 1.1375,-1.3125 3.1675,-1.3125 1.05,0 1.855,0.35 0.805,0.3325 1.3475,0.945 0.5425,0.595 0.8225,1.4175 0.28,0.805 0.28,1.7325 l 0,0.21 -1.47,0 0,-0.21 q -0.0175,-0.595 -0.1925,-1.155 -0.1575,-0.56 -0.5075,-0.98 -0.3325,-0.4375 -0.8575,-0.6825 -0.525,-0.2625 -1.2775,-0.2625 -1.4175,0 -2.135,1.0325 -0.7,1.0325 -0.7,2.7125 l 0,2.52 q 0,1.8025 0.7,2.7825 0.7175,0.9625 2.135,0.9625 z"
         style="font-size:17.5px"
         id="path4242"
         inkscape:connector-curvature="0" />
      <path
         d="m 98.791225,150.55901 4.025005,0 q 2.275,0 3.325,1.085 1.05,1.085 1.05,3.465 l 0,3.15 q 0,2.38 -1.05,3.465 -1.05,1.085 -3.325,1.085 l -4.025005,0 0,-1.3825 1.05,0 0,-9.5025 -1.05,0 0,-1.365 z m 3.815005,10.885 q 0.805,0 1.3825,-0.1575 0.595,-0.1575 0.98,-0.525 0.385,-0.385 0.56,-1.015 0.1925,-0.63 0.1925,-1.5925 l 0,-2.94 q 0,-0.9625 -0.1925,-1.5925 -0.175,-0.63 -0.56,-0.9975 -0.385,-0.385 -0.98,-0.5425 -0.5775,-0.1575 -1.3825,-0.1575 l -1.295,0 0,9.52 1.295,0 z"
         style="font-size:17.5px"
         id="path4244"
         inkscape:connector-curvature="0" />
      <path
         d="m 109.85697,150.55901 7.42,0 0,1.365 -5.95,0 0,4.06 5.845,0 0,1.365 -5.845,0 0,4.095 6.055,0 0,1.365 -7.525,0 0,-12.25 z"
         style="font-size:17.5px"
         id="path4246"
         inkscape:connector-curvature="0" />
      <path
         d="m 120.57271,150.55901 7.525,0 0,1.365 -6.055,0 0,4.06 5.95,0 0,1.365 -5.95,0 0,5.46 -1.47,0 0,-12.25 z"
         style="font-size:17.5px"
         id="path4248"
         inkscape:connector-curvature="0" />
      <path
         d="m 133.79095,156.92901 5.46,0 0,5.88 -1.365,0 0,-1.47 -0.21,0 q -0.2975,0.77 -1.05,1.2425 -0.7525,0.4725 -1.75,0.4725 -1.9775,0 -3.115,-1.2775 -1.12,-1.2775 -1.12,-3.7275 l 0,-2.73 q 0,-2.38 1.1375,-3.6925 1.1375,-1.3125 3.1675,-1.3125 1.05,0 1.855,0.35 0.805,0.3325 1.3475,0.945 0.5425,0.595 0.8225,1.4175 0.28,0.805 0.28,1.7325 l 0,0.21 -1.47,0 0,-0.21 q 0,-0.595 -0.175,-1.155 -0.1575,-0.56 -0.5075,-0.98 -0.3325,-0.4375 -0.875,-0.6825 -0.525,-0.2625 -1.2775,-0.2625 -1.4175,0 -2.135,1.0325 -0.7,1.0325 -0.7,2.7125 l 0,2.52 q 0,1.8025 0.7,2.7825 0.7175,0.9625 2.17,0.9625 1.3125,0 2.0475,-0.84 0.7525,-0.84 0.7525,-2.345 l 0,-0.21 -3.99,0 0,-1.365 z"
         style="font-size:17.5px"
         id="path4250"
         inkscape:connector-curvature="0" />
      <path
         d="m 141.58419,150.55901 1.47,0 0,5.425 5.215,0 0,-5.425 1.47,0 0,12.25 -1.47,0 0,-5.46 -5.215,0 0,5.46 -1.47,0 0,-12.25 z"
         style="font-size:17.5px"
         id="path4252"
         inkscape:connector-curvature="0" />
      <path
         d="m 152.47494,150.55901 7.77,0 0,1.365 -3.15,0 0,9.52 3.15,0 0,1.365 -7.77,0 0,-1.365 3.15,0 0,-9.52 -3.15,0 0,-1.365 z"
         style="font-size:17.5px"
         id="path4254"
         inkscape:connector-curvature="0" />
      <path
         d="m 170.54068,159.13401 q 0,1.9075 -0.945,2.9225 -0.9275,0.9975 -2.73,0.9975 -1.8025,0 -2.8525,-0.9975 -1.0325,-1.015 -1.0325,-2.9225 l 0,-0.945 1.47,0 0,0.945 q 0,1.155 0.595,1.855 0.595,0.7 1.82,0.7 1.225,0 1.715,-0.7 0.49,-0.7 0.49,-1.855 l 0,-7.21 -1.26,0 0,-1.365 3.78,0 0,1.365 -1.05,0 0,7.21 z"
         style="font-size:17.5px"
         id="path4256"
         inkscape:connector-curvature="0" />
      <path
         d="m 175.42892,162.80901 -1.47,0 0,-12.25 1.47,0 0,5.425 0.4025,0 4.7075,-5.425 1.82,0 0,0.105 -5.075,5.915 0,0.21 5.285,5.915 0,0.105 -1.855,0 -4.8825,-5.46 -0.4025,0 0,5.46 z"
         style="font-size:17.5px"
         id="path4258"
         inkscape:connector-curvature="0" />
      <path
         d="m 184.62216,150.55901 1.47,0 0,10.885 6.405,0 0,1.365 -7.875,0 0,-12.25 z"
         style="font-size:17.5px"
         id="path4260"
         inkscape:connector-curvature="0" />
      <path
         d="m 194.6029,150.55901 2.8,0 1.645,11.62 0.21,0 1.645,-11.62 2.8,0 0,12.25 -1.365,0 0,-11.62 -0.21,0 -1.645,11.62 -2.66,0 -1.645,-11.62 -0.21,0 0,11.62 -1.365,0 0,-12.25 z"
         style="font-size:17.5px"
         id="path4262"
         inkscape:connector-curvature="0" />
      <path
         d="m 212.24865,162.17901 0.21,0 0,-11.62 1.47,0 0,12.25 -2.94,0 -3.535,-11.62 -0.21,0 0,11.62 -1.47,0 0,-12.25 2.94,0 3.535,11.62 z"
         style="font-size:17.5px"
         id="path4264"
         inkscape:connector-curvature="0" />
      <path
         d="m 216.24439,155.31901 q 0,-2.38 1.1375,-3.6925 1.1375,-1.3125 3.1675,-1.3125 2.03,0 3.1675,1.3125 1.1375,1.3125 1.1375,3.6925 l 0,2.73 q 0,2.45 -1.1375,3.7275 -1.1375,1.2775 -3.1675,1.2775 -2.03,0 -3.1675,-1.2775 -1.1375,-1.2775 -1.1375,-3.7275 l 0,-2.73 z m 4.305,6.37 q 1.4175,0 2.1175,-0.9625 0.7175,-0.98 0.7175,-2.7825 l 0,-2.52 q 0,-1.68 -0.7175,-2.7125 -0.7,-1.0325 -2.1175,-1.0325 -1.4175,0 -2.135,1.0325 -0.7,1.0325 -0.7,2.7125 l 0,2.52 q 0,1.8025 0.7,2.7825 0.7175,0.9625 2.135,0.9625 z"
         style="font-size:17.5px"
         id="path4266"
         inkscape:connector-curvature="0" />
      <path
         d="m 228.85013,157.76901 0,5.04 -1.47,0 0,-12.25 4.375,0 q 0.945,0 1.645,0.28 0.7,0.2625 1.155,0.7175 0.4725,0.455 0.7,1.0675 0.245,0.595 0.245,1.26 l 0,0.525 q 0,0.665 -0.245,1.2775 -0.2275,0.6125 -0.7,1.085 -0.4725,0.455 -1.1725,0.735 -0.7,0.2625 -1.6275,0.2625 l -2.905,0 z m 0,-1.365 2.73,0 q 2.45,0 2.45,-2.1 l 0,-0.315 q 0,-0.9275 -0.6125,-1.4875 -0.595,-0.5775 -1.8375,-0.5775 l -2.73,0 0,4.48 z"
         style="font-size:17.5px"
         id="path4268"
         inkscape:connector-curvature="0" />
      <path
         d="m 237.64087,155.31901 q 0,-2.38 1.1375,-3.6925 1.1375,-1.3125 3.1675,-1.3125 2.03,0 3.1675,1.3125 1.1375,1.3125 1.1375,3.6925 l 0,2.73 q 0,2.24 -0.9625,3.5175 -0.945,1.26 -2.66,1.4525 l 0,0.735 q 0,0.525 0.4725,0.525 l 1.47,0 0,1.26 -1.96,0 q -0.595,0 -0.98,-0.385 -0.3675,-0.385 -0.3675,-0.98 l 0,-1.155 q -1.7325,-0.21 -2.6775,-1.47 -0.945,-1.26 -0.945,-3.5 l 0,-2.73 z m 4.305,6.37 q 1.4175,0 2.1175,-0.9625 0.7175,-0.98 0.7175,-2.7825 l 0,-2.52 q 0,-1.68 -0.7175,-2.7125 -0.7,-1.0325 -2.1175,-1.0325 -1.4175,0 -2.135,1.0325 -0.7,1.0325 -0.7,2.7125 l 0,2.52 q 0,1.8025 0.7,2.7825 0.7175,0.9625 2.135,0.9625 z"
         style="font-size:17.5px"
         id="path4270"
         inkscape:connector-curvature="0" />
      <path
         d="m 256.47662,162.80901 -1.47,0 0,-4.095 q 0,-0.455 -0.21,-0.7 -0.21,-0.245 -0.735,-0.245 l -3.815,0 0,5.04 -1.47,0 0,-12.25 4.375,0 q 0.945,0 1.645,0.28 0.7,0.2625 1.155,0.7175 0.4725,0.455 0.7,1.0675 0.245,0.595 0.245,1.26 l 0,0.525 q 0,0.6825 -0.385,1.365 -0.3675,0.6825 -1.155,1.05 l 0,0.21 q 0.525,0.0875 0.8225,0.42 0.2975,0.3325 0.2975,0.945 l 0,4.41 z m -6.23,-6.405 2.73,0 q 1.2425,0 1.8375,-0.525 0.6125,-0.5425 0.6125,-1.575 l 0,-0.315 q 0,-0.9275 -0.6125,-1.4875 -0.595,-0.5775 -1.8375,-0.5775 l -2.73,0 0,4.48 z"
         style="font-size:17.5px"
         id="path4272"
         inkscape:connector-curvature="0" />
      <path
         d="m 266.22986,154.09401 q 0,-0.595 -0.245,-1.05 -0.2275,-0.455 -0.63,-0.7525 -0.4025,-0.2975 -0.9275,-0.455 -0.525,-0.1575 -1.1025,-0.1575 -0.5075,0 -0.9625,0.14 -0.455,0.1225 -0.8225,0.3675 -0.35,0.245 -0.56,0.6125 -0.21,0.35 -0.21,0.8225 l 0,0.105 q 0,0.5075 0.21,0.875 0.21,0.35 0.6125,0.6125 0.42,0.245 1.0325,0.42 0.6125,0.1575 1.435,0.28 1.925,0.2975 2.835,1.1375 0.91,0.8225 0.91,2.2225 l 0,0.21 q 0,0.7875 -0.28,1.4525 -0.2625,0.6475 -0.805,1.12 -0.525,0.4725 -1.3125,0.735 -0.7875,0.2625 -1.82,0.2625 -1.1725,0 -2.0825,-0.3325 -0.8925,-0.35 -1.505,-0.945 -0.595,-0.6125 -0.91,-1.4175 -0.315,-0.8225 -0.315,-1.785 l 0,-0.525 1.47,0 0,0.42 q 0,1.61 0.875,2.415 0.8925,0.805 2.4675,0.805 1.365,0 2.0475,-0.595 0.7,-0.6125 0.7,-1.61 l 0,-0.105 q 0,-0.9625 -0.7175,-1.47 -0.7,-0.5075 -2.2925,-0.735 -0.9275,-0.1225 -1.68,-0.3675 -0.735,-0.2625 -1.26,-0.665 -0.525,-0.42 -0.805,-0.9975 -0.28,-0.5775 -0.28,-1.365 l 0,-0.21 q 0,-0.7175 0.2975,-1.3125 0.2975,-0.595 0.8225,-1.0325 0.5425,-0.4375 1.2775,-0.665 0.7525,-0.245 1.645,-0.245 1.0325,0 1.8375,0.2975 0.8225,0.2975 1.3825,0.805 0.56,0.49 0.84,1.1725 0.2975,0.665 0.2975,1.4 l 0,0.735 -1.47,0 0,-0.63 z"
         style="font-size:17.5px"
         id="path4274"
         inkscape:connector-curvature="0" />
      <path
         d="m 269.7356,150.55901 8.61,0 0,1.365 -3.57,0 0,10.885 -1.47,0 0,-10.885 -3.57,0 0,-1.365 z"
         style="font-size:17.5px"
         id="path4276"
         inkscape:connector-curvature="0" />
      <path
         d="m 282.00884,150.55901 0,8.12 q 0,1.4875 0.6825,2.2575 0.7,0.7525 2.0475,0.7525 1.3475,0 2.03,-0.7525 0.7,-0.77 0.7,-2.2575 l 0,-8.12 1.47,0 0,8.12 q 0,2.135 -1.12,3.255 -1.12,1.12 -3.08,1.12 -1.96,0 -3.08,-1.12 -1.12,-1.12 -1.12,-3.255 l 0,-8.12 1.47,0 z"
         style="font-size:17.5px"
         id="path4278"
         inkscape:connector-curvature="0" />
      <path
         d="m 290.55458,150.55901 1.575,0 3.2025,11.62 0.21,0 3.2025,-11.62 1.575,0 -3.465,12.25 -2.835,0 -3.465,-12.25 z"
         style="font-size:17.5px"
         id="path4280"
         inkscape:connector-curvature="0" />
      <path
         d="m 310.05533,162.80901 -2.6775,0 -1.1375,-11.62 -0.21,0 -1.1375,11.62 -2.6775,0 -1.2425,-12.25 1.33,0 1.1725,11.62 0.21,0 1.1025,-11.62 2.695,0 1.1025,11.62 0.21,0 1.1725,-11.62 1.33,0 -1.2425,12.25 z"
         style="font-size:17.5px"
         id="path4282"
         inkscape:connector-curvature="0" />
      <path
         d="m 313.92857,150.55901 2.7475,5.425 0.315,0 2.7475,-5.425 1.61,0 -3.0625,6.0025 0,0.21 3.0625,6.0375 -1.61,0 -2.7475,-5.46 -0.315,0 -2.7475,5.46 -1.61,0 3.0625,-6.0375 0,-0.21 -3.0625,-6.0025 1.61,0 z"
         style="font-size:17.5px"
         id="path4284"
         inkscape:connector-curvature="0" />
      <path
         d="m 326.79681,158.50401 -0.315,0 -3.8325,-7.945 1.645,0 3.1325,6.685 0.21,0 3.1325,-6.685 1.645,0 -3.8325,7.945 -0.315,0 0,4.305 -1.47,0 0,-4.305 z"
         style="font-size:17.5px"
         id="path4286"
         inkscape:connector-curvature="0" />
      <path
         d="m 334.22255,150.55901 8.19,0 0,2.205 -7.35,8.47 0,0.21 7.56,0 0,1.365 -8.82,0 0,-2.205 7.35,-8.47 0,-0.21 -6.93,0 0,-1.365 z"
         style="font-size:17.5px"
         id="path4288"
         inkscape:connector-curvature="0" />
      <path
         d="m 75.131499,180.44901 q 0,1.085 -0.3675,1.925 -0.35,0.8225 -0.945,1.4 -0.595,0.56 -1.4,0.8575 -0.7875,0.2975 -1.645,0.2975 -0.875,0 -1.6625,-0.2975 -0.7875,-0.2975 -1.3825,-0.8575 -0.595,-0.5775 -0.9625,-1.4 -0.35,-0.84 -0.35,-1.925 l 0,-0.21 q 0,-1.0675 0.35,-1.89 0.3675,-0.84 0.9625,-1.4175 0.6125,-0.5775 1.4,-0.875 0.7875,-0.2975 1.645,-0.2975 0.8575,0 1.645,0.2975 0.7875,0.2975 1.3825,0.875 0.6125,0.5775 0.9625,1.4175 0.3675,0.8225 0.3675,1.89 l 0,0.21 z m -4.3575,3.185 q 0.63,0 1.155,-0.21 0.5425,-0.2275 0.945,-0.6475 0.4025,-0.42 0.63,-0.9975 0.2275,-0.595 0.2275,-1.33 l 0,-0.21 q 0,-0.7 -0.2275,-1.2775 -0.2275,-0.595 -0.63,-1.015 -0.4025,-0.42 -0.945,-0.6475 -0.5425,-0.245 -1.155,-0.245 -0.6125,0 -1.155,0.245 -0.5425,0.2275 -0.945,0.6475 -0.4025,0.42 -0.63,1.015 -0.2275,0.5775 -0.2275,1.2775 l 0,0.21 q 0,0.735 0.2275,1.33 0.2275,0.5775 0.63,0.9975 0.4025,0.42 0.9275,0.6475 0.5425,0.21 1.1725,0.21 z"
         style="font-size:17.5px"
         id="path4290"
         inkscape:connector-curvature="0" />
      <path
         d="m 77.167241,177.19401 q 0,-2.38 1.1375,-3.6925 1.1375,-1.3125 3.1675,-1.3125 2.03,0 3.1675,1.3125 1.1375,1.3125 1.1375,3.6925 l 0,2.73 q 0,2.45 -1.1375,3.7275 -1.1375,1.2775 -3.1675,1.2775 -2.03,0 -3.1675,-1.2775 -1.1375,-1.2775 -1.1375,-3.7275 l 0,-2.73 z m 4.305,6.37 q 1.4175,0 2.1175,-0.9625 0.7175,-0.98 0.7175,-2.7825 l 0,-2.52 q 0,-1.68 -0.7175,-2.7125 -0.7,-1.0325 -2.1175,-1.0325 -1.4175,0 -2.135,1.0325 -0.7,1.0325 -0.7,2.7125 l 0,2.52 q 0,1.8025 0.7,2.7825 0.7175,0.9625 2.135,0.9625 z"
         style="font-size:17.5px"
         id="path4292"
         inkscape:connector-curvature="0" />
      <path
         d="m 87.865483,177.19401 q 0,-2.38 1.1375,-3.6925 1.1375,-1.3125 3.1675,-1.3125 2.03,0 3.1675,1.3125 1.1375,1.3125 1.1375,3.6925 l 0,2.73 q 0,2.45 -1.1375,3.7275 -1.1375,1.2775 -3.1675,1.2775 -2.03,0 -3.1675,-1.2775 -1.1375,-1.2775 -1.1375,-3.7275 l 0,-2.73 z m 4.305,6.405 q 1.4175,0 2.1175,-0.98 0.7175,-0.9975 0.7175,-2.8 l 0,-2.52 q 0,-0.84 -0.175,-1.5225 -0.175,-0.7 -0.5425,-1.19 -0.35,-0.5075 -0.8925,-0.7875 -0.525,-0.28 -1.225,-0.28 -0.7175,0 -1.2425,0.28 -0.525,0.28 -0.8925,0.7875 -0.35,0.49 -0.525,1.19 -0.175,0.6825 -0.175,1.5225 l 0,2.52 q 0,1.8025 0.7,2.8 0.7175,0.98 2.135,0.98 z m -1.12,-5.04 q 0,-0.455 0.3325,-0.7875 0.3325,-0.3325 0.7875,-0.3325 0.455,0 0.7875,0.3325 0.3325,0.3325 0.3325,0.7875 0,0.455 -0.3325,0.7875 -0.3325,0.3325 -0.7875,0.3325 -0.455,0 -0.7875,-0.3325 -0.3325,-0.3325 -0.3325,-0.7875 z"
         style="font-size:17.5px"
         id="path4294"
         inkscape:connector-curvature="0" />
      <path
         d="m 102.71123,184.92901 q -0.9275,0 -1.68,-0.245 -0.7525,-0.2625 -1.295005,-0.7 -0.5425,-0.455 -0.84,-1.05 -0.28,-0.6125 -0.28,-1.33 l 0,-0.21 q 0,-0.63 0.1925,-1.12 0.1925,-0.49 0.5075,-0.8575 0.315,-0.3675 0.717505,-0.6125 0.42,-0.245 0.8575,-0.3675 l 0,-0.21 q -0.4025,-0.1225 -0.7525,-0.3675 -0.350005,-0.245 -0.630005,-0.5775 -0.2625,-0.3325 -0.42,-0.7525 -0.1575,-0.4375 -0.1575,-0.945 l 0,-0.21 q 0,-0.7 0.28,-1.2775 0.28,-0.595 0.7875,-1.015 0.525005,-0.42 1.225005,-0.6475 0.7175,-0.245 1.5925,-0.245 l 0.105,0 q 0.8575,0 1.575,0.245 0.7175,0.2275 1.225,0.6475 0.525,0.42 0.805,1.015 0.28,0.5775 0.28,1.2775 l 0,0.21 q 0,0.5075 -0.1575,0.945 -0.1575,0.42 -0.4375,0.7525 -0.2625,0.3325 -0.63,0.5775 -0.35,0.245 -0.735,0.3675 l 0,0.21 q 0.4375,0.1225 0.84,0.3675 0.42,0.245 0.735,0.6125 0.315,0.3675 0.5075,0.8575 0.1925,0.49 0.1925,1.12 l 0,0.21 q 0,0.7175 -0.2975,1.33 -0.28,0.595 -0.8225,1.05 -0.5425,0.4375 -1.295,0.7 -0.7525,0.245 -1.68,0.245 l -0.315,0 z m 0.2625,-1.33 q 1.19,0 1.925,-0.6125 0.7525,-0.6125 0.7525,-1.5925 l 0,-0.105 q 0,-1.085 -0.77,-1.68 -0.7525,-0.595 -1.96,-0.595 l -0.105,0 q -1.2075,0 -1.9775,0.595 -0.7525,0.595 -0.7525,1.68 l 0,0.105 q 0,0.98 0.735,1.5925 0.7525,0.6125 1.9425,0.6125 l 0.21,0 z m -0.105,-5.95 q 1.1025,0 1.785,-0.5775 0.6825,-0.5775 0.6825,-1.4525 l 0,-0.105 q 0,-0.8925 -0.6825,-1.435 -0.665,-0.56 -1.785,-0.56 -1.12,0 -1.8025,0.56 -0.665,0.5425 -0.665,1.435 l 0,0.105 q 0,0.875 0.6825,1.4525 0.6825,0.5775 1.785,0.5775 z"
         style="font-size:17.5px"
         id="path4296"
         inkscape:connector-curvature="0" />
      <path
         d="m 123.12771,173.41401 q 0,-0.5075 0.35,-0.8575 0.3675,-0.3675 0.875,-0.3675 0.5075,0 0.8575,0.3675 0.3675,0.35 0.3675,0.8575 0,0.5075 -0.3675,0.875 -0.35,0.35 -0.8575,0.35 -0.5075,0 -0.875,-0.35 -0.35,-0.3675 -0.35,-0.875 z m -2.485,10.01 3.045,0 0,-6.16 -2.73,0 0,-1.26 4.095,0 0,7.42 2.835,0 0,1.26 -7.245,0 0,-1.26 z"
         style="font-size:17.5px"
         id="path4298"
         inkscape:connector-curvature="0" />
      <path
         d="m 131.07845,172.43401 7.77,0 0,1.365 -3.15,0 0,9.52 3.15,0 0,1.365 -7.77,0 0,-1.365 3.15,0 0,-9.52 -3.15,0 0,-1.365 z"
         style="font-size:17.5px"
         id="path4300"
         inkscape:connector-curvature="0" />
      <path
         d="m 141.82919,183.42401 3.15,0 0,-9.73 -3.045,0 0,-1.26 4.41,0 0,10.99 3.15,0 0,1.26 -7.665,0 0,-1.26 z"
         style="font-size:17.5px"
         id="path4302"
         inkscape:connector-curvature="0" />
      <path
         d="m 152.52744,172.43401 1.47,0 0,10.885 6.405,0 0,1.365 -7.875,0 0,-12.25 z"
         style="font-size:17.5px"
         id="path4304"
         inkscape:connector-curvature="0" />
      <path
         d="m 166.41068,183.31901 0,-10.2375 -0.21,0 -2.0125,4.6025 -1.4525,0 0,-0.105 2.2925,-5.145 2.8525,0 0,10.885 3.465,0 0,1.365 -8.4,0 0,-1.365 3.465,0 z"
         style="font-size:17.5px"
         id="path4306"
         inkscape:connector-curvature="0" />
      <path
         d="m 187.96466,171.06901 q 0,-0.595 0.3675,-0.98 0.385,-0.385 0.98,-0.385 l 1.6975,0 0,1.26 -1.2075,0 q -0.4725,0 -0.4725,0.525 l 0,5.6 q 0,0.595 -0.385,0.98 -0.3675,0.385 -0.98,0.385 l -0.21,0 0,0.21 0.21,0 q 0.6125,0 0.98,0.385 0.385,0.385 0.385,0.98 l 0,5.6 q 0,0.525 0.4725,0.525 l 1.2075,0 0,1.26 -1.6975,0 q -0.595,0 -0.98,-0.385 -0.3675,-0.385 -0.3675,-0.98 l 0,-6.0375 q 0,-0.5075 -0.4725,-0.5075 l -0.8925,0 0,-1.89 0.8925,0 q 0.4725,0 0.4725,-0.5075 l 0,-6.0375 z"
         style="font-size:17.5px"
         id="path4308"
         inkscape:connector-curvature="0" />
      <path
         d="m 199.6429,177.10651 q 0,0.5075 0.4725,0.5075 l 0.8925,0 0,1.89 -0.8925,0 q -0.4725,0 -0.4725,0.5075 l 0,6.0375 q 0,0.595 -0.385,0.98 -0.3675,0.385 -0.9625,0.385 l -1.6975,0 0,-1.26 1.2075,0 q 0.4725,0 0.4725,-0.525 l 0,-5.6 q 0,-0.595 0.3675,-0.98 0.385,-0.385 0.9975,-0.385 l 0.21,0 0,-0.21 -0.21,0 q -0.6125,0 -0.9975,-0.385 -0.3675,-0.385 -0.3675,-0.98 l 0,-5.6 q 0,-0.525 -0.4725,-0.525 l -1.2075,0 0,-1.26 1.6975,0 q 0.595,0 0.9625,0.385 0.385,0.385 0.385,0.98 l 0,6.0375 z"
         style="font-size:17.5px"
         id="path4310"
         inkscape:connector-curvature="0" />
      <path
         d="m 219.81439,171.06901 q 0,-0.595 0.3675,-0.98 0.385,-0.385 0.98,-0.385 l 1.6975,0 0,1.26 -1.2075,0 q -0.4725,0 -0.4725,0.525 l 0,14.14 q 0,0.525 0.4725,0.525 l 1.2075,0 0,1.26 -1.6975,0 q -0.595,0 -0.98,-0.385 -0.3675,-0.385 -0.3675,-0.98 l 0,-14.98 z"
         style="font-size:17.5px"
         id="path4312"
         inkscape:connector-curvature="0" />
      <path
         d="m 231.98263,186.04901 q 0,0.595 -0.385,0.98 -0.3675,0.385 -0.9625,0.385 l -1.6975,0 0,-1.26 1.2075,0 q 0.4725,0 0.4725,-0.525 l 0,-14.14 q 0,-0.525 -0.4725,-0.525 l -1.2075,0 0,-1.26 1.6975,0 q 0.595,0 0.9625,0.385 0.385,0.385 0.385,0.98 l 0,14.98 z"
         style="font-size:17.5px"
         id="path4314"
         inkscape:connector-curvature="0" />
      <path
         d="m 255.40912,183.35401 -0.21,0 q -0.42,0.7875 -1.155,1.19 -0.7175,0.385 -1.575,0.385 -0.875,0 -1.645,-0.2975 -0.77,-0.2975 -1.365,-0.8575 -0.5775,-0.56 -0.9275,-1.3825 -0.3325,-0.84 -0.3325,-1.9075 l 0,-0.28 q 0,-1.05 0.35,-1.8725 0.35,-0.84 0.9275,-1.4 0.5775,-0.5775 1.3475,-0.875 0.77,-0.2975 1.61,-0.2975 0.945,0 1.645,0.42 0.7175,0.4025 1.12,1.19 l 0.21,0 0,-1.365 1.365,0 0,10.815 q 0,0.595 -0.385,0.98 -0.3675,0.385 -0.9625,0.385 l -5.6525,0 0,-1.26 5.1625,0 q 0.4725,0 0.4725,-0.525 l 0,-3.045 z m -2.905,0.28 q 0.6125,0 1.1375,-0.2275 0.525,-0.2275 0.91,-0.6475 0.4025,-0.42 0.63,-0.9975 0.2275,-0.595 0.2275,-1.3125 l 0,-0.21 q 0,-0.7 -0.2275,-1.2775 -0.2275,-0.595 -0.63,-1.015 -0.385,-0.42 -0.9275,-0.6475 -0.525,-0.245 -1.12,-0.245 -0.6125,0 -1.155,0.2275 -0.525,0.2275 -0.9275,0.6475 -0.385,0.42 -0.6125,0.9975 -0.21,0.5775 -0.21,1.2775 l 0,0.28 q 0,0.735 0.21,1.3125 0.2275,0.5775 0.6125,0.9975 0.4025,0.4025 0.9275,0.63 0.525,0.21 1.155,0.21 z"
         style="font-size:17.5px"
         id="path4316"
         inkscape:connector-curvature="0" />
      <path
         d="m 260.76986,181.11401 q 0,1.1375 0.7,1.8375 0.7,0.6825 1.9425,0.6825 0.595,0 1.085,-0.21 0.5075,-0.21 0.8575,-0.595 0.3675,-0.4025 0.56,-0.9275 0.21,-0.5425 0.21,-1.2075 l 0,-1.82 -0.21,0 q -0.4025,0.77 -1.155,1.2075 -0.7525,0.4375 -1.75,0.4375 -0.8575,0 -1.575,-0.2625 -0.7175,-0.2625 -1.2425,-0.77 -0.525,-0.525 -0.8225,-1.26 -0.28,-0.735 -0.28,-1.68 l 0,-0.21 q 0,-0.91 0.315,-1.6625 0.315,-0.77 0.875,-1.3125 0.5775,-0.56 1.3475,-0.8575 0.7875,-0.315 1.715,-0.315 0.9275,0 1.6975,0.315 0.7875,0.2975 1.3475,0.84 0.5775,0.5425 0.8925,1.295 0.315,0.7525 0.315,1.645 l 0,4.41 q 0,0.98 -0.3325,1.7675 -0.315,0.77 -0.8925,1.33 -0.56,0.5425 -1.33,0.84 -0.77,0.2975 -1.6625,0.2975 -0.8925,0 -1.645,-0.2625 -0.7525,-0.2625 -1.295,-0.7525 -0.5425,-0.5075 -0.84,-1.2075 -0.2975,-0.7175 -0.2975,-1.5925 l 1.47,0 z m 2.5725,-7.63 q -0.63,0 -1.155,0.21 -0.5075,0.21 -0.875,0.595 -0.3675,0.385 -0.56,0.91 -0.1925,0.5075 -0.1925,1.1025 l 0,0.21 q 0,0.6125 0.21,1.12 0.21,0.49 0.5775,0.8575 0.3675,0.35 0.875,0.5425 0.5075,0.1925 1.12,0.1925 0.595,0 1.1025,-0.1925 0.5075,-0.21 0.875,-0.56 0.385,-0.35 0.595,-0.84 0.21,-0.49 0.21,-1.05 l 0,-0.3325 q 0,-0.5775 -0.1925,-1.085 -0.1925,-0.5075 -0.56,-0.875 -0.3675,-0.385 -0.8925,-0.595 -0.5075,-0.21 -1.1375,-0.21 z"
         style="font-size:17.5px"
         id="path4318"
         inkscape:connector-curvature="0" />
      <path
         d="m 276.8581,183.35401 -0.21,0 q -0.2275,0.4025 -0.56,0.7 -0.315,0.28 -0.7,0.49 -0.3675,0.1925 -0.7875,0.28 -0.4025,0.105 -0.7875,0.105 -0.875,0 -1.6275,-0.2975 -0.7525,-0.2975 -1.33,-0.8575 -0.56,-0.56 -0.8925,-1.3825 -0.315,-0.84 -0.315,-1.9075 l 0,-0.28 q 0,-1.05 0.3325,-1.8725 0.3325,-0.84 0.8925,-1.4 0.56,-0.5775 1.3125,-0.875 0.7525,-0.2975 1.5925,-0.2975 0.8925,0 1.645,0.42 0.77,0.4025 1.225,1.19 l 0.21,0 0,-1.365 1.365,0 0,12.18 -1.365,0 0,-4.83 z m -2.905,0.28 q 0.6125,0 1.1375,-0.2275 0.525,-0.2275 0.91,-0.6475 0.4025,-0.42 0.63,-0.9975 0.2275,-0.595 0.2275,-1.3125 l 0,-0.21 q 0,-0.7 -0.2275,-1.2775 -0.2275,-0.595 -0.63,-1.015 -0.385,-0.42 -0.9275,-0.6475 -0.525,-0.245 -1.12,-0.245 -0.6125,0 -1.155,0.2275 -0.525,0.2275 -0.9275,0.6475 -0.385,0.42 -0.6125,0.9975 -0.21,0.5775 -0.21,1.2775 l 0,0.28 q 0,0.735 0.21,1.3125 0.2275,0.5775 0.6125,0.9975 0.4025,0.4025 0.9275,0.63 0.525,0.21 1.155,0.21 z"
         style="font-size:17.5px"
         id="path4320"
         inkscape:connector-curvature="0" />
      <path
         d="m 284.80884,183.56401 q 0.7525,0 1.2775,-0.245 0.5425,-0.2625 0.875,-0.6825 0.35,-0.4375 0.5075,-0.98 0.175,-0.56 0.175,-1.1725 l 0,-0.21 1.47,0 0,0.21 q 0,0.9275 -0.28,1.75 -0.28,0.805 -0.8225,1.4175 -0.5425,0.595 -1.3475,0.945 -0.805,0.3325 -1.855,0.3325 -2.03,0 -3.1675,-1.2775 -1.1375,-1.2775 -1.1375,-3.7275 l 0,-2.73 q 0,-2.38 1.1375,-3.6925 1.1375,-1.3125 3.1675,-1.3125 1.05,0 1.855,0.35 0.805,0.3325 1.3475,0.945 0.5425,0.595 0.8225,1.4175 0.28,0.805 0.28,1.7325 l 0,0.21 -1.47,0 0,-0.21 q -0.0175,-0.595 -0.1925,-1.155 -0.1575,-0.56 -0.5075,-0.98 -0.3325,-0.4375 -0.8575,-0.6825 -0.525,-0.2625 -1.2775,-0.2625 -1.4175,0 -2.135,1.0325 -0.7,1.0325 -0.7,2.7125 l 0,2.52 q 0,1.8025 0.7,2.7825 0.7175,0.9625 2.135,0.9625 z"
         style="font-size:17.5px"
         id="path4322"
         inkscape:connector-curvature="0" />
      <path
         d="m 294.26458,178.80401 5.46,0 0,5.88 -1.365,0 0,-1.47 -0.21,0 q -0.2975,0.77 -1.05,1.2425 -0.7525,0.4725 -1.75,0.4725 -1.9775,0 -3.115,-1.2775 -1.12,-1.2775 -1.12,-3.7275 l 0,-2.73 q 0,-2.38 1.1375,-3.6925 1.1375,-1.3125 3.1675,-1.3125 1.05,0 1.855,0.35 0.805,0.3325 1.3475,0.945 0.5425,0.595 0.8225,1.4175 0.28,0.805 0.28,1.7325 l 0,0.21 -1.47,0 0,-0.21 q 0,-0.595 -0.175,-1.155 -0.1575,-0.56 -0.5075,-0.98 -0.3325,-0.4375 -0.875,-0.6825 -0.525,-0.2625 -1.2775,-0.2625 -1.4175,0 -2.135,1.0325 -0.7,1.0325 -0.7,2.7125 l 0,2.52 q 0,1.8025 0.7,2.7825 0.7175,0.9625 2.17,0.9625 1.3125,0 2.0475,-0.84 0.7525,-0.84 0.7525,-2.345 l 0,-0.21 -3.99,0 0,-1.365 z"
         style="font-size:17.5px"
         id="path4324"
         inkscape:connector-curvature="0" />
      <path
         d="m 301.83033,177.19401 q 0,-2.38 1.1375,-3.6925 1.1375,-1.3125 3.1675,-1.3125 2.03,0 3.1675,1.3125 1.1375,1.3125 1.1375,3.6925 l 0,2.73 q 0,2.24 -0.9625,3.5175 -0.945,1.26 -2.66,1.4525 l 0,0.735 q 0,0.525 0.4725,0.525 l 1.47,0 0,1.26 -1.96,0 q -0.595,0 -0.98,-0.385 -0.3675,-0.385 -0.3675,-0.98 l 0,-1.155 q -1.7325,-0.21 -2.6775,-1.47 -0.945,-1.26 -0.945,-3.5 l 0,-2.73 z m 4.305,6.37 q 1.4175,0 2.1175,-0.9625 0.7175,-0.98 0.7175,-2.7825 l 0,-2.52 q 0,-1.68 -0.7175,-2.7125 -0.7,-1.0325 -2.1175,-1.0325 -1.4175,0 -2.135,1.0325 -0.7,1.0325 -0.7,2.7125 l 0,2.52 q 0,1.8025 0.7,2.7825 0.7175,0.9625 2.135,0.9625 z"
         style="font-size:17.5px"
         id="path4326"
         inkscape:connector-curvature="0" />
      <path
         d="m 328.09181,179.15401 q 0.035,0.14 0.1225,0.2975 0.0875,0.14 0.28,0.14 0.14,0 0.35,-0.1575 l 2.2575,-1.6625 0.665,0.875 -2.1525,1.645 q -0.245,0.1925 -0.525,0.3325 -0.2625,0.14 -0.665,0.14 -0.6825,0 -0.98,-0.35 -0.2975,-0.3675 -0.49,-0.98 -0.035,-0.1575 -0.1225,-0.315 -0.07,-0.175 -0.28,-0.175 -0.1575,0 -0.4025,0.1925 l -2.205,1.6275 -0.665,-0.875 2.1525,-1.645 q 0.2625,-0.21 0.5425,-0.3325 0.28,-0.14 0.6475,-0.14 0.665,0 0.9625,0.385 0.315,0.3675 0.5075,0.9975 z"
         style="font-size:17.5px"
         id="path4328"
         inkscape:connector-curvature="0" />
      <path
         d="m 335.60505,179.50401 5.25,0 0,1.26 -5.25,0 0,-1.26 z"
         style="font-size:17.5px"
         id="path4330"
         inkscape:connector-curvature="0" />
      <path
         d="m 345.2708,177.92901 3.0275,0 0,-3.0275 1.26,0 0,3.0275 3.0275,0 0,1.26 -3.0275,0 0,3.0275 -1.26,0 0,-3.0275 -3.0275,0 0,-1.26 z"
         style="font-size:17.5px"
         id="path4332"
         inkscape:connector-curvature="0" />
      <path
         d="m 355.96904,176.66901 7.315,0 0,1.26 -7.315,0 0,-1.26 z m 0,2.52 7.315,0 0,1.26 -7.315,0 0,-1.26 z"
         style="font-size:17.5px"
         id="path4334"
         inkscape:connector-curvature="0" />
      <path
         d="m 366.66728,182.40901 0,-1.47 6.79,-2.275 0,-0.21 -6.79,-2.275 0,-1.47 7.315,2.52 0,2.66 -7.315,2.52 z"
         style="font-size:17.5px"
         id="path4336"
         inkscape:connector-curvature="0" />
    </g>
  </g>
</svg>
