<?xml version="1.0" encoding="UTF-8" standalone="no"?>
<!-- Created with Inkscape (http://www.inkscape.org/) -->

<svg
   width="72.767914mm"
   height="29.321474mm"
   viewBox="0 0 257.83906 103.89499"
   id="svg2"
   version="1.1"
   inkscape:version="1.1.2 (0a00cf5339, 2022-02-04)"
   sodipodi:docname="Terminess.svg"
   xmlns:inkscape="http://www.inkscape.org/namespaces/inkscape"
   xmlns:sodipodi="http://sodipodi.sourceforge.net/DTD/sodipodi-0.dtd"
   xmlns="http://www.w3.org/2000/svg"
   xmlns:svg="http://www.w3.org/2000/svg"
   xmlns:rdf="http://www.w3.org/1999/02/22-rdf-syntax-ns#"
   xmlns:cc="http://creativecommons.org/ns#"
   xmlns:dc="http://purl.org/dc/elements/1.1/">
  <defs
     id="defs4" />
  <sodipodi:namedview
     id="base"
     pagecolor="#ffffff"
     bordercolor="#666666"
     borderopacity="1.0"
     inkscape:pageopacity="0.0"
     inkscape:pageshadow="2"
     inkscape:zoom="0.7"
     inkscape:cx="-57.857143"
     inkscape:cy="374.28571"
     inkscape:document-units="px"
     inkscape:current-layer="layer1"
     showgrid="false"
     inkscape:window-width="1920"
     inkscape:window-height="1011"
     inkscape:window-x="0"
     inkscape:window-y="32"
     inkscape:window-maximized="1"
     inkscape:pagecheckerboard="0"
     fit-margin-top="0"
     fit-margin-left="0"
     fit-margin-right="0"
     fit-margin-bottom="0" />
  <metadata
     id="metadata7">
    <rdf:RDF>
      <cc:Work
         rdf:about="">
        <dc:format>image/svg+xml</dc:format>
        <dc:type
           rdf:resource="http://purl.org/dc/dcmitype/StillImage" />
      </cc:Work>
    </rdf:RDF>
  </metadata>
  <g
     inkscape:label="Layer 1"
     inkscape:groupmode="layer"
     id="layer1"
     transform="translate(-64.562143,-83.168632)">
    <g
       aria-label="Terminess Nerd Font"
       id="text4136"
       style="line-height:0%;font-family:'TerminessTTF Nerd Font';text-decoration:underline;text-decoration-line:underline;letter-spacing:0px;word-spacing:0px;fill:#ffffff;stroke-width:1px">
      <path
         d="M 64.562143,84.901132 V 83.168632 H 74.902143 V 84.901132 H 70.584643 V 100.38363 H 68.879643 V 84.901132 Z"
         style="font-size:27.5px;line-height:1.25"
         id="path981" />
      <path
         d="M 78.312091,90.401132 80.402091,88.338632 H 86.562091 L 88.652091,90.401132 V 95.213632 H 79.962091 L 80.567091,98.211132 88.652091,98.128632 88.047091,99.943632 80.814591,100.46613 78.312091,98.486132 Z M 87.002091,93.508632 86.479591,90.483632 81.254591,89.961132 80.044591,91.171132 V 93.508632 Z"
         style="font-size:27.5px;line-height:1.25"
         id="path983" />
      <path
         d="M 92.062038,100.38363 V 88.338632 H 93.794538 V 90.401132 L 95.857038,88.338632 H 102.40204 V 90.043632 H 96.984538 L 93.794538,92.903632 V 100.38363 Z"
         style="font-size:27.5px;line-height:1.25"
         id="path985" />
      <path
         d="M 105.81199,100.38363 V 88.338632 H 114.06199 L 116.15199,90.401132 V 100.38363 H 114.50199 L 113.97949,90.648632 111.83449,89.878632 V 100.38363 H 110.12949 V 90.043632 H 107.54449 V 100.38363 Z"
         style="font-size:27.5px;line-height:1.25"
         id="path987" />
      <path
         d="M 122.14693,90.043632 V 88.338632 H 125.58443 V 98.651132 H 127.31693 V 100.38363 H 122.14693 V 98.651132 H 123.87943 V 90.043632 Z M 123.87943,86.633632 V 83.168632 H 125.58443 V 86.633632 Z"
         style="font-size:27.5px;line-height:1.25"
         id="path989" />
      <path
         d="M 133.31188,100.38363 V 88.338632 H 141.56188 L 143.65188,90.401132 V 100.38363 H 142.00188 L 141.47938,90.483632 135.04438,89.961132 V 100.38363 Z"
         style="font-size:27.5px;line-height:1.25"
         id="path991" />
      <path
         d="M 147.06183,90.401132 149.15183,88.338632 H 155.31183 L 157.40183,90.401132 V 95.213632 H 148.71183 L 149.31683,98.211132 157.40183,98.128632 156.79683,99.943632 149.56433,100.46613 147.06183,98.486132 Z M 155.75183,93.508632 155.22933,90.483632 150.00433,89.961132 148.79433,91.171132 V 93.508632 Z"
         style="font-size:27.5px;line-height:1.25"
         id="path993" />
      <path
         d="M 160.81178,90.401132 162.90178,88.338632 H 169.25428 L 171.23428,90.758632 162.98428,90.483632 V 93.068632 L 169.66678,93.921132 171.56428,96.918632 169.66678,99.943632 162.79178,100.46613 160.72928,97.963632 168.97928,98.211132 V 95.653632 L 162.98428,95.048632 160.81178,93.316132 Z"
         style="font-size:27.5px;line-height:1.25"
         id="path995" />
      <path
         d="M 174.56172,90.401132 176.65172,88.338632 H 183.00422 L 184.98422,90.758632 176.73422,90.483632 V 93.068632 L 183.41672,93.921132 185.31422,96.918632 183.41672,99.943632 176.54172,100.46613 174.47922,97.963632 182.72922,98.211132 V 95.653632 L 176.73422,95.048632 174.56172,93.316132 Z"
         style="font-size:27.5px;line-height:1.25"
         id="path997" />
      <path
         d="M 202.06162,100.38363 V 83.168632 H 203.79412 V 87.128632 L 210.66912,93.838632 V 83.168632 H 212.40162 V 100.38363 H 210.66912 V 96.423632 L 203.79412,89.713632 V 100.38363 Z"
         style="font-size:27.5px;line-height:1.25"
         id="path999" />
      <path
         d="M 215.81156,90.401132 217.90156,88.338632 H 224.06156 L 226.15156,90.401132 V 95.213632 H 217.46156 L 218.06656,98.211132 226.15156,98.128632 225.54656,99.943632 218.31406,100.46613 215.81156,98.486132 Z M 224.50156,93.508632 223.97906,90.483632 218.75406,89.961132 217.54406,91.171132 V 93.508632 Z"
         style="font-size:27.5px;line-height:1.25"
         id="path1001" />
      <path
         d="M 229.56152,100.38363 V 88.338632 H 231.29402 V 90.401132 L 233.35652,88.338632 H 239.90152 V 90.043632 H 234.48402 L 231.29402,92.903632 V 100.38363 Z"
         style="font-size:27.5px;line-height:1.25"
         id="path1003" />
      <path
         d="M 251.91896,88.338632 V 83.168632 H 253.65146 V 100.38363 H 245.40146 L 243.31146,98.293632 V 90.401132 L 245.40146,88.338632 Z M 251.91896,98.733632 V 90.043632 H 245.81396 L 244.96146,92.463632 245.48396,98.211132 Z"
         style="font-size:27.5px;line-height:1.25"
         id="path1005" />
      <path
         d="M 270.81135,100.38363 V 83.168632 H 281.15135 V 84.901132 H 272.54385 V 90.923632 H 278.56635 V 92.628632 H 272.54385 V 100.38363 Z"
         style="font-size:27.5px;line-height:1.25"
         id="path1007" />
      <path
         d="M 284.5613,90.401132 286.6513,88.338632 H 292.8113 L 294.9013,90.401132 V 98.293632 L 292.8113,100.38363 H 286.6513 L 284.5613,98.293632 Z M 292.7288,98.211132 V 90.483632 L 287.1463,89.961132 286.2113,92.463632 286.7338,98.211132 Z"
         style="font-size:27.5px;line-height:1.25"
         id="path1009" />
      <path
         d="M 298.31126,100.38363 V 88.338632 H 306.56126 L 308.65126,90.401132 V 100.38363 H 307.00126 L 306.47876,90.483632 300.04376,89.961132 V 100.38363 Z"
         style="font-size:27.5px;line-height:1.25"
         id="path1011" />
      <path
         d="M 315.5262,88.338632 V 83.168632 H 317.2312 V 88.338632 H 320.6687 V 90.043632 H 317.1487 L 317.6712,98.211132 322.4012,98.733632 V 100.38363 H 317.5612 L 315.5262,98.293632 V 90.043632 H 312.0612 V 88.338632 Z"
         style="font-size:27.5px;line-height:1.25"
         id="path1013" />
    </g>
    <g
       aria-label="abcdefghijklmnopqrstuvwxyz
ABCDEFGHIJKLMNOPQRSTUVWXYZ 
oO08 iIlL1 {} [] g9qCGQ ~-+=&gt;"
       id="text4140"
       style="line-height:0%;font-family:'TerminessTTF Nerd Font';letter-spacing:0px;word-spacing:0px;fill:#ffffff;stroke-width:1px">
      <path
         d="M 67.064403,133.95112 V 132.91862 H 71.754403 L 73.084403,134.23112 V 140.58362 H 67.834403 L 66.504403,139.25362 V 136.96112 L 67.834403,135.64862 H 72.086903 L 71.596903,134.28362 Z M 71.981903,139.48112 V 136.75112 H 68.096903 L 67.501903,138.32612 68.201903,139.48112 Z"
         style="font-size:17.5px;line-height:1.25"
         id="path828" />
      <path
         d="M 75.25437,140.58362 V 129.62862 H 76.35687 V 132.91862 H 80.50437 L 81.83437,134.23112 V 139.25362 L 80.50437,140.58362 Z M 80.45187,139.20112 V 134.28362 L 76.35687,133.95112 V 139.53362 Z"
         style="font-size:17.5px;line-height:1.25"
         id="path830" />
      <path
         d="M 84.004336,134.23112 85.334336,132.91862 H 89.376836 L 90.741836,134.56362 90.024336,135.26362 88.449336,133.95112 85.386836,134.28362 V 139.20112 L 88.449336,139.53362 90.024336,138.22112 90.741836,138.93862 89.376836,140.58362 H 85.334336 L 84.004336,139.25362 Z"
         style="font-size:17.5px;line-height:1.25"
         id="path832" />
      <path
         d="M 98.231804,132.91862 V 129.62862 H 99.334304 V 140.58362 H 94.084304 L 92.754304,139.25362 V 134.23112 L 94.084304,132.91862 Z M 98.231804,139.53362 V 134.00362 H 94.346804 L 93.804304,135.54362 94.136804,139.20112 Z"
         style="font-size:17.5px;line-height:1.25"
         id="path834" />
      <path
         d="M 101.50427,134.23112 102.83427,132.91862 H 106.75427 L 108.08427,134.23112 V 137.29362 H 102.55427 L 102.93927,139.20112 108.08427,139.14862 107.69927,140.30362 103.09677,140.63612 101.50427,139.37612 Z M 107.03427,136.20862 106.70177,134.28362 103.37677,133.95112 102.60677,134.72112 V 136.20862 Z"
         style="font-size:17.5px;line-height:1.25"
         id="path836" />
      <path
         d="M 113.00174,130.95862 114.31424,129.62862 H 117.37674 V 130.67862 L 114.36674,131.01112 114.03424,132.91862 H 116.27424 V 134.00362 H 114.08674 V 140.58362 H 113.00174 V 134.00362 H 110.81424 V 132.91862 H 113.00174 Z"
         style="font-size:17.5px;line-height:1.25"
         id="path838" />
      <path
         d="M 119.0042,134.23112 120.3342,132.91862 H 125.5842 V 142.00112 L 124.2542,143.31362 H 119.5642 V 142.26362 L 124.0967,141.94862 124.5867,140.58362 H 120.3342 L 119.0042,139.25362 Z M 124.4817,139.53362 V 134.00362 H 120.5967 L 120.0542,135.54362 120.3867,139.20112 Z"
         style="font-size:17.5px;line-height:1.25"
         id="path840" />
      <path
         d="M 127.75417,140.58362 V 129.62862 H 128.85667 V 132.91862 H 133.00417 L 134.33417,134.23112 V 140.58362 H 133.28417 L 132.95167,134.28362 128.85667,133.95112 V 140.58362 Z"
         style="font-size:17.5px;line-height:1.25"
         id="path842" />
      <path
         d="M 138.14914,134.00362 V 132.91862 H 140.33664 V 139.48112 H 141.43914 V 140.58362 H 138.14914 V 139.48112 H 139.25164 V 134.00362 Z M 139.25164,131.83362 V 129.62862 H 140.33664 V 131.83362 Z"
         style="font-size:17.5px;line-height:1.25"
         id="path844" />
      <path
         d="M 149.08661,134.00362 V 132.91862 H 151.27411 V 142.10612 L 149.69911,143.36612 146.74161,143.03362 145.58661,141.17862 146.35661,140.35612 147.77411,142.33362 149.90911,141.94862 150.24161,134.00362 Z M 150.18911,131.83362 V 129.62862 H 151.27411 V 131.83362 Z"
         style="font-size:17.5px;line-height:1.25"
         id="path846" />
      <path
         d="M 154.56407,140.58362 V 129.62862 H 155.64907 V 136.41862 L 159.25407,132.91862 H 160.79407 L 157.08407,136.75112 160.79407,140.58362 H 159.25407 L 155.64907,137.08362 V 140.58362 Z"
         style="font-size:17.5px;line-height:1.25"
         id="path848" />
      <path
         d="M 164.39904,130.73112 V 129.62862 H 166.58654 V 139.48112 H 167.68904 V 140.58362 H 164.39904 V 139.48112 H 165.50154 V 130.73112 Z"
         style="font-size:17.5px;line-height:1.25"
         id="path850" />
      <path
         d="M 171.50401,140.58362 V 132.91862 H 176.75401 L 178.08401,134.23112 V 140.58362 H 177.03401 L 176.70151,134.38862 175.33651,133.89862 V 140.58362 H 174.25151 V 134.00362 H 172.60651 V 140.58362 Z"
         style="font-size:17.5px;line-height:1.25"
         id="path852" />
      <path
         d="M 180.25397,140.58362 V 132.91862 H 185.50397 L 186.83397,134.23112 V 140.58362 H 185.78397 L 185.45147,134.28362 181.35647,133.95112 V 140.58362 Z"
         style="font-size:17.5px;line-height:1.25"
         id="path854" />
      <path
         d="M 189.00394,134.23112 190.33394,132.91862 H 194.25394 L 195.58394,134.23112 V 139.25362 L 194.25394,140.58362 H 190.33394 L 189.00394,139.25362 Z M 194.20144,139.20112 V 134.28362 L 190.64894,133.95112 190.05394,135.54362 190.38644,139.20112 Z"
         style="font-size:17.5px;line-height:1.25"
         id="path856" />
      <path
         d="M 197.7539,143.31362 V 132.91862 H 203.0039 L 204.3339,134.23112 V 139.25362 L 203.0039,140.58362 H 198.8564 V 143.31362 Z M 202.9514,139.20112 V 134.28362 L 198.8564,133.95112 V 139.53362 Z"
         style="font-size:17.5px;line-height:1.25"
         id="path858" />
      <path
         d="M 206.50387,134.23112 207.83387,132.91862 H 213.08387 V 143.31362 H 211.98137 V 140.58362 H 207.83387 L 206.50387,139.25362 Z M 211.98137,139.53362 V 134.00362 H 208.09637 L 207.55387,135.54362 207.88637,139.20112 Z"
         style="font-size:17.5px;line-height:1.25"
         id="path860" />
      <path
         d="M 215.25384,140.58362 V 132.91862 H 216.35634 V 134.23112 L 217.66884,132.91862 H 221.83384 V 134.00362 H 218.38634 L 216.35634,135.82362 V 140.58362 Z"
         style="font-size:17.5px;line-height:1.25"
         id="path862" />
      <path
         d="M 224.00381,134.23112 225.33381,132.91862 H 229.37631 L 230.63631,134.45862 225.38631,134.28362 V 135.92862 L 229.63881,136.47112 230.84631,138.37862 229.63881,140.30362 225.26381,140.63612 223.95131,139.04362 229.20131,139.20112 V 137.57362 L 225.38631,137.18862 224.00381,136.08612 Z"
         style="font-size:17.5px;line-height:1.25"
         id="path864" />
      <path
         d="M 234.95876,132.91862 V 129.62862 H 236.04376 V 132.91862 H 238.23126 V 134.00362 H 235.99126 L 236.32376,139.20112 239.33376,139.53362 V 140.58362 H 236.25376 L 234.95876,139.25362 V 134.00362 H 232.75376 V 132.91862 Z"
         style="font-size:17.5px;line-height:1.25"
         id="path866" />
      <path
         d="M 241.50373,139.25362 V 132.91862 H 242.55373 L 242.88623,139.20112 246.98123,139.53362 V 132.91862 H 248.08373 V 140.58362 H 242.83373 Z"
         style="font-size:17.5px;line-height:1.25"
         id="path868" />
      <path
         d="M 250.2537,133.74112 V 132.91862 H 251.1287 L 253.0537,138.93862 H 254.0337 L 255.9587,132.91862 H 256.8337 V 133.74112 L 254.4187,140.58362 H 252.6687 Z"
         style="font-size:17.5px;line-height:1.25"
         id="path870" />
      <path
         d="M 259.00367,139.25362 V 132.91862 H 260.05367 L 260.38617,139.09612 261.75117,139.58612 V 135.10612 H 262.83617 V 139.58612 L 264.20117,139.09612 264.53367,132.91862 H 265.58367 V 139.25362 L 264.25367,140.58362 H 260.33367 Z"
         style="font-size:17.5px;line-height:1.25"
         id="path872" />
      <path
         d="M 267.75364,134.23112 V 132.91862 H 268.36614 L 271.04364,135.92862 273.72114,132.91862 H 274.33364 V 134.23112 L 271.97114,136.75112 274.33364,139.25362 V 140.58362 H 273.72114 L 271.04364,137.57362 268.36614,140.58362 H 267.75364 V 139.25362 L 270.11614,136.75112 Z"
         style="font-size:17.5px;line-height:1.25"
         id="path874" />
      <path
         d="M 276.50361,139.25362 V 132.91862 H 277.55361 L 277.88611,139.20112 281.98111,139.53362 V 132.91862 H 283.08361 V 142.00112 L 281.75361,143.31362 H 277.06361 V 142.26362 L 281.59611,141.94862 282.08611,140.58362 H 277.83361 Z"
         style="font-size:17.5px;line-height:1.25"
         id="path876" />
      <path
         d="M 285.25356,134.00362 V 132.91862 H 291.83356 V 134.23112 L 286.68856,139.48112 H 291.83356 V 140.58362 H 285.25356 V 139.25362 L 290.39856,134.00362 Z"
         style="font-size:17.5px;line-height:1.25"
         id="path878" />
      <path
         d="M 66.504403,152.83362 67.834403,151.50362 H 71.754403 L 73.084403,152.83362 V 162.45862 H 71.981903 V 158.08362 H 67.606903 V 162.45862 H 66.504403 Z M 72.034403,156.98112 71.701903,152.88612 68.376903,152.55362 67.606903,153.32362 V 156.98112 Z"
         style="font-size:17.5px;line-height:1.25"
         id="path880" />
      <path
         d="M 75.25437,162.45862 V 151.50362 H 80.50437 L 81.83437,152.83362 V 155.12612 L 80.50437,156.43862 81.83437,157.75112 V 161.12862 L 80.50437,162.45862 Z M 80.45187,155.61612 V 152.88612 L 76.35687,152.55362 V 155.94862 Z M 80.83687,158.57362 79.52437,156.98112 H 76.35687 V 161.40862 L 80.45187,161.07612 Z"
         style="font-size:17.5px;line-height:1.25"
         id="path882" />
      <path
         d="M 84.004336,152.83362 85.386836,151.45112 89.639336,151.78362 90.794336,153.63862 90.024336,154.46112 88.606836,152.50112 85.386836,152.88612 V 161.07612 L 88.606836,161.46112 90.024336,159.50112 90.794336,160.32362 89.639336,162.17862 85.596836,162.51112 84.004336,161.25112 Z"
         style="font-size:17.5px;line-height:1.25"
         id="path884" />
      <path
         d="M 92.754304,162.45862 V 151.50362 H 97.129304 L 99.334304,153.70862 V 160.25362 L 97.129304,162.45862 Z M 98.231804,153.91862 96.919304,152.60612 H 93.856804 V 161.35612 H 96.919304 L 98.231804,160.04362 Z"
         style="font-size:17.5px;line-height:1.25"
         id="path886" />
      <path
         d="M 101.50427,162.45862 V 151.50362 H 108.08427 V 152.60612 H 102.60677 V 156.43862 H 106.43927 V 157.52362 H 102.60677 V 161.35612 H 108.08427 V 162.45862 Z"
         style="font-size:17.5px;line-height:1.25"
         id="path888" />
      <path
         d="M 110.25424,162.45862 V 151.50362 H 116.83424 V 152.60612 H 111.35674 V 156.43862 H 115.18924 V 157.52362 H 111.35674 V 162.45862 Z"
         style="font-size:17.5px;line-height:1.25"
         id="path890" />
      <path
         d="M 119.0042,152.83362 120.3867,151.45112 124.6392,151.78362 125.7942,153.63862 125.0242,154.46112 123.6067,152.50112 120.3867,152.88612 V 161.07612 H 124.2017 L 124.5342,157.52362 H 122.2942 V 156.43862 H 125.5842 V 161.12862 L 124.2542,162.45862 H 120.3342 L 119.0042,161.12862 Z"
         style="font-size:17.5px;line-height:1.25"
         id="path892" />
      <path
         d="M 127.75417,162.45862 V 151.50362 H 128.85667 V 156.43862 H 133.23167 V 151.50362 H 134.33417 V 162.45862 H 133.23167 V 157.52362 H 128.85667 V 162.45862 Z"
         style="font-size:17.5px;line-height:1.25"
         id="path894" />
      <path
         d="M 138.14914,152.60612 V 151.50362 H 141.43914 V 152.60612 H 140.33664 V 161.35612 H 141.43914 V 162.45862 H 138.14914 V 161.35612 H 139.25164 V 152.60612 Z"
         style="font-size:17.5px;line-height:1.25"
         id="path896" />
      <path
         d="M 149.08661,152.60612 V 151.50362 H 152.37661 V 152.60612 H 151.27411 V 161.12862 L 149.96161,162.45862 H 146.58411 L 145.25411,161.12862 V 159.16862 H 146.25161 L 146.84661,161.40862 149.90911,161.07612 150.24161,152.60612 Z"
         style="font-size:17.5px;line-height:1.25"
         id="path898" />
      <path
         d="M 154.00407,162.45862 V 151.50362 H 155.10657 V 156.10612 L 160.02407,151.29362 160.79407,152.06362 155.98157,156.98112 160.79407,161.89862 160.02407,162.66862 155.10657,157.85612 V 162.45862 Z"
         style="font-size:17.5px;line-height:1.25"
         id="path900" />
      <path
         d="M 162.75404,162.45862 V 151.50362 H 163.85654 V 161.35612 H 169.33404 V 162.45862 Z"
         style="font-size:17.5px;line-height:1.25"
         id="path902" />
      <path
         d="M 170.96151,162.45862 V 151.50362 H 171.78401 L 173.97151,154.79362 H 175.07401 L 177.26151,151.50362 H 178.08401 V 162.45862 H 176.98151 V 153.42862 L 174.95151,156.54362 H 174.07651 L 172.06401,153.42862 V 162.45862 Z"
         style="font-size:17.5px;line-height:1.25"
         id="path904" />
      <path
         d="M 180.25397,162.45862 V 151.50362 H 181.35647 V 154.02362 L 185.73147,158.29362 V 151.50362 H 186.83397 V 162.45862 H 185.73147 V 159.93862 L 181.35647,155.66862 V 162.45862 Z"
         style="font-size:17.5px;line-height:1.25"
         id="path906" />
      <path
         d="M 189.00394,152.83362 190.33394,151.50362 H 194.25394 L 195.58394,152.83362 V 161.12862 L 194.25394,162.45862 H 190.33394 L 189.00394,161.12862 Z M 194.20144,161.07612 V 152.88612 L 190.64894,152.55362 190.05394,154.07612 190.38644,161.07612 Z"
         style="font-size:17.5px;line-height:1.25"
         id="path908" />
      <path
         d="M 197.7539,162.45862 V 151.50362 H 203.0039 L 204.3339,152.83362 V 156.75362 L 203.0039,158.08362 H 198.8564 V 162.45862 Z M 202.9514,156.70112 V 152.88612 L 198.8564,152.55362 V 157.03362 Z"
         style="font-size:17.5px;line-height:1.25"
         id="path910" />
      <path
         d="M 206.50387,152.83362 207.83387,151.50362 H 211.87637 L 213.18887,153.09612 212.85637,162.17862 213.67887,163.54362 H 212.03387 L 211.38637,162.45862 H 207.83387 L 206.50387,161.12862 Z M 212.03387,160.86612 211.70137,152.88612 208.14887,152.55362 207.55387,154.07612 207.88637,161.07612 209.89887,161.46112 209.07637,160.09612 Z"
         style="font-size:17.5px;line-height:1.25"
         id="path912" />
      <path
         d="M 215.25384,162.45862 V 151.50362 H 220.50384 L 221.83384,152.83362 V 156.75362 L 220.50384,158.08362 H 218.33384 L 222.04384,161.89862 221.27384,162.66862 216.35634,157.85612 V 162.45862 Z M 220.45134,156.70112 V 152.88612 L 216.35634,152.55362 V 157.03362 Z"
         style="font-size:17.5px;line-height:1.25"
         id="path914" />
      <path
         d="M 224.00381,152.83362 225.38631,151.45112 229.63881,151.78362 230.79381,153.63862 230.02381,154.46112 228.60631,152.50112 225.38631,152.88612 V 156.15862 L 229.20131,156.54362 230.58381,157.62862 V 161.25112 L 228.99131,162.51112 224.94881,162.17862 223.79381,160.32362 224.56381,159.50112 225.98131,161.46112 229.20131,161.07612 V 157.80362 L 225.38631,157.41862 224.00381,156.33362 Z"
         style="font-size:17.5px;line-height:1.25"
         id="path916" />
      <path
         d="M 232.75376,152.60612 V 151.50362 H 239.33376 V 152.60612 H 236.58626 V 162.45862 H 235.50126 V 152.60612 Z"
         style="font-size:17.5px;line-height:1.25"
         id="path918" />
      <path
         d="M 241.50373,161.12862 V 151.50362 H 242.55373 L 242.88623,161.07612 H 246.70123 L 247.03373,151.50362 H 248.08373 V 161.12862 L 246.75373,162.45862 H 242.83373 Z"
         style="font-size:17.5px;line-height:1.25"
         id="path920" />
      <path
         d="M 250.8662,156.15862 250.0962,151.50362 H 251.0762 L 252.9487,160.37612 253.5437,160.97112 254.1387,160.37612 256.0112,151.50362 H 256.9912 L 256.2212,156.15862 254.4712,162.45862 H 252.6162 Z"
         style="font-size:17.5px;line-height:1.25"
         id="path922" />
      <path
         d="M 258.46117,162.45862 V 151.50362 H 259.56367 V 160.53362 L 261.57617,157.41862 H 262.45117 L 264.48117,160.53362 V 151.50362 H 265.58367 V 162.45862 H 264.76117 L 262.57367,159.16862 H 261.47117 L 259.28367,162.45862 Z"
         style="font-size:17.5px;line-height:1.25"
         id="path924" />
      <path
         d="M 267.75364,152.01112 V 151.50362 H 268.69864 L 270.65864,155.87862 H 271.42864 L 273.38864,151.50362 H 274.33364 V 152.01112 L 271.91864,156.98112 274.33364,161.95112 V 162.45862 H 273.38864 L 271.42864,158.08362 H 270.65864 L 268.69864,162.45862 H 267.75364 V 161.95112 L 270.16864,156.98112 Z"
         style="font-size:17.5px;line-height:1.25"
         id="path926" />
      <path
         d="M 276.50361,152.65862 V 151.50362 H 277.32611 L 279.35611,156.43862 H 280.23111 L 282.26111,151.50362 H 283.08361 V 152.65862 L 280.33611,158.01362 V 162.45862 H 279.25111 V 158.01362 Z"
         style="font-size:17.5px;line-height:1.25"
         id="path928" />
      <path
         d="M 285.25356,152.60612 V 151.50362 H 291.83356 V 154.58362 L 286.35606,159.93862 V 161.35612 H 291.83356 V 162.45862 H 285.25356 V 159.37862 L 290.73106,154.02362 V 152.60612 Z"
         style="font-size:17.5px;line-height:1.25"
         id="path930" />
      <path
         d="M 66.504403,177.98112 67.834403,176.66862 H 71.754403 L 73.084403,177.98112 V 183.00362 L 71.754403,184.33362 H 67.834403 L 66.504403,183.00362 Z M 71.701903,182.95112 V 178.03362 L 68.149403,177.70112 67.554403,179.29362 67.886903,182.95112 Z"
         style="font-size:17.5px;line-height:1.25"
         id="path932" />
      <path
         d="M 75.25437,174.70862 76.58437,173.37862 H 80.50437 L 81.83437,174.70862 V 183.00362 L 80.50437,184.33362 H 76.58437 L 75.25437,183.00362 Z M 80.45187,182.95112 V 174.76112 L 76.89937,174.42862 76.30437,175.95112 76.63687,182.95112 Z"
         style="font-size:17.5px;line-height:1.25"
         id="path934" />
      <path
         d="M 84.004336,174.70862 85.334336,173.37862 H 89.254336 L 90.584336,174.70862 V 183.00362 L 89.254336,184.33362 H 85.334336 L 84.004336,183.00362 Z M 89.639336,175.68862 88.886836,174.48112 H 85.824336 L 85.106836,175.19862 V 180.22112 Z M 88.991836,183.23112 89.534336,181.70862 89.201836,177.70112 85.001836,182.02362 85.701836,183.23112 Z"
         style="font-size:17.5px;line-height:1.25"
         id="path936" />
      <path
         d="M 92.876804,174.76112 93.961804,173.37862 H 98.126804 L 99.211804,174.76112 V 182.95112 L 98.126804,184.33362 H 93.961804 L 92.876804,182.95112 Z M 97.951804,178.03362 V 174.76112 L 94.399304,174.42862 93.751804,176.07362 94.136804,178.03362 Z M 97.951804,182.95112 V 179.67862 L 94.399304,179.34612 93.751804,180.99112 94.136804,182.95112 Z"
         style="font-size:17.5px;line-height:1.25"
         id="path938" />
      <path
         d="M 111.89924,177.75362 V 176.66862 H 114.08674 V 183.23112 H 115.18924 V 184.33362 H 111.89924 V 183.23112 H 113.00174 V 177.75362 Z M 113.00174,175.58362 V 173.37862 H 114.08674 V 175.58362 Z"
         style="font-size:17.5px;line-height:1.25"
         id="path940" />
      <path
         d="M 120.6492,174.48112 V 173.37862 H 123.9392 V 174.48112 H 122.8367 V 183.23112 H 123.9392 V 184.33362 H 120.6492 V 183.23112 H 121.7517 V 174.48112 Z"
         style="font-size:17.5px;line-height:1.25"
         id="path942" />
      <path
         d="M 129.39917,174.48112 V 173.37862 H 131.58667 V 183.23112 H 132.68917 V 184.33362 H 129.39917 V 183.23112 H 130.50167 V 174.48112 Z"
         style="font-size:17.5px;line-height:1.25"
         id="path944" />
      <path
         d="M 136.50414,184.33362 V 173.37862 H 137.60664 V 183.23112 H 143.08414 V 184.33362 Z"
         style="font-size:17.5px;line-height:1.25"
         id="path946" />
      <path
         d="M 146.35661,175.40862 148.15911,173.37862 H 149.08661 V 183.23112 H 150.73161 V 184.33362 H 146.35661 V 183.23112 H 148.00161 V 175.63612 L 146.35661,176.23112 Z"
         style="font-size:17.5px;line-height:1.25"
         id="path948" />
      <path
         d="M 164.95904,174.70862 166.25404,173.37862 H 168.23154 V 174.37612 L 166.14904,174.86612 165.71154,178.85612 166.14904,182.84612 168.23154,183.33612 V 184.33362 H 166.25404 L 164.95904,183.00362 V 179.39862 H 163.31404 V 178.31362 H 164.95904 Z"
         style="font-size:17.5px;line-height:1.25"
         id="path950" />
      <path
         d="M 172.06401,174.37612 V 173.37862 H 174.02401 L 175.33651,174.70862 V 178.31362 H 176.98151 V 179.39862 H 175.33651 V 183.00362 L 174.02401,184.33362 H 172.06401 V 183.33612 L 174.12901,182.84612 174.58401,178.85612 174.12901,174.86612 Z"
         style="font-size:17.5px;line-height:1.25"
         id="path952" />
      <path
         d="M 190.10644,184.33362 V 173.37862 H 193.93894 V 174.48112 H 191.20894 V 183.23112 H 193.93894 V 184.33362 Z"
         style="font-size:17.5px;line-height:1.25"
         id="path954" />
      <path
         d="M 198.8564,174.48112 V 173.37862 H 202.6889 V 184.33362 H 198.8564 V 183.23112 H 201.5864 V 174.48112 Z"
         style="font-size:17.5px;line-height:1.25"
         id="path956" />
      <path
         d="M 215.25384,177.98112 216.58384,176.66862 H 221.83384 V 185.75112 L 220.50384,187.06362 H 215.81384 V 186.01362 L 220.34634,185.69862 220.83634,184.33362 H 216.58384 L 215.25384,183.00362 Z M 220.73134,183.28362 V 177.75362 H 216.84634 L 216.30384,179.29362 216.63634,182.95112 Z"
         style="font-size:17.5px;line-height:1.25"
         id="path958" />
      <path
         d="M 224.00381,174.70862 225.33381,173.37862 H 229.25381 L 230.58381,174.70862 V 183.00362 L 229.25381,184.33362 H 224.56381 V 183.28362 L 229.20131,182.95112 229.53381,179.95862 H 225.33381 L 224.00381,178.62862 Z M 229.53381,178.90862 229.20131,174.76112 225.64881,174.42862 225.00131,176.07362 225.38631,178.57612 Z"
         style="font-size:17.5px;line-height:1.25"
         id="path960" />
      <path
         d="M 232.75376,177.98112 234.08376,176.66862 H 239.33376 V 187.06362 H 238.23126 V 184.33362 H 234.08376 L 232.75376,183.00362 Z M 238.23126,183.28362 V 177.75362 H 234.34626 L 233.80376,179.29362 234.13626,182.95112 Z"
         style="font-size:17.5px;line-height:1.25"
         id="path962" />
      <path
         d="M 241.50373,174.70862 242.88623,173.32612 247.13873,173.65862 248.29373,175.51362 247.52373,176.33612 246.10623,174.37612 242.88623,174.76112 V 182.95112 L 246.10623,183.33612 247.52373,181.37612 248.29373,182.19862 247.13873,184.05362 243.09623,184.38612 241.50373,183.12612 Z"
         style="font-size:17.5px;line-height:1.25"
         id="path964" />
      <path
         d="M 250.2537,174.70862 251.6362,173.32612 255.8887,173.65862 257.0437,175.51362 256.2737,176.33612 254.8562,174.37612 251.6362,174.76112 V 182.95112 H 255.4512 L 255.7837,179.39862 H 253.5437 V 178.31362 H 256.8337 V 183.00362 L 255.5037,184.33362 H 251.5837 L 250.2537,183.00362 Z"
         style="font-size:17.5px;line-height:1.25"
         id="path966" />
      <path
         d="M 259.00367,174.70862 260.33367,173.37862 H 264.37617 L 265.68867,174.97112 265.35617,184.05362 266.17867,185.41862 H 264.53367 L 263.88617,184.33362 H 260.33367 L 259.00367,183.00362 Z M 264.53367,182.74112 264.20117,174.76112 260.64867,174.42862 260.05367,175.95112 260.38617,182.95112 262.39867,183.33612 261.57617,181.97112 Z"
         style="font-size:17.5px;line-height:1.25"
         id="path968" />
      <path
         d="M 276.50361,173.60612 277.83361,172.29362 H 278.91861 L 281.49111,174.70862 282.08611,172.29362 H 283.13611 L 282.80361,174.63862 280.94861,175.79362 278.09611,173.16862 277.50111,175.58362 H 276.50361 Z"
         style="font-size:17.5px;line-height:1.25"
         id="path970" />
      <path
         d="M 285.25356,179.39862 V 178.31362 H 291.83356 V 179.39862 Z"
         style="font-size:17.5px;line-height:1.25"
         id="path972" />
      <path
         d="M 296.75103,178.31362 V 175.58362 H 297.83603 V 178.31362 H 300.58353 V 179.39862 H 297.83603 V 182.12862 H 296.75103 V 179.39862 H 294.00353 V 178.31362 Z"
         style="font-size:17.5px;line-height:1.25"
         id="path974" />
      <path
         d="M 302.7535,181.04362 V 179.95862 H 309.3335 V 181.04362 Z M 302.7535,177.75362 V 176.66862 H 309.3335 V 177.75362 Z"
         style="font-size:17.5px;line-height:1.25"
         id="path976" />
      <path
         d="M 316.64847,178.85612 311.29347,173.37862 H 312.93847 L 318.29347,178.85612 312.93847,184.33362 H 311.29347 Z"
         style="font-size:17.5px;line-height:1.25"
         id="path978" />
    </g>
  </g>
</svg>
