<?xml version="1.0" encoding="UTF-8" standalone="no"?>
<svg
   version="1.1"
   id="svg2"
   viewBox="0 0 257.83998 103.89499"
   height="29.321474mm"
   width="72.768173mm"
   sodipodi:docname="Terminess Nerd Font.svg"
   xmlns:inkscape="http://www.inkscape.org/namespaces/inkscape"
   xmlns:sodipodi="http://sodipodi.sourceforge.net/DTD/sodipodi-0.dtd"
   xmlns="http://www.w3.org/2000/svg"
   xmlns:svg="http://www.w3.org/2000/svg"
   xmlns:rdf="http://www.w3.org/1999/02/22-rdf-syntax-ns#"
   xmlns:cc="http://creativecommons.org/ns#"
   xmlns:dc="http://purl.org/dc/elements/1.1/">
  <sodipodi:namedview
     id="namedview12"
     pagecolor="#ffffff"
     bordercolor="#666666"
     borderopacity="1.0"
     inkscape:showpageshadow="2"
     inkscape:pageopacity="0.0"
     inkscape:pagecheckerboard="0"
     inkscape:deskcolor="#d1d1d1"
     inkscape:document-units="mm" />
  <defs
     id="defs4" />
  <metadata
     id="metadata7">
    <rdf:RDF>
      <cc:Work
         rdf:about="">
        <dc:format>image/svg+xml</dc:format>
        <dc:type
           rdf:resource="http://purl.org/dc/dcmitype/StillImage" />
        <dc:title />
      </cc:Work>
    </rdf:RDF>
  </metadata>
  <g
     id="layer1"
     transform="translate(-64.562143,-83.168632)">
    <g
       aria-label="Terminess Nerd Font"
       id="text4136"
       style="font-size:27.5px;font-family:'Terminess Nerd Font';letter-spacing:0px;word-spacing:0px;fill:#ffffff">
      <path
         d="M 64.562143,84.901132 V 83.168632 H 74.902143 V 84.901132 H 70.584643 V 100.38363 H 68.879643 V 84.901132 Z"
         id="path14" />
      <path
         d="M 78.312143,90.401132 80.402143,88.338632 H 86.562143 L 88.652143,90.401132 V 95.213632 H 79.962143 L 80.567143,98.211132 88.652143,98.128632 88.047143,99.943632 80.814643,100.46613 78.312143,98.486132 Z M 87.002143,93.508632 86.479643,90.483632 81.254643,89.961132 80.044643,91.171132 V 93.508632 Z"
         id="path16" />
      <path
         d="M 92.062143,100.38363 V 88.338632 H 93.794643 V 90.401132 L 95.857143,88.338632 H 102.40214 V 90.043632 H 96.984643 L 93.794643,92.903632 V 100.38363 Z"
         id="path18" />
      <path
         d="M 105.81214,100.38363 V 88.338632 H 114.06214 L 116.15214,90.401132 V 100.38363 H 114.50214 L 113.97964,90.648632 111.83464,89.878632 V 100.38363 H 110.12964 V 90.043632 H 107.54464 V 100.38363 Z"
         id="path20" />
      <path
         d="M 122.14714,90.043632 V 88.338632 H 125.58464 V 98.651132 H 127.31714 V 100.38363 H 122.14714 V 98.651132 H 123.87964 V 90.043632 Z M 123.87964,86.633632 V 83.168632 H 125.58464 V 86.633632 Z"
         id="path22" />
      <path
         d="M 133.31214,100.38363 V 88.338632 H 141.56214 L 143.65214,90.401132 V 100.38363 H 142.00214 L 141.47964,90.483632 135.04464,89.961132 V 100.38363 Z"
         id="path24" />
      <path
         d="M 147.06214,90.401132 149.15214,88.338632 H 155.31214 L 157.40214,90.401132 V 95.213632 H 148.71214 L 149.31714,98.211132 157.40214,98.128632 156.79714,99.943632 149.56464,100.46613 147.06214,98.486132 Z M 155.75214,93.508632 155.22964,90.483632 150.00464,89.961132 148.79464,91.171132 V 93.508632 Z"
         id="path26" />
      <path
         d="M 160.81214,90.401132 162.90214,88.338632 H 169.25464 L 171.23464,90.758632 162.98464,90.483632 V 93.068632 L 169.66714,93.921132 171.56464,96.918632 169.66714,99.943632 162.79214,100.46613 160.72964,97.963632 168.97964,98.211132 V 95.653632 L 162.98464,95.048632 160.81214,93.316132 Z"
         id="path28" />
      <path
         d="M 174.56214,90.401132 176.65214,88.338632 H 183.00464 L 184.98464,90.758632 176.73464,90.483632 V 93.068632 L 183.41714,93.921132 185.31464,96.918632 183.41714,99.943632 176.54214,100.46613 174.47964,97.963632 182.72964,98.211132 V 95.653632 L 176.73464,95.048632 174.56214,93.316132 Z"
         id="path30" />
      <path
         d="M 202.06214,100.38363 V 83.168632 H 203.79464 V 87.128632 L 210.66964,93.838632 V 83.168632 H 212.40214 V 100.38363 H 210.66964 V 96.423632 L 203.79464,89.713632 V 100.38363 Z"
         id="path32" />
      <path
         d="M 215.81214,90.401132 217.90214,88.338632 H 224.06214 L 226.15214,90.401132 V 95.213632 H 217.46214 L 218.06714,98.211132 226.15214,98.128632 225.54714,99.943632 218.31464,100.46613 215.81214,98.486132 Z M 224.50214,93.508632 223.97964,90.483632 218.75464,89.961132 217.54464,91.171132 V 93.508632 Z"
         id="path34" />
      <path
         d="M 229.56214,100.38363 V 88.338632 H 231.29464 V 90.401132 L 233.35714,88.338632 H 239.90214 V 90.043632 H 234.48464 L 231.29464,92.903632 V 100.38363 Z"
         id="path36" />
      <path
         d="M 251.91964,88.338632 V 83.168632 H 253.65214 V 100.38363 H 245.40214 L 243.31214,98.293632 V 90.401132 L 245.40214,88.338632 Z M 251.91964,98.733632 V 90.043632 H 245.81464 L 244.96214,92.463632 245.48464,98.211132 Z"
         id="path38" />
      <path
         d="M 270.81214,100.38363 V 83.168632 H 281.15214 V 84.901132 H 272.54464 V 90.923632 H 278.56714 V 92.628632 H 272.54464 V 100.38363 Z"
         id="path40" />
      <path
         d="M 284.56214,90.401132 286.65214,88.338632 H 292.81214 L 294.90214,90.401132 V 98.293632 L 292.81214,100.38363 H 286.65214 L 284.56214,98.293632 Z M 292.72964,98.211132 V 90.483632 L 287.14714,89.961132 286.21214,92.463632 286.73464,98.211132 Z"
         id="path42" />
      <path
         d="M 298.31214,100.38363 V 88.338632 H 306.56214 L 308.65214,90.401132 V 100.38363 H 307.00214 L 306.47964,90.483632 300.04464,89.961132 V 100.38363 Z"
         id="path44" />
      <path
         d="M 315.52714,88.338632 V 83.168632 H 317.23214 V 88.338632 H 320.66964 V 90.043632 H 317.14964 L 317.67214,98.211132 322.40214,98.733632 V 100.38363 H 317.56214 L 315.52714,98.293632 V 90.043632 H 312.06214 V 88.338632 Z"
         id="path46" />
    </g>
    <g
       aria-label="abcdefghijklmnopqrstuvwxyzABCDEFGHIJKLMNOPQRSTUVWXYZ oO08 iIlL1 {} [] g9qCGQ ~-+=&gt;"
       id="text4140"
       style="font-size:17.5px;font-family:'Terminess Nerd Font';letter-spacing:0px;word-spacing:0px;fill:#ffffff">
      <path
         d="M 67.064403,133.95112 V 132.91862 H 71.754403 L 73.084403,134.23112 V 140.58362 H 67.834403 L 66.504403,139.25362 V 136.96112 L 67.834403,135.64862 H 72.086903 L 71.596903,134.28362 Z M 71.981903,139.48112 V 136.75112 H 68.096903 L 67.501903,138.32612 68.201903,139.48112 Z"
         id="path49" />
      <path
         d="M 75.254403,140.58362 V 129.62862 H 76.356903 V 132.91862 H 80.504403 L 81.834403,134.23112 V 139.25362 L 80.504403,140.58362 Z M 80.451903,139.20112 V 134.28362 L 76.356903,133.95112 V 139.53362 Z"
         id="path51" />
      <path
         d="M 84.004403,134.23112 85.334403,132.91862 H 89.376903 L 90.741903,134.56362 90.024403,135.26362 88.449403,133.95112 85.386903,134.28362 V 139.20112 L 88.449403,139.53362 90.024403,138.22112 90.741903,138.93862 89.376903,140.58362 H 85.334403 L 84.004403,139.25362 Z"
         id="path53" />
      <path
         d="M 98.231903,132.91862 V 129.62862 H 99.334403 V 140.58362 H 94.084403 L 92.754403,139.25362 V 134.23112 L 94.084403,132.91862 Z M 98.231903,139.53362 V 134.00362 H 94.346903 L 93.804403,135.54362 94.136903,139.20112 Z"
         id="path55" />
      <path
         d="M 101.5044,134.23112 102.8344,132.91862 H 106.7544 L 108.0844,134.23112 V 137.29362 H 102.5544 L 102.9394,139.20112 108.0844,139.14862 107.6994,140.30362 103.0969,140.63612 101.5044,139.37612 Z M 107.0344,136.20862 106.7019,134.28362 103.3769,133.95112 102.6069,134.72112 V 136.20862 Z"
         id="path57" />
      <path
         d="M 113.0019,130.95862 114.3144,129.62862 H 117.3769 V 130.67862 L 114.3669,131.01112 114.0344,132.91862 H 116.2744 V 134.00362 H 114.0869 V 140.58362 H 113.0019 V 134.00362 H 110.8144 V 132.91862 H 113.0019 Z"
         id="path59" />
      <path
         d="M 119.0044,134.23112 120.3344,132.91862 H 125.5844 V 142.00112 L 124.2544,143.31362 H 119.5644 V 142.26362 L 124.0969,141.94862 124.5869,140.58362 H 120.3344 L 119.0044,139.25362 Z M 124.4819,139.53362 V 134.00362 H 120.5969 L 120.0544,135.54362 120.3869,139.20112 Z"
         id="path61" />
      <path
         d="M 127.7544,140.58362 V 129.62862 H 128.8569 V 132.91862 H 133.0044 L 134.3344,134.23112 V 140.58362 H 133.2844 L 132.9519,134.28362 128.8569,133.95112 V 140.58362 Z"
         id="path63" />
      <path
         d="M 138.1494,134.00362 V 132.91862 H 140.3369 V 139.48112 H 141.4394 V 140.58362 H 138.1494 V 139.48112 H 139.2519 V 134.00362 Z M 139.2519,131.83362 V 129.62862 H 140.3369 V 131.83362 Z"
         id="path65" />
      <path
         d="M 149.0869,134.00362 V 132.91862 H 151.2744 V 142.10612 L 149.6994,143.36612 146.7419,143.03362 145.5869,141.17862 146.3569,140.35612 147.7744,142.33362 149.9094,141.94862 150.2419,134.00362 Z M 150.1894,131.83362 V 129.62862 H 151.2744 V 131.83362 Z"
         id="path67" />
      <path
         d="M 154.5644,140.58362 V 129.62862 H 155.6494 V 136.41862 L 159.2544,132.91862 H 160.7944 L 157.0844,136.75112 160.7944,140.58362 H 159.2544 L 155.6494,137.08362 V 140.58362 Z"
         id="path69" />
      <path
         d="M 164.3994,130.73112 V 129.62862 H 166.5869 V 139.48112 H 167.6894 V 140.58362 H 164.3994 V 139.48112 H 165.5019 V 130.73112 Z"
         id="path71" />
      <path
         d="M 171.5044,140.58362 V 132.91862 H 176.7544 L 178.0844,134.23112 V 140.58362 H 177.0344 L 176.7019,134.38862 175.3369,133.89862 V 140.58362 H 174.2519 V 134.00362 H 172.6069 V 140.58362 Z"
         id="path73" />
      <path
         d="M 180.2544,140.58362 V 132.91862 H 185.5044 L 186.8344,134.23112 V 140.58362 H 185.7844 L 185.4519,134.28362 181.3569,133.95112 V 140.58362 Z"
         id="path75" />
      <path
         d="M 189.0044,134.23112 190.3344,132.91862 H 194.2544 L 195.5844,134.23112 V 139.25362 L 194.2544,140.58362 H 190.3344 L 189.0044,139.25362 Z M 194.2019,139.20112 V 134.28362 L 190.6494,133.95112 190.0544,135.54362 190.3869,139.20112 Z"
         id="path77" />
      <path
         d="M 197.7544,143.31362 V 132.91862 H 203.0044 L 204.3344,134.23112 V 139.25362 L 203.0044,140.58362 H 198.8569 V 143.31362 Z M 202.9519,139.20112 V 134.28362 L 198.8569,133.95112 V 139.53362 Z"
         id="path79" />
      <path
         d="M 206.5044,134.23112 207.8344,132.91862 H 213.0844 V 143.31362 H 211.9819 V 140.58362 H 207.8344 L 206.5044,139.25362 Z M 211.9819,139.53362 V 134.00362 H 208.0969 L 207.5544,135.54362 207.8869,139.20112 Z"
         id="path81" />
      <path
         d="M 215.2544,140.58362 V 132.91862 H 216.3569 V 134.23112 L 217.6694,132.91862 H 221.8344 V 134.00362 H 218.3869 L 216.3569,135.82362 V 140.58362 Z"
         id="path83" />
      <path
         d="M 224.0044,134.23112 225.3344,132.91862 H 229.3769 L 230.6369,134.45862 225.3869,134.28362 V 135.92862 L 229.6394,136.47112 230.8469,138.37862 229.6394,140.30362 225.2644,140.63612 223.9519,139.04362 229.2019,139.20112 V 137.57362 L 225.3869,137.18862 224.0044,136.08612 Z"
         id="path85" />
      <path
         d="M 234.9594,132.91862 V 129.62862 H 236.0444 V 132.91862 H 238.2319 V 134.00362 H 235.9919 L 236.3244,139.20112 239.3344,139.53362 V 140.58362 H 236.2544 L 234.9594,139.25362 V 134.00362 H 232.7544 V 132.91862 Z"
         id="path87" />
      <path
         d="M 241.5044,139.25362 V 132.91862 H 242.5544 L 242.8869,139.20112 246.9819,139.53362 V 132.91862 H 248.0844 V 140.58362 H 242.8344 Z"
         id="path89" />
      <path
         d="M 250.2544,133.74112 V 132.91862 H 251.1294 L 253.0544,138.93862 H 254.0344 L 255.9594,132.91862 H 256.8344 V 133.74112 L 254.4194,140.58362 H 252.6694 Z"
         id="path91" />
      <path
         d="M 259.0044,139.25362 V 132.91862 H 260.0544 L 260.3869,139.09612 261.7519,139.58612 V 135.10612 H 262.8369 V 139.58612 L 264.2019,139.09612 264.5344,132.91862 H 265.5844 V 139.25362 L 264.2544,140.58362 H 260.3344 Z"
         id="path93" />
      <path
         d="M 267.7544,134.23112 V 132.91862 H 268.3669 L 271.0444,135.92862 273.7219,132.91862 H 274.3344 V 134.23112 L 271.9719,136.75112 274.3344,139.25362 V 140.58362 H 273.7219 L 271.0444,137.57362 268.3669,140.58362 H 267.7544 V 139.25362 L 270.1169,136.75112 Z"
         id="path95" />
      <path
         d="M 276.5044,139.25362 V 132.91862 H 277.5544 L 277.8869,139.20112 281.9819,139.53362 V 132.91862 H 283.0844 V 142.00112 L 281.7544,143.31362 H 277.0644 V 142.26362 L 281.5969,141.94862 282.0869,140.58362 H 277.8344 Z"
         id="path97" />
      <path
         d="M 285.2544,134.00362 V 132.91862 H 291.8344 V 134.23112 L 286.6894,139.48112 H 291.8344 V 140.58362 H 285.2544 V 139.25362 L 290.3994,134.00362 Z"
         id="path99" />
      <path
         d="M 66.504403,152.83362 67.834403,151.50362 H 71.754403 L 73.084403,152.83362 V 162.45862 H 71.981903 V 158.08362 H 67.606903 V 162.45862 H 66.504403 Z M 72.034403,156.98112 71.701903,152.88612 68.376903,152.55362 67.606903,153.32362 V 156.98112 Z"
         id="path101" />
      <path
         d="M 75.254403,162.45862 V 151.50362 H 80.504403 L 81.834403,152.83362 V 155.12612 L 80.504403,156.43862 81.834403,157.75112 V 161.12862 L 80.504403,162.45862 Z M 80.451903,155.61612 V 152.88612 L 76.356903,152.55362 V 155.94862 Z M 80.836903,158.57362 79.524403,156.98112 H 76.356903 V 161.40862 L 80.451903,161.07612 Z"
         id="path103" />
      <path
         d="M 84.004403,152.83362 85.386903,151.45112 89.639403,151.78362 90.794403,153.63862 90.024403,154.46112 88.606903,152.50112 85.386903,152.88612 V 161.07612 L 88.606903,161.46112 90.024403,159.50112 90.794403,160.32362 89.639403,162.17862 85.596903,162.51112 84.004403,161.25112 Z"
         id="path105" />
      <path
         d="M 92.754403,162.45862 V 151.50362 H 97.129403 L 99.334403,153.70862 V 160.25362 L 97.129403,162.45862 Z M 98.231903,153.91862 96.919403,152.60612 H 93.856903 V 161.35612 H 96.919403 L 98.231903,160.04362 Z"
         id="path107" />
      <path
         d="M 101.5044,162.45862 V 151.50362 H 108.0844 V 152.60612 H 102.6069 V 156.43862 H 106.4394 V 157.52362 H 102.6069 V 161.35612 H 108.0844 V 162.45862 Z"
         id="path109" />
      <path
         d="M 110.2544,162.45862 V 151.50362 H 116.8344 V 152.60612 H 111.3569 V 156.43862 H 115.1894 V 157.52362 H 111.3569 V 162.45862 Z"
         id="path111" />
      <path
         d="M 119.0044,152.83362 120.3869,151.45112 124.6394,151.78362 125.7944,153.63862 125.0244,154.46112 123.6069,152.50112 120.3869,152.88612 V 161.07612 H 124.2019 L 124.5344,157.52362 H 122.2944 V 156.43862 H 125.5844 V 161.12862 L 124.2544,162.45862 H 120.3344 L 119.0044,161.12862 Z"
         id="path113" />
      <path
         d="M 127.7544,162.45862 V 151.50362 H 128.8569 V 156.43862 H 133.2319 V 151.50362 H 134.3344 V 162.45862 H 133.2319 V 157.52362 H 128.8569 V 162.45862 Z"
         id="path115" />
      <path
         d="M 138.1494,152.60612 V 151.50362 H 141.4394 V 152.60612 H 140.3369 V 161.35612 H 141.4394 V 162.45862 H 138.1494 V 161.35612 H 139.2519 V 152.60612 Z"
         id="path117" />
      <path
         d="M 149.0869,152.60612 V 151.50362 H 152.3769 V 152.60612 H 151.2744 V 161.12862 L 149.9619,162.45862 H 146.5844 L 145.2544,161.12862 V 159.16862 H 146.2519 L 146.8469,161.40862 149.9094,161.07612 150.2419,152.60612 Z"
         id="path119" />
      <path
         d="M 154.0044,162.45862 V 151.50362 H 155.1069 V 156.10612 L 160.0244,151.29362 160.7944,152.06362 155.9819,156.98112 160.7944,161.89862 160.0244,162.66862 155.1069,157.85612 V 162.45862 Z"
         id="path121" />
      <path
         d="M 162.7544,162.45862 V 151.50362 H 163.8569 V 161.35612 H 169.3344 V 162.45862 Z"
         id="path123" />
      <path
         d="M 170.9619,162.45862 V 151.50362 H 171.7844 L 173.9719,154.79362 H 175.0744 L 177.2619,151.50362 H 178.0844 V 162.45862 H 176.9819 V 153.42862 L 174.9519,156.54362 H 174.0769 L 172.0644,153.42862 V 162.45862 Z"
         id="path125" />
      <path
         d="M 180.2544,162.45862 V 151.50362 H 181.3569 V 154.02362 L 185.7319,158.29362 V 151.50362 H 186.8344 V 162.45862 H 185.7319 V 159.93862 L 181.3569,155.66862 V 162.45862 Z"
         id="path127" />
      <path
         d="M 189.0044,152.83362 190.3344,151.50362 H 194.2544 L 195.5844,152.83362 V 161.12862 L 194.2544,162.45862 H 190.3344 L 189.0044,161.12862 Z M 194.2019,161.07612 V 152.88612 L 190.6494,152.55362 190.0544,154.07612 190.3869,161.07612 Z"
         id="path129" />
      <path
         d="M 197.7544,162.45862 V 151.50362 H 203.0044 L 204.3344,152.83362 V 156.75362 L 203.0044,158.08362 H 198.8569 V 162.45862 Z M 202.9519,156.70112 V 152.88612 L 198.8569,152.55362 V 157.03362 Z"
         id="path131" />
      <path
         d="M 206.5044,152.83362 207.8344,151.50362 H 211.8769 L 213.1894,153.09612 212.8569,162.17862 213.6794,163.54362 H 212.0344 L 211.3869,162.45862 H 207.8344 L 206.5044,161.12862 Z M 212.0344,160.86612 211.7019,152.88612 208.1494,152.55362 207.5544,154.07612 207.8869,161.07612 209.8994,161.46112 209.0769,160.09612 Z"
         id="path133" />
      <path
         d="M 215.2544,162.45862 V 151.50362 H 220.5044 L 221.8344,152.83362 V 156.75362 L 220.5044,158.08362 H 218.3344 L 222.0444,161.89862 221.2744,162.66862 216.3569,157.85612 V 162.45862 Z M 220.4519,156.70112 V 152.88612 L 216.3569,152.55362 V 157.03362 Z"
         id="path135" />
      <path
         d="M 224.0044,152.83362 225.3869,151.45112 229.6394,151.78362 230.7944,153.63862 230.0244,154.46112 228.6069,152.50112 225.3869,152.88612 V 156.15862 L 229.2019,156.54362 230.5844,157.62862 V 161.25112 L 228.9919,162.51112 224.9494,162.17862 223.7944,160.32362 224.5644,159.50112 225.9819,161.46112 229.2019,161.07612 V 157.80362 L 225.3869,157.41862 224.0044,156.33362 Z"
         id="path137" />
      <path
         d="M 232.7544,152.60612 V 151.50362 H 239.3344 V 152.60612 H 236.5869 V 162.45862 H 235.5019 V 152.60612 Z"
         id="path139" />
      <path
         d="M 241.5044,161.12862 V 151.50362 H 242.5544 L 242.8869,161.07612 H 246.7019 L 247.0344,151.50362 H 248.0844 V 161.12862 L 246.7544,162.45862 H 242.8344 Z"
         id="path141" />
      <path
         d="M 250.8669,156.15862 250.0969,151.50362 H 251.0769 L 252.9494,160.37612 253.5444,160.97112 254.1394,160.37612 256.0119,151.50362 H 256.9919 L 256.2219,156.15862 254.4719,162.45862 H 252.6169 Z"
         id="path143" />
      <path
         d="M 258.4619,162.45862 V 151.50362 H 259.5644 V 160.53362 L 261.5769,157.41862 H 262.4519 L 264.4819,160.53362 V 151.50362 H 265.5844 V 162.45862 H 264.7619 L 262.5744,159.16862 H 261.4719 L 259.2844,162.45862 Z"
         id="path145" />
      <path
         d="M 267.7544,152.01112 V 151.50362 H 268.6994 L 270.6594,155.87862 H 271.4294 L 273.3894,151.50362 H 274.3344 V 152.01112 L 271.9194,156.98112 274.3344,161.95112 V 162.45862 H 273.3894 L 271.4294,158.08362 H 270.6594 L 268.6994,162.45862 H 267.7544 V 161.95112 L 270.1694,156.98112 Z"
         id="path147" />
      <path
         d="M 276.5044,152.65862 V 151.50362 H 277.3269 L 279.3569,156.43862 H 280.2319 L 282.2619,151.50362 H 283.0844 V 152.65862 L 280.3369,158.01362 V 162.45862 H 279.2519 V 158.01362 Z"
         id="path149" />
      <path
         d="M 285.2544,152.60612 V 151.50362 H 291.8344 V 154.58362 L 286.3569,159.93862 V 161.35612 H 291.8344 V 162.45862 H 285.2544 V 159.37862 L 290.7319,154.02362 V 152.60612 Z"
         id="path151" />
      <path
         d="M 66.504403,177.98112 67.834403,176.66862 H 71.754403 L 73.084403,177.98112 V 183.00362 L 71.754403,184.33362 H 67.834403 L 66.504403,183.00362 Z M 71.701903,182.95112 V 178.03362 L 68.149403,177.70112 67.554403,179.29362 67.886903,182.95112 Z"
         id="path153" />
      <path
         d="M 75.254403,174.70862 76.584403,173.37862 H 80.504403 L 81.834403,174.70862 V 183.00362 L 80.504403,184.33362 H 76.584403 L 75.254403,183.00362 Z M 80.451903,182.95112 V 174.76112 L 76.899403,174.42862 76.304403,175.95112 76.636903,182.95112 Z"
         id="path155" />
      <path
         d="M 84.004403,174.70862 85.334403,173.37862 H 89.254403 L 90.584403,174.70862 V 183.00362 L 89.254403,184.33362 H 85.334403 L 84.004403,183.00362 Z M 89.639403,175.68862 88.886903,174.48112 H 85.824403 L 85.106903,175.19862 V 180.22112 Z M 88.991903,183.23112 89.534403,181.70862 89.201903,177.70112 85.001903,182.02362 85.701903,183.23112 Z"
         id="path157" />
      <path
         d="M 92.876903,174.76112 93.961903,173.37862 H 98.126903 L 99.211903,174.76112 V 182.95112 L 98.126903,184.33362 H 93.961903 L 92.876903,182.95112 Z M 97.951903,178.03362 V 174.76112 L 94.399403,174.42862 93.751903,176.07362 94.136903,178.03362 Z M 97.951903,182.95112 V 179.67862 L 94.399403,179.34612 93.751903,180.99112 94.136903,182.95112 Z"
         id="path159" />
      <path
         d="M 111.8994,177.75362 V 176.66862 H 114.0869 V 183.23112 H 115.1894 V 184.33362 H 111.8994 V 183.23112 H 113.0019 V 177.75362 Z M 113.0019,175.58362 V 173.37862 H 114.0869 V 175.58362 Z"
         id="path161" />
      <path
         d="M 120.6494,174.48112 V 173.37862 H 123.9394 V 174.48112 H 122.8369 V 183.23112 H 123.9394 V 184.33362 H 120.6494 V 183.23112 H 121.7519 V 174.48112 Z"
         id="path163" />
      <path
         d="M 129.3994,174.48112 V 173.37862 H 131.5869 V 183.23112 H 132.6894 V 184.33362 H 129.3994 V 183.23112 H 130.5019 V 174.48112 Z"
         id="path165" />
      <path
         d="M 136.5044,184.33362 V 173.37862 H 137.6069 V 183.23112 H 143.0844 V 184.33362 Z"
         id="path167" />
      <path
         d="M 146.3569,175.40862 148.1594,173.37862 H 149.0869 V 183.23112 H 150.7319 V 184.33362 H 146.3569 V 183.23112 H 148.0019 V 175.63612 L 146.3569,176.23112 Z"
         id="path169" />
      <path
         d="M 164.9594,174.70862 166.2544,173.37862 H 168.2319 V 174.37612 L 166.1494,174.86612 165.7119,178.85612 166.1494,182.84612 168.2319,183.33612 V 184.33362 H 166.2544 L 164.9594,183.00362 V 179.39862 H 163.3144 V 178.31362 H 164.9594 Z"
         id="path171" />
      <path
         d="M 172.0644,174.37612 V 173.37862 H 174.0244 L 175.3369,174.70862 V 178.31362 H 176.9819 V 179.39862 H 175.3369 V 183.00362 L 174.0244,184.33362 H 172.0644 V 183.33612 L 174.1294,182.84612 174.5844,178.85612 174.1294,174.86612 Z"
         id="path173" />
      <path
         d="M 190.1069,184.33362 V 173.37862 H 193.9394 V 174.48112 H 191.2094 V 183.23112 H 193.9394 V 184.33362 Z"
         id="path175" />
      <path
         d="M 198.8569,174.48112 V 173.37862 H 202.6894 V 184.33362 H 198.8569 V 183.23112 H 201.5869 V 174.48112 Z"
         id="path177" />
      <path
         d="M 215.2544,177.98112 216.5844,176.66862 H 221.8344 V 185.75112 L 220.5044,187.06362 H 215.8144 V 186.01362 L 220.3469,185.69862 220.8369,184.33362 H 216.5844 L 215.2544,183.00362 Z M 220.7319,183.28362 V 177.75362 H 216.8469 L 216.3044,179.29362 216.6369,182.95112 Z"
         id="path179" />
      <path
         d="M 224.0044,174.70862 225.3344,173.37862 H 229.2544 L 230.5844,174.70862 V 183.00362 L 229.2544,184.33362 H 224.5644 V 183.28362 L 229.2019,182.95112 229.5344,179.95862 H 225.3344 L 224.0044,178.62862 Z M 229.5344,178.90862 229.2019,174.76112 225.6494,174.42862 225.0019,176.07362 225.3869,178.57612 Z"
         id="path181" />
      <path
         d="M 232.7544,177.98112 234.0844,176.66862 H 239.3344 V 187.06362 H 238.2319 V 184.33362 H 234.0844 L 232.7544,183.00362 Z M 238.2319,183.28362 V 177.75362 H 234.3469 L 233.8044,179.29362 234.1369,182.95112 Z"
         id="path183" />
      <path
         d="M 241.5044,174.70862 242.8869,173.32612 247.1394,173.65862 248.2944,175.51362 247.5244,176.33612 246.1069,174.37612 242.8869,174.76112 V 182.95112 L 246.1069,183.33612 247.5244,181.37612 248.2944,182.19862 247.1394,184.05362 243.0969,184.38612 241.5044,183.12612 Z"
         id="path185" />
      <path
         d="M 250.2544,174.70862 251.6369,173.32612 255.8894,173.65862 257.0444,175.51362 256.2744,176.33612 254.8569,174.37612 251.6369,174.76112 V 182.95112 H 255.4519 L 255.7844,179.39862 H 253.5444 V 178.31362 H 256.8344 V 183.00362 L 255.5044,184.33362 H 251.5844 L 250.2544,183.00362 Z"
         id="path187" />
      <path
         d="M 259.0044,174.70862 260.3344,173.37862 H 264.3769 L 265.6894,174.97112 265.3569,184.05362 266.1794,185.41862 H 264.5344 L 263.8869,184.33362 H 260.3344 L 259.0044,183.00362 Z M 264.5344,182.74112 264.2019,174.76112 260.6494,174.42862 260.0544,175.95112 260.3869,182.95112 262.3994,183.33612 261.5769,181.97112 Z"
         id="path189" />
      <path
         d="M 276.5044,173.60612 277.8344,172.29362 H 278.9194 L 281.4919,174.70862 282.0869,172.29362 H 283.1369 L 282.8044,174.63862 280.9494,175.79362 278.0969,173.16862 277.5019,175.58362 H 276.5044 Z"
         id="path191" />
      <path
         d="M 285.2544,179.39862 V 178.31362 H 291.8344 V 179.39862 Z"
         id="path193" />
      <path
         d="M 296.7519,178.31362 V 175.58362 H 297.8369 V 178.31362 H 300.5844 V 179.39862 H 297.8369 V 182.12862 H 296.7519 V 179.39862 H 294.0044 V 178.31362 Z"
         id="path195" />
      <path
         d="M 302.7544,181.04362 V 179.95862 H 309.3344 V 181.04362 Z M 302.7544,177.75362 V 176.66862 H 309.3344 V 177.75362 Z"
         id="path197" />
      <path
         d="M 316.6494,178.85612 311.2944,173.37862 H 312.9394 L 318.2944,178.85612 312.9394,184.33362 H 311.2944 Z"
         id="path199" />
    </g>
  </g>
</svg>
