<?xml version="1.0" encoding="UTF-8" standalone="no"?>
<svg
   version="1.1"
   id="svg2"
   viewBox="0 0 304.45313 106.60766"
   height="30.087049mm"
   width="85.923439mm"
   sodipodi:docname="Tinos Nerd Font.svg"
   xmlns:inkscape="http://www.inkscape.org/namespaces/inkscape"
   xmlns:sodipodi="http://sodipodi.sourceforge.net/DTD/sodipodi-0.dtd"
   xmlns="http://www.w3.org/2000/svg"
   xmlns:svg="http://www.w3.org/2000/svg"
   xmlns:rdf="http://www.w3.org/1999/02/22-rdf-syntax-ns#"
   xmlns:cc="http://creativecommons.org/ns#"
   xmlns:dc="http://purl.org/dc/elements/1.1/">
  <sodipodi:namedview
     id="namedview12"
     pagecolor="#ffffff"
     bordercolor="#666666"
     borderopacity="1.0"
     inkscape:showpageshadow="2"
     inkscape:pageopacity="0.0"
     inkscape:pagecheckerboard="0"
     inkscape:deskcolor="#d1d1d1"
     inkscape:document-units="mm" />
  <defs
     id="defs4" />
  <metadata
     id="metadata7">
    <rdf:RDF>
      <cc:Work
         rdf:about="">
        <dc:format>image/svg+xml</dc:format>
        <dc:type
           rdf:resource="http://purl.org/dc/dcmitype/StillImage" />
        <dc:title />
      </cc:Work>
    </rdf:RDF>
  </metadata>
  <g
     id="layer1"
     transform="translate(-63.35397,-81.852821)">
    <g
       aria-label="Tinos Nerd Font"
       id="text4136"
       style="font-size:27.5px;font-family:'Tinos Nerd Font';letter-spacing:0px;word-spacing:0px;fill:#ffffff">
      <path
         d="M 67.08688,100.93363 V 100.22196 L 69.946987,99.859413 V 84.081825 H 69.262173 Q 65.864956,84.081825 64.616177,84.35038 L 64.253628,87.156776 H 63.35397 V 82.92704 H 79.198696 V 87.156776 H 78.28561 L 77.923061,84.35038 Q 77.520229,84.256386 76.164028,84.189247 74.807827,84.108681 73.196499,84.108681 H 72.53854 V 99.859413 L 75.398647,100.22196 V 100.93363 Z"
         id="path14" />
      <path
         d="M 83.777554,84.189247 Q 83.777554,84.780067 83.347866,85.209755 82.918179,85.639442 82.313931,85.639442 81.72311,85.639442 81.293423,85.209755 80.863735,84.780067 80.863735,84.189247 80.863735,83.584999 81.293423,83.155312 81.72311,82.725624 82.313931,82.725624 82.918179,82.725624 83.347866,83.155312 83.777554,83.584999 83.777554,84.189247 Z M 83.643276,99.99369 85.805141,100.32938 V 100.93363 H 79.265835 V 100.32938 L 81.414272,99.99369 V 89.251503 L 79.628384,88.91581 V 88.311562 H 83.643276 Z"
         id="path16" />
      <path
         d="M 90.679409,89.332069 Q 91.713345,88.741249 92.881557,88.365273 94.04977,87.975868 94.828579,87.975868 96.466763,87.975868 97.299282,88.929237 98.131802,89.882607 98.131802,91.695351 V 99.99369 L 99.662563,100.32938 V 100.93363 H 94.224331 V 100.32938 L 95.902798,99.99369 V 91.93705 Q 95.902798,90.822548 95.352261,90.191444 94.815151,89.546913 93.673794,89.546913 92.465298,89.546913 90.706264,89.936317 V 99.99369 L 92.411587,100.32938 V 100.93363 H 86.959927 V 100.32938 L 88.477261,99.99369 V 89.251503 L 86.959927,88.91581 V 88.311562 H 90.558559 Z"
         id="path18" />
      <path
         d="M 112.78146,94.555458 Q 112.78146,101.20219 106.87326,101.20219 104.02658,101.20219 102.57638,99.496864 101.12619,97.791542 101.12619,94.555458 101.12619,91.359657 102.57638,89.667763 104.02658,87.975868 106.98068,87.975868 109.85421,87.975868 111.31784,89.640907 112.78146,91.292519 112.78146,94.555458 Z M 110.36447,94.555458 Q 110.36447,91.655067 109.51852,90.352577 108.67257,89.050087 106.87326,89.050087 105.11422,89.050087 104.32199,90.298866 103.54318,91.547646 103.54318,94.555458 103.54318,97.603554 104.33541,98.879189 105.14108,100.1414 106.87326,100.1414 108.64572,100.1414 109.50509,98.825478 110.36447,97.50956 110.36447,94.555458 Z"
         id="path20" />
      <path
         d="M 123.53708,97.38871 Q 123.53708,99.268593 122.34201,100.23539 121.16037,101.20219 118.83737,101.20219 117.89743,101.20219 116.75607,101.00077 115.62814,100.81278 114.98361,100.57108 V 97.469276 H 115.58786 L 116.24582,99.22831 Q 117.2529,100.1414 118.86422,100.1414 121.4692,100.1414 121.4692,97.912392 121.4692,96.274208 119.41476,95.575966 L 118.21969,95.186562 Q 116.86349,94.743446 116.24582,94.286903 115.62814,93.83036 115.29245,93.172401 114.95675,92.501015 114.95675,91.561073 114.95675,89.896034 116.08468,88.942665 117.22604,87.975868 119.15963,87.975868 120.54269,87.975868 122.62399,88.392128 V 91.144814 H 121.99289 L 121.42892,89.68119 Q 120.71725,89.050087 119.18649,89.050087 118.09884,89.050087 117.52145,89.587196 116.95749,90.124306 116.95749,91.037392 116.95749,91.802773 117.46774,92.326454 117.99142,92.850136 119.03878,93.199257 121.01266,93.870644 121.61691,94.179482 122.22116,94.488319 122.63742,94.944862 123.0671,95.387978 123.29538,95.96537 123.53708,96.542763 123.53708,97.38871 Z"
         id="path22" />
      <path
         d="M 146.91476,83.987831 144.49777,83.63871 V 82.92704 H 150.63424 V 83.63871 L 148.32467,83.987831 V 100.93363 H 147.02218 L 135.91745,84.739784 V 99.859413 L 138.33444,100.22196 V 100.93363 H 132.19796 V 100.22196 L 134.50753,99.859413 V 83.987831 L 132.19796,83.63871 V 82.92704 H 137.64962 L 146.91476,96.26078 Z"
         id="path24" />
      <path
         d="M 154.75656,94.582314 V 94.824013 Q 154.75656,96.67704 155.15939,97.710976 155.57565,98.731483 156.4216,99.268593 157.28097,99.805702 158.66403,99.805702 159.38913,99.805702 160.38278,99.684853 161.37643,99.564003 162.02096,99.416298 V 100.16825 Q 161.37643,100.58451 160.26193,100.89335 159.16085,101.20219 158.00607,101.20219 155.0654,101.20219 153.69577,99.617714 152.33957,98.033241 152.33957,94.528603 152.33957,91.22538 153.72262,89.600624 155.10568,87.975868 157.67038,87.975868 162.51779,87.975868 162.51779,93.481239 V 94.582314 Z M 157.67038,89.050087 Q 156.27389,89.050087 155.52194,90.178017 154.78341,91.305946 154.78341,93.508095 H 160.18136 Q 160.18136,91.10453 159.56369,90.084023 158.94601,89.050087 157.67038,89.050087 Z"
         id="path26" />
      <path
         d="M 172.38717,87.975868 V 91.386513 H 171.80978 L 171.03097,89.909462 Q 170.35958,89.909462 169.43307,90.09745 168.51999,90.272011 167.8486,90.567421 V 99.99369 L 170.01046,100.32938 V 100.93363 H 164.02169 V 100.32938 L 165.61959,99.99369 V 89.251503 L 164.02169,88.91581 V 88.311562 H 167.70089 L 167.82174,89.882607 Q 168.62741,89.21122 169.99704,88.593544 171.38009,87.975868 172.18576,87.975868 Z"
         id="path28" />
      <path
         d="M 182.33712,99.99369 Q 180.81979,101.20219 178.7922,101.20219 173.62252,101.20219 173.62252,94.743446 173.62252,91.426796 175.08615,89.708046 176.54977,87.975868 179.39645,87.975868 180.84665,87.975868 182.33712,88.284706 182.25656,87.841591 182.25656,86.055702 V 82.779335 L 180.13498,82.457069 V 81.852821 H 184.48556 V 99.99369 L 186.04318,100.32938 V 100.93363 H 182.49826 Z M 176.03952,94.743446 Q 176.03952,97.294716 176.89889,98.556923 177.75827,99.805702 179.53073,99.805702 181.04806,99.805702 182.25656,99.282021 V 89.305214 Q 181.06149,89.076942 179.53073,89.076942 176.03952,89.076942 176.03952,94.743446 Z"
         id="path30" />
      <path
         d="M 198.94723,92.850136 V 99.859413 L 201.94162,100.22196 V 100.93363 H 194.22067 V 100.22196 L 196.35568,99.859413 V 83.987831 L 194.04611,83.63871 V 82.92704 H 207.55441 V 87.237343 H 206.66818 L 206.23849,84.323524 Q 204.73458,84.135536 201.88791,84.135536 H 198.94723 V 91.64164 H 204.25119 L 204.66745,89.493202 H 205.48654 V 95.025429 H 204.66745 L 204.25119,92.850136 Z"
         id="path32" />
      <path
         d="M 221.2507,94.555458 Q 221.2507,101.20219 215.34249,101.20219 212.49582,101.20219 211.04562,99.496864 209.59542,97.791542 209.59542,94.555458 209.59542,91.359657 211.04562,89.667763 212.49582,87.975868 215.44992,87.975868 218.32345,87.975868 219.78708,89.640907 221.2507,91.292519 221.2507,94.555458 Z M 218.83371,94.555458 Q 218.83371,91.655067 217.98776,90.352577 217.14181,89.050087 215.34249,89.050087 213.58346,89.050087 212.79123,90.298866 212.01242,91.547646 212.01242,94.555458 212.01242,97.603554 212.80465,98.879189 213.61032,100.1414 215.34249,100.1414 217.11496,100.1414 217.97433,98.825478 218.83371,97.50956 218.83371,94.555458 Z"
         id="path34" />
      <path
         d="M 226.64865,89.332069 Q 227.68258,88.741249 228.8508,88.365273 230.01901,87.975868 230.79782,87.975868 232.436,87.975868 233.26852,88.929237 234.10104,89.882607 234.10104,91.695351 V 99.99369 L 235.6318,100.32938 V 100.93363 H 230.19357 V 100.32938 L 231.87204,99.99369 V 91.93705 Q 231.87204,90.822548 231.3215,90.191444 230.78439,89.546913 229.64303,89.546913 228.43454,89.546913 226.6755,89.936317 V 99.99369 L 228.38083,100.32938 V 100.93363 H 222.92916 V 100.32938 L 224.4465,99.99369 V 89.251503 L 222.92916,88.91581 V 88.311562 H 226.5278 Z"
         id="path36" />
      <path
         d="M 240.53292,101.20219 Q 239.24386,101.20219 238.59933,100.43681 237.96823,99.671425 237.96823,98.288368 V 89.439491 H 236.31662 V 88.835243 L 237.99508,88.311562 239.35128,85.451454 H 240.19723 V 88.311562 H 243.08419 V 89.439491 H 240.19723 V 98.046669 Q 240.19723,98.919472 240.58664,99.362587 240.98947,99.805702 241.634,99.805702 242.41281,99.805702 243.52731,99.590858 V 100.46366 Q 243.05734,100.78593 242.17111,100.98734 241.28488,101.20219 240.53292,101.20219 Z"
         id="path38" />
    </g>
    <g
       aria-label="abcdefghijklmnopqrstuvwxyzABCDEFGHIJKLMNOPQRSTUVWXYZ oO08 iIlL1 {} [] g9qCGQ ~-+=&gt;"
       id="text4140"
       style="font-size:17.5px;font-family:'Tinos Nerd Font';letter-spacing:0px;word-spacing:0px;fill:#ffffff">
      <path
         d="M 69.392792,132.72195 Q 70.70871,132.72195 71.323944,133.26028 71.947723,133.79861 71.947723,134.90945 V 140.33548 L 72.947479,140.5491 V 140.93362 H 70.742889 L 70.580536,140.1304 Q 69.606415,141.10452 68.093964,141.10452 66.034637,141.10452 66.034637,138.71194 66.034637,137.90872 66.342255,137.38748 66.658417,136.8577 67.34201,136.58426 68.025604,136.30228 69.324432,136.27664 L 70.529266,136.24246 V 134.98636 Q 70.529266,134.1575 70.221649,133.76443 69.922577,133.37137 69.290253,133.37137 68.43576,133.37137 67.726532,133.77298 L 67.436005,134.77274 H 66.957489 V 133.02103 Q 68.341766,132.72195 69.392792,132.72195 Z M 70.529266,136.84061 69.409882,136.87479 Q 68.264862,136.91751 67.854706,137.31912 67.453094,137.72073 67.453094,138.66068 67.453094,140.16458 68.675018,140.16458 69.256073,140.16458 69.674774,140.03641 70.10202,139.89969 70.529266,139.69461 Z"
         id="path41" />
      <path
         d="M 79.732147,136.69534 Q 79.732147,135.12308 79.185272,134.35403 78.638397,133.58499 77.493378,133.58499 76.989227,133.58499 76.493622,133.67899 75.998016,133.76443 75.775848,133.86697 V 140.23294 Q 76.493622,140.36966 77.493378,140.36966 78.672577,140.36966 79.202362,139.44681 79.732147,138.52396 79.732147,136.69534 Z M 74.357391,129.38089 73.186737,129.17581 V 128.79129 H 75.775848 V 131.66238 Q 75.775848,132.12381 75.724579,133.35428 76.579071,132.68777 77.877899,132.68777 79.518524,132.68777 80.390106,133.68753 81.270233,134.67874 81.270233,136.69534 81.270233,138.85721 80.304657,139.98514 79.347626,141.10452 77.527557,141.10452 76.792694,141.10452 75.904022,140.94217 75.023895,140.77982 74.357391,140.51492 Z"
         id="path43" />
      <path
         d="M 89.165741,140.44656 Q 88.74704,140.75418 88.012177,140.93362 87.277313,141.10452 86.50827,141.10452 82.603241,141.10452 82.603241,136.8577 82.603241,134.84964 83.594452,133.77298 84.594208,132.68777 86.448456,132.68777 87.60202,132.68777 88.969208,132.95267 V 135.19144 H 88.499237 L 88.131805,133.77298 Q 87.422577,133.37137 86.431366,133.37137 84.141327,133.37137 84.141327,136.8577 84.141327,138.66922 84.833466,139.44681 85.534149,140.21585 86.995331,140.21585 88.242889,140.21585 89.165741,139.93387 Z"
         id="path45" />
      <path
         d="M 95.88205,140.33548 Q 94.916473,141.10452 93.62619,141.10452 90.336395,141.10452 90.336395,136.99442 90.336395,134.88382 91.267792,133.79007 92.199188,132.68777 94.010712,132.68777 94.933563,132.68777 95.88205,132.88431 95.83078,132.60233 95.83078,131.46585 V 129.38089 L 94.480682,129.17581 V 128.79129 H 97.249237 V 140.33548 L 98.240448,140.5491 V 140.93362 H 95.984589 Z M 91.874481,136.99442 Q 91.874481,138.61795 92.421356,139.42117 92.968231,140.21585 94.096161,140.21585 95.061737,140.21585 95.83078,139.8826 V 133.53372 Q 95.070282,133.38846 94.096161,133.38846 91.874481,133.38846 91.874481,136.99442 Z"
         id="path47" />
      <path
         d="M 100.67575,136.89188 V 137.04568 Q 100.67575,138.22488 100.9321,138.88284 101.19699,139.53226 101.73532,139.87405 102.2822,140.21585 103.16232,140.21585 103.62375,140.21585 104.25607,140.13895 104.8884,140.06204 105.29855,139.96805 V 140.44656 Q 104.8884,140.71146 104.17917,140.90799 103.47849,141.10452 102.74362,141.10452 100.87228,141.10452 100.0007,140.09622 99.137665,139.08792 99.137665,136.8577 99.137665,134.75565 100.01779,133.72171 100.89792,132.68777 102.53,132.68777 105.61472,132.68777 105.61472,136.19119 V 136.89188 Z M 102.53,133.37137 Q 101.64133,133.37137 101.16281,134.08914 100.69284,134.80692 100.69284,136.20828 H 104.1279 Q 104.1279,134.67874 103.73483,134.02933 103.34177,133.37137 102.53,133.37137 Z"
         id="path49" />
      <path
         d="M 108.14401,133.61917 H 106.75974 V 133.20047 L 108.14401,132.86722 V 132.30325 Q 108.14401,130.52591 108.8447,129.56888 109.55392,128.61185 110.82712,128.61185 111.48508,128.61185 112.04904,128.7742 V 130.52591 H 111.63034 L 111.24582,129.47488 Q 110.95529,129.29544 110.54514,129.29544 110.00681,129.29544 109.78464,129.77396 109.56247,130.25247 109.56247,131.56839 V 132.9014 H 111.6987 V 133.61917 H 109.56247 V 140.26712 L 111.29709,140.5491 V 140.93362 H 106.95627 V 140.5491 L 108.14401,140.26712 Z"
         id="path51" />
      <path
         d="M 119.48312,135.43924 Q 119.48312,136.82352 118.65427,137.53275 117.82541,138.24197 116.27023,138.24197 115.56955,138.24197 114.97141,138.1138 L 114.43307,139.23318 Q 114.45871,139.37845 114.76633,139.50662 115.07394,139.6348 115.53537,139.6348 H 117.91086 Q 119.20969,139.6348 119.83347,140.19876 120.46579,140.76273 120.46579,141.75394 120.46579,142.65115 119.96164,143.31766 119.46603,143.98416 118.50046,144.34305 117.53488,144.71048 116.15915,144.71048 114.51852,144.71048 113.65549,144.20633 112.80099,143.70218 112.80099,142.77078 112.80099,142.3179 113.10861,141.87357 113.41623,141.43777 114.23654,140.84818 113.74948,140.68582 113.41623,140.29276 113.08298,139.89969 113.08298,139.44681 L 114.43307,137.92581 Q 113.08298,137.29349 113.08298,135.43924 113.08298,134.12332 113.91183,133.40555 114.74924,132.68777 116.33859,132.68777 116.65475,132.68777 117.15036,132.75613 117.64597,132.81595 117.91086,132.9014 L 119.79929,131.95291 120.09836,132.32034 118.91061,133.55081 Q 119.48312,134.19168 119.48312,135.43924 Z M 119.13278,142.01883 Q 119.13278,141.53177 118.83371,141.25833 118.53464,140.98489 117.92795,140.98489 H 114.8176 Q 114.45871,141.29251 114.228,141.76248 114.00583,142.241 114.00583,142.65115 114.00583,143.38602 114.53561,143.70218 115.0654,144.02689 116.15915,144.02689 117.58615,144.02689 118.35519,143.4971 119.13278,142.96732 119.13278,142.01883 Z M 116.28732,137.59256 Q 117.21872,137.59256 117.60324,137.06277 117.99631,136.52444 117.99631,135.43924 117.99631,134.30276 117.5947,133.82425 117.19308,133.33719 116.30441,133.33719 115.4072,133.33719 114.98849,133.82425 114.56979,134.31131 114.56979,135.43924 114.56979,136.56717 114.97995,137.07986 115.39011,137.59256 116.28732,137.59256 Z"
         id="path53" />
      <path
         d="M 123.58469,132.26907 Q 123.58469,133.15775 123.52487,133.55081 124.14011,133.20047 124.91769,132.94412 125.70383,132.68777 126.24216,132.68777 127.28464,132.68777 127.81442,133.29446 128.34421,133.90115 128.34421,135.05472 V 140.33548 L 129.31833,140.5491 V 140.93362 H 125.85764 V 140.5491 L 126.92575,140.33548 V 135.15726 Q 126.92575,133.68753 125.50729,133.68753 124.70407,133.68753 123.58469,133.93533 V 140.33548 L 124.66989,140.5491 V 140.93362 H 121.14938 V 140.5491 L 122.16623,140.33548 V 129.38089 L 120.96994,129.17581 V 128.79129 H 123.58469 Z"
         id="path55" />
      <path
         d="M 132.78757,130.27811 Q 132.78757,130.65408 132.51413,130.92752 132.24069,131.20096 131.85617,131.20096 131.48019,131.20096 131.20676,130.92752 130.93332,130.65408 130.93332,130.27811 130.93332,129.89359 131.20676,129.62015 131.48019,129.34671 131.85617,129.34671 132.24069,129.34671 132.51413,129.62015 132.78757,129.89359 132.78757,130.27811 Z M 132.70212,140.33548 134.07785,140.5491 V 140.93362 H 129.91647 V 140.5491 L 131.28366,140.33548 V 133.49954 L 130.14719,133.28592 V 132.9014 H 132.70212 Z"
         id="path57" />
      <path
         d="M 137.76926,130.27811 Q 137.76926,130.65408 137.49582,130.92752 137.22238,131.20096 136.84641,131.20096 136.46188,131.20096 136.18845,130.92752 135.91501,130.65408 135.91501,130.27811 135.91501,129.89359 136.18845,129.62015 136.46188,129.34671 136.84641,129.34671 137.22238,129.34671 137.49582,129.62015 137.76926,129.89359 137.76926,130.27811 Z M 137.68381,141.26688 Q 137.68381,142.93314 137.03439,143.79617 136.39352,144.65921 135.14597,144.65921 134.61618,144.65921 133.90695,144.5054 V 142.80496 H 134.30856 L 134.53928,143.73636 Q 134.82126,143.97562 135.2485,143.97562 135.75266,143.97562 136.009,143.43729 136.26535,142.89896 136.26535,141.70267 V 133.49954 L 135.06052,133.28592 V 132.9014 H 137.68381 Z"
         id="path59" />
      <path
         d="M 142.21262,137.06277 145.50241,133.51663 144.66501,133.28592 V 132.9014 H 147.50192 V 133.28592 L 146.50217,133.48245 144.21213,135.82376 147.15158,140.35257 148.02316,140.5491 V 140.93362 H 144.73337 V 140.5491 L 145.46823,140.33548 143.26364,136.87479 142.21262,138.02835 V 140.33548 L 143.06711,140.5491 V 140.93362 H 139.77731 V 140.5491 L 140.79416,140.33548 V 129.38089 L 139.60641,129.17581 V 128.79129 H 142.21262 Z"
         id="path61" />
      <path
         d="M 151.15915,140.33548 152.53488,140.5491 V 140.93362 H 148.3735 V 140.5491 L 149.74069,140.33548 V 129.38089 L 148.3735,129.17581 V 128.79129 H 151.15915 Z"
         id="path63" />
      <path
         d="M 155.67087,133.55081 Q 156.31174,133.18338 157.02951,132.93558 157.74728,132.68777 158.29416,132.68777 158.88376,132.68777 159.37936,132.90994 159.88351,133.13211 160.13132,133.61917 160.78928,133.25174 161.6694,132.96976 162.55807,132.68777 163.13913,132.68777 165.18991,132.68777 165.18991,135.05472 V 140.33548 L 166.22385,140.5491 V 140.93362 H 162.57516 V 140.5491 L 163.77145,140.33548 V 135.20853 Q 163.77145,133.7388 162.40427,133.7388 162.1821,133.7388 161.88303,133.77298 161.5925,133.80716 161.29343,133.84988 161.0029,133.89261 160.72946,133.95242 160.46457,134.00369 160.28513,134.03787 160.43039,134.4993 160.43039,135.05472 V 140.33548 L 161.63522,140.5491 V 140.93362 H 157.82419 V 140.5491 L 159.01193,140.33548 V 135.20853 Q 159.01193,134.4993 158.6445,134.12332 158.28561,133.7388 157.5593,133.7388 156.80734,133.7388 155.68796,133.9866 V 140.33548 L 156.89279,140.5491 V 140.93362 H 153.25266 V 140.5491 L 154.2695,140.33548 V 133.49954 L 153.25266,133.28592 V 132.9014 H 155.60251 Z"
         id="path65" />
      <path
         d="M 169.26584,133.55081 Q 169.9238,133.17484 170.66721,132.93558 171.41061,132.68777 171.90622,132.68777 172.9487,132.68777 173.47849,133.29446 174.00827,133.90115 174.00827,135.05472 V 140.33548 L 174.98239,140.5491 V 140.93362 H 171.5217 V 140.5491 L 172.58981,140.33548 V 135.20853 Q 172.58981,134.4993 172.23947,134.09769 171.89767,133.68753 171.17136,133.68753 170.40231,133.68753 169.28293,133.93533 V 140.33548 L 170.36813,140.5491 V 140.93362 H 166.8989 V 140.5491 L 167.86447,140.33548 V 133.49954 L 166.8989,133.28592 V 132.9014 H 169.18893 Z"
         id="path67" />
      <path
         d="M 183.33078,136.87479 Q 183.33078,141.10452 179.57101,141.10452 177.75949,141.10452 176.83664,140.01932 175.91379,138.93411 175.91379,136.87479 175.91379,134.84109 176.83664,133.76443 177.75949,132.68777 179.63937,132.68777 181.46799,132.68777 182.39938,133.74734 183.33078,134.79837 183.33078,136.87479 Z M 181.79269,136.87479 Q 181.79269,135.02908 181.25436,134.20023 180.71603,133.37137 179.57101,133.37137 178.45163,133.37137 177.94748,134.16605 177.45187,134.96072 177.45187,136.87479 177.45187,138.81448 177.95602,139.62625 178.46872,140.42947 179.57101,140.42947 180.69894,140.42947 181.24582,139.59207 181.79269,138.75467 181.79269,136.87479 Z"
         id="path69" />
      <path
         d="M 185.29611,133.49954 184.38181,133.28592 V 132.9014 H 186.63766 L 186.65475,133.37137 Q 187.01364,133.06375 187.61179,132.87576 188.21848,132.68777 188.84225,132.68777 190.38034,132.68777 191.21774,133.75589 192.06369,134.82401 192.06369,136.82352 192.06369,138.86575 191.14084,139.98514 190.22653,141.10452 188.49191,141.10452 187.52634,141.10452 186.65475,140.91653 186.70602,141.53177 186.70602,141.88211 V 144.05252 L 188.10739,144.2576 V 144.65921 H 184.27927 V 144.2576 L 185.29611,144.05252 Z M 190.5256,136.82352 Q 190.5256,135.18289 189.98727,134.38821 189.45749,133.58499 188.37228,133.58499 187.37253,133.58499 186.70602,133.86697 V 140.28421 Q 187.46652,140.42947 188.37228,140.42947 190.5256,140.42947 190.5256,136.82352 Z"
         id="path71" />
      <path
         d="M 199.69431,132.51688 H 200.29245 V 144.05252 L 201.18112,144.2576 V 144.65921 H 197.7717 V 144.2576 L 198.87399,144.05252 V 141.8223 Q 198.87399,140.99344 198.95944,140.39529 198.04514,141.10452 196.6694,141.10452 193.37961,141.10452 193.37961,136.94315 193.37961,134.88382 194.30246,133.79007 195.23386,132.68777 197.01974,132.68777 197.97678,132.68777 198.92526,132.88431 Z M 194.91769,136.94315 Q 194.91769,138.57523 195.45602,139.39554 196.0029,140.21585 197.13937,140.21585 197.64352,140.21585 198.13058,140.1304 198.62619,140.04495 198.87399,139.93387 V 133.53372 Q 198.11349,133.38846 197.13937,133.38846 194.91769,133.38846 194.91769,136.94315 Z"
         id="path73" />
      <path
         d="M 207.17111,132.68777 V 134.85818 H 206.80368 L 206.30807,133.91824 Q 205.88083,133.91824 205.29123,134.03787 204.71017,134.14896 204.28293,134.33694 V 140.33548 L 205.65866,140.5491 V 140.93362 H 201.84763 V 140.5491 L 202.86447,140.33548 V 133.49954 L 201.84763,133.28592 V 132.9014 H 204.18893 L 204.26584,133.90115 Q 204.77853,133.47391 205.65012,133.08084 206.53024,132.68777 207.04294,132.68777 Z"
         id="path75" />
      <path
         d="M 213.5029,138.67776 Q 213.5029,139.87405 212.7424,140.48929 211.99045,141.10452 210.51218,141.10452 209.91403,141.10452 209.18771,140.97635 208.46994,140.85672 208.05978,140.70291 V 138.72903 H 208.44431 L 208.86301,139.84842 Q 209.50388,140.42947 210.52927,140.42947 212.18698,140.42947 212.18698,139.01102 212.18698,137.96854 210.87961,137.5242 L 210.11911,137.2764 Q 209.25607,136.99442 208.86301,136.70389 208.46994,136.41336 208.25632,135.99466 208.04269,135.56741 208.04269,134.96927 208.04269,133.9097 208.76047,133.30301 209.48679,132.68777 210.71725,132.68777 211.59738,132.68777 212.92184,132.95267 V 134.70438 H 212.52023 L 212.16135,133.77298 Q 211.70847,133.37137 210.73434,133.37137 210.04221,133.37137 209.67477,133.71317 209.31589,134.05496 209.31589,134.63602 209.31589,135.12308 209.64059,135.45633 209.97385,135.78958 210.64035,136.01175 211.89645,136.439 212.28098,136.63553 212.6655,136.83206 212.93039,137.12259 213.20383,137.40457 213.34909,137.772 213.5029,138.13943 213.5029,138.67776 Z"
         id="path77" />
      <path
         d="M 216.98923,141.10452 Q 216.16891,141.10452 215.75876,140.61746 215.35715,140.1304 215.35715,139.25027 V 133.61917 H 214.30612 V 133.23465 L 215.37424,132.9014 216.23727,131.08133 H 216.7756 V 132.9014 H 218.61276 V 133.61917 H 216.7756 V 139.09647 Q 216.7756,139.65189 217.02341,139.93387 217.27975,140.21585 217.68991,140.21585 218.18552,140.21585 218.89474,140.07913 V 140.63455 Q 218.59567,140.83963 218.03171,140.9678 217.46774,141.10452 216.98923,141.10452 Z"
         id="path79" />
      <path
         d="M 221.67184,138.64359 Q 221.67184,140.11331 223.03903,140.11331 224.0986,140.11331 225.02145,139.84842 V 133.49954 L 223.80807,133.28592 V 132.9014 H 226.43137 V 140.33548 L 227.44821,140.5491 V 140.93362 H 225.1069 L 225.03854,140.28421 Q 224.43185,140.61746 223.63718,140.86526 222.8425,141.10452 222.30417,141.10452 220.25339,141.10452 220.25339,138.74612 V 133.49954 L 219.228,133.28592 V 132.9014 H 221.67184 Z"
         id="path81" />
      <path
         d="M 232.50681,141.10452 H 231.87448 L 228.5676,133.49954 227.74728,133.28592 V 132.9014 H 231.48996 V 133.28592 L 230.21677,133.51663 232.55807,139.06229 234.79684,133.49954 233.52365,133.28592 V 132.9014 H 236.49728 V 133.28592 L 235.72824,133.46536 Z"
         id="path83" />
      <path
         d="M 245.478,141.10452 H 244.81149 L 242.82907,135.80667 240.87228,141.10452 H 240.23996 L 237.46286,133.49954 236.51437,133.28592 V 132.9014 H 240.33395 V 133.28592 L 239.00095,133.51663 240.90646,138.94266 242.84616,133.70462 H 243.56393 L 245.49509,138.97684 247.31516,133.49954 245.99924,133.28592 V 132.9014 H 249.05832 V 133.28592 L 248.16965,133.46536 Z"
         id="path85" />
      <path
         d="M 257.6716,140.5491 V 140.93362 H 254.03146 V 140.5491 L 255.09958,140.35257 253.24533,137.50711 251.07492,140.36966 252.17722,140.5491 V 140.93362 H 249.28903 V 140.5491 L 250.22043,140.41238 252.86081,136.92606 250.53659,133.49954 249.5881,133.28592 V 132.9014 H 253.22824 V 133.28592 L 252.16013,133.51663 253.70676,135.82376 255.4841,133.49954 254.38181,133.28592 V 132.9014 H 257.26999 V 133.28592 L 256.34714,133.46536 254.09128,136.38773 256.73166,140.36966 Z"
         id="path87" />
      <path
         d="M 259.58566,144.71048 Q 258.91916,144.71048 258.26974,144.55667 V 142.82205 H 258.67136 L 258.95334,143.64236 Q 259.21823,143.8389 259.6882,143.8389 260.13254,143.8389 260.50851,143.58255 260.88449,143.3262 261.19211,142.82205 261.50827,142.3179 261.97824,141.01907 L 258.91916,133.49954 258.09885,133.28592 V 132.9014 H 261.82443 V 133.28592 L 260.55978,133.51663 262.73019,139.13065 264.83224,133.49954 263.57614,133.28592 V 132.9014 H 266.56686 V 133.28592 L 265.72946,133.46536 262.59348,141.43777 Q 262.03806,142.84769 261.6279,143.46292 261.21774,144.07816 260.72214,144.39432 260.22653,144.71048 259.58566,144.71048 Z"
         id="path89" />
      <path
         d="M 267.10519,140.93362 V 140.5491 L 271.51437,133.58499 H 269.62595 Q 269.14743,133.58499 268.70309,133.67044 268.25876,133.74734 268.08786,133.88406 L 267.82297,135.03763 H 267.42136 V 132.9014 H 273.35153 V 133.3201 L 268.94235,140.25003 H 271.29221 Q 271.77927,140.25003 272.3176,140.13895 272.85593,140.01932 273.07809,139.84842 L 273.51389,138.16507 H 273.9155 L 273.70187,140.93362 Z"
         id="path91" />
      <path
         d="M 69.358612,162.35574 V 162.80862 H 65.590302 V 162.35574 L 66.88913,162.12503 70.794159,151.25589 H 72.417694 L 76.476532,162.12503 77.929169,162.35574 V 162.80862 H 73.084198 V 162.35574 L 74.622284,162.12503 73.485809,158.81815 H 68.974091 L 67.820526,162.12503 Z M 71.19577,152.48636 69.230438,158.0491 H 73.220917 Z"
         id="path93" />
      <path
         d="M 86.243378,154.12698 Q 86.243378,153.07596 85.585419,152.59744 84.92746,152.11893 83.449188,152.11893 H 81.680389 V 156.4512 H 83.551727 Q 84.936005,156.4512 85.585419,155.90433 86.243378,155.35745 86.243378,154.12698 Z M 87.106415,159.54446 Q 87.106415,158.33963 86.303192,157.78421 85.499969,157.22025 83.731171,157.22025 H 81.680389 V 162.03958 Q 82.859589,162.09085 84.192596,162.09085 85.653778,162.09085 86.380096,161.47562 87.106415,160.85184 87.106415,159.54446 Z M 78.561493,162.80862 V 162.35574 L 80.031219,162.12503 V 152.02493 L 78.561493,151.80276 V 151.34988 H 83.79953 Q 85.978485,151.34988 86.986786,151.9993 87.995087,152.64017 87.995087,154.04153 87.995087,155.04984 87.371307,155.75906 86.756073,156.46829 85.636688,156.70755 87.183319,156.8699 88.029266,157.61331 88.875214,158.34818 88.875214,159.51028 88.875214,161.15945 87.730194,162.01395 86.593719,162.85989 84.406219,162.85989 L 80.748993,162.80862 Z"
         id="path95" />
      <path
         d="M 96.343475,162.97952 Q 93.557831,162.97952 92.002655,161.46707 90.447479,159.94608 90.447479,157.2117 90.447479,154.25516 91.942841,152.74271 93.438202,151.22171 96.377655,151.22171 98.163544,151.22171 100.21432,151.6575 L 100.26559,154.16116 H 99.70163 L 99.445282,152.67435 Q 98.847137,152.30692 98.05246,152.11038 97.266327,151.9053 96.446014,151.9053 94.249969,151.9053 93.241669,153.19559 92.233368,154.48587 92.233368,157.19461 92.233368,159.68973 93.284393,161.00565 94.343964,162.32156 96.360565,162.32156 97.334686,162.32156 98.197723,162.09085 99.06076,161.85159 99.564911,161.45853 L 99.881073,159.74954 H 100.43649 L 100.38522,162.44119 Q 98.505341,162.97952 96.343475,162.97952 Z"
         id="path97" />
      <path
         d="M 111.55344,156.99808 Q 111.55344,154.59695 110.25461,153.35794 108.96432,152.11893 106.5632,152.11893 H 105.02512 V 162.0054 Q 106.05051,162.07376 107.46042,162.07376 109.56247,162.07376 110.55368,160.83475 111.55344,159.59573 111.55344,156.99808 Z M 107.11008,151.34988 Q 110.28024,151.34988 111.80978,152.76834 113.33932,154.17825 113.33932,157.01517 113.33932,159.88626 111.86105,161.36453 110.39133,162.8428 107.46042,162.8428 L 103.37595,162.80862 H 101.90622 V 162.35574 L 103.37595,162.12503 V 152.02493 L 101.90622,151.80276 V 151.34988 Z"
         id="path99" />
      <path
         d="M 114.54416,162.35574 116.01389,162.12503 V 152.02493 L 114.54416,151.80276 V 151.34988 H 123.14035 V 154.0928 H 122.57639 L 122.30295,152.23856 Q 121.34592,152.11893 119.53439,152.11893 H 117.66306 V 156.59647 H 120.75632 L 121.02121,155.22928 H 121.56808 V 158.74979 H 121.02121 L 120.75632,157.36551 H 117.66306 V 162.03958 H 119.91891 Q 122.1235,162.03958 122.8071,161.90286 L 123.29416,159.78372 H 123.85812 L 123.69577,162.80862 H 114.54416 Z"
         id="path101" />
      <path
         d="M 128.35275,157.66458 V 162.12503 L 130.25827,162.35574 V 162.80862 H 125.34494 V 162.35574 L 126.70358,162.12503 V 152.02493 L 125.23386,151.80276 V 151.34988 H 133.83005 V 154.0928 H 133.26608 L 132.99265,152.23856 Q 132.03561,152.11893 130.22409,152.11893 H 128.35275 V 156.89554 H 131.728 L 131.99289,155.52835 H 132.51413 V 159.04886 H 131.99289 L 131.728,157.66458 Z"
         id="path103" />
      <path
         d="M 145.43405,162.21048 Q 144.44284,162.53519 143.37473,162.75735 142.30661,162.97952 141.07614,162.97952 138.2905,162.97952 136.73532,161.47562 135.18015,159.97171 135.18015,157.2117 135.18015,154.20389 136.68405,152.71707 138.1965,151.22171 141.11032,151.22171 143.19528,151.22171 145.13498,151.73441 V 154.19534 H 144.56247 L 144.33176,152.77689 Q 143.74216,152.35818 142.9133,152.13602 142.09299,151.9053 141.17868,151.9053 138.99118,151.9053 137.97433,153.21268 136.96603,154.51151 136.96603,157.19461 136.96603,159.71536 138.00851,161.02274 139.05099,162.32156 141.09323,162.32156 141.811,162.32156 142.59714,162.15067 143.38327,161.97977 143.79343,161.74051 V 158.48489 L 142.3237,158.26273 V 157.8013 H 146.55344 V 158.26273 L 145.43405,158.48489 Z"
         id="path105" />
      <path
         d="M 147.60446,162.80862 V 162.35574 L 149.07419,162.12503 V 152.02493 L 147.60446,151.80276 V 151.34988 H 152.19308 V 151.80276 L 150.72336,152.02493 V 156.52811 H 156.1152 V 152.02493 L 154.64548,151.80276 V 151.34988 H 159.22556 V 151.80276 L 157.75583,152.02493 V 162.12503 L 159.22556,162.35574 V 162.80862 H 154.64548 V 162.35574 L 156.1152,162.12503 V 157.29715 H 150.72336 V 162.12503 L 152.19308,162.35574 V 162.80862 Z"
         id="path107" />
      <path
         d="M 163.48093,162.12503 164.95065,162.35574 V 162.80862 H 160.37057 V 162.35574 L 161.8403,162.12503 V 152.02493 L 160.37057,151.80276 V 151.34988 H 164.95065 V 151.80276 L 163.48093,152.02493 Z"
         id="path109" />
      <path
         d="M 169.06931,152.02493 167.59958,151.80276 V 151.34988 H 172.00876 V 151.80276 L 170.70993,152.02493 V 159.11722 Q 170.70993,160.26224 170.35959,161.12527 170.00925,161.97977 169.29147,162.48392 168.58224,162.97952 167.70212,162.97952 166.60837,162.97952 165.93332,162.72318 V 160.63821 H 166.49728 L 166.75363,161.82596 Q 166.91599,162.02249 167.21506,162.13358 167.51413,162.24466 167.87302,162.24466 169.06931,162.24466 169.06931,160.62112 Z"
         id="path111" />
      <path
         d="M 183.93747,151.34988 V 151.80276 L 182.61301,152.02493 178.69943,155.85306 183.59567,162.12503 184.83469,162.35574 V 162.80862 H 182.03195 L 177.54587,157.01517 175.99924,158.25418 V 162.12503 L 177.63986,162.35574 V 162.80862 H 172.88034 V 162.35574 L 174.35007,162.12503 V 152.02493 L 172.88034,151.80276 V 151.34988 H 177.46896 V 151.80276 L 175.99924,152.02493 V 157.42532 L 181.48508,152.02493 180.3486,151.80276 V 151.34988 Z"
         id="path113" />
      <path
         d="M 190.40598,151.80276 188.63718,152.02493 V 162.07376 H 190.89304 Q 192.7131,162.07376 193.5676,161.90286 L 194.09738,159.51883 H 194.6528 L 194.49899,162.80862 H 185.51828 V 162.35574 L 186.98801,162.12503 V 152.02493 L 185.51828,151.80276 V 151.34988 H 190.40598 Z"
         id="path115" />
      <path
         d="M 203.06955,162.80862 H 202.77048 L 198.57492,152.95633 V 162.12503 L 200.11301,162.35574 V 162.80862 H 196.20798 V 162.35574 L 197.6777,162.12503 V 152.02493 L 196.20798,151.80276 V 151.34988 H 199.67722 L 203.4028,160.0657 207.47018,151.34988 H 210.75143 V 151.80276 L 209.28171,152.02493 V 162.12503 L 210.75143,162.35574 V 162.80862 H 206.103 V 162.35574 L 207.64108,162.12503 V 152.95633 Z"
         id="path117" />
      <path
         d="M 221.13351,152.02493 219.59543,151.80276 V 151.34988 H 223.50046 V 151.80276 L 222.03073,152.02493 V 162.80862 H 221.20187 L 214.13522,152.50345 V 162.12503 L 215.67331,162.35574 V 162.80862 H 211.76828 V 162.35574 L 213.23801,162.12503 V 152.02493 L 211.76828,151.80276 V 151.34988 H 215.23752 L 221.13351,159.83499 Z"
         id="path119" />
      <path
         d="M 226.40573,157.06644 Q 226.40573,159.82645 227.32858,161.06546 228.25143,162.30447 230.21677,162.30447 232.17355,162.30447 233.10495,161.06546 234.03635,159.82645 234.03635,157.06644 234.03635,154.32352 233.10495,153.11868 232.1821,151.9053 230.21677,151.9053 228.24289,151.9053 227.32004,153.11868 226.40573,154.32352 226.40573,157.06644 Z M 224.61984,157.06644 Q 224.61984,151.22171 230.21677,151.22171 232.98532,151.22171 234.40378,152.70853 235.82224,154.1868 235.82224,157.06644 235.82224,159.9888 234.38669,161.48416 232.95114,162.97952 230.21677,162.97952 227.49094,162.97952 226.05539,161.49271 224.61984,159.99734 224.61984,157.06644 Z"
         id="path121" />
      <path
         d="M 243.87155,154.74222 Q 243.87155,153.33231 243.21359,152.72562 242.55563,152.11893 241.00046,152.11893 H 240.16306 V 157.54495 H 241.05173 Q 242.49582,157.54495 243.17941,156.88699 243.87155,156.22903 243.87155,154.74222 Z M 240.16306,158.314 V 162.12503 L 241.98312,162.35574 V 162.80862 H 237.15524 V 162.35574 L 238.51389,162.12503 V 152.02493 L 237.04416,151.80276 V 151.34988 H 241.36789 Q 245.57199,151.34988 245.57199,154.72513 245.57199,156.48538 244.50388,157.39969 243.44431,158.314 241.45334,158.314 Z"
         id="path123" />
      <path
         d="M 248.77634,157.08353 Q 248.77634,159.84354 249.69919,161.07401 250.62204,162.30447 252.58737,162.30447 254.54416,162.30447 255.47556,161.08255 256.40695,159.86063 256.40695,157.08353 256.40695,154.32352 255.46701,153.11868 254.53561,151.9053 252.58737,151.9053 250.62204,151.9053 249.69919,153.12723 248.77634,154.34061 248.77634,157.08353 Z M 246.99045,157.08353 Q 246.99045,151.22171 252.58737,151.22171 255.33884,151.22171 256.76584,152.70853 258.19284,154.1868 258.19284,157.08353 258.19284,161.27908 255.15939,162.52664 L 255.58664,163.05643 Q 256.33859,163.99637 256.86838,164.39798 257.39816,164.79959 257.91086,164.79959 L 258.61154,164.76541 V 165.32938 Q 258.41501,165.41483 257.86813,165.52591 257.3298,165.64554 256.92819,165.64554 256.3215,165.64554 255.85153,165.44046 255.38156,165.24393 254.90305,164.79959 254.42453,164.3638 253.30515,162.94534 252.99753,162.97952 252.58737,162.97952 249.84445,162.97952 248.41745,161.48416 246.99045,159.98026 246.99045,157.08353 Z"
         id="path125" />
      <path
         d="M 262.53366,157.78421 V 162.12503 L 264.26828,162.35574 V 162.80862 H 259.52585 V 162.35574 L 260.88449,162.12503 V 152.02493 L 259.41476,151.80276 V 151.34988 H 264.36227 Q 266.51559,151.34988 267.54099,152.0762 268.56638,152.80252 268.56638,154.40897 268.56638,155.55399 267.9426,156.39139 267.31882,157.22025 266.21652,157.54495 L 269.31833,162.12503 270.55734,162.35574 V 162.80862 H 267.81442 L 264.59299,157.78421 Z M 266.86594,154.52859 Q 266.86594,153.22122 266.22507,152.67435 265.59274,152.11893 263.99484,152.11893 H 262.53366 V 157.01517 H 264.04611 Q 265.57565,157.01517 266.21652,156.4512 266.86594,155.87869 266.86594,154.52859 Z"
         id="path127" />
      <path
         d="M 271.77072,159.72391 H 272.32614 L 272.62521,161.27054 Q 272.94138,161.67215 273.71042,161.97977 274.48801,162.28738 275.23996,162.28738 276.43625,162.28738 277.10275,161.68069 277.7778,161.06546 277.7778,159.9888 277.7778,159.37357 277.51291,158.97195 277.25656,158.57034 276.82932,158.29691 276.41061,158.01492 275.87228,157.82693 275.33395,157.6304 274.76144,157.43387 274.19748,157.23734 273.65915,156.99808 273.12082,156.75882 272.69357,156.39139 272.27487,156.02396 272.00998,155.48563 271.75363,154.93875 271.75363,154.14407 271.75363,152.77689 272.77902,151.9993 273.80441,151.22171 275.62448,151.22171 277.00876,151.22171 278.63229,151.58914 V 153.97318 H 278.07687 L 277.7778,152.57181 Q 276.90622,151.93948 275.62448,151.93948 274.47946,151.93948 273.83005,152.40945 273.18918,152.87088 273.18918,153.69119 273.18918,154.24661 273.44553,154.61404 273.71042,154.98148 274.12912,155.24637 274.55637,155.50272 275.0947,155.6907 275.64157,155.87869 276.20554,156.08377 276.77805,156.2803 277.31638,156.53665 277.86325,156.78445 278.28195,157.17752 278.7092,157.56204 278.96555,158.12601 279.23044,158.68143 279.23044,159.50174 279.23044,161.15945 278.21359,162.07376 277.19675,162.97952 275.28268,162.97952 274.35983,162.97952 273.42844,162.81717 272.49704,162.65482 271.77072,162.37283 Z"
         id="path129" />
      <path
         d="M 283.00729,162.80862 V 162.35574 L 284.82736,162.12503 V 152.08475 H 284.39157 Q 282.22971,152.08475 281.43503,152.25565 L 281.20432,154.04153 H 280.63181 V 151.34988 H 290.71481 V 154.04153 H 290.13376 L 289.90305,152.25565 Q 289.6467,152.19583 288.78366,152.15311 287.92062,152.10184 286.89523,152.10184 H 286.47653 V 162.12503 L 288.2966,162.35574 V 162.80862 Z"
         id="path131" />
      <path
         d="M 300.90891,152.02493 299.37082,151.80276 V 151.34988 H 303.27585 V 151.80276 L 301.80612,152.02493 V 158.86942 Q 301.80612,160.92874 300.66965,161.95413 299.54172,162.97952 297.3884,162.97952 295.1069,162.97952 293.97043,161.95413 292.8425,160.9202 292.8425,159.03177 V 152.02493 L 291.37277,151.80276 V 151.34988 H 295.95285 V 151.80276 L 294.48312,152.02493 V 158.90359 Q 294.48312,162.02249 297.51657,162.02249 299.1572,162.02249 300.02878,161.2449 300.90891,160.46732 300.90891,158.93777 Z"
         id="path133" />
      <path
         d="M 316.08469,151.34988 V 151.80276 L 314.82858,152.02493 310.22287,163.07352 H 309.78708 L 305.1301,152.02493 303.83981,151.80276 V 151.34988 H 308.47116 V 151.80276 L 306.93307,152.02493 310.40231,160.45877 313.86301,152.02493 312.3591,151.80276 V 151.34988 Z"
         id="path135" />
      <path
         d="M 328.02194,163.07352 H 327.56906 L 324.59543,155.17801 321.54489,163.07352 H 321.09201 L 317.29807,152.02493 316.29831,151.80276 V 151.34988 H 320.67331 V 151.80276 L 318.98996,152.02493 321.71579,160.09988 324.80051,152.15311 H 325.18503 L 328.15866,160.09988 330.75632,152.02493 328.97043,151.80276 V 151.34988 H 332.76437 V 151.80276 L 331.76462,152.02493 Z"
         id="path137" />
      <path
         d="M 335.50729,162.12503 336.92575,162.35574 V 162.80862 H 333.18307 V 162.35574 L 334.44772,162.12503 338.34421,156.94681 335.02023,152.02493 333.72995,151.80276 V 151.34988 H 338.45529 V 151.80276 L 337.00266,152.02493 339.37814,155.56253 342.03561,152.02493 340.61716,151.80276 V 151.34988 H 344.36838 V 151.80276 L 343.10373,152.02493 339.88229,156.31448 343.8215,162.12503 345.12033,162.35574 V 162.80862 H 340.39499 V 162.35574 L 341.84763,162.12503 338.83981,157.68167 Z"
         id="path139" />
      <path
         d="M 352.59714,158.29691 V 162.12503 L 354.41721,162.35574 V 162.80862 H 349.1279 V 162.35574 L 350.94797,162.12503 V 158.34818 L 346.92331,152.02493 345.63303,151.80276 V 151.34988 H 350.478 V 151.80276 L 348.93991,152.02493 352.22971,157.31424 355.35715,152.02493 353.90451,151.80276 V 151.34988 H 357.6301 V 151.80276 L 356.37399,152.02493 Z"
         id="path141" />
      <path
         d="M 358.91183,162.0054 365.33762,152.08475 H 363.20139 Q 361.09079,152.08475 360.29611,152.25565 L 360.03122,154.05862 H 359.44162 V 151.34988 H 367.24313 V 152.08475 L 360.77463,162.09085 H 363.25266 Q 364.24387,162.09085 365.26071,161.99686 366.2861,161.90286 366.7048,161.80887 L 367.20895,159.62137 H 367.8071 L 367.57639,162.80862 H 358.91183 Z"
         id="path143" />
      <path
         d="M 73.502899,180.62479 Q 73.502899,184.85452 69.743134,184.85452 67.93161,184.85452 67.008759,183.76932 66.085907,182.68411 66.085907,180.62479 66.085907,178.59109 67.008759,177.51443 67.93161,176.43777 69.811493,176.43777 71.640106,176.43777 72.571503,177.49734 73.502899,178.54837 73.502899,180.62479 Z M 71.964813,180.62479 Q 71.964813,178.77908 71.426483,177.95023 70.888153,177.12137 69.743134,177.12137 68.623749,177.12137 68.119598,177.91605 67.623993,178.71072 67.623993,180.62479 67.623993,182.56448 68.128143,183.37625 68.640839,184.17947 69.743134,184.17947 70.871063,184.17947 71.417938,183.34207 71.964813,182.50467 71.964813,180.62479 Z"
         id="path145" />
      <path
         d="M 76.673065,178.94144 Q 76.673065,181.70145 77.595917,182.94046 78.518768,184.17947 80.4841,184.17947 82.440887,184.17947 83.372284,182.94046 84.30368,181.70145 84.30368,178.94144 84.30368,176.19852 83.372284,174.99368 82.449432,173.7803 80.4841,173.7803 78.510223,173.7803 77.587372,174.99368 76.673065,176.19852 76.673065,178.94144 Z M 74.887177,178.94144 Q 74.887177,173.09671 80.4841,173.09671 83.252655,173.09671 84.671112,174.58353 86.089569,176.0618 86.089569,178.94144 86.089569,181.8638 84.654022,183.35916 83.218475,184.85452 80.4841,184.85452 77.75827,184.85452 76.322723,183.36771 74.887177,181.87234 74.887177,178.94144 Z"
         id="path147" />
      <path
         d="M 94.890839,178.90726 Q 94.890839,184.85452 91.131073,184.85452 89.31955,184.85452 88.396698,183.33353 87.473846,181.81253 87.473846,178.90726 87.473846,176.0618 88.396698,174.55789 89.31955,173.04544 91.199432,173.04544 93.010956,173.04544 93.950897,174.5408 94.890839,176.02762 94.890839,178.90726 Z M 93.318573,178.90726 Q 93.318573,176.15579 92.797333,174.94241 92.276093,173.72903 91.131073,173.72903 90.020233,173.72903 89.533173,174.87405 89.046112,176.01907 89.046112,178.90726 89.046112,181.81253 89.541718,183.00027 90.037323,184.17947 91.131073,184.17947 92.259003,184.17947 92.788788,182.94046 93.318573,181.6929 93.318573,178.90726 Z"
         id="path149" />
      <path
         d="M 103.2905,176.01907 Q 103.2905,176.95901 102.82907,177.61697 102.37619,178.26639 101.5986,178.60818 102.57272,178.96707 103.10251,179.73611 103.64084,180.49661 103.64084,181.59036 103.64084,183.2139 102.72653,184.03421 101.81223,184.85452 99.881073,184.85452 96.223846,184.85452 96.223846,181.59036 96.223846,180.45389 96.770721,179.71048 97.317596,178.95853 98.248993,178.60818 97.505585,178.26639 97.035614,177.61697 96.574188,176.96756 96.574188,176.01907 96.574188,174.60062 97.437225,173.82303 98.308807,173.04544 99.949432,173.04544 101.53879,173.04544 102.41037,173.82303 103.2905,174.59207 103.2905,176.01907 Z M 102.10275,181.59036 Q 102.10275,180.22318 101.56442,179.60794 101.03464,178.99271 99.881073,178.99271 98.753143,178.99271 98.257538,179.58231 97.761932,180.16336 97.761932,181.59036 97.761932,183.03445 98.266083,183.60696 98.770233,184.17947 99.881073,184.17947 101.01755,184.17947 101.55588,183.58987 102.10275,182.99173 102.10275,181.59036 Z M 101.75241,176.01907 Q 101.75241,174.83987 101.29099,174.28445 100.82956,173.72903 99.898163,173.72903 98.992401,173.72903 98.548065,174.26736 98.112274,174.80569 98.112274,176.01907 98.112274,177.20682 98.53952,177.72806 98.966766,178.24075 99.898163,178.24075 100.85519,178.24075 101.29953,177.71951 101.75241,177.18973 101.75241,176.01907 Z"
         id="path151" />
      <path
         d="M 111.92087,174.02811 Q 111.92087,174.40408 111.64743,174.67752 111.37399,174.95096 110.98947,174.95096 110.61349,174.95096 110.34006,174.67752 110.06662,174.40408 110.06662,174.02811 110.06662,173.64359 110.34006,173.37015 110.61349,173.09671 110.98947,173.09671 111.37399,173.09671 111.64743,173.37015 111.92087,173.64359 111.92087,174.02811 Z M 111.83542,184.08548 113.21115,184.2991 V 184.68362 H 109.04977 V 184.2991 L 110.41696,184.08548 V 177.24954 L 109.28049,177.03592 V 176.6514 H 111.83542 Z"
         id="path153" />
      <path
         d="M 117.28708,184.00003 118.75681,184.23074 V 184.68362 H 114.17673 V 184.23074 L 115.64645,184.00003 V 173.89993 L 114.17673,173.67776 V 173.22488 H 118.75681 V 173.67776 L 117.28708,173.89993 Z"
         id="path155" />
      <path
         d="M 122.50803,184.08548 123.88376,184.2991 V 184.68362 H 119.72238 V 184.2991 L 121.08957,184.08548 V 173.13089 L 119.72238,172.92581 V 172.54129 H 122.50803 Z"
         id="path157" />
      <path
         d="M 129.62595,173.67776 127.85715,173.89993 V 183.94876 H 130.11301 Q 131.93307,183.94876 132.78757,183.77786 L 133.31735,181.39383 H 133.87277 L 133.71896,184.68362 H 124.73825 V 184.23074 L 126.20798,184.00003 V 173.89993 L 124.73825,173.67776 V 173.22488 H 129.62595 Z"
         id="path159" />
      <path
         d="M 140.28146,184.00003 142.62277,184.23074 V 184.68362 H 136.46188 V 184.23074 L 138.81174,184.00003 V 174.65189 L 136.49606,175.48074 V 175.02786 L 139.83713,173.13089 H 140.28146 Z"
         id="path161" />
      <path
         d="M 153.70554,187.02493 Q 152.62888,187.02493 152.04782,186.36697 151.47531,185.70901 151.47531,184.51273 V 181.99197 Q 151.47531,180.99222 151.02243,180.49661 150.57809,179.99246 149.63815,179.95828 V 179.57376 Q 151.47531,179.53958 151.47531,177.55716 V 175.04495 Q 151.47531,173.84012 152.03073,173.1907 152.58615,172.54129 153.70554,172.54129 H 154.8591 V 172.9429 H 154.32932 Q 153.55173,172.9429 153.21848,173.41287 152.89377,173.8743 152.89377,174.78006 V 177.59988 Q 152.89377,178.41165 152.44943,179.00125 152.0051,179.58231 151.25314,179.74466 V 179.77029 Q 152.01364,179.94974 152.44943,180.53079 152.89377,181.1033 152.89377,181.93216 V 184.78616 Q 152.89377,185.69193 153.21848,186.15335 153.55173,186.62332 154.32932,186.62332 H 154.8591 V 187.02493 Z"
         id="path163" />
      <path
         d="M 158.03781,187.02493 V 186.62332 H 158.5676 Q 159.34518,186.62332 159.66989,186.15335 160.00314,185.69193 160.00314,184.78616 V 181.93216 Q 160.00314,181.1033 160.43893,180.53079 160.87473,179.94974 161.64377,179.77029 V 179.74466 Q 160.89182,179.58231 160.44748,178.99271 160.00314,178.40311 160.00314,177.59988 V 174.78006 Q 160.00314,173.8743 159.66989,173.41287 159.34518,172.9429 158.5676,172.9429 H 158.03781 V 172.54129 H 159.19992 Q 160.31076,172.54129 160.86618,173.1907 161.4216,173.84012 161.4216,175.04495 V 177.55716 Q 161.4216,179.53958 163.25876,179.57376 V 179.95828 Q 162.33591,179.99246 161.87448,180.48807 161.4216,180.98367 161.4216,181.99197 V 184.51273 Q 161.4216,185.70047 160.84055,186.35843 160.26804,187.02493 159.19992,187.02493 Z"
         id="path165" />
      <path
         d="M 170.52194,187.02493 V 172.54129 H 174.41843 V 172.9429 L 171.88058,173.29324 V 186.27298 L 174.41843,186.62332 V 187.02493 Z"
         id="path167" />
      <path
         d="M 175.68307,187.02493 V 186.62332 L 178.22092,186.27298 V 173.29324 L 175.68307,172.9429 V 172.54129 H 179.57956 V 187.02493 Z"
         id="path169" />
      <path
         d="M 192.68747,179.18924 Q 192.68747,180.57352 191.85861,181.28275 191.02975,181.99197 189.47458,181.99197 188.7739,181.99197 188.17575,181.8638 L 187.63742,182.98318 Q 187.66306,183.12845 187.97067,183.25662 188.27829,183.3848 188.73972,183.3848 H 191.1152 Q 192.41403,183.3848 193.03781,183.94876 193.67014,184.51273 193.67014,185.50394 193.67014,186.40115 193.16599,187.06766 192.67038,187.73416 191.7048,188.09305 190.73923,188.46048 189.36349,188.46048 187.72287,188.46048 186.85983,187.95633 186.00534,187.45218 186.00534,186.52078 186.00534,186.0679 186.31296,185.62357 186.62057,185.18777 187.44089,184.59818 186.95383,184.43582 186.62057,184.04276 186.28732,183.64969 186.28732,183.19681 L 187.63742,181.67581 Q 186.28732,181.04349 186.28732,179.18924 186.28732,177.87332 187.11618,177.15555 187.95358,176.43777 189.54294,176.43777 189.8591,176.43777 190.35471,176.50613 190.85031,176.56595 191.1152,176.6514 L 193.00363,175.70291 193.3027,176.07034 192.11496,177.30081 Q 192.68747,177.94168 192.68747,179.18924 Z M 192.33713,185.76883 Q 192.33713,185.28177 192.03806,185.00833 191.73898,184.73489 191.13229,184.73489 H 188.02194 Q 187.66306,185.04251 187.43234,185.51248 187.21017,185.991 187.21017,186.40115 187.21017,187.13602 187.73996,187.45218 188.26974,187.77689 189.36349,187.77689 190.7905,187.77689 191.55954,187.2471 192.33713,186.71732 192.33713,185.76883 Z M 189.49167,181.34256 Q 190.42307,181.34256 190.80759,180.81277 191.20065,180.27444 191.20065,179.18924 191.20065,178.05276 190.79904,177.57425 190.39743,177.08719 189.50876,177.08719 188.61154,177.08719 188.19284,177.57425 187.77414,178.06131 187.77414,179.18924 187.77414,180.31717 188.1843,180.82986 188.59445,181.34256 189.49167,181.34256 Z"
         id="path171" />
      <path
         d="M 194.56735,176.71976 Q 194.56735,174.99368 195.53293,174.0452 196.4985,173.09671 198.25876,173.09671 200.21555,173.09671 201.12131,174.50662 202.03561,175.91653 202.03561,178.92435 202.03561,181.80399 200.86496,183.33353 199.69431,184.85452 197.57516,184.85452 196.18234,184.85452 195.02023,184.564 V 182.58157 H 195.57565 L 195.87473,183.81204 Q 196.14816,183.94022 196.60959,184.04276 197.07101,184.14529 197.54099,184.14529 198.90817,184.14529 199.64304,182.94901 200.3779,181.74417 200.4548,179.41141 199.15598,180.13773 197.81442,180.13773 196.30197,180.13773 195.43039,179.24051 194.56735,178.33475 194.56735,176.71976 Z M 198.27585,173.7803 Q 196.13962,173.7803 196.13962,176.75394 196.13962,178.06131 196.65231,178.68509 197.16501,179.30887 198.24167,179.30887 199.34396,179.30887 200.46335,178.85599 200.46335,176.2327 199.94211,175.01077 199.42941,173.7803 198.27585,173.7803 Z"
         id="path173" />
      <path
         d="M 209.70041,176.26688 H 210.29855 V 187.80252 L 211.18723,188.0076 V 188.40921 H 207.7778 V 188.0076 L 208.8801,187.80252 V 185.5723 Q 208.8801,184.74344 208.96555,184.14529 208.05124,184.85452 206.67551,184.85452 203.38571,184.85452 203.38571,180.69315 203.38571,178.63382 204.30856,177.54007 205.23996,176.43777 207.02585,176.43777 207.98288,176.43777 208.93137,176.63431 Z M 204.9238,180.69315 Q 204.9238,182.32523 205.46213,183.14554 206.009,183.96585 207.14548,183.96585 207.64963,183.96585 208.13669,183.8804 208.63229,183.79495 208.8801,183.68387 V 177.28372 Q 208.1196,177.13846 207.14548,177.13846 204.9238,177.13846 204.9238,180.69315 Z"
         id="path175" />
      <path
         d="M 218.11716,184.85452 Q 215.33151,184.85452 213.77634,183.34207 212.22116,181.82108 212.22116,179.0867 212.22116,176.13016 213.71652,174.61771 215.21188,173.09671 218.15134,173.09671 219.93723,173.09671 221.98801,173.5325 L 222.03928,176.03616 H 221.47531 L 221.21896,174.54935 Q 220.62082,174.18192 219.82614,173.98538 219.04001,173.7803 218.2197,173.7803 216.02365,173.7803 215.01535,175.07059 214.00705,176.36087 214.00705,179.06961 214.00705,181.56473 215.05807,182.88065 216.11765,184.19656 218.13425,184.19656 219.10837,184.19656 219.97141,183.96585 220.83444,183.72659 221.33859,183.33353 L 221.65475,181.62454 H 222.21017 L 222.15891,184.31619 Q 220.27902,184.85452 218.11716,184.85452 Z"
         id="path177" />
      <path
         d="M 234.14743,184.08548 Q 233.15622,184.41019 232.0881,184.63235 231.01999,184.85452 229.78952,184.85452 227.00388,184.85452 225.4487,183.35062 223.89352,181.84671 223.89352,179.0867 223.89352,176.07889 225.39743,174.59207 226.90988,173.09671 229.8237,173.09671 231.90866,173.09671 233.84836,173.60941 V 176.07034 H 233.27585 L 233.04514,174.65189 Q 232.45554,174.23318 231.62668,174.01102 230.80637,173.7803 229.89206,173.7803 227.70456,173.7803 226.68771,175.08768 225.67941,176.38651 225.67941,179.06961 225.67941,181.59036 226.72189,182.89774 227.76437,184.19656 229.80661,184.19656 230.52438,184.19656 231.31052,184.02567 232.09665,183.85477 232.50681,183.61551 V 180.35989 L 231.03708,180.13773 V 179.6763 H 235.26682 V 180.13773 L 234.14743,180.35989 Z"
         id="path179" />
      <path
         d="M 238.31735,178.95853 Q 238.31735,181.71854 239.2402,182.94901 240.16306,184.17947 242.12839,184.17947 244.08517,184.17947 245.01657,182.95755 245.94797,181.73563 245.94797,178.95853 245.94797,176.19852 245.00803,174.99368 244.07663,173.7803 242.12839,173.7803 240.16306,173.7803 239.2402,175.00223 238.31735,176.21561 238.31735,178.95853 Z M 236.53146,178.95853 Q 236.53146,173.09671 242.12839,173.09671 244.87985,173.09671 246.30685,174.58353 247.73386,176.0618 247.73386,178.95853 247.73386,183.15408 244.70041,184.40164 L 245.12766,184.93143 Q 245.87961,185.87137 246.40939,186.27298 246.93918,186.67459 247.45187,186.67459 L 248.15256,186.64041 V 187.20438 Q 247.95602,187.28983 247.40915,187.40091 246.87082,187.52054 246.46921,187.52054 245.86252,187.52054 245.39255,187.31546 244.92258,187.11893 244.44406,186.67459 243.96555,186.2388 242.84616,184.82034 242.53854,184.85452 242.12839,184.85452 239.38547,184.85452 237.95847,183.35916 236.53146,181.85526 236.53146,178.95853 Z"
         id="path181" />
      <path
         d="M 259.49167,180.39407 Q 258.58591,180.39407 257.39816,179.36014 256.76584,178.82181 256.34714,178.58255 255.93698,178.33475 255.61227,178.33475 254.95432,178.33475 254.62106,178.80472 254.28781,179.26614 254.17673,180.39407 H 253.31369 Q 253.4675,178.79617 254.03146,178.12967 254.60397,177.45462 255.61227,177.45462 256.09079,177.45462 256.59494,177.70242 257.10764,177.95023 257.7485,178.48856 258.48337,179.10379 258.83371,179.31741 259.1926,179.52249 259.49167,179.52249 260.08127,179.52249 260.41452,179.07816 260.74777,178.62527 260.91013,177.45462 H 261.79025 Q 261.64499,178.56546 261.37155,179.15506 261.09811,179.74466 260.64523,180.06937 260.19235,180.39407 259.49167,180.39407 Z"
         id="path183" />
      <path
         d="M 262.94382,181.21439 V 179.90701 H 267.48972 V 181.21439 Z"
         id="path185" />
      <path
         d="M 273.4968,179.30887 V 182.94901 H 272.61667 V 179.30887 H 268.99362 V 178.43729 H 272.61667 V 174.79715 H 273.4968 V 178.43729 H 277.13693 V 179.30887 Z"
         id="path187" />
      <path
         d="M 287.00632,180.189 V 181.06058 H 278.86301 V 180.189 Z M 287.00632,176.68558 V 177.55716 H 278.86301 V 176.68558 Z"
         id="path189" />
      <path
         d="M 288.74948,183.09427 V 182.21414 L 295.66232,178.87308 288.74948,175.53201 V 174.65189 L 296.89279,178.65945 V 179.0867 Z"
         id="path191" />
    </g>
  </g>
</svg>
