<svg xmlns="http://www.w3.org/2000/svg" width="324.96" height="113.715" viewBox="0 0 304.65 106.608"><g font-weight="400" font-family="Tinos Nerd Font" letter-spacing="0" word-spacing="0" fill="#fff"><g style="line-height:125%;text-decoration-line:underline" font-size="27.5" text-decoration="underline"><path d="M3.733 19.08v-.71l2.86-.363V2.229h-.685q-3.397 0-4.646.269L.9 5.304H0v-4.23h15.845v4.23h-.913l-.363-2.806q-.403-.094-1.759-.162-1.356-.08-2.967-.08h-.658v15.75l2.86.363v.712H3.733zM20.437 2.336q0 .591-.43 1.02-.43.43-1.034.43-.59 0-1.02-.43-.43-.429-.43-1.02 0-.604.43-1.034.43-.43 1.02-.43.605 0 1.034.43.43.43.43 1.034zm-.134 15.805l2.162.336v.604h-6.54v-.604l2.149-.336V7.399l-1.786-.336v-.604h4.015V18.14zM27.325 7.48q1.034-.592 2.203-.968 1.168-.389 1.947-.389 1.638 0 2.47.953.833.954.833 2.767v8.298l1.53.336v.604H30.87v-.604l1.679-.336v-8.057q0-1.114-.55-1.745-.538-.645-1.68-.645-1.208 0-2.967.39V18.14l1.706.336v.604h-5.452v-.604l1.517-.336V7.399l-1.517-.336v-.604h3.599l.12 1.02zM49.427 12.703q0 6.646-5.908 6.646-2.846 0-4.297-1.705-1.45-1.705-1.45-4.941 0-3.196 1.45-4.888 1.45-1.692 4.405-1.692 2.873 0 4.337 1.665 1.463 1.652 1.463 4.915zm-2.417 0q0-2.9-.845-4.203-.846-1.303-2.646-1.303-1.759 0-2.551 1.249-.779 1.249-.779 4.257 0 3.048.792 4.323.806 1.263 2.538 1.263 1.773 0 2.632-1.316.86-1.316.86-4.27zM60.183 15.536q0 1.88-1.195 2.847-1.182.966-3.505.966-.94 0-2.08-.201-1.129-.188-1.773-.43v-3.102h.604l.658 1.76q1.007.913 2.618.913 2.605 0 2.605-2.23 0-1.638-2.054-2.336l-1.195-.39q-1.356-.442-1.974-.899-.618-.456-.954-1.114-.335-.672-.335-1.612 0-1.665 1.128-2.618 1.141-.967 3.075-.967 1.383 0 3.464.416v2.753h-.631l-.564-1.464q-.712-.63-2.242-.63-1.088 0-1.666.536-.563.537-.563 1.45 0 .766.51 1.29.523.523 1.57.872 1.975.672 2.579.98.604.31 1.02.766.43.443.658 1.02.242.578.242 1.424zM83.547 2.135l-2.417-.35v-.71h6.137v.71l-2.31.35v16.946h-1.302L72.55 2.887v15.12l2.417.362v.712h-6.136v-.712l2.31-.362V2.135l-2.31-.35v-.71h5.451l9.265 13.333V2.135zM91.403 12.73v.241q0 1.853.402 2.887.417 1.02 1.263 1.558.859.537 2.242.537.725 0 1.719-.121.993-.12 1.638-.269v.752q-.645.417-1.759.726-1.101.308-2.256.308-2.94 0-4.31-1.584-1.356-1.585-1.356-5.09 0-3.302 1.383-4.927 1.383-1.625 3.947-1.625 4.848 0 4.848 5.505v1.101h-7.761zm2.913-5.533q-1.396 0-2.148 1.128-.739 1.128-.739 3.33h5.398q0-2.403-.617-3.424-.618-1.034-1.894-1.034zM109.02 6.123v3.41h-.578l-.778-1.476q-.672 0-1.598.188-.913.174-1.585.47v9.426l2.162.336v.604h-5.989v-.604l1.598-.336V7.399l-1.598-.336v-.604h3.68l.12 1.57q.806-.67 2.176-1.288 1.383-.618 2.188-.618h.202zM118.997 18.14q-1.518 1.21-3.545 1.21-5.17 0-5.17-6.46 0-3.316 1.464-5.035 1.463-1.732 4.31-1.732 1.45 0 2.94.309-.08-.443-.08-2.23V.928l-2.122-.323V0h4.351v18.14l1.558.337v.604h-3.545l-.161-.94zm-6.298-5.25q0 2.552.86 3.814.859 1.249 2.631 1.249 1.518 0 2.726-.524V7.452q-1.195-.228-2.726-.228-3.491 0-3.491 5.667zM135.607 10.997v7.01l2.994.362v.712h-7.72v-.712l2.134-.362V2.135l-2.31-.35v-.71h13.509v4.31h-.886l-.43-2.914q-1.504-.188-4.35-.188h-2.941v7.506h5.304l.416-2.149h.819v5.533h-.82l-.415-2.176h-5.304zM157.924 12.703q0 6.646-5.909 6.646-2.846 0-4.296-1.705-1.45-1.705-1.45-4.941 0-3.196 1.45-4.888 1.45-1.692 4.404-1.692 2.873 0 4.337 1.665 1.464 1.652 1.464 4.915zm-2.417 0q0-2.9-.846-4.203-.846-1.303-2.646-1.303-1.759 0-2.55 1.249-.78 1.249-.78 4.257 0 3.048.793 4.323.805 1.263 2.537 1.263 1.773 0 2.632-1.316.86-1.316.86-4.27zM163.322 7.48q1.033-.592 2.202-.968 1.168-.389 1.947-.389 1.638 0 2.47.953.833.954.833 2.767v8.298l1.53.336v.604h-5.438v-.604l1.679-.336v-8.057q0-1.114-.55-1.745-.538-.645-1.68-.645-1.208 0-2.967.39V18.14l1.706.336v.604h-5.452v-.604l1.517-.336V7.399l-1.517-.336v-.604h3.599l.12 1.02zM177.206 19.35q-1.29 0-1.934-.766-.63-.765-.63-2.148v-8.85h-1.653v-.604l1.679-.523 1.356-2.86h.846v2.86h2.887v1.128h-2.887v8.607q0 .873.39 1.316.402.443 1.047.443.779 0 1.893-.215v.873q-.47.322-1.356.524-.886.214-1.638.214z"/></g><g style="line-height:125%" font-size="17.5"><path d="M6.039 50.87q1.316 0 1.931.537.624.539.624 1.65v5.426l1 .213v.385H7.389l-.162-.803q-.975.974-2.487.974-2.06 0-2.06-2.393 0-.803.308-1.324.316-.53 1-.804.684-.282 1.982-.307l1.205-.034v-1.256q0-.83-.307-1.222-.3-.393-.932-.393-.854 0-1.563.401l-.291 1h-.478v-1.752q1.384-.299 2.435-.299zm1.136 4.118l-1.12.034q-1.144.043-1.554.444-.402.402-.402 1.342 0 1.504 1.222 1.504.581 0 1-.128.427-.137.854-.342v-2.854zM16.37 54.843q0-1.573-.547-2.342-.547-.769-1.692-.769-.504 0-1 .094-.495.086-.718.188v6.366q.718.137 1.718.137 1.18 0 1.709-.923.53-.923.53-2.751zm-5.375-7.315l-1.17-.205v-.385h2.588v2.872q0 .461-.05 1.691.854-.666 2.152-.666 1.641 0 2.513 1 .88.99.88 3.008 0 2.161-.966 3.29-.957 1.119-2.777 1.119-.735 0-1.623-.163-.88-.162-1.547-.427V47.528zM25.803 58.594q-.418.307-1.153.487-.735.17-1.504.17-3.905 0-3.905-4.246 0-2.008.99-3.085 1-1.085 2.855-1.085 1.154 0 2.52.265v2.239h-.47l-.367-1.419q-.709-.401-1.7-.401-2.29 0-2.29 3.486 0 1.811.692 2.589.7.769 2.162.769 1.247 0 2.17-.282v.513zM32.511 58.483q-.966.769-2.256.769-3.29 0-3.29-4.11 0-2.111.932-3.205.931-1.102 2.743-1.102.923 0 1.871.196-.051-.281-.051-1.418v-2.085l-1.35-.205v-.385h2.768v11.545l.991.213v.385h-2.255l-.103-.598zm-4.008-3.341q0 1.623.547 2.426.547.795 1.675.795.966 0 1.735-.333v-6.35q-.76-.144-1.735-.144-2.222 0-2.222 3.606zM37.305 55.04v.153q0 1.18.256 1.837.265.65.803.991.547.342 1.427.342.462 0 1.094-.077.632-.077 1.042-.17v.478q-.41.265-1.119.461-.7.197-1.435.197-1.872 0-2.743-1.009-.863-1.008-.863-3.238 0-2.102.88-3.136.88-1.034 2.512-1.034 3.085 0 3.085 3.503v.701h-4.94zm1.854-3.521q-.889 0-1.367.717-.47.718-.47 2.12h3.435q0-1.53-.393-2.18-.393-.657-1.205-.657zM44.764 51.766H43.38v-.418l1.384-.334v-.564q0-1.777.701-2.734.71-.957 1.983-.957.657 0 1.221.162v1.752h-.418l-.385-1.05q-.29-.18-.7-.18-.539 0-.761.478-.222.479-.222 1.795v1.333h2.136v.717h-2.136v6.648l1.734.282v.385h-4.34v-.385l1.187-.282v-6.648zM56.12 53.586q0 1.385-.828 2.094-.83.71-2.384.71-.701 0-1.3-.129l-.537 1.12q.025.145.333.273.307.128.769.128h2.375q1.3 0 1.923.564.632.564.632 1.555 0 .897-.504 1.564-.495.666-1.461 1.025-.966.368-2.341.368-1.641 0-2.504-.504-.855-.505-.855-1.436 0-.453.308-.897.308-.436 1.128-1.026-.487-.162-.82-.555-.334-.393-.334-.846l1.35-1.521q-1.35-.632-1.35-2.487 0-1.316.83-2.033.837-.718 2.426-.718.316 0 .812.068.495.06.76.146l1.889-.949.299.368-1.188 1.23q.573.64.573 1.888zm-.35 6.58q0-.487-.299-.76-.299-.274-.906-.274h-3.11q-.359.308-.59.778-.222.478-.222.888 0 .735.53 1.051.53.325 1.624.325 1.427 0 2.196-.53.777-.53.777-1.478zm-2.845-4.426q.931 0 1.316-.53.393-.538.393-1.624 0-1.136-.402-1.615-.401-.487-1.29-.487-.897 0-1.316.487-.419.487-.419 1.615 0 1.128.41 1.641.41.513 1.308.513zM60.222 50.416q0 .889-.06 1.282.616-.35 1.393-.607.786-.256 1.325-.256 1.042 0 1.572.607.53.606.53 1.76v5.28l.974.214v.385h-3.46v-.385l1.067-.213v-5.179q0-1.47-1.418-1.47-.803 0-1.923.249v6.4l1.085.213v.385h-3.52v-.385l1.017-.213V47.528l-1.197-.205v-.385h2.615v3.478zM69.425 48.425q0 .376-.273.65-.274.273-.658.273-.376 0-.65-.273-.273-.274-.273-.65 0-.384.273-.658.274-.273.65-.273.384 0 .658.273.273.274.273.658zm-.085 10.058l1.375.213v.385h-4.161v-.385l1.367-.213v-6.836l-1.136-.214v-.384h2.555v7.434zM74.398 48.425q0 .376-.273.65-.274.273-.65.273-.384 0-.658-.273-.273-.274-.273-.65 0-.384.273-.658.274-.273.658-.273.376 0 .65.273.273.274.273.658zm-.085 10.99q0 1.665-.65 2.528-.64.863-1.888.863-.53 0-1.24-.153v-1.7h.402l.231.93q.282.24.71.24.504 0 .76-.539.256-.538.256-1.734v-8.203l-1.205-.214v-.384h2.624v8.365zM78.833 55.21l3.29-3.546-.838-.23v-.385h2.837v.384l-1 .197-2.29 2.34 2.94 4.53.872.196v.385h-3.29v-.385l.735-.213-2.205-3.461-1.051 1.154v2.307l.855.213v.385h-3.29v-.385l1.017-.213V47.528l-1.188-.205v-.385h2.606v8.272zM87.78 58.483l1.375.213v.385h-4.161v-.385l1.367-.213V47.528l-1.367-.205v-.385h2.786v11.545zM92.283 51.698q.64-.367 1.358-.615.718-.248 1.265-.248.59 0 1.085.222.504.222.752.71.658-.368 1.538-.65.889-.282 1.47-.282 2.05 0 2.05 2.367v5.28l1.035.214v.385h-3.649v-.385l1.196-.213v-5.127q0-1.47-1.367-1.47-.222 0-.521.034-.29.034-.59.077-.29.043-.564.103l-.444.085q.145.462.145 1.017v5.28l1.205.214v.385h-3.811v-.385l1.188-.213v-5.127q0-.71-.368-1.085-.359-.385-1.085-.385-.752 0-1.871.248v6.349l1.205.213v.385h-3.64v-.385l1.016-.213v-6.836l-1.016-.214v-.384h2.35l.068.65zM105.87 51.698q.657-.376 1.4-.615.744-.248 1.24-.248 1.042 0 1.572.607.53.606.53 1.76v5.28l.974.214v.385h-3.461v-.385l1.068-.213v-5.127q0-.71-.35-1.111-.342-.41-1.068-.41-.77 0-1.889.248v6.4l1.085.213v.385h-3.469v-.385l.966-.213v-6.836l-.966-.214v-.384h2.29l.077.649zM119.934 55.022q0 4.23-3.76 4.23-1.811 0-2.734-1.086-.923-1.085-.923-3.144 0-2.034.923-3.11.923-1.077 2.803-1.077 1.828 0 2.76 1.06.931 1.05.931 3.127zm-1.538 0q0-1.846-.538-2.675-.539-.828-1.684-.828-1.12 0-1.623.794-.496.795-.496 2.709 0 1.94.504 2.751.513.804 1.615.804 1.128 0 1.675-.838.547-.837.547-2.717zM121.9 51.647l-.915-.214v-.384h2.256l.017.47q.359-.308.957-.496.607-.188 1.23-.188 1.539 0 2.376 1.068.846 1.068.846 3.068 0 2.042-.923 3.161-.914 1.12-2.649 1.12-.965 0-1.837-.188.051.615.051.965v2.17l1.402.206v.401h-3.828v-.401l1.016-.205V51.647zm5.229 3.324q0-1.64-.538-2.436-.53-.803-1.615-.803-1 0-1.667.282v6.417q.76.146 1.667.146 2.153 0 2.153-3.606zM136.298 50.664h.598V62.2l.888.205v.401h-3.409v-.401l1.102-.205v-2.23q0-.83.086-1.428-.915.71-2.29.71-3.29 0-3.29-4.162 0-2.059.923-3.153.931-1.102 2.717-1.102.957 0 1.906.196l.769-.367zm-4.777 4.426q0 1.632.538 2.453.547.82 1.684.82.504 0 .99-.085.496-.086.744-.197v-6.4q-.76-.145-1.734-.145-2.222 0-2.222 3.554zM143.774 50.835v2.17h-.367l-.496-.94q-.427 0-1.016.12-.582.111-1.009.3v5.998l1.376.213v.385h-3.811v-.385l1.017-.213v-6.836l-1.017-.214v-.384h2.341l.077 1q.513-.428 1.384-.821.88-.393 1.393-.393h.128zM150.123 56.825q0 1.196-.76 1.811-.752.616-2.23.616-.599 0-1.325-.128-.718-.12-1.128-.274v-1.974h.385l.418 1.12q.641.58 1.667.58 1.657 0 1.657-1.418 0-1.042-1.307-1.487l-.76-.247q-.864-.282-1.257-.573-.393-.29-.606-.71-.214-.426-.214-1.025 0-1.06.718-1.666.726-.615 1.957-.615.88 0 2.204.265v1.752h-.401l-.36-.932q-.452-.401-1.426-.401-.692 0-1.06.341-.359.342-.359.923 0 .487.325.82.333.334 1 .556 1.256.427 1.64.624.385.196.65.487.273.282.418.65.154.367.154.905zM153.601 59.252q-.82 0-1.23-.487-.402-.487-.402-1.368v-5.63h-1.051v-.385l1.068-.333.863-1.82h.538v1.82h1.838v.717h-1.838v5.478q0 .555.248.837.257.282.667.282.495 0 1.205-.137v.556q-.3.205-.863.333-.564.137-1.043.137zM158.275 56.79q0 1.47 1.367 1.47 1.06 0 1.983-.264v-6.35l-1.214-.213v-.384h2.624v7.434l1.017.213v.385h-2.342l-.068-.65q-.607.334-1.402.581-.794.24-1.333.24-2.05 0-2.05-2.359v-5.246l-1.026-.214v-.384h2.444v5.742zM169.11 59.252h-.632l-3.307-7.605-.82-.214v-.384h3.742v.384l-1.273.23 2.341 5.546 2.24-5.562-1.274-.214v-.384h2.974v.384l-.77.18-3.22 7.639zM182.081 59.252h-.666l-1.983-5.298-1.956 5.298h-.633l-2.777-7.605-.948-.214v-.384h3.82v.384l-1.334.23 1.906 5.427 1.94-5.238h.717l1.931 5.272 1.82-5.477-1.315-.214v-.384h3.059v.384l-.89.18-2.69 7.639zM194.283 58.696v.385h-3.64v-.385l1.068-.196-1.854-2.846-2.17 2.863 1.102.18v.384h-2.888v-.385l.931-.136 2.64-3.487-2.324-3.426-.948-.214v-.384h3.64v.384l-1.068.23 1.547 2.308 1.777-2.324-1.102-.214v-.384h2.888v.384l-.923.18-2.256 2.922 2.64 3.982.94.18zM196.198 62.858q-.667 0-1.316-.154v-1.735h.401l.282.82q.265.197.735.197.444 0 .82-.256.376-.257.684-.76.316-.505.786-1.804l-3.059-7.52-.82-.213v-.384h3.725v.384l-1.264.23 2.17 5.615 2.102-5.631-1.256-.214v-.384h2.99v.384l-.837.18-3.136 7.972q-.555 1.41-.965 2.025-.41.615-.906.931-.496.317-1.136.317zM203.717 59.08v-.384l4.41-6.964h-1.89q-.478 0-.922.086-.444.077-.615.213l-.265 1.154h-.402v-2.136h5.93v.418l-4.409 6.93h2.35q.487 0 1.025-.11.539-.12.76-.291l.437-1.684h.401l-.213 2.769h-6.597zM6.005 80.503v.453H2.236v-.453l1.3-.23 3.904-10.87h1.624l4.059 10.87 1.452.23v.453H9.73v-.453l1.538-.23-1.136-3.308H5.62l-1.153 3.307 1.538.23zm1.837-9.87l-1.966 5.563h3.99l-2.024-5.562zM22.898 72.274q0-1.05-.658-1.53-.658-.478-2.136-.478h-1.769v4.332h1.871q1.385 0 2.034-.546.658-.547.658-1.778zm.863 5.418q0-1.205-.803-1.76-.803-.565-2.572-.565h-2.051v4.82q1.18.051 2.512.051 1.461 0 2.188-.615.726-.624.726-1.931zm-8.545 3.264v-.453l1.47-.23v-10.1l-1.47-.223v-.453h5.238q2.18 0 3.187.65 1.009.64 1.009 2.042 0 1.008-.624 1.717-.615.71-1.735.949 1.547.162 2.393.905.846.735.846 1.897 0 1.65-1.145 2.504-1.137.846-3.324.846l-3.657-.051h-2.188zM33.015 81.127q-2.786 0-4.34-1.513-1.556-1.52-1.556-4.255 0-2.957 1.496-4.47 1.495-1.52 4.434-1.52 1.786 0 3.837.436l.051 2.503h-.564l-.256-1.486q-.598-.368-1.393-.564-.786-.206-1.606-.206-2.196 0-3.205 1.29-1.008 1.291-1.008 4 0 2.495 1.051 3.81 1.06 1.317 3.076 1.317.974 0 1.837-.231.863-.24 1.368-.632l.316-1.71h.555l-.051 2.692q-1.88.539-4.042.539zM48.242 75.145q0-2.4-1.299-3.64-1.29-1.239-3.691-1.239h-1.538v9.887q1.025.068 2.435.068 2.102 0 3.093-1.239 1-1.24 1-3.837zM43.8 69.497q3.17 0 4.7 1.419 1.53 1.41 1.53 4.246 0 2.871-1.48 4.35-1.469 1.478-4.4 1.478l-4.084-.034h-1.47v-.453l1.47-.23v-10.1l-1.47-.223v-.453h5.204zM51.241 80.503l1.47-.23v-10.1l-1.47-.223v-.453h8.597v2.743h-.564L59 70.386q-.957-.12-2.768-.12H54.36v4.478h3.094l.265-1.368h.546v3.521h-.546l-.265-1.384H54.36v4.674h2.256q2.205 0 2.888-.137l.487-2.12h.564l-.162 3.026h-9.152v-.453zM65.059 75.812v4.46l1.905.23v.454h-4.913v-.453l1.358-.23v-10.1l-1.47-.223v-.453h8.597v2.743h-.564l-.274-1.854q-.957-.12-2.768-.12h-1.871v4.777h3.375l.265-1.367h.521v3.52h-.521l-.265-1.384h-3.375zM82.148 80.358q-.99.324-2.059.547-1.068.222-2.298.222-2.786 0-4.341-1.504-1.555-1.504-1.555-4.264 0-3.008 1.503-4.495 1.513-1.495 4.427-1.495 2.085 0 4.024.513v2.46h-.572l-.23-1.418q-.59-.419-1.42-.64-.82-.232-1.734-.232-2.187 0-3.204 1.308-1.009 1.299-1.009 3.982 0 2.52 1.043 3.828 1.042 1.299 3.085 1.299.717 0 1.504-.171.786-.171 1.196-.41v-3.256l-1.47-.222v-.462h4.23v.462l-1.12.222v3.726zM84.327 80.956v-.453l1.47-.23v-10.1l-1.47-.223v-.453h4.589v.453l-1.47.222v4.503h5.392v-4.503l-1.47-.222v-.453h4.58v.453l-1.47.222v10.1l1.47.23v.454h-4.58v-.453l1.47-.23v-4.829h-5.392v4.828l1.47.23v.454h-4.589zM100.212 80.272l1.47.23v.454h-4.58v-.453l1.47-.23v-10.1l-1.47-.223v-.453h4.58v.453l-1.47.222v10.1zM105.818 70.172l-1.47-.222v-.453h4.41v.453l-1.3.222v7.092q0 1.145-.35 2.008-.35.855-1.068 1.36-.71.495-1.59.495-1.093 0-1.768-.257v-2.085h.564l.256 1.188q.163.197.462.308.299.11.658.11 1.196 0 1.196-1.623v-8.596zM120.677 69.497v.453l-1.324.222L115.439 74l4.897 6.272 1.239.23v.454h-2.803l-4.486-5.794-1.547 1.24v3.87l1.64.23v.454h-4.759v-.453l1.47-.23v-10.1l-1.47-.223v-.453h4.589v.453l-1.47.222v5.4l5.486-5.4-1.136-.222v-.453h3.588zM127.155 69.95l-1.77.222v10.049h2.257q1.82 0 2.674-.171l.53-2.384h.555l-.153 3.29h-8.981v-.453l1.47-.23v-10.1l-1.47-.223v-.453h4.888v.453zM139.827 80.956h-.3l-4.195-9.852v9.168l1.538.23v.454h-3.905v-.453l1.47-.23v-10.1l-1.47-.223v-.453h3.47l3.725 8.716 4.067-8.716h3.282v.453l-1.47.222v10.1l1.47.23v.454h-4.649v-.453l1.538-.23v-9.17l-4.571 9.853zM157.882 70.172l-1.538-.222v-.453h3.905v.453l-1.47.222v10.784h-.829l-7.066-10.305v9.621l1.538.23v.454h-3.905v-.453l1.47-.23v-10.1l-1.47-.223v-.453h3.47l5.895 8.485v-7.81zM163.163 75.214q0 2.76.923 3.999.923 1.239 2.888 1.239 1.957 0 2.888-1.24.931-1.238.931-3.998 0-2.743-.93-3.948-.924-1.214-2.89-1.214-1.973 0-2.896 1.214-.914 1.205-.914 3.948zm-1.786 0q0-5.845 5.597-5.845 2.768 0 4.187 1.487 1.418 1.478 1.418 4.358 0 2.922-1.435 4.417-1.436 1.496-4.17 1.496-2.726 0-4.161-1.487-1.436-1.495-1.436-4.426zM180.637 72.89q0-1.41-.658-2.017t-2.213-.607h-.837v5.426h.888q1.444 0 2.128-.658.692-.658.692-2.145zm-3.708 3.571v3.811l1.82.23v.454h-4.828v-.453l1.359-.23v-10.1l-1.47-.223v-.453h4.324q4.204 0 4.204 3.375 0 1.76-1.068 2.675-1.06.914-3.051.914h-1.29zM185.55 75.23q0 2.76.923 3.991.923 1.23 2.889 1.23 1.956 0 2.888-1.221.931-1.222.931-4 0-2.76-.94-3.964-.931-1.214-2.88-1.214-1.965 0-2.888 1.222-.922 1.214-.922 3.957zm-1.785 0q0-5.861 5.597-5.861 2.751 0 4.178 1.487 1.427 1.478 1.427 4.375 0 4.195-3.033 5.443l.427.53q.752.94 1.282 1.341.53.402 1.042.402l.7-.034v.564q-.196.085-.743.196-.538.12-.94.12-.606 0-1.076-.205-.47-.197-.949-.641-.478-.436-1.598-1.855-.307.035-.717.035-2.743 0-4.17-1.496-1.427-1.504-1.427-4.4zM199.316 75.931v4.341l1.735.23v.454h-4.742v-.453l1.358-.23v-10.1l-1.47-.223v-.453h4.948q2.153 0 3.179.726 1.025.727 1.025 2.333 0 1.145-.624 1.983-.623.828-1.726 1.153l3.102 4.58 1.24.23v.454h-2.744l-3.221-5.025h-2.06zm4.333-3.255q0-1.308-.641-1.854-.633-.556-2.23-.556h-1.462v4.896h1.513q1.53 0 2.17-.564.65-.572.65-1.922zM208.57 77.871h.556l.299 1.547q.316.401 1.085.709.778.308 1.53.308 1.196 0 1.863-.607.675-.615.675-1.692 0-.615-.265-1.017-.257-.401-.684-.675-.419-.282-.957-.47-.538-.196-1.11-.393-.565-.196-1.103-.436-.538-.239-.966-.606-.418-.368-.683-.906-.257-.547-.257-1.342 0-1.367 1.026-2.145 1.025-.777 2.845-.777 1.385 0 3.008.367v2.384h-.555l-.3-1.401q-.87-.632-2.153-.632-1.145 0-1.794.47-.641.461-.641 1.281 0 .556.256.923.265.368.684.633.427.256.966.444.546.188 1.11.393.573.196 1.111.453.547.248.966.64.427.385.683.95.265.555.265 1.375 0 1.658-1.017 2.572-1.016.906-2.93.906-.923 0-1.855-.163-.931-.162-1.657-.444v-2.649zM219.816 80.956v-.453l1.82-.23V70.231h-.436q-2.162 0-2.957.17l-.23 1.787h-.573v-2.692h10.083v2.692h-.58l-.232-1.786q-.256-.06-1.119-.103-.863-.051-1.888-.051h-.42v10.023l1.821.23v.454h-5.29zM237.726 70.172l-1.538-.222v-.453h3.905v.453l-1.47.222v6.845q0 2.059-1.136 3.084-1.128 1.026-3.282 1.026-2.281 0-3.418-1.026-1.128-1.034-1.128-2.922v-7.007l-1.47-.222v-.453h4.58v.453l-1.469.222v6.879q0 3.119 3.033 3.119 1.641 0 2.513-.778.88-.778.88-2.307v-6.913zM252.91 69.497v.453l-1.256.222-4.606 11.049h-.435l-4.657-11.049-1.29-.222v-.453h4.63v.453l-1.537.222 3.469 8.434 3.46-8.434-1.503-.222v-.453h3.725zM264.856 81.22h-.453l-2.974-7.895-3.05 7.896h-.453l-3.794-11.049-1-.222v-.453h4.375v.453l-1.683.222 2.726 8.075 3.085-7.947h.384l2.974 7.947 2.597-8.075-1.786-.222v-.453h3.794v.453l-1 .222-3.742 11.049zM272.333 80.272l1.418.23v.454h-3.742v-.453l1.264-.23 3.897-5.179-3.324-4.922-1.29-.222v-.453h4.725v.453l-1.453.222 2.376 3.538 2.657-3.538-1.418-.222v-.453h3.75v.453l-1.264.222-3.221 4.29 3.939 5.81 1.299.23v.454h-4.726v-.453l1.453-.23-3.008-4.444-3.332 4.443zM289.431 76.444v3.828l1.82.23v.454h-5.29v-.453l1.821-.23v-3.778l-4.025-6.323-1.29-.222v-.453h4.845v.453l-1.538.222 3.29 5.29 3.127-5.29-1.452-.222v-.453h3.725v.453l-1.256.222-3.777 6.272zM295.754 80.153l6.426-9.921h-2.136q-2.11 0-2.905.17l-.265 1.804h-.59v-2.709h7.802v.735l-6.469 10.006h2.478q.991 0 2.008-.094 1.026-.094 1.444-.188l.505-2.187h.598l-.231 3.187h-8.665v-.803zM10.149 98.772q0 4.23-3.76 4.23-1.811 0-2.734-1.086-.923-1.085-.923-3.144 0-2.034.923-3.11.923-1.077 2.803-1.077 1.828 0 2.76 1.06.93 1.05.93 3.127zm-1.538 0q0-1.846-.538-2.675-.539-.828-1.684-.828-1.12 0-1.623.794-.496.795-.496 2.709 0 1.94.504 2.751.513.804 1.615.804 1.128 0 1.675-.838.547-.837.547-2.717zM13.32 97.089q0 2.76.922 3.999.923 1.239 2.888 1.239 1.957 0 2.888-1.24.932-1.238.932-3.998 0-2.743-.932-3.948-.923-1.214-2.888-1.214-1.974 0-2.897 1.214-.914 1.205-.914 3.948zm-1.787 0q0-5.845 5.597-5.845 2.769 0 4.187 1.487 1.419 1.478 1.419 4.358 0 2.922-1.436 4.417-1.435 1.496-4.17 1.496-2.726 0-4.161-1.487-1.436-1.495-1.436-4.426zM31.545 97.054q0 5.948-3.76 5.948-1.81 0-2.734-1.521-.923-1.521-.923-4.427 0-2.845.923-4.349.923-1.512 2.803-1.512 1.812 0 2.751 1.495.94 1.487.94 4.366zm-1.572 0q0-2.751-.521-3.964-.521-1.214-1.666-1.214-1.111 0-1.598 1.145-.487 1.145-.487 4.033 0 2.906.495 4.093.496 1.18 1.59 1.18 1.128 0 1.657-1.24.53-1.247.53-4.033zM39.945 94.166q0 .94-.461 1.598-.453.65-1.23.991.973.36 1.503 1.128.538.76.538 1.855 0 1.623-.914 2.443-.914.82-2.845.82-3.658 0-3.658-3.263 0-1.137.547-1.88.547-.752 1.479-1.103-.744-.341-1.214-.99-.461-.65-.461-1.599 0-1.418.863-2.196.871-.777 2.512-.777 1.59 0 2.46.777.881.77.881 2.196zm-1.188 5.572q0-1.368-.538-1.983-.53-.615-1.683-.615-1.128 0-1.624.59-.495.58-.495 2.008 0 1.444.504 2.016.504.573 1.615.573 1.136 0 1.674-.59.547-.598.547-2zm-.35-5.572q0-1.179-.461-1.734-.462-.556-1.393-.556-.906 0-1.35.539-.436.538-.436 1.751 0 1.188.427 1.71.427.512 1.359.512.957 0 1.401-.521.453-.53.453-1.7zM48.575 92.175q0 .376-.273.65-.273.273-.658.273-.376 0-.65-.273-.273-.274-.273-.65 0-.384.274-.658.273-.273.65-.273.384 0 .657.273.273.274.273.658zm-.085 10.058l1.376.213v.385h-4.162v-.385l1.367-.213v-6.836l-1.136-.214V94.8h2.555v7.434zM53.933 102.147l1.47.23v.454h-4.58v-.453l1.47-.23v-10.1l-1.47-.223v-.453h4.58v.453l-1.47.222v10.1zM59.171 102.233l1.376.213v.385h-4.161v-.385l1.367-.213V91.278l-1.367-.205v-.385h2.785v11.545zM66.28 91.825l-1.768.222v10.049h2.256q1.82 0 2.674-.171l.53-2.384h.555l-.153 3.29h-8.981v-.453l1.47-.23v-10.1l-1.47-.223v-.453h4.888v.453zM76.945 102.147l2.34.23v.454h-6.16v-.453l2.35-.23v-9.349l-2.316.829v-.453l3.341-1.897h.445v10.87zM90.369 105.172q-1.077 0-1.658-.658-.573-.658-.573-1.854v-2.52q0-1-.452-1.496-.445-.504-1.385-.539v-.384q1.837-.034 1.837-2.017v-2.512q0-1.205.556-1.854.555-.65 1.675-.65h1.153v.402h-.53q-.777 0-1.11.47-.325.461-.325 1.367v2.82q0 .812-.444 1.401-.445.581-1.197.744v.025q.76.18 1.197.76.444.573.444 1.402v2.854q0 .906.325 1.367.333.47 1.11.47h.53v.402H90.37zM94.71 105.172v-.402h.53q.777 0 1.102-.47.333-.46.333-1.367v-2.854q0-.829.436-1.401.435-.581 1.204-.76v-.026q-.752-.162-1.196-.752-.444-.59-.444-1.393v-2.82q0-.905-.333-1.367-.325-.47-1.103-.47h-.53v-.402h1.163q1.11 0 1.666.65.555.65.555 1.854v2.512q0 1.983 1.837 2.017v.384q-.922.035-1.384.53-.453.496-.453 1.504v2.52q0 1.189-.58 1.847-.573.666-1.641.666h-1.163zM107.202 105.172V90.688h3.897v.402l-2.538.35v12.98l2.538.35v.402h-3.897zM112.38 105.172v-.402l2.538-.35V91.44l-2.538-.35v-.402h3.897v14.484h-3.897zM129.402 97.336q0 1.385-.829 2.094-.829.71-2.384.71-.7 0-1.299-.129l-.538 1.12q.025.145.333.273.308.128.77.128h2.375q1.298 0 1.922.564.633.564.633 1.555 0 .897-.505 1.564-.495.666-1.46 1.025-.966.368-2.342.368-1.64 0-2.504-.504-.854-.505-.854-1.436 0-.453.307-.897.308-.436 1.128-1.026-.487-.162-.82-.555-.333-.393-.333-.846l1.35-1.521q-1.35-.632-1.35-2.487 0-1.316.829-2.033.837-.718 2.426-.718.316 0 .812.068.496.06.76.146l1.889-.949.3.368-1.189 1.23q.573.64.573 1.888zm-.35 6.58q0-.487-.3-.76-.299-.274-.905-.274h-3.11q-.36.308-.59.778-.222.478-.222.888 0 .735.53 1.051.53.325 1.623.325 1.427 0 2.196-.53.778-.53.778-1.478zm-2.846-4.426q.931 0 1.316-.53.393-.538.393-1.624 0-1.136-.402-1.615-.401-.487-1.29-.487-.897 0-1.316.487-.418.487-.418 1.615 0 1.128.41 1.641.41.513 1.307.513zM131.282 94.867q0-1.726.965-2.675.966-.948 2.726-.948 1.957 0 2.863 1.41.914 1.41.914 4.418 0 2.88-1.17 4.409-1.171 1.52-3.29 1.52-1.393 0-2.555-.29v-1.982h.555l.3 1.23q.273.128.734.23.461.103.931.103 1.368 0 2.102-1.196.735-1.205.812-3.537-1.299.726-2.64.726-1.513 0-2.384-.897-.863-.906-.863-2.521zm3.708-2.94q-2.136 0-2.136 2.974 0 1.307.513 1.931.512.624 1.59.624 1.101 0 2.22-.453 0-2.623-.52-3.845-.513-1.23-1.667-1.23zM146.415 94.414h.598v11.536l.889.205v.401h-3.41v-.401l1.102-.205v-2.23q0-.83.086-1.428-.914.71-2.29.71-3.29 0-3.29-4.162 0-2.059.923-3.153.931-1.102 2.717-1.102.957 0 1.906.196l.769-.367zm-4.777 4.426q0 1.632.539 2.453.546.82 1.683.82.504 0 .991-.085.496-.086.743-.197v-6.4q-.76-.145-1.734-.145-2.222 0-2.222 3.554zM154.832 103.002q-2.786 0-4.341-1.513-1.555-1.52-1.555-4.255 0-2.957 1.495-4.47 1.495-1.52 4.435-1.52 1.786 0 3.836.436l.052 2.503h-.564l-.257-1.486q-.598-.368-1.392-.564-.787-.206-1.607-.206-2.196 0-3.204 1.29-1.009 1.291-1.009 4 0 2.495 1.051 3.81 1.06 1.317 3.077 1.317.974 0 1.837-.231.863-.24 1.367-.632l.316-1.71h.556l-.052 2.692q-1.88.539-4.041.539zM170.879 102.233q-.991.324-2.06.547-1.068.222-2.298.222-2.786 0-4.34-1.504-1.556-1.504-1.556-4.264 0-3.008 1.504-4.495 1.512-1.495 4.426-1.495 2.085 0 4.025.513v2.46h-.573l-.23-1.418q-.59-.419-1.419-.64-.82-.232-1.734-.232-2.188 0-3.205 1.308-1.008 1.299-1.008 3.982 0 2.52 1.042 3.828 1.043 1.299 3.085 1.299.718 0 1.504-.171t1.196-.41v-3.256l-1.47-.222v-.462h4.23v.462l-1.12.222v3.726zM175.057 97.106q0 2.76.923 3.99.923 1.23 2.888 1.23 1.957 0 2.889-1.221.931-1.222.931-4 0-2.76-.94-3.964-.931-1.214-2.88-1.214-1.965 0-2.888 1.222-.923 1.214-.923 3.957zm-1.786 0q0-5.862 5.597-5.862 2.752 0 4.179 1.487 1.427 1.478 1.427 4.375 0 4.195-3.034 5.443l.428.53q.752.94 1.281 1.341.53.402 1.043.402l.7-.034v.564q-.196.085-.743.196-.538.12-.94.12-.606 0-1.076-.205-.47-.197-.949-.641-.478-.436-1.598-1.855-.307.035-.718.035-2.743 0-4.17-1.496-1.427-1.504-1.427-4.4zM196.24 98.541q-.906 0-2.093-1.034-.633-.538-1.051-.777-.41-.248-.735-.248-.658 0-.991.47-.334.461-.445 1.59h-.863q.154-1.599.718-2.265.573-.675 1.58-.675.48 0 .984.248.512.247 1.153.786.735.615 1.085.829.36.205.658.205.59 0 .923-.445.333-.453.496-1.623h.88q-.145 1.11-.419 1.7-.273.59-.726.915-.453.324-1.154.324zM199.692 99.362v-1.308h4.546v1.308h-4.546zM210.262 97.456v3.64h-.88v-3.64h-3.623v-.872h3.623v-3.64h.88v3.64h3.64v.872h-3.64zM223.78 98.336v.872h-8.143v-.872h8.144zm0-3.503v.871h-8.143v-.871h8.144zM225.532 101.241v-.88l6.913-3.34-6.913-3.342v-.88l8.144 4.008v.427l-8.144 4.007z"/></g></g></svg>