<?xml version="1.0" encoding="UTF-8" standalone="no"?>
<!-- Created with Inkscape (http://www.inkscape.org/) -->

<svg
   xmlns:dc="http://purl.org/dc/elements/1.1/"
   xmlns:cc="http://creativecommons.org/ns#"
   xmlns:rdf="http://www.w3.org/1999/02/22-rdf-syntax-ns#"
   xmlns:svg="http://www.w3.org/2000/svg"
   xmlns="http://www.w3.org/2000/svg"
   xmlns:sodipodi="http://sodipodi.sourceforge.net/DTD/sodipodi-0.dtd"
   xmlns:inkscape="http://www.inkscape.org/namespaces/inkscape"
   width="76.850525mm"
   height="29.844292mm"
   viewBox="0 0 272.30501 105.74749"
   id="svg2"
   version="1.1"
   inkscape:version="0.91 r13725"
   sodipodi:docname="UbuntuMono Nerd Font.svg">
  <defs
     id="defs4" />
  <sodipodi:namedview
     id="base"
     pagecolor="#ffffff"
     bordercolor="#666666"
     borderopacity="1.0"
     inkscape:pageopacity="0.0"
     inkscape:pageshadow="2"
     inkscape:zoom="0.7"
     inkscape:cx="-54.177147"
     inkscape:cy="-401.88144"
     inkscape:document-units="px"
     inkscape:current-layer="layer1"
     showgrid="false"
     inkscape:window-width="1861"
     inkscape:window-height="1056"
     inkscape:window-x="59"
     inkscape:window-y="24"
     inkscape:window-maximized="1" />
  <metadata
     id="metadata7">
    <rdf:RDF>
      <cc:Work
         rdf:about="">
        <dc:format>image/svg+xml</dc:format>
        <dc:type
           rdf:resource="http://purl.org/dc/dcmitype/StillImage" />
        <dc:title />
      </cc:Work>
    </rdf:RDF>
  </metadata>
  <g
     inkscape:label="Layer 1"
     inkscape:groupmode="layer"
     id="layer1"
     transform="translate(-64.177143,-81.876132)">
    <g
       style="font-style:normal;font-weight:normal;font-size:27.5px;line-height:125%;font-family:'UbuntuMono Nerd Font';text-decoration: underline;text-decoration-line: underline;letter-spacing:0px;word-spacing:0px;fill:#ffffff;fill-opacity:1;stroke:none;stroke-width:1px;stroke-linecap:butt;stroke-linejoin:miter;stroke-opacity:1"
       id="text4136">
      <path
         d="m 69.732143,101.29113 q -1.5125,0 -2.585,-0.44 -1.045,-0.44 -1.705,-1.237498 -0.66,-0.7975 -0.9625,-1.9525 -0.3025,-1.155 -0.3025,-2.585 l 0,-11.165 2.255,0 0,10.9175 q 0,1.2925 0.22,2.1725 0.2475,0.8525 0.66,1.375 0.44,0.5225 1.045,0.7425 0.605,0.22 1.375,0.22 0.77,0 1.375,-0.22 0.605,-0.22 1.0175,-0.7425 0.44,-0.5225 0.66,-1.375 0.2475,-0.88 0.2475,-2.1725 l 0,-10.9175 2.255,0 0,11.165 q 0,1.43 -0.3025,2.585 -0.3025,1.155 -0.9625,1.9525 -0.66,0.797498 -1.7325,1.237498 -1.045,0.44 -2.5575,0.44 z"
         id="path4140"
         inkscape:connector-curvature="0" />
      <path
         d="m 80.842143,88.641132 q 0.4125,-0.2475 1.1825,-0.495 0.7975,-0.275 1.76,-0.275 1.2925,0 2.31,0.495 1.0175,0.495 1.705,1.375 0.715,0.88 1.0725,2.1175 0.385,1.21 0.385,2.695 0,1.54 -0.44,2.7775 -0.44,1.2375 -1.2375,2.1175 -0.7975,0.852498 -1.925,1.319998 -1.1275,0.4675 -2.5025,0.4675 -1.5125,0 -2.695,-0.22 -1.1825,-0.22 -1.8975,-0.44 l 0,-18.314998 2.2825,-0.385 0,6.765 z m 0,10.3125 q 0.5225,0.1375 1.045,0.22 0.5225,0.055 0.99,0.055 1.8975,0 2.97,-1.155 1.0725,-1.1825 1.0725,-3.52 0,-0.99 -0.1925,-1.8425 -0.1925,-0.88 -0.605,-1.485 -0.4125,-0.6325 -1.0725,-0.99 -0.6325,-0.3575 -1.54,-0.3575 -0.7975,0 -1.54,0.33 -0.7425,0.3025 -1.1275,0.66 l 0,8.085 z"
         id="path4142"
         inkscape:connector-curvature="0" />
      <path
         d="m 102.15464,100.57613 q -0.7425,0.1925 -1.98,0.4125 -1.209997,0.22 -2.859997,0.22 -1.4575,0 -2.42,-0.4125 -0.9625,-0.44 -1.5675,-1.209998 -0.605,-0.7975 -0.8525,-1.87 -0.2475,-1.0725 -0.2475,-2.365 l 0,-7.1775 2.255,0 0,6.6825 q 0,2.365 0.6875,3.355 0.715,0.99 2.365,0.99 0.3575,0 0.715,-0.0275 0.385,-0.0275 0.715,-0.055 0.33,-0.055 0.5775,-0.0825 0.2475,-0.055 0.33,-0.0825 l 0,-10.78 2.282497,0 0,12.402498 z"
         id="path4144"
         inkscape:connector-curvature="0" />
      <path
         d="m 106.05964,88.531132 q 1.2375,-0.3025 2.4475,-0.4675 1.2375,-0.165 2.31,-0.165 2.5575,0 3.85,1.32 1.32,1.32 1.32,4.235 l 0,7.479998 -2.255,0 0,-7.067498 q 0,-1.2375 -0.22,-2.0075 -0.22,-0.77 -0.6325,-1.1825 -0.385,-0.44 -0.9625,-0.605 -0.55,-0.165 -1.21,-0.165 -0.55,0 -1.1825,0.0825 -0.605,0.055 -1.1825,0.165 l 0,10.779998 -2.2825,0 0,-12.402498 z"
         id="path4146"
         inkscape:connector-curvature="0" />
      <path
         d="m 124.53964,88.173632 5.39,0 0,1.8975 -5.39,0 0,5.94 q 0,0.9625 0.1375,1.5675 0.1375,0.605 0.44,0.99 0.33,0.3575 0.825,0.495 0.495,0.1375 1.21,0.1375 0.99,0 1.595,-0.165 0.605,-0.165 1.155,-0.44 l 0.33,1.924998 q -0.385,0.165 -1.2375,0.44 -0.825,0.275 -2.0625,0.275 -1.43,0 -2.3375,-0.33 -0.9075,-0.33 -1.43,-0.989998 -0.495,-0.66 -0.6875,-1.6225 -0.1925,-0.99 -0.1925,-2.2825 l 0,-5.94 -2.695,0 0,-1.8975 2.695,0 0,-3.575 2.255,-0.385 0,3.96 z"
         id="path4148"
         inkscape:connector-curvature="0" />
      <path
         d="m 143.40464,100.57613 q -0.7425,0.1925 -1.98,0.4125 -1.21,0.22 -2.86,0.22 -1.4575,0 -2.42,-0.4125 -0.9625,-0.44 -1.5675,-1.209998 -0.605,-0.7975 -0.8525,-1.87 -0.2475,-1.0725 -0.2475,-2.365 l 0,-7.1775 2.255,0 0,6.6825 q 0,2.365 0.6875,3.355 0.715,0.99 2.365,0.99 0.3575,0 0.715,-0.0275 0.385,-0.0275 0.715,-0.055 0.33,-0.055 0.5775,-0.0825 0.2475,-0.055 0.33,-0.0825 l 0,-10.78 2.2825,0 0,12.402498 z"
         id="path4150"
         inkscape:connector-curvature="0" />
      <path
         d="m 152.25964,92.381132 2.64,-8.47 2.1175,0 q 0.55,4.015 0.77,8.2225 0.2475,4.2075 0.44,8.799998 l -2.2,0 q -0.0275,-1.484998 -0.055,-3.217498 -0.0275,-1.7325 -0.0825,-3.575 -0.0275,-1.8425 -0.0825,-3.74 -0.0275,-1.8975 -0.0825,-3.685 l -2.475,7.755 -1.98,0 -2.53,-7.755 q -0.0275,1.7875 -0.0825,3.685 -0.0275,1.87 -0.0825,3.74 -0.0275,1.8425 -0.0825,3.575 -0.0275,1.7325 -0.055,3.217498 l -2.2,0 q 0.0825,-2.089998 0.1925,-4.289998 0.11,-2.2 0.2475,-4.3725 0.165,-2.1725 0.3575,-4.29 0.22,-2.1175 0.4675,-4.07 l 2.09,0 2.6675,8.47 z"
         id="path4152"
         inkscape:connector-curvature="0" />
      <path
         d="m 171.75714,94.553632 q 0,1.5125 -0.44,2.75 -0.4125,1.21 -1.1825,2.09 -0.77,0.879998 -1.8425,1.374998 -1.0725,0.4675 -2.3375,0.4675 -1.2375,0 -2.31,-0.4675 -1.045,-0.495 -1.815,-1.374998 -0.77,-0.88 -1.21,-2.09 -0.4125,-1.2375 -0.4125,-2.75 0,-1.5125 0.4125,-2.75 0.44,-1.2375 1.21,-2.09 0.77,-0.88 1.815,-1.3475 1.0725,-0.495 2.31,-0.495 1.265,0 2.3375,0.495 1.0725,0.4675 1.8425,1.3475 0.77,0.8525 1.1825,2.09 0.44,1.2375 0.44,2.75 z m -2.3375,0 q 0,-2.1725 -0.935,-3.41 -0.935,-1.265 -2.53,-1.265 -1.5675,0 -2.5025,1.265 -0.9075,1.2375 -0.9075,3.41 0,2.145 0.9075,3.41 0.935,1.2375 2.5025,1.2375 1.595,0 2.53,-1.2375 0.935,-1.265 0.935,-3.41 z"
         id="path4154"
         inkscape:connector-curvature="0" />
      <path
         d="m 174.80964,88.531132 q 1.2375,-0.3025 2.4475,-0.4675 1.2375,-0.165 2.31,-0.165 2.5575,0 3.85,1.32 1.32,1.32 1.32,4.235 l 0,7.479998 -2.255,0 0,-7.067498 q 0,-1.2375 -0.22,-2.0075 -0.22,-0.77 -0.6325,-1.1825 -0.385,-0.44 -0.9625,-0.605 -0.55,-0.165 -1.21,-0.165 -0.55,0 -1.1825,0.0825 -0.605,0.055 -1.1825,0.165 l 0,10.779998 -2.2825,0 0,-12.402498 z"
         id="path4156"
         inkscape:connector-curvature="0" />
      <path
         d="m 199.25714,94.553632 q 0,1.5125 -0.44,2.75 -0.4125,1.21 -1.1825,2.09 -0.77,0.879998 -1.8425,1.374998 -1.0725,0.4675 -2.3375,0.4675 -1.2375,0 -2.31,-0.4675 -1.045,-0.495 -1.815,-1.374998 -0.77,-0.88 -1.21,-2.09 -0.4125,-1.2375 -0.4125,-2.75 0,-1.5125 0.4125,-2.75 0.44,-1.2375 1.21,-2.09 0.77,-0.88 1.815,-1.3475 1.0725,-0.495 2.31,-0.495 1.265,0 2.3375,0.495 1.0725,0.4675 1.8425,1.3475 0.77,0.8525 1.1825,2.09 0.44,1.2375 0.44,2.75 z m -2.3375,0 q 0,-2.1725 -0.935,-3.41 -0.935,-1.265 -2.53,-1.265 -1.5675,0 -2.5025,1.265 -0.9075,1.2375 -0.9075,3.41 0,2.145 0.9075,3.41 0.935,1.2375 2.5025,1.2375 1.595,0 2.53,-1.2375 0.935,-1.265 0.935,-3.41 z"
         id="path4158"
         inkscape:connector-curvature="0" />
      <path
         d="m 224.03464,100.93363 q -0.935,-2.282498 -1.76,-4.124998 -0.825,-1.87 -1.595,-3.4925 -0.7425,-1.6225 -1.485,-3.0525 -0.7425,-1.4575 -1.5125,-2.915 l 0,13.584998 -2.0625,0 0,-17.022498 2.31,0 q 1.1275,2.0625 1.9525,3.6025 0.8525,1.54 1.54,2.9975 0.715,1.43 1.375,2.97 0.66,1.5125 1.485,3.52 l 0,-13.09 2.0625,0 0,17.022498 -2.31,0 z"
         id="path4160"
         inkscape:connector-curvature="0" />
      <path
         d="m 234.97964,87.871132 q 2.585,0 3.9875,1.6225 1.4025,1.595 1.4025,4.8675 l 0,0.7975 -9.13,0 q 0.1375,1.98 1.2925,3.025 1.1825,1.0175 3.3,1.0175 1.21,0 2.0625,-0.1925 0.8525,-0.1925 1.2925,-0.4125 l 0.3025,1.924998 q -0.4125,0.22 -1.485,0.4675 -1.0725,0.2475 -2.42,0.2475 -1.65,0 -2.915,-0.495 -1.2375,-0.5225 -2.0625,-1.402498 -0.825,-0.88 -1.2375,-2.09 -0.4125,-1.2375 -0.4125,-2.6675 0,-1.705 0.5225,-2.97 0.5225,-1.265 1.375,-2.09 0.8525,-0.825 1.925,-1.2375 1.0725,-0.4125 2.2,-0.4125 z m 3.08,5.445 q 0,-1.6225 -0.8525,-2.5575 -0.8525,-0.9625 -2.255,-0.9625 -0.7975,0 -1.4575,0.3025 -0.6325,0.3025 -1.1,0.7975 -0.4675,0.495 -0.7425,1.1275 -0.275,0.6325 -0.3575,1.2925 l 6.765,0 z"
         id="path4162"
         inkscape:connector-curvature="0" />
      <path
         d="m 244.54964,100.93363 0,-12.072498 q 2.805,-0.9625 5.665,-0.9625 0.88,0 1.6775,0.0825 0.7975,0.055 1.76,0.275 l -0.4125,2.0075 q -0.88,-0.2475 -1.5675,-0.3025 -0.66,-0.0825 -1.4575,-0.0825 -1.6775,0 -3.41,0.4675 l 0,10.587498 -2.255,0 z"
         id="path4164"
         inkscape:connector-curvature="0" />
      <path
         d="m 264.87214,90.868632 q -0.385,-0.3575 -1.1275,-0.66 -0.7425,-0.33 -1.54,-0.33 -0.9075,0 -1.5675,0.3575 -0.6325,0.3575 -1.045,0.99 -0.4125,0.605 -0.605,1.485 -0.1925,0.8525 -0.1925,1.8425 0,2.2275 1.045,3.4375 1.045,1.21 2.7225,1.21 0.8525,0 1.43,-0.0825 0.605,-0.0825 0.88,-0.165 l 0,-8.085 z m 0,-8.6075 2.2825,-0.385 0,18.699998 q -0.7425,0.22 -1.8975,0.44 -1.155,0.22 -2.695,0.22 -1.375,0 -2.5025,-0.4675 -1.1275,-0.4675 -1.925,-1.319998 -0.7975,-0.88 -1.2375,-2.1175 -0.44,-1.2375 -0.44,-2.7775 0,-1.485 0.3575,-2.695 0.385,-1.2375 1.1,-2.1175 0.715,-0.88 1.705,-1.375 1.0175,-0.495 2.31,-0.495 1.0175,0 1.7875,0.2475 0.77,0.2475 1.155,0.5225 l 0,-6.38 z"
         id="path4166"
         inkscape:connector-curvature="0" />
      <path
         d="m 285.35964,100.93363 0,-17.022498 9.6525,0 0,1.925 -7.3975,0 0,5.3075 6.5175,0 0,1.8975 -6.5175,0 0,7.892498 -2.255,0 z"
         id="path4168"
         inkscape:connector-curvature="0" />
      <path
         d="m 309.25714,94.553632 q 0,1.5125 -0.44,2.75 -0.4125,1.21 -1.1825,2.09 -0.77,0.879998 -1.8425,1.374998 -1.0725,0.4675 -2.3375,0.4675 -1.2375,0 -2.31,-0.4675 -1.045,-0.495 -1.815,-1.374998 -0.77,-0.88 -1.21,-2.09 -0.4125,-1.2375 -0.4125,-2.75 0,-1.5125 0.4125,-2.75 0.44,-1.2375 1.21,-2.09 0.77,-0.88 1.815,-1.3475 1.0725,-0.495 2.31,-0.495 1.265,0 2.3375,0.495 1.0725,0.4675 1.8425,1.3475 0.77,0.8525 1.1825,2.09 0.44,1.2375 0.44,2.75 z m -2.3375,0 q 0,-2.1725 -0.935,-3.41 -0.935,-1.265 -2.53,-1.265 -1.5675,0 -2.5025,1.265 -0.9075,1.2375 -0.9075,3.41 0,2.145 0.9075,3.41 0.935,1.2375 2.5025,1.2375 1.595,0 2.53,-1.2375 0.935,-1.265 0.935,-3.41 z"
         id="path4170"
         inkscape:connector-curvature="0" />
      <path
         d="m 312.30964,88.531132 q 1.2375,-0.3025 2.4475,-0.4675 1.2375,-0.165 2.31,-0.165 2.5575,0 3.85,1.32 1.32,1.32 1.32,4.235 l 0,7.479998 -2.255,0 0,-7.067498 q 0,-1.2375 -0.22,-2.0075 -0.22,-0.77 -0.6325,-1.1825 -0.385,-0.44 -0.9625,-0.605 -0.55,-0.165 -1.21,-0.165 -0.55,0 -1.1825,0.0825 -0.605,0.055 -1.1825,0.165 l 0,10.779998 -2.2825,0 0,-12.402498 z"
         id="path4172"
         inkscape:connector-curvature="0" />
      <path
         d="m 330.78964,88.173632 5.39,0 0,1.8975 -5.39,0 0,5.94 q 0,0.9625 0.1375,1.5675 0.1375,0.605 0.44,0.99 0.33,0.3575 0.825,0.495 0.495,0.1375 1.21,0.1375 0.99,0 1.595,-0.165 0.605,-0.165 1.155,-0.44 l 0.33,1.924998 q -0.385,0.165 -1.2375,0.44 -0.825,0.275 -2.0625,0.275 -1.43,0 -2.3375,-0.33 -0.9075,-0.33 -1.43,-0.989998 -0.495,-0.66 -0.6875,-1.6225 -0.1925,-0.99 -0.1925,-2.2825 l 0,-5.94 -2.695,0 0,-1.8975 2.695,0 0,-3.575 2.255,-0.385 0,3.96 z"
         id="path4174"
         inkscape:connector-curvature="0" />
    </g>
    <g
       style="font-style:normal;font-weight:normal;font-size:27.5px;line-height:125%;font-family:'UbuntuMono Nerd Font';letter-spacing:0px;word-spacing:0px;fill:#ffffff;fill-opacity:1;stroke:none;stroke-width:1px;stroke-linecap:butt;stroke-linejoin:miter;stroke-opacity:1"
       id="text4140">
      <path
         d="m 69.881903,139.90112 q 0.5425,0 0.9625,-0.035 0.4375,-0.035 0.7175,-0.0875 l 0,-2.415 q -0.28,-0.0875 -0.6825,-0.14 -0.385,-0.0525 -0.8225,-0.0525 -0.4025,0 -0.7875,0.07 -0.385,0.0525 -0.6825,0.21 -0.2975,0.1575 -0.49,0.42 -0.1925,0.245 -0.1925,0.63 0,0.7875 0.525,1.1025 0.5425,0.2975 1.4525,0.2975 z m -0.14,-7.28 q 0.91,0 1.5225,0.2275 0.63,0.2275 1.015,0.63 0.385,0.4025 0.5425,0.98 0.1575,0.5775 0.1575,1.26 l 0,5.075 q -0.5075,0.0875 -1.3475,0.21 -0.8225,0.1225 -1.6975,0.1225 -0.665,0 -1.295,-0.1225 -0.63,-0.105 -1.12,-0.385 -0.49,-0.2975 -0.7875,-0.805 -0.2975,-0.5075 -0.2975,-1.295 0,-0.7 0.2975,-1.1725 0.315,-0.49 0.7875,-0.7875 0.49,-0.2975 1.1025,-0.42 0.63,-0.14 1.26,-0.14 0.8575,0 1.68,0.1925 l 0,-0.4025 q 0,-0.3675 -0.0875,-0.7 -0.07,-0.35 -0.2975,-0.63 -0.21,-0.28 -0.595,-0.4375 -0.3675,-0.175 -0.9625,-0.175 -0.7525,0 -1.3125,0.105 -0.56,0.105 -0.8575,0.21 l -0.175,-1.19 q 0.2975,-0.14 0.98,-0.245 0.7,-0.105 1.4875,-0.105 z"
         style="font-size:17.5px"
         id="path4177"
         inkscape:connector-curvature="0" />
      <path
         d="m 76.864403,133.11112 q 0.2625,-0.1575 0.7525,-0.315 0.5075,-0.175 1.12,-0.175 0.8225,0 1.47,0.315 0.6475,0.315 1.085,0.875 0.455,0.56 0.6825,1.3475 0.245,0.77 0.245,1.715 0,0.98 -0.28,1.7675 -0.28,0.7875 -0.7875,1.3475 -0.5075,0.5425 -1.225,0.84 -0.7175,0.2975 -1.5925,0.2975 -0.9625,0 -1.715,-0.14 -0.7525,-0.14 -1.2075,-0.28 l 0,-11.655 1.4525,-0.245 0,4.305 z m 0,6.5625 q 0.3325,0.0875 0.665,0.14 0.3325,0.035 0.63,0.035 1.2075,0 1.89,-0.735 0.6825,-0.7525 0.6825,-2.24 0,-0.63 -0.1225,-1.1725 -0.1225,-0.56 -0.385,-0.945 -0.2625,-0.4025 -0.6825,-0.63 -0.4025,-0.2275 -0.98,-0.2275 -0.5075,0 -0.98,0.21 -0.4725,0.1925 -0.7175,0.42 l 0,5.145 z"
         style="font-size:17.5px"
         id="path4179"
         inkscape:connector-curvature="0" />
      <path
         d="m 83.776903,136.89112 q 0,-1.1025 0.35,-1.9075 0.35,-0.805 0.9625,-1.33 0.6125,-0.525 1.4175,-0.77 0.8225,-0.2625 1.75,-0.2625 0.595,0 1.1725,0.0875 0.595,0.07 1.26,0.28 l -0.3325,1.2425 q -0.5775,-0.21 -1.0675,-0.2625 -0.4725,-0.07 -0.9625,-0.07 -0.63,0 -1.19,0.175 -0.56,0.1575 -0.98,0.525 -0.4025,0.35 -0.6475,0.9275 -0.245,0.56 -0.245,1.365 0,0.77 0.2275,1.33 0.2275,0.5425 0.63,0.91 0.42,0.35 0.9975,0.525 0.5775,0.175 1.2775,0.175 0.56,0 1.0675,-0.0525 0.525,-0.07 1.1375,-0.28 l 0.21,1.2075 q -0.6125,0.2275 -1.2425,0.315 -0.63,0.105 -1.365,0.105 -0.98,0 -1.8025,-0.2625 -0.805,-0.28 -1.4,-0.805 -0.5775,-0.525 -0.91,-1.3125 -0.315,-0.805 -0.315,-1.855 z"
         style="font-size:17.5px"
         id="path4181"
         inkscape:connector-curvature="0" />
      <path
         d="m 97.724403,134.52862 q -0.245,-0.2275 -0.7175,-0.42 -0.4725,-0.21 -0.98,-0.21 -0.5775,0 -0.9975,0.2275 -0.4025,0.2275 -0.665,0.63 -0.2625,0.385 -0.385,0.945 -0.1225,0.5425 -0.1225,1.1725 0,1.4175 0.665,2.1875 0.665,0.77 1.7325,0.77 0.5425,0 0.91,-0.0525 0.385,-0.0525 0.56,-0.105 l 0,-5.145 z m 0,-5.4775 1.4525,-0.245 0,11.9 q -0.4725,0.14 -1.2075,0.28 -0.735,0.14 -1.715,0.14 -0.875,0 -1.5925,-0.2975 -0.7175,-0.2975 -1.225,-0.84 -0.5075,-0.56 -0.7875,-1.3475 -0.28,-0.7875 -0.28,-1.7675 0,-0.945 0.2275,-1.715 0.245,-0.7875 0.7,-1.3475 0.455,-0.56 1.085,-0.875 0.6475,-0.315 1.47,-0.315 0.6475,0 1.1375,0.1575 0.49,0.1575 0.735,0.3325 l 0,-4.06 z"
         style="font-size:17.5px"
         id="path4183"
         inkscape:connector-curvature="0" />
      <path
         d="m 104.9519,132.62112 q 1.645,0 2.5375,1.0325 0.8925,1.015 0.8925,3.0975 l 0,0.5075 -5.81,0 q 0.0875,1.26 0.8225,1.925 0.7525,0.6475 2.1,0.6475 0.77,0 1.3125,-0.1225 0.5425,-0.1225 0.8225,-0.2625 l 0.1925,1.225 q -0.2625,0.14 -0.945,0.2975 -0.6825,0.1575 -1.54,0.1575 -1.05,0 -1.855,-0.315 -0.7875,-0.3325 -1.3125,-0.8925 -0.525,-0.56 -0.7875,-1.33 -0.2625,-0.7875 -0.2625,-1.6975 0,-1.085 0.3325,-1.89 0.3325,-0.805 0.875,-1.33 0.5425,-0.525 1.225,-0.7875 0.6825,-0.2625 1.4,-0.2625 z m 1.96,3.465 q 0,-1.0325 -0.5425,-1.6275 -0.5425,-0.6125 -1.435,-0.6125 -0.5075,0 -0.9275,0.1925 -0.4025,0.1925 -0.7,0.5075 -0.2975,0.315 -0.4725,0.7175 -0.175,0.4025 -0.2275,0.8225 l 4.305,0 z"
         style="font-size:17.5px"
         id="path4185"
         inkscape:connector-curvature="0" />
      <path
         d="m 111.9869,140.93362 0,-6.9125 -1.715,0 0,-1.2075 1.715,0 0,-0.735 q 0,-0.945 0.2625,-1.5575 0.2625,-0.63 0.6825,-1.015 0.4375,-0.385 0.9975,-0.5425 0.5775,-0.1575 1.2075,-0.1575 0.63,0 1.26,0.14 0.6475,0.14 1.2075,0.3325 l -0.2625,1.2425 q -0.385,-0.1925 -0.9625,-0.3325 -0.5775,-0.14 -1.1725,-0.14 -0.3675,0 -0.7,0.105 -0.315,0.0875 -0.56,0.3325 -0.245,0.2275 -0.385,0.63 -0.14,0.385 -0.14,0.98 l 0,0.7175 3.2725,0 0,1.2075 -3.2725,0 0,6.9125 -1.435,0 z"
         style="font-size:17.5px"
         id="path4187"
         inkscape:connector-curvature="0" />
      <path
         d="m 123.9744,140.18112 q -0.245,0.14 -0.7525,0.2975 -0.5075,0.1575 -1.1725,0.1575 -0.7175,0 -1.3475,-0.2275 -0.6125,-0.245 -1.085,-0.7175 -0.455,-0.49 -0.735,-1.225 -0.2625,-0.7525 -0.2625,-1.7675 0,-0.8925 0.245,-1.6275 0.2625,-0.7525 0.735,-1.295 0.49,-0.5425 1.19,-0.84 0.7,-0.315 1.5925,-0.315 1.05,0 1.785,0.1575 0.7525,0.14 1.26,0.28 l 0,7.245 q 0,1.89 -0.9625,2.73 -0.945,0.84 -2.87,0.84 -0.7875,0 -1.435,-0.1225 -0.63,-0.1225 -1.12,-0.2975 l 0.2625,-1.2775 q 0.455,0.1925 1.0325,0.315 0.595,0.1225 1.295,0.1225 1.26,0 1.8025,-0.5075 0.5425,-0.5075 0.5425,-1.645 l 0,-0.28 z m 0,-6.09 q -0.21,-0.07 -0.5775,-0.1225 -0.3675,-0.07 -0.9975,-0.07 -1.12,0 -1.715,0.77 -0.5775,0.77 -0.5775,2.0475 0,0.7 0.1575,1.2075 0.175,0.49 0.455,0.8225 0.2975,0.315 0.665,0.4725 0.3675,0.14 0.7875,0.14 0.5425,0 1.015,-0.1575 0.49,-0.1575 0.7875,-0.3675 l 0,-4.7425 z"
         style="font-size:17.5px"
         id="path4189"
         inkscape:connector-curvature="0" />
      <path
         d="m 127.9119,140.93362 0,-11.8825 1.4525,-0.245 0,4.13 q 0.35,-0.14 0.7875,-0.21 0.4375,-0.0875 0.8575,-0.0875 0.9275,0 1.54,0.28 0.63,0.2625 0.9975,0.7525 0.3675,0.49 0.525,1.1725 0.1575,0.6825 0.1575,1.505 l 0,4.585 -1.435,0 0,-4.27 q 0,-1.505 -0.42,-2.1175 -0.42,-0.63 -1.505,-0.63 -0.455,0 -0.8925,0.105 -0.42,0.0875 -0.6125,0.175 l 0,6.7375 -1.4525,0 z"
         style="font-size:17.5px"
         id="path4191"
         inkscape:connector-curvature="0" />
      <path
         d="m 139.0769,131.55362 q -0.455,0 -0.7875,-0.315 -0.3325,-0.315 -0.3325,-0.8575 0,-0.5425 0.3325,-0.8575 0.3325,-0.315 0.7875,-0.315 0.4725,0 0.7875,0.315 0.3325,0.315 0.3325,0.8575 0,0.5425 -0.3325,0.8575 -0.315,0.315 -0.7875,0.315 z m -0.3675,2.4675 -2.345,0 0,-1.2075 3.78,0 0,4.9875 q 0,1.2075 0.3325,1.6275 0.3325,0.4025 0.9975,0.4025 0.5075,0 0.9275,-0.1225 0.4375,-0.1225 0.6825,-0.2625 l 0.21,1.225 q -0.105,0.0525 -0.2975,0.14 -0.1925,0.07 -0.455,0.14 -0.245,0.07 -0.56,0.1225 -0.2975,0.0525 -0.63,0.0525 -0.77,0 -1.2775,-0.21 -0.5075,-0.21 -0.8225,-0.63 -0.2975,-0.42 -0.42,-1.0325 -0.1225,-0.63 -0.1225,-1.4525 l 0,-3.78 z"
         style="font-size:17.5px"
         id="path4193"
         inkscape:connector-curvature="0" />
      <path
         d="m 149.5594,131.55362 q -0.455,0 -0.7875,-0.315 -0.3325,-0.315 -0.3325,-0.8575 0,-0.5425 0.3325,-0.8575 0.3325,-0.315 0.7875,-0.315 0.4725,0 0.7875,0.315 0.3325,0.315 0.3325,0.8575 0,0.5425 -0.3325,0.8575 -0.315,0.315 -0.7875,0.315 z m -3.395,2.4675 0,-1.2075 4.725,0 0,8.0325 q 0,0.84 -0.245,1.4175 -0.2275,0.595 -0.63,0.9625 -0.385,0.3675 -0.91,0.525 -0.5075,0.1575 -1.085,0.1575 -0.665,0 -1.3475,-0.14 -0.665,-0.14 -1.26,-0.4375 l 0.4375,-1.225 q 0.4375,0.21 0.9625,0.35 0.5425,0.1575 1.0325,0.1575 0.7,0 1.155,-0.3675 0.455,-0.35 0.455,-1.3825 l 0,-6.8425 -3.29,0 z"
         style="font-size:17.5px"
         id="path4195"
         inkscape:connector-curvature="0" />
      <path
         d="m 157.0844,136.47112 q 0.4725,0.35 1.0675,0.8925 0.595,0.525 1.1725,1.1375 0.595,0.6125 1.12,1.26 0.525,0.63 0.84,1.1725 l -1.715,0 q -0.3325,-0.5425 -0.8225,-1.1025 -0.49,-0.5775 -1.05,-1.1025 -0.5425,-0.525 -1.1025,-0.9625 -0.5425,-0.4375 -0.98,-0.735 l 0,3.9025 -1.4525,0 0,-11.8825 1.4525,-0.245 0,7.4025 q 0.9625,-0.84 1.925,-1.6625 0.9625,-0.84 1.7325,-1.7325 l 1.6975,0 q -0.7525,0.8925 -1.82,1.8375 -1.05,0.945 -2.065,1.82 z"
         style="font-size:17.5px"
         id="path4197"
         inkscape:connector-curvature="0" />
      <path
         d="m 167.5844,141.12612 q -0.77,0 -1.2775,-0.21 -0.5075,-0.21 -0.805,-0.63 -0.2975,-0.42 -0.42,-1.0325 -0.1225,-0.63 -0.1225,-1.4525 l 0,-7.6825 -2.345,0 0,-1.225 3.78,0 0,8.9075 q 0,0.6125 0.07,0.9975 0.0875,0.385 0.245,0.63 0.175,0.2275 0.42,0.315 0.245,0.0875 0.5775,0.0875 0.5075,0 0.945,-0.1225 0.4375,-0.1225 0.6825,-0.2625 l 0.21,1.225 q -0.105,0.0525 -0.2975,0.14 -0.1925,0.07 -0.455,0.14 -0.2625,0.07 -0.5775,0.1225 -0.2975,0.0525 -0.63,0.0525 z"
         style="font-size:17.5px"
         id="path4199"
         inkscape:connector-curvature="0" />
      <path
         d="m 171.1369,133.04112 q 1.05,-0.4025 1.9775,-0.4025 0.5075,0 0.945,0.1575 0.455,0.14 0.77,0.455 0.7525,-0.6125 1.61,-0.6125 0.42,0 0.7875,0.1575 0.385,0.1575 0.665,0.4725 0.2975,0.315 0.4725,0.7875 0.175,0.4725 0.175,1.1025 l 0,5.775 -1.3125,0 0,-5.81 q 0,-0.63 -0.28,-0.9625 -0.28,-0.3325 -0.7,-0.3325 -0.21,0 -0.4375,0.105 -0.2275,0.105 -0.42,0.3325 0.105,0.4025 0.105,0.8925 l 0,2.6425 -1.3125,0 0,-2.66 q 0,-0.6125 -0.1925,-0.9625 -0.1925,-0.35 -0.7525,-0.35 -0.35,0 -0.7875,0.1575 l 0,6.9475 -1.3125,0 0,-7.8925 z"
         style="font-size:17.5px"
         id="path4201"
         inkscape:connector-curvature="0" />
      <path
         d="m 180.4119,133.04112 q 0.7875,-0.1925 1.5575,-0.2975 0.7875,-0.105 1.47,-0.105 1.6275,0 2.45,0.84 0.84,0.84 0.84,2.695 l 0,4.76 -1.435,0 0,-4.4975 q 0,-0.7875 -0.14,-1.2775 -0.14,-0.49 -0.4025,-0.7525 -0.245,-0.28 -0.6125,-0.385 -0.35,-0.105 -0.77,-0.105 -0.35,0 -0.7525,0.0525 -0.385,0.035 -0.7525,0.105 l 0,6.86 -1.4525,0 0,-7.8925 z"
         style="font-size:17.5px"
         id="path4203"
         inkscape:connector-curvature="0" />
      <path
         d="m 195.9694,136.87362 q 0,0.9625 -0.28,1.75 -0.2625,0.77 -0.7525,1.33 -0.49,0.56 -1.1725,0.875 -0.6825,0.2975 -1.4875,0.2975 -0.7875,0 -1.47,-0.2975 -0.665,-0.315 -1.155,-0.875 -0.49,-0.56 -0.77,-1.33 -0.2625,-0.7875 -0.2625,-1.75 0,-0.9625 0.2625,-1.75 0.28,-0.7875 0.77,-1.33 0.49,-0.56 1.155,-0.8575 0.6825,-0.315 1.47,-0.315 0.805,0 1.4875,0.315 0.6825,0.2975 1.1725,0.8575 0.49,0.5425 0.7525,1.33 0.28,0.7875 0.28,1.75 z m -1.4875,0 q 0,-1.3825 -0.595,-2.17 -0.595,-0.805 -1.61,-0.805 -0.9975,0 -1.5925,0.805 -0.5775,0.7875 -0.5775,2.17 0,1.365 0.5775,2.17 0.595,0.7875 1.5925,0.7875 1.015,0 1.61,-0.7875 0.595,-0.805 0.595,-2.17 z"
         style="font-size:17.5px"
         id="path4205"
         inkscape:connector-curvature="0" />
      <path
         d="m 203.2319,136.89112 q 0,-1.4175 -0.665,-2.1875 -0.665,-0.7875 -1.7325,-0.7875 -0.595,0 -0.945,0.0525 -0.3325,0.0525 -0.525,0.1225 l 0,5.1275 q 0.245,0.2275 0.7175,0.42 0.4725,0.1925 0.98,0.1925 0.5775,0 0.98,-0.2275 0.42,-0.2275 0.6825,-0.6125 0.2625,-0.4025 0.385,-0.9275 0.1225,-0.5425 0.1225,-1.1725 z m 1.4875,0 q 0,0.9275 -0.245,1.715 -0.2275,0.77 -0.6825,1.33 -0.4375,0.56 -1.085,0.875 -0.6475,0.315 -1.47,0.315 -0.6475,0 -1.1375,-0.1575 -0.49,-0.1575 -0.735,-0.35 l 0,3.2025 -1.4525,0 0,-10.7625 q 0.4725,-0.14 1.2075,-0.28 0.7525,-0.14 1.715,-0.14 0.875,0 1.5925,0.2975 0.7175,0.2975 1.225,0.8575 0.5075,0.5425 0.7875,1.33 0.28,0.7875 0.28,1.7675 z"
         style="font-size:17.5px"
         id="path4207"
         inkscape:connector-curvature="0" />
      <path
         d="m 207.6069,136.89112 q 0,0.63 0.1225,1.1725 0.14,0.525 0.4025,0.9275 0.2625,0.385 0.665,0.6125 0.42,0.2275 0.9975,0.2275 0.5075,0 0.98,-0.1925 0.4725,-0.1925 0.7175,-0.42 l 0,-5.1275 q -0.1925,-0.07 -0.5425,-0.1225 -0.3325,-0.0525 -0.9275,-0.0525 -1.0675,0 -1.75,0.7875 -0.665,0.77 -0.665,2.1875 z m -1.4875,0 q 0,-0.98 0.28,-1.7675 0.28,-0.7875 0.7875,-1.33 0.5075,-0.56 1.225,-0.8575 0.735,-0.2975 1.61,-0.2975 0.945,0 1.6625,0.1575 0.735,0.14 1.2425,0.28 l 0,10.745 -1.4525,0 0,-3.2025 q -0.2625,0.175 -0.7525,0.3325 -0.49,0.175 -1.1025,0.175 -0.8225,0 -1.47,-0.315 -0.6475,-0.315 -1.1025,-0.875 -0.4375,-0.56 -0.6825,-1.33 -0.245,-0.7875 -0.245,-1.715 z"
         style="font-size:17.5px"
         id="path4209"
         inkscape:connector-curvature="0" />
      <path
         d="m 216.0419,140.93362 0,-7.6825 q 1.785,-0.6125 3.605,-0.6125 0.56,0 1.0675,0.0525 0.5075,0.035 1.12,0.175 l -0.2625,1.2775 q -0.56,-0.1575 -0.9975,-0.1925 -0.42,-0.0525 -0.9275,-0.0525 -1.0675,0 -2.17,0.2975 l 0,6.7375 -1.435,0 z"
         style="font-size:17.5px"
         id="path4211"
         inkscape:connector-curvature="0" />
      <path
         d="m 229.0619,138.90362 q 0,-0.4375 -0.3675,-0.7175 -0.35,-0.28 -0.8925,-0.49 -0.525,-0.21 -1.155,-0.4025 -0.63,-0.21 -1.1725,-0.5075 -0.525,-0.2975 -0.8925,-0.735 -0.35,-0.4375 -0.35,-1.1375 0,-0.98 0.7875,-1.6275 0.805,-0.665 2.5025,-0.665 0.665,0 1.365,0.105 0.7175,0.0875 1.225,0.245 l -0.2625,1.295 q -0.14,-0.07 -0.385,-0.14 -0.245,-0.0875 -0.56,-0.14 -0.315,-0.07 -0.6825,-0.105 -0.35,-0.035 -0.6825,-0.035 -1.89,0 -1.89,1.0325 0,0.3675 0.35,0.63 0.3675,0.245 0.91,0.455 0.5425,0.21 1.1725,0.4375 0.63,0.21 1.1725,0.525 0.5425,0.315 0.8925,0.77 0.3675,0.4375 0.3675,1.12 0,1.1025 -0.8575,1.715 -0.8575,0.595 -2.7125,0.595 -0.84,0 -1.54,-0.14 -0.7,-0.14 -1.33,-0.42 l 0.28,-1.3125 q 0.6125,0.28 1.2775,0.4725 0.6825,0.175 1.4525,0.175 1.9775,0 1.9775,-0.9975 z"
         style="font-size:17.5px"
         id="path4213"
         inkscape:connector-curvature="0" />
      <path
         d="m 235.9219,132.81362 3.43,0 0,1.2075 -3.43,0 0,3.78 q 0,0.6125 0.0875,0.9975 0.0875,0.385 0.28,0.63 0.21,0.2275 0.525,0.315 0.315,0.0875 0.77,0.0875 0.63,0 1.015,-0.105 0.385,-0.105 0.735,-0.28 l 0.21,1.225 q -0.245,0.105 -0.7875,0.28 -0.525,0.175 -1.3125,0.175 -0.91,0 -1.4875,-0.21 -0.5775,-0.21 -0.91,-0.63 -0.315,-0.42 -0.4375,-1.0325 -0.1225,-0.63 -0.1225,-1.4525 l 0,-3.78 -1.715,0 0,-1.2075 1.715,0 0,-2.275 1.435,-0.245 0,2.52 z"
         style="font-size:17.5px"
         id="path4215"
         inkscape:connector-curvature="0" />
      <path
         d="m 247.9269,140.70612 q -0.4725,0.1225 -1.26,0.2625 -0.77,0.14 -1.82,0.14 -0.9275,0 -1.54,-0.2625 -0.6125,-0.28 -0.9975,-0.77 -0.385,-0.5075 -0.5425,-1.19 -0.1575,-0.6825 -0.1575,-1.505 l 0,-4.5675 1.435,0 0,4.2525 q 0,1.505 0.4375,2.135 0.455,0.63 1.505,0.63 0.2275,0 0.455,-0.0175 0.245,-0.0175 0.455,-0.035 0.21,-0.035 0.3675,-0.0525 0.1575,-0.035 0.21,-0.0525 l 0,-6.86 1.4525,0 0,7.8925 z"
         style="font-size:17.5px"
         id="path4217"
         inkscape:connector-curvature="0" />
      <path
         d="m 257.3944,132.81362 q -0.315,1.1375 -0.7175,2.24 -0.4025,1.085 -0.8225,2.135 -0.42,1.0325 -0.8575,1.9775 -0.4375,0.945 -0.84,1.7675 l -1.3125,0 q -0.8225,-1.645 -1.6625,-3.745 -0.84,-2.1 -1.4875,-4.375 l 1.575,0 q 0.21,0.77 0.4725,1.6275 0.28,0.8575 0.5775,1.715 0.2975,0.8575 0.595,1.6625 0.315,0.7875 0.6125,1.4175 0.2975,-0.63 0.6125,-1.4175 0.3325,-0.805 0.6475,-1.6625 0.315,-0.8575 0.595,-1.715 0.2975,-0.8575 0.5075,-1.6275 l 1.505,0 z"
         style="font-size:17.5px"
         id="path4219"
         inkscape:connector-curvature="0" />
      <path
         d="m 263.9219,140.93362 q -0.2625,-0.595 -0.455,-1.085 -0.1925,-0.49 -0.385,-0.98 -0.175,-0.49 -0.3675,-1.015 -0.175,-0.5425 -0.42,-1.225 -0.245,0.6825 -0.4375,1.225 -0.1925,0.525 -0.385,1.015 -0.175,0.49 -0.385,0.98 -0.1925,0.49 -0.455,1.085 l -1.085,0 q -0.49,-2.1525 -0.8225,-4.2525 -0.315,-2.1175 -0.4725,-3.8675 l 1.365,0 q 0.0525,0.6825 0.105,1.3475 0.07,0.6475 0.1575,1.365 0.0875,0.7175 0.1925,1.5575 0.1225,0.84 0.2625,1.89 0.28,-0.7 0.4725,-1.225 0.1925,-0.525 0.35,-0.9975 0.1575,-0.4725 0.2975,-0.9625 0.1575,-0.49 0.3325,-1.1025 l 1.085,0 q 0.175,0.6125 0.315,1.1025 0.14,0.49 0.2975,0.9625 0.1575,0.4725 0.3325,0.9975 0.175,0.525 0.4375,1.2075 0.1575,-0.9625 0.28,-1.785 0.1225,-0.8225 0.21,-1.54 0.0875,-0.735 0.1575,-1.4175 0.07,-0.6825 0.1225,-1.4 l 1.3125,0 q -0.0875,0.875 -0.21,1.8725 -0.1225,0.9975 -0.2975,2.0475 -0.175,1.05 -0.385,2.135 -0.21,1.0675 -0.4375,2.065 l -1.085,0 z"
         style="font-size:17.5px"
         id="path4221"
         inkscape:connector-curvature="0" />
      <path
         d="m 273.3194,140.93362 q -0.175,-0.35 -0.4375,-0.77 -0.245,-0.42 -0.5425,-0.8575 -0.2975,-0.455 -0.63,-0.8925 -0.315,-0.4375 -0.63,-0.8225 -0.315,0.4025 -0.665,0.84 -0.35,0.4375 -0.6825,0.8925 -0.315,0.4375 -0.595,0.8575 -0.28,0.42 -0.4725,0.7525 l -1.4875,0 q 0.5775,-1.05 1.4,-2.1525 0.84,-1.12 1.645,-2.1175 l -2.9225,-3.85 1.6275,0 2.1875,2.835 2.0125,-2.835 1.54,0 -2.6775,3.7625 q 0.7875,1.0325 1.575,2.1525 0.805,1.12 1.365,2.205 l -1.61,0 z"
         style="font-size:17.5px"
         id="path4223"
         inkscape:connector-curvature="0" />
      <path
         d="m 276.3119,142.45612 q 0.1575,0.0875 0.4375,0.14 0.2975,0.0525 0.5425,0.0525 0.8575,0 1.33,-0.385 0.49,-0.3675 0.8925,-1.225 -0.98,-1.855 -1.8375,-3.9725 -0.8575,-2.135 -1.4175,-4.2525 l 1.575,0 q 0.175,0.7 0.4025,1.5225 0.245,0.805 0.5425,1.6625 0.2975,0.8575 0.63,1.7325 0.35,0.8575 0.735,1.645 0.28,-0.805 0.525,-1.5925 0.245,-0.7875 0.455,-1.575 0.21,-0.805 0.42,-1.6275 0.21,-0.84 0.4375,-1.7675 l 1.505,0 q -0.56,2.275 -1.26,4.41 -0.6825,2.135 -1.47,3.955 -0.2975,0.7 -0.6475,1.2075 -0.3325,0.5075 -0.735,0.84 -0.4025,0.3325 -0.91,0.49 -0.5075,0.1575 -1.155,0.1575 -0.3325,0 -0.735,-0.0875 -0.385,-0.0875 -0.525,-0.1575 l 0.2625,-1.1725 z"
         style="font-size:17.5px"
         id="path4225"
         inkscape:connector-curvature="0" />
      <path
         d="m 291.5194,133.89862 q -0.315,0.3675 -0.8575,1.0325 -0.5425,0.6475 -1.1725,1.4525 -0.6125,0.7875 -1.225,1.6625 -0.6125,0.875 -1.085,1.6625 l 4.4625,0 0,1.225 -6.195,0 0,-0.9625 q 0.3675,-0.7 0.91,-1.5225 0.56,-0.84 1.155,-1.645 0.595,-0.8225 1.155,-1.5575 0.5775,-0.735 0.9975,-1.225 l -3.99,0 0,-1.2075 5.845,0 0,1.085 z"
         style="font-size:17.5px"
         id="path4227"
         inkscape:connector-curvature="0" />
      <path
         d="m 72.489403,162.80862 -0.6475,-2.835 -4.165,0 -0.63,2.835 -1.47,0 q 0.2975,-1.155 0.665,-2.5025 0.3675,-1.3475 0.7875,-2.765 0.4375,-1.4175 0.91,-2.835 0.4725,-1.435 0.9975,-2.73 l 1.785,0 q 0.5075,1.295 0.9625,2.73 0.4725,1.4175 0.875,2.835 0.42,1.4175 0.7875,2.765 0.3675,1.3475 0.665,2.5025 l -1.5225,0 z m -2.7125,-9.5725 q -0.4025,1.1025 -0.875,2.555 -0.4725,1.4525 -0.8925,2.9925 l 3.5,0 q -0.4025,-1.575 -0.875,-3.0275 -0.455,-1.47 -0.8575,-2.52 z"
         style="font-size:17.5px"
         id="path4229"
         inkscape:connector-curvature="0" />
      <path
         d="m 77.739403,162.89612 q -0.2625,0 -0.6125,-0.0175 -0.35,-0.0175 -0.7,-0.0525 -0.35,-0.0175 -0.7,-0.07 -0.35,-0.0525 -0.6125,-0.1225 l 0,-10.5 q 0.2625,-0.07 0.595,-0.1225 0.35,-0.0525 0.7,-0.07 0.3675,-0.035 0.7,-0.0525 0.35,-0.0175 0.63,-0.0175 0.805,0 1.505,0.14 0.7,0.14 1.2075,0.4725 0.525,0.3325 0.805,0.875 0.2975,0.5425 0.2975,1.3475 0,0.385 -0.1225,0.7525 -0.1225,0.35 -0.35,0.665 -0.21,0.315 -0.5075,0.56 -0.28,0.2275 -0.6125,0.35 0.8925,0.245 1.4875,0.91 0.6125,0.6475 0.6125,1.6975 0,1.61 -1.0325,2.4325 -1.0325,0.8225 -3.29,0.8225 z m -1.19,-5.145 0,3.8675 q 0.035,0.0175 0.385,0.0525 0.3675,0.0175 0.91,0.0175 0.5425,0 1.0325,-0.0875 0.5075,-0.0875 0.8925,-0.315 0.385,-0.245 0.6125,-0.63 0.245,-0.385 0.245,-0.9975 0,-0.5425 -0.2275,-0.91 -0.21,-0.3675 -0.5775,-0.5775 -0.35,-0.2275 -0.8225,-0.315 -0.4725,-0.105 -0.98,-0.105 l -1.47,0 z m 0,-1.19 1.1375,0 q 0.4375,0 0.875,-0.0875 0.4375,-0.0875 0.7875,-0.28 0.35,-0.1925 0.56,-0.525 0.21,-0.3325 0.21,-0.84 0,-0.4725 -0.1925,-0.805 -0.1925,-0.3325 -0.5075,-0.5425 -0.315,-0.21 -0.735,-0.2975 -0.4025,-0.0875 -0.8575,-0.0875 -0.455,0 -0.805,0.0175 -0.3325,0 -0.4725,0.035 l 0,3.4125 z"
         style="font-size:17.5px"
         id="path4231"
         inkscape:connector-curvature="0" />
      <path
         d="m 90.969403,162.35362 q -0.6125,0.35 -1.3125,0.5075 -0.6825,0.175 -1.47,0.175 -0.9625,0 -1.785,-0.3325 -0.805,-0.35 -1.4,-1.0325 -0.595,-0.7 -0.945,-1.7675 -0.3325,-1.0675 -0.3325,-2.52 0,-1.3825 0.35,-2.4325 0.3675,-1.05 0.98,-1.7675 0.6125,-0.7175 1.435,-1.085 0.8225,-0.3675 1.75,-0.3675 0.6475,0 1.3125,0.175 0.6825,0.175 1.33,0.5775 l -0.42,1.19 q -1.155,-0.665 -2.17,-0.665 -0.7175,0 -1.295,0.315 -0.56,0.2975 -0.9625,0.875 -0.4025,0.5775 -0.63,1.3825 -0.21,0.805 -0.21,1.8025 0,1.12 0.2275,1.9425 0.245,0.8225 0.665,1.365 0.42,0.5425 0.9975,0.805 0.595,0.2625 1.2775,0.2625 0.5075,0 1.0675,-0.1225 0.56,-0.14 1.155,-0.4725 l 0.385,1.19 z"
         style="font-size:17.5px"
         id="path4233"
         inkscape:connector-curvature="0" />
      <path
         d="m 99.719403,157.38362 q 0,1.505 -0.385,2.555 -0.3675,1.05 -1.0325,1.715 -0.6475,0.6475 -1.5575,0.945 -0.8925,0.2975 -1.9425,0.2975 -1.085,0 -2.1875,-0.2625 l 0,-10.5 q 1.1025,-0.2625 2.1875,-0.2625 1.05,0 1.9425,0.2975 0.91,0.2975 1.5575,0.9625 0.665,0.665 1.0325,1.715 0.385,1.05 0.385,2.5375 z m -5.67,4.2175 q 0.4375,0.0525 0.8925,0.0525 0.7875,0 1.4,-0.2275 0.6125,-0.245 1.0325,-0.7525 0.42,-0.525 0.6475,-1.33 0.2275,-0.8225 0.2275,-1.96 0,-2.205 -0.8575,-3.2375 -0.84,-1.0325 -2.5025,-1.0325 -0.2275,0 -0.455,0.0175 -0.21,0 -0.385,0.035 l 0,8.435 z"
         style="font-size:17.5px"
         id="path4235"
         inkscape:connector-curvature="0" />
      <path
         d="m 102.0119,162.80862 0,-10.8325 6.0725,0 0,1.225 -4.6375,0 0,3.325 4.06,0 0,1.225 -4.06,0 0,3.8325 5.0225,0 0,1.225 -6.4575,0 z"
         style="font-size:17.5px"
         id="path4237"
         inkscape:connector-curvature="0" />
      <path
         d="m 110.7619,162.80862 0,-10.8325 6.1425,0 0,1.225 -4.7075,0 0,3.3775 4.1475,0 0,1.2075 -4.1475,0 0,5.0225 -1.435,0 z"
         style="font-size:17.5px"
         id="path4239"
         inkscape:connector-curvature="0" />
      <path
         d="m 124.4469,157.47112 1.435,0 0,5.075 q -0.3325,0.1225 -1.0675,0.2975 -0.735,0.1925 -1.7325,0.1925 -0.98,0 -1.785,-0.3675 -0.805,-0.385 -1.3825,-1.1025 -0.56,-0.7175 -0.875,-1.7675 -0.315,-1.0675 -0.315,-2.415 0,-1.365 0.35,-2.415 0.35,-1.05 0.945,-1.7675 0.6125,-0.7175 1.4175,-1.085 0.805,-0.385 1.7325,-0.385 0.595,0 1.05,0.0875 0.455,0.0875 0.77,0.21 0.3325,0.1225 0.5425,0.2625 0.21,0.1225 0.315,0.1925 l -0.4725,1.2075 q -0.4025,-0.315 -0.9625,-0.5075 -0.5425,-0.21 -1.155,-0.21 -0.665,0 -1.2425,0.315 -0.56,0.315 -0.9625,0.8925 -0.4025,0.5775 -0.63,1.4 -0.2275,0.805 -0.2275,1.8025 0,0.98 0.1925,1.785 0.21,0.805 0.595,1.3825 0.385,0.5775 0.945,0.91 0.5775,0.315 1.3125,0.315 0.5075,0 0.7875,-0.07 0.28,-0.07 0.42,-0.14 l 0,-4.095 z"
         style="font-size:17.5px"
         id="path4241"
         inkscape:connector-curvature="0" />
      <path
         d="m 133.1969,151.97612 1.435,0 0,10.8325 -1.435,0 0,-5.04 -4.305,0 0,5.04 -1.435,0 0,-10.8325 1.435,0 0,4.5675 4.305,0 0,-4.5675 z"
         style="font-size:17.5px"
         id="path4243"
         inkscape:connector-curvature="0" />
      <path
         d="m 140.5119,153.20112 0,8.3825 2.1,0 0,1.225 -5.635,0 0,-1.225 2.1,0 0,-8.3825 -2.1,0 0,-1.225 5.635,0 0,1.225 -2.1,0 z"
         style="font-size:17.5px"
         id="path4245"
         inkscape:connector-curvature="0" />
      <path
         d="m 146.3919,153.20112 0,-1.225 5.1275,0 0,7.35 q 0,0.77 -0.175,1.4525 -0.1575,0.6825 -0.5775,1.19 -0.4025,0.49 -1.1025,0.7875 -0.6825,0.28 -1.7325,0.28 -1.05,0 -1.7675,-0.2975 -0.7175,-0.2975 -1.05,-0.5775 l 0.5775,-1.1725 q 0.3325,0.245 0.875,0.525 0.56,0.28 1.295,0.28 1.12,0 1.6625,-0.595 0.56,-0.595 0.56,-2.0125 l 0,-5.985 -3.6925,0 z"
         style="font-size:17.5px"
         id="path4247"
         inkscape:connector-curvature="0" />
      <path
         d="m 161.1444,151.97612 q -0.8575,1.2775 -1.89,2.5375 -1.015,1.26 -2.205,2.52 0.56,0.4725 1.19,1.1025 0.63,0.63 1.225,1.3825 0.6125,0.735 1.1375,1.575 0.5425,0.84 0.91,1.715 l -1.6275,0 q -0.4375,-0.805 -0.945,-1.575 -0.5075,-0.77 -1.085,-1.435 -0.56,-0.665 -1.1725,-1.2075 -0.595,-0.56 -1.2075,-0.9625 l 0,5.18 -1.435,0 0,-10.8325 1.435,0 0,4.83 q 1.1375,-1.1725 2.17,-2.45 1.05,-1.2775 1.8375,-2.38 l 1.6625,0 z"
         style="font-size:17.5px"
         id="path4249"
         inkscape:connector-curvature="0" />
      <path
         d="m 169.7194,161.58362 0,1.225 -6.4575,0 0,-10.8325 1.435,0 0,9.6075 5.0225,0 z"
         style="font-size:17.5px"
         id="path4251"
         inkscape:connector-curvature="0" />
      <path
         d="m 174.8119,157.36612 1.68,-5.39 1.3475,0 q 0.35,2.555 0.49,5.2325 0.1575,2.6775 0.28,5.6 l -1.4,0 q -0.0175,-0.945 -0.035,-2.0475 -0.0175,-1.1025 -0.0525,-2.275 -0.0175,-1.1725 -0.0525,-2.38 -0.0175,-1.2075 -0.0525,-2.345 l -1.575,4.935 -1.26,0 -1.61,-4.935 q -0.0175,1.1375 -0.0525,2.345 -0.0175,1.19 -0.0525,2.38 -0.0175,1.1725 -0.0525,2.275 -0.0175,1.1025 -0.035,2.0475 l -1.4,0 q 0.0525,-1.33 0.1225,-2.73 0.07,-1.4 0.1575,-2.7825 0.105,-1.3825 0.2275,-2.73 0.14,-1.3475 0.2975,-2.59 l 1.33,0 1.6975,5.39 z"
         style="font-size:17.5px"
         id="path4253"
         inkscape:connector-curvature="0" />
      <path
         d="m 185.4869,162.80862 q -0.595,-1.4525 -1.12,-2.625 -0.525,-1.19 -1.015,-2.2225 -0.4725,-1.0325 -0.945,-1.9425 -0.4725,-0.9275 -0.9625,-1.855 l 0,8.645 -1.3125,0 0,-10.8325 1.47,0 q 0.7175,1.3125 1.2425,2.2925 0.5425,0.98 0.98,1.9075 0.455,0.91 0.875,1.89 0.42,0.9625 0.945,2.24 l 0,-8.33 1.3125,0 0,10.8325 -1.47,0 z"
         style="font-size:17.5px"
         id="path4255"
         inkscape:connector-curvature="0" />
      <path
         d="m 188.4269,157.38362 q 0,-1.4525 0.28,-2.52 0.28,-1.0675 0.7875,-1.75 0.5075,-0.7 1.2075,-1.0325 0.7175,-0.35 1.5925,-0.35 0.8575,0 1.575,0.35 0.7175,0.3325 1.225,1.0325 0.5075,0.6825 0.7875,1.75 0.2975,1.0675 0.2975,2.52 0,1.4525 -0.2975,2.52 -0.28,1.0675 -0.7875,1.7675 -0.5075,0.7 -1.225,1.0325 -0.7175,0.3325 -1.575,0.3325 -0.875,0 -1.5925,-0.3325 -0.7,-0.3325 -1.2075,-1.0325 -0.5075,-0.7 -0.7875,-1.7675 -0.28,-1.0675 -0.28,-2.52 z m 1.47,0 q 0,2.135 0.5775,3.2725 0.5775,1.1375 1.785,1.1375 1.225,0 1.8375,-1.1375 0.6125,-1.1375 0.6125,-3.2725 0,-2.135 -0.6125,-3.2725 -0.6125,-1.1375 -1.8375,-1.1375 -1.2075,0 -1.785,1.1375 -0.5775,1.1375 -0.5775,3.2725 z"
         style="font-size:17.5px"
         id="path4257"
         inkscape:connector-curvature="0" />
      <path
         d="m 200.7819,151.87112 q 0.9625,0 1.68,0.245 0.735,0.245 1.2075,0.7 0.49,0.4375 0.7175,1.05 0.245,0.6125 0.245,1.365 0,1.6975 -0.9975,2.625 -0.9975,0.91 -2.9925,0.91 l -1.26,0 0,4.0425 -1.435,0 0,-10.675 q 0.315,-0.07 0.6825,-0.1225 0.385,-0.0525 0.7525,-0.0875 0.385,-0.035 0.735,-0.035 0.3675,-0.0175 0.665,-0.0175 z m 0.105,1.2425 q -0.455,0 -0.875,0.0175 -0.42,0 -0.63,0.035 l 0,4.375 1.19,0 q 1.3125,0 1.9425,-0.525 0.6475,-0.525 0.6475,-1.7325 0,-2.17 -2.275,-2.17 z"
         style="font-size:17.5px"
         id="path4259"
         inkscape:connector-curvature="0" />
      <path
         d="m 205.9269,157.40112 q 0,-1.4525 0.28,-2.52 0.28,-1.0675 0.7875,-1.75 0.5075,-0.7 1.2075,-1.0325 0.7175,-0.35 1.5925,-0.35 0.8575,0 1.575,0.35 0.7175,0.3325 1.225,1.0325 0.5075,0.6825 0.7875,1.75 0.2975,1.0675 0.2975,2.52 0,1.295 -0.2275,2.2925 -0.2275,0.98 -0.6475,1.68 -0.42,0.7 -1.015,1.1025 -0.595,0.4025 -1.3125,0.525 0.0525,0.35 0.2975,0.595 0.245,0.2625 0.6125,0.4375 0.385,0.1925 0.8575,0.315 0.49,0.1225 1.015,0.1925 l -0.3325,1.155 q -0.7175,-0.1225 -1.3825,-0.315 -0.6475,-0.1925 -1.1725,-0.5075 -0.525,-0.315 -0.8925,-0.77 -0.3675,-0.455 -0.49,-1.12 -1.4175,-0.2975 -2.24,-1.645 -0.8225,-1.365 -0.8225,-3.9375 z m 1.47,0 q 0,2.135 0.5775,3.2725 0.5775,1.1375 1.785,1.1375 1.225,0 1.8375,-1.1375 0.6125,-1.1375 0.6125,-3.2725 0,-2.135 -0.6125,-3.2725 -0.6125,-1.1375 -1.8375,-1.1375 -1.2075,0 -1.785,1.1375 -0.5775,1.1375 -0.5775,3.2725 z"
         style="font-size:17.5px"
         id="path4261"
         inkscape:connector-curvature="0" />
      <path
         d="m 221.7119,155.28362 q 0,0.9975 -0.525,1.7675 -0.525,0.7525 -1.4175,1.1725 0.2625,0.42 0.5775,0.9625 0.3325,0.525 0.665,1.1375 0.3325,0.595 0.6475,1.2425 0.3325,0.63 0.6125,1.2425 l -1.54,0 q -0.525,-1.26 -1.155,-2.415 -0.6125,-1.155 -1.19,-1.8725 -0.105,0.0175 -0.315,0.0175 -0.1925,0 -0.2625,0 l -1.225,0 0,4.27 -1.4525,0 0,-10.675 q 0.2625,-0.07 0.595,-0.1225 0.35,-0.0525 0.7,-0.07 0.3675,-0.035 0.7175,-0.0525 0.35,-0.0175 0.63,-0.0175 1.96,0 2.94,0.8575 0.9975,0.8575 0.9975,2.555 z m -3.815,-2.17 q -0.4025,0 -0.7875,0.0175 -0.3675,0 -0.525,0.035 l 0,4.1825 0.9275,0 q 0.63,0 1.12,-0.0875 0.5075,-0.0875 0.8575,-0.315 0.3675,-0.245 0.56,-0.6475 0.1925,-0.42 0.1925,-1.085 0,-0.63 -0.1925,-1.0325 -0.1925,-0.4025 -0.5075,-0.63 -0.315,-0.245 -0.7525,-0.3325 -0.42,-0.105 -0.8925,-0.105 z"
         style="font-size:17.5px"
         id="path4263"
         inkscape:connector-curvature="0" />
      <path
         d="m 227.0144,161.79362 q 1.1025,0 1.68,-0.42 0.5775,-0.42 0.5775,-1.26 0,-0.5075 -0.21,-0.8575 -0.21,-0.3675 -0.56,-0.63 -0.35,-0.28 -0.7875,-0.4725 -0.4375,-0.21 -0.8925,-0.385 -0.525,-0.21 -1.015,-0.4725 -0.4725,-0.2625 -0.8575,-0.6125 -0.3675,-0.35 -0.595,-0.8225 -0.21,-0.4725 -0.21,-1.12 0,-1.4175 0.8925,-2.205 0.8925,-0.805 2.485,-0.805 0.4375,0 0.8575,0.07 0.4375,0.0525 0.805,0.14 0.3675,0.0875 0.6475,0.21 0.2975,0.1225 0.4725,0.245 l -0.455,1.2075 q -0.35,-0.21 -0.9625,-0.42 -0.6125,-0.21 -1.365,-0.21 -0.7875,0 -1.365,0.4025 -0.5775,0.385 -0.5775,1.1725 0,0.455 0.1575,0.77 0.175,0.315 0.455,0.56 0.2975,0.2275 0.6825,0.42 0.385,0.1925 0.84,0.385 0.665,0.28 1.2075,0.56 0.56,0.28 0.945,0.665 0.4025,0.385 0.6125,0.91 0.2275,0.525 0.2275,1.2775 0,1.4175 -0.9625,2.1875 -0.945,0.7525 -2.73,0.7525 -0.5775,0 -1.085,-0.0875 -0.5075,-0.07 -0.91,-0.1925 -0.385,-0.1225 -0.6825,-0.245 -0.2975,-0.1225 -0.455,-0.2275 l 0.4375,-1.19 q 0.35,0.1925 1.0325,0.455 0.6825,0.245 1.6625,0.245 z"
         style="font-size:17.5px"
         id="path4265"
         inkscape:connector-curvature="0" />
      <path
         d="m 239.7369,151.97612 0,1.225 -2.975,0 0,9.6075 -1.435,0 0,-9.6075 -2.975,0 0,-1.225 7.385,0 z"
         style="font-size:17.5px"
         id="path4267"
         inkscape:connector-curvature="0" />
      <path
         d="m 244.7944,163.03612 q -0.9625,0 -1.645,-0.28 -0.665,-0.28 -1.085,-0.7875 -0.42,-0.5075 -0.6125,-1.2425 -0.1925,-0.735 -0.1925,-1.645 l 0,-7.105 1.435,0 0,6.9475 q 0,0.8225 0.14,1.3825 0.1575,0.5425 0.42,0.875 0.28,0.3325 0.665,0.4725 0.385,0.14 0.875,0.14 0.49,0 0.875,-0.14 0.385,-0.14 0.6475,-0.4725 0.28,-0.3325 0.42,-0.875 0.1575,-0.56 0.1575,-1.3825 l 0,-6.9475 1.435,0 0,7.105 q 0,0.91 -0.1925,1.645 -0.1925,0.735 -0.6125,1.2425 -0.42,0.5075 -1.1025,0.7875 -0.665,0.28 -1.6275,0.28 z"
         style="font-size:17.5px"
         id="path4269"
         inkscape:connector-curvature="0" />
      <path
         d="m 250.9544,151.97612 q 0.21,1.1025 0.525,2.415 0.3325,1.295 0.6825,2.6075 0.3675,1.295 0.735,2.485 0.3675,1.19 0.6825,2.0825 0.28,-0.8925 0.6475,-2.1 0.385,-1.2075 0.7525,-2.5025 0.3675,-1.3125 0.6825,-2.6075 0.3325,-1.295 0.5425,-2.38 l 1.505,0 q -0.14,0.7 -0.455,1.89 -0.315,1.1725 -0.7525,2.6425 -0.4375,1.4525 -0.98,3.0975 -0.525,1.6275 -1.1025,3.2025 l -1.785,0 q -0.5425,-1.575 -1.0675,-3.2025 -0.5075,-1.6275 -0.945,-3.08 -0.4375,-1.47 -0.7525,-2.66 -0.315,-1.19 -0.4725,-1.89 l 1.5575,0 z"
         style="font-size:17.5px"
         id="path4271"
         inkscape:connector-curvature="0" />
      <path
         d="m 260.5969,162.80862 -1.3475,0 q -0.1575,-1.0675 -0.28,-2.345 -0.105,-1.295 -0.21,-2.695 -0.0875,-1.4 -0.1575,-2.87 -0.07,-1.47 -0.1225,-2.9225 l 1.4,0 0.1925,9.0475 1.575,-4.935 1.26,0 1.61,4.935 0.1925,-9.0475 1.4,0 q -0.0525,1.47 -0.14,2.94 -0.07,1.47 -0.175,2.87 -0.105,1.3825 -0.2275,2.66 -0.1225,1.2775 -0.2625,2.3625 l -1.33,0 -1.6975,-5.39 -1.68,5.39 z"
         style="font-size:17.5px"
         id="path4273"
         inkscape:connector-curvature="0" />
      <path
         d="m 273.3894,162.80862 q -0.1925,-0.4725 -0.455,-1.0675 -0.2625,-0.595 -0.56,-1.225 -0.2975,-0.63 -0.6475,-1.26 -0.3325,-0.63 -0.7,-1.1725 -0.6125,0.98 -1.225,2.2575 -0.6125,1.26 -1.1375,2.4675 l -1.5575,0 q 0.5775,-1.295 1.3475,-2.8 0.77,-1.5225 1.645,-2.9225 l -2.8175,-5.11 1.5925,0 2.1175,4.1475 2.275,-4.1475 1.5575,0 -2.87,5.0575 q 0.84,1.365 1.6275,2.835 0.7875,1.47 1.4,2.94 l -1.5925,0 z"
         style="font-size:17.5px"
         id="path4275"
         inkscape:connector-curvature="0" />
      <path
         d="m 279.0944,162.80862 0,-4.025 q -1.0675,-1.75 -1.9425,-3.4125 -0.8575,-1.6625 -1.505,-3.395 l 1.61,0 q 0.5075,1.47 1.155,2.8175 0.665,1.33 1.4175,2.7475 0.805,-1.4875 1.4175,-2.8175 0.63,-1.3475 1.1375,-2.7475 l 1.575,0 q -0.665,1.715 -1.5225,3.3425 -0.8575,1.6275 -1.9075,3.43 l 0,4.06 -1.435,0 z"
         style="font-size:17.5px"
         id="path4277"
         inkscape:connector-curvature="0" />
      <path
         d="m 291.9919,153.09612 q -0.56,0.77 -1.26,1.8375 -0.6825,1.05 -1.4,2.205 -0.7175,1.155 -1.4,2.3275 -0.665,1.155 -1.1725,2.1175 l 5.3725,0 0,1.225 -7.0175,0 0,-0.945 q 0.5425,-1.1025 1.19,-2.2575 0.665,-1.1725 1.3475,-2.2925 0.6825,-1.12 1.365,-2.17 0.6825,-1.05 1.3125,-1.9425 l -4.9525,0 0,-1.225 6.615,0 0,1.12 z"
         style="font-size:17.5px"
         id="path4279"
         inkscape:connector-curvature="0" />
      <path
         d="m 73.469403,180.62362 q 0,0.9625 -0.28,1.75 -0.2625,0.77 -0.7525,1.33 -0.49,0.56 -1.1725,0.875 -0.6825,0.2975 -1.4875,0.2975 -0.7875,0 -1.47,-0.2975 -0.665,-0.315 -1.155,-0.875 -0.49,-0.56 -0.77,-1.33 -0.2625,-0.7875 -0.2625,-1.75 0,-0.9625 0.2625,-1.75 0.28,-0.7875 0.77,-1.33 0.49,-0.56 1.155,-0.8575 0.6825,-0.315 1.47,-0.315 0.805,0 1.4875,0.315 0.6825,0.2975 1.1725,0.8575 0.49,0.5425 0.7525,1.33 0.28,0.7875 0.28,1.75 z m -1.4875,0 q 0,-1.3825 -0.595,-2.17 -0.595,-0.805 -1.61,-0.805 -0.9975,0 -1.5925,0.805 -0.5775,0.7875 -0.5775,2.17 0,1.365 0.5775,2.17 0.595,0.7875 1.5925,0.7875 1.015,0 1.61,-0.7875 0.595,-0.805 0.595,-2.17 z"
         style="font-size:17.5px"
         id="path4281"
         inkscape:connector-curvature="0" />
      <path
         d="m 74.676903,179.25862 q 0,-1.4525 0.28,-2.52 0.28,-1.0675 0.7875,-1.75 0.5075,-0.7 1.2075,-1.0325 0.7175,-0.35 1.5925,-0.35 0.8575,0 1.575,0.35 0.7175,0.3325 1.225,1.0325 0.5075,0.6825 0.7875,1.75 0.2975,1.0675 0.2975,2.52 0,1.4525 -0.2975,2.52 -0.28,1.0675 -0.7875,1.7675 -0.5075,0.7 -1.225,1.0325 -0.7175,0.3325 -1.575,0.3325 -0.875,0 -1.5925,-0.3325 -0.7,-0.3325 -1.2075,-1.0325 -0.5075,-0.7 -0.7875,-1.7675 -0.28,-1.0675 -0.28,-2.52 z m 1.47,0 q 0,2.135 0.5775,3.2725 0.5775,1.1375 1.785,1.1375 1.225,0 1.8375,-1.1375 0.6125,-1.1375 0.6125,-3.2725 0,-2.135 -0.6125,-3.2725 -0.6125,-1.1375 -1.8375,-1.1375 -1.2075,0 -1.785,1.1375 -0.5775,1.1375 -0.5775,3.2725 z"
         style="font-size:17.5px"
         id="path4283"
         inkscape:connector-curvature="0" />
      <path
         d="m 88.309403,179.06612 q 0,0.455 -0.28,0.7875 -0.2625,0.3325 -0.7,0.3325 -0.455,0 -0.735,-0.3325 -0.28,-0.3325 -0.28,-0.7875 0,-0.455 0.28,-0.805 0.28,-0.35 0.735,-0.35 0.4375,0 0.7,0.35 0.28,0.35 0.28,0.805 z m -4.585,0.1925 q 0,-2.73 0.9275,-4.1825 0.945,-1.47 2.6425,-1.47 1.715,0 2.6425,1.47 0.9275,1.4525 0.9275,4.1825 0,2.73 -0.9275,4.2 -0.9275,1.4525 -2.6425,1.4525 -1.6975,0 -2.6425,-1.4525 -0.9275,-1.47 -0.9275,-4.2 z m 5.67,0 q 0,-0.8925 -0.105,-1.68 -0.105,-0.805 -0.35,-1.4 -0.245,-0.595 -0.6475,-0.945 -0.4025,-0.35 -0.9975,-0.35 -0.595,0 -0.9975,0.35 -0.4025,0.35 -0.6475,0.945 -0.245,0.595 -0.35,1.4 -0.105,0.7875 -0.105,1.68 0,0.8925 0.105,1.6975 0.105,0.7875 0.35,1.3825 0.245,0.595 0.6475,0.945 0.4025,0.35 0.9975,0.35 0.595,0 0.9975,-0.35 0.4025,-0.35 0.6475,-0.945 0.245,-0.595 0.35,-1.3825 0.105,-0.805 0.105,-1.6975 z"
         style="font-size:17.5px"
         id="path4285"
         inkscape:connector-curvature="0" />
      <path
         d="m 99.526903,181.86612 q 0,1.365 -0.875,2.205 -0.8575,0.84 -2.625,0.84 -1.015,0 -1.68,-0.2625 -0.665,-0.28 -1.0675,-0.7 -0.385,-0.4375 -0.56,-0.9625 -0.1575,-0.525 -0.1575,-1.0325 0,-0.9275 0.5075,-1.645 0.5075,-0.7175 1.2075,-1.155 -1.4875,-0.84 -1.4875,-2.5725 0,-0.595 0.2275,-1.1375 0.2275,-0.5425 0.6475,-0.945 0.42,-0.4025 1.015,-0.6475 0.6125,-0.245 1.365,-0.245 0.875,0 1.4875,0.2625 0.63,0.2625 1.015,0.6825 0.385,0.4025 0.56,0.91 0.175,0.49 0.175,0.9625 0,0.9275 -0.4725,1.61 -0.4725,0.665 -1.085,1.0675 1.8025,0.8575 1.8025,2.765 z m -5.565,0.105 q 0,0.28 0.105,0.595 0.105,0.2975 0.35,0.56 0.245,0.2625 0.6475,0.4375 0.4025,0.1575 0.98,0.1575 0.5425,0 0.9275,-0.14 0.4025,-0.1575 0.6475,-0.4025 0.2625,-0.2625 0.385,-0.5775 0.1225,-0.315 0.1225,-0.63 0,-0.9975 -0.7175,-1.5225 -0.7175,-0.5425 -1.9775,-0.8225 -0.7,0.385 -1.085,0.9625 -0.385,0.5775 -0.385,1.3825 z m 3.92,-5.5475 q 0,-0.2275 -0.105,-0.5075 -0.105,-0.2975 -0.3325,-0.525 -0.21,-0.245 -0.56,-0.4025 -0.35,-0.175 -0.84,-0.175 -0.5075,0 -0.8575,0.1575 -0.3325,0.1575 -0.56,0.4025 -0.2275,0.2275 -0.3325,0.525 -0.0875,0.28 -0.0875,0.56 0,0.7175 0.5075,1.3475 0.525,0.6125 1.715,0.8925 0.665,-0.385 1.05,-0.91 0.4025,-0.525 0.4025,-1.365 z"
         style="font-size:17.5px"
         id="path4287"
         inkscape:connector-curvature="0" />
      <path
         d="m 112.8269,175.30362 q -0.455,0 -0.7875,-0.315 -0.3325,-0.315 -0.3325,-0.8575 0,-0.5425 0.3325,-0.8575 0.3325,-0.315 0.7875,-0.315 0.4725,0 0.7875,0.315 0.3325,0.315 0.3325,0.8575 0,0.5425 -0.3325,0.8575 -0.315,0.315 -0.7875,0.315 z m -0.3675,2.4675 -2.345,0 0,-1.2075 3.78,0 0,4.9875 q 0,1.2075 0.3325,1.6275 0.3325,0.4025 0.9975,0.4025 0.5075,0 0.9275,-0.1225 0.4375,-0.1225 0.6825,-0.2625 l 0.21,1.225 q -0.105,0.0525 -0.2975,0.14 -0.1925,0.07 -0.455,0.14 -0.245,0.07 -0.56,0.1225 -0.2975,0.0525 -0.63,0.0525 -0.77,0 -1.2775,-0.21 -0.5075,-0.21 -0.8225,-0.63 -0.2975,-0.42 -0.42,-1.0325 -0.1225,-0.63 -0.1225,-1.4525 l 0,-3.78 z"
         style="font-size:17.5px"
         id="path4289"
         inkscape:connector-curvature="0" />
      <path
         d="m 123.0119,175.07612 0,8.3825 2.1,0 0,1.225 -5.635,0 0,-1.225 2.1,0 0,-8.3825 -2.1,0 0,-1.225 5.635,0 0,1.225 -2.1,0 z"
         style="font-size:17.5px"
         id="path4291"
         inkscape:connector-curvature="0" />
      <path
         d="m 132.5844,184.87612 q -0.77,0 -1.2775,-0.21 -0.5075,-0.21 -0.805,-0.63 -0.2975,-0.42 -0.42,-1.0325 -0.1225,-0.63 -0.1225,-1.4525 l 0,-7.6825 -2.345,0 0,-1.225 3.78,0 0,8.9075 q 0,0.6125 0.07,0.9975 0.0875,0.385 0.245,0.63 0.175,0.2275 0.42,0.315 0.245,0.0875 0.5775,0.0875 0.5075,0 0.945,-0.1225 0.4375,-0.1225 0.6825,-0.2625 l 0.21,1.225 q -0.105,0.0525 -0.2975,0.14 -0.1925,0.07 -0.455,0.14 -0.2625,0.07 -0.5775,0.1225 -0.2975,0.0525 -0.63,0.0525 z"
         style="font-size:17.5px"
         id="path4293"
         inkscape:connector-curvature="0" />
      <path
         d="m 143.4694,183.45862 0,1.225 -6.4575,0 0,-10.8325 1.435,0 0,9.6075 5.0225,0 z"
         style="font-size:17.5px"
         id="path4295"
         inkscape:connector-curvature="0" />
      <path
         d="m 145.4819,176.09112 q 0.8925,-0.35 1.7325,-0.875 0.84,-0.5425 1.5575,-1.365 l 1.015,0 0,9.6075 2.0475,0 0,1.225 -5.8275,0 0,-1.225 2.345,0 0,-7.595 q -0.1925,0.175 -0.4725,0.3675 -0.2625,0.175 -0.595,0.35 -0.315,0.175 -0.665,0.3325 -0.35,0.1575 -0.6825,0.2625 l -0.455,-1.085 z"
         style="font-size:17.5px"
         id="path4297"
         inkscape:connector-curvature="0" />
      <path
         d="m 163.0519,179.45112 0.7,0 q 0.2975,0 0.525,-0.1225 0.2275,-0.14 0.3675,-0.35 0.1575,-0.2275 0.2275,-0.49 0.0875,-0.28 0.0875,-0.56 l 0,-2.8175 q 0,-0.6475 0.1225,-1.1375 0.14,-0.49 0.455,-0.8225 0.315,-0.35 0.84,-0.525 0.5425,-0.175 1.3475,-0.175 l 1.4175,0 0,1.1375 -1.4875,0 q -0.735,0 -1.05,0.3325 -0.2975,0.3325 -0.2975,1.2075 l 0,2.415 q 0,1.1725 -0.35,1.7325 -0.35,0.5425 -0.805,0.735 0.455,0.21 0.805,0.7875 0.35,0.5775 0.35,1.68 l 0,2.415 q 0,0.875 0.315,1.2075 0.315,0.3325 1.05,0.3325 l 1.47,0 0,1.1375 -1.4175,0 q -0.805,0 -1.3475,-0.175 -0.525,-0.175 -0.84,-0.525 -0.315,-0.3325 -0.455,-0.8225 -0.1225,-0.49 -0.1225,-1.1375 l 0,-2.8175 q 0,-0.2625 -0.0875,-0.525 -0.07,-0.28 -0.2275,-0.49 -0.14,-0.2275 -0.3675,-0.3675 -0.21,-0.14 -0.5075,-0.14 l -0.7175,0 0,-1.12 z"
         style="font-size:17.5px"
         id="path4299"
         inkscape:connector-curvature="0" />
      <path
         d="m 177.7869,180.57112 -0.7,0 q -0.2975,0 -0.525,0.14 -0.21,0.1225 -0.3675,0.35 -0.14,0.21 -0.2275,0.49 -0.07,0.2625 -0.07,0.5425 l 0,2.8175 q 0,0.6475 -0.14,1.1375 -0.1225,0.49 -0.455,0.8225 -0.315,0.35 -0.8575,0.525 -0.525,0.175 -1.33,0.175 l -1.4175,0 0,-1.1375 1.4875,0 q 0.735,0 1.0325,-0.3325 0.315,-0.3325 0.315,-1.2075 l 0,-2.415 q 0,-1.1725 0.35,-1.715 0.35,-0.56 0.805,-0.7525 -0.455,-0.21 -0.805,-0.7875 -0.35,-0.5775 -0.35,-1.68 l 0,-2.415 q 0,-0.875 -0.315,-1.2075 -0.315,-0.3325 -1.05,-0.3325 l -1.47,0 0,-1.1375 1.4175,0 q 0.805,0 1.33,0.175 0.5425,0.175 0.8575,0.525 0.3325,0.3325 0.455,0.8225 0.14,0.49 0.14,1.1375 l 0,2.8175 q 0,0.2625 0.07,0.5425 0.07,0.2625 0.21,0.49 0.1575,0.21 0.3675,0.35 0.2275,0.14 0.525,0.14 l 0.7175,0 0,1.12 z"
         style="font-size:17.5px"
         id="path4301"
         inkscape:connector-curvature="0" />
      <path
         d="m 190.4219,172.45112 4.1825,0 0,1.1375 -2.8175,0 0,12.845 2.8175,0 0,1.1375 -4.1825,0 0,-15.12 z"
         style="font-size:17.5px"
         id="path4303"
         inkscape:connector-curvature="0" />
      <path
         d="m 202.9169,187.57112 -4.1825,0 0,-1.1375 2.8175,0 0,-12.845 -2.8175,0 0,-1.1375 4.1825,0 0,15.12 z"
         style="font-size:17.5px"
         id="path4305"
         inkscape:connector-curvature="0" />
      <path
         d="m 220.2244,183.93112 q -0.245,0.14 -0.7525,0.2975 -0.5075,0.1575 -1.1725,0.1575 -0.7175,0 -1.3475,-0.2275 -0.6125,-0.245 -1.085,-0.7175 -0.455,-0.49 -0.735,-1.225 -0.2625,-0.7525 -0.2625,-1.7675 0,-0.8925 0.245,-1.6275 0.2625,-0.7525 0.735,-1.295 0.49,-0.5425 1.19,-0.84 0.7,-0.315 1.5925,-0.315 1.05,0 1.785,0.1575 0.7525,0.14 1.26,0.28 l 0,7.245 q 0,1.89 -0.9625,2.73 -0.945,0.84 -2.87,0.84 -0.7875,0 -1.435,-0.1225 -0.63,-0.1225 -1.12,-0.2975 l 0.2625,-1.2775 q 0.455,0.1925 1.0325,0.315 0.595,0.1225 1.295,0.1225 1.26,0 1.8025,-0.5075 0.5425,-0.5075 0.5425,-1.645 l 0,-0.28 z m 0,-6.09 q -0.21,-0.07 -0.5775,-0.1225 -0.3675,-0.07 -0.9975,-0.07 -1.12,0 -1.715,0.77 -0.5775,0.77 -0.5775,2.0475 0,0.7 0.1575,1.2075 0.175,0.49 0.455,0.8225 0.2975,0.315 0.665,0.4725 0.3675,0.14 0.7875,0.14 0.5425,0 1.015,-0.1575 0.49,-0.1575 0.7875,-0.3675 l 0,-4.7425 z"
         style="font-size:17.5px"
         id="path4307"
         inkscape:connector-curvature="0" />
      <path
         d="m 230.7419,178.19112 q 0,3.2375 -1.575,4.8825 -1.575,1.6275 -4.7425,1.645 l -0.0525,-1.225 q 1.96,0 3.15,-0.77 1.2075,-0.7875 1.5925,-2.695 -0.42,0.1925 -0.9275,0.315 -0.5075,0.105 -1.0675,0.105 -0.9275,0 -1.5575,-0.2625 -0.63,-0.28 -1.015,-0.735 -0.385,-0.4725 -0.56,-1.0675 -0.175,-0.595 -0.175,-1.26 0,-0.595 0.1925,-1.2075 0.1925,-0.63 0.595,-1.1375 0.4025,-0.5075 1.0325,-0.84 0.63,-0.3325 1.505,-0.3325 1.785,0 2.695,1.225 0.91,1.225 0.91,3.36 z m -3.465,1.0675 q 0.56,0 1.0325,-0.105 0.49,-0.105 0.945,-0.2975 0.0175,-0.175 0.0175,-0.3325 0,-0.1575 0,-0.3325 0,-0.6825 -0.105,-1.295 -0.0875,-0.6125 -0.3325,-1.0675 -0.2275,-0.455 -0.6475,-0.7175 -0.4025,-0.28 -1.0325,-0.28 -0.525,0 -0.875,0.2275 -0.35,0.21 -0.5775,0.5425 -0.2275,0.315 -0.3325,0.7175 -0.0875,0.4025 -0.0875,0.77 0,1.0675 0.4725,1.6275 0.49,0.5425 1.5225,0.5425 z"
         style="font-size:17.5px"
         id="path4309"
         inkscape:connector-curvature="0" />
      <path
         d="m 233.8569,180.64112 q 0,0.63 0.1225,1.1725 0.14,0.525 0.4025,0.9275 0.2625,0.385 0.665,0.6125 0.42,0.2275 0.9975,0.2275 0.5075,0 0.98,-0.1925 0.4725,-0.1925 0.7175,-0.42 l 0,-5.1275 q -0.1925,-0.07 -0.5425,-0.1225 -0.3325,-0.0525 -0.9275,-0.0525 -1.0675,0 -1.75,0.7875 -0.665,0.77 -0.665,2.1875 z m -1.4875,0 q 0,-0.98 0.28,-1.7675 0.28,-0.7875 0.7875,-1.33 0.5075,-0.56 1.225,-0.8575 0.735,-0.2975 1.61,-0.2975 0.945,0 1.6625,0.1575 0.735,0.14 1.2425,0.28 l 0,10.745 -1.4525,0 0,-3.2025 q -0.2625,0.175 -0.7525,0.3325 -0.49,0.175 -1.1025,0.175 -0.8225,0 -1.47,-0.315 -0.6475,-0.315 -1.1025,-0.875 -0.4375,-0.56 -0.6825,-1.33 -0.245,-0.7875 -0.245,-1.715 z"
         style="font-size:17.5px"
         id="path4311"
         inkscape:connector-curvature="0" />
      <path
         d="m 248.4694,184.22862 q -0.6125,0.35 -1.3125,0.5075 -0.6825,0.175 -1.47,0.175 -0.9625,0 -1.785,-0.3325 -0.805,-0.35 -1.4,-1.0325 -0.595,-0.7 -0.945,-1.7675 -0.3325,-1.0675 -0.3325,-2.52 0,-1.3825 0.35,-2.4325 0.3675,-1.05 0.98,-1.7675 0.6125,-0.7175 1.435,-1.085 0.8225,-0.3675 1.75,-0.3675 0.6475,0 1.3125,0.175 0.6825,0.175 1.33,0.5775 l -0.42,1.19 q -1.155,-0.665 -2.17,-0.665 -0.7175,0 -1.295,0.315 -0.56,0.2975 -0.9625,0.875 -0.4025,0.5775 -0.63,1.3825 -0.21,0.805 -0.21,1.8025 0,1.12 0.2275,1.9425 0.245,0.8225 0.665,1.365 0.42,0.5425 0.9975,0.805 0.595,0.2625 1.2775,0.2625 0.5075,0 1.0675,-0.1225 0.56,-0.14 1.155,-0.4725 l 0.385,1.19 z"
         style="font-size:17.5px"
         id="path4313"
         inkscape:connector-curvature="0" />
      <path
         d="m 255.6969,179.34612 1.435,0 0,5.075 q -0.3325,0.1225 -1.0675,0.2975 -0.735,0.1925 -1.7325,0.1925 -0.98,0 -1.785,-0.3675 -0.805,-0.385 -1.3825,-1.1025 -0.56,-0.7175 -0.875,-1.7675 -0.315,-1.0675 -0.315,-2.415 0,-1.365 0.35,-2.415 0.35,-1.05 0.945,-1.7675 0.6125,-0.7175 1.4175,-1.085 0.805,-0.385 1.7325,-0.385 0.595,0 1.05,0.0875 0.455,0.0875 0.77,0.21 0.3325,0.1225 0.5425,0.2625 0.21,0.1225 0.315,0.1925 l -0.4725,1.2075 q -0.4025,-0.315 -0.9625,-0.5075 -0.5425,-0.21 -1.155,-0.21 -0.665,0 -1.2425,0.315 -0.56,0.315 -0.9625,0.8925 -0.4025,0.5775 -0.63,1.4 -0.2275,0.805 -0.2275,1.8025 0,0.98 0.1925,1.785 0.21,0.805 0.595,1.3825 0.385,0.5775 0.945,0.91 0.5775,0.315 1.3125,0.315 0.5075,0 0.7875,-0.07 0.28,-0.07 0.42,-0.14 l 0,-4.095 z"
         style="font-size:17.5px"
         id="path4315"
         inkscape:connector-curvature="0" />
      <path
         d="m 258.4269,179.27612 q 0,-1.4525 0.28,-2.52 0.28,-1.0675 0.7875,-1.75 0.5075,-0.7 1.2075,-1.0325 0.7175,-0.35 1.5925,-0.35 0.8575,0 1.575,0.35 0.7175,0.3325 1.225,1.0325 0.5075,0.6825 0.7875,1.75 0.2975,1.0675 0.2975,2.52 0,1.295 -0.2275,2.2925 -0.2275,0.98 -0.6475,1.68 -0.42,0.7 -1.015,1.1025 -0.595,0.4025 -1.3125,0.525 0.0525,0.35 0.2975,0.595 0.245,0.2625 0.6125,0.4375 0.385,0.1925 0.8575,0.315 0.49,0.1225 1.015,0.1925 l -0.3325,1.155 q -0.7175,-0.1225 -1.3825,-0.315 -0.6475,-0.1925 -1.1725,-0.5075 -0.525,-0.315 -0.8925,-0.77 -0.3675,-0.455 -0.49,-1.12 -1.4175,-0.2975 -2.24,-1.645 -0.8225,-1.365 -0.8225,-3.9375 z m 1.47,0 q 0,2.135 0.5775,3.2725 0.5775,1.1375 1.785,1.1375 1.225,0 1.8375,-1.1375 0.6125,-1.1375 0.6125,-3.2725 0,-2.135 -0.6125,-3.2725 -0.6125,-1.1375 -1.8375,-1.1375 -1.2075,0 -1.785,1.1375 -0.5775,1.1375 -0.5775,3.2725 z"
         style="font-size:17.5px"
         id="path4317"
         inkscape:connector-curvature="0" />
      <path
         d="m 283.5219,179.18862 q -0.0525,0.2975 -0.1925,0.6825 -0.1225,0.385 -0.385,0.7175 -0.245,0.3325 -0.63,0.56 -0.385,0.2275 -0.9275,0.2275 -0.4725,0 -0.875,-0.175 -0.385,-0.1925 -0.7525,-0.42 -0.42,-0.245 -0.805,-0.49 -0.385,-0.245 -0.84,-0.245 -0.245,0 -0.42,0.1225 -0.175,0.105 -0.2975,0.28 -0.105,0.175 -0.1925,0.4025 -0.0875,0.21 -0.14,0.4025 l -0.9975,-0.28 q 0.0525,-0.2975 0.1925,-0.6825 0.14,-0.385 0.385,-0.7175 0.245,-0.3325 0.6125,-0.56 0.385,-0.2275 0.945,-0.2275 0.4725,0 0.8575,0.1925 0.4025,0.175 0.77,0.4025 0.42,0.245 0.805,0.49 0.4025,0.245 0.84,0.245 0.245,0 0.42,-0.105 0.175,-0.1225 0.28,-0.2975 0.1225,-0.175 0.21,-0.385 0.0875,-0.2275 0.14,-0.42 l 0.9975,0.28 z"
         style="font-size:17.5px"
         id="path4319"
         inkscape:connector-curvature="0" />
      <path
         d="m 286.6194,179.55612 3.85,0 0,1.365 -3.85,0 0,-1.365 z"
         style="font-size:17.5px"
         id="path4321"
         inkscape:connector-curvature="0" />
      <path
         d="m 293.7244,179.46862 2.94,0 0,-3.22 1.26,0 0,3.22 2.9575,0 0,1.225 -2.9575,0 0,3.2375 -1.26,0 0,-3.2375 -2.94,0 0,-1.225 z"
         style="font-size:17.5px"
         id="path4323"
         inkscape:connector-curvature="0" />
      <path
         d="m 302.4744,181.13112 7.1575,0 0,1.2425 -7.1575,0 0,-1.2425 z m 0,-3.325 7.1575,0 0,1.2425 -7.1575,0 0,-1.2425 z"
         style="font-size:17.5px"
         id="path4325"
         inkscape:connector-curvature="0" />
      <path
         d="m 311.2769,177.94612 0.4025,-1.2075 6.755,2.87 0,1.2425 -6.755,2.87 -0.4025,-1.2075 5.5475,-2.2925 -5.5475,-2.275 z"
         style="font-size:17.5px"
         id="path4327"
         inkscape:connector-curvature="0" />
    </g>
  </g>
</svg>
