<?xml version="1.0" encoding="UTF-8" standalone="no"?>
<svg
   version="1.1"
   id="svg2"
   viewBox="0 0 291.11472 108.37999"
   height="30.58724mm"
   width="82.159042mm"
   sodipodi:docname="Ubuntu Nerd Font.svg"
   xmlns:inkscape="http://www.inkscape.org/namespaces/inkscape"
   xmlns:sodipodi="http://sodipodi.sourceforge.net/DTD/sodipodi-0.dtd"
   xmlns="http://www.w3.org/2000/svg"
   xmlns:svg="http://www.w3.org/2000/svg"
   xmlns:rdf="http://www.w3.org/1999/02/22-rdf-syntax-ns#"
   xmlns:cc="http://creativecommons.org/ns#"
   xmlns:dc="http://purl.org/dc/elements/1.1/">
  <sodipodi:namedview
     id="namedview12"
     pagecolor="#ffffff"
     bordercolor="#666666"
     borderopacity="1.0"
     inkscape:showpageshadow="2"
     inkscape:pageopacity="0.0"
     inkscape:pagecheckerboard="0"
     inkscape:deskcolor="#d1d1d1"
     inkscape:document-units="mm" />
  <defs
     id="defs4" />
  <metadata
     id="metadata7">
    <rdf:RDF>
      <cc:Work
         rdf:about="">
        <dc:format>image/svg+xml</dc:format>
        <dc:type
           rdf:resource="http://purl.org/dc/dcmitype/StillImage" />
        <dc:title />
      </cc:Work>
    </rdf:RDF>
  </metadata>
  <g
     id="layer1"
     transform="translate(-65.084643,-79.593632)">
    <g
       aria-label="Ubuntu Nerd Font"
       id="text4136"
       style="font-size:27.5px;font-family:'Ubuntu Nerd Font';letter-spacing:0px;word-spacing:0px;fill:#ffffff">
      <path
         d="M 72.317143,101.34613 Q 70.447143,101.34613 69.072143,100.76863 67.697143,100.19113 66.817143,99.201132 65.937143,98.183632 65.497143,96.808632 65.084643,95.433632 65.084643,93.838632 V 81.876132 H 67.752143 V 93.536132 Q 67.752143,96.396132 69.017143,97.688632 70.282143,98.981132 72.317143,98.981132 73.334643,98.981132 74.159643,98.678632 75.012143,98.348632 75.617143,97.688632 76.222143,97.028632 76.552143,96.011132 76.882143,94.966132 76.882143,93.536132 V 81.876132 H 79.549643 V 93.838632 Q 79.549643,95.433632 79.109643,96.808632 78.697143,98.183632 77.789643,99.201132 76.909643,100.19113 75.534643,100.76863 74.187143,101.34613 72.317143,101.34613 Z"
         id="path14" />
      <path
         d="M 86.534636,87.266132 Q 87.002136,86.963632 87.937136,86.633632 88.899636,86.303632 90.137136,86.303632 91.677136,86.303632 92.859636,86.853632 94.069636,87.403632 94.894636,88.393632 95.719636,89.383632 96.132136,90.758632 96.572136,92.133632 96.572136,93.783632 96.572136,95.516132 96.049636,96.918632 95.554636,98.293632 94.619636,99.256132 93.684636,100.21863 92.364636,100.74113 91.044636,101.26363 89.394636,101.26363 87.607136,101.26363 86.232136,101.01613 84.857136,100.76863 83.977136,100.52113 V 80.033632 L 86.534636,79.593632 Z M 86.534636,98.706132 Q 86.919636,98.816132 87.607136,98.926132 88.322136,99.008632 89.367136,99.008632 91.429636,99.008632 92.667136,97.661132 93.904636,96.286132 93.904636,93.783632 93.904636,92.683632 93.684636,91.721132 93.464636,90.758632 92.969636,90.071132 92.474636,89.356132 91.677136,88.971132 90.907136,88.558632 89.807136,88.558632 88.762136,88.558632 87.882136,88.916132 87.002136,89.273632 86.534636,89.658632 Z"
         id="path16" />
      <path
         d="M 111.55966,100.52113 Q 110.67966,100.74113 109.22216,100.98863 107.79216,101.23613 105.89466,101.23613 104.24466,101.23613 103.11716,100.76863 101.98966,100.27363 101.30216,99.393632 100.61466,98.513632 100.31216,97.331132 100.00966,96.121132 100.00966,94.663632 V 86.633632 H 102.56716 V 94.113632 Q 102.56716,96.726132 103.39216,97.853632 104.21716,98.981132 106.16966,98.981132 106.58216,98.981132 107.02216,98.953632 107.46216,98.926132 107.84716,98.898632 108.23216,98.843632 108.53466,98.816132 108.86466,98.761132 109.00216,98.706132 V 86.633632 H 111.55966 Z"
         id="path18" />
      <path
         d="M 115.95964,87.046132 Q 116.83964,86.826132 118.29714,86.578632 119.75464,86.331132 121.65214,86.331132 123.35714,86.331132 124.48464,86.826132 125.61214,87.293632 126.27214,88.173632 126.95964,89.026132 127.23464,90.236132 127.50964,91.446132 127.50964,92.903632 V 100.93363 H 124.95214 V 93.453632 Q 124.95214,92.133632 124.75964,91.198632 124.59464,90.263632 124.18214,89.686132 123.76964,89.108632 123.08214,88.861132 122.39464,88.586132 121.37714,88.586132 120.96464,88.586132 120.52464,88.613632 120.08464,88.641132 119.67214,88.696132 119.28714,88.723632 118.95714,88.778632 118.65464,88.833632 118.51714,88.861132 V 100.93363 H 115.95964 Z"
         id="path20" />
      <path
         d="M 134.13712,86.633632 H 139.55462 V 88.778632 H 134.13712 V 95.378632 Q 134.13712,96.451132 134.30212,97.166132 134.46712,97.853632 134.79712,98.266132 135.12712,98.651132 135.62212,98.816132 136.11712,98.981132 136.77712,98.981132 137.93212,98.981132 138.61962,98.733632 139.33462,98.458632 139.60962,98.348632 L 140.10462,100.46613 Q 139.71962,100.65863 138.75712,100.93363 137.79462,101.23613 136.55712,101.23613 135.09962,101.23613 134.13712,100.87863 133.20212,100.49363 132.62462,99.751132 132.04712,99.008632 131.79962,97.936132 131.57962,96.836132 131.57962,95.406132 V 82.646132 L 134.13712,82.206132 Z"
         id="path22" />
      <path
         d="M 154.18464,100.52113 Q 153.30464,100.74113 151.84714,100.98863 150.41714,101.23613 148.51964,101.23613 146.86964,101.23613 145.74214,100.76863 144.61464,100.27363 143.92714,99.393632 143.23964,98.513632 142.93714,97.331132 142.63464,96.121132 142.63464,94.663632 V 86.633632 H 145.19214 V 94.113632 Q 145.19214,96.726132 146.01714,97.853632 146.84214,98.981132 148.79464,98.981132 149.20714,98.981132 149.64714,98.953632 150.08714,98.926132 150.47214,98.898632 150.85714,98.843632 151.15964,98.816132 151.48964,98.761132 151.62714,98.706132 V 86.633632 H 154.18464 Z"
         id="path24" />
      <path
         d="M 178.16464,100.93363 Q 177.55964,99.916132 176.76214,98.651132 175.99214,97.386132 175.08464,96.038632 174.17714,94.663632 173.18714,93.261132 172.22464,91.858632 171.26214,90.566132 170.29964,89.246132 169.39214,88.091132 168.48464,86.936132 167.71464,86.056132 V 100.93363 H 165.10214 V 81.876132 H 167.21964 Q 168.51214,83.251132 169.96964,85.093632 171.45464,86.908632 172.88464,88.861132 174.34214,90.786132 175.60714,92.656132 176.89964,94.526132 177.77964,95.983632 V 81.876132 H 180.39214 V 100.93363 Z"
         id="path26" />
      <path
         d="M 184.15966,93.811132 Q 184.15966,91.913632 184.70966,90.511132 185.25966,89.081132 186.16716,88.146132 187.07466,87.211132 188.25716,86.743632 189.43966,86.276132 190.67716,86.276132 193.56466,86.276132 195.10466,88.091132 196.64466,89.878632 196.64466,93.563632 196.64466,93.728632 196.64466,94.003632 196.64466,94.251132 196.61716,94.471132 H 186.82716 Q 186.99216,96.698632 188.11966,97.853632 189.24716,99.008632 191.63966,99.008632 192.98716,99.008632 193.89466,98.788632 194.82966,98.541132 195.29716,98.321132 L 195.65466,100.46613 Q 195.18716,100.71363 194.00466,100.98863 192.84966,101.26363 191.36466,101.26363 189.49466,101.26363 188.11966,100.71363 186.77216,100.13613 185.89216,99.146132 185.01216,98.156132 184.57216,96.808632 184.15966,95.433632 184.15966,93.811132 Z M 193.97716,92.408632 Q 194.00466,90.676132 193.09716,89.576132 192.21716,88.448632 190.64966,88.448632 189.76966,88.448632 189.08216,88.806132 188.42216,89.136132 187.95466,89.686132 187.48716,90.236132 187.21216,90.951132 186.96466,91.666132 186.88216,92.408632 Z"
         id="path28" />
      <path
         d="M 205.60967,86.331132 Q 205.93967,86.331132 206.35217,86.386132 206.79217,86.413632 207.20467,86.496132 207.61717,86.551132 207.94717,86.633632 208.30467,86.688632 208.46967,86.743632 L 208.02967,88.971132 Q 207.72717,88.861132 207.01217,88.723632 206.32467,88.558632 205.22467,88.558632 204.50967,88.558632 203.79467,88.723632 203.10717,88.861132 202.88717,88.916132 V 100.93363 H 200.32967 V 87.238632 Q 201.23717,86.908632 202.58467,86.633632 203.93217,86.331132 205.60967,86.331132 Z"
         id="path30" />
      <path
         d="M 220.18466,89.658632 Q 219.71716,89.273632 218.83716,88.916132 217.95716,88.558632 216.91216,88.558632 215.81216,88.558632 215.01466,88.971132 214.24466,89.356132 213.74966,90.071132 213.25466,90.758632 213.03466,91.721132 212.81466,92.683632 212.81466,93.783632 212.81466,96.286132 214.05216,97.661132 215.28966,99.008632 217.35216,99.008632 218.39716,99.008632 219.08466,98.926132 219.79966,98.816132 220.18466,98.706132 Z M 220.18466,80.033632 222.74216,79.593632 V 100.52113 Q 221.86216,100.76863 220.48716,101.01613 219.11216,101.26363 217.32466,101.26363 215.67466,101.26363 214.35466,100.74113 213.03466,100.21863 212.09966,99.256132 211.16466,98.293632 210.64216,96.918632 210.14716,95.516132 210.14716,93.783632 210.14716,92.133632 210.55966,90.758632 210.99966,89.383632 211.82466,88.393632 212.64966,87.403632 213.83216,86.853632 215.04216,86.303632 216.58216,86.303632 217.81966,86.303632 218.75466,86.633632 219.71716,86.963632 220.18466,87.266132 Z"
         id="path32" />
      <path
         d="M 233.65969,100.93363 V 81.876132 H 245.15469 V 84.158632 H 236.32719 V 89.906132 H 244.16469 V 92.161132 H 236.32719 V 100.93363 Z"
         id="path34" />
      <path
         d="M 260.49971,93.783632 Q 260.49971,95.488632 260.00471,96.863632 259.50971,98.238632 258.60221,99.228632 257.72221,100.21863 256.48471,100.76863 255.24721,101.29113 253.78971,101.29113 252.33221,101.29113 251.09471,100.76863 249.85721,100.21863 248.94971,99.228632 248.06971,98.238632 247.57471,96.863632 247.07971,95.488632 247.07971,93.783632 247.07971,92.106132 247.57471,90.731132 248.06971,89.328632 248.94971,88.338632 249.85721,87.348632 251.09471,86.826132 252.33221,86.276132 253.78971,86.276132 255.24721,86.276132 256.48471,86.826132 257.72221,87.348632 258.60221,88.338632 259.50971,89.328632 260.00471,90.731132 260.49971,92.106132 260.49971,93.783632 Z M 257.83221,93.783632 Q 257.83221,91.363632 256.73221,89.961132 255.65971,88.531132 253.78971,88.531132 251.91971,88.531132 250.81971,89.961132 249.74721,91.363632 249.74721,93.783632 249.74721,96.203632 250.81971,97.633632 251.91971,99.036132 253.78971,99.036132 255.65971,99.036132 256.73221,97.633632 257.83221,96.203632 257.83221,93.783632 Z"
         id="path36" />
      <path
         d="M 264.10222,87.046132 Q 264.98222,86.826132 266.43972,86.578632 267.89722,86.331132 269.79472,86.331132 271.49972,86.331132 272.62722,86.826132 273.75472,87.293632 274.41472,88.173632 275.10222,89.026132 275.37722,90.236132 275.65222,91.446132 275.65222,92.903632 V 100.93363 H 273.09472 V 93.453632 Q 273.09472,92.133632 272.90222,91.198632 272.73722,90.263632 272.32472,89.686132 271.91222,89.108632 271.22472,88.861132 270.53722,88.586132 269.51972,88.586132 269.10722,88.586132 268.66722,88.613632 268.22722,88.641132 267.81472,88.696132 267.42972,88.723632 267.09972,88.778632 266.79722,88.833632 266.65972,88.861132 V 100.93363 H 264.10222 Z"
         id="path38" />
      <path
         d="M 282.27971,86.633632 H 287.69721 V 88.778632 H 282.27971 V 95.378632 Q 282.27971,96.451132 282.44471,97.166132 282.60971,97.853632 282.93971,98.266132 283.26971,98.651132 283.76471,98.816132 284.25971,98.981132 284.91971,98.981132 286.07471,98.981132 286.76221,98.733632 287.47721,98.458632 287.75221,98.348632 L 288.24721,100.46613 Q 287.86221,100.65863 286.89971,100.93363 285.93721,101.23613 284.69971,101.23613 283.24221,101.23613 282.27971,100.87863 281.34471,100.49363 280.76721,99.751132 280.18971,99.008632 279.94221,97.936132 279.72221,96.836132 279.72221,95.406132 V 82.646132 L 282.27971,82.206132 Z"
         id="path40" />
    </g>
    <g
       aria-label="abcdefghijklmnopqrstuvwxyzABCDEFGHIJKLMNOPQRSTUVWXYZ oO08 iIlL1 {} [] g9qCGQ ~-+=&gt;"
       id="text4140"
       style="font-size:17.5px;font-family:'Ubuntu Nerd Font';letter-spacing:0px;word-spacing:0px;fill:#ffffff">
      <path
         d="M 69.899403,139.76112 Q 70.476903,139.76112 70.914403,139.74362 71.369403,139.70862 71.666903,139.63862 V 136.92612 Q 71.491903,136.83862 71.089403,136.78612 70.704403,136.71612 70.144403,136.71612 69.776903,136.71612 69.356903,136.76862 68.954403,136.82112 68.604403,136.99612 68.271903,137.15362 68.044403,137.45112 67.816903,137.73112 67.816903,138.20362 67.816903,139.07862 68.376903,139.42862 68.936903,139.76112 69.899403,139.76112 Z M 69.759403,131.60612 Q 70.739403,131.60612 71.404403,131.86862 72.086903,132.11362 72.489403,132.58612 72.909403,133.04112 73.084403,133.68862 73.259403,134.31862 73.259403,135.08862 V 140.77612 Q 73.049403,140.81112 72.664403,140.88112 72.296903,140.93362 71.824403,140.98612 71.351903,141.03862 70.791903,141.07362 70.249403,141.12612 69.706903,141.12612 68.936903,141.12612 68.289403,140.96862 67.641903,140.81112 67.169403,140.47862 66.696903,140.12862 66.434403,139.56862 66.171903,139.00862 66.171903,138.22112 66.171903,137.46862 66.469403,136.92612 66.784403,136.38362 67.309403,136.05112 67.834403,135.71862 68.534403,135.56112 69.234403,135.40362 70.004403,135.40362 70.249403,135.40362 70.511903,135.43862 70.774403,135.45612 71.001903,135.50862 71.246903,135.54362 71.421903,135.57862 71.596903,135.61362 71.666903,135.63112 V 135.17612 Q 71.666903,134.77362 71.579403,134.38862 71.491903,133.98612 71.264403,133.68862 71.036903,133.37362 70.634403,133.19862 70.249403,133.00612 69.619403,133.00612 68.814403,133.00612 68.201903,133.12862 67.606903,133.23362 67.309403,133.35612 L 67.116903,132.00862 Q 67.431903,131.86862 68.166903,131.74612 68.901903,131.60612 69.759403,131.60612 Z"
         id="path43" />
      <path
         d="M 77.581892,132.23612 Q 77.879392,132.04362 78.474392,131.83362 79.086892,131.62362 79.874392,131.62362 80.854392,131.62362 81.606892,131.97362 82.376892,132.32362 82.901892,132.95362 83.426892,133.58362 83.689392,134.45862 83.969392,135.33362 83.969392,136.38362 83.969392,137.48612 83.636892,138.37862 83.321892,139.25362 82.726892,139.86612 82.131892,140.47862 81.291892,140.81112 80.451892,141.14362 79.401892,141.14362 78.264392,141.14362 77.389392,140.98612 76.514392,140.82862 75.954392,140.67112 V 127.63362 L 77.581892,127.35362 Z M 77.581892,139.51612 Q 77.826892,139.58612 78.264392,139.65612 78.719392,139.70862 79.384392,139.70862 80.696892,139.70862 81.484392,138.85112 82.271892,137.97612 82.271892,136.38362 82.271892,135.68362 82.131892,135.07112 81.991892,134.45862 81.676892,134.02112 81.361892,133.56612 80.854392,133.32112 80.364392,133.05862 79.664392,133.05862 78.999392,133.05862 78.439392,133.28612 77.879392,133.51362 77.581892,133.75862 Z"
         id="path45" />
      <path
         d="M 90.216904,141.14362 Q 89.114404,141.14362 88.274404,140.79362 87.451904,140.44362 86.874404,139.81362 86.314404,139.18362 86.034404,138.32612 85.754404,137.45112 85.754404,136.40112 85.754404,135.35112 86.051904,134.47612 86.366904,133.60112 86.926904,132.97112 87.486904,132.32362 88.291904,131.97362 89.114404,131.60612 90.111904,131.60612 90.724404,131.60612 91.336904,131.71112 91.949404,131.81612 92.509404,132.04362 L 92.141904,133.42612 Q 91.774404,133.25112 91.284404,133.14612 90.811904,133.04112 90.269404,133.04112 88.904404,133.04112 88.169404,133.89862 87.451904,134.75612 87.451904,136.40112 87.451904,137.13612 87.609404,137.74862 87.784404,138.36112 88.134404,138.79862 88.501904,139.23612 89.061904,139.48112 89.621904,139.70862 90.426904,139.70862 91.074404,139.70862 91.599404,139.58612 92.124404,139.46362 92.421904,139.32362 L 92.649404,140.68862 Q 92.509404,140.77612 92.246904,140.86362 91.984404,140.93362 91.651904,140.98612 91.319404,141.05612 90.934404,141.09112 90.566904,141.14362 90.216904,141.14362 Z"
         id="path47" />
      <path
         d="M 100.06942,133.75862 Q 99.771921,133.51362 99.211921,133.28612 98.651921,133.05862 97.986921,133.05862 97.286921,133.05862 96.779421,133.32112 96.289421,133.56612 95.974421,134.02112 95.659421,134.45862 95.519421,135.07112 95.379421,135.68362 95.379421,136.38362 95.379421,137.97612 96.166921,138.85112 96.954421,139.70862 98.266921,139.70862 98.931921,139.70862 99.369421,139.65612 99.824421,139.58612 100.06942,139.51612 Z M 100.06942,127.63362 101.69692,127.35362 V 140.67112 Q 101.13692,140.82862 100.26192,140.98612 99.386921,141.14362 98.249421,141.14362 97.199421,141.14362 96.359421,140.81112 95.519421,140.47862 94.924421,139.86612 94.329421,139.25362 93.996921,138.37862 93.681921,137.48612 93.681921,136.38362 93.681921,135.33362 93.944421,134.45862 94.224421,133.58362 94.749421,132.95362 95.274421,132.32362 96.026921,131.97362 96.796921,131.62362 97.776921,131.62362 98.564421,131.62362 99.159421,131.83362 99.771921,132.04362 100.06942,132.23612 Z"
         id="path49" />
      <path
         d="M 103.98944,136.40112 Q 103.98944,135.19362 104.33944,134.30112 104.68944,133.39112 105.26694,132.79612 105.84444,132.20112 106.59694,131.90362 107.34944,131.60612 108.13694,131.60612 109.97444,131.60612 110.95444,132.76112 111.93444,133.89862 111.93444,136.24362 111.93444,136.34862 111.93444,136.52362 111.93444,136.68112 111.91694,136.82112 H 105.68694 Q 105.79194,138.23862 106.50944,138.97362 107.22694,139.70862 108.74944,139.70862 109.60694,139.70862 110.18444,139.56862 110.77944,139.41112 111.07694,139.27112 L 111.30444,140.63612 Q 111.00694,140.79362 110.25444,140.96862 109.51944,141.14362 108.57444,141.14362 107.38444,141.14362 106.50944,140.79362 105.65194,140.42612 105.09194,139.79612 104.53194,139.16612 104.25194,138.30862 103.98944,137.43362 103.98944,136.40112 Z M 110.23694,135.50862 Q 110.25444,134.40612 109.67694,133.70612 109.11694,132.98862 108.11944,132.98862 107.55944,132.98862 107.12194,133.21612 106.70194,133.42612 106.40444,133.77612 106.10694,134.12612 105.93194,134.58112 105.77444,135.03612 105.72194,135.50862 Z"
         id="path51" />
      <path
         d="M 117.83193,127.35362 Q 118.54943,127.35362 119.05693,127.45862 119.58193,127.56362 119.79193,127.65112 L 119.49443,129.05112 Q 119.28443,128.94612 118.89943,128.85862 118.51443,128.75362 117.95443,128.75362 116.81693,128.75362 116.36193,129.38362 115.90693,129.99612 115.90693,131.04612 V 131.83362 H 119.40693 V 133.19862 H 115.90693 V 140.93362 H 114.27943 V 131.01112 Q 114.27943,129.26112 115.13693,128.31612 115.99443,127.35362 117.83193,127.35362 Z"
         id="path53" />
      <path
         d="M 126.73943,140.02362 Q 126.52943,140.16362 125.91693,140.39112 125.32193,140.60112 124.51693,140.60112 123.69443,140.60112 122.95943,140.33862 122.24193,140.07612 121.69943,139.53362 121.15693,138.97362 120.84193,138.15112 120.52693,137.32862 120.52693,136.19112 120.52693,135.19362 120.82443,134.37112 121.12193,133.53112 121.68193,132.93612 122.25943,132.32362 123.08193,131.99112 123.90443,131.64112 124.93693,131.64112 126.07443,131.64112 126.91443,131.81612 127.77193,131.97362 128.34943,132.11362 V 140.23362 Q 128.34943,142.33362 127.26443,143.27862 126.17943,144.22362 123.97443,144.22362 123.11693,144.22362 122.34693,144.08362 121.59443,143.94362 121.03443,143.75112 L 121.33193,142.33362 Q 121.82193,142.52612 122.52193,142.66612 123.23943,142.82362 124.00943,142.82362 125.46193,142.82362 126.09193,142.24612 126.73943,141.66862 126.73943,140.40862 Z M 126.72193,133.26862 Q 126.47693,133.19862 126.05693,133.14612 125.65443,133.07612 124.95443,133.07612 123.64193,133.07612 122.92443,133.93362 122.22443,134.79112 122.22443,136.20862 122.22443,136.99612 122.41693,137.55612 122.62693,138.11612 122.95943,138.48362 123.30943,138.85112 123.74693,139.02612 124.20193,139.20112 124.67443,139.20112 125.32193,139.20112 125.86443,139.02612 126.40693,138.83362 126.72193,138.58862 Z"
         id="path55" />
      <path
         d="M 131.14941,140.93362 V 127.63362 L 132.77691,127.35362 V 132.00862 Q 133.23191,131.83362 133.73941,131.74612 134.26441,131.64112 134.77191,131.64112 135.85691,131.64112 136.57441,131.95612 137.29191,132.25362 137.71191,132.81362 138.14941,133.35612 138.32441,134.12612 138.49941,134.89612 138.49941,135.82362 V 140.93362 H 136.87191 V 136.17362 Q 136.87191,135.33362 136.74941,134.73862 136.64441,134.14362 136.38191,133.77612 136.11941,133.40862 135.68191,133.25112 135.24441,133.07612 134.59691,133.07612 134.33441,133.07612 134.05441,133.11112 133.77441,133.14612 133.51191,133.19862 133.26691,133.23362 133.05691,133.28612 132.86441,133.33862 132.77691,133.37362 V 140.93362 Z"
         id="path57" />
      <path
         d="M 142.7694,140.93362 H 141.1419 V 131.83362 H 142.7694 Z M 141.9469,130.18862 Q 141.5094,130.18862 141.1944,129.90862 140.8969,129.61112 140.8969,129.12112 140.8969,128.63112 141.1944,128.35112 141.5094,128.05362 141.9469,128.05362 142.3844,128.05362 142.6819,128.35112 142.9969,128.63112 142.9969,129.12112 142.9969,129.61112 142.6819,129.90862 142.3844,130.18862 141.9469,130.18862 Z"
         id="path59" />
      <path
         d="M 144.0819,144.20612 Q 143.8719,144.20612 143.5394,144.15362 143.2069,144.10112 142.9794,144.01362 L 143.1894,142.68362 Q 143.3644,142.73612 143.5919,142.77112 143.8194,142.80612 144.0119,142.80612 144.8519,142.80612 145.2019,142.28112 145.5694,141.77362 145.5694,140.77612 V 131.83362 H 147.1969 V 140.75862 Q 147.1969,142.50862 146.3919,143.34862 145.6044,144.20612 144.0819,144.20612 Z M 146.3744,130.18862 Q 145.9369,130.18862 145.6219,129.90862 145.3244,129.61112 145.3244,129.12112 145.3244,128.63112 145.6219,128.35112 145.9369,128.05362 146.3744,128.05362 146.8119,128.05362 147.1094,128.35112 147.4244,128.63112 147.4244,129.12112 147.4244,129.61112 147.1094,129.90862 146.8119,130.18862 146.3744,130.18862 Z"
         id="path61" />
      <path
         d="M 153.28691,135.92862 Q 153.81191,136.33112 154.38941,136.92612 154.98441,137.52112 155.54441,138.22112 156.12191,138.90362 156.62941,139.62112 157.13691,140.32112 157.48691,140.93362 H 155.57941 Q 155.21191,140.32112 154.72191,139.69112 154.24941,139.04362 153.72441,138.46612 153.19941,137.87112 152.65691,137.38112 152.11441,136.89112 151.62441,136.55862 V 140.93362 H 149.99691 V 127.63362 L 151.62441,127.35362 V 135.64862 Q 152.04441,135.22862 152.55191,134.72112 153.05941,134.21362 153.54941,133.68862 154.03941,133.16362 154.47691,132.69112 154.91441,132.20112 155.22941,131.83362 H 157.13691 Q 156.73441,132.27112 156.26191,132.79612 155.78941,133.32112 155.28191,133.86362 154.77441,134.38862 154.24941,134.93112 153.74191,135.45612 153.28691,135.92862 Z"
         id="path63" />
      <path
         d="M 161.8619,141.10862 Q 160.3569,141.07362 159.7269,140.46112 159.0969,139.84862 159.0969,138.55362 V 127.63362 L 160.7244,127.35362 V 138.29112 Q 160.7244,138.69362 160.7944,138.95612 160.8644,139.21862 161.0219,139.37612 161.1794,139.53362 161.4419,139.62112 161.7044,139.69112 162.0894,139.74362 Z"
         id="path65" />
      <path
         d="M 163.90941,132.09612 Q 164.46941,131.95612 165.37941,131.79862 166.30691,131.64112 167.51441,131.64112 168.38941,131.64112 168.98441,131.88612 169.57941,132.11362 169.98191,132.56862 170.10441,132.48112 170.36691,132.32362 170.62941,132.16612 171.01441,132.02612 171.39941,131.86862 171.87191,131.76362 172.34441,131.64112 172.88691,131.64112 173.93691,131.64112 174.60191,131.95612 175.26691,132.25362 175.63441,132.81362 176.01941,133.37362 176.14191,134.14362 176.28191,134.91362 176.28191,135.82362 V 140.93362 H 174.65441 V 136.17362 Q 174.65441,135.36862 174.56691,134.79112 174.49691,134.21362 174.26941,133.82862 174.05941,133.44362 173.67441,133.26862 173.30691,133.07612 172.71191,133.07612 171.88941,133.07612 171.34691,133.30362 170.82191,133.51362 170.62941,133.68862 170.76941,134.14362 170.83941,134.68612 170.90941,135.22862 170.90941,135.82362 V 140.93362 H 169.28191 V 136.17362 Q 169.28191,135.36862 169.19441,134.79112 169.10691,134.21362 168.87941,133.82862 168.66941,133.44362 168.28441,133.26862 167.91691,133.07612 167.33941,133.07612 167.09441,133.07612 166.81441,133.09362 166.53441,133.11112 166.27191,133.14612 166.02691,133.16362 165.81691,133.19862 165.60691,133.23362 165.53691,133.25112 V 140.93362 H 163.90941 Z"
         id="path67" />
      <path
         d="M 178.97691,132.09612 Q 179.53691,131.95612 180.46441,131.79862 181.39191,131.64112 182.59941,131.64112 183.68441,131.64112 184.40191,131.95612 185.11941,132.25362 185.53941,132.81362 185.97691,133.35612 186.15191,134.12612 186.32691,134.89612 186.32691,135.82362 V 140.93362 H 184.69941 V 136.17362 Q 184.69941,135.33362 184.57691,134.73862 184.47191,134.14362 184.20941,133.77612 183.94691,133.40862 183.50941,133.25112 183.07191,133.07612 182.42441,133.07612 182.16191,133.07612 181.88191,133.09362 181.60191,133.11112 181.33941,133.14612 181.09441,133.16362 180.88441,133.19862 180.69191,133.23362 180.60441,133.25112 V 140.93362 H 178.97691 Z"
         id="path69" />
      <path
         d="M 197.0544,136.38362 Q 197.0544,137.46862 196.7394,138.34362 196.4244,139.21862 195.8469,139.84862 195.2869,140.47862 194.4994,140.82862 193.7119,141.16112 192.7844,141.16112 191.8569,141.16112 191.0694,140.82862 190.2819,140.47862 189.7044,139.84862 189.1444,139.21862 188.8294,138.34362 188.5144,137.46862 188.5144,136.38362 188.5144,135.31612 188.8294,134.44112 189.1444,133.54862 189.7044,132.91862 190.2819,132.28862 191.0694,131.95612 191.8569,131.60612 192.7844,131.60612 193.7119,131.60612 194.4994,131.95612 195.2869,132.28862 195.8469,132.91862 196.4244,133.54862 196.7394,134.44112 197.0544,135.31612 197.0544,136.38362 Z M 195.3569,136.38362 Q 195.3569,134.84362 194.6569,133.95112 193.9744,133.04112 192.7844,133.04112 191.5944,133.04112 190.8944,133.95112 190.2119,134.84362 190.2119,136.38362 190.2119,137.92362 190.8944,138.83362 191.5944,139.72612 192.7844,139.72612 193.9744,139.72612 194.6569,138.83362 195.3569,137.92362 195.3569,136.38362 Z"
         id="path71" />
      <path
         d="M 205.6644,136.40112 Q 205.6644,134.80862 204.8769,133.95112 204.0894,133.09362 202.7769,133.09362 202.0419,133.09362 201.6219,133.14612 201.2194,133.19862 200.9744,133.26862 V 139.00862 Q 201.2719,139.25362 201.8319,139.48112 202.3919,139.70862 203.0569,139.70862 203.7569,139.70862 204.2469,139.46362 204.7544,139.20112 205.0694,138.76362 205.3844,138.30862 205.5244,137.71362 205.6644,137.10112 205.6644,136.40112 Z M 207.3619,136.40112 Q 207.3619,137.43362 207.0819,138.30862 206.8194,139.18362 206.2944,139.81362 205.7694,140.44362 204.9994,140.79362 204.2469,141.14362 203.2669,141.14362 202.4794,141.14362 201.8669,140.93362 201.2719,140.72362 200.9744,140.53112 V 144.17112 H 199.3469 V 132.11362 Q 199.9244,131.97362 200.7819,131.81612 201.6569,131.64112 202.7944,131.64112 203.8444,131.64112 204.6844,131.97362 205.5244,132.30612 206.1194,132.91862 206.7144,133.53112 207.0294,134.42362 207.3619,135.29862 207.3619,136.40112 Z"
         id="path73" />
      <path
         d="M 210.84441,136.40112 Q 210.84441,137.10112 210.98441,137.71362 211.12441,138.30862 211.43941,138.76362 211.75441,139.20112 212.24441,139.46362 212.75191,139.70862 213.45191,139.70862 214.11691,139.70862 214.67691,139.48112 215.23691,139.25362 215.53441,139.00862 V 133.26862 Q 215.28941,133.19862 214.86941,133.14612 214.46691,133.09362 213.73191,133.09362 212.41941,133.09362 211.63191,133.95112 210.84441,134.80862 210.84441,136.40112 Z M 209.14691,136.40112 Q 209.14691,135.29862 209.46191,134.42362 209.79441,133.53112 210.38941,132.91862 210.98441,132.30612 211.82441,131.97362 212.66441,131.64112 213.71441,131.64112 214.85191,131.64112 215.70941,131.81612 216.58441,131.97362 217.16191,132.11362 V 144.17112 H 215.53441 V 140.53112 Q 215.23691,140.72362 214.62441,140.93362 214.02941,141.14362 213.24191,141.14362 212.26191,141.14362 211.49191,140.79362 210.73941,140.44362 210.21441,139.81362 209.68941,139.18362 209.40941,138.30862 209.14691,137.43362 209.14691,136.40112 Z"
         id="path75" />
      <path
         d="M 223.32192,131.64112 Q 223.53192,131.64112 223.79442,131.67612 224.07442,131.69362 224.33692,131.74612 224.59942,131.78112 224.80942,131.83362 225.03692,131.86862 225.14192,131.90362 L 224.86192,133.32112 Q 224.66942,133.25112 224.21442,133.16362 223.77692,133.05862 223.07692,133.05862 222.62192,133.05862 222.16692,133.16362 221.72942,133.25112 221.58942,133.28612 V 140.93362 H 219.96192 V 132.21862 Q 220.53942,132.00862 221.39692,131.83362 222.25442,131.64112 223.32192,131.64112 Z"
         id="path77" />
      <path
         d="M 228.83443,139.76112 Q 229.83193,139.76112 230.30443,139.49862 230.79443,139.23612 230.79443,138.65862 230.79443,138.06362 230.32193,137.71362 229.84943,137.36362 228.76443,136.92612 228.23943,136.71612 227.74943,136.50612 227.27693,136.27862 226.92693,135.98112 226.57693,135.68362 226.36693,135.26362 226.15693,134.84362 226.15693,134.23112 226.15693,133.02362 227.04943,132.32362 227.94193,131.60612 229.48193,131.60612 229.86693,131.60612 230.25193,131.65862 230.63693,131.69362 230.96943,131.76362 231.30193,131.81612 231.54693,131.88612 231.80943,131.95612 231.94943,132.00862 L 231.65193,133.40862 Q 231.38943,133.26862 230.82943,133.12862 230.26943,132.97112 229.48193,132.97112 228.79943,132.97112 228.29193,133.25112 227.78443,133.51362 227.78443,134.09112 227.78443,134.38862 227.88943,134.61612 228.01193,134.84362 228.23943,135.03612 228.48443,135.21112 228.83443,135.36862 229.18443,135.52612 229.67443,135.70112 230.32193,135.94612 230.82943,136.19112 231.33693,136.41862 231.68693,136.73362 232.05443,137.04862 232.24693,137.50362 232.43943,137.94112 232.43943,138.58862 232.43943,139.84862 231.49443,140.49612 230.56693,141.14362 228.83443,141.14362 227.62693,141.14362 226.94443,140.93362 226.26193,140.74112 226.01693,140.63612 L 226.31443,139.23612 Q 226.59443,139.34112 227.20693,139.55112 227.81943,139.76112 228.83443,139.76112 Z"
         id="path79" />
      <path
         d="M 236.0444,131.83362 H 239.4919 V 133.19862 H 236.0444 V 137.39862 Q 236.0444,138.08112 236.1494,138.53612 236.2544,138.97362 236.4644,139.23612 236.6744,139.48112 236.9894,139.58612 237.3044,139.69112 237.7244,139.69112 238.4594,139.69112 238.8969,139.53362 239.3519,139.35862 239.5269,139.28862 L 239.8419,140.63612 Q 239.5969,140.75862 238.9844,140.93362 238.3719,141.12612 237.5844,141.12612 236.6569,141.12612 236.0444,140.89862 235.4494,140.65362 235.0819,140.18112 234.7144,139.70862 234.5569,139.02612 234.4169,138.32612 234.4169,137.41612 V 129.29612 L 236.0444,129.01612 Z"
         id="path81" />
      <path
         d="M 248.80192,140.67112 Q 248.24192,140.81112 247.31442,140.96862 246.40442,141.12612 245.19692,141.12612 244.14692,141.12612 243.42942,140.82862 242.71192,140.51362 242.27442,139.95362 241.83692,139.39362 241.64442,138.64112 241.45192,137.87112 241.45192,136.94362 V 131.83362 H 243.07942 V 136.59362 Q 243.07942,138.25612 243.60442,138.97362 244.12942,139.69112 245.37192,139.69112 245.63442,139.69112 245.91442,139.67362 246.19442,139.65612 246.43942,139.63862 246.68442,139.60362 246.87692,139.58612 247.08692,139.55112 247.17442,139.51612 V 131.83362 H 248.80192 Z"
         id="path83" />
      <path
         d="M 258.7069,131.83362 Q 258.0244,134.38862 257.0969,136.73362 256.1869,139.07862 255.3294,140.93362 H 253.8594 Q 253.0019,139.07862 252.0744,136.73362 251.1644,134.38862 250.4819,131.83362 H 252.2319 Q 252.4419,132.69112 252.7219,133.67112 253.0194,134.63362 253.3344,135.59612 253.6669,136.54112 253.9994,137.43362 254.3319,138.32612 254.6294,139.02612 254.9269,138.32612 255.2594,137.43362 255.5919,136.54112 255.9069,135.59612 256.2394,134.63362 256.5194,133.67112 256.8169,132.69112 257.0269,131.83362 Z"
         id="path85" />
      <path
         d="M 268.12192,140.93362 Q 267.63192,139.67362 267.07192,138.06362 266.52942,136.43612 266.07442,134.68612 265.61942,136.43612 265.07692,138.06362 264.53442,139.67362 264.04442,140.93362 H 262.62692 Q 261.82192,139.13112 261.05192,136.82112 260.28192,134.51112 259.59942,131.83362 H 261.34942 Q 261.52442,132.65612 261.76942,133.61862 262.01442,134.58112 262.27692,135.54362 262.55692,136.50612 262.85442,137.39862 263.15192,138.29112 263.41442,138.95612 263.71192,138.13362 263.99192,137.22362 264.28942,136.29612 264.55192,135.36862 264.81442,134.42362 265.04192,133.53112 265.28692,132.62112 265.46192,131.83362 H 266.80942 Q 266.96692,132.62112 267.19442,133.53112 267.42192,134.42362 267.68442,135.36862 267.94692,136.29612 268.22692,137.22362 268.52442,138.13362 268.82192,138.95612 269.08442,138.29112 269.36442,137.39862 269.66192,136.50612 269.94192,135.54362 270.22192,134.58112 270.46692,133.61862 270.71192,132.65612 270.88692,131.83362 H 272.56692 Q 271.88442,134.51112 271.11442,136.82112 270.34442,139.13112 269.53942,140.93362 Z"
         id="path87" />
      <path
         d="M 279.96942,140.93362 Q 279.77692,140.54862 279.49692,140.07612 279.21692,139.60362 278.88442,139.11362 278.55192,138.60612 278.20192,138.11612 277.85192,137.62612 277.51942,137.18862 277.18692,137.62612 276.83692,138.13362 276.48692,138.62362 276.15442,139.13112 275.83942,139.62112 275.55942,140.09362 275.27942,140.56612 275.08692,140.93362 H 273.40692 Q 274.01942,139.74362 274.85942,138.51862 275.71692,137.27612 276.55692,136.15612 L 273.54692,131.83362 H 275.38442 L 277.55442,135.01862 279.74192,131.83362 H 281.47442 L 278.53442,136.05112 Q 279.37442,137.18862 280.24942,138.46612 281.14192,139.72612 281.75442,140.93362 Z"
         id="path89" />
      <path
         d="M 282.40193,142.63112 Q 282.59443,142.71862 282.89193,142.78862 283.20693,142.87612 283.50443,142.87612 284.46693,142.87612 285.00943,142.43862 285.55193,142.01862 285.98943,141.05612 284.88693,138.95612 283.92443,136.61112 282.97943,134.24862 282.34943,131.83362 H 284.09943 Q 284.29193,132.62112 284.55443,133.53112 284.83443,134.44112 285.16693,135.40362 285.49943,136.36612 285.88443,137.32862 286.26943,138.29112 286.68943,139.18362 287.35443,137.34612 287.84443,135.54362 288.33443,133.74112 288.77193,131.83362 H 290.45193 Q 289.82193,134.40612 289.05193,136.78612 288.28193,139.14862 287.38943,141.21362 287.03943,142.00112 286.65443,142.56112 286.28693,143.13862 285.83193,143.50612 285.37693,143.87362 284.79943,144.04862 284.23943,144.22362 283.52193,144.22362 283.32943,144.22362 283.11943,144.18862 282.90943,144.17112 282.69943,144.11862 282.50693,144.08362 282.33193,144.03112 282.17443,143.97862 282.10443,143.94362 Z"
         id="path91" />
      <path
         d="M 298.20442,133.05862 Q 297.83692,133.46112 297.22442,134.19612 296.62942,134.93112 295.92942,135.82362 295.24692,136.71612 294.54692,137.69612 293.86442,138.67612 293.33942,139.56862 H 298.34442 V 140.93362 H 291.39692 V 139.84862 Q 291.81692,139.07862 292.42942,138.15112 293.04192,137.22362 293.70692,136.31362 294.38942,135.38612 295.01942,134.58112 295.66692,133.75862 296.13942,133.19862 H 291.64192 V 131.83362 H 298.20442 Z"
         id="path93" />
      <path
         d="M 75.026903,162.80862 Q 74.729403,162.02112 74.466903,161.26862 74.204403,160.49862 73.924403,159.71112 H 68.429403 L 67.326903,162.80862 H 65.559403 Q 66.259403,160.88362 66.871903,159.25612 67.484403,157.61112 68.061903,156.14112 68.656903,154.67112 69.234403,153.34112 69.811903,151.99362 70.441903,150.68112 H 71.999403 Q 72.629403,151.99362 73.206903,153.34112 73.784403,154.67112 74.361903,156.14112 74.956903,157.61112 75.569403,159.25612 76.181903,160.88362 76.881903,162.80862 Z M 73.434403,158.31112 Q 72.874403,156.78862 72.314403,155.37112 71.771903,153.93612 71.176903,152.62362 70.564403,153.93612 70.004403,155.37112 69.461903,156.78862 68.919403,158.31112 Z"
         id="path95" />
      <path
         d="M 81.799405,162.91362 Q 81.431905,162.91362 80.994405,162.89612 80.574405,162.87862 80.136905,162.84362 79.716905,162.80862 79.296905,162.75612 78.876905,162.70362 78.526905,162.61612 V 150.85612 Q 78.876905,150.76862 79.296905,150.71612 79.716905,150.66362 80.136905,150.62862 80.574405,150.59362 80.994405,150.57612 81.414405,150.55862 81.781905,150.55862 82.831905,150.55862 83.741905,150.71612 84.669405,150.87362 85.334405,151.25862 86.016905,151.62612 86.401905,152.23862 86.786905,152.85112 86.786905,153.74362 86.786905,154.74112 86.314405,155.38862 85.841905,156.01862 85.054405,156.33362 86.121905,156.64862 86.751905,157.33112 87.381905,158.01362 87.381905,159.25612 87.381905,161.07612 86.034405,162.00362 84.704405,162.91362 81.799405,162.91362 Z M 80.206905,157.15612 V 161.42612 Q 80.399405,161.44362 80.661905,161.46112 80.889405,161.47862 81.186905,161.49612 81.501905,161.49612 81.904405,161.49612 82.656905,161.49612 83.321905,161.40862 84.004405,161.30362 84.511905,161.05862 85.019405,160.81362 85.316905,160.37612 85.631905,159.93862 85.631905,159.27362 85.631905,158.67862 85.404405,158.27612 85.176905,157.85612 84.739405,157.61112 84.319405,157.36612 83.724405,157.26112 83.129405,157.15612 82.394405,157.15612 Z M 80.206905,155.79112 H 81.991905 Q 82.621905,155.79112 83.181905,155.70362 83.741905,155.61612 84.144405,155.38862 84.564405,155.16112 84.791905,154.79362 85.036905,154.42612 85.036905,153.86612 85.036905,153.34112 84.791905,152.99112 84.546905,152.62362 84.109405,152.41362 83.689405,152.18612 83.111905,152.08112 82.534405,151.97612 81.886905,151.97612 81.239405,151.97612 80.871905,151.99362 80.504405,152.01112 80.206905,152.04612 Z"
         id="path97" />
      <path
         d="M 94.994399,163.07112 Q 93.716899,163.07112 92.666899,162.65112 91.616899,162.23112 90.864399,161.42612 90.111899,160.62112 89.691899,159.44862 89.289399,158.25862 89.289399,156.73612 89.289399,155.21362 89.744399,154.04112 90.216899,152.85112 91.004399,152.04612 91.791899,151.24112 92.841899,150.82112 93.891899,150.40112 95.081899,150.40112 95.834399,150.40112 96.429399,150.50612 97.041899,150.61112 97.479399,150.75112 97.934399,150.89112 98.214399,151.03112 98.494399,151.17112 98.599399,151.24112 L 98.109399,152.64112 Q 97.951899,152.53612 97.654399,152.41362 97.356899,152.29112 96.971899,152.16862 96.604399,152.04612 96.149399,151.97612 95.711899,151.88862 95.256899,151.88862 94.294399,151.88862 93.524399,152.22112 92.754399,152.55362 92.211899,153.18362 91.669399,153.81362 91.371899,154.72362 91.091899,155.61612 91.091899,156.73612 91.091899,157.82112 91.336899,158.71362 91.599399,159.60612 92.106899,160.25362 92.614399,160.88362 93.366899,161.23362 94.136899,161.58362 95.151899,161.58362 96.324399,161.58362 97.094399,161.33862 97.864399,161.09362 98.249399,160.90112 L 98.686899,162.30112 Q 98.564399,162.38862 98.249399,162.52862 97.934399,162.65112 97.461899,162.77362 96.989399,162.89612 96.359399,162.98362 95.729399,163.07112 94.994399,163.07112 Z"
         id="path99" />
      <path
         d="M 110.58691,156.73612 Q 110.58691,158.31112 110.09691,159.48362 109.60691,160.63862 108.71441,161.40862 107.82191,162.16112 106.57941,162.54612 105.33691,162.91362 103.84941,162.91362 103.11441,162.91362 102.22191,162.84362 101.34691,162.79112 100.62941,162.61612 V 150.85612 Q 101.34691,150.68112 102.22191,150.62862 103.11441,150.55862 103.84941,150.55862 105.33691,150.55862 106.57941,150.94362 107.82191,151.31112 108.71441,152.08112 109.60691,152.83362 110.09691,154.00612 110.58691,155.16112 110.58691,156.73612 Z M 103.98941,161.42612 Q 106.40441,161.42612 107.59441,160.20112 108.78441,158.95862 108.78441,156.73612 108.78441,154.51362 107.59441,153.28862 106.40441,152.04612 103.98941,152.04612 103.27191,152.04612 102.86941,152.06362 102.48441,152.08112 102.32691,152.09862 V 161.37362 Q 102.48441,161.39112 102.86941,161.40862 103.27191,161.42612 103.98941,161.42612 Z"
         id="path101" />
      <path
         d="M 113.1069,162.80862 V 150.68112 H 120.5094 V 152.13362 H 114.8044 V 155.73862 H 119.8794 V 157.15612 H 114.8044 V 161.35612 H 120.9469 V 162.80862 Z"
         id="path103" />
      <path
         d="M 123.09939,162.80862 V 150.68112 H 130.41439 V 152.13362 H 124.79689 V 155.79112 H 129.78439 V 157.22612 H 124.79689 V 162.80862 Z"
         id="path105" />
      <path
         d="M 139.67189,156.84112 H 141.36939 V 162.51112 Q 141.15939,162.58112 140.75689,162.66862 140.37189,162.75612 139.84689,162.84362 139.33939,162.93112 138.72689,162.98362 138.11439,163.05362 137.48439,163.05362 136.20689,163.05362 135.15689,162.63362 134.10689,162.21362 133.35439,161.40862 132.60189,160.60362 132.18189,159.43112 131.77939,158.25862 131.77939,156.73612 131.77939,155.21362 132.23439,154.04112 132.70689,152.85112 133.49439,152.04612 134.28189,151.24112 135.33189,150.82112 136.39939,150.40112 137.60689,150.40112 138.42939,150.40112 139.05939,150.50612 139.70689,150.61112 140.16189,150.75112 140.61689,150.89112 140.89689,151.03112 141.19439,151.17112 141.29939,151.24112 L 140.75689,152.65862 Q 140.24939,152.32612 139.40939,152.11612 138.56939,151.88862 137.69439,151.88862 136.76689,151.88862 135.99689,152.22112 135.24439,152.55362 134.70189,153.18362 134.17689,153.81362 133.87939,154.72362 133.58189,155.61612 133.58189,156.73612 133.58189,157.82112 133.82689,158.71362 134.08939,159.60612 134.59689,160.25362 135.12189,160.88362 135.87439,161.23362 136.64439,161.58362 137.67689,161.58362 138.41189,161.58362 138.91939,161.51362 139.44439,161.42612 139.67189,161.35612 Z"
         id="path107" />
      <path
         d="M 151.65941,150.68112 H 153.35691 V 162.80862 H 151.65941 V 157.20862 H 145.72691 V 162.80862 H 144.02941 V 150.68112 H 145.72691 V 155.73862 H 151.65941 Z"
         id="path109" />
      <path
         d="M 156.36691,150.68112 H 158.06441 V 162.80862 H 156.36691 Z"
         id="path111" />
      <path
         d="M 166.90189,158.90612 Q 166.90189,159.78112 166.70939,160.53362 166.53439,161.28612 166.06189,161.86362 165.60689,162.42362 164.81939,162.75612 164.04939,163.07112 162.87689,163.07112 162.28189,163.07112 161.77439,162.96612 161.28439,162.87862 160.88189,162.73862 160.47939,162.58112 160.18189,162.42362 159.88439,162.24862 159.70939,162.09112 L 160.37439,160.74362 Q 160.74189,161.00612 161.31939,161.30362 161.91439,161.58362 162.78939,161.58362 164.04939,161.58362 164.62689,160.95362 165.20439,160.30612 165.20439,158.74862 V 150.68112 H 166.90189 Z"
         id="path113" />
      <path
         d="M 178.80189,150.68112 Q 178.25939,151.27612 177.57689,152.01112 176.89439,152.72862 176.14189,153.49862 175.40689,154.25112 174.67189,154.98612 173.93689,155.72112 173.28939,156.35112 174.04189,156.87612 174.88189,157.64612 175.72189,158.41612 176.52689,159.29112 177.33189,160.16612 178.03189,161.07612 178.74939,161.98612 179.22189,162.80862 H 177.22689 Q 176.70189,161.98612 176.01939,161.16362 175.33689,160.32362 174.56689,159.57112 173.81439,158.80112 173.02689,158.15362 172.25689,157.50612 171.52189,157.05112 V 162.80862 H 169.82439 V 150.68112 H 171.52189 V 156.03612 Q 172.13439,155.45862 172.86939,154.74112 173.60439,154.00612 174.32189,153.27112 175.03939,152.53612 175.66939,151.87112 176.31689,151.18862 176.75439,150.68112 Z"
         id="path115" />
      <path
         d="M 188.12938,161.33862 V 162.80862 H 180.83188 V 150.68112 H 182.52938 V 161.33862 Z"
         id="path117" />
      <path
         d="M 195.35687,161.12862 Q 195.18187,160.70862 194.88437,160.06112 194.60437,159.41362 194.27187,158.66112 193.93937,157.90862 193.55437,157.12112 193.18687,156.31612 192.85437,155.61612 192.52187,154.89862 192.22437,154.33862 191.94437,153.77862 191.76937,153.48112 191.57687,155.54612 191.45437,157.96112 191.33187,160.35862 191.24437,162.80862 H 189.58187 Q 189.65187,161.23362 189.73937,159.64112 189.82687,158.03112 189.93187,156.49112 190.05437,154.93362 190.17687,153.46362 190.31687,151.99362 190.47437,150.68112 H 191.96187 Q 192.43437,151.45112 192.97687,152.50112 193.51937,153.55112 194.06187,154.70612 194.60437,155.84362 195.11187,156.99862 195.61937,158.13612 196.03937,159.08112 196.45937,158.13612 196.96687,156.99862 197.47437,155.84362 198.01687,154.70612 198.55937,153.55112 199.10187,152.50112 199.64437,151.45112 200.11687,150.68112 H 201.60437 Q 202.19937,156.54362 202.49687,162.80862 H 200.83437 Q 200.74687,160.35862 200.62437,157.96112 200.50187,155.54612 200.30937,153.48112 200.13437,153.77862 199.83687,154.33862 199.55687,154.89862 199.22437,155.61612 198.89187,156.31612 198.50687,157.12112 198.13937,157.90862 197.80687,158.66112 197.47437,159.41362 197.17687,160.06112 196.89687,160.70862 196.72187,161.12862 Z"
         id="path119" />
      <path
         d="M 213.46937,162.80862 Q 213.08437,162.16112 212.57687,161.35612 212.08687,160.55112 211.50937,159.69362 210.93187,158.81862 210.30187,157.92612 209.68937,157.03362 209.07687,156.21112 208.46437,155.37112 207.88687,154.63612 207.30937,153.90112 206.81937,153.34112 V 162.80862 H 205.15687 V 150.68112 H 206.50437 Q 207.32687,151.55612 208.25437,152.72862 209.19937,153.88362 210.10937,155.12612 211.03687,156.35112 211.84187,157.54112 212.66437,158.73112 213.22437,159.65862 V 150.68112 H 214.88687 V 162.80862 Z"
         id="path121" />
      <path
         d="M 217.40688,156.73612 Q 217.40688,155.17862 217.86188,153.98862 218.33438,152.79862 219.12188,152.01112 219.92688,151.20612 220.97688,150.80362 222.04438,150.40112 223.23438,150.40112 224.40688,150.40112 225.43938,150.80362 226.48938,151.20612 227.27688,152.01112 228.06438,152.79862 228.51938,153.98862 228.99188,155.17862 228.99188,156.73612 228.99188,158.29362 228.51938,159.48362 228.06438,160.67362 227.27688,161.47862 226.48938,162.26612 225.43938,162.66862 224.40688,163.07112 223.23438,163.07112 222.04438,163.07112 220.97688,162.66862 219.92688,162.26612 219.12188,161.47862 218.33438,160.67362 217.86188,159.48362 217.40688,158.29362 217.40688,156.73612 Z M 219.19188,156.73612 Q 219.19188,157.83862 219.47188,158.74862 219.75188,159.64112 220.25938,160.27112 220.78438,160.90112 221.51938,161.25112 222.27188,161.58362 223.19938,161.58362 224.12688,161.58362 224.86188,161.25112 225.59688,160.90112 226.10438,160.27112 226.62938,159.64112 226.90938,158.74862 227.18938,157.83862 227.18938,156.73612 227.18938,155.63362 226.90938,154.74112 226.62938,153.83112 226.10438,153.20112 225.59688,152.57112 224.86188,152.23862 224.12688,151.88862 223.19938,151.88862 222.27188,151.88862 221.51938,152.23862 220.78438,152.57112 220.25938,153.20112 219.75188,153.83112 219.47188,154.74112 219.19188,155.63362 219.19188,156.73612 Z"
         id="path123" />
      <path
         d="M 234.73188,150.55862 Q 237.28688,150.55862 238.65188,151.53862 240.03438,152.50112 240.03438,154.42612 240.03438,155.47612 239.64938,156.22862 239.28188,156.96362 238.56438,157.43612 237.86438,157.89112 236.84938,158.10112 235.83438,158.31112 234.55688,158.31112 H 233.20938 V 162.80862 H 231.51188 V 150.85612 Q 232.22938,150.68112 233.10438,150.62862 233.99688,150.55862 234.73188,150.55862 Z M 234.87188,152.04612 Q 233.78688,152.04612 233.20938,152.09862 V 156.85862 H 234.48688 Q 235.36188,156.85862 236.06188,156.75362 236.76188,156.63112 237.23438,156.36862 237.72438,156.08862 237.98688,155.61612 238.24938,155.14362 238.24938,154.40862 238.24938,153.70862 237.96938,153.25362 237.70688,152.79862 237.23438,152.53612 236.77938,152.25612 236.16688,152.15112 235.55438,152.04612 234.87188,152.04612 Z"
         id="path125" />
      <path
         d="M 241.66188,156.73612 Q 241.66188,155.17862 242.11688,153.98862 242.58938,152.79862 243.37688,152.01112 244.18188,151.20612 245.23188,150.80362 246.29938,150.40112 247.48938,150.40112 248.66188,150.40112 249.69438,150.80362 250.74438,151.20612 251.53188,152.01112 252.31938,152.79862 252.77438,153.98862 253.24688,155.17862 253.24688,156.73612 253.24688,158.10112 252.89688,159.16862 252.54688,160.23612 251.91688,161.02362 251.30438,161.79362 250.46438,162.28362 249.64188,162.75612 248.69688,162.93112 248.71438,163.33362 249.04688,163.63112 249.39688,163.94612 249.92188,164.15612 250.44688,164.36612 251.09438,164.50612 251.74188,164.64612 252.38938,164.71612 L 251.98688,166.04612 Q 251.07688,165.92362 250.23688,165.71362 249.41438,165.52112 248.73188,165.18862 248.06688,164.85612 247.61188,164.33112 247.15688,163.82362 246.99938,163.05362 245.89688,162.98362 244.91688,162.54612 243.93688,162.09112 243.21938,161.30362 242.50188,160.49862 242.08188,159.36112 241.66188,158.22362 241.66188,156.73612 Z M 243.44688,156.73612 Q 243.44688,157.83862 243.72688,158.74862 244.00688,159.64112 244.51438,160.27112 245.03938,160.90112 245.77438,161.25112 246.52688,161.58362 247.45438,161.58362 248.38188,161.58362 249.11688,161.25112 249.85188,160.90112 250.35938,160.27112 250.88438,159.64112 251.16438,158.74862 251.44438,157.83862 251.44438,156.73612 251.44438,155.63362 251.16438,154.74112 250.88438,153.83112 250.35938,153.20112 249.85188,152.57112 249.11688,152.23862 248.38188,151.88862 247.45438,151.88862 246.52688,151.88862 245.77438,152.23862 245.03938,152.57112 244.51438,153.20112 244.00688,153.83112 243.72688,154.74112 243.44688,155.63362 243.44688,156.73612 Z"
         id="path127" />
      <path
         d="M 261.69937,157.73362 Q 261.97937,158.08362 262.39937,158.66112 262.83687,159.22112 263.29187,159.92112 263.74687,160.60362 264.18437,161.35612 264.63937,162.10862 264.95437,162.80862 H 263.09937 Q 262.74937,162.14362 262.32937,161.46112 261.92687,160.77862 261.50687,160.16612 261.08687,159.53612 260.66687,158.99362 260.26437,158.45112 259.93187,158.04862 259.70437,158.06612 259.45937,158.06612 259.23187,158.06612 258.98687,158.06612 H 257.46437 V 162.80862 H 255.76687 V 150.85612 Q 256.48437,150.68112 257.35937,150.62862 258.25187,150.55862 258.98687,150.55862 261.54187,150.55862 262.87187,151.52112 264.21937,152.48362 264.21937,154.39112 264.21937,155.59862 263.57187,156.45612 262.94187,157.31362 261.69937,157.73362 Z M 259.12687,152.04612 Q 258.04187,152.04612 257.46437,152.09862 V 156.66612 H 258.67187 Q 259.54687,156.66612 260.24687,156.57862 260.94687,156.49112 261.41937,156.24612 261.90937,156.00112 262.17187,155.56362 262.43437,155.10862 262.43437,154.37362 262.43437,153.69112 262.17187,153.23612 261.90937,152.78112 261.45437,152.51862 261.01687,152.25612 260.40437,152.15112 259.80937,152.04612 259.12687,152.04612 Z"
         id="path129" />
      <path
         d="M 269.59188,161.60112 Q 272.25188,161.60112 272.25188,159.78112 272.25188,159.22112 272.00688,158.83612 271.77938,158.43362 271.37688,158.15362 270.97438,157.85612 270.44938,157.64612 269.94188,157.43612 269.36438,157.22612 268.69938,156.99862 268.10438,156.71862 267.50938,156.42112 267.07188,156.03612 266.63438,155.63362 266.37188,155.09112 266.12688,154.54862 266.12688,153.77862 266.12688,152.18612 267.21188,151.29362 268.29688,150.40112 270.20438,150.40112 271.30688,150.40112 272.19938,150.64612 273.10938,150.87362 273.52938,151.15362 L 272.98688,152.53612 Q 272.61938,152.30862 271.88438,152.09862 271.16688,151.87112 270.20438,151.87112 269.71438,151.87112 269.29438,151.97612 268.87438,152.08112 268.55938,152.29112 268.24438,152.50112 268.05188,152.83362 267.87688,153.14862 267.87688,153.58612 267.87688,154.07612 268.06938,154.40862 268.26188,154.74112 268.61188,155.00362 268.96188,155.24862 269.41688,155.45862 269.88938,155.66862 270.44938,155.87862 271.23688,156.19362 271.88438,156.50862 272.54938,156.82362 273.02188,157.26112 273.51188,157.69862 273.77438,158.31112 274.03688,158.90612 274.03688,159.76362 274.03688,161.35612 272.86438,162.21362 271.70938,163.07112 269.59188,163.07112 268.87438,163.07112 268.26188,162.96612 267.66688,162.87862 267.19438,162.75612 266.72188,162.61612 266.37188,162.47612 266.03938,162.31862 265.84688,162.21362 L 266.35438,160.81362 Q 266.75688,161.04112 267.57938,161.32112 268.40188,161.60112 269.59188,161.60112 Z"
         id="path131" />
      <path
         d="M 284.18686,150.68112 V 152.15112 H 280.37186 V 162.80862 H 278.67436 V 152.15112 H 274.85936 V 150.68112 Z"
         id="path133" />
      <path
         d="M 290.48687,163.07112 Q 289.29687,163.07112 288.42187,162.70362 287.54687,162.33612 286.98687,161.70612 286.42687,161.05862 286.14687,160.18362 285.88437,159.30862 285.88437,158.29362 V 150.68112 H 287.58187 V 158.10112 Q 287.58187,159.92112 288.38687,160.74362 289.19187,161.56612 290.48687,161.56612 291.13437,161.56612 291.65937,161.37362 292.20187,161.16362 292.58687,160.74362 292.97187,160.32362 293.18187,159.67612 293.39187,159.01112 293.39187,158.10112 V 150.68112 H 295.08937 V 158.29362 Q 295.08937,159.30862 294.80937,160.18362 294.54687,161.05862 293.96937,161.70612 293.40937,162.33612 292.53437,162.70362 291.67687,163.07112 290.48687,163.07112 Z"
         id="path135" />
      <path
         d="M 307.81187,150.68112 Q 307.14687,152.60612 306.53437,154.25112 305.93937,155.87862 305.36187,157.34862 304.78437,158.81862 304.20687,160.16612 303.64687,161.49612 303.05187,162.80862 H 301.45937 Q 300.86437,161.49612 300.28687,160.16612 299.72687,158.81862 299.13187,157.34862 298.55437,155.87862 297.94187,154.25112 297.32937,152.60612 296.68187,150.68112 H 298.55437 Q 299.49937,153.44612 300.40937,156.00112 301.31937,158.55612 302.28187,160.79612 303.24437,158.57362 304.15437,156.01862 305.06437,153.44612 305.99187,150.68112 Z"
         id="path137" />
      <path
         d="M 316.49187,154.58362 Q 315.75687,156.92862 315.00437,158.92362 314.25187,160.91862 313.49937,162.80862 H 311.80187 Q 310.87437,160.13112 310.15687,157.15612 309.45687,154.18112 308.84437,150.68112 H 310.62937 Q 310.87437,152.04612 311.13687,153.41112 311.39937,154.77612 311.67937,156.07112 311.95937,157.34862 312.23937,158.52112 312.51937,159.69362 312.81687,160.69112 313.51687,158.85362 314.30437,156.66612 315.09187,154.46112 315.77437,152.11612 H 317.24437 Q 317.92687,154.46112 318.73187,156.66612 319.53687,158.85362 320.23687,160.69112 320.51687,159.71112 320.79687,158.53862 321.07687,157.36612 321.33937,156.08862 321.61937,154.79362 321.88187,153.42862 322.14437,152.04612 322.38937,150.68112 H 324.12187 Q 323.49187,154.18112 322.77437,157.15612 322.07437,160.13112 321.16437,162.80862 H 319.46687 Q 318.69687,160.91862 317.96187,158.92362 317.22687,156.92862 316.49187,154.58362 Z"
         id="path139" />
      <path
         d="M 333.5719,162.80862 Q 333.3094,162.28362 332.9419,161.65362 332.5744,161.00612 332.1369,160.32362 331.6994,159.62362 331.2269,158.94112 330.7544,158.24112 330.3169,157.62862 329.8794,158.24112 329.4069,158.94112 328.9344,159.62362 328.4969,160.32362 328.0769,161.00612 327.6919,161.65362 327.3244,162.28362 327.0619,162.80862 H 325.1894 Q 325.9769,161.26862 327.0094,159.67612 328.0594,158.08362 329.2319,156.40362 L 325.3469,150.68112 H 327.3069 L 330.2994,155.19612 333.2569,150.68112 H 335.1994 L 331.3844,156.33362 Q 332.5744,158.03112 333.6244,159.64112 334.6744,161.25112 335.4794,162.80862 Z"
         id="path141" />
      <path
         d="M 340.5544,162.80862 V 157.94362 Q 339.3469,156.07112 338.2794,154.25112 337.2119,152.43112 336.2669,150.68112 H 338.2619 Q 338.9269,152.11612 339.7494,153.60362 340.5719,155.07362 341.4469,156.43862 342.3044,155.07362 343.1269,153.60362 343.9494,152.11612 344.6319,150.68112 H 346.5219 Q 345.5769,152.43112 344.5094,154.25112 343.4419,156.05362 342.2519,157.90862 V 162.80862 Z"
         id="path143" />
      <path
         d="M 356.02437,152.02862 Q 355.62187,152.48362 355.07937,153.13112 354.55437,153.76112 353.95937,154.54862 353.36437,155.31862 352.73437,156.19362 352.10437,157.05112 351.49187,157.94362 350.89687,158.81862 350.35437,159.69362 349.81187,160.56862 349.37437,161.35612 H 356.19937 V 162.80862 H 347.39687 V 161.67112 Q 347.76437,160.97112 348.25437,160.13112 348.76187,159.29112 349.32187,158.41612 349.89937,157.54112 350.51187,156.64862 351.12437,155.75612 351.71937,154.93362 352.33187,154.11112 352.89187,153.39362 353.46937,152.67612 353.94187,152.13362 H 347.71187 V 150.68112 H 356.02437 Z"
         id="path145" />
      <path
         d="M 74.851903,180.13362 Q 74.851903,181.21862 74.536903,182.09362 74.221903,182.96862 73.644403,183.59862 73.084403,184.22862 72.296903,184.57862 71.509403,184.91112 70.581903,184.91112 69.654403,184.91112 68.866903,184.57862 68.079403,184.22862 67.501903,183.59862 66.941903,182.96862 66.626903,182.09362 66.311903,181.21862 66.311903,180.13362 66.311903,179.06612 66.626903,178.19112 66.941903,177.29862 67.501903,176.66862 68.079403,176.03862 68.866903,175.70612 69.654403,175.35612 70.581903,175.35612 71.509403,175.35612 72.296903,175.70612 73.084403,176.03862 73.644403,176.66862 74.221903,177.29862 74.536903,178.19112 74.851903,179.06612 74.851903,180.13362 Z M 73.154403,180.13362 Q 73.154403,178.59362 72.454403,177.70112 71.771903,176.79112 70.581903,176.79112 69.391903,176.79112 68.691903,177.70112 68.009403,178.59362 68.009403,180.13362 68.009403,181.67362 68.691903,182.58362 69.391903,183.47612 70.581903,183.47612 71.771903,183.47612 72.454403,182.58362 73.154403,181.67362 73.154403,180.13362 Z"
         id="path147" />
      <path
         d="M 76.759406,178.61112 Q 76.759406,177.05362 77.214406,175.86362 77.686906,174.67362 78.474406,173.88612 79.279406,173.08112 80.329406,172.67862 81.396906,172.27612 82.586906,172.27612 83.759406,172.27612 84.791906,172.67862 85.841906,173.08112 86.629406,173.88612 87.416906,174.67362 87.871906,175.86362 88.344406,177.05362 88.344406,178.61112 88.344406,180.16862 87.871906,181.35862 87.416906,182.54862 86.629406,183.35362 85.841906,184.14112 84.791906,184.54362 83.759406,184.94612 82.586906,184.94612 81.396906,184.94612 80.329406,184.54362 79.279406,184.14112 78.474406,183.35362 77.686906,182.54862 77.214406,181.35862 76.759406,180.16862 76.759406,178.61112 Z M 78.544406,178.61112 Q 78.544406,179.71362 78.824406,180.62362 79.104406,181.51612 79.611906,182.14612 80.136906,182.77612 80.871906,183.12612 81.624406,183.45862 82.551906,183.45862 83.479406,183.45862 84.214406,183.12612 84.949406,182.77612 85.456906,182.14612 85.981906,181.51612 86.261906,180.62362 86.541906,179.71362 86.541906,178.61112 86.541906,177.50862 86.261906,176.61612 85.981906,175.70612 85.456906,175.07612 84.949406,174.44612 84.214406,174.11362 83.479406,173.76362 82.551906,173.76362 81.624406,173.76362 80.871906,174.11362 80.136906,174.44612 79.611906,175.07612 79.104406,175.70612 78.824406,176.61612 78.544406,177.50862 78.544406,178.61112 Z"
         id="path149" />
      <path
         d="M 90.234404,178.61112 Q 90.234404,175.56612 91.301904,173.92112 92.386904,172.27612 94.294404,172.27612 96.201904,172.27612 97.269404,173.92112 98.354404,175.56612 98.354404,178.61112 98.354404,181.65612 97.269404,183.30112 96.201904,184.94612 94.294404,184.94612 92.386904,184.94612 91.301904,183.30112 90.234404,181.65612 90.234404,178.61112 Z M 96.639404,178.61112 Q 96.639404,177.61362 96.516904,176.72112 96.411904,175.82862 96.131904,175.16362 95.869404,174.49862 95.414404,174.11362 94.959404,173.71112 94.294404,173.71112 93.629404,173.71112 93.174404,174.11362 92.719404,174.49862 92.439404,175.16362 92.176904,175.82862 92.054404,176.72112 91.949404,177.61362 91.949404,178.61112 91.949404,179.60862 92.054404,180.50112 92.176904,181.39362 92.439404,182.05862 92.719404,182.72362 93.174404,183.12612 93.629404,183.51112 94.294404,183.51112 94.959404,183.51112 95.414404,183.12612 95.869404,182.72362 96.131904,182.05862 96.411904,181.39362 96.516904,180.50112 96.639404,179.60862 96.639404,178.61112 Z"
         id="path151" />
      <path
         d="M 108.13689,181.53362 Q 108.13689,182.26862 107.87439,182.89862 107.62939,183.51112 107.12189,183.98362 106.63189,184.43862 105.87939,184.68362 105.12689,184.94612 104.14689,184.94612 103.00939,184.94612 102.23939,184.63112 101.48689,184.29862 101.03189,183.80862 100.57689,183.31862 100.38439,182.74112 100.19189,182.14612 100.19189,181.62112 100.19189,181.11362 100.34939,180.65862 100.52439,180.18612 100.78689,179.78362 101.06689,179.38112 101.41689,179.06612 101.78439,178.73362 102.18689,178.48862 100.47189,177.50862 100.47189,175.60112 100.47189,174.93612 100.73439,174.34112 100.99689,173.72862 101.46939,173.27362 101.95939,172.81862 102.64189,172.55612 103.32439,172.27612 104.16439,172.27612 105.14439,172.27612 105.84439,172.57362 106.54439,172.87112 106.98189,173.34362 107.43689,173.79862 107.62939,174.35862 107.83939,174.91862 107.83939,175.44362 107.83939,175.95112 107.68189,176.40612 107.54189,176.84362 107.27939,177.22862 107.03439,177.61362 106.70189,177.91112 106.38689,178.20862 106.03689,178.43612 108.10189,179.41612 108.13689,181.53362 Z M 101.83689,181.63862 Q 101.83689,181.95362 101.94189,182.30362 102.06439,182.63612 102.34439,182.93362 102.62439,183.21362 103.06189,183.40612 103.49939,183.59862 104.16439,183.59862 104.75939,183.59862 105.19689,183.42362 105.65189,183.24862 105.93189,182.98612 106.21189,182.70612 106.35189,182.35612 106.49189,182.00612 106.49189,181.63862 106.49189,181.07862 106.28189,180.65862 106.07189,180.23862 105.66939,179.92362 105.28439,179.60862 104.72439,179.39862 104.18189,179.17112 103.48189,179.01362 102.69439,179.45112 102.25689,180.09862 101.83689,180.74612 101.83689,181.63862 Z M 106.21189,175.42612 Q 106.21189,175.16362 106.08939,174.84862 105.98439,174.53362 105.73939,174.27112 105.49439,173.99112 105.10939,173.81612 104.72439,173.62362 104.16439,173.62362 103.60439,173.62362 103.20189,173.79862 102.81689,173.97362 102.57189,174.25362 102.32689,174.51612 102.20439,174.84862 102.09939,175.16362 102.09939,175.47862 102.09939,175.86362 102.23939,176.24862 102.37939,176.63362 102.67689,176.96612 102.97439,177.29862 103.44689,177.56112 103.93689,177.82362 104.60189,177.98112 105.33689,177.54362 105.77439,176.96612 106.21189,176.37112 106.21189,175.42612 Z"
         id="path153" />
      <path
         d="M 116.16939,184.68362 H 114.54189 V 175.58362 H 116.16939 Z M 115.34689,173.93862 Q 114.90939,173.93862 114.59439,173.65862 114.29689,173.36112 114.29689,172.87112 114.29689,172.38112 114.59439,172.10112 114.90939,171.80362 115.34689,171.80362 115.78439,171.80362 116.08189,172.10112 116.39689,172.38112 116.39689,172.87112 116.39689,173.36112 116.08189,173.65862 115.78439,173.93862 115.34689,173.93862 Z"
         id="path155" />
      <path
         d="M 119.0744,172.55612 H 120.7719 V 184.68362 H 119.0744 Z"
         id="path157" />
      <path
         d="M 126.40688,184.85862 Q 124.90188,184.82362 124.27188,184.21112 123.64188,183.59862 123.64188,182.30362 V 171.38362 L 125.26938,171.10362 V 182.04112 Q 125.26938,182.44362 125.33938,182.70612 125.40938,182.96862 125.56688,183.12612 125.72438,183.28362 125.98688,183.37112 126.24938,183.44112 126.63438,183.49362 Z"
         id="path159" />
      <path
         d="M 135.85689,183.21362 V 184.68362 H 128.55939 V 172.55612 H 130.25689 V 183.21362 Z"
         id="path161" />
      <path
         d="M 137.76438,175.05862 Q 138.76188,174.67362 139.70688,174.07862 140.65188,173.46612 141.43938,172.55612 H 142.59438 V 184.68362 H 140.96688 V 174.81362 Q 140.75688,175.00612 140.44188,175.21612 140.14438,175.42612 139.77688,175.61862 139.42688,175.81112 139.02438,175.98612 138.63938,176.16112 138.27188,176.28362 Z"
         id="path163" />
      <path
         d="M 150.74938,178.82112 Q 151.16938,178.82112 151.46688,178.68112 151.76438,178.52362 151.95688,178.29612 152.16688,178.05112 152.25438,177.75362 152.35938,177.43862 152.35938,177.12362 V 173.97362 Q 152.35938,173.25612 152.51688,172.69612 152.67438,172.13612 153.05938,171.76862 153.44438,171.38362 154.07438,171.19112 154.72188,170.98112 155.66688,170.98112 H 155.73688 V 172.25862 Q 154.73938,172.25862 154.30188,172.62612 153.88188,172.97612 153.88188,173.99112 V 176.68612 Q 153.88188,177.84112 153.56688,178.47112 153.26938,179.10112 152.70938,179.45112 153.26938,179.80112 153.56688,180.43112 153.88188,181.06112 153.88188,182.21612 V 184.91112 Q 153.88188,185.92612 154.30188,186.27612 154.73938,186.64362 155.73688,186.64362 V 187.92112 H 155.66688 Q 154.72188,187.92112 154.07438,187.72862 153.44438,187.53612 153.05938,187.15112 152.67438,186.76612 152.51688,186.20612 152.35938,185.64612 152.35938,184.92862 V 181.77862 Q 152.35938,181.46362 152.25438,181.16612 152.16688,180.85112 151.95688,180.62362 151.76438,180.37862 151.46688,180.23862 151.16938,180.08112 150.74938,180.08112 Z"
         id="path165" />
      <path
         d="M 162.40438,180.08112 Q 161.98438,180.08112 161.68688,180.23862 161.38938,180.37862 161.17938,180.62362 160.98688,180.85112 160.88188,181.16612 160.79438,181.46362 160.79438,181.77862 V 184.92862 Q 160.79438,185.64612 160.63688,186.20612 160.47938,186.76612 160.09438,187.15112 159.70938,187.53612 159.06188,187.72862 158.43188,187.92112 157.48688,187.92112 H 157.41688 V 186.64362 Q 158.41438,186.64362 158.83438,186.27612 159.27188,185.92612 159.27188,184.91112 V 182.21612 Q 159.27188,181.06112 159.56938,180.43112 159.88438,179.80112 160.44438,179.45112 159.88438,179.10112 159.56938,178.47112 159.27188,177.84112 159.27188,176.68612 V 173.99112 Q 159.27188,172.97612 158.83438,172.62612 158.41438,172.25862 157.41688,172.25862 V 170.98112 H 157.48688 Q 158.43188,170.98112 159.06188,171.19112 159.70938,171.38362 160.09438,171.76862 160.47938,172.13612 160.63688,172.69612 160.79438,173.25612 160.79438,173.97362 V 177.12362 Q 160.79438,177.43862 160.88188,177.75362 160.98688,178.05112 161.17938,178.29612 161.38938,178.52362 161.68688,178.68112 161.98438,178.82112 162.40438,178.82112 Z"
         id="path167" />
      <path
         d="M 168.8269,170.98112 H 172.7644 V 172.25862 H 170.3494 V 186.64362 H 172.7644 V 187.92112 H 168.8269 Z"
         id="path169" />
      <path
         d="M 178.38191,187.92112 H 174.44441 V 186.64362 H 176.85941 V 172.25862 H 174.44441 V 170.98112 H 178.38191 Z"
         id="path171" />
      <path
         d="M 191.20943,183.77362 Q 190.99943,183.91362 190.38693,184.14112 189.79193,184.35112 188.98693,184.35112 188.16443,184.35112 187.42943,184.08862 186.71193,183.82612 186.16943,183.28362 185.62693,182.72362 185.31193,181.90112 184.99693,181.07862 184.99693,179.94112 184.99693,178.94362 185.29443,178.12112 185.59193,177.28112 186.15193,176.68612 186.72943,176.07362 187.55193,175.74112 188.37443,175.39112 189.40693,175.39112 190.54443,175.39112 191.38443,175.56612 192.24193,175.72362 192.81943,175.86362 V 183.98362 Q 192.81943,186.08362 191.73443,187.02862 190.64943,187.97362 188.44443,187.97362 187.58693,187.97362 186.81693,187.83362 186.06443,187.69362 185.50443,187.50112 L 185.80193,186.08362 Q 186.29193,186.27612 186.99193,186.41612 187.70943,186.57362 188.47943,186.57362 189.93193,186.57362 190.56193,185.99612 191.20943,185.41862 191.20943,184.15862 Z M 191.19193,177.01862 Q 190.94693,176.94862 190.52693,176.89612 190.12443,176.82612 189.42443,176.82612 188.11193,176.82612 187.39443,177.68362 186.69443,178.54112 186.69443,179.95862 186.69443,180.74612 186.88693,181.30612 187.09693,181.86612 187.42943,182.23362 187.77943,182.60112 188.21693,182.77612 188.67193,182.95112 189.14443,182.95112 189.79193,182.95112 190.33443,182.77612 190.87693,182.58362 191.19193,182.33862 Z"
         id="path173" />
      <path
         d="M 202.98692,177.40362 Q 202.98692,181.00862 201.18442,182.86362 199.39942,184.70112 195.86442,184.71862 L 195.81192,183.35362 Q 196.91442,183.35362 197.78942,183.14362 198.68192,182.93362 199.34692,182.47862 200.01192,182.00612 200.44942,181.27112 200.90442,180.53612 201.11442,179.46862 200.65942,179.67862 200.08192,179.81862 199.50442,179.94112 198.89192,179.94112 197.85942,179.94112 197.14192,179.64362 196.42442,179.32862 195.96942,178.82112 195.51442,178.29612 195.30442,177.63112 195.11192,176.94862 195.11192,176.21362 195.11192,175.56612 195.33942,174.86612 195.56692,174.16612 196.02192,173.58862 196.49442,173.01112 197.21192,172.64362 197.92942,172.27612 198.90942,172.27612 199.90692,172.27612 200.65942,172.62612 201.42942,172.97612 201.93692,173.64112 202.46192,174.30612 202.72442,175.26862 202.98692,176.21362 202.98692,177.40362 Z M 199.06692,178.61112 Q 199.67942,178.61112 200.22192,178.50612 200.76442,178.38362 201.27192,178.15612 201.28942,177.96362 201.28942,177.78862 201.28942,177.59612 201.28942,177.40362 201.28942,176.65112 201.18442,175.96862 201.07942,175.26862 200.79942,174.76112 200.53692,174.23612 200.08192,173.93862 199.62692,173.62362 198.92692,173.62362 198.34942,173.62362 197.94692,173.86862 197.54442,174.11362 197.28192,174.49862 197.01942,174.86612 196.89692,175.32112 196.79192,175.75862 196.79192,176.17862 196.79192,177.36862 197.35192,177.99862 197.92942,178.61112 199.06692,178.61112 Z"
         id="path175" />
      <path
         d="M 206.6794,180.15112 Q 206.6794,180.85112 206.8194,181.46362 206.9594,182.05862 207.2744,182.51362 207.5894,182.95112 208.0794,183.21362 208.5869,183.45862 209.2869,183.45862 209.9519,183.45862 210.5119,183.23112 211.0719,183.00362 211.3694,182.75862 V 177.01862 Q 211.1244,176.94862 210.7044,176.89612 210.3019,176.84362 209.5669,176.84362 208.2544,176.84362 207.4669,177.70112 206.6794,178.55862 206.6794,180.15112 Z M 204.9819,180.15112 Q 204.9819,179.04862 205.2969,178.17362 205.6294,177.28112 206.2244,176.66862 206.8194,176.05612 207.6594,175.72362 208.4994,175.39112 209.5494,175.39112 210.6869,175.39112 211.5444,175.56612 212.4194,175.72362 212.9969,175.86362 V 187.92112 H 211.3694 V 184.28112 Q 211.0719,184.47362 210.4594,184.68362 209.8644,184.89362 209.0769,184.89362 208.0969,184.89362 207.3269,184.54362 206.5744,184.19362 206.0494,183.56362 205.5244,182.93362 205.2444,182.05862 204.9819,181.18362 204.9819,180.15112 Z"
         id="path177" />
      <path
         d="M 221.11691,184.94612 Q 219.83941,184.94612 218.78941,184.52612 217.73941,184.10612 216.98691,183.30112 216.23441,182.49612 215.81441,181.32362 215.41191,180.13362 215.41191,178.61112 215.41191,177.08862 215.86691,175.91612 216.33941,174.72612 217.12691,173.92112 217.91441,173.11612 218.96441,172.69612 220.01441,172.27612 221.20441,172.27612 221.95691,172.27612 222.55191,172.38112 223.16441,172.48612 223.60191,172.62612 224.05691,172.76612 224.33691,172.90612 224.61691,173.04612 224.72191,173.11612 L 224.23191,174.51612 Q 224.07441,174.41112 223.77691,174.28862 223.47941,174.16612 223.09441,174.04362 222.72691,173.92112 222.27191,173.85112 221.83441,173.76362 221.37941,173.76362 220.41691,173.76362 219.64691,174.09612 218.87691,174.42862 218.33441,175.05862 217.79191,175.68862 217.49441,176.59862 217.21441,177.49112 217.21441,178.61112 217.21441,179.69612 217.45941,180.58862 217.72191,181.48112 218.22941,182.12862 218.73691,182.75862 219.48941,183.10862 220.25941,183.45862 221.27441,183.45862 222.44691,183.45862 223.21691,183.21362 223.98691,182.96862 224.37191,182.77612 L 224.80941,184.17612 Q 224.68691,184.26362 224.37191,184.40362 224.05691,184.52612 223.58441,184.64862 223.11191,184.77112 222.48191,184.85862 221.85191,184.94612 221.11691,184.94612 Z"
         id="path179" />
      <path
         d="M 233.80441,178.71612 H 235.50191 V 184.38612 Q 235.29191,184.45612 234.88941,184.54362 234.50441,184.63112 233.97941,184.71862 233.47191,184.80612 232.85941,184.85862 232.24691,184.92862 231.61691,184.92862 230.33941,184.92862 229.28941,184.50862 228.23941,184.08862 227.48691,183.28362 226.73441,182.47862 226.31441,181.30612 225.91191,180.13362 225.91191,178.61112 225.91191,177.08862 226.36691,175.91612 226.83941,174.72612 227.62691,173.92112 228.41441,173.11612 229.46441,172.69612 230.53191,172.27612 231.73941,172.27612 232.56191,172.27612 233.19191,172.38112 233.83941,172.48612 234.29441,172.62612 234.74941,172.76612 235.02941,172.90612 235.32691,173.04612 235.43191,173.11612 L 234.88941,174.53362 Q 234.38191,174.20112 233.54191,173.99112 232.70191,173.76362 231.82691,173.76362 230.89941,173.76362 230.12941,174.09612 229.37691,174.42862 228.83441,175.05862 228.30941,175.68862 228.01191,176.59862 227.71441,177.49112 227.71441,178.61112 227.71441,179.69612 227.95941,180.58862 228.22191,181.48112 228.72941,182.12862 229.25441,182.75862 230.00691,183.10862 230.77691,183.45862 231.80941,183.45862 232.54441,183.45862 233.05191,183.38862 233.57691,183.30112 233.80441,183.23112 Z"
         id="path181" />
      <path
         d="M 237.67194,178.61112 Q 237.67194,177.05362 238.12694,175.86362 238.59944,174.67362 239.38694,173.88612 240.19194,173.08112 241.24194,172.67862 242.30944,172.27612 243.49944,172.27612 244.67194,172.27612 245.70444,172.67862 246.75444,173.08112 247.54194,173.88612 248.32944,174.67362 248.78444,175.86362 249.25694,177.05362 249.25694,178.61112 249.25694,179.97612 248.90694,181.04362 248.55694,182.11112 247.92694,182.89862 247.31444,183.66862 246.47444,184.15862 245.65194,184.63112 244.70694,184.80612 244.72444,185.20862 245.05694,185.50612 245.40694,185.82112 245.93194,186.03112 246.45694,186.24112 247.10444,186.38112 247.75194,186.52112 248.39944,186.59112 L 247.99694,187.92112 Q 247.08694,187.79862 246.24694,187.58862 245.42444,187.39612 244.74194,187.06362 244.07694,186.73112 243.62194,186.20612 243.16694,185.69862 243.00944,184.92862 241.90694,184.85862 240.92694,184.42112 239.94694,183.96612 239.22944,183.17862 238.51194,182.37362 238.09194,181.23612 237.67194,180.09862 237.67194,178.61112 Z M 239.45694,178.61112 Q 239.45694,179.71362 239.73694,180.62362 240.01694,181.51612 240.52444,182.14612 241.04944,182.77612 241.78444,183.12612 242.53694,183.45862 243.46444,183.45862 244.39194,183.45862 245.12694,183.12612 245.86194,182.77612 246.36944,182.14612 246.89444,181.51612 247.17444,180.62362 247.45444,179.71362 247.45444,178.61112 247.45444,177.50862 247.17444,176.61612 246.89444,175.70612 246.36944,175.07612 245.86194,174.44612 245.12694,174.11362 244.39194,173.76362 243.46444,173.76362 242.53694,173.76362 241.78444,174.11362 241.04944,174.44612 240.52444,175.07612 240.01694,175.70612 239.73694,176.61612 239.45694,177.50862 239.45694,178.61112 Z"
         id="path183" />
      <path
         d="M 263.41445,178.43612 Q 263.34445,178.78612 263.18695,179.20612 263.04695,179.62612 262.76695,180.01112 262.48695,180.37862 262.04945,180.64112 261.62945,180.88612 261.01695,180.88612 260.49195,180.88612 260.03695,180.67612 259.59945,180.46612 259.19695,180.22112 258.72445,179.94112 258.28695,179.67862 257.84945,179.39862 257.35945,179.39862 257.07945,179.39862 256.88695,179.53862 256.69445,179.66112 256.55445,179.87112 256.41445,180.06362 256.32695,180.30862 256.23945,180.53612 256.16945,180.76362 L 255.04945,180.44862 Q 255.11945,180.11612 255.27695,179.69612 255.43445,179.25862 255.69695,178.89112 255.97695,178.50612 256.39695,178.26112 256.83445,177.99862 257.44695,177.99862 257.97195,177.99862 258.40945,178.20862 258.86445,178.41862 259.26695,178.66362 259.73945,178.94362 260.17695,179.22362 260.61445,179.48612 261.10445,179.48612 261.38445,179.48612 261.57695,179.36362 261.76945,179.22362 261.90945,179.03112 262.04945,178.82112 262.13695,178.59362 262.22445,178.34862 262.29445,178.12112 Z"
         id="path185" />
      <path
         d="M 264.63943,178.68112 H 268.96193 V 180.20362 H 264.63943 Z"
         id="path187" />
      <path
         d="M 270.34443,178.75112 H 273.65193 V 175.14612 H 275.05193 V 178.75112 H 278.35943 V 180.13362 H 275.05193 V 183.75612 H 273.65193 V 180.13362 H 270.34443 Z"
         id="path189" />
      <path
         d="M 280.21441,180.62362 H 288.22941 V 182.00612 H 280.21441 Z M 280.21441,176.89612 H 288.22941 V 178.27862 H 280.21441 Z"
         id="path191" />
      <path
         d="M 290.08441,176.89612 290.53941,175.54862 298.09941,178.75112 V 180.15112 L 290.53941,183.35362 290.08441,182.00612 296.29691,179.45112 Z"
         id="path193" />
    </g>
  </g>
</svg>
