<svg xmlns="http://www.w3.org/2000/svg" width="310.448" height="115.605" viewBox="0 0 291.045 108.38"><g font-weight="400" font-family="UbuntuCondensed Nerd Font" letter-spacing="0" word-spacing="0" fill="#fff"><g style="line-height:125%;text-decoration-line:underline" font-size="27.5" text-decoration="underline"><path d="M5.335 21.752q-2.668 0-4.015-1.512Q0 18.728 0 15.455V2.283h2.475v12.952q0 2.173.632 3.273.633 1.072 2.283 1.072 1.705 0 2.31-1.1.632-1.127.632-3.245V2.283h2.475v13.172q0 3.218-1.375 4.758t-4.097 1.54zM17.43 19.415q.385.11.743.165.357.028.66.028 1.595 0 2.365-1.265.797-1.293.797-4.263 0-1.54-.192-2.585-.193-1.045-.578-1.677-.357-.633-.88-.908-.522-.275-1.21-.275-.907 0-1.705.44v10.34zm0-12.402q.44-.22.88-.33.468-.138 1.1-.138 1.348 0 2.31.55.963.523 1.568 1.513.605.962.88 2.365.302 1.375.302 3.107 0 3.823-1.375 5.72-1.347 1.897-4.262 1.897-1.018 0-2.008-.22-.99-.192-1.76-.522V.413L17.43 0v7.013zM36.867 20.927q-.357.138-.88.275-.495.11-1.072.193-.55.11-1.128.165-.55.082-1.017.082-1.128 0-2.063-.275-.935-.247-1.595-.907-.66-.66-1.017-1.788-.358-1.155-.358-2.887V6.902h2.365v8.8q0 2.118.633 2.998.66.853 1.98.853.44 0 .88-.028.44-.055.907-.193V6.902h2.365v14.025zM41.143 7.315q1.017-.303 2.2-.495 1.182-.22 2.172-.22 1.073 0 1.953.302.88.275 1.485.963.632.687.962 1.87.358 1.155.358 2.888v8.717h-2.365v-8.525q0-2.145-.55-3.135-.55-.99-2.063-.99-.797 0-1.787.275V21.34h-2.365V7.315zM56.61 6.903h3.63v2.035h-3.63v7.947q0 1.485.522 2.09.55.578 1.457.578.468 0 .88-.138.44-.137.743-.33l.467 1.897q-1.127.66-2.392.66-2.035 0-3.053-1.127-.99-1.155-.99-3.795V3.025l2.365-.412v4.29zM72.155 20.927q-.357.138-.88.275-.495.11-1.072.193-.55.11-1.128.165-.55.082-1.017.082-1.128 0-2.063-.275-.935-.247-1.595-.907-.66-.66-1.017-1.788-.358-1.155-.358-2.887V6.902h2.365v8.8q0 2.118.633 2.998.66.853 1.98.853.44 0 .88-.028.44-.055.907-.193V6.902h2.365v14.025zM82.728 21.752q-3.355 0-5.142-2.502-1.788-2.502-1.788-7.727 0-2.668.495-4.51.523-1.843 1.43-2.998.908-1.155 2.145-1.65 1.238-.522 2.695-.522 1.21 0 2.255.33 1.045.302 1.705.77l-.742 2.062q-.66-.44-1.43-.715-.743-.275-1.733-.275-2.2 0-3.19 1.843-.99 1.815-.99 5.665 0 3.877 1.045 5.967t3.41 2.09q1.128 0 1.815-.275.715-.275 1.375-.715l.688 1.952q-.633.495-1.678.853-1.017.357-2.365.357zM98.32 14.135q0 1.705-.302 3.108-.303 1.375-.935 2.365-.605.99-1.568 1.54-.935.55-2.227.55-1.293 0-2.255-.55-.963-.55-1.595-1.54-.605-.99-.908-2.365-.302-1.403-.302-3.108 0-1.677.302-3.08.303-1.402.908-2.392.632-1.018 1.595-1.568.962-.55 2.255-.55 1.292 0 2.227.55.963.55 1.568 1.568.632.99.935 2.392.302 1.403.302 3.08zm-2.475 0q0-1.21-.137-2.2-.138-1.017-.44-1.732-.303-.743-.798-1.128-.495-.412-1.182-.412-.715 0-1.21.412-.468.385-.798 1.128-.302.715-.44 1.732-.137.99-.137 2.2 0 1.21.137 2.228.138.99.44 1.705.33.715.798 1.127.495.385 1.21.385.687 0 1.182-.385.495-.412.798-1.127.302-.715.44-1.705.137-1.018.137-2.228zM101.782 7.315q1.018-.303 2.2-.495 1.183-.22 2.173-.22 1.072 0 1.952.302.88.275 1.485.963.633.687.963 1.87.357 1.155.357 2.888v8.717h-2.365v-8.525q0-2.145-.55-3.135-.55-.99-2.062-.99-.798 0-1.788.275V21.34h-2.365V7.315zM121.264 9.075q-.798-.44-1.705-.44-.688 0-1.21.275-.523.275-.908.908-.357.632-.55 1.677-.192 1.045-.192 2.585 0 2.97.77 4.263.797 1.265 2.392 1.265.303 0 .66-.028.358-.055.743-.165V9.075zm0-8.662L123.629 0v20.955q-.77.33-1.76.522-.99.22-2.008.22-2.97 0-4.317-1.897-1.32-1.897-1.32-5.72 0-1.732.275-3.107.302-1.403.907-2.365.633-.99 1.595-1.513.963-.55 2.283-.55.632 0 1.072.138.468.11.908.33v-6.6zM129.508 14.823q.028 1.045.193 1.925.165.852.522 1.512.385.633.99.99.633.358 1.595.358.798 0 1.458-.22.687-.248.99-.413l.44 1.897q-.358.248-1.21.523-.825.302-1.98.302-1.513 0-2.558-.55-1.017-.55-1.677-1.54-.633-.99-.908-2.364-.275-1.375-.275-3.025 0-3.988 1.32-5.83 1.32-1.843 3.493-1.843 2.447 0 3.465 1.842 1.017 1.843 1.017 5.17v.633q0 .302-.027.632h-6.848zm2.393-6.27q-1.183 0-1.733 1.182-.522 1.183-.632 3.163h4.372q0-2.008-.412-3.163-.413-1.182-1.595-1.182zM139.863 7.315q1.018-.303 2.2-.495 1.183-.22 2.173-.22 1.072 0 1.952.302.88.275 1.485.963.633.687.963 1.87.357 1.155.357 2.888v8.717h-2.365v-8.525q0-2.145-.55-3.135-.55-.99-2.062-.99-.798 0-1.788.275V21.34h-2.365V7.315zM155.137 19.662q1.045 0 1.568-.577.55-.605.55-1.568 0-.605-.22-1.017-.22-.44-.578-.77-.357-.33-.825-.578-.467-.275-.935-.577-.467-.275-.907-.633-.44-.385-.798-.852-.33-.495-.55-1.1-.192-.633-.192-1.458 0-1.787 1.1-2.887 1.127-1.1 3.025-1.1.797 0 1.512.22.715.192 1.183.44l-.523 1.897q-.495-.275-.99-.412-.495-.138-1.072-.138-.88 0-1.403.523-.522.495-.522 1.457 0 .55.192.963.193.385.495.715.33.302.715.577.413.275.853.523.522.302 1.017.66.523.357.908.852.412.468.66 1.128.247.632.247 1.54 0 1.897-1.127 3.052-1.1 1.155-3.245 1.155-1.1 0-1.98-.302-.88-.303-1.32-.55l.495-1.953q.412.22 1.1.495.715.275 1.567.275zM164.152 14.823q.027 1.045.192 1.925.165.852.523 1.512.385.633.99.99.632.358 1.595.358.797 0 1.457-.22.688-.248.99-.413l.44 1.897q-.357.248-1.21.523-.825.302-1.98.302-1.512 0-2.557-.55-1.018-.55-1.678-1.54-.632-.99-.907-2.364-.275-1.375-.275-3.025 0-3.988 1.32-5.83 1.32-1.843 3.492-1.843 2.448 0 3.465 1.842 1.018 1.843 1.018 5.17v.633q0 .302-.028.632h-6.847zm2.392-6.27q-1.182 0-1.732 1.182-.523 1.183-.633 3.163h4.373q0-2.008-.413-3.163-.412-1.182-1.595-1.182zM180.722 9.075q-.798-.44-1.705-.44-.688 0-1.21.275-.523.275-.908.908-.357.632-.55 1.677-.192 1.045-.192 2.585 0 2.97.77 4.263.797 1.265 2.392 1.265.303 0 .66-.028.358-.055.743-.165V9.075zm0-8.662L183.087 0v20.955q-.77.33-1.76.522-.99.22-2.008.22-2.97 0-4.317-1.897-1.32-1.897-1.32-5.72 0-1.732.275-3.107.302-1.403.907-2.365.633-.99 1.595-1.513.963-.55 2.283-.55.632 0 1.072.138.468.11.908.33v-6.6zM202.23 21.34q-.66-1.623-1.513-3.493-.825-1.897-1.76-3.795-.907-1.925-1.87-3.795-.962-1.897-1.897-3.52V21.34h-2.31V2.282h2.062q1.045 1.705 2.008 3.493.99 1.787 1.87 3.547.88 1.733 1.65 3.438.797 1.677 1.457 3.19V2.282h2.31V21.34h-2.007zM210.29 14.823q.027 1.045.192 1.925.165.852.522 1.512.385.633.99.99.633.358 1.595.358.798 0 1.458-.22.687-.248.99-.413l.44 1.897q-.358.248-1.21.523-.825.302-1.98.302-1.513 0-2.558-.55-1.017-.55-1.677-1.54-.633-.99-.908-2.364-.275-1.375-.275-3.025 0-3.988 1.32-5.83 1.32-1.843 3.493-1.843 2.447 0 3.465 1.842 1.017 1.843 1.017 5.17v.633q0 .302-.027.632h-6.848zm2.392-6.27q-1.183 0-1.733 1.182-.522 1.183-.632 3.163h4.372q0-2.008-.412-3.163-.413-1.182-1.595-1.182zM226.887 9.047q-.88-.385-1.98-.385-1.017 0-1.897.358v12.32h-2.365V7.535q.797-.385 1.815-.632 1.045-.275 2.282-.275.66 0 1.32.082.66.083 1.238.303l-.413 2.035zM235.614 9.075q-.797-.44-1.705-.44-.687 0-1.21.275-.522.275-.907.908-.358.632-.55 1.677-.193 1.045-.193 2.585 0 2.97.77 4.263.798 1.265 2.393 1.265.302 0 .66-.028.357-.055.742-.165V9.075zm0-8.662L237.98 0v20.955q-.77.33-1.76.522-.99.22-2.007.22-2.97 0-4.318-1.897-1.32-1.897-1.32-5.72 0-1.732.275-3.107.303-1.403.908-2.365.632-.99 1.595-1.513.962-.55 2.282-.55.633 0 1.073.138.467.11.907.33v-6.6zM247.772 21.34V2.282h8.553V4.4h-6.078v5.995h5.39v2.062h-5.39v8.883h-2.475zM268.047 14.135q0 1.705-.303 3.108-.302 1.375-.935 2.365-.605.99-1.567 1.54-.935.55-2.228.55-1.292 0-2.255-.55-.962-.55-1.595-1.54-.605-.99-.907-2.365-.303-1.403-.303-3.108 0-1.677.303-3.08.302-1.402.907-2.392.633-1.018 1.595-1.568.963-.55 2.255-.55 1.293 0 2.228.55.962.55 1.567 1.568.633.99.935 2.392.303 1.403.303 3.08zm-2.475 0q0-1.21-.138-2.2-.137-1.017-.44-1.732-.302-.743-.797-1.128-.495-.412-1.183-.412-.715 0-1.21.412-.467.385-.797 1.128-.303.715-.44 1.732-.138.99-.138 2.2 0 1.21.138 2.228.137.99.44 1.705.33.715.797 1.127.495.385 1.21.385.688 0 1.183-.385.495-.412.797-1.127.303-.715.44-1.705.138-1.018.138-2.228zM271.509 7.315q1.017-.303 2.2-.495 1.182-.22 2.172-.22 1.073 0 1.953.302.88.275 1.485.963.632.687.962 1.87.358 1.155.358 2.888v8.717h-2.365v-8.525q0-2.145-.55-3.135-.55-.99-2.063-.99-.797 0-1.787.275V21.34h-2.365V7.315zM286.975 6.903h3.63v2.035h-3.63v7.947q0 1.485.523 2.09.55.578 1.457.578.468 0 .88-.138.44-.137.743-.33l.467 1.897q-1.127.66-2.392.66-2.035 0-3.053-1.127-.99-1.155-.99-3.795V3.025l2.365-.412v4.29z"/></g><g style="line-height:125%" font-size="17.5"><path d="M1.922 52.345q.455-.193.963-.298.507-.122 1.102-.122 1.225 0 1.995.77.77.752.77 2.362v6.09q-.63.175-1.295.28-.647.105-1.277.105-.63 0-1.19-.157-.543-.158-.963-.508-.402-.35-.647-.875-.245-.542-.245-1.312 0-.718.21-1.243.227-.542.612-.892.385-.368.91-.543.525-.192 1.138-.192.577 0 1.277.14v-.84q0-1.015-.402-1.418-.385-.402-1.12-.402-.403 0-.77.087-.35.07-.753.245l-.315-1.277zm.718 6.317q0 .805.42 1.19.42.385 1.19.385.472 0 1.032-.122v-2.923q-.525-.14-1.032-.14-.333 0-.63.088-.298.07-.525.262-.21.175-.333.49-.122.298-.122.77zM10.858 60.115q.245.07.472.105.228.017.42.017 1.015 0 1.505-.805.508-.822.508-2.712 0-.98-.123-1.645-.122-.665-.367-1.068-.228-.402-.56-.577-.333-.175-.77-.175-.578 0-1.085.28v6.58zm0-7.893q.28-.14.56-.21.297-.087.7-.087.857 0 1.47.35.612.332.997.962.385.613.56 1.505.193.875.193 1.978 0 2.432-.875 3.64-.858 1.207-2.713 1.207-.647 0-1.277-.14-.63-.122-1.12-.332V48.022l1.505-.262v4.462zM20.34 61.567q-.946 0-1.576-.367-.63-.368-1.032-.998-.385-.647-.56-1.522-.158-.875-.158-1.908 0-2.275.823-3.552.84-1.295 2.52-1.295.507 0 .91.122.402.123.752.315l-.385 1.243q-.542-.35-1.207-.35-.945 0-1.4.857-.438.858-.438 2.66 0 .753.088 1.4.087.63.297 1.085.228.455.578.718.367.262.927.262.385 0 .683-.087.315-.105.595-.263l.332 1.173q-.28.192-.752.35-.455.157-.998.157zM27.578 53.535q-.507-.28-1.085-.28-.437 0-.77.175-.332.175-.577.577-.228.403-.35 1.068-.123.665-.123 1.645 0 1.89.49 2.712.508.805 1.523.805.192 0 .42-.017.227-.035.472-.105v-6.58zm0-5.513l1.505-.262v13.335q-.49.21-1.12.332-.63.14-1.277.14-1.89 0-2.748-1.207-.84-1.208-.84-3.64 0-1.103.175-1.978.193-.892.578-1.505.402-.63 1.015-.962.612-.35 1.452-.35.403 0 .683.087.297.07.577.21v-4.2zM32.825 57.192q.017.665.122 1.225.105.543.333.963.245.402.63.63.402.227 1.015.227.507 0 .927-.14.438-.157.63-.262l.28 1.207q-.227.158-.77.333-.525.192-1.26.192-.962 0-1.627-.35-.648-.35-1.068-.98-.402-.63-.577-1.505-.175-.875-.175-1.925 0-2.537.84-3.71.84-1.172 2.222-1.172 1.558 0 2.205 1.172.648 1.173.648 3.29v.403q0 .192-.018.402h-4.357zm1.522-3.99q-.752 0-1.102.753-.333.752-.403 2.012h2.783q0-1.277-.263-2.012-.262-.753-1.015-.753zM42.092 47.76q.507 0 .892.105t.63.227l-.315 1.19q-.245-.122-.507-.175-.263-.07-.56-.07-.403 0-.665.14-.263.14-.403.385t-.192.595q-.053.333-.053.718v1.277h2.363v1.295h-2.363v7.893h-1.505V50.875q0-1.488.665-2.293.665-.822 2.013-.822zM50.07 61.077q0 .98-.263 1.645-.245.683-.683 1.103-.437.42-1.032.612-.578.193-1.243.193-.56 0-1.12-.123-.56-.122-1.032-.367l.315-1.26q.315.175.77.315t.945.14q.857 0 1.347-.49t.49-1.68v-.438q-.28.123-.595.21-.315.07-.717.07-1.645 0-2.415-1.12-.753-1.137-.753-3.202 0-1.103.193-1.978.21-.892.63-1.505.437-.63 1.12-.945.682-.332 1.662-.332.648 0 1.26.14.63.122 1.12.332v8.68zm-1.506-7.7q-.245-.07-.472-.087-.228-.035-.42-.035-1.05 0-1.54.805-.473.805-.473 2.625 0 1.645.473 2.327.472.665 1.347.665.298 0 .56-.07.28-.07.525-.192v-6.038zM52.778 61.34V48.022l1.505-.262v4.445q.333-.105.718-.175.402-.07.805-.07.577 0 1.085.192.507.175.875.613.385.437.595 1.19.227.735.227 1.837v5.548h-1.505v-5.425q0-1.365-.35-1.995-.35-.63-1.312-.63-.508 0-1.138.175v7.875h-1.505zM62.726 61.34H61.22v-9.188h1.505v9.188zm-.753-10.815q-.402 0-.7-.263-.28-.28-.28-.735 0-.455.28-.717.298-.28.7-.28.403 0 .683.28.297.262.297.717 0 .455-.297.735-.28.263-.683.263zM66.964 61.83q0 1.505-.665 2.152-.665.648-1.767.648-.578 0-1.033-.175l.21-1.278q.158.035.315.053.158.035.35.035.245 0 .438-.07.21-.053.35-.228.14-.175.21-.472.087-.298.087-.753v-9.59h1.505v9.678zm-.752-11.305q-.403 0-.7-.263-.28-.28-.28-.735 0-.455.28-.717.297-.28.7-.28.402 0 .682.28.298.262.298.717 0 .455-.298.735-.28.263-.682.263zM75.385 52.152q-.735 1.26-1.418 2.31-.665 1.033-1.33 1.943.42.49.858 1.102.437.613.84 1.278.402.647.752 1.312.35.648.595 1.243h-1.645q-.262-.578-.612-1.208t-.735-1.225q-.385-.612-.77-1.155-.385-.542-.718-.91v4.498h-1.505V48.022l1.505-.262v8.347q.315-.42.665-.945.368-.525.718-1.05.35-.542.665-1.05.315-.507.525-.91h1.61zM79.563 61.515q-1.295-.035-1.855-.63-.56-.613-.56-1.925V48.022l1.505-.262v11.235q0 .612.245.892.245.263.857.368l-.192 1.26zM81.42 52.415q.613-.193 1.33-.315.718-.14 1.313-.14.613 0 1.103.157.507.158.892.525.455-.297.98-.49.525-.192 1.155-.192t1.138.192q.525.175.892.613.368.437.578 1.19.21.735.21 1.837v5.548h-1.505v-5.425q0-1.365-.315-1.995-.315-.63-1.19-.63-.333 0-.683.122-.332.123-.63.333.14.402.21.91.07.507.07 1.137v5.548h-1.505v-5.425q0-1.365-.315-1.995-.315-.63-1.19-.63-.455 0-1.032.175v7.875H81.42v-8.925zM93.623 52.415q.648-.193 1.4-.315.753-.14 1.383-.14.682 0 1.242.192.56.175.945.613.403.437.613 1.19.227.735.227 1.837v5.548h-1.505v-5.425q0-1.365-.35-1.995-.35-.63-1.312-.63-.508 0-1.138.175v7.875h-1.505v-8.925zM107.963 56.755q0 1.085-.193 1.977-.192.875-.595 1.505-.385.63-.997.98-.595.35-1.418.35-.822 0-1.435-.35-.612-.35-1.015-.98-.385-.63-.577-1.505-.193-.892-.193-1.977 0-1.068.193-1.96.192-.893.577-1.523.403-.647 1.015-.997.613-.35 1.435-.35.823 0 1.418.35.612.35.997.997.403.63.595 1.523.193.892.193 1.96zm-1.575 0q0-.77-.088-1.4-.087-.648-.28-1.103-.192-.472-.507-.717-.315-.263-.753-.263-.455 0-.77.263-.297.245-.507.717-.193.455-.28 1.103-.088.63-.088 1.4 0 .77.088 1.417.087.63.28 1.085.21.455.507.718.315.245.77.245.438 0 .753-.245.315-.263.507-.718.193-.455.28-1.085.088-.647.088-1.417zM111.654 59.957q.507.28 1.085.28.437 0 .77-.175.332-.175.56-.577.245-.403.367-1.068.123-.665.123-1.645 0-1.89-.49-2.695-.473-.822-1.523-.822-.192 0-.42.035-.227.017-.472.087v6.58zm0 4.62h-1.505v-12.18q.49-.21 1.102-.332.63-.14 1.278-.14.962 0 1.645.332.7.333 1.12.963.437.612.63 1.522.21.893.21 2.048 0 2.327-.753 3.552-.735 1.225-2.415 1.225-.402 0-.717-.087-.315-.07-.595-.21v3.307zM122.29 53.377q-.245-.07-.473-.087-.227-.035-.42-.035-1.05 0-1.54.822-.472.805-.472 2.695 0 .98.122 1.645.123.665.35 1.068.245.402.578.577.332.175.77.175.577 0 1.085-.28v-6.58zm0 7.893q-.28.14-.595.21-.315.087-.718.087-1.68 0-2.432-1.225-.735-1.225-.735-3.552 0-1.155.192-2.048.21-.91.63-1.522.438-.63 1.12-.963.683-.332 1.663-.332.647 0 1.26.14.63.122 1.12.332v12.18h-1.505V61.27zM130.476 53.517q-.56-.245-1.26-.245-.647 0-1.207.228v7.84h-1.505v-8.785q.507-.245 1.155-.403.665-.175 1.452-.175.42 0 .84.053.42.052.788.192l-.263 1.295zM133.524 60.272q.665 0 .997-.367.35-.385.35-.998 0-.385-.14-.647-.14-.28-.367-.49-.228-.21-.525-.368-.298-.175-.595-.367-.298-.175-.578-.403-.28-.245-.507-.542-.21-.315-.35-.7-.123-.403-.123-.928 0-1.137.7-1.837.718-.7 1.925-.7.508 0 .963.14.455.122.752.28l-.332 1.207q-.315-.175-.63-.262-.315-.088-.683-.088-.56 0-.892.333-.333.315-.333.927 0 .35.123.613.122.245.315.455.21.192.455.367.262.175.542.333.333.192.648.42.332.227.577.542.263.298.42.718.158.402.158.98 0 1.207-.718 1.942-.7.735-2.065.735-.7 0-1.26-.192-.56-.193-.84-.35l.315-1.243q.263.14.7.315.455.175.998.175zM139.628 52.152h2.31v1.295h-2.31v5.058q0 .945.332 1.33.35.367.928.367.297 0 .56-.087.28-.088.472-.21l.298 1.207q-.718.42-1.523.42-1.295 0-1.942-.717-.63-.735-.63-2.415v-8.715l1.505-.263v2.73zM149.52 61.077q-.227.088-.56.175-.314.07-.682.123-.35.07-.717.105-.35.052-.648.052-.717 0-1.312-.175-.595-.157-1.015-.577-.42-.42-.648-1.138-.227-.735-.227-1.837v-5.653h1.505v5.6q0 1.348.402 1.908.42.542 1.26.542.28 0 .56-.017.28-.035.578-.123v-7.91h1.505v8.925zM154.376 59.572q.21-.7.438-1.645.245-.945.472-1.942.228-1.015.42-2.013.21-.997.35-1.82h1.505q-.227 1.155-.542 2.433-.298 1.277-.63 2.52-.315 1.225-.648 2.327-.332 1.103-.612 1.908h-1.558q-.28-.805-.612-1.908-.333-1.102-.665-2.327-.315-1.243-.63-2.52-.298-1.278-.525-2.433h1.592q.14.823.333 1.82.21.998.42 2.013.227.997.455 1.942.227.945.437 1.645zM162.04 61.34h-1.523q-.543-1.803-1.033-4.148-.472-2.345-.875-5.04h1.488q.07.753.21 1.768.14.997.297 2.065.175 1.05.35 2.047.175.98.333 1.68.157-.7.35-1.715.21-1.015.402-2.082.21-1.068.385-2.065.175-1.015.28-1.698h1.418q.07.683.21 1.68.157.998.315 2.083.175 1.067.35 2.082t.315 1.715q.157-.7.332-1.697.175-.998.333-2.048.175-1.05.315-2.047.14-1.015.21-1.768h1.435q-.403 2.695-.893 5.04-.472 2.345-1.015 4.148h-1.47q-.14-.543-.315-1.383l-.332-1.82q-.158-.962-.298-1.925-.14-.98-.245-1.785-.105.805-.28 1.785-.175.963-.367 1.925-.193.963-.385 1.82-.175.84-.298 1.383zM172.8 56.475q.297.542.612 1.155.333.612.648 1.242t.595 1.26q.28.63.49 1.208h-1.488q-.35-1.015-.822-1.925-.455-.928-.91-1.733-.438.805-.893 1.733-.437.91-.787 1.925h-1.435q.192-.578.472-1.19.298-.63.613-1.26t.63-1.225q.332-.613.63-1.155l-2.258-4.358h1.523l1.575 3.115 1.592-3.115h1.47l-2.257 4.323zM178.9 59.432q.507-1.75.927-3.517.42-1.768.805-3.763h1.488q-.263 1.278-.578 2.52-.297 1.243-.63 2.398-.315 1.155-.647 2.187-.315 1.015-.595 1.855-.333.98-.648 1.645-.297.683-.665 1.085-.35.42-.77.595-.42.193-.997.193-.315 0-.63-.088-.315-.07-.525-.157l.28-1.225q.455.192.857.192.508 0 .823-.367.315-.368.612-1.103l.175-.437q-.332-.91-.682-2.013-.333-1.12-.665-2.327-.315-1.208-.613-2.468-.297-1.277-.542-2.485h1.592q.14.823.333 1.803.192.98.402 1.96.228.98.455 1.907.228.91.438 1.61zM187.938 53.272q-.385.648-.875 1.54-.49.893-.98 1.838-.472.927-.91 1.837-.42.893-.682 1.558h3.57v1.295h-5.128v-1.085q.28-.77.718-1.715.437-.945.91-1.89.49-.945.945-1.785.472-.858.805-1.418h-3.168v-1.295h4.795v1.12zM5.65 71.087q.42 1.313.822 2.66.42 1.33.805 2.8.403 1.47.788 3.115.402 1.645.805 3.553H7.295q-.14-.788-.298-1.558-.14-.77-.297-1.54H2.885q-.175.77-.315 1.54t-.28 1.558H.767q.385-1.908.788-3.553.402-1.645.787-3.115.403-1.47.805-2.8.42-1.347.84-2.66H5.65zm-.858 1.785q-.437 1.453-.84 2.923-.402 1.47-.77 3.01h3.203q-.35-1.54-.753-3.01-.402-1.47-.84-2.923zM12.28 76.25h1.086q2.17 0 2.17-1.96 0-.613-.193-.998-.175-.402-.472-.612-.298-.228-.7-.315-.385-.088-.823-.088-.262 0-.542.018-.263.017-.525.052v3.903zm0 1.26v4.375q.333.052.648.087.333.035.648.035.49 0 .927-.105.438-.105.753-.35.332-.245.507-.665.193-.437.193-1.067 0-1.085-.595-1.698-.578-.612-1.82-.612h-1.26zm-1.574-6.248q.612-.14 1.242-.21.648-.087 1.278-.087.787 0 1.487.157.718.14 1.26.508.543.35.858.945.332.577.332 1.452 0 1.085-.455 1.785-.455.683-1.172 1.015.892.35 1.47 1.068.577.717.577 1.977 0 .945-.315 1.593-.297.647-.857 1.067-.56.403-1.348.595-.77.175-1.697.175-.613 0-1.278-.07t-1.382-.21v-11.76zM23.734 83.477q-2.135 0-3.272-1.592-1.138-1.593-1.138-4.918 0-1.697.315-2.87.333-1.172.91-1.907.578-.735 1.365-1.05.788-.333 1.715-.333.77 0 1.435.21.665.193 1.085.49l-.472 1.313q-.42-.28-.91-.455-.473-.175-1.103-.175-1.4 0-2.03 1.172-.63 1.155-.63 3.605 0 2.468.665 3.798t2.17 1.33q.718 0 1.155-.175.455-.175.875-.455l.438 1.242q-.403.315-1.068.543-.647.227-1.505.227zM35.682 77.142q0 1.698-.367 2.888-.35 1.172-1.033 1.907-.665.735-1.627 1.068-.945.332-2.118.332-1.19 0-2.52-.315v-11.76q.665-.14 1.295-.227.63-.088 1.208-.088 1.19 0 2.135.333.962.332 1.627 1.067.683.735 1.033 1.925.367 1.173.367 2.87zm-1.68 0q0-1.295-.192-2.205-.193-.91-.595-1.487-.403-.578-1.068-.84-.647-.263-1.557-.263-.245 0-.49.018-.245.017-.508.052v9.45q.263.035.508.053.245.017.472.017.928 0 1.575-.262.648-.263 1.05-.823.42-.577.613-1.487.192-.91.192-2.223zM38.118 83.215V71.087h5.442v1.348h-3.867v3.762h3.5v1.313h-3.5v4.357h4.147v1.348h-5.722zM46.082 83.215V71.087h5.442v1.348h-3.867v3.815h3.43v1.312h-3.43v5.653h-1.575zM52.854 77.142q0-1.715.315-2.922.315-1.208.893-1.96.595-.77 1.417-1.103.84-.35 1.873-.35.787 0 1.435.228.647.21 1.05.49l-.49 1.312q-.403-.28-.875-.455-.473-.192-1.085-.192-1.523 0-2.188 1.242-.665 1.225-.665 3.71 0 1.33.193 2.275.21.945.577 1.54.368.595.893.875t1.172.28q.543 0 .928-.122v-4.743h1.575v5.705q-.473.228-1.173.385-.7.158-1.47.158-.945 0-1.75-.368-.805-.385-1.4-1.155-.577-.787-.91-1.977-.315-1.208-.315-2.853zM68.121 71.087h1.575v12.128h-1.575V77.58h-3.99v5.635h-1.575V71.087h1.575v5.128h3.99v-5.128zM72.64 71.087h1.574v12.128H72.64V71.087zM81.21 79.995q0 .805-.174 1.452-.158.63-.525 1.085-.35.455-.945.7-.578.245-1.418.245-.665 0-1.277-.21-.613-.192-1.103-.56l.525-1.242q.298.227.788.437.507.193.98.193.367 0 .647-.088.298-.087.508-.315.21-.245.315-.647.105-.42.105-1.05v-8.908h1.575v8.908zM90.985 71.087q-.385.595-.875 1.313l-.98 1.487q-.507.753-1.032 1.488-.508.735-.98 1.365.525.525 1.137 1.33.613.787 1.208 1.68.595.875 1.12 1.785.525.91.84 1.68h-1.768q-.367-.805-.857-1.645-.473-.84-1.015-1.61-.525-.788-1.085-1.453-.543-.665-1.068-1.12v5.828h-1.575V71.087h1.575v5.355q.455-.577.963-1.312.507-.735.997-1.47.508-.735.945-1.4.438-.683.735-1.173h1.715zM98.486 81.867v1.348H93.08V71.087h1.575v10.78h3.832zM104.61 81.535q-.35-1.26-.717-2.415t-.717-2.17q-.333-1.033-.648-1.873-.315-.84-.577-1.47-.07.998-.123 2.205-.035 1.19-.087 2.45l-.07 2.538-.035 2.415h-1.505l.105-3.168q.052-1.61.122-3.15.088-1.557.175-3.027.105-1.47.228-2.783h1.557q.315.753.718 1.803.402 1.032.805 2.17.42 1.137.805 2.275.385 1.137.665 2.082.28-.945.647-2.082.368-1.138.77-2.275.403-1.138.788-2.17.402-1.05.717-1.803h1.558q.122 1.313.21 2.783.105 1.47.175 3.027.087 1.54.14 3.15l.105 3.168h-1.505q-.035-1.155-.07-2.433-.018-1.277-.07-2.555-.035-1.295-.088-2.502-.052-1.225-.122-2.24-.158.437-.403 1.102-.227.648-.49 1.418-.245.77-.525 1.592l-.507 1.558-.42 1.382q-.175.613-.28.998h-1.33zM119.058 83.215q-.42-1.033-.963-2.223-.525-1.207-1.12-2.415-.577-1.225-1.19-2.415-.612-1.207-1.207-2.24v9.293h-1.47V71.087h1.312q.665 1.085 1.278 2.223.63 1.137 1.19 2.257.56 1.103 1.05 2.188.507 1.067.927 2.03v-8.698h1.47v12.128h-1.277zM131.397 77.16q0 1.417-.263 2.59-.245 1.155-.787 1.995-.525.822-1.348 1.277-.805.455-1.907.455-1.103 0-1.925-.455-.805-.455-1.348-1.277-.525-.84-.787-1.995-.263-1.173-.263-2.59 0-1.418.263-2.59.262-1.173.787-1.995.543-.84 1.348-1.295.822-.473 1.925-.473 1.102 0 1.907.473.823.455 1.348 1.295.542.822.787 1.995.263 1.172.263 2.59zm-1.68 0q0-1.103-.14-2.013-.14-.91-.455-1.557-.315-.665-.823-1.033-.49-.367-1.207-.367-.718 0-1.225.367-.49.368-.805 1.033-.315.647-.473 1.557-.14.91-.14 2.013 0 1.102.14 2.012.158.91.473 1.558.315.647.805 1.015.507.35 1.225.35.717 0 1.207-.35.508-.368.823-1.015.315-.648.455-1.558t.14-2.012zM133.855 71.262q1.225-.297 2.398-.297.91 0 1.645.227.752.21 1.277.683.543.455.823 1.19.297.735.297 1.767 0 1.05-.297 1.803-.298.735-.84 1.207-.543.455-1.313.665-.752.21-1.68.21h-.735v4.498h-1.575V71.262zm1.575 6.073h.63q.595 0 1.068-.123.49-.14.822-.437.333-.298.508-.77.175-.473.175-1.173 0-.7-.175-1.172-.175-.49-.49-.77-.298-.298-.735-.42-.438-.123-.963-.123-.455 0-.84.053v4.935zM150.47 77.16q0 1.242-.21 2.292-.193 1.05-.596 1.855-.402.805-1.032 1.348-.63.525-1.47.717.035.735.787 1.138.753.42 1.943.63l-.368 1.225q-.7-.158-1.347-.35-.63-.193-1.155-.508-.508-.315-.875-.805-.35-.49-.508-1.26-.98-.105-1.697-.595-.7-.507-1.173-1.33-.472-.822-.7-1.925-.227-1.102-.227-2.432 0-1.418.262-2.59.263-1.173.788-1.995.542-.84 1.347-1.295.823-.473 1.925-.473 1.103 0 1.908.473.822.455 1.347 1.295.543.822.788 1.995.262 1.172.262 2.59zm-1.68 0q0-1.103-.14-2.013-.14-.91-.456-1.557-.315-.665-.822-1.033-.49-.367-1.208-.367-.717 0-1.225.367-.49.368-.805 1.033-.315.647-.472 1.557-.14.91-.14 2.013 0 1.102.14 2.012.157.91.472 1.558.315.647.805 1.015.508.35 1.225.35.718 0 1.208-.35.507-.368.822-1.015.315-.648.455-1.558t.14-2.012zM152.927 71.262q1.225-.297 2.363-.297.91 0 1.645.21t1.26.665q.525.455.805 1.172.297.718.297 1.733 0 1.26-.49 2.047-.472.77-1.295 1.173.21.35.525.962.333.595.665 1.33.35.718.665 1.488.333.77.56 1.47h-1.575q-.192-.525-.49-1.19-.28-.665-.595-1.313-.315-.665-.63-1.26-.315-.612-.56-1.032-.28.035-.577.052-.298.018-.595.018h-.438v4.725h-1.54V71.262zm1.54 5.933h.665q1.208 0 1.855-.543.648-.56.648-1.907 0-.683-.175-1.138-.158-.472-.473-.735-.297-.28-.735-.402-.42-.123-.945-.123-.455 0-.84.053v4.795zM163.422 82.13q.945 0 1.452-.525.525-.525.525-1.418 0-.472-.157-.84-.158-.367-.42-.665-.245-.297-.578-.542-.332-.245-.682-.49-.403-.28-.84-.595-.438-.315-.805-.735-.35-.42-.578-.98-.227-.56-.227-1.313 0-.735.245-1.33.262-.595.7-1.015.455-.42 1.067-.647.63-.228 1.348-.228.7 0 1.295.175t.997.42l-.49 1.243q-.367-.245-.805-.368-.42-.14-.892-.14-.858 0-1.383.473-.507.455-.507 1.347 0 .49.157.858.175.367.438.665.28.297.63.542.367.245.77.508.402.262.822.577.42.315.753.735.35.403.56.963.227.542.227 1.295 0 .682-.21 1.295-.21.612-.665 1.085-.437.455-1.12.735-.665.262-1.575.262-.84 0-1.47-.192-.63-.193-1.12-.508l.49-1.26q.455.28.928.455.49.158 1.12.158zM174.663 71.087v1.348h-2.695v10.78h-1.575v-10.78h-2.695v-1.348h6.965zM179.665 83.477q-1.698 0-2.555-.962-.84-.963-.84-3.045v-8.383h1.575v8.243q0 1.382.402 2.082.403.683 1.453.683 1.085 0 1.47-.7.402-.718.402-2.065v-8.243h1.575v8.383q0 2.047-.875 3.027t-2.607.98zM188.01 83.215q-.403-1.313-.806-2.643-.402-1.347-.805-2.817-.385-1.47-.77-3.098-.385-1.645-.77-3.57h1.645q.228 1.348.508 2.713.28 1.347.595 2.66.315 1.312.63 2.555.332 1.225.647 2.327.315-1.102.63-2.327.333-1.243.648-2.555.315-1.313.595-2.66.28-1.365.507-2.713h1.593q-.385 1.925-.77 3.57-.385 1.628-.788 3.098-.385 1.47-.787 2.817-.403 1.33-.805 2.643h-1.698zM200.884 72.522q.228 1.05.49 2.223.263 1.172.543 2.327.297 1.155.595 2.24.297 1.085.56 1.978.21-.98.402-2.17.193-1.208.368-2.52.192-1.313.35-2.713.157-1.4.262-2.8h1.54q-.402 3.518-.91 6.475-.49 2.958-1.155 5.653h-1.592q-.263-.858-.578-1.908-.297-1.05-.595-2.17-.297-1.137-.577-2.292-.28-1.155-.508-2.24-.227 1.085-.507 2.24-.28 1.155-.578 2.292-.297 1.12-.612 2.17-.298 1.05-.56 1.908h-1.593q-.665-2.695-1.172-5.653-.49-2.957-.893-6.475h1.593q.105 1.4.262 2.8.158 1.383.333 2.713.192 1.312.385 2.52.192 1.19.402 2.17.263-.893.56-1.978.298-1.085.578-2.24.297-1.155.56-2.327.262-1.173.49-2.223h1.557zM210.89 75.532l2.082-4.445h1.575l-2.765 5.635q.367.788.77 1.645.42.84.805 1.698.402.84.752 1.645t.613 1.505h-1.558q-.192-.525-.455-1.138-.245-.63-.56-1.277-.297-.648-.63-1.313-.315-.682-.63-1.312-.315.63-.647 1.312-.333.665-.63 1.313-.298.647-.56 1.277-.245.613-.42 1.138h-1.523q.245-.683.595-1.47.35-.788.735-1.61l.77-1.68q.403-.84.77-1.61l-2.8-5.758h1.61l2.1 4.445zM223.213 71.087q-.297.823-.665 1.75-.35.928-.752 1.89-.403.945-.823 1.89-.42.945-.84 1.803v4.795h-1.575v-4.69q-.42-.858-.857-1.82-.438-.963-.84-1.925-.403-.963-.77-1.908-.368-.945-.665-1.785h1.697q.455 1.383 1.033 2.923.577 1.54 1.19 2.87.612-1.33 1.19-2.87.577-1.54 1.032-2.923h1.645zM230.196 72.33q-.525.927-1.172 2.187-.648 1.243-1.295 2.573-.63 1.312-1.208 2.572-.56 1.26-.927 2.205h4.725v1.348h-6.405v-.963q.262-.7.612-1.54.35-.84.753-1.732.402-.91.822-1.82.438-.91.858-1.768l.822-1.61q.403-.77.735-1.347h-4.375v-1.348h6.055v1.243zM7.68 100.505q0 1.085-.193 1.977-.192.875-.595 1.505-.385.63-.997.98-.595.35-1.418.35-.822 0-1.435-.35-.612-.35-1.015-.98-.385-.63-.577-1.505-.193-.892-.193-1.977 0-1.068.193-1.96.192-.893.577-1.523.403-.647 1.015-.997.613-.35 1.435-.35.823 0 1.418.35.612.35.997.997.403.63.595 1.523.193.892.193 1.96zm-1.575 0q0-.77-.088-1.4-.087-.648-.28-1.103-.192-.472-.507-.717-.315-.263-.753-.263-.455 0-.77.263-.297.245-.507.717-.193.455-.28 1.103-.088.63-.088 1.4 0 .77.088 1.417.087.63.28 1.085.21.455.507.718.315.245.77.245.438 0 .753-.245.315-.263.507-.718.193-.455.28-1.085.088-.647.088-1.417zM18.125 99.035q0 1.417-.262 2.59-.245 1.155-.788 1.995-.525.822-1.347 1.277-.805.455-1.908.455-1.102 0-1.925-.455-.805-.455-1.347-1.277-.525-.84-.788-1.995-.262-1.173-.262-2.59 0-1.418.262-2.59.263-1.173.788-1.995.542-.84 1.347-1.295.823-.473 1.925-.473 1.103 0 1.908.473.822.455 1.347 1.295.543.822.788 1.995.262 1.172.262 2.59zm-1.68 0q0-1.103-.14-2.013-.14-.91-.455-1.557-.315-.665-.822-1.033-.49-.367-1.208-.367-.717 0-1.225.367-.49.368-.805 1.033-.315.647-.472 1.557-.14.91-.14 2.013 0 1.102.14 2.012.157.91.472 1.558.315.647.805 1.015.508.35 1.225.35.718 0 1.208-.35.507-.368.822-1.015.315-.648.455-1.558t.14-2.012zM20.024 99.017q0-1.785.157-2.992.158-1.225.508-1.96.35-.735.875-1.05.542-.333 1.312-.333.753 0 1.295.333.543.315.893 1.05.35.735.507 1.96.158 1.207.158 2.992t-.158 3.01q-.157 1.208-.507 1.943-.35.735-.893 1.067-.542.315-1.295.315-.77 0-1.312-.315-.525-.332-.875-1.067-.35-.735-.508-1.943-.157-1.225-.157-3.01zm4.13 0q0-1.435-.07-2.397-.07-.963-.228-1.54-.14-.578-.385-.823t-.595-.245q-.35 0-.595.245t-.402.823q-.14.577-.21 1.54-.07.962-.07 2.397 0 1.435.07 2.398.07.962.21 1.54.157.577.402.822.245.245.595.245t.595-.245q.245-.245.385-.822.158-.578.228-1.54.07-.963.07-2.398zM33.16 95.64q0 1.015-.507 1.855-.49.822-1.155 1.435.735.542 1.278 1.312.542.753.542 1.803 0 .822-.262 1.452-.245.613-.665 1.033-.403.402-.928.612-.525.21-1.085.21-.647 0-1.19-.245-.542-.227-.927-.63-.385-.42-.595-.997-.21-.578-.21-1.26 0-1.085.472-1.925.49-.858 1.295-1.505-.665-.508-1.085-1.278-.42-.787-.42-1.837 0-.788.245-1.348.245-.577.63-.945.403-.367.893-.525.49-.175.997-.175.49 0 .963.175.49.158.875.525.385.35.612.91.228.56.228 1.348zm-1.312 6.51q0-.455-.157-.84-.14-.403-.385-.735-.245-.35-.56-.63-.298-.28-.63-.525-.508.472-.84 1.102-.333.63-.333 1.575t.385 1.523q.403.56 1.085.56.578 0 .998-.508.437-.525.437-1.522zm-2.66-6.668q0 .56.088.998.087.42.262.752.175.315.42.578.263.262.595.49.49-.508.788-1.068.315-.577.315-1.487 0-1.068-.35-1.47-.35-.42-.858-.42-.192 0-.42.07-.227.07-.42.262-.175.175-.297.49-.123.315-.123.805zM40.44 105.09h-1.504v-9.188h1.505v9.188zm-.752-10.815q-.402 0-.7-.263-.28-.28-.28-.735 0-.455.28-.717.298-.28.7-.28.403 0 .683.28.297.262.297.717 0 .455-.297.735-.28.263-.683.263zM43.279 92.962h1.575v12.128h-1.575V92.962zM50.066 105.265q-1.295-.035-1.855-.63-.56-.613-.56-1.925V91.772l1.505-.262v11.235q0 .612.245.892.245.263.857.368l-.192 1.26zM57.436 103.742v1.348H52.03V92.962h1.575v10.78h3.832zM59.098 95.377q.333-.192.683-.472.367-.28.7-.595.332-.333.612-.665.298-.35.49-.683h1.155v12.128h-1.505v-9.748q-.297.315-.7.595-.385.28-.822.525l-.613-1.085zM69.458 99.28q.578-.07.858-.613.28-.56.28-1.54v-3.01q0-1.505.7-2.117.717-.613 2.065-.613v1.173q-.735 0-1.033.385-.297.367-.297 1.155v2.992q0 2.048-1.208 2.765 1.208.718 1.208 2.765v2.993q0 .787.297 1.155.298.385 1.033.385v1.172q-1.348 0-2.065-.612-.7-.613-.7-2.118v-3.01q0-.98-.28-1.522-.28-.56-.858-.63V99.28zM78.697 100.435q-.577.07-.857.63-.28.542-.28 1.522v3.01q0 1.505-.718 2.118-.7.612-2.047.612v-1.172q.735 0 1.032-.385.298-.368.298-1.155v-2.993q0-2.047 1.207-2.765-1.207-.717-1.207-2.765V94.1q0-.788-.298-1.155-.297-.385-1.032-.385v-1.173q1.347 0 2.047.613.718.612.718 2.117v3.01q0 .98.28 1.54.28.543.857.613v1.155zM84.401 91.387h3.168v1.19h-1.733v14.56h1.733v1.19H84.4v-16.94zM92.352 108.327h-3.168v-1.19h1.733v-14.56h-1.733v-1.19h3.168v16.94zM104.244 104.827q0 .98-.262 1.645-.245.683-.683 1.103-.437.42-1.032.612-.578.193-1.243.193-.56 0-1.12-.123-.56-.122-1.032-.367l.315-1.26q.315.175.77.315t.945.14q.857 0 1.347-.49t.49-1.68v-.438q-.28.123-.595.21-.315.07-.717.07-1.645 0-2.415-1.12-.753-1.137-.753-3.202 0-1.103.193-1.978.21-.892.63-1.505.437-.63 1.12-.945.682-.332 1.662-.332.648 0 1.26.14.63.122 1.12.332v8.68zm-1.505-7.7q-.245-.07-.472-.087-.228-.035-.42-.035-1.05 0-1.54.805-.473.805-.473 2.625 0 1.645.473 2.327.472.665 1.347.665.298 0 .56-.07.28-.07.525-.192v-6.038zM107.11 103.847q.666-.07 1.226-.262.577-.21 1.015-.63.437-.42.735-1.103.315-.7.455-1.75-.683.28-1.278.28-1.26 0-1.977-.98-.7-.997-.7-2.73 0-1.855.647-2.922.665-1.068 2.083-1.068.717 0 1.26.28.542.28.892.928.368.63.543 1.68.192 1.032.192 2.537 0 1.33-.262 2.573-.245 1.242-.823 2.222-.577.963-1.522 1.575-.945.595-2.328.648l-.157-1.278zm2.52-4.69q.526 0 1.033-.315v-.42q.018-.227.018-.472 0-.805-.035-1.523-.035-.735-.175-1.277-.14-.56-.42-.875-.263-.333-.718-.333-.682 0-.962.735-.263.718-.263 1.925 0 1.313.368 1.943.385.612 1.155.612zM118.428 97.127q-.245-.07-.473-.087-.227-.035-.42-.035-1.05 0-1.54.822-.472.805-.472 2.695 0 .98.122 1.645.123.665.35 1.068.245.402.578.577.332.175.77.175.577 0 1.085-.28v-6.58zm0 7.893q-.28.14-.595.21-.315.087-.718.087-1.68 0-2.432-1.225-.735-1.225-.735-3.552 0-1.155.192-2.048.21-.91.63-1.522.438-.63 1.12-.963.683-.332 1.663-.332.647 0 1.26.14.63.122 1.12.332v12.18h-1.505v-3.307zM126.65 105.352q-2.136 0-3.273-1.592-1.138-1.593-1.138-4.918 0-1.697.315-2.87.333-1.172.91-1.907.578-.735 1.365-1.05.788-.333 1.715-.333.77 0 1.435.21.665.193 1.085.49l-.472 1.313q-.42-.28-.91-.455-.473-.175-1.103-.175-1.4 0-2.03 1.172-.63 1.155-.63 3.605 0 2.468.665 3.798t2.17 1.33q.718 0 1.155-.175.455-.175.875-.455l.438 1.242q-.403.315-1.068.543-.647.227-1.505.227zM130.271 99.017q0-1.715.315-2.922.315-1.208.893-1.96.595-.77 1.417-1.103.84-.35 1.873-.35.787 0 1.435.228.647.21 1.05.49l-.49 1.312q-.403-.28-.875-.455-.473-.192-1.085-.192-1.523 0-2.188 1.242-.665 1.225-.665 3.71 0 1.33.193 2.275.21.945.577 1.54.368.595.893.875t1.172.28q.543 0 .928-.122v-4.743h1.575v5.705q-.473.228-1.173.385-.7.158-1.47.158-.945 0-1.75-.368-.805-.385-1.4-1.155-.577-.787-.91-1.977-.315-1.208-.315-2.853zM148.11 99.035q0 1.242-.21 2.292-.192 1.05-.594 1.855-.403.805-1.033 1.348-.63.525-1.47.717.035.735.788 1.138.752.42 1.942.63l-.367 1.225q-.7-.158-1.348-.35-.63-.193-1.155-.508-.507-.315-.875-.805-.35-.49-.507-1.26-.98-.105-1.698-.595-.7-.507-1.172-1.33-.473-.822-.7-1.925-.228-1.102-.228-2.432 0-1.418.263-2.59.262-1.173.787-1.995.543-.84 1.348-1.295.822-.473 1.925-.473 1.102 0 1.907.473.823.455 1.348 1.295.542.822.787 1.995.263 1.172.263 2.59zm-1.68 0q0-1.103-.14-2.013-.14-.91-.454-1.557-.315-.665-.823-1.033-.49-.367-1.207-.367-.718 0-1.225.367-.49.368-.805 1.033-.315.647-.473 1.557-.14.91-.14 2.013 0 1.102.14 2.012.158.91.473 1.558.315.647.805 1.015.507.35 1.225.35.717 0 1.207-.35.508-.368.823-1.015.315-.648.455-1.558t.14-2.012zM154.967 98.51q.472 0 .84.21.367.192.665.455.315.245.577.455.28.192.578.192.42 0 .612-.35.193-.35.333-.91l1.032.315q-.052.385-.192.805-.123.403-.368.735-.227.333-.595.56-.35.21-.875.21-.472 0-.84-.192-.35-.21-.665-.455-.297-.263-.577-.455-.28-.21-.56-.21-.368 0-.595.35-.21.35-.35.91l-1.033-.315q.053-.385.175-.788.14-.42.368-.752.245-.333.595-.543.367-.227.875-.227zM160.456 99.14h3.238v1.417h-3.238V99.14zM164.856 99.21h2.363v-2.52h1.295v2.52h2.362v1.277h-2.362v2.538h-1.295v-2.538h-2.363V99.21zM172.376 97.53h6.02v1.277h-6.02V97.53zm0 3.377h6.02v1.278h-6.02v-1.278zM180.595 103.707l-.647-1.137 4.462-2.625-4.462-2.625.647-1.138 5.268 3.22v1.085l-5.268 3.22z"/></g></g></svg>