<?xml version="1.0" encoding="UTF-8" standalone="no"?>
<svg
   version="1.1"
   id="svg2"
   viewBox="0 0 304.69973 108.37999"
   height="30.58724mm"
   width="85.993034mm"
   sodipodi:docname="UbuntuSansMono NF.svg"
   xmlns:inkscape="http://www.inkscape.org/namespaces/inkscape"
   xmlns:sodipodi="http://sodipodi.sourceforge.net/DTD/sodipodi-0.dtd"
   xmlns="http://www.w3.org/2000/svg"
   xmlns:svg="http://www.w3.org/2000/svg"
   xmlns:rdf="http://www.w3.org/1999/02/22-rdf-syntax-ns#"
   xmlns:cc="http://creativecommons.org/ns#"
   xmlns:dc="http://purl.org/dc/elements/1.1/">
  <sodipodi:namedview
     id="namedview12"
     pagecolor="#ffffff"
     bordercolor="#666666"
     borderopacity="1.0"
     inkscape:showpageshadow="2"
     inkscape:pageopacity="0.0"
     inkscape:pagecheckerboard="0"
     inkscape:deskcolor="#d1d1d1"
     inkscape:document-units="mm" />
  <defs
     id="defs4" />
  <metadata
     id="metadata7">
    <rdf:RDF>
      <cc:Work
         rdf:about="">
        <dc:format>image/svg+xml</dc:format>
        <dc:type
           rdf:resource="http://purl.org/dc/dcmitype/StillImage" />
        <dc:title />
      </cc:Work>
    </rdf:RDF>
  </metadata>
  <g
     id="layer1"
     transform="translate(-64.424643,-79.593632)">
    <g
       aria-label="UbuntuSans Nerd Font"
       id="text4136"
       style="font-size:27.5px;font-family:'UbuntuSansMono NF';letter-spacing:0px;word-spacing:0px;fill:#ffffff">
      <path
         d="M 70.584643,101.34613 Q 67.312143,101.34613 65.854643,99.503632 64.424643,97.633632 64.424643,94.471132 V 81.876132 H 66.569643 V 94.168632 Q 66.569643,96.203632 67.064643,97.358632 67.587143,98.513632 68.494643,99.008632 69.402143,99.476132 70.557143,99.476132 71.739643,99.476132 72.619643,99.008632 73.527143,98.541132 74.022143,97.386132 74.544643,96.231132 74.544643,94.196132 V 81.876132 H 76.689643 V 94.471132 Q 76.689643,97.633632 75.259643,99.503632 73.857143,101.34613 70.584643,101.34613 Z"
         id="path14" />
      <path
         d="M 85.544629,101.26363 Q 83.784629,101.26363 82.519629,100.98863 81.282129,100.74113 80.539629,100.52113 V 79.978632 L 82.712129,79.593632 V 87.266132 Q 83.097129,87.018632 84.004629,86.688632 84.912129,86.358632 86.094629,86.358632 88.019629,86.358632 89.422129,87.321132 90.824629,88.256132 91.567129,89.933632 92.337129,91.611132 92.337129,93.811132 92.337129,96.121132 91.457129,97.798632 90.604629,99.448632 89.064629,100.35613 87.552129,101.26363 85.544629,101.26363 Z M 85.159629,99.338632 Q 87.442129,99.338632 88.762129,97.936132 90.082129,96.506132 90.082129,93.838632 90.082129,92.298632 89.669629,91.061132 89.257129,89.796132 88.322129,89.053632 87.414629,88.311132 85.929629,88.311132 84.994629,88.311132 84.059629,88.723632 83.152129,89.108632 82.712129,89.548632 V 98.953632 Q 84.004629,99.338632 85.159629,99.338632 Z"
         id="path16" />
      <path
         d="M 101.46711,101.23613 Q 99.404614,101.23613 98.167114,100.41113 96.929614,99.586132 96.379614,98.128632 95.829614,96.643632 95.829614,94.746132 V 86.688632 H 97.974614 V 94.141132 Q 97.974614,96.973632 98.854614,98.128632 99.734614,99.283632 101.71461,99.283632 102.67711,99.283632 103.55711,99.173632 104.43711,99.063632 104.62961,98.981132 V 86.688632 H 106.77461 V 100.54863 Q 106.00461,100.74113 104.65711,100.98863 103.33711,101.23613 101.46711,101.23613 Z"
         id="path18" />
      <path
         d="M 111.3396,100.93363 V 87.073632 Q 112.7971,86.688632 114.1446,86.551132 115.4921,86.386132 116.5096,86.386132 118.2971,86.386132 119.5896,86.991132 120.8821,87.568632 121.5696,88.916132 122.2846,90.236132 122.2846,92.491132 V 100.93363 H 120.1396 V 92.931132 Q 120.1396,90.951132 119.6446,89.988632 119.1496,88.998632 118.2971,88.668632 117.4721,88.338632 116.4271,88.338632 114.9971,88.338632 113.4846,88.641132 V 100.93363 Z"
         id="path20" />
      <path
         d="M 134.71458,101.26363 Q 132.48708,101.26363 131.38708,100.54863 130.28708,99.806132 129.92958,98.486132 129.57208,97.166132 129.57208,95.406132 V 88.531132 H 126.65708 V 86.688632 H 129.57208 V 82.591132 L 131.71708,82.206132 V 86.688632 H 137.76708 V 88.531132 H 131.71708 V 95.433632 Q 131.71708,96.946132 132.01958,97.798632 132.32208,98.623632 133.00958,98.953632 133.72458,99.283632 134.90708,99.283632 136.00708,99.283632 136.63958,99.091132 137.29958,98.871132 137.79458,98.651132 L 138.12458,100.46613 Q 137.90458,100.57613 137.02458,100.93363 136.14458,101.26363 134.71458,101.26363 Z"
         id="path22" />
      <path
         d="M 147.66707,101.23613 Q 145.60457,101.23613 144.36707,100.41113 143.12957,99.586132 142.57957,98.128632 142.02957,96.643632 142.02957,94.746132 V 86.688632 H 144.17457 V 94.141132 Q 144.17457,96.973632 145.05457,98.128632 145.93457,99.283632 147.91457,99.283632 148.87707,99.283632 149.75707,99.173632 150.63707,99.063632 150.82957,98.981132 V 86.688632 H 152.97457 V 100.54863 Q 152.20457,100.74113 150.85707,100.98863 149.53707,101.23613 147.66707,101.23613 Z"
         id="path24" />
      <path
         d="M 162.48955,101.34613 Q 161.16955,101.34613 160.06955,101.09863 158.99705,100.87863 158.22705,100.57613 157.45705,100.24613 157.09955,100.02613 L 157.78705,98.238632 Q 158.30955,98.541132 159.51955,99.008632 160.75705,99.448632 162.48955,99.448632 164.41455,99.448632 165.54205,98.706132 166.69705,97.936132 166.69705,96.341132 166.69705,95.021132 166.03705,94.223632 165.37705,93.398632 164.33205,92.848632 163.31455,92.298632 162.18705,91.858632 160.92205,91.336132 159.87705,90.676132 158.83205,89.988632 158.19955,89.026132 157.59455,88.036132 157.59455,86.633632 157.59455,84.186132 159.10705,82.811132 160.64705,81.436132 163.39705,81.436132 164.93705,81.436132 166.25705,81.793632 167.60455,82.123632 168.18205,82.591132 L 167.46705,84.461132 Q 166.86205,84.103632 165.73455,83.718632 164.63455,83.333632 163.31455,83.333632 162.40705,83.333632 161.58205,83.663632 160.78455,83.993632 160.26205,84.653632 159.73955,85.286132 159.73955,86.248632 159.73955,87.403632 160.23455,88.118632 160.72955,88.833632 161.60955,89.328632 162.51705,89.823632 163.64455,90.346132 165.29455,91.061132 166.44955,91.776132 167.60455,92.491132 168.20955,93.536132 168.81455,94.553632 168.81455,96.258632 168.81455,98.678632 167.13705,100.02613 165.48705,101.34613 162.48955,101.34613 Z"
         id="path26" />
      <path
         d="M 178.74204,101.26363 Q 177.64204,101.26363 176.54204,101.07113 175.46954,100.90613 174.56204,100.41113 173.68204,99.916132 173.13204,99.036132 172.58204,98.128632 172.58204,96.726132 172.58204,95.103632 173.48954,94.141132 174.39704,93.178632 175.79954,92.766132 177.20204,92.326132 178.68704,92.326132 179.48454,92.326132 180.22704,92.436132 180.99704,92.518632 181.71204,92.683632 V 91.913632 Q 181.71204,91.006132 181.43704,90.153632 181.18954,89.301132 180.41954,88.751132 179.67704,88.201132 178.19204,88.201132 176.81704,88.201132 175.79954,88.421132 174.80954,88.613632 174.34204,88.806132 L 174.09454,86.963632 Q 174.56204,86.743632 175.74454,86.551132 176.92704,86.358632 178.32954,86.358632 180.41954,86.358632 181.62954,87.046132 182.83954,87.733632 183.36204,88.943632 183.88454,90.126132 183.88454,91.693632 V 100.71363 Q 182.94954,100.87863 181.54704,101.07113 180.14454,101.26363 178.74204,101.26363 Z M 178.57704,99.393632 Q 179.62204,99.393632 180.41954,99.311132 181.24454,99.228632 181.71204,99.118632 V 94.608632 Q 181.21704,94.443632 180.44704,94.333632 179.70454,94.196132 178.85204,94.196132 177.88954,94.196132 176.95454,94.416132 176.01954,94.636132 175.41454,95.186132 174.80954,95.736132 174.80954,96.726132 174.80954,98.238632 175.79954,98.816132 176.81704,99.393632 178.57704,99.393632 Z"
         id="path28" />
      <path
         d="M 188.33953,100.93363 V 87.073632 Q 189.79703,86.688632 191.14453,86.551132 192.49203,86.386132 193.50953,86.386132 195.29703,86.386132 196.58953,86.991132 197.88203,87.568632 198.56953,88.916132 199.28453,90.236132 199.28453,92.491132 V 100.93363 H 197.13953 V 92.931132 Q 197.13953,90.951132 196.64453,89.988632 196.14953,88.998632 195.29703,88.668632 194.47203,88.338632 193.42703,88.338632 191.99703,88.338632 190.48453,88.641132 V 100.93363 Z"
         id="path30" />
      <path
         d="M 208.57951,101.26363 Q 207.23201,101.26363 206.02201,101.04363 204.81201,100.85113 203.60201,100.32863 L 204.06951,98.293632 Q 205.14201,98.816132 206.32451,99.118632 207.53451,99.421132 208.90951,99.421132 212.53951,99.421132 212.53951,97.441132 212.53951,96.698632 211.96201,96.203632 211.41201,95.681132 210.50451,95.296132 209.62451,94.911132 208.60701,94.581132 207.45201,94.168632 206.35201,93.646132 205.27951,93.123632 204.56451,92.326132 203.84951,91.528632 203.84951,90.263632 203.84951,88.558632 205.22451,87.458632 206.62701,86.358632 209.54201,86.358632 210.66951,86.358632 211.90701,86.523632 213.14451,86.688632 213.99701,86.908632 L 213.61201,88.916132 Q 213.28201,88.696132 212.59451,88.558632 211.93451,88.393632 211.13701,88.311132 210.33951,88.201132 209.56951,88.201132 207.80951,88.201132 206.87451,88.668632 205.96701,89.136132 205.96701,90.236132 205.96701,90.813632 206.43451,91.253632 206.90201,91.666132 207.67201,91.996132 208.44201,92.298632 209.34951,92.628632 210.28451,92.986132 211.21951,93.398632 212.18201,93.783632 212.97951,94.306132 213.77701,94.828632 214.24451,95.571132 214.73951,96.286132 214.73951,97.276132 214.73951,99.283632 213.22701,100.27363 211.71451,101.26363 208.57951,101.26363 Z"
         id="path32" />
      <path
         d="M 234.04448,100.93363 V 81.876132 H 236.49198 Q 237.61948,83.938632 238.41698,85.506132 239.24198,87.046132 239.90198,88.366132 240.56198,89.658632 241.16698,90.978632 241.77198,92.271132 242.40448,93.811132 243.06448,95.351132 243.88948,97.413632 V 81.876132 H 245.86948 V 100.93363 H 243.42198 Q 242.26698,98.073632 241.27698,95.846132 240.28698,93.591132 239.40698,91.748632 238.52698,89.878632 237.67448,88.256132 236.84948,86.606132 236.02448,84.956132 V 100.93363 Z"
         id="path34" />
      <path
         d="M 256.23696,101.26363 Q 253.73446,101.26363 252.11196,100.27363 250.51696,99.256132 249.74696,97.551132 248.97696,95.846132 248.97696,93.811132 248.97696,91.913632 249.55446,90.511132 250.13196,89.108632 251.09446,88.201132 252.08446,87.266132 253.26696,86.826132 254.44946,86.358632 255.68696,86.358632 258.46446,86.358632 260.03196,88.146132 261.59946,89.906132 261.59946,93.591132 V 94.333632 H 251.12196 Q 251.58946,99.283632 256.56696,99.283632 257.96946,99.283632 258.90446,99.063632 259.83946,98.843632 260.25196,98.651132 L 260.55446,100.46613 Q 260.22446,100.71363 258.98696,100.98863 257.77696,101.26363 256.23696,101.26363 Z M 251.20446,92.436132 H 259.31696 Q 259.31696,90.428632 258.27196,89.328632 257.22696,88.201132 255.63196,88.201132 254.39446,88.201132 253.43196,88.833632 252.49696,89.438632 251.91946,90.428632 251.34196,91.391132 251.20446,92.436132 Z"
         id="path36" />
      <path
         d="M 266.52196,100.93363 V 87.403632 Q 268.08946,86.908632 269.65696,86.633632 271.25196,86.358632 272.73696,86.358632 273.80946,86.358632 274.55196,86.441132 275.29446,86.496132 276.36696,86.716132 L 275.98196,88.558632 Q 274.93696,88.256132 274.27696,88.228632 273.61696,88.173632 272.68196,88.173632 270.64696,88.173632 268.66696,88.751132 V 100.93363 Z"
         id="path38" />
      <path
         d="M 286.62444,101.26363 Q 284.64444,101.26363 283.10444,100.35613 281.56444,99.448632 280.68444,97.771132 279.80444,96.093632 279.80444,93.783632 279.80444,91.611132 280.57444,89.961132 281.34444,88.283632 282.74694,87.321132 284.14944,86.358632 286.04694,86.358632 287.28444,86.358632 288.16444,86.661132 289.07194,86.963632 289.48444,87.266132 V 79.978632 L 291.62944,79.593632 V 100.52113 Q 290.88694,100.74113 289.64944,100.98863 288.41194,101.26363 286.62444,101.26363 Z M 286.59694,99.256132 Q 287.69694,99.256132 288.43944,99.173632 289.20944,99.063632 289.48444,98.953632 V 89.548632 Q 289.04444,89.108632 288.13694,88.723632 287.22944,88.311132 286.23944,88.311132 284.75444,88.311132 283.81944,89.053632 282.91194,89.796132 282.47194,91.061132 282.05944,92.298632 282.05944,93.838632 282.05944,96.506132 283.35194,97.881132 284.67194,99.256132 286.59694,99.256132 Z"
         id="path40" />
      <path
         d="M 312.30941,100.93363 V 81.876132 H 322.86941 V 83.718632 H 314.48191 V 90.071132 H 321.87941 V 91.913632 H 314.48191 V 100.93363 Z"
         id="path42" />
      <path
         d="M 332.30189,101.23613 Q 330.48689,101.23613 329.05689,100.32863 327.65439,99.393632 326.82939,97.743632 326.00439,96.066132 326.00439,93.811132 326.00439,91.556132 326.80189,89.906132 327.62689,88.228632 329.05689,87.293632 330.48689,86.358632 332.30189,86.358632 334.17189,86.358632 335.60189,87.293632 337.05939,88.228632 337.88439,89.906132 338.70939,91.556132 338.70939,93.811132 338.70939,96.066132 337.88439,97.743632 337.05939,99.393632 335.60189,100.32863 334.17189,101.23613 332.30189,101.23613 Z M 332.32939,99.256132 Q 334.19939,99.256132 335.32689,97.826132 336.48189,96.368632 336.48189,93.811132 336.48189,91.253632 335.32689,89.796132 334.17189,88.311132 332.30189,88.311132 330.48689,88.311132 329.35939,89.796132 328.23189,91.253632 328.23189,93.811132 328.23189,96.368632 329.38689,97.826132 330.54189,99.256132 332.32939,99.256132 Z"
         id="path44" />
      <path
         d="M 342.33938,100.93363 V 87.073632 Q 343.79688,86.688632 345.14438,86.551132 346.49188,86.386132 347.50938,86.386132 349.29688,86.386132 350.58938,86.991132 351.88188,87.568632 352.56938,88.916132 353.28438,90.236132 353.28438,92.491132 V 100.93363 H 351.13938 V 92.931132 Q 351.13938,90.951132 350.64438,89.988632 350.14938,88.998632 349.29688,88.668632 348.47188,88.338632 347.42688,88.338632 345.99688,88.338632 344.48438,88.641132 V 100.93363 Z"
         id="path46" />
      <path
         d="M 365.71437,101.26363 Q 363.48687,101.26363 362.38687,100.54863 361.28687,99.806132 360.92937,98.486132 360.57187,97.166132 360.57187,95.406132 V 88.531132 H 357.65687 V 86.688632 H 360.57187 V 82.591132 L 362.71687,82.206132 V 86.688632 H 368.76687 V 88.531132 H 362.71687 V 95.433632 Q 362.71687,96.946132 363.01937,97.798632 363.32187,98.623632 364.00937,98.953632 364.72437,99.283632 365.90687,99.283632 367.00687,99.283632 367.63937,99.091132 368.29937,98.871132 368.79437,98.651132 L 369.12437,100.46613 Q 368.90437,100.57613 368.02437,100.93363 367.14437,101.26363 365.71437,101.26363 Z"
         id="path48" />
    </g>
    <g
       aria-label="abcdefghijklmnopqrstuvwxyzABCDEFGHIJKLMNOPQRSTUVWXYZ oO08 iIlL1 {} [] g9qCGQ ~-+=&gt;"
       id="text4140"
       style="font-size:17.5px;font-family:'UbuntuSansMono NF';letter-spacing:0px;word-spacing:0px;fill:#ffffff">
      <path
         d="M 70.564403,141.14362 Q 69.864403,141.14362 69.164403,141.02112 68.481903,140.91612 67.904403,140.60112 67.344403,140.28612 66.994403,139.72612 66.644403,139.14862 66.644403,138.25612 66.644403,137.22362 67.221903,136.61112 67.799403,135.99862 68.691903,135.73612 69.584403,135.45612 70.529403,135.45612 71.036903,135.45612 71.509403,135.52612 71.999403,135.57862 72.454403,135.68362 V 135.19362 Q 72.454403,134.61612 72.279403,134.07362 72.121903,133.53112 71.631903,133.18112 71.159403,132.83112 70.214403,132.83112 69.339403,132.83112 68.691903,132.97112 68.061903,133.09362 67.764403,133.21612 L 67.606903,132.04362 Q 67.904403,131.90362 68.656903,131.78112 69.409403,131.65862 70.301903,131.65862 71.631903,131.65862 72.401903,132.09612 73.171903,132.53362 73.504403,133.30362 73.836903,134.05612 73.836903,135.05362 V 140.79362 Q 73.241903,140.89862 72.349403,141.02112 71.456903,141.14362 70.564403,141.14362 Z M 70.459403,139.95362 Q 71.124403,139.95362 71.631903,139.90112 72.156903,139.84862 72.454403,139.77862 V 136.90862 Q 72.139403,136.80362 71.649403,136.73362 71.176903,136.64612 70.634403,136.64612 70.021903,136.64612 69.426903,136.78612 68.831903,136.92612 68.446903,137.27612 68.061903,137.62612 68.061903,138.25612 68.061903,139.21862 68.691903,139.58612 69.339403,139.95362 70.459403,139.95362 Z"
         id="path51" />
      <path
         d="M 79.856894,141.14362 Q 78.736894,141.14362 77.931894,140.96862 77.144394,140.81112 76.671894,140.67112 V 127.59862 L 78.054394,127.35362 V 132.23612 Q 78.299394,132.07862 78.876894,131.86862 79.454394,131.65862 80.206894,131.65862 81.431894,131.65862 82.324394,132.27112 83.216894,132.86612 83.689394,133.93362 84.179394,135.00112 84.179394,136.40112 84.179394,137.87112 83.619394,138.93862 83.076894,139.98862 82.096894,140.56612 81.134394,141.14362 79.856894,141.14362 Z M 79.611894,139.91862 Q 81.064394,139.91862 81.904394,139.02612 82.744394,138.11612 82.744394,136.41862 82.744394,135.43862 82.481894,134.65112 82.219394,133.84612 81.624394,133.37362 81.046894,132.90112 80.101894,132.90112 79.506894,132.90112 78.911894,133.16362 78.334394,133.40862 78.054394,133.68862 V 139.67362 Q 78.876894,139.91862 79.611894,139.91862 Z"
         id="path53" />
      <path
         d="M 90.846884,141.14362 Q 89.516884,141.14362 88.414384,140.63612 87.329384,140.12862 86.664384,139.09612 86.016884,138.04612 86.016884,136.41862 86.016884,135.12362 86.419384,134.21362 86.839384,133.30362 87.539384,132.74362 88.256884,132.18362 89.131884,131.92112 90.024384,131.65862 90.951884,131.65862 91.564384,131.65862 92.211884,131.74612 92.876884,131.83362 93.629384,132.06112 L 93.314384,133.26862 Q 92.596884,133.00612 92.036884,132.95362 91.476884,132.90112 90.986884,132.90112 90.111884,132.90112 89.289384,133.23362 88.484384,133.56612 87.959384,134.33612 87.434384,135.08862 87.434384,136.41862 87.434384,137.66112 87.924384,138.43112 88.414384,139.18362 89.236884,139.53362 90.059384,139.88362 91.056884,139.88362 91.704384,139.88362 92.264384,139.83112 92.841884,139.76112 93.576884,139.49862 L 93.769384,140.65362 Q 93.051884,140.93362 92.334384,141.03862 91.634384,141.14362 90.846884,141.14362 Z"
         id="path55" />
      <path
         d="M 100.01687,141.14362 Q 98.756874,141.14362 97.776874,140.56612 96.796874,139.98862 96.236874,138.92112 95.676874,137.85362 95.676874,136.38362 95.676874,135.00112 96.166874,133.95112 96.656874,132.88362 97.549374,132.27112 98.441874,131.65862 99.649374,131.65862 100.43687,131.65862 100.99687,131.85112 101.57437,132.04362 101.83687,132.23612 V 127.59862 L 103.20187,127.35362 V 140.67112 Q 102.72937,140.81112 101.94187,140.96862 101.15437,141.14362 100.01687,141.14362 Z M 99.999374,139.86612 Q 100.69937,139.86612 101.17187,139.81362 101.66187,139.74362 101.83687,139.67362 V 133.68862 Q 101.55687,133.40862 100.97937,133.16362 100.40187,132.90112 99.771874,132.90112 98.826874,132.90112 98.231874,133.37362 97.654374,133.84612 97.374374,134.65112 97.111874,135.43862 97.111874,136.41862 97.111874,138.11612 97.934374,138.99112 98.774374,139.86612 99.999374,139.86612 Z"
         id="path57" />
      <path
         d="M 110.07937,141.14362 Q 108.48687,141.14362 107.45437,140.51362 106.43937,139.86612 105.94937,138.78112 105.45937,137.69612 105.45937,136.40112 105.45937,135.19362 105.82687,134.30112 106.19437,133.40862 106.80687,132.83112 107.43687,132.23612 108.18937,131.95612 108.94187,131.65862 109.72937,131.65862 111.49687,131.65862 112.49437,132.79612 113.49187,133.91612 113.49187,136.26112 V 136.73362 H 106.82437 Q 107.12187,139.88362 110.28937,139.88362 111.18187,139.88362 111.77687,139.74362 112.37187,139.60362 112.63437,139.48112 L 112.82687,140.63612 Q 112.61687,140.79362 111.82937,140.96862 111.05937,141.14362 110.07937,141.14362 Z M 106.87687,135.52612 H 112.03937 Q 112.03937,134.24862 111.37437,133.54862 110.70937,132.83112 109.69437,132.83112 108.90687,132.83112 108.29437,133.23362 107.69937,133.61862 107.33187,134.24862 106.96437,134.86112 106.87687,135.52612 Z"
         id="path59" />
      <path
         d="M 117.69186,140.93362 V 133.04112 H 115.81936 V 131.86862 H 117.69186 V 130.95862 Q 117.69186,129.57612 118.16436,128.80612 118.65436,128.01862 119.44186,127.68612 120.22936,127.35362 121.12186,127.35362 121.82186,127.35362 122.50436,127.51112 123.20436,127.66862 123.81686,127.86112 L 123.55436,129.08612 Q 123.13436,128.84112 122.48686,128.70112 121.83936,128.54362 121.15686,128.54362 120.59686,128.54362 120.10686,128.77112 119.63436,128.98112 119.33686,129.50612 119.05686,130.03112 119.05686,130.95862 V 131.86862 H 122.69686 V 133.04112 H 119.05686 V 140.93362 Z"
         id="path61" />
      <path
         d="M 128.36685,144.22362 Q 127.50935,144.22362 126.79185,144.08362 126.09185,143.96112 125.61935,143.78612 L 125.84685,142.56112 Q 126.35435,142.77112 127.00185,142.89362 127.66685,143.01612 128.40185,143.01612 129.85435,143.01612 130.51935,142.42112 131.20185,141.84362 131.20185,140.44362 V 140.14612 Q 130.99185,140.26862 130.36185,140.47862 129.74935,140.68862 128.92685,140.68862 127.91185,140.68862 127.01935,140.23362 126.12685,139.76112 125.58435,138.78112 125.04185,137.78362 125.04185,136.24362 125.04185,134.98362 125.51435,133.95112 125.98685,132.90112 126.89685,132.28862 127.82435,131.65862 129.13685,131.65862 130.39685,131.65862 131.25435,131.83362 132.11185,132.00862 132.56685,132.14862 V 140.35612 Q 132.56685,142.42112 131.49935,143.31362 130.44935,144.22362 128.36685,144.22362 Z M 128.96185,139.41112 Q 129.62685,139.41112 130.23935,139.21862 130.85185,139.02612 131.20185,138.76362 V 133.18112 Q 130.97435,133.09362 130.48435,133.02362 130.01185,132.93612 129.18935,132.93612 127.89435,132.93612 127.17685,133.86362 126.47685,134.79112 126.47685,136.26112 126.47685,137.38112 126.84435,138.08112 127.21185,138.78112 127.77185,139.09612 128.34935,139.41112 128.96185,139.41112 Z"
         id="path63" />
      <path
         d="M 135.47184,140.93362 V 127.59862 L 136.83684,127.35362 V 132.02612 Q 137.74684,131.67612 138.81434,131.67612 140.21434,131.67612 141.00184,132.20112 141.78934,132.70862 142.10434,133.65362 142.43684,134.58112 142.43684,135.82362 V 140.93362 H 141.07184 V 136.19112 Q 141.07184,134.96612 140.84434,134.26612 140.63434,133.54862 140.10934,133.23362 139.60184,132.91862 138.69184,132.91862 138.14934,132.91862 137.60684,133.04112 137.06434,133.16362 136.83684,133.25112 V 140.93362 Z"
         id="path65" />
      <path
         d="M 150.50433,141.14362 Q 149.38433,141.14362 148.75433,140.74112 148.14183,140.33862 147.89683,139.55112 147.65183,138.74612 147.65183,137.52112 V 133.04112 H 144.97433 V 131.86862 H 148.98183 V 137.43362 Q 148.98183,138.43112 149.15683,138.97362 149.34933,139.49862 149.69933,139.69112 150.06683,139.88362 150.55683,139.88362 151.18683,139.88362 151.65933,139.72612 152.14933,139.56862 152.34183,139.46362 L 152.53433,140.65362 Q 152.49933,140.68862 152.20183,140.81112 151.92183,140.93362 151.46683,141.03862 151.02933,141.14362 150.50433,141.14362 Z M 147.93183,130.20612 Q 147.44183,130.20612 147.09183,129.87362 146.74183,129.52362 146.74183,128.96362 146.74183,128.38612 147.09183,128.05362 147.44183,127.72112 147.93183,127.72112 148.43933,127.72112 148.77183,128.05362 149.10433,128.38612 149.10433,128.96362 149.10433,129.52362 148.77183,129.87362 148.43933,130.20612 147.93183,130.20612 Z"
         id="path67" />
      <path
         d="M 157.94182,144.25862 Q 157.25932,144.25862 156.50682,144.11862 155.77182,143.97862 155.15932,143.66362 L 155.56182,142.50862 Q 156.01682,142.73612 156.59432,142.87612 157.18932,143.03362 157.71432,143.03362 158.57182,143.03362 159.11432,142.61362 159.67432,142.19362 159.67432,140.98612 V 133.04112 H 156.01682 V 131.85112 H 161.05682 V 140.98612 Q 161.05682,142.17612 160.60182,142.89362 160.16432,143.62862 159.44682,143.94362 158.74682,144.25862 157.94182,144.25862 Z M 159.67432,130.20612 Q 159.18432,130.20612 158.83432,129.87362 158.48432,129.52362 158.48432,128.96362 158.48432,128.38612 158.83432,128.05362 159.18432,127.72112 159.67432,127.72112 160.18182,127.72112 160.51432,128.05362 160.84682,128.38612 160.84682,128.96362 160.84682,129.52362 160.51432,129.87362 160.18182,130.20612 159.67432,130.20612 Z"
         id="path69" />
      <path
         d="M 164.87181,140.93362 V 127.59862 L 166.23681,127.35362 V 135.73612 Q 167.42681,134.75612 168.61681,133.84612 169.82431,132.91862 170.78681,131.86862 H 172.37931 Q 171.50431,132.88362 170.26181,133.93362 169.03681,134.96612 167.81181,135.98112 168.33681,136.34862 169.01931,136.92612 169.70181,137.50362 170.41931,138.20362 171.13681,138.88612 171.74931,139.60362 172.36181,140.30362 172.72931,140.93362 H 171.06681 Q 170.66431,140.28612 170.06931,139.65612 169.47431,139.00862 168.77431,138.43112 168.09181,137.83612 167.42681,137.36362 166.76181,136.87362 166.23681,136.55862 V 140.93362 Z"
         id="path71" />
      <path
         d="M 179.9043,141.14362 Q 178.7493,141.14362 178.1368,140.74112 177.5243,140.32112 177.2793,139.51612 177.0518,138.71112 177.0518,137.48612 V 128.63112 H 174.3743 V 127.44112 H 178.3818 V 137.43362 Q 178.3818,138.41362 178.5393,138.95612 178.7143,139.48112 179.0468,139.69112 179.3793,139.88362 179.9043,139.88362 180.4468,139.88362 180.9193,139.76112 181.4093,139.63862 181.7418,139.46362 L 181.9343,140.65362 Q 181.6893,140.79362 181.0943,140.96862 180.4993,141.14362 179.9043,141.14362 Z"
         id="path73" />
      <path
         d="M 183.89429,140.93362 V 132.09612 Q 184.96179,131.64112 185.90679,131.64112 186.51929,131.64112 187.04429,131.81612 187.56929,131.99112 187.93679,132.37612 188.82929,131.64112 189.75679,131.64112 190.26429,131.64112 190.78929,131.92112 191.33179,132.20112 191.69929,132.76112 192.08429,133.32112 192.08429,134.16112 V 140.93362 H 190.75429 V 134.16112 Q 190.75429,133.54862 190.42179,133.16362 190.08929,132.77862 189.56429,132.77862 189.02179,132.77862 188.53179,133.37362 188.65429,133.72362 188.65429,134.12612 V 137.43362 H 187.32429 V 134.17862 Q 187.32429,133.56612 187.07929,133.18112 186.85179,132.77862 186.16929,132.77862 185.97679,132.77862 185.73179,132.83112 185.50429,132.88362 185.22429,132.97112 V 140.93362 Z"
         id="path75" />
      <path
         d="M 194.27178,140.93362 V 132.11362 Q 195.19928,131.86862 196.05678,131.78112 196.91428,131.67612 197.56178,131.67612 198.69928,131.67612 199.52178,132.06112 200.34428,132.42862 200.78178,133.28612 201.23678,134.12612 201.23678,135.56112 V 140.93362 H 199.87178 V 135.84112 Q 199.87178,134.58112 199.55678,133.96862 199.24178,133.33862 198.69928,133.12862 198.17428,132.91862 197.50928,132.91862 196.59928,132.91862 195.63678,133.11112 V 140.93362 Z"
         id="path77" />
      <path
         d="M 207.48428,141.12612 Q 206.32928,141.12612 205.41928,140.54862 204.52678,139.95362 204.00178,138.90362 203.47678,137.83612 203.47678,136.40112 203.47678,134.96612 203.98428,133.91612 204.50928,132.84862 205.41928,132.25362 206.32928,131.65862 207.48428,131.65862 208.67428,131.65862 209.58428,132.25362 210.51178,132.84862 211.03678,133.91612 211.56178,134.96612 211.56178,136.40112 211.56178,137.83612 211.03678,138.90362 210.51178,139.95362 209.58428,140.54862 208.67428,141.12612 207.48428,141.12612 Z M 207.50178,139.86612 Q 208.69178,139.86612 209.40928,138.95612 210.14428,138.02862 210.14428,136.40112 210.14428,134.77362 209.40928,133.84612 208.67428,132.90112 207.48428,132.90112 206.32928,132.90112 205.61178,133.84612 204.89428,134.77362 204.89428,136.40112 204.89428,138.02862 205.62928,138.95612 206.36428,139.86612 207.50178,139.86612 Z"
         id="path79" />
      <path
         d="M 213.87177,144.17112 V 132.14862 Q 214.36177,132.00862 215.14927,131.85112 215.93677,131.67612 217.05677,131.67612 218.33427,131.67612 219.29677,132.25362 220.27677,132.81362 220.81927,133.88112 221.37927,134.94862 221.37927,136.41862 221.37927,137.78362 220.88927,138.85112 220.41677,139.91862 219.52427,140.53112 218.63177,141.14362 217.40677,141.14362 216.60177,141.14362 216.02427,140.95112 215.46427,140.75862 215.23677,140.54862 V 144.17112 Z M 217.30177,139.86612 Q 218.24677,139.86612 218.82427,139.41112 219.41927,138.93862 219.68177,138.15112 219.96177,137.36362 219.96177,136.40112 219.96177,134.70362 219.13927,133.81112 218.31677,132.91862 217.07427,132.91862 216.28677,132.91862 215.86677,132.98862 215.44677,133.05862 215.23677,133.14612 V 139.09612 Q 215.53427,139.37612 216.11177,139.62112 216.70677,139.86612 217.30177,139.86612 Z"
         id="path81" />
      <path
         d="M 229.20175,144.17112 V 140.54862 Q 228.93925,140.72362 228.37925,140.93362 227.81925,141.14362 227.06675,141.14362 225.84175,141.14362 224.93175,140.53112 224.03925,139.91862 223.54925,138.85112 223.05925,137.76612 223.05925,136.41862 223.05925,134.93112 223.60175,133.88112 224.16175,132.81362 225.14175,132.25362 226.13925,131.67612 227.41675,131.67612 228.50175,131.67612 229.27175,131.85112 230.04175,132.02612 230.56675,132.16612 V 144.17112 Z M 227.15425,139.86612 Q 227.78425,139.86612 228.36175,139.62112 228.93925,139.37612 229.21925,139.09612 V 133.14612 Q 228.99175,133.05862 228.57175,132.98862 228.16925,132.91862 227.41675,132.91862 226.15675,132.91862 225.31675,133.81112 224.49425,134.70362 224.49425,136.40112 224.49425,137.36362 224.77425,138.15112 225.05425,138.93862 225.63175,139.41112 226.22675,139.86612 227.15425,139.86612 Z"
         id="path83" />
      <path
         d="M 234.22424,140.93362 V 132.32362 Q 235.22174,132.00862 236.21924,131.83362 237.23424,131.65862 238.17924,131.65862 238.86174,131.65862 239.33424,131.71112 239.80674,131.74612 240.48924,131.88612 L 240.24424,133.05862 Q 239.57924,132.86612 239.15924,132.84862 238.73924,132.81362 238.14424,132.81362 236.84924,132.81362 235.58924,133.18112 V 140.93362 Z"
         id="path85" />
      <path
         d="M 246.35173,141.14362 Q 245.49423,141.14362 244.72423,141.00362 243.95423,140.88112 243.18423,140.54862 L 243.48173,139.25362 Q 244.16423,139.58612 244.91673,139.77862 245.68673,139.97112 246.56173,139.97112 248.87173,139.97112 248.87173,138.71112 248.87173,138.23862 248.50423,137.92362 248.15423,137.59112 247.57673,137.34612 247.01673,137.10112 246.36923,136.89112 245.63423,136.62862 244.93423,136.29612 244.25173,135.96362 243.79673,135.45612 243.34173,134.94862 243.34173,134.14362 243.34173,133.05862 244.21673,132.35862 245.10923,131.65862 246.96423,131.65862 247.68173,131.65862 248.46923,131.76362 249.25673,131.86862 249.79923,132.00862 L 249.55423,133.28612 Q 249.34423,133.14612 248.90673,133.05862 248.48673,132.95362 247.97923,132.90112 247.47173,132.83112 246.98173,132.83112 245.86173,132.83112 245.26673,133.12862 244.68923,133.42612 244.68923,134.12612 244.68923,134.49362 244.98673,134.77362 245.28423,135.03612 245.77423,135.24612 246.26423,135.43862 246.84173,135.64862 247.43673,135.87612 248.03173,136.13862 248.64423,136.38362 249.15173,136.71612 249.65923,137.04862 249.95673,137.52112 250.27173,137.97612 250.27173,138.60612 250.27173,139.88362 249.30923,140.51362 248.34673,141.14362 246.35173,141.14362 Z"
         id="path87" />
      <path
         d="M 258.14673,141.14362 Q 256.72923,141.14362 256.02923,140.68862 255.32923,140.21612 255.10173,139.37612 254.87423,138.53612 254.87423,137.41612 V 133.04112 H 253.01923 V 131.86862 H 254.87423 V 129.26112 L 256.23923,129.01612 V 131.86862 H 260.08923 V 133.04112 H 256.23923 V 137.43362 Q 256.23923,138.39612 256.43173,138.93862 256.62423,139.46362 257.06173,139.67362 257.51673,139.88362 258.26923,139.88362 258.96923,139.88362 259.37173,139.76112 259.79173,139.62112 260.10673,139.48112 L 260.31673,140.63612 Q 260.17673,140.70612 259.61673,140.93362 259.05673,141.14362 258.14673,141.14362 Z"
         id="path89" />
      <path
         d="M 266.38922,141.12612 Q 265.07672,141.12612 264.28922,140.60112 263.50172,140.07612 263.15172,139.14862 262.80172,138.20362 262.80172,136.99612 V 131.86862 H 264.16672 V 136.61112 Q 264.16672,138.41362 264.72672,139.14862 265.28672,139.88362 266.54672,139.88362 267.15922,139.88362 267.71922,139.81362 268.27922,139.74362 268.40172,139.69112 V 131.86862 H 269.76672 V 140.68862 Q 269.27672,140.81112 268.41922,140.96862 267.57922,141.12612 266.38922,141.12612 Z"
         id="path91" />
      <path
         d="M 275.41921,140.93362 Q 274.82421,139.69112 274.17671,138.22112 273.52921,136.73362 272.93421,135.12362 272.35671,133.51362 271.90171,131.86862 H 273.42421 Q 273.77421,133.04112 274.21171,134.42362 274.64921,135.78862 275.13921,137.06612 275.64671,138.34362 276.11921,139.28862 276.46921,138.58862 276.83671,137.67862 277.22171,136.76862 277.58921,135.77112 277.95671,134.75612 278.28921,133.75862 278.62171,132.76112 278.88421,131.86862 H 280.33671 Q 279.88171,133.51362 279.26921,135.12362 278.65671,136.73362 277.99171,138.22112 277.34421,139.69112 276.73171,140.93362 Z"
         id="path93" />
      <path
         d="M 282.9092,140.93362 Q 282.3492,138.32612 281.9817,135.96362 281.6142,133.60112 281.4392,131.86862 H 282.8217 Q 282.8742,132.62112 282.9442,133.33862 283.0317,134.03862 283.1367,134.82612 283.2417,135.61362 283.3817,136.59362 283.5392,137.55612 283.7142,138.85112 284.0467,138.06362 284.2742,137.48612 284.5017,136.89112 284.6767,136.38362 284.8692,135.87612 285.0442,135.33362 285.2192,134.77362 285.4467,134.03862 H 286.4792 Q 286.7067,134.77362 286.8817,135.33362 287.0567,135.87612 287.2142,136.38362 287.3892,136.87362 287.5992,137.45112 287.8267,138.02862 288.1242,138.79862 288.3692,137.27612 288.5617,136.10362 288.7542,134.93112 288.8942,133.91612 289.0342,132.88362 289.1217,131.86862 H 290.3992 Q 290.2942,133.00612 290.0667,134.52862 289.8567,136.03362 289.5592,137.69612 289.2792,139.34112 288.9117,140.93362 H 287.8617 Q 287.5467,140.23362 287.3192,139.67362 287.0917,139.09612 286.8817,138.55362 286.6717,138.01112 286.4442,137.38112 286.2167,136.75112 285.9192,135.92862 285.6392,136.75112 285.4117,137.38112 285.1842,138.01112 284.9567,138.57112 284.7467,139.11362 284.5017,139.69112 284.2567,140.25112 283.9417,140.93362 Z"
         id="path95" />
      <path
         d="M 291.43168,140.93362 Q 292.11418,139.72612 293.04168,138.50112 293.98668,137.25862 294.89668,136.13862 L 291.60668,131.86862 H 293.21668 L 295.78918,135.14112 298.15168,131.86862 H 299.67418 L 296.64668,136.01612 Q 297.52168,137.17112 298.41418,138.41362 299.32418,139.63862 300.02418,140.93362 H 298.43168 Q 298.20418,140.44362 297.76668,139.77862 297.32918,139.09612 296.80418,138.37862 296.27918,137.64362 295.77168,137.03112 295.26418,137.62612 294.68668,138.36112 294.12668,139.09612 293.63668,139.77862 293.14668,140.46112 292.88418,140.93362 Z"
         id="path97" />
      <path
         d="M 302.66667,144.22362 Q 302.38667,144.22362 301.94917,144.11862 301.52917,144.03112 301.40667,143.96112 L 301.66917,142.85862 Q 301.79167,142.92862 302.10667,142.99862 302.43917,143.06862 302.70167,143.06862 303.73417,143.06862 304.29417,142.64862 304.87167,142.24612 305.37917,141.19612 304.20667,139.00862 303.22667,136.57612 302.24667,134.14362 301.63417,131.86862 H 303.17417 Q 303.43667,132.91862 303.83917,134.23112 304.24167,135.52612 304.76667,136.90862 305.30917,138.27362 305.92167,139.53362 306.41167,138.22112 306.76167,137.04862 307.11167,135.85862 307.42667,134.61612 307.75917,133.35612 308.14417,131.86862 H 309.57917 Q 308.98417,134.38862 308.19667,136.80362 307.40917,139.21862 306.56917,141.21362 305.90417,142.78862 305.01167,143.50612 304.11917,144.22362 302.66667,144.22362 Z"
         id="path99" />
      <path
         d="M 311.88917,140.93362 V 139.97112 Q 312.29167,139.18362 312.92167,138.22112 313.55167,137.25862 314.26917,136.27862 314.98667,135.28112 315.66917,134.44112 316.35167,133.58362 316.82417,133.04112 H 312.15167 V 131.86862 H 318.60917 V 132.93612 Q 318.22417,133.35612 317.59417,134.12612 316.98167,134.87862 316.24667,135.84112 315.51167,136.78612 314.79417,137.80112 314.09417,138.81612 313.55167,139.76112 H 318.73167 V 140.93362 Z"
         id="path101" />
      <path
         d="M 65.594403,162.80862 Q 65.909403,161.67112 66.311903,160.20112 66.714403,158.73112 67.204403,157.10362 67.694403,155.45862 68.254403,153.81362 68.814403,152.16862 69.444403,150.68112 H 71.264403 Q 71.876903,152.16862 72.419403,153.81362 72.961903,155.45862 73.434403,157.08612 73.924403,158.71362 74.326903,160.18362 74.729403,161.65362 75.044403,162.80862 H 73.591903 L 72.821903,159.53612 H 67.729403 L 66.976903,162.80862 Z M 68.096903,158.38112 H 72.471903 Q 72.121903,157.12112 71.736903,155.89612 71.351903,154.65362 70.966903,153.60362 70.599403,152.53612 70.301903,151.80112 70.004403,152.57112 69.619403,153.63862 69.251903,154.70612 68.849403,155.93112 68.464403,157.13862 68.096903,158.38112 Z"
         id="path103" />
      <path
         d="M 79.086894,162.89612 Q 78.736894,162.89612 78.211894,162.86112 77.686894,162.84362 77.161894,162.79112 76.636894,162.72112 76.269394,162.61612 V 150.85612 Q 76.654394,150.73362 77.179394,150.68112 77.721894,150.61112 78.246894,150.59362 78.771894,150.55862 79.139394,150.55862 79.909394,150.55862 80.661894,150.69862 81.431894,150.82112 82.044394,151.15362 82.656894,151.48612 83.024394,152.11612 83.391894,152.72862 83.391894,153.72612 83.391894,154.28612 83.129394,154.82862 82.884394,155.37112 82.464394,155.77362 82.044394,156.17612 81.536894,156.33362 82.166894,156.49112 82.709394,156.87612 83.269394,157.24362 83.601894,157.83862 83.951894,158.43362 83.951894,159.29112 83.951894,160.41112 83.479394,161.23362 83.006894,162.03862 81.939394,162.47612 80.889394,162.89612 79.086894,162.89612 Z M 77.634394,155.89612 H 79.016894 Q 79.699394,155.89612 80.381894,155.72112 81.081894,155.54612 81.536894,155.10862 82.009394,154.65362 82.009394,153.83112 82.009394,153.07862 81.606894,152.62362 81.204394,152.15112 80.556894,151.94112 79.926894,151.71362 79.174394,151.71362 78.614394,151.71362 78.194394,151.73112 77.791894,151.74862 77.634394,151.78362 Z M 79.174394,161.75862 Q 80.066894,161.75862 80.836894,161.54862 81.606894,161.33862 82.079394,160.81362 82.569394,160.27112 82.569394,159.30862 82.569394,158.41612 82.114394,157.92612 81.659394,157.43612 80.924394,157.24362 80.206894,157.03362 79.384394,157.03362 H 77.634394 V 161.68862 Q 77.616894,161.68862 78.036894,161.72362 78.474394,161.75862 79.174394,161.75862 Z"
         id="path105" />
      <path
         d="M 90.951884,163.07112 Q 89.604384,163.07112 88.484384,162.40612 87.381884,161.74112 86.716884,160.34112 86.051884,158.94112 86.051884,156.73612 86.051884,154.65362 86.716884,153.25362 87.399384,151.83612 88.519384,151.11862 89.639384,150.40112 90.951884,150.40112 91.511884,150.40112 92.264384,150.55862 93.016884,150.71612 93.874384,151.22362 L 93.454384,152.37862 Q 92.701884,151.97612 92.106884,151.81862 91.529384,151.64362 91.039384,151.64362 89.884384,151.64362 89.079384,152.32612 88.274384,152.99112 87.854384,154.14612 87.451884,155.30112 87.451884,156.75362 87.451884,158.50362 87.941884,159.62362 88.449384,160.74362 89.289384,161.28612 90.129384,161.82862 91.126884,161.82862 91.599384,161.82862 92.229384,161.70612 92.859384,161.56612 93.611884,161.16362 L 93.979384,162.31862 Q 93.244384,162.73862 92.491884,162.89612 91.756884,163.07112 90.951884,163.07112 Z"
         id="path107" />
      <path
         d="M 98.284374,162.89612 Q 97.111874,162.89612 95.869374,162.59862 V 150.85612 Q 96.446874,150.71612 97.024374,150.64612 97.601874,150.55862 98.179374,150.55862 99.754374,150.55862 101.01437,151.17112 102.27437,151.76612 103.00937,153.13112 103.76187,154.47862 103.76187,156.73612 103.76187,158.97612 103.04437,160.34112 102.32687,161.68862 101.08437,162.30112 99.841874,162.89612 98.284374,162.89612 Z M 98.406874,161.70612 Q 99.614374,161.70612 100.48937,161.25112 101.38187,160.77862 101.85437,159.69362 102.34437,158.59112 102.34437,156.73612 102.34437,154.91612 101.85437,153.83112 101.36437,152.72862 100.45437,152.23862 99.544374,151.74862 98.249374,151.74862 97.654374,151.74862 97.234374,151.80112 V 161.63612 Q 97.531874,161.67112 97.829374,161.68862 98.144374,161.70612 98.406874,161.70612 Z"
         id="path109" />
      <path
         d="M 106.56187,162.80862 V 150.68112 H 113.21187 V 151.85362 H 107.94437 V 155.87862 H 112.56437 V 157.05112 H 107.94437 V 161.63612 H 113.63187 V 162.80862 Z"
         id="path111" />
      <path
         d="M 116.36186,162.80862 V 150.68112 H 123.08186 V 151.85362 H 117.74436 V 155.89612 H 122.45186 V 157.06862 H 117.74436 V 162.80862 Z"
         id="path113" />
      <path
         d="M 130.08185,163.07112 Q 128.64685,163.07112 127.56185,162.31862 126.47685,161.56612 125.86435,160.14862 125.25185,158.73112 125.25185,156.73612 125.25185,154.72362 125.89935,153.30612 126.56435,151.88862 127.66685,151.15362 128.78685,150.40112 130.13435,150.40112 131.00935,150.40112 131.58685,150.55862 132.18185,150.71612 132.53185,150.90862 132.88185,151.10112 133.02185,151.22362 L 132.53185,152.39612 Q 132.05935,152.04612 131.44685,151.81862 130.85185,151.59112 130.16935,151.59112 129.20685,151.59112 128.40185,152.22112 127.59685,152.85112 127.12435,154.00612 126.65185,155.16112 126.65185,156.73612 126.65185,158.18862 127.05435,159.36112 127.47435,160.51612 128.27935,161.19862 129.08435,161.86362 130.25685,161.86362 130.93935,161.86362 131.27185,161.75862 131.62185,161.65362 131.74435,161.56612 V 156.92862 H 133.10935 V 162.51112 Q 132.75935,162.63362 131.93685,162.84362 131.13185,163.07112 130.08185,163.07112 Z"
         id="path115" />
      <path
         d="M 134.89434,162.80862 V 150.68112 H 136.25934 V 155.89612 H 141.57934 V 150.68112 H 142.94434 V 162.80862 H 141.57934 V 157.06862 H 136.25934 V 162.80862 Z"
         id="path117" />
      <path
         d="M 145.77933,162.80862 V 161.63612 H 148.03683 V 151.85362 H 145.77933 V 150.68112 H 151.65933 V 151.85362 H 149.40183 V 161.63612 H 151.65933 V 162.80862 Z"
         id="path119" />
      <path
         d="M 157.81932,163.07112 Q 157.04932,163.07112 156.41932,162.89612 155.80682,162.73862 155.36932,162.52862 154.94932,162.30112 154.73932,162.12612 L 155.29932,160.98862 Q 155.63182,161.25112 156.26182,161.56612 156.90932,161.88112 157.76682,161.88112 159.11432,161.88112 159.74432,161.16362 160.39182,160.42862 160.39182,158.78362 V 151.85362 H 156.22682 V 150.68112 H 161.73932 V 158.95862 Q 161.73932,160.09612 161.40682,161.04112 161.09182,161.96862 160.23432,162.52862 159.39432,163.07112 157.81932,163.07112 Z"
         id="path121" />
      <path
         d="M 164.80181,162.80862 V 150.68112 H 166.16681 V 156.19362 Q 167.54931,154.82862 168.79181,153.39362 170.03431,151.95862 171.04931,150.68112 H 172.64181 Q 171.57431,152.20362 170.36681,153.58612 169.15931,154.95112 167.79431,156.35112 168.65181,157.03362 169.63181,158.03112 170.62931,159.01112 171.53931,160.23612 172.44931,161.44362 173.06181,162.80862 H 171.50431 Q 170.38431,160.84862 169.01931,159.34362 167.67181,157.82112 166.16681,156.91112 V 162.80862 Z"
         id="path123" />
      <path
         d="M 175.1268,162.80862 V 150.68112 H 176.4918 V 161.63612 H 182.2318 V 162.80862 Z"
         id="path125" />
      <path
         d="M 183.70179,162.80862 Q 183.82429,159.79862 184.03429,156.68362 184.26179,153.55112 184.64679,150.68112 H 185.99429 Q 186.51929,152.37862 186.99179,153.86612 187.46429,155.33612 187.95429,156.91112 188.42679,155.37112 188.88179,153.88362 189.35429,152.37862 189.87929,150.68112 H 191.24429 Q 191.66429,153.41112 191.82179,156.47362 191.97929,159.51862 192.13679,162.80862 H 190.77179 Q 190.71929,161.44362 190.66679,159.71112 190.63179,157.96112 190.57929,156.08862 190.52679,154.21612 190.43929,152.46612 L 188.60179,158.11862 H 187.30679 L 185.38179,152.46612 Q 185.36429,154.19862 185.29429,156.07112 185.22429,157.94362 185.15429,159.69362 185.10179,161.44362 185.06679,162.80862 Z"
         id="path127" />
      <path
         d="M 193.95678,162.80862 V 150.68112 H 195.51428 Q 196.23178,151.99362 196.73928,152.99112 197.26428,153.97112 197.68428,154.81112 198.10428,155.63362 198.48928,156.47362 198.87428,157.29612 199.27678,158.27612 199.69678,159.25612 200.22178,160.56862 V 150.68112 H 201.48178 V 162.80862 H 199.92428 Q 199.18928,160.98862 198.55928,159.57112 197.92928,158.13612 197.36928,156.96362 196.80928,155.77362 196.26678,154.74112 195.74178,153.69112 195.21678,152.64112 V 162.80862 Z"
         id="path129" />
      <path
         d="M 207.51928,163.07112 Q 206.25928,163.07112 205.27928,162.40612 204.31678,161.74112 203.75678,160.34112 203.19678,158.94112 203.19678,156.73612 203.19678,154.53112 203.73928,153.13112 204.29928,151.73112 205.26178,151.06612 206.24178,150.40112 207.51928,150.40112 208.77928,150.40112 209.75928,151.06612 210.73928,151.73112 211.29928,153.13112 211.87678,154.53112 211.87678,156.73612 211.87678,158.94112 211.31678,160.34112 210.75678,161.74112 209.75928,162.40612 208.77928,163.07112 207.51928,163.07112 Z M 207.46678,161.88112 Q 208.86678,161.88112 209.67178,160.58612 210.47678,159.29112 210.47678,156.73612 210.47678,154.16362 209.67178,152.88612 208.86678,151.59112 207.46678,151.59112 206.08428,151.59112 205.34928,152.86862 204.61428,154.14612 204.61428,156.73612 204.61428,159.29112 205.34928,160.58612 206.08428,161.88112 207.46678,161.88112 Z"
         id="path131" />
      <path
         d="M 213.97677,162.80862 V 150.85612 Q 214.67677,150.66362 215.56927,150.61112 216.46177,150.55862 217.09177,150.55862 218.50927,150.55862 219.41927,151.04862 220.34677,151.53862 220.78427,152.37862 221.23927,153.20112 221.23927,154.23362 221.23927,156.03612 220.15427,157.08612 219.08677,158.13612 216.89927,158.13612 H 215.34177 V 162.80862 Z M 215.34177,156.99862 H 216.77677 Q 218.33427,156.99862 219.08677,156.36862 219.83927,155.72112 219.83927,154.30362 219.83927,153.09612 219.17427,152.43112 218.50927,151.74862 217.16177,151.74862 216.58427,151.74862 216.07677,151.76612 215.58677,151.76612 215.34177,151.80112 Z"
         id="path133" />
      <path
         d="M 230.54925,166.01112 Q 229.60425,165.83612 228.69425,165.52112 227.80175,165.20612 227.13675,164.61112 226.48925,164.01612 226.26175,163.00112 224.72175,162.70362 223.75925,161.18112 222.79675,159.65862 222.79675,156.73612 222.79675,154.53112 223.33925,153.13112 223.89925,151.73112 224.86175,151.06612 225.84175,150.40112 227.11925,150.40112 228.37925,150.40112 229.35925,151.06612 230.33925,151.73112 230.89925,153.13112 231.47675,154.53112 231.47675,156.73612 231.47675,158.73112 231.00425,160.06112 230.54925,161.39112 229.72675,162.12612 228.90425,162.84362 227.83675,163.01862 227.90675,163.59612 228.34425,163.96362 228.78175,164.34862 229.46425,164.55862 230.14675,164.76862 230.88175,164.85612 Z M 227.06675,161.88112 Q 228.46675,161.88112 229.27175,160.60362 230.07675,159.30862 230.07675,156.73612 230.07675,154.16362 229.27175,152.88612 228.46675,151.59112 227.06675,151.59112 225.68425,151.59112 224.94925,152.88612 224.21425,154.16362 224.21425,156.73612 224.21425,159.30862 224.94925,160.60362 225.68425,161.88112 227.06675,161.88112 Z"
         id="path135" />
      <path
         d="M 233.12174,162.80862 V 150.85612 Q 233.69924,150.68112 234.52174,150.62862 235.36174,150.55862 236.00924,150.55862 238.19674,150.55862 239.28174,151.52112 240.36674,152.48362 240.36674,154.33862 240.36674,155.47612 239.71924,156.33362 239.07174,157.17362 238.09174,157.66362 238.47674,158.25862 238.96674,159.09862 239.47424,159.93862 239.98174,160.90112 240.50674,161.84612 240.94424,162.80862 H 239.45674 Q 239.03674,161.82862 238.56424,160.88362 238.10924,159.93862 237.63674,159.16862 237.16424,158.38112 236.74424,157.90862 236.62174,157.92612 236.34174,157.94362 236.06174,157.94362 235.97424,157.94362 H 234.50424 V 162.80862 Z M 234.50424,156.80612 H 235.69424 Q 236.65674,156.80612 237.39174,156.63112 238.12674,156.43862 238.54674,155.89612 238.96674,155.33612 238.96674,154.25112 238.96674,153.20112 238.56424,152.67612 238.17924,152.13362 237.54924,151.94112 236.91924,151.74862 236.20174,151.74862 235.64174,151.74862 235.15174,151.76612 234.67924,151.76612 234.50424,151.80112 Z"
         id="path137" />
      <path
         d="M 246.42173,163.07112 Q 245.58173,163.07112 244.88173,162.91362 244.19923,162.77362 243.70923,162.58112 243.21923,162.37112 242.99173,162.23112 L 243.42923,161.09362 Q 243.76173,161.28612 244.53173,161.58362 245.31923,161.86362 246.42173,161.86362 247.64673,161.86362 248.36423,161.39112 249.09923,160.90112 249.09923,159.88612 249.09923,159.04612 248.67923,158.53862 248.25923,158.01362 247.59423,157.66362 246.94673,157.31362 246.22923,157.03362 245.42423,156.70112 244.75923,156.28112 244.09423,155.84362 243.69173,155.23112 243.30673,154.60112 243.30673,153.70862 243.30673,152.15112 244.26923,151.27612 245.24923,150.40112 246.99923,150.40112 247.97923,150.40112 248.81923,150.62862 249.67673,150.83862 250.04423,151.13612 L 249.58923,152.32612 Q 249.20423,152.09862 248.48673,151.85362 247.78673,151.60862 246.94673,151.60862 246.36923,151.60862 245.84423,151.81862 245.33673,152.02862 245.00423,152.44862 244.67173,152.85112 244.67173,153.46362 244.67173,154.19862 244.98673,154.65362 245.30173,155.10862 245.86173,155.42362 246.43923,155.73862 247.15673,156.07112 248.20673,156.52612 248.94173,156.98112 249.67673,157.43612 250.06173,158.10112 250.44673,158.74862 250.44673,159.83362 250.44673,161.37362 249.37923,162.23112 248.32923,163.07112 246.42173,163.07112 Z"
         id="path139" />
      <path
         d="M 255.83673,162.80862 V 151.85362 H 252.47673 V 150.68112 H 260.56173 V 151.85362 H 257.20173 V 162.80862 Z"
         id="path141" />
      <path
         d="M 266.33672,163.07112 Q 264.25422,163.07112 263.32672,161.89862 262.41672,160.70862 262.41672,158.69612 V 150.68112 H 263.78172 V 158.50362 Q 263.78172,159.79862 264.09672,160.53362 264.42922,161.26862 265.00672,161.58362 265.58422,161.88112 266.31922,161.88112 267.07172,161.88112 267.63172,161.58362 268.20922,161.28612 268.52422,160.55112 268.85672,159.81612 268.85672,158.52112 V 150.68112 H 270.22172 V 158.69612 Q 270.22172,160.70862 269.31172,161.89862 268.41922,163.07112 266.33672,163.07112 Z"
         id="path143" />
      <path
         d="M 275.17421,162.80862 Q 274.52671,160.91862 273.93171,159.08112 273.33671,157.22612 272.84671,155.59862 272.35671,153.95362 271.98921,152.69362 271.63921,151.41612 271.48171,150.68112 H 272.96921 Q 273.24921,152.01112 273.65171,153.53362 274.05421,155.03862 274.49171,156.54362 274.94671,158.04862 275.36671,159.39612 275.80421,160.72612 276.15421,161.72362 276.48671,160.72612 276.92421,159.37862 277.37921,158.01362 277.83421,156.50862 278.30671,154.98612 278.69171,153.48112 279.09421,151.97612 279.33921,150.68112 H 280.79171 Q 280.65171,151.32862 280.30171,152.60612 279.95171,153.88362 279.44421,155.56362 278.93671,157.24362 278.32421,159.11612 277.71171,160.97112 277.02921,162.80862 Z"
         id="path145" />
      <path
         d="M 282.5942,162.80862 Q 282.3667,161.25112 282.1917,159.29112 282.0342,157.31362 281.9117,155.10862 281.8067,152.90362 281.7017,150.68112 H 283.0667 Q 283.1542,153.25362 283.2242,155.80862 283.3117,158.34612 283.3992,161.02362 283.8542,159.58862 284.2917,158.27612 284.7292,156.96362 285.2367,155.37112 H 286.5317 Q 287.0917,156.94612 287.5467,158.32862 288.0017,159.69362 288.4567,161.02362 288.5442,158.34612 288.6142,155.80862 288.7017,153.25362 288.7717,150.68112 H 290.1367 Q 290.0492,152.92112 289.8917,155.12612 289.7517,157.31362 289.5767,159.29112 289.4017,161.25112 289.1742,162.80862 H 287.8442 Q 287.3542,161.19862 286.8642,159.67612 286.3742,158.15362 285.8842,156.57862 285.3942,158.17112 284.9217,159.69362 284.4667,161.19862 283.9592,162.80862 Z"
         id="path147" />
      <path
         d="M 291.39668,162.80862 Q 292.11418,161.25112 292.93668,159.58862 293.77668,157.90862 294.75668,156.40362 L 291.58918,150.68112 H 293.12918 L 295.64918,155.54612 298.32668,150.68112 H 299.88418 L 296.61168,156.33362 Q 297.53918,157.80362 298.39668,159.41362 299.25418,161.00612 300.04168,162.80862 H 298.50168 Q 298.20418,162.07362 297.74918,161.11112 297.31168,160.13112 296.78668,159.13362 296.26168,158.11862 295.68418,157.33112 295.19418,158.03112 294.70418,158.94112 294.23168,159.85112 293.75918,160.84862 293.30418,161.84612 292.88418,162.80862 Z"
         id="path149" />
      <path
         d="M 304.85417,162.80862 V 158.31112 Q 303.62917,156.35112 302.59667,154.46112 301.58167,152.57112 300.88167,150.68112 H 302.45667 Q 303.03417,152.37862 303.82167,153.90112 304.62667,155.40612 305.53667,157.12112 306.23667,155.86112 306.77917,154.82862 307.33917,153.77862 307.79417,152.78112 308.24917,151.76612 308.65167,150.68112 H 310.19167 Q 309.45667,152.55362 308.42417,154.40862 307.40917,156.24612 306.21917,158.27612 V 162.80862 Z"
         id="path151" />
      <path
         d="M 311.50417,162.80862 V 161.86362 Q 312.18667,160.49862 312.99167,159.09862 313.79667,157.68112 314.61917,156.35112 315.44167,155.02112 316.21167,153.86612 316.98167,152.71112 317.62917,151.85362 H 311.81917 V 150.68112 H 319.20417 V 151.78362 Q 318.76667,152.37862 318.15417,153.27112 317.55917,154.16362 316.85917,155.23112 316.17667,156.29862 315.49417,157.43612 314.81167,158.55612 314.18167,159.64112 313.56917,160.72612 313.09667,161.63612 H 319.36167 V 162.80862 Z"
         id="path153" />
      <path
         d="M 70.284403,184.87612 Q 69.129403,184.87612 68.219403,184.29862 67.326903,183.70362 66.801903,182.65362 66.276903,181.58612 66.276903,180.15112 66.276903,178.71612 66.784403,177.66612 67.309403,176.59862 68.219403,176.00362 69.129403,175.40862 70.284403,175.40862 71.474403,175.40862 72.384403,176.00362 73.311903,176.59862 73.836903,177.66612 74.361903,178.71612 74.361903,180.15112 74.361903,181.58612 73.836903,182.65362 73.311903,183.70362 72.384403,184.29862 71.474403,184.87612 70.284403,184.87612 Z M 70.301903,183.61612 Q 71.491903,183.61612 72.209403,182.70612 72.944403,181.77862 72.944403,180.15112 72.944403,178.52362 72.209403,177.59612 71.474403,176.65112 70.284403,176.65112 69.129403,176.65112 68.411903,177.59612 67.694403,178.52362 67.694403,180.15112 67.694403,181.77862 68.429403,182.70612 69.164403,183.61612 70.301903,183.61612 Z"
         id="path155" />
      <path
         d="M 80.119394,184.94612 Q 78.859394,184.94612 77.879394,184.28112 76.916894,183.61612 76.356894,182.21612 75.796894,180.81612 75.796894,178.61112 75.796894,176.40612 76.339394,175.00612 76.899394,173.60612 77.861894,172.94112 78.841894,172.27612 80.119394,172.27612 81.379394,172.27612 82.359394,172.94112 83.339394,173.60612 83.899394,175.00612 84.476894,176.40612 84.476894,178.61112 84.476894,180.81612 83.916894,182.21612 83.356894,183.61612 82.359394,184.28112 81.379394,184.94612 80.119394,184.94612 Z M 80.066894,183.75612 Q 81.466894,183.75612 82.271894,182.46112 83.076894,181.16612 83.076894,178.61112 83.076894,176.03862 82.271894,174.76112 81.466894,173.46612 80.066894,173.46612 78.684394,173.46612 77.949394,174.74362 77.214394,176.02112 77.214394,178.61112 77.214394,181.16612 77.949394,182.46112 78.684394,183.75612 80.066894,183.75612 Z"
         id="path157" />
      <path
         d="M 89.919384,184.94612 Q 88.081884,184.94612 87.031884,183.28362 85.999384,181.62112 85.999384,178.61112 85.999384,175.60112 87.031884,173.93862 88.064384,172.27612 89.919384,172.27612 91.791884,172.27612 92.806884,173.93862 93.839384,175.60112 93.839384,178.61112 93.839384,181.62112 92.806884,183.28362 91.791884,184.94612 89.919384,184.94612 Z M 89.919384,183.70362 Q 90.636884,183.70362 91.109384,183.28362 91.581884,182.86362 91.844384,182.14612 92.124384,181.42862 92.229384,180.51862 92.351884,179.59112 92.351884,178.61112 92.351884,177.61362 92.229384,176.70362 92.124384,175.79362 91.844384,175.07612 91.581884,174.35862 91.109384,173.93862 90.636884,173.51862 89.919384,173.51862 89.201884,173.51862 88.729384,173.93862 88.256884,174.35862 87.976884,175.07612 87.714384,175.79362 87.591884,176.70362 87.486884,177.61362 87.486884,178.61112 87.486884,179.59112 87.591884,180.51862 87.714384,181.42862 87.976884,182.14612 88.256884,182.86362 88.729384,183.28362 89.201884,183.70362 89.919384,183.70362 Z M 89.954384,179.62612 Q 89.464384,179.62612 89.131884,179.25862 88.816884,178.87362 88.816884,178.38362 88.816884,177.89362 89.131884,177.50862 89.464384,177.12362 89.954384,177.12362 90.461884,177.12362 90.759384,177.50862 91.074384,177.89362 91.074384,178.38362 91.074384,178.87362 90.759384,179.25862 90.461884,179.62612 89.954384,179.62612 Z"
         id="path159" />
      <path
         d="M 99.719374,184.94612 Q 98.511874,184.94612 97.759374,184.63112 97.006874,184.31612 96.604374,183.80862 96.201874,183.30112 96.044374,182.72362 95.886874,182.14612 95.886874,181.62112 95.886874,180.90362 96.166874,180.30862 96.464374,179.71362 96.919374,179.25862 97.374374,178.78612 97.864374,178.48862 96.149374,177.59612 96.149374,175.53112 96.149374,174.62112 96.604374,173.88612 97.076874,173.15112 97.881874,172.71362 98.686874,172.27612 99.701874,172.27612 100.73437,172.27612 101.41687,172.59112 102.09937,172.90612 102.50187,173.39612 102.92187,173.88612 103.09687,174.42862 103.27187,174.97112 103.27187,175.42612 103.27187,176.14362 103.00937,176.72112 102.74687,177.29862 102.34437,177.73612 101.95937,178.15612 101.53937,178.43612 103.53437,179.29362 103.53437,181.53362 103.53437,183.16112 102.55437,184.05362 101.57437,184.94612 99.719374,184.94612 Z M 100.15687,178.06862 Q 100.92687,177.64862 101.41687,177.05362 101.92437,176.44112 101.92437,175.35612 101.92437,175.04112 101.71437,174.58612 101.52187,174.13112 101.03187,173.78112 100.55937,173.43112 99.719374,173.43112 98.879374,173.43112 98.389374,173.76362 97.916874,174.09612 97.706874,174.56862 97.514374,175.02362 97.514374,175.42612 97.514374,175.96862 97.776874,176.51112 98.056874,177.05362 98.634374,177.47362 99.211874,177.89362 100.15687,178.06862 Z M 99.719374,183.79112 Q 100.59437,183.79112 101.13687,183.47612 101.67937,183.16112 101.92437,182.67112 102.16937,182.18112 102.16937,181.67362 102.16937,180.46612 101.31187,179.81862 100.45437,179.17112 99.071874,178.92612 98.214374,179.36362 97.741874,180.04612 97.269374,180.71112 97.269374,181.72612 97.269374,182.09362 97.461874,182.58362 97.671874,183.07362 98.196874,183.44112 98.739374,183.79112 99.719374,183.79112 Z"
         id="path161" />
      <path
         d="M 121.10436,184.89362 Q 119.98436,184.89362 119.35436,184.49112 118.74186,184.08862 118.49686,183.30112 118.25186,182.49612 118.25186,181.27112 V 176.79112 H 115.57436 V 175.61862 H 119.58186 V 181.18362 Q 119.58186,182.18112 119.75686,182.72362 119.94936,183.24862 120.29936,183.44112 120.66686,183.63362 121.15686,183.63362 121.78686,183.63362 122.25936,183.47612 122.74936,183.31862 122.94186,183.21362 L 123.13436,184.40362 Q 123.09936,184.43862 122.80186,184.56112 122.52186,184.68362 122.06686,184.78862 121.62936,184.89362 121.10436,184.89362 Z M 118.53186,173.95612 Q 118.04186,173.95612 117.69186,173.62362 117.34186,173.27362 117.34186,172.71362 117.34186,172.13612 117.69186,171.80362 118.04186,171.47112 118.53186,171.47112 119.03936,171.47112 119.37186,171.80362 119.70436,172.13612 119.70436,172.71362 119.70436,173.27362 119.37186,173.62362 119.03936,173.95612 118.53186,173.95612 Z"
         id="path163" />
      <path
         d="M 126.17935,184.68362 V 183.51112 H 128.43685 V 173.72862 H 126.17935 V 172.55612 H 132.05935 V 173.72862 H 129.80185 V 183.51112 H 132.05935 V 184.68362 Z"
         id="path165" />
      <path
         d="M 140.70434,184.89362 Q 139.54934,184.89362 138.93684,184.49112 138.32434,184.07112 138.07934,183.26612 137.85184,182.46112 137.85184,181.23612 V 172.38112 H 135.17434 V 171.19112 H 139.18184 V 181.18362 Q 139.18184,182.16362 139.33934,182.70612 139.51434,183.23112 139.84684,183.44112 140.17934,183.63362 140.70434,183.63362 141.24684,183.63362 141.71934,183.51112 142.20934,183.38862 142.54184,183.21362 L 142.73434,184.40362 Q 142.48934,184.54362 141.89434,184.71862 141.29934,184.89362 140.70434,184.89362 Z"
         id="path167" />
      <path
         d="M 145.72683,184.68362 V 172.55612 H 147.09183 V 183.51112 H 152.83183 V 184.68362 Z"
         id="path169" />
      <path
         d="M 155.82432,184.68362 V 183.51112 H 158.46682 V 174.48112 Q 158.08182,174.86612 157.27682,175.30362 156.48932,175.74112 155.66682,176.03862 L 155.24682,175.05862 Q 156.26182,174.65612 157.13682,174.07862 158.02932,173.50112 158.85182,172.55612 H 159.83182 V 183.51112 H 162.08932 V 184.68362 Z"
         id="path171" />
      <path
         d="M 180.0968,187.92112 Q 178.8893,187.92112 178.2068,187.57112 177.5418,187.22112 177.2618,186.55612 176.9993,185.89112 176.9993,184.94612 V 181.69112 Q 176.9993,181.32362 176.8243,180.93862 176.6668,180.53612 176.3518,180.27362 176.0368,179.99362 175.5818,179.99362 H 174.8468 V 178.90862 H 175.5643 Q 176.0193,178.90862 176.3343,178.64612 176.6668,178.36612 176.8243,177.96362 176.9993,177.56112 176.9993,177.19362 V 173.95612 Q 176.9993,173.01112 177.2618,172.34612 177.5418,171.68112 178.2068,171.33112 178.8893,170.98112 180.0968,170.98112 H 181.5318 V 172.06612 H 179.9043 Q 179.0468,172.06612 178.6618,172.45112 178.2768,172.83612 178.2768,173.83362 V 176.70362 Q 178.2768,177.57862 178.1018,178.13862 177.9268,178.69862 177.6643,179.01362 177.4193,179.31112 177.1918,179.45112 177.5418,179.69612 177.9093,180.34362 178.2768,180.97362 178.2768,182.19862 V 185.03362 Q 178.2768,186.04862 178.6618,186.43362 179.0468,186.81862 179.9393,186.81862 H 181.5318 V 187.92112 Z"
         id="path173" />
      <path
         d="M 184.50679,187.92112 V 186.81862 H 186.13429 Q 187.00929,186.81862 187.37679,186.43362 187.76179,186.04862 187.76179,185.03362 V 182.19862 Q 187.76179,181.30612 187.93679,180.76362 188.12929,180.20362 188.37429,179.90612 188.63679,179.59112 188.84679,179.45112 188.49679,179.20612 188.12929,178.57612 187.76179,177.92862 187.76179,176.70362 V 173.83362 Q 187.76179,172.83612 187.37679,172.45112 186.99179,172.06612 186.11679,172.06612 H 184.50679 V 170.98112 H 185.95929 Q 187.16679,170.98112 187.84929,171.33112 188.53179,171.68112 188.81179,172.34612 189.09179,173.01112 189.09179,173.95612 V 177.21112 Q 189.09179,177.56112 189.23179,177.96362 189.38929,178.36612 189.68679,178.64612 190.00179,178.90862 190.45679,178.90862 H 191.19179 V 179.99362 H 190.49179 Q 190.03679,179.99362 189.72179,180.27362 189.40679,180.53612 189.24929,180.93862 189.09179,181.32362 189.09179,181.69112 V 184.94612 Q 189.09179,185.89112 188.81179,186.55612 188.53179,187.22112 187.84929,187.57112 187.16679,187.92112 185.95929,187.92112 Z"
         id="path175" />
      <path
         d="M 205.59428,187.92112 V 170.98112 H 210.05678 V 172.06612 H 206.90678 V 186.81862 H 210.05678 V 187.92112 Z"
         id="path177" />
      <path
         d="M 214.78177,187.92112 V 186.81862 H 217.93177 V 172.06612 H 214.78177 V 170.98112 H 219.24427 V 187.92112 Z"
         id="path179" />
      <path
         d="M 236.16674,187.97362 Q 235.30924,187.97362 234.59174,187.83362 233.89174,187.71112 233.41924,187.53612 L 233.64674,186.31112 Q 234.15424,186.52112 234.80174,186.64362 235.46674,186.76612 236.20174,186.76612 237.65424,186.76612 238.31924,186.17112 239.00174,185.59362 239.00174,184.19362 V 183.89612 Q 238.79174,184.01862 238.16174,184.22862 237.54924,184.43862 236.72674,184.43862 235.71174,184.43862 234.81924,183.98362 233.92674,183.51112 233.38424,182.53112 232.84174,181.53362 232.84174,179.99362 232.84174,178.73362 233.31424,177.70112 233.78674,176.65112 234.69674,176.03862 235.62424,175.40862 236.93674,175.40862 238.19674,175.40862 239.05424,175.58362 239.91174,175.75862 240.36674,175.89862 V 184.10612 Q 240.36674,186.17112 239.29924,187.06362 238.24924,187.97362 236.16674,187.97362 Z M 236.76174,183.16112 Q 237.42674,183.16112 238.03924,182.96862 238.65174,182.77612 239.00174,182.51362 V 176.93112 Q 238.77424,176.84362 238.28424,176.77362 237.81174,176.68612 236.98924,176.68612 235.69424,176.68612 234.97674,177.61362 234.27674,178.54112 234.27674,180.01112 234.27674,181.13112 234.64424,181.83112 235.01174,182.53112 235.57174,182.84612 236.14924,183.16112 236.76174,183.16112 Z"
         id="path181" />
      <path
         d="M 243.49923,184.71862 243.44673,183.56362 Q 245.82673,183.58112 247.20923,182.63612 248.59173,181.67362 248.97673,179.32862 248.48673,179.55612 247.85673,179.71362 247.22673,179.85362 246.50923,179.85362 245.14423,179.85362 244.33923,179.32862 243.55173,178.80362 243.20173,177.96362 242.85173,177.12362 242.85173,176.16112 242.85173,175.51362 243.06173,174.83112 243.27173,174.14862 243.70923,173.57112 244.14673,172.99362 244.84673,172.64362 245.54673,172.29362 246.52673,172.29362 248.52173,172.29362 249.51923,173.65862 250.53423,175.00612 250.53423,177.38612 250.53423,181.02612 248.81923,182.86362 247.10423,184.70112 243.49923,184.71862 Z M 246.63173,178.71612 Q 247.33173,178.71612 247.89173,178.59362 248.46923,178.47112 249.06423,178.22612 249.09923,178.01612 249.09923,177.85862 249.09923,177.68362 249.09923,177.49112 249.09923,176.35362 248.88923,175.44362 248.67923,174.53362 248.11923,173.99112 247.57673,173.44862 246.54423,173.44862 245.72173,173.44862 245.21423,173.88612 244.72423,174.32362 244.49673,174.95362 244.28673,175.56612 244.28673,176.12612 244.28673,178.71612 246.63173,178.71612 Z"
         id="path183" />
      <path
         d="M 258.60173,187.92112 V 184.29862 Q 258.33923,184.47362 257.77923,184.68362 257.21923,184.89362 256.46673,184.89362 255.24173,184.89362 254.33173,184.28112 253.43923,183.66862 252.94923,182.60112 252.45923,181.51612 252.45923,180.16862 252.45923,178.68112 253.00173,177.63112 253.56173,176.56362 254.54173,176.00362 255.53923,175.42612 256.81673,175.42612 257.90173,175.42612 258.67173,175.60112 259.44173,175.77612 259.96673,175.91612 V 187.92112 Z M 256.55423,183.61612 Q 257.18423,183.61612 257.76173,183.37112 258.33923,183.12612 258.61923,182.84612 V 176.89612 Q 258.39173,176.80862 257.97173,176.73862 257.56923,176.66862 256.81673,176.66862 255.55673,176.66862 254.71673,177.56112 253.89423,178.45362 253.89423,180.15112 253.89423,181.11362 254.17423,181.90112 254.45423,182.68862 255.03173,183.16112 255.62673,183.61612 256.55423,183.61612 Z"
         id="path185" />
      <path
         d="M 267.35172,184.94612 Q 266.00422,184.94612 264.88422,184.28112 263.78172,183.61612 263.11672,182.21612 262.45172,180.81612 262.45172,178.61112 262.45172,176.52862 263.11672,175.12862 263.79922,173.71112 264.91922,172.99362 266.03922,172.27612 267.35172,172.27612 267.91172,172.27612 268.66422,172.43362 269.41672,172.59112 270.27422,173.09862 L 269.85422,174.25362 Q 269.10172,173.85112 268.50672,173.69362 267.92922,173.51862 267.43922,173.51862 266.28422,173.51862 265.47922,174.20112 264.67422,174.86612 264.25422,176.02112 263.85172,177.17612 263.85172,178.62862 263.85172,180.37862 264.34172,181.49862 264.84922,182.61862 265.68922,183.16112 266.52922,183.70362 267.52672,183.70362 267.99922,183.70362 268.62922,183.58112 269.25922,183.44112 270.01172,183.03862 L 270.37922,184.19362 Q 269.64422,184.61362 268.89172,184.77112 268.15672,184.94612 267.35172,184.94612 Z"
         id="path187" />
      <path
         d="M 277.08171,184.94612 Q 275.64671,184.94612 274.56171,184.19362 273.47671,183.44112 272.86421,182.02362 272.25171,180.60612 272.25171,178.61112 272.25171,176.59862 272.89921,175.18112 273.56421,173.76362 274.66671,173.02862 275.78671,172.27612 277.13421,172.27612 278.00921,172.27612 278.58671,172.43362 279.18171,172.59112 279.53171,172.78362 279.88171,172.97612 280.02171,173.09862 L 279.53171,174.27112 Q 279.05921,173.92112 278.44671,173.69362 277.85171,173.46612 277.16921,173.46612 276.20671,173.46612 275.40171,174.09612 274.59671,174.72612 274.12421,175.88112 273.65171,177.03612 273.65171,178.61112 273.65171,180.06362 274.05421,181.23612 274.47421,182.39112 275.27921,183.07362 276.08421,183.73862 277.25671,183.73862 277.93921,183.73862 278.27171,183.63362 278.62171,183.52862 278.74421,183.44112 V 178.80362 H 280.10921 V 184.38612 Q 279.75921,184.50862 278.93671,184.71862 278.13171,184.94612 277.08171,184.94612 Z"
         id="path189" />
      <path
         d="M 289.3492,187.88612 Q 288.4042,187.71112 287.4942,187.39612 286.6017,187.08112 285.9367,186.48612 285.2892,185.89112 285.0617,184.87612 283.5217,184.57862 282.5592,183.05612 281.5967,181.53362 281.5967,178.61112 281.5967,176.40612 282.1392,175.00612 282.6992,173.60612 283.6617,172.94112 284.6417,172.27612 285.9192,172.27612 287.1792,172.27612 288.1592,172.94112 289.1392,173.60612 289.6992,175.00612 290.2767,176.40612 290.2767,178.61112 290.2767,180.60612 289.8042,181.93612 289.3492,183.26612 288.5267,184.00112 287.7042,184.71862 286.6367,184.89362 286.7067,185.47112 287.1442,185.83862 287.5817,186.22362 288.2642,186.43362 288.9467,186.64362 289.6817,186.73112 Z M 285.8667,183.75612 Q 287.2667,183.75612 288.0717,182.47862 288.8767,181.18362 288.8767,178.61112 288.8767,176.03862 288.0717,174.76112 287.2667,173.46612 285.8667,173.46612 284.4842,173.46612 283.7492,174.76112 283.0142,176.03862 283.0142,178.61112 283.0142,181.18362 283.7492,182.47862 284.4842,183.75612 285.8667,183.75612 Z"
         id="path191" />
      <path
         d="M 307.28667,180.86862 Q 306.76167,180.86862 306.32417,180.67612 305.90417,180.46612 305.51917,180.22112 305.02917,179.92362 304.57417,179.62612 304.11917,179.32862 303.55917,179.32862 303.15667,179.32862 302.91167,179.59112 302.66667,179.83612 302.54417,180.16862 302.42167,180.48362 302.35167,180.69362 L 301.42417,180.46612 Q 301.52917,180.06362 301.75667,179.53862 301.98417,178.99612 302.45667,178.61112 302.92917,178.20862 303.71667,178.20862 304.24167,178.20862 304.67917,178.41862 305.11667,178.61112 305.50167,178.85612 306.00917,179.13612 306.46417,179.43362 306.93667,179.73112 307.44417,179.73112 307.86417,179.73112 308.09167,179.46862 308.33667,179.20612 308.45917,178.89112 308.58167,178.55862 308.63417,178.34862 L 309.56167,178.61112 Q 309.50917,178.99612 309.26417,179.53862 309.03667,180.06362 308.56417,180.46612 308.09167,180.86862 307.28667,180.86862 Z"
         id="path193" />
      <path
         d="M 313.32417,180.36112 V 179.08362 H 317.31417 V 180.36112 Z"
         id="path195" />
      <path
         d="M 324.52416,183.80862 V 180.13362 H 321.16416 V 178.92612 H 324.52416 V 175.25112 H 325.71416 V 178.92612 H 329.12666 V 180.13362 H 325.71416 V 183.80862 Z"
         id="path197" />
      <path
         d="M 330.96417,178.27862 V 177.08862 H 338.92667 V 178.27862 Z M 330.96417,181.98862 V 180.78112 H 338.92667 V 181.98862 Z"
         id="path199" />
      <path
         d="M 341.21915,183.51112 340.83415,182.39112 347.25665,179.67862 340.83415,177.01862 341.21915,175.91612 348.79665,179.11862 V 180.29112 Z"
         id="path201" />
    </g>
  </g>
</svg>
