<?xml version="1.0" encoding="UTF-8" standalone="no"?>
<!-- Created with Inkscape (http://www.inkscape.org/) -->

<svg
   xmlns:dc="http://purl.org/dc/elements/1.1/"
   xmlns:cc="http://creativecommons.org/ns#"
   xmlns:rdf="http://www.w3.org/1999/02/22-rdf-syntax-ns#"
   xmlns:svg="http://www.w3.org/2000/svg"
   xmlns="http://www.w3.org/2000/svg"
   xmlns:sodipodi="http://sodipodi.sourceforge.net/DTD/sodipodi-0.dtd"
   xmlns:inkscape="http://www.inkscape.org/namespaces/inkscape"
   width="83.875504mm"
   height="30.640352mm"
   viewBox="0 0 297.19667 108.56818"
   id="svg2"
   version="1.1"
   inkscape:version="0.91 r13725"
   sodipodi:docname="VictorMono Nerd Font.svg">
  <defs
     id="defs4" />
  <sodipodi:namedview
     id="base"
     pagecolor="#ffffff"
     bordercolor="#666666"
     borderopacity="1.0"
     inkscape:pageopacity="0.0"
     inkscape:pageshadow="2"
     inkscape:zoom="0.7"
     inkscape:cx="-53.882147"
     inkscape:cy="-401.70325"
     inkscape:document-units="px"
     inkscape:current-layer="layer1"
     showgrid="false"
     inkscape:window-width="1861"
     inkscape:window-height="1056"
     inkscape:window-x="59"
     inkscape:window-y="24"
     inkscape:window-maximized="1" />
  <metadata
     id="metadata7">
    <rdf:RDF>
      <cc:Work
         rdf:about="">
        <dc:format>image/svg+xml</dc:format>
        <dc:type
           rdf:resource="http://purl.org/dc/dcmitype/StillImage" />
        <dc:title />
      </cc:Work>
    </rdf:RDF>
  </metadata>
  <g
     inkscape:label="Layer 1"
     inkscape:groupmode="layer"
     id="layer1"
     transform="translate(-63.882143,-79.233632)">
    <g
       style="font-style:normal;font-weight:normal;font-size:27.5px;line-height:125%;font-family:'VictorMono Nerd Font';text-decoration: underline;text-decoration-line: underline;letter-spacing:0px;word-spacing:0px;fill:#ffffff;fill-opacity:1;stroke:none;stroke-width:1px;stroke-linecap:butt;stroke-linejoin:miter;stroke-opacity:1"
       id="text4136">
      <path
         d="m 63.882143,80.933632 1.875,0 4.6,16.8 4.6,-16.8 1.875,0 -5.575,19.999998 -1.8,0 -5.575,-19.999998 z"
         id="path4140"
         inkscape:connector-curvature="0" />
      <path
         d="m 86.867495,99.333632 4.375,0 0,1.599998 -10.5,0 0,-1.599998 4.375,0 0,-12.25 -3.15,0 0,-1.6 4.9,0 0,13.85 z m -1.225,-16.5 q -1.075,0 -1.5,-0.4 -0.425,-0.4 -0.425,-1.4 0,-1 0.425,-1.4 0.425,-0.4 1.5,-0.4 1.075,0 1.5,0.4 0.425,0.4 0.425,1.4 0,1 -0.425,1.4 -0.425,0.4 -1.5,0.4 z"
         id="path4142"
         inkscape:connector-curvature="0" />
      <path
         d="m 100.77785,101.28363 q -2.350003,0 -3.675003,-0.75 -1.3,-0.774998 -1.875,-2.499998 -0.575,-1.75 -0.575,-4.825 0,-3.075 0.575,-4.8 0.575,-1.75 1.925,-2.5 1.35,-0.775 3.725003,-0.775 1.9,0 3.025,0.625 1.125,0.6 2.2,2.225 l -1.475,0.875 q -0.825,-1.25 -1.6,-1.675 -0.775,-0.45 -2.15,-0.45 -1.750003,0 -2.700003,0.6 -0.95,0.6 -1.375,2 -0.4,1.375 -0.4,3.875 0,2.5 0.4,3.9 0.4,1.375 1.325,1.975 0.95,0.6 2.650003,0.6 1.375,0 2.175,-0.45 0.8,-0.45 1.675,-1.7 l 1.475,0.875 q -1.1,1.624998 -2.25,2.249998 -1.15,0.625 -3.075,0.625 z"
         id="path4144"
         inkscape:connector-curvature="0" />
      <path
         d="m 116.9382,101.28363 q -1.675,0 -2.675,-0.575 -0.975,-0.575 -1.4,-1.799998 -0.425,-1.225 -0.425,-3.3 l 0,-8.6 -3.1,0 0,-1.625 3.1,0 0,-4.45 1.75,0 0,4.45 5.2,0 0,1.625 -5.2,0 0,8.6 q 0,2.225 0.6,3.15 0.625,0.925 2.15,0.925 1.3,0 1.85,-0.3 0.55,-0.325 0.9,-1.25 l 1.625,0.55 q -0.5,1.474998 -1.45,2.049998 -0.95,0.55 -2.925,0.55 z"
         id="path4146"
         inkscape:connector-curvature="0" />
      <path
         d="m 130.29855,101.28363 q -2.15,0 -3.375,-0.775 -1.2,-0.774998 -1.725,-2.499998 -0.525,-1.75 -0.525,-4.8 0,-3.05 0.525,-4.775 0.525,-1.75 1.725,-2.525 1.225,-0.775 3.375,-0.775 2.15,0 3.35,0.775 1.225,0.775 1.75,2.525 0.525,1.725 0.525,4.775 0,3.05 -0.525,4.8 -0.525,1.725 -1.75,2.499998 -1.2,0.775 -3.35,0.775 z m 0,-1.599998 q 1.5,0 2.325,-0.6 0.85,-0.6 1.2,-1.975 0.35,-1.4 0.35,-3.9 0,-2.5 -0.35,-3.875 -0.35,-1.4 -1.2,-2 -0.825,-0.6 -2.325,-0.6 -1.5,0 -2.35,0.6 -0.825,0.6 -1.175,2 -0.35,1.375 -0.35,3.875 0,2.5 0.35,3.9 0.35,1.375 1.175,1.975 0.85,0.6 2.35,0.6 z"
         id="path4148"
         inkscape:connector-curvature="0" />
      <path
         d="m 142.4089,85.483632 0,2.475 q 0.475,-1.125 1.6,-1.975 1.15,-0.85 2.575,-0.85 1.85,0 2.825,0.725 1,0.7 1.75,2.55 l -1.55,0.7 q -0.5,-1.375 -1.125,-1.875 -0.625,-0.5 -1.9,-0.5 -1.475,0 -2.425,0.875 -0.925,0.85 -1.35,2.125 -0.4,1.25 -0.4,2.525 l 0,8.674998 -1.75,0 0,-15.449998 1.75,0 z"
         id="path4150"
         inkscape:connector-curvature="0" />
      <path
         d="m 154.36925,80.933632 1.7,0 4.2,10.95 4.2,-10.95 1.7,0 0.35,19.999998 -1.75,0 -0.275,-15.524998 -3.425,9.2 -1.6,0 -3.425,-9.2 -0.275,15.524998 -1.75,0 0.35,-19.999998 z"
         id="path4152"
         inkscape:connector-curvature="0" />
      <path
         d="m 175.2546,101.28363 q -2.15,0 -3.375,-0.775 -1.2,-0.774998 -1.725,-2.499998 -0.525,-1.75 -0.525,-4.8 0,-3.05 0.525,-4.775 0.525,-1.75 1.725,-2.525 1.225,-0.775 3.375,-0.775 2.15,0 3.35,0.775 1.225,0.775 1.75,2.525 0.525,1.725 0.525,4.775 0,3.05 -0.525,4.8 -0.525,1.725 -1.75,2.499998 -1.2,0.775 -3.35,0.775 z m 0,-1.599998 q 1.5,0 2.325,-0.6 0.85,-0.6 1.2,-1.975 0.35,-1.4 0.35,-3.9 0,-2.5 -0.35,-3.875 -0.35,-1.4 -1.2,-2 -0.825,-0.6 -2.325,-0.6 -1.5,0 -2.35,0.6 -0.825,0.6 -1.175,2 -0.35,1.375 -0.35,3.875 0,2.5 0.35,3.9 0.35,1.375 1.175,1.975 0.85,0.6 2.35,0.6 z"
         id="path4154"
         inkscape:connector-curvature="0" />
      <path
         d="m 186.68996,85.483632 0,1.225 q 0.725,-0.825 1.675,-1.2 0.95,-0.375 2.575,-0.375 1.9,0 2.925,0.55 1.05,0.55 1.5,1.825 0.45,1.275 0.45,3.575 l 0,9.849998 -1.75,0 0,-9.849998 q 0,-1.675 -0.3,-2.6 -0.275,-0.95 -0.95,-1.35 -0.675,-0.4 -1.875,-0.4 -1.725,0 -2.625,0.35 -0.9,0.325 -1.275,1.2 -0.35,0.85 -0.35,2.525 l 0,10.124998 -1.75,0 0,-15.449998 1.75,0 z"
         id="path4156"
         inkscape:connector-curvature="0" />
      <path
         d="m 205.22531,101.28363 q -2.15,0 -3.375,-0.775 -1.2,-0.774998 -1.725,-2.499998 -0.525,-1.75 -0.525,-4.8 0,-3.05 0.525,-4.775 0.525,-1.75 1.725,-2.525 1.225,-0.775 3.375,-0.775 2.15,0 3.35,0.775 1.225,0.775 1.75,2.525 0.525,1.725 0.525,4.775 0,3.05 -0.525,4.8 -0.525,1.725 -1.75,2.499998 -1.2,0.775 -3.35,0.775 z m 0,-1.599998 q 1.5,0 2.325,-0.6 0.85,-0.6 1.2,-1.975 0.35,-1.4 0.35,-3.9 0,-2.5 -0.35,-3.875 -0.35,-1.4 -1.2,-2 -0.825,-0.6 -2.325,-0.6 -1.5,0 -2.35,0.6 -0.825,0.6 -1.175,2 -0.35,1.375 -0.35,3.875 0,2.5 0.35,3.9 0.35,1.375 1.175,1.975 0.85,0.6 2.35,0.6 z"
         id="path4158"
         inkscape:connector-curvature="0" />
      <path
         d="m 239.04601,80.933632 1.75,0 0,19.999998 -1.875,0 -7.575,-16.249998 0,16.249998 -1.75,0 0,-19.999998 1.875,0 7.575,16.25 0,-16.25 z"
         id="path4160"
         inkscape:connector-curvature="0" />
      <path
         d="m 250.25636,85.133632 q 2.2,0 3.4,0.8 1.225,0.775 1.75,2.575 0.525,1.775 0.5,4.95 l -9.95,0 q 0.05,2.4 0.45,3.75 0.4,1.325 1.3,1.9 0.925,0.575 2.55,0.575 1.425,0 2.275,-0.425 0.85,-0.45 1.8,-1.7 l 1.4,0.925 q -1.125,1.574998 -2.325,2.199998 -1.175,0.6 -3.15,0.6 -2.3,0 -3.625,-0.775 -1.3,-0.774998 -1.875,-2.499998 -0.55,-1.75 -0.55,-4.8 0,-3.05 0.55,-4.775 0.575,-1.75 1.875,-2.525 1.325,-0.775 3.625,-0.775 z m 3.875,6.725 q -0.125,-1.975 -0.525,-3.075 -0.4,-1.1 -1.2,-1.575 -0.775,-0.475 -2.15,-0.475 -1.525,0 -2.425,0.475 -0.9,0.475 -1.35,1.6 -0.425,1.1 -0.5,3.05 l 8.15,0 z"
         id="path4162"
         inkscape:connector-curvature="0" />
      <path
         d="m 262.29171,85.483632 0,2.475 q 0.475,-1.125 1.6,-1.975 1.15,-0.85 2.575,-0.85 1.85,0 2.825,0.725 1,0.7 1.75,2.55 l -1.55,0.7 q -0.5,-1.375 -1.125,-1.875 -0.625,-0.5 -1.9,-0.5 -1.475,0 -2.425,0.875 -0.925,0.85 -1.35,2.125 -0.4,1.25 -0.4,2.525 l 0,8.674998 -1.75,0 0,-15.449998 1.75,0 z"
         id="path4164"
         inkscape:connector-curvature="0" />
      <path
         d="m 280.02707,101.28363 q -2.15,0 -3.375,-0.75 -1.2,-0.774998 -1.725,-2.499998 -0.525,-1.75 -0.525,-4.8 0,-3.075 0.525,-4.8 0.525,-1.75 1.725,-2.525 1.225,-0.775 3.375,-0.775 1.4,0 2.375,0.425 0.975,0.4 1.525,1.325 l 0,-5.95 1.75,0 0,19.999998 -1.75,0 0,-0.949998 q -1.05,1.299998 -3.9,1.299998 z m 0,-1.599998 q 1.8,0 2.85,-0.475 1.05,-0.475 1.05,-1.5 l 0,-6.95 q 0,-2.1 -1,-3.05 -1,-0.975 -2.9,-0.975 -1.5,0 -2.325,0.6 -0.825,0.6 -1.2,2 -0.35,1.4 -0.35,3.9 0,2.5 0.35,3.875 0.375,1.375 1.2,1.975 0.825,0.6 2.325,0.6 z"
         id="path4166"
         inkscape:connector-curvature="0" />
      <path
         d="m 316.04777,82.533632 -9.35,0 0,8.175 6,0 0,1.6 -6,0 0,8.624998 -1.75,0 0,-19.999998 11.1,0 0,1.6 z"
         id="path4168"
         inkscape:connector-curvature="0" />
      <path
         d="m 325.10812,101.28363 q -2.15,0 -3.375,-0.775 -1.2,-0.774998 -1.725,-2.499998 -0.525,-1.75 -0.525,-4.8 0,-3.05 0.525,-4.775 0.525,-1.75 1.725,-2.525 1.225,-0.775 3.375,-0.775 2.15,0 3.35,0.775 1.225,0.775 1.75,2.525 0.525,1.725 0.525,4.775 0,3.05 -0.525,4.8 -0.525,1.725 -1.75,2.499998 -1.2,0.775 -3.35,0.775 z m 0,-1.599998 q 1.5,0 2.325,-0.6 0.85,-0.6 1.2,-1.975 0.35,-1.4 0.35,-3.9 0,-2.5 -0.35,-3.875 -0.35,-1.4 -1.2,-2 -0.825,-0.6 -2.325,-0.6 -1.5,0 -2.35,0.6 -0.825,0.6 -1.175,2 -0.35,1.375 -0.35,3.875 0,2.5 0.35,3.9 0.35,1.375 1.175,1.975 0.85,0.6 2.35,0.6 z"
         id="path4170"
         inkscape:connector-curvature="0" />
      <path
         d="m 336.54347,85.483632 0,1.225 q 0.725,-0.825 1.675,-1.2 0.95,-0.375 2.575,-0.375 1.9,0 2.925,0.55 1.05,0.55 1.5,1.825 0.45,1.275 0.45,3.575 l 0,9.849998 -1.75,0 0,-9.849998 q 0,-1.675 -0.3,-2.6 -0.275,-0.95 -0.95,-1.35 -0.675,-0.4 -1.875,-0.4 -1.725,0 -2.625,0.35 -0.9,0.325 -1.275,1.2 -0.35,0.85 -0.35,2.525 l 0,10.124998 -1.75,0 0,-15.449998 1.75,0 z"
         id="path4172"
         inkscape:connector-curvature="0" />
      <path
         d="m 356.70382,101.28363 q -1.675,0 -2.675,-0.575 -0.975,-0.575 -1.4,-1.799998 -0.425,-1.225 -0.425,-3.3 l 0,-8.6 -3.1,0 0,-1.625 3.1,0 0,-4.45 1.75,0 0,4.45 5.2,0 0,1.625 -5.2,0 0,8.6 q 0,2.225 0.6,3.15 0.625,0.925 2.15,0.925 1.3,0 1.85,-0.3 0.55,-0.325 0.9,-1.25 l 1.625,0.55 q -0.5,1.474998 -1.45,2.049998 -0.95,0.55 -2.925,0.55 z"
         id="path4174"
         inkscape:connector-curvature="0" />
    </g>
    <g
       style="font-style:normal;font-weight:normal;font-size:27.5px;line-height:125%;font-family:'VictorMono Nerd Font';letter-spacing:0px;word-spacing:0px;fill:#ffffff;fill-opacity:1;stroke:none;stroke-width:1px;stroke-linecap:butt;stroke-linejoin:miter;stroke-opacity:1"
       id="text4140">
      <path
         d="m 69.778494,141.15635 q -1.320455,0 -2.068182,-0.27045 -0.747727,-0.28637 -1.081818,-0.92273 -0.318182,-0.63636 -0.318182,-1.75 0,-1.19318 0.318182,-1.84545 0.334091,-0.65228 1.065909,-0.92273 0.747727,-0.28637 2.084091,-0.28637 l 2.354545,0 0,-0.82727 q 0,-0.92273 -0.222727,-1.41591 -0.206818,-0.50909 -0.715909,-0.73182 -0.493182,-0.22272 -1.415909,-0.22272 -0.684091,0 -1.097727,0.14318 -0.413637,0.14318 -0.668182,0.49318 -0.238636,0.35 -0.413636,0.98636 l -1.06591,-0.25454 q 0.254546,-0.92273 0.636364,-1.44773 0.381818,-0.525 1.002273,-0.76363 0.620454,-0.23864 1.606818,-0.23864 1.320455,0 2.068182,0.35 0.747727,0.33409 1.065909,1.08182 0.334091,0.73182 0.334091,2.02045 l 0,4.04091 q 0,0.65227 0.111363,0.98636 0.111364,0.31819 0.36591,0.44546 0.254545,0.11136 0.763636,0.0954 l 0,1.03409 q -0.890909,0.0159 -1.336364,-0.22272 -0.445454,-0.25455 -0.636363,-0.90682 -0.445455,0.76364 -1.05,1.06591 -0.604546,0.28636 -1.686364,0.28636 z m 0,-1.01818 q 0.922727,0 1.415909,-0.23864 0.509091,-0.25454 0.715909,-0.82727 0.222727,-0.58864 0.222727,-1.63864 l 0,-1.25681 -2.354545,0 q -0.938636,0 -1.431818,0.175 -0.493182,0.15909 -0.715909,0.60454 -0.206818,0.42955 -0.206818,1.25682 0,0.74773 0.206818,1.16136 0.206818,0.41364 0.715909,0.58864 0.509091,0.175 1.431818,0.175 z"
         style="font-size:17.5px"
         id="path4177"
         inkscape:connector-curvature="0" />
      <path
         d="m 79.919172,141.15635 q -1.304545,0 -2.068182,-0.31818 -0.747727,-0.31818 -1.415909,-1.14545 l 0,-11.48637 1.113637,0 0,3.72273 q 0.35,-0.55682 0.938636,-0.79546 0.588636,-0.25454 1.431818,-0.25454 1.336364,0 2.068182,0.49318 0.747727,0.49318 1.065909,1.60682 0.334091,1.09773 0.334091,3.05454 0,1.94091 -0.334091,3.05455 -0.318182,1.09773 -1.065909,1.59091 -0.731818,0.47727 -2.068182,0.47727 z m 0,-1.01818 q 0.906818,0 1.415909,-0.38182 0.509091,-0.38182 0.715909,-1.25682 0.222728,-0.875 0.222728,-2.46591 0,-1.5909 -0.222728,-2.48181 -0.206818,-0.89091 -0.715909,-1.27273 -0.509091,-0.38182 -1.415909,-0.38182 -0.938636,0 -1.447727,0.23864 -0.493182,0.22272 -0.715909,0.77954 -0.206818,0.55682 -0.206818,1.575 l 0,4.85228 q 0.461363,0.46136 0.970454,0.63636 0.509091,0.15909 1.4,0.15909 z"
         style="font-size:17.5px"
         id="path4179"
         inkscape:connector-curvature="0" />
      <path
         d="m 89.55076,141.15635 q -1.495455,0 -2.338637,-0.47727 -0.827272,-0.49318 -1.193182,-1.59091 -0.365909,-1.11364 -0.365909,-3.07045 0,-1.95682 0.365909,-3.05455 0.36591,-1.11364 1.225,-1.59091 0.859091,-0.49318 2.370455,-0.49318 1.209091,0 1.925,0.39773 0.715909,0.38181 1.4,1.41591 l -0.938636,0.55681 q -0.525,-0.79545 -1.018182,-1.06591 -0.493182,-0.28636 -1.368182,-0.28636 -1.113636,0 -1.718182,0.38182 -0.604545,0.38182 -0.875,1.27273 -0.254545,0.875 -0.254545,2.46591 0,1.5909 0.254545,2.48181 0.254546,0.875 0.843182,1.25682 0.604545,0.38182 1.686364,0.38182 0.875,0 1.384091,-0.28636 0.50909,-0.28637 1.065909,-1.08182 l 0.938636,0.55682 q -0.7,1.03409 -1.431818,1.43181 -0.731818,0.39773 -1.956818,0.39773 z"
         style="font-size:17.5px"
         id="path4181"
         inkscape:connector-curvature="0" />
      <path
         d="m 98.720983,141.15635 q -1.368181,0 -2.147727,-0.47727 -0.763636,-0.49318 -1.097727,-1.59091 -0.334091,-1.11364 -0.334091,-3.05455 0,-1.95681 0.334091,-3.05454 0.334091,-1.11364 1.097727,-1.60682 0.779546,-0.49318 2.147727,-0.49318 0.890909,0 1.511367,0.27045 0.62045,0.25455 0.97045,0.84319 l 0,-3.78637 1.11364,0 0,12.72727 -1.11364,0 0,-0.60454 q -0.66818,0.82727 -2.481817,0.82727 z m 0,-1.01818 q 1.145455,0 1.813637,-0.30227 0.66818,-0.30228 0.66818,-0.95455 l 0,-4.42273 q 0,-1.33636 -0.63636,-1.9409 -0.636366,-0.62046 -1.845457,-0.62046 -0.954545,0 -1.479545,0.38182 -0.525,0.38182 -0.763636,1.27273 -0.222728,0.89091 -0.222728,2.48181 0,1.59091 0.222728,2.46591 0.238636,0.875 0.763636,1.25682 0.525,0.38182 1.479545,0.38182 z"
         style="font-size:17.5px"
         id="path4183"
         inkscape:connector-curvature="0" />
      <path
         d="m 108.38439,130.87908 q 1.4,0 2.16364,0.50909 0.77954,0.49318 1.11363,1.63864 0.33409,1.12954 0.31818,3.15 l -6.33181,0 q 0.0318,1.52727 0.28636,2.38636 0.25454,0.84318 0.82727,1.20909 0.58864,0.36591 1.62273,0.36591 0.90682,0 1.44773,-0.27045 0.54091,-0.28637 1.14545,-1.08182 l 0.89091,0.58863 q -0.71591,1.00228 -1.47955,1.4 -0.74772,0.38182 -2.00454,0.38182 -1.46364,0 -2.30682,-0.49318 -0.82727,-0.49318 -1.19318,-1.59091 -0.35,-1.11364 -0.35,-3.05454 0,-1.94091 0.35,-3.03864 0.36591,-1.11364 1.19318,-1.60682 0.84318,-0.49318 2.30682,-0.49318 z m 2.46591,4.27954 q -0.0795,-1.25681 -0.33409,-1.95681 -0.25455,-0.7 -0.76364,-1.00228 -0.49318,-0.30227 -1.36818,-0.30227 -0.97046,0 -1.54318,0.30227 -0.57273,0.30228 -0.85909,1.01819 -0.27046,0.7 -0.31819,1.9409 l 5.18637,0 z"
         style="font-size:17.5px"
         id="path4185"
         inkscape:connector-curvature="0" />
      <path
         d="m 119.17734,127.98362 q 0.92273,0 1.47955,0.1591 0.57272,0.14318 0.90681,0.50909 0.35,0.35 0.55682,0.98636 l -1.03409,0.35 q -0.14318,-0.39773 -0.35,-0.60455 -0.20682,-0.20681 -0.57273,-0.28636 -0.35,-0.0954 -0.98636,-0.0954 -0.81136,0 -1.25682,0.22272 -0.44545,0.20682 -0.63636,0.71591 -0.175,0.49318 -0.175,1.43182 l 0,1.59091 2.83182,0 0,1.01818 -2.83182,0 0,6.95227 -1.11364,0 0,-6.95227 -1.97273,0 0,-1.01818 1.97273,0 0,-1.59091 q 0,-1.28864 0.30227,-2.02045 0.30228,-0.73182 0.98637,-1.05 0.68409,-0.31819 1.89318,-0.31819 z"
         style="font-size:17.5px"
         id="path4187"
         inkscape:connector-curvature="0" />
      <path
         d="m 127.37711,144.05181 q -0.93864,0 -1.51136,-0.22273 -0.55682,-0.22273 -1.09773,-0.81136 l 0.82727,-0.6841 q 0.38182,0.41364 0.74773,0.55682 0.36591,0.14318 1.03409,0.14318 0.93864,0 1.43182,-0.25454 0.50909,-0.25455 0.71591,-0.85909 0.22272,-0.58864 0.22272,-1.67046 l 0,-1.09772 q -0.35,0.58863 -0.97045,0.85909 -0.62046,0.25454 -1.51136,0.25454 -1.36819,0 -2.14773,-0.49318 -0.76364,-0.49318 -1.09773,-1.60682 -0.33409,-1.12954 -0.33409,-3.11818 0,-1.575 0.33409,-2.46591 0.33409,-0.90682 1.09773,-1.30454 0.77954,-0.39773 2.14773,-0.39773 1.81363,0 2.48181,0.82727 l 0,-0.60454 1.11364,0 0,9.00454 q 0,1.51137 -0.33409,2.35455 -0.31818,0.84318 -1.06591,1.20909 -0.74773,0.38182 -2.08409,0.38182 z m -0.11136,-4.80455 q 1.20909,0 1.84545,-0.60454 0.63636,-0.62046 0.63636,-1.95682 l 0,-3.53182 q 0,-0.65227 -0.66818,-0.95455 -0.66818,-0.30227 -1.81363,-0.30227 -0.95455,0 -1.49546,0.30227 -0.525,0.28637 -0.74773,0.95455 -0.22272,0.66818 -0.22272,1.89318 0,1.62273 0.22272,2.52955 0.22273,0.89091 0.74773,1.28863 0.54091,0.38182 1.49546,0.38182 z"
         style="font-size:17.5px"
         id="path4189"
         inkscape:connector-curvature="0" />
      <path
         d="m 134.78142,128.20635 0,3.64318 q 0.30228,-0.525 0.875,-0.74772 0.57273,-0.22273 1.44773,-0.22273 1.32046,0 2.06818,0.47727 0.74773,0.47727 1.06591,1.55909 0.31818,1.08182 0.31818,3.00682 l 0,5.01136 -1.11363,0 0,-5.01136 q 0,-1.575 -0.22273,-2.43409 -0.20682,-0.85909 -0.71591,-1.225 -0.49318,-0.36591 -1.4,-0.36591 -0.93864,0 -1.43182,0.22273 -0.47727,0.20682 -0.68409,0.76363 -0.20682,0.54091 -0.20682,1.60682 l 0,6.44318 -1.11363,0 0,-12.72727 1.11363,0 z"
         style="font-size:17.5px"
         id="path4191"
         inkscape:connector-curvature="0" />
      <path
         d="m 147.45165,139.91544 2.78409,0 0,1.01818 -6.68182,0 0,-1.01818 2.78409,0 0,-7.79545 -2.00454,0 0,-1.01818 3.11818,0 0,8.81363 z m -0.77955,-10.5 q -0.68409,0 -0.95454,-0.25454 -0.27046,-0.25455 -0.27046,-0.89091 0,-0.63637 0.27046,-0.89091 0.27045,-0.25455 0.95454,-0.25455 0.68409,0 0.95455,0.25455 0.27045,0.25454 0.27045,0.89091 0,0.63636 -0.27045,0.89091 -0.27046,0.25454 -0.95455,0.25454 z"
         style="font-size:17.5px"
         id="path4193"
         inkscape:connector-curvature="0" />
      <path
         d="m 155.03096,144.05181 q -0.93863,0 -1.51136,-0.22273 -0.55682,-0.22273 -1.09773,-0.81136 l 0.82727,-0.6841 q 0.38182,0.41364 0.74773,0.55682 0.36591,0.14318 1.03409,0.14318 0.93864,0 1.43182,-0.27045 0.50909,-0.27045 0.71591,-0.90682 0.22273,-0.63636 0.22273,-1.81363 l 0,-7.92273 -2.00455,0 0,-1.01818 3.11818,0 0,8.94091 q 0,1.54318 -0.33409,2.40227 -0.31818,0.85909 -1.06591,1.225 -0.74772,0.38182 -2.08409,0.38182 z m 2.60909,-14.63637 q -0.68409,0 -0.95454,-0.25454 -0.27046,-0.25455 -0.27046,-0.89091 0,-0.63637 0.27046,-0.89091 0.27045,-0.25455 0.95454,-0.25455 0.68409,0 0.95455,0.25455 0.27045,0.25454 0.27045,0.89091 0,0.63636 -0.27045,0.89091 -0.27046,0.25454 -0.95455,0.25454 z"
         style="font-size:17.5px"
         id="path4195"
         inkscape:connector-curvature="0" />
      <path
         d="m 162.62619,128.20635 1.11363,0 0,6.95227 0.58864,0 3.19773,-4.05681 1.33636,0 -3.54773,4.53409 4.18409,5.29772 -1.33636,0 -3.77046,-4.75681 -0.65227,0 0,4.75681 -1.11363,0 0,-12.72727 z"
         style="font-size:17.5px"
         id="path4197"
         inkscape:connector-curvature="0" />
      <path
         d="m 176.76005,141.15635 q -0.98637,0 -1.54319,-0.33409 -0.54091,-0.33409 -0.77954,-1.09773 -0.22273,-0.76363 -0.22273,-2.16363 l 0,-8.33637 -2.00454,0 0,-1.01818 3.11818,0 0,9.35455 q 0,1.00227 0.12727,1.55909 0.14318,0.54091 0.44545,0.77954 0.30228,0.23864 0.8591,0.23864 0.33409,0 0.62045,-0.14318 0.30227,-0.15909 0.77955,-0.55682 l 0.63636,0.97045 q -0.63636,0.42955 -1.08182,0.58864 -0.42954,0.15909 -0.95454,0.15909 z"
         style="font-size:17.5px"
         id="path4199"
         inkscape:connector-curvature="0" />
      <path
         d="m 181.73027,131.10181 0,0.62045 q 0.31818,-0.46136 0.63636,-0.63636 0.31819,-0.19091 0.85909,-0.19091 0.60455,0 0.92273,0.27045 0.31818,0.27046 0.57273,1.00228 0.39773,-0.73182 0.82727,-1.00228 0.42955,-0.27045 1.12955,-0.27045 0.76363,0 1.17727,0.35 0.42955,0.33409 0.60455,1.12954 0.175,0.79546 0.175,2.24319 l 0,6.3159 -1.11364,0 0,-6.3159 q 0,-0.98637 -0.0955,-1.52728 -0.0795,-0.55682 -0.28636,-0.79545 -0.19091,-0.23864 -0.55682,-0.23864 -0.54091,0 -0.84318,0.23864 -0.28636,0.22273 -0.42954,0.77954 -0.12728,0.54091 -0.12728,1.51137 l 0,6.34772 -1.11363,0 0,-6.22045 q 0,-1.01818 -0.0955,-1.59091 -0.0795,-0.57273 -0.28636,-0.81136 -0.20682,-0.25455 -0.55682,-0.25455 -0.54091,0 -0.84318,0.23864 -0.30227,0.22273 -0.42955,0.76363 -0.12727,0.54091 -0.12727,1.52728 l 0,6.34772 -1.11364,0 0,-9.83181 1.11364,0 z"
         style="font-size:17.5px"
         id="path4201"
         inkscape:connector-curvature="0" />
      <path
         d="m 191.90277,131.10181 0,0.77954 q 0.46136,-0.525 1.06591,-0.76363 0.60454,-0.23864 1.63863,-0.23864 1.20909,0 1.86137,0.35 0.66818,0.35 0.95454,1.16136 0.28636,0.81137 0.28636,2.275 l 0,6.26818 -1.11363,0 0,-6.26818 q 0,-1.06591 -0.19091,-1.65454 -0.175,-0.60455 -0.60455,-0.85909 -0.42954,-0.25455 -1.19318,-0.25455 -1.09773,0 -1.67045,0.22273 -0.57273,0.20682 -0.81137,0.76363 -0.22272,0.54091 -0.22272,1.60682 l 0,6.44318 -1.11364,0 0,-9.83181 1.11364,0 z"
         style="font-size:17.5px"
         id="path4203"
         inkscape:connector-curvature="0" />
      <path
         d="m 203.69799,141.15635 q -1.36818,0 -2.14773,-0.49318 -0.76363,-0.49318 -1.09772,-1.59091 -0.3341,-1.11364 -0.3341,-3.05454 0,-1.94091 0.3341,-3.03864 0.33409,-1.11364 1.09772,-1.60682 0.77955,-0.49318 2.14773,-0.49318 1.36818,0 2.13182,0.49318 0.77954,0.49318 1.11363,1.60682 0.3341,1.09773 0.3341,3.03864 0,1.9409 -0.3341,3.05454 -0.33409,1.09773 -1.11363,1.59091 -0.76364,0.49318 -2.13182,0.49318 z m 0,-1.01818 q 0.95455,0 1.47955,-0.38182 0.5409,-0.38182 0.76363,-1.25682 0.22273,-0.89091 0.22273,-2.48181 0,-1.59091 -0.22273,-2.46591 -0.22273,-0.89091 -0.76363,-1.27273 -0.525,-0.38182 -1.47955,-0.38182 -0.95455,0 -1.49545,0.38182 -0.525,0.38182 -0.74773,1.27273 -0.22273,0.875 -0.22273,2.46591 0,1.5909 0.22273,2.48181 0.22273,0.875 0.74773,1.25682 0.5409,0.38182 1.49545,0.38182 z"
         style="font-size:17.5px"
         id="path4205"
         inkscape:connector-curvature="0" />
      <path
         d="m 210.86367,131.10181 0,0.60454 q 0.66818,-0.82727 2.48182,-0.82727 1.36818,0 2.13181,0.49318 0.77955,0.47727 1.11364,1.59091 0.33409,1.09773 0.33409,3.03864 0,1.95681 -0.33409,3.07045 -0.33409,1.09773 -1.11364,1.59091 -0.76363,0.49318 -2.13181,0.49318 -0.89091,0 -1.51137,-0.25454 -0.62045,-0.27046 -0.97045,-0.85909 l 0,3.78636 -1.11364,0 0,-12.72727 1.11364,0 z m 2.48182,9.03636 q 0.95454,0 1.47954,-0.38182 0.525,-0.38182 0.74773,-1.27273 0.23864,-0.8909 0.23864,-2.48181 0,-1.59091 -0.23864,-2.46591 -0.22273,-0.875 -0.74773,-1.25682 -0.525,-0.38182 -1.47954,-0.38182 -1.14546,0 -1.81364,0.30227 -0.66818,0.30228 -0.66818,0.95455 l 0,4.42273 q 0,1.33636 0.63636,1.95681 0.63637,0.60455 1.84546,0.60455 z"
         style="font-size:17.5px"
         id="path4207"
         inkscape:connector-curvature="0" />
      <path
         d="m 225.14071,140.04272 q -0.35,0.58863 -0.97045,0.85909 -0.62046,0.25454 -1.51137,0.25454 -1.36818,0 -2.14773,-0.49318 -0.76363,-0.49318 -1.09772,-1.59091 -0.33409,-1.11364 -0.33409,-3.07045 0,-1.94091 0.33409,-3.03864 0.33409,-1.11364 1.09772,-1.59091 0.77955,-0.49318 2.14773,-0.49318 1.81364,0 2.48182,0.82727 l 0,-0.60454 1.11364,0 0,12.72727 -1.11364,0 0,-3.78636 z m -2.48182,0.0954 q 1.20909,0 1.84546,-0.60455 0.63636,-0.62045 0.63636,-1.95681 l 0,-4.42273 q 0,-0.65227 -0.66818,-0.95455 -0.66818,-0.30227 -1.81364,-0.30227 -0.95454,0 -1.47954,0.38182 -0.525,0.38182 -0.76364,1.25682 -0.22273,0.875 -0.22273,2.46591 0,1.59091 0.22273,2.48181 0.23864,0.89091 0.76364,1.27273 0.525,0.38182 1.47954,0.38182 z"
         style="font-size:17.5px"
         id="path4209"
         inkscape:connector-curvature="0" />
      <path
         d="m 230.47684,131.10181 0,1.575 q 0.30228,-0.71591 1.01818,-1.25682 0.73182,-0.54091 1.63864,-0.54091 1.17727,0 1.79773,0.46136 0.63636,0.44546 1.11363,1.62273 l -0.98636,0.44545 q -0.31818,-0.875 -0.71591,-1.19318 -0.39773,-0.31818 -1.20909,-0.31818 -0.93864,0 -1.54318,0.55682 -0.58864,0.54091 -0.85909,1.35227 -0.25455,0.79546 -0.25455,1.60682 l 0,5.52045 -1.11363,0 0,-9.83181 1.11363,0 z"
         style="font-size:17.5px"
         id="path4211"
         inkscape:connector-curvature="0" />
      <path
         d="m 241.44479,141.15635 q -1.17727,0 -1.84545,-0.38182 -0.65227,-0.39772 -1.19318,-1.38409 l 0.875,-0.71591 q 0.41363,0.85909 0.85909,1.16137 0.44545,0.30227 1.30454,0.30227 1.17728,0 1.81364,-0.175 0.65227,-0.175 0.90682,-0.58864 0.27045,-0.41363 0.27045,-1.16136 0,-0.65227 -0.22272,-1.01818 -0.22273,-0.36591 -0.76364,-0.57273 -0.525,-0.20682 -1.54318,-0.33409 -1.81364,-0.22273 -2.57728,-0.82727 -0.76363,-0.62046 -0.76363,-1.78182 0,-1.06591 0.35,-1.65455 0.35,-0.60454 1.12954,-0.875 0.79546,-0.27045 2.19546,-0.27045 1.225,0 1.90909,0.33409 0.7,0.31818 1.24091,1.16136 l -0.79546,0.79546 q -0.44545,-0.74773 -0.92272,-1.00227 -0.47728,-0.27046 -1.43182,-0.27046 -1.00227,0 -1.55909,0.175 -0.54091,0.15909 -0.77955,0.54091 -0.22273,0.36591 -0.22273,1.06591 0,0.66818 0.5091,1.03409 0.50909,0.36591 1.75,0.525 1.4,0.19091 2.16363,0.525 0.77955,0.31818 1.11364,0.89091 0.33409,0.57273 0.33409,1.55909 0,1.11364 -0.39773,1.75 -0.38182,0.63636 -1.27273,0.92273 -0.875,0.27045 -2.43409,0.27045 z"
         style="font-size:17.5px"
         id="path4213"
         inkscape:connector-curvature="0" />
      <path
         d="m 252.41274,141.15635 q -1.0659,0 -1.70227,-0.36591 -0.62045,-0.36591 -0.89091,-1.14545 -0.27045,-0.77955 -0.27045,-2.1 l 0,-5.47273 -1.97273,0 0,-1.03409 1.97273,0 0,-2.83182 1.11363,0 0,2.83182 3.3091,0 0,1.03409 -3.3091,0 0,5.47273 q 0,1.41591 0.38182,2.00454 0.39773,0.58864 1.36818,0.58864 0.82728,0 1.17728,-0.19091 0.35,-0.20682 0.57272,-0.79545 l 1.0341,0.35 q -0.31819,0.93863 -0.92273,1.30454 -0.60455,0.35 -1.86137,0.35 z"
         style="font-size:17.5px"
         id="path4215"
         inkscape:connector-curvature="0" />
      <path
         d="m 260.64433,141.15635 q -1.19318,0 -1.86136,-0.35 -0.66818,-0.35 -0.95455,-1.14545 -0.28636,-0.79546 -0.28636,-2.21137 l 0,-6.34772 1.11364,0 0,6.34772 q 0,1.05 0.175,1.62273 0.1909,0.57273 0.60454,0.82727 0.42955,0.23864 1.20909,0.23864 1.06591,0 1.63864,-0.20682 0.58863,-0.20682 0.82727,-0.68409 0.23864,-0.47727 0.23864,-1.36818 l 0,-6.77727 1.11363,0 0,9.83181 -1.11363,0 0,-0.7 q -0.44546,0.5091 -1.05,0.71591 -0.58864,0.20682 -1.65455,0.20682 z"
         style="font-size:17.5px"
         id="path4217"
         inkscape:connector-curvature="0" />
      <path
         d="m 266.53728,131.10181 1.14546,0 2.75227,8.08181 2.75227,-8.08181 1.16137,0 -3.35682,9.83181 -1.11364,0 -3.34091,-9.83181 z"
         style="font-size:17.5px"
         id="path4219"
         inkscape:connector-curvature="0" />
      <path
         d="m 275.64387,131.10181 1.12955,0 1.28863,7.60454 1.4,-4.56591 1.05,0 1.38409,4.55 1.30455,-7.58863 1.12954,0 -1.75,9.83181 -1.05,0 -1.54318,-4.9159 -1.55909,4.9159 -1.05,0 -1.73409,-9.83181 z"
         style="font-size:17.5px"
         id="path4221"
         inkscape:connector-curvature="0" />
      <path
         d="m 293.21409,131.10181 -3.05454,4.91591 3.05454,4.9159 -1.27272,0 -2.41818,-3.89772 -2.41819,3.89772 -1.27272,0 3.05454,-4.9159 -3.05454,-4.91591 1.27272,0 2.41819,3.89772 2.41818,-3.89772 1.27272,0 z"
         style="font-size:17.5px"
         id="path4223"
         inkscape:connector-curvature="0" />
      <path
         d="m 296.41841,144.05181 q -0.50909,0 -0.85909,-0.11137 -0.35,-0.11136 -0.76364,-0.38182 l 0.44546,-0.93863 q 0.42954,0.23863 0.65227,0.31818 0.23864,0.0954 0.525,0.0954 0.65227,0 1.08182,-0.20681 0.42954,-0.19091 0.74772,-0.66819 0.31819,-0.46136 0.60455,-1.32045 l -3.19773,-9.73636 1.16137,0 2.625,8.17727 2.65681,-8.17727 1.17728,0 -3.27728,9.76818 q -0.41363,1.225 -0.875,1.89318 -0.46136,0.68409 -1.09772,0.98636 -0.63637,0.30228 -1.60682,0.30228 z"
         style="font-size:17.5px"
         id="path4225"
         inkscape:connector-curvature="0" />
      <path
         d="m 305.27045,140.24953 5.10682,-8.12954 -5.09091,0 0,-1.01818 6.60227,0 0,0.68409 -5.10682,8.12954 5.12273,0 0,1.01818 -6.63409,0 0,-0.68409 z"
         style="font-size:17.5px"
         id="path4227"
         inkscape:connector-curvature="0" />
      <path
         d="m 73.183039,162.80862 -0.906818,-3.29318 -4.168182,0 -0.906818,3.29318 -1.145454,0 3.531818,-12.72727 1.209091,0 3.531818,12.72727 -1.145455,0 z m -4.804545,-4.31136 3.627273,0 -1.813637,-6.61818 -1.813636,6.61818 z"
         style="font-size:17.5px"
         id="path4229"
         inkscape:connector-curvature="0" />
      <path
         d="m 79.473718,150.08135 q 1.368182,0 2.131818,0.31818 0.779545,0.30228 1.113636,1.00228 0.334091,0.68409 0.334091,1.89318 0,1.14545 -0.302273,1.73409 -0.302272,0.58864 -1.097727,0.95454 0.684091,0.23864 1.065909,0.62046 0.397728,0.36591 0.556818,0.98636 0.175,0.60455 0.175,1.59091 0,1.36818 -0.33409,2.16364 -0.334091,0.77954 -1.113637,1.12954 -0.763636,0.33409 -2.131818,0.33409 l -3.579545,0 0,-12.72727 3.181818,0 z m 0,5.48864 q 0.970454,0 1.495454,-0.19091 0.525,-0.19091 0.747728,-0.66818 0.222727,-0.49318 0.222727,-1.41591 0,-0.85909 -0.222727,-1.32046 -0.222728,-0.47727 -0.747728,-0.66818 -0.525,-0.20682 -1.495454,-0.20682 l -2.068182,0 0,4.47046 2.068182,0 z m 0.397727,6.22045 q 0.970455,0 1.495455,-0.23863 0.525,-0.23864 0.747727,-0.79546 0.222727,-0.55682 0.222727,-1.575 0,-1.05 -0.222727,-1.59091 -0.222727,-0.55682 -0.747727,-0.77954 -0.525,-0.22273 -1.495455,-0.22273 l -2.465909,0 0,5.20227 2.465909,0 z"
         style="font-size:17.5px"
         id="path4231"
         inkscape:connector-curvature="0" />
      <path
         d="m 89.503032,163.03135 q -1.527272,0 -2.386363,-0.62045 -0.859091,-0.63637 -1.240909,-2.05228 -0.365909,-1.4159 -0.365909,-3.92954 0,-2.49773 0.365909,-3.91364 0.381818,-1.41591 1.240909,-2.03636 0.859091,-0.62046 2.386363,-0.62046 1.034091,0 1.686364,0.27046 0.652273,0.25454 1.081818,0.85909 0.445455,0.60455 0.763637,1.68636 l -1.06591,0.36591 q -0.270454,-0.85909 -0.572727,-1.32045 -0.286363,-0.46137 -0.731818,-0.65227 -0.445455,-0.19091 -1.161364,-0.19091 -1.113636,0 -1.734091,0.50909 -0.604545,0.50909 -0.875,1.70227 -0.270454,1.19318 -0.270454,3.34091 0,2.14773 0.270454,3.35682 0.270455,1.19318 0.875,1.71818 0.620455,0.50909 1.734091,0.50909 0.715909,0 1.161364,-0.19091 0.445455,-0.19091 0.731818,-0.63636 0.302273,-0.44546 0.572727,-1.28864 l 1.06591,0.35 q -0.318182,1.06591 -0.747728,1.67046 -0.429545,0.58863 -1.097727,0.85909 -0.652273,0.25454 -1.686364,0.25454 z"
         style="font-size:17.5px"
         id="path4233"
         inkscape:connector-curvature="0" />
      <path
         d="m 99.007347,150.08135 q 1.447723,0 2.259093,0.60455 0.82727,0.60454 1.17727,1.97272 0.35,1.36819 0.35,3.78637 0,2.41818 -0.35,3.78636 -0.35,1.36818 -1.17727,1.97273 -0.81137,0.60454 -2.259093,0.60454 l -3.786364,0 0,-12.72727 3.786364,0 z m 0,11.70909 q 1.034093,0 1.606823,-0.49318 0.57272,-0.49318 0.81136,-1.63864 0.25454,-1.14545 0.25454,-3.21363 0,-2.06818 -0.25454,-3.21364 -0.23864,-1.14545 -0.81136,-1.63863 -0.57273,-0.49319 -1.606823,-0.49319 l -2.672727,0 0,10.69091 2.672727,0 z"
         style="font-size:17.5px"
         id="path4235"
         inkscape:connector-curvature="0" />
      <path
         d="m 112.09121,151.09953 -5.95,0 0,4.47046 3.81818,0 0,1.01818 -3.81818,0 0,5.20227 5.95,0 0,1.01818 -7.06364,0 0,-12.72727 7.06364,0 0,1.01818 z"
         style="font-size:17.5px"
         id="path4237"
         inkscape:connector-curvature="0" />
      <path
         d="m 121.64325,151.09953 -5.95,0 0,5.20228 3.81818,0 0,1.01818 -3.81818,0 0,5.48863 -1.11364,0 0,-12.72727 7.06364,0 0,1.01818 z"
         style="font-size:17.5px"
         id="path4239"
         inkscape:connector-curvature="0" />
      <path
         d="m 127.7112,163.03135 q -1.60682,0 -2.49773,-0.60454 -0.875,-0.60455 -1.25682,-2.02046 -0.38181,-1.41591 -0.38181,-3.96136 0,-2.54546 0.38181,-3.96137 0.38182,-1.4159 1.25682,-2.02045 0.89091,-0.60455 2.49773,-0.60455 1.11364,0 1.79773,0.28637 0.7,0.28636 1.14545,0.95454 0.44546,0.66819 0.76364,1.87728 l -1.06591,0.27045 q -0.23864,-0.92273 -0.57273,-1.41591 -0.31818,-0.50909 -0.81136,-0.73182 -0.47727,-0.22272 -1.25682,-0.22272 -1.16136,0 -1.81364,0.525 -0.65227,0.50909 -0.93863,1.70227 -0.27046,1.19318 -0.27046,3.34091 0,2.14773 0.27046,3.34091 0.28636,1.19318 0.93863,1.71818 0.65228,0.50909 1.81364,0.50909 1.01818,0 1.54318,-0.39773 0.54091,-0.41363 0.90682,-1.46363 l 0,-2.83182 -2.76818,0 0,-1.01818 3.88182,0 0,3.99318 q -0.33409,1.06591 -0.77955,1.65454 -0.42954,0.57273 -1.09773,0.82728 -0.65227,0.25454 -1.68636,0.25454 z"
         style="font-size:17.5px"
         id="path4241"
         inkscape:connector-curvature="0" />
      <path
         d="m 139.42688,150.08135 1.11363,0 0,12.72727 -1.11363,0 0,-6.22045 -4.96364,0 0,6.22045 -1.11363,0 0,-12.72727 1.11363,0 0,5.48864 4.96364,0 0,-5.48864 z"
         style="font-size:17.5px"
         id="path4243"
         inkscape:connector-curvature="0" />
      <path
         d="m 149.61528,151.09953 -2.57727,0 0,10.69091 2.57727,0 0,1.01818 -6.26818,0 0,-1.01818 2.57727,0 0,-10.69091 -2.57727,0 0,-1.01818 6.26818,0 0,1.01818 z"
         style="font-size:17.5px"
         id="path4245"
         inkscape:connector-curvature="0" />
      <path
         d="m 155.4446,163.03135 q -1.05,0 -1.70227,-0.25454 -0.65228,-0.27046 -1.08182,-0.85909 -0.41364,-0.60455 -0.73182,-1.67046 l 1.05,-0.28636 q 0.23864,0.81136 0.525,1.25682 0.30227,0.42954 0.74773,0.62045 0.46136,0.175 1.19318,0.175 1.11363,0 1.71818,-0.44545 0.62045,-0.44546 0.875,-1.47955 0.27045,-1.05 0.27045,-2.95909 l 0,-6.02955 -2.08409,0 0,-1.01818 3.19773,0 0,7.04773 q 0,2.25909 -0.38182,3.53182 -0.36591,1.25682 -1.225,1.81363 -0.84318,0.55682 -2.37045,0.55682 z"
         style="font-size:17.5px"
         id="path4247"
         inkscape:connector-curvature="0" />
      <path
         d="m 168.608,162.80862 -4.21591,-6.22045 -1.225,0 0,6.22045 -1.11363,0 0,-12.72727 1.11363,0 0,5.48864 0.76364,0 4.56591,-5.48864 1.38409,0 -4.725,5.67955 4.75682,7.04772 -1.30455,0 z"
         style="font-size:17.5px"
         id="path4249"
         inkscape:connector-curvature="0" />
      <path
         d="m 172.08277,150.08135 1.11364,0 0,11.70909 5.32954,0 0,1.01818 -6.44318,0 0,-12.72727 z"
         style="font-size:17.5px"
         id="path4251"
         inkscape:connector-curvature="0" />
      <path
         d="m 180.87118,150.08135 1.08182,0 2.67272,6.96818 2.67273,-6.96818 1.08182,0 0.22273,12.72727 -1.11364,0 -0.175,-9.87954 -2.17954,5.85454 -1.01819,0 -2.17954,-5.85454 -0.175,9.87954 -1.11364,0 0.22273,-12.72727 z"
         style="font-size:17.5px"
         id="path4253"
         inkscape:connector-curvature="0" />
      <path
         d="m 196.61186,150.08135 1.11363,0 0,12.72727 -1.19318,0 -4.82045,-10.3409 0,10.3409 -1.11364,0 0,-12.72727 1.19318,0 4.82046,10.34091 0,-10.34091 z"
         style="font-size:17.5px"
         id="path4255"
         inkscape:connector-curvature="0" />
      <path
         d="m 203.69799,163.03135 q -1.47955,0 -2.32273,-0.55682 -0.82727,-0.57272 -1.19318,-1.84545 -0.35,-1.28864 -0.35,-3.54773 l 0,-1.27273 q 0,-2.25909 0.35,-3.53181 0.36591,-1.28864 1.19318,-1.84546 0.84318,-0.57273 2.32273,-0.57273 1.47955,0 2.30682,0.57273 0.84318,0.55682 1.19318,1.84546 0.36591,1.27272 0.36591,3.53181 l 0,1.27273 q 0,2.25909 -0.36591,3.54773 -0.35,1.27273 -1.19318,1.84545 -0.82727,0.55682 -2.30682,0.55682 z m 0,-1.01818 q 1.06591,0 1.65455,-0.44545 0.58863,-0.46137 0.84318,-1.51137 0.25454,-1.06591 0.25454,-2.975 l 0,-1.27273 q 0,-1.90909 -0.25454,-2.95909 -0.25455,-1.06591 -0.84318,-1.51136 -0.58864,-0.46136 -1.65455,-0.46136 -1.08182,0 -1.67045,0.46136 -0.58864,0.44545 -0.84319,1.51136 -0.25454,1.05 -0.23863,2.95909 l 0,1.27273 q 0.0159,1.90909 0.27045,2.975 0.25455,1.05 0.82727,1.51137 0.58864,0.44545 1.65455,0.44545 z"
         style="font-size:17.5px"
         id="path4257"
         inkscape:connector-curvature="0" />
      <path
         d="m 213.5523,150.08135 q 1.36819,0 2.13182,0.35 0.77955,0.33409 1.11364,1.12955 0.33409,0.77954 0.33409,2.14772 0,1.4 -0.33409,2.17955 -0.33409,0.77955 -1.11364,1.11364 -0.76363,0.33409 -2.13182,0.33409 l -2.45,0 0,5.47272 -1.11363,0 0,-12.72727 3.56363,0 z m 0,6.23637 q 0.97046,0 1.49546,-0.22273 0.525,-0.22273 0.74773,-0.77955 0.22272,-0.55682 0.22272,-1.60682 0,-1.01818 -0.22272,-1.575 -0.22273,-0.55681 -0.74773,-0.79545 -0.525,-0.23864 -1.49546,-0.23864 l -2.45,0 0,5.21819 2.45,0 z"
         style="font-size:17.5px"
         id="path4259"
         inkscape:connector-curvature="0" />
      <path
         d="m 224.67935,164.46317 q 0.27045,0 0.62045,-0.0795 0.36591,-0.0636 0.7,-0.14318 1.00227,-0.27045 1.62273,-0.23863 l 0,1.03409 q -0.33409,-0.0318 -0.62046,0.0159 -0.27045,0.0477 -0.50909,0.0954 -0.22272,0.0636 -0.28636,0.0796 -0.41364,0.12727 -0.76364,0.19091 -0.33409,0.0636 -0.76363,0.0636 -0.525,0 -0.89091,-0.12727 -0.36591,-0.11136 -0.82728,-0.35 -0.49318,-0.23864 -0.84318,-0.35 -0.33409,-0.11136 -0.82727,-0.11136 l -0.60455,0 0,-1.0341 q 0.875,0.0477 1.3841,-0.50909 -1.19319,-0.12727 -1.89319,-0.74772 -0.68409,-0.62046 -0.98636,-1.86137 -0.28636,-1.24091 -0.28636,-3.30909 l 0,-1.27273 q 0,-2.25909 0.35,-3.53181 0.36591,-1.28864 1.19318,-1.84546 0.84318,-0.57273 2.32273,-0.57273 1.47954,0 2.30681,0.57273 0.84319,0.55682 1.19319,1.84546 0.3659,1.27272 0.3659,3.53181 l 0,1.27273 q 0,2.1 -0.31818,3.35682 -0.30227,1.24091 -1.01818,1.86136 -0.7,0.60455 -1.94091,0.71591 -0.19091,0.50909 -0.50909,0.77955 0.20682,0.0477 0.57273,0.25454 0.42954,0.20682 0.7,0.30228 0.28636,0.11136 0.55682,0.11136 z m -4.66137,-7.38182 q 0.0159,1.90909 0.27046,2.975 0.25454,1.05 0.82727,1.51137 0.58864,0.44545 1.65455,0.44545 1.0659,0 1.65454,-0.44545 0.58864,-0.46137 0.84318,-1.51137 0.25455,-1.06591 0.25455,-2.975 l 0,-1.27273 q 0,-1.90909 -0.25455,-2.95909 -0.25454,-1.06591 -0.84318,-1.51136 -0.58864,-0.46136 -1.65454,-0.46136 -1.08182,0 -1.67046,0.46136 -0.58864,0.44545 -0.84318,1.51136 -0.25455,1.05 -0.23864,2.95909 l 0,1.27273 z"
         style="font-size:17.5px"
         id="path4261"
         inkscape:connector-curvature="0" />
      <path
         d="m 231.55866,157.3359 -1.51136,0 0,5.47272 -1.11364,0 0,-12.72727 3.56364,0 q 1.36818,0 2.13182,0.35 0.77954,0.33409 1.11363,1.12955 0.33409,0.77954 0.33409,2.14772 0,1.33637 -0.30227,2.11591 -0.30227,0.76364 -1.00227,1.11364 -0.7,0.35 -1.925,0.39773 l 3.65909,5.47272 -1.30455,0 -3.64318,-5.47272 z m -1.51136,-1.01818 2.45,0 q 0.97045,0 1.49545,-0.22273 0.525,-0.22273 0.74773,-0.77955 0.22273,-0.55682 0.22273,-1.60682 0,-1.01818 -0.22273,-1.575 -0.22273,-0.55681 -0.74773,-0.79545 -0.525,-0.23864 -1.49545,-0.23864 l -2.45,0 0,5.21819 z"
         style="font-size:17.5px"
         id="path4263"
         inkscape:connector-curvature="0" />
      <path
         d="m 241.84252,163.03135 q -1.09773,0 -1.79773,-0.175 -0.7,-0.175 -1.17727,-0.58863 -0.47727,-0.41364 -0.85909,-1.14546 l 0.84318,-0.79545 q 0.28637,0.66818 0.62046,1.03409 0.35,0.35 0.89091,0.50909 0.55681,0.14318 1.47954,0.14318 1.01818,0 1.575,-0.23864 0.55682,-0.25454 0.79546,-0.82727 0.23863,-0.58864 0.23863,-1.63864 0,-0.73181 -0.23863,-1.19318 -0.23864,-0.46136 -0.81137,-0.79545 -0.55682,-0.35 -1.60682,-0.7 -1.33636,-0.44546 -2.08409,-0.89091 -0.73182,-0.44546 -1.05,-1.03409 -0.31818,-0.58864 -0.31818,-1.47955 0,-1.27272 0.31818,-1.98863 0.33409,-0.73182 1.08182,-1.05 0.76364,-0.31819 2.1,-0.31819 1.47955,0 2.24318,0.36591 0.77955,0.35 1.32046,1.28864 l -0.77955,0.84318 q -0.28636,-0.58863 -0.62045,-0.89091 -0.31818,-0.31818 -0.82728,-0.44545 -0.49318,-0.14318 -1.33636,-0.14318 -0.93864,0 -1.44773,0.22272 -0.50909,0.20682 -0.73181,0.7 -0.20682,0.49319 -0.20682,1.41591 0,0.63637 0.20682,1.03409 0.22272,0.39773 0.73181,0.7 0.525,0.28637 1.49546,0.58864 1.41591,0.44545 2.19545,0.92273 0.79546,0.47727 1.12955,1.14545 0.35,0.66818 0.35,1.70227 0,1.41591 -0.35,2.22728 -0.35,0.79545 -1.16137,1.14545 -0.79545,0.35 -2.21136,0.35 z"
         style="font-size:17.5px"
         id="path4265"
         inkscape:connector-curvature="0" />
      <path
         d="m 255.80138,150.08135 0,1.01818 -3.86591,0 0,11.70909 -1.11363,0 0,-11.70909 -3.86591,0 0,-1.01818 8.84545,0 z"
         style="font-size:17.5px"
         id="path4267"
         inkscape:connector-curvature="0" />
      <path
         d="m 260.91479,163.03135 q -1.35228,0 -2.11591,-0.46136 -0.74773,-0.47727 -1.08182,-1.54318 -0.33409,-1.06591 -0.33409,-2.95909 l 0,-7.98637 1.11363,0 0,7.98637 q 0,1.52727 0.22273,2.37045 0.22273,0.84318 0.73182,1.20909 0.525,0.36591 1.46364,0.36591 0.93863,0 1.44772,-0.36591 0.525,-0.36591 0.74773,-1.20909 0.22273,-0.84318 0.22273,-2.37045 l 0,-7.98637 1.11363,0 0,7.98637 q 0,1.89318 -0.33409,2.95909 -0.33409,1.06591 -1.09772,1.54318 -0.74773,0.46136 -2.1,0.46136 z"
         style="font-size:17.5px"
         id="path4269"
         inkscape:connector-curvature="0" />
      <path
         d="m 266.33046,150.08135 1.19319,0 2.92727,10.69091 2.92727,-10.69091 1.19318,0 -3.54772,12.72727 -1.14546,0 -3.54773,-12.72727 z"
         style="font-size:17.5px"
         id="path4271"
         inkscape:connector-curvature="0" />
      <path
         d="m 275.59614,150.08135 1.12955,0 1.32045,10.02273 1.41591,-5.96591 1.05,0 1.41591,5.96591 1.32046,-10.02273 1.12954,0 -1.73409,12.72727 -1.08182,0 -1.575,-6.41136 -1.54318,6.41136 -1.11364,0 -1.73409,-12.72727 z"
         style="font-size:17.5px"
         id="path4273"
         inkscape:connector-curvature="0" />
      <path
         d="m 293.58,150.08135 -3.43636,6.36364 3.43636,6.36363 -1.225,0 -2.83181,-5.23409 -2.83182,5.23409 -1.225,0 3.45227,-6.36363 -3.45227,-6.36364 1.225,0 2.83182,5.23409 2.83181,-5.23409 1.225,0 z"
         style="font-size:17.5px"
         id="path4275"
         inkscape:connector-curvature="0" />
      <path
         d="m 298.5025,158.00408 -3.78636,-7.92273 1.20909,0 3.13409,6.53864 3.13409,-6.53864 1.20909,0 -3.78636,7.92273 0,4.80454 -1.11364,0 0,-4.80454 z"
         style="font-size:17.5px"
         id="path4277"
         inkscape:connector-curvature="0" />
      <path
         d="m 304.60227,161.96544 6.61818,-10.86591 -6.58636,0 0,-1.01818 7.95454,0 0,0.85909 -6.61818,10.85 6.58636,0 0,1.01818 -7.95454,0 0,-0.84318 z"
         style="font-size:17.5px"
         id="path4279"
         inkscape:connector-curvature="0" />
      <path
         d="m 70.19213,184.90635 q -1.368181,0 -2.147727,-0.49318 -0.763636,-0.49318 -1.097727,-1.59091 -0.334091,-1.11364 -0.334091,-3.05454 0,-1.94091 0.334091,-3.03864 0.334091,-1.11364 1.097727,-1.60682 0.779546,-0.49318 2.147727,-0.49318 1.368182,0 2.131819,0.49318 0.779545,0.49318 1.113636,1.60682 0.334091,1.09773 0.334091,3.03864 0,1.9409 -0.334091,3.05454 -0.334091,1.09773 -1.113636,1.59091 -0.763637,0.49318 -2.131819,0.49318 z m 0,-1.01818 q 0.954546,0 1.479546,-0.38182 0.540909,-0.38182 0.763636,-1.25682 0.222727,-0.89091 0.222727,-2.48181 0,-1.59091 -0.222727,-2.46591 -0.222727,-0.89091 -0.763636,-1.27273 -0.525,-0.38182 -1.479546,-0.38182 -0.954545,0 -1.495454,0.38182 -0.525,0.38182 -0.747727,1.27273 -0.222728,0.875 -0.222728,2.46591 0,1.5909 0.222728,2.48181 0.222727,0.875 0.747727,1.25682 0.540909,0.38182 1.495454,0.38182 z"
         style="font-size:17.5px"
         id="path4281"
         inkscape:connector-curvature="0" />
      <path
         d="m 79.728263,184.90635 q -1.479545,0 -2.322727,-0.55682 -0.827273,-0.57272 -1.193182,-1.84545 -0.35,-1.28864 -0.35,-3.54773 l 0,-1.27273 q 0,-2.25909 0.35,-3.53181 0.365909,-1.28864 1.193182,-1.84546 0.843182,-0.57273 2.322727,-0.57273 1.479546,0 2.306818,0.57273 0.843182,0.55682 1.193182,1.84546 0.365909,1.27272 0.365909,3.53181 l 0,1.27273 q 0,2.25909 -0.365909,3.54773 -0.35,1.27273 -1.193182,1.84545 -0.827272,0.55682 -2.306818,0.55682 z m 0,-1.01818 q 1.065909,0 1.654546,-0.44545 0.588636,-0.46137 0.843181,-1.51137 0.254546,-1.06591 0.254546,-2.975 l 0,-1.27273 q 0,-1.90909 -0.254546,-2.95909 -0.254545,-1.06591 -0.843181,-1.51136 -0.588637,-0.46136 -1.654546,-0.46136 -1.081818,0 -1.670454,0.46136 -0.588637,0.44545 -0.843182,1.51136 -0.254546,1.05 -0.238637,2.95909 l 0,1.27273 q 0.01591,1.90909 0.270455,2.975 0.254545,1.05 0.827273,1.51137 0.588636,0.44545 1.654545,0.44545 z"
         style="font-size:17.5px"
         id="path4283"
         inkscape:connector-curvature="0" />
      <path
         d="m 89.264396,184.90635 q -1.081818,0 -1.972727,-0.84318 -0.875,-0.84318 -1.384091,-2.33864 -0.509091,-1.49545 -0.509091,-3.40454 0,-1.90909 0.509091,-3.40455 0.509091,-1.49545 1.384091,-2.33863 0.890909,-0.84319 1.972727,-0.84319 1.081818,0 1.956818,0.84319 0.890909,0.84318 1.4,2.33863 0.509091,1.49546 0.509091,3.40455 0,1.90909 -0.509091,3.40454 -0.509091,1.49546 -1.4,2.33864 -0.875,0.84318 -1.956818,0.84318 z m 0,-1.01818 q 0.731818,0 1.368182,-0.71591 0.636363,-0.71591 1.002273,-1.98864 0.381818,-1.27272 0.381818,-2.86363 0,-1.59091 -0.381818,-2.86364 -0.36591,-1.27273 -1.002273,-1.98863 -0.636364,-0.71591 -1.368182,-0.71591 -0.731818,0 -1.368182,0.71591 -0.636363,0.7159 -1.018182,1.98863 -0.365909,1.27273 -0.365909,2.86364 0,1.59091 0.365909,2.86363 0.381819,1.27273 1.018182,1.98864 0.636364,0.71591 1.368182,0.71591 z m 0,-4.67727 q -0.429545,0 -0.7,-0.23864 -0.254545,-0.25454 -0.254545,-0.65227 0,-0.38182 0.254545,-0.62046 0.270455,-0.23863 0.7,-0.23863 0.429545,0 0.684091,0.23863 0.270454,0.23864 0.270454,0.62046 0,0.39773 -0.270454,0.65227 -0.254546,0.23864 -0.684091,0.23864 z"
         style="font-size:17.5px"
         id="path4285"
         inkscape:connector-curvature="0" />
      <path
         d="m 98.800529,184.90635 q -1.479546,0 -2.322727,-0.35 -0.827273,-0.35 -1.193182,-1.14545 -0.365909,-0.81137 -0.365909,-2.22728 0,-0.95454 0.143181,-1.55909 0.159091,-0.62045 0.509091,-1.01818 0.35,-0.39773 0.970455,-0.7 -0.715909,-0.42954 -0.986364,-1.01818 -0.270454,-0.60455 -0.270454,-1.79773 0,-1.27272 0.334091,-1.98863 0.334091,-0.73182 1.081818,-1.05 0.763636,-0.31819 2.1,-0.31819 1.336361,0 2.084091,0.31819 0.76364,0.31818 1.09773,1.05 0.33409,0.71591 0.33409,1.98863 0,1.19318 -0.27046,1.79773 -0.27045,0.58864 -0.98636,1.01818 0.62045,0.30227 0.97045,0.7 0.35,0.39773 0.49319,1.01818 0.15909,0.60455 0.15909,1.55909 0,1.41591 -0.36591,2.22728 -0.36591,0.79545 -1.20909,1.14545 -0.82728,0.35 -2.306821,0.35 z m 0,-7.46136 q 0.954545,0 1.463641,-0.20682 0.50909,-0.20682 0.7159,-0.7 0.22273,-0.50909 0.22273,-1.44773 0,-0.90682 -0.22273,-1.4 -0.20681,-0.50909 -0.73181,-0.71591 -0.509095,-0.22272 -1.447731,-0.22272 -0.938637,0 -1.463637,0.22272 -0.50909,0.20682 -0.731818,0.71591 -0.206818,0.49318 -0.206818,1.4 0,0.93864 0.206818,1.44773 0.222728,0.49318 0.731818,0.7 0.509091,0.20682 1.463637,0.20682 z m 0,6.44318 q 1.081818,0 1.670451,-0.23864 0.60455,-0.25454 0.84319,-0.82727 0.25454,-0.58864 0.25454,-1.63864 0,-1.09772 -0.25454,-1.67045 -0.23864,-0.57273 -0.82728,-0.81136 -0.588634,-0.23864 -1.686361,-0.23864 -1.097727,0 -1.686364,0.23864 -0.588636,0.23863 -0.843182,0.81136 -0.238636,0.57273 -0.238636,1.67045 0,1.05 0.238636,1.63864 0.254546,0.57273 0.843182,0.82727 0.604546,0.23864 1.686364,0.23864 z"
         style="font-size:17.5px"
         id="path4287"
         inkscape:connector-curvature="0" />
      <path
         d="m 118.84325,183.66544 2.78409,0 0,1.01818 -6.68182,0 0,-1.01818 2.78409,0 0,-7.79545 -2.00454,0 0,-1.01818 3.11818,0 0,8.81363 z m -0.77955,-10.5 q -0.68409,0 -0.95454,-0.25454 -0.27046,-0.25455 -0.27046,-0.89091 0,-0.63637 0.27046,-0.89091 0.27045,-0.25455 0.95454,-0.25455 0.68409,0 0.95455,0.25455 0.27045,0.25454 0.27045,0.89091 0,0.63636 -0.27045,0.89091 -0.27046,0.25454 -0.95455,0.25454 z"
         style="font-size:17.5px"
         id="path4289"
         inkscape:connector-curvature="0" />
      <path
         d="m 130.54302,172.97453 -2.57727,0 0,10.69091 2.57727,0 0,1.01818 -6.26818,0 0,-1.01818 2.57727,0 0,-10.69091 -2.57727,0 0,-1.01818 6.26818,0 0,1.01818 z"
         style="font-size:17.5px"
         id="path4291"
         inkscape:connector-curvature="0" />
      <path
         d="m 138.61551,184.90635 q -0.98636,0 -1.54318,-0.33409 -0.54091,-0.33409 -0.77954,-1.09773 -0.22273,-0.76363 -0.22273,-2.16363 l 0,-8.33637 -2.00455,0 0,-1.01818 3.11819,0 0,9.35455 q 0,1.00227 0.12727,1.55909 0.14318,0.54091 0.44545,0.77954 0.30228,0.23864 0.85909,0.23864 0.3341,0 0.62046,-0.14318 0.30227,-0.15909 0.77954,-0.55682 l 0.63637,0.97045 q -0.63637,0.42955 -1.08182,0.58864 -0.42955,0.15909 -0.95455,0.15909 z"
         style="font-size:17.5px"
         id="path4293"
         inkscape:connector-curvature="0" />
      <path
         d="m 143.47437,171.95635 1.11364,0 0,11.70909 5.32955,0 0,1.01818 -6.44319,0 0,-12.72727 z"
         style="font-size:17.5px"
         id="path4295"
         inkscape:connector-curvature="0" />
      <path
         d="m 158.83323,183.66544 0,1.01818 -5.63181,0 0,-1.01818 2.25909,0 0,-9.03636 q -0.98637,0.85909 -2.57728,0.85909 l 0,-1.03409 q 1.2091,0 1.89319,-0.65227 0.68409,-0.66819 0.68409,-1.84546 l 1.11363,0 0,11.70909 2.25909,0 z"
         style="font-size:17.5px"
         id="path4297"
         inkscape:connector-curvature="0" />
      <path
         d="m 178.0805,186.99044 q -1.94091,0 -2.86364,-0.74772 -0.92272,-0.73182 -0.92272,-2.49773 0,-0.50909 0.15909,-1.49546 0.12727,-0.89091 0.12727,-1.20909 0,-0.85909 -2.52955,-2.72045 2.52955,-1.90909 2.52955,-2.78409 0,-0.31818 -0.12727,-1.08182 -0.15909,-0.95455 -0.15909,-1.54318 0,-1.76591 0.92272,-2.51364 0.92273,-0.74773 2.86364,-0.74773 l 0,1.03409 q -1.38409,0 -2.03636,0.525 -0.65228,0.5091 -0.65228,1.76591 0,0.38182 0.0477,0.74773 0.0636,0.35 0.12727,0.65227 0.12728,0.7 0.12728,1.00228 0,0.82727 -0.49319,1.54318 -0.49318,0.7 -1.47954,1.4 1.00227,0.7 1.47954,1.38409 0.49319,0.66818 0.49319,1.49545 0,0.30228 -0.12728,1.00228 -0.15909,0.82727 -0.15909,1.49545 0,1.25682 0.65228,1.75 0.65227,0.50909 2.02045,0.50909 l 0,1.03409 z"
         style="font-size:17.5px"
         id="path4299"
         inkscape:connector-curvature="0" />
      <path
         d="m 181.63482,185.95635 q 1.36818,0 2.02045,-0.50909 0.65227,-0.49318 0.65227,-1.75 0,-0.66818 -0.15909,-1.49545 -0.12727,-0.7 -0.12727,-1.00228 0,-0.82727 0.47727,-1.49545 0.49318,-0.68409 1.49546,-1.38409 -0.98637,-0.7 -1.47955,-1.4 -0.49318,-0.71591 -0.49318,-1.54318 0,-0.30228 0.12727,-1.00228 0.0636,-0.30227 0.11137,-0.65227 0.0636,-0.36591 0.0636,-0.74773 0,-1.25681 -0.65227,-1.76591 -0.65227,-0.525 -2.03636,-0.525 l 0,-1.03409 q 1.9409,0 2.86363,0.74773 0.92273,0.74773 0.92273,2.51364 0,0.58863 -0.15909,1.54318 -0.12727,0.76364 -0.12727,1.08182 0,0.875 2.52954,2.78409 -2.52954,1.86136 -2.52954,2.72045 0,0.31818 0.12727,1.20909 0.15909,0.98637 0.15909,1.49546 0,1.76591 -0.92273,2.49773 -0.92273,0.74772 -2.86363,0.74772 l 0,-1.03409 z"
         style="font-size:17.5px"
         id="path4301"
         inkscape:connector-curvature="0" />
      <path
         d="m 206.40254,170.66772 -3.6591,0 0,15.30454 3.6591,0 0,1.01818 -4.77273,0 0,-17.34091 4.77273,0 0,1.01819 z"
         style="font-size:17.5px"
         id="path4303"
         inkscape:connector-curvature="0" />
      <path
         d="m 210.78412,169.64953 4.77273,0 0,17.34091 -4.77273,0 0,-1.01818 3.65909,0 0,-15.30454 -3.65909,0 0,-1.01819 z"
         style="font-size:17.5px"
         id="path4305"
         inkscape:connector-curvature="0" />
      <path
         d="m 232.27457,187.80181 q -0.93864,0 -1.51136,-0.22273 -0.55682,-0.22273 -1.09773,-0.81136 l 0.82727,-0.6841 q 0.38182,0.41364 0.74773,0.55682 0.36591,0.14318 1.03409,0.14318 0.93864,0 1.43182,-0.25454 0.50909,-0.25455 0.71591,-0.85909 0.22272,-0.58864 0.22272,-1.67046 l 0,-1.09772 q -0.35,0.58863 -0.97045,0.85909 -0.62045,0.25454 -1.51136,0.25454 -1.36819,0 -2.14773,-0.49318 -0.76364,-0.49318 -1.09773,-1.60682 -0.33409,-1.12954 -0.33409,-3.11818 0,-1.575 0.33409,-2.46591 0.33409,-0.90682 1.09773,-1.30454 0.77954,-0.39773 2.14773,-0.39773 1.81363,0 2.48181,0.82727 l 0,-0.60454 1.11364,0 0,9.00454 q 0,1.51137 -0.33409,2.35455 -0.31818,0.84318 -1.06591,1.20909 -0.74773,0.38182 -2.08409,0.38182 z m -0.11136,-4.80455 q 1.20909,0 1.84545,-0.60454 0.63636,-0.62046 0.63636,-1.95682 l 0,-3.53182 q 0,-0.65227 -0.66818,-0.95455 -0.66818,-0.30227 -1.81363,-0.30227 -0.95455,0 -1.49546,0.30227 -0.525,0.28637 -0.74773,0.95455 -0.22272,0.66818 -0.22272,1.89318 0,1.62273 0.22272,2.52955 0.22273,0.89091 0.74773,1.28863 0.54091,0.38182 1.49546,0.38182 z"
         style="font-size:17.5px"
         id="path4307"
         inkscape:connector-curvature="0" />
      <path
         d="m 241.84252,184.90635 q -1.41591,0 -2.22727,-0.28636 -0.79546,-0.30227 -1.16137,-0.97046 -0.3659,-0.68409 -0.3659,-1.86136 l 1.12954,0 q 0,0.81136 0.23864,1.27273 0.25454,0.44545 0.81136,0.63636 0.55682,0.19091 1.575,0.19091 1.03409,0 1.59091,-0.30227 0.57273,-0.31818 0.81136,-1.03409 0.23864,-0.71591 0.23864,-2.03637 l 0,-1.60682 q -0.44545,0.57273 -1.03409,0.79546 -0.58864,0.22273 -1.60682,0.22273 -1.44773,0 -2.25909,-0.36591 -0.79545,-0.38182 -1.14545,-1.25682 -0.35,-0.89091 -0.35,-2.48182 0,-1.55909 0.35,-2.43409 0.35,-0.875 1.16136,-1.25682 0.81136,-0.39773 2.24318,-0.39773 1.43182,0 2.24318,0.38182 0.81137,0.38182 1.16137,1.25682 0.35,0.875 0.35,2.43409 l 0,4.70909 q 0,1.67046 -0.35,2.625 -0.35,0.93864 -1.16137,1.35228 -0.81136,0.41363 -2.24318,0.41363 z m 0,-5.99773 q 1.05,0 1.60682,-0.27045 0.55682,-0.27045 0.79545,-0.92273 0.23864,-0.66818 0.23864,-1.90909 0,-1.19318 -0.23864,-1.84545 -0.23863,-0.65228 -0.81136,-0.92273 -0.55682,-0.28636 -1.59091,-0.28636 -1.03409,0 -1.60682,0.28636 -0.55682,0.27045 -0.79545,0.93864 -0.23864,0.65227 -0.23864,1.84545 0,1.24091 0.23864,1.89318 0.23863,0.65228 0.79545,0.92273 0.55682,0.27045 1.60682,0.27045 z"
         style="font-size:17.5px"
         id="path4309"
         inkscape:connector-curvature="0" />
      <path
         d="m 253.74911,183.79272 q -0.35,0.58863 -0.97046,0.85909 -0.62045,0.25454 -1.51136,0.25454 -1.36818,0 -2.14773,-0.49318 -0.76363,-0.49318 -1.09772,-1.59091 -0.3341,-1.11364 -0.3341,-3.07045 0,-1.94091 0.3341,-3.03864 0.33409,-1.11364 1.09772,-1.59091 0.77955,-0.49318 2.14773,-0.49318 1.81364,0 2.48182,0.82727 l 0,-0.60454 1.11363,0 0,12.72727 -1.11363,0 0,-3.78636 z m -2.48182,0.0954 q 1.20909,0 1.84545,-0.60455 0.63637,-0.62045 0.63637,-1.95681 l 0,-4.42273 q 0,-0.65227 -0.66818,-0.95455 -0.66819,-0.30227 -1.81364,-0.30227 -0.95455,0 -1.47955,0.38182 -0.525,0.38182 -0.76363,1.25682 -0.22273,0.875 -0.22273,2.46591 0,1.59091 0.22273,2.48181 0.23863,0.89091 0.76363,1.27273 0.525,0.38182 1.47955,0.38182 z"
         style="font-size:17.5px"
         id="path4311"
         inkscape:connector-curvature="0" />
      <path
         d="m 261.15342,184.90635 q -1.52727,0 -2.38636,-0.62045 -0.85909,-0.63637 -1.24091,-2.05228 -0.36591,-1.4159 -0.36591,-3.92954 0,-2.49773 0.36591,-3.91364 0.38182,-1.41591 1.24091,-2.03636 0.85909,-0.62046 2.38636,-0.62046 1.03409,0 1.68637,0.27046 0.65227,0.25454 1.08181,0.85909 0.44546,0.60455 0.76364,1.68636 l -1.06591,0.36591 q -0.27045,-0.85909 -0.57273,-1.32045 -0.28636,-0.46137 -0.73181,-0.65227 -0.44546,-0.19091 -1.16137,-0.19091 -1.11363,0 -1.73409,0.50909 -0.60454,0.50909 -0.875,1.70227 -0.27045,1.19318 -0.27045,3.34091 0,2.14773 0.27045,3.35682 0.27046,1.19318 0.875,1.71818 0.62046,0.50909 1.73409,0.50909 0.71591,0 1.16137,-0.19091 0.44545,-0.19091 0.73181,-0.63636 0.30228,-0.44546 0.57273,-1.28864 l 1.06591,0.35 q -0.31818,1.06591 -0.74773,1.67046 -0.42954,0.58863 -1.09772,0.85909 -0.65228,0.25454 -1.68637,0.25454 z"
         style="font-size:17.5px"
         id="path4313"
         inkscape:connector-curvature="0" />
      <path
         d="m 270.75319,184.90635 q -1.60682,0 -2.49773,-0.60454 -0.875,-0.60455 -1.25681,-2.02046 -0.38182,-1.41591 -0.38182,-3.96136 0,-2.54546 0.38182,-3.96137 0.38181,-1.4159 1.25681,-2.02045 0.89091,-0.60455 2.49773,-0.60455 1.11364,0 1.79773,0.28637 0.7,0.28636 1.14545,0.95454 0.44546,0.66819 0.76364,1.87728 l -1.06591,0.27045 q -0.23864,-0.92273 -0.57273,-1.41591 -0.31818,-0.50909 -0.81136,-0.73182 -0.47727,-0.22272 -1.25682,-0.22272 -1.16136,0 -1.81363,0.525 -0.65228,0.50909 -0.93864,1.70227 -0.27046,1.19318 -0.27046,3.34091 0,2.14773 0.27046,3.34091 0.28636,1.19318 0.93864,1.71818 0.65227,0.50909 1.81363,0.50909 1.01818,0 1.54318,-0.39773 0.54091,-0.41363 0.90682,-1.46363 l 0,-2.83182 -2.76818,0 0,-1.01818 3.88182,0 0,3.99318 q -0.33409,1.06591 -0.77955,1.65454 -0.42954,0.57273 -1.09772,0.82728 -0.65228,0.25454 -1.68637,0.25454 z"
         style="font-size:17.5px"
         id="path4315"
         inkscape:connector-curvature="0" />
      <path
         d="m 281.89614,186.33817 q 0.27046,0 0.62046,-0.0795 0.36591,-0.0636 0.7,-0.14318 1.00227,-0.27045 1.62272,-0.23863 l 0,1.03409 q -0.33409,-0.0318 -0.62045,0.0159 -0.27045,0.0477 -0.50909,0.0954 -0.22273,0.0636 -0.28636,0.0796 -0.41364,0.12727 -0.76364,0.19091 -0.33409,0.0636 -0.76364,0.0636 -0.525,0 -0.89091,-0.12727 -0.36591,-0.11136 -0.82727,-0.35 -0.49318,-0.23864 -0.84318,-0.35 -0.33409,-0.11136 -0.82727,-0.11136 l -0.60455,0 0,-1.0341 q 0.875,0.0477 1.38409,-0.50909 -1.19318,-0.12727 -1.89318,-0.74772 -0.68409,-0.62046 -0.98636,-1.86137 -0.28637,-1.24091 -0.28637,-3.30909 l 0,-1.27273 q 0,-2.25909 0.35,-3.53181 0.36591,-1.28864 1.19318,-1.84546 0.84319,-0.57273 2.32273,-0.57273 1.47955,0 2.30682,0.57273 0.84318,0.55682 1.19318,1.84546 0.36591,1.27272 0.36591,3.53181 l 0,1.27273 q 0,2.1 -0.31818,3.35682 -0.30227,1.24091 -1.01818,1.86136 -0.7,0.60455 -1.94091,0.71591 -0.19091,0.50909 -0.50909,0.77955 0.20682,0.0477 0.57272,0.25454 0.42955,0.20682 0.7,0.30228 0.28637,0.11136 0.55682,0.11136 z m -4.66136,-7.38182 q 0.0159,1.90909 0.27045,2.975 0.25455,1.05 0.82728,1.51137 0.58863,0.44545 1.65454,0.44545 1.06591,0 1.65455,-0.44545 0.58863,-0.46137 0.84318,-1.51137 0.25454,-1.06591 0.25454,-2.975 l 0,-1.27273 q 0,-1.90909 -0.25454,-2.95909 -0.25455,-1.06591 -0.84318,-1.51136 -0.58864,-0.46136 -1.65455,-0.46136 -1.08182,0 -1.67045,0.46136 -0.58864,0.44545 -0.84318,1.51136 -0.25455,1.05 -0.23864,2.95909 l 0,1.27273 z"
         style="font-size:17.5px"
         id="path4317"
         inkscape:connector-curvature="0" />
      <path
         d="m 311.61818,177.8109 0,1.01818 -6.04546,0 q -1.11363,0 -1.76591,0.15909 -0.66818,0.14318 -1.35227,0.42955 -0.47727,0.1909 -0.77954,0.28636 -0.31819,0.0795 -0.74773,0.0795 -0.54091,0 -1.12955,-0.30227 -0.60454,-0.31818 -1.12954,-0.77954 -0.39773,-0.38182 -0.79546,-0.60455 -0.39772,-0.22273 -0.7,-0.22273 -0.63636,0 -0.97045,0.36591 -0.33409,0.35 -0.28636,0.93864 l -1.12955,0 q -0.0477,-1.03409 0.60455,-1.67046 0.63636,-0.65227 1.78181,-0.65227 0.54091,0 1.14546,0.31818 0.58863,0.30228 1.11363,0.76364 0.39773,0.38182 0.79546,0.60455 0.39773,0.22272 0.7,0.22272 0.20682,0 0.42954,-0.0636 0.20682,-0.0636 0.54091,-0.20682 0.73182,-0.30227 1.55909,-0.49318 0.81137,-0.19091 2.11591,-0.19091 l 6.04546,0 z"
         style="font-size:17.5px"
         id="path4319"
         inkscape:connector-curvature="0" />
      <path
         d="m 322.52249,177.8109 0,1.01818 -3.88182,0 0,3.88182 -1.01818,0 0,-3.88182 -3.88182,0 0,-1.01818 3.88182,0 0,-3.88182 1.01818,0 0,3.88182 3.88182,0 z"
         style="font-size:17.5px"
         id="path4321"
         inkscape:connector-curvature="0" />
      <path
         d="m 334.30839,172.54499 6.57046,5.775 -6.57046,5.74318 -0.74772,-0.74773 2.94318,-2.57727 -13.23636,0 0,-1.01818 14.39772,0 1.60682,-1.4 -1.59091,-1.4 -14.41363,0 0,-1.01818 13.25227,0 -2.95909,-2.60909 0.74772,-0.74773 z"
         style="font-size:17.5px"
         id="path4323"
         inkscape:connector-curvature="0" />
    </g>
  </g>
</svg>
