<svg xmlns="http://www.w3.org/2000/svg" width="316.663" height="114.874" viewBox="0 0 296.872 107.694"><g font-weight="400" font-family="VictorMono Nerd Font" letter-spacing="0" word-spacing="0" fill="#fff"><g style="line-height:125%;text-decoration-line:underline" font-size="27.5" text-decoration="underline"><path d="M7.1 20.825H5.5L0 .825h1.6L6.3 18.1 11 .825h1.6l-5.5 20zM27.06 19.45v1.375H16.81V19.45h4.375V6.75h-3.35V5.375h4.85V19.45h4.375zM21.535 2.8q-.85 0-1.175-.3-.325-.325-.325-1.125 0-.775.325-1.075.325-.3 1.175-.3.85 0 1.175.3.325.3.325 1.075 0 .8-.325 1.125-.325.3-1.175.3zM41.87 18.45Q40.82 20 39.697 20.6q-1.1.575-2.975.575-2.3 0-3.6-.75-1.3-.75-1.85-2.475-.55-1.75-.55-4.85 0-3.1.55-4.825.575-1.75 1.875-2.5 1.325-.75 3.675-.75 1.85 0 2.925.575 1.1.575 2.125 2.125l-1.275.75q-.8-1.2-1.6-1.625-.8-.45-2.175-.45-1.8 0-2.8.625-.975.6-1.4 2.05-.4 1.425-.4 4.025 0 2.6.4 4.05.425 1.425 1.375 2.05.975.6 2.725.6 1.375 0 2.2-.45.825-.45 1.7-1.65l1.25.75zM52.881 21.175q-1.65 0-2.6-.55-.95-.575-1.375-1.775-.4-1.225-.4-3.25V6.7h-3.1V5.325h3.1v-4.5h1.5v4.5h5.2V6.7h-5.2v8.9q0 2.275.625 3.25.65.95 2.25.95 1.3 0 1.875-.325.6-.325.95-1.2l1.4.5q-.475 1.375-1.4 1.9-.9.5-2.825.5zM66.241 21.175q-2.1 0-3.3-.75-1.175-.775-1.7-2.5-.5-1.725-.5-4.825t.5-4.825q.525-1.725 1.7-2.475 1.2-.775 3.3-.775 2.1 0 3.275.775 1.2.75 1.7 2.475.525 1.725.525 4.825t-.525 4.825q-.5 1.725-1.7 2.5-1.175.75-3.275.75zm0-1.375q1.55 0 2.4-.6.85-.625 1.225-2.05.375-1.45.375-4.05 0-2.6-.375-4.025-.375-1.45-1.225-2.05-.85-.625-2.4-.625-1.55 0-2.4.625-.85.6-1.225 2.05-.375 1.425-.375 4.025 0 2.6.375 4.05.375 1.425 1.225 2.05.85.6 2.4.6zM78.227 5.375V7.6q.675-1.45 1.625-2 .95-.575 2.675-.575 1.775 0 2.725.675.975.675 1.7 2.425l-1.325.6q-.5-1.325-1.175-1.825-.65-.5-1.925-.5-1.675 0-2.6.65-.9.65-1.3 2.175-.4 1.5-.4 4.225v7.375h-1.5V5.375h1.5zM91.937.825l4.275 11.3 4.275-11.3h1.5l.35 20h-1.5l-.3-16.2-3.6 9.775h-1.45l-3.6-9.775-.3 16.2h-1.5l.35-20h1.5zM111.197 21.175q-2.1 0-3.3-.75-1.175-.775-1.7-2.5-.5-1.725-.5-4.825t.5-4.825q.525-1.725 1.7-2.475 1.2-.775 3.3-.775 2.1 0 3.275.775 1.2.75 1.7 2.475.525 1.725.525 4.825t-.525 4.825q-.5 1.725-1.7 2.5-1.175.75-3.275.75zm0-1.375q1.55 0 2.4-.6.85-.625 1.225-2.05.375-1.45.375-4.05 0-2.6-.375-4.025-.375-1.45-1.225-2.05-.85-.625-2.4-.625-1.55 0-2.4.625-.85.6-1.225 2.05-.375 1.425-.375 4.025 0 2.6.375 4.05.375 1.425 1.225 2.05.85.6 2.4.6zM126.883 5.15q1.825 0 2.85.55 1.025.525 1.45 1.75.45 1.225.45 3.425v9.95h-1.5v-9.95q0-1.7-.3-2.625t-1-1.325q-.675-.4-1.95-.4-1.775 0-2.7.325-.9.3-1.3 1.175-.375.85-.375 2.575v10.225h-1.5V5.375h1.5v1.4q.7-.925 1.65-1.275.95-.35 2.725-.35zM141.168 21.175q-2.1 0-3.3-.75-1.175-.775-1.7-2.5-.5-1.725-.5-4.825t.5-4.825q.525-1.725 1.7-2.475 1.2-.775 3.3-.775 2.1 0 3.275.775 1.2.75 1.7 2.475.525 1.725.525 4.825t-.525 4.825q-.5 1.725-1.7 2.5-1.175.75-3.275.75zm0-1.375q1.55 0 2.4-.6.85-.625 1.225-2.05.375-1.45.375-4.05 0-2.6-.375-4.025-.375-1.45-1.225-2.05-.85-.625-2.4-.625-1.55 0-2.4.625-.85.6-1.225 2.05-.375 1.425-.375 4.025 0 2.6.375 4.05.375 1.425 1.225 2.05.85.6 2.4.6zM176.614.825v20h-1.65l-7.8-16.875v16.875h-1.5v-20h1.65l7.8 16.875V.825h1.5zM186.2 5.025q2.124 0 3.324.775 1.2.75 1.7 2.525.525 1.775.5 4.925h-9.95q.025 2.525.45 3.925t1.35 2.025q.95.6 2.625.6 1.45 0 2.3-.425.85-.45 1.8-1.65l1.2.8q-1.1 1.5-2.25 2.075-1.125.575-3.05.575-2.275 0-3.55-.75-1.275-.775-1.825-2.5t-.55-4.825q0-3.1.55-4.825T182.65 5.8q1.275-.775 3.55-.775zm4 6.825q-.126-2.1-.55-3.275-.4-1.175-1.226-1.675-.8-.5-2.225-.5-1.6 0-2.525.525-.925.5-1.375 1.675-.425 1.15-.5 3.25h8.4zM198.11 5.375V7.6q.675-1.45 1.625-2 .95-.575 2.675-.575 1.775 0 2.725.675.975.675 1.7 2.425l-1.325.6q-.5-1.325-1.175-1.825-.65-.5-1.925-.5-1.675 0-2.6.65-.9.65-1.3 2.175-.4 1.5-.4 4.225v7.375h-1.5V5.375h1.5zM221.495 20.825h-1.5V19.7q-.55.8-1.55 1.125-1 .35-2.475.35-2.1 0-3.3-.75-1.175-.75-1.7-2.475-.5-1.725-.5-4.825t.5-4.825q.525-1.75 1.7-2.5 1.2-.775 3.3-.775 1.5 0 2.5.475 1.025.45 1.525 1.525v-6.2h1.5v20zM215.97 19.8q1.825 0 2.925-.5 1.1-.5 1.1-1.6v-7.15q0-4.15-4.025-4.15-1.55 0-2.4.625-.85.625-1.225 2.075-.375 1.425-.375 4.025 0 2.575.375 4.025.375 1.425 1.225 2.05.85.6 2.4.6zM242.516 2.1v8.6h6v1.4h-6v8.85h-1.5V.7h10.85v1.4h-9.35zM261.051 21.175q-2.1 0-3.3-.75-1.175-.775-1.7-2.5-.5-1.725-.5-4.825t.5-4.825q.525-1.725 1.7-2.475 1.2-.775 3.3-.775 2.1 0 3.275.775 1.2.75 1.7 2.475.525 1.725.525 4.825t-.525 4.825q-.5 1.725-1.7 2.5-1.175.75-3.275.75zm0-1.375q1.55 0 2.4-.6.85-.625 1.225-2.05.375-1.45.375-4.05 0-2.6-.375-4.025-.375-1.45-1.225-2.05-.85-.625-2.4-.625-1.55 0-2.4.625-.85.6-1.225 2.05-.375 1.425-.375 4.025 0 2.6.375 4.05.375 1.425 1.225 2.05.85.6 2.4.6zM276.736 5.15q1.825 0 2.85.55 1.025.525 1.45 1.75.45 1.225.45 3.425v9.95h-1.5v-9.95q0-1.7-.3-2.625t-1-1.325q-.675-.4-1.95-.4-1.775 0-2.7.325-.9.3-1.3 1.175-.375.85-.375 2.575v10.225h-1.5V5.375h1.5v1.4q.7-.925 1.65-1.275.95-.35 2.725-.35zM292.647 21.175q-1.65 0-2.6-.55-.95-.575-1.375-1.775-.4-1.225-.4-3.25V6.7h-3.1V5.325h3.1v-4.5h1.5v4.5h5.2V6.7h-5.2v8.9q0 2.275.625 3.25.65.95 2.25.95 1.3 0 1.875-.325.6-.325.95-1.2l1.4.5q-.475 1.375-1.4 1.9-.9.5-2.825.5z"/></g><g style="line-height:125%" font-size="17.5"><path d="M9.11 58.311q0 .669.111 1.019.112.334.366.477.27.143.764.143v.875q-.891.016-1.305-.255-.413-.27-.572-.986-.43.827-1.034 1.146-.605.318-1.719.318-1.304 0-2.036-.27-.716-.271-1.034-.892-.318-.62-.318-1.734 0-1.177.318-1.83.318-.652 1.034-.922.732-.286 2.036-.286h2.434v-.923q0-.97-.222-1.511-.223-.541-.748-.764-.525-.239-1.464-.239-1.018 0-1.495.35-.461.334-.732 1.257l-.923-.223q.255-.875.62-1.368.383-.493.971-.7.605-.223 1.56-.223 1.304 0 2.02.335.732.318 1.05 1.05.318.731.318 2.036v4.12zm-3.389 1.862q.955 0 1.464-.255.525-.254.748-.859.222-.604.222-1.702v-1.352H5.721q-.954 0-1.48.19-.508.191-.731.653-.223.445-.223 1.304 0 .78.223 1.225.223.43.732.62.525.176 1.48.176zM15.862 50.77q1.305 0 2.02.494.732.477 1.05 1.59.319 1.098.319 3.071t-.319 3.07q-.318 1.098-1.05 1.575-.715.478-2.02.478-1.273 0-2.02-.303-.732-.318-1.385-1.113V48.098h.955v3.882q.334-.653.939-.923.62-.287 1.511-.287zm0 9.403q.939 0 1.464-.382.525-.398.747-1.305.223-.922.223-2.561 0-1.655-.223-2.561-.222-.923-.747-1.32-.525-.399-1.464-.399-.955 0-1.48.24-.525.238-.747.81-.223.573-.223 1.623v5.027q.493.478 1.002.653.525.175 1.448.175zM28.77 59.314q-.667.986-1.383 1.368-.7.366-1.893.366-1.464 0-2.291-.478-.828-.477-1.178-1.575-.35-1.113-.35-3.086 0-1.973.35-3.07.366-1.114 1.194-1.591.843-.478 2.338-.478 1.178 0 1.862.366.7.366 1.352 1.353l-.811.477q-.51-.764-1.019-1.034-.509-.287-1.384-.287-1.145 0-1.782.398-.62.382-.89 1.305-.255.907-.255 2.561 0 1.655.255 2.577.27.907.875 1.305.62.382 1.734.382.875 0 1.4-.287.525-.286 1.081-1.05l.796.478zM38.18 60.825h-.955v-.716q-.35.51-.986.716-.637.223-1.575.223-1.337 0-2.1-.478-.748-.477-1.082-1.575-.318-1.097-.318-3.07 0-1.973.318-3.07.334-1.114 1.082-1.591.763-.494 2.1-.494.954 0 1.59.303.653.286.971.97v-3.945h.955v12.727zm-3.516-.652q1.161 0 1.861-.318.7-.319.7-1.019v-4.55q0-2.64-2.561-2.64-.987 0-1.527.397-.541.398-.78 1.32-.239.907-.239 2.562 0 1.639.239 2.561.239.907.78 1.305.54.382 1.527.382zM44.327 50.77q1.353 0 2.116.494.764.477 1.082 1.606.334 1.13.318 3.135h-6.332q.016 1.606.287 2.497.27.891.859 1.289.604.382 1.67.382.923 0 1.464-.27.54-.287 1.145-1.05l.764.508q-.7.955-1.432 1.32-.716.367-1.94.367-1.448 0-2.26-.478-.811-.493-1.161-1.59-.35-1.098-.35-3.07 0-1.974.35-3.071.35-1.098 1.161-1.575.812-.494 2.26-.494zm2.546 4.344q-.08-1.337-.35-2.084-.255-.748-.78-1.066-.509-.319-1.416-.319-1.018 0-1.607.335-.588.318-.875 1.065-.27.732-.318 2.069h5.346zM55.12 47.875q.891 0 1.432.143.54.143.875.477.334.319.54.907l-.89.318q-.223-.572-.62-.763-.398-.207-1.337-.207-.843 0-1.304.223-.446.222-.653.747-.19.525-.19 1.48v1.718h2.831v.891h-2.832v7.016h-.954v-7.016h-1.973v-.89h1.973V51.2q0-1.273.286-1.989.287-.716.955-1.018.668-.318 1.861-.318zM63.32 63.943q-.907 0-1.448-.207-.54-.206-1.05-.747l.7-.589q.366.382.748.525.382.143 1.05.143.955 0 1.48-.27.525-.255.747-.875.223-.62.223-1.75v-1.32q-.318.683-.97.986-.637.286-1.591.286-1.337 0-2.1-.477-.748-.493-1.082-1.607-.318-1.114-.318-3.102 0-1.591.318-2.482.334-.907 1.082-1.289.763-.398 2.1-.398.938 0 1.575.223.636.207.986.716v-.716h.955v9.037q0 1.51-.319 2.338-.318.843-1.05 1.21-.731.365-2.036.365zm-.111-4.693q2.561 0 2.561-2.64v-3.628q0-.7-.7-1.018-.7-.319-1.861-.319-.987 0-1.544.303-.54.302-.78 1.018-.222.7-.222 1.973 0 1.67.239 2.593.238.923.78 1.32.54.398 1.527.398zM70.645 48.098v3.786q.27-.604.875-.859.604-.255 1.527-.255 1.289 0 2.005.462.731.461 1.05 1.543.318 1.066.318 2.975v5.075h-.955V55.75q0-1.59-.223-2.466-.222-.89-.747-1.257-.51-.382-1.448-.382-.955 0-1.464.223t-.731.796q-.207.556-.207 1.654v6.507h-.955V48.098h.955zM86.099 59.95v.875h-6.523v-.875h2.784v-8.082H80.23v-.875h3.086v8.957h2.784zm-3.516-10.595q-.54 0-.748-.191-.206-.207-.206-.716 0-.493.206-.684.207-.191.748-.191t.748.19q.207.192.207.685 0 .509-.207.716-.207.19-.748.19zM94.378 50.993v9.005q0 1.527-.318 2.37-.318.843-1.05 1.21-.732.365-2.036.365-.907 0-1.448-.207-.54-.206-1.05-.747l.7-.589q.366.382.748.525.382.143 1.05.143.954 0 1.48-.286.524-.27.747-.939.223-.652.223-1.845v-8.13h-2.005v-.875h2.96zm-.636-1.638q-.54 0-.748-.191-.207-.207-.207-.716 0-.493.207-.684.207-.191.748-.191.54 0 .748.19.207.192.207.685 0 .509-.207.716-.207.19-.748.19zM99.603 56.005v4.82h-.954V48.098h.954v7.016h.7l3.198-4.12h1.161l-3.5 4.533 4.137 5.298h-1.162l-3.77-4.82h-.764zM111.35 48.098v9.609q0 .97.112 1.495.111.525.366.748.254.223.732.223.35 0 .62-.128.287-.143.748-.525l.557.828q-.541.397-.955.54-.413.16-.97.16-.828 0-1.305-.303-.461-.318-.668-1.034-.19-.716-.19-2.004v-8.734h-2.117v-.875h3.07zM117.37 50.993v.764q.303-.557.669-.764.366-.207 1.018-.207.668 0 1.002.303.35.286.59 1.066.397-.78.842-1.066.462-.303 1.241-.303.764 0 1.193.334.43.335.605 1.13.19.78.19 2.195v6.38h-.954v-6.38q0-1.018-.111-1.575-.096-.572-.35-.81-.239-.255-.668-.255-.62 0-.97.254-.335.239-.478.811-.143.557-.143 1.575v6.38h-.955v-6.284q0-1.066-.111-1.639-.096-.588-.334-.843-.239-.254-.684-.254-.62 0-.97.254-.335.239-.478.811-.143.557-.143 1.575v6.38h-.955v-9.832h.955zM130.55 50.85q1.162 0 1.814.35.652.334.923 1.114.286.78.286 2.18v6.331h-.955v-6.332q0-1.082-.19-1.67-.191-.589-.637-.843-.43-.255-1.24-.255-1.13 0-1.719.207-.573.19-.827.748-.239.54-.239 1.638v6.507h-.954v-9.832h.954v.891q.446-.589 1.05-.811.605-.223 1.734-.223zM139.64 61.048q-1.336 0-2.1-.478-.747-.493-1.081-1.59-.318-1.098-.318-3.07 0-1.974.318-3.071.334-1.098 1.082-1.575.763-.494 2.1-.494 1.336 0 2.084.494.764.477 1.082 1.575.334 1.097.334 3.07 0 1.973-.334 3.07-.318 1.098-1.082 1.591-.748.478-2.084.478zm0-.875q.987 0 1.528-.382.541-.398.78-1.305.238-.922.238-2.577 0-1.654-.238-2.561-.239-.923-.78-1.305-.54-.398-1.527-.398-.987 0-1.527.398-.541.382-.78 1.305-.239.907-.239 2.561 0 1.655.239 2.577.239.907.78 1.305.54.382 1.527.382zM145.772 50.993h.955v.716q.35-.509.986-.716.637-.223 1.575-.223 1.337 0 2.084.478.764.477 1.082 1.575.334 1.097.334 3.07 0 1.973-.334 3.087-.318 1.097-1.082 1.59-.747.478-2.084.478-.954 0-1.606-.287-.637-.302-.955-.986v3.945h-.955V50.993zm3.516.652q-1.161 0-1.861.319-.7.318-.7 1.018v4.55q0 2.64 2.561 2.64.987 0 1.528-.397.54-.398.78-1.305.238-.922.238-2.577 0-1.638-.239-2.545-.238-.923-.78-1.305-.54-.398-1.527-.398zM161.163 59.775q-.318.684-.97.986-.637.287-1.591.287-1.337 0-2.1-.478-.748-.493-1.082-1.59-.318-1.114-.318-3.087t.318-3.07q.334-1.098 1.082-1.575.763-.478 2.1-.478.938 0 1.575.223.636.207.986.716v-.716h.955V63.72h-.955v-3.945zm-2.561-8.13q-.987 0-1.528.398-.54.382-.78 1.305-.238.907-.238 2.545 0 1.655.239 2.577.239.907.78 1.305.54.398 1.527.398 2.561 0 2.561-2.641v-4.55q0-.7-.7-1.018-.7-.319-1.861-.319zM166.34 50.993v1.416q.43-.923 1.034-1.273.605-.366 1.703-.366 1.13 0 1.734.43.62.43 1.081 1.543l-.843.382q-.318-.843-.747-1.161-.414-.319-1.225-.319-1.066 0-1.655.414-.573.414-.827 1.384-.255.955-.255 2.689v4.693h-.954v-9.832h.954zM180.554 52.855q-.43-.7-.923-.955-.493-.255-1.448-.255-1.034 0-1.607.175-.557.175-.795.59-.239.397-.239 1.129 0 .7.525 1.097.525.398 1.814.557 1.368.191 2.116.51.763.317 1.082.89.334.573.334 1.543 0 1.114-.382 1.75-.366.62-1.241.891-.86.27-2.402.27-1.146 0-1.782-.365-.637-.366-1.162-1.32l.748-.605q.398.811.86 1.113.46.303 1.336.303 1.193 0 1.845-.191.668-.191.939-.62.286-.43.286-1.226 0-.684-.239-1.066-.238-.397-.795-.604-.54-.223-1.575-.35-1.782-.223-2.53-.827-.731-.62-.731-1.75 0-1.066.334-1.655t1.097-.843q.78-.27 2.164-.27 1.193 0 1.846.318.668.302 1.209 1.097l-.684.669zM188.356 61.048q-1.05 0-1.655-.35-.604-.366-.875-1.13-.254-.78-.254-2.068v-5.664h-1.973v-.875h1.973v-2.863h.954v2.863h3.31v.875h-3.31V57.5q0 1.448.398 2.068.413.605 1.432.605.827 0 1.193-.207.382-.207.604-.764l.891.318q-.302.875-.89 1.21-.573.318-1.798.318zM196.587 61.048q-1.161 0-1.813-.334-.653-.35-.94-1.13-.27-.78-.27-2.18v-6.41h.955v6.41q0 1.082.19 1.671.192.589.621.843.446.255 1.257.255 1.082 0 1.67-.207.605-.223.86-.716.254-.493.254-1.416v-6.84h.955v9.831h-.955v-.811q-.445.588-1.05.811-.604.223-1.734.223zM203.578 50.993l2.8 8.289 2.8-8.289h1.002l-3.309 9.832h-.986l-3.293-9.832h.986zM218.46 60.825h-.923l-1.607-5.186-1.623 5.186h-.923l-1.702-9.832h.97l1.321 7.939 1.496-4.837h.922l1.48 4.837 1.336-7.939h.97l-1.718 9.832zM226.007 55.91l3.007 4.915h-1.082l-2.466-4.025L223 60.825h-1.082l3.007-4.916-3.007-4.916H223l2.466 4.025 2.466-4.025h1.082l-3.007 4.916zM232.361 63.943q-.477 0-.811-.095-.334-.096-.716-.35l.382-.796q.382.207.62.287.239.08.525.08.684 0 1.13-.208.445-.207.763-.7.335-.477.62-1.368l-3.18-9.8h1.001l2.689 8.448 2.72-8.448h1.003l-3.246 9.816q-.397 1.21-.859 1.877-.445.668-1.082.955-.62.302-1.559.302zM247.768 60.825h-6.475v-.589l5.154-8.368h-5.138v-.875h6.443v.589l-5.155 8.368h5.17v.875zM8.283 79.343H3.987L3.065 82.7h-.987L5.61 69.973h1.05L10.192 82.7h-.987l-.922-3.357zm-.239-.89l-1.909-6.985-1.91 6.984h3.82zM17.405 75.875q.732.239 1.146.62.413.366.588.987.175.604.175 1.623 0 1.368-.334 2.147-.318.78-1.082 1.114-.747.334-2.084.334h-3.5V69.973h3.103q1.336 0 2.084.302.763.302 1.081.986.335.684.335 1.894 0 1.193-.335 1.781-.318.589-1.177.939zm-1.988-.35q1.002 0 1.543-.207.54-.207.763-.716.239-.509.239-1.447 0-.907-.239-1.4-.222-.494-.78-.7-.54-.207-1.526-.207h-2.148v4.677h2.148zm.397 6.3q.987 0 1.528-.239.556-.254.78-.843.238-.588.238-1.638 0-1.066-.239-1.64-.223-.572-.764-.81-.54-.24-1.543-.24H13.27v5.41h2.545zM25.446 82.923q-1.511 0-2.355-.605-.827-.62-1.193-2.036-.366-1.432-.366-3.962 0-2.53.366-3.93.366-1.415 1.193-2.02.844-.62 2.355-.62 1.002 0 1.639.255.636.238 1.05.827.43.573.747 1.607l-.907.334q-.27-.843-.588-1.305-.302-.461-.764-.652-.445-.191-1.177-.191-1.146 0-1.782.525-.636.525-.907 1.75-.27 1.225-.27 3.42 0 2.212.27 3.437.27 1.225.907 1.766.636.525 1.782.525.732 0 1.177-.191.462-.191.764-.637.318-.445.588-1.272l.907.318q-.318 1.034-.747 1.607-.414.557-1.05.811-.62.239-1.64.239zM34.95 69.973q1.416 0 2.212.604.81.589 1.145 1.957.35 1.352.35 3.802t-.35 3.819q-.334 1.352-1.145 1.956-.796.589-2.212.589h-3.707V69.973h3.707zm0 11.852q1.066 0 1.655-.51.588-.508.843-1.685.254-1.178.254-3.294t-.254-3.293q-.255-1.177-.843-1.686-.589-.51-1.655-.51h-2.752v10.978h2.752zM42.005 70.848v4.677h3.818v.89h-3.818v5.41h5.95v.875H41.05V69.973h6.905v.875h-5.95zM51.557 70.784v5.473h3.818v.89h-3.818v5.633h-.955V69.893h6.905v.891h-5.95zM63.654 82.875q-1.559 0-2.434-.605-.875-.62-1.257-2.02-.366-1.4-.366-3.914 0-2.513.366-3.913.382-1.4 1.257-2.005.875-.62 2.434-.62 1.082 0 1.75.286.684.27 1.114.907.445.636.747 1.782l-.922.222q-.239-.906-.557-1.4-.318-.493-.827-.7-.494-.222-1.305-.222-1.193 0-1.861.525-.668.525-.955 1.75-.286 1.209-.286 3.388 0 2.18.286 3.405.287 1.209.955 1.734.668.525 1.861.525 1.066 0 1.607-.398.54-.413.923-1.495v-2.96h-2.769v-.89h3.723v3.977q-.334 1.018-.763 1.591-.43.557-1.066.811-.637.239-1.655.239zM76.404 69.973V82.7h-.955v-6.284h-5.122V82.7h-.955V69.973h.955v5.552h5.122v-5.552h.955zM82.901 70.848v10.977h2.578v.875h-6.11v-.875h2.578V70.848H79.37v-.875h6.109v.875H82.9zM95.285 69.973v7.111q0 2.243-.366 3.5-.366 1.257-1.209 1.798-.827.54-2.323.54-1.018 0-1.654-.238-.62-.254-1.034-.811-.414-.573-.732-1.607l.89-.239q.24.796.542 1.225.318.43.78.62.46.176 1.208.176 1.13 0 1.766-.446.637-.461.907-1.527.27-1.066.27-2.99v-6.237h-2.083v-.875h3.038zM100.271 76.416h-1.24V82.7h-.955V69.973h.954v5.552h.875l4.582-5.552h1.177l-4.74 5.743 4.804 6.984h-1.13l-4.327-6.284zM109.06 81.825h5.33v.875h-6.285V69.973h.955v11.852zM117.848 69.973l2.72 7.19 2.721-7.19h.955l.222 12.727h-.954l-.191-10.31-2.291 6.221h-.923l-2.29-6.22-.192 10.309h-.954l.223-12.727h.954zM133.589 69.973V82.7h-1.05l-4.964-10.739V82.7h-.954V69.973h1.05l4.963 10.738V69.973h.955zM139.64 82.923q-1.447 0-2.274-.557-.812-.557-1.162-1.83-.35-1.288-.35-3.563V75.7q0-2.275.35-3.548.35-1.288 1.162-1.845.827-.557 2.275-.557t2.259.557q.827.557 1.177 1.845.35 1.273.35 3.548v1.273q0 2.275-.35 3.563-.35 1.273-1.177 1.83-.811.557-2.26.557zm0-.875q1.099 0 1.703-.462.605-.477.86-1.559.27-1.097.27-3.054V75.7q0-1.957-.27-3.039-.255-1.097-.86-1.559-.604-.477-1.702-.477-1.098 0-1.718.477-.605.462-.875 1.56-.255 1.081-.239 3.038v1.273q.016 1.957.27 3.054.27 1.082.875 1.56.605.46 1.687.46zM149.495 69.973q1.337 0 2.084.334.764.334 1.082 1.113.334.78.334 2.148 0 1.384-.334 2.148-.318.764-1.066 1.098-.748.334-2.1.334h-2.53V82.7h-.954V69.973h3.484zm0 6.3q.987 0 1.527-.239.557-.239.78-.811.239-.589.239-1.655t-.239-1.638q-.223-.59-.78-.828-.54-.254-1.527-.254h-2.53v5.425h2.53zM160.622 84.498q.43 0 1.352-.223.51-.127.844-.19.334-.065.668-.049v.875q-.35-.016-.637.032-.27.064-.715.175-.414.127-.764.191-.334.064-.748.064-.509 0-.859-.112-.35-.111-.795-.35-.478-.238-.844-.366-.365-.11-.89-.11h-.525v-.892q1.002.048 1.51-.636-1.256-.08-1.972-.668-.7-.605-1.018-1.862-.302-1.257-.302-3.404V75.7q0-2.275.35-3.548.35-1.288 1.161-1.845.827-.557 2.275-.557t2.26.557q.826.557 1.176 1.845.35 1.273.35 3.548v1.273q0 2.132-.302 3.372-.302 1.241-1.002 1.846-.684.604-1.91.716-.079.254-.254.477-.175.239-.382.398.191.047.669.286.461.223.731.318.287.112.573.112zm-4.74-7.525q.015 1.957.27 3.054.27 1.082.875 1.56.604.46 1.686.46 1.098 0 1.702-.46.605-.478.86-1.56.27-1.097.27-3.054V75.7q0-1.957-.27-3.039-.255-1.097-.86-1.559-.604-.477-1.702-.477-1.098 0-1.718.477-.605.462-.875 1.56-.255 1.081-.239 3.038v1.273zM167.533 77.148h-1.622V82.7h-.955V69.973h3.484q1.337 0 2.084.334.764.334 1.082 1.113.334.78.334 2.148 0 1.337-.318 2.1-.302.764-1.002 1.114-.7.334-1.957.366l3.643 5.552h-1.114l-3.659-5.552zm-1.622-.875h2.53q.986 0 1.526-.239.557-.239.78-.811.239-.589.239-1.655t-.239-1.638q-.223-.59-.78-.828-.54-.254-1.527-.254h-2.53v5.425zM180.601 72.04q-.286-.556-.62-.858-.334-.302-.86-.43-.508-.127-1.336-.127-.97 0-1.495.223-.525.222-.748.747-.223.51-.223 1.464 0 .668.223 1.098.223.413.748.732.525.318 1.511.62 1.4.43 2.18.907.78.477 1.113 1.145.335.653.335 1.687 0 1.416-.35 2.211-.335.78-1.114 1.13-.78.334-2.18.334-1.066 0-1.75-.175-.684-.16-1.161-.557-.461-.398-.827-1.098l.716-.668q.27.636.62.986.366.334.923.494.573.143 1.48.143 1.05 0 1.622-.255.573-.254.811-.859.255-.604.255-1.686 0-.764-.255-1.241-.238-.493-.827-.843-.573-.366-1.638-.732-1.32-.43-2.053-.86-.716-.445-1.034-1.033-.302-.589-.302-1.48 0-1.273.318-1.973.318-.716 1.05-1.018.732-.318 2.052-.318 1.448 0 2.196.35.748.334 1.273 1.225l-.653.716zM191.665 70.848h-3.866V82.7h-.955V70.848h-3.866v-.875h8.687v.875zM200.31 77.99q0 1.894-.318 2.96-.318 1.05-1.066 1.511-.748.462-2.068.462t-2.069-.462q-.747-.461-1.065-1.511-.319-1.066-.319-2.96v-8.017h.955v8.018q0 1.575.223 2.45.238.859.763 1.24.541.367 1.512.367.97 0 1.495-.366.541-.382.764-1.241.238-.875.238-2.45v-8.018h.955v8.018zM206.903 82.7h-1.018l-3.5-12.727h1.018l2.99 10.993 2.992-10.993h1.018l-3.5 12.727zM212.589 69.973l1.368 10.452 1.512-6.332h.922l1.512 6.332 1.368-10.452h.97L218.507 82.7h-.938l-1.64-6.745-1.622 6.745h-.954l-1.734-12.727h.97zM225.991 76.336l3.405 6.364h-1.05l-2.88-5.377-2.88 5.377h-1.05l3.405-6.364-3.405-6.363h1.05l2.88 5.377 2.88-5.377h1.05l-3.405 6.363zM235.48 82.7h-.955v-4.852l-3.755-7.875h1.05l3.182 6.682 3.182-6.682h1.05l-3.755 7.875V82.7zM247.306 70.848h-6.65v-.875h7.796v.763l-6.682 11.089h6.65v.875h-7.795v-.748l6.681-11.104zM6.135 104.798q-1.336 0-2.1-.478-.748-.493-1.082-1.59-.318-1.098-.318-3.07 0-1.974.318-3.071.334-1.098 1.082-1.575.764-.494 2.1-.494t2.084.494q.764.477 1.082 1.575.334 1.097.334 3.07 0 1.973-.334 3.07-.318 1.098-1.082 1.591-.748.478-2.084.478zm0-.875q.986 0 1.527-.382.541-.398.78-1.305.238-.922.238-2.577 0-1.654-.238-2.561-.239-.923-.78-1.305-.54-.398-1.527-.398-.986 0-1.527.398-.541.382-.78 1.305-.238.907-.238 2.561 0 1.655.238 2.577.239.907.78 1.305.54.382 1.527.382zM15.671 104.798q-1.448 0-2.275-.557-.811-.557-1.161-1.83-.35-1.288-.35-3.563v-1.273q0-2.275.35-3.548.35-1.288 1.161-1.845.827-.557 2.275-.557t2.26.557q.826.557 1.176 1.845.35 1.273.35 3.548v1.273q0 2.275-.35 3.563-.35 1.273-1.177 1.83-.811.557-2.259.557zm0-.875q1.098 0 1.702-.462.605-.477.86-1.559.27-1.097.27-3.054v-1.273q0-1.957-.27-3.039-.255-1.097-.86-1.559-.604-.477-1.702-.477-1.098 0-1.718.477-.605.462-.875 1.56-.255 1.081-.239 3.038v1.273q.016 1.957.27 3.054.271 1.082.876 1.56.604.46 1.686.46zM25.207 104.798q-1.13 0-1.988-.828-.86-.827-1.337-2.322-.461-1.496-.461-3.437 0-1.94.461-3.436.478-1.495 1.337-2.323.859-.827 1.988-.827 1.13 0 1.989.827.859.828 1.32 2.323.478 1.495.478 3.436 0 1.941-.478 3.437-.461 1.495-1.32 2.322-.86.828-1.989.828zm0-.875q.828 0 1.464-.716.652-.716 1.002-2.005.366-1.304.366-2.99 0-1.687-.366-2.976-.35-1.304-1.002-2.02-.636-.716-1.464-.716-.827 0-1.48.716-.636.716-1.002 2.02-.35 1.289-.35 2.975 0 1.687.35 2.991.366 1.289 1.003 2.005.652.716 1.48.716zm0-4.884q-.397 0-.636-.223-.239-.239-.239-.605t.239-.572q.239-.223.636-.223.398 0 .637.223.238.206.238.572t-.238.605q-.239.223-.637.223zM36.843 97.814q.653.286 1.019.684.365.397.525 1.018.159.604.159 1.59 0 1.417-.35 2.212-.35.796-1.178 1.146-.811.334-2.275.334-1.463 0-2.29-.334-.812-.35-1.162-1.146-.35-.795-.35-2.211 0-.987.16-1.591.158-.62.524-1.018t1.018-.684q-.763-.43-1.05-1.034-.286-.62-.286-1.83 0-1.273.318-1.989.318-.716 1.05-1.018.748-.318 2.068-.318t2.053.318q.747.302 1.066 1.018.318.716.318 1.989 0 1.21-.287 1.83-.286.604-1.05 1.034zm-4.581-2.864q0 .97.222 1.495.239.525.764.748.525.207 1.495.207.97 0 1.496-.207.525-.223.748-.748.238-.525.238-1.495 0-.955-.238-1.48-.223-.525-.748-.747-.525-.223-1.496-.223-.97 0-1.495.223-.525.222-.764.747-.222.525-.222 1.48zm2.481 8.973q1.114 0 1.719-.255.604-.254.859-.859.27-.604.27-1.702 0-1.114-.27-1.718-.255-.605-.86-.844-.604-.254-1.718-.254-1.113 0-1.718.254-.604.24-.875.844-.254.604-.254 1.718 0 1.098.254 1.702.27.605.875.86.605.254 1.718.254zM57.49 103.7v.875h-6.522v-.875h2.784v-8.082H51.62v-.875h3.087v8.957h2.784zm-3.515-10.595q-.541 0-.748-.191-.207-.207-.207-.716 0-.493.207-.684.207-.191.748-.191.54 0 .747.19.207.192.207.685 0 .509-.207.716-.206.19-.747.19zM63.83 92.723V103.7h2.576v.875h-6.109v-.875h2.578V92.723h-2.578v-.875h6.11v.875h-2.578zM73.206 91.848v9.609q0 .97.111 1.495.112.525.366.748.255.223.732.223.35 0 .62-.128.287-.143.748-.525l.557.828q-.54.397-.954.54-.414.16-.97.16-.828 0-1.305-.303-.462-.318-.669-1.034-.19-.716-.19-2.004v-8.734h-2.116v-.875h3.07zM80.451 103.7h5.33v.875h-6.284V91.848h.954V103.7zM94.697 103.7v.875h-5.473v-.875h2.259v-9.37q-.477.445-1.13.684-.652.238-1.447.222v-.875q1.145.016 1.845-.62.7-.652.732-1.75v-.143h.954V103.7h2.26zM113.944 107.693q-1.257.016-2.052-.286-.78-.287-1.178-1.034-.397-.732-.397-2.084 0-.303.079-.732.095-.43.111-.51.096-.508.096-.556 0-.732-.605-1.368-.588-.637-1.956-1.464 1.384-.954 1.972-1.59.589-.653.589-1.305 0-.239-.111-.653-.064-.238-.128-.525-.047-.286-.047-.54 0-1.353.397-2.1.398-.748 1.178-1.035.795-.302 2.052-.286v.875q-.923-.016-1.512.207-.572.207-.875.78-.302.572-.302 1.622 0 .27.048.51.063.238.127.429.127.382.127.557 0 .906-.509 1.638-.509.716-1.511 1.416 1.002.62 1.511 1.336.51.7.51 1.655 0 .175-.048.35t-.064.255q-.175.556-.175.986 0 1.034.302 1.59.303.574.875.78.573.223 1.496.207v.875zM117.673 106.818q.923.016 1.496-.207.572-.206.875-.78.302-.556.302-1.59 0-.43-.175-.986-.016-.08-.064-.255-.047-.175-.047-.35 0-.939.509-1.655.509-.715 1.495-1.336-1.002-.7-1.511-1.416-.493-.732-.493-1.638 0-.175.127-.557.063-.191.111-.43.064-.238.064-.509 0-1.05-.302-1.623-.303-.572-.891-.78-.573-.222-1.496-.206v-.875q1.257-.016 2.037.286.78.287 1.177 1.034.413.748.413 2.1 0 .255-.063.541-.048.287-.112.525-.11.414-.11.653 0 .652.588 1.304.588.637 1.972 1.591-1.368.827-1.972 1.464-.589.636-.589 1.368 0 .048.095.557l.096.509q.095.43.095.732 0 1.352-.413 2.084-.398.747-1.178 1.034-.78.302-2.036.286v-.875zM138.607 92.723v13.872h3.659v.875h-4.614V91.848h4.614v.875h-3.66zM151.293 91.848v15.622h-4.614v-.875h3.66V92.723h-3.66v-.875h4.614zM168.217 107.693q-.906 0-1.447-.207-.541-.206-1.05-.747l.7-.589q.366.382.747.525.382.143 1.05.143.955 0 1.48-.27.525-.255.748-.875.222-.62.222-1.75v-1.32q-.318.683-.97.986-.636.286-1.59.286-1.337 0-2.1-.477-.749-.493-1.083-1.607-.318-1.114-.318-3.102 0-1.591.318-2.482.334-.907 1.082-1.289.764-.398 2.1-.398.939 0 1.575.223.636.207.986.716v-.716h.955v9.037q0 1.51-.318 2.338-.318.843-1.05 1.21-.732.365-2.037.365zm-.11-4.693q2.56 0 2.56-2.64v-3.628q0-.7-.7-1.018-.7-.319-1.86-.319-.987 0-1.544.303-.541.302-.78 1.018-.222.7-.222 1.973 0 1.67.238 2.593.239.923.78 1.32.54.398 1.527.398zM177.785 91.625q1.416 0 2.196.382.795.366 1.13 1.24.35.86.35 2.419v4.789q0 1.67-.35 2.609-.335.922-1.13 1.336-.78.398-2.196.398-1.416 0-2.211-.303-.795-.302-1.13-1.002-.334-.7-.334-1.957h.955q0 .939.239 1.448.238.51.81.732.59.207 1.671.207 1.066 0 1.639-.318.589-.319.827-1.05.255-.748.255-2.1v-1.862q-.446.652-1.05.907-.589.255-1.67.255-1.417 0-2.212-.366-.78-.382-1.13-1.257-.334-.875-.334-2.45 0-1.56.334-2.418.35-.875 1.13-1.257.795-.382 2.211-.382zm0 .875q-1.066 0-1.654.302-.573.287-.827.97-.24.669-.24 1.91 0 1.257.24 1.94.254.669.827.955.588.287 1.654.287 1.066 0 1.639-.287.589-.286.827-.97.255-.684.255-1.941 0-1.241-.255-1.91-.238-.683-.827-.97-.573-.286-1.639-.286zM189.772 103.525q-.319.684-.97.986-.637.287-1.592.287-1.336 0-2.1-.478-.748-.493-1.082-1.59-.318-1.114-.318-3.087t.318-3.07q.334-1.098 1.082-1.575.764-.478 2.1-.478.939 0 1.575.223.637.207.987.716v-.716h.954v12.727h-.954v-3.945zm-2.562-8.13q-.986 0-1.527.398-.541.382-.78 1.305-.238.907-.238 2.545 0 1.655.238 2.577.239.907.78 1.305.54.398 1.527.398 2.562 0 2.562-2.641v-4.55q0-.7-.7-1.018-.7-.319-1.862-.319zM197.096 104.798q-1.511 0-2.354-.605-.828-.62-1.193-2.036-.366-1.432-.366-3.962 0-2.53.366-3.93.365-1.415 1.193-2.02.843-.62 2.354-.62 1.003 0 1.639.255.636.238 1.05.827.43.573.748 1.607l-.907.334q-.27-.843-.589-1.305-.302-.461-.763-.652-.446-.191-1.178-.191-1.145 0-1.782.525-.636.525-.906 1.75t-.27 3.42q0 2.212.27 3.437.27 1.225.906 1.766.637.525 1.782.525.732 0 1.178-.191.46-.191.763-.637.318-.445.589-1.272l.907.318q-.319 1.034-.748 1.607-.414.557-1.05.811-.62.239-1.639.239zM206.696 104.75q-1.559 0-2.434-.605-.875-.62-1.257-2.02-.366-1.4-.366-3.914 0-2.513.366-3.913.382-1.4 1.257-2.005.875-.62 2.434-.62 1.082 0 1.75.286.684.27 1.114.907.445.636.747 1.782l-.922.222q-.239-.906-.557-1.4-.318-.493-.827-.7-.494-.222-1.305-.222-1.193 0-1.861.525-.668.525-.955 1.75-.286 1.209-.286 3.388 0 2.18.286 3.405.287 1.209.955 1.734.668.525 1.861.525 1.066 0 1.607-.398.54-.413.923-1.495v-2.96h-2.769v-.89h3.723v3.977q-.334 1.018-.763 1.591-.43.557-1.066.811-.637.239-1.655.239zM217.839 106.373q.43 0 1.352-.223.51-.127.843-.19.335-.065.669-.049v.875q-.35-.016-.637.032-.27.064-.716.175-.413.127-.763.191-.334.064-.748.064-.51 0-.86-.112-.35-.111-.795-.35-.477-.238-.843-.366-.366-.11-.89-.11h-.526v-.892q1.003.048 1.512-.636-1.257-.08-1.973-.668-.7-.605-1.018-1.862-.302-1.257-.302-3.404v-1.273q0-2.275.35-3.548.35-1.288 1.16-1.845.828-.557 2.276-.557t2.259.557q.827.557 1.177 1.845.35 1.273.35 3.548v1.273q0 2.132-.302 3.372-.302 1.241-1.002 1.846-.684.604-1.91.716-.079.254-.254.477-.175.239-.382.398.191.047.668.286.462.223.732.318.287.112.573.112zm-4.74-7.525q.015 1.957.27 3.054.27 1.082.875 1.56.604.46 1.686.46 1.098 0 1.702-.46.605-.478.86-1.56.27-1.097.27-3.054v-1.273q0-1.957-.27-3.039-.255-1.097-.86-1.559-.604-.477-1.702-.477-1.098 0-1.718.477-.605.462-.875 1.56-.255 1.081-.239 3.038v1.273zM239.186 98.864q.032.97-.604 1.59-.637.605-1.703.605-1.05 0-2.195-1.082-.939-.827-1.56-.827-.667 0-1.033.366-.35.35-.318.939h-.955q-.032-.97.605-1.575.636-.62 1.702-.62 1.05 0 2.195 1.08.939.828 1.56.828.668 0 1.018-.35.366-.366.334-.954h.954zM241.595 99.802v-.89h5.886v.89h-5.886zM258.418 99.802h-3.898v3.898h-.891v-3.898h-3.898v-.89h3.898v-3.898h.89v3.897h3.899v.891zM276.72 99.357l-6.46 5.648-.636-.653 2.657-2.322h-13.045v-.891h14.063l2.037-1.782-2.02-1.782h-14.08v-.89h13.06l-2.672-2.355.637-.653 6.459 5.68z"/></g></g></svg>