<svg xmlns="http://www.w3.org/2000/svg" viewBox="0 0 32 32"><path d="M24.6 20.6c-.1.2-.1.3-.1.4-.4 1.1-1 2.1-1.7 3-.3.4-.7.8-1.1 1.1-.3.2-.5.4-.8.6-.2.1-.5.2-.7.2h-.6c-.3 0-.6-.1-.8-.2l-.9-.3c-.2-.1-.3-.1-.5-.2s-.5-.1-.7-.1c-.3 0-.6 0-.9.1-.4.1-.8.2-1.2.4-.2.1-.3.1-.5.2-.3.1-.6.2-.9.2h-.4c-.3 0-.6-.1-.8-.3-.4-.2-.8-.5-1.1-.8-.3-.3-.6-.6-.8-1-.5-.6-.9-1.3-1.2-2-.4-.8-.7-1.6-.9-2.5-.1-.4-.2-.8-.2-1.3 0-.3-.1-.6-.1-.9v-.9c0-.2 0-.4.1-.7 0-.3.1-.7.2-1 .2-.9.6-1.6 1.2-2.3.6-.7 1.4-1.2 2.2-1.4.4-.1.9-.2 1.3-.2h1c.3 0 .6.1.9.2.2.1.5.2.7.3.2.1.4.2.6.2.2.1.5.1.7.1.2 0 .5-.1.7-.2l.9-.3c.5-.2 1.1-.3 1.7-.3.5 0 1 0 1.4.1.5.1.9.2 1.3.5.7.3 1.2.8 1.7 1.4-.3.2-.6.5-.9.8-.4.4-.7.8-.9 1.2-.2.5-.4.9-.4 1.4v.7c0 .3.1.5.1.8.2.8.6 1.4 1.2 2 .3.3.7.6 1.2.9-.2 0-.1 0 0 .1z"/><path d="M20 6v.8c0 .7-.3 1.4-.7 2-.4.6-.9 1.1-1.5 1.4-.4.3-.9.4-1.4.5h-.5v-.5c0-.4 0-.7.1-1.1.1-.5.4-.9.7-1.3.4-.5.8-.9 1.3-1.2.5-.3 1-.6 1.6-.7.1.1.2.1.4.1z"/></svg>