<svg xmlns="http://www.w3.org/2000/svg" viewBox="0 0 32 32"><path d="M16 14.5v3.1h-1.2c-1.7-.1-3.3-.2-4.9-.7-.8-.2-1.5-.5-2.2-.8-.4-.1-.7-.3-1-.5-.5-.4-.7-.8-.7-1.4v-2.6c0-.4.2-.8.5-1.1.5-.5 1.2-.8 1.9-1 1.4-.5 2.9-.8 4.3-.9 1.4-.1 2.7-.2 4.1-.2 2.3 0 4.5.3 6.7 1 .6.2 1.2.6 1.8.9.5.3.8.8.8 1.5v2.5c0 .6-.2 1.1-.7 1.4-.4.3-.9.5-1.3.7-.1.1-.3 0-.4 0-2.4-.6-4.8-1.2-7.3-1.8-.2-.1-.3-.1-.4-.1zm0 9.2h-2c-1.7-.1-3.4-.3-5-.8-.7-.2-1.4-.6-2.1-.9-.6-.4-.9-1-.9-1.7V18c.9 1.2 2.2 1.6 3.5 2 2 .5 4 .7 6.1.7.3 0 .4.1.4.4v2.6zm10-5.8v2.8c0 .4-.2.7-.6 1-.5.3-1 .6-1.5.8-.1.1-.3 0-.5 0l-6-1.5-1.2-.3c-.1 0-.2-.2-.2-.2v-2.8c.7.2 1.3.3 2 .5 1.9.5 3.7.9 5.6 1.4h.4c.8-.5 1.5-.8 2-1.7z"/></svg>