<?xml version="1.0" encoding="UTF-8" standalone="no"?>
<svg
   width="32px"
   height="32px"
   viewBox="0 0 32 32"
   version="1.1"
   id="svg10"
   sodipodi:docname="git-folder.svg"
   xmlns:inkscape="http://www.inkscape.org/namespaces/inkscape"
   xmlns:sodipodi="http://sodipodi.sourceforge.net/DTD/sodipodi-0.dtd"
   xmlns="http://www.w3.org/2000/svg"
   xmlns:svg="http://www.w3.org/2000/svg">
  <sodipodi:namedview
     id="namedview12"
     pagecolor="#ffffff"
     bordercolor="#666666"
     borderopacity="1.0"
     inkscape:pageshadow="2"
     inkscape:pageopacity="0.0"
     inkscape:pagecheckerboard="0" />
  <!-- Generator: Sketch 49.1 (51147) - http://www.bohemiancoding.com/sketch -->
  <title
     id="title2">git-folder</title>
  <desc
     id="desc4">Created with Sketch.</desc>
  <defs
     id="defs6" />
  <g
     id="git-folder"
     stroke="none"
     stroke-width="1"
     fill="none"
     fill-rule="evenodd">
    <path
       d="m 3,5 c 0,7 0,14 0,21 8.606719,0 17.213438,0 25.820157,0 0,-5.924381 0,-11.848761 0,-17.7731422 -3.758311,0 -7.516622,0 -11.274933,0 C 16.469252,7.1512385 15.39328,6.0756193 14.317308,5 10.544872,5 6.772436,5 3,5 Z m 12.742166,4.6834991 c 0.77817,0.059988 1.168935,0.8506929 1.72726,1.3045689 1.768293,1.768291 3.536585,3.536583 5.304878,5.304875 0.632889,0.656727 0.02672,1.418309 -0.520911,1.858904 -1.987883,1.96008 -3.968712,3.927443 -5.961044,5.88293 -0.693893,0.534797 -1.238345,-0.262227 -1.691294,-0.699271 -1.971173,-1.964913 -3.930038,-3.942592 -5.9089489,-5.899479 -0.5348763,-0.69004 0.2565823,-1.255043 0.6942166,-1.712903 1.2478093,-1.270233 2.4956183,-2.540466 3.7434273,-3.810699 0.550874,0.550875 1.101749,1.101751 1.652623,1.652626 -0.499664,0.816042 0.592563,1.209409 0.614432,1.792633 0,1.221049 0,2.442097 0,3.663146 -1.784329,0.73307 0.345649,3.265771 1.363504,1.627536 0.709667,-0.958636 -0.688811,-1.358195 -0.441847,-2.25503 0,-1.097396 0,-2.194793 0,-3.29219 0.499674,0.499672 0.999347,0.999344 1.499021,1.499016 -0.666692,1.433493 1.855256,2.214907 2.129877,0.645916 0.30337,-1.323371 -1.171989,-1.117848 -1.759622,-1.542848 -0.443705,-0.443997 -0.887411,-0.887994 -1.331116,-1.331991 0.423208,-1.075995 -0.792341,-1.504451 -1.524699,-1.562928 -0.516181,-0.516505 -1.032362,-1.033011 -1.548543,-1.549516 0.540135,-0.495304 0.996955,-1.097754 1.603675,-1.5079883 l 0.170291,-0.050474 0.184815,-0.01683 z"
       id="path86"
       fill="#444444"
       fill-rule="nonzero" />
  </g>
</svg>
