<svg width="32" height="32" viewBox="0 0 125.785 125.785" class="footer-logo" xmlns="http://www.w3.org/2000/svg"><path d="M62.892 105.624L75.92 57.573H49.865z" fill="#e24329" class="logo-svg-shape logo-dark-orange-shape" stroke-width=".369"/><path d="M62.892 105.624L49.865 57.573H31.606z" fill="#fc6d26" class="logo-svg-shape logo-orange-shape" stroke-width=".369"/><path d="M31.607 57.573l-3.96 14.602c-.36 1.332.035 2.791.98 3.614l34.265 29.835z" fill="#fca326" class="logo-svg-shape logo-light-orange-shape" stroke-width=".369"/><path d="M31.607 57.573h18.258l-7.847-28.94c-.404-1.49-2.162-1.49-2.565 0z" fill="#e24329" class="logo-svg-shape logo-dark-orange-shape" stroke-width=".369"/><path d="M62.892 105.624L75.92 57.573h18.258z" fill="#fc6d26" class="logo-svg-shape logo-orange-shape" stroke-width=".369"/><path d="M94.178 57.573l3.959 14.602c.361 1.332-.034 2.791-.98 3.614l-34.265 29.835z" fill="#fca326" class="logo-svg-shape logo-light-orange-shape" stroke-width=".369"/><path d="M94.178 57.573H75.92l7.847-28.94c.403-1.49 2.161-1.49 2.565 0z" fill="#e24329" class="logo-svg-shape logo-dark-orange-shape" stroke-width=".369"/></svg>