<svg width="43" height="43" xmlns="http://www.w3.org/2000/svg" xmlns:xlink="http://www.w3.org/1999/xlink"><defs><path d="M27.22 20.842l-1.571-.791v-.004c0-.546.441-.988.986-.988a.987.987 0 01.584 1.783m8.404-9.334a5.124 5.124 0 00-7.137-.12.49.49 0 00-.011.705l.647.648a.488.488 0 00.639.046 2.921 2.921 0 011.762-.588 2.947 2.947 0 012.943 2.95c0 .815-.33 1.553-.862 2.087-4.075 4.088-9.518-7.367-21.864-1.474a1.68 1.68 0 00-.732 2.358l2.118 3.672a1.672 1.672 0 002.268.625l.053-.03-.042.03.939-.527s1.614-.98 2.957-2.212a.517.517 0 01.674-.021l.003.001.003.003a.486.486 0 01.022.738 22.053 22.053 0 01-3.137 2.352l-.031.018-.94.527a2.688 2.688 0 01-3.628-1l-2.003-3.465C6.42 21.553 4.088 26.799 5.34 33.435a.49.49 0 00.48.399h2.278a.489.489 0 00.484-.428 3.344 3.344 0 013.314-2.923c1.7 0 3.104 1.274 3.313 2.923a.49.49 0 00.485.428h2.221a.488.488 0 00.484-.428 3.345 3.345 0 013.314-2.923c1.7 0 3.104 1.274 3.314 2.923a.489.489 0 00.484.428h2.193a.489.489 0 00.488-.482c.052-3.105.885-6.67 3.265-8.455 8.238-6.181 6.07-11.478 4.166-13.389" id="a"/></defs><use fill="#02303A" xlink:href="#a" fill-rule="evenodd"/></svg>