<svg xmlns="http://www.w3.org/2000/svg" viewBox="0 0 32 32"><path fill="#EF7623" d="M22.5 16.4c.4-.2.9-.4 1.3-.7.9-.6.9-1.7 0-2.1-.2-.1-.3-.3-.4-.6-.1-.6 0-1.1.3-1.6.7-1 .2-1.8-1.1-1.9h-.1l-.1-.1c-.1-.5-.2-.9.4-1.3.2-.1.5-.2.8-.3.2-.1.4-.1.5-.1 0-.1-.1-.1-.1-.1-.7-.8-1.7-1-2.6-.9-1.2.1-1.9.7-2.6 1.5-.1.2-.3.2-.5.1s-.2-.2-.2-.3c0-.2.1-.4.1-.6l.3-.6c-.6 0-1 .3-1.5.6-.3-.5-.3-.9-.1-1.4-.9.3-1.5.7-1.7 1.6-.3-.3-.2-.7-.2-1.1h-.1c-.1 0-.1.1-.2.1-.5.4-.8.9-.9 1.4 0 .1-.1.2-.1.3-.1-.1-.2-.1-.3-.2-.4-.3-.8-.7-1.2-1-1.2-.7-2.3-.7-3.5-.1l-.8.8c.4.2.8.2 1.2.4.7.2.9.6.6 1.4-.2 0-.4.1-.6.1-.7.2-1 .7-.9 1.3.1.3.3.6.4.9 0 .1.1.2.1.3v1c0 .2-.2.4-.4.6-.2.2-.5.4-.6.7-.3.5 0 1.1.5 1.5.4.3.8.5 1.3.7.6.3.8.7.8 1.2 0 .6 0 1.1-.1 1.7 0 .2-.1.5-.1.8-.6-.5-1-1-1.1-1.7-.6.5-.9 1-.9 1.6-.2 1.3.3 2.6 1.9 3.2.1 0 .2.1.3.2.6 1 1.5 1.6 2.7 1.8.1 0 .2 0 .2.1 1.1.7 2.2.8 3.4.7.7-.1 1.3-.2 1.8-.6.1-.1.3-.1.4-.2 1.2-.2 2-.8 2.6-1.7l.3-.3c.6-.2 1.1-.5 1.4-1 .5-.7.6-1.6.5-2.3-.1-.6-.4-1-.9-1.5-.2.7-.5 1.2-1.1 1.7-.1-.9-.1-1.8-.1-2.6.2-.8.5-1.2 1-1.4zm-8.4 5.3h4.5-4.5z"/></svg>