<svg xmlns="http://www.w3.org/2000/svg" viewBox="0 0 32 32"><path fill="#CD3F45" d="M20 15c-1-.4-.3-2-.3-2l1.1-1s.3.1.6-.1c.4-.2.3-.7.3-.7l.8-.9s.3-.1-.9-1-1.6-.4-1.6-.4l-.9.7s-.3 0-.5.1 0 .5 0 .5l-4.1 3.4-2.1-4.8s.2-.2.1-.5c0-.3-.3-.3-.3-.3-.5-.9-.7-.9-.7-.9-1.7-.4-2.4.7-2.4.7-.1.1.1.7.1.7s-.2.1-.1.6c.2.7.6.4.6.4l2.7 6c0 .5-2.1 8.4-2.1 8.4 1.6 1.7 4 .9 4 .9 0-1 1.2-6.8 1.2-6.8 1.3 1.2 2.7 1.4 3.2 1.4 0 .4.1.7.1.7s1.9.7 2.9-.8c.1-.1.1-.2.1-.3 0 0 1.1-.4 1.1-1.4 0-1.4-1.9-2.2-2.9-2.6zm2 3.6c.2-.7-.2-1.1-.2-1.1s-.1.6-1.2.9c-1.1.3-1.4-.2-1.4-.2s-.2.3-.4.7c-2.3-.4-3-1.6-3.2-1.9-.1-.3.1-1 .1-1l3-2.2c-.2 1.4 1.4 1.9 1.4 1.9s2.3.8 2.3 2c.1.5-.2.8-.4.9z"/></svg>