<?xml version="1.0" encoding="UTF-8" standalone="no"?>
<svg
   width="32px"
   height="32px"
   viewBox="0 0 32 32"
   version="1.1"
   id="svg10"
   sodipodi:docname="ms-dos.svg"
   xmlns:inkscape="http://www.inkscape.org/namespaces/inkscape"
   xmlns:sodipodi="http://sodipodi.sourceforge.net/DTD/sodipodi-0.dtd"
   xmlns="http://www.w3.org/2000/svg"
   xmlns:svg="http://www.w3.org/2000/svg">
  <sodipodi:namedview
     id="namedview12"
     pagecolor="#ffffff"
     bordercolor="#666666"
     borderopacity="1.0"
     inkscape:pageshadow="2"
     inkscape:pageopacity="0.0"
     inkscape:pagecheckerboard="0" />
  <!-- Generator: Sketch 49.1 (51147) - http://www.bohemiancoding.com/sketch -->
  <title
     id="title2">ms-dos</title>
  <desc
     id="desc4">Created with Sketch.</desc>
  <defs
     id="defs6" />
  <g
     id="ms-dos"
     stroke="none"
     stroke-width="1"
     fill="none"
     fill-rule="evenodd">
    <path
       d="m 19.956764,3 c -1.760976,-0.086096 -3.780481,1.1771906 -3.695671,3.1062126 -0.101729,1.3265297 1.012078,2.3265977 2.197194,2.6768032 1.142587,0.4569876 2.67655,0.2866797 3.474562,1.3629472 0.337257,1.369569 -1.612097,1.813166 -2.576022,1.305068 -0.860963,-0.154381 -0.787609,-1.4931783 -1.718813,-1.216149 -0.459377,0 -0.918755,0 -1.378132,0 -0.116192,1.801048 1.561386,3.128518 3.236877,3.252843 1.808238,0.309431 4.100348,-0.500683 4.511216,-2.480558 C 24.357996,9.6782374 23.710327,8.1101247 22.315834,7.7181399 21.110727,7.169093 19.524494,7.3537474 18.555683,6.3542187 17.928766,5.1198076 19.803944,4.450972 20.703907,4.9648846 c 0.904811,0.2361802 0.747783,1.600238 1.789849,1.2436573 0.365661,-0.1035189 1.185017,0.185527 1.21452,-0.2088577 C 23.530785,4.1505199 21.738302,2.9177207 19.956764,3 Z M 7.0589049,3.1964903 c 0,3.4078132 0,6.8156267 0,10.2234397 0.6816438,0 1.3632875,0 2.0449313,0 0,-1.8351 0,-3.6701999 0,-5.5052998 0.4847519,1.8350999 0.9695038,3.6701998 1.4542558,5.5052998 0.694985,0 1.38997,0 2.084955,0 0.392976,-1.913938 0.785953,-3.8278757 1.178929,-5.7418135 0.05256,1.9139378 0.105115,3.8278755 0.157672,5.7418135 0.655365,0 1.31073,0 1.966095,0 0,-3.407813 0,-6.8156265 0,-10.2234397 -1.101305,0 -2.202609,0 -3.303914,0 -0.380037,1.9660935 -0.760073,3.9321869 -1.14011,5.8982804 -0.511031,-1.9660935 -1.022061,-3.9321869 -1.5330919,-5.8982804 -0.9699074,0 -1.9398148,0 -2.9097222,0 z M 15.848712,14.03729 c -2.728955,-0.122827 -5.384991,1.692807 -6.2091302,4.305695 -0.7591217,2.209648 -0.6791268,4.733481 0.3654302,6.839543 1.204551,0.07563 1.938309,-1.209772 1.959521,-2.285064 0.193752,-1.271926 0.211555,-2.579928 0.553112,-3.822127 0.573022,-1.497909 2.126801,-2.630072 3.762854,-2.440035 0.27827,-0.920158 1.623077,-1.83311 1.780105,-2.318608 -0.720236,-0.188599 -1.464896,-0.316331 -2.211892,-0.279404 z m 5.626587,0.109159 c -1.808189,-0.03892 -3.835354,0.653787 -4.63654,2.407355 -0.696556,1.538821 -0.591466,3.804931 1.030728,4.722188 0.751594,0.42094 2.278581,1.423407 1.924943,-0.150125 0.117592,-1.039511 -0.40068,-1.963917 -0.70003,-2.9223 0.315374,-1.580463 2.419334,-1.824029 3.693091,-1.356981 1.223383,0.07141 1.003151,1.951704 2.058709,1.789978 0.715914,0 1.431829,0 2.147743,0 0.02346,-2.053882 -1.590803,-3.851427 -3.566168,-4.260393 -0.636156,-0.167007 -1.296031,-0.229425 -1.952476,-0.229722 z M 8.815171,14.416925 C 7.210114,14.452908 5.605057,14.488891 4,14.524874 c 0,4.544695 0,9.089389 0,13.634084 1.9578727,0.0557 3.9158305,0.259983 5.873873,0.186095 2.396384,-0.112331 4.59352,-1.772061 5.338452,-4.054675 0.733877,-2.233844 0.679527,-4.824627 -0.500091,-6.898234 -1.266291,0.551421 -2.080329,1.856212 -2.041798,3.23071 -0.189962,1.338911 -0.02773,2.797752 -0.842682,3.96344 -0.409363,0.751168 -1.186894,1.27636 -2.0558978,1.138391 -0.990777,0.03957 -1.9749352,-0.06224 -2.9591651,-0.162522 0,-2.759322 0,-5.518645 0,-8.277967 0.9739481,0 1.9478961,0 2.9218442,0 0.3932077,-0.954085 1.3538997,-1.656828 1.7853727,-2.482285 -0.859173,-0.289472 -1.7945949,-0.381202 -2.704737,-0.384986 z m 12.497606,2.704743 c -1.506432,-0.161304 -2.07416,1.264601 -1.35281,2.448027 0.481358,1.230387 0.362691,2.567222 -0.01391,3.804069 -0.07708,0.626681 -0.629232,1.398345 0.08504,1.849986 0.606696,0.336699 1.641408,0.671642 2.216367,0.311045 1.372127,-2.584168 1.477801,-5.877502 -0.0699,-8.413127 -0.288262,0 -0.576523,0 -0.864785,0 z m 2.380899,3.300269 c -0.05418,0.901985 -0.108352,1.803969 -0.162528,2.705954 1.563389,0.416632 1.393869,2.703933 -0.2297,2.839741 -1.312221,0.228686 -3.000997,0.296044 -3.941004,-0.822823 -0.380388,-0.681691 -0.347398,-1.540638 -1.319255,-1.260076 -0.604687,0 -1.209373,0 -1.814059,0 -0.301164,1.77697 0.966023,3.585554 2.637713,4.149473 2.412117,0.850832 5.410835,0.872293 7.447462,-0.859946 1.738372,-1.486463 1.634683,-4.645757 -0.381567,-5.842465 -0.656233,-0.486173 -1.45374,-0.720805 -2.237062,-0.909858 z m -8.710966,5.410696 c -0.470292,0.902034 -1.243262,1.559255 -1.9479,2.271745 1.704056,0.693701 3.654632,0.89453 5.410697,0.27047 -1.129088,-0.499528 -1.79311,-1.784088 -2.535424,-2.498665 -0.309124,-0.01452 -0.618249,-0.02903 -0.927373,-0.04355 z"
       id="path115"
       fill="#4d4d4d"
       fill-rule="nonzero" />
  </g>
</svg>
