<svg xmlns="http://www.w3.org/2000/svg" viewBox="0 0 32 32"><path d="M26 23.9V10.4c0-.4 0-.8-.1-1.2-.1-.6-.5-1.1-1-1.5-.3-.2-.6-.4-1-.4-.1 0-.1 0-.1-.1H8.1c0 .2-.3.2-.4.2-.8.3-1.3.9-1.6 1.7-.1.2-.1.4-.1.6v4.6c0 .3 0 .3.3.2.2-.1.3-.1.5-.2.4-.1.5-.5.7-.7.2-.3.3-.5.6-.7.2-.2.4-.2.7 0 .2.1.4.3.7.4.3.1.7.2 1 .1.3 0 .4-.3.5-.5.1-.2.2-.4.3-.5.2-.1.3-.1.6-.1.6.1 1 .6 1.4 1.1.1.2.2.3.4.4.2.1.4.3.6.5.5.6 1.2 1 1.7 1.5.3.3.7.6 1.2.8.6.2 1.1.3 1.6-.4.4-.5.7-1.1.8-1.7.1-.3.3-.5.5-.8h.1c.5-.1 1 0 1.4.1.2 0 .3 0 .5.1.4.1.8.1 1.2.3.4.2.5.6.4 1-.1.4-.2.2-.4.2H23c-.4.1-.8.3-1.2.5-.2.1-.4.3-.4.5-.1.4-.3.7-.6.9-.1.1-.2.1-.2.3-.2.1-.2.3-.4.4-.7.7-1.6 1-2.6 1.1H16c-.2 0-.2.1-.2.2.1.4 0 .8.1 1.2.1.2.1.4.1.6 0 .4.2.8.5 1.1.1.1.1.2.1.3 0 .3 0 .7.1 1 .1.4.2.9.4 1.3.1.1.2.2.3.1.2-.1.4-.1.6-.2.5-.2 1.1-.2 1.7-.2 1.2 0 2.3-.2 3.5.1.4.1.7.1 1.1.2.6.2 1.1.2 1.7.2.2 0 .4-.1.4-.4-.5-.4-.4-.5-.4-.7z"/><path d="M10.7 21.1l.1-.1c.1-.5.3-1 .7-1.4h-.1c-.7 0-1.3-.1-2-.3-.5-.1-1.1-.3-1.5-.7-.3-.3-.7-.2-.9.2 0 .1-.1.3-.1.4-.2.4-.4.7-.7 1-.1.2-.2.4-.2.7v1.9c0 .2.1.3.3.3.5.1.9.3 1.3.4.6.2 1.2.5 1.8.5.4 0 .4 0 .5-.4 0-.1.1-.1.1-.2h-.1.1v-.2.1c0-.1.1-.1.1-.2V23c.1-.2.1-.4.1-.5 0-.2 0-.4.1-.5v-.1c.2-.1.3-.4.4-.6v-.2zm5 1.9c-.2-.2-.3-.4-.4-.7 0-.1 0-.3-.1-.3 0-.3-.1-.5-.2-.8-.2-.7-.6-1.3-1.2-1.8-.5-.3-.7-.3-1.1.1-.1.1-.1.2-.2.3-.3.5-.6 1-.9 1.6-.1.2-.2.3-.2.6-.1.1-.1.3-.2.5-.3.3-.5.8-.7 1.2 0 .1-.1.1 0 .2h.2c.4-.1.8-.2 1.2-.4.6-.3 1.3-.3 1.9-.1.6.2 1 .5 1.5.9.3.2.6.3.9.4h.2v-.1c-.3-.6-.4-1.1-.7-1.6z"/></svg>