<svg viewBox="0 0 32 32" fill="none" xmlns="http://www.w3.org/2000/svg"><path fill="#00BFA5" d="M23.208 22.209l-9.76 2.812c-.299.086-.584-.165-.522-.458l3.487-16.27c.065-.304.497-.352.633-.07l6.456 13.356a.451.451 0 01-.294.63zm1.674-.663L17.407 6.08a1.2 1.2 0 00-1.023-.666 1.195 1.195 0 00-1.092.552L7.185 18.759a1.17 1.17 0 00.014 1.284l3.963 5.982c.236.357.645.563 1.07.563a1.3 1.3 0 00.362-.05l11.504-3.315c.352-.102.64-.345.791-.667.15-.322.148-.69-.007-1.01z" clip-rule="evenodd" fill-rule="evenodd"/></svg>