<svg width="32" height="32" xmlns="http://www.w3.org/2000/svg"><g transform="translate(8 7)"><path d="M14.532 0s-2.227 2.676-6.23 2.676C4.3 2.676 2.08 0 2.08 0S-.194 3.535.013 6.975c.13 2.167.693 4.453 2.783 6.803 1.232 1.386 2.99 2.79 5.507 4.21 6.797-3.83 8.082-7.573 8.29-11.013C16.8 3.535 14.531 0 14.531 0zM2.404 1.886c.39.294.8.559 1.23.792a4.57 4.57 0 00-2.095 1.478c.223-.78.513-1.539.865-2.27zm11.521 9.805c-.547.843-1.258 1.656-2.144 2.445v-1.069h-1.184v2.035c-.522.391-1.09.778-1.703 1.16v-1.734H7.71v1.732a23.887 23.887 0 01-1.7-1.16v-2.033H4.825v1.065a13.957 13.957 0 01-1.144-1.14c-.843-.95-1.399-1.87-1.767-2.747a4.555 4.555 0 004.53 1.106l1.859 1.858 1.858-1.858a4.554 4.554 0 004.53-1.105 8.91 8.91 0 01-.766 1.445zm-6.34-.874a4.5 4.5 0 00.718-.578c.219.216.46.41.717.578l-.717.718-.718-.718zm3.915-.45a3.381 3.381 0 01-3.197-2.293 3.37 3.37 0 110-2.162 3.375 3.375 0 113.197 4.456zm1.474-7.689c.43-.233.84-.498 1.23-.792.353.731.641 1.491.864 2.271a4.576 4.576 0 00-2.094-1.479z"/><circle cx="5.105" cy="6.993" r="1.688"/><circle cx="11.5" cy="6.993" r="1.688"/></g></svg>