<svg xmlns="http://www.w3.org/2000/svg" viewBox="0 0 1200 1000"><path d="M715.8 310.8h-.1c0 .1-.1.1-.1.2h.2v-.2zm-75 196.8c-5.8-2.7-10.9-5.6-14.9-11.6-5.3-8-18.2-11.9-30.5-11.1-12.3-.7-25.2 3.2-30.5 11.1-4 6-9.1 8.9-14.9 11.6-41.5 19.2-67.1 61.6-65.3 107.4-.7.6 6.3 61.6 17.2 69.9 4.3 2.2 55.2 14.9 93.5 14.9s91.6-12.8 95.9-14.9c10.9-8.3 15.6-69.4 14.9-69.9 1.7-45.8-23.8-88.2-65.4-107.4zm257-122.2c-18.7-17.9-36-37.8-57.6-51.8-26.7-17.3-58.2-20.5-89.4-22.4-3.3 5.2.7 8.4 3.5 11.6 4.7 5.4 10 10.2 14.9 15.4 27.9 28.6 48.4 61.3 55.4 101.3.8 4.5 12 91.8 14.7 94.1 5 15 9.1 15.9 19.9 4.6 2.9-3 19.2-45 31.1-60.2 11.9-15.2 45.2-37 47.1-42.1 1.6-5-25.6-37.1-39.6-50.5zm-472-62.6c2.8-3.2 6.8-6.4 3.5-11.6-31.2 2-62.7 5.1-89.4 22.4-21.7 14-38.9 33.9-57.6 51.8-14 13.4-41.3 45.4-39.4 50.5 1.9 5.1 35.2 26.9 47.1 42.1 11.9 15.2 28.2 57.2 31.1 60.2 10.7 11.3 14.9 10.3 19.9-4.6 2.7-2.3 13.9-89.6 14.7-94.1 7-40 27.5-72.7 55.4-101.3 4.7-5.2 10-10 14.7-15.4zm378.4 211.1v-.3c0 .1-.1.1-.1.2s.1.1.1.1z"/><path d="M734.1 338.3c-4.9-5.2-10.2-10.3-14.9-15.7-2.8-3.2-6.7-6.2-3.6-11.6-27.7-2.8-55.2-7.7-83.2-9.6-51.3-3.5-101.9-.2-152.2 9.7-5 1-9.7 2.7-14.6.2 0 .7-.1 1.3-.2 1.9 1.2 4-2.1 6.7-4.5 9.5-4.7 5.4-10 10.2-14.9 15.4-27.9 28.6-48.4 61.3-55.4 101.3-.3 1.6-2 14.6-4.2 30.4 0 1.5-.1 3-.2 4.3l-.3-.6c-2.5 18.3-5 52.1-3.7 60.3 1.8 11.6 3.1 23.4 10.9 33.1 6.9 13.4 20.4 23 23.2 38.8 5.3 30.6 23.8 48.1 50.2 57.7-10.3-18.8-14.8-69-14-69.5-2.3-49.5 30.2-95.3 83.1-116 7.4-2.9 13.9-6.1 19-12.6 6.8-8.6 23.1-12.8 38.8-12 15.7-.8 32 3.4 38.8 12 5.1 6.5 11.6 9.7 19 12.6 52.9 20.7 85.4 66.5 83.1 116 .7.5-3.5 48.4-13.3 68.1 23.2-9.9 39.9-26 44.9-51.8 1.9-9.8 5.5-18.5 11.7-26.3 3.4-4.3 7.7-8.2 8-14.2 4.9-2.5 6.5-7.3 8.2-11.9 3.1-8.2 4.5-17.3 10.4-24.2-2.8-4.7-13.8-89.7-14.6-94.1-7.1-39.8-27.6-72.6-55.5-101.2zm-297.7 46.1c-.5-.5-1-1-1.5-1.3 1.1.1 1.5.6 1.5 1.3zm27.9 105c-24.1 0-43.6-19.5-43.6-43.6s19.5-43.6 43.6-43.6 43.6 19.5 43.6 43.6-19.5 43.6-43.6 43.6zm223.2-17.2s.1 0 .2-.1c0 .1 0 .1.1.2-.1 0-.2-.1-.3-.1zm38.3 17.2c-24.1 0-43.6-19.5-43.6-43.6s19.5-43.6 43.6-43.6 43.6 19.5 43.6 43.6-19.5 43.6-43.6 43.6zm46.3-26.6c0-.6-.1-1-.2-1.4.1-1 .1-1.9.2-2.9.2 1.5.4 2.9 0 4.3zm.3-10.2c-.2.4-.3.7-.4 1.1v-.9c.3-.3.5-.4.4-.2z"/></svg>