<svg xmlns="http://www.w3.org/2000/svg" viewBox="0 0 32 32"><path fill="#CF6499" d="M18 17.3c-1.1.7-2.4 1.5-3.5 2.2.4.9.4 1.8.1 2.7-.5 1.6-1.7 2.5-3.2 2.7-.4.1-.8 0-1.1-.1-.4-.1-.6-.4-.7-.7-.4-.9-.3-1.7.3-2.4.4-.4.8-.9 1.3-1.2.5-.4 1.2-.7 1.8-1.1.1-.1.2-.1.4-.2-.3-.2-.4-.4-.6-.4-.8-.5-1.6-1.1-2.3-1.8-.4-.4-.8-.8-1.1-1.3-.9-.7-1-1.7-.5-2.6.4-1 1.1-1.8 1.8-2.5 1.6-1.4 3.4-2.4 5.4-3.1 1.4-.5 2.8-.7 4.2-.5.4.2 1 .3 1.4.5 1.5.6 2.1 1.8 1.6 3.4-.4 1.3-1.2 2.4-2.4 3.1-1.6 1-3.2 1.4-5.1 1.1-.6-.1-1.1-.4-1.6-.9-.1-.2-.2-.4-.3-.5 0 0 0-.1.1-.2 0 0 .1 0 .2.1.8.8 1.7.9 2.6.7 1.7-.3 3.2-.9 4.3-2.2.4-.5.8-1.1 1-1.8.2-.8-.2-1.4-.9-1.8-.8-.4-1.6-.4-2.4-.3-2 .3-3.8 1.1-5.4 2.1-.9.5-1.7 1.1-2.3 1.9-.3.4-.5.8-.7 1.2-.3.8-.2 1.6.4 2.2.4.4.8.8 1.2 1.1.6.5 1.3 1.1 1.9 1.6.1 0 .2.1.3 0 .3-.2.5-.3.8-.4.9-.5 1.8-.9 2.8-1.1 0 .4.1.4.2.5 0-.1 0-.1 0 0zm-4.3 2.5c-.9.5-1.6 1-2.3 1.7-.4.4-.6.8-.7 1.3-.1.6.3.9.9.8.8-.2 1.4-.7 1.8-1.3.5-.8.5-1.5.3-2.5z"/></svg>