<svg viewBox="0 0 32 32" xmlns="http://www.w3.org/2000/svg"><path d="M14.42 9.31c-.26.1-.67.3-.91.44-.14.08-.26.17-.38.26-.22.17-.54.49-.71.71-.08.1-.15.2-.22.3-.15.23-.36.64-.43.91-.04.14-.07.29-.09.44-.04.28-.04.74-.01 1.01.02.22.06.43.12.64.07.27.26.69.41.92.07.1.14.2.22.3.17.22.51.52.74.68.15.11.31.23.48.34.23.16.63.36.89.47.25.11.51.23.78.34.26.1.69.23.94.35a.3.3 0 01.08.04c.67.2 1.16.58 1.46 1.11.06.11.2.42.2.7 0 .12.07.48-.05.72-.57 1.16-1.27 1.14-2.35 1.1-.97-.22-1.35-.8-1.64-1.68-.01-.04-.02-.08-.02-.12-.05-.28-.27-.51-.55-.51h-1.61c-.28 0-.5.23-.49.51.02.33.07.65.14.94.06.27.23.7.36.95.1.18.21.35.33.51.18.22.54.49.76.65.14.1.29.2.45.29.24.14.66.31.92.41.08.03.16.05.24.07.27.06.5.28.5.56v.81c0 .28.22.51.5.51h1.11c.28 0 .5-.23.5-.51v-.81c0-.28.22-.54.49-.61.13-.03.24-.07.35-.11.26-.1.67-.28.91-.43.55-.34.93-.77 1.29-1.27.16-.23.39-.62.46-.89.05-.17.08-.35.1-.54.03-.28.03-.74 0-1.02-.02-.19-.05-.37-.1-.54a3.83 3.83 0 00-.42-.92c-.38-.6-.92-1.02-1.46-1.4-.23-.16-.62-.39-.87-.51-.61-.28-1.18-.46-1.8-.71-.26-.1-.68-.26-.89-.44-.16-.13-.45-.4-.6-.64a1.41 1.41 0 01-.17-.62c0-.06-.02-.35.03-.62.02-.12.15-.42.31-.65.03-.04.21-.27.47-.34.1-.03.4-.11.68-.12.17-.01.54-.03.82.03.12.02.42.16.64.33.1.08.34.31.46.56.07.16.19.52.2.8v.01c.02.28.23.51.51.51h1.61c.28 0 .51-.23.48-.51-.02-.25-.06-.5-.12-.74-.07-.27-.24-.7-.35-.95a3.55 3.55 0 00-.23-.43c-.14-.24-.41-.61-.62-.8-.11-.1-.22-.19-.34-.28-.23-.16-.63-.37-.87-.51-.09-.05-.18-.09-.28-.13-.26-.1-.49-.36-.49-.64V7.52c0-.28-.22-.51-.5-.51h-1.11c-.28 0-.5.23-.5.51v1.12c0 .28-.2.44-.45.56-.1.05-.21.08-.31.11z" fill="#9bba4c"/></svg>