<svg xmlns="http://www.w3.org/2000/svg" viewBox="0 0 32 32"><path fill="#8CC148" d="M25.1 3.2c-.2 0-.5.1-.7.2-.9.3-1.5 1-2.1 1.7-1.2 1.3-2.2 2.8-3 4.4-1.1 1.9-1.9 3.9-2.5 6-.2.8-.4 1.7-.4 2.6 0 .5.4.8.8.7.9-.1 1.4-.8 1.9-1.4v-.3c-.3.3-.6.6-.9.8-.3.2-.5.1-.5-.2v-1c0-1.2.3-2.4.7-3.5.4-1.1.8-2.2 1.3-3.2.7-1.5 1.6-3 2.8-4.2.5-.8 1.2-1.3 2.2-1.4.5 0 .8.1.9.5 0 .1.1.1.1.1s.1-.1.2-.1c.1-.3.2-.6.2-.9 0-.4-.5-.9-1-.8zm-10 10.1c-.7 0-1.8.8-2.1 1.4v.2c.1 0 .1 0 .2-.1s.2-.3.4-.4c.2-.2.4-.4.7-.3.3.1.3.5.2.7-.1 1.2-.3 2.2-.5 3.3-.4 1.5-.9 3-1.6 4.3-.8 1.6-1.7 3-3 4.2-.6.5-1.3 1-2.1 1-.5 0-.7-.1-.8-.6 0-.1-.1-.1-.2-.2-.3.4-.4.8-.3 1.3.1.4.3.7.6.7.4 0 .8-.1 1.1-.2.7-.2 1.2-.8 1.7-1.3 1.2-1.2 2.2-2.6 3-4.1 1.3-2.2 2.3-4.5 3-7 .2-.8.4-1.5.3-2.3 0-.3-.3-.6-.6-.6z"/></svg>