<svg xmlns="http://www.w3.org/2000/svg" width="32" height="32"><path d="M14.482 9.308h2.399v1.46h-2.4zm5.266 3.157l-2.534-1.572c-.093-.096-.046-1.76-.046-1.76L19.7 7.708l.047 4.758zm-8.152-.048l2.55-1.572c.094-.096.046-1.76.046-1.76l-2.55-1.426-.046 4.758zm3.392.485c0-.36.285-.653.637-.653.352 0 .637.292.637.653a.645.645 0 01-.637.654.645.645 0 01-.637-.654zm0 3.99c0-.362.285-.655.637-.655.352 0 .637.293.637.654a.645.645 0 01-.637.654.645.645 0 01-.637-.654zm0 3.988c0-.361.285-.654.637-.654.352 0 .637.293.637.654a.645.645 0 01-.637.653.645.645 0 01-.637-.653zM25.226 9.75L22.46 7.203h-1.546l-.796 2.835-.047 3.028-.75-.433-3.466 13.12 8.854-12.976-1.218-1.441 1.734-1.586zM6.11 9.702l2.764-2.547h1.546l.796 2.835.047 3.028.75-.433 3.467 13.12-8.855-12.976 1.218-1.441L6.11 9.702zm5.786 3.1"/></svg>