<svg xmlns="http://www.w3.org/2000/svg" viewBox="0 0 32 32"><path d="M16 7h5.7c1.6 0 2.9 1.1 3.2 2.6.1.2.1.5.1.6v11.4c0 1.6-1.1 3-2.7 3.2-.2 0-.4.1-.6.1H10.4c-2 0-3.4-1.4-3.4-3.3V10.3c0-1.7 1.1-3 2.7-3.3H16zm-6.3 9v5.7c0 .4.2.6.7.6h11.2c.4 0 .7-.3.7-.7V10.4c-.1-.5-.3-.7-.8-.7H10.3c-.5 0-.7.2-.7.7.1 1.8.1 3.7.1 5.6z"/><path d="M12.1 14.7c.2.1.3.1.5.2.7.3 1.4.7 2.1 1 .2.1.2.1.3 0 1.5-1.1 2.9-2.2 4.4-3.2.2-.2.4-.2.5-.3.3-.1.5.2.5.5-.1.2-.2.3-.2.4-.7.9-1.3 1.8-2 2.8-.8 1.1-1.5 2.1-2.3 3.1-.5.8-1.3.7-1.8-.1-.8-1.2-1.5-2.2-2.3-3.4-.1-.1-.2-.2-.2-.3-.1-.4.1-.7.5-.7z"/></svg>