<?xml version="1.0" encoding="UTF-8"?>
<svg width="32px" height="32px" viewBox="0 0 32 32" version="1.1" xmlns="http://www.w3.org/2000/svg" xmlns:xlink="http://www.w3.org/1999/xlink">
    <!-- Generator: Sketch 49.1 (51147) - http://www.bohemiancoding.com/sketch -->
    <title>vim</title>
    <desc>Created with Sketch.</desc>
    <defs></defs>
    <g id="vim" stroke="none" stroke-width="1" fill="none" fill-rule="evenodd">
        <path d="M4.8766629,4.5 L13.6989008,4.66723753 L14.2424826,5.29441413 L14.2424826,6.84145093 L13.7825594,7.34319141 L13.0717402,7.34319141 C12.9879488,7.34319141 12.9182864,7.37107097 12.862753,7.42683009 C12.8348668,7.48258922 12.8209237,7.55227949 12.8209237,7.63590091 L12.7370659,14.3257786 C12.7370659,14.3257786 12.7370659,14.3397151 12.7370659,14.367588 C12.7649521,14.3954609 12.7788952,14.4372703 12.7788952,14.4930162 C12.8067814,14.548762 12.834734,14.5905714 12.862753,14.6184443 C12.9186582,14.6463172 12.9743642,14.6602537 13.029871,14.6602537 C13.0857762,14.6323808 13.1554386,14.5905714 13.2388582,14.5348255 L20.1377848,7.80313048 C20.1377848,7.77527083 20.1517279,7.76134101 20.1796141,7.76134101 C20.2075003,7.73348137 20.2214434,7.69166535 20.2214434,7.63589294 C20.2493296,7.58013382 20.2632727,7.5383178 20.2632727,7.51044488 C20.2632727,7.45468575 20.2353201,7.41286973 20.1794149,7.38499681 C20.1515287,7.35712389 20.0818597,7.34318743 19.9704078,7.34318743 L19.3850765,7.34318743 L18.9669428,6.79963358 L18.9669428,5.21079138 L19.4268859,4.58361478 L28.0819062,4.66725347 L28.5,5.08537319 L28.5,6.92508762 L8.80668514,26.9110841 L6.59070817,26.9110841 L5.96352759,26.242116 L5.92169829,7.55226223 C5.92169829,7.4965031 5.89374569,7.4407639 5.8378405,7.38504461 C5.80995429,7.32928549 5.75424829,7.30140593 5.67072248,7.30140593 L4.95996297,7.25961647 L4.5,6.84150073 L4.5,4.91815757 L4.8766629,4.5 Z" id="path4121" fill="#444444" fill-rule="nonzero"></path>
    </g>
</svg>