<?xml version="1.0" encoding="UTF-8"?>
<svg width="32px" height="32px" viewBox="0 0 32 32" version="1.1" xmlns="http://www.w3.org/2000/svg" xmlns:xlink="http://www.w3.org/1999/xlink">
    <!-- Generator: Sketch 49.1 (51147) - http://www.bohemiancoding.com/sketch -->
    <title>windows</title>
    <desc>Created with Sketch.</desc>
    <defs></defs>
    <g id="windows" stroke="none" stroke-width="1" fill="none" fill-rule="evenodd">
        <path d="M8.42078071,5.60503828 C8.42078071,5.60503828 13.6365866,2.76767168 18.0984859,6.18609178 L15.6015779,14.7664105 C15.6015779,14.7664105 12.8069872,12.8416509 10.7319552,13.049011 C8.65692314,13.2563711 5.92419069,14.2502366 5.92419069,14.2502366 L8.42078071,5.60503828 Z M5.48402756,15.7621842 C5.48402756,15.7621842 8.28338875,14.4601409 10.6077618,14.6258382 C12.9318167,14.7916945 14.7875623,16.0426928 15.1878118,16.3300392 L12.6649837,24.9998853 C12.6649837,24.9998853 9.86069298,23.1749893 7.86866857,23.3410046 C5.87648515,23.5074969 4.14954454,23.8109042 3,24.4061103 L5.48402756,15.7621842 Z M16.4941486,17.1693387 C16.4941486,17.1693387 19.1567539,18.9007318 20.8997553,18.859228 C22.6169958,18.8182012 23.8050228,18.6828765 26.1348025,17.7696334 C26.1529306,17.7624776 26.2003181,17.7286066 26.1845753,17.7386248 C26.1348025,17.7696334 23.6881443,26.3305519 23.6881443,26.3305519 C23.6881443,26.3305519 20.9414182,27.6157392 18.4508709,27.4915457 C15.9609596,27.3670343 14.4655499,25.9430239 14.0096439,25.7625379 L16.4941486,17.1693387 Z M19.4188163,7.09122492 C20.1367847,7.60771692 21.4809679,8.52541253 23.6390075,8.77411742 C25.7972063,9.02314035 29.0965215,7.64604038 29.0965215,7.64604038 L26.6115399,16.2521201 C26.2329169,16.3794939 24.6766031,17.2820828 21.8129984,17.447939 C18.9492348,17.6141133 16.9157065,15.6220889 16.9157065,15.6220889 L19.4188163,7.09122492 Z" id="Combined-Shape" fill="#444444" fill-rule="nonzero"></path>
    </g>
</svg>