<svg xmlns="http://www.w3.org/2000/svg" viewBox="0 0 32 32"><path d="M12 24.2c-.2-.1-.3-.2-.4-.4-.1-.1-.1-.1-.2 0-.1.2-.1.4-.2.6-.3 1-.8 1.3-1.8 1.1-.2 0-.4-.1-.6-.2-.4-.2-.5-.5-.3-.9 0-.1.1-.2.1-.3-.4 0-.6-.2-.7-.5-.5-1.3-.4-2.3.6-3.3.1-.2.2-.3.2-.5 0-1.3.2-2.5 1.1-3.6.3-.4.7-.8 1.2-1.1.2-.1.2-.2.1-.4-.4-.5-.6-1-.7-1.6-.1-.5.2-1 .4-1.5.1-.1.2-.2.3-.2.4-.1.7-.4 1-.6.7-.7 1.5-1 2.5-1 .2 0 .3-.1.3-.2.1-.4.3-.8.6-1.2l.3-.3c.2-.2.5-.2.6.1.3.5.5 1 .7 1.4.1.2.2.2.3.1.7-.3.7-.3.9.4.5 2.1.2 4.1-1 6-.1.2-.3.4-.4.6-.1.2-.1.3.1.5.9.8 1.5 1.9 1.7 3.1.1.7.1 1.5 0 2.2-.1.4 0 .4.3.3.7-.2 1.4-.5 2-.9.7-.4 1.3-.8 2.1-.9.3 0 .5-.1.8 0 .3.1.5.4.5.7 0 .3-.2.5-.5.6-1 .2-1.9.7-2.7 1.3-1 .7-2.2 1.2-3.3 1.5-.1 0-.3.1-.4.2-.4.3-.8.3-1.3.4-1.1.1-2.1.2-3.2.2-.3 0-.6 0-1-.1-.3-.1-.6-.3-.7-.6-.1-.4 0-.7.3-.9.2 0 .3-.1.4-.1z"/></svg>